# .PCD v0.7 - Point Cloud Data file format
# 5 156 0
# 1 46 0
# 47 62 0
# 63 114 0
# 115 144 0
# 145 156 0
VERSION 0.7
FIELDS x y z normal_x normal_y normal_z curvature
SIZE 4 4 4 4 4 4 4
TYPE F F F F F F F
COUNT 1 1 1 1 1 1 1
WIDTH 156
HEIGHT 1
VIEWPOINT 0 0 0 1 0 0 0
POINTS 156
DATA ascii
26.9097 86.3032 378.595 0.537321 -0.762272 -0.36087 0.01
27.3639 85.872 380.283 0.535556 -0.756396 -0.37556 0.00836566
27.7776 85.2773 381.931 0.533572 -0.751197 -0.388592 0.0108896
28.4159 85.2185 383.613 0.555652 -0.730793 -0.396476 0.0104017
28.7608 84.3677 385.161 0.552846 -0.726838 -0.407514 0.00763871
29.2568 83.8052 386.797 0.561288 -0.714471 -0.417717 0.00766314
29.3942 82.7792 388.27 0.548342 -0.716003 -0.432043 0.00921891
30.0814 82.503 389.911 0.564695 -0.695934 -0.443617 0.0122302
30.5098 81.798 391.51 0.562065 -0.6866 -0.461155 0.0106384
30.9419 81.0947 393.11 0.55651 -0.679959 -0.477444 0.0101767
31.3662 80.2607 394.648 0.547181 -0.676408 -0.493016 0.0105196
31.7029 79.3095 396.138 0.534041 -0.676095 -0.507637 0.0112465
31.9116 78.252 397.58 0.517946 -0.678544 -0.520874 0.0100056
32.4298 77.8396 398.808 0.514352 -0.672773 -0.531807 0.00927026
33.0108 77.2732 400.415 0.505916 -0.667964 -0.545778 0.0104459
33.1573 76.0378 401.716 0.487686 -0.672429 -0.556778 0.0118527
33.5454 75.0447 403.166 0.472933 -0.669829 -0.572418 0.0115479
34.1081 74.2279 404.668 0.460966 -0.665003 -0.587606 0.0104726
34.6505 73.5062 406.225 0.450407 -0.660206 -0.60105 0.00918001
34.7345 72.1545 407.411 0.439384 -0.658914 -0.610553 0.0075912
35.1483 71.0976 408.808 0.432833 -0.653815 -0.62063 0.00648361
35.7828 70.4113 410.346 0.431044 -0.647234 -0.628721 0.00623519
36.1456 69.2551 411.677 0.430683 -0.639197 -0.637133 0.00808374
36.5121 68.1279 413.032 0.430384 -0.626851 -0.649482 0.00974491
36.916 66.989 414.366 0.430585 -0.613986 -0.661527 0.00989741
37.2291 65.7477 415.631 0.430384 -0.600757 -0.673692 0.010041
37.5404 64.484 416.875 0.430129 -0.587152 -0.685742 0.0101379
37.798 63.1514 418.057 0.429132 -0.573451 -0.697853 0.010132
38.353 62.1563 419.451 0.431122 -0.558957 -0.708309 0.00982552
38.2141 60.561 420.272 0.425324 -0.548317 -0.720033 0.00718385
38.8022 59.4557 421.566 0.430708 -0.539361 -0.723589 0.006643
39.2007 58.1733 422.764 0.43643 -0.528765 -0.727968 0.00812245
39.6889 56.9964 424.036 0.446336 -0.515882 -0.731198 0.00973092
40.0604 55.6846 425.211 0.456096 -0.500865 -0.735603 0.0107034
40.3493 54.2654 426.28 0.464915 -0.483785 -0.741489 0.0118265
40.6605 52.8588 427.359 0.474967 -0.464566 -0.747385 0.012606
40.9142 51.3733 428.343 0.483016 -0.444302 -0.754514 0.0124481
41.2493 49.9579 429.404 0.493041 -0.425266 -0.758986 0.0103441
41.2859 48.3052 430.116 0.488878 -0.411104 -0.76941 0.0105719
41.8075 47.1091 431.356 0.504268 -0.39167 -0.769616 0.00973882
41.9095 45.4469 432.039 0.497238 -0.379813 -0.780062 0.00935363
42.0338 43.8515 432.863 0.490664 -0.368337 -0.789669 0.00878359
42.4755 42.493 433.958 0.498632 -0.351095 -0.792526 0.00844729
42.7195 40.937 434.83 0.494919 -0.340079 -0.799626 0.0076121
42.8744 39.3007 435.564 0.484365 -0.334106 -0.808557 0.00674259
43.196 37.7925 436.492 0.483981 -0.323279 -0.813174 0.0101808
43.1672 36.0497 436.941 0.45622 -0.324073 -0.828758 0.0106037
43.4837 34.5378 437.865 0.455183 -0.311373 -0.83418 0.0116126
43.4847 32.8098 438.369 0.424946 -0.308764 -0.850932 0.0128069
43.573 31.1046 438.939 0.426922 -0.284246 -0.858453 0.013233
43.8496 29.4855 439.675 0.434081 -0.263359 -0.861519 0.00877689
43.6702 27.7192 439.972 0.421121 -0.256031 -0.870118 0.00536573
44.1418 26.1924 440.8 0.431086 -0.246075 -0.868108 0.00438473
44.2726 24.4781 441.333 0.425564 -0.241182 -0.872196 0.00488819
44.3735 22.7637 441.872 0.419478 -0.235915 -0.876574 0.00455276
44.7412 21.155 442.591 0.424814 -0.225528 -0.876739 0.00671998
44.5887 19.369 442.756 0.412072 -0.215279 -0.885354 0.00916186
44.9347 17.7573 443.479 0.423418 -0.19437 -0.884838 0.0146364
44.8686 15.9699 443.68 0.42284 -0.165016 -0.891053 0.01
43.5623 14.8386 443.177 0.387084 -0.154269 -0.909048 0.0196756
41.9596 14.5793 442.399 0.360482 -0.161755 -0.918634 0.0133731
40.5052 13.5768 442.053 0.344548 -0.166658 -0.923857 0.00720485
38.9474 12.7278 441.749 0.340207 -0.177115 -0.92352 0.0082286
37.4857 11.858 441.16 0.372102 -0.164266 -0.913541 0.0196892
35.8821 11.2266 440.641 0.402938 -0.15235 -0.902458 0.0185066
34.7373 9.86614 440.361 0.426749 -0.135984 -0.894088 0.0170822
33.4613 8.7095 439.837 0.451625 -0.120109 -0.884086 0.0148643
32.1711 7.59723 439.256 0.469367 -0.109008 -0.876249 0.0120566
30.6472 6.92273 438.575 0.486534 -0.101063 -0.867797 0.0116396
29.4317 5.71331 438.028 0.501308 -0.0879732 -0.860785 0.0119361
28.544 4.26837 437.424 0.514524 -0.0717072 -0.854472 0.00976907
27.0764 3.41595 436.825 0.523477 -0.0644216 -0.849601 0.0038483
25.8925 2.48141 435.842 0.52548 -0.0662897 -0.84822 0.00401597
24.3809 2.18028 434.913 0.533334 -0.0720243 -0.842833 0.00719268
22.8336 1.8336 434.061 0.544526 -0.0779267 -0.835116 0.01
21.2769 2.12836 433.206 0.560622 -0.08279 -0.823923 0.0143908
19.8435 2.3069 432.133 0.586981 -0.0791292 -0.805724 0.0178917
18.6142 3.02921 431.034 0.611998 -0.0752659 -0.78727 0.0182956
17.2654 3.69574 430.046 0.63878 -0.070035 -0.766195 0.0192525
15.9804 4.46859 429.05 0.665046 -0.0647269 -0.743992 0.020505
14.7729 5.12417 427.887 0.693416 -0.0582281 -0.718181 0.0230781
13.7726 5.61548 426.474 0.724039 -0.0503612 -0.687918 0.0260302
12.5533 6.08834 425.237 0.757403 -0.0452013 -0.651381 0.025043
11.3308 6.35901 423.944 0.783071 -0.0490816 -0.619992 0.0186946
10.1605 6.66823 422.611 0.796373 -0.0670869 -0.601073 0.0157875
9.27982 7.15657 421.119 0.809522 -0.0809214 -0.581486 0.0146682
8.44155 7.76353 419.647 0.821899 -0.0919563 -0.562163 0.0135993
7.67015 8.47688 418.185 0.833297 -0.1007 -0.543576 0.0125131
6.70411 9.01302 416.764 0.842942 -0.109766 -0.526687 0.0107796
6.01625 10.0362 415.453 0.851604 -0.112351 -0.512004 0.00887809
5.23435 11.0705 414.204 0.859207 -0.111787 -0.499267 0.00822901
4.81223 12.3181 412.977 0.86664 -0.108341 -0.487029 0.00843093
4.27395 13.3804 411.628 0.874299 -0.105696 -0.47374 0.00798595
3.97766 14.8894 410.692 0.880279 -0.0994702 -0.463913 0.00710377
3.63869 16.3532 409.701 0.885929 -0.094021 -0.454191 0.00749088
3.13454 17.5217 408.428 0.892461 -0.0899551 -0.442064 0.00788184
2.762 18.8848 407.313 0.898693 -0.088579 -0.429541 0.0076506
2.29992 20.2257 406.205 0.90439 -0.0892897 -0.41726 0.00746865
1.88909 21.4849 404.986 0.909694 -0.0910988 -0.405163 0.00751966
1.37158 22.6066 403.677 0.914937 -0.0932164 -0.392684 0.00650603
1.02752 24.0522 402.661 0.917867 -0.0980789 -0.384579 0.00539179
0.790208 25.5464 401.685 0.919896 -0.104771 -0.377908 0.00551416
0.588676 27.0073 400.653 0.921662 -0.11239 -0.371359 0.00434292
0.43978 28.5653 399.764 0.921393 -0.118267 -0.370199 0.00279467
0.160878 29.8779 398.565 0.922414 -0.121194 -0.366694 0.00275847
-0.206687 31.0553 397.254 0.924031 -0.123105 -0.361957 0.00298873
-0.559267 32.2015 395.911 0.925609 -0.125125 -0.357201 0.0028211
-0.821358 33.6339 394.853 0.925515 -0.130673 -0.355451 0.00297177
-1.21229 34.8396 393.575 0.92651 -0.134112 -0.351558 0.00300944
-1.48831 36.1099 392.33 0.926907 -0.138954 -0.348618 0.00299588
-2.01078 36.9672 390.836 0.929139 -0.139162 -0.342543 0.00310928
-2.30771 38.0546 389.433 0.930152 -0.142277 -0.338488 0.00320998
-2.36195 39.4228 388.264 0.929485 -0.149344 -0.337273 0.00301595
-2.74045 40.3356 386.76 0.931128 -0.150758 -0.332074 0.00354974
-3.30132 40.9023 385.146 0.933779 -0.149058 -0.325328 0.0040734
-3.71154 41.3064 383.441 0.936313 -0.146996 -0.31892 0.00278564
-3.92638 42.5864 382.194 0.935988 -0.153224 -0.316936 0.00394257
-4.30833 43.5216 380.704 0.93692 -0.158859 -0.31136 0.0047846
-4.71959 44.3278 379.148 0.937864 -0.165483 -0.305002 0.00544749
-4.95117 45.2359 377.611 0.938043 -0.174363 -0.299455 0.0056906
-5.31466 46.0127 376.028 0.938022 -0.182953 -0.294353 0.00343171
-6.0327 45.8771 374.383 0.938841 -0.183217 -0.291562 0.00378691
-6.24703 46.6879 372.791 0.937508 -0.194556 -0.28849 0.00539682
-6.6361 46.9758 371.057 0.93612 -0.201864 -0.287978 0.00374734
-7.17917 47.1771 369.353 0.932838 -0.199109 -0.30028 0.0108175
-7.47047 48.2317 367.923 0.927964 -0.187785 -0.321899 0.0125763
-7.41207 49.8699 367.18 0.92446 -0.177693 -0.33734 0.01
-6.93259 51.6048 367.193 0.919815 -0.174502 -0.351411 0.00794173
-6.65296 53.3628 367.46 0.91447 -0.176793 -0.363989 0.00660987
-6.09734 54.8969 368.22 0.910525 -0.187837 -0.368321 0.00801285
-5.53836 56.4759 368.88 0.905746 -0.203085 -0.371995 0.0144785
-4.94528 58.0283 369.571 0.8943 -0.235914 -0.380225 0.0242111
-4.30144 59.6564 369.989 0.876338 -0.282844 -0.389911 0.0292288
-3.28802 60.9316 370.755 0.860413 -0.333757 -0.385093 0.0322294
-2.43699 62.3857 371.389 0.839878 -0.391718 -0.375716 0.0342004
-1.40593 63.5323 372.317 0.820499 -0.445863 -0.357755 0.0342651
-0.414095 64.9015 372.935 0.793062 -0.501175 -0.346231 0.0316117
0.720867 66.085 373.677 0.767396 -0.544355 -0.338794 0.0266252
1.92028 67.2993 374.249 0.740803 -0.580878 -0.337331 0.0210444
3.17149 68.425 374.888 0.720668 -0.603918 -0.340471 0.0129992
4.44589 69.6929 374.979 0.71098 -0.61615 -0.33892 0.00774354
5.60805 70.5864 376.023 0.702183 -0.622508 -0.345577 0.00687116
6.82877 71.908 375.966 0.69436 -0.630453 -0.346978 0.00633272
8.13306 73.0634 376.417 0.68601 -0.635264 -0.354725 0.00964024
9.38841 74.3409 376.596 0.669551 -0.64741 -0.36409 0.0135564
10.564 75.6944 376.758 0.649723 -0.664289 -0.369568 0.0156964
11.9818 76.71 377.203 0.62772 -0.683661 -0.372257 0.0174947
13.4126 77.7907 377.361 0.603807 -0.70706 -0.368079 0.0200835
14.8549 78.8178 377.685 0.576341 -0.733147 -0.361007 0.0222062
16.3182 79.8605 377.792 0.545124 -0.75951 -0.354942 0.0222879
17.7588 80.9379 377.855 0.514337 -0.782872 -0.350099 0.0209483
19.2808 81.8988 377.862 0.484254 -0.803192 -0.34696 0.018292
20.8302 82.8135 377.915 0.459275 -0.818594 -0.344922 0.00496441
22.4259 83.3313 378.568 0.470735 -0.813229 -0.34215 0.0081241
23.9471 84.2871 378.457 0.484252 -0.806736 -0.338641 0.0117264
25.506 85.1869 378.442 0.506603 -0.791025 -0.342976 0.0202765
