# .PCD v0.7 - Point Cloud Data file format
# 4 173 0
# 1 38 0
# 39 61 0
# 62 137 0
# 138 173 0
VERSION 0.7
FIELDS x y z normal_x normal_y normal_z curvature
SIZE 4 4 4 4 4 4 4
TYPE F F F F F F F
COUNT 1 1 1 1 1 1 1
WIDTH 173
HEIGHT 1
VIEWPOINT 0 0 0 1 0 0 0
POINTS 173
DATA ascii
-30.4258 91.8884 361.227 -0.36412 0.794432 0.486101 0.01
-31.7704 90.7723 361.658 -0.363115 0.793985 0.48758 0.00270277
-33.0459 89.7335 362.389 -0.368433 0.788512 0.492448 0.00746504
-34.6522 88.9303 362.268 -0.385997 0.781927 0.489486 0.0112778
-36.1269 88.0366 362.785 -0.404137 0.77066 0.492703 0.00859805
-37.7643 87.3779 362.431 -0.409306 0.764893 0.497401 0.00657124
-39.1398 86.222 362.54 -0.417839 0.755848 0.504088 0.00851608
-40.3068 85.0238 363.205 -0.428651 0.74556 0.510292 0.00912089
-41.3669 83.7785 363.957 -0.44056 0.735047 0.515377 0.00853985
-42.0143 82.919 365.4 -0.449575 0.726537 0.519641 0.0083859
-42.991 81.7363 366.342 -0.461902 0.716075 0.523338 0.00877419
-43.8694 80.4919 367.301 -0.472359 0.706141 0.527487 0.00609973
-44.9786 79.0918 367.079 -0.468485 0.701754 0.536716 0.00601334
-45.5564 78.2614 368.568 -0.473365 0.69453 0.541806 0.0069398
-46.4817 76.9308 369.351 -0.474404 0.684944 0.552986 0.00903266
-47.3194 75.6013 370.229 -0.476762 0.672796 0.565725 0.0095829
-48.3048 74.1844 370.741 -0.478766 0.661319 0.577443 0.00961268
-49.0658 72.9408 371.796 -0.48386 0.648075 0.588114 0.00987808
-49.8175 71.5725 372.692 -0.48997 0.634479 0.597801 0.00998509
-50.6037 70.1822 373.522 -0.497677 0.620299 0.606256 0.0103363
-51.336 68.7868 374.392 -0.507262 0.605418 0.613314 0.0108597
-52.1576 67.3025 374.993 -0.517647 0.589743 0.619874 0.00972636
-52.778 65.905 375.943 -0.517739 0.577499 0.631222 0.00974276
-53.5252 64.4261 376.646 -0.513448 0.565892 0.645088 0.0101488
-54.1939 62.8497 377.201 -0.510184 0.553876 0.657977 0.00963695
-54.8867 61.3184 377.846 -0.508969 0.541386 0.669217 0.0088226
-55.3779 59.8785 378.808 -0.513872 0.528193 0.675979 0.00862673
-55.8633 58.3432 379.612 -0.517817 0.515078 0.683053 0.00860252
-56.5909 56.8291 380.259 -0.519278 0.502097 0.691555 0.00853267
-57.0554 55.2621 381.013 -0.524773 0.48871 0.696977 0.00859754
-57.375 53.717 381.879 -0.532284 0.475494 0.700413 0.00884108
-58.0878 52.0904 382.173 -0.536521 0.461419 0.706568 0.0103195
-58.4228 50.5606 383.06 -0.546103 0.443419 0.71074 0.0115171
-58.7834 48.9562 383.792 -0.555227 0.425377 0.714687 0.0113907
-59.1575 47.2883 384.356 -0.56416 0.407414 0.718149 0.0109331
-59.3986 45.6806 385.129 -0.572857 0.390782 0.720503 0.0103271
-59.6318 44.0287 385.805 -0.580955 0.374567 0.722628 0.0105992
-60.0043 43.0002 385.752 -0.586232 0.364263 0.723633 0.00970623
-60.0941 41.4871 386.723 -0.592419 0.350701 0.725292 0.0086134
-60.3363 39.8244 387.368 -0.598794 0.336301 0.726875 0.00883371
-60.6433 38.0774 387.674 -0.60548 0.321989 0.727817 0.00822194
-60.5755 36.5852 388.679 -0.607756 0.309311 0.73141 0.00803918
-60.7159 34.8785 389.233 -0.611965 0.29479 0.733893 0.00834167
-60.8218 33.19 389.848 -0.615092 0.2807 0.736797 0.00839438
-61.0626 31.408 389.929 -0.62027 0.266377 0.737772 0.00811998
-61.1671 29.6869 390.445 -0.622185 0.252891 0.7409 0.00764698
-61.2025 28.013 391.106 -0.621999 0.239995 0.745332 0.00766538
-61.0801 26.3344 391.744 -0.61993 0.22734 0.751002 0.00782851
-61.0642 24.625 392.308 -0.617648 0.214562 0.75662 0.0077274
-61.0398 22.8944 392.802 -0.614505 0.202584 0.762459 0.00767752
-60.9166 21.1972 393.389 -0.609224 0.191628 0.769497 0.00843123
-60.6502 19.5393 394.037 -0.60192 0.179823 0.778046 0.00910297
-60.4977 17.8171 394.538 -0.594567 0.167721 0.786358 0.00979411
-60.1567 16.1761 395.195 -0.585606 0.154211 0.795791 0.0101208
-60.0519 14.4172 395.562 -0.577321 0.141333 0.804192 0.00992695
-59.875 12.6493 395.851 -0.568383 0.127917 0.81276 0.0106579
-59.4833 10.9999 396.456 -0.55943 0.112291 0.821236 0.0108967
-59.1057 9.3138 396.96 -0.551296 0.096441 0.828717 0.00946748
-58.9273 7.53533 397.173 -0.543077 0.0861052 0.835256 0.00838426
-58.5197 5.86494 397.706 -0.536546 0.0732341 0.840687 0.00871972
-58.2731 4.08518 397.814 -0.52815 0.0614111 0.846928 0.00889979
-57.7999 2.406 398.257 -0.522573 0.0466911 0.851315 0.00911097
-57.1158 0.869631 398.899 -0.520942 0.0301438 0.85306 0.0094599
-56.9247 -0.920094 398.879 -0.51206 0.0162494 0.858796 0.00961608
-56.2756 -2.52116 399.385 -0.51102 -0.00162867 0.859567 0.010033
-55.8042 -4.25567 399.481 -0.50624 -0.0189281 0.862185 0.00992829
-55.2834 -5.95635 399.757 -0.50388 -0.0364291 0.863005 0.00966959
-54.4613 -7.44734 400.341 -0.508649 -0.0532249 0.859327 0.00906437
-53.8478 -9.11698 400.617 -0.508622 -0.0681489 0.858289 0.00785257
-53.3433 -10.8439 400.672 -0.505314 -0.0812256 0.859104 0.00733154
-52.7409 -12.5391 400.732 -0.502607 -0.0938123 0.85941 0.00768022
-51.8537 -14.0066 401.279 -0.505823 -0.108273 0.855816 0.00760798
-51.2494 -15.7021 401.279 -0.495056 -0.119634 0.860585 0.00922319
-50.5108 -17.3376 401.419 -0.484106 -0.131549 0.865065 0.00875894
-49.4867 -18.7365 401.903 -0.477104 -0.144381 0.866906 0.01
-47.9132 -18.6628 402.774 -0.478188 -0.149325 0.86547 0.00138149
-46.3386 -18.5574 403.64 -0.478823 -0.148733 0.865221 0.00315839
-44.8819 -18.4382 404.691 -0.47013 -0.143427 0.870865 0.0151349
-43.2507 -18.65 405.422 -0.432352 -0.139056 0.890918 0.0243434
-41.5882 -18.4314 406.076 -0.393369 -0.131354 0.909949 0.0239445
-40.1001 -18.4193 407.089 -0.355856 -0.12435 0.926231 0.0234287
-38.3482 -18.1774 407.424 -0.318656 -0.115261 0.940836 0.0187997
-36.6813 -17.8936 408.041 -0.295056 -0.106721 0.949501 0.0142893
-34.9619 -17.8734 408.573 -0.271528 -0.102989 0.956904 0.0140069
-33.2148 -18.0894 408.949 -0.246853 -0.103862 0.963471 0.0142777
-31.5443 -17.5833 409.388 -0.222786 -0.102558 0.969458 0.0117949
-29.7843 -17.6539 409.759 -0.206197 -0.108409 0.972487 0.00709321
-28.108 -17.1325 410.157 -0.199077 -0.109841 0.973809 0.00459962
-26.368 -16.9721 410.589 -0.190548 -0.112791 0.975177 0.00502728
-24.5973 -16.8564 410.891 -0.181979 -0.115056 0.976548 0.00532383
-22.8597 -16.6984 411.333 -0.171853 -0.115477 0.978331 0.00743364
-21.101 -16.6257 411.71 -0.155703 -0.113399 0.981273 0.0101035
-19.416 -16.0479 411.968 -0.138498 -0.103689 0.98492 0.0102278
-17.667 -16.4267 412.162 -0.123598 -0.0995524 0.987326 0.00888393
-15.8904 -16.7153 412.145 -0.109336 -0.0916599 0.98977 0.00929357
-14.1104 -16.897 412.341 -0.0977599 -0.0789547 0.992073 0.0114764
-12.3215 -16.7893 412.509 -0.0851308 -0.0587033 0.994639 0.0173374
-10.8329 -15.7967 412.707 -0.0631033 -0.0299455 0.997558 0.01
-10.3108 -14.084 412.891 -0.0341977 -0.00879235 0.999376 0.0202506
-9.68919 -12.3971 412.802 -0.00424369 0.0125942 0.999912 0.0189766
-9.41837 -10.6189 412.872 0.0220538 0.0292409 0.999329 0.0219986
-8.35613 -9.16845 412.959 0.0624573 0.0507727 0.996755 0.0200455
-8.19074 -7.40661 412.63 0.0809843 0.0650207 0.994592 0.0145555
-7.53508 -5.73199 412.554 0.103265 0.0821414 0.991256 0.0148802
-6.88488 -4.06282 412.378 0.121668 0.099129 0.987608 0.0130333
-6.53 -2.32591 412.066 0.134546 0.116094 0.984083 0.0126544
-5.90796 -0.690155 411.645 0.148814 0.134629 0.979658 0.0112836
-5.54868 1.05414 411.383 0.160019 0.146512 0.97618 0.00846709
-5.11774 2.77543 411.081 0.169491 0.156032 0.973102 0.00666574
-4.68437 4.4748 410.675 0.175904 0.163633 0.970712 0.00460353
-4.22817 6.09562 410.039 0.179086 0.168927 0.969222 0.00298381
-4.17676 7.86335 409.704 0.174285 0.174025 0.969195 0.00460457
-4.12776 9.65595 409.548 0.165711 0.178663 0.969855 0.00558271
-3.66798 11.3049 408.992 0.155184 0.178768 0.971576 0.00778695
-3.45404 13.0446 408.583 0.138102 0.179367 0.974041 0.0104119
-3.51855 14.835 408.409 0.120426 0.192048 0.973969 0.0115148
-3.28442 16.602 408.158 0.103504 0.201921 0.973917 0.0107247
-2.97688 18.3362 407.786 0.0871169 0.211506 0.973486 0.0101328
-2.93377 20.094 407.401 0.0742205 0.223412 0.971894 0.00934552
-2.92786 21.8478 406.996 0.063736 0.235412 0.969804 0.00889657
-2.63805 23.5304 406.426 0.0519341 0.245868 0.967911 0.00795113
-2.84653 25.2774 406.046 0.04784 0.258306 0.964878 0.00734385
-2.77821 26.9953 405.513 0.0420495 0.269566 0.962063 0.00711109
-2.77426 28.7094 404.963 0.0387534 0.281449 0.958793 0.00747028
-2.30407 30.3485 404.387 0.0311597 0.293026 0.955597 0.00718963
-2.50529 32.0677 403.893 0.0337188 0.305315 0.951654 0.00726654
-2.33574 33.7399 403.249 0.0332289 0.317679 0.947616 0.00725774
-2.32523 35.4669 402.742 0.0365007 0.32987 0.943321 0.00751214
-2.25779 37.1593 402.132 0.0407798 0.342083 0.938784 0.00777423
-2.04127 38.7958 401.415 0.0450946 0.354731 0.93388 0.00821096
-2.34558 40.5087 400.953 0.0566029 0.364713 0.929398 0.00882341
-2.38754 42.2043 400.35 0.066872 0.375637 0.924351 0.00814659
-2.00739 43.8117 399.635 0.0741039 0.3858 0.919601 0.00766317
-2.22096 45.4702 398.969 0.0865096 0.392371 0.91573 0.0079772
-2.45941 47.1298 398.314 0.0984544 0.398827 0.911726 0.00770848
-2.59096 48.7758 397.597 0.109154 0.406006 0.907328 0.00739174
-2.98878 50.3813 396.887 0.120041 0.411785 0.90334 0.00720666
-2.95178 51.9771 396.055 0.128785 0.420014 0.898333 0.00722066
-2.90119 53.6105 395.301 0.137361 0.428262 0.893154 0.00716721
-2.88067 55.2255 394.506 0.14573 0.436412 0.887867 0.00656968
-2.99062 56.7452 393.548 0.15348 0.442554 0.88351 0.00442281
-3.52594 58.3654 392.975 0.157043 0.445273 0.881515 0.00324548
-3.53442 59.9423 392.107 0.159959 0.450533 0.878313 0.00355646
-3.835 61.6147 391.513 0.158539 0.4564 0.875537 0.00416009
-4.06407 63.2394 390.773 0.155108 0.463417 0.87246 0.00483396
-4.10077 64.7486 389.792 0.151195 0.470765 0.869207 0.00538463
-4.13702 66.3254 388.925 0.145187 0.478704 0.865889 0.00733761
-4.61814 67.8907 388.178 0.133755 0.488936 0.862004 0.00949445
-4.99722 69.4849 387.433 0.121525 0.501518 0.856569 0.0117646
-5.28088 70.9688 386.454 0.108995 0.519823 0.847292 0.0144458
-5.81572 72.4355 385.558 0.0932268 0.540051 0.836453 0.0160159
-6.40424 73.906 384.703 0.0762434 0.561229 0.824141 0.0168514
-6.96767 75.3158 383.736 0.0590112 0.582817 0.810458 0.0175946
-7.68267 76.6801 382.805 0.0407023 0.604893 0.795266 0.01826
-8.4855 77.9793 381.852 0.0217774 0.626791 0.778883 0.0199871
-9.60983 79.0827 380.981 -0.00623165 0.647476 0.76206 0.0210721
-10.3753 80.2749 379.871 -0.0306774 0.667785 0.743722 0.01955
-11.2196 81.2613 378.625 -0.0556222 0.683624 0.727711 0.0189115
-12.6927 82.0717 377.982 -0.0880346 0.689221 0.719183 0.0168141
-13.5831 83.1537 376.852 -0.112603 0.690806 0.714219 0.0144693
-14.7662 83.9669 375.766 -0.138203 0.693452 0.707124 0.0113653
-15.9871 84.7775 374.721 -0.151077 0.69646 0.701512 0.0057215
-17.2552 85.5287 373.688 -0.154754 0.700244 0.696929 0.00412893
-18.1975 86.5018 372.502 -0.159885 0.703777 0.692195 0.00478442
-19.7163 87.0191 371.686 -0.161858 0.710034 0.685313 0.00601158
-21.1065 87.5826 370.691 -0.165627 0.717524 0.676555 0.00883018
-22.1231 88.7898 369.826 -0.179206 0.725392 0.664599 0.0165544
-23.2013 89.177 368.437 -0.210564 0.734458 0.645163 0.0221497
-24.3822 89.7842 367.222 -0.24317 0.744671 0.621557 0.0235552
-25.9075 90.0063 366.293 -0.274221 0.755405 0.595118 0.0240954
-26.6824 90.5638 364.767 -0.303539 0.764996 0.568018 0.0238433
-28.1512 90.9471 363.799 -0.33111 0.775245 0.537923 0.021513
-29.4912 91.3302 362.66 -0.350322 0.785597 0.510012 0.0180801
