# .PCD v0.7 - Point Cloud Data file format
# 6 93 0
# 1 4 0
# 5 15 0
# 16 38 0
# 39 58 0
# 59 73 0
# 74 93 0
VERSION 0.7
FIELDS x y z normal_x normal_y normal_z curvature
SIZE 4 4 4 4 4 4 4
TYPE F F F F F F F
COUNT 1 1 1 1 1 1 1
WIDTH 93
HEIGHT 1
VIEWPOINT 0 0 0 1 0 0 0
POINTS 93
DATA ascii
55.8845 -13.4979 406.838 0.571472 0.222707 0.789823 0.01
56.0163 -11.8024 406.249 0.578016 0.251634 0.776259 0.0178885
56.1987 -10.2671 405.327 0.581422 0.280366 0.763769 0.0176305
56.0933 -8.55657 404.776 0.580988 0.30981 0.752642 0.0177515
55.9936 -6.87848 404.133 0.577272 0.340365 0.742233 0.0184925
55.7866 -5.18628 403.555 0.570245 0.372237 0.732298 0.0195951
55.3817 -3.49763 403.082 0.560364 0.405674 0.722094 0.0206863
54.9974 -1.86283 402.434 0.547921 0.440041 0.71144 0.0208874
54.4613 -0.252079 401.835 0.533782 0.47274 0.701137 0.0135936
53.758 1.28916 401.227 0.52173 0.480761 0.704746 0.00777856
53.0152 2.81828 400.635 0.511141 0.487897 0.707595 0.0068292
52.2101 4.34807 400.134 0.502023 0.494679 0.709412 0.00587792
51.1378 5.79377 400.129 0.496565 0.502865 0.707496 0.00545023
50.0884 7.21908 399.801 0.490222 0.510032 0.706788 0.00537282
48.8813 8.54999 399.908 0.486577 0.518618 0.703049 0.00570452
47.6558 9.81486 399.536 0.480784 0.527029 0.700776 0.00630012
46.3302 11.0325 399.537 0.47652 0.537438 0.695765 0.0120317
44.9075 12.1352 399.547 0.448515 0.555852 0.699902 0.0190349
43.4498 13.191 399.568 0.419122 0.574066 0.70341 0.0189453
41.9524 14.1887 399.521 0.390517 0.591225 0.705655 0.0182328
40.3788 15.0472 399.685 0.362892 0.607426 0.706642 0.0171384
40.0995 15.1089 400.127 0.358675 0.609937 0.706632 0.0163341
38.4454 15.8157 400.194 0.332217 0.624245 0.707071 0.0161786
36.7756 16.406 400.516 0.307138 0.636682 0.707321 0.0151843
35.0705 16.9307 400.755 0.282826 0.647603 0.707545 0.01
33.3825 17.2604 401.286 0.260229 0.655855 0.708615 0.0139597
31.617 17.5316 401.508 0.235355 0.663189 0.710484 0.0143634
29.9149 17.6396 402.084 0.210407 0.666799 0.714918 0.0146091
28.1568 17.7112 402.463 0.184106 0.668429 0.72063 0.015219
26.3588 17.6885 402.545 0.157273 0.668024 0.72733 0.0165062
24.7729 17.3867 403.341 0.128866 0.663125 0.737332 0.0176745
23.2412 16.9802 404.195 0.0983666 0.656196 0.748152 0.0194347
21.5087 16.6114 404.515 0.0650175 0.647952 0.758901 0.0208273
19.8481 16.148 405.032 0.0292986 0.637421 0.769959 0.0176437
18.3183 15.4601 405.685 0.0095435 0.625835 0.779897 0.0119007
16.7023 14.7983 406.122 -0.00131597 0.614423 0.788976 0.01
15.2542 13.9313 406.747 -0.0140861 0.604011 0.796852 0.0101569
13.9297 12.9667 407.493 -0.0280313 0.594365 0.803707 0.0102333
12.7665 11.9257 408.389 -0.0432614 0.585547 0.809483 0.0107413
11.3693 10.8257 408.668 -0.0581515 0.574839 0.816198 0.0113557
10.3355 9.55237 409.409 -0.0763068 0.565658 0.821102 0.012167
9.31047 8.23972 410.092 -0.0962983 0.555618 0.825842 0.0128748
8.6059 6.88087 411.039 -0.117855 0.547303 0.828595 0.0151446
7.76143 5.4889 411.807 -0.142475 0.528933 0.836619 0.0208195
7.03392 4.01371 412.538 -0.167529 0.496304 0.851831 0.0234553
6.45229 2.49296 413.306 -0.189579 0.464886 0.864836 0.021921
5.81715 0.8941 413.835 -0.209466 0.434264 0.876093 0.0199597
5.47249 -0.66861 414.659 -0.222951 0.405611 0.886438 0.0173627
5.43262 -2.12633 415.714 -0.2288 0.378937 0.896692 0.0170044
4.76662 -3.79583 415.618 -0.238732 0.353938 0.904287 0.0164001
4.83342 -5.45243 416.319 -0.237461 0.326373 0.914928 0.0171365
5.17563 -7.03478 417.106 -0.22956 0.297439 0.926732 0.0185356
5.28703 -8.74901 417.644 -0.22056 0.266554 0.938244 0.0172445
5.63476 -10.4143 418.232 -0.207283 0.243505 0.947491 0.0143994
5.97618 -12.1302 418.655 -0.193854 0.225396 0.954786 0.0137019
6.5871 -13.7362 419.191 -0.179689 0.205527 0.962014 0.0141157
7.09102 -15.4386 419.487 -0.165823 0.185505 0.968551 0.0144392
7.80736 -17.0549 419.826 -0.151707 0.163752 0.974767 0.0151256
8.69605 -18.5872 420.146 -0.13778 0.140463 0.980452 0.01
9.83609 -19.9227 420.542 -0.12487 0.115719 0.985402 0.0161765
10.9632 -21.2969 420.826 -0.111626 0.0893036 0.98973 0.0168145
12.277 -22.4943 421.11 -0.0995084 0.0614749 0.993136 0.0178727
13.4813 -23.8306 421.17 -0.0856897 0.0309606 0.995841 0.0188744
14.9154 -24.9072 421.327 -0.0738194 -0.000924576 0.997271 0.0199172
16.2991 -26.0578 421.365 -0.0604834 -0.03608 0.997517 0.0214579
17.8926 -26.8509 421.633 -0.0354787 -0.0672105 0.997108 0.0215969
19.3873 -27.8522 421.577 0.00198758 -0.0815522 0.996667 0.0212035
21.0286 -28.5912 421.569 0.0351298 -0.095391 0.99482 0.0189082
22.5478 -29.4751 421.18 0.0661421 -0.10244 0.992538 0.0172727
24.3042 -29.8683 421.164 0.0934134 -0.112944 0.9892 0.0157221
25.8709 -30.6484 420.743 0.12029 -0.114438 0.986121 0.0149585
27.6669 -30.7353 420.659 0.144575 -0.122163 0.981924 0.0142205
29.4519 -30.8831 420.481 0.169341 -0.126146 0.977451 0.0143017
31.1578 -31.211 420.009 0.194935 -0.124771 0.972848 0.015097
32.9398 -31.0212 419.84 0.22179 -0.127984 0.966659 0.0159339
34.6482 -31.1634 419.292 0.250277 -0.124421 0.960146 0.016907
36.3579 -31.1516 418.729 0.280378 -0.120285 0.952323 0.018224
38.0574 -30.6455 418.419 0.312449 -0.120062 0.942317 0.0195977
39.6239 -30.6879 417.534 0.345247 -0.109828 0.932063 0.01
41.2177 -30.0567 416.985 0.382344 -0.105476 0.91798 0.0247473
42.7741 -29.5344 416.247 0.424593 -0.0838141 0.901496 0.0289857
44.2376 -28.5893 415.794 0.465136 -0.0542419 0.883576 0.0226452
45.6964 -27.9577 414.95 0.474129 -0.0237586 0.880135 0.0178509
46.9432 -26.782 414.399 0.487259 0.00404613 0.873248 0.0164498
48.2338 -25.7644 413.665 0.49599 0.0297312 0.867819 0.014825
49.4156 -24.5932 412.978 0.504469 0.0531658 0.861791 0.0137177
50.5055 -23.4021 412.182 0.511765 0.0749309 0.855852 0.0127826
51.5745 -22.2014 411.373 0.518259 0.0954183 0.849884 0.0122856
52.4422 -20.7345 410.794 0.526707 0.113994 0.842369 0.0119211
53.267 -19.2561 410.182 0.534981 0.131828 0.834516 0.0117174
54.0989 -17.8675 409.395 0.542829 0.149493 0.826432 0.011705
54.8666 -16.5119 408.493 0.551289 0.166717 0.817488 0.0144388
55.486 -15.0863 407.585 0.561784 0.192605 0.804551 0.0183024
