# .PCD v0.7 - Point Cloud Data file format
# 3 154 0
# 1 72 0
# 73 146 0
# 147 154 0
VERSION 0.7
FIELDS x y z normal_x normal_y normal_z curvature
SIZE 4 4 4 4 4 4 4
TYPE F F F F F F F
COUNT 1 1 1 1 1 1 1
WIDTH 154
HEIGHT 1
VIEWPOINT 0 0 0 1 0 0 0
POINTS 154
DATA ascii
-3.81936 -67.4041 439.158 0.0133753 -0.284027 0.958723 0.01
-2.10738 -66.854 439.239 0.017273 -0.271046 0.962412 0.0109288
-1.07628 -65.5004 439.826 0.0425349 -0.261575 0.964245 0.0158693
0.602668 -64.8527 439.867 0.0701021 -0.258188 0.963548 0.0127603
2.17359 -63.9854 440.008 0.0879645 -0.255865 0.962702 0.00794197
3.30826 -62.6067 440.236 0.0960912 -0.247569 0.964093 0.00984194
4.48803 -61.262 440.435 0.116029 -0.234391 0.965193 0.0187408
5.94812 -60.2108 440.38 0.155481 -0.216849 0.963744 0.0274288
7.33395 -59.0625 440.411 0.205925 -0.194202 0.959104 0.0282068
7.21442 -58.8335 440.653 0.20322 -0.193394 0.959844 0.0314999
8.53078 -57.6247 440.439 0.258921 -0.169773 0.950861 0.0268263
9.41727 -56.0606 440.527 0.286386 -0.149352 0.946402 0.0174664
10.6042 -54.7543 440.173 0.30886 -0.134179 0.941595 0.0117976
11.5149 -53.226 439.9 0.319461 -0.12399 0.939453 0.00564205
12.1884 -51.56 440.004 0.316635 -0.115601 0.941477 0.00657203
12.7734 -49.8601 440.094 0.303304 -0.10832 0.946717 0.00885464
13.5342 -48.2293 440.135 0.289315 -0.102857 0.951692 0.00889425
14.5686 -46.7606 440.022 0.274409 -0.0991079 0.956492 0.00815453
15.3602 -45.144 440.022 0.265424 -0.0882182 0.960087 0.00674261
16.4351 -43.7132 439.829 0.264832 -0.0774608 0.961178 0.0072909
17.2055 -42.0898 439.723 0.268885 -0.0623627 0.961151 0.00924742
18.1877 -40.6057 439.454 0.278845 -0.04746 0.959163 0.0104868
19.1592 -39.1199 439.156 0.291052 -0.0322152 0.956165 0.0109652
20.0459 -37.5697 438.931 0.301979 -0.0160705 0.953179 0.0115532
20.5969 -35.8596 438.823 0.317093 -0.00105493 0.948394 0.0145274
21.4243 -34.2882 438.529 0.340498 0.0163785 0.940102 0.0190299
22.2997 -32.7789 438.087 0.370937 0.0359116 0.927963 0.0204148
22.8815 -31.0952 437.829 0.399194 0.0521807 0.91538 0.0197505
23.465 -29.443 437.417 0.42883 0.0669256 0.900903 0.0160467
23.6334 -27.6608 437.228 0.445128 0.0771904 0.892134 0.0144101
24.182 -26.0137 436.753 0.470033 0.087685 0.878283 0.0109314
24.1904 -24.2229 436.571 0.474382 0.0960045 0.875069 0.00866657
24.7821 -22.6152 436.019 0.492914 0.102149 0.864061 0.0059263
24.761 -20.8214 435.871 0.487004 0.110179 0.866422 0.00711468
24.8405 -19.0503 435.56 0.483301 0.125736 0.866378 0.00972883
24.7298 -17.2615 435.394 0.474205 0.142609 0.868788 0.0103663
24.6284 -15.48 435.157 0.466584 0.158885 0.870089 0.00922299
24.6713 -13.7163 434.8 0.463373 0.173947 0.868923 0.00836337
24.7515 -11.9697 434.372 0.461673 0.188401 0.866812 0.00821505
24.7796 -10.2078 434.004 0.458715 0.202896 0.865109 0.0082377
24.7516 -8.45096 433.614 0.455377 0.217175 0.863404 0.00813321
24.6688 -6.70533 433.183 0.451917 0.23115 0.861592 0.00756645
24.7216 -4.99313 432.63 0.451792 0.243636 0.85821 0.00689755
24.6973 -3.25383 432.167 0.44925 0.255222 0.856175 0.00735741
24.4182 -1.52313 431.759 0.442067 0.268096 0.85598 0.00804367
24.2727 0.212139 431.303 0.436478 0.281141 0.854662 0.00798074
24.1371 1.91105 430.724 0.431223 0.294495 0.85283 0.00807156
24.0796 3.60822 430.127 0.426399 0.308061 0.85046 0.0087738
23.8476 5.30998 429.588 0.418183 0.322964 0.84901 0.00996995
23.5447 7.01766 429.106 0.408111 0.338812 0.847733 0.0100408
23.3119 8.58063 428.245 0.400716 0.35408 0.845017 0.0110403
22.8218 10.3055 428.087 0.385481 0.370263 0.845169 0.0123734
22.3027 11.9615 427.61 0.370232 0.386303 0.844807 0.0127625
21.7156 13.5853 427.101 0.353664 0.403368 0.843929 0.013085
21.1705 15.2008 426.524 0.33809 0.420602 0.841896 0.0124329
20.7356 16.8051 425.833 0.325209 0.437415 0.838395 0.0128268
19.8413 18.3211 425.456 0.308161 0.454467 0.835761 0.0123795
19.3485 19.8781 424.7 0.297494 0.470732 0.830607 0.0113742
18.6686 21.4135 424.051 0.285448 0.486866 0.825519 0.0110424
18.1088 22.9459 423.291 0.276576 0.502486 0.819154 0.00917467
17.3272 24.4341 422.647 0.266128 0.512049 0.81669 0.00726524
16.6 25.9356 421.971 0.257613 0.519876 0.814472 0.00597839
16.0905 27.4503 421.143 0.25221 0.527465 0.811277 0.00564067
15.0829 28.816 420.543 0.245264 0.534596 0.808735 0.00451767
14.394 30.2635 419.725 0.249337 0.541126 0.803127 0.00522958
14.0057 31.6951 418.705 0.251532 0.548272 0.797577 0.00584163
13.206 33.1647 418.041 0.258877 0.554785 0.790694 0.00728624
12.0893 34.5011 417.586 0.268677 0.561237 0.782832 0.0066816
11.5909 35.9748 416.68 0.268352 0.570603 0.776144 0.00686415
10.8923 37.4229 415.871 0.267137 0.581309 0.768582 0.00960363
10.1666 38.8617 415.069 0.262926 0.59863 0.756646 0.0127482
9.53722 40.1892 414.029 0.24948 0.617134 0.74626 0.0178017
8.79796 41.5692 413.141 0.2151 0.637623 0.739709 0.0240477
7.78357 42.8635 412.409 0.174707 0.657819 0.732633 0.0229906
6.96129 44.0715 411.358 0.14349 0.67493 0.723796 0.0173457
6.53024 45.3454 410.161 0.12412 0.688692 0.714351 0.0156542
5.45466 46.4915 409.284 0.0990943 0.701975 0.705274 0.0131782
4.77396 47.722 408.161 0.0881269 0.712692 0.695919 0.00765148
3.74405 48.8386 407.195 0.0873374 0.720047 0.688407 0.00653538
2.89078 49.9896 406.105 0.100137 0.725804 0.680574 0.0110627
1.1194 50.2095 405.873 0.122729 0.720453 0.682557 0.01
0.816808 49.1238 407.277 0.117405 0.711703 0.6926 0.00808184
-0.167115 48.0355 408.32 0.118787 0.701152 0.703047 0.00822082
-0.823075 46.9101 409.562 0.11404 0.691289 0.713522 0.00948003
-1.44817 45.7388 410.777 0.101199 0.681551 0.724739 0.0107864
-2.09357 44.5291 411.944 0.0887097 0.671707 0.735487 0.0102812
-2.63761 43.3192 413.16 0.0772665 0.662236 0.745301 0.00919813
-2.85722 42.0784 414.446 0.0679075 0.653724 0.75368 0.00868501
-3.7977 40.9002 415.429 0.0593276 0.644408 0.762377 0.00783637
-4.46241 39.6121 416.496 0.0531461 0.636063 0.769805 0.00656826
-4.9213 38.3004 417.64 0.049195 0.62834 0.776381 0.00698261
-5.41904 36.9611 418.735 0.0447669 0.617879 0.784998 0.00862487
-6.10921 35.6168 419.713 0.0371171 0.606228 0.794424 0.009444
-6.44497 34.277 420.867 0.0307984 0.593735 0.804071 0.00969898
-6.93666 32.869 421.875 0.0224629 0.581055 0.813554 0.00987763
-7.40878 31.4575 422.887 0.014135 0.568395 0.822634 0.00961254
-7.88499 30.0228 423.865 0.00627616 0.556029 0.831139 0.00909475
-8.41294 28.5616 424.774 -0.000849742 0.544268 0.838911 0.00788561
-9.03248 27.0784 425.584 -0.00316646 0.533607 0.845727 0.00725026
-8.89825 25.6857 426.716 -0.00490256 0.523053 0.852286 0.00710929
-9.47769 24.1962 427.544 0.00108282 0.51263 0.858609 0.00749195
-9.72287 22.6913 428.501 -0.000581559 0.500302 0.865851 0.00817306
-9.99073 21.1543 429.399 -0.00515215 0.487728 0.872981 0.00892877
-10.4847 19.5984 430.157 -0.0134894 0.47464 0.880077 0.0096926
-10.8356 18.0326 430.973 -0.0236898 0.461618 0.886763 0.00968564
-11.0301 16.4456 431.799 -0.0335623 0.449179 0.892811 0.0103507
-11.5212 14.8748 432.528 -0.0479449 0.436137 0.898602 0.0103615
-11.736 13.2531 433.279 -0.0589821 0.424277 0.90361 0.00900291
-11.8967 11.6152 434.008 -0.0686028 0.413054 0.908119 0.010242
-12.1568 9.97133 434.694 -0.0797976 0.395988 0.914782 0.01084
-12.1533 8.35453 435.485 -0.084567 0.380037 0.921097 0.0110098
-12.6562 6.7144 436.03 -0.0990405 0.363858 0.926174 0.0105923
-12.7717 5.0841 436.784 -0.10343 0.348899 0.931435 0.00950408
-13.2404 3.38807 437.163 -0.113995 0.334898 0.935333 0.00845134
-13.2133 1.7007 437.79 -0.111565 0.321367 0.94036 0.00811146
-13.2233 0.0126119 438.414 -0.107646 0.308167 0.945222 0.00785617
-13.3622 -1.70716 438.927 -0.104005 0.29576 0.949583 0.0081497
-13.3972 -3.43846 439.419 -0.0961014 0.2828 0.954352 0.00945843
-13.4356 -5.16472 439.927 -0.0882215 0.267289 0.959569 0.010034
-13.4762 -6.89859 440.409 -0.0816017 0.2513 0.964463 0.00940962
-13.7956 -8.65048 440.671 -0.0795665 0.235958 0.9685 0.0101731
-13.3293 -10.2679 441.309 -0.0705447 0.218716 0.973235 0.0102397
-13.6427 -12.0224 441.56 -0.0708719 0.202288 0.976758 0.00982071
-13.0683 -13.6544 442.057 -0.0651196 0.185771 0.980433 0.00993256
-13.4868 -15.399 442.203 -0.068992 0.168784 0.983235 0.00983946
-13.2358 -17.1466 442.554 -0.0691853 0.151715 0.986 0.00952331
-13.3232 -18.9365 442.722 -0.0734009 0.135334 0.988077 0.00799793
-13.2153 -20.7184 442.953 -0.0754653 0.123874 0.989424 0.00670455
-13.2412 -22.5138 443.079 -0.0766799 0.111603 0.99079 0.00708486
-12.7507 -24.1901 443.514 -0.0724676 0.0991037 0.992435 0.00762772
-12.712 -25.9841 443.655 -0.0704763 0.0853654 0.993854 0.00799719
-12.5935 -27.7741 443.803 -0.0669965 0.0709841 0.995225 0.00839959
-12.5169 -29.5713 443.868 -0.0632064 0.0561365 0.99642 0.00879942
-12.2821 -31.3527 443.976 -0.0583392 0.040629 0.99747 0.00910222
-12.0536 -33.1373 444.031 -0.0537792 0.0248102 0.998245 0.00913389
-11.8403 -34.924 444.076 -0.0494018 0.00901114 0.998738 0.00944918
-11.3703 -36.6582 444.184 -0.0442995 -0.00775096 0.998988 0.00987664
-11.2431 -38.4523 444.113 -0.0402447 -0.0251271 0.998874 0.0100842
-10.8275 -40.2036 444.114 -0.0373368 -0.0432453 0.998367 0.0102903
-10.6802 -41.9929 443.984 -0.0356521 -0.0617282 0.997456 0.0101907
-10.1643 -43.717 443.948 -0.0386276 -0.0796258 0.996076 0.0103687
-10.0736 -45.5011 443.727 -0.0399817 -0.0983537 0.994348 0.0102887
-9.56601 -47.224 443.609 -0.0350086 -0.116054 0.992626 0.0101621
-9.069 -48.9448 443.43 -0.0305279 -0.133488 0.99058 0.00974184
-8.94953 -50.7097 443.098 -0.0304148 -0.150303 0.988172 0.00930458
-8.40293 -52.413 442.897 -0.0226105 -0.165431 0.985962 0.00925235
-8.19878 -54.1509 442.475 -0.0178563 -0.180548 0.983404 0.00944013
-7.65576 -55.8445 442.198 -0.00801594 -0.19546 0.980679 0.0101261
-7.12251 -57.5251 441.836 0.0021579 -0.210445 0.977603 0.010332
-6.5391 -59.1962 441.509 0.0129126 -0.225501 0.974157 0.0100364
-5.95888 -60.8575 441.13 0.0212941 -0.240248 0.970478 0.00906521
-5.58401 -62.5378 440.605 0.0264563 -0.254174 0.966797 0.00778323
-4.87567 -64.1505 440.234 0.0280275 -0.266365 0.963465 0.00668899
-4.49537 -65.8095 439.648 0.0246151 -0.277193 0.960499 0.00653464
