# .PCD v0.7 - Point Cloud Data file format
# 5 156 0
# 1 12 0
# 13 60 0
# 61 78 0
# 79 134 0
# 135 156 0
VERSION 0.7
FIELDS x y z normal_x normal_y normal_z curvature
SIZE 4 4 4 4 4 4 4
TYPE F F F F F F F
COUNT 1 1 1 1 1 1 1
WIDTH 156
HEIGHT 1
VIEWPOINT 0 0 0 1 0 0 0
POINTS 156
DATA ascii
-43.1872 12.7425 391.554 -0.299023 0.188399 0.935463 0.01
-41.6921 11.8988 392.095 -0.288669 0.170538 0.942118 0.013254
-39.9332 11.9544 392.474 -0.272496 0.153638 0.949811 0.0132404
-38.3085 12.5133 393.01 -0.254279 0.141809 0.956678 0.0139701
-36.6604 13.0792 393.461 -0.230735 0.129708 0.964332 0.0180964
-34.8824 13.1703 393.727 -0.199115 0.113004 0.973439 0.0176781
-33.1853 13.6822 394.04 -0.175122 0.103592 0.979082 0.015334
-31.4032 13.8102 394.258 -0.14904 0.0934821 0.984402 0.0140543
-29.7068 14.3578 394.508 -0.127176 0.0913078 0.987669 0.014454
-27.9086 14.3967 394.579 -0.0986262 0.0861115 0.991392 0.0166242
-26.18 14.8817 394.708 -0.0684689 0.085171 0.994011 0.0178484
-24.3818 14.8859 394.788 -0.0354522 0.0798864 0.996173 0.0183875
-22.5965 15.0693 394.65 -0.00310061 0.0766569 0.997053 0.0170481
-20.8479 15.4818 394.761 0.0254987 0.0756888 0.996805 0.0134628
-19.0949 15.8899 394.737 0.0453211 0.0764473 0.996043 0.0114486
-17.3083 16.0879 394.642 0.0665703 0.0768472 0.994818 0.0120447
-15.5299 16.2103 394.393 0.0885013 0.077935 0.993023 0.0124379
-13.747 16.3445 394.185 0.111025 0.0800748 0.990586 0.00982729
-11.9953 16.7355 394.048 0.122897 0.084559 0.98881 0.00693971
-10.2363 17.0499 393.831 0.134378 0.0881588 0.987001 0.0064188
-8.49146 16.7301 393.526 0.145216 0.0874152 0.985531 0.0061896
-6.74405 16.7544 393.094 0.156294 0.0887136 0.983719 0.00765356
-4.94893 16.8303 392.986 0.172185 0.0895973 0.980982 0.00875271
-5.25009 17.172 393.074 0.169216 0.0920881 0.981267 0.00941688
-3.48069 17.2766 392.761 0.186126 0.092885 0.978126 0.00963162
-1.80205 16.7349 392.402 0.202494 0.0875944 0.975358 0.00948007
-0.045746 17.0082 392.118 0.218314 0.08742 0.971955 0.0130076
1.66611 16.796 391.603 0.247259 0.0809703 0.96556 0.0213924
3.38444 16.9858 391.102 0.291763 0.0765038 0.953426 0.0270805
5.1035 17.0189 390.569 0.340024 0.0705995 0.937763 0.0294199
6.76394 16.9785 389.876 0.390664 0.0632774 0.918356 0.018759
8.3867 16.8948 389.101 0.402435 0.0626204 0.913304 0.00225285
10.0791 17.1738 388.555 0.386319 0.0699193 0.919711 0.0104744
11.7364 17.223 387.855 0.370785 0.0789345 0.925358 0.0105628
13.3415 17.338 387.048 0.356558 0.091281 0.929803 0.01
13.8625 19.0159 386.657 0.365201 0.0963422 0.92593 0.00834316
14.2868 20.7116 386.227 0.376604 0.111204 0.919675 0.0114943
14.7094 22.3995 385.766 0.38798 0.128254 0.912701 0.0109886
14.7066 24.1994 385.789 0.398085 0.140829 0.906474 0.0102807
15.2947 25.7363 385.059 0.406424 0.156021 0.900265 0.00950628
15.6 27.4305 384.534 0.412992 0.16914 0.89489 0.0079635
15.7249 29.2194 384.378 0.41641 0.181011 0.890975 0.0075609
15.8083 30.9839 384.032 0.417943 0.194778 0.887347 0.00864917
16.2696 32.5813 383.343 0.420289 0.210399 0.88266 0.00927947
16.3022 34.3399 382.961 0.421503 0.226277 0.878142 0.00916084
16.7316 35.8822 382.138 0.423323 0.241324 0.873247 0.00901714
16.8339 37.6022 381.617 0.424085 0.256844 0.868437 0.00898523
16.8595 39.3616 381.238 0.424299 0.272164 0.863653 0.00887926
17.0625 40.9021 380.329 0.424474 0.286851 0.8588 0.00849018
16.8724 42.6808 380.129 0.423467 0.300462 0.854634 0.00785733
16.8365 44.3855 379.552 0.421437 0.313643 0.850893 0.00790819
16.7236 46.0944 378.998 0.418519 0.327465 0.847118 0.00805426
16.9818 47.6486 378.128 0.414089 0.340549 0.844131 0.00834269
16.8947 49.3278 377.485 0.40956 0.355085 0.840343 0.00877197
16.9069 50.9465 376.698 0.40414 0.369546 0.836724 0.00894624
16.8127 52.5924 375.976 0.399004 0.384449 0.832463 0.00901478
16.5616 54.2913 375.436 0.395488 0.399244 0.82716 0.00890007
16.4102 55.9225 374.69 0.391514 0.413694 0.821933 0.00888478
16.2321 57.5469 373.936 0.388122 0.42831 0.816035 0.00906692
16.1096 59.1338 373.095 0.384217 0.443143 0.809939 0.00929409
15.8462 60.7655 372.382 0.381989 0.458257 0.802549 0.00959942
15.8261 62.1999 371.295 0.376132 0.473542 0.796419 0.00993122
15.4629 63.8031 370.562 0.374311 0.489402 0.78764 0.00976554
14.9689 65.4159 369.933 0.373745 0.503812 0.778774 0.00930926
14.4403 66.9935 369.246 0.373047 0.517793 0.769887 0.0092933
14.2034 68.4881 368.272 0.368066 0.532182 0.762436 0.00947764
13.8483 69.9977 367.358 0.364571 0.54665 0.753831 0.00959232
13.5379 71.4326 366.316 0.360188 0.561072 0.745294 0.00960609
13.0716 72.8941 365.375 0.358678 0.575143 0.735228 0.00971754
12.4033 74.4118 364.675 0.362827 0.587792 0.723089 0.00907021
12.0698 75.7861 363.561 0.36082 0.59963 0.71432 0.0086329
11.3311 77.275 362.87 0.357567 0.612166 0.705265 0.00890852
10.9014 78.5852 361.713 0.352552 0.624645 0.696797 0.00886962
10.244 79.9999 360.815 0.349479 0.636963 0.687126 0.00882036
9.40361 81.4081 360.073 0.347899 0.648774 0.6768 0.00915046
8.95618 82.7131 358.917 0.343934 0.661452 0.666476 0.00954958
8.41203 83.9891 357.77 0.339921 0.674457 0.655409 0.00901717
7.62764 85.3551 356.899 0.336127 0.685249 0.646106 0.00779074
6.83473 86.6667 355.955 0.330794 0.694889 0.638517 0.00753714
6.09726 87.9322 354.909 0.323651 0.704484 0.631626 0.00789932
5.39925 89.1173 353.747 0.314587 0.714146 0.625325 0.00809857
4.30036 90.4065 353.139 0.308412 0.723893 0.61714 0.00766188
3.39162 91.5693 352.108 0.302208 0.732805 0.609645 0.01
1.71452 92.2152 352.209 0.304772 0.738597 0.601322 0.00471634
0.0182066 92.5666 352.698 0.308592 0.740992 0.596408 0.00417047
-1.67354 93.1778 352.764 0.296589 0.748216 0.593471 0.012212
-3.39252 93.7118 352.765 0.267756 0.757213 0.595764 0.0156768
-5.07723 94.3456 352.761 0.242382 0.762414 0.59998 0.0138081
-6.80722 94.8426 352.749 0.219971 0.762751 0.608131 0.0132202
-8.50655 95.4038 352.556 0.198598 0.760399 0.618347 0.018047
-10.2445 95.8251 352.761 0.160477 0.757694 0.632572 0.022751
-12.0249 96.0898 352.754 0.120771 0.756443 0.642812 0.022966
-13.8007 96.3827 352.723 0.0795427 0.756289 0.649385 0.0217575
-15.5728 96.6638 352.579 0.0430516 0.75679 0.652239 0.00904995
-17.2683 97.1038 352.165 0.0471636 0.757513 0.651114 0.00226025
-19.0579 97.2969 352.157 0.0501934 0.758965 0.649194 0.0030024
-20.8426 97.3859 351.94 0.0525456 0.763366 0.643826 0.00510844
-22.6357 97.4844 352.063 0.0561924 0.769848 0.635749 0.00695857
-24.3508 97.9453 351.769 0.0453223 0.778683 0.625778 0.00879095
-26.0017 98.2834 351.137 0.0351495 0.785283 0.618138 0.006107
-27.5871 97.9128 351.904 0.0260197 0.781892 0.622871 0.01
-28.5661 96.9392 353.059 0.0134237 0.773935 0.633123 0.0118642
-29.4702 95.9743 354.28 -0.00722954 0.765169 0.643789 0.0136137
-30.0833 94.9642 355.638 -0.0266637 0.755805 0.654254 0.014832
-31.0498 93.8859 356.707 -0.0520086 0.745684 0.664267 0.0154648
-31.9592 92.7248 357.739 -0.0736836 0.734293 0.674822 0.0149422
-32.9494 91.6788 358.819 -0.0948723 0.721503 0.685881 0.0143633
-33.5437 90.4718 360.015 -0.10933 0.706542 0.699175 0.0147497
-34.1249 89.2224 361.173 -0.124075 0.688047 0.71498 0.0179714
-34.6702 87.8904 362.254 -0.1403 0.662888 0.735456 0.020414
-35.2723 86.5415 363.282 -0.160438 0.63731 0.753721 0.0214153
-36.0786 85.1939 364.162 -0.185776 0.611045 0.769488 0.0203309
-36.3412 83.8403 365.319 -0.203676 0.587602 0.783097 0.0195194
-36.9956 82.3868 366.155 -0.228928 0.562552 0.794435 0.0190209
-37.3052 80.8901 367.106 -0.248409 0.540576 0.803785 0.0146029
-37.4823 79.3741 368.06 -0.263818 0.525915 0.808587 0.0123504
-37.932 77.7922 368.792 -0.281641 0.512348 0.811281 0.0104929
-38.1887 76.2859 369.743 -0.291977 0.501607 0.814334 0.00771421
-38.435 74.6767 370.511 -0.299316 0.491936 0.817563 0.00581681
-38.4062 73.1018 371.382 -0.298798 0.483718 0.82264 0.00542877
-38.5346 71.511 372.215 -0.297 0.475602 0.828006 0.00651259
-38.4042 70.0353 373.237 -0.289027 0.467009 0.835683 0.00843736
-38.1825 68.5465 374.224 -0.280916 0.455871 0.844552 0.00811118
-38.2533 66.9263 375.005 -0.277623 0.445312 0.851248 0.00718318
-37.8798 65.4638 375.986 -0.273595 0.4352 0.857757 0.0065229
-37.6625 63.8856 376.824 -0.272607 0.425597 0.862875 0.0057004
-37.2553 62.3542 377.677 -0.272285 0.417036 0.867146 0.0052536
-37.0633 60.7462 378.463 -0.273967 0.408473 0.870685 0.00486618
-36.6164 59.2234 379.313 -0.274952 0.401104 0.873795 0.00489356
-36.2331 57.6526 380.104 -0.276368 0.392337 0.877321 0.00545604
-35.9641 56.0219 380.817 -0.278706 0.383105 0.880655 0.00512691
-35.4453 54.549 381.712 -0.278948 0.37538 0.883899 0.00463311
-34.8878 52.9979 382.435 -0.278346 0.367821 0.88726 0.00465328
-34.3322 51.5526 383.353 -0.275612 0.360641 0.891053 0.00590711
-34.966 49.9364 383.828 -0.285482 0.349945 0.89221 0.00808676
-35.4383 48.2476 384.234 -0.294954 0.339059 0.893331 0.00700905
-35.5042 46.567 384.876 -0.299881 0.329704 0.895191 0.00586366
-35.595 44.8826 385.504 -0.304191 0.320454 0.897093 0.00573226
-35.6849 43.1723 386.058 -0.307948 0.311121 0.899095 0.00638222
-36.1004 41.4609 386.43 -0.316256 0.301207 0.899587 0.00615349
-36.1633 39.7475 386.978 -0.318545 0.292011 0.901808 0.0053206
-36.1715 38.0505 387.578 -0.319086 0.282919 0.904511 0.0061794
-36.7736 36.3671 387.787 -0.329599 0.273308 0.903696 0.00642699
-37.1284 34.6446 388.171 -0.335644 0.266917 0.903382 0.00389458
-37.3072 32.9045 388.595 -0.33828 0.262321 0.903744 0.00272291
-37.4397 31.1924 389.135 -0.338425 0.257669 0.905028 0.00279273
-37.8305 29.4674 389.468 -0.34194 0.253088 0.904999 0.00393365
-38.572 27.8297 389.559 -0.349778 0.249643 0.902958 0.00290027
-38.9185 26.1181 389.995 -0.349247 0.245833 0.904208 0.00189981
-39.6606 24.4788 390.04 -0.353698 0.244141 0.902936 0.0028419
-40.2388 22.7793 390.172 -0.352299 0.236183 0.905596 0.00695506
-40.6806 21.0848 390.589 -0.345543 0.22226 0.911702 0.00870616
-41.1215 19.3658 390.89 -0.338676 0.210415 0.917074 0.00487512
-42.1443 17.8994 390.681 -0.340031 0.207087 0.91733 0.00489126
-42.4563 16.1803 391.114 -0.330186 0.197072 0.923114 0.00658416
-43.1137 14.5073 391.207 -0.323237 0.193371 0.926351 0.00977519
