# .PCD v0.7 - Point Cloud Data file format
# 5 161 0
# 1 4 0
# 5 36 0
# 37 89 0
# 90 106 0
# 107 161 0
VERSION 0.7
FIELDS x y z normal_x normal_y normal_z curvature
SIZE 4 4 4 4 4 4 4
TYPE F F F F F F F
COUNT 1 1 1 1 1 1 1
WIDTH 161
HEIGHT 1
VIEWPOINT 0 0 0 1 0 0 0
POINTS 161
DATA ascii
44.0899 16.9145 446.028 -0.250887 0.186679 0.949845 0.01
43.939 18.6666 445.644 -0.246854 0.207456 0.946586 0.0125918
43.955 20.4125 445.206 -0.239318 0.229964 0.943315 0.0126262
43.9552 22.1445 444.716 -0.233148 0.250238 0.939693 0.00973066
43.695 23.8807 444.318 -0.234194 0.263676 0.93575 0.0074027
43.4249 25.5767 443.779 -0.235776 0.27557 0.931918 0.00673631
43.3759 27.2752 443.185 -0.237047 0.286521 0.928286 0.00637064
43.2032 28.9737 442.615 -0.238281 0.297152 0.92462 0.00637559
43.2038 30.6525 441.966 -0.238168 0.308227 0.921017 0.00735163
43.1008 32.3354 441.335 -0.239002 0.32216 0.916019 0.0096808
42.9923 33.9873 440.629 -0.241202 0.340682 0.908712 0.0111544
42.6362 35.6348 439.997 -0.243748 0.358967 0.90096 0.0110276
42.3539 37.2684 439.296 -0.244454 0.377116 0.893323 0.0106343
41.9575 38.8802 438.599 -0.245567 0.394008 0.885694 0.00905691
42.0442 40.4669 437.754 -0.256291 0.403224 0.878479 0.00851248
41.9481 42.049 436.901 -0.26386 0.413851 0.871266 0.00819396
41.478 43.6264 436.172 -0.269024 0.425383 0.864104 0.00882653
41.4232 45.1804 435.266 -0.274322 0.439088 0.85554 0.00977113
41.0619 46.7264 434.418 -0.2777 0.454365 0.846425 0.0101448
40.741 48.2543 433.522 -0.279851 0.4701 0.837072 0.0103061
40.5916 49.7607 432.548 -0.28094 0.486072 0.82753 0.010317
40.5196 51.2337 431.516 -0.281292 0.501874 0.817922 0.0100806
40.2358 52.6936 430.502 -0.281665 0.516839 0.808419 0.00959386
39.7948 54.1252 429.504 -0.282539 0.530736 0.799056 0.009512
39.3455 55.5369 428.481 -0.284104 0.544882 0.788916 0.00966082
39.1691 56.9487 427.379 -0.285056 0.558761 0.7788 0.00940345
38.9304 58.3256 426.244 -0.28594 0.572024 0.768783 0.00897598
38.3605 59.6467 425.163 -0.287563 0.584048 0.759075 0.00874809
38.1481 60.9892 423.983 -0.287737 0.596471 0.749286 0.00860631
37.7625 62.2923 422.802 -0.288169 0.60815 0.739671 0.00854228
37.5118 63.5743 421.564 -0.287565 0.620234 0.729806 0.00959758
37.4338 64.7839 420.233 -0.285494 0.634829 0.717973 0.00985008
36.6581 65.956 419.109 -0.287317 0.646331 0.706899 0.00983606
36.4138 67.1283 417.765 -0.284347 0.660803 0.694612 0.0107477
36.118 68.3547 416.481 -0.280589 0.675262 0.682123 0.0101272
35.534 69.545 415.263 -0.279523 0.687403 0.670331 0.0103282
35.3573 70.6961 413.891 -0.273634 0.701934 0.657581 0.0100266
34.7718 71.7994 412.595 -0.273073 0.712872 0.645945 0.00983959
34.6141 72.8683 411.155 -0.267914 0.72635 0.63296 0.0101443
34.3377 73.921 409.722 -0.266312 0.737849 0.620207 0.00931066
34.0094 74.9628 408.291 -0.267511 0.748008 0.60739 0.00906826
33.6871 75.9453 406.817 -0.270845 0.757237 0.594336 0.00932412
33.1633 76.9428 405.414 -0.278892 0.764827 0.580739 0.00989695
32.7066 77.8969 403.957 -0.287342 0.772279 0.566587 0.0100623
32.3608 78.819 402.451 -0.295272 0.779739 0.552106 0.00916097
31.9881 79.7096 400.931 -0.303315 0.784727 0.540559 0.00872316
31.5023 80.5895 399.438 -0.312898 0.789482 0.528027 0.00945473
31.0309 81.4259 397.916 -0.322382 0.794761 0.514223 0.0100889
30.4971 82.2453 396.404 -0.331827 0.800516 0.499065 0.0104854
30.1585 83.0063 394.809 -0.339237 0.807274 0.482935 0.0108557
29.7594 83.728 393.209 -0.345819 0.814709 0.465465 0.0114452
29.2815 84.4587 391.635 -0.350686 0.823106 0.446672 0.0116226
28.6924 85.1483 390.08 -0.35415 0.831467 0.428067 0.0111184
28.3731 85.7893 388.428 -0.356229 0.839331 0.41064 0.0102376
28.0878 86.3536 386.743 -0.357264 0.846556 0.394596 0.00933584
27.7292 86.7194 385.018 -0.356545 0.853418 0.380202 0.00887564
27.6056 86.8848 385.192 -0.35639 0.853144 0.380962 0.00783912
26.9685 87.4224 383.597 -0.353297 0.859889 0.368472 0.00773568
26.2799 87.9332 382.014 -0.348532 0.866343 0.357738 0.0073815
25.8807 88.4663 380.342 -0.343935 0.872471 0.347137 0.01
24.6404 88.1207 379.084 -0.337172 0.87645 0.34373 0.00324028
22.9254 87.5758 379.125 -0.353743 0.869982 0.343506 0.0210798
21.2387 86.9488 379.169 -0.407481 0.848762 0.336991 0.0303016
19.6115 86.1849 379.076 -0.453231 0.827039 0.332549 0.0266444
18.0231 85.339 379.118 -0.49221 0.804161 0.333249 0.0244104
16.5466 84.3117 379.05 -0.52694 0.779848 0.337893 0.0241678
15.0417 83.3679 378.76 -0.56254 0.7537 0.339829 0.0249039
13.6093 82.2875 378.616 -0.598221 0.725767 0.339697 0.0249947
12.1739 81.2107 378.473 -0.632758 0.697548 0.33622 0.0247332
10.8607 80.052 378.057 -0.666122 0.669919 0.327856 0.01583
9.60505 78.7797 377.846 -0.675305 0.660859 0.327459 0.00305245
8.34696 77.5638 377.423 -0.673624 0.661961 0.328691 0.00158548
7.0168 76.3514 377.398 -0.671552 0.662793 0.331246 0.00185171
5.68629 75.1414 377.323 -0.669003 0.664655 0.332668 0.00115274
4.32024 74.0517 376.891 -0.669376 0.665846 0.329521 0.00494562
3.0002 72.8599 376.614 -0.681974 0.655168 0.325063 0.00987215
1.72761 71.6621 376.183 -0.695126 0.642356 0.322767 0.0105362
0.50616 70.4737 375.603 -0.708209 0.627922 0.322729 0.0112075
-0.761767 69.3461 375.003 -0.721092 0.611611 0.325513 0.0169717
-1.93909 68.1829 374.295 -0.74683 0.580667 0.324147 0.0240453
-3.0451 66.9758 373.547 -0.775371 0.544443 0.31997 0.0267735
-4.25031 65.6804 373.216 -0.803833 0.504328 0.315444 0.0270006
-5.31585 64.3763 372.58 -0.829858 0.465381 0.307823 0.0249263
-6.24084 62.9573 371.971 -0.851445 0.429912 0.300362 0.0222236
-7.21838 61.5603 371.395 -0.869267 0.397072 0.294463 0.0222224
-8.04074 60.0483 370.868 -0.887667 0.359953 0.287197 0.0241954
-8.74509 58.5683 370.124 -0.906033 0.320421 0.276468 0.0217886
-9.29584 56.9431 369.58 -0.918062 0.289902 0.270404 0.00919056
-10.138 55.3878 369.246 -0.916233 0.289138 0.277338 0.00293569
-10.8843 53.8134 368.794 -0.914548 0.291706 0.280196 0.00213347
-11.2608 52.0793 368.492 -0.913425 0.295904 0.279456 0.00361368
-12.0026 50.4419 368.399 -0.912814 0.302869 0.273936 0.01
-11.7764 49.6598 370.004 -0.906343 0.309849 0.287289 0.00838996
-11.4559 49.0312 371.66 -0.900928 0.314382 0.299152 0.00752167
-10.996 48.4752 373.309 -0.895875 0.317184 0.311131 0.00719673
-10.5734 48.2095 375.038 -0.892207 0.315211 0.323433 0.0062518
-10.0473 47.8509 376.722 -0.890109 0.311973 0.332233 0.00482948
-9.57026 47.0145 378.243 -0.886408 0.314537 0.339628 0.00356818
-9.17938 46.8188 379.989 -0.887284 0.307562 0.343705 0.003247
-8.89586 45.7717 381.425 -0.882616 0.313567 0.350235 0.00443814
-8.52942 44.9664 382.993 -0.8799 0.315173 0.355588 0.00510313
-8.34242 43.7858 384.339 -0.873907 0.32408 0.362295 0.00521487
-7.98698 43.0307 385.933 -0.871121 0.322788 0.370076 0.00625338
-7.77779 42.0637 387.437 -0.866364 0.320377 0.383107 0.00764513
-7.49149 41.1376 388.954 -0.862332 0.31636 0.395348 0.00737865
-7.12638 40.251 390.477 -0.858938 0.311007 0.406818 0.00731588
-6.86189 39.1241 391.856 -0.854118 0.308217 0.41891 0.00738158
-6.626 37.9316 393.183 -0.849135 0.305469 0.43088 0.00712406
-6.22858 36.9817 394.66 -0.846067 0.299 0.441328 0.00719237
-6.04658 35.7366 395.947 -0.840947 0.295655 0.453206 0.00782644
-5.98157 34.3094 397.042 -0.834422 0.293723 0.466333 0.00807931
-5.71216 32.9696 398.213 -0.828867 0.289324 0.478823 0.0078993
-5.33314 31.7398 399.472 -0.824211 0.282929 0.490539 0.00793354
-5.00947 30.3739 400.598 -0.818447 0.278022 0.502841 0.00798625
-4.68723 29.1009 401.829 -0.81318 0.271835 0.514629 0.00817417
-4.45414 27.635 402.848 -0.805858 0.268696 0.527633 0.00847492
-4.21392 26.2028 403.911 -0.798351 0.265472 0.540519 0.00789496
-3.90071 24.8698 405.08 -0.792395 0.260917 0.551391 0.00736801
-3.52026 23.5992 406.296 -0.78795 0.25289 0.56141 0.00788748
-3.12986 22.2785 407.455 -0.783975 0.242641 0.571409 0.00871039
-2.49826 21.1571 408.714 -0.78446 0.226302 0.577417 0.0101267
-2.27834 19.6351 409.649 -0.779689 0.211848 0.589241 0.0117815
-1.85132 18.2092 410.662 -0.778735 0.189752 0.597968 0.0148001
-1.46421 16.7176 411.592 -0.778369 0.161538 0.606669 0.0152181
-0.686263 15.6054 412.774 -0.789754 0.136874 0.597959 0.0148681
-0.23259 14.1108 413.669 -0.796198 0.113363 0.594322 0.013688
0.370979 12.9123 414.868 -0.80583 0.0926033 0.584862 0.013067
1.03662 11.7321 416.053 -0.814246 0.0740976 0.575772 0.0109505
1.89791 10.7772 417.313 -0.821363 0.06119 0.567114 0.00813687
2.74733 9.80084 418.564 -0.825679 0.0510094 0.56183 0.00539254
3.53365 8.84918 419.874 -0.827117 0.0439506 0.560308 0.00505265
4.52612 7.87029 421.013 -0.822277 0.0343135 0.568052 0.00916447
5.34439 7.58264 422.59 -0.809593 0.0357343 0.585902 0.0138772
6.32171 7.03782 424 -0.793008 0.0342072 0.60825 0.0173159
7.42651 6.66015 425.37 -0.771596 0.0346324 0.63517 0.0195715
8.55194 6.08708 426.652 -0.748359 0.031839 0.66253 0.0208047
9.75525 5.73515 427.944 -0.722112 0.0312143 0.691072 0.0214574
10.988 5.51475 429.237 -0.694975 0.032703 0.71829 0.0186714
12.265 4.84698 430.315 -0.674532 0.0304685 0.737616 0.0156261
13.5749 4.22783 431.383 -0.653479 0.036425 0.756068 0.0188669
14.8092 4.02097 432.677 -0.625118 0.050089 0.778922 0.0200504
16.1519 3.39625 433.7 -0.599813 0.0579791 0.798037 0.0196259
17.6144 3.09183 434.705 -0.570257 0.0692834 0.818539 0.0188285
19.0965 2.36936 435.427 -0.546132 0.0755755 0.834283 0.0188374
20.3926 2.48429 436.67 -0.516974 0.0868629 0.851582 0.01
21.8721 2.84809 437.629 -0.497578 0.0908601 0.862647 0.00687975
23.461 3.04021 438.453 -0.497914 0.0769616 0.863805 0.00783803
24.9913 3.49264 439.285 -0.49998 0.0628471 0.863753 0.00807146
26.424 4.47662 439.754 -0.505013 0.0493605 0.861699 0.00792723
27.5376 5.7577 440.352 -0.511412 0.0374839 0.858518 0.00262951
28.4125 7.0996 441.173 -0.497147 0.0471242 0.866385 0.0125066
29.7401 8.22437 441.634 -0.477603 0.0598421 0.876535 0.0141114
31.2723 9.06353 442.068 -0.457052 0.0703111 0.886656 0.0137116
32.7296 9.98867 442.578 -0.437545 0.0814952 0.895496 0.014069
33.5861 11.4022 443.291 -0.420535 0.099922 0.901757 0.017082
34.8463 12.5464 443.876 -0.393396 0.120272 0.911468 0.020379
36.4602 13.0901 444.459 -0.360963 0.13437 0.922849 0.0213478
37.9773 13.9311 444.94 -0.326922 0.151626 0.932809 0.022431
39.5869 14.664 445.275 -0.290263 0.168014 0.942082 0.0171987
41.3008 15.065 445.651 -0.269892 0.169461 0.947862 0.00951422
43.002 15.481 446.067 -0.257356 0.171147 0.95104 0.00763747
