# .PCD v0.7 - Point Cloud Data file format
# 5 152 0
# 1 29 0
# 30 91 0
# 92 116 0
# 117 149 0
# 150 152 0
VERSION 0.7
FIELDS x y z normal_x normal_y normal_z curvature
SIZE 4 4 4 4 4 4 4
TYPE F F F F F F F
COUNT 1 1 1 1 1 1 1
WIDTH 152
HEIGHT 1
VIEWPOINT 0 0 0 1 0 0 0
POINTS 152
DATA ascii
-12.0328 36.3833 370.078 -0.533679 -0.190302 -0.823998 0.01
-11.1258 37.7134 369.273 -0.548502 -0.189631 -0.814362 0.00714695
-9.70669 38.202 368.279 -0.553773 -0.193277 -0.809926 0.0022697
-8.56004 38.8927 367.076 -0.555269 -0.188918 -0.80993 0.00498524
-6.94895 40.2691 366 -0.550959 -0.173867 -0.81622 0.00886633
-6.10238 41.6496 365.214 -0.543859 -0.157178 -0.824326 0.0114474
-5.03647 42.5092 364.046 -0.533531 -0.14186 -0.833799 0.0157946
-3.70028 43.2782 363.116 -0.503505 -0.130923 -0.854015 0.0233886
-2.52107 44.3986 362.346 -0.466037 -0.117735 -0.876897 0.0250634
-1.46497 45.6882 361.666 -0.429879 -0.102092 -0.897096 0.0236355
-0.565718 47.1342 361.083 -0.396591 -0.0859405 -0.913964 0.0246917
0.616108 48.3724 360.526 -0.355165 -0.0702512 -0.93216 0.0281519
2.06355 49.2817 359.962 -0.307407 -0.056219 -0.949916 0.0263652
3.3272 50.4815 359.511 -0.270881 -0.0396668 -0.961795 0.0194847
4.26881 52.0079 359.358 -0.250036 -0.0217471 -0.967992 0.015599
5.59484 53.1847 359.046 -0.227837 -0.00668223 -0.973676 0.0140928
7.03934 54.1191 358.517 -0.207907 0.00418255 -0.97814 0.0113936
8.32525 55.3541 358.269 -0.19413 0.0149817 -0.980861 0.00863047
9.82785 56.3234 358.063 -0.182199 0.0206595 -0.983045 0.0048323
11.3546 57.2412 357.805 -0.179331 0.0237273 -0.983503 0.000501966
12.6076 58.5176 357.603 -0.182951 0.0222773 -0.98287 0.00129003
14.0979 59.4873 357.323 -0.183619 0.022195 -0.982747 0.0013683
15.4738 60.6225 357.081 -0.181117 0.0268349 -0.983095 0.00455945
16.8909 61.7196 356.913 -0.174868 0.036025 -0.983933 0.00773417
18.5006 62.46 356.596 -0.166244 0.0500706 -0.984813 0.017342
20.0509 63.3641 356.457 -0.120397 0.0654857 -0.990564 0.0283504
21.5792 64.3136 356.406 -0.0706437 0.0845087 -0.993915 0.0304567
23.1178 65.2457 356.468 -0.0185749 0.105837 -0.99421 0.0315407
24.6841 66.1301 356.537 0.0341634 0.128075 -0.991176 0.0301855
25.7327 67.5411 356.923 0.0776558 0.149284 -0.98574 0.0277545
27.4108 68.1763 357.067 0.119117 0.170294 -0.978167 0.022525
28.9666 68.9984 357.446 0.146085 0.189546 -0.970944 0.0162128
30.4394 69.9774 357.781 0.163936 0.205125 -0.964909 0.01
32.0118 69.1252 357.985 0.173018 0.199141 -0.964576 0.00900099
32.5056 67.4235 357.668 0.181965 0.181712 -0.966369 0.0123559
33.2436 65.7845 357.575 0.198784 0.163168 -0.966365 0.01235
33.927 64.1208 357.502 0.208498 0.146053 -0.967056 0.00964029
34.3497 62.3916 357.235 0.211743 0.131201 -0.968479 0.00801342
34.9022 60.6867 357.067 0.213499 0.117806 -0.969814 0.00724743
35.4029 58.962 356.946 0.214334 0.105373 -0.97106 0.00649832
36.2102 57.3563 357.046 0.217326 0.0949314 -0.971472 0.00628615
36.7403 55.6368 356.999 0.219708 0.0835103 -0.971985 0.00834897
37.286 53.9215 357.007 0.223032 0.0654476 -0.972612 0.0105391
37.9352 52.246 357.113 0.230511 0.0471734 -0.971926 0.0112046
38.5232 50.5528 357.279 0.239844 0.0288619 -0.970382 0.0116168
39.1369 48.8727 357.48 0.251579 0.0112909 -0.967771 0.00970792
39.4701 47.1038 357.473 0.246195 -0.00530555 -0.969206 0.00982926
39.9062 45.3598 357.562 0.236094 -0.0202727 -0.971519 0.00943417
40.2167 43.5873 357.606 0.229448 -0.0346156 -0.972705 0.00898064
40.7698 41.9061 357.934 0.220793 -0.0484233 -0.974118 0.00931176
40.9198 40.1123 357.94 0.218541 -0.065918 -0.973599 0.00973781
41.3275 38.3784 358.199 0.215562 -0.0828838 -0.972966 0.00956051
41.5558 36.6018 358.377 0.214916 -0.100025 -0.971497 0.0093493
42.1342 34.945 358.777 0.214011 -0.116121 -0.969905 0.00897595
42.571 33.2402 359.155 0.214505 -0.132088 -0.96775 0.0089031
42.6638 31.4524 359.343 0.215375 -0.14761 -0.965311 0.0087573
43.1019 29.7704 359.811 0.216199 -0.162897 -0.962664 0.00948295
43.0979 27.9793 359.99 0.216809 -0.180798 -0.959326 0.0101184
43.6422 26.3697 360.584 0.219506 -0.197696 -0.955371 0.00994614
43.7827 24.6135 360.953 0.221688 -0.214971 -0.951127 0.00981553
43.8015 22.844 361.282 0.223594 -0.231694 -0.946744 0.0097163
44.1036 21.1611 361.844 0.227412 -0.24796 -0.9417 0.00959749
44.2979 19.4643 362.413 0.231123 -0.263797 -0.936479 0.00936291
44.4473 17.7451 362.925 0.234739 -0.279109 -0.931126 0.00971991
44.7463 16.1064 363.607 0.240083 -0.295422 -0.924709 0.00994421
44.6775 14.3833 364.123 0.242329 -0.311592 -0.918797 0.00946888
44.4464 12.6427 364.519 0.242339 -0.3274 -0.91328 0.00989611
44.8012 11.0659 365.312 0.248799 -0.343276 -0.905683 0.0100199
44.7481 9.37014 365.913 0.250314 -0.359234 -0.899051 0.00965146
44.7267 7.70329 366.592 0.251765 -0.375119 -0.892132 0.00962984
44.6916 6.04584 367.293 0.252402 -0.390918 -0.885142 0.00909559
44.7939 4.53156 368.261 0.254719 -0.404516 -0.878342 0.00865727
44.2327 2.83929 368.508 0.2453 -0.418065 -0.874671 0.00847509
44.5998 1.40471 369.532 0.247812 -0.430326 -0.867991 0.00875012
44.3 -0.251508 370.17 0.239541 -0.445688 -0.862544 0.0101895
44.1524 -1.86056 370.963 0.232332 -0.461358 -0.856254 0.0109285
43.7599 -3.47346 371.659 0.222076 -0.478359 -0.84962 0.0108188
43.921 -4.94834 372.678 0.217195 -0.49358 -0.842143 0.00967063
43.8703 -6.42513 373.706 0.210025 -0.507746 -0.835514 0.009933
43.3036 -8.03241 374.285 0.199831 -0.521367 -0.829604 0.0100263
42.9201 -9.55185 375.171 0.19131 -0.535521 -0.822568 0.0102963
42.2355 -10.8394 376.226 0.183565 -0.550643 -0.814307 0.00961882
40.7381 -11.8342 376.317 0.179066 -0.561543 -0.80784 0.00717146
39.3092 -12.873 376.662 0.176535 -0.571691 -0.801252 0.00762114
38.2942 -14.1772 377.375 0.176852 -0.583683 -0.792488 0.00999913
38.379 -15.6108 378.461 0.178368 -0.598827 -0.780763 0.0105643
38.1048 -17.0115 379.557 0.181584 -0.61295 -0.768973 0.00982412
37.7596 -18.4543 380.577 0.185358 -0.625123 -0.758198 0.00895745
37.4413 -19.8533 381.664 0.188638 -0.636368 -0.747965 0.00835796
37.0661 -21.2282 382.763 0.1915 -0.64678 -0.738244 0.00780061
36.844 -22.549 383.966 0.19142 -0.657003 -0.729182 0.00754507
36.4032 -23.9026 385.067 0.190833 -0.666995 -0.720208 0.00758973
36.283 -25.1243 386.384 0.182939 -0.676994 -0.712891 0.0167223
35.0382 -26.2723 386.994 0.141734 -0.691186 -0.708642 0.0225932
33.6128 -27.2281 387.537 0.106261 -0.701957 -0.704248 0.01
31.8236 -27.2186 387.339 0.072133 -0.701871 -0.708642 0.0185078
30.1157 -26.8311 386.924 0.0419281 -0.694964 -0.717821 0.0202978
28.5019 -26.3146 386.316 0.00381824 -0.685476 -0.728085 0.0228523
26.7087 -26.1989 386.212 -0.0355057 -0.678265 -0.733959 0.022505
25.1086 -25.5767 385.671 -0.0726158 -0.667761 -0.740825 0.0218257
23.3825 -25.1161 385.451 -0.110116 -0.657882 -0.745027 0.0191314
21.7042 -24.4852 385.292 -0.137856 -0.647704 -0.749316 0.011272
19.9714 -24.0011 385.236 -0.145736 -0.640686 -0.753845 0.00518182
18.2007 -23.7987 385.489 -0.151838 -0.637262 -0.755541 0.00379769
16.4721 -23.3295 385.667 -0.157556 -0.634518 -0.756679 0.00317008
14.7374 -22.8531 385.607 -0.162119 -0.632677 -0.757256 0.00637243
13.1998 -22.1195 385.026 -0.178998 -0.627451 -0.757803 0.0116505
11.4386 -21.7851 385.188 -0.201701 -0.623424 -0.75542 0.0132356
9.7225 -21.242 385.195 -0.225153 -0.616696 -0.754316 0.0140085
8.0696 -20.5305 385.236 -0.249598 -0.607942 -0.753729 0.0153446
6.36639 -20.5471 385.819 -0.27615 -0.601335 -0.749758 0.0171535
4.67364 -20.1936 386.318 -0.307986 -0.590612 -0.74587 0.0189362
3.03036 -19.7735 386.921 -0.339786 -0.578433 -0.741593 0.0198664
1.34039 -19.154 386.909 -0.372157 -0.562863 -0.738027 0.0194127
-0.26313 -19.0119 387.714 -0.400495 -0.550624 -0.732405 0.0178065
-1.90884 -18.6119 388.324 -0.429041 -0.536054 -0.727028 0.0181998
-3.4865 -18.3505 389.15 -0.457768 -0.521784 -0.719854 0.0176559
-4.94108 -18.4834 390.202 -0.484024 -0.509526 -0.71141 0.0179054
-6.46378 -18.3484 391.152 -0.51291 -0.494079 -0.702003 0.016712
-7.98105 -17.5105 391.638 -0.532496 -0.480069 -0.697124 0.01
-8.52282 -15.891 391.069 -0.542391 -0.470634 -0.695929 0.00722895
-9.10723 -14.3104 390.436 -0.550335 -0.461161 -0.696033 0.00651769
-9.46638 -12.7217 389.67 -0.555782 -0.451554 -0.698 0.00645133
-9.62933 -11.1647 388.782 -0.559141 -0.440653 -0.702272 0.00648173
-9.78582 -9.56756 387.966 -0.561906 -0.43062 -0.706277 0.00588277
-10.2072 -7.90442 387.422 -0.565723 -0.421684 -0.708618 0.00502891
-10.1858 -6.43191 386.387 -0.566727 -0.414516 -0.712037 0.00440932
-10.3732 -4.85149 385.546 -0.568454 -0.407374 -0.714777 0.00403217
-10.1028 -3.41852 384.491 -0.567646 -0.401768 -0.718582 0.00375228
-10.3378 -1.7694 383.809 -0.569063 -0.3956 -0.72088 0.00374997
-10.5211 -0.113756 383.127 -0.569939 -0.389426 -0.723544 0.00504579
-10.4983 1.48153 382.293 -0.569639 -0.379446 -0.729063 0.00636037
-10.2674 2.98722 381.334 -0.567797 -0.369983 -0.735336 0.00630933
-10.3084 4.65909 380.669 -0.567343 -0.360174 -0.740538 0.00616585
-10.3133 6.31296 379.958 -0.566002 -0.350662 -0.746108 0.00626616
-10.2487 7.88098 379.077 -0.563431 -0.341388 -0.752329 0.00636894
-10.2256 9.46725 378.226 -0.560383 -0.332309 -0.758645 0.00623154
-10.337 11.1642 377.636 -0.55672 -0.324135 -0.764852 0.00626321
-10.0627 12.6771 376.7 -0.552572 -0.315746 -0.771342 0.00609381
-10.2065 14.382 376.141 -0.547949 -0.308852 -0.777407 0.0058057
-10.2944 16.0839 375.562 -0.542954 -0.301853 -0.783636 0.00596286
-10.5044 17.8187 375.13 -0.536778 -0.295762 -0.790186 0.00603213
-10.5085 19.4486 374.366 -0.532065 -0.288085 -0.796187 0.00604979
-10.5646 21.1481 373.776 -0.526526 -0.280966 -0.802389 0.00647564
-10.8353 22.9247 373.673 -0.517643 -0.27629 -0.809759 0.00522525
-10.3041 24.2567 372.585 -0.519864 -0.267514 -0.811282 0.00454586
-10.7224 25.9911 372.348 -0.511421 -0.264801 -0.817514 0.00478388
-10.7407 27.719 371.843 -0.509045 -0.258565 -0.820986 0.00497424
-11.2145 29.4442 371.646 -0.50355 -0.251729 -0.82648 0.00580234
-11.596 31.176 371.336 -0.502611 -0.240999 -0.830242 0.00735566
-11.9212 32.925 371.062 -0.506241 -0.226028 -0.832245 0.0100665
-12.0461 34.6544 370.579 -0.517191 -0.207952 -0.830222 0.0127305
