# .PCD v0.7 - Point Cloud Data file format
# 6 209 0
# 1 20 0
# 21 104 0
# 105 122 0
# 123 151 0
# 152 191 0
# 192 209 0
VERSION 0.7
FIELDS x y z normal_x normal_y normal_z curvature
SIZE 4 4 4 4 4 4 4
TYPE F F F F F F F
COUNT 1 1 1 1 1 1 1
WIDTH 209
HEIGHT 1
VIEWPOINT 0 0 0 1 0 0 0
POINTS 209
DATA ascii
65.0397 -52.5628 401.704 -0.290291 -0.241426 -0.925983 0.01
63.3904 -52.4839 402.421 -0.29471 -0.236418 -0.925879 0.00352852
61.8209 -53.03 403.113 -0.298015 -0.231589 -0.926042 0.00350396
60.11 -52.5883 403.456 -0.302671 -0.227366 -0.925578 0.0019067
58.4184 -52.6319 404.069 -0.300405 -0.225291 -0.926823 0.00189993
56.8491 -53.0559 404.842 -0.297992 -0.223152 -0.928119 0.00183274
55.1754 -53.4731 405.357 -0.295851 -0.22122 -0.929265 0.00153217
53.4579 -53.5033 405.895 -0.294145 -0.219808 -0.930141 0.00119596
51.7341 -53.3973 406.402 -0.29267 -0.218793 -0.930846 0.000956203
50.0225 -53.1447 406.899 -0.291382 -0.218186 -0.931392 0.000848461
48.3093 -53.2255 407.445 -0.29012 -0.217545 -0.931936 0.0022207
46.7678 -53.9133 408.07 -0.28387 -0.218089 -0.933732 0.00427469
45.0601 -53.4233 408.359 -0.276333 -0.219928 -0.93556 0.00441911
43.3188 -53.21 408.762 -0.268814 -0.221441 -0.937392 0.00426674
41.6937 -53.6752 409.38 -0.26184 -0.220916 -0.939487 0.00424022
39.993 -53.8516 409.943 -0.254293 -0.220162 -0.941734 0.00441054
38.2647 -53.9951 410.425 -0.246688 -0.219339 -0.943947 0.0044421
36.5875 -54.389 410.947 -0.239236 -0.217513 -0.946284 0.00420898
34.8957 -54.6532 411.502 -0.232639 -0.215769 -0.948326 0.0032138
34.0083 -54.3192 411.472 -0.23119 -0.216239 -0.948574 0.00205818
32.2692 -54.4597 411.914 -0.227602 -0.214258 -0.94989 0.00234973
30.5413 -54.5605 412.409 -0.224141 -0.212335 -0.951144 0.00278266
29.0569 -55.3664 413.031 -0.220597 -0.208112 -0.952904 0.00252143
27.3028 -55.0899 413.325 -0.217632 -0.20737 -0.953747 0.00244786
25.7354 -55.7373 413.928 -0.214077 -0.203326 -0.955421 0.0025369
23.9549 -55.5667 414.13 -0.211123 -0.202022 -0.956355 0.002297
22.221 -55.8538 414.519 -0.207675 -0.198797 -0.957784 0.0031195
20.5804 -56.3351 415.081 -0.203347 -0.194634 -0.959566 0.00355984
18.8766 -56.7121 415.523 -0.198511 -0.190617 -0.961384 0.00353447
17.1229 -56.8356 415.91 -0.193698 -0.18716 -0.963043 0.00347328
15.3584 -56.911 416.257 -0.188753 -0.183549 -0.964719 0.00415059
13.7143 -57.4055 416.798 -0.182907 -0.177787 -0.966921 0.00497179
12.0429 -57.9813 417.137 -0.176533 -0.171336 -0.969268 0.00469527
10.2644 -57.9178 417.407 -0.171035 -0.166899 -0.971026 0.00518973
8.60598 -58.5328 417.741 -0.163644 -0.159042 -0.973615 0.00662761
6.98328 -59.2145 418.117 -0.154726 -0.150361 -0.976448 0.00669805
5.21245 -59.2904 418.431 -0.145485 -0.144626 -0.978733 0.00655845
3.58453 -59.9015 418.896 -0.136527 -0.136587 -0.981175 0.00593302
1.84373 -60.2337 419.211 -0.12987 -0.130795 -0.982866 0.01
0.162361 -59.5952 419.284 -0.12648 -0.133284 -0.982974 0.0042897
-0.813867 -58.1034 419.036 -0.124079 -0.144183 -0.981741 0.00675575
-1.64744 -56.5114 418.932 -0.120152 -0.156568 -0.980331 0.00750863
-2.22424 -54.8321 418.637 -0.11584 -0.169623 -0.978677 0.00754333
-2.32849 -53.0527 418.387 -0.113477 -0.182374 -0.976659 0.00729683
-3.32097 -51.5585 418.237 -0.106764 -0.19307 -0.975359 0.00622531
-3.94318 -49.8851 418.008 -0.105211 -0.202806 -0.97355 0.00498128
-4.54703 -48.2189 417.693 -0.106909 -0.21062 -0.971704 0.00454359
-4.92222 -46.4904 417.359 -0.110264 -0.217849 -0.969734 0.00355318
-5.82693 -44.9565 417.097 -0.112525 -0.221512 -0.968644 0.00107037
-7.19928 -43.7976 416.98 -0.11192 -0.221135 -0.9688 0.00077119
-7.96205 -42.2033 416.639 -0.114637 -0.223096 -0.968032 0.000897547
-9.08663 -40.818 416.402 -0.114844 -0.222305 -0.96819 0.00166119
-9.79587 -39.1853 416.135 -0.118512 -0.227337 -0.966578 0.00368731
-10.6504 -37.6222 415.877 -0.120499 -0.233807 -0.964787 0.00353382
-11.7468 -36.2045 415.71 -0.120118 -0.239514 -0.963434 0.00471376
-12.2432 -34.5001 415.412 -0.123042 -0.249703 -0.960473 0.00484231
-13.4368 -33.1804 415.141 -0.119853 -0.255982 -0.959223 0.00532502
-13.9474 -31.5092 414.709 -0.117556 -0.267134 -0.956462 0.0064625
-14.6576 -29.899 414.331 -0.11279 -0.2775 -0.954082 0.006474
-15.6746 -28.4445 414.031 -0.105135 -0.286287 -0.952358 0.00636504
-16.68 -26.9655 413.827 -0.0981043 -0.294716 -0.950536 0.00590842
-16.9568 -25.2607 413.32 -0.0979935 -0.305052 -0.947281 0.00574374
-17.258 -23.5603 412.812 -0.0979487 -0.314405 -0.944222 0.00398333
-18.2844 -22.1688 412.311 -0.0915131 -0.317011 -0.943996 0.00330742
-19.0263 -20.6094 411.804 -0.0876283 -0.320168 -0.943299 0.00258441
-19.5966 -18.9738 411.314 -0.0851412 -0.323573 -0.942365 0.00235116
-20.1433 -17.2907 410.985 -0.0829064 -0.326922 -0.941408 0.00212568
-20.2615 -15.6218 410.321 -0.08353 -0.330598 -0.940068 0.00202851
-20.9044 -14.0361 409.762 -0.0812967 -0.333605 -0.939201 0.0023609
-22.0342 -12.6928 409.364 -0.0767742 -0.335445 -0.938926 0.00173299
-22.0284 -10.9797 408.811 -0.0786811 -0.338629 -0.937625 0.00166252
-22.5855 -9.32437 408.376 -0.0781834 -0.340804 -0.936878 0.00136326
-22.6778 -7.64241 407.741 -0.08025 -0.342906 -0.935935 0.00152537
-22.6321 -5.97204 407.072 -0.0826542 -0.343649 -0.935454 0.00160265
-22.3443 -4.31633 406.427 -0.0855708 -0.344773 -0.934778 0.0020961
-21.5373 -2.82346 405.827 -0.0894732 -0.346226 -0.933875 0.0016182
-21.6147 -1.14814 405.174 -0.090427 -0.34728 -0.933392 0.00091925
-21.5096 0.522342 404.512 -0.0915229 -0.348584 -0.932798 0.00114179
-21.0147 2.12835 403.867 -0.0932363 -0.349957 -0.932114 0.00126958
-20.3668 3.67511 403.213 -0.0950344 -0.351183 -0.931471 0.00124804
-19.6218 5.19036 402.589 -0.0969226 -0.352211 -0.930889 0.00136402
-18.6793 6.60828 402.005 -0.0994724 -0.352932 -0.930346 0.00199297
-17.7989 8.04455 401.371 -0.102556 -0.356125 -0.928793 0.00263158
-17.3958 9.73271 400.894 -0.104238 -0.360261 -0.927009 0.00290939
-16.5974 11.144 400.112 -0.107911 -0.36415 -0.925068 0.00343975
-15.4562 12.3525 399.421 -0.11327 -0.36762 -0.923052 0.00345813
-14.8419 13.9073 398.754 -0.116439 -0.371921 -0.920932 0.00315983
-14.2844 15.5637 398.323 -0.119169 -0.376324 -0.918792 0.00357553
-12.9072 16.6299 397.869 -0.125449 -0.379264 -0.916745 0.00387201
-11.7395 17.6527 396.958 -0.130858 -0.382402 -0.914683 0.00360421
-10.4804 18.4772 395.97 -0.136491 -0.384797 -0.912854 0.00311224
-9.71873 19.9828 395.344 -0.138726 -0.388775 -0.910829 0.00369315
-8.82629 21.3918 394.667 -0.141602 -0.395759 -0.907372 0.00442706
-7.3695 22.1956 393.98 -0.147236 -0.400125 -0.904556 0.00429794
-5.92095 23.1111 393.429 -0.152751 -0.404756 -0.901576 0.0044944
-4.65114 24.2314 392.819 -0.157371 -0.41084 -0.898023 0.004387
-3.26172 25.1464 392.131 -0.160981 -0.416374 -0.894828 0.00454749
-2.15234 26.3426 391.371 -0.162313 -0.424526 -0.890748 0.00508813
-0.974468 27.4537 390.585 -0.164289 -0.432387 -0.886595 0.0052962
0.0512969 28.6794 389.757 -0.166205 -0.440978 -0.881994 0.00554212
1.03675 29.9345 388.924 -0.167917 -0.449651 -0.877278 0.0052213
2.20984 31.0022 388.073 -0.169625 -0.457113 -0.873084 0.00538722
3.20314 32.3032 387.324 -0.170322 -0.466431 -0.868005 0.00716479
4.49641 33.2776 386.538 -0.171535 -0.479411 -0.860663 0.007796
5.89592 34.0808 385.741 -0.17245 -0.490669 -0.854111 0.00838717
7.02285 35.1618 384.845 -0.172243 -0.50533 -0.845561 0.0110869
7.56855 36.6608 384.011 -0.170578 -0.524321 -0.834261 0.0106612
8.82008 37.5128 383.038 -0.169276 -0.536869 -0.826509 0.010444
9.46374 38.8851 382.067 -0.166254 -0.555175 -0.814948 0.0120099
10.1781 40.1389 380.991 -0.162432 -0.572753 -0.803474 0.0120209
10.8293 41.3803 379.862 -0.157591 -0.590491 -0.791508 0.0126877
11.2887 42.6859 378.711 -0.15162 -0.609245 -0.778352 0.0144662
11.4871 44.1269 377.651 -0.144575 -0.631173 -0.762049 0.0202297
11.5912 45.4948 376.486 -0.137187 -0.665106 -0.73404 0.0233277
11.9952 46.7187 375.229 -0.131022 -0.693701 -0.708246 0.0216423
11.7023 48.0937 374.105 -0.12775 -0.720119 -0.681989 0.0198437
11.7395 49.3058 372.775 -0.12622 -0.742915 -0.657378 0.0177934
12.0068 50.493 371.448 -0.126689 -0.762656 -0.634276 0.0162382
12.6978 51.152 369.923 -0.128036 -0.779447 -0.613245 0.0154982
12.7025 52.3785 368.605 -0.134003 -0.794959 -0.591678 0.0152895
13.2003 53.3252 367.157 -0.141105 -0.809499 -0.569913 0.0144499
14.6313 53.6502 366.115 -0.145022 -0.8213 -0.551756 0.0129723
15.8119 54.271 364.906 -0.148335 -0.834112 -0.531275 0.01
17.4714 54.4173 364.225 -0.145552 -0.84202 -0.51944 0.00726952
19.1353 54.6822 363.591 -0.141016 -0.848229 -0.510511 0.00301752
20.8775 54.2306 363.564 -0.136519 -0.845817 -0.515709 0.00625013
22.5555 53.7483 364.002 -0.135852 -0.837456 -0.52935 0.0110364
24.0326 52.9669 364.671 -0.139758 -0.824308 -0.54862 0.0135566
25.5773 52.3152 365.326 -0.147902 -0.809845 -0.567693 0.0156727
26.9671 51.481 366.109 -0.164291 -0.792182 -0.587755 0.0159871
28.6123 50.838 366.455 -0.179492 -0.777717 -0.602444 0.0146984
30.1725 50.0833 366.941 -0.19487 -0.761578 -0.618081 0.0147227
31.7517 49.3101 367.326 -0.209707 -0.745922 -0.632158 0.0140193
33.3384 48.539 367.684 -0.224053 -0.730509 -0.645103 0.0118581
35.0673 48.0509 367.571 -0.236517 -0.720253 -0.652146 0.0102839
36.769 47.4667 367.625 -0.249318 -0.708293 -0.660425 0.0105761
38.4234 46.773 367.772 -0.259854 -0.695794 -0.669587 0.00814994
40.1413 46.2622 367.605 -0.262847 -0.687993 -0.676445 0.00497533
41.8774 45.9736 367.227 -0.264519 -0.682867 -0.680972 0.00550481
43.5351 45.2829 367.104 -0.267956 -0.67361 -0.688803 0.00555882
45.2407 44.9481 366.637 -0.269226 -0.668255 -0.693507 0.01
46.0309 43.6872 367.65 -0.276527 -0.652342 -0.705679 0.0120175
45.8343 42.4424 368.935 -0.282015 -0.636926 -0.717491 0.0123745
46.379 41.0552 369.944 -0.286643 -0.618827 -0.731361 0.0129031
47.2311 39.7028 370.772 -0.290217 -0.600672 -0.744961 0.0138015
47.6793 38.251 371.737 -0.291772 -0.579632 -0.760852 0.0136437
48.8792 37.0572 372.349 -0.293608 -0.562314 -0.773044 0.0132529
49.5479 35.5209 373.007 -0.293254 -0.541341 -0.788005 0.0120936
50.369 34.052 373.646 -0.295175 -0.526321 -0.797407 0.00952151
51.452 32.7366 374.226 -0.299082 -0.512319 -0.805034 0.00850452
52.7325 31.4898 374.44 -0.304423 -0.500469 -0.810468 0.00682382
54.294 30.5965 374.377 -0.311262 -0.49271 -0.812621 0.00590083
55.8754 29.7369 374.39 -0.318186 -0.484849 -0.814665 0.00720811
56.977 28.351 374.715 -0.322896 -0.471643 -0.820543 0.00806093
58.1659 27.028 374.991 -0.327851 -0.459679 -0.825354 0.00672383
59.6215 25.969 374.991 -0.334226 -0.451579 -0.827266 0.00536433
61.2034 25.1103 374.983 -0.340931 -0.445725 -0.827705 0.00559915
62.0629 23.5659 375.324 -0.341892 -0.434875 -0.833062 0.005652
63.2953 22.2636 375.482 -0.344302 -0.427584 -0.835839 0.00388197
64.6794 21.1128 375.475 -0.347669 -0.422784 -0.836887 0.00384378
65.6113 19.6123 375.821 -0.348157 -0.415368 -0.84039 0.00357929
66.8676 18.3291 375.944 -0.350446 -0.411187 -0.841495 0.0026296
67.9816 16.9318 376.16 -0.351646 -0.406991 -0.843032 0.00223994
68.863 15.4126 376.554 -0.351344 -0.40386 -0.844662 0.00172762
70.4802 14.6589 376.316 -0.357082 -0.405576 -0.841428 0.00306198
71.8464 13.4941 376.188 -0.360844 -0.405881 -0.839674 0.00172182
73.2427 12.3599 376.125 -0.362709 -0.405913 -0.838854 0.00112972
74.601 11.1817 376.041 -0.364611 -0.404845 -0.838546 0.00136433
75.9614 10.0031 376.024 -0.366606 -0.402936 -0.838595 0.00162398
77.5373 9.21 375.667 -0.369588 -0.402033 -0.83772 0.01
78.2904 7.63545 376.107 -0.370286 -0.397406 -0.839617 0.00315461
78.1107 6.05841 376.956 -0.368921 -0.39232 -0.842605 0.00331598
77.9013 4.46068 377.758 -0.367272 -0.387498 -0.845551 0.00316492
77.8161 2.82099 378.495 -0.365813 -0.38294 -0.848256 0.00303099
77.6933 1.23468 379.337 -0.363923 -0.378658 -0.850987 0.00282769
77.7987 -0.359759 380.166 -0.362604 -0.374719 -0.85329 0.00332909
77.8691 -2.04304 380.799 -0.36109 -0.3685 -0.856634 0.0038197
78.2965 -3.72416 381.28 -0.361242 -0.362444 -0.85915 0.00381219
78.3794 -5.41006 381.906 -0.360117 -0.356104 -0.862268 0.00367395
78.9689 -7.05763 382.327 -0.361099 -0.350386 -0.864197 0.00337486
79.5023 -8.72293 382.754 -0.361811 -0.344727 -0.866173 0.00346447
79.672 -10.4232 383.32 -0.361035 -0.338875 -0.868803 0.00341981
80.083 -12.0699 383.92 -0.360818 -0.333469 -0.870982 0.003317
80.2059 -13.7513 384.551 -0.359465 -0.328087 -0.873581 0.00344467
80.1369 -15.4465 385.152 -0.357395 -0.32286 -0.876373 0.00324219
80.067 -17.1628 385.69 -0.355283 -0.318531 -0.878813 0.00268023
80.1224 -18.8569 386.296 -0.353316 -0.315309 -0.880766 0.00267375
79.7725 -20.476 387 -0.350265 -0.311718 -0.883259 0.00283605
79.7058 -22.1545 387.647 -0.347651 -0.308299 -0.885489 0.00274488
79.6243 -23.829 388.302 -0.344843 -0.304811 -0.887791 0.00329524
78.5633 -25.0404 389.106 -0.341172 -0.300604 -0.89064 0.00336812
78.3358 -26.7256 389.696 -0.338274 -0.296728 -0.893042 0.00310317
77.9642 -28.3448 390.389 -0.335222 -0.292555 -0.895566 0.00316064
77.7588 -30.0035 391.058 -0.332265 -0.288449 -0.897996 0.00317342
77.3309 -31.5922 391.788 -0.329301 -0.284133 -0.900461 0.00269986
76.3533 -32.9143 392.52 -0.326964 -0.28161 -0.902103 0.00212137
76.1072 -34.5936 393.119 -0.324143 -0.279848 -0.903668 0.00218075
75.5986 -36.2051 393.74 -0.321078 -0.277667 -0.905434 0.00241844
74.9231 -37.6723 394.534 -0.317954 -0.275 -0.907348 0.00261003
73.6324 -38.7455 395.184 -0.315738 -0.271233 -0.909254 0.00273939
73.1065 -40.3478 395.813 -0.312156 -0.268547 -0.911285 0.00282713
72.235 -41.7612 396.508 -0.308958 -0.264986 -0.913415 0.00296707
71.4349 -43.1972 397.241 -0.30557 -0.261336 -0.915604 0.00305591
70.0473 -44.1165 397.926 -0.304085 -0.256339 -0.917509 0.0027639
69.5914 -45.6735 398.706 -0.300318 -0.254404 -0.919287 0.00234945
68.4762 -46.9461 399.32 -0.298428 -0.251248 -0.920769 0.00213961
67.5531 -48.3483 399.969 -0.29623 -0.248584 -0.922201 0.00202843
66.3483 -49.5317 400.592 -0.295384 -0.245189 -0.92338 0.00199961
66.1105 -51.2268 401.149 -0.291461 -0.244417 -0.92483 0.00196526
