# .PCD v0.7 - Point Cloud Data file format
# 5 151 0
# 1 22 0
# 23 40 0
# 41 87 0
# 88 118 0
# 119 151 0
VERSION 0.7
FIELDS x y z normal_x normal_y normal_z curvature
SIZE 4 4 4 4 4 4 4
TYPE F F F F F F F
COUNT 1 1 1 1 1 1 1
WIDTH 151
HEIGHT 1
VIEWPOINT 0 0 0 1 0 0 0
POINTS 151
DATA ascii
-41.5272 12.1694 387.064 0.418506 -0.262016 -0.869598 0.01
-40.9687 13.8757 386.934 0.446561 -0.235188 -0.86329 0.0113001
-40.4604 15.5887 386.717 0.450206 -0.238201 -0.860566 0.00352553
-39.8405 17.2667 386.517 0.451169 -0.245727 -0.857942 0.00553565
-39.3387 18.9851 386.329 0.453222 -0.256635 -0.853656 0.00631858
-38.5203 20.584 386.211 0.451251 -0.267401 -0.851392 0.00748311
-37.9503 22.2791 386.008 0.452796 -0.282297 -0.845745 0.00514542
-37.1995 23.9069 385.844 0.450213 -0.285116 -0.846178 0.00207702
-36.308 25.4687 385.767 0.446138 -0.283804 -0.848774 0.000496516
-35.9103 27.1955 385.451 0.448943 -0.284329 -0.847117 0.00204072
-35.5497 28.9258 385.11 0.452238 -0.285396 -0.845003 0.00139445
-34.8237 30.5627 384.927 0.452973 -0.285687 -0.844511 0.00219353
-34.7514 32.2856 384.411 0.457911 -0.288603 -0.840848 0.00326576
-34.5961 34.0193 383.953 0.460982 -0.291494 -0.838168 0.00189431
-33.7405 35.5922 383.769 0.462064 -0.292382 -0.837263 0.00152489
-33.8904 37.2712 383.138 0.464154 -0.29454 -0.835348 0.00158033
-34.398 38.9004 382.565 0.464471 -0.296647 -0.834426 0.00126817
-33.9857 40.5738 382.045 0.46507 -0.298422 -0.833459 0.00118542
-33.7272 42.2974 381.595 0.465064 -0.300505 -0.832713 0.00137143
-33.1022 43.9218 381.136 0.465505 -0.302939 -0.831585 0.00154846
-33.2 45.6055 380.507 0.462787 -0.305433 -0.832189 0.00268113
-33.1253 47.3128 379.942 0.459653 -0.310586 -0.832019 0.00370002
-33.4526 48.955 379.282 0.454266 -0.315509 -0.833125 0.00448598
-33.1807 50.6062 378.619 0.448597 -0.321915 -0.833745 0.00465029
-33.6733 52.2017 377.947 0.441596 -0.32541 -0.836123 0.00490987
-33.7364 53.8269 377.176 0.433824 -0.330198 -0.838311 0.00501251
-33.9822 55.3949 376.327 0.426235 -0.333529 -0.840882 0.00419199
-34.4944 56.9093 375.499 0.42043 -0.334992 -0.84322 0.00384953
-34.9567 58.4313 374.657 0.415639 -0.342279 -0.842668 0.00499005
-35.3346 59.987 373.834 0.410721 -0.35004 -0.841891 0.00549278
-35.5767 61.5731 373.018 0.404614 -0.358615 -0.841239 0.0036339
-36.4416 62.8798 372.133 0.405387 -0.3615 -0.83963 0.00541979
-36.154 64.4934 371.388 0.393587 -0.373292 -0.840085 0.00823256
-36.3166 66.1024 370.598 0.384722 -0.382413 -0.840089 0.00440732
-36.8457 66.7914 370.075 0.385983 -0.382624 -0.839414 0.00546148
-37.0145 68.3721 369.231 0.375945 -0.394429 -0.838506 0.0110133
-36.9144 70.0136 368.499 0.359809 -0.41213 -0.83707 0.0146915
-36.673 71.6545 367.8 0.339211 -0.4323 -0.835495 0.0128151
-37.1073 73.12 366.849 0.327766 -0.443785 -0.834041 0.0129344
-37.0598 74.7818 366.159 0.305417 -0.463237 -0.831944 0.0208451
-36.147 76.1754 365.477 0.273431 -0.491444 -0.826872 0.0222314
-35.7961 77.7258 364.633 0.246722 -0.514809 -0.821036 0.0161344
-36.2004 79.1991 363.681 0.228865 -0.525746 -0.819276 0.0158088
-35.8275 80.6685 362.711 0.201969 -0.546656 -0.812635 0.0198808
-35.2499 82.1186 361.814 0.17515 -0.569885 -0.802841 0.0203818
-34.6229 83.5509 360.922 0.14989 -0.593487 -0.790763 0.020355
-33.8721 84.9207 360.028 0.126479 -0.617665 -0.776204 0.0197244
-33.5897 86.3048 358.912 0.104073 -0.63862 -0.762452 0.0196428
-33.1303 87.6716 357.835 0.0835279 -0.663316 -0.743663 0.0203358
-32.2189 88.8655 356.843 0.0648379 -0.6863 -0.724422 0.0192
-31.3452 90.0114 355.764 0.0438804 -0.706157 -0.706694 0.0186344
-30.7513 91.1863 354.537 0.0200972 -0.722785 -0.69078 0.0179824
-30.1003 92.3343 353.313 -0.00297793 -0.737709 -0.675113 0.0166608
-29.3408 93.4113 352.087 -0.0222882 -0.751377 -0.659497 0.0143577
-28.5418 94.4721 350.872 -0.0358624 -0.763551 -0.64475 0.0112277
-27.4879 95.3348 349.695 -0.0408397 -0.77401 -0.631855 0.01
-25.6964 95.4395 349.554 -0.0367856 -0.77494 -0.630964 0.00151706
-23.9567 95.6933 349.168 -0.0372797 -0.771508 -0.635126 0.00561785
-22.3269 95.094 349.642 -0.049022 -0.765252 -0.641861 0.00619962
-20.5612 94.7805 349.797 -0.0564209 -0.763717 -0.643081 0.00309408
-18.9447 94.3236 350.444 -0.0593783 -0.762431 -0.644339 0.00532656
-17.1475 94.2629 350.364 -0.0744359 -0.765784 -0.638775 0.0148087
-15.393 93.8625 350.403 -0.11097 -0.766415 -0.632688 0.0200566
-13.6355 93.4883 350.507 -0.145421 -0.76642 -0.625663 0.0184268
-11.925 92.9702 350.722 -0.175775 -0.765491 -0.618973 0.015535
-10.2147 92.4363 350.894 -0.199415 -0.766015 -0.61111 0.0103199
-8.48091 91.9531 350.92 -0.210995 -0.765966 -0.60727 0.00818289
-6.77173 91.3895 350.951 -0.228107 -0.759761 -0.608876 0.0120852
-5.0496 90.8708 350.88 -0.250229 -0.748505 -0.614106 0.0137953
-3.31598 90.3897 350.823 -0.267465 -0.733812 -0.624486 0.0120017
-1.57159 90.4417 350.382 -0.229002 -0.728865 -0.645224 0.0244528
0.117577 89.8216 350.335 -0.193972 -0.719637 -0.666706 0.0252615
1.85776 89.3615 350.327 -0.152961 -0.707416 -0.690047 0.0268336
3.5836 89.1057 350.77 -0.115576 -0.691037 -0.713519 0.01
4.16455 87.7334 351.779 -0.127658 -0.683556 -0.718648 0.00722758
5.18534 86.6538 352.795 -0.120228 -0.672258 -0.730489 0.00856429
5.94102 85.3705 353.806 -0.119522 -0.662507 -0.739459 0.00721591
6.48493 83.9595 354.783 -0.126419 -0.65302 -0.746715 0.00779886
7.15128 82.6268 355.793 -0.12718 -0.641549 -0.756465 0.010295
8.08428 81.4495 356.784 -0.112136 -0.628151 -0.769969 0.0120206
8.87909 80.1737 357.775 -0.104314 -0.614901 -0.781675 0.00878337
9.02819 78.5983 358.633 -0.129939 -0.607027 -0.783986 0.0120341
9.63894 77.2016 359.59 -0.138808 -0.592373 -0.793616 0.010981
10.3775 75.8679 360.547 -0.126745 -0.575673 -0.807797 0.0167697
11.3146 74.6728 361.513 -0.100963 -0.557003 -0.824351 0.0110423
11.6928 73.1441 362.385 -0.109757 -0.547845 -0.829349 0.0101009
11.7422 71.5248 363.169 -0.134209 -0.543385 -0.828686 0.00571448
12.6831 70.2906 364.081 -0.104515 -0.532131 -0.840186 0.0110555
13.1589 68.8001 364.971 -0.10383 -0.524464 -0.845078 0.007765
13.135 67.1728 365.74 -0.129286 -0.520471 -0.844035 0.00598711
13.9603 65.8857 366.69 -0.114062 -0.50842 -0.853522 0.00733117
14.2761 64.3335 367.545 -0.128653 -0.498173 -0.85748 0.0122383
14.4393 62.7293 368.345 -0.150039 -0.484477 -0.861841 0.0146748
14.4655 61.1336 369.177 -0.17454 -0.472833 -0.863692 0.0196765
13.8413 59.5801 369.838 -0.217109 -0.466486 -0.85747 0.0114926
14.6027 58.0864 370.493 -0.206568 -0.452414 -0.867555 0.00890796
15.1449 56.5998 371.351 -0.205236 -0.441501 -0.873473 0.00679079
15.0235 54.961 372.086 -0.221613 -0.434526 -0.872969 0.00562005
15.5888 53.4651 372.912 -0.214261 -0.424901 -0.879518 0.00824767
15.895 51.8823 373.713 -0.214039 -0.409496 -0.886848 0.0100264
15.5297 50.2119 374.275 -0.230909 -0.395201 -0.889099 0.00952611
15.9344 48.6343 375.041 -0.227029 -0.380271 -0.896578 0.00916488
15.6288 46.9491 375.596 -0.24025 -0.365966 -0.899082 0.00913528
15.8565 45.3227 376.332 -0.239701 -0.351565 -0.904956 0.00861823
15.7051 43.6392 376.951 -0.24689 -0.337347 -0.908429 0.00982136
15.1536 42.0201 377.512 -0.261726 -0.324492 -0.908958 0.00751275
15.3084 40.3254 378.098 -0.257879 -0.313822 -0.913791 0.00705346
15.5442 38.6516 378.717 -0.250618 -0.304045 -0.919101 0.00673947
15.4024 36.9502 379.287 -0.24933 -0.293211 -0.922964 0.00658919
15.213 35.2463 379.836 -0.246861 -0.282034 -0.927101 0.00699375
15.0221 33.5438 380.388 -0.242509 -0.270585 -0.931651 0.00741076
14.6144 31.876 380.929 -0.241467 -0.257398 -0.93565 0.00820977
14.8087 30.1653 381.454 -0.225213 -0.249462 -0.941832 0.00879175
14.4226 28.4638 381.896 -0.220568 -0.236737 -0.946206 0.00825171
14.0277 26.7704 382.362 -0.215422 -0.222871 -0.950748 0.00893336
13.651 25.0647 382.796 -0.208969 -0.208218 -0.955498 0.0103684
13.6475 23.3302 383.277 -0.191807 -0.196363 -0.961588 0.0122453
13.627 21.6169 383.828 -0.174491 -0.183488 -0.967412 0.00878232
12.9394 19.968 384.048 -0.176172 -0.170855 -0.969418 0.00584988
12.242 18.3416 384.378 -0.181197 -0.16367 -0.969732 0.00769045
11.268 16.8526 384.65 -0.198656 -0.15497 -0.96774 0.01
9.53936 17.0268 385.121 -0.262792 -0.136011 -0.955218 0.0400587
7.8701 17.4626 385.634 -0.333305 -0.116001 -0.935656 0.0245819
6.1602 17.3473 386.184 -0.341915 -0.105601 -0.933779 0.0043783
4.58424 16.7928 386.854 -0.331846 -0.100616 -0.937953 0.00589662
2.96315 16.5016 387.58 -0.324022 -0.0969564 -0.941068 0.00428519
1.28439 17.0507 387.927 -0.318392 -0.0966598 -0.943018 0.0123757
-0.386577 16.7184 388.508 -0.282975 -0.0969818 -0.954212 0.023091
-2.11092 16.782 389.021 -0.239068 -0.0987877 -0.965965 0.0250912
-3.85101 16.6058 389.446 -0.195497 -0.0996479 -0.975629 0.0248595
-5.60538 16.8814 389.74 -0.152122 -0.10391 -0.982884 0.0150036
-7.38873 16.8322 389.979 -0.14271 -0.105492 -0.984127 0.00362714
-9.17385 16.8482 390.209 -0.139273 -0.105429 -0.984626 0.00243064
-10.9222 16.6768 390.602 -0.134707 -0.102327 -0.985588 0.00369191
-12.7146 16.5548 390.713 -0.12899 -0.0973781 -0.986853 0.0107933
-14.2856 15.8033 391.168 -0.0993647 -0.0894639 -0.991021 0.0189807
-16.0776 15.6335 391.164 -0.0633177 -0.087989 -0.994107 0.0198526
-17.8762 15.5965 391.223 -0.0281238 -0.0916781 -0.995391 0.0199415
-19.6717 15.6991 391.298 0.00714396 -0.101419 -0.994818 0.0172811
-21.3689 15.1013 391.252 0.0301252 -0.109569 -0.993523 0.0145531
-23.1607 14.9409 391.19 0.0559521 -0.118967 -0.99132 0.0143311
-24.8394 14.2916 391.171 0.0795563 -0.121773 -0.989365 0.0134496
-26.4132 13.4181 391.165 0.104091 -0.119452 -0.987368 0.0156094
-28.1959 13.2851 390.955 0.133935 -0.117621 -0.983985 0.0165961
-29.9748 13.1756 390.703 0.163279 -0.119823 -0.979276 0.0163831
-31.6794 12.6658 390.43 0.191091 -0.125253 -0.973548 0.0184167
-33.4375 12.466 390.1 0.224124 -0.140704 -0.96435 0.0257954
-35.1396 12.0575 389.68 0.272885 -0.160885 -0.948499 0.0312327
-36.7208 11.3364 389.211 0.323199 -0.179186 -0.929212 0.0331628
-38.4376 11.2907 388.672 0.372502 -0.204753 -0.905162 0.0307108
-40.0282 11.6251 387.899 0.406692 -0.233371 -0.883255 0.0227191
