# .PCD v0.7 - Point Cloud Data file format
# 3 151 0
# 1 69 0
# 70 147 0
# 148 151 0
VERSION 0.7
FIELDS x y z normal_x normal_y normal_z curvature
SIZE 4 4 4 4 4 4 4
TYPE F F F F F F F
COUNT 1 1 1 1 1 1 1
WIDTH 151
HEIGHT 1
VIEWPOINT 0 0 0 1 0 0 0
POINTS 151
DATA ascii
-4.12147 -65.8132 436.784 -0.347451 0.209882 -0.913908 0.01
-4.74001 -64.2022 437.296 -0.366924 0.181091 -0.912454 0.0229802
-5.50203 -62.7111 437.956 -0.396633 0.143991 -0.906614 0.0186081
-6.10721 -61.0904 438.453 -0.382409 0.116235 -0.916653 0.0170755
-6.72585 -59.4867 438.987 -0.368952 0.0922332 -0.924861 0.0149946
-7.05073 -58.0181 439.15 -0.348469 0.0846706 -0.933488 0.00816014
-7.61331 -56.3774 439.631 -0.357045 0.0690481 -0.931531 0.00663824
-7.86553 -54.5975 439.724 -0.333672 0.0675114 -0.940269 0.00622359
-8.55633 -52.9959 440.168 -0.36927 0.0509917 -0.927922 0.00960872
-8.89665 -51.2336 440.304 -0.359702 0.0468668 -0.931889 0.0060515
-9.4515 -49.5572 440.653 -0.379826 0.0323425 -0.924492 0.010612
-9.52534 -47.7611 440.561 -0.326526 0.0346654 -0.944552 0.00793626
-10.0421 -46.0583 440.833 -0.361401 0.0124877 -0.932327 0.0321435
-10.6801 -44.4315 441.264 -0.425548 -0.00965041 -0.904885 0.00686761
-10.6052 -42.6501 441.018 -0.369036 -0.00981342 -0.929363 0.0270157
-10.6335 -40.8523 440.933 -0.33585 -0.0144004 -0.941805 0.0113936
-11.269 -39.1974 441.245 -0.400603 -0.0305364 -0.915743 0.0337693
-11.7894 -37.4994 441.539 -0.444171 -0.0431906 -0.8949 0.00879121
-11.8817 -35.7085 441.383 -0.423985 -0.0477434 -0.90441 0.00405019
-12.2612 -33.9563 441.544 -0.445252 -0.0575641 -0.893553 0.00810181
-12.4736 -32.1696 441.493 -0.441534 -0.0687615 -0.894606 0.0118706
-12.4568 -30.3872 441.242 -0.411999 -0.0801161 -0.907655 0.0158709
-12.5228 -28.5996 441.042 -0.393609 -0.0925347 -0.914609 0.00888905
-12.9703 -26.8667 441.233 -0.423726 -0.108272 -0.899296 0.00894151
-13.0538 -25.0903 440.954 -0.407685 -0.119416 -0.90528 0.0141421
-12.9858 -23.3219 440.626 -0.380425 -0.129291 -0.91573 0.0095685
-13.1692 -21.5372 440.479 -0.381788 -0.140369 -0.913529 0.0059751
-13.2415 -19.748 440.296 -0.375491 -0.150185 -0.914577 0.00708909
-13.559 -17.9768 440.253 -0.394675 -0.160451 -0.904703 0.00748024
-13.6262 -16.2098 439.916 -0.388272 -0.17184 -0.905382 0.00647377
-13.706 -14.4394 439.601 -0.386979 -0.182433 -0.903861 0.00630592
-13.702 -12.6935 439.163 -0.379484 -0.192744 -0.904899 0.00638972
-13.7015 -10.9472 438.727 -0.37601 -0.202649 -0.904185 0.00542094
-13.7304 -9.18119 438.38 -0.381129 -0.211553 -0.899992 0.00551492
-13.6643 -7.438 437.936 -0.379981 -0.221134 -0.898173 0.00621786
-13.4967 -5.7206 437.424 -0.372349 -0.232082 -0.898607 0.0154654
-12.9999 -4.14794 436.703 -0.333325 -0.248599 -0.909446 0.00976143
-12.9855 -2.39543 436.292 -0.346367 -0.254602 -0.902889 0.0141574
-13.1299 -0.629486 435.975 -0.379847 -0.253969 -0.889503 0.0145084
-13.0919 1.07737 435.405 -0.394017 -0.257699 -0.882237 0.0135029
-13.1578 2.81039 434.923 -0.423484 -0.257658 -0.868489 0.00577376
-12.6196 4.29754 434.063 -0.388833 -0.277027 -0.878672 0.00732756
-12.5417 6.02326 433.557 -0.412413 -0.281078 -0.866551 0.018576
-12.5485 7.75979 433.084 -0.448356 -0.281071 -0.848514 0.0091509
-11.8936 9.13782 432.129 -0.400173 -0.310243 -0.862329 0.00859205
-11.9204 10.8649 431.622 -0.443759 -0.309707 -0.840928 0.0284491
-11.9752 12.597 431.136 -0.491592 -0.301274 -0.81705 0.00811683
-11.2759 13.88 430.085 -0.428004 -0.3328 -0.840272 0.00895757
-11.2963 15.5975 429.546 -0.471997 -0.325203 -0.819428 0.0185417
-10.4888 16.7554 428.429 -0.374717 -0.36459 -0.852444 0.00962653
-10.6571 18.4938 427.994 -0.449348 -0.34787 -0.822845 0.0252935
-10.4294 20.1018 427.218 -0.456508 -0.353334 -0.816551 0.00525278
-10.1028 21.6444 426.349 -0.447331 -0.365475 -0.816286 0.0164608
-9.66242 23.0544 425.321 -0.410179 -0.389138 -0.824818 0.0256247
-9.11762 24.494 424.388 -0.371251 -0.415558 -0.830352 0.00771303
-8.91396 26.1053 423.612 -0.40626 -0.414375 -0.814399 0.0165971
-8.61163 27.6604 422.757 -0.424322 -0.41826 -0.803125 0.0104542
-7.93657 28.8829 421.621 -0.385135 -0.444428 -0.808798 0.0204987
-7.40507 30.2132 420.532 -0.36447 -0.460817 -0.809203 0.007294
-7.06241 31.7239 419.615 -0.37135 -0.465922 -0.803129 0.00685003
-6.50357 33.056 418.541 -0.353802 -0.481656 -0.801768 0.00912124
-6.04304 34.4648 417.52 -0.35325 -0.492225 -0.795568 0.0120897
-5.32031 35.6157 416.339 -0.330216 -0.516066 -0.790337 0.00866562
-5.06568 37.1457 415.426 -0.364029 -0.513926 -0.776764 0.011969
-4.51446 38.455 414.321 -0.368731 -0.518051 -0.771791 0.0038314
-3.98636 39.7968 413.243 -0.372754 -0.520402 -0.768269 0.00337071
-3.48312 41.1502 412.169 -0.37795 -0.521738 -0.764816 0.00382826
-2.80957 42.3125 410.97 -0.368475 -0.532035 -0.762342 0.00952753
-2.02907 43.3392 409.715 -0.356633 -0.547411 -0.757069 0.00714938
-1.50304 44.6477 408.596 -0.374877 -0.550547 -0.745899 0.0109303
-0.813306 45.7369 407.34 -0.381892 -0.564053 -0.732122 0.011709
-0.0832621 46.7908 406.077 -0.382095 -0.581505 -0.718231 0.0121426
0.541325 47.9359 404.836 -0.389582 -0.595382 -0.702671 0.0138136
1.31628 48.8654 403.504 -0.3793 -0.619868 -0.686946 0.01
2.54168 47.597 403.864 -0.266871 -0.667083 -0.695544 0.0539405
3.4223 46.3501 404.817 -0.200429 -0.684121 -0.70129 0.0298395
4.52228 45.1264 405.547 -0.163239 -0.692843 -0.702368 0.0154022
4.94358 43.9007 406.796 -0.147459 -0.688626 -0.709964 0.00697412
5.82905 42.6624 407.757 -0.143596 -0.684313 -0.71491 0.00487545
6.89697 41.5819 408.722 -0.154327 -0.676273 -0.720304 0.00938892
7.472 40.2495 409.787 -0.16761 -0.665019 -0.727775 0.0126213
8.22331 38.9444 410.773 -0.189355 -0.651336 -0.734783 0.0126699
8.41272 37.5476 411.893 -0.199884 -0.637969 -0.743668 0.0127411
9.54219 36.3856 412.676 -0.217128 -0.622069 -0.752254 0.0131755
10.0289 34.9384 413.629 -0.229061 -0.606463 -0.761402 0.0120305
10.6232 33.5135 414.555 -0.241559 -0.590898 -0.769733 0.0121209
11.4108 32.0774 415.301 -0.255423 -0.575497 -0.776893 0.0117462
12.187 30.642 416.061 -0.268015 -0.560848 -0.783337 0.0107744
12.9854 29.2114 416.807 -0.27924 -0.547351 -0.788943 0.00763512
14.1515 27.9628 417.374 -0.272857 -0.53806 -0.797521 0.00760618
14.3976 26.4345 418.292 -0.273109 -0.527224 -0.80464 0.00734865
15.1227 24.9244 418.951 -0.266687 -0.517807 -0.812868 0.00731215
15.8545 23.436 419.65 -0.263506 -0.508118 -0.819988 0.00706872
16.6287 22.0015 420.414 -0.264364 -0.496607 -0.826736 0.00872264
17.146 20.4156 421.09 -0.271073 -0.481051 -0.833732 0.010878
17.7829 18.8596 421.733 -0.282104 -0.464186 -0.839612 0.0117431
18.083 17.2818 422.546 -0.295336 -0.448204 -0.843736 0.011041
19.0364 15.7999 422.912 -0.295066 -0.43025 -0.853124 0.0111624
19.822 14.2825 423.479 -0.292737 -0.412868 -0.862464 0.0102986
20.2856 12.6563 424.096 -0.300577 -0.396648 -0.867366 0.010286
20.9132 11.0393 424.577 -0.305896 -0.379958 -0.87296 0.0105867
20.6322 9.41701 425.304 -0.32472 -0.369111 -0.870812 0.0107047
21.2043 7.76181 425.72 -0.330586 -0.352143 -0.875619 0.010416
21.3196 6.0728 426.331 -0.342839 -0.337248 -0.87677 0.0105176
21.8389 4.41344 426.797 -0.350874 -0.32077 -0.879769 0.0102136
21.7189 2.74996 427.474 -0.364263 -0.308238 -0.878807 0.0103361
22.3577 1.09245 427.765 -0.372404 -0.291752 -0.88102 0.0101881
22.4422 -0.630399 428.28 -0.384548 -0.278329 -0.880145 0.00980073
22.4159 -2.34163 428.837 -0.396448 -0.266066 -0.878657 0.0103854
22.8908 -4.04477 429.175 -0.408941 -0.250703 -0.877448 0.0109596
23.0794 -5.79529 429.549 -0.422386 -0.236741 -0.874954 0.00897031
22.6655 -7.4413 430.149 -0.429626 -0.226843 -0.87405 0.00738688
22.524 -9.16795 430.637 -0.436007 -0.214028 -0.874122 0.00780131
22.4083 -10.9057 431.092 -0.439998 -0.200775 -0.875266 0.00845904
22.7063 -12.6651 431.328 -0.447717 -0.186201 -0.874573 0.00842687
22.8853 -14.4344 431.606 -0.451511 -0.172729 -0.875387 0.00739174
22.9881 -16.2064 431.905 -0.451267 -0.160049 -0.87792 0.00733166
23.0065 -17.9814 432.204 -0.446584 -0.147787 -0.882452 0.00800855
23.0686 -19.7615 432.463 -0.438847 -0.136147 -0.888188 0.00905538
22.8778 -21.5186 432.804 -0.424641 -0.128163 -0.896245 0.0108505
22.6719 -23.275 433.14 -0.406975 -0.121443 -0.90533 0.0125337
22.4819 -25.0394 433.441 -0.386167 -0.114318 -0.915318 0.0142947
22.2868 -26.8072 433.718 -0.362228 -0.106623 -0.925971 0.0157034
21.9748 -28.5538 434.022 -0.337042 -0.0962118 -0.936561 0.0168791
21.7622 -30.3246 434.265 -0.308805 -0.0869681 -0.947141 0.0142611
20.9045 -31.8569 434.66 -0.301083 -0.064265 -0.95143 0.0132725
20.574 -33.603 434.946 -0.281373 -0.050265 -0.958281 0.00992057
19.3784 -34.8942 435.325 -0.313508 -0.0323191 -0.949035 0.0131364
18.8006 -36.5888 435.511 -0.324273 -0.0391536 -0.945153 0.0119631
17.9359 -38.14 435.804 -0.352726 -0.0421696 -0.934776 0.00435445
17.2805 -39.7995 436.042 -0.315064 -0.0515424 -0.94767 0.0245309
16.9956 -41.0113 437.342 -0.274624 -0.0557262 -0.959935 0.0239193
16.734 -42.46 438.378 -0.233053 -0.0612453 -0.970533 0.031323
15.9778 -44.0879 438.512 -0.169496 -0.0615641 -0.983606 0.0461608
14.4569 -44.2498 437.563 -0.0993633 -0.0322434 -0.994529 0.0310235
12.8435 -44.9215 437.132 -0.0879917 0.0102586 -0.996068 0.0232487
12.6801 -46.7116 437.227 -0.0456788 0.014042 -0.998857 0.0144738
11.322 -47.8929 437.237 -0.108538 0.0538814 -0.992631 0.0269198
10.6335 -49.5558 437.21 -0.116505 0.0757525 -0.990297 0.0141838
10.7433 -51.3455 437.052 -0.0601549 0.0648162 -0.996082 0.0116014
10.0818 -53.0189 437.005 -0.0760037 0.0737981 -0.994373 0.0261008
8.87943 -54.3573 437.057 -0.146435 0.0959481 -0.984556 0.0264539
7.45892 -55.4597 437.14 -0.157274 0.12059 -0.980165 0.0113694
6.54434 -57.0098 437.164 -0.138677 0.135234 -0.981061 0.0128969
5.48299 -58.4613 437.08 -0.124832 0.153697 -0.980201 0.0138392
3.84214 -59.2008 437.107 -0.129969 0.182154 -0.974642 0.0166748
2.78685 -60.6507 436.952 -0.0969655 0.204146 -0.974126 0.0212169
2.04806 -62.2906 436.882 -0.065576 0.222394 -0.972749 0.016432
0.385255 -62.9382 436.646 -0.0593178 0.243413 -0.968107 0.0094067
-1.11948 -63.9094 436.465 -0.0788638 0.252221 -0.964451 0.0323206
-2.57908 -64.9615 436.415 -0.174602 0.245884 -0.953444 0.0774887
