# .PCD v0.7 - Point Cloud Data file format
# 5 148 0
# 1 58 0
# 59 89 0
# 90 121 0
# 122 146 0
# 147 148 0
VERSION 0.7
FIELDS x y z normal_x normal_y normal_z curvature
SIZE 4 4 4 4 4 4 4
TYPE F F F F F F F
COUNT 1 1 1 1 1 1 1
WIDTH 148
HEIGHT 1
VIEWPOINT 0 0 0 1 0 0 0
POINTS 148
DATA ascii
35.6181 -23.9869 389.41 0.0101051 0.672398 0.740121 0.01
36.0616 -22.6095 388.339 -0.003153 0.659543 0.75166 0.032562
35.4661 -23.9126 389.429 0.00491843 0.673871 0.738832 0.0127916
36.5087 -21.0535 386.874 -0.0233069 0.644714 0.764068 0.0123909
36.6576 -19.6178 385.799 -0.0438132 0.633982 0.772106 0.0124502
37.0852 -18.2749 384.679 -0.0562041 0.620524 0.782171 0.0115762
37.1766 -16.7572 383.715 -0.0713013 0.608791 0.79012 0.0108851
37.3838 -15.2903 382.693 -0.0807227 0.595329 0.799416 0.0100272
37.7433 -13.8574 381.665 -0.0841533 0.581173 0.809417 0.00954566
38.3741 -12.552 380.598 -0.0789245 0.567642 0.819484 0.00853472
38.4469 -10.9969 379.694 -0.088091 0.556357 0.826261 0.00832774
39.3728 -9.85548 378.655 -0.0743108 0.544158 0.835685 0.0154543
40.8927 -8.90798 378.476 -0.044405 0.53269 0.845145 0.0156747
42.1184 -7.80382 377.756 -0.0276515 0.520014 0.85371 0.00868767
42.5737 -6.28848 376.898 -0.0309425 0.509784 0.859746 0.00678877
43.1699 -4.89763 375.923 -0.032592 0.49939 0.865764 0.00868559
43.2379 -3.29678 375.103 -0.0442152 0.485392 0.873178 0.0110195
43.3874 -1.70782 374.271 -0.0540637 0.469795 0.881119 0.0108899
43.4076 -0.0931981 373.475 -0.0645324 0.455341 0.887975 0.0100916
43.7302 1.44624 372.6 -0.0700568 0.440467 0.895031 0.00924159
43.9725 3.01964 371.76 -0.0750575 0.426727 0.90126 0.00848317
44.0047 4.65721 371.013 -0.0801494 0.414171 0.906663 0.00780719
43.9476 6.33044 370.352 -0.083683 0.402138 0.911747 0.00788671
44.0518 7.98155 369.643 -0.0837518 0.388304 0.917717 0.00839316
44.0172 9.66041 368.995 -0.0833777 0.374349 0.923532 0.0084582
43.9758 11.3413 368.352 -0.0814374 0.360238 0.929299 0.00860959
44.2353 12.9371 367.561 -0.0748548 0.346959 0.934888 0.00889637
44.0101 14.6447 367.038 -0.0719802 0.332195 0.94046 0.00909526
44.0104 16.3333 366.415 -0.065328 0.31773 0.945928 0.00947969
43.9443 18.0371 365.838 -0.0584675 0.302789 0.951262 0.00836904
43.8659 19.747 365.281 -0.0503081 0.293145 0.954744 0.00749645
43.7486 21.4724 364.782 -0.0399905 0.284283 0.957906 0.00895006
43.7853 23.1716 364.189 -0.0240579 0.275605 0.96097 0.00941042
43.3703 24.8973 363.889 -0.016095 0.261894 0.964962 0.0103181
43.288 26.624 363.388 0.00120056 0.249692 0.968325 0.0118075
43.0619 28.3702 363.014 0.0158039 0.234773 0.971922 0.0123074
42.8855 30.092 362.52 0.0325828 0.219209 0.975134 0.0105703
42.2687 31.7716 362.324 0.0308584 0.201038 0.979097 0.00921702
42.1495 33.5007 361.838 0.0463825 0.19003 0.980682 0.0102056
42.0065 35.2338 361.374 0.0599567 0.178808 0.982055 0.0108734
40.9932 36.714 361.523 0.0240926 0.160747 0.986702 0.0105252
40.9423 38.4714 361.137 0.0394891 0.149833 0.987922 0.0101172
40.8259 40.2203 360.727 0.0524163 0.137979 0.989047 0.00799793
40.3606 41.9535 360.587 0.0442273 0.121888 0.991558 0.0142353
39.628 43.5976 360.573 0.0155419 0.103094 0.99455 0.0121513
39.3226 45.3561 360.34 0.0156919 0.0895639 0.995857 0.0103021
38.7775 47.0681 360.23 -0.00593961 0.0731186 0.997306 0.00820719
38.629 48.8365 359.929 0.00906001 0.0610906 0.998091 0.0101555
37.9438 50.5003 359.975 0.0122909 0.0421676 0.999035 0.0100104
37.3956 52.2145 359.945 0.0160036 0.0257971 0.999539 0.00913971
36.8268 53.9223 359.942 0.0161944 0.00950798 0.999824 0.00947634
36.1136 55.5745 359.982 0.00970746 -0.00769533 0.999923 0.00794326
35.556 57.286 359.982 0.0101515 -0.0184092 0.999779 0.00605426
35.1449 59.0384 359.979 0.0170894 -0.0281766 0.999457 0.00782406
34.8532 60.8104 359.858 0.0308518 -0.0374394 0.998823 0.00877409
33.8722 62.2786 360.208 0.0239043 -0.0579845 0.998031 0.0109051
33.7127 64.069 360.113 0.0508235 -0.0693757 0.996295 0.0148037
32.5768 65.3842 360.582 0.0504441 -0.100278 0.99368 0.0162951
32.3677 67.1719 360.557 0.0793302 -0.116672 0.989997 0.0154654
31.4328 68.6505 360.98 0.0777192 -0.146135 0.986207 0.0191511
30.0282 69.6869 361.42 0.0482476 -0.176562 0.983106 0.01
28.4146 68.9254 361.182 -0.00384728 -0.184148 0.982891 0.0246383
26.8824 67.9927 361.034 -0.0401455 -0.181713 0.982532 0.00932496
25.4552 66.9381 360.732 -0.0357521 -0.173989 0.984098 0.00890323
24.1616 65.6865 360.728 -0.0176377 -0.159599 0.987024 0.0162037
22.5811 64.8842 360.415 0.0129563 -0.143969 0.989497 0.0211921
21.1049 63.8698 360.237 0.0492878 -0.123668 0.991099 0.0242004
19.7389 62.699 360.296 0.0886471 -0.101485 0.99088 0.0240335
18.1523 61.8547 360.394 0.123492 -0.0802524 0.989095 0.0195657
16.5981 60.9539 360.51 0.146265 -0.0611435 0.987354 0.0151638
15.0052 60.1201 360.595 0.166135 -0.0464383 0.985009 0.0125446
13.6293 59.0293 360.991 0.182419 -0.0351335 0.982593 0.00940526
12.2372 57.9124 361.225 0.194696 -0.0289059 0.980438 0.00567243
10.9444 56.6722 361.4 0.199651 -0.0246481 0.979557 0.00442292
9.45923 55.7183 361.753 0.205759 -0.0177606 0.978442 0.00731733
8.10511 54.551 361.961 0.216453 -0.00473882 0.976282 0.011317
6.87276 53.2816 362.293 0.23238 0.0124244 0.972546 0.0149641
5.45899 52.2475 362.708 0.254697 0.0316314 0.966503 0.0187184
4.04881 51.1746 363.024 0.282981 0.0542893 0.957588 0.0246526
2.94659 49.818 363.454 0.326086 0.0771718 0.942185 0.0287086
1.98236 48.4289 364.071 0.368924 0.100372 0.924024 0.0311188
0.712062 47.3032 364.671 0.418346 0.122955 0.899927 0.0308871
-0.0603635 45.8226 365.342 0.457326 0.145209 0.877364 0.030844
-1.30722 44.8069 366.151 0.505754 0.161594 0.847408 0.0318896
-2.45918 43.7506 367.044 0.55037 0.173807 0.81663 0.024933
-3.55005 42.7483 368.066 0.574518 0.188453 0.796502 0.0157706
-4.71096 41.8496 369.107 0.585873 0.204019 0.784301 0.0119684
-5.3946 40.5719 370.175 0.596813 0.215756 0.772828 0.0102139
-6.74141 39.9292 371.182 0.603152 0.227868 0.764384 0.00855292
-7.57192 38.7505 372.259 0.610169 0.236888 0.756028 0.00700558
-8.67005 37.9456 373.437 0.614428 0.244926 0.749993 0.00531214
-9.60701 36.8889 374.553 0.617805 0.250669 0.745307 0.01
-9.61056 35.118 374.875 0.621011 0.251991 0.74219 0.00244924
-9.61206 33.4958 375.655 0.623679 0.25343 0.739457 0.00216401
-9.49248 31.7944 376.23 0.62621 0.254451 0.736964 0.00201227
-9.0265 30.0685 376.441 0.628828 0.25473 0.734635 0.00188406
-8.48845 28.36 376.618 0.631177 0.255287 0.732424 0.00169654
-8.26636 26.6062 376.957 0.632768 0.256826 0.73051 0.00153817
-8.163 24.8821 377.464 0.63361 0.258919 0.72904 0.00215127
-8.11904 23.1577 377.978 0.633856 0.263698 0.727111 0.00351012
-8.04831 21.4371 378.502 0.633572 0.270802 0.724744 0.00425354
-7.7285 19.7283 378.969 0.632995 0.278214 0.722436 0.00440365
-7.81165 18.0539 379.624 0.631681 0.285859 0.7206 0.00450775
-7.81179 16.3763 380.277 0.63002 0.29376 0.718874 0.00465157
-7.81159 14.7087 380.954 0.627958 0.301853 0.717324 0.00485619
-7.36192 13.0407 381.46 0.62655 0.310276 0.714957 0.0045836
-7.79492 11.5771 382.414 0.622819 0.316709 0.715396 0.00369702
-7.81146 9.92738 383.134 0.620106 0.321753 0.715502 0.00316099
-7.81079 8.26149 383.815 0.617611 0.326825 0.715361 0.00310322
-7.75549 6.58615 384.471 0.61548 0.331899 0.714861 0.00302429
-7.52133 4.9731 385.235 0.613823 0.336912 0.713941 0.00300773
-7.5134 3.31623 385.938 0.611734 0.34192 0.713353 0.00323369
-7.77641 1.79831 386.869 0.608009 0.34692 0.714123 0.00321876
-7.67681 0.216378 387.722 0.605903 0.351859 0.713496 0.00332654
-7.91229 -1.34382 388.589 0.60136 0.356789 0.71489 0.00382951
-7.60139 -3.01618 389.177 0.598257 0.363048 0.714343 0.00435863
-7.2047 -4.68933 389.709 0.594392 0.37078 0.713597 0.00571585
-7.35681 -6.25959 390.576 0.584892 0.377866 0.717718 0.00723288
-7.11805 -7.8582 391.368 0.575441 0.387001 0.720485 0.00752352
-6.49292 -9.47753 391.845 0.568843 0.399321 0.719 0.00797705
-6.59712 -11.0538 392.708 0.552385 0.393243 0.735004 0.0118609
-6.35312 -12.6754 393.45 0.539057 0.388548 0.747294 0.00955209
-5.95572 -14.2894 394.14 0.526916 0.386389 0.757009 0.00953208
-5.72858 -15.9656 394.756 0.511977 0.384859 0.76796 0.01
-4.34602 -16.1989 393.627 0.534575 0.400454 0.744222 0.0159015
-2.81795 -16.0109 392.694 0.533715 0.423142 0.732188 0.016906
-1.3198 -16.3286 391.749 0.502367 0.450961 0.737741 0.0232171
0.269856 -16.6344 390.962 0.470003 0.475879 0.743395 0.0211977
1.79068 -16.6126 389.999 0.44216 0.49619 0.747188 0.0227816
3.32202 -17.3753 389.439 0.403591 0.518322 0.753961 0.0252292
5.02543 -17.7313 388.979 0.363945 0.539208 0.759473 0.0244819
6.7132 -17.884 388.372 0.32542 0.557328 0.763863 0.0251651
8.3787 -18.5441 388.198 0.283168 0.575883 0.766926 0.0226838
10.1063 -18.9414 387.886 0.250947 0.589911 0.767484 0.0181652
11.8136 -19.4968 387.757 0.223253 0.601711 0.766878 0.0161421
13.4299 -20.2582 387.976 0.197708 0.612146 0.76563 0.0147647
15.1661 -20.7312 387.93 0.173703 0.6199 0.765214 0.0129523
16.8892 -21.2476 387.993 0.153348 0.626368 0.764295 0.0117593
18.6391 -21.6685 388.021 0.133912 0.633873 0.761756 0.012597
20.3186 -22.3161 388.012 0.11233 0.643936 0.756788 0.014302
22.0883 -22.6381 388.077 0.0892504 0.655864 0.749584 0.0170971
23.8351 -22.9566 388.373 0.0598521 0.670664 0.739343 0.0210507
25.5886 -23.348 388.482 0.0214248 0.683101 0.73001 0.0221683
27.2686 -23.8147 388.929 -0.0140884 0.692966 0.720832 0.0198245
29.0104 -24.0498 389.317 -0.0466774 0.69751 0.715053 0.0168081
30.708 -24.4117 389.794 -0.073601 0.698513 0.711803 0.000868472
32.4832 -24.4678 390.086 -0.0497702 0.697195 0.715151 0.017186
34.2494 -24.5887 390.412 -0.0133103 0.69058 0.723134 0.0214169
