# .PCD v0.7 - Point Cloud Data file format
# 4 166 0
# 1 40 0
# 41 60 0
# 61 132 0
# 133 166 0
VERSION 0.7
FIELDS x y z normal_x normal_y normal_z curvature
SIZE 4 4 4 4 4 4 4
TYPE F F F F F F F
COUNT 1 1 1 1 1 1 1
WIDTH 166
HEIGHT 1
VIEWPOINT 0 0 0 1 0 0 0
POINTS 166
DATA ascii
-28.4924 88.1949 360.419 0.301057 -0.795568 -0.525772 0.01
-27.05 87.9861 361.475 0.305493 -0.795306 -0.523605 0.0033266
-25.9476 87.641 362.856 0.298631 -0.789753 -0.535826 0.0116344
-24.7133 87.3524 364.134 0.282416 -0.781866 -0.555812 0.0181164
-23.512 86.75 365.331 0.25742 -0.771059 -0.582411 0.0236743
-22.1551 86.501 366.488 0.22427 -0.757907 -0.612601 0.022653
-20.9015 85.824 367.588 0.205835 -0.742249 -0.637729 0.0172132
-19.7248 85.0518 368.71 0.193406 -0.728305 -0.657393 0.0140364
-18.7239 84.1136 369.875 0.181067 -0.716717 -0.673447 0.0122148
-17.5045 83.3724 370.972 0.171593 -0.705407 -0.687718 0.0110781
-16.4594 82.4759 372.131 0.160541 -0.695634 -0.700229 0.0120086
-15.2325 81.6552 373.162 0.14325 -0.685732 -0.713618 0.0145642
-14.3678 80.7305 374.441 0.119 -0.677548 -0.725788 0.0174629
-12.8923 80.0343 375.202 0.0919156 -0.665936 -0.740325 0.0185984
-11.8668 78.957 376.215 0.0632736 -0.655139 -0.752854 0.0200588
-10.4664 78.2664 377.111 0.0317274 -0.639533 -0.768109 0.023296
-9.47126 77.095 378.048 0.000268268 -0.615251 -0.788331 0.0245142
-8.53061 75.8734 378.977 -0.0290295 -0.589125 -0.807521 0.0235258
-7.73805 74.4995 379.828 -0.0557233 -0.563223 -0.824424 0.0218487
-7.20916 73.0113 380.691 -0.0807812 -0.538995 -0.838426 0.0209979
-6.42827 71.6217 381.527 -0.105614 -0.513632 -0.851485 0.0192878
-6.30198 70.0505 382.396 -0.127072 -0.493908 -0.860179 0.0181046
-5.58969 68.5873 383.166 -0.149735 -0.470559 -0.869571 0.0176729
-5.17831 67.0201 383.95 -0.170019 -0.450271 -0.876556 0.0150242
-5.00748 65.3873 384.688 -0.187548 -0.433884 -0.881232 0.0115026
-5.30533 63.7852 385.452 -0.20002 -0.423175 -0.883694 0.0105262
-5.01026 62.1482 386.14 -0.214243 -0.40845 -0.887281 0.0110687
-4.56258 60.517 386.755 -0.226551 -0.394322 -0.890609 0.009658
-4.07613 58.9167 387.421 -0.23587 -0.381969 -0.893569 0.00742761
-4.18235 57.2732 388.147 -0.240267 -0.372549 -0.89637 0.00560762
-4.43471 55.6428 388.867 -0.24204 -0.36371 -0.899517 0.00502761
-3.69533 54.073 389.346 -0.24229 -0.356392 -0.902375 0.00378172
-3.79718 52.3944 389.987 -0.239088 -0.352025 -0.90494 0.00263712
-3.68167 50.7361 390.678 -0.236355 -0.350181 -0.906372 0.00174343
-3.73679 49.0396 391.277 -0.235158 -0.347905 -0.907559 0.00142203
-3.91549 47.6547 391.828 -0.235689 -0.345908 -0.908184 0.00150151
-3.90224 45.9656 392.45 -0.236869 -0.343437 -0.908815 0.00182153
-3.26073 44.3634 392.961 -0.237433 -0.33996 -0.909974 0.00243639
-3.1718 42.6726 393.572 -0.241649 -0.33635 -0.910206 0.00343319
-3.47099 41.0244 394.231 -0.248069 -0.333837 -0.909403 0.00396872
-3.92006 39.4 394.863 -0.255143 -0.332233 -0.908033 0.00490966
-3.38733 37.7901 395.467 -0.262221 -0.324427 -0.908838 0.00539677
-3.08018 36.0887 395.968 -0.268274 -0.318043 -0.909328 0.00406617
-3.19667 34.3632 396.467 -0.271389 -0.313215 -0.910079 0.00268539
-3.88811 32.8425 397.137 -0.269943 -0.309044 -0.911933 0.00310322
-4.0565 31.1882 397.826 -0.268273 -0.303491 -0.914288 0.00318146
-3.59118 29.5201 398.317 -0.26687 -0.299071 -0.916153 0.00357338
-3.66853 27.799 398.839 -0.261462 -0.294017 -0.919343 0.00475594
-3.55343 26.0997 399.421 -0.254245 -0.289624 -0.922755 0.00575457
-3.78631 24.3818 399.905 -0.245295 -0.283771 -0.926987 0.00587171
-4.51833 22.8309 400.452 -0.240026 -0.27644 -0.930574 0.00487457
-4.52594 21.1019 400.952 -0.234893 -0.271657 -0.933289 0.00402252
-4.30434 19.4125 401.533 -0.230306 -0.267087 -0.935748 0.00358149
-4.28801 17.6912 402.059 -0.228083 -0.261714 -0.937808 0.00327328
-4.38859 15.9391 402.459 -0.228088 -0.256105 -0.939354 0.0032625
-4.9584 14.3267 403.021 -0.23251 -0.251119 -0.939616 0.00358007
-5.1535 12.6069 403.515 -0.236078 -0.246116 -0.94005 0.0034426
-4.57455 10.9903 404.055 -0.237866 -0.240372 -0.941085 0.00305926
-5.26908 9.39752 404.525 -0.243025 -0.238515 -0.940239 0.00239643
-5.86774 7.75462 404.952 -0.24451 -0.234885 -0.940768 0.00231636
-5.61996 6.03614 405.426 -0.243383 -0.23064 -0.942109 0.00265746
-5.45416 4.27614 405.765 -0.241114 -0.22645 -0.943708 0.00388147
-5.84361 2.55449 406.118 -0.234719 -0.22089 -0.946633 0.00577544
-6.05839 0.865326 406.702 -0.225437 -0.214619 -0.950324 0.00829627
-6.499 -0.778876 407.287 -0.210443 -0.206121 -0.95563 0.0152114
-7.49327 -2.21844 407.71 -0.187167 -0.179833 -0.965727 0.0230047
-8.43095 -3.72222 408.025 -0.158257 -0.145426 -0.97663 0.025801
-9.18568 -5.31695 408.382 -0.125491 -0.113498 -0.985581 0.0248727
-9.74273 -7.01509 408.596 -0.0940893 -0.0852317 -0.991909 0.0214241
-10.0642 -8.78125 408.728 -0.0702685 -0.0609007 -0.995667 0.0202545
-10.5785 -10.5029 408.835 -0.0381853 -0.0390607 -0.998507 0.0192668
-11.0168 -12.2487 408.843 -0.0143483 -0.020138 -0.999694 0.0147698
-11.7381 -13.8968 408.902 0.000989228 -0.00342071 -0.999994 0.0122298
-12.3459 -15.5908 408.87 0.0160005 0.0117035 -0.999803 0.0135209
-13.3161 -17.1042 408.961 0.0390147 0.0264019 -0.99889 0.01
-14.9912 -16.4547 408.851 0.0604828 0.0327676 -0.997631 0.0152016
-16.7529 -16.7411 408.618 0.085802 0.0505516 -0.995029 0.0173252
-18.5409 -16.7202 408.412 0.11153 0.067656 -0.991455 0.0160234
-20.3142 -16.4758 408.223 0.135631 0.0784278 -0.98765 0.0148424
-22.088 -16.4048 407.925 0.160758 0.0864798 -0.983198 0.0144059
-23.8681 -16.284 407.687 0.185424 0.0896717 -0.978559 0.0109198
-25.5753 -16.7015 407.298 0.198266 0.0931577 -0.975711 0.00651869
-27.322 -16.4128 406.973 0.207885 0.0913662 -0.973877 0.00560822
-28.855 -17.3032 406.662 0.216322 0.0974283 -0.971449 0.0057078
-30.6067 -17.42 406.264 0.225887 0.0987405 -0.969136 0.0120626
-32.3105 -17.5076 405.69 0.258091 0.102027 -0.960718 0.0230368
-34.0136 -17.0669 405.309 0.304372 0.105536 -0.946689 0.0286029
-35.6767 -17.3447 404.679 0.352002 0.118442 -0.928475 0.0287587
-37.2839 -17.3642 403.869 0.396213 0.132758 -0.90851 0.0214676
-38.9015 -17.2254 403.092 0.416546 0.146959 -0.897158 0.00618995
-40.5545 -16.8314 402.498 0.407568 0.150178 -0.900741 0.00434995
-42.1698 -17.185 401.787 0.402735 0.150212 -0.902907 0.00441181
-43.8431 -17.4907 401.198 0.39805 0.139002 -0.906771 0.0105454
-45.4297 -17.8444 400.425 0.388411 0.116935 -0.914037 0.0177267
-47.0013 -18.3838 399.733 0.361588 0.0912026 -0.927867 0.01
-48.2927 -17.244 399.21 0.35625 0.0662432 -0.93204 0.01447
-49.6671 -16.0949 399.036 0.345405 0.0429068 -0.937473 0.00940204
-50.1449 -14.3774 398.788 0.359749 0.0341026 -0.932426 0.00806863
-51.2027 -12.9341 398.592 0.356214 0.0166468 -0.934256 0.00776913
-51.7229 -11.2356 398.302 0.365771 0.00725052 -0.930677 0.00631641
-52.4625 -9.61466 398.045 0.360356 -0.00561502 -0.932798 0.00611506
-52.9337 -7.90173 397.756 0.363892 -0.0146044 -0.931327 0.0073105
-53.7917 -6.34228 397.488 0.350345 -0.0295276 -0.936155 0.00806608
-54.2953 -4.63794 397.202 0.352105 -0.040694 -0.935075 0.010357
-54.1188 -2.85783 397.002 0.380243 -0.0465713 -0.923713 0.00867502
-55.2559 -1.51495 396.623 0.352995 -0.069395 -0.933048 0.0126412
-55.6909 0.204149 396.314 0.356498 -0.0834233 -0.930564 0.0080127
-56.1823 1.9016 395.972 0.357559 -0.0975502 -0.928782 0.00771651
-56.6152 3.60321 395.575 0.360181 -0.110619 -0.926301 0.00844756
-56.5893 5.36725 395.218 0.377241 -0.11799 -0.918568 0.00725383
-57.3773 6.93396 394.813 0.368932 -0.133557 -0.919811 0.00759707
-57.7914 8.64311 394.429 0.373663 -0.144827 -0.916188 0.00872179
-57.9032 10.388 394.001 0.386335 -0.157142 -0.908874 0.011767
-57.758 12.1535 393.682 0.405182 -0.166963 -0.898861 0.00981324
-58.387 13.7593 393.166 0.403479 -0.184182 -0.89626 0.00899103
-58.6839 15.471 392.695 0.410017 -0.197668 -0.890401 0.00875121
-58.9098 17.1952 392.23 0.417241 -0.209838 -0.884239 0.00820133
-59.16 18.9195 391.778 0.422983 -0.221453 -0.87866 0.00758121
-59.3183 20.6449 391.291 0.428738 -0.231951 -0.873145 0.00753521
-59.1528 22.3546 390.753 0.437867 -0.24032 -0.866325 0.00837541
-58.8563 24.0795 390.332 0.448328 -0.249411 -0.858368 0.00694425
-59.3614 25.7067 389.752 0.442357 -0.262568 -0.857542 0.00707855
-59.2992 27.4258 389.222 0.444622 -0.273677 -0.852885 0.00671692
-59.7121 29.098 388.699 0.437313 -0.285511 -0.852784 0.00672929
-59.288 30.751 388.127 0.441426 -0.296258 -0.846979 0.00673216
-59.2522 32.4545 387.546 0.437485 -0.308224 -0.844751 0.00714471
-58.9589 34.1286 386.953 0.436162 -0.320601 -0.840819 0.00770198
-59.0844 35.8327 386.387 0.426345 -0.333125 -0.840986 0.00902678
-59.2353 37.5407 385.84 0.414561 -0.344838 -0.842155 0.00782513
-58.8191 39.1695 385.197 0.410452 -0.355889 -0.839567 0.00717177
-58.2266 40.7516 384.575 0.408643 -0.368847 -0.834843 0.00836388
-58.0496 42.4301 383.95 0.396434 -0.381877 -0.834872 0.0109308
-57.9899 44.112 383.311 0.379346 -0.395021 -0.836693 0.0111129
-57.528 45.6968 382.594 0.369374 -0.410935 -0.833484 0.0117935
-57.3636 47.3578 381.92 0.350773 -0.426083 -0.833913 0.0133121
-57.0917 48.9991 381.233 0.33336 -0.442503 -0.832503 0.0121676
-56.4007 50.4969 380.512 0.328759 -0.462127 -0.823624 0.0100196
-55.9839 52.1074 379.825 0.317661 -0.473016 -0.821795 0.00869455
-55.6826 53.7618 379.183 0.304897 -0.482213 -0.821285 0.00791093
-55.2937 55.3739 378.483 0.296062 -0.491359 -0.819093 0.00621762
-54.605 56.8512 377.719 0.301243 -0.501616 -0.810946 0.0066607
-54.0994 58.4137 376.982 0.29962 -0.510904 -0.805732 0.0071758
-53.3942 59.8786 376.21 0.308359 -0.521208 -0.795774 0.0135168
-52.4749 61.2619 375.516 0.33288 -0.532841 -0.777992 0.0120019
-51.923 62.7865 374.734 0.333801 -0.544047 -0.769799 0.0108375
-51.1602 64.2228 373.963 0.349116 -0.557843 -0.752947 0.00903507
-50.8293 65.8218 373.205 0.329907 -0.570666 -0.751999 0.0108455
-49.8486 67.1213 372.438 0.329181 -0.587493 -0.739251 0.0103199
-49.4242 68.6956 371.675 0.313805 -0.599521 -0.736275 0.00926753
-48.5582 70.0354 370.841 0.314329 -0.613175 -0.724716 0.0099926
-47.6805 71.3701 370.012 0.316412 -0.626342 -0.712446 0.0100711
-46.8257 72.7327 369.204 0.317777 -0.639504 -0.700037 0.010717
-45.8634 74.004 368.369 0.32077 -0.653582 -0.685519 0.0118001
-44.8826 75.2937 367.584 0.322115 -0.669029 -0.669807 0.00721971
-43.9501 76.6131 366.791 0.318467 -0.672608 -0.667965 0.00350757
-42.9903 77.9033 365.982 0.3133 -0.677143 -0.665823 0.00507646
-42.1459 79.2619 365.157 0.302424 -0.681237 -0.666675 0.00476503
-41.0652 80.4379 364.327 0.299693 -0.686821 -0.662164 0.00418744
-40.0779 81.6928 363.496 0.295443 -0.691957 -0.658717 0.00481519
-38.9147 82.7911 362.671 0.294399 -0.699287 -0.651404 0.00611789
-37.8624 83.9867 361.832 0.287614 -0.707629 -0.645398 0.00822549
-36.7365 85.092 360.966 0.27726 -0.718929 -0.637392 0.013044
-35.0928 85.767 360.678 0.276065 -0.739012 -0.614532 0.0171514
-33.448 86.4944 360.604 0.272674 -0.75921 -0.590973 0.0164945
-31.8678 87.3563 360.598 0.274764 -0.775798 -0.568016 0.0152154
-30.2909 88.2172 360.487 0.281935 -0.788957 -0.545949 0.015374
