# .PCD v0.7 - Point Cloud Data file format
# 3 161 0
# 1 53 0
# 54 106 0
# 107 161 0
VERSION 0.7
FIELDS x y z normal_x normal_y normal_z curvature
SIZE 4 4 4 4 4 4 4
TYPE F F F F F F F
COUNT 1 1 1 1 1 1 1
WIDTH 161
HEIGHT 1
VIEWPOINT 0 0 0 1 0 0 0
POINTS 161
DATA ascii
44.101299 16.929399 446.02701 -0.248533 0.18788201 0.95022702 1.905766e-42
43.9412 18.6803 445.64099 -0.246746 0.20691 0.94673401 1.905766e-42
43.9552 20.4259 445.202 -0.241386 0.227926 0.94328302 1.905766e-42
43.9552 22.157801 444.71201 -0.233659 0.24956401 0.93974501 1.905766e-42
43.693298 23.8939 444.315 -0.228102 0.267957 0.93603897 1.905766e-42
43.422901 25.5896 443.77499 -0.22991601 0.279551 0.93219602 1.905766e-42
43.3755 27.287901 443.181 -0.23156101 0.28949499 0.92874801 1.905766e-42
43.202202 28.986401 442.61099 -0.233109 0.298623 0.92546499 1.905766e-42
43.203499 30.665001 441.961 -0.23321199 0.30774099 0.92244703 1.905766e-42
43.100201 32.3479 441.33099 -0.235715 0.321376 0.91714501 1.905766e-42
42.617599 33.9711 440.72 -0.24243701 0.338792 0.90908998 1.905766e-42
42.551498 35.627602 440.01901 -0.24379399 0.35721099 0.901645 1.905766e-42
42.351002 37.264702 439.298 -0.24498799 0.37547001 0.89387 1.905766e-42
41.957802 38.876801 438.60101 -0.24729501 0.392387 0.88593298 1.905766e-42
42.043999 40.463699 437.75601 -0.246849 0.408021 0.878968 1.905766e-42
41.9482 42.045799 436.90302 -0.25846499 0.416325 0.871705 1.905766e-42
41.478802 43.623299 436.17401 -0.266303 0.426705 0.86429501 1.905766e-42
41.4235 45.177399 435.267 -0.274001 0.43841001 0.85599101 1.905766e-42
41.0625 46.7234 434.41901 -0.27880201 0.45270699 0.84695101 1.905766e-42
40.7416 48.2514 433.52301 -0.28205499 0.46786201 0.83758599 1.905766e-42
40.5919 49.757801 432.54999 -0.28415501 0.48351699 0.82792997 1.905766e-42
40.519798 51.2309 431.51801 -0.28531301 0.49934599 0.81807703 1.905766e-42
40.236301 52.690899 430.504 -0.285907 0.51479298 0.808236 1.905766e-42
39.795502 54.122501 429.50601 -0.28648499 0.529459 0.79849797 1.905766e-42
39.346298 55.534199 428.483 -0.28764901 0.54415202 0.78813499 1.905766e-42
39.169399 56.946098 427.38101 -0.28866899 0.558285 0.77780998 1.905766e-42
38.930801 58.323101 426.246 -0.28960499 0.57163602 0.76769799 1.905766e-42
38.361301 59.644199 425.16501 -0.29096401 0.58372998 0.75802302 1.905766e-42
38.148602 60.986801 423.98499 -0.291437 0.59590399 0.74830699 1.905766e-42
37.7631 62.289902 422.80399 -0.29206401 0.60728699 0.73885101 1.905766e-42
37.512299 63.571999 421.56601 -0.29190901 0.61881697 0.72928399 1.905766e-42
37.433899 64.781799 420.23599 -0.29061601 0.63278699 0.71772099 1.905766e-42
36.659199 65.954102 419.11099 -0.29234201 0.64418203 0.70679998 1.905766e-42
36.4142 67.126503 417.767 -0.28997499 0.65822101 0.69473797 1.905766e-42
36.1185 68.352798 416.483 -0.28679201 0.67230701 0.68246198 1.905766e-42
35.534901 69.543098 415.26501 -0.28587601 0.68430901 0.67081702 1.905766e-42
35.3577 70.694397 413.89301 -0.28071001 0.69845998 0.658297 1.905766e-42
34.772598 71.797699 412.59698 -0.28026199 0.70930099 0.646797 1.905766e-42
34.614498 72.866699 411.15701 -0.27575099 0.72291601 0.63352501 1.905766e-42
34.338001 73.919502 409.724 -0.274198 0.73478198 0.62041199 1.905766e-42
34.0098 74.961304 408.293 -0.274993 0.74535799 0.60730499 1.905766e-42
33.6875 75.943901 406.82001 -0.27758899 0.75500798 0.59406 1.905766e-42
33.164001 76.941399 405.41599 -0.28442401 0.76299602 0.58046597 1.905766e-42
32.707298 77.8955 403.95901 -0.291614 0.770796 0.56642199 1.905766e-42
32.361301 78.817703 402.453 -0.298309 0.77858198 0.55210698 1.905766e-42
31.9886 79.708397 400.93399 -0.30529699 0.78397799 0.54052901 1.905766e-42
31.502899 80.588203 399.44 -0.314394 0.78857499 0.528494 1.905766e-42
31.031601 81.424698 397.918 -0.32418001 0.79353601 0.51498401 1.905766e-42
30.4979 82.244102 396.40601 -0.33460599 0.79886401 0.49985501 1.905766e-42
30.159 83.005203 394.811 -0.34362099 0.80500001 0.483632 1.905766e-42
29.759899 83.726898 393.211 -0.35227701 0.81176299 0.46577001 1.905766e-42
29.282101 84.457703 391.63699 -0.35935801 0.81920701 0.446946 1.905766e-42
28.693199 85.147301 390.082 -0.36426201 0.82590097 0.43034899 1.905766e-42
28.3736 85.788399 388.431 -0.368058 0.83217901 0.41474199 1.905766e-42
28.0882 86.352798 386.745 -0.370965 0.838081 0.40000701 1.905766e-42
27.4193 86.933403 385.17801 -0.37054899 0.84456098 0.38653499 1.905766e-42
27.6056 86.884804 385.19199 -0.371517 0.84397298 0.38689199 1.905766e-42
26.9685 87.422401 383.59698 -0.369499 0.85049599 0.37433499 1.905766e-42
26.2799 87.933197 382.01401 -0.36545801 0.85710102 0.36306801 1.905766e-42
25.7321 88.448402 380.379 -0.36151001 0.86321402 0.35238001 1.905766e-42
24.1653 88.023003 379.60101 -0.351448 0.86834902 0.34993401 1.905766e-42
22.507401 87.380898 379.32001 -0.36324301 0.86535001 0.345287 1.905766e-42
20.812901 86.781799 379.22101 -0.4183 0.84421498 0.33515 1.905766e-42
19.2013 85.996101 379.06201 -0.46531501 0.82167703 0.32913399 1.905766e-42
17.6756 85.0439 379.13599 -0.505723 0.79692602 0.330383 1.905766e-42
16.1786 84.049103 379.03799 -0.54117101 0.77091098 0.33590099 1.905766e-42
14.6698 83.1269 378.702 -0.57319599 0.74565601 0.33976901 1.905766e-42
13.2843 81.981598 378.608 -0.60579598 0.71882498 0.34102899 1.905766e-42
11.7049 81.152199 378.36801 -0.63685203 0.69379801 0.33624899 1.905766e-42
10.5546 79.816101 378.005 -0.66710103 0.66899902 0.327746 1.905766e-42
9.34062 78.490303 378.09698 -0.67684299 0.65983999 0.32633299 1.905766e-42
8.00105 77.376801 377.64401 -0.674703 0.66258502 0.32520401 1.905766e-42
6.7484002 76.090202 377.51999 -0.67214799 0.664213 0.327167 1.905766e-42
5.4245701 74.995102 376.983 -0.66993898 0.667072 0.32587799 1.905766e-42
4.0547199 73.841904 376.79901 -0.66918802 0.66735601 0.326837 1.905766e-42
2.7388 72.734703 376.26801 -0.683532 0.65524602 0.32161599 1.905766e-42
1.49305 71.452499 376.05801 -0.69797999 0.63985598 0.32157299 1.905766e-42
0.27665401 70.2519 375.49301 -0.71220398 0.62397897 0.32158199 1.905766e-42
-1.01652 69.073898 375.069 -0.72671098 0.60537899 0.324664 1.905766e-42
-2.16309 67.953102 374.25101 -0.75079501 0.57631701 0.32274601 1.905766e-42
-3.2427399 66.763702 373.439 -0.77942199 0.53979498 0.31799901 1.905766e-42
-4.4352498 65.460701 373.09201 -0.80827999 0.498458 0.31340501 1.905766e-42
-5.4419999 64.055603 372.59 -0.83492398 0.45709401 0.30654001 1.905766e-42
-6.2780099 62.8321 371.56799 -0.85568899 0.42344901 0.29746801 1.905766e-42
-7.27877 61.339298 371.46701 -0.871589 0.39162499 0.29489201 1.905766e-42
-8.1249599 59.889599 370.81799 -0.88782698 0.35820901 0.28887701 1.905766e-42
-8.74053 58.468399 369.89999 -0.90393102 0.323237 0.28004599 1.905766e-42
-9.3296204 56.816898 369.49301 -0.919411 0.28518799 0.27083299 1.905766e-42
-10.2032 55.267101 369.21899 -0.91726601 0.28499401 0.27821001 1.905766e-42
-10.8759 53.712601 368.60999 -0.915411 0.28846201 0.280736 1.905766e-42
-11.279 51.966801 368.43799 -0.91421002 0.29272401 0.28023601 1.905766e-42
-12.0481 50.34 368.392 -0.91386402 0.29892299 0.27476999 1.905766e-42
-11.7773 49.638401 370.02701 -0.90791202 0.305051 0.28747299 1.905766e-42
-11.4513 49.020199 371.686 -0.903153 0.309138 0.29790699 1.905766e-42
-10.9891 48.466099 373.33499 -0.89874703 0.311766 0.30831099 1.905766e-42
-10.5668 48.2043 375.065 -0.89528298 0.310545 0.31942099 1.905766e-42
-10.0391 47.845299 376.74799 -0.89263302 0.30795199 0.32919899 1.905766e-42
-9.5629902 47.002998 378.26599 -0.88863599 0.31070799 0.337322 1.905766e-42
-9.1736498 46.814899 380.013 -0.88900799 0.30410799 0.34232101 1.905766e-42
-8.8915501 45.7617 381.44501 -0.88421798 0.30998901 0.34937701 1.905766e-42
-8.5248098 44.9562 383.013 -0.88129801 0.31154701 0.35532001 1.905766e-42
-8.3397703 43.7719 384.35599 -0.87538499 0.32001799 0.36233801 1.905766e-42
-7.9829798 43.021 385.952 -0.87260997 0.32120201 0.36794099 1.905766e-42
-7.7902002 42.0158 387.43301 -0.86735702 0.319969 0.38119701 1.905766e-42
-7.49191 41.119598 388.965 -0.86332202 0.31575099 0.39366901 1.905766e-42
-7.12291 40.241501 390.492 -0.85981101 0.31040201 0.405433 1.905766e-42
-6.8589902 39.113201 391.87 -0.85510302 0.30721599 0.41763201 1.905766e-42
-6.6234999 37.9198 393.19699 -0.85039699 0.30371201 0.42963099 1.905766e-42
-6.2249899 36.971699 394.67401 -0.847462 0.29669899 0.440202 1.905766e-42
-6.0447502 35.724499 395.95901 -0.84288299 0.29232299 0.45177001 1.905766e-42
-5.9808102 34.295799 397.052 -0.83710802 0.28936499 0.46424001 1.905766e-42
-5.7098098 32.9566 398.224 -0.83202201 0.28438699 0.476302 1.905766e-42
-5.3299799 31.727699 399.483 -0.82756698 0.27785099 0.48778301 1.905766e-42
-5.0063801 30.361 400.60901 -0.82197797 0.27291101 0.49987099 1.905766e-42
-4.6841798 29.0888 401.841 -0.81666201 0.267037 0.51161999 1.905766e-42
-4.4517498 27.6217 402.858 -0.80932099 0.264404 0.52449 1.905766e-42
-4.2116699 26.1894 403.92099 -0.80157101 0.26199001 0.53744298 1.905766e-42
-3.898 24.8571 405.09 -0.794631 0.25888199 0.549128 1.905766e-42
-3.5169499 23.5872 406.30801 -0.78924102 0.25293499 0.55957299 1.905766e-42
-3.12624 22.266199 407.466 -0.78437901 0.244491 0.57006401 1.905766e-42
-2.493 21.1464 408.72501 -0.784096 0.22925401 0.576747 1.905766e-42
-2.2760201 19.6222 409.65799 -0.77873498 0.21577799 0.58907801 1.905766e-42
-1.84776 18.196899 410.67001 -0.77744102 0.19369701 0.598387 1.905766e-42
-1.35621 16.895399 411.81201 -0.78030699 0.164178 0.60346299 1.905766e-42
-0.64941102 15.6422 412.89401 -0.78840798 0.131928 0.60083997 1.905766e-42
-0.216555 14.0985 413.71201 -0.79622501 0.104743 0.595864 1.905766e-42
0.38561901 12.8871 414.89999 -0.80822301 0.082995199 0.58299798 1.905766e-42
1.05225 11.7045 416.082 -0.81788802 0.064541198 0.57174599 1.905766e-42
1.9172699 10.754 417.34201 -0.82527798 0.0528422 0.562249 1.905766e-42
2.7671599 9.7780104 418.59299 -0.82920802 0.045382701 0.55709499 1.905766e-42
3.5520899 8.82693 419.90399 -0.829615 0.041924302 0.55676001 1.905766e-42
4.5485101 7.8477302 421.039 -0.82492799 0.037989099 0.56396002 1.905766e-42
5.3614898 7.5760598 422.62201 -0.81091499 0.040483799 0.58376199 1.905766e-42
6.34129 7.0272198 424.02899 -0.79358101 0.040057302 0.60714501 1.905766e-42
7.4482398 6.6518898 425.39801 -0.77162099 0.041044101 0.63475698 1.905766e-42
8.5743399 6.0762901 426.67899 -0.74780101 0.0390472 0.66277403 1.905766e-42
9.7788696 5.72721 427.97 -0.72062498 0.0384445 0.692258 1.905766e-42
11.0123 5.5097599 429.263 -0.69189799 0.0390657 0.72093803 1.905766e-42
12.2894 4.8351498 430.33701 -0.666426 0.031993899 0.74488401 1.905766e-42
13.5653 4.2368598 431.457 -0.64600903 0.0352135 0.76251698 1.905766e-42
14.8366 4.0169201 432.71201 -0.62098497 0.045881599 0.78247899 1.905766e-42
16.182699 3.3821399 433.724 -0.59889901 0.0517506 0.799151 1.905766e-42
17.6464 3.0817001 434.728 -0.57322001 0.061143499 0.81711698 1.905766e-42
19.1292 2.3543899 435.444 -0.552266 0.066134401 0.83104098 1.905766e-42
20.413099 2.5560501 436.689 -0.52628702 0.076285399 0.84687799 1.905766e-42
21.903601 2.8647799 437.64999 -0.50208998 0.085596599 0.860569 1.905766e-42
23.495199 3.0459001 438.47101 -0.495141 0.078923397 0.86522102 1.905766e-42
25.0245 3.5023301 439.30301 -0.49588901 0.066374503 0.86584598 1.905766e-42
26.453199 4.49578 439.76401 -0.499798 0.054503001 0.86442602 1.905766e-42
27.559601 5.7823801 440.36401 -0.50517201 0.044198699 0.86188602 1.905766e-42
28.429399 7.1251602 441.189 -0.502666 0.043221701 0.86339903 1.905766e-42
29.763201 8.2452202 441.64301 -0.480919 0.058327001 0.87482202 1.905766e-42
31.298401 9.0795002 442.07599 -0.45798001 0.070912398 0.88612998 1.905766e-42
32.755299 10.0049 442.58701 -0.43563899 0.083845101 0.89620799 1.905766e-42
33.603401 11.4225 443.302 -0.41903299 0.100576 0.90238303 1.905766e-42
34.8657 12.565 443.88599 -0.394126 0.119122 0.911304 1.905766e-42
36.483398 13.0983 444.46799 -0.363332 0.132644 0.92216903 1.905766e-42
37.999199 13.9426 444.94699 -0.331092 0.149781 0.93163502 1.905766e-42
39.609501 14.6746 445.28 -0.29640099 0.166382 0.94045901 1.905766e-42
41.324299 15.0719 445.65701 -0.265102 0.176173 0.94798899 1.905766e-42
43.0256 15.4869 446.073 -0.25287101 0.175493 0.951451 1.905766e-42
