# .PCD v0.7 - Point Cloud Data file format
# 3 167 0
# 1 55 0
# 56 110 0
# 111 167 0
VERSION 0.7
FIELDS x y z normal_x normal_y normal_z curvature
SIZE 4 4 4 4 4 4 4
TYPE F F F F F F F
COUNT 1 1 1 1 1 1 1
WIDTH 167
HEIGHT 1
VIEWPOINT 0 0 0 1 0 0 0
POINTS 167
DATA ascii
-47.000999 -18.383699 399.733 0.35284501 0.088555798 -0.93148202 1.905766e-42
-48.2925 -17.2442 399.20999 0.349558 0.0620859 -0.93485498 1.905766e-42
-49.667 -16.094999 399.03601 0.33945999 0.038219701 -0.93984401 1.905766e-42
-50.144901 -14.3775 398.78799 0.353964 0.0296987 -0.93478698 1.905766e-42
-51.202599 -12.9343 398.59201 0.34954 0.012589 -0.93683702 1.905766e-42
-51.7229 -11.2357 398.302 0.36152899 0.0039079301 -0.93235302 1.905766e-42
-52.462399 -9.61479 398.04501 0.358486 -0.0086293202 -0.93349499 1.905766e-42
-52.933601 -7.9018698 397.75601 0.36335099 -0.0170449 -0.93149602 1.905766e-42
-53.791698 -6.3424001 397.48801 0.35100099 -0.031493399 -0.93584502 1.905766e-42
-54.2952 -4.6380701 397.202 0.35349801 -0.041894101 -0.934497 1.905766e-42
-54.118801 -2.85795 397.00201 0.382263 -0.046769202 -0.92286903 1.905766e-42
-55.255798 -1.51503 396.62299 0.35532099 -0.069796398 -0.93213499 1.905766e-42
-55.690899 0.204071 396.314 0.358816 -0.083756797 -0.92964298 1.905766e-42
-56.182201 1.90152 395.97198 0.359548 -0.097779803 -0.92798901 1.905766e-42
-56.615101 3.6031301 395.57501 0.36157101 -0.11071 -0.92574799 1.905766e-42
-56.589298 5.3671699 395.21799 0.378102 -0.118044 -0.91820699 1.905766e-42
-57.3773 6.9338899 394.81299 0.36849001 -0.13331001 -0.92002398 1.905766e-42
-57.791401 8.6430397 394.42899 0.371912 -0.14435799 -0.91697401 1.905766e-42
-57.903198 10.3879 394.00101 0.38343701 -0.15604299 -0.91028899 1.905766e-42
-57.757999 12.1535 393.68201 0.40183499 -0.16642199 -0.90046299 1.905766e-42
-58.387001 13.7592 393.16599 0.39896399 -0.184039 -0.89830798 1.905766e-42
-58.6838 15.4709 392.69501 0.405092 -0.19808 -0.89256102 1.905766e-42
-58.909801 17.195101 392.23001 0.41236901 -0.21082699 -0.88628602 1.905766e-42
-59.159901 18.919399 391.77802 0.41854101 -0.22302499 -0.88038802 1.905766e-42
-59.318298 20.6448 391.29099 0.42519301 -0.23403899 -0.87432098 1.905766e-42
-59.152802 22.354601 390.75299 0.43569699 -0.242621 -0.866777 1.905766e-42
-58.8563 24.0795 390.332 0.44766 -0.25121701 -0.85819 1.905766e-42
-59.361401 25.706699 389.75201 0.44331101 -0.264855 -0.856345 1.905766e-42
-59.299198 27.4258 389.22198 0.44732299 -0.275823 -0.85077798 1.905766e-42
-59.712101 29.0979 388.69901 0.44212401 -0.287853 -0.84951001 1.905766e-42
-59.287998 30.750999 388.12701 0.44772401 -0.29796401 -0.84306598 1.905766e-42
-59.252201 32.454498 387.54599 0.44564199 -0.30955401 -0.83998799 1.905766e-42
-58.9589 34.128502 386.953 0.44573301 -0.32129699 -0.835518 1.905766e-42
-59.0844 35.8326 386.38699 0.43796799 -0.33344799 -0.83486301 1.905766e-42
-59.235298 37.5406 385.84 0.42833501 -0.34541699 -0.83499497 1.905766e-42
-58.819099 39.169498 385.19699 0.425174 -0.35593501 -0.83218801 1.905766e-42
-58.226601 40.751598 384.57501 0.423363 -0.368433 -0.82766002 1.905766e-42
-58.049599 42.43 383.95001 0.41200501 -0.38131601 -0.82755703 1.905766e-42
-57.989899 44.112 383.311 0.39592701 -0.39441699 -0.82926297 1.905766e-42
-57.528 45.696701 382.59399 0.38551599 -0.41026199 -0.82647598 1.905766e-42
-57.363602 47.3577 381.92001 0.36722901 -0.42546901 -0.827115 1.905766e-42
-57.091702 48.9991 381.233 0.349621 -0.44198599 -0.826083 1.905766e-42
-56.4007 50.496899 380.51199 0.343198 -0.461712 -0.81794697 1.905766e-42
-55.983898 52.107399 379.82501 0.33071801 -0.473858 -0.81614 1.905766e-42
-55.682598 53.761799 379.18301 0.31719199 -0.48267901 -0.81634003 1.905766e-42
-55.293701 55.373901 378.483 0.307372 -0.491445 -0.81486499 1.905766e-42
-54.605 56.8512 377.71899 0.310433 -0.50134701 -0.80764002 1.905766e-42
-54.0994 58.4137 376.98199 0.307257 -0.51029003 -0.80324203 1.905766e-42
-53.394199 59.878601 376.20999 0.31330499 -0.52033502 -0.79441297 1.905766e-42
-52.474998 61.261902 375.51599 0.333139 -0.53198397 -0.778467 1.905766e-42
-51.923 62.786499 374.73401 0.33088899 -0.54308897 -0.77173001 1.905766e-42
-51.160198 64.222801 373.96301 0.33994499 -0.55747801 -0.75740099 1.905766e-42
-50.8293 65.8218 373.20499 0.323457 -0.56991303 -0.755364 1.905766e-42
-49.848598 67.1213 372.43799 0.32867301 -0.586905 -0.73994303 1.905766e-42
-49.424198 68.695503 371.67499 0.31143501 -0.59906 -0.737656 1.905766e-42
-48.5583 70.035301 370.841 0.311104 -0.612755 -0.72646099 1.905766e-42
-47.6805 71.370003 370.01199 0.313135 -0.62557101 -0.71456897 1.905766e-42
-46.825802 72.732697 369.20401 0.31494501 -0.63808799 -0.70260501 1.905766e-42
-46.383801 74.314499 368.46701 0.30306 -0.649037 -0.69778597 1.905766e-42
-46.048199 73.976097 368.427 0.31469601 -0.64989901 -0.69180697 1.905766e-42
-45.001701 75.215698 367.647 0.31945699 -0.66458303 -0.67548198 1.905766e-42
-44.034801 76.511101 366.85501 0.31740001 -0.67213702 -0.66894603 1.905766e-42
-43.069801 77.798302 366.048 0.31289899 -0.67714399 -0.66601098 1.905766e-42
-42.217499 79.152702 365.224 0.30249101 -0.68200201 -0.66586202 1.905766e-42
-41.148602 80.3395 364.39401 0.298242 -0.68821698 -0.66136903 1.905766e-42
-40.105499 81.560997 363.58099 0.295697 -0.69376898 -0.65669501 1.905766e-42
-38.983101 82.6903 362.742 0.295001 -0.70010298 -0.65025401 1.905766e-42
-37.942299 83.892502 361.89801 0.290602 -0.70711398 -0.64462399 1.905766e-42
-36.822601 85.004799 361.03299 0.28409001 -0.71657801 -0.63703102 1.905766e-42
-35.201698 85.715202 360.70401 0.288901 -0.73356903 -0.61515301 1.905766e-42
-33.5583 86.444397 360.616 0.28098899 -0.75432199 -0.59333199 1.905766e-42
-31.974701 87.299797 360.60001 0.27694401 -0.77172399 -0.57248902 1.905766e-42
-30.3969 88.159599 360.49399 0.27929699 -0.78529799 -0.55254 1.905766e-42
-28.745199 88.652603 359.97601 0.28717101 -0.795044 -0.53426403 1.905766e-42
-27.4235 88.193298 361.108 0.30710301 -0.79207599 -0.52754498 1.905766e-42
-26.495501 87.624802 362.54199 0.303251 -0.78700602 -0.53727102 1.905766e-42
-25.320999 87.1558 363.823 0.28997901 -0.780689 -0.55356699 1.905766e-42
-24.226801 86.639999 365.155 0.26927799 -0.77174097 -0.57611102 1.905766e-42
-22.7152 86.538498 366.12799 0.241668 -0.76148099 -0.60145098 1.905766e-42
-21.554001 85.796898 367.28601 0.20702 -0.748402 -0.63010901 1.905766e-42
-20.1278 85.407402 368.31201 0.19615 -0.73304802 -0.65127999 1.905766e-42
-19.103701 84.463501 369.453 0.18357401 -0.72077101 -0.668423 1.905766e-42
-18.199499 83.482498 370.66101 0.171477 -0.71028 -0.68271399 1.905766e-42
-16.8064 82.881699 371.63 0.16385201 -0.698888 -0.69621003 1.905766e-42
-15.9524 81.865997 372.84601 0.151126 -0.690247 -0.70761597 1.905766e-42
-14.5027 81.2332 373.70499 0.13111299 -0.67925203 -0.72209799 1.905766e-42
-13.2494 80.466003 374.745 0.10355 -0.66863197 -0.73634899 1.905766e-42
-12.3483 79.354698 375.83701 0.075805798 -0.659356 -0.74799901 1.905766e-42
-10.894 78.7117 376.67999 0.0451972 -0.64498597 -0.76285702 1.905766e-42
-9.7826004 77.660896 377.629 0.0135571 -0.62617701 -0.77956301 1.905766e-42
-9.0474396 76.315804 378.573 -0.0154246 -0.60149801 -0.79872501 1.905766e-42
-7.99333 75.155998 379.45801 -0.0426559 -0.57508999 -0.81697702 1.905766e-42
-7.4703999 73.660202 380.31201 -0.067119397 -0.55082202 -0.83191901 1.905766e-42
-6.83213 72.213699 381.172 -0.091265097 -0.52593499 -0.84561402 1.905766e-42
-6.17524 70.749397 381.987 -0.114602 -0.50135499 -0.85761899 1.905766e-42
-5.7471299 69.213699 382.823 -0.136439 -0.47904199 -0.86712402 1.905766e-42
-5.3424802 67.653397 383.62399 -0.15697201 -0.45775399 -0.875112 1.905766e-42
-5.1170001 66.034599 384.37799 -0.175394 -0.438696 -0.88135302 1.905766e-42
-4.7743702 64.3946 385.03601 -0.19269 -0.422896 -0.88545501 1.905766e-42
-5.0445299 62.820099 385.866 -0.204638 -0.41254899 -0.88765198 1.905766e-42
-4.6816602 61.174599 386.49899 -0.217608 -0.39841101 -0.89101899 1.905766e-42
-4.3070202 59.5611 387.203 -0.22779199 -0.38582599 -0.89400798 1.905766e-42
-4.4745798 57.869499 387.79501 -0.233749 -0.37619901 -0.89656901 1.905766e-42
-4.3175201 56.256302 388.578 -0.237918 -0.366487 -0.89949 1.905766e-42
-4.3118701 54.588402 389.255 -0.239167 -0.35785699 -0.902628 1.905766e-42
-3.9389999 52.921501 389.823 -0.237335 -0.35180101 -0.90548801 1.905766e-42
-3.7065799 51.2519 390.45401 -0.23439901 -0.35061699 -0.90671098 1.905766e-42
-3.6020701 49.5961 391.15201 -0.23255201 -0.34887001 -0.90785998 1.905766e-42
-3.2490799 47.934101 391.746 -0.23091599 -0.346883 -0.90903801 1.905766e-42
-3.8856599 46.360401 392.345 -0.23389401 -0.344776 -0.909078 1.905766e-42
-3.6547301 44.648499 392.85101 -0.23512299 -0.34216899 -0.90974599 1.905766e-42
-3.27245 42.986599 393.427 -0.23760501 -0.338689 -0.91040301 1.905766e-42
-3.11868 41.307899 394.05801 -0.242762 -0.334948 -0.91042602 1.905766e-42
-3.69538 39.745399 394.741 -0.24987601 -0.33387899 -0.90889299 1.905766e-42
-3.3764601 38.084999 395.358 -0.25705501 -0.326965 -0.90940398 1.905766e-42
-3.11865 36.372898 395.85101 -0.26331899 -0.31997699 -0.91009802 1.905766e-42
-3.1942201 34.652 396.37299 -0.26723 -0.31442299 -0.91089302 1.905766e-42
-3.86514 33.119801 397.03799 -0.266868 -0.30996701 -0.912525 1.905766e-42
-3.56796 31.473101 397.70099 -0.26761699 -0.30424801 -0.91422898 1.905766e-42
-3.53284 29.7556 398.23901 -0.26557699 -0.29894301 -0.91657102 1.905766e-42
-3.6486101 28.038099 398.76501 -0.261053 -0.293547 -0.91960901 1.905766e-42
-3.55935 26.335501 399.34201 -0.25482699 -0.28875601 -0.922867 1.905766e-42
-3.76319 24.616699 399.836 -0.24655101 -0.28307 -0.92686802 1.905766e-42
-4.4365501 23.038799 400.38101 -0.240972 -0.27635899 -0.930354 1.905766e-42
-4.5144501 21.3139 400.89001 -0.236176 -0.27171999 -0.93294603 1.905766e-42
-4.31706 19.619801 401.465 -0.231878 -0.26741201 -0.93526602 1.905766e-42
-4.29392 17.8993 401.99399 -0.229737 -0.26234999 -0.937226 1.905766e-42
-4.3822298 16.1493 402.405 -0.22975899 -0.25699201 -0.93870401 1.905766e-42
-4.85359 14.5008 402.953 -0.23356099 -0.252065 -0.93910199 1.905766e-42
-5.29146 12.8359 403.479 -0.238259 -0.24766199 -0.93909299 1.905766e-42
-4.9832401 11.102 403.85101 -0.24123199 -0.24195699 -0.939821 1.905766e-42
-5.3259401 9.4502001 404.479 -0.2458 -0.238573 -0.93950301 1.905766e-42
-5.8612299 7.7940502 404.93799 -0.247113 -0.234258 -0.94024402 1.905766e-42
-5.6226501 6.0748701 405.41501 -0.246508 -0.229155 -0.94165897 1.905766e-42
-5.6241298 4.31143 405.776 -0.24385899 -0.223805 -0.94363302 1.905766e-42
-5.8722401 2.56199 406.11899 -0.237699 -0.217572 -0.94665802 1.905766e-42
-6.0596099 0.86872101 406.70099 -0.22841799 -0.210495 -0.950535 1.905766e-42
-6.4983501 -0.77600503 407.28601 -0.21331 -0.20112599 -0.95605803 1.905766e-42
-7.4917202 -2.2161 407.70901 -0.190109 -0.175531 -0.96594399 1.905766e-42
-8.4294395 -3.71982 408.02499 -0.16238201 -0.14263301 -0.97636497 1.905766e-42
-9.1844797 -5.3144102 408.38101 -0.13198701 -0.112325 -0.98486698 1.905766e-42
-9.7417603 -7.0124502 408.59601 -0.103635 -0.0854977 -0.99093401 1.905766e-42
-10.0636 -8.7785101 408.728 -0.082629003 -0.0622366 -0.99463499 1.905766e-42
-10.5777 -10.5002 408.83499 -0.054430999 -0.041383401 -0.99765998 1.905766e-42
-11.0161 -12.246 408.84299 -0.0298134 -0.0231898 -0.999286 1.905766e-42
-11.737 -13.8943 408.90201 -0.0047896402 -0.0076574101 -0.99995899 1.905766e-42
-12.3449 -15.5882 408.87 0.0116691 0.0066003799 -0.99991 1.905766e-42
-13.3147 -17.1019 408.961 0.0388464 0.020404 -0.99903703 1.905766e-42
-14.9906 -16.454201 408.85101 0.066854097 0.027508199 -0.997383 1.905766e-42
-16.752199 -16.740999 408.61801 0.097729601 0.046832301 -0.99410999 1.905766e-42
-18.5403 -16.7201 408.41199 0.120907 0.066487201 -0.990435 1.905766e-42
-20.313601 -16.4758 408.22299 0.139348 0.078767903 -0.98710603 1.905766e-42
-22.087299 -16.4048 407.92499 0.159454 0.087032698 -0.98336101 1.905766e-42
-23.8675 -16.2841 407.68799 0.179618 0.089347698 -0.97966999 1.905766e-42
-25.574699 -16.701401 407.29901 0.194802 0.091146797 -0.97659802 1.905766e-42
-27.3214 -16.412901 406.974 0.20741799 0.088529803 -0.97423798 1.905766e-42
-28.854601 -17.302999 406.66199 0.21839499 0.094468899 -0.971277 1.905766e-42
-30.6063 -17.419901 406.26401 0.23086999 0.097040102 -0.96813297 1.905766e-42
-32.310101 -17.507601 405.69 0.25711101 0.101825 -0.96100199 1.905766e-42
-34.013199 -17.066999 405.30899 0.303139 0.106308 -0.946998 1.905766e-42
-35.6763 -17.3447 404.67899 0.35118601 0.119733 -0.92861801 1.905766e-42
-37.2836 -17.364201 403.86899 0.39602199 0.134092 -0.90839702 1.905766e-42
-38.9011 -17.225401 403.09201 0.42475501 0.14871299 -0.89301002 1.905766e-42
-40.554199 -16.8314 402.49799 0.41122001 0.15306 -0.89859402 1.905766e-42
-42.169498 -17.184999 401.78699 0.40185601 0.15353601 -0.90273899 1.905766e-42
-43.8428 -17.490601 401.19901 0.39213699 0.141707 -0.90892702 1.905766e-42
-45.429401 -17.844299 400.42499 0.379403 0.117562 -0.917732 1.905766e-42
