# .PCD v0.7 - Point Cloud Data file format
# 3 151 0
# 1 50 0
# 51 100 0
# 101 151 0
VERSION 0.7
FIELDS x y z normal_x normal_y normal_z curvature
SIZE 4 4 4 4 4 4 4
TYPE F F F F F F F
COUNT 1 1 1 1 1 1 1
WIDTH 151
HEIGHT 1
VIEWPOINT 0 0 0 1 0 0 0
POINTS 151
DATA ascii
1.07781 48.6021 403.90701 -0.38506499 -0.61165601 -0.69108701 1.905766e-42
2.5121801 47.5159 403.95801 -0.26480901 -0.66591799 -0.69744498 1.905766e-42
3.4412501 46.280998 404.88101 -0.191099 -0.68409002 -0.70391899 1.905766e-42
4.1419601 44.948399 405.86801 -0.15862399 -0.68792498 -0.70823503 1.905766e-42
4.89922 43.7514 406.979 -0.142167 -0.68691999 -0.71269202 1.905766e-42
5.9077601 42.543098 407.85199 -0.14213499 -0.68306899 -0.71639001 1.905766e-42
6.9924102 41.4762 408.814 -0.15595201 -0.674725 -0.72140503 1.905766e-42
7.5346298 40.132702 409.88199 -0.16980501 -0.66343403 -0.72871298 1.905766e-42
8.2907 38.8265 410.86301 -0.192688 -0.649719 -0.73534799 1.905766e-42
8.6378899 37.425201 411.93799 -0.207341 -0.635692 -0.74357599 1.905766e-42
9.6905499 36.2826 412.84698 -0.221398 -0.62022501 -0.75253201 1.905766e-42
10.0908 34.773899 413.74399 -0.23158801 -0.60498798 -0.76181102 1.905766e-42
10.9398 33.3871 414.51599 -0.24503399 -0.58932 -0.769844 1.905766e-42
11.5011 31.914499 415.38501 -0.255788 -0.57417101 -0.777753 1.905766e-42
12.2757 30.479 416.147 -0.267396 -0.55952001 -0.78449798 1.905766e-42
13.0759 29.048901 416.89099 -0.27784899 -0.545982 -0.79038203 1.905766e-42
14.2759 27.823601 417.43799 -0.27237499 -0.53667998 -0.79861498 1.905766e-42
14.4365 26.294201 418.37299 -0.27375501 -0.52579302 -0.80535698 1.905766e-42
15.1806 24.7868 419.017 -0.26607901 -0.51663899 -0.81380999 1.905766e-42
15.919 23.300699 419.71399 -0.26209399 -0.50710702 -0.82106602 1.905766e-42
16.698099 21.8713 420.48199 -0.26245299 -0.49584001 -0.82780498 1.905766e-42
17.163 20.3636 421.112 -0.26864499 -0.48108801 -0.83449602 1.905766e-42
17.803499 18.808701 421.754 -0.27946901 -0.46405599 -0.84056503 1.905766e-42
18.094801 17.2313 422.57001 -0.292887 -0.44793001 -0.84473401 1.905766e-42
19.0625 15.7555 422.92499 -0.294732 -0.42940599 -0.85366499 1.905766e-42
19.8454 14.2381 423.495 -0.288596 -0.411984 -0.864281 1.905766e-42
20.2992 12.6098 424.11301 -0.29529801 -0.39561999 -0.86964601 1.905766e-42
20.93 10.9931 424.591 -0.29868299 -0.37862799 -0.87603003 1.905766e-42
20.625799 9.3764896 425.32199 -0.32026201 -0.36777401 -0.87302601 1.905766e-42
21.2103 7.7241702 425.73199 -0.32467601 -0.35096899 -0.87829697 1.905766e-42
21.3225 6.0353899 426.345 -0.33771101 -0.33626899 -0.87913299 1.905766e-42
21.849501 4.3775802 426.80701 -0.345117 -0.319823 -0.88238698 1.905766e-42
22.1579 2.6727099 427.29599 -0.35600501 -0.30463201 -0.88343602 1.905766e-42
22.4147 0.95987999 427.78601 -0.36787099 -0.290012 -0.88349497 1.905766e-42
22.4657 -0.76067603 428.31201 -0.381116 -0.27702099 -0.88204902 1.905766e-42
22.5355 -2.48682 428.81799 -0.39400899 -0.264191 -0.88031799 1.905766e-42
22.9639 -4.19592 429.186 -0.407141 -0.249036 -0.87875903 1.905766e-42
22.9419 -5.9525199 429.578 -0.42078799 -0.23691501 -0.87567598 1.905766e-42
22.593399 -7.6016302 430.20999 -0.429418 -0.22634301 -0.874282 1.905766e-42
22.503401 -9.3350496 430.686 -0.43695101 -0.212882 -0.87393099 1.905766e-42
22.395901 -11.0744 431.13699 -0.44143701 -0.199341 -0.87486899 1.905766e-42
22.727699 -12.8303 431.353 -0.44982699 -0.184516 -0.87384701 1.905766e-42
22.9028 -14.5999 431.63199 -0.45342699 -0.171106 -0.87471497 1.905766e-42
22.998899 -16.372101 431.93301 -0.45248801 -0.15865099 -0.87754399 1.905766e-42
23.0112 -18.146999 432.23099 -0.446605 -0.146717 -0.88261998 1.905766e-42
23.0742 -19.9275 432.48801 -0.43715799 -0.13564099 -0.88909698 1.905766e-42
22.8634 -21.6812 432.83499 -0.420755 -0.126638 -0.89829201 1.905766e-42
22.653099 -23.437099 433.17099 -0.40189201 -0.120513 -0.907722 1.905766e-42
22.4643 -25.202101 433.46899 -0.380674 -0.114243 -0.91762501 1.905766e-42
22.2027 -26.957399 433.76999 -0.35752901 -0.106486 -0.92781103 1.905766e-42
21.7861 -28.6751 434.10999 -0.33540401 -0.095424697 -0.93722898 1.905766e-42
21.742701 -30.466 434.285 -0.30630499 -0.090693697 -0.94760299 1.905766e-42
20.849899 -31.9764 434.68799 -0.300212 -0.0695614 -0.95133299 1.905766e-42
20.549101 -33.728901 434.96701 -0.28003499 -0.058153801 -0.95822698 1.905766e-42
19.306101 -34.973801 435.34799 -0.31069499 -0.034519002 -0.94988298 1.905766e-42
18.7624 -36.680801 435.52301 -0.315483 -0.041033801 -0.94804299 1.905766e-42
17.891001 -38.227699 435.819 -0.344946 -0.041861899 -0.93768799 1.905766e-42
17.2435 -39.890499 436.05499 -0.30694601 -0.050051101 -0.95041001 1.905766e-42
16.9734 -41.078701 437.38 -0.267773 -0.0533197 -0.96200597 1.905766e-42
16.7222 -42.523899 438.423 -0.227727 -0.058265399 -0.97197998 1.905766e-42
15.9515 -44.147701 438.521 -0.16653401 -0.057961501 -0.98433101 1.905766e-42
14.444 -44.815102 437.798 -0.089037299 -0.032024398 -0.99551302 1.905766e-42
12.9897 -45.771198 437.33899 -0.051093299 0.0043875799 -0.99868399 1.905766e-42
12.6204 -47.532001 437.28101 -0.021201 0.0131574 -0.99968898 1.905766e-42
11.1331 -48.545799 437.289 -0.102691 0.0570434 -0.99307603 1.905766e-42
10.6093 -50.259899 437.12399 -0.096301198 0.0739737 -0.99260002 1.905766e-42
10.7846 -52.046299 436.98999 -0.032115798 0.060167398 -0.99767202 1.905766e-42
9.8109102 -53.5602 437.00699 -0.079154097 0.078116797 -0.993797 1.905766e-42
8.8559904 -55.073601 437.20099 -0.126647 0.095187798 -0.98737001 1.905766e-42
7.2867999 -55.9548 437.16901 -0.154175 0.124291 -0.98019499 1.905766e-42
6.29076 -57.454102 437.172 -0.13541099 0.140439 -0.98078603 1.905766e-42
5.0327601 -58.7397 437.103 -0.124499 0.162203 -0.978872 1.905766e-42
3.3693299 -59.427299 437.11801 -0.127615 0.19054 -0.97334898 1.905766e-42
2.7054801 -61.081402 436.866 -0.092378303 0.20704401 -0.97395998 1.905766e-42
1.88375 -62.6828 436.858 -0.062561601 0.225982 -0.972121 1.905766e-42
0.115031 -62.961899 436.67401 -0.065809898 0.244155 -0.96750098 1.905766e-42
-1.18932 -64.182899 436.45599 -0.088986002 0.25212401 -0.96359497 1.905766e-42
-2.73703 -65.1007 436.409 -0.189621 0.239583 -0.95217901 1.905766e-42
-3.9517901 -66.379898 436.767 -0.34470999 0.210509 -0.914801 1.905766e-42
-4.72545 -64.838501 437.28201 -0.38403201 0.17725199 -0.90614599 1.905766e-42
-5.3677402 -63.245899 437.82199 -0.400985 0.147791 -0.90408498 1.905766e-42
-6.0436401 -61.6982 438.444 -0.415427 0.115522 -0.90226102 1.905766e-42
-6.4639602 -59.971802 438.73199 -0.376883 0.10125 -0.92071003 1.905766e-42
-6.9825201 -58.288399 439.103 -0.36030701 0.084900998 -0.92896199 1.905766e-42
-7.5295501 -56.636101 439.56201 -0.36271101 0.069475196 -0.929308 1.905766e-42
-7.81883 -54.864799 439.69901 -0.341674 0.066610798 -0.937455 1.905766e-42
-8.4704199 -53.238998 440.11401 -0.36964101 0.051503599 -0.927746 1.905766e-42
-8.8418903 -51.485199 440.276 -0.36339399 0.046773899 -0.93046099 1.905766e-42
-9.46527 -49.850601 440.70001 -0.39507499 0.0298199 -0.91816503 1.905766e-42
-9.8421297 -48.098499 440.867 -0.39072999 0.019284099 -0.92030299 1.905766e-42
-10.1225 -46.3214 440.92599 -0.38206899 0.0076053301 -0.92410302 1.905766e-42
-10.6391 -44.626801 441.24399 -0.42515799 -0.0106624 -0.905056 1.905766e-42
-10.6052 -42.839199 441.03601 -0.37316599 -0.0114 -0.92769498 1.905766e-42
-10.6313 -41.041698 440.944 -0.33799499 -0.0154137 -0.94102198 1.905766e-42
-11.366 -39.449402 441.35001 -0.422097 -0.033615801 -0.905927 1.905766e-42
-11.7393 -37.6922 441.46301 -0.442155 -0.0431366 -0.89590102 1.905766e-42
-11.8655 -35.8983 441.38501 -0.42834499 -0.048323799 -0.90232199 1.905766e-42
-12.2263 -34.1409 441.53101 -0.448764 -0.057780098 -0.89178002 1.905766e-42
-12.4477 -32.355 441.49301 -0.44729501 -0.069586501 -0.89167601 1.905766e-42
-12.4559 -30.5702 441.259 -0.42005801 -0.080599599 -0.90391099 1.905766e-42
-12.3902 -28.7904 440.99799 -0.38694 -0.090979204 -0.917606 1.905766e-42
-12.7385 -27.0245 440.98099 -0.404129 -0.105109 -0.90864301 1.905766e-42
-13.1139 -25.265499 441.05099 -0.42691699 -0.118477 -0.896496 1.905766e-42
-12.9994 -23.510401 440.668 -0.39251 -0.12728199 -0.91089797 1.905766e-42
-13.4579 -21.7763 440.819 -0.42720899 -0.13908701 -0.89339101 1.905766e-42
-12.9661 -20.1686 440.17599 -0.35781801 -0.145092 -0.92245001 1.905766e-42
-13.4943 -18.4494 440.25 -0.398615 -0.15600701 -0.90375203 1.905766e-42
-13.7332 -16.6696 440.12701 -0.40979001 -0.16817801 -0.89654303 1.905766e-42
-13.7751 -14.9017 439.79099 -0.40231299 -0.17912801 -0.897807 1.905766e-42
-13.7183 -13.1739 439.29001 -0.38610101 -0.189841 -0.90271097 1.905766e-42
-13.7954 -11.4117 438.931 -0.388246 -0.19943801 -0.89971602 1.905766e-42
-13.6936 -9.6819201 438.444 -0.377161 -0.209786 -0.90207499 1.905766e-42
-13.7048 -7.91886 438.08099 -0.382222 -0.218577 -0.89784801 1.905766e-42
-13.7549 -6.1476798 437.76401 -0.395558 -0.22587299 -0.89023298 1.905766e-42
-13.1819 -4.6441302 436.957 -0.34715801 -0.242957 -0.90578902 1.905766e-42
-13.1381 -2.8973899 436.52499 -0.356188 -0.25012201 -0.900316 1.905766e-42
-13.1357 -1.14742 436.103 -0.373074 -0.253023 -0.89263397 1.905766e-42
-13.1357 0.58400798 435.61099 -0.391969 -0.25570899 -0.88372701 1.905766e-42
-13.0536 2.27069 434.98801 -0.40312701 -0.26093599 -0.87715501 1.905766e-42
-12.786 3.90714 434.28799 -0.398785 -0.27168 -0.87587702 1.905766e-42
-12.5987 5.6012802 433.70901 -0.409192 -0.279495 -0.86858797 1.905766e-42
-12.3981 7.2777801 433.08499 -0.41966999 -0.288331 -0.86066401 1.905766e-42
-11.8763 8.7700901 432.22501 -0.38905701 -0.31141701 -0.86698002 1.905766e-42
-12.0777 10.5176 431.84299 -0.45283499 -0.30342799 -0.83837402 1.905766e-42
-12.0112 12.2277 431.285 -0.4858 -0.301348 -0.82047999 1.905766e-42
-11.3979 13.5944 430.28699 -0.43747899 -0.32769001 -0.83739501 1.905766e-42
-11.5685 15.3412 429.888 -0.50094599 -0.31191999 -0.80731601 1.905766e-42
-10.7256 16.4501 428.74799 -0.40705699 -0.352541 -0.84262598 1.905766e-42
-10.7812 18.1688 428.216 -0.459764 -0.342125 -0.81949198 1.905766e-42
-10.4958 19.7486 427.40201 -0.45798999 -0.35086599 -0.81678599 1.905766e-42
-10.1745 21.296801 426.54199 -0.45097899 -0.36221799 -0.81572998 1.905766e-42
-9.4324799 22.4517 425.37701 -0.350869 -0.40663001 -0.84353 1.905766e-42
-9.1230001 24.027901 424.565 -0.35197401 -0.41858801 -0.83719701 1.905766e-42
-8.9585695 25.656799 423.81699 -0.39405701 -0.41510999 -0.82000101 1.905766e-42
-8.4319 27.042 422.79501 -0.38363701 -0.43248299 -0.81595403 1.905766e-42
-7.9741802 28.475201 421.80701 -0.377617 -0.44473901 -0.81216598 1.905766e-42
-7.7220602 30.041599 420.957 -0.39609399 -0.44525099 -0.80303299 1.905766e-42
-7.2247 31.4177 419.909 -0.381271 -0.45899001 -0.802472 1.905766e-42
-6.6974301 32.776501 418.85199 -0.36628601 -0.473176 -0.801211 1.905766e-42
-6.08113 34.048199 417.73801 -0.345974 -0.4914 -0.79926699 1.905766e-42
-5.4229999 35.264301 416.58499 -0.329133 -0.511756 -0.793585 1.905766e-42
-5.2797399 36.858601 415.76199 -0.37244201 -0.50531799 -0.778422 1.905766e-42
-4.6885099 38.129398 414.633 -0.375788 -0.51272202 -0.77194601 1.905766e-42
-4.1413798 39.452099 413.54099 -0.37888899 -0.516783 -0.76770997 1.905766e-42
-3.6127501 40.7794 412.44601 -0.38124901 -0.51989597 -0.76443303 1.905766e-42
-2.9646299 41.9762 411.26801 -0.37237599 -0.52926898 -0.76237202 1.905766e-42
-2.2211499 43.056 410.035 -0.35989401 -0.54315698 -0.75858903 1.905766e-42
-1.65545 44.327599 408.89301 -0.37105799 -0.54833603 -0.74942899 1.905766e-42
-0.98056501 45.442799 407.65201 -0.381798 -0.559946 -0.73531699 1.905766e-42
-0.13616 46.344898 406.34299 -0.372417 -0.58353698 -0.72165799 1.905766e-42
0.279589 47.717999 405.25601 -0.39881301 -0.58560902 -0.70569903 1.905766e-42
