# .PCD v0.7 - Point Cloud Data file format
# 3 151 0
# 1 50 0
# 51 100 0
# 101 151 0
VERSION 0.7
FIELDS x y z normal_x normal_y normal_z curvature
SIZE 4 4 4 4 4 4 4
TYPE F F F F F F F
COUNT 1 1 1 1 1 1 1
WIDTH 151
HEIGHT 1
VIEWPOINT 0 0 0 1 0 0 0
POINTS 151
DATA ascii
-41.636398 12.5655 386.927 0.42961499 -0.25839901 -0.86525202 1.905766e-42
-40.880699 14.1989 386.897 0.44757199 -0.237018 -0.862266 1.905766e-42
-40.324902 15.8989 386.694 0.45095199 -0.24039499 -0.85956502 1.905766e-42
-39.794701 17.604401 386.47 0.45345601 -0.24867199 -0.85588503 1.905766e-42
-39.4515 19.3573 386.24701 0.45747301 -0.26062199 -0.850173 1.905766e-42
-38.5807 20.9289 386.13901 0.45495901 -0.27112499 -0.84823602 1.905766e-42
-38.263599 22.6994 386.07001 0.457679 -0.28529701 -0.84210199 1.905766e-42
-37.122501 24.070601 385.82999 0.45106101 -0.28398001 -0.84610802 1.905766e-42
-36.266602 25.6511 385.733 0.44733301 -0.28287199 -0.84845501 1.905766e-42
-35.8727 27.378099 385.41299 0.44980201 -0.28352201 -0.84693199 1.905766e-42
-35.513401 29.1078 385.06799 0.452557 -0.28472701 -0.84505802 1.905766e-42
-34.840698 30.7631 384.85001 0.452898 -0.28554201 -0.84460002 1.905766e-42
-35.1646 32.447102 384.30301 0.45826501 -0.28885701 -0.84056801 1.905766e-42
-34.5588 34.102699 383.94 0.45864999 -0.29105201 -0.83960003 1.905766e-42
-33.7439 35.694302 383.73199 0.45829099 -0.29253799 -0.83928001 1.905766e-42
-33.848499 37.3815 383.11401 0.46000001 -0.29490101 -0.83751601 1.905766e-42
-34.147202 39.069801 382.56601 0.46060899 -0.29718 -0.836375 1.905766e-42
-33.376202 40.648499 382.17401 0.46077999 -0.299292 -0.835527 1.905766e-42
-33.720299 42.315899 381.59 0.45984599 -0.301631 -0.83520001 1.905766e-42
-33.103001 43.9426 381.129 0.45921499 -0.304407 -0.83454102 1.905766e-42
-33.199699 45.626499 380.5 0.45688 -0.30699599 -0.83487397 1.905766e-42
-33.126801 47.333599 379.93399 0.45384499 -0.31230101 -0.834562 1.905766e-42
-33.4394 48.9785 379.27301 0.449132 -0.31702501 -0.835329 1.905766e-42
-33.150902 50.627701 378.612 0.44327199 -0.32330599 -0.836052 1.905766e-42
-33.1749 52.298199 377.94199 0.43589899 -0.32875401 -0.83780199 1.905766e-42
-33.736401 53.8269 377.17599 0.42969301 -0.330771 -0.84021097 1.905766e-42
-33.982201 55.394901 376.327 0.42268199 -0.33376199 -0.84258097 1.905766e-42
-34.4944 56.909302 375.49899 0.41780201 -0.335383 -0.84436899 1.905766e-42
-34.956699 58.431301 374.65701 0.413984 -0.34273601 -0.843297 1.905766e-42
-35.334599 59.987 373.83401 0.409987 -0.350532 -0.842044 1.905766e-42
-35.576698 61.573101 373.01801 0.40467301 -0.359092 -0.84100699 1.905766e-42
-36.441601 62.879799 372.133 0.40701899 -0.361938 -0.838651 1.905766e-42
-36.153999 64.493401 371.388 0.395322 -0.37360099 -0.83913201 1.905766e-42
-36.316601 66.102402 370.59799 0.38705701 -0.382559 -0.83894902 1.905766e-42
-36.865501 66.900497 370.013 0.38881701 -0.383118 -0.837879 1.905766e-42
-37.003201 68.489799 369.17899 0.37864399 -0.39572299 -0.83667898 1.905766e-42
-36.893002 70.1315 368.44901 0.36204299 -0.41344699 -0.83545601 1.905766e-42
-36.627602 71.770599 367.755 0.34040499 -0.43388799 -0.83418602 1.905766e-42
-36.683601 73.346802 366.88699 0.32221401 -0.450968 -0.83235002 1.905766e-42
-37.049 74.909897 366.073 0.30675799 -0.46439099 -0.83080697 1.905766e-42
-36.415901 76.378998 365.24799 0.27605999 -0.49050799 -0.82655501 1.905766e-42
-35.8312 77.913902 364.51099 0.245993 -0.51626998 -0.820337 1.905766e-42
-36.141201 79.403099 363.54901 0.22695801 -0.528005 -0.818353 1.905766e-42
-35.755299 80.8722 362.58301 0.199591 -0.54885298 -0.81174099 1.905766e-42
-35.204899 82.327301 361.67801 0.172267 -0.57180202 -0.80210102 1.905766e-42
-34.5746 83.753502 360.77802 0.146312 -0.59553802 -0.789891 1.905766e-42
-34.1502 85.185997 359.77399 0.121979 -0.61780602 -0.77681202 1.905766e-42
-33.556198 86.5214 358.724 0.098937698 -0.64143097 -0.76077402 1.905766e-42
-32.9865 87.863197 357.668 0.0786805 -0.66766202 -0.74029601 1.905766e-42
-32.083 89.052803 356.664 0.059565902 -0.69032103 -0.72104698 1.905766e-42
-31.2414 90.202797 355.564 0.038952399 -0.70959401 -0.70353401 1.905766e-42
-30.6115 91.366997 354.34399 0.016592599 -0.72585601 -0.68764597 1.905766e-42
-29.9086 92.500702 353.13599 -0.0069768499 -0.74070102 -0.67179799 1.905766e-42
-29.2045 93.585098 351.883 -0.025544399 -0.75402099 -0.65635401 1.905766e-42
-28.392799 94.632698 350.66501 -0.0382399 -0.76623398 -0.64142299 1.905766e-42
-27.415199 95.5429 349.45901 -0.0425325 -0.77694798 -0.62812603 1.905766e-42
-25.620001 95.443703 349.54401 -0.036345899 -0.77708101 -0.62835002 1.905766e-42
-23.868099 95.662003 349.19299 -0.0321634 -0.77379102 -0.63262397 1.905766e-42
-22.2304 95.0755 349.655 -0.048133999 -0.76589298 -0.641164 1.905766e-42
-20.4676 94.756302 349.82999 -0.058952902 -0.76334 -0.64330101 1.905766e-42
-18.8316 94.317902 350.44 -0.064686298 -0.76211399 -0.64420301 1.905766e-42
-17.034901 94.237503 350.367 -0.072051898 -0.76647198 -0.63822401 1.905766e-42
-15.2798 93.839699 350.405 -0.109196 -0.767878 -0.631221 1.905766e-42
-13.5209 93.468597 350.49799 -0.144934 -0.76793098 -0.62392002 1.905766e-42
-11.7938 92.9851 350.651 -0.17783099 -0.76667601 -0.61691499 1.905766e-42
-10.1123 92.389603 350.89099 -0.20697001 -0.76480299 -0.61011499 1.905766e-42
-8.3731804 91.925797 350.91299 -0.215104 -0.76600099 -0.60578299 1.905766e-42
-6.6525102 91.3974 350.90302 -0.22742499 -0.76091403 -0.60769099 1.905766e-42
-4.9056902 91.174301 350.53101 -0.241466 -0.752105 -0.61321503 1.905766e-42
-3.3122399 90.389603 350.823 -0.26565301 -0.73400599 -0.62503099 1.905766e-42
-1.5676301 90.4403 350.38199 -0.231131 -0.72645599 -0.64717799 1.905766e-42
0.121651 89.820503 350.33499 -0.193083 -0.71646202 -0.67037398 1.905766e-42
1.86175 89.3601 350.32901 -0.147855 -0.704198 -0.69443798 1.905766e-42
3.58636 89.100403 350.77399 -0.103365 -0.688173 -0.71814603 1.905766e-42
4.1687198 87.728699 351.784 -0.118637 -0.68073899 -0.72285497 1.905766e-42
5.1885099 86.6483 352.79999 -0.11483 -0.66917801 -0.73417598 1.905766e-42
5.9435201 85.364502 353.811 -0.116783 -0.65983301 -0.74228197 1.905766e-42
6.4878702 83.953796 354.78699 -0.125388 -0.651398 -0.74830401 1.905766e-42
7.15523 82.621597 355.797 -0.127794 -0.64008498 -0.75760102 1.905766e-42
8.0871 81.443298 356.789 -0.113494 -0.62673402 -0.77092397 1.905766e-42
8.8801804 80.166397 357.77899 -0.104942 -0.61413401 -0.78219301 1.905766e-42
9.0313501 78.591499 358.63699 -0.128783 -0.60680503 -0.78434902 1.905766e-42
9.6426096 77.194901 359.59399 -0.134821 -0.59327102 -0.79363298 1.905766e-42
10.3812 75.861198 360.55099 -0.13135201 -0.57645202 -0.80650502 1.905766e-42
11.3161 74.664398 361.517 -0.109339 -0.557859 -0.82270199 1.905766e-42
11.6929 73.135201 362.38901 -0.119843 -0.54714501 -0.82841402 1.905766e-42
11.7364 71.514702 363.17099 -0.144788 -0.54245597 -0.82751298 1.905766e-42
12.4895 70.1502 364.07199 -0.127628 -0.53287297 -0.83651501 1.905766e-42
13.1585 68.755203 364.992 -0.11611 -0.52442098 -0.84350502 1.905766e-42
13.1364 67.127403 365.76001 -0.139259 -0.52069402 -0.842309 1.905766e-42
13.8113 65.736504 366.68201 -0.13010401 -0.51132798 -0.84947997 1.905766e-42
14.282 64.252602 367.58499 -0.13462999 -0.50190097 -0.85438299 1.905766e-42
14.4399 62.648399 368.38599 -0.15367401 -0.48802099 -0.85919702 1.905766e-42
14.4587 61.049801 369.21399 -0.176249 -0.47535101 -0.86196202 1.905766e-42
13.8906 59.478901 369.884 -0.215369 -0.46712399 -0.85756099 1.905766e-42
14.6341 57.9818 370.552 -0.20471101 -0.45255399 -0.86792201 1.905766e-42
15.1404 56.4804 371.40601 -0.203917 -0.440671 -0.874201 1.905766e-42
15.0593 54.842701 372.14801 -0.21902101 -0.43214601 -0.87480199 1.905766e-42
15.6046 53.338001 372.97198 -0.212577 -0.42319801 -0.88074702 1.905766e-42
15.8953 51.749699 373.76801 -0.212642 -0.407996 -0.88787502 1.905766e-42
15.8706 50.082901 374.44699 -0.220715 -0.393208 -0.89256501 1.905766e-42
15.619 48.398399 375.02899 -0.233594 -0.378914 -0.89546502 1.905766e-42
15.6152 46.721901 375.68399 -0.239132 -0.36443001 -0.90000403 1.905766e-42
15.5914 45.053699 376.35999 -0.244295 -0.350227 -0.90424597 1.905766e-42
15.6588 43.387798 377.039 -0.245987 -0.336409 -0.90902102 1.905766e-42
15.1793 41.748501 377.60699 -0.258984 -0.32322001 -0.91019601 1.905766e-42
15.3397 40.055901 378.198 -0.25491801 -0.31224599 -0.91516101 1.905766e-42
15.5412 38.377499 378.81601 -0.24855299 -0.30193001 -0.92035902 1.905766e-42
15.4671 36.679199 379.40799 -0.246436 -0.290943 -0.92445701 1.905766e-42
15.5078 34.991299 380.03201 -0.240172 -0.28053501 -0.92931002 1.905766e-42
14.987 33.3223 380.45999 -0.243663 -0.26756701 -0.932221 1.905766e-42
14.7026 31.631201 381.00699 -0.240877 -0.25495899 -0.93646902 1.905766e-42
14.7634 29.9077 381.522 -0.22881299 -0.245656 -0.94196498 1.905766e-42
14.4551 28.194099 381.979 -0.223121 -0.23382699 -0.94633102 1.905766e-42
14.168 26.4835 382.45999 -0.215554 -0.22120599 -0.95110703 1.905766e-42
13.6458 24.8095 382.867 -0.212632 -0.205688 -0.95523798 1.905766e-42
13.6188 23.0751 383.34698 -0.19614699 -0.193812 -0.96122998 1.905766e-42
13.5217 21.3542 383.866 -0.180473 -0.18038499 -0.96689701 1.905766e-42
12.8465 19.7013 384.09399 -0.180438 -0.16822401 -0.96909398 1.905766e-42
12.2336 18.035101 384.39099 -0.18097199 -0.163708 -0.96976697 1.905766e-42
10.9215 16.847401 384.71899 -0.210834 -0.151871 -0.96565199 1.905766e-42
9.2131901 17.1134 385.22 -0.273586 -0.132411 -0.95269001 1.905766e-42
7.5440698 17.551399 385.73199 -0.34245601 -0.11209 -0.932823 1.905766e-42
5.86514 17.348801 386.349 -0.34426901 -0.103632 -0.93313402 1.905766e-42
4.17942 17.045799 386.90201 -0.33199099 -0.099694699 -0.93799901 1.905766e-42
2.6209099 16.571199 387.668 -0.321623 -0.096747503 -0.941912 1.905766e-42
0.91175997 16.9415 388.09399 -0.31323299 -0.0963514 -0.944776 1.905766e-42
-0.67849302 16.480301 388.79999 -0.275141 -0.096441202 -0.956554 1.905766e-42
-2.40838 16.901501 389.064 -0.23235799 -0.100008 -0.967475 1.905766e-42
-4.1550498 16.8459 389.496 -0.188586 -0.101804 -0.97676599 1.905766e-42
-5.8504701 16.4673 389.96701 -0.147558 -0.102634 -0.98371398 1.905766e-42
-7.6133199 16.8284 390.01199 -0.140264 -0.106273 -0.98439401 1.905766e-42
-9.3970003 16.8258 390.25299 -0.137614 -0.106044 -0.98479301 1.905766e-42
-11.1505 16.6514 390.621 -0.133811 -0.103035 -0.985636 1.905766e-42
-12.9372 16.479601 390.75601 -0.12870701 -0.0980151 -0.98682702 1.905766e-42
-14.547 15.7885 391.16901 -0.096363202 -0.0912892 -0.99115098 1.905766e-42
-16.343599 15.6783 391.17599 -0.058730099 -0.090759702 -0.99414003 1.905766e-42
-18.130199 15.8859 391.24701 -0.0213248 -0.096222199 -0.99513102 1.905766e-42
-19.9109 15.6267 391.29199 0.0134036 -0.103537 -0.99453503 1.905766e-42
-21.617201 15.0555 391.245 0.035818901 -0.111308 -0.99313998 1.905766e-42
-23.4027 14.8349 391.18799 0.060345698 -0.119429 -0.99100697 1.905766e-42
-25.076099 14.172 391.17001 0.083406001 -0.121511 -0.98908001 1.905766e-42
-26.6807 13.3563 391.164 0.108297 -0.118974 -0.986974 1.905766e-42
-28.437401 12.9643 391.14499 0.137051 -0.11482 -0.98388702 1.905766e-42
-30.1577 12.6351 390.73001 0.16448499 -0.114933 -0.97966099 1.905766e-42
-31.923401 12.6511 390.38101 0.195787 -0.125056 -0.97263998 1.905766e-42
-33.683701 12.4909 390.04099 0.229624 -0.141445 -0.96294701 1.905766e-42
-35.3578 11.9885 389.61099 0.279773 -0.161405 -0.946401 1.905766e-42
-36.969299 11.3554 389.11801 0.330403 -0.18145099 -0.92623401 1.905766e-42
-38.676601 11.3688 388.548 0.375963 -0.20800699 -0.902987 1.905766e-42
-40.236801 11.8007 387.76099 0.40637401 -0.238947 -0.88190901 1.905766e-42
