# .PCD v0.7 - Point Cloud Data file format
# 1 60 0
# 1 60 0
VERSION 0.7
FIELDS x y z normal_x normal_y normal_z curvature
SIZE 4 4 4 4 4 4 4
TYPE F F F F F F F
COUNT 1 1 1 1 1 1 1
WIDTH 60
HEIGHT 1
VIEWPOINT 0 0 0 1 0 0 0
POINTS 60
DATA ascii
-34.990799 -2.3914101 310.798 -0.34156501 -0.52705199 -0.778171 1.905766e-42
-35.7915 -0.88824302 310.215 -0.376537 -0.49263 -0.78456098 1.905766e-42
-35.390301 0.58644801 309.26401 -0.368285 -0.45838401 -0.80885702 1.905766e-42
-34.7192 1.88274 308.211 -0.347119 -0.44356599 -0.82629198 1.905766e-42
-34.373001 3.40733 307.319 -0.35212001 -0.44489101 -0.82345802 1.905766e-42
-33.862 4.7853999 306.28 -0.35283801 -0.456016 -0.81704003 1.905766e-42
-33.3969 6.22082 305.29901 -0.36252901 -0.46748301 -0.80624598 1.905766e-42
-32.729198 7.4537802 304.17001 -0.34133801 -0.48955801 -0.80238497 1.905766e-42
-32.385399 8.9568901 303.241 -0.34617901 -0.49514499 -0.79686397 1.905766e-42
-31.877199 10.1745 302.14999 -0.34056899 -0.50867403 -0.79073602 1.905766e-42
-31.3015 11.4337 301 -0.345074 -0.52657598 -0.77694398 1.905766e-42
-30.632601 12.647 299.85101 -0.34401101 -0.545964 -0.763924 1.905766e-42
-30.0357 13.892 298.69601 -0.34090099 -0.55385602 -0.75962502 1.905766e-42
-29.699301 15.3244 297.659 -0.36449301 -0.53738898 -0.76049799 1.905766e-42
-29.075399 16.4884 296.436 -0.37372801 -0.53774899 -0.75574702 1.905766e-42
-28.133801 17.392401 295.19601 -0.36779401 -0.570876 -0.73404902 1.905766e-42
-27.7446 18.8125 294.16101 -0.397733 -0.55915701 -0.72742897 1.905766e-42
-27.0994 19.928101 292.90399 -0.388825 -0.55753303 -0.73346502 1.905766e-42
-26.4743 21.1476 291.73801 -0.39985499 -0.55805397 -0.727112 1.905766e-42
-25.688999 22.0231 290.375 -0.40207699 -0.58333302 -0.70573199 1.905766e-42
-25.1178 23.2015 289.14001 -0.42284501 -0.59456497 -0.683882 1.905766e-42
-23.739901 23.3598 287.992 -0.35796201 -0.66313201 -0.65735799 1.905766e-42
-22.3606 22.313299 288.48499 -0.247069 -0.70806199 -0.66151798 1.905766e-42
-21.1141 21.26 289.24399 -0.22892299 -0.71526402 -0.66029698 1.905766e-42
-19.788601 20.1672 289.78201 -0.25050801 -0.706958 -0.66140503 1.905766e-42
-18.589001 19.060499 290.54099 -0.253212 -0.72206497 -0.64382201 1.905766e-42
-17.3018 18.0639 291.30899 -0.242872 -0.74194098 -0.62492901 1.905766e-42
-16.729601 16.8424 292.50101 -0.217768 -0.72406 -0.65445697 1.905766e-42
-15.507 15.7737 293.27701 -0.224447 -0.69506598 -0.68301302 1.905766e-42
-14.3389 14.5878 293.96201 -0.25491101 -0.65664601 -0.70981401 1.905766e-42
-13.2852 13.3242 294.69199 -0.28619501 -0.62803698 -0.72364497 1.905766e-42
-12.2611 12.0134 295.38 -0.318286 -0.59628201 -0.73698199 1.905766e-42
-11.0303 10.7615 295.77701 -0.34735999 -0.57191598 -0.743137 1.905766e-42
-10.0059 9.3699999 296.28201 -0.35682699 -0.56083697 -0.74708599 1.905766e-42
-8.9193401 8.0578804 296.86301 -0.35079899 -0.55544698 -0.75393599 1.905766e-42
-7.7256298 6.7792001 297.28699 -0.34690899 -0.545533 -0.76292098 1.905766e-42
-7.0066199 5.25071 297.909 -0.34907001 -0.52501601 -0.776214 1.905766e-42
-5.9966698 3.8445001 298.40201 -0.348672 -0.50730401 -0.78807998 1.905766e-42
-5.2112002 2.35588 299.04001 -0.34186399 -0.50640398 -0.79163402 1.905766e-42
-4.29285 0.90793198 299.58701 -0.338083 -0.50121498 -0.79654402 1.905766e-42
-3.49002 -0.57153302 300.22501 -0.350164 -0.48839799 -0.79928303 1.905766e-42
-2.9465201 -2.14869 300.901 -0.454934 -0.40079501 -0.79523498 1.905766e-42
-4.2953901 -2.78584 301.909 -0.38516301 -0.479619 -0.78842503 1.905766e-42
-5.9330602 -2.7857499 302.65601 -0.35512 -0.50401598 -0.78731 1.905766e-42
-7.4979701 -3.0077801 303.517 -0.346562 -0.51388401 -0.78474098 1.905766e-42
-9.1654196 -2.9590099 304.19299 -0.34003699 -0.52272201 -0.78175199 1.905766e-42
-10.7416 -3.10302 305.04999 -0.332028 -0.53483701 -0.776986 1.905766e-42
-12.4001 -3.2058699 305.742 -0.313869 -0.537992 -0.78233701 1.905766e-42
-14.1287 -3.0792999 306.228 -0.30133101 -0.52999401 -0.79265797 1.905766e-42
-15.8478 -2.9449601 306.74399 -0.29057401 -0.518646 -0.804097 1.905766e-42
-17.4503 -2.8190899 307.55399 -0.27711701 -0.51126999 -0.81351697 1.905766e-42
-19.2012 -2.4189601 307.67401 -0.25836799 -0.50696599 -0.82233298 1.905766e-42
-20.9529 -2.3770299 308.086 -0.20669501 -0.5079 -0.83625001 1.905766e-42
-22.7131 -2.26737 308.44601 -0.149858 -0.51068002 -0.84661001 1.905766e-42
-24.494301 -2.3090999 308.702 -0.12602501 -0.51394397 -0.84851599 1.905766e-42
-26.2829 -2.2829399 308.90302 -0.116342 -0.51388299 -0.849935 1.905766e-42
-28.0436 -2.3608799 309.26901 -0.110672 -0.510885 -0.85249501 1.905766e-42
-29.813101 -2.55793 309.53299 -0.10913 -0.507828 -0.854518 1.905766e-42
-31.5275 -2.7139201 310.05899 -0.14221901 -0.514171 -0.84581399 1.905766e-42
-33.3228 -2.65781 310.17599 -0.26525399 -0.53123599 -0.80462998 1.905766e-42
