# .PCD v0.7 - Point Cloud Data file format
# 1 67 0
# 1 67 0
VERSION 0.7
FIELDS x y z normal_x normal_y normal_z curvature
SIZE 4 4 4 4 4 4 4
TYPE F F F F F F F
COUNT 1 1 1 1 1 1 1
WIDTH 67
HEIGHT 1
VIEWPOINT 0 0 0 1 0 0 0
POINTS 67
DATA ascii
14.9004 49.8647 326.18701 -0.081809103 -0.48482099 -0.87077898 1.905766e-42
14.9032 48.2575 326.99799 -0.00226695 -0.47468001 -0.88015598 1.905766e-42
14.7796 46.717098 327.92099 0.039677698 -0.48185 -0.87535501 1.905766e-42
14.7423 45.227001 328.92999 0.068107098 -0.49694499 -0.86510497 1.905766e-42
14.4516 43.656502 329.76001 0.0597784 -0.50072002 -0.86354297 1.905766e-42
14.0335 42.056999 330.47198 0.0230988 -0.51419097 -0.857364 1.905766e-42
13.3084 40.672298 331.36401 -0.068401501 -0.532965 -0.84336799 1.905766e-42
12.3931 39.442101 332.30701 -0.135089 -0.54677802 -0.82630801 1.905766e-42
11.7868 38.082401 333.319 -0.157295 -0.56170499 -0.81224698 1.905766e-42
11.3933 36.669498 334.362 -0.16591799 -0.57647002 -0.80009598 1.905766e-42
11.2461 35.245701 335.45401 -0.159128 -0.59108698 -0.79075599 1.905766e-42
10.8602 33.888802 336.57199 -0.15879101 -0.59651601 -0.78673702 1.905766e-42
10.7355 32.569 337.789 -0.145687 -0.60497701 -0.78280097 1.905766e-42
10.0475 31.2395 338.789 -0.16404501 -0.60759997 -0.77711803 1.905766e-42
10.0926 29.8613 339.94601 -0.15281101 -0.62062699 -0.76907098 1.905766e-42
9.4793701 28.5835 341.05499 -0.18333501 -0.62899101 -0.75548601 1.905766e-42
9.4987001 27.221901 342.23199 -0.178969 -0.64344001 -0.74428201 1.905766e-42
9.4349804 25.9333 343.48801 -0.17908099 -0.65425497 -0.73476499 1.905766e-42
9.6588297 24.680599 344.76099 -0.168008 -0.65901297 -0.733127 1.905766e-42
9.0191898 23.3566 345.79901 -0.193445 -0.65972 -0.726188 1.905766e-42
8.9703197 22.008499 346.991 -0.19272099 -0.666228 -0.72041601 1.905766e-42
9.05439 20.957199 347.983 -0.181054 -0.68695599 -0.70378298 1.905766e-42
8.9960499 19.7064 349.276 -0.184984 -0.70398003 -0.68570697 1.905766e-42
8.8753996 18.5193 350.62399 -0.193996 -0.71434301 -0.672369 1.905766e-42
7.9653702 17.532 351.823 -0.24065199 -0.71021998 -0.66157001 1.905766e-42
6.42976 18.462099 351.69299 -0.32805201 -0.68242401 -0.653207 1.905766e-42
5.2444401 19.6383 351.021 -0.37627 -0.66386998 -0.64629501 1.905766e-42
3.7416601 20.628099 350.97501 -0.42841399 -0.64413702 -0.63367897 1.905766e-42
2.3616199 21.7792 350.87299 -0.45492801 -0.63018298 -0.62921399 1.905766e-42
1.1429501 23.036301 350.45499 -0.46612999 -0.62352002 -0.62765098 1.905766e-42
-0.075675897 24.3419 350.23199 -0.47150999 -0.619726 -0.62739098 1.905766e-42
-0.68633902 25.699499 349.22 -0.46257201 -0.62257802 -0.631208 1.905766e-42
-1.77264 26.975599 348.56299 -0.44422501 -0.63032299 -0.63667703 1.905766e-42
-2.5741301 28.354799 347.729 -0.437278 -0.62887102 -0.642892 1.905766e-42
-3.2557001 29.756599 346.82901 -0.44105399 -0.61087799 -0.65749502 1.905766e-42
-4.13585 31.2148 346.246 -0.45375699 -0.59107202 -0.666888 1.905766e-42
-4.7877202 32.685299 345.43799 -0.46696001 -0.570557 -0.675583 1.905766e-42
-5.1749301 34.127499 344.43301 -0.474334 -0.55792499 -0.68097502 1.905766e-42
-5.6861501 35.634998 343.59299 -0.48126099 -0.545834 -0.68589598 1.905766e-42
-5.9816599 37.125 342.62701 -0.48434699 -0.53514898 -0.69211501 1.905766e-42
-6.7874999 38.632301 342.06299 -0.49277201 -0.52779198 -0.691818 1.905766e-42
-7.2957301 40.181301 341.29999 -0.499493 -0.52141303 -0.69183397 1.905766e-42
-7.5973401 41.6772 340.345 -0.50495398 -0.51535201 -0.69241202 1.905766e-42
-7.66399 43.143799 339.30399 -0.50805497 -0.508645 -0.69509703 1.905766e-42
-8.0575199 44.6898 338.47 -0.51551002 -0.49813399 -0.69721699 1.905766e-42
-8.9214296 46.2033 338.01901 -0.52679998 -0.488132 -0.69585103 1.905766e-42
-9.5578499 47.849499 337.66599 -0.53143001 -0.482391 -0.696334 1.905766e-42
-9.8946304 49.364799 336.755 -0.52832103 -0.480434 -0.70004302 1.905766e-42
-10.0763 50.877899 335.797 -0.52481699 -0.47773901 -0.70450902 1.905766e-42
-10.1033 52.359798 334.77499 -0.522084 -0.47365999 -0.70927799 1.905766e-42
-9.7849903 53.710899 333.629 -0.51898003 -0.46353099 -0.71819103 1.905766e-42
-10.0412 55.2817 332.789 -0.51797402 -0.45591399 -0.72377199 1.905766e-42
-10.0319 56.803699 331.828 -0.51779002 -0.44990599 -0.72765303 1.905766e-42
-8.4876299 56.165001 331.159 -0.503847 -0.451076 -0.73666 1.905766e-42
-6.9244099 55.818298 330.33701 -0.47541201 -0.44808701 -0.757101 1.905766e-42
-5.4819999 54.789799 330.01801 -0.45457801 -0.44616699 -0.77090502 1.905766e-42
-3.8664 54.204601 329.48199 -0.42962599 -0.43977299 -0.788683 1.905766e-42
-2.2985799 53.385101 329.14999 -0.40123999 -0.437511 -0.80473 1.905766e-42
-0.71348602 52.6217 328.76901 -0.36355501 -0.43930599 -0.821486 1.905766e-42
0.97980303 52.284901 328.26001 -0.31542799 -0.44034499 -0.84059602 1.905766e-42
2.6808901 51.781601 327.95499 -0.282884 -0.439024 -0.85277998 1.905766e-42
4.4183798 51.495998 327.58099 -0.26354799 -0.43939799 -0.85876203 1.905766e-42
6.1150799 50.973598 327.284 -0.24349099 -0.444123 -0.86224502 1.905766e-42
7.8579102 50.659401 326.96201 -0.227576 -0.441957 -0.867688 1.905766e-42
9.5818701 50.175598 326.77802 -0.201263 -0.42882201 -0.88068402 1.905766e-42
11.3428 50.299999 326.42599 -0.14969601 -0.42315 -0.89360797 1.905766e-42
13.1334 50.196499 326.27499 -0.100031 -0.43366 -0.89550698 1.905766e-42
