# .PCD v0.7 - Point Cloud Data file format
# 3 173 0
# 1 57 0
# 58 114 0
# 115 173 0
VERSION 0.7
FIELDS x y z normal_x normal_y normal_z curvature
SIZE 4 4 4 4 4 4 4
TYPE F F F F F F F
COUNT 1 1 1 1 1 1 1
WIDTH 173
HEIGHT 1
VIEWPOINT 0 0 0 1 0 0 0
POINTS 173
DATA ascii
-30.4258 91.888397 361.22699 -0.35821599 0.79643297 0.48721299 1.905766e-42
-31.770399 90.772301 361.65799 -0.359332 0.79464 0.48931301 1.905766e-42
-33.045898 89.733498 362.38901 -0.3671 0.78798997 0.49427599 1.905766e-42
-34.652199 88.930298 362.26801 -0.38702801 0.77992302 0.49186301 1.905766e-42
-36.1269 88.036598 362.785 -0.396299 0.77082002 0.49878299 1.905766e-42
-37.764301 87.377899 362.431 -0.40128499 0.76478201 0.504062 1.905766e-42
-39.139801 86.222 362.54001 -0.41006899 0.75542998 0.51104599 1.905766e-42
-40.306801 85.023804 363.20499 -0.421707 0.74483699 0.51709002 1.905766e-42
-41.366901 83.778503 363.957 -0.43477499 0.733904 0.52187699 1.905766e-42
-42.014301 82.918999 365.39999 -0.44527501 0.72528201 0.52506799 1.905766e-42
-42.991001 81.736298 366.34201 -0.45726901 0.71479201 0.52912903 1.905766e-42
-43.8694 80.491898 367.30099 -0.46214801 0.70650202 0.53597999 1.905766e-42
-44.9786 79.091797 367.07901 -0.46093801 0.70073497 0.54452401 1.905766e-42
-45.5564 78.261398 368.56799 -0.46703801 0.69316101 0.54900199 1.905766e-42
-46.481701 76.930801 369.35101 -0.47032601 0.68241602 0.55955499 1.905766e-42
-47.319401 75.601303 370.229 -0.47463301 0.66985297 0.57098198 1.905766e-42
-48.304798 74.184402 370.741 -0.47883901 0.65777701 0.58141398 1.905766e-42
-49.0658 72.940804 371.79599 -0.485468 0.644526 0.59068298 1.905766e-42
-49.817501 71.572502 372.69199 -0.49315599 0.63091999 0.59894598 1.905766e-42
-50.603699 70.182198 373.522 -0.50246602 0.61674303 0.60593301 1.905766e-42
-51.335999 68.786797 374.392 -0.51348799 0.60199499 0.61150002 1.905766e-42
-52.1576 67.302498 374.99301 -0.50923902 0.59094602 0.62566698 1.905766e-42
-52.778 65.904999 375.94299 -0.51053798 0.57918 0.63553298 1.905766e-42
-53.5252 64.426102 376.646 -0.50780803 0.56740499 0.648215 1.905766e-42
-54.193901 62.849701 377.20099 -0.50608802 0.55506599 0.660133 1.905766e-42
-54.8867 61.318401 377.84601 -0.50632799 0.54225498 0.67051601 1.905766e-42
-55.377899 59.878502 378.80801 -0.51215601 0.52897501 0.676669 1.905766e-42
-55.8633 58.343201 379.612 -0.51717502 0.51571101 0.683061 1.905766e-42
-56.5909 56.829102 380.259 -0.52008802 0.50240999 0.69071901 1.905766e-42
-57.055401 55.2621 381.013 -0.52661097 0.48891401 0.695445 1.905766e-42
-57.375 53.716999 381.879 -0.53482598 0.475743 0.69830501 1.905766e-42
-58.087799 52.090401 382.173 -0.54078603 0.45997199 0.704256 1.905766e-42
-58.422798 50.5606 383.06 -0.55085498 0.441975 0.70796698 1.905766e-42
-58.783401 48.9562 383.79199 -0.56050098 0.42391801 0.71143001 1.905766e-42
-59.0882 47.348499 384.54199 -0.56983399 0.406546 0.71415001 1.905766e-42
-59.3829 45.689701 385.17599 -0.578767 0.389483 0.71647203 1.905766e-42
-59.634201 44.0214 385.80301 -0.58708 0.373171 0.71838701 1.905766e-42
-60.004299 43.000198 385.75201 -0.59286398 0.36287001 0.71891397 1.905766e-42
-60.094101 41.487099 386.72299 -0.59867102 0.34948 0.72073299 1.905766e-42
-60.3363 39.824402 387.36801 -0.60494798 0.33517501 0.72228497 1.905766e-42
-60.643299 38.0774 387.67401 -0.61176801 0.32047299 0.72321302 1.905766e-42
-60.5755 36.585201 388.67899 -0.61346 0.308175 0.72711402 1.905766e-42
-60.7159 34.878502 389.233 -0.61733103 0.29401901 0.72969502 1.905766e-42
-60.8218 33.189999 389.84799 -0.61990702 0.28030899 0.73290002 1.905766e-42
-61.062599 31.408001 389.92899 -0.62464899 0.26651299 0.73401999 1.905766e-42
-61.167099 29.686899 390.44501 -0.625714 0.25345001 0.73772901 1.905766e-42
-61.202499 28.013 391.10599 -0.62453902 0.240832 0.74293399 1.905766e-42
-61.080101 26.3344 391.74399 -0.62144101 0.228282 0.74946499 1.905766e-42
-61.064201 24.625 392.30801 -0.61812299 0.215593 0.75593799 1.905766e-42
-61.039799 22.8944 392.802 -0.61394501 0.204294 0.76245397 1.905766e-42
-60.916599 21.197201 393.38901 -0.60780603 0.192854 0.77031201 1.905766e-42
-60.6502 19.539301 394.03699 -0.60008901 0.180409 0.779324 1.905766e-42
-60.4977 17.817101 394.53799 -0.59258401 0.16769999 0.78785801 1.905766e-42
-60.1567 16.1761 395.19501 -0.58404398 0.15357301 0.79706198 1.905766e-42
-60.051899 14.4172 395.56201 -0.576258 0.14006799 0.80517602 1.905766e-42
-59.875 12.6493 395.85101 -0.56819803 0.12601 0.813187 1.905766e-42
-59.483299 10.9999 396.45599 -0.56074399 0.110073 0.82064003 1.905766e-42
-59.105701 9.3137999 396.95999 -0.55436999 0.095886797 0.82672799 1.905766e-42
-58.927299 7.5353298 397.173 -0.54728299 0.084892303 0.83263099 1.905766e-42
-58.519699 5.8649402 397.70599 -0.54187298 0.071448803 0.83741802 1.905766e-42
-58.273102 4.0851798 397.814 -0.53439897 0.0587545 0.84318799 1.905766e-42
-57.7999 2.4059999 398.25699 -0.529706 0.043352399 0.84707302 1.905766e-42
-57.115799 0.86963099 398.89899 -0.528817 0.0263125 0.84832799 1.905766e-42
-56.924702 -0.92009401 398.879 -0.52073002 0.0113862 0.85364503 1.905766e-42
-56.2756 -2.5211599 399.38501 -0.52039599 -0.0070630298 0.85389602 1.905766e-42
-55.804199 -4.2556701 399.48099 -0.51636499 -0.0243813 0.85602099 1.905766e-42
-55.283401 -5.9563498 399.75699 -0.514597 -0.039946198 0.85650098 1.905766e-42
-54.4613 -7.44734 400.341 -0.51961899 -0.0553925 0.85259998 1.905766e-42
-53.847801 -9.1169796 400.617 -0.51938403 -0.069393903 0.85171902 1.905766e-42
-53.3433 -10.8439 400.672 -0.51516002 -0.081891701 0.85317302 1.905766e-42
-52.740898 -12.5391 400.73199 -0.510423 -0.094410203 0.854725 1.905766e-42
-51.853699 -14.0066 401.27899 -0.50194699 -0.10903 0.85799903 1.905766e-42
-51.249401 -15.7021 401.27899 -0.490307 -0.121108 0.86309397 1.905766e-42
-50.510799 -17.337601 401.41901 -0.480351 -0.134185 0.86675102 1.905766e-42
-49.486698 -18.7365 401.90302 -0.475725 -0.14820001 0.867019 1.905766e-42
-47.9132 -18.6628 402.77399 -0.48078501 -0.153069 0.86337399 1.905766e-42
-46.3386 -18.5574 403.64001 -0.48478699 -0.151939 0.86133403 1.905766e-42
-44.881901 -18.4382 404.69101 -0.46202499 -0.146309 0.87471497 1.905766e-42
-43.250702 -18.65 405.422 -0.42789701 -0.14251199 0.89252198 1.905766e-42
-41.5882 -18.4314 406.07599 -0.39298701 -0.134186 0.90970099 1.905766e-42
-40.100101 -18.4193 407.08899 -0.35965401 -0.125734 0.92457497 1.905766e-42
-38.348202 -18.177401 407.42401 -0.32880899 -0.114887 0.93738198 1.905766e-42
-36.681301 -17.8936 408.04099 -0.30047899 -0.105811 0.94790101 1.905766e-42
-34.961899 -17.8734 408.573 -0.27140501 -0.102233 0.95701998 1.905766e-42
-33.214802 -18.089399 408.94901 -0.240881 -0.104034 0.96496302 1.905766e-42
-31.5443 -17.5833 409.388 -0.212308 -0.104376 0.97161299 1.905766e-42
-29.7843 -17.6539 409.759 -0.20536201 -0.111268 0.972341 1.905766e-42
-28.108 -17.1325 410.15701 -0.20074899 -0.112195 0.97319698 1.905766e-42
-26.368 -16.972099 410.58899 -0.19488201 -0.114192 0.97415698 1.905766e-42
-24.5973 -16.8564 410.89099 -0.18903001 -0.114974 0.97521698 1.905766e-42
-22.859699 -16.6984 411.33301 -0.175148 -0.112935 0.97804302 1.905766e-42
-21.101 -16.6257 411.70999 -0.157206 -0.109331 0.98149502 1.905766e-42
-19.416 -16.047899 411.96799 -0.138327 -0.099567197 0.98536903 1.905766e-42
-17.667 -16.426701 412.16199 -0.121473 -0.0964479 0.98789799 1.905766e-42
-15.8904 -16.7153 412.14499 -0.107828 -0.091039099 0.98999202 1.905766e-42
-14.1104 -16.896999 412.341 -0.10056 -0.0799485 0.991714 1.905766e-42
-12.3215 -16.789301 412.509 -0.0938235 -0.058987699 0.99383998 1.905766e-42
-10.8329 -15.7967 412.707 -0.076417901 -0.027112599 0.99670702 1.905766e-42
-10.3108 -14.084 412.89099 -0.044959798 -0.0046555898 0.99897802 1.905766e-42
-9.6891899 -12.3971 412.802 -0.0071971202 0.0176234 0.99981898 1.905766e-42
-9.4183702 -10.6189 412.87201 0.0230175 0.033635199 0.99916899 1.905766e-42
-8.3561296 -9.1684504 412.95901 0.05669 0.054746099 0.99689001 1.905766e-42
-8.1907396 -7.40661 412.63 0.075159803 0.068293497 0.99483001 1.905766e-42
-7.53508 -5.7319899 412.55399 0.095644303 0.085210502 0.99176198 1.905766e-42
-6.8848801 -4.06282 412.37799 0.113637 0.102206 0.98825097 1.905766e-42
-6.5300002 -2.3259101 412.06601 0.128327 0.118805 0.98458999 1.905766e-42
-5.9079599 -0.69015503 411.64499 0.14484 0.137702 0.97982597 1.905766e-42
-5.5486798 1.05414 411.383 0.159771 0.149591 0.97575402 1.905766e-42
-5.1177402 2.77543 411.08099 0.172695 0.158895 0.97207499 1.905766e-42
-4.68437 4.4748001 410.67499 0.18224099 0.166058 0.96912998 1.905766e-42
-4.2281699 6.0956202 410.039 0.188161 0.17077699 0.96717697 1.905766e-42
-4.1767602 7.8633499 409.70401 0.184874 0.17476299 0.967098 1.905766e-42
-4.1277599 9.6559496 409.548 0.176975 0.17851099 0.96789098 1.905766e-42
-3.66798 11.3049 408.992 0.16731 0.17784099 0.96973199 1.905766e-42
-3.4540401 13.0446 408.58301 0.150048 0.17837299 0.97245502 1.905766e-42
-3.5185499 14.835 408.409 0.131878 0.191025 0.97268599 1.905766e-42
-3.28442 16.601999 408.15799 0.114628 0.200697 0.97292399 1.905766e-42
-2.9768801 18.336201 407.78601 0.097663701 0.20989899 0.97283298 1.905766e-42
-2.9337699 20.094 407.401 0.083438203 0.221505 0.97158301 1.905766e-42
-2.92786 21.847799 406.996 0.071248896 0.233201 0.96981502 1.905766e-42
-2.6380501 23.530399 406.42599 0.057616498 0.242983 0.96831799 1.905766e-42
-2.84653 25.277399 406.04599 0.051079199 0.25533101 0.96550399 1.905766e-42
-2.7782099 26.9953 405.513 0.042663399 0.26613501 0.962991 1.905766e-42
-2.77426 28.7094 404.96301 0.036738399 0.27862999 0.95969599 1.905766e-42
-2.30407 30.348499 404.38699 0.0269111 0.29067501 0.95644301 1.905766e-42
-2.50529 32.067699 403.89301 0.028202301 0.30410001 0.95222199 1.905766e-42
-2.3357401 33.739899 403.24899 0.026826801 0.31727901 0.94795299 1.905766e-42
-2.3252299 35.4669 402.742 0.0299906 0.330295 0.94340098 1.905766e-42
-2.2577901 37.159302 402.13199 0.0347807 0.343254 0.93859798 1.905766e-42
-2.04127 38.795799 401.41501 0.0401689 0.35671401 0.93335003 1.905766e-42
-2.3455801 40.508701 400.953 0.0536189 0.36693001 0.928702 1.905766e-42
-2.3875401 42.2043 400.35001 0.066273198 0.37811401 0.92338401 1.905766e-42
-2.00739 43.811699 399.63501 0.075960197 0.38841799 0.918347 1.905766e-42
-2.2209599 45.4702 398.96899 0.090453103 0.39463001 0.91437697 1.905766e-42
-2.45941 47.129799 398.314 0.104077 0.400785 0.91024101 1.905766e-42
-2.59096 48.775799 397.59698 0.116226 0.40783799 0.90562701 1.905766e-42
-2.98878 50.381302 396.88699 0.12791701 0.41340899 0.90151501 1.905766e-42
-2.9517801 51.9771 396.05499 0.137786 0.421756 0.89617902 1.905766e-42
-2.90119 53.6105 395.30099 0.147291 0.43013501 0.89066797 1.905766e-42
-2.8806701 55.225498 394.50601 0.156358 0.438438 0.88505602 1.905766e-42
-2.9906199 56.745201 393.548 0.16433001 0.44326401 0.881199 1.905766e-42
-3.5259399 58.365398 392.97501 0.166912 0.444987 0.87984502 1.905766e-42
-3.53442 59.942299 392.10699 0.16937301 0.44923699 0.87721097 1.905766e-42
-3.835 61.6147 391.513 0.16681799 0.45441499 0.87503099 1.905766e-42
-4.0640702 63.239399 390.77301 0.162156 0.46085501 0.872536 1.905766e-42
-4.10077 64.748596 389.79199 0.15701699 0.46758801 0.86988902 1.905766e-42
-4.1370201 66.325401 388.92499 0.149487 0.47502199 0.86718398 1.905766e-42
-4.6181402 67.890701 388.17801 0.136215 0.48527801 0.863684 1.905766e-42
-4.99722 69.484901 387.43301 0.122401 0.49977899 0.85746098 1.905766e-42
-5.28088 70.968803 386.45401 0.108832 0.519274 0.84764999 1.905766e-42
-5.8157201 72.435501 385.55801 0.092709199 0.54051101 0.83621401 1.905766e-42
-6.4042401 73.905998 384.703 0.076052397 0.56237102 0.82337999 1.905766e-42
-6.96767 75.315804 383.73599 0.059780698 0.58434701 0.80929899 1.905766e-42
-7.6826701 76.680099 382.80499 0.043124299 0.60642201 0.79397303 1.905766e-42
-8.4855003 77.979301 381.85199 0.0251648 0.62798703 0.77781701 1.905766e-42
-9.6098299 79.082703 380.98099 -0.00592368 0.64827597 0.76138198 1.905766e-42
-10.3753 80.274902 379.871 -0.0300302 0.66834003 0.743249 1.905766e-42
-11.2196 81.261299 378.625 -0.055932902 0.682154 0.72906601 1.905766e-42
-12.6927 82.071701 377.98199 -0.089780003 0.68879598 0.71937501 1.905766e-42
-13.5831 83.153702 376.85199 -0.115598 0.69209802 0.71248698 1.905766e-42
-14.7662 83.966904 375.76599 -0.14206301 0.69598299 0.70386499 1.905766e-42
-15.9871 84.777496 374.72101 -0.146795 0.70013201 0.69876099 1.905766e-42
-17.255199 85.528702 373.68799 -0.15011901 0.70430499 0.69384301 1.905766e-42
-18.1975 86.501801 372.50201 -0.15436199 0.70825601 0.68887299 1.905766e-42
-19.716299 87.019096 371.686 -0.15558 0.71401298 0.68262702 1.905766e-42
-21.106501 87.582603 370.69101 -0.15810101 0.720851 0.67481798 1.905766e-42
-22.1231 88.789803 369.82599 -0.181638 0.72797602 0.66110402 1.905766e-42
-23.2013 89.177002 368.43701 -0.210411 0.73663998 0.64271998 1.905766e-42
-24.3822 89.784203 367.22198 -0.24103899 0.746526 0.62015998 1.905766e-42
-25.907499 90.006302 366.293 -0.27118599 0.75700998 0.59446901 1.905766e-42
-26.6824 90.563797 364.767 -0.300558 0.76679498 0.567177 1.905766e-42
-28.151199 90.947098 363.79901 -0.32708699 0.777744 0.53677702 1.905766e-42
-29.491199 91.3302 362.66 -0.34505799 0.78795099 0.509969 1.905766e-42
