# .PCD v0.7 - Point Cloud Data file format
# 3 157 0
# 1 52 0
# 53 104 0
# 105 157 0
VERSION 0.7
FIELDS x y z normal_x normal_y normal_z curvature
SIZE 4 4 4 4 4 4 4
TYPE F F F F F F F
COUNT 1 1 1 1 1 1 1
WIDTH 157
HEIGHT 1
VIEWPOINT 0 0 0 1 0 0 0
POINTS 157
DATA ascii
26.9734 85.739197 379.832 0.51422101 -0.77361602 -0.37026399 2.0429577e+26
27.6602 85.503799 381.479 0.52941 -0.758421 -0.380162 2.0429577e+26
28.2784 85.2173 383.146 0.54593498 -0.74235398 -0.38841301 2.0429577e+26
28.6777 84.519096 384.75601 0.54880297 -0.734303 -0.399517 2.0429577e+26
29.145 83.945801 386.397 0.554959 -0.72309297 -0.41128799 2.0429577e+26
29.3379 82.988602 387.909 0.54564399 -0.72133201 -0.42656001 2.0429577e+26
29.9522 82.594398 389.55399 0.55443299 -0.70557898 -0.44131899 2.0429577e+26
30.4097 81.934898 391.16501 0.551561 -0.695351 -0.46072501 2.0429577e+26
30.9107 81.437698 392.82101 0.54860401 -0.68630397 -0.47751501 2.0429577e+26
31.393999 80.774597 394.423 0.54103601 -0.681054 -0.493402 2.0429577e+26
31.8391 79.925499 395.94699 0.529836 -0.679003 -0.50816298 2.0429577e+26
31.9128 78.609901 397.173 0.51091897 -0.685013 -0.51934397 2.0429577e+26
32.204601 77.649002 398.66699 0.49835101 -0.68498802 -0.53144902 2.0429577e+26
32.429798 77.8396 398.80801 0.50150502 -0.68157202 -0.53287202 2.0429577e+26
33.010799 77.273201 400.41501 0.493707 -0.677356 -0.54538298 2.0429577e+26
33.157299 76.037804 401.716 0.478618 -0.67909402 -0.556557 2.0429577e+26
33.545399 75.044701 403.16599 0.46600601 -0.67511499 -0.57189 2.0429577e+26
34.108101 74.227898 404.668 0.45535901 -0.669357 -0.587035 2.0429577e+26
34.650501 73.506203 406.22501 0.44554901 -0.66356498 -0.600972 2.0429577e+26
34.734501 72.154503 407.41101 0.435179 -0.66074902 -0.61158001 2.0429577e+26
35.1483 71.097603 408.80801 0.42789999 -0.65471798 -0.62309402 2.0429577e+26
35.782799 70.411301 410.34601 0.42395601 -0.64738399 -0.63336802 2.0429577e+26
36.145599 69.255096 411.677 0.42112499 -0.63960499 -0.64308602 2.0429577e+26
36.5121 68.127899 413.03201 0.42048499 -0.63011599 -0.65279901 2.0429577e+26
36.916 66.988998 414.366 0.42209801 -0.61925602 -0.66208398 2.0429577e+26
37.229099 65.747704 415.63101 0.425006 -0.60690397 -0.67159301 2.0429577e+26
37.540401 64.484001 416.875 0.42920399 -0.59308898 -0.681198 2.0429577e+26
37.798 63.151402 418.05701 0.43355799 -0.577995 -0.691338 2.0429577e+26
38.353001 62.1563 419.45099 0.44284901 -0.56197298 -0.69862098 2.0429577e+26
38.713001 60.874802 420.66199 0.45038399 -0.546453 -0.70607698 2.0429577e+26
38.922001 59.4375 421.72501 0.45605499 -0.53288001 -0.71277797 2.0429577e+26
39.2658 58.103401 422.884 0.46474901 -0.51753497 -0.71844703 2.0429577e+26
39.798901 57.033199 424.229 0.480156 -0.50000799 -0.72072399 2.0429577e+26
40.103298 55.627899 425.31201 0.48839301 -0.48195601 -0.72745502 2.0429577e+26
40.371201 54.182999 426.35199 0.494845 -0.46309599 -0.73530298 2.0429577e+26
40.680199 52.772598 427.427 0.50221902 -0.44283301 -0.74274802 2.0429577e+26
40.713699 51.149899 428.20499 0.49686599 -0.42809099 -0.75489199 2.0429577e+26
41.2313 49.910999 429.40399 0.51130497 -0.40946999 -0.75558001 2.0429577e+26
41.284698 48.265301 430.13101 0.50115299 -0.40101701 -0.76683199 2.0429577e+26
41.8148 47.0807 431.37799 0.51573998 -0.38284901 -0.76644599 2.0429577e+26
41.911598 45.4146 432.052 0.50247002 -0.376993 -0.77807498 2.0429577e+26
42.036201 43.8204 432.879 0.49104401 -0.37033501 -0.78849697 2.0429577e+26
42.482601 42.466499 433.978 0.49824601 -0.35479501 -0.79111999 2.0429577e+26
42.7244 40.908501 434.84601 0.49146199 -0.34549099 -0.799438 2.0429577e+26
42.878101 39.271301 435.578 0.47667801 -0.339618 -0.81082499 2.0429577e+26
43.078098 37.655701 436.34601 0.46331999 -0.332239 -0.82155401 2.0429577e+26
43.107201 35.957199 436.94199 0.43363401 -0.33127099 -0.83798701 2.0429577e+26
43.493599 34.482101 437.89801 0.445371 -0.30808499 -0.840671 2.0429577e+26
43.486099 32.750401 438.38901 0.43765 -0.28992599 -0.85112 2.0429577e+26
43.575699 31.0452 438.95901 0.42990199 -0.27327701 -0.86052501 2.0429577e+26
43.859001 29.4298 439.70001 0.431831 -0.26149899 -0.86321503 2.0429577e+26
43.667801 27.662701 439.98499 0.41545701 -0.26313499 -0.87072098 2.0429577e+26
44.150398 26.1437 440.82101 0.42597201 -0.25725299 -0.867392 2.0429577e+26
44.2775 24.427999 441.35001 0.42154101 -0.25389999 -0.87053901 2.0429577e+26
44.3769 22.7132 441.888 0.41850701 -0.24651 -0.87411898 2.0429577e+26
44.750301 21.1075 442.61099 0.42917401 -0.231453 -0.87306303 2.0429577e+26
44.5872 19.3214 442.763 0.42325199 -0.20961 -0.88143098 2.0429577e+26
44.942799 17.7164 443.496 0.438986 -0.182238 -0.87981802 2.0429577e+26
44.868301 15.928 443.68701 0.431104 -0.158381 -0.88829303 2.0429577e+26
43.548698 14.8168 443.173 0.38725501 -0.160033 -0.90797698 2.0429577e+26
41.944801 14.5768 442.392 0.35551199 -0.17459001 -0.918221 2.0429577e+26
40.492599 13.5699 442.04999 0.33245999 -0.186748 -0.92444301 2.0429577e+26
38.934502 12.7208 441.74701 0.35655001 -0.170362 -0.918612 2.0429577e+26
37.473598 11.8509 441.15601 0.38123101 -0.155617 -0.91128802 2.0429577e+26
35.8694 11.221 440.63699 0.406721 -0.144032 -0.90212703 2.0429577e+26
34.728901 9.8564701 440.35901 0.42696199 -0.12889101 -0.895037 2.0429577e+26
33.452301 8.70121 439.83401 0.44642499 -0.118543 -0.88693398 2.0429577e+26
32.161999 7.5893102 439.25201 0.46479601 -0.108223 -0.87877899 2.0429577e+26
30.6369 6.9180102 438.57101 0.484604 -0.099286199 -0.86908102 2.0429577e+26
29.423599 5.70609 438.02399 0.50160599 -0.085193701 -0.86089098 2.0429577e+26
28.538401 4.2595701 437.42099 0.511814 -0.072907001 -0.85599703 2.0429577e+26
27.0686 3.4107201 436.82101 0.517847 -0.072199397 -0.85242099 2.0429577e+26
25.8859 2.4763501 435.83701 0.52501798 -0.071865402 -0.84805202 2.0429577e+26
24.373699 2.17751 434.90799 0.536111 -0.0739014 -0.84090602 2.0429577e+26
22.826 1.83163 434.056 0.54962498 -0.074578702 -0.83207601 2.0429577e+26
21.269699 2.1294601 433.203 0.569498 -0.072607003 -0.81878 2.0429577e+26
19.836901 2.30775 432.12799 0.59301001 -0.068748496 -0.80225497 2.0429577e+26
18.608601 3.0318699 431.02899 0.61542398 -0.0658786 -0.785438 2.0429577e+26
17.2596 3.69856 430.04099 0.64011598 -0.061842099 -0.76578498 2.0429577e+26
15.9749 4.4718699 429.04599 0.665097 -0.058144599 -0.74449003 2.0429577e+26
14.7677 5.1270199 427.88199 0.69302601 -0.053589899 -0.71891803 2.0429577e+26
13.7684 5.6175399 426.46799 0.72476798 -0.049340699 -0.68722498 2.0429577e+26
12.5485 6.0903301 425.23099 0.75223601 -0.054928198 -0.6566 2.0429577e+26
11.3258 6.3603301 423.93799 0.77419603 -0.064701602 -0.62963098 2.0429577e+26
10.1556 6.6695099 422.60599 0.79346198 -0.074342303 -0.60406202 2.0429577e+26
9.2759399 7.15836 421.11401 0.81041902 -0.082860902 -0.579961 2.0429577e+26
8.4379902 7.7657099 419.64099 0.82489902 -0.090516299 -0.55798501 2.0429577e+26
7.6669402 8.4795303 418.17899 0.83680201 -0.097631298 -0.53873003 2.0429577e+26
6.7003498 9.0151901 416.759 0.84592402 -0.105068 -0.522852 2.0429577e+26
6.0133901 10.0396 415.448 0.85279602 -0.10766 -0.51102698 2.0429577e+26
5.23142 11.0743 414.19901 0.86024302 -0.10873 -0.49815601 2.0429577e+26
4.8101501 12.3224 412.97299 0.86765999 -0.106769 -0.48555899 2.0429577e+26
4.2719798 13.3843 411.62299 0.87575698 -0.104446 -0.47131801 2.0429577e+26
3.9764199 14.8943 410.68799 0.88183999 -0.098469302 -0.46115199 2.0429577e+26
3.6375 16.3582 409.69699 0.88771099 -0.092603303 -0.45099199 2.0429577e+26
3.1329801 17.5259 408.42401 0.89521199 -0.088499397 -0.436764 2.0429577e+26
2.76074 18.889299 407.30899 0.90128899 -0.086782403 -0.424438 2.0429577e+26
2.2983799 20.2302 406.20099 0.906618 -0.086948499 -0.41289601 2.0429577e+26
1.88772 21.4891 404.98199 0.91158199 -0.088393897 -0.401503 2.0429577e+26
1.36996 22.610399 403.672 0.91651303 -0.090235502 -0.38969299 2.0429577e+26
1.02635 24.0567 402.65701 0.91903299 -0.095491998 -0.382438 2.0429577e+26
0.789428 25.5511 401.68201 0.92070901 -0.102737 -0.37648299 2.0429577e+26
0.58800203 27.011999 400.64999 0.92179698 -0.109486 -0.37189099 2.0429577e+26
0.43925399 28.5702 399.76199 0.92137998 -0.115635 -0.37106299 2.0429577e+26
0.16006701 29.882099 398.561 0.92246598 -0.119347 -0.36716899 2.0429577e+26
-0.20780499 31.059 397.25 0.92416197 -0.121963 -0.36200699 2.0429577e+26
-0.56035501 32.205101 395.90701 0.92583799 -0.124647 -0.35677299 2.0429577e+26
-0.82216501 33.638199 394.85001 0.92581803 -0.130941 -0.35456401 2.0429577e+26
-1.2134 34.843201 393.57101 0.92691702 -0.13503601 -0.350128 2.0429577e+26
-1.48921 36.113602 392.32599 0.927297 -0.14002401 -0.34715101 2.0429577e+26
-2.0121801 36.969799 390.832 0.929474 -0.13942499 -0.34152299 2.0429577e+26
-2.3087101 38.057499 389.42899 0.93039799 -0.141828 -0.338 2.0429577e+26
-2.3622701 39.4263 388.26099 0.92959201 -0.14830799 -0.33743799 2.0429577e+26
-2.7412901 40.3382 386.75601 0.93122202 -0.148919 -0.33263901 2.0429577e+26
-3.30269 40.903702 385.142 0.93393701 -0.14638001 -0.32608899 2.0429577e+26
-3.7125499 41.3074 383.43701 0.93654901 -0.14354201 -0.319801 2.0429577e+26
-3.9268899 42.588799 382.19101 0.93634599 -0.149883 -0.31747499 2.0429577e+26
-4.3090601 43.523602 380.70099 0.93751401 -0.15719 -0.310417 2.0429577e+26
-4.7204099 44.329498 379.14499 0.93848801 -0.164405 -0.303662 2.0429577e+26
-4.9516802 45.237701 377.608 0.93865901 -0.174036 -0.297708 2.0429577e+26
-5.31534 46.014301 376.02499 0.93860501 -0.183405 -0.29220399 2.0429577e+26
-6.0337801 45.8773 374.38101 0.93940997 -0.184002 -0.28922799 2.0429577e+26
-6.2474399 46.689098 372.78799 0.93803501 -0.196217 -0.28563899 2.0429577e+26
-6.6366601 46.976299 371.05499 0.93660098 -0.20333201 -0.285366 2.0429577e+26
-7.1799302 47.177502 369.35001 0.93365699 -0.193376 -0.30148 2.0429577e+26
-7.5827799 47.672699 367.66699 0.93143898 -0.185186 -0.313252 2.0429577e+26
-7.7898202 48.682999 366.19199 0.93188602 -0.17659 -0.31686801 2.0429577e+26
-7.51372 50.432598 366.513 0.92858702 -0.17398 -0.32780701 2.0429577e+26
-6.8539801 51.992599 367.12201 0.92368698 -0.177563 -0.33951899 2.0429577e+26
-6.51964 53.671001 367.67999 0.91906297 -0.18295901 -0.34907001 2.0429577e+26
-5.93857 55.268299 368.272 0.91418898 -0.19244801 -0.35668299 2.0429577e+26
-5.3021402 56.659901 369.22 0.90794498 -0.21068101 -0.362284 2.0429577e+26
-4.5973501 58.143902 369.95599 0.893094 -0.249836 -0.37411901 2.0429577e+26
-4.1409101 59.876099 370.13199 0.87450099 -0.29613599 -0.38412401 2.0429577e+26
-3.1354301 61.180801 370.858 0.85814601 -0.34894899 -0.376589 2.0429577e+26
-2.2086201 62.487099 371.67899 0.840361 -0.405435 -0.35974401 2.0429577e+26
-1.19609 63.573799 372.69601 0.81995398 -0.45785499 -0.343575 2.0429577e+26
-0.273967 65.082001 373.035 0.78905499 -0.51513398 -0.33470899 2.0429577e+26
0.87437701 66.251404 373.77899 0.76264799 -0.55623102 -0.33011299 2.0429577e+26
2.0838799 67.465698 374.32999 0.73503798 -0.59116203 -0.33203399 2.0429577e+26
3.3424301 68.579201 374.97501 0.72197902 -0.60579699 -0.33430001 2.0429577e+26
4.6107602 69.8563 374.99301 0.712506 -0.61730897 -0.33356401 2.0429577e+26
5.83921 70.956497 375.715 0.70294398 -0.62439001 -0.340597 2.0429577e+26
7.1535201 72.123199 376.104 0.69376498 -0.63028902 -0.348463 2.0429577e+26
8.4378204 73.285797 376.59299 0.68053699 -0.637739 -0.36077401 2.0429577e+26
9.6637201 74.601898 376.664 0.664051 -0.65104002 -0.36767101 2.0429577e+26
10.8303 75.967598 376.78299 0.64486402 -0.66854602 -0.370401 2.0429577e+26
12.27 76.921898 377.29001 0.62494099 -0.68735498 -0.370123 2.0429577e+26
13.6347 78.095398 377.26901 0.60091901 -0.71241897 -0.36243099 2.0429577e+26
15.0331 79.2257 377.354 0.568955 -0.74127603 -0.356089 2.0429577e+26
16.571301 80.041801 377.80899 0.53904903 -0.76456499 -0.35336599 2.0429577e+26
18.0728 81.018799 377.98599 0.50744802 -0.78729999 -0.35022101 2.0429577e+26
19.5844 81.9953 377.94901 0.476105 -0.808047 -0.34696299 2.0429577e+26
21.1612 82.792 378.29501 0.47205701 -0.81263399 -0.34174401 2.0429577e+26
22.7913 83.519699 378.52499 0.47565001 -0.81128502 -0.33996099 2.0429577e+26
24.2852 84.518997 378.62299 0.48184401 -0.80627602 -0.34314001 2.0429577e+26
25.8514 85.392502 378.46799 0.496088 -0.79355699 -0.35236901 2.0429577e+26
