# .PCD v0.7 - Point Cloud Data file format
# 1 67 0
# 1 67 0
VERSION 0.7
FIELDS x y z normal_x normal_y normal_z curvature
SIZE 4 4 4 4 4 4 4
TYPE F F F F F F F
COUNT 1 1 1 1 1 1 1
WIDTH 67
HEIGHT 1
VIEWPOINT 0 0 0 1 0 0 0
POINTS 67
DATA ascii
9.3552799 20.039101 354.246 0.35909501 0.64211297 0.67730403 2.0429577e+26
10.5898 20.475 353.01099 0.37683901 0.63603503 0.673388 2.0429577e+26
10.7971 21.728201 351.73599 0.369528 0.63690603 0.67660898 2.0429577e+26
10.6155 23.103001 350.58801 0.35588399 0.64363301 0.67755699 2.0429577e+26
10.3908 24.465401 349.43301 0.34515101 0.65016502 0.67687303 2.0429577e+26
10.2313 25.694401 348.12799 0.34524199 0.64320898 0.68344003 2.0429577e+26
10.4182 25.808201 348.077 0.346708 0.64252502 0.68334198 2.0429577e+26
10.5232 27.1014 346.82901 0.347882 0.63634402 0.68850899 2.0429577e+26
10.6492 28.3717 345.56 0.34604901 0.63056397 0.694722 2.0429577e+26
10.8125 29.632999 344.28699 0.34249201 0.61612201 0.70929098 2.0429577e+26
11.0007 31.016899 343.151 0.332737 0.59853101 0.72872901 2.0429577e+26
11.2951 32.314999 341.939 0.31680799 0.57810497 0.75194901 2.0429577e+26
11.5202 33.719799 340.83701 0.302789 0.56372601 0.76846099 2.0429577e+26
11.8368 35.088902 339.71201 0.289206 0.56237102 0.77465999 2.0429577e+26
12.0053 36.52 338.633 0.27419201 0.56120402 0.78094 2.0429577e+26
12.4968 37.807598 337.47501 0.25521001 0.55209303 0.793764 2.0429577e+26
13.0983 39.064201 336.336 0.227864 0.53233498 0.81528997 2.0429577e+26
13.1132 40.658199 335.49899 0.206265 0.52260703 0.82724702 2.0429577e+26
13.7853 42.021301 334.535 0.191523 0.51207101 0.837318 2.0429577e+26
14.4556 43.3619 333.53799 0.179021 0.505512 0.84404302 2.0429577e+26
15.3875 44.5299 332.535 0.17121699 0.49135801 0.853962 2.0429577e+26
15.7756 46.105099 331.755 0.165391 0.47508499 0.86425698 2.0429577e+26
16.6828 47.190701 330.642 0.163821 0.461395 0.871939 2.0429577e+26
16.570499 48.889 330.056 0.163665 0.45504701 0.87529802 2.0429577e+26
16.508699 50.489101 329.23401 0.16979299 0.470027 0.86616701 2.0429577e+26
14.958 51.379902 329.02899 0.166648 0.46835399 0.86768299 2.0429577e+26
13.2859 51.998001 328.78 0.15142301 0.456828 0.87657201 2.0429577e+26
11.5616 52.054901 329.29401 0.181655 0.451956 0.87334901 2.0429577e+26
9.8083 52.3465 329.578 0.214057 0.45270699 0.86558402 2.0429577e+26
8.0592203 52.3582 330.00299 0.24661499 0.45620599 0.85501897 2.0429577e+26
6.3490901 52.842602 330.28799 0.28091601 0.457903 0.84345198 2.0429577e+26
4.6908898 53.520699 330.46201 0.32284001 0.459012 0.82769698 2.0429577e+26
3.0190101 53.8979 331.013 0.36355299 0.465864 0.80672097 2.0429577e+26
1.4342999 54.740898 331.147 0.393428 0.473939 0.78777897 2.0429577e+26
-0.176267 55.370998 331.646 0.42719799 0.47791401 0.767528 2.0429577e+26
-1.73712 56.047298 332.23401 0.45204499 0.47932601 0.75226498 2.0429577e+26
-3.3100901 56.9123 332.367 0.47773299 0.47708699 0.73767197 2.0429577e+26
-4.7002702 57.898499 332.94601 0.499643 0.475914 0.72378403 2.0429577e+26
-6.22051 58.682201 333.50699 0.507864 0.489259 0.70901299 2.0429577e+26
-7.7943902 59.417099 333.979 0.483172 0.52725601 0.69896102 2.0429577e+26
-8.1577396 58.175701 335.23001 0.49950701 0.53931701 0.67796099 2.0429577e+26
-7.9349098 56.697601 336.233 0.55518699 0.50936699 0.65750402 2.0429577e+26
-7.90379 55.263302 337.32001 0.568896 0.50776702 0.64693898 2.0429577e+26
-7.59899 53.7738 338.284 0.57413203 0.49854201 0.64948303 2.0429577e+26
-7.2682099 52.233601 339.155 0.56641001 0.488583 0.66367602 2.0429577e+26
-7.21664 50.706799 340.10699 0.54550701 0.48168299 0.68585998 2.0429577e+26
-6.50664 49.157799 340.68701 0.52940798 0.49052599 0.69217902 2.0429577e+26
-6.1838698 47.5098 341.33499 0.513372 0.497475 0.69926298 2.0429577e+26
-5.4308801 46.048401 342.06799 0.50936103 0.50283498 0.69836098 2.0429577e+26
-4.49576 44.5881 342.54999 0.51894403 0.50517499 0.68956101 2.0429577e+26
-4.33988 43.063801 343.495 0.50569803 0.51370299 0.693093 2.0429577e+26
-4.0042701 41.487499 344.297 0.499376 0.52208197 0.691414 2.0429577e+26
-3.0559499 40.071301 344.87601 0.51047099 0.529311 0.677679 2.0429577e+26
-2.4918201 38.565102 345.68399 0.507043 0.54135901 0.67070001 2.0429577e+26
-2.63377 37.1007 346.72101 0.48399201 0.55620497 0.675565 2.0429577e+26
-1.7558399 35.704102 347.44101 0.48855001 0.57065099 0.66005701 2.0429577e+26
-1.53434 34.2206 348.436 0.47640699 0.58348 0.657713 2.0429577e+26
-1.11288 32.809898 349.47198 0.47255599 0.58298498 0.660923 2.0429577e+26
-0.359705 31.385401 350.27399 0.48467401 0.58085603 0.65398598 2.0429577e+26
0.26125601 29.9184 351.112 0.49476099 0.57864398 0.64836901 2.0429577e+26
0.73873901 28.417801 351.98401 0.495426 0.582771 0.64415097 2.0429577e+26
1.8624099 27.0863 352.436 0.49689701 0.58975101 0.63662201 2.0429577e+26
2.60848 25.6509 353.22501 0.48640499 0.59905702 0.63603503 2.0429577e+26
3.9477201 24.4529 353.33099 0.47837701 0.60975802 0.63194102 2.0429577e+26
5.1611099 23.1689 353.67599 0.46288201 0.61800402 0.63546199 2.0429577e+26
6.2376299 21.802601 354.13901 0.42110899 0.62836301 0.65408498 2.0429577e+26
7.71176 20.770901 354.18799 0.371865 0.63995999 0.67243397 2.0429577e+26
