# .PCD v0.7 - Point Cloud Data file format
# 4 209 0
# 1 52 0
# 53 104 0
# 105 156 0
# 157 209 0
VERSION 0.7
FIELDS x y z normal_x normal_y normal_z curvature
SIZE 4 4 4 4 4 4 4
TYPE F F F F F F F
COUNT 1 1 1 1 1 1 1
WIDTH 209
HEIGHT 1
VIEWPOINT 0 0 0 1 0 0 0
POINTS 209
DATA ascii
65.039703 -52.562801 401.70401 -0.29426199 -0.239737 -0.92516798 2.0429577e+26
63.3904 -52.483898 402.42099 -0.29713401 -0.235956 -0.92522198 2.0429577e+26
61.8209 -53.029999 403.11301 -0.29916799 -0.23281001 -0.92536402 2.0429577e+26
60.110001 -52.588299 403.45599 -0.304295 -0.22859 -0.92474401 2.0429577e+26
58.4184 -52.631901 404.069 -0.306081 -0.225806 -0.92483902 2.0429577e+26
56.849098 -53.055901 404.84201 -0.302324 -0.22515699 -0.92623103 2.0429577e+26
55.1754 -53.473099 405.35699 -0.298531 -0.224409 -0.92764199 2.0429577e+26
53.457901 -53.5033 405.89499 -0.294806 -0.22366101 -0.92901301 2.0429577e+26
51.7341 -53.397301 406.40201 -0.29121 -0.22290801 -0.930327 2.0429577e+26
50.022499 -53.144699 406.89899 -0.287781 -0.222178 -0.93156803 2.0429577e+26
48.309299 -53.225498 407.44501 -0.28426301 -0.221385 -0.932836 2.0429577e+26
46.767799 -53.9133 408.07001 -0.28088301 -0.22061101 -0.93404198 2.0429577e+26
45.060101 -53.423302 408.35901 -0.275103 -0.221008 -0.93566799 2.0429577e+26
43.318802 -53.209999 408.76199 -0.267901 -0.221775 -0.93757403 2.0429577e+26
41.693699 -53.675201 409.38 -0.26132199 -0.222518 -0.93925297 2.0429577e+26
39.993 -53.851601 409.94299 -0.25456101 -0.22355799 -0.94086099 2.0429577e+26
38.264702 -53.995098 410.42499 -0.247971 -0.224875 -0.942307 2.0429577e+26
36.587502 -54.389 410.94699 -0.241862 -0.225687 -0.943699 2.0429577e+26
34.895699 -54.653099 411.50201 -0.2351 -0.22360601 -0.94590098 2.0429577e+26
34.008301 -54.319199 411.47198 -0.231971 -0.225022 -0.94633698 2.0429577e+26
32.269199 -54.459702 411.914 -0.226952 -0.222982 -0.94803602 2.0429577e+26
30.5413 -54.560501 412.409 -0.22376899 -0.22051699 -0.949368 2.0429577e+26
29.0569 -55.366402 413.03101 -0.22033501 -0.214889 -0.95145899 2.0429577e+26
27.302799 -55.089901 413.32501 -0.217684 -0.214048 -0.952259 2.0429577e+26
25.735399 -55.737301 413.92801 -0.21419901 -0.208772 -0.95421797 2.0429577e+26
23.954901 -55.5667 414.13 -0.21149901 -0.207155 -0.95517302 2.0429577e+26
22.221001 -55.853802 414.51901 -0.20813499 -0.20302901 -0.95679599 2.0429577e+26
20.5804 -56.335098 415.08099 -0.204317 -0.197577 -0.958758 2.0429577e+26
18.8766 -56.712101 415.52301 -0.200084 -0.192331 -0.96071601 2.0429577e+26
17.1229 -56.835602 415.91 -0.19417 -0.18832199 -0.96272099 2.0429577e+26
15.3584 -56.910999 416.25699 -0.188122 -0.18420599 -0.96471697 2.0429577e+26
13.7143 -57.405499 416.798 -0.18119299 -0.177618 -0.96727502 2.0429577e+26
12.0429 -57.9813 417.13699 -0.173903 -0.170488 -0.96989298 2.0429577e+26
10.2644 -57.917801 417.40701 -0.16769101 -0.166087 -0.97174799 2.0429577e+26
8.6059799 -58.532799 417.741 -0.160006 -0.158097 -0.97437298 2.0429577e+26
6.9832802 -59.2145 418.117 -0.15205599 -0.14950199 -0.977 2.0429577e+26
5.21245 -59.290401 418.431 -0.145411 -0.143465 -0.97891402 2.0429577e+26
3.5845301 -59.901501 418.896 -0.135726 -0.135226 -0.981475 2.0429577e+26
1.84373 -60.2337 419.211 -0.126689 -0.12911899 -0.98350298 2.0429577e+26
0.162361 -59.5952 419.284 -0.121063 -0.130703 -0.98400199 2.0429577e+26
-0.81386697 -58.103401 419.03601 -0.118451 -0.14094 -0.982907 2.0429577e+26
-1.64744 -56.511398 418.93201 -0.114912 -0.152972 -0.98152697 2.0429577e+26
-2.2242401 -54.8321 418.63699 -0.111531 -0.166253 -0.97975498 2.0429577e+26
-2.32849 -53.0527 418.38699 -0.110432 -0.179922 -0.97746199 2.0429577e+26
-3.3209701 -51.558498 418.237 -0.104049 -0.19102 -0.97605598 2.0429577e+26
-3.9431801 -49.885101 418.008 -0.100194 -0.202296 -0.974186 2.0429577e+26
-4.54703 -48.218899 417.69299 -0.097338498 -0.21206599 -0.97239602 2.0429577e+26
-4.9222202 -46.490398 417.35901 -0.097841904 -0.220698 -0.97042203 2.0429577e+26
-5.82693 -44.956501 417.09698 -0.103025 -0.22331899 -0.96928602 2.0429577e+26
-7.1992798 -43.7976 416.98001 -0.105612 -0.221075 -0.96952099 2.0429577e+26
-7.96205 -42.2033 416.63901 -0.111044 -0.221766 -0.96875602 2.0429577e+26
-9.0866299 -40.818001 416.40201 -0.11387 -0.21946099 -0.96895301 2.0429577e+26
-9.7958698 -39.185299 416.13501 -0.119513 -0.224108 -0.96720898 2.0429577e+26
-10.6504 -37.6222 415.87701 -0.123054 -0.229983 -0.96538401 2.0429577e+26
-11.7468 -36.204498 415.70999 -0.124331 -0.235687 -0.96384299 2.0429577e+26
-12.2432 -34.500099 415.41199 -0.127583 -0.246365 -0.96074301 2.0429577e+26
-13.4368 -33.180401 415.14099 -0.12741899 -0.25348601 -0.95890999 2.0429577e+26
-13.9474 -31.509199 414.70901 -0.12961701 -0.26512101 -0.95546299 2.0429577e+26
-14.6576 -29.899 414.33099 -0.12673301 -0.27649 -0.95262402 2.0429577e+26
-15.6746 -28.4445 414.03101 -0.116819 -0.287027 -0.950773 2.0429577e+26
-16.68 -26.9655 413.827 -0.108245 -0.29697099 -0.94873101 2.0429577e+26
-16.9568 -25.2607 413.32001 -0.107327 -0.308606 -0.94511497 2.0429577e+26
-17.257999 -23.560301 412.81201 -0.106628 -0.31930801 -0.94163299 2.0429577e+26
-18.284401 -22.1688 412.311 -0.099913403 -0.32367501 -0.94087797 2.0429577e+26
-19.0263 -20.6094 411.80399 -0.095389701 -0.32585099 -0.94059598 2.0429577e+26
-19.5966 -18.973801 411.314 -0.092421703 -0.32815099 -0.94009298 2.0429577e+26
-20.143299 -17.290701 410.98499 -0.089796104 -0.33048901 -0.93952799 2.0429577e+26
-20.261499 -15.6218 410.32101 -0.089768298 -0.333094 -0.93861097 2.0429577e+26
-20.9044 -14.0361 409.76199 -0.087046199 -0.335522 -0.93800199 2.0429577e+26
-22.034201 -12.6928 409.36401 -0.082224399 -0.33747801 -0.93773502 2.0429577e+26
-22.0284 -10.9797 408.811 -0.082776599 -0.34029299 -0.93666899 2.0429577e+26
-22.585501 -9.3243704 408.37601 -0.080831602 -0.34291101 -0.935884 2.0429577e+26
-22.677799 -7.6424098 407.741 -0.080806702 -0.345745 -0.934843 2.0429577e+26
-22.632099 -5.9720402 407.07199 -0.080996603 -0.34715399 -0.934304 2.0429577e+26
-22.344299 -4.31633 406.427 -0.082213499 -0.34773901 -0.93397999 2.0429577e+26
-21.5373 -2.8234601 405.827 -0.085482299 -0.34831601 -0.93347102 2.0429577e+26
-21.779499 -1.14877 405.21399 -0.085349202 -0.34867999 -0.93334699 2.0429577e+26
-21.535601 0.49732199 404.52701 -0.087191299 -0.34909201 -0.93302298 2.0429577e+26
-21.0261 2.09761 403.88 -0.090089999 -0.34961799 -0.93255103 2.0429577e+26
-20.379299 3.6447999 403.22501 -0.093570396 -0.350265 -0.93196499 2.0429577e+26
-19.636299 5.1607499 402.60101 -0.0974648 -0.35102901 -0.93127799 2.0429577e+26
-18.6971 6.5805502 402.01599 -0.102035 -0.351987 -0.93042701 2.0429577e+26
-17.816 8.0167503 401.383 -0.106758 -0.35390899 -0.92916697 2.0429577e+26
-17.4041 9.70189 400.90302 -0.110099 -0.35764799 -0.92734402 2.0429577e+26
-16.6092 11.1168 400.12399 -0.114278 -0.36147201 -0.92535299 2.0429577e+26
-15.474 12.3307 399.43301 -0.119069 -0.36488 -0.92341 2.0429577e+26
-14.8547 13.8833 398.76501 -0.121892 -0.36861899 -0.92155403 2.0429577e+26
-14.2938 15.5376 398.33099 -0.124003 -0.37241301 -0.91974598 2.0429577e+26
-13.0172 16.682301 397.78299 -0.128318 -0.37505099 -0.91807997 2.0429577e+26
-11.7746 17.667999 396.93201 -0.132597 -0.37732199 -0.91654003 2.0429577e+26
-10.4837 18.475599 395.97198 -0.13721301 -0.37897199 -0.91517901 2.0429577e+26
-9.7204704 19.9802 395.345 -0.13910601 -0.382025 -0.91362298 2.0429577e+26
-8.8279896 21.3892 394.668 -0.141886 -0.38705999 -0.91107202 2.0429577e+26
-7.37183 22.194 393.98099 -0.148578 -0.39202601 -0.90787703 2.0429577e+26
-5.9233499 23.109501 393.42999 -0.155938 -0.39728999 -0.904347 2.0429577e+26
-4.6533799 24.229601 392.82001 -0.16300701 -0.40378001 -0.900217 2.0429577e+26
-3.26401 25.1448 392.13199 -0.171817 -0.409073 -0.89617997 2.0429577e+26
-2.1543801 26.340799 391.37201 -0.17860299 -0.41621599 -0.89155197 2.0429577e+26
-0.976394 27.4519 390.586 -0.179543 -0.42459801 -0.88740098 2.0429577e+26
0.049545199 28.677401 389.758 -0.180544 -0.43334699 -0.88295698 2.0429577e+26
1.03512 29.932501 388.92499 -0.18126801 -0.442067 -0.87847501 2.0429577e+26
2.20806 31.000401 388.07401 -0.18139599 -0.44980401 -0.87451297 2.0429577e+26
3.2014999 32.301201 387.32599 -0.181072 -0.45807099 -0.870278 2.0429577e+26
4.4944601 33.275902 386.539 -0.180998 -0.47159499 -0.86303997 2.0429577e+26
5.8937802 34.079601 385.742 -0.180511 -0.48388299 -0.856314 2.0429577e+26
7.02106 35.160301 384.84698 -0.17983501 -0.499152 -0.84764802 2.0429577e+26
7.5677199 36.658798 384.013 -0.179057 -0.51804698 -0.83639997 2.0429577e+26
8.8187399 37.5116 383.039 -0.177046 -0.53143603 -0.82839 2.0429577e+26
9.4628 38.883598 382.06799 -0.174686 -0.54989898 -0.81675899 2.0429577e+26
10.1772 40.137402 380.992 -0.17131799 -0.56782597 -0.80512297 2.0429577e+26
10.8285 41.378799 379.86301 -0.16696499 -0.585976 -0.79294002 2.0429577e+26
11.2881 42.684399 378.71201 -0.16169199 -0.60514599 -0.779522 2.0429577e+26
11.4868 44.125301 377.65201 -0.15574899 -0.62865001 -0.76193303 2.0429577e+26
11.5911 45.493198 376.487 -0.149929 -0.66434401 -0.73223501 2.0429577e+26
11.9949 46.7173 375.23001 -0.144182 -0.694287 -0.70510799 2.0429577e+26
11.7024 48.0923 374.10599 -0.14097901 -0.72154897 -0.677858 2.0429577e+26
11.7395 49.3046 372.776 -0.138373 -0.74499798 -0.65255702 2.0429577e+26
12.0066 50.491798 371.45001 -0.13682801 -0.76498199 -0.62935001 2.0429577e+26
12.6972 51.151402 369.92401 -0.135244 -0.78127497 -0.60935801 2.0429577e+26
12.7024 52.377602 368.60599 -0.137666 -0.796785 -0.58837301 2.0429577e+26
13.1999 53.324501 367.15799 -0.139799 -0.81060302 -0.56866401 2.0429577e+26
14.6305 53.649899 366.116 -0.137117 -0.82091802 -0.55433899 2.0429577e+26
15.8112 54.270599 364.90701 -0.137027 -0.832591 -0.536672 2.0429577e+26
17.470501 54.417198 364.22501 -0.138992 -0.83937299 -0.52548403 2.0429577e+26
19.134399 54.682098 363.59201 -0.14053801 -0.84190601 -0.52100301 2.0429577e+26
20.876699 54.230801 363.564 -0.1417 -0.84121197 -0.52180898 2.0429577e+26
22.5548 53.748501 364.00201 -0.14405499 -0.83543801 -0.53036898 2.0429577e+26
24.032 52.967201 364.67001 -0.14975999 -0.82321697 -0.54761797 2.0429577e+26
25.5767 52.315498 365.32599 -0.15696099 -0.80985898 -0.56523597 2.0429577e+26
26.966499 51.4814 366.108 -0.166186 -0.79343402 -0.58552998 2.0429577e+26
28.611601 50.838299 366.45499 -0.175878 -0.77945 -0.60127002 2.0429577e+26
30.1719 50.083599 366.94101 -0.191204 -0.76275599 -0.61777401 2.0429577e+26
31.751101 49.310398 367.32599 -0.20575599 -0.74676502 -0.63246 2.0429577e+26
33.3377 48.539398 367.68399 -0.219659 -0.731215 -0.64581299 2.0429577e+26
35.066601 48.051102 367.57101 -0.231581 -0.72112298 -0.65295601 2.0429577e+26
36.768299 47.4669 367.625 -0.243843 -0.70944703 -0.66123098 2.0429577e+26
38.422798 46.773201 367.772 -0.25604999 -0.69683099 -0.66997302 2.0429577e+26
40.140598 46.262402 367.60501 -0.267079 -0.68782902 -0.67495197 2.0429577e+26
41.876801 45.973801 367.22699 -0.271164 -0.68331999 -0.67789698 2.0429577e+26
43.5345 45.2831 367.104 -0.272199 -0.67548901 -0.68528903 2.0429577e+26
45.240101 44.9482 366.63699 -0.27136701 -0.671655 -0.689376 2.0429577e+26
46.0308 43.687401 367.64899 -0.276748 -0.65532398 -0.702824 2.0429577e+26
45.834301 42.442501 368.935 -0.28171799 -0.638767 -0.71596903 2.0429577e+26
46.379002 41.055302 369.944 -0.285357 -0.62008899 -0.73079401 2.0429577e+26
47.231098 39.7029 370.772 -0.28803599 -0.601457 -0.74517399 2.0429577e+26
47.679298 38.251202 371.737 -0.289489 -0.57994002 -0.76148897 2.0429577e+26
48.879101 37.057301 372.349 -0.290775 -0.56231099 -0.77411598 2.0429577e+26
49.547901 35.521099 373.00699 -0.290353 -0.53908497 -0.790622 2.0429577e+26
50.3689 34.052101 373.646 -0.288885 -0.51500601 -0.80703998 2.0429577e+26
51.4519 32.736801 374.22601 -0.29023001 -0.503757 -0.813631 2.0429577e+26
52.732399 31.489901 374.44 -0.29493201 -0.49344099 -0.81824899 2.0429577e+26
54.2938 30.5966 374.37701 -0.30255601 -0.485787 -0.82004303 2.0429577e+26
55.875301 29.737 374.39001 -0.31024599 -0.477997 -0.82174599 2.0429577e+26
56.976898 28.351101 374.715 -0.31600699 -0.46583301 -0.82652199 2.0429577e+26
58.165798 27.028099 374.991 -0.322009 -0.45466599 -0.83041501 2.0429577e+26
59.621399 25.969101 374.991 -0.329243 -0.44665101 -0.831927 2.0429577e+26
61.2033 25.1103 374.983 -0.33693299 -0.44051799 -0.83211797 2.0429577e+26
62.062801 23.566 375.32401 -0.34065801 -0.43046999 -0.83585101 2.0429577e+26
63.2952 22.263599 375.48199 -0.34457999 -0.42401299 -0.83754301 2.0429577e+26
64.679298 21.1129 375.47501 -0.347332 -0.42029199 -0.83828098 2.0429577e+26
65.611298 19.6124 375.82101 -0.34796 -0.41467899 -0.84081203 2.0429577e+26
66.867599 18.3291 375.944 -0.35024899 -0.411533 -0.841407 2.0429577e+26
67.981598 16.9319 376.16 -0.35192701 -0.40841001 -0.842228 2.0429577e+26
68.8629 15.4127 376.55399 -0.352375 -0.40516701 -0.843606 2.0429577e+26
70.480103 14.659 376.31601 -0.35793099 -0.40587699 -0.840922 2.0429577e+26
71.846397 13.4942 376.18799 -0.36214599 -0.405451 -0.83932102 2.0429577e+26
73.242699 12.3599 376.125 -0.366528 -0.40526599 -0.837506 2.0429577e+26
74.600998 11.1818 376.04099 -0.364191 -0.40634301 -0.83800399 2.0429577e+26
75.961304 10.0032 376.02399 -0.362486 -0.40511501 -0.83933598 2.0429577e+26
77.537201 9.2100296 375.66699 -0.36178899 -0.404733 -0.83982098 2.0429577e+26
78.290398 7.6354899 376.10699 -0.36101201 -0.399562 -0.842628 2.0429577e+26
78.110703 6.0584502 376.95599 -0.36030999 -0.39351401 -0.84576797 2.0429577e+26
77.901299 4.46071 377.758 -0.35945299 -0.387714 -0.84880602 2.0429577e+26
77.816101 2.8210199 378.495 -0.358652 -0.38214499 -0.85166597 2.0429577e+26
77.693298 1.23471 379.33701 -0.35766599 -0.37682801 -0.85444498 2.0429577e+26
77.798698 -0.35972399 380.16599 -0.35703301 -0.37177601 -0.85691899 2.0429577e+26
77.869102 -2.04301 380.79901 -0.35649499 -0.36697 -0.85921198 2.0429577e+26
78.296501 -3.7241199 381.28 -0.356931 -0.36260599 -0.86088198 2.0429577e+26
78.379402 -5.4100199 381.90601 -0.356213 -0.356778 -0.86361003 2.0429577e+26
78.968903 -7.0576 382.327 -0.357081 -0.35106099 -0.865592 2.0429577e+26
79.502197 -8.7229004 382.754 -0.35790601 -0.34530699 -0.86756402 2.0429577e+26
79.671997 -10.4232 383.32001 -0.35771099 -0.33940399 -0.86997002 2.0429577e+26
80.083 -12.0699 383.92001 -0.35801101 -0.33385301 -0.87199199 2.0429577e+26
80.205902 -13.7513 384.55099 -0.35743499 -0.32842499 -0.87428701 2.0429577e+26
80.136902 -15.4465 385.15201 -0.35622701 -0.32325399 -0.87670398 2.0429577e+26
80.067001 -17.1628 385.69 -0.35482699 -0.31840599 -0.87904203 2.0429577e+26
80.122398 -18.856899 386.29599 -0.35332799 -0.313963 -0.88124198 2.0429577e+26
79.772499 -20.476 387 -0.350638 -0.309809 -0.88378298 2.0429577e+26
79.705803 -22.1544 387.647 -0.348517 -0.30672199 -0.88569599 2.0429577e+26
79.624298 -23.829 388.302 -0.34618899 -0.303592 -0.887685 2.0429577e+26
78.563301 -25.0404 389.10599 -0.34278801 -0.299961 -0.89023602 2.0429577e+26
78.3358 -26.7255 389.69601 -0.34030899 -0.29649901 -0.892344 2.0429577e+26
77.964203 -28.344801 390.38901 -0.33763301 -0.29279 -0.89458299 2.0429577e+26
77.758797 -30.003401 391.05801 -0.33507299 -0.28911299 -0.89673799 2.0429577e+26
77.330902 -31.592199 391.78799 -0.332407 -0.28510901 -0.89901 2.0429577e+26
76.353302 -32.914299 392.51999 -0.32987899 -0.28079599 -0.90129602 2.0429577e+26
76.107201 -34.593601 393.11899 -0.327427 -0.27673101 -0.90344399 2.0429577e+26
75.598602 -36.205002 393.73999 -0.32520801 -0.27375901 -0.90515 2.0429577e+26
74.923103 -37.672298 394.534 -0.322788 -0.27088699 -0.90687799 2.0429577e+26
73.632401 -38.745499 395.18399 -0.320595 -0.26744601 -0.90867603 2.0429577e+26
73.106499 -40.347801 395.81299 -0.317599 -0.26442701 -0.91060901 2.0429577e+26
72.235001 -41.7612 396.508 -0.31458199 -0.260822 -0.91269398 2.0429577e+26
71.434998 -43.197201 397.241 -0.31134799 -0.25709999 -0.91485602 2.0429577e+26
70.047302 -44.116501 397.92599 -0.30920401 -0.25255501 -0.91684699 2.0429577e+26
69.5914 -45.6735 398.70599 -0.30549499 -0.24899 -0.91906297 2.0429577e+26
68.476196 -46.946098 399.32001 -0.302672 -0.24426299 -0.92126298 2.0429577e+26
67.553101 -48.348301 399.96899 -0.30004701 -0.241889 -0.92274702 2.0429577e+26
66.348297 -49.5317 400.59201 -0.29877099 -0.240201 -0.92360097 2.0429577e+26
66.110497 -51.226799 401.14899 -0.29556799 -0.24095 -0.92443699 2.0429577e+26
