# .PCD v0.7 - Point Cloud Data file format
# 3 156 0
# 1 52 0
# 53 104 0
# 105 156 0
VERSION 0.7
FIELDS x y z normal_x normal_y normal_z curvature
SIZE 4 4 4 4 4 4 4
TYPE F F F F F F F
COUNT 1 1 1 1 1 1 1
WIDTH 156
HEIGHT 1
VIEWPOINT 0 0 0 1 0 0 0
POINTS 156
DATA ascii
-43.187199 12.7425 391.55399 -0.295445 0.19315401 0.93563002 2.0429577e+26
-41.692101 11.8988 392.095 -0.28942701 0.17570101 0.94093603 2.0429577e+26
-39.933201 11.9544 392.474 -0.27263999 0.156306 0.94933403 2.0429577e+26
-38.308498 12.5133 393.01001 -0.254206 0.143629 0.95642602 2.0429577e+26
-36.6604 13.0792 393.461 -0.22990701 0.130952 0.96436203 2.0429577e+26
-34.882401 13.1703 393.72699 -0.197606 0.113593 0.97367799 2.0429577e+26
-33.185299 13.6822 394.04001 -0.173934 0.103597 0.97929299 2.0429577e+26
-31.4032 13.8102 394.258 -0.147958 0.092915401 0.98461902 2.0429577e+26
-29.7068 14.3578 394.508 -0.126222 0.0903605 0.98787802 2.0429577e+26
-27.9086 14.3967 394.57901 -0.098617099 0.085043803 0.991485 2.0429577e+26
-26.18 14.8817 394.70801 -0.069054298 0.084377304 0.99403799 2.0429577e+26
-24.3818 14.8859 394.78799 -0.036678098 0.079504304 0.99615902 2.0429577e+26
-22.5965 15.0693 394.64999 -0.0048705302 0.076851502 0.99703097 2.0429577e+26
-20.8479 15.4818 394.76099 0.0243669 0.076392598 0.99677998 2.0429577e+26
-19.0949 15.8899 394.737 0.044494402 0.0775958 0.995992 2.0429577e+26
-17.3083 16.0879 394.642 0.0660768 0.078494899 0.99472201 2.0429577e+26
-15.5299 16.2103 394.39301 0.088403396 0.080123603 0.99285698 2.0429577e+26
-13.747 16.3445 394.185 0.111412 0.082820103 0.99031699 2.0429577e+26
-11.9953 16.7355 394.048 0.123611 0.087645903 0.98845297 2.0429577e+26
-10.2363 17.0499 393.83099 0.13431001 0.091311596 0.98672301 2.0429577e+26
-8.4914598 16.730101 393.526 0.14416701 0.0906194 0.98539501 2.0429577e+26
-6.74405 16.7544 393.09399 0.154081 0.091557197 0.98380703 2.0429577e+26
-4.9489298 16.830299 392.98599 0.170559 0.0918433 0.981058 2.0429577e+26
-5.2500901 17.172001 393.07401 0.16715901 0.0943527 0.98140502 2.0429577e+26
-3.48069 17.2766 392.76099 0.18589801 0.094539799 0.97801 2.0429577e+26
-1.80205 16.7349 392.40201 0.204264 0.088792801 0.97488099 2.0429577e+26
-0.045745999 17.0082 392.11801 0.22191299 0.087977201 0.97109002 2.0429577e+26
1.66611 16.796 391.603 0.24985901 0.081170201 0.96487403 2.0429577e+26
3.3844399 16.9858 391.10199 0.292485 0.076484904 0.953206 2.0429577e+26
5.1034999 17.0189 390.569 0.33897299 0.070661403 0.93813902 2.0429577e+26
6.7639399 16.9785 389.87601 0.38796401 0.063749798 0.91946697 2.0429577e+26
8.3866997 16.8948 389.10101 0.40263101 0.0627378 0.91320997 2.0429577e+26
10.0791 17.1738 388.55499 0.38709199 0.070012502 0.919379 2.0429577e+26
11.7364 17.223 387.85501 0.37213901 0.078921601 0.924815 2.0429577e+26
13.3415 17.337999 387.048 0.358502 0.091098897 0.92907298 2.0429577e+26
13.8625 19.0159 386.65701 0.36709401 0.096463203 0.92516798 2.0429577e+26
14.2868 20.711599 386.22699 0.37848401 0.110788 0.91895401 2.0429577e+26
14.7094 22.3995 385.76599 0.39003101 0.127978 0.911865 2.0429577e+26
14.7066 24.1994 385.789 0.40023401 0.140634 0.90555799 2.0429577e+26
15.2947 25.7363 385.05899 0.40902999 0.15596201 0.89909399 2.0429577e+26
15.6 27.4305 384.534 0.41607401 0.169172 0.89345598 2.0429577e+26
15.7249 29.2194 384.37799 0.419911 0.181036 0.88932598 2.0429577e+26
15.8083 30.9839 384.03201 0.421758 0.194268 0.88565302 2.0429577e+26
16.2696 32.581299 383.34299 0.424357 0.20938601 0.88095301 2.0429577e+26
16.3022 34.339901 382.961 0.42525101 0.22486299 0.876697 2.0429577e+26
16.7316 35.882198 382.138 0.42669699 0.239384 0.87213802 2.0429577e+26
16.8339 37.6022 381.617 0.42657399 0.254621 0.86787301 2.0429577e+26
16.859501 39.361599 381.23801 0.42561999 0.269887 0.86371797 2.0429577e+26
17.0625 40.9021 380.32901 0.42436701 0.284318 0.85969502 2.0429577e+26
16.8724 42.680801 380.129 0.42201301 0.29892299 0.855892 2.0429577e+26
16.8365 44.385502 379.552 0.41889 0.31296599 0.85239798 2.0429577e+26
16.7236 46.094398 378.99799 0.415295 0.32751101 0.84868503 2.0429577e+26
16.9818 47.648602 378.12799 0.41027901 0.34108901 0.84577101 2.0429577e+26
16.894699 49.327801 377.48499 0.40571901 0.35604501 0.84179801 2.0429577e+26
16.9069 50.946499 376.698 0.40049899 0.37078699 0.837924 2.0429577e+26
16.8127 52.5924 375.97601 0.395904 0.38578299 0.83332598 2.0429577e+26
16.5616 54.291302 375.436 0.39316401 0.40042099 0.82769901 2.0429577e+26
16.4102 55.922501 374.69 0.38981801 0.41470101 0.82223099 2.0429577e+26
16.2321 57.546902 373.936 0.38696 0.42919099 0.81612301 2.0429577e+26
16.1096 59.133801 373.095 0.38348901 0.44396201 0.80983597 2.0429577e+26
15.8462 60.765499 372.38199 0.38164201 0.45900899 0.802284 2.0429577e+26
15.8261 62.199902 371.29501 0.376066 0.47432601 0.79598302 2.0429577e+26
15.4629 63.803101 370.56201 0.37451801 0.49016199 0.78706902 2.0429577e+26
14.9689 65.415901 369.93301 0.37419799 0.50433397 0.77821797 2.0429577e+26
14.4403 66.9935 369.246 0.37368301 0.51761299 0.76969999 2.0429577e+26
14.2034 68.488098 368.272 0.36879599 0.53134501 0.76266801 2.0429577e+26
13.8483 69.997704 367.358 0.365228 0.54522997 0.75454098 2.0429577e+26
13.5379 71.432602 366.31601 0.36058199 0.55915397 0.746544 2.0429577e+26
13.0716 72.894096 365.375 0.35836101 0.57294399 0.73709798 2.0429577e+26
12.4033 74.411797 364.67499 0.36088601 0.58581698 0.725658 2.0429577e+26
12.0698 75.786102 363.561 0.35730299 0.598701 0.71686202 2.0429577e+26
11.3311 77.275002 362.87 0.35484299 0.61196798 0.70681101 2.0429577e+26
10.9014 78.585197 361.71301 0.34922799 0.62530601 0.69787699 2.0429577e+26
10.244 79.999901 360.815 0.34606501 0.63833201 0.68758398 2.0429577e+26
9.4036102 81.408096 360.073 0.34494099 0.65055102 0.67660803 2.0429577e+26
8.9561796 82.713097 358.91699 0.34145799 0.66355097 0.665663 2.0429577e+26
8.4120302 83.989098 357.76999 0.338397 0.67665398 0.65393198 2.0429577e+26
7.6276398 85.355103 356.89899 0.336229 0.68718302 0.64399499 2.0429577e+26
6.8347301 86.666702 355.95499 0.33270001 0.69635701 0.63592303 2.0429577e+26
6.09726 87.932198 354.909 0.32738599 0.70547098 0.62859303 2.0429577e+26
5.39925 89.117302 353.74701 0.32014799 0.714688 0.62187302 2.0429577e+26
4.3003602 90.406502 353.13901 0.31313899 0.72466201 0.61384797 2.0429577e+26
3.3916199 91.569298 352.108 0.306297 0.73382097 0.60637403 2.0429577e+26
1.71452 92.215202 352.20901 0.30732101 0.73976201 0.59858602 2.0429577e+26
0.0182066 92.566597 352.698 0.30955699 0.74216902 0.594441 2.0429577e+26
-1.67354 93.177803 352.76401 0.29956999 0.74848002 0.59163803 2.0429577e+26
-3.39252 93.7118 352.76501 0.26940101 0.75761801 0.59450698 2.0429577e+26
-5.07723 94.345596 352.76099 0.24259 0.763111 0.59900898 2.0429577e+26
-6.80722 94.842598 352.74899 0.218666 0.76389199 0.60716999 2.0429577e+26
-8.5065498 95.403801 352.556 0.197852 0.76168001 0.61700702 2.0429577e+26
-10.2445 95.825104 352.76099 0.161157 0.75854301 0.63138002 2.0429577e+26
-12.0249 96.089798 352.754 0.122874 0.75692803 0.64184201 2.0429577e+26
-13.8007 96.382698 352.72299 0.083045498 0.756473 0.64873099 2.0429577e+26
-15.5728 96.663803 352.57901 0.0434791 0.75694698 0.65202898 2.0429577e+26
-17.268299 97.103798 352.16501 0.046941999 0.75760299 0.65102601 2.0429577e+26
-19.057899 97.296898 352.15701 0.049173102 0.75898498 0.64924902 2.0429577e+26
-20.8426 97.385902 351.94 0.050667401 0.76337802 0.64396203 2.0429577e+26
-22.6357 97.484398 352.06299 0.053348001 0.76995099 0.63586903 2.0429577e+26
-24.3508 97.945297 351.76901 0.0428713 0.77925903 0.62523401 2.0429577e+26
-26.001699 98.283401 351.13699 0.031918801 0.786421 0.61686599 2.0429577e+26
-27.587099 97.912804 351.90399 0.022802001 0.78349698 0.620978 2.0429577e+26
-28.566099 96.939201 353.05899 0.0107118 0.77565402 0.63106698 2.0429577e+26
-29.4702 95.974297 354.28 -0.0078776097 0.76677102 0.64187199 2.0429577e+26
-30.0833 94.964203 355.638 -0.027077099 0.75725299 0.65256 2.0429577e+26
-31.049801 93.885902 356.707 -0.052235 0.74699301 0.66277701 2.0429577e+26
-31.9592 92.7248 357.73901 -0.073824003 0.73537397 0.67362899 2.0429577e+26
-32.949402 91.678802 358.819 -0.0950725 0.72221398 0.68510401 2.0429577e+26
-33.543701 90.471802 360.01501 -0.109867 0.706662 0.69897002 2.0429577e+26
-34.124901 89.222397 361.173 -0.125283 0.68770301 0.71509999 2.0429577e+26
-34.6702 87.890404 362.254 -0.142196 0.66249299 0.735448 2.0429577e+26
-35.272301 86.541496 363.28201 -0.162937 0.63692802 0.75350797 2.0429577e+26
-36.078602 85.193901 364.16199 -0.188786 0.61075199 0.76898801 2.0429577e+26
-36.341202 83.840302 365.319 -0.206645 0.58759701 0.78232199 2.0429577e+26
-36.995602 82.386803 366.155 -0.231737 0.56295401 0.79333502 2.0429577e+26
-37.305199 80.890099 367.10599 -0.25055799 0.541502 0.80249399 2.0429577e+26
-37.4823 79.3741 368.06 -0.26523301 0.52660203 0.80767602 2.0429577e+26
-37.931999 77.792198 368.79199 -0.28252599 0.51284599 0.81065899 2.0429577e+26
-38.188702 76.285896 369.74301 -0.29251301 0.5018 0.81402302 2.0429577e+26
-38.435001 74.676697 370.51099 -0.29973301 0.491799 0.81749201 2.0429577e+26
-38.4062 73.101799 371.38199 -0.29932499 0.48325899 0.82271802 2.0429577e+26
-38.534599 71.511002 372.215 -0.297833 0.47484601 0.82814097 2.0429577e+26
-38.404202 70.035301 373.237 -0.29026499 0.46609399 0.83576399 2.0429577e+26
-38.182499 68.546501 374.224 -0.28244099 0.45506901 0.84447598 2.0429577e+26
-38.2533 66.9263 375.005 -0.27941301 0.44453201 0.85106999 2.0429577e+26
-37.879799 65.463799 375.98599 -0.27535 0.434488 0.85755599 2.0429577e+26
-37.662498 63.885601 376.82401 -0.27432099 0.42489201 0.862679 2.0429577e+26
-37.255299 62.354198 377.677 -0.273839 0.41631499 0.86700302 2.0429577e+26
-37.063301 60.746201 378.46301 -0.27543399 0.40770099 0.87058401 2.0429577e+26
-36.616402 59.2234 379.31299 -0.27628499 0.40028 0.873752 2.0429577e+26
-36.233101 57.652599 380.104 -0.27764499 0.39179799 0.877159 2.0429577e+26
-35.9641 56.0219 380.81699 -0.279946 0.38286701 0.88036501 2.0429577e+26
-35.445301 54.549 381.71201 -0.28012201 0.37538701 0.88352501 2.0429577e+26
-34.887798 52.997898 382.435 -0.27947301 0.36801401 0.88682598 2.0429577e+26
-34.332199 51.552601 383.353 -0.27669299 0.360962 0.89058799 2.0429577e+26
-34.966 49.936401 383.828 -0.28632399 0.35048199 0.891729 2.0429577e+26
-35.438301 48.247601 384.23401 -0.295508 0.33982599 0.89285702 2.0429577e+26
-35.5042 46.567001 384.87601 -0.300118 0.33039501 0.89485699 2.0429577e+26
-35.595001 44.882599 385.504 -0.304144 0.32095599 0.89692998 2.0429577e+26
-35.684898 43.172298 386.05801 -0.30764699 0.31144801 0.89908499 2.0429577e+26
-36.100399 41.460899 386.42999 -0.315611 0.30142701 0.89973998 2.0429577e+26
-36.1633 39.747501 386.978 -0.31766999 0.292063 0.90210003 2.0429577e+26
-36.171501 38.050499 387.578 -0.31806001 0.28279999 0.90491003 2.0429577e+26
-36.773602 36.3671 387.78699 -0.32796401 0.27314901 0.90433902 2.0429577e+26
-37.128399 34.6446 388.17099 -0.33353299 0.266644 0.90424401 2.0429577e+26
-37.307201 32.904499 388.595 -0.335935 0.26198599 0.90471601 2.0429577e+26
-37.439701 31.1924 389.13501 -0.336063 0.257256 0.90602499 2.0429577e+26
-37.830502 29.4674 389.46799 -0.33937901 0.25257701 0.90610498 2.0429577e+26
-38.571999 27.8297 389.55899 -0.346773 0.24890999 0.90431899 2.0429577e+26
-38.918499 26.118099 389.995 -0.34651399 0.24481501 0.90553498 2.0429577e+26
-39.660599 24.4788 390.04001 -0.35100201 0.24252699 0.90442199 2.0429577e+26
-40.2388 22.779301 390.172 -0.35032201 0.23456299 0.90678298 2.0429577e+26
-40.680599 21.084801 390.58899 -0.34463501 0.221301 0.91227901 2.0429577e+26
-41.121498 19.365801 390.89001 -0.33866799 0.21009099 0.91715097 2.0429577e+26
-42.144299 17.899401 390.681 -0.34042901 0.20690501 0.91722298 2.0429577e+26
-42.456299 16.1803 391.11401 -0.33133 0.197932 0.92251998 2.0429577e+26
-43.113701 14.5073 391.207 -0.32448101 0.19574299 0.92541701 2.0429577e+26
