# .PCD v0.7 - Point Cloud Data file format
# 3 154 0
# 1 51 0
# 52 102 0
# 103 154 0
VERSION 0.7
FIELDS x y z normal_x normal_y normal_z curvature
SIZE 4 4 4 4 4 4 4
TYPE F F F F F F F
COUNT 1 1 1 1 1 1 1
WIDTH 154
HEIGHT 1
VIEWPOINT 0 0 0 1 0 0 0
POINTS 154
DATA ascii
-3.81936 -67.404099 439.15799 0.0142391 -0.28451699 0.958565 2.0429577e+26
-2.1073799 -66.853996 439.23901 0.016792901 -0.27122599 0.96236902 2.0429577e+26
-1.07628 -65.500397 439.82599 0.042392202 -0.26161599 0.96424103 2.0429577e+26
0.60266799 -64.852699 439.867 0.0698338 -0.258176 0.96357101 2.0429577e+26
2.1735899 -63.985401 440.008 0.087256096 -0.25595301 0.96274298 2.0429577e+26
3.30826 -62.606701 440.23599 0.095071301 -0.247786 0.96413898 2.0429577e+26
4.48803 -61.262001 440.435 0.115661 -0.234799 0.96513802 2.0429577e+26
5.9481201 -60.2108 440.38 0.15650401 -0.21741199 0.96345103 2.0429577e+26
7.33395 -59.0625 440.41101 0.20852201 -0.194809 0.95841998 2.0429577e+26
7.21171 -58.834801 440.65399 0.20544299 -0.193994 0.95924902 2.0429577e+26
8.5291996 -57.6273 440.439 0.26303801 -0.170421 0.94961399 2.0429577e+26
9.4153099 -56.063099 440.52802 0.290084 -0.149965 0.94517797 2.0429577e+26
10.6027 -54.757401 440.17401 0.31192401 -0.13496201 0.94047302 2.0429577e+26
11.5136 -53.229198 439.89999 0.321899 -0.12502199 0.938483 2.0429577e+26
12.1872 -51.563301 440.004 0.31848699 -0.116903 0.94069099 2.0429577e+26
12.7719 -49.8633 440.09399 0.30459601 -0.109776 0.94613498 2.0429577e+26
13.5323 -48.2323 440.13501 0.29015401 -0.104272 0.95128202 2.0429577e+26
14.567 -46.763802 440.022 0.27521399 -0.100567 0.95610899 2.0429577e+26
15.3581 -45.1469 440.02301 0.266184 -0.089550398 0.95975298 2.0429577e+26
16.433399 -43.716499 439.82901 0.265807 -0.078713201 0.96080703 2.0429577e+26
17.2034 -42.092999 439.724 0.26996699 -0.063406304 0.96078002 2.0429577e+26
18.185699 -40.608799 439.45401 0.28017199 -0.048369002 0.958731 2.0429577e+26
19.1574 -39.123199 439.15601 0.292548 -0.0330352 0.95568001 2.0429577e+26
20.0446 -37.573299 438.931 0.30282 -0.0167425 0.95290101 2.0429577e+26
20.5951 -35.862999 438.823 0.317581 -0.00153068 0.94823003 2.0429577e+26
21.4224 -34.2915 438.53 0.34079599 0.015987599 0.94000101 2.0429577e+26
22.298401 -32.7827 438.08701 0.371333 0.035548501 0.92781901 2.0429577e+26
22.8804 -31.099001 437.82901 0.399775 0.051852498 0.91514599 2.0429577e+26
23.464399 -29.4471 437.41699 0.429692 0.066615298 0.90051502 2.0429577e+26
23.632299 -27.664801 437.229 0.44604301 0.076869197 0.89170402 2.0429577e+26
24.1817 -26.018 436.754 0.47121 0.087319098 0.87768799 2.0429577e+26
24.1891 -24.2272 436.57199 0.475418 0.095623501 0.87454802 2.0429577e+26
24.782101 -22.6203 436.01901 0.49413601 0.101649 0.86342198 2.0429577e+26
24.761 -20.826401 435.87201 0.48795199 0.10968 0.86595201 2.0429577e+26
24.8409 -19.055401 435.56 0.48405799 0.12534 0.86601299 2.0429577e+26
24.73 -17.2665 435.39401 0.47471201 0.142332 0.86855602 2.0429577e+26
24.628201 -15.485 435.15799 0.466894 0.15870599 0.86995602 2.0429577e+26
24.671101 -13.7213 434.80099 0.46357599 0.17383701 0.868837 2.0429577e+26
24.751499 -11.9747 434.37299 0.46181801 0.188348 0.86674601 2.0429577e+26
24.779699 -10.2129 434.00601 0.45881301 0.202902 0.86505598 2.0429577e+26
24.751699 -8.4559603 433.61499 0.45544899 0.217236 0.86335099 2.0429577e+26
24.668699 -6.7102799 433.18399 0.45198101 0.231259 0.86152899 2.0429577e+26
24.721901 -4.9981799 432.63101 0.451911 0.243773 0.858109 2.0429577e+26
24.698099 -3.2588899 432.168 0.44942501 0.255364 0.85604101 2.0429577e+26
24.418699 -1.52819 431.76001 0.442265 0.268235 0.85583401 2.0429577e+26
24.273001 0.20714299 431.30499 0.436737 0.28127101 0.854487 2.0429577e+26
24.1373 1.90606 430.72601 0.431568 0.294613 0.852615 2.0429577e+26
24.080299 3.6031899 430.129 0.426871 0.30816099 0.850187 2.0429577e+26
23.848499 5.3050098 429.59 0.41875499 0.323033 0.848701 2.0429577e+26
23.545601 7.0128398 429.10901 0.40876999 0.33884099 0.847404 2.0429577e+26
23.313499 8.5750399 428.245 0.40154701 0.354065 0.84462899 2.0429577e+26
22.8235 10.3 428.08899 0.386307 0.37011001 0.84485799 2.0429577e+26
22.3046 11.9561 427.61099 0.371021 0.38600799 0.84459603 2.0429577e+26
21.7174 13.58 427.103 0.35429299 0.402973 0.84385401 2.0429577e+26
21.1721 15.1955 426.526 0.33844799 0.420149 0.84197801 2.0429577e+26
20.738501 16.799801 425.83499 0.32524699 0.436923 0.83863801 2.0429577e+26
19.843201 18.315599 425.45901 0.30759501 0.45407099 0.83618498 2.0429577e+26
19.350901 19.872601 424.702 0.296711 0.47034299 0.83110797 2.0429577e+26
18.6707 21.408001 424.05399 0.284495 0.486518 0.82605201 2.0429577e+26
18.111601 22.940399 423.293 0.27547699 0.50216299 0.81972301 2.0429577e+26
17.3298 24.4286 422.64999 0.26502001 0.51174402 0.81724 2.0429577e+26
16.601999 25.93 421.974 0.25657099 0.51959503 0.81497997 2.0429577e+26
16.0944 27.444901 421.14499 0.25119901 0.52717799 0.811777 2.0429577e+26
15.0855 28.8102 420.547 0.244528 0.534316 0.80914301 2.0429577e+26
14.3959 30.2577 419.729 0.248537 0.54086399 0.80355197 2.0429577e+26
14.0092 31.6889 418.70801 0.25059599 0.54801399 0.79804897 2.0429577e+26
13.2107 33.158901 418.043 0.25787899 0.55456603 0.79117298 2.0429577e+26
12.0918 34.494099 417.59 0.26774201 0.56105101 0.78328502 2.0429577e+26
11.5943 35.9678 416.68399 0.267364 0.57040602 0.77662897 2.0429577e+26
10.8957 37.416 415.875 0.266177 0.58109099 0.76907903 2.0429577e+26
10.1682 38.855202 415.07599 0.262043 0.59838301 0.757146 2.0429577e+26
9.4647999 40.186298 414.08899 0.24602801 0.61741698 0.747172 2.0429577e+26
8.5091 41.5439 413.39401 0.205641 0.63891798 0.74127901 2.0429577e+26
7.7832298 42.863998 412.40799 0.17375401 0.65753299 0.73311597 2.0429577e+26
6.96105 44.071999 411.35699 0.142547 0.67460197 0.72428799 2.0429577e+26
6.5297499 45.345901 410.16101 0.123026 0.68829501 0.71492302 2.0429577e+26
5.4543099 46.4921 409.284 0.097946599 0.70158798 0.70581901 2.0429577e+26
4.77354 47.722599 408.16 0.086730897 0.71228403 0.696513 2.0429577e+26
3.7441101 48.839298 407.194 0.085809201 0.719715 0.68894601 2.0429577e+26
2.8942299 49.991402 406.103 0.098228499 0.72558397 0.68108702 2.0429577e+26
1.13587 50.252499 405.82001 0.121392 0.72087502 0.68235099 2.0429577e+26
0.85739899 49.170399 407.23099 0.116298 0.71227902 0.692195 2.0429577e+26
-0.13872901 48.084999 408.26599 0.118406 0.70179701 0.70246798 2.0429577e+26
-0.79590601 46.9617 409.509 0.11418 0.69194198 0.71286702 2.0429577e+26
-1.42145 45.791801 410.72601 0.102084 0.68217599 0.72402698 2.0429577e+26
-2.0713401 44.5826 411.89001 0.090251103 0.67226702 0.73478699 2.0429577e+26
-2.6200299 43.374298 413.10599 0.079263397 0.662709 0.74467099 2.0429577e+26
-2.81653 42.136002 414.39801 0.069980301 0.654199 0.75307798 2.0429577e+26
-3.7658801 40.9622 415.37799 0.062037699 0.64467603 0.76193398 2.0429577e+26
-4.4401302 39.675701 416.44101 0.056074001 0.636096 0.76956999 2.0429577e+26
-4.8969302 38.365299 417.58701 0.052080002 0.62813097 0.77636302 2.0429577e+26
-5.3875499 37.026798 418.686 0.047849499 0.61779302 0.78488302 2.0429577e+26
-6.0910602 35.6842 419.65701 0.040800601 0.60613602 0.79431403 2.0429577e+26
-6.4211602 34.3475 420.81699 0.034773901 0.59367502 0.80395299 2.0429577e+26
-6.91642 32.939602 421.823 0.026911801 0.58100599 0.81345397 2.0429577e+26
-7.3955002 31.527901 422.832 0.018963801 0.56833899 0.82257599 2.0429577e+26
-7.9214802 30.087799 423.77499 0.0111098 0.55593801 0.83115 2.0429577e+26
-8.3621502 28.636801 424.74399 0.0048144599 0.54402602 0.83905399 2.0429577e+26
-8.7252502 27.159201 425.70599 0.00052697898 0.53274697 0.84627402 2.0429577e+26
-8.8995504 25.6812 426.71899 -0.00045275601 0.522039 0.85292202 2.0429577e+26
-9.4769697 24.191 427.547 0.0028123099 0.51137 0.85935599 2.0429577e+26
-9.7183199 22.6849 428.50299 -0.000154537 0.49913999 0.866521 2.0429577e+26
-9.9485998 21.1371 429.392 -0.00556059 0.48676401 0.87351602 2.0429577e+26
-10.4847 19.5984 430.15701 -0.0151515 0.47377399 0.88051599 2.0429577e+26
-10.8356 18.0326 430.97299 -0.0259785 0.46094999 0.88704598 2.0429577e+26
-11.0301 16.445601 431.79901 -0.036153302 0.448744 0.89292902 2.0429577e+26
-11.5212 14.8748 432.52802 -0.051045299 0.435922 0.89853501 2.0429577e+26
-11.736 13.2531 433.27899 -0.062265702 0.42430699 0.90337503 2.0429577e+26
-11.8967 11.6152 434.008 -0.071994901 0.41332799 0.90773201 2.0429577e+26
-12.1568 9.9713297 434.694 -0.083367698 0.39629099 0.91433197 2.0429577e+26
-12.1533 8.3545303 435.48499 -0.0879867 0.380319 0.92066002 2.0429577e+26
-12.6562 6.7143998 436.03 -0.102726 0.36416 0.92565399 2.0429577e+26
-12.7717 5.0840998 436.784 -0.106904 0.34922501 0.93092102 2.0429577e+26
-13.2404 3.3880701 437.16299 -0.117499 0.33532599 0.93474603 2.0429577e+26
-13.2133 1.7007 437.79001 -0.114577 0.32183301 0.93983799 2.0429577e+26
-13.2233 0.0126119 438.414 -0.11013 0.30867499 0.94476998 2.0429577e+26
-13.3622 -1.70716 438.927 -0.105944 0.29634699 0.94918603 2.0429577e+26
-13.3972 -3.4384601 439.41901 -0.097378202 0.28342801 0.95403701 2.0429577e+26
-13.4356 -5.1647201 439.927 -0.088890597 0.267795 0.95936698 2.0429577e+26
-13.4762 -6.8985901 440.409 -0.081820801 0.25166699 0.96434897 2.0429577e+26
-13.7956 -8.6504803 440.67099 -0.079497702 0.236213 0.96844399 2.0429577e+26
-13.3293 -10.2679 441.30899 -0.070368104 0.21878099 0.97323298 2.0429577e+26
-13.6427 -12.0224 441.56 -0.070716597 0.202199 0.97678798 2.0429577e+26
-13.0683 -13.6544 442.05701 -0.065139301 0.18561199 0.98046201 2.0429577e+26
-13.4868 -15.399 442.203 -0.069335803 0.16843601 0.983271 2.0429577e+26
-13.2358 -17.146601 442.55399 -0.069939397 0.151316 0.98600799 2.0429577e+26
-13.3232 -18.936501 442.72198 -0.074744098 0.134791 0.988051 2.0429577e+26
-13.2153 -20.718399 442.953 -0.077341199 0.123492 0.98932701 2.0429577e+26
-13.2412 -22.5138 443.07901 -0.079054199 0.11134 0.99063301 2.0429577e+26
-12.7507 -24.1901 443.51401 -0.0748225 0.0990583 0.99226499 2.0429577e+26
-12.712 -25.9841 443.655 -0.073043197 0.085430101 0.99366301 2.0429577e+26
-12.5935 -27.774099 443.80301 -0.069602497 0.071159303 0.99503398 2.0429577e+26
-12.5169 -29.571301 443.86801 -0.0658006 0.056407399 0.99623698 2.0429577e+26
-12.2821 -31.352699 443.97601 -0.0606426 0.040978201 0.99731803 2.0429577e+26
-12.0536 -33.137299 444.03101 -0.0556999 0.0252118 0.99812901 2.0429577e+26
-11.8403 -34.924 444.07599 -0.050906099 0.0093486402 0.99866003 2.0429577e+26
-11.3703 -36.658199 444.18399 -0.0449997 -0.00753234 0.998959 2.0429577e+26
-11.2431 -38.452301 444.11301 -0.040617999 -0.025009399 0.99886203 2.0429577e+26
-10.8275 -40.203602 444.11401 -0.036944199 -0.043251999 0.99838102 2.0429577e+26
-10.6802 -41.992901 443.98401 -0.0349406 -0.061845198 0.99747401 2.0429577e+26
-10.1643 -43.716999 443.948 -0.037002299 -0.079852201 0.99611998 2.0429577e+26
-10.0736 -45.501099 443.72699 -0.0386042 -0.098664701 0.99437201 2.0429577e+26
-9.5660105 -47.223999 443.60901 -0.034141701 -0.116356 0.992621 2.0429577e+26
-9.0690002 -48.944801 443.42999 -0.030129701 -0.133772 0.99055398 2.0429577e+26
-8.9495296 -50.709702 443.09799 -0.0302605 -0.150391 0.98816299 2.0429577e+26
-8.4029303 -52.412998 442.897 -0.022660799 -0.16530401 0.985982 2.0429577e+26
-8.1987801 -54.150902 442.47501 -0.0179436 -0.180268 0.98345399 2.0429577e+26
-7.6557598 -55.844501 442.198 -0.0080936002 -0.195099 0.98075002 2.0429577e+26
-7.12251 -57.525101 441.836 0.00221771 -0.210081 0.97768199 2.0429577e+26
-6.5391002 -59.196201 441.509 0.0132553 -0.225226 0.97421598 2.0429577e+26
-5.9588799 -60.857498 441.13 0.0220656 -0.240144 0.970487 2.0429577e+26
-5.5840101 -62.5378 440.60501 0.0275611 -0.25421801 0.96675402 2.0429577e+26
-4.87567 -64.150497 440.23401 0.0292258 -0.26661399 0.96336001 2.0429577e+26
-4.4953699 -65.809502 439.64801 0.025839901 -0.27757999 0.96035498 2.0429577e+26
