# .PCD v0.7 - Point Cloud Data file format
# 2 148 0
# 1 74 0
# 75 148 0
VERSION 0.7
FIELDS x y z normal_x normal_y normal_z curvature
SIZE 4 4 4 4 4 4 4
TYPE F F F F F F F
COUNT 1 1 1 1 1 1 1
WIDTH 148
HEIGHT 1
VIEWPOINT 0 0 0 1 0 0 0
POINTS 148
DATA ascii
35.618099 -23.9869 389.41 0.0046518198 0.67160499 0.74089497 2.0429577e+26
36.0616 -22.609501 388.33899 -0.0082851099 0.65902901 0.75207198 2.0429577e+26
35.466099 -23.9126 389.42899 -0.000385249 0.67301899 0.73962498 2.0429577e+26
36.508701 -21.053499 386.87399 -0.027979599 0.64459598 0.76401198 2.0429577e+26
36.6576 -19.6178 385.79901 -0.047946598 0.63421398 0.77166998 2.0429577e+26
37.085201 -18.2749 384.67899 -0.062330902 0.62115598 0.78120399 2.0429577e+26
37.176601 -16.7572 383.715 -0.0774481 0.60991299 0.78867501 2.0429577e+26
37.383801 -15.2903 382.69299 -0.0861535 0.59713501 0.79750001 2.0429577e+26
37.743301 -13.8574 381.66501 -0.088201202 0.58320397 0.80752301 2.0429577e+26
38.3741 -12.552 380.59799 -0.081216097 0.569426 0.818021 2.0429577e+26
38.446899 -10.9969 379.694 -0.089933001 0.55768198 0.82516801 2.0429577e+26
39.372799 -9.8554802 378.655 -0.074789703 0.54519397 0.83496702 2.0429577e+26
40.8927 -8.90798 378.47601 -0.043326002 0.53324199 0.84485197 2.0429577e+26
42.118401 -7.8038201 377.75601 -0.0262045 0.519584 0.85401702 2.0429577e+26
42.5737 -6.2884798 376.89801 -0.030609 0.50842398 0.86056298 2.0429577e+26
43.169899 -4.8976302 375.923 -0.033859599 0.496849 0.867176 2.0429577e+26
43.2379 -3.2967801 375.103 -0.047398198 0.48333299 0.87415302 2.0429577e+26
43.387402 -1.7078201 374.271 -0.058775399 0.468169 0.88168198 2.0429577e+26
43.4076 -0.093198098 373.47501 -0.070195697 0.454299 0.88807899 2.0429577e+26
43.730202 1.4462399 372.60001 -0.076447502 0.44002301 0.89472699 2.0429577e+26
43.9725 3.01964 371.76001 -0.081563897 0.427066 0.90053397 2.0429577e+26
44.0047 4.6572099 371.013 -0.086008497 0.41535801 0.90558302 2.0429577e+26
43.947601 6.33044 370.35199 -0.088313699 0.404147 0.91042101 2.0429577e+26
44.0518 7.9815502 369.64301 -0.086995803 0.39047 0.91649598 2.0429577e+26
44.0172 9.6604099 368.995 -0.0852395 0.37643099 0.92251498 2.0429577e+26
43.9758 11.3413 368.35199 -0.081985101 0.36224601 0.92847002 2.0429577e+26
44.235298 12.9371 367.561 -0.074078299 0.34909999 0.93415302 2.0429577e+26
44.010101 14.6447 367.03799 -0.070047997 0.33418 0.93990302 2.0429577e+26
44.010399 16.3333 366.41501 -0.0621829 0.319722 0.94546902 2.0429577e+26
43.944302 18.0371 365.83801 -0.0541723 0.304766 0.950885 2.0429577e+26
43.865898 19.747 365.28101 -0.045040298 0.29448399 0.95459402 2.0429577e+26
43.7486 21.472401 364.78201 -0.034084 0.28518301 0.95786703 2.0429577e+26
43.785301 23.1716 364.189 -0.0176019 0.27619001 0.96094197 2.0429577e+26
43.3703 24.897301 363.88901 -0.0098204501 0.26218599 0.96496803 2.0429577e+26
43.287998 26.624001 363.388 0.0074619399 0.24983101 0.968261 2.0429577e+26
43.061901 28.370199 363.01401 0.0217325 0.23485599 0.97178698 2.0429577e+26
42.885502 30.091999 362.51999 0.0381274 0.219337 0.974904 2.0429577e+26
42.2687 31.771601 362.32401 0.035847001 0.20095 0.97894502 2.0429577e+26
42.149502 33.500702 361.83801 0.0513415 0.18962801 0.98051298 2.0429577e+26
42.0065 35.233799 361.37399 0.064997301 0.178028 0.98187602 2.0429577e+26
40.993198 36.714001 361.52301 0.029053099 0.159593 0.98675501 2.0429577e+26
40.942299 38.471401 361.13699 0.044491701 0.148266 0.98794597 2.0429577e+26
40.825901 40.220299 360.72699 0.0573074 0.136021 0.98904699 2.0429577e+26
40.3606 41.953499 360.58701 0.048607402 0.11969 0.99162102 2.0429577e+26
39.627998 43.597599 360.573 0.0191018 0.101785 0.99462301 2.0429577e+26
39.322601 45.356098 360.34 0.018629801 0.090249002 0.995745 2.0429577e+26
38.7775 47.0681 360.23001 -0.0031751201 0.075661004 0.99712902 2.0429577e+26
38.629002 48.836498 359.92899 0.0081660701 0.065492101 0.99782002 2.0429577e+26
37.943802 50.500301 359.97501 0.0094852597 0.0474176 0.99883002 2.0429577e+26
37.395599 52.2145 359.94501 0.016038399 0.031571101 0.99937302 2.0429577e+26
36.826801 53.922298 359.94199 0.019112 0.0155005 0.99969703 2.0429577e+26
36.113602 55.574501 359.98199 0.0152375 -0.00221054 0.99988103 2.0429577e+26
35.556 57.285999 359.98199 0.0178778 -0.0134175 0.99975002 2.0429577e+26
35.144901 59.038399 359.979 0.026678 -0.0232912 0.99937302 2.0429577e+26
34.853199 60.810398 359.858 0.042151801 -0.032379702 0.998586 2.0429577e+26
33.8722 62.278599 360.20801 0.036110099 -0.053418402 0.99791902 2.0429577e+26
33.7127 64.069 360.11301 0.064551599 -0.064266801 0.99584299 2.0429577e+26
32.576801 65.384201 360.582 0.065117702 -0.096283197 0.993222 2.0429577e+26
32.367699 67.171898 360.55701 0.096552901 -0.112525 0.98894697 2.0429577e+26
31.4328 68.650497 360.98001 0.0939622 -0.143161 0.98522902 2.0429577e+26
30.0282 69.686897 361.42001 0.060060799 -0.174844 0.98276299 2.0429577e+26
28.4146 68.9254 361.18201 0.0019543199 -0.183211 0.98307198 2.0429577e+26
26.882401 67.992699 361.034 -0.038735699 -0.18081801 0.98275399 2.0429577e+26
25.4552 66.938103 360.73199 -0.039962001 -0.17278101 0.98414898 2.0429577e+26
24.1616 65.686501 360.728 -0.020933 -0.15875299 0.98709601 2.0429577e+26
22.5811 64.884201 360.41501 0.0108551 -0.143381 0.98960799 2.0429577e+26
21.1049 63.869801 360.237 0.048157599 -0.123266 0.99120402 2.0429577e+26
19.738899 62.699001 360.29599 0.088269703 -0.101229 0.99093997 2.0429577e+26
18.1523 61.854698 360.39401 0.125816 -0.080309696 0.98879802 2.0429577e+26
16.598101 60.953899 360.51001 0.147506 -0.061107501 0.98717201 2.0429577e+26
15.0052 60.120098 360.595 0.166252 -0.046346001 0.98499399 2.0429577e+26
13.6293 59.029301 360.991 0.18166 -0.0349904 0.98273897 2.0429577e+26
12.2372 57.912399 361.22501 0.193307 -0.028554 0.98072302 2.0429577e+26
10.9444 56.672199 361.39999 0.198889 -0.024482099 0.979716 2.0429577e+26
9.4592304 55.7183 361.75299 0.20593201 -0.0179107 0.97840202 2.0429577e+26
8.1051102 54.550999 361.961 0.217325 -0.00518212 0.97608602 2.0429577e+26
6.8727598 53.281601 362.293 0.23377 0.0117076 0.97222102 2.0429577e+26
5.4589901 52.247501 362.70801 0.256675 0.0305655 0.96601403 2.0429577e+26
4.04881 51.174599 363.02399 0.284385 0.0529976 0.95724398 2.0429577e+26
2.9465899 49.818001 363.45401 0.32794899 0.075776003 0.941652 2.0429577e+26
1.98236 48.428902 364.07101 0.37153399 0.098785304 0.92314899 2.0429577e+26
0.712062 47.3032 364.67099 0.42186001 0.120933 0.89855999 2.0429577e+26
-0.060363501 45.822601 365.34201 0.46095499 0.14289699 0.87584299 2.0429577e+26
-1.30722 44.8069 366.151 0.50985998 0.159225 0.84539402 2.0429577e+26
-2.4591801 43.750599 367.04401 0.55466503 0.170956 0.81432301 2.0429577e+26
-3.55005 42.748299 368.06601 0.57819003 0.18531001 0.79457903 2.0429577e+26
-4.7109599 41.849602 369.10699 0.58698797 0.201389 0.78414798 2.0429577e+26
-5.3945999 40.571899 370.17499 0.59666699 0.213596 0.77354097 2.0429577e+26
-6.7414098 39.929199 371.18201 0.601466 0.226422 0.766141 2.0429577e+26
-7.5719199 38.7505 372.259 0.60799003 0.236044 0.75804502 2.0429577e+26
-8.6700497 37.945599 373.43701 0.61179501 0.244958 0.752132 2.0429577e+26
-9.6070099 36.888901 374.55301 0.61532003 0.25150901 0.74707699 2.0429577e+26
-9.6105604 35.118 374.875 0.61945701 0.252231 0.743406 2.0429577e+26
-9.6120596 33.4958 375.655 0.62246799 0.25275901 0.74070698 2.0429577e+26
-9.4924803 31.794399 376.23001 0.62494099 0.25305599 0.73852003 2.0429577e+26
-9.0264997 30.068501 376.44101 0.62724698 0.25308701 0.736552 2.0429577e+26
-8.4884501 28.360001 376.61801 0.62910098 0.25379899 0.73472297 2.0429577e+26
-8.2663603 26.606199 376.957 0.62992603 0.25557601 0.73339897 2.0429577e+26
-8.1630001 24.882099 377.46399 0.62977898 0.257936 0.73269898 2.0429577e+26
-8.1190395 23.1577 377.978 0.62892598 0.26298499 0.73163599 2.0429577e+26
-8.0483103 21.437099 378.50201 0.62781799 0.27118599 0.72959101 2.0429577e+26
-7.7284999 19.7283 378.96899 0.62696898 0.279502 0.72717798 2.0429577e+26
-7.8116498 18.0539 379.62399 0.62516898 0.28787801 0.72545898 2.0429577e+26
-7.81179 16.376301 380.27701 0.62330902 0.29640901 0.72362101 2.0429577e+26
-7.8115902 14.7087 380.95401 0.62122798 0.30504 0.72182101 2.0429577e+26
-7.3619199 13.0407 381.45999 0.62055498 0.313651 0.71870399 2.0429577e+26
-7.79492 11.5771 382.414 0.616431 0.320952 0.71902901 2.0429577e+26
-7.81146 9.9273796 383.134 0.61425102 0.32558399 0.71881199 2.0429577e+26
-7.8107901 8.2614899 383.815 0.61258203 0.330136 0.71815997 2.0429577e+26
-7.7554898 6.5861502 384.47101 0.611561 0.334553 0.71698499 2.0429577e+26
-7.5213299 4.9731002 385.23499 0.61123401 0.338765 0.71528399 2.0429577e+26
-7.5134001 3.3162301 385.93799 0.61059499 0.343025 0.71379799 2.0429577e+26
-7.7764101 1.79831 386.86899 0.60866702 0.347617 0.71322298 2.0429577e+26
-7.6768098 0.216378 387.72198 0.60872298 0.35196 0.71104199 2.0429577e+26
-7.9122901 -1.34382 388.58899 0.60722399 0.35720599 0.70970601 2.0429577e+26
-7.6013899 -3.01618 389.177 0.60662401 0.36287001 0.70734203 2.0429577e+26
-7.2047 -4.6893301 389.70901 0.60497898 0.369773 0.70517302 2.0429577e+26
-7.3568101 -6.2595901 390.57599 0.60046899 0.376854 0.70527899 2.0429577e+26
-7.1180501 -7.8582001 391.36801 0.59552401 0.385331 0.70489103 2.0429577e+26
-6.4929199 -9.4775295 391.845 0.59053499 0.395944 0.70320398 2.0429577e+26
-6.5971198 -11.0538 392.70801 0.58253998 0.40128601 0.70683599 2.0429577e+26
-6.3531199 -12.6754 393.45001 0.574857 0.40596399 0.710446 2.0429577e+26
-5.9557199 -14.2894 394.14001 0.56681103 0.410712 0.71417201 2.0429577e+26
-5.72858 -15.9656 394.75601 0.55756599 0.41488099 0.71902299 2.0429577e+26
-4.3460202 -16.1989 393.62701 0.55757302 0.425908 0.712542 2.0429577e+26
-2.81795 -16.0109 392.694 0.54518002 0.44173601 0.71249402 2.0429577e+26
-1.3198 -16.3286 391.74899 0.50932097 0.464753 0.72429103 2.0429577e+26
0.26985601 -16.634399 390.96201 0.47367901 0.486269 0.73428202 2.0429577e+26
1.7906801 -16.6126 389.99899 0.44275799 0.50379801 0.741723 2.0429577e+26
3.3220201 -17.375299 389.439 0.40433601 0.52416599 0.74950802 2.0429577e+26
5.0254302 -17.7313 388.979 0.36436099 0.54330802 0.75634497 2.0429577e+26
6.7132001 -17.884001 388.37201 0.325167 0.56002897 0.76199299 2.0429577e+26
8.3787003 -18.5441 388.198 0.28262299 0.577649 0.76579797 2.0429577e+26
10.1063 -18.941401 387.88599 0.249451 0.59104902 0.76709503 2.0429577e+26
11.8136 -19.496799 387.75699 0.223612 0.60200602 0.76654202 2.0429577e+26
13.4299 -20.2582 387.97601 0.19977801 0.611799 0.76537001 2.0429577e+26
15.1661 -20.731199 387.92999 0.177297 0.61924303 0.76492101 2.0429577e+26
16.8892 -21.247601 387.99301 0.15659299 0.625673 0.76420599 2.0429577e+26
18.639099 -21.668501 388.021 0.135479 0.63301301 0.76219398 2.0429577e+26
20.3186 -22.316099 388.01199 0.112242 0.64278001 0.757783 2.0429577e+26
22.088301 -22.6381 388.077 0.087312102 0.65429002 0.75118601 2.0429577e+26
23.8351 -22.9566 388.37299 0.058268301 0.66862798 0.74131101 2.0429577e+26
25.5886 -23.348 388.48199 0.020847401 0.68119299 0.73180699 2.0429577e+26
27.2686 -23.814699 388.92899 -0.0137101 0.69118702 0.72254598 2.0429577e+26
29.010401 -24.049801 389.31699 -0.045160498 0.69601202 0.716609 2.0429577e+26
30.708 -24.411699 389.79401 -0.072322398 0.69719601 0.71322298 2.0429577e+26
32.4832 -24.4678 390.086 -0.053371299 0.69560498 0.71643901 2.0429577e+26
34.249401 -24.588699 390.41199 -0.0180218 0.689255 0.72429502 2.0429577e+26
