# .PCD v0.7 - Point Cloud Data file format
VERSION 0.7
FIELDS x y z
SIZE 4 4 4
TYPE F F F
COUNT 1 1 1
WIDTH 2634
HEIGHT 1
VIEWPOINT 0 0 0 1 0 0 0
POINTS 2634
DATA ascii
-3.6177199 7.67799 408.72601
59.7607 -7.7785201 401.186
28.8155 48.210602 376.01001
42.4925 15.6186 397.371
67.570099 8.8101196 387.72699
69.295502 7.6817198 387.28601
19.560801 56.251999 368.43201
1.74516 -28.6374 420.517
57.852699 -21.4589 406.97
36.760101 23.4247 393.53799
-3.8577399 -44.440498 422.42899
40.294201 34.698601 383.819
61.797901 -7.1322098 399.34799
-13.3471 -3.89502 412.77701
58.003399 17.416401 387.77802
71.621498 4.40592 387.73801
73.195503 3.7555101 387.073
59.825802 15.9617 387.74899
77.226601 -22.995701 395.517
9.5987501 34.689098 391.522
59.858501 6.2719102 393.539
0.057759199 3.80567 410.724
-17.212099 -0.0232754 410.83301
69.401604 13.362 383.819
63.904999 2.12061 393.54901
69.290398 17.3223 381.41101
69.540199 16.274599 381.94699
73.205803 9.63379 383.66501
61.5476 1.8883899 395.01001
25.0338 38.495499 385.746
55.881599 7.7099199 394.92801
44.180698 32.709099 383.79099
-0.61655998 7.7031398 408.759
-1.15712 7.30931 408.944
67.513496 -15.4408 399.19
77.140099 -21.349899 395.10901
73.404999 -21.2029 397.48401
30.803499 -36.4776 418.87601
29.068399 29.0709 391.62299
-17.584499 -0.0011135 410.793
57.825001 26.901699 381.702
61.989899 23.233101 382.01801
65.8918 19.7624 381.94199
67.550499 18.1476 381.94699
67.404404 19.2435 381.345
61.719101 21.1887 383.479
71.572304 7.7761698 385.81799
63.593601 -9.6788998 399.26599
75.223999 3.69596 385.74701
16.0613 40.610802 385.79901
63.669102 -5.5338502 397.43201
42.465199 42.460999 376.267
50.140499 15.4195 393.32001
69.5019 -9.2923002 395.47299
63.6381 -29.0268 405.078
62.0923 -25.247101 405.10999
77.1343 -19.3507 394.522
65.612297 -12.7297 399.29501
53.818199 -36.727901 410.849
77.030403 -15.4606 393.28299
67.419296 -32.799099 403.69501
65.6763 -18.574499 401.26801
61.893799 17.388399 385.793
61.655998 -15.4797 402.79999
46.083199 28.900299 385.77399
34.995201 37.1147 383.867
30.788799 28.846701 391.36099
77.125504 -1.96769 387.466
4.1515198 11.5386 406.991
64.458199 1.58332 393.53
65.7118 0.26327199 393.51599
32.7295 -37.012699 418.41699
32.7701 -36.074001 418.505
58.026901 -1.87214 399.35999
46.317299 23.372499 389.673
3.66432 -52.099602 422.90701
50.529598 17.7117 391.57901
18.038 35.181599 389.66699
32.491402 21.195101 396.944
31.0784 40.577202 381.98001
29.131599 23.9888 395.44299
1.653 -44.436699 422.32101
33.090302 25.08 393.513
75.151299 -17.48 395.19
15.529 33.3391 391.58499
21.193701 -36.773102 420.36899
59.485401 3.8291199 395.11401
13.5509 31.068701 393.51599
34.486099 50.113602 371.97699
77.063202 -17.4998 393.96899
65.556297 -11.7463 398.935
30.599501 26.9956 392.832
-6.2258301 -13.4316 416.67001
54.519299 -39.271599 410.88
32.6399 23.0658 395.216
30.969101 23.284599 395.50601
-3.4596801 -19.371599 418.504
44.578499 21.7619 391.59601
44.244801 23.1341 390.78101
53.868198 9.6324301 394.92599
32.017601 -36.704201 418.60901
59.723701 -27.154301 406.793
17.3263 53.980202 372.27301
27.0341 46.4986 378.07999
34.712299 -36.745998 417.922
32.645401 25.0746 393.651
31.493999 25.681299 393.54999
11.5306 -55.964001 422.40601
32.812199 -34.732201 418.60001
32.763199 -34.978401 418.616
40.4897 -44.647701 416.47601
39.963001 -44.440201 416.65601
26.932699 25.0289 395.20401
57.868198 5.75279 394.94199
32.7869 -38.643799 418.362
38.627701 32.939301 385.81201
19.327 -34.879902 420.51901
46.295799 -49.4879 414.73099
-0.193158 21.2178 401.215
17.3265 30.8629 393.159
40.500599 36.633202 382.341
27.316799 48.522999 376.16299
25.6483 44.624001 380.04401
25.0126 53.994099 370.28601
34.7118 48.184299 374.047
59.648499 13.471 389.34399
25.0322 30.719801 391.46399
27.018999 29.600599 391.64999
44.799999 27.0086 387.75
28.5194 26.993 393.43301
27.086901 27.3759 393.52399
31.6591 38.597599 383.87201
19.1439 52.065201 374.215
32.7995 42.452301 380.06699
55.8181 13.4469 391.50601
54.5793 14.3833 391.591
48.5914 27.3734 385.80701
77.087196 -0.037689701 386.547
75.321701 -0.098945402 387.737
3.7083099 -50.204899 422.77802
5.7388 -50.166401 422.63599
40.1348 34.707699 383.87701
65.438103 1.89022 392.82599
36.557598 48.199001 373.28101
53.9133 15.4275 391.30301
73.571404 12.2454 381.944
40.494301 -40.560001 416.32501
50.134102 21.1042 389.47601
37.287399 40.763802 380.009
32.586399 38.469799 383.677
69.612999 -26.830601 401.228
69.441704 -25.375 400.935
39.502102 -40.878399 416.66699
36.612598 38.551998 381.89401
15.7773 52.583401 374.23599
19.1189 51.997898 374.30399
18.0047 52.241402 374.23199
61.6577 -2.0653601 397.01901
58.183498 -23.257299 407.01901
76.571404 -5.8996501 389.67401
77.0812 -5.7929702 389.27499
78.967697 -21.2195 393.85699
38.654202 35.411098 383.86899
40.4081 -42.5625 416.49301
5.7324901 -54.050598 422.84799
5.6108398 -52.089901 422.75699
39.860901 -42.560001 416.67001
48.612301 -32.958302 412.84698
36.298401 36.648602 383.76801
0.0138869 -25.0784 419.888
33.917198 48.284 374.23901
17.2145 40.4884 385.655
77.228104 -11.5171 391.59399
7.65727 -54.125999 422.70401
2.5116401 -25.112301 419.909
30.6719 36.649799 385.56299
4.5253301 -28.614799 420.51801
32.385799 36.632599 385.04501
2.8149099 -27.006901 420.242
3.9277999 -27.0784 420.25699
42.358601 -42.5816 415.83499
2.5585201 -28.521 420.51501
38.791199 17.8006 397.37601
73.439499 -28.2819 399.302
29.379601 36.8167 385.797
34.710999 24.988001 393.069
52.1688 25.0882 385.85901
44.349899 -44.420502 415.168
34.7099 36.623001 384.32501
33.3372 35.2766 385.82101
2.1033199 -23.1709 419.55801
42.419498 -44.387199 415.83899
0.61431402 -23.216101 419.52802
-1.77544 -23.2006 419.414
46.260399 11.5171 398.74701
32.9958 50.304001 372.32199
40.886902 29.372999 387.72601
38.4711 36.533199 383.09
35.064899 39.0853 381.935
34.6679 -38.594799 417.86801
5.6491699 11.6265 407.034
-1.89722 -21.275 419.022
5.3310099 -28.9352 420.56601
3.9807501 -45.951302 422.44501
22.403601 26.998699 394.862
6.2083998 -30.875099 420.828
40.4417 17.319201 397.07401
26.938999 42.433498 381.91901
36.620701 -40.605099 417.47299
17.150299 50.139999 377.004
-5.7623901 7.70965 408.41101
65.3433 -9.6914396 398.19501
34.668098 23.0774 394.54099
33.117298 25.018801 393.548
48.111198 -44.530499 413.90601
-8.2549601 -34.7346 421.117
5.6719799 -46.3811 422.34399
38.2472 -40.515099 417.004
39.123901 46.419102 374.21899
-6.4815898 -13.542 416.66101
49.0793 -36.7673 412.819
38.961899 -36.749401 416.66501
3.30901 -8.6509705 416.65601
67.430099 -11.6556 397.79199
42.656101 33.2085 383.87201
46.327702 12.6715 397.414
3.88399 15.4281 404.672
30.733299 -52.154598 419.25
63.425201 1.88879 393.93201
61.8778 0.71573901 395.453
0.27476701 -27.058901 420.22299
4.2161598 -46.319199 422.453
6.1174402 -47.8936 422.44699
0.114448 -29.0249 420.487
2.0708699 18.019899 403.15799
61.6647 -21.542601 404.508
61.682899 -23.1637 404.91699
0.200441 25.068399 398.595
48.033001 11.5249 397.24301
61.398899 -23.1924 405.091
44.3596 -36.726799 414.711
61.766998 -24.4142 405.12
17.3986 27.3792 395.45001
67.554298 -30.6381 403.21799
73.2584 -13.5366 394.961
52.051399 9.5205498 396.306
-1.67151 21.319 401.237
62.870399 -27.180799 405.086
63.5089 -27.0333 404.724
63.631901 -25.371099 404.276
9.3914404 -46.455601 422.147
7.5573401 -48.224602 422.38199
63.452801 -23.1863 403.85901
63.5723 -7.7690401 398.466
56.003201 6.7614002 395.48999
44.328499 17.313801 395.021
1.70947 26.9562 397.41199
5.6901999 -48.307899 422.51001
46.657902 31.2243 383.87
35.967999 36.6376 383.88901
36.342899 34.705799 385.21899
10.3153 13.4962 405.97198
10.001 14.8682 405.086
67.493301 -29.0021 402.901
7.4371901 -55.9566 422.82501
6.5747299 -48.262199 422.44501
38.652901 25.1882 391.58701
40.253899 25.076 391.056
67.388 -40.5215 404.82001
-5.4061499 -13.5337 416.79199
7.6189098 -50.2365 422.50201
7.7164302 -49.431599 422.448
9.2898502 -48.2262 422.25601
59.824699 -28.903299 407.01801
69.433197 3.7823601 389.505
34.8246 19.785 397.367
50.133598 -40.5205 412.74799
-10.3399 17.4562 403.155
38.499699 42.383099 377.81299
67.440804 15.2867 383.841
46.285 13.4177 396.89401
28.8127 46.290001 377.72501
75.313698 -18.5123 395.448
30.7423 24.959801 394.27899
29.0797 26.6604 393.52301
65.5569 3.8012199 391.66
63.936001 5.6342001 391.591
30.527 28.6586 391.57999
3.7446401 -48.232899 422.638
32.9021 20.570601 397.41199
77.475197 -23.3386 395.45401
28.556499 50.146099 374.06601
71.146599 5.7593699 387.26001
14.0686 38.595901 387.76801
67.436798 9.5955801 387.35101
73.494904 5.5627799 385.81601
73.0756 5.77634 385.98199
44.171299 15.3337 396.664
15.3942 50.092499 377.36401
75.1343 3.68239 385.80801
75.297096 3.4921501 385.81201
31.5383 23.133699 395.47501
69.207497 15.3552 382.72101
19.5051 29.2355 393.53
67.585098 14.9758 383.94101
67.6259 11.9557 385.79999
69.368103 13.2399 383.914
69.4216 11.4401 384.97601
69.421402 9.5140104 386.15601
69.460197 10.0186 385.836
70.138397 9.3102398 385.82001
71.244904 9.56005 384.92999
71.013802 11.5588 383.884
7.6884198 -52.1633 422.59601
-5.8032799 -38.636398 421.76999
70.444504 15.3992 381.95401
40.6441 31.944 385.80099
42.368698 32.749901 384.375
69.540802 13.0846 383.90601
71.278801 13.4628 382.64999
71.366501 11.5607 383.65601
71.383301 14.4605 381.96701
72.370399 13.4511 381.966
17.9037 32.594799 391.59698
9.4381504 -50.184299 422.345
9.5677996 -52.091202 422.43301
8.1681204 -50.168301 422.45499
71.360397 15.3 381.42001
71.451599 -12.3211 395.44901
13.5545 41.215099 385.802
76.554703 1.91729 385.87701
77.154701 1.7395 385.61401
79.003304 -0.074699201 385.315
39.349701 32.520901 385.79599
21.217501 -34.920601 420.35001
3.90099 -15.4327 418.44101
50.171101 -41.542801 412.806
-9.9130201 -13.5247 416.35699
71.737602 7.6245999 385.80099
3.33517 -16.946699 418.59698
2.01336 -15.4432 418.04501
10.7087 37.060699 389.67099
77.1278 5.75699 383.41199
75.189499 9.6374702 382.48001
56.008598 -47.014301 410.871
59.770302 7.5804801 392.83801
-1.7764699 -2.1221001 413.20801
-0.31376699 -0.75737298 412.798
75.172897 7.6516199 383.604
75.235703 7.0682802 383.884
57.848499 7.68361 393.81
50.160301 23.3277 387.771
55.878899 -27.1341 408.88199
11.4502 -52.094002 422.284
24.997499 -52.229301 420.35999
7.34479 21.212299 400.90399
33.108601 32.7924 387.73199
9.6667404 -52.4743 422.444
9.4840298 -52.1465 422.44299
9.3575201 -54.077202 422.55399
54.766499 8.0586796 395.43799
62.832401 -0.33502999 395.43701
63.683399 -1.47438 395.505
63.635201 -0.029950701 394.81601
65.444603 -0.051826399 393.81601
68.067497 -23.2281 401.23099
75.129898 -23.224199 396.944
73.572403 -21.2736 397.39899
63.68 -9.9105101 399.30899
71.2584 -21.256399 398.73499
71.513603 -23.671499 399.32401
73.199997 -27.0532 399.12201
73.277199 -25.236799 398.60001
25.2078 50.834702 374.22501
75.277298 -25.172701 397.38199
76.077003 -27.1043 397.366
75.146301 -25.1635 397.45999
61.708302 -27.143499 405.70901
79.070396 -23.322399 394.457
79.080101 -25.255501 395.01199
79.2034 -20.5802 393.51599
67.5075 -42.5658 404.978
73.382202 -5.67627 391.59799
13.0896 33.883999 391.58401
-7.5316401 -34.7658 421.16299
-6.1429 -36.6707 421.48499
-0.114705 -44.389 422.418
11.7536 31.202801 393.54001
65.683403 -3.81301 395.44699
65.542603 -3.93856 395.58099
-0.047910102 -11.4787 416.66901
64.185799 -1.96758 395.44699
65.546799 -1.94249 394.668
0.50433701 -44.876202 422.46399
1.92563 -46.395901 422.582
32.7267 40.477402 381.577
15.2612 36.584499 389.17499
28.519699 49.995499 374.24899
13.2691 36.5914 389.56699
12.567 36.661301 389.66501
14.699 36.073799 389.651
19.279301 28.9051 393.79401
56.1488 22.2586 385.83301
27.4165 50.319 374.229
65.559502 5.6798 390.53
48.296501 32.810699 381.95801
57.7356 -25.1756 407.56799
54.323101 28.975201 381.979
50.117001 26.867399 385.46399
-1.83998 -11.6561 416.45999
58.177601 7.9072099 393.508
58.7062 7.3762202 393.54599
-0.274425 -5.6019702 414.728
36.628799 -36.897999 417.37399
0.070971601 -3.9156599 414.147
54.194199 31.5604 380.008
29.706499 49.693001 374.21899
55.793301 28.930799 381.31
46.211498 -47.7547 414.55399
67.489799 1.8137 391.48401
65.484398 -5.8659601 396.47299
65.398201 -7.7251401 397.31201
69.376999 -29.098301 401.89801
15.9932 49.309502 378.108
71.493301 -17.3958 397.39001
58.0975 26.343 381.936
20.951799 19.284599 401.159
63.574001 19.2514 383.621
-7.3492599 -11.5913 415.99701
63.780701 21.6411 381.992
63.618999 21.195 382.362
65.508598 21.1814 381.302
64.5672 21.014099 381.936
57.802502 21.085899 385.74799
58.085701 23.496901 383.92499
53.988899 -34.783501 410.53299
19.533501 19.4568 401.224
62.148499 20.129801 383.89801
23.3379 -50.203701 420.52899
30.8353 -34.537201 419.095
63.482498 -3.89362 396.793
61.810902 -2.9694099 397.37701
63.515999 -1.94384 395.836
65.312202 -7.7736602 397.38501
62.349602 23.0411 381.93799
61.259499 -2.2840199 397.383
75.436401 -8.6717796 391.586
35.6464 49.456902 372.31601
78.309898 -0.072527401 385.806
59.663601 26.997101 380.62799
71.351196 -30.9627 401.13501
61.599098 25.0452 380.99399
30.880199 49.3083 374.23999
64.120102 -6.0441699 397.384
36.808899 42.719299 378.112
7.3709302 27.004601 397.14801
55.8386 23.087099 385.39301
57.854698 23.1217 384.31201
56.007599 25.135401 383.88501
56.241901 24.9774 383.87399
57.8568 24.943501 383.03299
56.5266 27.541 381.939
57.313499 26.937901 381.94699
17.905001 30.006001 393.51099
79.212502 -5.4531999 387.733
17.6446 19.605301 401.28
59.7355 5.7282 393.922
68.910004 -25.386 401.23199
61.626099 -5.84483 398.88199
62.4659 -3.8955801 397.422
63.615398 -5.9030099 397.63501
10.1427 23.380699 399.311
39.0882 24.963499 391.586
14.7601 19.8806 401.23499
23.785101 51.1245 374.245
-13.638 -23.053101 418.59601
-14.5282 -23.193199 418.57401
65.533997 11.4819 387.401
73.417503 -15.064 395.48401
67.907402 -11.3181 397.37
15.4281 42.391701 384.44501
46.620098 20.146 391.59799
63.511101 17.3542 384.862
64.297798 18.1798 383.879
63.012402 19.2439 383.95401
57.755901 -3.9243801 400.58099
65.547798 15.3101 385.03799
67.481499 13.3611 385.01901
65.838402 13.6763 385.80399
67.508698 15.1546 383.879
65.432602 17.3545 383.73801
65.113701 17.318501 383.953
65.555603 19.2766 382.43701
69.662903 -27.0436 401.25699
68.400101 17.3125 381.966
66.483597 19.0791 382.00601
65.643799 3.7564499 391.62601
11.4554 26.9368 396.396
-8.7351599 13.7945 405.08701
36.2836 25.0641 392.49301
13.1333 34.716499 390.961
7.9914398 23.5142 399.29901
46.4473 25.972099 387.724
25.627001 42.776699 381.94101
-4.63591 21.2118 401.17599
51.947102 23.122299 387.19501
69.531998 -14.0028 397.37299
73.5793 8.8454103 383.88199
57.9053 -14.8142 405.11499
57.852501 -15.6303 405.43301
13.2651 38.5676 387.91101
61.104599 -15.4766 403.17499
59.720798 -15.5239 404.26901
58.400299 -15.5617 405.09201
15.4231 21.177799 400.20801
59.810902 -18.947701 405.09799
61.634602 11.4965 389.42999
59.879799 12.67 389.73099
61.711201 -17.3932 403.35999
61.993999 -17.441401 403.20099
61.754299 -16.874901 403.168
63.591099 -17.507099 402.22198
67.1604 -29.313801 403.16
67.442299 -30.989599 403.349
59.691399 -11.5829 402.78799
26.810301 38.490501 385.254
3.5363801 -46.334599 422.52399
71.357101 -29.0483 400.76001
73.254097 7.6719198 384.77399
74.757896 7.6127601 383.888
59.800098 -12.6901 403.18799
12.9982 26.9795 396.18201
12.9328 36.5704 389.655
60.590599 -21.403999 405.08801
63.7658 -21.156099 403.16299
64.138901 -46.484798 407.02802
63.563702 -21.420401 403.35199
65.4842 -25.1619 403.242
65.568298 -19.327999 401.55701
66.2146 -19.429501 401.229
-5.6168499 -17.376101 417.746
-5.7676601 -15.4798 417.28201
42.264599 28.9237 387.50299
42.043201 30.795 385.996
61.712101 -13.5293 402.052
56.126701 9.7519302 393.51099
67.385498 -9.7176504 397.008
65.5793 7.6708002 389.44199
65.346497 -17.754601 401.22699
65.5718 -17.5333 401.01901
23.010401 28.868999 393.25201
25.992399 40.122601 383.87799
61.7229 -11.7254 401.367
59.971401 -4.1614099 399.29901
63.676399 -43.6171 407.03601
63.485001 -42.441799 406.91699
59.649799 -38.614101 408.388
-0.22773799 -48.239101 422.76401
62.412498 -38.6404 407.03799
36.946098 25.9778 391.603
36.905102 44.976299 376.14899
73.297699 -28.952801 399.548
38.565701 30.816799 387.50299
-9.9572001 -3.46984 412.80099
59.816799 -8.0635004 401.26901
65.588699 -8.2126703 397.40799
67.5 -7.7725501 396.138
70.557297 -28.9979 401.241
61.548599 5.7541399 392.87
61.751701 4.4050002 393.51401
63.650501 3.80477 392.80701
62.2388 3.7890899 393.58301
63.537102 5.7297702 391.76999
26.937201 40.456299 383.259
36.638 -50.185299 417.60999
48.352402 22.0376 389.70001
22.989599 -38.6675 420.19501
70.290901 -40.549702 403.16299
48.381802 34.8853 380.05099
44.4939 -38.631802 414.75601
44.3409 -33.319599 414.70801
30.8601 46.235001 377.121
59.724701 9.4344101 391.78201
56.844501 9.1061001 393.51001
57.779499 9.5792198 392.742
63.568501 -13.6149 400.86899
57.755699 -11.6397 403.935
5.7916398 5.7305598 410.64999
66.9496 -9.9854803 397.37701
53.927101 19.228701 388.742
-9.3829603 -9.6883202 415.19501
11.6084 -29.024401 420.702
11.5527 28.930201 395.40601
8.2677898 -30.863701 420.78299
-1.82051 11.5706 406.80301
13.6145 -30.9006 420.771
62.2286 -12.3028 401.23001
52.1297 21.884399 387.77701
15.5361 -32.838402 420.73099
14.4852 33.626202 391.58499
15.2498 34.6395 390.60599
17.094601 -34.7575 420.70099
19.121401 -34.757702 420.539
69.3032 -9.7783699 395.82401
19.8479 -36.744701 420.53
77.196701 8.6115503 381.957
19.2187 -36.6534 420.59
77.142303 3.80019 384.504
13.61 43.323601 383.86499
59.764301 -21.2197 405.57199
57.8909 -21.8855 407.02899
-17.348801 -3.9115601 412.40701
75.401398 10.3235 381.98599
26.9704 -40.588699 419.65201
69.379501 -4.1329999 393.32199
61.665001 -25.1527 405.33301
59.684799 -25.115 406.44501
44.347599 28.863001 386.66299
40.658501 37.0009 381.97501
55.9375 11.3247 392.689
55.699902 13.2966 391.655
33.047298 42.408199 380.01999
32.832802 -50.6436 418.591
76.427696 5.73737 383.883
-1.9302 -42.487701 422.24399
-0.91188401 -19.241301 418.58701
55.847301 -36.651402 409.94699
55.875801 -38.713902 410.203
26.9105 52.081902 372.164
-1.45409 -19.362301 418.595
67.248199 -17.380699 400.01099
45.064701 -40.659698 414.76901
-1.48637 -5.8006401 414.647
-12.0264 -8.4624205 414.73199
21.2696 -39.059898 420.517
-18.507299 0.0138535 410.89099
71.044601 -23.1492 399.418
26.8451 -42.519798 419.83099
55.8414 -44.5494 410.69901
75.047401 -2.01193 388.88101
50.145901 -36.852402 412.401
35.005901 34.610802 385.815
9.7184601 11.5405 407.35699
58.840698 -2.6319101 399.298
53.722099 21.1922 387.53699
50.080299 -38.637001 412.60101
30.826599 50.120201 373.371
48.777401 -34.9785 412.80701
-0.94552398 -5.8537698 414.733
15.471 17.485001 403.15601
68.717796 -17.7819 399.30701
67.569504 -15.8235 399.29599
27.117201 51.933399 372.298
61.5466 -19.366199 404.034
46.097301 36.611599 379.715
36.661999 33.923199 385.79501
34.789001 26.8874 391.603
-5.7836599 -21.3258 418.552
46.312599 33.6628 381.95401
71.598 -7.6236801 393.51199
75.0392 -5.81077 390.63199
57.688099 -0.0051747002 398.56299
-13.8639 -9.6123104 414.737
8.1257801 17.7257 403.15799
53.539299 15.2623 391.59698
56.0284 -48.4883 410.91199
53.881302 23.127001 386.41599
42.900501 20.1264 393.517
75.179604 5.68119 384.681
-2.23071 21.315599 401.22601
58.685101 -25.425699 407.02899
-3.58114 21.2141 401.172
33.905399 50.038601 372.30499
77.2631 -11.5857 391.599
19.119801 21.2057 399.827
-4.0377598 23.1436 400.07001
79.038803 -13.5046 391.13199
48.222698 -33.208599 413.03699
-17.799299 -0.182643 410.86899
69.453003 -0.62901002 391.61801
79.128601 -15.0389 391.64899
-2.84495 21.218399 401.23599
52.202702 10.4793 395.48199
61.715401 -9.7049198 400.53601
31.7127 50.7299 372.297
69.3134 -0.149938 391.46201
77.386803 -16.893299 393.52399
76.790604 -15.6645 393.521
21.1555 21.161501 399.53799
70.665497 -2.0875599 391.64499
10.5421 17.621901 403.16
40.434898 -46.389198 416.603
59.873299 -29.061199 407.01599
44.014 46.286701 372.15201
40.5378 -47.920601 416.664
42.322601 -46.557201 416.077
44.6157 36.8969 380.021
-13.4666 -7.7178001 414.164
44.3363 -42.662201 415.13101
-10.0244 -5.8071799 413.746
31.667 -38.606701 418.60501
30.8524 -38.6479 418.776
44.681599 13.9621 397.405
32.255699 -40.769199 418.59399
32.499901 -40.525002 418.51801
50.073898 -29.056101 411.95999
32.817299 -42.2229 418.59
34.613998 -40.542198 417.99899
32.793999 -42.467701 418.61099
36.635101 -42.507099 417.63501
-10.1622 -9.6803398 415.168
55.931198 15.2935 390.328
38.402302 34.679298 384.54901
36.746799 36.274799 383.883
36.6478 -44.8536 417.64801
42.562401 44.7808 374.25201
60.413898 5.75103 393.51501
38.5788 -42.552101 417.064
76.544701 9.3264503 381.944
59.7658 -31.1537 407.39401
24.0403 43.148201 381.944
11.5948 39.069698 387.72299
46.280701 -50.246601 414.77399
80.966698 -15.5597 390.702
79.611801 -15.6737 391.59201
67.500603 -25.2299 402.08099
65.701103 -25.268 403.16
40.9893 16.6166 397.38
1.8128099 23.1064 399.97198
38.9114 22.4067 393.522
13.3084 23.117901 399.10101
61.973 -36.818401 407.01401
10.0626 -27.0942 420.522
9.7028503 -27.2789 420.478
46.080002 19.212099 392.57101
71.334198 -25.23 399.87
16.9736 55.929298 369.548
73.445297 2.31372 387.72601
75.208298 1.8200001 386.78601
73.811096 1.7824399 387.767
40.316502 32.778099 385.194
46.364399 -50.167198 414.73901
9.7058296 -29.0233 420.59799
28.728001 42.409199 381.43701
26.9557 42.387199 381.95499
17.496799 22.138201 399.29599
67.786697 -30.9328 403.15399
46.325401 40.807499 376.17899
38.359699 25.066401 391.78201
38.292099 23.060801 393.255
15.3488 54.010502 372.642
17.109501 53.956501 372.34799
15.9125 22.383301 399.29599
13.6678 22.7349 399.311
59.701698 -46.3069 409.172
-8.1419697 -15.4437 416.90601
71.372597 -31.511999 401.228
60.583302 -50.217499 408.95499
1.05907 3.7205501 410.888
77.120598 -9.83599 390.979
78.940002 -9.6772699 389.67599
19.4881 39.7939 385.82999
36.826302 31.2728 387.746
69.343597 5.7457299 388.34
79.010696 -11.6688 390.448
17.770599 48.977798 378.08701
19.3048 48.645599 378.091
48.099899 25.0298 387.63
48.693802 29.938499 383.87601
-14.4226 -3.9410701 412.53601
39.423801 -34.820202 416.65601
17.407101 50.789902 376.14899
19.251101 50.127102 376.56201
1.77054 27.028799 397.371
69.429001 -11.8255 396.599
67.994301 -11.5822 397.42499
21.2812 43.693802 381.953
21.011299 42.411201 383.44199
63.651402 -38.582298 406.44901
48.085098 13.389 395.93201
21.188499 40.423698 384.85101
21.721001 41.645199 383.86801
19.4751 42.276699 383.883
59.741001 -44.456299 408.99701
21.915899 39.454899 385.79401
20.837999 -38.5905 420.54199
-4.65662 10.631 407.013
23.373699 39.035 385.80301
23.132099 40.5023 384.30801
24.794001 40.442699 383.91101
-0.104297 -42.449402 422.13699
23.0285 42.396 382.96399
21.202999 46.219501 379.862
22.6404 46.2785 379.47
65.9702 13.4821 385.84601
17.9872 46.858601 380.02802
19.4814 46.509998 380.00699
19.2334 48.2005 378.543
21.0161 48.176399 378.23599
24.936199 -40.6036 420.021
80.181099 -11.6947 389.72601
73.0606 -32.8297 400.47601
11.9082 15.417 404.69699
59.773399 -32.947399 407.64999
34.568901 46.2444 375.944
36.615101 46.2696 375.285
17.8515 44.607899 381.94901
16.523199 44.962502 381.93701
17.117599 46.272999 380.70499
19.237101 46.235199 380.293
22.947701 21.1882 399.189
21.6336 53.103401 372.298
21.057501 34.701099 389.50201
69.632599 -20.026699 399.302
22.9813 50.086399 375.73001
20.856701 50.142399 376.20801
67.425003 3.8055899 390.46201
19.917801 53.443802 372.306
32.5019 50.111801 372.76401
19.087299 55.907398 369.086
59.763599 -36.777 408.19199
-2.41715 -43.963699 422.44299
-1.65529 -43.973 422.44299
-13.4851 13.4688 405.05099
22.8043 53.965401 370.94
24.4613 54.040199 370.396
0.54320002 11.2085 407.01099
2.20714 11.5718 406.84399
32.922901 46.550098 376.19699
56.761501 -0.41154599 399.30499
30.802999 -40.621201 418.905
28.922501 -40.575802 419.29001
23.1353 55.918701 368.017
25.0158 42.430698 382.42499
24.229799 40.668701 383.87299
21.581499 -31.2612 420.51401
41.005699 21.275299 393.52899
1.56313 11.5655 406.82401
63.701599 9.1094599 389.66599
57.642601 -34.814701 408.89401
15.2498 23.142401 398.83899
10.2493 -54.093102 422.444
24.9709 -50.159901 420.21899
62.755001 13.4168 387.81699
57.917702 -36.388199 408.979
59.736698 -34.9291 407.939
-1.92169 13.4851 405.67401
-5.88521 13.4795 405.51199
61.6581 -38.6819 407.39499
56.1021 -29.114401 408.96399
61.600899 -3.92626 397.98099
25.2775 25.282301 395.45001
69.381203 -40.508801 403.74301
24.8424 23.1423 397.17099
25.069401 25.0338 395.67099
55.8797 -25.112 408.68399
26.714001 19.2836 400.099
1.9633 -0.0066463202 412.686
0.0755523 1.92307 411.58499
-0.65834802 -46.302101 422.61801
-0.74075001 -44.406898 422.44299
44.602402 18.930099 393.52899
44.054501 42.411499 375.67001
27.0993 22.283199 397.38101
61.463001 3.8445201 393.98099
26.011499 25.043501 395.44299
26.977301 23.141199 396.677
73.245399 -34.889999 400.68399
3.34811 17.337601 403.58401
25.0438 28.9056 392.767
40.2314 -46.457199 416.668
-1.31999 -0.0186352 412.33701
0.117142 -0.031513799 412.509
63.716 -29.299999 405.09799
65.572601 -34.887699 404.97501
3.1614001 15.4099 404.70801
65.480797 -32.978001 404.742
64.7286 -32.806301 405.11301
75.3284 -13.2745 393.51099
-1.50346 23.117701 399.95001
44.337399 -38.828701 414.83499
42.292801 -40.591801 415.72699
0.1901 17.3328 403.46701
32.747501 48.208401 374.716
63.0112 -13.666 401.23599
-1.3430901 3.82778 410.57101
-1.39601 3.1589799 410.88
55.816299 -21.324301 408.01199
68.653603 -7.7799501 395.461
51.743698 28.872299 383.28201
46.377499 38.6096 378.09698
22.661301 34.700001 389.19299
19.7992 34.766998 389.67001
63.644001 -36.7533 406.16199
44.3214 -40.648998 415.047
73.151299 1.79708 388.198
71.339302 1.85515 389.30099
71.4786 0.996925 389.68701
44.444199 16.7152 395.48099
61.6404 -36.674599 407.168
23.3981 36.495201 387.73499
65.753601 -36.3176 405.103
69.441704 -7.86026 394.91901
65.442497 -35.3125 405.09201
59.946899 22.1285 383.888
30.5585 34.7202 387.22501
23.7239 25.8517 395.44699
8.3838701 25.073099 398.03101
26.8188 28.872 392.36099
25.1966 27.973 393.51901
46.237999 15.387 395.50101
38.452599 -46.337002 417.14999
26.6388 26.9958 393.91699
27.277599 24.57 395.47101
28.784201 26.7747 393.522
28.930401 24.983801 394.758
76.065804 -9.6497602 391.58099
-3.45906 9.6302204 407.711
-5.77144 9.6388302 407.38501
59.817799 -43.740799 408.944
28.8286 28.915701 391.82999
73.783997 -29.135201 399.314
48.4021 -29.2862 412.81201
69.398399 -13.7959 397.39899
48.114101 30.8234 383.48801
48.573898 -31.2194 412.80499
-2.6259999 7.29987 408.95001
42.772499 17.885799 395.439
-3.4400101 -5.8163199 414.474
-9.8523998 10.1913 407.04099
-9.6757298 -21.961201 418.59698
77.1511 -11.9029 391.80499
75.085602 -11.6062 393.00201
75.544197 -13.6523 393.53
52.630699 30.122 381.93799
59.251801 -27.0938 407.04001
-1.4914401 5.74439 409.686
56.2071 16.0742 389.673
48.256599 13.8849 395.47699
42.3274 -35.1292 415.53601
-12.8378 9.6866102 407.01801
44.402699 35.025398 381.96301
37.963902 22.884501 393.51401
35.283298 24.0958 393.53101
36.643902 23.0679 393.854
40.858002 24.0187 391.58499
7.60747 -46.3018 422.228
52.3349 -29.0215 410.90601
48.608002 32.6152 381.95401
50.132401 30.853901 382.48099
32.6329 30.815399 389.39999
23.061399 38.489799 386.32001
32.720402 26.981701 392.21799
53.9617 -38.598801 411.02899
54.049801 -37.914902 410.90601
67.533798 -1.98422 393.52899
67.440903 -2.06036 393.62601
57.864498 -44.549099 409.86301
39.004799 48.242199 372.31201
36.749599 49.0481 372.30801
70.1745 -21.2328 399.31601
-19.4617 0.39938799 410.871
52.053398 -29.172001 411.05801
52.533501 -30.9084 410.89401
44.381199 -38.023399 414.741
13.3271 32.733398 392.34201
75.186699 11.5547 381.45401
28.8183 -42.543701 419.47601
8.60145 34.914501 391.58301
-2.2013199 -46.345402 422.62799
34.7808 32.0467 387.754
34.702999 -42.534599 418.16699
44.431099 44.065102 374.237
-13.3058 -5.8260999 413.52701
44.269199 25.010201 389.39099
-7.9538202 -7.7704802 414.72699
-9.4538097 -7.7427802 414.50699
61.724098 -40.567001 407.63199
59.680599 -40.545799 408.53201
58.757999 -40.527199 408.953
31.4249 36.062099 385.811
40.3531 23.128401 392.401
30.692301 -42.438999 419.09201
61.708 13.4785 388.22299
17.187 -40.639801 421.151
72.429604 -13.7746 395.51599
-7.78017 17.4321 403.177
51.945999 -38.702202 411.86499
51.9268 -40.686699 412.06601
9.6143703 -56.0369 422.64401
69.667198 -9.6691599 395.51099
2.0662799 -28.976 420.58099
0.58526403 -29.056601 420.517
26.540899 52.051601 372.31
25.040501 52.056702 372.716
24.908899 53.933498 370.39301
25.2059 52.3242 372.33099
23.5327 52.704498 372.315
28.8311 -36.6021 419.19101
0.23997299 -21.2509 419.099
59.764198 -4.0846601 399.42599
2.1507699 -17.364799 418.45001
-13.1118 -15.4908 416.543
53.995899 -32.814098 410.314
53.948101 -30.971399 410.181
0.0092314295 -19.3034 418.651
1.43253 -18.5345 418.58701
11.4901 -50.276901 422.13599
2.8081901 0.069862999 412.79901
48.830601 13.4365 395.474
44.233002 21.1933 392.14401
55.847 -30.9275 409.29599
42.526901 46.7379 372.30301
43.4608 17.3535 395.504
-9.34974 -5.9089999 413.85699
57.530899 -34.9217 408.95801
-5.4707899 -11.5756 416.207
-2.1665599 -12.4087 416.65601
-4.3042102 -12.8133 416.65601
-4.1620102 -1.64577 412.79999
30.623199 -46.450199 419.077
59.658401 -42.563499 408.84201
-1.1138901 -12.0704 416.66901
51.938499 30.841999 381.74301
19.5098 21.757401 399.32001
46.274399 -33.4147 413.883
-3.2678199 -13.5242 416.92001
32.7024 -42.542999 418.63699
-1.81613 -13.5152 417.00601
0.066705197 -17.368099 418.20401
0.108982 -15.4687 417.72501
-7.7334299 17.356701 403.207
59.3377 -42.5439 408.97601
56.522202 -31.1 408.98599
48.1656 -34.7253 413.06601
-1.67248 -17.367901 418.10199
-1.79119 -15.5258 417.58499
-3.8545401 -15.4771 417.46701
57.841999 -30.952801 408.31699
57.112 -33.016399 408.944
57.804001 -32.856201 408.58701
1.42872 -4.8786998 414.73401
-7.4532599 -9.6761198 415.435
-7.60219 -7.7434301 414.76501
21.296499 21.371901 399.32599
-7.6951399 -3.8648 413.297
60.550301 -31.2764 407.01599
-6.3607001 -2.09056 412.798
50.0028 -40.685398 412.81201
-7.9099798 -2.7033899 412.80399
-13.4424 -9.6963797 414.84698
-9.4463396 -3.90398 413.035
46.1744 -34.803699 413.92801
-7.1829801 -0.024371101 411.797
-7.6384802 -1.93953 412.54401
24.853001 44.3512 380.47198
63.602501 -19.4074 402.77701
62.879299 -19.303101 403.19199
-17.8018 -9.6533203 414.53299
-17.616501 -10.1802 414.733
21.143101 26.996201 395.091
19.9051 26.877899 395.44699
59.691799 -1.9561599 398.31299
-17.521999 3.8430099 409.24399
11.158 -56.0093 422.46899
23.153601 45.430901 380.02802
22.8869 -40.560799 420.366
75.237396 -3.93926 389.673
2.86215 -17.366199 418.58499
42.312 17.3498 396.14499
69.437798 -30.885799 402.26199
20.765301 38.565899 386.80899
50.076401 28.846001 384.08701
74.226402 -11.5768 393.54001
77.155197 -27.3235 396.694
34.467201 32.723598 387.354
31.2258 47.258598 376.14801
33.033699 -44.569801 418.591
17.068399 52.062401 374.638
41.273602 21.129 393.522
73.138 -36.7323 401.01501
21.525801 28.870501 393.52301
71.266403 -27.0541 400.38
9.66854 -44.432499 421.97299
38.7411 37.727798 381.96701
-5.9457698 14.436 405.08801
72.861298 -27.145 399.34799
17.288799 23.144199 398.603
46.085602 34.6968 381.51199
46.241199 -38.680801 414.12
15.2924 38.568699 387.629
42.340599 36.647202 381.444
44.2491 36.594501 380.45599
72.997803 -38.741199 401.505
73.333504 -38.3423 401.26099
72.764702 -36.864201 401.241
21.190901 32.766701 390.87701
76.968597 -25.123501 396.26199
22.8612 44.349701 380.95001
78.315498 -25.222 395.453
69.396698 -32.829899 402.58401
42.364799 -36.896702 415.479
42.2472 -38.640301 415.561
27.237499 35.1138 387.771
11.6005 13.4275 406.095
68.446404 -32.930901 403.17801
52.217899 -27.9419 410.87601
32.827599 27.750401 391.58801
12.4967 14.843 405.08401
19.0996 23.1437 398.32401
25.0886 53.872299 370.41101
5.9685898 -23.212799 419.85699
46.100101 26.9557 387.28699
21.2757 45.980999 380.04001
-3.9028001 -20.155001 418.60501
69.405602 -34.810699 402.84299
69.417503 -36.688999 403.20001
5.82026 -25.1999 420.048
1.89843 21.2157 400.862
3.8599801 -25.094601 419.936
67.402496 -34.871201 404.10599
34.625099 -44.4655 418.18799
6.2497802 -27.014799 420.29999
26.9196 53.9683 369.74399
50.8643 -46.327499 412.81601
68.875603 -34.923401 403.15601
8.0689898 -28.983101 420.57401
48.127399 -38.681499 413.39999
48.205799 -36.707699 413.15201
5.8545399 -28.5452 420.51501
7.9302101 -28.4746 420.51401
5.8088698 -28.993401 420.577
53.692001 -36.8116 410.91299
69.542 -36.805599 403.15601
-1.91071 -9.6828003 415.88599
3.99212 -23.167999 419.64099
75.179298 -32.928799 399.17499
75.153099 -30.8636 398.76901
71.653198 -32.82 401.26001
-1.86077 15.4133 404.453
-0.832403 14.6492 405.082
3.9043601 -19.436199 419.10999
3.9281199 13.4744 405.819
42.183998 21.192101 393.07599
1.9723901 -19.343599 418.80499
69.249199 -19.5137 399.42899
3.95735 -21.3132 419.34799
38.648899 20.2414 395.45999
38.376499 21.202999 394.69
55.799198 -34.8536 409.746
55.9272 -32.827 409.45599
1.94874 -21.3225 419.20499
-11.4863 7.4889898 408.052
-9.8881397 6.2466698 408.953
67.407097 -0.0180229 392.59
65.964302 -0.0187038 393.51901
69.3722 -1.96059 392.27499
50.108101 -30.968201 412.09
71.268097 -32.8867 401.47198
50.0186 -46.4212 413.121
7.55234 32.677299 393.224
67.376801 -21.3248 401.21701
67.464203 -19.3675 400.54401
-1.60333 17.475 403.15701
46.342098 15.3847 395.439
-7.7971401 -31.139799 420.51501
71.365501 -36.993198 402.16199
71.228699 -34.782001 401.88
59.829399 25.0385 381.93701
51.469601 30.8234 381.94199
67.552101 1.55073 391.595
67.295998 1.8411 391.60501
-5.7203302 -19.3333 418.16699
39.8493 17.193899 397.41699
59.681301 -23.434799 406.10901
-9.4139004 -30.8888 420.401
53.991901 -46.398602 411.634
44.135502 19.1968 393.569
42.4076 19.258699 394.39401
63.631199 -48.326801 407.41599
72.397903 -35.016998 401.25101
-7.7111301 -32.833 420.79999
46.263599 21.119801 391.26001
46.233002 23.0979 389.922
25.0184 36.565102 387.15701
24.6558 38.568901 385.80099
24.9699 34.7108 388.72
-7.7045002 21.213301 401.164
-4.4632802 -34.774799 421.173
-4.5875201 -36.659599 421.45401
11.0286 34.7071 391.246
38.774399 27.5432 389.668
75.147598 -34.7355 399.54999
-3.82674 -38.6516 421.70599
65.539001 -36.7463 405.289
36.205601 26.985399 391.099
71.110901 -7.7781701 393.82101
63.944401 -44.440498 407.013
65.860497 -36.702099 405.12399
7.7571502 -23.2864 420.16199
10.5254 -23.3389 420.51501
15.4742 54.2593 372.29599
32.6838 28.9175 390.71899
31.338699 28.3792 391.57999
15.4876 -28.314699 420.73801
13.5501 -28.9564 420.80801
48.196301 32.699299 382.08401
26.6845 44.2523 380.10599
11.5933 -24.0436 420.69901
69.477097 -4.87253 393.59601
71.329002 -5.80656 392.92001
71.3312 -4.11409 392.18301
13.5377 -26.0123 420.84299
40.4711 -34.8773 416.23801
13.5046 -27.225901 420.798
65.553101 -42.5895 406.02499
65.529503 -44.533298 406.202
11.5952 -27.152901 420.68399
11.6761 -25.344101 420.67801
20.167101 -31.341801 420.504
19.912001 -31.263 420.526
50.420898 -42.6283 412.80801
21.064199 -32.832901 420.5
17.421801 -32.9468 420.66599
20.8337 -32.819599 420.522
24.886101 -38.6311 419.88101
50.103001 -34.920101 412.246
50.089401 -32.986698 412.15601
53.926399 -29.200701 410.12799
14.9823 38.489899 387.73999
59.6408 17.335899 387.125
61.068901 -5.8935299 399.29999
23.130501 -36.7873 420.069
59.5811 -28.976 407.159
57.864399 -28.9837 408.05099
11.5454 38.511101 388.211
40.328999 21.1301 393.966
26.8866 -36.729198 419.51001
26.9925 -38.7603 419.51801
73.285301 -7.7554798 392.59
75.160202 -9.7831202 392.216
40.488701 -48.778301 416.582
38.431 26.9942 390.27701
42.296398 15.3807 397.67999
15.4349 -31.1243 420.76901
64.436897 -48.459202 407.07199
42.3582 23.122499 391.61099
42.573898 22.9695 391.62701
67.610397 -21.8988 401.228
69.398399 -21.303801 399.81299
41.708698 28.8617 387.74399
0.157828 -11.6101 416.74399
42.4142 38.550999 379.827
50.112598 -27.054501 411.84698
33.2957 32.720798 387.729
74.939102 -32.968899 399.32501
75.288696 -33.977402 399.315
40.4772 -36.653999 416.14899
40.502499 -38.6441 416.15399
38.8965 -38.5914 416.66101
34.995899 41.732399 380.01001
36.464802 40.501301 380.46201
25.065001 -35.918598 419.827
26.958 -36.362999 419.51599
8.8019695 -34.733101 421.246
9.1451702 -32.894402 421.005
51.8666 17.1868 391.25101
52.1436 16.392599 391.621
-9.6234703 -28.944799 420.04999
-2.42222 25.0695 398.841
55.696301 30.586901 380.021
62.271 -7.8009601 399.32501
22.999001 36.601501 387.73801
21.124599 36.642601 387.99301
21.2586 36.978199 387.737
71.316498 -13.6845 396.04099
17.356899 28.759701 394.246
17.439301 42.648201 383.867
9.6238298 -42.464298 421.94299
44.110199 38.440899 379.30801
55.951401 -28.4543 408.97198
11.4295 -42.451401 421.82501
63.6423 13.4421 387.32999
-3.25666 -44.3773 422.444
15.41 -46.3242 421.634
13.329 -44.3811 421.83801
13.4829 -46.3815 421.80899
0.0174402 -36.6917 421.55301
45.260601 36.559898 380.01901
48.213699 34.720699 380.35599
19.2293 -52.107498 421.354
30.7605 48.150299 375.45001
29.0912 47.973598 376.14899
67.127899 5.6783299 389.707
0.72013497 15.4206 404.724
21.7332 26.3888 395.444
57.763901 -27.1569 407.81
59.7598 -50.369301 409.35999
15.5965 55.538898 370.366
31.695 30.7852 389.66199
17.272499 -48.230598 421.431
45.660599 21.0683 391.58401
18.9883 -50.222099 421.28799
17.3557 -50.178299 421.505
51.9646 -25.2195 410.659
50.2523 12.2652 395.45999
57.861401 -17.4447 405.97
51.906101 11.5392 394.897
61.684299 -30.8647 406.37299
11.3651 -40.5499 421.53699
-8.0868101 -27.0361 419.67001
60.299801 2.3875 395.461
59.104801 3.6108601 395.47601
16.191299 27.5233 395.44101
27.634001 46.266701 378.099
34.720402 30.8554 388.81201
-0.35774601 11.2556 407.01501
-2.6224699 11.0061 407.035
2.7107601 30.111 395.44199
51.817402 -27.0515 410.939
52.022099 -27.069599 410.84799
1.78535 28.931 396.26599
17.0329 38.5462 387.38101
13.2752 -52.0821 422.09
50.137501 -26.866199 411.811
-3.6154699 -21.223 418.84799
7.7061901 19.287399 402.14401
56.057301 13.1056 391.58499
5.7507 19.288099 402.26801
77.127296 9.5527 381.534
6.0878401 20.832701 401.22601
3.9909101 20.8326 401.25699
4.1308699 21.2054 400.96399
11.6365 -30.930599 420.74799
2.4083099 21.187599 400.82101
3.80249 23.116301 399.62
61.7906 14.3456 387.74301
55.837101 17.315001 389.03699
2.58324 24.145599 399.298
4.20227 8.1849499 408.96201
11.8447 -40.5144 421.51001
17.2705 -52.312302 421.62201
9.68682 -30.866699 420.759
1.26238 -42.442299 422.103
3.44806 25.065399 398.67401
-9.7542896 -31.732 420.51401
4.7066698 26.9988 397.32901
3.0827601 26.988199 397.28699
63.249199 -42.540901 407.052
4.5218701 26.9403 397.37299
66.114098 10.3841 387.724
2.18435 26.958 397.37
11.1617 -32.806099 420.91699
-0.31637001 -40.5275 421.93799
1.49182 -40.545898 421.93201
50.772202 22.917999 387.75201
-2.6031699 -40.5364 421.92099
4.54738 -40.548698 421.90399
17.009001 48.2066 379.01501
15.3677 48.184799 379.384
52.047699 21.1376 388.353
53.585602 20.871799 387.741
5.8264098 23.139999 399.48499
6.2747798 23.405701 399.30701
2.7881501 -40.515499 421.89999
74.429298 -23.281 397.384
65.718498 7.0545702 389.67401
67.459801 5.73105 389.52399
0.064785503 -13.7159 417.271
60.285198 -13.601 403.18799
-10.1602 -32.7925 420.72501
-8.0403204 5.7787399 408.987
-5.7775898 -3.99807 413.59799
4.1367202 9.5695295 408.13101
2.11216 11.2677 407.01099
11.4406 -48.4105 422.06699
35.129799 45.691399 376.16901
2.34676 -42.445499 422.09399
4.0959401 29.947901 395.44699
5.6594501 30.849701 394.69101
38.109299 30.747801 387.74301
5.7254 -44.3661 422.19101
73.597099 -6.0137401 391.608
75.133499 -7.7622299 391.397
77.148697 -8.2639799 390.29901
74.910301 -7.8570399 391.58401
17.2463 -36.672001 420.82001
73.237099 -1.98641 390.039
73.815102 -1.96652 389.66299
1.9744101 -44.373402 422.29901
2.2198501 -45.4016 422.444
71.5158 10.9697 383.88501
26.5949 50.120098 374.69199
-5.8713298 17.738501 403.15399
13.3661 -42.504601 421.55099
55.9333 9.6254797 393.68399
54.174301 11.4165 393.522
1.62809 24.2031 399.29999
46.683899 23.146099 389.67801
67.2565 -15.4648 399.341
66.254402 -13.7282 399.298
67.488197 -13.5658 398.50699
28.836599 -38.647301 419.18799
65.569099 -48.3195 406.53101
67.423698 -46.401901 405.42599
37.1073 38.349201 381.95099
21.407801 55.9356 368.444
22.7682 54.427502 370.366
34.811298 43.530102 378.09799
-9.2890396 19.2561 402.22699
-9.2364998 -32.8316 420.70499
63.829201 12.6399 387.72299
32.739101 -52.2631 418.77499
9.4750299 26.973 396.80499
53.753101 30.857 380.927
74.659103 -17.4867 395.491
4.3045402 4.6381798 410.888
28.8016 44.300598 379.40201
15.2832 -42.4897 421.38199
26.331499 46.747299 378.07599
24.9505 46.281101 378.85999
26.9867 46.228699 378.32199
53.892399 32.785301 379.21399
77.0942 -13.6044 392.52899
-4.1470399 -40.539902 421.98401
15.37 -44.389599 421.56299
-2.4068301 23.1446 399.94901
42.344398 25.030001 390.22198
17.277399 -44.388 421.211
13.1151 -32.798401 420.82401
-4.3923001 -32.812901 420.76801
4.7936001 14.7126 405.09601
15.3511 -34.855499 420.827
2.4214799 4.1068401 410.87299
6.1868 8.5290098 408.94501
7.7315302 9.5606604 408.50201
5.92729 9.6287298 408.25299
24.7544 21.209 398.87
50.077202 -42.696201 412.95499
51.859402 -36.664001 411.66599
5.7932301 11.6471 407.03
11.5549 -54.1129 422.30701
6.1347198 13.4755 405.92001
72.140297 -25.1651 399.38901
63.504501 -9.7042103 399.33499
-10.0584 -3.90555 412.98599
-6.4156799 10.2044 407.013
-8.04807 10.4906 407.02701
2.11816 -3.88937 414.47
0.34066099 -1.94798 413.42401
36.580601 42.432098 378.509
57.803902 -50.352299 410.336
57.803902 -48.226898 410.15799
57.657799 28.777599 380.44901
62.048599 10.7913 389.651
48.168701 28.820499 384.98901
51.992001 19.2714 389.80701
50.189499 20.8167 389.65399
49.555302 -38.735001 412.823
9.8036098 29.127501 395.44601
9.6095505 30.774599 394.17801
-2.9089999 3.0020299 410.87201
-1.77393 1.8956 411.41901
-4.1264 -29.7691 420.51599
71.324501 -38.846401 402.38901
-3.79563 1.89007 411.315
-5.7310901 -0.136077 412.04501
-7.5732198 3.8059299 410.01001
0.103217 -5.87008 414.88101
2.05776 -5.85987 415.26801
19.2183 -46.377201 421.23401
17.261 -46.349602 421.48001
-4.73557 2.7864599 410.88101
-5.74576 1.8596801 411.16699
67.501602 -27.202801 402.48099
-5.8906102 2.50702 410.87
-7.6961198 1.84807 410.91599
48.654999 34.694901 380.06799
-7.8519802 9.6299 407.39001
19.192301 -48.339901 421.20599
-7.8179798 5.8878198 408.95001
-7.8503199 7.7092199 408.16901
23.0242 32.7854 390.53101
65.533501 -31.087999 404.41
-3.82933 -3.87922 413.71899
-1.92424 -3.93014 413.91101
-7.6529398 5.7399802 409.04501
43.695301 24.998199 389.66299
-7.4405899 7.7007499 408.159
-6.6147599 9.63694 407.289
38.573799 -36.774899 416.79599
15.5219 35.854698 389.65799
17.177099 36.603699 388.75699
38.518299 -44.493698 417.108
6.7751098 17.791599 403.15302
4.06178 17.9771 403.15302
4.96275 17.349701 403.49399
21.218 -48.6618 420.892
50.004002 34.6507 379.448
23.051901 48.149899 377.82001
40.493 -50.158798 416.57199
69.411201 -42.558498 403.89001
10.7691 15.4314 404.70499
57.805199 -21.541201 407.01199
6.84589 17.3088 403.46301
9.5809097 17.3528 403.38101
21.384199 50.070702 376.14899
7.9457502 15.4244 404.728
5.8116798 14.7603 405.08701
5.9867401 15.4017 404.685
15.5693 19.7894 401.22699
16.8934 21.212 400.056
61.574501 -7.7179098 399.754
20.071301 34.7006 389.67401
10.0312 -23.686399 420.33899
21.1159 -50.2453 420.94699
59.7477 21.1819 384.603
57.9118 20.880301 385.828
60.9814 21.175501 383.918
2.2595301 -38.580898 421.806
23.056299 -50.272301 420.58499
-17.5159 -11.6445 415.25601
-15.4063 9.6145601 406.79099
-13.9454 9.51964 407.01999
1.95187 1.8869801 411.87701
-17.1786 -2.09975 411.70099
-16.2372 9.1802998 407.013
-15.4994 9.6113701 406.79001
15.4316 -52.088299 421.82501
-17.359301 1.9047101 410.03799
46.847099 35.739899 380.00601
67.424599 -44.5168 405.14801
26.960199 21.215599 398.41901
25.3815 22.744499 397.38199
-15.5279 11.4446 406.06601
-1.86622 -38.6772 421.74701
0.091419302 -38.633999 421.80399
13.4874 -48.263699 421.84601
13.3784 -50.1884 421.966
61.689899 23.1092 382.276
24.084999 -52.088699 420.52399
55.767799 -46.3153 410.91599
71.405098 -2.8487799 391.58099
72.105598 -3.8767099 391.61301
-9.8408699 -0.079641297 411.40302
-7.5689301 -13.5488 416.491
63.6422 15.3911 385.879
24.142799 23.0082 397.39999
58.812698 23.0338 383.866
59.786701 23.037001 383.341
59.542 25.0303 382.08801
22.947201 -52.1366 420.73599
63.637901 -11.6202 400.04501
64.841301 -11.6665 399.32599
61.624401 15.4228 387.24701
11.3014 -34.7813 421.11899
5.7330599 -42.4757 422.005
13.615 15.4284 404.66101
72.866096 9.5694904 383.871
69.456902 3.42942 389.68201
-3.5256 -11.6338 416.32401
34.656502 34.687302 385.87601
70.622299 1.89889 389.75
67.354698 -21.3398 401.23499
61.660198 -50.232101 408.492
57.951302 4.8136601 395.46701
71.363503 -1.9453599 391.20401
71.162102 -0.044224799 390.439
-13.4033 5.7474999 408.59799
42.1689 44.352299 374.745
40.384499 44.3535 375.42099
18.9548 38.5373 387.12601
-13.5365 4.9045 408.944
-15.4157 5.7764902 408.52899
11.3341 34.162498 391.60599
-8.9740896 -13.5388 416.302
32.783001 -34.183601 418.60599
33.305302 -33.685501 418.59
-11.7706 9.5587997 407.03101
-5.8272901 19.250601 402.25699
-3.52215 13.9554 405.09201
-7.93823 -14.424 416.65701
40.515099 26.6409 389.70801
1.21452 -0.38833699 412.79901
55.979 3.9972501 397.37399
0.322662 5.7542601 409.80499
15.3905 19.2815 401.65799
13.5339 17.577101 403.17001
59.2085 -11.9015 403.20499
57.463501 5.3179102 395.45099
1.93025 -9.6717501 416.59299
1.96463 -7.74648 415.944
-9.2729101 -11.5972 415.763
0.34049401 -9.6476603 416.241
1.67399 -10.0721 416.65701
28.7605 30.843901 390.509
-4.9568 -1.94217 412.87
-3.45907 -0.045712199 412.16901
-2.5440099 -1.33144 412.80099
-3.67663 -1.94107 412.96201
-13.6112 0.33142599 410.88199
48.2005 -40.5121 413.53201
46.237499 -40.544399 414.306
6.55651 -42.469799 421.97699
9.7449799 -25.1584 420.48199
58.237801 -5.8595901 401.23999
32.780602 32.728199 387.89099
40.9314 47.431499 372.30801
5.5222201 -13.7518 418.60101
3.9437599 -13.526 418.108
69.026398 -0.103692 391.58401
1.95163 -13.5125 417.63699
7.9089999 -27.0849 420.37
1.9701999 -9.9151802 416.67899
38.456799 48.1991 372.608
-13.4892 3.8274601 409.40201
69.378304 -23.186501 400.34799
3.9495001 -17.468399 418.81601
4.4740901 -15.4974 418.59299
69.3769 -15.4352 398.01901
32.4561 19.2729 398.604
5.8709102 -17.3923 419.23801
28.9328 -36.837898 419.155
59.794701 19.125 385.953
40.9655 45.654701 374.22198
21.001101 30.8291 392.36301
70.898201 -11.6085 395.44
73.252098 -11.8817 394.302
71.325203 -11.7871 395.29599
48.212502 -46.699699 413.85901
66.832199 -40.681198 405.11401
34.5536 42.322399 379.50699
32.9627 44.264099 378.095
48.052898 23.116899 389.03699
71.354897 -19.425699 398.11899
44.325298 40.438301 377.189
9.6029902 -36.666401 421.401
38.521301 -50.3298 417.12399
27.105 32.7453 389.659
29.3223 32.064602 389.65701
-10.6647 -30.891399 420.35599
-13.7051 13.4706 405.043
-13.5918 -25.0865 419.08401
-14.7825 13.5969 405.082
67.581703 5.3399301 389.668
69.304001 3.5887101 389.68701
9.8237305 17.3284 403.39099
12.1105 17.557301 403.18201
12.2118 17.3568 403.32999
57.0065 -19.7428 407.03101
57.860802 -19.3904 406.495
55.260899 22.9245 385.83099
65.418297 -40.6035 405.77499
24.990999 32.757401 390.10901
63.6175 -46.3503 407.319
34.797901 21.8951 395.491
46.156898 24.980301 388.48099
44.636398 24.4111 389.67899
-7.0423999 -30.989901 420.517
59.753502 -19.6723 405.298
59.9123 -19.353201 405.11099
-13.4978 -0.0183872 411.07199
-13.7099 3.8573401 409.39499
32.732899 -44.473202 418.664
29.797701 36.6395 385.82401
21.191299 52.081799 373.70901
22.965401 52.009701 373.35599
45.0401 26.8587 387.75201
18.3452 37.836601 387.73001
-7.3691702 -17.370199 417.48401
36.6007 -33.842899 417.58899
64.327904 -31.0581 405.11401
64.263397 14.9679 385.79599
63.4785 -44.379101 407.233
19.174 53.996399 371.78799
18.5075 55.1507 370.38501
19.2391 53.585098 372.293
19.732599 54.9641 370.371
21.040899 53.940399 371.43301
40.463402 26.889099 389.522
60.882 -32.804501 407.05301
6.1437802 -19.379 419.48901
54.078499 23.837799 385.80399
44.277901 46.044498 372.30499
6.01863 -21.297899 419.673
7.7399902 -21.430901 419.92899
34.6563 -50.3209 418.14001
70.266602 -5.8937502 393.53699
44.344501 -34.770901 414.70599
25.7843 38.090801 385.82001
-7.55127 -15.4542 416.98499
-3.97521 18.0408 403.15601
-5.3874698 -27.0121 419.99899
-3.1744599 -28.9491 420.414
-5.7564001 -29.009001 420.26501
66.428101 -27.1381 403.17401
65.5065 -27.0338 403.70901
-7.61585 -25.085699 419.45599
57.787498 3.82565 396.19501
78.819099 7.6949401 381.517
-6.1980901 -21.258499 418.521
-6.8301902 -19.295 418.02399
23.600201 28.441799 393.517
24.572001 26.9956 394.43301
-7.8627801 -19.295799 418.035
36.601398 38.504501 381.96899
46.299198 17.7743 393.508
48.182098 17.1516 393.09201
38.075901 46.2248 374.85999
-7.9171901 -21.2815 418.58801
-9.6327105 -21.303499 418.47198
-5.4394898 -21.276501 418.58401
19.508101 44.1553 381.95801
18.9326 42.399799 383.85699
-5.8068399 -21.505501 418.58701
-6.4772902 -7.2278299 414.72699
-5.6089101 -5.8060298 414.29401
-7.66256 -5.8067298 414.056
54.0037 25.0133 385.01501
52.5191 24.908001 385.811
76.932899 -28.994301 397.26099
76.792 -29.1485 397.384
-3.7771399 -23.235201 419.19199
-1.85295 -25.116199 419.746
42.2047 40.4827 378.29401
-5.3557901 -23.173 419.00201
57.815102 -13.5661 404.67899
69.432999 -17.445499 398.67999
-4.2350502 -25.112 419.534
-3.83565 -25.2103 419.577
-0.105641 25.0347 398.64099
2.47633 3.8381 411.017
78.579002 -19.447001 393.54901
77.765297 -17.6849 393.52701
23.284 33.778999 389.67499
8.24545 29.2864 395.43701
7.4760199 28.927999 395.78
6.1027999 29.658701 395.44101
0.0778936 -30.8923 420.689
-7.70367 15.3963 404.29401
1.27324 -32.817699 420.98401
6.12672 -34.754799 421.319
-11.5034 9.5910797 407.03101
-15.4474 0.42298901 410.883
-7.6660199 -28.954599 420.09
-5.8794198 -30.958099 420.453
13.4942 28.8351 395.086
6.5158 -36.667599 421.457
5.60782 -38.598 421.742
71.2967 -15.6312 396.82101
70.196404 -15.459 397.41299
78.888199 -19.3379 393.32599
79.086197 -17.4979 392.57199
80.652802 -17.5473 391.63
73.078796 11.5518 382.66501
44.384899 41.684399 376.16299
46.166801 42.386799 374.92999
5.3446598 -36.675999 421.5
4.1243901 -34.823002 421.22299
3.70543 -36.7048 421.561
3.51893 -34.7659 421.18799
-3.55019 5.76477 409.64099
-5.7104902 5.7527099 409.41199
-3.55285 3.849 410.48099
-5.3264098 3.84532 410.34601
55.884701 -50.166698 411.142
55.882 -48.4576 410.966
-2.1061001 -29.4321 420.513
-0.245791 -29.4772 420.51501
78.3367 -13.5961 391.646
-3.66011 -30.8901 420.71201
62.6059 16.628799 385.79501
30.8403 19.207899 399.13199
73.293198 -15.5604 395.74301
61.671398 -46.314602 408.29999
73.277199 -5.8037601 391.73199
75.158401 -21.348301 396.39401
40.5228 43.384701 376.20099
52.0466 -34.866501 411.38699
53.202702 -34.8969 410.88599
52.756199 -32.917801 410.88501
-3.7621 11.5537 406.57999
54.1763 26.382601 383.923
34.309101 48.160198 374.21899
74.374702 11.2764 382.017
5.9937601 11.5686 407.086
30.851601 -36.759201 418.83801
5.7081699 32.748699 393.39999
5.1729102 32.6889 393.51001
60.2495 -46.396 408.94
59.8433 -44.526798 408.94199
2.3387401 7.7659898 408.94
-13.4382 -4.0434098 412.811
-14.6865 -5.83044 413.25299
-14.039 -4.4481201 412.79999
48.179001 36.5751 379.03101
38.944801 44.152199 376.17599
3.9711499 -9.7074404 417.20099
54.0093 -40.804699 411.259
63.516499 -28.9814 405.12601
61.698799 -29.034901 406.047
75.1474 -0.065885097 387.83801
73.2789 -0.101911 389.104
72.483597 -0.19384401 389.66
73.636703 -1.7012399 389.65201
11.4327 19.2875 401.90601
9.5430202 19.283701 402.026
2.1856401 9.5703802 407.92401
55.930599 24.992399 384.03
50.046501 32.781502 381.20901
25.045401 -36.988098 419.793
25.2537 20.641001 399.30701
-7.5781102 -27.075001 419.74399
-10.3554 -7.7554102 414.47299
-9.7015495 -8.4364595 414.741
6.27177 26.8423 397.36899
-17.608 -15.4837 416.47101
-16.7384 -0.0345315 410.914
14.8353 -32.8069 420.755
63.653801 -15.523 401.52399
34.708199 -33.859798 418.082
9.4395199 21.193001 400.78101
9.4199896 23.1462 399.51599
19.5208 50.427502 376.16901
19.162399 32.750999 391.242
73.223801 -31.174299 400.07401
-5.60501 -30.8937 420.453
50.831902 -44.4025 412.82101
-7.8246398 21.100201 401.229
0.15235899 -7.76126 415.577
-17.870001 -16.073999 416.66599
-1.22225 24.071899 399.31201
-1.99599 24.242701 399.30099
15.8184 47.4221 380.009
9.50564 -38.632702 421.51801
7.5117102 -38.6269 421.582
9.3386097 -40.5145 421.72601
-3.9791801 15.4294 404.38699
67.618698 -44.6833 405.08801
7.5581102 -40.526402 421.866
13.1811 -34.7309 420.979
23.485001 23.1887 397.371
21.7726 23.670099 397.379
23.0278 23.1112 397.52399
44.4184 29.7782 385.793
60.554199 15.3357 387.758
8.1594896 20.634199 401.23099
38.283501 28.8701 388.87601
-9.5919304 -0.0081375604 411.37201
20.7472 55.902901 368.67401
63.623699 11.3582 388.492
11.4889 -36.695202 421.32501
19.2108 34.630402 389.892
1.70163 -34.746201 421.345
11.339 -38.585602 421.492
23.6658 31.1364 391.58499
13.366 19.2859 401.77499
9.9051199 20.419399 401.23801
12.5225 20.1112 401.23599
50.587502 33.622299 380.04199
34.5242 26.991699 391.60901
30.9352 33.754902 387.746
32.3936 34.700802 386.60999
1.92441 -48.2827 422.71799
-9.95893 -1.94929 412.16699
40.036201 26.882999 389.70401
36.600899 28.714001 389.56
44.331402 -46.398399 415.37601
69.2686 -4.3853598 393.517
67.281898 -5.8684502 395.461
67.382301 -5.8206701 395.38
65.687401 -3.99441 395.526
67.452499 -3.8791599 394.487
0.133182 17.7386 403.159
-17.5881 1.92715 410.03299
50.0928 25.0086 386.867
51.960602 25.047501 386.00101
59.247101 -17.3617 405.13199
59.724602 -17.3641 404.78101
32.999699 -47.0578 418.60001
54.886101 -40.778702 410.89301
55.794102 -40.515701 410.45401
2.2913001 20.6059 401.224
1.30551 20.6695 401.224
13.5011 40.453701 386.384
-9.9073601 1.23493 410.87201
-9.6454802 1.91188 410.57401
-9.2197399 1.89756 410.57501
10.1974 25.8039 397.36801
48.275501 11.1272 397.39099
35.105499 29.262199 389.664
36.513 30.842899 388.23499
57.810902 13.2077 390.63901
57.8176 11.5359 391.59399
59.362301 13.2632 389.65701
-4.0853601 21.0949 401.23599
5.13411 23.102699 399.46399
55.909599 26.989599 382.64001
29.995199 19.2698 399.31201
39.104 39.928902 380.01999
42.392799 -48.322701 415.97101
-9.8457203 3.85182 409.85501
-8.6403999 3.81616 409.77802
69.211601 -44.441898 404.311
7.41118 -44.4557 422.112
8.8143196 -44.410599 421.98801
33.994099 46.1577 376.16699
31.4872 44.833302 378.09601
32.790699 46.171799 376.53101
63.597 -30.886101 405.47
61.681499 -32.803101 406.715
63.516899 -32.906898 405.83301
44.346199 34.708599 382.28601
11.434 25.063299 397.96301
11.7425 25.733101 397.38501
-16.719999 3.85657 409.233
37.568699 42.4352 378.09299
3.4181399 -54.035599 423.02301
50.303299 14.944 393.56
50.0355 13.3619 394.814
-9.7168999 -11.6027 415.772
29.356899 19.437099 399.319
51.0891 11.5087 395.47101
50.149399 11.5223 396.043
54.789001 28.732901 381.936
7.6733198 34.7206 391.84201
46.134602 -46.3438 414.73401
48.209999 -48.2701 413.99399
13.6945 25.495001 397.39301
15.3247 25.0417 397.51599
15.6647 25.1425 397.396
68.135002 11.4183 385.814
67.447403 11.4993 386.19101
34.665199 21.1681 396.24799
32.897499 22.681299 395.457
50.315102 36.613998 378.108
21.908199 31.807301 391.57999
23.100401 30.805599 391.89001
5.6443901 -55.947601 422.96899
3.8006401 -56.030602 423.15302
25.327101 55.1912 368.46701
19.558701 32.292999 391.58301
36.618801 17.335899 398.87799
15.3992 46.237801 381.073
22.183901 -40.771999 420.51501
-13.8824 -0.0233103 410.98199
48.095001 -50.237801 414.17899
71.210197 7.7037001 386.08701
69.558197 6.57653 387.73499
-13.6438 -15.4527 416.53601
4.6076598 23.5123 399.298
65.208199 13.454 386.215
9.6951704 31.7652 393.52399
11.5632 32.75 392.61401
9.0408697 32.770699 392.95801
8.4038496 32.091 393.517
63.574501 9.5259399 389.49399
64.987801 11.5079 387.737
54.001801 3.80493 398.69
19.0916 30.8207 392.797
17.132 44.329498 382.33801
16.312099 42.828899 383.86899
69.440399 -27.194099 401.41299
52.024101 -42.4991 412.19199
15.4111 -50.1609 421.728
15.2062 -48.242298 421.66901
37.168999 47.128799 374.22198
52.637299 32.496399 380.00699
40.498798 19.1418 395.58401
53.8536 26.9571 383.647
53.9305 28.913401 382.20901
1.9416699 -11.6619 417.18201
34.697899 -36.421398 417.96701
53.817299 17.347601 390.13501
54.032299 17.8839 389.655
52.41 19.180901 389.64999
54.7066 17.282499 389.69199
-5.1051602 -31.0135 420.517
38.416901 40.501801 379.84799
65.570297 -29.124399 404.07599
-2.9788201 -34.733601 421.116
-15.4325 4.8884802 408.94101
77.037102 -23.155701 395.686
76.777901 -21.6539 395.439
40.382198 38.533001 380.39001
42.881401 30.667801 385.79401
16.1534 24.992201 397.43399
42.874001 42.346699 376.19101
27.1803 53.3783 370.384
28.8097 52.042999 371.57901
78.112701 3.7808399 383.88699
77.232597 4.8512802 383.86899
1.91309 -50.193001 422.88
1.6756099 -52.146 423.04501
-16.330299 -13.5206 415.88699
59.747601 -0.148895 397.24799
59.870701 -0.51303399 397.37
69.440804 1.8907501 390.44299
40.945099 41.152699 378.104
24.932501 48.1395 377.25299
25.2514 49.143902 376.16501
-9.4211998 -1.98815 412.22299
21.9573 51.524399 374.229
42.375599 46.229099 372.896
50.148701 -48.300301 413.297
13.4272 25.026501 397.76199
59.7229 -48.3088 409.34399
60.613701 -48.268299 408.94101
17.321699 -38.5839 420.991
8.0560102 14.8612 405.095
7.9260101 13.4442 405.966
48.7071 -27.4531 412.815
38.5466 -49.7766 417.082
-0.137364 -32.800701 421.048
11.4243 30.854601 393.836
-6.0134802 21.1677 401.254
51.486801 -48.4491 412.80399
71.238403 -17.3957 397.51999
71.289597 -9.7005701 394.48199
58.203899 1.45893 397.379
46.389801 28.691099 385.79901
77.164803 -2.6407599 387.767
76.880898 -2.2228501 387.75299
77.157997 -3.99336 388.401
-1.56185 -7.8079901 415.341
-1.21104 9.6182699 407.81799
11.4623 -46.304699 422.02899
61.7141 -42.536301 407.897
27.4531 39.782902 383.89001
-1.40807 17.350401 403.21799
67.364403 -23.313 401.745
-0.96251702 -36.734001 421.535
40.522701 19.200001 395.51599
51.903099 13.406 393.647
15.2447 17.329201 403.28799
28.685801 23.147301 396.22601
-11.9401 -31.1329 420.521
61.721199 -0.14434899 396.00299
59.702999 1.89895 396.10901
60.818298 1.86577 395.453
-3.76583 -32.799301 420.793
32.958302 30.2467 389.66699
69.435898 -6.0318999 394.14401
67.564598 -6.1792998 395.43701
-15.137 7.6861901 407.70099
48.0798 11.2832 397.388
32.200901 38.368401 383.867
-16.8631 -15.4337 416.42099
21.197201 28.893 393.552
36.615299 -36.3946 417.41901
53.954899 -25.3269 409.71301
-15.6266 -23.1654 418.61401
1.0133899 7.5082598 408.94
-1.53617 -34.7216 421.23499
-3.5048699 -36.655899 421.47501
44.291 -32.9585 414.76001
52.059399 -50.464401 412.66199
20.6409 46.181702 380.01901
21.208799 44.313099 381.37701
-13.4176 -11.7039 415.39899
38.527302 19.278601 396.358
-3.5181601 13.4766 405.41199
30.8494 -48.367199 419.26401
-10.7238 11.5671 406.086
61.728298 7.8639202 391.582
62.306599 7.2911301 391.58099
63.4445 9.3800201 389.67801
63.592499 7.5980802 390.63699
58.0867 11.2969 391.58701
59.795799 11.3441 390.625
20.1 51.8731 374.23401
78.116096 -3.90942 387.728
78.9366 -1.9391 386.28601
79.065399 -4.1623101 387.245
15.7154 30.7656 393.52301
28.632401 38.552601 384.75699
-3.75106 -17.377001 418.009
26.6975 -46.336399 419.84299
54.687302 -23.2202 408.96899
-4.0437198 7.1714001 408.94101
-6.5689402 6.39533 408.95099
19.2085 -44.3755 420.96701
-17.366501 4.46699 408.966
-0.022660799 21.1567 401.237
42.432999 -34.226299 415.496
23.080099 -35.4786 420.10101
71.546799 -7.7397599 393.58499
8.7553701 26.0604 397.384
67.443604 -38.725201 404.54001
67.507401 -36.753601 404.245
-4.3389802 13.9076 405.086
28.9473 39.4515 383.88501
30.2836 38.559601 384.327
23.0849 24.950701 396.17599
20.994101 23.067499 398.00299
30.849001 30.702801 389.90399
38.570099 44.347801 376.16
-9.8210802 13.5436 405.09399
24.975 -42.574299 420.16101
23.0177 -42.5368 420.48499
38.5541 32.7356 385.96799
-12.565 13.5505 405.09399
44.4081 -31.2276 414.728
30.594601 32.785 388.61301
-11.2144 15.3855 404.22501
61.688202 7.6311202 391.73901
-2.17769 17.6115 403.16599
38.579201 38.5769 380.91501
38.288898 40.321899 380.01599
57.779099 -9.8981104 403.17001
26.753099 -44.4132 419.875
-10.6412 17.3496 403.19
-9.9936399 19.274 402.189
-11.4311 5.7441502 408.96201
61.390701 11.32 389.69199
59.831299 9.5766401 391.64001
61.694599 9.5802097 390.61099
44.311401 -50.308601 415.427
7.3531899 25.0655 398.12
40.3088 40.472401 379.173
21.185699 25.010599 396.55499
19.729799 24.2556 397.39301
22.8286 -42.548901 420.51801
32.6087 42.4231 380.17499
48.1754 -28.776699 412.92401
76.861298 7.55866 382.60699
78.059502 7.6235499 381.979
59.710899 -13.5461 403.582
21.0189 -46.3381 420.92801
-12.1856 -28.9648 419.931
48.2187 -29.152901 412.90701
46.261398 -30.929899 413.92099
52.0168 15.4235 392.30301
50.820999 17.3477 391.67401
63.6124 22.999399 381.24301
52.039001 -44.455799 412.27399
52.074402 -46.496899 412.414
42.053501 38.365501 380.01001
27.0277 42.368801 381.94901
17.2682 40.263699 385.80301
48.008999 19.283899 391.703
21.1971 -45.021599 420.67099
42.4039 -50.187901 415.992
50.183498 31.5833 381.96899
55.923302 -42.551899 410.396
61.684101 17.292101 385.98499
-13.9462 -15.7609 416.65601
75.191101 -4.0411 389.75101
73.214897 -3.97193 390.94101
44.321899 -48.4422 415.26599
23.145901 -44.525799 420.478
5.8490601 7.70364 409.388
48.222801 -31.0417 412.95001
30.7903 42.409 380.814
-15.0468 -17.3657 417.069
40.409401 30.8631 386.599
38.641899 30.508801 387.737
16.0543 -28.957899 420.70499
20.583401 19.2575 401.24799
13.2574 28.046101 395.44501
13.7035 27.7714 395.452
57.667301 21.105499 385.80801
57.654999 19.207001 386.978
15.3531 28.9189 394.604
15.8906 19.288601 401.60901
44.0229 32.689201 383.87299
44.326 30.7111 385.24799
22.874201 -44.4007 420.52301
63.106701 -40.804901 407.03799
63.5145 -40.612801 406.79999
65.476799 -15.4846 400.39001
64.032799 -15.4671 401.26599
65.5588 -13.58 399.65201
63.701302 -14.8346 401.246
69.359299 -38.630199 403.569
70.028198 -38.6194 403.211
75.159203 -27.1539 398.005
18.74 42.3535 383.94101
57.7197 -36.750401 409.11301
52.0373 -48.284401 412.582
39.5765 46.1548 374.228
40.444901 46.274101 373.793
71.232697 -31.178801 401.24799
44.195999 13.4866 398.28699
44.306702 -36.835899 414.73499
44.224701 -34.7864 414.755
53.993301 -48.304501 411.819
28.3862 48.198299 376.14899
26.677601 48.219398 376.64999
36.799999 18.804701 397.38699
59.789299 -5.8184199 400.276
74.427803 -31.059099 399.31601
-5.5327601 19.2763 402.24899
19.397499 -30.8594 420.58899
32.720501 -46.3204 418.59698
23.264 47.759201 378.103
21.643999 48.186699 378.108
54.070801 5.88414 397.375
-13.4148 -13.5354 415.935
13.4769 21.144501 400.42099
11.7608 23.133301 399.30301
11.392 21.1868 400.591
11.4664 23.0798 399.375
-13.7107 -13.5371 415.914
60.764 -9.6815205 401.24399
23.532499 49.609402 376.15601
25.052401 50.113602 375.13199
2.1199999 -4.5481501 414.75201
23.625799 20.899099 399.34601
68.6036 7.5964098 387.78799
67.379601 7.6031799 388.565
72.177002 3.7467899 387.75201
53.979401 -50.279598 411.914
40.1278 -50.3181 416.69101
73.201599 13.4591 381.42899
-13.7159 -11.5754 415.31699
29.094101 21.7045 397.388
30.999701 21.1796 397.37701
30.664 23.0793 395.74899
-1.99033 17.323299 403.26401
-17.252899 -11.6507 415.263
55.9291 5.6608901 396.311
21.1014 -52.097301 421.021
29.1966 41.5825 381.93701
49.227299 27.000299 385.79599
-8.05791 -17.373699 417.474
25.0646 -44.6035 420.18201
25.0485 -46.354301 420.159
-11.2554 -17.497999 417.384
51.501499 -25.2285 410.89099
28.8494 -46.438702 419.46301
-11.9315 -19.2918 417.65302
5.73139 24.998199 398.439
-10.2356 -14.4455 416.66501
13.2192 -54.051701 422.17001
55.894001 19.003799 387.811
51.7948 34.721001 378.86301
46.249001 17.334101 393.85501
46.2215 30.848499 384.353
-12.0813 -15.1323 416.668
9.3532305 36.630901 390.28101
36.2794 44.350601 376.901
34.561401 44.341301 377.49399
28.6742 21.209499 397.98801
9.5342102 34.595501 391.59201
50.096401 23.0109 387.983
-12.1499 7.6842299 407.81601
-11.4963 -15.5019 416.883
52.185398 7.7086 397.36801
48.549301 24.506001 387.75101
8.22365 11.5498 407.20099
55.020401 -42.5718 410.871
40.506901 42.296799 377.133
32.342701 -32.757999 419.146
31.006399 31.2442 389.651
-16.0473 -16.1556 416.66199
-15.9117 -17.436501 417.021
28.704901 19.2792 399.61401
27.007601 37.6273 385.80801
28.6082 36.603401 386.16501
-9.5929699 -25.087 419.24899
50.862598 25.9543 385.82401
15.9922 38.309101 387.73801
61.710602 -48.442299 408.38901
-18.051201 -7.71911 413.80099
7.7657199 11.7715 407.02399
42.773102 35.842098 381.935
-15.6526 -4.5184999 412.81799
38.538502 -38.684299 416.78
36.6502 -38.8456 417.349
63.652802 -34.800201 405.91599
61.793098 -35.021 407.01801
73.336998 -10.1894 393.55301
30.6439 -44.380901 419.11899
28.893999 -44.607601 419.491
71.087601 17.3001 380.384
51.973598 32.769199 380.12799
23.1593 55.6227 368.452
66.310898 -38.6516 405.11099
65.549599 -38.7491 405.547
-16.908001 -5.7898598 413.17999
30.8316 40.4277 382.15799
57.551601 14.8941 389.655
57.528198 15.3965 389.336
49.7159 21.1115 389.689
50.036999 19.279499 390.78601
6.86515 -32.8148 421.082
4.5717402 -32.792702 421.10599
18.750099 -38.607399 420.82101
57.8643 -7.7392702 402.23901
47.051998 40.480099 376.16299
48.129501 38.5522 377.362
26.902599 30.8456 390.94699
-12.6215 -17.3622 417.099
54.378601 5.5516901 397.39301
-14.463 -9.6507797 414.70801
-15.0525 -7.76296 413.98901
-13.9647 -9.6845102 414.745
46.111698 40.466 376.509
-17.1912 -9.7033701 414.59201
-16.8855 -7.7219601 413.89401
-15.751 -9.7789297 414.74799
23.2822 -46.503502 420.53601
-11.2881 -28.9897 419.961
48.259201 19.286699 391.59
50.126202 17.2162 392.10999
-0.279686 26.9897 397.569
-14.5174 11.5238 405.96701
65.540802 9.5284796 388.53601
66.780296 9.6060696 387.76199
17.372299 40.218899 385.81601
44.139 44.356201 374.09601
43.815102 44.3316 374.23401
23.9846 -48.276299 420.53101
73.241096 -9.7273703 393.422
73.073196 -9.7477798 393.534
48.329102 37.773899 378.078
3.79088 30.810801 394.89099
21.179501 -40.5382 420.66901
59.734001 -7.8676701 401.23801
55.1427 7.6645598 395.457
18.986601 -40.538898 420.948
42.931999 40.268902 378.077
18.8447 44.227001 382.039
58.265202 17.307899 387.72501
57.728401 17.2752 387.95999
36.5504 -46.339802 417.62
36.6399 -49.831001 417.62601
65.245697 7.5218801 389.655
46.130402 44.2943 373.302
44.507999 45.966 372.302
42.344898 26.9305 388.68201
-17.861799 -3.92238 412.34601
57.834801 -23.427999 407.28799
55.893299 -23.2106 408.353
15.1864 40.48 386.056
-17.9478 -5.8354802 413.09601
-17.391701 -4.9307098 412.79901
34.657501 38.577499 382.77701
33.307899 37.885799 383.87201
67.259399 -42.602402 405.13
40.2995 -48.598598 416.67401
46.233501 -44.428902 414.517
11.5202 28.8743 395.444
11.4996 36.625599 389.92001
-19.567499 -4.9400301 412.82101
-5.7128201 -9.7093496 415.633
52.035801 26.9606 384.61801
39.493801 -33.096001 416.65799
3.9814799 3.8150499 411.27802
-17.656 -1.93047 411.573
51.688801 -50.219501 412.823
42.657101 28.341801 387.728
-13.9511 -23.2071 418.61499
22.912001 -46.366001 420.57501
23.109501 -49.042 420.57901
42.952301 15.2647 397.375
57.786201 -9.6599598 403.064
-12.2689 -22.666901 418.58499
35.960602 19.2568 397.36801
36.6092 19.2827 397.08301
-13.4649 11.5268 406.06201
-13.4858 13.3927 405.08899
-9.4730797 13.472 405.15201
-9.5585299 11.5084 406.34799
34.772999 47.9818 374.22501
55.818001 21.1751 386.72
45.437698 -42.608898 414.73901
17.3311 34.704399 390.185
65.461304 -46.3983 406.29599
-8.6501999 15.4299 404.14801
-11.2842 -19.306601 417.74301
55.853901 3.78859 397.561
-17.393499 5.6575098 408.48401
-16.257299 5.7839599 408.38
-9.8863897 13.4731 405.13
29.0578 51.439602 372.29199
57.775902 1.90771 397.41101
56.428902 3.5353301 397.36801
55.335602 -44.4986 410.892
45.6633 -44.5312 414.728
61.6707 -44.387901 408.04001
14.0879 27.0014 396.08701
61.6735 -34.733601 407.04901
49.897301 36.6455 378.28101
-8.4736204 1.50765 410.888
13.4021 -38.604099 421.35199
13.4851 -36.726501 421.18701
15.3271 -38.602798 421.20001
15.3761 -36.695099 421.017
46.230701 28.780899 385.79999
67.417801 17.3505 382.52499
65.900703 16.696899 383.884
34.677898 19.237101 397.77499
-15.5062 -19.3363 417.52899
-15.4283 -19.3221 417.53101
-14.7496 -21.2218 418.052
77.372803 -7.1559901 389.67099
77.8256 -7.8441901 389.66901
79.0868 -5.849 387.98801
25.299601 30.354401 391.58701
34.577999 40.495098 381.02301
15.2737 -40.528198 421.32599
17.3291 42.437 384.112
-4.3122602 13.4541 405.319
42.425999 42.413399 376.327
53.932598 11.5487 393.57401
51.966 -31.0173 411.185
52.061401 -33.150501 411.22501
33.381401 39.684101 381.94
57.798 -46.652401 409.99701
49.806999 15.2842 393.58899
46.871899 17.3542 393.54199
48.461498 16.3748 393.51099
48.194801 15.3345 394.436
30.769899 -50.566399 419.048
-5.69277 -7.82967 415.01401
-3.96068 -6.6458302 414.73199
-2.8282499 -6.3973098 414.73099
44.644501 32.390499 383.87601
28.7045 32.779499 389.22601
19.224701 40.5075 385.216
-15.747 -21.2981 418.09698
28.8484 -48.262798 419.62299
73.190697 -17.546 396.509
72.666199 -19.3594 397.375
73.225403 -19.311701 397.03299
33.583698 -48.365898 418.62
38.563202 -33.349701 416.95401
31.532101 40.437698 381.94601
58.0928 -36.718399 408.94101
-13.1454 -23.152901 418.64899
-10.4385 -23.176399 418.76001
-13.4145 1.88385 410.23901
-13.8172 1.89012 410.19699
46.124901 32.772598 382.931
45.017899 34.677799 381.93799
26.904699 36.642601 386.58899
25.8386 35.6516 387.72198
27.307199 20.066601 399.30399
45.716202 -48.2435 414.771
46.219898 -48.325401 414.61899
34.535599 28.930099 390.10901
18.9716 19.275101 401.45401
-3.75228 -7.8128099 415.146
53.130901 9.60394 395.47198
53.891499 7.6887002 396.366
52.367599 13.1527 393.53
53.866798 13.4583 392.509
-3.3689599 -27.048201 420.02802
-1.8077 -27.038601 420.09201
28.8162 -50.519501 419.44601
55.950699 19.1031 387.737
31.2117 42.9412 380.04099
46.242901 -37.052898 413.94699
-2.97349 15.3961 404.29599
-4.3628302 -38.604198 421.69299
15.1434 44.3643 382.724
-12.606 -27.013 419.52301
-11.3912 -25.1737 419.17899
-12.3978 -25.115999 419.10599
15.5681 51.032299 376.181
-11.4711 -21.2304 418.18201
-12.0323 -21.2416 418.20901
17.3596 -42.464699 421.216
-16.217899 7.7002702 407.57401
-6.01617 -23.2064 419.043
-9.5078297 -23.151199 418.86099
15.009 52.081402 374.98499
1.94268 -31.0434 420.82501
4.8290401 -30.864401 420.84399
-1.35949 -28.948 420.409
50.225498 9.4914198 397.37299
50.139 9.5752001 397.371
13.2598 30.858601 393.72601
15.3159 30.8113 393.54501
39.022701 41.878601 378.10699
60.050598 19.098801 385.81699
61.600399 19.2759 384.77301
-11.7802 5.5392098 408.961
18.948799 -42.440201 421.04599
21.0135 -42.570099 420.79099
79.015198 -7.7242599 388.82999
37.052101 21.003099 395.43799
36.2915 21.206301 395.547
70.426003 5.6082802 387.73901
39.6847 47.931301 372.32501
32.647099 -48.3125 418.84799
34.691799 -46.445999 418.09399
29.122601 34.538399 387.73001
-1.93792 19.2208 402.41699
-0.185964 19.273199 402.12
25.236099 33.1889 389.655
26.8971 32.756199 389.69601
65.526604 -21.501101 402.22198
63.796799 -21.284201 403.17599
53.986801 -27.1833 409.92401
75.228401 -15.4441 394.38699
73.648598 -15.6397 395.55499
47.870701 21.198799 390.55499
52.046501 -24.407101 410.552
34.6661 -48.298698 418.34698
58.146599 14.3442 389.67801
59.664001 15.3375 388.14001
55.885101 1.8306201 398.62601
-13.4716 -1.94683 411.897
-11.9056 -3.3417301 412.82599
52.665901 27.4813 383.89801
53.468498 26.959101 383.87201
48.009602 -42.560101 413.73199
36.123001 28.819 389.66
36.763401 28.511299 389.66299
14.2583 45.428501 381.94601
2.1784 -0.221527 412.81299
8.75986 28.932199 395.68799
27.2274 44.159 380.03699
46.2696 -42.5499 414.414
24.317301 30.8132 391.591
73.2826 -23.325399 398.11899
72.998398 -21.240801 397.754
63.614799 -50.163601 407.64801
75.200996 -19.3535 395.79501
75.805901 -19.508499 395.465
28.5026 34.7164 387.75101
44.5312 39.653801 378.09601
46.9627 38.233398 378.08099
55.762402 -29.0287 409.125
55.776798 -27.127199 408.94
29.2665 43.494499 380.05301
58.484402 -38.615799 408.995
57.846699 -38.774502 409.319
-14.3948 -1.93361 411.711
2.00126 -32.815201 421.005
75.062401 -13.546 393.77301
57.8088 -42.5089 409.64999
44.111198 27.004601 388.004
42.700802 25.545601 389.689
38.541401 -36.090099 416.84601
41.533401 36.604198 381.95801
40.514 34.533199 383.87
42.358101 34.6819 382.99701
47.615601 30.5975 383.88199
2.05213 -1.93936 413.66199
71.318901 -40.5896 402.66
-0.0330256 -30.929001 420.69901
-3.2534699 -9.6987305 415.758
57.723202 -40.544601 409.46899
40.423 48.182701 371.716
-12.6467 15.3833 404.10599
19.1126 36.640202 388.32401
17.3277 24.9851 397.271
19.239 25.0284 396.92599
17.590799 24.748301 397.39999
23.0735 19.2649 400.78101
22.551901 21.1322 399.31601
17.2983 26.8895 395.86401
19.125999 26.9461 395.53
30.8354 21.214701 397.39001
19.6856 37.321098 387.72699
2.0319901 19.259899 402.27701
32.729801 44.322102 378.11899
22.307301 34.1535 389.65799
2.1733301 5.7816701 409.98499
2.2054601 7.6813302 408.97198
4.4470201 7.7127099 409.24399
4.29391 5.7157798 410.293
-12.3623 -15.4452 416.67099
-5.8004999 11.5212 406.358
-5.5689402 11.5417 406.34601
50.461899 28.8911 383.87
10.1611 -25.1509 420.51401
59.569599 -0.173062 397.37701
42.450199 38.126099 380.01999
55.411201 -25.2941 408.952
0.19765601 7.68084 408.78
0.112671 9.6257 407.814
36.518101 32.7859 386.672
71.157402 3.85233 388.28101
57.853901 -2.0039599 399.52802
24.9186 -48.326698 420.40201
38.317101 17.3433 397.93301
26.9709 34.582699 388.26401
28.748501 40.5051 382.70401
28.919901 -34.051998 419.48099
79.056602 -15.6435 391.91
-19.5802 -10.0287 414.729
-11.5353 -27.0156 419.55301
32.6679 -50.4034 418.61899
29.047501 45.7901 378.07599
79.061302 1.84822 384.33899
77.318199 1.16228 385.798
50.091999 -44.420601 413.138
5.41996 28.894501 396.01001
-2.72505 -19.406 418.586
57.913399 -10.0545 403.16299
79.2631 -10.1559 389.67099
53.9953 -42.4575 411.37201
6.6452098 32.4384 393.51001
7.2412601 30.8508 394.522
48.214901 26.804199 386.50699
0.154395 19.26 402.09201
65.5774 -23.2607 402.69501
64.6595 -23.323601 403.189
19.177601 -31.0033 420.59201
26.7997 -48.364101 420.03299
30.811501 44.293201 378.78101
-17.5224 -13.5242 415.86499
1.87831 13.4756 405.80099
3.39622 13.5021 405.78601
40.459702 28.873301 388.18201
7.7172999 -25.158199 420.21701
55.8279 30.815201 379.73801
25.0732 19.286699 400.375
26.912701 -50.319099 419.86801
46.172501 38.5336 378.332
75.189697 -28.9636 398.39499
53.812302 -44.377701 411.47601
-5.7241101 17.3193 403.461
-7.1036801 17.3517 403.186
17.208099 32.7533 391.60599
15.3954 32.674301 392.03799
-13.5207 13.3933 405.08801
-11.699 1.42105 410.87601
1.1745 14.8369 405.08801
2.2745299 14.79 405.086
54.175098 20.4135 387.75299
3.4324999 28.878799 396.22101
59.759899 -9.7890196 402.009
52.028801 7.58354 397.53299
45.5005 13.3241 397.41101
53.9342 5.7300601 397.543
17.431999 -29.6448 420.67099
4.2723198 11.4417 407.05899
47.9021 24.9354 387.76001
