# .PCD v0.7 - Point Cloud Data file format
VERSION 0.7
FIELDS x y z normal_x normal_y normal_z curvature
SIZE 4 4 4 4 4 4 4
TYPE F F F F F F F
COUNT 1 1 1 1 1 1 1
WIDTH 1332
HEIGHT 1
VIEWPOINT 0 0 0 1 0 0 0
POINTS 1332
DATA ascii
-12.0023 50.087299 368.69299 -0.99767214 -0.068016127 0.0049142023 0
-11.9542 49.7896 368.99301 -0.98956382 -0.1281791 0.065829843 0
-11.9478 50.159801 368.841 -0.99767214 -0.068016127 0.0049142023 0
-11.9419 49.881199 368.323 -0.91212445 -0.38645238 -0.13668771 0
-11.8444 49.567299 369.44299 -0.88899982 -0.43346506 0.14760533 0
-11.8344 50.165199 367.776 -0.75917608 -0.080598861 -0.64587575 0
-11.657 49.410999 370.63699 -0.90937716 -0.15117069 0.38753143 0
-11.6243 49.6586 368.314 -0.63357359 -0.75088578 -0.18642704 0
-11.6115 50.4604 367.741 -0.69407064 0.40231895 -0.59699696 0
-11.5319 49.112999 371.39001 -0.97989076 -0.19260244 0.052137654 0
-11.5152 49.262199 371.39301 -0.99759084 -0.045141485 -0.052675828 0
-11.4528 51.358501 368.39401 -0.94944865 0.29549232 -0.10597926 0
-11.4129 48.927399 370.71899 -0.91297406 -0.40763173 -0.017740609 0
-11.3966 50.9142 367.81601 -0.75162065 0.38314503 -0.53690434 0
-11.3869 48.970299 370.495 -0.69328743 -0.65928698 -0.29102099 0
-11.3759 49.2407 369.37701 -0.61609322 -0.77905595 -0.11619364 0
-11.3598 49.5383 368.22198 -0.50478208 -0.81543082 -0.28331551 0
-11.3526 49.7402 367.64899 -0.60464889 -0.47954109 -0.63595599 0
-11.3367 48.695202 371.31799 -0.84948236 -0.52703142 0.024850806 0
-11.3194 48.519001 371.99301 -0.84174055 -0.53945339 0.021516031 0
-11.3158 50.3857 367.625 -0.29178926 0.20893371 -0.933384 0
-11.2387 50.9846 367.74301 -0.40736568 0.22084306 -0.88616115 0
-11.2356 52.186901 368.39401 -0.93577367 0.23143242 -0.26602003 0
-11.1896 52.449001 368.37601 -0.9468655 -0.030728718 -0.32015857 0
-11.1691 48.509399 372.595 -0.81899703 -0.52928156 0.2215963 0
-11.1674 49.3367 368.46899 -0.51857352 -0.82973021 -0.2064687 0
-11.115 53.160099 368.39401 -0.96517485 0.22657776 -0.13076696 0
-10.9417 51.8867 367.77899 -0.50549281 0.34029794 -0.79288989 0
-10.9385 51.585201 367.729 -0.25892746 0.10365395 -0.96031892 0
-10.8719 53.9104 368.245 -0.93814069 0.06661693 -0.33978561 0
-10.8672 49.1469 368.50601 -0.52697134 -0.82507086 -0.20386095 0
-10.8487 48.757999 370.08099 -0.51795918 -0.82743239 -0.21696509 0
-10.8319 48.2691 373.905 -0.96023536 -0.27883595 -0.014090731 0
-10.8223 54.2118 368.39301 -0.87834561 0.44776112 -0.16738857 0
-10.807 48.948299 369.15399 -0.51456487 -0.83226466 -0.20629714 0
-10.7925 52.187 367.75 -0.80481404 0.16323434 -0.57063907 0
-10.7917 51.5867 367.673 -0.32523564 0.079976343 -0.94224495 0
-10.7912 53.386299 367.82599 -0.68998402 0.13608573 -0.71091682 0
-10.7912 50.3853 367.49701 -0.30359778 0.30521795 -0.90259093 0
-10.7498 49.269299 367.35001 -0.68131757 -0.66109383 -0.31426314 0
-10.7382 53.834202 367.939 -0.68920165 0.40394828 -0.60152048 0
-10.7196 52.712502 367.797 -0.77424294 0.11375953 -0.62258065 0
-10.718 49.1325 368.168 -0.57424819 -0.81215286 -0.10318276 0
-10.691 47.992599 374.31699 -0.8848446 -0.4649823 0.02900878 0
-10.6406 49.711201 367.13501 -0.63601804 0.15248357 -0.75645876 0
-10.5891 49.113899 367.19501 -0.76070458 -0.4949764 -0.41991302 0
-10.5369 47.7607 374.91901 -0.88039625 -0.46192288 0.10737621 0
-10.5298 47.747799 373.75601 -0.74783868 -0.66371304 -0.014909486 0
-10.513 48.9729 367.71799 -0.7425735 -0.66902077 -0.031557336 0
-10.4924 50.9869 367.54999 -0.28172058 0.11239617 -0.95289069 0
-10.4672 47.912399 375.59 -0.93523693 -0.24794452 0.25269625 0
-10.4648 54.8158 368.95499 -0.76078755 0.60697854 -0.22973764 0
-10.421 54.5993 368.38901 -0.64235157 0.632806 -0.43236673 0
-10.4103 48.781601 368.80801 -0.57592368 -0.81250244 -0.090286829 0
-10.2573 48.617901 369.10999 -0.55212086 -0.83008534 -0.078235887 0
-10.2553 47.799198 376.11899 -0.91656101 -0.2715278 0.29357898 0
-10.2345 48.591599 367.53 -0.77223438 -0.62747693 0.099633269 0
-10.2074 55.259602 369.21799 -0.81638765 0.54372108 -0.19462411 0
-10.2009 47.312302 375.668 -0.87512589 -0.46839756 0.12148423 0
-10.1131 48.572601 368.168 -0.73330605 -0.67928714 0.028831353 0
-10.1097 48.584499 368.76901 -0.55212086 -0.83008534 -0.078235887 0
-10.0739 47.187901 376.043 -0.77346021 -0.6332022 0.028536655 0
-10.0625 55.107899 368.54599 -0.63276571 0.58549815 -0.5067538 0
-9.9460897 55.635899 369.36801 -0.82299238 0.56436884 -0.064586505 0
-9.9451399 55.0359 368.349 -0.51319212 0.53045124 -0.67472613 0
-9.9436197 47.1689 376.716 -0.84971064 -0.50985587 0.13430877 0
-9.8385401 55.257401 368.37299 -0.54678154 0.38035524 -0.74589533 0
-9.7770004 55.780701 368.84698 -0.80187845 0.49265367 -0.33805811 0
-9.7045898 47.163898 377.767 -0.94771159 -0.27772626 0.15719683 0
-9.6413698 55.856701 368.66101 -0.65336561 0.56603378 -0.50271177 0
-9.6378002 56.084999 369.668 -0.7977317 0.60290849 0.01120397 0
-9.6339197 46.862301 377.31799 -0.81367105 -0.56998628 0.11425848 0
-9.6215 47.396702 378.349 -0.96168542 -0.091023482 0.25860363 0
-9.5677299 46.8661 377.918 -0.9050386 -0.41196874 0.10576831 0
-9.5096598 56.312199 369.36899 -0.65754658 0.74967808 -0.07493519 0
-9.4923096 46.7225 377.76801 -0.87086356 -0.4892008 0.047741231 0
-9.4839296 46.863098 378.51801 -0.95742738 -0.2641637 0.11640605 0
-9.4424896 46.716499 378.36801 -0.87635761 -0.42997396 0.21707071 0
-9.4350796 56.2743 368.99799 -0.50538063 0.73493093 -0.45218018 0
-9.2945995 56.985199 369.595 -0.94040853 0.16500817 -0.2973282 0
-9.2932901 46.560299 379.194 -0.93505603 -0.34414887 -0.085039914 0
-9.1779099 57.510201 369.59601 -0.94962639 0.11117435 -0.29300174 0
-9.1384296 56.454399 368.89401 -0.59727269 0.48102283 -0.64178061 0
-9.1015301 57.808701 369.59698 -0.92959541 0.28607276 -0.23241067 0
-9.09519 46.121201 379.57101 -0.87405866 -0.48548216 -0.018125046 0
-9.0275602 45.791401 380.32101 -0.91674638 -0.28381476 -0.28111425 0
-8.9979696 56.9818 369.23599 -0.70873451 0.35612568 -0.60899091 0
-8.9976702 45.610199 380.69 -0.87976873 -0.43510664 -0.1915444 0
-8.9629698 57.9548 369.569 -0.92959541 0.28607276 -0.23241067 0
-8.9553804 56.5373 368.944 -0.59727269 0.48102283 -0.64178061 0
-8.9016399 57.422699 369.332 -0.69589072 0.21915258 -0.68389201 0
-8.8977299 45.331402 381.51801 -0.84290397 -0.53756529 0.023160877 0
-8.7495098 58.558998 370.11899 -0.93278867 0.34316915 -0.11018289 0
-8.7169905 44.915901 382.194 -0.86205596 -0.49896511 -0.08884418 0
-8.5609102 44.238098 383.39301 -0.97289544 -0.14774142 -0.17789586 0
-8.4978704 44.3144 382.79501 -0.83152544 -0.49052867 -0.26066661 0
-8.4722605 44.012299 383.83899 -0.96669048 -0.15218605 -0.20578845 0
-8.4338102 43.7943 383.99301 -0.96669048 -0.15218605 -0.20578845 0
-8.4315796 43.7146 384.14301 -0.96464497 -0.2600455 0.042853318 0
-8.4012899 43.975201 384.06799 -0.96669048 -0.15218605 -0.20578845 0
-8.3550701 59.378899 370.14301 -0.21393877 0.97681874 -0.0074425335 0
-8.3029299 43.5606 383.991 -0.96464497 -0.2600455 0.042853318 0
-8.2433004 43.928001 383.168 -0.79795641 -0.58187634 -0.15711609 0
-8.1322803 43.119801 385.19199 -0.96038157 -0.27670038 0.033229139 0
-7.94941 42.512299 386.39301 -0.96514475 -0.2617119 -0.0015780105 0
-7.9428701 59.612701 370.12799 -0.34533894 0.66447413 -0.66273308 0
-7.9369202 42.665298 385.72 -0.91547316 -0.39704618 -0.065293424 0
-7.9000902 42.6619 386.46701 -0.9556973 -0.2364862 0.17526257 0
-7.81601 42.0634 387.29599 -0.90092415 -0.43393487 -0.0060190451 0
-7.8092999 41.919201 386.996 -0.92232853 -0.38406599 -0.042466175 0
-7.8000498 41.912399 387.44199 -0.90092415 -0.43393487 -0.0060190451 0
-7.76231 42.027302 386.61899 -0.95690757 -0.28514478 -0.054957349 0
-7.6757998 42.104599 386.28299 -0.83609027 -0.43844444 -0.32972643 0
-7.6738501 60.657501 370.79599 -0.77620119 0.61650431 -0.13203837 0
-7.6360402 41.4631 388.19299 -0.97921747 -0.10731803 0.17209305 0
-7.6335301 41.733898 386.922 -0.92232853 -0.38406599 -0.042466175 0
-7.6173201 41.319199 388.194 -0.95707124 -0.28984576 -0.0020217597 0
-7.5163298 60.963699 371.245 -0.8155849 0.5310002 -0.22991315 0
-7.4797101 40.862301 388.793 -0.82726926 -0.54327941 -0.14308411 0
-7.40765 40.866402 389.39801 -0.95941103 -0.26480275 0.097005174 0
-7.3914599 40.498001 389.397 -0.90215033 -0.43131354 0.0096668061 0
-7.3077402 40.859402 389.61499 -0.90247589 -0.17753059 0.39245403 0
-7.28405 40.190899 389.99301 -0.92327529 -0.37253043 0.093722291 0
-7.2574 40.263302 390.13901 -0.92327529 -0.37253043 0.093722291 0
-7.2202702 40.188 390.29401 -0.92327529 -0.37253043 0.093722291 0
-7.1900902 61.1087 370.71899 -0.49531046 0.70559072 -0.50676352 0
-7.1829801 40.262402 389.319 -0.88309991 -0.44997689 -0.1328733 0
-7.1332102 61.686298 371.392 -0.67605108 0.42434916 -0.6023975 0
-7.0768299 39.925999 389.84698 -0.82834601 -0.54114288 -0.14493883 0
-7.0377998 39.5126 391.19101 -0.92694211 -0.36573568 0.08375977 0
-7.0174699 39.812199 391.043 -0.95076025 -0.28341737 0.12541738 0
-6.8906698 38.916698 391.71899 -0.89283752 -0.44385314 -0.07639087 0
-6.8792601 39.063599 391.793 -0.97685921 -0.20361628 0.065471649 0
-6.80338 39.886501 391.39899 -0.98631454 -0.16484532 0.0031084423 0
-6.6497102 38.236698 392.992 -0.99197775 -0.10750573 0.066503443 0
-6.6265001 37.716999 393.29501 -0.96496075 -0.24026316 -0.10547229 0
-6.6011801 38.008499 393.28699 -0.96310735 -0.25448835 -0.087520868 0
-6.5892801 62.330002 371.26199 -0.49899238 0.54789102 -0.67143285 0
-6.5717001 37.801102 392.992 -0.96310735 -0.25448835 -0.087520868 0
-6.5540199 37.8228 393.51401 -0.96496075 -0.24026316 -0.10547229 0
-6.5531702 37.5634 393.59299 -0.94638759 -0.29198471 0.13818628 0
-6.4399099 37.1833 394.18701 -0.99072897 -0.028383894 0.13285491 0
-6.4351501 62.6021 371.37601 -0.57425165 0.8078565 -0.13267612 0
-6.4338102 37.6021 392.99899 -0.96496075 -0.24026316 -0.10547229 0
-6.38728 36.511799 394.79199 -0.65301061 -0.75151753 0.093800537 0
-6.2882299 36.735199 394.79099 -0.93988591 -0.32823199 0.094224162 0
-6.2281599 35.9883 395.39401 -0.97735786 -0.17311567 0.12166573 0
-6.1631098 35.312 395.99301 -0.96258104 -0.085615076 0.25711444 0
-6.14993 63.1078 371.884 -0.80200177 0.57309389 -0.16839404 0
-6.0914001 34.712502 396.591 -0.99091566 -0.084142275 0.1049109 0
-6.0374799 34.8601 396.58899 -0.97227257 0.03067206 -0.23183034 0
-6.0091801 34.412102 396.89301 -0.98960018 -0.13696294 0.043961067 0
-6.0089202 35.5383 396.18201 -0.96258104 -0.085615076 0.25711444 0
-5.9941101 62.916 371.50201 -0.43900961 0.67525566 -0.59270597 0
-5.9822202 63.356201 371.995 -0.80200177 0.57309389 -0.16839404 0
-5.9572401 35.023399 395.84799 -0.93407923 -0.29945764 -0.19447653 0
-5.8373799 35.407299 395.24799 -0.86136788 -0.36083654 -0.35755044 0
-5.7643499 35.226501 395.396 -0.90471423 -0.27809805 -0.32272846 0
-5.7628598 34.762199 395.923 -0.82388383 -0.44399232 -0.3522588 0
-5.7530298 33.213501 397.79401 -0.92619807 -0.36072743 0.10969462 0
-5.6707702 32.763699 398.39301 -0.99851859 -0.051970888 0.016112683 0
-5.5850801 63.960098 372.44601 -0.69565445 0.53357404 -0.48100278 0
-5.5257301 32.2384 398.99301 -0.98337626 -0.12745792 0.12932755 0
-5.41537 64.254501 372.521 -0.9000982 0.37249643 -0.22598597 0
-5.3870502 32.704399 397.875 -0.87517738 -0.41964296 -0.24075782 0
-5.36766 32.868999 397.69 -0.86076528 -0.34041372 -0.37841994 0
-5.3561001 31.9664 398.69501 -0.8278932 -0.5152064 -0.2217097 0
-5.2418699 63.876301 371.97 -0.56126243 0.43302327 -0.70531929 0
-5.23982 31.1194 399.59799 -0.8646856 -0.50212795 -0.013649557 0
-5.16327 64.174896 372.14499 -0.64331657 0.5683732 -0.51292855 0
-5.1192002 30.521 400.198 -0.93796325 -0.34077144 0.064029247 0
-4.9695802 29.914499 400.79401 -0.9728986 -0.17428117 0.15196818 0
-4.8007398 29.243099 401.285 -0.89628232 -0.37670082 -0.23403955 0
-4.7961402 29.6022 400.78299 -0.87735158 -0.45180264 -0.16164339 0
-4.77631 29.9109 401.31601 -0.9728986 -0.17428117 0.15196818 0
-4.76755 29.0168 401.397 -0.86422497 -0.42498168 -0.26926887 0
-4.6047401 65.305099 373.04501 -0.6356377 0.53716165 -0.55445653 0
-4.5886002 28.1196 401.99899 -0.8407141 -0.42046589 -0.34118652 0
-4.4988999 27.513901 402.59399 -0.93568546 -0.32593948 -0.13511533 0
-4.4047098 26.9126 403.19299 -0.96330553 -0.19514607 -0.18428378 0
-4.3750901 27.1378 403.19299 -0.99268907 0.062828198 0.10305848 0
-4.3523698 28.7327 401.26401 -0.6952517 -0.70835119 -0.12191649 0
-4.3335099 65.591003 373.19299 -0.65343004 0.69878078 -0.2910921 0
-4.27913 26.4652 403.64301 -0.98790681 0.044331066 -0.14857604 0
-4.2634001 26.0193 403.798 -0.94576514 -0.14249825 -0.2919291 0
-4.2074099 26.164 403.94 -0.95073259 -0.10559995 0.29147246 0
-4.20153 25.711901 404.09299 -0.92218566 -0.30955973 -0.23183268 0
-4.1780601 27.0058 402.69601 -0.76900852 -0.48269901 -0.41907948 0
-4.1448598 25.9352 403.70999 -0.94576514 -0.14249825 -0.2919291 0
-4.0898399 26.428801 403.142 -0.91509873 -0.37007684 -0.16011694 0
-3.8378601 23.9128 405.59201 -0.95247531 -0.18383448 0.24289019 0
-3.83357 24.3692 404.953 -0.87851495 -0.36162454 -0.31215242 0
-3.6580701 24.8234 404.32901 -0.78459543 -0.42490581 -0.45151421 0
-3.6069701 23.8377 406.039 -0.96387422 -0.14597501 0.22279541 0
-3.5600901 23.568899 405.59698 -0.92364341 -0.37325773 -0.086956806 0
-3.54949 23.7603 406.18399 -0.98994005 0.0084677422 0.14123373 0
-3.5165401 23.3132 406.194 -0.79740906 -0.5780353 -0.17324539 0
-3.23086 22.49 407.24701 -0.99933273 0.0011303013 -0.036507595 0
-3.2067101 22.566 406.599 -0.87573034 -0.3321248 -0.35041335 0
-3.15097 21.892799 407.358 -0.98136872 -0.14184 0.1296028 0
-3.0099499 21.5194 407.69501 -0.94670653 -0.31008834 -0.087132052 0
-3.0022099 21.665899 407.83899 -0.94670653 -0.31008834 -0.087132052 0
-2.9930201 21.9611 407.76199 -0.94538957 -0.024687536 0.32500622 0
-2.98912 21.705 407.32001 -0.89249694 -0.45104471 -0.0027951831 0
-2.9717801 67.162598 373.67401 -0.83080757 0.43723378 -0.34436229 0
-2.9242899 21.587299 407.987 -0.77779633 -0.56004572 0.28527477 0
-2.67752 20.9123 408.58701 -0.86695504 -0.46450141 0.18063045 0
-2.6317599 21.061701 408.58899 -0.97279161 -0.10206493 0.20798853 0
-2.5062101 67.729301 374.168 -0.28446832 0.95868272 0.0022772159 0
-2.4614201 20.465401 409.039 -0.96190989 -0.26633748 0.061593305 0
-2.42839 20.315701 409.04199 -0.94697881 0.067015342 -0.31422937 0
-2.3938601 20.3113 409.18799 -0.93794298 -0.03362358 0.34515563 0
-2.30686 20.421301 408.452 -0.76188183 -0.60549861 -0.23001634 0
-2.2399099 19.7257 409.19601 -0.76233399 -0.52279103 -0.38149235 0
-2.2348599 19.1199 409.79999 -0.90843195 -0.41790855 -0.010190067 0
-2.03508 18.438801 410.38501 -0.97496092 -0.014771228 0.22188522 0
-1.98792 18.5956 409.785 -0.82431352 -0.45544982 -0.33626285 0
-1.98725 18.661301 410.46201 -0.97496092 -0.014771228 0.22188522 0
-1.90189 68.299797 374.76501 -0.73610234 0.6720503 -0.080633551 0
-1.85387 17.840799 410.689 -0.97748947 0.015480666 0.21041536 0
-1.80726 18.062099 410.76599 -0.94305795 -0.072482295 0.32463527 0
-1.80355 68.354897 374.35199 -0.82752496 0.52088815 -0.20947085 0
-1.78738 17.832001 410.32199 -0.88502413 -0.40653217 -0.22685641 0
-1.56593 68.333603 374.24301 -0.3965407 0.63146406 -0.6663397 0
-1.5237499 68.526398 374.388 -0.44619122 0.72346306 -0.52679652 0
-1.09568 16.1187 412.189 -0.89835733 -0.40860942 0.16122186 0
-1.036 68.992302 374.61301 -0.57174754 0.74760652 -0.33791903 0
-0.954651 16.124001 411.56201 -0.7715531 -0.47153431 -0.42703772 0
-0.75106001 15.8877 412.79199 -0.95731175 -0.24324134 0.15616618 0
-0.69500703 15.5268 412.19901 -0.81247163 -0.58290374 0.01063626 0
-0.67377901 15.5876 412.793 -0.93324667 -0.31422448 0.17410806 0
-0.61869401 15.5877 412.94101 -0.90841025 -0.31623366 0.27347225 0
-0.44689199 15.0678 412.72 -0.91992855 -0.39155984 -0.020306986 0
-0.445393 21.528601 410.996 -0.75074649 -0.360506 0.55354774 0
-0.38600501 14.9143 412.79401 -0.8573935 -0.51425058 0.02056187 0
-0.36381099 15.2869 413.39401 -0.89057928 -0.26724955 0.36803022 0
-0.35581601 14.9873 413.392 -0.96642888 -0.062261436 0.24927634 0
-0.29520401 14.318 413.396 -0.94908816 -0.28339541 0.13754548 0
-0.067558303 13.5671 413.99399 -0.93236148 -0.22587278 0.28228271 0
-0.0131645 13.492 414.14301 -0.84788018 -0.28293854 0.44838041 0
0.062679298 13.2729 413.97198 -0.92115772 -0.32566109 0.21310405 0
0.160519 13.115 413.939 -0.69713438 -0.71665305 -0.020299517 0
0.170559 70.147202 375.444 -0.75805676 0.62607932 -0.18268733 0
0.197083 13.1868 414.59601 -0.89285129 -0.31785467 0.31903756 0
0.45811501 12.5236 414.59698 -0.86676991 -0.4808152 -0.13238832 0
0.51470202 12.887 415.19299 -0.90846944 -0.17940871 0.3774862 0
0.53487402 12.5868 415.194 -0.86132956 -0.37372279 0.34415501 0
0.64059103 70.739098 375.44501 -0.94894058 0.30919862 -0.062513821 0
0.68572199 12.6827 414.14999 -0.63887852 -0.73711866 -0.22020508 0
0.77048099 12.0339 415.198 -0.86528808 -0.4861562 0.12218298 0
0.90020001 11.9132 415.79199 -0.90875852 -0.37067673 0.19172052 0
1.16804 11.3214 416.242 -0.91260129 -0.32750487 -0.24474365 0
1.20706 11.5531 415.54901 -0.69066906 -0.6968624 -0.19328476 0
1.29193 11.1404 416.392 -0.6663999 -0.74032384 0.088497438 0
1.6682 10.7172 416.991 -0.92420363 -0.35738045 0.13463613 0
1.80801 71.308403 375.59399 -0.77455211 0.097356968 -0.62497252 0
1.88653 10.7293 416.39899 -0.68656272 -0.7202915 -0.099054702 0
1.96354 10.4838 416.995 -0.77712214 -0.62904507 -0.019582946 0
2.33236 10.1218 417.88501 -0.96971887 -0.24396931 -0.011150585 0
2.3997099 10.0284 417.59299 -0.75653321 -0.63841599 0.14171273 0
2.8593299 72.756798 376.19501 -0.51782787 0.75318271 -0.40567243 0
2.90362 9.5214996 418.78601 -0.93075448 -0.20224974 0.30461633 0
3.1696999 9.2108402 418.64801 -0.62724245 -0.7587564 -0.1756576 0
3.31231 72.985001 376.151 -0.54865283 0.76180953 -0.34442177 0
3.44765 73.249496 376.71899 -0.71134597 0.70189667 -0.036440846 0
3.47142 8.7759199 419.39801 -0.78501713 -0.61476576 0.076230839 0
3.6040101 8.76402 419.991 -0.83810908 -0.31105116 0.44812986 0
3.7990501 73.595596 376.71799 -0.46071741 0.85757595 -0.22869837 0
4.0057402 8.3201303 420.58701 -0.82083035 -0.51551121 0.24593851 0
4.0093002 73.803703 376.793 -0.72391474 0.6601373 -0.2004149 0
4.1866298 8.3155699 420.88101 -0.80804163 -0.49360266 0.3215977 0
4.3640499 7.9382601 420.59299 -0.8078686 -0.49342728 0.32230085 0
4.4063702 8.1620398 421.19601 -0.83088523 -0.40687308 0.37958407 0
4.6799002 7.7186098 421.189 -0.79674405 -0.5190019 0.30957386 0
4.73314 8.0143003 421.63901 -0.81519151 -0.36252204 0.4517085 0
4.7713099 7.72189 421.48801 -0.88241225 -0.33147046 0.3338801 0
4.8133302 7.63832 421.19299 -0.79674405 -0.5190019 0.30957386 0
4.9310198 7.7115798 421.79401 -0.88241225 -0.33147046 0.3338801 0
5.24368 7.5646601 422.39099 -0.82508349 -0.36361808 0.43245712 0
5.39431 7.5650902 422.686 -0.89198017 -0.39043 0.22789429 0
5.41537 74.8731 376.78699 -0.52494913 0.74577296 -0.41018423 0
5.6166501 7.3351102 422.996 -0.75556058 -0.61408061 0.22810778 0
5.6370602 7.1639299 422.39401 -0.49377605 -0.8661744 0.076987773 0
5.8642998 6.9689202 422.99301 -0.75430781 -0.63425899 0.16951497 0
5.93258 75.061798 376.79901 -0.33149827 0.84535861 -0.41890058 0
5.95151 7.1195898 423.508 -0.78563911 -0.55477822 0.27384725 0
5.98949 7.2623601 423.59399 -0.97957891 -0.12095523 0.16060808 0
6.0082202 6.9326 422.99301 -0.78563911 -0.55477822 0.27384725 0
6.02212 75.531197 377.24301 -0.62245464 0.70765626 -0.33432445 0
6.0633798 6.9407802 423.595 -0.71657407 -0.6316607 0.29584849 0
6.4360499 75.821701 377.24701 -0.42371687 0.84815818 -0.31794924 0
6.4570498 6.9623799 424.19501 -0.69209707 -0.42921662 0.58032292 0
6.5721698 6.8906498 424.33899 -0.84262764 -0.3494508 0.40971065 0
6.61063 75.579597 376.90799 -0.29705307 0.63218993 -0.71560836 0
6.8375902 6.4924202 424.194 -0.76268655 -0.58490765 0.2760295 0
6.9356799 6.6652799 424.79001 -0.52671719 -0.63505328 0.56504548 0
6.9805102 6.52316 424.785 -0.52671719 -0.63505328 0.56504548 0
7.1262002 76.489899 377.543 -0.78157997 0.5226469 -0.34054804 0
7.1677198 6.4390502 424.94199 -0.52671719 -0.63505328 0.56504548 0
7.1700401 6.6629601 425.09201 -0.52671719 -0.63505328 0.56504548 0
7.1998501 76.687202 377.384 -0.895522 0.28299913 -0.34344119 0
7.3566399 6.31985 424.79401 -0.52671719 -0.63505328 0.56504548 0
7.6574001 77.178596 377.39301 -0.55580157 0.62497491 -0.54817057 0
7.6638598 6.21945 425.392 -0.57616401 -0.7470181 0.33166093 0
8.11378 77.380302 377.36801 -0.29236367 0.79474455 -0.53188777 0
8.2634401 5.88765 425.992 -0.66330183 -0.68975002 0.29030263 0
8.3687401 5.92835 426.28299 -0.60894793 -0.74438167 0.27400425 0
8.3843699 6.0688701 426.435 -0.60894793 -0.74438167 0.27400425 0
8.5054398 6.0630498 426.59201 -0.74251956 -0.48101249 0.46614558 0
8.6331596 77.384697 377.37299 -0.15763797 0.98073512 -0.11536438 0
8.6332798 5.7659502 425.99301 -0.60894793 -0.74438167 0.27400425 0
8.6961403 5.7372999 426.59399 -0.5817979 -0.71965879 0.37894905 0
8.7268896 77.9711 377.88199 -0.73840052 0.43944862 -0.51151693 0
8.8878202 78.058098 378.06799 -0.73840052 0.43944862 -0.51151693 0
8.8921404 5.9138498 427.04001 -0.61540443 -0.51671314 0.59521836 0
8.9075899 78.200401 377.841 -0.73840052 0.43944862 -0.51151693 0
9.0176802 5.9861302 427.19901 -0.61791903 -0.51000184 0.59839302 0
9.15872 5.5444899 426.595 -0.58050704 -0.74915171 0.31903493 0
9.19699 78.481598 377.91901 -0.6147871 0.61546904 -0.49318829 0
9.2334099 77.984703 377.48499 -0.47464049 0.46920851 -0.74468768 0
9.5327597 5.76407 427.759 -0.76645142 -0.51652288 0.38178051 0
9.6089401 5.4307299 427.19299 -0.45547545 -0.86631978 0.20501745 0
9.7574797 5.4801002 427.793 -0.5297603 -0.83928835 0.12226658 0
9.9156504 79.161499 377.996 -0.56729704 0.7139231 -0.41047269 0
10.0628 79.319397 377.996 -0.69849008 0.38929847 -0.60046506 0
10.068 5.3614502 427.93701 -0.59651369 -0.64877093 0.4725121 0
10.1681 5.6143999 428.38699 -0.62898558 -0.42988342 0.64774793 0
10.2702 5.4991398 428.384 -0.58925951 -0.68580836 0.42713004 0
10.4338 79.106201 377.716 -0.44501364 0.32040775 -0.83624262 0
10.6724 5.2925301 428.67999 -0.63079882 -0.39862877 0.66572362 0
10.8805 5.4542499 428.98199 -0.726502 -0.43542853 0.53159833 0
10.9587 79.775597 377.90201 -0.35757363 0.41676962 -0.83572972 0
11.2574 80.224998 377.99301 -0.82872665 0.49781153 -0.25572607 0
11.2599 5.1224699 428.992 -0.49413082 -0.84012449 0.22366396 0
11.3005 5.3283 429.569 -0.49413082 -0.84012449 0.22366396 0
11.4119 80.263802 377.966 -0.57571501 0.54666138 -0.60804075 0
11.4885 5.1563201 429.552 -0.42264703 -0.86627007 0.26635623 0
11.8192 80.668701 377.97 -0.34684193 0.67425835 -0.65197879 0
12.1093 4.9103599 430.19299 -0.69094574 -0.4218455 0.58706081 0
12.3091 4.7963901 430.19299 -0.69094574 -0.4218455 0.58706081 0
12.4574 81.062798 377.98401 -0.52412248 0.24056813 -0.81695938 0
12.4692 4.74017 430.48801 -0.64250112 -0.48988485 0.58924115 0
12.5646 81.666801 378.276 -0.3119528 0.67952102 -0.66403061 0
12.5887 4.8252802 430.71301 -0.64250112 -0.48988485 0.58924115 0
12.6426 81.577301 378.19901 -0.3119528 0.67952102 -0.66403061 0
13.0748 4.7156 431.36801 -0.77741861 -0.38284028 0.49905267 0
13.0796 81.812401 378.59399 -0.32782 0.93542933 -0.13231044 0
13.283 81.585503 378.12201 -0.06364923 0.73081511 -0.67960137 0
13.5866 4.2223101 431.39301 -0.54088902 -0.53465253 0.64929634 0
13.6613 4.1918201 431.54099 -0.54088902 -0.53465253 0.64929634 0
13.811 4.1504202 431.32001 0.74762207 -0.53348404 0.39554521 0
13.8149 4.4157701 431.87701 -0.76222932 -0.35790786 0.53935933 0
13.8283 82.126999 378.20499 -0.5467369 0.46055636 -0.69926149 0
14.269 4.2637701 432.26999 -0.55966717 -0.36275324 0.74510586 0
14.2725 3.83953 431.98999 -0.48616922 -0.76540464 0.42165771 0
14.2932 4.1251302 432.28 -0.55966717 -0.36275324 0.74510586 0
14.4166 3.7979901 431.99399 -0.5429998 -0.81972247 0.18222575 0
14.8625 3.66136 432.591 -0.48941344 -0.84374881 0.22036886 0
15.0258 83.310303 378.48901 -0.4048968 0.55545264 -0.72631329 0
15.1607 3.4807601 432.59299 -0.69077897 -0.70034355 0.17984228 0
15.2888 3.66538 433.077 -0.72663897 -0.33191383 0.60152227 0
15.5958 3.5188999 433.327 -0.59292877 -0.46091411 0.66029817 0
15.5963 3.3533001 433.18399 -0.59292877 -0.46091411 0.66029817 0
15.7596 83.901802 378.59399 -0.31943926 0.89506036 -0.3111679 0
16.056801 3.51193 433.64801 -0.47107092 -0.39765912 0.78737503 0
16.065001 84.134102 378.59698 -0.55421817 0.64994776 -0.52000976 0
16.118099 84.124397 378.742 -0.55421817 0.64994776 -0.52000976 0
16.1737 2.9852901 433.24899 -0.26589257 -0.85817456 0.43913272 0
16.6646 2.7365799 433.79099 -0.73411775 -0.57887524 0.35492903 0
16.666599 84.496597 378.56601 -0.42019698 0.55258846 -0.71977806 0
16.672199 2.92028 434.17401 -0.73411775 -0.57887524 0.35492903 0
16.811199 2.6802499 433.71701 -0.6105749 -0.70091099 0.36867613 0
17.132401 2.6012101 434.37299 -0.59233415 -0.68517482 0.42388171 0
17.2575 2.5827899 434.69299 -0.56315935 -0.65099907 0.50897133 0
17.257799 84.6632 378.577 -0.072557785 0.89207691 -0.44602033 0
17.6346 84.805496 378.59698 -0.026972687 0.65018582 -0.7592963 0
17.711599 85.108498 379.12 -0.63161975 0.7752468 0.0069904616 0
17.873199 85.2603 379.03799 -0.64885992 0.75167209 -0.11819402 0
17.876699 2.61041 435.08899 -0.3417027 -0.74579 0.57187104 0
17.936899 2.46877 434.987 -0.3417027 -0.74579 0.57187104 0
17.937099 2.3153701 434.689 -0.39556459 -0.86315155 0.31384397 0
18.1591 2.3380699 434.91599 -0.3417027 -0.74579 0.57187104 0
18.2334 85.147499 378.62399 -0.21310627 0.84872603 -0.48399368 0
18.3846 2.38324 435.14001 -0.3417027 -0.74579 0.57187104 0
18.463699 2.61551 435.40399 -0.2671259 -0.60437441 0.75058335 0
18.77 85.786697 379.04901 -0.73121935 0.63753468 -0.24262685 0
18.990299 85.893204 379.04099 -0.63467348 0.73453993 -0.24008468 0
19.098499 2.2878599 435.50299 -0.44447663 -0.61695033 0.64947122 0
19.1373 2.81796 435.75601 -0.47411573 -0.21011724 0.85502338 0
19.434 2.20486 435.591 -0.51912862 -0.54625833 0.65734869 0
19.6574 2.5021701 436.19299 -0.58633071 -0.65578479 0.47556555 0
19.6586 86.286499 379.19299 -0.48496196 0.75578374 -0.44000319 0
19.7701 2.2955401 435.96799 -0.20766142 -0.86178857 0.46281445 0
19.787201 2.6121399 436.48999 -0.61194724 -0.22465824 0.75832003 0
19.8204 86.343803 379.04501 -0.48496196 0.75578374 -0.44000319 0
20.031601 2.21628 435.97 -0.32986504 -0.86305529 0.38252407 0
20.2637 2.61568 436.74301 -0.45520449 -0.21605268 0.86377668 0
20.3351 2.34269 436.48901 -0.35341066 -0.79025215 0.50060213 0
20.408899 2.4857299 436.686 -0.48866597 -0.29167798 0.82227093 0
20.6306 86.705902 379.19299 0.076148167 0.98235494 -0.17082216 0
20.786301 2.61466 437.05099 -0.27946177 -0.4349941 0.855968 0
20.869101 2.3240499 436.76999 -0.29499996 -0.7339583 0.61178452 0
21.0093 2.3111401 436.78799 -0.29499996 -0.7339583 0.61178452 0
21.233999 2.37923 436.94101 -0.084128402 -0.42491046 0.90131766 0
21.3109 86.948601 379.19601 -0.81443 0.47707355 -0.33030984 0
21.381599 2.9865601 437.375 -0.42886284 -0.24860974 0.86848712 0
21.5714 2.9135699 437.50201 -0.32228088 -0.19807063 0.92569059 0
21.9081 2.55158 437.39001 -0.34046081 -0.74459934 0.57415873 0
22.1306 87.0411 379.79501 -0.39072025 0.85703647 0.33589613 0
22.1348 2.9126699 437.79901 -0.5089609 -0.259886 0.82062054 0
22.4501 87.066101 380.048 -0.37338954 0.84895694 0.37396833 0
22.612 87.346497 379.604 -0.28238881 0.8605448 0.42393306 0
22.662701 87.605499 379.19501 -0.32202762 0.88158613 0.34511462 0
22.665501 2.6809101 437.98199 -0.30998558 -0.29828709 0.90273678 0
22.8186 87.541901 379.12799 -0.32202762 0.88158613 0.34511462 0
22.852699 87.029602 380.561 -0.374764 0.85485834 0.35884422 0
23.1824 2.5913601 437.98901 -0.25888914 -0.6476112 0.71664226 0
23.184601 86.897301 381.254 -0.36446795 0.85771507 0.36261266 0
23.256399 2.9101501 438.444 -0.23399842 -0.65815425 0.71559608 0
23.256599 3.06411 438.436 -0.36033592 -0.17492887 0.91627395 0
23.256701 87.634903 379.569 -0.34676427 0.90691847 0.23927689 0
23.329 87.5597 379.797 -0.27180287 0.92925102 0.25023147 0
23.334101 87.797302 379.189 -0.34676427 0.90691847 0.23927689 0
23.483999 87.686401 379.642 -0.27180287 0.92925102 0.25023147 0
23.5574 87.776299 379.19299 0.42084369 0.85279179 0.30925196 0
23.6912 87.306297 380.79401 -0.37706104 0.85195798 0.36330786 0
23.7062 87.028503 381.44501 -0.36090189 0.85357225 0.3757183 0
23.7145 3.0708599 438.58401 -0.28254744 -0.25958255 0.92346299 0
23.764601 87.678398 380.00299 -0.33198541 0.9231497 0.19385648 0
23.859501 3.2882099 438.70999 -0.36668304 -0.27129182 0.88991249 0
23.933399 2.8980501 438.58499 -0.19373561 -0.45240769 0.8705135 0
24.1581 87.093697 381.724 -0.38983622 0.84513289 0.36575687 0
24.306101 87.864502 380.17899 -0.4149296 0.81965286 0.3949717 0
24.307699 2.94329 438.76099 -0.27690294 -0.52385604 0.80554307 0
24.363899 2.7471099 438.517 -0.26951119 -0.85774612 0.43776166 0
24.381901 87.616203 380.78799 -0.39507577 0.835428 0.38206699 0
24.4555 87.318901 381.51999 -0.40462929 0.83802241 0.36605138 0
24.461201 88.295998 379.19601 -0.55191708 0.83363336 0.021047993 0
24.461901 3.3631799 439.021 -0.43525392 -0.23485059 0.86913705 0
24.462999 88.295403 379.418 -0.55191708 0.83363336 0.021047993 0
24.5306 88.1717 379.79501 -0.53504872 0.79128033 0.29597014 0
24.6071 88.111397 379.04999 -0.55191708 0.83363336 0.021047993 0
24.660601 88.084198 380.09601 -0.42309698 0.81948006 0.38657644 0
24.7181 87.880997 380.58301 -0.42451257 0.82014436 0.38360432 0
24.760401 3.36396 439.19299 -0.32400966 -0.41796347 0.84871918 0
24.872601 87.747398 381.05701 -0.41811255 0.82604313 0.37793463 0
24.8866 87.3517 381.961 -0.42583299 0.83279997 0.35370961 0
25.0574 88.660896 379.19299 -0.26045233 0.81056976 -0.52453911 0
25.058701 3.5125501 439.32199 -0.27327356 -0.20380239 0.940099 0
25.059999 3.6623299 439.302 -0.27327356 -0.20380239 0.940099 0
25.0763 88.232002 380.24301 -0.39003566 0.82178205 0.41538715 0
25.131901 2.8917501 438.88699 -0.10959406 -0.77377814 0.62390429 0
25.171499 88.5382 379.755 -0.3480913 0.86777431 0.35468325 0
25.280899 3.0622599 439.06799 -0.048026055 -0.65935403 0.75029713 0
25.302099 88.172096 380.599 -0.40312874 0.83531225 0.37381905 0
25.5068 3.5159199 439.36301 0.011623882 -0.34270984 0.93936938 0
25.583 88.214699 380.80499 -0.21608947 0.92414916 0.31504548 0
25.658199 88.7621 379.19699 0.17299731 0.85971057 -0.48059306 0
25.659901 88.516296 380.16299 -0.16250911 0.92570007 0.3415702 0
25.7318 88.6651 379.71799 -0.04412508 0.96832877 0.24574856 0
25.753401 88.016899 381.44101 -0.1983899 0.91646183 0.34747547 0
25.880699 3.5151601 439.26999 0.34407809 -0.46512702 0.81563908 0
25.9573 88.745903 379.19299 0.4746182 0.87996626 -0.019924639 0
26.032101 88.457703 380.354 0.14799674 0.93488061 0.32263789 0
26.1066 88.583702 379.71899 0.33964553 0.90836042 0.24397182 0
26.107599 88.114098 381.44199 -0.099807918 0.94059581 0.32452723 0
26.1085 4.71279 439.759 -0.34307131 -0.41741663 0.84146625 0
26.181801 88.218201 381.142 0.24990025 0.9355635 0.24954118 0
26.1992 3.42837 439.01501 0.35717383 -0.68086088 0.63941795 0
26.256001 88.263496 380.991 0.24990025 0.9355635 0.24954118 0
26.257299 88.397003 378.59299 0.64199567 0.70782328 -0.29466555 0
26.2943 4.1919799 439.52802 -0.060857702 -0.50163621 0.86293536 0
26.335699 4.7175002 439.853 -0.28298113 -0.43689933 0.8538388 0
26.3727 88.102898 378.491 -0.72902161 0.67783743 -0.095204383 0
26.403299 88.260498 380.767 0.37883386 0.91268098 0.15329166 0
26.479 3.3636601 438.73901 0.41193688 -0.66972458 0.61788106 0
26.480801 87.888702 382.116 0.31389645 0.91507471 0.25319415 0
26.481899 88.327599 379.75601 0.60515517 0.79537666 0.034105334 0
26.5194 4.18858 439.49899 0.15897267 -0.62747866 0.76223236 0
26.5469 88.292999 379.19501 0.75165468 0.63664347 -0.17233796 0
26.547899 88.179298 380.767 0.54600781 0.81717384 0.18466836 0
26.554701 88.223999 380.24301 0.49030119 0.86698455 0.089120656 0
26.556999 4.5679498 439.797 -0.20440154 -0.54291558 0.81453222 0
26.5592 4.7265902 439.92099 -0.28292814 -0.52550852 0.80236679 0
26.678499 88.160797 379.64401 0.77673733 0.62815303 0.045857072 0
26.686199 88.158501 379.194 0.79329169 0.60835761 0.024275776 0
26.7087 87.6661 382.79599 0.2330119 0.96338499 0.13264543 0
26.758301 88.034401 380.31799 0.69972467 0.70795482 0.095840357 0
26.783001 3.9886501 439.19699 0.45601195 -0.61531729 0.64299124 0
26.856001 87.517303 383.315 0.1934337 0.9556374 0.22212748 0
26.8615 5.3143401 440.211 -0.073755354 -0.30515072 0.94944364 0
26.883101 85.860298 379.267 0.84735227 -0.45324495 -0.27670056 0
26.893101 86.087097 378.96899 0.7657969 -0.53673369 -0.35422027 0
26.8939 87.510498 378.59601 0.84333944 0.35002023 -0.40775537 0
26.9237 86.314301 378.59698 0.83967215 -0.3133418 -0.44358498 0
26.944201 87.510399 378.746 0.84333944 0.35002023 -0.40775537 0
26.997 86.912003 378.595 0.9225868 0.044912256 -0.38316634 0
27.003901 87.660004 381.96799 0.47554684 0.85694885 0.19873056 0
27.0116 87.662201 379.19299 0.86607081 0.44484454 -0.2281111 0
27.021999 86.315903 378.97101 0.93324101 -0.33696419 -0.12456477 0
27.047501 87.660698 379.41901 0.84782052 0.50626266 -0.15779243 0
27.082399 4.1412301 439.10001 0.43569458 -0.70635974 0.55787647 0
27.0916 87.266602 379.04599 0.95554268 0.20065837 -0.21604256 0
27.0977 87.662003 380.168 0.7828027 0.62090093 -0.041255064 0
27.106501 87.657898 380.46899 0.73329931 0.67947209 0.024285642 0
27.120399 3.4200399 438.181 0.56101751 -0.62035429 0.54810578 0
27.134199 86.837196 379.04501 0.94781393 -0.0041069398 -0.31879747 0
27.1355 87.507797 379.57001 0.94212717 0.31596491 -0.11208294 0
27.1567 5.31885 440.23001 0.06722194 -0.49753562 0.86483496 0
27.1821 87.5513 381.565 0.69838065 0.71559066 0.013945794 0
27.2404 3.8182499 438.526 0.52108812 -0.67110711 0.52733517 0
27.266199 87.445297 382.02399 0.69631982 0.71765542 0.010461663 0
27.268101 86.348999 379.71799 0.93520278 -0.15145923 -0.32008728 0
27.2915 87.363701 380.31799 0.90645939 0.39231816 -0.15626213 0
27.3069 87.368301 382.71799 0.56069303 0.82562143 -0.063028775 0
27.316 86.986 379.79501 0.96885794 0.11960764 -0.21681391 0
27.353901 87.365402 380.918 0.83514374 0.54868346 -0.038488399 0
27.3787 87.308899 383.20499 0.41779992 0.90074545 0.11874717 0
27.3806 4.7104301 439.577 0.33700171 -0.70801455 0.62060076 0
27.442699 86.837601 380.24301 0.94436562 0.14608735 -0.29467273 0
27.447901 87.186096 383.98999 0.30492327 0.93797463 0.16500106 0
27.459999 5.9893498 440.388 -0.23790357 -0.30644479 0.92167974 0
27.5291 4.2402301 438.815 0.47961009 -0.72211081 0.498528 0
27.533199 4.9787002 439.79501 0.33437446 -0.68593532 0.64628667 0
27.588499 86.837196 380.84299 0.92301697 0.32341024 -0.20843589 0
27.604099 87.104103 383.918 0.56423348 0.81935006 0.10151877 0
27.607401 5.8379898 440.39001 -0.18910113 -0.32836086 0.92542958 0
27.6084 87.005203 384.51901 0.45676374 0.87194711 0.17628153 0
27.614201 87.098701 382.11801 0.82160807 0.56767148 -0.052050687 0
27.623199 87.087502 382.45599 0.695095 0.71891785 0.00033447312 0
27.641199 87.056396 381.59399 0.84704798 0.53010708 -0.038681466 0
27.651699 87.079498 383.16901 0.68016994 0.73291552 -0.014274117 0
27.6686 86.611298 380.92001 0.95738637 0.045529678 -0.28519887 0
27.681601 86.705704 385.793 0.2188201 0.93883067 0.26592246 0
27.6838 5.3350801 440.12399 0.33504516 -0.58160931 0.74126607 0
27.6912 86.906898 381.37 0.94969565 0.25413245 -0.18301597 0
27.791 86.908897 382.569 0.80324864 0.5935176 -0.050283749 0
27.832199 5.9122 440.44101 0.085938938 -0.44195604 0.8929106 0
27.8337 4.1364698 438.37 0.44462314 -0.72240669 0.5295648 0
27.886499 4.8608699 439.388 0.41369686 -0.74310249 0.52597874 0
27.907 86.822899 384.51801 0.57359475 0.8143155 0.088765576 0
27.9543 86.462502 382.11801 0.95496851 0.28388309 -0.086287282 0
27.9741 86.761703 383.319 0.81050205 0.57059574 -0.13231358 0
27.997299 86.755997 383.918 0.75243759 0.65865791 0.0027261744 0
28.0534 86.4216 386.54001 0.17723203 0.93456507 0.30850765 0
28.0583 6.5904498 440.84601 -0.13222547 -0.53331661 0.8355177 0
28.131399 86.2565 386.992 0.15124716 0.95575005 0.25232157 0
28.1339 6.8156099 440.99799 -0.045893554 -0.50392717 0.86252606 0
28.144699 86.3106 382.86899 0.92523211 0.34316301 -0.16181695 0
28.1532 4.6579299 438.85901 0.42443466 -0.7372461 0.52566469 0
28.2066 86.381401 386.31799 0.28091773 0.94421256 0.17189479 0
28.2068 86.436897 385.86801 0.46173614 0.8819958 0.094250351 0
28.2188 86.460602 383.76901 0.86361802 0.48683026 -0.13099697 0
28.241699 5.99435 440.45901 0.20478296 -0.56545633 0.79895127 0
28.255899 86.470802 384.556 0.76476544 0.64423859 -0.0095085297 0
28.261999 86.441803 385.11801 0.77099997 0.6365276 0.019791484 0
28.291401 86.382301 385.56799 0.56634641 0.82407475 0.012350866 0
28.2964 5.32833 439.71201 0.40489522 -0.72083008 0.5625512 0
28.304001 86.306396 383.76999 0.87708557 0.44513541 -0.18048662 0
28.3207 4.4384999 438.44501 0.39218995 -0.74445337 0.54034823 0
28.3528 4.9526601 439.14999 0.40105468 -0.74876267 0.52774006 0
28.353001 86.202103 386.767 0.41721272 0.88156378 0.22085924 0
28.354401 4.1779499 438.06601 0.35881332 -0.88434911 0.29862958 0
28.354799 85.872299 388.19 0.33636636 0.92717773 0.16492164 0
28.431999 85.660896 388.716 0.23287956 0.91834027 0.32002854 0
28.4328 4.6802702 438.707 0.40008405 -0.74465871 0.53424358 0
28.4419 86.180397 384.40601 0.87053758 0.4849149 -0.083796568 0
28.4706 7.1887798 441.228 -0.14312141 -0.33135319 0.93258852 0
28.5072 6.5879898 440.836 0.078142509 -0.59704977 0.7983892 0
28.568701 86.084801 385.04401 0.85151994 0.52304971 -0.036507547 0
28.582001 85.457603 389.168 0.20616792 0.88594162 0.41545427 0
28.584299 5.9443302 440.26599 0.30568799 -0.73795199 0.60164917 0
28.6567 85.242699 389.83899 0.098595686 0.99114609 0.088928632 0
28.7318 6.8148699 440.99701 0.078078978 -0.61520439 0.78449172 0
28.7334 7.6381302 441.397 -0.16597399 -0.21347478 0.96274668 0
28.749001 85.708298 384.97 0.8978911 0.41742378 -0.13981748 0
28.8053 85.221199 389.84 0.098595686 0.99114609 0.088928632 0
28.844 85.632103 387.91199 0.60595542 0.79101014 0.084385857 0
28.879 4.6594701 438.328 0.49235627 -0.82604426 0.2742922 0
28.8832 6.1546102 440.29199 0.38014284 -0.6534974 0.65454757 0
28.883499 6.4735198 440.63699 0.2166377 -0.66719383 0.71268541 0
28.8841 85.635498 385.60599 0.91940373 0.36287814 -0.15171103 0
28.917999 85.440903 388.75601 0.51992989 0.85038608 0.080724381 0
28.9554 85.149803 389.992 0.29243225 0.92904913 0.22660773 0
28.9566 84.952301 390.59201 0.18788658 0.90174747 0.38929442 0
29.030899 7.11901 441.202 0.043913636 -0.48614821 0.87277234 0
29.067801 5.2055402 438.966 0.41800618 -0.75608796 0.50358891 0
29.105499 85.212799 389.31799 0.48280871 0.85065615 0.20803821 0
29.1458 8.1623802 441.51501 -0.12771842 -0.12435666 0.98398346 0
29.1516 85.362099 387.5 0.82505959 0.56450874 0.024629377 0
29.179001 6.8965702 440.95599 0.24603887 -0.67363381 0.69690913 0
29.1856 5.9271202 439.798 0.37593067 -0.73991233 0.55785829 0
29.210199 85.261101 386.91901 0.90520883 0.42301336 -0.040702209 0
29.2453 85.140198 389.16599 0.71950829 0.69109219 0.068552025 0
29.254299 5.0162902 438.51599 0.52878225 -0.78467286 0.32353953 0
29.321899 85.107803 387.96899 0.89225316 0.4477047 -0.058692198 0
29.332399 7.63871 441.43799 -0.08310087 -0.28277257 0.95558041 0
29.334101 5.4760098 439.121 0.44714114 -0.73364133 0.51169837 0
29.369301 84.962601 387.51801 0.91555232 0.39702544 -0.06430231 0
29.378599 85.034798 388.60599 0.73413086 0.67899936 0.0034321528 0
29.4027 84.988297 389.168 0.76733071 0.63724142 0.07160262 0
29.406799 84.814003 387.36801 0.92723429 0.36021057 -0.10239597 0
29.415001 84.962402 388.11801 0.92407942 0.37931564 -0.046870336 0
29.4403 5.3355598 438.85101 0.4840672 -0.7261253 0.48828375 0
29.549601 5.25143 438.58899 0.4840672 -0.7261253 0.48828375 0
29.557501 7.7108302 441.466 -0.054935224 -0.29522339 0.95384759 0
29.562799 84.590797 390.36899 0.60905862 0.78014302 0.14291434 0
29.593599 84.649002 390.065 0.660887 0.7473129 0.068933234 0
29.599899 5.9902501 439.61801 0.39410952 -0.74864793 0.53310788 0
29.601 84.694603 389.80499 0.7864877 0.61285651 0.076445699 0
29.602699 84.434998 387.96899 0.94524258 0.32088476 -0.059577148 0
29.623199 84.660599 388.79401 0.87859333 0.47627357 -0.035174094 0
29.631599 6.4951501 440.28 0.35821801 -0.72909987 0.58317518 0
29.684299 84.585701 389.24399 0.85917121 0.51156861 -0.011061146 0
29.708 8.0880299 441.58301 -0.054935224 -0.29522339 0.95384759 0
29.8335 84.357101 389.918 0.85713196 0.50866365 0.081154637 0
29.856199 83.420197 393.892 0.37988368 0.8760587 0.297001 0
29.927 5.7492099 439.00299 0.66676474 -0.73139077 0.14315122 0
29.9821 84.064102 390.96799 0.78121489 0.62426174 -0.00076560827 0
30.005301 6.25911 439.716 0.41953579 -0.74887592 0.51300544 0
30.0065 83.425903 393.668 0.37988368 0.8760587 0.297001 0
30.0068 83.524498 393.36801 0.5611406 0.79268205 0.23827811 0
30.0798 83.834702 389.80701 0.94243485 0.32034409 -0.095896967 0
30.083099 7.7544398 441.44199 0.10906174 -0.63107622 0.76801586 0
30.102301 83.9076 390.96799 0.91799992 0.39502156 -0.035129245 0
30.1047 83.876404 390.40601 0.92166978 0.38674808 -0.030833438 0
30.134001 83.835503 391.60599 0.88023382 0.47397631 -0.023127805 0
30.263201 83.461998 392.80499 0.71653146 0.6763081 0.17085111 0
30.3043 83.534599 392.168 0.86139476 0.50525808 0.052089002 0
30.316601 83.235497 390.44501 0.96509659 0.20975511 -0.15681645 0
30.342199 83.387001 390.96799 0.9295072 0.34911042 -0.11890468 0
30.3633 9.26793 441.93799 -0.23801236 -0.24400803 0.94011182 0
30.430799 83.313301 391.56799 0.93073159 0.36111006 -0.057777673 0
30.433201 83.2341 392.99301 0.70991474 0.68687987 0.15561837 0
30.4576 8.46383 441.90201 -0.14967236 -0.68132263 0.71651775 0
30.4582 8.3198996 441.87601 -0.14967236 -0.68132263 0.71651775 0
30.462299 83.307899 392.168 0.85025507 0.52546024 0.030948753 0
30.5161 83.088501 393.29401 0.79994565 0.59689182 0.061702047 0
30.5282 7.9909601 441.582 0.14951752 -0.62711477 0.76444197 0
30.6057 8.3209 441.86099 -0.14967236 -0.68132263 0.71651775 0
30.606899 83.011803 393.06799 0.84111267 0.54085189 0.0029480353 0
30.6192 83.0131 392.76801 0.83246815 0.55406278 0.0033523277 0
30.6602 82.626701 391.75699 0.96188492 0.18468352 -0.20166647 0
30.6672 82.862099 393.668 0.80203539 0.59543979 0.046804905 0
30.668301 82.860001 392.16901 0.93688619 0.33274266 -0.10736218 0
30.8002 82.336502 392.24399 0.972601 0.14728986 -0.1798695 0
30.8011 82.637398 392.76801 0.92059791 0.37442589 -0.11092672 0
30.8204 82.672798 393.36801 0.84182644 0.53974307 -0.0023820768 0
30.8244 82.633102 394.043 0.87977248 0.47519195 -0.013890422 0
30.827299 8.1308899 441.58499 0.3627305 -0.51866305 0.7742191 0
30.908701 81.774803 397.19501 0.35977614 0.90956807 0.20795915 0
30.916 82.425598 394.69 0.82104415 0.56711084 0.065359324 0
30.957701 82.271698 395.319 0.68469656 0.71122229 0.15922789 0
30.9615 82.167503 392.93799 0.93957883 0.3097018 -0.1458645 0
31.056801 81.066498 398.69101 0.25786492 0.87382311 0.41223639 0
31.056999 10.487 442.43301 -0.32094607 -0.1112015 0.94054657 0
31.073601 82.186501 395.09299 0.80066633 0.59785783 0.038722459 0
31.105301 82.0354 393.59399 0.94533354 0.29179648 -0.14560001 0
31.1063 82.185699 394.49301 0.8837682 0.46608767 -0.041425385 0
31.131901 9.2113895 442.10599 -0.076669745 -0.29680303 0.95185596 0
31.133699 9.9268999 442.345 -0.17945036 -0.24372038 0.95309913 0
31.177401 81.996696 395.63699 0.81170368 0.58386528 0.015442681 0
31.1919 81.904701 393.94101 0.95198071 0.28498384 -0.11187909 0
31.2047 81.164101 398.39099 0.50155586 0.77166086 0.39112815 0
31.2076 9.5501499 442.233 -0.076669745 -0.29680303 0.95185596 0
31.209801 81.659103 396.96899 0.58721089 0.77989101 0.21668723 0
31.2348 81.9627 394.56799 0.90964049 0.41503602 -0.01729865 0
31.2449 8.9881001 442.07101 0.14938305 -0.56489325 0.81152964 0
31.2654 81.923302 395.22501 0.81170368 0.58386528 0.015442681 0
31.2799 81.662399 394.11801 0.95948398 0.23364672 -0.15747924 0
31.354601 81.030403 398.54099 0.25786492 0.87382311 0.41223639 0
31.3578 80.851196 398.99399 0.3249858 0.85094422 0.41264775 0
31.357901 81.6577 396.44299 0.82309145 0.55540723 0.11850414 0
31.376699 81.732002 395.84299 0.83344656 0.55157274 0.03367893 0
31.3923 81.426399 394.457 0.98233366 0.16783181 -0.082783557 0
31.440701 81.449997 396.97 0.67902505 0.69450301 0.23788777 0
31.4564 81.5867 395.24301 0.91135305 0.40926275 -0.044040892 0
31.487 8.0127802 440.883 0.38875347 -0.76167798 0.51837951 0
31.4932 81.5121 396.36801 0.82059067 0.56709224 0.070974469 0
31.5044 81.214699 397.71701 0.57338089 0.78946811 0.21903071 0
31.506599 80.580002 399.59201 0.30031878 0.90493178 0.30150801 0
31.5882 8.3973303 441.375 0.40921015 -0.75147837 0.51752037 0
31.6528 80.405197 399.888 0.29826465 0.88740152 0.35150641 0
31.6938 9.2943497 442.18701 0.0074984762 -0.31528649 0.94896692 0
31.714399 80.947601 398.056 0.61162198 0.74876589 0.25547636 0
31.7278 81.135696 395.99399 0.89548171 0.42921847 -0.11783044 0
31.731701 9.9966803 442.392 -0.076251581 -0.30527011 0.94920802 0
31.733299 10.7137 442.65302 -0.17580874 -0.25576493 0.95061851 0
31.769899 8.5954199 441.51801 0.28789991 -0.72028869 0.6311084 0
31.815001 80.2556 399.965 0.25947639 0.86122572 0.43699223 0
31.8335 80.489403 399.25601 0.5234322 0.81799972 0.23852713 0
31.8435 80.986504 396.59299 0.84732789 0.5297032 -0.038078424 0
31.905701 80.907303 396.96899 0.84682053 0.52640808 0.07608857 0
31.917999 80.5327 398.84299 0.67165166 0.72167063 0.16755745 0
31.929501 80.831001 397.60501 0.80905652 0.57863683 0.10298984 0
31.944901 80.295502 399.58899 0.5075109 0.80009586 0.3198114 0
31.976601 80.599998 398.31699 0.6907357 0.69388914 0.20347492 0
32.031799 9.5143805 442.255 0.086849391 -0.3911064 0.91623849 0
32.159 8.9162502 441.66199 0.35152176 -0.69383401 0.62851161 0
32.181702 9.3639898 442.12799 0.22944941 -0.65646631 0.71861327 0
32.189098 8.5440798 441.11499 0.40795642 -0.74418241 0.52892733 0
32.250401 80.234703 398.20599 0.88702965 0.46145859 -0.015309719 0
32.255299 79.100304 401.991 0.27828917 0.85667783 0.43434805 0
32.256599 11.3118 442.91501 -0.37356761 -0.15101308 0.91522801 0
32.257 78.605698 402.89301 0.31828859 0.84644216 0.42688176 0
32.257599 10.4876 442.629 -0.16993587 -0.32729131 0.92951721 0
32.263699 80.159203 397.71899 0.93094838 0.35075364 -0.10152347 0
32.315102 80.029297 398.89899 0.81095713 0.57874465 0.086041249 0
32.332298 9.8124704 442.42401 -0.053594474 -0.53582424 0.84262687 0
32.333302 10.8267 442.77399 -0.17292728 -0.29820201 0.93870747 0
32.3494 8.0308399 440.27899 0.45039609 -0.74829108 0.48703575 0
32.405499 78.766296 402.44199 0.49906787 0.7692405 0.39899909 0
32.4072 78.653503 402.668 0.31828859 0.84644216 0.42688176 0
32.4076 78.408096 403.194 0.28561333 0.85259777 0.43760955 0
32.421001 79.802299 399.34 0.83797902 0.54171318 0.065863453 0
32.434101 79.641701 399.93201 0.75832629 0.63213927 0.15918931 0
32.4501 78.979202 401.92001 0.61925381 0.7219094 0.30882284 0
32.5173 79.326897 400.828 0.62112045 0.72358507 0.30105481 0
32.518902 79.4002 400.565 0.72870713 0.66658741 0.156994 0
32.572701 79.559601 399.36801 0.9377256 0.34666926 0.022161257 0
32.628799 8.9179602 441.30801 0.41348639 -0.74700177 0.52059329 0
32.629299 8.1574202 440.23999 0.55051291 -0.7264058 0.41142458 0
32.632099 9.54317 442.11801 0.2229028 -0.70139676 0.67702067 0
32.632702 8.3517103 440.50601 0.45563301 -0.73887366 0.49645171 0
32.732498 79.073196 400.75601 0.83142453 0.54872364 0.087381981 0
32.8172 78.813499 401.39401 0.7308495 0.65411204 0.19492668 0
32.847401 78.959396 400.11801 0.9103815 0.41363338 -0.01063111 0
32.858601 10.4895 442.78601 -0.14409675 -0.37273329 0.91668206 0
32.865601 11.6136 443.194 -0.36637664 -0.2211497 0.90380359 0
32.875198 78.429604 402.34698 0.6371879 0.73113334 0.2437942 0
32.9314 10.7856 442.87701 -0.12223348 -0.38663167 0.91409785 0
32.932098 10.1172 442.64899 -0.080086462 -0.38404244 0.91983563 0
32.935799 11.3901 443.147 -0.27635261 -0.37900543 0.88316709 0
32.953602 77.927002 403.64401 0.60498101 0.69968224 0.38005629 0
32.9701 8.7342901 440.76901 0.436836 -0.74106425 0.50990009 0
32.999802 78.505699 401.69199 0.72327077 0.66880524 0.17198542 0
33.032101 78.510101 401.168 0.91059929 0.4126513 -0.022973308 0
33.053902 78.0755 402.82001 0.66182554 0.67323446 0.32976094 0
33.0779 8.5297003 440.35199 0.5540275 -0.74868631 0.36403608 0
33.084499 78.353104 401.841 0.8437019 0.52115071 0.12872085 0
33.1422 78.096497 402.43301 0.82321781 0.55190867 0.13307609 0
33.145901 77.753998 403.56601 0.67354614 0.70643467 0.21745282 0
33.155899 10.118 442.61401 0.14156719 -0.52254951 0.84077388 0
33.2145 9.3105297 441.40701 0.39291957 -0.7883265 0.47345072 0
33.2309 8.8180199 440.655 0.46515706 -0.7501756 0.46996331 0
33.231201 9.6966 442.04099 0.2442117 -0.78657371 0.56715292 0
33.2342 11.3892 443.26001 -0.28300452 -0.35153192 0.89237535 0
33.3022 77.834503 401.39499 0.94305938 0.32002687 -0.090673968 0
33.3074 10.3369 442.737 0.011582526 -0.40413603 0.91462559 0
33.3451 9.0837898 440.95599 0.45741856 -0.74493462 0.4856343 0
33.379601 77.760696 401.91901 0.94323158 0.33201137 0.0090879193 0
33.397202 77.687897 402.59399 0.8540023 0.51816636 0.046729885 0
33.473801 77.346497 403.633 0.76722229 0.63154984 0.11186944 0
33.4758 77.459801 403.13699 0.8079204 0.57580721 0.1253421 0
33.555801 77.384102 402.63101 0.92918962 0.36805609 -0.033783872 0
33.5695 10.6387 442.86499 -0.0071754484 -0.36114854 0.93248069 0
33.575802 77.042 404.39099 0.70897496 0.68204111 0.17937227 0
33.590801 77.235497 402.40701 0.926166 0.35733545 -0.12053164 0
33.6357 8.9849501 440.5 0.53285319 -0.73943043 0.41147313 0
33.647598 77.196701 402.96799 0.92918962 0.36805609 -0.033783872 0
33.661999 76.880096 404.61801 0.69213229 0.67107004 0.26574028 0
33.6819 9.2074099 440.84299 0.52404058 -0.77145809 0.36087942 0
33.683498 77.048401 403.71799 0.85419291 0.51064754 0.097946592 0
33.735001 8.9014797 440.16199 0.62634039 -0.76722276 0.1380832 0
33.750099 76.310097 406.04001 0.5590806 0.75464851 0.34341601 0
33.753399 75.659599 407.314 0.29129082 0.80221957 0.5211463 0
33.756599 10.4895 442.77701 0.20049149 -0.58889002 0.78295064 0
33.813801 9.5705004 441.444 0.33656999 -0.83318943 0.43876651 0
33.831501 75.180496 408.06601 0.3754124 0.83806366 0.39587227 0
33.832699 10.1154 442.41901 0.23968619 -0.72092462 0.65024471 0
33.906399 75.289597 407.84201 0.35131171 0.78361517 0.51237422 0
33.936298 76.561699 403.71899 0.94930917 0.2955282 -0.1071222 0
33.962898 76.489098 404.39401 0.82606506 0.56142533 0.049173906 0
33.985901 12.0619 443.62399 -0.40170553 -0.27559629 0.87331516 0
34.002998 9.94664 442.047 0.26820013 -0.84982419 0.45372629 0
34.015999 74.8405 408.513 0.44824237 0.7773158 0.44142824 0
34.0173 76.253197 405.44101 0.69597495 0.69447869 0.18253291 0
34.030602 76.337601 404.84299 0.81856036 0.56941545 0.075663716 0
34.037201 10.7714 442.87299 0.21824867 -0.5464229 0.80857253 0
34.041698 76.034203 406.04199 0.71146196 0.6682151 0.21750969 0
34.0494 75.546997 407.164 0.47883499 0.74509561 0.46427318 0
34.057301 11.9119 443.711 -0.26732543 -0.57103461 0.77618074 0
34.1297 76.182297 404.694 0.92006856 0.38924998 -0.044253238 0
34.131302 11.3656 443.246 0.17283221 -0.5891692 0.78930897 0
34.132198 11.5198 443.392 0.11942717 -0.54187006 0.83193392 0
34.132401 9.6403599 441.36899 0.36251065 -0.84789884 0.38685086 0
34.141201 76.107399 405.367 0.87040073 0.48828611 0.063081384 0
34.188301 75.849098 404.24399 0.9366172 0.307715 -0.16751032 0
34.201599 75.887802 405.931 0.76096511 0.63002181 0.15493424 0
34.2066 74.419998 409.04199 0.26911277 0.73358202 0.62404788 0
34.236198 75.105301 407.767 0.55905128 0.75382388 0.3452698 0
34.2649 75.5037 406.79001 0.68547106 0.67907512 0.26265258 0
34.292599 75.6632 406.26901 0.85654294 0.49808881 0.13506192 0
34.3064 75.303497 407.16699 0.73975617 0.62709486 0.24395241 0
34.353901 73.860703 409.78799 0.32138827 0.83452165 0.44753015 0
34.379398 75.661598 405.51801 0.87569648 0.48239502 0.02123028 0
34.382198 74.911499 407.91599 0.61643744 0.6758706 0.40398493 0
34.393101 10.0986 442.11499 0.27795446 -0.85498536 0.43788278 0
34.4277 9.5750198 440.76801 0.6195125 -0.78151155 0.073783152 0
34.432301 11.3186 443.138 0.15038049 -0.64118606 0.75250661 0
34.437801 75.511497 405.36899 0.94713277 0.29438987 -0.12756997 0
34.471001 10.785 442.75201 0.20797753 -0.55452305 0.8057602 0
34.530102 74.982903 407.35501 0.77282506 0.58969051 0.23453464 0
34.579102 73.371597 410.39001 0.28446871 0.85403889 0.43554008 0
34.579399 73.103798 410.83801 0.30601829 0.81787145 0.48727718 0
34.615002 9.8178101 441.36401 0.42062423 -0.87929505 0.2234176 0
34.615799 75.0616 406.11801 0.9294793 0.36561275 -0.048944194 0
34.636501 74.986801 406.793 0.86139423 0.49665594 0.10645586 0
34.6525 73.213799 410.612 0.28446871 0.85403889 0.43554008 0
34.707802 73.773003 409.52899 0.56725401 0.72770292 0.38557923 0
34.717499 73.954697 409.19 0.56725401 0.72770292 0.38557923 0
34.731499 11.4641 443.23901 0.11301558 -0.76448566 0.63465673 0
34.733799 10.9317 442.77301 0.16695994 -0.58783919 0.79156137 0
34.733799 11.9196 443.89899 -0.36927924 -0.56093216 0.74093723 0
34.733799 10.9317 442.77301 0.16695994 -0.58783919 0.79156137 0
34.733799 12.0631 443.97 -0.2115673 -0.12190093 0.96973163 0
34.733799 11.9196 443.89899 -0.36927924 -0.56093216 0.74093723 0
34.733799 12.0631 443.97 -0.2115673 -0.12190093 0.96973163 0
34.8083 73.352402 410.16901 0.47164217 0.7810809 0.40922645 0
34.8106 74.357597 407.98401 0.85992879 0.49607268 0.1201432 0
34.843899 74.010498 408.81799 0.82602906 0.49471009 0.27007014 0
34.844501 74.459198 407.46799 0.87706602 0.47615349 0.063506022 0
34.845798 74.461098 406.71899 0.94339406 0.31104013 -0.11515908 0
34.860802 74.459801 407.168 0.87194574 0.48874778 -0.028917227 0
34.860901 10.0643 441.703 0.37591517 -0.83423162 0.40341717 0
34.8773 73.558098 409.64401 0.56002027 0.73592132 0.38052219 0
34.880901 10.2489 442.04099 0.43189439 -0.74782139 0.50421268 0
34.8876 73.183502 410.38101 0.44940326 0.78383446 0.42853263 0
34.913601 74.048302 408.46201 0.81445861 0.53719229 0.21927509 0
34.939201 74.235199 407.24399 0.95258391 0.30310282 0.026694205 0
34.941101 73.762604 409.09698 0.80842662 0.53314209 0.24941103 0
34.9478 72.834 410.98599 0.5949946 0.71708137 0.36300924 0
34.954399 72.655602 411.29001 0.48967624 0.74229813 0.45739558 0
34.992599 10.7926 442.638 0.19912151 -0.60354882 0.77206177 0
35.0313 71.704102 412.642 0.30443242 0.76958787 0.56129795 0
35.032799 11.0098 442.78101 0.19912151 -0.60354882 0.77206177 0
35.033401 11.3881 443.077 0.097694248 -0.68111122 0.72563308 0
35.049099 72.068001 412.069 0.4015699 0.77461427 0.48858401 0
35.1064 11.9789 443.94101 0.065109521 -0.78617215 0.61456817 0
35.132599 73.636803 407.806 0.92718053 0.37056231 -0.054953437 0
35.146 73.6371 408.44299 0.93018359 0.35234639 0.10300726 0
35.249699 71.489403 412.85901 0.30762655 0.7841273 0.53899008 0
35.258099 12.2137 444.181 0.10387242 -0.6662513 0.73845768 0
35.3316 70.8638 413.69101 0.2439414 0.78585964 0.56825805 0
35.333199 70.635498 413.995 0.22595321 0.77537489 0.58969396 0
35.3339 73.184898 408.96799 0.961191 0.27473187 -0.025184447 0
35.344898 73.037903 409.49399 0.81875402 0.52626181 0.22954372 0
35.351101 72.145401 411.573 0.61267066 0.68111801 0.40089017 0
35.404202 10.7724 442.48901 0.34701556 -0.61545742 0.70766687 0
35.405499 12.0663 443.98901 0.10387242 -0.6662513 0.73845768 0
35.408401 71.052597 413.39499 0.41457242 0.74847037 0.51761162 0
35.409302 72.434998 410.84299 0.73552811 0.60961622 0.29557815 0
35.423801 72.961601 409.11801 0.95149809 0.30755624 -0.0077809286 0
35.467701 72.659203 410.16699 0.89633989 0.42379588 0.1302762 0
35.484001 72.212601 411.10599 0.73734421 0.62287951 0.26142797 0
35.494701 72.7351 409.60599 0.94298559 0.33229062 0.019002696 0
35.512199 71.682701 412.155 0.60355234 0.70113605 0.37964824 0
35.516102 70.843201 413.61401 0.47846964 0.72270977 0.49875581 0
35.525902 71.450401 412.56799 0.60253102 0.71147203 0.36161295 0
35.5508 70.356903 414.28 0.45762128 0.72897786 0.50909138 0
35.557499 70.564499 413.99399 0.49377424 0.72419941 0.48137534 0
35.5839 72.433701 410.24301 0.91259289 0.38613522 0.13443887 0
35.630699 70.1511 414.51501 0.33500606 0.71728629 0.61095935 0
35.632198 11.3728 442.78201 0.39840174 -0.60490179 0.68947071 0
35.6427 71.8694 411.422 0.80179417 0.55725962 0.21584213 0
35.707001 12.5124 444.24799 0.29475409 -0.57523179 0.76303893 0
35.7952 71.8377 410.84399 0.91324943 0.40282139 0.060913447 0
35.828098 71.386803 411.96799 0.79002428 0.5732252 0.21742703 0
35.8466 70.726196 413.38699 0.54919106 0.7059316 0.44726926 0
35.8577 71.158302 412.436 0.7809329 0.59211266 0.19886263 0
35.933201 13.2241 444.245 -0.14160478 -0.18300685 0.97285998 0
35.935001 12.8144 444.34201 0.015879724 -0.39514813 0.91848016 0
36.0014 70.860397 412.71799 0.84856576 0.49128148 0.19641456 0
36.0233 69.861801 414.595 0.61058575 0.7048279 0.3611131 0
36.028801 70.333702 413.76801 0.5960505 0.66483778 0.45023838 0
36.030701 71.236 411.44299 0.89100617 0.4525623 -0.035991464 0
36.031601 70.560204 413.31799 0.60924554 0.71504092 0.34283584 0
36.134998 70.938202 411.74399 0.8706125 0.46276733 0.16697392 0
36.1432 69.653397 414.73801 0.50595188 0.67892474 0.53204691 0
36.153198 12.5531 444.10101 0.36650598 -0.1611947 0.91634583 0
36.185902 70.787598 411.59299 0.94084227 0.33610314 0.043017454 0
36.229698 12.4761 443.98901 0.36650598 -0.1611947 0.91634583 0
36.256901 69.283997 415.116 0.71599275 0.60117131 0.35489073 0
36.2696 67.835701 416.99701 0.32581562 0.79466558 0.51220191 0
36.276402 69.959396 413.91699 0.78110749 0.57033736 0.25413847 0
36.301201 69.033699 415.41699 0.72706544 0.6008178 0.3322556 0
36.310799 70.338097 412.569 0.92194718 0.36968014 0.11554212 0
36.374001 68.314201 416.384 0.41593558 0.66106945 0.62448758 0
36.4641 69.437202 414.444 0.74829596 0.60150731 0.27971798 0
36.489498 69.808197 413.29901 0.87993097 0.47308019 0.043779038 0
36.491501 68.759102 415.56699 0.73634374 0.60341114 0.30609298 0
36.546398 69.568703 413.862 0.88398498 0.44339925 0.14821491 0
36.667 69.057404 414.66599 0.77466005 0.55492198 0.30325469 0
36.6763 67.353401 417.36099 0.38771164 0.71464884 0.58219987 0
36.681499 68.538101 415.569 0.77049774 0.58851737 0.24490936 0
36.734798 69.059303 414.367 0.8756088 0.47836128 0.066930972 0
36.753502 67.898201 416.50601 0.60463661 0.6229077 0.49638754 0
36.823799 68.833099 414.44299 0.94178545 0.33186147 0.053927284 0
36.829399 67.660103 416.76901 0.6332956 0.57805288 0.51457906 0
36.847698 68.6147 414.97 0.91314846 0.37396887 0.16219482 0
36.906601 66.6577 418.19299 0.21885476 0.95988274 -0.17529333 0
36.943001 68.0839 415.79199 0.78900272 0.55732697 0.25857568 0
36.9664 67.858704 416.16699 0.78464955 0.52962142 0.32222086 0
37.002102 68.237297 415.043 0.91259211 0.39017335 0.12223113 0
37.049 66.193604 418.78299 0.36723408 0.70272243 0.60936058 0
37.053299 66.060699 418.93799 0.36851183 0.7521677 0.54629916 0
37.053902 65.731903 419.31201 0.47771603 0.69148374 0.54188341 0
37.055099 66.5867 418.19199 0.45070478 0.78802615 0.41938043 0
37.057499 13.114 444.55399 -0.0841695 -0.13342775 0.98747784 0
37.1026 66.9067 417.552 0.67956471 0.65400487 0.33236939 0
37.147202 67.485901 416.39301 0.77654737 0.54481173 0.31647173 0
37.205399 65.478897 419.54099 0.30706763 0.73988992 0.5985586 0
37.263901 67.261002 416.46799 0.85428196 0.49063098 0.17170791 0
37.278999 65.548897 419.39001 0.53151333 0.67199391 0.51567209 0
37.313301 66.434898 417.96701 0.70453244 0.60415626 0.37232947 0
37.316601 67.260101 416.168 0.93189067 0.36115003 0.033918407 0
37.3279 66.026497 418.625 0.72206187 0.59151173 0.35880437 0
37.337898 66.733002 417.366 0.8368277 0.50517511 0.21099165 0
37.347198 65.053299 419.98099 0.55331433 0.64545262 0.52653033 0
37.358601 66.885696 416.99301 0.84658557 0.48546636 0.21820939 0
37.4132 65.839203 418.79501 0.66347241 0.62134886 0.41680923 0
37.539398 66.360199 417.51801 0.86859214 0.45973918 0.18489891 0
37.5756 66.435402 416.76801 0.94715762 0.31644857 0.052466102 0
37.618401 13.1534 444.52802 0.10687443 -0.64443135 0.75715661 0
37.648201 65.383202 419.091 0.75074399 0.57272577 0.32919395 0
37.738998 65.687202 418.194 0.80688238 0.55355942 0.20618644 0
37.763699 65.383904 418.79199 0.80174565 0.54279989 0.25014433 0
37.804001 63.6945 421.27499 0.45322382 0.67238736 0.58522081 0
37.804401 64.859901 419.617 0.66189706 0.62589645 0.41248739 0
37.836102 65.084297 419.16699 0.82752067 0.50540984 0.24447985 0
37.918098 64.598801 419.76801 0.84560621 0.46892259 0.25507206 0
37.930698 65.160202 418.56799 0.89884746 0.4249801 0.10707566 0
37.939301 64.3386 420.14401 0.69470721 0.60546923 0.38831547 0
37.949001 64.784401 419.392 0.87674648 0.44514155 0.18211147 0
37.951599 62.780701 422.23599 0.39373574 0.6477176 0.65225309 0
37.9608 62.5522 422.46899 0.39373574 0.6477176 0.65225309 0
37.982899 63.732101 421.039 0.48201817 0.70927662 0.51437843 0
38.0037 63.235802 421.64099 0.52156734 0.64154196 0.56248683 0
38.012798 64.034203 420.49799 0.71931309 0.60942751 0.33344686 0
38.053699 63.547401 421.19199 0.67111099 0.61241847 0.41779613 0
38.181702 13.7162 444.92999 0.08998616 -0.61752415 0.78138751 0
38.2187 64.074501 419.806 0.87438989 0.44807023 0.1862133 0
38.236099 64.1847 419.39301 0.92661792 0.36782259 0.078011185 0
38.3419 62.385601 422.31699 0.65765804 0.63188404 0.41013229 0
38.347301 62.9077 421.565 0.74734724 0.57543272 0.33218861 0
38.361099 63.586201 420.293 0.91132545 0.36481589 0.19077541 0
38.404598 62.615299 421.871 0.70007515 0.57595778 0.42209885 0
38.408401 63.135899 421.043 0.76516354 0.54071212 0.34950703 0
38.421101 61.7738 422.992 0.50073332 0.66938293 0.54881018 0
38.486801 62.7229 421.51099 0.86209017 0.43905497 0.25304398 0
38.530499 62.083599 422.39099 0.66004026 0.62414616 0.41807711 0
38.544498 60.617199 424.177 0.55193299 0.62118083 0.55633116 0
38.560501 62.8368 421.043 0.91860157 0.37367317 0.12860611 0
38.597698 61.103802 423.58701 0.62537295 0.5835011 0.51810724 0
38.604698 61.276501 423.349 0.68331826 0.51282412 0.51969951 0
38.625999 62.3293 421.72699 0.85729986 0.42685777 0.287801 0
38.685699 60.106499 424.59201 0.48235005 0.58754492 0.64971483 0
38.705601 13.7603 444.89801 0.092454858 -0.5894357 0.8025071 0
38.855598 58.332401 426.26401 0.44748256 0.59890831 0.66412967 0
38.859901 14.312 445.16699 -0.047233682 -0.31697407 0.94725734 0
38.919102 60.575298 423.742 0.72103608 0.56485045 0.40131158 0
38.9226 59.9212 424.56799 0.52064145 0.65730661 0.54486746 0
38.9566 61.186901 422.69299 0.87599856 0.42162803 0.23421429 0
39.0089 60.9608 422.918 0.86299837 0.46632707 0.19435254 0
39.046299 58.8876 425.57901 0.57282782 0.58465278 0.57449925 0
39.0527 58.334301 426.15302 0.44748256 0.59890831 0.66412967 0
39.0616 60.7356 423.14301 0.87080318 0.4186675 0.25771958 0
39.108299 60.059502 424.117 0.78210807 0.50000966 0.37188351 0
39.1301 60.4352 423.44199 0.87106788 0.41690257 0.2596786 0
39.161499 59.571899 424.64099 0.72899646 0.57171148 0.37644404 0
39.2453 58.3316 425.98801 0.59701025 0.56600839 0.56851852 0
39.2775 58.936199 425.20499 0.67395675 0.56899315 0.4711996 0
39.294399 59.7603 424.117 0.80826193 0.50827181 0.29727489 0
39.306099 14.3161 445.16599 0.047383938 -0.29452592 0.95446801 0
39.3885 59.236099 424.64301 0.86911482 0.389007 0.30547175 0
39.4501 59.3853 424.19299 0.87181705 0.39379016 0.29131481 0
39.458099 14.4582 445.19901 0.0015064839 -0.37176067 0.92832738 0
39.458599 14.6132 445.233 0.0015064839 -0.37176067 0.92832738 0
39.491798 58.486801 425.39301 0.73373449 0.52947456 0.42578205 0
39.509201 57.507401 426.58899 0.56816781 0.67040348 0.47722587 0
39.512501 55.672798 428.35501 0.43330196 0.60764998 0.66559064 0
39.565201 57.957199 425.98999 0.73082364 0.56114393 0.38860554 0
39.601799 58.936199 424.34299 0.9220767 0.36438042 0.13038976 0
39.631699 58.412701 425.16901 0.84007102 0.48821628 0.23648576 0
39.670502 57.732399 426.10199 0.72976816 0.53063297 0.43112308 0
39.671799 56.4212 427.561 0.60688895 0.58913857 0.53348058 0
39.675301 57.2869 426.63101 0.79621911 0.44802666 0.40658 0
39.679901 57.958801 425.76599 0.86780244 0.41968852 0.26604602 0
39.683498 58.185902 425.39301 0.86153609 0.42184946 0.28248647 0
39.743599 57.3592 426.44101 0.79621911 0.44802666 0.40658 0
39.756199 56.7048 427.16599 0.62157959 0.64765459 0.44066131 0
39.757099 14.3131 445.047 0.25535142 -0.49846727 0.82844794 0
39.778099 58.335602 424.64301 0.95637202 0.27038378 0.11065815 0
39.787899 55.8563 427.98401 0.43986014 0.64617401 0.62368441 0
39.802101 57.5872 425.99399 0.86408973 0.43044305 0.26089799 0
39.822899 56.084599 427.716 0.61550629 0.60654259 0.5032475 0
39.831799 14.4658 445.15601 0.1038644 -0.49865985 0.86055249 0
39.8489 55.366402 428.40201 0.54868019 0.60809362 0.5737353 0
39.9048 54.733898 428.96799 0.52319604 0.6620869 0.53656954 0
39.940701 57.585899 425.39301 0.94261616 0.32844347 0.059996698 0
40.0275 55.746399 427.79099 0.77005571 0.51948696 0.37033433 0
40.0308 56.3466 427.06 0.81475824 0.44386205 0.37303555 0
40.070202 56.686001 426.44299 0.90339798 0.39350766 0.17036372 0
40.117699 55.252602 428.23499 0.69202799 0.60408133 0.39520004 0
40.134201 14.9132 445.38901 -0.31935638 -0.26262817 0.91051519 0
40.168499 54.581799 428.85699 0.56357777 0.62033904 0.54549021 0
40.183399 55.028 428.38501 0.68209714 0.52930474 0.50455922 0
40.2075 54.282799 429.10101 0.6329453 0.50789917 0.58431041 0
40.2286 55.2603 428.017 0.69202799 0.60408133 0.39520004 0
40.260201 55.785 427.19199 0.8722679 0.38788816 0.29781118 0
40.2924 55.0336 428.16599 0.80646878 0.46487001 0.36538202 0
40.315399 55.860901 426.81799 0.9417097 0.31049731 0.12951529 0
40.3269 55.487202 427.41901 0.86754537 0.41461942 0.27469215 0
40.3554 51.658501 431.29199 0.37028491 0.58320063 0.72302562 0
40.355701 55.185101 427.79199 0.87720603 0.39401639 0.27433681 0
40.3559 51.058102 431.715 0.3249101 0.54261005 0.7746017 0
40.357201 53.594002 429.59299 0.69075775 0.42317981 0.58632118 0
40.362499 54.644901 428.479 0.79889125 0.44762862 0.40174794 0
40.428101 52.337002 430.70001 0.43896553 0.57867879 0.68734282 0
40.4324 50.611301 431.995 0.23855156 0.53846848 0.80817378 0
40.433998 54.2845 428.76599 0.7194919 0.54464978 0.4309153 0
40.487301 52.860901 430.18399 0.57677549 0.59036899 0.56461889 0
40.5061 51.510399 431.32199 0.32234371 0.49190027 0.80878222 0
40.507301 14.536 445.19601 0.043286901 -0.73238611 0.6795122 0
40.563099 54.363098 428.319 0.87755722 0.38118255 0.29084906 0
40.6562 48.658298 433.285 0.26106837 0.51639056 0.81558818 0
40.658501 14.9154 445.582 -0.12500589 -0.56194597 0.81767368 0
40.6991 51.977798 430.793 0.63478696 0.50558901 0.58431602 0
40.7449 53.461399 428.99301 0.92954761 0.3274914 0.16938321 0
40.776901 52.637199 429.96899 0.84766376 0.42870885 0.31252977 0
40.782501 53.085899 429.36801 0.90165925 0.3538692 0.24857035 0
40.801201 52.805 429.68701 0.82925957 0.44083938 0.34349555 0
40.802799 49.630901 432.565 0.25439182 0.61106652 0.74958819 0
40.804001 49.256199 432.83899 0.29719701 0.58048093 0.75810015 0
40.805801 48.658798 433.23999 0.38891366 0.5103851 0.76697665 0
40.806499 50.428398 431.95599 0.40620726 0.59982038 0.68935561 0
40.808998 53.536598 428.50601 0.96145517 0.25108933 0.11206295 0
40.811199 53.2356 429.06799 0.91816956 0.33253425 0.21537314 0
40.822899 51.056198 431.43701 0.53175217 0.31501156 0.78613442 0
40.825199 51.286999 431.24399 0.5342983 0.54782015 0.64375341 0
40.8442 52.3321 430.189 0.8005839 0.451157 0.39436373 0
40.933601 52.935699 428.99301 0.94766068 0.29545602 0.12101659 0
40.939701 51.885502 430.492 0.75845003 0.48721027 0.43287379 0
40.946098 51.5821 430.78799 0.76390719 0.43476537 0.47689083 0
40.955601 47.457901 433.98999 0.2913413 0.501158 0.81483793 0
40.956699 48.660999 433.185 0.38891366 0.5103851 0.76697665 0
40.984402 49.933201 432.21201 0.6780532 0.40223104 0.61518615 0
41.028301 52.486301 429.36801 0.93475157 0.3207691 0.1527963 0
41.097401 52.148499 429.57401 0.91953033 0.34448946 0.18918517 0
41.103699 50.172901 431.84698 0.77169836 0.47445336 0.4235276 0
41.126499 51.699699 430.18399 0.91091657 0.32157567 0.25849587 0
41.177502 48.507801 433.116 0.49030584 0.46970493 0.73415083 0
41.219898 14.9746 445.57501 0.044706304 -0.70074594 0.71200877 0
41.277901 49.146999 432.51599 0.61796349 0.54906791 0.56271261 0
41.279301 50.949699 430.64301 0.91587001 0.35839021 0.18093802 0
41.2883 50.4977 431.186 0.92526746 0.3073692 0.22227091 0
41.306599 51.135799 430.043 0.9640134 0.25343513 0.080304712 0
41.400799 48.021099 433.267 0.53925526 0.48469108 0.68867862 0
41.403301 49.936401 431.505 0.8710131 0.35295919 0.34169576 0
41.4049 45.057598 435.37399 0.56168109 0.4758676 0.67680454 0
41.420399 48.959301 432.44101 0.80214715 0.40187833 0.4416489 0
41.424198 46.932999 434.077 0.5161581 0.52876765 0.67378449 0
41.427299 50.460098 430.71701 0.94870132 0.28625587 0.134251 0
41.437199 48.285801 432.996 0.72029734 0.5386613 0.4370535 0
41.4538 50.049801 431.20599 0.92380553 0.31199616 0.22190487 0
41.456799 49.561401 431.76801 0.84180415 0.37077472 0.39229062 0
41.4776 47.721401 433.418 0.68074602 0.34881738 0.64413607 0
41.5107 50.1605 430.71799 0.96200562 0.25813469 0.088947698 0
41.566002 47.9823 433.07599 0.75866151 0.46296677 0.45836067 0
41.601299 49.5994 431.168 0.95921189 0.2226083 0.17423582 0
41.614899 47.065899 433.75299 0.65555853 0.4878011 0.57644868 0
41.717999 48.136398 432.59299 0.85566348 0.3780936 0.35339099 0
41.719299 48.735699 431.84201 0.92205888 0.29094785 0.2552582 0
41.800598 48.417801 431.918 0.9698441 0.20173925 0.13676153 0
41.838699 47.2752 433.11899 0.86773551 0.35295859 0.34993619 0
41.908501 45.022301 434.91599 0.66398722 0.39509758 0.63483763 0
41.922901 47.534801 432.591 0.9371742 0.28040975 0.20754491 0
41.932301 14.9449 445.48999 -0.073207729 -0.67282945 0.73616654 0
41.932499 15.2128 445.79001 -0.056592263 -0.44335806 0.89455628 0
41.944199 44.233002 435.48801 0.66486901 0.48126441 0.57125628 0
41.9589 45.6595 434.31601 0.90538937 0.28888974 0.31114763 0
41.981899 46.261398 433.71799 0.81844103 0.41475204 0.39766198 0
42.0051 46.9744 432.931 0.95309025 0.24364422 0.17960089 0
42.0131 47.4608 432.21799 0.98516029 0.16402704 0.050539833 0
42.015202 45.358799 434.465 0.90290093 0.25082532 0.34907952 0
42.042198 47.1623 432.51901 0.93290758 0.29525307 0.2061772 0
42.048401 43.149899 436.13699 0.48577017 0.45576817 0.745857 0
42.073299 45.737598 433.98199 0.90527016 0.29466671 0.30603504 0
42.074799 42.7715 436.35699 0.63994193 0.35772437 0.6800791 0
42.0756 43.560902 435.81699 0.54932028 0.54953516 0.62949049 0
42.080799 44.651501 434.92099 0.85825121 0.32592183 0.39645907 0
42.082901 15.0792 445.64301 0.1207689 -0.43703938 0.89129764 0
42.0886 45.887199 433.79401 0.90885824 0.27705216 0.31179932 0
42.093102 46.261398 433.418 0.95213252 0.20939894 0.22270092 0
42.106701 41.269501 437.25699 0.45499021 0.47410995 0.75379288 0
42.107399 42.098202 436.772 0.64912224 0.47323337 0.595559 0
42.130299 43.860001 435.51599 0.76869673 0.3901526 0.50683951 0
42.134499 46.336102 433.19299 0.96712828 0.19055136 0.16838369 0
42.179699 45.3237 434.07901 0.91055512 0.28061685 0.30355147 0
42.2491 41.719898 436.858 0.68784219 0.38641551 0.614456 0
42.262699 45.509998 433.56699 0.9440791 0.27567244 0.18088508 0
42.263401 44.3493 434.82401 0.89194292 0.28325692 0.35242492 0
42.281502 43.711899 435.36801 0.86557072 0.32226238 0.38332009 0
42.303902 39.883701 437.94699 0.62036484 0.4342635 0.65311766 0
42.304001 40.784199 437.39001 0.56539571 0.35384753 0.74506348 0
42.305401 39.0602 438.40799 0.42789283 0.48067257 0.76541597 0
42.349098 44.986698 433.793 0.96703851 0.23386431 0.10071728 0
42.383202 44.462101 434.319 0.95316941 0.20187181 0.22520193 0
42.433201 42.3591 436.11401 0.82283121 0.35210142 0.44606435 0
42.4547 38.459099 438.69601 0.60741431 0.30471107 0.73362046 0
42.4664 14.9835 445.509 0.023980297 -0.81192994 0.58326209 0
42.472801 41.612202 436.569 0.8123166 0.36759508 0.45278654 0
42.512798 43.673698 434.68301 0.93791837 0.26132122 0.22807962 0
42.518799 42.850201 435.51901 0.93747097 0.22687325 0.26396346 0
42.5322 14.7416 445.117 0.054575372 -0.89155173 0.44961879 0
42.5555 41.197102 436.715 0.80815905 0.27231878 0.52222735 0
42.5569 38.531601 438.54901 0.67466998 0.41065887 0.61333489 0
42.574902 43.561199 434.31799 0.9916923 0.12718511 -0.019242708 0
42.583 39.5863 437.85999 0.64561671 0.43355423 0.6286571 0
42.600101 42.285099 435.81601 0.88251215 0.3075017 0.35582995 0
42.606499 36.7356 439.466 0.43372095 0.41507366 0.79974997 0
42.606899 43.262001 434.09299 0.98458034 0.1393418 -0.10576116 0
42.611599 43.3367 434.431 0.98924738 0.14405358 -0.025261674 0
42.618698 43.139702 434.77701 0.98161972 0.18727753 0.036741059 0
42.6208 42.663101 435.36899 0.94476241 0.24834327 0.21389149 0
42.627102 39.209702 438.05301 0.64808047 0.3670257 0.66729587 0
42.628399 37.486401 439.04099 0.48346794 0.42775819 0.7637288 0
42.6306 42.435001 435.59201 0.93747097 0.22687325 0.26396346 0
42.637699 40.486099 437.09201 0.83479047 0.36151707 0.41524729 0
42.649899 41.8368 436.043 0.9118309 0.25476298 0.32196316 0
42.690601 41.4245 436.26801 0.87851161 0.28612366 0.38255802 0
42.708302 39.812099 437.46799 0.81005383 0.34644011 0.47306669 0
42.715302 40.131199 437.207 0.83479047 0.36151707 0.41524729 0
42.7164 42.7356 434.397 0.98712558 0.15811558 -0.024135267 0
42.743698 38.495701 438.362 0.72946191 0.38692141 0.56407189 0
42.770802 39.287201 437.76901 0.84764338 0.33256701 0.41340047 0
42.774799 42.437302 434.88199 0.98413193 0.15127495 0.092737153 0
42.775101 37.918999 438.66 0.64470881 0.33179659 0.68866652 0
42.778702 41.085899 436.34201 0.8976801 0.24593668 0.36563042 0
42.827301 37.032799 439.121 0.68197381 0.41897836 0.59947383 0
42.832199 14.9928 445.492 0.088687904 -0.85635245 0.50871891 0
42.837299 38.275002 438.36899 0.77967072 0.34737515 0.52100295 0
42.841 36.1731 439.59299 0.47091872 0.42131439 0.77506757 0
42.8573 41.142502 436.01501 0.93924195 0.25221384 0.23283641 0
42.878899 41.537201 435.48099 0.9656803 0.23579933 0.10890495 0
42.902 40.3377 436.64401 0.90011865 0.28123674 0.33270448 0
42.9146 38.723499 437.91699 0.86193782 0.30576769 0.40443704 0
42.943298 41.161499 435.51801 0.98451495 0.16865478 0.047811162 0
42.9669 36.5844 439.189 0.81097555 0.31409386 0.49362302 0
42.976101 40.037399 436.681 0.9131248 0.2549437 0.31813017 0
42.982498 35.834499 439.63901 0.66124713 0.32525688 0.67598832 0
42.989799 40.635502 435.96701 0.96702743 0.19741844 0.16088475 0
43.042198 37.541302 438.478 0.82950282 0.28130832 0.48248389 0
43.0564 32.5355 441.302 0.53915131 0.33418384 0.77306992 0
43.057201 31.937 441.548 0.54036331 0.3274751 0.77509195 0
43.0625 39.210999 437.16699 0.90620679 0.28588569 0.31154227 0
43.094501 38.0863 437.99301 0.8782087 0.27785507 0.38928911 0
43.118099 37.187099 438.51901 0.86182052 0.26853344 0.43029669 0
43.1203 34.327099 440.375 0.56031042 0.48928985 0.66831702 0
43.131001 14.7969 445.07599 0.1092012 -0.8956455 0.43115452 0
43.132401 15.5129 446.099 -0.14168423 -0.4604362 0.87631279 0
43.132401 15.2127 445.79001 -0.046050418 -0.78000951 0.62407094 0
43.132401 15.5129 446.099 -0.14168423 -0.4604362 0.87631279 0
43.144501 38.659199 437.375 0.93353587 0.23468256 0.27098858 0
43.167599 39.435398 436.56699 0.98225439 0.17541303 0.066382162 0
43.202702 32.458099 441.22299 0.67058659 0.27378494 0.68946022 0
43.208099 33.437801 440.72299 0.6314671 0.43195242 0.64394599 0
43.219398 34.332901 440.23599 0.76538152 0.32452556 0.55576462 0
43.2262 39.060799 436.64301 0.98165339 0.17429423 0.077318117 0
43.229401 38.686798 437.01801 0.97701001 0.13047473 0.16860525 0
43.238098 38.1987 437.46799 0.94862205 0.21368216 0.2333585 0
43.244598 35.265598 439.60699 0.87010682 0.28617555 0.40127003 0
43.254101 34.8946 439.83499 0.78487056 0.35505939 0.5078494 0
43.260201 37.561199 437.91699 0.92944431 0.21621065 0.2989752 0
43.2672 36.887798 438.36899 0.91082835 0.27119714 0.3111974 0
43.2682 35.676899 439.28601 0.83856052 0.35090184 0.41675436 0
43.2766 33.8862 440.392 0.76754874 0.29805806 0.56747717 0
43.283798 31.860201 441.42899 0.63280898 0.36271164 0.68410021 0
43.3316 32.827499 440.97601 0.56691861 0.36669299 0.73765814 0
43.3368 36.5849 438.44101 0.94396478 0.22201012 0.24421713 0
43.345402 36.285999 438.66699 0.91983861 0.25283232 0.29995459 0
43.355499 29.535299 442.38501 0.46746272 0.32629523 0.82158995 0
43.375 14.5886 444.478 0.16142114 -0.9333517 0.32062107 0
43.375301 14.7254 444.82599 0.12870312 -0.91095531 0.39191312 0
43.420898 37.337299 437.39301 0.97672117 0.14791042 0.15536508 0
43.4263 36.998901 437.806 0.97128606 0.12693128 0.20122598 0
43.4319 27.7369 443.02802 0.4003869 0.2804513 0.87237459 0
43.432301 31.372801 441.53201 0.54361242 0.16755249 0.82244253 0
43.469799 35.591999 438.91101 0.92240232 0.23378158 0.3074412 0
43.470299 14.9545 445.30701 0.080364063 -0.8826642 0.46308267 0
43.4944 34.332001 439.78601 0.85927135 0.28803405 0.42271644 0
43.5247 33.342899 440.28 0.86460394 0.29439449 0.40717554 0
43.5494 32.087502 440.99399 0.75234491 0.24509938 0.61147642 0
43.564999 35.8368 437.99301 0.98380232 0.17586184 0.034721859 0
43.567699 35.233601 438.88901 0.95725292 0.18108261 0.22555706 0
43.579899 34.680401 439.19501 0.92689872 0.23114249 0.29568884 0
43.591499 35.461102 438.51801 0.9750908 0.19897583 0.09801276 0
43.6054 33.998001 439.67899 0.89996541 0.20341751 0.38559514 0
43.650799 29.609301 442.17599 0.61612391 0.33478561 0.71295857 0
43.657299 21.6607 444.935 0.15690087 0.39537889 0.90501803 0
43.6954 34.934898 438.59201 0.97976798 0.1656408 0.11232938 0
43.704601 32.8367 440.24301 0.91995156 0.27039456 0.28385898 0
43.708302 29.3862 442.189 0.61535788 0.34715635 0.70768434 0
43.731998 15.2332 445.789 0.019128006 -0.84258527 0.53822321 0
43.7323 15.5121 446.159 -0.044561781 -0.64652753 0.7615881 0
43.733101 33.586102 439.56699 0.94425303 0.22521313 0.24013586 0
43.738701 31.148701 441.255 0.74238759 0.41432437 0.52649409 0
43.765202 26.233801 443.39401 0.47570121 0.24981107 0.84338766 0
43.782001 33.8867 439.11801 0.94915712 0.25201827 0.18864657 0
43.804501 26.9091 443.117 0.594262 0.19932859 0.77917957 0
43.804501 23.6854 444.28299 0.53010851 0.18081304 0.8284272 0
43.804501 26.9091 443.117 0.594262 0.19932859 0.77917957 0
43.804501 23.6854 444.28299 0.53010851 0.18081304 0.8284272 0
43.805099 21.658899 444.896 0.46748251 0.19266507 0.8627516 0
43.819 30.472099 441.51401 0.77382213 0.27009538 0.57292914 0
43.819099 32.989101 439.79599 0.9689042 0.16736646 0.18224458 0
43.8298 31.488001 440.76999 0.89104456 0.27223513 0.36321843 0
43.834301 30.8501 441.25699 0.85007912 0.29195109 0.43832645 0
43.8372 27.1716 442.99899 0.58712333 0.23382871 0.77499056 0
43.849098 32.384602 440.23999 0.93573362 0.21568035 0.27907816 0
43.854 30.0231 441.66501 0.87461233 0.18187468 0.44941613 0
43.856602 33.285 439.41699 0.9749186 0.15144618 0.16308826 0
43.861 28.9363 442.155 0.66451854 0.22980404 0.71105921 0
43.862499 32.533199 440.08899 0.93573362 0.21568035 0.27907816 0
43.864101 31.1868 440.93701 0.85788679 0.32011801 0.40193874 0
43.873501 25.3321 443.686 0.57903272 0.34980261 0.73645043 0
43.875198 24.2071 444.10901 0.51785165 0.29529804 0.80288774 0
43.879002 29.686399 441.742 0.87715018 0.17383774 0.44764724 0
43.881401 19.3351 445.49701 0.38260993 0.30562064 0.87189776 0
43.916 27.581699 442.78 0.49783686 0.34302485 0.79655033 0
43.916302 24.6593 443.90799 0.49759728 0.30192032 0.81316727 0
43.9324 31.786699 440.31799 0.95310265 0.14706497 0.26451319 0
43.944698 26.0126 443.32001 0.61743569 0.38991553 0.68318301 0
43.956902 17.461 445.96201 0.23175183 0.21578136 0.94854075 0
43.967201 28.335199 442.34 0.71147615 0.29397941 0.6382615 0
43.976101 27.851601 442.573 0.68899834 0.31779227 0.65137494 0
43.990501 32.234798 439.79199 0.97574323 0.19191012 0.10533609 0
44.012299 19.861099 445.32599 0.38065943 0.22608222 0.89665222 0
44.0308 18.6605 445.64801 0.33146182 0.22309868 0.91671157 0
44.0662 28.408899 442.11401 0.87286174 0.26020631 0.41280144 0
44.0863 25.786501 443.242 0.81943482 0.22570093 0.52686399 0
44.094799 29.3857 441.44 0.870107 0.25880659 0.41944367 0
44.103001 20.309401 445.198 0.37951815 0.18377219 0.90674901 0
44.103199 24.0609 443.98999 0.71294081 0.21302794 0.66808271 0
44.105801 16.935499 446.02701 0.38009262 0.14200136 0.91398317 0
44.123299 29.6875 441.21899 0.870107 0.25880659 0.41944367 0
44.133099 30.341999 440.879 0.93868828 0.12627716 0.32080904 0
44.152302 23.9111 443.991 0.73409861 0.23705341 0.63632143 0
44.1581 30.888901 440.396 0.95176083 0.29847842 0.071147218 0
44.163101 26.725 442.72 0.8388086 0.26776186 0.47402927 0
44.182201 15.5123 446.19299 0.12940322 -0.67611599 0.72534269 0
44.2061 27.886101 442.116 0.89793658 0.19339351 0.3953591 0
44.215199 21.8834 444.58401 0.63420242 0.22740917 0.73896712 0
44.252701 17.759899 445.798 0.31965971 0.13689646 0.93759108 0
44.268398 28.562599 441.51901 0.9120819 0.23950483 0.3327823 0
44.2757 14.6648 444.405 0.077462845 -0.9646374 0.25194085 0
44.288502 26.157 442.746 0.8601051 0.18706003 0.47458172 0
44.289902 23.384899 443.987 0.61525905 0.10988853 0.7806285 0
44.294701 27.2873 442.11899 0.91311246 0.20341744 0.35333699 0
44.300301 29.4611 440.992 0.87508541 0.14588335 0.46145806 0
44.330299 15.247 445.78299 0.16844735 -0.83177477 0.52893871 0
44.332298 14.8843 444.96799 0.1565326 -0.90181524 0.40277398 0
44.334499 26.986601 442.19299 0.89586061 0.21313421 0.38988143 0
44.335201 25.0368 443.168 0.82727456 0.231538 0.51186615 0
44.353802 24.5397 443.35501 0.81725043 0.22232448 0.53167051 0
44.375099 29.3102 440.991 0.87508541 0.14588335 0.46145806 0
44.3992 28.7864 440.99301 0.9630177 0.06002314 0.26266742 0
44.400501 17.5347 445.74899 0.46174008 0.16503364 0.87152737 0
44.400799 15.8132 446.28101 0.42478234 0.14163907 0.89414674 0
44.4034 15.5187 446.125 0.41768786 -0.61484784 0.66895366 0
44.4137 27.961 441.51599 0.95222801 0.16174459 0.25903773 0
44.414501 26.686199 442.19199 0.89586061 0.21313421 0.38988143 0
44.415501 28.560801 440.99301 0.97586375 0.2175875 0.018591726 0
44.416698 20.9133 444.746 0.55148882 0.31928214 0.77066141 0
44.426399 28.2605 441.29199 0.96489978 0.15705469 0.21048102 0
44.428398 23.987101 443.46899 0.87302226 0.16276436 0.45971724 0
44.431999 17.0112 445.83401 0.46891573 0.17960952 0.86478812 0
44.443298 22.4128 444.07101 0.74491388 0.21285886 0.63229299 0
44.452599 23.085699 443.84 0.80287224 0.2122937 0.55707049 0
44.453999 26.3869 442.26801 0.89575309 0.21022309 0.39170486 0
44.4673 21.9608 444.215 0.75594652 0.26539308 0.59842408 0
44.469799 25.6373 442.569 0.89468485 0.17809518 0.40965974 0
44.4851 18.886801 445.28101 0.65063649 0.21583769 0.7280702 0
44.4958 22.7304 443.88 0.8719666 0.18196727 0.45449111 0
44.498001 25.186001 442.754 0.95062846 0.13058239 0.28152049 0
44.502201 20.087 444.89401 0.74730617 0.20303239 0.63270164 0
44.505901 19.3627 445.103 0.66639882 0.29734713 0.68373775 0
44.511299 21.2861 444.44101 0.88112122 0.21032165 0.42354479 0
44.523701 24.8298 442.90399 0.93955386 0.17351666 0.29517874 0
44.5476 18.2125 445.42001 0.73404181 0.16919515 0.65768957 0
44.550201 16.7854 445.78799 0.48536089 0.21704043 0.84694642 0
44.553501 17.2157 445.694 0.51824135 0.14961492 0.8420459 0
44.5578 24.0611 443.16599 0.94556862 0.19090828 0.26354122 0
44.5672 20.873899 444.479 0.91273761 0.13799445 0.38453552 0
44.580601 16.3349 445.953 0.52780199 0.24465214 0.81336981 0
44.617298 23.6122 443.16901 0.95755792 0.17527381 0.22882719 0
44.622002 22.1497 443.88199 0.92493886 0.096431457 0.36768073 0
44.632401 14.9012 444.96899 0.24953857 -0.8371706 0.48669896 0
44.6381 18.587299 445.12 0.88663465 0.1553095 0.43561214 0
44.649399 23.218201 443.31799 0.9185949 0.20995834 0.33481482 0
44.664001 19.018299 444.96899 0.88157523 0.11165126 0.45864919 0
44.684799 23.6875 442.198 0.99704295 -0.0035855595 -0.076762661 0
44.6936 24.099501 442.56799 0.98927212 0.099721454 0.10675369 0
44.711201 23.7617 442.569 0.99926621 -0.015691914 0.034939744 0
44.722301 23.3878 442.79401 0.9993183 -0.0026561569 0.03682198 0
44.7607 19.8155 444.5 0.91212749 0.18263432 0.36697149 0
44.7859 22.6371 442.64401 0.99077451 0.060762819 -0.12113508 0
44.787399 22.486 443.39099 0.96633959 0.13705797 0.217722 0
44.796001 19.4841 444.58701 0.90951639 0.1606164 0.38338265 0
44.807098 15.5179 445.784 0.6146695 -0.4000549 0.67980695 0
44.812599 21.886999 442.79401 0.99803483 0.054978341 -0.030063614 0
44.821899 15.9599 445.785 0.84579891 0.16213512 0.50826806 0
44.826599 21.0762 443.759 0.93068135 0.14599052 0.33543846 0
44.827 22.037001 443.16901 0.99072528 0.070511378 0.11615311 0
44.843399 17.9098 444.96399 0.90306121 0.13102306 0.40903962 0
44.8452 20.4618 443.918 0.97453755 0.083634682 0.20804265 0
44.875401 21.435699 443.392 0.99560094 0.091253608 0.021248534 0
44.903301 20.1434 443.80701 0.97789258 0.064331196 0.19896631 0
44.9053 18.624201 444.517 0.9390465 0.15446158 0.30713719 0
44.908798 19.7875 443.957 0.97264338 0.11737487 0.20046945 0
44.913101 15.058 445.116 0.53244239 -0.67447716 0.51145446 0
44.945999 20.836 443.392 0.99778873 0.060107078 0.028368818 0
44.959599 18.343599 444.48199 0.9430654 0.14729445 0.29821461 0
44.985401 17.011 445.11499 0.8740629 0.28266153 0.39511585 0
45.003799 19.2241 443.918 0.97679335 0.15936565 0.14309892 0
45.009701 18.886499 444.06799 0.9591077 0.11966702 0.25650007 0
45.038898 18.2864 444.29199 0.956523 0.13822925 0.25681987 0
45.039299 15.6628 445.48999 0.86191887 0.11286829 0.49432439 0
45.046799 15.513 445.491 0.86191887 0.11286829 0.49432439 0
45.064999 16.561701 445.11801 0.8612569 0.16392209 0.48100528 0
45.081799 18.736401 443.84399 0.99364781 0.094560109 0.061011501 0
45.106098 15.8867 445.19199 0.91603106 0.31232938 0.25166926 0
