# .PCD v0.7 - Point Cloud Data file format
VERSION 0.7
FIELDS x y z normal_x normal_y normal_z curvature
SIZE 4 4 4 4 4 4 4
TYPE F F F F F F F
COUNT 1 1 1 1 1 1 1
WIDTH 1409
HEIGHT 1
VIEWPOINT 0 0 0 1 0 0 0
POINTS 1409
DATA ascii
-61.2411 29.182501 390.401 -0.99908602 -0.0010224854 -0.042732865 0
-61.2379 28.376499 390.552 -0.99058062 -0.0065951417 0.13677192 0
-61.232399 27.101101 391.15201 -0.99769485 0.0031132211 0.067788638 0
-61.230499 26.951799 391.375 -0.98017108 -0.13524961 0.14481759 0
-61.221802 26.8016 391.189 -0.98017108 -0.13524961 0.14481759 0
-61.216999 27.326401 391.37701 -0.95650333 0.040498693 0.28889665 0
-61.211399 28.9573 390.664 -0.96493822 0.079740822 0.25007123 0
-61.2057 27.701099 390.85199 -0.99907005 -0.0079626674 0.042375546 0
-61.203098 27.7015 390.552 -0.99621314 0.0046537234 -0.086819954 0
-61.201401 28.263599 390.85101 -0.99199396 0.0098231807 0.12590261 0
-61.200901 29.801001 390.47601 -0.97344673 0.085650444 0.21228631 0
-61.196301 29.4641 389.91599 -0.96359557 0.014505447 -0.26697034 0
-61.192101 27.2138 390.702 -0.98919886 -0.075750522 -0.1254887 0
-61.185902 27.4762 390.552 -0.99531078 -0.017410964 -0.095149137 0
-61.185398 30.063601 389.952 -0.99669766 0.077436596 -0.024440486 0
-61.184399 29.0513 389.87799 -0.97572029 0.052718144 -0.21258116 0
-61.180698 26.614201 390.853 -0.98151022 -0.10020518 -0.16308473 0
-61.179001 28.7519 389.88199 -0.97975022 -0.098036408 -0.17458044 0
-61.168098 28.1882 391.07599 -0.92945486 0.030669231 0.36765888 0
-61.163898 31.001499 389.35199 -0.96189326 -0.078066908 -0.26204365 0
-61.158001 26.070499 391.15201 -0.99738449 -0.066475511 -0.02837681 0
-61.150799 25.301201 391.75101 -0.99340594 0.015692052 0.11357131 0
-61.148899 32.051201 389.27701 -0.99844307 0.033460304 -0.044630755 0
-61.148102 24.5327 391.771 -0.99906844 -0.042239748 0.0088347746 0
-61.145302 27.673401 390.23401 -0.98756474 0.036328599 -0.1529578 0
-61.143002 31.601299 389.27701 -0.99402493 0.0065795761 -0.10895479 0
-61.1418 25.751699 391.15302 -0.97915769 0.014430561 -0.20258814 0
-61.138901 23.126301 392.35199 -0.99281216 -0.11355366 -0.03781027 0
-61.132801 30.8888 389.952 -0.97103316 0.16342214 0.17432086 0
-61.129799 28.6007 391.07501 -0.96953791 0.095621325 0.22550561 0
-61.129601 23.8762 392.276 -0.96589786 0.033328403 0.25676939 0
-61.118599 24.8514 391.34 -0.99059534 -0.062218841 -0.12185929 0
-61.113899 31.750299 389.87399 -0.94054258 0.073702268 0.33158344 0
-61.104401 26.950899 391.673 -0.88501966 -0.036776386 0.46409875 0
-61.099098 25.1518 391.15399 -0.9615249 -0.02452283 -0.27362105 0
-61.091599 26.6521 390.479 -0.86137682 -0.12266862 -0.49293244 0
-61.0881 30.252199 389.39099 -0.91720027 -0.074472301 -0.3914046 0
-61.084999 22.2264 392.35199 -0.98791844 0.00092469889 -0.15497212 0
-61.078602 26.3139 391.75201 -0.94434649 -0.088866144 0.31672156 0
-61.0732 30.5497 390.474 -0.91517413 0.068330199 0.39722449 0
-61.072399 32.8386 389.35199 -0.97946239 0.14290245 0.14224055 0
-61.066101 23.426399 391.75201 -0.9792943 -0.018277399 -0.2016151 0
-61.064301 32.201302 388.68201 -0.84977227 -0.12198535 -0.51284176 0
-61.057301 33.100498 389.276 -0.97120243 0.1780441 0.158323 0
-61.0541 33.251598 388.604 -0.95891118 -0.12400825 -0.25516909 0
-61.043598 32.801899 388.67899 -0.9658379 0.016489707 -0.25862178 0
-61.037102 23.202 391.67899 -0.87501538 -0.19089878 -0.444866 0
-61.030201 33.7756 388.75201 -0.98738045 0.15662584 -0.023413748 0
-61.0252 22.0019 392.87601 -0.98304683 -0.10173333 0.15254252 0
-61.023701 24.5515 391.077 -0.87591994 -0.15544541 -0.45672852 0
-61.019901 32.349602 389.87399 -0.93903869 0.17929666 0.29335815 0
-61.013199 21.7015 392.35199 -0.98150527 -0.084213875 -0.17191702 0
-60.9963 21.4018 392.353 -0.94003147 -0.12498356 -0.31736404 0
-60.981201 21.2887 392.70801 -0.99508643 -0.091753341 -0.037206504 0
-60.971901 22.7537 391.68399 -0.88303733 -0.2828207 -0.37450978 0
-60.963799 31.6001 388.76999 -0.8493191 -0.16228053 -0.50231671 0
-60.929798 34.676201 388.75201 -0.98524052 0.086809501 0.14753057 0
-60.9202 35.200199 388.67499 -0.94750214 0.1835565 0.26181433 0
-60.918499 20.4832 392.84 -0.9976325 -0.046162497 -0.050974816 0
-60.9104 34.601299 388.077 -0.95650882 -0.069040231 -0.28341544 0
-60.905201 35.350899 388.19 -0.98934907 -0.0019340189 -0.14554946 0
-60.900902 34.151501 388.07999 -0.88103014 -0.086252369 -0.46513054 0
-60.898701 20.950899 393.474 -0.96450037 -0.011189618 0.26384434 0
-60.882401 33.553398 388.09 -0.85656381 -0.13022386 -0.49933982 0
-60.878799 20.052601 393.43701 -0.945692 0.13986437 0.29343581 0
-60.8783 20.801901 392.27802 -0.93910319 -0.15167454 -0.30835056 0
-60.874599 19.976801 392.952 -0.99397004 -0.086396441 -0.067521997 0
-60.874298 35.651299 388.189 -0.98046386 0.17328413 0.0930764 0
-60.871601 35.499901 388.67499 -0.93743521 0.24471086 0.24765252 0
-60.849899 34.1875 389.35001 -0.94570357 0.14149781 0.29261434 0
-60.835499 36.063702 388.15201 -0.9823578 0.18688534 0.0068572434 0
-60.826599 19.6759 393.55301 -0.9713757 0.010203003 0.23732916 0
-60.82 25.5273 390.50699 -0.83422846 -0.12872586 -0.5361833 0
-60.817699 21.8514 391.763 -0.846668 -0.13021375 -0.51594347 0
-60.812901 19.2645 392.97198 -0.98322052 -0.17277688 -0.058527898 0
-60.801998 19.1514 393.552 -0.98547292 -0.025012087 0.16798088 0
-60.780399 36.551399 387.55301 -0.96719462 0.03987876 -0.25088701 0
-60.779301 20.2036 392.284 -0.90444142 -0.18332572 -0.38519794 0
-60.773899 35.951302 387.478 -0.96203154 -0.087118372 -0.25866136 0
-60.772099 37.038898 387.40302 -0.97855562 0.0024742479 -0.2059678 0
-60.7654 19.0047 392.88199 -0.94251096 -0.177159 -0.28335106 0
-60.7626 37.076099 388.00101 -0.98582429 0.080967896 0.14695118 0
-60.760101 18.5513 393.552 -0.99738383 -0.072240643 0.0025992868 0
-60.7356 37.674702 387.552 -0.99375939 0.088296495 0.068161935 0
-60.726398 34.750198 389.27499 -0.88691384 0.23621698 0.39697021 0
-60.713699 36.2127 388.63699 -0.93224186 0.19732179 0.30329725 0
-60.709202 18.551399 394.077 -0.98499 0.007710936 0.17243902 0
-60.706299 37.601398 386.88 -0.98009688 -0.024446869 -0.19700874 0
-60.6982 17.9527 393.55301 -0.97334105 -0.15672986 -0.16746032 0
-60.675201 17.801701 394.07599 -0.97403526 -0.025727814 0.22492963 0
-60.671101 37.9193 387.702 -0.9641003 0.15517129 0.21548207 0
-60.663502 38.2006 387.47699 -0.98776942 0.14833188 0.048054613 0
-60.659599 38.276199 386.952 -0.99449122 0.072964981 -0.075255252 0
-60.637798 18.7024 394.23001 -0.98499 0.007710936 0.17243902 0
-60.634201 18.551001 392.87601 -0.92300099 -0.1908211 -0.33415034 0
-60.624298 17.1642 394.15201 -0.99169862 -0.066066258 0.11031334 0
-60.622601 19.675501 392.27499 -0.90901417 -0.18436775 -0.37376705 0
-60.619099 38.669701 386.92401 -0.99324286 0.078241572 -0.085713893 0
-60.618301 38.5009 387.47699 -0.98958832 0.13585749 0.047515452 0
-60.601799 38.426399 387.62701 -0.90935689 0.19040528 0.36988628 0
-60.5867 16.751699 394.189 -0.9982897 0.027866837 0.051391672 0
-60.5798 38.951801 386.57599 -0.98380339 0.082350165 -0.15921468 0
-60.575001 16.995501 393.57199 -0.96074831 -0.14873028 -0.23418376 0
-60.571499 18.626101 392.72699 -0.83806711 -0.17809494 -0.5156799 0
-60.570202 38.798599 387.474 -0.89784831 0.37096813 0.23717305 0
-60.568401 18.1586 392.935 -0.95785499 -0.15715708 -0.24044858 0
-60.5644 17.427401 393.32901 -0.90060484 -0.14916213 -0.40824208 0
-60.541199 16.7526 393.48001 -0.95416588 -0.13193835 -0.26862574 0
-60.521702 36.700901 386.86099 -0.93667448 -0.087160818 -0.3391813 0
-60.516701 16.750799 394.67099 -0.93762797 -0.018719541 0.3471359 0
-60.4972 39.5144 386.97101 -0.98833179 0.13108096 0.077576242 0
-60.479 39.401798 386.28299 -0.94036537 0.12511007 -0.31632337 0
-60.469299 15.9639 394.60199 -0.96921587 -0.098275982 0.22574863 0
-60.454899 39.924702 386.353 -0.96272182 0.22480986 -0.15042353 0
-60.453201 15.7035 394.07901 -0.97820801 -0.15339217 -0.13992821 0
-60.421902 39.950001 386.811 -0.99031579 0.11662944 0.075313948 0
-60.418701 15.3639 394.54501 -0.97936243 -0.036878087 0.19871897 0
-60.414001 15.4017 394.15201 -0.97807723 -0.14451939 -0.14993009 0
-60.3606 14.8953 394.76999 -0.97079265 -0.020424532 0.23904909 0
-60.338699 40.300598 386.95099 -0.943519 0.22247356 0.24551453 0
-60.299099 41.201199 385.67801 -0.96388316 -0.039187755 -0.2634266 0
-60.294701 40.7509 386.35199 -0.99360466 0.10741635 0.034806427 0
-60.289501 14.3324 394.63 -0.99373043 -0.10559185 -0.036745332 0
-60.253601 41.181801 386.35199 -0.97119677 0.16285118 0.1739433 0
-60.237202 40.452499 385.681 -0.94033647 0.03530927 -0.33840892 0
-60.222198 14.9511 395.27399 -0.86724252 -0.088326581 0.48998863 0
-60.220901 14.5956 393.965 -0.89328068 -0.1999694 -0.40256903 0
-60.219299 14.2014 395.27499 -0.96285051 -0.024055026 0.26896146 0
-60.205101 13.5923 394.677 -0.96945339 -0.20511898 -0.13448541 0
-60.1964 41.9874 385.73401 -0.97419709 0.19643451 -0.11114626 0
-60.169899 41.798401 386.27399 -0.95717824 0.18848525 0.21973413 0
-60.152302 13.0782 394.75299 -0.96246004 -0.20279372 -0.18040334 0
-60.111301 13.3388 395.38901 -0.92149085 -0.059218843 0.38385907 0
-60.111198 42.400398 385.75201 -0.98279047 0.18468547 0.0037698119 0
-60.071701 12.9451 395.38901 -0.94268429 -0.11450313 0.31342524 0
-60.065601 41.352001 385.19299 -0.90819186 -0.033476826 -0.4172132 0
-60.051399 12.3843 395.20099 -0.99628031 -0.08587943 -0.0070875133 0
-60.0411 42.288101 386.35101 -0.97028148 0.14715302 0.19209339 0
-60.035 13.4885 394.189 -0.90784621 -0.19406904 -0.37168872 0
-60.029499 12.4764 394.75201 -0.93946385 -0.21502465 -0.26678082 0
-60.015301 12.8516 395.57599 -0.94268429 -0.11450313 0.31342524 0
-60.004299 43.000198 385.75201 -0.95794427 0.22998624 0.17160729 0
-60.000999 42.8507 386.12601 -0.89850813 0.24420111 0.36475879 0
-59.979698 12.1022 395.38901 -0.98940033 -0.087841913 0.11563225 0
-59.978298 42.644798 385.19 -0.92060077 0.16110002 -0.35572606 0
-59.9753 42.401001 385.07999 -0.91907775 0.08985389 -0.3836956 0
-59.959999 43.150398 385.52701 -0.99070096 0.12345684 -0.057184026 0
-59.955799 12.2553 394.68301 -0.91409987 -0.18477142 -0.36094451 0
-59.919201 43.373299 385.75101 -0.8741979 0.41499075 0.25211242 0
-59.9021 12.9639 395.83801 -0.92060047 -0.040540066 0.38839576 0
-59.876301 11.575 395.35199 -0.99049616 -0.13744743 0.0050617731 0
-59.851398 43.681801 385.15601 -0.95936078 0.28154323 -0.018980559 0
-59.837002 43.3395 384.59799 -0.84099656 0.17897676 -0.51058018 0
-59.8368 11.9512 395.87701 -0.87439114 -0.14429484 0.46327007 0
-59.836498 11.3519 395.35199 -0.96732253 -0.20279096 -0.15219389 0
-59.803501 43.902802 385.15399 -0.98079818 0.18859954 0.049650583 0
-59.776798 44.3512 384.55301 -0.987643 0.14725012 -0.053653635 0
-59.761799 11.1271 395.95001 -0.96634537 -0.10286741 0.2357858 0
-59.736801 10.6767 395.353 -0.97333455 -0.16960938 -0.15444246 0
-59.736301 44.576599 384.552 -0.97326356 0.22556958 -0.043317322 0
-59.693901 10.6014 395.97101 -0.96332252 -0.10943031 0.24501993 0
-59.6894 44.800301 385.189 -0.96735215 0.21391135 0.13591067 0
-59.6208 45.215 384.57199 -0.98958951 0.14390013 -0.0023039936 0
-59.608601 45.023998 385.14999 -0.96735215 0.21391135 0.13591067 0
-59.608601 45.475101 383.88699 -0.9619993 0.0037178812 -0.27302653 0
-59.608601 45.023998 385.14999 -0.96735215 0.21391135 0.13591067 0
-59.608601 45.475101 383.88699 -0.9619993 0.0037178812 -0.27302653 0
-59.607101 9.8516598 395.98901 -0.99152052 -0.11505426 0.060411762 0
-59.596401 10.0018 395.353 -0.94603986 -0.24041124 -0.21728109 0
-59.5686 44.951801 383.92801 -0.94104409 -0.24569827 -0.232526 0
-59.565601 45.6241 383.95499 -0.98887956 0.047126882 -0.14105421 0
-59.5592 9.5525599 395.952 -0.95127279 -0.30788228 -0.016987927 0
-59.498798 45.8498 384.58899 -0.96884537 0.21426636 0.12421174 0
-59.4827 10.1518 396.46799 -0.93457651 -0.032178614 0.35430393 0
-59.4589 9.4774303 395.354 -0.93356609 -0.24180473 -0.26454645 0
-59.451 10.8638 396.50601 -0.87784094 0.026079383 0.47824174 0
-59.449799 9.5523396 396.47198 -0.96214026 -0.094506346 0.25564554 0
-59.4002 46.3745 384.25299 -0.97614014 0.21693967 0.009357743 0
-59.398499 46.1539 383.802 -0.94363314 0.23130344 -0.23675981 0
-59.382198 9.0262299 396.47699 -0.93111032 -0.18895817 0.31197494 0
-59.3764 8.7641497 395.952 -0.97202843 -0.20712505 -0.11072481 0
-59.355999 8.8015604 396.47601 -0.95813096 -0.10990484 0.26439741 0
-59.3279 46.733002 383.87701 -0.98651373 0.13854982 -0.087146938 0
-59.311901 46.600201 384.58899 -0.92020863 0.26642555 0.28676388 0
-59.280998 8.3142204 395.952 -0.9684146 -0.14864029 -0.20019791 0
-59.2733 47.1619 383.95099 -0.96692145 0.23816107 0.091335677 0
-59.2719 8.2027302 396.55099 -0.95113403 -0.18825229 0.24475519 0
-59.263199 46.7523 383.28201 -0.93564713 0.10482719 -0.33700991 0
-59.2323 47.348598 383.354 -0.96518421 0.19242087 -0.17718267 0
-59.2271 47.424801 383.95099 -0.89239568 0.43259215 0.12842873 0
-59.152 47.577499 383.35199 -0.96945006 0.16119711 -0.18488389 0
-59.1455 7.6022401 395.87799 -0.89521658 -0.22209103 -0.38634548 0
-59.144798 7.3024302 396.47601 -0.98665679 -0.094780326 0.13238227 0
-59.1012 47.279999 384.57401 -0.90926892 0.16409132 0.38249722 0
-59.053101 8.3512802 397.06799 -0.87133026 0.0085124327 0.49062324 0
-59.043499 6.7750401 396.552 -0.98191673 -0.16034201 0.10064768 0
-59.042301 7.0025101 395.991 -0.92296875 -0.28670689 -0.25676414 0
-59.034199 48.103001 383.35199 -0.97348547 0.22863761 -0.0071358569 0
-59.026699 48.175301 383.952 -0.91666508 0.28449151 0.28069499 0
-59.023602 7.75177 397.07401 -0.88468379 -0.044861615 0.46402809 0
-58.962502 48.399899 382.68201 -0.95865893 0.064962067 -0.27704322 0
-58.927601 48.625999 383.202 -0.98006469 0.192166 0.050452724 0
-58.919701 6.13943 396.543 -0.98519135 -0.17135561 0.0059381202 0
-58.917099 6.8517599 397.14899 -0.91228896 -0.060451861 0.40506101 0
-58.842201 6.3649302 395.935 -0.8981114 -0.26555145 -0.35054001 0
-58.8367 49.150101 382.75299 -0.98340321 0.16744132 -0.069867678 0
-58.832001 5.6532698 396.51599 -0.96969569 -0.18308103 -0.16177657 0
-58.824299 48.7743 383.875 -0.89135164 0.37671137 0.25215226 0
-58.8223 5.6890402 397.15201 -0.90837681 -0.31272987 0.27758172 0
-58.820702 5.9518199 397.22501 -0.94729966 -0.14027089 0.28800598 0
-58.809502 49.225201 383.35199 -0.95453548 0.21037148 0.21120098 0
-58.751801 5.3526101 396.55301 -0.96644318 -0.24777383 -0.067791522 0
-58.741199 49.596298 383.27499 -0.95025748 0.25628808 0.17699486 0
-58.7108 49.714001 382.79001 -0.95436746 0.29182073 -0.063430078 0
-58.6959 5.5201101 396.25201 -0.86673695 -0.27362096 -0.41701159 0
-58.648998 4.90171 397.15201 -0.97488856 -0.19667223 0.10446185 0
-58.571999 4.6004801 397.15201 -0.98705739 -0.13622215 0.084624358 0
-58.547798 4.7143102 396.55301 -0.91778666 -0.32106557 -0.23363325 0
-58.5224 50.200802 382.077 -0.93919373 0.14566241 -0.31096244 0
-58.513599 5.05193 397.66901 -0.90669781 -0.10236339 0.40917096 0
-58.513401 50.3489 382.789 -0.92877471 0.36508748 0.063942663 0
-58.5028 50.195301 383.272 -0.8943727 0.37561047 0.24292853 0
-58.488098 4.7526898 397.66901 -0.92198855 -0.19063388 0.3370398 0
-58.466999 4.1533699 397.15201 -0.96080428 -0.2764594 0.020623585 0
-58.407299 50.688801 382.733 -0.94704229 0.28533089 0.14729951 0
-58.374401 50.800201 382.11499 -0.98110533 0.16501769 -0.10100259 0
-58.350601 4.15171 397.69501 -0.93643421 -0.14680634 0.31865156 0
-58.3377 4.0037498 396.55499 -0.93111706 -0.20718181 -0.30016109 0
-58.3102 3.5900199 397.15201 -0.96334606 -0.25925198 -0.068940215 0
-58.301701 51.098701 382.67499 -0.97359443 0.22452648 0.041251998 0
-58.299301 51.101299 381.59201 -0.98493606 0.04498389 -0.16696532 0
-58.2822 51.213902 382.15201 -0.98049194 0.19439335 0.029100217 0
-58.272598 50.463902 381.59799 -0.91612816 -0.031308919 -0.39966097 0
-58.259998 3.5522001 397.67599 -0.92544252 -0.21499366 0.31198382 0
-58.2407 3.85113 397.828 -0.87823999 -0.22951423 0.41954464 0
-58.2146 51.624901 382.37601 -0.91650587 0.33183545 0.22338806 0
-58.199699 51.3242 382.75 -0.86671811 0.3652145 0.33973241 0
-58.173801 3.1015401 396.965 -0.91868305 -0.31318486 -0.24070048 0
-58.1735 3.10238 397.67599 -0.94671631 -0.18394616 0.26437113 0
-58.1278 51.999199 382.189 -0.88989395 0.30572635 0.33855605 0
-58.1045 51.853199 381.401 -0.95039594 0.22920205 -0.21027111 0
-58.041901 2.5397799 397.14401 -0.91807872 -0.32706976 -0.2239573 0
-58.035702 2.50365 397.67599 -0.94804949 -0.19913967 0.24808387 0
-57.9673 2.27754 397.75101 -0.95038402 -0.17039396 0.26026171 0
-57.916901 52.301102 380.95401 -0.87019557 0.062085889 -0.4887791 0
-57.901299 52.5956 382.07401 -0.84664941 0.43808153 0.30210823 0
-57.876598 52.749699 381.25201 -0.97881454 0.20096746 -0.039169081 0
-57.837601 52.8997 381.552 -0.85594362 0.51337856 0.061668616 0
-57.8172 52.826401 380.87701 -0.9262538 0.2816183 -0.25048965 0
-57.817001 1.82895 397.15399 -0.93560535 -0.22876729 -0.26890177 0
-57.7897 1.60151 397.75201 -0.9860208 -0.15830579 0.051983207 0
-57.784801 2.3525901 398.271 -0.89920336 -0.11244183 0.4228358 0
-57.685501 52.898102 382.14899 -0.82610691 0.43535495 0.35778961 0
-57.681599 1.75201 398.27499 -0.94795048 -0.13413705 0.28878567 0
-57.665199 1.37766 397.15399 -0.93262875 -0.30532441 -0.19230337 0
-57.6623 53.5387 380.896 -0.97803575 0.12071639 -0.16992256 0
-57.653801 1.00365 397.75201 -0.9663533 -0.23469132 0.10526764 0
-57.629002 53.7244 381.47601 -0.93909019 0.34365627 -0.0031596709 0
-57.625 1.07636 398.12701 -0.96408308 -0.19607103 0.17916457 0
-57.5942 53.803902 380.91299 -0.93954653 0.32653099 -0.10310102 0
-57.585899 0.70373899 397.75299 -0.95612466 -0.27615619 -0.097792387 0
-57.569698 53.051102 380.42599 -0.91385233 0.11367761 -0.38980937 0
-57.5676 1.22672 398.35199 -0.96368003 -0.16316052 0.21142244 0
-57.538101 1.1536 397.07999 -0.90448719 -0.34031585 -0.25707588 0
-57.531601 53.947498 381.474 -0.93909019 0.34365627 -0.0031596709 0
-57.518902 0.47634101 397.677 -0.90544128 -0.41844732 -0.071259551 0
-57.518299 0.70480299 398.272 -0.96192837 -0.20248771 0.18355542 0
-57.5103 53.3134 380.35699 -0.95496148 0.094290242 -0.2813502 0
-57.449699 53.802601 380.35001 -0.90603632 0.21205224 -0.36624047 0
-57.443501 54.215099 380.98901 -0.88840353 0.4582698 -0.026981233 0
-57.397301 0.364079 398.35199 -0.92339015 -0.26778722 0.2750285 0
-57.2911 -0.04879 398.314 -0.88115549 -0.37248805 0.29123473 0
-57.267101 54.4011 380.35199 -0.92170173 0.2051336 -0.32922041 0
-57.190601 -0.49533099 397.67999 -0.94785136 -0.12721023 -0.29222491 0
-57.163799 55.144901 380.875 -0.94260806 0.33353972 0.015533991 0
-57.129501 -0.83479702 398.35101 -0.9893133 -0.1033 0.10289953 0
-57.104401 55.150101 380.353 -0.96439147 0.2628971 0.028881788 0
-57.080002 -0.873043 397.75299 -0.94355279 -0.30603072 -0.12670177 0
-57.065201 55.228901 381.02899 -0.92806625 0.17377408 0.32938671 0
-57.042999 55.450699 380.35199 -0.9523561 0.30298966 0.034859356 0
-57.036201 -0.57351702 398.87701 -0.94062334 -0.096560277 0.32542866 0
-57.028599 -1.24743 398.38901 -0.93354255 -0.25527087 0.25166458 0
-57.025398 0.13906901 398.927 -0.88171893 -0.077584617 0.46535188 0
-57.013802 55.450901 380.87701 -0.8565622 0.49938783 0.13004982 0
-57.008598 -0.72160298 398.871 -0.94062334 -0.096560277 0.32542866 0
-56.995399 55.713799 380.20099 -0.98419613 0.17191392 -0.042468026 0
-56.9575 -0.94920301 398.87799 -0.94180125 -0.2056417 0.2659359 0
-56.950298 55.001301 379.677 -0.92649209 0.12888043 -0.35355648 0
-56.934101 55.673302 380.87399 -0.8565622 0.49938783 0.13004982 0
-56.927601 55.4324 379.715 -0.93018246 0.10888648 -0.35057712 0
-56.889702 -1.24826 398.87601 -0.84194869 -0.25097543 0.47763342 0
-56.888302 56.2686 380.276 -0.90137279 0.33065054 0.27963787 0
-56.878502 -1.69493 398.35199 -0.94551158 -0.31858575 0.067163989 0
-56.847698 -1.54471 397.71899 -0.81698114 -0.46325147 -0.34342375 0
-56.807301 56.269001 379.68301 -0.93846714 0.28433561 -0.19604249 0
-56.701199 -1.80988 398.95001 -0.84816831 -0.35248888 0.39542648 0
-56.698101 -2.1094699 398.35199 -0.93199933 -0.36029601 -0.03954852 0
-56.634602 56.875599 379.75201 -0.95424646 0.2970759 0.034052979 0
-56.6091 56.913502 379.15302 -0.98446602 0.020611402 -0.17436124 0
-56.606899 56.795898 380.27301 -0.78673416 0.51102996 0.34626248 0
-56.5732 56.210899 379.134 -0.87975663 0.021052865 -0.47495794 0
-56.5527 57.0993 379.71399 -0.93980289 0.33768845 0.052316457 0
-56.551498 57.0219 380.125 -0.76881421 0.5522899 0.32233617 0
-56.528801 57.320999 379.15201 -0.93193251 0.35828334 0.055989362 0
-56.5056 -2.5980599 398.35199 -0.88616931 -0.43336296 -0.1640138 0
-56.504601 -2.5982299 398.87701 -0.94016641 -0.13115397 0.31446096 0
-56.422298 57.621601 378.92801 -0.83924198 0.54188919 -0.04504456 0
-56.382801 57.470299 379.75201 -0.89597088 0.43791887 0.073913775 0
-56.331001 57.770901 378.56201 -0.72503221 0.63802379 -0.25933364 0
-56.320599 57.5979 379.07501 -0.83924198 0.54188919 -0.04504456 0
-56.313 57.402901 378.50699 -0.94311297 -0.16257821 -0.29001078 0
-56.310902 -3.34637 398.27899 -0.95306116 -0.24886002 -0.172462 0
-56.308601 -3.31039 398.95099 -0.96314424 -0.092557862 0.25255921 0
-56.200802 -3.72507 398.35101 -0.92880929 -0.33938679 -0.14876118 0
-56.1978 -3.6495099 398.952 -0.95114428 -0.27077323 0.14834572 0
-56.012798 -3.12181 399.582 -0.86478657 -0.090532169 0.49391103 0
-56.010502 58.072102 379.67401 -0.90026921 0.37328205 0.22399963 0
-56.002998 -3.6465099 399.47101 -0.88366073 -0.16000505 0.43993413 0
-56.001701 -4.2474599 398.98901 -0.94146466 -0.30545443 0.14262499 0
-55.983501 -4.31954 398.28101 -0.87538469 -0.41619164 -0.24593937 0
-55.938599 58.151901 379.077 -0.89362764 0.44216451 0.076942377 0
-55.901299 58.223202 379.67499 -0.90026921 0.37328205 0.22399963 0
-55.823502 -4.8480501 398.952 -0.93489456 -0.30438843 0.18253708 0
-55.811401 58.676998 379.15201 -0.92709786 0.30414864 0.21905057 0
-55.8102 58.6763 378.47699 -0.99348903 0.026088022 -0.11090074 0
-55.808498 -4.24821 399.55099 -0.92181671 -0.201116 0.33137029 0
-55.7967 58.750702 378.328 -0.99025798 0.042065356 -0.13273896 0
-55.789501 -4.5464902 399.47299 -0.94021904 -0.19470121 0.27942723 0
-55.783699 58.600399 378.927 -0.96944886 0.24482387 0.015171033 0
-55.749901 58.4506 379.67599 -0.90363479 0.37267584 0.21108495 0
-55.7187 -4.8441701 399.47101 -0.93267107 -0.27263677 0.23620714 0
-55.7061 59.2034 378.552 -0.96396172 0.25547346 0.074237242 0
-55.68 -5.2971401 398.76501 -0.95053315 -0.30843195 -0.036830675 0
-55.6516 59.266499 379.069 -0.87447071 0.40002188 0.27437842 0
-55.618198 -5.4474802 398.98901 -0.89987558 -0.43596822 -0.012475143 0
-55.5797 59.349701 377.95401 -0.92276883 0.2685242 -0.27639186 0
-55.534801 59.4184 379.11499 -0.87803829 0.38981172 0.27766085 0
-55.528702 59.7216 378.552 -0.91729754 0.39500239 0.050381538 0
-55.4491 -5.56216 399.55301 -0.91084749 -0.073707841 0.40610832 0
-55.390301 59.878101 377.952 -0.93657887 0.3421025 -0.076065227 0
-55.3494 -6.19626 398.953 -0.91660124 -0.36485758 -0.1634659 0
-55.299599 59.9515 377.28 -0.96433008 0.047472738 -0.26041099 0
-55.286098 60.175701 377.354 -0.87347889 0.074943952 -0.48105925 0
-55.255699 -6.0468402 399.772 -0.86599487 -0.20677896 0.45529702 0
-55.242599 60.323101 378.47601 -0.88867098 0.45744041 0.031814195 0
-55.229698 -6.49722 399.439 -0.9417845 -0.27284345 0.19646466 0
-55.2048 60.327599 377.952 -0.94158119 0.33031446 0.065705642 0
-55.203899 60.6231 377.42801 -0.99243939 0.086456046 0.087116912 0
-55.173199 60.923698 377.27701 -0.35081223 0.80503958 -0.47837436 0
-55.166302 -6.2003598 398.38699 -0.82007492 -0.39076 -0.41807151 0
-55.1558 -6.6667199 398.896 -0.93641704 -0.34042677 -0.085045666 0
-55.149899 -6.7273102 399.55301 -0.95309889 -0.21099126 0.21699135 0
-55.143002 60.477699 378.478 -0.79997921 0.59206599 0.097422577 0
-55.112598 60.5508 377.98901 -0.95035946 0.30492127 0.061967477 0
-55.106499 -6.5153198 398.54199 -0.84197009 -0.34502006 -0.41478616 0
-54.999001 61.070202 377.95001 -0.90994132 0.3020989 0.28415331 0
-54.963299 -7.2089601 398.953 -0.92209482 -0.33378607 -0.19577529 0
-54.954899 -7.2460899 399.55099 -0.89394462 -0.41781068 0.1621642 0
-54.941898 -6.64821 400.09698 -0.8512162 -0.13423865 0.50735688 0
-54.827099 -7.2441101 400.06799 -0.88435996 -0.25390735 0.39171231 0
-54.7519 61.674198 376.67801 -0.98992205 0.11579865 -0.081517063 0
-54.688999 -7.2472601 400.23801 -0.8969177 -0.23239161 0.37620836 0
-54.68 -7.84623 398.879 -0.91726553 -0.37408981 -0.13667743 0
-54.650902 61.824799 377.577 -0.80553454 0.55312419 0.2125271 0
-54.648499 61.749802 377.35199 -0.86065489 0.50781846 0.037330873 0
-54.645699 -8.1108999 399.543 -0.99728709 -0.072256669 -0.014049016 0
-54.637901 61.971699 376.677 -0.94412917 0.31683832 -0.090739064 0
-54.623798 -7.99891 399.85199 -0.9384371 -0.2919659 0.18463939 0
-54.5854 -8.3720198 399.40201 -0.97969389 -0.16081528 -0.11974261 0
-54.569801 -8.0001898 400.07999 -0.76648134 -0.4892163 0.41614157 0
-54.5667 -8.4467697 399.58899 -0.99728709 -0.072256669 -0.014049016 0
-54.547001 -8.2241402 398.95099 -0.92804879 -0.34270161 -0.14588039 0
-54.524601 62.048599 377.315 -0.90485018 0.4236787 0.041743856 0
-54.461399 62.199299 376.75201 -0.88211983 0.47073925 0.016405987 0
-54.4277 -8.4469099 398.88 -0.92804879 -0.34270161 -0.14588039 0
-54.374298 62.424301 377.35101 -0.80279243 0.56742352 0.18317978 0
-54.325001 -8.8954601 400.073 -0.90753555 -0.29041773 0.30337563 0
-54.300999 62.503899 376.79001 -0.88794792 0.45774102 0.044962153 0
-54.2304 -9.0853701 400.151 -0.94929105 -0.21814786 0.22640243 0
-54.223301 62.798599 376.155 -0.91530555 0.092149809 -0.3920767 0
-54.221699 62.201401 376.06601 -0.86302286 0.010465252 -0.50505644 0
-54.125099 -9.4998503 399.552 -0.95200568 -0.29079521 -0.095516302 0
-54.0653 -9.2734098 398.952 -0.87892556 -0.27922177 -0.38668469 0
-54.028702 63.403198 376.75299 -0.89868522 0.39915779 0.18176347 0
-54.015701 -9.7976704 399.552 -0.93894792 -0.33886683 -0.059549257 0
-54.009201 -9.7213697 400.151 -0.93721879 -0.32857734 0.1168668 0
-54.0028 63.549099 376.19101 -0.94766319 0.23855938 -0.21218848 0
-53.946899 -9.5734501 398.952 -0.83383739 -0.38676018 -0.39386779 0
-53.9104 -9.9478502 400.151 -0.86557728 -0.4269751 0.26166436 0
-53.889999 -10.0948 399.552 -0.917853 -0.39136326 0.066187046 0
-53.876801 63.514198 375.85101 -0.89029557 0.30677831 -0.33654252 0
-53.786598 63.999699 376.116 -0.89073634 0.40686896 -0.20259918 0
-53.763599 64.072403 376.67499 -0.90796733 0.39408219 0.14245884 0
-53.7626 -10.2524 400.15302 -0.83119386 -0.51804227 0.20186387 0
-53.749199 -10.3955 399.55301 -0.89020097 -0.43314743 -0.14115788 0
-53.6987 63.699699 375.55499 -0.88595074 0.32082435 -0.33490744 0
-53.552898 64.454002 376.151 -0.87469387 0.48467496 -0.00091300753 0
-53.509701 -10.9228 400.189 -0.98166275 -0.1387447 0.13072175 0
-53.481098 -10.9958 399.479 -0.92263258 -0.34688771 -0.16857664 0
-53.4034 64.528297 375.39999 -0.75698829 0.36726019 -0.5404523 0
-53.397301 64.68 375.54999 -0.95504683 0.2281916 -0.18924637 0
-53.391499 64.0765 375.10001 -0.85400468 0.24975601 -0.4563967 0
-53.380901 -11.3714 400.151 -0.92712528 -0.35463604 0.12112787 0
-53.3685 64.789803 376.151 -0.89283079 0.42343983 0.15346615 0
-53.355 -11.2926 399.48199 -0.83185577 -0.48709396 -0.2659989 0
-53.286098 64.974297 375.552 -0.91577083 0.39484343 -0.073908351 0
-53.283001 64.263397 374.992 -0.52963197 0.53651714 -0.65699267 0
-53.260101 -11.5207 399.55399 -0.79262996 -0.5516054 -0.25974852 0
-53.251499 -11.6344 400.095 -0.91374773 -0.4012363 0.063831888 0
-53.171902 -11.4457 400.67099 -0.80446172 -0.3973037 0.44157794 0
-53.0788 65.234398 374.957 -0.87925434 0.3254655 -0.34782764 0
-52.939098 65.798599 375.552 -0.75564551 0.65455741 0.023547119 0
-52.937698 -12.3448 400.18799 -0.96033907 -0.26184523 0.095843263 0
-52.9081 -12.3479 399.55301 -0.88903964 -0.42404029 -0.17262189 0
-52.905399 -12.1964 400.67401 -0.96753991 -0.15925153 0.19622828 0
-52.891499 65.651497 374.98901 -0.85761613 0.46542591 -0.21879968 0
-52.833599 -12.644 400.151 -0.94632381 -0.31445181 0.074775085 0
-52.762402 -12.4972 400.75 -0.75897962 -0.53391802 0.37266809 0
-52.758499 65.9506 375.177 -0.83674985 0.50649023 -0.20812826 0
-52.735699 65.201599 374.42999 -0.87657529 0.18664055 -0.44360006 0
-52.721001 65.869698 374.80301 -0.92239666 0.37024957 -0.10999871 0
-52.643002 -13.0994 400.15201 -0.91930193 -0.39355254 -0.00058388495 0
-52.6376 66.028702 374.95099 -0.92239666 0.37024957 -0.10999871 0
-52.6078 65.949699 374.28601 -0.91815054 0.10572749 -0.38186556 0
-52.553398 66.323303 374.35501 -0.91217077 0.13967408 -0.3852734 0
-52.5425 -13.0976 400.75101 -0.8708908 -0.28656906 0.39928362 0
-52.525101 -13.1013 399.58801 -0.82598108 -0.43863884 -0.3540498 0
-52.4884 -13.3197 400.67401 -0.90309459 -0.3613925 0.23198184 0
-52.470299 66.551903 375.478 -0.91849947 0.36456594 0.15313537 0
-52.3685 66.700996 374.353 -0.90669578 0.41413015 -0.079993971 0
-52.367901 -13.7323 400.15302 -0.915802 -0.40143862 -0.012397289 0
-52.269798 66.774696 373.79001 -0.97723031 0.091423765 -0.19147483 0
-52.231899 67.076797 374.952 -0.96663076 0.25119603 -0.050254378 0
-52.218498 -13.9205 399.854 -0.87593979 -0.40985107 -0.2544634 0
-52.210098 -13.9983 400.677 -0.90695816 -0.35404664 0.22820565 0
-52.190601 67.189003 374.802 -0.96663076 0.25119603 -0.050254378 0
-52.162601 -14.1488 400.302 -0.88588548 -0.46269906 -0.033414897 0
-52.153301 66.926697 373.66699 -0.97723031 0.091423765 -0.19147483 0
-52.1506 67.225304 374.35199 -0.93568033 0.35192168 -0.025562061 0
-52.1017 67.376297 373.75299 -0.85746515 0.39461318 -0.33020294 0
-52.090599 -13.847 399.479 -0.83243984 -0.4040328 -0.37921152 0
-52.065102 -14.2609 399.94601 -0.85558987 -0.45288432 -0.25072253 0
-51.9221 -14.5957 400.75101 -0.88618875 -0.39719447 0.23854999 0
-51.823299 -14.8987 400.19 -0.89000338 -0.43529579 -0.1356892 0
-51.7416 67.975998 373.75201 -0.92751515 0.35837886 -0.10620831 0
-51.730301 -15.1209 400.15399 -0.91310948 -0.38103613 -0.14506038 0
-51.711498 68.278099 374.276 -0.94553798 0.32160801 -0.050261267 0
-51.661201 -15.2024 400.75299 -0.95382416 -0.23775937 0.18354821 0
-51.629501 -15.1997 400.978 -0.86140859 -0.33164874 0.38468733 0
-51.623501 68.424103 374.12701 -0.85116422 0.51648146 -0.09362866 0
-51.586201 68.2715 373.828 -0.92751515 0.35837886 -0.10620831 0
-51.5755 -14.8645 399.547 -0.80103928 -0.39401305 -0.45065489 0
-51.564602 68.350304 373.228 -0.93697256 0.32890484 -0.11791553 0
-51.532799 -15.5348 400.75101 -0.9395318 -0.31647393 0.13085964 0
-51.523499 -15.5716 400.15302 -0.88884741 -0.45563394 -0.048456568 0
-51.505299 68.200104 373.091 -0.83333921 0.091046736 -0.54521215 0
-51.502499 68.573898 373.75299 -0.92751515 0.35837886 -0.10620831 0
-51.367199 -15.9472 400.75201 -0.90370357 -0.37604222 0.20472459 0
-51.355801 68.801102 373.15399 -0.85313052 0.31032002 -0.41936839 0
-51.234299 69.026703 373.15201 -0.90713221 0.39560983 -0.14354093 0
-51.163601 69.464104 373.67499 -0.8756451 0.31432021 0.36667213 0
-51.161201 -15.9496 401.27899 -0.88821399 -0.27210951 0.37017876 0
-51.134399 -16.4356 400.75201 -0.89962864 -0.43362683 -0.051342923 0
-51.1301 -16.171801 400.00299 -0.78590006 -0.40434825 -0.4678286 0
-51.066101 -16.398199 400.15201 -0.88653439 -0.42646632 -0.17939705 0
-51.051998 69.621101 373.60001 -0.8756451 0.31432021 0.36667213 0
-51.004398 -16.617901 401.12201 -0.89025754 -0.39454535 0.22754228 0
-50.9674 -16.772301 400.60199 -0.90954161 -0.41094103 -0.062141269 0
-50.950901 69.548798 372.63101 -0.89072889 0.40942243 -0.19742166 0
-50.872101 -16.8097 400.15302 -0.8705712 -0.45271766 -0.19274972 0
-50.858501 -16.9998 400.75201 -0.84797275 -0.5295049 0.023807125 0
-50.825699 -16.7005 399.92499 -0.76945835 -0.50923014 -0.38551071 0
-50.724499 70.148102 373.078 -0.90779805 0.41773799 -0.03738508 0
-50.6432 -17.147699 401.35101 -0.88647968 -0.26040381 0.3825489 0
-50.634499 70.076599 372.552 -0.86928731 0.4307934 -0.24239761 0
-50.530399 -17.447701 401.276 -0.88161302 -0.41875741 0.21771707 0
-50.514198 70.300903 372.55301 -0.87375116 0.44056776 -0.20605576 0
-50.511799 -17.596399 400.15399 -0.90709734 -0.3421953 -0.24510571 0
-50.5023 -17.7446 400.75101 -0.93804049 -0.3458128 0.02221668 0
-50.4515 70.662804 373.07401 -0.8749491 0.4792093 -0.069444664 0
-50.398998 -17.672199 401.35101 -0.9088915 -0.36968136 0.19300763 0
-50.372501 -18.045601 400.75201 -0.8951968 -0.44566187 0.0028658006 0
-50.350498 70.761902 372.772 -0.83795398 0.5450092 0.028250942 0
-50.3069 -17.972799 400.15302 -0.79498619 -0.56403166 -0.22330531 0
-50.305099 70.712601 372.53299 -0.87885243 0.46188074 -0.119518 0
-50.250801 70.750702 371.91699 -0.88544136 0.45357791 -0.10129523 0
-50.230701 -18.193701 401.27301 -0.89394814 -0.40089467 0.20035028 0
-50.157398 -18.237101 400.151 -0.80543178 -0.51034999 -0.30136767 0
-50.058998 -18.7174 400.75299 -0.83941048 -0.54215217 -0.038224131 0
-50.006802 71.284897 372.55099 -0.88124436 0.46870416 0.061030809 0
-49.991402 -18.641899 401.31299 -0.82796246 -0.53754872 0.15974833 0
-49.9631 71.274902 371.896 -0.87867022 0.47244436 -0.068811081 0
-49.8895 71.441498 372.77802 -0.83294529 0.49663821 0.24403401 0
-49.882702 -18.643801 400.11899 -0.70766437 -0.55038607 -0.4430421 0
-49.881699 -18.719601 401.5 -0.74128133 -0.40562338 0.53476322 0
-49.871899 -17.6731 401.96701 -0.69611973 -0.24843857 0.67356932 0
-49.851398 71.576302 372.47699 -0.88124436 0.46870416 0.061030809 0
-49.843201 71.496101 371.98999 -0.89547276 0.44309819 -0.04233817 0
-49.8405 -17.4505 402.017 -0.44307479 -0.13842176 0.88573366 0
-49.836102 -16.8487 402.12201 -0.47444239 -0.10865565 0.873555 0
-49.812801 -18.1252 401.936 -0.45651522 -0.12821798 0.88042831 0
-49.796001 -17.709801 399.478 -0.43245488 -0.31182119 -0.84602028 0
-49.783298 -18.344601 399.754 -0.66594249 -0.3826879 -0.64036751 0
-49.750401 71.732399 372.552 -0.7665534 0.58558035 0.26361242 0
-49.7271 71.650803 371.31799 -0.91775858 0.33634707 -0.21116313 0
-49.722301 -19.132099 400.75201 -0.41520578 -0.90959668 0.015428162 0
-49.720299 -19.008101 401.35001 -0.36427572 -0.87731421 0.31244677 0
-49.6898 71.802101 371.952 -0.89547276 0.44309819 -0.04233817 0
-49.614498 -17.805901 402.07401 -0.45651522 -0.12821798 0.88042831 0
-49.6003 72.026398 371.952 -0.8303808 0.55413562 0.058321875 0
-49.569401 -18.4191 399.59299 -0.5621134 -0.57122529 -0.59810549 0
-49.569401 -18.496799 401.995 -0.64604139 -0.3824183 0.66059572 0
-49.569401 -18.4191 399.59299 -0.5621134 -0.57122529 -0.59810549 0
-49.535 -16.886101 402.27701 -0.45316604 -0.13820313 0.88064772 0
-49.4272 72.250397 371.353 -0.88626647 0.40289602 -0.22848745 0
-49.419399 -19.229601 400.52701 -0.10435507 -0.99451506 0.0070541804 0
-49.4193 -18.8286 401.935 -0.56773043 -0.53383762 0.62665743 0
-49.417999 -19.1127 400.08099 -0.43459618 -0.79777551 -0.41794783 0
-49.349499 -18.499201 402.12399 -0.53434688 -0.29188555 0.79326934 0
-49.305401 -16.5292 402.43301 -0.44316304 -0.059819639 0.89444292 0
-49.2789 72.063698 370.79901 -0.93147582 0.051126789 -0.36019281 0
-49.271099 -18.7227 402.11099 -0.49556226 -0.51624048 0.69850826 0
-49.270302 -18.719801 399.54401 -0.55310035 -0.54931074 -0.62636864 0
-49.233898 72.628998 371.27701 -0.91695541 0.36783373 -0.15456738 0
-49.206299 72.711197 371.991 -0.83029556 0.46827108 0.30221093 0
-49.1973 -19.2047 400.52701 -0.10435507 -0.99451506 0.0070541804 0
-49.195499 -18.569799 399.42801 -0.37285185 -0.25593731 -0.89189547 0
-49.194698 -16.847601 402.457 -0.42608744 -0.093330786 0.8998549 0
-49.1754 72.778397 371.35101 -0.88237989 0.45221984 -0.13001135 0
-49.121201 -19.049801 401.87299 -0.30864584 -0.68006283 0.66502053 0
-49.1208 -19.128901 400.754 -0.0065701697 -0.98784828 0.15528215 0
-49.094601 72.547302 370.63699 -0.92056 0.20033139 -0.33531567 0
-49.047901 -19.1078 401.16501 -0.091866583 -0.98608649 0.13854219 0
-49.044601 -18.865601 399.57199 -0.31497118 -0.64868402 -0.69282192 0
-48.9347 -16.792299 402.59 -0.42608744 -0.093330786 0.8998549 0
-48.860901 73.150299 370.75201 -0.88847387 0.43378654 -0.14981142 0
-48.840599 73.367599 371.353 -0.90019238 0.43549168 -0.00081597752 0
-48.833801 -19.250601 400.121 -0.035886899 -0.94788188 -0.31659457 0
-48.820301 -16.379601 402.668 -0.45264176 -0.069756776 0.88895977 0
-48.8162 -18.7173 402.39301 -0.30682731 -0.55067289 0.77628368 0
-48.789001 -17.9557 402.465 -0.48376042 -0.10879904 0.86841154 0
-48.747002 -17.167101 402.62299 -0.4157306 -0.12887198 0.90031111 0
-48.6889 73.448799 370.75201 -0.87739879 0.46147823 -0.13118374 0
-48.6702 -19.1604 400.16599 0.22354825 -0.96894449 -0.10570134 0
-48.6049 -18.199499 402.53601 -0.48021615 -0.062815867 0.87489808 0
-48.600899 -15.837 402.84799 -0.47182325 -0.14462802 0.86975026 0
-48.598 -19.0396 401.953 0.0033129957 -0.92101914 0.38950327 0
-48.597698 -18.684999 402.50299 -0.44610882 -0.5002057 0.74214637 0
-48.5709 73.747398 371.052 -0.81520295 0.5791437 0.0060582599 0
-48.523399 -18.9405 399.586 0.014260804 -0.8615185 -0.50752586 0
-48.522701 73.750504 370.60199 -0.88516986 0.45756355 -0.084320366 0
-48.520901 73.670998 370.08499 -0.86453468 0.28398639 -0.41464624 0
-48.515202 -19.1182 400.08099 0.3039971 -0.93827003 -0.16503046 0
-48.400101 74.047401 370.79001 -0.84492701 0.52405238 0.10708637 0
-48.241501 -15.7703 403.091 -0.52527028 -0.19130875 0.82915145 0
-48.223801 -19.043301 400.677 0.23328373 -0.97152197 -0.041518092 0
-48.2187 -16.246901 402.979 -0.46346036 -0.16709508 0.87022054 0
-48.1824 74.2108 370.14999 -0.86011994 0.49720228 -0.11394554 0
-48.1478 -19.0851 401.35101 -0.025876869 -0.99918336 -0.031032819 0
-48.146301 -18.3473 402.798 -0.4144277 -0.15090758 0.89748347 0
-48.071499 74.568901 370.677 -0.82075089 0.56893826 -0.051742159 0
-48.07 -18.723801 402.711 -0.2565259 -0.3891367 0.88474125 0
-48.056702 74.424896 369.854 -0.8937608 0.38198537 -0.23511451 0
-48.032902 -17.9923 402.86301 -0.47200143 -0.061106827 0.87947744 0
-48.030899 -17.297199 402.927 -0.44429067 -0.096306294 0.89069128 0
-47.997799 -16.0984 403.15799 -0.51583976 -0.21599163 0.82900965 0
-47.961498 -18.9769 400.05301 0.21123512 -0.96647161 -0.1459876 0
-47.930302 -19.0137 400.677 0.20575993 -0.97635019 -0.066355921 0
-47.796001 74.833 369.552 -0.83235246 0.46112043 -0.3075017 0
-47.792599 -19.037201 401.315 0.18836743 -0.97519201 -0.11626789 0
-47.764198 74.886803 370.151 -0.79892254 0.59934038 -0.050138645 0
-47.7458 74.924599 370.67599 -0.70969141 0.70424271 0.01950169 0
-47.745201 -18.945101 402.47601 -0.21594402 -0.88187134 0.41913134 0
-47.696499 -18.652599 402.89401 -0.27845898 -0.49902257 0.8206321 0
-47.696499 -16.7731 403.16901 -0.477005 -0.16761343 0.86276996 0
-47.649601 75.0326 370.15201 -0.89066702 0.45046651 0.061580837 0
-47.585701 -18.0487 403.108 -0.43757284 -0.13622551 0.88880402 0
-47.5532 -17.1877 403.177 -0.48744804 -0.1221745 0.86456221 0
-47.546398 -17.7486 403.133 -0.43599775 -0.088255733 0.8956098 0
-47.473999 -16.398899 403.40201 -0.47828892 -0.18376845 0.85876006 0
-47.418701 75.479401 369.552 -0.85370797 0.49886471 -0.14938784 0
-47.403599 -17.4496 403.228 -0.45804137 -0.055186693 0.88721615 0
-47.401901 75.632698 370.07599 -0.85333818 0.51760894 0.062409066 0
-47.3988 -18.349001 403.12701 -0.37336254 -0.25369614 0.89232206 0
-47.3699 75.399399 369.03101 -0.8468256 0.31363171 -0.42955968 0
-47.243301 75.5495 368.888 -0.8224262 0.32613155 -0.46610445 0
-47.198299 75.854599 369.47699 -0.82044274 0.55924207 -0.11883622 0
-47.162201 75.8908 370.14899 -0.75836909 0.64266855 0.10887385 0
-47.094898 -16.8475 403.521 -0.46655574 -0.16542138 0.86888522 0
-47.053699 76.176697 368.879 -0.86163127 0.25044495 -0.44143951 0
-47.023399 -18.369101 403.97699 -0.29841033 -0.32801053 0.89630371 0
-47.0233 -18.7659 403.077 -0.51844668 -0.80666798 0.28372484 0
-46.884701 -18.558901 403.72699 0.2093122 -0.65560639 0.72551268 0
-46.874699 76.340897 368.95099 -0.7810021 0.54669386 -0.30192974 0
-46.869801 -15.7976 403.76801 -0.46617731 -0.18579426 0.86496198 0
-46.8661 76.324097 369.849 -0.8045308 0.57782656 0.13728303 0
-46.8363 76.492302 369.55301 -0.79603928 0.59729195 0.09779463 0
-46.834999 -16.548401 403.69299 -0.44216678 -0.11078189 0.89006513 0
-46.798 -16.2861 403.73999 -0.52759379 -0.09892489 0.84371716 0
-46.7234 -18.4123 403.97699 -0.75248021 -0.64748627 0.12056129 0
-46.629002 76.718903 369.47601 -0.71480584 0.69687426 0.058471598 0
-46.588902 -17.3638 403.70401 -0.45038423 -0.12253822 0.88438588 0
-46.5769 -16.2498 403.85901 -0.51370227 -0.15801628 0.8432917 0
-46.551498 76.665802 368.29199 -0.85537595 0.20394216 -0.47617179 0
-46.548401 76.748398 368.953 -0.78989983 0.61207789 -0.037667591 0
-46.420502 76.867699 369.55099 -0.60061991 0.79083312 0.11763797 0
-46.292801 -15.9115 404.13699 -0.53758109 -0.19367936 0.82066733 0
-46.243599 77.203201 368.315 -0.85198945 0.52355897 3.731767e-05 0
-46.234699 -16.885799 403.95499 -0.47892189 -0.13369621 0.86761695 0
-46.224098 77.205498 368.952 -0.83603853 0.54244155 0.082442343 0
-46.200199 -17.936701 403.81699 -0.46018758 -0.12482922 0.87900227 0
-46.190201 77.277603 368.65201 -0.84626466 0.53276134 -0.0012104959 0
-46.181999 77.281502 368.05301 -0.84916073 0.29278132 -0.43955109 0
-46.122101 -18.5429 403.759 -0.16532892 -0.16097337 0.9730128 0
-45.991199 -17.307699 404.01599 -0.4625842 -0.15170515 0.87349951 0
-45.884602 77.750298 368.27499 -0.82041138 0.56849188 -0.061173294 0
-45.877899 -15.9667 404.37799 -0.48790619 -0.18273467 0.85355467 0
-45.799301 -16.7248 404.24701 -0.4450002 -0.19704051 0.87358451 0
-45.762901 77.877701 367.67599 -0.83872777 0.48385149 -0.24984686 0
-45.746101 -18.420601 404.013 -0.32971722 -0.37656748 0.86572713 0
-45.624199 78.018303 367.90201 -0.83872777 0.48385149 -0.24984686 0
-45.618698 78.019402 367.67899 -0.83872777 0.48385149 -0.24984686 0
-45.612499 -17.7005 404.151 -0.46341673 -0.1266439 0.87704402 0
-45.549198 77.800903 367.38101 -0.25868943 0.65439117 -0.71052933 0
-45.510899 78.1577 367.75299 -0.57302129 0.71320283 -0.40371811 0
-45.351601 -17.137899 404.38 -0.44939023 -0.15974978 0.87893593 0
-45.2934 78.509102 368.20499 -0.76884419 0.63147932 -0.1005605 0
-45.277699 -17.8232 404.306 -0.52313548 -0.14041993 0.84060186 0
-45.254501 78.548103 367.08899 -0.87588388 0.31461808 -0.36584541 0
-45.076599 -15.7253 404.80701 -0.44966426 -0.20430006 0.86951917 0
-45.072601 -16.5296 404.634 -0.45016748 -0.17359507 0.87590754 0
-45.068699 78.919197 367.07999 -0.86742544 0.48311022 0.1190696 0
-45.063202 -17.972601 404.41901 -0.469087 -0.10755461 0.87657821 0
-45.0116 -18.2335 404.47601 -0.65243727 -0.28572223 0.70191765 0
-45.006401 78.910698 367.60199 -0.83043599 0.5457499 0.11195121 0
-45.0009 -18.530899 404.33899 -0.70858419 -0.34501597 0.61552608 0
-44.990898 79.076202 367.077 -0.86742544 0.48311022 0.1190696 0
-44.924599 78.930099 368.202 -0.68555766 0.71255481 0.14925241 0
-44.916698 -18.6546 404.26901 -0.32275987 -0.70195663 0.63488817 0
-44.8983 79.063599 367.60199 -0.83043599 0.5457499 0.11195121 0
-44.8736 79.2061 367.151 -0.87315261 0.47376135 0.11469368 0
-44.757401 -15.8936 404.93799 -0.46075803 -0.19801763 0.86515379 0
-44.623798 -16.6989 404.858 -0.49613005 -0.16040353 0.85330278 0
-44.623299 -18.417101 404.87701 -0.16037141 -0.46176758 0.87238276 0
-44.588799 79.665199 367.67401 -0.79257959 0.6032967 -0.088604301 0
-44.5481 -17.3361 404.78201 -0.51237369 -0.16886602 0.84199613 0
-44.5425 -17.7472 404.70599 -0.4521856 -0.17224838 0.87513351 0
-44.539001 79.635101 366.56201 -0.82566625 0.36072719 -0.43376389 0
-44.371101 79.7621 366.47699 -0.82716137 0.34265333 -0.44541296 0
-44.3419 79.768799 367.07401 -0.82360816 0.56669593 -0.022920512 0
-44.321899 -17.9732 404.78 -0.29696316 -0.14367867 0.94401765 0
-44.0994 80.279198 367.07599 -0.85292417 0.5209707 -0.033315878 0
-44.099201 -17.599001 405.005 -0.4906621 -0.19370423 0.84954655 0
-44.0187 -18.1024 404.91101 -0.19993143 -0.0001871229 0.97980988 0
-43.999599 80.273399 366.55301 -0.7776202 0.58037555 -0.24180797 0
-43.9384 80.430099 366.40302 -0.89748412 0.3328726 -0.28934085 0
-43.909401 -16.998301 405.23499 -0.49337149 -0.15179534 0.85647112 0
-43.8736 80.050797 365.94 -0.94028431 0.043795355 -0.33756086 0
-43.838501 -16.643299 405.31699 -0.46575737 -0.13765597 0.87414008 0
-43.7234 -18.395599 405.77701 0.15404972 -0.26222122 0.95263255 0
-43.715199 80.199997 365.79501 -0.83823025 0.19841154 -0.50793982 0
-43.632401 80.9002 366.246 -0.79222155 0.60128623 -0.10411464 0
-43.582298 -17.1138 405.37299 -0.44421169 -0.16135418 0.88127226 0
-43.497002 80.9356 365.87799 -0.81800723 0.43439743 -0.37704509 0
-43.4244 -16.1929 405.569 -0.39879981 -0.13056192 0.90769613 0
-43.423401 81.501801 365.27701 -0.95491457 0.28924638 0.066893525 0
-43.345402 -17.7103 405.39301 -0.46742785 0.00076158805 0.88403088 0
-43.335899 81.026802 365.87601 -0.76932245 0.55493802 -0.31652281 0
-43.272099 -18.553301 405.50101 0.17115168 -0.57085001 0.80301768 0
-43.1273 81.585297 365.27499 -0.28488511 0.92286289 -0.25916117 0
-43.123299 -18.4237 405.55499 0.044969872 -0.63623846 0.7701807 0
-43.122501 -18.666599 405.479 0.0085832207 -0.41487679 0.90983713 0
-43.101299 81.540199 365.98801 -0.86693865 0.48210812 -0.12644815 0
-43.015701 81.706398 366.366 -0.59222251 0.79968667 0.098861977 0
-42.987999 -17.475401 405.586 -0.41592461 -0.071257271 0.9066031 0
-42.970299 81.7687 365.95499 -0.81255656 0.56563199 -0.14075617 0
-42.6661 -18.4142 405.64001 -0.030526586 -0.93021935 0.36573228 0
-42.665298 81.900002 365.354 -0.54908568 0.75864851 -0.35065272 0
-42.645599 82.216301 365.87799 -0.71049333 0.6582402 -0.24883552 0
-42.6381 -16.830601 405.854 -0.37083226 -0.17456596 0.91214591 0
-42.564701 82.077499 365.57599 -0.65860659 0.72641456 -0.19636498 0
-42.527599 81.776001 364.79001 -0.6855011 0.44889063 -0.57322371 0
-42.5219 81.401604 364.81799 -0.61047256 0.41754198 -0.67303932 0
-42.503502 82.074402 365.27701 -0.93405128 0.21966241 -0.2815966 0
-42.373299 81.5513 364.69699 -0.55251187 0.46603733 -0.6910426 0
-42.365501 -18.620701 405.61099 -0.044238985 -0.95120752 0.30536407 0
-42.093201 82.814301 365.57599 -0.48136625 0.87649632 -0.0063815122 0
-42.069199 -18.420401 405.923 -0.260344 -0.52239066 0.81199074 0
-42.047798 82.751404 365.27701 -0.89258462 0.45052356 -0.017921166 0
-42.002998 82.815498 364.384 -0.81206548 0.56646848 -0.14022504 0
-41.990002 82.669296 365.13 -0.89258462 0.45052356 -0.017921166 0
-41.940399 82.965103 365.354 -0.78744167 0.60545659 -0.11557624 0
-41.681099 83.276299 364.077 -0.83454466 0.33829966 -0.43484312 0
-41.537201 83.578499 364.078 -0.70199847 0.70287377 0.11474578 0
-41.530499 83.288902 364.67899 -0.88335991 0.45054993 0.12915123 0
-41.436001 83.493797 364.677 -0.85592067 0.50326627 0.11883952 0
-41.3288 83.553802 365.28 -0.73205894 0.62268078 0.27633008 0
-41.175499 83.773903 364.078 -0.78425813 0.61999559 -0.023338705 0
-41.159199 83.968002 364.75299 -0.76492292 0.62182212 0.16801848 0
-40.978401 84.476303 363.47699 -0.78299159 0.48557097 -0.38877374 0
-40.886002 84.347504 364.07401 -0.7327618 0.66705185 0.13454379 0
-40.8526 -18.191 406.32199 -0.083081804 -0.25459892 0.96347123 0
-40.791698 84.410698 364.45099 -0.76557106 0.61829787 0.17778848 0
-40.785099 84.532799 363.478 -0.48112401 0.87665242 -0.00050735928 0
-40.723099 84.558601 364.07199 -0.64941168 0.75276119 0.10777336 0
-40.2971 84.7117 363.47601 -0.61553156 0.72381908 -0.31178021 0
-40.230801 84.764297 362.957 -0.96774 0.16411513 -0.19116887 0
-40.0882 85.076302 362.87701 -0.82202131 0.37753597 -0.42631862 0
-40.058201 85.067299 363.556 -0.79117435 0.60933566 0.05247093 0
-39.971401 -18.625099 406.67499 -0.42768455 -0.90304124 -0.040031064 0
-39.823299 -18.731501 406.97699 -0.21926093 -0.94358337 0.2481432 0
-39.823299 -18.417101 407.27701 -0.53327012 -0.62890851 0.56577122 0
-39.823299 -18.731501 406.97699 -0.21926093 -0.94358337 0.2481432 0
-39.823299 -18.417101 407.27701 -0.53327012 -0.62890851 0.56577122 0
-39.816002 85.507202 362.87201 -0.72049266 0.6934551 0.0032129132 0
-39.667 85.565903 363.478 -0.66715449 0.74306709 0.052499108 0
-39.615601 85.822098 362.578 -0.75065196 0.65541196 0.083407164 0
-39.523399 -18.6854 406.97699 0.3844974 -0.79333884 0.47199076 0
-39.523399 -18.4237 407.129 0.3844974 -0.79333884 0.47199076 0
-39.523399 -18.6854 406.97699 0.3844974 -0.79333884 0.47199076 0
-39.523399 -18.4237 407.129 0.3844974 -0.79333884 0.47199076 0
-39.523399 -18.6854 406.97699 0.3844974 -0.79333884 0.47199076 0
-39.519901 85.6008 362.367 -0.77488363 0.29623458 -0.55839092 0
-39.400501 85.655701 362.87701 -0.52243179 0.85239619 0.022040151 0
-39.368698 85.788902 363.47601 -0.55305779 0.82844782 0.088324785 0
-39.097698 86.312798 362.35501 -0.70941174 0.57289767 -0.41051582 0
-39.041599 86.255402 362.87701 -0.73751247 0.66793907 0.099663362 0
-38.940399 85.759804 361.91901 -0.62281859 0.32081529 -0.71356469 0
-38.923599 86.349098 362.577 -0.58464038 0.80499011 -0.10092872 0
-38.914101 86.381699 362.353 -0.58464038 0.80499011 -0.10092872 0
-38.772701 -18.122801 407.37701 -0.44488987 -0.65968359 0.60571492 0
-38.616299 86.197601 361.711 -0.68480909 0.41473234 -0.59919417 0
-38.507099 85.602303 361.66501 -0.50177211 -0.10848312 -0.85817027 0
-38.488098 86.591904 362.27301 -0.71435827 0.65391767 -0.24916643 0
-38.403702 87.034698 362.577 -0.72696793 0.64917117 -0.22381783 0
-38.341702 86.872597 362.27899 -0.72696793 0.64917117 -0.22381783 0
-38.319401 86.1996 361.51599 -0.46573797 0.17545158 -0.86735511 0
-38.2887 85.018799 361.673 -0.46205679 -0.20701416 -0.86235064 0
-38.119301 85.544098 361.45599 -0.50707525 -0.13630322 -0.85105592 0
-37.9454 -18.295099 407.39099 -0.22722787 -0.88510346 0.40615192 0
-37.944302 86.796204 361.68399 -0.44899344 0.64237493 -0.6210953 0
-37.9165 87.316704 362.39801 -0.54399866 0.83897263 -0.013799434 0
-37.7957 86.274101 361.25201 -0.39303315 0.30322495 -0.86808962 0
-37.761299 85.638702 361.21301 -0.47900045 -0.034247771 -0.8771463 0
-37.7234 -18.4237 407.37601 -0.26269624 -0.86295468 0.4316248 0
-37.644001 87.386101 362.28201 -0.36483696 0.81655037 -0.44736952 0
-37.570801 86.273003 361.14899 -0.46183208 0.39145774 -0.79590952 0
-37.499802 86.880798 361.63199 -0.23342311 0.61106664 -0.75638032 0
-37.498299 85.1511 361.17999 -0.45032892 -0.26489404 -0.85266346 0
-37.415798 85.454803 361.03201 -0.45032892 -0.26489404 -0.85266346 0
-37.347801 87.025398 361.70001 -0.23342311 0.61106664 -0.75638032 0
-37.195999 85.228401 361.017 -0.26768583 -0.43515 -0.85964453 0
-37.183498 87.319298 361.879 -0.34060755 0.69555366 -0.63260698 0
-37.140701 86.468498 361.15201 -0.26692078 0.62053257 -0.73735517 0
-37.0448 86.2686 360.95901 -0.21559525 0.57184571 -0.79152459 0
-36.993301 87.178596 361.70099 -0.27949801 0.58933145 -0.75800353 0
-36.903702 86.7584 361.33801 -0.24790567 0.62442583 -0.74069905 0
-36.822498 -18.1229 408.12399 -0.35957319 -0.54245031 0.75924617 0
-36.650398 87.8255 362.24399 -0.66098136 0.68294275 -0.31095469 0
-36.484299 87.398201 361.66101 -0.31344983 0.70882261 -0.63191748 0
-36.447701 -18.340099 407.97198 -0.18331447 -0.85715669 0.48132962 0
-36.297199 87.946602 362.203 -0.41780609 0.79603732 -0.43790716 0
-36.095402 -17.963499 408.33701 0.21004452 -0.75148088 0.62542605 0
-36.064098 88.215202 362.72501 -0.43193182 0.90133768 -0.032020941 0
-36.0126 -18.1432 408.36801 0.21004452 -0.75148088 0.62542605 0
-35.997299 88.0877 362.16501 -0.45062995 0.76879919 -0.45374057 0
-35.967899 -18.153601 408.349 0.21004452 -0.75148088 0.62542605 0
-35.848598 -18.349899 407.87601 0.052134175 -0.95482343 0.29256493 0
-35.767601 88.354698 362.35699 -0.47667855 0.87780982 0.047195997 0
-35.323299 -18.272301 408.29999 -0.03701568 -0.74915951 0.66135454 0
-35.091801 88.1493 361.71301 -0.35980251 0.65074921 -0.66863114 0
-34.870399 88.821198 362.25201 -0.18095283 0.98317522 0.024950717 0
-34.834801 -17.889099 408.62299 -0.091679692 -0.61088282 0.78639495 0
-34.7094 88.957901 362.28799 -0.14457051 0.96653163 -0.21193376 0
-34.604198 -17.9415 408.728 -0.21756983 -0.89319825 0.39352286 0
-34.530899 88.655296 361.86801 -0.40061602 0.64246285 -0.65325969 0
-34.4506 88.208603 361.40302 -0.38213021 0.60749459 -0.69636691 0
-34.422798 -18.0522 408.55801 -0.21756983 -0.89319825 0.39352286 0
-34.184502 -17.996401 408.59698 -0.19164711 -0.90097934 0.38923976 0
-33.898499 89.298897 362.27701 -0.59658486 0.77104044 -0.22267286 0
-33.7444 88.969902 361.72101 -0.4027358 0.61054659 -0.68193603 0
-33.694401 89.455597 362.27802 -0.49047327 0.78708088 -0.37408507 0
-33.669201 -18.145201 408.70499 -0.29016662 -0.87801838 0.38064036 0
-33.447498 89.324402 361.858 -0.53722966 0.64584929 -0.54246014 0
-33.143501 89.825401 362.276 -0.48061782 0.87507808 0.056963444 0
-32.948799 89.726196 361.75 -0.64810425 0.55261075 -0.52400595 0
-32.7477 90.019699 361.75601 -0.76657462 0.62849718 0.13173701 0
-32.6269 -17.9709 409.297 0.58611172 -0.61221182 0.53072566 0
-32.623798 -18.1625 409.07599 0.015529273 -0.50872892 0.86078668 0
-32.598999 89.979797 362.30801 -0.49042827 0.82616431 0.27736732 0
-32.541302 90.131699 362.12201 -0.61378008 0.75652134 0.22571985 0
-32.498901 -17.947599 409.19299 0.33279333 -0.41541117 0.84657085 0
-32.324001 -18.151699 409.07599 0.51657337 -0.61613047 0.59458828 0
-32.309101 90.443398 361.67499 -0.51502007 0.77541488 0.36535749 0
-32.192699 89.550499 363.25299 -0.38052371 0.79959202 0.46460125 0
-32.170601 89.735497 362.96701 -0.37848899 0.78186035 0.49541947 0
-32.0993 -17.6695 409.189 0.16379641 -0.27160305 0.94836837 0
-32.0938 90.625702 361.604 -0.43570185 0.89331388 -0.11024611 0
-31.990999 90.3862 362.06 -0.36464965 0.79571557 0.48359838 0
-31.941099 90.472198 361.08499 -0.68227351 0.5803104 -0.44468275 0
-31.881001 90.1026 362.59399 -0.39300734 0.79061717 0.46954203 0
-31.787901 90.757698 361.664 -0.32532075 0.92859495 0.17854357 0
-31.725401 -17.8076 409.17099 0.013232375 -0.49717367 0.86755013 0
-31.723301 90.404198 362.22101 -0.38269341 0.78295308 0.49043882 0
-31.641701 89.854301 363.245 -0.41345921 0.79000759 0.4527024 0
-31.5359 90.3256 362.50201 -0.38269341 0.78295308 0.49043882 0
-31.4228 91.077904 361.077 -0.23655905 0.97043228 -0.04796838 0
-31.348499 -17.524 409.44 -0.23031536 -0.54835612 0.80390322 0
-31.2717 90.646599 362.20001 -0.41015977 0.75243694 0.51537138 0
-31.2607 91.218102 361.07999 -0.54497147 0.83012158 0.11791641 0
-31.180599 90.5028 362.50299 -0.42169377 0.78070545 0.46116522 0
-31.177799 91.148201 360.77899 -0.63223416 0.69363868 -0.34517437 0
-31.121 90.223999 363.06699 -0.42397004 0.79451847 0.43472961 0
-31.1094 91.325401 361.147 -0.54497147 0.83012158 0.11791641 0
-31.047899 -17.9867 409.07401 0.083052158 -0.823695 0.56091791 0
-31.040501 91.155701 361.57599 -0.54248244 0.73593783 0.40510282 0
-30.9893 91.148598 360.58499 -0.75474173 0.34959778 -0.55510932 0
-30.8297 91.417297 361.32001 -0.53508365 0.73127675 0.42298919 0
-30.747801 89.813499 364.151 -0.32137161 0.77106458 0.54970872 0
-30.5959 91.315102 361.74899 -0.4125866 0.76247084 0.49840796 0
-30.595699 90.396301 363.31 -0.42688435 0.77600414 0.46431383 0
-30.5823 90.896599 362.42401 -0.43024749 0.76175207 0.48437679 0
-30.523399 91.676201 360.58801 -0.6690281 0.74058211 -0.062765747 0
-30.523399 91.946701 361.077 -0.58560497 0.80939686 -0.044084754 0
-30.4666 89.905098 364.189 -0.30968657 0.7731114 0.55352777 0
-30.364201 91.830498 361.21799 -0.1206359 0.80582827 0.57973081 0
-30.1548 91.695297 361.08099 0.55723214 0.78324735 -0.27570975 0
-30.1446 90.732597 359.97 -0.11260267 0.73400784 -0.66974109 0
-30.1194 91.2537 362.25699 -0.40653431 0.79897255 0.44313961 0
-30.091 90.297699 363.841 -0.32150716 0.79242337 0.51836121 0
-30.0779 91.122803 360.33499 0.11932499 0.62186235 -0.77398241 0
-30.024401 90.650002 363.362 -0.33470273 0.77362555 0.53803122 0
-29.9993 -17.526199 409.965 0.033475854 -0.64241481 0.7656256 0
-29.9272 90.667702 359.89001 -0.11260267 0.73400784 -0.66974109 0
-29.923401 91.637604 361.677 0.23331645 0.92002308 0.31483483 0
-29.921301 91.539001 361.151 0.60868615 0.76636946 -0.20537528 0
-29.9177 90.019798 359.34799 0.12873729 0.57824457 -0.80564255 0
-29.8535 90.979301 360.47299 0.61429131 0.59734082 -0.51558721 0
-29.7792 90.565102 359.88501 0.21097085 0.88969439 -0.40488905 0
-29.772499 -17.6544 409.76199 0.13931811 -0.40726766 0.90262038 0
-29.736 91.420197 362.35101 -0.05668788 0.98306978 0.17424195 0
-29.623501 89.876099 359.34201 0.19127259 0.96782434 -0.16349563 0
-29.587099 91.078598 362.991 -0.34190595 0.77873379 0.52599812 0
-29.5301 90.872498 363.328 -0.30815017 0.76903039 0.56003189 0
-29.5299 91.1185 361.00601 0.61998034 0.62800002 -0.47036198 0
-29.516199 91.337303 362.63901 -0.34975645 0.83373326 0.42726955 0
-29.4828 89.867599 359.47 0.19127259 0.96782434 -0.16349563 0
-29.437901 90.465797 363.931 -0.28592837 0.78019023 0.55637056 0
-29.416401 90.573502 360.54999 0.65366572 0.60534871 -0.45417401 0
-29.3234 -17.6332 409.78 -0.092936844 -0.71919405 0.68856567 0
-29.320499 91.336502 361.75 0.4549959 0.88311511 -0.11439569 0
-29.2675 91.513901 362.35101 0.18273024 0.97852808 -0.09535408 0
-29.2195 90.329803 360.508 0.61712903 0.62110102 -0.4830997 0
-29.153999 89.951897 360.026 0.66320848 0.59772813 -0.45041713 0
-29.1054 91.1194 361.681 0.63366437 0.66577131 -0.39397714 0
-29.098499 90.853203 363.57101 -0.27782127 0.77026135 0.57403201 0
-29.022301 91.437302 362.87201 -0.15825815 0.91564077 0.36953536 0
-29.0063 90.502098 364.099 -0.35188124 0.75397032 0.55471462 0
-28.982901 90.663803 361.17099 0.63260585 0.61339438 -0.47281829 0
-28.9457 91.2267 363.17099 -0.16378227 0.80985069 0.56330913 0
-28.884501 90.295403 364.474 -0.35456499 0.73580843 0.57694852 0
-28.868299 -17.5336 410.08301 -0.096214212 -0.87619162 0.47226167 0
-28.8668 -17.3685 410.14899 -0.2902059 -0.89005882 0.35153353 0
-28.8613 90.341904 360.94601 0.61012697 0.61479402 -0.49977335 0
-28.7278 91.354202 362.87701 0.32380426 0.94310063 -0.075577594 0
-28.7232 91.285698 363.17001 0.34429458 0.88167876 0.32265127 0
-28.6467 91.076401 363.47299 0.14155683 0.83430314 0.53282261 0
-28.5742 -17.7174 409.73099 -0.02595613 -0.91169703 0.41004241 0
-28.497999 -15.7613 410.33899 -0.14171498 -0.01112816 0.98984498 0
-28.427299 91.161499 362.879 0.34429458 0.88167876 0.32265127 0
-28.3284 -16.434799 410.29501 -0.15000148 -0.15810512 0.97596228 0
-28.2054 90.736603 364.345 -0.27816564 0.64869952 0.70838743 0
-28.1994 -15.2731 410.33801 -0.24720052 0.068556882 0.96653599 0
-28.011101 -16.2117 410.38599 -0.10784779 -0.1368915 0.9846977 0
-27.8342 91.0121 363.55701 0.2152679 0.91748768 -0.33447886 0
-27.8234 91.212097 364.077 0.28772554 0.95387006 0.085708193 0
-27.8225 -15.7227 410.513 -0.13748841 -0.065770879 0.98831731 0
-27.6908 -15.5374 410.504 -0.16610216 0.013070755 0.98602194 0
-27.672501 -16.997 410.26001 -0.055272382 -0.06622047 0.99627298 0
-27.6717 -14.8988 410.427 -0.19588628 0.059086289 0.97884494 0
-27.448299 -15.4235 410.51199 0.21236794 0.018435482 0.97701585 0
-27.447701 -15.7993 410.423 0.1357367 -0.1308226 0.98206973 0
-27.224899 -16.0247 410.367 -0.16353519 -0.19614655 0.96684164 0
-27.2244 -16.2488 410.37299 -0.12057106 0.014915419 0.99259263 0
-27.144199 -17.400999 410.34201 -0.33598688 -0.32654124 0.88344985 0
-27.112101 -14.7492 410.547 -0.20104308 -0.044858366 0.97855473 0
-27.073999 -17.1105 410.38501 -0.33598688 -0.32654124 0.88344985 0
-27.0734 -16.2486 410.42499 -0.23893884 -0.1257571 0.96285689 0
-26.9209 90.715698 364.67599 0.23485018 0.95309496 -0.19093283 0
-26.9196 -17.4172 410.36301 -0.178423 -0.58858037 0.78850389 0
-26.7708 -17.4044 410.41299 -0.178423 -0.58858037 0.78850389 0
-26.755501 -15.3209 410.58801 -0.17119676 -0.055809677 0.98365492 0
-26.724501 -14.2699 410.69101 -0.21880849 -0.094146386 0.97121537 0
-26.7066 90.5812 364.71899 0.046701841 0.94390529 0.32689705 0
-26.6971 -15.6482 410.57599 -0.2614032 -0.080991559 0.96182573 0
-26.6231 -17.2222 410.60599 -0.178423 -0.58858037 0.78850389 0
-26.5072 -14.7656 410.70001 -0.22405003 -0.089731842 0.97043794 0
-26.4813 90.603401 365.12701 -0.0074053779 0.95314837 0.30241248 0
-26.473 -16.2486 410.586 -0.2422208 -0.094446659 0.96561325 0
-26.179501 90.472702 365.354 0.42870608 0.87402278 -0.22868168 0
-26.173201 -15.1987 410.728 -0.21652502 -0.084282368 0.97263223 0
-26.1425 -15.8868 410.68201 -0.21261464 -0.074283764 0.97430843 0
-26.023001 90.315804 365.87601 -0.036767785 0.96066678 0.27525887 0
-25.892799 -14.8146 410.82599 -0.21873668 -0.079349615 0.97255224 0
-25.8713 -16.6987 410.67499 -0.4465017 -0.17334591 0.8778311 0
-25.8013 -16.919901 410.73001 -0.5517872 -0.51053429 0.65945852 0
-25.650299 90.268898 365.98599 0.31115434 0.95002288 -0.025289014 0
-25.498699 90.008797 366.55701 -0.18458101 0.9809531 0.060504891 0
-25.4219 -14.8795 410.935 -0.2361625 -0.087741815 0.96774411 0
-25.3867 -14.1302 410.996 -0.24085291 -0.083054252 0.9670015 0
-25.274401 -15.4992 410.89099 -0.25505716 -0.12002632 0.9594475 0
-25.2001 -15.9116 410.871 -0.24485977 -0.12315872 0.96170455 0
-25.1992 90.121201 366.54901 0.16709422 0.97024864 0.17520581 0
-24.9289 89.988297 366.401 0.2915124 0.94633335 -0.13954829 0
-24.916 -15.3106 411.02301 -0.22990194 -0.098988466 0.96816653 0
-24.8286 -13.9251 411.16901 -0.24787399 -0.11818303 0.96155667 0
-24.6723 -16.117201 410.98401 -0.17844675 -0.048329536 0.98276192 0
-24.6173 -14.8143 411.13101 -0.22012295 -0.07297235 0.97273886 0
-24.5233 89.856796 367.077 0.31497607 0.87040669 0.37839431 0
-24.448999 -16.846701 410.91599 0.051530879 -0.1612547 0.98556656 0
-24.429501 -16.248699 411.013 -0.023266539 -0.11990776 0.99251235 0
-24.3727 -15.7046 411.10199 -0.22426912 -0.10317022 0.96905071 0
-24.336 -15.105 411.15601 -0.22249727 -0.088205889 0.97093493 0
-24.2607 -16.5485 410.99399 -0.04652464 -0.084925532 0.99530053 0
-24.1471 89.532303 367.67099 -0.10857093 0.97628754 0.18728319 0
-24.1467 -14.0165 411.32901 -0.20266518 -0.095006011 0.97462851 0
-24.000999 -14.4501 411.28699 -0.22612517 -0.09765742 0.9691906 0
-23.999201 -16.9247 410.95901 -0.10354032 -0.12632932 0.98656994 0
-23.9606 89.458504 367.07501 0.30305532 0.91885263 -0.25271985 0
-23.9242 89.567703 367.67099 0.30434194 0.94899702 -0.082344368 0
-23.849199 -14.7864 411.306 -0.22670916 -0.099207141 0.96889675 0
-23.7722 89.2313 367.00101 0.42685476 0.84604955 -0.3193669 0
-23.771 -16.0222 411.211 -0.22907765 -0.12766929 0.9649995 0
-23.736 -15.1052 411.314 -0.23982514 -0.071290947 0.96819496 0
-23.623899 89.419296 367.966 0.19658399 0.89811277 0.39338046 0
-23.5473 -16.921101 411.10999 -0.22439633 -0.3300384 0.91690838 0
-23.547199 -16.434999 411.19299 -0.19668776 -0.23951063 0.95076209 0
-23.5287 -13.9985 411.46701 -0.16953544 -0.088020563 0.9815855 0
-23.486601 89.342903 367.535 0.41767639 0.87917393 -0.22934617 0
-23.3979 -17.0322 410.98801 -0.22439633 -0.3300384 0.91690838 0
-23.3421 89.315498 367.68701 0.63930142 0.76062196 -0.11290651 0
-23.3235 89.220901 368.28 0.050461221 0.87961543 0.47300139 0
-23.2264 88.601898 366.92599 0.67165148 0.56091213 -0.48400605 0
-23.051001 88.792 367.39801 0.67276502 0.58765966 -0.44949234 0
-23.0228 -16.899799 411.17401 -0.067256764 -0.78878981 0.61097234 0
-22.9482 -14.7484 411.52399 -0.14931302 0.0075069629 0.98876148 0
-22.855 -15.4241 411.42999 -0.17172758 -0.15413013 0.97301263 0
-22.8333 -16.695999 411.34 -0.21694851 -0.4151392 0.8835116 0
-22.8172 -15.827 411.379 -0.206599 -0.10257076 0.9730345 0
-22.797199 -15.0475 411.51599 -0.16783741 -0.067961529 0.98346931 0
-22.7652 88.036499 366.92499 0.68519455 0.53964657 -0.48917285 0
-22.610701 -17.041901 410.95001 -0.15876867 -0.92534345 0.34428483 0
-22.497999 -14.9733 411.57599 -0.10659423 -0.15634416 0.98193389 0
-22.4848 88.8517 368.35199 -0.061233934 0.8271175 -0.55868328 0
-22.479099 -16.1828 411.43201 -0.15717281 -0.046350405 0.9864828 0
-22.4319 89.1763 368.95401 -0.10851792 0.93457961 -0.33879903 0
-22.4228 -14.7483 411.61301 -0.12187992 0.025219064 0.9922244 0
-22.4212 -16.916 411.345 -0.04326098 -0.80599296 0.59034216 0
-22.382401 88.284897 367.798 0.68312317 0.57388306 -0.45166469 0
-22.3472 -16.622601 411.51801 -0.19562012 -0.18391368 0.96328008 0
-22.317801 88.496399 368.19501 0.65472311 0.55551553 -0.51258183 0
-22.309099 87.789803 367.28799 0.68031949 0.55458224 -0.47917008 0
-22.2178 88.5998 368.42599 0.64167285 0.56004983 -0.52402306 0
-22.187099 89.116699 369.32401 0.73391604 0.67569155 0.069341101 0
-22.1387 88.971497 368.96701 0.52025867 0.76828343 -0.37292293 0
-21.9506 87.665497 367.65701 0.68114603 0.57187146 -0.45716858 0
-21.864799 88.030602 368.276 0.68068188 0.57537538 -0.45344833 0
-21.846901 87.275902 367.36499 0.69620758 0.49346823 -0.52132916 0
-21.809401 88.596703 368.88 0.75758624 0.59751981 -0.26274163 0
-21.7486 -16.623899 411.61301 -0.12678166 -0.12982297 0.98339838 0
-21.7481 -16.924 411.43799 -0.39811984 -0.59798717 0.69563776 0
-21.747801 -15.3109 411.556 -0.21027869 -0.15201722 0.96575028 0
-21.7101 -16.0993 411.53201 -0.15663587 0.079187058 0.9844768 0
-21.671499 -16.472401 411.59698 -0.10814697 -0.035608109 0.99349701 0
-21.6507 88.130402 368.70099 0.69965494 0.57169574 -0.42854047 0
-21.577 -15.5723 411.565 -0.21328744 -0.082957111 0.97346115 0
-21.565901 87.402 367.892 0.69085914 0.56457907 -0.45162389 0
-21.538401 88.482498 369.47198 0.47098544 0.86072904 0.19317938 0
-21.4487 -16.023701 411.55499 -0.19544683 0.075788364 0.97778147 0
-21.445101 88.072998 370.082 0.19773291 0.93339831 0.29944831 0
-21.2962 -16.766899 411.58801 -0.12257023 -0.51113188 0.85071778 0
-21.252001 87.918098 368.996 0.68019176 0.60643715 -0.41179261 0
-21.1479 -16.622499 411.746 -0.17550001 -0.53337502 0.82747257 0
-21.076099 88.072701 369.55301 0.62986952 0.75615203 -0.17747822 0
-20.9305 88.0466 370.07401 0.57968795 0.73666108 0.34827042 0
-20.924601 87.275803 368.698 0.69791228 0.55265468 -0.45551208 0
-20.866301 -16.8634 411.49899 -0.03093124 -0.88309473 0.46817404 0
-20.8589 87.710503 369.397 0.71242982 0.63221669 -0.30454198 0
-20.847601 -16.6152 411.76401 0.014884055 -0.7030443 0.71099031 0
-20.605499 87.295303 369.22501 0.71330243 0.56541431 -0.41413322 0
-20.5814 87.550102 369.66699 0.6994642 0.63937676 -0.31929171 0
-20.545 -16.765699 411.59399 -0.10500738 -0.7617867 0.63926089 0
-20.3971 87.773102 370.97501 0.37326384 0.76028723 0.5316366 0
-20.341499 87.530998 370.116 0.52364838 0.83976144 -0.143503 0
-20.332701 87.7118 370.67801 0.26298699 0.94502491 -0.19433407 0
-20.0464 87.538498 370.79999 0.59074831 0.63850093 0.49328795 0
-19.9863 -16.822599 411.70099 -0.062891439 -0.88183808 0.46733955 0
-19.9466 -15.6481 411.87701 -0.1314254 -0.054121587 0.9898476 0
-19.8634 -16.6161 412.10599 -0.22858688 -0.86772585 0.4413614 0
-19.7981 -16.8983 411.62601 -0.062891439 -0.88183808 0.46733955 0
-19.5261 -14.7861 411.961 -0.070927493 -0.012200722 0.99740684 0
-19.355301 87.135201 371.38901 0.44658491 0.87268758 0.19742924 0
-19.346701 -16.024099 411.979 -0.071415715 0.28169197 0.9568435 0
-19.198299 -16.824699 411.62601 0.031651229 -0.90912056 0.41532877 0
-18.953699 -14.7298 412.04401 -0.14556599 -0.05260168 0.98794919 0
-18.7481 -16.648399 412.04501 -0.019911833 -0.79379022 0.60786563 0
-18.7474 -15.8357 412.01599 -0.21171834 0.13050157 0.9685787 0
-18.636801 -15.499 412.047 -0.22078936 0.026395371 0.97496426 0
-18.5285 86.574501 371.87799 0.44409001 0.87203783 -0.20575252 0
-18.4478 -16.8414 411.77499 -0.076357499 -0.80537176 0.5878315 0
-18.4284 -14.9828 412.11099 -0.1240278 -0.042257156 0.99137855 0
-18.3689 -16.5145 412.15399 -0.17599344 -0.11858875 0.97722208 0
-18.333599 -15.3096 412.108 -0.22078936 0.026395371 0.97496426 0
-18.2596 -14.1484 412.121 -0.14879203 -0.033185083 0.98831153 0
-18.2227 -16.3237 412.285 -0.11046852 -0.07960251 0.99068671 0
-18.221201 -16.099701 412.17599 -0.12710032 0.097121805 0.98712355 0
-18.071699 -16.1728 412.254 0.043657541 0.13224958 0.99025452 0
-17.9977 -15.0483 412.16 -0.10709637 -0.049146354 0.99303323 0
-17.9825 86.283401 372.51099 0.84679192 0.52161258 0.10422925 0
-17.9228 -16.1731 412.263 0.043657541 0.13224958 0.99025452 0
-17.921499 85.996696 373.06 0.33709398 0.9125405 0.23159774 0
-17.8862 -16.4065 412.211 0.14630313 0.025920704 0.98890013 0
-17.772699 -16.023199 412.19199 0.010004206 0.082916796 0.99650627 0
-17.772499 85.835197 373.26599 0.15883388 0.86730939 0.47174799 0
-17.623301 -14.9362 412.19699 -0.090327121 -0.052602127 0.99452204 0
-17.5485 -16.9198 411.55499 -0.34079012 -0.8346175 0.43275365 0
-17.548 -13.8111 412.285 -0.1088952 -0.086627759 0.99027139 0
-17.5473 -16.8312 411.77301 -0.48267975 -0.7289018 0.48551252 0
-17.510599 85.753998 372.54901 0.46858999 0.86789435 0.16487198 0
-17.473101 -14.5421 412.224 -0.04076178 -0.089349777 0.99516588 0
-17.472799 -16.4688 412.18399 0.084771655 -0.12326318 0.98874664 0
-17.337999 85.830101 373.078 0.39555281 0.88910091 0.23029874 0
-17.3234 -16.929199 411.55499 -0.34079012 -0.8346175 0.43275365 0
-17.320801 -16.6173 412.177 -0.27013984 -0.34617192 0.89843726 0
-17.2519 85.742599 373.08099 0.66782606 0.73307341 -0.12888631 0
-17.247499 -16.2486 412.21701 -0.094465464 -0.015109378 0.99541348 0
-17.247499 -15.9869 412.19 -0.063580133 -0.011602559 0.99790931 0
-17.247499 -16.2486 412.21701 -0.094465464 -0.015109378 0.99541348 0
-17.2474 -15.3853 412.19901 -0.044068296 -0.001364017 0.99902761 0
-17.2111 -13.8492 412.314 -0.078414604 -0.10520989 0.99135363 0
-17.172199 -16.850901 412.07401 -0.24581648 -0.81784064 0.5202989 0
-17.0229 85.516602 373.67801 0.091764711 0.90514994 0.41506964 0
-16.9666 -16.1735 412.23999 -0.097152852 -0.017381312 0.99511766 0
-16.947901 -15.4234 412.22299 -0.16415492 -0.022749465 0.9861722 0
-16.8365 -14.4305 412.26001 -0.093315959 -0.084201254 0.99206972 0
-16.760799 -16.3232 412.242 -0.028774116 -0.21009767 0.97725689 0
-16.7267 85.317703 373.966 0.52385664 0.68992585 0.49957633 0
-16.7251 85.376503 373.677 0.35298434 0.90858132 0.22334296 0
-16.723301 -16.0987 412.24799 -0.026209395 0.031941146 0.99914604 0
-16.5721 -16.8346 412.10001 -0.03855136 -0.27067089 0.9618997 0
-16.429501 85.065399 373.685 0.76587212 0.6388396 0.072964616 0
-16.4237 85.067398 374.34698 0.36457074 0.84802586 0.38463008 0
-16.4223 -13.9214 412.358 -0.054586254 -0.12505691 0.99064684 0
-16.4028 -14.7491 412.33099 -0.16618232 -0.0030506954 0.9860903 0
-16.348301 -16.6957 412.15302 -0.027723338 -0.27801979 0.96017522 0
-16.2726 -15.0483 412.37701 -0.07610926 -0.13823652 0.98747051 0
-16.123199 -16.3978 412.23901 -0.0046997233 -0.19031084 0.98171264 0
-16.1224 -15.0473 412.40302 -0.050448906 -0.10494097 0.99319804 0
-16.048201 -16.695801 412.16699 -0.019218564 -0.28395849 0.95864397 0
-16.048201 -17.215099 410.98999 0.00459691 -0.9888764 0.14866857 0
-16.048201 -16.695801 412.16699 -0.019218564 -0.28395849 0.95864397 0
-16.0016 -15.9204 412.284 0.0055934996 -0.10743044 0.99419689 0
-15.8973 -17.110001 411.51599 -0.0046179667 -0.95930082 0.28234845 0
-15.7676 -14.6738 412.435 0.027727621 -0.12938638 0.99120653 0
-15.7483 -16.9153 412.09601 -0.1492117 -0.85807985 0.49136016 0
-15.6729 -14.2986 412.45099 -0.14282365 -0.027326664 0.98937082 0
-15.5982 -16.7628 412.142 -0.10805988 -0.41484827 0.90345114 0
-15.598 -15.1999 412.336 0.016273038 -0.13576375 0.99060756 0
-15.598 -15.8737 412.27399 -0.067600138 -0.088554256 0.99377483 0
-15.598 -15.1999 412.336 0.016273038 -0.13576375 0.99060756 0
-15.5338 84.6922 374.72501 0.16202675 0.96855718 0.18879703 0
-15.5245 84.5858 374.87601 0.16202675 0.96855718 0.18879703 0
-15.5235 -14.5999 412.44501 -0.037560526 -0.097796902 0.99449736 0
-15.448 -16.889799 412.07501 0.023481259 -0.8596651 0.5103181 0
-15.4291 -17.096001 411.513 0.016929086 -0.91134799 0.4112885 0
-15.3738 -17.2549 410.35199 -0.13847578 -0.9903596 0.0035063406 0
-15.0733 -13.8861 412.53601 -0.076969102 -0.071611524 0.99445844 0
-15.0727 -16.622299 412.30801 -0.1996482 -0.47638062 0.85627222 0
-15.037 -17.35 410.98901 -0.19771051 -0.93250829 0.30222309 0
-14.9361 84.028397 374.87601 0.54046166 0.81083477 -0.22460662 0
-14.9266 84.181801 375.474 0.23687865 0.95050001 -0.20109271 0
-14.8577 -15.0768 412.44 -0.11139432 -0.16694123 0.97965401 0
-14.6983 -17.241301 411.552 -0.17900975 -0.93344015 0.31087771 0
-14.6974 -17.422001 411.026 -0.17828923 -0.93623096 0.30279461 0
-14.6962 -17.462 410.875 -0.17374422 -0.98337811 0.052730061 0
-14.6245 -14.1491 412.543 -0.099214338 -0.037546091 0.99435747 0
-14.6199 -17.0385 412.18201 -0.37610772 -0.7068032 0.59914291 0
-14.5483 -17.517 409.789 -0.13068771 -0.98240846 -0.13339546 0
-14.5469 -17.4638 410.39001 -0.13187388 -0.99066621 0.034491818 0
-14.5287 83.908401 375.48001 0.66277403 0.7359786 -0.13807991 0
-14.4745 -14.5985 412.582 -0.13599874 -0.085297517 0.98703021 0
-14.4727 -16.173599 412.397 -0.2424148 -0.16034108 0.9568311 0
-14.4722 -16.9214 412.319 -0.1639014 -0.49189189 0.8550899 0
-14.4715 -16.471901 412.54501 -0.2424148 -0.16034108 0.9568311 0
-14.398 -17.5152 410.87701 -0.17374422 -0.98337811 0.052730061 0
-14.3944 -17.083099 412.189 -0.26188663 -0.72975576 0.63156307 0
-14.3538 83.664703 375.466 0.66277403 0.7359786 -0.13807991 0
-14.3233 -16.3237 412.64099 -0.081541292 -0.24763234 0.96541661 0
-14.3224 -17.4512 411.10001 -0.161835 -0.93816876 0.30602083 0
-14.3184 -17.5625 409.67899 -0.081142083 -0.9909966 -0.10649741 0
-14.2536 83.694901 376.07501 0.36861315 0.92402947 0.10145871 0
-14.2485 -14.4868 412.60001 0.00078112533 -0.069792204 0.99756122 0
-14.2479 -16.1731 412.513 -0.081541292 -0.24763234 0.96541661 0
-14.173 -15.0492 412.52301 -0.043326128 -0.092115201 0.99480534 0
-13.9515 83.408897 376.534 0.22458822 0.90256202 0.36734444 0
-13.9488 -17.5571 410.35199 -0.17668267 -0.98424059 0.0073278942 0
-13.8717 -16.9214 412.367 -0.059120182 -0.50312215 0.86219078 0
-13.8361 -17.3936 411.55301 -0.20153254 -0.95852983 0.20150743 0
-13.7386 83.272903 376.15302 0.56365818 0.82595468 0.0094021587 0
-13.7294 83.331497 376.66599 0.32101697 0.87640768 0.35896751 0
-13.722 -17.3445 412.121 -0.28662226 -0.88247472 0.37294236 0
-13.6482 -14.5244 412.54001 -0.0091746338 -0.25111938 0.96791261 0
-13.6466 -17.6311 410.39001 -0.2627396 -0.96437019 0.030952241 0
-13.5739 -17.4823 411.55301 -0.29320487 -0.94063723 0.17097506 0
-13.5732 82.890999 377.19901 0.15321721 0.9335202 0.32413664 0
-13.5726 -17.4175 412.07599 -0.66736543 -0.69049025 0.27901 0
-13.572 -17.6385 410.93201 -0.32181978 -0.93489403 0.14968359 0
-13.5004 -17.6784 409.79001 -0.22350864 -0.97321492 -0.053820163 0
-13.3861 -16.004801 412.45599 -0.012396171 0.002726278 0.99991947 0
-13.2348 -15.432 412.513 -0.11807923 -0.090969525 0.98882854 0
-13.1978 -17.7195 410.87601 -0.2287173 -0.96255296 0.14553402 0
-13.194 82.964401 376.755 0.18468398 0.97613037 -0.11428607 0
-13.1263 82.811996 377.267 0.20160136 0.97106159 0.12804793 0
-12.9826 82.771103 377.267 0.20160136 0.97106159 0.12804793 0
-12.8969 -17.851 410.35101 -0.24615735 -0.96286213 0.11091937 0
-12.7486 -15.9852 412.52301 -0.041563366 0.004601148 0.9991253 0
-12.7475 -17.922001 409.754 -0.3354201 -0.93227702 -0.13547285 0
-12.6718 -17.424601 412.14899 -0.25957865 -0.92489016 0.27784371 0
-12.64 -17.899401 411.479 -0.20334077 -0.94933641 -0.23960981 0
-12.5961 -17.9489 410.276 -0.20230076 -0.97746199 0.060352791 0
-12.5603 -18.123699 411.47699 -0.20334077 -0.94933641 -0.23960981 0
-12.5378 -17.9671 411.56699 -0.20334077 -0.94933641 -0.23960981 0
-12.5234 -17.2237 412.53 0.3394824 -0.5937475 0.72953111 0
-12.5233 -17.4233 412.22601 -0.25957865 -0.92489016 0.27784371 0
-12.5204 -17.8421 410.88 -0.26791453 -0.96218896 0.049134284 0
-12.4516 82.310997 377.866 0.28775993 0.86067158 0.42004597 0
-12.3759 -18.016899 410.27701 -0.1720157 -0.98310441 -0.062580489 0
-12.3619 82.355598 377.35501 0.45191798 0.88183427 -0.13467914 0
-12.2189 -18.123699 411.77701 -0.14196442 -0.9845866 -0.10215376 0
-12.1486 81.553596 378.573 0.42958593 0.69908768 0.57160509 0
-12.0957 82.169098 377.871 0.28775993 0.86067158 0.42004597 0
-12.0748 -18.0518 410.802 0.0045759436 -0.98997116 0.14119561 0
-11.9589 82.060997 377.875 0.58580816 0.71310675 0.38510719 0
-11.9263 -18.0923 410.802 -0.060923658 -0.99136502 -0.11611925 0
-11.9248 -18.0942 411.40302 0.51502812 -0.85627621 -0.039206035 0
-11.9243 -18.007401 410.05301 0.0034931009 -0.99764389 -0.068515785 0
-11.922 -17.6672 412.194 -0.020669254 -0.89926952 0.43690631 0
-11.8897 81.707703 378.40399 0.48946825 0.7472024 0.44956583 0
-11.7766 -17.9382 410.354 0.26593456 -0.96384019 -0.017054563 0
-11.6911 -18.123699 411.77701 0.46164462 -0.68106151 0.56836557 0
-11.6231 -17.3302 412.58701 0.45075673 -0.82002771 0.35266545 0
-11.6215 -17.4237 412.556 0.45075673 -0.82002771 0.35266545 0
-11.599 81.5476 377.991 0.52967501 0.79272199 0.30172208 0
-11.3616 -17.511299 412.07501 0.46260226 -0.83501858 0.29789788 0
-11.3441 -17.410801 412.36499 0.45075673 -0.82002771 0.35266545 0
-11.3189 81.377296 378.478 0.43397161 0.84794688 0.3043924 0
-11.1799 -17.220301 412.15201 0.62298298 -0.62130916 0.47525477 0
-10.8777 80.9757 379.00299 0.18406789 0.82280135 0.537696 0
-10.7176 80.853302 379.078 0.60772544 0.67277086 0.42195877 0
-10.4417 -15.3447 412.19 0.84608573 -0.34258416 0.40838102 0
-10.4331 -14.6704 412.79401 0.62307632 -0.31308481 0.71676624 0
-10.1971 -14.6665 412.52399 0.67778593 -0.5063293 0.53313863 0
-10.136 80.304703 379.673 0.63054788 0.77235216 0.076690972 0
-10.1234 -14.2237 412.78101 0.53303605 -0.22746545 0.81494296 0
-9.9748201 79.862198 380.26401 0.38250297 0.84553808 0.37250075 0
-9.8249197 79.790199 380.31 0.29745632 0.79800981 0.52411836 0
-9.5508299 -13.247 412.694 0.3920913 -0.81896549 0.41899872 0
-9.5350304 79.664597 380.272 0.71885085 0.69418699 0.036849208 0
-9.5233498 -12.7237 412.96701 0.56643587 -0.15515624 0.80936825 0
-9.5181999 -13.0199 412.74899 0.56643587 -0.15515624 0.80936825 0
-9.3071098 -11.8613 412.151 0.87142456 -0.27044946 0.40923876 0
-9.3034401 79.233597 380.759 0.56111181 0.75798845 0.33257633 0
-9.1502399 -11.3358 412.15201 0.95425123 0.11845066 0.2745434 0
-9.1143799 78.986504 380.99701 0.22865006 0.75137532 0.61899459 0
-8.9573698 -10.247 412.689 0.62408143 -0.45485398 0.63531899 0
-8.92805 78.628304 381.35699 0.37524235 0.81335634 0.44457245 0
-8.8992901 78.908501 380.87299 0.74967861 0.66149157 0.020268572 0
-8.88943 -10.544 412.15399 0.92278886 -0.33192986 0.19566107 0
-8.8559504 -9.64608 412.784 0.5521729 -0.46638358 0.69107991 0
-8.7798796 78.455704 381.50299 0.43108997 0.77741092 0.4580324 0
-8.6886396 -10.0027 412.19 0.86367285 -0.28673121 0.41455328 0
-8.66749 -9.4956503 412.961 0.73199624 -0.67591417 0.085565925 0
-8.62848 -9.7144604 412.95901 0.73199624 -0.67591417 0.085565925 0
-8.6272697 -8.9737396 412.94601 0.49684227 -0.30413374 0.81280404 0
-8.6249399 78.549202 380.98801 0.51766199 0.70647204 0.48262131 0
-8.5799198 -9.5948 412.112 0.87269932 -0.47410098 0.11672245 0
-8.5501099 77.713501 382.18701 0.37084964 0.64104354 0.67196262 0
-8.5477104 77.565201 382.284 0.37084964 0.64104354 0.67196262 0
-8.4222002 -9.37533 412.73001 0.81928211 -0.40624937 0.40464577 0
-8.3993196 78.003098 381.83801 0.27815169 0.74653578 0.60441369 0
-8.3343697 -9.2710199 412.67499 0.81285125 -0.39151886 0.43126076 0
-8.33284 -8.9717903 412.91199 0.49684227 -0.30413374 0.81280404 0
-8.3285799 78.157997 381.47 0.63111788 0.67585391 0.38067272 0
-8.3269997 77.702599 382.19901 0.37084964 0.64104354 0.67196262 0
-8.3233604 -9.1237097 412.96201 0.49684227 -0.30413374 0.81280404 0
-8.26682 -8.8216896 412.77899 0.61419469 -0.0044083633 0.78914219 0
-8.17451 -7.1781201 412.58499 0.71698642 0.30275947 0.62790698 0
-8.0284796 -7.7745299 412.79199 0.89521825 -0.14681329 0.42074955 0
-8.0233202 -7.6238599 412.83099 0.94940585 0.29467115 0.10861579 0
-7.9172301 -7.9963198 412.19 0.91633546 -0.37693492 0.1350904 0
-7.8671298 77.3526 382.142 0.63421583 0.75607008 0.16164269 0
-7.8306499 -7.6979198 412.15201 0.95757461 -0.25481334 0.13461444 0
-7.7947898 -7.6237102 412.677 0.84651816 0.38768932 0.36483416 0
-7.7411499 77.265198 382.07501 0.63873553 0.72992444 0.24336642 0
-7.7330999 76.8638 382.66501 0.82136881 0.42600989 0.37930048 0
-7.7319298 -6.1192198 412.42099 0.469843 -0.35900372 0.80645144 0
-7.72644 -7.0237198 412.37701 0.7792381 0.094177864 0.61961156 0
-7.4224701 -5.4443698 412.54099 0.40673837 -0.19131161 0.8932882 0
-7.1248002 76.069099 382.75201 0.81194919 0.57734478 0.086090147 0
-7.1219301 -5.03372 412.26401 0.66376829 -0.089491576 0.7425651 0
-7.0713201 -4.9265499 412.16 0.95955759 -0.0018289787 0.28150651 0
-7.0308199 75.779099 383.27802 0.49548063 0.7131902 0.49584141 0
-7.0001998 -4.7879901 412.23199 0.38776797 -0.1983465 0.90016371 0
-6.9078102 75.548103 383.27701 0.83822352 0.42140704 0.34611765 0
-6.7307801 -2.3542299 412.02802 0.64840215 -0.0260254 0.76085299 0
-6.6794701 74.417198 384.43399 0.11640701 0.97336686 0.19750017 0
-6.6764898 74.948502 383.965 0.75290954 0.64128518 0.14792061 0
-6.5415702 74.864799 383.871 0.75290954 0.64128518 0.14792061 0
-6.5252199 -2.5988901 412.09 0.63324016 0.02883883 0.77341789 0
-6.5244799 -2.2988701 412.061 0.72111571 0.10641294 0.68459362 0
-6.5135002 74.403702 384.33401 0.80604786 0.39295509 0.44257557 0
-6.4112902 73.450996 384.99701 0.48141167 0.56933278 0.66641051 0
-6.3786802 74.348602 383.95099 0.86393315 0.33985734 0.37164032 0
-6.2074199 -2.4454 411.58701 0.72128075 -0.096285179 0.68591785 0
-6.0504599 73.603104 384.21399 0.67041028 0.73437744 0.10601836 0
-5.98946 -1.54617 411.76501 0.56469995 -0.22964883 0.7927013 0
-5.9860501 73.469101 384.58701 0.41560265 0.80551177 0.42240408 0
-5.9264102 72.738998 385.37299 0.50842541 0.56987482 0.64555889 0
-5.8750501 73.219101 384.772 0.732732 0.45199922 0.50872439 0
-5.8407998 72.919601 385.07101 0.77715343 0.53337842 0.33397609 0
-5.6515002 -1.02309 411.47601 0.94460869 -0.22390972 0.23995584 0
-5.5890398 72.3983 385.11401 0.88403755 0.39685467 0.24694943 0
-5.5485501 71.878197 385.79501 0.67440325 0.57724518 0.46040013 0
-5.4293399 71.2957 386.271 0.43793413 0.81214678 0.38552725 0
-5.3842602 0.55164701 411.17599 0.68490553 -0.037056938 0.72768897 0
-5.37427 71.415901 386.04599 0.85969424 0.46411559 0.21336 0
-5.3362398 0.851807 411.17499 0.44729251 -0.11310174 0.88720763 0
-5.3315601 -0.048469499 411.17599 0.66964579 -0.19315588 0.71712297 0
-5.32864 1.52645 411.28699 0.71740806 -0.11379947 0.68729568 0
-5.2902498 71.017799 386.422 0.58958644 0.4456121 0.67365992 0
-5.2596998 71.1129 386.271 0.8583293 0.46917042 0.20772567 0
-5.1974001 1.00299 410.92999 0.95818418 -0.12941733 0.25521415 0
-5.0402298 1.75398 410.98599 0.90085596 -0.25459594 0.35162404 0
-5.0300798 70.2024 386.957 0.603441 0.70445299 0.3736375 0
-5.0036201 1.9767801 410.996 0.86746073 0.05859594 0.49404296 0
-4.9733901 3.0258801 410.96301 0.79049808 -0.26788256 0.5507738 0
-4.95577 70.0709 386.95901 0.603441 0.70445299 0.3736375 0
-4.9159098 2.8763499 410.94299 0.79049808 -0.26788256 0.5507738 0
-4.78127 2.65169 410.72601 0.78443474 -0.29904377 0.54335529 0
-4.7701201 69.022003 387.47198 0.73937094 0.43504384 0.51387501 0
-4.7648001 3.3271 410.84299 0.84153587 -0.037381083 0.53890634 0
-4.7294102 4.0759401 410.88699 0.59383452 0.1396848 0.79236907 0
-4.7262998 4.22539 410.85501 0.57817513 0.1105857 0.80838376 0
-4.7046599 68.409401 387.89301 0.67656535 0.45706207 0.57736784 0
-4.6972198 2.80194 410.35199 0.95262432 -0.18167821 0.24392615 0
-4.6933098 68.8722 387.474 0.73765397 0.44968143 0.50363994 0
-4.6835499 67.823502 388.26801 0.47596279 0.35174185 0.8060627 0
-4.6430502 67.971703 388.13901 0.47596279 0.35174185 0.8060627 0
-4.5771699 66.022301 389.258 0.56756502 0.62825477 0.53213328 0
-4.5537901 68.274803 387.552 0.67656535 0.45706207 0.57736784 0
-4.5386701 3.4047799 410.35101 0.91230112 -0.25618306 0.31949484 0
-4.4323702 65.793098 389.31201 0.69838685 0.51371515 0.49834991 0
-4.4275098 66.922501 388.78101 0.65258533 0.26688838 0.70915651 0
-4.42593 67.215599 388.52701 0.53832215 0.54543334 0.64242643 0
-4.3530898 4.0776401 410.35001 0.7986576 -0.17672043 0.57525295 0
-4.3346601 4.9760599 410.37 0.82068348 0.32522336 0.46979618 0
-4.2711 4.6015601 410.332 0.8863675 0.064309299 0.45849425 0
-4.19313 4.9013801 410.12601 0.91391528 0.23164512 0.33331579 0
-4.1842799 6.2515502 409.978 0.67401916 0.13730159 0.72584188 0
-4.1671801 65.493103 389.23199 0.85924667 0.42868948 0.27914244 0
-4.1554899 8.5948095 409.565 0.64979237 -0.083362803 0.75552666 0
-4.14819 5.9491401 409.96799 0.72071934 0.10138448 0.68577319 0
-4.1473899 66.776299 388.677 0.65258533 0.26688838 0.70915651 0
-4.12642 7.8255401 409.65601 0.69406885 0.53370363 0.48314473 0
-4.1240201 9.5509796 409.55301 0.46660942 -0.18178779 0.86558008 0
-4.1024699 64.818398 389.74701 0.70336151 0.43456829 0.56252378 0
-4.07061 65.273903 389.276 0.85924667 0.42868948 0.27914244 0
-4.0521302 10.8236 409.29901 0.45527035 0.20366187 0.8667472 0
-4.0162201 64.381401 389.99899 0.86505181 0.38748401 0.31865573 0
-3.9763701 11.3502 409.16501 0.57601285 0.22486219 0.78590471 0
-3.9444699 64.441101 389.38901 0.90510297 0.42105061 0.05920301 0
-3.8691101 64.0774 389.87701 0.86505181 0.38748401 0.31865573 0
-3.82585 62.349602 391.16699 0.75946987 0.4445411 0.47496182 0
-3.81587 63.395401 390.543 0.75821352 0.47860599 0.4427737 0
-3.7072799 10.5977 409.19299 0.78189754 0.36907545 0.50241375 0
-3.66451 9.9295502 409.14499 0.8946538 -0.10548606 0.43412822 0
-3.64592 62.9496 390.47501 0.88751364 0.27359679 0.37076187 0
-3.6034701 62.351002 390.55099 0.96313804 0.056519203 0.26300326 0
-3.5933299 61.8232 391.07501 0.90366256 0.41302678 0.11314949 0
-3.59254 12.7012 408.776 0.57844716 -0.024123119 0.81536305 0
-3.5818 10.1513 409.07599 0.93640608 -0.10171096 0.33585492 0
-3.5792699 11.2015 408.77499 0.846443 -0.19458941 0.49565035 0
-3.5703399 10.6757 409.07599 0.86217636 0.20998004 0.46104258 0
-3.56673 59.461201 392.33499 0.85662639 0.42500728 0.29250649 0
-3.55269 12.4763 408.77701 0.58294427 0.052746166 0.81079829 0
-3.5356801 60.176498 391.978 0.67603225 0.078252487 0.73270524 0
-3.5311501 13.3002 408.66299 0.41613138 0.11208247 0.90237033 0
-3.5281799 61.222698 391.61899 0.73777735 0.44870511 0.50432962 0
-3.5276501 58.370602 392.97299 0.58977473 0.59539497 0.54559195 0
-3.5274999 14.6874 408.452 0.48382357 0.20942418 0.84973896 0
-3.5254099 15.0254 408.39001 0.47137502 0.17200568 0.86499691 0
-3.52367 15.6262 408.27701 0.60151035 0.13385801 0.78757054 0
-3.4893 59.271 392.34601 0.85662639 0.42500728 0.29250649 0
-3.4877801 11.9512 408.77399 0.63545984 -0.11800341 0.76306355 0
-3.4500799 13.0768 408.57501 0.43147942 0.14336149 0.89065874 0
-3.41856 13.5247 408.56 0.39518866 0.058859728 0.91671228 0
-3.40956 58.148602 392.99701 0.58977473 0.59539497 0.54559195 0
-3.3764601 57.0224 393.642 0.43289703 0.38648129 0.81439078 0
-3.1733201 16.001499 407.87601 0.94032383 -0.18438403 0.28599593 0
-3.0985899 56.880798 393.57999 0.53010249 0.54534078 0.64930326 0
-3.0513899 16.751801 407.35199 0.99868721 -0.01367239 0.049364731 0
-3.0071101 16.7533 407.87299 0.9633168 -0.10062148 0.24878924 0
-2.99965 56.8699 393.46899 0.57824045 0.65225023 0.49010977 0
-2.9839599 57.021999 393.32199 0.57824045 0.65225023 0.49010977 0
-2.9838901 56.648701 393.62399 0.47238308 0.46216622 0.7505042 0
-2.94345 52.3363 395.86801 0.53630471 0.45050526 0.71373826 0
-2.9361801 51.162102 396.452 0.71735334 0.2683987 0.64293569 0
-2.9349401 17.5748 407.867 0.44265863 0.095590211 0.89158052 0
-2.92834 55.821098 394.16501 0.61408049 0.63421863 0.46975732 0
-2.9270899 18.1759 407.81799 0.77277565 0.09546639 0.62745833 0
-2.9256599 18.625 407.724 0.49136695 0.41192344 0.76738358 0
-2.9254601 51.699902 396.12799 0.53259927 0.36608508 0.76309878 0
-2.92539 21.100201 407.16101 0.62105995 0.12268667 0.77410108 0
-2.92366 23.4261 406.55099 0.43962055 0.420739 0.79354423 0
-2.92347 19.451099 407.54099 0.34636998 0.035882566 0.93741149 0
-2.9079599 17.3507 407.86801 0.52603251 0.020471562 0.85021806 0
-2.8859899 54.101299 395.07401 0.56959921 0.15261044 0.80763036 0
-2.8847899 51.923401 395.99701 0.68428171 0.29000464 0.6690709 0
-2.87888 55.366001 394.43701 0.58294755 0.13532695 0.80116087 0
-2.8492301 25.3001 406.04099 0.48912641 0.54332322 0.68231606 0
-2.8223801 55.683201 394.177 0.61408049 0.63421863 0.46975732 0
-2.81301 50.950001 396.52499 0.68161166 0.43935323 0.58512759 0
-2.7741599 28.7509 404.95001 0.53582966 0.31062761 0.78510958 0
-2.77212 28.301901 405.078 0.4443756 0.28216422 0.85024333 0
-2.6997499 18.9268 407.276 0.99995166 -0.0098340735 -3.880612e-05 0
-2.67382 51.175598 395.95099 0.88719368 0.25417876 0.38507205 0
-2.6670799 19.7514 407.27802 0.97469997 -0.014962585 0.22301582 0
-2.6438501 20.2012 406.677 0.99903047 -0.013105798 0.042028233 0
-2.64361 20.8001 406.67499 0.94005096 0.020085614 0.34044206 0
-2.6273301 24.7728 406.17999 0.57514715 0.26580709 0.77366167 0
-2.6250601 24.6252 406.22601 0.53028399 0.13495485 0.8370102 0
-2.6250501 53.424599 395.33499 0.6149928 0.41390705 0.67116672 0
-2.62498 53.2752 395.384 0.6149928 0.41390705 0.67116672 0
-2.5781701 54.476101 394.77899 0.43864191 0.27116755 0.85677385 0
-2.5539701 21.405001 406.67599 0.93808115 -0.13208736 0.32024467 0
-2.5295 22.0739 406.76199 0.75665116 0.2741299 0.59357542 0
-2.51402 24.2505 406.18201 0.47430971 0.027134156 0.87993979 0
-2.5124099 47.4986 398.168 0.66817355 0.25095034 0.70040566 0
-2.48647 22.1521 406.15302 0.9474327 0.19157267 0.25626388 0
-2.4709001 50.200199 396.513 0.89337701 0.38525259 0.2312097 0
-2.39785 33.102402 403.41599 0.52317959 0.33585936 0.78325063 0
-2.39219 23.1266 406.22699 0.70963639 -0.086736463 0.69920886 0
-2.38586 24.2512 406.077 0.94487149 0.31946307 0.071841575 0
-2.3856499 24.9238 405.91699 0.70359361 0.3395966 0.62420362 0
-2.3708601 49.214901 397.21201 0.71254802 0.39770553 0.57801872 0
-2.36813 25.8255 405.62399 0.79003888 0.29716778 0.53621811 0
-2.36553 23.351 406.07401 0.91747689 0.09102013 0.3872357 0
-2.36377 23.951099 406.07501 0.83409131 0.20974056 0.51019657 0
-2.3446801 29.181801 404.595 0.62737596 0.049981616 0.77711082 0
-2.3387699 27.325001 405.17401 0.5518226 0.30049115 0.77794397 0
-2.3387401 49.365501 397.06699 0.80833572 0.55194074 0.20482862 0
-2.3354599 28.298 404.71799 0.80470783 0.30704069 0.5081057 0
-2.3334 48.693802 397.47299 0.68618125 0.1524552 0.71127546 0
-2.33025 30.0986 404.48001 0.44843769 0.24293937 0.86016518 0
-2.3270299 43.410099 399.92099 0.51767224 0.16428559 0.83965808 0
-2.32549 36.172901 402.51099 0.54866201 0.24668635 0.79882157 0
-2.3252699 25.601999 405.62799 0.79190707 0.35985011 0.49334678 0
-2.3245201 31.226101 404.10199 0.59937727 0.31303868 0.73671818 0
-2.32443 47.575001 398.09201 0.71557868 -0.011949554 0.69842994 0
-2.3236799 34.900902 402.93701 0.55446094 0.30155775 0.77565199 0
-2.3195601 26.729 405.33499 0.67089641 0.15053497 0.72611105 0
-2.29053 27.773199 404.97198 0.74210548 0.35022545 0.57150817 0
-2.24979 41.4249 400.59201 0.57485121 0.26462001 0.7742883 0
-2.2492099 32.424999 403.63901 0.79844946 0.19715266 0.56886667 0
-2.24265 48.019199 397.798 0.67271274 0.24467213 0.69827873 0
-2.2377901 45.600899 398.91599 0.5495342 0.6676057 0.50230944 0
-2.2214701 31.972401 403.767 0.83950031 0.28102583 0.46504167 0
-2.20013 29.950001 404.39001 0.41808051 0.23190054 0.87831134 0
-2.1845801 42.3979 400.17999 0.76235592 0.41880625 0.4933708 0
-2.1791501 42.097698 400.30099 0.76235592 0.41880625 0.4933708 0
-2.17589 39.1745 401.34799 0.5999707 0.49024642 0.63221323 0
-2.1619501 33.400101 403.18701 0.77389354 0.0043904698 0.63330054 0
-2.0992601 31.3374 403.79501 0.95909673 0.15650527 0.23588042 0
-2.0281799 45.323002 398.97 0.59094864 0.59029388 0.54984796 0
-2.0281701 37.3731 401.95801 0.7487216 0.38809124 0.53740227 0
-2.0255899 36.624699 402.30399 0.58339387 0.14149015 0.79977006 0
-2.02086 38.9501 401.34698 0.56894565 0.26378 0.77892298 0
-2.0195999 30.851 403.67599 0.96280485 0.083676264 0.25691459 0
-1.9912601 46.375099 398.276 0.95926529 0.26619327 0.094610795 0
-1.96744 32.650299 403.189 0.93586606 0.13982327 0.32342568 0
-1.95496 46.116001 398.35599 0.95509738 0.14714094 0.25717425 0
-1.9263099 41.872601 400.19199 0.77828085 0.22815908 0.58499777 0
-1.92503 40.2229 400.797 0.74623823 0.26324907 0.61141515 0
-1.90927 45.4762 398.35101 0.94814485 0.25683677 0.187233 0
-1.8886499 43.673901 399.58099 0.62253356 0.027262453 0.78211814 0
-1.8805701 33.401402 402.552 0.88937163 0.12754866 0.43903238 0
-1.86933 34.151299 402.54999 0.81794262 0.02583264 0.57471955 0
-1.86754 44.872501 398.867 0.96081048 0.12280412 0.24852024 0
-1.8609101 34.751202 402.47699 0.83419949 0.13079882 0.53572655 0
-1.83046 37.075401 401.875 0.88509631 0.26120663 0.38519561 0
-1.82162 41.201302 400.151 0.92304379 0.048012149 0.38168699 0
-1.8214 40.1507 400.67499 0.80216974 0.051985022 0.59482872 0
-1.8159699 42.551201 399.47699 0.92455113 0.2044255 0.32158273 0
-1.8016 39.101101 400.75101 0.95490551 -0.055848539 0.29161 0
-1.7897 41.875702 399.92599 0.88972497 0.37710869 0.25725177 0
-1.78822 36.100899 401.987 0.74684441 0.083087988 0.65978771 0
-1.78543 43.9762 399.47699 0.65056384 0.60773826 0.45543489 0
-1.78212 38.351002 401.27399 0.87804884 0.196741 0.43626043 0
-1.77994 38.575901 401.276 0.88233274 0.20722139 0.42254972 0
