# .PCD v0.7 - Point Cloud Data file format
VERSION 0.7
FIELDS x y z normal_x normal_y normal_z curvature
SIZE 4 4 4 4 4 4 4
TYPE F F F F F F F
COUNT 1 1 1 1 1 1 1
WIDTH 1444
HEIGHT 1
VIEWPOINT 0 0 0 1 0 0 0
POINTS 1444
DATA ascii
-42.3717 10.7975 389.367 -0.33442727 -0.94036138 -0.062280696 0
-42.367901 10.7478 388.69 -0.59977067 -0.77140987 0.21260741 0
-42.222 10.5529 388.16501 -0.35817972 -0.92689025 0.11216833 0
-42.070599 11.5836 386.98999 -0.24630454 -0.036082923 -0.96852058 0
-42.056499 10.775 387.522 -0.22214347 -0.8784228 -0.42311421 0
-41.995602 13.6776 386.78 -0.49912152 0.12525503 -0.85743159 0
-41.923698 10.5087 387.565 -0.22214347 -0.8784228 -0.42311421 0
-41.9235 10.9219 389.29099 0.11182231 -0.94011289 0.32199931 0
-41.922001 14.2023 386.78101 -0.45223111 0.14387618 -0.8802197 0
-41.904499 10.7594 388.87799 0.02543498 -0.97581309 0.21712179 0
-41.849201 10.562 388.16101 0.072130971 -0.99549705 -0.061504189 0
-41.848499 11.0708 389.853 0.099019095 -0.97353113 0.20599115 0
-41.7374 12.3473 386.931 0.1211477 -0.15252459 -0.98084629 0
-41.6521 10.6587 388.483 0.069949523 -0.97007543 0.2325096 0
-41.552101 12.7792 386.92499 0.43746963 -0.20314981 -0.87598544 0
-41.5494 11.6626 387.172 0.43954501 -0.19018075 -0.87785619 0
-41.549 12.1029 387.069 0.41596553 -0.21237683 -0.88423342 0
-41.4786 10.8346 387.435 0.32804176 -0.85081661 -0.41048717 0
-41.3988 16.1127 386.672 -0.50697839 0.37394556 -0.77661937 0
-41.379902 11.1577 390.33899 -0.023218626 -0.95384449 0.29940209 0
-41.333199 10.8388 387.534 0.32804176 -0.85081661 -0.41048717 0
-41.248901 10.6427 388.16501 0.32817656 -0.93293434 -0.1481002 0
-41.248699 10.7984 388.98999 0.0013351532 -0.95514667 0.29613018 0
-41.134998 13.0022 387.07501 0.42093152 -0.21151553 -0.88208723 0
-41.117699 10.7569 388.746 0.088163346 -0.97865051 0.18566193 0
-41.108601 10.9891 387.60501 0.53241467 -0.6154958 -0.58111918 0
-41.100201 15.0295 386.61401 -0.080772288 -0.10594098 -0.99108642 0
-41.099602 13.4345 386.98999 0.24621284 -0.11061919 -0.96288246 0
-40.9524 13.9798 386.923 0.43079326 -0.22090891 -0.87499511 0
-40.949902 14.5787 386.77899 0.10162666 -0.34142593 -0.93439841 0
-40.948601 11.0084 389.85101 0.026240157 -0.96637094 0.25580981 0
-40.929699 10.8539 389.14001 0.081997633 -0.97587353 0.20235424 0
-40.909401 12.3643 387.341 0.42674309 -0.210356 -0.87956846 0
-40.8148 11.9045 387.505 0.43318579 -0.19736779 -0.8794294 0
-40.798698 16.2279 386.46899 -0.23867707 -0.17954685 -0.95435643 0
-40.717899 17.3503 386.51099 -0.59185302 0.26979396 -0.75955331 0
-40.686699 13.6781 387.12799 0.43761823 -0.22349997 -0.87094092 0
-40.668098 11.0196 389.85001 0.038062248 -0.96258813 0.26828226 0
-40.649601 14.5408 386.923 0.42482936 -0.20898061 -0.88082182 0
-40.580799 10.7554 388.17401 0.10956068 -0.99364084 0.025966909 0
-40.574699 11.5597 387.67599 0.50469959 -0.31152633 -0.80512714 0
-40.512798 11.2825 390.612 0.043603975 -0.92896736 0.36758447 0
-40.5009 15.4791 386.73001 0.35731095 -0.20464069 -0.91129088 0
-40.498798 10.8177 388.76501 0.060491964 -0.99021965 0.12572104 0
-40.461899 12.8531 387.42599 0.41031915 -0.2032595 -0.88900155 0
-40.420601 17.2775 386.39801 -0.29127988 -0.16556287 -0.94220221 0
-40.419498 17.426701 386.38901 -0.22206406 0.036557332 -0.97434652 0
-40.395401 12.1214 387.62399 0.3856709 -0.21115538 -0.89814883 0
-40.350498 15.8164 386.70499 0.34041679 -0.23180148 -0.91125435 0
-40.348499 11.1607 390.26599 0.043369725 -0.94974297 0.31001183 0
-40.313702 10.7771 388.39301 0.10956068 -0.99364084 0.025966909 0
-40.2771 10.8079 388.17099 0.10956068 -0.99364084 0.025966909 0
-40.273998 14.231 387.19901 0.44053149 -0.21874715 -0.87067884 0
-40.179901 11.0877 389.965 0.073482201 -0.96274304 0.26024264 0
-40.128399 10.8555 388.173 0.10956068 -0.99364084 0.025966909 0
-40.125 10.7923 388.465 0.07374543 -0.99725544 0.006571142 0
-40.123798 15.5528 386.896 0.39887691 -0.25154105 -0.8818301 0
-40.122501 18.0271 386.392 -0.025938548 0.030877955 -0.99918652 0
-40.122101 17.8766 386.383 0.021807354 0.042629827 -0.99885291 0
-40.120201 18.326 386.46301 -0.14297338 0.21123727 -0.96692163 0
-40.106998 18.926399 386.66901 -0.59077448 0.065881111 -0.80414248 0
-40.095798 11.4614 391.013 0.020192746 -0.93714345 0.34835961 0
-40.075199 20.1129 387.30801 -0.82691658 0.39321148 -0.40198722 0
-40.067402 12.3934 387.702 0.41154215 -0.21575725 -0.88548398 0
-40.048901 11.2559 390.48901 0.05797625 -0.94064349 0.33440784 0
-40.0467 20.662399 387.841 -0.82775831 0.4103629 -0.38264662 0
-40.043701 19.770599 386.966 -0.81372482 0.33873287 -0.47234729 0
-39.992901 15.9562 386.83701 0.34041679 -0.23180148 -0.91125435 0
-39.938202 21.4025 388.39099 -0.85680979 0.31994817 -0.4043639 0
-39.931599 21.0853 388.07001 -0.84185576 0.38628301 -0.37691414 0
-39.8927 22.003799 388.68799 -0.88579917 0.24585021 -0.39359564 0
-39.854698 12.9477 387.69199 0.43691063 -0.18200921 -0.88089824 0
-39.848598 13.578 387.57199 0.43998894 -0.19462283 -0.87665939 0
-39.8186 19.001801 386.388 -0.61089677 -0.066438757 -0.78891766 0
-39.757999 10.9771 389.36499 0.04079647 -0.97742283 0.20731673 0
-39.7523 20.304701 386.87201 -0.83548117 0.3919324 -0.38517559 0
-39.749802 19.5268 386.37799 -0.81319714 0.079845041 -0.57648522 0
-39.749401 10.8568 388.76401 0.028334383 -0.99177462 0.12482075 0
-39.715401 19.823999 386.37799 -0.84603655 0.1222063 -0.51892948 0
-39.691799 11.5029 388.086 0.42090324 -0.30037656 -0.85592896 0
-39.6754 14.2787 387.49399 0.43500569 -0.21207134 -0.87509757 0
-39.673199 17.952499 386.43799 0.15996265 -0.14612819 -0.97624713 0
-39.634201 14.9516 387.34299 0.45114285 -0.24534775 -0.85806447 0
-39.6021 20.871201 387.12201 -0.82819027 0.3937721 -0.3988038 0
-39.601002 22.152 388.082 -0.89521247 0.1998298 -0.39832482 0
-39.5984 18.4778 386.367 0.12002888 -0.13494852 -0.98355579 0
-39.5952 20.123699 386.32501 -0.84644979 0.29472706 -0.44346219 0
-39.5951 21.403 387.64001 -0.85529715 0.34802008 -0.38386041 0
-39.591801 21.627899 387.79001 -0.85602331 0.27481258 -0.43783808 0
-39.5476 11.3167 390.54401 0.066902623 -0.94528162 0.31932226 0
-39.523102 19.2281 386.25601 0.0029443258 0.0037274081 -0.99998873 0
-39.4715 23.0147 388.31601 -0.89203346 0.25797841 -0.37111104 0
-39.468601 21.3435 387.306 -0.835154 0.36446103 -0.41192958 0
-39.449799 10.8654 388.76501 0.08256574 -0.98375756 0.15938617 0
-39.448799 11.0943 389.814 0.072488815 -0.96089941 0.26724091 0
-39.438999 12.241 388.05701 0.45349109 -0.20882542 -0.86645126 0
-39.423401 21.719601 387.49301 -0.87753689 0.22811931 -0.42177072 0
-39.420799 20.5702 386.37399 -0.83491224 0.39152253 -0.38682255 0
-39.386299 22.7145 387.88501 -0.88573104 0.23882017 -0.3980521 0
-39.338402 20.938601 386.651 -0.8351903 0.40144271 -0.37590009 0
-39.336498 11.6529 388.27301 0.45066959 -0.37542152 -0.80991083 0
-39.299 22.3864 387.54401 -0.85584331 0.1991933 -0.47734085 0
-39.259899 14.9614 387.52802 0.42719409 -0.2473395 -0.8696714 0
-39.2584 13.4338 387.897 0.43349591 -0.1956733 -0.87965518 0
-39.2262 18.8547 386.38 0.16856463 -0.14031972 -0.97565174 0
-39.195801 21.496099 386.89099 -0.84615362 0.36322275 -0.38999137 0
-39.177101 10.9717 389.233 0.076306902 -0.9798739 0.184457 0
-39.1507 23.0508 387.56799 -0.86729783 0.25958979 -0.42474419 0
-39.105499 23.7286 387.97601 -0.88224059 0.26184487 -0.3912656 0
-39.088402 21.178699 386.36401 -0.84026837 0.39620671 -0.3700937 0
-39.0569 24.251801 388.14801 -0.88153899 0.23625258 -0.40874651 0
-39.0355 12.0086 388.34399 0.4481003 -0.20814584 -0.86941445 0
-39.009602 21.741501 386.72 -0.86405408 0.3398276 -0.3713862 0
-38.958302 15.251 387.59299 0.42719409 -0.2473395 -0.8696714 0
-38.958 22.0583 386.854 -0.8732962 0.30192956 -0.38235098 0
-38.951599 21.5476 386.371 -0.86405408 0.3398276 -0.3713862 0
-38.930599 10.9584 388.772 0.25833926 -0.96558797 -0.030012107 0
-38.8876 23.323999 387.20999 -0.85927826 0.27685645 -0.43010622 0
-38.849602 11.0166 389.32599 0.08688055 -0.98094529 0.173776 0
-38.844101 22.4729 386.849 -0.83586985 0.21722154 -0.50411946 0
-38.833199 24.566 387.90399 -0.83727789 0.3415426 -0.42698288 0
-38.8172 23.9632 387.49799 -0.8656103 0.27006269 -0.42164552 0
-38.798698 23.090799 386.96301 -0.83925533 0.1736403 -0.51526648 0
-38.7757 14.042 387.98401 0.42675659 -0.21751153 -0.87781978 0
-38.698799 11.2863 390.26401 0.05564272 -0.96541923 0.25469515 0
-38.651299 23.503599 386.888 -0.83721381 0.27724481 -0.4713898 0
-38.629501 20.656601 386.14999 0.044833686 0.024734968 -0.99868822 0
-38.5648 24.476101 387.32401 -0.83590138 0.33550915 -0.43439901 0
-38.548401 11.1079 389.55301 0.096484862 -0.96430278 0.2465986 0
-38.547699 22.4503 386.33099 -0.84090024 0.31872234 -0.43738183 0
-38.498901 25.125299 387.789 -0.8214553 0.39170226 -0.41446421 0
-38.396301 24.814501 387.285 -0.82189482 0.35562995 -0.44499016 0
-38.3671 24.251301 386.81699 -0.79506129 0.33499053 -0.50562721 0
-38.344799 22.601801 386.08701 -0.10066757 -0.027540283 -0.9945389 0
-38.2831 25.8634 387.944 -0.87715727 0.2364977 -0.41792816 0
-38.277199 23.839899 386.44101 -0.77589583 0.26561946 -0.57221669 0
-38.255001 75.154404 368.78601 -0.93067682 -0.063227586 -0.36033729 0
-38.250198 21.628901 386.073 0.051231779 -0.18068998 -0.98220491 0
-38.245899 25.620501 387.71701 -0.85281259 0.3340632 -0.4013882 0
-38.232399 23.687901 386.29599 -0.773206 0.23412 -0.58935583 0
-38.2141 74.559196 368.853 -0.91411835 -0.10606689 -0.39132786 0
-38.173901 11.1163 389.36499 0.13936949 -0.98888314 -0.051828891 0
-38.165901 73.855904 368.98401 -0.92271334 -0.12547053 -0.36449587 0
-38.098999 24.697599 386.69901 -0.79717177 0.33471617 -0.5024761 0
-38.077202 76.415298 368.142 -0.95804536 -0.024572236 -0.28556132 0
-38.0667 73.752899 368.72198 -0.94555515 -0.053089384 -0.32110268 0
-38.061699 76.026299 368.13199 -0.95804536 -0.024572236 -0.28556132 0
-38.0611 11.229 389.853 0.13102145 -0.97021604 0.20375037 0
-38.060101 25.377399 387.116 -0.83600301 0.33944103 -0.43113664 0
-38.044201 75.0653 368.29001 -0.91752774 -0.12318077 -0.37811285 0
-38.006401 25.863899 387.375 -0.86016077 0.29884008 -0.41330147 0
-37.959 74.071503 368.34601 -0.94089836 -0.054944567 -0.33420253 0
-37.952599 74.5588 368.25201 -0.92099792 -0.10516725 -0.37510356 0
-37.9515 24.291901 386.25 -0.73314661 0.31176969 -0.604397 0
-37.937199 73.284103 368.30701 -0.9640637 -0.05846284 -0.25915876 0
-37.919899 77.352798 367.61499 -0.96907675 0.061495624 -0.23897402 0
-37.8745 76.096497 367.61499 -0.93989742 -0.034301206 -0.33972973 0
-37.838799 73.003197 367.992 -0.95827675 -0.11006944 -0.26379994 0
-37.809502 26.6238 387.379 -0.88394594 0.20680352 -0.41937077 0
-37.805698 75.102997 367.69101 -0.94539905 -0.066093303 -0.31914315 0
-37.785099 72.704102 367.918 -0.95827675 -0.11006944 -0.26379994 0
-37.774601 26.2027 387.11499 -0.86769873 0.24841118 -0.4305703 0
-37.7621 77.803101 367.09201 -0.96892804 0.0026468623 -0.24732871 0
-37.7589 73.096703 367.729 -0.93164438 -0.091488831 -0.35166532 0
-37.758202 75.608902 367.41299 -0.94805694 -0.073570371 -0.30947605 0
-37.753601 76.3778 367.241 -0.94438589 -0.069548503 -0.32140061 0
-37.733601 72.346603 367.953 -0.92353827 -0.17565878 -0.34091207 0
-37.726601 24.365 386.00101 -0.5061003 0.33019364 -0.79676515 0
-37.7244 11.2102 389.36499 0.23200661 -0.97239161 0.025049377 0
-37.719799 77.352798 367.07101 -0.95512754 -0.026156936 -0.29503769 0
-37.7141 27.101 387.34399 -0.90278256 0.16702217 -0.3963424 0
-37.709702 73.848801 367.56299 -0.94329387 -0.031768106 -0.33043519 0
-37.694901 25.451 386.51801 -0.86564505 0.24961896 -0.43399191 0
-37.687199 72.554398 367.694 -0.92536676 -0.11925775 -0.35982484 0
-37.6819 25.994499 386.81799 -0.8571341 0.26417413 -0.44219127 0
-37.6647 75.084198 367.241 -0.95247668 -0.060452279 -0.2985526 0
-37.650501 22.454 386.086 0.15420011 -0.21367863 -0.96465731 0
-37.650501 25.059601 386.23199 -0.8130303 0.24825731 -0.52664036 0
-37.649101 11.2519 389.77701 0.10064816 -0.99331731 0.056485929 0
-37.649101 22.077999 386.20499 0.25864989 -0.099573456 -0.96082532 0
-37.644402 73.265602 367.39099 -0.93432039 -0.043642361 -0.3537524 0
-37.588402 74.4375 367.10999 -0.93598735 -0.056681268 -0.34744048 0
-37.5802 76.3685 366.69699 -0.95227796 -0.022057272 -0.30443427 0
-37.563702 75.6651 366.789 -0.95431066 -0.066998519 -0.29120839 0
-37.562599 24.174101 385.78 -0.49120378 0.10418398 -0.86479163 0
-37.558701 73.304001 367.17001 -0.8949855 -0.15286011 -0.41908801 0
-37.532799 69.107399 368.95999 -0.63690585 -0.31698763 -0.70275867 0
-37.5117 72.930702 367.17401 -0.82898575 -0.36803764 -0.42110676 0
-37.510201 74.1278 366.94 -0.85986245 -0.29884034 -0.41392154 0
-37.5079 78.487198 366.43399 -0.92373306 0.0060833837 -0.3829886 0
-37.502602 26.811701 386.836 -0.88396662 0.10796152 -0.4549146 0
-37.488998 71.730904 367.68301 -0.32966331 -0.29471323 -0.89692038 0
-37.453602 76.588699 366.25601 -0.95330596 0.010570806 -0.30182117 0
-37.431801 75.309097 366.453 -0.93082845 -0.16507815 -0.32604852 0
-37.422001 66.028297 370.76599 -0.60358 -0.57868445 -0.54846644 0
-37.4216 70.080498 368.38901 -0.41473311 -0.50869077 -0.75447345 0
-37.420601 25.695999 386.103 -0.88649416 0.26401049 -0.38003501 0
-37.418999 67.6838 369.54099 -0.4021064 -0.59278911 -0.69779038 0
-37.414001 68.8125 368.98999 -0.44663894 -0.159945 -0.88030177 0
-37.412498 75.993401 366.172 -0.95193803 -0.01715612 -0.30580974 0
-37.403801 27.401699 386.78101 -0.88567328 0.12874492 -0.44610271 0
-37.397598 74.505997 366.57401 -0.85029995 -0.23974521 -0.4685213 0
-37.3657 77.005699 366.069 -0.92528987 0.061622128 -0.37422109 0
-37.3554 74.282501 366.57599 -0.85029995 -0.23974521 -0.4685213 0
-37.355202 25.002199 385.737 -0.66419756 -0.18191038 -0.72508633 0
-37.340302 78.908798 366.05701 -0.90393144 -0.034519706 -0.42628196 0
-37.320999 25.6021 385.767 -0.8995077 0.12438274 -0.41882554 0
-37.3083 75.929001 365.82001 -0.94050545 -0.013774594 -0.33949926 0
-37.3078 26.2017 386.216 -0.92320311 0.25465763 -0.28782898 0
-37.306702 76.452797 365.81601 -0.93199062 0.030381301 -0.36120701 0
-37.304199 64.416397 371.85699 -0.74411255 -0.28253886 -0.60536623 0
-37.292198 79.364197 365.854 -0.90738308 -0.079844944 -0.41265088 0
-37.291801 26.5014 386.36899 -0.89044726 0.18776955 -0.41454345 0
-37.284302 72.5597 367.15601 -0.48517686 -0.41158515 -0.77149278 0
-37.2757 11.4175 389.12799 0.015545027 -0.93591577 -0.35188073 0
-37.268902 65.882103 370.78601 -0.60358 -0.57868445 -0.54846644 0
-37.2509 75.328499 365.966 -0.8101505 -0.32649183 -0.48688725 0
-37.239101 65.057297 371.38599 -0.73962945 -0.35744938 -0.57024401 0
-37.238201 77.634003 365.853 -0.90712994 0.026311221 -0.42002738 0
-37.2173 78.327698 365.81601 -0.90476108 -0.0011695371 -0.42591786 0
-37.199402 11.3215 389.366 0.19506602 -0.96733814 -0.16188303 0
-37.194099 76.004997 365.53101 -0.92328709 0.017888857 -0.38369384 0
-37.194 26.315599 385.98999 -0.91856515 0.27457443 -0.28433597 0
-37.192501 76.302696 365.521 -0.92328709 0.017888857 -0.38369384 0
-37.189602 74.583702 366.25601 -0.094670154 -0.61743945 -0.78090084 0
-37.182701 27.1392 386.29599 -0.90456647 0.054584544 -0.42282391 0
-37.179699 64.047096 371.90701 -0.71739274 -0.39014685 -0.57717687 0
-37.154301 80.5401 365.289 -0.90938127 -0.098648056 -0.40409681 0
-37.1362 63.476799 372.26401 -0.72983885 -0.37572506 -0.57110935 0
-37.129799 76.154297 365.379 -0.92328709 0.017888857 -0.38369384 0
-37.124699 64.827103 371.422 -0.60843694 -0.40677482 -0.68142408 0
-37.123699 11.4279 389.18301 0.19506602 -0.96733814 -0.16188303 0
-37.1227 65.729103 370.79901 -0.25873172 -0.57591861 -0.77548414 0
-37.1222 73.680801 366.599 -0.59643835 -0.60579419 -0.52656883 0
-37.121799 26.277399 385.625 -0.93197429 0.25199431 -0.26061991 0
-37.121101 66.636803 370.095 -0.53719193 -0.37759849 -0.75421762 0
-37.120899 73.833298 366.53 -0.53076535 -0.31443343 -0.78703225 0
-37.119999 66.487099 370.198 -0.64716035 -0.43815631 -0.62386096 0
-37.118698 66.036102 370.547 -0.46740532 -0.55400795 -0.68891764 0
-37.106602 76.602402 365.37 -0.91310245 0.057602972 -0.40364069 0
-37.091099 64.454903 371.59698 -0.65713364 -0.34993866 -0.66762137 0
-37.083801 77.202698 365.44101 -0.91211838 0.073396772 -0.40330258 0
-37.080502 81.589996 365.14099 -0.95048523 0.091392815 -0.29702723 0
-37.079102 26.803499 386.06299 -0.91590983 0.17084099 -0.36321136 0
-37.066502 26.5769 385.76599 -0.91856515 0.27457443 -0.28433597 0
-37.0578 79.002502 365.47501 -0.8964507 -0.045720607 -0.44077864 0
-37.050201 70.306 368.314 -0.080914035 -0.38474187 -0.91947085 0
-37.049 70.904198 368.04401 -0.17155252 -0.27456442 -0.94614172 0
-37.046299 65.506104 370.93799 -0.21615659 -0.60709023 -0.76466841 0
-37.025501 79.828102 365.19699 -0.90968305 -0.10649253 -0.40141758 0
-37.009701 64.904099 371.30701 -0.35492262 -0.41689792 -0.83679509 0
-36.981602 79.302597 365.25201 -0.90343809 -0.100292 -0.41682264 0
-36.9753 64.676804 371.397 -0.35492262 -0.41689792 -0.83679509 0
-36.965401 77.652802 365.255 -0.86541688 0.022891577 -0.50052929 0
-36.959202 81.402802 364.76599 -0.9356302 -0.01483526 -0.35266992 0
-36.957401 77.353104 365.21701 -0.83379543 0.023802184 -0.55156016 0
-36.956001 81.928802 364.91299 -0.95049351 0.11214197 -0.28980374 0
-36.943199 78.130898 365.22699 -0.88850111 0.015567804 -0.45861036 0
-36.9408 81.703003 364.76401 -0.95082992 0.090395041 -0.29622832 0
-36.936798 27.403099 385.689 -0.88180947 0.056930181 -0.46815699 0
-36.890701 79.002602 365.10101 -0.91431415 -0.098809123 -0.39276761 0
-36.867599 80.539597 364.68701 -0.91188401 -0.089054577 -0.40067044 0
-36.824699 63.4767 371.93201 -0.52783889 -0.51724595 -0.67367852 0
-36.823002 82.2658 364.57599 -0.95859778 0.10375037 -0.26519078 0
-36.816002 80.033897 364.689 -0.91213012 -0.099125855 -0.39773455 0
-36.766701 79.152603 364.76401 -0.93260401 -0.05693524 -0.35638195 0
-36.716099 79.602898 364.54001 -0.93965364 -0.06438937 -0.33601347 0
-36.702099 82.124496 364.10901 -0.95453042 0.087302722 -0.28504363 0
-36.6754 62.358501 372.50699 -0.65223557 -0.48445144 -0.58300561 0
-36.671902 82.729301 364.18399 -0.9570685 0.094060585 -0.27417609 0
-36.6684 81.140099 364.08899 -0.92766476 -0.070140101 -0.36676759 0
-36.652199 78.102997 364.61499 -0.87055695 -0.11155642 -0.47925544 0
-36.617001 80.671303 364.05099 -0.92541546 -0.072950408 -0.37186617 0
-36.597198 61.838299 372.87701 -0.2779896 -0.62494946 -0.72949296 0
-36.589699 80.164902 364.08801 -0.93283284 -0.054105561 -0.356224 0
-36.587299 61.528301 373.16501 -0.59858555 -0.59910458 -0.53176033 0
-36.5849 82.358597 363.755 -0.94786882 0.049666714 -0.31476638 0
-36.570999 78.928497 364.242 -0.92618364 -0.13262407 -0.35297984 0
-36.523602 63.028 372.04401 -0.47416914 -0.40028074 -0.7841804 0
-36.5233 64.229797 371.43799 -0.30231848 -0.57234293 -0.76225132 0
-36.522099 78.705399 364.173 -0.35208169 -0.38638058 -0.85249549 0
-36.521702 27.702499 385.17499 -0.60321206 -0.19786036 -0.77264899 0
-36.5214 62.432098 372.33899 -0.22216514 -0.46725869 -0.85575229 0
-36.514301 62.1422 372.55399 -0.1563285 -0.67087978 -0.7249012 0
-36.511002 79.528702 363.94299 -0.92563784 -0.059417289 -0.37371674 0
-36.503601 82.2276 363.49301 -0.93622571 0.040273793 -0.34908369 0
-36.4855 64.458603 371.35199 -0.35491991 -0.43062523 -0.82981551 0
-36.4804 83.128403 363.67599 -0.95112747 0.096098803 -0.29346469 0
-36.454498 81.290298 363.49899 -0.92202538 -0.084355474 -0.37782714 0
-36.452202 80.620201 363.63199 -0.92901653 -0.074070774 -0.36254907 0
-36.433102 82.959099 363.452 -0.92772484 0.087849885 -0.36277956 0
-36.43 26.0341 385.56699 0.094759874 -0.22446738 -0.96986336 0
-36.425201 81.815697 363.30499 -0.92948765 -0.054768518 -0.36476442 0
-36.362499 78.560402 364.103 -0.33262375 -0.31162021 -0.89008665 0
-36.342999 80.802696 363.34 -0.90025073 -0.078960516 -0.42815164 0
-36.335602 80.203003 363.41501 -0.75452292 -0.14999785 -0.63890207 0
-36.310501 61.083698 373.19699 -0.50582397 -0.55193985 -0.66295141 0
-36.303299 79.681503 363.51001 -0.72357976 -0.35855293 -0.58980685 0
-36.298599 27.6297 385.22198 0.021840477 0.15876779 -0.98707438 0
-36.227001 82.574898 362.86899 -0.91690803 0.053824786 -0.39545238 0
-36.224201 11.3496 389.367 -0.067931846 -0.65063494 -0.75634611 0
-36.204399 81.103996 362.96899 -0.86249471 -0.16910516 -0.47697619 0
-36.188301 27.216999 385.34 -0.24825631 -0.45541623 -0.85496485 0
-36.1842 81.927696 362.73801 -0.88836724 -0.11919437 -0.44339192 0
-36.1562 29.200899 385.11899 -0.33315817 0.086682886 -0.93887788 0
-36.129902 80.655098 362.97101 -0.81438082 -0.23645252 -0.52997553 0
-36.117199 83.033897 362.72198 -0.89753044 0.10590623 -0.42804557 0
-35.987499 81.611504 362.41501 -0.66727751 -0.16554284 -0.72617924 0
-35.985699 82.714798 362.367 -0.88886958 0.080635197 -0.45100862 0
-35.976299 59.770901 374.13699 -0.61632508 -0.62379485 -0.48064891 0
-35.969799 61.287701 373.017 -0.27681506 -0.38818875 -0.87902385 0
-35.9618 80.277702 362.97299 -0.26363015 -0.45971271 -0.84803498 0
-35.945099 82.003899 362.21799 -0.69323868 -0.28665081 -0.66124988 0
-35.938499 81.110497 362.56601 -0.75110251 -0.24676619 -0.61233282 0
-35.937801 83.316101 362.43701 -0.89037544 0.11188968 -0.44126213 0
-35.9249 11.2172 389.966 0.21919918 -0.96165955 -0.16481081 0
-35.924 60.9305 373.19101 -0.51238638 -0.48777303 -0.70677978 0
-35.922699 60.637299 373.354 -0.52971029 -0.51822978 -0.6714499 0
-35.922401 80.430397 362.858 -0.26363015 -0.45971271 -0.84803498 0
-35.922401 79.835701 363.23901 -0.49951455 -0.48022428 -0.72101998 0
-35.8498 61.829601 372.784 -0.14389628 -0.51955211 -0.84223479 0
-35.775902 81.3255 362.34799 -0.18244912 -0.47615933 -0.86022359 0
-35.774899 79.3834 363.53201 -0.20496427 -0.48531026 -0.84997857 0
-35.757301 12.7136 389.405 0.27673048 -0.16315588 -0.94699544 0
-35.632801 82.310303 361.776 -0.71279472 -0.27204275 -0.64646453 0
-35.625702 28.754299 385.129 0.062722653 -0.15185092 -0.98641127 0
-35.5504 29.0168 385.07999 0.062722653 -0.15185092 -0.98641127 0
-35.544899 59.132 374.29599 -0.44104919 -0.51054525 -0.73811865 0
-35.525299 32.202801 384.56601 -0.68692142 -0.046775468 -0.72522479 0
-35.4743 11.7287 389.53299 0.40858185 -0.089203008 -0.9083522 0
-35.468601 31.679399 384.55399 -0.36630258 -0.12741755 -0.92173052 0
-35.436298 12.4029 389.56 0.28190064 -0.07342384 -0.95662999 0
-35.399601 29.3536 385.04001 0.0014346649 0.002566416 -0.99999565 0
-35.398602 57.852501 375.34 -0.66661465 -0.56448126 -0.48681194 0
-35.395802 82.982101 361.34601 -0.56862003 -0.19646631 -0.79879427 0
-35.3237 33.927799 383.99701 -0.5950256 -0.26750875 -0.75788105 0
-35.321098 58.839298 374.41599 -0.44104919 -0.51054525 -0.73811865 0
-35.319901 31.8302 384.457 -0.22933272 -0.089840651 -0.96919304 0
-35.319698 33.1805 384.10901 -0.72524279 -0.16494432 -0.6684432 0
-35.318501 58.007198 374.909 -0.47295177 -0.62057775 -0.62545979 0
-35.288799 12.7231 389.54501 0.27004018 -0.15986308 -0.94948518 0
-35.285599 13.5182 389.41501 0.28983945 -0.16024128 -0.94356549 0
-35.260502 83.430702 361.13501 -0.35670224 -0.10887256 -0.92785251 0
-35.248501 31.228701 384.58301 0.097283594 -0.26962525 -0.95803869 0
-35.247898 58.225601 374.76001 -0.48039705 -0.56911576 -0.66732746 0
-35.171501 32.428299 384.30701 -0.089055248 -0.26737913 -0.95946735 0
-35.171101 83.130699 361.173 -0.5504809 -0.028243836 -0.83436984 0
-35.022598 33.4785 383.987 -0.15544958 -0.39022067 -0.90750384 0
-35.003899 56.994801 375.54999 -0.5019232 -0.56989193 -0.65061224 0
-34.959801 84.365501 360.495 -0.56071389 -0.35474133 -0.74817014 0
-34.933498 37.678902 383.31 -0.75991791 -0.40017232 -0.51223713 0
-34.875401 12.178 389.758 0.28118867 -0.1021262 -0.95420289 0
-34.8573 39.477901 382.70999 -0.81772602 -0.079653546 -0.57006973 0
-34.8279 36.552601 383.814 -0.73812664 -0.20296398 -0.64340866 0
-34.826302 38.954601 382.772 -0.72457415 -0.19086535 -0.66224068 0
-34.7995 57.7841 374.99899 -0.05895308 -0.53603482 -0.84213489 0
-34.793701 42.102901 382.46799 -0.77171606 -0.031441033 -0.63518953 0
-34.785301 41.803101 382.47 -0.76840156 -0.0089487415 -0.63990545 0
-34.784698 40.040298 382.57401 -0.71571279 -0.047227092 -0.69679612 0
-34.782902 39.1791 382.677 -0.77447391 -0.12911625 -0.61928928 0
-34.776501 40.378101 382.52701 -0.7200346 -0.027359044 -0.69339859 0
-34.771999 36.2901 383.77899 -0.6379261 -0.013102035 -0.76998609 0
-34.726501 57.634499 375.08499 -0.20978773 -0.67392528 -0.70838815 0
-34.725101 37.226898 383.36499 -0.76988745 -0.40969673 -0.48930761 0
-34.7239 11.5699 389.82999 -0.64820904 -0.40293437 -0.6461184 0
-34.721802 38.428398 382.78699 -0.53148276 -0.22194487 -0.81747574 0
-34.720798 56.734798 375.58801 -0.36919522 -0.6118319 -0.69954032 0
-34.7187 85.082603 359.99701 -0.47905102 -0.19521494 -0.85580444 0
-34.717899 37.8311 382.98199 -0.48247865 -0.41971025 -0.76880276 0
-34.697899 41.146702 382.38501 -0.75233805 -0.068485148 -0.65520781 0
-34.597099 55.903801 376.17001 -0.2626504 -0.40622291 -0.87521297 0
-34.5919 36.855701 383.466 -0.69491136 -0.34263894 -0.63221574 0
-34.574902 37.1516 383.29199 -0.42745805 -0.31237429 -0.84835249 0
-34.569 38.2062 382.78 -0.10402644 -0.18813869 -0.97661781 0
-34.553001 14.6686 389.41501 0.27801868 -0.18263006 -0.94305456 0
-34.5173 54.180199 377.367 -0.76856458 -0.4973509 -0.40243077 0
-34.465199 41.184601 382.11801 -0.67357713 -0.095013097 -0.73298454 0
-34.464901 42.403198 382.01901 -0.73754579 -0.10901868 -0.66643912 0
-34.4627 53.505001 377.96799 -0.80525613 -0.38011736 -0.45505309 0
-34.4189 40.454399 382.19501 -0.49155429 -0.23512526 -0.83850491 0
-34.4179 41.803501 382.064 -0.679447 -0.053781774 -0.73175085 0
-34.4081 12.611 389.80801 0.27052689 -0.14939895 -0.95104951 0
-34.3606 86.202904 359.36899 -0.40899208 0.0018944832 -0.91253597 0
-34.349201 13.5281 389.702 0.27516207 -0.13916589 -0.95127213 0
-34.3078 44.203201 381.569 -0.82090503 -0.10001436 -0.5622384 0
-34.274101 11.6065 389.39001 -0.48607597 0.68819422 -0.53862685 0
-34.2719 55.683601 376.19199 -0.26011869 -0.42655089 -0.86625206 0
-34.2714 53.206001 377.94299 -0.7387594 -0.38742229 -0.55148751 0
-34.2714 12.3271 389.922 0.24263759 -0.024736924 -0.96980155 0
-34.2714 53.206001 377.94299 -0.7387594 -0.38742229 -0.55148751 0
-34.271 36.554901 383.37601 -0.24653338 -0.38372055 -0.88993251 0
-34.270199 54.707001 376.70499 -0.46552223 -0.49642202 -0.73270339 0
-34.216099 53.808201 377.371 -0.54230726 -0.60944742 -0.57833958 0
-34.198502 37.980598 382.78799 -0.032351516 -0.22488928 -0.97384709 0
-34.1749 45.365898 381.19199 -0.86294937 -0.11481238 -0.49207371 0
-34.172901 47.953201 380.21899 -0.80971211 -0.2124007 -0.54703957 0
-34.163101 44.0532 381.43201 -0.82090503 -0.10001436 -0.5622384 0
-34.162102 52.454498 378.172 -0.59974533 -0.32543916 -0.73102313 0
-34.1572 43.678799 381.49701 -0.80737489 -0.11867121 -0.57798177 0
-34.138302 86.802696 358.992 -0.75916404 -0.18647268 -0.62361681 0
-34.128799 45.627899 381.04001 -0.86294937 -0.11481238 -0.49207371 0
-34.123699 11.7981 389.36499 -0.34392124 0.67949611 -0.64807653 0
-34.123501 40.377602 382.08801 -0.36007887 -0.44728535 -0.81870568 0
-34.123501 37.2309 383.07501 -0.21678187 -0.37841824 -0.89989179 0
-34.123501 40.377602 382.08801 -0.36007887 -0.44728535 -0.81870568 0
-34.123501 37.2309 383.07501 -0.21678187 -0.37841824 -0.89989179 0
-34.123501 40.377602 382.08801 -0.36007887 -0.44728535 -0.81870568 0
-34.123501 37.2309 383.07501 -0.21678187 -0.37841824 -0.89989179 0
-34.123299 55.230499 376.41 -0.42179844 -0.37573609 -0.82517177 0
-34.1231 41.803001 381.853 -0.52135897 -0.070687957 -0.85040462 0
-34.120998 85.686401 359.35901 -0.58066159 -0.34006363 -0.73972213 0
-34.120899 53.0546 377.875 -0.55403519 -0.42887875 -0.71351808 0
-34.118999 42.1045 381.79401 -0.51679581 -0.16711998 -0.83963865 0
-34.117901 43.154499 381.56601 -0.70867312 -0.14427891 -0.69062728 0
-34.113201 44.652699 381.26401 -0.76740211 -0.1137661 -0.63099235 0
-34.113098 54.043201 377.043 -0.36257929 -0.5285731 -0.76755893 0
-34.084999 40.904301 381.95099 -0.56810582 -0.18429728 -0.80205381 0
-34.079899 42.817402 381.60999 -0.61939132 -0.17145297 -0.766132 0
-34.045101 86.878403 358.76999 -0.63362551 -0.26683587 -0.72616619 0
-34.011101 13.4715 389.80701 0.25212952 -0.13039336 -0.95886821 0
-34.0047 46.7519 380.36301 -0.80773097 -0.31309411 -0.49954256 0
-34.004101 45.703098 380.81601 -0.64420325 -0.36463499 -0.67234182 0
-33.9897 45.441399 380.89301 -0.83461809 -0.19549426 -0.51497054 0
-33.987202 53.5056 377.44199 -0.40207908 -0.60096717 -0.69077557 0
-33.973099 52.603298 377.97699 -0.53640187 -0.33828539 -0.7731986 0
-33.972599 12.3271 389.99899 0.47682026 0.43118867 -0.76597571 0
-33.916 50.883499 378.57401 -0.52060413 -0.58097941 -0.62564707 0
-33.889702 36.488499 383.38199 0.0077716052 -0.24912418 -0.96844035 0
-33.881401 37.867001 382.89099 -0.013540645 -0.2601659 -0.965469 0
-33.867298 48.5532 379.76801 -0.75369978 -0.16731621 -0.63556427 0
-33.866299 46.1959 380.39801 -0.75273138 -0.23447397 -0.61515641 0
-33.860199 44.653801 380.979 -0.55722284 -0.24299137 -0.7940138 0
-33.830299 11.8534 389.98801 0.88052893 0.3635298 -0.30416262 0
-33.826401 48.816601 379.694 -0.81602401 -0.14900374 -0.55848253 0
-33.749001 85.830704 359.28601 -0.2602959 -0.4798069 -0.8378731 0
-33.724201 49.9067 379.11401 -0.77805501 -0.2571004 -0.57317519 0
-33.721901 87.555 358.17499 -0.78965229 -0.32261693 -0.52188849 0
-33.6735 13.8464 389.83301 0.25008053 -0.16055594 -0.95482016 0
-33.671501 52.1548 377.96899 -0.22804248 -0.45333529 -0.86167496 0
-33.670898 47.805302 379.75601 -0.31495816 -0.3959657 -0.86256158 0
-33.6306 49.6078 379.15399 -0.59211469 -0.59695351 -0.54133791 0
-33.619801 13.154 389.95001 0.2478192 -0.15040341 -0.95706034 0
-33.600498 12.5159 390.06201 0.26001927 -0.080488726 -0.96224296 0
-33.5989 48.066399 379.63901 -0.15033765 -0.2615104 -0.95342064 0
-33.5979 86.656197 358.617 -0.45149508 -0.6153124 -0.64617556 0
-33.5979 86.423203 358.80099 -0.42536438 -0.54048496 -0.72590715 0
-33.5979 86.656197 358.617 -0.45149508 -0.6153124 -0.64617556 0
-33.5979 86.423203 358.80099 -0.42536438 -0.54048496 -0.72590715 0
-33.5979 86.656197 358.617 -0.45149508 -0.6153124 -0.64617556 0
-33.594501 45.933998 380.358 -0.17486072 -0.45838308 -0.87138319 0
-33.5667 46.285702 380.20999 -0.05687663 -0.14765482 -0.9874022 0
-33.559502 48.7822 379.39099 -0.42152622 -0.25507465 -0.8702026 0
-33.523899 52.827202 377.67899 -0.18203437 -0.44314006 -0.87777579 0
-33.523201 49.303501 379.14801 -0.082356013 -0.32112578 -0.94344884 0
-33.5224 49.828999 378.93399 0.022838138 -0.41674355 -0.90873718 0
-33.5075 87.088303 358.298 -0.29146925 -0.29590702 -0.90966189 0
-33.474098 14.6867 389.73401 0.27133006 -0.17068204 -0.94723159 0
-33.449001 50.582001 378.556 -0.26973581 -0.24102202 -0.93228269 0
-33.447201 87.2565 358.17999 -0.17232428 -0.082884327 -0.981547 0
-33.2985 12.8526 390.08801 0.22942409 -0.1446518 -0.96251774 0
-33.2887 88.602203 357.57001 -0.61368501 -0.1403569 -0.77697533 0
-33.075298 13.6788 390.01501 0.24689902 -0.14996888 -0.95736629 0
-33.074902 12.553 390.189 0.23328696 -0.15148793 -0.96053559 0
-33.071899 88.085701 357.522 -0.53901601 -0.11623425 -0.83423698 0
-32.848598 88.0812 357.51599 -0.39667192 -0.67369449 -0.623528 0
-32.846298 88.238297 357.37799 -0.63094199 -0.18216866 -0.75413978 0
-32.736301 12.5716 390.24799 0.25898758 -0.24028315 -0.93551558 0
-32.670898 90.168198 356.797 -0.87936991 0.17807421 -0.44158587 0
-32.637299 15.4352 389.82999 0.24610636 -0.16947585 -0.95431107 0
-32.5686 14.0722 390.082 0.23251185 -0.16379552 -0.95870185 0
-32.547798 88.682503 356.98999 -0.3480514 -0.30382559 -0.88687664 0
-32.483898 90.894402 356.76901 -0.88540626 0.21240352 -0.41344956 0
-32.4375 12.8531 390.29599 0.22645475 -0.12778588 -0.96560293 0
-32.408001 89.879303 356.228 -0.84194124 -0.074772581 -0.53436321 0
-32.398102 90.103203 356.22501 -0.84194124 -0.074772581 -0.53436321 0
-32.249699 91.078796 356.36301 -0.88476872 0.20482813 -0.41860449 0
-32.209801 91.968498 356.73999 -0.88956666 0.22115754 -0.39970049 0
-32.1166 91.650597 356.41 -0.8823055 0.22293316 -0.41453326 0
-32.067799 90.552597 355.772 -0.79116797 -0.097518303 -0.60377431 0
-32.0606 13.0774 390.35501 0.17698172 -0.099247739 -0.97919732 0
-31.951599 91.002701 355.69101 -0.86800969 0.15276015 -0.4724654 0
-31.8713 91.340897 355.689 -0.87603283 0.14332573 -0.46046087 0
-31.837299 15.0285 390.08801 0.21588586 -0.16292015 -0.96273065 0
-31.8286 92.559799 356.25101 -0.88494205 0.22453117 -0.40799916 0
-31.8127 13.434 390.358 0.16373761 -0.10531123 -0.98086673 0
-31.783001 91.077202 355.39401 -0.87603283 0.14332573 -0.46046087 0
-31.7817 92.146797 355.952 -0.88817298 0.21734613 -0.40485731 0
-31.743601 13.9413 390.28699 0.20269755 -0.15552659 -0.96681184 0
-31.7358 91.377098 355.41 -0.87603283 0.14332573 -0.46046087 0
-31.652901 91.003502 355.17401 -0.87603283 0.14332573 -0.46046087 0
-31.632 91.301804 355.17099 -0.87603283 0.14332573 -0.46046087 0
-31.631001 92.943298 356.02802 -0.88580364 0.28256726 -0.36811364 0
-31.5781 12.2454 390.55499 0.50521439 -0.76929784 -0.39107451 0
-31.469299 92.576698 355.48599 -0.8946141 0.2200359 -0.38890848 0
-31.4107 91.976303 354.98001 -0.89453471 0.17428051 -0.4116236 0
-31.386 93.270599 355.673 -0.9094491 0.24689302 -0.33458364 0
-31.349199 12.7033 390.492 0.061221216 -0.54985046 -0.83301646 0
-31.272301 91.603203 354.56699 -0.8894279 0.14987954 -0.43180335 0
-31.2428 93.720001 355.617 -0.87964934 0.41852054 -0.22595932 0
-31.212799 91.864197 354.49799 -0.89453471 0.17428051 -0.4116236 0
-31.191099 91.680199 354.422 -0.89003712 0.15985036 -0.4269447 0
-31.188801 92.447601 354.75101 -0.89051944 0.23291591 -0.3908008 0
-31.0972 92.0895 354.34399 -0.89091486 0.18654336 -0.41409209 0
-31.055 93.160797 354.89999 -0.87964851 0.2463192 -0.40687269 0
-31.0501 13.7913 390.439 0.18294092 -0.13825284 -0.9733544 0
-31.012501 14.5224 390.34799 0.20950806 -0.13975437 -0.96776807 0
-30.983101 92.455101 354.28601 -0.88642156 0.21083358 -0.41207525 0
-30.965799 15.1835 390.254 0.20852172 -0.15454547 -0.96572995 0
-30.841801 92.296997 353.93301 -0.68284994 -0.18883845 -0.70573086 0
-30.827499 12.706 390.59698 0.257413 -0.55035174 -0.79426163 0
-30.802601 94.396896 355.12701 -0.84352976 0.45790914 -0.28067207 0
-30.775101 92.539101 353.89499 -0.85088527 0.056577679 -0.52229607 0
-30.723499 94.0047 354.71201 -0.87739825 0.25269681 -0.40781939 0
-30.6381 14.2038 390.46899 0.19856921 -0.12203036 -0.97246021 0
-30.6127 93.580597 354.216 -0.87244016 0.27263072 -0.40561143 0
-30.600901 12.6311 390.64801 0.257413 -0.55035174 -0.79426163 0
-30.599501 94.619102 354.83099 -0.90481168 0.33140948 -0.26736403 0
-30.594299 92.894997 353.70499 -0.82645971 0.096417867 -0.55467826 0
-30.5226 12.3755 391.16599 0.19484712 -0.93094742 -0.30882272 0
-30.4911 92.653603 353.37 -0.6684261 -0.0099275941 -0.74371231 0
-30.4501 94.546204 354.453 -0.8745662 0.25426564 -0.4128958 0
-30.448 91.841202 353.87399 -0.45130387 -0.60617125 -0.65489024 0
-30.435499 93.158699 353.51599 -0.8962543 0.24707463 -0.36835083 0
-30.3874 92.3255 353.34601 -0.45436266 0.2028943 -0.86740333 0
-30.374599 13.6784 390.58499 0.17767073 -0.11872806 -0.97690159 0
-30.2992 13.2094 390.66101 0.1779899 -0.09530668 -0.97940606 0
-30.298599 14.3528 390.51801 0.17824188 -0.12582244 -0.97590911 0
-30.2971 14.6143 390.48901 0.17941783 -0.15152574 -0.97203356 0
-30.249001 93.431702 353.26999 -0.89022398 0.29200581 -0.34961954 0
-30.232201 94.342201 353.88699 -0.8757782 0.25398612 -0.41049188 0
-30.2064 15.5353 390.358 0.18915717 -0.16112098 -0.968638 0
-30.180901 94.096802 353.62701 -0.87463558 0.26915967 -0.40319431 0
-30.141399 93.178596 352.76999 -0.91736883 -0.17116037 -0.35935849 0
-30.0821 92.802399 352.729 -0.84521115 -0.45054904 -0.28744328 0
-30.076799 12.6344 390.746 0.478571 -0.33645514 -0.81102884 0
-29.9893 94.133797 353.215 -0.87930191 0.27808225 -0.38665029 0
-29.976999 93.180397 352.47299 -0.49743858 -0.36256069 -0.78810191 0
-29.9153 92.6548 352.79599 -0.84521115 -0.45054904 -0.28744328 0
-29.851101 12.5191 391.16501 0.063739523 -0.99795789 -0.0041598645 0
-29.7048 94.675301 352.92899 -0.88435566 0.25809112 -0.38897824 0
-29.6982 94.134697 352.539 -0.89157033 0.20879319 -0.40188026 0
-29.637899 93.482101 352.177 -0.45513612 -0.17117921 -0.87381279 0
-29.634899 14.3778 390.61801 0.15012196 -0.12772903 -0.98038191 0
-29.6329 12.6332 391.022 0.063739523 -0.99795789 -0.0041598645 0
-29.5979 93.852798 352.16699 -0.85702968 0.028782628 -0.51446253 0
-29.5488 13.303 390.771 0.24731216 -0.36181 -0.89884937 0
-29.4526 94.405296 352.185 -0.86834037 0.23829749 -0.43497041 0
-29.3493 94.151604 351.87201 -0.82130545 0.1325963 -0.55486536 0
-29.308399 94.376801 351.86801 -0.83629197 0.11334294 -0.53644121 0
-29.0623 13.8382 390.78 0.12865068 -0.12740353 -0.98347211 0
-29.0509 94.078697 351.52701 -0.65656382 -0.5018186 -0.56311816 0
-28.9116 13.6029 390.82901 0.18357049 -0.28058791 -0.94211054 0
-28.7749 94.679802 350.92899 -0.73601556 -0.3407543 -0.58495098 0
-28.7355 94.313599 351.08801 -0.42593595 -0.55408818 -0.71523762 0
-28.6474 93.892197 351.49799 -0.51706249 -0.67844832 -0.52187574 0
-28.3503 12.981 391.16599 -0.2194948 -0.62324303 -0.75059319 0
-28.1229 94.922302 350.216 -0.48934856 -0.4474048 -0.74857658 0
-28.048599 94.421204 350.81201 -0.62631208 -0.4034543 -0.66705161 0
-28.012199 13.1005 391.10501 0.15690961 -0.77021408 -0.61818254 0
-27.743601 95.319901 349.715 -0.33209175 -0.52423555 -0.7841506 0
-27.664 96.324203 349.18201 -0.33638707 0.46486828 -0.81898791 0
-27.601801 13.2072 391.14499 0.26160464 -0.96494418 0.021112854 0
-27.5196 96.474503 349.172 -0.33638707 0.46486828 -0.81898791 0
-27.5175 95.884399 349.133 0.021120846 -0.40238523 -0.91522676 0
-27.4492 95.5448 349.457 -0.018423887 -0.73741782 -0.67518556 0
-27.375299 13.2584 391.168 0.20293181 -0.97871488 0.03059129 0
-27.3456 95.360603 349.672 -0.0021559694 -0.76930588 -0.63887697 0
-27.2987 95.097504 349.98999 -0.0021559694 -0.76930588 -0.63887697 0
-27.2981 97.070999 349.64099 -0.12948346 0.6185903 -0.77497101 0
-27.242399 93.7164 351.66501 -0.023805881 -0.77359712 -0.63323039 0
-27.0002 96.474197 349.23199 0.070584692 0.57943934 -0.81195313 0
-26.9993 96.325996 349.13101 0.11906761 0.31828737 -0.94048715 0
-26.997601 97.005997 349.64999 0.1831868 0.60075176 -0.77816445 0
-26.9424 94.608101 350.59 -0.0028529202 -0.7693724 -0.63879418 0
-26.8862 95.462303 349.54001 -0.0051849089 -0.7699315 -0.63810551 0
-26.6992 13.3772 391.16699 0.076507196 -0.62993157 -0.7728731 0
-26.6518 95.243896 349.811 -0.0029576877 -0.77513462 -0.63178915 0
-26.549601 96.475899 349.35999 0.28158206 0.50211519 -0.81767464 0
-26.5383 97.756699 350.32999 0.14900173 0.60926545 -0.7788415 0
-26.3995 96.027397 349.19501 0.29923511 -0.18738884 -0.93559808 0
-26.3988 13.4192 391.16699 0.24705201 -0.63379461 -0.73298687 0
-26.389299 97.021599 349.806 0.16954651 0.58286041 -0.79468715 0
-26.2859 93.510002 351.87201 -0.038172957 -0.7573036 -0.65194643 0
-26.23 96.590202 349.526 0.20086601 0.51817834 -0.83135074 0
-26.173201 95.348 349.681 0.012772957 -0.77404994 -0.63299567 0
-25.985901 94.850601 350.297 -0.063900836 -0.7457273 -0.66317981 0
-25.9673 94.444603 350.763 -0.063917987 -0.76124829 -0.64530265 0
-25.9499 13.5508 391.76401 0.24169412 -0.95691061 -0.16095349 0
-25.948601 95.402702 349.60999 0.028232839 -0.76750737 -0.64041811 0
-25.8001 13.9044 391.133 0.31814647 -0.89365584 -0.31648394 0
-25.798401 95.3284 349.75 0.04904424 -0.76913095 -0.63720661 0
-25.778799 97.3451 350.16299 0.14210828 0.58619571 -0.79760885 0
-25.723301 94.9907 350.13101 -0.12333491 -0.74085391 -0.66024536 0
-25.705099 96.551804 349.59201 0.12611063 0.61131734 -0.78127283 0
-25.650999 93.916496 351.38 -0.0037663034 -0.76513833 -0.64385492 0
-25.535299 94.738503 350.37201 -0.093455411 -0.74697536 -0.65825063 0
-25.5035 13.8371 391.17599 -0.038940292 -0.96347219 -0.2649622 0
-25.3491 95.424797 349.64899 0.015617595 -0.73954755 -0.67292309 0
-25.3484 94.542099 350.595 -0.017385555 -0.78455251 -0.61981863 0
-25.2752 13.8301 391.20099 -0.038940292 -0.96347219 -0.2649622 0
-25.2743 13.6728 391.76501 -0.021956602 -0.9829908 -0.18233748 0
-25.1982 94.678001 350.367 -0.066189721 -0.81392789 -0.57718307 0
-25.1245 13.6948 391.76501 0.10516347 -0.98164624 -0.15909512 0
-25.123699 95.7276 349.18799 -0.070768334 -0.48836291 -0.86976635 0
-25.049101 94.977203 349.98901 -0.033547096 -0.678262 -0.73405397 0
-24.978701 13.8016 391.362 0.47573924 -0.7674334 -0.42978847 0
-24.7486 95.426598 349.73901 0.093389869 -0.71867239 -0.68904889 0
-24.748501 94.378799 350.87 -0.035647374 -0.80367547 -0.59399921 0
-24.7201 93.809097 351.47699 -0.023249255 -0.72227418 -0.69121593 0
-24.523899 95.425903 349.73401 -0.092115283 -0.65992147 -0.74566638 0
-24.4487 94.385902 350.866 -0.094444305 -0.78493923 -0.61233217 0
-24.448299 95.868797 349.181 -0.07163284 -0.82608753 -0.55897057 0
-24.3743 95.276398 349.78699 -0.20114534 -0.59691352 -0.77668196 0
-24.301701 13.88 391.65302 0.5750249 -0.71996182 -0.38858885 0
-24.1495 94.840103 350.01401 -0.0086130397 -0.72361434 -0.6901508 0
-24.077801 94.596901 350.37399 0.049215287 -0.85704267 -0.51288956 0
-23.999001 95.436699 349.487 -0.23186536 -0.74180806 -0.62925297 0
-23.9988 95.708801 349.15601 0.30492428 -0.38280499 -0.87205595 0
-23.8519 94.681 350.37399 0.11206323 -0.81410658 -0.56980026 0
-23.7735 94.193001 351.00699 -0.04022878 -0.7596525 -0.64908379 0
-23.6987 95.194099 349.70801 -0.073868029 -0.72579384 -0.68393481 0
-23.5525 14.1388 391.61899 0.37589711 -0.87006646 -0.31888196 0
-23.549 94.882797 350.14401 0.071862072 -0.82204205 -0.56487411 0
-23.549 94.430298 350.737 0.067691728 -0.80465347 -0.58987343 0
-23.323601 95.134201 349.69199 -0.066295229 -0.84530658 -0.53015256 0
-23.211399 94.8172 350.21399 -0.044064466 -0.81650972 -0.57564759 0
-23.1742 14.1975 391.76501 0.036503553 -0.96732157 -0.25091136 0
-22.799 95.877098 349.46701 0.38011372 0.26168856 -0.88714862 0
-22.6483 95.1511 349.61401 -0.0043246578 -0.56344503 -0.82614225 0
-21.449699 95.949799 349.789 0.21909168 0.71740067 -0.66131318 0
-21.336201 96.294197 350.215 0.14824703 0.80787617 -0.57040238 0
-21.0926 95.840103 349.80301 0.20468913 0.716537 -0.66684115 0
-21.0735 96.574799 350.832 0.026742829 0.74190837 -0.66996777 0
-21 96.283699 350.37 0.23798151 0.79254282 -0.561463 0
-20.924101 96.4841 350.70801 0.079222865 0.79569125 -0.60049909 0
-20.8508 14.6383 391.61899 0.13851289 -0.9290188 -0.34313011 0
-20.8493 95.725601 349.76401 0.21089706 0.75070912 -0.62606567 0
-20.6436 95.873199 349.94299 0.15029992 0.73864925 -0.65712041 0
-20.3265 14.6975 391.76599 0.25055239 -0.9597699 -0.12674879 0
-20.249201 95.575897 349.76599 0.19108315 0.59494281 -0.78072423 0
-20.2486 96.815102 350.86801 0.021916183 0.60986835 -0.79219967 0
-20.0424 96.092697 350.259 0.1434046 0.65309942 -0.74356997 0
-19.9513 95.276703 349.67099 -0.047285236 -0.030036077 -0.99842972 0
-19.9489 95.801903 350.01999 0.1614169 0.59159315 -0.78991276 0
-19.874901 15.0312 391.41101 -0.23110867 -0.77322495 -0.59051841 0
-19.874399 96.567703 350.70499 0.12733229 0.65284353 -0.746714 0
-19.6493 14.8777 391.76599 0.26549801 -0.95024896 -0.16290407 0
-19.638599 96.837502 350.98099 0.1361918 0.63895732 -0.75709003 0
-19.574699 97.145103 351.25101 0.075322293 0.6922732 -0.71769375 0
-19.498899 15.0169 391.466 0.30350691 -0.70064789 -0.64573687 0
-19.498899 95.820801 350.12 0.15419783 0.6123305 -0.77541888 0
-19.498899 15.0169 391.466 0.30350691 -0.70064789 -0.64573687 0
-19.4575 96.253502 350.50601 0.15050407 0.65347642 -0.74183363 0
-19.3507 95.275299 349.759 0.14034511 0.57783842 -0.80399376 0
-19.002399 96.569504 350.88699 0.15807776 0.62736648 -0.76251078 0
-19.0023 95.8386 350.24399 0.16864686 0.62745321 -0.76017147 0
-18.8246 95.275101 349.84799 0.12736295 0.59290057 -0.79513997 0
-18.7862 15.0361 391.54199 0.017961562 -0.98941112 -0.14402425 0
-18.686001 96.995201 351.276 0.12397437 0.62771529 -0.76850754 0
-18.6733 95.128998 349.785 0.18381596 0.50564915 -0.84292978 0
-18.5425 95.6576 350.185 0.14750572 0.63178253 -0.76098156 0
-18.485701 95.991997 350.508 0.15936957 0.64975351 -0.74325079 0
-18.373199 96.291901 350.79199 0.15105996 0.64946181 -0.74523836 0
-18.300301 95.275299 349.92001 0.20210817 0.5040918 -0.83966881 0
-18.149599 96.998001 351.34601 0.10287831 0.59944153 -0.79377949 0
-18.1485 94.830002 349.78299 0.52787566 0.02965576 -0.84880376 0
-17.999701 95.505798 350.177 0.15445414 0.63591117 -0.7561487 0
-17.9981 96.405502 350.94901 0.1422417 0.60825771 -0.78089041 0
-17.9237 94.8283 349.77399 0.43338409 -0.3430506 -0.83336341 0
-17.6057 95.911598 350.60101 0.13526779 0.64287996 -0.75392836 0
-17.548901 95.277397 350.07599 0.16750167 0.52417302 -0.83497655 0
-17.3992 95.5756 350.345 0.14173386 0.63718635 -0.75756526 0
-17.235001 96.3638 351.043 0.15480579 0.61176288 -0.77574569 0
-17.1721 15.5562 391.19299 -0.50102574 -0.40493599 -0.764853 0
-17.116699 95.355797 350.22198 0.1601311 0.62469697 -0.76427203 0
-16.9118 95.837898 350.66101 0.15252423 0.63553751 -0.7568543 0
-16.6495 95.274696 350.255 0.17245762 0.62184578 -0.76391506 0
-16.6492 15.4874 391.17099 0.0024992535 -0.63532901 -0.77223754 0
-16.1262 15.5556 391.19199 0.083976448 -0.78505033 -0.6137132 0
-15.8253 15.6326 391.20499 0.31037053 -0.74403459 -0.59167784 0
-15.7134 94.748497 350.10901 -0.020380178 0.038823742 -0.99903822 0
-15.526 15.6016 391.34201 0.31037053 -0.74403459 -0.59167784 0
-15.4874 15.4455 391.69101 0.2102031 -0.94111848 -0.2647841 0
-15.1493 94.676697 350.22501 0.4948191 0.23191002 -0.83747941 0
-15.0714 93.812302 350.37399 -0.049710263 -0.36617061 -0.92921901 0
-14.8475 93.8153 350.32501 -0.13993338 -0.26121712 -0.95508337 0
-14.5483 15.7683 391.16901 0.12536375 -0.95175105 -0.28009617 0
-14.2489 15.8068 391.168 -0.098979853 -0.66842729 -0.73716211 0
-14.1737 93.651299 350.44 0.17995961 -0.47989935 -0.85866827 0
-13.8746 94.0774 350.228 -0.077089019 -0.0070764148 -0.99699908 0
-13.7276 15.8682 391.173 0.36010104 -0.76980549 -0.5269978 0
-13.3501 94.075996 350.358 0.19564225 0.091212206 -0.97642434 0
-13.1232 16.230801 390.70401 -0.021968609 -0.515405 -0.85666507 0
-13.0495 93.476501 350.39301 -0.14746995 -0.23530762 -0.96066797 0
-13.0495 93.926498 350.362 0.086776376 0.093129896 -0.99186528 0
-13.0495 93.476501 350.39301 -0.14746995 -0.23530762 -0.96066797 0
-13.0495 93.926498 350.362 0.086776376 0.093129896 -0.99186528 0
-13.0495 93.476501 350.39301 -0.14746995 -0.23530762 -0.96066797 0
-13.0495 93.926498 350.362 0.086776376 0.093129896 -0.99186528 0
-12.3747 93.553802 350.37399 -0.061748691 -0.17500198 -0.98262984 0
-12.3731 16.2082 390.77802 0.29203123 -0.73005515 -0.61784887 0
-12.2987 16.7537 390.59201 -0.09449517 -0.43276578 -0.89654028 0
-12.2265 93.623901 350.38699 -0.10388959 0.067081943 -0.99232399 0
-11.9992 93.478401 350.39499 0.25014162 -0.29245955 -0.92298245 0
-11.2492 16.5312 390.57501 0.034309126 -0.83411527 -0.55052209 0
-10.7992 16.6852 390.59399 -0.11736297 -0.56580991 -0.81614035 0
-10.7237 16.8279 390.50299 -0.11736297 -0.56580991 -0.81614035 0
-10.3483 93.479103 350.71201 0.018231463 0.084620275 -0.99624646 0
-10.1417 16.8179 390.43201 -0.092174016 -0.39540496 -0.91387028 0
-9.2257996 92.875999 350.60199 -0.034811709 -0.0100114 -0.99934375 0
-8.9987097 16.8654 390.17001 -0.1541936 -0.53848094 -0.82840967 0
-8.8490896 16.371 390.564 -0.044520322 -0.93766874 -0.3446669 0
-8.3979502 16.9041 390.069 -0.09518797 -0.38470921 -0.91811657 0
-8.2666702 16.403999 390.466 -0.065857813 -0.92907107 -0.36399135 0
-7.7981 92.2771 350.66501 -0.095923431 -0.043091368 -0.99445552 0
-7.6490502 16.413099 390.491 -0.021284072 -0.93649429 -0.35003635 0
-7.0485001 16.829201 389.935 -0.17381176 -0.55477625 -0.81364167 0
-6.9264598 16.4501 390.556 0.079890713 -0.92094153 -0.38142392 0
-6.9051199 91.429703 350.957 -0.20971149 -0.46062645 -0.86246413 0
-6.5247798 16.825399 389.88901 -0.08357916 -0.70169222 -0.70756096 0
-6.4483299 16.679899 389.96799 -0.08357916 -0.70169222 -0.70756096 0
-5.8481498 16.466801 389.96701 -0.18535441 -0.70294446 -0.68666792 0
-5.62363 91.527802 350.39899 0.16244827 -0.40602976 -0.89930552 0
-5.24858 16.358601 389.965 -0.066032253 -0.83038539 -0.55326289 0
-4.7973099 16.327999 389.96899 0.11969452 -0.83220875 -0.54138881 0
-4.0460801 90.650803 350.81699 -0.26307073 -0.47165239 -0.84162807 0
-3.8971601 16.9035 389.42401 -0.52699077 -0.44402421 -0.72465384 0
-3.7479701 16.273899 389.92899 -0.11835205 -0.95362145 -0.27676511 0
-3.5234301 16.2607 389.81601 -0.11835205 -0.95362145 -0.27676511 0
-3.4484999 91.076698 350.59 -0.23658167 -0.066050366 -0.96936393 0
-3.3730299 16.530701 389.366 -0.12580356 -0.67368823 -0.72822911 0
-2.6981201 90.6287 350.34201 -0.034147132 -0.14139847 -0.98936367 0
-2.5471001 16.3316 389.37 -0.53918844 -0.73906797 -0.40379989 0
-2.39973 90.773003 350.37799 0.041552331 0.10704233 -0.99338579 0
-2.39856 16.209801 389.81601 -0.19762158 -0.95526862 -0.22001709 0
-2.3230801 16.178101 389.66501 -0.13678525 -0.9836843 -0.11685444 0
-2.17135 16.2146 389.371 -0.096948311 -0.97570235 -0.19648409 0
-1.8749501 90.553001 350.39099 -0.20454237 -0.16177888 -0.96539629 0
-1.64685 16.829 388.90701 -0.13000704 -0.41645455 -0.89981318 0
-1.57421 90.553001 350.452 0.18166634 -0.029978262 -0.98290318 0
-1.15984 16.885201 388.772 -0.18027045 -0.47186416 -0.86304504 0
-0.63454002 16.469601 388.793 -0.33885732 -0.56482112 -0.75243127 0
-0.44889399 90.027802 350.375 -0.14513268 -0.082936205 -0.98593009 0
0.00387287 89.8517 350.33499 -0.1375773 -0.15508108 -0.97827518 0
0.22794101 16.262899 388.76901 -0.098565735 -0.91312981 -0.39557394 0
0.45212299 90.3993 350.38901 -0.1163718 0.33980432 -0.93326879 0
0.60307801 89.582802 350.32501 0.15767893 -0.36124545 -0.91904247 0
0.61969501 90.762199 350.62 -0.061341558 0.55973792 -0.82639617 0
0.67701399 16.6791 388.19199 -0.40120593 -0.47530222 -0.78302079 0
1.0519201 90.397598 350.33701 -0.040814333 0.55015141 -0.83406693 0
1.2059799 90.824203 350.621 -0.049298365 0.56790173 -0.82161868 0
1.35122 91.301498 350.957 0.055086415 0.61642182 -0.78548688 0
1.35401 16.323099 388.17499 -0.18813743 -0.832771 -0.52066952 0
1.5030299 89.414101 350.23599 -0.078193441 -0.38896412 -0.91792846 0
1.59509 90.291199 350.24399 0.016100174 0.5330596 -0.8459245 0
1.72141 91.573303 351.20999 0.10601836 0.65940839 -0.74427187 0
1.95021 91.747498 351.41 0.13789916 0.67286408 -0.72679967 0
1.95147 90.2556 350.229 -0.067245953 0.16818783 -0.98345864 0
2.02619 16.3188 388.16901 0.2626878 -0.86652118 -0.42442456 0
2.06407 91.2677 350.99799 0.074251682 0.64952523 -0.75670582 0
2.2488699 91.811501 351.53799 0.029796042 0.91517812 -0.40194681 0
2.32533 89.875702 350.05701 0.13851804 0.082289264 -0.98693526 0
2.32621 90.963997 350.77499 0.050400201 0.62400168 -0.77979594 0
2.40133 90.459297 350.392 -0.0053987377 0.55787086 -0.82991022 0
2.5120399 91.720299 351.49701 0.16036913 0.83144015 -0.5319671 0
2.63083 16.686399 387.55899 -0.50091511 -0.80831796 -0.30936405 0
2.7762101 91.001701 350.82901 0.060010996 0.65254277 -0.75537187 0
2.84832 91.795097 351.71899 0.15574433 0.95455509 -0.25410298 0
2.8512499 90.5513 350.45999 0.052883159 0.63190174 -0.77324224 0
2.9261401 16.3967 388.091 -0.016690228 -0.97097212 -0.23860958 0
2.92752 89.426003 350.30399 0.24124315 -0.37976518 -0.89307344 0
3.0040801 16.488199 387.57199 -0.22870049 -0.70939976 -0.66666937 0
3.0729401 91.831902 351.866 0.18650715 0.94143307 -0.28092495 0
3.0762701 16.3951 387.94101 -0.016690228 -0.97097212 -0.23860958 0
3.14942 91.635597 351.569 0.18650715 0.94143307 -0.28092495 0
3.1499701 90.473099 350.39401 0.16587332 0.42981291 -0.88755107 0
3.1503799 91.037498 350.89999 0.11404823 0.65486568 -0.74709034 0
3.3174601 88.814003 350.82199 0.31439716 -0.50557417 -0.80346078 0
3.4174199 89.498299 350.48099 0.34614244 -0.45824403 -0.81865609 0
3.44665 89.805298 350.36801 0.49114826 -0.032945354 -0.87045276 0
3.51618 90.468498 350.48001 0.3671951 0.37811649 -0.84982097 0
3.67155 91.009399 350.97501 0.4547722 0.57780838 -0.67773134 0
3.7525499 16.828501 387.03201 -0.3486537 -0.44757116 -0.82348078 0
3.8264101 16.3486 387.565 -0.068065621 -0.98256433 -0.17301549 0
3.90342 89.126404 350.91699 0.50735188 -0.2820214 -0.81428373 0
3.9732201 88.9048 351.052 0.48667741 -0.339517 -0.80490577 0
3.99331 90.549202 350.897 0.71516854 0.30370879 -0.62951964 0
4.0481901 88.381203 351.35199 0.5686627 -0.36795536 -0.73568445 0
4.08915 88.152298 351.504 0.52480042 -0.36162326 -0.77059275 0
4.1261601 90.438698 351.04401 0.77214789 0.30088085 -0.55969489 0
4.1331301 89.409401 351.026 0.72548801 -0.14395393 -0.67301142 0
4.14394 89.8032 350.97 0.72653526 -0.030771499 -0.68643987 0
4.2746301 88.3041 351.51199 0.52480042 -0.36162326 -0.77059275 0
4.5021 16.513901 386.98001 -0.24220209 -0.75182998 -0.61326164 0
4.5170798 89.8022 351.49301 0.83957672 0.14986245 -0.52216113 0
4.5321102 88.814796 351.54401 0.6269266 -0.19080365 -0.75535226 0
4.66749 89.240303 351.64001 0.83012432 0.033672143 -0.5565607 0
4.66818 87.442299 352.15399 0.41166154 -0.41555566 -0.81107843 0
4.6796598 89.802902 351.79001 0.88337582 0.22527584 -0.410972 0
4.72577 87.853104 351.99799 0.59046102 -0.26696059 -0.76163495 0
4.7456298 88.312202 351.858 0.61760622 -0.2227923 -0.75427192 0
4.8636899 89.653198 352.08899 0.87855387 0.1501182 -0.4534398 0
4.8966799 88.004501 352.07401 0.59046102 -0.26696059 -0.76163495 0
5.00453 89.202499 352.16599 0.86793542 0.19354522 -0.45741487 0
5.0805302 88.340797 352.168 0.74577552 -0.078875333 -0.6615116 0
5.1192598 86.765999 352.707 0.41836846 -0.42188963 -0.80434877 0
5.16713 89.434601 352.673 0.89499104 0.36363527 -0.25838029 0
5.1749401 16.476299 386.978 0.088221245 -0.90812528 -0.40929872 0
5.2087998 87.704002 352.41901 0.58297348 -0.31954175 -0.74701738 0
5.2792101 88.808296 352.505 0.88908929 0.1724278 -0.42401516 0
5.3235798 89.275902 352.991 0.86261648 0.40932685 -0.29722771 0
5.3381801 88.386703 352.50699 0.7391755 -0.0030961207 -0.67350572 0
5.3461699 87.553497 352.573 0.58430934 -0.23784052 -0.77589595 0
5.4709902 87.104698 352.78101 0.59382975 -0.24866053 -0.76520205 0
5.5684099 87.702904 352.76501 0.78556913 0.0035875076 -0.61876351 0
5.7377801 88.453796 353.289 0.90664065 0.38539791 -0.17167176 0
5.7690802 86.207703 353.306 0.46139705 -0.27009046 -0.84508216 0
5.8902402 88.190399 353.44 0.93632847 0.23571379 -0.26024595 0
5.9028001 86.952698 353.21399 0.76140928 -0.026992586 -0.64770925 0
5.9085999 87.552597 353.21701 0.84149528 0.1103509 -0.52887458 0
5.9112601 88.001999 353.367 0.93118036 0.20408581 -0.30207968 0
5.9242802 16.7061 386.966 -0.035515632 -0.97822154 -0.20450245 0
5.9997501 85.641602 353.70999 0.48624775 -0.38674021 -0.78357846 0
6.0190101 87.402802 353.36499 0.89128304 0.064747155 -0.44880107 0
6.0215302 86.802803 353.36499 0.76072484 -0.10988043 -0.63970619 0
6.0815501 16.9709 386.37601 -0.51268446 -0.66690153 -0.54073745 0
6.08323 16.8207 386.492 -0.16582075 -0.93483168 -0.3139956 0
6.2520599 87.7015 353.966 0.87058425 0.33386779 -0.36140752 0
6.30159 16.7516 386.741 -0.16582075 -0.93483168 -0.3139956 0
6.3485298 86.952003 353.82001 0.83646899 -0.0028700251 -0.54800677 0
6.3748899 85.603401 353.98599 0.56463093 -0.19822459 -0.80118597 0
6.4052901 87.099899 353.97198 0.85720718 0.16975085 -0.48618978 0
6.4684901 86.202599 353.96301 0.84558642 -0.02157153 -0.53340256 0
6.5240302 85.378601 354.17999 0.58507669 -0.22133812 -0.78018886 0
6.5307698 16.753901 386.37201 -0.2155403 -0.94650435 -0.24014972 0
6.54704 87.327599 354.48999 0.9198578 0.33302924 -0.20725153 0
6.58288 86.202797 354.112 0.79357857 0.015752872 -0.60826385 0
6.5905099 86.804001 354.26199 0.90448803 0.163725 -0.39382166 0
6.5991101 84.816498 354.435 0.48960453 -0.36016098 -0.79408532 0
6.6862402 16.842501 386.11899 -0.25697553 -0.91503501 -0.31092519 0
6.71632 86.503304 354.414 0.84575051 0.091751426 -0.52563083 0
6.8533702 84.965797 354.57901 0.60244328 -0.2421554 -0.76054114 0
6.90413 85.901497 354.57199 0.87507391 0.15978739 -0.45685187 0
6.9302201 85.602798 354.56799 0.7748099 -0.064476855 -0.62889773 0
7.1157298 85.602997 354.86401 0.87403929 0.17264347 -0.4541471 0
7.12321 84.253899 355.005 0.47321942 -0.28033903 -0.83514875 0
7.12533 84.759499 354.888 0.7264961 -0.05212906 -0.68519044 0
7.1268702 16.6185 386.366 -0.19327374 -0.94149768 -0.2760931 0
7.1297002 86.2043 355.16299 0.9129895 0.22259653 -0.34190789 0
7.2674298 84.031303 355.194 0.58331984 -0.28086439 -0.76213723 0
7.2779999 16.830999 385.87299 -0.15141799 -0.78510743 -0.60056543 0
7.3303399 85.301903 355.168 0.88444686 0.083758913 -0.45906231 0
7.3491602 83.054703 355.655 0.45445648 -0.34553257 -0.82102168 0
7.3703399 85.002502 355.168 0.8074348 -0.028034424 -0.58929038 0
7.47194 85.675003 355.69199 0.94013518 0.27560997 -0.20046188 0
7.61059 82.961098 355.836 0.5232262 -0.28281087 -0.80389822 0
7.6325698 16.6957 386.85199 0.086851574 -0.9856928 0.14445233 0
7.7185998 84.852798 355.76501 0.88232088 0.21806408 -0.41708264 0
7.7262502 16.5583 386.366 -0.010343304 -0.99662471 -0.081438206 0
7.7397399 84.477402 355.69299 0.80151087 0.063697986 -0.59457791 0
7.7518201 83.690201 355.73901 0.67173576 -0.16469117 -0.72225195 0
7.7730498 85.076401 355.992 0.90104824 0.2601414 -0.34704247 0
7.8593998 85.077202 356.29099 0.88146448 0.36848184 -0.29536679 0
7.9936099 84.552498 356.215 0.90104824 0.2601414 -0.34704247 0
8.0166702 16.7054 387.246 0.022248033 -0.99974042 -0.0049109939 0
8.0250101 16.597401 386.36499 0.16276573 -0.98367292 -0.076778032 0
8.0270205 16.832399 385.745 -0.13194902 -0.82791919 -0.54510486 0
8.09974 83.203598 356.19501 0.71824294 -0.014243622 -0.69564664 0
8.1991196 82.755402 356.38501 0.69564748 -0.21426272 -0.68568659 0
8.2399302 83.502296 356.37 0.88890809 -0.014688594 -0.45785001 0
8.2507296 16.716801 386.73999 0.089951597 -0.98401803 0.15367886 0
8.3247805 81.778099 356.76999 0.48987284 -0.31217745 -0.81398392 0
8.3390303 83.352501 356.51901 0.85962301 0.086977459 -0.50347114 0
8.36129 81.104897 357.078 0.52299368 -0.38470498 -0.76057851 0
8.37076 82.715698 356.59201 0.8249945 -0.023939243 -0.56463349 0
8.3960896 83.502098 356.66699 0.85962301 0.086977459 -0.50347114 0
8.4102001 83.801804 356.81601 0.8636983 0.24450128 -0.44073156 0
8.4338999 81.442902 356.97299 0.57836753 -0.30982408 -0.75465226 0
8.47367 81.8535 356.87 0.72375864 -0.26448739 -0.63735384 0
8.4758396 16.7409 386.89001 0.10567219 -0.99238914 0.06322363 0
8.4770899 16.9501 385.629 -0.090961359 -0.79190135 -0.6038363 0
8.5990295 83.052299 356.96701 0.88502055 0.051623426 -0.46268094 0
8.6287203 82.752899 356.96399 0.84007877 0.11462921 -0.53021491 0
8.7421398 83.2015 357.34201 0.93480605 0.28152561 -0.21652012 0
8.78549 16.747601 387.41501 0.052401047 -0.99821681 -0.02858937 0
8.8501301 79.304703 358.18701 0.31385645 -0.42370015 -0.84968954 0
8.8517303 79.0019 358.35599 0.28697142 -0.42855304 -0.85673201 0
8.8871403 82.602303 357.41699 0.88759023 0.12096958 -0.44446594 0
8.9265404 16.7974 386.29001 -0.023139481 -0.99944699 0.023880275 0
8.9270601 16.7799 385.767 -0.16290024 -0.98537016 -0.050092056 0
8.9280005 80.652199 357.59299 0.45323244 -0.23810333 -0.8590036 0
8.9404297 81.403503 357.414 0.72158796 -0.071955137 -0.68857336 0
8.9428101 82.002899 357.41299 0.8054381 0.04539039 -0.59093922 0
8.9965296 80.167801 357.82999 0.63820106 -0.26171544 -0.72401965 0
9.0031605 81.778 357.48999 0.84717941 0.060166676 -0.52788919 0
9.0737896 81.253502 357.58301 0.7605989 -0.090930365 -0.64282262 0
9.0832796 16.846701 385.478 -0.078644723 -0.7009939 -0.70881772 0
9.1288404 79.530899 358.19199 0.40567398 -0.40465984 -0.81956029 0
9.1509199 79.979301 358.01401 0.59017766 -0.33888623 -0.73269808 0
9.1512299 16.7903 386.73999 0.030959167 -0.99932837 -0.019605301 0
9.1512699 16.800699 386.40201 -0.017029867 -0.99984568 0.0043147146 0
9.1857595 82.096298 357.88501 0.89531219 0.14708893 -0.42045328 0
9.2449503 16.756599 387.86499 0.06172473 -0.99809128 -0.0019632571 0
9.3247995 81.252701 357.94199 0.84742707 0.1133284 -0.51867533 0
9.33745 78.554497 358.74701 0.3405107 -0.4191168 -0.84166121 0
9.3387604 16.780399 387.06799 -0.0028760633 -0.9993493 -0.035953749 0
9.4509602 77.541 359.34601 0.33063129 -0.45348418 -0.82766843 0
9.4511995 16.763201 385.76501 -0.08543206 -0.99633163 -0.0049688038 0
9.4577303 81.500999 358.28299 0.8998751 0.18068936 -0.39695865 0
9.4818401 80.802902 358.16901 0.88313419 0.034070615 -0.46788159 0
9.4847898 79.454597 358.45499 0.5230028 -0.23196462 -0.82015878 0
9.5077696 16.782801 386.112 -0.041363355 -0.99809861 0.045697309 0
9.5148697 80.989998 358.24301 0.88907146 0.11513412 -0.44305307 0
9.5273504 79.151901 358.586 0.57048583 -0.28370795 -0.77075011 0
9.5468702 80.202599 358.314 0.7569564 -0.071105547 -0.64958525 0
9.6020498 16.7404 385.65399 -0.1378891 -0.98946899 0.044019673 0
9.7059498 81.139297 358.69199 0.9229368 0.15280613 -0.3533242 0
9.7226496 79.7724 358.59601 0.71842104 -0.15076859 -0.67907292 0
9.7493 79.115799 358.772 0.69602257 -0.16008717 -0.69994617 0
9.7556105 16.9097 385.07199 -0.53401959 -0.65735489 -0.53170264 0
9.7641602 80.202797 358.61499 0.86629039 -0.000437852 -0.4995406 0
9.7768803 80.652496 358.69101 0.88812643 0.089759529 -0.45074907 0
9.8631802 77.821701 359.35699 0.45363006 -0.35059854 -0.81932926 0
9.9290199 16.759399 387.134 -0.048466347 -0.99881774 0.0037545746 0
9.9736099 76.383003 360.13 0.36430272 -0.42880231 -0.82668746 0
9.9765501 16.666401 385.16501 -0.18621635 -0.9670561 -0.17356838 0
10.0321 80.315102 359.14099 0.90888035 0.071024686 -0.4109647 0
10.0498 76.754799 359.95499 0.38818014 -0.3810358 -0.83912331 0
10.0502 77.054001 359.81799 0.31226999 -0.40247011 -0.86052614 0
10.0593 78.928398 359.12 0.7781893 -0.03403952 -0.62710661 0
10.0702 16.746901 386.17801 -0.078983553 -0.99569017 0.04860764 0
10.0819 80.503502 359.36401 0.90844929 0.3460649 -0.23443331 0
10.1112 79.302803 359.14001 0.79502767 -0.039204121 -0.60530496 0
10.1277 77.576599 359.621 0.48086154 -0.31398886 -0.81864715 0
10.1663 80.239304 359.44199 0.94988286 0.18229978 -0.25394747 0
10.1954 78.404198 359.37 0.73039573 -0.22569788 -0.64465696 0
10.2006 16.702999 385.729 -0.087398537 -0.99194854 0.09164945 0
10.203 16.6388 385.16901 -0.18621635 -0.9670561 -0.17356838 0
10.2166 80.422699 359.965 0.92527312 0.35055059 -0.14485835 0
10.2357 79.6026 359.366 0.88447911 0.078862943 -0.45986661 0
10.259 78.8535 359.37299 0.8327508 -0.037771899 -0.55235803 0
10.3286 16.728201 386.61801 -0.092507228 -0.99557364 0.016600978 0
10.3845 77.055298 359.987 0.51622772 -0.31025332 -0.79828054 0
10.5005 16.7027 386.103 -0.1160226 -0.99194074 0.050915372 0
10.5296 16.725201 387.19 -0.030941792 -0.99666703 0.075481072 0
10.5474 75.291702 360.888 0.28057683 -0.48835099 -0.82631105 0
10.5601 79.002296 359.89301 0.89311814 0.10482906 -0.43743673 0
10.5883 78.533997 359.89099 0.8267082 -0.0046365792 -0.56261182 0
10.5962 77.653397 359.97501 0.69279164 -0.1297604 -0.70936733 0
10.651 75.702698 360.72501 0.3462792 -0.39118245 -0.85268223 0
10.7284 76.451302 360.418 0.45588353 -0.3021467 -0.83718431 0
10.7293 78.2528 360.116 0.87370574 0.014608467 -0.48623541 0
10.7318 77.053596 360.228 0.6802991 -0.15477006 -0.71640724 0
10.7345 77.952904 360.117 0.87370574 0.014608467 -0.48623541 0
10.7806 79.075996 360.492 0.94471574 0.25044498 -0.21163529 0
10.8741 76.453598 360.521 0.70553696 -0.28401348 -0.64927185 0
10.8764 16.6574 386.215 -0.088325717 -0.99357229 0.070800088 0
10.8791 77.652802 360.34299 0.87874097 -0.017986372 -0.47695994 0
10.927 78.402496 360.56601 0.9291966 0.14745162 -0.33889773 0
10.9894 16.607901 385.746 -0.097805336 -0.99419755 0.04478094 0
11.0233 76.903503 360.57001 0.78482753 -0.097425155 -0.61200821 0
11.1011 16.680099 386.73999 -0.053046659 -0.99648488 0.064837418 0
11.1029 16.5973 385.056 -0.13251698 -0.96880376 -0.20942426 0
11.1703 75.256302 361.17999 0.43048093 -0.3607696 -0.82736415 0
11.1746 74.054802 361.73999 0.27661332 -0.42506385 -0.86186182 0
11.2321 77.802803 361.09 0.91613853 0.17912714 -0.35861355 0
11.2513 16.7687 387.565 0.22831342 -0.90117872 0.36844251 0
11.2884 72.816498 362.392 0.28922087 -0.47199163 -0.83281159 0
11.3236 74.9543 361.401 0.67736882 -0.21078049 -0.70480007 0
11.3402 77.165398 361.09 0.8849445 0.13696229 -0.44510067 0
11.3436 76.1157 361.09201 0.78818482 -0.12826176 -0.6019249 0
11.3529 75.367203 361.285 0.67904317 -0.19392721 -0.70802021 0
11.3567 77.800499 361.54099 0.96041369 0.17568192 -0.2161977 0
11.3761 76.602798 361.09201 0.83652747 -0.030461982 -0.5470776 0
11.3977 73.981102 361.85901 0.48874694 -0.34517249 -0.801238 0
11.4106 16.624001 386.328 -0.057576369 -0.99446356 0.087904163 0
11.4481 16.688299 386.871 0.10241092 -0.98679322 0.12550379 0
11.475 74.353699 361.73199 0.44544178 -0.36185277 -0.81892866 0
11.4753 74.8032 361.565 0.67736882 -0.21078049 -0.70480007 0
11.5496 16.7913 387.56201 0.22831342 -0.90117872 0.36844251 0
11.5795 16.566099 385.67099 -0.066420227 -0.99713272 0.036258429 0
11.6684 76.901497 361.767 0.89890856 0.2719208 -0.34354395 0
11.6914 73.190903 362.362 0.35166711 -0.33768979 -0.87309557 0
11.7187 76.602699 361.76501 0.90533698 0.12159184 -0.40691572 0
11.7387 16.5467 385.11099 -0.034680903 -0.97430247 -0.22255765 0
11.7666 76.152802 361.76501 0.92514729 0.14819205 -0.34948766 0
11.7921 75.253304 361.76999 0.76426893 -0.059951227 -0.64210504 0
11.8564 74.054802 362.10101 0.5404498 -0.29011562 -0.7897765 0
11.8946 75.252998 361.91901 0.76403433 0.033577882 -0.64430124 0
11.9267 72.102402 362.953 0.34852752 -0.40709585 -0.84427571 0
11.9275 73.752197 362.25101 0.52062356 -0.31392464 -0.79397881 0
11.9298 76.377502 362.29001 0.95091856 0.25745043 -0.17167756 0
11.9532 76.039703 362.14099 0.94602197 0.16596955 -0.278382 0
11.9774 74.802803 362.06601 0.76045674 -0.063050762 -0.64632046 0
11.9995 72.9664 362.61401 0.58757806 -0.22101115 -0.77839971 0
12.0102 75.514999 362.142 0.87424451 0.047806904 -0.48312634 0
12.0736 73.753601 362.37 0.7838766 -0.29954743 -0.54388309 0
12.114 73.978203 362.358 0.76815999 -0.099958934 -0.63240689 0
12.1302 72.329597 362.939 0.53362358 -0.29462627 -0.79274285 0
12.1728 74.502998 362.37 0.8505891 -0.036169093 -0.52458549 0
12.3018 16.5247 385.539 0.098511733 -0.99513209 -0.0027554214 0
12.3442 74.352798 362.66599 0.85076106 -0.0015848291 -0.52555031 0
12.3919 73.003304 362.89099 0.64541709 -0.15500739 -0.74793684 0
12.4012 72.255203 363.12299 0.59557974 -0.23546895 -0.76800984 0
12.4476 16.5597 385.17099 0.26989031 -0.92776018 -0.25772136 0
12.4874 70.154602 364.069 0.32611629 -0.4971258 -0.804061 0
12.4875 70.903603 363.715 0.43690848 -0.38793537 -0.81155229 0
12.4883 16.620501 386.177 0.17925036 -0.97523636 0.12955065 0
12.4892 71.821297 363.33499 0.68950605 -0.17852364 -0.70193356 0
12.5189 73.3032 362.96701 0.64483255 -0.018854491 -0.76409125 0
12.5227 71.355301 363.52701 0.61098689 -0.28730693 -0.73766506 0
12.526 16.765699 386.89001 0.22690897 -0.94182205 0.24795876 0
12.5299 72.815102 363.086 0.71426696 -0.23127075 -0.66055775 0
12.5615 17.4858 384.63901 0.50631458 -0.29647028 -0.80978447 0
12.5759 73.715103 363.043 0.91406363 -0.028187001 -0.40459016 0
12.5978 73.902496 363.117 0.91294044 0.059103642 -0.40379021 0
12.6684 71.431396 363.591 0.61098689 -0.28730693 -0.73766506 0
12.6742 17.935499 384.539 0.48234683 -0.32323784 -0.81416142 0
12.7503 68.842102 364.76801 0.26186818 -0.40984699 -0.87375653 0
12.787 16.66 386.28799 0.19170475 -0.97118008 0.14162828 0
12.7963 16.721399 385.17099 0.3552061 -0.89404517 -0.27296865 0
12.85 72.403297 363.569 0.81080216 -0.18750538 -0.55447412 0
12.8696 72.703102 363.57001 0.8496359 -0.016513679 -0.52711117 0
12.8985 16.7922 386.81201 0.25919443 -0.91797048 0.30024731 0
12.9613 71.681503 363.81699 0.65935463 -0.15978689 -0.7346561 0
12.9635 18.0846 384.66101 0.55788994 -0.30336323 -0.77248275 0
12.9747 70.453598 364.177 0.5717867 -0.26532498 -0.77631348 0
13.0386 71.317001 363.95401 0.69069439 -0.34554341 -0.63524878 0
13.0501 68.4291 365.07901 0.30730546 -0.41185722 -0.85786772 0
13.0501 67.305199 365.642 0.21515772 -0.45001343 -0.86671513 0
13.0501 68.4291 365.07901 0.30730546 -0.41185722 -0.85786772 0
13.0505 68.016403 365.28 0.31150067 -0.44257274 -0.84089041 0
13.1173 16.717899 385.76401 0.29189178 -0.95454711 -0.060323946 0
13.1176 17.6525 384.99899 0.617163 -0.31034485 -0.72304624 0
13.1246 17.3519 385.16299 0.6798259 -0.38585871 -0.62365842 0
13.1254 18.553499 384.58899 0.64105624 -0.35209179 -0.68196648 0
13.1264 69.740097 364.53601 0.68622398 -0.20788069 -0.69705254 0
13.1266 18.852699 384.46399 0.63704014 -0.28557444 -0.71597981 0
13.1292 70.2854 364.35699 0.57349735 -0.25567728 -0.77828652 0
13.1625 69.047203 364.854 0.43480572 -0.36044338 -0.8252421 0
13.1837 16.8342 385.61899 0.83721268 -0.41313261 -0.35832444 0
13.1973 69.3675 364.73199 0.50665665 -0.32175803 -0.79985678 0
13.2342 16.8407 385.76999 0.43949661 -0.89753872 0.035594884 0
13.2749 16.7903 386.29001 0.41291043 -0.90336603 0.11590858 0
13.3374 19.116301 384.526 0.67637569 -0.2478023 -0.69362092 0
13.3718 69.572701 364.79099 0.6763674 -0.27594155 -0.68292272 0
13.3727 71.352699 364.466 0.86714232 -0.12068529 -0.48321766 0
13.3794 16.972099 386.36499 0.53099656 -0.82108855 0.20941889 0
13.4238 68.391701 365.28 0.50076342 -0.27953786 -0.81920362 0
13.4439 67.191498 365.85501 0.34635517 -0.39804608 -0.84946889 0
13.445 18.3846 385.01599 0.75092638 -0.35666752 -0.55578583 0
13.4673 70.003197 364.767 0.76171649 -0.17192881 -0.62468272 0
13.499 65.881203 366.48999 0.2364971 -0.39227313 -0.88892686 0
13.5137 70.303398 364.76801 0.79350102 -0.15984689 -0.58720112 0
13.5382 65.054199 366.918 0.15305704 -0.36833471 -0.91700768 0
13.5733 67.895203 365.60101 0.51820707 -0.33050513 -0.78881419 0
13.5861 17.654699 385.767 0.89219534 -0.32576221 -0.31283611 0
13.5888 20.049999 384.362 0.49561399 -0.34915668 -0.79527128 0
13.6137 63.555302 367.68399 0.13945669 -0.570674 -0.80924845 0
13.6485 67.454803 365.828 0.45061818 -0.31590292 -0.83495426 0
13.6496 68.411903 365.44199 0.56762171 -0.27178141 -0.77713609 0
13.666 19.753401 384.56601 0.69975573 -0.31274879 -0.64228505 0
13.669 64.7173 367.117 0.23552662 -0.49419272 -0.83683974 0
13.6768 17.6544 386.17801 0.94008577 -0.32308432 -0.10888162 0
13.6876 19.378201 384.79099 0.7835837 -0.28955957 -0.54968345 0
13.7126 18.1772 385.689 0.95349205 -0.26368341 -0.14602718 0
13.7242 21.253901 384.00299 0.53559154 -0.29378012 -0.79172909 0
13.7287 20.7293 384.215 0.580971 -0.27607667 -0.7656725 0
13.733 19.0037 385.091 0.86038655 -0.26744679 -0.43382859 0
13.7574 18.101801 385.914 0.97392327 -0.19691218 -0.11269008 0
13.7596 68.971802 365.38101 0.79113132 -0.21603835 -0.57222259 0
13.7635 66.852798 366.15701 0.42034987 -0.36436132 -0.83099145 0
13.7811 69.365402 365.328 0.8465873 -0.053566352 -0.52954751 0
13.7844 70.058998 365.25201 0.88028443 -0.039352417 -0.47281155 0
13.7896 65.805 366.64001 0.39103764 -0.39175439 -0.83283734 0
13.7988 66.179703 366.466 0.48282766 -0.38142559 -0.78828418 0
13.8002 63.480701 367.745 0.21857217 -0.34843236 -0.9114939 0
13.8354 21.610701 383.952 0.65581149 -0.31162497 -0.68760538 0
13.9107 64.756401 367.177 0.34544814 -0.3758944 -0.85986567 0
13.9415 18.8916 385.728 0.95085669 -0.22811756 -0.20936568 0
13.9433 68.070702 365.849 0.7688933 -0.21512742 -0.60209906 0
13.9511 62.316898 368.383 0.14364257 -0.39924774 -0.90552086 0
13.9873 23.4102 383.39401 0.52484274 -0.30554232 -0.79447091 0
14.0241 66.254204 366.55801 0.48282766 -0.38142559 -0.78828418 0
14.0283 19.755199 385.168 0.86328375 -0.32729512 -0.38421223 0
14.0613 19.3032 385.76501 0.975187 -0.20963971 -0.07114388 0
14.0615 20.988501 384.487 0.77154499 -0.31043702 -0.55529022 0
14.0988 22.2288 383.94 0.69729036 -0.22242202 -0.68140638 0
14.1007 62.6539 368.25101 0.11018893 -0.36022127 -0.92633635 0
14.1016 65.314903 367.02301 0.42395264 -0.29329622 -0.85687894 0
14.1222 68.803101 365.96899 0.85631907 -0.083129175 -0.50971287 0
14.1432 67.002602 366.38101 0.71307504 -0.1987793 -0.6723175 0
14.1759 65.502998 366.98099 0.55442369 -0.28316173 -0.78258151 0
14.2003 20.5026 385.01501 0.90790635 -0.23270167 -0.34864885 0
14.2004 23.204 383.60901 0.59600192 -0.37265331 -0.71127433 0
14.2119 19.9792 385.57901 0.91992277 -0.28334594 -0.27102977 0
14.2124 64.960098 367.23199 0.35469091 -0.37176925 -0.85789394 0
14.2182 20.354 385.16599 0.93596745 -0.2623812 -0.23477881 0
14.2315 21.4021 384.48901 0.84269822 -0.31551716 -0.43624377 0
14.2485 25.267401 382.90302 0.44835421 -0.31883052 -0.83506024 0
14.2488 61.944698 368.64001 0.31778488 -0.34960043 -0.88135821 0
14.2492 24.629101 383.12399 0.57027978 -0.25314081 -0.78147346 0
14.2517 24.1028 383.30801 0.68960345 -0.25295013 -0.6785745 0
14.2695 61.491299 368.86801 0.36016148 -0.36142159 -0.86003381 0
14.3037 21.704201 384.41699 0.77336007 -0.32958782 -0.54155892 0
14.3141 23.6528 383.526 0.63533348 -0.30082583 -0.71123499 0
14.324 63.704601 367.81699 0.28301039 -0.39815697 -0.87256873 0
14.3252 63.047699 368.13901 0.4225395 -0.35731071 -0.83294022 0
14.3278 64.301498 367.56201 0.50403756 -0.31027463 -0.80602467 0
14.3319 20.615999 385.297 0.94107962 -0.25999981 -0.21626213 0
14.3568 67.040802 366.642 0.84657109 -0.074243657 -0.52707237 0
14.3755 66.0662 366.92899 0.71782005 -0.17358588 -0.67424208 0
14.3971 21.103399 385.01599 0.85306019 -0.29822904 -0.42819127 0
14.3979 63.9673 367.74399 0.53466177 -0.42906931 -0.72803593 0
14.4023 20.767 385.55899 0.9735651 -0.20667621 -0.097241834 0
14.4381 62.803501 368.306 0.39302522 -0.43923682 -0.80783796 0
14.4737 24.403999 383.37 0.70299649 -0.24102348 -0.6691066 0
14.4871 21.4027 385.01501 0.88210976 -0.2650764 -0.38938013 0
14.4903 22.0047 384.56799 0.90078205 -0.30413762 -0.30998716 0
14.4969 23.2875 383.88901 0.72878146 -0.30496451 -0.61308587 0
14.5309 65.755699 367.19101 0.77120614 -0.2240805 -0.59584314 0
14.5489 66.702797 367.01501 0.88881069 -0.046302967 -0.45592934 0
14.5627 23.654301 383.78101 0.7655592 -0.32217148 -0.55688834 0
14.5628 22.3417 384.492 0.8563832 -0.18575861 -0.4817692 0
14.621 66.552696 367.164 0.89653945 -0.05026105 -0.44010323 0
14.624 26.204201 382.76599 0.56656194 -0.29647139 -0.76883829 0
14.6683 22.115601 384.99701 0.96014076 -0.23358124 -0.15352355 0
14.6692 64.457901 367.763 0.70678854 -0.26099855 -0.65751785 0
14.6992 27.6665 382.30099 0.34903327 -0.59895235 -0.72071618 0
14.6998 61.716599 368.92899 0.38428971 -0.33984524 -0.85838604 0
14.7447 24.010099 383.854 0.80070466 -0.25447008 -0.54232556 0
14.7728 22.5665 384.95999 0.92096424 -0.2620728 -0.28834477 0
14.7752 60.7976 369.345 0.50378257 -0.32350746 -0.80096573 0
14.7753 62.6534 368.54599 0.51753175 -0.33102709 -0.7890386 0
14.8004 23.034201 384.565 0.92528027 -0.26285127 -0.27343312 0
14.8028 25.1546 383.36899 0.70094532 -0.30534655 -0.64454567 0
14.8208 65.091103 367.73001 0.85696715 -0.15135714 -0.49264422 0
14.8463 63.367699 368.30099 0.47372505 -0.25896084 -0.84173858 0
14.8474 27.517401 382.44901 0.54646128 -0.26595706 -0.79413277 0
14.8504 31.4168 381.09399 0.42704019 -0.22609298 -0.87551051 0
14.8511 58.9034 370.14099 0.26060569 -0.41001329 -0.87405592 0
14.8514 59.952702 369.70499 0.50369483 -0.26490238 -0.82226408 0
14.8686 60.366501 369.55099 0.49606317 -0.31472147 -0.80924147 0
14.8746 23.5781 384.341 0.8666479 -0.27339822 -0.41734257 0
14.8959 63.010601 368.487 0.48391789 -0.29918039 -0.82238346 0
14.9094 26.055401 383.05899 0.7099992 -0.27998474 -0.64614987 0
14.9114 65.652802 367.76599 0.87809563 -0.043186374 -0.47653228 0
14.9177 23.2784 384.79001 0.96289116 -0.20972623 -0.16986924 0
14.9216 26.7299 382.793 0.60748893 -0.22663508 -0.76131058 0
14.9245 61.904099 368.957 0.4417184 -0.29165462 -0.84842348 0
14.9252 29.653601 381.67599 0.46338707 -0.31209502 -0.82937878 0
14.9262 61.265301 369.22699 0.54579419 -0.29744199 -0.78334987 0
14.9262 30.852699 381.26999 0.47593608 -0.26488349 -0.83864272 0
14.9262 61.265301 369.22699 0.54579419 -0.29744199 -0.78334987 0
14.9262 30.852699 381.26999 0.47593608 -0.26488349 -0.83864272 0
14.9262 61.265301 369.22699 0.54579419 -0.29744199 -0.78334987 0
14.9262 30.852699 381.26999 0.47593608 -0.26488349 -0.83864272 0
14.9416 28.492399 382.133 0.63528866 -0.35219163 -0.68729132 0
14.9636 28.903099 381.98199 0.68110192 -0.25663123 -0.68574095 0
14.9692 64.340401 368.14001 0.78297663 -0.12373512 -0.60962051 0
14.9726 65.652702 367.918 0.92686027 -0.053723108 -0.37154248 0
14.9727 25.6036 383.367 0.81722879 -0.28270736 -0.50220877 0
14.9748 24.8916 383.78 0.88128048 -0.26417404 -0.39186323 0
14.9825 23.6532 384.64001 0.96337575 -0.2079339 -0.1693242 0
14.9845 64.078201 368.21701 0.785739 -0.12062373 -0.6066829 0
14.9917 24.0287 384.341 0.9343155 -0.22677913 -0.27500132 0
14.999 65.090698 368.03 0.88297939 -0.073695704 -0.46359068 0
15.0013 63.553902 368.37601 0.77327293 -0.20248771 -0.60087246 0
15.0294 57.899899 370.677 0.33752295 -0.40375504 -0.8503294 0
15.0616 65.390404 368.142 0.92686027 -0.053723108 -0.37154248 0
15.0704 62.355202 368.879 0.65730464 -0.32858303 -0.67822105 0
15.072 28.754999 382.11401 0.67895085 -0.30059028 -0.66982925 0
15.0726 23.9536 385.01501 0.99793571 -0.045568034 -0.045253105 0
15.0747 64.659203 368.254 0.91500419 -0.075029008 -0.39640629 0
15.0927 64.152901 368.366 0.91687292 -0.092893265 -0.38822013 0
15.0986 24.4781 384.34 0.93622363 -0.26369742 -0.23226921 0
15.1113 65.6521 368.367 0.97013336 0.054814667 -0.23629776 0
15.1491 56.656101 371.32599 0.22448841 -0.43050566 -0.87422526 0
15.1651 29.053101 382.07199 0.68110192 -0.25663123 -0.68574095 0
15.1973 26.390699 383.29099 0.81941992 -0.27157858 -0.50477332 0
15.2149 25.454 383.892 0.89667457 -0.20299232 -0.39340675 0
15.218 24.8533 384.5 0.96302336 -0.22917444 -0.14165145 0
15.2244 62.502602 368.98001 0.7521584 -0.16357459 -0.63835812 0
15.2256 59.353199 370.10199 0.47792152 -0.33426419 -0.81231672 0
15.2269 30.533701 381.54001 0.54073477 -0.34540027 -0.76701015 0
15.2306 27.552999 382.76599 0.69852406 -0.30263913 -0.64843947 0
15.2336 26.652599 383.215 0.81990361 -0.23299815 -0.5229435 0
15.2979 59.729301 370.00601 0.51985782 -0.21792118 -0.82598919 0
15.311 64.658897 368.853 0.93908417 0.0080546346 -0.34359276 0
15.3123 25.340799 384.341 0.96573246 -0.24465601 -0.086626858 0
15.3364 63.440701 368.892 0.8162663 -0.22317964 -0.53282285 0
15.3576 63.759102 368.92899 0.92006171 0.035870682 -0.3901279 0
15.3687 61.005798 369.58701 0.61123353 -0.2681565 -0.74463791 0
15.3757 32.353199 380.965 0.58728409 -0.33816874 -0.73534983 0
15.4289 26.352501 383.815 0.91521567 -0.26533791 -0.30327559 0
15.433 28.081499 382.772 0.824417 -0.27448696 -0.49496824 0
15.4433 58.533298 370.59799 0.63633317 -0.36015972 -0.68217671 0
15.449 55.4739 371.987 0.43759027 -0.45216948 -0.77721137 0
15.4502 26.0546 384.34 0.98937994 -0.13807866 0.045405474 0
15.4507 54.178699 372.55099 0.25942102 -0.34929055 -0.90038705 0
15.4545 27.515699 383.14099 0.8849448 -0.2463346 -0.39521134 0
15.4609 59.521999 370.207 0.66856277 -0.26497027 -0.6948486 0
15.4816 27.1033 383.422 0.89746916 -0.24222846 -0.36861154 0
15.4956 31.1542 381.491 0.53017956 -0.27412215 -0.8023507 0
15.5041 61.603401 369.56699 0.7787599 -0.15078691 -0.60893047 0
15.5094 28.472099 382.69101 0.86146963 -0.25236332 -0.44066179 0
15.5192 60.056301 370.069 0.63192683 -0.26091641 -0.72978836 0
15.5192 62.3531 369.41599 0.80767494 -0.093155608 -0.5822227 0
15.5248 57.253799 371.22101 0.51895231 -0.38383022 -0.76378196 0
15.5254 33.741001 380.47198 0.52379501 -0.28280938 -0.80352825 0
15.5255 31.4165 381.42499 0.47867525 -0.26345855 -0.83753186 0
15.5258 33.1031 380.73499 0.60504943 -0.31325376 -0.73197496 0
15.5262 32.502899 381.00201 0.58728409 -0.33816874 -0.73534983 0
15.5263 56.0527 371.758 0.41947958 -0.33572662 -0.8434006 0
15.5269 35.052399 380.01599 0.28834546 -0.30677238 -0.90705436 0
15.528 32.726799 380.90799 0.55030239 -0.33896822 -0.76306474 0
15.5281 57.852001 370.97 0.58937496 -0.30655211 -0.7474376 0
15.5376 30.741301 381.71399 0.7278918 -0.28286925 -0.6246267 0
15.5427 29.877899 382.12 0.74516821 -0.27612433 -0.60702527 0
15.5479 56.883801 371.41 0.55387926 -0.44340399 -0.70470613 0
15.5505 60.704399 369.87 0.61728823 -0.23270574 -0.75153393 0
15.559 63.159 369.45401 0.95798254 0.10281336 -0.26776651 0
15.5608 58.8302 370.561 0.7006554 -0.23414977 -0.67398506 0
15.5631 36.7598 379.39401 0.4086726 -0.31037685 -0.85828489 0
15.5643 26.8778 384.48901 0.96727455 -0.23552392 0.09438464 0
15.5706 30.2533 381.98401 0.68381405 -0.31869063 -0.65637994 0
15.5711 26.953199 383.741 0.92214298 -0.24462667 -0.29968333 0
15.5747 62.840302 369.492 0.92541051 0.034253884 -0.37741503 0
15.5851 27.9282 383.14099 0.88335305 -0.27173775 -0.38189787 0
15.5852 61.8279 369.64001 0.87237406 -0.15059507 -0.46506405 0
15.5881 28.9023 382.61401 0.77455962 -0.26278681 -0.57532644 0
15.5963 32.317699 381.13699 0.65812904 -0.28678811 -0.69614565 0
15.5981 54.705502 372.38901 0.5009051 -0.31729612 -0.80524361 0
15.5994 51.8176 373.612 0.39454988 -0.36703017 -0.84238899 0
15.5994 34.491402 380.25699 0.51942825 -0.30285737 -0.79904425 0
15.5998 35.944901 379.71301 0.43621859 -0.36071768 -0.82437617 0
15.5999 53.579102 372.85101 0.44353008 -0.32767528 -0.83421218 0
15.6008 32.915699 380.88 0.60884374 -0.33182576 -0.72055602 0
15.6041 26.8787 384.19 0.98260647 -0.1856807 0.0026792411 0
15.674 51.555401 373.74799 0.38817888 -0.42009178 -0.82026827 0
15.679 55.793301 371.96301 0.41947958 -0.33572662 -0.8434006 0
15.7235 27.552 383.85199 0.96352243 -0.21887685 -0.1540046 0
15.7471 29.185301 382.73001 0.88273603 -0.254545 -0.39494798 0
15.7486 58.756401 370.77399 0.74836683 -0.31420046 -0.58414477 0
15.7492 34.791698 380.23499 0.60156453 -0.26859221 -0.75231534 0
15.7619 27.778299 383.81601 0.9844771 -0.1707305 -0.040693775 0
15.7624 31.7356 381.52399 0.75642431 -0.2630949 -0.59883493 0
15.7769 57.310902 371.39899 0.69882864 -0.25379106 -0.66875154 0
15.8076 32.1642 381.39499 0.7232309 -0.21763937 -0.65541601 0
15.8251 61.902699 370.16699 0.91751891 0.12338232 -0.37806863 0
15.827 36.402302 379.64899 0.43333337 -0.32608581 -0.84017277 0
15.851 28.7514 383.21301 0.89086807 -0.32236588 -0.32005361 0
15.854 56.053299 371.97299 0.66211802 -0.35534951 -0.65979272 0
15.8548 33.2444 380.95401 0.73026711 -0.36521363 -0.5773465 0
15.8599 59.203098 370.76599 0.81752759 -0.17573109 -0.54842246 0
15.8656 28.490801 383.83401 0.98748976 -0.13523234 0.081093386 0
15.8974 51.893299 373.70901 0.39454988 -0.36703017 -0.84238899 0
15.8999 50.2789 374.379 0.33682775 -0.36212277 -0.86914563 0
15.9006 39.5909 378.5 0.42841303 -0.3356654 -0.8389225 0
15.9122 54.909302 372.48099 0.60913354 -0.26658803 -0.74691844 0
15.9142 28.902399 383.36499 0.97420961 -0.076153539 -0.21240583 0
15.9277 29.8032 382.76599 0.90445656 -0.19370022 -0.38005081 0
15.9362 50.710899 374.22101 0.39896438 -0.30295771 -0.86547333 0
15.9616 31.153601 382.09201 0.79228002 -0.30234081 -0.5299834 0
15.9688 58.004101 371.36899 0.76324832 -0.24740471 -0.59686083 0
15.9708 53.355999 373.12601 0.55260336 -0.27987853 -0.78504622 0
15.9778 32.429199 381.49301 0.75703996 -0.26910356 -0.59537703 0
15.98 58.6786 371.142 0.86637348 -0.1479651 -0.47697312 0
15.9915 56.8787 371.776 0.70361573 -0.22521877 -0.67394471 0
15.9958 30.479401 382.543 0.91411054 -0.14842071 -0.37732381 0
16.0128 39.253502 378.689 0.46921846 -0.35057947 -0.81051099 0
16.0233 36.1031 379.90701 0.63882071 -0.31619063 -0.70137835 0
16.0312 43.838001 376.96301 0.53385913 -0.28194487 -0.79718351 0
16.0446 34.304901 380.647 0.64276713 -0.28410918 -0.71142983 0
16.047199 38.0177 379.168 0.54710299 -0.3739692 -0.74888271 0
16.048599 52.229599 373.65601 0.42289531 -0.31453446 -0.84983975 0
16.0495 42.179401 377.604 0.46381292 -0.25810987 -0.84750038 0
16.050501 48.216099 375.25201 0.47843298 -0.3087461 -0.82205701 0
16.051399 51.1777 374.09 0.49211904 -0.3319 -0.80477405 0
16.0606 29.8407 383.29001 0.9861114 -0.16357782 -0.028751401 0
16.064501 35.334702 380.26199 0.61025506 -0.33214191 -0.71921521 0
16.0718 33.722301 380.96701 0.74443001 -0.31498197 -0.58873618 0
16.0828 55.904701 372.241 0.68945479 -0.18362829 -0.70066589 0
16.086399 30.7029 382.61499 0.9623301 -0.1624833 -0.21799067 0
16.088301 38.5219 379.00601 0.5048905 -0.31873211 -0.80218166 0
16.0884 31.509399 382.12799 0.88629252 -0.18627506 -0.42401314 0
16.102501 35.804798 380.10501 0.6399315 -0.25155705 -0.72609001 0
16.1129 31.959499 381.94101 0.83229995 -0.23562221 -0.50175589 0
16.113701 58.565399 371.44 0.91536713 -0.14232886 -0.37662381 0
16.115499 59.353199 371.21701 0.9092409 -0.10028002 -0.40401098 0
16.121799 36.855202 379.67099 0.52736479 -0.25573823 -0.81023723 0
16.123501 41.054699 378.05701 0.61700052 -0.28474778 -0.73364097 0
16.1243 37.229198 379.521 0.50573713 -0.21862565 -0.83452547 0
16.1243 43.004299 377.319 0.5502665 -0.40216246 -0.73175961 0
16.1243 37.229198 379.521 0.50573713 -0.21862565 -0.83452547 0
16.1243 43.004299 377.319 0.5502665 -0.40216246 -0.73175961 0
16.124599 43.228901 377.229 0.58263022 -0.25502735 -0.77168846 0
16.124599 51.7038 373.91501 0.47061568 -0.34866193 -0.81052804 0
16.124599 43.228901 377.229 0.58263022 -0.25502735 -0.77168846 0
16.124599 51.7038 373.91501 0.47061568 -0.34866193 -0.81052804 0
16.124599 43.228901 377.229 0.58263022 -0.25502735 -0.77168846 0
16.1252 53.053902 373.366 0.7237435 -0.22557111 -0.65216029 0
16.125401 46.453602 375.978 0.58603281 -0.32309669 -0.74308419 0
16.1255 54.253201 372.901 0.49553445 -0.31968319 -0.80761886 0
16.125601 48.853298 375.04199 0.52224916 -0.35471839 -0.77551961 0
16.125799 49.865601 374.66901 0.39729226 -0.35110974 -0.84786838 0
16.1259 46.903198 375.79999 0.51990265 -0.26185152 -0.81310207 0
16.125999 31.302999 382.315 0.92055094 -0.20062006 -0.33516797 0
16.126801 50.502399 374.41 0.62911016 -0.29451612 -0.71936131 0
16.1271 41.352402 377.95001 0.60493058 -0.30441672 -0.73579168 0
16.128201 41.651402 377.84 0.51908439 -0.29395244 -0.80258542 0
16.129 32.616798 381.64301 0.85841197 -0.25892398 -0.44281742 0
16.130301 53.503399 373.19 0.6632452 -0.16624454 -0.72970444 0
16.146999 30.553499 383.14001 0.97378635 -0.14203402 -0.17766948 0
16.1612 45.235699 376.50201 0.52322543 -0.27773267 -0.80566722 0
16.1626 44.747299 376.68399 0.58705372 -0.29829013 -0.75258946 0
16.1639 40.4529 378.311 0.65724415 -0.26092634 -0.70706975 0
16.166 54.8535 372.702 0.69738549 -0.23006836 -0.67876506 0
16.1728 56.803699 372.043 0.80458075 -0.21075749 -0.55518562 0
16.1752 58.940399 371.478 0.92062777 -0.11299783 -0.37373248 0
16.179199 57.402802 371.89001 0.78404188 -0.1556952 -0.60086381 0
16.1821 55.3032 372.56601 0.7937144 -0.20306678 -0.5733946 0
16.185801 57.966202 371.74301 0.88558459 -0.10729176 -0.45191637 0
16.189899 33.048302 381.53101 0.88576531 -0.25548068 -0.38749126 0
16.196899 39.949001 378.52499 0.56002527 -0.33019158 -0.75983232 0
16.199699 49.2286 374.95001 0.36649084 -0.30495644 -0.87902564 0
16.225401 57.703499 371.89301 0.84247971 -0.23753309 -0.48353484 0
16.2278 41.9543 377.78299 0.63168168 -0.24363999 -0.73594689 0
16.233801 33.402401 381.414 0.86793882 -0.26101556 -0.42255545 0
16.245001 52.677898 373.62299 0.73717612 -0.30573294 -0.60257679 0
16.270201 43.156399 377.34698 0.64719146 -0.32506108 -0.68954945 0
16.278999 54.5177 372.94199 0.69738549 -0.23006836 -0.67876506 0
16.2869 32.2216 382.18399 0.94265097 -0.19155742 -0.27334034 0
16.2918 47.805 375.539 0.62348652 -0.32343745 -0.71179545 0
16.2922 58.621601 371.853 0.951199 -0.081821732 -0.29753274 0
16.295601 37.007099 379.76599 0.7743659 -0.28124958 -0.56679457 0
16.296101 46.266701 376.151 0.58283162 -0.35996217 -0.72851527 0
16.2966 34.509701 380.89099 0.859505 -0.25110626 -0.44519296 0
16.3004 49.604099 374.88599 0.69546282 -0.25170192 -0.6730361 0
16.304199 44.166401 376.98199 0.57293338 -0.30222818 -0.7618435 0
16.304399 35.1236 380.63199 0.74752647 -0.21458928 -0.62861407 0
16.3074 31.678499 382.69101 0.96284086 -0.20108725 -0.1802815 0
16.320299 58.883999 371.92801 0.95953953 -0.024633167 -0.28049445 0
16.3325 38.766399 379.095 0.68947041 -0.26160315 -0.6754216 0
16.3326 50.9911 374.38 0.625184 -0.33680555 -0.70406461 0
16.3514 51.4035 374.20999 0.71552879 -0.25937268 -0.64864808 0
16.3769 41.653599 378.008 0.65478069 -0.28154007 -0.70142531 0
16.3836 56.2029 372.565 0.82020617 -0.17925085 -0.54325956 0
16.389601 33.702599 381.565 0.9188779 -0.1713427 -0.35539424 0
16.3932 55.1436 372.90302 0.76701897 -0.1417148 -0.62577862 0
16.3936 32.878502 382.129 0.95085442 -0.17144503 -0.257842 0
16.409901 39.290901 378.966 0.67909843 -0.23238893 -0.69629073 0
16.424801 44.953499 376.78601 0.69084412 -0.21541724 -0.69016653 0
16.4513 56.8032 372.56699 0.95016766 -0.015492126 -0.31135416 0
16.4515 37.453201 379.76599 0.76448786 -0.24432366 -0.59654355 0
16.462299 57.402802 372.565 0.95941609 -0.0039554685 -0.2819666 0
16.4653 42.551201 377.763 0.64441592 -0.26860949 -0.71594489 0
16.4746 53.653099 373.54099 0.79384851 -0.19332495 -0.57656741 0
16.4799 36.440201 380.29001 0.80262709 -0.28787717 -0.52241409 0
16.487801 33.515598 382.09 0.97403389 -0.15790878 -0.16224304 0
16.5107 38.204201 379.543 0.74355328 -0.28571537 -0.60456198 0
16.525101 33.7784 382.09 0.98990816 -0.13953155 -0.024754027 0
16.560801 53.353802 373.76801 0.81575489 -0.21587305 -0.53660297 0
16.569401 51.703899 374.36801 0.77660823 -0.14112897 -0.61397254 0
16.570299 48.406601 375.57501 0.61777484 -0.20877628 -0.75813371 0
16.576 55.6782 373.09201 0.93130571 -0.15417849 -0.32999799 0
16.593 40.752998 378.56601 0.66472501 -0.28809011 -0.68930745 0
16.5968 43.756302 377.38901 0.61404735 -0.26339826 -0.74402094 0
16.6099 34.677898 381.48999 0.95470721 -0.20817837 -0.21259335 0
16.610001 41.016102 378.492 0.73217726 -0.17496292 -0.65825868 0
16.617001 47.053501 376.16699 0.73505801 -0.22840825 -0.63837248 0
16.6394 34.9025 381.41501 0.95470721 -0.20817837 -0.21259335 0
16.639999 50.353901 374.96799 0.79366577 -0.22314988 -0.5659495 0
16.643499 46.304401 376.47 0.688375 -0.22225642 -0.69046503 0
16.6497 50.616501 374.89301 0.80277169 -0.20788711 -0.55887443 0
16.6548 37.031101 380.30899 0.85611492 -0.23974954 -0.45780721 0
16.6663 48.705101 375.57101 0.73394322 -0.08872278 -0.67339116 0
16.684799 48.403801 375.71799 0.82437778 -0.21375173 -0.52412921 0
16.687201 35.8041 380.96701 0.91195476 -0.23909387 -0.33342558 0
16.687799 42.066799 378.194 0.7464062 -0.26798391 -0.60914892 0
16.695601 54.515598 373.729 0.98235118 0.011301342 -0.1867041 0
16.704201 37.528702 380.142 0.83563071 -0.23267557 -0.49757758 0
16.705099 43.754101 377.51801 0.77364302 -0.26973134 -0.57334238 0
16.707199 38.878399 379.54199 0.7975046 -0.22688241 -0.55902666 0
16.708099 52.752998 374.216 0.88940167 -0.12905659 -0.43853056 0
16.711201 38.053398 379.91599 0.84537375 -0.21877851 -0.4873184 0
16.7173 44.119099 377.414 0.77441198 -0.22434835 -0.59156907 0
16.725201 44.841301 377.14301 0.69800621 -0.23637179 -0.67595536 0
16.726999 39.9645 379.08801 0.78732169 -0.25689924 -0.56047064 0
16.741501 47.504002 376.168 0.85181403 -0.19889429 -0.48461732 0
16.745199 40.903801 378.71799 0.84917068 -0.15987854 -0.50333685 0
16.7456 35.5033 381.41599 0.98668015 -0.13851839 -0.085293025 0
16.7493 45.104099 377.06799 0.81631023 -0.14728145 -0.55852109 0
16.752199 43.039902 377.88901 0.74761289 -0.28129873 -0.60161942 0
16.7544 40.378502 378.94199 0.8019796 -0.22979015 -0.55138481 0
16.7554 36.027901 381.04001 0.99331975 -0.083316661 -0.079838708 0
16.758699 46.116001 376.69199 0.80879217 -0.2313932 -0.54065919 0
16.76 46.9781 376.39099 0.83166325 -0.1840587 -0.52388805 0
16.760799 51.478298 374.742 0.81572908 -0.23955755 -0.52649617 0
16.767799 54.3279 373.991 0.98351777 0.019176647 -0.17979181 0
16.771 48.7047 375.72 0.82437778 -0.21375173 -0.52412921 0
16.7747 38.5597 379.80399 0.87254477 -0.21586698 -0.43825457 0
16.7761 36.515099 380.815 0.91699791 -0.17832924 -0.35681021 0
16.778999 52.302399 374.51401 0.89551431 -0.1420055 -0.4217684 0
16.780001 49.6036 375.41699 0.82235873 -0.2012531 -0.53218734 0
16.7845 49.865398 375.34 0.79001772 -0.18061234 -0.58587641 0
16.785801 53.727798 374.14001 0.90281391 -0.074295126 -0.42356494 0
16.7889 39.178101 379.54099 0.87466687 -0.10927449 -0.47224668 0
16.790001 51.853802 374.668 0.85223722 -0.16854188 -0.49526286 0
16.7913 53.1656 374.29099 0.94354612 -0.077200197 -0.32211927 0
16.810301 54.777302 374.29001 0.99117619 0.024246613 -0.13031463 0
16.819901 54.2528 374.216 0.98351777 0.019176647 -0.17979181 0
16.820499 40.151901 379.16299 0.9013508 -0.15905704 -0.40282446 0
16.827499 36.252998 381.34 0.99331975 -0.083316661 -0.079838708 0
16.8286 43.304199 377.89301 0.89533162 -0.10767983 -0.43218786 0
16.8393 51.7033 374.81699 0.87662482 -0.076506793 -0.47505331 0
16.8514 38.9534 379.76599 0.90919709 -0.16217807 -0.38348261 0
16.855499 36.932499 380.85199 0.98717713 -0.098295532 -0.12577489 0
16.8556 46.509899 376.69199 0.86932844 -0.15935664 -0.46783924 0
16.8678 49.604099 375.569 0.91220492 -0.11715274 -0.39262891 0
16.883301 48.102402 376.164 0.8980242 -0.15257674 -0.41264129 0
16.883699 51.5536 374.96799 0.91862214 0.017760705 -0.39473772 0
16.8913 38.071499 380.276 0.94718951 -0.19380125 -0.25548598 0
16.9055 52.302799 374.89001 0.96009707 -0.051063135 -0.27496567 0
16.930401 53.104401 374.89099 0.98598927 0.11701933 -0.11887646 0
16.9342 45.103802 377.36801 0.87781429 -0.18752852 -0.44076651 0
16.9443 48.9282 375.94101 0.91440547 -0.18203703 -0.36155933 0
16.966101 50.353298 375.56699 0.92062998 -0.14675622 -0.36180526 0
16.992201 52.0028 375.341 0.99877661 -0.023894159 -0.043293666 0
16.996799 50.6535 375.56699 0.95098829 -0.091721892 -0.29531071 0
17.001301 42.403801 378.56799 0.92912793 -0.11680549 -0.35082442 0
17.001699 38.803501 380.216 0.94471836 -0.22762853 -0.23599264 0
17.0019 51.027901 375.491 0.99250054 0.021583114 -0.12031984 0
17.002001 47.315601 376.69101 0.87145162 -0.21542838 -0.44063893 0
17.020599 40.003601 379.65399 0.94756669 -0.12747046 -0.2930336 0
17.0366 45.702599 377.36499 0.9175241 -0.16726393 -0.36079407 0
17.0375 44.053001 377.966 0.91036963 -0.15555541 -0.3834444 0
17.037901 47.578201 376.69101 0.93841165 -0.060595997 -0.34016427 0
17.040001 49.546799 376.05399 0.97056663 -0.059257638 -0.23342878 0
17.052401 39.364899 380.13901 0.95912129 -0.11611616 -0.25807625 0
17.066 50.259102 376.09 0.99759322 -0.0062951222 -0.069051988 0
17.0737 40.302898 379.728 0.97771728 -0.11595883 -0.17499292 0
17.1127 48.252998 376.76599 0.97644001 -0.082088493 -0.1995656 0
17.123199 47.202801 377.103 0.94116521 -0.096818037 -0.32378119 0
