# .PCD v0.7 - Point Cloud Data file format
VERSION 0.7
FIELDS x y z normal_x normal_y normal_z curvature
SIZE 4 4 4 4 4 4 4
TYPE F F F F F F F
COUNT 1 1 1 1 1 1 1
WIDTH 1355
HEIGHT 1
VIEWPOINT 0 0 0 1 0 0 0
POINTS 1355
DATA ascii
-11.0367 37.830101 371.98901 -0.56726158 0.82047331 0.07097815 0
-10.9937 31.993601 373.789 -0.95969892 0.19032085 0.20677523 0
-10.9577 37.819698 372.36301 -0.59964401 0.77173811 0.21177211 0
-10.8999 31.992901 374.27701 -0.96482128 0.056241021 0.25682059 0
-10.8678 31.393299 374.35001 -0.91768187 -0.019380869 0.39684296 0
-10.8421 31.1308 374.35101 -0.82455736 -0.13534053 0.54935241 0
-10.8252 32.292 374.42401 -0.93114436 0.071337357 0.35760477 0
-10.8219 32.554699 374.20099 -0.95271981 0.2153139 0.21439412 0
-10.807 31.693199 374.50101 -0.91350085 -0.030256113 0.40571025 0
-10.8007 37.804699 373.22198 -0.41392928 0.87795812 0.24052469 0
-10.7678 30.3246 374.31299 -0.82460362 -0.11582153 0.55372763 0
-10.736 37.854301 373.00101 -0.38091159 0.91508186 0.13240682 0
-10.6725 29.8934 374.35001 -0.81065029 -0.13081564 0.57073051 0
-10.6612 37.907799 372.55099 -0.39553192 0.91285104 0.10127923 0
-10.6578 32.143101 374.87399 -0.91681105 -0.0037700103 0.39930344 0
-10.6535 31.767599 374.80301 -0.91917706 -0.001667191 0.39384109 0
-10.5616 32.891201 374.79901 -0.88961732 0.27804729 0.36231306 0
-10.5468 33.5686 374.202 -0.90146536 0.10460191 0.42002216 0
-10.4751 38.1931 371.35199 -0.2387819 0.88902611 0.39066076 0
-10.4563 30.2679 374.728 -0.80229121 -0.12278347 0.58416867 0
-10.4372 38.059101 371.80099 -0.29490167 0.92376417 0.24432114 0
-10.4261 30.980801 374.91299 -0.82694048 -0.16224486 0.53837347 0
-10.4182 29.593201 374.633 -0.81089592 -0.13655043 0.56903583 0
-10.3754 32.2929 375.474 -0.87195814 0.24491109 0.42391935 0
-10.2856 37.886299 373.67499 -0.26134872 0.96274316 0.069443934 0
-10.2609 31.092501 375.17899 -0.84403306 -0.15657347 0.51292586 0
-10.2132 31.3906 375.40601 -0.87648153 -0.19056244 0.44211549 0
-10.2122 37.617802 374.302 -0.36284986 0.5968231 0.71564108 0
-10.2107 37.092701 374.40201 -0.37194327 0.28477722 0.88349313 0
-10.2094 37.818001 373.97198 -0.20438288 0.93087655 0.30281428 0
-10.2031 32.1427 375.771 -0.68144101 -0.085084587 0.72691041 0
-10.2006 30.362 375.10101 -0.83097959 -0.11560092 0.54415935 0
-10.1929 38.0942 371.97 -0.28115508 0.92727447 0.24721223 0
-10.146 29.349701 374.95999 -0.81680143 -0.14034009 0.55958921 0
-10.0411 30.793699 375.47501 -0.89087856 -0.15865719 0.4256328 0
-9.9914598 30.493799 375.474 -0.88894475 -0.1658626 0.42692724 0
-9.9873304 38.3493 371.276 -0.22480203 0.82939875 0.5114311 0
-9.9868402 38.067001 372.401 -0.21100514 0.96591687 0.14993811 0
-9.9865599 37.8615 373.89999 -0.073125854 0.92340088 0.37680691 0
-9.9338999 31.3559 376.03799 -0.71307141 0.0024817868 0.70108706 0
-9.9122496 37.317799 374.57599 -0.12227426 0.37023193 0.92085683 0
-9.8757896 37.994598 373.00201 -0.13906857 0.9810738 0.13473727 0
-9.8640203 29.8377 375.51199 -0.91100079 -0.17924178 0.37141621 0
-9.8285398 30.943701 376.07501 -0.70612836 -0.035544641 0.70719117 0
-9.8002005 38.5322 371.09 -0.26565418 0.80945253 0.52365494 0
-9.7544899 29.143499 375.47601 -0.88306403 -0.15607572 0.44253615 0
-9.7064199 30.0429 376.07599 -0.86626488 -0.15612096 0.4745644 0
-9.68787 37.9492 373.60199 -0.039693579 0.97363734 0.22462137 0
-9.6858397 30.493099 376.22699 -0.6763956 -0.012463581 0.73643303 0
-9.6686001 29.6117 376.00201 -0.88402778 -0.15594386 0.44065455 0
-9.6366796 29.8934 376.22198 -0.79035991 -0.13711403 0.59710211 0
-9.6129704 32.516899 376.12601 0.2891117 0.36014792 0.88696557 0
-9.6126604 37.617699 374.392 0.036582835 0.76080692 0.64794642 0
-9.6113005 35.8181 374.99701 0.051985051 0.038480125 0.99790621 0
-9.6108103 34.992401 374.89801 0.048482761 0.097717933 0.9940325 0
-9.6094799 34.691299 374.97601 -0.29402453 0.24862103 0.92289609 0
-9.6081696 31.167999 376.42499 -0.65093583 -0.14531551 0.7450946 0
-9.6046104 29.254499 375.98401 -0.93198788 -0.17730029 0.31616965 0
-9.6035004 33.7038 375.63101 -0.28472289 0.40497077 0.86886799 0
-9.58356 38.033901 373.17899 -0.17231388 0.96293944 0.20749842 0
-9.5733604 38.1693 372.39999 -0.26200512 0.94852364 0.177922 0
-9.4999399 28.805201 376.00201 -0.92434198 -0.16799848 0.34259072 0
-9.4700699 37.3829 374.39099 0.28126711 0.50560975 0.8156271 0
-9.4663801 33.037701 375.85901 -0.39295831 0.33274725 0.85724151 0
-9.4655199 35.665501 374.93799 0.051985051 0.038480125 0.99790621 0
-9.4652901 37.853199 373.96799 0.033879768 0.83725971 0.54575485 0
-9.4614096 33.7132 375.62299 0.27252126 0.41158953 0.86967021 0
-9.46029 33.856701 375.55701 0.28891066 0.1974791 0.9367671 0
-9.3681097 38.615398 371.20099 -0.30880767 0.83858871 0.44878367 0
-9.3125 35.218102 374.95099 0.11519795 0.0063325637 0.99332237 0
-9.3124905 30.7181 376.457 0.13086821 -0.11569626 0.98462576 0
-9.3122501 38.861599 370.789 -0.22789814 0.91514051 0.33253613 0
-9.3119698 30.0436 376.55801 -0.33591726 0.37448224 0.86424685 0
-9.3118601 34.991901 375.00201 0.048482761 0.097717933 0.9940325 0
-9.3114405 34.387699 375.30301 -0.15208369 0.60586202 0.78089809 0
-9.3086004 29.743 376.58099 -0.66353446 -0.20824213 0.71858001 0
-9.2379198 38.3811 371.87701 -0.27735531 0.91835535 0.28230742 0
-9.1653204 37.916698 373.76901 0.21827054 0.95561397 0.1978887 0
-9.0896397 29.1052 376.647 -0.7438857 -0.01170716 0.66820431 0
-9.0875397 38.482498 371.72699 -0.33171818 0.89137894 0.3088797 0
-9.01686 34.690399 374.978 0.25102451 0.37610954 0.8919239 0
-9.0115404 28.3932 376.78699 0.098798759 0.17319342 0.97991979 0
-9.0065804 28.168301 376.77701 -0.39444599 -0.058778565 0.91703731 0
-8.9930801 34.991402 374.845 0.05931038 0.078786597 0.99512559 0
-8.86168 38.201599 373.073 0.074644208 0.85962343 0.50544608 0
-8.8610401 28.317301 376.76801 0.059521012 0.18303949 0.98130208 0
-8.8587799 28.1665 376.79401 -0.39444599 -0.058778565 0.91703731 0
-8.8168802 37.838001 373.59399 0.38262486 0.72950083 0.56694514 0
-8.7860899 38.387798 372.47501 -0.28336561 0.92523253 0.25228685 0
-8.7852697 38.587502 371.79999 -0.37067026 0.87979442 0.29759929 0
-8.7122498 27.717699 376.871 0.030451117 -0.07611955 0.99663359 0
-8.7110395 27.117701 376.93301 -0.33423528 -0.14497952 0.93127209 0
-8.6048498 22.093901 377.979 -0.4998531 0.16797771 0.84966487 0
-8.5977297 22.4489 377.98001 -0.50183004 0.026579963 0.86455774 0
-8.5836296 20.965599 378.46799 -0.22673975 0.21190755 0.9506231 0
-8.5717201 24.4182 377.27701 -0.48413697 0.22600417 0.84530085 0
-8.5604601 38.441002 372.54901 -0.17099163 0.94674474 0.2728301 0
-8.5428801 38.935398 371.16299 -0.35901669 0.86905622 0.3403649 0
-8.4778204 10.9877 382.36801 -0.58492547 0.3212302 0.74476397 0
-8.4745903 20.8913 378.61401 -0.22673975 0.21190755 0.9506231 0
-8.4629097 10.687 382.513 -0.56717682 0.41811225 0.70957208 0
-8.4176302 24.717199 377.423 -0.49652845 0.27511525 0.82326853 0
-8.4134302 24.866199 377.384 -0.45828566 0.2087321 0.86394745 0
-8.4124498 26.518101 377.03101 -0.45570847 0.21505266 0.86376047 0
-8.4116201 21.1175 378.60001 -0.22673975 0.21190755 0.9506231 0
-8.4110899 21.2668 378.52499 -0.22673975 0.21190755 0.9506231 0
-8.41082 22.917 378.04501 -0.14590499 0.11109962 0.98304051 0
-8.4107704 23.2164 377.97699 -0.014868646 0.27096647 0.96247393 0
-8.4102697 23.516199 377.87299 -0.09227176 0.3551085 0.93026012 0
-8.4074402 22.392401 378.08499 -0.33301055 0.092945665 0.93833101 0
-8.4063597 21.7892 378.19501 -0.44922078 0.33746907 0.82723355 0
-8.4048204 25.990299 377.12 -0.24762969 0.16391972 0.95488733 0
-8.4036798 24.0781 377.60599 -0.021393877 0.4341605 0.90058148 0
-8.3936195 38.733101 371.82001 -0.36776334 0.87766969 0.30732083 0
-8.27108 11.9309 382.00101 -0.47227958 0.25548717 0.84361029 0
-8.2626305 27.643 376.69299 0.16182426 0.17492451 0.97119224 0
-8.26091 21.114401 378.60501 -0.22673975 0.21190755 0.9506231 0
-8.2589102 15.4926 380.27499 -0.66020769 0.27804896 0.697721 0
-8.1821098 -0.63441801 388.16299 -0.35399666 0.4946906 0.79370499 0
-8.17873 8.6852703 383.38501 -0.61801702 0.22083783 0.75451016 0
-8.1627703 12.9431 381.47699 -0.36158675 0.28338373 0.88822782 0
-8.1496601 25.089701 377.36301 -0.28460044 0.33614483 0.89778018 0
-8.1140299 23.215599 377.974 -0.014868646 0.27096647 0.96247393 0
-8.1129103 22.917299 378.04999 0.18112069 0.10663047 0.97766316 0
-8.1127701 24.7918 377.46899 -0.43934789 0.24569476 0.86406451 0
-8.1125898 24.0411 377.711 0.10438154 0.44317809 0.89033574 0
-8.1125402 19.3181 379.164 -0.20034248 0.35054603 0.91486633 0
-8.1124001 22.317699 378.19199 -0.094841033 0.21391101 0.97223824 0
-8.11166 21.715799 378.397 0.09918876 0.46240261 0.88110465 0
-8.1115303 19.917101 379.02301 -0.056810878 0.21901885 0.9740653 0
-8.1109505 20.516399 378.849 0.17224897 0.37059706 0.91268182 0
-8.1103897 19.166599 379.19901 -0.20034248 0.35054603 0.91486633 0
-8.1096296 10.3151 383.00601 -0.43763357 0.38610432 0.81203467 0
-8.1090097 -2.2843201 389.09799 -0.13822991 0.4006986 0.90572244 0
-8.1020699 7.3127599 383.97101 -0.4895196 0.23347321 0.84015524 0
-8.0502796 4.54145 385.09601 -0.57186705 0.32085821 0.75499541 0
-8.0382099 21.191299 378.577 0.062007729 0.14479071 0.98751742 0
-8.0336199 5.8537202 384.55899 -0.54328138 0.35126722 0.76253307 0
-8.0121202 16.839399 380.00299 -0.2246578 0.37968823 0.89742172 0
-7.9767699 4.2418299 385.30801 -0.39630505 0.33171925 0.85609847 0
-7.9668398 16.3871 380.18701 0.079574175 0.43723434 0.89582032 0
-7.9647002 38.4963 372.565 0.059727039 0.34645718 0.93616241 0
-7.9643402 -1.6886899 388.78 0.028562166 0.41426036 0.90971017 0
-7.9640098 -1.08759 388.465 -0.29749024 0.32918692 0.89617831 0
-7.9628401 3.79338 385.496 -0.34680003 0.37084025 0.86151451 0
-7.9602399 39.183399 371.16299 -0.43830618 0.87957656 0.18502101 0
-7.9584198 17.4354 379.79401 -0.23055457 0.36790636 0.90082711 0
-7.82371 5.43994 384.888 -0.41409761 0.37326843 0.83017701 0
-7.8182402 4.8350501 385.16901 -0.35753793 0.36635235 0.85904169 0
-7.8154302 1.92295 386.71399 -0.43194655 0.52238232 0.73521352 0
-7.8151698 -4.9056702 389.54901 -0.43458042 0.17472208 0.88352251 0
-7.8137598 12.0385 382.28799 -0.38457972 0.31230456 0.86865664 0
-7.81359 0.71361899 387.604 0.16710559 0.3423 0.92461151 0
-7.8130102 0.116901 387.86899 -0.31228176 0.38185194 0.86986732 0
-7.81283 9.2669096 383.37701 -0.30385575 0.32260016 0.89643788 0
-7.8126702 18.641701 379.396 0.19326913 0.37397581 0.90707725 0
-7.8126101 17.440201 379.87 -0.23055457 0.36790636 0.90082711 0
-7.8124199 13.3176 381.62 -0.36158675 0.28338373 0.88822782 0
-7.8122902 8.51752 383.70401 -0.39480257 0.34395593 0.85195374 0
-7.8122702 18.0413 379.629 0.15811297 0.33078814 0.93036526 0
-7.8121901 12.2646 382.17401 -0.45289046 0.45747331 0.76525056 0
-7.81214 -0.48100299 388.14899 0.10580752 0.39094344 0.91431284 0
-7.8120298 9.04041 383.47601 -0.36398408 0.3469902 0.86435723 0
-7.8119602 15.7911 380.504 -0.38579756 0.26323232 0.88423353 0
-7.81181 16.0902 380.388 0.11035835 0.40906215 0.90580857 0
-7.8117099 12.6367 381.98499 -0.34072071 0.52390593 0.78066123 0
-7.8113699 -3.4824901 389.336 -0.14189976 0.16463247 0.97609454 0
-7.8112702 7.3913798 384.15201 -0.35484937 0.32417497 0.87692219 0
-7.8112302 6.4167299 384.52399 -0.13130875 0.26370898 0.95562315 0
-7.8110399 3.1161001 385.92999 -0.37297064 0.49492759 0.78481817 0
-7.81077 6.7165298 384.39899 0.013786505 0.35871533 0.9333452 0
-7.8095498 -4.3080502 389.42801 -0.39823529 0.167926 0.90178132 0
-7.8090801 1.60973 386.98499 0.050222307 0.62343574 0.78025997 0
-7.8090501 -4.0081301 389.39001 -0.17264639 0.14855774 0.9737165 0
-7.8049698 -5.9576998 389.91501 -0.47606477 0.15623383 0.86542088 0
-7.7421799 38.508801 372.48001 0.28189716 0.59223014 0.75484931 0
-7.7400699 38.365299 372.57101 0.059727039 0.34645718 0.93616241 0
-7.7397199 24.154301 377.50201 0.24204455 0.22417988 0.94401157 0
-7.7397099 -0.63692498 388.18399 0.11164248 0.46372786 0.87891549 0
-7.7382898 16.351801 380.25 0.079574175 0.43723434 0.89582032 0
-7.7368798 6.0224199 384.69199 0.031072734 0.31720093 0.94784915 0
-7.7351499 3.37603 385.798 -0.34619555 0.43937728 0.82891268 0
-7.6681099 12.1847 382.10999 -0.036335737 0.056199413 0.99775815 0
-7.6668501 12.7827 381.815 -0.39638069 0.490935 0.77579969 0
-7.6653099 19.390699 379.061 0.15141733 0.33637193 0.92947656 0
-7.6649899 16.989401 379.97 0.23638889 0.24563289 0.94009829 0
-7.6648302 18.7896 379.27301 0.15675893 0.36824977 0.91641623 0
-7.6640301 19.0912 379.16199 0.15675893 0.36824977 0.91641623 0
-7.6640301 8.5150099 383.659 -0.34744725 0.35593164 0.86752123 0
-7.6640301 19.0912 379.16199 0.15675893 0.36824977 0.91641623 0
-7.6640301 8.5150099 383.659 -0.34744725 0.35593164 0.86752123 0
-7.6640301 19.0912 379.16199 0.15675893 0.36824977 0.91641623 0
-7.66397 15.7133 380.47 -0.40733677 0.27087417 0.87218344 0
-7.6622701 1.61106 386.95401 0.050222307 0.62343574 0.78025997 0
-7.6620998 7.3152699 384.164 -0.35484937 0.32417497 0.87692219 0
-7.6617198 -3.7832201 389.397 -0.17264639 0.14855774 0.9737165 0
-7.6616201 38.991299 371.99399 -0.21923816 0.75959766 0.61232841 0
-7.6615901 7.7621698 383.98401 -0.35484937 0.32417497 0.87692219 0
-7.6283202 17.5516 379.745 -0.26993895 0.27490529 0.92280012 0
-7.6273298 15.939 380.36899 0.11035835 0.40906215 0.90580857 0
-7.5910401 13.1609 381.59 -0.36158675 0.28338373 0.88822782 0
-7.5868902 2.51087 386.358 0.2835815 0.47873643 0.83089888 0
-7.5132399 -5.58111 389.99701 -0.41633639 0.49217921 0.76447606 0
-7.51302 6.64078 384.461 0.25434613 0.44180027 0.86030263 0
-7.5128298 1.9169199 386.72601 0.33489257 0.49983317 0.79875767 0
-7.5124602 5.44209 385.00699 0.25224245 0.51643205 0.8183347 0
-7.5124502 3.7176199 385.69699 0.081303775 0.57645565 0.81307358 0
-7.5124402 3.11677 386.02301 0.025060263 0.65519804 0.75504142 0
-7.5124302 4.9118099 385.26401 0.24223511 0.43487489 0.86729807 0
-7.5124202 4.3924398 385.44199 0.12675048 0.1240282 0.98415005 0
-7.5117998 -4.0844998 389.48401 0.028446957 0.10327934 0.99424553 0
-7.4365501 -7.0861301 391.172 -0.080041453 0.16300747 0.98337275 0
-7.3660102 4.9116902 385.19501 0.23489876 0.29841059 0.92508036 0
-7.3624101 -6.4889002 390.76999 0.10868435 0.54174232 0.8334884 0
-7.3622699 39.108601 371.95499 0.050283596 0.6986649 0.71367979 0
-7.30899 6.1898699 384.58899 0.20485176 0.3081193 0.92903084 0
-7.2874699 39.592602 371.35101 -0.48557344 0.68370569 0.54476136 0
-7.2860899 -7.1993599 391.21701 -0.26124558 0.50078845 0.82520401 0
-7.2128201 -4.6829801 389.672 0.015940176 0.44311062 0.89632523 0
-7.2124901 -8.2817497 391.60599 0.35787416 0.23334797 0.90414315 0
-7.21244 -5.8825002 390.284 -0.010298646 0.58051771 0.81418246 0
-7.2123899 -5.2830501 389.93799 -0.10598599 0.43892875 0.89224911 0
-7.2097402 -8.8829803 391.78601 -0.12140531 0.1848148 0.97524571 0
-7.2096701 -9.4070196 391.77701 -0.40388831 0.048569955 0.91351801 0
-7.2084799 -9.70751 391.784 -0.12900949 0.079159237 0.98847884 0
-7.2028999 -17.271999 393.62799 0.29823494 -0.072452091 0.95173872 0
-7.0671201 39.184502 371.86401 0.2924501 0.4204587 0.85888731 0
-7.0657902 3.6402099 385.57101 0.19003244 0.43478814 0.88025391 0
-7.0650301 2.44069 386.185 0.31263644 0.47710207 0.82135987 0
-7.0639901 -6.9718099 390.99701 0.29089805 0.50078624 0.81522477 0
-7.0633602 -5.28546 389.89899 -0.0033916396 0.40834096 0.9128232 0
-7.06319 -5.8854899 390.246 -0.010298646 0.58051771 0.81418246 0
-7.0629601 -5.4349499 389.97699 -0.11987353 0.50724256 0.85342568 0
-7.06071 -8.8840103 391.78201 -0.12140531 0.1848148 0.97524571 0
-6.9123998 -9.4819603 391.92999 -0.051736377 0.12013151 0.991409 0
-6.9103899 39.706402 371.48599 0.014464742 0.25342736 0.96724629 0
-6.90905 39.849201 371.30701 0.084295787 0.51527399 0.85286981 0
-6.7657199 -9.0360003 391.78201 0.2903043 0.36454874 0.88477546 0
-6.7546301 -10.5417 392.341 0.15383014 0.41093418 0.89859301 0
-6.6135502 -11.8808 393.01801 -0.28046054 0.10651799 0.95393699 0
-6.6125102 -11.2866 392.83499 0.15694983 0.38560706 0.90921611 0
-6.6122899 -10.1588 392.26999 0.15383014 0.41093418 0.89859301 0
-6.6121702 -10.6832 392.52802 0.15383014 0.41093418 0.89859301 0
-6.6093302 -11.6592 392.96201 0.1304234 0.37553188 0.9175868 0
-6.60818 -13.0842 393.60901 -0.26174736 0.091435142 0.96079546 0
-6.6078601 40.205002 370.966 -0.25443381 0.75529778 0.60397744 0
-6.60781 -12.9352 393.54999 -0.38403916 0.19830093 0.90177083 0
-6.6064 -12.4901 393.353 -0.43328875 0.50752866 0.7447654 0
-6.4647698 -10.1621 392.17899 0.15383014 0.41093418 0.89859301 0
-6.4638801 -10.6896 392.44299 0.15383014 0.41093418 0.89859301 0
-6.4622202 -9.5570698 391.86801 0.26396158 0.42649558 0.86511606 0
-6.4598699 40.257401 370.96799 -0.25443381 0.75529778 0.60397744 0
-6.3923602 -11.2883 392.741 0.24403486 0.4419598 0.86320251 0
-6.31392 -12.9359 393.569 -0.039856389 0.41683736 0.90810686 0
-6.3137598 -12.485 393.34601 -0.00012362862 0.44822484 0.89392084 0
-6.3137298 -13.0875 393.63501 0.25832009 0.45371208 0.85288692 0
-6.3133702 -11.7333 392.94901 0.1304234 0.37553188 0.9175868 0
-6.3126798 -10.6821 392.384 0.15383014 0.41093418 0.89859301 0
-6.3120499 -11.8812 393.02499 0.045464974 0.44900805 0.89237028 0
-6.3106599 -13.7591 393.91199 -0.2206912 0.50990164 0.83144194 0
-6.3079 40.466499 370.67001 -0.23390096 0.86926609 0.43550757 0
-6.0132999 -14.8866 394.474 -0.35960072 0.38520241 0.84988612 0
-6.0124202 -15.7819 394.79901 0.20207971 0.23220907 0.95144242 0
-6.0122299 -14.2811 394.15601 0.36304849 0.48558503 0.79523766 0
-6.0121999 -15.5561 394.72299 0.20207971 0.23220907 0.95144242 0
-6.0095801 40.860901 370.07501 0.23817906 0.83273464 0.49982378 0
-5.9389 -13.5718 393.75101 0.032080993 0.47790051 0.87782794 0
-5.8624201 -16.0774 394.811 -0.054667044 -0.34992656 0.93518066 0
-5.86127 40.854099 370.16501 0.23817906 0.83273464 0.49982378 0
-5.8610201 -15.4854 394.66699 0.27297324 0.30106252 0.91369963 0
-5.85987 -13.38 393.599 0.34666768 0.40464249 0.84621865 0
-5.7902899 -14.9612 394.42801 0.4659211 0.37814128 0.79995418 0
-5.7892299 -14.3967 394.11801 0.45488027 0.41557848 0.78764111 0
-5.7880702 -13.12 393.38699 0.40757966 0.44102734 0.79960847 0
-5.7529802 -12.4091 392.905 0.5699752 0.43226022 0.69876993 0
-5.7129698 -16.080799 394.798 0.40246025 0.011120435 0.91536993 0
-5.4879298 -14.5073 393.995 0.48728907 0.44536585 0.75113159 0
-5.4092002 40.544601 370.198 0.33049142 0.65430439 0.68019199 0
-5.408 41.405499 369.61499 -0.072830871 0.48559943 0.87114227 0
-5.40553 41.516602 369.47 -0.18317945 0.84783357 0.49761781 0
-5.3942499 -15.5614 394.54199 0.4597095 0.24277797 0.85424 0
-5.3394899 -14.035 393.57999 0.56268799 0.4234879 0.7099579 0
-5.31742 -12.331 392.448 0.61396796 0.43264192 0.66020018 0
-5.2630601 -14.9773 394.08899 0.51695603 0.42624179 0.74234384 0
-5.1876898 -16.275499 394.263 0.59073323 -0.44799364 0.67107075 0
-5.14851 41.510899 369.5 0.26369512 0.57755375 0.77259082 0
-5.0980902 -15.4076 394.19901 0.62209618 0.31740165 0.71571815 0
-4.9581699 42.106602 368.87299 -0.11909142 0.9091444 0.39909109 0
-4.9575601 42.006401 369.01501 -0.23985766 -0.040914658 0.96994549 0
-4.8604698 -15.9303 394.12601 0.67069554 -0.2433553 0.70067519 0
-4.7768898 -14.4802 393.37201 0.58846045 0.41175097 0.69582719 0
-4.7319698 -13.3953 392.62 0.58811337 0.43987364 0.67870015 0
-4.6665001 -16.304001 393.772 0.53216994 -0.43899471 0.72393286 0
-4.6649199 -15.7823 393.98999 0.54480416 -0.13494675 0.82763386 0
-4.6643901 42.081299 368.95801 0.23220709 0.67342532 0.70183915 0
-4.5945201 -15.5602 393.84399 0.60971826 0.27489525 0.74342197 0
-4.5215402 41.9566 368.98801 0.23220709 0.67342532 0.70183915 0
-4.2902498 -15.1932 393.397 0.61541653 0.3598845 0.70124578 0
-4.2121401 42.553398 368.319 -0.45646742 0.56537408 0.68701506 0
-4.1427498 -16.2332 393.461 0.3985095 -0.12719184 0.90830195 0
-4.1366901 -15.5561 393.47501 0.69665283 0.17225081 0.69642264 0
-4.1356502 42.704399 368.11899 -0.10581901 0.98292351 0.15054466 0
-4.0650501 -16.0805 393.53601 0.3985095 -0.12719184 0.90830195 0
-4.06356 42.575001 368.315 0.051204585 0.76819927 0.63815987 0
-3.7876 -14.7672 392.72198 0.56090438 0.42107043 0.71280152 0
-3.7593501 43.330601 367.14999 -0.3664847 0.81742221 0.44442087 0
-3.7574799 43.240002 367.37299 -0.3664847 0.81742221 0.44442087 0
-3.61127 43.0798 367.67001 -0.092251487 0.7453779 0.66022831 0
-3.5416999 -16.080601 393.211 0.54796791 -0.36639887 0.75198609 0
-3.4253199 -16.335699 393.01901 0.40052468 -0.35214308 0.84591681 0
-3.39222 -16.514099 392.85501 0.40052468 -0.35214308 0.84591681 0
-3.2396801 -15.9317 392.97299 0.60374171 -0.045299783 0.79589188 0
-3.1630199 43.262699 367.48199 0.092509836 0.59445554 0.79878944 0
-3.12783 -15.5403 392.69501 0.60598147 0.26855057 0.74877703 0
-3.0866399 43.5825 367.198 -0.10228026 0.66029364 0.74401015 0
-3.00651 43.874802 366.91501 -0.38314405 0.68346441 0.621351 0
-2.8640201 -16.380699 392.737 0.52729672 -0.37514299 0.76238173 0
-2.8625901 43.619999 367.19 -0.10228026 0.66029364 0.74401015 0
-2.79107 -16.007601 392.67801 0.56653202 0.29779732 0.76834774 0
-2.7106299 43.901699 366.974 -0.16633311 0.82004577 0.54759312 0
-2.4123001 44.434101 366.47601 0.070798256 0.60781026 0.7909199 0
-2.2708199 -16.451799 392.30701 0.42008188 -0.54841012 0.72303361 0
-2.1865799 44.464699 366.48999 0.070798256 0.60781026 0.7909199 0
-2.03916 -16.8027 391.85501 0.19460344 -0.5739249 0.79544938 0
-1.84533 44.975201 365.96799 -0.26486298 0.73756695 0.6211623 0
-1.81282 -16.858999 391.67599 0.19460344 -0.5739249 0.79544938 0
-1.67118 -16.0868 391.90201 0.45453826 -0.013087621 0.89063108 0
-1.67038 -16.380699 391.978 0.27449259 -0.34672165 0.89690465 0
-1.65899 45.013699 366.01501 -0.26486298 0.73756695 0.6211623 0
-1.58869 -16.804701 391.664 0.31196219 -0.55937624 0.76796991 0
-1.48122 -16.582399 391.793 0.37103665 -0.34628764 0.86163604 0
-1.06551 -16.3825 391.58801 0.61572254 -0.094426394 0.78228474 0
-1.06489 -16.8265 391.42099 0.37954012 -0.4677496 0.79822278 0
-0.99099702 -16.159401 391.418 0.61225253 0.016209492 0.79049611 0
-0.760445 45.7108 365.52899 -0.29611039 0.26998386 0.91620266 0
-0.68844199 -17.009001 391.07401 0.23318739 -0.073761083 0.9696303 0
-0.57434499 45.769699 365.51199 -0.29611039 0.26998386 0.91620266 0
-0.46665201 -16.680799 391.272 0.23318739 -0.073761083 0.9696303 0
-0.39127699 -16.825199 391.17899 0.13661841 -0.1125271 0.98421192 0
-0.313499 46.009899 365.38699 -0.23167919 0.69111216 0.68460846 0
-0.0130005 46.314899 365.207 -0.21986297 0.45150599 0.86475581 0
-0.010067 46.9016 364.60001 -0.43458238 0.75224173 0.49524793 0
0.099273697 -16.904301 391.08801 0.16352834 -0.42059037 0.89239126 0
0.29121801 46.907398 364.87701 -0.024362776 0.47624129 0.87897706 0
0.43965501 47.061798 364.79901 -0.10991989 0.32942718 0.93776083 0
0.59171301 47.445099 364.521 -0.57799369 0.61045086 0.54154688 0
0.73176998 -16.9858 390.88699 0.3872633 -0.48798653 0.78223801 0
1.05647 48.198002 364.07501 -0.57303411 0.6548174 0.49279416 0
1.1878901 48.117401 364.26999 -0.68461198 0.35119906 0.63872194 0
1.33136 -17.2829 390.582 -0.10985028 -0.094586171 0.9894374 0
1.48742 48.117802 364.28799 -0.20676601 0.48443666 0.85004056 0
1.49038 48.412399 364.17499 -0.20676601 0.48443666 0.85004056 0
1.69958 49.080399 363.401 -0.5420202 0.72319877 0.42801601 0
1.78778 48.713799 364.09 -0.40545246 0.68371797 0.60674381 0
2.1621399 49.6964 362.87601 -0.64698982 0.58817458 0.48523685 0
2.382 -17.281099 389.96201 0.42225271 -0.5638386 0.70978069 0
2.3914299 49.508598 363.47601 -0.72546142 0.43124089 0.53641123 0
2.3994701 49.8214 363.17899 -0.64698982 0.58817458 0.48523685 0
2.5344901 -17.2812 389.87201 0.42122683 -0.58419126 0.69374961 0
2.53861 49.461498 363.56299 -0.2571288 0.61909074 0.74203193 0
2.56124 50.076302 362.94699 -0.58147478 0.64735854 0.49276161 0
2.60623 -17.4359 389.73001 0.36886188 -0.54785901 0.75086045 0
2.9819 50.548599 362.80399 -0.52690506 0.71738082 0.45578051 0
2.98792 -17.779301 389.33801 0.32926291 -0.58322287 0.74258804 0
2.99084 50.061199 363.34698 -0.38337451 0.62492812 0.68006533 0
3.13078 -17.4263 389.51001 0.36982059 -0.44145182 0.81752861 0
3.1352301 -17.2808 389.53 0.36982059 -0.44145182 0.81752861 0
3.1703 50.7159 362.83701 -0.49502763 0.65608734 0.56964642 0
3.58865 51.074501 362.87601 -0.41682807 0.44017431 0.79529929 0
3.73773 50.5914 363.19 -0.24058828 0.42629772 0.87200201 0
3.8118401 -17.5811 389.33401 0.095643029 -0.41252726 0.90591043 0
3.8125601 -18.062 388.97699 0.080675334 -0.6248284 0.7765829 0
4.0402098 51.262901 362.99701 -0.18755046 0.43067631 0.88280392 0
4.1795301 51.690399 362.73401 -0.4512291 0.63662678 0.62537879 0
4.2628102 -18.0464 388.978 0.051172312 -0.5994963 0.79874003 0
4.5649099 51.713299 362.89099 -0.054067053 0.32626405 0.94373119 0
4.5858498 52.235001 362.20001 -0.52754068 0.6370185 0.56205714 0
4.7195702 52.228401 362.57101 -0.50593507 0.65337878 0.56313932 0
4.93609 -17.8792 388.99301 0.090615071 -0.53182232 0.84199399 0
4.9416699 52.2421 362.71799 -0.1742374 0.78605551 0.59309196 0
5.0116601 -18.0261 388.91901 0.015994668 -0.53386438 0.84541881 0
5.16505 52.716499 362.19901 -0.59970856 0.64357442 0.47556454 0
5.3503599 -18.3547 388.686 0.028141398 -0.51143253 0.85886252 0
5.3830199 52.841202 362.28101 -0.5108245 0.63053805 0.58436304 0
5.4973001 -17.9555 388.85501 0.14369054 -0.33097717 0.93263453 0
5.5370498 52.315899 362.65799 -0.053748555 0.4602975 0.88613617 0
5.6113701 -18.177099 388.81299 0.038068205 -0.26190501 0.96434253 0
5.6147499 52.8745 362.414 -0.31602433 0.43234384 0.8445161 0
5.83776 53.067001 362.35999 -0.19725342 0.33493143 0.92136425 0
5.9162898 53.443802 361.89999 -0.54029399 0.68778712 0.48480022 0
6.0615802 52.6157 362.57199 0.020891909 0.37146047 0.92821372 0
6.13728 -18.3255 388.70001 0.15246911 -0.22149909 0.96316731 0
6.5879798 53.516499 362.32901 -0.45714203 0.4404898 0.7726512 0
6.5938902 54.013 361.97101 -0.44592762 0.64872748 0.61668569 0
6.66256 -18.630899 388.58401 0.034408629 -0.58612221 0.80949169 0
6.8116398 -18.4811 388.62399 0.079494208 -0.25065497 0.96480709 0
6.8892298 53.812 362.29901 -0.2314904 0.58798432 0.77503979 0
7.0392399 54.452999 361.67499 -0.37670478 0.80876893 0.45164847 0
7.1880202 54.1115 362.155 -0.20762725 0.69964898 0.68365359 0
7.2611699 -18.556 388.526 0.22455826 -0.56428891 0.79445052 0
7.2625399 53.9659 362.19 -0.19441049 0.71798289 0.66836005 0
7.4124699 54.116699 362.108 0.043095555 0.4432672 0.89535296 0
7.41257 -18.7798 388.487 0.21261713 -0.51290679 0.8316974 0
7.5654101 54.6036 361.866 -0.270625 0.54287833 0.79501271 0
7.7147999 54.821098 361.67401 -0.42820144 0.69056857 0.58288813 0
7.86134 54.340801 361.99899 -0.027164152 0.47283855 0.88073027 0
8.0536098 54.930901 361.745 -0.027833687 0.45939249 0.88779718 0
8.1633596 54.733501 361.90302 -0.044089321 0.4203462 0.90629202 0
8.6874199 55.167801 361.772 -0.33992371 0.22153695 0.91398758 0
8.8429098 55.830101 361.14899 -0.55847281 0.64352089 0.52343959 0
9.1361704 -19.0819 388.19101 0.062843516 0.014347263 0.99792027 0
9.13622 -19.229601 388.19101 0.036709446 -0.37827766 0.92496401 0
9.2191496 56.106701 361.185 -0.44459587 0.79247928 0.4175058 0
9.5882902 55.915199 361.67001 -0.18019792 0.68384951 0.70702088 0
9.8122301 -19.380899 388.13199 0.27055669 -0.41086572 0.87062532 0
10.0036 56.695999 361 -0.55469894 0.59689981 0.57967204 0
10.1912 56.509499 361.41699 -0.40256023 0.54946429 0.73214364 0
10.3382 56.364201 361.49899 -0.18053266 0.49361306 0.85073739 0
10.3434 56.837601 361.14499 -0.38434738 0.61934108 0.6846121 0
10.6381 56.587601 361.42499 0.022896755 0.44668344 0.89439905 0
10.7848 57.159401 361.07999 -0.36678365 0.678581 0.63639426 0
10.797 57.048 361.211 -0.24969329 0.49284828 0.83351898 0
10.937 56.6651 361.401 -0.13867354 0.30765814 0.94133741 0
11.0128 -19.830299 387.97601 0.11517487 -0.077557996 0.99031281 0
11.2385 57.451099 361.07401 -0.44906673 0.67948043 0.58021152 0
11.3879 57.116901 361.311 -0.15710096 0.3123357 0.9368915 0
11.3881 57.736099 360.92599 -0.4598403 0.72267574 0.51602972 0
11.6113 56.893101 361.30499 -0.11942624 0.3070592 0.94416738 0
11.6127 -19.980801 387.935 0.098669492 -0.39945748 0.91142637 0
11.8398 57.5639 361.276 -0.34562546 0.17963159 0.92101878 0
11.9148 58.2444 360.70001 -0.49291182 0.7339111 0.46734622 0
11.993 58.010601 361.155 -0.52188182 0.58057868 0.62495422 0
12.2896 58.012001 361.23801 -0.16755578 0.38312349 0.908373 0
12.4398 -20.2778 387.98099 -0.45369259 -0.19873972 0.86871487 0
12.8152 58.953899 360.58801 -0.50862747 0.67746532 0.53135568 0
12.9702 58.8498 360.93701 -0.38090172 0.65828753 0.64928532 0
13.1153 -20.4263 387.96899 -0.10955314 -0.35787129 0.92732209 0
13.3382 58.690399 361.05399 -0.17686102 0.38091356 0.90753788 0
13.6394 -20.5774 388.01401 0.051815096 -0.34248292 0.93809414 0
13.7828 59.425098 360.81799 -0.4740434 0.6577602 0.5853498 0
13.863 -20.581301 388.02301 0.13561657 -0.31858504 0.93814272 0
13.9408 59.356998 360.91501 -0.093362682 0.68279654 0.72461873 0
14.0135 -21.005899 387.75201 0.47540757 -0.45416653 0.75347221 0
14.0901 59.502701 360.853 0.12653038 0.44206983 0.88801146 0
14.5382 59.6619 360.771 -0.043138307 0.40724513 0.91229957 0
14.543 59.972099 360.46799 -0.33008882 0.83931786 0.43195704 0
14.5758 59.2369 360.767 0.21932995 0.42717439 0.87716383 0
14.9877 -20.881701 387.97 -0.014753769 0.30078375 0.95357823 0
14.9902 60.112202 360.59601 -0.2553429 0.44082677 0.86050671 0
15.2128 -20.880199 387.98499 0.0017135445 -0.066989861 0.99775219 0
15.2877 60.1166 360.63 -0.26426032 0.53291994 0.80384254 0
15.4392 60.264 360.58899 -0.18712549 0.50364423 0.84340179 0
15.5881 -21.029699 387.966 0.0017135445 -0.066989861 0.99775219 0
15.5953 60.738998 360.31699 -0.40127382 0.72376972 0.56137037 0
15.7387 -21.174999 387.944 -0.048008032 -0.39447534 0.91765159 0
16.2617 -21.1831 387.92801 0.024407255 -0.17236368 0.98473096 0
16.7134 -21.628799 387.79501 -0.16728389 -0.31348503 0.93474233 0
16.7864 61.404099 360.32901 -0.35884264 0.69967061 0.61781311 0
17.1633 -21.4811 387.94101 -0.41896915 -0.1869202 0.88855261 0
17.314301 61.464802 360.448 0.058305096 0.45271188 0.88974857 0
17.319799 61.868198 360.05801 -0.38618076 0.77030206 0.50744379 0
17.9874 62.374699 359.802 -0.45567977 0.63371986 0.62510407 0
17.9893 61.9142 360.38599 -0.17674798 0.59171617 0.78653169 0
18.4387 62.643398 359.95099 -0.36315924 0.55892891 0.74546218 0
18.442699 62.5042 360.14099 -0.36315924 0.55892891 0.74546218 0
18.5879 62.217098 360.37201 -0.045994639 0.41483369 0.90873402 0
19.0413 63.062698 359.87399 -0.37649775 0.78933901 0.48496744 0
19.1124 -21.7824 388.02899 0.1370319 0.1645378 0.97680581 0
19.187799 62.666599 360.32999 -0.30834877 0.45238894 0.83681858 0
19.226 63.109798 359.95801 -0.37649775 0.78933901 0.48496744 0
19.638201 63.116402 360.13599 -0.22447813 0.5447033 0.80802715 0
19.7131 -22.080299 387.97198 0.0009091883 0.15016113 0.98866111 0
19.8668 63.48 359.87201 -0.28788751 0.57937944 0.76252234 0
19.937599 -22.0812 387.98499 -0.16711162 0.27465883 0.94690877 0
20.2377 62.967098 360.27499 -0.037934761 0.43470359 0.89977425 0
20.3699 -22.335899 388.01199 -0.053287048 0.10479777 0.99306494 0
20.3874 63.7784 359.87701 -0.35755318 0.548042 0.75617832 0
20.388901 63.2658 360.24399 -0.19214937 0.28734306 0.93835634 0
20.3913 63.674099 360.021 -0.36293882 0.49791548 0.78762656 0
20.762699 -22.381201 388.07001 -0.074785024 -0.08333835 0.99371117 0
20.9135 63.566898 360.255 -0.2567299 0.48226714 0.83756083 0
20.99 63.790901 360.22299 -0.30713302 0.37701046 0.87380344 0
21.587601 -22.3822 388.09 -0.18270585 -0.05112889 0.98183727 0
21.5881 64.317703 360.31201 -0.51551169 0.45493883 0.72613937 0
22.1124 -22.8321 388.01999 -0.17238386 -0.080774173 0.98171246 0
22.113501 -22.6427 388.078 0.1246395 0.36392081 0.92305291 0
22.188101 64.766899 360.35501 -0.41087502 0.40884545 0.81487858 0
22.1947 65.000298 360.15701 -0.28067195 0.73458833 0.61774039 0
22.341 64.762299 360.367 0.17055926 0.43126282 0.88595819 0
22.6383 -22.682699 388.11899 -0.066218697 0.39403927 0.91670501 0
22.785601 65.400398 360.02802 -0.30902877 0.66653687 0.67840236 0
22.787201 64.918404 360.34698 -0.044146523 0.48419449 0.87384599 0
22.7882 -22.9811 388.12799 -0.24824554 -0.36704636 0.8964659 0
23.163 -22.6882 388.11099 -0.060670357 0.32793501 0.9427501 0
23.314301 -22.833099 388.19299 -0.060670357 0.32793501 0.9427501 0
23.3894 65.516502 360.418 -0.27151957 0.78591782 0.55552709 0
23.988899 -22.984699 388.39899 0.022664228 0.31994987 0.94716334 0
23.9956 66.178703 360.319 -0.50442272 0.69461125 0.51290631 0
23.996901 65.956596 360.55099 -0.47108677 0.38690624 0.79270476 0
24.288099 -23.280701 388.41699 -0.089139462 0.30266297 0.94892007 0
24.446899 66.253998 360.56799 -0.37969807 0.39839652 0.8349309 0
24.5126 -23.4333 388.38199 -0.15967725 -0.27370974 0.94846517 0
24.814199 66.4645 360.59601 -0.2965537 0.42975035 0.85286021 0
25.1887 -23.432199 388.47601 0.06401027 0.065433569 0.99580175 0
25.1891 66.417603 360.79001 -0.31486881 0.57322127 0.75648862 0
25.561501 -24.027201 388.29001 -0.45697793 -0.36942771 0.80913186 0
25.6378 -23.358999 388.48499 0.044549853 0.30415571 0.95158005 0
25.6401 66.715897 360.82501 -0.38670188 0.41276556 0.82467341 0
25.646799 67.139099 360.591 -0.46847251 0.32100362 0.82309794 0
25.714399 66.566399 360.815 -0.15114471 0.3870886 0.90957004 0
25.7875 67.3181 360.57401 -0.42619738 0.6480794 0.63114887 0
25.816799 67.4655 360.59601 -0.61697513 0.57120383 0.54135752 0
26.163099 -23.349701 388.44901 -0.074914858 0.20164163 0.97659022 0
26.2391 -23.8813 388.71701 -0.40558779 0.27807921 0.87072986 0
26.387501 67.918098 361.07199 -0.38630718 0.52491289 0.75844127 0
26.393101 67.694801 360.98599 -0.50869477 -0.030513424 0.86040604 0
26.396799 -23.881001 388.811 -0.34081084 -0.18411125 0.92192787 0
26.767 -24.1723 388.758 -0.25833538 -0.091015488 0.96175832 0
26.838699 68.420403 360.77499 -0.45075148 0.66537601 0.59506124 0
26.8409 -23.880199 388.98401 -0.25833538 -0.091015488 0.96175832 0
26.985701 68.069603 361.14999 -0.25425404 0.37484035 0.89154339 0
26.990601 -24.0294 388.92099 -0.19543193 -0.11465696 0.97399187 0
27.445101 68.357101 361.185 -0.14150621 0.3052724 0.94169247 0
27.5604 68.549698 361.08401 -0.098600157 0.27432099 0.95656991 0
27.5874 68.218102 361.297 -0.053187124 -0.16410039 0.98500872 0
27.740299 68.366898 361.23199 0.096069649 0.4915522 0.86553282 0
27.887699 68.218002 361.19299 0.096069649 0.4915522 0.86553282 0
28.187401 68.818199 361.14899 -0.44296074 0.21786793 0.86966622 0
28.189199 69.151497 360.92499 -0.5368287 0.65321678 0.53396899 0
28.192499 -24.0324 389.15701 -0.24530478 -0.36215776 0.89925933 0
28.2248 68.293404 361.16599 0.090521805 0.1016243 0.99069589 0
28.488199 68.966698 361.19699 -0.42630297 0.40783653 0.80742502 0
28.5634 68.219002 361.20099 -0.038149081 0.020079609 0.99907029 0
28.6402 68.964996 361.23801 -0.42630297 0.40783653 0.80742502 0
28.646 69.257301 361.17099 -0.42786378 0.40999755 0.80550271 0
28.7875 67.542801 361.03699 0.027531939 -0.17386042 0.98438537 0
28.7882 -24.181499 389.306 -0.15202659 -0.24350594 0.95791066 0
28.789 69.117699 361.29001 -0.33745214 0.33911911 0.87813681 0
28.900101 67.095299 361.005 -0.004729874 -0.13174158 0.99127281 0
29.013399 -24.181999 389.35101 -0.15385258 -0.21738058 0.96388543 0
29.0951 69.563004 361.19 -0.35475445 0.51710534 0.77894247 0
29.106199 68.106598 361.17001 -0.0024819872 -0.24028921 0.97069818 0
29.162201 67.655098 361.07101 -0.0059093623 -0.1777548 0.98405707 0
29.2376 68.368301 361.26199 0.025833905 -0.13355021 0.99070525 0
29.294701 -23.996201 389.341 -0.061197553 0.06284146 0.99614549 0
29.313499 -24.6322 389.17099 -0.12211587 -0.27222109 0.95445448 0
29.3176 69.415703 361.35199 0.018378392 0.16421962 0.98625261 0
29.388 68.968803 361.23599 -0.0026566216 8.4729756e-05 0.99999648 0
29.3918 69.722198 361.22 -0.26493275 0.52077311 0.81154543 0
29.4244 68.295303 361.211 0.041468102 -0.13689154 0.98971766 0
29.6866 -24.483601 389.37601 -0.28918919 -0.15819936 0.94410938 0
29.7624 -24.6327 389.27301 -0.26069123 -0.16462621 0.95128244 0
29.762699 -23.882401 389.353 -0.064898282 -0.0075357943 0.99786341 0
29.8377 67.467903 361.04599 0.0090916762 -0.13652842 0.99059445 0
29.910801 69.568199 361.366 -0.12361556 0.459694 0.87943196 0
29.912399 68.893303 361.26501 0.035306718 -0.12851402 0.99107897 0
29.9126 68.068802 361.13199 0.05715286 -0.17743658 0.98247129 0
29.915701 70.068199 361.07101 -0.24223122 0.71738142 0.65321356 0
29.9863 -24.181499 389.535 -0.42761126 0.15169841 0.8911432 0
29.986799 69.717499 361.43301 -0.12361556 0.459694 0.87943196 0
30.0994 69.492203 361.31699 0.2327145 -0.10634302 0.96671355 0
30.137501 69.717499 361.371 -0.079967953 0.47070178 0.87866086 0
30.1376 67.064499 360.98901 0.012637973 -0.13268708 0.99107742 0
30.287701 67.542702 361.04001 0.023590421 -0.13501482 0.99056274 0
30.511499 70.015404 361.194 0.20035461 0.41155601 0.88908923 0
30.529699 68.969398 361.22 0.14252579 -0.066339262 0.98756546 0
30.5896 70.334099 360.90701 -0.52757788 0.5275802 0.66582328 0
30.5909 -24.3316 389.763 -0.29699677 0.20609273 0.93237263 0
30.625999 69.699501 361.20401 0.31015354 0.13011768 0.94173998 0
30.6824 -23.715401 389.35101 -0.06745588 0.60884362 0.79041708 0
30.6985 69.343002 361.20801 0.2015388 0.046336222 0.9783839 0
30.6998 67.937302 361.08801 0.085493997 -0.10151943 0.99115318 0
30.736401 69.941101 361.13 0.28803453 0.26714376 0.91960335 0
30.756201 67.655899 361.05701 0.056375321 -0.1018444 0.99320167 0
30.812401 -23.384701 389.039 -0.094073348 0.72077078 0.68676031 0
30.8853 70.3097 360.95901 0.24939318 0.55198038 0.79568881 0
30.8873 68.724403 361.147 0.22865967 -0.037743207 0.97277451 0
31.0187 -23.7679 389.41901 0.019284774 0.60101676 0.79900372 0
31.0357 69.342697 361.133 0.28739074 0.018402817 0.95763659 0
31.0387 -24.482201 389.88699 -0.048611779 0.49849454 0.86552882 0
31.056101 67.112198 360.983 0.15215018 -0.10690317 0.98255891 0
31.1852 70.730698 360.38901 0.45342201 0.69579536 0.55702543 0
31.1912 -24.6266 389.83701 -0.048611779 0.49849454 0.86552882 0
31.261999 -23.211201 388.85001 0.051458117 0.65484846 0.75400633 0
31.262199 -23.883801 389.48199 0.049595974 0.61179137 0.7894628 0
31.3346 69.641998 360.961 0.48620352 0.24782676 0.83796662 0
31.337 69.342697 361.004 0.32048863 0.027817288 0.9468438 0
31.338301 67.092796 360.95599 0.21395802 -0.11490411 0.97006136 0
31.371099 70.4524 360.573 0.74318546 0.54097092 0.3937332 0
31.3743 68.742996 361.00699 0.43112382 0.017920073 0.90211481 0
31.392599 68.321198 361.01001 0.30832034 -0.013939036 0.95118046 0
31.4123 67.543098 360.97501 0.23154652 -0.020658268 0.97260445 0
31.562799 -22.9762 388.621 0.043455258 0.65725696 0.75241274 0
31.5648 -23.8724 389.38199 0.096365482 0.67789084 0.72881937 0
31.595301 70.794701 359.93399 0.6928845 0.60843521 0.38693368 0
31.6385 69.493698 357.866 0.38280103 0.25194219 -0.88881296 0
31.656799 69.9786 360.548 0.74558806 0.28249162 0.60357016 0
31.6982 70.166 358.18301 0.63690639 0.42820245 -0.64108729 0
31.7146 -24.6297 389.914 -0.094217338 -0.35060525 0.93177199 0
31.7416 70.543404 358.60101 0.7958107 0.51395953 -0.3202045 0
31.753 70.765404 359.35199 0.56548578 0.8149541 -0.12678988 0
31.7875 -24.4821 389.974 -0.13160364 -0.17267767 0.976147 0
31.8181 69.792603 358.10901 0.60041767 0.41593698 -0.68300444 0
31.819099 70.389503 360.02301 0.79994756 0.38936904 0.4565914 0
31.8248 67.693001 360.84 0.42843634 0.0073104301 0.9035424 0
31.834299 -23.382601 388.94501 0.0044525485 0.64587784 0.76342779 0
31.850401 69.989304 360.23199 0.78721046 0.37115988 0.49248353 0
31.863001 67.955704 360.82001 0.48175997 0.06934116 0.87355548 0
31.868099 70.539497 359.23901 0.89612085 0.44305709 -0.025842104 0
31.8757 68.874397 360.68701 0.63993365 0.21818145 0.73680514 0
31.9321 70.223503 359.87601 0.88818151 0.39743656 0.23060316 0
31.956301 -23.0184 388.64401 0.031814244 0.62910783 0.77666676 0
31.978001 70.205803 358.75101 0.8627274 0.43485352 -0.25807714 0
32.012901 -24.4886 389.98901 0.0023694267 0.12907687 0.99163175 0
32.023899 69.349503 358.07999 0.74152422 0.38600588 -0.54876339 0
32.0448 69.943703 359.87701 0.90072966 0.36534852 0.23496082 0
32.0574 69.907097 358.60001 0.83167595 0.4492701 -0.32629973 0
32.079102 68.8881 357.897 0.38302821 0.26457343 -0.88503689 0
32.079899 68.591301 360.564 0.69442493 0.17911363 0.69691634 0
32.117401 69.272499 360.23499 0.7715885 0.29968664 0.56110525 0
32.1241 -23.801901 389.29901 -0.036261953 0.67242068 0.7392804 0
32.140999 69.9786 359.23901 0.90456706 0.4263165 -0.0035547235 0
32.233601 68.329597 360.47198 0.65732247 0.17334431 0.73340231 0
32.292301 69.322998 359.85699 0.89755571 0.34161323 0.27873677 0
32.3111 67.655296 360.54999 0.58147705 0.15384203 0.79888487 0
32.312698 -24.483101 390.00101 0.11362396 0.12066482 0.98616916 0
32.320499 69.4552 358.69501 0.86473221 0.38448873 -0.32312006 0
32.331299 -22.798 388.44901 -0.029579677 0.6792962 0.73326784 0
32.387001 -24.782801 389.987 -0.084418386 -0.30276427 0.94931942 0
32.399799 69.380203 358.92099 0.91052681 0.40493849 -0.083460785 0
32.406502 68.592598 360.17599 0.78664947 0.24771446 0.56552649 0
32.424599 -23.997299 389.52701 -0.14783935 0.67775649 0.72027057 0
32.4286 69.3414 359.202 0.91611028 0.39833456 0.045514066 0
32.4561 68.8358 359.91299 0.88239682 0.24290659 0.40295443 0
32.459999 67.055199 360.53299 0.60235363 0.14895047 0.78420907 0
32.463799 -24.368799 389.875 0.39752492 0.42395988 0.81377637 0
32.468601 67.879997 360.34601 0.76878697 0.18969637 0.61072242 0
32.483002 -23.5466 389.134 -0.1092178 0.66371989 0.73996443 0
32.494202 69.0037 358.64001 0.91463721 0.38544372 -0.12195043 0
32.521099 68.293503 358.06 0.80777973 0.31160662 -0.50039303 0
32.536499 67.242897 360.444 0.71867669 0.1478616 0.67944151 0
32.583599 68.883499 359.38901 0.92050099 0.36708263 0.13389648 0
32.592701 66.464699 360.51599 0.63391739 0.10998745 0.76554 0
32.640598 -22.7377 388.40701 -0.04816816 0.67471582 0.73650414 0
32.6656 68.667099 358.75201 0.92324024 0.38176623 -0.043381967 0
32.725101 -22.3454 388.04999 -0.043694511 0.68023515 0.73169047 0
32.734299 -23.093901 388.75601 -0.086322561 0.67389101 0.73377067 0
32.781799 68.382301 358.742 0.887299 0.36745545 -0.27870581 0
32.850201 68.2911 359.20099 0.91381717 0.40531221 -0.02569527 0
32.877102 67.8423 359.80099 0.83100957 0.40920788 0.37679169 0
32.949299 67.354103 359.948 0.73805141 0.2621507 0.62173718 0
32.987301 -24.782101 390.155 -0.33094376 -0.10021366 0.93831414 0
32.9902 -24.483801 390.17001 -0.36037692 0.32843244 0.87307537 0
33.035099 67.842903 359.202 0.90482676 0.40918556 0.11771023 0
33.0667 67.766403 358.75201 0.92614514 0.37561783 -0.034152962 0
33.0821 66.679703 360.04999 0.79210901 0.22213459 0.568524 0
33.090401 67.091797 359.87399 0.89981771 0.26197928 0.34884799 0
33.1092 66.248497 360.13199 0.67684484 0.17191987 0.71576858 0
33.115799 -23.7703 389.47601 -0.15450598 0.68549007 0.71149927 0
33.126301 67.240601 359.72299 0.90981358 0.25105318 0.33047169 0
33.146 67.542999 359.23901 0.91201776 0.37570837 0.16452001 0
33.155998 65.817902 360.19199 0.64339054 0.098815925 0.75913376 0
33.174801 -22.380699 388.134 -0.10804159 0.69150597 0.71424538 0
33.269402 -23.1346 388.90302 -0.13791642 0.68838799 0.71211028 0
33.332802 66.193703 359.87799 0.79493493 0.17601906 0.58059949 0
33.3634 -24.1786 389.935 -0.28132007 0.58745754 0.7587837 0
33.389801 66.904602 359.20099 0.91981322 0.35085255 0.17563061 0
33.420601 65.8936 359.87799 0.82520515 0.21077931 0.5240311 0
33.436001 -22.6905 388.491 -0.12594484 0.70117986 0.70177257 0
33.4398 -24.485201 390.315 -0.28660044 0.47741368 0.8306241 0
33.590302 -24.780701 390.388 -0.2547783 -0.12637796 0.95870572 0
33.598099 66.360199 359.05099 0.94979209 0.29339793 0.10868605 0
33.635502 65.8927 359.50101 0.84976888 0.36641508 0.37898919 0
33.6744 66.0429 359.27701 0.89271742 0.33959749 0.29619113 0
33.688202 64.992401 359.87601 0.65230995 0.32513875 0.68467259 0
33.719601 -22.861401 388.72198 -0.12164916 0.69906473 0.70463461 0
33.759399 64.692703 359.897 0.84298295 0.14795965 0.51719218 0
33.803799 65.744499 359.203 0.93429267 0.31909081 0.15899144 0
33.859699 -23.3466 389.21701 -0.11461487 0.68872279 0.71590811 0
33.962799 -24.4589 390.39499 -0.075130925 0.62025076 0.78079724 0
34.018902 63.792999 359.87701 0.77170211 0.21790873 0.59748775 0
34.039101 63.2686 359.98199 0.64396363 0.18251225 0.74296713 0
34.055099 64.8423 359.35001 0.85986763 0.38523126 0.33499935 0
34.174 64.617798 359.202 0.94212353 0.31161445 0.12369209 0
34.187302 -23.9786 389.87601 0.1789055 0.6448741 0.74305469 0
34.1875 -24.7819 390.55399 -0.16930856 -0.039463352 0.98477268 0
34.187599 -22.470301 388.401 -0.092993148 0.68714619 0.72054315 0
34.203499 63.193199 359.84698 0.61392128 0.24163155 0.75147516 0
34.209099 64.393204 359.27701 0.95000494 0.23547229 0.20504496 0
34.236801 64.655701 358.677 0.97755885 0.20585792 0.04473443 0
34.2603 -24.589399 390.414 0.25770047 0.16005836 0.95287555 0
34.289398 63.642502 359.57501 0.79626536 0.25014752 0.55080646 0
34.326801 64.093201 359.202 0.93473387 0.24662729 0.25582722 0
34.338799 62.143398 359.987 0.63206559 0.1407671 0.76202214 0
34.387501 62.7794 359.784 0.7067672 0.18519175 0.68277681 0
34.450199 -23.947901 389.83801 0.16955207 0.59813386 0.78325474 0
34.462101 63.4911 359.34799 0.89475876 0.19426902 0.40207744 0
34.487801 -23.2887 389.224 0.046128441 0.67344302 0.73779851 0
34.507301 63.904999 358.60199 0.92627186 0.37682337 0.0049588596 0
34.637699 -24.031601 389.86899 0.16955207 0.59813386 0.78325474 0
34.677799 63.435398 358.60199 0.93621892 0.32457894 0.13469464 0
34.711201 61.3167 359.86301 0.67368799 0.34676537 0.65260881 0
34.712399 -22.7279 388.68799 0.040727511 0.68961221 0.72303265 0
34.787601 -25.826099 390.07599 -0.024039431 0.53226191 0.84623837 0
34.823799 62.724499 359.12701 0.84821308 0.37463105 0.37441444 0
34.834999 62.2901 359.42001 0.84971386 0.16705285 0.50007963 0
34.853401 61.391998 359.72299 0.76082379 0.15197562 0.63091248 0
34.8596 62.894001 358.75201 0.94082075 0.33379337 0.058636766 0
34.8619 -24.257999 389.97299 0.37720212 0.53912896 0.75303286 0
34.862598 -24.481501 390.13199 0.41756153 0.48349372 0.76933491 0
34.900002 62.386101 359.23801 0.84821308 0.37463105 0.37441444 0
34.9245 -25.2314 390.401 0.13756646 -0.4480063 0.88338315 0
34.931499 -25.0825 390.40701 0.41562793 0.35541013 0.83721983 0
34.992401 -23.997101 389.72 0.23384915 0.60108519 0.76420623 0
35.009998 59.9674 359.923 0.60981411 0.14384264 0.77938187 0
35.011501 -23.2862 389.15201 0.16061614 0.64403445 0.74794525 0
35.077801 62.3657 358.60199 0.9591006 0.27782023 0.05424029 0
35.144402 -23.580299 389.34299 0.23145959 0.58806539 0.77498746 0
35.165901 61.393799 359.27802 0.84697807 0.33786681 0.41045606 0
35.199299 -22.9098 388.79099 0.16521832 0.63650078 0.75337219 0
35.292801 61.036301 359.23801 0.89868087 0.30024371 0.31972873 0
35.341 61.391399 358.78799 0.90160751 0.31217188 0.29942045 0
35.3713 -26.282101 389.276 0.65691555 -0.43868485 0.61320275 0
35.379902 -24.7092 389.92599 0.51632631 0.096849665 0.85089791 0
35.387199 -25.6054 389.87201 0.82070935 -0.24030709 0.51835185 0
35.402401 61.317402 358.60199 0.97881788 0.16227318 0.12483194 0
35.4361 61.1283 358.75 0.90160751 0.31217188 0.29942045 0
35.441299 60.8297 359.05099 0.90464228 0.30209944 0.30059659 0
35.4487 -26.8039 388.82001 0.81290781 -0.2220756 0.53838956 0
35.451199 60.023899 359.5 0.69403696 0.25268215 0.67413974 0
35.460098 -25.8283 389.49799 0.87397468 -0.30932412 0.37481579 0
35.464298 60.492802 359.276 0.88188696 0.27299175 0.3843838 0
35.499001 -26.057699 389.07101 0.87600446 -0.39599961 0.27531883 0
35.506401 -25.0075 389.80701 0.89055562 -0.053206965 0.4517518 0
35.525501 59.592201 359.58499 0.67265463 0.14693415 0.7252214 0
35.537899 -25.2411 389.67001 0.86807227 -0.064069189 0.49228612 0
35.591702 -24.481199 389.63901 0.8236649 0.068347059 0.56294298 0
35.6534 -25.869699 388.75201 0.91710001 -0.30056962 0.2618883 0
35.674801 -25.250999 389.315 0.90036243 -0.21582195 0.37784705 0
35.6889 -23.955799 389.358 0.52055353 0.41738743 0.74485683 0
35.721401 -25.6462 388.75299 0.91057473 -0.3068997 0.27688667 0
35.7225 -23.2115 388.88101 0.31003454 0.56065458 0.76781833 0
35.7495 -26.503799 388.186 0.94807345 -0.30351827 0.095044196 0
35.7593 60.228802 358.00299 0.9312914 0.32895339 -0.15648013 0
35.763199 59.592602 359.276 0.83450609 0.34616986 0.42867944 0
35.798901 60.0984 358.742 0.91673487 0.36344045 0.16585606 0
35.805901 -24.856701 389.276 0.89765143 -0.13405904 0.41982153 0
35.834202 -24.481701 389.34601 0.75265753 0.029935936 0.65773129 0
35.858898 59.292099 359.27499 0.8426246 0.35840586 0.40190673 0
35.945599 -25.616699 388.04001 0.94593352 -0.19767974 0.2571623 0
35.9515 59.686199 358.71799 0.91673648 0.33937198 0.21076255 0
35.957199 -25.0056 388.75101 0.88744885 -0.32294163 0.32885143 0
35.9893 59.6674 358.15201 0.92470336 0.36411983 -0.1110877 0
36.014702 59.291801 358.97501 0.88519651 0.30650666 0.34997255 0
36.026798 58.3918 359.423 0.68623108 0.1748424 0.70605737 0
36.055302 -25.269199 387.94501 0.94273144 -0.26421592 0.20358628 0
36.062599 -24.181999 389.04901 0.80481261 -0.02999153 0.59277081 0
36.076801 58.0923 359.466 0.6812095 0.21694252 0.69920641 0
36.101501 -24.7054 388.67499 0.91379333 -0.27458829 0.29930428 0
36.117199 -23.9571 388.96799 0.79554331 -0.00576548 0.60586929 0
36.128601 59.291199 358.60101 0.94178611 0.32321176 0.092590988 0
36.1679 58.3354 359.23599 0.85463679 0.26943362 0.44384846 0
36.175201 -20.956499 386.96701 0.34266576 0.61430782 0.71077847 0
36.177399 -24.8559 388.06699 0.93639302 -0.30650538 0.17094608 0
36.182301 -24.4785 388.673 0.85015279 -0.23495248 0.47120866 0
36.246601 -23.360201 388.65302 0.77998167 0.33593401 0.52799332 0
36.2668 57.9422 359.27499 0.82302791 0.2507872 0.50963801 0
36.267899 58.730801 358.75201 0.95707214 0.21972226 0.18903707 0
36.273602 -22.5445 388.19101 0.65101069 0.42341733 0.63000226 0
36.273602 -24.893101 387.401 0.95669299 -0.23789342 0.16776533 0
36.273602 -22.5445 388.19101 0.65101069 0.42341733 0.63000226 0
36.273602 -24.893101 387.401 0.95669299 -0.23789342 0.16776533 0
36.273602 -22.5445 388.19101 0.65101069 0.42341733 0.63000226 0
36.300598 -23.956699 388.67499 0.9179067 -0.043166906 0.39444122 0
36.333099 -24.517401 387.776 0.94762021 -0.27471042 0.16294208 0
36.3368 58.766899 358.15201 0.92445934 0.35925812 -0.12770471 0
36.358299 -20.2143 386.367 0.31043461 0.52426416 0.79295492 0
36.380402 57.3983 359.349 0.80638081 0.18771459 0.56081474 0
36.414299 -24.501699 387.19601 0.95592541 -0.24510504 0.16164826 0
36.471001 -23.731899 388.151 0.950813 -0.16643149 0.26125696 0
36.474899 -19.3071 385.659 0.2424421 0.58022809 0.77753276 0
36.508701 -21.053499 386.87399 0.41892725 0.6573348 0.62642705 0
36.551201 58.055 358.021 0.95908165 0.27111518 -0.08160203 0
36.5672 -23.057301 388.07599 0.84604192 0.091635048 0.52518195 0
36.571499 57.942699 358.63901 0.85722345 0.45431793 0.24241114 0
36.575699 -21.791201 387.513 0.87642109 0.23362418 0.42107689 0
36.580898 -21.49 387.31299 0.81832397 0.33114314 0.46977669 0
36.603401 -21.938601 387.56601 0.87642109 0.23362418 0.42107689 0
36.618401 -22.685499 387.91501 0.83457893 0.24481589 0.49350092 0
36.619202 57.6418 358.82501 0.84791028 0.29273826 0.44198692 0
36.623299 -22.907301 387.923 0.83457893 0.24481589 0.49350092 0
36.635399 -20.9587 386.698 0.65101445 0.35091931 0.67307937 0
36.646198 56.6679 359.35101 0.78363657 0.30998117 0.53835434 0
36.655701 -22.158701 387.62299 0.57963055 0.31385723 0.75201201 0
36.655701 -20.289 386.276 0.48762 0.54925132 0.67863816 0
36.655701 -22.158701 387.62299 0.57963055 0.31385723 0.75201201 0
36.662701 -19.568899 385.76199 0.42423171 0.49637482 0.7573899 0
36.667198 -21.2631 386.952 0.7946437 0.44920346 0.40835971 0
36.688099 57.641899 358.60101 0.95225871 0.29646108 0.072898403 0
36.694 -21.490499 387.164 0.77468324 0.44769037 0.44658616 0
36.701401 57.603699 357.94601 0.94276839 0.30868417 -0.12610225 0
36.706902 54.974998 359.81 0.59941673 0.17346425 0.78141522 0
36.7383 55.393398 359.694 0.54328001 0.18721248 0.81841207 0
36.749699 55.9925 359.51401 0.593104 0.22104846 0.77418679 0
36.749901 57.293701 358.77899 0.83939165 0.30009872 0.45316926 0
36.766499 -22.4569 387.47601 0.94005382 0.11622806 0.32060862 0
36.808601 57.340698 358.077 0.93887889 0.3424671 -0.034966692 0
36.8092 -18.599199 385.05801 0.39863855 0.53256321 0.74663496 0
36.810501 -17.8853 384.56799 0.28863919 0.50073677 0.81605768 0
36.8116 53.9678 359.94199 0.50044256 0.11358449 0.85828656 0
36.883999 -20.660601 386.33099 0.76013875 0.39588845 0.51522946 0
36.886002 -17.2111 384.09299 0.22316176 0.4829075 0.84675807 0
36.886799 -19.0261 385.28601 0.45956331 0.43148524 0.77628732 0
36.915001 -21.7087 386.87299 0.93624985 0.18747804 0.29713339 0
36.935799 56.872898 358.67599 0.89268845 0.35103121 0.2826384 0
36.943699 55.9921 359.27499 0.8183257 0.23810405 0.52311516 0
37.025501 -21.3316 386.35199 0.90071768 0.16556951 0.40161473 0
37.033798 56.742298 358.17099 0.94892246 0.30618641 -0.076132096 0
37.1022 -18.789301 385.01901 0.49290285 0.45215055 0.74337518 0
37.112499 55.223499 359.35999 0.71317863 0.255355 0.65281701 0
37.152802 56.2924 358.60101 0.94194204 0.32829615 0.070475586 0
37.1805 -16.692101 383.67401 0.42787457 0.44009727 0.78945404 0
37.185902 -16.237 383.38501 0.4083941 0.47753599 0.77792907 0
37.2062 -19.232201 385.17999 0.46726051 0.38176432 0.79744822 0
37.224098 54.6805 359.44699 0.70284235 0.24301262 0.66854882 0
37.2314 -19.0091 385.04199 0.49290285 0.45215055 0.74337518 0
37.2411 -19.759399 385.371 0.77651727 0.2777825 0.56555974 0
37.2547 56.104 358.00299 0.91853577 0.3765271 -0.12049661 0
37.2565 -17.7367 384.23001 0.45576882 0.46579492 0.75849181 0
37.257702 55.429699 359.04999 0.859815 0.27399257 0.4308669 0
37.261002 55.992298 358.60101 0.95937049 0.24204987 0.14498326 0
37.2626 -15.4829 382.83499 0.24492303 0.46266499 0.8520292 0
37.262699 54.276199 359.54901 0.77178359 0.25653329 0.5818426 0
37.320702 -18.486 384.659 0.72384816 0.24665068 0.64436579 0
37.334301 -16.2376 383.319 0.4083941 0.47753599 0.77792907 0
37.337399 -16.0821 383.22 0.47532421 0.47777119 0.73878384 0
37.338402 52.393501 359.94199 0.53324121 0.17147742 0.82840168 0
37.358501 54.7925 359.20001 0.78632891 0.24995063 0.56498808 0
37.369598 55.655201 358.62 0.95937049 0.24204987 0.14498326 0
37.373501 52.9739 359.81 0.62592369 0.19888018 0.75409961 0
37.389099 -18.3312 384.48901 0.66285908 0.44448236 0.602539 0
37.398701 53.816299 359.57999 0.65096301 0.22245571 0.72578275 0
37.400299 55.692402 358.00201 0.97307277 0.18331544 -0.13973141 0
37.409698 51.829601 360.008 0.52287501 0.16457647 0.83637094 0
37.409901 -17.2834 383.854 0.44015706 0.43698877 0.78441226 0
37.428299 -16.564301 383.448 0.59032053 0.40077683 0.70064229 0
37.502102 -17.6621 383.98901 0.70571983 0.37636086 0.60025996 0
37.504002 -15.3733 382.71201 0.24492303 0.46266499 0.8520292 0
37.507301 54.3424 359.20001 0.77178359 0.25653329 0.5818426 0
37.6022 53.8358 359.31201 0.80209279 0.25388181 0.54054707 0
37.6376 51.493099 359.95401 0.51892531 0.20177422 0.83066458 0
37.665401 54.866299 358.15201 0.92722327 0.34776598 -0.1389814 0
37.718102 54.6418 358.526 0.95364666 0.29507697 0.059055988 0
37.733501 53.2929 359.35101 0.81030422 0.27092138 0.51962358 0
37.738201 -15.7174 382.78201 0.4389458 0.31801644 0.84035242 0
37.759701 54.568501 358.37701 0.95364666 0.29507697 0.059055988 0
37.761299 54.567402 358.15201 0.95364666 0.29507697 0.059055988 0
37.7869 -13.6837 381.54001 0.27738309 0.49664414 0.82243735 0
37.809299 -16.084101 382.888 0.68514639 0.22338201 0.69330722 0
37.810501 -16.5338 383.04599 0.77664167 0.18612865 0.60181713 0
37.8186 52.504398 359.58701 0.6634981 0.19370371 0.72266805 0
37.831799 52.993 359.35101 0.75346333 0.31276253 0.57833606 0
37.8344 54.230301 358.58301 0.92264915 0.26079428 0.28408602 0
37.8582 54.267101 358.15201 0.95364666 0.29507697 0.059055988 0
37.859699 50.704498 359.98099 0.51487243 0.18943828 0.83607388 0
37.899601 -15.4852 382.55399 0.72679919 0.36391646 0.58251846 0
37.905102 53.536598 358.939 0.84897685 0.25241965 0.4642441 0
37.937302 -13.6823 381.48599 0.5623998 0.39778897 0.72489333 0
37.9375 -13.082 381.12201 0.24173981 0.44803277 0.86071396 0
37.973301 51.005001 359.86099 0.66200352 0.18879049 0.72533405 0
37.975899 51.6422 359.677 0.63699889 0.26544622 0.72372007 0
37.989899 52.692501 359.27499 0.8218739 0.28028265 0.49594852 0
38.022301 53.480202 358.71301 0.9312619 0.22870205 0.28363115 0
38.073101 -14.8874 382.06201 0.62325728 0.30430663 0.72038037 0
38.080101 -14.3607 381.79099 0.5543099 0.45058268 0.69979697 0
38.103699 53.406101 358.05801 0.91555798 0.39545882 -0.073252097 0
38.113899 53.1236 358.76901 0.84014374 0.27833584 0.4654972 0
38.189602 52.0919 359.27399 0.83651197 0.27718747 0.47266778 0
38.230701 -14.2072 381.54199 0.67499828 0.31115976 0.66899693 0
38.2314 -12.9369 380.91901 0.28054616 0.48386753 0.82895482 0
38.236599 -12.0343 380.39401 0.27761891 0.46972013 0.83802789 0
38.2411 49.994499 359.91199 0.56395924 0.19891638 0.80148751 0
38.3549 51.493301 359.27701 0.77051955 0.24437697 0.58871001 0
38.394501 -13.2372 380.95499 0.54464525 0.25163659 0.80002534 0
38.398399 52.241402 358.73099 0.90910459 0.32542002 0.26005903 0
38.4063 -13.6843 381.14001 0.76534009 0.086763561 0.63775128 0
38.406399 51.154202 359.34799 0.71608102 0.26897174 0.64411348 0
38.427101 -13.0831 380.85901 0.72097486 0.40564859 0.56182247 0
38.4282 51.688999 359.04999 0.88270259 0.23838292 0.4049812 0
38.431099 -11.9606 380.26099 0.43501902 0.60865253 0.66355151 0
38.439602 50.890598 359.42099 0.70680887 0.24404727 0.66397452 0
38.461498 -10.6847 379.513 0.46955782 0.41618258 0.7786575 0
38.470901 52.261299 358.32001 0.95326936 0.2952162 0.064225413 0
38.480598 49.5979 359.832 0.53529119 0.24326833 0.80887818 0
38.481201 -12.4843 380.51099 0.72170538 0.28920776 0.62888807 0
38.517101 -12.2562 380.35599 0.2523942 0.15616329 0.9549399 0
38.5303 -11.213 379.78 0.4562895 0.31616053 0.83177066 0
38.534199 50.237 359.55399 0.72514594 0.22605348 0.65043306 0
38.550201 50.5923 359.38699 0.85223371 0.24688374 0.46124411 0
38.5965 51.792099 358.302 0.97061265 0.24052288 0.0077367024 0
38.6343 51.5107 358.647 0.94151914 0.24189234 0.23458432 0
38.681702 -10.1644 379.142 0.44554353 0.3693217 0.81553203 0
38.719799 50.293301 359.27701 0.84172523 0.28950483 0.4557254 0
38.829601 -10.2348 379.103 0.41099396 0.23587456 0.88059479 0
38.833199 50.967098 358.15201 0.95431352 0.29637295 0.038062345 0
38.855301 50.6675 358.75101 0.84826636 0.4028888 0.34369284 0
38.9641 49.691898 359.20001 0.83734661 0.30074474 0.45651203 0
39.0047 -10.8324 379.07199 0.78862476 0.19341907 0.5836609 0
39.0107 50.440899 358.52499 0.9641791 0.26178649 0.042737458 0
39.0205 49.3923 359.27499 0.88986075 0.2495022 0.38196397 0
39.0411 50.067299 358.75101 0.89096576 0.25904706 0.37292716 0
39.060501 47.4048 359.98001 0.58445978 0.25436318 0.77052325 0
39.061401 -9.4836302 378.694 0.21755618 0.28547978 0.93336523 0
39.083302 48.642601 359.53799 0.72743917 0.26236603 0.63403183 0
39.093601 48.191601 359.72198 0.64697814 0.22894414 0.72732651 0
39.114899 49.092201 359.27499 0.81289768 0.22605783 0.53674507 0
39.125198 -9.9333496 378.78 0.41609463 0.37014762 0.8305757 0
39.286701 49.4296 358.53601 0.93667316 0.30882123 0.16514489 0
39.310398 46.973499 359.92499 0.66999227 0.24042514 0.70235753 0
39.326401 48.231098 359.353 0.85897249 0.31029519 0.40728757 0
39.394199 48.941799 358.75101 0.93858075 0.28718698 0.19128448 0
39.433498 -9.7806196 378.58701 0.27886543 0.20100319 0.93905902 0
39.535099 46.393299 359.89499 0.66063756 0.18940419 0.72641867 0
39.580799 47.893101 359.052 0.88843608 0.2990514 0.34820914 0
39.586899 48.191299 358.78699 0.88014549 0.39388567 0.26494914 0
39.603802 48.3428 358.564 0.96399367 0.24668586 0.099309094 0
39.616199 47.2897 359.42099 0.77219635 0.28848946 0.56611544 0
39.628101 45.660099 360.07501 0.62444502 0.2332048 0.74544215 0
39.660099 45.081299 360.20801 0.57609391 0.19202764 0.79450691 0
39.6633 -10.2627 378.02701 0.44454318 -0.56751448 0.69304311 0
39.664902 47.4813 359.16501 0.91644788 0.28089854 0.28498989 0
39.673401 46.092499 359.86401 0.63968468 0.29802987 0.70850664 0
39.7085 47.7785 358.75 0.93290651 0.2450287 0.26390597 0
39.735699 -10.4069 377.79999 0.4720605 -0.66065562 0.58368915 0
39.735699 44.442402 360.314 0.56847882 0.23115231 0.7895571 0
39.736401 44.142601 360.38901 0.51038462 0.16164918 0.84461653 0
39.800201 -10.8078 377.32599 0.53747332 -0.55395001 0.63581586 0
39.811199 43.467499 360.508 0.54502439 0.20181142 0.81376934 0
39.848801 46.241798 359.55499 0.80113441 0.2747643 0.53168434 0
39.858299 47.292599 358.63901 0.94910878 0.30843261 0.063732646 0
39.8951 46.840599 359.12399 0.92524546 0.29207736 0.24209838 0
39.922699 46.543701 359.27802 0.92145753 0.26622069 0.28291804 0
39.958302 45.193802 359.879 0.7772097 0.28582308 0.56058031 0
40.024799 46.6931 358.60199 0.96497554 0.25136054 0.075100645 0
40.030201 44.6675 359.98801 0.6912998 0.21091518 0.69110012 0
40.0326 -11.3534 376.77399 0.59031427 -0.43380404 0.68069309 0
40.0327 -10.7474 377.21201 0.41987249 -0.59472007 0.6855765 0
40.0354 42.792198 360.56 0.52650243 0.24017711 0.81554282 0
40.099602 45.941898 359.27499 0.90168732 0.2776486 0.33146822 0
40.178699 46.1674 358.75101 0.93506283 0.28549466 0.21011977 0
40.199501 44.348701 359.91199 0.69812453 0.23246205 0.67718798 0
40.231098 43.879799 360.043 0.67806339 0.25085133 0.69087166 0
40.234699 45.942101 358.63901 0.98992878 0.13913172 0.026141176 0
40.237099 45.642799 359.12601 0.95200688 0.23375903 0.19758445 0
40.240002 43.5243 360.16 0.6280762 0.28996742 0.72210747 0
40.243099 -10.5092 377.35101 0.37064132 -0.69829106 0.61238432 0
40.2589 45.344101 359.27802 0.90797395 0.21289107 0.36091653 0
40.2603 -10.091 377.836 0.37755483 -0.68791544 0.61985856 0
40.263401 -9.6333799 378.32501 0.35581356 -0.44290438 0.8229413 0
40.269402 44.590599 359.72101 0.82515353 0.28079402 0.49017996 0
40.378899 44.058102 359.78201 0.83428329 0.23133276 0.50045633 0
40.403801 42.885502 360.25101 0.69057047 0.2230116 0.68802488 0
40.423801 43.693901 359.87799 0.85211223 0.19696485 0.48488098 0
40.4408 44.742298 359.276 0.93972361 0.24291919 0.24064448 0
40.456699 45.0411 358.677 0.9538312 0.29732221 0.042491518 0
40.4804 41.7407 360.55801 0.63909674 0.21979815 0.73705101 0
40.519699 44.3671 359.35001 0.86591595 0.22230898 0.44807169 0
40.5233 -11.1103 376.67499 0.40091985 -0.65868318 0.63671011 0
40.6119 44.443199 358.67599 0.97241068 0.23301893 0.010936736 0
40.639999 41.143799 360.58899 0.52330995 0.19525278 0.82947159 0
40.675598 42.942001 359.875 0.81683832 0.3265 0.4755764 0
40.704601 43.786701 359.23901 0.92666692 0.29261488 0.2359343 0
40.768799 43.765099 358.75201 0.96710378 0.23779988 0.09034121 0
40.790199 42.4547 359.95001 0.84953481 0.29096392 0.44003475 0
40.8018 43.393101 359.27701 0.96650153 0.24003899 0.090862967 0
40.842201 -10.2535 377.31799 0.35456824 -0.69716311 0.62309301 0
40.843201 40.8055 360.52301 0.57189804 0.2447667 0.78295714 0
40.883598 43.018101 359.35199 0.93201011 0.25091687 0.26152992 0
40.9044 41.591702 360.18201 0.74688417 0.20935814 0.63113648 0
40.9104 42.062 359.952 0.79479021 0.28745359 0.53448945 0
40.9324 -9.0278301 378.435 0.39138642 -0.331065 0.85861087 0
41.059399 40.430302 360.44101 0.7593593 0.26284605 0.59521884 0
41.078499 42.304798 359.35101 0.94392252 0.23437312 0.23255011 0
41.1423 -11.0408 376.45999 0.30434904 -0.72231638 0.62099171 0
41.151699 -9.5683603 377.883 0.39128602 -0.59841263 0.69914061 0
41.152802 41.442001 359.875 0.83308554 0.23838007 0.49914271 0
41.1675 39.924 360.513 0.77732992 0.23970528 0.58163524 0
41.1987 -9.8963404 377.513 0.34918845 -0.68503636 0.63936895 0
41.268799 41.743 359.23901 0.94974488 0.25844029 0.1766163 0
41.272701 40.992699 359.87601 0.90811574 0.27755275 0.31351274 0
41.331799 -10.7583 376.63699 0.31282875 -0.70618421 0.63517088 0
41.375801 40.430698 359.952 0.82514888 0.22832613 0.51671702 0
41.4007 39.192001 360.49301 0.80230719 0.23493582 0.54873341 0
41.4338 38.3675 360.79501 0.67208195 0.21897464 0.70735848 0
41.4361 40.091499 360.02399 0.82423234 0.24805152 0.50902998 0
41.457199 -9.1018295 378.10101 0.5062471 -0.46473414 0.72645444 0
41.4702 38.5933 360.668 0.67196077 0.23186138 0.70335555 0
41.475498 40.317402 359.80099 0.93065333 0.23668176 0.27904499 0
41.486198 40.843102 359.22 0.96011382 0.27899534 0.018521817 0
41.494999 37.3932 361.09201 0.60869509 0.28326139 0.74111623 0
41.532001 -8.7293596 378.203 0.36998221 -0.11596669 0.92177266 0
41.5345 -8.2838898 378.16101 0.47750026 0.070514016 0.87579751 0
41.561298 39.848701 359.91299 0.92757291 0.24562995 0.28155711 0
41.612999 -9.6325102 377.57401 0.37475687 -0.58654678 0.71799731 0
41.617401 40.204201 359.35101 0.94721413 0.22387818 0.22948636 0
41.654301 38.442902 360.47601 0.85372937 0.25790277 0.45236301 0
41.674999 39.9422 359.202 0.98158443 0.1863472 -0.042032629 0
41.675201 -9.0985003 377.92999 0.51283205 -0.46607369 0.72095674 0
41.707298 39.193001 359.952 0.93565625 0.15353866 0.31776285 0
41.733002 36.68 361.10501 0.72299802 0.24933138 0.64428854 0
41.767399 37.917801 360.55099 0.86063027 0.28272384 0.423536 0
41.771999 38.892899 359.95099 0.93309677 0.201453 0.29790455 0
41.8148 39.2682 359.35101 0.98116714 0.19277781 0.012155208 0
41.818699 -10.4547 376.75 0.29163146 -0.66013491 0.69222319 0
41.8321 -8.6551199 377.98499 0.58436495 -0.124419 0.80189621 0
41.8353 -8.0578299 377.974 0.55816048 0.038296822 0.82884878 0
41.904301 36.0793 361.155 0.64669639 0.2124963 0.73254973 0
41.9286 38.592701 359.314 0.97917533 0.19652514 -0.050927013 0
41.9422 38.180199 359.95099 0.90432715 0.3512786 0.24247834 0
41.950699 -10.2333 376.896 0.29871446 -0.59248966 0.7481482 0
41.963799 37.430199 360.43799 0.90450513 0.25564054 0.34134796 0
41.9744 38.293499 359.276 0.96846431 0.086124964 -0.23379348 0
41.990002 -9.7095699 377.297 0.45758605 -0.45724875 0.76258677 0
42.001701 35.292 361.358 0.58819735 0.26841244 0.76287526 0
42.010899 37.841499 360.02499 0.90733004 0.25069597 0.33749622 0
42.0172 37.0546 360.54999 0.87105596 0.20365328 0.44697523 0
42.029099 37.993198 359.276 0.9758662 0.1289407 -0.17623706 0
42.044201 34.391998 361.64001 0.64123994 0.33148661 0.69204623 0
42.060799 36.1912 360.922 0.75729591 0.29460061 0.58284938 0
42.062901 37.879299 359.78201 0.96442032 0.25021979 0.085343465 0
42.07 -8.5059099 377.79001 0.57303512 0.019992031 0.81928694 0
42.086601 37.5425 359.18399 0.97682577 0.085488155 -0.19622219 0
42.088001 35.743099 361.077 0.82215381 0.23039228 0.52055985 0
42.1026 37.4114 360.10101 0.92231464 0.23176262 0.30922779 0
42.126499 -8.2821999 377.776 0.56395459 0.040356189 0.82481915 0
42.1479 37.5424 359.80099 0.99111539 0.090882145 0.097111836 0
42.209702 -9.7792997 377.12399 0.39031798 -0.46715721 0.79335743 0
42.2122 -7.7193599 377.70099 0.50310242 0.2413124 0.82985318 0
42.213902 -9.1831198 377.38699 0.58176404 -0.35719296 0.73072827 0
42.235901 35.348598 361.03799 0.82038224 0.24901243 0.51474828 0
42.274899 36.491299 360.32401 0.92566448 0.19509381 0.32416606 0
42.283798 36.642601 359.35199 0.9276216 0.27691442 -0.25067225 0
42.302299 36.7915 359.923 0.95851439 0.25619861 0.12494994 0
42.4067 36.051998 359.39001 0.96208102 0.17851581 -0.20623349 0
42.4217 36.305199 359.802 0.96893638 0.24723312 0.0061712116 0
42.4352 35.554298 360.54999 0.88171607 0.35418564 0.31165576 0
42.459499 35.592602 359.27802 0.96417505 0.16239232 -0.20975046 0
42.464401 33.004101 361.767 0.62619042 0.25232327 0.73771167 0
42.5023 35.292999 359.27701 0.96878904 0.13321076 -0.209052 0
42.5331 34.392101 361.07501 0.80344546 0.33084545 0.4949916 0
42.558899 35.2925 359.42801 0.96878904 0.13321076 -0.209052 0
42.584999 35.5923 359.802 0.96417505 0.16239232 -0.20975046 0
42.607899 34.805401 360.664 0.88798171 0.28218624 0.36312455 0
42.629002 33.909901 361.146 0.88386488 0.23248915 0.40587151 0
42.629902 34.467098 360.85001 0.92958039 0.19106892 0.31523484 0
42.635502 35.367199 359.95099 0.97414792 0.22590156 -0.0020890331 0
42.638699 32.170502 361.93799 0.64511466 0.23015909 0.72859722 0
42.6413 33.267502 361.45001 0.7292558 0.3109538 0.60950291 0
42.652802 32.891998 361.61801 0.83190644 0.22663447 0.50652593 0
42.667801 34.9366 360.401 0.9612993 0.19474281 0.19488169 0
42.710098 -8.3197298 377.14001 0.72797525 -0.15298106 0.66831791 0
42.727901 -10.0012 376.672 0.53592849 -0.34748909 0.76943612 0
42.7314 -9.49862 376.836 0.6120894 -0.23985308 0.7535364 0
42.737598 -7.6066699 377.29001 0.56705105 0.03591229 0.8228994 0
42.783001 34.542198 360.27899 0.96567261 0.14852294 0.21311338 0
42.8479 33.343102 361.077 0.88404334 0.25634763 0.3908366 0
42.883499 31.991699 361.74799 0.7776472 0.27017361 0.56768918 0
42.925201 -9.0410404 376.758 0.70705283 -0.15124974 0.69079655 0
42.964298 33.642799 360.53299 0.9249571 0.34798992 0.15283111 0
43.0117 -8.5068102 376.75699 0.72217453 -0.11964184 0.68128544 0
43.038399 -6.4061699 376.75101 0.51641059 0.25479922 0.81755579 0
43.062698 32.854599 360.888 0.94029558 0.23571168 0.24552837 0
43.087399 33.118 360.55099 0.97815716 0.19087587 0.082310274 0
43.136902 31.691299 361.52301 0.87390119 0.25181475 0.41579568 0
43.138199 32.892601 360.55099 0.98150307 0.18428196 -0.051883511 0
43.154099 32.293301 361.077 0.95630854 0.19793999 0.2151597 0
43.172001 30.042299 362.27499 0.70709318 0.34434161 0.61761481 0
43.2066 31.6926 361.37601 0.87390119 0.25181475 0.41579568 0
43.207401 -8.1789198 376.621 0.73652065 -0.19057202 0.64901435 0
43.210999 29.591801 362.42401 0.6649791 0.23631458 0.70849013 0
43.229698 -6.5568099 376.67899 0.51641059 0.25479922 0.81755579 0
43.230801 32.367401 360.51401 0.98280346 0.18179572 0.032367345 0
43.233002 -7.3066702 376.836 0.67516989 0.093549386 0.73170632 0
43.236 32.067299 361.00101 0.96679062 0.16623011 0.19412214 0
43.241001 30.1915 362.12299 0.70709318 0.34434161 0.61761481 0
43.249699 29.292299 362.505 0.66816157 0.24996756 0.70076841 0
43.262299 -4.6819601 375.772 0.49826115 0.40944633 0.76425749 0
43.279499 29.7423 362.27499 0.7851789 0.24871117 0.56713039 0
43.2869 -9.0494804 376.40302 0.71650851 -0.16769129 0.67712271 0
43.308498 28.391399 362.811 0.65664214 0.32209861 0.68196303 0
43.320999 30.7925 361.67599 0.84013444 0.31298551 0.44296068 0
43.371399 -7.1572199 376.69101 0.73770082 0.16063675 0.65573871 0
43.373402 -3.7079301 375.22198 0.47322077 0.26047325 0.8415556 0
43.3969 31.2808 361.11401 0.94283009 0.23973912 0.23150939 0
43.3969 28.016701 362.86401 0.72613573 0.28186449 0.62711984 0
43.3969 31.2808 361.11401 0.94283009 0.23973912 0.23150939 0
43.3969 28.016701 362.86401 0.72613573 0.28186449 0.62711984 0
43.409698 -3.3712299 375.035 0.5928688 0.36146533 0.71961755 0
43.414902 -7.5307002 376.59698 0.79534739 -0.14734048 0.58797389 0
43.469299 30.042299 361.78799 0.88752222 0.30819485 0.34252039 0
43.478199 29.2549 362.20001 0.84613717 0.24326661 0.474208 0
43.484501 -8.8054504 376.21799 0.80078143 -0.078158557 0.59383529 0
43.523602 27.511 362.90799 0.72831631 0.20810071 0.65287781 0
43.529701 26.403601 363.28 0.68925035 0.21562433 0.69169366 0
43.536999 30.6422 361.039 0.9812277 0.17263697 0.08595714 0
43.557301 -4.7580199 375.58099 0.63974988 0.34859112 0.68498492 0
43.581299 25.692801 363.48199 0.65896338 0.22443053 0.71791238 0
43.5984 29.5924 361.75101 0.92173094 0.254004 0.2930769 0
43.605701 -3.50226 374.95099 0.5928688 0.36146533 0.71961755 0
43.6082 -8.4506302 376.11499 0.90209788 -0.22026058 0.37108582 0
43.610199 -2.11396 374.32401 0.51292098 0.34616613 0.78554511 0
43.6334 26.968201 362.961 0.73098499 0.24336365 0.63752264 0
43.6567 28.636 362.23801 0.90481007 0.26157808 0.33599943 0
43.664101 -6.2568002 376.077 0.77109176 0.234749 0.59187025 0
43.6744 29.292801 361.75101 0.94868821 0.22516985 0.22201174 0
43.689899 -8.0581102 376.082 0.90748441 -0.13163371 0.39892936 0
43.6973 29.7052 361.00201 0.98551226 0.1695815 -0.0027791874 0
43.730999 28.167801 362.35101 0.81235021 0.25636396 0.52379835 0
43.7645 -7.0443501 376.14999 0.85243756 0.0098126186 0.52273697 0
43.790401 -7.7377501 376 0.91657633 -0.095378213 0.38831797 0
43.814301 26.592899 362.87601 0.82709503 0.23660208 0.50983649 0
43.825199 -6.7821398 376 0.86760551 0.10682484 0.48564303 0
43.8302 -2.39552 374.29199 0.65619886 0.28567412 0.69842207 0
43.832901 24.0413 363.832 0.6564343 0.28224194 0.69959527 0
43.8396 28.0179 362.20099 0.93643987 0.18774804 0.29636303 0
43.840099 28.467199 361.901 0.91271877 0.25172111 0.32183993 0
43.841301 28.8423 361.526 0.97708398 0.21161547 -0.022928778 0
43.841499 -1.7955199 374.02301 0.64296049 0.33292961 0.68975329 0
43.842999 -8.5051203 375.62601 0.91987586 -0.22042081 0.32441184 0
43.850498 -7.3064799 375.99799 0.8910082 -0.035934448 0.45256284 0
43.8549 -8.0566301 375.77701 0.93351495 -0.16737397 0.31707385 0
43.855499 -5.0952001 375.362 0.76689094 0.22892009 0.59956139 0
43.857201 -0.59765601 373.452 0.50949049 0.36874411 0.77746207 0
43.860802 2.6289799 371.995 0.48485079 0.33058926 0.80971009 0
43.862 21.6052 364.66 0.61144722 0.30414933 0.7304967 0
43.862202 -3.8017499 374.84601 0.68670315 0.27039927 0.67477626 0
43.867699 27.1922 362.53699 0.84895426 0.22814901 0.4766809 0
43.870201 22.3547 364.40302 0.63162303 0.21083404 0.74605721 0
43.8736 -3.3327799 374.63501 0.66136378 0.38763317 0.64213586 0
43.884201 25.991899 363.02399 0.77225059 0.19897732 0.60335481 0
43.8848 28.5425 361.63901 0.98124582 0.1707475 0.08945325 0
43.889599 -5.73212 375.55099 0.77992117 0.21913368 0.58626223 0
43.8936 23.592501 363.93799 0.7423414 0.23783834 0.62638825 0
43.899799 2.25529 372.14001 0.48351574 0.32890424 0.81119329 0
43.901199 26.2922 362.875 0.82709503 0.23660208 0.50983649 0
43.908501 25.261101 363.259 0.79684311 0.21185121 0.56582689 0
43.929298 -4.6817598 375.10199 0.80080837 0.21751499 0.55802613 0
43.936699 17.5926 366.00699 0.51350582 0.29263085 0.80664676 0
43.936901 0.042758901 373.11099 0.59271997 0.37842935 0.71096712 0
43.937401 -1.15688 373.647 0.6218031 0.33247143 0.7091006 0
43.9562 -6.4819999 375.70099 0.8646394 0.11440759 0.48919275 0
43.9702 -4.2982402 374.89301 0.81887078 0.20325539 0.53678471 0
43.973598 14.0858 367.27701 0.48413631 0.2686111 0.83274251 0
43.974899 14.5369 367.10101 0.49231443 0.33627412 0.80283636 0
43.988499 24.267 363.54901 0.84599638 0.19583912 0.49592057 0
43.995602 -2.5826299 374.19901 0.68628466 0.27079442 0.67504352 0
44.009899 0.75425702 372.73099 0.64637607 0.30471033 0.69953525 0
44.010399 16.391899 366.39301 0.5357573 0.29086795 0.79269159 0
44.010601 15.8295 366.59698 0.53710455 0.28503579 0.79389757 0
44.023499 27.6052 361.75101 0.96985984 0.23999882 0.04210015 0
44.023998 1.49467 372.392 0.55611968 0.38848171 0.73471957 0
44.029099 -1.64494 373.77499 0.67343432 0.23811948 0.69984668 0
44.036598 27.0051 362.23801 0.94819808 0.21934341 0.22980177 0
44.046101 -6.25737 375.47501 0.88363725 0.15524483 0.44168347 0
44.0462 19.091299 365.39001 0.67813635 0.26805016 0.68431002 0
44.057301 27.3053 361.60199 0.9887144 0.10503788 -0.10682167 0
44.060001 24.6049 363.28799 0.84975052 0.18295489 0.49442038 0
44.079601 26.742701 362.276 0.95319104 0.12840149 0.27375147 0
44.080601 25.5429 362.85699 0.90895331 0.20049039 0.36552358 0
44.085098 -7.3064098 375.47601 0.97679442 -0.11257364 0.18220811 0
44.1063 -7.0065498 375.47601 0.97773015 0.085485101 0.19166656 0
44.127399 26.368 362.35101 0.95934629 0.073857293 0.27239636 0
44.143501 0.867226 372.57001 0.68916911 0.29250428 0.6629383 0
44.144798 23.6679 363.55099 0.83073026 0.22667661 0.50843376 0
44.163502 -3.5578301 374.349 0.81630492 0.20834956 0.53873622 0
44.166 -5.0574098 374.875 0.89716738 -0.014776116 0.4414435 0
44.167 26.4429 361.677 0.97681993 0.19493797 -0.088441841 0
44.168999 22.3925 364.07501 0.77924007 0.22302939 0.58569854 0
44.194801 -0.521236 373.11099 0.70359051 0.27388349 0.65570438 0
44.201698 24.792999 362.95099 0.92418414 0.21195132 0.31774253 0
44.230099 20.6856 364.633 0.72265089 0.26829147 0.63702071 0
44.236198 3.4923401 371.366 0.58866149 0.31950766 0.74255812 0
44.241901 2.0869901 371.952 0.65567863 0.32151076 0.68316644 0
44.260201 -5.9566998 374.87601 0.97944134 -0.083304174 0.18372555 0
44.269901 21.792601 364.14999 0.77217764 0.19946618 0.60328674 0
44.2766 25.5431 362.27701 0.99294806 0.080461472 0.087063618 0
44.285301 6.4352498 370.09799 0.5899269 0.31211269 0.7446959 0
44.2869 -2.2074399 373.67499 0.7962938 0.25431103 0.54885525 0
44.3097 25.1674 362.35101 0.9835158 0.17513813 0.044981442 0
44.313801 9.4927702 368.888 0.56478631 0.37029088 0.7374965 0
44.341099 23.142401 363.47501 0.91154337 0.24579518 0.32965651 0
44.341702 -3.9323201 374.20001 0.90218318 0.14133768 0.40754038 0
44.347401 24.0609 362.95001 0.92454588 0.26051217 0.27811572 0
44.358101 -0.99846298 373.09299 0.77536029 0.19542351 0.6005215 0
44.365299 -4.5321498 374.35001 0.92764634 0.087319471 0.36310828 0
44.368999 -2.7327199 373.74899 0.80934137 0.18869594 0.55620176 0
44.375702 16.7108 365.99399 0.64146215 0.25271407 0.72433549 0
44.378601 17.141701 365.819 0.69442362 0.3263582 0.64130032 0
44.382198 13.8406 367.11301 0.49122161 0.31508711 0.81204766 0
44.4007 0.0232697 372.62601 0.72990078 0.27848959 0.62425029 0
44.4011 -0.707977 372.92401 0.84256339 0.1588126 0.51465088 0
44.403301 14.1407 366.978 0.54305279 0.3165009 0.77776659 0
44.404099 -5.0568399 374.27701 0.97392625 -0.034245268 0.22426519 0
44.4044 1.3164099 372.09799 0.71412021 0.23237872 0.66032749 0
44.406101 15.1721 366.54501 0.61948067 0.29221329 0.728598 0
44.408199 23.5182 363.10199 0.91238326 0.18502811 0.36513203 0
44.408798 1.84267 371.875 0.66248107 0.30177405 0.68560284 0
44.408798 -4.7568498 374.276 0.97392625 -0.034245268 0.22426519 0
44.408798 1.84267 371.875 0.66248107 0.30177405 0.68560284 0
44.408798 -4.7568498 374.276 0.97392625 -0.034245268 0.22426519 0
44.408798 1.84267 371.875 0.66248107 0.30177405 0.68560284 0
44.409901 9.17167 368.94901 0.57158226 0.29088393 0.76725507 0
44.412399 20.217199 364.60001 0.83606082 0.21519609 0.50467116 0
44.418301 -3.4823301 373.89999 0.89501125 0.093829691 0.43606296 0
44.418999 24.2661 362.35199 0.99461174 0.077358015 0.069016479 0
44.4245 22.319099 363.70401 0.84739923 0.20908129 0.48805696 0
44.428299 17.8172 365.49899 0.66368407 0.25794256 0.70213181 0
44.429199 3.8669701 371.03699 0.6674518 0.37159759 0.64530867 0
44.430801 -3.21978 373.78799 0.85678113 0.14677459 0.49435142 0
44.435501 -0.36969399 372.73801 0.78168517 0.23487346 0.57775664 0
44.4361 21.436199 364.03799 0.85872215 0.11745126 0.49880007 0
44.439098 10.3546 368.44 0.60458112 0.24406821 0.75822973 0
44.4394 11.555 367.966 0.59093273 0.27305433 0.75910467 0
44.4398 24.0986 362.595 0.99461174 0.077358015 0.069016479 0
44.439899 8.4422798 369.20599 0.60551977 0.25636759 0.75340658 0
44.440399 6.0050502 370.13901 0.5839361 0.26355922 0.76782501 0
44.440399 22.9163 363.39801 0.93725246 0.18000109 0.29859245 0
44.440399 6.0050502 370.13901 0.5839361 0.26355922 0.76782501 0
44.440399 22.9163 363.39801 0.93725246 0.18000109 0.29859245 0
44.444901 12.3605 367.63199 0.56721276 0.3076553 0.76394892 0
44.446301 23.817801 362.80099 0.99520278 0.059838139 0.077400662 0
44.4491 -2.11321 373.37601 0.9090488 0.099484995 0.40463936 0
44.4533 12.7915 367.44901 0.64159846 0.27032652 0.71782655 0
44.457901 -3.7822199 373.89999 0.89501125 0.093829691 0.43606296 0
44.460701 4.50459 370.72198 0.69681388 0.31646371 0.64366227 0
44.460899 19.373199 364.84201 0.72880352 0.21363658 0.65054196 0
44.460899 14.4427 366.789 0.68185425 0.31514698 0.66011906 0
44.460899 19.373199 364.84201 0.72880352 0.21363658 0.65054196 0
44.460899 14.4427 366.789 0.68185425 0.31514698 0.66011906 0
44.460899 19.373199 364.84201 0.72880352 0.21363658 0.65054196 0
44.464298 3.0413001 371.33899 0.76120329 0.32413206 0.561701 0
44.479401 -2.8824 373.60001 0.93942213 0.10340837 0.32679164 0
44.480701 16.389999 366.022 0.65620273 0.25669169 0.70958251 0
44.481602 21.7918 363.811 0.88105965 0.16320692 0.44395655 0
44.483601 19.7579 364.65601 0.87552464 0.1813121 0.44786441 0
44.489899 19.036301 364.93799 0.77638406 0.16282231 0.60886508 0
44.491402 7.2424998 369.642 0.59004039 0.21216826 0.77899742 0
44.4967 13.6935 367.064 0.70448685 0.25639749 0.66178441 0
44.5033 22.6178 363.401 0.95682192 0.17369735 0.23306865 0
44.510799 10.8048 368.19101 0.67113411 0.31941402 0.66899455 0
44.5126 20.554501 364.29901 0.88438976 0.24027586 0.40015274 0
44.5196 18.285 365.19699 0.84794676 0.20195474 0.49010262 0
44.531399 5.3008399 370.32401 0.63139558 0.20401885 0.74814165 0
44.534599 0.32396299 372.32599 0.85076803 0.17983159 0.49381611 0
44.5387 1.61761 371.79999 0.78484887 0.2578623 0.56348848 0
44.542801 2.6859701 371.38699 0.7601313 0.25018424 0.59967345 0
44.5495 22.055599 363.552 0.95886928 0.15306273 0.23904294 0
44.5508 23.105101 362.83899 0.98755342 0.15241982 0.038812947 0
44.5634 16.806999 365.75299 0.77449775 0.26027116 0.57655197 0
44.568199 -1.68277 372.99899 0.92279625 0.16691533 0.3472555 0
44.576302 9.6426201 368.60199 0.75067174 0.21336536 0.6252737 0
44.583302 15.6428 366.17599 0.7147159 0.23311959 0.65942127 0
44.584702 -0.257664 372.47501 0.85119456 0.18464142 0.49129966 0
44.587299 -2.2441599 373.15201 0.92488599 0.090683602 0.3692728 0
44.604801 0.69446599 372.064 0.79013497 0.21307114 0.57470638 0
44.6152 11.7431 367.70901 0.69770795 0.25516272 0.66939944 0
44.618 20.591999 364.07401 0.88438976 0.24027586 0.40015274 0
44.624001 22.505501 362.802 0.99047232 0.1366556 0.017023174 0
44.631001 1.09189 371.87399 0.85358369 0.20740011 0.47789127 0
44.634899 17.7423 365.25601 0.85828608 0.22016293 0.46354425 0
44.646099 10.2422 368.27399 0.770401 0.24661595 0.58793098 0
44.653 12.8866 367.189 0.74652022 0.22694045 0.62546426 0
44.653702 -2.6321599 372.97299 0.9931863 0.056985609 0.10165456 0
44.659302 14.8166 366.39801 0.7935254 0.24542971 0.55684984 0
44.673199 21.492701 363.47601 0.97382921 0.032679435 0.22491935 0
44.677601 19.993 364.189 0.87605727 0.16850202 0.4518083 0
44.682598 6.9233198 369.54901 0.76600516 0.18733124 0.61493343 0
44.687599 7.3171101 369.39899 0.79656214 0.20821239 0.56757063 0
44.688702 16.260599 365.798 0.82746834 0.23297499 0.51089996 0
44.710098 18.848801 364.638 0.87132037 0.20629993 0.44524282 0
44.720901 5.5173602 370 0.82055014 0.24416977 0.51679641 0
44.736801 7.9169898 369.099 0.77122438 0.24355151 0.58812892 0
44.742401 15.6427 365.95099 0.84761846 0.20408526 0.48978788 0
44.747501 19.693001 364.151 0.90489542 0.21221678 0.36895567 0
44.7519 -1.08204 372.401 0.95208889 0.16164546 0.25961033 0
44.757099 6.5390501 369.57199 0.75017267 0.1650105 0.64032215 0
44.758099 8.4939499 368.83801 0.78599876 0.23072636 0.57356018 0
44.761501 -1.75673 372.47699 0.99075663 0.0042935167 0.13558337 0
44.768902 9.7728701 368.311 0.779854 0.25797343 0.57033098 0
44.795101 3.7172599 370.599 0.85839885 0.20914155 0.46841356 0
44.795601 20.4053 363.55099 0.94933873 0.2764385 0.1494581 0
44.803799 11.0666 367.74799 0.75539935 0.23535044 0.61154068 0
44.8074 -0.031986199 371.95099 0.9657737 -0.052585628 0.25399983 0
44.818001 0.417629 371.79999 0.93365294 0.077948444 0.34959438 0
44.823002 18.4928 364.56299 0.90961045 0.16422504 0.38162673 0
44.823601 16.9928 365.276 0.81031913 0.33321059 0.48203072 0
44.8256 20.142599 363.58899 0.98058647 0.16022922 0.11303414 0
44.827999 5.0297899 370.03699 0.83166915 0.21319959 0.51271075 0
44.848499 1.91763 371.20001 0.9323169 0.094186917 0.34916189 0
44.875198 12.5678 367.00101 0.82415766 0.16546263 0.54165143 0
44.8787 14.2592 366.29599 0.81558675 0.22517203 0.53302521 0
44.894299 16.6933 365.27701 0.88881838 0.16411941 0.42786294 0
44.8955 0.98031598 371.388 0.8988806 0.20375545 0.38793996 0
44.905399 17.8929 364.67599 0.91358995 0.19123191 0.35886452 0
44.908401 10.5797 367.78699 0.77377957 0.20337562 0.59991962 0
44.914001 2.7427199 370.75101 0.90904766 0.095945224 0.40549579 0
44.914101 3.11746 370.60001 0.94449824 0.15944326 0.28722966 0
44.918999 1.31791 371.20099 0.99192154 -0.0056537599 0.12672687 0
44.935001 13.7865 366.41 0.84852231 0.1891316 0.49420559 0
44.9384 15.043 365.87601 0.85566884 0.21143231 0.47236347 0
44.945 7.9173398 368.79999 0.84215677 0.22344851 0.49075732 0
44.948399 4.6173 369.99899 0.94628727 0.083632037 0.31232363 0
44.968201 8.9629402 368.332 0.82851058 0.21800758 0.51579344 0
44.9818 1.43077 370.76099 0.98482388 -0.037910957 0.16936544 0
44.983299 9.4643297 368.116 0.8240782 0.20174845 0.52933228 0
45.000099 10.8048 367.56201 0.87034601 0.17634761 0.4597818 0
45.002602 4.3175802 370 0.95411688 0.13968943 0.26485428 0
45.006302 15.2293 365.64899 0.87544107 0.21890323 0.43091097 0
45.009399 16.092699 365.276 0.87239027 0.16484214 0.46017641 0
45.0107 17.2931 364.677 0.98135227 0.068503305 0.17959693 0
45.012199 7.6177402 368.80099 0.85867721 0.20223162 0.47093078 0
45.0158 1.84325 370.677 0.98412079 0.10963146 0.13959673 0
45.017799 16.992399 364.82501 0.93210763 0.14873827 0.33023062 0
45.021801 15.6432 365.427 0.87633586 0.18409856 0.4451327 0
45.0228 7.1676602 368.95001 0.87408185 0.16546792 0.45672888 0
45.026001 6.1548901 369.28699 0.86600524 0.17258224 0.46930829 0
45.027199 14.8176 365.80099 0.90053964 0.14104331 0.4112604 0
45.037498 13.2421 366.474 0.91818905 0.15522557 0.3644639 0
45.041 16.2421 365.12399 0.97787064 0.092637129 0.18758287 0
45.049801 3.64309 370.077 0.9666937 0.075951956 0.2444067 0
45.0518 3.0805099 370.189 0.95636672 0.073904358 0.2826674 0
45.054699 9.9807997 367.79001 0.80456918 0.22340281 0.55023599 0
45.055302 11.5554 367.151 0.86634976 0.22816113 0.44427541 0
45.068501 12.3429 366.776 0.85394096 0.14931117 0.49848875 0
45.073799 15.4552 365.35101 0.98648405 0.039767142 0.15895863 0
45.0742 5.5174198 369.39999 0.90726024 0.11242952 0.40526351 0
45.075699 5.0676198 369.54999 0.931566 0.1165693 0.34437832 0
45.091 10.3178 367.60101 0.90448439 0.16943412 0.39140779 0
45.109501 7.9179001 368.50101 0.88863015 0.15441211 0.43184879 0
45.1133 14.0676 365.95099 0.95333099 0.12727784 0.27378896 0
45.114899 12.6241 366.57001 0.93644452 0.14548878 0.31922516 0
45.137901 4.54318 369.47699 0.98491085 0.04345182 0.16751873 0
45.158901 8.4703903 368.181 0.93958884 0.17237242 0.29573736 0
45.159599 11.2931 367.077 0.94320989 0.032927096 0.33056152 0
45.167198 14.6679 365.35101 0.98798078 0.14952955 0.039177872 0
45.174 6.4931002 368.87601 0.95382732 0.10071585 0.28296599 0
45.194801 5.8179498 368.95099 0.99947149 0.012145804 0.030154141 0
45.199402 13.5433 365.87701 0.98400849 0.10723973 0.14222148 0
45.199699 7.9929399 368.276 0.95792514 0.054032035 0.28188646 0
45.223099 13.1679 365.87601 0.99699169 0.076924704 0.0094931843 0
45.227402 9.19312 367.75201 0.93865782 0.14125761 0.3145915 0
45.232201 12.2675 366.39999 0.91881788 0.24478 0.309607 0
45.239601 7.69314 368.27701 0.96428895 0.098456606 0.2458722 0
45.268002 7.1681299 368.276 0.98535204 -0.10667288 0.13304974 0
45.293098 10.3931 367.077 0.97470003 0.13260469 0.17993286 0
