# .PCD v0.7 - Point Cloud Data file format
VERSION 0.7
FIELDS x y z normal_x normal_y normal_z curvature
SIZE 4 4 4 4 4 4 4
TYPE F F F F F F F
COUNT 1 1 1 1 1 1 1
WIDTH 624
HEIGHT 1
VIEWPOINT 0 0 0 1 0 0 0
POINTS 624
DATA ascii
-36.551701 -2.07212 311.92899 -0.76249075 -0.64474082 0.054009948 0
-36.431801 -1.89957 311.33701 -0.80762261 -0.35600954 -0.47010949 0
-36.360699 -1.9043601 312.599 -0.76252204 -0.63556957 0.12087768 0
-36.2286 -0.70350099 311.854 -0.98463482 0.16050024 0.068803623 0
-36.202202 -0.55162603 311.92899 -0.94668883 0.29906103 0.11976122 0
-36.200401 -1.07653 311.328 -0.89445662 0.29451415 -0.33646515 0
-36.083401 -0.214277 311.24399 -0.98516792 0.16316247 -0.053123862 0
-36.063 -0.477406 310.582 -0.85098237 -0.071417838 -0.52031571 0
-36.0471 -1.0008 310.659 -0.87552023 -0.17065181 -0.45204237 0
-36.040401 -1.30198 310.76199 -0.93913543 -0.15236753 -0.30791032 0
-36.005699 0.42069399 311.254 -0.9630993 0.25876179 0.074040748 0
-36.003601 0.0427837 311.85001 -0.95488757 0.27622256 0.10904518 0
-35.9543 0.160267 310.504 -0.97648996 0.11890672 -0.17980133 0
-35.953098 0.40390399 310.86899 -0.93228513 0.34589744 -0.10582733 0
-35.952 -1.67854 310.89999 -0.48251495 -0.43928954 -0.75776255 0
-35.951698 -1.45272 310.79199 -0.38409624 -0.3503032 -0.8542586 0
-35.950401 -2.2251899 312.30301 -0.35321474 -0.85841745 0.37196612 0
-35.9459 -2.3678501 311.33301 -0.54585785 -0.7952891 0.26373178 0
-35.942902 -0.70064902 310.439 -0.85098237 -0.071417838 -0.52031571 0
-35.940899 -0.51349801 310.362 -0.85098237 -0.071417838 -0.52031571 0
-35.894299 0.61158401 310.65201 -0.97579348 0.17023711 -0.13728234 0
-35.847801 0.421444 310.16901 -0.95572215 0.10966939 -0.27307096 0
-35.815399 -0.84347302 310.198 -0.71605968 -0.23722032 -0.6564945 0
-35.748299 -0.477606 310.12 -0.7341311 -0.14171596 -0.66405433 0
-35.724701 1.17252 310.16699 -0.94988805 0.2353507 -0.20572497 0
-35.7234 -2.4853499 311.332 -0.30597934 -0.89838552 0.31508738 0
-35.651798 -2.30022 311.92999 -0.20380026 -0.95948434 0.19456428 0
-35.646702 1.47096 310.16699 -0.90122598 0.39589587 -0.17623317 0
-35.593102 1.58763 310.74899 -0.96158332 0.23715076 0.13826427 0
-35.573898 0.42552599 309.54001 -0.84646428 -0.15288788 -0.51002312 0
-35.572201 -2.4439299 311.621 -0.30597934 -0.89838552 0.31508738 0
-35.528 0.797382 309.45599 -0.89180779 -0.0082353735 -0.45233947 0
-35.5056 -1.86841 310.76099 -0.37743023 -0.38495678 -0.84223199 0
-35.441898 1.29459 309.32001 -0.89835918 -0.056035742 -0.43567282 0
-35.438801 2.06833 310.577 -0.92847079 0.34140572 0.14623311 0
-35.4347 -0.177572 309.509 -0.57984531 -0.2550447 -0.77377748 0
-35.429298 2.3735001 309.98001 -0.97160268 0.22646749 0.068561323 0
-35.398399 2.33426 309.604 -0.98289901 0.114225 -0.1444373 0
-35.392101 -0.92427301 309.94199 -0.54362357 -0.53803873 -0.64419538 0
-35.374298 -0.401907 309.51901 -0.43602908 -0.44791678 -0.78054416 0
-35.3717 1.24735 309.07999 -0.89835918 -0.056035742 -0.43567282 0
-35.3545 2.3338101 309.306 -0.98289901 0.114225 -0.1444373 0
-35.351799 -2.62361 311.32901 -0.13665055 -0.97511274 -0.1745903 0
-35.351601 -1.45356 310.52899 -0.43742743 -0.43884459 -0.78490299 0
-35.3494 2.6689999 309.978 -0.94718844 0.31753531 0.044781338 0
-35.336102 -0.53701401 309.608 -0.66621989 -0.43810925 -0.60349923 0
-35.326801 1.52867 308.96399 -0.91790742 -0.038175672 -0.39495397 0
-35.290901 1.92213 308.935 -0.92186761 0.088794224 -0.37719458 0
-35.276798 -2.4762599 311.62 -0.011939127 -0.89476717 0.4463734 0
-35.2728 -2.34638 310.90302 -0.43039647 -0.5805133 -0.69120419 0
-35.268398 1.02546 308.93799 -0.89835918 -0.056035742 -0.43567282 0
-35.23 2.7286301 308.952 -0.96544158 0.09060321 -0.24436371 0
-35.2047 0.045875501 309.276 -0.65081608 -0.18407992 -0.73658198 0
-35.1684 3.31163 309.56699 -0.85876298 0.4245728 0.2868171 0
-35.1665 -1.24946 310.19901 -0.37809956 -0.67538917 -0.63315892 0
-35.0863 3.6409099 309.30301 -0.91991693 0.37802991 0.10414554 0
-35.084702 -0.62064397 309.54901 -0.3325201 -0.52313912 -0.78470111 0
-35.061401 3.4363799 308.64801 -0.98728824 0.095952526 -0.12670872 0
-35.027802 3.1227601 308.289 -0.89077324 0.027518732 -0.45361415 0
-35.0215 2.82198 308.328 -0.92232376 -0.025859844 -0.38555175 0
-34.978199 -1.88433 312.599 0.35411638 -0.85729945 0.37368339 0
-34.9716 -2.34448 310.76001 -0.43204084 -0.60288358 -0.67072505 0
-34.9702 3.9486699 308.70401 -0.97040367 0.22423647 -0.089636341 0
-34.962601 3.6390901 308.34601 -0.95303059 0.17651138 -0.24612273 0
-34.938702 -2.2634599 311.85699 0.0017428466 -0.84444374 0.53564143 0
-34.830799 3.79511 309.90201 -0.85876298 0.4245728 0.2868171 0
-34.824902 4.4331002 308.255 -0.98201543 0.1691384 -0.083891988 0
-34.800301 4.47012 308.77802 -0.97033107 0.24165213 -0.0078657102 0
-34.7952 3.9665101 307.91599 -0.96035767 0.12202808 -0.25064373 0
-34.726002 4.7712598 308.142 -0.96837693 0.23614289 -0.080515176 0
-34.7211 3.7973299 307.655 -0.8783105 -0.015440382 -0.4778412 0
-34.714199 -1.97583 312.37799 -0.045997839 -0.88721877 0.45905021 0
-34.687901 4.7683802 308.703 -0.88255835 0.44102326 0.16306202 0
-34.677502 -1.80665 312.74899 0.35411638 -0.85729945 0.37368339 0
-34.676998 -1.42377 310.17899 -0.39002731 -0.54845625 -0.73964483 0
-34.676601 4.4349499 307.729 -0.95589632 0.12388539 -0.26629803 0
-34.675701 -2.3512199 310.62299 -0.27797958 -0.45589349 -0.84551078 0
-34.6194 4.9608402 307.76599 -0.95450836 0.22583918 -0.19470592 0
-34.574299 5.1845698 308.104 -0.91314614 0.4038668 0.055278804 0
-34.528099 -1.75385 310.32501 -0.30166885 -0.43413362 -0.84883678 0
-34.5256 -0.93517298 309.58301 -0.2805852 -0.618496 -0.73398548 0
-34.449001 -2.6187899 310.733 -0.31221452 -0.90409005 -0.29179314 0
-34.4342 -0.49891099 309.26099 -0.25809723 -0.51220936 -0.81916261 0
-34.423302 5.1649399 307.17001 -0.94358921 0.12540232 -0.30645344 0
-34.416401 4.3231401 307.133 -0.83283156 -0.083342567 -0.54721624 0
-34.412201 5.6708202 307.54199 -0.98744637 0.15790845 -0.0038261765 0
-34.3764 -2.6004901 311.327 -0.18575904 -0.94532752 0.26804754 0
-34.3386 -2.4874201 311.54999 -0.052167151 -0.87029189 0.48976588 0
-34.334599 5.5228801 307.05301 -0.95249099 0.09224806 -0.29026064 0
-34.327801 5.70717 308.271 -0.88333511 0.40039963 0.24371961 0
-34.299099 6.0433798 307.728 -0.90102512 0.4011637 0.16498911 0
-34.283401 5.59723 308.55399 -0.85065114 0.42235267 0.31306681 0
-34.2827 -2.2871699 311.888 -0.055404555 -0.86451107 0.49955073 0
-34.263802 6.0462899 307.879 -0.86983985 0.44930682 0.20372038 0
-34.2159 6.1975498 307.05399 -0.97240925 0.17627273 -0.15280117 0
-34.191502 5.0360799 306.612 -0.8860088 -0.13421874 -0.44381729 0
-34.158699 -1.7586499 310.142 -0.46141738 -0.35954744 -0.81106085 0
-34.153301 5.5222802 306.53 -0.898956 0.032112464 -0.43686026 0
-34.149502 -1.97658 310.19601 -0.41045547 -0.25274932 -0.87615299 0
-34.148998 5.8969798 306.60501 -0.95380163 0.13778867 -0.26697695 0
-34.140598 6.4221802 306.90399 -0.96321791 0.2666266 -0.033488613 0
-34.139099 -2.73352 310.73999 -0.25154907 -0.93362749 -0.25507417 0
-34.1073 6.1220002 306.53 -0.95905203 0.12307499 -0.2550917 0
-34.047699 4.8887 306.452 -0.7809847 -0.14308979 -0.60793769 0
-34.000099 -2.39487 310.23599 -0.48921525 -0.50713277 -0.70956665 0
-33.9925 -0.477896 309.11099 -0.25102505 -0.49416682 -0.83233738 0
-33.954399 -2.4274001 311.67999 0.030672656 -0.85783499 0.51300913 0
-33.927898 -1.1547199 309.52399 -0.27416438 -0.50171012 -0.82043946 0
-33.885899 7.17171 306.267 -0.98043591 0.18316957 -0.072071351 0
-33.885799 6.4221301 305.935 -0.91460997 0.024841793 -0.40357342 0
-33.8736 7.3207598 306.52899 -0.95120955 0.30849701 0.005477808 0
-33.832199 -2.7331901 311.138 -0.14192648 -0.93059468 0.33741733 0
-33.823399 5.5592098 305.98801 -0.81873691 -0.14235848 -0.55624086 0
-33.8139 6.8722601 305.85501 -0.91869253 0.10423172 -0.38097212 0
-33.8116 7.3227801 306.94199 -0.86235535 0.44742876 0.23696142 0
-33.773998 -2.4992499 310.194 -0.48921525 -0.50713277 -0.70956665 0
-33.769299 7.4496198 305.99399 -0.9652794 0.19994919 -0.16809507 0
-33.688 7.8457899 306.30399 -0.91951573 0.3895036 0.052704319 0
-33.6623 -1.22434 309.47 -0.27895957 -0.49671364 -0.82186198 0
-33.652 7.8447299 306.603 -0.86504108 0.44076696 0.23964222 0
-33.606602 7.8637199 305.59399 -0.96142179 0.16585527 -0.21945432 0
-33.5966 7.2097402 305.401 -0.92624718 0.042063124 -0.37456217 0
-33.577099 7.6496501 305.388 -0.96142179 0.16585527 -0.21945432 0
-33.5681 -1.56181 309.65201 -0.33355275 -0.57914072 -0.74386734 0
-33.5443 8.2203302 305.92899 -0.92578304 0.3765769 0.033400636 0
-33.532902 -0.55259901 309.02499 -0.24452801 -0.49946868 -0.83110595 0
-33.5266 6.7226 305.33099 -0.83061087 -0.080103122 -0.55106181 0
-33.4949 -2.29498 309.98801 -0.21706575 -0.48935181 -0.84464031 0
-33.4767 -2.6530001 310.186 -0.21706575 -0.48935181 -0.84464031 0
-33.450001 8.0913801 305.16501 -0.9439559 0.21602535 -0.24956028 0
-33.437401 -1.37423 309.48001 -0.22406445 -0.47928986 -0.84857315 0
-33.3517 8.6664696 305.89001 -0.86612689 0.45807999 0.19996728 0
-33.326099 -2.9416699 310.729 -0.1042171 -0.98791045 0.11476809 0
-33.3176 8.8219299 305.32901 -0.97306001 0.22372428 -0.055692691 0
-33.306 -1.18568 309.33499 -0.22406445 -0.47928986 -0.84857315 0
-33.233898 8.8223 304.729 -0.94966763 0.04878683 -0.30943701 0
-33.205601 9.1214304 304.73001 -0.96611351 0.24563789 -0.079288468 0
-33.173801 8.2599096 304.505 -0.88513833 -0.028227355 -0.46447101 0
-33.112202 9.5666399 305.327 -0.95388687 0.19313468 0.22977996 0
-33.049599 9.6463203 304.505 -0.94480014 0.29824838 -0.13564897 0
-33.012001 9.7913599 305.258 -0.83264041 0.51261055 0.2096196 0
-32.989201 -2.3910699 309.948 -0.17748216 -0.46657768 -0.86649024 0
-32.964699 7.9989901 304.20999 -0.81186455 -0.20860843 -0.54530585 0
-32.960201 9.8719196 304.504 -0.95849967 0.2549257 -0.1276371 0
-32.937099 8.4289703 304.095 -0.85107213 0.032527257 -0.52404034 0
-32.9216 9.6465302 304.056 -0.92012388 0.26130512 -0.29170489 0
-32.9174 9.49617 303.98499 -0.93732476 0.028081257 -0.34732375 0
-32.876801 -2.9447801 310.73001 -0.11129899 -0.99199951 0.059578106 0
-32.876202 -2.6471701 310.077 -0.12202663 -0.80875242 -0.57535118 0
-32.8102 -1.16699 309.23801 -0.17068909 -0.47944885 -0.8608101 0
-32.797298 8.0731497 303.98199 -0.78905404 -0.19608687 -0.58218867 0
-32.754299 10.3215 304.16699 -0.93871051 0.3402355 -0.055339158 0
-32.717098 -1.71412 309.54001 -0.1205129 -0.47904962 -0.86947578 0
-32.665298 9.1199999 303.59698 -0.85847402 -0.079094075 -0.50672138 0
-32.658298 9.8631601 303.51001 -0.90068001 0.051570922 -0.43141159 0
-32.552299 10.6408 303.52899 -0.95151979 0.13644089 -0.27567002 0
-32.550201 10.8435 303.90399 -0.9000901 0.43526918 0.019457256 0
-32.4431 10.9388 303.27802 -0.95652795 0.26147309 -0.12917462 0
-32.377602 11.2968 303.45401 -0.9685244 0.24890567 0.0025406352 0
-32.372299 10.2099 302.92999 -0.90736556 0.022284636 -0.41975132 0
-32.326302 11.4478 303.52899 -0.92780578 0.35402989 0.11764027 0
-32.302399 11.2228 302.853 -0.9656418 0.12268149 -0.22909634 0
-32.267899 11.3368 303.961 -0.85956687 0.47749501 0.18205294 0
-32.243 11.6707 302.96799 -0.96035218 0.27229449 -0.059827708 0
-32.201199 -1.7500401 309.513 -0.1011865 -0.49128643 -0.8651005 0
-32.160599 10.9214 302.32501 -0.91021782 -0.11514188 -0.39780128 0
-32.1119 11.5216 302.25601 -0.93783063 0.10069767 -0.33216512 0
-32.094799 12.1946 302.92899 -0.7975896 0.59662008 0.088855468 0
-32.089001 12.0467 303.379 -0.84087491 0.4919793 0.22557874 0
-31.9765 -2.7160599 310.13101 -0.20481355 -0.82223892 -0.53101277 0
-31.9007 11.5231 301.73199 -0.86719787 -0.068952441 -0.49316671 0
-31.838301 12.4227 302.17899 -0.93954271 0.25083828 -0.2331087 0
-31.769199 12.5712 302.03101 -0.94712412 0.24616635 -0.20581065 0
-31.751699 12.7978 302.32999 -0.96050149 0.26063657 0.097496159 0
-31.720699 12.2749 301.61301 -0.95736319 0.15544511 -0.24350071 0
-31.719101 11.9723 301.42899 -0.88765413 -0.034054633 -0.45924988 0
-31.690201 12.7048 301.76401 -0.94712412 0.24616635 -0.20581065 0
-31.630199 11.3726 301.39301 -0.77857429 -0.11715257 -0.6165204 0
-31.607 13.2425 302.177 -0.94718093 0.27706501 -0.1615033 0
-31.5312 12.4217 300.983 -0.88477808 0.028216992 -0.46515757 0
-31.511299 11.5217 301.185 -0.78306937 -0.12092678 -0.61006486 0
-31.4086 13.0215 301.01801 -0.9130497 0.19194862 -0.35985547 0
-31.386101 13.6962 301.729 -0.90625119 0.41952407 -0.052041661 0
-31.336901 13.6222 301.129 -0.94556022 0.2030376 -0.25434548 0
-31.267599 13.9178 301.168 -0.93627983 0.35125184 0.0014902435 0
-31.2666 12.7978 300.52802 -0.9349305 0.010889431 -0.3546637 0
-31.2325 13.9221 301.729 -0.81701511 0.53761679 0.20845746 0
-31.1992 13.022 300.45599 -0.92994815 0.097785972 -0.35444933 0
-31.186001 13.3222 300.604 -0.9181146 0.18147536 -0.35232404 0
-31.1516 -2.89783 310.129 -0.08968921 -0.9310832 -0.35360986 0
-31.1394 14.2946 300.90399 -0.94735944 0.31705427 -0.044572365 0
-31.101999 13.6242 300.52399 -0.94929284 0.10977754 -0.2946049 0
-31.042101 14.2416 300.41501 -0.97037256 0.15054332 -0.18898098 0
-31.003 14.5991 300.45401 -0.87684673 0.44938153 -0.17086868 0
-30.974899 13.1747 299.92899 -0.87896478 -0.14395732 -0.45463964 0
-30.967699 13.4908 299.90399 -0.94633698 0.14316759 -0.28974018 0
-30.816999 13.9412 299.70401 -0.89968628 0.065206714 -0.43163949 0
-30.8132 14.4287 299.815 -0.93717992 0.067086093 -0.34233502 0
-30.6042 15.4968 299.854 -0.94534141 0.31452325 -0.086051129 0
-30.583099 15.3841 299.48001 -0.97469366 0.18274207 -0.12875395 0
-30.5732 14.8219 299.17899 -0.92323309 0.054737113 -0.38032153 0
-30.5278 14.3724 299.17999 -0.87704772 -0.087121874 -0.47243738 0
-30.502001 15.4242 299.17801 -0.96474791 0.16514833 -0.20490862 0
-30.4841 15.721 299.92899 -0.88582844 0.46345365 -0.022774609 0
-30.446501 15.7053 299.328 -0.93613625 0.33130568 -0.1178366 0
-30.357901 15.497 298.65601 -0.94094843 0.12602432 -0.31421947 0
-30.301001 14.7666 298.65601 -0.80793619 -0.14949332 -0.56999201 0
-30.251301 -3.00072 310.129 -0.31848013 -0.87810463 -0.3570751 0
-30.178699 15.9281 298.44901 -0.92839515 0.19125007 -0.31859979 0
-30.123899 16.505699 298.78699 -0.94258022 0.29399815 -0.15845373 0
-30.087799 15.8703 298.133 -0.9097212 0.032103807 -0.41397667 0
-30.0777 15.4214 298.125 -0.89972192 -0.043243438 -0.43431616 0
-29.974001 15.1972 298.05399 -0.83665985 -0.14069586 -0.5293439 0
-29.9727 15.9469 297.83701 -0.93298191 0.11534345 -0.34094086 0
-29.907101 16.695999 298.20599 -0.95274717 0.15534116 -0.26104003 0
-29.875 16.4174 297.94 -0.92189318 0.21199936 -0.32429811 0
-29.8335 16.92 298.134 -0.96362162 0.21859428 -0.15378529 0
-29.8197 16.247299 297.52899 -0.87679309 0.17292576 -0.44869876 0
-29.7833 17.4361 298.13599 -0.95234692 0.26500148 -0.15102838 0
-29.7805 16.021999 297.52802 -0.88626981 -0.054338086 -0.4599708 0
-29.728399 -2.9756899 310.12799 0.25316507 -0.96702629 -0.027706077 0
-29.6094 17.258801 297.53 -0.94248074 0.19251801 -0.27325237 0
-29.5214 17.5959 297.38 -0.91761374 0.27226439 -0.28958088 0
-29.4842 17.2213 296.931 -0.90402311 0.27109319 -0.33053088 0
-29.408001 -2.3884399 309.46201 0.042795613 -0.86685401 -0.49672189 0
-29.388 17.183399 296.70801 -0.89321268 0.091297679 -0.44026795 0
-29.378901 16.4723 296.77899 -0.73724604 -0.090176985 -0.66957927 0
-29.351 -2.8048899 310.129 0.24872945 -0.96699226 -0.055313893 0
-29.320101 17.716299 296.95999 -0.88150102 0.28826848 -0.37397486 0
-29.1765 18.142099 296.92801 -0.91050875 0.38018566 -0.16258122 0
-29.119301 17.5217 296.36801 -0.89354122 0.12758914 -0.43047079 0
-29.111799 16.998501 296.258 -0.76950639 -0.16361415 -0.61732513 0
-29.0133 18.1213 296.25699 -0.91370827 0.15901506 -0.37396711 0
-28.9988 18.6443 296.92899 -0.83742899 0.54545915 -0.034453567 0
-28.975901 -2.36584 309.42401 0.18425457 -0.78142065 -0.59618115 0
-28.848101 18.7255 296.32599 -0.92257905 0.28737423 -0.25741774 0
-28.795 17.747 295.802 -0.8831504 -0.063354984 -0.46479195 0
-28.7586 18.4228 295.80399 -0.91396022 0.15902331 -0.37334749 0
-28.7516 -2.39222 309.41599 0.18425457 -0.78142065 -0.59618115 0
-28.7377 18.122499 295.655 -0.89930469 0.11471773 -0.42200819 0
-28.728001 17.409401 295.74799 -0.82777053 -0.13252921 -0.54518986 0
-28.724501 19.0931 296.33099 -0.86331356 0.487508 -0.13048257 0
-28.677601 -2.5746 310.12799 0.17287759 -0.97621214 0.13085578 0
-28.6756 -2.48913 309.51001 -0.15631406 -0.97013915 -0.18546134 0
-28.6712 18.7248 295.79999 -0.91751736 0.23817313 -0.31848928 0
-28.4391 18.423 295.13501 -0.84277588 -0.031197267 -0.53735977 0
-28.423401 18.7215 295.134 -0.90924758 0.1099483 -0.40147251 0
-28.3461 19.322901 295.12799 -0.9288072 0.21998881 -0.2981981 0
-28.3064 19.656799 295.56 -0.97855902 0.19807975 0.056450538 0
-28.2609 19.847601 295.504 -0.93629682 0.34017029 0.087363906 0
-28.234301 20.1451 295.129 -0.84276885 0.49618733 0.20865953 0
-28.2185 19.8447 296.104 -0.80420798 0.59129536 0.060160693 0
-28.171801 20.1434 294.98099 -0.85886729 0.51198095 0.014916645 0
-28.1266 20.069201 295.578 -0.93629682 0.34017029 0.087363906 0
-28.123199 19.021999 294.60101 -0.86837894 0.014065874 -0.4957017 0
-28.0487 19.4629 294.45599 -0.91441137 0.025711907 -0.40396881 0
-27.939699 20.371401 294.53 -0.88180274 0.36410666 -0.29975033 0
-27.9266 -2.6178401 309.52899 -0.089485571 -0.99463415 -0.05191531 0
-27.7864 19.941099 293.94901 -0.89597076 0.042710125 -0.44205454 0
-27.750799 20.7491 294.30301 -0.89281851 0.41803345 -0.1676995 0
-27.6348 21.0485 294.30399 -0.92474937 0.37724772 -0.050227091 0
-27.6283 20.8223 293.853 -0.95458353 0.1207678 -0.27236995 0
-27.512199 20.878401 293.51599 -0.94594407 0.11888941 -0.30175346 0
-27.4951 20.334801 293.40601 -0.89693326 0.026497362 -0.44137126 0
-27.4744 21.348101 294.52899 -0.81321365 0.57554138 -0.086230472 0
-27.462 21.493299 293.77899 -0.92236829 0.36113933 -0.13716835 0
-27.4359 19.8083 293.39899 -0.77020657 -0.12860429 -0.62469417 0
-27.4034 20.822201 293.254 -0.89649129 0.01259739 -0.44288227 0
-27.400299 -2.6942899 309.53101 0.031271353 -0.99922734 -0.023807298 0
-27.3892 21.1964 293.25699 -0.92165458 0.18630202 -0.34035915 0
-27.164801 21.8999 293.38501 -0.89214617 0.41866499 -0.16969037 0
-27.104601 21.282101 292.707 -0.91058213 0.11752028 -0.39626911 0
-27.071199 20.484501 292.69 -0.84417391 -0.057449762 -0.53298211 0
-27 21.7789 292.616 -0.92978084 0.18203329 -0.31995535 0
-26.9562 21.4596 292.35699 -0.90891927 -0.072614722 -0.41060054 0
-26.954901 22.095699 292.80499 -0.90088552 0.31903028 -0.29432112 0
-26.876699 -2.6928501 309.52899 -0.024886878 -0.94495994 -0.32623813 0
-26.845501 21.423401 292.138 -0.90891927 -0.072614722 -0.41060054 0
-26.843 21.721701 292.134 -0.92978084 0.18203329 -0.31995535 0
-26.763399 20.756001 292.21799 -0.7566117 -0.15849884 -0.63436329 0
-26.695 22.620899 292.767 -0.86145377 0.5027501 0.071691953 0
-26.685699 22.693501 292.13101 -0.87301797 0.48265368 -0.069893137 0
-26.5769 -2.27864 308.936 -0.011559304 -0.84294462 -0.53787613 0
-26.547199 22.987801 292.13 -0.84210408 0.5288977 -0.10548882 0
-26.3904 21.311199 291.58099 -0.74713296 -0.25914273 -0.61207628 0
-26.3902 21.722601 291.45499 -0.803711 -0.096093126 -0.58720928 0
-26.3797 22.378799 291.41199 -0.88766104 -0.0087918611 -0.46041352 0
-26.370001 22.9415 291.52802 -0.88729781 0.27465391 -0.37049672 0
-26.3522 -2.6677999 309.52802 0.13005188 -0.98848873 0.077307887 0
-26.3419 23.2932 292.05399 -0.83316678 0.54919118 -0.064978018 0
-26.2766 -2.3508501 308.95801 -0.0048939446 -0.89024466 -0.45545635 0
-26.097 23.588699 291.45599 -0.84974635 0.51992059 -0.08725673 0
-26.072599 23.192699 290.83801 -0.93736821 0.23456714 -0.25752491 0
-25.9893 22.4163 290.68701 -0.8701098 -0.080720253 -0.48620278 0
-25.9048 23.747299 290.91 -0.91858578 0.32674748 -0.22234267 0
-25.8522 23.2225 290.328 -0.90200049 0.10815868 -0.41796744 0
-25.8272 23.523399 290.327 -0.96112472 0.089828633 -0.26109394 0
-25.7967 23.8235 290.478 -0.96550483 0.20949662 -0.15463376 0
-25.788601 22.0249 290.48499 -0.82838053 -0.19207402 -0.52620649 0
-25.728001 24.197399 290.92899 -0.84583849 0.53224236 -0.035711832 0
-25.723 23.9732 290.25299 -0.94735193 0.24507013 -0.20607017 0
-25.7146 22.472401 290.254 -0.8074339 -0.14180431 -0.57266229 0
-25.713699 23.1474 290.104 -0.88775867 0.0052627041 -0.46027905 0
-25.684099 22.026899 290.33899 -0.80894411 -0.1709284 -0.56248808 0
-25.6019 -2.34185 308.92801 0.031395148 -0.94966304 -0.31169617 0
-25.570101 24.511499 290.254 -0.86108226 0.5064283 0.04547251 0
-25.564699 23.8221 289.73099 -0.906654 0.020180454 -0.42139208 0
-25.4554 24.571699 289.729 -0.82615513 0.54188764 -0.15435527 0
-25.3557 23.1478 289.505 -0.76699448 -0.36121809 -0.53032154 0
-25.3538 22.396799 289.793 -0.6179384 -0.41700506 -0.66652751 0
-25.318399 24.7988 289.65399 -0.86026394 0.45494458 -0.23015513 0
-25.272499 24.871201 290.142 -0.78128392 0.62414306 -0.0063960566 0
-25.238899 24.6458 289.138 -0.90077734 0.17553575 -0.39722461 0
-25.2384 23.785601 289.06299 -0.88622111 -0.053395715 -0.46017507 0
-25.2276 -2.39571 309.08301 0.15672997 -0.96614319 -0.2049464 0
-25.2208 24.4224 289.13101 -0.93894506 0.065662771 -0.33774343 0
-25.198601 22.961901 289.358 -0.68582165 -0.32203498 -0.65264243 0
-25.191601 23.560801 289.05801 -0.876046 -0.086691111 -0.47437125 0
-25.1626 24.1598 289.056 -0.87089705 0.020038357 -0.49105677 0
-25.152399 25.0292 289.729 -0.82335877 0.56715256 -0.020452017 0
-25.151899 -2.42295 309.379 0.15672997 -0.96614319 -0.2049464 0
-25.151699 -2.3366599 308.92899 -0.033723827 -0.99490279 -0.095032506 0
-25.109501 23.2185 289.12201 -0.70840096 -0.31511593 -0.63156158 0
-25.078501 22.245199 289.69699 -0.47130466 -0.50592738 -0.72243297 0
-25.0767 21.3633 290.448 -0.36797181 -0.59866226 -0.71147752 0
-25.0474 25.1635 289.16901 -0.84702814 0.49427834 -0.1955307 0
-24.9807 21.6677 290.12701 -0.4058761 -0.59260464 -0.69576168 0
-24.9251 22.1001 289.72299 -0.38049421 -0.59839129 -0.70509011 0
-24.888 23.746401 288.52701 -0.73408204 -0.2648443 -0.62528479 0
-24.879601 25.0228 288.48901 -0.87814933 0.24868968 -0.40866515 0
-24.873899 24.122801 288.48599 -0.81818277 -0.19244625 -0.5417946 0
-24.8634 25.43 289.504 -0.80095196 0.59757626 0.037129514 0
-24.8473 22.775999 289.129 -0.52535588 -0.49338901 -0.69323045 0
-24.658001 25.743999 288.979 -0.83229768 0.55425966 0.0087648667 0
-24.6278 23.3894 288.49399 -0.59765899 -0.54051852 -0.59215158 0
-24.5879 22.6236 289.095 -0.52535588 -0.49338901 -0.69323045 0
-24.553499 24.4226 287.901 -0.8259899 -0.12206151 -0.55031049 0
-24.5411 25.631701 288.211 -0.78843194 0.33048409 -0.51880181 0
-24.514299 25.018801 287.94199 -0.54956967 0.223813 -0.80491048 0
-24.4785 22.393999 289.245 -0.40353373 -0.58603656 -0.70265329 0
-24.4396 23.521799 288.22699 -0.5490281 -0.48804694 -0.67851186 0
-24.404699 23.219 288.45801 -0.48304668 -0.57506412 -0.66027808 0
-24.401501 -2.38589 308.931 -0.026631575 -0.99955422 0.013494126 0
-24.395399 23.828199 287.944 -0.59250623 -0.37318158 -0.71391308 0
-24.326401 -2.41856 309.229 -0.043090824 -0.98211205 0.18330042 0
-24.2701 20.8622 290.57401 -0.26228669 -0.67356557 -0.69102472 0
-24.2617 21.769899 289.72699 -0.29466459 -0.64953256 -0.70091385 0
-24.251499 25.695999 287.996 -0.4184657 0.43538961 -0.7970711 0
-24.249701 22.8043 288.74701 -0.382938 -0.61830288 -0.68633813 0
-23.990101 21.086901 290.25601 -0.2265915 -0.67557687 -0.70160687 0
-23.910801 23.6782 287.784 -0.12209241 -0.074964441 -0.98968369 0
-23.8766 -2.43155 309.229 0.044523109 -0.99358475 0.10395707 0
-23.8407 20.682699 290.60599 -0.21638803 -0.68260562 -0.69801563 0
-23.8013 -2.42643 308.92899 -0.063475095 -0.99566823 0.067938663 0
-23.7348 22.823601 288.45801 -0.32868382 -0.66871864 -0.66692001 0
-23.652901 23.369801 287.92001 0.04799943 -0.47525054 -0.87854028 0
-23.652599 22.395599 288.867 -0.30665067 -0.68180782 -0.6641562 0
-23.603701 21.425699 289.784 -0.23636657 -0.67809981 -0.69592494 0
-23.4993 21.949699 289.24899 -0.2659108 -0.68004835 -0.68324643 0
-23.352699 -2.4776299 308.927 0.18557872 -0.98181194 -0.04007256 0
-23.347799 23.156099 287.96899 -0.026720189 -0.44018734 -0.89750832 0
-23.2721 22.817499 288.22101 -0.021745907 -0.59655601 -0.80227679 0
-23.1936 22.486 288.55399 -0.28308615 -0.71100956 -0.64368284 0
-23.054501 23.820999 287.914 0.44147721 0.0044420669 -0.89726144 0
-22.976601 21.468201 289.54199 -0.22107448 -0.70066047 -0.67838115 0
-22.9491 20.6583 290.36499 -0.18518774 -0.70006341 -0.6896497 0
-22.9028 22.200199 288.75101 -0.25729725 -0.71015692 -0.65534359 0
-22.749201 23.373501 287.99399 0.39441854 0.040642466 -0.91803169 0
-22.674101 -2.36783 308.52499 -0.11671976 -0.84748656 -0.51782531 0
-22.6019 21.124001 289.785 -0.15688722 -0.72799855 -0.66738635 0
-22.601299 -2.59272 308.92999 -0.15933587 -0.98567134 -0.055354521 0
-22.4498 22.2342 288.53601 -0.041546781 -0.47211367 -0.88055807 0
-22.377399 -2.1298101 308.298 0.042111699 -0.90260553 -0.42840385 0
-22.376499 20.726601 290.181 -0.12096529 -0.7350713 -0.6671114 0
-22.2283 21.8757 288.862 -0.20045674 -0.72899246 -0.65451288 0
-22.1593 -2.55285 308.91901 0.17172281 -0.94619995 -0.27425694 0
-22.1469 -2.4739799 309.043 0.15289068 -0.98775601 -0.031023415 0
-22.0769 22.098 288.586 0.094881006 -0.58523959 -0.8052901 0
-22.076 -2.3501401 308.35001 -0.12786473 -0.92890769 -0.34753573 0
-22.039101 21.585501 289.129 -0.097672172 -0.73319465 -0.67296785 0
-21.8703 21.021099 289.76801 -0.13839535 -0.74031824 -0.65785682 0
-21.7397 20.6112 290.198 -0.19970138 -0.71669608 -0.66818112 0
-21.626301 21.645599 288.98199 -0.032268301 -0.70478326 -0.70868844 0
-21.5891 21.190701 289.505 -0.10989987 -0.74039459 -0.66312736 0
-21.555599 22.397499 288.595 0.55304539 -0.12899818 -0.82310408 0
-21.5509 -2.3499501 308.23401 -0.24984084 -0.96597236 0.066909939 0
-21.3666 20.8668 289.79901 -0.22538421 -0.72436249 -0.65153736 0
-21.251699 21.503099 289.129 0.18779702 -0.70912385 -0.67961437 0
-21.1751 -2.5450001 308.33301 -0.081134804 -0.99643975 0.022911487 0
-21.102301 21.648399 289.073 0.25216991 -0.31486163 -0.91502595 0
-20.953501 21.499399 289.16699 0.41638184 -0.28389573 -0.86372995 0
-20.8752 -2.6373301 308.33099 -0.024888834 -0.99952328 -0.018267741 0
-20.874701 21.0578 289.39001 -0.27102771 -0.60730517 -0.74680948 0
-20.8106 21.796101 289.17599 0.53405994 -0.22205351 -0.81576478 0
-20.4725 21.645 289.42801 0.57113951 -0.21394654 -0.79248124 0
-20.3517 -2.7465 308.32901 0.21935099 -0.95499784 -0.1996603 0
-19.8981 20.308599 289.66901 -0.029357994 -0.29573444 -0.95481896 0
-19.753201 20.138 289.79599 0.14436127 -0.27775753 -0.94974238 0
-19.602501 -2.61903 308.328 0.32259715 -0.91271603 -0.25075981 0
-19.3067 20.7451 289.758 0.2553944 -0.04953916 -0.96556699 0
-19.154699 20.5219 289.79999 0.4126856 -0.38238591 -0.82672346 0
-18.627001 19.4042 290.302 0.15551941 -0.48521861 -0.8604514 0
-18.5422 -2.57757 307.74301 -0.1914134 -0.94072425 -0.27999783 0
-18.477501 19.254999 290.39499 0.15551941 -0.48521861 -0.8604514 0
-18.2542 19.846701 290.36401 0.69039994 -0.14149782 -0.70945495 0
-18.104099 19.7722 290.49701 0.69039994 -0.14149782 -0.70945495 0
-17.798 -2.79178 307.73001 -0.16007663 -0.92293984 -0.35008219 0
-17.654699 18.511801 290.909 0.041605145 -0.43904081 -0.89750332 0
-17.369499 18.6555 290.94901 0.43006036 -0.17197707 -0.88626856 0
-16.7584 17.753799 291.57901 0.44760689 -0.54042512 -0.71245265 0
-16.738501 -2.96626 307.14801 -0.2318866 -0.96721703 -0.10353649 0
-16.5998 17.09 292.14301 0.15602005 -0.5639472 -0.81093854 0
-16.598301 -3.02562 307.134 -0.078228176 -0.99684715 -0.013269886 0
-16.1499 -2.92135 306.83499 -0.0056690034 -0.92762727 -0.37346426 0
-16.127199 17.6717 292.11499 0.50875646 -0.07977163 -0.8572067 0
-16.019501 -3.0661399 307.11301 -0.074770533 -0.99121058 0.10913748 0
-16.0058 17.298901 292.185 0.27649793 -0.31875151 -0.90661258 0
-15.6284 16.4105 292.716 0.41129547 -0.34276804 -0.84459817 0
-15.6225 -2.7209699 306.51099 -0.24387884 -0.879161 -0.40938863 0
-15.4426 16.3318 292.79501 0.41129547 -0.34276804 -0.84459817 0
-15.4357 -2.9943299 306.64099 -0.42154792 -0.81514281 -0.39729029 0
-15.4126 17.070601 292.694 0.62630814 -0.074041203 -0.77605158 0
-15.1044 16.2486 292.95401 0.42649695 -0.39637685 -0.81301028 0
-15.0951 -3.0327201 306.54199 -0.10398383 -0.97495013 -0.19662042 0
-15.0452 15.5748 293.35101 0.11008351 -0.48877335 -0.86543763 0
-14.9512 -3.0904801 306.53 -0.10398383 -0.97495013 -0.19662042 0
-14.9508 -2.95066 306.36401 -0.10398383 -0.97495013 -0.19662042 0
-14.8002 -3.1175499 306.97501 -0.26631477 -0.95569742 -0.12537506 0
-14.5829 15.724 293.332 0.3108511 -0.12646116 -0.94200808 0
-14.5095 15.5034 293.39401 0.5714854 -0.083851285 -0.81631696 0
-14.4273 15.0553 293.633 0.45085061 -0.40075412 -0.7975775 0
-14.4001 15.9472 293.53601 0.57352519 -0.10294729 -0.81269348 0
-14.3512 -3.2400701 306.53 -0.15658928 -0.97993881 0.12328706 0
-13.977 14.4573 294.01001 -0.027885759 -0.5206905 -0.85329002 0
-13.7602 14.6022 293.96899 0.13282329 -0.27434561 -0.95241404 0
-13.4505 -3.0243599 305.94 -0.25909036 -0.81813765 -0.51334488 0
-13.3774 -3.29829 306.54599 -0.38455242 -0.92302269 -0.01218992 0
-13.3766 13.5486 294.57101 0.029683752 -0.37609541 -0.92610532 0
-13.2251 13.2522 294.73401 -0.029286496 -0.46548668 -0.88457018 0
-13.0068 13.8476 294.52499 0.33983204 0.23932651 -0.90952569 0
-13.0042 13.5497 294.578 0.4443408 -0.31894359 -0.83715963 0
-12.9991 -3.24301 305.992 -0.18160433 -0.93089771 -0.31693745 0
-12.8883 12.8752 294.90302 0.15824218 -0.45051757 -0.87863153 0
-12.3256 12.3524 295.138 0.038168583 -0.37617177 -0.92576343 0
-12.1377 -3.36115 305.98401 -0.33797362 -0.93859166 0.069422744 0
-11.998 12.8716 295.12 0.49765879 0.0017317153 -0.86737114 0
-11.9522 12.1982 295.18799 0.3343688 -0.2359968 -0.91241604 0
-11.6563 -3.35724 305.927 0.22895604 -0.95578301 -0.18454804 0
-11.5756 -2.97223 305.345 -0.42283279 -0.77745456 -0.46559298 0
-11.5401 12.4178 295.353 0.53464949 -0.0086160135 -0.84503001 0
-11.4261 11.2985 295.621 0.050468672 -0.33365718 -0.94134253 0
-11.3899 11.0713 295.76199 -0.074393146 -0.26796103 -0.96055323 0
-11.3463 -2.9863601 305.242 -0.23169725 -0.87529916 -0.42446169 0
-11.2768 -3.2597201 305.92899 -0.025089184 -0.99007982 -0.13824798 0
-11.2723 -3.15151 305.33899 -0.23169725 -0.87529916 -0.42446169 0
-10.973 10.7033 295.79599 -0.10234982 -0.3746016 -0.92151946 0
-10.8853 11.8211 295.70401 0.37011963 0.13987102 -0.91839403 0
-10.676 10.5491 295.79599 0.22243863 -0.39416337 -0.89171535 0
-10.6017 -3.2809401 305.33099 0.022702344 -0.99783808 -0.061675142 0
-10.4983 11.0703 295.74301 0.59106088 0.00056577544 -0.80662674 0
-10.3674 -2.9646299 304.771 0.14805149 -0.9326399 -0.32903433 0
-10.3544 11.0716 295.883 0.59106088 0.00056577544 -0.80662674 0
-10.1483 -3.0553 304.737 -0.19459814 -0.94684601 -0.25615269 0
-10.0777 -3.1140299 305.40302 0.14332949 -0.94708991 -0.28718874 0
-10.0037 -3.1763201 305.17801 0.14332949 -0.94708991 -0.28718874 0
-9.7086802 10.0953 296.16599 0.39015159 0.063879728 -0.91853207 0
-9.4766397 -3.1243899 304.73001 0.0059066224 -0.99980885 0.018637858 0
-9.4359198 9.6465197 296.302 0.51310682 0.067347489 -0.8556785 0
-9.3972797 -2.95223 304.28699 -0.1476202 -0.92728263 -0.34402788 0
-9.2582197 9.1980104 296.375 0.3931047 -0.2298139 -0.8903113 0
-9.1754599 8.4520397 296.66901 0.12289212 -0.38334394 -0.91539335 0
-9.1711302 -2.9344299 304.14001 -0.14241137 -0.9306863 -0.3369599 0
-9.1124802 9.1955299 296.46701 0.3931047 -0.2298139 -0.8903113 0
-8.9562302 -3.10309 304.72198 0.04783633 -0.99695551 -0.061574407 0
-8.87428 8.0034704 296.88699 0.089506015 -0.3344357 -0.93815851 0
-8.5756798 8.7476397 296.81 0.50217879 0.029930355 -0.86424571 0
-8.4259396 -3.0810499 304.13101 -0.14738235 -0.96709847 -0.20736186 0
-8.3514996 8.52244 296.91599 0.21515484 -0.060919743 -0.97467798 0
-8.1992397 -2.9577301 303.75 -0.19974987 -0.85525745 -0.47815761 0
-8.1271696 7.5482602 296.99399 0.13243613 -0.29328907 -0.94680631 0
-8.0626497 7.99406 296.974 0.33037266 -0.051230755 -0.94245917 0
-7.8833399 8.0707598 297.129 0.54732794 0.061058942 -0.83468795 0
-7.71348 -2.9988101 303.60699 -0.18150818 -0.9322058 -0.31312484 0
-7.6707101 8.0514097 297.32501 0.6309008 0.031648949 -0.77521771 0
-7.52564 -3.0117099 303.53201 -0.17472626 -0.88002568 -0.44161698 0
-7.37884 7.6377401 297.46201 0.6309008 0.031648949 -0.77521771 0
-7.18608 -2.8703301 303.255 -0.12370656 -0.82038879 -0.55826426 0
-7.1526198 -3.1120901 303.827 -0.04734011 -0.99887842 0.00092041877 0
-7.1504202 -3.09268 303.53201 0.033815365 -0.98352367 -0.17758849 0
-7.0097599 6.64534 297.444 0.35235018 -0.2398259 -0.90461755 0
-6.9644098 -2.2030001 302.71201 -0.30323389 -0.51450521 -0.80208081 0
-6.8618798 6.5692201 297.53299 0.49409604 -0.10044467 -0.86358553 0
-6.8576899 5.9026399 297.59399 0.41082934 -0.22139484 -0.88442272 0
-6.71172 -1.58498 302.23499 -0.30262873 -0.5017125 -0.81037056 0
-6.68259 6.73979 297.83401 0.7405259 0.27586842 -0.61279523 0
-6.62989 7.3955402 298.21701 0.72197038 0.29262349 -0.62700099 0
-6.61623 6.3837299 297.75201 0.66208911 0.05119301 -0.74767458 0
-6.55445 -2.7857101 302.939 -0.17920634 -0.73532009 -0.6535973 0
-6.4260702 6.1222501 297.90399 0.63795727 0.098749936 -0.76371396 0
-6.4101901 -2.2574699 302.52301 -0.34162921 -0.49627644 -0.79812229 0
-6.3208499 -0.804102 301.57999 -0.33972257 -0.51406318 -0.7876088 0
-6.2259498 5.7089701 298.02499 0.76282763 0.20546286 -0.61308968 0
-6.2155499 -1.661 302.09 -0.34349617 -0.49330795 -0.7991606 0
-6.1549201 6.0365901 298.20801 0.76414067 0.21225746 -0.6091271 0
-6.1101298 7.4348302 298.814 0.7023676 0.27352145 -0.65716493 0
-6.1033502 6.8738198 298.61301 0.7157414 0.25041273 -0.6519261 0
-6.1019301 4.4005098 298.19101 0.078248031 -0.29981172 -0.95078397 0
-6.09799 -2.9984901 303.08701 -0.24083962 -0.96362674 -0.11584376 0
-6.0221 5.3706398 298.138 0.74207103 0.21731782 -0.63411635 0
-5.9576001 5.0714598 298.142 0.60215247 -0.0087620243 -0.79833305 0
-5.95614 4.5503602 298.16699 0.43607354 -0.32884327 -0.83767653 0
-5.9518099 -3.0239 303.229 -0.12522976 -0.98897964 -0.078973174 0
-5.95086 -0.438925 301.17999 -0.34631655 -0.51303363 -0.78540522 0
-5.8776798 -2.97332 303.37701 -0.12522976 -0.98897964 -0.078973174 0
-5.87292 -2.93046 302.78699 -0.12522976 -0.98897964 -0.078973174 0
-5.8555298 6.5819302 298.79501 0.71034557 0.21070072 -0.67157602 0
-5.8057899 5.8221898 298.57901 0.74766237 0.23598607 -0.62073475 0
-5.7994599 -3.0004799 302.93301 -0.12522976 -0.98897964 -0.078973174 0
-5.7484999 -1.77873 301.94901 -0.37145513 -0.47490138 -0.7978031 0
-5.72577 3.65137 298.444 0.34333178 -0.1115737 -0.93256348 0
-5.7241998 -2.42431 302.32199 -0.37199485 -0.51596314 -0.7716229 0
-5.5857301 6.9614201 299.177 0.70051628 0.22668162 -0.67667747 0
-5.5459299 4.6197901 298.40201 0.51000869 0.1702024 -0.84316206 0
-5.5458202 5.9430399 298.92599 0.6947732 0.22670642 -0.68256456 0
-5.5266199 5.09203 298.61499 0.7080974 0.26735538 -0.65354359 0
-5.4684801 6.4397702 299.142 0.670295 0.19615218 -0.7157017 0
-5.3935699 4.8467498 298.65601 0.71275878 0.26253682 -0.65042245 0
-5.3865499 -0.99909401 301.27899 -0.36680534 -0.50117576 -0.78375804 0
-5.3495998 -3.0634401 302.92899 -0.073372088 -0.94618106 -0.31521094 0
-5.2817101 0.38437799 300.362 -0.35760951 -0.49594519 -0.79129881 0
-5.2748499 -2.7883101 302.34399 -0.37613893 -0.57400608 -0.72734898 0
-5.2423301 4.45118 298.66299 0.71315742 0.26477945 -0.64907503 0
-5.2388501 -1.58345 301.59201 -0.38183504 -0.48867252 -0.78447509 0
-5.2358999 -2.99664 302.56 -0.11485002 -0.96861118 -0.22045816 0
-5.2010498 -0.25179699 300.71399 -0.3622959 -0.50000221 -0.78659993 0
-5.1670098 6.1215501 299.33401 0.66670489 0.18833329 -0.72113466 0
-5.10711 -2.3889699 302.00601 -0.38298398 -0.50118494 -0.77597481 0
-5.0852699 5.0899701 299.095 0.70469379 0.24488902 -0.66590989 0
-5.0201702 4.0213799 298.73199 0.50828129 0.12741393 -0.85171348 0
-5.0044799 -1.9172699 301.68399 -0.40285254 -0.46421966 -0.78880286 0
-4.9761801 5.4474902 299.33301 0.65778178 0.2156395 -0.72168046 0
-4.9739299 5.7105899 299.40201 0.65000534 0.20754667 -0.73103863 0
-4.96416 4.3211999 298.92001 0.70568335 0.23611571 -0.66802722 0
-4.9139299 6.5337701 299.66699 0.6304363 0.29323784 -0.71872222 0
-4.8231602 -3.0076399 302.33499 -0.23971301 -0.96289361 -0.12399043 0
-4.8185601 3.49387 298.73599 0.37740898 0.12932044 -0.91697258 0
-4.7615099 3.19713 298.73499 0.43188977 -0.15825276 -0.88793427 0
-4.75458 2.7490499 298.789 0.42889753 -0.16546012 -0.88807088 0
-4.6737199 -2.96455 302.19101 -0.22542101 -0.83448607 -0.50281042 0
-4.6483302 -1.48991 301.23001 -0.4126462 -0.4884406 -0.76886207 0
-4.6189299 4.0046802 299.18701 0.72665083 0.23284581 -0.64634466 0
-4.59899 -3.07355 302.33401 -0.10149574 -0.99376768 -0.0460908 0
-4.5644102 4.5935602 299.42001 0.65502262 0.22846912 -0.72024113 0
-4.52881 -0.105251 300.302 -0.36951971 -0.47790107 -0.79691011 0
-4.5082698 -2.3529501 301.65201 -0.42629451 -0.51544505 -0.74336356 0
-4.46208 0.58046001 299.862 -0.28237382 -0.47743082 -0.83206058 0
-4.44099 -0.89790303 300.733 -0.41458181 -0.47150904 -0.77833229 0
-4.3805199 5.7448401 299.90399 0.80132931 0.30150121 -0.51668978 0
-4.37467 5.3541698 299.815 0.62222445 0.21806957 -0.75185263 0
-4.2983799 2.07357 299.198 0.24287251 -0.13058826 -0.96122819 0
-4.2722902 3.4795499 299.38501 0.711739 0.20429036 -0.67208111 0
-4.2449198 -1.45209 300.979 -0.42178571 -0.47282159 -0.77365142 0
-4.23036 2.9713199 299.259 0.69163853 0.1141514 -0.71316594 0
-4.2248201 0.80066699 299.62799 -0.0014124658 -0.36425155 -0.93129951 0
-4.15347 1.39912 299.38101 0.13434927 -0.26455721 -0.95496583 0
-4.1227002 0.029787101 300.039 -0.34059569 -0.46948245 -0.8146047 0
-4.0784998 4.6216602 299.83701 0.63381135 0.18701521 -0.75053877 0
-4.07688 -3.1052001 302.32901 -0.032715462 -0.99910593 -0.02677786 0
-4.0766602 -0.36502501 300.241 -0.32480669 -0.47605562 -0.81723416 0
-4.0532298 2.29721 299.39401 0.70307988 0.038720116 -0.71005595 0
-3.9054699 -1.1113501 300.59698 -0.34005028 -0.48350519 -0.80659068 0
-3.8952701 3.1877301 299.67499 0.70515251 0.1550474 -0.69189614 0
-3.88887 -1.52722 300.83401 -0.32986426 -0.46082047 -0.82391387 0
-3.85326 -2.2607701 301.21301 -0.40217644 -0.49269342 -0.7716912 0
-3.8481801 2.07269 299.573 0.66597229 -0.017225277 -0.74577755 0
-3.84496 -2.9879 301.74301 -0.023745274 -0.99205345 -0.12355628 0
-3.81422 3.7598 299.88599 0.68338287 0.16294609 -0.71164346 0
-3.7748201 -0.099161103 299.96799 -0.30017015 -0.40527982 -0.86350805 0
-3.7747099 -1.938 301.01001 -0.33038387 -0.41924948 -0.84562188 0
-3.7231801 2.8032999 299.79401 0.7301116 0.084119886 -0.67813045 0
-3.70362 1.3221999 299.608 0.391056 -0.052162543 -0.9188875 0
-3.7021401 0.047567401 299.86801 -0.30017015 -0.40527982 -0.86350805 0
-3.69787 -3.01366 301.737 -0.023745274 -0.99205345 -0.12355628 0
-3.6257601 -1.22537 300.57501 -0.16152376 -0.46911165 -0.86824208 0
-3.5813899 1.7330101 299.78601 0.71555948 0.124892 -0.68729663 0
-3.5511601 -2.99948 301.64401 -0.12103373 -0.99264812 0.00072636665 0
-3.5499599 -2.2736199 301.10199 -0.23783152 -0.45002553 -0.86076313 0
-3.5026901 2.2506499 299.96201 0.72045046 0.10028878 -0.68621665 0
-3.4760399 -0.248665 299.97 -0.22948736 -0.55389911 -0.80033201 0
-3.4394701 -1.52859 300.69901 -0.14936754 -0.47893241 -0.86505091 0
-3.4326899 1.13465 299.81699 0.6354174 0.062543258 -0.7696318 0
-3.37644 3.34691 300.23199 0.70086503 0.11927801 -0.70325029 0
-3.2499199 -3.0710101 301.73401 -0.086427681 -0.99606347 0.019693296 0
-3.1881499 2.95363 300.36899 0.7224679 0.082832009 -0.68642479 0
-3.17664 -1.14902 300.474 0.025460565 -0.39846304 -0.91683096 0
-3.14692 0.459694 299.99301 0.60823995 -0.12444475 -0.78393728 0
-3.11604 3.7606201 300.54999 0.78340012 0.1512205 -0.60284042 0
-3.0757699 1.63241 300.30801 0.70432472 0.14345692 -0.6952315 0
-3.0453801 1.04124 300.19299 0.69744921 0.14365499 -0.70208818 0
-3.0272999 -1.30074 300.552 0.025460565 -0.39846304 -0.91683096 0
-3.0225401 2.37238 300.48401 0.70062941 0.09245117 -0.70751059 0
-2.87678 -2.3510499 300.98801 -0.057511475 -0.37104261 -0.92683321 0
-2.8671 0.797472 300.32001 0.69346362 0.11567496 -0.71114522 0
-2.7653699 1.26579 300.51001 0.67163908 0.15745826 -0.72395289 0
-2.6692901 -0.214453 300.43799 0.67212188 -0.025127893 -0.74001408 0
-2.6120501 0.47835699 300.53101 0.70867002 0.049856339 -0.70377636 0
-2.55762 -0.62658697 300.612 0.71282971 -0.13420279 -0.68837738 0
-2.50741 -1.6752501 300.82599 0.68253005 -0.073369645 -0.72716546 0
-2.50458 -2.7869699 301.19299 0.25163817 -0.54775655 -0.79789782 0
-2.50209 2.4661 300.978 0.66921908 0.061825112 -0.74048865 0
-2.44449 2.1475599 301.005 0.66877156 0.097950183 -0.73698735 0
-2.4212 1.16267 300.81 0.69822228 0.11457398 -0.706653 0
-2.4116001 1.64015 300.91699 0.67161739 0.15824957 -0.72380054 0
-2.39779 -0.327869 300.75299 0.73983103 -0.079386808 -0.66809261 0
-2.3599601 2.8220401 301.125 0.94374305 0.0035337771 -0.33066085 0
-2.3570499 -2.7945299 301.17801 0.25163817 -0.54775655 -0.79789782 0
-2.2710299 -1.34929 301.01501 0.69001698 -0.075863905 -0.71980643 0
-2.2526901 0.108227 300.879 0.71720719 0.013801882 -0.69672328 0
-2.23961 1.97841 301.15201 0.70048356 0.16114345 -0.69523776 0
-2.1310501 0.66671801 301.035 0.70434719 0.061612345 -0.70717674 0
-2.1224899 -1.77161 301.202 0.71529192 -0.053156506 -0.69680119 0
-2.1147799 -0.73864001 301.11499 0.73546445 -0.076019168 -0.67328531 0
-1.9078799 0.366018 301.23901 0.71230227 0.040828269 -0.70068437 0
-1.8734699 1.28491 301.34299 0.66235197 0.17129554 -0.72934741 0
