# .PCD v0.7 - Point Cloud Data file format
VERSION 0.7
FIELDS x y z normal_x normal_y normal_z curvature
SIZE 4 4 4 4 4 4 4
TYPE F F F F F F F
COUNT 1 1 1 1 1 1 1
WIDTH 490
HEIGHT 1
VIEWPOINT 0 0 0 1 0 0 0
POINTS 490
DATA ascii
-8.4156199 57.631001 335.25 -0.25352016 0.25570771 0.93292075 0
-8.4134398 55.4949 336.37701 -0.5613088 0.32058191 0.76299387 0
-8.3153095 55.515598 336.56699 -0.6429143 0.52473801 0.5579527 0
-8.2613401 55.053799 337.15399 -0.59450388 0.74393493 0.30516544 0
-8.2189398 58.2033 335.19501 -0.30962357 0.64566612 0.6980319 0
-8.1913004 58.061001 335.34601 -0.10905316 0.33390823 0.93627596 0
-8.0378599 56.930302 335.99399 -0.18511504 0.50040781 0.84576857 0
-7.9695401 57.66 335.603 -0.080761515 0.69042754 0.71887922 0
-7.9570098 50.938099 339.561 -0.50438297 0.085277937 0.85925865 0
-7.9251699 52.1371 338.88699 -0.5047667 0.48930633 0.71118903 0
-7.9073901 51.1595 339.55499 -0.44228968 0.32920742 0.83426756 0
-7.9045401 54.089802 337.948 -0.59201217 0.30624399 0.7454772 0
-7.8958101 50.638401 339.66599 -0.50438297 0.085277937 0.85925865 0
-7.89536 57.306801 335.90601 0.25166672 0.57576281 0.77792096 0
-7.8938799 57.087299 336.02399 0.4463909 0.46424335 0.76499236 0
-7.8931499 58.784401 334.797 0.069669016 0.64221543 0.7633515 0
-7.8922501 59.462799 334.008 0.56573945 0.72208256 0.39816535 0
-7.8920398 55.360298 337.13599 -0.29890874 0.58386725 0.75481957 0
-7.8916101 56.4104 336.42801 -0.13820206 0.53759187 0.83180237 0
-7.8915901 55.206402 337.28 -0.34165019 0.68470651 0.64377958 0
-7.8911901 56.110901 336.58701 0.1324515 0.46758762 0.87396705 0
-7.8898001 54.535599 337.77899 0.13734229 0.45054355 0.88212675 0
-7.8892498 55.808899 336.75 -0.50295544 0.45042765 0.73766577 0
-7.8845901 52.439999 338.742 -0.56436998 0.39915645 0.72260684 0
-7.8645802 51.754002 339.24899 -0.50804758 0.41982198 0.75208849 0
-7.8319302 52.8685 338.58701 -0.3294771 0.3904402 0.8596518 0
-7.81954 59.334499 334.16501 0.51348394 0.73032069 0.45051742 0
-7.8116899 53.572201 338.27899 -0.54682612 0.39437392 0.73854613 0
-7.75 57.077099 335.97501 0.4463909 0.46424335 0.76499236 0
-7.7481499 59.4487 334.00201 0.56573945 0.72208256 0.39816535 0
-7.7450299 55.201099 337.242 -0.34165019 0.68470651 0.64377958 0
-7.7448602 56.406799 336.40701 0.1324515 0.46758762 0.87396705 0
-7.7447801 55.3536 337.09601 0.19348328 0.63920224 0.7443015 0
-7.7437901 56.107399 336.569 0.1324515 0.46758762 0.87396705 0
-7.7423601 54.602699 337.73901 0.13734229 0.45054355 0.88212675 0
-7.7419 55.803101 336.729 0.42867187 0.53505921 0.72797811 0
-7.7414498 59.0233 334.452 0.29766792 0.67732185 0.672777 0
-7.7105699 58.658501 334.758 0.27558017 0.70560342 0.65282416 0
-7.7083702 58.5079 334.84698 0.069669016 0.64221543 0.7633515 0
-7.6919498 57.845901 335.28299 0.50930756 0.6392023 0.57621711 0
-7.6697998 57.660702 335.40399 0.51693553 0.60035175 0.61020935 0
-7.59549 53.454899 338.51599 -0.28126094 0.43580049 0.85496795 0
-7.5932598 59.470699 333.565 0.39047989 0.86666375 0.31051463 0
-7.59202 54.005501 338.082 0.019368352 0.54502195 0.83819801 0
-7.59023 52.9599 338.86401 -0.24962428 0.36176202 0.89822936 0
-7.5891399 52.208401 339.25699 -0.35849395 0.59562635 0.71882635 0
-7.4655399 50.038399 340.17801 -0.53212738 0.24477491 0.8105095 0
-7.4412599 51.606602 339.59299 -0.17097025 0.46418816 0.86907911 0
-7.2988801 58.9944 334.15601 0.48368707 0.63155788 0.605955 0
-7.29743 49.139198 340.36499 -0.52899188 -0.0059676608 0.84860593 0
-7.2968702 52.6455 338.95801 -0.11662491 0.54004371 0.83351749 0
-7.2856302 50.4086 340.25201 -0.43963945 0.38646069 0.81078064 0
-7.2853098 50.036999 340.34601 -0.53212738 0.24477491 0.8105095 0
-7.2764902 56.894699 335.67899 0.57604849 0.52997655 0.6223287 0
-7.2546401 57.387199 335.21301 0.61561888 0.5228703 0.58959311 0
-7.22124 59.316399 333.57001 0.45150262 0.78285587 0.42811459 0
-7.2186799 51.010101 339.94 0.1703971 0.52684247 0.83270752 0
-7.2181902 49.438999 340.42099 -0.46901229 -0.020430991 0.88295531 0
-7.21175 50.562 340.19699 -0.0060624154 0.40674952 0.91351962 0
-7.2053099 55.645699 336.51801 0.48790583 0.49051413 0.72204143 0
-7.1394701 50.405499 340.284 -0.43963945 0.38646069 0.81078064 0
-7.11272 59.0494 333.95499 0.51858872 0.68746418 0.5083884 0
-7.0773702 55.817501 336.293 0.5354352 0.5127176 0.67114067 0
-6.99578 50.634102 340.10501 0.13096182 0.51337528 0.84811252 0
-6.9925399 49.962601 340.53 -0.54970706 0.140175 0.82351267 0
-6.9883499 55.5182 336.418 0.59521806 0.4662343 0.65447766 0
-6.96629 57.2519 335.03799 0.55305672 0.51275778 0.65666413 0
-6.9486899 56.868599 335.37 0.58223778 0.52851534 0.61779499 0
-6.92383 59.183102 333.56601 0.49937502 0.68866068 0.52571011 0
-6.9197302 58.774799 334.005 0.53297079 0.62837934 0.56664056 0
-6.8889298 57.682999 334.685 0.55475003 0.46776357 0.68807673 0
-6.7594199 55.890499 335.948 0.60778016 0.45463333 0.65108508 0
-6.7512898 56.440601 335.548 0.58494461 0.47996712 0.65381294 0
-6.6907501 49.137299 340.702 -0.36031598 0.076416999 0.92969501 0
-6.6895599 57.318001 334.767 0.51249242 0.50152975 0.69700748 0
-6.6514301 48.239101 340.755 -0.49704063 0.15793847 0.85323268 0
-6.6167798 49.362598 340.66501 -0.31521842 0.047337905 0.94783777 0
-6.54669 58.734402 333.733 0.56198889 0.81302738 0.15216774 0
-6.4850798 58.1595 334.065 0.50051862 0.45793855 0.73469269 0
-6.4703999 57.236801 334.67599 0.51249242 0.50152975 0.69700748 0
-6.46277 58.807098 333.59601 0.56198889 0.81302738 0.15216774 0
-6.3941698 49.2127 340.67001 0.24934727 0.35849771 0.89961398 0
-6.3938298 48.911701 340.77899 0.24934727 0.35849771 0.89961398 0
-6.3782802 57.694901 334.28601 0.52633786 0.47175676 0.70739943 0
-6.3727798 55.912899 335.55899 0.60377365 0.444042 0.66203028 0
-6.24507 48.606998 340.867 0.10286428 0.070919976 0.99216396 0
-6.2435699 47.338001 341.37601 -0.13106598 0.26149449 0.95626479 0
-6.2116399 56.783501 334.82999 0.53629613 0.4967109 0.68239635 0
-6.0970602 58.4967 333.59399 0.4628931 0.49782702 0.73341542 0
-6.0929599 48.005699 341.17899 0.08045911 0.4479546 0.89042854 0
-6.0925899 47.710899 341.34601 0.08045911 0.4479546 0.89042854 0
-6.0915399 47.0383 341.51999 0.0052899141 0.42365915 0.90580624 0
-6.0907202 47.4114 341.452 -0.13106598 0.26149449 0.95626479 0
-6.0624299 56.258801 335.06299 0.58645511 0.44493538 0.67683303 0
-5.9457798 48.007801 341.13599 0.08045911 0.4479546 0.89042854 0
-5.9436202 47.4058 341.45499 0.014444281 0.14789143 0.9888981 0
-5.9430099 57.389198 334.17401 0.5157218 0.45301425 0.72719264 0
-5.8787498 58.374298 333.54901 0.46181291 0.43761313 0.77150732 0
-5.87392 58.208199 333.64099 0.46181291 0.43761313 0.77150732 0
-5.7969599 47.557899 341.38501 0.014444281 0.14789143 0.9888981 0
-5.7941799 57.8382 333.79401 0.47262889 0.4209972 0.77419847 0
-5.7920599 46.8106 341.70801 -0.073045395 0.47946942 0.87451327 0
-5.6219902 56.2304 334.71399 0.56096196 0.46338111 0.68600267 0
-5.56844 57.988701 333.57199 0.47262889 0.4209972 0.77419847 0
-5.56815 46.361301 341.94199 0.039665096 0.42866978 0.9025901 0
-5.5020399 58.275299 332.978 0.16070043 0.9242667 0.34627518 0
-5.4934502 46.212399 342.04401 -0.17126495 0.56420553 0.80767596 0
-5.42137 58.123001 332.81799 -0.58131355 0.78735447 0.20529847 0
-5.41994 56.6563 334.26199 0.5277856 0.47246546 0.70584613 0
-5.3800502 57.689701 333.616 0.47877207 0.42806554 0.76650977 0
-5.3562002 58.246899 333.04401 0.16070043 0.9242667 0.34627518 0
-5.3463802 57.985298 333.44199 0.42192924 0.71259212 0.56052494 0
-5.1665502 57.335899 333.69299 0.43613788 0.41061196 0.80073816 0
-5.12642 56.274502 334.29199 0.52779984 0.4640539 0.71139395 0
-5.11834 58.162201 332.966 0.34721521 0.89000213 0.29552978 0
-5.11446 56.679901 334.03299 0.45920938 0.44198331 0.77056962 0
-5.0441799 45.008099 342.62799 -0.2190621 0.22516218 0.94937545 0
-4.89569 45.0098 342.58899 0.14575295 0.13451999 0.98013288 0
-4.8112502 57.470798 333.383 0.46440381 0.50947016 0.72440958 0
-4.7525902 57.752102 333.26401 0.53356433 0.57075745 0.62413543 0
-4.7515702 57.934898 332.96701 0.41972667 0.62523109 0.65796322 0
-4.7449098 45.0867 342.427 0.14575295 0.13451999 0.98013288 0
-4.6015401 56.7631 333.715 0.45253041 0.4549945 0.76693952 0
-4.59373 43.8125 343.15302 -0.077049285 0.38906455 0.9179827 0
-4.5799298 57.177299 333.44901 0.52292335 0.43697938 0.73184711 0
-4.4458399 43.656399 343.18399 -0.075305693 0.38803628 0.91856241 0
-4.4432902 43.360001 343.37 0.041536439 0.23091592 0.97208673 0
-4.2934999 42.610298 343.776 0.012890643 0.44785696 0.89401227 0
-4.2766199 56.777901 333.47601 0.53757977 0.45514846 0.70982242 0
-4.2192798 57.565601 332.66599 0.70779544 0.69614774 0.12001634 0
-4.1934199 57.541199 332.96201 0.72957438 0.67394716 0.11626017 0
-4.14747 42.6045 343.71201 0.012890643 0.44785696 0.89401227 0
-4.14359 42.461201 343.79501 0.012890643 0.44785696 0.89401227 0
-4.0682602 42.006401 344.034 0.073782183 0.32706815 0.94211602 0
-3.98613 41.402302 344.34 0.03191255 0.37895033 0.92486662 0
-3.6924 40.803101 344.64001 -0.35317132 0.39658865 0.84734142 0
-3.62147 56.977798 332.28799 0.36967543 0.82199818 0.43319631 0
-3.5620899 57.034401 332.57001 0.4651067 0.78955692 0.40034437 0
-3.3928699 40.2085 344.88699 0.0017951083 0.17077868 0.98530775 0
-3.3207099 56.918098 332.36801 0.34773734 0.82089257 0.45300561 0
-3.3177299 40.064899 344.97299 -0.34601122 0.14116617 0.92754966 0
-3.0959001 39.601101 345.19901 0.2069411 0.48977131 0.84693533 0
-3.0889699 39.0075 345.479 -0.072494797 0.39603338 0.91536993 0
-3.0162201 38.863899 345.582 -0.14379808 0.44245026 0.88518918 0
-2.9423299 39.0121 345.51599 0.082674012 0.29093754 0.95316333 0
-2.8392501 37.810902 346.203 -0.14241956 0.38347241 0.91250509 0
-2.7932899 56.718399 332.36499 0.51901704 0.6903193 0.50406408 0
-2.7892301 38.4011 345.87701 -0.24824779 0.47795865 0.84257257 0
-2.66255 35.2813 347.30701 -0.51257592 0.30973649 0.8008303 0
-2.6379099 37.057999 346.75101 0.048684314 0.5556556 0.82998598 0
-2.5691099 37.958801 346.16901 -0.09117239 0.45790422 0.88431406 0
-2.513 35.4888 347.38599 -0.51257592 0.30973649 0.8008303 0
-2.50633 35.148998 347.535 -0.54678845 0.37600917 0.74809057 0
-2.4900801 36.611698 347.04999 -0.48437297 0.34693363 0.80313128 0
-2.4897001 36.087299 347.17499 -0.24451746 0.30748194 0.91960102 0
-2.3564999 56.400501 332.302 0.52459073 0.67473161 0.51917416 0
-2.34517 37.054199 346.767 0.048684314 0.5556556 0.82998598 0
-2.3401899 36.6059 347.047 -0.48437297 0.34693363 0.80313128 0
-2.1937599 35.865398 347.39499 -0.12347473 0.48584321 0.86528051 0
-2.0483999 56.186699 332.383 0.34903643 0.76542878 0.54064071 0
-2.0439501 34.965199 347.97501 -0.20060448 0.43660107 0.87700474 0
-2.0423801 36.009201 347.31699 0.09749712 0.60900456 0.78715169 0
-2.04111 35.406399 347.702 -0.27502966 0.51626718 0.81106526 0
-1.93727 33.537201 348.55801 -0.52274013 0.25307944 0.81405991 0
-1.89379 33.987801 348.43201 -0.35502732 0.37473595 0.85646284 0
-1.89 34.286701 348.29901 -0.32992306 0.39380738 0.85794318 0
-1.88889 34.806599 348.08499 -0.19295931 0.42311794 0.88528973 0
-1.81519 33.719601 348.60699 -0.52274013 0.25307944 0.81405991 0
-1.74704 56.051601 332.23801 0.62515414 0.74625617 0.22865693 0
-1.74312 34.804298 348.09799 0.039026223 0.020512724 0.99902761 0
-1.73946 33.910999 348.54999 -0.35502732 0.37473595 0.85646284 0
-1.59786 34.952801 347.98599 0.039026223 0.020512724 0.99902761 0
-1.59231 34.210098 348.414 0.012549478 0.47685435 0.87889272 0
-1.44286 33.607899 348.84698 -0.065687396 0.65816265 0.75000471 0
-1.36729 33.2724 349.09201 -0.49618956 0.39720449 0.77202624 0
-1.28406 33.000702 349.302 -0.49726108 0.41346124 0.76274586 0
-1.28373 32.112999 349.65201 -0.52445561 0.32555896 0.78673863 0
-1.20567 31.7022 349.84299 -0.37241423 0.38222656 0.84570116 0
-1.1811399 33.228199 349.164 -0.49618956 0.39720449 0.77202624 0
-1.14952 55.803398 331.841 0.24924555 0.89403057 0.37227136 0
-1.14101 33.000401 349.33401 -0.49726108 0.41346124 0.76274586 0
-0.84629798 55.683102 331.76599 0.34082523 0.78250837 0.52107465 0
-0.84043902 31.806101 350.142 -0.36213616 0.51198602 0.77892727 0
-0.68831301 31.206301 350.46301 -0.50933236 0.37226164 0.77588779 0
-0.54177898 31.205799 350.45099 -0.50933236 0.37226164 0.77588779 0
-0.31718099 30.6052 350.806 -0.079250783 0.35183349 0.93270171 0
-0.240089 30.304399 350.987 -0.22944908 0.49425998 0.83848685 0
-0.092369102 30.007401 351.19699 -0.25287673 0.51590931 0.81846863 0
-0.083614297 29.2621 351.47601 -0.42534617 0.22113974 0.87759775 0
-0.081394203 29.4086 351.44299 -0.24581024 0.40150139 0.88225502 0
-0.019455001 55.183102 331.16901 0.23319195 0.97236204 -0.011559187 0
0.047409099 55.285801 331.612 0.23319195 0.97236204 -0.011559187 0
0.206093 55.1409 331.16699 0.21032824 0.97494912 -0.072361857 0
0.20627999 29.408899 351.51599 -0.41340423 0.29420695 0.86170715 0
0.208195 29.2579 351.599 -0.40802279 0.14245957 0.90178859 0
0.31476599 55.094002 331.69299 0.29423788 0.95572817 0.0027757876 0
0.507038 28.805099 351.80801 -0.083638482 0.38356915 0.91971695 0
0.50854498 28.363001 351.957 -0.44084048 0.2924197 0.84861678 0
0.58895898 27.445801 352.14999 -0.43410566 0.16394652 0.88581818 0
0.64310098 55.018398 331.565 0.48200262 0.83695644 0.25918603 0
0.72911501 55.0495 331.168 0.41320899 0.84488451 0.3397477 0
0.806786 28.204 352.108 0.0087651405 0.31515816 0.94899869 0
0.81440699 28.040899 352.19699 -0.28407773 0.23868065 0.92861801 0
1.10544 27.607 352.409 -0.29451978 0.30364582 0.90612215 0
1.18753 27.162201 352.53299 -0.066729635 0.11364673 0.99127775 0
1.25341 27.6073 352.37701 0.12842149 0.44001031 0.88876253 0
1.5563 27.009899 352.612 -0.1066764 0.39227465 0.91364145 0
1.56146 26.3395 352.67401 -0.43129581 0.12119597 0.89403325 0
1.70767 26.5632 352.78601 -0.43129581 0.12119597 0.89403325 0
1.77551 54.492599 331.06299 0.5172379 0.77127761 0.37093914 0
1.8563401 26.561399 352.763 -0.52506787 0.48912165 0.69646519 0
1.8611 26.4051 352.849 -0.42525849 0.13208714 0.89538157 0
2.15538 54.3414 330.56799 0.42424428 0.900159 -0.098643564 0
2.3050301 25.9543 353.10999 0.068558596 0.5464468 0.83468294 0
2.3087299 54.1399 331.16901 0.52796113 0.75668186 0.38560286 0
2.31932 25.362301 353.37799 -0.17032063 0.34435841 0.92325956 0
2.45681 25.854601 353.13199 -0.013436036 0.47640049 0.87912571 0
2.68203 54.256401 330.56601 0.1459859 0.98853654 -0.038518213 0
2.7558801 25.2069 353.48001 0.16652642 0.37515369 0.91188192 0
2.75772 25.3638 353.383 0.13193083 0.41131854 0.9018932 0
2.91045 24.464199 353.70801 -0.46375373 -0.050637137 0.88451588 0
2.91049 24.6122 353.69101 -0.13001989 0.17610124 0.97574753 0
3.0546 54.183201 330.569 0.15580088 0.98726994 -0.032002192 0
3.0566299 24.6106 353.71701 -0.13001989 0.17610124 0.97574753 0
3.11868 54.106701 330.70499 0.34292054 0.8356877 0.42898902 0
3.50492 23.863899 353.84201 -0.35264248 -0.19042236 0.91617829 0
3.5069599 24.0142 353.82101 -0.32409772 -0.16034506 0.93233585 0
3.5775199 53.9394 330.34299 0.50530559 0.8172434 -0.27709115 0
3.6550801 24.0114 353.83099 -0.38785288 -0.16300231 0.90719372 0
3.7283599 53.914299 330.564 0.40641212 0.84304756 0.35227829 0
4.2512999 53.619598 330.60901 0.38740262 0.92147225 0.02842715 0
4.25388 23.4095 353.97601 -0.035538398 0.06915804 0.9969725 0
4.4061298 23.2628 353.99899 -0.035538398 0.06915804 0.9969725 0
4.5532799 53.477798 330.59698 0.22293982 0.96983743 0.098555513 0
4.5612001 22.6684 353.96799 -0.026648983 -0.15197025 0.98802572 0
4.70538 22.960699 354.04401 -0.11656915 -0.046462402 0.99209517 0
4.7093 22.666599 354.01801 -0.026648983 -0.15197025 0.98802572 0
4.8520398 22.9566 353.99701 -0.11656915 -0.046462402 0.99209517 0
4.85571 22.8113 354.048 -0.026648983 -0.15197025 0.98802572 0
4.8569102 22.289101 353.92499 -0.28364867 -0.20652945 0.93642354 0
5.0036602 53.5327 330.263 0.18927963 0.97828317 0.084470592 0
5.0044398 53.479301 329.97198 0.1917412 0.98067015 -0.039003916 0
5.0815501 53.365799 330.41299 0.29294768 0.91672492 0.27165619 0
5.3072701 22.363701 354.11301 -0.15998043 0.22610435 0.96087623 0
5.4553099 53.363499 329.96701 0.51829231 0.84490412 0.13232584 0
5.5315499 22.212999 354.14999 -0.074912071 0.027665546 0.99680632 0
5.9101601 21.766399 354.23499 -0.17549105 0.085140288 0.98079252 0
6.2045398 53.225498 329.965 0.32402697 0.93879753 0.11690024 0
6.3537002 21.608801 354.23801 -0.068194412 -0.15879239 0.98495406 0
7.0325198 52.861198 329.983 0.30169067 0.91709948 0.260598 0
7.1795301 52.7981 329.37201 0.33847213 0.90615767 0.25360385 0
7.2558699 52.751202 329.979 0.30169067 0.91709948 0.260598 0
7.4806199 52.8657 329.66501 0.33847213 0.90615767 0.25360385 0
7.7814002 52.722301 329.367 0.33543754 0.93017918 -0.14915894 0
8.0068903 20.564301 354.198 0.046611216 0.4037821 0.91366702 0
8.0808897 52.708401 329.36801 0.5529483 0.83248687 -0.034839954 0
8.0822001 21.014601 353.93201 0.16058837 0.35686475 0.9202494 0
8.0996304 19.5126 353.875 -0.32556972 -0.49339616 0.80657583 0
8.3077002 20.1147 354.28 -0.16790372 -0.11005393 0.97964102 0
8.3845997 19.668301 354.11801 -0.34269208 -0.24053194 0.90813357 0
8.45539 20.410101 354.211 0.061389968 0.2058856 0.97664857 0
8.7385998 18.418301 353.297 -0.28975788 -0.54655242 0.78569764 0
8.8687296 19.8876 354.32401 -0.17430282 -0.1122641 0.9782716 0
8.8975897 19.068399 353.875 -0.32431647 -0.57969743 0.747509 0
8.9808702 52.634899 329.367 -0.039435264 0.99888074 0.026117045 0
8.9824104 19.664801 354.28299 -0.13466156 0.10706109 0.98509097 0
9.2072096 52.593601 329.36499 0.061373852 0.99166209 0.11331201 0
9.2823296 18.3901 353.48401 -0.27992386 -0.59087211 0.75664574 0
9.3559704 19.8116 354.33899 -0.021155596 0.16358896 0.98630172 0
9.4028597 18.7285 353.79401 -0.2228986 -0.6131171 0.75789422 0
9.4298801 18.1595 353.36401 -0.10769093 -0.5781253 0.80881011 0
9.43291 17.9426 353.20499 -0.16938512 -0.58846825 0.79057813 0
9.5068398 19.3641 354.388 0.0011611817 -0.077411257 0.99699855 0
9.8064203 17.867201 353.255 0.1376293 -0.69458389 0.70612419 0
9.8068199 19.664101 354.37701 0.13065828 -0.04912987 0.9902094 0
9.8071299 19.0737 354.19299 0.15105826 -0.40564308 0.90146273 0
9.9173899 17.641701 352.76099 0.2361522 -0.81744945 0.52536511 0
9.9265404 18.2255 352.15601 0.860304 -0.38596213 -0.33303195 0
9.9938202 18.6929 353.91599 0.0041916491 -0.69929051 0.71482533 0
9.9972496 18.1024 353.362 0.13775459 -0.60147274 0.78692704 0
10.0216 18.4841 353.73099 0.017710768 -0.70486343 0.70912188 0
10.1007 18.388599 352.521 0.92273253 -0.3313238 -0.19694962 0
10.1259 18.689899 352.147 0.89201254 -0.37689018 -0.24953447 0
10.2277 18.328199 353.35699 0.84431416 -0.47760499 0.24295495 0
10.247 19.3631 354.229 0.34931111 -0.22154352 0.91043955 0
10.2517 19.070299 354.14099 0.36434543 -0.44651142 0.81723922 0
10.2526 18.485901 353.505 0.84275907 -0.31443259 0.43690878 0
10.2801 19.2896 351.79099 0.90177554 -0.3604477 -0.23849183 0
10.3495 18.991301 352.54099 0.9182561 -0.34983012 -0.18553871 0
10.367 24.6098 349.311 0.68140262 0.45783404 0.57103276 0
10.4163 24.6112 349.16299 0.68140262 0.45783404 0.57103276 0
10.4297 18.9522 353.19699 0.90371281 -0.42751569 -0.023098508 0
10.446 25.063801 348.565 0.85850751 0.37335777 0.35152358 0
10.4984 19.0644 353.965 0.36434543 -0.44651142 0.81723922 0
10.5211 25.6621 347.96201 0.89478296 -0.022169404 0.44595066 0
10.5242 19.8314 352.005 0.93265378 -0.29524827 -0.20732903 0
10.5284 24.162701 349.16599 0.86642116 0.39729995 0.30243537 0
10.5548 22.323601 351.41299 0.68877918 0.5081256 0.5170992 0
10.5548 52.438301 329.36401 0.2946595 0.88282913 0.36577103 0
10.5548 22.323601 351.41299 0.68877918 0.5081256 0.5170992 0
10.5548 52.438301 329.36401 0.2946595 0.88282913 0.36577103 0
10.5742 23.8626 349.76401 0.82438564 0.47664365 0.30528533 0
10.6173 19.738701 352.54001 0.94422227 -0.29485962 -0.14663601 0
10.6181 28.209499 345.76099 0.92517364 0.10124027 0.36579251 0
10.6207 26.1134 347.36301 0.99471182 0.10220797 0.010098565 0
10.6294 28.4317 345.55399 0.89444309 0.42873207 0.12712348 0
10.639 20.1847 353.35699 0.75110906 0.37010002 0.54668188 0
10.6784 19.739201 353.36401 0.81787008 0.28856313 0.49781504 0
10.7016 26.861099 346.76199 0.87754571 0.43455568 0.20266929 0
10.7082 28.9657 344.96701 0.74981534 0.45426607 0.48106059 0
10.7109 27.577801 345.58499 0.90825957 0.20984894 0.36197782 0
10.7162 28.1306 344.89099 0.99980175 0.0031297591 -0.019662367 0
10.7316 27.4606 346.16 0.78518593 0.50645977 0.35634467 0
10.7509 30.758699 343.54999 0.85157549 0.26239935 0.4538345 0
10.757 28.7379 344.814 0.97876245 0.014871585 0.20445761 0
10.7706 20.1894 352.61499 0.95783073 -0.19851094 -0.20773467 0
10.7809 28.0618 345.561 0.97483402 0.083398044 0.20674483 0
10.8046 21.150999 352.33701 0.9259336 0.053779963 0.37383774 0
10.8077 29.264601 344.36401 0.97910672 0.096040569 0.17923796 0
10.8088 21.7565 351.71899 0.88873279 0.27328697 0.36806017 0
10.8112 21.315001 352.15601 0.90589559 0.29672402 0.30217224 0
10.8118 23.259899 349.767 0.9294942 0.34641606 0.12663531 0
10.8131 29.637501 344.28201 0.67948198 0.22812007 0.69732732 0
10.8134 20.264999 352.83899 0.93469453 -0.32343224 0.14743721 0
10.8246 20.41 352.909 0.93735087 0.23958081 0.25293148 0
10.8253 21.898899 351.56201 0.81922394 0.29819006 0.48985186 0
10.8321 20.789801 351.94101 0.99634796 -0.00085354038 0.085381344 0
10.8378 20.5625 352.763 0.78559995 0.23090316 0.57403523 0
10.8379 30.5385 343.65701 0.87978995 0.28781763 0.37832612 0
10.8536 52.329498 329.35901 0.57879853 0.81546098 0.0039576874 0
10.8693 22.815201 350.58899 0.71618825 0.53618068 0.44674903 0
10.8965 22.957199 350.35999 0.85871816 0.46146387 0.22283216 0
10.8982 30.761999 343.46201 0.85157549 0.26239935 0.4538345 0
10.9231 30.0126 343.91199 0.71536964 0.38574937 0.58261794 0
10.9558 29.9389 343.763 0.71536964 0.38574937 0.58261794 0
10.9832 22.209101 351.10999 0.66754174 0.53199029 0.52093601 0
10.9891 22.358801 350.95999 0.65914363 0.51108646 0.55165237 0
11.0023 22.66 350.36401 0.8013829 0.56032169 0.20934451 0
11.0076 52.157398 328.76199 0.3233391 0.94281173 -0.080980331 0
11.0116 31.0973 343.08499 0.76628506 0.4733111 0.43449265 0
11.0617 30.4655 343.16501 0.98016602 -0.0052571269 0.19810829 0
11.0838 30.915899 342.491 0.98901641 -0.094327845 0.1137927 0
11.1738 31.3626 342.56201 0.93886858 0.10314966 0.32846001 0
11.2532 31.777599 341.98199 0.88433576 -0.10098974 0.45579749 0
11.2749 32.261299 341.961 0.6316511 0.28310961 0.72171038 0
11.407 32.710701 341.508 0.6464622 -0.061927546 0.76042855 0
11.4542 52.058399 329.32599 0.41533867 0.72794151 0.54552269 0
11.4709 33.09 341.216 0.77012277 0.19767702 0.60649377 0
11.476 32.7897 341.21301 0.6464622 -0.061927546 0.76042855 0
11.7561 52.148998 328.76599 0.054126862 0.98767769 -0.1468437 0
11.7989 34.065601 340.164 0.90680021 -0.095754407 0.41054171 0
11.8775 35.265099 339.56699 0.6934498 0.24919474 0.67603946 0
11.9235 34.665401 339.565 0.86461908 0.18163295 0.46844774 0
12.0012 35.264099 339.26401 0.82752854 0.15517849 0.53955179 0
12.0359 51.6633 329.45499 0.17752397 0.48964632 0.85365784 0
12.0403 35.636799 339.11099 0.98394758 0.071384616 0.16355839 0
12.1002 35.860699 338.95801 0.38946781 0.042547617 0.92005682 0
12.1543 50.824501 329.845 0.1917969 0.42681393 0.88376683 0
12.2302 36.4645 338.366 0.9406054 0.047463145 0.33616778 0
12.2303 37.210201 337.99899 0.62595958 0.3610751 0.69123036 0
12.299 51.720798 329.36499 0.18680461 0.46349707 0.86618388 0
12.3837 51.255199 329.59399 0.20077407 0.43831801 0.87610906 0
12.4298 38.487099 337.10599 0.60939705 0.52884674 0.59072524 0
12.4332 37.064201 337.76401 0.78686517 0.29496691 0.54206806 0
12.5067 52.017399 328.76501 0.063227318 0.98541743 0.15797076 0
12.614 38.1147 337.19901 0.57013369 0.2637116 0.77807701 0
12.6301 37.590302 337.27499 0.74602258 -0.04937803 0.66408741 0
12.6471 38.410702 337.04199 0.60939705 0.52884674 0.59072524 0
12.6495 37.813999 337.31201 0.74602258 -0.04937803 0.66408741 0
12.6857 37.740398 337.16199 0.74602258 -0.04937803 0.66408741 0
12.7677 51.010799 329.617 0.19980192 0.42760307 0.8816092 0
12.8 39.008801 336.642 0.80766833 0.074079737 0.58496505 0
12.8823 51.615299 329.29999 0.19623202 0.54582894 0.81459427 0
12.8909 38.266602 336.565 0.86955124 -0.23422432 0.43476388 0
12.9701 38.8629 336.561 0.86708778 0.017704964 0.49784067 0
13.0165 50.420502 329.83899 0.18045782 0.42478448 0.88712633 0
13.1343 50.036999 330.01999 0.1511184 0.47513449 0.86683935 0
13.1822 52.036301 328.76501 -0.020517506 0.80915767 0.58723325 0
13.2 39.6152 336.01599 0.56805396 0.22254184 0.79233187 0
13.2173 39.312901 336.10999 0.60556227 0.020950427 0.79552209 0
13.2526 39.913799 335.89899 0.60552782 0.2303998 0.76174271 0
13.3287 40.362999 335.633 0.85873365 0.17419589 0.48190489 0
13.3308 51.797199 329.14401 0.067829855 0.74338084 0.66542017 0
13.4911 50.469898 329.729 0.13162719 0.45163009 0.88244236 0
13.5704 40.6605 335.35599 0.70357299 0.070705086 0.70709676 0
13.7046 52.056702 328.76099 0.12381458 0.99099189 -0.051038966 0
13.7447 51.165501 329.35999 0.11189785 0.4111084 0.90469265 0
13.803 41.0382 334.94199 0.8943699 -0.17897947 0.409962 0
13.8037 41.413502 334.784 0.70741642 0.65932262 0.25466773 0
13.8189 49.887699 329.99899 0.13395236 0.47245899 0.87111384 0
13.8386 50.641399 329.591 0.090259507 0.44988355 0.88851452 0
13.8559 52.029301 328.76401 0.3702724 0.91527313 0.15866131 0
13.8563 49.1371 330.396 0.14429377 0.45751673 0.87741536 0
13.8956 41.2621 334.758 0.69441438 0.527134 0.48981467 0
13.9032 51.668301 329.103 0.26113129 0.55186909 0.79199177 0
14.0036 42.685902 334.073 0.55016869 0.38386968 0.74159187 0
14.0816 51.106998 329.35101 0.13548866 0.44898897 0.88320535 0
14.0823 51.683899 328.08801 0.059764463 0.85530567 -0.51466531 0
14.1523 42.3862 334.16901 0.71354532 0.28258547 0.64109164 0
14.2519 41.940601 334.15701 0.90346038 0.22121184 0.36718482 0
14.3822 51.586399 327.974 0.051138688 0.85847574 -0.51029813 0
14.4064 42.167301 333.85999 0.91703504 0.14480753 0.37158784 0
14.4491 42.911999 333.72699 0.63345814 0.17638415 0.75340521 0
14.5312 51.126701 327.198 0.043427769 0.85337216 -0.51949012 0
14.5316 51.013 329.349 0.11781277 0.51383173 0.84976298 0
14.5321 51.624599 328.97299 0.16654459 0.55047441 0.81807142 0
14.5955 43.062 333.55801 0.86008286 0.20365946 0.46773952 0
14.6439 51.6469 328.095 0.1266952 0.94815481 -0.29146326 0
14.7193 51.424999 327.715 0.032917902 0.86320221 -0.503784 0
14.7893 49.0158 330.328 0.11148041 0.44104153 0.89053607 0
14.7942 50.254101 329.70001 0.080720671 0.44050774 0.89411247 0
14.9347 50.9193 329.353 0.113501 0.45246661 0.88452899 0
14.9816 51.739498 328.76401 0.061893087 0.99808276 -0.00014316945 0
15.0193 50.916698 326.892 0.096352376 0.97633147 -0.19363129 0
15.0459 43.738602 333.09698 0.48046115 -0.10495337 0.87071341 0
15.052 44.036499 333.03601 0.49909964 0.18153939 0.84731519 0
15.1602 43.6707 332.952 0.48046115 -0.10495337 0.87071341 0
15.2062 50.636299 329.47299 0.11621842 0.45005587 0.88540554 0
15.2254 51.4603 327.811 0.043488793 0.84795457 -0.52828187 0
15.3565 49.812801 329.862 0.13086519 0.45395827 0.88136041 0
15.431 51.048599 329.215 0.13145846 0.5371694 0.83316725 0
15.453 44.118301 332.36401 0.81844443 -0.21320151 0.53356701 0
15.5338 44.713299 332.37701 0.63717914 0.16620961 0.75258034 0
15.5482 51.2113 327.466 0.060870565 0.84104192 -0.53753448 0
15.5808 51.644798 328.77301 0.29488134 0.90900433 0.29454389 0
15.5816 50.9384 327.04099 0.074393362 0.852763 -0.51697278 0
15.5817 51.6124 328.091 -0.099835753 0.98975831 -0.10203601 0
15.591 44.468201 331.21201 0.90544868 -0.42393762 0.020965392 0
15.6012 44.864498 332.22699 0.8398295 0.097381897 0.53404415 0
15.6146 44.491699 330.509 0.90094382 -0.43203473 -0.0405735 0
15.7107 45.088699 332.12 0.93390602 -0.13568737 0.33076948 0
15.7241 44.7869 331.61499 0.89480525 -0.41687363 0.15981223 0
15.7621 44.866199 329.96701 0.90859526 -0.40356934 -0.1076401 0
15.7869 50.823601 329.28299 0.17163509 0.48503628 0.85748541 0
15.8373 44.968102 330.83701 0.90739316 -0.41962674 0.02347553 0
15.8429 51.533901 328.79501 0.17084563 0.57943255 0.79691261 0
15.8816 51.567699 328.056 -0.1025087 0.99196637 -0.074126534 0
15.8821 50.786598 326.811 0.0067859236 0.89147514 -0.45301875 0
15.897 45.089699 330.41501 0.91052175 -0.41235593 -0.03021146 0
15.9173 50.4846 329.44501 0.24978518 0.47151408 0.84574336 0
15.9572 51.1278 329.04901 0.17671001 0.53559792 0.82577747 0
15.9576 48.992199 330.20099 0.22043788 0.44983822 0.86547834 0
15.9805 45.464199 331.763 0.77930307 -0.072556213 0.62243253 0
16.031601 49.4384 329.961 0.24024659 0.4350467 0.86776489 0
16.0317 50.9132 327.04001 0.13298061 0.83733553 -0.53026921 0
16.032301 51.624298 328.67801 0.15674019 0.96148843 0.22577105 0
16.0804 45.521702 330.96799 0.91930592 -0.39334628 0.012463906 0
16.106199 50.600601 326.366 0.47632137 0.86236095 -0.17161438 0
16.1078 49.8913 329.71201 0.25712144 0.45280433 0.8537311 0
16.1616 45.6912 330.64001 0.92482686 -0.38038817 -0.00026524122 0
16.167299 45.7276 330.341 0.89783466 -0.43240532 -0.083177738 0
16.1814 51.6437 328.16699 0.015794743 0.99854159 -0.05162577 0
16.181499 51.0872 327.34399 0.16440053 0.82058889 -0.5473631 0
16.2269 46.064499 331.457 0.68661726 0.0016790378 0.72701716 0
16.253901 50.5042 329.33899 0.24978518 0.47151408 0.84574336 0
16.2554 50.573399 326.367 0.44541904 0.83936369 -0.31156138 0
16.260201 49.9701 329.62601 0.46468839 0.38646111 0.79668844 0
16.2616 46.591 331.31201 0.47915101 0.010980533 0.87766379 0
16.2939 51.463402 328.784 0.1808684 0.57170784 0.80027294 0
16.3016 46.068401 331.16199 0.9734838 -0.22389925 0.046887793 0
16.323099 51.601898 328.61401 0.45865136 0.82581186 0.32813674 0
16.329599 46.1394 330.34 0.92547983 -0.36292005 -0.10851791 0
16.3986 46.662899 331.14999 0.47915101 0.010980533 0.87766379 0
16.402399 50.3358 329.371 0.59610909 0.44073933 0.67112058 0
16.476101 46.553501 330.341 0.94505197 -0.32684511 0.0069998531 0
16.4774 48.7225 330.24701 0.53450394 -0.019150026 0.84494901 0
16.4788 51.635502 328.17401 0.082655184 0.99436522 -0.066377155 0
16.479799 51.236198 328.85001 0.39557686 0.46080106 0.79446918 0
16.5494 49.207699 329.94601 0.47833714 0.3703039 0.79628426 0
16.5812 50.7197 326.974 0.57775825 0.61308539 -0.53881514 0
16.696199 49.058201 329.95599 0.84383553 0.045236215 0.53469175 0
16.699699 48.009998 330.539 0.86887258 0.25624815 0.4235532 0
16.7027 51.546001 328.021 0.62398219 0.71377468 -0.31807533 0
16.7087 51.1665 327.58099 0.43496406 0.61675578 -0.6560629 0
16.714001 47.784 330.58899 0.61106843 0.17061979 0.77297103 0
16.728399 48.9156 329.293 0.96424884 -0.10540621 -0.2431331 0
16.747 47.267502 330.56299 0.59593087 0.15024593 0.7888552 0
16.7812 48.538799 329.664 0.98471195 0.089819595 -0.14924759 0
16.7848 50.892101 327.42499 0.60152411 0.42092714 -0.67896175 0
16.7869 49.661701 329.36401 0.75339073 0.62010401 0.21880008 0
16.8015 47.563301 330.55801 0.59593087 0.15024593 0.7888552 0
16.803499 48.612 329.814 0.94410932 0.20665723 0.25680807 0
16.808001 49.512798 329.36401 0.99149084 -0.12627597 0.031627346 0
16.8139 47.9412 329.96799 0.96012723 -0.26562679 0.087167084 0
16.816099 48.164799 329.89301 0.96483856 -0.082802638 -0.24945983 0
16.816999 50.858601 328.86499 0.83165348 0.2553165 0.49311867 0
16.825899 49.3629 329.66299 0.97501266 -0.11380745 0.19078314 0
16.833 51.497101 328.16599 0.51799679 0.69232827 0.50235534 0
16.895201 48.164101 330.26501 0.93963021 0.05741379 0.33734065 0
16.956499 50.863899 328.76401 0.83165348 0.2553165 0.49311867 0
