ply
format ascii 1.0
element vertex 132
property float x
property float y
property float z
property uchar red
property uchar green
property uchar blue
end_header
-7936.81 -358039.0 46.4587 255 0 0
-7938.24 -358040.0 45.1476 255 0 0
-7939.65 -358040.0 43.8141 255 0 0
-7940.99 -358041.0 42.4224 255 0 0
-7942.34 -358041.0 41.0307 255 0 0
-7942.48 -358042.0 39.1342 255 0 0
-7942.41 -358042.0 37.1497 255 0 0
-7942.21 -358042.0 35.1672 255 0 0
-7941.84 -358042.0 33.1871 255 0 0
-7941.46 -358043.0 31.2071 255 0 0
-7939.49 -358044.0 23.6002 255 0 0
-7938.75 -358044.0 21.7274 255 0 0
-7938.01 -358044.0 19.8545 255 0 0
-7937.33 -358044.0 17.9726 255 0 0
-7936.69 -358045.0 16.0838 255 0 0
-7936.09 -358045.0 14.1834 255 0 0
-7935.66 -358045.0 12.2171 255 0 0
-7935.23 -358045.0 10.2508 255 0 0
-7933.82 -358046.0 9.19493 255 0 0
-7932.03 -358046.0 8.48917 255 0 0
-7930.31 -358047.0 7.72799 255 0 0
-7928.74 -358048.0 6.83493 255 0 0
-7927.16 -358049.0 5.94204 255 0 0
-7925.7 -358050.0 4.75925 255 0 0
-7924.26 -358050.0 3.53305 255 0 0
-7923.09 -358051.0 2.03669 255 0 0
-7922.26 -358050.0 0.202568 255 0 0
-7921.47 -358050.0 -1.62304 255 0 0
-7922.88 -358050.0 -2.99544 255 0 0
-7924.29 -358049.0 -4.36793 255 0 0
-7924.89 -358049.0 -6.11142 255 0 0
-7924.94 -358050.0 -8.11012 255 0 0
-7924.95 -358050.0 -10.1106 255 0 0
-7924.81 -358050.0 -12.1205 255 0 0
-7924.68 -358050.0 -14.1304 255 0 0
-7923.81 -358050.0 -15.8422 255 0 0
-7922.68 -358049.0 -17.4498 255 0 0
-7921.74 -358049.0 -19.143 255 0 0
-7921.19 -358050.0 -21.0231 255 0 0
-7920.63 -358050.0 -22.9031 255 0 0
-7919.97 -358051.0 -24.7337 255 0 0
-7919.29 -358051.0 -26.558 255 0 0
-7918.61 -358052.0 -28.3833 255 0 0
-7917.92 -358052.0 -30.2096 255 0 0
-7917.23 -358053.0 -32.0372 255 0 0
-7916.54 -358053.0 -33.8952 255 0 0
-7915.84 -358053.0 -35.7529 255 0 0
-7915.11 -358054.0 -37.6079 255 0 0
-7914.35 -358054.0 -39.4595 255 0 0
-7913.59 -358054.0 -41.3113 255 0 0
-7912.81 -358054.0 -43.1586 255 0 0
-7912.03 -358055.0 -45.0067 255 0 0
-7910.87 -358054.0 -46.31 255 0 0
-7909.59 -358053.0 -47.4411 255 0 0
-7908.6 -358052.0 -48.4727 255 0 0
-7908.19 -358050.0 -49.3047 255 0 0
-7907.78 -358048.0 -50.1368 255 0 0
-7907.39 -358046.0 -50.3167 255 0 0
-7907.0 -358044.0 -50.4302 255 0 0
-7906.15 -358043.0 -49.8278 255 0 0
-7904.8 -358042.0 -48.4545 255 0 0
-7903.46 -358041.0 -47.0818 255 0 0
-7902.19 -358041.0 -45.7175 255 0 0
-7900.92 -358040.0 -44.3522 255 0 0
-7900.08 -358038.0 -43.6869 255 0 0
-7899.5 -358036.0 -43.4328 255 0 0
-7899.0 -358035.0 -42.9846 255 0 0
-7898.82 -358033.0 -41.7816 255 0 0
-7898.64 -358031.0 -40.5785 255 0 0
-7898.31 -358030.0 -38.9505 255 0 0
-7897.94 -358029.0 -37.1998 255 0 0
-7897.6 -358028.0 -35.4395 255 0 0
-7897.33 -358028.0 -33.6602 255 0 0
-7897.05 -358027.0 -31.881 255 0 0
-7896.81 -358026.0 -30.0958 255 0 0
-7896.57 -358025.0 -28.3104 255 0 0
-7896.41 -358024.0 -26.5247 255 0 0
-7896.33 -358023.0 -24.7388 255 0 0
-7896.25 -358022.0 -22.9554 255 0 0
-7896.07 -358021.0 -21.2056 255 0 0
-7895.9 -358020.0 -19.4556 255 0 0
-7896.14 -358019.0 -17.6805 255 0 0
-7896.6 -358018.0 -15.8915 255 0 0
-7897.08 -358018.0 -14.1024 255 0 0
-7897.62 -358017.0 -12.3129 255 0 0
-7898.16 -358016.0 -10.5231 255 0 0
-7898.69 -358015.0 -8.73069 255 0 0
-7899.22 -358015.0 -6.93757 255 0 0
-7899.73 -358014.0 -5.14317 255 0 0
-7900.18 -358013.0 -3.34684 255 0 0
-7900.63 -358012.0 -1.5505 255 0 0
-7900.98 -358011.0 0.255861 255 0 0
-7901.33 -358011.0 2.06283 255 0 0
-7901.78 -358010.0 3.87356 255 0 0
-7902.33 -358009.0 5.6877 255 0 0
-7902.85 -358008.0 7.50491 255 0 0
-7903.15 -358008.0 9.35124 255 0 0
-7903.45 -358007.0 11.1976 255 0 0
-7903.93 -358006.0 13.0575 255 0 0
-7904.51 -358006.0 14.9244 255 0 0
-7905.05 -358005.0 16.7952 255 0 0
-7905.49 -358005.0 18.6796 255 0 0
-7905.93 -358004.0 20.5638 255 0 0
-7906.68 -358004.0 22.4143 255 0 0
-7907.5 -358004.0 24.2573 255 0 0
-7908.3 -358004.0 26.107 255 0 0
-7909.08 -358004.0 27.9675 255 0 0
-7909.85 -358004.0 29.8278 255 0 0
-7911.14 -358004.0 31.2569 255 0 0
-7912.45 -358005.0 32.6693 255 0 0
-7913.78 -358005.0 34.0261 255 0 0
-7915.11 -358006.0 35.3354 255 0 0
-7916.44 -358007.0 36.5915 255 0 0
-7917.75 -358008.0 37.4229 255 0 0
-7919.06 -358010.0 38.2543 255 0 0
-7920.28 -358011.0 38.7986 255 0 0
-7921.45 -358013.0 39.2107 255 0 0
-7922.59 -358014.0 39.6841 255 0 0
-7923.59 -358016.0 40.332 255 0 0
-7924.58 -358018.0 40.9798 255 0 0
-7925.56 -358019.0 41.434 255 0 0
-7926.52 -358021.0 41.8493 255 0 0
-7927.49 -358023.0 42.3341 255 0 0
-7928.44 -358024.0 42.9199 255 0 0
-7929.4 -358026.0 43.5055 255 0 0
-7930.33 -358028.0 44.052 255 0 0
-7931.26 -358029.0 44.5977 255 0 0
-7932.15 -358031.0 45.2226 255 0 0
-7933.02 -358033.0 45.9107 255 0 0
-7933.88 -358035.0 46.5562 255 0 0
-7934.72 -358036.0 46.9155 255 0 0
-7935.55 -358038.0 47.2749 255 0 0
