ply
format ascii 1.0
element vertex 106
property float x
property float y
property float z
property uchar red
property uchar green
property uchar blue
end_header
-8105.03 -358054.0 30.4707 255 0 0
-8105.43 -358054.0 28.2468 255 0 0
-8105.54 -358054.0 25.9547 255 0 0
-8105.36 -358054.0 23.6683 255 0 0
-8105.67 -358054.0 21.4255 255 0 0
-8105.78 -358053.0 19.1615 255 0 0
-8105.43 -358054.0 16.9515 255 0 0
-8105.25 -358054.0 14.6843 255 0 0
-8105.26 -358054.0 12.4041 255 0 0
-8105.07 -358054.0 10.1254 255 0 0
-8104.74 -358053.0 7.92129 255 0 0
-8105.17 -358053.0 5.7198 255 0 0
-8105.5 -358052.0 3.50917 255 0 0
-8104.96 -358053.0 1.41525 255 0 0
-8105.01 -358053.0 -0.814349 255 0 0
-8104.73 -358053.0 -3.08931 255 0 0
-8103.69 -358054.0 -4.90857 255 0 0
-8102.91 -358054.0 -6.91282 255 0 0
-8102.23 -358055.0 -8.95395 255 0 0
-8102.01 -358055.0 -11.2286 255 0 0
-8103.03 -358054.0 -13.0354 255 0 0
-8104.64 -358053.0 -17.1171 255 0 0
-8104.35 -358053.0 -19.3815 255 0 0
-8103.32 -358054.0 -21.1016 255 0 0
-8102.87 -358054.0 -23.3526 255 0 0
-8103.16 -358054.0 -25.5969 255 0 0
-8103.15 -358053.0 -27.794 255 0 0
-8102.84 -358053.0 -30.0662 255 0 0
-8102.31 -358053.0 -32.2952 255 0 0
-8101.42 -358053.0 -34.4117 255 0 0
-8100.22 -358052.0 -35.9825 255 0 0
-8100.42 -358050.0 -36.7158 255 0 0
-8100.28 -358048.0 -37.2548 255 0 0
-8099.38 -358046.0 -38.0752 255 0 0
-8098.35 -358044.0 -39.3668 255 0 0
-8097.81 -358042.0 -39.5792 255 0 0
-8096.87 -358040.0 -40.47 255 0 0
-8095.63 -358038.0 -40.9949 255 0 0
-8096.02 -358036.0 -39.5348 255 0 0
-8096.41 -358035.0 -38.1713 255 0 0
-8096.28 -358033.0 -37.0444 255 0 0
-8095.24 -358031.0 -36.2979 255 0 0
-8095.04 -358029.0 -34.8945 255 0 0
-8093.64 -358027.0 -34.1823 255 0 0
-8092.94 -358025.0 -33.004 255 0 0
-8092.47 -358023.0 -31.7796 255 0 0
-8092.53 -358022.0 -29.9828 255 0 0
-8092.65 -358021.0 -28.0714 255 0 0
-8092.38 -358020.0 -26.1205 255 0 0
-8092.77 -358018.0 -24.2862 255 0 0
-8092.71 -358017.0 -22.7764 255 0 0
-8092.53 -358015.0 -21.2936 255 0 0
-8092.22 -358013.0 -19.7546 255 0 0
-8092.28 -358012.0 -17.6989 255 0 0
-8092.29 -358011.0 -15.7879 255 0 0
-8091.14 -358009.0 -15.3183 255 0 0
-8090.61 -358007.0 -13.784 255 0 0
-8090.16 -358006.0 -12.0869 255 0 0
-8089.99 -358004.0 -10.4571 255 0 0
-8089.27 -358003.0 -8.9191 255 0 0
-8088.65 -358001.0 -7.51926 255 0 0
-8087.66 -357999.0 -6.72375 255 0 0
-8086.92 -357997.0 -5.47347 255 0 0
-8086.39 -357996.0 -4.11683 255 0 0
-8085.86 -357994.0 -2.7628 255 0 0
-8085.5 -357992.0 -1.16246 255 0 0
-8085.77 -357991.0 1.00981 255 0 0
-8085.45 -357990.0 3.04981 255 0 0
-8085.56 -357990.0 5.28871 255 0 0
-8085.7 -357989.0 7.53276 255 0 0
-8085.27 -357989.0 9.74521 255 0 0
-8086.09 -357989.0 11.8818 255 0 0
-8086.73 -357990.0 13.8028 255 0 0
-8087.03 -357991.0 16.0041 255 0 0
-8088.52 -357992.0 16.8383 255 0 0
-8089.63 -357993.0 18.4009 255 0 0
-8090.65 -357995.0 19.1928 255 0 0
-8091.9 -357997.0 19.8271 255 0 0
-8092.81 -357998.0 21.4322 255 0 0
-8093.73 -358000.0 22.7594 255 0 0
-8094.39 -358001.0 24.4996 255 0 0
-8095.05 -358003.0 25.8892 255 0 0
-8096.03 -358005.0 26.4568 255 0 0
-8096.94 -358007.0 27.2824 255 0 0
-8097.42 -358008.0 29.1058 255 0 0
-8098.3 -358010.0 29.8898 255 0 0
-8098.73 -358013.0 29.6694 255 0 0
-8099.44 -358015.0 28.9637 255 0 0
-8099.94 -358017.0 29.4047 255 0 0
-8100.25 -358019.0 29.5704 255 0 0
-8100.88 -358021.0 29.181 255 0 0
-8101.55 -358023.0 28.3294 255 0 0
-8101.92 -358025.0 27.9601 255 0 0
-8102.42 -358028.0 27.6986 255 0 0
-8102.63 -358030.0 28.4215 255 0 0
-8103.18 -358032.0 27.4937 255 0 0
-8103.32 -358034.0 28.639 255 0 0
-8103.57 -358036.0 29.4473 255 0 0
-8104.32 -358038.0 29.3591 255 0 0
-8104.14 -358040.0 30.2577 255 0 0
-8104.29 -358043.0 30.7514 255 0 0
-8102.99 -358044.0 31.9038 255 0 0
-8103.12 -358046.0 32.9355 255 0 0
-8103.6 -358048.0 32.928 255 0 0
-8104.64 -358050.0 31.6996 255 0 0
-8104.84 -358052.0 31.3423 255 0 0
