ply
format ascii 1.0
element vertex 64
property float x
property float y
property float z
property uchar red
property uchar green
property uchar blue
end_header
-8124.65 -358006.0 3.59411 255 0 0
-8126.22 -358005.0 2.63453 255 0 0
-8127.22 -358006.0 0.887214 255 0 0
-8128.22 -358006.0 -0.860176 255 0 0
-8129.22 -358006.0 -2.60849 255 0 0
-8049.15 -357978.0 -21.3357 255 0 0
-8048.6 -357977.0 -23.0797 255 0 0
-8048.05 -357976.0 -24.8248 255 0 0
-8047.5 -357975.0 -26.5688 255 0 0
-8047.57 -357976.0 -25.9142 255 0 0
-8047.92 -357977.0 -24.1527 255 0 0
-8048.28 -357978.0 -22.3911 255 0 0
-8048.71 -357979.0 -20.648 255 0 0
-8049.28 -357980.0 -18.9367 255 0 0
-8049.85 -357980.0 -17.2265 255 0 0
-8050.44 -357981.0 -15.521 255 0 0
-8051.29 -357982.0 -13.9176 255 0 0
-8052.15 -357983.0 -12.3141 255 0 0
-8053.0 -357984.0 -10.7107 255 0 0
-8054.45 -357985.0 -9.53604 255 0 0
-8056.11 -357986.0 -8.51576 255 0 0
-8057.78 -357986.0 -7.49549 255 0 0
-8059.18 -357987.0 -6.29761 255 0 0
-8060.25 -357988.0 -4.85508 255 0 0
-8061.31 -357989.0 -3.41165 255 0 0
-8062.32 -357990.0 -1.95917 255 0 0
-8062.93 -357991.0 -0.418245 255 0 0
-8063.54 -357993.0 1.12276 255 0 0
-8064.16 -357994.0 2.66376 255 0 0
-8064.75 -357995.0 4.21694 255 0 0
-8065.35 -357996.0 5.77288 255 0 0
-8065.95 -357997.0 7.32882 255 0 0
-8066.85 -357999.0 8.78699 255 0 0
-8068.1 -357999.0 10.1352 255 0 0
-8069.35 -358000.0 11.4833 255 0 0
-8070.68 -358001.0 12.6152 255 0 0
-8072.43 -358002.0 12.589 255 0 0
-8074.19 -358003.0 12.5628 255 0 0
-8075.94 -358005.0 12.5366 255 0 0
-8077.71 -358006.0 12.5438 255 0 0
-8079.48 -358007.0 12.5582 255 0 0
-8081.25 -358008.0 12.5726 255 0 0
-8083.05 -358009.0 12.5001 255 0 0
-8084.89 -358010.0 12.3493 255 0 0
-8086.72 -358010.0 12.1976 255 0 0
-8088.57 -358011.0 11.9231 255 0 0
-8090.49 -358011.0 11.1862 255 0 0
-8092.4 -358012.0 10.4493 255 0 0
-8094.31 -358012.0 9.71235 255 0 0
-8096.29 -358012.0 9.20178 255 0 0
-8098.28 -358012.0 8.71779 255 0 0
-8100.27 -358012.0 8.23388 255 0 0
-8102.23 -358012.0 7.69116 255 0 0
-8104.18 -358013.0 7.10641 255 0 0
-8106.12 -358013.0 6.52058 255 0 0
-8108.05 -358013.0 6.06917 255 0 0
-8109.92 -358012.0 5.99158 255 0 0
-8111.79 -358011.0 5.91491 255 0 0
-8113.66 -358010.0 5.83833 255 0 0
-8115.49 -358010.0 5.64215 255 0 0
-8117.33 -358009.0 5.43871 255 0 0
-8119.17 -358008.0 5.23536 255 0 0
-8121.0 -358007.0 4.78482 255 0 0
-8122.82 -358006.0 4.18996 255 0 0
