ply
format ascii 1.0
element vertex 165
property float x
property float y
property float z
property uchar red
property uchar green
property uchar blue
end_header
164.873 -26.2941 -66.8368 255 0 0
164.335 -27.7288 -65.9197 255 0 0
163.807 -29.3789 -65.4816 255 0 0
162.85 -30.5935 -64.5868 255 0 0
162.109 -30.3498 -62.9802 255 0 0
160.979 -31.0698 -61.7986 255 0 0
159.896 -31.1805 -60.3813 255 0 0
158.658 -31.5267 -59.149 255 0 0
157.439 -32.425 -58.1932 255 0 0
156.418 -32.5482 -56.7357 255 0 0
155.31 -32.8505 -55.3671 255 0 0
154.159 -33.4783 -54.1457 255 0 0
152.93 -33.8353 -52.9059 255 0 0
151.65 -34.2164 -51.714 255 0 0
150.707 -33.7217 -50.2803 255 0 0
149.443 -34.1516 -49.0949 255 0 0
148.268 -34.3981 -47.77 255 0 0
146.449 -34.2123 -45.8157 255 0 0
145.447 -33.6873 -44.433 255 0 0
144.281 -33.5334 -43.0905 255 0 0
143.007 -33.6082 -41.8403 255 0 0
141.847 -33.4219 -40.4926 255 0 0
140.586 -33.5068 -39.2301 255 0 0
139.273 -33.5758 -38.0254 255 0 0
138.089 -33.2095 -36.7382 255 0 0
136.647 -33.4424 -35.7084 255 0 0
135.409 -33.5487 -34.4284 255 0 0
134.256 -33.672 -33.0706 255 0 0
133.256 -33.6111 -31.5911 255 0 0
131.864 -34.0742 -30.5739 255 0 0
130.349 -34.3855 -29.6797 255 0 0
129.504 -34.2792 -28.1104 255 0 0
128.481 -34.4454 -26.6543 255 0 0
127.348 -34.0383 -25.3349 255 0 0
125.705 -34.3335 -24.6919 255 0 0
124.488 -33.768 -23.5131 255 0 0
124.011 -33.0892 -21.9316 255 0 0
123.196 -32.1379 -20.6588 255 0 0
122.722 -30.6942 -19.7199 255 0 0
122.446 -28.9965 -19.2311 255 0 0
122.164 -27.3177 -18.703 255 0 0
121.424 -25.859 -17.9853 255 0 0
121.302 -24.1033 -17.642 255 0 0
121.149 -22.3511 -17.333 255 0 0
120.801 -20.6485 -16.9167 255 0 0
120.584 -18.9209 -16.5282 255 0 0
120.341 -17.2066 -16.0987 255 0 0
120.093 -15.4869 -15.6895 255 0 0
119.902 -13.7544 -15.3001 255 0 0
118.796 -12.8419 -14.2336 255 0 0
117.574 -12.6284 -12.949 255 0 0
116.389 -12.272 -11.6592 255 0 0
115.17 -11.9777 -10.3881 255 0 0
113.969 -11.6523 -9.10712 255 0 0
112.784 -11.296 -7.81885 255 0 0
111.624 -10.8027 -6.55358 255 0 0
110.454 -10.3966 -5.26541 255 0 0
109.263 -10.0409 -3.98289 255 0 0
108.071 -9.72529 -2.69247 255 0 0
106.919 -9.28914 -1.3976 255 0 0
105.755 -8.89259 -0.101958 255 0 0
104.589 -8.47688 1.1855 255 0 0
103.417 -8.03209 2.45839 255 0 0
102.226 -7.57911 3.70845 255 0 0
101.088 -6.97136 4.94413 255 0 0
99.9936 -6.10096 6.05652 255 0 0
98.9819 -5.08309 7.11881 255 0 0
97.6309 -4.7906 8.25006 255 0 0
96.5506 -4.12526 9.50732 255 0 0
95.6426 -3.05472 10.61 255 0 0
94.4882 -2.30216 11.7469 255 0 0
93.437 -1.35311 12.8342 255 0 0
92.3599 -0.228252 13.7081 255 0 0
90.9485 0.462981 14.5578 255 0 0
91.5408 2.01335 13.9159 255 0 0
92.5288 3.14535 12.9512 255 0 0
93.5095 4.27588 11.9764 255 0 0
94.6877 5.1662 10.9644 255 0 0
95.0688 6.69335 10.1234 255 0 0
95.6997 8.00158 9.07691 255 0 0
96.9764 8.2336 7.85108 255 0 0
98.3553 8.88679 6.91774 255 0 0
99.3508 9.90987 5.85005 255 0 0
100.421 10.5741 4.58146 255 0 0
101.248 11.5357 3.328 255 0 0
101.902 12.6216 2.06661 255 0 0
103.173 13.3083 1.02206 255 0 0
104.482 13.5527 -0.174854 255 0 0
105.699 13.98 -1.40419 255 0 0
106.411 15.1661 -2.54024 255 0 0
107.329 16.0297 -3.80006 255 0 0
108.255 16.7578 -5.14408 255 0 0
109.5 15.902 -6.09573 255 0 0
110.304 14.4115 -6.66069 255 0 0
110.926 12.7642 -6.96917 255 0 0
111.714 11.2279 -7.41687 255 0 0
111.864 10.177 -8.85476 255 0 0
113.19 10.0755 -10.0462 255 0 0
114.541 9.94511 -11.2078 255 0 0
115.828 9.83896 -12.444 255 0 0
117.087 9.80593 -13.7076 255 0 0
118.369 9.82615 -14.9544 255 0 0
119.656 9.61755 -16.1748 255 0 0
120.922 9.16958 -17.3523 255 0 0
122.052 9.03508 -18.7285 255 0 0
123.326 8.4102 -19.8135 255 0 0
124.788 8.07707 -20.7851 255 0 0
126.104 8.63993 -21.8491 255 0 0
127.377 8.34925 -23.0679 255 0 0
128.83 8.14238 -24.0881 255 0 0
130.054 8.7043 -25.2592 255 0 0
131.291 7.88132 -26.2497 255 0 0
132.455 8.22177 -27.5568 255 0 0
133.656 8.29231 -28.8758 255 0 0
134.877 7.85988 -30.1068 255 0 0
136.084 7.59433 -31.3974 255 0 0
137.213 7.5555 -32.777 255 0 0
138.378 8.76853 -33.3824 255 0 0
139.255 10.1553 -34.0951 255 0 0
140.477 10.8615 -35.1826 255 0 0
141.848 11.1963 -36.2829 255 0 0
142.615 12.5873 -37.0991 255 0 0
143.724 13.1147 -38.3988 255 0 0
144.933 13.8189 -39.5028 255 0 0
145.977 14.9548 -40.4123 255 0 0
147.111 15.86 -41.4447 255 0 0
147.766 17.3305 -42.2271 255 0 0
148.401 18.734 -43.1361 255 0 0
149.265 20.0181 -44.016 255 0 0
150.51 20.8489 -44.9962 255 0 0
151.252 22.2014 -45.8862 255 0 0
152.011 23.5032 -46.8564 255 0 0
153.287 23.8271 -48.064 255 0 0
153.599 22.0771 -48.2107 255 0 0
153.621 20.2861 -48.1221 255 0 0
153.824 18.5151 -48.2465 255 0 0
154.392 16.9422 -48.8744 255 0 0
154.923 15.3306 -49.4126 255 0 0
154.961 13.5423 -49.4411 255 0 0
155.451 11.9444 -50.0695 255 0 0
155.701 10.348 -50.8392 255 0 0
156.117 8.99149 -51.9213 255 0 0
156.435 7.37954 -52.6206 255 0 0
156.458 5.74565 -51.8875 255 0 0
156.796 4.07059 -52.3958 255 0 0
156.491 2.33346 -52.6906 255 0 0
156.191 0.612532 -53.0675 255 0 0
156.694 -0.997189 -53.6555 255 0 0
157.9 -1.44983 -54.893 255 0 0
158.921 -1.89745 -56.2886 255 0 0
159.991 -3.11952 -57.0317 255 0 0
160.925 -4.22297 -58.083 255 0 0
161.743 -5.53773 -58.9688 255 0 0
162.267 -7.08612 -59.6884 255 0 0
162.666 -8.63092 -60.4908 255 0 0
162.686 -10.4198 -60.5697 255 0 0
162.793 -12.1564 -60.9663 255 0 0
163.423 -13.2958 -62.1891 255 0 0
163.726 -14.6583 -63.306 255 0 0
163.999 -16.3585 -63.7715 255 0 0
164.193 -17.8727 -64.6988 255 0 0
164.383 -19.6456 -64.8051 255 0 0
164.698 -21.346 -65.2389 255 0 0
164.899 -23.0847 -65.6064 255 0 0
164.983 -24.5193 -66.6715 255 0 0
