ply
format ascii 1.0
element vertex 160
property float x
property float y
property float z
property uchar red
property uchar green
property uchar blue
end_header
74.1986 5.73437 29.2547 255 0 0
76.2596 5.98159 28.1152 255 0 0
77.9489 5.59139 26.4984 255 0 0
79.677 4.9216 25.022 255 0 0
81.3666 4.25614 23.4995 255 0 0
82.9758 3.57301 21.8995 255 0 0
84.207 1.98563 20.6359 255 0 0
85.7345 0.927477 19.1674 255 0 0
86.9225 0.114193 17.2852 255 0 0
88.046 -1.6663 16.1958 255 0 0
89.6535 -2.83837 14.9052 255 0 0
91.3257 -3.11503 13.2467 255 0 0
93.0741 -3.21699 11.6513 255 0 0
95.1245 -3.37263 9.78154 255 0 0
96.087 -5.08179 8.45488 255 0 0
97.7076 -5.57215 6.79826 255 0 0
99.4836 -6.26889 5.39259 255 0 0
101.218 -6.87202 3.89464 255 0 0
102.857 -7.61836 2.35453 255 0 0
104.507 -7.88173 0.673267 255 0 0
106.324 -8.20262 -0.814951 255 0 0
107.608 -9.77547 -2.03774 255 0 0
109.232 -9.81622 -3.76051 255 0 0
110.577 -10.9064 -5.37857 255 0 0
111.903 -11.0949 -7.3335 255 0 0
113.494 -11.17 -9.0903 255 0 0
115.515 -11.2739 -10.3215 255 0 0
117.408 -11.6975 -11.6833 255 0 0
118.843 -12.0238 -13.54 255 0 0
119.93 -13.5051 -15.0335 255 0 0
120.71 -15.7467 -15.0611 255 0 0
120.852 -17.1816 -16.9428 255 0 0
121.036 -19.4256 -16.2158 255 0 0
121.797 -21.4455 -17.1937 255 0 0
121.712 -23.8182 -17.272 255 0 0
121.136 -26.0502 -17.8235 255 0 0
121.795 -28.2452 -18.4018 255 0 0
123.076 -29.6946 -19.7708 255 0 0
123.628 -31.867 -20.5408 255 0 0
124.299 -33.9122 -21.5375 255 0 0
125.073 -35.9018 -22.571 255 0 0
125.927 -37.8689 -23.5672 255 0 0
126.599 -39.9377 -24.5165 255 0 0
127.157 -42.045 -25.4416 255 0 0
128.56 -43.1713 -26.9837 255 0 0
129.181 -44.7658 -28.6205 255 0 0
129.52 -47.1042 -28.7752 255 0 0
130.087 -49.1321 -29.8722 255 0 0
130.066 -51.2936 -30.8386 255 0 0
130.288 -53.3944 -31.9169 255 0 0
130.697 -55.4125 -33.0867 255 0 0
131.269 -57.4614 -34.13 255 0 0
131.505 -59.5964 -35.1326 255 0 0
131.486 -61.7456 -36.1212 255 0 0
131.843 -63.5724 -37.5919 255 0 0
133.122 -65.2928 -38.5975 255 0 0
133.681 -67.1154 -40.0088 255 0 0
134.299 -69.116 -41.1126 255 0 0
134.962 -71.1078 -42.2162 255 0 0
135.442 -73.1401 -43.3339 255 0 0
135.782 -75.3056 -44.242 255 0 0
136.331 -77.1413 -45.634 255 0 0
136.487 -79.3426 -46.4933 255 0 0
136.075 -81.5505 -47.2531 255 0 0
135.035 -83.6615 -47.5435 255 0 0
133.195 -83.5568 -46.056 255 0 0
131.295 -83.137 -44.7041 255 0 0
129.489 -82.4339 -43.3386 255 0 0
127.742 -82.036 -41.788 255 0 0
125.836 -81.8369 -40.3936 255 0 0
124.163 -81.2026 -38.84 255 0 0
122.357 -80.722 -37.3839 255 0 0
120.483 -80.4771 -35.9543 255 0 0
119.414 -79.1987 -34.2693 255 0 0
117.953 -78.1976 -32.6961 255 0 0
116.129 -77.6393 -31.2898 255 0 0
114.222 -77.4305 -29.8984 255 0 0
112.634 -76.5086 -28.3996 255 0 0
110.862 -75.8828 -26.9555 255 0 0
108.816 -76.6317 -26.0276 255 0 0
107.456 -75.6391 -24.3592 255 0 0
106.046 -74.5065 -22.8289 255 0 0
104.272 -73.7554 -21.4485 255 0 0
102.292 -73.946 -20.1644 255 0 0
100.299 -74.423 -18.9697 255 0 0
98.3992 -74.9155 -17.6453 255 0 0
96.4607 -75.8841 -16.6854 255 0 0
94.5628 -76.5999 -15.4538 255 0 0
92.7259 -76.6659 -13.9589 255 0 0
90.8746 -76.1663 -12.5663 255 0 0
88.9251 -76.7063 -11.3357 255 0 0
87.0486 -77.0959 -9.94449 255 0 0
85.1835 -77.2999 -8.4972 255 0 0
83.246 -78.0203 -7.33315 255 0 0
81.3228 -77.999 -5.95094 255 0 0
79.3779 -79.1906 -5.29109 255 0 0
77.4641 -79.5185 -3.93839 255 0 0
75.506 -80.3376 -2.88254 255 0 0
73.5704 -80.5559 -1.52986 255 0 0
71.4109 -81.0274 -0.678346 255 0 0
69.6179 -80.7467 0.846329 255 0 0
67.7508 -80.5908 2.29733 255 0 0
65.7224 -81.0894 3.41055 255 0 0
63.7429 -81.9339 4.40278 255 0 0
61.8675 -83.3716 4.56062 255 0 0
60.1174 -83.291 6.15658 255 0 0
58.1654 -83.6153 7.46175 255 0 0
56.1443 -84.7975 7.82396 255 0 0
54.3334 -84.6064 9.33978 255 0 0
52.2664 -84.903 10.4644 255 0 0
50.4172 -84.3464 11.8378 255 0 0
49.1567 -82.8255 13.1467 255 0 0
48.6418 -80.9247 14.4648 255 0 0
48.5345 -78.9383 15.7497 255 0 0
47.1319 -77.3983 16.8803 255 0 0
47.5441 -75.3949 18.0847 255 0 0
46.9369 -73.503 19.3708 255 0 0
46.4646 -71.3927 20.339 255 0 0
46.9803 -69.2391 21.1885 255 0 0
46.4084 -67.0216 21.8048 255 0 0
45.6395 -65.2363 23.1544 255 0 0
45.4145 -63.2812 24.4804 255 0 0
45.2963 -61.2738 25.7365 255 0 0
45.781 -59.06 26.4152 255 0 0
45.8563 -56.8713 27.3231 255 0 0
45.2747 -54.8591 28.433 255 0 0
45.258 -52.6404 29.2724 255 0 0
45.6199 -50.4198 30.005 255 0 0
45.4068 -48.3307 31.108 255 0 0
45.8688 -46.0683 31.6151 255 0 0
46.5812 -43.8931 32.228 255 0 0
46.7815 -41.7342 33.1832 255 0 0
45.4107 -40.2916 34.4736 255 0 0
44.8 -38.3987 35.7617 255 0 0
43.6052 -36.7563 36.9796 255 0 0
42.9093 -34.9256 38.3165 255 0 0
42.5906 -32.9287 39.55 255 0 0
41.9436 -31.0455 40.8366 255 0 0
41.2053 -29.1088 41.9811 255 0 0
42.2677 -27.0079 42.2759 255 0 0
43.6494 -25.0882 42.2528 255 0 0
44.5135 -22.9218 42.6812 255 0 0
46.3216 -21.4539 42.2247 255 0 0
47.552 -19.4365 42.184 255 0 0
48.9642 -17.6149 41.6191 255 0 0
50.4462 -15.8926 40.9546 255 0 0
52.5188 -15.3266 39.956 255 0 0
54.2318 -13.8527 39.2434 255 0 0
56.0683 -12.6665 38.3248 255 0 0
57.68 -11.0294 37.731 255 0 0
59.0861 -9.26918 36.993 255 0 0
60.9118 -7.95228 36.2556 255 0 0
62.5731 -6.62272 35.2183 255 0 0
64.5715 -6.30395 33.9832 255 0 0
66.2812 -4.88708 33.1601 255 0 0
68.01 -3.60571 32.171 255 0 0
69.3333 -1.81035 31.3775 255 0 0
70.0054 0.435299 30.9876 255 0 0
71.8054 1.78053 30.2371 255 0 0
73.161 3.66726 29.7693 255 0 0
