ply
format ascii 1.0
element vertex 195
property float x
property float y
property float z
property uchar red
property uchar green
property uchar blue
end_header
46.9998 30.4297 44.0062 255 0 0
46.8078 31.7193 43.5338 255 0 0
47.0123 32.7449 42.6234 255 0 0
47.6819 33.3992 41.6034 255 0 0
48.3748 34.0777 40.6157 255 0 0
49.0023 34.8808 39.6865 255 0 0
49.7831 35.5383 38.7512 255 0 0
49.8326 36.7612 38.1033 255 0 0
49.7472 38.0483 37.5953 255 0 0
50.1414 39.0614 36.7393 255 0 0
50.4079 40.1502 35.9258 255 0 0
50.6951 41.2269 35.1019 255 0 0
51.0896 42.2518 34.2603 255 0 0
51.4342 43.3029 33.4319 255 0 0
51.9449 44.249 32.5615 255 0 0
52.4178 45.2233 31.701 255 0 0
53.0345 46.1253 30.8485 255 0 0
53.2102 47.2868 30.1082 255 0 0
53.3224 48.4789 29.4197 255 0 0
53.4907 49.6424 28.6824 255 0 0
53.8694 50.5702 27.7297 255 0 0
53.9002 51.7964 27.0889 255 0 0
53.8589 53.0309 26.4742 255 0 0
54.2334 53.9709 25.5264 255 0 0
55.107 54.7878 24.8268 255 0 0
55.7294 55.7504 24.056 255 0 0
56.013 56.9201 23.3703 255 0 0
56.1618 58.2797 23.146 255 0 0
56.538 59.3867 22.4113 255 0 0
56.8825 60.4651 21.6129 255 0 0
57.7375 61.1075 20.7363 255 0 0
58.4052 61.9365 19.8454 255 0 0
58.7377 63.0721 19.1335 255 0 0
58.9347 64.2878 18.5008 255 0 0
59.5878 65.0071 17.5164 255 0 0
60.7131 65.3761 16.798 255 0 0
61.4679 68.8901 14.5004 255 0 0
61.8349 70.0348 13.8127 255 0 0
62.5979 70.7977 12.9474 255 0 0
62.6581 72.0554 12.372 255 0 0
62.79 73.2921 11.7668 255 0 0
63.5809 74.1241 10.9895 255 0 0
64.0696 75.1801 10.2356 255 0 0
64.84 75.9778 9.41098 255 0 0
65.9848 75.7783 8.65945 255 0 0
67.1003 75.5439 7.87431 255 0 0
68.1276 75.7734 6.97163 255 0 0
69.34 75.6248 6.32241 255 0 0
70.4753 75.4096 5.55839 255 0 0
71.5897 75.2483 4.75159 255 0 0
72.7285 74.6259 4.26999 255 0 0
73.8343 74.6665 3.43854 255 0 0
74.9795 74.4677 2.68705 255 0 0
76.1003 74.1154 1.95267 255 0 0
77.2246 73.889 1.17795 255 0 0
78.3101 73.9816 0.324857 255 0 0
79.357 74.1888 -0.558027 255 0 0
80.4652 73.9938 -1.36186 255 0 0
81.3906 74.4219 -2.30334 255 0 0
82.5053 73.9505 -2.97273 255 0 0
83.6798 73.6083 -3.62333 255 0 0
84.7262 73.0438 -4.33083 255 0 0
85.8494 72.9747 -5.13497 255 0 0
87.0019 72.557 -5.77893 255 0 0
88.1591 72.3637 -6.51085 255 0 0
88.9277 71.3692 -7.09105 255 0 0
89.9137 70.5748 -7.65028 255 0 0
90.9415 69.8677 -8.25186 255 0 0
91.9637 69.1131 -8.80014 255 0 0
93.0754 68.9303 -9.6015 255 0 0
94.2031 68.4503 -10.2449 255 0 0
95.3405 68.0735 -10.9374 255 0 0
96.4374 68.1218 -11.7855 255 0 0
97.5963 67.9553 -12.5209 255 0 0
98.5964 67.0807 -12.9117 255 0 0
99.7063 66.5379 -13.5352 255 0 0
100.61 66.8506 -14.5367 255 0 0
101.715 66.1923 -15.0506 255 0 0
102.845 65.4495 -15.3466 255 0 0
103.92 64.7146 -15.8186 255 0 0
105.057 64.4552 -16.5636 255 0 0
106.215 64.1018 -17.2339 255 0 0
107.361 64.1098 -18.0118 255 0 0
108.241 64.9151 -18.717 255 0 0
109.047 63.9156 -19.2345 255 0 0
110.174 63.5951 -19.9724 255 0 0
111.282 63.5434 -20.7992 255 0 0
112.4 63.0729 -21.4693 255 0 0
113.225 61.991 -21.7223 255 0 0
113.514 60.6506 -21.5044 255 0 0
113.399 59.3957 -20.9432 255 0 0
113.18 58.1483 -20.378 255 0 0
113.01 56.8701 -19.8823 255 0 0
112.728 55.6535 -19.2764 255 0 0
112.391 54.5864 -18.4663 255 0 0
111.869 53.6382 -17.6037 255 0 0
111.717 52.3763 -17.0544 255 0 0
111.77 51.0353 -16.7047 255 0 0
111.315 49.9273 -16.021 255 0 0
110.977 48.7077 -15.4526 255 0 0
110.618 47.5592 -14.7688 255 0 0
110.452 46.2653 -14.3007 255 0 0
110.095 45.1712 -13.5357 255 0 0
109.774 43.9847 -12.8971 255 0 0
109.426 42.7951 -12.2838 255 0 0
109.246 41.5567 -11.6853 255 0 0
108.727 40.552 -10.8952 255 0 0
108.56 39.294 -10.3394 255 0 0
108.553 37.9803 -9.90757 255 0 0
108.693 36.6341 -9.61002 255 0 0
108.696 35.2968 -9.24282 255 0 0
108.733 33.9507 -8.93318 255 0 0
108.498 32.6917 -8.3996 255 0 0
108.469 31.3468 -8.08964 255 0 0
108.356 30.015 -7.72686 255 0 0
108.353 28.6392 -7.55522 255 0 0
108.115 27.3754 -7.04364 255 0 0
107.805 26.3764 -6.14528 255 0 0
107.367 25.3759 -5.29303 255 0 0
106.871 24.2833 -4.60234 255 0 0
106.694 22.9802 -4.16632 255 0 0
106.317 21.7657 -3.61633 255 0 0
105.762 20.8954 -2.69798 255 0 0
105.359 19.7605 -2.00669 255 0 0
104.71 18.858 -1.18737 255 0 0
104.166 17.8445 -0.413474 255 0 0
103.867 16.6318 0.176816 255 0 0
103.326 15.6276 0.96338 255 0 0
103.227 14.3165 1.39346 255 0 0
103.127 12.9978 1.79987 255 0 0
102.548 12.0111 2.58203 255 0 0
102.204 10.7761 3.1041 255 0 0
101.676 9.77175 3.89716 255 0 0
101.135 8.62964 4.45686 255 0 0
100.373 8.05171 5.46434 255 0 0
99.4724 7.9581 6.50787 255 0 0
98.468 7.62088 7.40379 255 0 0
97.6566 6.79107 8.15576 255 0 0
96.6047 6.47078 8.99573 255 0 0
95.7213 6.33888 10.0552 255 0 0
94.7976 5.82705 10.9494 255 0 0
93.7412 6.45174 11.5905 255 0 0
92.7978 6.0078 12.5004 255 0 0
91.9183 5.39901 13.3841 255 0 0
90.9104 5.16467 14.3008 255 0 0
90.0527 4.59095 15.2206 255 0 0
89.0415 4.46822 16.1606 255 0 0
88.1005 4.00456 17.0638 255 0 0
87.2599 3.373 17.9608 255 0 0
86.3561 2.76229 18.819 255 0 0
85.4121 2.6288 19.8214 255 0 0
84.4631 3.28979 20.5803 255 0 0
83.3899 3.82035 21.2755 255 0 0
82.3038 4.10215 22.087 255 0 0
81.2387 4.19537 22.9667 255 0 0
80.1821 4.49561 23.8068 255 0 0
79.1102 4.70302 24.6571 255 0 0
78.0473 4.89633 25.5221 255 0 0
76.997 4.96671 26.423 255 0 0
75.9961 5.03899 27.3739 255 0 0
74.9718 5.33873 28.2579 255 0 0
73.8931 5.39982 29.1216 255 0 0
72.8335 5.68303 29.9685 255 0 0
71.7296 5.80648 30.7934 255 0 0
70.9043 6.60679 31.5641 255 0 0
69.9125 6.50085 32.5247 255 0 0
69.0247 6.02131 33.4714 255 0 0
68.0711 5.81403 34.4549 255 0 0
67.1037 5.67831 35.4314 255 0 0
66.0659 5.64377 36.3518 255 0 0
65.0945 5.38869 37.305 255 0 0
64.0633 5.46037 38.2219 255 0 0
63.0052 5.63116 39.1005 255 0 0
62.3702 6.86077 39.1055 255 0 0
61.8261 8.13232 39.0384 255 0 0
61.4461 9.44114 38.7754 255 0 0
60.5691 10.4923 38.9816 255 0 0
59.8123 11.6494 38.9939 255 0 0
59.3404 12.9507 38.9557 255 0 0
58.7264 14.1894 39.0111 255 0 0
58.5067 15.555 38.9859 255 0 0
57.7356 16.7045 39.0772 255 0 0
57.4313 18.0203 38.7916 255 0 0
56.6539 19.1594 38.9256 255 0 0
56.2482 20.4801 39.0246 255 0 0
55.429 21.5514 39.3381 255 0 0
54.5614 22.5455 39.7538 255 0 0
53.7587 23.6504 39.9843 255 0 0
52.7538 24.4023 40.5699 255 0 0
51.9774 25.4355 41.0658 255 0 0
51.1659 26.4892 41.448 255 0 0
50.2626 27.3886 41.9894 255 0 0
49.2531 28.0714 42.6434 255 0 0
48.2009 28.4918 43.4412 255 0 0
47.1184 29.0549 44.0945 255 0 0
