ply
format ascii 1.0
element vertex 171
property float x
property float y
property float z
property uchar red
property uchar green
property uchar blue
end_header
-8066.49 358202.0 -27.8369 255 0 0
-8065.36 358203.0 -26.0054 255 0 0
-8064.06 358205.0 -25.3963 255 0 0
-8062.79 358205.0 -23.7485 255 0 0
-8061.5 358207.0 -22.5653 255 0 0
-8060.32 358207.0 -20.7549 255 0 0
-8059.03 358209.0 -19.4002 255 0 0
-8057.66 358210.0 -18.1187 255 0 0
-8056.58 358211.0 -16.4165 255 0 0
-8055.47 358212.0 -14.7655 255 0 0
-8054.31 358213.0 -13.383 255 0 0
-8053.19 358215.0 -11.7377 255 0 0
-8052.09 358216.0 -10.0399 255 0 0
-8050.97 358217.0 -8.43286 255 0 0
-8049.82 358218.0 -6.98901 255 0 0
-8049.09 358219.0 -4.92164 255 0 0
-8047.88 358220.0 -3.93591 255 0 0
-8047.26 358221.0 -1.94338 255 0 0
-8046.54 358222.0 0.0712317 255 0 0
-8045.24 358223.0 1.1761 255 0 0
-8044.29 358224.0 2.83169 255 0 0
-8042.67 358226.0 3.33094 255 0 0
-8039.85 358228.0 5.98582 255 0 0
-8039.48 358229.0 7.97306 255 0 0
-8038.48 358231.0 9.20196 255 0 0
-8037.39 358232.0 10.3941 255 0 0
-8036.89 358233.0 12.4427 255 0 0
-8035.56 358234.0 13.8237 255 0 0
-8034.51 358236.0 15.2192 255 0 0
-8033.41 358237.0 16.8554 255 0 0
-8032.24 358238.0 17.9712 255 0 0
-8031.22 358240.0 19.5551 255 0 0
-8030.52 358240.0 21.5994 255 0 0
-8029.44 358242.0 22.8021 255 0 0
-8028.39 358243.0 24.3567 255 0 0
-8027.24 358245.0 25.5675 255 0 0
-8026.26 358246.0 27.0854 255 0 0
-8025.32 358247.0 28.7091 255 0 0
-8024.06 358248.0 30.2191 255 0 0
-8022.86 358250.0 31.3452 255 0 0
-8021.73 358252.0 32.5951 255 0 0
-8020.53 358253.0 33.9099 255 0 0
-8019.51 358254.0 35.6527 255 0 0
-8018.66 358255.0 37.1564 255 0 0
-8017.71 358256.0 38.8916 255 0 0
-8016.53 358258.0 39.7042 255 0 0
-8015.34 358260.0 40.8921 255 0 0
-8014.17 358261.0 42.1959 255 0 0
-8013.03 358262.0 43.736 255 0 0
-8011.73 358264.0 45.0454 255 0 0
-8011.01 358265.0 46.739 255 0 0
-8009.94 358267.0 47.8934 255 0 0
-8008.77 358268.0 49.3406 255 0 0
-8007.4 358269.0 50.6281 255 0 0
-8006.76 358270.0 52.7483 255 0 0
-8005.47 358271.0 53.7777 255 0 0
-8004.23 358273.0 55.0014 255 0 0
-8003.09 358274.0 56.5194 255 0 0
-8002.33 358275.0 58.2811 255 0 0
-8001.57 358277.0 59.5129 255 0 0
-8000.91 358278.0 61.1284 255 0 0
-7999.98 358280.0 61.7227 255 0 0
-7999.09 358282.0 61.907 255 0 0
-7998.72 358284.0 60.6589 255 0 0
-7998.88 358285.0 58.8334 255 0 0
-7998.68 358287.0 57.3621 255 0 0
-7998.59 358289.0 55.6575 255 0 0
-7998.59 358290.0 54.0472 255 0 0
-7998.57 358291.0 52.112 255 0 0
-7998.82 358292.0 50.1121 255 0 0
-7999.12 358293.0 48.0494 255 0 0
-7999.32 358295.0 46.1969 255 0 0
-7999.49 358296.0 44.5873 255 0 0
-7999.88 358297.0 42.6099 255 0 0
-8000.19 358299.0 40.814 255 0 0
-8000.64 358299.0 38.6353 255 0 0
-8001.17 358301.0 37.1067 255 0 0
-8001.76 358301.0 35.0206 255 0 0
-8002.27 358303.0 33.289 255 0 0
-8002.65 358303.0 31.1016 255 0 0
-8002.9 358304.0 29.0439 255 0 0
-8003.19 358305.0 27.0701 255 0 0
-8003.59 358306.0 25.0282 255 0 0
-8004.43 358307.0 23.1089 255 0 0
-8003.99 358308.0 21.2594 255 0 0
-8004.09 358309.0 19.4849 255 0 0
-8004.16 358311.0 17.8647 255 0 0
-8004.18 358312.0 16.2383 255 0 0
-8004.62 358314.0 14.3924 255 0 0
-8004.87 358315.0 12.3371 255 0 0
-8004.72 358316.0 10.9315 255 0 0
-8004.93 358318.0 9.32245 255 0 0
-8005.69 358318.0 7.21246 255 0 0
-8006.16 358319.0 5.22513 255 0 0
-8006.31 358321.0 3.60726 255 0 0
-8006.92 358322.0 1.89941 255 0 0
-8008.01 358323.0 0.497506 255 0 0
-8008.71 358323.0 -1.64584 255 0 0
-8009.34 358324.0 -3.79246 255 0 0
-8009.54 358325.0 -5.58624 255 0 0
-8009.62 358326.0 -7.41108 255 0 0
-8010.88 358327.0 -9.19922 255 0 0
-8012.17 358326.0 -10.7056 255 0 0
-8013.12 358326.0 -12.6837 255 0 0
-8014.31 358325.0 -14.3214 255 0 0
-8015.81 358325.0 -15.8095 255 0 0
-8016.75 358323.0 -16.0039 255 0 0
-8017.95 358321.0 -17.3051 255 0 0
-8018.89 358320.0 -18.678 255 0 0
-8019.85 358318.0 -19.6954 255 0 0
-8020.76 358316.0 -20.6351 255 0 0
-8021.46 358314.0 -20.5615 255 0 0
-8022.18 358312.0 -20.6613 255 0 0
-8023.23 358310.0 -21.4589 255 0 0
-8024.57 358308.0 -22.5519 255 0 0
-8025.77 358307.0 -22.8288 255 0 0
-8026.69 358304.0 -23.0276 255 0 0
-8027.39 358302.0 -23.8368 255 0 0
-8028.15 358301.0 -25.1679 255 0 0
-8029.25 358299.0 -26.1278 255 0 0
-8030.14 358297.0 -27.0619 255 0 0
-8031.01 358295.0 -27.7714 255 0 0
-8031.92 358293.0 -28.703 255 0 0
-8033.05 358292.0 -29.7188 255 0 0
-8034.01 358290.0 -30.3408 255 0 0
-8034.79 358288.0 -30.3498 255 0 0
-8036.39 358286.0 -30.5515 255 0 0
-8036.73 358284.0 -30.5436 255 0 0
-8037.49 358282.0 -30.9052 255 0 0
-8038.29 358280.0 -30.9715 255 0 0
-8039.25 358278.0 -31.3294 255 0 0
-8040.19 358276.0 -31.5313 255 0 0
-8040.62 358273.0 -30.8767 255 0 0
-8041.48 358271.0 -31.1605 255 0 0
-8042.25 358269.0 -31.324 255 0 0
-8042.83 358267.0 -31.2801 255 0 0
-8044.03 358265.0 -32.2658 255 0 0
-8044.6 358263.0 -31.7798 255 0 0
-8045.6 358261.0 -32.5359 255 0 0
-8046.57 358260.0 -33.3133 255 0 0
-8047.7 358258.0 -34.5508 255 0 0
-8048.88 358256.0 -35.491 255 0 0
-8049.81 358254.0 -35.8027 255 0 0
-8051.08 358253.0 -36.7924 255 0 0
-8051.94 358251.0 -37.2123 255 0 0
-8052.92 358249.0 -38.1479 255 0 0
-8054.13 358247.0 -39.0692 255 0 0
-8055.33 358245.0 -39.9839 255 0 0
-8056.22 358244.0 -40.8152 255 0 0
-8057.41 358242.0 -41.9641 255 0 0
-8058.47 358240.0 -42.9004 255 0 0
-8059.63 358238.0 -43.6463 255 0 0
-8060.93 358237.0 -44.3498 255 0 0
-8061.94 358235.0 -44.8642 255 0 0
-8063.01 358233.0 -45.5158 255 0 0
-8064.35 358231.0 -46.486 255 0 0
-8064.65 358229.0 -45.6095 255 0 0
-8064.78 358227.0 -44.466 255 0 0
-8065.26 358225.0 -43.7624 255 0 0
-8064.88 358224.0 -42.1027 255 0 0
-8064.72 358222.0 -40.7255 255 0 0
-8064.75 358220.0 -39.4348 255 0 0
-8065.25 358218.0 -39.0493 255 0 0
-8065.42 358216.0 -38.0567 255 0 0
-8065.62 358214.0 -36.7221 255 0 0
-8065.81 358212.0 -35.3436 255 0 0
-8066.21 358210.0 -34.372 255 0 0
-8066.41 358208.0 -33.2608 255 0 0
-8066.49 358206.0 -32.2738 255 0 0
-8067.25 358204.0 -31.4956 255 0 0
-8066.44 358204.0 -29.5455 255 0 0
