ply
format ascii 1.0
element vertex 166
property float x
property float y
property float z
property uchar red
property uchar green
property uchar blue
end_header
-8.11213 -358.246 0.00657054 255 0 0
-8.11224 -358.246 0.00932348 255 0 0
-8.11381 -358.242 -0.00794499 255 0 0
-8.10995 -358.246 -0.0209145 255 0 0
-8.11315 -358.244 0.00281793 255 0 0
-8.11284 -358.245 0.0043922 255 0 0
-8.11342 -358.243 -0.00384985 255 0 0
-8.11468 -358.241 -0.000639169 255 0 0
-8.11651 -358.236 0.00256679 255 0 0
-8.11189 -358.244 -0.0272309 255 0 0
-8.11532 -358.236 -0.0299459 255 0 0
-8.11428 -358.24 -0.0114796 255 0 0
-8.11522 -358.236 -0.0211127 255 0 0
-8.11573 -358.236 -0.0308421 255 0 0
-8.11778 -358.231 -0.0127536 255 0 0
-8.11912 -358.226 -0.0152057 255 0 0
-8.11022 -358.245 -0.0226907 255 0 0
-8.11484 -358.237 -0.0189217 255 0 0
-8.11273 -358.241 -0.0210686 255 0 0
-8.1097 -358.246 -0.0207183 255 0 0
-8.11367 -358.241 -0.0135372 255 0 0
-8.11544 -358.235 -0.0255691 255 0 0
-8.11633 -358.236 -0.00637618 255 0 0
-8.11914 -358.227 -0.012243 255 0 0
-8.1177 -358.231 -0.0313674 255 0 0
-8.119 -358.226 -0.0302952 255 0 0
-8.11983 -358.224 -0.0167993 255 0 0
-8.11876 -358.226 -0.0202393 255 0 0
-8.12088 -358.224 -0.0325643 255 0 0
-8.12211 -358.221 -0.0306032 255 0 0
-8.12104 -358.221 -0.0324841 255 0 0
-8.12066 -358.221 -0.0326407 255 0 0
-8.12461 -358.216 -0.0256373 255 0 0
-8.12165 -358.221 -0.011692 255 0 0
-8.11035 -358.246 0.0267666 255 0 0
-8.1127 -358.242 0.0255437 255 0 0
-8.10845 -358.251 0.0226756 255 0 0
-8.11003 -358.25 0.0103855 255 0 0
-8.10878 -358.251 0.0172567 255 0 0
-8.10986 -358.246 0.0280916 255 0 0
-8.11057 -358.245 0.0305506 255 0 0
-8.11219 -358.242 0.0301544 255 0 0
-8.11087 -358.243 0.0333817 255 0 0
-8.11445 -358.237 0.0300759 255 0 0
-8.11148 -358.242 0.0332492 255 0 0
-8.10605 -358.25 0.0228233 255 0 0
-8.11681 -358.235 0.0160938 255 0 0
-8.11677 -358.234 0.0202426 255 0 0
-8.11718 -358.235 0.0124159 255 0 0
-8.11874 -358.231 0.00670809 255 0 0
-8.11843 -358.231 0.0168983 255 0 0
-8.11621 -358.234 0.0241698 255 0 0
-8.11587 -358.234 0.0285342 255 0 0
-8.11823 -358.231 0.0204803 255 0 0
-8.12347 -358.218 -0.00433425 255 0 0
-8.12447 -358.216 -0.0108467 255 0 0
-8.12448 -358.215 -0.00182244 255 0 0
-8.12672 -358.211 -0.0100383 255 0 0
-8.12884 -358.206 -0.00948192 255 0 0
-8.12888 -358.206 -0.0106872 255 0 0
-8.12067 -358.222 0.0295512 255 0 0
-8.12142 -358.221 0.0250223 255 0 0
-8.12235 -358.222 0.0139906 255 0 0
-8.12284 -358.221 0.00992669 255 0 0
-8.12473 -358.216 0.00742137 255 0 0
-8.12626 -358.212 0.0245718 255 0 0
-8.12402 -358.217 0.0246157 255 0 0
-8.12683 -358.21 0.016309 255 0 0
-8.12692 -358.212 0.0230755 255 0 0
-8.12626 -358.212 0.0249547 255 0 0
-8.1251 -358.212 0.0258002 255 0 0
-8.12638 -358.211 -0.00202257 255 0 0
-8.12745 -358.209 0.00948705 255 0 0
-8.12868 -358.207 -0.00374653 255 0 0
-8.12904 -358.206 -0.00462954 255 0 0
-8.12824 -358.206 0.0170611 255 0 0
-8.13021 -358.201 0.0181795 255 0 0
-8.13055 -358.201 0.00993472 255 0 0
-8.12849 -358.211 -0.0251038 255 0 0
-8.12997 -358.204 -0.0219767 255 0 0
-8.1308 -358.201 -0.0108332 255 0 0
-8.12909 -358.206 -0.00608508 255 0 0
-8.12946 -358.205 -0.0104492 255 0 0
-8.13093 -358.201 -0.021461 255 0 0
-8.12964 -358.201 -0.0228938 255 0 0
-8.13458 -358.193 -0.0170032 255 0 0
-8.13235 -358.196 -0.0200361 255 0 0
-8.13522 -358.191 -0.017336 255 0 0
-8.13099 -358.201 -0.00296599 255 0 0
-8.13099 -358.201 -0.00730188 255 0 0
-8.13662 -358.191 -0.0144689 255 0 0
-8.1325 -358.195 0.00755941 255 0 0
-8.13437 -358.191 0.00285599 255 0 0
-8.13426 -358.192 0.0115405 255 0 0
-8.13688 -358.186 0.00738833 255 0 0
-8.13656 -358.186 0.00354951 255 0 0
-8.13929 -358.184 -0.0126419 255 0 0
-8.13844 -358.181 -0.00335945 255 0 0
-8.13922 -358.181 -0.00739133 255 0 0
-8.13777 -358.181 -0.00221534 255 0 0
-8.13968 -358.181 -0.0113147 255 0 0
-8.13826 -358.18 -0.00485527 255 0 0
-8.13907 -358.181 -0.0127721 255 0 0
-8.12236 -358.221 0.00379233 255 0 0
-8.12583 -358.215 -0.0251266 255 0 0
-8.12083 -358.226 0.0103522 255 0 0
-8.12063 -358.226 0.0150172 255 0 0
-8.11874 -358.226 0.0279219 255 0 0
-8.11618 -358.232 0.0313479 255 0 0
-8.12779 -358.211 -0.0263438 255 0 0
-8.11213 -358.246 0.00657054 255 0 0
-8.11224 -358.246 0.00932348 255 0 0
-8.11381 -358.242 -0.00794499 255 0 0
-8.11468 -358.241 -0.000639169 255 0 0
-8.11651 -358.236 0.00256679 255 0 0
-8.11428 -358.24 -0.0114796 255 0 0
-8.11522 -358.236 -0.0211127 255 0 0
-8.11778 -358.231 -0.0127536 255 0 0
-8.11912 -358.226 -0.0152057 255 0 0
-8.11367 -358.241 -0.0135372 255 0 0
-8.11544 -358.235 -0.0255691 255 0 0
-8.11633 -358.236 -0.00637618 255 0 0
-8.11914 -358.227 -0.012243 255 0 0
-8.1177 -358.231 -0.0313674 255 0 0
-8.11983 -358.224 -0.0167993 255 0 0
-8.11876 -358.226 -0.0202393 255 0 0
-8.12088 -358.224 -0.0325643 255 0 0
-8.12165 -358.221 -0.011692 255 0 0
-8.11035 -358.246 0.0267666 255 0 0
-8.1127 -358.242 0.0255437 255 0 0
-8.10986 -358.246 0.0280916 255 0 0
-8.11057 -358.245 0.0305506 255 0 0
-8.11219 -358.242 0.0301544 255 0 0
-8.11681 -358.235 0.0160938 255 0 0
-8.11677 -358.234 0.0202426 255 0 0
-8.11718 -358.235 0.0124159 255 0 0
-8.11874 -358.231 0.00670809 255 0 0
-8.11843 -358.231 0.0168983 255 0 0
-8.11621 -358.234 0.0241698 255 0 0
-8.11823 -358.231 0.0204803 255 0 0
-8.12347 -358.218 -0.00433425 255 0 0
-8.12447 -358.216 -0.0108467 255 0 0
-8.12448 -358.215 -0.00182244 255 0 0
-8.12672 -358.211 -0.0100383 255 0 0
-8.12884 -358.206 -0.00948192 255 0 0
-8.12888 -358.206 -0.0106872 255 0 0
-8.12235 -358.222 0.0139906 255 0 0
-8.12284 -358.221 0.00992669 255 0 0
-8.12473 -358.216 0.00742137 255 0 0
-8.12683 -358.21 0.016309 255 0 0
-8.12638 -358.211 -0.00202257 255 0 0
-8.12745 -358.209 0.00948705 255 0 0
-8.12868 -358.207 -0.00374653 255 0 0
-8.12904 -358.206 -0.00462954 255 0 0
-8.12824 -358.206 0.0170611 255 0 0
-8.13055 -358.201 0.00993472 255 0 0
-8.1308 -358.201 -0.0108332 255 0 0
-8.12909 -358.206 -0.00608508 255 0 0
-8.12946 -358.205 -0.0104492 255 0 0
-8.13099 -358.201 -0.00296599 255 0 0
-8.13099 -358.201 -0.00730188 255 0 0
-8.1325 -358.195 0.00755941 255 0 0
-8.13437 -358.191 0.00285599 255 0 0
-8.12236 -358.221 0.00379233 255 0 0
-8.12083 -358.226 0.0103522 255 0 0
-8.12063 -358.226 0.0150172 255 0 0
