ply
format ascii 1.0
element vertex 116
property float x
property float y
property float z
property uchar red
property uchar green
property uchar blue
end_header
137.03 5.94829 -32.3267 255 0 0
136.038 5.98116 -31.3861 255 0 0
135.247 5.59337 -30.3406 255 0 0
134.452 6.66471 -30.0326 255 0 0
133.577 7.47301 -29.3587 255 0 0
132.554 8.07033 -28.6756 255 0 0
131.478 8.40454 -27.8987 255 0 0
130.64 8.62003 -26.8398 255 0 0
129.724 8.84515 -25.8485 255 0 0
128.807 8.80825 -24.8335 255 0 0
127.903 8.72926 -23.8117 255 0 0
126.909 8.83297 -22.8781 255 0 0
126.068 8.98852 -21.8108 255 0 0
125.125 8.47651 -20.9613 255 0 0
124.293 8.37839 -19.8786 255 0 0
123.326 8.36783 -18.9111 255 0 0
122.417 8.8427 -18.0048 255 0 0
122.248 9.23411 -17.8648 255 0 0
121.299 9.07957 -16.892 255 0 0
120.359 9.44809 -15.9694 255 0 0
119.395 9.57837 -15.0069 255 0 0
118.439 9.88868 -14.0784 255 0 0
117.459 9.65678 -13.1531 255 0 0
116.714 10.5976 -12.4906 255 0 0
115.86 11.1456 -11.5739 255 0 0
114.856 10.947 -10.6658 255 0 0
113.872 10.7663 -9.73321 255 0 0
112.767 10.8527 -8.93179 255 0 0
111.758 10.8066 -8.00998 255 0 0
110.636 10.9854 -7.24842 255 0 0
109.736 11.9329 -6.83631 255 0 0
108.71 12.756 -6.46581 255 0 0
108.802 14.1182 -6.41786 255 0 0
109.074 15.4494 -6.59265 255 0 0
108.673 16.7515 -6.52836 255 0 0
108.227 18.0415 -6.40064 255 0 0
107.732 19.3081 -6.26953 255 0 0
107.753 20.6638 -6.06994 255 0 0
107.046 21.8117 -5.83589 255 0 0
106.905 23.1597 -5.66796 255 0 0
107.16 24.4372 -6.09012 255 0 0
107.682 25.551 -6.68755 255 0 0
108.241 26.6283 -7.32776 255 0 0
108.058 27.9744 -7.50446 255 0 0
107.843 29.3038 -7.72892 255 0 0
107.662 30.6153 -8.08382 255 0 0
108.155 31.8185 -8.48984 255 0 0
108.918 32.8182 -9.0231 255 0 0
108.889 34.172 -9.2289 255 0 0
109.148 35.4058 -9.76565 255 0 0
108.916 36.7509 -9.85475 255 0 0
108.704 38.0679 -10.1665 255 0 0
108.847 39.3185 -10.6973 255 0 0
108.901 40.5718 -11.2354 255 0 0
109.079 41.8926 -11.5742 255 0 0
109.0 43.2209 -11.8776 255 0 0
109.168 44.5688 -11.9776 255 0 0
109.695 45.7134 -12.522 255 0 0
110.198 46.7878 -13.1949 255 0 0
110.723 47.8379 -13.9111 255 0 0
111.349 48.7192 -14.7401 255 0 0
112.287 49.0989 -15.6617 255 0 0
113.17 49.4852 -16.6323 255 0 0
113.962 50.1388 -17.5402 255 0 0
114.558 51.0344 -18.3788 255 0 0
115.38 51.5304 -19.3574 255 0 0
116.097 52.2245 -20.2888 255 0 0
116.723 52.9716 -21.2457 255 0 0
116.575 53.8174 -22.3112 255 0 0
116.401 54.5645 -23.4472 255 0 0
117.734 54.3475 -23.6647 255 0 0
118.699 53.966 -24.5557 255 0 0
119.629 53.4986 -25.4451 255 0 0
120.378 52.3744 -25.252 255 0 0
121.302 51.4059 -25.5546 255 0 0
122.185 50.8744 -26.4509 255 0 0
123.007 50.1215 -27.246 255 0 0
123.884 49.6106 -28.1649 255 0 0
124.75 48.9914 -29.0223 255 0 0
125.533 48.263 -29.8771 255 0 0
126.338 47.3353 -30.4728 255 0 0
127.158 46.4644 -31.1392 255 0 0
127.941 45.6668 -31.9291 255 0 0
128.864 45.0508 -32.7293 255 0 0
129.48 44.0667 -33.446 255 0 0
130.371 43.1009 -33.8333 255 0 0
130.957 42.003 -34.4067 255 0 0
131.568 40.9218 -34.9788 255 0 0
132.388 40.8295 -36.0703 255 0 0
133.173 39.8355 -36.5914 255 0 0
134.105 38.8576 -36.8109 255 0 0
134.804 37.7859 -37.2986 255 0 0
135.505 36.7237 -37.7945 255 0 0
135.511 35.3568 -37.8793 255 0 0
135.379 34.1256 -37.3024 255 0 0
135.11 32.8392 -36.9205 255 0 0
134.97 31.5007 -36.6675 255 0 0
135.218 30.164 -36.5525 255 0 0
135.517 28.8282 -36.5238 255 0 0
136.03 27.5616 -36.5384 255 0 0
135.801 26.302 -36.0547 255 0 0
136.051 24.9773 -36.2869 255 0 0
135.833 23.6506 -36.014 255 0 0
135.82 22.3909 -35.4953 255 0 0
135.908 21.0277 -35.3412 255 0 0
135.953 19.6695 -35.2371 255 0 0
135.786 18.3467 -34.9138 255 0 0
135.77 17.0116 -34.6191 255 0 0
135.337 15.8545 -34.028 255 0 0
135.141 14.6962 -33.3247 255 0 0
135.448 13.3928 -33.5982 255 0 0
135.811 12.2059 -34.1608 255 0 0
136.412 11.0037 -33.9008 255 0 0
136.778 9.69087 -33.7659 255 0 0
137.02 8.34517 -33.641 255 0 0
137.032 7.1245 -33.0287 255 0 0
