ply
format ascii 1.0
element vertex 59
property float x
property float y
property float z
property uchar red
property uchar green
property uchar blue
end_header
-8247.44 -358308.0 -5.36212 255 0 0
-8249.17 -358307.0 -4.76998 255 0 0
-8250.9 -358306.0 -4.17784 255 0 0
-8252.63 -358305.0 -3.5858 255 0 0
-8254.36 -358304.0 -2.99366 255 0 0
-8245.74 -358365.0 8.85987 255 0 0
-8246.22 -358363.0 9.65846 255 0 0
-8246.71 -358361.0 10.4572 255 0 0
-8247.2 -358359.0 11.2559 255 0 0
-8247.69 -358357.0 12.0547 255 0 0
-8248.23 -358356.0 12.8854 255 0 0
-8248.77 -358354.0 13.7214 255 0 0
-8249.32 -358352.0 14.5574 255 0 0
-8249.87 -358350.0 15.3934 255 0 0
-8251.42 -358350.0 15.2233 255 0 0
-8253.38 -358350.0 14.6505 255 0 0
-8255.33 -358350.0 14.0778 255 0 0
-8257.29 -358350.0 13.5052 255 0 0
-8257.78 -358352.0 12.7415 255 0 0
-8257.16 -358353.0 11.8345 255 0 0
-8256.54 -358355.0 10.9276 255 0 0
-8255.92 -358357.0 10.0206 255 0 0
-8255.27 -358358.0 8.98754 255 0 0
-8254.58 -358360.0 7.7865 255 0 0
-8253.89 -358361.0 6.58547 255 0 0
-8253.2 -358363.0 5.38435 255 0 0
-8252.58 -358363.0 4.31852 255 0 0
-8252.11 -358362.0 3.59074 255 0 0
-8251.65 -358360.0 2.86296 255 0 0
-8251.18 -358358.0 2.13526 255 0 0
-8250.69 -358356.0 1.40539 255 0 0
-8250.03 -358354.0 0.662671 255 0 0
-8249.37 -358352.0 -0.079881 255 0 0
-8248.71 -358351.0 -0.822601 255 0 0
-8248.04 -358349.0 -1.56515 255 0 0
-8247.18 -358347.0 -2.23642 255 0 0
-8246.32 -358345.0 -2.90751 255 0 0
-8245.46 -358344.0 -3.57878 255 0 0
-8244.6 -358342.0 -4.24997 255 0 0
-8244.67 -358340.0 -5.13895 255 0 0
-8244.9 -358338.0 -6.06432 255 0 0
-8245.13 -358336.0 -6.98959 255 0 0
-8245.36 -358335.0 -7.91495 255 0 0
-8246.13 -358333.0 -9.01225 255 0 0
-8247.11 -358332.0 -10.1785 255 0 0
-8248.09 -358330.0 -11.3446 255 0 0
-8249.07 -358329.0 -12.5107 255 0 0
-8249.42 -358327.0 -13.3147 255 0 0
-8249.29 -358325.0 -13.8469 255 0 0
-8249.16 -358323.0 -14.3792 255 0 0
-8249.03 -358321.0 -14.9114 255 0 0
-8248.86 -358319.0 -14.9337 255 0 0
-8248.64 -358318.0 -14.2761 255 0 0
-8248.42 -358316.0 -13.6185 255 0 0
-8248.2 -358314.0 -12.9609 255 0 0
-8247.98 -358312.0 -12.0053 255 0 0
-8247.78 -358311.0 -10.305 255 0 0
-8247.57 -358310.0 -8.60451 255 0 0
-8247.37 -358309.0 -6.90414 255 0 0
