ply
format ascii 1.0
element vertex 166
property float x
property float y
property float z
property uchar red
property uchar green
property uchar blue
end_header
-8.11216 -358.246 0.00657051 255 0 0
-8.11228 -358.246 0.00932345 255 0 0
-8.11384 -358.242 -0.00794501 255 0 0
-8.10999 -358.246 -0.0209145 255 0 0
-8.11318 -358.244 0.00281791 255 0 0
-8.11288 -358.245 0.00439218 255 0 0
-8.11346 -358.243 -0.00384987 255 0 0
-8.11471 -358.241 -0.000639188 255 0 0
-8.11655 -358.236 0.00256678 255 0 0
-8.11193 -358.244 -0.0272309 255 0 0
-8.11535 -358.236 -0.0299459 255 0 0
-8.11432 -358.24 -0.0114796 255 0 0
-8.11526 -358.236 -0.0211127 255 0 0
-8.11576 -358.236 -0.0308421 255 0 0
-8.11782 -358.231 -0.0127536 255 0 0
-8.11915 -358.226 -0.0152057 255 0 0
-8.11026 -358.245 -0.0226907 255 0 0
-8.11487 -358.237 -0.0189217 255 0 0
-8.11277 -358.241 -0.0210686 255 0 0
-8.10974 -358.246 -0.0207183 255 0 0
-8.11371 -358.241 -0.0135372 255 0 0
-8.11547 -358.235 -0.0255692 255 0 0
-8.11636 -358.236 -0.0063762 255 0 0
-8.11918 -358.227 -0.012243 255 0 0
-8.11774 -358.231 -0.0313674 255 0 0
-8.11903 -358.226 -0.0302952 255 0 0
-8.11986 -358.224 -0.0167993 255 0 0
-8.1188 -358.226 -0.0202393 255 0 0
-8.12091 -358.224 -0.0325643 255 0 0
-8.12214 -358.221 -0.0306032 255 0 0
-8.12108 -358.221 -0.0324841 255 0 0
-8.1207 -358.221 -0.0326407 255 0 0
-8.12465 -358.216 -0.0256373 255 0 0
-8.12168 -358.221 -0.011692 255 0 0
-8.11039 -358.246 0.0267666 255 0 0
-8.11274 -358.242 0.0255436 255 0 0
-8.10849 -358.251 0.0226755 255 0 0
-8.11007 -358.25 0.0103855 255 0 0
-8.10882 -358.251 0.0172567 255 0 0
-8.10989 -358.246 0.0280916 255 0 0
-8.11061 -358.245 0.0305506 255 0 0
-8.11223 -358.242 0.0301544 255 0 0
-8.11091 -358.243 0.0333817 255 0 0
-8.11448 -358.237 0.0300758 255 0 0
-8.11152 -358.242 0.0332491 255 0 0
-8.10608 -358.25 0.0228233 255 0 0
-8.11684 -358.235 0.0160938 255 0 0
-8.11681 -358.234 0.0202426 255 0 0
-8.11722 -358.235 0.0124159 255 0 0
-8.11878 -358.231 0.00670808 255 0 0
-8.11846 -358.231 0.0168983 255 0 0
-8.11624 -358.234 0.0241698 255 0 0
-8.1159 -358.234 0.0285342 255 0 0
-8.11827 -358.231 0.0204803 255 0 0
-8.12351 -358.218 -0.00433425 255 0 0
-8.1245 -358.216 -0.0108467 255 0 0
-8.12452 -358.215 -0.00182244 255 0 0
-8.12676 -358.211 -0.0100383 255 0 0
-8.12888 -358.206 -0.00948191 255 0 0
-8.12892 -358.206 -0.0106872 255 0 0
-8.12071 -358.222 0.0295512 255 0 0
-8.12146 -358.221 0.0250223 255 0 0
-8.12238 -358.222 0.0139906 255 0 0
-8.12288 -358.221 0.00992669 255 0 0
-8.12476 -358.216 0.00742137 255 0 0
-8.12629 -358.212 0.0245718 255 0 0
-8.12405 -358.217 0.0246157 255 0 0
-8.12687 -358.21 0.016309 255 0 0
-8.12695 -358.212 0.0230756 255 0 0
-8.1263 -358.212 0.0249547 255 0 0
-8.12514 -358.212 0.0258002 255 0 0
-8.12642 -358.211 -0.00202256 255 0 0
-8.12749 -358.209 0.00948706 255 0 0
-8.12871 -358.207 -0.00374651 255 0 0
-8.12908 -358.206 -0.00462952 255 0 0
-8.12827 -358.206 0.0170612 255 0 0
-8.13025 -358.201 0.0181795 255 0 0
-8.13059 -358.201 0.00993474 255 0 0
-8.12852 -358.211 -0.0251038 255 0 0
-8.13 -358.204 -0.0219767 255 0 0
-8.13084 -358.201 -0.0108332 255 0 0
-8.12913 -358.206 -0.00608506 255 0 0
-8.1295 -358.205 -0.0104492 255 0 0
-8.13097 -358.201 -0.021461 255 0 0
-8.12968 -358.201 -0.0228938 255 0 0
-8.13462 -358.193 -0.0170032 255 0 0
-8.13239 -358.196 -0.0200361 255 0 0
-8.13526 -358.191 -0.0173359 255 0 0
-8.13103 -358.201 -0.00296597 255 0 0
-8.13103 -358.201 -0.00730186 255 0 0
-8.13665 -358.191 -0.0144689 255 0 0
-8.13254 -358.195 0.00755943 255 0 0
-8.13441 -358.191 0.00285602 255 0 0
-8.13429 -358.192 0.0115405 255 0 0
-8.13692 -358.187 0.00738836 255 0 0
-8.1366 -358.186 0.00354954 255 0 0
-8.13933 -358.184 -0.0126419 255 0 0
-8.13848 -358.181 -0.00335941 255 0 0
-8.13925 -358.181 -0.00739129 255 0 0
-8.13781 -358.181 -0.0022153 255 0 0
-8.13972 -358.181 -0.0113146 255 0 0
-8.1383 -358.18 -0.00485523 255 0 0
-8.13911 -358.181 -0.012772 255 0 0
-8.1224 -358.221 0.00379233 255 0 0
-8.12587 -358.215 -0.0251266 255 0 0
-8.12087 -358.226 0.0103522 255 0 0
-8.12067 -358.226 0.0150172 255 0 0
-8.11878 -358.226 0.0279219 255 0 0
-8.11622 -358.232 0.0313479 255 0 0
-8.12783 -358.211 -0.0263438 255 0 0
-8.11216 -358.246 0.00657051 255 0 0
-8.11228 -358.246 0.00932345 255 0 0
-8.11384 -358.242 -0.00794501 255 0 0
-8.11471 -358.241 -0.000639188 255 0 0
-8.11655 -358.236 0.00256678 255 0 0
-8.11432 -358.24 -0.0114796 255 0 0
-8.11526 -358.236 -0.0211127 255 0 0
-8.11782 -358.231 -0.0127536 255 0 0
-8.11915 -358.226 -0.0152057 255 0 0
-8.11371 -358.241 -0.0135372 255 0 0
-8.11547 -358.235 -0.0255692 255 0 0
-8.11636 -358.236 -0.0063762 255 0 0
-8.11918 -358.227 -0.012243 255 0 0
-8.11774 -358.231 -0.0313674 255 0 0
-8.11986 -358.224 -0.0167993 255 0 0
-8.1188 -358.226 -0.0202393 255 0 0
-8.12091 -358.224 -0.0325643 255 0 0
-8.12168 -358.221 -0.011692 255 0 0
-8.11039 -358.246 0.0267666 255 0 0
-8.11274 -358.242 0.0255436 255 0 0
-8.10989 -358.246 0.0280916 255 0 0
-8.11061 -358.245 0.0305506 255 0 0
-8.11223 -358.242 0.0301544 255 0 0
-8.11684 -358.235 0.0160938 255 0 0
-8.11681 -358.234 0.0202426 255 0 0
-8.11722 -358.235 0.0124159 255 0 0
-8.11878 -358.231 0.00670808 255 0 0
-8.11846 -358.231 0.0168983 255 0 0
-8.11624 -358.234 0.0241698 255 0 0
-8.11827 -358.231 0.0204803 255 0 0
-8.12351 -358.218 -0.00433425 255 0 0
-8.1245 -358.216 -0.0108467 255 0 0
-8.12452 -358.215 -0.00182244 255 0 0
-8.12676 -358.211 -0.0100383 255 0 0
-8.12888 -358.206 -0.00948191 255 0 0
-8.12892 -358.206 -0.0106872 255 0 0
-8.12238 -358.222 0.0139906 255 0 0
-8.12288 -358.221 0.00992669 255 0 0
-8.12476 -358.216 0.00742137 255 0 0
-8.12687 -358.21 0.016309 255 0 0
-8.12642 -358.211 -0.00202256 255 0 0
-8.12749 -358.209 0.00948706 255 0 0
-8.12871 -358.207 -0.00374651 255 0 0
-8.12908 -358.206 -0.00462952 255 0 0
-8.12827 -358.206 0.0170612 255 0 0
-8.13059 -358.201 0.00993474 255 0 0
-8.13084 -358.201 -0.0108332 255 0 0
-8.12913 -358.206 -0.00608506 255 0 0
-8.1295 -358.205 -0.0104492 255 0 0
-8.13103 -358.201 -0.00296597 255 0 0
-8.13103 -358.201 -0.00730186 255 0 0
-8.13254 -358.195 0.00755943 255 0 0
-8.13441 -358.191 0.00285602 255 0 0
-8.1224 -358.221 0.00379233 255 0 0
-8.12087 -358.226 0.0103522 255 0 0
-8.12067 -358.226 0.0150172 255 0 0
