ply
format ascii 1.0
element vertex 78
property float x
property float y
property float z
property uchar red
property uchar green
property uchar blue
end_header
-8254.58 -358298.0 5.5456 255 0 0
-8254.55 -358297.0 7.30146 255 0 0
-8254.13 -358296.0 9.15532 255 0 0
-8253.7 -358295.0 11.0091 255 0 0
-8253.28 -358295.0 12.8629 255 0 0
-8252.98 -358294.0 14.5736 255 0 0
-8254.81 -358294.0 13.7114 255 0 0
-8256.65 -358294.0 12.8491 255 0 0
-8258.48 -358294.0 11.9869 255 0 0
-8260.32 -358294.0 11.1246 255 0 0
-8258.42 -358346.0 13.2841 255 0 0
-8256.83 -358346.0 14.2719 255 0 0
-8255.23 -358345.0 15.2596 255 0 0
-8253.63 -358344.0 16.2474 255 0 0
-8252.03 -358343.0 17.235 255 0 0
-8251.47 -358345.0 16.2909 255 0 0
-8250.97 -358347.0 15.2394 255 0 0
-8250.47 -358348.0 14.1878 255 0 0
-8249.97 -358350.0 13.1364 255 0 0
-8249.42 -358351.0 11.8685 255 0 0
-8248.87 -358353.0 10.5749 255 0 0
-8248.32 -358354.0 9.28155 255 0 0
-8247.77 -358356.0 7.98806 255 0 0
-8247.26 -358357.0 6.82929 255 0 0
-8246.76 -358359.0 5.69604 255 0 0
-8246.26 -358360.0 4.56253 255 0 0
-8245.76 -358362.0 3.42929 255 0 0
-8247.25 -358362.0 3.25503 255 0 0
-8249.28 -358362.0 3.33675 255 0 0
-8251.31 -358362.0 3.41847 255 0 0
-8253.33 -358362.0 3.50018 255 0 0
-8254.27 -358361.0 4.13036 255 0 0
-8254.83 -358359.0 4.95644 255 0 0
-8255.38 -358357.0 5.78251 255 0 0
-8255.93 -358356.0 6.60852 255 0 0
-8255.52 -358355.0 5.7982 255 0 0
-8254.66 -358354.0 4.2328 255 0 0
-8253.79 -358353.0 2.66729 255 0 0
-8252.93 -358352.0 1.1017 255 0 0
-8252.1 -358351.0 -0.419268 255 0 0
-8251.29 -358349.0 -1.91407 255 0 0
-8250.47 -358348.0 -3.40895 255 0 0
-8249.66 -358347.0 -4.90384 255 0 0
-8248.65 -358346.0 -5.83844 255 0 0
-8247.5 -358344.0 -6.36532 255 0 0
-8246.35 -358343.0 -6.8924 255 0 0
-8245.2 -358341.0 -7.41939 255 0 0
-8244.8 -358339.0 -8.15506 255 0 0
-8245.08 -358338.0 -9.07833 255 0 0
-8245.37 -358336.0 -10.0016 255 0 0
-8245.65 -358334.0 -10.9249 255 0 0
-8246.25 -358332.0 -11.8951 255 0 0
-8247.21 -358331.0 -12.9175 255 0 0
-8248.16 -358329.0 -13.94 255 0 0
-8249.12 -358328.0 -14.9625 255 0 0
-8249.57 -358326.0 -15.8251 255 0 0
-8249.32 -358324.0 -16.4679 255 0 0
-8249.07 -358323.0 -17.1106 255 0 0
-8248.83 -358321.0 -17.7534 255 0 0
-8248.54 -358319.0 -18.0457 255 0 0
-8248.2 -358317.0 -17.7373 255 0 0
-8247.86 -358315.0 -17.429 255 0 0
-8247.52 -358313.0 -17.1205 255 0 0
-8247.03 -358311.0 -16.3664 255 0 0
-8246.24 -358310.0 -14.6459 255 0 0
-8245.45 -358310.0 -12.9257 255 0 0
-8244.66 -358309.0 -11.2054 255 0 0
-8244.39 -358308.0 -9.55523 255 0 0
-8245.58 -358308.0 -8.10166 255 0 0
-8246.77 -358307.0 -6.648 255 0 0
-8247.96 -358306.0 -5.19443 255 0 0
-8249.19 -358305.0 -3.83483 255 0 0
-8250.58 -358304.0 -2.82703 255 0 0
-8251.96 -358303.0 -1.81922 255 0 0
-8253.35 -358302.0 -0.811595 255 0 0
-8254.52 -358301.0 0.312461 255 0 0
-8254.54 -358300.0 2.05681 255 0 0
-8254.56 -358299.0 3.80125 255 0 0
