ply
format ascii 1.0
element vertex 130
property float x
property float y
property float z
property uchar red
property uchar green
property uchar blue
end_header
-8131.58 -357992.0 28.5383 255 0 0
-8129.66 -357992.0 28.0555 255 0 0
-8127.73 -357991.0 27.6396 255 0 0
-8125.79 -357991.0 27.2227 255 0 0
-8124.62 -357992.0 26.0939 255 0 0
-8123.95 -357993.0 24.5072 255 0 0
-8123.27 -357994.0 22.9195 255 0 0
-8122.68 -357995.0 21.3782 255 0 0
-8122.1 -357996.0 19.8481 255 0 0
-8121.52 -357997.0 18.3181 255 0 0
-8162.99 -358063.0 -34.2991 255 0 0
-8161.74 -358062.0 -35.6094 255 0 0
-8160.48 -358061.0 -36.9197 255 0 0
-8159.29 -358060.0 -38.2771 255 0 0
-8158.36 -358059.0 -39.8284 255 0 0
-8157.43 -358058.0 -41.3797 255 0 0
-8156.44 -358058.0 -42.9427 255 0 0
-8155.36 -358059.0 -44.5241 255 0 0
-8154.29 -358059.0 -46.1053 255 0 0
-8152.85 -358059.0 -47.1974 255 0 0
-8151.15 -358058.0 -47.9452 255 0 0
-8149.45 -358058.0 -48.6929 255 0 0
-8147.58 -358058.0 -49.1838 255 0 0
-8145.66 -358058.0 -49.6033 255 0 0
-8143.74 -358059.0 -50.0229 255 0 0
-8141.72 -358059.0 -50.1737 255 0 0
-8139.7 -358059.0 -50.3185 255 0 0
-8137.68 -358059.0 -50.3922 255 0 0
-8135.67 -358059.0 -50.1276 255 0 0
-8133.66 -358059.0 -49.8632 255 0 0
-8132.62 -358059.0 -49.0191 255 0 0
-8133.22 -358060.0 -47.1863 255 0 0
-8133.82 -358061.0 -45.3536 255 0 0
-8134.56 -358061.0 -43.5571 255 0 0
-8135.42 -358062.0 -41.7883 255 0 0
-8136.28 -358062.0 -40.0196 255 0 0
-8137.37 -358062.0 -38.3989 255 0 0
-8138.54 -358061.0 -36.8247 255 0 0
-8139.7 -358061.0 -35.2506 255 0 0
-8141.0 -358060.0 -33.7384 255 0 0
-8142.31 -358060.0 -32.2291 255 0 0
-8143.64 -358060.0 -30.8445 255 0 0
-8145.12 -358061.0 -30.1548 255 0 0
-8146.61 -358062.0 -29.4651 255 0 0
-8148.07 -358064.0 -28.7424 255 0 0
-8149.5 -358065.0 -27.9574 255 0 0
-8150.93 -358066.0 -27.1725 255 0 0
-8152.35 -358067.0 -26.3609 255 0 0
-8153.78 -358068.0 -25.527 255 0 0
-8155.21 -358070.0 -24.693 255 0 0
-8156.56 -358071.0 -23.8642 255 0 0
-8157.9 -358072.0 -23.0369 255 0 0
-8159.24 -358073.0 -22.2098 255 0 0
-8160.47 -358074.0 -20.9598 255 0 0
-8161.7 -358075.0 -19.6803 255 0 0
-8163.03 -358076.0 -18.5826 255 0 0
-8165.04 -358076.0 -18.6955 255 0 0
-8167.06 -358076.0 -18.8085 255 0 0
-8169.05 -358076.0 -19.0356 255 0 0
-8171.0 -358075.0 -19.4989 255 0 0
-8172.95 -358075.0 -19.9622 255 0 0
-8174.33 -358075.0 -19.287 255 0 0
-8175.19 -358076.0 -17.5683 255 0 0
-8176.04 -358076.0 -15.8495 255 0 0
-8176.45 -358077.0 -13.922 255 0 0
-8176.68 -358076.0 -11.9123 255 0 0
-8176.9 -358076.0 -9.90172 255 0 0
-8177.26 -358076.0 -7.91987 255 0 0
-8177.63 -358076.0 -5.93903 255 0 0
-8178.0 -358076.0 -3.96591 255 0 0
-8178.37 -358075.0 -2.03916 255 0 0
-8178.75 -358075.0 -0.113489 255 0 0
-8179.04 -358074.0 1.72794 255 0 0
-8179.14 -358073.0 3.37914 255 0 0
-8179.25 -358072.0 5.02943 255 0 0
-8179.34 -358070.0 6.59231 255 0 0
-8179.42 -358069.0 8.06779 255 0 0
-8179.5 -358068.0 9.54235 255 0 0
-8179.28 -358066.0 11.02 255 0 0
-8178.94 -358065.0 12.4989 255 0 0
-8178.59 -358063.0 13.9777 255 0 0
-8178.47 -358062.0 15.6318 255 0 0
-8178.38 -358061.0 17.307 255 0 0
-8178.3 -358060.0 18.98 255 0 0
-8178.33 -358059.0 20.6368 255 0 0
-8178.36 -358058.0 22.2925 255 0 0
-8178.21 -358056.0 23.7776 255 0 0
-8177.63 -358055.0 24.8294 255 0 0
-8177.05 -358053.0 25.8813 255 0 0
-8176.47 -358052.0 27.0033 255 0 0
-8175.9 -358050.0 28.2015 255 0 0
-8175.33 -358049.0 29.3998 255 0 0
-8174.77 -358047.0 30.4391 255 0 0
-8174.23 -358045.0 31.3997 255 0 0
-8173.7 -358043.0 32.3612 255 0 0
-8173.19 -358042.0 33.4491 255 0 0
-8172.68 -358040.0 34.5554 255 0 0
-8172.16 -358039.0 35.6317 255 0 0
-8171.3 -358037.0 36.2678 255 0 0
-8170.45 -358035.0 36.9038 255 0 0
-8169.7 -358033.0 37.7302 255 0 0
-8169.24 -358032.0 39.0943 255 0 0
-8168.78 -358031.0 40.4593 255 0 0
-8167.76 -358029.0 41.2729 255 0 0
-8166.06 -358028.0 41.4274 255 0 0
-8164.36 -358027.0 41.5829 255 0 0
-8162.77 -358026.0 41.4673 255 0 0
-8161.23 -358025.0 41.2074 255 0 0
-8159.7 -358023.0 40.9464 255 0 0
-8158.37 -358022.0 40.405 255 0 0
-8157.08 -358020.0 39.8136 255 0 0
-8155.8 -358019.0 39.2192 255 0 0
-8154.76 -358017.0 38.5673 255 0 0
-8153.72 -358016.0 37.9163 255 0 0
-8152.68 -358014.0 37.2653 255 0 0
-8151.63 -358013.0 36.6119 255 0 0
-8150.58 -358011.0 35.9585 255 0 0
-8149.54 -358009.0 35.3354 255 0 0
-8148.49 -358008.0 34.7496 255 0 0
-8147.45 -358006.0 34.1639 255 0 0
-8146.25 -358005.0 33.6571 255 0 0
-8144.96 -358003.0 33.1975 255 0 0
-8143.67 -358002.0 32.7379 255 0 0
-8142.35 -358000.0 32.2057 255 0 0
-8141.02 -357999.0 31.6588 255 0 0
-8139.68 -357997.0 31.1117 255 0 0
-8138.28 -357996.0 30.6086 255 0 0
-8136.88 -357995.0 30.1045 255 0 0
-8135.37 -357993.0 29.5949 255 0 0
-8133.47 -357993.0 29.0666 255 0 0
