ply
format ascii 1.0
element vertex 92
property float x
property float y
property float z
property uchar red
property uchar green
property uchar blue
end_header
-8088.38 -358298.0 24.6796 255 0 0
-8088.22 -358296.0 25.5637 255 0 0
-8088.11 -358294.0 25.4917 255 0 0
-8087.76 -358292.0 25.534 255 0 0
-8086.93 -358290.0 25.8049 255 0 0
-8086.05 -358289.0 26.0252 255 0 0
-8084.96 -358287.0 25.9919 255 0 0
-8083.86 -358285.0 25.9587 255 0 0
-8085.18 -358284.0 26.2481 255 0 0
-8086.5 -358282.0 26.5374 255 0 0
-8087.86 -358281.0 26.9088 255 0 0
-8089.23 -358279.0 27.2967 255 0 0
-8089.31 -358277.0 27.3192 255 0 0
-8088.73 -358275.0 27.1588 255 0 0
-8087.99 -358274.0 26.9877 255 0 0
-8087.08 -358272.0 26.806 255 0 0
-8086.89 -358270.0 26.6245 255 0 0
-8088.1 -358268.0 26.4438 255 0 0
-8089.33 -358267.0 26.2614 255 0 0
-8090.64 -358265.0 26.071 255 0 0
-8091.96 -358264.0 25.8807 255 0 0
-8092.06 -358262.0 24.9339 255 0 0
-8092.17 -358260.0 23.987 255 0 0
-8092.31 -358259.0 22.288 255 0 0
-8092.46 -358258.0 20.4386 255 0 0
-8092.59 -358257.0 18.6026 255 0 0
-8092.72 -358256.0 16.7733 255 0 0
-8092.88 -358255.0 15.0478 255 0 0
-8093.06 -358254.0 13.4259 255 0 0
-8093.19 -358253.0 11.8512 255 0 0
-8093.19 -358252.0 10.3705 255 0 0
-8093.2 -358250.0 8.84358 255 0 0
-8093.23 -358249.0 7.08654 255 0 0
-8093.26 -358248.0 5.32941 255 0 0
-8085.37 -358250.0 -10.8032 255 0 0
-8085.24 -358250.0 -12.764 255 0 0
-8085.12 -358251.0 -14.7248 255 0 0
-8084.94 -358252.0 -16.4005 255 0 0
-8084.75 -358253.0 -18.0189 255 0 0
-8084.56 -358254.0 -19.7018 255 0 0
-8084.37 -358256.0 -21.4155 255 0 0
-8084.16 -358257.0 -22.9989 255 0 0
-8083.93 -358258.0 -24.4499 255 0 0
-8083.7 -358260.0 -25.9514 255 0 0
-8083.47 -358261.0 -27.5519 255 0 0
-8083.32 -358262.0 -29.1156 255 0 0
-8083.53 -358264.0 -30.499 255 0 0
-8083.74 -358265.0 -31.8814 255 0 0
-8083.99 -358266.0 -33.3711 255 0 0
-8084.25 -358268.0 -34.8609 255 0 0
-8085.75 -358268.0 -35.8312 255 0 0
-8087.49 -358269.0 -36.6987 255 0 0
-8088.32 -358270.0 -36.2881 255 0 0
-8088.68 -358272.0 -35.2382 255 0 0
-8089.0 -358274.0 -34.1167 255 0 0
-8089.27 -358275.0 -32.9234 255 0 0
-8089.46 -358277.0 -31.6759 255 0 0
-8089.5 -358278.0 -30.322 255 0 0
-8089.58 -358280.0 -28.9021 255 0 0
-8089.84 -358281.0 -27.1567 255 0 0
-8090.09 -358282.0 -25.4114 255 0 0
-8090.31 -358283.0 -23.6695 255 0 0
-8090.53 -358284.0 -21.9266 255 0 0
-8090.52 -358285.0 -20.4012 255 0 0
-8090.47 -358287.0 -18.9181 255 0 0
-8090.37 -358288.0 -17.3185 255 0 0
-8090.25 -358289.0 -15.6602 255 0 0
-8090.12 -358290.0 -13.9845 255 0 0
-8090.0 -358291.0 -12.2895 255 0 0
-8089.83 -358293.0 -10.5926 255 0 0
-8089.6 -358294.0 -8.89051 255 0 0
-8089.15 -358295.0 -7.27653 255 0 0
-8087.66 -358295.0 -6.0994 255 0 0
-8086.16 -358296.0 -4.92239 255 0 0
-8084.28 -358296.0 -4.14435 255 0 0
-8082.4 -358296.0 -3.36632 255 0 0
-8082.03 -358298.0 -2.00775 255 0 0
-8081.95 -358299.0 -0.533216 255 0 0
-8081.84 -358300.0 0.841415 255 0 0
-8081.71 -358302.0 2.16619 255 0 0
-8081.67 -358303.0 3.84424 255 0 0
-8081.71 -358303.0 5.87566 255 0 0
-8081.7 -358303.0 7.90749 255 0 0
-8081.61 -358303.0 9.94036 255 0 0
-8081.67 -358303.0 11.9112 255 0 0
-8082.53 -358302.0 13.5724 255 0 0
-8083.4 -358301.0 15.2336 255 0 0
-8084.32 -358301.0 16.8588 255 0 0
-8085.25 -358300.0 18.4838 255 0 0
-8086.67 -358299.0 19.8541 255 0 0
-8088.2 -358299.0 21.1732 255 0 0
-8088.58 -358298.0 22.8397 255 0 0
