ply
format ascii 1.0
element vertex 113
property float x
property float y
property float z
property uchar red
property uchar green
property uchar blue
end_header
-7.82075 358.095 0.0204672 255 0 0
-7.82157 358.097 0.0199961 255 0 0
-7.82317 358.102 0.0178588 255 0 0
-7.81942 358.092 0.0170726 255 0 0
-7.81804 358.089 0.0163816 255 0 0
-7.81832 358.089 0.0141294 255 0 0
-7.81727 358.087 0.0126138 255 0 0
-7.81712 358.087 0.0113356 255 0 0
-7.81551 358.084 0.00868074 255 0 0
-7.81498 358.082 0.00691785 255 0 0
-7.8226 358.103 0.0114507 255 0 0
-7.82483 358.108 0.00865908 255 0 0
-7.81461 358.082 0.00654384 255 0 0
-7.82229 358.101 -0.00859916 255 0 0
-7.82219 358.102 -0.00719069 255 0 0
-7.81969 358.095 -0.00775826 255 0 0
-7.81921 358.092 -0.00923095 255 0 0
-7.81578 358.084 -0.0107797 255 0 0
-7.81589 358.085 -0.010981 255 0 0
-7.81816 358.09 -0.0110524 255 0 0
-7.82084 358.097 -0.00859767 255 0 0
-7.82191 358.1 -0.00884589 255 0 0
-7.81283 358.077 -0.000459495 255 0 0
-7.81445 358.081 0.0038299 255 0 0
-7.81378 358.08 0.00322998 255 0 0
-7.81375 358.079 0.0012785 255 0 0
-7.8229 358.102 0.0167792 255 0 0
-7.81186 358.075 -0.00508835 255 0 0
-7.8112 358.072 -0.00654122 255 0 0
-7.8122 358.074 -0.00553748 255 0 0
-7.81098 358.072 -0.00667729 255 0 0
-7.81095 358.072 -0.00696696 255 0 0
-7.81077 358.072 -0.00865192 255 0 0
-7.81264 358.077 -0.00473803 255 0 0
-7.82247 358.102 0.0158702 255 0 0
-7.82268 358.103 0.0131828 255 0 0
-7.82282 358.103 0.0144474 255 0 0
-7.82284 358.104 0.0104295 255 0 0
-7.81492 358.082 -0.0107918 255 0 0
-7.81032 358.07 -0.00988765 255 0 0
-7.81061 358.069 -0.0127501 255 0 0
-7.81031 358.07 -0.0103838 255 0 0
-7.8105 358.07 -0.0133639 255 0 0
-7.81047 358.07 -0.0132145 255 0 0
-7.81185 358.072 -0.0159603 255 0 0
-7.81386 358.08 -0.0109246 255 0 0
-7.81459 358.079 -0.0135298 255 0 0
-7.81309 358.077 -0.0134725 255 0 0
-7.8129 358.075 -0.015665 255 0 0
-7.8127 358.074 -0.0157516 255 0 0
-7.82903 358.115 -0.0010633 255 0 0
-7.82892 358.115 -0.0018979 255 0 0
-7.8265 358.113 -0.00228573 255 0 0
-7.82845 358.115 -0.00233528 255 0 0
-7.81669 358.087 -0.0115597 255 0 0
-7.81794 358.09 -0.0114303 255 0 0
-7.82685 358.111 0.00382157 255 0 0
-7.82622 358.111 0.00187627 255 0 0
-7.82111 358.094 0.0215806 255 0 0
-7.82639 358.112 -0.00474848 255 0 0
-7.82395 358.107 -0.00563619 255 0 0
-7.82064 358.092 0.0216685 255 0 0
-7.82005 358.092 0.0209237 255 0 0
-7.82598 358.112 -0.00425312 255 0 0
-7.82356 358.106 -0.00617091 255 0 0
-7.82307 358.105 -0.00621611 255 0 0
-7.82857 358.095 -0.00258761 255 0 0
-7.82832 358.094 -0.00461345 255 0 0
-7.82367 358.082 0.00667921 255 0 0
-7.82545 358.087 0.00932873 255 0 0
-7.8261 358.089 0.0128961 255 0 0
-7.8263 358.089 0.0105987 255 0 0
-7.82459 358.085 0.00746523 255 0 0
-7.82982 358.1 0.00877715 255 0 0
-7.82972 358.099 0.00890219 255 0 0
-7.83199 358.106 0.00440896 255 0 0
-7.83183 358.106 0.002162 255 0 0
-7.82291 358.079 0.0055882 255 0 0
-7.82262 358.079 0.00189408 255 0 0
-7.82197 358.077 -0.00062419 255 0 0
-7.82442 358.084 0.00261241 255 0 0
-7.82427 358.084 0.000256013 255 0 0
-7.82128 358.075 -0.00212228 255 0 0
-7.82791 358.094 0.0154726 255 0 0
-7.82137 358.075 -0.00297664 255 0 0
-7.82115 358.074 -0.00390607 255 0 0
-7.8202 358.072 -0.00504026 255 0 0
-7.82709 358.092 0.0142598 255 0 0
-7.82021 358.072 -0.00682276 255 0 0
-7.82872 358.097 0.0111918 255 0 0
-7.82039 358.072 -0.010437 255 0 0
-7.82879 358.097 0.0100793 255 0 0
-7.82436 358.084 -0.00405405 255 0 0
-7.82427 358.084 -0.00786842 255 0 0
-7.82332 358.081 -0.00826267 255 0 0
-7.82332 358.081 -0.0100236 255 0 0
-7.82339 358.081 -0.0111963 255 0 0
-7.82187 358.077 -0.00871058 255 0 0
-7.83037 358.101 0.00884707 255 0 0
-7.82263 358.079 -0.00964223 255 0 0
-7.82878 358.097 -0.00412424 255 0 0
-7.8289 358.097 -0.00415534 255 0 0
-7.82958 358.099 -0.00298002 255 0 0
-7.8304 358.102 -0.00187537 255 0 0
-7.83229 358.107 -0.00295673 255 0 0
-7.83108 358.103 -0.00170631 255 0 0
-7.82887 358.097 -0.00411999 255 0 0
-7.82788 358.092 -0.000236811 255 0 0
-7.82705 358.09 -0.00165196 255 0 0
-7.82158 358.075 -0.0115045 255 0 0
-7.83056 358.102 0.00788911 255 0 0
-7.83144 358.104 0.00727372 255 0 0
-7.8332 358.109 -0.0024196 255 0 0
