ply
format ascii 1.0
element vertex 170
property float x
property float y
property float z
property uchar red
property uchar green
property uchar blue
end_header
-8.05102 357.984 -0.0262633 255 0 0
-8.07874 357.98 -0.0179705 255 0 0
-8.08377 357.982 -0.0181397 255 0 0
-8.05191 357.988 -0.0259101 255 0 0
-8.05757 357.989 -0.0307233 255 0 0
-8.06262 357.994 -0.0347501 255 0 0
-8.09333 357.974 -0.00560389 255 0 0
-8.05831 357.978 -0.0175721 255 0 0
-8.0967 357.999 0.0144442 255 0 0
-8.09742 357.999 0.00961697 255 0 0
-8.10093 358.001 0.00498275 255 0 0
-8.10237 358.003 0.00660727 255 0 0
-8.10121 358.003 0.00986457 255 0 0
-8.12173 358.005 -0.0409891 255 0 0
-8.11149 358.006 -0.0453552 255 0 0
-8.10357 358.004 -0.0459637 255 0 0
-8.10595 358.004 -0.0448152 255 0 0
-8.11672 358.007 -0.0451737 255 0 0
-8.12091 358.009 -0.0443803 255 0 0
-8.09674 357.979 -0.0122996 255 0 0
-8.09349 357.977 -0.00921076 255 0 0
-8.09354 357.978 -0.0112186 255 0 0
-8.10578 357.984 -0.0199765 255 0 0
-8.09858 357.984 -0.0184823 255 0 0
-8.0899 357.974 -0.00488912 255 0 0
-8.08696 357.99 0.0161217 255 0 0
-8.08928 357.994 0.0217432 255 0 0
-8.08228 357.986 0.0195315 255 0 0
-8.0849 357.988 0.0172145 255 0 0
-8.08464 357.989 0.0221633 255 0 0
-8.09189 357.993 0.0110019 255 0 0
-8.09128 357.994 0.0147763 255 0 0
-8.09548 357.999 0.0149076 255 0 0
-8.09218 357.997 0.020865 255 0 0
-8.10538 358.005 -0.00111287 255 0 0
-8.10936 358.008 -0.0057203 255 0 0
-8.06362 357.994 -0.03652 255 0 0
-8.10578 358.007 0.00373457 255 0 0
-8.06716 357.999 -0.0425651 255 0 0
-8.06731 357.999 -0.0418057 255 0 0
-8.06712 357.999 -0.0405053 255 0 0
-8.06985 357.959 0.0212085 255 0 0
-8.07365 357.959 0.0203022 255 0 0
-8.06897 357.958 0.0227315 255 0 0
-8.06674 357.959 0.0227208 255 0 0
-8.06498 357.958 0.0240455 255 0 0
-8.07759 357.963 0.0120682 255 0 0
-8.0856 357.969 0.00225603 255 0 0
-8.08181 357.964 0.00970106 255 0 0
-8.0794 357.964 0.0102788 255 0 0
-8.06821 357.961 0.0186451 255 0 0
-8.06507 357.963 0.0152206 255 0 0
-8.06643 357.964 0.0129995 255 0 0
-8.07609 357.96 0.0172682 255 0 0
-8.11137 357.989 -0.025672 255 0 0
-8.10565 357.989 -0.0249344 255 0 0
-8.08791 357.986 -0.0238077 255 0 0
-8.10178 357.984 -0.0193301 255 0 0
-8.1031 357.984 -0.0200635 255 0 0
-8.05062 357.953 0.0419372 255 0 0
-8.04782 357.953 0.0438513 255 0 0
-8.04514 357.955 0.0396785 255 0 0
-8.04577 357.953 0.0449523 255 0 0
-8.04077 357.957 0.0350082 255 0 0
-8.03756 357.957 0.0355822 255 0 0
-8.05061 357.96 0.0244636 255 0 0
-8.04501 357.959 0.0298395 255 0 0
-8.09775 357.98 -0.0144171 255 0 0
-8.11678 357.994 -0.0302356 255 0 0
-8.0469 357.964 0.014805 255 0 0
-8.1075 357.997 -0.0347633 255 0 0
-8.11733 357.995 -0.0311885 255 0 0
-8.02666 357.966 0.0161558 255 0 0
-8.08821 357.973 -0.00354886 255 0 0
-8.1214 358.004 -0.0402946 255 0 0
-8.0688 357.999 -0.0478532 255 0 0
-8.0812 358.004 -0.052183 255 0 0
-8.0625 357.953 0.0351236 255 0 0
-8.07144 358.004 -0.0537219 255 0 0
-8.05728 357.953 0.0382791 255 0 0
-8.06978 358.004 -0.0507035 255 0 0
-8.06036 357.957 0.0285185 255 0 0
-8.06497 357.956 0.0281721 255 0 0
-8.05621 357.953 0.0389985 255 0 0
-8.05559 357.954 0.039166 255 0 0
-8.05401 357.956 0.0340613 255 0 0
-8.08745 357.991 0.0210878 255 0 0
-8.04762 357.979 -0.0164178 255 0 0
-8.04853 357.984 -0.0230256 255 0 0
-8.04871 357.985 -0.0215337 255 0 0
-8.04468 357.976 -0.0104258 255 0 0
-8.1101 358.004 -0.0439332 255 0 0
-8.04493 357.977 -0.000276163 255 0 0
-8.04888 357.985 -0.0205623 255 0 0
-8.04541 357.977 -0.000670458 255 0 0
-8.04488 357.974 0.000241188 255 0 0
-8.04545 357.974 -0.003808 255 0 0
-8.05837 357.975 -0.0112885 255 0 0
-8.04468 357.976 -0.0102094 255 0 0
-8.06463 357.966 0.0514788 255 0 0
-8.06732 357.968 0.0503806 255 0 0
-8.04287 357.969 0.00526649 255 0 0
-8.03834 357.969 0.00863704 255 0 0
-8.03608 357.967 0.0103281 255 0 0
-8.03514 357.969 0.0120324 255 0 0
-8.10127 357.999 -0.039609 255 0 0
-8.09382 357.989 -0.0266457 255 0 0
-8.09637 357.991 -0.029482 255 0 0
-8.04367 357.969 0.00388653 255 0 0
-8.12165 358.0 -0.0364657 255 0 0
-8.12582 357.999 -0.0358065 255 0 0
-8.11964 357.999 -0.0353394 255 0 0
-8.07874 357.98 -0.0179705 255 0 0
-8.08377 357.982 -0.0181397 255 0 0
-8.07867 357.99 -0.0179791 255 0 0
-8.08395 357.991 -0.0177963 255 0 0
-8.07936 357.989 -0.0152428 255 0 0
-8.07302 357.986 -0.0124536 255 0 0
-8.0779 357.987 -0.0127884 255 0 0
-8.05831 357.978 -0.0175721 255 0 0
-8.10221 358.008 -0.0387122 255 0 0
-8.08773 357.991 -0.0331783 255 0 0
-8.0637 357.98 -0.00151234 255 0 0
-8.06865 357.994 -0.0258582 255 0 0
-8.08208 358.003 -0.0380519 255 0 0
-8.0807 358.006 -0.0425986 255 0 0
-8.05755 357.969 0.00199565 255 0 0
-8.06985 357.959 0.0212085 255 0 0
-8.06897 357.958 0.0227315 255 0 0
-8.06674 357.959 0.0227208 255 0 0
-8.06498 357.958 0.0240455 255 0 0
-8.07759 357.963 0.0120682 255 0 0
-8.06821 357.961 0.0186451 255 0 0
-8.06507 357.963 0.0152206 255 0 0
-8.06643 357.964 0.0129995 255 0 0
-8.08791 357.986 -0.0238077 255 0 0
-8.04514 357.955 0.0396785 255 0 0
-8.04077 357.957 0.0350082 255 0 0
-8.03756 357.957 0.0355822 255 0 0
-8.05061 357.96 0.0244636 255 0 0
-8.02827 357.961 0.0264686 255 0 0
-8.03597 357.964 0.035859 255 0 0
-8.02971 357.964 0.0362793 255 0 0
-8.02859 357.966 0.0315518 255 0 0
-8.02755 357.964 0.0362073 255 0 0
-8.03497 357.963 0.0370288 255 0 0
-8.02983 357.963 0.0387255 255 0 0
-8.0469 357.964 0.014805 255 0 0
-8.04061 357.964 0.0153205 255 0 0
-8.04367 357.97 0.0202074 255 0 0
-8.04065 357.97 0.0204778 255 0 0
-8.05038 357.974 0.0092953 255 0 0
-8.1075 357.997 -0.0347633 255 0 0
-8.11733 357.995 -0.0311885 255 0 0
-8.04662 357.972 0.0146696 255 0 0
-8.05728 357.953 0.0382791 255 0 0
-8.06036 357.957 0.0285185 255 0 0
-8.06497 357.956 0.0281721 255 0 0
-8.05621 357.953 0.0389985 255 0 0
-8.05559 357.954 0.039166 255 0 0
-8.05401 357.956 0.0340613 255 0 0
-8.05837 357.975 -0.0112885 255 0 0
-8.10127 357.999 -0.039609 255 0 0
-8.09382 357.989 -0.0266457 255 0 0
-8.03062 357.964 0.0185172 255 0 0
-8.02957 357.963 0.0211439 255 0 0
-8.09637 357.991 -0.029482 255 0 0
-8.06028 357.977 0.00389087 255 0 0
-8.05212 357.974 0.0105527 255 0 0
-8.06037 357.979 -0.000745426 255 0 0
