# .PCD v0.7 - Point Cloud Data file format
# 2 30 0
# 1 29 0
# 30 30 0
VERSION 0.7
FIELDS x y z normal_x normal_y normal_z curvature
SIZE 4 4 4 4 4 4 4
TYPE F F F F F F F
COUNT 1 1 1 1 1 1 1
WIDTH 30
HEIGHT 1
VIEWPOINT 0 0 0 1 0 0 0
POINTS 30
DATA ascii
0.169039 0.168554 -1.61532 -0.12074 0.618927 -0.776113 0.01
0.16923 0.167615 -1.61622 -0.810205 -0.550327 0.201762 1
0.184483 0.188044 -1.60542 -0.573479 -0.0865344 0.814637 1
0.183285 0.187943 -1.60489 -0.358306 0.0471263 0.932414 1
0.182092 0.18784 -1.60434 -0.441144 0.111212 0.890519 1
0.180912 0.187729 -1.60377 -0.441144 0.111212 0.890519 0
0.179727 0.187788 -1.60322 -0.441144 0.111212 0.890519 0
0.178538 0.187964 -1.60269 -0.441144 0.111212 0.890519 0
0.177258 0.187833 -1.60247 -0.441144 0.111212 0.890519 1
0.175983 0.187592 -1.60234 0.546776 -0.264847 0.794287 1
0.174797 0.187027 -1.60241 0.503195 -0.510497 0.697272 1
0.173624 0.186436 -1.60242 0.486444 -0.611302 0.624245 1
0.172463 0.185818 -1.60237 0.491981 -0.646501 0.583088 1
0.17149 0.18497 -1.60252 0.499251 -0.664938 0.555523 1
0.170589 0.184042 -1.60275 0.511111 -0.669275 0.539292 1
0.169944 0.182988 -1.6032 0.52319 -0.666579 0.530984 1
0.169347 0.181955 -1.60374 0.537221 -0.657414 0.528395 1
0.168838 0.180962 -1.60443 0.551728 -0.643544 0.530516 1
0.168315 0.179935 -1.60507 0.56836 -0.623857 0.536442 1
0.167784 0.178889 -1.60566 0.586335 -0.598209 0.546221 1
0.167517 0.177894 -1.60647 0.602158 -0.568031 0.561022 1
0.1673 0.176898 -1.6073 0.61522 -0.533634 0.580292 1
0.167191 0.17589 -1.60814 0.625325 -0.491939 0.605775 1
0.167208 0.174869 -1.60896 0.629463 -0.438067 0.641774 1
0.167338 0.173836 -1.60977 0.634611 -0.444947 0.631895 1
0.167504 0.172897 -1.61067 0.639416 -0.454823 0.619906 1
0.1677 0.171998 -1.61161 0.643249 -0.461039 0.611288 1
0.168077 0.171241 -1.61261 0.643378 -0.468017 0.605826 1
0.168445 0.170415 -1.61356 0.643714 -0.47336 0.601301 1
0.1688 0.16949 -1.61443 0.644919 -0.47701 0.597111 1
