# .PCD v0.7 - Point Cloud Data file format
# 4 101 0
# 1 18 0
# 19 43 0
# 44 70 0
# 71 101 0
VERSION 0.7
FIELDS x y z normal_x normal_y normal_z curvature
SIZE 4 4 4 4 4 4 4
TYPE F F F F F F F
COUNT 1 1 1 1 1 1 1
WIDTH 101
HEIGHT 1
VIEWPOINT 0 0 0 1 0 0 0
POINTS 101
DATA ascii
-0.211987 0.204677 -1.52889 -0.452751 0.876535 0.163414 0.01
-0.213927 0.204828 -1.52949 -0.406545 0.902957 0.139248 1
-0.215298 0.204615 -1.53083 -0.390617 0.920548 -0.00310304 1
-0.2164 0.204234 -1.5325 -0.397423 0.899779 -0.180147 1
-0.217436 0.203833 -1.53421 -0.398355 0.877886 -0.265761 1
-0.218381 0.203336 -1.53594 -0.349218 0.920328 -0.176193 1
-0.219255 0.202767 -1.53769 -0.324038 0.933604 -0.152913 1
-0.220222 0.202308 -1.53943 -0.299353 0.941026 -0.157663 1
-0.221134 0.201584 -1.54107 -0.261887 0.949722 -0.171591 1
-0.221976 0.200518 -1.54259 -0.253227 0.933818 -0.252707 1
-0.22268 0.19954 -1.54423 -0.249739 0.902852 -0.349985 1
-0.223495 0.198527 -1.54578 -0.263984 0.857313 -0.441957 1
-0.224601 0.197408 -1.54707 -0.283449 0.808718 -0.515394 1
-0.225444 0.196331 -1.54857 -0.292698 0.756952 -0.584252 1
-0.22622 0.195291 -1.55014 -0.285826 0.732291 -0.618105 1
-0.227078 0.194353 -1.55174 -0.16191 0.907467 -0.38767 1
-0.227932 0.19341 -1.55333 -0.00897688 0.999454 -0.0317965 1
-0.228783 0.192455 -1.55492 0.00717389 0.989761 0.142557 1
-0.229648 0.191383 -1.55642 -0.0816571 0.972912 0.216273 1
-0.230382 0.190016 -1.55768 -0.418933 0.888172 0.188803 1
-0.230986 0.188355 -1.55869 -0.97072 0.239935 -0.0115954 1
-0.231429 0.186593 -1.55961 0.78201 -0.589738 0.201667 1
-0.231888 0.184837 -1.56054 -0.659445 -0.208903 -0.722144 1
-0.232389 0.183102 -1.56149 -0.654254 -0.161066 -0.738924 1
-0.232883 0.181365 -1.56243 -0.656934 -0.0790953 -0.749788 1
-0.233342 0.179613 -1.56336 -0.658732 0.0600375 -0.749978 1
-0.233697 0.177814 -1.56426 0.725434 -0.422638 0.543252 1
-0.233865 0.175906 -1.56492 -0.622451 0.494522 -0.606632 1
-0.234011 0.17397 -1.56551 -0.736393 0.421053 -0.529565 1
-0.234596 0.172197 -1.56632 -0.845481 0.272849 -0.459037 1
-0.234872 0.170289 -1.56686 -0.912306 0.137377 -0.385779 1
-0.234905 0.168276 -1.56718 -0.944942 0.117844 -0.305283 1
-0.235147 0.165121 -1.56764 -0.91916 0.354174 -0.172355 1
-0.235037 0.163096 -1.56785 -0.9415 0.331473 -0.0608581 1
-0.235035 0.161074 -1.56808 -0.980811 0.194853 -0.00646744 1
-0.23517 0.159054 -1.56832 -0.999373 0.0145531 0.0322705 1
-0.235052 0.157024 -1.56841 -0.988162 -0.150911 0.0276161 1
-0.234904 0.154995 -1.56841 -0.946098 -0.313262 -0.0822559 1
-0.234765 0.15297 -1.56822 -0.845006 -0.486926 -0.221062 1
-0.234314 0.15121 -1.5674 -0.780949 -0.496462 -0.379004 1
-0.23373 0.149574 -1.56634 -0.633399 -0.496509 -0.593536 1
-0.233027 0.148098 -1.56512 -0.438718 -0.622797 -0.647804 1
-0.232318 0.146586 -1.56396 -0.260359 -0.731564 -0.630101 1
-0.231605 0.145054 -1.56282 -0.156437 -0.65365 -0.740452 1
-0.230871 0.143529 -1.56168 -0.0875875 -0.579981 -0.809908 1
-0.230105 0.142109 -1.56044 -0.0439045 -0.522082 -0.851765 1
-0.229307 0.140794 -1.55911 -0.012197 -0.495937 -0.868273 1
-0.228639 0.13918 -1.55806 0.0757953 -0.610008 -0.788762 1
-0.227832 0.137968 -1.5568 0.214761 0.39594 0.89281 1
-0.226781 0.137459 -1.55512 0.387993 -0.921652 -0.00429363 0.01
-0.22578 0.138036 -1.55353 0.38706 -0.838147 0.38431 1
-0.224778 0.138762 -1.55192 0.360444 -0.778662 0.513581 1
-0.223737 0.139185 -1.55022 0.444103 -0.0244406 -0.895643 1
-0.222697 0.14007 -1.54875 0.469796 -0.0508056 -0.881312 1
-0.221658 0.141128 -1.54735 0.563972 -0.0555511 -0.823923 1
-0.220621 0.141925 -1.54579 0.62112 0.0372643 -0.782829 1
-0.219559 0.14274 -1.54425 0.661105 0.140037 -0.737109 1
-0.218479 0.143568 -1.54273 0.684108 0.239797 -0.688835 1
-0.217381 0.144465 -1.54127 0.668888 0.278497 -0.689222 1
-0.216487 0.145636 -1.53992 0.659123 0.254658 -0.707606 1
-0.215857 0.147161 -1.53873 0.642712 0.236086 -0.728824 1
-0.214959 0.14831 -1.53731 0.635607 0.20597 -0.74403 1
-0.213996 0.149444 -1.53593 0.65402 0.172779 -0.736482 1
-0.212978 0.150664 -1.53465 0.708904 0.148566 -0.68948 1
-0.211899 0.151775 -1.53333 0.748653 0.123317 -0.651392 1
-0.210799 0.152849 -1.53199 0.776454 0.101012 -0.622026 1
-0.209694 0.153919 -1.53065 0.796182 0.0818852 -0.599491 1
-0.208594 0.154883 -1.52923 0.809211 0.0713886 -0.583165 1
-0.207494 0.15569 -1.52776 0.794753 0.0717185 -0.60268 1
-0.206327 0.155113 -1.52619 0.783372 0.107941 -0.612108 1
-0.205093 0.154897 -1.52463 0.777407 0.131231 -0.615156 1
-0.203791 0.155041 -1.52307 0.768619 0.148503 -0.622232 1
-0.202809 0.155697 -1.52141 0.759488 0.158612 -0.630889 1
-0.20183 0.15652 -1.51984 0.747749 0.167309 -0.642557 1
-0.20082 0.157566 -1.51841 0.733935 0.16993 -0.657619 0.01
-0.200506 0.159391 -1.51787 0.731572 0.137777 -0.667697 1
-0.200338 0.161385 -1.51749 0.735978 0.0953288 -0.67026 1
-0.200126 0.163352 -1.517 0.739346 0.0586904 -0.670763 1
-0.199762 0.165253 -1.51637 0.733912 0.0551151 -0.677004 1
-0.199342 0.167134 -1.51572 0.712732 0.0913032 -0.695469 1
-0.199017 0.169089 -1.51524 0.681656 0.0810518 -0.72717 1
-0.19883 0.171087 -1.51511 0.650707 0.0481807 -0.757799 1
-0.198752 0.173119 -1.51525 0.61283 -0.0053097 -0.790197 1
-0.199227 0.174985 -1.51591 0.57448 -0.044972 -0.817283 1
-0.199714 0.176836 -1.51661 0.588562 0.0149247 -0.808314 1
-0.200217 0.178665 -1.51736 0.674984 0.344621 -0.652405 1
-0.200655 0.180512 -1.5181 0.439981 -0.0379708 0.897204 1
-0.201075 0.182362 -1.51885 -0.913383 0.327399 0.241953 1
-0.201473 0.184213 -1.5196 -0.436408 0.120382 0.891659 1
-0.201867 0.18606 -1.52037 -0.457353 0.124455 0.880534 1
-0.202247 0.187908 -1.52114 -0.498619 0.132843 0.856581 1
-0.202572 0.189763 -1.52192 -0.583056 0.151516 0.798178 1
-0.202842 0.191625 -1.5227 -0.85838 0.248285 0.448931 1
-0.20308 0.193486 -1.5235 -0.867951 0.257924 0.424424 1
-0.203323 0.195278 -1.52444 -0.874232 0.264704 0.407002 1
-0.204103 0.196934 -1.52507 -0.877618 0.268543 0.397077 1
-0.205421 0.198455 -1.5254 -0.837542 0.386877 0.385809 1
-0.206829 0.199879 -1.52577 -0.757286 0.534877 0.374733 1
-0.208278 0.201266 -1.52613 -0.674977 0.637016 0.372312 1
-0.209784 0.202598 -1.52646 -0.603133 0.704572 0.37391 1
-0.210813 0.203779 -1.52767 -0.510607 0.811218 0.284967 1
