# .PCD v0.7 - Point Cloud Data file format
# 4 30 0
# 1 5 0
# 6 13 0
# 14 28 0
# 29 30 0
VERSION 0.7
FIELDS x y z normal_x normal_y normal_z curvature
SIZE 4 4 4 4 4 4 4
TYPE F F F F F F F
COUNT 1 1 1 1 1 1 1
WIDTH 30
HEIGHT 1
VIEWPOINT 0 0 0 1 0 0 0
POINTS 30
DATA ascii
0.0303468 -0.145577 -1.48093 0.65772 0.0128741 0.753152 0.01
0.0300149 -0.145451 -1.48082 0.665725 -0.00732731 0.746161 1
0.029683 -0.145325 -1.48071 0.672713 -0.0224136 0.739564 1
0.0352799 -0.151187 -1.47914 0.506745 0.562916 0.652944 1
0.0353885 -0.150998 -1.47944 0.555209 0.511904 0.655512 1
0.0354971 -0.15081 -1.47974 0.558787 0.545647 0.624521 1
0.0355231 -0.150576 -1.48002 0.551014 0.586964 0.593176 1
0.03549 -0.150309 -1.48027 0.527509 0.628766 0.571303 0.01
0.0354528 -0.150041 -1.48053 0.49049 0.66204 0.566677 1
0.035395 -0.149767 -1.48077 0.451631 0.683242 0.573768 1
0.0353372 -0.149493 -1.48102 0.416722 0.691877 0.589617 1
0.0353108 -0.149229 -1.48127 0.390359 0.688577 0.611132 1
0.035295 -0.148969 -1.48154 0.37253 0.677163 0.634565 1
0.0352446 -0.148694 -1.48177 0.396208 0.629827 0.668085 1
0.0351253 -0.148391 -1.48195 0.421026 0.582485 0.695304 1
0.0350059 -0.148088 -1.48213 0.442996 0.537797 0.717307 0.01
0.0347424 -0.147836 -1.48217 0.462566 0.500929 0.731507 1
0.0344658 -0.147589 -1.4822 0.477071 0.468424 0.743628 1
0.0341735 -0.147364 -1.48219 0.48558 0.443015 0.753624 1
0.0338654 -0.147159 -1.48216 0.488401 0.424765 0.762259 1
0.0335569 -0.146956 -1.48212 0.486363 0.411256 0.770922 1
0.0332435 -0.146769 -1.48205 0.486652 0.394973 0.779208 1
0.03293 -0.146583 -1.48198 0.514823 0.33928 0.787303 1
0.0326177 -0.146439 -1.48184 0.540149 0.289042 0.790376 1
0.032306 -0.146315 -1.48168 0.563549 0.241494 0.789996 1
0.0319913 -0.146187 -1.48154 0.585955 0.192681 0.787102 1
0.0316678 -0.146047 -1.48142 0.606507 0.143341 0.782051 1
0.0313443 -0.145908 -1.4813 0.623748 0.0987324 0.775365 1
0.0310127 -0.145797 -1.48117 0.63716 0.0645871 0.768021 1
0.0306795 -0.145691 -1.48105 0.648279 0.036694 0.760518 1
