# .PCD v0.7 - Point Cloud Data file format
# 3 30 0
# 1 5 0
# 6 10 0
# 11 30 0
VERSION 0.7
FIELDS x y z normal_x normal_y normal_z curvature
SIZE 4 4 4 4 4 4 4
TYPE F F F F F F F
COUNT 1 1 1 1 1 1 1
WIDTH 30
HEIGHT 1
VIEWPOINT 0 0 0 1 0 0 0
POINTS 30
DATA ascii
-0.215728 -0.0625258 -1.67568 0.384552 0.0740951 -0.920125 0.01
-0.215876 -0.0620215 -1.67558 0.334009 0.442771 -0.832101 1
-0.215614 -0.061663 -1.67587 0.316971 0.493698 -0.80981 1
-0.215394 -0.0613165 -1.67586 0.292072 0.556266 -0.777986 1
-0.215236 -0.0609805 -1.67547 0.254621 0.630843 -0.732943 1
-0.215046 -0.0605817 -1.67521 0.224831 0.673697 -0.703977 1
-0.214818 -0.0601084 -1.67511 0.202249 0.697214 -0.687741 1
-0.214591 -0.0596351 -1.675 0.182335 0.71235 -0.677725 1
-0.214363 -0.0591618 -1.6749 0.164194 0.721938 -0.672194 1
-0.214135 -0.0586885 -1.6748 0.14599 0.721273 -0.677091 1
-0.213908 -0.0582152 -1.67469 0.126311 0.709763 -0.693023 1
-0.213682 -0.0577442 -1.67458 0.10689 0.698022 -0.708053 1
-0.213606 -0.0574462 -1.67415 0.0817319 0.689428 -0.719728 1
-0.21353 -0.0571482 -1.67371 0.0578803 0.681349 -0.729667 1
-0.213455 -0.0568502 -1.67327 0.0353003 0.673815 -0.738056 1
-0.213374 -0.0565453 -1.67284 0.0140443 0.666708 -0.745186 1
-0.213189 -0.0560856 -1.67264 -0.00367858 0.657211 -0.753698 1
-0.213004 -0.0556258 -1.67244 -0.0205791 0.648153 -0.761232 1
-0.212815 -0.0551472 -1.67233 -0.0349309 0.639687 -0.767841 1
-0.212622 -0.0546481 -1.67232 -0.0468988 0.631649 -0.773834 1
-0.212428 -0.054149 -1.67232 -0.0584999 0.623915 -0.7793 1
-0.215768 -0.063722 -1.67487 0.113182 -0.923485 -0.366559 1
-0.215485 -0.0640825 -1.67459 0.0628911 -0.949503 -0.307392 1
-0.215344 -0.0643589 -1.67423 0.0168396 -0.968791 -0.247308 1
-0.21544 -0.0644948 -1.67372 -0.031225 -0.983571 -0.177802 1
-0.2155 -0.0643171 -1.6738 -0.023 -0.982804 -0.183213 0.01
-0.21554 -0.0639668 -1.6742 0.0208379 -0.970848 -0.238789 1
-0.21558 -0.0636166 -1.67461 0.0846047 -0.937326 -0.338028 1
-0.21562 -0.0632664 -1.67501 0.194228 -0.81967 -0.538903 1
-0.215659 -0.0629161 -1.67541 0.348292 -0.402624 -0.846514 1
