# .PCD v0.7 - Point Cloud Data file format
# 4 111 0
# 1 21 0
# 22 64 0
# 65 91 0
# 92 111 0
VERSION 0.7
FIELDS x y z normal_x normal_y normal_z curvature
SIZE 4 4 4 4 4 4 4
TYPE F F F F F F F
COUNT 1 1 1 1 1 1 1
WIDTH 111
HEIGHT 1
VIEWPOINT 0 0 0 1 0 0 0
POINTS 111
DATA ascii
-0.194557 -0.0565053 -1.65085 0.887055 -0.457761 -0.0598944 0.01
-0.195128 -0.057238 -1.64895 0.870732 -0.484103 -0.0864242 1
-0.196054 -0.0589026 -1.64801 0.846531 -0.524675 -0.0900054 1
-0.197147 -0.0606651 -1.64757 0.831811 -0.54911 -0.081049 1
-0.197918 -0.0623382 -1.64652 0.824983 -0.557688 -0.0915799 0.418479
-0.198991 -0.0640308 -1.64583 0.830946 -0.550268 -0.0820591 1
-0.200069 -0.0654396 -1.64466 0.836529 -0.541459 -0.0839127 1
-0.200672 -0.0671716 -1.6436 0.847787 -0.524589 -0.077867 1
-0.201707 -0.0687846 -1.64269 0.870367 -0.489549 -0.0529431 1
-0.202125 -0.0699561 -1.64097 0.862609 -0.498304 -0.0871698 1
-0.202734 -0.0714195 -1.63957 0.867239 -0.488191 -0.0978083 1
-0.203245 -0.0727989 -1.63804 0.865268 -0.486716 -0.120077 1
-0.203612 -0.0741131 -1.63641 0.857625 -0.491431 -0.151579 1
-0.20406 -0.0755509 -1.63492 0.855112 -0.489291 -0.171402 1
-0.205322 -0.0769495 -1.63395 0.866946 -0.475333 -0.149876 1
-0.205678 -0.0784545 -1.6325 0.861387 -0.481887 -0.160614 0.228202
-0.206455 -0.0801181 -1.63143 0.867413 -0.474621 -0.149434 1
-0.206996 -0.0815892 -1.63001 0.863501 -0.479024 -0.157805 1
-0.207899 -0.0833179 -1.62917 0.871418 -0.469505 -0.142112 1
-0.208805 -0.0851501 -1.62974 0.89626 -0.438216 -0.0684455 1
-0.209674 -0.08704 -1.63015 0.895381 -0.443621 -0.0386395 1
-0.212607 -0.0931454 -1.62878 0.904026 -0.426743 0.0250312 1
-0.213545 -0.0949847 -1.62829 0.912005 -0.40715 0.049756 1
-0.21453 -0.0968597 -1.62819 0.915583 -0.398605 0.0531271 1
-0.215447 -0.0987622 -1.628 0.916026 -0.397463 0.0540349 0.403828
-0.216359 -0.100676 -1.62805 0.915055 -0.399647 0.0543758 1
-0.217156 -0.102546 -1.62744 0.912402 -0.404515 0.0623689 1
-0.21793 -0.104507 -1.62722 0.908958 -0.411276 0.0681726 1
-0.218442 -0.106565 -1.62718 0.904876 -0.419486 0.0723222 1
-0.219503 -0.108279 -1.62784 0.903971 -0.421775 0.0703017 1
-0.220475 -0.110079 -1.6284 0.907647 -0.413859 0.0699791 1
-0.221214 -0.112067 -1.62841 0.916929 -0.391127 0.0791247 1
-0.22218 -0.113954 -1.62846 0.930798 -0.355421 0.0853913 1
-0.222762 -0.115897 -1.62784 0.935651 -0.339032 0.0980505 1
-0.223131 -0.117565 -1.62659 0.935327 -0.33693 0.107897 1
-0.224088 -0.119291 -1.62581 0.933089 -0.342179 0.110715 1
-0.224956 -0.121224 -1.62588 0.927276 -0.357929 0.109752 1
-0.225531 -0.122876 -1.62708 0.918508 -0.379832 0.109867 1
-0.225908 -0.124261 -1.62864 0.903215 -0.419944 0.0885944 1
-0.22656 -0.126245 -1.62901 0.883888 -0.463309 0.0639366 1
-0.226869 -0.12729 -1.63083 0.870868 -0.490947 0.0236479 1
-0.227473 -0.128441 -1.6325 0.85999 -0.509764 -0.0236118 0.01
-0.227281 -0.12739 -1.63433 0.851709 -0.521431 -0.0519729 1
-0.227036 -0.12626 -1.63611 0.844179 -0.531037 -0.0732283 1
-0.22709 -0.125895 -1.6382 0.826534 -0.552428 -0.108009 1
-0.226851 -0.12515 -1.64017 0.810831 -0.570253 -0.131776 1
-0.226018 -0.123796 -1.64157 0.813002 -0.56848 -0.125933 1
-0.225169 -0.122148 -1.6426 0.833393 -0.542611 -0.105022 1
-0.224345 -0.120892 -1.6441 0.847013 -0.520925 -0.105859 1
-0.223537 -0.119313 -1.64526 0.866835 -0.489507 -0.0947579 1
-0.22279 -0.11735 -1.64555 0.898105 -0.436402 -0.0544058 1
-0.222122 -0.115677 -1.64667 0.909802 -0.412832 -0.0427873 1
-0.221625 -0.114254 -1.64816 0.909806 -0.412155 -0.0487897 1
-0.221137 -0.113014 -1.64981 0.900646 -0.431287 -0.0531922 1
-0.220647 -0.112054 -1.65164 0.886609 -0.457537 -0.0677128 1
-0.219954 -0.110791 -1.65319 0.879301 -0.471689 -0.0658695 1
-0.219623 -0.110017 -1.65514 0.860548 -0.501762 -0.0877081 1
-0.218985 -0.108445 -1.65641 0.858637 -0.507149 -0.0744438 1
-0.218431 -0.10721 -1.65805 0.851233 -0.518498 -0.0810033 1
-0.217871 -0.105938 -1.65965 0.846757 -0.52538 -0.0835305 1
-0.21714 -0.104343 -1.66084 0.853552 -0.516608 -0.0675723 1
-0.216608 -0.103255 -1.66258 0.848554 -0.524652 -0.0685314 1
-0.215943 -0.102156 -1.66427 0.846819 -0.528258 -0.0619736 1
-0.215497 -0.101335 -1.66617 0.83958 -0.539887 -0.0602257 1
-0.21503 -0.100336 -1.66798 0.837106 -0.544237 -0.0553106 1
-0.214387 -0.0992175 -1.66967 0.838576 -0.54274 -0.0471566 1
-0.213632 -0.0980329 -1.67125 0.841792 -0.538453 -0.0381473 1
-0.21292 -0.0967077 -1.67275 0.845968 -0.53245 -0.028887 1
-0.212371 -0.0960274 -1.67468 0.83896 -0.542976 -0.0363806 1
-0.21166 -0.094988 -1.67639 0.840296 -0.540763 -0.038437 1
-0.210987 -0.0936566 -1.67789 0.845824 -0.5323 -0.03519 1
-0.210131 -0.092114 -1.67907 0.856414 -0.515681 -0.0250713 1
-0.209469 -0.0907772 -1.68058 0.86256 -0.505588 -0.0192654 1
-0.20882 -0.0894679 -1.68212 0.868631 -0.495311 -0.0121302 1
-0.208441 -0.0885003 -1.68396 0.867243 -0.497868 -0.00411681 1
-0.20783 -0.0875361 -1.68575 0.86396 -0.503381 0.013433 1
-0.206859 -0.0865986 -1.68739 0.86198 -0.505726 0.0350937 1
-0.206196 -0.085527 -1.68909 0.85825 -0.50987 0.0586418 1
-0.205501 -0.0846448 -1.69089 0.851271 -0.518209 0.0824411 1
-0.204752 -0.0832492 -1.6923 0.854109 -0.50897 0.10699 1
-0.204333 -0.0829534 -1.69436 0.85869 -0.502838 0.0990206 1
-0.203355 -0.081895 -1.69591 0.874 -0.475829 0.0985453 1
-0.203071 -0.0819149 -1.69802 0.871673 -0.48074 0.0952592 1
-0.202314 -0.0807599 -1.69963 0.881413 -0.459205 0.110642 1
-0.201699 -0.0792256 -1.70095 0.891551 -0.411229 0.18981 0.01
-0.200573 -0.0777076 -1.69999 0.909345 -0.397013 0.124387 1
-0.200665 -0.0769717 -1.69801 0.918426 -0.3746 0.127156 1
-0.200705 -0.0761379 -1.69606 0.930201 -0.330721 0.159217 1
-0.20119 -0.0758019 -1.69402 0.934077 -0.313306 0.171285 1
-0.200904 -0.0747799 -1.69218 0.932416 -0.331704 0.143434 1
-0.200694 -0.0738744 -1.69028 0.929992 -0.346244 0.123408 1
-0.200564 -0.0727886 -1.68846 0.926841 -0.359252 0.109106 1
-0.200357 -0.0717763 -1.68661 0.922511 -0.374174 0.0946915 1
-0.200287 -0.0708121 -1.68472 0.917676 -0.389065 0.0806108 1
-0.199648 -0.0694633 -1.68321 0.91283 -0.403262 0.0642005 1
-0.199368 -0.0683718 -1.68142 0.910325 -0.409911 0.0572861 1
-0.199239 -0.0674831 -1.6795 0.907772 -0.416142 0.052689 1
-0.198667 -0.066189 -1.67792 0.906399 -0.419964 0.0454983 1
-0.197852 -0.0649593 -1.67639 0.907252 -0.418424 0.0426136 0.669657
-0.198069 -0.0645625 -1.67432 0.905998 -0.420542 0.0480797 1
-0.197954 -0.063949 -1.67229 0.905371 -0.421344 0.0526625 1
-0.197542 -0.0629513 -1.67047 0.906974 -0.417697 0.0541125 1
-0.197226 -0.0622088 -1.66851 0.907933 -0.415713 0.0532975 1
-0.196749 -0.0612263 -1.66669 0.912361 -0.406807 0.0458783 1
-0.196767 -0.0606984 -1.66464 0.915027 -0.402152 0.0316173 1
-0.1965 -0.0599093 -1.66269 0.918019 -0.396214 0.0159825 1
-0.196413 -0.059365 -1.66064 0.917032 -0.398722 0.00861142 1
-0.195855 -0.0583381 -1.65887 0.918443 -0.395527 0.00448326 1
-0.195805 -0.057979 -1.65678 0.909755 -0.415135 0.00299008 1
-0.195716 -0.057845 -1.65466 0.896378 -0.443216 -0.00809141 1
-0.195086 -0.0569195 -1.65286 0.891412 -0.451979 -0.0331679 1
