# .PCD v0.7 - Point Cloud Data file format
# 6 165 0
# 1 21 0
# 22 32 0
# 33 57 0
# 58 116 0
# 117 149 0
# 150 165 0
VERSION 0.7
FIELDS x y z normal_x normal_y normal_z curvature
SIZE 4 4 4 4 4 4 4
TYPE F F F F F F F
COUNT 1 1 1 1 1 1 1
WIDTH 165
HEIGHT 1
VIEWPOINT 0 0 0 1 0 0 0
POINTS 165
DATA ascii
-0.029796 0.0181487 -1.32904 -0.950889 0.303839 0.0590881 0.01
-0.0298555 0.0176729 -1.33076 -0.943871 0.318232 0.0885169 1
-0.0300115 0.0177099 -1.33254 -0.935526 0.33283 0.118384 1
-0.0305057 0.0170871 -1.33414 -0.925873 0.346178 0.151393 1
-0.0307913 0.0153703 -1.33454 -0.922605 0.346885 0.168731 1
-0.0314366 0.0142801 -1.3358 -0.918068 0.353381 0.179645 1
-0.0320523 0.0127798 -1.33655 -0.916256 0.354663 0.186252 1
-0.0328365 0.0114933 -1.3375 -0.915681 0.355288 0.18788 0.195944
-0.0336051 0.01065 -1.33888 -0.916531 0.354091 0.185983 1
-0.0341497 0.00913072 -1.33964 -0.918498 0.350783 0.182519 1
-0.0347774 0.00773381 -1.34056 -0.921399 0.345843 0.177248 1
-0.0354432 0.00657162 -1.34175 -0.92511 0.338265 0.172478 1
-0.0362142 0.00528414 -1.34271 -0.924643 0.342317 0.166895 1
-0.0370452 0.00403701 -1.34369 -0.921277 0.352433 0.164437 1
-0.0376053 0.00234902 -1.34385 -0.915976 0.367048 0.16206 1
-0.0384159 0.00112779 -1.34487 -0.909608 0.374154 0.180617 1
-0.0391271 -0.000262775 -1.34574 -0.899908 0.378606 0.216386 1
-0.040332 -0.002518 -1.34653 -0.887133 0.393052 0.241879 1
-0.0409667 -0.00418265 -1.34666 -0.881839 0.405996 0.23985 1
-0.0417187 -0.00572222 -1.34716 -0.875572 0.409188 0.256788 1
-0.0425688 -0.00712446 -1.34787 -0.874962 0.396898 0.277334 1
-0.0433179 -0.00867826 -1.34834 -0.877774 0.386783 0.282686 1
-0.0441498 -0.0100852 -1.34906 -0.879707 0.374359 0.293207 1
-0.0450507 -0.0114564 -1.34976 -0.882656 0.361468 0.300433 1
-0.0458641 -0.0130208 -1.35005 -0.888615 0.353377 0.292385 1
-0.0469134 -0.0142053 -1.35088 -0.891449 0.337709 0.302111 1
-0.047716 -0.0156161 -1.35162 -0.895418 0.323472 0.305928 1
-0.048414 -0.0170734 -1.35238 -0.897187 0.313823 0.310757 1
-0.0489567 -0.01867 -1.35297 -0.893305 0.323411 0.312109 1
-0.0499313 -0.0197544 -1.354 -0.885755 0.322395 0.333916 1
-0.0510785 -0.0208049 -1.35488 -0.878975 0.321927 0.351803 1
-0.0514551 -0.0224645 -1.35542 -0.877075 0.331334 0.34779 1
-0.0519962 -0.0239684 -1.35622 -0.874598 0.33563 0.349902 1
-0.052757 -0.0255646 -1.35647 -0.875315 0.347851 0.335893 1
-0.0540982 -0.026419 -1.35729 -0.875178 0.342765 0.341432 1
-0.0549998 -0.0279585 -1.35737 -0.878359 0.357787 0.316976 1
-0.0551018 -0.0297404 -1.3573 -0.88022 0.379294 0.285217 1
-0.0556469 -0.0314063 -1.35696 -0.880241 0.401799 0.252455 0.01
-0.0560289 -0.0328567 -1.35599 -0.876961 0.428489 0.217568 1
-0.0563843 -0.033937 -1.35461 -0.872784 0.452232 0.183667 1
-0.0567305 -0.0350478 -1.35326 -0.869663 0.469969 0.151045 1
-0.0574294 -0.0363601 -1.35227 -0.867156 0.481654 0.126689 1
-0.0576863 -0.0372922 -1.35076 -0.867772 0.487012 0.0989494 1
-0.0579818 -0.0381987 -1.34925 -0.868016 0.485672 0.103296 1
-0.0584261 -0.0392302 -1.34786 -0.867137 0.486419 0.107095 1
-0.0587572 -0.0402155 -1.34641 -0.866016 0.487807 0.109822 1
-0.0590995 -0.0412396 -1.34499 -0.864319 0.49038 0.111717 1
-0.0594524 -0.0422479 -1.34356 -0.862222 0.49382 0.11276 1
-0.059759 -0.0432298 -1.3421 -0.860469 0.498024 0.10754 0.01
-0.0606338 -0.0447587 -1.3418 -0.860018 0.499019 0.106533 1
-0.0614637 -0.0462779 -1.34224 -0.866482 0.487885 0.105724 1
-0.0622751 -0.0478413 -1.34254 -0.872859 0.476717 0.104198 1
-0.0631165 -0.0493746 -1.3429 -0.879067 0.46551 0.102676 1
-0.0639421 -0.0509233 -1.34323 -0.885116 0.45428 0.100994 1
-0.0647554 -0.0524857 -1.34353 -0.890999 0.443047 0.0991431 1
-0.0655694 -0.0540675 -1.34369 -0.896711 0.432031 0.0962219 1
-0.0663738 -0.0556429 -1.34394 -0.902256 0.420918 0.0936074 1
-0.0671936 -0.057201 -1.34424 -0.904311 0.416504 0.0935255 1
-0.0680073 -0.0587532 -1.34458 -0.901928 0.420648 0.0978812 1
-0.068797 -0.0603409 -1.3448 -0.899484 0.425042 0.101335 1
-0.0695936 -0.0619189 -1.34506 -0.89676 0.429394 0.106974 1
-0.0703961 -0.0634961 -1.3453 -0.893797 0.433799 0.113782 1
-0.0712124 -0.0650711 -1.34551 -0.890632 0.438278 0.121187 1
-0.0720547 -0.0666323 -1.34571 -0.887123 0.442782 0.130216 1
-0.0728714 -0.0682206 -1.34575 -0.884149 0.447388 0.134631 1
-0.0737168 -0.0697748 -1.3455 -0.87961 0.457321 0.130933 1
-0.0745176 -0.0713144 -1.34508 -0.875125 0.469345 0.117776 1
-0.0755234 -0.0727484 -1.34543 -0.868376 0.479596 0.12614 1
-0.076287 -0.074363 -1.34541 -0.862914 0.4915 0.117503 1
-0.0769851 -0.0759342 -1.34493 -0.857082 0.506555 0.0938798 1
-0.0778647 -0.0774845 -1.34481 -0.850488 0.520142 0.0782491 1
-0.0786867 -0.0790326 -1.34447 -0.842629 0.535558 0.056163 1
-0.079617 -0.0804504 -1.34391 -0.833044 0.552356 0.0306858 1
-0.0808131 -0.0817744 -1.34382 -0.824373 0.565886 0.0135356 0.01
-0.0806401 -0.0815772 -1.34206 -0.818041 0.575018 -0.0127645 1
-0.0801251 -0.0808558 -1.34051 -0.818572 0.57374 -0.0276065 1
-0.0796197 -0.0801262 -1.33896 -0.820348 0.570544 -0.0388382 1
-0.0789045 -0.0792379 -1.33758 -0.824095 0.564479 -0.047242 1
-0.0789849 -0.0788976 -1.33583 -0.821015 0.567657 -0.0608282 1
-0.0788561 -0.0782401 -1.33417 -0.819409 0.568867 -0.0704257 1
-0.0780183 -0.0769126 -1.33332 -0.826122 0.559598 -0.0661287 1
-0.0770584 -0.0759718 -1.33214 -0.829417 0.554931 -0.0641801 1
-0.0765504 -0.0751178 -1.33066 -0.827595 0.556659 -0.0722282 1
-0.0759798 -0.0739427 -1.32944 -0.82873 0.554359 -0.0767616 1
-0.0756749 -0.0729353 -1.328 -0.825638 0.556879 -0.0905963 1
-0.0755549 -0.0720013 -1.32648 -0.819952 0.561458 -0.111553 1
-0.0747328 -0.0709939 -1.32526 -0.819554 0.559408 -0.12407 1
-0.0738586 -0.06969 -1.3244 -0.82715 0.547073 -0.128588 1
-0.0731049 -0.0684383 -1.32338 -0.832167 0.536123 -0.141668 1
-0.0729072 -0.0676396 -1.32179 -0.833565 0.53243 -0.147265 1
-0.0725055 -0.0665734 -1.32042 -0.839555 0.523993 -0.143454 1
-0.0721015 -0.0653828 -1.31915 -0.846216 0.514612 -0.138176 1
-0.0710694 -0.063947 -1.3194 -0.859679 0.4937 -0.131197 1
-0.070263 -0.0627497 -1.32045 -0.870131 0.475148 -0.130793 1
-0.0695356 -0.0617746 -1.32176 -0.876181 0.461943 -0.137534 1
-0.0687047 -0.0606726 -1.32289 -0.887276 0.448046 -0.109524 1
-0.0688239 -0.0589699 -1.32342 -0.894333 0.436037 -0.100204 0.442694
-0.0678846 -0.0575507 -1.32288 -0.886621 0.449309 -0.109657 1
-0.0669086 -0.0561433 -1.32237 -0.878189 0.464625 -0.113614 1
-0.0660187 -0.0546903 -1.32183 -0.869465 0.480851 -0.113195 1
-0.0651728 -0.0532431 -1.32122 -0.860134 0.498358 -0.108668 1
-0.0643066 -0.0518238 -1.32056 -0.850044 0.517382 -0.0986965 1
-0.0633983 -0.0503507 -1.32012 -0.840486 0.535901 -0.0799551 1
-0.0624651 -0.0488409 -1.31992 -0.832318 0.551681 -0.0538113 1
-0.0617593 -0.0472851 -1.3194 -0.820657 0.570884 -0.0247494 1
-0.060769 -0.0457987 -1.31939 -0.825568 0.564254 0.0073858 1
-0.0596078 -0.0444725 -1.3191 -0.830292 0.556326 0.0334223 1
-0.0587319 -0.0433957 -1.31798 -0.828315 0.55874 0.0412794 1
-0.0578252 -0.0418996 -1.31762 -0.833627 0.549763 0.0531653 1
-0.0567023 -0.0405732 -1.3172 -0.838748 0.541365 0.0585318 1
-0.0559442 -0.0394186 -1.31607 -0.842241 0.536959 0.0480118 1
-0.0549354 -0.0379602 -1.31628 -0.848992 0.525594 0.0544334 1
-0.0542422 -0.0366199 -1.31533 -0.854906 0.517024 0.0426747 1
-0.0534807 -0.0351696 -1.31462 -0.860075 0.509041 0.0338816 1
-0.052608 -0.0336263 -1.3144 -0.859653 0.509935 0.0310281 1
-0.0517869 -0.0320874 -1.31401 -0.859321 0.510591 0.0293994 0.516222
-0.0510957 -0.0305608 -1.3134 -0.858811 0.511396 0.0302955 1
-0.0503227 -0.0301561 -1.31184 -0.85669 0.514688 0.0343314 1
-0.0498776 -0.0297759 -1.31015 -0.852398 0.521283 0.0410214 1
-0.0491166 -0.0287466 -1.30891 -0.847713 0.527735 0.0536448 1
-0.048168 -0.0275476 -1.30798 -0.843363 0.53281 0.0696571 1
-0.0478566 -0.0270984 -1.30628 -0.835254 0.547544 0.050472 1
-0.0472392 -0.0258402 -1.30517 -0.829811 0.55618 0.0455705 1
-0.0464954 -0.0247981 -1.30393 -0.823652 0.566003 0.0351802 1
-0.0459116 -0.0241159 -1.30238 -0.822473 0.568661 0.0127628 1
-0.0452468 -0.0232239 -1.30099 -0.828507 0.559924 -0.00783733 1
-0.0450428 -0.0228573 -1.29925 -0.825132 0.563359 -0.0422447 1
-0.0448837 -0.0223565 -1.29754 -0.82642 0.562067 -0.0333217 1
-0.0444836 -0.0217915 -1.2959 -0.830065 0.557311 -0.0199285 1
-0.0436876 -0.0208973 -1.29457 -0.837023 0.54708 -0.00976727 1
-0.0434159 -0.0203733 -1.29289 -0.837808 0.545963 -0.00158937 1
-0.0431427 -0.0197549 -1.29123 -0.838123 0.545453 0.00555662 1
-0.0423134 -0.0184753 -1.2903 -0.842686 0.538178 0.0156568 0.01
-0.0418207 -0.0176825 -1.29182 -0.852952 0.521656 0.0186513 1
-0.0415331 -0.0171559 -1.29351 -0.863595 0.503813 0.0193688 1
-0.0411356 -0.0164008 -1.29508 -0.876669 0.480525 0.0234126 1
-0.0405596 -0.0151706 -1.29624 -0.892471 0.44966 0.0360686 1
-0.0399884 -0.0140177 -1.29747 -0.906071 0.419786 0.0530491 1
-0.0397186 -0.0133812 -1.29912 -0.917236 0.393337 0.0629626 1
-0.0392127 -0.0121593 -1.30032 -0.921754 0.380318 0.0756823 1
-0.0389753 -0.0108621 -1.30153 -0.923867 0.374122 0.0806369 1
-0.0387009 -0.00932304 -1.30239 -0.923733 0.374216 0.0817322 1
-0.0383764 -0.00806974 -1.30362 -0.923245 0.376578 0.0762006 1
-0.0379278 -0.00818544 -1.30535 -0.922084 0.380656 0.069731 1
-0.037523 -0.00708145 -1.30669 -0.920058 0.387758 0.0560137 1
-0.0376609 -0.00629489 -1.30829 -0.918051 0.394195 0.0423341 1
-0.0378192 -0.00543752 -1.30985 -0.916126 0.399866 0.0286328 1
-0.0372889 -0.00424582 -1.31107 -0.914781 0.403656 0.0153796 1
-0.0364286 -0.00269288 -1.31087 -0.915404 0.40239 0.0108729 1
-0.0357898 -0.00103817 -1.31066 -0.916065 0.400972 0.00680257 1
-0.0348161 0.000291096 -1.31135 -0.915589 0.402099 -0.0036 1
-0.034075 0.00183205 -1.31187 -0.916164 0.400557 -0.0140723 1
-0.0333683 0.0032671 -1.31266 -0.922692 0.385509 -0.00467688 1
-0.0328625 0.00456327 -1.31378 -0.928296 0.371659 0.0116812 1
-0.0324996 0.00590623 -1.3149 -0.933637 0.357138 0.0278243 1
-0.0322616 0.00658487 -1.31654 -0.935603 0.349498 0.0499819 1
-0.0320363 0.00755603 -1.31802 -0.938014 0.339771 0.0684506 1
-0.0316266 0.00919859 -1.31859 -0.943318 0.323707 0.0732478 1
-0.0314681 0.0107465 -1.31947 -0.947159 0.312715 0.0714161 1
-0.0311095 0.0118054 -1.32086 -0.948996 0.308472 0.065209 1
-0.0309807 0.0132067 -1.32196 -0.951503 0.302208 0.0575461 1
-0.0305905 0.0139429 -1.32354 -0.951651 0.30303 0.0503276 1
-0.0301827 0.0149823 -1.32493 -0.952401 0.302078 0.0410043 1
-0.02986 0.0159484 -1.3264 -0.95236 0.303171 0.0331247 1
-0.0298852 0.0174245 -1.32741 -0.953596 0.298291 0.0409505 1
