# .PCD v0.7 - Point Cloud Data file format
# 3 33 0
# 1 23 0
# 24 29 0
# 30 33 0
VERSION 0.7
FIELDS x y z normal_x normal_y normal_z curvature
SIZE 4 4 4 4 4 4 4
TYPE F F F F F F F
COUNT 1 1 1 1 1 1 1
WIDTH 33
HEIGHT 1
VIEWPOINT 0 0 0 1 0 0 0
POINTS 33
DATA ascii
0.19334 0.117214 -1.72218 -0.223943 -0.691396 0.686892 0.01
0.190999 0.11833 -1.72211 -0.241773 -0.605805 0.757989 1
0.188754 0.119618 -1.72193 -0.286623 -0.526183 0.800611 1
0.186557 0.120979 -1.72169 -0.331809 -0.455204 0.826252 1
0.184344 0.12232 -1.72187 0.148995 -0.333397 0.930939 1
0.180274 0.123798 -1.67212 0.0660315 0.510022 0.857623 1
0.181825 0.122422 -1.67368 0.446335 0.628896 0.636612 1
0.183357 0.121092 -1.6753 0.551788 0.503886 0.664551 1
0.185242 0.119696 -1.67641 -0.0214689 0.468176 0.883375 1
0.186629 0.117873 -1.67762 0.717398 0.6328 0.291383 1
0.188045 0.116422 -1.67924 -0.0130962 0.473444 0.880726 1
0.189367 0.114662 -1.68062 -0.00273076 0.478456 0.878107 1
0.190733 0.112657 -1.68154 0.185538 0.491531 0.850866 1
0.191687 0.112699 -1.68395 0.102784 0.483212 0.869449 1
0.192989 0.112355 -1.68617 -0.0115114 0.469454 0.882882 1
0.194324 0.111578 -1.68825 0.796197 0.601278 0.0673387 1
0.195691 0.110539 -1.6902 -0.761063 -0.523942 -0.382449 1
0.196229 0.110981 -1.69269 -0.808656 -0.564481 -0.16564 1
0.19728 0.110525 -1.69502 -0.712435 -0.616262 0.335645 1
0.198187 0.110063 -1.69741 -0.633601 -0.758514 -0.152334 1
0.198599 0.110077 -1.69997 -0.679914 -0.695075 -0.233639 1
0.199217 0.109843 -1.70248 -0.779782 -0.58834 -0.214001 1
0.200163 0.109286 -1.70483 -0.85278 -0.494877 -0.166922 1
0.201096 0.108333 -1.70706 -0.889453 -0.443562 -0.110121 1
0.201873 0.107948 -1.7095 -0.888823 -0.453759 -0.063998 1
0.202422 0.107583 -1.71201 -0.847138 -0.525225 -0.0805895 1
0.203448 0.106331 -1.71404 -0.750925 -0.571219 -0.331392 1
0.203175 0.10695 -1.71654 -0.491945 -0.657772 -0.570373 0.01
0.201612 0.108801 -1.71747 0.0407296 -0.87086 -0.489841 1
0.199942 0.110756 -1.71781 -0.374486 -0.614838 -0.694071 1
0.198259 0.112649 -1.71838 -0.759871 -0.18754 -0.622435 1
0.196696 0.11439 -1.7195 0.325242 -0.544344 0.773245 1
0.195136 0.116096 -1.72068 0.319981 -0.487802 0.812196 1
