# .PCD v0.7 - Point Cloud Data file format
# 5 123 0
# 1 14 0
# 15 42 0
# 43 73 0
# 74 103 0
# 104 123 0
VERSION 0.7
FIELDS x y z normal_x normal_y normal_z curvature
SIZE 4 4 4 4 4 4 4
TYPE F F F F F F F
COUNT 1 1 1 1 1 1 1
WIDTH 123
HEIGHT 1
VIEWPOINT 0 0 0 1 0 0 0
POINTS 123
DATA ascii
-0.227585 0.137135 -1.55654 0.856447 0.0614706 -0.512563 0.01
-0.228372 0.138163 -1.55775 0.852586 0.046343 -0.520529 1
-0.229083 0.139362 -1.55885 0.839627 0.0138413 -0.542988 1
-0.229705 0.140716 -1.55982 0.824083 -0.0322868 -0.565548 1
-0.230293 0.14209 -1.56078 0.812682 -0.0648806 -0.579085 1
-0.230859 0.143444 -1.56178 0.806144 -0.0821733 -0.585986 1
-0.231541 0.144689 -1.56285 0.804582 -0.087412 -0.587373 1
-0.232141 0.146151 -1.56366 0.808801 -0.077448 -0.582961 1
-0.232745 0.147502 -1.56464 0.81078 -0.0635592 -0.581889 1
-0.233393 0.148665 -1.56581 0.810668 -0.0539327 -0.583016 1
-0.233964 0.150065 -1.56675 0.810365 -0.0426606 -0.58437 1
-0.234714 0.151229 -1.56786 0.807589 -0.0357374 -0.588662 1
-0.235205 0.15275 -1.56863 0.80356 -0.0218014 -0.594825 1
-0.235057 0.1545 -1.56837 0.80416 -0.00546447 -0.594388 1
-0.235317 0.156233 -1.56865 0.800159 0.0111819 -0.599684 1
-0.235609 0.157935 -1.56907 0.794164 0.0272627 -0.607092 1
-0.235693 0.159699 -1.56926 0.788729 0.0415498 -0.613335 1
-0.235414 0.161202 -1.56836 0.792736 0.04734 -0.607724 1
-0.234941 0.162913 -1.56831 0.79665 0.0476126 -0.602563 1
-0.235082 0.164543 -1.56762 0.801368 0.0468626 -0.596334 1
-0.235234 0.166312 -1.56763 0.80096 0.0468951 -0.596879 1
-0.234905 0.168276 -1.56718 0.804374 0.0500665 -0.59201 1
-0.235022 0.170044 -1.56706 0.803574 0.0546671 -0.592689 1
-0.234865 0.171764 -1.56665 0.804952 0.0590379 -0.590395 1
-0.234588 0.173373 -1.56595 0.808281 0.0617865 -0.585546 1
-0.23386 0.17472 -1.56505 0.814785 0.0623614 -0.5764 1
-0.23336 0.176292 -1.56439 0.819279 0.0650893 -0.569689 1
-0.23362 0.178036 -1.56418 0.818424 0.0717064 -0.570123 1
-0.233329 0.179599 -1.56339 0.821541 0.0790652 -0.564641 1
-0.233303 0.181307 -1.5629 0.822563 0.0879347 -0.561834 1
-0.233572 0.183037 -1.5632 0.820781 0.0956715 -0.563175 1
-0.233558 0.184805 -1.56337 0.820583 0.101337 -0.562472 1
-0.233851 0.186508 -1.56378 0.819175 0.103333 -0.564158 0.292901
-0.233701 0.188125 -1.56306 0.820336 0.100536 -0.562975 1
-0.233118 0.189457 -1.56204 0.822475 0.0987589 -0.560161 0.01
-0.232471 0.19014 -1.56053 0.824357 0.0980634 -0.557512 1
-0.231535 0.190651 -1.55911 0.825065 0.0976426 -0.556537 0.293458
-0.230464 0.190985 -1.55773 0.82474 0.0971885 -0.557098 0.653739
-0.230045 0.192399 -1.55674 0.824584 0.0997174 -0.556882 1
-0.229551 0.193693 -1.55563 0.82697 0.106312 -0.552104 1
-0.228597 0.194342 -1.55428 0.829589 0.112302 -0.546965 1
-0.22768 0.194769 -1.55282 0.832083 0.118926 -0.541752 1
-0.226855 0.195296 -1.55134 0.834381 0.126812 -0.536401 1
-0.226036 0.196046 -1.54995 0.836503 0.135971 -0.530824 1
-0.22528 0.196597 -1.54844 0.835229 0.142891 -0.531013 1
-0.224502 0.19717 -1.54695 0.830877 0.145961 -0.536973 1
-0.223689 0.198367 -1.54592 0.830441 0.143421 -0.538329 1
-0.2231 0.199334 -1.54456 0.830301 0.141259 -0.539116 1
-0.22242 0.200163 -1.54314 0.831469 0.139147 -0.537863 1
-0.221553 0.201154 -1.54195 0.836331 0.131628 -0.532188 1
-0.220827 0.202027 -1.54058 0.8425 0.12588 -0.523782 1
-0.220153 0.20273 -1.5391 0.84587 0.123855 -0.518811 1
-0.21935 0.203309 -1.53762 0.846406 0.124739 -0.517722 1
-0.218508 0.203747 -1.53612 0.844313 0.127626 -0.520429 1
-0.217639 0.204135 -1.53462 0.840272 0.131118 -0.526071 1
-0.216902 0.204395 -1.53303 0.835238 0.136516 -0.532673 1
-0.215778 0.204404 -1.53165 0.829959 0.145066 -0.538632 1
-0.215015 0.204711 -1.53008 0.825623 0.152781 -0.543144 1
-0.213982 0.205065 -1.52868 0.821451 0.159755 -0.547445 1
-0.213368 0.206082 -1.52736 0.820033 0.164457 -0.548178 1
-0.21228 0.205628 -1.52603 0.816066 0.166973 -0.553314 1
-0.211244 0.205694 -1.52459 0.810956 0.170888 -0.559596 1
-0.210106 0.205391 -1.52326 0.803758 0.173441 -0.569115 0.01
-0.209234 0.204298 -1.52216 0.796118 0.171101 -0.580449 1
-0.208525 0.202808 -1.52151 0.788671 0.167003 -0.5917 1
-0.207388 0.201968 -1.52043 0.774441 0.16828 -0.609855 1
-0.206488 0.200618 -1.51971 0.763283 0.165145 -0.624601 1
-0.20536 0.199699 -1.51869 0.748894 0.162805 -0.64238 1
-0.204714 0.19809 -1.51831 0.742535 0.156312 -0.651312 1
-0.204609 0.196334 -1.51856 0.751505 0.141207 -0.644438 1
-0.20419 0.194609 -1.51861 0.760166 0.124908 -0.63761 1
-0.20405 0.192839 -1.51861 0.76845 0.113575 -0.629751 1
-0.203432 0.191174 -1.51857 0.775095 0.104805 -0.623092 1
-0.203208 0.189417 -1.51844 0.782265 0.102113 -0.61452 1
-0.202997 0.187657 -1.51834 0.789627 0.105887 -0.604382 1
-0.202889 0.185884 -1.51836 0.801281 0.111648 -0.587778 1
-0.20268 0.184123 -1.51826 0.813075 0.113395 -0.571009 1
-0.202076 0.182589 -1.5176 0.821974 0.0996365 -0.560742 1
-0.201313 0.181236 -1.51674 0.831058 0.0840868 -0.549793 1
-0.200692 0.179758 -1.51598 0.834714 0.072725 -0.545861 1
-0.20006 0.178107 -1.5158 0.824895 0.0795675 -0.559659 1
-0.200582 0.176415 -1.51592 0.820649 0.0805862 -0.565722 1
-0.199998 0.174774 -1.51558 0.810312 0.0873996 -0.579444 1
-0.199167 0.173296 -1.51505 0.796049 0.0937575 -0.597926 1
-0.198333 0.171805 -1.51456 0.784478 0.0908546 -0.613465 1
-0.198769 0.17012 -1.51492 0.788874 0.0783228 -0.609544 1
-0.199336 0.168615 -1.51567 0.794196 0.0672933 -0.603924 1
-0.199294 0.166842 -1.51575 0.792666 0.0573638 -0.606952 1
-0.199629 0.165158 -1.51621 0.794936 0.051913 -0.604469 1
-0.199663 0.163436 -1.51664 0.795744 0.0492244 -0.603629 1
-0.200357 0.162008 -1.51744 0.800779 0.0458024 -0.597206 1
-0.200164 0.16025 -1.51759 0.799356 0.0422854 -0.599368 1
-0.20055 0.158602 -1.51813 0.802433 0.0355271 -0.595684 1
-0.200697 0.156843 -1.51833 0.803555 0.024965 -0.594706 0.01
-0.201835 0.156523 -1.51965 0.808817 0.0142583 -0.587888 1
-0.202645 0.155676 -1.52099 0.810248 -0.0015265 -0.586086 1
-0.203601 0.155316 -1.52244 0.812185 -0.0115483 -0.583286 1
-0.204593 0.155128 -1.5239 0.813991 -0.0189232 -0.580569 1
-0.205664 0.154861 -1.52529 0.815813 -0.0264345 -0.577712 1
-0.206685 0.155326 -1.52667 0.819471 -0.024422 -0.5726 1
-0.207659 0.155682 -1.52811 0.822755 -0.0192746 -0.56807 1
-0.208629 0.155395 -1.52957 0.81936 -0.0202041 -0.572923 1
-0.209203 0.154058 -1.53059 0.816813 -0.0440605 -0.575218 1
-0.210259 0.153358 -1.53184 0.810212 -0.0515428 -0.583867 1
-0.210806 0.151928 -1.53273 0.808042 -0.0800062 -0.583667 1
-0.212035 0.151713 -1.534 0.796428 -0.0707739 -0.600578 1
-0.213177 0.150867 -1.53506 0.787025 -0.078484 -0.611908 1
-0.214049 0.149848 -1.53623 0.796929 -0.0607907 -0.601007 1
-0.214998 0.14868 -1.53717 0.81161 -0.0423392 -0.582663 1
-0.215754 0.147388 -1.53813 0.827645 -0.0277876 -0.560564 1
-0.216163 0.146068 -1.53924 0.843647 -0.0147961 -0.536694 1
-0.21676 0.144886 -1.54043 0.855654 0.00664113 -0.517505 1
-0.217879 0.144251 -1.54165 0.847121 0.0324703 -0.530406 1
-0.218489 0.143319 -1.54303 0.837305 0.0328418 -0.545749 1
-0.219487 0.142639 -1.54434 0.821453 0.0445601 -0.568533 1
-0.220371 0.141644 -1.54551 0.812346 0.0406784 -0.581755 1
-0.22119 0.140803 -1.54684 0.801048 0.0413421 -0.597171 1
-0.222093 0.139918 -1.54809 0.795059 0.0429186 -0.605012 1
-0.223155 0.13934 -1.54939 0.792314 0.0688138 -0.60622 1
-0.223882 0.138341 -1.55067 0.800605 0.0725329 -0.594786 1
-0.224871 0.13827 -1.55214 0.811615 0.0843805 -0.578067 1
-0.225787 0.137715 -1.55356 0.833901 0.0708792 -0.547344 1
-0.2267 0.137223 -1.555 0.849481 0.0635103 -0.523784 1
