# .PCD v0.7 - Point Cloud Data file format
# 4 123 0
# 1 39 0
# 40 76 0
# 77 108 0
# 109 123 0
VERSION 0.7
FIELDS x y z normal_x normal_y normal_z curvature
SIZE 4 4 4 4 4 4 4
TYPE F F F F F F F
COUNT 1 1 1 1 1 1 1
WIDTH 123
HEIGHT 1
VIEWPOINT 0 0 0 1 0 0 0
POINTS 123
DATA ascii
0.0721096 -0.107166 -1.59637 0.92858 0.356488 -0.103229 0.01
0.0718807 -0.106827 -1.59444 0.92538 0.354685 -0.13368 1
0.0721158 -0.106787 -1.59249 0.922588 0.348619 -0.165216 1
0.0723407 -0.105878 -1.59076 0.919248 0.344514 -0.190506 1
0.0720518 -0.105408 -1.58887 0.917595 0.340779 -0.20467 1
0.072655 -0.105423 -1.587 0.918335 0.335449 -0.210081 1
0.0732044 -0.105014 -1.58515 0.920188 0.329757 -0.210986 1
0.0736118 -0.104715 -1.58325 0.922968 0.3239 -0.20789 1
0.0735924 -0.104736 -1.58128 0.925326 0.32088 -0.202011 1
0.0739144 -0.104658 -1.57934 0.927781 0.316658 -0.197356 1
0.0741922 -0.104075 -1.57748 0.929748 0.312244 -0.195121 1
0.0749379 -0.10518 -1.57603 0.932945 0.306411 -0.189011 1
0.0758693 -0.106177 -1.57462 0.935906 0.301175 -0.182685 1
0.0766532 -0.106895 -1.57296 0.93866 0.295569 -0.177639 1
0.0769526 -0.107661 -1.57117 0.941241 0.289468 -0.173995 1
0.0773164 -0.108578 -1.56947 0.943575 0.283579 -0.171023 1
0.078765 -0.111907 -1.56702 0.936261 0.301785 -0.179837 1
0.0793688 -0.112552 -1.56526 0.928763 0.309815 -0.203502 1
0.0799837 -0.113165 -1.5635 0.920873 0.316233 -0.228013 1
0.0807155 -0.114495 -1.56224 0.911835 0.329829 -0.244477 1
0.0815036 -0.115201 -1.56058 0.903419 0.337208 -0.264811 1
0.0824663 -0.116808 -1.55998 0.894472 0.354667 -0.27227 1
0.083269 -0.11773 -1.55844 0.889485 0.358836 -0.282938 1
0.0838098 -0.118568 -1.55674 0.884616 0.360138 -0.296234 1
0.0847033 -0.119827 -1.55552 0.880072 0.361423 -0.307972 1
0.0857694 -0.12109 -1.55445 0.876459 0.359572 -0.320199 1
0.0868282 -0.122626 -1.55382 0.875433 0.355771 -0.327176 1
0.0875128 -0.124414 -1.55337 0.876493 0.351612 -0.328831 1
0.0882775 -0.125946 -1.5524 0.87554 0.345865 -0.337354 1
0.0893179 -0.1268 -1.55096 0.871023 0.338361 -0.356134 1
0.0904532 -0.127798 -1.5497 0.866907 0.332544 -0.371332 1
0.0915488 -0.128879 -1.54848 0.862741 0.328167 -0.384686 1
0.0925197 -0.130247 -1.54745 0.859361 0.326965 -0.393183 1
0.0933402 -0.13166 -1.54635 0.855678 0.326429 -0.40157 1
0.0943818 -0.132758 -1.54509 0.851054 0.323743 -0.413398 1
0.0953534 -0.134293 -1.54434 0.849892 0.323551 -0.41593 1
0.0964516 -0.135032 -1.54288 0.84577 0.319402 -0.427382 1
0.0974532 -0.13641 -1.5419 0.843087 0.320584 -0.431776 1
0.0984284 -0.137892 -1.54104 0.840235 0.324095 -0.434704 1
0.0995546 -0.138355 -1.5395 0.836158 0.322831 -0.443419 1
0.100453 -0.139905 -1.53868 0.833294 0.328893 -0.444354 1
0.101649 -0.141087 -1.53766 0.835623 0.32751 -0.440989 1
0.102871 -0.142358 -1.53678 0.838192 0.326358 -0.436949 1
0.103431 -0.144141 -1.53617 0.841089 0.328699 -0.429566 1
0.104334 -0.145308 -1.53487 0.843927 0.324442 -0.42723 1
0.10558 -0.14638 -1.53378 0.846945 0.320048 -0.424563 1
0.106498 -0.147903 -1.53294 0.846674 0.322127 -0.423529 1
0.107556 -0.148974 -1.53167 0.837746 0.325997 -0.438072 1
0.108708 -0.150059 -1.5305 0.829916 0.329742 -0.450009 1
0.109427 -0.15189 -1.53045 0.82713 0.343561 -0.444771 1
0.110039 -0.153761 -1.53042 0.824116 0.347784 -0.447079 1
0.110976 -0.15548 -1.53022 0.820765 0.344251 -0.45589 1
0.11168 -0.157263 -1.53066 0.822105 0.333779 -0.461232 1
0.112857 -0.158816 -1.53039 0.819543 0.321832 -0.474104 1
0.113082 -0.160648 -1.53107 0.826275 0.3024 -0.47521 0.01
0.11283 -0.162022 -1.53246 0.839204 0.299838 -0.45369 1
0.112449 -0.162987 -1.53413 0.85147 0.300109 -0.430039 1
0.111375 -0.163208 -1.53576 0.862225 0.302298 -0.406427 1
0.110425 -0.163398 -1.53747 0.871972 0.302357 -0.385026 1
0.109961 -0.163971 -1.5393 0.880433 0.310427 -0.358431 1
0.109009 -0.164152 -1.54101 0.887536 0.327524 -0.324049 1
0.108398 -0.164311 -1.54288 0.892454 0.343796 -0.292114 1
0.108246 -0.16505 -1.54469 0.89232 0.366821 -0.263073 1
0.107871 -0.164958 -1.54662 0.891914 0.378103 -0.248047 1
0.107193 -0.164767 -1.54846 0.888365 0.384972 -0.250209 1
0.107261 -0.166193 -1.54982 0.881165 0.385906 -0.273175 1
0.107435 -0.167361 -1.55139 0.875072 0.381907 -0.297316 1
0.10691 -0.16768 -1.55326 0.87206 0.372445 -0.317485 1
0.106253 -0.167761 -1.55511 0.871195 0.362495 -0.331085 1
0.105806 -0.168409 -1.55692 0.86972 0.36782 -0.329084 1
0.105586 -0.169284 -1.55867 0.867536 0.390317 -0.308274 1
0.104896 -0.169354 -1.56051 0.86837 0.403371 -0.288488 1
0.104436 -0.169776 -1.56237 0.867713 0.421786 -0.263003 1
0.104218 -0.17032 -1.56425 0.865654 0.441319 -0.236391 1
0.103538 -0.169912 -1.56605 0.867992 0.442133 -0.226072 1
0.10319 -0.170232 -1.56797 0.868384 0.447709 -0.213229 1
0.102306 -0.168763 -1.56893 0.872207 0.441362 -0.210842 1
0.101442 -0.167017 -1.56921 0.878615 0.42683 -0.214129 1
0.100636 -0.165906 -1.57062 0.883572 0.418568 -0.210005 1
0.0999192 -0.164933 -1.57218 0.887675 0.412014 -0.205616 1
0.0991995 -0.163966 -1.57373 0.891495 0.405525 -0.201953 1
0.0984807 -0.163235 -1.57541 0.893699 0.403474 -0.196241 1
0.0978356 -0.162672 -1.57718 0.894743 0.405839 -0.186361 1
0.0972708 -0.162233 -1.57902 0.895092 0.412332 -0.169681 1
0.0967914 -0.161999 -1.58091 0.893655 0.423994 -0.147003 1
0.0962834 -0.161679 -1.58279 0.891927 0.434629 -0.124755 1
0.095805 -0.161504 -1.58469 0.888245 0.447717 -0.102811 1
0.0956799 -0.161901 -1.58661 0.895484 0.427931 -0.122406 1
0.0955469 -0.162185 -1.58855 0.900893 0.412041 -0.136436 1
0.0958504 -0.163455 -1.59003 0.904276 0.399919 -0.149496 1
0.0955948 -0.163685 -1.59196 0.907586 0.390879 -0.1533 1
0.0957115 -0.163227 -1.59387 0.909682 0.386118 -0.152941 0.01
0.0946757 -0.161564 -1.59369 0.907497 0.393208 -0.147772 1
0.0935732 -0.159944 -1.59388 0.905633 0.399086 -0.143383 1
0.0930226 -0.158272 -1.59476 0.904334 0.403079 -0.140385 1
0.0921409 -0.156612 -1.59534 0.90261 0.407798 -0.137829 1
0.0912729 -0.154906 -1.5958 0.90076 0.412379 -0.136293 1
0.0904286 -0.15319 -1.59626 0.8991 0.41618 -0.135698 1
0.0895611 -0.151522 -1.59685 0.903615 0.409736 -0.124889 1
0.0886573 -0.149826 -1.59727 0.908818 0.400709 -0.116117 1
0.087808 -0.148079 -1.59759 0.914088 0.390482 -0.109394 1
0.0871079 -0.146361 -1.59824 0.918694 0.382578 -0.0981583 1
0.0864147 -0.144544 -1.59794 0.919508 0.381529 -0.094551 1
0.0859191 -0.142664 -1.59824 0.919058 0.385221 -0.0832897 1
0.0849312 -0.141136 -1.59749 0.912759 0.399306 -0.0861691 1
0.0840732 -0.139365 -1.59747 0.906452 0.413118 -0.0876312 1
0.0832517 -0.137582 -1.59732 0.906465 0.408243 -0.107977 1
0.0825735 -0.135799 -1.59684 0.909148 0.393611 -0.136092 1
0.0819141 -0.134037 -1.59741 0.913612 0.383422 -0.135281 1
0.0812474 -0.132203 -1.59716 0.918362 0.363649 -0.156112 1
0.0805667 -0.130379 -1.59687 0.921328 0.348967 -0.171396 1
0.0798198 -0.128563 -1.59675 0.922315 0.347126 -0.16982 1
0.0791065 -0.126739 -1.59695 0.923988 0.344813 -0.16538 1
0.0783711 -0.124918 -1.59707 0.924691 0.34389 -0.163358 1
0.0776942 -0.123097 -1.59738 0.92556 0.344238 -0.157605 1
0.0769384 -0.121281 -1.59746 0.927594 0.341275 -0.151993 1
0.0761935 -0.119469 -1.59764 0.929021 0.341937 -0.141415 1
0.0755747 -0.117653 -1.5972 0.927664 0.348648 -0.133733 1
0.0749356 -0.115881 -1.59664 0.926184 0.355006 -0.127096 1
0.0743675 -0.11418 -1.59745 0.928825 0.353665 -0.11048 1
0.0735708 -0.112384 -1.59756 0.929249 0.356033 -0.0986804 1
0.0728403 -0.110628 -1.59706 0.92814 0.360401 -0.0930996 1
0.0722771 -0.108787 -1.59747 0.930191 0.356438 -0.0877314 1
