# .PCD v0.7 - Point Cloud Data file format
# 3 30 0
# 1 5 0
# 6 26 0
# 27 30 0
VERSION 0.7
FIELDS x y z normal_x normal_y normal_z curvature
SIZE 4 4 4 4 4 4 4
TYPE F F F F F F F
COUNT 1 1 1 1 1 1 1
WIDTH 30
HEIGHT 1
VIEWPOINT 0 0 0 1 0 0 0
POINTS 30
DATA ascii
-0.0436803 -0.0078898 -1.34792 -0.246288 -0.0534239 0.967723 0.01
-0.0429196 -0.00724116 -1.34764 -0.261433 -0.050818 0.963883 1
-0.042179 -0.00657706 -1.34735 -0.0996757 0.279218 -0.95504 1
-0.0416995 -0.00571203 -1.34703 -0.292481 -0.0482724 0.955052 1
-0.04122 -0.004847 -1.34671 -0.31013 -0.0544192 0.949135 1
-0.0606538 -0.0260936 -1.35503 -0.304116 0.576716 -0.75823 1
-0.0600254 -0.0252744 -1.35491 -0.184404 0.617018 -0.765038 1
-0.059397 -0.0244552 -1.35479 -0.116258 0.624258 -0.772519 1
-0.0587636 -0.0236474 -1.35462 -0.0729812 0.625195 -0.777049 1
-0.0581298 -0.0228405 -1.35446 -0.0439819 0.623762 -0.780376 0.01
-0.0574822 -0.0220791 -1.35418 -0.0239473 0.621391 -0.783134 1
-0.0568323 -0.0213252 -1.35388 -0.0100862 0.618717 -0.785549 1
-0.0561916 -0.0205603 -1.35358 -0.00124985 0.616259 -0.787543 1
-0.0555533 -0.0197925 -1.3533 0.00390235 0.614233 -0.789115 1
-0.0549079 -0.0190311 -1.353 0.00638332 0.612641 -0.790336 1
-0.0542597 -0.0182723 -1.35271 0.00638368 0.61169 -0.791072 1
-0.0536055 -0.0175191 -1.35242 0.00436724 0.611265 -0.791414 1
-0.052948 -0.016769 -1.35213 0.00036393 0.611314 -0.791388 1
-0.0522778 -0.0160367 -1.35182 -0.00521528 0.611143 -0.791503 1
-0.0515979 -0.0153177 -1.3515 -0.0124267 0.609968 -0.792328 1
-0.0509066 -0.0146135 -1.35118 -0.0292685 0.59748 -0.80135 1
-0.0502038 -0.0139239 -1.35084 -0.0577429 0.563365 -0.824188 1
-0.0494972 -0.0132372 -1.35051 -0.0810444 0.522417 -0.84883 1
-0.0487857 -0.0125543 -1.35018 -0.0971403 0.479987 -0.871881 1
-0.0480692 -0.0118778 -1.34985 -0.106456 0.440894 -0.891224 1
-0.047344 -0.0112125 -1.34952 -0.110601 0.407249 -0.906596 1
-0.0466184 -0.0105452 -1.34919 -0.111806 0.378952 -0.918638 1
-0.0458916 -0.00987267 -1.34887 -0.111258 0.355205 -0.928144 1
-0.0451621 -0.0092034 -1.34856 -0.109705 0.335205 -0.935736 1
-0.0444227 -0.00854598 -1.34824 -0.107487 0.318196 -0.941912 1
