# .PCD v0.7 - Point Cloud Data file format
# 4 149 0
# 1 33 0
# 34 91 0
# 92 128 0
# 129 149 0
VERSION 0.7
FIELDS x y z normal_x normal_y normal_z curvature
SIZE 4 4 4 4 4 4 4
TYPE F F F F F F F
COUNT 1 1 1 1 1 1 1
WIDTH 149
HEIGHT 1
VIEWPOINT 0 0 0 1 0 0 0
POINTS 149
DATA ascii
-0.194809 -0.0566504 -1.65004 0.891386 -0.450355 -0.0511113 0.01
-0.195172 -0.0573643 -1.64864 0.878693 -0.472152 -0.0705086 1
-0.19606 -0.058657 -1.64827 0.860549 -0.505079 -0.0659576 1
-0.196754 -0.0599449 -1.6476 0.841851 -0.535647 -0.0661003 1
-0.197597 -0.0613173 -1.64758 0.837032 -0.544482 -0.0540017 1
-0.198075 -0.0625949 -1.64673 0.833724 -0.547951 -0.0682271 1
-0.198987 -0.0638788 -1.64639 0.840617 -0.538531 -0.0578548 1
-0.199774 -0.0647196 -1.64526 0.839388 -0.538154 -0.0762775 1
-0.200474 -0.0661131 -1.64486 0.853869 -0.517117 -0.0591395 1
-0.201077 -0.0674493 -1.64419 0.86777 -0.494727 -0.0471287 1
-0.201379 -0.0681949 -1.6428 0.858564 -0.50608 -0.0821674 1
-0.201906 -0.0691137 -1.64159 0.856078 -0.50696 -0.100609 1
-0.202492 -0.0705171 -1.64106 0.875389 -0.477775 -0.0736525 1
-0.203073 -0.0717274 -1.64017 0.884545 -0.461777 -0.0658943 1
-0.203346 -0.0725633 -1.63882 0.872165 -0.478268 -0.102896 1
-0.203479 -0.0731731 -1.63733 0.851457 -0.501861 -0.152174 1
-0.203882 -0.0743193 -1.63627 0.851872 -0.498078 -0.161962 1
-0.204347 -0.0754631 -1.63524 0.85319 -0.493177 -0.169832 1
-0.205069 -0.0765786 -1.63433 0.857926 -0.486456 -0.165298 1
-0.205481 -0.0777834 -1.63334 0.857232 -0.487863 -0.16475 1
-0.205836 -0.0787767 -1.63213 0.849582 -0.496957 -0.176762 1
-0.206354 -0.080017 -1.63124 0.852065 -0.49481 -0.170727 1
-0.208548 -0.0848392 -1.62972 0.88954 -0.449833 -0.0798093 1
-0.209242 -0.0862798 -1.62953 0.898969 -0.436393 -0.0376351 1
-0.209879 -0.0877592 -1.62955 0.895051 -0.445242 -0.0253481 1
-0.210649 -0.0890815 -1.63005 0.896271 -0.443475 -0.00534323 1
-0.211424 -0.0904755 -1.63027 0.899328 -0.437137 0.0109442 1
-0.212158 -0.0918873 -1.63002 0.903066 -0.428849 0.0236552 1
-0.212922 -0.0932483 -1.62962 0.907841 -0.417684 0.0369499 1
-0.213313 -0.0944207 -1.62859 0.909017 -0.414593 0.0424349 1
-0.213777 -0.095653 -1.62766 0.911449 -0.408198 0.0513255 1
-0.21451 -0.097074 -1.62747 0.919945 -0.385087 0.0735504 1
-0.215265 -0.0984832 -1.62767 0.921228 -0.382316 0.0719293 0.778856
-0.215869 -0.0999424 -1.62735 0.919244 -0.387017 0.0721706 1
-0.216621 -0.101238 -1.62794 0.916083 -0.396576 0.059328 1
-0.21732 -0.102683 -1.6278 0.911801 -0.406534 0.0578736 1
-0.217904 -0.104183 -1.62776 0.906823 -0.417831 0.0555797 1
-0.218577 -0.105646 -1.62773 0.901515 -0.429378 0.0538916 1
-0.219148 -0.107152 -1.62773 0.898761 -0.434331 0.0598808 1
-0.219826 -0.108534 -1.6282 0.900776 -0.429037 0.0672991 1
-0.220311 -0.110069 -1.62824 0.904099 -0.419831 0.0796678 1
-0.220953 -0.111449 -1.62877 0.912652 -0.399423 0.0867676 1
-0.221661 -0.112895 -1.62871 0.923207 -0.370607 0.101682 1
-0.222375 -0.114325 -1.62891 0.936217 -0.333 0.112291 1
-0.222767 -0.115569 -1.62796 0.939047 -0.319079 0.127982 1
-0.223259 -0.116966 -1.62733 0.940098 -0.314108 0.13248 1
-0.223802 -0.118389 -1.62681 0.938774 -0.318145 0.132237 1
-0.224405 -0.119643 -1.62599 0.936099 -0.325997 0.132082 1
-0.224903 -0.120914 -1.62514 0.932464 -0.337564 0.128689 1
-0.225167 -0.122216 -1.62605 0.925598 -0.358916 0.120199 1
-0.225606 -0.123519 -1.62689 0.918056 -0.380242 0.112203 1
-0.226097 -0.124813 -1.62771 0.91076 -0.399467 0.104606 1
-0.22641 -0.126085 -1.62865 0.900574 -0.427557 0.078496 1
-0.226805 -0.127248 -1.62969 0.891265 -0.451223 0.0452198 1
-0.227112 -0.128486 -1.63068 0.884874 -0.465737 0.00929851 0.01
-0.227181 -0.127864 -1.63216 0.877422 -0.479016 -0.0259604 1
-0.227211 -0.127589 -1.63375 0.866292 -0.49517 -0.0659126 1
-0.227041 -0.126788 -1.63513 0.860283 -0.503293 -0.0813012 1
-0.226925 -0.126184 -1.63662 0.854944 -0.510514 -0.091902 1
-0.226823 -0.125647 -1.63814 0.84918 -0.518943 -0.0979373 1
-0.226778 -0.125288 -1.63971 0.841848 -0.529892 -0.102503 1
-0.226363 -0.124302 -1.64091 0.836963 -0.538824 -0.0957125 1
-0.225772 -0.123236 -1.64196 0.835565 -0.54334 -0.0813217 1
-0.225205 -0.122019 -1.64285 0.848273 -0.525012 -0.0692481 1
-0.224514 -0.120854 -1.64372 0.865639 -0.496811 -0.0620295 1
-0.223837 -0.119744 -1.64467 0.879093 -0.473292 -0.0564901 1
-0.223235 -0.11835 -1.64521 0.895765 -0.442424 -0.0432048 1
-0.222647 -0.117035 -1.64593 0.90752 -0.418665 -0.0335705 1
-0.222193 -0.115914 -1.64699 0.912711 -0.407209 -0.0337436 1
-0.221692 -0.114514 -1.64761 0.921141 -0.388472 -0.0242756 1
-0.22133 -0.113677 -1.64894 0.915458 -0.401627 -0.0251674 1
-0.221005 -0.112943 -1.65034 0.908511 -0.416832 -0.0292992 1
-0.220843 -0.112664 -1.65191 0.897553 -0.438655 -0.044498 1
-0.22036 -0.112044 -1.65332 0.890074 -0.453102 -0.0496731 1
-0.219858 -0.11112 -1.65454 0.885214 -0.46266 -0.0483947 1
-0.219478 -0.109984 -1.65562 0.881623 -0.469896 -0.0440364 1
-0.218996 -0.108878 -1.65668 0.877721 -0.477496 -0.0400431 1
-0.218565 -0.107716 -1.65771 0.875488 -0.481712 -0.038385 1
-0.218102 -0.106576 -1.65875 0.874571 -0.483486 -0.0369796 1
-0.217619 -0.105503 -1.65985 0.873656 -0.485236 -0.0356579 1
-0.217141 -0.10445 -1.66097 0.873089 -0.486414 -0.0334274 1
-0.216678 -0.103511 -1.6622 0.871607 -0.489139 -0.0323192 1
-0.216274 -0.102733 -1.66355 0.868296 -0.494925 -0.0333292 1
-0.215858 -0.102064 -1.66495 0.863972 -0.502345 -0.0346733 1
-0.215596 -0.101741 -1.66651 0.855579 -0.515921 -0.0425455 1
-0.215265 -0.100901 -1.66784 0.853143 -0.519904 -0.0429783 1
-0.214716 -0.0998489 -1.66893 0.854947 -0.517365 -0.0374169 1
-0.214105 -0.0990269 -1.67017 0.853864 -0.519213 -0.0365258 1
-0.213615 -0.0979185 -1.67123 0.855441 -0.516937 -0.031561 1
-0.213052 -0.0969875 -1.67242 0.854734 -0.518165 -0.0305598 1
-0.212613 -0.096268 -1.67379 0.849926 -0.525582 -0.0372808 1
-0.212106 -0.095779 -1.67524 0.842776 -0.535974 -0.0495983 1
-0.211614 -0.0948329 -1.67645 0.841849 -0.537066 -0.0533848 1
-0.211055 -0.0936601 -1.6774 0.846162 -0.530768 -0.0478991 1
-0.210453 -0.0925695 -1.67842 0.850121 -0.524846 -0.0427915 1
-0.209874 -0.0915041 -1.67948 0.853952 -0.519005 -0.0374251 1
-0.209377 -0.0904373 -1.68058 0.857483 -0.513529 -0.0318043 1
-0.208804 -0.0893542 -1.68163 0.862822 -0.504996 -0.0227453 1
-0.208512 -0.0886526 -1.68305 0.862931 -0.505096 -0.0151247 1
-0.208181 -0.0879008 -1.68443 0.864622 -0.502395 0.00532738 1
-0.207535 -0.0873314 -1.68579 0.865078 -0.500997 0.0253321 1
-0.206872 -0.0863026 -1.68684 0.867324 -0.495774 0.0442365 1
-0.206361 -0.08578 -1.68827 0.864675 -0.498188 0.0643793 1
-0.206001 -0.085332 -1.68978 0.859466 -0.504572 0.0820086 1
-0.205549 -0.0845563 -1.69112 0.855257 -0.508441 0.100113 1
-0.204995 -0.0839335 -1.69249 0.848858 -0.515666 0.116314 1
-0.204564 -0.0833581 -1.69394 0.858592 -0.500373 0.111563 1
-0.204062 -0.0827685 -1.69535 0.868267 -0.484661 0.105908 1
-0.203553 -0.0826819 -1.69687 0.870589 -0.481718 0.100109 1
-0.203007 -0.0818499 -1.69814 0.879125 -0.465951 0.10014 1
-0.202358 -0.0808934 -1.69926 0.887312 -0.448649 0.106729 1
-0.201876 -0.0795791 -1.70006 0.896631 -0.424955 0.124363 1
-0.201452 -0.0794232 -1.7016 0.884496 -0.402701 0.235583 0.01
-0.20042 -0.0782307 -1.70128 0.884496 -0.402701 0.235583 1
-0.200709 -0.0776158 -1.69981 0.915749 -0.380356 0.129356 1
-0.200569 -0.076927 -1.69837 0.923754 -0.359459 0.132167 1
-0.200644 -0.0763157 -1.69688 0.931068 -0.332323 0.150579 1
-0.200764 -0.0756697 -1.69541 0.936894 -0.305366 0.17024 1
-0.200612 -0.0750882 -1.69391 0.935556 -0.320012 0.14942 1
-0.200609 -0.0745509 -1.69239 0.933935 -0.331484 0.133734 1
-0.200627 -0.0740181 -1.69087 0.932233 -0.340518 0.122428 1
-0.200625 -0.073228 -1.68947 0.930375 -0.348232 0.114617 1
-0.200724 -0.0727029 -1.68795 0.927037 -0.359834 0.105458 1
-0.200626 -0.0720019 -1.68651 0.923024 -0.373092 0.0939682 1
-0.200385 -0.0710786 -1.68521 0.918696 -0.386565 0.081021 1
-0.200043 -0.070276 -1.68385 0.914064 -0.399833 0.0679748 1
-0.199455 -0.0691226 -1.6829 0.911113 -0.408219 0.0568311 1
-0.199213 -0.0683005 -1.68153 0.910178 -0.410564 0.0548886 1
-0.199487 -0.0679308 -1.67999 0.908186 -0.414906 0.055229 1
-0.19913 -0.0670495 -1.67869 0.907312 -0.417136 0.0527469 1
-0.198689 -0.066066 -1.67749 0.906934 -0.418377 0.0493072 1
-0.198126 -0.0650931 -1.67634 0.907533 -0.417306 0.0473255 0.859763
-0.197565 -0.0644409 -1.67498 0.907644 -0.417103 0.04698 0.851748
-0.197624 -0.0640148 -1.67343 0.906427 -0.419613 0.0481156 1
-0.197638 -0.0635719 -1.67188 0.905097 -0.422354 0.0491636 1
-0.198014 -0.0636888 -1.67032 0.901181 -0.430138 0.0534191 1
-0.197745 -0.0630039 -1.66888 0.902013 -0.428104 0.0556722 1
-0.197171 -0.061974 -1.66779 0.907095 -0.417414 0.0542692 1
-0.197051 -0.0614782 -1.66626 0.909221 -0.413153 0.0512045 1
-0.196823 -0.060865 -1.66479 0.913966 -0.403541 0.0426738 1
-0.196867 -0.0605619 -1.6632 0.91535 -0.401549 0.0298908 1
-0.196739 -0.0600645 -1.66168 0.915655 -0.401598 0.0171675 1
-0.196141 -0.0589988 -1.66063 0.919485 -0.393081 0.0059551 1
-0.19624 -0.0589173 -1.65902 0.915242 -0.402888 0.00355857 1
-0.195788 -0.0580055 -1.65777 0.915476 -0.402363 -0.0027356 1
-0.195602 -0.0576552 -1.65621 0.908751 -0.417262 -0.00795016 1
-0.195274 -0.0572097 -1.6547 0.903826 -0.427634 -0.0150568 1
-0.195363 -0.0572001 -1.65309 0.896634 -0.442359 -0.0191157 1
-0.194878 -0.0566908 -1.65164 0.895715 -0.443374 -0.0333844 1
