# .PCD v0.7 - Point Cloud Data file format
# 4 126 0
# 1 16 0
# 17 62 0
# 63 117 0
# 118 126 0
VERSION 0.7
FIELDS x y z normal_x normal_y normal_z curvature
SIZE 4 4 4 4 4 4 4
TYPE F F F F F F F
COUNT 1 1 1 1 1 1 1
WIDTH 126
HEIGHT 1
VIEWPOINT 0 0 0 1 0 0 0
POINTS 126
DATA ascii
0.140424 0.0387936 -1.37236 0.0897766 0.140487 0.986004 0.01
0.139315 0.0378395 -1.3723 -0.0543816 0.198545 0.978582 1
0.138053 0.0372435 -1.37274 -0.431193 0.54219 0.721182 1
0.13671 0.0367015 -1.37296 -0.530879 0.598753 0.599718 1
0.135678 0.0356928 -1.37321 -0.519449 0.4625 0.718517 1
0.134534 0.0348016 -1.37342 -0.462023 0.356571 0.812029 1
0.133682 0.0336818 -1.37301 0.195244 -0.499247 0.844175 1
0.132915 0.0325259 -1.37254 0.67578 -0.449803 0.58395 1
0.132094 0.0313195 -1.37241 -0.471839 0.166337 0.865852 1
0.131577 0.030191 -1.37319 -0.516288 0.27291 0.811768 1
0.189343 0.0529002 -1.39528 0.863063 -0.28638 0.416063 1
0.188771 0.0516791 -1.39471 0.859044 -0.282168 0.427111 1
0.18815 0.0504572 -1.39419 0.854594 -0.277675 0.438823 1
0.187494 0.0491905 -1.39386 0.855896 -0.280963 0.434168 1
0.186863 0.0479114 -1.39353 0.857128 -0.28339 0.430141 1
0.186246 0.0466218 -1.39321 0.858756 -0.28557 0.425427 1
0.185659 0.045349 -1.39278 0.855185 -0.280836 0.435648 1
0.185062 0.0440399 -1.39251 0.855067 -0.290088 0.429778 1
0.184476 0.0427456 -1.39215 0.849058 -0.296545 0.43722 1
0.18389 0.0414469 -1.39181 0.84216 -0.303852 0.445468 1
0.183305 0.0401488 -1.39147 0.833448 -0.310807 0.456905 1
0.18357 0.0409149 -1.39269 0.878334 -0.351873 0.323597 1
0.182945 0.0395993 -1.39253 0.877301 -0.366414 0.309974 1
0.182287 0.0383376 -1.39288 0.884125 -0.394033 0.25112 1
0.181358 0.0372126 -1.393 0.883445 -0.41096 0.225025 1
0.18027 0.0363756 -1.39352 0.884367 -0.431239 0.178683 0.01
0.179334 0.0361404 -1.39462 -0.696498 0.400302 0.595523 1
0.178643 0.0364713 -1.39587 -0.749971 0.415421 0.514751 1
0.178078 0.0369275 -1.39714 -0.772362 0.422916 0.47392 1
0.17761 0.0374873 -1.39841 -0.784791 0.429307 0.446988 1
0.177301 0.0381159 -1.39969 -0.791084 0.436082 0.428974 1
0.177081 0.0388115 -1.40096 -0.783687 0.443386 0.43502 1
0.176912 0.0395924 -1.40219 -0.774786 0.452903 0.441119 1
0.176816 0.0404572 -1.40337 -0.764308 0.464832 0.446951 1
0.176788 0.0413794 -1.40451 -0.752124 0.479096 0.452522 1
0.176791 0.0423515 -1.4056 -0.737901 0.495558 0.458175 1
0.17712 0.0434969 -1.40645 -0.727344 0.51364 0.45513 1
0.177507 0.0446594 -1.40726 -0.718115 0.531986 0.448667 1
0.177915 0.0458414 -1.40802 -0.721527 0.528371 0.447463 1
0.178332 0.047017 -1.40879 -0.727812 0.514654 0.453234 1
0.178758 0.0482002 -1.40954 -0.731612 0.500185 0.463205 1
0.179204 0.0493827 -1.41028 -0.732396 0.484438 0.478452 1
0.179971 0.0506207 -1.41044 -0.748697 0.466972 0.470521 1
0.180737 0.051858 -1.4106 -0.761307 0.450595 0.466235 1
0.1815 0.053098 -1.41076 -0.771301 0.434972 0.464644 1
0.182268 0.0543294 -1.41096 -0.778304 0.419484 0.4672 1
0.183046 0.0555578 -1.41114 -0.783674 0.404073 0.471784 1
0.183827 0.0567843 -1.41132 -0.787175 0.388267 0.479171 1
0.184668 0.0579736 -1.41147 -0.788866 0.375252 0.486699 1
0.185541 0.0591329 -1.41167 -0.78762 0.363891 0.49723 1
0.186431 0.0602652 -1.41193 -0.784163 0.350267 0.512251 1
0.187373 0.0613694 -1.41213 -0.781168 0.337066 0.525512 1
0.187381 0.0628113 -1.41187 -0.773794 0.318812 0.547358 1
0.187293 0.0642056 -1.41143 -0.766685 0.301065 0.567057 1
0.187167 0.0655704 -1.41092 -0.758055 0.281411 0.588353 1
0.186991 0.0669237 -1.41039 -0.74512 0.25592 0.615874 1
0.18675 0.0682428 -1.4098 -0.727233 0.223961 0.648825 1
0.186486 0.0695913 -1.40929 -0.693101 0.171084 0.700243 1
0.185718 0.0708117 -1.40903 -0.576737 0.0391941 0.815989 1
0.184813 0.0719337 -1.40877 -0.179004 -0.244 0.953111 1
0.185228 0.0733205 -1.40855 -0.0738675 -0.314511 0.946375 1
0.185553 0.0746456 -1.40802 0.063017 -0.340868 0.937997 1
0.185942 0.075939 -1.40745 0.170503 -0.35199 0.920343 1
0.186176 0.077269 -1.40688 0.336964 -0.382937 0.860125 1
0.186457 0.0786538 -1.4065 0.445858 -0.395594 0.802942 1
0.18658 0.0798054 -1.4056 0.624361 -0.433403 0.649873 1
0.186803 0.081204 -1.40523 0.686658 -0.446985 0.573329 1
0.187114 0.0824493 -1.40452 0.753844 -0.475352 0.453606 1
0.187858 0.0833555 -1.40365 0.793281 -0.513553 0.327061 1
0.18818 0.0835935 -1.40224 0.7842 -0.582778 0.213073 1
0.188677 0.0843782 -1.4011 0.714093 -0.697674 0.0576321 1
0.189309 0.0849718 -1.39992 0.572419 -0.809718 -0.129202 0.01
0.189394 0.0848967 -1.39846 0.442699 -0.875775 -0.192448 1
0.188756 0.0844152 -1.39724 0.387896 -0.908048 -0.158065 1
0.187955 0.0840004 -1.39608 0.347387 -0.931394 -0.108756 1
0.187209 0.0836253 -1.39488 0.307617 -0.948155 -0.0798416 1
0.186327 0.0832756 -1.39376 0.286098 -0.955399 -0.0732218 1
0.185821 0.0832848 -1.39239 0.259848 -0.958561 -0.116792 1
0.184818 0.0827153 -1.39149 0.271711 -0.950354 -0.151659 1
0.183817 0.082197 -1.39055 0.291873 -0.931483 -0.217139 1
0.182616 0.0814401 -1.39019 0.322665 -0.909516 -0.262045 1
0.181436 0.0808429 -1.38956 0.352803 -0.876912 -0.32643 1
0.180276 0.0801453 -1.389 0.382821 -0.838424 -0.387935 1
0.179079 0.0793008 -1.38901 0.425892 -0.812204 -0.398674 1
0.177911 0.0784235 -1.3889 0.480304 -0.776376 -0.408104 1
0.1767 0.0776062 -1.3888 0.560365 -0.72982 -0.391605 1
0.175507 0.0767881 -1.38857 0.605017 -0.697022 -0.384856 1
0.174358 0.0759512 -1.38822 0.636829 -0.665803 -0.388787 1
0.17354 0.0749048 -1.3876 0.648687 -0.63097 -0.425537 1
0.173003 0.0737007 -1.38696 0.651107 -0.599788 -0.465096 1
0.172538 0.0724624 -1.38633 0.652284 -0.574933 -0.493941 1
0.172061 0.0712231 -1.38572 0.65734 -0.556681 -0.507947 1
0.1716 0.0699605 -1.38513 0.669029 -0.544231 -0.506175 1
0.171024 0.0687286 -1.38459 0.699776 -0.532395 -0.476308 1
0.170688 0.0674889 -1.38389 0.704946 -0.53735 -0.462932 1
0.169797 0.0663417 -1.3837 0.809464 -0.485413 -0.330365 1
0.168997 0.0651928 -1.38326 0.849289 -0.468359 -0.243614 1
0.168462 0.06398 -1.38264 0.872704 -0.471982 -0.124981 1
0.168675 0.0629616 -1.38161 -0.710102 0.422041 -0.563593 1
0.167821 0.0617724 -1.38164 0.871175 -0.483063 0.0877732 1
0.166923 0.0606384 -1.38187 0.883832 -0.418294 0.209453 1
0.166266 0.0593322 -1.38178 0.869424 -0.39529 0.29639 1
0.165564 0.0580472 -1.38181 0.850949 -0.376343 0.366405 1
0.164825 0.0567831 -1.38184 0.820635 -0.362148 0.44205 1
0.164011 0.0555662 -1.3818 0.76849 -0.355142 0.532256 1
0.163066 0.0544605 -1.38162 0.699361 -0.369636 0.611771 1
0.162105 0.0533892 -1.38135 0.646041 -0.381417 0.661175 1
0.161116 0.0523377 -1.3811 0.611013 -0.394171 0.686507 1
0.160066 0.0513457 -1.38086 0.587174 -0.409814 0.698054 1
0.159019 0.0504171 -1.38043 0.569164 -0.425393 0.703628 1
0.157848 0.0497004 -1.37992 0.553963 -0.434824 0.709967 1
0.156608 0.0493298 -1.37923 0.536454 -0.421559 0.731098 1
0.155943 0.0488983 -1.378 0.500785 -0.359525 0.787373 1
0.15523 0.0481901 -1.37694 0.454514 -0.282539 0.844742 1
0.154405 0.0473731 -1.37604 0.488771 -0.360527 0.794433 1
0.153298 0.0464743 -1.37571 0.490153 -0.37072 0.788871 1
0.152042 0.045729 -1.37559 0.455663 -0.281478 0.844477 1
0.150796 0.0451513 -1.37508 0.520358 -0.383928 0.762776 1
0.149575 0.0445529 -1.37454 0.561633 -0.415722 0.715363 1
0.148347 0.0437702 -1.37438 0.150491 0.229017 0.961719 1
0.147128 0.042967 -1.37426 0.448699 -0.201105 0.870762 1
0.145995 0.0422213 -1.37481 0.359991 -0.0531187 0.931442 1
0.14468 0.0415847 -1.37491 -0.55346 0.832391 -0.0284095 1
0.143498 0.0409973 -1.37428 -0.529531 0.8429 0.0954822 1
0.14228 0.0403039 -1.37385 -0.499719 0.847866 0.177214 1
0.141466 0.0397351 -1.37278 -0.323066 0.730846 0.601243 1
