# .PCD v0.7 - Point Cloud Data file format
# 5 71 0
# 1 4 0
# 5 20 0
# 21 37 0
# 38 60 0
# 61 71 0
VERSION 0.7
FIELDS x y z normal_x normal_y normal_z curvature
SIZE 4 4 4 4 4 4 4
TYPE F F F F F F F
COUNT 1 1 1 1 1 1 1
WIDTH 71
HEIGHT 1
VIEWPOINT 0 0 0 1 0 0 0
POINTS 71
DATA ascii
-0.0716003 0.00754678 -1.68152 -0.818206 -0.479778 -0.316783 0.01
-0.0713835 0.00836138 -1.68338 -0.814637 -0.481783 -0.32288 1
-0.0704159 0.00788025 -1.68511 -0.815673 -0.473391 -0.332533 1
-0.0695136 0.00759101 -1.68691 -0.804238 -0.474412 -0.357958 1
-0.0691217 0.00831197 -1.68878 -0.794643 -0.47795 -0.374307 1
-0.0678847 0.00718657 -1.68995 -0.789847 -0.477175 -0.385287 1
-0.0670948 0.0074365 -1.69181 -0.783539 -0.479309 -0.395385 1
-0.0662864 0.00760558 -1.69367 -0.774247 -0.481316 -0.410945 1
-0.0652346 0.00752934 -1.69542 -0.764017 -0.48147 -0.429494 1
-0.0648892 0.00850665 -1.69718 -0.754572 -0.486903 -0.43994 1
-0.0641133 0.0090976 -1.69897 -0.746947 -0.487948 -0.451639 1
-0.0635 0.00975 -1.7008 -0.736992 -0.484599 -0.471175 1
-0.0616556 0.00881012 -1.7027 -0.76094 -0.466907 -0.45052 1
-0.0608049 0.00914611 -1.70452 -0.773119 -0.470152 -0.425727 1
-0.0595355 0.00825039 -1.70585 -0.788314 -0.470542 -0.396422 1
-0.0583344 0.00675722 -1.70654 -0.799141 -0.467046 -0.378473 0.01
-0.0575658 0.00497717 -1.70591 -0.799095 -0.451473 -0.397014 1
-0.0565925 0.00320036 -1.70614 -0.808257 -0.437052 -0.394596 1
-0.0557672 0.00137004 -1.70579 -0.807323 -0.437517 -0.395991 0.700208
-0.0548918 -0.000465586 -1.70594 -0.80721 -0.439595 -0.393915 1
-0.0542044 -0.00235302 -1.70559 -0.802408 -0.442847 -0.400036 1
-0.0533737 -0.00389532 -1.70454 -0.792893 -0.447417 -0.413689 1
-0.0526158 -0.00575008 -1.70416 -0.785055 -0.454459 -0.4209 1
-0.0515648 -0.00745321 -1.70456 -0.785576 -0.462409 -0.411154 1
-0.050653 -0.00922665 -1.70413 -0.78391 -0.461503 -0.415331 1
-0.0497808 -0.0110282 -1.70374 -0.783854 -0.460371 -0.416691 0.461112
-0.0488542 -0.0128149 -1.70341 -0.784977 -0.459992 -0.414993 1
-0.0478954 -0.0146111 -1.70329 -0.784801 -0.464646 -0.410111 1
-0.0467237 -0.0161304 -1.70398 -0.786276 -0.470245 -0.400799 1
-0.045549 -0.0177824 -1.70421 -0.78302 -0.477252 -0.398887 1
-0.04462 -0.0195756 -1.70392 -0.778736 -0.482439 -0.401027 1
-0.0440323 -0.0212636 -1.70294 -0.776412 -0.48555 -0.401778 0.01
-0.0439481 -0.0226466 -1.70145 -0.7738 -0.491811 -0.399193 1
-0.0440572 -0.0238699 -1.69982 -0.771897 -0.496719 -0.396795 1
-0.0443276 -0.0248245 -1.69804 -0.767911 -0.500745 -0.399457 1
-0.0445098 -0.0259036 -1.69631 -0.768337 -0.501381 -0.397837 0.949686
-0.0447535 -0.0269406 -1.69458 -0.768582 -0.502432 -0.396036 1
-0.0451756 -0.0277939 -1.69277 -0.767822 -0.506532 -0.392269 1
-0.0458762 -0.0281148 -1.69088 -0.765351 -0.512029 -0.389955 1
-0.0464471 -0.0286085 -1.68899 -0.766178 -0.512995 -0.387049 1
-0.0468716 -0.0293943 -1.68716 -0.771245 -0.506521 -0.38551 1
-0.0472584 -0.0302178 -1.68533 -0.774602 -0.501585 -0.385232 1
-0.0472188 -0.03155 -1.68379 -0.78113 -0.497418 -0.377374 1
-0.0478667 -0.0318284 -1.68187 -0.78699 -0.497239 -0.365241 1
-0.047954 -0.0329396 -1.68017 -0.791621 -0.496523 -0.356093 1
-0.0488569 -0.0327224 -1.67835 -0.798727 -0.49549 -0.341358 1
-0.0497662 -0.032512 -1.67654 -0.805349 -0.49362 -0.328255 1
-0.0507487 -0.0320595 -1.67481 -0.80686 -0.493842 -0.324185 1
-0.0517185 -0.0316156 -1.67307 -0.801371 -0.496695 -0.333313 0.01
-0.0526305 -0.0298403 -1.67349 -0.798321 -0.500564 -0.334842 1
-0.0533851 -0.0281204 -1.67428 -0.797419 -0.504751 -0.330681 1
-0.0541031 -0.0264071 -1.67513 -0.790458 -0.508008 -0.342205 1
-0.0548256 -0.0247175 -1.67601 -0.785551 -0.507863 -0.353532 1
-0.055569 -0.0230115 -1.67684 -0.781519 -0.508216 -0.361862 1
-0.0560498 -0.02144 -1.67805 -0.780591 -0.511586 -0.359107 1
-0.0566869 -0.0197495 -1.679 -0.772578 -0.521245 -0.362527 1
-0.0573916 -0.0180233 -1.67982 -0.758121 -0.529361 -0.380827 1
-0.0584935 -0.0163227 -1.68005 -0.739404 -0.52964 -0.415648 1
-0.0596773 -0.0147487 -1.68058 -0.741003 -0.487743 -0.461541 1
-0.060733 -0.0130235 -1.68084 -0.741991 -0.449268 -0.497602 1
-0.0616739 -0.0112219 -1.68101 -0.739147 -0.42613 -0.521608 1
-0.0625862 -0.00942378 -1.68132 -0.730166 -0.452723 -0.51176 1
-0.0626007 -0.00763309 -1.68229 -0.711129 -0.49245 -0.501785 1
-0.0635606 -0.00583536 -1.68222 -0.750494 -0.506324 -0.42473 1
-0.0648603 -0.00431296 -1.68183 -0.797646 -0.468876 -0.379363 1
-0.0660734 -0.00280764 -1.68118 -0.812707 -0.454454 -0.364663 1
-0.0673803 -0.00142353 -1.68045 -0.814223 -0.454008 -0.361825 1
-0.0682575 0.000417548 -1.68046 -0.816529 -0.458354 -0.350989 1
-0.0691356 0.00224963 -1.68063 -0.825009 -0.450234 -0.34154 1
-0.0701743 0.00400296 -1.68071 -0.834386 -0.440464 -0.331348 1
-0.0713468 0.00567084 -1.68076 -0.833952 -0.450075 -0.319306 1
