# .PCD v0.7 - Point Cloud Data file format
# 5 91 0
# 1 10 0
# 11 15 0
# 16 50 0
# 51 81 0
# 82 91 0
VERSION 0.7
FIELDS x y z normal_x normal_y normal_z curvature
SIZE 4 4 4 4 4 4 4
TYPE F F F F F F F
COUNT 1 1 1 1 1 1 1
WIDTH 91
HEIGHT 1
VIEWPOINT 0 0 0 1 0 0 0
POINTS 91
DATA ascii
-0.212764 0.130257 -1.6638 0.741 -0.0625869 0.668582 0.01
-0.212524 0.128505 -1.66327 0.845362 0.0105246 0.534091 1
-0.213153 0.127935 -1.66144 0.94404 0.0646876 0.323427 1
-0.213506 0.127622 -1.65949 0.982785 0.0628802 0.173723 1
-0.213712 0.12747 -1.65748 0.999183 0.0282616 0.0288968 1
-0.21407 0.127384 -1.65549 0.999296 0.0338156 -0.0162737 1
-0.214421 0.127399 -1.6535 0.99849 0.0381988 -0.0394842 1
-0.214764 0.12753 -1.65151 0.997852 0.039892 -0.051968 1
-0.215063 0.128395 -1.6497 0.99773 0.0354149 -0.0572811 1
-0.215235 0.129165 -1.64785 0.997928 0.0317584 -0.0559548 1
-0.215293 0.129849 -1.64594 0.998301 0.0316483 -0.0489166 1
-0.21099 0.129416 -1.66646 0.492606 -0.143047 0.858415 1
-0.209464 0.130748 -1.66648 0.367107 -0.198525 0.908747 1
-0.207899 0.13201 -1.66666 0.384687 -0.202118 0.900647 1
-0.206289 0.133192 -1.667 0.459823 -0.19587 0.86614 1
-0.204647 0.134328 -1.66734 0.489873 -0.24525 0.836586 1
-0.203045 0.135524 -1.66765 0.32053 -0.431373 0.843314 1
-0.201499 0.136806 -1.66791 0.154509 -0.583624 0.797188 1
-0.199604 0.137469 -1.66784 0.250473 -0.609131 0.752478 1
-0.197772 0.138271 -1.66773 0.354834 -0.59764 0.718971 1
-0.196112 0.139427 -1.66762 0.309096 -0.622032 0.719399 0.01
-0.194194 0.140025 -1.6676 0.260579 -0.632439 0.729465 1
-0.192271 0.140636 -1.6676 0.245711 -0.63223 0.734787 1
-0.190434 0.141488 -1.6676 0.231697 -0.63319 0.738503 1
-0.188772 0.142567 -1.66724 0.136395 -0.646672 0.750474 1
-0.187614 0.143797 -1.66654 0.085907 -0.671088 0.736383 0.01
-0.187688 0.145273 -1.66516 0.0568572 -0.693609 0.718104 1
-0.188052 0.146666 -1.66375 0.032592 -0.708884 0.704572 1
-0.188494 0.14803 -1.66232 0.0147161 -0.723717 0.68994 1
-0.18886 0.149395 -1.66086 -0.014923 -0.766959 0.641522 1
-0.189522 0.150622 -1.65941 -0.0186433 -0.794897 0.606458 1
-0.190361 0.151749 -1.65796 0.00163759 -0.806226 0.591605 1
-0.191436 0.152684 -1.65652 0.0374052 -0.788551 0.613831 1
-0.192187 0.153772 -1.65501 -0.00552546 -0.809796 0.586685 1
-0.192785 0.154907 -1.65345 -0.0685295 -0.839713 0.538689 1
-0.193573 0.155764 -1.65179 -0.0904654 -0.857167 0.507032 1
-0.193513 0.156427 -1.65002 -0.315908 -0.876345 0.363623 1
-0.192875 0.156947 -1.64817 -0.552867 -0.789849 0.265475 1
-0.192311 0.157319 -1.64626 -0.653846 -0.705018 0.274653 1
-0.192385 0.158154 -1.64457 -0.694204 -0.637719 0.333761 1
-0.193 0.159383 -1.64309 -0.69914 -0.581734 0.415679 1
-0.193676 0.160813 -1.64182 -0.647792 -0.592112 0.479342 1
-0.193891 0.162162 -1.64041 -0.627855 -0.625769 0.46283 1
-0.193629 0.163428 -1.63885 -0.650126 -0.635071 0.417159 1
-0.193032 0.16442 -1.63719 -0.711947 -0.611165 0.345844 1
-0.192919 0.165397 -1.63551 -0.734508 -0.618024 0.280258 1
-0.193434 0.166367 -1.63381 -0.70828 -0.67577 0.204141 1
-0.194023 0.166855 -1.63194 -0.699257 -0.706745 0.107478 1
-0.194423 0.167201 -1.63 -0.703102 -0.711089 0.000100737 1
-0.194517 0.167396 -1.62799 -0.722155 -0.689561 -0.0547528 1
-0.1954 0.168444 -1.62659 -0.648571 -0.760997 -0.0154993 1
-0.19627 0.169372 -1.62509 -0.593513 -0.804724 0.0127317 1
-0.196874 0.169807 -1.62321 -0.595886 -0.802824 0.0198563 1
-0.198417 0.170515 -1.62234 -0.588206 -0.808054 0.0325934 1
-0.200215 0.17124 -1.62199 -0.588903 -0.806702 0.0492518 1
-0.202108 0.171851 -1.62237 -0.565868 -0.820033 0.0856693 1
-0.20397 0.172464 -1.62287 -0.509496 -0.844697 0.164013 1
-0.205814 0.173046 -1.62347 -0.420554 -0.857275 0.297009 1
-0.20763 0.17353 -1.62423 -0.178122 -0.872388 0.455204 1
-0.20942 0.173993 -1.62505 0.136327 -0.860274 0.491268 1
-0.210936 0.174137 -1.62604 0.513377 -0.754815 0.408287 0.01
-0.211292 0.172919 -1.62762 0.588293 -0.699007 0.406572 1
-0.211605 0.171669 -1.62918 0.656734 -0.629071 0.415897 1
-0.211837 0.170434 -1.63076 0.70413 -0.551712 0.447006 1
-0.211694 0.169383 -1.63248 0.665171 -0.573884 0.477707 1
-0.211247 0.16824 -1.63407 0.60251 -0.610834 0.513676 1
-0.210625 0.167054 -1.63559 0.507473 -0.662222 0.551301 1
-0.210223 0.166034 -1.63729 0.429714 -0.697406 0.57356 1
-0.20978 0.165038 -1.639 0.32558 -0.731718 0.598821 1
-0.209299 0.164049 -1.6407 0.191242 -0.756601 0.625285 1
-0.208665 0.16278 -1.64214 0.0502335 -0.762077 0.645535 1
-0.208269 0.161434 -1.64358 0.0182402 -0.74981 0.661402 1
-0.208103 0.160015 -1.64502 -0.00488689 -0.745728 0.666232 1
-0.208187 0.158762 -1.64661 -0.0235954 -0.743526 0.668291 1
-0.208203 0.157454 -1.64815 -0.061035 -0.741135 0.668575 1
-0.208134 0.156077 -1.64963 -0.11499 -0.734365 0.668944 1
-0.209306 0.155042 -1.65087 0.114544 -0.74249 0.659991 1
-0.210068 0.153873 -1.65219 0.300883 -0.710604 0.636012 1
-0.210099 0.152475 -1.65366 0.267925 -0.70221 0.659634 1
-0.209861 0.151075 -1.6551 0.160376 -0.698985 0.696922 1
-0.209663 0.14965 -1.65652 0.079762 -0.692975 0.716536 1
-0.209606 0.148179 -1.65791 0.0587554 -0.686188 0.725047 1
-0.209771 0.146737 -1.65932 0.100578 -0.675036 0.730897 1
-0.210115 0.145247 -1.66062 0.188464 -0.65364 0.732964 1
-0.210766 0.143635 -1.66166 0.337227 -0.579546 0.741893 1
-0.211416 0.141907 -1.66248 0.457279 -0.456981 0.762931 1
-0.212037 0.140098 -1.66305 0.536669 -0.342748 0.771045 1
-0.212575 0.138145 -1.66306 0.648283 -0.229759 0.725906 1
-0.212939 0.13621 -1.66346 0.670232 -0.14605 0.727639 1
-0.213159 0.134263 -1.66391 0.67594 -0.109507 0.728775 1
-0.213064 0.132241 -1.66398 0.70436 -0.0848137 0.704758 1
