# .PCD v0.7 - Point Cloud Data file format
# 4 116 0
# 1 36 0
# 37 67 0
# 68 103 0
# 104 116 0
VERSION 0.7
FIELDS x y z normal_x normal_y normal_z curvature
SIZE 4 4 4 4 4 4 4
TYPE F F F F F F F
COUNT 1 1 1 1 1 1 1
WIDTH 116
HEIGHT 1
VIEWPOINT 0 0 0 1 0 0 0
POINTS 116
DATA ascii
-0.0304176 0.145023 -1.58699 -0.877951 0.0776124 -0.472418 0.01
-0.0313168 0.144507 -1.58502 -0.877611 0.0812267 -0.472442 1
-0.032581 0.14334 -1.58359 -0.882122 0.0730633 -0.465319 1
-0.0334852 0.143644 -1.58157 -0.892493 0.0807348 -0.443777 1
-0.0341861 0.144467 -1.57962 -0.904848 0.0915928 -0.415765 1
-0.0346549 0.145878 -1.57796 -0.916343 0.10641 -0.385996 1
-0.0353918 0.14608 -1.57586 -0.932845 0.11264 -0.342217 1
-0.0363609 0.145797 -1.57387 -0.948791 0.118867 -0.292686 1
-0.0372976 0.145629 -1.57185 -0.957151 0.0967662 -0.272944 1
-0.0384451 0.145367 -1.56995 -0.959594 0.0752004 -0.271153 1
-0.0384828 0.146607 -1.5681 -0.957243 0.0319992 -0.287511 1
-0.0387238 0.14733 -1.566 -0.949629 0.0215552 -0.312633 1
-0.0392195 0.147954 -1.56391 -0.937407 0.02805 -0.347105 1
-0.0399301 0.14916 -1.56217 -0.929947 0.0121884 -0.367492 1
-0.041395 0.149265 -1.55859 -0.902683 0.0648369 -0.425394 1
-0.0426465 0.149818 -1.55683 -0.892745 0.071851 -0.444797 1
-0.0433522 0.150749 -1.55492 -0.887201 0.0649442 -0.456789 1
-0.0442149 0.15183 -1.55317 -0.883726 0.0524402 -0.465058 1
-0.0450944 0.152918 -1.55143 -0.888587 0.0479572 -0.456194 1
-0.0458261 0.153951 -1.54959 -0.900927 0.0567702 -0.430241 1
-0.0467741 0.154541 -1.54766 -0.911485 0.0664055 -0.405938 1
-0.0473651 0.155157 -1.5456 -0.920345 0.0745931 -0.383928 1
-0.0481834 0.154866 -1.54354 -0.926779 0.077878 -0.367445 1
-0.0489287 0.15499 -1.54144 -0.930415 0.0823588 -0.357133 1
-0.0499044 0.155141 -1.53944 -0.931111 0.0891512 -0.353673 1
-0.0502772 0.156475 -1.53769 -0.931633 0.108632 -0.346785 1
-0.0506506 0.158019 -1.53612 -0.931697 0.131458 -0.338615 1
-0.0510405 0.159939 -1.53505 -0.931528 0.157409 -0.327839 1
-0.0509484 0.161948 -1.53408 -0.930988 0.184815 -0.31481 1
-0.0510952 0.163411 -1.5324 -0.929197 0.211786 -0.302887 1
-0.0512827 0.164882 -1.53073 -0.92657 0.238098 -0.291166 1
-0.0517845 0.166023 -1.52888 -0.923935 0.259273 -0.281284 1
-0.0515407 0.167529 -1.52725 -0.922136 0.279034 -0.267963 1
-0.0515065 0.169098 -1.52566 -0.92103 0.295088 -0.254216 1
-0.0517321 0.169864 -1.52358 -0.920449 0.307563 -0.241204 1
-0.0516652 0.171092 -1.52171 -0.920953 0.318116 -0.225049 1
-0.051687 0.172717 -1.52018 -0.92125 0.328806 -0.207811 1
-0.051378 0.174337 -1.51868 -0.920578 0.341456 -0.189589 1
-0.0508612 0.176107 -1.51742 -0.918377 0.356801 -0.171106 1
-0.0504776 0.177859 -1.51609 -0.913428 0.377569 -0.151958 1
-0.0503282 0.179139 -1.51427 -0.906089 0.40147 -0.133504 1
-0.049538 0.18093 -1.51319 -0.893699 0.436023 -0.105761 1
-0.0489039 0.182626 -1.51189 -0.889524 0.449192 -0.0835085 1
-0.0478859 0.184563 -1.51144 -0.891432 0.445152 -0.0847934 1
-0.0471197 0.186251 -1.5102 -0.905019 0.417697 -0.0804306 1
-0.0464202 0.188212 -1.5094 -0.927364 0.361971 -0.0947278 1
-0.0457919 0.190323 -1.50976 -0.945255 0.286103 -0.156964 1
-0.0455886 0.192546 -1.50977 -0.97431 0.0870919 -0.20769 1
-0.0461009 0.194697 -1.50946 -0.942583 -0.241579 -0.230602 1
-0.0464223 0.196904 -1.50956 -0.828784 -0.501984 -0.247241 0.01
-0.0467123 0.198257 -1.51131 -0.750459 -0.601043 -0.274879 1
-0.0465397 0.199037 -1.5134 -0.715963 -0.632221 -0.296131 1
-0.0464131 0.199826 -1.51548 -0.692598 -0.64039 -0.331978 1
-0.0463415 0.200778 -1.5175 -0.661751 -0.660048 -0.355559 1
-0.0462401 0.201528 -1.5196 -0.636142 -0.677135 -0.36988 1
-0.0450615 0.20187 -1.52147 -0.653138 -0.651732 -0.385558 1
-0.0446002 0.202658 -1.5235 -0.626686 -0.666961 -0.403024 1
-0.0443483 0.203556 -1.52553 -0.583021 -0.687645 -0.432701 1
-0.0432493 0.204069 -1.52741 -0.566297 -0.666426 -0.484958 1
-0.0425165 0.204822 -1.52938 -0.537866 -0.671287 -0.509974 1
-0.0424944 0.205753 -1.53141 -0.506913 -0.706426 -0.493965 1
-0.0413354 0.206322 -1.53323 -0.543768 -0.697698 -0.466406 1
-0.0402694 0.20684 -1.53512 -0.578578 -0.691288 -0.432861 1
-0.0398799 0.207519 -1.53721 -0.57856 -0.697528 -0.422756 1
-0.0390589 0.208104 -1.5392 -0.590804 -0.686174 -0.424401 1
-0.0382342 0.208668 -1.5412 -0.59026 -0.681695 -0.432301 1
-0.0373071 0.209224 -1.54315 -0.578919 -0.682313 -0.446432 1
-0.0364166 0.209843 -1.5451 -0.548153 -0.697044 -0.462232 1
-0.0354287 0.210546 -1.54698 -0.53203 -0.699519 -0.477093 1
-0.034682 0.211186 -1.54898 -0.535147 -0.679519 -0.501868 1
-0.0336016 0.21176 -1.55085 -0.558824 -0.652619 -0.511669 1
-0.0322071 0.212079 -1.55256 -0.604618 -0.609933 -0.512267 1
-0.0317679 0.2131 -1.5545 -0.581285 -0.637566 -0.505586 1
-0.0306032 0.213661 -1.55632 -0.59668 -0.626567 -0.501385 1
-0.0302994 0.214644 -1.5583 -0.565208 -0.654881 -0.501669 1
-0.0291673 0.215303 -1.56011 -0.56117 -0.651543 -0.510471 1
-0.0279504 0.215784 -1.56192 -0.562604 -0.645698 -0.516286 1
-0.0269466 0.216405 -1.56381 -0.582936 -0.639731 -0.500928 1
-0.0261978 0.217157 -1.56578 -0.581508 -0.646461 -0.493899 1
-0.0256679 0.217904 -1.56781 -0.558504 -0.659573 -0.503028 1
-0.0237796 0.217651 -1.56897 -0.595578 -0.587016 -0.548361 0.01
-0.0224327 0.215871 -1.56897 -0.712641 -0.413796 -0.566494 1
-0.0213347 0.213957 -1.56931 -0.820615 -0.158246 -0.549136 1
-0.0209051 0.211851 -1.56991 -0.863655 0.103646 -0.493314 1
-0.0211287 0.209653 -1.57023 -0.855643 0.271032 -0.440927 1
-0.0215544 0.207635 -1.57109 -0.824632 0.382176 -0.417041 1
-0.02144 0.205988 -1.57259 -0.787382 0.445196 -0.426415 1
-0.0218525 0.204304 -1.574 -0.763401 0.483929 -0.427822 1
-0.022426 0.202484 -1.57516 -0.753283 0.497328 -0.430383 1
-0.0226821 0.200941 -1.57675 -0.758537 0.480081 -0.440617 1
-0.0232898 0.198979 -1.57762 -0.780836 0.447596 -0.435836 1
-0.0236206 0.197107 -1.57879 -0.795045 0.424118 -0.433622 1
-0.0235371 0.195185 -1.57993 -0.804364 0.406378 -0.433423 1
-0.0240264 0.193346 -1.58109 -0.816834 0.385724 -0.428952 1
-0.0249824 0.191538 -1.58199 -0.834364 0.359663 -0.417708 1
-0.0258074 0.189465 -1.58207 -0.858251 0.324803 -0.397377 1
-0.0266297 0.18739 -1.58209 -0.868923 0.305876 -0.389118 1
-0.0271404 0.185241 -1.58176 -0.875586 0.287718 -0.388029 1
-0.0278234 0.183116 -1.5817 -0.881679 0.261014 -0.393081 1
-0.0284886 0.181021 -1.58131 -0.887341 0.228861 -0.40031 1
-0.0288776 0.178824 -1.58123 -0.892006 0.191068 -0.409656 1
-0.0290381 0.176661 -1.58176 -0.894192 0.159671 -0.418242 1
-0.0297157 0.174569 -1.58138 -0.896321 0.137354 -0.421594 1
-0.0297705 0.172423 -1.58199 -0.896809 0.117248 -0.4266 1
-0.0302773 0.170259 -1.58179 -0.898178 0.100665 -0.427952 1
-0.0303763 0.168028 -1.58177 -0.897964 0.0859456 -0.431594 1
-0.0303643 0.165834 -1.58218 -0.894339 0.0771864 -0.440682 1
-0.0306838 0.163627 -1.58229 -0.890737 0.0744988 -0.448372 1
-0.0308835 0.161452 -1.58183 -0.888547 0.0796845 -0.451812 1
-0.0302681 0.159967 -1.58338 -0.884701 0.0876108 -0.457851 1
-0.0303807 0.15786 -1.58411 -0.883777 0.107404 -0.455415 1
-0.030219 0.155734 -1.58477 -0.88074 0.124519 -0.456937 1
-0.0303062 0.153504 -1.58479 -0.881294 0.126494 -0.455324 0.610105
-0.0300913 0.15154 -1.58583 -0.881301 0.121969 -0.456544 1
-0.0302917 0.149317 -1.58587 -0.88112 0.11248 -0.45932 1
-0.0303289 0.14711 -1.5862 -0.879876 0.0980725 -0.464973 1
