# .PCD v0.7 - Point Cloud Data file format
# 3 34 0
# 1 14 0
# 15 33 0
# 34 34 0
VERSION 0.7
FIELDS x y z normal_x normal_y normal_z curvature
SIZE 4 4 4 4 4 4 4
TYPE F F F F F F F
COUNT 1 1 1 1 1 1 1
WIDTH 34
HEIGHT 1
VIEWPOINT 0 0 0 1 0 0 0
POINTS 34
DATA ascii
0.186099 -0.0546164 -1.3554 -0.927931 -0.371244 -0.0335032 0.01
0.186107 -0.054312 -1.35735 -0.924322 -0.381371 -0.013573 1
0.185729 -0.0549186 -1.36633 -0.917469 -0.383528 0.105628 1
0.186301 -0.0564973 -1.36735 -0.918231 -0.379712 0.112568 1
0.186983 -0.0582892 -1.3678 -0.914448 -0.385546 0.123039 1
0.187644 -0.060094 -1.36824 -0.910441 -0.391622 0.13315 1
0.188403 -0.0618881 -1.36853 -0.905738 -0.401442 0.135951 1
0.188955 -0.0635919 -1.36934 -0.895832 -0.419109 0.147761 1
0.189894 -0.0653139 -1.36916 -0.882472 -0.443576 0.15647 1
0.190735 -0.0670817 -1.36938 -0.887505 -0.422961 0.182864 1
0.191319 -0.0688699 -1.36996 -0.893617 -0.374983 0.246652 1
0.191907 -0.0707122 -1.37034 -0.906727 -0.242553 0.344984 1
0.192516 -0.0725448 -1.36995 -0.894607 -0.0504237 0.444001 1
0.192475 -0.0743997 -1.36929 -0.852474 0.151322 0.50039 1
0.193046 -0.0757651 -1.36799 -0.867425 0.151158 0.474051 1
0.193415 -0.077277 -1.36678 -0.897562 0.19415 0.395839 0.01
0.193999 -0.0775258 -1.36492 -0.927241 0.161555 0.337824 1
0.19465 -0.0777525 -1.36307 -0.94737 0.0531517 0.315696 1
0.195172 -0.0778396 -1.36118 -0.969479 -0.0630609 0.236925 1
0.195333 -0.0773723 -1.35927 -0.980991 -0.193682 0.012031 1
0.19515 -0.0769583 -1.35735 -0.955953 -0.290738 -0.040316 1
0.194866 -0.0760839 -1.35561 -0.939825 -0.33932 -0.0398965 1
0.19422 -0.0752029 -1.35397 -0.91854 -0.374214 -0.12747 1
0.193568 -0.0734994 -1.35323 -0.867094 -0.47568 -0.14791 1
0.192591 -0.0719214 -1.35257 -0.868246 -0.473197 -0.149111 1
0.191733 -0.0704392 -1.3516 -0.907104 -0.4006 -0.129159 1
0.190963 -0.0686319 -1.35146 -0.940681 -0.319175 -0.115092 1
0.190335 -0.066768 -1.35157 -0.948403 -0.298834 -0.105971 1
0.189756 -0.0648987 -1.35179 -0.952546 -0.293842 -0.0794518 1
0.189251 -0.063071 -1.35232 -0.950805 -0.306485 -0.0451335 1
0.188743 -0.0611896 -1.35203 -0.948194 -0.317683 -0.00240882 1
0.188056 -0.0596125 -1.35299 -0.937914 -0.346697 0.0108551 1
0.187444 -0.057845 -1.35361 -0.931054 -0.364791 0.00816322 1
0.186734 -0.0561833 -1.35439 -0.927588 -0.373385 -0.0127943 1
