# .PCD v0.7 - Point Cloud Data file format
# 4 150 0
# 1 30 0
# 31 89 0
# 90 126 0
# 127 150 0
VERSION 0.7
FIELDS x y z normal_x normal_y normal_z curvature
SIZE 4 4 4 4 4 4 4
TYPE F F F F F F F
COUNT 1 1 1 1 1 1 1
WIDTH 150
HEIGHT 1
VIEWPOINT 0 0 0 1 0 0 0
POINTS 150
DATA ascii
-0.195665 -0.057922 -1.64915 0.887071 -0.458193 -0.0562609 0.01
-0.196178 -0.0589884 -1.64808 0.868168 -0.490608 -0.0747523 1
-0.196798 -0.0602239 -1.64729 0.846334 -0.525768 -0.0853608 1
-0.19763 -0.0615286 -1.64692 0.831132 -0.54973 -0.0837693 1
-0.198309 -0.0627968 -1.64624 0.824565 -0.55737 -0.097111 1
-0.198935 -0.0640171 -1.64543 0.821733 -0.558813 -0.111726 1
-0.199561 -0.0652516 -1.64464 0.823174 -0.554662 -0.121388 1
-0.200319 -0.0664304 -1.64389 0.829446 -0.544534 -0.124508 1
-0.200967 -0.0675626 -1.64298 0.834655 -0.534525 -0.132795 1
-0.201436 -0.0686971 -1.64196 0.837665 -0.526351 -0.145848 1
-0.202045 -0.0697793 -1.64097 0.84092 -0.520031 -0.149738 1
-0.202426 -0.0707444 -1.63976 0.832793 -0.527383 -0.168293 1
-0.202965 -0.071884 -1.63879 0.834384 -0.524362 -0.169846 1
-0.203569 -0.0731688 -1.63807 0.845364 -0.511475 -0.154118 1
-0.203827 -0.0739047 -1.63668 0.824961 -0.530974 -0.193665 1
-0.204038 -0.075017 -1.63556 0.815965 -0.537654 -0.212439 1
-0.204693 -0.0760485 -1.63454 0.814458 -0.537544 -0.218412 1
-0.205166 -0.0771882 -1.63354 0.81234 -0.536492 -0.228647 1
-0.205596 -0.078232 -1.63242 0.807417 -0.536145 -0.246226 1
-0.205927 -0.0793293 -1.63131 0.803603 -0.534375 -0.26204 1
-0.206399 -0.0805622 -1.63042 0.80849 -0.525252 -0.265431 1
-0.207052 -0.0818355 -1.62972 0.819935 -0.510167 -0.259686 1
-0.20742 -0.0831948 -1.62898 0.828038 -0.496979 -0.25955 1
-0.208264 -0.0845249 -1.62875 0.848842 -0.472571 -0.236948 1
-0.208929 -0.085923 -1.62912 0.879288 -0.439924 -0.182534 1
-0.210275 -0.0887326 -1.62979 0.894794 -0.439171 -0.0804552 1
-0.211083 -0.0900207 -1.63026 0.896238 -0.440866 -0.0489305 1
-0.211644 -0.091285 -1.62947 0.891313 -0.451122 -0.0452759 1
-0.212284 -0.0924495 -1.62859 0.887412 -0.459168 -0.0407973 1
-0.212837 -0.0937881 -1.62793 0.887784 -0.459494 -0.0265443 1
-0.213624 -0.0951453 -1.6282 0.899946 -0.435901 0.00934841 1
-0.214302 -0.0965285 -1.6278 0.908077 -0.417296 0.0354921 1
-0.215065 -0.0978439 -1.62827 0.919104 -0.390322 0.0538194 1
-0.215508 -0.099133 -1.62745 0.920457 -0.385399 0.0650098 1
-0.216222 -0.100309 -1.62825 0.919119 -0.391334 0.0455885 1
-0.216849 -0.101769 -1.62835 0.915886 -0.399561 0.0387938 1
-0.217429 -0.103176 -1.62788 0.911836 -0.408532 0.0407125 1
-0.218028 -0.104646 -1.62777 0.906417 -0.420771 0.0368716 1
-0.218644 -0.106112 -1.62784 0.900508 -0.433747 0.0308056 1
-0.219181 -0.107611 -1.62781 0.897937 -0.438722 0.0351124 1
-0.219805 -0.109074 -1.62777 0.900219 -0.432501 0.0504909 1
-0.220391 -0.110551 -1.62786 0.905456 -0.419122 0.0669698 1
-0.221104 -0.111835 -1.62848 0.915285 -0.394898 0.0794354 1
-0.221858 -0.113225 -1.62866 0.926804 -0.363729 0.0934588 1
-0.222358 -0.11462 -1.62808 0.933339 -0.341749 0.109939 1
-0.222793 -0.116058 -1.62756 0.937171 -0.325322 0.126 1
-0.223317 -0.117483 -1.62708 0.937723 -0.319557 0.136232 1
-0.223824 -0.118669 -1.62615 0.935399 -0.325605 0.13788 1
-0.224473 -0.120079 -1.6265 0.929756 -0.344682 0.129418 1
-0.224954 -0.121492 -1.62705 0.922579 -0.366116 0.121683 1
-0.225519 -0.122952 -1.62734 0.914477 -0.387432 0.116742 1
-0.225836 -0.124052 -1.62845 0.909367 -0.401677 0.108199 1
-0.226338 -0.125559 -1.62855 0.902736 -0.417589 0.10338 1
-0.226761 -0.126768 -1.6295 0.894933 -0.440475 0.0712483 1
-0.227028 -0.127778 -1.6307 0.88891 -0.457008 0.031351 0.01
-0.227381 -0.128267 -1.63217 0.882094 -0.470765 -0.0170467 1
-0.227682 -0.128495 -1.63372 0.872782 -0.483523 -0.0667588 1
-0.227845 -0.128177 -1.63527 0.868482 -0.487618 -0.0892566 1
-0.227629 -0.127296 -1.63657 0.860417 -0.499757 -0.0996286 1
-0.227789 -0.126985 -1.63813 0.855936 -0.505691 -0.107933 1
-0.227671 -0.126232 -1.63952 0.848773 -0.51735 -0.109237 1
-0.226855 -0.125028 -1.64017 0.84259 -0.529038 -0.100807 1
-0.226337 -0.123994 -1.64127 0.837894 -0.538366 -0.0899766 1
-0.225473 -0.122767 -1.6418 0.842447 -0.534303 -0.0692997 1
-0.225074 -0.122027 -1.64315 0.849525 -0.5235 -0.0652291 1
-0.224308 -0.120983 -1.64407 0.865969 -0.496361 -0.0610166 1
-0.223718 -0.120065 -1.64523 0.875844 -0.478624 -0.0617848 1
-0.223258 -0.118654 -1.64581 0.891256 -0.450262 -0.0540952 1
-0.222712 -0.117483 -1.64674 0.900438 -0.431755 -0.0528996 1
-0.222239 -0.116274 -1.64766 0.90766 -0.416311 -0.0532825 1
-0.221774 -0.115188 -1.64872 0.910485 -0.409719 -0.0560978 1
-0.221388 -0.114 -1.64971 0.90797 -0.416416 -0.0467672 1
-0.221052 -0.113003 -1.65091 0.903257 -0.427004 -0.0423616 1
-0.220686 -0.112255 -1.65226 0.8968 -0.440413 -0.0422703 1
-0.220222 -0.111392 -1.65352 0.891286 -0.45174 -0.0392414 1
-0.219781 -0.110256 -1.65454 0.887524 -0.459683 -0.0315057 1
-0.219324 -0.109235 -1.65567 0.882532 -0.469512 -0.0263913 1
-0.218954 -0.108535 -1.65705 0.875665 -0.482019 -0.0294827 1
-0.218525 -0.107522 -1.6582 0.87454 -0.48387 -0.0323902 1
-0.218078 -0.106501 -1.65934 0.873888 -0.484936 -0.0340189 1
-0.217638 -0.105495 -1.66049 0.873381 -0.485774 -0.0350697 1
-0.217046 -0.104678 -1.66172 0.872281 -0.487615 -0.0368388 1
-0.216342 -0.104207 -1.66307 0.869385 -0.492411 -0.0412388 1
-0.216198 -0.103193 -1.66429 0.868182 -0.494464 -0.0420072 1
-0.215835 -0.101955 -1.66522 0.870599 -0.490658 -0.03623 1
-0.215489 -0.101281 -1.66662 0.865711 -0.499173 -0.0370325 1
-0.215114 -0.100397 -1.66789 0.862583 -0.504744 -0.0344091 1
-0.214438 -0.0993045 -1.66883 0.86375 -0.503326 -0.024476 1
-0.213727 -0.0982442 -1.66978 0.864928 -0.501694 -0.0142341 1
-0.21338 -0.097381 -1.67107 0.861134 -0.508235 -0.0120613 1
-0.21304 -0.0970534 -1.67259 0.851931 -0.523275 -0.0199393 1
-0.212625 -0.0964302 -1.674 0.845069 -0.534148 -0.0233152 1
-0.212116 -0.0959427 -1.67543 0.840064 -0.541481 -0.0330389 1
-0.211618 -0.0949803 -1.67659 0.842494 -0.537447 -0.0368008 1
-0.210974 -0.0941001 -1.67775 0.845159 -0.533037 -0.0397227 1
-0.210424 -0.0930338 -1.6788 0.849973 -0.525392 -0.0388536 1
-0.209831 -0.0919955 -1.67985 0.854983 -0.517319 -0.0372249 1
-0.20931 -0.0909218 -1.6809 0.860104 -0.508923 -0.0348996 1
-0.208917 -0.0897475 -1.6819 0.866099 -0.498932 -0.0306541 1
-0.20852 -0.0889122 -1.6832 0.869208 -0.494155 -0.0169578 1
-0.208146 -0.0877501 -1.68422 0.870425 -0.492299 -0.00104378 1
-0.20762 -0.0870077 -1.68552 0.871606 -0.489668 0.0229803 1
-0.207118 -0.08657 -1.68697 0.8704 -0.489947 0.0485385 1
-0.206492 -0.0860459 -1.68834 0.867496 -0.492288 0.0714413 1
-0.206026 -0.0852648 -1.68964 0.863491 -0.495722 0.0929677 1
-0.205505 -0.0849441 -1.69111 0.856151 -0.504722 0.110729 1
-0.20503 -0.0842528 -1.69246 0.855704 -0.503223 0.120572 1
-0.204632 -0.0835231 -1.69382 0.86725 -0.484209 0.115839 1
-0.204146 -0.0830971 -1.69528 0.873943 -0.473185 0.110995 1
-0.203554 -0.0827351 -1.69671 0.879195 -0.464394 0.106562 1
-0.202975 -0.0820954 -1.69805 0.885178 -0.453514 0.103854 1
-0.202448 -0.0811022 -1.69917 0.891828 -0.439994 0.105111 1
-0.201797 -0.0804324 -1.70046 0.89132 -0.434585 0.129172 1
-0.201567 -0.078915 -1.70088 0.89054 -0.426856 0.157267 0.01
-0.201106 -0.0780632 -1.69962 0.911223 -0.393791 0.120834 1
-0.200969 -0.0773583 -1.6982 0.918333 -0.375234 0.125955 1
-0.201167 -0.0768559 -1.6967 0.924331 -0.354872 0.140276 1
-0.201198 -0.0760488 -1.69533 0.933219 -0.317655 0.167922 1
-0.201334 -0.0760677 -1.69375 0.931977 -0.329535 0.151079 1
-0.200919 -0.0749744 -1.69267 0.93302 -0.333195 0.135851 1
-0.200719 -0.074366 -1.69121 0.932308 -0.339311 0.125176 1
-0.20064 -0.0735887 -1.68982 0.931249 -0.344548 0.118584 1
-0.200628 -0.0728645 -1.6884 0.928674 -0.353923 0.110922 1
-0.200434 -0.071986 -1.68709 0.925053 -0.366797 0.0986723 1
-0.200252 -0.0712043 -1.68572 0.921294 -0.379194 0.0861981 1
-0.199996 -0.0703107 -1.68443 0.917416 -0.391215 0.0727859 1
-0.199643 -0.0694756 -1.68312 0.91368 -0.402001 0.0598668 1
-0.199642 -0.0689433 -1.68162 0.912154 -0.405888 0.0568329 1
-0.199832 -0.0688118 -1.68004 0.909864 -0.411142 0.055765 1
-0.199407 -0.0676505 -1.67904 0.909479 -0.412684 0.0503987 1
-0.198924 -0.0665379 -1.67801 0.909226 -0.413883 0.0448247 1
-0.19842 -0.0655309 -1.67688 0.909285 -0.414186 0.0406271 1
-0.198127 -0.0648551 -1.67547 0.909253 -0.414251 0.0406731 0.413141
-0.197902 -0.0642883 -1.674 0.908822 -0.415121 0.0414249 0.959755
-0.197718 -0.0637443 -1.67252 0.908195 -0.416375 0.0425904 0.812082
-0.197423 -0.0630665 -1.67111 0.907997 -0.416739 0.0432539 1
-0.197494 -0.0627472 -1.66955 0.907206 -0.417908 0.0482705 1
-0.197246 -0.0621381 -1.6681 0.908451 -0.414899 0.0507544 1
-0.196833 -0.0613467 -1.66678 0.911652 -0.407883 0.0502291 1
-0.196717 -0.0608124 -1.66529 0.914084 -0.402795 0.0469755 1
-0.196756 -0.0604697 -1.66373 0.915762 -0.400004 0.0371132 1
-0.19664 -0.0599682 -1.66223 0.91733 -0.397541 0.0215907 1
-0.196436 -0.0593641 -1.66077 0.918408 -0.3955 0.0103555 1
-0.195808 -0.0582956 -1.65977 0.922928 -0.384972 -0.000393578 1
-0.195765 -0.0580603 -1.6582 0.919541 -0.392979 -0.00334112 1
-0.195798 -0.0580294 -1.65661 0.913453 -0.406938 -0.00237005 1
-0.195675 -0.0577981 -1.65504 0.908588 -0.417674 -0.00409011 1
-0.195119 -0.0569866 -1.65378 0.91027 -0.413793 -0.0135168 1
-0.195315 -0.0572127 -1.65222 0.903695 -0.42779 -0.0181733 1
-0.195414 -0.0574762 -1.65065 0.897039 -0.440757 -0.0324604 1
