# .PCD v0.7 - Point Cloud Data file format
# 4 30 0
# 1 5 0
# 6 17 0
# 18 26 0
# 27 30 0
VERSION 0.7
FIELDS x y z normal_x normal_y normal_z curvature
SIZE 4 4 4 4 4 4 4
TYPE F F F F F F F
COUNT 1 1 1 1 1 1 1
WIDTH 30
HEIGHT 1
VIEWPOINT 0 0 0 1 0 0 0
POINTS 30
DATA ascii
0.249536 0.110893 -1.4071 -0.16918 -0.0975952 -0.980741 0.01
0.249624 0.108809 -1.40688 -0.695357 0.198307 -0.690763 1
0.249918 0.106711 -1.40695 0.0338878 0.635521 0.77134 1
0.249743 0.104967 -1.40792 0.0644226 -0.495262 -0.866352 1
0.249372 0.103369 -1.40926 0.555211 -0.147829 -0.818467 1
0.247857 0.133307 -1.44056 0.907884 0.109812 -0.404583 1
0.248253 0.134706 -1.43902 0.605653 0.685361 -0.404308 1
0.248611 0.136145 -1.43751 0.471885 0.820161 -0.323513 1
0.248877 0.137682 -1.43608 0.380215 0.91572 -0.129976 1
0.249348 0.137555 -1.43457 0.333771 0.942089 0.0326392 0.01
0.24996 0.136262 -1.433 0.300466 0.922337 0.242929 1
0.250597 0.13525 -1.43126 0.303925 0.838954 0.451427 1
0.251237 0.134308 -1.42947 0.243964 0.484295 -0.840202 1
0.251878 0.133522 -1.42761 0.23155 0.688931 -0.686847 1
0.252225 0.132213 -1.42618 0.241745 0.798704 -0.551027 1
0.252239 0.130315 -1.42524 -0.420645 -0.248572 -0.872508 1
0.252398 0.128609 -1.42401 -0.747163 -0.247935 -0.616665 1
0.252479 0.127053 -1.42271 -0.905042 -0.256093 -0.339581 1
0.250604 0.12694 -1.42173 -0.604763 -0.559868 -0.566401 1
0.248771 0.12679 -1.42069 -0.0837429 0.735804 0.671997 1
0.247016 0.126568 -1.41952 0.27035 0.942212 0.197857 1
0.246655 0.125641 -1.41806 0.196611 0.92619 0.321738 0.01
0.247055 0.124327 -1.41645 -0.116209 0.501663 0.857222 1
0.247548 0.123021 -1.41486 0.456676 -0.587026 -0.668467 1
0.247971 0.121606 -1.41337 0.504657 -0.635853 -0.583963 1
0.248147 0.119838 -1.41221 0.564139 -0.624972 -0.53959 1
0.248441 0.118125 -1.41101 0.559792 -0.55756 -0.612993 1
0.248842 0.116464 -1.40975 0.385908 -0.448272 -0.806305 1
0.249244 0.114742 -1.40859 0.439428 -0.220925 -0.870687 1
0.249592 0.112968 -1.40752 0.214807 -0.229508 -0.949307 1
