# .PCD v0.7 - Point Cloud Data file format
# 4 84 0
# 1 11 0
# 12 32 0
# 33 65 0
# 66 84 0
VERSION 0.7
FIELDS x y z normal_x normal_y normal_z curvature
SIZE 4 4 4 4 4 4 4
TYPE F F F F F F F
COUNT 1 1 1 1 1 1 1
WIDTH 84
HEIGHT 1
VIEWPOINT 0 0 0 1 0 0 0
POINTS 84
DATA ascii
0.1013 0.146999 -1.55068 -0.944173 0.134458 -0.300763 0.01
0.100907 0.146622 -1.54957 -0.934331 0.160369 -0.318287 1
0.10049 0.146428 -1.54842 -0.925783 0.186877 -0.328639 1
0.100007 0.146352 -1.54729 -0.920722 0.206474 -0.331118 1
0.0995245 0.145923 -1.54623 -0.913755 0.240195 -0.327656 1
0.0991284 0.145584 -1.54511 -0.910671 0.273729 -0.309436 1
0.0982139 0.145021 -1.5445 -0.897716 0.309731 -0.313326 1
0.0981593 0.14512 -1.54327 -0.898368 0.273661 -0.343577 1
0.097829 0.145413 -1.54212 -0.899574 0.228881 -0.371995 1
0.097676 0.146011 -1.54105 -0.899451 0.169044 -0.403003 1
0.0971274 0.14578 -1.53996 -0.910637 0.159652 -0.381119 1
0.0966095 0.14567 -1.53885 -0.921211 0.159944 -0.354665 1
0.0960483 0.145546 -1.53775 -0.927328 0.170523 -0.333144 1
0.0957047 0.145828 -1.5366 -0.934896 0.166198 -0.313603 1
0.0955068 0.146272 -1.53547 -0.934289 0.138294 -0.328603 1
0.0950338 0.146084 -1.53434 -0.919582 0.152355 -0.362156 1
0.0945979 0.146489 -1.53326 -0.909768 0.124817 -0.395907 1
0.0940476 0.146219 -1.53218 -0.891016 0.149549 -0.428633 1
0.0934875 0.146003 -1.5311 -0.87284 0.169499 -0.457626 1
0.092849 0.145914 -1.53005 -0.856346 0.178487 -0.484576 1
0.0920109 0.145429 -1.52842 -0.837304 0.193919 -0.511193 1
0.0912577 0.145527 -1.52744 -0.831839 0.172654 -0.527479 1
0.0904476 0.14513 -1.5266 -0.840504 0.184565 -0.509401 1
0.0900403 0.145503 -1.52549 -0.854767 0.177381 -0.487759 1
0.0895742 0.14584 -1.5244 -0.865204 0.180093 -0.467962 1
0.0890546 0.145921 -1.52328 -0.867984 0.198103 -0.455367 1
0.0883301 0.145525 -1.52236 -0.846759 0.216798 -0.485795 1
0.0875933 0.145302 -1.5214 -0.8171 0.225344 -0.53063 1
0.08724 0.145965 -1.52042 -0.791622 0.215023 -0.571926 1
0.0866489 0.146582 -1.51952 -0.764609 0.206631 -0.610472 1
0.0858943 0.14691 -1.5186 -0.766982 0.213444 -0.605128 0.01
0.0858997 0.147971 -1.51797 -0.771307 0.212409 -0.599973 1
0.0857096 0.149019 -1.51734 -0.774343 0.213421 -0.595688 1
0.0857789 0.150207 -1.51701 -0.778636 0.213926 -0.589882 1
0.0860028 0.151422 -1.51701 -0.796926 0.192568 -0.572562 1
0.0861456 0.152649 -1.51702 -0.817433 0.173317 -0.549331 1
0.0864703 0.153838 -1.51711 -0.838948 0.160688 -0.519948 1
0.0869572 0.154952 -1.51733 -0.856625 0.145646 -0.494955 1
0.0870977 0.156179 -1.51732 -0.867198 0.137713 -0.478542 1
0.0873696 0.157381 -1.51741 -0.87469 0.129618 -0.467029 1
0.0875544 0.158602 -1.5174 -0.879663 0.120731 -0.460018 1
0.0878357 0.159773 -1.51768 -0.882317 0.107885 -0.458125 1
0.0880108 0.16099 -1.51779 -0.878476 0.116452 -0.463377 1
0.0883749 0.162113 -1.51816 -0.873566 0.130022 -0.469016 1
0.0887811 0.163202 -1.51858 -0.869194 0.143538 -0.473179 1
0.0891358 0.164355 -1.51884 -0.866459 0.14922 -0.476427 1
0.0896056 0.165442 -1.51919 -0.861758 0.154864 -0.483105 1
0.0900454 0.166467 -1.51973 -0.857858 0.152573 -0.490715 1
0.0905323 0.167386 -1.52039 -0.855921 0.140988 -0.497516 1
0.0911395 0.168085 -1.52121 -0.853347 0.131348 -0.504526 1
0.0917347 0.168673 -1.52212 -0.854186 0.109167 -0.508378 1
0.092277 0.169614 -1.52271 -0.853708 0.0792431 -0.514688 0.01
0.0929292 0.16973 -1.52375 -0.852744 0.0869453 -0.515042 1
0.0935395 0.170094 -1.52476 -0.851314 0.093721 -0.516217 1
0.0941331 0.169921 -1.52583 -0.864393 0.121933 -0.487809 1
0.0948296 0.169573 -1.52679 -0.87455 0.138638 -0.464695 1
0.0951651 0.169018 -1.52784 -0.882697 0.146589 -0.446496 1
0.0954761 0.168386 -1.52886 -0.887103 0.141773 -0.439259 1
0.0958089 0.167567 -1.52972 -0.890136 0.128494 -0.437204 1
0.0962216 0.167012 -1.53074 -0.894404 0.114199 -0.432435 1
0.0965452 0.166356 -1.53174 -0.898849 0.103575 -0.425844 1
0.0969007 0.165709 -1.53273 -0.911426 0.10082 -0.398921 1
0.0972858 0.165183 -1.53378 -0.924388 0.0935171 -0.369812 1
0.0977098 0.164445 -1.53468 -0.932783 0.0846176 -0.350364 1
0.0980815 0.164013 -1.53577 -0.945208 0.0547517 -0.321846 1
0.0983613 0.163484 -1.53685 -0.951024 0.0251464 -0.308094 1
0.0986321 0.162962 -1.53794 -0.95644 -0.0028885 -0.291913 1
0.0988995 0.162479 -1.53905 -0.96193 -0.0319252 -0.271426 1
0.0991519 0.161978 -1.54015 -0.965604 -0.0588791 -0.253263 1
0.0994326 0.161372 -1.54119 -0.967101 -0.0719755 -0.243997 1
0.0998217 0.160422 -1.54187 -0.965873 -0.0519012 -0.253764 1
0.100109 0.159561 -1.54271 -0.966586 -0.040556 -0.253114 1
0.100193 0.158955 -1.54378 -0.969448 -0.0474196 -0.240669 1
0.100521 0.157863 -1.54426 -0.965648 -0.0273256 -0.258415 1
0.10077 0.156721 -1.54466 -0.95803 0.0267157 -0.28542 1
0.100852 0.155715 -1.54537 -0.951522 0.0796731 -0.297083 1
0.101123 0.155019 -1.54636 -0.950575 0.104092 -0.292528 1
0.101412 0.154364 -1.54736 -0.950934 0.122014 -0.284318 1
0.101473 0.153199 -1.54777 -0.933622 0.191171 -0.302993 1
0.101285 0.152112 -1.54833 -0.940563 0.163681 -0.297573 1
0.10127 0.151021 -1.54891 -0.947209 0.132852 -0.291797 1
0.101414 0.150052 -1.54966 -0.952911 0.107424 -0.283586 1
0.10148 0.149461 -1.55074 -0.957133 0.094793 -0.273698 1
0.101435 0.148226 -1.55071 -0.952298 0.111913 -0.283909 1
