# .PCD v0.7 - Point Cloud Data file format
# 4 92 0
# 1 3 0
# 4 18 0
# 19 59 0
# 60 92 0
VERSION 0.7
FIELDS x y z normal_x normal_y normal_z curvature
SIZE 4 4 4 4 4 4 4
TYPE F F F F F F F
COUNT 1 1 1 1 1 1 1
WIDTH 92
HEIGHT 1
VIEWPOINT 0 0 0 1 0 0 0
POINTS 92
DATA ascii
-0.0242113 0.0680811 -1.63514 0.122995 -0.945824 0.300481 0.01
-0.0241302 0.0671997 -1.63369 -0.0249428 -0.99887 -0.040458 1
-0.0240135 0.0672797 -1.63166 -0.103204 -0.977468 -0.184134 1
-0.023667 0.0672256 -1.62969 -0.139512 -0.966011 -0.217622 1
-0.0228607 0.0669031 -1.62785 -0.135401 -0.966538 -0.217877 1
-0.0220058 0.0666272 -1.62603 -0.110225 -0.983586 -0.142862 1
-0.020908 0.0665848 -1.62432 -0.036783 -0.998101 0.049401 1
-0.0198102 0.0665424 -1.6226 0.166536 -0.981151 0.0980202 1
-0.0211499 0.0663754 -1.62108 -0.00625076 -0.996601 0.0821487 1
-0.0224896 0.0662084 -1.61956 -0.04373 -0.998838 -0.020234 1
-0.0238792 0.0659627 -1.61809 -0.0977618 -0.984163 -0.147871 1
-0.0252786 0.0657012 -1.61663 -0.199836 -0.961013 -0.191101 1
-0.0253514 0.0656999 -1.61485 -0.265896 -0.946944 -0.180543 1
-0.0247609 0.0658288 -1.61291 -0.284649 -0.953175 -0.102142 1
-0.0240085 0.0659546 -1.61103 -0.260952 -0.96447 -0.0412588 1
-0.0230943 0.0660772 -1.60921 -0.119332 -0.99101 -0.0604977 1
-0.0228827 0.0662568 -1.60746 0.00114051 -0.992292 0.123918 1
-0.0240763 0.0665503 -1.60584 -0.0405508 -0.820913 0.569612 1
-0.0252867 0.0668468 -1.60423 0.640565 0.532431 -0.553348 1
-0.0265818 0.0671576 -1.60269 0.685921 0.487784 -0.53998 1
-0.0278769 0.0674684 -1.60115 0.538018 0.436128 -0.721339 1
-0.0279053 0.0684361 -1.59936 0.47032 0.486693 -0.736158 1
-0.0279337 0.0694039 -1.59757 0.414551 0.618995 -0.667078 1
-0.0279354 0.0711172 -1.59659 0.759209 0.546054 -0.354157 1
-0.0279318 0.0729797 -1.59576 0.830358 0.523325 -0.191407 1
-0.0279137 0.0748278 -1.59491 0.0656638 -0.427761 0.901504 1
-0.0278883 0.0766687 -1.59404 -0.149327 -0.527632 0.836245 1
-0.0279023 0.0784101 -1.59301 -0.263313 -0.602208 0.753666 1
-0.0279558 0.0800522 -1.59181 -0.33835 -0.640409 0.689489 1
-0.027952 0.0816428 -1.59054 0.723819 0.0979606 -0.683001 1
-0.0278338 0.0831307 -1.58916 0.715474 -0.231838 -0.659051 1
-0.0277161 0.0846644 -1.58784 -0.429143 -0.533124 0.729119 1
-0.0276011 0.0864267 -1.58682 -0.353018 -0.409814 0.841089 1
-0.027486 0.088189 -1.58581 0.230256 0.199239 0.952516 1
-0.0183041 0.103604 -1.58775 -0.392514 0.647611 -0.653095 1
-0.0180148 0.105543 -1.5883 -0.134045 -0.742771 -0.655991 1
-0.0177254 0.107482 -1.58885 -0.239106 -0.828687 -0.506069 0.01
-0.017411 0.109128 -1.58997 -0.253833 -0.711392 -0.655356 1
-0.0170916 0.110715 -1.59121 -0.21372 -0.616871 -0.757492 1
-0.0167649 0.112367 -1.59235 -0.200645 -0.540198 -0.817268 1
-0.0164345 0.11405 -1.59344 -0.223897 -0.449826 -0.864596 1
-0.0160941 0.1156 -1.5947 -0.306538 -0.383094 -0.871363 1
-0.0157438 0.117015 -1.59612 -0.460653 -0.404153 -0.790227 1
-0.0153919 0.118481 -1.59749 0.188905 -0.740105 0.645414 1
-0.0150371 0.120047 -1.59874 -0.489806 -0.62859 -0.604123 1
-0.0147568 0.121582 -1.60003 -0.440612 -0.620688 -0.648542 1
-0.0148495 0.122965 -1.60152 -0.366887 -0.581783 -0.725894 1
-0.0149422 0.124347 -1.60301 -0.297757 -0.446967 -0.843541 1
-0.0150751 0.125841 -1.60439 -0.306882 -0.265454 -0.913979 1
-0.015208 0.127335 -1.60577 -0.377829 -0.459924 -0.803564 1
-0.0166223 0.128419 -1.60649 -0.332313 -0.574803 -0.747776 1
-0.018293 0.129422 -1.60708 -0.169469 -0.533339 -0.828752 0.01
-0.0191485 0.129069 -1.60841 0.821323 0.014495 -0.57028 1
-0.0195965 0.128038 -1.6101 0.9868 -0.157806 0.0363599 1
-0.0200038 0.126932 -1.61176 0.955363 -0.230983 0.184194 1
-0.0203704 0.125751 -1.61338 0.925945 -0.293502 0.237659 1
-0.0206652 0.12451 -1.61496 0.895294 -0.37253 0.244272 1
-0.0208165 0.123151 -1.61647 0.842345 -0.50477 0.188842 1
-0.0210091 0.12173 -1.61789 0.880955 -0.414031 0.22912 1
-0.0214089 0.120003 -1.61889 0.909454 -0.336092 0.244819 1
-0.0218086 0.118276 -1.61989 0.898956 -0.297965 0.321085 1
-0.022167 0.116549 -1.62091 0.866204 -0.310684 0.391364 1
-0.0225253 0.114821 -1.62192 0.306366 -0.432337 0.848071 1
-0.0226461 0.113289 -1.62324 0.81574 -0.370202 0.44443 1
-0.0227194 0.111795 -1.62463 0.311758 -0.496557 0.810085 1
-0.022751 0.110182 -1.62586 0.779121 -0.398201 0.484157 1
-0.0227619 0.108509 -1.62702 0.769462 -0.381854 0.511972 1
-0.0227749 0.106819 -1.62815 0.223047 -0.699841 0.678581 1
-0.02279 0.10511 -1.62926 0.741144 -0.357512 0.568235 1
-0.0227678 0.103396 -1.63036 0.71894 -0.348967 0.601122 1
-0.0226712 0.101671 -1.63143 0.0851103 -0.412553 0.906949 1
-0.0223583 0.100017 -1.63245 0.0700618 -0.413302 0.907895 1
-0.0209646 0.098715 -1.63316 0.245922 -0.474416 0.845252 1
-0.0195708 0.0974131 -1.63387 0.278739 -0.309138 0.909252 1
-0.0177633 0.0964826 -1.63398 0.240228 0.71235 -0.65943 1
-0.0159557 0.0955521 -1.63409 0.376961 0.581598 -0.720863 1
-0.0156925 0.0941572 -1.63526 0.642427 0.0274569 -0.765855 1
-0.0157382 0.0926695 -1.63665 -0.442039 -0.0645201 0.894672 1
-0.0157405 0.0912777 -1.63813 -0.5431 -0.131246 0.829347 1
-0.015721 0.0899337 -1.63966 -0.621226 -0.215816 0.753327 1
-0.0158145 0.0882506 -1.64048 -0.657028 -0.218927 0.721377 1
-0.016021 0.0862283 -1.64059 -0.670939 -0.143658 0.727464 1
-0.016182 0.084202 -1.64068 -0.667725 -0.0749461 0.740626 1
-0.0162522 0.0821677 -1.64071 -0.665679 -0.0317695 0.745562 1
-0.016477 0.0802095 -1.64061 0.040944 0.410531 -0.910927 1
-0.0174743 0.0786317 -1.63979 -0.656443 0.138878 0.741482 1
-0.0184717 0.0770539 -1.63898 -0.644105 0.248691 0.723382 1
-0.0195278 0.0755172 -1.63816 -0.628396 0.358999 0.6901 1
-0.0205839 0.0739805 -1.63735 -0.628876 0.468246 0.620694 1
-0.0221165 0.072735 -1.63697 0.0179801 0.357929 -0.933576 1
-0.0237444 0.0715479 -1.63668 0.705957 -0.0635505 0.705398 1
-0.0242568 0.0699237 -1.636 0.181238 -0.932361 0.312819 1
