# .PCD v0.7 - Point Cloud Data file format
# 2 41 0
# 1 2 0
# 3 41 0
VERSION 0.7
FIELDS x y z normal_x normal_y normal_z curvature
SIZE 4 4 4 4 4 4 4
TYPE F F F F F F F
COUNT 1 1 1 1 1 1 1
WIDTH 41
HEIGHT 1
VIEWPOINT 0 0 0 1 0 0 0
POINTS 41
DATA ascii
-0.21093 -0.143614 -1.4172 0.498104 0.240347 -0.833142 0.01
-0.210398 -0.145293 -1.4162 0.444492 0.186232 -0.87621 1
-0.209881 -0.147172 -1.41545 0.4716 -0.602443 -0.643938 1
-0.209378 -0.149004 -1.41457 0.445494 -0.867135 -0.222738 1
-0.208921 -0.150988 -1.4141 -0.0354205 0.710087 0.703223 1
-0.208355 -0.152886 -1.41344 -0.0888391 0.553473 0.828116 1
-0.207817 -0.15477 -1.41317 -0.0956263 0.47319 0.875755 1
-0.207447 -0.156713 -1.41385 -0.0778995 0.437921 0.895632 1
-0.20717 -0.158632 -1.41464 0.222156 0.714407 -0.663529 1
-0.206916 -0.160422 -1.41567 0.189956 0.823671 -0.534306 1
-0.206684 -0.162121 -1.41687 0.107329 0.899588 -0.423345 1
-0.206472 -0.163767 -1.41814 0.0367132 0.931822 -0.361053 1
-0.206778 -0.164019 -1.42019 0.839963 0.542643 0.000986962 1
-0.206771 -0.164847 -1.42205 0.775103 0.629474 -0.0545739 1
-0.206794 -0.165675 -1.42391 0.770376 0.594392 -0.230691 1
-0.20719 -0.165932 -1.42595 0.808249 0.550018 -0.21027 1
-0.207137 -0.166911 -1.42779 0.845024 0.479595 -0.23648 1
-0.207065 -0.16796 -1.4296 0.860418 0.430317 -0.27296 1
-0.207036 -0.169029 -1.4314 0.863119 0.415986 -0.286324 1
-0.207108 -0.170067 -1.43321 0.860292 0.433353 -0.268521 1
-0.207164 -0.171186 -1.43498 0.87247 0.425587 -0.240151 1
-0.207212 -0.172282 -1.43676 0.895279 0.376938 -0.237472 1
-0.207268 -0.173162 -1.43863 0.913411 0.333079 -0.233961 1
-0.20735 -0.173636 -1.44066 0.928582 0.29503 -0.225152 1
-0.207445 -0.174406 -1.44261 0.938989 0.262197 -0.222602 1
-0.207521 -0.175034 -1.4446 0.948119 0.237932 -0.210853 1
-0.206965 -0.175262 -1.44626 0.962672 0.220862 -0.156468 1
-0.20516 -0.174836 -1.44723 0.0992909 0.991551 0.0834789 1
-0.203387 -0.174559 -1.44831 0.976283 0.208691 0.0576067 1
-0.202127 -0.174008 -1.4498 -0.368753 0.385433 0.84585 1
-0.201158 -0.173319 -1.45152 0.390669 -0.91761 -0.0732747 1
-0.200256 -0.172624 -1.45328 -0.408471 0.575906 0.708155 1
-0.199634 -0.171369 -1.45483 0.275013 -0.78169 -0.559758 1
-0.199646 -0.169995 -1.45634 -0.392197 0.604954 0.692973 1
-0.200072 -0.168714 -1.45791 -0.334278 0.608885 0.719387 1
-0.200692 -0.16774 -1.45965 0.147906 -0.528506 0.835946 1
-0.201365 -0.16634 -1.46106 0.175344 -0.573429 -0.800271 1
-0.202027 -0.16494 -1.46246 0.187963 -0.632669 -0.751266 1
-0.202634 -0.163666 -1.46398 0.10576 -0.63429 -0.765827 1
-0.203142 -0.162641 -1.46574 0.222316 -0.69811 -0.680601 1
-0.211477 -0.142384 -1.4188 -0.763845 -0.560208 0.320481 1
