# .PCD v0.7 - Point Cloud Data file format
# 3 30 0
# 1 8 0
# 9 28 0
# 29 30 0
VERSION 0.7
FIELDS x y z normal_x normal_y normal_z curvature
SIZE 4 4 4 4 4 4 4
TYPE F F F F F F F
COUNT 1 1 1 1 1 1 1
WIDTH 30
HEIGHT 1
VIEWPOINT 0 0 0 1 0 0 0
POINTS 30
DATA ascii
0.0468618 -0.09868 -1.63311 0.972668 -0.217776 0.0805621 0.01
0.0467981 -0.0989023 -1.63295 0.975406 -0.2089 0.0703197 1
0.0467344 -0.0991247 -1.6328 0.978064 -0.199634 0.0594681 1
0.046699 -0.096415 -1.63554 -0.851003 -0.491713 -0.184424 1
0.0467803 -0.096246 -1.63575 -0.0161071 0.99984 0.00778036 1
0.0468615 -0.096077 -1.63595 -0.665454 -0.670907 -0.327193 1
0.0469428 -0.095908 -1.63616 -0.670102 -0.667399 -0.324872 1
0.0470241 -0.095739 -1.63636 0.0353183 0.995984 0.0822761 1
0.0471054 -0.09557 -1.63657 -0.679198 -0.660229 -0.320606 1
0.0471867 -0.095401 -1.63677 0.059306 0.98439 0.165707 1
0.0472679 -0.095232 -1.63698 0.0601669 0.983563 0.170249 0.01
0.0472824 -0.0953549 -1.6369 0.0604277 0.983319 0.171559 1
0.0472747 -0.0955752 -1.63673 -0.6728 -0.665313 -0.323572 1
0.047267 -0.0957954 -1.63656 -0.663058 -0.672671 -0.328432 1
0.0472592 -0.0960157 -1.63639 -0.652929 -0.679768 -0.334065 1
0.0472515 -0.0962359 -1.63622 -0.873417 -0.442382 -0.20357 1
0.0472437 -0.0964562 -1.63605 -0.868192 -0.454266 -0.199714 1
0.047236 -0.0966764 -1.63588 -0.871235 -0.44795 -0.200725 1
0.0472296 -0.0968366 -1.63567 -0.780302 -0.606424 -0.152901 1
0.0472247 -0.0969368 -1.63541 -0.701996 -0.35194 -0.619144 1
0.0472197 -0.0970369 -1.63515 -0.605193 -0.69191 -0.393702 1
0.0472147 -0.0971371 -1.63489 -0.869057 -0.453363 -0.197997 1
0.0472098 -0.0972372 -1.63463 0.955287 -0.251809 0.15498 1
0.0472048 -0.0973374 -1.63437 0.957449 -0.248869 0.146135 1
0.0471998 -0.0974375 -1.63411 0.959645 -0.245711 0.136777 1
0.0471802 -0.0975682 -1.63388 0.961761 -0.24252 0.127281 1
0.0471165 -0.0977906 -1.63372 0.963561 -0.239796 0.118527 1
0.0470528 -0.0980129 -1.63357 0.965355 -0.236956 0.109278 1
0.0469892 -0.0982353 -1.63341 0.967106 -0.234038 0.0996576 1
0.0469255 -0.0984576 -1.63326 0.969838 -0.226421 0.0902673 1
