# .PCD v0.7 - Point Cloud Data file format
# 5 116 0
# 1 15 0
# 16 53 0
# 54 76 0
# 77 100 0
# 101 116 0
VERSION 0.7
FIELDS x y z normal_x normal_y normal_z curvature
SIZE 4 4 4 4 4 4 4
TYPE F F F F F F F
COUNT 1 1 1 1 1 1 1
WIDTH 116
HEIGHT 1
VIEWPOINT 0 0 0 1 0 0 0
POINTS 116
DATA ascii
0.266874 -0.0319803 -1.6718 -0.913365 0.204138 -0.352267 0.01
0.266519 -0.0332947 -1.67193 -0.913281 0.211851 -0.347903 1
0.266435 -0.0345564 -1.67245 -0.911258 0.228708 -0.342492 1
0.265804 -0.0353262 -1.67151 -0.912605 0.233148 -0.335848 1
0.265324 -0.0364252 -1.67085 -0.913844 0.240562 -0.327137 1
0.264747 -0.0375879 -1.67042 -0.915907 0.246956 -0.316428 1
0.264203 -0.0388332 -1.67026 -0.91957 0.24674 -0.305795 1
0.26402 -0.0401866 -1.67019 -0.924989 0.233814 -0.299544 1
0.263735 -0.0415229 -1.67012 -0.930476 0.222224 -0.291257 1
0.26349 -0.0428557 -1.67031 -0.933552 0.214513 -0.287168 1
0.263264 -0.0441839 -1.67054 -0.934779 0.210056 -0.28647 0.897953
0.262896 -0.0454998 -1.6706 -0.934393 0.212661 -0.285807 1
0.262721 -0.0468565 -1.67059 -0.933009 0.217478 -0.286702 1
0.262421 -0.0480167 -1.67125 -0.929722 0.220988 -0.294587 1
0.26229 -0.049358 -1.67149 -0.927311 0.225432 -0.298788 1
0.261975 -0.0506784 -1.67166 -0.925288 0.229466 -0.301971 1
0.261624 -0.051962 -1.67134 -0.925931 0.231244 -0.298626 1
0.26151 -0.0522049 -1.67098 -0.927308 0.231796 -0.293888 0.470624
0.261229 -0.053507 -1.67129 -0.926201 0.230656 -0.298245 1
0.260872 -0.0548104 -1.67108 -0.927468 0.229015 -0.295561 1
0.260542 -0.0561378 -1.67111 -0.928005 0.2264 -0.295888 1
0.260181 -0.057449 -1.67096 -0.928908 0.226374 -0.293062 1
0.259857 -0.0587196 -1.67135 -0.928924 0.226988 -0.292534 1
0.259467 -0.0597544 -1.67054 -0.932103 0.223009 -0.285395 1
0.25916 -0.0610254 -1.67014 -0.935221 0.216204 -0.280387 1
0.258804 -0.0622962 -1.6705 -0.9385 0.207989 -0.275607 1
0.258475 -0.0635797 -1.67084 -0.935203 0.27395 -0.224382 1
0.257946 -0.064838 -1.67093 -0.922419 0.344805 -0.173935 1
0.257576 -0.0661373 -1.67114 -0.903974 0.405841 -0.134626 1
0.257002 -0.0673787 -1.67114 -0.885453 0.452131 -0.107477 1
0.256349 -0.0682801 -1.67034 -0.877841 0.469264 -0.0958462 1
0.255582 -0.0691985 -1.66968 -0.872015 0.482854 -0.0802617 0.01
0.255535 -0.0693192 -1.66832 -0.884163 0.455502 -0.103792 1
0.255528 -0.0691547 -1.66696 -0.895904 0.422556 -0.13712 1
0.255079 -0.0695359 -1.66573 -0.902436 0.404815 -0.147426 1
0.254625 -0.0699939 -1.66452 -0.907614 0.391269 -0.152135 1
0.254135 -0.070477 -1.66334 -0.911795 0.380544 -0.154325 1
0.254107 -0.0707632 -1.662 -0.916482 0.366477 -0.160483 1
0.253504 -0.0714317 -1.66097 -0.918399 0.363069 -0.157241 1
0.253323 -0.0717732 -1.65966 -0.916338 0.35988 -0.175532 1
0.253179 -0.0714011 -1.65835 -0.91621 0.349567 -0.195861 1
0.253188 -0.0707274 -1.65716 -0.918029 0.334843 -0.212372 1
0.25321 -0.0699949 -1.656 -0.921655 0.317143 -0.223544 1
0.252815 -0.0700631 -1.65469 -0.918118 0.323057 -0.229549 1
0.25237 -0.0701053 -1.6534 -0.913412 0.335726 -0.230147 1
0.251888 -0.070017 -1.65212 -0.910833 0.348437 -0.221304 1
0.251962 -0.06953 -1.65085 -0.912931 0.349091 -0.211408 1
0.252221 -0.0687771 -1.64974 -0.919591 0.33214 -0.209845 1
0.25194 -0.0687426 -1.6484 -0.915932 0.337037 -0.217887 1
0.251745 -0.0682663 -1.64713 -0.916012 0.330163 -0.227848 1
0.251354 -0.0684344 -1.64583 -0.909951 0.338042 -0.240244 1
0.250867 -0.0683997 -1.64455 -0.908303 0.339806 -0.243961 1
0.250575 -0.0679894 -1.64328 -0.908709 0.337349 -0.245852 0.706788
0.250203 -0.067619 -1.64202 -0.908108 0.339054 -0.245727 1
0.250032 -0.0673618 -1.64068 -0.906619 0.344449 -0.243714 1
0.249661 -0.067267 -1.63937 -0.904356 0.350219 -0.2439 1
0.249603 -0.0672212 -1.63801 -0.908406 0.346559 -0.233868 1
0.249641 -0.0665927 -1.63679 -0.91612 0.329552 -0.228297 1
0.249599 -0.0658606 -1.63564 -0.921798 0.313407 -0.228176 1
0.249555 -0.0650785 -1.63451 -0.92598 0.298149 -0.231663 1
0.249558 -0.0641318 -1.63353 -0.929217 0.282615 -0.238085 1
0.249831 -0.0629002 -1.633 -0.930498 0.273558 -0.243595 1
0.250032 -0.0616551 -1.63247 -0.930544 0.266294 -0.251347 1
0.250159 -0.0605351 -1.63169 -0.928568 0.259536 -0.265336 1
0.250129 -0.0595975 -1.6307 -0.923471 0.251195 -0.290003 1
0.250262 -0.0583871 -1.63007 -0.916851 0.243957 -0.316021 1
0.250309 -0.0572891 -1.62926 -0.905728 0.233265 -0.353898 1
0.250259 -0.0562214 -1.62841 -0.888882 0.218836 -0.402491 1
0.249487 -0.0554658 -1.62757 -0.863013 0.194144 -0.466387 1
0.248666 -0.0546549 -1.62683 -0.82709 0.163249 -0.537839 0.01
0.249706 -0.0537664 -1.62685 -0.829352 0.188608 -0.525929 1
0.250102 -0.052476 -1.62707 -0.829445 0.203383 -0.520247 1
0.250479 -0.0511967 -1.62738 -0.837818 0.208267 -0.504664 1
0.251338 -0.050873 -1.62839 -0.876756 0.210631 -0.432358 1
0.25207 -0.0500512 -1.62921 -0.910372 0.202828 -0.36067 1
0.25241 -0.0487845 -1.62959 -0.929752 0.188065 -0.316532 1
0.252776 -0.0476143 -1.6302 -0.954866 0.172551 -0.24178 1
0.253097 -0.0463332 -1.63056 -0.962099 0.16745 -0.215233 1
0.253453 -0.0450999 -1.63103 -0.957571 0.170727 -0.232184 1
0.253752 -0.0439012 -1.63162 -0.953452 0.1725 -0.247332 1
0.254226 -0.0428941 -1.63241 -0.949846 0.17384 -0.259946 1
0.25467 -0.041824 -1.63314 -0.947469 0.169339 -0.271341 1
0.25501 -0.0406744 -1.6338 -0.946664 0.157602 -0.281051 1
0.255444 -0.0394609 -1.63426 -0.947288 0.16402 -0.275214 1
0.255701 -0.0384421 -1.63513 -0.949926 0.177461 -0.257192 1
0.256361 -0.0375649 -1.63595 -0.952054 0.189262 -0.24036 1
0.25668 -0.036673 -1.63694 -0.953528 0.200989 -0.224472 1
0.257019 -0.035771 -1.63791 -0.953569 0.217939 -0.207868 1
0.257156 -0.0344106 -1.63786 -0.944293 0.269609 -0.188739 1
0.25766 -0.0334707 -1.63872 -0.936775 0.302036 -0.176713 1
0.258443 -0.0327149 -1.63955 -0.92481 0.338363 -0.173888 1
0.258899 -0.031841 -1.6405 -0.911111 0.375264 -0.170449 1
0.259352 -0.0309595 -1.64144 -0.896859 0.409734 -0.166618 0.01
0.259463 -0.0307569 -1.64279 -0.895615 0.41248 -0.166537 1
0.259787 -0.0312022 -1.64404 -0.902462 0.395997 -0.169556 1
0.259899 -0.0315464 -1.64536 -0.908739 0.378456 -0.175967 1
0.26006 -0.031709 -1.64671 -0.911226 0.367662 -0.18572 1
0.260477 -0.0315557 -1.648 -0.90658 0.373396 -0.196691 1
0.260892 -0.0313028 -1.64928 -0.900272 0.381391 -0.209883 1
0.261458 -0.0309098 -1.65046 -0.891763 0.393239 -0.223877 1
0.261654 -0.0313229 -1.65175 -0.90227 0.369375 -0.22242 1
0.261891 -0.030873 -1.65302 -0.906585 0.367161 -0.208077 1
0.261994 -0.0310942 -1.65437 -0.915344 0.348517 -0.201699 1
0.262392 -0.0314261 -1.65563 -0.923676 0.328389 -0.197441 1
0.262696 -0.031386 -1.65697 -0.93013 0.312582 -0.192746 1
0.262938 -0.0313252 -1.65831 -0.93311 0.298465 -0.200561 1
0.26311 -0.0315636 -1.65965 -0.934417 0.281427 -0.218323 1
0.263397 -0.0316988 -1.66098 -0.933874 0.269336 -0.23524 1
0.263465 -0.0323175 -1.6622 -0.935081 0.246988 -0.254207 1
0.263792 -0.0329105 -1.66339 -0.934432 0.228312 -0.273333 1
0.264053 -0.0323985 -1.66463 -0.928496 0.233724 -0.288564 1
0.264199 -0.0316215 -1.66574 -0.92277 0.24312 -0.298979 1
0.264975 -0.0314241 -1.66685 -0.919517 0.240339 -0.311008 1
0.2655 -0.0312293 -1.6681 -0.91724 0.23447 -0.322016 1
0.265918 -0.0310867 -1.6694 -0.915517 0.226938 -0.332157 1
0.266381 -0.0314896 -1.67062 -0.914261 0.214541 -0.343655 1
