# .PCD v0.7 - Point Cloud Data file format
# 3 30 0
# 1 5 0
# 6 29 0
# 30 30 0
VERSION 0.7
FIELDS x y z normal_x normal_y normal_z curvature
SIZE 4 4 4 4 4 4 4
TYPE F F F F F F F
COUNT 1 1 1 1 1 1 1
WIDTH 30
HEIGHT 1
VIEWPOINT 0 0 0 1 0 0 0
POINTS 30
DATA ascii
-0.20393 -0.0950221 -1.63071 0.305338 -0.322408 0.896003 0.01
-0.204433 -0.09605 -1.63019 0.29873 -0.329687 0.895582 1
-0.2035 -0.073051 -1.63811 0.706545 -0.621522 -0.338384 1
-0.203587 -0.073513 -1.63701 0.677002 -0.639023 -0.365127 1
-0.203593 -0.0735003 -1.6373 0.686985 -0.63384 -0.355385 1
-0.203395 -0.0728304 -1.63838 0.709395 -0.619071 -0.336912 1
-0.203197 -0.0721605 -1.63946 0.731623 -0.603369 -0.31729 0.01
-0.202959 -0.0716857 -1.64034 0.749021 -0.590395 -0.300667 1
-0.202428 -0.0726622 -1.63969 0.72447 -0.607571 -0.325578 1
-0.201898 -0.0736387 -1.63903 0.69789 -0.624305 -0.350988 1
-0.201367 -0.0746152 -1.63838 0.669127 -0.640061 -0.377611 1
-0.200836 -0.0755918 -1.63772 0.638016 -0.654043 -0.406402 1
-0.200305 -0.0765683 -1.63707 0.604773 -0.664954 -0.438276 1
-0.199775 -0.0775448 -1.63642 0.569471 -0.670986 -0.474849 1
-0.199244 -0.0785213 -1.63576 0.531868 -0.669148 -0.518997 1
-0.198713 -0.0794978 -1.63511 0.428637 0.792982 0.432955 1
-0.198182 -0.0804743 -1.63445 0.437732 0.763268 0.475198 1
-0.197672 -0.0814295 -1.63378 0.454506 0.720742 0.523407 1
-0.19778 -0.0818696 -1.63263 0.434294 0.675152 0.596286 1
-0.198285 -0.0829764 -1.6322 0.414712 0.620962 0.665146 1
-0.198791 -0.0840832 -1.63177 0.390006 0.547498 0.740366 1
-0.199055 -0.0848211 -1.63081 0.359513 0.456652 0.813769 1
-0.199481 -0.0857912 -1.63032 0.330207 0.356906 0.873832 1
-0.200035 -0.0869479 -1.63018 0.300241 0.237327 0.923867 1
-0.200589 -0.0881046 -1.63005 0.270361 0.105912 0.956916 1
-0.201145 -0.0892581 -1.63 0.244013 -0.0215985 0.969532 1
-0.201708 -0.0904044 -1.63019 0.223485 -0.134493 0.965384 1
-0.202271 -0.0915508 -1.63037 0.245999 -0.190674 0.95033 1
-0.202834 -0.0926971 -1.63055 0.272123 -0.243134 0.93104 1
-0.203397 -0.0938488 -1.63067 0.291364 -0.288264 0.912146 1
