# .PCD v0.7 - Point Cloud Data file format
# 6 162 0
# 1 15 0
# 16 63 0
# 64 89 0
# 90 117 0
# 118 157 0
# 158 162 0
VERSION 0.7
FIELDS x y z normal_x normal_y normal_z curvature
SIZE 4 4 4 4 4 4 4
TYPE F F F F F F F
COUNT 1 1 1 1 1 1 1
WIDTH 162
HEIGHT 1
VIEWPOINT 0 0 0 1 0 0 0
POINTS 162
DATA ascii
-0.175724 0.11895 -1.40564 -0.971074 0.126183 0.202715 0.01
-0.175589 0.117878 -1.40449 -0.969732 0.121837 0.211604 1
-0.17548 0.116748 -1.40339 -0.96761 0.120548 0.22181 1
-0.175402 0.11572 -1.4022 -0.965975 0.121101 0.228532 1
-0.175612 0.11439 -1.40138 -0.962836 0.136408 0.233109 1
-0.175321 0.113822 -1.39993 -0.963815 0.136553 0.228942 1
-0.174384 0.112091 -1.39617 -0.964038 0.146135 0.221982 1
-0.174415 0.110755 -1.39533 -0.958883 0.172152 0.225626 1
-0.174755 0.109452 -1.39451 -0.953025 0.196584 0.230432 1
-0.174929 0.10833 -1.39341 -0.948575 0.212242 0.234859 1
-0.174528 0.108192 -1.39189 -0.950801 0.204252 0.232936 0.8375
-0.174599 0.107163 -1.3907 -0.948064 0.211852 0.237261 1
-0.174287 0.106395 -1.38936 -0.948247 0.209048 0.239011 1
-0.174186 0.105371 -1.38816 -0.947679 0.205515 0.24427 1
-0.174376 0.103978 -1.38745 -0.945051 0.202731 0.256472 1
-0.174209 0.102773 -1.38644 -0.945556 0.193512 0.261682 1
-0.173937 0.101564 -1.38546 -0.946508 0.185066 0.264335 1
-0.173803 0.100486 -1.38432 -0.948275 0.179045 0.26214 1
-0.173669 0.0997015 -1.38296 -0.950607 0.178529 0.253917 1
-0.173214 0.099767 -1.38145 -0.952383 0.181287 0.245155 1
-0.172854 0.0994355 -1.37995 -0.951915 0.189659 0.240596 0.01
-0.172453 0.0995872 -1.37843 -0.952029 0.192496 0.237877 1
-0.17214 0.101116 -1.3782 -0.953794 0.179195 0.241178 1
-0.17184 0.102645 -1.37795 -0.955592 0.165783 0.24364 1
-0.171371 0.103446 -1.37667 -0.957529 0.16008 0.239819 1
-0.170984 0.103996 -1.37524 -0.959558 0.156009 0.234328 1
-0.170577 0.10507 -1.37416 -0.962234 0.144948 0.230424 1
-0.170177 0.106541 -1.37375 -0.965161 0.127642 0.22841 1
-0.169722 0.107628 -1.3727 -0.967774 0.115276 0.223885 1
-0.169495 0.109156 -1.37238 -0.968434 0.109285 0.224039 1
-0.169131 0.109723 -1.37095 -0.968737 0.108149 0.223274 0.599078
-0.168752 0.110391 -1.36958 -0.968492 0.1075 0.224647 1
-0.168464 0.111779 -1.36888 -0.968089 0.102112 0.228861 1
-0.16813 0.112952 -1.36788 -0.967083 0.098505 0.234622 1
-0.167822 0.11445 -1.3675 -0.966307 0.0911295 0.240721 1
-0.16763 0.115996 -1.36725 -0.96471 0.0878805 0.248218 1
-0.16744 0.117405 -1.36656 -0.95959 0.101882 0.262309 1
-0.167378 0.118672 -1.36562 -0.953856 0.115972 0.276965 1
-0.166837 0.120153 -1.36557 -0.949181 0.127019 0.287962 1
-0.166354 0.12154 -1.36499 -0.942966 0.140377 0.301844 1
-0.165822 0.122687 -1.36404 -0.93562 0.154159 0.317568 1
-0.16531 0.123993 -1.36332 -0.928178 0.167358 0.332382 1
-0.164791 0.125181 -1.36242 -0.91857 0.184825 0.349383 1
-0.164363 0.126665 -1.3621 -0.909204 0.205191 0.362276 1
-0.163938 0.128165 -1.36186 -0.899895 0.226106 0.372913 1
-0.163525 0.129687 -1.36187 -0.891322 0.247075 0.38013 1
-0.162836 0.131001 -1.36133 -0.880406 0.269008 0.390538 1
-0.162202 0.132362 -1.36085 -0.869603 0.291079 0.398828 1
-0.161558 0.133661 -1.36023 -0.858742 0.312428 0.406142 1
-0.160866 0.135001 -1.35976 -0.8599 0.31064 0.405062 1
-0.160143 0.136307 -1.35925 -0.863497 0.30273 0.403394 1
-0.159415 0.137517 -1.35855 -0.866367 0.294313 0.403471 1
-0.158678 0.138619 -1.35769 -0.868367 0.285879 0.405231 1
-0.157903 0.139668 -1.3568 -0.869631 0.27761 0.408258 1
-0.157128 0.140641 -1.35583 -0.869877 0.269784 0.412953 1
-0.156334 0.141622 -1.35489 -0.868097 0.260578 0.422501 1
-0.155527 0.142634 -1.35398 -0.850188 0.275415 0.448695 1
-0.154747 0.143753 -1.35319 -0.833261 0.298492 0.465381 1
-0.153952 0.144927 -1.3525 -0.819989 0.322771 0.472691 1
-0.15319 0.144954 -1.35112 -0.81306 0.315112 0.489529 1
-0.152216 0.145823 -1.35023 -0.809317 0.327386 0.487672 1
-0.151336 0.146351 -1.34903 -0.8126 0.32488 0.483874 1
-0.150456 0.147237 -1.34807 -0.821644 0.328771 0.465629 1
-0.149656 0.14768 -1.34678 -0.840025 0.309403 0.445676 1
-0.14889 0.14796 -1.34543 -0.867173 0.271052 0.417783 1
-0.148112 0.149219 -1.34489 -0.922571 0.189275 0.33621 1
-0.14763 0.150283 -1.34382 -0.967098 0.0763905 0.242664 1
-0.147368 0.151732 -1.34326 -0.990357 -0.0372742 0.133428 1
-0.147681 0.153135 -1.34261 -0.986723 -0.160834 0.0225925 0.01
-0.148142 0.154569 -1.34214 -0.956605 -0.280335 -0.0794913 1
-0.148538 0.156023 -1.34261 -0.931259 -0.336198 -0.140453 1
-0.148782 0.157286 -1.34352 -0.919653 -0.351122 -0.175928 1
-0.149008 0.158525 -1.34447 -0.906649 -0.364187 -0.212967 1
-0.149402 0.159822 -1.34528 -0.887549 -0.383711 -0.254994 1
-0.14974 0.161064 -1.34619 -0.869799 -0.394705 -0.29607 1
-0.14946 0.161731 -1.34759 -0.871702 -0.366878 -0.324863 1
-0.149597 0.162934 -1.34861 -0.851837 -0.368646 -0.372121 1
-0.149416 0.163853 -1.34987 -0.850386 -0.365986 -0.37802 1
-0.149778 0.165126 -1.35073 -0.835594 -0.398246 -0.378394 1
-0.150222 0.166351 -1.35162 -0.82102 -0.425956 -0.380116 1
-0.150033 0.167319 -1.35286 -0.824525 -0.430257 -0.367474 1
-0.150013 0.16836 -1.35404 -0.823969 -0.43584 -0.362102 1
-0.149912 0.169286 -1.35532 -0.828332 -0.432656 -0.355914 1
-0.149685 0.1701 -1.35665 -0.83899 -0.422401 -0.343036 1
-0.149593 0.171038 -1.35791 -0.844637 -0.415723 -0.337288 1
-0.149747 0.172193 -1.35898 -0.838888 -0.419002 -0.347425 1
-0.149585 0.173159 -1.36021 -0.845329 -0.404273 -0.349261 1
-0.149192 0.173734 -1.36163 -0.867112 -0.366759 -0.337053 1
-0.149641 0.174959 -1.36252 -0.851554 -0.368375 -0.373036 1
-0.149671 0.176019 -1.36369 -0.853492 -0.347832 -0.388027 1
-0.149423 0.176895 -1.36497 -0.869007 -0.308791 -0.386619 1
-0.14915 0.177719 -1.36629 -0.888331 -0.25649 -0.380895 1
-0.14875 0.178412 -1.36765 -0.914825 -0.184967 -0.359001 1
-0.148328 0.178877 -1.3691 -0.948053 -0.0899166 -0.305141 1
-0.147894 0.178575 -1.37059 -0.985822 0.0360593 -0.163874 0.01
-0.147641 0.177137 -1.37118 -0.992856 0.119164 0.00599057 1
-0.148089 0.176378 -1.37249 -0.954461 0.23906 0.17848 1
-0.148811 0.175937 -1.37382 -0.891652 0.33569 0.303759 1
-0.149469 0.175444 -1.37517 -0.826294 0.404816 0.391615 1
-0.150242 0.175025 -1.37648 -0.770204 0.452632 0.449344 1
-0.151247 0.174559 -1.3776 -0.722737 0.489193 0.488203 1
-0.152264 0.173881 -1.3786 -0.682755 0.521812 0.511427 1
-0.152993 0.174057 -1.37999 -0.666378 0.529275 0.525175 1
-0.153787 0.174782 -1.38114 -0.662734 0.522623 0.53633 1
-0.154735 0.173632 -1.38167 -0.651535 0.543789 0.528957 1
-0.155884 0.173009 -1.38255 -0.686315 0.521444 0.507019 1
-0.157098 0.173054 -1.38356 -0.715104 0.503694 0.484683 1
-0.158059 0.17291 -1.3848 -0.742779 0.485285 0.461279 1
-0.158704 0.173039 -1.38623 -0.763202 0.47274 0.440499 1
-0.159255 0.173538 -1.38762 -0.776695 0.466463 0.423269 1
-0.159765 0.174061 -1.38902 -0.788284 0.461621 0.406835 1
-0.160201 0.174346 -1.39051 -0.800222 0.455687 0.389865 1
-0.160584 0.174809 -1.39197 -0.808935 0.453232 0.374438 1
-0.160947 0.175323 -1.39342 -0.816348 0.452523 0.358885 1
-0.161267 0.17591 -1.39485 -0.822508 0.453577 0.343146 1
-0.161637 0.176498 -1.39626 -0.828197 0.455567 0.326417 1
-0.161977 0.176863 -1.39776 -0.833457 0.456907 0.310781 1
-0.162385 0.177028 -1.39928 -0.835166 0.440058 0.32992 1
-0.162714 0.177411 -1.40077 -0.836016 0.424594 0.347559 1
-0.163006 0.177817 -1.40227 -0.836899 0.410036 0.362587 1
-0.16359 0.177176 -1.40359 -0.839204 0.402222 0.365998 1
-0.164421 0.177223 -1.40493 -0.841502 0.390982 0.372838 1
-0.165216 0.1774 -1.40628 -0.844564 0.378663 0.378583 0.01
-0.166093 0.176409 -1.40714 -0.848756 0.376794 0.370998 1
-0.166899 0.175137 -1.40761 -0.857502 0.370284 0.357185 1
-0.167549 0.173704 -1.40772 -0.871658 0.351365 0.341694 1
-0.167849 0.172185 -1.40742 -0.883628 0.333363 0.32874 1
-0.168062 0.170684 -1.40698 -0.895068 0.31359 0.317041 1
-0.168746 0.169313 -1.40735 -0.907858 0.2847 0.307799 1
-0.169051 0.167765 -1.4073 -0.919245 0.257316 0.297955 1
-0.169549 0.16627 -1.40738 -0.929762 0.227921 0.289128 1
-0.169584 0.164752 -1.40695 -0.933772 0.218387 0.283509 1
-0.170266 0.163373 -1.4073 -0.935396 0.211701 0.283225 1
-0.170395 0.161827 -1.40702 -0.937905 0.209062 0.276816 1
-0.170792 0.1603 -1.40705 -0.939966 0.207001 0.27132 1
-0.171595 0.159001 -1.40745 -0.94154 0.204041 0.268084 1
-0.171449 0.157529 -1.4069 -0.943722 0.208352 0.256864 1
-0.171813 0.155994 -1.40688 -0.945678 0.210691 0.247592 1
-0.171839 0.154547 -1.40625 -0.947792 0.216475 0.234158 1
-0.172092 0.152989 -1.40623 -0.954174 0.198185 0.224221 1
-0.172455 0.15155 -1.40676 -0.961552 0.176278 0.210578 1
-0.172734 0.150047 -1.40716 -0.968085 0.153652 0.197996 1
-0.173085 0.148583 -1.40763 -0.974108 0.129789 0.185117 1
-0.173367 0.147086 -1.40804 -0.979337 0.105132 0.172759 1
-0.173639 0.145629 -1.40858 -0.983878 0.0794563 0.16022 1
-0.173664 0.144093 -1.40822 -0.985907 0.0643041 0.15444 1
-0.173811 0.142529 -1.40808 -0.985411 0.0672653 0.156335 1
-0.17395 0.140959 -1.40816 -0.984971 0.0709041 0.157498 1
-0.174115 0.139405 -1.40838 -0.984538 0.0747559 0.158419 1
-0.174117 0.137827 -1.40838 -0.984253 0.0787444 0.15826 1
-0.174242 0.13627 -1.40816 -0.984156 0.0829635 0.156697 1
-0.174251 0.134876 -1.40742 -0.984465 0.087536 0.152206 1
-0.174345 0.133438 -1.40678 -0.984779 0.0925321 0.147132 1
-0.174392 0.132043 -1.40604 -0.985031 0.0987823 0.141268 1
-0.17451 0.130601 -1.40541 -0.984415 0.106082 0.140266 1
-0.174528 0.12918 -1.40473 -0.983486 0.11017 0.143589 1
-0.174656 0.127699 -1.4042 -0.982706 0.113017 0.146683 1
-0.174749 0.126146 -1.40393 -0.982042 0.114167 0.150197 1
-0.175163 0.12481 -1.40467 -0.980977 0.116493 0.155284 1
-0.175396 0.123371 -1.40527 -0.979591 0.117675 0.162955 1
-0.175662 0.122006 -1.40601 -0.977671 0.119288 0.173002 1
-0.175724 0.120437 -1.40617 -0.974397 0.122785 0.188346 1
