# .PCD v0.7 - Point Cloud Data file format
# 2 30 0
# 1 5 0
# 6 30 0
VERSION 0.7
FIELDS x y z normal_x normal_y normal_z curvature
SIZE 4 4 4 4 4 4 4
TYPE F F F F F F F
COUNT 1 1 1 1 1 1 1
WIDTH 30
HEIGHT 1
VIEWPOINT 0 0 0 1 0 0 0
POINTS 30
DATA ascii
-0.024751 0.0577927 -1.37126 -0.2269 -0.741408 -0.63153 0.01
-0.0246097 0.0568037 -1.37014 -0.232869 -0.720049 -0.653683 1
-0.0245805 0.0556535 -1.3692 -0.24549 -0.702039 -0.668487 1
-0.0246384 0.0543778 -1.3684 -0.26255 -0.68541 -0.679176 1
-0.0245337 0.0533757 -1.36732 -0.283596 -0.668041 -0.687964 1
-0.0243749 0.0524648 -1.36613 -0.307125 -0.650109 -0.695006 1
-0.0241881 0.0515247 -1.36497 -0.332387 -0.633555 -0.698661 1
-0.0240092 0.0505635 -1.36383 -0.355302 -0.633021 -0.687782 1
-0.0238993 0.0494684 -1.3628 -0.373278 -0.636053 -0.675351 1
-0.0237995 0.0483608 -1.36179 0.82708 -0.180702 0.532246 1
-0.0237221 0.0472257 -1.36081 0.834442 -0.187133 0.518352 1
-0.023587 0.046199 -1.35973 -0.335245 -0.748655 -0.57195 1
-0.0233944 0.0452807 -1.35855 -0.270992 -0.826175 -0.493961 1
-0.0233733 0.0441269 -1.35762 0.214415 0.773419 -0.596531 1
-0.0234301 0.0428661 -1.3568 -0.210275 -0.85078 -0.481619 1
-0.0234301 0.0416426 -1.35593 0.66359 0.646705 -0.376059 1
-0.0234199 0.0404322 -1.35504 0.57165 0.233162 0.786671 1
-0.0233785 0.0393359 -1.35401 0.60675 0.211573 0.766219 1
-0.0235185 0.0382687 -1.35301 -0.146868 -0.856203 -0.495324 1
-0.0242031 0.0372889 -1.35209 -0.132349 -0.84913 -0.511333 1
-0.0249915 0.0365481 -1.3511 -0.115534 -0.834455 -0.538829 1
-0.0259134 0.0361145 -1.34999 0.564154 0.322426 0.760113 1
-0.0268768 0.0357228 -1.3489 0.53926 0.400447 0.740837 1
-0.027865 0.0353563 -1.34783 0.526931 0.470585 0.707738 1
-0.0290225 0.0353792 -1.34689 -0.0529503 -0.731774 -0.679488 1
-0.030219 0.035492 -1.34599 -0.0271433 -0.719089 -0.694387 1
-0.0261292 0.0595018 -1.37677 0.649514 0.666727 0.365521 1
-0.0258278 0.0589899 -1.37539 0.658997 0.672639 0.336569 1
-0.0255023 0.0585316 -1.374 -0.247281 -0.913834 -0.322117 1
-0.0250726 0.0583051 -1.37258 -0.235439 -0.809887 -0.537262 1
