# .PCD v0.7 - Point Cloud Data file format
# 2 45 0
# 1 10 0
# 11 45 0
VERSION 0.7
FIELDS x y z normal_x normal_y normal_z curvature
SIZE 4 4 4 4 4 4 4
TYPE F F F F F F F
COUNT 1 1 1 1 1 1 1
WIDTH 45
HEIGHT 1
VIEWPOINT 0 0 0 1 0 0 0
POINTS 45
DATA ascii
-0.18472 0.141653 -1.66161 -0.942707 -0.236621 0.235189 0.01
-0.210936 0.175378 -1.62403 -0.00411641 0.106838 0.994268 1
-0.211037 0.173815 -1.62271 -0.137416 0.119861 0.983235 1
-0.211195 0.17225 -1.62141 -0.0995718 0.0341807 0.994443 1
-0.21148 0.170678 -1.62013 -0.0316636 -0.012435 0.999421 1
-0.211817 0.16907 -1.61891 0.11502 0.00376982 0.993356 1
-0.212184 0.16744 -1.61773 0.124017 0.0215327 0.992046 1
-0.212572 0.165784 -1.6166 0.131067 0.0490367 0.99016 1
-0.212961 0.164101 -1.6155 0.131313 0.0984544 0.98644 1
-0.213348 0.162334 -1.61455 0.179527 0.19821 0.963578 1
-0.212431 0.161493 -1.61399 0.628502 0.0663834 0.77497 0.01
-0.210397 0.161446 -1.61378 -0.247773 -0.0672926 0.966478 1
-0.208384 0.161728 -1.6136 -0.277852 0.0383269 0.959859 1
-0.206405 0.162147 -1.61351 -0.10162 0.0596166 0.993035 1
-0.204592 0.162995 -1.61393 0.0989394 0.0409097 0.994252 1
-0.203071 0.164092 -1.61459 0.268937 -0.0183048 0.962984 1
-0.201893 0.16548 -1.61552 0.360418 -0.0939357 0.928049 1
-0.200593 0.166734 -1.61647 -0.176819 -0.978689 0.104421 1
-0.199313 0.167817 -1.61751 0.283841 0.71973 0.633579 1
-0.198732 0.167324 -1.6194 0.283841 0.71973 0.633579 1
-0.19807 0.166839 -1.62128 0.156622 0.796872 -0.583494 1
-0.197279 0.166369 -1.6231 -0.166424 0.973296 -0.158108 1
-0.196206 0.166305 -1.62481 0.831819 -0.542548 0.117127 1
-0.195006 0.166422 -1.62646 0.429328 -0.562752 0.706391 1
-0.19446 0.165582 -1.62825 -0.0171974 -0.979217 0.202085 1
-0.193969 0.164679 -1.63001 0.363253 -0.891642 0.270226 1
-0.193602 0.163634 -1.63173 0.635953 -0.692205 0.341198 1
-0.193056 0.162708 -1.63346 0.748783 -0.553506 0.364631 1
-0.192397 0.161856 -1.6352 0.78637 -0.485681 0.381754 1
-0.192697 0.160539 -1.63671 -0.984521 -0.0617561 -0.164029 1
-0.192933 0.159222 -1.63823 0.774817 -0.481827 0.40927 1
-0.192692 0.158036 -1.63988 0.745793 -0.509317 0.429406 1
-0.19254 0.156785 -1.64148 -0.983905 -0.11495 -0.13681 1
-0.192465 0.155478 -1.64306 -0.963181 -0.100465 0.249378 1
-0.192191 0.154204 -1.64463 0.134884 -0.732575 0.667189 1
-0.191828 0.152959 -1.64621 -0.372412 -0.733484 0.568604 1
-0.191177 0.151837 -1.64779 0.944573 0.28267 0.166973 1
-0.190512 0.150721 -1.64937 -0.823586 -0.565412 0.0448974 1
-0.18983 0.149612 -1.65095 -0.807279 -0.585313 -0.0755613 1
-0.188938 0.14865 -1.65251 0.940113 0.317342 0.12442 1
-0.188008 0.147711 -1.65407 0.944597 0.318575 0.0790377 1
-0.187372 0.146531 -1.65561 0.950464 0.310182 0.0201564 1
-0.186682 0.145356 -1.65714 0.955152 0.291587 -0.0515951 1
-0.185903 0.144188 -1.65863 -0.760424 -0.531617 0.373012 1
-0.185278 0.142939 -1.66012 0.901089 0.378708 0.211233 1
