# .PCD v0.7 - Point Cloud Data file format
# 4 64 0
# 1 5 0
# 6 31 0
# 32 60 0
# 61 64 0
VERSION 0.7
FIELDS x y z normal_x normal_y normal_z curvature
SIZE 4 4 4 4 4 4 4
TYPE F F F F F F F
COUNT 1 1 1 1 1 1 1
WIDTH 64
HEIGHT 1
VIEWPOINT 0 0 0 1 0 0 0
POINTS 64
DATA ascii
-0.0770759 -0.129441 -1.34136 0.6318 -0.105823 -0.767874 0.01
-0.078558 -0.128353 -1.341 0.618778 -0.154569 -0.770209 1
-0.0794116 -0.126533 -1.34142 0.528206 -0.311023 -0.790103 1
-0.0802653 -0.124713 -1.34185 0.48823 -0.344286 -0.801935 1
-0.0811189 -0.122892 -1.34227 0.440524 -0.370439 -0.817749 1
0.000215 -0.110557 -1.31396 -0.762936 0.639325 0.0958794 1
0.000905659 -0.108856 -1.31304 -0.764251 0.636975 0.100916 1
0.00159632 -0.107154 -1.31212 -0.764699 0.635544 0.106391 1
0.00228698 -0.105453 -1.3112 -0.764197 0.635097 0.112493 1
0.00216482 -0.106103 -1.31158 -0.76474 0.634711 0.110977 0.01
0.00166751 -0.107838 -1.31256 -0.765259 0.634926 0.106053 1
0.0011702 -0.109573 -1.31354 -0.764974 0.635944 0.101931 1
0.000594766 -0.111283 -1.31451 -0.761567 0.643378 0.0779796 1
-0.000114613 -0.11295 -1.31548 -0.752641 0.657225 0.0398418 1
-0.000823991 -0.114616 -1.31645 0.942875 -0.325509 -0.0709343 1
-0.0015478 -0.116276 -1.31742 0.893124 -0.446924 -0.0508866 1
-0.00253128 -0.117812 -1.31837 0.830458 -0.556402 -0.0275119 1
-0.00351477 -0.119348 -1.31931 0.76586 -0.642983 -0.00559479 1
-0.00449826 -0.120884 -1.32026 0.709159 -0.704983 0.00961009 1
-0.00603866 -0.121942 -1.32098 -0.738066 0.666447 0.105396 1
-0.00777796 -0.122828 -1.32162 -0.737798 0.663593 0.123688 1
-0.00951725 -0.123714 -1.32226 -0.736135 0.662226 0.139866 1
-0.0110197 -0.124799 -1.32305 -0.728938 0.667076 0.153816 1
-0.0121966 -0.126158 -1.32404 -0.730292 0.681842 0.0420113 1
-0.0133735 -0.127518 -1.32504 -0.706557 0.686155 0.173112 1
-0.0145038 -0.128891 -1.32605 0.641001 -0.759626 -0.109936 1
-0.0152389 -0.130387 -1.32726 0.704008 -0.700536 -0.116712 1
-0.015974 -0.131883 -1.32846 -0.812104 0.565688 0.143125 1
-0.016709 -0.133379 -1.32966 0.842746 -0.535162 -0.058151 1
-0.0174335 -0.134888 -1.33085 0.903279 -0.429053 -0.00115823 1
-0.0181553 -0.1364 -1.33204 0.948494 -0.310866 0.0609962 1
-0.018877 -0.137912 -1.33323 0.957102 -0.284836 0.0531499 1
-0.0198986 -0.1393 -1.33428 0.952685 -0.303789 0.0101815 1
-0.0212534 -0.140549 -1.33519 0.944449 -0.32627 -0.0395377 1
-0.0226081 -0.141798 -1.3361 0.928336 -0.357018 -0.103585 1
-0.0240249 -0.142825 -1.33703 0.899576 -0.39711 -0.181845 0.01
-0.0257717 -0.142664 -1.3381 0.8581 -0.438506 -0.267164 1
-0.0275186 -0.142503 -1.33917 0.786384 -0.490606 -0.375374 1
-0.0292655 -0.142342 -1.34024 0.667033 -0.54939 -0.503227 1
-0.0310279 -0.142213 -1.34129 -0.546236 0.835788 -0.0555389 1
-0.0327932 -0.142091 -1.34233 0.398956 -0.593619 -0.698892 1
-0.0345586 -0.141969 -1.34338 0.816205 -0.434166 -0.381195 1
-0.0363506 -0.141757 -1.34435 0.733344 -0.519436 -0.438626 1
-0.0381668 -0.141464 -1.34527 -0.315805 0.946845 0.061258 1
-0.039983 -0.14117 -1.34618 0.59731 -0.593712 -0.539191 1
-0.0418052 -0.140751 -1.34694 0.533686 -0.612563 -0.583049 1
-0.0436498 -0.139861 -1.3471 0.487601 -0.613293 -0.621384 1
-0.0454944 -0.138971 -1.34726 0.443549 -0.599462 -0.666266 1
-0.047339 -0.138081 -1.34742 0.403593 -0.554166 -0.72802 1
-0.0492713 -0.137411 -1.34759 0.360812 -0.445922 -0.819126 1
-0.0512138 -0.136767 -1.34778 0.58705 -0.639419 -0.496503 1
-0.0531563 -0.136123 -1.34796 0.537919 -0.652562 -0.533672 1
-0.0550695 -0.135423 -1.34821 0.486255 -0.659689 -0.573033 1
-0.0569615 -0.134683 -1.34851 0.434855 -0.659771 -0.612865 1
-0.0588534 -0.133942 -1.34882 0.387027 -0.653492 -0.650506 1
-0.060736 -0.133334 -1.34882 0.347965 -0.65117 -0.674461 1
-0.0625924 -0.133096 -1.34797 0.326009 -0.669295 -0.667655 1
-0.0644488 -0.132859 -1.34713 0.366801 -0.614537 -0.698428 1
-0.0663052 -0.132622 -1.34628 0.436749 -0.521092 -0.733289 1
-0.0681199 -0.132268 -1.34538 0.494809 -0.430531 -0.754856 1
-0.0699322 -0.131907 -1.34449 0.534774 -0.357008 -0.765873 1
-0.0717446 -0.131546 -1.34359 0.560466 -0.302991 -0.770762 1
-0.0735315 -0.13094 -1.3428 0.626148 -0.135578 -0.767827 1
-0.0753037 -0.130191 -1.34208 0.632391 -0.108847 -0.766964 1
