# .PCD v0.7 - Point Cloud Data file format
# 4 78 0
# 1 17 0
# 18 53 0
# 54 69 0
# 70 78 0
VERSION 0.7
FIELDS x y z normal_x normal_y normal_z curvature
SIZE 4 4 4 4 4 4 4
TYPE F F F F F F F
COUNT 1 1 1 1 1 1 1
WIDTH 78
HEIGHT 1
VIEWPOINT 0 0 0 1 0 0 0
POINTS 78
DATA ascii
-0.203319 -0.0817602 -1.63397 0.343369 0.67147 0.656678 0.01
-0.203436 -0.0835038 -1.63296 0.193473 -0.757547 -0.623451 1
-0.203166 -0.08538 -1.63223 0.293064 -0.715957 -0.633655 1
-0.202896 -0.0872562 -1.63151 0.159614 0.235492 0.95868 1
-0.202626 -0.0891324 -1.63079 0.161218 0.0536085 0.985462 1
-0.202462 -0.0908566 -1.6301 0.227205 -0.0597577 0.972012 1
-0.204221 -0.0898462 -1.63006 0.100529 0.0510474 0.993624 1
-0.20598 -0.0888358 -1.63002 0.0404509 0.120613 0.991875 1
-0.207739 -0.0878254 -1.62998 0.0020153 0.169815 0.985474 1
-0.209498 -0.086815 -1.62994 -0.0286177 0.203307 0.978697 1
-0.207786 -0.0895728 -1.68256 0.45316 0.611708 0.648428 1
-0.206274 -0.0906818 -1.68178 -0.115729 -0.826903 -0.550307 1
-0.204762 -0.0917908 -1.68101 -0.0571483 -0.813268 -0.579076 1
-0.20325 -0.0928998 -1.68023 0.534812 0.501213 0.680266 1
-0.201738 -0.0940088 -1.67946 0.0229838 -0.747823 -0.663501 1
-0.201104 -0.0931268 -1.681 0.0581937 -0.774452 -0.62995 1
-0.200517 -0.0921343 -1.68267 0.103039 -0.858583 -0.502214 1
-0.199931 -0.0911417 -1.68434 0.108278 -0.943667 -0.312678 1
-0.199345 -0.0901492 -1.68601 0.0674347 -0.963913 -0.257536 1
-0.198698 -0.088943 -1.6875 0.0250986 -0.967405 -0.251989 1
-0.198043 -0.0877116 -1.68898 -0.0278831 -0.960748 -0.276017 1
-0.197388 -0.0864803 -1.69045 -0.0905092 -0.944271 -0.316481 1
-0.196733 -0.0852489 -1.69192 -0.117547 -0.911213 -0.394808 1
-0.19613 -0.0841495 -1.69352 -0.075603 -0.876381 -0.475648 1
-0.195538 -0.0830749 -1.69513 0.213044 -0.782017 -0.585715 1
-0.194945 -0.0820002 -1.69675 0.536534 -0.519583 -0.664954 1
-0.194353 -0.0809256 -1.69836 0.335177 -0.592451 -0.73257 0.01
-0.195828 -0.080632 -1.69868 0.327379 -0.587821 -0.739791 1
-0.197855 -0.0805469 -1.69866 0.0357824 -0.757165 -0.652242 1
-0.199882 -0.0804617 -1.69863 -0.170554 -0.861047 -0.479072 1
-0.201909 -0.0803765 -1.6986 -0.22799 -0.916705 -0.328135 1
-0.202898 -0.0809161 -1.69728 -0.319816 -0.870672 -0.373696 1
-0.203517 -0.0816789 -1.69551 -0.36454 -0.828886 -0.424333 1
-0.204136 -0.0824416 -1.69373 -0.377665 -0.801126 -0.46429 1
-0.204754 -0.0832044 -1.69196 -0.361888 -0.777913 -0.5137 1
-0.204274 -0.0824205 -1.69075 -0.352325 -0.776799 -0.521967 1
-0.203287 -0.0809229 -1.6898 0.617296 0.781823 -0.0877484 1
-0.2023 -0.0794252 -1.68885 0.634087 0.745146 -0.206616 1
-0.201313 -0.0779275 -1.68791 0.636556 0.613377 -0.467509 1
-0.200359 -0.076471 -1.68687 0.475661 0.281893 -0.833236 1
-0.199425 -0.0750386 -1.68577 0.536159 0.478974 -0.695067 1
-0.198491 -0.0736062 -1.68468 -0.32132 -0.806734 -0.495918 1
-0.197557 -0.0721738 -1.68359 -0.306203 -0.818004 -0.486939 1
-0.196475 -0.0713134 -1.68222 0.594705 0.592677 -0.543193 1
-0.195284 -0.0708692 -1.68063 0.617053 0.584245 -0.527166 1
-0.194093 -0.0704249 -1.67905 0.64904 0.568489 -0.505537 1
-0.192903 -0.0699806 -1.67747 0.702759 0.536206 -0.46756 1
-0.192447 -0.0692656 -1.67579 0.749453 0.49523 -0.439395 1
-0.192654 -0.0683069 -1.67401 0.704634 0.65603 -0.270398 1
-0.192861 -0.0673483 -1.67224 0.609213 0.773834 -0.173324 1
-0.193068 -0.0663896 -1.67046 0.542409 0.784421 -0.300792 1
-0.193588 -0.0653593 -1.66883 0.462646 0.71909 -0.518525 1
-0.194457 -0.0642493 -1.66737 0.357309 0.793674 -0.492353 1
-0.195326 -0.0631393 -1.66591 0.263538 0.897339 -0.354021 1
-0.196195 -0.0620293 -1.66446 0.198621 0.960728 -0.193782 1
-0.196572 -0.0611186 -1.66281 0.214385 -0.889154 -0.404283 1
-0.196272 -0.0604821 -1.66091 0.188836 -0.912855 -0.361991 1
-0.195973 -0.0598455 -1.659 0.152656 -0.886766 -0.436283 1
-0.195674 -0.0592089 -1.6571 0.151565 -0.89335 -0.42303 1
-0.195368 -0.0589242 -1.65517 0.157141 -0.915305 -0.370842 1
-0.195053 -0.0592427 -1.65319 0.151966 -0.889893 -0.430112 1
-0.194737 -0.0595612 -1.65121 0.423385 -0.00145899 0.905949 1
-0.194422 -0.0598797 -1.64923 0.15702 0.98232 -0.101946 0.01
-0.194001 -0.0606576 -1.64765 -0.0729399 -0.573219 -0.81615 1
-0.193353 -0.0624309 -1.6469 0.177038 0.329615 0.927368 1
-0.192704 -0.0642041 -1.64616 0.140317 0.984984 -0.100586 1
-0.192056 -0.0659774 -1.64542 0.140317 0.984984 -0.100586 0
-0.191922 -0.0676378 -1.64467 0.140317 0.984984 -0.100586 1
-0.193227 -0.0689822 -1.64389 0.366962 -0.704568 -0.60739 1
-0.194533 -0.0703266 -1.64311 0.41693 -0.677271 -0.606196 1
-0.195838 -0.071671 -1.64233 0.438229 -0.676137 -0.592278 1
-0.197177 -0.0729178 -1.64149 0.451497 -0.682225 -0.575082 1
-0.198643 -0.073799 -1.6404 0.336636 0.502336 0.796451 1
-0.200108 -0.0746802 -1.6393 0.473011 -0.699541 -0.535633 1
-0.201573 -0.0755613 -1.63821 0.508108 0.70976 0.487921 1
-0.202833 -0.0765762 -1.63713 0.511295 -0.714178 -0.478045 1
-0.202995 -0.0783042 -1.63608 0.503634 -0.727304 -0.466241 1
-0.203157 -0.0800322 -1.63502 0.428953 0.714178 0.553126 1
