# .PCD v0.7 - Point Cloud Data file format
# 6 195 0
# 1 8 0
# 9 53 0
# 54 99 0
# 100 137 0
# 138 160 0
# 161 195 0
VERSION 0.7
FIELDS x y z normal_x normal_y normal_z curvature
SIZE 4 4 4 4 4 4 4
TYPE F F F F F F F
COUNT 1 1 1 1 1 1 1
WIDTH 195
HEIGHT 1
VIEWPOINT 0 0 0 1 0 0 0
POINTS 195
DATA ascii
0.0809951 0.146161 -1.41026 0.7009 -0.146574 -0.698036 0.01
0.080054 0.145585 -1.4111 0.701634 -0.136475 -0.699346 1
0.0791492 0.14562 -1.41215 0.69792 -0.12621 -0.704967 1
0.0783099 0.14624 -1.41306 0.690317 -0.118351 -0.713762 1
0.0774354 0.146854 -1.41394 0.681509 -0.110745 -0.723381 1
0.0764882 0.147334 -1.41482 0.671783 -0.10232 -0.733647 1
0.0755798 0.148006 -1.41562 0.659494 -0.0961329 -0.745537 1
0.0745757 0.147721 -1.41653 0.651288 -0.0811437 -0.75448 1
0.0735812 0.147244 -1.41737 0.644092 -0.0628241 -0.762364 1
0.07258 0.147412 -1.41831 0.636235 -0.0537035 -0.769624 1
0.0715817 0.147427 -1.41927 0.645026 -0.0543077 -0.762228 1
0.0705831 0.147468 -1.42023 0.654469 -0.0541322 -0.754149 1
0.0695707 0.147625 -1.42116 0.663864 -0.0551771 -0.745815 1
0.0685626 0.147725 -1.4221 0.673169 -0.0549783 -0.737442 1
0.067555 0.148022 -1.423 0.681519 -0.057983 -0.729499 1
0.0665437 0.148272 -1.42391 0.689389 -0.0605369 -0.721857 1
0.0655142 0.148666 -1.42475 0.696274 -0.0653595 -0.714794 1
0.0644993 0.148546 -1.42569 0.702434 -0.0655426 -0.708724 1
0.0634897 0.148341 -1.42661 0.700848 -0.0627994 -0.710541 1
0.062477 0.148213 -1.42755 0.687708 -0.0554901 -0.723863 1
0.0615623 0.148448 -1.42856 0.672648 -0.0512494 -0.738185 1
0.060565 0.148144 -1.42947 0.658637 -0.0460583 -0.75105 1
0.0595982 0.147769 -1.43038 0.647059 -0.0358673 -0.761596 1
0.0586752 0.147993 -1.43139 0.633481 -0.029479 -0.773196 1
0.0575664 0.148568 -1.43199 0.619684 -0.025288 -0.784444 1
0.0564773 0.148905 -1.43277 0.606835 -0.0175027 -0.794635 1
0.0553931 0.148844 -1.43363 0.59743 -0.00530238 -0.801904 1
0.0541908 0.148403 -1.43416 0.593089 0.0089356 -0.805088 1
0.0531122 0.148464 -1.43502 0.59678 0.0155089 -0.802255 1
0.0520792 0.148539 -1.43594 0.605862 0.0186861 -0.79535 1
0.051139 0.149253 -1.43666 0.611917 0.0153831 -0.790772 1
0.0501455 0.149737 -1.4375 0.618691 0.0137829 -0.785514 1
0.0490651 0.149741 -1.43836 0.625976 0.0164059 -0.77967 1
0.0479857 0.149569 -1.43921 0.632078 0.0196907 -0.774655 1
0.0470985 0.150131 -1.44011 0.636284 0.0149006 -0.771311 1
0.046229 0.151124 -1.44053 0.639341 0.00513756 -0.768906 1
0.0430414 0.150959 -1.44336 0.631841 0.00228226 -0.775095 1
0.0419329 0.150976 -1.44419 0.622876 0.00159896 -0.782319 1
0.0409411 0.151556 -1.44496 0.615257 -0.00124628 -0.788326 1
0.0398969 0.151234 -1.44581 0.607313 -0.00108433 -0.794462 1
0.0388334 0.15099 -1.44666 0.600346 -0.00147841 -0.799739 1
0.0377625 0.151524 -1.44736 0.595349 -0.00211834 -0.803464 1
0.0366667 0.151705 -1.44819 0.59156 -0.00110319 -0.80626 1
0.0356389 0.152258 -1.44893 0.589276 0.00207922 -0.807929 0.01
0.0352367 0.15355 -1.44922 0.585747 0.00690683 -0.810465 1
0.0348819 0.154849 -1.44954 0.583448 0.0111526 -0.812074 1
0.0341953 0.155905 -1.45012 0.586035 0.0128378 -0.810184 1
0.0337065 0.157185 -1.45031 0.587207 0.012416 -0.809342 1
0.0333234 0.158482 -1.45061 0.588644 0.0103335 -0.808326 1
0.0329096 0.159754 -1.45097 0.590572 0.00689848 -0.806955 1
0.0328453 0.161135 -1.4509 0.590741 0.00189316 -0.806859 1
0.0322691 0.162314 -1.45134 0.593385 -0.00336551 -0.804912 1
0.031866 0.163606 -1.45163 0.595034 -0.00984768 -0.80364 1
0.0316034 0.164945 -1.45187 0.596049 -0.0166497 -0.802775 1
0.0312364 0.166243 -1.45218 0.598517 -0.0205428 -0.800846 1
0.0306292 0.16739 -1.45266 0.601431 -0.0244 -0.798552 1
0.0299492 0.168464 -1.45321 0.604395 -0.0281067 -0.796189 1
0.0295668 0.169746 -1.45356 0.60379 -0.0311834 -0.796533 1
0.0287721 0.170643 -1.45426 0.602308 -0.0325592 -0.797599 1
0.0286079 0.172008 -1.45441 0.600854 -0.0361962 -0.798539 1
0.0283017 0.173351 -1.45456 0.599262 -0.0396863 -0.799569 1
0.0282551 0.174722 -1.45474 0.597727 -0.0434419 -0.800522 1
0.0277593 0.175956 -1.45512 0.595545 -0.0460504 -0.802001 1
0.0275277 0.177315 -1.45525 0.593505 -0.0491732 -0.803327 1
0.0271122 0.178606 -1.45552 0.59273 -0.0471299 -0.804021 1
0.0275673 0.179913 -1.45555 0.593431 -0.0442433 -0.803668 1
0.0277354 0.181287 -1.45555 0.59313 -0.0407177 -0.804076 1
0.0278108 0.182669 -1.4556 0.592169 -0.0365256 -0.804985 1
0.0279251 0.184048 -1.45559 0.590903 -0.0318689 -0.806113 1
0.0275304 0.185326 -1.45594 0.588502 -0.0260079 -0.808077 1
0.0273644 0.186695 -1.45606 0.586249 -0.0197138 -0.809891 1
0.0271103 0.188042 -1.45625 0.583722 -0.0126904 -0.811855 1
0.0265336 0.189217 -1.45671 0.580899 -0.00573461 -0.813955 1
0.026095 0.190498 -1.45699 0.581826 -0.0011103 -0.813313 1
0.0263106 0.191854 -1.45681 0.581827 0.00286993 -0.813308 1
0.0262055 0.193231 -1.4569 0.583389 0.00588127 -0.812172 1
0.0255233 0.19419 -1.45763 0.586618 0.00640902 -0.809838 1
0.0255099 0.195574 -1.45759 0.588062 0.00828919 -0.808773 1
0.0255377 0.196932 -1.45732 0.589391 0.00988311 -0.807788 1
0.025602 0.198312 -1.45723 0.591105 0.0109078 -0.806521 1
0.0252535 0.199624 -1.4575 0.593173 0.00904592 -0.805024 1
0.0249672 0.200967 -1.45767 0.594571 0.00546825 -0.804024 1
0.0243924 0.202172 -1.45804 0.596398 0.00151505 -0.802687 1
0.0232901 0.20276 -1.45864 0.598509 -0.00121548 -0.801115 1
0.0237245 0.204074 -1.4586 0.598771 -0.00551934 -0.800901 1
0.0234323 0.205404 -1.45885 0.600058 -0.0109565 -0.799881 1
0.0229316 0.206627 -1.45926 0.601505 -0.0166993 -0.798694 1
0.0227652 0.207994 -1.45941 0.60257 -0.0232163 -0.797729 1
0.0232393 0.209257 -1.4591 0.602955 -0.0289336 -0.79725 0.01
0.0241885 0.210034 -1.45845 0.602618 -0.0318691 -0.797393 1
0.0252608 0.210318 -1.45763 0.601502 -0.0324159 -0.798213 1
0.0263838 0.210514 -1.45684 0.600137 -0.0327333 -0.799227 1
0.0275101 0.210792 -1.45609 0.598734 -0.0337684 -0.800236 1
0.0286386 0.210908 -1.45529 0.597294 -0.0338574 -0.801307 1
0.0296571 0.210829 -1.45436 0.595925 -0.0324763 -0.802383 1
0.0306733 0.210527 -1.45347 0.594622 -0.0291809 -0.803476 1
0.0317723 0.21079 -1.45267 0.593933 -0.029711 -0.803966 1
0.0328408 0.21133 -1.45197 0.594036 -0.0324776 -0.803783 0.153509
0.0339668 0.211228 -1.45118 0.594091 -0.0293442 -0.803862 1
0.0351305 0.211317 -1.45043 0.594622 -0.0268464 -0.803557 1
0.0362378 0.21131 -1.4496 0.593781 -0.022344 -0.804316 1
0.0373774 0.211609 -1.44887 0.59337 -0.0205375 -0.804668 1
0.0384326 0.211545 -1.44798 0.591661 -0.0155209 -0.806037 1
0.0395549 0.211603 -1.44717 0.589414 -0.0130275 -0.807726 1
0.0406957 0.211652 -1.44639 0.586034 -0.0125083 -0.81019 1
0.041787 0.211862 -1.44556 0.582096 -0.0144064 -0.812993 1
0.042854 0.211618 -1.44472 0.577761 -0.0119081 -0.816119 1
0.0439581 0.211864 -1.44392 0.572984 -0.0149823 -0.81943 1
0.0450301 0.212312 -1.44317 0.568031 -0.0202547 -0.822758 1
0.0460589 0.212944 -1.44249 0.563553 -0.0276492 -0.825617 1
0.0471503 0.213436 -1.44179 0.562484 -0.035881 -0.826029 1
0.0482346 0.213982 -1.44113 0.561497 -0.0443932 -0.826287 1
0.0493773 0.214185 -1.44037 0.561693 -0.0495422 -0.825861 1
0.0504967 0.214678 -1.43973 0.561747 -0.0568744 -0.825352 1
0.0516463 0.215079 -1.43907 0.56272 -0.062831 -0.824256 1
0.0527866 0.215663 -1.43854 0.565024 -0.0666642 -0.822377 1
0.0539369 0.215874 -1.4378 0.567857 -0.0677038 -0.820338 1
0.054878 0.215748 -1.4368 0.570737 -0.0667419 -0.818416 1
0.0558929 0.215541 -1.43588 0.573678 -0.0654311 -0.816463 1
0.0570276 0.215397 -1.4351 0.576622 -0.0647447 -0.814442 1
0.0581828 0.215705 -1.4344 0.57856 -0.0670008 -0.812883 1
0.0593649 0.215768 -1.43368 0.579194 -0.0676533 -0.812378 0.624218
0.0603298 0.215381 -1.43277 0.579627 -0.0658655 -0.812216 0.350776
0.0614492 0.21533 -1.43195 0.579442 -0.0667288 -0.812277 0.130971
0.0624991 0.214924 -1.43115 0.579343 -0.065792 -0.812424 0.361245
0.0635883 0.214671 -1.43033 0.578831 -0.0661069 -0.812763 1
0.0647232 0.214779 -1.42955 0.577644 -0.0684726 -0.813412 1
0.0658019 0.214519 -1.42872 0.576818 -0.0689306 -0.813959 1
0.0669221 0.214894 -1.428 0.575279 -0.0721227 -0.814771 1
0.0680509 0.215281 -1.4273 0.573994 -0.074888 -0.815428 1
0.0691357 0.214985 -1.42649 0.574822 -0.0752706 -0.814809 1
0.0703189 0.215095 -1.42578 0.576203 -0.0771581 -0.813656 1
0.07139 0.214843 -1.42494 0.578165 -0.0774823 -0.812233 1
0.0726001 0.214739 -1.42428 0.580126 -0.0781732 -0.810767 1
0.0734267 0.214015 -1.42343 0.58226 -0.0766549 -0.80938 0.01
0.0739206 0.212938 -1.42272 0.584157 -0.0737291 -0.808285 1
0.0746853 0.211954 -1.42211 0.586211 -0.0710372 -0.807038 1
0.0757674 0.211413 -1.42144 0.588409 -0.0699374 -0.805533 1
0.0765477 0.210406 -1.4209 0.590542 -0.0664623 -0.804266 1
0.0770634 0.209354 -1.42016 0.592883 -0.0620261 -0.802897 1
0.0779305 0.208517 -1.41948 0.596562 -0.0595378 -0.800355 1
0.0779368 0.207136 -1.41938 0.599232 -0.052382 -0.79886 1
0.0787567 0.206245 -1.41871 0.603886 -0.0502254 -0.795487 1
0.0796816 0.205493 -1.418 0.608581 -0.0500471 -0.791912 1
0.0803607 0.204449 -1.4174 0.613898 -0.0482439 -0.78791 1
0.0812419 0.203683 -1.41666 0.618872 -0.0499192 -0.783904 1
0.0818278 0.202574 -1.41607 0.625039 -0.049193 -0.779042 1
0.0826633 0.201697 -1.4154 0.630673 -0.0520779 -0.7743 1
0.0835852 0.200981 -1.41466 0.635433 -0.0576021 -0.770004 1
0.0845267 0.200221 -1.41398 0.636987 -0.0619969 -0.768377 1
0.0850807 0.199145 -1.41331 0.64071 -0.0631793 -0.765179 1
0.08499 0.197784 -1.41308 0.64804 -0.0575171 -0.759432 1
0.0850804 0.196413 -1.41291 0.655686 -0.0515422 -0.753272 1
0.0853777 0.195104 -1.41257 0.657525 -0.0585923 -0.751151 1
0.0858165 0.193874 -1.41211 0.659309 -0.0651171 -0.749047 1
0.0860803 0.192568 -1.41174 0.661213 -0.0711287 -0.746818 1
0.0864294 0.19129 -1.41134 0.663183 -0.0768068 -0.744506 1
0.0867843 0.19002 -1.41092 0.665262 -0.0822145 -0.742069 1
0.0872327 0.188804 -1.41043 0.667494 -0.0875007 -0.739456 1
0.0876491 0.187606 -1.40988 0.66989 -0.0927329 -0.736647 1
0.0878927 0.186308 -1.40946 0.672378 -0.0977504 -0.733725 1
0.0883669 0.185089 -1.40901 0.667126 -0.0995441 -0.738264 1
0.0886461 0.183786 -1.40863 0.662675 -0.0992588 -0.7423 1
0.0890846 0.182533 -1.40824 0.659134 -0.0936819 -0.746168 1
0.0888093 0.181198 -1.408 0.660259 -0.0864538 -0.746045 1
0.0893692 0.180088 -1.40739 0.655096 -0.0803408 -0.751262 1
0.090186 0.179243 -1.40666 0.648471 -0.0757255 -0.757464 1
0.0908083 0.178202 -1.40599 0.643522 -0.0700513 -0.762216 1
0.0913787 0.177119 -1.40535 0.639182 -0.0645635 -0.766341 1
0.0919067 0.175955 -1.40481 0.635711 -0.0594415 -0.769635 1
0.0925807 0.174935 -1.40416 0.631259 -0.0562117 -0.773532 1
0.0930165 0.173727 -1.40365 0.628685 -0.0535728 -0.775813 1
0.0933867 0.172466 -1.40321 0.627081 -0.0526917 -0.77717 0.01
0.0927029 0.171381 -1.40373 0.633629 -0.0516906 -0.771909 1
0.0919397 0.170376 -1.4043 0.636849 -0.0598209 -0.768665 1
0.0910699 0.16956 -1.40501 0.640089 -0.0667066 -0.7654 1
0.0906527 0.16829 -1.40537 0.640274 -0.0757581 -0.764402 1
0.0900952 0.167141 -1.4059 0.640945 -0.0839761 -0.762979 1
0.0892658 0.166167 -1.40643 0.642071 -0.0913455 -0.761184 1
0.0885594 0.165074 -1.4069 0.642465 -0.099085 -0.759882 1
0.0875383 0.164262 -1.40736 0.643851 -0.105677 -0.757818 1
0.0869893 0.163074 -1.40782 0.645899 -0.108542 -0.755667 1
0.0860742 0.162323 -1.40853 0.651034 -0.108494 -0.751255 1
0.0855344 0.161118 -1.40895 0.654776 -0.109266 -0.747883 1
0.0846432 0.160132 -1.40934 0.659605 -0.109521 -0.74359 1
0.0841701 0.158855 -1.40959 0.663119 -0.11086 -0.740259 1
0.0837807 0.157536 -1.40974 0.666536 -0.112974 -0.736862 1
0.0832765 0.156289 -1.41007 0.670863 -0.114866 -0.732632 1
0.0831523 0.15491 -1.41004 0.67435 -0.119978 -0.728599 1
0.082675 0.153612 -1.4101 0.67844 -0.124307 -0.724063 1
0.0822077 0.152322 -1.41028 0.68225 -0.128166 -0.719798 1
0.0819081 0.15097 -1.4103 0.686016 -0.133166 -0.715297 1
0.0818394 0.149593 -1.41019 0.690161 -0.139274 -0.710127 1
0.0820033 0.14825 -1.40989 0.694817 -0.146414 -0.704125 1
0.0820745 0.146873 -1.40977 0.69963 -0.152124 -0.698123 1
