# .PCD v0.7 - Point Cloud Data file format
# 3 30 0
# 1 5 0
# 6 26 0
# 27 30 0
VERSION 0.7
FIELDS x y z normal_x normal_y normal_z curvature
SIZE 4 4 4 4 4 4 4
TYPE F F F F F F F
COUNT 1 1 1 1 1 1 1
WIDTH 30
HEIGHT 1
VIEWPOINT 0 0 0 1 0 0 0
POINTS 30
DATA ascii
0.0959194 0.14551 -1.53756 -0.637486 0.715536 -0.285691 0.01
0.0960483 0.14547 -1.53788 -0.638042 0.714383 -0.287333 1
0.0961772 0.14543 -1.53821 -0.633725 0.715161 -0.294852 1
0.0963437 0.145467 -1.53846 -0.629004 0.710893 -0.314619 1
0.096377 0.145336 -1.53877 -0.605401 0.726785 -0.324458 1
0.092849 0.145914 -1.53005 -0.852541 0.294762 -0.431612 1
0.0929833 0.146173 -1.53024 -0.0817431 0.992257 -0.0935054 1
0.0931413 0.146216 -1.5305 -0.0980645 0.991084 -0.0901943 1
0.0933124 0.14614 -1.53079 -0.865999 0.407992 -0.289118 1
0.0934834 0.146064 -1.53109 -0.859048 0.450583 -0.242922 0.01
0.0936427 0.146083 -1.53138 -0.850614 0.475382 -0.22465 1
0.0937834 0.146252 -1.53165 -0.844627 0.483611 -0.229622 1
0.0939315 0.146353 -1.53194 -0.0831362 0.985639 -0.146981 1
0.0940894 0.146364 -1.53225 -0.823357 0.515577 -0.237199 1
0.0942473 0.146375 -1.53256 -0.810153 0.531645 -0.246994 1
0.0944052 0.146386 -1.53287 -0.796702 0.54478 -0.261688 1
0.0945613 0.146429 -1.53318 -0.785037 0.551844 -0.281398 1
0.0947147 0.146515 -1.53348 -0.776824 0.551283 -0.304353 1
0.0948682 0.146601 -1.53378 -0.770861 0.546599 -0.327113 1
0.0950216 0.146688 -1.53408 -0.76815 0.53788 -0.347319 1
0.0951556 0.146722 -1.53439 -0.514121 0.682594 -0.51937 1
0.0952283 0.146595 -1.5347 -0.753371 0.559591 -0.345385 1
0.095301 0.146468 -1.53502 -0.739574 0.581622 -0.338742 1
0.0953737 0.146341 -1.53534 -0.725689 0.603048 -0.331223 1
0.0954464 0.146215 -1.53566 -0.711804 0.623623 -0.323154 1
0.0955191 0.146088 -1.53597 -0.697935 0.643232 -0.314864 1
0.0955918 0.145961 -1.53629 -0.684105 0.661761 -0.306713 1
0.0956645 0.145834 -1.53661 -0.670288 0.679171 -0.299066 1
0.0957372 0.145707 -1.53692 -0.656431 0.695454 -0.292304 1
0.0958099 0.14558 -1.53724 -0.642728 0.710338 -0.286914 1
