# .PCD v0.7 - Point Cloud Data file format
# 4 59 0
# 1 13 0
# 14 22 0
# 23 55 0
# 56 59 0
VERSION 0.7
FIELDS x y z normal_x normal_y normal_z curvature
SIZE 4 4 4 4 4 4 4
TYPE F F F F F F F
COUNT 1 1 1 1 1 1 1
WIDTH 59
HEIGHT 1
VIEWPOINT 0 0 0 1 0 0 0
POINTS 59
DATA ascii
-0.195096 -0.0684813 -1.6439 0.585567 -0.65846 -0.472802 0.01
-0.196869 -0.0689215 -1.64297 0.601677 -0.649263 -0.465234 1
-0.198642 -0.0693617 -1.64204 0.621859 -0.642931 -0.447136 1
-0.200416 -0.0698018 -1.64112 0.643231 -0.644578 -0.413246 1
-0.202189 -0.070242 -1.64019 0.668938 -0.642739 -0.373375 1
-0.194567 -0.083283 -1.70092 0.166764 0.867589 0.468486 1
-0.195118 -0.0840233 -1.69909 0.853318 0.477664 -0.209012 1
-0.19567 -0.0847637 -1.69726 0.440325 -0.785709 -0.434483 1
-0.196221 -0.0855041 -1.69543 0.0428271 -0.940024 -0.33841 1
-0.196773 -0.0862445 -1.6936 -0.0412788 -0.94515 -0.324017 1
-0.197378 -0.0870128 -1.6918 -0.07363 -0.939275 -0.335173 1
-0.197992 -0.0877858 -1.69001 -0.0703623 -0.919557 -0.386605 1
-0.198605 -0.0885588 -1.68821 -0.0694733 -0.889793 -0.451045 1
-0.199219 -0.0893318 -1.68642 -0.0825553 -0.855885 -0.510535 1
-0.200754 -0.0890315 -1.68605 -0.128724 -0.847787 -0.514478 1
-0.202657 -0.0883019 -1.68626 -0.167909 -0.846535 -0.505159 1
-0.20456 -0.0875723 -1.68647 -0.194824 -0.843708 -0.5002 1
-0.206464 -0.0868427 -1.68668 -0.214145 -0.840266 -0.498092 0.01
-0.206884 -0.086051 -1.68776 -0.224648 -0.848407 -0.479311 1
-0.206192 -0.0852128 -1.6895 -0.2336 -0.866109 -0.441912 1
-0.2055 -0.0843746 -1.69124 -0.244845 -0.885137 -0.395706 1
-0.204807 -0.0835364 -1.69297 -0.257111 -0.907469 -0.332257 1
-0.204075 -0.0825742 -1.69462 -0.254944 -0.921195 -0.293945 1
-0.20329 -0.0814467 -1.69614 -0.246632 -0.928626 -0.277177 1
-0.202505 -0.0803192 -1.69766 -0.140344 -0.943404 -0.300487 1
-0.201719 -0.0791917 -1.69918 0.108518 -0.928142 -0.356057 1
-0.201009 -0.0781854 -1.69973 0.458153 0.888486 0.026235 0.01
-0.200487 -0.0774823 -1.69788 0.027685 -0.946299 -0.322106 1
-0.199965 -0.0767792 -1.69603 -0.214172 -0.933268 -0.288343 1
-0.199443 -0.0760761 -1.69417 -0.207701 -0.935824 -0.28477 1
-0.198893 -0.0753733 -1.69233 -0.202997 -0.932989 -0.297193 1
-0.198172 -0.0746722 -1.69055 -0.188853 -0.930913 -0.312627 1
-0.197452 -0.0739711 -1.68876 -0.166055 -0.929978 -0.327972 1
-0.196731 -0.07327 -1.68698 -0.124712 -0.932045 -0.340206 1
-0.196011 -0.0725689 -1.68519 0.431423 0.561016 -0.706495 1
-0.195096 -0.0719559 -1.68346 0.43452 0.57681 -0.691725 1
-0.194182 -0.071343 -1.68173 0.447078 0.608055 -0.656041 1
-0.193268 -0.07073 -1.68001 0.466467 0.638135 -0.612529 1
-0.192354 -0.070117 -1.67828 0.499433 0.667818 -0.551893 1
-0.192355 -0.0692095 -1.67648 0.531839 0.71117 -0.459765 1
-0.192509 -0.0682529 -1.67468 0.609056 0.754529 -0.244412 1
-0.192663 -0.0672963 -1.67287 0.595793 0.766972 -0.238296 1
-0.192817 -0.0663397 -1.67107 0.711303 0.692449 0.120677 1
-0.193491 -0.0651704 -1.66958 0.641877 0.647231 -0.411201 1
-0.194373 -0.0639159 -1.66822 0.504454 0.788967 -0.350796 1
-0.195256 -0.0626615 -1.66686 0.433969 0.821738 -0.369348 1
-0.196138 -0.0614071 -1.6655 0.393756 0.831392 -0.392101 1
-0.196417 -0.0605628 -1.6638 0.367156 0.828575 -0.422683 1
-0.196245 -0.0600261 -1.66183 0.345805 0.816345 -0.462602 1
-0.196072 -0.0594894 -1.65986 0.356316 0.795014 -0.490909 1
-0.1959 -0.0589527 -1.65789 0.406395 0.794602 -0.451055 1
-0.19573 -0.0589276 -1.65593 0.13689 0.857672 0.49564 1
-0.195563 -0.0595847 -1.654 0.954498 -0.157398 -0.253295 1
-0.195396 -0.0602418 -1.65207 0.830866 -0.498249 -0.247811 1
-0.195229 -0.0608988 -1.65013 0.712294 -0.655325 -0.251368 1
-0.195092 -0.0618544 -1.64843 0.651651 -0.693758 -0.306677 1
-0.195027 -0.0635562 -1.64729 0.632709 -0.686516 -0.358295 1
-0.194963 -0.065258 -1.64615 0.61492 -0.677614 -0.403377 1
-0.194898 -0.0669598 -1.64501 0.597939 -0.667985 -0.443017 1
