# .PCD v0.7 - Point Cloud Data file format
# 4 66 0
# 1 14 0
# 15 32 0
# 33 52 0
# 53 66 0
VERSION 0.7
FIELDS x y z normal_x normal_y normal_z curvature
SIZE 4 4 4 4 4 4 4
TYPE F F F F F F F
COUNT 1 1 1 1 1 1 1
WIDTH 66
HEIGHT 1
VIEWPOINT 0 0 0 1 0 0 0
POINTS 66
DATA ascii
0.204638 -0.0269677 -1.33722 -0.840333 0.489893 0.232043 0.01
0.204004 -0.0281478 -1.33745 -0.828359 0.501924 0.248785 1
0.203264 -0.0292814 -1.33758 -0.820192 0.512241 0.254745 1
0.202475 -0.0303306 -1.33794 -0.816476 0.522872 0.24489 1
0.201682 -0.0313461 -1.33837 -0.81922 0.52746 0.225086 1
0.201055 -0.0318649 -1.33946 -0.825691 0.521031 0.216246 1
0.200312 -0.0328321 -1.34007 -0.831642 0.51553 0.206398 1
0.199619 -0.0339937 -1.34021 -0.837648 0.5122 0.189728 1
0.198902 -0.0351368 -1.34003 -0.842089 0.511671 0.170525 1
0.198243 -0.0363179 -1.34018 -0.866276 0.474836 0.155228 1
0.197652 -0.0374304 -1.34069 -0.884619 0.433475 0.171896 1
0.197094 -0.0386705 -1.34067 -0.900361 0.392971 0.18688 1
0.19656 -0.039796 -1.34013 -0.923301 0.357672 0.13995 1
0.196196 -0.0411021 -1.34002 -0.928057 0.339573 0.152973 1
0.195963 -0.042393 -1.33966 -0.932101 0.316638 0.175863 1
0.194311 -0.0451513 -1.34056 -0.854246 0.346633 0.387439 1
0.193648 -0.0462523 -1.34101 -0.834366 0.349077 0.426589 1
0.192915 -0.0472304 -1.3416 -0.82352 0.341806 0.452751 1
0.192706 -0.0484997 -1.34116 -0.832952 0.337727 0.438328 1
0.192367 -0.0497885 -1.34089 -0.836954 0.354801 0.416683 1
0.191833 -0.0510371 -1.34097 -0.841285 0.363455 0.400174 1
0.191524 -0.0522569 -1.34046 -0.850589 0.383717 0.359526 1
0.190976 -0.0535016 -1.34045 -0.866702 0.378356 0.325077 1
0.190458 -0.0547587 -1.3404 -0.882603 0.371333 0.288312 1
0.190068 -0.0559937 -1.33999 -0.890058 0.37426 0.260244 1
0.18967 -0.0572076 -1.33952 -0.895749 0.368323 0.248941 1
0.189322 -0.0584173 -1.33901 -0.896559 0.363263 0.253421 1
0.1891 -0.0595141 -1.33823 -0.884872 0.364156 0.290503 1
0.188531 -0.0607394 -1.33839 -0.843016 0.420407 0.335531 0.01
0.189065 -0.0605012 -1.33716 -0.846518 0.363515 0.388928 1
0.189387 -0.0609226 -1.33591 -0.857429 0.354151 0.373353 1
0.190019 -0.0604492 -1.3348 -0.906815 0.336843 0.253425 1
0.190539 -0.0600246 -1.33362 -0.933207 0.326231 0.150659 1
0.190948 -0.0594557 -1.33246 -0.938375 0.332315 0.0949743 1
0.191335 -0.0586543 -1.33143 -0.926852 0.34978 0.136381 1
0.191853 -0.0576649 -1.33065 -0.911276 0.372121 0.176361 1
0.192373 -0.0566866 -1.32986 -0.896206 0.397997 0.195995 1
0.192889 -0.0558202 -1.32895 -0.896271 0.401915 0.18752 1
0.193483 -0.0549468 -1.32809 -0.898725 0.400377 0.178863 1
0.193951 -0.0544097 -1.32693 -0.893656 0.40595 0.191269 1
0.194462 -0.0535862 -1.32598 -0.890168 0.403232 0.212144 1
0.195209 -0.0525649 -1.32548 -0.890755 0.391805 0.230314 1
0.195804 -0.0515058 -1.32487 -0.889941 0.381761 0.249528 1
0.196491 -0.0504027 -1.32447 -0.884947 0.382596 0.265497 1
0.197077 -0.0492376 -1.32408 -0.87724 0.388125 0.282505 1
0.197747 -0.048229 -1.32346 -0.866287 0.396683 0.303628 1
0.198419 -0.0472801 -1.32276 -0.857523 0.405174 0.317001 0.01
0.199 -0.0460503 -1.32277 -0.853679 0.410562 0.320423 1
0.199365 -0.0448694 -1.32334 -0.85159 0.416561 0.318232 1
0.199745 -0.0436929 -1.32391 -0.849625 0.424739 0.312626 1
0.200052 -0.0425687 -1.32461 -0.849392 0.429829 0.306235 1
0.200098 -0.0416972 -1.32565 -0.847422 0.435366 0.303863 1
0.200122 -0.0408338 -1.3267 -0.844753 0.440844 0.303394 1
0.200138 -0.0400567 -1.32782 -0.836611 0.448182 0.314983 1
0.200193 -0.039197 -1.32887 -0.825421 0.458924 0.328739 1
0.20012 -0.038534 -1.33006 -0.812255 0.471813 0.342979 1
0.200216 -0.0376625 -1.3311 -0.813287 0.483829 0.323224 1
0.200575 -0.036589 -1.33185 -0.813228 0.494342 0.307061 1
0.201205 -0.0354101 -1.3321 -0.814181 0.501504 0.29258 1
0.201818 -0.0342341 -1.33241 -0.822163 0.498832 0.274253 1
0.202273 -0.0330955 -1.33299 -0.830482 0.496864 0.251843 1
0.202745 -0.0319921 -1.33363 -0.838594 0.497126 0.222767 1
0.203304 -0.030933 -1.33428 -0.84496 0.49939 0.191448 1
0.203911 -0.0298586 -1.33485 -0.85506 0.485738 0.181467 1
0.204432 -0.0286986 -1.33533 -0.860808 0.476223 0.179504 1
0.204962 -0.0277489 -1.33615 -0.856589 0.475704 0.199902 1
