# .PCD v0.7 - Point Cloud Data file format
# 4 51 0
# 1 20 0
# 21 31 0
# 32 49 0
# 50 51 0
VERSION 0.7
FIELDS x y z normal_x normal_y normal_z curvature
SIZE 4 4 4 4 4 4 4
TYPE F F F F F F F
COUNT 1 1 1 1 1 1 1
WIDTH 51
HEIGHT 1
VIEWPOINT 0 0 0 1 0 0 0
POINTS 51
DATA ascii
-0.23276 -0.13867 -1.51046 -0.837581 -0.0343036 -0.545235 0.01
-0.231654 -0.138416 -1.51189 -0.878753 -0.026872 -0.47652 1
-0.230888 -0.138057 -1.5135 -0.899853 -0.0225231 -0.435611 1
-0.229893 -0.138553 -1.51589 -0.936431 -0.0510788 -0.347114 1
-0.229294 -0.139626 -1.51723 -0.938081 -0.0663865 -0.339996 1
-0.228739 -0.139134 -1.5189 -0.938307 -0.0950073 -0.332497 1
-0.228076 -0.139901 -1.52041 -0.935615 -0.126942 -0.32941 1
-0.227518 -0.139835 -1.52215 -0.940304 -0.14182 -0.30938 1
-0.227017 -0.139736 -1.5239 -0.94866 -0.13477 -0.286149 1
-0.2265 -0.140738 -1.52533 -0.952082 -0.128925 -0.27734 1
-0.225964 -0.142073 -1.52645 -0.953591 -0.121183 -0.275641 1
-0.225419 -0.142931 -1.52796 -0.95721 -0.111497 -0.267054 1
-0.224915 -0.144161 -1.52921 -0.960783 -0.100656 -0.258389 1
-0.224383 -0.145076 -1.53069 -0.964568 -0.0971466 -0.245297 1
-0.223987 -0.146388 -1.53189 -0.967519 -0.0880439 -0.236973 1
-0.22371 -0.148099 -1.53245 -0.967914 -0.0781964 -0.238804 1
-0.223333 -0.149483 -1.53358 -0.966053 -0.0888511 -0.242583 1
-0.223172 -0.15129 -1.53375 -0.962926 -0.0957953 -0.252183 1
-0.222748 -0.152626 -1.53492 -0.968317 -0.0772086 -0.23749 1
-0.222392 -0.154166 -1.53582 -0.972378 -0.0398928 -0.229977 1
-0.222105 -0.155717 -1.53674 -0.967958 -0.0205916 -0.250267 1
-0.22201 -0.157504 -1.53708 -0.961347 0.00109246 -0.275336 1
-0.222137 -0.159277 -1.53668 -0.948148 0.0400586 -0.315294 0.01
-0.222731 -0.160156 -1.5352 -0.946 0.0567519 -0.319161 1
-0.223333 -0.161142 -1.53379 -0.94739 0.0593781 -0.314525 1
-0.223826 -0.161633 -1.5321 -0.950482 0.0621644 -0.3045 1
-0.224406 -0.162393 -1.53055 -0.943211 0.0843963 -0.321294 1
-0.225019 -0.163167 -1.52902 -0.938357 0.0984985 -0.331337 1
-0.225652 -0.163701 -1.5274 -0.938689 0.104826 -0.328443 1
-0.226262 -0.164584 -1.52592 -0.941413 0.112087 -0.318085 1
-0.226818 -0.165758 -1.52464 -0.942727 0.127681 -0.308163 1
-0.227433 -0.167004 -1.52346 -0.930822 0.174699 -0.321016 1
-0.228117 -0.167631 -1.5219 -0.905863 0.233046 -0.353698 1
-0.228929 -0.168785 -1.52074 -0.884803 0.277779 -0.374115 0.01
-0.229124 -0.167461 -1.51951 -0.891487 0.254068 -0.3751 1
-0.228754 -0.165691 -1.51928 -0.906577 0.184301 -0.379674 1
-0.22854 -0.163938 -1.51883 -0.919049 0.12202 -0.374779 1
-0.228617 -0.162192 -1.51831 -0.926339 0.0648579 -0.371065 1
-0.228838 -0.160555 -1.51754 -0.917131 0.032582 -0.397253 1
-0.228947 -0.158779 -1.51714 -0.909122 0.0202775 -0.416035 1
-0.229318 -0.157063 -1.51666 -0.906013 0.0153416 -0.422972 1
-0.229715 -0.155361 -1.51614 -0.903311 0.00690057 -0.428931 1
-0.229449 -0.153573 -1.5159 -0.907499 -0.00299064 -0.420044 1
-0.229798 -0.151889 -1.5153 -0.905861 -0.00903552 -0.423478 1
-0.229864 -0.150068 -1.51526 -0.911263 -0.0200798 -0.411334 1
-0.230148 -0.148368 -1.51467 -0.915311 -0.0170382 -0.402387 1
-0.230589 -0.146854 -1.51375 -0.916704 -0.0102635 -0.399434 1
-0.231006 -0.145287 -1.51292 -0.911402 -0.0172562 -0.411155 1
-0.231338 -0.143637 -1.51222 -0.903548 -0.0249509 -0.42776 1
-0.231747 -0.141994 -1.51155 -0.878949 -0.0405925 -0.475184 1
-0.232201 -0.140301 -1.51105 -0.859406 -0.0444509 -0.509359 1
