# .PCD v0.7 - Point Cloud Data file format
# 3 34 0
# 1 5 0
# 6 24 0
# 25 34 0
VERSION 0.7
FIELDS x y z normal_x normal_y normal_z curvature
SIZE 4 4 4 4 4 4 4
TYPE F F F F F F F
COUNT 1 1 1 1 1 1 1
WIDTH 34
HEIGHT 1
VIEWPOINT 0 0 0 1 0 0 0
POINTS 34
DATA ascii
-0.22834 -0.167659 -1.52101 -0.849291 0.285923 -0.443794 0.01
-0.232445 -0.137711 -1.51082 -0.443767 0.149058 -0.883658 1
-0.231993 -0.139661 -1.51138 -0.421317 0.174784 -0.889912 1
-0.232522 -0.140966 -1.51206 -0.000992919 0.316258 -0.948673 1
-0.234357 -0.141411 -1.51293 0.490727 0.504629 -0.710307 1
-0.235624 -0.140445 -1.5141 0.405436 0.608809 -0.68189 0.01
-0.235892 -0.139421 -1.51497 0.98043 0.155808 0.120339 1
-0.233898 -0.138838 -1.51496 -0.911584 -0.0534632 -0.407624 1
-0.231893 -0.138648 -1.51533 -0.924205 -0.0483996 -0.378817 1
-0.230058 -0.138674 -1.51606 -0.931309 -0.0578569 -0.359606 1
-0.229263 -0.139053 -1.51794 -0.921434 -0.10749 -0.373371 1
-0.228475 -0.139444 -1.51982 -0.932347 -0.0760909 -0.353468 1
-0.227695 -0.139846 -1.5217 -0.941687 -0.153138 -0.299623 1
-0.227206 -0.139919 -1.52372 -0.959164 -0.232246 -0.161453 1
-0.226635 -0.140576 -1.52545 -0.938227 -0.269384 -0.217169 1
-0.225955 -0.14201 -1.52679 -0.945358 -0.226254 -0.234751 1
-0.225334 -0.14312 -1.52842 -0.968689 -0.161821 -0.188297 1
-0.224756 -0.144369 -1.52992 -0.968608 -0.110594 -0.222636 1
-0.224263 -0.146098 -1.53096 -0.967999 -0.0930402 -0.233069 1
-0.223792 -0.147621 -1.53227 -0.970853 -0.075733 -0.227395 1
-0.22335 -0.149133 -1.53359 -0.965529 -0.0928972 -0.243156 1
-0.223033 -0.151071 -1.53427 -0.962083 -0.100094 -0.253725 1
-0.222686 -0.152915 -1.53514 -0.960778 -0.0687541 -0.268659 1
-0.222315 -0.154686 -1.53616 -0.961162 -0.039226 -0.273184 1
-0.222241 -0.156754 -1.53635 -0.966852 0.0253007 -0.25408 0.01
-0.222425 -0.158527 -1.53583 -0.949198 0.018497 -0.314135 1
-0.222953 -0.15991 -1.53437 -0.917821 -0.0412834 -0.394843 1
-0.223595 -0.160592 -1.53255 -0.966607 -0.12907 -0.221386 1
-0.224245 -0.161349 -1.53076 -0.957693 -0.222664 -0.182335 1
-0.224866 -0.162587 -1.52921 -0.900238 -0.334309 -0.278943 1
-0.225538 -0.163761 -1.52763 -0.00108118 0.122521 -0.992465 1
-0.226232 -0.164927 -1.52606 -0.811539 -0.57366 -0.110989 1
-0.226924 -0.166205 -1.52458 -0.951244 0.0173987 -0.307947 1
-0.227628 -0.167083 -1.52288 -0.891852 0.259526 -0.370468 1
