# .PCD v0.7 - Point Cloud Data file format
# 5 140 0
# 1 18 0
# 19 48 0
# 49 94 0
# 95 126 0
# 127 140 0
VERSION 0.7
FIELDS x y z normal_x normal_y normal_z curvature
SIZE 4 4 4 4 4 4 4
TYPE F F F F F F F
COUNT 1 1 1 1 1 1 1
WIDTH 140
HEIGHT 1
VIEWPOINT 0 0 0 1 0 0 0
POINTS 140
DATA ascii
0.00850577 -0.136293 -1.4669 0.976512 0.170254 -0.132052 0.01
0.00890263 -0.135185 -1.46571 0.983637 0.138805 -0.114856 1
0.0092321 -0.133791 -1.46483 0.989771 0.0901053 -0.110605 1
0.00889626 -0.132689 -1.46361 0.992859 0.0582352 -0.104113 1
0.00905134 -0.132153 -1.46203 0.992971 0.053434 -0.105607 1
0.00916366 -0.131371 -1.46055 0.992318 0.049204 -0.113509 1
0.00939585 -0.131148 -1.4589 0.988808 0.060643 -0.136316 1
0.00956514 -0.130492 -1.45737 0.984848 0.0672532 -0.159845 1
0.00979462 -0.129537 -1.45601 0.982181 0.0789841 -0.170535 1
0.00992531 -0.129193 -1.45437 0.977944 0.0968233 -0.185072 1
0.0103363 -0.12878 -1.4528 0.974399 0.11143 -0.19527 1
0.0105036 -0.127776 -1.45146 0.973075 0.120596 -0.19642 1
0.0105817 -0.12713 -1.44992 0.971132 0.130048 -0.199976 1
0.0107221 -0.126145 -1.44857 0.970051 0.137692 -0.200104 1
0.0110081 -0.125876 -1.44693 0.969009 0.143663 -0.200953 1
0.01201 -0.12487 -1.44198 0.972412 0.150826 -0.177952 1
0.0121373 -0.123974 -1.44057 0.973587 0.153382 -0.169119 1
0.0122319 -0.123091 -1.43914 0.974751 0.155798 -0.159964 1
0.0123606 -0.122393 -1.43762 0.974568 0.145837 -0.170144 1
0.0125839 -0.122184 -1.43597 0.970313 0.123736 -0.207805 1
0.0127442 -0.121622 -1.4344 0.96183 0.101698 -0.254047 1
0.0131609 -0.121266 -1.43281 0.948908 0.0818348 -0.304757 1
0.0139336 -0.120764 -1.43141 0.931344 0.062501 -0.358737 1
0.0145437 -0.119824 -1.43016 0.910059 0.0417348 -0.412373 1
0.0150276 -0.119083 -1.42874 0.907579 0.0724872 -0.413577 1
0.0153213 -0.118475 -1.4272 0.912667 0.120129 -0.390651 1
0.015772 -0.117278 -1.42612 0.918956 0.161986 -0.359557 1
0.0164001 -0.116865 -1.42461 0.920566 0.193294 -0.339404 1
0.0169639 -0.117159 -1.42306 0.925054 0.204347 -0.320185 1
0.0174832 -0.118093 -1.42177 0.935379 0.182705 -0.302795 1
0.0179951 -0.119216 -1.42063 0.942514 0.155209 -0.295936 1
0.0185878 -0.119122 -1.41906 0.942919 0.170846 -0.285858 1
0.0191992 -0.119569 -1.41757 0.938844 0.171293 -0.298715 0.01
0.0195768 -0.120856 -1.41656 0.933709 0.135942 -0.331222 1
0.0197935 -0.122518 -1.41647 0.933078 0.092621 -0.347543 1
0.020228 -0.123957 -1.41573 0.928223 0.0752897 -0.364327 1
0.0206721 -0.125492 -1.41522 0.925809 0.0678639 -0.37185 1
0.0205564 -0.127157 -1.41539 0.92666 0.0723212 -0.368878 1
0.0204799 -0.12878 -1.41581 0.927515 0.0860295 -0.36375 1
0.0208272 -0.130374 -1.41542 0.927653 0.0974413 -0.360507 1
0.0215452 -0.131609 -1.41454 0.928155 0.0994381 -0.358666 1
0.0215225 -0.133284 -1.41463 0.930437 0.10961 -0.349676 1
0.0216554 -0.134951 -1.41478 0.932799 0.119324 -0.340071 1
0.0222229 -0.136075 -1.41367 0.932535 0.118394 -0.341119 1
0.0225496 -0.137698 -1.41339 0.934003 0.123896 -0.335095 1
0.0228302 -0.139332 -1.41313 0.936521 0.126253 -0.327091 1
0.0232774 -0.140574 -1.4121 0.937751 0.122989 -0.324803 1
0.0235975 -0.142214 -1.41195 0.940608 0.128588 -0.314201 1
0.0245133 -0.143478 -1.41133 0.942714 0.129469 -0.307453 1
0.0247669 -0.145084 -1.41092 0.945873 0.138148 -0.293666 1
0.0250071 -0.146639 -1.41033 0.945382 0.157974 -0.285128 1
0.0254446 -0.148078 -1.40959 0.942043 0.177699 -0.284565 1
0.025964 -0.149492 -1.40885 0.937707 0.19482 -0.287664 1
0.0261651 -0.15115 -1.40869 0.935867 0.217756 -0.277013 1
0.0268045 -0.152476 -1.40788 0.929599 0.227153 -0.290255 1
0.0270052 -0.154123 -1.40763 0.929745 0.234908 -0.283534 1
0.027719 -0.155535 -1.40707 0.927171 0.231689 -0.294403 1
0.0289684 -0.156181 -1.40616 0.916987 0.22536 -0.329162 1
0.0294752 -0.157577 -1.40537 0.908325 0.221381 -0.354874 1
0.0297224 -0.159179 -1.40494 0.901682 0.212785 -0.376421 1
0.0301998 -0.160783 -1.40482 0.903881 0.183777 -0.386296 1
0.0302655 -0.16245 -1.40464 0.90448 0.161225 -0.39487 1
0.0301271 -0.164109 -1.40486 0.90874 0.15006 -0.389454 0.01
0.0302789 -0.165452 -1.40585 0.915522 0.146997 -0.374448 1
0.0308242 -0.166957 -1.40636 0.917192 0.148008 -0.369937 1
0.0306076 -0.168463 -1.40706 0.920651 0.152153 -0.359516 1
0.030054 -0.169587 -1.40818 0.92581 0.155691 -0.344437 1
0.0297451 -0.170868 -1.40922 0.929436 0.159529 -0.332714 1
0.029385 -0.17184 -1.41054 0.934722 0.164583 -0.314972 1
0.0292059 -0.17294 -1.41179 0.938128 0.175532 -0.298505 1
0.0291071 -0.173788 -1.41324 0.940193 0.188489 -0.28374 1
0.0287983 -0.174357 -1.41479 0.941104 0.200515 -0.272244 1
0.0285846 -0.175167 -1.41624 0.939887 0.21732 -0.26341 1
0.0285228 -0.176286 -1.41749 0.935989 0.241702 -0.25594 1
0.0284274 -0.17735 -1.41878 0.93012 0.25934 -0.260037 1
0.0286413 -0.178537 -1.41995 0.923624 0.276381 -0.26558 1
0.0285049 -0.179444 -1.42135 0.919747 0.284307 -0.270619 1
0.0283281 -0.180289 -1.42279 0.917505 0.288464 -0.273813 1
0.0282018 -0.181126 -1.42424 0.916476 0.290321 -0.275291 1
0.0276584 -0.181537 -1.42578 0.919055 0.285161 -0.272068 1
0.0272138 -0.181991 -1.42733 0.921717 0.27978 -0.268627 1
0.0268345 -0.18219 -1.42895 0.925189 0.272685 -0.263946 1
0.0264689 -0.18238 -1.43058 0.928658 0.265929 -0.258603 1
0.0257831 -0.181761 -1.43198 0.934342 0.254521 -0.249449 1
0.0253714 -0.182049 -1.43358 0.937579 0.249036 -0.242748 1
0.0251708 -0.182428 -1.4352 0.94066 0.244326 -0.235505 1
0.02474 -0.182038 -1.43678 0.946259 0.234136 -0.2231 1
0.0242862 -0.181771 -1.43837 0.952072 0.222253 -0.210148 1
0.0238328 -0.181267 -1.4399 0.953396 0.22064 -0.205802 1
0.0236118 -0.181416 -1.44156 0.953646 0.220293 -0.205012 0.238215
0.0234083 -0.181403 -1.44323 0.953464 0.221005 -0.205093 0.989513
0.02285 -0.180962 -1.44475 0.952837 0.223449 -0.205357 1
0.0223345 -0.18063 -1.44631 0.952589 0.225243 -0.204549 1
0.0219419 -0.180593 -1.44794 0.953202 0.225197 -0.201724 1
0.0214804 -0.180799 -1.44954 0.954824 0.222946 -0.196484 1
0.0211905 -0.181089 -1.45117 0.956826 0.221058 -0.188724 1
0.0209629 -0.181226 -1.45282 0.957933 0.220059 -0.184225 1
0.0208258 -0.181314 -1.45449 0.957626 0.220996 -0.184696 1
0.0205723 -0.181641 -1.45612 0.956657 0.2223 -0.188123 1
0.0208476 -0.182633 -1.45744 0.954074 0.229935 -0.192023 1
0.0205738 -0.18313 -1.45902 0.951302 0.235305 -0.199139 1
0.0202503 -0.183258 -1.46067 0.95037 0.256197 -0.176523 1
0.0199363 -0.183006 -1.46229 0.953009 0.274868 -0.127366 1
0.0194937 -0.182641 -1.46387 0.956282 0.285006 -0.0655553 1
0.0195684 -0.183301 -1.46541 0.951778 0.306458 0.0141849 1
0.019789 -0.184033 -1.46691 0.945222 0.31314 0.0921897 1
0.0201388 -0.183723 -1.46852 0.934975 0.303488 0.183619 1
0.0205859 -0.183728 -1.47013 0.916882 0.288669 0.275678 1
0.0213008 -0.184332 -1.47153 0.899712 0.265932 0.346119 0.01
0.0209229 -0.182772 -1.47202 0.883579 0.273556 0.380072 1
0.0207794 -0.181198 -1.47258 0.856124 0.375827 0.354692 1
0.0203653 -0.179574 -1.4725 0.847532 0.441879 0.293994 1
0.0196267 -0.178307 -1.47169 0.865986 0.448713 0.220735 1
0.0187572 -0.177038 -1.47102 0.885789 0.440967 0.14466 1
0.0180112 -0.175559 -1.47075 0.899561 0.43086 0.0717562 1
0.0172489 -0.174097 -1.47044 0.914687 0.404153 -0.00276778 1
0.0165834 -0.172557 -1.47039 0.932506 0.356393 -0.0584594 1
0.0154794 -0.171551 -1.47115 0.943559 0.32525 -0.0625174 1
0.0145605 -0.170528 -1.47211 0.952178 0.299897 -0.0584715 1
0.0135673 -0.169254 -1.47257 0.963529 0.258394 -0.0695972 1
0.0137672 -0.167897 -1.47353 0.970888 0.230349 -0.0656955 1
0.0137172 -0.166223 -1.47343 0.978872 0.186578 -0.0836527 1
0.0136075 -0.164573 -1.47371 0.979483 0.17445 -0.100892 1
0.0134244 -0.162908 -1.47381 0.979521 0.165761 -0.114291 1
0.0132273 -0.161242 -1.47378 0.979283 0.160692 -0.123216 1
0.0131108 -0.15957 -1.4737 0.979193 0.158769 -0.126389 1
0.0129877 -0.157942 -1.47332 0.979693 0.155293 -0.126827 1
0.0125201 -0.156536 -1.47253 0.980186 0.150235 -0.12909 1
0.0121828 -0.154923 -1.47221 0.977329 0.157364 -0.141646 1
0.0119129 -0.153445 -1.47147 0.975211 0.161291 -0.15149 1
0.0116598 -0.151788 -1.47154 0.969899 0.176596 -0.16766 1
0.0114185 -0.150198 -1.47106 0.965009 0.18996 -0.180754 1
0.0113236 -0.148561 -1.47071 0.958394 0.209017 -0.194403 1
0.0112159 -0.146962 -1.47021 0.950486 0.231721 -0.20708 1
0.0109953 -0.145544 -1.46934 0.943274 0.259055 -0.207666 1
0.0106506 -0.14393 -1.46903 0.945799 0.263642 -0.189624 1
0.0103368 -0.142284 -1.46911 0.950207 0.257713 -0.175187 1
0.00987437 -0.140823 -1.46843 0.954567 0.251012 -0.160608 1
0.0095013 -0.139198 -1.46824 0.961014 0.231522 -0.15116 1
0.00904632 -0.137776 -1.46747 0.968321 0.207047 -0.139595 1
