# .PCD v0.7 - Point Cloud Data file format
# 5 189 0
# 1 2 0
# 3 73 0
# 74 98 0
# 99 164 0
# 165 189 0
VERSION 0.7
FIELDS x y z normal_x normal_y normal_z curvature
SIZE 4 4 4 4 4 4 4
TYPE F F F F F F F
COUNT 1 1 1 1 1 1 1
WIDTH 189
HEIGHT 1
VIEWPOINT 0 0 0 1 0 0 0
POINTS 189
DATA ascii
-0.0256127 0.229939 -1.53513 -0.997244 -0.0683416 0.0288737 0.01
-0.0251455 0.22889 -1.53667 -0.995122 -0.0951531 0.0260232 1
-0.0249239 0.227242 -1.53763 -0.989453 -0.143006 0.023068 1
-0.024669 0.225882 -1.53895 -0.981257 -0.191676 0.0198936 1
-0.0243197 0.22422 -1.53984 -0.964008 -0.265201 0.0189046 1
-0.0239947 0.222498 -1.54062 -0.932818 -0.359741 0.0209099 1
-0.0229336 0.22096 -1.54105 -0.952372 -0.304109 0.0224878 1
-0.0227016 0.21935 -1.54207 -0.972095 -0.232964 0.0275507 1
-0.0225191 0.217626 -1.54289 -0.985913 -0.163634 0.0346254 1
-0.0222147 0.215821 -1.54346 -0.993891 -0.102262 0.0415144 1
-0.0219872 0.213984 -1.54396 -0.993629 -0.103334 0.0449738 1
-0.0218302 0.212173 -1.54457 -0.993357 -0.106295 0.0440906 1
-0.0216384 0.210372 -1.5452 -0.993004 -0.111422 0.0390805 1
-0.0215047 0.208604 -1.54593 -0.992437 -0.119022 0.0300408 1
-0.021256 0.206708 -1.54608 -0.990938 -0.132774 0.0203011 1
-0.0211428 0.204944 -1.54682 -0.988973 -0.147792 0.00945784 1
-0.0208194 0.203091 -1.54719 -0.986956 -0.160989 0.000131331 1
-0.0204933 0.201233 -1.54753 -0.984844 -0.173253 -0.0081457 1
-0.0202032 0.199338 -1.54748 -0.988098 -0.153348 -0.0121149 1
-0.0199026 0.197452 -1.5473 -0.992228 -0.124158 -0.00827175 1
-0.0195773 0.195571 -1.54712 -0.995382 -0.095937 0.0032539 1
-0.0194253 0.193716 -1.54758 -0.997908 -0.0616672 0.019398 1
-0.0193566 0.192033 -1.5485 -0.998881 -0.0284931 0.0377495 1
-0.0193405 0.190255 -1.54778 -0.998481 -0.0130843 0.0535278 1
-0.0194414 0.18845 -1.54842 -0.9982 0.0119998 0.0587564 1
-0.0195539 0.186616 -1.54897 -0.998069 0.0304451 0.0541471 1
-0.019674 0.184678 -1.54977 -0.999002 0.0208608 0.0394957 1
-0.0193491 0.183121 -1.5487 -0.999429 0.00991414 0.0323171 0.01
-0.0195738 0.182525 -1.54689 -0.99936 0.0091923 0.034569 1
-0.0193135 0.182457 -1.54499 -0.999095 0.0142998 0.040066 1
-0.0190965 0.182781 -1.54311 -0.998609 0.02428 0.0468051 1
-0.0189013 0.182447 -1.54124 -0.998373 0.021982 0.0526111 1
-0.0188719 0.182156 -1.53934 -0.998053 0.0188386 0.0594577 1
-0.0188447 0.181407 -1.53758 -0.997752 0.00700875 0.0666494 1
-0.0186583 0.180726 -1.53579 -0.997164 -0.00389487 0.0751646 1
-0.0187069 0.180027 -1.53401 -0.996299 -0.0146309 0.084699 1
-0.0185178 0.180107 -1.5321 -0.995252 -0.0136473 0.0963649 1
-0.0184626 0.179937 -1.53019 -0.994585 -0.0190005 0.102177 1
-0.0181585 0.179472 -1.52836 -0.995197 -0.0279498 0.0938203 1
-0.0180106 0.179065 -1.52649 -0.996084 -0.0286955 0.0836273 1
-0.0179301 0.178727 -1.5246 -0.997206 -0.0186365 0.0723342 1
-0.0178819 0.179181 -1.52274 -0.99779 -0.0141905 0.0649069 1
-0.0180761 0.17938 -1.52084 -0.998339 -0.00083382 0.0576014 1
-0.0174182 0.178925 -1.5191 -0.998826 0.0172639 0.0452649 1
-0.0170727 0.178654 -1.51724 -0.998745 0.037266 0.0334483 1
-0.0170268 0.178393 -1.51534 -0.998131 0.0573178 0.0212027 1
-0.0170726 0.177887 -1.51349 -0.997448 0.0706292 0.0104149 1
-0.0170826 0.177724 -1.51158 -0.996632 0.0817779 0.00614881 1
-0.0176785 0.176656 -1.5101 -0.997727 0.0673865 0.000246247 1
-0.0181321 0.175726 -1.50849 -0.998579 0.0532721 -0.00121727 1
-0.0178949 0.174752 -1.50685 -0.99929 0.0376876 -0.000394208 1
-0.0175902 0.1751 -1.50499 -0.99914 0.0414563 9.78883e-05 0.346866
-0.017491 0.175045 -1.50308 -0.999298 0.037456 0.000904367 1
-0.0174687 0.175155 -1.50116 -0.999409 0.0343427 0.00127806 1
-0.0177586 0.174186 -1.49953 -0.999806 0.0191939 0.00445846 1
-0.0176469 0.174458 -1.49764 -0.999852 0.0170197 0.00230557 1
-0.0173956 0.174516 -1.49574 -0.999902 0.0130459 -0.00511709 1
-0.0174213 0.173856 -1.49394 -0.999887 0.0101069 -0.0111043 1
-0.0176443 0.173059 -1.49221 -0.999768 0.0120553 -0.0178481 1
-0.0177585 0.172496 -1.49038 -0.999531 0.0168389 -0.0255773 1
-0.0178763 0.172346 -1.48847 -0.99923 0.0210578 -0.03312 1
-0.0178852 0.1728 -1.48661 -0.999026 0.019886 -0.0393815 1
-0.0181902 0.173373 -1.4848 -0.998848 0.0156313 -0.0453641 1
-0.0182141 0.173977 -1.48298 -0.998642 0.0089477 -0.0513277 1
-0.0181269 0.174337 -1.4811 -0.998336 0.00458864 -0.0574848 1
-0.0182918 0.174514 -1.4792 -0.997564 0.00222227 -0.0697282 1
-0.0185942 0.174604 -1.47731 -0.996496 -0.00153921 -0.0836305 1
-0.0190509 0.174231 -1.47548 -0.995341 0.000751989 -0.0964116 1
-0.0187978 0.174012 -1.4736 -0.994005 -0.00248072 -0.109303 1
-0.0189636 0.17265 -1.47226 -0.993638 0.014155 -0.11173 1
-0.019022 0.171935 -1.47048 -0.992878 0.0136476 -0.118354 1
-0.0192197 0.170515 -1.4692 -0.993205 0.0230526 -0.114073 1
-0.0195584 0.170628 -1.46732 -0.992094 0.00262567 -0.125467 1
-0.0197751 0.171178 -1.4655 -0.989337 -0.0260735 -0.143291 1
-0.0201201 0.171251 -1.46361 -0.986065 -0.0528625 -0.157736 1
-0.020429 0.171617 -1.46175 -0.980708 -0.0838299 -0.176591 1
-0.0207529 0.172272 -1.45998 -0.973241 -0.115363 -0.198731 1
-0.0211004 0.172555 -1.45812 -0.96592 -0.142132 -0.216328 1
-0.0215017 0.172581 -1.45624 -0.958819 -0.165341 -0.230928 1
-0.0220283 0.172987 -1.45444 -0.950262 -0.186815 -0.249203 1
-0.0226771 0.173517 -1.45272 -0.942044 -0.20278 -0.267269 1
-0.0232944 0.173297 -1.45092 -0.93529 -0.217236 -0.279359 1
-0.0238992 0.173011 -1.44912 -0.928252 -0.231364 -0.291239 1
-0.0245758 0.173956 -1.4476 -0.925784 -0.225085 -0.303744 1
-0.0251855 0.174422 -1.44584 -0.928004 -0.220466 -0.300338 1
-0.0257095 0.174217 -1.44401 -0.928052 -0.228547 -0.294085 1
-0.0264315 0.174939 -1.44238 -0.933978 -0.207634 -0.290814 1
-0.0269926 0.176026 -1.44091 -0.943499 -0.164438 -0.287697 1
-0.0275515 0.177102 -1.43942 -0.941573 -0.178387 -0.285688 1
-0.0279057 0.176523 -1.43763 -0.943689 -0.174018 -0.28137 1
-0.0283377 0.176328 -1.43577 -0.94385 -0.180174 -0.276921 1
-0.0288052 0.1763 -1.43391 -0.942465 -0.193139 -0.272868 1
-0.0293827 0.175775 -1.43216 -0.941236 -0.200338 -0.271917 1
-0.030035 0.17569 -1.43036 -0.933438 -0.207323 -0.292765 1
-0.0307221 0.17597 -1.42859 -0.924112 -0.220979 -0.311745 1
-0.0314294 0.176279 -1.42683 -0.914498 -0.235795 -0.328777 1
-0.0322403 0.175966 -1.42512 -0.907857 -0.243239 -0.341513 1
-0.032901 0.176248 -1.42335 -0.898111 -0.259009 -0.355402 1
-0.0337966 0.176546 -1.42168 -0.887728 -0.275738 -0.368656 0.01
-0.0348681 0.177567 -1.42046 -0.874339 -0.297651 -0.383321 1
-0.0353205 0.179291 -1.41975 -0.861289 -0.319649 -0.394975 1
-0.036277 0.180486 -1.4186 -0.848159 -0.338938 -0.407121 1
-0.0370578 0.18223 -1.41843 -0.826456 -0.382266 -0.413332 1
-0.0380468 0.183698 -1.41769 -0.802548 -0.423613 -0.420081 1
-0.0389927 0.185353 -1.41749 -0.778946 -0.464053 -0.421778 1
-0.0399773 0.186959 -1.41784 -0.757252 -0.501382 -0.418551 1
-0.041108 0.188508 -1.41782 -0.760212 -0.496145 -0.419426 1
-0.0422299 0.190063 -1.41782 -0.764399 -0.488751 -0.420495 1
-0.0432017 0.191712 -1.41771 -0.768217 -0.481678 -0.421698 1
-0.0441953 0.193352 -1.41768 -0.771674 -0.474826 -0.423156 1
-0.045115 0.195035 -1.41768 -0.775542 -0.466117 -0.425757 1
-0.046153 0.196643 -1.41757 -0.77839 -0.457268 -0.430133 1
-0.0472671 0.198134 -1.41711 -0.779413 -0.450092 -0.435812 1
-0.0484918 0.199437 -1.41641 -0.778363 -0.445423 -0.442435 1
-0.0495873 0.20101 -1.41635 -0.770995 -0.450765 -0.449864 1
-0.0504271 0.20272 -1.41657 -0.754779 -0.476534 -0.450804 1
-0.0513179 0.204417 -1.41663 -0.738799 -0.504794 -0.446497 1
-0.0522231 0.206101 -1.41677 -0.722904 -0.535161 -0.43705 1
-0.053176 0.207716 -1.41717 -0.713358 -0.556444 -0.426017 1
-0.0541444 0.209278 -1.41772 -0.718173 -0.551177 -0.424772 1
-0.0551984 0.210693 -1.41847 -0.721888 -0.542179 -0.430023 1
-0.0558568 0.212218 -1.41942 -0.724604 -0.529052 -0.441648 1
-0.056888 0.213741 -1.41888 -0.747916 -0.477292 -0.461318 1
-0.0571282 0.215453 -1.41971 -0.774299 -0.411431 -0.480817 0.01
-0.0567379 0.216161 -1.42145 -0.78622 -0.383899 -0.48423 1
-0.0558994 0.216507 -1.42314 -0.791931 -0.373377 -0.483151 1
-0.0548956 0.216652 -1.42477 -0.79346 -0.37201 -0.481694 1
-0.0541856 0.21705 -1.42651 -0.796861 -0.364157 -0.482081 0.731262
-0.0531457 0.217057 -1.42812 -0.794702 -0.369527 -0.481558 0.960329
-0.0526218 0.217574 -1.42989 -0.798115 -0.3608 -0.482531 1
-0.0515978 0.21771 -1.4315 -0.795607 -0.36578 -0.482923 1
-0.0503813 0.217523 -1.43297 -0.787997 -0.381019 -0.483616 1
-0.0494512 0.21777 -1.43463 -0.784441 -0.385192 -0.486086 1
-0.0484576 0.2179 -1.43627 -0.779187 -0.392336 -0.488815 1
-0.0474734 0.218082 -1.4379 -0.77478 -0.397819 -0.491381 1
-0.0464978 0.218163 -1.43955 -0.769666 -0.404822 -0.493693 1
-0.0453543 0.218001 -1.44108 -0.761362 -0.418528 -0.495139 1
-0.0443763 0.218063 -1.44273 -0.757306 -0.423798 -0.496873 1
-0.0438067 0.218697 -1.44445 -0.761281 -0.412561 -0.500244 1
-0.0430505 0.21918 -1.44614 -0.76193 -0.408155 -0.502863 1
-0.0420898 0.219457 -1.44778 -0.760371 -0.408362 -0.50505 1
-0.0410685 0.219646 -1.44939 -0.765149 -0.413538 -0.493491 1
-0.0401816 0.219995 -1.45105 -0.771781 -0.417323 -0.479788 1
-0.0394809 0.22043 -1.45279 -0.77819 -0.421256 -0.465794 1
-0.0387722 0.220805 -1.45453 -0.78404 -0.425892 -0.45155 1
-0.0375827 0.220566 -1.45601 -0.791438 -0.425639 -0.4387 1
-0.0368254 0.220995 -1.45772 -0.797496 -0.42895 -0.424266 1
-0.0362267 0.221489 -1.45947 -0.802498 -0.433733 -0.409723 1
-0.0355739 0.221816 -1.46125 -0.808253 -0.436594 -0.395111 1
-0.0349301 0.222173 -1.46302 -0.813875 -0.439092 -0.380534 1
-0.034281 0.222509 -1.46479 -0.819398 -0.440143 -0.367235 1
-0.0337378 0.222909 -1.46659 -0.824143 -0.441577 -0.354681 1
-0.0330432 0.22307 -1.46837 -0.831093 -0.438614 -0.34191 1
-0.0323243 0.223198 -1.47014 -0.838643 -0.434034 -0.329078 1
-0.0323045 0.223796 -1.47196 -0.840267 -0.438582 -0.318743 1
-0.0311448 0.223235 -1.47338 -0.854074 -0.420949 -0.305546 1
-0.0305851 0.223408 -1.47521 -0.861474 -0.414861 -0.292836 1
-0.0302422 0.223896 -1.47703 -0.865473 -0.4141 -0.281917 1
-0.0299271 0.224388 -1.47886 -0.869628 -0.412324 -0.271545 1
-0.0295896 0.224879 -1.48068 -0.874652 -0.409297 -0.25973 1
-0.0294605 0.22543 -1.48251 -0.879601 -0.407546 -0.245375 1
-0.0287393 0.225392 -1.48429 -0.890571 -0.394644 -0.226141 1
-0.0283956 0.225692 -1.48615 -0.898298 -0.386483 -0.209028 1
-0.0279631 0.225851 -1.48801 -0.907159 -0.375165 -0.190561 1
-0.0272776 0.225471 -1.48976 -0.918073 -0.358834 -0.168466 1
-0.0270152 0.225574 -1.49166 -0.925902 -0.347048 -0.149208 1
-0.0272697 0.226249 -1.49343 -0.93172 -0.336149 -0.137486 1
-0.0270068 0.226104 -1.49533 -0.940354 -0.319824 -0.115965 1
-0.0265136 0.2255 -1.49708 -0.946377 -0.309981 -0.0910081 1
-0.0265108 0.22567 -1.49899 -0.950835 -0.295573 -0.0924658 1
-0.0265571 0.225897 -1.50089 -0.955544 -0.278822 -0.0958845 1
-0.0265202 0.225957 -1.50281 -0.959296 -0.264888 -0.0979083 1
-0.0260436 0.225423 -1.50459 -0.957973 -0.270467 -0.0955753 1
-0.0256107 0.225109 -1.50643 -0.957001 -0.274057 -0.0950845 1
-0.0259089 0.226427 -1.50779 -0.968609 -0.22589 -0.103784 1
-0.0256115 0.226433 -1.50968 -0.97049 -0.217183 -0.104789 1
-0.0252671 0.226352 -1.51157 -0.971505 -0.212291 -0.105403 1
-0.0252547 0.226937 -1.51339 -0.975779 -0.18973 -0.108892 1
-0.0248298 0.226696 -1.51525 -0.976578 -0.189901 -0.101156 1
-0.0248724 0.227514 -1.51698 -0.98222 -0.16457 -0.0903375 1
-0.0250857 0.228034 -1.51882 -0.986116 -0.147372 -0.076532 1
-0.024802 0.227861 -1.5207 -0.987845 -0.144161 -0.058136 1
-0.0245277 0.227407 -1.52255 -0.98837 -0.147089 -0.0385897 1
-0.024702 0.227976 -1.52437 -0.991201 -0.130556 -0.0217943 1
-0.0245745 0.227966 -1.52628 -0.991979 -0.1264 -0.000800323 1
-0.0243831 0.227404 -1.52811 -0.990355 -0.136949 0.0210025 1
-0.0245822 0.228157 -1.52986 -0.992137 -0.11765 0.0427029 1
-0.0246842 0.228472 -1.53175 -0.993206 -0.108891 0.0410414 1
-0.0251308 0.229421 -1.53335 -0.995971 -0.082946 0.0340778 1
