# .PCD v0.7 - Point Cloud Data file format
# 4 64 0
# 1 8 0
# 9 36 0
# 37 58 0
# 59 64 0
VERSION 0.7
FIELDS x y z normal_x normal_y normal_z curvature
SIZE 4 4 4 4 4 4 4
TYPE F F F F F F F
COUNT 1 1 1 1 1 1 1
WIDTH 64
HEIGHT 1
VIEWPOINT 0 0 0 1 0 0 0
POINTS 64
DATA ascii
0.298211 0.177894 -1.51648 -0.570124 0.600743 0.560417 0.01
0.29882 0.176366 -1.51529 -0.571919 0.580873 0.57922 1
0.299346 0.175172 -1.51376 -0.582841 0.549201 0.598894 1
0.29983 0.174146 -1.51207 -0.602583 0.507436 0.615956 1
0.300311 0.173089 -1.5104 -0.633661 0.452191 0.627692 1
0.300787 0.17197 -1.50877 -0.670364 0.418332 0.612871 1
0.301263 0.170851 -1.50714 -0.702885 0.418323 0.57529 1
0.289337 0.219548 -1.4916 -0.618983 -0.297318 -0.726954 1
0.287624 0.21857 -1.4911 -0.580631 0.33685 0.741215 1
0.285912 0.217592 -1.4906 -0.529367 0.250319 0.810624 1
0.284758 0.217957 -1.49144 0.0704956 -0.739285 -0.669692 1
0.283885 0.218994 -1.49296 0.0680374 -0.752758 -0.654772 1
0.283024 0.22003 -1.49449 -0.0374959 -0.783457 -0.620314 1
0.282188 0.221064 -1.49603 -0.477414 0.67361 0.564204 1
0.281353 0.222098 -1.49757 -0.45161 0.745132 0.490741 0.01
0.282046 0.223013 -1.49925 -0.38775 0.822089 0.416918 1
0.282739 0.223929 -1.50093 -0.316778 0.870579 0.376489 1
0.283429 0.224838 -1.50261 -0.248643 0.896889 0.365741 1
0.284118 0.225744 -1.5043 -0.206728 0.919362 0.334719 1
0.284525 0.226389 -1.5061 -0.271934 -0.958197 0.0889473 1
0.284371 0.226512 -1.50812 -0.233194 -0.877464 0.41914 1
0.284218 0.226634 -1.51015 -0.267937 0.955372 0.124392 1
0.283559 0.22672 -1.51207 -0.324404 -0.799887 -0.504918 1
0.282899 0.226806 -1.51399 -0.33307 0.941531 0.050839 1
0.282489 0.226812 -1.51598 -0.319047 0.944908 0.073193 1
0.282202 0.226778 -1.51799 -0.302062 0.95026 0.0759195 1
0.282045 0.226483 -1.51995 -0.309907 0.949995 0.0383055 1
0.282146 0.225665 -1.52181 -0.374923 0.922546 -0.0913342 1
0.282246 0.224848 -1.52367 -0.550644 -0.416999 -0.723121 1
0.282217 0.223876 -1.52546 -0.656406 0.645452 -0.390542 1
0.282188 0.222903 -1.52725 -0.518854 0.694943 -0.497841 1
0.2816 0.221619 -1.52861 -0.24267 -0.921408 -0.303511 1
0.280732 0.220179 -1.52975 -0.398563 0.669287 -0.627059 1
0.27988 0.218736 -1.53091 -0.349966 0.67962 -0.644701 1
0.27906 0.217286 -1.53207 -0.284027 0.745813 -0.602571 1
0.27824 0.215836 -1.53324 -0.151459 0.485966 -0.860754 1
0.277497 0.214392 -1.53447 -0.931351 -0.040542 0.361858 1
0.276754 0.212948 -1.53569 -0.361624 0.652728 -0.665713 1
0.276413 0.211308 -1.5368 -0.707182 0.658905 -0.256393 1
0.276273 0.20957 -1.53785 -0.686813 0.695356 -0.211584 1
0.276288 0.207743 -1.53852 -0.836581 0.154753 -0.525532 1
0.27661 0.205736 -1.53842 -0.323384 -0.56964 -0.755601 1
0.276931 0.20373 -1.53832 -0.188724 -0.678856 -0.709604 0.01
0.278935 0.20385 -1.53865 -0.046358 -0.693164 -0.719288 1
0.280939 0.203971 -1.53898 0.00036129 -0.691011 -0.722844 1
0.282872 0.203556 -1.53891 -0.0738971 -0.704999 -0.705348 1
0.28477 0.202873 -1.53864 -0.172648 -0.7241 -0.667737 1
0.28628 0.201949 -1.53804 -0.276406 -0.741755 -0.611064 1
0.287017 0.200542 -1.53677 -0.320495 -0.768653 -0.553584 1
0.287754 0.199135 -1.53549 -0.383287 -0.781972 -0.49154 1
0.288612 0.197916 -1.53411 -0.479287 -0.747266 -0.460301 1
0.28947 0.196696 -1.53273 -0.565145 -0.681477 -0.464973 1
0.290119 0.195459 -1.53126 -0.571716 -0.661106 -0.48588 1
0.290665 0.194212 -1.52974 -0.50622 -0.68979 -0.517621 1
0.291289 0.192889 -1.52835 -0.378111 -0.758293 -0.531058 1
0.292068 0.191413 -1.52718 -0.584817 -0.712018 -0.388612 1
0.292847 0.189938 -1.52602 -0.86542 -0.483445 -0.131638 1
0.293537 0.188479 -1.52478 -0.930918 -0.364802 -0.0176653 1
0.294226 0.18702 -1.52354 -0.958253 -0.281211 0.0516893 1
0.294914 0.185513 -1.52236 -0.589512 0.48333 0.6472 1
0.2956 0.183982 -1.52121 -0.584305 0.53477 0.610417 1
0.296278 0.182456 -1.52005 -0.580829 0.573074 0.57812 1
0.29694 0.180938 -1.51886 -0.5793 0.601172 0.550458 1
0.297602 0.179421 -1.51768 -0.574535 0.609898 0.545833 1
