# .PCD v0.7 - Point Cloud Data file format
# 3 25 0
# 1 4 0
# 5 23 0
# 24 25 0
VERSION 0.7
FIELDS x y z normal_x normal_y normal_z curvature
SIZE 4 4 4 4 4 4 4
TYPE F F F F F F F
COUNT 1 1 1 1 1 1 1
WIDTH 25
HEIGHT 1
VIEWPOINT 0 0 0 1 0 0 0
POINTS 25
DATA ascii
-0.210691 0.16064 -1.39486 0.842709 0.50563 -0.184878 0.01
-0.211132 0.162239 -1.39525 0.728388 0.602369 -0.326501 1
-0.21153 0.163892 -1.39534 0.639014 0.614792 -0.462268 1
-0.194158 0.150027 -1.38188 -0.0172694 -0.853722 -0.520443 1
-0.19349 0.149806 -1.38033 0.0360755 -0.849648 -0.526115 1
-0.193436 0.149685 -1.37863 0.0562566 -0.852364 -0.519914 1
-0.193744 0.149178 -1.37703 0.0550262 -0.85245 -0.519905 0.01
-0.195165 0.149153 -1.37797 -0.071606 -0.838613 -0.54 1
-0.196737 0.149193 -1.37862 0.875812 0.265483 -0.403078 1
-0.19838 0.148949 -1.379 -0.0816296 -0.759199 -0.64572 1
-0.200063 0.148716 -1.37912 0.525321 0.827771 0.19706 1
-0.201732 0.148385 -1.37918 0.497466 0.839584 0.218237 1
-0.202529 0.148536 -1.38068 0.496598 0.845168 0.197691 1
-0.203274 0.148346 -1.3822 0.874379 0.4508 -0.179558 1
-0.203962 0.148091 -1.38373 0.866018 0.475155 -0.155691 1
-0.204856 0.148545 -1.38511 0.865755 0.477196 -0.15084 1
-0.205643 0.149323 -1.3864 0.868153 0.472288 -0.152497 1
-0.20622 0.150602 -1.38737 0.874062 0.456537 -0.166101 1
-0.206727 0.151638 -1.38862 0.881885 0.443663 -0.159504 1
-0.207139 0.152422 -1.39008 0.889153 0.437325 -0.134737 1
-0.207588 0.153947 -1.39069 0.90297 0.407947 -0.134996 1
-0.208156 0.155244 -1.39163 0.912778 0.389922 -0.12164 1
-0.208929 0.156503 -1.39248 0.919761 0.377261 -0.108229 1
-0.209518 0.157814 -1.39339 0.922087 0.37728 -0.0861085 1
-0.210153 0.159279 -1.39399 0.918946 0.386772 -0.0771087 1
