# .PCD v0.7 - Point Cloud Data file format
# 4 107 0
# 1 35 0
# 36 71 0
# 72 105 0
# 106 107 0
VERSION 0.7
FIELDS x y z normal_x normal_y normal_z curvature
SIZE 4 4 4 4 4 4 4
TYPE F F F F F F F
COUNT 1 1 1 1 1 1 1
WIDTH 107
HEIGHT 1
VIEWPOINT 0 0 0 1 0 0 0
POINTS 107
DATA ascii
-0.166736 0.0715723 -1.42753 -0.192871 -0.692509 0.695149 0.01
-0.16703 0.0712446 -1.42869 0.243022 -0.747818 -0.617826 1
-0.169017 0.0712321 -1.42906 0.175805 -0.774592 -0.607536 1
-0.164047 0.077157 -1.44024 0.658677 0.517424 0.546276 1
-0.162379 0.077833 -1.44116 0.674931 0.513457 0.529935 1
-0.160823 0.0788232 -1.44192 0.738959 0.360173 0.569399 1
-0.159287 0.0798915 -1.4426 -0.0407013 -0.628989 -0.776348 1
-0.157476 0.0802772 -1.44341 0.0946491 -0.511341 -0.85415 1
-0.156041 0.0815108 -1.44384 0.149871 -0.5271 -0.836483 1
-0.154703 0.0829632 -1.44424 0.163976 -0.554875 -0.815614 1
-0.153321 0.084323 -1.44481 0.102731 -0.572452 -0.813477 1
-0.151589 0.0850922 -1.44548 0.0196486 -0.657301 -0.753372 1
-0.149844 0.0856504 -1.44631 -0.1761 -0.462602 -0.868901 1
-0.148112 0.0860926 -1.44724 -0.362386 -0.322656 -0.874397 1
-0.146392 0.0868681 -1.44796 -0.179421 -0.369275 -0.911836 1
-0.144691 0.0877788 -1.44855 0.162345 -0.340574 -0.926096 1
-0.14303 0.0888202 -1.44901 0.40257 -0.286946 -0.869252 1
-0.141448 0.0900437 -1.4493 0.502932 -0.264925 -0.822723 1
-0.139755 0.0910688 -1.44969 0.514547 -0.324489 -0.793693 1
-0.138357 0.0923759 -1.44971 0.0955389 0.553992 0.827022 1
-0.137316 0.0940448 -1.44929 0.104266 0.520561 0.847434 1
-0.135802 0.0953536 -1.44957 0.138228 0.482254 0.865057 1
-0.13425 0.0965946 -1.44993 0.23818 -0.654306 -0.717743 1
-0.132663 0.0977615 -1.45036 0.197956 -0.695679 -0.690539 1
-0.131032 0.0988049 -1.45094 0.287988 -0.575291 -0.765573 1
-0.129673 0.100246 -1.4509 0.326351 -0.48984 -0.808426 1
-0.128416 0.101808 -1.45066 0.322493 -0.436202 -0.840075 1
-0.127211 0.103403 -1.45036 0.290842 -0.404618 -0.867004 1
-0.125967 0.102593 -1.44906 0.272086 -0.465733 -0.842058 1
-0.124443 0.10196 -1.44796 0.2856 -0.543811 -0.789115 1
-0.122683 0.101698 -1.44716 0.342125 -0.641799 -0.686326 1
-0.120827 0.10249 -1.44706 0.402816 -0.691071 -0.600134 1
-0.119331 0.103792 -1.44699 0.530405 -0.71988 -0.44771 1
-0.11787 0.105064 -1.44722 0.810733 -0.585321 -0.0105289 1
-0.116209 0.105879 -1.44803 -0.370464 -0.927809 -0.0438855 1
-0.114978 0.107436 -1.44803 -0.334657 -0.936885 -0.101249 1
-0.113874 0.109094 -1.44821 -0.105003 -0.944153 -0.31233 1
-0.113019 0.110691 -1.44876 0.716719 -0.162173 -0.678243 0.01
-0.114062 0.111298 -1.45038 0.557868 -0.172154 -0.811878 1
-0.115641 0.111957 -1.45122 0.273704 -0.268668 -0.923528 1
-0.117423 0.112596 -1.45126 0.580411 0.770763 -0.26277 1
-0.11901 0.113098 -1.45011 -0.28221 -0.812447 0.510184 1
-0.120508 0.113315 -1.44878 -0.242164 -0.847304 0.472687 1
-0.121929 0.113513 -1.44737 -0.155657 -0.72467 0.671285 1
-0.12327 0.11376 -1.44588 -0.0126917 -0.770362 0.637481 1
-0.124638 0.11396 -1.4444 0.0437018 0.997511 0.0553341 1
-0.12593 0.11416 -1.44286 0.0184769 0.997158 0.0730412 1
-0.127174 0.114358 -1.44128 0.017594 0.996173 0.0856126 1
-0.128428 0.114546 -1.43971 0.0726737 0.995235 0.065 1
-0.129713 0.114696 -1.43816 0.231418 0.969901 0.075742 1
-0.130996 0.114842 -1.43661 0.181797 -0.904886 0.384878 1
-0.132261 0.114999 -1.43504 0.249153 -0.886003 0.391051 1
-0.133492 0.115168 -1.43345 0.382436 -0.81469 0.435917 1
-0.134701 0.11534 -1.43184 0.407481 -0.753477 0.515976 1
-0.135884 0.115519 -1.43021 0.342504 -0.733621 0.586933 1
-0.137011 0.115738 -1.42855 0.523871 -0.668696 0.527641 1
-0.138133 0.115935 -1.42688 0.74518 -0.461226 0.48164 1
-0.13921 0.116135 -1.42518 0.850412 -0.212028 0.481502 1
-0.140183 0.116367 -1.42343 0.848754 -0.0426459 0.527066 1
-0.141139 0.11659 -1.42166 0.806526 0.0565443 0.588488 1
-0.142174 0.116757 -1.41994 0.757525 0.0914617 0.646367 1
-0.143299 0.116861 -1.41826 0.770152 0.11058 0.628202 1
-0.14439 0.116954 -1.41657 0.862196 0.141733 0.486343 1
-0.145376 0.117089 -1.41481 0.941145 0.286392 0.179517 1
-0.146284 0.117253 -1.41301 0.889029 0.368754 0.271381 1
-0.147125 0.117436 -1.41119 0.765503 0.438837 0.47056 1
-0.148023 0.117588 -1.40938 0.789654 0.308625 0.53028 1
-0.148899 0.117709 -1.40757 0.916528 -0.0976478 0.387868 1
-0.149719 0.117793 -1.40572 0.910383 -0.344474 0.229218 1
-0.150562 0.117844 -1.40389 0.867367 -0.472283 0.15692 1
-0.151392 0.117887 -1.40205 0.809122 -0.575088 0.120811 1
-0.152146 0.117958 -1.40018 0.758733 -0.648317 0.0633162 1
-0.152553 0.118204 -1.39822 0.716382 -0.696984 -0.0317936 1
-0.153671 0.117602 -1.39682 0.681539 -0.724778 -0.101006 0.01
-0.154342 0.116377 -1.39601 0.72033 -0.329207 -0.61053 1
-0.153635 0.114485 -1.39597 0.526364 0.0864246 -0.845856 1
-0.153166 0.112522 -1.39601 0.435799 0.76374 0.476215 1
-0.153005 0.11054 -1.39589 0.506272 0.288363 0.812733 1
-0.153219 0.108577 -1.3956 0.377519 -0.541984 0.750822 1
-0.154367 0.106919 -1.39549 -0.703882 -0.495963 -0.508499 1
-0.15512 0.105391 -1.39631 0.0746879 0.414515 -0.906973 1
-0.155842 0.103891 -1.39737 0.204087 0.473653 -0.856739 1
-0.156989 0.102298 -1.39785 0.255886 0.449898 -0.855637 1
-0.158034 0.10074 -1.39859 0.26997 0.389524 -0.880561 1
-0.159229 0.0992346 -1.39906 0.283672 0.313724 -0.90615 1
-0.160607 0.0977946 -1.39915 0.322243 0.261394 -0.909853 1
-0.160914 0.0966331 -1.40077 0.357582 0.231558 -0.904719 1
-0.161676 0.0952536 -1.40191 0.466099 0.180978 -0.866025 1
-0.162795 0.0940377 -1.40286 -0.337358 -0.716114 0.61104 1
-0.1642 0.0940265 -1.40431 -0.511166 -0.62236 0.59277 1
-0.165452 0.0935715 -1.40581 -0.531963 -0.68184 0.502105 1
-0.166579 0.0930122 -1.40738 -0.535242 -0.734718 0.416781 1
-0.167563 0.0924796 -1.40907 -0.525569 -0.785464 0.326839 1
-0.168522 0.091607 -1.41061 -0.486498 -0.802369 0.345723 1
-0.169164 0.0907554 -1.4123 -0.440444 -0.757982 0.481116 1
-0.169576 0.0898479 -1.41403 -0.412894 -0.595617 0.689028 1
-0.170211 0.0883885 -1.41528 -0.423056 -0.516383 0.744562 1
-0.169901 0.0867095 -1.41614 -0.437931 -0.524439 0.730192 1
-0.169252 0.0849463 -1.41688 -0.449367 -0.518552 0.727443 1
-0.168671 0.0831857 -1.41768 -0.462265 -0.496426 0.73476 1
-0.168588 0.081416 -1.41863 -0.481458 -0.44888 0.752798 1
-0.168585 0.0796348 -1.41959 -0.491156 -0.374688 0.786368 1
-0.168611 0.0778417 -1.42052 -0.487536 -0.34775 0.800861 1
-0.168707 0.0760429 -1.42143 -0.473777 -0.357421 0.804851 1
-0.168554 0.0745159 -1.42269 -0.454688 -0.370781 0.809803 1
-0.16819 0.0732207 -1.42418 -0.430113 -0.360391 0.82772 1
-0.167585 0.0722033 -1.42582 -0.378525 -0.372843 0.847176 1
