# .PCD v0.7 - Point Cloud Data file format
# 4 114 0
# 1 39 0
# 40 76 0
# 77 110 0
# 111 114 0
VERSION 0.7
FIELDS x y z normal_x normal_y normal_z curvature
SIZE 4 4 4 4 4 4 4
TYPE F F F F F F F
COUNT 1 1 1 1 1 1 1
WIDTH 114
HEIGHT 1
VIEWPOINT 0 0 0 1 0 0 0
POINTS 114
DATA ascii
-0.175414 0.0719967 -1.42952 0.742562 -0.521698 0.420039 0.01
-0.174244 0.0724239 -1.43089 0.723295 -0.521368 0.452791 1
-0.172919 0.0730122 -1.43204 0.714805 -0.499336 0.489609 1
-0.171598 0.0732883 -1.4333 0.698535 -0.470074 0.539517 1
-0.170461 0.0741787 -1.43446 0.703636 -0.427816 0.567335 1
-0.169312 0.074295 -1.43598 0.69397 -0.387781 0.606656 1
-0.16795 0.0745078 -1.43721 0.688915 -0.352435 0.633393 1
-0.166689 0.0753314 -1.43828 0.68978 -0.333514 0.642629 1
-0.165389 0.0762293 -1.43925 0.672515 -0.329214 0.662829 1
-0.163949 0.0767958 -1.44026 0.645617 -0.324723 0.691183 1
-0.162527 0.0774555 -1.44124 0.617186 -0.327424 0.715454 1
-0.16103 0.0782742 -1.44195 0.588236 -0.3414 0.733092 1
-0.159658 0.0792895 -1.44266 0.558263 -0.364083 0.745511 1
-0.158151 0.0801024 -1.44336 0.541698 -0.379975 0.749789 1
-0.156591 0.0809942 -1.4438 0.530516 -0.397869 0.7485 1
-0.155381 0.0821884 -1.44452 0.525873 -0.414053 0.742978 1
-0.153945 0.0832216 -1.44506 0.528562 -0.4176 0.739075 1
-0.152467 0.084296 -1.44535 0.54548 -0.41206 0.729834 1
-0.150942 0.0851822 -1.4459 0.5588 -0.383025 0.735551 1
-0.149347 0.0859802 -1.44639 0.555764 -0.370802 0.744065 1
-0.147813 0.0861445 -1.44741 0.531815 -0.330074 0.779887 1
-0.146487 0.0872511 -1.44807 0.517414 -0.358648 0.776953 1
-0.145062 0.0881798 -1.4488 0.490909 -0.38683 0.780622 1
-0.143325 0.0884401 -1.44937 0.465714 -0.388428 0.795132 1
-0.141576 0.0887739 -1.44987 0.448429 -0.392933 0.802817 1
-0.13999 0.0897034 -1.45007 0.437674 -0.430289 0.789489 1
-0.138947 0.0912282 -1.45 0.444368 -0.494208 0.747192 1
-0.13789 0.0927435 -1.44991 0.465631 -0.541075 0.700304 1
-0.137114 0.0943027 -1.44929 0.508575 -0.547138 0.664824 1
-0.135712 0.0954746 -1.44957 0.541215 -0.52063 0.660326 1
-0.134297 0.0966165 -1.44991 0.553981 -0.504515 0.662246 1
-0.132738 0.0973553 -1.45057 0.545918 -0.490236 0.679442 1
-0.131292 0.0984399 -1.45096 0.538354 -0.4943 0.682526 1
-0.129851 0.0995598 -1.45126 0.528348 -0.505249 0.682328 1
-0.128859 0.101072 -1.45087 0.529702 -0.52724 0.664405 1
-0.127801 0.102555 -1.45056 0.538037 -0.513088 0.668772 1
-0.126697 0.104028 -1.45038 0.548748 -0.494742 0.673874 1
-0.125465 0.105407 -1.45036 0.557914 -0.471501 0.682948 1
-0.123917 0.106357 -1.4507 0.560711 -0.442546 0.699826 1
-0.122633 0.107657 -1.45099 0.573007 -0.408721 0.710359 1
-0.121449 0.109045 -1.45129 0.589385 -0.370937 0.717657 1
-0.119867 0.10979 -1.45189 0.593491 -0.33265 0.73288 1
-0.118913 0.111298 -1.45238 0.612357 -0.293608 0.734039 1
-0.118852 0.113107 -1.452 0.642083 -0.270751 0.717233 0.01
-0.119746 0.113856 -1.45056 0.66003 -0.281335 0.69657 1
-0.121143 0.11408 -1.44937 0.668614 -0.298626 0.681013 1
-0.12235 0.114261 -1.44798 0.677138 -0.310165 0.667295 1
-0.123398 0.114551 -1.44649 0.686143 -0.31979 0.653409 1
-0.124714 0.114539 -1.44519 0.692523 -0.333388 0.639738 1
-0.125704 0.114913 -1.44367 0.699184 -0.344239 0.626611 1
-0.127022 0.11494 -1.44238 0.700681 -0.355822 0.618415 1
-0.128453 0.114239 -1.44144 0.698238 -0.367463 0.614357 1
-0.129382 0.114599 -1.43988 0.701905 -0.374382 0.605943 1
-0.130497 0.114787 -1.43842 0.704271 -0.380606 0.599284 1
-0.131528 0.115106 -1.43692 0.708874 -0.383688 0.591846 1
-0.13292 0.115031 -1.4357 0.713147 -0.389183 0.58306 1
-0.134102 0.114849 -1.43429 0.717815 -0.39501 0.573331 1
-0.134498 0.115532 -1.43262 0.726981 -0.386906 0.567276 1
-0.135677 0.115746 -1.43121 0.734176 -0.383465 0.560303 1
-0.136852 0.115798 -1.42978 0.738977 -0.380188 0.556211 1
-0.137758 0.11601 -1.42819 0.74472 -0.373377 0.553156 1
-0.139081 0.115781 -1.42691 0.748222 -0.382223 0.542282 1
-0.140079 0.115965 -1.42537 0.75514 -0.405183 0.515355 1
-0.140867 0.116189 -1.42371 0.764538 -0.42913 0.480966 1
-0.141661 0.116426 -1.42206 0.7694 -0.451643 0.45171 1
-0.142662 0.116454 -1.4205 0.763533 -0.473262 0.439364 1
-0.143382 0.116729 -1.41882 0.759885 -0.486774 0.430842 1
-0.144227 0.116886 -1.41718 0.754231 -0.49634 0.429862 1
-0.145139 0.116992 -1.41558 0.747674 -0.502095 0.434607 1
-0.145973 0.117148 -1.41394 0.743122 -0.502179 0.442251 1
-0.147087 0.116951 -1.41247 0.747876 -0.498092 0.438845 1
-0.147972 0.117119 -1.41086 0.754631 -0.489053 0.437446 1
-0.148313 0.117535 -1.40909 0.75728 -0.501019 0.418935 1
-0.149181 0.117737 -1.40747 0.761912 -0.510451 0.39866 1
-0.14977 0.117955 -1.40573 0.767267 -0.518395 0.377582 1
-0.150483 0.11803 -1.40403 0.774876 -0.522197 0.356198 1
-0.151111 0.118145 -1.40229 0.784134 -0.522583 0.334725 1
-0.151983 0.118096 -1.40066 0.794566 -0.518611 0.315765 1
-0.152726 0.118123 -1.39897 0.804781 -0.509726 0.304151 1
-0.153668 0.117829 -1.3974 0.813573 -0.493592 0.307355 1
-0.15476 0.116921 -1.39622 0.812255 -0.482631 0.32758 0.01
-0.155593 0.115293 -1.39649 0.81238 -0.498128 0.303162 1
-0.156283 0.113813 -1.39736 0.804111 -0.529763 0.269735 1
-0.15705 0.112378 -1.39824 0.785518 -0.572675 0.23453 1
-0.158126 0.110876 -1.39817 0.764835 -0.614562 0.193235 1
-0.159022 0.109262 -1.39805 0.746592 -0.647702 0.15193 1
-0.159926 0.108098 -1.39917 0.756856 -0.626625 0.18577 1
-0.160924 0.106807 -1.40004 0.77165 -0.603569 0.20065 1
-0.162196 0.105523 -1.40043 0.795232 -0.572645 0.199209 1
-0.162972 0.104135 -1.40137 0.81116 -0.552695 0.191175 1
-0.163657 0.102425 -1.40153 0.823223 -0.545099 0.158654 1
-0.164332 0.10093 -1.40239 0.818263 -0.55837 0.136636 1
-0.164794 0.0998033 -1.40378 0.799036 -0.584333 0.141763 1
-0.165539 0.0987417 -1.4051 0.777802 -0.607962 0.159389 1
-0.166388 0.097491 -1.40616 0.781707 -0.59222 0.195475 1
-0.167398 0.096472 -1.40733 0.792086 -0.568713 0.221732 1
-0.16795 0.0948156 -1.40794 0.815658 -0.531219 0.229147 1
-0.168321 0.0933082 -1.40894 0.838537 -0.491795 0.234507 1
-0.168676 0.0919832 -1.41018 0.850542 -0.478486 0.218239 1
-0.169191 0.0910074 -1.41166 0.853532 -0.479118 0.204767 1
-0.169557 0.090261 -1.41332 0.85089 -0.485556 0.200554 1
-0.169961 0.0889579 -1.41456 0.855656 -0.480559 0.192136 1
-0.169902 0.0879634 -1.41612 0.850731 -0.488207 0.194705 1
-0.17008 0.0866541 -1.41742 0.846138 -0.499079 0.187005 1
-0.170554 0.0853778 -1.41867 0.840681 -0.509605 0.183189 1
-0.171432 0.0838695 -1.41928 0.839691 -0.516167 0.168792 1
-0.171802 0.0826639 -1.42063 0.826885 -0.533026 0.179288 1
-0.172065 0.0818609 -1.42228 0.81727 -0.53003 0.226136 1
-0.172906 0.0802813 -1.42274 0.818383 -0.522398 0.239477 1
-0.173444 0.0791543 -1.4241 0.809427 -0.513992 0.283971 1
-0.173698 0.0778156 -1.42535 0.797207 -0.504868 0.331013 1
-0.174213 0.0763289 -1.42633 0.782701 -0.503273 0.366191 1
-0.174859 0.0749214 -1.42734 0.76737 -0.509208 0.389679 1
-0.175178 0.0735096 -1.42849 0.751197 -0.517515 0.409733 1
