# .PCD v0.7 - Point Cloud Data file format
# 5 171 0
# 1 41 0
# 42 82 0
# 83 134 0
# 135 150 0
# 151 171 0
VERSION 0.7
FIELDS x y z normal_x normal_y normal_z curvature
SIZE 4 4 4 4 4 4 4
TYPE F F F F F F F
COUNT 1 1 1 1 1 1 1
WIDTH 171
HEIGHT 1
VIEWPOINT 0 0 0 1 0 0 0
POINTS 171
DATA ascii
-0.0186992 -0.132749 -1.53784 -0.782871 0.479105 -0.396953 0.01
-0.0174146 -0.131023 -1.53854 -0.773352 0.507951 -0.379358 1
-0.0160773 -0.130537 -1.5403 -0.779514 0.518172 -0.351931 1
-0.0146703 -0.129007 -1.54119 -0.775828 0.536501 -0.332051 1
-0.0132869 -0.127946 -1.54263 -0.779504 0.543845 -0.310816 1
-0.0119677 -0.126244 -1.54332 -0.7801 0.553639 -0.291425 1
-0.0105655 -0.125011 -1.54459 -0.788477 0.551576 -0.272154 1
-0.009096 -0.123857 -1.54587 -0.800549 0.542324 -0.254962 1
-0.00788051 -0.122258 -1.54691 -0.816209 0.527595 -0.23547 1
-0.00663645 -0.120713 -1.54799 -0.824686 0.51277 -0.238663 1
-0.00536923 -0.119442 -1.54937 -0.828513 0.496402 -0.259134 1
-0.00412244 -0.117903 -1.55046 -0.833057 0.477126 -0.279941 1
-0.00288567 -0.11631 -1.55148 -0.835596 0.460272 -0.299881 1
-0.00163845 -0.11481 -1.55263 -0.835242 0.449238 -0.317105 1
-0.000368449 -0.113477 -1.55394 -0.832521 0.444785 -0.330265 1
0.000523789 -0.111481 -1.55452 -0.832696 0.426305 -0.353385 1
0.00181189 -0.110612 -1.55616 -0.826793 0.434798 -0.356881 1
0.00259808 -0.108685 -1.55705 -0.831117 0.416728 -0.368216 1
0.00347342 -0.106742 -1.5578 -0.836945 0.393433 -0.380439 1
0.0048687 -0.105761 -1.55929 -0.841007 0.388569 -0.376459 1
0.00594627 -0.104199 -1.56052 -0.846737 0.371659 -0.380666 1
0.00759929 -0.103847 -1.56202 -0.849344 0.372963 -0.373515 1
0.010633 -0.101451 -1.56414 -0.860259 0.341213 -0.37885 1
0.0111628 -0.0995094 -1.56517 -0.86646 0.319233 -0.383847 1
0.0122624 -0.0983807 -1.56679 -0.864883 0.315944 -0.390072 1
0.013442 -0.0972953 -1.56839 -0.861635 0.316307 -0.396907 1
0.014111 -0.0953019 -1.56922 -0.859025 0.309601 -0.407704 1
0.015546 -0.0940447 -1.57043 -0.854994 0.31226 -0.4141 1
0.0167117 -0.0927528 -1.57188 -0.850669 0.317223 -0.419204 1
0.0179428 -0.091222 -1.573 -0.845949 0.3206 -0.426128 1
0.0191998 -0.0902195 -1.57459 -0.841559 0.329039 -0.428383 1
0.020341 -0.088735 -1.57586 -0.836611 0.333499 -0.434581 1
0.0212111 -0.0867612 -1.57654 -0.837246 0.332133 -0.434404 1
0.0223861 -0.0856647 -1.57813 -0.840299 0.333505 -0.427401 1
0.023555 -0.084212 -1.57941 -0.842608 0.33417 -0.422305 1
0.0248102 -0.0831134 -1.58093 -0.845348 0.336194 -0.415163 1
0.0259026 -0.0816921 -1.58231 -0.847432 0.337609 -0.40973 1
0.0269746 -0.0801621 -1.58359 -0.849042 0.338917 -0.405294 1
0.0283526 -0.07877 -1.58472 -0.850368 0.340834 -0.400881 1
0.0296495 -0.0777601 -1.58627 -0.852349 0.34563 -0.39248 1
0.0308775 -0.0766201 -1.58779 -0.84938 0.353729 -0.391701 1
0.0321795 -0.0754201 -1.5892 -0.845944 0.360368 -0.393082 1
0.0333388 -0.0737756 -1.59023 -0.842599 0.36278 -0.398017 1
0.0343092 -0.0723592 -1.5917 -0.839799 0.366566 -0.400459 1
0.0354001 -0.0707174 -1.59281 -0.837227 0.367721 -0.404761 1
0.0366381 -0.0700191 -1.59457 -0.83504 0.373032 -0.40442 1
0.0379182 -0.0689455 -1.59609 -0.832822 0.375833 -0.406396 1
0.0391982 -0.067755 -1.59753 -0.830766 0.377489 -0.409059 0.598285
0.0404586 -0.0663237 -1.59874 -0.831378 0.376776 -0.408472 0.725395
0.0418596 -0.0651365 -1.60006 -0.832363 0.377011 -0.406244 0.981503
0.042722 -0.0635195 -1.60139 -0.833169 0.377128 -0.404479 1
0.0438802 -0.0624705 -1.60302 -0.834385 0.378005 -0.401141 1
0.0451662 -0.0611354 -1.60432 -0.835527 0.378181 -0.398591 1
0.046631 -0.0599749 -1.60559 -0.836954 0.377904 -0.395849 1
0.0474471 -0.0579187 -1.60606 -0.838304 0.375628 -0.395157 1
0.0488208 -0.0570122 -1.60761 -0.840771 0.373322 -0.39209 1
0.0501515 -0.0559063 -1.60906 -0.85634 0.360826 -0.369441 1
0.0514131 -0.0544976 -1.6103 -0.871061 0.346936 -0.34769 1
0.0523134 -0.0528144 -1.61152 -0.884992 0.331495 -0.326957 1
0.0531774 -0.0516645 -1.61326 -0.8998 0.312559 -0.304413 1
0.0539684 -0.050121 -1.61471 -0.918302 0.279556 -0.280304 1
0.0549369 -0.0496213 -1.61669 -0.940325 0.216505 -0.262517 1
0.0558392 -0.0495285 -1.61877 -0.9489 0.179309 -0.259688 0.01
0.0561112 -0.0508189 -1.6206 -0.93461 0.230495 -0.27088 1
0.0557956 -0.0526359 -1.62191 -0.923206 0.262242 -0.280926 1
0.055879 -0.0541335 -1.6236 -0.917409 0.271025 -0.291386 1
0.0558304 -0.0558525 -1.62507 -0.910241 0.277703 -0.307151 1
0.0556985 -0.057471 -1.62665 -0.901512 0.291731 -0.319639 1
0.0555599 -0.0594112 -1.6278 -0.890696 0.315155 -0.327625 1
0.0551452 -0.0613924 -1.62881 -0.879251 0.339167 -0.334489 1
0.0546765 -0.063431 -1.62967 -0.867641 0.362657 -0.340115 1
0.0543286 -0.0652719 -1.63093 -0.856199 0.381935 -0.34792 1
0.0540209 -0.0668751 -1.6325 -0.844997 0.4078 -0.345947 1
0.053476 -0.068823 -1.63351 -0.837463 0.433127 -0.333252 1
0.0530128 -0.0705982 -1.63483 -0.834604 0.451876 -0.315032 1
0.0523872 -0.0727362 -1.63522 -0.836458 0.459192 -0.299133 1
0.0517303 -0.0742294 -1.63679 -0.841893 0.465918 -0.272281 1
0.0509792 -0.0762661 -1.63742 -0.854104 0.446707 -0.266382 1
0.0503224 -0.0779611 -1.63877 -0.867347 0.41803 -0.270111 1
0.0497657 -0.0801136 -1.63918 -0.873765 0.396025 -0.28231 1
0.049344 -0.0821513 -1.64007 -0.877448 0.379183 -0.293778 1
0.0488936 -0.0841036 -1.64111 -0.87804 0.367142 -0.307007 1
0.0483281 -0.0861134 -1.64198 -0.874575 0.362892 -0.321601 1
0.0473352 -0.0879647 -1.64282 -0.868655 0.369406 -0.330117 1
0.0476196 -0.0898543 -1.64403 -0.8665 0.369778 -0.335324 1
0.0473757 -0.0916265 -1.64541 -0.86471 0.369749 -0.339944 1
0.0471748 -0.0932492 -1.64698 -0.864304 0.368112 -0.342744 1
0.0470194 -0.0948816 -1.64853 -0.864444 0.36603 -0.344613 1
0.0464344 -0.0966961 -1.64975 -0.860223 0.383925 -0.335586 1
0.0460184 -0.0987318 -1.65064 -0.853837 0.40536 -0.326566 1
0.0460529 -0.10016 -1.65239 -0.848555 0.423394 -0.31732 1
0.0457024 -0.101759 -1.65395 -0.84055 0.444596 -0.309531 1
0.0447723 -0.103802 -1.65423 -0.830262 0.469021 -0.301139 1
0.0441489 -0.105753 -1.65519 -0.822481 0.482838 -0.300652 1
0.0438605 -0.107366 -1.65675 -0.816512 0.49058 -0.304369 1
0.0431179 -0.10903 -1.65809 -0.810242 0.49934 -0.306866 1
0.0419097 -0.110349 -1.65947 -0.804406 0.507537 -0.308767 1
0.0410348 -0.112426 -1.65928 -0.801297 0.51541 -0.303769 1
0.0402359 -0.114517 -1.65961 -0.799859 0.516375 -0.305912 1
0.0398913 -0.1163 -1.66095 -0.796421 0.513343 -0.319675 1
0.0396561 -0.118123 -1.66227 -0.791397 0.509708 -0.337473 1
0.0382581 -0.119807 -1.66284 -0.787891 0.509641 -0.345679 1
0.0368463 -0.121193 -1.66175 -0.789696 0.517316 -0.329796 1
0.035737 -0.123091 -1.66228 -0.781362 0.523857 -0.339186 0.01
0.0344199 -0.124617 -1.66125 -0.777035 0.541229 -0.321385 1
0.0328013 -0.12597 -1.66044 -0.768015 0.564588 -0.302314 1
0.0318479 -0.126069 -1.65839 -0.774386 0.571291 -0.271943 1
0.0305407 -0.127255 -1.65698 -0.769362 0.586704 -0.252705 1
0.0294925 -0.128533 -1.65543 -0.765009 0.599312 -0.235768 1
0.0284526 -0.129453 -1.65365 -0.763638 0.606353 -0.221794 1
0.0274682 -0.130299 -1.6518 -0.763085 0.610797 -0.211254 1
0.0267787 -0.13015 -1.64965 -0.769817 0.602858 -0.209628 1
0.026053 -0.130172 -1.6475 -0.775704 0.594865 -0.21076 1
0.0249409 -0.130865 -1.64566 -0.777491 0.59393 -0.206771 1
0.0235181 -0.131832 -1.64419 -0.775719 0.598836 -0.199135 1
0.0222954 -0.131993 -1.6423 -0.780597 0.591757 -0.201228 1
0.0213616 -0.132098 -1.64024 -0.787794 0.579585 -0.208476 1
0.0205983 -0.13283 -1.63824 -0.79234 0.571884 -0.212476 1
0.0197322 -0.13408 -1.63657 -0.792308 0.573323 -0.208685 1
0.0185624 -0.134932 -1.63483 -0.794153 0.570902 -0.208307 1
0.0175982 -0.135774 -1.63297 -0.796497 0.566193 -0.212174 1
0.0166744 -0.136393 -1.631 -0.793675 0.562966 -0.230542 1
0.0156919 -0.137231 -1.62914 -0.788496 0.563739 -0.24591 1
0.0144788 -0.138136 -1.62746 -0.780963 0.569146 -0.257235 1
0.0134659 -0.13866 -1.62551 -0.778377 0.562917 -0.277947 1
0.0126902 -0.138587 -1.62339 -0.783259 0.538609 -0.310492 1
0.011078 -0.138643 -1.6218 -0.781131 0.530806 -0.328753 1
0.0107374 -0.138588 -1.61957 -0.784622 0.515025 -0.345135 1
0.00995098 -0.138868 -1.61746 -0.780713 0.521162 -0.344786 1
0.00915491 -0.138851 -1.61535 -0.784374 0.521313 -0.336139 1
0.00816174 -0.139111 -1.61333 -0.788565 0.522755 -0.323871 1
0.00721329 -0.139218 -1.61128 -0.792884 0.522938 -0.312843 1
0.00683586 -0.138512 -1.60917 -0.80022 0.516083 -0.305462 1
0.00596219 -0.138707 -1.60709 -0.802779 0.517134 -0.296847 1
0.00517377 -0.138788 -1.60497 -0.805198 0.517043 -0.290383 1
0.00459845 -0.138678 -1.60279 -0.80767 0.515248 -0.286685 1
0.00332412 -0.139548 -1.60114 -0.805902 0.519649 -0.283701 0.377336
0.00280141 -0.138999 -1.599 -0.80822 0.513964 -0.287439 1
0.00173813 -0.139654 -1.59712 -0.807479 0.512801 -0.291569 1
0.000708102 -0.140333 -1.59522 -0.806926 0.511305 -0.295698 1
-0.000514802 -0.141461 -1.59369 -0.804534 0.515041 -0.295733 1
-0.00177737 -0.142286 -1.59201 -0.802906 0.51669 -0.297276 1
-0.00272875 -0.142503 -1.58997 -0.803899 0.511958 -0.30273 1
-0.00406994 -0.143372 -1.58837 -0.801747 0.515513 -0.302405 0.693472
-0.0049656 -0.143702 -1.58632 -0.802544 0.512467 -0.305452 0.474175
-0.00601308 -0.144539 -1.5845 -0.801014 0.515477 -0.304401 1
-0.00730141 -0.145343 -1.58282 -0.797999 0.520753 -0.303339 1
-0.00856878 -0.146142 -1.58113 -0.794967 0.525386 -0.303311 1
-0.009524 -0.146881 -1.57921 -0.792851 0.527563 -0.305065 1
-0.0108071 -0.147915 -1.57767 -0.789236 0.532562 -0.305753 1
-0.0119403 -0.148746 -1.57589 -0.786682 0.534713 -0.308568 1
-0.0131559 -0.149379 -1.5741 -0.784468 0.53547 -0.31286 1
-0.0145061 -0.149959 -1.57238 -0.782188 0.53577 -0.318013 1
-0.0155553 -0.150372 -1.57042 -0.782213 0.532476 -0.323439 1
-0.0166807 -0.150917 -1.56853 -0.78658 0.526512 -0.322609 1
-0.0180927 -0.151761 -1.56698 -0.789549 0.524164 -0.319163 0.01
-0.0183235 -0.150845 -1.56493 -0.793662 0.516622 -0.321251 1
-0.0183596 -0.149678 -1.56299 -0.798404 0.508772 -0.322028 1
-0.0187744 -0.14892 -1.5609 -0.804526 0.50024 -0.320153 1
-0.0182634 -0.147284 -1.55942 -0.810438 0.488013 -0.324088 1
-0.0179841 -0.14591 -1.55765 -0.816704 0.47677 -0.325093 1
-0.017912 -0.144605 -1.5558 -0.823089 0.466263 -0.324227 1
-0.0183821 -0.144161 -1.55364 -0.829707 0.458864 -0.317853 1
-0.0184628 -0.143141 -1.55162 -0.835575 0.451134 -0.313515 1
-0.0185535 -0.141779 -1.54982 -0.838388 0.449902 -0.307723 1
-0.0186343 -0.140374 -1.54805 -0.839525 0.448112 -0.307235 1
-0.0189497 -0.139356 -1.54605 -0.840008 0.443569 -0.312464 1
-0.0190626 -0.138215 -1.5441 -0.837701 0.437391 -0.327026 1
-0.0190552 -0.137208 -1.54208 -0.832373 0.42795 -0.352157 1
-0.0197496 -0.136353 -1.5401 -0.822529 0.427998 -0.374517 1
-0.0187834 -0.134469 -1.53931 -0.80387 0.457833 -0.379713 1
