# .PCD v0.7 - Point Cloud Data file format
# 3 30 0
# 1 4 0
# 5 22 0
# 23 30 0
VERSION 0.7
FIELDS x y z normal_x normal_y normal_z curvature
SIZE 4 4 4 4 4 4 4
TYPE F F F F F F F
COUNT 1 1 1 1 1 1 1
WIDTH 30
HEIGHT 1
VIEWPOINT 0 0 0 1 0 0 0
POINTS 30
DATA ascii
0.0739126 -0.104781 -1.57929 0.958594 -0.0181079 -0.284199 0.01
0.074688 -0.104596 -1.57913 0.927915 -0.114437 -0.354793 1
0.0756555 -0.104425 -1.57878 0.782899 -0.392591 -0.48264 1
0.0766231 -0.104253 -1.57843 0.440258 -0.772908 -0.456932 1
0.0775907 -0.104082 -1.57808 -0.0905683 -0.953678 -0.286873 1
0.0785583 -0.103911 -1.57772 -0.292381 -0.935046 -0.200505 1
0.0795258 -0.10374 -1.57737 -0.397122 -0.903426 -0.161601 1
0.0804934 -0.103568 -1.57702 -0.465037 -0.873669 -0.142976 1
0.081461 -0.103397 -1.57667 -0.514994 -0.846682 -0.133834 1
0.080584 -0.114447 -1.56258 0.117793 -0.791545 -0.599652 1
0.0806274 -0.114389 -1.56247 0.117032 -0.793717 -0.596923 1
0.080255 -0.11383 -1.56327 0.121408 -0.750351 -0.649795 1
0.0798826 -0.11327 -1.56406 0.123951 -0.695849 -0.707411 0.01
0.0795102 -0.112711 -1.56486 0.121567 -0.635877 -0.762156 1
0.079136 -0.112116 -1.56563 0.112056 -0.577871 -0.808399 1
0.0787616 -0.11152 -1.56641 0.0952959 -0.52816 -0.843781 1
0.0783873 -0.110924 -1.56718 0.0756437 -0.491777 -0.867429 1
0.0780129 -0.110328 -1.56795 0.118692 -0.503173 -0.855996 1
0.0776386 -0.109731 -1.56872 0.188949 -0.515616 -0.835726 1
0.0773815 -0.109216 -1.56959 0.281786 -0.522157 -0.804953 1
0.0771348 -0.108647 -1.57042 0.406279 -0.512777 -0.756305 1
0.0768836 -0.108084 -1.57126 0.553373 -0.473444 -0.685295 1
0.076629 -0.107544 -1.57212 0.692283 -0.400954 -0.599983 1
0.0763744 -0.107004 -1.57297 0.78228 -0.325026 -0.53141 1
0.0761198 -0.106463 -1.57383 0.824065 -0.275365 -0.495066 1
0.0758228 -0.105974 -1.57467 0.844291 -0.2448 -0.476702 1
0.0752966 -0.105858 -1.5755 0.883492 -0.15275 -0.442843 1
0.0749506 -0.105589 -1.57645 0.884298 -0.133443 -0.447449 1
0.0746046 -0.10532 -1.5774 0.886741 -0.121618 -0.445981 1
0.0742586 -0.105051 -1.57834 0.927953 -0.057369 -0.368255 1
