# .PCD v0.7 - Point Cloud Data file format
# 4 30 0
# 1 5 0
# 6 17 0
# 18 26 0
# 27 30 0
VERSION 0.7
FIELDS x y z normal_x normal_y normal_z curvature
SIZE 4 4 4 4 4 4 4
TYPE F F F F F F F
COUNT 1 1 1 1 1 1 1
WIDTH 30
HEIGHT 1
VIEWPOINT 0 0 0 1 0 0 0
POINTS 30
DATA ascii
-0.0630127 0.00866331 -1.70051 0.188824 0.839735 0.509107 0.01
-0.0624964 0.00891087 -1.70149 -0.91864 0.315185 -0.23824 1
-0.0620666 0.00914265 -1.70257 -0.860381 0.48357 -0.160949 1
-0.0616035 0.00924543 -1.70365 -0.797874 0.588776 -0.129386 1
-0.061138 0.009339 -1.70473 -0.751358 0.641675 -0.153995 1
-0.0699854 0.00434581 -1.68136 -0.77665 -0.483247 -0.404088 1
-0.0706052 0.00532619 -1.68113 -0.765043 -0.460811 -0.449847 1
-0.07121 0.00630964 -1.68095 -0.741983 -0.455454 -0.491958 1
-0.0716051 0.0073362 -1.68138 -0.703886 -0.469221 -0.533269 1
-0.0719312 0.00825876 -1.68191 -0.534304 -0.574361 -0.620184 0.01
-0.0718081 0.00850535 -1.68306 -0.648613 -0.434568 -0.624861 1
-0.0716332 0.00865279 -1.6842 -0.778926 -0.213182 -0.589769 1
-0.0712509 0.00840366 -1.68529 -0.910441 -0.0483857 -0.410799 1
-0.0708835 0.00816678 -1.68638 -0.894095 0.446868 0.0300447 1
-0.070557 0.00796359 -1.6875 -0.554845 0.818202 -0.150642 1
-0.0702555 0.00778536 -1.68863 -0.286403 0.859797 -0.422756 1
-0.070004 0.00765704 -1.68978 -0.181991 0.864412 -0.468691 1
-0.0700414 0.00740383 -1.69086 -0.124032 0.869301 -0.478468 1
-0.0705123 0.0069633 -1.69185 -0.104184 0.882564 -0.458505 1
-0.07095 0.00651114 -1.69285 -0.0901363 0.912085 -0.39997 1
-0.0713496 0.00604567 -1.69386 -0.119418 0.963812 -0.238342 1
-0.0711479 0.00589942 -1.69482 0.0182907 -0.777168 -0.629027 0.01
-0.0704199 0.00603249 -1.69575 0.446752 -0.893419 -0.0470619 1
-0.0696854 0.00619331 -1.69666 0.573421 -0.81035 0.120505 1
-0.0689464 0.00637265 -1.69756 0.490415 -0.840711 0.22956 1
-0.0680838 0.00674401 -1.69824 -0.29265 0.942423 -0.161851 1
-0.0671593 0.00721139 -1.69881 -0.293822 0.922853 -0.249018 1
-0.0661697 0.0076004 -1.69932 -0.269498 0.905728 -0.327149 1
-0.0651566 0.00796093 -1.69981 0.214494 -0.918563 0.332016 1
-0.0640912 0.00831315 -1.70018 0.003395 -0.902421 0.430843 1
