# .PCD v0.7 - Point Cloud Data file format
# 4 171 0
# 1 37 0
# 38 96 0
# 97 126 0
# 127 171 0
VERSION 0.7
FIELDS x y z normal_x normal_y normal_z curvature
SIZE 4 4 4 4 4 4 4
TYPE F F F F F F F
COUNT 1 1 1 1 1 1 1
WIDTH 171
HEIGHT 1
VIEWPOINT 0 0 0 1 0 0 0
POINTS 171
DATA ascii
0.300673 0.179886 -1.43802 -0.987451 -0.157089 0.0162348 0.01
0.300093 0.180653 -1.4393 -0.986118 -0.166028 0.002355 1
0.300124 0.181206 -1.4408 -0.983815 -0.178351 -0.0173144 1
0.300084 0.182185 -1.44206 -0.981546 -0.189285 -0.0271968 1
0.29978 0.18329 -1.44318 -0.980148 -0.195857 -0.0308292 1
0.299387 0.184456 -1.4442 -0.979661 -0.198266 -0.0309177 1
0.299675 0.185052 -1.44566 -0.977538 -0.207085 -0.0391797 1
0.29956 0.186299 -1.44665 -0.978212 -0.204557 -0.0354741 1
0.299376 0.186846 -1.44815 -0.977066 -0.209645 -0.0372987 1
0.299371 0.187611 -1.44955 -0.977018 -0.210826 -0.0314246 1
0.299033 0.188811 -1.45055 -0.977203 -0.212052 -0.010445 1
0.298993 0.189496 -1.452 -0.975232 -0.221062 0.00740013 1
0.299031 0.190143 -1.45346 -0.972863 -0.230219 0.0231533 1
0.298833 0.191537 -1.45422 -0.972328 -0.230228 0.0396775 1
0.298388 0.192108 -1.45565 -0.969565 -0.238954 0.0533248 1
0.297856 0.192929 -1.45691 -0.967155 -0.245119 0.0672932 1
0.297362 0.193828 -1.45814 -0.964849 -0.249948 0.0811967 1
0.297004 0.195124 -1.45901 -0.965057 -0.24355 0.0966838 1
0.296862 0.195646 -1.46052 -0.96709 -0.239613 0.0855692 1
0.296722 0.196438 -1.4619 -0.96988 -0.231795 0.0748577 1
0.296436 0.197688 -1.46285 -0.975014 -0.209664 0.0734097 1
0.296067 0.198579 -1.46413 -0.97786 -0.199046 0.0645769 1
0.295742 0.199285 -1.46553 -0.979383 -0.195423 0.0511682 1
0.295495 0.20001 -1.46693 -0.980505 -0.193077 0.0364944 1
0.295215 0.200745 -1.46833 -0.981312 -0.191254 0.0212034 1
0.294884 0.201747 -1.46953 -0.983143 -0.182464 0.0116625 1
0.294726 0.202698 -1.47081 -0.981899 -0.188986 0.0126045 1
0.294529 0.204027 -1.47167 -0.980525 -0.193849 0.0315272 1
0.294358 0.20512 -1.47283 -0.977803 -0.204768 0.0443912 1
0.294145 0.206239 -1.47395 -0.975171 -0.213813 0.0576648 1
0.293965 0.207293 -1.47514 -0.972466 -0.222218 0.0702091 1
0.293864 0.208014 -1.47657 -0.969176 -0.232921 0.080286 1
0.293478 0.208844 -1.47788 -0.966347 -0.239669 0.0934482 1
0.292858 0.20995 -1.47886 -0.964976 -0.238484 0.109301 1
0.292319 0.210948 -1.47999 -0.963468 -0.236741 0.125235 1
0.292001 0.211454 -1.48147 -0.963932 -0.234036 0.126735 1
0.291606 0.212201 -1.48283 -0.965693 -0.227433 0.125347 1
0.291331 0.212623 -1.48435 -0.966175 -0.22878 0.119014 1
0.290528 0.213576 -1.48535 -0.968383 -0.219819 0.11796 1
0.290149 0.213981 -1.48685 -0.968561 -0.224586 0.10701 1
0.289345 0.214788 -1.48797 -0.969715 -0.222218 0.101352 1
0.289018 0.216019 -1.48894 -0.97095 -0.217356 0.10006 1
0.288977 0.217142 -1.49008 -0.971157 -0.218802 0.0947661 1
0.288998 0.218552 -1.49084 -0.970862 -0.219001 0.0972867 1
0.289211 0.219904 -1.49167 -0.969045 -0.225548 0.100403 1
0.288683 0.221389 -1.49194 -0.966438 -0.230129 0.114184 1
0.287614 0.223717 -1.49556 -0.953907 -0.288293 0.0833549 1
0.287152 0.224614 -1.4968 -0.946516 -0.314835 0.0706111 1
0.286569 0.225297 -1.49813 -0.93845 -0.341258 0.0534365 1
0.286241 0.225921 -1.49956 -0.930776 -0.364021 0.033829 1
0.285867 0.22665 -1.50094 -0.920859 -0.389557 0.0162392 1
0.285815 0.227164 -1.50245 -0.916651 -0.399403 0.0150823 1
0.285911 0.227473 -1.50402 -0.919495 -0.391568 0.034689 1
0.285782 0.227739 -1.50559 -0.922784 -0.378771 0.0707218 1
0.28563 0.227893 -1.50717 -0.925789 -0.357581 0.122681 1
0.285452 0.227568 -1.50873 -0.928 -0.318623 0.193122 1
0.284797 0.228023 -1.51012 -0.918848 -0.307548 0.24725 1
0.284489 0.227343 -1.51153 -0.910507 -0.252832 0.32719 1
0.283799 0.227109 -1.51296 -0.893041 -0.218522 0.393353 1
0.283119 0.227019 -1.5144 -0.875437 -0.251237 0.412905 1
0.282446 0.227199 -1.51584 -0.903065 -0.234492 0.359844 1
0.281998 0.226951 -1.51736 -0.924665 -0.248074 0.288883 1
0.281755 0.226858 -1.51894 -0.939412 -0.267407 0.214472 1
0.282033 0.22668 -1.5205 -0.943113 -0.300121 0.143057 1
0.282713 0.226393 -1.52192 -0.937202 -0.339761 0.0788295 1
0.282656 0.225557 -1.52329 -0.941218 -0.332049 0.0620671 1
0.282295 0.22485 -1.52467 -0.948119 -0.309946 0.0707345 1
0.282135 0.22399 -1.52601 -0.952877 -0.288581 0.0935229 1
0.28229 0.223099 -1.52733 -0.954931 -0.268153 0.127285 1
0.282237 0.222293 -1.52871 -0.953838 -0.247986 0.169399 1
0.282106 0.221451 -1.53007 -0.948065 -0.249449 0.197353 1
0.282015 0.220511 -1.53136 -0.942271 -0.253419 0.218871 1
0.282026 0.219472 -1.53258 -0.937539 -0.259026 0.23222 1
0.281879 0.218409 -1.53376 -0.934571 -0.264987 0.237399 1
0.281736 0.217467 -1.53505 -0.933568 -0.270276 0.235377 1
0.281896 0.216468 -1.53629 -0.933734 -0.272997 0.231546 1
0.282196 0.215203 -1.53722 -0.934548 -0.274225 0.226763 1
0.282254 0.214011 -1.53829 -0.93501 -0.276161 0.222465 1
0.282485 0.212666 -1.53912 -0.935212 -0.279444 0.21746 1
0.282551 0.211311 -1.53997 -0.93219 -0.297149 0.206697 1
0.282317 0.210939 -1.54151 -0.928529 -0.307787 0.207609 1
0.28196 0.210529 -1.54301 -0.924142 -0.31387 0.217826 1
0.282477 0.209046 -1.54331 -0.915887 -0.335634 0.220228 0.01
0.283229 0.208086 -1.54228 -0.91345 -0.353198 0.202138 1
0.283851 0.206741 -1.54168 -0.908082 -0.374175 0.188097 1
0.284428 0.205409 -1.541 -0.905205 -0.388216 0.172891 1
0.28509 0.204187 -1.54021 -0.904629 -0.397137 0.154689 1
0.285947 0.203269 -1.53922 -0.906706 -0.400024 0.133661 1
0.286499 0.20214 -1.53823 -0.909227 -0.401171 0.111212 1
0.287143 0.20121 -1.5371 -0.913689 -0.396937 0.0872528 1
0.287767 0.200159 -1.53607 -0.91793 -0.392078 0.0606544 1
0.287935 0.198845 -1.53517 -0.9209 -0.388639 0.0300414 1
0.288589 0.198087 -1.53392 -0.921582 -0.386182 0.039372 1
0.289691 0.197082 -1.53334 -0.913627 -0.404974 0.0358028 1
0.290217 0.196467 -1.53196 -0.912989 -0.404122 0.0560089 1
0.290562 0.195182 -1.53107 -0.904249 -0.423287 0.0562271 1
0.291126 0.193865 -1.53036 -0.892216 -0.448746 0.0507635 1
0.291518 0.192865 -1.52917 -0.886087 -0.459771 0.0588279 1
0.29206 0.191961 -1.52797 -0.880123 -0.470023 0.0668056 1
0.292497 0.190979 -1.52679 -0.873767 -0.480763 0.073476 1
0.292812 0.189866 -1.52568 -0.87073 -0.487296 0.0661209 1
0.29344 0.188686 -1.5248 -0.876395 -0.478957 0.0503145 1
0.293875 0.187416 -1.52393 -0.896133 -0.439912 0.0585132 1
0.294611 0.186326 -1.52302 -0.912909 -0.403433 0.0619633 1
0.295071 0.185195 -1.52199 -0.925613 -0.373888 0.0587148 1
0.295599 0.184197 -1.52085 -0.934612 -0.35226 0.0491264 1
0.296116 0.182845 -1.52017 -0.947338 -0.315224 0.0564417 1
0.296652 0.181529 -1.51944 -0.955166 -0.290305 0.0581404 1
0.297216 0.180409 -1.51844 -0.958024 -0.282745 0.0473868 1
0.297717 0.179488 -1.51723 -0.954242 -0.296068 0.0420218 1
0.298172 0.17809 -1.5166 -0.951428 -0.303216 0.0533364 1
0.298635 0.176946 -1.51558 -0.946262 -0.319158 0.0522211 1
0.299091 0.175703 -1.51469 -0.940424 -0.335996 0.0520501 1
0.299507 0.174774 -1.51345 -0.934363 -0.353664 0.0434535 1
0.299899 0.173603 -1.51243 -0.927735 -0.371235 0.0386219 1
0.300237 0.173184 -1.51093 -0.923759 -0.382066 0.026344 1
0.300538 0.172774 -1.50941 -0.92064 -0.390008 0.0177759 1
0.300972 0.171768 -1.50825 -0.915811 -0.401411 0.0126387 1
0.30145 0.170837 -1.50703 -0.912763 -0.408477 0.00315905 1
0.301767 0.170002 -1.50571 -0.91092 -0.412542 -0.0057743 1
0.302212 0.16884 -1.5047 -0.9072 -0.420433 -0.0149962 1
0.302622 0.167809 -1.50355 -0.904814 -0.425138 -0.0238851 1
0.303071 0.166575 -1.50264 -0.901408 -0.431664 -0.0336172 1
0.303392 0.16583 -1.50126 -0.902197 -0.429488 -0.0397629 1
0.30363 0.165288 -1.49977 -0.90489 -0.423526 -0.042428 1
0.303468 0.165318 -1.49818 -0.911179 -0.410377 -0.036657 1
0.303347 0.164724 -1.4967 -0.915044 -0.401897 -0.0342431 1
0.303813 0.164431 -1.4952 -0.918909 -0.393198 -0.0316539 1
0.304473 0.163984 -1.49381 -0.921174 -0.387777 -0.0326705 1
0.304814 0.163104 -1.49252 -0.921418 -0.386749 -0.037597 1
0.304999 0.161894 -1.49149 -0.918756 -0.392095 -0.0463532 1
0.305115 0.161638 -1.48991 -0.923374 -0.381205 -0.0454253 1
0.30516 0.161223 -1.48837 -0.927663 -0.370645 -0.0454192 1
0.305583 0.160228 -1.48719 -0.925015 -0.375865 -0.055435 1
0.305985 0.159356 -1.48591 -0.923189 -0.378921 -0.0643553 1
0.306069 0.1583 -1.48471 -0.919028 -0.388082 -0.0691292 1
0.306147 0.157638 -1.48326 -0.920155 -0.385794 -0.0669073 1
0.306216 0.157066 -1.48176 -0.922998 -0.379815 -0.0617664 1
0.306232 0.156178 -1.48043 -0.922171 -0.381905 -0.0612306 1
0.306311 0.155994 -1.47885 -0.930514 -0.363194 -0.0472648 1
0.306566 0.154942 -1.47767 -0.925846 -0.374278 -0.0521966 1
0.306596 0.15477 -1.47608 -0.9349 -0.353036 -0.0364515 0.01
0.306734 0.155157 -1.47453 -0.951065 -0.308887 -0.00795629 1
0.306694 0.155315 -1.47294 -0.962518 -0.270876 0.0135887 1
0.30671 0.155357 -1.47134 -0.965232 -0.260892 0.0162158 1
0.306645 0.155543 -1.46975 -0.968102 -0.249816 0.0192707 1
0.306463 0.156069 -1.46825 -0.971522 -0.235823 0.0230908 1
0.306126 0.157207 -1.46718 -0.975715 -0.217281 0.0277267 1
0.305865 0.158433 -1.46618 -0.975139 -0.221018 0.0159638 1
0.305699 0.15924 -1.46481 -0.968901 -0.247306 -0.00843762 1
0.305544 0.16013 -1.46349 -0.961533 -0.273022 -0.0302251 1
0.305405 0.161025 -1.46217 -0.953447 -0.29766 -0.0483467 1
0.305283 0.16143 -1.46063 -0.947506 -0.31468 -0.0566416 1
0.305026 0.162338 -1.45934 -0.958787 -0.282654 -0.0288967 1
0.304714 0.163158 -1.458 -0.967763 -0.251762 -0.00708706 1
0.304563 0.163563 -1.45646 -0.973343 -0.22933 0.00342598 1
0.304315 0.164653 -1.45532 -0.980289 -0.197348 0.00934401 1
0.303999 0.165878 -1.45434 -0.983405 -0.181349 -0.00519323 1
0.303742 0.167076 -1.45331 -0.982425 -0.183156 -0.0359824 1
0.3035 0.16798 -1.45201 -0.979709 -0.186837 -0.0725398 1
0.303184 0.168731 -1.45063 -0.975367 -0.190308 -0.111544 1
0.302731 0.169544 -1.44933 -0.970108 -0.191633 -0.148884 1
0.302349 0.170322 -1.44799 -0.972447 -0.16625 -0.163424 1
0.301885 0.171073 -1.44665 -0.976477 -0.137006 -0.166502 1
0.302245 0.172107 -1.44549 -0.982446 -0.106438 -0.153202 1
0.302212 0.173072 -1.44421 -0.989533 -0.0713141 -0.125458 1
0.30187 0.174 -1.44295 -0.993638 -0.0566948 -0.0973114 1
0.301487 0.174973 -1.44174 -0.994504 -0.0686384 -0.0790662 1
0.301063 0.175957 -1.44055 -0.995179 -0.0821146 -0.0536315 1
0.301403 0.177291 -1.43974 -0.99389 -0.107293 -0.0258997 1
0.301018 0.178618 -1.43893 -0.990044 -0.140718 -0.00336704 1
