# .PCD v0.7 - Point Cloud Data file format
# 5 78 0
# 1 5 0
# 6 31 0
# 32 52 0
# 53 69 0
# 70 78 0
VERSION 0.7
FIELDS x y z normal_x normal_y normal_z curvature
SIZE 4 4 4 4 4 4 4
TYPE F F F F F F F
COUNT 1 1 1 1 1 1 1
WIDTH 78
HEIGHT 1
VIEWPOINT 0 0 0 1 0 0 0
POINTS 78
DATA ascii
0.250571 -0.0314451 -1.641 0.929223 -0.301671 0.213397 0.01
0.249648 -0.0328915 -1.64015 0.93702 -0.28969 0.195124 1
0.249055 -0.0346346 -1.63961 0.94141 -0.275317 0.194801 1
0.24877 -0.0356118 -1.63799 0.94553 -0.277739 0.169807 1
0.247902 -0.0371294 -1.6372 0.949205 -0.264826 0.169935 1
0.247282 -0.0383951 -1.6359 0.953082 -0.258785 0.157052 1
0.246676 -0.0396075 -1.63455 0.957568 -0.252039 0.139786 1
0.246169 -0.0410694 -1.63342 0.962472 -0.23979 0.127072 1
0.245643 -0.0425643 -1.63234 0.961507 -0.244014 0.126338 1
0.245247 -0.0442748 -1.63157 0.957704 -0.254175 0.1349 1
0.243642 -0.048987 -1.63062 0.956436 -0.245228 0.158408 1
0.243179 -0.0508467 -1.63066 0.960261 -0.22228 0.168789 1
0.242842 -0.0527338 -1.63068 0.96149 -0.201852 0.186529 1
0.242399 -0.054542 -1.63022 0.950349 -0.217312 0.222738 1
0.241692 -0.0563084 -1.63046 0.942816 -0.219518 0.250819 0.01
0.241875 -0.0580348 -1.63127 0.938548 -0.21606 0.269158 1
0.241806 -0.059252 -1.63275 0.940126 -0.214663 0.264731 1
0.24205 -0.0605098 -1.63417 0.941921 -0.211823 0.260606 1
0.242242 -0.0617828 -1.6356 0.94505 -0.216784 0.244715 1
0.242576 -0.0624538 -1.63736 0.949459 -0.225502 0.21835 1
0.242252 -0.0640647 -1.63835 0.948106 -0.24418 0.203642 1
0.2421 -0.0655055 -1.6396 0.946005 -0.258834 0.19514 1
0.242382 -0.0656732 -1.64149 0.94871 -0.239611 0.206243 1
0.242699 -0.0659419 -1.64336 0.953366 -0.21757 0.209182 1
0.243107 -0.0665451 -1.64514 0.95841 -0.194049 0.209274 1
0.243288 -0.0672864 -1.6469 0.963525 -0.172159 0.204893 1
0.243606 -0.068417 -1.64841 0.965978 -0.156282 0.206064 1
0.243807 -0.0688505 -1.65027 0.969728 -0.137849 0.201556 1
0.244307 -0.0687797 -1.65212 0.972802 -0.119478 0.198448 1
0.244585 -0.0692044 -1.65396 0.971375 -0.10736 0.211905 1
0.24493 -0.0691677 -1.65585 0.967106 -0.098367 0.234584 1
0.245346 -0.0693303 -1.65771 0.956884 -0.102358 0.271839 1
0.245685 -0.0697589 -1.65955 0.950434 -0.120688 0.286549 1
0.246249 -0.0702408 -1.66132 0.95277 -0.139455 0.269779 1
0.246813 -0.0707724 -1.66307 0.958589 -0.152675 0.240411 1
0.247216 -0.0715564 -1.66478 0.963214 -0.162773 0.213833 1
0.247485 -0.0716745 -1.66667 0.965808 -0.15884 0.204903 1
0.247845 -0.0719121 -1.66854 0.964844 -0.162093 0.206886 1
0.248288 -0.071504 -1.67036 0.961651 -0.161819 0.221455 1
0.248803 -0.0703682 -1.67181 0.953426 -0.163966 0.253168 1
0.249749 -0.0693289 -1.67312 0.941868 -0.179446 0.28405 0.01
0.249986 -0.0674427 -1.67336 0.933737 -0.197385 0.298621 1
0.250123 -0.0655683 -1.67299 0.927818 -0.219277 0.30178 1
0.250361 -0.0636987 -1.67264 0.925323 -0.23359 0.298686 1
0.250945 -0.0620729 -1.67347 0.919933 -0.23962 0.310331 1
0.251525 -0.0602533 -1.6733 0.919688 -0.238458 0.311949 1
0.252131 -0.0584356 -1.67324 0.918371 -0.23272 0.320058 1
0.252354 -0.0565568 -1.67293 0.920227 -0.222608 0.321914 1
0.252687 -0.0546691 -1.67291 0.919097 -0.214203 0.330723 1
0.253104 -0.0527991 -1.67285 0.918634 -0.206467 0.336873 1
0.253558 -0.0509367 -1.67282 0.888546 -0.252468 0.383075 1
0.254657 -0.0495075 -1.67348 0.813973 -0.321855 0.483588 1
0.255448 -0.0477895 -1.67317 0.752173 -0.368689 0.546173 1
0.256081 -0.0460273 -1.67276 0.702937 -0.385026 0.598026 1
0.256382 -0.0442418 -1.67213 0.670106 -0.386207 0.633878 1
0.257305 -0.0426544 -1.67157 0.595214 -0.420429 0.684806 1
0.258335 -0.0411271 -1.67105 0.490067 -0.457199 0.742162 1
0.258403 -0.0392388 -1.67137 0.627721 -0.326898 0.706473 1
0.25825 -0.0373532 -1.67106 0.698921 -0.188601 0.689883 1
0.258191 -0.0354534 -1.67081 0.72438 -0.0765083 0.685143 1
0.258376 -0.0335542 -1.67063 0.77854 -0.0952827 0.62032 1
0.258927 -0.0317183 -1.67061 0.827091 -0.169778 0.535813 0.01
0.258433 -0.0313799 -1.66878 0.864273 -0.281121 0.417137 1
0.258093 -0.0310291 -1.66693 0.890903 -0.371039 0.261957 1
0.257352 -0.0311352 -1.66517 0.90287 -0.348376 0.251913 1
0.256856 -0.0308982 -1.66333 0.911528 -0.314289 0.265216 1
0.256184 -0.0306708 -1.66155 0.918625 -0.277787 0.281001 1
0.255762 -0.0302573 -1.65972 0.926851 -0.246358 0.283292 1
0.255135 -0.030436 -1.65792 0.939226 -0.237216 0.248158 1
0.254445 -0.0305984 -1.65614 0.940492 -0.247604 0.232738 1
0.254313 -0.0308831 -1.65425 0.937925 -0.258622 0.231109 1
0.25388 -0.0310152 -1.65239 0.930227 -0.272524 0.245783 1
0.253277 -0.0309999 -1.65057 0.91909 -0.290557 0.266176 1
0.253066 -0.030671 -1.64869 0.908223 -0.311477 0.279488 1
0.253322 -0.0296541 -1.64709 0.904716 -0.32326 0.277474 1
0.252484 -0.0293459 -1.64539 0.897159 -0.33526 0.287587 1
0.251554 -0.0291858 -1.64372 0.906318 -0.324519 0.270693 1
0.251492 -0.0301343 -1.64206 0.918889 -0.312635 0.240631 1
