# .PCD v0.7 - Point Cloud Data file format
# 4 111 0
# 1 3 0
# 4 56 0
# 57 102 0
# 103 111 0
VERSION 0.7
FIELDS x y z normal_x normal_y normal_z curvature
SIZE 4 4 4 4 4 4 4
TYPE F F F F F F F
COUNT 1 1 1 1 1 1 1
WIDTH 111
HEIGHT 1
VIEWPOINT 0 0 0 1 0 0 0
POINTS 111
DATA ascii
0.174988 0.095875 -1.36083 -0.496254 0.666436 0.556413 0.01
0.175947 0.0967483 -1.36257 -0.471183 0.691209 0.54792 1
0.176846 0.0980358 -1.36406 -0.420528 0.707076 0.568506 1
0.177425 0.100002 -1.36477 -0.338828 0.721278 0.604114 1
0.177733 0.101688 -1.3661 -0.271768 0.728229 0.629145 1
0.177393 0.102552 -1.36806 -0.310582 0.727985 0.611208 1
0.176202 0.103181 -1.36976 -0.418462 0.708334 0.568465 1
0.174886 0.103779 -1.37138 -0.497263 0.683321 0.534605 1
0.173616 0.104444 -1.37301 -0.549875 0.661095 0.510482 1
0.172587 0.104853 -1.37487 -0.590143 0.638641 0.493831 1
0.159669 0.111214 -1.39522 -0.66572 0.163358 0.728101 1
0.161079 0.111626 -1.39362 -0.00746114 -0.185262 -0.982661 1
0.162544 0.112667 -1.39241 -0.0777672 0.112097 -0.99065 0.01
0.162029 0.113402 -1.39043 -0.16874 0.259556 -0.950872 1
0.161557 0.113966 -1.38839 -0.777201 0.185748 0.601213 1
0.161328 0.114683 -1.38636 0.834795 -0.0633248 0.546907 1
0.161199 0.115339 -1.3843 0.883794 -0.116351 0.453177 1
0.161256 0.116076 -1.38226 0.911729 -0.141932 0.385494 1
0.16125 0.115996 -1.38009 0.896062 -0.0551403 0.44049 1
0.161296 0.115648 -1.37795 -0.697857 0.708659 0.103915 1
0.161297 0.115227 -1.37582 -0.643832 0.728172 0.235043 1
0.161786 0.115363 -1.37371 -0.335793 0.762953 0.5524 1
0.161695 0.114568 -1.37169 -0.46325 0.747325 0.476345 1
0.160936 0.113079 -1.37031 -0.456503 0.722193 0.519657 1
0.1602 0.111551 -1.36896 -0.447191 0.687223 0.572489 1
0.159162 0.109706 -1.36849 0.506078 0.0783354 0.858923 1
0.158349 0.108052 -1.36734 0.600217 -0.130695 0.789087 1
0.157509 0.106341 -1.36631 -0.270189 0.412575 0.869931 1
0.156782 0.104606 -1.36523 -0.387042 0.411278 0.825257 1
0.155931 0.102767 -1.36445 0.118145 0.0420422 0.992106 1
0.155316 0.101044 -1.36329 -0.60746 0.369228 0.703323 1
0.154322 0.0991864 -1.36277 -0.548041 0.25425 0.796874 1
0.153809 0.0978804 -1.36112 0.202963 0.955758 0.212917 1
0.152899 0.0960578 -1.36037 0.254573 0.767114 0.588836 1
0.151903 0.0941335 -1.36027 0.496169 0.254236 0.830169 1
0.151077 0.0923902 -1.35928 0.508694 0.0898956 0.856241 1
0.150283 0.0904996 -1.35857 0.511509 0.0119468 0.859195 1
0.149468 0.088609 -1.35789 0.492208 -0.00662529 0.870452 1
0.148901 0.0868378 -1.35677 0.462334 0.0146624 0.886585 1
0.148417 0.0851061 -1.35556 0.423168 0.0582928 0.904174 1
0.148034 0.0835426 -1.3541 0.368557 0.13384 0.91992 1
0.147775 0.0821105 -1.3525 0.28533 0.352705 0.891171 1
0.147582 0.0806056 -1.35095 0.326871 0.940615 0.091642 1
0.147622 0.0794978 -1.34908 -0.388923 0.863573 0.320906 1
0.147061 0.0778506 -1.34779 -0.182731 0.914934 0.359868 1
0.147271 0.076479 -1.34612 -0.183134 0.849139 0.495404 1
0.146361 0.0746035 -1.34552 -0.39787 0.738009 0.545016 1
0.145247 0.0727537 -1.34531 -0.633738 0.593975 0.49555 1
0.14412 0.0709007 -1.34535 -0.752824 0.488279 0.441407 1
0.143188 0.0689585 -1.34509 -0.797758 0.425448 0.42729 1
0.142606 0.0670785 -1.34418 -0.802207 0.384331 0.456896 1
0.142114 0.0650999 -1.34344 -0.792873 0.372096 0.482594 1
0.141187 0.063192 -1.34299 -0.794838 0.366966 0.483289 1
0.140862 0.0613419 -1.3419 -0.761303 0.356716 0.541453 1
0.140753 0.059488 -1.34078 -0.688939 0.335456 0.64252 1
0.139736 0.0577451 -1.34158 -0.762685 0.344265 0.547534 1
0.138953 0.0557537 -1.34122 -0.756337 0.334987 0.561906 1
0.138225 0.0538092 -1.34059 -0.732957 0.319005 0.600841 1
0.137499 0.0517712 -1.34075 -0.74051 0.313517 0.594435 1
0.136889 0.0497998 -1.34008 -0.699577 0.286594 0.654565 1
0.136218 0.0477908 -1.34054 -0.714872 0.284886 0.638591 1
0.135593 0.0457174 -1.34042 -0.701284 0.226639 0.675896 1
0.134991 0.0436461 -1.34019 -0.675586 0.12263 0.727011 1
0.13438 0.0415769 -1.33997 -0.63887 -0.0245657 0.768923 1
0.13381 0.0395888 -1.33931 -0.566526 -0.203952 0.798406 1
0.133199 0.0378091 -1.34039 -0.606104 -0.370664 0.703737 0.01
0.134681 0.0364044 -1.34112 -0.390502 -0.61739 0.682889 1
0.136215 0.0349623 -1.34165 0.150993 -0.714981 0.682645 1
0.137927 0.0336767 -1.34199 -0.605756 0.394023 0.691235 1
0.139798 0.0326069 -1.34224 0.856988 -0.416264 -0.303802 1
0.141722 0.0316406 -1.34198 -0.743799 0.197061 0.638695 1
0.143828 0.0311811 -1.34174 0.850093 -0.421518 -0.315697 1
0.145784 0.030581 -1.34102 -0.760018 0.218274 0.612152 1
0.147726 0.0301487 -1.34016 -0.762735 0.2182 0.608789 1
0.149459 0.0307228 -1.33898 -0.751145 0.23802 0.615733 1
0.150723 0.0317897 -1.33758 -0.733092 0.259093 0.628846 1
0.151936 0.0329518 -1.33621 -0.692409 0.276009 0.666624 1
0.152976 0.0346894 -1.33543 -0.550252 0.302153 0.778412 1
0.154278 0.0362425 -1.33621 0.862295 -0.0900147 0.498342 1
0.154676 0.0383653 -1.33641 0.922491 -0.207061 0.325785 1
0.1556 0.0400701 -1.33738 0.946859 -0.283481 0.151979 1
0.156325 0.0419826 -1.3381 0.945771 -0.295679 0.134504 1
0.156661 0.0440503 -1.33866 0.943402 -0.296365 0.148861 1
0.157083 0.0458726 -1.33976 0.932192 -0.293967 0.211192 1
0.157547 0.0477972 -1.34065 0.918571 -0.395023 -0.0135411 1
0.157907 0.0499238 -1.34042 -0.374385 0.401662 0.835765 1
0.159543 0.0511418 -1.34116 0.87096 -0.465923 0.156028 1
0.160932 0.0526305 -1.34191 0.837181 -0.541539 0.0765724 1
0.161268 0.0545975 -1.34276 0.801574 -0.597603 0.0187009 1
0.161581 0.0567433 -1.34281 -0.547589 0.48164 0.684229 1
0.16221 0.0587318 -1.34341 -0.591189 0.479686 0.648381 1
0.162758 0.0602013 -1.34491 0.94583 -0.294833 0.135934 1
0.163102 0.0619414 -1.34616 -0.661476 0.475114 0.580272 1
0.164275 0.0636282 -1.34685 0.811226 -0.497935 0.306551 1
0.164362 0.0656259 -1.34769 -0.687999 0.461083 0.560411 1
0.16423 0.0674934 -1.34879 -0.698698 0.479792 0.530679 1
0.163949 0.0695576 -1.34939 -0.691936 0.519383 0.501464 1
0.164472 0.0712603 -1.35063 -0.670308 0.536595 0.512594 1
0.165463 0.0731371 -1.35108 -0.651058 0.551779 0.521214 1
0.166393 0.0750502 -1.3515 -0.631396 0.557992 0.538502 1
0.167519 0.0766701 -1.35241 -0.611428 0.551349 0.5676 1
0.168697 0.0784177 -1.35292 -0.588329 0.539599 0.602247 1
0.169969 0.0799609 -1.35376 -0.571701 0.509487 0.643102 1
0.171223 0.0815605 -1.35452 -0.555302 0.489501 0.67233 1
0.171663 0.0836028 -1.3551 -0.549982 0.475517 0.686588 1
0.172306 0.0856085 -1.35562 -0.545323 0.472312 0.692491 1
0.172605 0.0874402 -1.35674 -0.559389 0.476705 0.678112 1
0.172348 0.0893564 -1.35772 -0.585913 0.484901 0.64929 1
0.172476 0.0915215 -1.35776 -0.571977 0.527252 0.62837 1
0.173414 0.0933514 -1.35845 -0.540329 0.585525 0.604322 1
0.174183 0.0953321 -1.35889 -0.500632 0.636087 0.587163 1
