# .PCD v0.7 - Point Cloud Data file format
# 3 30 0
# 1 4 0
# 5 26 0
# 27 30 0
VERSION 0.7
FIELDS x y z normal_x normal_y normal_z curvature
SIZE 4 4 4 4 4 4 4
TYPE F F F F F F F
COUNT 1 1 1 1 1 1 1
WIDTH 30
HEIGHT 1
VIEWPOINT 0 0 0 1 0 0 0
POINTS 30
DATA ascii
-0.161162 0.0245614 -1.57243 0.573404 0.710526 -0.407874 0.01
-0.161933 0.0252597 -1.57225 0.581865 0.708705 -0.398961 1
-0.162642 0.0259408 -1.57184 0.584978 0.707396 -0.396727 1
-0.163386 0.0266265 -1.57152 0.590483 0.706864 -0.389453 1
-0.164153 0.027315 -1.57126 0.597369 0.70694 -0.378663 1
-0.141102 0.00847008 -1.57689 0.312313 0.138963 0.93976 1
-0.142126 0.00841686 -1.57661 0.386103 0.21004 0.898225 1
-0.143068 0.00864247 -1.57637 0.482137 0.29795 0.823875 1
-0.14388 0.00930624 -1.57619 0.561406 0.386268 0.731861 0.01
-0.144662 0.00999465 -1.57598 0.159148 0.346718 -0.924369 1
-0.145447 0.010675 -1.57576 0.153495 0.367836 -0.917134 1
-0.146296 0.0112797 -1.57555 0.811025 0.582499 -0.054159 1
-0.147105 0.0119328 -1.57533 0.790864 0.586952 -0.173263 1
-0.147881 0.0126248 -1.5751 0.775232 0.575358 -0.260728 1
-0.148678 0.0133185 -1.57499 0.170635 0.428801 -0.887138 1
-0.14947 0.0140116 -1.57484 0.183221 0.439843 -0.879186 1
-0.150247 0.0147032 -1.57462 0.715312 0.58408 -0.383641 1
-0.151039 0.0153942 -1.57446 0.694749 0.593139 -0.40683 1
-0.151837 0.0160856 -1.57433 0.220942 0.473382 -0.852698 1
-0.152626 0.016782 -1.57418 0.233589 0.484423 -0.843072 1
-0.153403 0.0174821 -1.57399 0.633517 0.63099 -0.447781 1
-0.154168 0.018186 -1.57377 0.612042 0.645265 -0.457206 1
-0.154935 0.0188954 -1.57357 0.590803 0.661766 -0.461538 1
-0.155703 0.0196059 -1.57337 0.569435 0.679964 -0.461945 1
-0.15647 0.0203176 -1.57318 0.547783 0.699753 -0.458562 1
-0.15724 0.0210273 -1.573 0.526824 0.720188 -0.451427 1
-0.158012 0.0217369 -1.57282 0.533945 0.71777 -0.446888 1
-0.158776 0.0224625 -1.57268 0.541981 0.715647 -0.440575 1
-0.159561 0.0231718 -1.57258 0.551654 0.713884 -0.431331 1
-0.16037 0.0238606 -1.57254 0.563188 0.712348 -0.418783 1
