# .PCD v0.7 - Point Cloud Data file format
# 4 210 0
# 1 13 0
# 14 89 0
# 90 169 0
# 170 210 0
VERSION 0.7
FIELDS x y z normal_x normal_y normal_z curvature
SIZE 4 4 4 4 4 4 4
TYPE F F F F F F F
COUNT 1 1 1 1 1 1 1
WIDTH 210
HEIGHT 1
VIEWPOINT 0 0 0 1 0 0 0
POINTS 210
DATA ascii
-0.193417 -0.0820761 -1.59998 0.952311 -0.2532 -0.170276 0.01
-0.193976 -0.081413 -1.6013 0.953036 -0.230489 -0.196463 1
-0.194368 -0.0810806 -1.6028 0.950456 -0.222298 -0.217293 1
-0.194261 -0.0803813 -1.60421 0.947765 -0.221587 -0.229437 1
-0.194698 -0.0808815 -1.60565 0.945638 -0.219512 -0.239963 1
-0.194934 -0.080112 -1.60701 0.942603 -0.221698 -0.249699 1
-0.195574 -0.0798862 -1.60844 0.938766 -0.224013 -0.261795 1
-0.195649 -0.0792272 -1.60987 0.935665 -0.228402 -0.269006 1
-0.195757 -0.0785021 -1.61127 0.933264 -0.23349 -0.272949 1
-0.19629 -0.0787155 -1.61275 0.929641 -0.238741 -0.28066 1
-0.196617 -0.078619 -1.61429 0.925943 -0.245382 -0.287083 1
-0.197379 -0.078885 -1.61565 0.921315 -0.252704 -0.295498 1
-0.198024 -0.0793579 -1.61701 0.915771 -0.2612 -0.305185 1
-0.198443 -0.0790192 -1.6185 0.911393 -0.270529 -0.310125 1
-0.198773 -0.0788689 -1.62004 0.908234 -0.279579 -0.311364 1
-0.199552 -0.0791471 -1.62139 0.904818 -0.287529 -0.314057 1
-0.200045 -0.0789387 -1.62287 0.903563 -0.292149 -0.313405 1
-0.200471 -0.0786517 -1.62437 0.903428 -0.293685 -0.312357 0.591959
-0.200746 -0.0782202 -1.62587 0.904281 -0.291722 -0.311729 1
-0.200775 -0.0775514 -1.6273 0.905596 -0.286276 -0.312957 1
-0.201066 -0.077192 -1.62881 0.906676 -0.279243 -0.316167 1
-0.201625 -0.0771041 -1.63029 0.905247 -0.272525 -0.325973 1
-0.202325 -0.0768979 -1.63169 0.903129 -0.267216 -0.336086 1
-0.202782 -0.076922 -1.6332 0.900357 -0.263736 -0.346123 1
-0.203006 -0.0761209 -1.63455 0.897444 -0.261033 -0.355606 1
-0.203849 -0.075811 -1.63585 0.893737 -0.26065 -0.365098 1
-0.204042 -0.075165 -1.63728 0.890151 -0.26159 -0.373097 1
-0.20477 -0.0749809 -1.63867 0.886746 -0.265001 -0.378757 1
-0.205299 -0.0746332 -1.64012 0.885446 -0.269712 -0.378473 1
-0.20578 -0.0744205 -1.64161 0.883883 -0.274732 -0.378515 1
-0.206215 -0.0739021 -1.64304 0.882755 -0.279668 -0.37753 1
-0.206834 -0.0735425 -1.64445 0.881212 -0.284963 -0.377175 1
-0.20705 -0.0732351 -1.64598 0.879787 -0.290174 -0.376528 1
-0.207158 -0.0725215 -1.64739 0.879372 -0.294233 -0.374341 1
-0.207468 -0.0724089 -1.64894 0.87764 -0.299497 -0.374231 1
-0.208491 -0.0732229 -1.64983 0.874283 -0.305726 -0.377042 1
-0.209425 -0.0736071 -1.65104 0.871963 -0.311659 -0.377557 1
-0.210049 -0.0742278 -1.65236 0.869906 -0.317498 -0.377437 1
-0.210551 -0.0738945 -1.65382 0.870307 -0.319469 -0.37484 1
-0.211133 -0.0737273 -1.65528 0.87086 -0.320729 -0.372474 1
-0.211046 -0.0734619 -1.65684 0.872277 -0.319141 -0.370515 1
-0.211413 -0.0721998 -1.65771 0.87475 -0.312996 -0.369927 1
-0.212116 -0.071205 -1.65964 0.878483 -0.307206 -0.365912 1
-0.211963 -0.0699779 -1.66063 0.881399 -0.299659 -0.365157 1
-0.212446 -0.0693072 -1.66197 0.884261 -0.295133 -0.36191 1
-0.212873 -0.0687404 -1.66339 0.887289 -0.290706 -0.358063 1
-0.213281 -0.0681846 -1.66481 0.890576 -0.285909 -0.353738 1
-0.213323 -0.0683452 -1.66638 0.892364 -0.283636 -0.351052 1
-0.213719 -0.0672875 -1.66749 0.892238 -0.276203 -0.357243 1
-0.214228 -0.0668193 -1.66891 0.891728 -0.27144 -0.362135 1
-0.214506 -0.0663426 -1.67039 0.891731 -0.266247 -0.365963 1
-0.214917 -0.065491 -1.67166 0.892356 -0.259339 -0.369383 1
-0.215321 -0.064803 -1.67302 0.893371 -0.252302 -0.371796 1
-0.215644 -0.0640209 -1.67436 0.894757 -0.243981 -0.37401 1
-0.215681 -0.0628976 -1.67547 0.895081 -0.235779 -0.378469 0.01
-0.215295 -0.061372 -1.67532 0.894988 -0.229232 -0.382688 1
-0.214982 -0.0598343 -1.67512 0.896771 -0.219179 -0.384398 1
-0.214612 -0.058364 -1.67468 0.899399 -0.207837 -0.384558 1
-0.213928 -0.0573636 -1.67366 0.899656 -0.209284 -0.383169 1
-0.213306 -0.0561575 -1.67285 0.899551 -0.210962 -0.382495 1
-0.21269 -0.0547492 -1.67248 0.899092 -0.212593 -0.382671 1
-0.212011 -0.0535043 -1.67178 0.898656 -0.214254 -0.382771 1
-0.211428 -0.0522674 -1.67099 0.89808 -0.215953 -0.383166 1
-0.210807 -0.0509371 -1.6704 0.897298 -0.217585 -0.384075 1
-0.21018 -0.0497575 -1.66955 0.896383 -0.219377 -0.385189 1
-0.209589 -0.0484364 -1.66892 0.895246 -0.221051 -0.386875 1
-0.208977 -0.0472659 -1.66805 0.893845 -0.222962 -0.38901 1
-0.208349 -0.0459271 -1.66749 0.892095 -0.225282 -0.391682 1
-0.207698 -0.0446605 -1.6668 0.889321 -0.230704 -0.394821 1
-0.207073 -0.0433588 -1.66616 0.88624 -0.236043 -0.398575 1
-0.206427 -0.0421047 -1.66544 0.883191 -0.241268 -0.402197 1
-0.205913 -0.0406882 -1.66496 0.88067 -0.246374 -0.404623 1
-0.205151 -0.0402446 -1.66365 0.878802 -0.249411 -0.406818 1
-0.204406 -0.0391481 -1.66279 0.876918 -0.25338 -0.408429 1
-0.203531 -0.0379274 -1.66229 0.875453 -0.257335 -0.409098 1
-0.202654 -0.0367307 -1.66175 0.874435 -0.260911 -0.40901 1
-0.202152 -0.0356241 -1.66074 0.874084 -0.263316 -0.408217 1
-0.201838 -0.0341937 -1.66014 0.874031 -0.266486 -0.406269 1
-0.201149 -0.0329225 -1.6595 0.875387 -0.266383 -0.403408 1
-0.200396 -0.0317131 -1.65881 0.878513 -0.261226 -0.399968 1
-0.200108 -0.0301603 -1.65889 0.880832 -0.257065 -0.397558 1
-0.199236 -0.0293767 -1.65783 0.884196 -0.252519 -0.392977 1
-0.198831 -0.0278956 -1.65746 0.887086 -0.247995 -0.389328 1
-0.198197 -0.0265311 -1.65697 0.890153 -0.243451 -0.385174 1
-0.197492 -0.0251247 -1.65681 0.892661 -0.239229 -0.382002 1
-0.197017 -0.0241397 -1.65567 0.896091 -0.235505 -0.376243 1
-0.196257 -0.0232286 -1.65462 0.898679 -0.231818 -0.372339 1
-0.195625 -0.021982 -1.65389 0.900798 -0.228216 -0.369433 1
-0.195135 -0.0204793 -1.65386 0.902204 -0.224941 -0.368007 1
-0.194395 -0.0191895 -1.65332 0.903302 -0.224025 -0.365867 1
-0.193693 -0.0177975 -1.65305 0.904074 -0.22337 -0.364358 0.828757
-0.193413 -0.0162414 -1.65304 0.904408 -0.222788 -0.363884 0.510894
-0.193151 -0.0146847 -1.65296 0.90471 -0.222136 -0.363533 0.702226
-0.192752 -0.0132402 -1.65245 0.90534 -0.221598 -0.362289 0.529293
-0.192644 -0.0117436 -1.65295 0.904872 -0.220647 -0.364035 1
-0.192542 -0.0101892 -1.65322 0.904479 -0.219456 -0.365727 1
-0.192321 -0.0086387 -1.65344 0.904035 -0.218042 -0.367665 1
-0.191995 -0.00709536 -1.65355 0.903589 -0.216532 -0.36965 1
-0.191362 -0.00569468 -1.65318 0.901969 -0.223761 -0.3693 1
-0.191009 -0.00415829 -1.65305 0.899495 -0.23211 -0.37018 1
-0.190629 -0.00268433 -1.65263 0.897479 -0.24063 -0.369632 1
-0.18986 -0.0013746 -1.65307 0.894522 -0.248171 -0.371808 1
-0.18931 -9.63803e-05 -1.65232 0.893254 -0.256516 -0.369184 1
-0.188692 0.00107772 -1.65146 0.892324 -0.264541 -0.365754 1
-0.188059 0.00241136 -1.65089 0.890607 -0.273155 -0.3636 1
-0.187355 0.00335889 -1.64984 0.890262 -0.280315 -0.358968 1
-0.186863 0.00485594 -1.64971 0.887441 -0.289193 -0.358911 1
-0.186102 0.00586714 -1.64876 0.886605 -0.296708 -0.354818 1
-0.185422 0.00688322 -1.64776 0.887119 -0.299329 -0.351315 1
-0.184725 0.0074271 -1.64645 0.888207 -0.302075 -0.346178 1
-0.183975 0.00857351 -1.64566 0.888095 -0.304832 -0.344041 1
-0.183192 0.00993179 -1.64545 0.887113 -0.307057 -0.344596 1
-0.182551 0.0109357 -1.64441 0.887005 -0.310244 -0.342009 1
-0.181853 0.0120276 -1.64351 0.885166 -0.312808 -0.344431 1
-0.181139 0.0134384 -1.64353 0.883683 -0.314897 -0.346329 1
-0.180689 0.0149335 -1.64328 0.881972 -0.317125 -0.348652 1
-0.180405 0.0164536 -1.64295 0.880219 -0.319347 -0.351044 1
-0.179544 0.0174481 -1.64207 0.878 -0.322114 -0.354059 1
-0.178914 0.0188679 -1.64178 0.876202 -0.324415 -0.356406 1
-0.178233 0.0202101 -1.64129 0.874858 -0.325918 -0.358331 1
-0.177418 0.0210529 -1.64023 0.87393 -0.326857 -0.359737 0.813252
-0.176505 0.02234 -1.64013 0.873684 -0.327446 -0.359798 0.152052
-0.175935 0.0227091 -1.6387 0.873821 -0.326734 -0.360113 0.785871
-0.175242 0.0231131 -1.63734 0.874526 -0.325112 -0.35987 1
-0.174086 0.0240119 -1.63674 0.875988 -0.323468 -0.357791 1
-0.173587 0.0248087 -1.63547 0.878256 -0.320273 -0.355094 1
-0.172992 0.0260794 -1.63474 0.881281 -0.317499 -0.350053 1
-0.172376 0.0273823 -1.63409 0.884594 -0.314297 -0.344544 1
-0.171709 0.0285418 -1.63325 0.887775 -0.309384 -0.34079 1
-0.171036 0.0297075 -1.63242 0.891271 -0.303905 -0.336569 1
-0.170288 0.0302657 -1.63114 0.894097 -0.295353 -0.336687 0.01
-0.170003 0.0297067 -1.62969 0.893891 -0.287793 -0.343707 1
-0.170088 0.02841 -1.62879 0.891186 -0.286059 -0.352077 1
-0.169697 0.0278099 -1.62738 0.890335 -0.281172 -0.358114 1
-0.169556 0.026613 -1.62636 0.887729 -0.281065 -0.364609 1
-0.169624 0.0253617 -1.62539 0.88563 -0.283338 -0.367938 1
-0.169682 0.0240916 -1.62445 0.886456 -0.287729 -0.362502 1
-0.169759 0.0227384 -1.62364 0.88659 -0.293454 -0.357552 1
-0.170138 0.0212461 -1.62328 0.88407 -0.301482 -0.357111 1
-0.170514 0.019759 -1.6229 0.881293 -0.310234 -0.356478 1
-0.170742 0.0182885 -1.62236 0.878881 -0.319214 -0.354502 1
-0.171381 0.01685 -1.62251 0.873031 -0.330606 -0.358494 1
-0.171993 0.0153931 -1.62257 0.868522 -0.340056 -0.360598 1
-0.17231 0.0139717 -1.62196 0.871809 -0.334746 -0.357623 1
-0.172525 0.0125207 -1.62137 0.874784 -0.328572 -0.356081 1
-0.172623 0.0110788 -1.62073 0.877559 -0.321629 -0.35559 1
-0.172975 0.00958393 -1.62035 0.879507 -0.313845 -0.357727 1
-0.173591 0.00813114 -1.62025 0.880431 -0.306389 -0.361894 1
-0.173683 0.00671177 -1.61956 0.882239 -0.297457 -0.364929 1
-0.173536 0.00555953 -1.61849 0.884597 -0.287648 -0.367078 1
-0.174161 0.00411508 -1.61834 0.884427 -0.279147 -0.373987 1
-0.174615 0.00261841 -1.61811 0.884162 -0.26991 -0.381322 1
-0.174974 0.00111232 -1.61779 0.882404 -0.263997 -0.389447 1
-0.175244 -0.000358024 -1.61727 0.878591 -0.266395 -0.396373 1
-0.175162 -0.0017468 -1.61652 0.875515 -0.269805 -0.400848 1
-0.175544 -0.00323385 -1.61614 0.875221 -0.279304 -0.394939 1
-0.175704 -0.0047481 -1.61572 0.878829 -0.292036 -0.377326 1
-0.176286 -0.0062133 -1.6156 0.878105 -0.304124 -0.369379 1
-0.176599 -0.0076821 -1.6151 0.881884 -0.320746 -0.345548 1
-0.176621 -0.00912653 -1.61446 0.886241 -0.340229 -0.314359 1
-0.17729 -0.0105585 -1.61442 0.885009 -0.354463 -0.301853 1
-0.177888 -0.0119989 -1.61468 0.883685 -0.365172 -0.292831 1
-0.178334 -0.0134642 -1.61429 0.895299 -0.356658 -0.266897 1
-0.178684 -0.0149552 -1.6139 0.907252 -0.34195 -0.244877 1
-0.179428 -0.0163405 -1.61406 0.916942 -0.320152 -0.238158 1
-0.17981 -0.017714 -1.61338 0.926573 -0.305498 -0.219394 1
-0.180126 -0.0190994 -1.61268 0.935612 -0.288272 -0.203788 1
-0.180456 -0.0206076 -1.61234 0.943686 -0.266325 -0.196284 1
-0.180597 -0.0219478 -1.61152 0.95163 -0.246477 -0.183437 1
-0.180526 -0.0235243 -1.61161 0.957118 -0.222599 -0.185407 1
-0.180869 -0.024758 -1.61069 0.963998 -0.200859 -0.174252 1
-0.181242 -0.0260217 -1.60981 0.97028 -0.17783 -0.164112 1
-0.181525 -0.0272573 -1.60887 0.971491 -0.180126 -0.154143 1
-0.181794 -0.0286689 -1.60821 0.970935 -0.186696 -0.149768 1
-0.182138 -0.0300354 -1.60749 0.970604 -0.191985 -0.145156 1
-0.18206 -0.0311474 -1.60637 0.971454 -0.191517 -0.139993 1
-0.181649 -0.0324572 -1.60558 0.970928 -0.192989 -0.141612 1
-0.182296 -0.0338028 -1.60506 0.969421 -0.197058 -0.146257 1
-0.182929 -0.0352436 -1.60521 0.966125 -0.204643 -0.157236 1
-0.182986 -0.036667 -1.60453 0.965472 -0.205353 -0.160294 1
-0.182844 -0.0380848 -1.60384 0.965223 -0.204437 -0.162939 1
-0.182709 -0.039549 -1.60326 0.964792 -0.202871 -0.167392 1
-0.183073 -0.0410183 -1.6028 0.963286 -0.203022 -0.175674 1
-0.18367 -0.0423928 -1.6023 0.960939 -0.207475 -0.183165 1
-0.183899 -0.0437966 -1.60161 0.9596 -0.21047 -0.186737 1
-0.183888 -0.0451123 -1.60073 0.95937 -0.211604 -0.186635 1
-0.184145 -0.0466011 -1.60027 0.956868 -0.217249 -0.192891 1
-0.184251 -0.0481646 -1.60006 0.953334 -0.224519 -0.201853 1
-0.184427 -0.0497274 -1.59989 0.949335 -0.232112 -0.211865 1
-0.184732 -0.0512534 -1.59961 0.945413 -0.238826 -0.221713 1
-0.18516 -0.0527539 -1.59936 0.940955 -0.2457 -0.232885 1
-0.185717 -0.0542232 -1.59953 0.934402 -0.256126 -0.247573 1
-0.185844 -0.0557891 -1.59936 0.930316 -0.259268 -0.259408 1
-0.185787 -0.0573537 -1.59913 0.927785 -0.258179 -0.269367 1
-0.186575 -0.0587179 -1.59927 0.923943 -0.26168 -0.279021 1
-0.187282 -0.0600598 -1.59972 0.920741 -0.266032 -0.285418 1
-0.187793 -0.0615555 -1.59967 0.918763 -0.268538 -0.289415 1
-0.188372 -0.0630268 -1.59969 0.917443 -0.271759 -0.290595 1
-0.188735 -0.0644822 -1.59919 0.91613 -0.275985 -0.290756 1
-0.189358 -0.0658209 -1.59976 0.917017 -0.27888 -0.285141 1
-0.189725 -0.0673545 -1.59987 0.917947 -0.282985 -0.278016 1
-0.190005 -0.0689082 -1.59978 0.920398 -0.284275 -0.268431 1
-0.190634 -0.0703078 -1.60017 0.926964 -0.273379 -0.256908 1
-0.191245 -0.07175 -1.60038 0.932146 -0.264668 -0.247091 1
-0.191784 -0.073229 -1.60023 0.936069 -0.258874 -0.238239 1
-0.191729 -0.0746457 -1.59953 0.938359 -0.258431 -0.229557 1
-0.19218 -0.0761262 -1.59985 0.942322 -0.251478 -0.220879 1
-0.192576 -0.0775932 -1.59942 0.945319 -0.2511 -0.208136 1
-0.193023 -0.0790769 -1.5991 0.94869 -0.253569 -0.188919 1
-0.19336 -0.0805559 -1.59955 0.952311 -0.2532 -0.170276 1
