# .PCD v0.7 - Point Cloud Data file format
# 4 81 0
# 1 24 0
# 25 47 0
# 48 77 0
# 78 81 0
VERSION 0.7
FIELDS x y z normal_x normal_y normal_z curvature
SIZE 4 4 4 4 4 4 4
TYPE F F F F F F F
COUNT 1 1 1 1 1 1 1
WIDTH 81
HEIGHT 1
VIEWPOINT 0 0 0 1 0 0 0
POINTS 81
DATA ascii
0.250882 0.103316 -1.40804 0.529104 0.58148 -0.618005 0.01
0.249645 0.103653 -1.40903 0.610982 0.49025 -0.621575 1
0.248364 0.104119 -1.40991 0.725497 0.349838 -0.592678 1
0.247408 0.103516 -1.41107 0.771729 0.321351 -0.548787 1
0.246461 0.104099 -1.41225 0.917399 0.0937505 -0.386767 1
0.245796 0.105123 -1.4169 0.959357 -0.0515676 -0.277443 1
0.245411 0.105343 -1.41846 0.958405 -0.0245846 -0.284352 1
0.244841 0.10585 -1.41989 0.961435 -0.016282 -0.274551 1
0.244344 0.106222 -1.42139 0.964487 -0.0120444 -0.263855 1
0.24387 0.106848 -1.4228 0.966531 -0.0139247 -0.256173 0.609858
0.243512 0.107311 -1.42431 0.96489 -0.0132094 -0.262322 1
0.242953 0.108305 -1.42547 0.953847 0.0124113 -0.300036 1
0.242601 0.108796 -1.42697 0.940825 0.0384622 -0.336704 1
0.242305 0.109427 -1.42843 0.926634 0.0712323 -0.369155 1
0.242091 0.109246 -1.43003 0.927306 0.0733971 -0.367038 1
0.24108 0.110214 -1.43084 0.941754 0.0732861 -0.32822 1
0.240245 0.110537 -1.4322 0.955076 0.0464835 -0.292693 1
0.239875 0.110896 -1.43373 0.96414 0.00826888 -0.265265 1
0.239516 0.111156 -1.43529 0.962734 -0.0273365 -0.269066 1
0.239197 0.111501 -1.43684 0.9541 -0.0421205 -0.29651 1
0.238623 0.111831 -1.43832 0.947304 -0.0488097 -0.316595 1
0.238166 0.111737 -1.43987 0.943191 -0.0485078 -0.328691 1
0.237894 0.112133 -1.44142 0.942313 -0.0446711 -0.331738 1
0.23733 0.112909 -1.44272 0.942527 -0.0384781 -0.331906 1
0.236821 0.113056 -1.44426 0.944912 -0.0292778 -0.326013 1
0.236293 0.11314 -1.44579 0.95027 -0.0146882 -0.31108 1
0.235934 0.113576 -1.4473 0.960536 -0.00348412 -0.278133 1
0.235488 0.114372 -1.44864 0.969001 0.0102816 -0.246842 1
0.23525 0.115052 -1.45009 0.988583 0.082394 -0.126151 0.01
0.235313 0.116639 -1.44977 0.966482 -0.00106625 -0.256733 1
0.235387 0.118216 -1.44941 0.956496 -0.0465253 -0.288013 1
0.235557 0.119816 -1.44922 0.948274 -0.0758367 -0.308263 1
0.235842 0.121391 -1.44897 0.946285 -0.0715661 -0.315315 1
0.23625 0.122783 -1.44825 0.944924 -0.0692094 -0.319887 1
0.236503 0.123782 -1.447 0.943441 -0.073788 -0.323225 1
0.23692 0.124817 -1.44582 0.943424 -0.0755374 -0.32287 1
0.237357 0.126156 -1.44502 0.944492 -0.0774566 -0.319272 1
0.237751 0.127636 -1.44449 0.945261 -0.0821178 -0.315815 1
0.238175 0.128785 -1.44343 0.944721 -0.0841984 -0.316881 1
0.2386 0.12968 -1.44215 0.942374 -0.0857529 -0.323384 1
0.239035 0.13103 -1.44137 0.940505 -0.0926197 -0.326914 1
0.239779 0.132213 -1.44055 0.939071 -0.0988653 -0.329199 1
0.240141 0.13269 -1.43904 0.938067 -0.091493 -0.334154 1
0.240548 0.133194 -1.43755 0.940332 -0.0854533 -0.329353 1
0.241095 0.133962 -1.43624 0.941871 -0.0846106 -0.325148 1
0.241582 0.135022 -1.43511 0.942806 -0.0867651 -0.321852 1
0.242115 0.135641 -1.43371 0.945324 -0.0787978 -0.316469 1
0.242607 0.136778 -1.43267 0.947791 -0.070012 -0.311112 1
0.242959 0.138288 -1.4322 0.948706 -0.0595191 -0.310507 1
0.243259 0.139395 -1.43106 0.946145 -0.0682912 -0.316457 1
0.243396 0.141002 -1.4309 0.944686 -0.0709468 -0.320211 1
0.244011 0.141537 -1.4295 0.942011 -0.0737395 -0.32738 0.01
0.244302 0.140407 -1.42837 0.939215 -0.0739183 -0.335278 1
0.24468 0.13931 -1.42724 0.93578 -0.0730973 -0.344924 1
0.244808 0.137837 -1.42658 0.933968 -0.0723683 -0.349952 1
0.244991 0.136352 -1.42596 0.93264 -0.0735082 -0.353242 1
0.244887 0.134807 -1.42548 0.934146 -0.07589 -0.34873 1
0.24504 0.133326 -1.42484 0.934828 -0.0799874 -0.345976 1
0.245276 0.131936 -1.42404 0.934795 -0.0862904 -0.344546 1
0.245622 0.130829 -1.42291 0.933295 -0.0954038 -0.346205 1
0.246005 0.129998 -1.42157 0.931602 -0.106607 -0.347495 1
0.246305 0.129061 -1.42029 0.931968 -0.115775 -0.343558 1
0.246266 0.127521 -1.41978 0.938387 -0.101383 -0.330379 1
0.246573 0.12652 -1.41855 0.940616 -0.0994967 -0.324564 1
0.246961 0.125841 -1.41713 0.939946 -0.102996 -0.325413 1
0.247048 0.124365 -1.41647 0.942909 -0.0866619 -0.321579 1
0.247507 0.123558 -1.41514 0.938737 -0.0912629 -0.33233 1
0.247888 0.122516 -1.41396 0.935623 -0.0974852 -0.339273 1
0.248292 0.121247 -1.41303 0.934492 -0.108489 -0.339049 1
0.248046 0.119861 -1.41223 0.931904 -0.10775 -0.34633 1
0.248388 0.118729 -1.41112 0.921198 -0.101933 -0.375505 1
0.24878 0.117499 -1.41014 0.911047 -0.0909639 -0.402144 1
0.248896 0.116081 -1.40937 0.904246 -0.0825301 -0.418961 1
0.249362 0.115061 -1.4082 0.898589 -0.0994488 -0.427374 1
0.24969 0.113614 -1.40755 0.906499 -0.11681 -0.405729 1
0.250002 0.112212 -1.4068 0.910013 -0.114303 -0.39851 1
0.249403 0.110706 -1.40678 0.907554 -0.0919235 -0.40975 1
0.249541 0.109272 -1.40604 0.900918 -0.0202384 -0.433517 1
0.249599 0.107714 -1.40649 0.871763 0.102048 -0.479183 1
0.250119 0.106222 -1.40684 0.783682 0.325862 -0.528826 1
0.250559 0.104757 -1.40738 0.639281 0.501339 -0.583077 1
