# .PCD v0.7 - Point Cloud Data file format
# 7 194 0
# 1 9 0
# 10 40 0
# 41 79 0
# 80 139 0
# 140 173 0
# 174 189 0
# 190 194 0
VERSION 0.7
FIELDS x y z normal_x normal_y normal_z curvature
SIZE 4 4 4 4 4 4 4
TYPE F F F F F F F
COUNT 1 1 1 1 1 1 1
WIDTH 194
HEIGHT 1
VIEWPOINT 0 0 0 1 0 0 0
POINTS 194
DATA ascii
-0.0256419 0.189114 -1.58158 0.128817 -0.492273 -0.860856 0.01
-0.0263762 0.187254 -1.58147 0.172945 -0.499196 -0.849054 1
-0.0270867 0.185377 -1.58131 0.225362 -0.455609 -0.861181 1
-0.0276894 0.183452 -1.58132 -0.513343 0.462531 0.722872 1
-0.0283363 0.181563 -1.5811 -0.742446 -0.583143 0.329724 1
-0.02901 0.179695 -1.58075 0.432002 0.259712 -0.863669 1
-0.0640067 0.180521 -1.52327 -0.749115 -0.429293 0.504514 1
-0.0642862 0.182442 -1.52273 -0.771852 -0.367469 0.518855 1
-0.0646259 0.184337 -1.52213 -0.778412 -0.249297 0.576131 1
-0.0650643 0.186188 -1.52146 -0.738565 -0.0146857 0.674023 1
-0.0652387 0.188162 -1.52133 -0.637824 0.303291 0.707952 1
-0.065253 0.190084 -1.52156 -0.46243 0.565764 0.682693 1
-0.0647852 0.191409 -1.52301 -0.636645 0.682397 0.35919 1
-0.0643123 0.192465 -1.52463 -0.286983 0.839335 0.46169 1
-0.0638344 0.193265 -1.52642 -0.731536 0.648296 -0.211109 0.01
-0.0629986 0.194063 -1.52806 -0.470372 0.881072 -0.0496276 1
-0.0620534 0.19498 -1.52956 -0.483258 0.858504 -0.17156 1
-0.0609302 0.196224 -1.53068 -0.372447 0.910838 -0.177927 1
-0.059986 0.197086 -1.53218 -0.950086 0.0060378 -0.31193 1
-0.0591374 0.197729 -1.53389 -0.953228 0.011079 -0.302048 1
-0.0582115 0.197912 -1.53568 -0.95824 0.0397538 -0.28319 1
-0.0573519 0.19838 -1.5374 -0.963283 0.071822 -0.258704 1
-0.0565903 0.199271 -1.53904 -0.50319 0.583534 0.637408 1
-0.0558244 0.199814 -1.54082 -0.432525 0.748617 0.502489 1
-0.0551069 0.200355 -1.5426 -0.962248 0.0735793 -0.262039 1
-0.05465 0.201395 -1.54427 -0.309942 0.528501 0.790331 1
-0.0541538 0.202098 -1.54606 -0.161268 0.618016 0.769447 1
-0.053624 0.202513 -1.54797 -0.0351745 0.645895 0.762616 1
-0.052927 0.203222 -1.54972 -0.0230367 0.675289 0.737193 1
-0.0521322 0.203959 -1.55141 -0.0236397 0.708322 0.705494 1
-0.0511391 0.204701 -1.553 -0.0256125 0.739923 0.672204 1
-0.0500572 0.205374 -1.55456 -0.0332563 0.771685 0.635134 1
-0.0489319 0.206023 -1.55611 -0.0427238 0.811608 0.582638 1
-0.0478052 0.20683 -1.55757 -0.053696 0.865255 0.498447 1
-0.0467376 0.207553 -1.55912 -0.062729 0.927957 0.367371 1
-0.045749 0.208165 -1.56076 -0.0616325 0.981526 0.181128 1
-0.0449067 0.208855 -1.56246 -0.142596 0.972718 -0.182989 1
-0.0440786 0.209538 -1.56417 -0.181038 0.897888 -0.401275 1
-0.0431586 0.210101 -1.56587 -0.216865 0.844635 -0.489451 1
-0.042511 0.210071 -1.56769 -0.294055 0.776717 -0.556994 1
-0.0420751 0.209579 -1.56959 -0.56025 0.573315 0.597855 1
-0.0416088 0.210056 -1.57148 -0.643913 0.657268 0.391632 1
-0.0411347 0.210644 -1.57335 -0.661868 0.749372 0.0193077 1
-0.0406478 0.211336 -1.57518 -0.532711 0.771767 -0.347268 1
-0.0400966 0.212312 -1.57684 -0.490239 0.767011 -0.413956 1
-0.0395509 0.213177 -1.57834 -0.566048 0.639904 -0.519723 0.01
-0.0394139 0.211187 -1.57863 -0.267072 0.65227 -0.709377 1
-0.0392249 0.209224 -1.57904 -0.288715 0.55207 -0.782216 1
-0.0389733 0.207295 -1.57957 -0.316094 0.464665 -0.827146 1
-0.0388578 0.20532 -1.57995 -0.377555 0.382445 -0.84332 1
-0.0387713 0.203337 -1.5803 -0.445919 0.307225 -0.840696 1
-0.038691 0.201362 -1.58071 -0.0353185 0.64502 -0.763349 1
-0.0386162 0.19939 -1.58112 -0.0933597 0.443136 -0.89158 1
-0.0385451 0.197421 -1.58155 -0.428696 0.0786804 -0.900016 1
-0.0385081 0.195462 -1.58203 -0.368971 0.0129426 -0.929351 1
-0.0384827 0.193503 -1.58251 -0.29883 -0.0571618 -0.952593 1
-0.038477 0.191547 -1.583 -0.223488 -0.122728 -0.966949 1
-0.0385019 0.189586 -1.58347 -0.147068 -0.171522 -0.974141 1
-0.0385424 0.187621 -1.58393 -0.067678 -0.185606 -0.980291 1
-0.0386164 0.18564 -1.58429 0.0271476 -0.109177 -0.993652 1
-0.0387204 0.183659 -1.58466 0.134666 0.290319 -0.947407 1
-0.0388572 0.18168 -1.58502 0.115035 0.485995 -0.866358 1
-0.0390147 0.1797 -1.58537 0.11887 0.497347 -0.85937 1
-0.0391376 0.177712 -1.58563 0.116011 0.477275 -0.871063 1
-0.0391363 0.175696 -1.58557 0.107163 0.430407 -0.896251 1
-0.0390593 0.173716 -1.58584 0.17289 0.368 -0.913611 1
-0.0389348 0.171758 -1.58631 0.54097 0.232786 -0.808184 1
-0.0390013 0.169748 -1.58617 -0.924776 0.293473 -0.242206 1
-0.0389385 0.167788 -1.58634 0.0194398 -0.0664415 -0.997601 1
-0.0386525 0.165916 -1.58703 -0.00179868 -0.119909 -0.992783 1
-0.0384516 0.163945 -1.58733 0.0948291 -0.176744 -0.979678 1
-0.0381921 0.161967 -1.58743 0.143181 -0.114334 -0.98307 1
-0.0373278 0.160164 -1.58717 0.210005 0.0429142 -0.976758 1
-0.0363475 0.15842 -1.58695 0.274969 0.186107 -0.943269 1
-0.0352531 0.156735 -1.58677 0.335664 0.276322 -0.900542 1
-0.034094 0.155161 -1.58629 0.389913 0.326028 -0.861205 1
-0.0327763 0.153797 -1.58575 0.439798 0.355067 -0.824928 1
-0.0310329 0.152987 -1.58514 0.489715 0.367235 -0.79077 1
-0.0306691 0.151497 -1.58531 0.493172 0.381633 -0.781753 1
-0.0310896 0.149623 -1.58592 0.47141 0.366235 -0.802275 1
-0.0317315 0.147746 -1.58629 0.420549 0.273588 -0.865036 1
-0.0327177 0.14613 -1.58673 0.0341393 -0.146881 -0.988565 1
-0.0342311 0.144915 -1.58727 -0.0401881 0.93487 -0.352707 1
-0.0358073 0.143786 -1.58783 -0.41268 0.149413 0.898538 1
-0.0372722 0.142805 -1.58802 -0.0565771 0.97826 0.199515 0.01
-0.038008 0.14251 -1.58616 0.101271 0.981809 -0.16061 1
-0.0387741 0.14271 -1.58437 -0.705612 -0.708595 0.00216484 1
-0.0395669 0.14335 -1.58263 -0.644864 -0.726761 0.236575 1
-0.040378 0.143795 -1.58084 -0.610153 -0.734306 0.297502 1
-0.0411927 0.144271 -1.57905 -0.585259 -0.741436 0.328244 1
-0.0420115 0.144872 -1.57731 0.130426 0.969447 -0.207751 1
-0.0428231 0.145424 -1.57555 0.0878589 0.979139 -0.183212 1
-0.0436306 0.145965 -1.57378 0.0417852 0.96956 -0.241261 1
-0.0444285 0.146818 -1.57214 0.00131917 0.947809 -0.318835 1
-0.0452222 0.14761 -1.57047 -0.0341293 0.91168 -0.409481 1
-0.0460102 0.148319 -1.56875 -0.0626978 0.863471 -0.500486 1
-0.0467869 0.149017 -1.56702 -0.0830552 0.808867 -0.582096 1
-0.047521 0.149676 -1.56527 -0.0927251 0.755145 -0.648966 1
-0.0480701 0.150164 -1.56339 -0.427606 -0.773908 0.467139 1
-0.048604 0.150653 -1.56151 -0.409775 -0.814063 0.411565 1
-0.0491258 0.151143 -1.55962 -0.391951 -0.843783 0.366613 1
-0.0496282 0.151673 -1.55774 -0.372911 -0.867784 0.328464 1
-0.0501036 0.152276 -1.55588 -0.0826944 0.894853 -0.438633 1
-0.0505225 0.153038 -1.55406 -0.0195307 0.858126 -0.513068 1
-0.0509735 0.15367 -1.5522 0.00595905 0.835306 -0.549752 1
-0.0514354 0.154248 -1.55033 0.0164652 0.821537 -0.569917 1
-0.0518476 0.154889 -1.54846 0.0265324 0.813705 -0.580672 1
-0.0522584 0.155531 -1.54659 0.0370286 0.808983 -0.586665 1
-0.0526675 0.156174 -1.54473 -0.346516 -0.929349 0.127426 1
-0.0538112 0.156804 -1.54324 -0.398513 -0.904568 0.151474 1
-0.0551705 0.157359 -1.54236 -0.456004 -0.864068 0.213184 1
-0.0567609 0.157626 -1.54357 -0.477859 -0.854931 0.201851 1
-0.057775 0.158293 -1.54311 -0.516462 -0.822583 0.237958 1
-0.0583714 0.15925 -1.54144 -0.553458 -0.766317 0.326256 1
-0.0589129 0.160325 -1.53982 -0.571555 -0.704965 0.419939 1
-0.0593336 0.161564 -1.53832 -0.563883 -0.656942 0.500463 1
-0.0595206 0.163116 -1.53704 -0.520548 -0.655924 0.54662 1
-0.0599555 0.164429 -1.5356 -0.430131 -0.7341 0.525437 1
-0.0604624 0.165691 -1.53412 -0.358011 -0.789851 0.49796 1
-0.0607024 0.167394 -1.53307 -0.331472 -0.805525 0.491179 1
-0.0611702 0.168749 -1.53175 -0.346788 -0.794915 0.497843 1
-0.0618942 0.169713 -1.53013 -0.403794 -0.76135 0.507244 1
-0.0625077 0.171119 -1.52884 -0.589087 -0.665845 0.457851 1
-0.063019 0.172618 -1.52761 -0.672224 -0.603876 0.428309 1
-0.0632492 0.174166 -1.52633 -0.456743 -0.672537 0.582306 1
-0.0627474 0.175343 -1.52493 -0.501687 -0.631163 0.59156 1
-0.0617678 0.176277 -1.52343 -0.421031 -0.638365 0.644378 1
-0.0602408 0.176702 -1.52219 -0.35554 -0.658909 0.662895 1
-0.0586752 0.176997 -1.52096 -0.316331 -0.676239 0.665309 1
-0.0570579 0.177077 -1.51976 -0.286496 -0.698819 0.655418 1
-0.0553482 0.177113 -1.51869 -0.263126 -0.728555 0.632434 1
-0.0536092 0.17712 -1.51767 -0.250389 -0.76489 0.593505 1
-0.051895 0.177015 -1.51662 -0.256566 -0.804227 0.53609 1
-0.050872 0.177684 -1.51541 -0.307506 -0.740714 0.597313 1
-0.050552 0.179141 -1.51405 -0.37799 -0.71036 0.593727 1
-0.0497118 0.180767 -1.51326 -0.525403 -0.505265 0.684587 1
-0.048821 0.18243 -1.51255 -0.798263 -0.324598 0.507358 1
-0.048003 0.18413 -1.51183 -0.891907 0.354707 0.280508 1
-0.0473522 0.185871 -1.51106 -0.91095 0.411451 0.0296506 1
-0.0468002 0.187636 -1.51026 -0.273883 -0.495314 -0.82441 1
-0.046309 0.189522 -1.50974 -0.990067 0.109561 -0.0881166 1
-0.0459238 0.19145 -1.50949 -0.994595 0.00319601 -0.10378 1
-0.0457068 0.193447 -1.50968 -0.989375 -0.0440117 -0.138567 1
-0.0461115 0.195382 -1.50957 -0.984006 -0.072716 -0.162621 1
-0.0466255 0.197174 -1.50965 -0.978631 -0.0871537 -0.186238 0.01
-0.0466479 0.198218 -1.51138 -0.97235 -0.0750955 -0.221125 1
-0.046308 0.198897 -1.51318 -0.968401 -0.0649181 -0.2408 1
-0.0456351 0.199239 -1.51505 -0.966742 -0.0559746 -0.249555 1
-0.0452782 0.199849 -1.51693 -0.964407 -0.0530292 -0.25905 1
-0.0449527 0.200495 -1.51881 -0.961325 -0.0558154 -0.269703 1
-0.0446164 0.201159 -1.52069 -0.956454 -0.060134 -0.285622 1
-0.0440886 0.201766 -1.52253 -0.94921 -0.0625768 -0.308358 1
-0.0434558 0.202344 -1.52436 -0.940034 -0.0632479 -0.335164 1
-0.0426973 0.202912 -1.52614 -0.939037 -0.0599601 -0.338548 1
-0.0420263 0.203583 -1.52791 -0.93948 -0.0582251 -0.33762 1
-0.0414804 0.204398 -1.52967 -0.942311 -0.0624721 -0.328857 1
-0.0407529 0.20503 -1.53144 -0.948043 -0.0706607 -0.310198 1
-0.0399755 0.205605 -1.53321 -0.955875 -0.08692 -0.280622 1
-0.0391893 0.20614 -1.53499 -0.963853 -0.115227 -0.240227 1
-0.0383184 0.206503 -1.53676 -0.96675 -0.151768 -0.205816 1
-0.0373772 0.206723 -1.53853 -0.957051 -0.180929 -0.226537 1
-0.0366613 0.207219 -1.54035 -0.878704 -0.0925935 -0.468302 1
-0.0360582 0.207848 -1.54215 -0.802528 -0.0385914 -0.595365 1
-0.035673 0.20873 -1.54393 -0.791638 -0.0117845 -0.610877 1
-0.0349259 0.209299 -1.54568 -0.800316 0.0090589 -0.59951 1
-0.0340258 0.209743 -1.54743 -0.83135 0.021248 -0.555343 1
-0.0333967 0.21053 -1.54917 -0.902985 -0.036906 -0.428085 1
-0.0327359 0.211297 -1.55092 -0.919949 -0.0567723 -0.387906 1
-0.0320344 0.212039 -1.55266 -0.917898 -0.0654876 -0.391375 1
-0.0311657 0.212652 -1.55437 -0.909255 -0.0708414 -0.410167 1
-0.0302459 0.213222 -1.55607 -0.896377 -0.0750949 -0.436886 1
-0.0292716 0.213732 -1.55776 -0.87958 -0.0776226 -0.469376 1
-0.0284574 0.214415 -1.55946 -0.873615 -0.0902956 -0.478167 1
-0.0277633 0.215228 -1.56117 -0.875359 -0.112693 -0.470156 1
-0.0268346 0.215686 -1.5629 -0.878201 -0.132865 -0.459466 1
-0.0259055 0.216142 -1.56463 -0.880488 -0.158992 -0.446612 1
-0.0250012 0.216634 -1.56637 -0.880071 -0.197781 -0.431691 1
-0.0240749 0.216969 -1.56812 -0.875982 -0.258259 -0.407379 1
-0.0231302 0.217071 -1.56973 -0.882085 -0.359113 -0.304899 0.01
-0.0220849 0.215349 -1.56964 -0.849917 -0.3018 -0.431924 1
-0.0213333 0.21352 -1.56973 -0.793061 -0.230925 -0.563674 1
-0.0209235 0.211567 -1.57002 -0.690502 -0.122482 -0.712885 1
-0.0210719 0.209619 -1.57046 -0.516693 0.10008 -0.850301 1
-0.0212896 0.20779 -1.57113 -0.110113 0.324306 -0.939522 1
-0.0213759 0.206386 -1.57258 0.061228 0.228636 -0.971585 1
-0.0216282 0.204826 -1.5738 0.135165 0.15118 -0.979222 1
-0.0219927 0.20316 -1.57488 0.211867 0.113545 -0.97068 1
-0.0224524 0.201561 -1.57602 0.401622 0.164934 -0.900831 1
-0.0228879 0.199932 -1.57712 0.808721 0.462841 -0.362973 1
-0.0232745 0.198245 -1.57816 0.790946 0.547588 -0.273043 1
-0.023687 0.196466 -1.579 0.753534 0.588367 -0.293275 1
-0.0241026 0.19465 -1.57978 0.690738 0.537888 -0.483278 1
-0.0244667 0.192802 -1.5805 0.435276 0.0730046 -0.897332 1
-0.0249773 0.190956 -1.5811 0.189177 -0.353648 -0.916049 1
