# .PCD v0.7 - Point Cloud Data file format
# 4 175 0
# 1 2 0
# 3 118 0
# 119 166 0
# 167 175 0
VERSION 0.7
FIELDS x y z normal_x normal_y normal_z curvature
SIZE 4 4 4 4 4 4 4
TYPE F F F F F F F
COUNT 1 1 1 1 1 1 1
WIDTH 175
HEIGHT 1
VIEWPOINT 0 0 0 1 0 0 0
POINTS 175
DATA ascii
-0.0820175 -0.0802824 -1.39395 -0.40217 0.747156 0.529166 0.01
-0.0827201 -0.0794759 -1.39566 -0.288778 0.770871 0.567772 1
-0.0837011 -0.0789439 -1.39731 -0.194277 0.833199 0.517722 1
-0.0848486 -0.0785618 -1.39892 -0.176935 0.94542 0.273634 1
-0.0861428 -0.0784145 -1.40037 -0.244913 0.95267 -0.180104 1
-0.0877883 -0.0792018 -1.40122 -0.41015 0.743611 -0.528034 1
-0.0896323 -0.0799359 -1.40141 -0.49643 0.631903 -0.595194 1
-0.0914188 -0.0807684 -1.40174 -0.565201 0.556993 -0.608528 1
-0.0930822 -0.0817886 -1.40217 -0.619941 0.498995 -0.605538 1
-0.094601 -0.083079 -1.40245 -0.662565 0.44918 -0.59937 1
-0.1017 -0.125237 -1.33467 0.248947 0.669104 0.700233 1
-0.101642 -0.123586 -1.33582 0.229051 0.727822 0.646383 0.01
-0.101653 -0.122123 -1.33719 0.206735 0.777254 0.594254 1
-0.101674 -0.120741 -1.33865 0.182605 0.817442 0.5463 1
-0.101667 -0.119359 -1.34011 0.177413 0.790242 0.586551 1
-0.10166 -0.117959 -1.34156 0.173864 0.760978 0.625048 1
-0.101683 -0.116651 -1.34309 0.170324 0.737575 0.653432 1
-0.10173 -0.115407 -1.34467 0.168196 0.720095 0.673182 1
-0.101783 -0.114181 -1.34626 0.169573 0.707205 0.686372 1
-0.101808 -0.112905 -1.34781 0.176399 0.696949 0.695087 1
-0.101774 -0.111425 -1.34918 0.194738 0.599845 0.776056 1
-0.101729 -0.109892 -1.35048 0.216314 0.514114 0.829997 1
-0.101681 -0.108366 -1.35179 0.243262 0.446792 0.86093 1
-0.101632 -0.106871 -1.35313 0.276665 0.397329 0.874978 1
-0.101566 -0.105294 -1.35438 0.316812 0.362475 0.876494 1
-0.101369 -0.103544 -1.35534 0.366069 0.362189 0.857212 1
-0.100869 -0.101713 -1.35578 0.416914 0.405678 0.813393 1
-0.100129 -0.0998551 -1.35593 0.462737 0.444325 0.767105 1
-0.0993992 -0.0980321 -1.35636 0.507052 0.480726 0.715403 1
-0.0993544 -0.0963228 -1.35741 0.544895 0.511558 0.664377 1
-0.0996161 -0.0951131 -1.35891 0.579513 0.537186 0.612859 1
-0.0999166 -0.0938905 -1.36041 0.610163 0.558264 0.562176 1
-0.100065 -0.0922868 -1.3616 0.632715 0.568791 0.525499 1
-0.100313 -0.0911699 -1.36325 0.65784 0.551032 0.51343 1
-0.100463 -0.0898773 -1.36478 0.675519 0.538311 0.503881 1
-0.100472 -0.0884169 -1.36615 0.687616 0.52935 0.496964 1
-0.100376 -0.086824 -1.36738 0.694906 0.523743 0.492747 1
-0.100297 -0.085183 -1.36854 0.697546 0.521493 0.491401 1
-0.0996569 -0.0833817 -1.36913 0.698163 0.521044 0.491001 1
-0.0999549 -0.0824034 -1.37045 0.700872 0.519559 0.48871 1
-0.100656 -0.0817885 -1.37222 0.706871 0.516033 0.48378 1
-0.101113 -0.0810213 -1.37402 0.716958 0.509686 0.475596 1
-0.10164 -0.0805887 -1.37591 0.730091 0.493905 0.472255 1
-0.102317 -0.0804019 -1.37779 0.740713 0.47754 0.472546 1
-0.102989 -0.0802631 -1.37968 0.749158 0.459955 0.476659 1
-0.103601 -0.0800892 -1.38159 0.754431 0.441066 0.486101 1
-0.104183 -0.0798688 -1.38351 -0.995676 -0.0692993 0.0618627 1
-0.104885 -0.0799909 -1.38538 0.0105142 0.502445 -0.864545 1
-0.105629 -0.0802391 -1.38723 0.0338039 0.513469 -0.857442 1
-0.106404 -0.0805924 -1.38906 -0.0260665 0.553714 -0.832299 1
-0.107206 -0.0810504 -1.39084 -0.298008 0.587999 -0.751963 1
-0.108054 -0.0816632 -1.39256 -0.448482 0.576673 -0.682871 1
-0.108946 -0.0825196 -1.39414 -0.929238 0.306724 -0.206003 1
-0.109889 -0.0835975 -1.39554 -0.945523 -0.134155 0.296629 1
-0.110873 -0.0848617 -1.39675 -0.914387 -0.032835 0.403508 1
-0.111853 -0.0862322 -1.39785 0.189113 0.428955 -0.883309 1
-0.112848 -0.0876918 -1.39881 -0.700274 0.595601 0.393542 1
-0.113844 -0.0891775 -1.39973 0.21768 0.725601 -0.652778 1
-0.114836 -0.0906853 -1.40062 0.063219 0.986594 -0.15045 1
-0.115816 -0.092221 -1.40148 -0.0542648 0.98618 -0.156537 1
-0.116777 -0.093821 -1.40223 -0.20445 0.955365 -0.213257 1
-0.117741 -0.0954018 -1.40302 -0.441138 0.847056 -0.296467 1
-0.118705 -0.0969755 -1.40382 -0.408214 -0.559391 0.721418 1
-0.11967 -0.0985496 -1.40462 -0.340174 -0.515297 0.786607 1
-0.120638 -0.100127 -1.40541 -0.355099 -0.428339 0.830922 1
-0.121613 -0.101702 -1.40619 -0.309832 -0.34195 0.887172 1
-0.122511 -0.103324 -1.40697 -0.185973 -0.268483 0.945162 1
-0.123354 -0.104991 -1.40771 -0.0954265 -0.00422791 0.995427 1
-0.124196 -0.106684 -1.4084 -0.533505 0.175407 -0.827408 1
-0.12503 -0.108412 -1.40901 -0.557088 0.0667903 -0.827763 1
-0.125639 -0.110294 -1.4092 -0.668285 -0.0515192 -0.742119 1
-0.126433 -0.112055 -1.40896 -0.777098 -0.18613 -0.601227 1
-0.127599 -0.113556 -1.4083 -0.836665 -0.28917 -0.465158 1
-0.128703 -0.115003 -1.40744 -0.857229 -0.362376 -0.365843 1
-0.129196 -0.116816 -1.4068 -0.840054 -0.443343 -0.312661 1
-0.129503 -0.118633 -1.40601 -0.81675 -0.511238 -0.267498 1
-0.129658 -0.120331 -1.40498 -0.794742 -0.558843 -0.23681 1
-0.12956 -0.121844 -1.40365 -0.792077 -0.534702 -0.294462 1
-0.129202 -0.123131 -1.40215 -0.794822 -0.497037 -0.348157 1
-0.128963 -0.12455 -1.40075 -0.799044 -0.452046 -0.396463 1
-0.128623 -0.125936 -1.39935 -0.803311 -0.40325 -0.438271 1
-0.128069 -0.127208 -1.3979 -0.806433 -0.355262 -0.472711 1
-0.127706 -0.128696 -1.39659 -0.80853 -0.321826 -0.492654 1
-0.127311 -0.130198 -1.39531 -0.811784 -0.339655 -0.475017 1
-0.126908 -0.131731 -1.39408 -0.811939 -0.361505 -0.458333 1
-0.126494 -0.13329 -1.39287 -0.808816 -0.386998 -0.442773 1
-0.12605 -0.134855 -1.39169 -0.802346 -0.415569 -0.428419 1
-0.125599 -0.136448 -1.39055 -0.792238 -0.446848 -0.415554 1
-0.124976 -0.137954 -1.38938 -0.778479 -0.479945 -0.404505 1
-0.124276 -0.13945 -1.38823 -0.760583 -0.516316 -0.393612 1
-0.12358 -0.140995 -1.38714 -0.739479 -0.558981 -0.375115 1
-0.12277 -0.142453 -1.38602 -0.717523 -0.59952 -0.354595 1
-0.122417 -0.143492 -1.38438 -0.702515 -0.630515 -0.330035 1
-0.122267 -0.144439 -1.38262 -0.689696 -0.657796 -0.302694 1
-0.122186 -0.145345 -1.38082 -0.677907 -0.682458 -0.2733 1
-0.122052 -0.14607 -1.37895 -0.667723 -0.703996 -0.24194 1
-0.121932 -0.146719 -1.37705 0.137547 0.805755 0.576056 1
-0.121824 -0.147305 -1.37513 -0.676194 -0.699508 -0.231195 1
-0.121755 -0.147809 -1.37319 -0.691743 -0.682107 -0.237111 1
-0.121685 -0.148244 -1.37124 -0.715078 -0.656084 -0.24128 1
-0.1208 -0.14901 -1.3696 -0.71492 -0.645112 -0.269667 1
-0.119874 -0.149738 -1.36797 -0.713691 -0.630531 -0.305083 1
-0.118964 -0.150502 -1.36635 0.0342536 0.729795 0.682807 1
-0.118063 -0.151298 -1.36474 -0.670917 -0.658199 -0.341532 1
-0.117079 -0.15202 -1.36314 -0.581038 -0.787499 -0.205523 1
-0.11606 -0.152719 -1.36155 -0.42406 -0.890477 0.164996 1
-0.115029 -0.153416 -1.35997 -0.278977 -0.665751 0.692061 1
-0.113893 -0.154011 -1.35843 -0.202653 -0.691423 0.693445 1
-0.112558 -0.154402 -1.35698 -0.131178 -0.695442 0.706507 1
-0.11124 -0.154877 -1.35553 -0.0756388 -0.691201 0.718693 1
-0.109784 -0.155175 -1.35418 -0.0306503 -0.682634 0.730117 1
-0.108565 -0.154975 -1.35271 -0.00362153 -0.665363 0.746511 1
-0.107673 -0.154277 -1.35104 0.00866568 -0.642832 0.765959 1
-0.106805 -0.153603 -1.34936 0.0166625 -0.624776 0.780626 1
-0.105839 -0.152681 -1.34786 -0.0282942 -0.748433 0.662606 1
-0.104868 -0.152005 -1.34625 -0.13871 -0.858328 0.493997 1
-0.103871 -0.151448 -1.3446 -0.278432 -0.911853 0.301663 1
-0.102805 -0.150743 -1.34305 -0.367931 -0.918813 0.142863 1
-0.10168 -0.15011 -1.3415 -0.403239 -0.914159 0.0413617 1
-0.100471 -0.14931 -1.34011 -0.40638 -0.913656 0.00933074 1
-0.0992233 -0.148511 -1.33876 -0.393524 -0.918811 0.0304345 1
-0.0979622 -0.147841 -1.33734 -0.367256 -0.927243 0.0731003 1
-0.0966805 -0.147449 -1.33584 -0.324628 -0.93476 0.144361 1
-0.0953842 -0.147003 -1.33437 -0.273763 -0.931315 0.240223 1
-0.0940717 -0.146495 -1.33293 -0.229892 -0.902456 0.364311 1
-0.0926824 -0.145954 -1.33159 -0.221246 -0.765284 0.604476 1
-0.0911295 -0.145424 -1.33043 -0.230018 0.275458 0.933389 1
-0.0895722 -0.145167 -1.32918 -0.255603 0.441787 0.859937 0.01
-0.0900149 -0.144695 -1.32986 -0.128641 0.716248 0.685886 1
-0.0903752 -0.143648 -1.33097 0.0245251 0.866513 0.498553 1
-0.0895805 -0.14194 -1.33163 0.101124 0.903533 0.416416 1
-0.0892387 -0.140265 -1.3327 0.185316 0.887117 0.422706 1
-0.0893643 -0.138766 -1.33401 0.310621 0.793768 0.522921 1
-0.089233 -0.13718 -1.33519 0.480009 0.478731 0.735125 1
-0.0890364 -0.135585 -1.33632 0.532604 0.402861 0.744336 1
-0.0894148 -0.134227 -1.33776 0.556828 0.432558 0.709109 1
-0.0897027 -0.132826 -1.33917 0.570737 0.461234 0.679355 1
-0.089857 -0.131352 -1.34053 0.573816 0.487579 0.658029 1
-0.0897534 -0.129788 -1.34176 0.566122 0.509751 0.647811 1
-0.0894357 -0.128167 -1.34288 0.547891 0.526002 0.65049 1
-0.0897889 -0.126783 -1.34429 -0.926004 -0.156307 -0.343633 1
-0.0895216 -0.125177 -1.34543 -0.871713 -0.371039 -0.320073 1
-0.0890446 -0.123539 -1.34649 -0.840146 -0.437581 -0.320434 1
-0.088515 -0.121921 -1.34756 -0.823356 -0.464296 -0.326364 1
-0.0880266 -0.12032 -1.34868 -0.811453 -0.478688 -0.335264 1
-0.0880163 -0.118826 -1.35002 -0.803574 -0.484428 -0.345831 1
-0.0878619 -0.117252 -1.35126 -0.801928 -0.481875 -0.35314 1
-0.0877305 -0.115703 -1.35252 -0.806421 -0.475326 -0.35178 1
-0.0877073 -0.114252 -1.35389 -0.814185 -0.468557 -0.342866 1
-0.0870023 -0.112661 -1.3549 -0.823633 -0.460587 -0.330889 1
-0.0866011 -0.111179 -1.35618 -0.835332 -0.450364 -0.315267 1
-0.0864886 -0.109807 -1.35763 -0.841719 -0.441928 -0.310177 1
-0.0864416 -0.108479 -1.35911 -0.848465 -0.430363 -0.308051 1
-0.0859112 -0.107031 -1.36041 -0.851971 -0.415961 -0.317997 1
-0.0860534 -0.105785 -1.36197 -0.899497 -0.357961 -0.250537 1
-0.0858739 -0.104466 -1.36345 -0.918306 -0.24852 -0.308141 1
-0.0853251 -0.103075 -1.36477 -0.916075 -0.171561 -0.362455 1
-0.084482 -0.101646 -1.3659 -0.910321 -0.136449 -0.390765 1
-0.0837143 -0.10023 -1.36711 -0.922212 -0.230073 -0.310792 1
-0.0834111 -0.098836 -1.3685 -0.906797 -0.13281 -0.400101 1
-0.0834492 -0.0975514 -1.37003 -0.925845 -0.246075 -0.286806 1
-0.0836303 -0.0963506 -1.37163 -0.927649 -0.275748 -0.251852 1
-0.0835114 -0.0950532 -1.37316 -0.60319 0.510037 0.613207 1
-0.0826698 -0.0936958 -1.37436 -0.68292 0.469458 0.55967 1
-0.082127 -0.0923679 -1.37573 -0.731465 0.461765 0.501729 1
-0.0818589 -0.0910946 -1.37726 -0.758721 0.476806 0.443844 1
-0.0817194 -0.0899003 -1.37887 -0.770887 0.504069 0.389421 1
-0.0821628 -0.0889791 -1.3806 -0.756485 0.551306 0.351842 1
-0.0821015 -0.0878601 -1.38224 -0.749361 0.574212 0.329757 1
-0.0820635 -0.0867812 -1.38392 -0.730824 0.602144 0.321432 1
-0.0821358 -0.0857809 -1.38565 -0.710737 0.62854 0.315896 1
-0.081733 -0.0845946 -1.38722 -0.680224 0.664244 0.309958 1
-0.0815253 -0.0834509 -1.38886 -0.650371 0.694247 0.308282 1
-0.08163 -0.0823844 -1.39055 -0.599134 0.726087 0.337396 1
-0.0818749 -0.081349 -1.39226 -0.49834 0.741605 0.449087 1
