# .PCD v0.7 - Point Cloud Data file format
# 5 132 0
# 1 18 0
# 19 45 0
# 46 98 0
# 99 123 0
# 124 132 0
VERSION 0.7
FIELDS x y z normal_x normal_y normal_z curvature
SIZE 4 4 4 4 4 4 4
TYPE F F F F F F F
COUNT 1 1 1 1 1 1 1
WIDTH 132
HEIGHT 1
VIEWPOINT 0 0 0 1 0 0 0
POINTS 132
DATA ascii
0.123918 0.0229846 -1.37626 -0.13915 0.111221 -0.984006 0.01
0.122599 0.0244041 -1.37682 0.571803 -0.226786 0.788422 1
0.121305 0.0258438 -1.37739 -0.176091 -0.0025881 -0.984371 1
0.120076 0.0273366 -1.37796 -0.169162 -0.0352818 -0.984957 1
0.118846 0.0288294 -1.37854 0.304833 0.946641 0.104637 1
0.118862 0.0307277 -1.37894 0.288753 0.951109 0.109603 1
0.119096 0.0326965 -1.37932 0.286109 0.951806 0.110483 1
0.119458 0.0346537 -1.37958 -0.169047 -0.1359 -0.976194 1
0.119996 0.0365953 -1.37969 -0.18294 -0.130375 -0.974441 1
0.120533 0.0385369 -1.37981 -0.197841 -0.124347 -0.972315 1
0.123118 0.045945 -1.3812 0.665965 -0.0270025 0.745494 1
0.124009 0.0477496 -1.38134 0.683665 -0.0259886 0.729333 1
0.124901 0.0495542 -1.38149 0.696693 -0.0301976 0.716734 1
0.125734 0.0513718 -1.38174 0.706682 -0.0353752 0.706647 1
0.126525 0.0531992 -1.38206 -0.328345 -0.0533286 -0.943051 1
0.127286 0.0550408 -1.38237 0.720739 -0.0447086 0.691763 1
0.127876 0.0569639 -1.38252 -0.359562 -0.0176809 -0.932954 1
0.128466 0.058887 -1.38268 0.736642 -0.0495894 0.674463 1
0.129956 0.0598195 -1.38318 -0.38083 2.35717e-05 -0.924645 1
0.131793 0.060371 -1.38381 -0.378892 -0.00738011 -0.925412 1
0.133572 0.0609822 -1.38452 -0.367479 -0.0111946 -0.929964 1
0.135214 0.0617354 -1.38542 -0.340058 -0.00911641 -0.94036 1
0.136856 0.0624885 -1.38631 -0.278426 -0.00411385 -0.960449 1
0.138409 0.0635412 -1.38704 -0.157076 0.00299479 -0.987582 1
0.139949 0.0646387 -1.38775 0.0529282 -0.0142606 -0.998496 1
0.141238 0.0660312 -1.38808 -0.0659328 0.080477 -0.994573 1
0.142213 0.0677925 -1.38794 0.0988782 0.0614201 -0.993202 1
0.143145 0.0695488 -1.3878 0.205487 0.00613235 -0.978641 0.01
0.141856 0.0710359 -1.38735 0.0337233 0.0796612 -0.996251 1
0.140567 0.072523 -1.38691 -0.0668612 0.093195 -0.9934 1
0.140111 0.0743101 -1.3869 -0.0934811 0.0859353 -0.991905 1
0.140227 0.0763036 -1.38719 -0.0859909 0.0776091 -0.993269 1
0.140375 0.0782965 -1.38745 -0.0750114 0.071553 -0.994612 1
0.140678 0.0802872 -1.38758 -0.057502 0.0680479 -0.996024 1
0.140981 0.0822779 -1.38771 -0.0398904 0.0663077 -0.997002 1
0.141987 0.0839153 -1.38741 -0.0231432 0.0318378 -0.999225 1
0.143239 0.0854292 -1.38695 -0.0481215 -0.0295807 -0.998403 1
0.144319 0.0870407 -1.38679 0.469494 -0.00453748 0.882924 1
0.145025 0.0888649 -1.38728 -0.136554 -0.144427 -0.980048 1
0.14573 0.090689 -1.38778 -0.181819 -0.191319 -0.964541 1
0.146542 0.0924543 -1.38832 -0.225681 -0.230299 -0.946589 1
0.147367 0.0942122 -1.38887 -0.245561 -0.210448 -0.946262 1
0.148197 0.0959708 -1.38941 -0.249293 -0.171689 -0.953088 1
0.149032 0.0977301 -1.38994 -0.248788 -0.141427 -0.958177 1
0.149868 0.0994906 -1.39046 0.526154 -0.120831 0.841761 1
0.150714 0.101282 -1.39084 0.521758 -0.148742 0.840027 1
0.151561 0.103073 -1.39123 -0.223801 -0.091326 -0.970347 1
0.152444 0.104859 -1.39154 -0.212463 -0.102783 -0.971748 1
0.153349 0.10664 -1.39182 -0.229133 -0.216373 -0.949042 1
0.154258 0.108421 -1.39209 -0.235923 -0.324668 -0.915932 1
0.155187 0.110196 -1.39233 -0.222338 -0.411889 -0.883693 1
0.156115 0.111972 -1.39257 -0.156215 -0.447034 -0.880771 1
0.15738 0.113182 -1.39182 0.0653926 -0.30492 -0.95013 1
0.158752 0.114213 -1.39076 0.851161 0.305072 -0.427148 1
0.159824 0.115171 -1.38946 0.991561 0.124151 -0.0373212 0.01
0.160299 0.115982 -1.38767 0.950861 -0.308717 0.0235896 1
0.160774 0.116793 -1.38589 0.904402 -0.424395 0.0441238 1
0.161179 0.116957 -1.38393 0.926603 -0.374911 0.0291351 1
0.161577 0.117055 -1.38195 0.970696 -0.226834 -0.0793401 1
0.162376 0.116396 -1.38063 0.873736 0.0532775 -0.483475 1
0.163606 0.114922 -1.38001 0.591473 0.35612 -0.723421 1
0.164833 0.113449 -1.37938 0.539287 0.478477 -0.692986 1
0.165983 0.111992 -1.37859 0.612193 0.572167 -0.545751 1
0.167134 0.110534 -1.3778 0.819438 0.565264 -0.0948527 1
0.167915 0.109815 -1.3763 0.860389 0.440669 0.256011 1
0.168477 0.10953 -1.37439 0.830718 0.329477 0.448724 1
0.168941 0.109058 -1.37253 0.441289 0.847193 -0.29585 1
0.169022 0.107858 -1.37091 0.423748 0.842859 -0.331703 1
0.169103 0.106658 -1.36929 0.422043 0.834139 -0.355094 1
0.169296 0.105018 -1.36819 0.449227 0.816568 -0.362508 1
0.169519 0.103251 -1.36724 -0.562068 -0.49023 -0.666148 1
0.16971 0.101477 -1.3663 -0.537348 -0.469162 -0.700817 1
0.16984 0.0996889 -1.36537 0.822298 -0.246904 0.512703 1
0.169969 0.0979008 -1.36445 -0.519811 -0.474487 -0.710393 1
0.170062 0.0961098 -1.36352 -0.534672 -0.480246 -0.695334 1
0.170153 0.0943187 -1.3626 -0.577258 -0.439617 -0.688121 1
0.170165 0.0925339 -1.36166 0.886564 -0.331094 0.32308 1
0.170098 0.0907555 -1.36071 -0.635414 -0.399134 -0.661015 1
0.170038 0.0889792 -1.35975 -0.715174 -0.0492541 -0.697208 1
0.170066 0.0872296 -1.35875 -0.743526 0.327104 -0.583243 1
0.170093 0.08548 -1.35774 -0.798001 0.32237 -0.509188 1
0.169709 0.083738 -1.35686 -0.851914 0.26614 -0.451012 1
0.169102 0.082 -1.35603 0.945767 -0.297428 0.130619 1
0.168478 0.0802632 -1.35521 0.935256 -0.317283 0.156931 1
0.167794 0.0785304 -1.35444 -0.901319 0.237036 -0.362543 1
0.16711 0.0767975 -1.35366 -0.901275 0.226965 -0.36904 1
0.166432 0.0750614 -1.35289 -0.904242 0.211869 -0.370754 1
0.165756 0.0733244 -1.35212 -0.84757 0.179964 -0.499238 1
0.165109 0.0715839 -1.35133 -0.917802 0.167662 -0.3599 1
0.164512 0.0698376 -1.35051 -0.799797 0.224294 -0.556792 1
0.163915 0.0680912 -1.3497 -0.773844 0.253047 -0.580631 1
0.163414 0.0663271 -1.34886 -0.747197 0.284522 -0.600619 1
0.16292 0.0645619 -1.34801 0.927731 -0.297776 0.225045 1
0.162322 0.0628008 -1.34724 0.929735 -0.301941 0.210769 1
0.161629 0.0610436 -1.34653 -0.696871 0.250143 -0.672161 1
0.160958 0.0592815 -1.34582 0.927482 -0.310968 0.207549 1
0.160509 0.0574725 -1.34504 0.926319 -0.308306 0.21652 1
0.160059 0.0556635 -1.34427 0.933461 -0.277934 0.226723 1
0.159425 0.0538546 -1.34366 -0.871903 0.0180372 -0.489347 1
0.158698 0.0520457 -1.34314 0.951953 -0.181267 0.246835 1
0.158004 0.0502301 -1.34261 0.95139 -0.152245 0.26773 1
0.15741 0.0483933 -1.34202 0.946227 -0.13073 0.295914 1
0.156817 0.0465565 -1.34143 0.60823 -0.148226 0.779798 1
0.155918 0.0447751 -1.34127 0.571534 -0.141038 0.808367 1
0.154949 0.0430062 -1.3412 0.574866 -0.142709 0.805707 1
0.153997 0.0412292 -1.34112 -0.773797 -0.10765 -0.624219 1
0.153071 0.0394396 -1.34101 -0.761743 -0.166106 -0.626224 1
0.152145 0.03765 -1.34091 0.84989 -0.204399 0.485704 0.01
0.150742 0.0363268 -1.34147 0.842535 -0.221069 0.491186 1
0.14932 0.0350216 -1.34206 0.840891 -0.242927 0.48362 1
0.147892 0.0337719 -1.34274 -0.714419 -0.376508 -0.589786 1
0.146457 0.0325699 -1.34349 0.687686 -0.353587 0.634085 1
0.14503 0.0314201 -1.34431 -0.184346 -0.438822 -0.879461 1
0.143656 0.030688 -1.34559 0.220292 0.969927 0.103499 1
0.142282 0.0299559 -1.34688 -0.716207 0.060265 -0.695281 1
0.141021 0.0295009 -1.34836 -0.68987 0.0510406 -0.722132 1
0.139813 0.0291733 -1.34995 -0.353398 -0.325422 -0.877046 1
0.138646 0.0287808 -1.35154 0.00329446 0.938528 -0.345186 1
0.137597 0.0282032 -1.35316 -0.0420695 0.925878 -0.375473 1
0.136549 0.0276256 -1.35479 -0.040476 0.94161 -0.334265 1
0.135543 0.0272382 -1.35649 -0.0314972 0.962684 -0.26879 1
0.134545 0.0268889 -1.35821 0.000373782 0.985456 -0.169933 1
0.133546 0.0264702 -1.35991 0.0674803 0.996355 -0.0521804 1
0.132545 0.0259506 -1.36158 0.14898 0.987849 0.0442606 1
0.131543 0.0254311 -1.36326 0.217629 0.970342 0.10523 1
0.13057 0.0249483 -1.36496 0.266303 0.953617 0.140345 1
0.129598 0.0244663 -1.36666 0.30755 0.939535 0.15062 1
0.128656 0.0239024 -1.36835 0.341726 0.927725 0.150168 1
0.127739 0.0232731 -1.37003 0.368005 0.918052 0.14749 1
0.126829 0.0226858 -1.37173 0.38993 0.909553 0.143763 1
0.125965 0.022381 -1.37353 0.56607 -0.263883 0.780981 1
0.125102 0.0220761 -1.37533 0.0196513 0.155907 -0.987576 1
