# .PCD v0.7 - Point Cloud Data file format
# 4 42 0
# 1 5 0
# 6 31 0
# 32 38 0
# 39 42 0
VERSION 0.7
FIELDS x y z normal_x normal_y normal_z curvature
SIZE 4 4 4 4 4 4 4
TYPE F F F F F F F
COUNT 1 1 1 1 1 1 1
WIDTH 42
HEIGHT 1
VIEWPOINT 0 0 0 1 0 0 0
POINTS 42
DATA ascii
0.160571 -0.0309561 -1.69676 -0.20767 -0.839375 -0.502317 0.01
0.161311 -0.0320305 -1.69805 -0.876108 -0.453695 -0.16308 1
0.161867 -0.0338628 -1.6973 -0.954512 -0.294814 -0.04464 1
0.162471 -0.0356525 -1.6965 -0.974897 -0.222641 0.00252819 1
0.16311 -0.0374109 -1.69565 -0.983284 -0.180356 0.0250022 1
0.169031 -0.058436 -1.65845 0.731795 0.508021 0.454303 1
0.169393 -0.0601957 -1.65745 0.479219 0.395694 0.783438 1
0.169813 -0.0619465 -1.65646 0.191686 0.285921 0.938885 1
0.170315 -0.063685 -1.65549 -0.0216755 -0.423874 -0.905462 1
0.168806 -0.0635902 -1.65595 0.0746513 -0.387421 -0.918876 0.01
0.166968 -0.0630799 -1.6567 0.156715 -0.318732 -0.9348 1
0.165228 -0.0623468 -1.65752 0.205299 -0.245456 -0.947419 1
0.163858 -0.0610735 -1.65825 -0.586426 -0.178007 0.790201 1
0.162657 -0.0595614 -1.65895 -0.663019 -0.120766 0.738797 1
0.161488 -0.0580593 -1.65972 0.328749 -0.365415 -0.870859 1
0.160651 -0.0564696 -1.66066 -0.839048 0.281681 0.465461 1
0.160096 -0.0548049 -1.66173 0.96748 0.190829 -0.166032 1
0.161551 -0.0535455 -1.66231 0.327994 -0.626099 -0.707404 1
0.162744 -0.0521198 -1.66302 0.400235 -0.608404 -0.685315 1
0.16339 -0.0504021 -1.66394 -0.643656 0.754633 -0.127417 1
0.163721 -0.04876 -1.66512 0.0290381 0.626823 0.77862 1
0.163884 -0.047156 -1.66638 -0.101356 0.623825 0.774964 1
0.163736 -0.0456189 -1.66773 -0.343674 -0.613353 -0.711116 1
0.163611 -0.0446623 -1.66948 -0.491382 -0.622117 -0.60952 1
0.16347 -0.0439639 -1.67139 -0.0427571 -0.535478 -0.843466 1
0.163008 -0.0426754 -1.67292 -0.19743 0.46594 0.862509 1
0.162604 -0.0414993 -1.67455 -0.0877025 0.606563 0.790183 1
0.162256 -0.0404356 -1.67627 0.0145212 -0.682074 -0.731139 1
0.160564 -0.0412351 -1.67619 0.0928402 -0.660629 -0.744949 1
0.159495 -0.0414016 -1.67657 0.0977249 -0.679295 -0.72733 1
0.159817 -0.0400793 -1.67811 0.13008 -0.714819 -0.687104 1
0.159021 -0.0395074 -1.67976 -0.731328 -0.611343 -0.302357 1
0.15791 -0.0391119 -1.68144 0.195233 -0.770854 -0.606357 1
0.156887 -0.0385114 -1.68312 -0.434499 0.75298 0.494198 1
0.155923 -0.037743 -1.68475 -0.425521 0.716217 0.553141 1
0.15508 -0.0368781 -1.68636 -0.454072 0.672389 0.584561 0.01
0.156373 -0.0362263 -1.68782 -0.0167692 -0.897816 -0.440051 1
0.157588 -0.0354875 -1.6893 -0.303682 0.729204 0.61322 1
0.158711 -0.0346473 -1.6908 -0.288708 0.739907 0.607606 1
0.159471 -0.0334701 -1.69229 -0.897664 -0.426507 -0.110867 1
0.159973 -0.0321655 -1.69376 0.315775 -0.751055 -0.579829 1
0.159999 -0.0306734 -1.69517 -0.473649 0.628092 0.61738 1
