# .PCD v0.7 - Point Cloud Data file format
# 4 106 0
# 1 14 0
# 15 58 0
# 59 83 0
# 84 106 0
VERSION 0.7
FIELDS x y z normal_x normal_y normal_z curvature
SIZE 4 4 4 4 4 4 4
TYPE F F F F F F F
COUNT 1 1 1 1 1 1 1
WIDTH 106
HEIGHT 1
VIEWPOINT 0 0 0 1 0 0 0
POINTS 106
DATA ascii
0.228538 0.149749 -1.53824 0.830453 -0.293812 -0.47331 0.01
0.227107 0.149697 -1.53993 0.850252 -0.320255 -0.417741 1
0.225926 0.14829 -1.54116 0.858241 -0.335409 -0.388489 1
0.225121 0.146773 -1.54256 0.864743 -0.343024 -0.366816 1
0.224025 0.1463 -1.54442 0.872126 -0.341103 -0.350777 1
0.222971 0.145138 -1.54598 0.87651 -0.339843 -0.340936 1
0.221917 0.14475 -1.54789 0.876275 -0.340718 -0.340666 1
0.22086 0.143696 -1.54953 0.874487 -0.343484 -0.342478 1
0.219878 0.142972 -1.55137 0.872598 -0.34597 -0.344786 1
0.218853 0.142371 -1.55324 0.870478 -0.350203 -0.34587 1
0.218023 0.142368 -1.55529 0.868789 -0.360427 -0.339557 1
0.217134 0.141716 -1.55721 0.872831 -0.366884 -0.321811 1
0.216225 0.140693 -1.55895 0.881792 -0.363306 -0.300753 1
0.215344 0.139957 -1.56085 0.888892 -0.364173 -0.277936 1
0.214429 0.139394 -1.56278 0.893516 -0.367216 -0.258421 1
0.213603 0.139104 -1.56482 0.896443 -0.360108 -0.258287 1
0.212817 0.138679 -1.56684 0.89866 -0.344557 -0.271462 1
0.212036 0.13774 -1.56869 0.899712 -0.335271 -0.279484 1
0.211195 0.137191 -1.57066 0.899259 -0.335391 -0.280795 1
0.21013 0.136118 -1.57228 0.900713 -0.329248 -0.283392 1
0.209329 0.135751 -1.57431 0.899251 -0.338761 -0.276744 1
0.208422 0.134813 -1.5761 0.903294 -0.33233 -0.271324 1
0.207915 0.134627 -1.57824 0.910687 -0.332378 -0.245304 1
0.207296 0.133794 -1.5802 0.922049 -0.316078 -0.223428 1
0.207029 0.133935 -1.5812 0.923747 -0.319041 -0.211907 1
0.206397 0.133555 -1.58328 0.931633 -0.308325 -0.192344 1
0.205606 0.131935 -1.58457 0.946439 -0.267745 -0.180461 1
0.205182 0.131451 -1.58669 0.948672 -0.260801 -0.178898 1
0.204331 0.130814 -1.58863 0.945769 -0.265723 -0.186846 1
0.203809 0.130433 -1.59075 0.941811 -0.278755 -0.187852 1
0.203138 0.12998 -1.59281 0.938301 -0.290588 -0.187485 1
0.202501 0.129465 -1.59486 0.934992 -0.301661 -0.186524 1
0.201956 0.128212 -1.5966 0.937155 -0.29535 -0.185768 1
0.201368 0.127222 -1.5985 0.945149 -0.279598 -0.168873 1
0.200682 0.125986 -1.6002 0.951499 -0.265419 -0.15557 1
0.200433 0.125098 -1.60221 0.955293 -0.260227 -0.140345 1
0.199895 0.124366 -1.60423 0.958302 -0.256604 -0.125747 1
0.19952 0.12457 -1.6064 0.959928 -0.256551 -0.112785 0.01
0.199846 0.126171 -1.6079 0.956412 -0.273889 -0.101297 1
0.200426 0.128282 -1.60823 0.950091 -0.296631 -0.0966266 1
0.201062 0.130402 -1.60825 0.943343 -0.318012 -0.0947239 1
0.201722 0.132513 -1.60835 0.932715 -0.351662 -0.0798537 1
0.202703 0.134478 -1.60808 0.921534 -0.382818 -0.0650127 1
0.203301 0.136297 -1.60697 0.916379 -0.394457 -0.0682112 1
0.204396 0.138188 -1.60661 0.91472 -0.400297 -0.0552258 1
0.205493 0.140047 -1.60612 0.923602 -0.38072 -0.0448457 1
0.2063 0.142005 -1.60547 0.939055 -0.336742 -0.0691448 1
0.20675 0.143976 -1.60457 0.945415 -0.311329 -0.0962558 1
0.207457 0.146027 -1.60413 0.947738 -0.297444 -0.115408 1
0.208133 0.148059 -1.60357 0.945362 -0.296928 -0.134624 1
0.208775 0.15016 -1.6033 0.940953 -0.303183 -0.150621 1
0.209582 0.1522 -1.603 0.930707 -0.33538 -0.145961 1
0.21042 0.154249 -1.60298 0.9227 -0.365267 -0.123308 1
0.211243 0.156287 -1.60272 0.916386 -0.387155 -0.101727 1
0.212106 0.158326 -1.60273 0.91051 -0.406628 -0.0749995 1
0.212988 0.160101 -1.60175 0.913992 -0.398457 -0.0764835 1
0.213869 0.161817 -1.60066 0.918364 -0.387589 -0.0798849 1
0.214665 0.163256 -1.59918 0.921879 -0.378233 -0.0841356 1
0.215464 0.164602 -1.59762 0.917292 -0.382975 -0.10911 1
0.216152 0.165755 -1.59585 0.912649 -0.384778 -0.137901 1
0.216821 0.167153 -1.59427 0.907511 -0.387783 -0.161395 1
0.217668 0.168969 -1.59333 0.902267 -0.396429 -0.16958 1
0.218557 0.170478 -1.59198 0.89855 -0.39694 -0.187207 1
0.219573 0.171959 -1.59068 0.906803 -0.381037 -0.180331 1
0.220581 0.173161 -1.58912 0.913327 -0.367294 -0.175868 1
0.221303 0.17447 -1.58749 0.91822 -0.358682 -0.167986 1
0.222039 0.175907 -1.58598 0.920698 -0.358102 -0.155171 1
0.222808 0.177271 -1.58441 0.920998 -0.36396 -0.13891 1
0.223555 0.178697 -1.58289 0.906892 -0.393773 -0.149965 1
0.224589 0.180326 -1.5818 0.889796 -0.428491 -0.157026 1
0.225509 0.181553 -1.58021 0.875651 -0.452231 -0.169478 1
0.226555 0.183103 -1.57902 0.858414 -0.481529 -0.176791 1
0.227414 0.184288 -1.57736 0.845 -0.499375 -0.191309 1
0.228443 0.185194 -1.57562 0.844909 -0.500336 -0.18919 1
0.229697 0.186466 -1.57432 0.84429 -0.506249 -0.175744 1
0.23087 0.187576 -1.5728 0.848005 -0.502818 -0.167514 1
0.231863 0.188821 -1.57127 0.854796 -0.493322 -0.161111 1
0.232686 0.189876 -1.5695 0.861461 -0.47725 -0.173542 1
0.233515 0.190925 -1.56774 0.854845 -0.474871 -0.209136 1
0.234692 0.192459 -1.56666 0.858144 -0.461127 -0.22572 1
0.235172 0.192784 -1.56452 0.858851 -0.436586 -0.267894 1
0.236402 0.193123 -1.56271 0.882176 -0.346772 -0.318612 0.01
0.235772 0.191455 -1.5614 0.841818 -0.432719 -0.322641 1
0.235393 0.189517 -1.5604 0.850987 -0.384828 -0.357392 1
0.235447 0.188067 -1.55873 0.85357 -0.386475 -0.349365 1
0.234949 0.186281 -1.55752 0.85683 -0.393373 -0.333317 1
0.23523 0.185072 -1.55569 0.858292 -0.402215 -0.318681 1
0.235235 0.183612 -1.55402 0.865561 -0.374312 -0.332708 1
0.235018 0.18191 -1.55262 0.872627 -0.344417 -0.346265 1
0.235254 0.180533 -1.55091 0.880648 -0.316454 -0.352586 1
0.235244 0.178886 -1.54943 0.883437 -0.318588 -0.343571 1
0.235108 0.177025 -1.54824 0.8752 -0.332205 -0.351659 1
0.234753 0.175259 -1.54695 0.856162 -0.357799 -0.372781 1
0.234353 0.17353 -1.54563 0.832668 -0.391042 -0.39211 1
0.23476 0.172029 -1.54405 0.816236 -0.411247 -0.405752 1
0.233895 0.170057 -1.54354 0.814482 -0.425609 -0.394306 1
0.23391 0.168683 -1.5418 0.814669 -0.421577 -0.39823 1
0.234279 0.167565 -1.53993 0.814629 -0.414618 -0.405551 1
0.233778 0.165622 -1.53899 0.82891 -0.388111 -0.402837 1
0.233968 0.163969 -1.53753 0.839187 -0.367132 -0.401223 1
0.233255 0.161921 -1.53709 0.847554 -0.341832 -0.405959 1
0.232131 0.16003 -1.53733 0.850807 -0.330186 -0.408783 1
0.231563 0.157896 -1.53718 0.849155 -0.316589 -0.422738 1
0.230488 0.156056 -1.53777 0.850896 -0.305293 -0.427519 1
0.229801 0.153967 -1.53803 0.849184 -0.292171 -0.439912 1
0.228976 0.151914 -1.53809 0.84345 -0.286591 -0.454377 1
