# .PCD v0.7 - Point Cloud Data file format
# 3 71 0
# 1 7 0
# 8 69 0
# 70 71 0
VERSION 0.7
FIELDS x y z normal_x normal_y normal_z curvature
SIZE 4 4 4 4 4 4 4
TYPE F F F F F F F
COUNT 1 1 1 1 1 1 1
WIDTH 71
HEIGHT 1
VIEWPOINT 0 0 0 1 0 0 0
POINTS 71
DATA ascii
-0.0386002 0.173103 -1.42605 -0.104083 -0.984145 0.143617 0.01
-0.0392174 0.174071 -1.4249 -0.142721 -0.972691 0.183037 1
-0.0398382 0.175968 -1.42449 -0.233543 -0.952689 0.194527 1
-0.019703 0.184226 -1.55042 -0.96727 0.236638 0.0915984 1
-0.0195962 0.186031 -1.54948 -0.973867 0.0980431 -0.204866 1
-0.0195342 0.186013 -1.54916 -0.976003 0.0357954 -0.214796 1
-0.0195212 0.184007 -1.54952 -0.961766 0.245463 0.121466 1
-0.0195689 0.18303 -1.5478 -0.96157 0.153298 0.227778 1
-0.0194812 0.182586 -1.5459 -0.970003 -0.0029631 0.243073 1
-0.0192139 0.182774 -1.54389 -0.946539 -0.287653 0.146015 0.01
-0.018982 0.182522 -1.54189 -0.873702 -0.47932 0.0830427 1
-0.0188025 0.182083 -1.53991 -0.793917 -0.60724 0.0309073 1
-0.018699 0.181422 -1.53799 -0.71855 -0.695334 -0.0140458 1
-0.0187 0.180741 -1.53607 -0.631088 -0.772563 -0.0698115 1
-0.0186422 0.180192 -1.53412 -0.538612 -0.83327 -0.124731 1
-0.018445 0.179896 -1.53211 -0.446344 -0.879077 -0.167334 1
-0.0183144 0.17974 -1.53009 -0.374669 -0.91628 -0.141612 1
-0.0181569 0.179598 -1.52806 -0.312744 -0.944692 -0.0987333 1
-0.0179059 0.179417 -1.52605 -0.256479 -0.964368 -0.0649006 1
-0.0179299 0.179385 -1.52402 -0.23699 -0.97014 -0.0516137 1
-0.0178898 0.179306 -1.522 -0.228626 -0.972595 -0.0423028 1
-0.0174515 0.178977 -1.52004 -0.830608 0.556524 -0.0193012 1
-0.0173194 0.178585 -1.51805 -0.286277 -0.957703 -0.0291491 1
-0.0172996 0.178187 -1.51606 -0.295537 -0.954946 -0.0271252 1
-0.0172956 0.177845 -1.51405 -0.305923 -0.95121 -0.0401287 1
-0.0172925 0.177502 -1.51204 -0.335881 -0.940273 -0.0554136 1
-0.0172931 0.177142 -1.51003 -0.644124 0.763885 -0.0397947 1
-0.0173105 0.176696 -1.50805 -0.635208 0.77139 -0.0383102 1
-0.0173542 0.176226 -1.50606 -0.630282 0.775637 -0.0336439 1
-0.0174131 0.175754 -1.50408 -0.630275 0.775963 -0.0251821 1
-0.017481 0.175356 -1.50209 -0.638002 0.769939 -0.0121741 1
-0.0180744 0.175117 -1.50021 -0.635118 0.772298 0.0134774 1
-0.0190033 0.174974 -1.4984 -0.630228 0.77458 0.0532763 1
-0.0199091 0.174765 -1.49658 -0.403002 0.910818 0.0894357 1
-0.020803 0.17452 -1.49477 -0.656052 0.735085 0.171012 1
-0.0216809 0.174258 -1.49295 -0.220234 -0.956474 -0.191454 1
-0.0224098 0.174246 -1.49105 -0.267133 -0.930314 -0.251309 1
-0.0230984 0.174204 -1.48913 -0.361818 -0.856402 -0.368325 1
-0.0237501 0.174133 -1.4872 -0.391077 -0.787785 -0.475871 1
-0.024329 0.173949 -1.48526 -0.346229 -0.764814 -0.543309 1
-0.0248783 0.17374 -1.48331 -0.28906 -0.801267 -0.523848 1
-0.0253955 0.173504 -1.48135 -0.243862 -0.871406 -0.425657 1
-0.0258789 0.173141 -1.47941 -0.186888 -0.926144 -0.327614 1
-0.0263175 0.17263 -1.47749 -0.140277 -0.958648 -0.24762 1
-0.0267 0.171935 -1.47561 -0.11044 -0.97602 -0.187586 1
-0.0270248 0.171184 -1.47375 -0.0955073 -0.985231 -0.142118 1
-0.0273224 0.170662 -1.47183 -0.0928541 -0.990123 -0.105049 1
-0.027586 0.170504 -1.46981 -0.0988636 -0.992504 -0.0718454 1
-0.0278551 0.17056 -1.46779 -0.11462 -0.98673 -0.115008 1
-0.0281352 0.170849 -1.46582 -0.135224 -0.990752 -0.0112138 1
-0.0284341 0.171516 -1.46391 -0.166934 -0.98569 0.023407 1
-0.0271692 0.171805 -1.46255 -0.109178 -0.993131 0.0420898 1
-0.0259866 0.172042 -1.46107 -0.0808306 -0.994792 0.0620876 1
-0.0257447 0.17234 -1.45907 -0.0909696 -0.990695 0.101236 1
-0.0255709 0.172658 -1.45707 -0.104306 -0.984017 0.144329 1
-0.0254398 0.172967 -1.45506 -0.119596 -0.974279 0.190989 1
-0.0253766 0.173234 -1.45304 -0.136313 -0.96102 0.240538 1
-0.0263028 0.173378 -1.45134 -0.17594 -0.941066 0.288858 1
-0.0275695 0.173479 -1.44975 -0.233766 -0.915174 0.328344 1
-0.0288043 0.173583 -1.44813 -0.299384 -0.890406 0.342852 1
-0.02998 0.173772 -1.44648 -0.285305 -0.949782 0.128511 1
-0.0311156 0.173994 -1.4448 -0.129851 -0.99044 -0.0465499 1
-0.0321843 0.174193 -1.44308 -0.0628686 -0.993746 -0.092289 1
-0.0331979 0.174288 -1.44132 -0.0305432 -0.992775 -0.116034 1
-0.0341374 0.17428 -1.43952 -0.0154099 -0.991132 -0.131983 1
-0.0347791 0.173956 -1.43761 -0.00429556 -0.990043 -0.140696 1
-0.0354362 0.173768 -1.43569 -0.00535239 -0.988926 -0.148314 1
-0.0360975 0.173652 -1.43377 -0.0212165 -0.994175 -0.105672 1
-0.0366975 0.173374 -1.43184 -0.0384185 -0.998217 -0.0456925 1
-0.0373304 0.173215 -1.42992 -0.0588264 -0.998134 0.0163814 1
-0.0379867 0.173148 -1.42799 -0.0822556 -0.993424 0.0796439 1
