# .PCD v0.7 - Point Cloud Data file format
# 5 129 0
# 1 10 0
# 11 43 0
# 44 77 0
# 78 125 0
# 126 129 0
VERSION 0.7
FIELDS x y z normal_x normal_y normal_z curvature
SIZE 4 4 4 4 4 4 4
TYPE F F F F F F F
COUNT 1 1 1 1 1 1 1
WIDTH 129
HEIGHT 1
VIEWPOINT 0 0 0 1 0 0 0
POINTS 129
DATA ascii
-0.212783 -0.137854 -1.42123 0.957385 0.270283 -0.101789 0.01
-0.212402 -0.138359 -1.41992 0.959826 0.260119 -0.105225 1
-0.212061 -0.139564 -1.41918 0.965707 0.232759 -0.115035 1
-0.211819 -0.140997 -1.41908 0.973953 0.186169 -0.129446 1
-0.211477 -0.142384 -1.4188 0.974655 0.172753 -0.142137 1
-0.210398 -0.14454 -1.41616 0.970357 0.189138 -0.150445 1
-0.210182 -0.145893 -1.41567 0.970087 0.191281 -0.149475 1
-0.209845 -0.147279 -1.41537 0.96994 0.194484 -0.14626 1
-0.209453 -0.148616 -1.41495 0.968738 0.200157 -0.146576 1
-0.209167 -0.150033 -1.41478 0.967226 0.207116 -0.146888 1
-0.208877 -0.151456 -1.41467 0.965536 0.214197 -0.147848 1
-0.208566 -0.152526 -1.41373 0.964118 0.216394 -0.153786 1
-0.208205 -0.153916 -1.41349 0.963153 0.218816 -0.156384 1
-0.207863 -0.155252 -1.41302 0.961191 0.22352 -0.161711 1
-0.207168 -0.156401 -1.41246 0.95801 0.231286 -0.16948 0.01
-0.206722 -0.15777 -1.41224 0.953783 0.240654 -0.179953 1
-0.206608 -0.159171 -1.41262 0.950576 0.246487 -0.188812 1
-0.206535 -0.16027 -1.41357 0.949753 0.246858 -0.192435 1
-0.206538 -0.160814 -1.41492 0.951883 0.241643 -0.188485 1
-0.206661 -0.161581 -1.41615 0.953334 0.239276 -0.184122 1
-0.206592 -0.162667 -1.41712 0.951333 0.249386 -0.181032 1
-0.206449 -0.16369 -1.41815 0.946513 0.272497 -0.172798 1
-0.206473 -0.164583 -1.4193 0.942465 0.293865 -0.159385 1
-0.206769 -0.164552 -1.42072 0.94715 0.289644 -0.137889 1
-0.206882 -0.164637 -1.42217 0.949981 0.290058 -0.115769 1
-0.20686 -0.165463 -1.42337 0.942401 0.313241 -0.117307 1
-0.206908 -0.165825 -1.42478 0.938834 0.321129 -0.124368 1
-0.207273 -0.165768 -1.42619 0.941554 0.310021 -0.131768 1
-0.207227 -0.166212 -1.42757 0.939743 0.3097 -0.144808 1
-0.207324 -0.166834 -1.42889 0.937536 0.306707 -0.164183 1
-0.207394 -0.1674 -1.43023 0.937963 0.291003 -0.188528 1
-0.207367 -0.168109 -1.4315 0.934865 0.281069 -0.21686 1
-0.207212 -0.169038 -1.43261 0.932769 0.282669 -0.223699 1
-0.206994 -0.170027 -1.43366 0.929186 0.294788 -0.222965 1
-0.207035 -0.170732 -1.43493 0.930791 0.300141 -0.208672 1
-0.206847 -0.17182 -1.43588 0.924228 0.323172 -0.20338 1
-0.20721 -0.172546 -1.43709 0.930713 0.313723 -0.188019 1
-0.207261 -0.1732 -1.43839 0.93561 0.307418 -0.173574 1
-0.20727 -0.173667 -1.43977 0.940305 0.301125 -0.158585 1
-0.207288 -0.174079 -1.44116 0.944624 0.294394 -0.144977 1
-0.207342 -0.174412 -1.44258 0.948503 0.287099 -0.133852 1
-0.207338 -0.175021 -1.4439 0.949964 0.285858 -0.125913 1
-0.207251 -0.175755 -1.44515 0.950308 0.287671 -0.118994 1
-0.207621 -0.175726 -1.44656 0.954602 0.278527 -0.105626 1
-0.207571 -0.176334 -1.44788 0.955378 0.278724 -0.0978022 1
-0.207732 -0.176696 -1.44929 0.957601 0.274268 -0.0881952 1
-0.207696 -0.176227 -1.45066 0.961738 0.261991 -0.0801338 1
-0.207715 -0.176123 -1.45212 0.963453 0.254216 -0.084457 0.01
-0.208187 -0.175183 -1.45312 0.966882 0.240775 -0.0846555 1
-0.208653 -0.173987 -1.45381 0.970529 0.225234 -0.0856967 1
-0.208825 -0.173296 -1.45508 0.971935 0.216437 -0.0921803 1
-0.209296 -0.172106 -1.45577 0.974893 0.19919 -0.0995311 1
-0.209661 -0.170907 -1.45652 0.97769 0.177871 -0.111734 1
-0.209799 -0.170413 -1.45788 0.974172 0.1887 -0.124019 1
-0.210046 -0.169539 -1.45902 0.969869 0.202729 -0.135114 1
-0.210277 -0.168958 -1.46033 0.968946 0.212172 -0.126989 1
-0.210581 -0.167804 -1.46117 0.968092 0.218894 -0.121997 1
-0.211057 -0.166503 -1.46161 0.967834 0.222955 -0.11657 1
-0.211566 -0.165337 -1.46232 0.968947 0.223066 -0.10669 1
-0.211814 -0.164567 -1.46353 0.973064 0.209814 -0.0955185 1
-0.212005 -0.164049 -1.46488 0.975902 0.201452 -0.083857 1
-0.212203 -0.163461 -1.4662 0.978237 0.19437 -0.0726172 1
-0.212401 -0.162596 -1.46735 0.980196 0.187468 -0.0638154 1
-0.212688 -0.161604 -1.46838 0.981061 0.18264 -0.0645197 1
-0.212887 -0.160729 -1.46953 0.980481 0.182199 -0.0739011 1
-0.213232 -0.159664 -1.47046 0.979552 0.182885 -0.0838501 1
-0.213769 -0.158721 -1.47143 0.98109 0.168584 -0.0950864 1
-0.214352 -0.157598 -1.47215 0.984371 0.141631 -0.104667 1
-0.214669 -0.157073 -1.47347 0.98481 0.131709 -0.113148 1
-0.214632 -0.156163 -1.4746 0.986428 0.110152 -0.121764 1
-0.214648 -0.155037 -1.47553 0.98828 0.0804377 -0.129736 1
-0.214742 -0.154199 -1.47671 0.988526 0.0587534 -0.139155 1
-0.214765 -0.153443 -1.47796 0.992808 0.0539533 -0.106873 1
-0.214928 -0.152091 -1.47847 0.991533 0.0990858 -0.083932 1
-0.214866 -0.151326 -1.47971 0.991685 0.11952 -0.0476998 1
-0.214884 -0.150877 -1.4811 0.991455 0.129316 -0.0171391 1
-0.215379 -0.149858 -1.48201 0.986949 0.161021 0.0017854 1
-0.215572 -0.148946 -1.48313 0.982077 0.18739 0.0202354 1
-0.215953 -0.147846 -1.484 0.975598 0.217117 0.0326856 1
-0.216231 -0.146644 -1.48478 0.97338 0.226226 0.0367741 1
-0.216624 -0.145326 -1.48526 0.968743 0.246341 0.0292054 1
-0.216978 -0.143927 -1.48507 0.962652 0.270714 0.0038835 0.01
-0.21753 -0.142687 -1.48454 0.960179 0.277515 -0.0322759 1
-0.217592 -0.141466 -1.48375 0.963328 0.261234 -0.061292 1
-0.217601 -0.140757 -1.48248 0.967806 0.241123 -0.0721866 1
-0.217825 -0.139472 -1.48183 0.968328 0.234865 -0.0847291 1
-0.217671 -0.139293 -1.48039 0.971223 0.225584 -0.0764028 1
-0.217578 -0.139387 -1.47894 0.973043 0.221183 -0.0653017 1
-0.217531 -0.139506 -1.47749 0.973582 0.222146 -0.0528088 1
-0.217292 -0.13901 -1.47614 0.971983 0.232544 -0.0342251 1
-0.217038 -0.138925 -1.47471 0.967371 0.252186 -0.024403 1
-0.217317 -0.139272 -1.47333 0.957915 0.281894 -0.054166 1
-0.217235 -0.138936 -1.47191 0.9466 0.314848 -0.0694273 1
-0.216978 -0.139227 -1.47051 0.936417 0.33733 -0.0966003 1
-0.217039 -0.139661 -1.46912 0.92796 0.352614 -0.120637 1
-0.21701 -0.13941 -1.46769 0.913758 0.384275 -0.131832 1
-0.216905 -0.13979 -1.46629 0.907706 0.393378 -0.146029 1
-0.216851 -0.13936 -1.4649 0.897596 0.425612 -0.11479 1
-0.21669 -0.139348 -1.46345 0.896523 0.433861 -0.0895065 1
-0.216604 -0.138572 -1.46222 0.903228 0.423077 -0.0720036 1
-0.21662 -0.138695 -1.46077 0.907809 0.416058 -0.0527106 1
-0.21631 -0.1385 -1.45936 0.920933 0.387931 -0.0373154 1
-0.215943 -0.138394 -1.45795 0.932865 0.359558 -0.0219254 1
-0.216312 -0.137887 -1.45664 0.956474 0.289932 -0.033116 1
-0.216313 -0.138124 -1.4552 0.960542 0.275337 -0.0393627 1
-0.21592 -0.137858 -1.45383 0.967077 0.249398 -0.0506155 1
-0.215861 -0.138324 -1.45245 0.963592 0.261682 -0.0548802 1
-0.215787 -0.138616 -1.45103 0.959457 0.274873 -0.0623397 1
-0.215604 -0.138427 -1.44959 0.960784 0.268659 -0.0686737 1
-0.215491 -0.137913 -1.44824 0.966891 0.245542 -0.0695024 1
-0.215416 -0.138645 -1.44698 0.94878 0.305541 -0.0803827 1
-0.215495 -0.138006 -1.44567 0.960168 0.265036 -0.0885014 1
-0.215652 -0.137127 -1.44452 0.971791 0.214969 -0.0970105 1
-0.215573 -0.136882 -1.44309 0.97156 0.209235 -0.110868 1
-0.215323 -0.137119 -1.44168 0.964385 0.232016 -0.127003 1
-0.215045 -0.137413 -1.44028 0.954832 0.259894 -0.144053 1
-0.214841 -0.137527 -1.43884 0.94661 0.279685 -0.160331 1
-0.214868 -0.137697 -1.43739 0.939869 0.298765 -0.165486 1
-0.214768 -0.137307 -1.436 0.94138 0.30236 -0.149607 1
-0.214581 -0.136939 -1.4346 0.940577 0.311424 -0.135391 1
-0.214415 -0.136612 -1.43319 0.938409 0.3226 -0.123766 1
-0.214576 -0.13636 -1.43177 0.935691 0.333403 -0.11543 1
-0.214277 -0.136222 -1.43035 0.933576 0.340138 -0.112881 1
-0.214006 -0.136147 -1.42892 0.933736 0.339061 -0.114782 1
-0.213762 -0.136008 -1.42749 0.935948 0.33259 -0.115696 1
-0.2134 -0.13619 -1.42609 0.940466 0.320536 -0.113051 1
-0.2126 -0.137077 -1.42526 0.950336 0.291906 -0.107949 1
-0.213242 -0.137477 -1.42401 0.953042 0.28343 -0.106666 1
-0.212951 -0.137965 -1.42267 0.95796 0.267118 -0.104699 1
