# .PCD v0.7 - Point Cloud Data file format
# 4 95 0
# 1 21 0
# 22 58 0
# 59 89 0
# 90 95 0
VERSION 0.7
FIELDS x y z normal_x normal_y normal_z curvature
SIZE 4 4 4 4 4 4 4
TYPE F F F F F F F
COUNT 1 1 1 1 1 1 1
WIDTH 95
HEIGHT 1
VIEWPOINT 0 0 0 1 0 0 0
POINTS 95
DATA ascii
0.0520979 -0.0889191 -1.64143 0.776956 -0.598158 0.196334 0.01
0.0514589 -0.0905338 -1.64073 0.801909 -0.551124 0.230658 1
0.0502592 -0.0917594 -1.63998 0.833641 -0.482061 0.269556 1
0.0490673 -0.092943 -1.63916 0.873723 -0.377466 0.306802 1
0.0483182 -0.0940666 -1.63786 0.915499 -0.234909 0.326618 1
0.0472457 -0.0952782 -1.63692 0.943026 -0.12609 0.307901 1
0.046699 -0.096415 -1.63554 0.956064 -0.0889933 0.279323 1
0.0470066 -0.0986994 -1.63181 0.967988 -0.00640587 0.250913 1
0.046318 -0.100439 -1.63178 0.969591 0.025105 0.243439 1
0.0457715 -0.101622 -1.63044 0.959806 0.0367331 0.278249 1
0.0450412 -0.102819 -1.6292 0.942062 0.0382508 0.333251 1
0.0451066 -0.104465 -1.62831 0.923612 0.0429753 0.380911 1
0.0447258 -0.106087 -1.62746 0.908986 0.0316315 0.415625 1
0.0443457 -0.107341 -1.62612 0.909593 0.0132104 0.415291 1
0.0439717 -0.108959 -1.62526 0.912934 0.0108352 0.407964 1
0.0435819 -0.110607 -1.62446 0.920191 0.0154104 0.391167 1
0.0433336 -0.112299 -1.6237 0.92856 0.0244001 0.370379 1
0.0430346 -0.114067 -1.62317 0.933666 0.0315832 0.35675 1
0.0427322 -0.115855 -1.6227 0.935973 0.0379032 0.350026 1
0.0424776 -0.11754 -1.62193 0.93498 0.0440559 0.351954 1
0.0424497 -0.119329 -1.62138 0.934549 0.0345576 0.354152 1
0.0419568 -0.120512 -1.62002 0.931403 0.029517 0.362791 1
0.0418525 -0.122047 -1.61895 0.929846 0.0210862 0.367344 1
0.0413696 -0.123708 -1.61824 0.927886 0.0102018 0.372723 1
0.0404885 -0.125097 -1.61734 0.925679 0.0423234 0.375935 1
0.0401964 -0.126886 -1.61781 0.93273 0.085321 0.350336 1
0.0411309 -0.128503 -1.61769 0.943251 0.138818 0.301673 1
0.0420243 -0.130148 -1.6177 0.956637 0.180398 0.228698 0.01
0.0426658 -0.131346 -1.61898 0.964559 0.160479 0.209455 1
0.0431049 -0.132206 -1.62059 0.968805 0.139483 0.204845 1
0.0433672 -0.13328 -1.6221 0.972016 0.135087 0.192187 1
0.0439516 -0.134453 -1.62343 0.974555 0.138784 0.176017 1
0.0440969 -0.134731 -1.62528 0.974419 0.12015 0.189927 1
0.04452 -0.13542 -1.62696 0.973672 0.117204 0.195515 1
0.0448885 -0.135623 -1.62879 0.973219 0.104816 0.204591 1
0.0454207 -0.136352 -1.63043 0.970834 0.115144 0.210295 1
0.0460307 -0.137473 -1.6318 0.962158 0.153855 0.224901 1
0.0465145 -0.137592 -1.6336 0.956513 0.151848 0.24905 1
0.0470028 -0.138043 -1.63535 0.949014 0.163364 0.269602 1
0.047508 -0.138493 -1.63709 0.941835 0.173052 0.288095 1
0.0484226 -0.139865 -1.63798 0.936183 0.22367 0.271171 1
0.0491746 -0.140819 -1.6394 0.93622 0.238717 0.257888 1
0.0489752 -0.139755 -1.64093 0.943151 0.180025 0.279387 1
0.0495287 -0.139837 -1.64272 0.945788 0.156803 0.284426 1
0.050045 -0.140041 -1.6445 0.947784 0.135957 0.28848 1
0.0505653 -0.140243 -1.64629 0.951174 0.119076 0.284761 1
0.0511764 -0.140866 -1.64795 0.953747 0.120594 0.275362 1
0.0517213 -0.141443 -1.64964 0.955238 0.128762 0.266346 1
0.0522015 -0.141397 -1.65145 0.958084 0.132544 0.253983 1
0.0524352 -0.141159 -1.65329 0.950524 0.140393 0.277116 1
0.0529741 -0.141251 -1.65508 0.935192 0.160912 0.315473 1
0.0536447 -0.140483 -1.65665 0.926121 0.156822 0.343083 1
0.0546546 -0.141406 -1.65793 0.897157 0.212243 0.387378 1
0.0556116 -0.141774 -1.65949 0.871317 0.252108 0.421009 1
0.0559675 -0.141082 -1.66119 0.861071 0.259853 0.437074 1
0.0566168 -0.14076 -1.66292 0.839129 0.27953 0.466612 1
0.0572323 -0.139951 -1.66449 0.818452 0.295012 0.493056 1
0.0577387 -0.138477 -1.66553 0.81248 0.305828 0.496332 1
0.0582283 -0.137262 -1.66686 0.83925 0.260053 0.477527 1
0.058557 -0.136613 -1.66859 0.858001 0.239933 0.454165 1
0.0585596 -0.135155 -1.66976 0.883999 0.183593 0.42993 1
0.0591769 -0.134237 -1.67127 0.897163 0.178703 0.403934 1
0.0593646 -0.132467 -1.67185 0.921624 0.144579 0.360146 1
0.0594453 -0.131408 -1.67339 0.93212 0.16372 0.32303 1
0.0601294 -0.130752 -1.675 0.93504 0.198794 0.293565 0.01
0.0598331 -0.128952 -1.67542 0.953715 0.175379 0.244273 1
0.0595679 -0.127102 -1.67534 0.967617 0.151425 0.20196 1
0.0590826 -0.125375 -1.6748 0.973167 0.14388 0.179567 1
0.0585091 -0.123869 -1.67385 0.973386 0.149678 0.173541 1
0.0585133 -0.121998 -1.67385 0.969984 0.180154 0.163327 1
0.0579904 -0.120554 -1.67278 0.965673 0.192842 0.174032 1
0.0574053 -0.119197 -1.67163 0.963526 0.183969 0.194354 1
0.0570819 -0.11753 -1.67084 0.963432 0.164566 0.211464 1
0.0566827 -0.115944 -1.66993 0.970317 0.139965 0.19722 1
0.0562946 -0.114331 -1.66907 0.975794 0.116414 0.185131 1
0.055825 -0.11289 -1.66797 0.979797 0.0977695 0.174468 1
0.0554903 -0.111338 -1.66698 0.981953 0.0710865 0.175259 1
0.0555133 -0.109591 -1.6663 0.9809 0.0351647 0.191305 1
0.0552642 -0.108227 -1.66505 0.9801 0.0222544 0.197251 1
0.0550225 -0.106816 -1.66384 0.978924 0.0065786 0.204121 1
0.054504 -0.105587 -1.66253 0.980989 -0.0131712 0.193615 1
0.0539084 -0.104483 -1.66114 0.985164 -0.0304625 0.168888 1
0.0540633 -0.102823 -1.66029 0.988024 -0.0504874 0.145807 1
0.0538164 -0.101855 -1.65871 0.992358 -0.0603102 0.107648 1
0.0541781 -0.100518 -1.65745 0.990106 -0.0460742 0.132543 1
0.0537501 -0.0998754 -1.65574 0.980758 -0.0209901 0.194095 1
0.0534504 -0.0988636 -1.6542 0.968289 0.0204602 0.248994 1
0.0528601 -0.0978965 -1.65271 0.951822 0.0649183 0.299699 1
0.0524792 -0.0966723 -1.65135 0.936923 0.11122 0.33137 1
0.0519252 -0.0956604 -1.64987 0.946812 0.0176778 0.321302 1
0.0513788 -0.0949385 -1.64823 0.953116 -0.0792165 0.292052 1
0.0513548 -0.0936886 -1.64684 0.93293 -0.261834 0.247152 1
0.051133 -0.0928153 -1.6452 0.908437 -0.37367 0.187384 1
0.0511573 -0.0916705 -1.64372 0.863254 -0.46711 0.191312 1
0.051389 -0.0903334 -1.64243 0.817984 -0.5402 0.197703 1
