# .PCD v0.7 - Point Cloud Data file format
# 3 52 0
# 1 4 0
# 5 34 0
# 35 52 0
VERSION 0.7
FIELDS x y z normal_x normal_y normal_z curvature
SIZE 4 4 4 4 4 4 4
TYPE F F F F F F F
COUNT 1 1 1 1 1 1 1
WIDTH 52
HEIGHT 1
VIEWPOINT 0 0 0 1 0 0 0
POINTS 52
DATA ascii
0.201319 0.130831 -1.6083 -0.161147 0.0505665 -0.985634 0.01
0.201868 0.132557 -1.60808 -0.174062 0.149804 -0.973273 1
0.202532 0.134416 -1.6075 -0.22025 0.287597 -0.932082 1
0.203253 0.136247 -1.60691 -0.294599 0.438021 -0.849323 1
0.204109 0.138013 -1.6063 -0.376541 0.560131 -0.737882 1
0.204965 0.13978 -1.60568 -0.460593 0.637836 -0.617268 1
0.206392 0.141159 -1.60535 -0.489218 0.649623 -0.581941 1
0.208009 0.142408 -1.60512 -0.490299 0.64506 -0.586092 1
0.209601 0.14369 -1.60492 -0.416623 0.470184 -0.778044 1
0.211093 0.145104 -1.60487 -0.22047 0.354138 -0.908834 1
0.212586 0.146518 -1.60482 0.0806326 0.222909 -0.971499 1
0.213889 0.148079 -1.6046 0.0667461 -0.145457 -0.98711 1
0.215088 0.14972 -1.60428 -0.0224775 -0.0851811 -0.996112 1
0.216283 0.15136 -1.60395 -0.0264836 0.0362327 -0.998992 1
0.217437 0.152999 -1.60349 0.018735 0.179823 -0.983521 1
0.218591 0.154638 -1.60303 0.0986125 0.345413 -0.933255 1
0.219593 0.1563 -1.60238 0.183641 0.504934 -0.843396 1
0.22047 0.157981 -1.60158 0.259034 0.629579 -0.732483 1
0.221346 0.159662 -1.60079 0.243379 -0.605597 0.757641 1
0.220627 0.143363 -1.55005 0.824 0.389895 -0.411104 1
0.221685 0.142381 -1.55152 0.853733 0.421917 -0.305164 1
0.222742 0.141399 -1.55298 -0.162534 -0.898972 0.406733 1
0.223251 0.14057 -1.55466 0.887863 0.459981 -0.0108216 0.01
0.223089 0.139927 -1.55661 0.874644 0.477156 0.0855609 1
0.222927 0.139285 -1.55856 0.862348 0.50357 0.0526581 1
0.222478 0.138531 -1.56041 -0.061959 -0.285548 -0.956359 1
0.221997 0.137765 -1.56226 0.74118 0.644151 -0.189003 1
0.221467 0.137149 -1.56414 0.528242 -0.84197 0.109762 1
0.220845 0.136809 -1.56607 0.425792 0.815304 -0.392403 1
0.220223 0.13647 -1.568 0.393903 0.843504 -0.365159 1
0.219469 0.135771 -1.56977 0.380159 0.815911 -0.435624 1
0.218683 0.134982 -1.5715 0.12527 -0.881687 0.454902 1
0.217795 0.13431 -1.57321 0.0746191 -0.892108 0.445618 1
0.216598 0.133986 -1.57485 0.0530936 -0.905685 0.420614 1
0.215401 0.133663 -1.57649 0.0353695 -0.917174 0.396914 1
0.214215 0.133334 -1.57814 0.0218455 -0.927064 0.374266 1
0.213033 0.133003 -1.57979 0.0161978 -0.93646 0.350399 1
0.211855 0.132667 -1.58144 -0.0945547 -0.907384 0.409529 1
0.210698 0.132305 -1.5831 0.457633 0.845964 -0.27371 1
0.209542 0.131943 -1.58476 -0.208946 -0.968422 0.136014 1
0.208381 0.131565 -1.58642 -0.980708 0.148176 0.127501 1
0.207216 0.131175 -1.58807 -0.308369 -0.94402 -0.117197 1
0.206073 0.130767 -1.58972 -0.298745 -0.938098 -0.17528 1
0.205344 0.130034 -1.5915 0.57507 0.689025 -0.441065 1
0.204614 0.1293 -1.59328 -0.280829 -0.616492 0.735576 1
0.20392 0.128647 -1.5951 -0.187723 -0.631091 0.752652 1
0.203261 0.128076 -1.59696 0.595616 0.683792 -0.421509 1
0.202601 0.127504 -1.59882 -0.106119 0.0522948 -0.992977 1
0.202195 0.127851 -1.6008 -0.139653 0.0476906 -0.989051 1
0.201803 0.128246 -1.60278 -0.156594 0.035971 -0.987008 1
0.201526 0.128875 -1.60469 -0.160757 0.00867212 -0.986956 1
0.201422 0.129853 -1.60649 -0.156742 0.00365264 -0.987633 1
