# .PCD v0.7 - Point Cloud Data file format
# 4 94 0
# 1 12 0
# 13 22 0
# 23 69 0
# 70 94 0
VERSION 0.7
FIELDS x y z normal_x normal_y normal_z curvature
SIZE 4 4 4 4 4 4 4
TYPE F F F F F F F
COUNT 1 1 1 1 1 1 1
WIDTH 94
HEIGHT 1
VIEWPOINT 0 0 0 1 0 0 0
POINTS 94
DATA ascii
0.172822 0.186305 -1.60221 0.392032 -0.661319 0.639507 0.01
0.171147 0.184624 -1.6026 0.395838 -0.647572 0.651124 1
0.170691 0.182938 -1.60425 0.397534 -0.642656 0.65495 1
0.170082 0.181201 -1.6058 0.333634 -0.664213 0.668962 1
0.169287 0.179471 -1.60727 0.222512 -0.699101 0.679519 1
0.168076 0.17784 -1.60856 0.123869 -0.727535 0.674796 1
0.168411 0.176173 -1.61026 0.0983142 -0.732053 0.674116 1
0.168978 0.174699 -1.61207 0.0783624 -0.732098 0.676677 1
0.169171 0.172995 -1.61376 0.0305052 -0.739646 0.672304 1
0.169917 0.171526 -1.61551 0.014405 -0.73548 0.677393 1
0.170804 0.170208 -1.61731 0.0186768 -0.726032 0.687408 1
0.171403 0.168492 -1.61889 -0.00310159 -0.724624 0.689138 1
0.172284 0.166943 -1.6205 0.0126001 -0.715384 0.698617 1
0.172568 0.165036 -1.62194 -0.0697738 -0.729337 0.680587 1
0.173652 0.163494 -1.62343 -0.0381227 -0.716457 0.696589 1
0.174621 0.161679 -1.62468 -0.0280947 -0.706851 0.706805 1
0.175149 0.159668 -1.62589 -0.0954187 -0.719877 0.687511 1
0.174614 0.159579 -1.62823 -0.288305 -0.742826 0.604227 1
0.173701 0.158258 -1.63002 -0.409828 -0.734832 0.540428 1
0.173728 0.156709 -1.63186 -0.452342 -0.719741 0.526649 1
0.174662 0.155482 -1.6337 -0.460719 -0.707751 0.535561 1
0.175198 0.153702 -1.63523 -0.469361 -0.692899 0.547349 1
0.175685 0.151839 -1.63667 -0.482103 -0.670588 0.563816 1
0.176825 0.150123 -1.63791 -0.472351 -0.650412 0.594851 1
0.177291 0.148262 -1.63936 -0.495944 -0.62534 0.602485 1
0.177951 0.146406 -1.64074 -0.514237 -0.600957 0.611891 1
0.178095 0.14455 -1.64275 -0.555078 -0.578418 0.597763 1
0.178882 0.142586 -1.64389 -0.555186 -0.563854 0.611422 1
0.179596 0.140612 -1.64507 -0.549872 -0.548278 0.630104 1
0.180828 0.138697 -1.64584 -0.521328 -0.539258 0.661376 1
0.18141 0.136502 -1.64663 -0.495244 -0.522634 0.693965 1
0.181988 0.134462 -1.64777 -0.462715 -0.492452 0.737147 1
0.182239 0.132327 -1.64884 -0.426816 -0.444332 0.787653 1
0.182476 0.130232 -1.65 -0.378688 -0.377466 0.845053 1
0.183665 0.128186 -1.65043 -0.323108 -0.332413 0.88606 1
0.184101 0.125895 -1.65101 -0.247999 -0.254926 0.934617 1
0.184089 0.123573 -1.65164 -0.161517 -0.195012 0.96741 1
0.185701 0.121845 -1.65119 -0.137887 -0.210705 0.967776 0.01
0.187993 0.122474 -1.65083 -0.19973 -0.299182 0.933058 1
0.190332 0.122952 -1.65055 -0.197282 -0.364276 0.910155 1
0.192698 0.122664 -1.65022 0.151879 -0.298722 0.942177 1
0.194915 0.123324 -1.65088 0.415337 -0.220388 0.882567 1
0.197083 0.123708 -1.65185 0.417614 -0.243363 0.875428 1
0.198996 0.123021 -1.65314 0.42814 -0.251045 0.868143 1
0.201163 0.123668 -1.65395 0.437766 -0.270619 0.857395 1
0.203318 0.123289 -1.65495 0.448998 -0.281252 0.848114 1
0.205496 0.123355 -1.65597 0.437071 -0.293666 0.850135 1
0.207588 0.123663 -1.65711 0.393404 -0.307664 0.866358 0.01
0.208881 0.125688 -1.65701 0.355658 -0.30797 0.882418 1
0.208745 0.127937 -1.65618 0.361797 -0.301594 0.882125 1
0.209099 0.130047 -1.65508 0.360124 -0.302021 0.882663 1
0.208141 0.132168 -1.65447 0.371187 -0.307802 0.876058 1
0.208025 0.134433 -1.65367 0.361307 -0.327512 0.873037 1
0.208394 0.136704 -1.65297 0.342384 -0.358325 0.868548 1
0.208276 0.138806 -1.65181 0.334107 -0.378871 0.863035 1
0.207516 0.140808 -1.65071 0.339539 -0.390768 0.855578 1
0.207315 0.142949 -1.64964 0.341792 -0.401206 0.849831 1
0.207671 0.145139 -1.64871 0.341732 -0.40597 0.84759 1
0.20855 0.14721 -1.64786 0.319048 -0.414639 0.852222 1
0.208301 0.149327 -1.64675 0.320578 -0.430174 0.843907 1
0.208433 0.15144 -1.64561 0.304745 -0.454372 0.837064 1
0.208638 0.153554 -1.64448 0.282639 -0.482736 0.828904 1
0.209366 0.155628 -1.6435 0.244517 -0.514844 0.821673 1
0.210255 0.157667 -1.64259 0.16908 -0.554407 0.81489 1
0.210541 0.1597 -1.64134 0.133739 -0.569975 0.810705 1
0.211404 0.161469 -1.63996 0.0890249 -0.584456 0.806527 1
0.21165 0.163403 -1.63855 0.0658303 -0.591013 0.803972 1
0.21175 0.165347 -1.63714 0.049477 -0.59443 0.802624 1
0.210141 0.166913 -1.63628 0.0814964 -0.588005 0.804741 1
0.209033 0.168515 -1.63487 0.109337 -0.598935 0.793298 1
0.207616 0.169628 -1.63327 0.153729 -0.604919 0.781307 1
0.206156 0.170947 -1.63189 0.200842 -0.607688 0.768361 1
0.205309 0.172467 -1.63023 0.216911 -0.619795 0.754191 1
0.204352 0.174013 -1.62866 0.229238 -0.631269 0.740911 1
0.203096 0.175584 -1.62734 0.246783 -0.63719 0.730128 1
0.202248 0.177126 -1.6257 0.250638 -0.651277 0.716253 1
0.200774 0.17836 -1.62425 0.288373 -0.650054 0.703044 1
0.200503 0.180015 -1.62253 0.274221 -0.674 0.685949 1
0.199364 0.181144 -1.62074 0.294821 -0.679569 0.671763 1
0.198478 0.182429 -1.61891 0.296757 -0.692181 0.657891 1
0.198275 0.184135 -1.61723 0.276006 -0.718167 0.638793 1
0.197998 0.185544 -1.6153 0.259904 -0.742046 0.617914 1
0.197003 0.186528 -1.61334 0.250654 -0.758446 0.601608 1
0.194927 0.186936 -1.6122 0.247963 -0.761126 0.599335 1
0.193122 0.187295 -1.61065 0.261224 -0.76652 0.586694 1
0.19148 0.187739 -1.60895 0.285255 -0.772709 0.567054 1
0.189425 0.188147 -1.60777 0.314566 -0.767783 0.558174 1
0.188365 0.188872 -1.60574 0.315152 -0.781971 0.537774 1
0.18632 0.189217 -1.60452 0.339241 -0.767901 0.543363 1
0.183987 0.189126 -1.60394 0.352571 -0.736239 0.577621 1
0.181901 0.188868 -1.60278 0.242293 -0.741443 0.625745 1
0.179586 0.188605 -1.60218 0.15798 -0.746769 0.646048 1
0.177223 0.188159 -1.60212 0.191749 -0.748552 0.634746 1
0.175025 0.18724 -1.60244 0.314374 -0.709724 0.630445 1
