# .PCD v0.7 - Point Cloud Data file format
# 4 43 0
# 1 3 0
# 4 12 0
# 13 39 0
# 40 43 0
VERSION 0.7
FIELDS x y z normal_x normal_y normal_z curvature
SIZE 4 4 4 4 4 4 4
TYPE F F F F F F F
COUNT 1 1 1 1 1 1 1
WIDTH 43
HEIGHT 1
VIEWPOINT 0 0 0 1 0 0 0
POINTS 43
DATA ascii
0.0355256 -0.164646 -1.40727 0.588232 -0.37343 0.71731 0.01
0.0344401 -0.16542 -1.40665 0.431247 -0.443468 0.785724 1
0.0326471 -0.165508 -1.40558 0.341248 -0.399743 0.850738 1
0.0313292 -0.164176 -1.40501 0.312993 -0.259883 0.913508 1
0.0301114 -0.162544 -1.40455 0.316828 -0.144185 0.93746 1
0.01201 -0.12487 -1.44198 0.988646 -0.149307 -0.0169417 1
0.012219 -0.124159 -1.44003 0.983177 -0.177572 -0.0428014 1
0.0124827 -0.123443 -1.43809 0.978476 -0.190815 -0.0785709 0.01
0.0130059 -0.122703 -1.4362 0.97393 -0.195545 -0.114993 1
0.0135256 -0.121885 -1.43436 0.654745 -0.718399 0.234972 1
0.0140391 -0.120923 -1.43258 0.960752 -0.213911 -0.17663 1
0.0145346 -0.119916 -1.43081 0.952369 -0.22964 -0.200647 1
0.0150135 -0.118865 -1.42907 0.945444 -0.244566 -0.21523 1
0.0155783 -0.118015 -1.42726 0.940648 -0.243551 -0.236358 1
0.0161808 -0.117251 -1.42541 0.934517 -0.232433 -0.269541 1
0.0168895 -0.117667 -1.42354 0.919766 -0.125681 -0.3718 1
0.0176121 -0.118272 -1.42168 0.764356 0.203531 -0.611829 0.01
0.0182888 -0.119179 -1.41993 0.315148 0.560385 -0.765931 1
0.0189397 -0.120251 -1.4183 0.201314 0.171314 0.96443 1
0.0194982 -0.121913 -1.41717 0.151653 0.0552534 0.986888 1
0.0199493 -0.123726 -1.41636 0.0868338 0.181678 0.979517 1
0.0202333 -0.125772 -1.41605 0.0865564 0.204955 0.974937 1
0.0205441 -0.12781 -1.41572 0.122074 0.152162 0.980788 1
0.0208757 -0.129841 -1.41536 0.170862 0.0644855 0.983182 1
0.0211576 -0.131901 -1.4152 0.207066 0.129337 0.96974 1
0.021422 -0.133971 -1.41511 0.214123 0.236177 0.947825 1
0.0218949 -0.135896 -1.41448 0.202575 0.350792 0.91428 1
0.0225106 -0.137715 -1.41386 0.181338 0.459358 0.869544 1
0.0244171 -0.138557 -1.414 0.198122 0.518414 0.831862 1
0.0263014 -0.139444 -1.41407 0.26465 0.514694 0.815506 1
0.0281233 -0.140458 -1.41394 0.414211 0.448316 0.792113 1
0.0294501 -0.141834 -1.41357 0.599023 -0.589991 -0.541371 1
0.0301334 -0.143683 -1.41287 0.151331 0.380562 0.912289 1
0.0307925 -0.145532 -1.41216 0.367397 0.751591 -0.547842 1
0.0314361 -0.147383 -1.41144 0.446159 0.518922 0.729152 1
0.032063 -0.14924 -1.41072 0.375377 0.549557 0.746378 1
0.0326854 -0.1511 -1.41 0.41132 0.593784 0.691546 1
0.0332598 -0.15283 -1.40898 0.712442 0.490382 0.501949 1
0.0338198 -0.15458 -1.40799 0.654107 0.517046 0.552094 1
0.0342974 -0.156493 -1.4073 0.880724 0.422668 0.213721 1
0.0347196 -0.158453 -1.40684 0.714375 0.464922 0.522986 1
0.0350151 -0.16052 -1.40689 0.518019 0.123059 0.846471 1
0.0352845 -0.162585 -1.40703 0.589366 -0.180582 0.787424 1
