# .PCD v0.7 - Point Cloud Data file format
# 4 97 0
# 1 17 0
# 18 34 0
# 35 74 0
# 75 97 0
VERSION 0.7
FIELDS x y z normal_x normal_y normal_z curvature
SIZE 4 4 4 4 4 4 4
TYPE F F F F F F F
COUNT 1 1 1 1 1 1 1
WIDTH 97
HEIGHT 1
VIEWPOINT 0 0 0 1 0 0 0
POINTS 97
DATA ascii
-0.027314 0.091242 -1.58526 0.991904 -0.104873 0.0716146 0.01
-0.0275917 0.0882213 -1.58548 0.991138 -0.099929 0.0875195 1
-0.0276597 0.0866809 -1.58668 0.990511 -0.0947145 0.0995821 1
-0.027808 0.0851495 -1.58788 0.990157 -0.0892112 0.10784 1
-0.0279288 0.0832925 -1.58847 0.989631 -0.0857527 0.115228 1
-0.0279112 0.0817178 -1.58962 0.989939 -0.0806975 0.116223 1
-0.0280079 0.0807227 -1.5913 0.99167 -0.0766999 0.103477 1
-0.0279979 0.0789344 -1.59208 0.992708 -0.0732064 0.0957668 1
-0.0277843 0.0771181 -1.59276 0.994116 -0.0671372 0.0850052 1
-0.0277161 0.0755101 -1.59387 0.995776 -0.0620187 0.0677027 1
-0.0278229 0.0745205 -1.59555 0.996655 -0.0585385 0.0570317 1
-0.027905 0.0726236 -1.596 0.998192 -0.0374551 0.0470153 1
-0.0278654 0.0709019 -1.59692 0.999162 -0.0182431 0.0366311 1
-0.0279383 0.0691486 -1.59778 0.999682 0.00505451 0.024717 1
-0.027935 0.0685287 -1.59963 0.999478 0.00868954 0.0311214 1
-0.0276697 0.0673924 -1.60119 0.997904 0.0464596 0.0450554 1
-0.0273369 0.0663047 -1.60278 0.994339 0.0861549 0.0621819 1
-0.026869 0.0648662 -1.60401 0.986676 0.145718 0.0723696 0.01
-0.0265726 0.0640886 -1.60578 0.980858 0.177999 0.0789607 1
-0.0269661 0.0647748 -1.60756 0.987395 0.128195 0.0928283 1
-0.0267735 0.0654169 -1.6094 0.991472 0.084075 0.0995678 1
-0.0268411 0.0664841 -1.61103 0.994632 0.0321082 0.0983699 1
-0.0266988 0.0659733 -1.61291 0.997246 0.0356385 0.0650367 1
-0.0266301 0.0661223 -1.61486 0.998739 0.0264472 0.0426805 1
-0.0264888 0.0656378 -1.61674 0.99883 0.0346974 0.0336901 1
-0.0263174 0.0657067 -1.61868 0.998541 0.030066 0.0448437 1
-0.0262428 0.0664112 -1.6205 0.997545 0.013371 0.0687426 1
-0.0260587 0.0667566 -1.62242 0.995906 0.000124993 0.0903934 1
-0.0258608 0.0670885 -1.62433 0.994191 -0.013578 0.106772 1
-0.0256191 0.0670958 -1.62627 0.993588 -0.0238965 0.110504 1
-0.0256144 0.0673434 -1.6282 0.992636 -0.0367722 0.115422 1
-0.0251477 0.0666241 -1.62996 0.992197 -0.046796 0.115564 1
-0.0251052 0.0671883 -1.63183 0.991137 -0.0561363 0.120403 1
-0.0248575 0.0679646 -1.6336 0.991317 -0.0560388 0.118954 1
-0.0245682 0.06841 -1.63548 0.990887 -0.0530349 0.123814 0.01
-0.024579 0.0703331 -1.63581 0.991877 -0.0405531 0.120559 1
-0.0242584 0.0718537 -1.637 0.992934 -0.0224484 0.116523 1
-0.0241219 0.0734658 -1.63809 0.993837 -0.00168443 0.110836 1
-0.0241209 0.0754129 -1.63823 0.995427 0.0139474 0.0945027 1
-0.023942 0.0772563 -1.63885 0.996164 0.0309675 0.0818378 1
-0.0237089 0.0788992 -1.63987 0.961277 -0.0283581 0.274122 1
-0.0239745 0.0808236 -1.63968 0.951642 -0.0563984 0.301987 1
-0.0237738 0.0827194 -1.6401 0.915332 -0.110182 0.387334 1
-0.0234935 0.0846419 -1.64029 0.884402 -0.147643 0.442758 1
-0.0231904 0.0865426 -1.63997 0.876049 -0.161118 0.454509 1
-0.0226046 0.0883916 -1.63975 0.86938 -0.156212 0.468803 1
-0.0216852 0.0901007 -1.63953 0.869132 -0.140552 0.474189 1
-0.0221762 0.0917459 -1.6386 0.907037 -0.141214 0.396664 1
-0.0230222 0.0932331 -1.63766 0.933853 -0.142935 0.327854 1
-0.0231345 0.0949246 -1.6367 0.950082 -0.141137 0.278251 1
-0.0227529 0.0966015 -1.63577 0.960988 -0.134576 0.241642 1
-0.0227599 0.098261 -1.63474 0.969642 -0.123542 0.211027 1
-0.0230731 0.0995564 -1.63332 0.97598 -0.117874 0.183216 1
-0.0231942 0.100943 -1.63195 0.980027 -0.110645 0.165242 1
-0.023109 0.102683 -1.63107 0.982198 -0.102277 0.157567 1
-0.0228518 0.104618 -1.63102 0.982048 -0.10613 0.155943 1
-0.022928 0.106088 -1.62974 0.983117 -0.116839 0.140815 1
-0.0229486 0.107411 -1.6283 0.983974 -0.126079 0.126091 1
-0.0229601 0.109026 -1.62721 0.983411 -0.137903 0.117837 1
-0.0226653 0.110736 -1.62631 0.981508 -0.152894 0.115177 1
-0.0225867 0.112223 -1.62505 0.979951 -0.166675 0.109159 1
-0.0226431 0.113429 -1.62352 0.979083 -0.17745 0.0995362 1
-0.0224656 0.114938 -1.62229 0.976582 -0.193847 0.0933352 1
-0.0222521 0.116394 -1.62101 0.973571 -0.210762 0.0879664 1
-0.0218048 0.118163 -1.62031 0.969769 -0.227169 0.0891193 1
-0.0217972 0.119564 -1.61895 0.966823 -0.236154 0.0973882 1
-0.0213577 0.121314 -1.61821 0.961365 -0.25384 0.106498 1
-0.0210023 0.122733 -1.61692 0.953008 -0.273466 0.130351 1
-0.0210541 0.123958 -1.6154 0.934657 -0.306378 0.180414 1
-0.0207807 0.125142 -1.61387 0.93086 -0.330929 0.154874 1
-0.0201948 0.126752 -1.61293 0.926766 -0.35315 0.128024 1
-0.0203432 0.127311 -1.61107 0.940692 -0.33834 -0.0249748 1
-0.0197329 0.128227 -1.60946 0.927856 -0.324273 -0.184203 1
-0.0194381 0.128101 -1.60753 0.871119 -0.318092 -0.374124 1
-0.0188271 0.127981 -1.60568 0.800019 -0.340398 -0.494064 0.01
-0.0182468 0.127041 -1.60407 0.762668 -0.472321 -0.441872 1
-0.0181022 0.125487 -1.6029 0.744709 -0.561581 -0.360604 1
-0.0189477 0.123975 -1.602 0.752349 -0.596253 -0.280097 1
-0.0195625 0.12258 -1.60078 0.758362 -0.619806 -0.201809 1
-0.0205666 0.121391 -1.5996 0.778797 -0.612943 -0.133327 1
-0.0214663 0.120269 -1.59828 0.802082 -0.592927 -0.0714299 1
-0.0220238 0.11894 -1.59696 0.835847 -0.547272 -0.0430509 1
-0.0226834 0.117304 -1.59613 0.891362 -0.451551 -0.0396894 1
-0.0232042 0.115658 -1.59522 0.9386 -0.34376 -0.0293126 1
-0.0240057 0.113948 -1.59472 0.979363 -0.201532 0.0152469 1
-0.02451 0.112257 -1.59388 0.984417 -0.175848 7.30987e-05 1
-0.0248203 0.1106 -1.5929 0.986522 -0.16343 0.00804246 1
-0.0250443 0.109097 -1.59168 0.987617 -0.156106 0.0156327 1
-0.0253265 0.107694 -1.59035 0.988036 -0.152521 0.02286 1
-0.0255617 0.105861 -1.58972 0.990731 -0.134449 0.0193914 1
-0.0257346 0.104116 -1.58886 0.992814 -0.11951 0.00619311 1
-0.0258198 0.102286 -1.58819 0.993659 -0.112431 -0.00140115 1
-0.0259501 0.100453 -1.58753 0.992815 -0.119564 -0.00473924 1
-0.0262477 0.0985469 -1.58723 0.990958 -0.132384 0.0218203 1
-0.0263543 0.096641 -1.58682 0.989951 -0.133827 0.045686 1
-0.0268008 0.0947417 -1.58688 0.99067 -0.121172 0.0623723 1
-0.0271665 0.0929603 -1.58617 0.991384 -0.111596 0.0685824 1
