# .PCD v0.7 - Point Cloud Data file format
# 3 30 0
# 1 2 0
# 3 26 0
# 27 30 0
VERSION 0.7
FIELDS x y z normal_x normal_y normal_z curvature
SIZE 4 4 4 4 4 4 4
TYPE F F F F F F F
COUNT 1 1 1 1 1 1 1
WIDTH 30
HEIGHT 1
VIEWPOINT 0 0 0 1 0 0 0
POINTS 30
DATA ascii
0.186129 -0.0546609 -1.35561 -0.79965 -0.469139 -0.374791 0.01
0.186195 -0.0547555 -1.35608 -0.898644 -0.419193 -0.129293 1
0.186231 -0.0547739 -1.35653 -0.917796 -0.391479 -0.0662995 1
0.186169 -0.054543 -1.35694 -0.924903 -0.376539 -0.0526512 1
0.186107 -0.054312 -1.35735 -0.930417 -0.364899 -0.0342417 1
0.18948 -0.063984 -1.35186 -0.668953 -0.159726 -0.725941 1
0.189376 -0.0635692 -1.35207 -0.712701 -0.204128 -0.67111 0.01
0.189272 -0.0631544 -1.35228 -0.76006 -0.230779 -0.607495 1
0.189145 -0.0627219 -1.35221 -0.741228 -0.240842 -0.626559 1
0.189012 -0.0622851 -1.35208 -0.699369 -0.253588 -0.668263 1
0.188879 -0.0618483 -1.35194 -0.650507 -0.27334 -0.708608 1
0.188746 -0.0614115 -1.35181 -0.596188 -0.298916 -0.745123 1
0.188736 -0.0611399 -1.35203 -0.640378 -0.32749 -0.694742 1
0.188598 -0.0607102 -1.35217 -0.633436 -0.36675 -0.681361 1
0.188438 -0.0603101 -1.35237 -0.629585 -0.408184 -0.661066 1
0.188277 -0.05991 -1.35257 -0.619838 -0.451589 -0.64177 1
0.188117 -0.0595098 -1.35278 -0.603642 -0.496459 -0.623814 1
0.187957 -0.0591097 -1.35298 -0.599263 -0.512616 -0.614906 1
0.187796 -0.0587096 -1.35318 -0.600132 -0.519275 -0.608436 1
0.187636 -0.0583094 -1.35338 -0.600647 -0.526384 -0.601783 1
0.187477 -0.0579177 -1.3536 -0.606516 -0.533616 -0.589399 1
0.187321 -0.0575374 -1.35384 -0.62022 -0.540599 -0.568401 1
0.187186 -0.0572042 -1.35414 -0.661522 -0.54383 -0.516369 1
0.187078 -0.0569346 -1.35452 -0.73982 -0.53445 -0.408692 1
0.18697 -0.0566649 -1.3549 -0.808095 -0.513772 -0.288133 1
0.186862 -0.0563952 -1.35527 -0.857498 -0.485112 -0.171359 1
0.186755 -0.0561256 -1.35565 -0.891808 -0.446998 -0.0697928 1
0.186574 -0.0557082 -1.35561 -0.872404 -0.45928 -0.16725 1
0.186387 -0.055278 -1.35552 -0.829278 -0.474537 -0.29515 1
0.186199 -0.0548477 -1.35544 -0.765558 -0.482098 -0.426032 1
