# .PCD v0.7 - Point Cloud Data file format
# 5 139 0
# 1 21 0
# 22 45 0
# 46 97 0
# 98 113 0
# 114 139 0
VERSION 0.7
FIELDS x y z normal_x normal_y normal_z curvature
SIZE 4 4 4 4 4 4 4
TYPE F F F F F F F
COUNT 1 1 1 1 1 1 1
WIDTH 139
HEIGHT 1
VIEWPOINT 0 0 0 1 0 0 0
POINTS 139
DATA ascii
0.0315705 -0.0639134 -1.29795 -0.284061 0.263025 -0.922024 0.01
0.0313667 -0.066267 -1.29877 -0.279766 0.27518 -0.919786 1
0.0299673 -0.0683281 -1.29855 -0.261477 0.288299 -0.921148 1
0.0292464 -0.0706096 -1.29928 -0.260323 0.310322 -0.914293 1
0.0293766 -0.0728689 -1.30035 -0.28098 0.340096 -0.897433 1
0.0286898 -0.075168 -1.30105 -0.283626 0.366025 -0.886331 1
0.0270163 -0.077026 -1.30101 -0.247473 0.378278 -0.891999 1
0.0252305 -0.0787612 -1.30124 -0.198782 0.392939 -0.897822 1
0.0228823 -0.079619 -1.30117 -0.148996 0.383469 -0.911456 1
0.0207834 -0.0809484 -1.30146 -0.115197 0.380733 -0.917481 1
0.0185996 -0.0821087 -1.30183 -0.081922 0.376414 -0.922822 1
0.0164543 -0.0833478 -1.30218 -0.0519332 0.372668 -0.926511 1
0.0149344 -0.0850998 -1.30311 -0.039853 0.378613 -0.924697 1
0.0128226 -0.0864135 -1.30337 -0.0251158 0.384019 -0.922984 1
0.0105723 -0.087439 -1.30375 -0.0227586 0.391014 -0.920103 1
0.00825767 -0.0879314 -1.30456 -0.0308795 0.395268 -0.918046 1
0.00643047 -0.0896209 -1.30431 -0.0355341 0.395636 -0.91772 1
0.0058801 -0.091877 -1.30524 -0.0290448 0.387106 -0.921578 1
0.00565698 -0.0941536 -1.30625 -0.0219848 0.379889 -0.924771 1
0.00486729 -0.0963328 -1.30719 -0.0219298 0.380072 -0.924697 1
0.00454584 -0.0984953 -1.3084 -0.0448219 0.401707 -0.914671 1
0.0041626 -0.100707 -1.3095 -0.0653181 0.42275 -0.903889 1
0.00300098 -0.102876 -1.30995 -0.0665466 0.443154 -0.893972 1
0.00272367 -0.105105 -1.31105 -0.0719967 0.470059 -0.879694 1
0.00345836 -0.107098 -1.31237 -0.0868486 0.492214 -0.866131 1
0.00181179 -0.108834 -1.3131 -0.0721781 0.502783 -0.861394 1
0.000215 -0.110557 -1.31396 -0.0569695 0.512515 -0.856786 1
-6.48856e-05 -0.116171 -1.31735 -0.0463215 0.53631 -0.842749 1
-0.00103339 -0.118148 -1.31854 -0.040569 0.547061 -0.836109 1
-0.00278651 -0.119689 -1.31944 -0.033527 0.55421 -0.831701 1
-0.00440928 -0.121288 -1.32047 -0.0273579 0.562104 -0.826614 1
-0.00631555 -0.122585 -1.32144 -0.0183376 0.567591 -0.823106 1
-0.0083675 -0.123723 -1.3223 -0.00596202 0.570348 -0.821382 1
-0.0103772 -0.1249 -1.32321 0.0075111 0.572315 -0.82 1
-0.0126876 -0.125678 -1.32377 0.0324387 0.564667 -0.824681 1
-0.0139594 -0.127447 -1.325 0.0292377 0.576794 -0.816366 1
-0.0161906 -0.128284 -1.32576 0.0513114 0.564299 -0.823974 1
-0.0172379 -0.130171 -1.32702 0.0398157 0.57618 -0.816353 1
-0.0184031 -0.132011 -1.32825 0.0318178 0.585001 -0.810408 1
-0.0196997 -0.133665 -1.32961 0.0279277 0.590707 -0.806403 1
-0.0202416 -0.135558 -1.33115 0.00704282 0.606196 -0.795284 1
-0.0215054 -0.137309 -1.33241 0.00189021 0.611725 -0.791068 1
-0.0227292 -0.139118 -1.33363 -0.00102764 0.62099 -0.783818 1
-0.0220028 -0.140873 -1.33526 -0.035464 0.652241 -0.757182 1
-0.021996 -0.142645 -1.33702 -0.0548408 0.67311 -0.737506 1
-0.0238473 -0.143915 -1.33812 -0.0301062 0.672346 -0.739625 1
-0.0259366 -0.145194 -1.33863 0.0123892 0.666728 -0.745199 1
-0.0278243 -0.146164 -1.33995 0.0566179 0.659797 -0.749308 0.01
-0.0301896 -0.146561 -1.34066 0.111057 0.658204 -0.744603 1
-0.0324676 -0.146921 -1.34163 0.152505 0.658371 -0.737082 1
-0.0349001 -0.14696 -1.34221 0.168621 0.65006 -0.740938 1
-0.0373373 -0.146407 -1.3423 0.175985 0.640613 -0.747425 1
-0.0396474 -0.145494 -1.34201 0.186606 0.627557 -0.755877 1
-0.0416533 -0.144161 -1.34134 0.196413 0.615046 -0.763636 1
-0.0440154 -0.144029 -1.34215 0.218498 0.595213 -0.773292 1
-0.0463155 -0.143059 -1.34199 0.260832 0.558349 -0.787536 1
-0.0484741 -0.141821 -1.34175 0.300529 0.520456 -0.799255 1
-0.0507871 -0.141123 -1.34239 0.280647 0.532076 -0.798832 1
-0.0530704 -0.140116 -1.34256 0.243704 0.559293 -0.792338 1
-0.0555062 -0.139601 -1.34232 0.215859 0.583138 -0.78317 1
-0.0578539 -0.138785 -1.3426 0.221129 0.587809 -0.778192 1
-0.0601566 -0.137809 -1.34261 0.246661 0.580957 -0.775659 1
-0.0625169 -0.136983 -1.34257 0.276832 0.574534 -0.770243 1
-0.0648993 -0.136404 -1.34306 0.304846 0.575438 -0.758907 1
-0.0672555 -0.135678 -1.34348 0.315528 0.590442 -0.742846 1
-0.0695799 -0.134789 -1.34373 0.310346 0.611501 -0.727841 1
-0.0718358 -0.133709 -1.34372 0.281948 0.637079 -0.717381 1
-0.0741099 -0.132677 -1.34359 0.232026 0.669464 -0.705678 1
-0.0762292 -0.131483 -1.34301 0.163974 0.702729 -0.692304 1
-0.0781534 -0.130173 -1.34209 0.0979443 0.727385 -0.679204 1
-0.080126 -0.129005 -1.34109 0.0610774 0.748904 -0.659858 1
-0.0812485 -0.127491 -1.33945 0.087862 0.76009 -0.643851 0.01
-0.0800949 -0.126108 -1.33771 0.012934 0.768095 -0.640206 1
-0.0787262 -0.124797 -1.33608 -0.0149087 0.754888 -0.655684 1
-0.0770198 -0.123683 -1.33463 0.00146318 0.735693 -0.677313 1
-0.0763014 -0.121846 -1.33309 0.00333659 0.711804 -0.702371 1
-0.0742997 -0.121035 -1.33183 0.0351804 0.690702 -0.722283 1
-0.0726276 -0.119653 -1.33059 0.0615807 0.661641 -0.747288 1
-0.0714473 -0.117934 -1.32921 0.0949107 0.629055 -0.771545 1
-0.0695024 -0.116897 -1.32802 0.121991 0.622915 -0.772719 1
-0.0675847 -0.115789 -1.32686 0.137755 0.618907 -0.77329 1
-0.0656373 -0.114646 -1.32579 0.142642 0.619135 -0.772221 1
-0.064094 -0.113243 -1.32441 0.15137 0.611486 -0.776641 1
-0.0624233 -0.111933 -1.32309 0.151706 0.60996 -0.777775 1
-0.0617959 -0.110113 -1.32149 0.183944 0.582223 -0.791948 1
-0.0600324 -0.109368 -1.31988 0.164592 0.582608 -0.795913 1
-0.0580277 -0.108351 -1.31878 0.131788 0.589065 -0.797267 1
-0.0567043 -0.106857 -1.31728 0.130205 0.570582 -0.810853 1
-0.0550542 -0.105284 -1.31625 0.113486 0.562954 -0.818659 1
-0.0537751 -0.103293 -1.31544 0.114774 0.543203 -0.831719 1
-0.0524488 -0.101483 -1.31433 0.110705 0.527225 -0.842483 1
-0.0508423 -0.100247 -1.31287 0.0869958 0.524513 -0.846946 1
-0.0491694 -0.0990462 -1.31145 0.0674152 0.531632 -0.844288 1
-0.0475903 -0.0974176 -1.3104 0.0607675 0.535873 -0.842109 1
-0.0459455 -0.0957973 -1.30943 0.0541647 0.540089 -0.839863 1
-0.0444022 -0.0941787 -1.30832 0.0538377 0.54017 -0.839832 0.980299
-0.0429194 -0.0925905 -1.30708 0.0577109 0.537142 -0.841515 1
-0.0408602 -0.0912929 -1.3065 0.038325 0.552021 -0.832949 1
-0.0398624 -0.0892079 -1.30555 0.0649953 0.531508 -0.844556 1
-0.0382623 -0.0877886 -1.30425 0.0650831 0.523461 -0.84956 1
-0.0364672 -0.0865584 -1.30302 0.0501451 0.521437 -0.851815 1
-0.0348789 -0.0850453 -1.30182 0.0460362 0.509957 -0.858967 1
-0.0332162 -0.0834774 -1.3008 0.0381768 0.50109 -0.864553 1
-0.0318175 -0.0816619 -1.2998 0.0446664 0.480396 -0.875914 1
-0.0314477 -0.0794077 -1.29878 0.0899422 0.429132 -0.898752 1
-0.0299009 -0.0777045 -1.2978 0.0857115 0.416721 -0.904984 1
-0.0282442 -0.0760597 -1.2969 0.0760661 0.409691 -0.909047 1
-0.0264944 -0.0744642 -1.2961 0.060731 0.408083 -0.910923 1
-0.024712 -0.0728611 -1.29539 0.0409181 0.408821 -0.911697 1
-0.0228756 -0.0712764 -1.29478 0.0154087 0.412383 -0.91088 1
-0.0214022 -0.0694229 -1.29397 0.00287194 0.407727 -0.913099 1
-0.0198542 -0.0681342 -1.29249 -0.0179565 0.408834 -0.912432 1
-0.018405 -0.0662727 -1.29166 -0.0351465 0.408468 -0.912096 1
-0.0168477 -0.0644032 -1.29108 -0.0604304 0.410442 -0.909882 1
-0.0153329 -0.062495 -1.29052 -0.0850535 0.410023 -0.908101 1
-0.0141436 -0.0603284 -1.29013 -0.101838 0.406014 -0.908175 1
-0.012681 -0.0584634 -1.28933 -0.126106 0.402379 -0.906746 1
-0.0108076 -0.0568603 -1.28892 -0.158708 0.397559 -0.903747 1
-0.00889483 -0.0552893 -1.28856 -0.187109 0.388178 -0.90239 1
-0.00649366 -0.0545966 -1.28866 -0.209833 0.383059 -0.899575 1
-0.00587938 -0.0522892 -1.28791 -0.213461 0.378487 -0.900657 1
-0.00439941 -0.0503076 -1.28754 -0.223024 0.377507 -0.898749 1
-0.00211604 -0.0492989 -1.28739 -0.225118 0.370415 -0.901174 1
5.12134e-05 -0.0480837 -1.28767 -0.221822 0.362454 -0.905219 0.01
0.00248307 -0.048233 -1.28824 -0.204451 0.352692 -0.913131 1
0.004769 -0.0489009 -1.289 -0.178521 0.34569 -0.92121 1
0.00703446 -0.0496256 -1.28977 -0.154893 0.340199 -0.927509 1
0.00946765 -0.0498094 -1.29032 -0.13289 0.333221 -0.933437 1
0.0113822 -0.0511902 -1.29115 -0.0845504 0.312242 -0.946232 1
0.0132416 -0.0528301 -1.29148 -0.0375907 0.290884 -0.95602 1
0.0154391 -0.0539128 -1.29198 0.00192699 0.27299 -0.962015 1
0.0177116 -0.0549392 -1.29217 -0.00465348 0.278004 -0.960569 1
0.0202109 -0.0548464 -1.29218 -0.0332501 0.282572 -0.958669 1
0.0226631 -0.0553272 -1.29228 -0.0932125 0.284043 -0.95427 1
0.0246291 -0.0566077 -1.29315 -0.190601 0.295695 -0.936075 1
0.0269148 -0.0565609 -1.29416 -0.287083 0.310578 -0.906159 1
0.0288228 -0.0578664 -1.29512 -0.359172 0.32811 -0.873693 1
0.0304973 -0.0593885 -1.29618 -0.347678 0.302086 -0.887617 1
0.0312699 -0.0615712 -1.29713 -0.317069 0.279044 -0.906422 1
