# .PCD v0.7 - Point Cloud Data file format
# 4 161 0
# 1 28 0
# 29 59 0
# 60 112 0
# 113 161 0
VERSION 0.7
FIELDS x y z normal_x normal_y normal_z curvature
SIZE 4 4 4 4 4 4 4
TYPE F F F F F F F
COUNT 1 1 1 1 1 1 1
WIDTH 161
HEIGHT 1
VIEWPOINT 0 0 0 1 0 0 0
POINTS 161
DATA ascii
-0.187983 0.0637062 -1.60874 0.822196 0.510549 0.25166 0.01
-0.188712 0.0639747 -1.6073 0.83616 0.492825 0.240748 1
-0.188702 0.0632896 -1.60582 0.838434 0.489228 0.240174 1
-0.188485 0.06217 -1.60465 0.836083 0.497825 0.230511 1
-0.188424 0.0614625 -1.60318 0.83494 0.508003 0.211679 1
-0.188406 0.0609496 -1.60163 0.830812 0.517526 0.204741 1
-0.188412 0.0605974 -1.60004 0.824507 0.528139 0.203118 1
-0.188382 0.0594962 -1.59883 0.817977 0.541582 0.193915 1
-0.188124 0.0587544 -1.5974 0.810554 0.556293 0.18314 1
-0.187998 0.0580855 -1.59592 0.802099 0.572326 0.170528 1
-0.18792 0.0574951 -1.5944 0.793955 0.587205 0.157561 1
-0.187666 0.0566869 -1.593 0.787567 0.599277 0.143542 1
-0.187053 0.0557913 -1.59178 0.783324 0.608193 0.128467 1
-0.186442 0.0547904 -1.59065 0.779921 0.615559 0.113183 1
-0.18594 0.0538872 -1.58938 0.775029 0.622917 0.10632 1
-0.185104 0.0528578 -1.58843 0.773301 0.625843 0.10162 1
-0.184335 0.0514372 -1.58819 0.777147 0.622707 0.0909845 1
-0.183264 0.0502706 -1.58779 0.778587 0.622061 0.0827175 1
-0.182382 0.0492523 -1.58687 0.772237 0.629859 0.0832366 1
-0.181621 0.0483416 -1.58575 0.764555 0.638659 0.0870137 1
-0.180741 0.047106 -1.58515 0.757661 0.647515 0.0816899 1
-0.179846 0.0459343 -1.58445 0.748796 0.658615 0.074371 1
-0.17898 0.0448365 -1.5836 0.736981 0.672727 0.0655618 1
-0.178067 0.043561 -1.58315 0.726755 0.684807 0.0535397 1
-0.17729 0.0425485 -1.58213 0.713392 0.697989 0.0623166 1
-0.176341 0.0415917 -1.58121 0.702638 0.706735 0.0826163 1
-0.175144 0.0405296 -1.58089 0.693808 0.713722 0.096079 1
-0.173975 0.0397596 -1.58005 0.702871 0.697115 0.141432 1
-0.172878 0.0394098 -1.57889 0.705842 0.676063 0.211487 1
-0.172886 0.03809 -1.57793 0.700753 0.647609 0.299247 1
-0.172854 0.036903 -1.57681 0.699733 0.635248 0.326855 1
-0.17222 0.0355321 -1.57619 0.69373 0.640812 0.328784 1
-0.172333 0.0352177 -1.57459 0.681389 0.650559 0.335384 1
-0.171721 0.0344053 -1.57331 0.664728 0.671932 0.326564 1
-0.170669 0.0331691 -1.57314 0.655445 0.692644 0.301059 1
-0.169636 0.0319557 -1.57349 0.653676 0.706157 0.272122 1
-0.168529 0.0309597 -1.57283 0.637944 0.731471 0.240786 1
-0.167403 0.0297906 -1.573 0.638077 0.742542 0.203691 1
-0.166213 0.0286994 -1.57275 0.637099 0.753082 0.164233 1
-0.165098 0.0276886 -1.57212 0.626656 0.769107 0.125606 1
-0.163964 0.0266613 -1.57155 0.61526 0.783978 0.082663 1
-0.162757 0.0258899 -1.57233 0.633837 0.772304 0.0423855 1
-0.161503 0.024853 -1.57246 0.636553 0.771217 -0.0048298 1
-0.160262 0.0237967 -1.57256 0.637258 0.768896 -0.05196 1
-0.15888 0.0229324 -1.57265 0.636169 0.76532 -0.0978471 1
-0.157771 0.0218017 -1.57305 0.641568 0.755335 -0.13364 1
-0.156488 0.0207989 -1.57317 0.638553 0.750598 -0.169859 1
-0.155198 0.0198028 -1.57307 0.63087 0.748108 -0.20576 1
-0.154011 0.0188011 -1.57257 0.617181 0.747009 -0.247114 1
-0.155101 0.0195 -1.57356 0.639061 0.744081 -0.194791 1
-0.150744 0.0158681 -1.57348 0.617426 0.741158 -0.263572 1
-0.149757 0.0147157 -1.57409 0.619343 0.745362 -0.246677 1
-0.148726 0.0134731 -1.57433 0.616339 0.750312 -0.239077 1
-0.147392 0.0125667 -1.57407 0.607718 0.75286 -0.252746 1
-0.146301 0.0114835 -1.57462 0.605477 0.76102 -0.232906 1
-0.145293 0.010424 -1.57535 0.604916 0.769386 -0.205236 1
-0.144119 0.00941467 -1.57483 0.593699 0.771267 -0.229496 1
-0.143183 0.00859493 -1.57589 0.596304 0.77918 -0.193133 1
-0.142015 0.00790434 -1.5768 0.598371 0.784266 -0.163949 1
-0.141108 0.00667111 -1.57736 0.598564 0.787107 -0.148941 1
-0.139803 0.00569395 -1.57745 0.590505 0.789821 -0.16579 1
-0.138496 0.00471783 -1.57752 0.582723 0.791257 -0.185329 1
-0.137188 0.00375721 -1.57769 0.577017 0.791659 -0.20082 1
-0.135947 0.00282123 -1.57819 0.575382 0.790864 -0.208493 1
-0.134751 0.00181897 -1.57867 0.573335 0.790018 -0.217158 1
-0.133541 0.000765792 -1.57898 0.568739 0.790918 -0.225799 1
-0.132326 6.03398e-05 -1.57981 0.572099 0.792319 -0.211975 1
-0.130882 -0.000698007 -1.57974 0.559519 0.794308 -0.236673 1
-0.129568 -0.00164452 -1.57995 0.551599 0.796353 -0.248114 1
-0.128442 -0.00277153 -1.58031 0.566701 0.787119 -0.243504 1
-0.127262 -0.00386242 -1.5806 0.578644 0.779622 -0.239501 1
-0.126248 -0.00502477 -1.58113 0.589 0.775716 -0.226591 1
-0.125323 -0.00619005 -1.5818 0.59646 0.774633 -0.210187 1
-0.124107 -0.00716623 -1.58228 0.601307 0.77435 -0.197009 1
-0.122802 -0.00804241 -1.58273 0.604355 0.775853 -0.18113 1
-0.121555 -0.0089619 -1.58324 0.60491 0.780189 -0.159337 1
-0.120194 -0.00979439 -1.58359 0.604826 0.785027 -0.13386 1
-0.119587 -0.0105484 -1.5849 0.588219 0.803039 -0.095533 0.01
-0.119257 -0.0111377 -1.58639 0.565301 0.823887 -0.0405613 1
-0.119123 -0.0112561 -1.58801 0.542913 0.839766 0.00622348 1
-0.119226 -0.0111085 -1.58964 0.527416 0.848368 0.0458747 1
-0.119316 -0.0109261 -1.59126 0.517129 0.852125 0.080377 1
-0.11923 -0.0109508 -1.59289 0.510422 0.854126 0.0996874 1
-0.119035 -0.0109056 -1.59451 0.508971 0.852553 0.118757 1
-0.118785 -0.0108124 -1.59612 0.512686 0.847437 0.137857 1
-0.118563 -0.0105837 -1.59772 0.521616 0.838063 0.159897 1
-0.119244 -0.0099277 -1.59905 0.534695 0.821511 0.198041 1
-0.119551 -0.00933438 -1.60054 0.542018 0.806083 0.237587 1
-0.120261 -0.0084931 -1.60174 0.548458 0.790588 0.272332 1
-0.120791 -0.00767804 -1.60306 0.550677 0.775599 0.308546 1
-0.121551 -0.0065932 -1.60401 0.552733 0.761804 0.337848 1
-0.122913 -0.005738 -1.60429 0.55841 0.751072 0.352233 1
-0.123896 -0.00461853 -1.60496 0.551937 0.728849 0.405148 1
-0.124267 -0.00365714 -1.60622 0.515889 0.689037 0.509005 1
-0.124761 -0.00262632 -1.60739 0.469316 0.652075 0.595432 1
-0.124777 -0.00142961 -1.6085 0.393666 0.608426 0.689089 1
-0.12526 -0.000151808 -1.60939 0.316884 0.594951 0.738659 1
-0.125685 0.00113194 -1.61031 0.301121 0.707423 0.639436 1
-0.126198 0.00239854 -1.6112 0.262947 0.811849 0.521306 1
-0.126682 0.00362331 -1.61217 0.296827 0.85762 0.419978 1
-0.127591 0.00468542 -1.61301 0.344934 0.866767 0.36019 1
-0.128259 0.00546075 -1.61428 0.388432 0.869014 0.306488 1
-0.128803 0.00560564 -1.61582 0.418737 0.857947 0.297635 1
-0.128777 0.00612276 -1.61736 0.429491 0.834589 0.344962 1
-0.129799 0.00698834 -1.6183 0.456882 0.802193 0.384376 1
-0.130805 0.00798508 -1.61911 0.480537 0.768039 0.42332 1
-0.131102 0.00903389 -1.62032 0.498485 0.729907 0.467706 1
-0.131593 0.0101848 -1.62137 0.515141 0.687833 0.511385 1
-0.13254 0.0113362 -1.62204 0.525205 0.648578 0.550914 0.01
-0.133535 0.0125685 -1.62243 0.533029 0.610906 0.585383 1
-0.134982 0.012744 -1.6217 0.539787 0.615602 0.574164 1
-0.136259 0.01375 -1.62155 0.550055 0.591406 0.589642 1
-0.13744 0.0148554 -1.62133 0.559537 0.566402 0.605068 1
-0.138774 0.0157219 -1.62096 0.570024 0.551116 0.60938 1
-0.140227 0.0163693 -1.62059 0.581546 0.542477 0.606237 1
-0.141482 0.0167272 -1.61961 0.597196 0.559033 0.575186 1
-0.142517 0.0179899 -1.6196 0.602808 0.525183 0.600671 1
-0.143501 0.0192372 -1.61922 0.603551 0.508728 0.613939 1
-0.144395 0.0205566 -1.61887 0.595462 0.501236 0.627843 1
-0.144824 0.0221264 -1.61873 0.581651 0.4807 0.656209 1
-0.146213 0.022271 -1.61789 0.596227 0.512909 0.617607 1
-0.147521 0.022074 -1.61693 0.62092 0.560004 0.548502 1
-0.148821 0.0217853 -1.61599 0.640338 0.60162 0.477515 1
-0.149911 0.0217712 -1.61477 0.644845 0.620543 0.446208 1
-0.150679 0.0218076 -1.61333 0.651177 0.637221 0.412212 1
-0.151476 0.0221302 -1.61194 0.658653 0.648003 0.38245 1
-0.152482 0.0232268 -1.61127 0.664952 0.647527 0.372219 1
-0.153523 0.0242742 -1.61058 0.672055 0.647496 0.359292 1
-0.154621 0.0252803 -1.60991 0.679138 0.646863 0.3469 1
-0.156225 0.025407 -1.61018 0.681276 0.644509 0.34709 1
-0.157382 0.0265544 -1.61008 0.683098 0.642115 0.347944 1
-0.158574 0.0276639 -1.60996 0.684875 0.63975 0.348807 1
-0.159916 0.0284549 -1.60947 0.686955 0.638982 0.346115 1
-0.16119 0.0294175 -1.60982 0.688157 0.635473 0.350163 1
-0.160869 0.0309952 -1.60955 0.688784 0.633069 0.35327 1
-0.162146 0.0317602 -1.60887 0.690977 0.633032 0.349028 1
-0.163185 0.0330178 -1.60894 0.692333 0.629756 0.352253 1
-0.164181 0.0342999 -1.60911 0.693415 0.625906 0.356955 1
-0.165528 0.0352027 -1.60892 0.696437 0.623177 0.355845 1
-0.166445 0.0365536 -1.60894 0.698939 0.619006 0.358213 1
-0.167522 0.0377586 -1.60871 0.702616 0.616158 0.355922 1
-0.168473 0.0390627 -1.60896 0.704688 0.612265 0.358535 1
-0.169848 0.0399412 -1.6089 0.708841 0.609993 0.354192 1
-0.171116 0.0409245 -1.6086 0.714036 0.607897 0.347295 1
-0.172104 0.0422013 -1.60884 0.716742 0.605331 0.346201 1
-0.173141 0.0434511 -1.60868 0.721471 0.6032 0.340044 1
-0.174314 0.0445127 -1.60827 0.725056 0.603429 0.331914 1
-0.175304 0.0455347 -1.60747 0.72898 0.60328 0.323483 1
-0.176242 0.0468487 -1.60771 0.729555 0.604275 0.320315 1
-0.177083 0.0481831 -1.60813 0.729495 0.605724 0.317704 1
-0.1781 0.0494475 -1.60795 0.731476 0.606258 0.312079 1
-0.179026 0.0507533 -1.60827 0.731708 0.607271 0.309558 0.45522
-0.179853 0.0520326 -1.60885 0.730842 0.607389 0.311366 1
-0.18079 0.0533454 -1.60911 0.731856 0.604748 0.314113 1
-0.181806 0.0544575 -1.60848 0.747622 0.5882 0.308352 1
-0.182564 0.055807 -1.609 0.758235 0.56841 0.319358 1
-0.18351 0.0571079 -1.60928 0.767948 0.552328 0.324329 1
-0.184418 0.0584211 -1.60962 0.775575 0.54037 0.326319 1
-0.185398 0.0597171 -1.60978 0.784277 0.532055 0.319102 1
-0.186388 0.0609176 -1.60929 0.79874 0.52382 0.296019 1
-0.187223 0.062309 -1.60911 0.809779 0.517438 0.276617 1
