# .PCD v0.7 - Point Cloud Data file format
# 4 99 0
# 1 16 0
# 17 50 0
# 51 82 0
# 83 99 0
VERSION 0.7
FIELDS x y z normal_x normal_y normal_z curvature
SIZE 4 4 4 4 4 4 4
TYPE F F F F F F F
COUNT 1 1 1 1 1 1 1
WIDTH 99
HEIGHT 1
VIEWPOINT 0 0 0 1 0 0 0
POINTS 99
DATA ascii
-0.176255 0.179392 -1.39925 -0.22072 0.547411 -0.807232 0.01
-0.176932 0.177673 -1.40012 -0.169615 0.622321 -0.764165 1
-0.17761 0.175954 -1.40098 -0.673898 0.199042 -0.711508 1
-0.178104 0.174042 -1.40133 -0.504489 0.1429 -0.851511 1
-0.178518 0.172047 -1.40145 -0.356315 0.313336 -0.880261 1
-0.178923 0.17005 -1.40153 -0.350751 0.271716 -0.896183 1
-0.179301 0.168045 -1.40149 -0.326817 0.193909 -0.924981 1
-0.179679 0.16604 -1.40144 -0.304514 0.154638 -0.939871 1
-0.180129 0.164055 -1.40155 -0.288043 0.139707 -0.947372 1
-0.180598 0.162073 -1.40169 -0.274114 0.16203 -0.947949 1
-0.181039 0.160099 -1.40192 -0.265549 0.182582 -0.946651 1
-0.181429 0.158136 -1.40232 -0.262057 0.197395 -0.944649 1
-0.181819 0.156173 -1.40272 -0.265358 0.209324 -0.941153 1
-0.180907 0.154533 -1.40338 -0.245506 0.224403 -0.943064 1
-0.17985 0.15293 -1.40407 -0.230801 0.254067 -0.939245 1
-0.178873 0.15126 -1.40471 -0.269748 -0.150817 0.951047 1
-0.177995 0.149511 -1.40529 -0.24327 0.319771 -0.915733 1
-0.177117 0.147761 -1.40587 -0.31455 0.331067 -0.889636 1
-0.175724 0.117969 -1.40529 0.202187 0.79593 0.570628 1
-0.175521 0.116791 -1.40364 0.0908368 0.924428 0.37038 1
-0.175317 0.115613 -1.40198 -0.183476 0.885956 -0.425932 1
-0.175135 0.114382 -1.40037 -0.19552 0.373703 0.906707 1
-0.174969 0.113108 -1.39878 -0.149096 0.405991 0.901633 1
-0.174802 0.111838 -1.39719 -0.105488 0.451313 0.886109 1
-0.174625 0.110605 -1.39557 -0.0598723 0.497001 0.865682 1
-0.174448 0.109372 -1.39396 -0.0141591 0.540871 0.840987 1
-0.174268 0.108156 -1.39233 0.0216456 0.579997 0.814331 1
-0.174088 0.106948 -1.39069 0.02893 0.617947 0.785687 1
-0.173902 0.105756 -1.38905 -0.0644439 0.680895 0.72954 1
-0.173696 0.104627 -1.38736 -0.105243 0.17659 0.978642 1
-0.17349 0.103499 -1.38567 0.14821 0.0191872 0.98877 1
-0.17326 0.10245 -1.38394 -0.23053 0.374915 0.897939 1
-0.173021 0.101427 -1.38219 -0.421836 0.524917 0.739267 1
-0.172689 0.100996 -1.38045 -0.715015 0.495923 0.492761 0.01
-0.172137 0.101947 -1.37873 -0.91677 0.368612 0.15381 1
-0.171586 0.102898 -1.37701 -0.9464 0.322681 0.0142837 1
-0.171024 0.104344 -1.37571 -0.948102 0.316867 -0.026434 1
-0.170459 0.105878 -1.37449 -0.944979 0.327114 0.00326045 1
-0.169936 0.107415 -1.37325 -0.934842 0.342785 0.0925721 1
-0.169474 0.108957 -1.372 -0.905881 0.358483 0.225543 1
-0.169012 0.110499 -1.37075 -0.843261 0.352577 0.405708 1
-0.169941 0.112111 -1.36998 -0.843085 0.19984 0.499272 1
-0.170945 0.113727 -1.36924 -0.288349 -0.752901 0.591604 1
-0.17178 0.115372 -1.36839 -0.170909 -0.782816 0.598322 1
-0.172448 0.117045 -1.36743 -0.0644723 -0.7248 0.685937 1
-0.173108 0.11872 -1.36647 0.0512212 -0.419238 0.90643 1
-0.173637 0.120447 -1.36552 0.102132 -0.330748 0.938176 1
-0.174165 0.122174 -1.36457 0.113505 -0.309385 0.944138 1
-0.17459 0.123888 -1.36355 0.110175 -0.30452 0.946113 1
-0.174945 0.125593 -1.36249 0.0981997 -0.307162 0.946577 1
-0.175187 0.1273 -1.36143 -0.00364977 -0.270319 0.962764 1
-0.174788 0.129012 -1.3604 0.0151528 -0.320231 0.947218 1
-0.174388 0.130725 -1.35936 -0.0182172 -0.382074 0.923952 1
-0.173909 0.132572 -1.35868 -0.106565 -0.414067 0.903987 1
-0.173396 0.134477 -1.35816 -0.179434 -0.407182 0.895548 1
-0.172854 0.136215 -1.35739 -0.217815 -0.372736 0.902011 1
-0.172222 0.137457 -1.3559 -0.268391 -0.336598 0.90259 1
-0.171591 0.138698 -1.35441 -0.569359 -0.515373 0.640485 1
-0.171043 0.140431 -1.35358 -0.635446 -0.463093 0.617862 1
-0.170516 0.142287 -1.35291 -0.704782 -0.396548 0.588246 1
-0.170069 0.144024 -1.35201 -0.739473 -0.350003 0.575046 1
-0.169774 0.145543 -1.35068 -0.70767 -0.349384 0.614113 1
-0.169478 0.147062 -1.34935 -0.667859 -0.349765 0.656984 1
-0.169294 0.14862 -1.34805 -0.648963 -0.336242 0.682487 1
-0.169121 0.150183 -1.34675 -0.630196 -0.310225 0.711768 1
-0.168916 0.151934 -1.34584 -0.635209 -0.213681 0.742192 1
-0.168671 0.153914 -1.34541 -0.637922 -0.0180922 0.769889 1
-0.168425 0.155895 -1.34499 -0.525824 0.301188 0.795484 0.01
-0.168457 0.157339 -1.34643 -0.433908 0.580522 0.688998 1
-0.168488 0.158782 -1.34787 -0.412017 0.696131 0.587914 1
-0.168613 0.16027 -1.34926 0.349741 0.893549 0.281518 1
-0.168817 0.161795 -1.3506 -0.426333 0.773989 0.468167 1
-0.168985 0.163265 -1.35199 0.600077 0.797284 0.0651581 1
-0.16884 0.164243 -1.35377 0.433083 0.893915 0.115562 1
-0.168695 0.16522 -1.35556 0.618209 0.785903 -0.0131968 1
-0.168734 0.166514 -1.3571 -0.096002 0.979885 0.174952 1
-0.168871 0.167978 -1.35852 -0.28056 -0.100024 0.954611 1
-0.169038 0.169424 -1.35995 0.124836 0.654411 0.745763 1
-0.169324 0.170798 -1.36143 0.188376 0.771092 0.60822 1
-0.16961 0.172173 -1.36291 0.16384 0.808529 0.565188 1
-0.169886 0.173607 -1.36433 0.13689 0.830031 0.540657 1
-0.170157 0.175062 -1.36574 0.213204 0.855047 0.472693 1
-0.170442 0.176544 -1.36711 0.273501 0.816563 0.508352 1
-0.170761 0.178089 -1.36841 0.189205 0.497281 0.846707 1
-0.171079 0.179635 -1.3697 0.167689 0.446436 0.878963 1
-0.17151 0.180025 -1.37158 -0.110855 0.874268 0.472617 1
-0.17196 0.18021 -1.37356 0.130098 0.756734 0.640647 1
-0.172305 0.180406 -1.37556 -0.453866 0.814683 0.360966 1
-0.172493 0.180618 -1.37758 -1.51254e-05 0.983504 0.180888 1
-0.17268 0.18083 -1.3796 0.132618 0.984384 0.115759 1
-0.17294 0.180872 -1.38162 0.199709 0.974492 0.102376 1
-0.173204 0.180905 -1.38365 -0.458761 -0.882113 0.10684 1
-0.173454 0.180846 -1.38567 -0.371214 -0.926009 0.068615 1
-0.173691 0.180697 -1.38769 -0.315999 -0.947305 0.0525146 1
-0.173926 0.180559 -1.38971 -0.279316 -0.959035 0.0472629 1
-0.174118 0.180655 -1.39174 0.391537 0.865927 0.311237 1
-0.17431 0.180752 -1.39377 0.401631 0.833864 0.378634 1
-0.17482 0.180511 -1.39569 0.37149 0.820472 0.434535 1
-0.17554 0.180045 -1.39755 -0.0799851 0.648851 -0.7567 1
