# .PCD v0.7 - Point Cloud Data file format
# 3 115 0
# 1 37 0
# 38 94 0
# 95 115 0
VERSION 0.7
FIELDS x y z normal_x normal_y normal_z curvature
SIZE 4 4 4 4 4 4 4
TYPE F F F F F F F
COUNT 1 1 1 1 1 1 1
WIDTH 115
HEIGHT 1
VIEWPOINT 0 0 0 1 0 0 0
POINTS 115
DATA ascii
0.177295 -0.0831265 -1.64711 -0.918589 -0.393551 -0.0362194 0.01
0.176826 -0.0819643 -1.64639 -0.922924 -0.384527 -0.0187286 1
0.176274 -0.0806344 -1.64647 -0.925571 -0.378331 -0.0135987 1
0.175893 -0.0796731 -1.64747 -0.926 -0.377032 -0.0192684 1
0.175485 -0.0787315 -1.64849 -0.925985 -0.376543 -0.0276973 1
0.174904 -0.077439 -1.64822 -0.931589 -0.363354 -0.0107438 1
0.174482 -0.0762174 -1.64886 -0.933198 -0.359215 -0.0103134 1
0.173998 -0.075004 -1.64947 -0.933894 -0.357389 -0.0107639 1
0.173474 -0.0736752 -1.64967 -0.93177 -0.362871 -0.0114135 1
0.17281 -0.0724257 -1.64939 -0.92925 -0.369214 -0.0132077 1
0.172661 -0.0712301 -1.65018 -0.931333 -0.362903 -0.0303459 1
0.172119 -0.0700023 -1.65071 -0.934953 -0.351309 -0.0494498 1
0.171888 -0.0688836 -1.65159 -0.938536 -0.337829 -0.0708588 1
0.171333 -0.0677509 -1.65229 -0.941643 -0.324949 -0.0878469 1
0.171119 -0.0667007 -1.65325 -0.944437 -0.311551 -0.104755 1
0.170837 -0.0655974 -1.65414 -0.946873 -0.298654 -0.119316 1
0.170537 -0.0644442 -1.65495 -0.946735 -0.299975 -0.11708 1
0.170078 -0.0633294 -1.65574 -0.943668 -0.312615 -0.108459 1
0.169954 -0.0621649 -1.65658 -0.940226 -0.325649 -0.0996381 1
0.169872 -0.0609883 -1.65741 -0.935618 -0.340398 -0.0935284 1
0.169501 -0.0597017 -1.65794 -0.920169 -0.374879 -0.112932 1
0.169031 -0.058436 -1.65845 -0.898223 -0.416016 -0.141868 1
0.168344 -0.0569546 -1.65914 -0.876802 -0.451711 -0.164852 1
0.167492 -0.0558584 -1.65953 -0.85976 -0.474139 -0.189749 1
0.167454 -0.0547416 -1.66044 -0.861441 -0.473847 -0.182726 1
0.16686 -0.0535168 -1.66091 -0.851455 -0.485891 -0.197319 1
0.166256 -0.0524162 -1.66162 -0.847755 -0.490532 -0.201716 1
0.165962 -0.0514767 -1.66268 -0.853762 -0.485402 -0.18835 1
0.16544 -0.0504001 -1.66348 -0.854208 -0.485351 -0.186449 1
0.165161 -0.0494365 -1.66452 -0.862445 -0.475939 -0.172251 1
0.164725 -0.0483781 -1.66539 -0.86615 -0.470397 -0.168854 1
0.164138 -0.0471895 -1.66596 -0.862618 -0.472439 -0.180809 1
0.164041 -0.0462899 -1.66708 -0.873442 -0.459325 -0.161615 1
0.163894 -0.0453556 -1.66817 -0.882503 -0.447207 -0.145584 1
0.163547 -0.0444394 -1.66923 -0.889061 -0.43749 -0.134805 1
0.163366 -0.0438122 -1.67051 -0.899905 -0.421884 -0.110385 1
0.163322 -0.0435297 -1.67193 -0.916191 -0.39436 -0.0712364 1
0.162931 -0.0424918 -1.67285 -0.911535 -0.404214 -0.0755992 1
0.162659 -0.0417676 -1.67406 -0.915029 -0.398193 -0.0645358 1
0.162318 -0.0408825 -1.67515 -0.91246 -0.403806 -0.0660074 1
0.161985 -0.0400255 -1.67626 -0.907157 -0.414238 -0.0739777 1
0.161653 -0.0391782 -1.67738 -0.901381 -0.425123 -0.0823606 1
0.161576 -0.0384118 -1.6786 -0.899212 -0.427798 -0.0916881 1
0.161368 -0.0376747 -1.67982 -0.897431 -0.429663 -0.100031 1
0.161212 -0.037069 -1.68112 -0.896564 -0.429925 -0.106478 1
0.161196 -0.0365964 -1.68248 -0.89638 -0.429017 -0.111563 1
0.16107 -0.0360445 -1.68381 -0.894398 -0.431377 -0.118177 1
0.161328 -0.0361667 -1.68522 -0.893794 -0.42986 -0.127878 1
0.161186 -0.0355776 -1.68653 -0.889586 -0.435204 -0.138686 1
0.160925 -0.0348212 -1.68773 -0.883818 -0.443102 -0.150087 1
0.161203 -0.0345865 -1.68912 -0.890836 -0.431168 -0.143197 1
0.16107 -0.033953 -1.69041 -0.893443 -0.428589 -0.134432 1
0.16087 -0.0331927 -1.69162 -0.894947 -0.427714 -0.127004 1
0.160749 -0.0326094 -1.69293 -0.899286 -0.421692 -0.116025 1
0.16058 -0.0319662 -1.69421 -0.900848 -0.419449 -0.111963 1
0.159922 -0.0307321 -1.69456 -0.891692 -0.435552 -0.123209 1
0.160092 -0.0302828 -1.69592 -0.893989 -0.431091 -0.122248 1
0.160499 -0.0309435 -1.69714 -0.893731 -0.427302 -0.136593 1
0.160766 -0.0309664 -1.69855 -0.890674 -0.426625 -0.157137 0.01
0.161432 -0.0321939 -1.69819 -0.899312 -0.412081 -0.146378 1
0.161933 -0.0334932 -1.69782 -0.90583 -0.400941 -0.136813 1
0.162066 -0.0347494 -1.69713 -0.909739 -0.395168 -0.127348 1
0.16258 -0.0357896 -1.69627 -0.912639 -0.391283 -0.118272 1
0.163061 -0.036939 -1.69555 -0.915315 -0.387483 -0.109799 1
0.163375 -0.0381632 -1.69485 -0.917525 -0.384597 -0.101159 1
0.16375 -0.039216 -1.69394 -0.918493 -0.384523 -0.0922663 1
0.164104 -0.0403318 -1.6931 -0.919544 -0.382496 -0.0901993 1
0.164477 -0.0416344 -1.69261 -0.921917 -0.377682 -0.0861701 1
0.164973 -0.0426664 -1.69173 -0.921715 -0.377661 -0.0883966 1
0.165678 -0.0435408 -1.69083 -0.920596 -0.379313 -0.092866 1
0.165842 -0.0449187 -1.69044 -0.91882 -0.382952 -0.0954854 1
0.166167 -0.0462065 -1.68987 -0.916307 -0.387938 -0.0994278 1
0.166629 -0.0475716 -1.68983 -0.913952 -0.393746 -0.0982602 1
0.16702 -0.0488066 -1.6892 -0.9113 -0.398379 -0.104045 1
0.16767 -0.0498788 -1.68849 -0.90904 -0.401508 -0.111524 1
0.167932 -0.0510413 -1.68768 -0.906851 -0.403991 -0.120056 1
0.168102 -0.0515315 -1.68633 -0.905706 -0.403473 -0.130024 1
0.168551 -0.05271 -1.68563 -0.904081 -0.405261 -0.135654 1
0.16891 -0.0537879 -1.68475 -0.902933 -0.405909 -0.141242 1
0.16918 -0.0546436 -1.68362 -0.903467 -0.40408 -0.143062 1
0.169676 -0.0558645 -1.68303 -0.90126 -0.407136 -0.148229 1
0.170224 -0.0571282 -1.68261 -0.897912 -0.41155 -0.156142 1
0.170811 -0.0584122 -1.68231 -0.896889 -0.412212 -0.160223 1
0.171123 -0.0595085 -1.68143 -0.897941 -0.409433 -0.161449 1
0.171135 -0.0604363 -1.68033 -0.899379 -0.406701 -0.160345 1
0.171704 -0.0617546 -1.6802 -0.90226 -0.400492 -0.159789 1
0.172141 -0.0628444 -1.67936 -0.903472 -0.397667 -0.159999 1
0.172284 -0.0638122 -1.6783 -0.905033 -0.396276 -0.154533 1
0.172554 -0.0647529 -1.67724 -0.907475 -0.393474 -0.147195 1
0.173008 -0.0659718 -1.67662 -0.90508 -0.397403 -0.151332 1
0.173297 -0.0670118 -1.67567 -0.905702 -0.39718 -0.148161 1
0.173743 -0.0682395 -1.67506 -0.901376 -0.404271 -0.155198 1
0.174221 -0.0695153 -1.67458 -0.895336 -0.413819 -0.164702 1
0.17471 -0.0706037 -1.67377 -0.892076 -0.420465 -0.16556 1
0.175248 -0.07189 -1.67341 -0.885641 -0.431157 -0.172463 1
0.175665 -0.0731159 -1.67277 -0.883258 -0.435826 -0.172949 1
0.176143 -0.074143 -1.67188 -0.884543 -0.435401 -0.167362 1
0.176024 -0.0749932 -1.67072 -0.888443 -0.432547 -0.153534 1
0.176073 -0.0752535 -1.66931 -0.892004 -0.430912 -0.136541 1
0.176155 -0.0756923 -1.66794 -0.894629 -0.428801 -0.125572 1
0.176207 -0.0762808 -1.66662 -0.89558 -0.427638 -0.122726 1
0.176234 -0.0766582 -1.66523 -0.897267 -0.424487 -0.12134 1
0.176378 -0.0772876 -1.66394 -0.897958 -0.423655 -0.119115 1
0.176196 -0.0776092 -1.66255 -0.900746 -0.419056 -0.114232 1
0.176413 -0.0783113 -1.66131 -0.899582 -0.421757 -0.113461 1
0.176663 -0.0789759 -1.66005 -0.898652 -0.424107 -0.112066 1
0.176435 -0.0789289 -1.65863 -0.906232 -0.411062 -0.09885 1
0.176242 -0.0789877 -1.6572 -0.91208 -0.400307 -0.0886744 1
0.176491 -0.0798852 -1.6561 -0.910119 -0.404573 -0.0894686 1
0.176861 -0.0810081 -1.65528 -0.906667 -0.411567 -0.092556 1
0.177132 -0.0812781 -1.65389 -0.908422 -0.40869 -0.0879874 1
0.177047 -0.081915 -1.65259 -0.909074 -0.408115 -0.0838208 1
0.177098 -0.0819925 -1.65116 -0.911115 -0.405116 -0.075828 1
0.176915 -0.0820419 -1.64973 -0.913887 -0.400925 -0.063797 1
0.176942 -0.08253 -1.64837 -0.916501 -0.396948 -0.0495839 1
