# .PCD v0.7 - Point Cloud Data file format
# 5 154 0
# 1 20 0
# 21 47 0
# 48 101 0
# 102 136 0
# 137 154 0
VERSION 0.7
FIELDS x y z normal_x normal_y normal_z curvature
SIZE 4 4 4 4 4 4 4
TYPE F F F F F F F
COUNT 1 1 1 1 1 1 1
WIDTH 154
HEIGHT 1
VIEWPOINT 0 0 0 1 0 0 0
POINTS 154
DATA ascii
0.279614 -0.159146 -1.6523 -0.978116 0.0185913 -0.207227 0.01
0.279058 -0.159266 -1.65056 -0.985564 0.026404 -0.167232 1
0.278792 -0.160252 -1.64903 -0.989168 0.0394598 -0.141384 1
0.278648 -0.16039 -1.6472 -0.992288 0.039381 -0.117535 1
0.278338 -0.16075 -1.64542 -0.994106 0.0384015 -0.101385 1
0.278276 -0.160226 -1.64366 -0.993265 0.0352526 -0.110369 1
0.278025 -0.159942 -1.64187 -0.9909 0.0360469 -0.129682 1
0.277782 -0.159672 -1.64006 -0.987904 0.0353724 -0.150981 1
0.27737 -0.160066 -1.63832 -0.984008 0.0461167 -0.172049 1
0.277008 -0.160417 -1.63655 -0.98003 0.0585741 -0.190025 1
0.276473 -0.161241 -1.635 -0.975161 0.0833622 -0.205209 1
0.276674 -0.16104 -1.63318 -0.973795 0.0931354 -0.207484 1
0.276464 -0.160941 -1.63136 -0.974232 0.112753 -0.195345 1
0.275528 -0.161306 -1.62982 -0.97748 0.13412 -0.162923 1
0.27537 -0.161897 -1.62809 -0.978613 0.154588 -0.135718 1
0.275627 -0.162901 -1.62657 -0.977727 0.17266 -0.119329 1
0.275135 -0.162241 -1.62492 -0.981263 0.15683 -0.111921 1
0.275186 -0.162533 -1.62311 -0.9819 0.154473 -0.109592 1
0.274692 -0.162513 -1.62134 -0.982522 0.146562 -0.114764 1
0.274146 -0.164144 -1.62006 -0.981071 0.157371 -0.112843 1
0.273909 -0.164478 -1.61827 -0.979724 0.153833 -0.128357 1
0.27384 -0.163939 -1.61652 -0.979013 0.143282 -0.14493 1
0.273412 -0.163702 -1.61474 -0.977632 0.137485 -0.159165 1
0.272975 -0.16377 -1.61296 -0.975689 0.136345 -0.171583 1
0.272659 -0.16384 -1.61115 -0.973593 0.136601 -0.182912 1
0.272038 -0.164814 -1.60972 -0.970264 0.14734 -0.192039 1
0.272061 -0.164717 -1.60789 -0.968197 0.148233 -0.201549 1
0.271687 -0.164095 -1.6062 -0.967693 0.144204 -0.206821 1
0.27163 -0.163124 -1.60464 -0.967988 0.134526 -0.211901 1
0.271272 -0.162747 -1.60288 -0.967016 0.129601 -0.219279 1
0.271023 -0.161857 -1.60129 -0.966675 0.120127 -0.226071 1
0.270823 -0.160865 -1.59975 -0.966479 0.110502 -0.23175 1
0.27034 -0.160601 -1.598 -0.965004 0.110067 -0.23802 1
0.269798 -0.160577 -1.59624 -0.963247 0.113027 -0.243681 1
0.269412 -0.160184 -1.59449 -0.962277 0.113605 -0.247219 1
0.268999 -0.159798 -1.59274 -0.96154 0.114683 -0.249576 1
0.2688 -0.158707 -1.59128 -0.96255 0.106095 -0.24948 1
0.26837 -0.158011 -1.58963 -0.963159 0.103232 -0.24833 1
0.268277 -0.156479 -1.58862 -0.966021 0.0879653 -0.243033 0.01
0.268094 -0.154951 -1.58761 -0.968948 0.0718174 -0.236607 1
0.268097 -0.153127 -1.58739 -0.971719 0.048593 -0.231087 1
0.268187 -0.151293 -1.58747 -0.973301 0.0228153 -0.228396 1
0.268349 -0.14952 -1.58792 -0.973149 -0.00503682 -0.230122 1
0.268294 -0.147709 -1.58761 -0.972064 -0.0321205 -0.232508 1
0.268281 -0.145903 -1.58727 -0.969891 -0.057123 -0.236745 1
0.267987 -0.144222 -1.58659 -0.966923 -0.0803532 -0.242083 1
0.267526 -0.142582 -1.5859 -0.963074 -0.102467 -0.248975 1
0.267402 -0.140761 -1.58612 -0.959119 -0.112591 -0.259643 1
0.267162 -0.138953 -1.58635 -0.96293 -0.0840195 -0.256333 1
0.266822 -0.137148 -1.5864 -0.965992 -0.050255 -0.253641 1
0.26659 -0.135329 -1.58628 -0.968 -0.0145216 -0.250528 1
0.266942 -0.133588 -1.58581 -0.969473 0.0193862 -0.24443 1
0.266706 -0.132069 -1.5848 -0.972627 0.0489758 -0.227152 1
0.266601 -0.130353 -1.58415 -0.973231 0.0676453 -0.21965 1
0.266683 -0.12859 -1.58364 -0.971421 0.0566949 -0.230492 1
0.266894 -0.126765 -1.58369 -0.968845 0.0478002 -0.24301 1
0.26644 -0.125087 -1.5831 -0.967256 0.0338489 -0.251534 1
0.266799 -0.123338 -1.58353 -0.965898 0.024507 -0.25776 1
0.267142 -0.121597 -1.58401 -0.96682 0.0125952 -0.255148 1
0.267434 -0.119838 -1.58446 -0.96768 0.00144867 -0.252179 1
0.267094 -0.118145 -1.58383 -0.965626 -0.00953243 -0.25976 1
0.266964 -0.116348 -1.58347 -0.964321 -0.0191622 -0.264042 1
0.266741 -0.114584 -1.58301 -0.962555 -0.0266818 -0.269771 1
0.266336 -0.113083 -1.58202 -0.959015 -0.0320634 -0.281534 1
0.266401 -0.111264 -1.58228 -0.958855 -0.0342823 -0.281819 1
0.266647 -0.10968 -1.58318 -0.960599 -0.0293926 -0.27638 0.01
0.266895 -0.108168 -1.58419 -0.962769 -0.0176646 -0.269746 1
0.26725 -0.107335 -1.58579 -0.967709 -0.00349866 -0.252047 1
0.267572 -0.106488 -1.58739 -0.974127 0.00338095 -0.225977 1
0.268062 -0.105964 -1.58908 -0.977796 -0.00508412 -0.209496 1
0.268447 -0.105187 -1.5907 -0.97817 -0.0214694 -0.206692 1
0.268888 -0.104172 -1.59217 -0.976424 -0.0482716 -0.210396 1
0.26919 -0.103377 -1.5938 -0.971315 -0.0801728 -0.223874 1
0.269654 -0.102613 -1.59541 -0.963079 -0.115575 -0.243147 1
0.270029 -0.1018 -1.59701 -0.951347 -0.154528 -0.266569 1
0.270286 -0.100987 -1.59864 -0.935781 -0.186647 -0.299127 1
0.270698 -0.100446 -1.60035 -0.921057 -0.20518 -0.330991 1
0.271246 -0.100336 -1.6021 -0.911305 -0.20249 -0.358498 1
0.271356 -0.099542 -1.60375 -0.896972 -0.225429 -0.380295 1
0.27185 -0.0992624 -1.6055 -0.890301 -0.220239 -0.398572 1
0.271919 -0.0983583 -1.6071 -0.875341 -0.245136 -0.416758 1
0.272372 -0.0985645 -1.60887 -0.882613 -0.207625 -0.421765 1
0.272569 -0.0982587 -1.61067 -0.888969 -0.195083 -0.414339 1
0.273087 -0.0968563 -1.61174 -0.871537 -0.246343 -0.423956 1
0.273802 -0.0954078 -1.61262 -0.854779 -0.287593 -0.432023 1
0.274179 -0.0937799 -1.61338 -0.83207 -0.332518 -0.44395 1
0.275427 -0.0937091 -1.61473 -0.859205 -0.290978 -0.420831 1
0.275958 -0.0927143 -1.61618 -0.862901 -0.292276 -0.412282 1
0.276458 -0.0918586 -1.61773 -0.873436 -0.282657 -0.396504 1
0.276735 -0.090786 -1.61919 -0.882709 -0.295567 -0.365329 1
0.276932 -0.0905163 -1.621 -0.913239 -0.274389 -0.301174 1
0.276873 -0.0897748 -1.62268 -0.928383 -0.276239 -0.24859 1
0.276718 -0.0890097 -1.62435 -0.940313 -0.278864 -0.195054 1
0.276662 -0.0885333 -1.62612 -0.956167 -0.263899 -0.126891 1
0.277065 -0.0880768 -1.62785 -0.968149 -0.243751 -0.0572095 1
0.277176 -0.0878375 -1.62967 -0.979933 -0.197605 -0.0261471 1
0.277846 -0.0881951 -1.63135 -0.994309 -0.104877 -0.0187114 1
0.278178 -0.0884802 -1.63313 -0.999509 -0.00631964 -0.0306808 1
0.277873 -0.0883954 -1.63494 -0.99488 0.0746669 -0.0681091 1
0.277621 -0.0888513 -1.63671 -0.982863 0.155255 -0.0993836 1
0.278737 -0.0884133 -1.6381 -0.969863 0.181502 -0.162551 1
0.27746 -0.0884548 -1.63942 -0.963074 0.187743 -0.192979 1
0.277921 -0.0887503 -1.64117 -0.94959 0.21089 -0.231955 1
0.279605 -0.0892011 -1.64175 -0.941587 0.229274 -0.246672 1
0.27947 -0.0889573 -1.64357 -0.924079 0.275221 -0.265202 1
0.279958 -0.0895151 -1.64525 -0.917029 0.300633 -0.262063 1
0.280431 -0.0901411 -1.64692 -0.910464 0.327271 -0.25288 1
0.279908 -0.090748 -1.64857 -0.910588 0.341633 -0.232628 1
0.28021 -0.0915612 -1.65019 -0.905891 0.366506 -0.212216 1
0.280387 -0.092323 -1.65185 -0.912162 0.344504 -0.221988 1
0.281018 -0.0921751 -1.65357 -0.891932 0.378786 -0.246937 1
0.281085 -0.0932183 -1.65508 -0.90643 0.336433 -0.255339 1
0.280155 -0.0933349 -1.65667 -0.908961 0.325895 -0.259966 1
0.281273 -0.0941588 -1.65787 -0.910637 0.323438 -0.257155 1
0.281352 -0.0950754 -1.65946 -0.924469 0.303631 -0.230575 1
0.281425 -0.096453 -1.66068 -0.951491 0.252288 -0.176111 1
0.281468 -0.0978005 -1.66192 -0.974688 0.184693 -0.125981 1
0.281376 -0.0990762 -1.66324 -0.987886 0.118458 -0.100242 1
0.28127 -0.100627 -1.66423 -0.993171 0.0488743 -0.105938 1
0.280611 -0.101982 -1.66528 -0.990836 0.00307365 -0.135035 0.01
0.280912 -0.103786 -1.66546 -0.985204 -0.0147037 -0.170753 1
0.281428 -0.105549 -1.66553 -0.978679 -0.0120199 -0.205046 1
0.281635 -0.107359 -1.66577 -0.970113 -0.0214605 -0.241701 1
0.281834 -0.109054 -1.66508 -0.969173 -0.0273763 -0.244855 1
0.281308 -0.110792 -1.6648 -0.966029 -0.0428471 -0.254856 1
0.281248 -0.112542 -1.66424 -0.963853 -0.0588923 -0.259843 1
0.281298 -0.114372 -1.66408 -0.955806 -0.0811541 -0.282576 1
0.281316 -0.116207 -1.66397 -0.945132 -0.0994513 -0.311184 1
0.280912 -0.117985 -1.66374 -0.936071 -0.107598 -0.334952 1
0.281525 -0.119626 -1.66319 -0.921839 -0.123909 -0.367233 1
0.281533 -0.121206 -1.66225 -0.916347 -0.125991 -0.380046 1
0.282144 -0.122881 -1.6618 -0.891421 -0.168963 -0.4205 1
0.281404 -0.124327 -1.66094 -0.898607 -0.181351 -0.39952 1
0.280416 -0.125563 -1.66001 -0.912439 -0.180412 -0.367296 1
0.279313 -0.126828 -1.65926 -0.920866 -0.182069 -0.344756 1
0.279295 -0.1284 -1.65831 -0.916766 -0.198265 -0.346744 1
0.279779 -0.129937 -1.65742 -0.906874 -0.209917 -0.365397 1
0.281098 -0.131216 -1.65746 -0.858528 -0.249428 -0.448013 1
0.281214 -0.132849 -1.65662 -0.853348 -0.211054 -0.476711 1
0.280999 -0.13465 -1.65633 -0.865948 -0.0872741 -0.49246 1
0.281082 -0.136038 -1.65513 -0.898097 -0.0138727 -0.439578 1
0.280604 -0.137811 -1.65504 -0.907646 0.0466969 -0.417132 1
0.279729 -0.139392 -1.65538 -0.913162 0.0822868 -0.399205 1
0.281238 -0.140419 -1.65516 -0.908715 0.100518 -0.405134 1
0.280466 -0.142031 -1.65473 -0.931193 0.0996371 -0.350646 1
0.280253 -0.143852 -1.6546 -0.945671 0.0913259 -0.312035 1
0.279586 -0.145564 -1.65463 -0.958451 0.0705855 -0.276385 1
0.279631 -0.147377 -1.65434 -0.967405 0.0261442 -0.251881 1
0.280089 -0.14907 -1.65379 -0.974967 -0.0087076 -0.222179 1
0.279774 -0.15066 -1.65292 -0.983958 -0.0346552 -0.175001 1
0.279595 -0.152384 -1.65231 -0.985515 -0.0349862 -0.165938 1
0.279856 -0.154097 -1.65292 -0.98105 -0.0327119 -0.190974 1
0.279992 -0.155819 -1.65355 -0.975368 -0.0251904 -0.21914 1
0.279844 -0.157638 -1.65333 -0.974116 -0.00520298 -0.225987 1
