# .PCD v0.7 - Point Cloud Data file format
# 2 30 0
# 1 26 0
# 27 30 0
VERSION 0.7
FIELDS x y z normal_x normal_y normal_z curvature
SIZE 4 4 4 4 4 4 4
TYPE F F F F F F F
COUNT 1 1 1 1 1 1 1
WIDTH 30
HEIGHT 1
VIEWPOINT 0 0 0 1 0 0 0
POINTS 30
DATA ascii
0.169694 0.0611715 -1.38189 -0.431357 0.564544 0.703719 0.01
0.169643 0.0607843 -1.38143 -0.430174 0.559289 0.708623 1
0.169979 0.0613562 -1.38094 -0.577595 0.467535 0.669175 1
0.170315 0.0619281 -1.38046 0.200095 -0.24883 -0.947653 1
0.170651 0.0625 -1.37998 0.198171 -0.267234 -0.943035 1
0.176449 0.0779646 -1.39109 -0.322402 0.459195 0.827766 1
0.176058 0.0773062 -1.3908 -0.339289 0.478009 0.810179 1
0.175667 0.0766477 -1.3905 -0.360326 0.500815 0.786987 1
0.175276 0.0759893 -1.39021 -0.904301 0.402037 -0.14355 1
0.174889 0.075341 -1.38989 -0.74596 0.562664 -0.356303 1
0.174504 0.0746957 -1.38956 -0.809531 0.566509 -0.154037 1
0.174119 0.0740504 -1.38924 -0.301508 0.430097 0.850946 1
0.173823 0.073351 -1.38894 -0.790205 0.47676 0.385066 1
0.173598 0.0726083 -1.38868 -0.781408 0.527592 0.33324 1
0.173373 0.0718656 -1.38842 -0.745858 0.517009 0.419996 1
0.173128 0.0711385 -1.38813 -0.712803 0.511127 0.480272 1
0.172845 0.0704427 -1.3878 -0.684487 0.509213 0.521708 1
0.172563 0.0697468 -1.38747 -0.663357 0.510383 0.547235 1
0.17228 0.0690563 -1.38714 -0.646871 0.513367 0.563926 1
0.172002 0.0684083 -1.38672 -0.627707 0.517368 0.581648 1
0.171724 0.0677603 -1.3863 -0.589894 0.461158 0.662841 1
0.171447 0.0671123 -1.38588 -0.587572 0.470601 0.65825 1
0.171204 0.0664551 -1.38546 -0.613607 0.496257 0.614179 1
0.170967 0.0657967 -1.38503 -0.584889 0.482557 0.651954 1
0.170729 0.0651383 -1.3846 -0.609155 0.482738 0.629202 1
0.170534 0.0644779 -1.38416 -0.436967 0.591338 0.677775 1
0.17036 0.0638166 -1.38371 -0.604163 0.471772 0.642198 1
0.170187 0.0631552 -1.38325 -0.587452 0.488335 0.645313 1
0.170018 0.0624939 -1.3828 -0.602707 0.463737 0.649379 1
0.169856 0.0618327 -1.38234 -0.432115 0.571249 0.697819 1
