# .PCD v0.7 - Point Cloud Data file format
# 4 189 0
# 1 13 0
# 14 52 0
# 53 121 0
# 122 189 0
VERSION 0.7
FIELDS x y z normal_x normal_y normal_z curvature
SIZE 4 4 4 4 4 4 4
TYPE F F F F F F F
COUNT 1 1 1 1 1 1 1
WIDTH 189
HEIGHT 1
VIEWPOINT 0 0 0 1 0 0 0
POINTS 189
DATA ascii
-0.165317 0.126757 -1.33638 0.735643 0.32237 -0.59574 0.01
-0.1661 0.126183 -1.33732 0.742663 0.316272 -0.590275 1
-0.166869 0.125926 -1.33839 0.748706 0.316666 -0.582377 1
-0.167749 0.126331 -1.33933 0.748526 0.331438 -0.574332 1
-0.168561 0.126438 -1.34039 0.752634 0.337743 -0.565218 1
-0.169292 0.126375 -1.34152 0.758192 0.342916 -0.554574 1
-0.170138 0.126518 -1.34256 0.763295 0.349643 -0.54326 1
-0.170978 0.126694 -1.3436 0.769005 0.356456 -0.530633 1
-0.171905 0.126964 -1.34453 0.774877 0.363111 -0.517413 1
-0.172712 0.127816 -1.3452 0.778566 0.365975 -0.509802 1
-0.173482 0.128139 -1.34625 0.781496 0.372626 -0.500413 1
-0.174215 0.12851 -1.34732 0.783114 0.377932 -0.493862 1
-0.175077 0.129212 -1.34808 0.784511 0.377369 -0.492073 1
-0.175947 0.129873 -1.34886 0.786547 0.375494 -0.490253 1
-0.176719 0.130183 -1.34992 0.788546 0.376778 -0.486039 1
-0.177466 0.130482 -1.351 0.790398 0.37705 -0.482809 1
-0.17819 0.130949 -1.35203 0.792525 0.374633 -0.481201 1
-0.179061 0.131831 -1.35256 0.795846 0.366593 -0.481911 1
-0.179871 0.132767 -1.35309 0.798926 0.358568 -0.482853 1
-0.180643 0.133751 -1.35359 0.800343 0.35157 -0.485644 1
-0.181389 0.134592 -1.35433 0.801014 0.347433 -0.487511 1
-0.182107 0.135689 -1.35463 0.801587 0.341781 -0.490554 1
-0.182803 0.136821 -1.35485 0.801401 0.337114 -0.494076 1
-0.183549 0.137714 -1.35553 0.800753 0.336842 -0.49531 1
-0.184306 0.13857 -1.35624 0.799786 0.338388 -0.495819 1
-0.18508 0.139231 -1.35712 0.798938 0.342072 -0.494656 1
-0.185848 0.139749 -1.3581 0.798322 0.346561 -0.492522 1
-0.186677 0.140591 -1.35874 0.796442 0.352389 -0.491429 1
-0.187438 0.141326 -1.35957 0.794656 0.359725 -0.488998 1
-0.188199 0.142071 -1.3604 0.794254 0.366693 -0.484455 1
-0.189057 0.142817 -1.36112 0.794421 0.372743 -0.479538 1
-0.18988 0.143514 -1.36192 0.79629 0.372346 -0.476739 1
-0.190716 0.144088 -1.36281 0.799497 0.366149 -0.476171 1
-0.191573 0.144663 -1.36368 0.803434 0.356712 -0.476708 1
-0.192217 0.144998 -1.36481 0.805668 0.35329 -0.475483 1
-0.193007 0.145364 -1.36584 0.808418 0.344848 -0.477012 1
-0.193849 0.145747 -1.36681 0.811466 0.332592 -0.480527 1
-0.194608 0.145998 -1.3679 0.812883 0.320296 -0.486447 1
-0.19539 0.146267 -1.36896 0.818151 0.304586 -0.487704 1
-0.196076 0.146424 -1.37011 0.82229 0.294053 -0.487208 1
-0.196736 0.146555 -1.37127 0.826465 0.286634 -0.484558 1
-0.197477 0.146886 -1.37235 0.832314 0.275936 -0.480741 1
-0.198243 0.147186 -1.37341 0.838047 0.2668 -0.475915 1
-0.198981 0.147621 -1.37445 0.844439 0.255216 -0.470944 1
-0.199502 0.147738 -1.37569 0.848907 0.254241 -0.463377 1
-0.2003 0.147782 -1.37677 0.853623 0.253306 -0.455153 1
-0.200792 0.147521 -1.378 0.856498 0.261013 -0.44529 1
-0.201455 0.148442 -1.37872 0.865103 0.239006 -0.440991 1
-0.202144 0.148725 -1.37984 0.872036 0.23285 -0.430504 1
-0.202679 0.148413 -1.38104 0.876182 0.240537 -0.417668 1
-0.203233 0.148169 -1.38224 0.880897 0.244778 -0.405099 1
-0.203633 0.147635 -1.38341 0.883818 0.252829 -0.393628 1
-0.204342 0.148324 -1.38432 0.892345 0.238322 -0.383306 1
-0.205037 0.148733 -1.3854 0.900038 0.228559 -0.371069 1
-0.205659 0.149358 -1.38642 0.908036 0.216042 -0.358882 1
-0.206125 0.150401 -1.38713 0.915547 0.199291 -0.349367 1
-0.206528 0.151214 -1.38813 0.920585 0.189649 -0.341404 1
-0.206902 0.152038 -1.38912 0.921005 0.185935 -0.342313 1
-0.207243 0.152749 -1.39021 0.92131 0.184733 -0.342143 1
-0.207605 0.15395 -1.3907 0.921127 0.178942 -0.345694 1
-0.208125 0.154922 -1.39148 0.920824 0.177655 -0.347163 1
-0.208702 0.155946 -1.39213 0.920158 0.177098 -0.349207 1
-0.209185 0.15695 -1.39289 0.919379 0.178577 -0.350502 1
-0.209721 0.158052 -1.39344 0.91798 0.180106 -0.353377 1
-0.210143 0.159202 -1.394 0.916342 0.185867 -0.354642 1
-0.210585 0.160193 -1.3948 0.915606 0.191822 -0.353368 1
-0.211 0.161339 -1.39537 0.919768 0.191769 -0.342421 1
-0.211406 0.16259 -1.39566 0.922765 0.18923 -0.335704 1
-0.21153 0.163892 -1.39534 0.923115 0.186211 -0.33643 1
-0.212779 0.167268 -1.39744 0.937974 0.16406 -0.305432 1
-0.213109 0.168509 -1.39784 0.941513 0.154599 -0.29942 1
-0.213366 0.169726 -1.39836 0.944865 0.14394 -0.29413 1
-0.213678 0.171033 -1.39845 0.946926 0.133953 -0.292213 1
-0.213821 0.172363 -1.39829 0.947842 0.125439 -0.293018 1
-0.213985 0.173694 -1.39818 0.948393 0.118485 -0.294129 1
-0.214249 0.17498 -1.39848 0.949386 0.114159 -0.292633 1
-0.21445 0.176286 -1.39874 0.949629 0.112412 -0.292521 1
-0.214529 0.177576 -1.39836 0.947715 0.118311 -0.296375 1
-0.214723 0.178644 -1.39756 0.944227 0.124121 -0.305008 1
-0.214791 0.179969 -1.39779 0.94145 0.136522 -0.308276 1
-0.214932 0.181126 -1.39712 0.935982 0.144497 -0.321026 1
-0.215019 0.182448 -1.39736 0.930816 0.160778 -0.328226 0.01
-0.214987 0.182985 -1.39612 0.925371 0.155647 -0.345634 1
-0.214472 0.183215 -1.3949 0.921393 0.142529 -0.361553 1
-0.213964 0.18352 -1.39369 0.916997 0.125434 -0.378658 1
-0.213401 0.184089 -1.39261 0.91172 0.110623 -0.395639 1
-0.213298 0.185015 -1.39164 0.905434 0.0998461 -0.412577 1
-0.212802 0.185393 -1.39044 0.901796 0.0854418 -0.423632 1
-0.212273 0.185641 -1.38923 0.899356 0.0717236 -0.431293 1
-0.211681 0.186154 -1.38814 0.896709 0.0594197 -0.438614 1
-0.21105 0.186486 -1.387 0.895783 0.0474972 -0.441946 1
-0.210568 0.186863 -1.3858 0.895911 0.0363285 -0.442746 1
-0.210302 0.187756 -1.38482 0.895516 0.0305558 -0.443979 1
-0.209673 0.188439 -1.38385 0.897034 0.0240734 -0.441306 1
-0.20908 0.188958 -1.38276 0.899362 0.0161756 -0.436905 1
-0.208688 0.189748 -1.38174 0.895469 0.0144699 -0.444889 1
-0.208127 0.190259 -1.38063 0.890439 0.0129174 -0.45492 1
-0.207436 0.190626 -1.37953 0.884835 0.0108105 -0.465779 1
-0.206771 0.190977 -1.37842 0.87879 0.00769604 -0.477147 1
-0.206216 0.191572 -1.37734 0.872062 0.000592578 -0.489395 1
-0.205689 0.192267 -1.37632 0.864268 -0.0125163 -0.502876 1
-0.205085 0.192855 -1.37527 0.856262 -0.025296 -0.515923 1
-0.20446 0.192616 -1.3741 0.850125 -0.0289606 -0.525785 1
-0.204024 0.193551 -1.37324 0.84267 -0.044927 -0.536553 1
-0.203257 0.193288 -1.37216 0.837267 -0.0473173 -0.544743 1
-0.20246 0.193126 -1.37109 0.831907 -0.0501945 -0.55264 1
-0.201807 0.193792 -1.37012 0.826139 -0.062794 -0.559957 1
-0.200889 0.193526 -1.36917 0.824132 -0.0644872 -0.562714 1
-0.200049 0.193479 -1.36812 0.821682 -0.0684308 -0.565823 1
-0.199412 0.194363 -1.36733 0.817903 -0.0823304 -0.569435 1
-0.198846 0.195181 -1.36642 0.822483 -0.0600179 -0.565615 1
-0.198134 0.195687 -1.3654 0.824919 -0.0409996 -0.563762 1
-0.197451 0.196164 -1.36434 0.825554 -0.0264992 -0.563701 1
-0.196775 0.196351 -1.36319 0.824297 -0.0202653 -0.565795 1
-0.196039 0.196094 -1.36209 0.821946 -0.0233516 -0.569087 1
-0.195315 0.196529 -1.36104 0.819075 -0.0176128 -0.573416 1
-0.1946 0.197024 -1.36002 0.814548 -0.0138173 -0.579932 1
-0.193807 0.19728 -1.35896 0.808551 -0.0160586 -0.588207 1
-0.193014 0.197254 -1.35787 0.802151 -0.0240447 -0.596637 1
-0.192128 0.197145 -1.35686 0.795397 -0.0344309 -0.60511 1
-0.191263 0.197069 -1.35584 0.787871 -0.0458985 -0.614128 0.01
-0.190375 0.196979 -1.35483 0.779843 -0.0586791 -0.623219 1
-0.189766 0.196204 -1.35391 0.777075 -0.0741049 -0.625031 1
-0.189401 0.195209 -1.35308 0.777154 -0.0869716 -0.623272 1
-0.188774 0.194385 -1.35222 0.77514 -0.099155 -0.62396 1
-0.188147 0.193594 -1.35133 0.772946 -0.110207 -0.624827 1
-0.187349 0.193032 -1.3504 0.769826 -0.122432 -0.626402 1
-0.186614 0.192371 -1.34949 0.769252 -0.134663 -0.624594 1
-0.18606 0.19154 -1.34859 0.77069 -0.144432 -0.620626 1
-0.185658 0.190617 -1.34769 0.773692 -0.15127 -0.615238 1
-0.185258 0.189666 -1.34683 0.77739 -0.155788 -0.609421 1
-0.184562 0.189072 -1.34584 0.776986 -0.165148 -0.607469 1
-0.183848 0.188498 -1.34485 0.776425 -0.174391 -0.6056 1
-0.183126 0.187917 -1.34388 0.775988 -0.183156 -0.60357 1
-0.182442 0.187199 -1.34297 0.777577 -0.188264 -0.599942 1
-0.182101 0.186262 -1.34206 0.778339 -0.180263 -0.60141 1
-0.181605 0.185405 -1.34115 0.768374 -0.165942 -0.618113 1
-0.180744 0.184967 -1.34021 0.749645 -0.163961 -0.64121 1
-0.180074 0.184299 -1.33925 0.734411 -0.152462 -0.661359 1
-0.179522 0.18348 -1.33834 0.722008 -0.134048 -0.678775 1
-0.178676 0.182977 -1.33742 0.701829 -0.127941 -0.700762 1
-0.17788 0.1823 -1.33657 0.683684 -0.116166 -0.720473 1
-0.17718 0.181493 -1.33575 0.667216 -0.10165 -0.737895 1
-0.176386 0.180785 -1.33493 0.647048 -0.0934479 -0.756701 1
-0.175714 0.179946 -1.33412 0.656101 -0.0954701 -0.74861 1
-0.175053 0.179095 -1.33331 0.667297 -0.102277 -0.737736 1
-0.174552 0.178046 -1.33263 0.685616 -0.0918905 -0.722141 1
-0.173615 0.177463 -1.33186 0.693558 -0.10285 -0.713021 1
-0.172794 0.176709 -1.33111 0.706353 -0.102266 -0.700434 1
-0.172095 0.175816 -1.33038 0.723102 -0.0895812 -0.684908 1
-0.171658 0.17474 -1.3297 0.743849 -0.0586738 -0.665767 1
-0.171099 0.173722 -1.32902 0.761887 -0.0292593 -0.647049 1
-0.170623 0.172623 -1.3284 0.779241 0.0103308 -0.62664 1
-0.1702 0.171488 -1.32782 0.785944 0.0581701 -0.615556 1
-0.169595 0.170388 -1.32733 0.781293 0.107739 -0.614796 1
-0.169424 0.169078 -1.32707 0.782143 0.170539 -0.599307 1
-0.169946 0.168099 -1.32783 0.788042 0.217497 -0.575921 1
-0.169664 0.166787 -1.32772 0.77862 0.181684 -0.600618 1
-0.169691 0.165499 -1.32811 0.768402 0.135602 -0.625436 1
-0.169251 0.164265 -1.3278 0.759435 0.10766 -0.641613 1
-0.168753 0.16303 -1.32761 0.750793 0.079552 -0.65573 1
-0.168332 0.161754 -1.32753 0.741292 0.0506653 -0.669267 1
-0.168155 0.16042 -1.32759 0.72912 0.0200766 -0.684091 1
-0.168263 0.159094 -1.32779 0.72464 0.0307114 -0.688443 1
-0.168126 0.157755 -1.32775 0.72575 0.0463655 -0.686394 1
-0.167748 0.156489 -1.32749 0.729264 0.0562498 -0.681916 1
-0.167763 0.155148 -1.32761 0.731996 0.0647183 -0.678228 1
-0.168219 0.153884 -1.32769 0.735187 0.0714763 -0.674085 1
-0.168734 0.152773 -1.32825 0.739193 0.0788267 -0.668864 1
-0.168774 0.151456 -1.32852 0.747102 0.0951309 -0.657867 1
-0.168544 0.150132 -1.3286 0.753411 0.112897 -0.647785 1
-0.168346 0.148812 -1.32878 0.75793 0.134038 -0.638416 1
-0.16821 0.1475 -1.32905 0.760586 0.157997 -0.629719 1
-0.168271 0.146221 -1.32947 0.761625 0.183858 -0.621388 1
-0.168126 0.144925 -1.3298 0.760208 0.21095 -0.614479 1
-0.168043 0.143653 -1.33023 0.757209 0.238613 -0.608028 1
-0.168125 0.142423 -1.33077 0.753876 0.265592 -0.600942 1
-0.168243 0.141207 -1.33134 0.749952 0.292185 -0.593464 1
-0.168164 0.139958 -1.33184 0.743999 0.320136 -0.586497 1
-0.167999 0.138711 -1.33232 0.73667 0.348387 -0.579607 1
-0.167695 0.13745 -1.33267 0.727496 0.37564 -0.574147 1
-0.167226 0.136196 -1.33282 0.718323 0.377053 -0.584673 1
-0.166605 0.135002 -1.33279 0.709795 0.377088 -0.594975 1
-0.166287 0.133811 -1.33333 0.706628 0.368202 -0.604239 1
-0.166016 0.132651 -1.33396 0.706891 0.355358 -0.611577 1
-0.166437 0.131538 -1.33459 0.712705 0.340849 -0.613086 1
-0.166148 0.130285 -1.33499 0.718222 0.327688 -0.613822 1
-0.165546 0.129084 -1.33506 0.721847 0.326368 -0.610263 1
-0.165346 0.127902 -1.33568 0.728101 0.32634 -0.602803 1
