# .PCD v0.7 - Point Cloud Data file format
# 4 45 0
# 1 11 0
# 12 24 0
# 25 42 0
# 43 45 0
VERSION 0.7
FIELDS x y z normal_x normal_y normal_z curvature
SIZE 4 4 4 4 4 4 4
TYPE F F F F F F F
COUNT 1 1 1 1 1 1 1
WIDTH 45
HEIGHT 1
VIEWPOINT 0 0 0 1 0 0 0
POINTS 45
DATA ascii
0.0360447 -0.149986 -1.48102 0.365566 0.697833 0.615947 0.01
0.035197 -0.148515 -1.4819 0.424706 0.620253 0.659478 1
0.0337794 -0.147264 -1.4821 0.48937 0.541042 0.683952 1
0.0319758 -0.146432 -1.48154 0.555333 0.458138 0.694056 1
0.029683 -0.145325 -1.48071 0.620877 0.372077 0.689979 1
0.0284074 -0.144094 -1.47966 0.647145 0.190696 0.738132 1
0.027059 -0.14315 -1.47844 0.648092 0.0092422 0.761506 1
0.0256533 -0.14249 -1.4771 0.667319 -0.106024 0.737186 1
0.0242229 -0.142227 -1.47564 0.707254 -0.0857302 0.701743 1
0.0238725 -0.141238 -1.47404 0.579944 -0.4626 0.670572 1
0.0239089 -0.139909 -1.47247 0.343799 -0.749395 0.56587 1
0.0239692 -0.138398 -1.47106 0.26657 -0.776598 0.570821 1
0.0239487 -0.136914 -1.46963 0.201721 -0.773367 0.601009 1
0.0238056 -0.135427 -1.46821 0.13327 -0.755918 0.640958 1
0.0234302 -0.134048 -1.46688 0.0992832 -0.740868 0.664272 0.01
0.0214506 -0.134361 -1.46639 0.0768575 -0.720094 0.689607 1
0.0195212 -0.134685 -1.46574 0.233429 -0.728129 0.644468 1
0.0177827 -0.135322 -1.46517 0.491475 -0.631801 0.599399 1
0.016604 -0.137014 -1.46511 0.705755 -0.467598 0.532223 1
0.015385 -0.138596 -1.46464 0.81398 -0.197974 0.546116 1
0.0144556 -0.140323 -1.4642 0.809584 -0.0562318 0.584304 1
0.0140002 -0.142322 -1.46397 0.755849 0.153612 0.636471 1
0.0137148 -0.14409 -1.46295 0.698008 0.354616 0.622119 1
0.013307 -0.145826 -1.46192 0.712208 0.225496 0.664764 1
0.012802 -0.147525 -1.46087 0.724473 0.137077 0.675536 1
0.0123527 -0.14911 -1.45963 0.720787 0.174487 0.670836 1
0.0123166 -0.150997 -1.45896 0.689756 0.29517 0.661144 1
0.0128329 -0.152843 -1.45871 0.612639 0.470195 0.635288 0.01
0.0142863 -0.154287 -1.45895 0.622174 0.467327 0.628097 1
0.0156207 -0.155854 -1.45907 0.669961 0.47835 0.567744 1
0.0169936 -0.157132 -1.45966 0.674544 0.473067 0.566744 1
0.0184363 -0.157997 -1.46083 0.625841 0.428878 0.65145 1
0.0199328 -0.157609 -1.46219 0.554516 0.415071 0.721268 1
0.021413 -0.157259 -1.46359 0.544535 0.445666 0.710538 1
0.0229126 -0.157027 -1.46497 0.541397 0.481997 0.68889 1
0.0245353 -0.157183 -1.46623 0.505386 0.5231 0.686259 1
0.0261919 -0.157052 -1.46744 0.464961 0.560042 0.685685 1
0.0276444 -0.156566 -1.46874 0.43677 0.585673 0.682802 1
0.0287081 -0.155587 -1.47021 0.426959 0.593153 0.682551 1
0.0299748 -0.154912 -1.47169 0.416061 0.61752 0.667504 1
0.031105 -0.154144 -1.47322 0.414511 0.646924 0.640055 1
0.0321401 -0.153286 -1.47478 0.398372 0.680057 0.615485 1
0.0336039 -0.152561 -1.47604 0.324401 0.723675 0.609146 1
0.0346155 -0.151838 -1.47764 0.286936 0.763057 0.579147 1
0.0353783 -0.151031 -1.47937 0.320211 0.756356 0.57043 1
