# .PCD v0.7 - Point Cloud Data file format
# 2 30 0
# 1 28 0
# 29 30 0
VERSION 0.7
FIELDS x y z normal_x normal_y normal_z curvature
SIZE 4 4 4 4 4 4 4
TYPE F F F F F F F
COUNT 1 1 1 1 1 1 1
WIDTH 30
HEIGHT 1
VIEWPOINT 0 0 0 1 0 0 0
POINTS 30
DATA ascii
-0.00233342 -0.140329 -1.59381 -0.275329 -0.81524 -0.509488 0.01
-0.000757655 -0.140235 -1.59493 -0.288177 -0.827506 -0.481858 1
0.000991 -0.140292 -1.59592 -0.341583 0.895706 0.284663 1
-0.0188238 -0.138781 -1.5456 -0.696889 -0.693476 0.182857 1
-0.0185659 -0.139551 -1.54744 -0.706952 -0.655428 0.265771 1
-0.0183273 -0.140335 -1.54928 -0.698579 -0.632664 0.334251 1
-0.0181727 -0.141179 -1.5511 -0.680559 -0.62188 0.387433 1
-0.0179771 -0.141974 -1.55293 -0.660544 -0.6168 0.428065 1
-0.0177133 -0.142687 -1.5548 -0.641146 -0.614911 0.459147 1
-0.0174652 -0.143413 -1.55665 -0.623391 -0.614433 0.483586 1
-0.0172294 -0.144149 -1.55851 -0.607974 -0.614329 0.502959 1
-0.0168614 -0.14459 -1.56043 -0.599157 -0.611778 0.516468 1
-0.0164492 -0.144931 -1.56237 -0.580667 -0.642528 0.499983 1
-0.0160187 -0.145137 -1.56432 -0.568263 0.766242 -0.299916 1
-0.0155876 -0.145327 -1.56628 -0.577431 0.784171 -0.227266 1
-0.0151601 -0.145481 -1.56824 -0.5759 0.804442 -0.145648 1
-0.0147096 -0.145574 -1.5702 -0.56291 0.824228 -0.061492 1
-0.0142082 -0.145535 -1.57214 -0.539889 0.84154 0.018193 1
-0.0137018 -0.145484 -1.57409 -0.22761 -0.819192 -0.526421 1
-0.0131902 -0.145419 -1.57604 -0.231415 -0.816247 -0.529328 1
-0.0126887 -0.145355 -1.57798 -0.236599 -0.813006 -0.532017 1
-0.0121918 -0.145289 -1.57993 -0.24297 -0.80951 -0.534471 1
-0.0108795 -0.145042 -1.58139 -0.230273 -0.817155 -0.528423 1
-0.00944771 -0.144767 -1.58278 -0.219958 -0.824569 -0.521253 1
-0.00797238 -0.144478 -1.58411 -0.213116 -0.831112 -0.513649 1
-0.00664968 -0.144083 -1.58553 -0.210124 -0.832025 -0.513403 1
-0.00578487 -0.143369 -1.5872 -0.217666 -0.827203 -0.518032 1
-0.00490694 -0.142623 -1.58885 -0.22687 -0.822913 -0.520907 1
-0.00401213 -0.141836 -1.59047 -0.238458 -0.81943 -0.521221 1
-0.00315998 -0.141075 -1.59213 -0.254111 -0.816659 -0.518166 1
