# .PCD v0.7 - Point Cloud Data file format
# 2 36 0
# 1 34 0
# 35 36 0
VERSION 0.7
FIELDS x y z normal_x normal_y normal_z curvature
SIZE 4 4 4 4 4 4 4
TYPE F F F F F F F
COUNT 1 1 1 1 1 1 1
WIDTH 36
HEIGHT 1
VIEWPOINT 0 0 0 1 0 0 0
POINTS 36
DATA ascii
0.0232663 0.205534 -1.459 -0.770438 -0.330956 -0.544879 0.01
0.0240737 0.206743 -1.45839 -0.771369 -0.362471 -0.523073 1
0.0255885 0.207591 -1.45726 -0.772562 -0.364533 -0.519869 1
0.046229 0.151124 -1.44053 0.644079 0.627972 -0.436822 1
0.0446921 0.151031 -1.44192 0.52118 0.641138 -0.563305 1
0.0431189 0.151017 -1.44327 0.457462 0.646196 -0.610868 1
0.0414732 0.151159 -1.44453 0.504851 0.644976 -0.5737 1
0.0398442 0.151511 -1.44576 0.572359 0.631243 -0.523391 1
0.0382235 0.151967 -1.44697 0.661077 0.598732 -0.452215 1
0.0372275 0.153641 -1.44769 0.766735 0.473453 -0.433543 1
0.0362541 0.155334 -1.44839 0.850119 0.321098 -0.417365 1
0.0353256 0.157068 -1.44906 0.86045 0.238276 -0.450388 1
0.0343452 0.158751 -1.44977 0.7524 0.362123 -0.550237 1
0.0333388 0.16041 -1.45051 0.680255 0.439736 -0.586418 1
0.0327241 0.162334 -1.45099 0.815901 0.510219 -0.271995 1
0.0320524 0.164223 -1.45152 -0.630014 -0.774279 -0.0597902 1
0.0312666 0.166045 -1.45213 -0.603449 -0.789469 -0.112195 1
0.030464 0.167835 -1.45281 -0.603998 -0.767411 -0.215095 1
0.0296529 0.16961 -1.45352 0.509685 0.612985 -0.603714 1
0.0291413 0.17157 -1.45397 -0.648812 -0.482908 -0.588084 1
0.0285974 0.173523 -1.45442 -0.620133 -0.206976 -0.756701 1
0.0279885 0.17546 -1.45485 -0.56397 0.00458111 -0.825783 1
0.0277436 0.177477 -1.45518 -0.511056 0.135145 -0.848857 1
0.0276807 0.179535 -1.45545 -0.501656 0.0917544 -0.860187 1
0.0279056 0.181599 -1.45543 -0.500801 -0.0288994 -0.86508 1
0.0279311 0.183645 -1.45554 -0.49604 -0.124483 -0.85933 1
0.0275578 0.185658 -1.45589 -0.492973 -0.189711 -0.84911 1
0.0271502 0.187668 -1.45621 -0.491225 -0.233749 -0.839082 1
0.0267256 0.189678 -1.45651 -0.489925 -0.263027 -0.831138 1
0.0263425 0.1917 -1.45678 -0.496751 -0.273078 -0.823812 1
0.0260621 0.193741 -1.45696 -0.537177 -0.246728 -0.806577 1
0.0259869 0.195815 -1.45697 -0.580172 -0.245137 -0.77673 1
0.0257111 0.197855 -1.45716 -0.636946 -0.266053 -0.723544 1
0.0253351 0.199877 -1.45744 -0.704973 -0.291777 -0.646435 1
0.0245796 0.201726 -1.45801 -0.748234 -0.277465 -0.602627 1
0.0238736 0.203603 -1.45854 -0.762852 -0.273744 -0.585765 1
