# .PCD v0.7 - Point Cloud Data file format
# 6 160 0
# 1 16 0
# 17 52 0
# 53 98 0
# 99 129 0
# 130 148 0
# 149 160 0
VERSION 0.7
FIELDS x y z normal_x normal_y normal_z curvature
SIZE 4 4 4 4 4 4 4
TYPE F F F F F F F
COUNT 1 1 1 1 1 1 1
WIDTH 160
HEIGHT 1
VIEWPOINT 0 0 0 1 0 0 0
POINTS 160
DATA ascii
0.046617 0.0354633 -1.67534 -0.88453 0.120147 0.450745 0.01
0.0476194 0.0374696 -1.67458 -0.884082 0.1129 0.453488 1
0.0479195 0.0397964 -1.67424 -0.885392 0.104452 0.452957 1
0.0482744 0.0421391 -1.67421 -0.888154 0.0973597 0.449114 1
0.0485731 0.0444894 -1.67416 -0.892028 0.0912101 0.442682 1
0.0487597 0.0468511 -1.6741 -0.896768 0.0857454 0.434113 1
0.0486597 0.0490365 -1.67502 -0.899596 0.085571 0.428258 1
0.0487817 0.0513772 -1.67536 -0.903485 0.0839844 0.420311 1
0.048446 0.0537228 -1.67533 -0.906552 0.0827498 0.413904 0.73999
0.0483234 0.0557808 -1.6765 -0.904927 0.0831627 0.417363 0.852123
0.0485886 0.0580814 -1.67701 -0.905318 0.0805946 0.417017 1
0.0488744 0.0603902 -1.67655 -0.908291 0.0770514 0.411182 1
0.0492929 0.0626434 -1.67595 -0.911087 0.0741709 0.405487 1
0.049777 0.065297 -1.67528 -0.91276 0.0720794 0.402087 1
0.0494041 0.0674013 -1.6763 -0.909126 0.0683086 0.410881 1
0.0496064 0.0697471 -1.67604 -0.908337 0.069188 0.412476 0.793919
0.0500347 0.0720777 -1.67606 -0.907772 0.0706634 0.413468 0.578735
0.0503959 0.0744178 -1.67596 -0.908088 0.0719173 0.412557 0.912559
0.050628 0.0767761 -1.67598 -0.909099 0.0730589 0.410124 1
0.0508857 0.0790829 -1.6755 -0.911539 0.0729439 0.404692 1
0.0513751 0.0813738 -1.67514 -0.915125 0.071782 0.39673 1
0.0513435 0.083558 -1.67606 -0.917053 0.0758448 0.391486 1
0.0516027 0.0858053 -1.67536 -0.923084 0.0727447 0.377657 1
0.0514873 0.0881504 -1.67568 -0.92714 0.070978 0.367932 1
0.0513467 0.090428 -1.67504 -0.933147 0.0643252 0.353693 1
0.0515527 0.0926902 -1.67436 -0.939272 0.0574621 0.338329 1
0.0523973 0.0948525 -1.67389 -0.944692 0.0516106 0.323873 1
0.0529997 0.0971344 -1.67367 -0.948182 0.0478154 0.31411 1
0.0529731 0.0994542 -1.67319 -0.950813 0.0449186 0.306492 0.01
0.0526479 0.10168 -1.67393 -0.948706 0.0428728 0.313239 1
0.0527807 0.102919 -1.67595 -0.942936 0.040339 0.33052 1
0.0514961 0.104822 -1.67654 -0.939545 0.0459964 0.339321 1
0.0516023 0.105155 -1.67888 -0.931912 0.0504954 0.359153 1
0.0512109 0.106988 -1.68033 -0.9266 0.0660025 0.37021 1
0.0506089 0.107772 -1.68249 -0.91677 0.0783516 0.391656 1
0.049374 0.108544 -1.68436 -0.904637 0.0916648 0.416209 1
0.0490997 0.110086 -1.68613 -0.90044 0.110456 0.420722 1
0.0490056 0.112332 -1.68688 -0.900258 0.132156 0.414814 1
0.0485408 0.113938 -1.68856 -0.898456 0.149682 0.412761 1
0.0480626 0.115737 -1.69003 -0.895253 0.166259 0.413376 1
0.0476555 0.117608 -1.69143 -0.890319 0.180627 0.417979 1
0.0473371 0.119494 -1.69282 -0.883347 0.191758 0.4277 1
0.046883 0.121268 -1.69433 -0.875985 0.188981 0.443776 1
0.0463445 0.122966 -1.69589 -0.870547 0.162005 0.464652 1
0.046312 0.125305 -1.69627 -0.865854 0.136061 0.481439 1
0.0455137 0.127382 -1.69708 -0.859717 0.109282 0.498943 1
0.0452063 0.128471 -1.69916 -0.855784 0.0897495 0.509488 1
0.0445918 0.130272 -1.70058 -0.852526 0.0691262 0.518094 1
0.0435644 0.13166 -1.7022 -0.850111 0.0548921 0.523735 1
0.0426747 0.133258 -1.70371 -0.848996 0.0423565 0.526699 1
0.0418956 0.13501 -1.7051 -0.849429 0.0314354 0.526766 1
0.0413113 0.136782 -1.70656 -0.851261 0.0228284 0.524246 1
0.0404699 0.138346 -1.70813 -0.852465 0.0186166 0.522452 0.6657
0.0394335 0.139747 -1.70973 -0.852908 0.0226198 0.521571 1
0.0384777 0.141619 -1.71083 -0.853228 0.0457735 0.519526 1
0.0385378 0.143693 -1.71197 -0.853707 0.0662893 0.516518 1
0.0377759 0.145646 -1.71308 -0.853405 0.0828808 0.514617 1
0.0372026 0.147474 -1.71447 -0.852589 0.0962875 0.513634 1
0.0366668 0.149327 -1.71585 -0.851242 0.107318 0.513682 1
0.0359705 0.15109 -1.71727 -0.848922 0.115259 0.515797 1
0.0352598 0.152661 -1.7189 -0.839732 0.119849 0.529609 1
0.0344982 0.154598 -1.72003 -0.831088 0.123952 0.542152 1
0.0336639 0.156032 -1.72172 -0.81949 0.12355 0.559618 1
0.0324408 0.157046 -1.72348 -0.805924 0.119344 0.579865 1
0.0310194 0.157305 -1.72536 -0.79141 0.112061 0.600926 0.01
0.0304663 0.155071 -1.72592 -0.790633 0.108533 0.602594 1
0.0298519 0.152793 -1.72614 -0.79046 0.106029 0.603267 0.941466
0.0293786 0.150471 -1.7261 -0.791224 0.104119 0.602598 0.854033
0.0289958 0.148153 -1.72641 -0.79153 0.102209 0.602523 0.719657
0.0283565 0.145914 -1.72685 -0.791129 0.100787 0.603288 1
0.0280826 0.143562 -1.72694 -0.789608 0.0990212 0.605569 1
0.0276156 0.141248 -1.72714 -0.787347 0.0976421 0.608729 1
0.0270308 0.138988 -1.72755 -0.784819 0.0970905 0.612072 1
0.0274408 0.136704 -1.72707 -0.779277 0.0907405 0.620076 1
0.0274199 0.134348 -1.72682 -0.774788 0.0861615 0.626323 1
0.0269261 0.132033 -1.72693 -0.772679 0.0834443 0.629289 1
0.0262858 0.129792 -1.72736 -0.772798 0.0814624 0.629403 1
0.0261058 0.127437 -1.72716 -0.770433 0.0779388 0.632739 1
0.0256887 0.125105 -1.72722 -0.770079 0.0751256 0.633509 1
0.0244708 0.123424 -1.72836 -0.777357 0.0742254 0.624665 1
0.024584 0.121066 -1.72815 -0.775404 0.0752456 0.626967 1
0.0246053 0.118729 -1.72776 -0.77309 0.0797168 0.629267 1
0.0241753 0.1164 -1.72768 -0.774033 0.0843764 0.627498 1
0.0233327 0.114322 -1.72844 -0.78084 0.0880608 0.618494 1
0.0223686 0.112394 -1.72943 -0.78947 0.0908085 0.607034 1
0.02155 0.110436 -1.73048 -0.798066 0.0931958 0.59532 1
0.02039 0.108871 -1.73183 -0.808985 0.0943259 0.580212 1
0.0194727 0.107054 -1.73305 -0.818177 0.0960832 0.566882 1
0.0188913 0.104873 -1.73377 -0.823765 0.0986307 0.558287 1
0.0183556 0.10257 -1.73393 -0.827109 0.0951743 0.553925 1
0.0174336 0.100664 -1.73499 -0.835165 0.0912332 0.54238 1
0.0166938 0.098639 -1.73597 -0.830631 0.085771 0.550178 1
0.016034 0.0965199 -1.7368 -0.825578 0.0802305 0.558555 1
0.0150452 0.0947281 -1.738 -0.815427 0.0743003 0.574071 1
0.0143483 0.0925455 -1.7386 -0.810016 0.0689383 0.582341 1
0.0129618 0.0912641 -1.74004 -0.792458 0.0639937 0.60656 1
0.0121829 0.0892232 -1.74095 -0.781222 0.0591511 0.621445 1
0.0110944 0.0875284 -1.7422 -0.763124 0.0554312 0.64387 1
0.010321 0.085438 -1.74301 -0.749909 0.0610834 0.658715 1
0.00902675 0.0836502 -1.74387 -0.731459 0.0644898 0.678829 1
0.00856881 0.081361 -1.74428 -0.725946 0.0686528 0.684317 1
0.00798392 0.0791197 -1.74478 -0.730947 0.0721856 0.678605 1
0.00693985 0.077235 -1.74576 -0.745174 0.0733846 0.66282 1
0.00579214 0.0755808 -1.74701 -0.757177 0.0735684 0.649054 1
0.00411594 0.0747817 -1.74848 -0.767699 0.0750696 0.636399 1
0.00369207 0.072534 -1.7491 -0.767894 0.0763921 0.636006 1
0.00285617 0.0705022 -1.74999 -0.766754 0.0797723 0.636965 1
0.00123784 0.0693831 -1.75131 -0.76415 0.0947818 0.638037 1
0.000742156 0.0671186 -1.7518 -0.753853 0.111547 0.647505 1
-0.000283775 0.0651355 -1.7526 -0.741116 0.1312 0.658433 1
-0.000817339 0.0628288 -1.7527 -0.727358 0.147099 0.670308 0.01
-0.000727528 0.0606149 -1.75186 -0.719715 0.155954 0.676527 1
3.11459e-05 0.0587303 -1.75064 -0.719704 0.160861 0.675389 1
0.00110794 0.0570932 -1.74931 -0.724201 0.164871 0.66959 1
0.000985889 0.0549124 -1.74839 -0.720144 0.178494 0.670472 1
0.0024268 0.0536484 -1.74699 -0.729848 0.177989 0.660032 1
0.00309253 0.0517326 -1.74577 -0.733358 0.184051 0.654455 1
0.00372331 0.0500552 -1.74422 -0.739397 0.189049 0.646183 1
0.00506905 0.0490591 -1.74254 -0.753588 0.186957 0.6302 1
0.00543819 0.0475361 -1.74076 -0.749978 0.192325 0.632886 1
0.00599209 0.04551 -1.73967 -0.743829 0.202704 0.636891 1
0.00699399 0.0437812 -1.73839 -0.738926 0.209101 0.64052 1
0.00804976 0.0421511 -1.73703 -0.733926 0.213922 0.644663 1
0.0092837 0.0412379 -1.73523 -0.73199 0.210369 0.648024 1
0.0103252 0.0399163 -1.73356 -0.727445 0.209617 0.653364 1
0.0109329 0.0381025 -1.73216 -0.723021 0.213798 0.65691 1
0.0118683 0.0367631 -1.73044 -0.732673 0.210967 0.647057 1
0.0130388 0.0357333 -1.72866 -0.745752 0.204186 0.634163 1
0.0139474 0.0341269 -1.72717 -0.752825 0.201753 0.626538 1
0.0150733 0.0333063 -1.72526 -0.766403 0.193977 0.612372 1
0.0164395 0.0325936 -1.72346 -0.780064 0.185025 0.597718 1
0.0176006 0.0313253 -1.72183 -0.787716 0.179842 0.589203 1
0.0175769 0.0290821 -1.72106 -0.782793 0.185717 0.593923 1
0.0182412 0.0271624 -1.71984 -0.784038 0.184504 0.592658 0.961722
0.0183544 0.025014 -1.71885 -0.78019 0.185039 0.597549 1
0.0189676 0.0230272 -1.71771 -0.778389 0.17974 0.601502 1
0.0198505 0.0212927 -1.71636 -0.777677 0.167563 0.605922 1
0.0204835 0.0193548 -1.71515 -0.771223 0.153207 0.617854 1
0.0209728 0.0174442 -1.71384 -0.760608 0.133643 0.635307 1
0.0224124 0.0171994 -1.71197 -0.767222 0.0977441 0.63389 1
0.0238794 0.0174385 -1.71013 -0.780347 0.067815 0.621659 1
0.025255 0.0169542 -1.70826 -0.789133 0.041714 0.612805 0.01
0.0267101 0.017915 -1.70665 -0.80323 0.0332665 0.594739 1
0.0280682 0.018041 -1.70472 -0.813027 0.0263106 0.581631 1
0.0292222 0.018718 -1.70276 -0.820457 0.0301927 0.57091 1
0.0303523 0.019542 -1.70085 -0.826694 0.0372596 0.561416 1
0.0315119 0.02135 -1.69985 -0.829825 0.0482582 0.555934 1
0.0327438 0.0224328 -1.69814 -0.835192 0.0555066 0.547151 1
0.0338929 0.0238337 -1.69661 -0.839424 0.0637793 0.539722 1
0.0351485 0.0247153 -1.6948 -0.844456 0.0700363 0.531026 1
0.0361839 0.0255324 -1.69283 -0.849566 0.0763827 0.521923 1
0.0374574 0.0267542 -1.69125 -0.855429 0.0831801 0.511198 1
0.0384292 0.0280843 -1.68955 -0.861996 0.0891412 0.499016 1
0.0393413 0.0300966 -1.68869 -0.865733 0.0965686 0.491102 1
0.0404943 0.031275 -1.68699 -0.873697 0.101433 0.475778 1
0.0415374 0.0326283 -1.68535 -0.88127 0.107117 0.460314 1
0.0424826 0.0334222 -1.68333 -0.888378 0.111079 0.445474 1
0.0432456 0.0333773 -1.68108 -0.887561 0.110465 0.44725 1
0.0444971 0.0345832 -1.67947 -0.886322 0.115947 0.448319 1
0.0456769 0.0351345 -1.67749 -0.885361 0.117666 0.449767 1
