# .PCD v0.7 - Point Cloud Data file format
# 4 106 0
# 1 10 0
# 11 50 0
# 51 86 0
# 87 106 0
VERSION 0.7
FIELDS x y z normal_x normal_y normal_z curvature
SIZE 4 4 4 4 4 4 4
TYPE F F F F F F F
COUNT 1 1 1 1 1 1 1
WIDTH 106
HEIGHT 1
VIEWPOINT 0 0 0 1 0 0 0
POINTS 106
DATA ascii
-0.0474145 -0.00871704 -1.3912 0.985612 0.148194 -0.0812838 0.01
-0.0476299 -0.00646453 -1.39082 0.998349 0.0292494 -0.0494442 1
-0.0475493 -0.00417085 -1.39078 0.998376 -0.051646 -0.02404 1
-0.0471883 -0.00190747 -1.39091 0.99487 -0.101156 -0.000960489 1
-0.0473128 0.000356316 -1.39055 0.992641 -0.120435 0.012626 1
-0.0472342 0.00262453 -1.3902 0.993614 -0.11182 0.0151137 1
-0.0467021 0.00479379 -1.39073 0.994576 -0.100665 0.0261872 1
-0.0463401 0.00703607 -1.39106 0.99481 -0.0996232 0.0206974 1
-0.0461617 0.0093115 -1.39082 0.994762 -0.102172 -0.0031358 1
-0.0457883 0.0115653 -1.39104 0.995049 -0.0984689 -0.0134543 1
-0.0452731 0.013739 -1.39052 0.994189 -0.0961156 -0.048485 1
-0.0455215 0.0159725 -1.39005 0.992393 -0.109506 -0.0562464 1
-0.0456687 0.0182071 -1.38955 0.990277 -0.133557 -0.038923 1
-0.0449558 0.0202428 -1.39033 0.980347 -0.187606 0.0610153 1
-0.0448286 0.022474 -1.38981 0.97551 -0.20228 0.0863841 1
-0.0443573 0.0247187 -1.38972 0.966262 -0.207299 0.152859 1
-0.0431751 0.0264387 -1.39067 0.91068 -0.230839 0.342601 1
-0.0422353 0.0283654 -1.39149 0.874846 -0.167227 0.454621 1
-0.0413828 0.0303363 -1.39231 0.858783 -0.0821168 0.505716 1
-0.0409786 0.0325872 -1.39211 0.82988 0.0276536 0.557256 1
-0.0418477 0.03448 -1.39114 0.893112 0.0266134 0.449046 1
-0.043123 0.038689 -1.39017 0.982135 -0.139391 0.126418 1
-0.042641 0.0409193 -1.39042 0.979615 -0.174083 0.100249 1
-0.0414765 0.0425397 -1.39155 0.965991 -0.150172 0.2105 1
-0.0408438 0.0447462 -1.39156 0.972598 -0.155063 0.173228 1
-0.0409454 0.0470098 -1.39119 0.976858 -0.176662 0.120575 1
-0.0407577 0.0492044 -1.39055 0.973449 -0.219563 0.064719 1
-0.0402592 0.0514425 -1.39065 0.95998 -0.274012 0.0579279 1
-0.039547 0.0536214 -1.39053 0.940289 -0.338263 0.037879 1
-0.0384893 0.0556576 -1.39059 0.916959 -0.397596 0.0332134 1
-0.0371634 0.0571344 -1.38944 0.893184 -0.449654 -0.0057648 0.01
-0.0373032 0.0579002 -1.38728 0.88105 -0.468262 -0.0669461 1
-0.037126 0.0584454 -1.38506 0.868348 -0.481547 -0.118673 1
-0.0361599 0.0592056 -1.38312 0.849738 -0.506168 -0.147439 1
-0.0350266 0.0604218 -1.38154 0.819613 -0.548616 -0.165088 1
-0.03447 0.0606081 -1.37932 0.8072 -0.556739 -0.196137 1
-0.0334622 0.0614351 -1.37743 0.770335 -0.597759 -0.221963 1
-0.0321761 0.0618717 -1.37558 0.662817 -0.686844 -0.298194 1
-0.0326853 0.0604634 -1.37384 0.704344 -0.62763 -0.331633 1
-0.0331857 0.059152 -1.37202 0.74118 -0.555957 -0.376249 1
-0.0331557 0.0580359 -1.37002 0.72832 -0.538054 -0.424319 1
-0.0321751 0.0572224 -1.36811 0.66559 -0.558659 -0.494864 1
-0.0320974 0.0558234 -1.36629 0.656208 -0.53475 -0.532385 1
-0.0307514 0.0550122 -1.36462 0.590143 -0.551536 -0.589524 1
-0.0301541 0.0537966 -1.36276 0.56382 -0.556536 -0.610225 1
-0.0297833 0.0525536 -1.36087 0.552472 -0.570539 -0.607668 1
-0.029995 0.0507804 -1.35943 0.576919 -0.563605 -0.591197 1
-0.0302694 0.048896 -1.35815 0.61269 -0.546752 -0.570678 1
-0.0301573 0.0469394 -1.35695 0.645716 -0.528579 -0.551049 1
-0.0307041 0.0451553 -1.35562 0.696917 -0.479714 -0.533087 1
-0.0307622 0.04366 -1.35387 0.715947 -0.457652 -0.527233 1
-0.0307093 0.0421828 -1.35212 0.729577 -0.440183 -0.523409 1
-0.030524 0.0406377 -1.35043 0.742311 -0.423361 -0.519365 1
-0.0307512 0.0386026 -1.34939 0.780862 -0.376714 -0.498338 1
-0.0309168 0.0367096 -1.34811 0.80476 -0.344454 -0.483438 1
-0.0298084 0.0361637 -1.34617 0.778107 -0.373397 -0.505098 1
-0.0294089 0.0346052 -1.34454 0.783829 -0.361625 -0.504816 1
-0.0290986 0.0328896 -1.34304 0.791543 -0.345768 -0.503889 1
-0.0290703 0.0312657 -1.34142 0.797896 -0.337214 -0.499648 1
-0.0284693 0.0296862 -1.33987 0.799075 -0.338653 -0.496782 1
-0.0279707 0.0282553 -1.33814 0.798795 -0.34172 -0.49513 1
-0.0270494 0.0273976 -1.33622 0.789678 -0.355208 -0.500236 1
-0.0264149 0.0261061 -1.33443 0.787904 -0.359525 -0.49995 0.69617
-0.0260004 0.0247259 -1.33265 0.78957 -0.352687 -0.502186 1
-0.0255847 0.0233483 -1.33086 0.796689 -0.341116 -0.498926 1
-0.0253499 0.021737 -1.32924 0.814403 -0.317996 -0.485414 1
-0.0258008 0.0196005 -1.32853 0.837565 -0.266566 -0.476894 1
-0.0256447 0.0175493 -1.32752 0.857091 -0.224221 -0.46381 1
-0.025947 0.015332 -1.32701 0.863243 -0.20122 -0.46295 1
-0.0262656 0.0131107 -1.32652 0.863109 -0.194574 -0.46603 1
-0.0260201 0.0108743 -1.32607 0.860757 -0.196093 -0.469729 0.01
-0.0270121 0.00881376 -1.32587 0.849941 -0.208383 -0.483918 1
-0.0278054 0.00694238 -1.32694 0.833084 -0.227919 -0.504008 1
-0.0282905 0.00476885 -1.32749 0.838565 -0.220321 -0.498264 1
-0.0298363 0.00404597 -1.32903 0.844949 -0.212075 -0.491005 1
-0.0310745 0.00256924 -1.33028 0.850085 -0.201693 -0.486493 1
-0.0321532 0.00184734 -1.33217 0.855425 -0.197142 -0.478939 1
-0.0334568 0.00130271 -1.33398 0.868042 -0.18637 -0.460184 1
-0.0344939 -0.00023401 -1.33533 0.880453 -0.166759 -0.443841 1
-0.0355141 -0.00149558 -1.33695 0.893026 -0.151059 -0.423894 1
-0.0363225 -0.00318653 -1.33828 0.903574 -0.133216 -0.407195 1
-0.0370876 -0.00453235 -1.33997 0.910804 -0.126167 -0.393089 1
-0.0381105 -0.00503471 -1.34197 0.918846 -0.125214 -0.374225 1
-0.0390872 -0.00579918 -1.3439 0.926338 -0.122089 -0.356359 1
-0.0397224 -0.00758757 -1.34519 0.9319 -0.109092 -0.345921 1
-0.0406573 -0.00831411 -1.34716 0.944303 -0.0938298 -0.315417 1
-0.0410734 -0.0080778 -1.3494 0.95427 -0.0902383 -0.285001 1
-0.0417237 -0.00733385 -1.35147 0.961448 -0.0966309 -0.257451 1
-0.042257 -0.00775126 -1.35367 0.969628 -0.0839273 -0.229734 1
-0.0425735 -0.0079108 -1.35593 0.975119 -0.0752598 -0.208516 1
-0.0431737 -0.00748927 -1.35811 0.976985 -0.0635806 -0.20361 1
-0.0437734 -0.0066027 -1.36014 0.977679 -0.0601391 -0.201315 1
-0.0441064 -0.00622383 -1.36238 0.979961 -0.0462689 -0.193741 1
-0.0445822 -0.00594139 -1.36461 0.981894 -0.0303096 -0.186988 1
-0.0448569 -0.00666261 -1.36677 0.984534 0.00500109 -0.175124 1
-0.0453224 -0.0057106 -1.3688 0.983053 0.00279144 -0.183302 1
-0.0455638 -0.00685688 -1.37078 0.983726 0.0417031 -0.174766 1
-0.0458716 -0.00766078 -1.37291 0.98395 0.0714556 -0.163512 1
-0.0466193 -0.00752916 -1.37507 0.986615 0.0649076 -0.149592 1
-0.0465059 -0.00845813 -1.37717 0.985445 0.102222 -0.135826 1
-0.0467038 -0.00895636 -1.3794 0.983734 0.14882 -0.100599 1
-0.0454991 -0.0102246 -1.38089 0.963589 0.25928 -0.0653474 1
-0.0457142 -0.0112595 -1.38292 0.942594 0.33141 -0.0410318 1
-0.0461876 -0.0112322 -1.38517 0.94085 0.336727 -0.0376359 1
-0.0471227 -0.00993672 -1.38682 0.96372 0.260638 -0.0575404 1
-0.0472941 -0.00958344 -1.38908 0.968051 0.237174 -0.0813932 1
