# .PCD v0.7 - Point Cloud Data file format
# 2 30 0
# 1 26 0
# 27 30 0
VERSION 0.7
FIELDS x y z normal_x normal_y normal_z curvature
SIZE 4 4 4 4 4 4 4
TYPE F F F F F F F
COUNT 1 1 1 1 1 1 1
WIDTH 30
HEIGHT 1
VIEWPOINT 0 0 0 1 0 0 0
POINTS 30
DATA ascii
0.268356 -0.154246 -1.58837 -0.305468 -0.300949 0.903393 0.01
0.267458 -0.153062 -1.58821 -0.293531 -0.2376 0.925951 1
0.266104 -0.152056 -1.58845 -0.298664 -0.22856 0.926585 1
0.265363 -0.150572 -1.58844 -0.277461 -0.208986 0.937732 1
0.264764 -0.148978 -1.58839 -0.246101 -0.204034 0.947525 1
0.275628 -0.162902 -1.62657 -0.2175 -0.968527 -0.121032 1
0.275443 -0.162704 -1.62489 -0.224735 -0.961699 -0.156938 1
0.275193 -0.162539 -1.62322 -0.237942 -0.955726 -0.173125 1
0.274661 -0.162516 -1.6216 -0.259497 -0.950492 -0.170954 1
0.274291 -0.162815 -1.62003 -0.282025 -0.948099 -0.14687 1
0.274192 -0.163652 -1.61855 -0.292698 -0.951226 -0.0974489 1
0.273961 -0.163858 -1.61698 -0.305015 -0.950806 -0.0541602 1
0.273627 -0.163574 -1.61533 -0.315556 -0.948584 -0.0247704 1
0.273364 -0.163351 -1.61366 -0.310028 -0.950537 -0.0190253 1
0.273125 -0.16315 -1.61199 -0.283429 -0.958322 -0.0358664 1
0.27275 -0.163453 -1.61036 -0.238934 -0.968594 -0.068825 1
0.272365 -0.163757 -1.60873 -0.180801 -0.976371 -0.118363 1
0.271972 -0.163837 -1.60708 -0.137601 -0.981272 -0.134804 1
0.271599 -0.163742 -1.60544 -0.116996 -0.992302 -0.040608 1
0.271268 -0.16326 -1.60384 -0.0990679 -0.993131 0.0622561 1
0.270953 -0.162733 -1.60225 -0.0813948 -0.982157 0.169535 1
0.270652 -0.162162 -1.60067 -0.0634759 -0.961026 0.269073 1
0.270318 -0.161678 -1.59907 -0.046421 -0.936752 0.346901 1
0.269968 -0.161234 -1.59747 -0.0313599 -0.918583 0.393981 1
0.269663 -0.160637 -1.5959 -0.0201979 -0.913917 0.405398 1
0.269367 -0.159999 -1.59435 -0.0250224 -0.926136 0.376359 1
0.269125 -0.159072 -1.59294 -0.0872258 -0.920324 0.381307 1
0.26889 -0.158101 -1.59157 -0.196888 -0.838012 0.508891 1
0.268676 -0.156995 -1.59029 -0.287374 -0.674291 0.680255 1
0.268495 -0.155726 -1.5892 -0.32122 -0.472875 0.820492 1
