# .PCD v0.7 - Point Cloud Data file format
# 4 130 0
# 1 10 0
# 11 21 0
# 22 121 0
# 122 130 0
VERSION 0.7
FIELDS x y z normal_x normal_y normal_z curvature
SIZE 4 4 4 4 4 4 4
TYPE F F F F F F F
COUNT 1 1 1 1 1 1 1
WIDTH 130
HEIGHT 1
VIEWPOINT 0 0 0 1 0 0 0
POINTS 130
DATA ascii
-0.0853043 -0.144872 -1.32806 0.104128 0.905413 -0.411564 0.01
-0.0833577 -0.144544 -1.32761 0.137495 0.865088 -0.482408 1
-0.081392 -0.144285 -1.32719 0.183396 0.813727 -0.551556 1
-0.0794263 -0.144025 -1.32677 0.23856 0.741051 -0.62764 1
-0.0781699 -0.143 -1.32726 0.277323 0.692973 -0.665493 1
-0.0773694 -0.141483 -1.32834 0.762368 -0.24759 -0.597908 1
-0.0765688 -0.139965 -1.32942 0.650182 -0.411025 -0.639001 1
-0.0758465 -0.138488 -1.3306 0.663917 -0.422123 -0.617274 1
-0.0751432 -0.137021 -1.33181 0.741699 -0.360014 -0.565927 1
-0.0744399 -0.135554 -1.33302 0.773931 -0.354502 -0.524746 1
-0.111455 -0.080274 -1.39918 0.816764 -0.389473 -0.425685 1
-0.110097 -0.0790635 -1.39829 0.80914 -0.41779 -0.413211 1
-0.108738 -0.077853 -1.3974 0.807572 -0.437619 -0.39537 1
-0.107439 -0.0765902 -1.3965 0.811895 -0.451246 -0.370409 1
-0.106383 -0.0751129 -1.3956 0.803598 -0.482306 -0.348728 1
-0.105327 -0.0736355 -1.3947 0.753587 -0.555657 -0.351215 1
-0.104215 -0.0721564 -1.39442 0.686345 -0.633771 -0.356743 1
-0.103014 -0.0706744 -1.39511 0.60906 -0.704367 -0.364573 1
-0.101814 -0.0691924 -1.39579 0.527996 -0.761676 -0.375592 1
-0.100288 -0.0682206 -1.3956 0.438454 -0.809717 -0.39002 0.01
-0.0985324 -0.067608 -1.3948 0.341724 -0.848041 -0.405033 1
-0.0967768 -0.0669954 -1.39399 0.250468 -0.873592 -0.417256 1
-0.0948703 -0.0666616 -1.3942 0.168336 -0.889479 -0.424841 1
-0.0929219 -0.0664054 -1.3947 0.0928759 -0.898644 -0.428733 1
-0.0909735 -0.0661491 -1.3952 0.0348995 -0.901215 -0.431964 1
-0.0889507 -0.0661652 -1.39529 -0.0410642 -0.899333 -0.435333 1
-0.0869262 -0.0661874 -1.39538 -0.141856 -0.888392 -0.43662 1
-0.0849093 -0.0662802 -1.39546 -0.271715 -0.857775 -0.436341 1
-0.0829287 -0.066709 -1.39548 -0.432861 -0.787562 -0.438609 1
-0.0809481 -0.0671377 -1.39551 -0.590612 -0.6484 -0.480369 1
-0.0799758 -0.0680668 -1.39575 -0.606961 -0.439412 -0.662204 0.01
-0.0807235 -0.0698495 -1.39636 -0.80256 -0.454261 -0.38671 1
-0.0814712 -0.0716321 -1.39697 -0.820739 -0.292826 -0.490552 1
-0.0823629 -0.0733659 -1.3975 -0.91129 -0.0988305 -0.399728 1
-0.0833654 -0.0750622 -1.39797 -0.886805 0.143588 -0.439271 1
-0.0843679 -0.0767585 -1.39845 -0.827195 0.237822 -0.509106 1
-0.0855882 -0.0782817 -1.39815 -0.830429 0.373514 -0.41337 1
-0.0868768 -0.0797505 -1.39761 -0.695617 0.0555966 -0.716258 1
-0.0881654 -0.0812193 -1.39708 -0.764457 0.531572 -0.364741 1
-0.0895846 -0.0826166 -1.3967 -0.10615 -0.879561 -0.463793 1
-0.0910097 -0.0840106 -1.39634 0.0466012 -0.886934 -0.459539 1
-0.0924516 -0.0852801 -1.39621 0.127385 0.71499 -0.687431 1
-0.0939873 -0.0858558 -1.3974 0.781019 0.575649 -0.242154 1
-0.095523 -0.0864316 -1.39859 0.408628 0.656134 -0.634438 1
-0.0970417 -0.087042 -1.39979 0.285136 0.687841 -0.667512 1
-0.0985287 -0.0877174 -1.40099 0.220005 0.725145 -0.652505 1
-0.100016 -0.0883928 -1.40219 0.0677578 0.831838 -0.550866 1
-0.101504 -0.0890947 -1.40337 0.305716 0.639715 -0.705196 1
-0.102995 -0.0898187 -1.40454 0.247342 0.734901 -0.63146 1
-0.104485 -0.0905427 -1.4057 0.436427 0.0273239 -0.899325 1
-0.105907 -0.091268 -1.40695 0.309885 -0.790413 -0.528412 1
-0.107306 -0.0919937 -1.40822 -0.217841 0.963306 -0.1568 1
-0.108704 -0.0927195 -1.4095 -0.0627369 0.974926 -0.213503 1
-0.110037 -0.0938724 -1.41049 0.0576048 0.899519 -0.433068 1
-0.111365 -0.0950552 -1.41146 0.421263 -0.871568 -0.250813 1
-0.11278 -0.0960472 -1.41228 0.506381 -0.845193 -0.170957 1
-0.114779 -0.0957677 -1.4121 0.93549 0.311671 0.16649 1
-0.116778 -0.0954882 -1.41192 0.171527 0.369369 -0.913315 1
-0.118747 -0.0950962 -1.4117 -0.223141 0.194613 -0.955162 1
-0.120654 -0.0944719 -1.41142 -0.351822 0.132011 -0.926712 1
-0.122561 -0.0938476 -1.41114 -0.414831 0.0967043 -0.904745 1
-0.123991 -0.0944089 -1.41133 -0.458006 0.0554583 -0.887218 1
-0.124985 -0.0960571 -1.41197 -0.491135 0.0287491 -0.870609 1
-0.125979 -0.0977053 -1.4126 -0.512019 0.0376348 -0.85815 1
-0.12654 -0.0995939 -1.41268 -0.512678 0.0914115 -0.853701 1
-0.126932 -0.101577 -1.41254 -0.492234 0.176615 -0.852357 1
-0.127324 -0.103561 -1.4124 -0.465035 0.268004 -0.843752 1
-0.127841 -0.105505 -1.41216 -0.431183 0.358262 -0.828088 1
-0.12837 -0.107447 -1.41192 -0.38991 0.426037 -0.816372 1
-0.128899 -0.109381 -1.41165 -0.354723 0.388523 -0.850424 1
-0.129431 -0.111266 -1.41112 -0.336035 0.303768 -0.891519 1
-0.129963 -0.11315 -1.4106 -0.342436 0.08547 -0.935646 1
-0.130406 -0.114955 -1.40987 -0.347494 -0.408253 -0.844143 1
-0.130646 -0.116582 -1.40869 -0.257647 -0.830735 -0.493454 1
-0.130886 -0.118208 -1.4075 -0.184895 -0.944415 -0.271836 1
-0.131107 -0.119747 -1.40621 -0.144655 -0.967939 -0.205351 1
-0.131308 -0.121199 -1.40481 -0.113557 -0.911974 -0.394219 1
-0.13151 -0.12265 -1.40341 -0.0739871 -0.735095 -0.673915 1
-0.131413 -0.124129 -1.40204 -0.0718083 -0.538908 -0.839298 1
-0.131187 -0.12562 -1.40069 -0.102366 -0.429703 -0.897149 1
-0.13096 -0.127111 -1.39934 -0.139357 -0.429083 -0.89245 1
-0.13098 -0.128759 -1.39816 -0.17493 -0.477218 -0.861198 1
-0.13103 -0.130426 -1.39701 -0.206832 -0.520085 -0.828693 1
-0.13109 -0.13209 -1.39586 -0.234598 -0.557758 -0.796159 1
-0.131251 -0.133729 -1.39467 -0.259498 -0.591714 -0.763241 1
-0.131412 -0.135367 -1.39349 0.865771 0.254554 0.430863 1
-0.131388 -0.136848 -1.39218 -0.298092 -0.647695 -0.701165 1
-0.130895 -0.13793 -1.39054 -0.310823 -0.669753 -0.674403 1
-0.130402 -0.139012 -1.3889 0.856737 0.345111 0.383275 1
-0.129919 -0.140164 -1.3873 0.201082 -0.250364 0.94704 1
-0.129447 -0.141392 -1.38576 -0.311757 -0.761388 -0.568415 1
-0.128976 -0.14262 -1.38422 -0.29255 -0.801519 -0.521519 1
-0.128512 -0.143687 -1.38257 -0.261721 -0.848287 -0.460338 1
-0.128053 -0.144674 -1.38086 -0.217925 -0.89889 -0.380138 1
-0.127594 -0.145662 -1.37915 -0.163479 -0.945296 -0.282293 1
-0.127176 -0.146774 -1.37751 -0.126763 -0.946931 -0.295385 1
-0.126765 -0.147904 -1.37588 -0.105846 -0.930428 -0.350855 1
-0.126328 -0.149006 -1.37424 -0.0976783 -0.899911 -0.424993 1
-0.125532 -0.149695 -1.37251 -0.0928014 -0.861133 -0.499838 1
-0.124735 -0.150384 -1.37078 -0.0904602 -0.821496 -0.562993 1
-0.124056 -0.151255 -1.36912 -0.087752 -0.787069 -0.610591 1
-0.12371 -0.15264 -1.36768 -0.0850204 -0.762125 -0.641823 1
-0.123363 -0.154026 -1.36625 -0.0782395 -0.805102 -0.587953 1
-0.122408 -0.15491 -1.36496 -0.0644129 -0.849173 -0.524172 1
-0.120728 -0.155194 -1.36387 -0.041221 -0.886875 -0.460167 1
-0.119048 -0.155479 -1.36277 -0.0241848 -0.926923 -0.374472 1
-0.117451 -0.155484 -1.36154 -0.012521 -0.966881 -0.25492 1
-0.115899 -0.15534 -1.36025 -0.00854026 -0.996475 -0.0834503 1
-0.114346 -0.155195 -1.35896 -0.0195759 -0.99279 0.118254 1
-0.11298 -0.154752 -1.35753 0.150972 0.987663 -0.0415829 1
-0.111648 -0.154256 -1.35609 0.101902 0.937126 -0.333783 1
-0.110326 -0.153756 -1.35464 0.113733 0.919977 -0.375109 1
-0.109235 -0.153178 -1.35303 0.134198 0.986373 -0.0951835 1
-0.108143 -0.152601 -1.35143 0.223059 0.961165 0.162502 1
-0.107051 -0.152024 -1.34982 0.220147 0.963104 0.154811 1
-0.105954 -0.151445 -1.34822 0.21663 0.965355 0.145471 1
-0.104856 -0.150866 -1.34661 0.212739 0.967727 0.135079 1
-0.103763 -0.150317 -1.345 0.208436 0.970206 0.123507 1
-0.102674 -0.149805 -1.34337 0.203664 0.972777 0.110571 1
-0.101585 -0.149293 -1.34174 0.198346 0.975417 0.0960191 1
-0.100349 -0.148873 -1.34019 0.190789 0.978755 0.0750842 1
-0.0990266 -0.148508 -1.3387 0.181439 0.982195 0.0487214 1
-0.0977042 -0.148143 -1.33721 0.171184 0.985053 0.0191505 1
-0.0963409 -0.147709 -1.33578 0.159691 0.987054 -0.0149423 1
-0.094969 -0.147261 -1.33435 0.147331 0.98767 -0.0529362 1
-0.0935957 -0.146813 -1.33293 0.134354 0.986401 -0.0946672 1
-0.0921566 -0.146415 -1.33156 0.120329 0.98245 -0.142524 1
-0.0907175 -0.146016 -1.33019 0.102096 0.975493 -0.194907 1
-0.089171 -0.145622 -1.32902 0.063506 0.962873 -0.262379 1
-0.0872376 -0.145247 -1.32854 0.0758526 0.938157 -0.3378 1
