# .PCD v0.7 - Point Cloud Data file format
# 5 152 0
# 1 23 0
# 24 47 0
# 48 80 0
# 81 122 0
# 123 152 0
VERSION 0.7
FIELDS x y z normal_x normal_y normal_z curvature
SIZE 4 4 4 4 4 4 4
TYPE F F F F F F F
COUNT 1 1 1 1 1 1 1
WIDTH 152
HEIGHT 1
VIEWPOINT 0 0 0 1 0 0 0
POINTS 152
DATA ascii
0.202674 0.107657 -1.71728 -0.757672 -0.652613 -0.00547963 0.01
0.202841 0.107244 -1.71539 -0.762594 -0.646182 -0.0300001 1
0.203148 0.106797 -1.71354 -0.767569 -0.638453 -0.0567096 1
0.20241 0.107592 -1.71194 -0.77329 -0.630065 -0.0710041 1
0.202052 0.107858 -1.71006 -0.77962 -0.61957 -0.0912476 1
0.201585 0.107881 -1.70819 -0.785387 -0.609388 -0.108687 1
0.20098 0.10873 -1.70656 -0.791064 -0.600404 -0.117188 1
0.200198 0.109236 -1.70486 -0.797341 -0.590005 -0.127052 1
0.199543 0.109537 -1.70307 -0.804352 -0.57746 -0.139846 1
0.198931 0.109998 -1.7013 -0.811949 -0.563505 -0.152322 1
0.198477 0.110219 -1.69943 -0.817603 -0.549375 -0.172372 1
0.19857 0.109505 -1.69764 -0.821713 -0.530754 -0.207574 1
0.197644 0.110474 -1.69625 -0.820059 -0.527061 -0.222956 1
0.196981 0.110687 -1.69444 -0.820875 -0.512024 -0.252974 1
0.196157 0.111094 -1.69274 -0.819865 -0.502015 -0.275323 1
0.195531 0.111066 -1.69091 -0.819311 -0.489307 -0.298843 1
0.194924 0.111084 -1.68908 -0.818615 -0.47889 -0.31707 1
0.193907 0.11182 -1.68761 -0.816702 -0.477401 -0.32417 1
0.192904 0.112401 -1.68606 -0.815517 -0.475945 -0.329253 1
0.191846 0.112812 -1.6845 -0.816629 -0.47364 -0.329821 1
0.190973 0.113145 -1.68281 -0.818431 -0.471755 -0.328052 1
0.190178 0.113324 -1.68105 -0.821025 -0.470164 -0.323826 1
0.189113 0.114686 -1.68019 -0.818773 -0.478693 -0.316961 1
0.188057 0.115356 -1.67872 -0.819313 -0.482737 -0.309341 1
0.186978 0.116739 -1.67791 -0.816278 -0.492235 -0.302317 1
0.18604 0.118286 -1.67723 -0.81217 -0.502856 -0.29583 1
0.185158 0.119678 -1.67622 -0.802287 -0.517954 -0.29675 1
0.183835 0.120413 -1.67502 -0.792166 -0.532072 -0.298952 1
0.182619 0.121391 -1.67387 -0.781071 -0.547117 -0.300984 1
0.181584 0.122878 -1.6732 -0.768376 -0.563238 -0.30391 1
0.180274 0.123798 -1.67212 -0.75712 -0.577329 -0.305715 1
0.176122 0.12668 -1.6689 -0.72611 -0.615325 -0.306823 1
0.17523 0.127003 -1.66721 -0.728774 -0.619112 -0.292555 1
0.174523 0.127417 -1.66546 -0.730572 -0.622957 -0.279622 1
0.172995 0.128283 -1.66465 -0.731172 -0.624311 -0.274999 1
0.17179 0.129236 -1.66348 -0.732881 -0.624384 -0.27024 1
0.170875 0.129969 -1.66195 -0.73472 -0.623895 -0.266348 1
0.169718 0.131437 -1.66145 -0.738575 -0.619308 -0.266392 1
0.168608 0.132091 -1.66001 -0.741857 -0.615255 -0.266663 1
0.167539 0.13262 -1.65849 -0.739886 -0.613509 -0.275999 1
0.166483 0.133568 -1.65718 -0.732944 -0.61527 -0.290234 1
0.165026 0.134671 -1.65655 -0.726226 -0.619084 -0.298881 1
0.164094 0.135031 -1.6549 -0.718858 -0.61878 -0.316787 1
0.162859 0.136253 -1.65405 -0.710863 -0.623384 -0.325677 1
0.161568 0.136734 -1.6527 -0.702564 -0.623936 -0.342211 1
0.160191 0.137435 -1.65154 -0.69361 -0.625971 -0.356463 1
0.158786 0.138269 -1.6505 -0.685095 -0.628476 -0.368324 1
0.157484 0.138884 -1.64921 -0.691956 -0.618918 -0.371668 1
0.156193 0.139979 -1.64828 -0.698021 -0.615094 -0.366641 1
0.155136 0.140103 -1.64667 -0.705748 -0.602541 -0.372645 1
0.153876 0.140545 -1.64527 -0.714336 -0.59359 -0.370641 1
0.152686 0.141227 -1.64391 -0.723808 -0.58732 -0.362157 1
0.151461 0.142499 -1.64313 -0.728752 -0.593149 -0.342191 1
0.150207 0.143118 -1.64179 -0.732093 -0.595707 -0.330413 0.01
0.149013 0.144519 -1.6412 -0.722597 -0.613141 -0.319236 1
0.147769 0.14597 -1.64149 -0.710188 -0.636557 -0.300712 1
0.146831 0.147346 -1.64247 -0.693374 -0.666757 -0.273254 1
0.14581 0.14871 -1.64338 -0.671887 -0.702122 -0.235779 1
0.145088 0.149873 -1.64474 -0.643267 -0.740824 -0.193358 1
0.143798 0.151074 -1.64554 -0.629891 -0.755657 -0.179502 1
0.14288 0.152213 -1.6468 -0.615376 -0.769695 -0.169945 1
0.141587 0.153375 -1.64765 -0.602623 -0.782218 -0.158055 1
0.140494 0.154438 -1.64883 -0.574034 -0.809063 -0.126107 1
0.138878 0.155391 -1.64837 -0.551237 -0.829494 -0.0898821 1
0.137095 0.156136 -1.64834 -0.513505 -0.857023 -0.0427064 1
0.136066 0.157071 -1.64968 -0.451506 -0.892124 0.0160569 1
0.134557 0.15777 -1.65067 -0.387139 -0.918941 0.075308 1
0.133778 0.158242 -1.65237 -0.377996 -0.924156 0.0552629 1
0.131986 0.15884 -1.65278 -0.366691 -0.929136 0.0473786 1
0.130183 0.159361 -1.65324 -0.348075 -0.936673 0.0385672 1
0.128657 0.159696 -1.65438 -0.324115 -0.945924 0.0132939 1
0.127445 0.160017 -1.65585 -0.290198 -0.956967 -7.96906e-05 1
0.126078 0.160551 -1.65711 -0.266977 -0.963699 0.00281727 1
0.125058 0.161027 -1.65868 -0.26788 -0.963289 0.017722 1
0.125239 0.161541 -1.66054 -0.272165 -0.960706 0.0544944 1
0.125249 0.161121 -1.66242 -0.284727 -0.955202 0.0807459 1
0.124197 0.160731 -1.664 -0.326943 -0.94477 0.0227742 1
0.123825 0.161102 -1.66586 -0.347884 -0.931346 -0.107575 0.01
0.12378 0.161449 -1.66776 -0.326291 -0.882983 -0.337455 1
0.124177 0.1617 -1.66963 -0.0262761 -0.987983 -0.152313 1
0.125446 0.161893 -1.67107 0.0911165 -0.995632 0.0203847 1
0.127183 0.161883 -1.67192 0.0415367 -0.998206 -0.0431256 1
0.128932 0.161963 -1.67274 -0.0636908 -0.979389 -0.191676 1
0.13057 0.162001 -1.67377 -0.0521294 -0.989093 -0.137758 1
0.132144 0.162117 -1.67488 0.0493157 -0.994426 0.0931922 1
0.133828 0.162148 -1.67583 -0.0144839 -0.993898 0.109346 1
0.13551 0.1616 -1.67661 -0.577323 -0.50756 -0.639594 1
0.136873 0.160833 -1.67774 -0.661796 -0.213341 -0.718688 1
0.138079 0.159975 -1.67899 -0.689812 -0.100641 -0.71696 1
0.139072 0.159034 -1.68035 0.0356139 -0.77253 0.633979 1
0.140047 0.157911 -1.68159 0.0534119 -0.73136 0.679897 1
0.140796 0.156698 -1.68289 0.083839 -0.693392 0.715667 1
0.141624 0.155464 -1.68413 0.0933712 -0.673779 0.73301 1
0.142313 0.154156 -1.68537 0.104313 -0.653956 0.749306 1
0.142808 0.152778 -1.68663 0.116868 -0.634513 0.764025 1
0.142989 0.151373 -1.68795 0.131687 -0.616453 0.776302 1
0.143211 0.149935 -1.68922 0.134899 -0.604328 0.785232 1
0.143047 0.148479 -1.69048 0.141368 -0.594749 0.791384 1
0.142684 0.147018 -1.69169 0.145743 -0.589578 0.794454 1
0.142101 0.145603 -1.69287 0.150352 -0.588829 0.79415 1
0.141497 0.144187 -1.69404 0.146086 -0.592887 0.791924 1
0.140778 0.14279 -1.69517 0.133285 -0.60101 0.78805 1
0.140045 0.141379 -1.69626 0.13029 -0.614658 0.777959 1
0.139209 0.139988 -1.69731 0.12932 -0.627734 0.767611 1
0.138333 0.138606 -1.69834 0.129373 -0.6401 0.757321 1
0.137293 0.137281 -1.69929 0.130536 -0.65139 0.74743 1
0.136676 0.135941 -1.70054 0.131355 -0.663816 0.73627 1
0.136178 0.13451 -1.70174 0.132564 -0.676497 0.724416 1
0.135878 0.133111 -1.70304 0.134006 -0.689661 0.711625 1
0.13661 0.131911 -1.70436 0.135917 -0.702958 0.698124 1
0.13745 0.130751 -1.70566 0.140361 -0.71632 0.683509 0.01
0.139218 0.130469 -1.70639 0.14885 -0.723505 0.67408 1
0.141076 0.13039 -1.70691 0.161371 -0.728637 0.665618 1
0.142952 0.13039 -1.70738 0.178094 -0.733178 0.656302 1
0.144811 0.130303 -1.7079 0.196906 -0.737873 0.645579 1
0.146706 0.130381 -1.70827 0.216148 -0.739816 0.637144 1
0.148611 0.130544 -1.70855 0.235601 -0.739525 0.630551 1
0.150507 0.130902 -1.70866 0.255068 -0.735256 0.627964 1
0.152394 0.131311 -1.70874 0.275139 -0.728116 0.62781 1
0.154254 0.131838 -1.70873 0.279546 -0.731096 0.622377 1
0.156013 0.132591 -1.70846 0.269093 -0.73759 0.619314 1
0.157914 0.132899 -1.70863 0.250173 -0.750139 0.612132 1
0.159814 0.133068 -1.70893 0.213954 -0.769154 0.602184 1
0.161705 0.13319 -1.70931 0.14797 -0.796408 0.586378 1
0.163583 0.133238 -1.70977 0.0322266 -0.832386 0.553258 1
0.16546 0.133283 -1.71022 -0.146652 -0.866815 0.476577 1
0.167345 0.13337 -1.71064 -0.290785 -0.86863 0.401156 1
0.168674 0.132244 -1.71148 -0.342662 -0.877893 0.334494 1
0.169674 0.131052 -1.71263 -0.374417 -0.888162 0.266422 1
0.170854 0.130227 -1.71392 -0.403055 -0.89237 0.203035 1
0.172345 0.129753 -1.71505 -0.424019 -0.891407 0.160005 1
0.174168 0.129629 -1.71568 -0.428088 -0.890508 0.154066 1
0.175293 0.128704 -1.71695 -0.449369 -0.884652 0.124332 1
0.176448 0.127699 -1.71813 -0.475323 -0.871864 0.117988 1
0.176932 0.126474 -1.71954 -0.507693 -0.856303 0.094831 1
0.17829 0.12553 -1.72054 -0.521562 -0.846201 0.109171 1
0.179989 0.124874 -1.72119 -0.519519 -0.842626 0.141708 1
0.181523 0.12399 -1.72197 -0.516913 -0.838683 0.171497 1
0.183171 0.122982 -1.72191 -0.486278 -0.844344 0.224982 1
0.184693 0.121848 -1.72154 -0.446306 -0.849947 0.280002 1
0.186295 0.120768 -1.72156 -0.411814 -0.852721 0.321365 1
0.188074 0.120167 -1.7211 -0.367251 -0.851724 0.373754 1
0.189763 0.119516 -1.72178 -0.409404 -0.843672 0.347285 1
0.191063 0.118348 -1.72261 -0.451946 -0.832988 0.319179 1
0.192757 0.117471 -1.7223 -0.546406 -0.79998 0.247935 1
0.194226 0.116591 -1.7214 -0.639868 -0.751051 0.162764 1
0.195513 0.11569 -1.72028 -0.714234 -0.695919 0.0746086 1
0.19652 0.114476 -1.71916 -0.746052 -0.665138 0.0315783 1
0.197632 0.1129 -1.71929 -0.753036 -0.657462 0.0260893 1
0.198962 0.111952 -1.71826 -0.757982 -0.652078 0.0160543 1
0.20024 0.110503 -1.71822 -0.758815 -0.651208 0.0113495 1
0.201414 0.109062 -1.71769 -0.758114 -0.652108 0.00440078 1
