# .PCD v0.7 - Point Cloud Data file format
# 3 134 0
# 1 96 0
# 97 132 0
# 133 134 0
VERSION 0.7
FIELDS x y z normal_x normal_y normal_z curvature
SIZE 4 4 4 4 4 4 4
TYPE F F F F F F F
COUNT 1 1 1 1 1 1 1
WIDTH 134
HEIGHT 1
VIEWPOINT 0 0 0 1 0 0 0
POINTS 134
DATA ascii
0.0361833 0.149578 -1.71667 0.00384098 0.294097 0.955768 0.01
0.0357057 0.151171 -1.71782 -0.0499207 0.33941 0.939313 1
0.035219 0.152751 -1.71899 -0.132 0.42606 0.895013 1
0.0152072 0.0951328 -1.73758 -0.643982 0.450208 -0.618547 1
0.0145741 0.0932605 -1.73802 -0.617562 0.520794 -0.589399 1
0.0139093 0.0914103 -1.7385 -0.576425 0.595645 -0.559412 1
0.0131492 0.0896259 -1.73908 -0.5243 0.657152 -0.541535 1
0.012421 0.0878046 -1.73957 -0.486617 0.680823 -0.547434 1
0.0117247 0.0859464 -1.73997 -0.495686 0.651315 -0.57453 1
0.0109715 0.0841207 -1.74041 -0.503792 0.613327 -0.608296 1
0.0101995 0.0823059 -1.74087 -0.506524 0.577158 -0.640563 1
0.00945385 0.080468 -1.74128 -0.501377 0.553944 -0.664656 1
0.00874491 0.0786084 -1.74163 -0.498611 0.583982 -0.640587 1
0.00814597 0.0766834 -1.74181 -0.499609 0.631641 -0.592807 1
0.00753139 0.0747621 -1.74198 -0.498298 0.665849 -0.555287 1
0.00690116 0.0728444 -1.74214 -0.580416 -0.332867 0.74318 1
0.00634368 0.0709032 -1.74208 -0.54417 -0.276296 0.792174 1
0.00581044 0.0689541 -1.74196 -0.510169 -0.20911 0.834267 1
0.00530635 0.0670023 -1.74177 -0.477316 -0.133608 0.868515 1
0.00481617 0.0650519 -1.74155 -0.445796 -0.051756 0.893637 1
0.00436775 0.063106 -1.74121 -0.419212 0.0325319 0.907305 1
0.00392842 0.0611643 -1.74085 -0.398161 0.116616 0.909873 1
0.00349817 0.0592266 -1.74045 -0.385222 0.196946 0.901563 1
0.00306806 0.0572994 -1.74 -0.383474 0.270507 0.883048 1
0.00263799 0.0553757 -1.73954 -0.397068 0.334734 0.85457 1
0.00257407 0.0536699 -1.73845 -0.453786 0.357652 0.816188 1
0.00261944 0.0520997 -1.73723 -0.539531 0.306154 0.784331 1
0.00299269 0.0509367 -1.73562 -0.594938 0.280138 0.753374 1
0.00366477 0.0497867 -1.73413 -0.627405 0.25228 0.736693 1
0.00463569 0.0486497 -1.73276 -0.639922 0.215715 0.737541 1
0.00561321 0.0475352 -1.73139 -0.63844 0.16211 0.752406 1
0.00659294 0.0464283 -1.73 -0.623336 0.0976522 0.775833 1
0.00768417 0.0455717 -1.72853 -0.699752 0.046445 0.712874 1
0.00877815 0.0447206 -1.72705 -0.775866 0.00980996 0.630822 1
0.00988038 0.0438859 -1.72557 -0.837982 -0.0166515 0.545444 1
0.0109861 0.043068 -1.72409 -0.884016 -0.0391902 0.465811 1
0.0120953 0.0422668 -1.7226 -0.915185 -0.0627817 0.398114 1
0.0132156 0.0414893 -1.7211 -0.916159 -0.091515 0.390228 1
0.0143396 0.0407198 -1.7196 -0.884078 -0.108332 0.454611 1
0.015485 0.040004 -1.71809 -0.854325 -0.0969099 0.510625 1
0.0166357 0.0393066 -1.71658 -0.826632 -0.054965 0.560053 1
0.0178019 0.0386641 -1.71506 -0.794717 0.0173777 0.606731 1
0.0189763 0.0380525 -1.71352 -0.75136 0.113292 0.650095 1
0.0201589 0.0374716 -1.71199 -0.691262 0.221075 0.687956 1
0.0213441 0.0368927 -1.71045 -0.707346 0.340424 0.619494 1
0.0225303 0.0363144 -1.70892 -0.737369 0.423243 0.526452 1
0.0237423 0.035811 -1.70737 -0.765719 0.468039 0.441151 1
0.0249531 0.035304 -1.70583 -0.794448 0.485073 0.365455 1
0.0261598 0.0347865 -1.70429 -0.82273 0.482348 0.300759 1
0.0273777 0.0343017 -1.70275 -0.8503 0.464778 0.246922 1
0.0286068 0.0338496 -1.70121 -0.870004 0.439724 0.223016 1
0.0296298 0.0339606 -1.6995 -0.853811 0.422955 0.303506 1
0.0305841 0.0342593 -1.69774 -0.815706 0.416231 0.401717 1
0.0315244 0.0348783 -1.69606 -0.75277 0.414443 0.511443 1
0.0324645 0.0355094 -1.69438 -0.664305 0.417991 0.619663 1
0.0334041 0.0361771 -1.69271 -0.567377 0.419207 0.708766 1
0.034343 0.0368596 -1.69106 -0.559715 0.430831 0.707887 1
0.0352812 0.0375568 -1.6894 -0.696053 0.453574 0.55658 1
0.0362234 0.038314 -1.68778 -0.837433 0.436687 0.328649 1
0.0371669 0.0390912 -1.68617 -0.925697 0.368785 0.084162 1
0.0383302 0.04024 -1.68497 -0.95349 0.290343 -0.0809781 1
0.0394896 0.0414032 -1.68379 -0.95467 0.223322 -0.196808 1
0.0406373 0.0426094 -1.68264 -0.945611 0.168943 -0.27799 1
0.0415625 0.0439361 -1.68145 -0.931519 0.120605 -0.343113 1
0.0422651 0.0453834 -1.68022 -0.914397 0.0763606 -0.397552 1
0.0428762 0.0469188 -1.67905 -0.897018 0.0378202 -0.440373 1
0.0434568 0.0484836 -1.6779 -0.880268 0.00439073 -0.474456 1
0.0440271 0.050044 -1.67675 0.413284 0.159127 0.896591 1
0.0447016 0.0516245 -1.67572 0.410548 0.140411 0.900964 1
0.0456888 0.0532657 -1.67506 0.413766 0.117473 0.902772 1
0.0455597 0.0548164 -1.67441 0.405478 0.0975786 0.908882 1
0.0443144 0.0562766 -1.67376 0.381776 0.0797556 0.920807 1
0.0428803 0.0575577 -1.67315 0.347145 0.0637035 0.935645 1
0.0413833 0.0587792 -1.67254 0.294283 0.0482792 0.954498 1
0.0418738 0.0607284 -1.67279 0.308853 0.0130951 0.95102 1
0.0423643 0.0626682 -1.67308 0.324174 -0.0208358 0.945768 1
0.0428546 0.0645797 -1.67353 0.341671 -0.0524261 0.938356 1
0.0434578 0.0664804 -1.67382 0.361279 -0.0813492 0.928902 1
0.0441738 0.0683704 -1.67394 0.38305 -0.106791 0.917534 1
0.0449445 0.070238 -1.67406 0.407752 -0.109606 0.90649 1
0.0457334 0.0720981 -1.67419 0.426466 -0.115383 0.897114 1
0.0472862 0.0733436 -1.67456 0.451407 -0.121735 0.883976 1
0.048297 0.0747397 -1.6747 0.463709 -0.134043 0.875789 1
0.0476818 0.0765874 -1.67414 0.44755 -0.149961 0.881596 1
0.0468141 0.0782683 -1.6735 0.413905 -0.152657 0.897429 1
0.0456939 0.0797823 -1.67275 0.345434 -0.118705 0.930905 1
0.044476 0.0811748 -1.67194 0.213601 -0.0101801 0.976868 1
0.0432257 0.0825267 -1.6711 0.31735 -0.100855 0.94293 1
0.0434271 0.0845306 -1.67089 0.376998 -0.16547 0.911313 1
0.0435925 0.0865366 -1.67079 0.29448 -0.108705 0.949455 1
0.0436497 0.0885492 -1.671 -0.299192 0.593039 0.747522 1
0.0437142 0.090566 -1.67115 -0.429633 0.223796 -0.874832 1
0.0437861 0.092587 -1.67125 -0.470539 0.117965 -0.874458 1
0.0440695 0.0945224 -1.67083 -0.492756 0.0163051 -0.870015 1
0.0444235 0.0964292 -1.67025 -0.512082 -0.0808169 -0.855126 1
0.0446583 0.0984251 -1.67001 -0.517095 -0.164381 -0.839995 1
0.0448989 0.100414 -1.66972 -0.0135617 0.284935 0.958451 1
0.045157 0.102381 -1.66932 -0.00757606 0.30888 0.951071 1
0.045059 0.103852 -1.66997 -0.0123743 0.335504 0.941957 0.01
0.0446048 0.104827 -1.67169 -0.485203 -0.311111 -0.817183 1
0.0442845 0.105924 -1.67336 -0.479345 -0.312867 -0.819965 1
0.0440088 0.107061 -1.67501 -0.473474 -0.318237 -0.821308 0.499646
0.0445693 0.107283 -1.67694 -0.479961 -0.314414 -0.819012 1
0.0453405 0.107501 -1.67875 -0.0709506 0.495861 0.865499 1
0.0467437 0.107703 -1.6802 -0.0702062 0.506276 0.859509 1
0.0482923 0.107816 -1.68147 -0.0712531 0.511559 0.856289 1
0.0499862 0.10784 -1.68258 -0.0747876 0.510039 0.856894 1
0.0499556 0.108564 -1.68412 -0.0958674 0.558857 0.823704 1
0.0493502 0.109522 -1.6858 -0.116413 0.621651 0.774596 1
0.0490372 0.111245 -1.68681 -0.12797 0.675424 0.726241 1
0.0487154 0.112925 -1.68789 -0.124924 0.712602 0.690356 1
0.0483672 0.114478 -1.68914 -0.104774 0.730338 0.675003 1
0.0480097 0.116065 -1.69034 -0.0653653 0.723714 0.686997 1
0.0476429 0.117687 -1.6915 -0.00469564 0.687769 0.725914 1
0.0473213 0.119324 -1.69264 0.0710786 0.628112 0.77487 1
0.0470148 0.120967 -1.69379 0.140429 0.552362 0.82169 1
0.0466208 0.12265 -1.69484 0.163963 0.465248 0.869862 1
0.0462229 0.124282 -1.69596 0.140838 0.438038 0.887856 1
0.0458136 0.12576 -1.69728 0.116456 0.421441 0.899347 1
0.045408 0.127346 -1.69846 0.0874513 0.417126 0.904631 1
0.0450062 0.129039 -1.69949 0.0516056 0.427886 0.902358 1
0.0444105 0.130536 -1.70071 0.00424734 0.458198 0.88884 1
0.0437501 0.131967 -1.70198 -0.0586185 0.50919 0.858655 1
0.0428899 0.133078 -1.70343 -0.147054 0.580779 0.800669 1
0.0420864 0.13429 -1.70482 -0.264536 0.663055 0.70027 1
0.0414528 0.135807 -1.70601 -0.381897 0.726679 0.571046 1
0.0408171 0.137296 -1.70722 -0.369588 0.735021 0.568462 1
0.0401793 0.138758 -1.70847 -0.277128 0.725919 0.629477 1
0.0395795 0.140275 -1.70966 -0.200301 0.711508 0.673525 1
0.0389924 0.141811 -1.71084 -0.15692 0.622829 0.766459 1
0.0383694 0.143278 -1.71209 -0.107434 0.525102 0.844231 1
0.0377531 0.144771 -1.71331 -0.0604878 0.434742 0.898521 1
0.0371565 0.146343 -1.71444 -0.0197566 0.359529 0.932925 1
0.0366332 0.147945 -1.71556 0.01327 0.302681 0.953 1
