# .PCD v0.7 - Point Cloud Data file format
# 3 30 0
# 1 5 0
# 6 27 0
# 28 30 0
VERSION 0.7
FIELDS x y z normal_x normal_y normal_z curvature
SIZE 4 4 4 4 4 4 4
TYPE F F F F F F F
COUNT 1 1 1 1 1 1 1
WIDTH 30
HEIGHT 1
VIEWPOINT 0 0 0 1 0 0 0
POINTS 30
DATA ascii
0.193624 -0.0460645 -1.34118 -0.848491 0.363552 0.384568 0.01
0.193215 -0.0467953 -1.34142 -0.83628 0.366554 0.407767 1
0.193785 -0.0461806 -1.34085 0.456407 -0.167981 -0.873771 1
0.194354 -0.045566 -1.34029 -0.877549 0.335987 0.342082 1
0.204003 -0.029321 -1.33467 -0.906301 0.292947 -0.304632 1
0.204391 -0.0284781 -1.33507 -0.922736 0.340349 -0.180889 1
0.20478 -0.0276351 -1.33547 -0.924437 0.368245 -0.0990557 1
0.204457 -0.0277455 -1.33635 -0.884174 0.455752 0.102598 1
0.20408 -0.0279291 -1.33727 -0.843691 0.508182 0.173021 0.01
0.203579 -0.0286843 -1.33753 -0.820852 0.524878 0.225177 1
0.203057 -0.0295347 -1.33769 -0.805735 0.529904 0.264562 1
0.202489 -0.030333 -1.33793 -0.794648 0.53083 0.29454 1
0.201908 -0.0311171 -1.33819 -0.789294 0.52596 0.316829 1
0.201415 -0.0316639 -1.33882 -0.796555 0.521935 0.305098 1
0.200958 -0.0321157 -1.3396 -0.805486 0.523704 0.277357 1
0.200432 -0.0328057 -1.33998 -0.811505 0.520256 0.266069 1
0.199869 -0.0336282 -1.34014 -0.816897 0.514629 0.260454 1
0.19933 -0.0344751 -1.3402 -0.821717 0.508888 0.256543 1
0.19881 -0.0353403 -1.34017 0.314455 -0.174838 -0.933033 1
0.198307 -0.0362085 -1.34024 -0.850976 0.463745 0.246538 1
0.197824 -0.0370796 -1.34041 -0.86947 0.433206 0.237393 1
0.197361 -0.0379622 -1.34043 -0.884861 0.404172 0.231657 1
0.196926 -0.0388603 -1.34028 -0.897189 0.377167 0.229776 1
0.19654 -0.0397819 -1.34016 -0.907688 0.351837 0.228722 1
0.196241 -0.0407458 -1.34013 -0.916497 0.327317 0.229992 1
0.1959 -0.041686 -1.34016 0.596681 0.0850307 -0.797961 1
0.195455 -0.0425667 -1.34038 -0.9223 0.293296 0.251674 1
0.195009 -0.0434503 -1.34058 -0.914577 0.292424 0.279352 1
0.194561 -0.0443446 -1.34072 -0.891272 0.323711 0.31756 1
0.194109 -0.0452303 -1.34088 -0.868433 0.348608 0.352558 1
