# .PCD v0.7 - Point Cloud Data file format
# 4 173 0
# 1 38 0
# 39 61 0
# 62 137 0
# 138 173 0
VERSION 0.7
FIELDS x y z normal_x normal_y normal_z curvature
SIZE 4 4 4 4 4 4 4
TYPE F F F F F F F
COUNT 1 1 1 1 1 1 1
WIDTH 173
HEIGHT 1
VIEWPOINT 0 0 0 1 0 0 0
POINTS 173
DATA ascii
-30.4258 91.8884 361.227 -0.363514 0.795988 0.484005 0.01
-31.7704 90.7723 361.658 -0.364167 0.794851 0.485381 0.00334704
-33.0459 89.7335 362.389 -0.370986 0.788805 0.490057 0.00845965
-34.6522 88.9303 362.268 -0.390327 0.78152 0.486694 0.0108516
-36.1269 88.0366 362.785 -0.405065 0.771123 0.491215 0.00698337
-37.7643 87.3779 362.431 -0.406313 0.766567 0.497277 0.00562871
-39.1398 86.222 362.54 -0.411264 0.758622 0.505326 0.00755994
-40.3068 85.0238 363.205 -0.419431 0.749058 0.512826 0.00837407
-41.3669 83.7785 363.957 -0.429251 0.738939 0.519339 0.0083856
-42.0143 82.919 365.4 -0.43851 0.730025 0.524187 0.00865639
-42.991 81.7363 366.342 -0.450234 0.719058 0.529382 0.00888766
-43.8694 80.4919 367.301 -0.459083 0.70854 0.535924 0.00736802
-44.9786 79.0918 367.079 -0.458233 0.701746 0.545504 0.00758051
-45.5564 78.2614 368.568 -0.464999 0.692432 0.551647 0.00823165
-46.4817 76.9308 369.351 -0.468332 0.681207 0.562693 0.00926701
-47.3194 75.6013 370.229 -0.472191 0.668888 0.57413 0.00931808
-48.3048 74.1844 370.741 -0.475015 0.657362 0.585009 0.00924137
-49.0658 72.9408 371.796 -0.48069 0.644625 0.594471 0.00940246
-49.8175 71.5725 372.692 -0.487187 0.631569 0.603133 0.00958071
-50.6037 70.1822 373.522 -0.495228 0.617897 0.610698 0.0100438
-51.336 68.7868 374.392 -0.505325 0.603458 0.616835 0.0100842
-52.1576 67.3025 374.993 -0.511737 0.589196 0.625278 0.00928391
-52.778 65.905 375.943 -0.513037 0.577065 0.635444 0.00932717
-53.5252 64.4261 376.646 -0.509672 0.565284 0.648605 0.00987479
-54.1939 62.8497 377.201 -0.506857 0.55327 0.66105 0.00941635
-54.8867 61.3184 377.846 -0.505787 0.541009 0.671929 0.00855044
-55.3779 59.8785 378.808 -0.51095 0.528228 0.678163 0.00834151
-55.8633 58.3432 379.612 -0.515019 0.51555 0.684809 0.00831428
-56.5909 56.8291 380.259 -0.516399 0.50297 0.693076 0.00826391
-57.0554 55.2621 381.013 -0.522127 0.489992 0.698063 0.00841457
-57.375 53.717 381.879 -0.530097 0.477168 0.700933 0.00896439
-58.0878 52.0904 382.173 -0.534895 0.462473 0.707111 0.0107546
-58.4228 50.5606 383.06 -0.54538 0.443912 0.710988 0.0120066
-58.7834 48.9562 383.792 -0.555447 0.425252 0.71459 0.0119218
-59.1575 47.2883 384.356 -0.565398 0.406597 0.717638 0.0114532
-59.3986 45.6806 385.129 -0.575027 0.389419 0.719511 0.0108103
-59.6318 44.0287 385.805 -0.584055 0.37264 0.721124 0.0112292
-60.0043 43.0002 385.752 -0.590153 0.361716 0.721721 0.0102149
-60.0941 41.4871 386.723 -0.596978 0.34786 0.722918 0.00896568
-60.3363 39.8244 387.368 -0.604196 0.332952 0.723941 0.0093677
-60.6433 38.0774 387.674 -0.611923 0.317844 0.724241 0.00835232
-60.5755 36.5852 388.679 -0.614414 0.30575 0.727332 0.00776784
-60.7159 34.8785 389.233 -0.619082 0.2916 0.729183 0.00810226
-60.8218 33.19 389.848 -0.62237 0.278033 0.731679 0.00812383
-61.0626 31.408 389.929 -0.627899 0.264237 0.732067 0.00774852
-61.1671 29.6869 390.445 -0.629536 0.251536 0.735129 0.00722331
-61.2025 28.013 391.106 -0.62871 0.239469 0.73985 0.0074004
-61.0801 26.3344 391.744 -0.625726 0.22759 0.746103 0.0076935
-61.0642 24.625 392.308 -0.622421 0.215614 0.752398 0.00765575
-61.0398 22.8944 392.802 -0.618098 0.204487 0.759039 0.00799939
-60.9166 21.1972 393.389 -0.6116 0.193411 0.767162 0.0090817
-60.6502 19.5393 394.037 -0.603265 0.181326 0.776654 0.00967253
-60.4977 17.8171 394.538 -0.595128 0.16901 0.785658 0.0102451
-60.1567 16.1761 395.195 -0.585636 0.155165 0.795585 0.0104621
-60.0519 14.4172 395.562 -0.577006 0.142062 0.80429 0.0101486
-59.875 12.6493 395.851 -0.567935 0.128388 0.812999 0.0107596
-59.4833 10.9999 396.456 -0.559183 0.112525 0.821372 0.0106088
-59.1057 9.3138 396.96 -0.551518 0.0975763 0.828436 0.00921791
-58.9273 7.53533 397.173 -0.543463 0.0868544 0.834928 0.00851343
-58.5197 5.86494 397.706 -0.537157 0.0734743 0.840276 0.0089149
-58.2731 4.08518 397.814 -0.528843 0.0610748 0.84652 0.00913945
-57.7999 2.406 398.257 -0.523431 0.0457606 0.850838 0.0093907
-57.1158 0.869631 398.899 -0.522039 0.0286343 0.852441 0.00976007
-56.9247 -0.920094 398.879 -0.513184 0.0140588 0.858163 0.00993096
-56.2756 -2.52116 399.385 -0.512389 -0.00444164 0.858742 0.0102565
-55.8042 -4.25567 399.481 -0.507771 -0.0220249 0.861211 0.00953133
-55.2834 -5.95635 399.757 -0.505668 -0.0378919 0.861896 0.00890479
-54.4613 -7.44734 400.341 -0.51094 -0.0534692 0.857952 0.00848112
-53.8478 -9.11698 400.617 -0.511267 -0.0672607 0.856786 0.0072582
-53.3433 -10.8439 400.672 -0.508107 -0.0793778 0.857628 0.0068742
-52.7409 -12.5391 400.732 -0.505373 -0.0912513 0.858062 0.00732399
-51.8537 -14.0066 401.279 -0.504848 -0.105146 0.85678 0.00789114
-51.2494 -15.7021 401.279 -0.493282 -0.116106 0.862086 0.00927453
-50.5108 -17.3376 401.419 -0.48254 -0.127938 0.86648 0.00880522
-49.4867 -18.7365 401.903 -0.475218 -0.140955 0.868504 0.01
-47.9132 -18.6628 402.774 -0.475838 -0.146889 0.867181 0.00203027
-46.3386 -18.5574 403.64 -0.475868 -0.14807 0.866963 0.00485961
-44.8819 -18.4382 404.691 -0.460647 -0.145193 0.875627 0.0159007
-43.2507 -18.65 405.422 -0.425906 -0.143261 0.893354 0.0219073
-41.5882 -18.4314 406.076 -0.390988 -0.136405 0.910232 0.0214045
-40.1001 -18.4193 407.089 -0.357748 -0.128907 0.924878 0.0207481
-38.3482 -18.1774 407.424 -0.325995 -0.118084 0.937968 0.0180435
-36.6813 -17.8936 408.041 -0.300888 -0.107845 0.947542 0.015622
-34.9619 -17.8734 408.573 -0.275062 -0.102994 0.955894 0.0154803
-33.2148 -18.0894 408.949 -0.247794 -0.103396 0.963279 0.015853
-31.5443 -17.5833 409.388 -0.220963 -0.102285 0.969904 0.0120319
-29.7843 -17.6539 409.759 -0.206384 -0.108669 0.972418 0.00656413
-28.108 -17.1325 410.157 -0.199309 -0.109991 0.973744 0.00453876
-26.368 -16.9721 410.589 -0.190861 -0.112653 0.975131 0.00491536
-24.5973 -16.8564 410.891 -0.182419 -0.114412 0.976541 0.00554655
-22.8597 -16.6984 411.333 -0.171261 -0.113957 0.978613 0.00768043
-21.101 -16.6257 411.71 -0.155424 -0.111271 0.981561 0.0100165
-19.416 -16.0479 411.968 -0.138465 -0.10153 0.985149 0.0100886
-17.667 -16.4267 412.162 -0.123688 -0.0977553 0.987494 0.00864195
-15.8904 -16.7153 412.145 -0.10971 -0.0907902 0.989809 0.00837242
-14.1104 -16.897 412.341 -0.100786 -0.0787419 0.991787 0.0105988
-12.3215 -16.7893 412.509 -0.091416 -0.057731 0.994138 0.0171679
-10.8329 -15.7967 412.707 -0.0715126 -0.0269973 0.997074 0.01
-10.3108 -14.084 412.891 -0.0405422 -0.00531308 0.999164 0.0213901
-9.68919 -12.3971 412.802 -0.00833228 0.0164904 0.999829 0.0205731
-9.41837 -10.6189 412.872 0.022541 0.0326305 0.999213 0.022623
-8.35613 -9.16845 412.959 0.0613007 0.0538858 0.996664 0.0195389
-8.19074 -7.40661 412.63 0.0801516 0.0672147 0.994514 0.0141815
-7.53508 -5.73199 412.554 0.101664 0.0836445 0.991296 0.0143817
-6.88488 -4.06282 412.378 0.119714 0.0998914 0.98777 0.0126963
-6.53 -2.32591 412.066 0.133099 0.115807 0.984314 0.012409
-5.90796 -0.690155 411.645 0.147887 0.133455 0.979959 0.0115904
-5.54868 1.05414 411.383 0.160105 0.146328 0.976194 0.00921545
-5.11774 2.77543 411.081 0.170865 0.156282 0.972821 0.00737432
-4.68437 4.4748 410.675 0.178703 0.164248 0.970097 0.0053102
-4.22817 6.09562 410.039 0.183426 0.169885 0.968243 0.00309086
-4.17676 7.86335 409.704 0.179861 0.174992 0.968002 0.00411719
-4.12776 9.65595 409.548 0.172318 0.179666 0.968518 0.00489724
-3.66798 11.3049 408.992 0.163342 0.180047 0.970001 0.0070221
-3.45404 13.0446 408.583 0.147454 0.180682 0.972426 0.00994364
-3.51855 14.835 408.409 0.130083 0.192491 0.972638 0.0110876
-3.28442 16.602 408.158 0.113998 0.202179 0.972691 0.0102278
-2.97688 18.3362 407.786 0.0986485 0.211607 0.972364 0.00970845
-2.93377 20.094 407.401 0.0863258 0.223299 0.97092 0.00904738
-2.92786 21.8478 406.996 0.0763304 0.235082 0.968974 0.00851246
-2.63805 23.5304 406.426 0.065615 0.245393 0.967201 0.00767908
-2.84653 25.2774 406.046 0.0614987 0.257563 0.964302 0.00715304
-2.77821 26.9953 405.513 0.0562978 0.268625 0.961598 0.00691136
-2.77426 28.7094 404.963 0.0533836 0.280332 0.958418 0.00723647
-2.30407 30.3485 404.387 0.0471409 0.291931 0.955277 0.00712776
-2.50529 32.0677 403.893 0.0492198 0.304155 0.95135 0.00721997
-2.33574 33.7399 403.249 0.0489422 0.316446 0.947347 0.00721119
-2.32523 35.4669 402.742 0.0518505 0.328563 0.943058 0.00740986
-2.25779 37.1593 402.132 0.0556944 0.340683 0.938527 0.00764546
-2.04127 38.7958 401.415 0.0597025 0.353166 0.933654 0.00791886
-2.34558 40.5087 400.953 0.0696232 0.363226 0.929096 0.00833024
-2.38754 42.2043 400.35 0.0787006 0.374134 0.924029 0.00799496
-2.00739 43.8117 399.635 0.0855653 0.384697 0.919069 0.00760177
-2.22096 45.4702 398.969 0.0967448 0.391986 0.91487 0.00771363
-2.45941 47.1298 398.314 0.107716 0.399115 0.910552 0.00761483
-2.59096 48.7758 397.597 0.117887 0.40689 0.905838 0.00735357
-2.98878 50.3813 396.887 0.128148 0.413216 0.901571 0.00735314
-2.95178 51.9771 396.055 0.137135 0.421932 0.896196 0.00760598
-2.90119 53.6105 395.301 0.146184 0.430642 0.890605 0.00763059
-2.88067 55.2255 394.506 0.155222 0.439222 0.884868 0.0068747
-2.99062 56.7452 393.548 0.163686 0.444853 0.880518 0.00419363
-3.52594 58.3654 392.975 0.166994 0.446336 0.879146 0.00265679
-3.53442 59.9423 392.107 0.170032 0.450504 0.876433 0.0029132
-3.835 61.6147 391.513 0.167948 0.455487 0.874257 0.00382237
-4.06407 63.2394 390.773 0.163643 0.461751 0.871784 0.00462722
-4.10077 64.7486 389.792 0.158765 0.468333 0.869171 0.00534575
-4.13702 66.3254 388.925 0.151371 0.4756 0.86654 0.00776354
-4.61814 67.8907 388.178 0.138035 0.485717 0.863149 0.0103608
-4.99722 69.4849 387.433 0.123923 0.499188 0.857586 0.0126691
-5.28088 70.9688 386.454 0.109908 0.518171 0.848186 0.0151272
-5.81572 72.4355 385.558 0.0932081 0.539031 0.837113 0.0164864
-6.40424 73.906 384.703 0.0758281 0.560631 0.824587 0.0170762
-6.96767 75.3158 383.736 0.0586405 0.582441 0.810755 0.0175829
-7.68267 76.6801 382.805 0.0409035 0.604584 0.795491 0.0180172
-8.4855 77.9793 381.852 0.0229892 0.626411 0.779154 0.01998
-9.60983 79.0827 380.981 -0.00624366 0.647017 0.76245 0.0213365
-10.3753 80.2749 379.871 -0.0309685 0.667317 0.74413 0.0193922
-11.2196 81.2613 378.625 -0.0570416 0.681482 0.729609 0.0192981
-12.6927 82.0717 377.982 -0.0903188 0.688023 0.720046 0.0175288
-13.5831 83.1537 376.852 -0.115694 0.690871 0.713661 0.015221
-14.7662 83.9669 375.766 -0.142361 0.694433 0.705334 0.0110269
-15.9871 84.7775 374.721 -0.151994 0.698336 0.699446 0.00503389
-17.2552 85.5287 373.688 -0.15443 0.702631 0.694594 0.00399789
-18.1975 86.5018 372.502 -0.158326 0.706612 0.689662 0.00453291
-19.7163 87.0191 371.686 -0.158644 0.712828 0.683161 0.00561212
-21.1065 87.5826 370.691 -0.160652 0.720182 0.674929 0.00891974
-22.1231 88.7898 369.826 -0.176851 0.727892 0.662493 0.0170033
-23.2013 89.177 368.437 -0.207586 0.736827 0.643423 0.0218162
-24.3822 89.7842 367.222 -0.239873 0.746914 0.620145 0.0234446
-25.9075 90.0063 366.293 -0.271282 0.757399 0.59393 0.0242232
-26.6824 90.5638 364.767 -0.300935 0.76705 0.566633 0.0242914
-28.1512 90.9471 363.799 -0.329687 0.777204 0.535967 0.0218307
-29.4912 91.3302 362.66 -0.348999 0.787442 0.50807 0.0181971
