# .PCD v0.7 - Point Cloud Data file format
# 5 156 0
# 1 46 0
# 47 62 0
# 63 114 0
# 115 144 0
# 145 156 0
VERSION 0.7
FIELDS x y z normal_x normal_y normal_z curvature
SIZE 4 4 4 4 4 4 4
TYPE F F F F F F F
COUNT 1 1 1 1 1 1 1
WIDTH 156
HEIGHT 1
VIEWPOINT 0 0 0 1 0 0 0
POINTS 156
DATA ascii
26.9097 86.3032 378.595 0.529694 -0.768028 -0.359941 0.01
27.3639 85.872 380.283 0.531442 -0.760614 -0.372874 0.00800248
27.7776 85.2773 381.931 0.534234 -0.75304 -0.384088 0.0125475
28.4159 85.2185 383.613 0.559664 -0.730948 -0.390502 0.0116311
28.7608 84.3677 385.161 0.558369 -0.725665 -0.402038 0.00846099
29.2568 83.8052 386.797 0.567549 -0.712247 -0.413029 0.00840727
29.3942 82.7792 388.27 0.554608 -0.713101 -0.428832 0.0102148
30.0814 82.503 389.911 0.570254 -0.692268 -0.442239 0.0131031
30.5098 81.798 391.51 0.566324 -0.682465 -0.462081 0.0113386
30.9419 81.0947 393.11 0.559478 -0.676813 -0.478445 0.0103862
31.3662 80.2607 394.648 0.549038 -0.674085 -0.494132 0.0108271
31.7029 79.3095 396.138 0.535043 -0.674519 -0.508677 0.0115002
31.9116 78.252 397.58 0.518394 -0.677586 -0.521675 0.0101721
32.4298 77.8396 398.808 0.514111 -0.67232 -0.532612 0.00928818
33.0108 77.2732 400.415 0.505014 -0.66813 -0.54641 0.0106177
33.1573 76.0378 401.716 0.486683 -0.672436 -0.557646 0.0120236
33.5454 75.0447 403.166 0.471561 -0.669916 -0.573448 0.0118554
34.1081 74.2279 404.668 0.458837 -0.665219 -0.589027 0.0109784
34.6505 73.5062 406.225 0.447183 -0.660545 -0.603082 0.00972607
34.7345 72.1545 407.411 0.435363 -0.659391 -0.612913 0.00822573
35.1483 71.0976 408.808 0.427241 -0.65453 -0.623743 0.00733647
35.7828 70.4113 410.346 0.423021 -0.648217 -0.633141 0.00680337
36.1456 69.2551 411.677 0.420339 -0.640807 -0.642403 0.00756959
36.5121 68.1279 413.032 0.418767 -0.630569 -0.653465 0.00847206
36.916 66.989 414.366 0.418634 -0.619445 -0.664104 0.00875176
37.2291 65.7477 415.631 0.41926 -0.607393 -0.674756 0.0091381
37.5404 64.484 416.875 0.420713 -0.594403 -0.685336 0.00955432
37.798 63.1514 418.057 0.422234 -0.580625 -0.696128 0.00979005
38.353 62.1563 419.451 0.427195 -0.56623 -0.704903 0.00971055
38.2141 60.561 420.272 0.424725 -0.553992 -0.716032 0.00813752
38.8022 59.4557 421.566 0.433298 -0.542881 -0.719398 0.00850054
39.2007 58.1733 422.764 0.441584 -0.529858 -0.724054 0.00991344
39.6889 56.9964 424.036 0.453725 -0.51478 -0.727417 0.0112966
40.0604 55.6846 425.211 0.464949 -0.497668 -0.732222 0.0119513
40.3493 54.2654 426.28 0.474407 -0.478834 -0.738685 0.0127631
40.6605 52.8588 427.359 0.484625 -0.4582 -0.745112 0.0131046
40.9142 51.3733 428.343 0.492204 -0.437453 -0.752576 0.0124401
41.2493 49.9579 429.404 0.501711 -0.418583 -0.757017 0.00993466
41.2859 48.3052 430.116 0.49577 -0.405723 -0.767855 0.0100701
41.8075 47.1091 431.356 0.511148 -0.386384 -0.767747 0.00917176
41.9095 45.4469 432.039 0.502298 -0.376171 -0.778584 0.00933032
42.0338 43.8515 432.863 0.49415 -0.366209 -0.788484 0.00825731
42.4755 42.493 433.958 0.501811 -0.349554 -0.7912 0.00805108
42.7195 40.937 434.83 0.497047 -0.339359 -0.798611 0.00806634
42.8744 39.3007 435.564 0.484853 -0.333583 -0.80848 0.00738851
43.196 37.7925 436.492 0.483527 -0.322355 -0.813811 0.0113101
43.1672 36.0497 436.941 0.452939 -0.323821 -0.830654 0.0118175
43.4837 34.5378 437.865 0.450567 -0.310764 -0.836908 0.0111212
43.4847 32.8098 438.369 0.427505 -0.302326 -0.851962 0.012702
43.573 31.1046 438.939 0.426425 -0.279711 -0.860188 0.0116586
43.8496 29.4855 439.675 0.432127 -0.262178 -0.862861 0.0070064
43.6702 27.7192 439.972 0.418583 -0.258595 -0.870584 0.00359835
44.1418 26.1924 440.8 0.429109 -0.250974 -0.867685 0.00351611
44.2726 24.4781 441.333 0.424327 -0.247457 -0.87104 0.00408606
44.3735 22.7637 441.872 0.419566 -0.242319 -0.874783 0.00468618
44.7412 21.155 442.591 0.427033 -0.231182 -0.874184 0.00736198
44.5887 19.369 442.756 0.416712 -0.217807 -0.882559 0.0110265
44.9347 17.7573 443.479 0.431657 -0.1933 -0.881083 0.0164604
44.8686 15.9699 443.68 0.431337 -0.161736 -0.887575 0.01
43.5623 14.8386 443.177 0.391651 -0.153565 -0.907209 0.0218051
41.9596 14.5793 442.399 0.362011 -0.162859 -0.917837 0.0153115
40.5052 13.5768 442.053 0.343341 -0.169415 -0.923805 0.00543556
38.9474 12.7278 441.749 0.34605 -0.173307 -0.922071 0.00956737
37.4857 11.858 441.16 0.374628 -0.160042 -0.913258 0.0180774
35.8821 11.2266 440.641 0.402974 -0.148687 -0.903052 0.0171305
34.7373 9.86614 440.361 0.424972 -0.133352 -0.89533 0.01572
33.4613 8.7095 439.837 0.448229 -0.119887 -0.885843 0.0138633
32.1711 7.59723 439.256 0.465827 -0.11059 -0.877938 0.0123873
30.6472 6.92273 438.575 0.484884 -0.102353 -0.868569 0.0126571
29.4317 5.71331 438.028 0.501175 -0.0889603 -0.860761 0.0127412
28.544 4.26837 437.424 0.515725 -0.072275 -0.8537 0.00907896
27.0764 3.41595 436.825 0.522512 -0.0680154 -0.849915 0.00378122
25.8925 2.48141 435.842 0.526897 -0.0684719 -0.847167 0.00475366
24.3809 2.18028 434.913 0.536127 -0.0721713 -0.841046 0.00728591
22.8336 1.8336 434.061 0.547836 -0.0757177 -0.833152 0.01
21.2769 2.12836 433.206 0.565157 -0.0772448 -0.821359 0.0142841
19.8435 2.3069 432.133 0.589992 -0.0730421 -0.804099 0.016909
18.6142 3.02921 431.034 0.613546 -0.0697277 -0.786574 0.0174339
17.2654 3.69574 430.046 0.639291 -0.0650195 -0.766211 0.0186679
15.9804 4.46859 429.05 0.664988 -0.060408 -0.744407 0.0202302
14.7729 5.12417 427.887 0.693255 -0.0546139 -0.71862 0.0231668
13.7726 5.61548 426.474 0.7243 -0.047508 -0.687846 0.0264761
12.5533 6.08834 425.237 0.758379 -0.0432074 -0.650381 0.0235136
11.3308 6.35901 423.944 0.779402 -0.0544489 -0.624153 0.0183483
10.1605 6.66823 422.611 0.795605 -0.0683265 -0.60195 0.0165846
9.27982 7.15657 421.119 0.810503 -0.0796658 -0.580291 0.0152343
8.44155 7.76353 419.647 0.8238 -0.0891524 -0.559826 0.0138121
7.67015 8.47688 418.185 0.835399 -0.097131 -0.540994 0.0123124
6.70411 9.01302 416.764 0.844875 -0.105328 -0.524492 0.0101717
6.01625 10.0362 415.453 0.852568 -0.10841 -0.511248 0.00831402
5.23435 11.0705 414.204 0.85982 -0.108968 -0.498834 0.00797258
4.81223 12.3181 412.977 0.867009 -0.106761 -0.486722 0.00831848
4.27395 13.3804 411.628 0.874671 -0.104757 -0.473262 0.00792788
3.97766 14.8894 410.692 0.880602 -0.0992779 -0.46334 0.00703906
3.63869 16.3532 409.701 0.886312 -0.0941488 -0.453417 0.007686
3.13454 17.5217 408.428 0.893116 -0.0899707 -0.440737 0.00813276
2.762 18.8848 407.313 0.899449 -0.0885201 -0.427968 0.00766858
2.29992 20.2257 406.205 0.90507 -0.0887768 -0.415893 0.00733737
1.88909 21.4849 404.986 0.910317 -0.090159 -0.403974 0.00740041
1.37158 22.6066 403.677 0.915527 -0.0918604 -0.391628 0.00633337
1.02752 24.0522 402.661 0.918346 -0.0965287 -0.383826 0.00519593
0.790208 25.5464 401.685 0.920259 -0.103127 -0.377477 0.00536148
0.588676 27.0073 400.653 0.921915 -0.110712 -0.371234 0.00426445
0.43978 28.5653 399.764 0.92151 -0.116678 -0.370414 0.00292706
0.160878 29.8779 398.565 0.922589 -0.120081 -0.36662 0.00303991
-0.206687 31.0553 397.254 0.924297 -0.122381 -0.361521 0.00326909
-0.559267 32.2015 395.911 0.925979 -0.124761 -0.356367 0.00313305
-0.821358 33.6339 394.853 0.925911 -0.130844 -0.354356 0.00328749
-1.21229 34.8396 393.575 0.927006 -0.134648 -0.350043 0.00332231
-1.48831 36.1099 392.33 0.927492 -0.139874 -0.346688 0.00304324
-2.01078 36.9672 390.836 0.929742 -0.139509 -0.340759 0.00291561
-2.30771 38.0546 389.433 0.930706 -0.14216 -0.337011 0.00291987
-2.36195 39.4228 388.264 0.929939 -0.1489 -0.336217 0.00271817
-2.74045 40.3356 386.76 0.931537 -0.149879 -0.331324 0.00340065
-3.30132 40.9023 385.146 0.934149 -0.147746 -0.324864 0.00397283
-3.71154 41.3064 383.441 0.936619 -0.145283 -0.318807 0.00248151
-3.92638 42.5864 382.194 0.936169 -0.1513 -0.317326 0.00397817
-4.30833 43.5216 380.704 0.93706 -0.157527 -0.311614 0.00499111
-4.71959 44.3278 379.148 0.937899 -0.164589 -0.305378 0.00562224
-4.95117 45.2359 377.611 0.937946 -0.174012 -0.29996 0.00591444
-5.31466 46.0127 376.028 0.937752 -0.183186 -0.295066 0.00349525
-6.0327 45.8771 374.383 0.938342 -0.183778 -0.292813 0.00397713
-6.24703 46.6879 372.791 0.936761 -0.195852 -0.290037 0.00575492
-6.6361 46.9758 371.057 0.935048 -0.203783 -0.2901 0.00447738
-7.17917 47.1771 369.353 0.931278 -0.19976 -0.30466 0.0109045
-7.47047 48.2317 367.923 0.92658 -0.190178 -0.324472 0.0112928
-7.41207 49.8699 367.18 0.923442 -0.181217 -0.338254 0.01
-6.93259 51.6048 367.193 0.918987 -0.17855 -0.351544 0.0074942
-6.65296 53.3628 367.46 0.913888 -0.181034 -0.363367 0.00626173
-6.09734 54.8969 368.22 0.910183 -0.19158 -0.36724 0.00753473
-5.53836 56.4759 368.88 0.905774 -0.205946 -0.37035 0.0140659
-4.94528 58.0283 369.571 0.894385 -0.238348 -0.378506 0.0236418
-4.30144 59.6564 369.989 0.877113 -0.283959 -0.387351 0.0283957
-3.28802 60.9316 370.755 0.861832 -0.33358 -0.382059 0.0315696
-2.43699 62.3857 371.389 0.84194 -0.390618 -0.372229 0.0340065
-1.40593 63.5323 372.317 0.822134 -0.445071 -0.354975 0.0345262
-0.414095 64.9015 372.935 0.793974 -0.50104 -0.344332 0.0320664
0.720867 66.085 373.677 0.767479 -0.544911 -0.33771 0.0271945
1.92028 67.2993 374.249 0.739959 -0.582195 -0.336912 0.0211466
3.17149 68.425 374.888 0.720386 -0.604643 -0.33978 0.0126859
4.44589 69.6929 374.979 0.71091 -0.616678 -0.338104 0.00758953
5.60805 70.5864 376.023 0.70222 -0.622719 -0.34512 0.00667457
6.82877 71.908 375.966 0.694803 -0.629925 -0.34705 0.0061515
8.13306 73.0634 376.417 0.68673 -0.633842 -0.355874 0.00994284
9.38841 74.3409 376.596 0.669499 -0.646336 -0.366089 0.0138551
10.564 75.6944 376.758 0.649651 -0.663236 -0.37158 0.0157295
11.9818 76.71 377.203 0.627696 -0.682936 -0.373626 0.0176985
13.4126 77.7907 377.361 0.603738 -0.706982 -0.368343 0.0206086
14.8549 78.8178 377.685 0.575601 -0.733978 -0.3605 0.022598
16.3182 79.8605 377.792 0.544383 -0.760499 -0.35396 0.0223204
17.7588 80.9379 377.855 0.513689 -0.783844 -0.348874 0.0208618
19.2808 81.8988 377.862 0.483797 -0.803995 -0.345736 0.0167684
20.8302 82.8135 377.915 0.463686 -0.817063 -0.342641 0.00439875
22.4259 83.3313 378.568 0.471714 -0.812852 -0.341699 0.00584712
23.9471 84.2871 378.457 0.481656 -0.807876 -0.339623 0.00910805
25.506 85.1869 378.442 0.4989 -0.794907 -0.345286 0.018303
