# .PCD v0.7 - Point Cloud Data file format
# 5 152 0
# 1 29 0
# 30 91 0
# 92 116 0
# 117 149 0
# 150 152 0
VERSION 0.7
FIELDS x y z normal_x normal_y normal_z curvature
SIZE 4 4 4 4 4 4 4
TYPE F F F F F F F
COUNT 1 1 1 1 1 1 1
WIDTH 152
HEIGHT 1
VIEWPOINT 0 0 0 1 0 0 0
POINTS 152
DATA ascii
-12.0328 36.3833 370.078 -0.535188 -0.184411 -0.824358 0.01
-11.1258 37.7134 369.273 -0.550913 -0.18423 -0.813975 0.00772964
-9.70669 38.202 368.279 -0.556581 -0.188999 -0.80901 0.002618
-8.56004 38.8927 367.076 -0.558407 -0.185626 -0.808532 0.00445774
-6.94895 40.2691 366 -0.554335 -0.171538 -0.814424 0.00850679
-6.10238 41.6496 365.214 -0.547278 -0.155274 -0.822421 0.0113878
-5.03647 42.5092 364.046 -0.536275 -0.14032 -0.832298 0.0158232
-3.70028 43.2782 363.116 -0.506838 -0.129159 -0.852311 0.0235181
-2.52107 44.3986 362.346 -0.468522 -0.116035 -0.875799 0.0255366
-1.46497 45.6882 361.666 -0.431756 -0.10025 -0.896402 0.0237968
-0.565718 47.1342 361.083 -0.398333 -0.0848442 -0.913308 0.0245895
0.616108 48.3724 360.526 -0.356811 -0.0700972 -0.931543 0.0280751
2.06355 49.2817 359.962 -0.308927 -0.0569193 -0.949381 0.0267535
3.3272 50.4815 359.511 -0.270574 -0.0413056 -0.961813 0.0198361
4.26881 52.0079 359.358 -0.249495 -0.0237616 -0.968084 0.0156879
5.59484 53.1847 359.046 -0.226858 -0.00874407 -0.973889 0.0143228
7.03934 54.1191 358.517 -0.20651 0.00229761 -0.978442 0.0116354
8.32525 55.3541 358.269 -0.192362 0.0132615 -0.981234 0.00882271
9.82785 56.3234 358.063 -0.180239 0.0191626 -0.983436 0.00525785
11.3546 57.2412 357.805 -0.175869 0.0220638 -0.984166 0.000690793
12.6076 58.5176 357.603 -0.180356 0.0216257 -0.983364 0.00167384
14.0979 59.4873 357.323 -0.181745 0.0215886 -0.983109 0.0013355
15.4738 60.6225 357.081 -0.179685 0.0263786 -0.98337 0.00451143
16.8909 61.7196 356.913 -0.17373 0.0356704 -0.984147 0.00767854
18.5006 62.46 356.596 -0.165363 0.0497324 -0.984978 0.0160718
20.0509 63.3641 356.457 -0.124715 0.0655799 -0.990023 0.0274684
21.5792 64.3136 356.406 -0.0731209 0.0841547 -0.993766 0.0313167
23.1178 65.2457 356.468 -0.0192089 0.104915 -0.994296 0.0323237
24.6841 66.1301 356.537 0.0352677 0.126393 -0.991353 0.0305883
25.7327 67.5411 356.923 0.0792475 0.146847 -0.98598 0.0285957
27.4108 68.1763 357.067 0.124485 0.166387 -0.978171 0.0226352
28.9666 68.9984 357.446 0.14911 0.185441 -0.971276 0.0153753
30.4394 69.9774 357.781 0.165519 0.201181 -0.965469 0.01
32.0118 69.1252 357.985 0.172013 0.196882 -0.96522 0.00740726
32.5056 67.4235 357.668 0.178375 0.180581 -0.96725 0.01096
33.2436 65.7845 357.575 0.192082 0.163206 -0.967713 0.012302
33.927 64.1208 357.502 0.205804 0.145822 -0.967668 0.0102856
34.3497 62.3916 357.235 0.209524 0.130747 -0.969023 0.00820641
34.9022 60.6867 357.067 0.211911 0.117064 -0.970252 0.0074435
35.4029 58.962 356.946 0.213326 0.104333 -0.971394 0.00671924
36.2102 57.3563 357.046 0.216825 0.0935749 -0.971715 0.00646901
36.7403 55.6368 356.999 0.219367 0.0819601 -0.972194 0.00828322
37.286 53.9215 357.007 0.222547 0.0643333 -0.972797 0.010252
37.9352 52.246 357.113 0.229434 0.0464847 -0.972213 0.0108134
38.5232 50.5528 357.279 0.237895 0.0286223 -0.970869 0.0111253
39.1369 48.8727 357.48 0.24854 0.0114789 -0.968554 0.0103164
39.4701 47.1038 357.473 0.252194 -0.00530001 -0.967662 0.00905052
39.9062 45.3598 357.562 0.23978 -0.0198074 -0.970625 0.00987481
40.2167 43.5873 357.606 0.231535 -0.0338334 -0.972238 0.00931027
40.7698 41.9061 357.934 0.221065 -0.0471593 -0.974118 0.0095449
40.9198 40.1123 357.94 0.217925 -0.0649408 -0.973803 0.0099773
41.3275 38.3784 358.199 0.213885 -0.0821551 -0.973398 0.00978617
41.5558 36.6018 358.377 0.212607 -0.0996664 -0.972042 0.00957098
42.1342 34.945 358.777 0.210849 -0.116111 -0.970598 0.00919988
42.571 33.2402 359.155 0.210785 -0.132516 -0.968509 0.00915187
42.6638 31.4524 359.343 0.211546 -0.148523 -0.966017 0.00892812
43.1019 29.7704 359.811 0.211987 -0.163966 -0.963419 0.00950083
43.0979 27.9793 359.99 0.212648 -0.181795 -0.960069 0.0100891
43.6422 26.3697 360.584 0.21494 -0.198706 -0.956199 0.00993492
43.7827 24.6135 360.953 0.217207 -0.215985 -0.95193 0.00983606
43.8015 22.844 361.282 0.219425 -0.232705 -0.947471 0.00977923
44.1036 21.1611 361.844 0.223421 -0.249082 -0.942359 0.00971372
44.2979 19.4643 362.413 0.227567 -0.265043 -0.936998 0.00953039
44.4473 17.7451 362.925 0.231858 -0.280486 -0.931434 0.00988451
44.7463 16.1064 363.607 0.237863 -0.296776 -0.924849 0.0100074
44.6775 14.3833 364.123 0.24097 -0.312699 -0.918778 0.00937312
44.4464 12.6427 364.519 0.241788 -0.32813 -0.913165 0.0098434
44.8012 11.0659 365.312 0.248732 -0.343814 -0.905497 0.00993392
44.7481 9.37014 365.913 0.250729 -0.359339 -0.898894 0.00942606
44.7267 7.70329 366.592 0.252464 -0.37475 -0.89209 0.00934952
44.6916 6.04584 367.293 0.25316 -0.390038 -0.885314 0.00898694
44.7939 4.53156 368.261 0.255378 -0.403803 -0.878479 0.00884808
44.2327 2.83929 368.508 0.245816 -0.41778 -0.874662 0.00873985
44.5998 1.40471 369.532 0.248517 -0.430456 -0.867725 0.00899002
44.3 -0.251508 370.17 0.240423 -0.446192 -0.862038 0.010349
44.1524 -1.86056 370.963 0.233594 -0.462223 -0.855443 0.0110237
43.7599 -3.47346 371.659 0.223772 -0.479467 -0.84855 0.0109137
43.921 -4.94834 372.678 0.219768 -0.495093 -0.840586 0.00983358
43.8703 -6.42513 373.706 0.213646 -0.509736 -0.833381 0.00971314
43.3036 -8.03241 374.285 0.20421 -0.522793 -0.827639 0.00954128
42.9201 -9.55185 375.171 0.196614 -0.536497 -0.820679 0.00986682
42.2355 -10.8394 376.226 0.189342 -0.551082 -0.812686 0.00933248
40.7381 -11.8342 376.317 0.183268 -0.56136 -0.807024 0.00712744
39.3092 -12.873 376.662 0.178801 -0.571282 -0.801041 0.00760924
38.2942 -14.1772 377.375 0.177244 -0.583379 -0.792624 0.00993035
38.379 -15.6108 378.461 0.178739 -0.59848 -0.780944 0.0106917
38.1048 -17.0115 379.557 0.181042 -0.613202 -0.7689 0.0101847
37.7596 -18.4543 380.577 0.183862 -0.626272 -0.757614 0.00937412
37.4413 -19.8533 381.664 0.186644 -0.638181 -0.74692 0.0086791
37.0661 -21.2282 382.763 0.189293 -0.648989 -0.736872 0.00810513
36.844 -22.549 383.966 0.190502 -0.659363 -0.727289 0.00762319
36.4032 -23.9026 385.067 0.191345 -0.668957 -0.718251 0.00721792
36.283 -25.1243 386.384 0.188776 -0.678444 -0.709984 0.0137309
35.0382 -26.2723 386.994 0.152248 -0.690403 -0.707223 0.0221175
33.6128 -27.2281 387.537 0.112636 -0.700347 -0.70486 0.01
31.8236 -27.2186 387.339 0.0730754 -0.700397 -0.710003 0.0209591
30.1157 -26.8311 386.924 0.0393168 -0.694165 -0.718741 0.0205875
28.5019 -26.3146 386.316 0.00327336 -0.684793 -0.72873 0.0219901
26.7087 -26.1989 386.212 -0.0350475 -0.67767 -0.734531 0.0219971
25.1086 -25.5767 385.671 -0.0713435 -0.667248 -0.741411 0.0213937
23.3825 -25.1161 385.451 -0.108085 -0.657497 -0.745665 0.0200469
21.7042 -24.4852 385.292 -0.140081 -0.647114 -0.749413 0.0121766
19.9714 -24.0011 385.236 -0.147323 -0.640017 -0.754105 0.00497457
18.2007 -23.7987 385.489 -0.152858 -0.636582 -0.755909 0.00355565
16.4721 -23.3295 385.667 -0.158098 -0.633873 -0.757107 0.00292705
14.7374 -22.8531 385.607 -0.162209 -0.632122 -0.757701 0.00559374
13.1998 -22.1195 385.026 -0.17682 -0.627417 -0.758342 0.0114496
11.4386 -21.7851 385.188 -0.201204 -0.623553 -0.755446 0.0141213
9.7225 -21.242 385.195 -0.226207 -0.616869 -0.753859 0.0148156
8.0696 -20.5305 385.236 -0.252102 -0.60807 -0.752791 0.015649
6.36639 -20.5471 385.819 -0.278331 -0.601797 -0.74858 0.0167501
4.67364 -20.1936 386.318 -0.309156 -0.591478 -0.744699 0.0183536
3.03036 -19.7735 386.921 -0.340021 -0.579691 -0.740503 0.019328
1.34039 -19.154 386.909 -0.371559 -0.564387 -0.737164 0.0191351
-0.26313 -19.0119 387.714 -0.399881 -0.552315 -0.731466 0.0177664
-1.90884 -18.6119 388.324 -0.428371 -0.537773 -0.726153 0.0181329
-3.4865 -18.3505 389.15 -0.456951 -0.523535 -0.719101 0.0174968
-4.94108 -18.4834 390.202 -0.48287 -0.51141 -0.710843 0.0182112
-6.46378 -18.3484 391.152 -0.513041 -0.495306 -0.701043 0.0169009
-7.98105 -17.5105 391.638 -0.531642 -0.480817 -0.697261 0.01
-8.52282 -15.891 391.069 -0.541463 -0.471079 -0.696349 0.00725696
-9.10723 -14.3104 390.436 -0.549204 -0.461492 -0.696706 0.00651588
-9.46638 -12.7217 389.67 -0.554646 -0.451893 -0.698685 0.00640977
-9.62933 -11.1647 388.782 -0.558191 -0.441161 -0.702709 0.00656473
-9.78582 -9.56756 387.966 -0.56104 -0.430691 -0.706923 0.00604303
-10.2072 -7.90442 387.422 -0.5648 -0.421669 -0.709364 0.00509284
-10.1858 -6.43191 386.387 -0.566036 -0.414384 -0.712664 0.00446857
-10.3732 -4.85149 385.546 -0.56788 -0.407131 -0.715372 0.00407208
-10.1028 -3.41852 384.491 -0.567302 -0.401424 -0.719046 0.00379276
-10.3378 -1.7694 383.809 -0.568806 -0.395144 -0.721332 0.00360677
-10.5211 -0.113756 383.127 -0.569732 -0.389531 -0.723651 0.00484372
-10.4983 1.48153 382.293 -0.569473 -0.379603 -0.729111 0.00634871
-10.2674 2.98722 381.334 -0.567685 -0.370084 -0.735372 0.00633367
-10.3084 4.65909 380.669 -0.56714 -0.36027 -0.740647 0.00619164
-10.3133 6.31296 379.958 -0.565653 -0.350778 -0.746319 0.00630524
-10.2487 7.88098 379.077 -0.562918 -0.341519 -0.752654 0.00642446
-10.2256 9.46725 378.226 -0.559614 -0.332497 -0.75913 0.0063082
-10.337 11.1642 377.636 -0.555458 -0.324531 -0.765602 0.00636172
-10.0627 12.6771 376.7 -0.55099 -0.316218 -0.77228 0.00616619
-10.2065 14.382 376.141 -0.545763 -0.309794 -0.778569 0.00585743
-10.2944 16.0839 375.562 -0.540342 -0.303149 -0.784941 0.00602667
-10.5044 17.8187 375.13 -0.533779 -0.297335 -0.791626 0.00600822
-10.5085 19.4486 374.366 -0.529184 -0.289745 -0.797503 0.00593651
-10.5646 21.1481 373.776 -0.523925 -0.282606 -0.803515 0.00635241
-10.8353 22.9247 373.673 -0.515452 -0.277575 -0.810717 0.00519595
-10.3041 24.2567 372.585 -0.518601 -0.268333 -0.811819 0.00460676
-10.7224 25.9911 372.348 -0.510818 -0.264769 -0.817901 0.0047528
-10.7407 27.719 371.843 -0.509116 -0.257839 -0.82117 0.00510991
-11.2145 29.4442 371.646 -0.504348 -0.250107 -0.826486 0.00607487
-11.596 31.176 371.336 -0.504014 -0.238557 -0.830097 0.00779494
-11.9212 32.925 371.062 -0.50802 -0.222846 -0.832018 0.0104601
-12.0461 34.6544 370.579 -0.518947 -0.204123 -0.830077 0.0132563
