# .PCD v0.7 - Point Cloud Data file format
# 3 151 0
# 1 69 0
# 70 147 0
# 148 151 0
VERSION 0.7
FIELDS x y z normal_x normal_y normal_z curvature
SIZE 4 4 4 4 4 4 4
TYPE F F F F F F F
COUNT 1 1 1 1 1 1 1
WIDTH 151
HEIGHT 1
VIEWPOINT 0 0 0 1 0 0 0
POINTS 151
DATA ascii
-4.39599 -65.2023 437.088 -0.36145 0.197119 -0.911317 0.01
-5.14831 -63.67 437.659 -0.392291 0.162113 -0.905443 0.0224214
-5.82394 -62.1042 438.235 -0.40444 0.129085 -0.905409 0.0170705
-6.18735 -60.3608 438.497 -0.359087 0.115428 -0.926139 0.0168399
-6.99367 -58.9257 439.225 -0.3711 0.0838799 -0.924797 0.0129556
-7.05073 -58.0181 439.15 -0.346193 0.0856634 -0.934244 0.00875509
-7.61331 -56.3774 439.631 -0.354174 0.0699831 -0.932557 0.006798
-7.86553 -54.5975 439.724 -0.330885 0.0682311 -0.941201 0.00613414
-8.55633 -52.9959 440.168 -0.365638 0.0517443 -0.929318 0.00941273
-8.89665 -51.2336 440.304 -0.356051 0.0474904 -0.933259 0.00598999
-9.4515 -49.5572 440.653 -0.375697 0.0330289 -0.926154 0.0105371
-9.52534 -47.7611 440.561 -0.323152 0.0351193 -0.945695 0.00770156
-10.0421 -46.0583 440.833 -0.358511 0.0130194 -0.933435 0.0324862
-10.6801 -44.4315 441.264 -0.42359 -0.00904051 -0.905809 0.00701915
-10.6052 -42.6501 441.018 -0.367333 -0.00934714 -0.930042 0.0268285
-10.6335 -40.8523 440.933 -0.334459 -0.0140193 -0.942306 0.0115479
-11.269 -39.1974 441.245 -0.399477 -0.0301284 -0.916248 0.0338189
-11.7894 -37.4994 441.539 -0.443015 -0.0428235 -0.895491 0.00880408
-11.8817 -35.7085 441.383 -0.422847 -0.0474622 -0.904958 0.0040943
-12.2612 -33.9563 441.544 -0.443847 -0.0573828 -0.894264 0.00803202
-12.4736 -32.1696 441.493 -0.439869 -0.0686948 -0.895431 0.0119941
-12.4568 -30.3872 441.242 -0.410198 -0.0801227 -0.90847 0.0159887
-12.5228 -28.5996 441.042 -0.391542 -0.0926326 -0.915486 0.00882113
-12.9703 -26.8667 441.233 -0.420809 -0.108597 -0.900625 0.00882875
-13.0538 -25.0903 440.954 -0.404343 -0.119868 -0.906718 0.0143567
-12.9858 -23.3219 440.626 -0.376744 -0.129817 -0.917176 0.00986469
-13.1692 -21.5372 440.479 -0.377357 -0.141096 -0.915256 0.00617517
-13.2415 -19.748 440.296 -0.370334 -0.151082 -0.91653 0.00685561
-13.559 -17.9768 440.253 -0.38838 -0.161573 -0.907224 0.00719873
-13.6262 -16.2098 439.916 -0.381495 -0.172718 -0.908091 0.00640231
-13.706 -14.4394 439.601 -0.379957 -0.183021 -0.906717 0.00614323
-13.702 -12.6935 439.163 -0.372684 -0.192977 -0.907671 0.00611587
-13.7015 -10.9472 438.727 -0.369713 -0.202509 -0.906809 0.00527501
-13.7304 -9.18119 438.38 -0.375546 -0.211006 -0.902464 0.00548465
-13.6643 -7.438 437.936 -0.375511 -0.220202 -0.900279 0.00582079
-13.4967 -5.7206 437.424 -0.369274 -0.230857 -0.90019 0.0146851
-12.9999 -4.14794 436.703 -0.331769 -0.247462 -0.910325 0.00911874
-12.9855 -2.39543 436.292 -0.346292 -0.253444 -0.903243 0.0149987
-13.1299 -0.629486 435.975 -0.38113 -0.252814 -0.889283 0.0152234
-13.0919 1.07737 435.405 -0.396254 -0.256779 -0.881503 0.0140569
-13.1578 2.81039 434.923 -0.426461 -0.256908 -0.867254 0.00594319
-12.6196 4.29754 434.063 -0.391552 -0.276778 -0.877542 0.00753241
-12.5417 6.02326 433.557 -0.415199 -0.281036 -0.865233 0.0186268
-12.5485 7.75979 433.084 -0.451065 -0.281243 -0.84702 0.00939708
-11.8936 9.13782 432.129 -0.401786 -0.310689 -0.861418 0.00875888
-11.9204 10.8649 431.622 -0.445001 -0.310368 -0.840027 0.0282305
-11.9752 12.597 431.136 -0.492424 -0.301964 -0.816294 0.00835536
-11.2759 13.88 430.085 -0.42776 -0.333418 -0.840151 0.00920414
-11.2963 15.5975 429.546 -0.471511 -0.325807 -0.819468 0.0188388
-10.4888 16.7554 428.429 -0.373328 -0.365099 -0.852836 0.00981697
-10.6571 18.4938 427.994 -0.447966 -0.348397 -0.823375 0.0251961
-10.4294 20.1018 427.218 -0.45487 -0.353833 -0.817249 0.00522404
-10.1028 21.6444 426.349 -0.445481 -0.365932 -0.817092 0.0165243
-9.66242 23.0544 425.321 -0.408195 -0.389543 -0.825611 0.025406
-9.11762 24.494 424.388 -0.370105 -0.415745 -0.83077 0.00761709
-8.91396 26.1053 423.612 -0.405234 -0.41441 -0.814893 0.0166235
-8.61163 27.6604 422.757 -0.423375 -0.418127 -0.803694 0.0103233
-7.93657 28.8829 421.621 -0.384373 -0.444084 -0.809349 0.0203226
-7.40507 30.2132 420.532 -0.363994 -0.460255 -0.809736 0.0071018
-7.06241 31.7239 419.615 -0.371209 -0.465128 -0.803654 0.00664402
-6.50357 33.056 418.541 -0.354299 -0.480653 -0.802151 0.0088342
-6.04304 34.4648 417.52 -0.354546 -0.491007 -0.795745 0.0117785
-5.32031 35.6157 416.339 -0.332748 -0.514803 -0.790099 0.00898412
-5.06568 37.1457 415.426 -0.367169 -0.51263 -0.776143 0.0120985
-4.51446 38.455 414.321 -0.371455 -0.517347 -0.770956 0.00387835
-3.98636 39.7968 413.243 -0.374983 -0.520152 -0.767352 0.00324571
-3.48312 41.1502 412.169 -0.379615 -0.521854 -0.763912 0.00410301
-2.80957 42.3125 410.97 -0.369317 -0.532478 -0.761625 0.00991908
-2.02907 43.3392 409.715 -0.35659 -0.54809 -0.756598 0.00707665
-1.50304 44.6477 408.596 -0.374253 -0.551417 -0.74557 0.0106705
-0.813306 45.7369 407.34 -0.380574 -0.565038 -0.732049 0.011626
-0.0832621 46.7908 406.077 -0.38067 -0.582438 -0.718231 0.0121094
0.541325 47.9359 404.836 -0.388165 -0.596299 -0.702677 0.0138124
1.31628 48.8654 403.504 -0.378199 -0.6207 -0.686802 0.01
2.54168 47.597 403.864 -0.26631 -0.667648 -0.695216 0.0535092
3.4223 46.3501 404.817 -0.200747 -0.68444 -0.700887 0.0296783
4.52228 45.1264 405.547 -0.163193 -0.693037 -0.702188 0.0155031
4.94358 43.9007 406.796 -0.147452 -0.688716 -0.709879 0.00707233
5.82905 42.6624 407.757 -0.143349 -0.684304 -0.714968 0.00489999
6.89697 41.5819 408.722 -0.153741 -0.676182 -0.720515 0.00934926
7.472 40.2495 409.787 -0.16697 -0.664901 -0.72803 0.0125876
8.22331 38.9444 410.773 -0.188557 -0.651223 -0.735088 0.0125704
8.41272 37.5476 411.893 -0.198809 -0.63795 -0.743972 0.0127265
9.54219 36.3856 412.676 -0.216422 -0.622062 -0.752463 0.0132563
10.0289 34.9384 413.629 -0.228527 -0.606453 -0.761571 0.01208
10.6232 33.5135 414.555 -0.241185 -0.590867 -0.769874 0.0121775
11.4108 32.0774 415.301 -0.25521 -0.575445 -0.777001 0.0117938
12.187 30.642 416.061 -0.267917 -0.56079 -0.783412 0.0108021
12.9854 29.2114 416.807 -0.27922 -0.547298 -0.788987 0.00763088
14.1515 27.9628 417.374 -0.27273 -0.538014 -0.797596 0.00760761
14.3976 26.4345 418.292 -0.273065 -0.527175 -0.804688 0.00731476
15.1227 24.9244 418.951 -0.266883 -0.517745 -0.812843 0.0072482
15.8545 23.436 419.65 -0.263842 -0.508088 -0.819899 0.00702853
16.6287 22.0015 420.414 -0.264709 -0.496636 -0.826609 0.00868729
17.146 20.4156 421.09 -0.271278 -0.481122 -0.833625 0.0108285
17.7829 18.8596 421.733 -0.282159 -0.464292 -0.839535 0.0116923
18.083 17.2818 422.546 -0.295218 -0.4483 -0.843726 0.0109649
19.0364 15.7999 422.912 -0.294105 -0.430418 -0.853371 0.0112437
19.822 14.2825 423.479 -0.291554 -0.41293 -0.862835 0.0103745
20.2856 12.6563 424.096 -0.299484 -0.396567 -0.867781 0.0104039
20.9132 11.0393 424.577 -0.30497 -0.379672 -0.873409 0.0107444
20.6322 9.41701 425.304 -0.324145 -0.368747 -0.87118 0.0108598
21.2043 7.76181 425.72 -0.330306 -0.351694 -0.875905 0.0104902
21.3196 6.0728 426.331 -0.34287 -0.336881 -0.876899 0.0105821
21.8389 4.41344 426.797 -0.351214 -0.320414 -0.879763 0.0102694
21.7189 2.74996 427.474 -0.364834 -0.30801 -0.87865 0.0104095
22.3577 1.09245 427.765 -0.373336 -0.291509 -0.880706 0.0102679
22.4422 -0.630399 428.28 -0.385742 -0.278174 -0.879672 0.0098556
22.4159 -2.34163 428.837 -0.39784 -0.266016 -0.878043 0.01049
22.8908 -4.04477 429.175 -0.410767 -0.250651 -0.87661 0.0111182
23.0794 -5.79529 429.549 -0.42456 -0.236681 -0.873917 0.00901356
22.6655 -7.4413 430.149 -0.431652 -0.226782 -0.873067 0.00736859
22.524 -9.16795 430.637 -0.43796 -0.21391 -0.873174 0.00781111
22.4083 -10.9057 431.092 -0.441809 -0.200597 -0.874394 0.0084849
22.7063 -12.6651 431.328 -0.449656 -0.185977 -0.873626 0.00843784
22.8853 -14.4344 431.606 -0.453341 -0.172516 -0.874483 0.00736628
22.9881 -16.2064 431.905 -0.452767 -0.159889 -0.877176 0.00738173
23.0065 -17.9814 432.204 -0.447534 -0.1477 -0.881985 0.00818641
23.0686 -19.7615 432.463 -0.439066 -0.136186 -0.888074 0.00938593
22.8778 -21.5186 432.804 -0.423982 -0.128473 -0.896512 0.0112446
22.6719 -23.275 433.14 -0.405587 -0.122011 -0.905877 0.0128551
22.4819 -25.0394 433.441 -0.384187 -0.115191 -0.916041 0.0145311
22.2868 -26.8072 433.718 -0.359779 -0.107841 -0.926785 0.0158273
21.9748 -28.5538 434.022 -0.334337 -0.0977804 -0.937367 0.0169386
21.7622 -30.3246 434.265 -0.305815 -0.0889834 -0.947924 0.0141172
20.9045 -31.8569 434.66 -0.29844 -0.0665086 -0.952108 0.0131027
20.574 -33.603 434.946 -0.278415 -0.0530135 -0.958997 0.0096814
19.3784 -34.8942 435.325 -0.310711 -0.0353843 -0.949846 0.0128703
18.8006 -36.5888 435.511 -0.320681 -0.0429797 -0.946212 0.0118608
17.9359 -38.14 435.804 -0.349344 -0.0462797 -0.935851 0.0048139
17.2805 -39.7995 436.042 -0.31005 -0.0563173 -0.949051 0.0254262
16.9956 -41.0113 437.342 -0.268335 -0.060972 -0.961394 0.0247311
16.734 -42.46 438.378 -0.22518 -0.0672868 -0.971991 0.0324397
15.9778 -44.0879 438.512 -0.159295 -0.0680486 -0.984883 0.0473364
14.4741 -44.776 437.801 -0.0740751 -0.0394183 -0.996473 0.0381956
13.0244 -45.7415 437.348 -0.0424009 0.00141326 -0.9991 0.0240466
12.6302 -47.4967 437.283 -0.012643 0.0117295 -0.999851 0.0240317
11.1539 -48.5264 437.29 -0.0993853 0.05817 -0.993347 0.0298831
10.6197 -50.2374 437.125 -0.0945641 0.0715696 -0.992943 0.0193566
10.7829 -52.025 436.991 -0.0311861 0.058072 -0.997825 0.00380658
9.81812 -53.5445 437.007 -0.0822466 0.0755222 -0.993746 0.0300647
8.86497 -55.0592 437.199 -0.132996 0.0926854 -0.986773 0.0238474
7.29879 -55.9459 437.169 -0.150151 0.121719 -0.981142 0.0131424
6.29888 -57.4426 437.172 -0.132931 0.138401 -0.981415 0.0131301
5.04203 -58.7294 437.104 -0.123977 0.160777 -0.979173 0.014901
3.38049 -59.4215 437.118 -0.124748 0.189757 -0.973874 0.0175877
2.71125 -61.0735 436.867 -0.0885498 0.206813 -0.974365 0.0210719
1.8883 -62.6744 436.858 -0.0585364 0.226235 -0.972312 0.014824
0.120525 -62.9596 436.675 -0.0610716 0.245071 -0.96758 0.0109226
-1.18484 -64.1795 436.456 -0.0821886 0.254197 -0.963654 0.0363129
-2.73228 -65.0978 436.409 -0.189809 0.244682 -0.950844 0.0845181
