# .PCD v0.7 - Point Cloud Data file format
# 4 167 0
# 1 15 0
# 16 89 0
# 90 109 0
# 110 167 0
VERSION 0.7
FIELDS x y z normal_x normal_y normal_z curvature
SIZE 4 4 4 4 4 4 4
TYPE F F F F F F F
COUNT 1 1 1 1 1 1 1
WIDTH 167
HEIGHT 1
VIEWPOINT 0 0 0 1 0 0 0
POINTS 167
DATA ascii
-47.001 -18.3837 399.733 0.364896 0.0917188 -0.92652 0.01
-48.2925 -17.2442 399.21 0.3635 0.0670619 -0.929177 0.013406
-49.667 -16.095 399.036 0.355991 0.0450347 -0.933404 0.00905646
-50.1449 -14.3775 398.788 0.369325 0.0364711 -0.928584 0.00756378
-51.2026 -12.9343 398.592 0.366249 0.0204826 -0.930291 0.00733541
-51.7229 -11.2357 398.302 0.377078 0.0117408 -0.926107 0.00625984
-52.4624 -9.61479 398.045 0.373418 -0.000669406 -0.927663 0.00593015
-52.9336 -7.90187 397.756 0.376916 -0.00953957 -0.926198 0.00702905
-53.7917 -6.3424 397.488 0.364398 -0.0238995 -0.930937 0.00777498
-54.2952 -4.63807 397.202 0.365857 -0.0347913 -0.930021 0.00983059
-54.1188 -2.85795 397.002 0.39209 -0.0411425 -0.919006 0.00871862
-55.2558 -1.51503 396.623 0.365946 -0.0636801 -0.928455 0.0127044
-55.6909 0.204071 396.314 0.368505 -0.0782745 -0.926325 0.00819114
-56.1822 1.90152 395.972 0.368499 -0.0928453 -0.92498 0.00785956
-56.6151 3.60313 395.575 0.3697 -0.106346 -0.923045 0.00802629
-56.5893 5.36717 395.218 0.38472 -0.114645 -0.915886 0.00705885
-57.3773 6.93389 394.813 0.374733 -0.130002 -0.917973 0.00780322
-57.7914 8.64304 394.429 0.377024 -0.141474 -0.915335 0.00782371
-57.9032 10.3879 394.001 0.387041 -0.153637 -0.909173 0.0107966
-57.758 12.1535 393.682 0.404007 -0.164566 -0.899832 0.00950885
-58.387 13.7592 393.166 0.4003 -0.182157 -0.898097 0.00915209
-58.6838 15.4709 392.695 0.405569 -0.19653 -0.892687 0.00892666
-58.9098 17.1951 392.23 0.412198 -0.209712 -0.886631 0.00862316
-59.1599 18.9194 391.778 0.417977 -0.222391 -0.880816 0.00824803
-59.3183 20.6448 391.291 0.424503 -0.233935 -0.874683 0.0084291
-59.1528 22.3546 390.753 0.435156 -0.243016 -0.866939 0.00926341
-58.8563 24.0795 390.332 0.447416 -0.251622 -0.858199 0.00732505
-59.3614 25.7067 389.752 0.443152 -0.265007 -0.856381 0.00707329
-59.2992 27.4258 389.222 0.446982 -0.275698 -0.850998 0.00653216
-59.7121 29.0979 388.699 0.441267 -0.287378 -0.850116 0.00652011
-59.288 30.751 388.127 0.446248 -0.297425 -0.844039 0.00649399
-59.2522 32.4545 387.546 0.443186 -0.308889 -0.84153 0.00682403
-58.9589 34.1285 386.953 0.442228 -0.320723 -0.837598 0.00735454
-59.0844 35.8326 386.387 0.432862 -0.332781 -0.837787 0.00883442
-59.2353 37.5406 385.84 0.421263 -0.344598 -0.838922 0.00777374
-58.8191 39.1695 385.197 0.416743 -0.355183 -0.836762 0.00699699
-58.2266 40.7516 384.575 0.414105 -0.367868 -0.832581 0.00839757
-58.0496 42.43 383.95 0.401156 -0.380589 -0.833202 0.0111919
-57.9899 44.112 383.311 0.38313 -0.393407 -0.835729 0.0114816
-57.528 45.6967 382.594 0.371788 -0.409269 -0.83323 0.012276
-57.3636 47.3577 381.92 0.351725 -0.424235 -0.834455 0.0139322
-57.0917 48.9991 381.233 0.332638 -0.440579 -0.833812 0.0126338
-56.4007 50.4969 380.512 0.32646 -0.460533 -0.825429 0.010782
-55.9839 52.1074 379.825 0.31339 -0.472569 -0.82369 0.00954807
-55.6826 53.7618 379.183 0.299089 -0.481235 -0.823989 0.00828108
-55.2937 55.3739 378.483 0.289112 -0.489804 -0.8225 0.0059128
-54.605 56.8512 377.719 0.29384 -0.499636 -0.814875 0.00619851
-54.0994 58.4137 376.982 0.291557 -0.508301 -0.810323 0.00664416
-53.3942 59.8786 376.21 0.299782 -0.518152 -0.80103 0.0129627
-52.475 61.2619 375.516 0.323482 -0.529721 -0.784063 0.011174
-51.923 62.7865 374.734 0.322551 -0.540571 -0.777009 0.00984468
-51.1602 64.2228 373.963 0.334433 -0.554882 -0.761748 0.00891845
-50.8293 65.8218 373.205 0.317724 -0.567025 -0.759957 0.0104153
-49.8486 67.1213 372.438 0.319046 -0.584373 -0.746135 0.0103511
-49.4242 68.6955 371.675 0.301751 -0.596024 -0.744111 0.00925822
-48.5583 70.0353 370.841 0.302193 -0.609492 -0.732938 0.00971152
-47.6805 71.37 370.012 0.304758 -0.622185 -0.721116 0.00968454
-46.8258 72.7327 369.204 0.306746 -0.634688 -0.70928 0.00849227
-46.3838 74.3145 368.467 0.293964 -0.645452 -0.704966 0.00962474
-46.0482 73.9761 368.427 0.306316 -0.64659 -0.698635 0.0177268
-45.0017 75.2157 367.647 0.310887 -0.661721 -0.682257 0.00946573
-44.0348 76.5111 366.855 0.308138 -0.670728 -0.674667 0.00587274
-43.0698 77.7983 366.048 0.302839 -0.677317 -0.67047 0.0058872
-42.2175 79.1527 365.224 0.2919 -0.683229 -0.669322 0.00550667
-41.1486 80.3395 364.394 0.289202 -0.689889 -0.663638 0.00476679
-40.1055 81.561 363.581 0.288438 -0.695619 -0.657965 0.00490812
-38.9831 82.6903 362.742 0.289931 -0.701842 -0.65066 0.00522031
-37.9423 83.8925 361.898 0.287903 -0.708505 -0.644308 0.00611539
-36.8226 85.0048 361.033 0.284204 -0.717337 -0.636126 0.0112246
-35.2017 85.7152 360.704 0.292866 -0.732988 -0.613969 0.0153486
-33.5583 86.4444 360.616 0.283967 -0.752768 -0.593888 0.0155606
-31.9747 87.2998 360.6 0.278967 -0.769766 -0.574141 0.0139462
-30.3969 88.1596 360.494 0.278956 -0.783833 -0.554788 0.0127846
-28.7452 88.6526 359.976 0.283143 -0.794966 -0.536525 0.01
-27.4235 88.1933 361.108 0.300011 -0.793787 -0.529052 0.00460899
-26.4955 87.6248 362.542 0.298386 -0.788886 -0.537238 0.00821037
-25.321 87.1558 363.823 0.286433 -0.782622 -0.552683 0.0144573
-24.2268 86.64 365.155 0.266292 -0.773483 -0.575163 0.020001
-22.7152 86.5385 366.128 0.238706 -0.762846 -0.600904 0.0244954
-21.554 85.7969 367.286 0.204425 -0.749129 -0.630092 0.0201304
-20.1278 85.4074 368.312 0.19637 -0.733321 -0.650906 0.01452
-19.1037 84.4635 369.453 0.184472 -0.72093 -0.668005 0.0125586
-18.1995 83.4825 370.661 0.173155 -0.710403 -0.682162 0.0110967
-16.8064 82.8817 371.63 0.166869 -0.698986 -0.695394 0.0103195
-15.9524 81.866 372.846 0.155161 -0.690358 -0.706633 0.0132703
-14.5027 81.2332 373.705 0.133435 -0.679552 -0.721391 0.0171887
-13.2494 80.466 374.745 0.105217 -0.668967 -0.735808 0.0183772
-12.3483 79.3547 375.837 0.076835 -0.659581 -0.747696 0.0199415
-10.894 78.7117 376.68 0.0450855 -0.645027 -0.762828 0.022344
-9.7826 77.6609 377.629 0.0124074 -0.625852 -0.779844 0.0234492
-9.04744 76.3158 378.573 -0.0161306 -0.600991 -0.799093 0.0234947
-7.99333 75.156 379.458 -0.0424905 -0.574397 -0.817473 0.0224159
-7.4704 73.6602 380.312 -0.0670722 -0.549974 -0.832484 0.0209502
-6.83213 72.2137 381.172 -0.0915353 -0.524909 -0.846222 0.0205712
-6.17524 70.7494 381.987 -0.11541 -0.500138 -0.858221 0.0193689
-5.74713 69.2137 382.823 -0.137961 -0.477712 -0.867616 0.0178776
-5.34248 67.6534 383.624 -0.159289 -0.456323 -0.875441 0.0163663
-5.117 66.0346 384.378 -0.178532 -0.437389 -0.881372 0.0144237
-4.77437 64.3946 385.036 -0.196662 -0.421681 -0.885161 0.0113777
-5.04453 62.8201 385.866 -0.209067 -0.411686 -0.887021 0.0101244
-4.68166 61.1746 386.499 -0.222777 -0.397662 -0.890076 0.0101688
-4.30702 59.5611 387.203 -0.233678 -0.385213 -0.892752 0.00792675
-4.47458 57.8695 387.795 -0.239969 -0.375885 -0.895056 0.00623977
-4.31752 56.2563 388.578 -0.244626 -0.366392 -0.897728 0.00549617
-4.31187 54.5884 389.255 -0.24624 -0.358007 -0.900664 0.00425852
-3.939 52.9215 389.823 -0.245185 -0.352191 -0.903242 0.00248638
-3.70658 51.2519 390.454 -0.243075 -0.350549 -0.90445 0.00153385
-3.60207 49.5961 391.152 -0.241903 -0.348425 -0.905584 0.00149769
-3.24908 47.9341 391.746 -0.241288 -0.345995 -0.90668 0.00147227
-3.88566 46.3604 392.345 -0.24376 -0.343849 -0.906835 0.00195354
-3.65473 44.6485 392.851 -0.245756 -0.340897 -0.90741 0.00241986
-3.27245 42.9866 393.427 -0.249144 -0.337098 -0.907906 0.00329639
-3.11868 41.3079 394.058 -0.25471 -0.333159 -0.907815 0.00364054
-3.69538 39.7454 394.741 -0.260848 -0.332052 -0.906477 0.00450479
-3.37646 38.085 395.358 -0.268298 -0.325374 -0.906724 0.00526401
-3.11865 36.3729 395.851 -0.274518 -0.318967 -0.907138 0.0041259
-3.19422 34.652 396.373 -0.277662 -0.313989 -0.907918 0.00271366
-3.86514 33.1198 397.038 -0.275608 -0.309844 -0.909965 0.00292489
-3.56796 31.4731 397.701 -0.27576 -0.304754 -0.911637 0.00308517
-3.53284 29.7556 398.239 -0.272682 -0.300016 -0.914131 0.00399357
-3.64861 28.0381 398.765 -0.266855 -0.295095 -0.917446 0.00487408
-3.55935 26.3355 399.342 -0.259383 -0.290868 -0.920932 0.00595977
-3.76319 24.6167 399.836 -0.249593 -0.285288 -0.925373 0.0064436
-4.43655 23.0388 400.381 -0.242593 -0.27774 -0.929521 0.00542956
-4.51445 21.3139 400.89 -0.236954 -0.272615 -0.932488 0.00429066
-4.31706 19.6198 401.465 -0.232154 -0.267872 -0.935066 0.00374511
-4.29392 17.8993 401.994 -0.229742 -0.262286 -0.937243 0.00342913
-4.38223 16.1493 402.405 -0.229776 -0.256384 -0.938866 0.00340156
-4.85359 14.5008 402.953 -0.233866 -0.251032 -0.939303 0.00381417
-5.29146 12.8359 403.479 -0.239097 -0.246309 -0.939236 0.00404188
-4.98324 11.102 403.851 -0.242916 -0.24008 -0.939869 0.00366368
-5.32594 9.4502 404.479 -0.24821 -0.23713 -0.939234 0.00272493
-5.86123 7.79405 404.938 -0.249926 -0.233254 -0.93975 0.0025906
-5.62265 6.07487 405.415 -0.249902 -0.22835 -0.94096 0.00296828
-5.62413 4.31143 405.776 -0.247582 -0.223311 -0.942781 0.0040723
-5.87224 2.56199 406.119 -0.241409 -0.217448 -0.945747 0.00591846
-6.05961 0.868721 406.701 -0.231879 -0.210737 -0.949643 0.00871255
-6.49835 -0.776005 407.286 -0.216146 -0.201659 -0.955308 0.0157207
-7.49172 -2.2161 407.709 -0.192033 -0.17515 -0.965632 0.0229245
-8.42944 -3.71982 408.025 -0.163455 -0.141795 -0.976308 0.0248835
-9.18448 -5.31441 408.381 -0.132494 -0.111268 -0.984919 0.0234056
-9.74176 -7.01245 408.596 -0.103864 -0.0844004 -0.991004 0.019834
-10.0636 -8.77851 408.728 -0.0827707 -0.0612256 -0.994686 0.0184431
-10.5777 -10.5002 408.835 -0.0546044 -0.0405406 -0.997685 0.0181884
-11.0161 -12.246 408.843 -0.0301587 -0.0225877 -0.99929 0.0163468
-11.737 -13.8943 408.902 -0.00632962 -0.00732849 -0.999953 0.0138226
-12.3449 -15.5882 408.87 0.010042 0.00665678 -0.999927 0.0144491
-13.3147 -17.1019 408.961 0.0373017 0.0203123 -0.999098 0.01
-14.9906 -16.4542 408.851 0.0655902 0.0276032 -0.997465 0.0189525
-16.7522 -16.741 408.618 0.0971531 0.0472708 -0.994146 0.0190312
-18.5403 -16.7201 408.412 0.120573 0.0674311 -0.990412 0.0148145
-20.3136 -16.4758 408.223 0.138648 0.0798607 -0.987117 0.0120915
-22.0873 -16.4048 407.925 0.158276 0.0879008 -0.983475 0.0114397
-23.8675 -16.2841 407.688 0.178008 0.0895794 -0.979943 0.0100727
-25.5747 -16.7014 407.299 0.193387 0.0905594 -0.976934 0.00839621
-27.3214 -16.4129 406.974 0.20704 0.0874047 -0.97442 0.00768729
-28.8546 -17.303 406.662 0.218743 0.0931503 -0.971326 0.00777674
-30.6063 -17.4199 406.264 0.232166 0.0958389 -0.967943 0.0116212
-32.3101 -17.5076 405.69 0.258391 0.101018 -0.960744 0.0208922
-34.0132 -17.067 405.309 0.30283 0.105549 -0.947182 0.0278004
-35.6763 -17.3447 404.679 0.34938 0.118606 -0.929444 0.0281768
-37.2836 -17.3642 403.869 0.392932 0.132168 -0.91002 0.0234998
-38.9011 -17.2254 403.092 0.421644 0.145664 -0.894985 0.00754334
-40.5542 -16.8314 402.498 0.410815 0.149456 -0.899385 0.00561827
-42.1695 -17.185 401.787 0.403884 0.150214 -0.902393 0.00522909
-43.8428 -17.4906 401.199 0.396795 0.139668 -0.907219 0.0106605
-45.4294 -17.8443 400.425 0.387221 0.117878 -0.91442 0.0168973
