# .PCD v0.7 - Point Cloud Data file format
# 5 161 0
# 1 4 0
# 5 36 0
# 37 89 0
# 90 106 0
# 107 161 0
VERSION 0.7
FIELDS x y z normal_x normal_y normal_z curvature
SIZE 4 4 4 4 4 4 4
TYPE F F F F F F F
COUNT 1 1 1 1 1 1 1
WIDTH 161
HEIGHT 1
VIEWPOINT 0 0 0 1 0 0 0
POINTS 161
DATA ascii
44.0899 16.9145 446.028 -0.25231 0.185728 0.949655 0.01
43.939 18.6666 445.644 -0.248974 0.206517 0.946236 0.0125987
43.955 20.4125 445.206 -0.241986 0.229302 0.942796 0.0128559
43.9552 22.1445 444.716 -0.235667 0.250254 0.93906 0.010181
43.695 23.8807 444.318 -0.23573 0.264483 0.935136 0.00767258
43.4249 25.5767 443.779 -0.236438 0.276757 0.931398 0.00680196
43.3759 27.2752 443.185 -0.236867 0.287808 0.927934 0.00623278
43.2032 28.9737 442.615 -0.237326 0.298095 0.924562 0.00603544
43.2038 30.6525 441.966 -0.23637 0.308488 0.921393 0.00710898
43.1008 32.3354 441.335 -0.23727 0.322342 0.916405 0.00965617
42.9923 33.9873 440.629 -0.239602 0.340826 0.909081 0.0111716
42.6362 35.6348 439.997 -0.242508 0.359106 0.90124 0.0110726
42.3539 37.2684 439.296 -0.243548 0.377286 0.893499 0.0106963
41.9575 38.8802 438.599 -0.245073 0.394237 0.885729 0.00917317
42.0442 40.4669 437.754 -0.258038 0.40238 0.878355 0.00896954
41.9481 42.049 436.901 -0.267313 0.41231 0.870945 0.00846684
41.478 43.6264 436.172 -0.273582 0.42372 0.863489 0.00885847
41.4232 45.1804 435.266 -0.280011 0.436514 0.855014 0.00955644
41.0619 46.7264 434.418 -0.283938 0.451306 0.845991 0.00997905
40.741 48.2543 433.522 -0.28653 0.46672 0.836704 0.0102007
40.5916 49.7607 432.548 -0.28811 0.482496 0.827158 0.0103072
40.5196 51.2337 431.516 -0.288822 0.498344 0.817457 0.010222
40.2358 52.6936 430.502 -0.288992 0.513718 0.807823 0.00991947
39.7948 54.1252 429.504 -0.289196 0.528391 0.798229 0.00987514
39.3455 55.5369 428.481 -0.28996 0.543185 0.787955 0.00994837
39.1691 56.9487 427.379 -0.290506 0.557542 0.777658 0.00961555
38.9304 58.3256 426.244 -0.29097 0.571127 0.767562 0.00907445
38.3605 59.6467 425.163 -0.291998 0.583346 0.757921 0.00875196
38.1481 60.9892 423.983 -0.292071 0.595735 0.748194 0.00851996
37.7625 62.2923 422.802 -0.292461 0.607232 0.73874 0.00841702
37.5118 63.5743 421.564 -0.292196 0.619095 0.728933 0.00952848
37.4338 64.7839 420.233 -0.290518 0.633631 0.717015 0.00992885
36.6581 65.956 419.109 -0.291991 0.645396 0.705837 0.0100087
36.4138 67.1283 417.765 -0.288799 0.660159 0.693387 0.0110053
36.118 68.3547 416.481 -0.284508 0.675067 0.680691 0.0104462
35.534 69.545 415.263 -0.28242 0.687716 0.668794 0.010763
35.3573 70.6961 413.891 -0.27546 0.702921 0.655762 0.0104853
34.7718 71.7994 412.595 -0.273349 0.714427 0.644107 0.0102124
34.6141 72.8683 411.155 -0.266688 0.728372 0.631151 0.0104397
34.3377 73.921 409.722 -0.263627 0.740189 0.618563 0.00936414
34.0094 74.9628 408.291 -0.263504 0.750565 0.605985 0.00894582
33.6871 75.9453 406.817 -0.265682 0.759943 0.593211 0.00902245
33.1633 76.9428 405.414 -0.272853 0.767559 0.580004 0.00954647
32.7066 77.8969 403.957 -0.280631 0.775022 0.566205 0.00977126
32.3608 78.819 402.451 -0.288039 0.78249 0.552035 0.00885003
31.9881 79.7096 400.931 -0.29575 0.787308 0.540997 0.00845219
31.5023 80.5895 399.438 -0.305462 0.791802 0.528908 0.00933361
31.0309 81.4259 397.916 -0.315434 0.796742 0.515465 0.0100988
30.4971 82.2453 396.404 -0.32575 0.802082 0.50055 0.010551
30.1585 83.0063 394.809 -0.334237 0.808331 0.48465 0.0109435
29.7594 83.728 393.209 -0.342244 0.815183 0.467274 0.0116486
29.2815 84.4587 391.635 -0.348761 0.823094 0.448199 0.0119797
28.6924 85.1483 390.08 -0.353459 0.831325 0.428912 0.011451
28.3731 85.7893 388.428 -0.356423 0.839024 0.411098 0.0104282
28.0878 86.3536 386.743 -0.358047 0.846157 0.394741 0.00948634
27.7292 86.7194 385.018 -0.357533 0.853066 0.380063 0.00903549
27.6056 86.8848 385.192 -0.357322 0.852814 0.380828 0.00803894
26.9685 87.4224 383.597 -0.353986 0.859754 0.368125 0.00793403
26.2799 87.9332 382.014 -0.348675 0.866472 0.357285 0.00758233
25.8807 88.4663 380.342 -0.343637 0.872795 0.346616 0.01
24.6404 88.1207 379.084 -0.335428 0.87722 0.343471 0.00263119
22.9254 87.5758 379.125 -0.35146 0.871044 0.34316 0.0212539
21.2387 86.9488 379.169 -0.406373 0.849489 0.336497 0.0309355
19.6115 86.1849 379.076 -0.453088 0.827322 0.33204 0.0272205
18.0231 85.339 379.118 -0.492924 0.803891 0.332844 0.0249837
16.5466 84.3117 379.05 -0.528473 0.778945 0.337582 0.0245102
15.0417 83.3679 378.76 -0.564186 0.752622 0.339491 0.0249222
13.6093 82.2875 378.616 -0.599753 0.724747 0.339174 0.0248477
12.1739 81.2107 378.473 -0.633979 0.696817 0.335435 0.0244702
10.8607 80.052 378.057 -0.666932 0.669642 0.326775 0.0150306
9.60505 78.7797 377.846 -0.674408 0.662089 0.326819 0.00236027
8.34696 77.5638 377.423 -0.672422 0.663365 0.328321 0.00183492
7.0168 76.3514 377.398 -0.670189 0.664074 0.331439 0.00208819
5.68629 75.1414 377.323 -0.667609 0.665558 0.333662 0.000565716
4.32024 74.0517 376.891 -0.668786 0.665532 0.331351 0.00551723
3.0002 72.8599 376.614 -0.682239 0.653805 0.327243 0.0104559
1.72761 71.6621 376.183 -0.69601 0.640506 0.324533 0.0108953
0.50616 70.4737 375.603 -0.709608 0.626035 0.32332 0.0112782
-0.761767 69.3461 375.003 -0.722944 0.610141 0.32416 0.0167542
-1.93909 68.1829 374.295 -0.748677 0.580229 0.320651 0.0233507
-3.0451 66.9758 373.547 -0.77624 0.545727 0.315649 0.0258617
-4.25031 65.6804 373.216 -0.803899 0.506706 0.311441 0.0264224
-5.31585 64.3763 372.58 -0.82942 0.4681 0.304867 0.0246716
-6.24084 62.9573 371.971 -0.850638 0.432312 0.299201 0.0224417
-7.21838 61.5603 371.395 -0.8687 0.398291 0.29449 0.0227098
-8.04074 60.0483 370.868 -0.887288 0.360243 0.288003 0.0245618
-8.74509 58.5683 370.124 -0.905783 0.320024 0.277743 0.0213133
-9.29584 56.9431 369.58 -0.916853 0.291331 0.27296 0.00925442
-10.138 55.3878 369.246 -0.916129 0.288541 0.278301 0.00198441
-10.8843 53.8134 368.794 -0.915581 0.289029 0.279595 0.000814778
-11.2608 52.0793 368.492 -0.915665 0.291155 0.277104 0.00348486
-12.0026 50.4419 368.399 -0.916591 0.295694 0.269122 0.01
-11.7764 49.6598 370.004 -0.909639 0.302984 0.284177 0.00887846
-11.4559 49.0312 371.66 -0.904303 0.307496 0.296111 0.00742906
-10.996 48.4752 373.309 -0.899436 0.310325 0.307755 0.00705436
-10.5734 48.2095 375.038 -0.895673 0.308976 0.31985 0.00621942
-10.0473 47.8509 376.722 -0.893307 0.306319 0.328894 0.00494256
-9.57026 47.0145 378.243 -0.889699 0.308637 0.336421 0.00374476
-9.17938 46.8188 379.989 -0.889957 0.302635 0.341157 0.00348753
-8.89586 45.7717 381.425 -0.885515 0.30805 0.347806 0.0044799
-8.52942 44.9664 382.993 -0.882635 0.309728 0.353588 0.0050775
-8.34242 43.7858 384.339 -0.876959 0.317965 0.360335 0.00528854
-7.98698 43.0307 385.933 -0.873826 0.317378 0.368375 0.00626124
-7.77779 42.0637 387.437 -0.869003 0.315466 0.381203 0.00751014
-7.49149 41.1376 388.954 -0.864824 0.312073 0.393306 0.0072296
-7.12638 40.251 390.477 -0.861213 0.307456 0.4047 0.00712134
-6.86189 39.1241 391.856 -0.856523 0.304937 0.416392 0.0070993
-6.626 37.9316 393.183 -0.851762 0.302354 0.427883 0.00687745
-6.22858 36.9817 394.66 -0.848576 0.296529 0.438166 0.00698926
-6.04658 35.7366 395.947 -0.843728 0.293111 0.449677 0.00775247
-5.98157 34.3094 397.042 -0.837526 0.290272 0.462917 0.00824404
-5.71216 32.9696 398.213 -0.831988 0.28541 0.47575 0.00819284
-5.33314 31.7398 399.472 -0.827097 0.27887 0.487997 0.00823435
-5.00947 30.3739 400.598 -0.821119 0.273885 0.500751 0.00828855
-4.68723 29.1009 401.829 -0.815432 0.267884 0.513136 0.00847768
-4.45414 27.635 402.848 -0.807689 0.265173 0.526614 0.00882815
-4.21392 26.2028 403.911 -0.799514 0.262708 0.540149 0.00807729
-3.90071 24.8698 405.08 -0.792981 0.259791 0.55108 0.00716972
-3.52026 23.5992 406.296 -0.788014 0.253184 0.561188 0.00754212
-3.12986 22.2785 407.455 -0.783643 0.244169 0.571214 0.00825537
-2.49826 21.1571 408.714 -0.783992 0.228586 0.577152 0.00974169
-2.27834 19.6351 409.649 -0.779124 0.214908 0.588881 0.0114987
-1.85132 18.2092 410.662 -0.778385 0.193013 0.597381 0.0147914
-1.46421 16.7176 411.592 -0.778486 0.164425 0.605742 0.0159131
-0.686263 15.6054 412.774 -0.790121 0.137765 0.597269 0.0160016
-0.23259 14.1108 413.669 -0.796842 0.11197 0.593722 0.0148299
0.370979 12.9123 414.868 -0.806708 0.0891979 0.584179 0.0140564
1.03662 11.7321 416.053 -0.815226 0.0686948 0.575054 0.0117653
1.89791 10.7772 417.313 -0.822305 0.0542125 0.566459 0.00883014
2.74733 9.80084 418.564 -0.826543 0.0423754 0.561276 0.00618763
3.53365 8.84918 419.874 -0.828013 0.0337803 0.55969 0.00532781
4.52612 7.87029 421.013 -0.824103 0.0239846 0.565932 0.00838742
5.34439 7.58264 422.59 -0.811907 0.0266172 0.583179 0.0135007
6.32171 7.03782 424 -0.795745 0.0259278 0.605076 0.0171334
7.42651 6.66015 425.37 -0.774448 0.0275868 0.632036 0.0195966
8.55194 6.08708 426.652 -0.75118 0.0258091 0.659593 0.0210872
9.75525 5.73515 427.944 -0.724385 0.0267063 0.688878 0.0222043
10.988 5.51475 429.237 -0.696109 0.0300852 0.717306 0.0197374
12.265 4.84698 430.315 -0.674116 0.027862 0.7381 0.0162854
13.5749 4.22783 431.383 -0.652863 0.0331555 0.75675 0.0187965
14.8092 4.02097 432.677 -0.624693 0.0463882 0.779492 0.0198348
16.1519 3.39625 433.7 -0.599612 0.0536164 0.798493 0.019389
17.6144 3.09183 434.705 -0.57039 0.0646341 0.818827 0.018548
19.0965 2.36936 435.427 -0.546675 0.0703958 0.834381 0.0185417
20.3926 2.48429 436.67 -0.517989 0.0818698 0.851461 0.01
21.8721 2.84809 437.629 -0.498274 0.0870657 0.862637 0.00672547
23.461 3.04021 438.453 -0.498663 0.0739952 0.863632 0.00731158
24.9913 3.49264 439.285 -0.500796 0.0609511 0.863416 0.00740632
26.424 4.47662 439.754 -0.505758 0.0488599 0.861291 0.00719879
27.5376 5.7577 440.352 -0.512012 0.0384343 0.858118 0.00221175
28.4125 7.0996 441.173 -0.498961 0.048054 0.865291 0.0119649
29.7401 8.22437 441.634 -0.480239 0.0609203 0.875019 0.013719
31.2723 9.06353 442.068 -0.460415 0.0714797 0.884821 0.0134152
32.7296 9.98867 442.578 -0.441305 0.0825944 0.893548 0.0139926
33.5861 11.4022 443.291 -0.423991 0.10069 0.900052 0.0174924
34.8463 12.5464 443.876 -0.395639 0.121601 0.91032 0.0212224
36.4602 13.0901 444.459 -0.361954 0.136482 0.922151 0.022242
37.9773 13.9311 444.94 -0.326374 0.154244 0.932571 0.023395
39.5869 14.664 445.275 -0.28796 0.171007 0.94225 0.0175569
41.3008 15.065 445.651 -0.267859 0.171322 0.948103 0.00905398
43.002 15.481 446.067 -0.256619 0.171487 0.951178 0.00631087
