# .PCD v0.7 - Point Cloud Data file format
# 5 148 0
# 1 58 0
# 59 89 0
# 90 121 0
# 122 146 0
# 147 148 0
VERSION 0.7
FIELDS x y z normal_x normal_y normal_z curvature
SIZE 4 4 4 4 4 4 4
TYPE F F F F F F F
COUNT 1 1 1 1 1 1 1
WIDTH 148
HEIGHT 1
VIEWPOINT 0 0 0 1 0 0 0
POINTS 148
DATA ascii
35.6181 -23.9869 389.41 0.00918189 0.66985 0.74244 0.01
36.0616 -22.6095 388.339 -0.00587071 0.657348 0.753565 0.0323795
35.4661 -23.9126 389.429 0.00408103 0.671423 0.741063 0.0132005
36.5087 -21.0535 386.874 -0.0279953 0.643075 0.765291 0.0126867
36.6576 -19.6178 385.799 -0.0491646 0.6329 0.772671 0.0114971
37.0852 -18.2749 384.679 -0.0580104 0.620366 0.782165 0.0102307
37.1766 -16.7572 383.715 -0.0714875 0.609387 0.789644 0.00995287
37.3838 -15.2903 382.693 -0.0795039 0.596804 0.798438 0.00943111
37.7433 -13.8574 381.665 -0.0818928 0.583045 0.808302 0.00951691
38.3741 -12.552 380.598 -0.0767346 0.569334 0.818518 0.00877627
38.4469 -10.9969 379.694 -0.0852579 0.557527 0.825769 0.00859966
39.3728 -9.85548 378.655 -0.0730569 0.544927 0.835295 0.0144595
40.8927 -8.90798 378.476 -0.0462107 0.533237 0.844703 0.0145508
42.1184 -7.80382 377.756 -0.031641 0.520175 0.853473 0.00863284
42.5737 -6.28848 376.898 -0.0354822 0.509455 0.859765 0.00708469
43.1699 -4.89763 375.923 -0.0376533 0.498789 0.865905 0.00883618
43.2379 -3.29678 375.103 -0.0487259 0.484502 0.873432 0.0109308
43.3874 -1.70782 374.271 -0.0582231 0.468991 0.881281 0.0107389
43.4076 -0.0931981 373.475 -0.0682736 0.454575 0.888088 0.0100076
43.7302 1.44624 372.6 -0.0738048 0.439758 0.895079 0.00921791
43.9725 3.01964 371.76 -0.0787879 0.426013 0.90128 0.00848785
44.0047 4.65721 371.013 -0.0837865 0.413391 0.90669 0.00783991
43.9476 6.33044 370.352 -0.0873047 0.401263 0.911793 0.00754314
44.0518 7.98155 369.643 -0.0871188 0.388636 0.917264 0.00769013
44.0172 9.66041 368.995 -0.0857781 0.375887 0.922687 0.00789146
43.9758 11.3413 368.352 -0.0822923 0.362864 0.928201 0.00834165
44.2353 12.9371 367.561 -0.0735214 0.350874 0.933532 0.00891067
44.0101 14.6447 367.038 -0.0681615 0.336705 0.93914 0.00935977
44.0104 16.3333 366.415 -0.0584131 0.322963 0.944607 0.0100826
43.9443 18.0371 365.838 -0.0481546 0.308454 0.950019 0.00965096
43.8659 19.747 365.281 -0.0366711 0.297544 0.954003 0.00925024
43.7486 21.4724 364.782 -0.024258 0.286596 0.957744 0.0104049
43.7853 23.1716 364.189 -0.00689223 0.276048 0.961119 0.0102181
43.3703 24.8973 363.889 -1.58119e-05 0.260598 0.965447 0.0106265
43.288 26.624 363.388 0.0162777 0.246912 0.968901 0.0116313
43.0619 28.3702 363.014 0.0285197 0.230879 0.972564 0.0117309
42.8855 30.092 362.52 0.042377 0.214475 0.97581 0.0097523
42.2687 31.7716 362.324 0.0363253 0.197782 0.979573 0.00790354
42.1495 33.5007 361.838 0.0491138 0.187709 0.980996 0.0087894
42.0065 35.2338 361.374 0.0603525 0.177377 0.982291 0.0113502
40.9932 36.714 361.523 0.0217178 0.160666 0.98677 0.0107956
40.9423 38.4714 361.137 0.0360541 0.150225 0.987994 0.00959339
40.8259 40.2203 360.727 0.0483251 0.138785 0.989143 0.00778109
40.3606 41.9535 360.587 0.0398942 0.122929 0.991613 0.0141592
39.628 43.5976 360.573 0.0115106 0.104212 0.994488 0.0118662
39.3226 45.3561 360.34 0.012453 0.0909885 0.995774 0.00975874
38.7775 47.0681 360.23 -0.00716845 0.0747 0.99718 0.00793664
38.629 48.8365 359.929 0.0166871 0.0630309 0.997872 0.0110455
37.9438 50.5003 359.975 0.018164 0.0449428 0.998824 0.00942621
37.3956 52.2145 359.945 0.0208344 0.0294198 0.99935 0.00867378
36.8268 53.9223 359.942 0.0205577 0.0138226 0.999693 0.00919878
36.1136 55.5745 359.982 0.0143314 -0.00301321 0.999893 0.00742522
35.556 57.286 359.982 0.0164483 -0.01256 0.999786 0.00605486
35.1449 59.0384 359.979 0.0259763 -0.0214108 0.999433 0.00883525
34.8532 60.8104 359.858 0.0430427 -0.0299031 0.998626 0.00960154
33.8722 62.2786 360.208 0.0399917 -0.0517939 0.997857 0.012599
33.7127 64.069 360.113 0.0715163 -0.06279 0.995461 0.0155057
32.5768 65.3842 360.582 0.0694195 -0.0950013 0.993054 0.0162686
32.3677 67.1719 360.557 0.0988429 -0.110642 0.988933 0.0149407
31.4328 68.6505 360.98 0.0938281 -0.14037 0.985643 0.0206989
30.0282 69.6869 361.42 0.0589873 -0.171915 0.983344 0.01
28.4146 68.9254 361.182 -0.000604715 -0.181196 0.983447 0.0277409
26.8824 67.9927 361.034 -0.0403481 -0.180359 0.982773 0.00968012
25.4552 66.9381 360.732 -0.0345694 -0.173741 0.984184 0.00873546
24.1616 65.6865 360.728 -0.0172058 -0.159758 0.987006 0.0158987
22.5811 64.8842 360.415 0.0132863 -0.144382 0.989433 0.021212
21.1049 63.8698 360.237 0.0499631 -0.124123 0.991008 0.0244385
19.7389 62.699 360.296 0.0899541 -0.101893 0.99072 0.0236623
18.1523 61.8547 360.394 0.122461 -0.0804273 0.989209 0.0190658
16.5981 60.9539 360.51 0.145255 -0.0613856 0.987488 0.0151671
15.0052 60.1201 360.595 0.165176 -0.0466806 0.985159 0.0125662
13.6293 59.0293 360.991 0.181454 -0.0352981 0.982766 0.00940139
12.2372 57.9124 361.225 0.193629 -0.0289852 0.980646 0.00562561
10.9444 56.6722 361.4 0.197896 -0.0238571 0.979933 0.00469968
9.45923 55.7183 361.753 0.204516 -0.0163075 0.978727 0.00771401
8.10511 54.551 361.961 0.215666 -0.00291975 0.976463 0.0115587
6.87276 53.2816 362.293 0.231896 0.0143395 0.972635 0.0150445
5.45899 52.2475 362.708 0.254224 0.0335137 0.966565 0.0189701
4.04881 51.1746 363.024 0.284076 0.0555514 0.957191 0.0246908
2.94659 49.818 363.454 0.326549 0.0776792 0.941983 0.0282571
1.98236 48.4289 364.071 0.369044 0.10009 0.924007 0.0308826
0.712062 47.3032 364.671 0.418589 0.122034 0.89994 0.0308908
-0.0603635 45.8226 365.342 0.458086 0.143559 0.877239 0.0312042
-1.30722 44.8069 366.151 0.507622 0.159545 0.846679 0.0326873
-2.45918 43.7506 367.044 0.553567 0.17215 0.814818 0.0251106
-3.55005 42.7483 368.066 0.576304 0.187894 0.795343 0.0155276
-4.71096 41.8496 369.107 0.587011 0.204043 0.783444 0.0118583
-5.3946 40.5719 370.175 0.597515 0.215932 0.772236 0.00992918
-6.74141 39.9292 371.182 0.602858 0.228227 0.764509 0.00815598
-7.57192 38.7505 372.259 0.609132 0.237168 0.756776 0.00654133
-8.67005 37.9456 373.437 0.612446 0.245116 0.75155 0.00485352
-9.60701 36.8889 374.553 0.615018 0.250735 0.747586 0.01
-9.61056 35.118 374.875 0.618275 0.251908 0.744499 0.00248227
-9.61206 33.4958 375.655 0.621032 0.253444 0.741677 0.00230217
-9.49248 31.7944 376.23 0.623857 0.254451 0.738956 0.00226282
-9.0265 30.0685 376.441 0.626956 0.254514 0.736308 0.00218187
-8.48845 28.36 376.618 0.629774 0.254787 0.733804 0.00192325
-8.26636 26.6062 376.957 0.631762 0.256101 0.731634 0.00166701
-8.163 24.8821 377.464 0.632989 0.258003 0.729903 0.00239853
-8.11904 23.1577 377.978 0.633606 0.263414 0.727432 0.00383416
-8.04831 21.4371 378.502 0.633545 0.270802 0.724767 0.00446656
-7.7285 19.7283 378.969 0.633058 0.27858 0.72224 0.00465392
-7.81165 18.0539 379.624 0.631758 0.286688 0.720203 0.0047921
-7.81179 16.3763 380.277 0.630027 0.2951 0.718319 0.00496132
-7.81159 14.7087 380.954 0.627824 0.303742 0.716643 0.00518969
-7.36192 13.0407 381.46 0.626359 0.312739 0.714051 0.00464298
-7.79492 11.5771 382.414 0.622291 0.318707 0.714969 0.00354367
-7.81146 9.92738 383.134 0.619377 0.32316 0.7155 0.00294533
-7.81079 8.26149 383.815 0.616659 0.32765 0.715805 0.00287011
-7.75549 6.58615 384.471 0.614302 0.332154 0.715756 0.00276156
-7.52133 4.9731 385.235 0.612437 0.336615 0.71527 0.00277074
-7.5134 3.31623 385.938 0.609962 0.341097 0.715262 0.00323134
-7.77641 1.79831 386.869 0.605357 0.345595 0.717012 0.00343337
-7.67681 0.216378 387.722 0.602503 0.350725 0.716926 0.00392433
-7.91229 -1.34382 388.589 0.596751 0.35657 0.71885 0.00450407
-7.60139 -3.01618 389.177 0.593399 0.363802 0.718001 0.00485166
-7.2047 -4.68933 389.709 0.589738 0.372399 0.716608 0.00621655
-7.35681 -6.25959 390.576 0.579389 0.380554 0.720754 0.00772941
-7.11805 -7.8582 391.368 0.569964 0.390702 0.722837 0.00753817
-6.49292 -9.47753 391.845 0.564868 0.403157 0.719992 0.00773169
-6.59712 -11.0538 392.708 0.547822 0.393725 0.738154 0.0126249
-6.35312 -12.6754 393.45 0.534749 0.388556 0.750378 0.00939831
-5.95572 -14.2894 394.14 0.523016 0.386161 0.759825 0.00944441
-5.72858 -15.9656 394.756 0.507871 0.38471 0.770757 0.01
-4.34602 -16.1989 393.627 0.536711 0.400151 0.742846 0.016848
-2.81795 -16.0109 392.694 0.531186 0.425129 0.732876 0.0177664
-1.3198 -16.3286 391.749 0.50206 0.452803 0.736821 0.0222003
0.269856 -16.6344 390.962 0.471582 0.477521 0.74134 0.0202632
1.79068 -16.6126 389.999 0.445352 0.497397 0.744485 0.0228582
3.32202 -17.3753 389.439 0.405094 0.520389 0.751727 0.0261571
5.02543 -17.7313 388.979 0.364152 0.541687 0.757607 0.0252281
6.7132 -17.884 388.372 0.324267 0.559885 0.762483 0.0258638
8.3787 -18.5441 388.198 0.280792 0.578501 0.765828 0.0224068
10.1063 -18.9414 387.886 0.250555 0.59171 0.766226 0.0174561
11.8136 -19.4968 387.757 0.223102 0.603055 0.765865 0.0159096
13.4299 -20.2582 387.976 0.197856 0.613106 0.764823 0.0145752
15.1661 -20.7312 387.93 0.173944 0.620375 0.764774 0.0126118
16.8892 -21.2476 387.993 0.154524 0.626547 0.763911 0.0114071
18.6391 -21.6685 388.021 0.135357 0.633966 0.761424 0.0123857
20.3186 -22.3161 388.012 0.114214 0.643878 0.756555 0.0139711
22.0883 -22.6381 388.077 0.0917833 0.655563 0.749541 0.0171777
23.8351 -22.9566 388.373 0.0606419 0.669731 0.740124 0.0212717
25.5886 -23.348 388.482 0.0219114 0.681093 0.731869 0.0221809
27.2686 -23.8147 388.929 -0.014343 0.690139 0.723534 0.0203436
29.0104 -24.0498 389.317 -0.0486315 0.694229 0.718109 0.0158943
30.708 -24.4117 389.794 -0.0705013 0.69597 0.714602 0.000349438
32.4832 -24.4678 390.086 -0.0480067 0.695029 0.717377 0.0164594
34.2494 -24.5887 390.412 -0.0127504 0.688276 0.725337 0.0207613
