# .PCD v0.7 - Point Cloud Data file format
# 5 151 0
# 1 22 0
# 23 40 0
# 41 87 0
# 88 118 0
# 119 151 0
VERSION 0.7
FIELDS x y z normal_x normal_y normal_z curvature
SIZE 4 4 4 4 4 4 4
TYPE F F F F F F F
COUNT 1 1 1 1 1 1 1
WIDTH 151
HEIGHT 1
VIEWPOINT 0 0 0 1 0 0 0
POINTS 151
DATA ascii
-41.5272 12.1694 387.064 0.40977 -0.260901 -0.874082 0.01
-40.9687 13.8757 386.934 0.444801 -0.237289 -0.863624 0.0134589
-40.4604 15.5887 386.717 0.450616 -0.238914 -0.860154 0.00361496
-39.8405 17.2667 386.517 0.452065 -0.24608 -0.857369 0.00542249
-39.3387 18.9851 386.329 0.454105 -0.256782 -0.853142 0.00619436
-38.5203 20.584 386.211 0.451728 -0.267384 -0.851145 0.00732106
-37.9503 22.2791 386.008 0.45266 -0.282003 -0.845916 0.00464752
-37.1995 23.9069 385.844 0.449306 -0.283441 -0.847222 0.00254109
-36.308 25.4687 385.767 0.44454 -0.28237 -0.850089 0.000910815
-35.9103 27.1955 385.451 0.446519 -0.283056 -0.848823 0.00152237
-35.5497 28.9258 385.11 0.448783 -0.284304 -0.84721 0.000823003
-34.8237 30.5627 384.927 0.448033 -0.285099 -0.84734 0.00156685
-34.7514 32.2856 384.411 0.451756 -0.287995 -0.844379 0.00258058
-34.5961 34.0193 383.953 0.453417 -0.290905 -0.842489 0.00144835
-33.7405 35.5922 383.769 0.452077 -0.292746 -0.842571 0.00132003
-33.8904 37.2712 383.138 0.453474 -0.295166 -0.840975 0.00155747
-34.398 38.9004 382.565 0.45395 -0.297307 -0.839963 0.00137109
-33.9857 40.5738 382.045 0.453221 -0.299699 -0.839507 0.00148077
-33.7272 42.2974 381.595 0.452147 -0.302254 -0.83917 0.00170326
-33.1022 43.9218 381.136 0.45074 -0.30523 -0.838849 0.00190641
-33.2 45.6055 380.507 0.448343 -0.307787 -0.839199 0.00270748
-33.1253 47.3128 379.942 0.445175 -0.313216 -0.838878 0.00351933
-33.4526 48.955 379.282 0.441018 -0.318018 -0.839266 0.00423639
-33.1807 50.6062 378.619 0.435159 -0.324387 -0.839887 0.00420438
-33.6733 52.2017 377.947 0.430005 -0.327684 -0.841261 0.00408116
-33.7364 53.8269 377.176 0.42328 -0.332303 -0.842857 0.00422237
-33.9822 55.3949 376.327 0.417407 -0.33549 -0.844522 0.00299658
-34.4944 56.9093 375.499 0.414076 -0.33722 -0.845472 0.0029797
-34.9567 58.4313 374.657 0.411768 -0.344571 -0.843634 0.00452119
-35.3346 59.987 373.834 0.409063 -0.352251 -0.841776 0.00494835
-35.5767 61.5731 373.018 0.404718 -0.360583 -0.840347 0.003327
-36.4416 62.8798 372.133 0.408563 -0.363143 -0.837379 0.00475321
-36.154 64.4934 371.388 0.396744 -0.374424 -0.838094 0.00787644
-36.3166 66.1024 370.598 0.388571 -0.382923 -0.838082 0.00367363
-36.8677 66.915 370.005 0.390703 -0.383039 -0.837038 0.00520393
-37.0019 68.5053 369.172 0.379963 -0.395056 -0.836396 0.011451
-36.891 70.147 368.443 0.362411 -0.412825 -0.835604 0.015452
-36.6286 71.7859 367.746 0.339766 -0.433394 -0.834703 0.0156626
-36.6868 73.3622 366.879 0.320883 -0.45045 -0.833144 0.0129854
-37.0419 74.927 366.063 0.304771 -0.464001 -0.831756 0.0180093
-36.4097 76.3968 365.239 0.273413 -0.490431 -0.82748 0.0226676
-35.8336 77.9332 364.499 0.243262 -0.516462 -0.82103 0.0179332
-36.1348 79.4237 363.536 0.224333 -0.528147 -0.818984 0.0161647
-35.7473 80.8927 362.57 0.197025 -0.548863 -0.812361 0.01998
-35.1962 82.3474 361.665 0.169641 -0.571785 -0.802673 0.02067
-34.5682 83.7736 360.764 0.143515 -0.595613 -0.790347 0.0204058
-34.1417 85.2051 359.759 0.118962 -0.618145 -0.77701 0.0203291
-33.5477 86.5404 358.709 0.0956903 -0.642154 -0.76058 0.0212002
-32.9737 87.8803 357.653 0.0752152 -0.668479 -0.739918 0.0207584
-32.0711 89.0696 356.647 0.0564224 -0.691033 -0.720617 0.0186329
-31.2314 90.2195 355.546 0.0369566 -0.709753 -0.70348 0.0171149
-30.5971 91.382 354.327 0.0167978 -0.725197 -0.688336 0.0167716
-29.8881 92.5128 353.119 -0.00686373 -0.738835 -0.673852 0.0163437
-29.115 93.5679 351.883 -0.0270093 -0.75148 -0.659203 0.0137727
-28.0257 94.462 350.763 -0.0382725 -0.763375 -0.644821 0.0108422
-27.4172 95.543 349.459 -0.0455398 -0.772841 -0.632964 0.01
-25.622 95.4436 349.544 -0.0388763 -0.774424 -0.631472 0.0033689
-23.8705 95.6628 349.192 -0.0335858 -0.77271 -0.633871 0.00511799
-22.233 95.076 349.655 -0.0471874 -0.764359 -0.643062 0.00886568
-20.4701 94.757 349.83 -0.0606738 -0.761204 -0.645668 0.00619324
-18.8345 94.318 350.44 -0.0686122 -0.759986 -0.646308 0.00496639
-17.0378 94.2382 350.367 -0.0767034 -0.764737 -0.639761 0.0113558
-15.2827 93.8403 350.405 -0.10589 -0.76775 -0.631939 0.0186836
-13.5238 93.4694 350.497 -0.142056 -0.768182 -0.624273 0.0199092
-11.7966 92.9861 350.65 -0.176064 -0.766492 -0.617651 0.0184456
-10.1152 92.3904 350.891 -0.207036 -0.763508 -0.611712 0.012697
-8.37613 91.9266 350.913 -0.220108 -0.764337 -0.606087 0.00626056
-6.65556 91.3979 350.904 -0.228935 -0.760974 -0.607048 0.00635384
-4.90882 91.1753 350.53 -0.239711 -0.754213 -0.611311 0.0117826
-3.31598 90.3897 350.823 -0.259621 -0.738352 -0.622442 0.0113939
-1.57159 90.4417 350.382 -0.237904 -0.729442 -0.641339 0.0210031
0.117577 89.8216 350.335 -0.201221 -0.720314 -0.66382 0.0263363
1.85776 89.3615 350.327 -0.157364 -0.709445 -0.686967 0.028956
3.5836 89.1057 350.77 -0.11227 -0.695301 -0.709896 0.01
4.16455 87.7334 351.779 -0.125292 -0.686965 -0.715808 0.00832657
5.18534 86.6538 352.795 -0.122839 -0.674401 -0.728075 0.00888043
5.94102 85.3705 353.806 -0.125193 -0.663657 -0.737486 0.00807323
6.48493 83.9595 354.783 -0.133166 -0.653406 -0.745203 0.00835129
7.15128 82.6268 355.793 -0.134645 -0.641393 -0.755305 0.0102707
8.08428 81.4495 356.784 -0.119193 -0.628582 -0.768555 0.0121411
8.87909 80.1737 357.775 -0.108543 -0.616462 -0.779867 0.00749863
9.02819 78.5983 358.633 -0.130132 -0.608934 -0.782474 0.00972083
9.63894 77.2016 359.59 -0.133473 -0.595703 -0.792037 0.0104993
10.3775 75.8679 360.547 -0.131322 -0.578614 -0.80496 0.0155681
11.3146 74.6728 361.513 -0.103681 -0.5594 -0.822388 0.0122801
11.6928 73.1441 362.385 -0.11279 -0.54759 -0.82911 0.0108149
11.7422 71.5248 363.169 -0.138047 -0.542606 -0.828566 0.00604903
12.6831 70.2906 364.081 -0.106206 -0.531287 -0.840509 0.0119657
13.1589 68.8001 364.971 -0.103765 -0.523806 -0.845494 0.00700775
13.135 67.1728 365.74 -0.128005 -0.51986 -0.844606 0.00521166
13.9603 65.8857 366.69 -0.109027 -0.508701 -0.854012 0.00704664
14.2761 64.3335 367.545 -0.120455 -0.499886 -0.857674 0.0108873
14.4393 62.7293 368.345 -0.140602 -0.486983 -0.86202 0.0143518
14.4655 61.1336 369.177 -0.164851 -0.474492 -0.864686 0.0202778
13.8413 59.5801 369.838 -0.209496 -0.467352 -0.858891 0.0119821
14.6027 58.0864 370.493 -0.197456 -0.452231 -0.869769 0.00981894
15.1449 56.5998 371.351 -0.196255 -0.439797 -0.876392 0.0078951
15.0235 54.961 372.086 -0.21506 -0.431536 -0.876086 0.00635306
15.5888 53.4651 372.912 -0.20969 -0.422645 -0.881704 0.00747149
15.895 51.8823 373.713 -0.211196 -0.407945 -0.888244 0.0101585
15.5297 50.2119 374.275 -0.229831 -0.394145 -0.889847 0.00962862
15.9344 48.6343 375.041 -0.227029 -0.379393 -0.89695 0.00902844
15.6288 46.9491 375.596 -0.241028 -0.365811 -0.898937 0.00881553
15.8565 45.3227 376.332 -0.24073 -0.352216 -0.90443 0.00807711
15.7051 43.6392 376.951 -0.247615 -0.339044 -0.907599 0.00948397
15.1536 42.0201 377.512 -0.261663 -0.325834 -0.908496 0.00759139
15.3084 40.3254 378.098 -0.257088 -0.314738 -0.913699 0.00747192
15.5442 38.6516 378.717 -0.249429 -0.304458 -0.919288 0.00706638
15.4024 36.9502 379.287 -0.248285 -0.293052 -0.923296 0.00685587
15.213 35.2463 379.836 -0.246351 -0.281368 -0.927439 0.00712873
15.0221 33.5438 380.388 -0.242854 -0.269484 -0.93188 0.00745963
14.6144 31.876 380.929 -0.2429 -0.256083 -0.93564 0.00806788
14.8087 30.1653 381.454 -0.22791 -0.24716 -0.94179 0.00843271
14.4226 28.4638 381.896 -0.224508 -0.234729 -0.945779 0.00785052
14.0277 26.7704 382.362 -0.22041 -0.221178 -0.95 0.0085487
13.651 25.0647 382.796 -0.214883 -0.206826 -0.954488 0.0098528
13.6475 23.3302 383.277 -0.199251 -0.194928 -0.960366 0.0115426
13.627 21.6169 383.828 -0.183726 -0.181879 -0.966005 0.0094918
12.9394 19.968 384.048 -0.185479 -0.165605 -0.968593 0.00607857
12.242 18.3416 384.378 -0.189564 -0.160958 -0.968585 0.00620381
11.268 16.8526 384.65 -0.204612 -0.154429 -0.966584 0.01
9.53936 17.0268 385.121 -0.262552 -0.136244 -0.955251 0.0365057
7.8701 17.4626 385.634 -0.326807 -0.116808 -0.937845 0.0262095
6.1602 17.3473 386.184 -0.347224 -0.105013 -0.931884 0.00482814
4.58424 16.7928 386.854 -0.334069 -0.101202 -0.9371 0.00745945
2.96315 16.5016 387.58 -0.32307 -0.098258 -0.941261 0.00607969
1.28439 17.0507 387.927 -0.314413 -0.0979653 -0.944218 0.0117022
-0.386577 16.7184 388.508 -0.284252 -0.098539 -0.953672 0.0215132
-2.11092 16.782 389.021 -0.240482 -0.100837 -0.965401 0.0250367
-3.85101 16.6058 389.446 -0.197003 -0.102056 -0.975077 0.0248457
-5.60538 16.8814 389.74 -0.153622 -0.106308 -0.982394 0.0160622
-7.38873 16.8322 389.979 -0.140458 -0.107991 -0.98418 0.00432882
-9.17385 16.8482 390.209 -0.138264 -0.10787 -0.984504 0.00178933
-10.9222 16.6768 390.602 -0.134907 -0.104948 -0.985285 0.00309572
-12.7146 16.5548 390.713 -0.130361 -0.100292 -0.986381 0.0100038
-14.2856 15.8033 391.168 -0.102163 -0.0930275 -0.990408 0.019175
-16.0776 15.6335 391.164 -0.0639065 -0.0916382 -0.99374 0.0210706
-17.8762 15.5965 391.223 -0.0265438 -0.0949216 -0.995131 0.0209751
-19.6717 15.6991 391.298 0.0105549 -0.103796 -0.994543 0.0177053
-21.3689 15.1013 391.252 0.0337092 -0.111266 -0.993219 0.0140257
-23.1607 14.9409 391.19 0.0578586 -0.119937 -0.991094 0.0134499
-24.8394 14.2916 391.171 0.0801392 -0.122532 -0.989224 0.0127419
-26.4132 13.4181 391.165 0.103462 -0.120384 -0.987321 0.0151291
-28.1959 13.2851 390.955 0.132852 -0.1186 -0.984014 0.0168313
-29.9748 13.1756 390.703 0.163499 -0.120301 -0.979181 0.0170074
-31.6794 12.6658 390.43 0.192437 -0.124664 -0.973359 0.0185342
-33.4375 12.466 390.1 0.2257 -0.138381 -0.964318 0.0252196
-35.1396 12.0575 389.68 0.273455 -0.157064 -0.948975 0.0304267
-36.7208 11.3364 389.211 0.322848 -0.174363 -0.930251 0.0318144
-38.4376 11.2907 388.672 0.368985 -0.199579 -0.907755 0.0302836
-40.0282 11.6251 387.899 0.4026 -0.232007 -0.885486 0.0225436
