# .PCD v0.7 - Point Cloud Data file format
# 3 154 0
# 1 72 0
# 73 146 0
# 147 154 0
VERSION 0.7
FIELDS x y z normal_x normal_y normal_z curvature
SIZE 4 4 4 4 4 4 4
TYPE F F F F F F F
COUNT 1 1 1 1 1 1 1
WIDTH 154
HEIGHT 1
VIEWPOINT 0 0 0 1 0 0 0
POINTS 154
DATA ascii
-3.81936 -67.4041 439.158 0.0122837 -0.284721 0.958532 0.01
-2.10738 -66.854 439.239 0.0151529 -0.271025 0.962453 0.0112068
-1.07628 -65.5004 439.826 0.0419011 -0.261367 0.96433 0.0166114
0.602668 -64.8527 439.867 0.0705452 -0.257947 0.96358 0.0131216
2.17359 -63.9854 440.008 0.0886688 -0.255966 0.962611 0.00781098
3.30826 -62.6067 440.236 0.0963311 -0.248065 0.963942 0.00957426
4.48803 -61.262 440.435 0.116159 -0.235316 0.964953 0.0188217
5.94812 -60.2108 440.38 0.156426 -0.218101 0.963308 0.0279157
7.33395 -59.0625 440.411 0.208104 -0.195505 0.958369 0.0286907
7.21443 -58.8335 440.653 0.205162 -0.194637 0.959179 0.0324893
8.53078 -57.6247 440.439 0.263004 -0.170954 0.949528 0.0273378
9.41727 -56.0606 440.527 0.290134 -0.15029 0.945111 0.0172529
10.6042 -54.7543 440.173 0.311838 -0.135084 0.940483 0.0114415
11.5149 -53.226 439.9 0.321684 -0.124971 0.938564 0.00545349
12.1884 -51.56 440.004 0.318199 -0.116689 0.940815 0.00683149
12.7734 -49.8601 440.094 0.304217 -0.109491 0.946289 0.00919232
13.5342 -48.2293 440.135 0.289599 -0.104031 0.951478 0.00903908
14.5686 -46.7606 440.022 0.27477 -0.10042 0.956252 0.00812691
15.3602 -45.144 440.022 0.265783 -0.0894672 0.959872 0.00672041
16.4351 -43.7132 439.829 0.265584 -0.0786779 0.960872 0.00737836
17.2055 -42.0898 439.723 0.269865 -0.0633803 0.96081 0.00941263
18.1877 -40.6057 439.454 0.280275 -0.0483529 0.958701 0.0107012
19.1592 -39.1199 439.156 0.293017 -0.0330463 0.955536 0.0110462
20.0459 -37.5697 438.931 0.30371 -0.0168386 0.952616 0.0114995
20.5969 -35.8595 438.823 0.318509 -0.00164804 0.947918 0.0144708
21.4243 -34.2882 438.529 0.341867 0.0157451 0.939617 0.0190544
22.2997 -32.7789 438.087 0.372495 0.0352042 0.927366 0.0204858
22.8815 -31.0952 437.829 0.400821 0.0515122 0.914707 0.0198315
23.465 -29.443 437.417 0.430615 0.0662815 0.900099 0.0160765
23.6334 -27.6608 437.228 0.446769 0.0766453 0.89136 0.0144271
24.182 -26.0137 436.753 0.471801 0.0871271 0.87739 0.0109114
24.1904 -24.2229 436.571 0.475879 0.0955458 0.874305 0.00861269
24.7821 -22.6152 436.019 0.494461 0.101609 0.86324 0.00585417
24.761 -20.8214 435.871 0.488176 0.109732 0.865819 0.00723492
24.8405 -19.0503 435.56 0.484132 0.125321 0.865974 0.00985341
24.7298 -17.2614 435.394 0.474685 0.142337 0.86857 0.0105152
24.6284 -15.4799 435.157 0.466797 0.158723 0.870004 0.00931204
24.6713 -13.7163 434.8 0.463402 0.173853 0.868927 0.00840897
24.7515 -11.9697 434.372 0.461584 0.188369 0.866866 0.00825442
24.7796 -10.2078 434.004 0.45854 0.202924 0.865195 0.00827451
24.7516 -8.45095 433.614 0.455159 0.217256 0.863499 0.00816164
24.6688 -6.70532 433.183 0.451698 0.231273 0.861674 0.00759448
24.7216 -4.99313 432.63 0.451627 0.243816 0.858246 0.00691657
24.6973 -3.25383 432.167 0.449162 0.255409 0.856166 0.00734416
24.4182 -1.52312 431.759 0.442043 0.268273 0.855936 0.00802256
24.2727 0.212146 431.303 0.436533 0.281309 0.854578 0.00796075
24.1371 1.91106 430.724 0.431369 0.294653 0.852702 0.00805053
24.0796 3.60822 430.127 0.426653 0.308206 0.85028 0.00874523
23.8476 5.30998 429.588 0.418521 0.323084 0.848797 0.00993672
23.5447 7.01767 429.106 0.408513 0.338901 0.847504 0.0100059
23.3119 8.58063 428.245 0.401224 0.354144 0.844749 0.011009
22.8218 10.3055 428.087 0.385942 0.37026 0.84496 0.0123633
22.3027 11.9615 427.61 0.370595 0.38618 0.844704 0.0127848
21.7155 13.5853 427.101 0.353798 0.403169 0.843968 0.0131658
21.1705 15.2008 426.524 0.337885 0.420367 0.842096 0.0125434
20.7356 16.8051 425.833 0.324602 0.437164 0.838762 0.0129953
19.8413 18.3211 425.456 0.307074 0.454304 0.836249 0.0124818
19.3485 19.8781 424.699 0.296342 0.470546 0.831124 0.0113674
18.6686 21.4136 424.051 0.28435 0.486668 0.826014 0.0110226
18.1088 22.9459 423.291 0.275524 0.502262 0.819646 0.009141
17.3272 24.4341 422.647 0.265331 0.511876 0.817057 0.00717544
16.6 25.9356 421.971 0.257112 0.5197 0.814743 0.0058982
16.0905 27.4503 421.143 0.251915 0.527283 0.811487 0.00552071
15.0829 28.816 420.543 0.24551 0.534374 0.808807 0.00452233
14.394 30.2635 419.725 0.24903 0.54096 0.803335 0.0051687
14.0057 31.6951 418.705 0.251208 0.548115 0.797788 0.00582788
13.206 33.1648 418.041 0.258462 0.554644 0.790928 0.00722949
12.0893 34.5011 417.586 0.268056 0.561142 0.783113 0.00663285
11.5909 35.9748 416.68 0.267561 0.57052 0.776478 0.0068624
10.8923 37.4229 415.871 0.266083 0.581256 0.768987 0.00966978
10.1666 38.8618 415.069 0.261572 0.598753 0.757017 0.0127196
9.53722 40.1892 414.029 0.249657 0.617206 0.746142 0.0175376
8.79796 41.5693 413.141 0.215273 0.637792 0.739513 0.024032
7.78357 42.8635 412.409 0.175054 0.658031 0.73236 0.0229006
6.96128 44.0715 411.358 0.144096 0.675157 0.723464 0.0172484
6.53023 45.3454 410.161 0.124959 0.688942 0.713964 0.0154765
5.45465 46.4915 409.284 0.1005 0.702182 0.704869 0.0129416
4.77395 47.722 408.161 0.0900537 0.712874 0.695486 0.00753709
3.74401 48.8386 407.195 0.0893455 0.720103 0.688091 0.00644065
2.89051 49.9895 406.105 0.102136 0.725654 0.680437 0.0104757
1.11854 50.2073 405.876 0.122915 0.720012 0.682989 0.01
0.814817 49.1215 407.279 0.116982 0.711293 0.693093 0.00814218
-0.16852 48.033 408.322 0.117529 0.700843 0.703566 0.00816163
-0.82442 46.9076 409.564 0.113073 0.691112 0.713847 0.0092697
-1.44948 45.7361 410.78 0.100639 0.681495 0.72487 0.0105676
-2.09467 44.5264 411.946 0.0884925 0.671747 0.735476 0.0101159
-2.63851 43.3165 413.163 0.0773124 0.662335 0.745208 0.00909921
-2.85921 42.0756 414.448 0.0680985 0.653835 0.753566 0.00862356
-3.79924 40.8972 415.432 0.0597028 0.644515 0.762257 0.00781646
-4.46351 39.609 416.499 0.0536038 0.636105 0.769738 0.00660627
-4.92252 38.2972 417.643 0.0497219 0.628274 0.776401 0.00704811
-5.42056 36.9578 418.737 0.0450215 0.617793 0.785051 0.00870081
-6.11012 35.6134 419.716 0.0370897 0.606132 0.794499 0.00949579
-6.44617 34.2735 420.87 0.0306538 0.593635 0.80415 0.00972473
-6.93784 32.8655 421.878 0.022209 0.580961 0.813628 0.00988968
-7.40998 31.4539 422.89 0.0138396 0.568318 0.822693 0.00960038
-7.88629 30.0192 423.867 0.00600624 0.555983 0.831172 0.00905449
-8.41425 28.5579 424.776 -0.00102664 0.544276 0.838906 0.00791965
-9.03215 27.0746 425.587 -0.00424409 0.533698 0.845665 0.00721455
-8.89955 25.6812 426.719 -0.00497402 0.523147 0.852228 0.0070436
-9.47697 24.191 427.547 -0.000494179 0.512849 0.858479 0.00738626
-9.71832 22.6849 428.503 -0.00252165 0.500521 0.865721 0.0082001
-9.9486 21.1371 429.392 -0.0073329 0.487981 0.872824 0.00911191
-10.4847 19.5984 430.157 -0.016927 0.474862 0.879897 0.00998916
-10.8356 18.0326 430.973 -0.0277313 0.461805 0.886548 0.00982048
-11.0301 16.4456 431.799 -0.037775 0.449325 0.892569 0.0105051
-11.5212 14.8748 432.528 -0.0528493 0.436286 0.898254 0.0104749
-11.736 13.2531 433.279 -0.0638596 0.42443 0.903206 0.00893861
-11.8967 11.6152 434.008 -0.0732173 0.413231 0.907678 0.0101229
-12.1568 9.97133 434.694 -0.0841773 0.396288 0.914259 0.0107166
-12.1533 8.35453 435.485 -0.0883166 0.380316 0.92063 0.0109023
-12.6562 6.7144 436.03 -0.10279 0.364238 0.925616 0.0104965
-12.7717 5.0841 436.784 -0.106674 0.349277 0.930928 0.00940475
-13.2404 3.38807 437.163 -0.117097 0.335365 0.934783 0.00839409
-13.2133 1.7007 437.79 -0.114097 0.321785 0.939913 0.00822138
-13.2233 0.0126119 438.414 -0.109697 0.308541 0.944864 0.00795048
-13.3622 -1.70716 438.927 -0.105705 0.296115 0.949285 0.00824826
-13.3972 -3.43846 439.419 -0.0974502 0.283135 0.954116 0.00957696
-13.4356 -5.16472 439.927 -0.0892506 0.267556 0.9594 0.0101437
-13.4762 -6.89859 440.409 -0.0823738 0.25149 0.964348 0.00947968
-13.7956 -8.65048 440.671 -0.0801873 0.236094 0.968416 0.0102558
-13.3293 -10.2679 441.309 -0.0709787 0.218729 0.973201 0.0103144
-13.6427 -12.0224 441.56 -0.0712592 0.202225 0.976743 0.00987142
-13.0683 -13.6544 442.057 -0.0654609 0.185625 0.980438 0.00998229
-13.4868 -15.399 442.203 -0.0693918 0.168551 0.983247 0.00988696
-13.2358 -17.1466 442.554 -0.0696577 0.151415 0.986013 0.00956479
-13.3232 -18.9365 442.722 -0.0740121 0.134977 0.988081 0.00794753
-13.2153 -20.7184 442.953 -0.0761628 0.123806 0.989379 0.00654643
-13.2412 -22.5138 443.079 -0.0773348 0.111821 0.990715 0.00695841
-12.7507 -24.1901 443.514 -0.0728941 0.0995224 0.992362 0.00754775
-12.712 -25.9841 443.655 -0.0705833 0.0860162 0.99379 0.00792733
-12.5935 -27.7741 443.803 -0.0666476 0.0718274 0.995188 0.00837643
-12.5169 -29.5713 443.868 -0.0622775 0.0571575 0.996421 0.00883493
-12.2821 -31.3527 443.976 -0.0567402 0.0417286 0.997517 0.00919517
-12.0536 -33.1373 444.031 -0.0514379 0.0259421 0.998339 0.0093011
-11.8403 -34.924 444.076 -0.0463438 0.0099294 0.998876 0.00968882
-11.3703 -36.6582 444.184 -0.0408166 -0.00716823 0.999141 0.0100832
-11.2431 -38.4523 444.113 -0.036289 -0.0247254 0.999035 0.010226
-10.8275 -40.2036 444.114 -0.0332622 -0.0430614 0.998519 0.0103961
-10.6802 -41.9929 443.984 -0.0314021 -0.061671 0.997602 0.0102626
-10.1643 -43.717 443.948 -0.0347366 -0.0796924 0.996214 0.0104501
-10.0736 -45.5011 443.727 -0.0367948 -0.098447 0.994462 0.0102517
-9.56601 -47.224 443.609 -0.0326452 -0.116101 0.992701 0.0100208
-9.069 -48.9448 443.43 -0.0289606 -0.133447 0.990633 0.00968461
-8.94953 -50.7097 443.098 -0.029256 -0.150278 0.988211 0.00923885
-8.40293 -52.413 442.897 -0.022138 -0.165394 0.985979 0.0091659
-8.19878 -54.1509 442.475 -0.017686 -0.180574 0.983402 0.00938386
-7.65576 -55.8445 442.198 -0.00831085 -0.195553 0.980658 0.0100451
-7.12251 -57.5251 441.836 0.00151238 -0.210644 0.977562 0.0102909
-6.5391 -59.1962 441.509 0.0119866 -0.225834 0.974092 0.0101345
-5.95888 -60.8575 441.13 0.0207621 -0.240783 0.970357 0.00922775
-5.58401 -62.5378 440.605 0.0261116 -0.254865 0.966624 0.00786886
-4.87567 -64.1505 440.234 0.0276979 -0.267151 0.963256 0.00673161
-4.49537 -65.8095 439.648 0.0240546 -0.278011 0.960277 0.00664965
