# .PCD v0.7 - Point Cloud Data file format
# 6 209 0
# 1 20 0
# 21 104 0
# 105 122 0
# 123 151 0
# 152 191 0
# 192 209 0
VERSION 0.7
FIELDS x y z normal_x normal_y normal_z curvature
SIZE 4 4 4 4 4 4 4
TYPE F F F F F F F
COUNT 1 1 1 1 1 1 1
WIDTH 209
HEIGHT 1
VIEWPOINT 0 0 0 1 0 0 0
POINTS 209
DATA ascii
65.0397 -52.5628 401.704 -0.291686 -0.244115 -0.924839 0.01
63.3904 -52.4839 402.421 -0.294453 -0.239973 -0.925046 0.00240923
61.8209 -53.03 403.113 -0.296259 -0.236915 -0.925258 0.0030841
60.11 -52.5883 403.456 -0.301435 -0.231982 -0.924836 0.00370885
58.4184 -52.6319 404.069 -0.30573 -0.227767 -0.924474 0.0013931
56.8491 -53.0559 404.842 -0.302004 -0.227141 -0.925851 0.00225524
55.1754 -53.4731 405.357 -0.298265 -0.226337 -0.927259 0.0022523
53.4579 -53.5033 405.895 -0.294675 -0.225301 -0.928658 0.00218104
51.7341 -53.3973 406.402 -0.291238 -0.22419 -0.93001 0.00209355
50.0225 -53.1447 406.899 -0.287988 -0.223055 -0.931294 0.00209233
48.3093 -53.2255 407.445 -0.284574 -0.221938 -0.93261 0.00215908
46.7678 -53.9133 408.07 -0.281112 -0.220939 -0.933896 0.00257568
45.0601 -53.4233 408.359 -0.276435 -0.220555 -0.935382 0.00359547
43.3188 -53.21 408.762 -0.268723 -0.221199 -0.937475 0.00436002
41.6937 -53.6752 409.38 -0.261627 -0.221755 -0.939349 0.00413775
39.993 -53.8516 409.943 -0.254407 -0.222627 -0.941124 0.00409214
38.2647 -53.9951 410.425 -0.247434 -0.223809 -0.942701 0.00385584
36.5875 -54.389 410.947 -0.241038 -0.224521 -0.944188 0.00378563
34.8957 -54.6532 411.502 -0.234264 -0.223429 -0.94615 0.003926
34.0083 -54.3192 411.472 -0.231 -0.224708 -0.94665 0.00357107
32.2692 -54.4597 411.914 -0.225 -0.223816 -0.948305 0.00266962
30.5413 -54.5605 412.409 -0.222229 -0.221912 -0.949405 0.00257184
29.0569 -55.3664 413.031 -0.219192 -0.217476 -0.951136 0.00235264
27.3028 -55.0899 413.325 -0.216756 -0.21661 -0.951891 0.00235679
25.7354 -55.7373 413.928 -0.213492 -0.212199 -0.953621 0.00254451
23.9549 -55.5667 414.13 -0.210906 -0.210538 -0.954564 0.0023476
22.221 -55.8538 414.519 -0.20761 -0.206786 -0.956105 0.00326655
20.5804 -56.3351 415.081 -0.203785 -0.201872 -0.957977 0.00366395
18.8766 -56.7121 415.523 -0.199719 -0.196927 -0.959861 0.00382299
17.1229 -56.8356 415.91 -0.194149 -0.192884 -0.961822 0.00413249
15.3584 -56.911 416.257 -0.187921 -0.188802 -0.963867 0.0049108
13.7143 -57.4055 416.798 -0.180761 -0.182563 -0.966435 0.00567389
12.0429 -57.9813 417.137 -0.173181 -0.175719 -0.969088 0.00530031
10.2644 -57.9178 417.407 -0.166714 -0.171012 -0.971062 0.00560918
8.60598 -58.5328 417.741 -0.158619 -0.163121 -0.973772 0.00666126
6.98328 -59.2145 418.117 -0.150167 -0.154543 -0.976507 0.00625723
5.21245 -59.2904 418.431 -0.143137 -0.147981 -0.978577 0.00639166
3.58453 -59.9015 418.896 -0.134354 -0.13891 -0.981149 0.00680561
1.84373 -60.2337 419.211 -0.125612 -0.131685 -0.983301 0.01
0.162361 -59.5952 419.284 -0.121215 -0.13175 -0.983844 0.00317816
-0.813867 -58.1034 419.036 -0.120106 -0.141002 -0.982697 0.00589166
-1.64744 -56.5114 418.932 -0.117843 -0.152487 -0.981255 0.00705419
-2.22424 -54.8321 418.637 -0.115359 -0.165622 -0.979419 0.00769504
-2.32849 -53.0527 418.387 -0.114585 -0.179419 -0.977077 0.00754527
-3.32097 -51.5585 418.237 -0.108809 -0.190725 -0.975595 0.00702629
-3.94318 -49.8851 418.008 -0.105073 -0.202417 -0.973646 0.00647881
-4.54703 -48.2189 417.693 -0.102063 -0.212714 -0.971769 0.00558267
-4.92222 -46.4904 417.359 -0.101993 -0.221843 -0.969734 0.00376807
-5.82693 -44.9565 417.097 -0.102849 -0.225739 -0.968744 0.000940403
-7.19928 -43.7976 416.98 -0.104374 -0.224051 -0.968972 0.00169609
-7.96205 -42.2033 416.639 -0.108735 -0.224918 -0.968292 0.00172221
-9.08663 -40.818 416.402 -0.110413 -0.222933 -0.968561 0.0016192
-9.79587 -39.1853 416.135 -0.114443 -0.22418 -0.967805 0.00271409
-10.6504 -37.6222 415.877 -0.117415 -0.229326 -0.966242 0.00312953
-11.7468 -36.2045 415.71 -0.117633 -0.234562 -0.964958 0.00467258
-12.2432 -34.5001 415.412 -0.120531 -0.244987 -0.962005 0.00511239
-13.4368 -33.1804 415.141 -0.118981 -0.251874 -0.960418 0.005393
-13.9474 -31.5092 414.709 -0.120755 -0.263295 -0.957128 0.00635239
-14.6576 -29.899 414.331 -0.120086 -0.273826 -0.954253 0.00618151
-15.6746 -28.4445 414.031 -0.11274 -0.283381 -0.952357 0.00656475
-16.68 -26.9655 413.827 -0.106208 -0.292538 -0.950337 0.00629299
-16.9568 -25.2607 413.32 -0.106062 -0.303671 -0.946855 0.00623462
-17.258 -23.5603 412.812 -0.105915 -0.313921 -0.943523 0.00533208
-18.2844 -22.1688 412.311 -0.100798 -0.320902 -0.941733 0.00384063
-19.0263 -20.6094 411.804 -0.0970683 -0.324166 -0.941007 0.00246897
-19.5966 -18.9738 411.314 -0.0942399 -0.326734 -0.940406 0.00216617
-20.1433 -17.2907 410.985 -0.0915185 -0.329478 -0.939717 0.00190303
-20.2615 -15.6218 410.321 -0.0911624 -0.332515 -0.938682 0.00201704
-20.9044 -14.0361 409.762 -0.08806 -0.335505 -0.937914 0.00284895
-22.0342 -12.6928 409.364 -0.082818 -0.338121 -0.937451 0.00236436
-22.0284 -10.9797 408.811 -0.0828366 -0.341367 -0.936273 0.00201236
-22.5855 -9.32437 408.376 -0.0803562 -0.344495 -0.935343 0.00203133
-22.6778 -7.64241 407.741 -0.0798982 -0.347655 -0.934212 0.0017809
-22.6321 -5.97204 407.072 -0.0799268 -0.350498 -0.933147 0.000849762
-22.3443 -4.31633 406.427 -0.0805757 -0.350423 -0.933119 0.00104525
-21.5373 -2.82346 405.827 -0.0836301 -0.350237 -0.93292 0.000981486
-21.6147 -1.14814 405.174 -0.0839495 -0.349872 -0.933028 0.000578262
-21.5096 0.522342 404.512 -0.0854717 -0.349291 -0.933108 0.00137766
-21.0147 2.12835 403.867 -0.0887802 -0.348893 -0.932948 0.00208468
-20.3668 3.67511 403.213 -0.0929303 -0.34872 -0.932608 0.00247409
-19.6218 5.19036 402.589 -0.0976422 -0.348791 -0.9321 0.0028509
-18.6793 6.60828 402.005 -0.103076 -0.349305 -0.931322 0.00308022
-17.7989 8.04455 401.371 -0.108555 -0.349882 -0.930483 0.00322509
-17.3958 9.73271 400.894 -0.113434 -0.353388 -0.928574 0.00400101
-16.5974 11.144 400.112 -0.118818 -0.358596 -0.9259 0.0043238
-15.4562 12.3525 399.421 -0.124014 -0.363386 -0.923348 0.00387595
-14.8419 13.9073 398.754 -0.127232 -0.368272 -0.920971 0.00338284
-14.2844 15.5637 398.323 -0.12941 -0.373213 -0.918676 0.00314441
-12.9072 16.6299 397.869 -0.133034 -0.37647 -0.916827 0.00275357
-11.7395 17.6527 396.958 -0.135894 -0.379651 -0.915094 0.00237921
-10.4804 18.4772 395.97 -0.138867 -0.381889 -0.913716 0.00221001
-9.71873 19.9828 395.344 -0.139497 -0.38571 -0.912013 0.00220927
-8.82629 21.3918 394.667 -0.140139 -0.38904 -0.910499 0.00295108
-7.3695 22.1956 393.98 -0.144622 -0.393648 -0.907814 0.00436299
-5.92095 23.1111 393.429 -0.15014 -0.39946 -0.904373 0.00524362
-4.65114 24.2314 392.819 -0.155622 -0.406851 -0.900141 0.00565102
-3.26172 25.1464 392.131 -0.162731 -0.413034 -0.896059 0.00598061
-2.15234 26.3426 391.371 -0.168695 -0.421199 -0.891142 0.00617069
-0.974468 27.4537 390.585 -0.174939 -0.428802 -0.886299 0.00587746
0.0512969 28.6794 389.757 -0.17611 -0.438395 -0.88136 0.00603337
1.03675 29.9345 388.924 -0.176981 -0.447996 -0.876343 0.0056662
2.20984 31.0022 388.073 -0.177486 -0.45636 -0.871914 0.00551132
3.20314 32.3032 387.324 -0.177235 -0.465483 -0.86713 0.00599241
4.49641 33.2776 386.538 -0.176964 -0.475256 -0.861867 0.00673954
5.89592 34.0808 385.741 -0.176921 -0.486707 -0.855462 0.00841032
7.02285 35.1618 384.845 -0.176428 -0.501423 -0.847023 0.01097
7.56855 36.6608 384.011 -0.175423 -0.520075 -0.835912 0.0106715
8.82008 37.5128 383.038 -0.174055 -0.53306 -0.827981 0.0105524
9.46374 38.8851 382.067 -0.171963 -0.551342 -0.816365 0.0120124
10.1781 40.1389 380.991 -0.169162 -0.569101 -0.804679 0.0121075
10.8293 41.3803 379.862 -0.165577 -0.587147 -0.792365 0.0127722
11.2887 42.6859 378.711 -0.161213 -0.606185 -0.778813 0.0137765
11.4871 44.1269 377.651 -0.156211 -0.626327 -0.763749 0.0195244
11.5912 45.4948 376.486 -0.151285 -0.660493 -0.735433 0.0242042
11.9952 46.7187 375.229 -0.146385 -0.691511 -0.707378 0.0233103
11.7023 48.0937 374.105 -0.14311 -0.719879 -0.679186 0.0213406
11.7395 49.3058 372.775 -0.140418 -0.74444 -0.652757 0.0190108
12.0068 50.493 371.448 -0.138766 -0.765385 -0.628434 0.016719
12.6978 51.152 369.923 -0.137326 -0.782294 -0.607584 0.0155695
12.7025 52.3785 368.605 -0.13907 -0.79859 -0.585588 0.0147525
13.2003 53.3252 367.157 -0.140713 -0.812894 -0.565157 0.0124609
14.6313 53.6502 366.115 -0.137782 -0.82302 -0.551048 0.0107331
15.8119 54.271 364.906 -0.136545 -0.834545 -0.533751 0.01
17.4714 54.4173 364.225 -0.131933 -0.841713 -0.523558 0.00617978
19.1353 54.6822 363.591 -0.135952 -0.846378 -0.514938 0.00298369
20.8775 54.2306 363.564 -0.139916 -0.844208 -0.517432 0.00537457
22.5555 53.7483 364.002 -0.145237 -0.836439 -0.528465 0.0103333
24.0326 52.9669 364.671 -0.152865 -0.824032 -0.545531 0.0128129
25.5773 52.3152 365.326 -0.161756 -0.810577 -0.56285 0.0143839
26.9671 51.481 366.109 -0.172224 -0.794094 -0.582884 0.0142049
28.6123 50.838 366.455 -0.18161 -0.780447 -0.598264 0.0136018
30.1725 50.0833 366.941 -0.193257 -0.764196 -0.615351 0.0144682
31.7517 49.3101 367.326 -0.206438 -0.748111 -0.630645 0.0139711
33.3384 48.539 367.684 -0.219084 -0.732459 -0.644598 0.0115227
35.0673 48.0509 367.571 -0.229567 -0.722249 -0.652423 0.00977427
36.769 47.4667 367.625 -0.240589 -0.71036 -0.661442 0.0105903
38.4234 46.773 367.772 -0.251765 -0.697452 -0.670951 0.00957926
40.1413 46.2622 367.605 -0.261626 -0.688067 -0.676843 0.00721858
41.8774 45.9736 367.227 -0.270204 -0.681658 -0.67995 0.00596077
43.5351 45.2829 367.104 -0.272545 -0.67319 -0.687411 0.00479998
45.2407 44.9481 366.637 -0.270831 -0.66935 -0.691824 0.01
46.0309 43.6872 367.65 -0.275895 -0.65323 -0.705105 0.0123948
45.8343 42.4424 368.935 -0.281135 -0.636963 -0.717803 0.0127677
46.379 41.0552 369.944 -0.284611 -0.61869 -0.732269 0.0130128
47.2311 39.7028 370.772 -0.286924 -0.600556 -0.746329 0.0137823
47.6793 38.251 371.737 -0.288398 -0.579684 -0.762097 0.0135715
48.8792 37.0572 372.349 -0.28918 -0.562532 -0.774553 0.0137713
49.5479 35.5209 373.007 -0.288839 -0.540026 -0.790534 0.0156861
50.369 34.052 373.646 -0.287484 -0.516243 -0.80675 0.0121394
51.452 32.7366 374.226 -0.288568 -0.50357 -0.814337 0.00736545
52.7325 31.4898 374.44 -0.290142 -0.493573 -0.81988 0.00624801
54.294 30.5965 374.377 -0.298009 -0.485008 -0.822167 0.0067278
55.8754 29.7369 374.39 -0.306563 -0.47629 -0.824116 0.00769461
56.977 28.351 374.715 -0.313371 -0.46373 -0.828706 0.00802855
58.1659 27.028 374.991 -0.320292 -0.452259 -0.832391 0.00710943
59.6215 25.969 374.991 -0.328313 -0.443855 -0.833788 0.0061982
61.2034 25.1103 374.983 -0.336746 -0.437332 -0.833872 0.00614173
62.0629 23.5659 375.324 -0.341263 -0.427486 -0.837135 0.00564957
63.2953 22.2636 375.482 -0.347295 -0.420685 -0.838099 0.00380814
64.6794 21.1128 375.475 -0.350394 -0.417398 -0.838453 0.00252811
65.6113 19.6123 375.821 -0.350552 -0.412767 -0.840676 0.00214903
66.8676 18.3291 375.944 -0.352296 -0.410443 -0.841085 0.0015453
67.9816 16.9318 376.16 -0.353543 -0.408191 -0.841657 0.00139853
68.863 15.4126 376.554 -0.353742 -0.405912 -0.842676 0.00162996
70.4802 14.6589 376.316 -0.358672 -0.406888 -0.840117 0.00271119
71.8464 13.4941 376.188 -0.362403 -0.406918 -0.8385 0.00236581
73.2427 12.3599 376.125 -0.366455 -0.40706 -0.836668 0.00097552
74.601 11.1817 376.041 -0.364734 -0.408734 -0.836603 0.00214685
75.9614 10.0031 376.024 -0.359574 -0.410281 -0.838079 0.00285785
77.5373 9.21 375.667 -0.355261 -0.410751 -0.839686 0.01
78.2904 7.63545 376.107 -0.352805 -0.405094 -0.843461 0.00435033
78.1107 6.05841 376.956 -0.352299 -0.397995 -0.847045 0.00434981
77.9013 4.46068 377.758 -0.351694 -0.391143 -0.850481 0.00419655
77.8161 2.82099 378.495 -0.350988 -0.384548 -0.853774 0.00404267
77.6933 1.23468 379.337 -0.350257 -0.378178 -0.856914 0.00386833
77.7987 -0.359759 380.166 -0.349657 -0.372101 -0.859814 0.00368043
77.8691 -2.04304 380.799 -0.349164 -0.366251 -0.862522 0.00342676
78.2965 -3.72416 381.28 -0.349278 -0.360876 -0.864739 0.00330249
78.3794 -5.41006 381.906 -0.348905 -0.355377 -0.867163 0.00329572
78.9689 -7.05763 382.327 -0.349564 -0.349989 -0.869087 0.00322905
79.5023 -8.72293 382.754 -0.350343 -0.34449 -0.870969 0.00331895
79.672 -10.4232 383.32 -0.350581 -0.33885 -0.873083 0.00327851
80.083 -12.0699 383.92 -0.351229 -0.333429 -0.874908 0.00317371
80.2059 -13.7513 384.551 -0.351352 -0.328133 -0.876858 0.00307749
80.1369 -15.4465 385.152 -0.351065 -0.323091 -0.878843 0.00294246
80.067 -17.1628 385.69 -0.350666 -0.318306 -0.880747 0.00278578
80.1224 -18.8569 386.296 -0.350235 -0.31381 -0.88253 0.00270427
79.7725 -20.476 387 -0.348828 -0.309617 -0.884566 0.00255353
79.7058 -22.1545 387.647 -0.347739 -0.305844 -0.886305 0.00237349
79.6243 -23.829 388.302 -0.346412 -0.302208 -0.88807 0.002644
78.5633 -25.0404 389.106 -0.343729 -0.298749 -0.890281 0.00272593
78.3358 -26.7256 389.696 -0.341975 -0.294977 -0.892211 0.00262992
77.9642 -28.3448 390.389 -0.339851 -0.291115 -0.89429 0.00269309
77.7588 -30.0035 391.058 -0.337729 -0.287305 -0.896323 0.00278257
77.3309 -31.5922 391.788 -0.33526 -0.283308 -0.898519 0.00301659
76.3533 -32.9143 392.52 -0.332552 -0.2791 -0.90084 0.00306466
76.1072 -34.5936 393.119 -0.330043 -0.275062 -0.903002 0.00273965
75.5986 -36.2051 393.74 -0.327529 -0.271701 -0.904933 0.00231409
74.9231 -37.6723 394.534 -0.325023 -0.26945 -0.906508 0.00224642
73.6324 -38.7455 395.184 -0.322563 -0.266513 -0.908253 0.00243441
73.1065 -40.3478 395.813 -0.319435 -0.264163 -0.910043 0.00256051
72.235 -41.7612 396.508 -0.316148 -0.261187 -0.912048 0.00278209
71.4349 -43.1972 397.241 -0.312584 -0.258123 -0.914146 0.00295695
70.0473 -44.1165 397.926 -0.310015 -0.253902 -0.916201 0.00309742
69.5914 -45.6735 398.706 -0.305872 -0.251108 -0.918361 0.00318024
68.4762 -46.9461 399.32 -0.302492 -0.246872 -0.920626 0.00297834
67.5531 -48.3483 399.969 -0.29899 -0.244051 -0.922521 0.00202717
66.3483 -49.5317 400.592 -0.29716 -0.242822 -0.923436 0.00169759
66.1105 -51.2268 401.149 -0.293432 -0.244653 -0.924144 0.001664
