# .PCD v0.7 - Point Cloud Data file format
# 4 60 0
# 1 13 0
# 14 33 0
# 34 52 0
# 53 60 0
VERSION 0.7
FIELDS x y z normal_x normal_y normal_z curvature
SIZE 4 4 4 4 4 4 4
TYPE F F F F F F F
COUNT 1 1 1 1 1 1 1
WIDTH 60
HEIGHT 1
VIEWPOINT 0 0 0 1 0 0 0
POINTS 60
DATA ascii
-34.9908 -2.39141 310.798 -0.341008 -0.524764 -0.779959 0.01
-35.7915 -0.888243 310.215 -0.381075 -0.486971 -0.785901 0.0246408
-35.3903 0.586448 309.264 -0.374902 -0.454284 -0.80813 0.0184994
-34.9854 2.11177 308.399 -0.373757 -0.431059 -0.821276 0.0058393
-34.4275 3.46662 307.353 -0.363173 -0.441877 -0.820274 0.00812096
-33.8731 4.80458 306.284 -0.358476 -0.455193 -0.815042 0.00838289
-33.3952 6.22952 305.294 -0.364794 -0.467836 -0.805018 0.0110776
-32.7256 7.46037 304.164 -0.342441 -0.489181 -0.802145 0.00915821
-32.3836 8.96463 303.236 -0.347409 -0.494288 -0.79686 0.00638538
-31.8772 10.1745 302.15 -0.341903 -0.508137 -0.790506 0.0108821
-31.3015 11.4337 301 -0.346508 -0.526433 -0.776402 0.0128091
-30.6326 12.647 299.851 -0.344404 -0.54571 -0.763928 0.00885785
-30.0357 13.892 298.696 -0.341053 -0.553229 -0.760013 0.00625924
-29.6993 15.3244 297.659 -0.364825 -0.537051 -0.760578 0.0104167
-29.0754 16.4884 296.436 -0.37465 -0.537955 -0.755143 0.0121712
-28.1338 17.3924 295.196 -0.367214 -0.571397 -0.733934 0.0115076
-27.7446 18.8125 294.161 -0.396455 -0.558921 -0.728307 0.00717269
-27.0994 19.9281 292.904 -0.38831 -0.556872 -0.734241 0.00139859
-26.4743 21.1476 291.738 -0.401053 -0.558024 -0.726474 0.0121257
-25.689 22.0231 290.375 -0.404584 -0.583494 -0.704164 0.0165727
-25.1178 23.2015 289.14 -0.422003 -0.594384 -0.684559 0.0312515
-23.7399 23.3598 287.992 -0.353245 -0.663392 -0.659643 0.01
-22.3606 22.3133 288.485 -0.243485 -0.707618 -0.663319 0.0377219
-21.1141 21.26 289.244 -0.227446 -0.713175 -0.663061 0.00240503
-19.7886 20.1672 289.782 -0.251218 -0.703914 -0.664375 0.00931191
-18.589 19.0605 290.541 -0.254448 -0.720724 -0.644836 0.015572
-17.3018 18.0639 291.309 -0.243902 -0.742235 -0.624179 0.0107416
-16.7296 16.8424 292.501 -0.218198 -0.724444 -0.653889 0.0219166
-15.507 15.7737 293.277 -0.2254 -0.69537 -0.682389 0.0263742
-14.3389 14.5878 293.962 -0.255508 -0.657049 -0.709226 0.0276829
-13.2852 13.3242 294.692 -0.286603 -0.628294 -0.72326 0.0255104
-12.2611 12.0134 295.38 -0.318753 -0.596406 -0.73668 0.0238566
-11.0303 10.7615 295.777 -0.348048 -0.57216 -0.742627 0.0148656
-10.0059 9.37 296.282 -0.35753 -0.561097 -0.746554 0.0055
-8.91934 8.05788 296.863 -0.350868 -0.55591 -0.753562 0.00685864
-7.72563 6.7792 297.287 -0.347045 -0.545721 -0.762725 0.0107949
-7.00662 5.25071 297.909 -0.349303 -0.524942 -0.776159 0.0128014
-5.99667 3.8445 298.402 -0.3489 -0.507415 -0.787908 0.00698032
-5.2112 2.35588 299.04 -0.342042 -0.506506 -0.791492 0.00414061
-4.29285 0.907932 299.587 -0.338289 -0.501321 -0.796391 0.005901
-3.49002 -0.571533 300.225 -0.350199 -0.488495 -0.799208 0.0428944
-2.94652 -2.14869 300.901 -0.454943 -0.400859 -0.795197 0.01
-4.29539 -2.78584 301.909 -0.385317 -0.479506 -0.788419 0.0408085
-5.93306 -2.78575 302.656 -0.355075 -0.503933 -0.787384 0.0144145
-7.49797 -3.00778 303.517 -0.346651 -0.513718 -0.78481 0.00685165
-9.16542 -2.95901 304.193 -0.340191 -0.522628 -0.781748 0.00749271
-10.7416 -3.10302 305.05 -0.332058 -0.534888 -0.776937 0.00852207
-12.4001 -3.20587 305.742 -0.313713 -0.538026 -0.782376 0.0097814
-14.1287 -3.0793 306.228 -0.301163 -0.529902 -0.792783 0.0103489
-15.8478 -2.94496 306.744 -0.290671 -0.518481 -0.804169 0.0102095
-17.4503 -2.81909 307.554 -0.277413 -0.511216 -0.81345 0.0109619
-19.2012 -2.41896 307.674 -0.258498 -0.507137 -0.822187 0.0208433
-20.9529 -2.37703 308.086 -0.206569 -0.508297 -0.83604 0.0310751
-22.7131 -2.26737 308.446 -0.14938 -0.511242 -0.846355 0.0226873
-24.4943 -2.3091 308.702 -0.126145 -0.514725 -0.848025 0.00901404
-26.2829 -2.28294 308.903 -0.117263 -0.514765 -0.849274 0.00424865
-28.0436 -2.36088 309.269 -0.111619 -0.511871 -0.85178 0.00327778
-29.8131 -2.55793 309.533 -0.108454 -0.50862 -0.854133 0.00830524
-31.5275 -2.71392 310.059 -0.140655 -0.514811 -0.845687 0.0461773
-33.3228 -2.65781 310.176 -0.26412 -0.531344 -0.804931 0.059364
