# .PCD v0.7 - Point Cloud Data file format
# 6 93 0
# 1 4 0
# 5 15 0
# 16 38 0
# 39 58 0
# 59 73 0
# 74 93 0
VERSION 0.7
FIELDS x y z normal_x normal_y normal_z curvature
SIZE 4 4 4 4 4 4 4
TYPE F F F F F F F
COUNT 1 1 1 1 1 1 1
WIDTH 93
HEIGHT 1
VIEWPOINT 0 0 0 1 0 0 0
POINTS 93
DATA ascii
55.8845 -13.4979 406.838 0.570136 0.221766 0.791053 0.01
56.0163 -11.8024 406.249 0.576854 0.250967 0.777339 0.0180963
56.1987 -10.2671 405.327 0.580407 0.280042 0.764659 0.017871
56.0933 -8.55657 404.776 0.57999 0.309917 0.753368 0.0180275
55.9936 -6.87848 404.133 0.576269 0.340961 0.742738 0.0187988
55.7866 -5.18628 403.555 0.569229 0.373351 0.732521 0.0199028
55.3817 -3.49763 403.082 0.559391 0.407268 0.721951 0.0209745
54.9974 -1.86283 402.434 0.547056 0.442084 0.710839 0.0208094
54.4613 -0.252079 401.835 0.533221 0.474077 0.700661 0.0132232
53.758 1.28916 401.227 0.521534 0.481658 0.704279 0.00744952
53.0152 2.81828 400.635 0.51142 0.488294 0.70712 0.00643151
52.2101 4.34807 400.134 0.502874 0.494541 0.708905 0.00539587
51.1378 5.79377 400.129 0.498177 0.502165 0.706859 0.00498168
50.0884 7.21908 399.801 0.492544 0.508828 0.706041 0.0049664
48.8813 8.54999 399.908 0.489698 0.516981 0.702088 0.00539154
47.6558 9.81486 399.536 0.484574 0.525107 0.699607 0.00639292
46.3302 11.0325 399.537 0.479037 0.535998 0.695147 0.0129602
44.9075 12.1352 399.547 0.448985 0.55521 0.70011 0.0197139
43.4498 13.191 399.568 0.419474 0.573644 0.703544 0.0190491
41.9524 14.1887 399.521 0.390789 0.591005 0.705689 0.0183192
40.3788 15.0472 399.685 0.363081 0.607353 0.706608 0.0172029
40.0995 15.1089 400.127 0.358846 0.609821 0.706645 0.0163618
38.4454 15.8157 400.194 0.332346 0.624185 0.707064 0.0161989
36.7756 16.406 400.516 0.307226 0.636563 0.707389 0.0151816
35.0705 16.9307 400.755 0.282881 0.647358 0.707747 0.01
33.3825 17.2604 401.286 0.260147 0.655365 0.709098 0.0140421
31.617 17.5316 401.508 0.234967 0.662388 0.71136 0.014471
29.9149 17.6396 402.084 0.209888 0.665666 0.716126 0.0147004
28.1568 17.7112 402.463 0.183441 0.667057 0.72207 0.0153282
26.3588 17.6885 402.545 0.15643 0.666507 0.728902 0.0166335
24.7729 17.3867 403.341 0.127825 0.661479 0.73899 0.0177735
23.2412 16.9802 404.195 0.0972097 0.654476 0.749808 0.0194817
21.5087 16.6114 404.515 0.0637579 0.646282 0.76043 0.0208156
19.8481 16.148 405.032 0.028046 0.635856 0.771298 0.0164883
18.3183 15.4601 405.685 0.0128069 0.624377 0.781018 0.0110448
16.7023 14.7983 406.122 0.00147525 0.613092 0.79001 0.01
15.2542 13.9313 406.747 -0.0117482 0.602589 0.797965 0.0104243
13.9297 12.9667 407.493 -0.0261627 0.592703 0.804996 0.0105542
12.7665 11.9257 408.389 -0.0418215 0.583533 0.811012 0.011095
11.3693 10.8257 408.668 -0.0573189 0.572571 0.817849 0.0116904
10.3355 9.55237 409.409 -0.0758127 0.563007 0.822967 0.0124169
9.31047 8.23972 410.092 -0.0960459 0.552643 0.827865 0.0130002
8.6059 6.88087 411.039 -0.117497 0.543994 0.830822 0.0157297
7.76143 5.4889 411.807 -0.142013 0.522413 0.840783 0.021056
7.03392 4.01371 412.538 -0.166161 0.491245 0.855026 0.0223827
6.45229 2.49296 413.306 -0.18723 0.461298 0.867266 0.0208897
5.81715 0.8941 413.835 -0.206247 0.432117 0.877916 0.0190344
5.47249 -0.66861 414.659 -0.219018 0.404733 0.887819 0.0166041
5.43262 -2.12633 415.714 -0.224451 0.379142 0.897705 0.0161528
4.76662 -3.79583 415.618 -0.231111 0.355204 0.905769 0.0158062
4.83342 -5.45243 416.319 -0.233044 0.328527 0.915293 0.0163633
5.17563 -7.03478 417.106 -0.225535 0.300634 0.926689 0.0178513
5.28703 -8.74901 417.644 -0.217226 0.27081 0.937803 0.0162014
5.63476 -10.4143 418.232 -0.204782 0.249953 0.946355 0.0138021
5.97618 -12.1302 418.655 -0.192037 0.231145 0.953779 0.0139115
6.5871 -13.7362 419.191 -0.178008 0.210572 0.961235 0.0145006
7.09102 -15.4386 419.487 -0.164118 0.189608 0.968047 0.0149907
7.80736 -17.0549 419.826 -0.14955 0.166841 0.974576 0.0158207
8.69605 -18.5872 420.146 -0.13485 0.142476 0.980569 0.01
9.83609 -19.9227 420.542 -0.120844 0.116738 0.985784 0.0169484
10.9632 -21.2969 420.826 -0.106567 0.0893339 0.990284 0.0174978
12.277 -22.4943 421.11 -0.0933375 0.0608162 0.993775 0.0184037
13.4813 -23.8306 421.17 -0.0787588 0.0297461 0.99645 0.0191626
14.9154 -24.9072 421.327 -0.0660924 -0.00205475 0.997811 0.0198745
16.2991 -26.0578 421.365 -0.0523633 -0.0366743 0.997954 0.0198449
17.8926 -26.8509 421.633 -0.0271617 -0.0612142 0.997755 0.0198097
19.3873 -27.8522 421.577 0.00782521 -0.0740981 0.99722 0.0197453
21.0286 -28.5912 421.569 0.0388928 -0.0866752 0.995477 0.0176848
22.5478 -29.4751 421.18 0.0680163 -0.0930452 0.993336 0.0162359
24.3042 -29.8683 421.164 0.0937949 -0.102805 0.99027 0.0148604
25.8709 -30.6484 420.743 0.119241 -0.104241 0.987378 0.0141944
27.6669 -30.7353 420.659 0.142352 -0.111611 0.983503 0.0135457
29.4519 -30.8831 420.481 0.165968 -0.115538 0.979339 0.0139612
31.1578 -31.211 420.009 0.191505 -0.114683 0.974768 0.0152817
32.9398 -31.0212 419.84 0.219058 -0.118056 0.968544 0.0163537
34.6482 -31.1634 419.292 0.248326 -0.115023 0.961823 0.0173291
36.3579 -31.1516 418.729 0.279223 -0.111294 0.953755 0.0186444
38.0574 -30.6455 418.419 0.311963 -0.111013 0.943586 0.0200184
39.6239 -30.6879 417.534 0.345553 -0.101355 0.93291 0.01
41.2177 -30.0567 416.985 0.38318 -0.0970256 0.918564 0.024953
42.7741 -29.5344 416.247 0.425774 -0.076393 0.901599 0.028268
44.2376 -28.5893 415.794 0.464166 -0.0478377 0.884456 0.0217424
45.6964 -27.9577 414.95 0.472883 -0.0184178 0.880933 0.0171994
46.9432 -26.782 414.399 0.485565 0.0082294 0.874162 0.0158088
48.2338 -25.7644 413.665 0.49397 0.0328998 0.868856 0.0142501
49.4156 -24.5932 412.978 0.502155 0.055393 0.863002 0.0131954
50.5055 -23.4021 412.182 0.509241 0.076315 0.857234 0.0123267
51.5745 -22.2014 411.373 0.515618 0.0960552 0.851417 0.0118813
52.4422 -20.7345 410.794 0.524008 0.113923 0.84406 0.011575
53.267 -19.2561 410.182 0.532332 0.13111 0.836321 0.0114403
54.0989 -17.8675 409.395 0.54036 0.148198 0.82828 0.0115035
54.8666 -16.5119 408.493 0.54912 0.164897 0.819314 0.0146055
55.486 -15.0863 407.585 0.560122 0.19146 0.805982 0.0186535
