# .PCD v0.7 - Point Cloud Data file format
VERSION 0.7
FIELDS x y z normal_x normal_y normal_z
SIZE 4 4 4 4 4 4
TYPE F F F F F F
COUNT 1 1 1 1 1 1
WIDTH 1615
HEIGHT 1
VIEWPOINT 0 0 0 1 0 0 0
POINTS 1615
DATA ascii
0.196633 -0.032095 -1.340694 -0.867880 0.494952 -0.042503
0.199576 -0.033523 -1.340983 -0.871237 0.490324 -0.022963
0.199636 -0.033966 -1.340208 -0.877500 0.479486 -0.009349
0.199640 -0.033922 -1.340148 -0.878112 0.478364 -0.009327
0.197777 -0.033892 -1.341249 -0.871288 0.490353 -0.020263
0.198133 -0.034017 -1.341200 -0.871937 0.489201 -0.020215
0.197067 -0.034810 -1.341372 -0.872855 0.487890 -0.009357
0.197332 -0.033456 -1.341300 -0.869142 0.493738 -0.028563
0.196691 -0.034907 -1.341252 -0.874641 0.484725 -0.006677
0.196700 -0.033252 -1.341294 -0.868403 0.494867 -0.031355
0.197448 -0.032779 -1.341056 -0.867652 0.495997 -0.034160
0.198431 -0.035220 -1.341239 -0.875906 0.482479 -0.001329
0.197221 -0.034927 -1.341390 -0.872855 0.487890 -0.009357
0.196715 -0.034925 -1.341263 -0.874641 0.484725 -0.006677
0.196773 -0.036174 -1.341225 -0.878597 0.477411 0.012036
0.196810 -0.035621 -1.341228 -0.877023 0.480433 0.003993
0.197232 -0.035862 -1.341297 -0.877010 0.480426 0.006654
0.198103 -0.036232 -1.340622 -0.882434 0.470007 0.020086
0.198102 -0.036431 -1.340699 -0.881839 0.471120 0.020133
0.198894 -0.035510 -1.339229 -0.887950 0.459377 0.022768
0.198423 -0.035980 -1.340024 -0.885182 0.464687 0.022766
0.198219 -0.036343 -1.339907 -0.886686 0.461507 0.028256
0.196383 -0.032449 -1.340825 -0.868743 0.493884 -0.036939
0.195972 -0.032090 -1.340126 -0.871240 0.489476 -0.036813
0.194234 -0.037593 -1.340654 -0.885729 0.462532 0.039336
0.196088 -0.034706 -1.340845 -0.876393 0.481550 -0.006670
0.196280 -0.032906 -1.340984 -0.869496 0.492760 -0.034125
0.196261 -0.032759 -1.340917 -0.869496 0.492760 -0.034125
0.195293 -0.033308 -1.339803 -0.877954 0.478518 -0.014744
0.194995 -0.034519 -1.340117 -0.879960 0.475046 -0.001323
0.195197 -0.034124 -1.340124 -0.878738 0.477257 -0.006647
0.194633 -0.034732 -1.339924 -0.882162 0.470929 0.003980
0.194179 -0.033118 -1.338979 -0.882646 0.469946 -0.009319
0.193389 -0.033665 -1.338996 -0.884429 0.466672 -0.001322
0.193310 -0.034039 -1.339077 -0.884423 0.466669 0.003966
0.195513 -0.035583 -1.340657 -0.879834 0.475190 0.009317
0.195188 -0.035747 -1.340565 -0.880921 0.473112 0.011994
0.194310 -0.036518 -1.340467 -0.883957 0.466869 0.025563
0.194028 -0.036371 -1.340298 -0.884543 0.465761 0.025503
0.193532 -0.036059 -1.339888 -0.886225 0.462553 0.025474
0.192863 -0.036423 -1.339686 -0.887715 0.459349 0.030982
0.194700 -0.034840 -1.340023 -0.882162 0.470929 0.003980
0.192816 -0.034733 -1.339042 -0.887035 0.461471 0.014629
0.192622 -0.035717 -1.339354 -0.887892 0.459347 0.025445
0.192179 -0.033930 -1.338770 -0.886083 0.463510 0.003962
0.192102 -0.033981 -1.338748 -0.886589 0.462511 0.006626
0.191482 -0.034346 -1.338463 -0.889764 0.456187 0.014630
0.191216 -0.034939 -1.338337 -0.891180 0.452939 0.025386
0.191923 -0.037624 -1.339839 -0.890404 0.452678 0.047579
0.191782 -0.037446 -1.339660 -0.890965 0.451585 0.047464
0.192163 -0.036639 -1.339482 -0.889746 0.454999 0.036454
0.190854 -0.036656 -1.338744 -0.894346 0.445143 0.044650
0.191244 -0.037036 -1.339213 -0.892719 0.448391 0.044704
0.190987 -0.035551 -1.338344 -0.893653 0.447499 0.033596
0.190560 -0.035865 -1.338041 -0.895525 0.443049 0.041746
0.190512 -0.036730 -1.338372 -0.896264 0.440674 0.050169
0.190551 -0.036251 -1.338172 -0.895957 0.441897 0.044595
0.190144 -0.036727 -1.337993 -0.898142 0.436163 0.055709
0.189788 -0.037149 -1.337783 -0.899825 0.431535 0.063981
0.199420 -0.026202 -1.337830 -0.863703 0.494963 -0.095022
0.197432 -0.027162 -1.338048 -0.866707 0.491839 -0.083148
0.203695 -0.025676 -1.336783 -0.869655 0.485027 -0.091915
0.202703 -0.026860 -1.338174 -0.864871 0.494010 -0.089177
0.201002 -0.026480 -1.337902 -0.864649 0.493883 -0.091984
0.202040 -0.025864 -1.337690 -0.863958 0.493894 -0.098209
0.201320 -0.026010 -1.337458 -0.865628 0.491608 -0.094922
0.203421 -0.025739 -1.337240 -0.866832 0.489455 -0.095054
0.203393 -0.025603 -1.336697 -0.869655 0.485027 -0.091915
0.202458 -0.025482 -1.336751 -0.868733 0.486094 -0.094951
0.201994 -0.025510 -1.336084 -0.873098 0.479431 -0.088575
0.199494 -0.025950 -1.337539 -0.864915 0.492817 -0.095155
0.199230 -0.025988 -1.337717 -0.864677 0.492682 -0.097968
0.199751 -0.025816 -1.337255 -0.866832 0.489455 -0.095054
0.200535 -0.025671 -1.336515 -0.870564 0.483960 -0.088891
0.200023 -0.025699 -1.336782 -0.869655 0.485027 -0.091915
0.199960 -0.025562 -1.336298 -0.872427 0.480610 -0.088793
0.198353 -0.025908 -1.337614 -0.864677 0.492682 -0.097968
0.198276 -0.025788 -1.337308 -0.866832 0.489455 -0.095054
0.197397 -0.026350 -1.337432 -0.867486 0.489460 -0.088864
0.197865 -0.026049 -1.336280 -0.874184 0.478486 -0.082788
0.197588 -0.026070 -1.335795 -0.877695 0.473034 -0.076746
0.201572 -0.025726 -1.335493 -0.877504 0.472931 -0.079519
0.200724 -0.025692 -1.335456 -0.878660 0.470761 -0.079624
0.196654 -0.026526 -1.336538 -0.874063 0.479686 -0.076918
0.196933 -0.025986 -1.336222 -0.874843 0.477314 -0.082585
0.196965 -0.025944 -1.335976 -0.875696 0.476256 -0.079609
0.201153 -0.029689 -1.339376 -0.867825 0.492925 -0.062483
0.201246 -0.031617 -1.339312 -0.875568 0.481902 -0.033937
0.202017 -0.028499 -1.339009 -0.865581 0.495219 -0.074353
0.201332 -0.029046 -1.339143 -0.867323 0.493019 -0.068436
0.201320 -0.027206 -1.338576 -0.863661 0.496145 -0.089052
0.201838 -0.027324 -1.338661 -0.863661 0.496145 -0.089052
0.201670 -0.027509 -1.338735 -0.863875 0.496268 -0.086246
0.201881 -0.027154 -1.338562 -0.862940 0.497359 -0.089270
0.203317 -0.028566 -1.339012 -0.866282 0.494019 -0.074173
0.203269 -0.027550 -1.338230 -0.867605 0.490752 -0.080151
0.201936 -0.030513 -1.339063 -0.873667 0.484151 -0.048004
0.202872 -0.030219 -1.336946 -0.885002 0.464727 -0.028288
0.197610 -0.029367 -1.339277 -0.866983 0.494027 -0.065406
0.200052 -0.031393 -1.339926 -0.870897 0.489623 -0.042516
0.199552 -0.031980 -1.340347 -0.870489 0.490590 -0.039630
0.199407 -0.031674 -1.340262 -0.869057 0.492878 -0.042560
0.200820 -0.030094 -1.339476 -0.868795 0.491902 -0.056811
0.199575 -0.029779 -1.339352 -0.867973 0.493008 -0.059717
0.200579 -0.030855 -1.339675 -0.870015 0.490672 -0.048105
0.197787 -0.030768 -1.340193 -0.866555 0.496162 -0.053901
0.197707 -0.030271 -1.339819 -0.866923 0.495187 -0.056870
0.197234 -0.031187 -1.340371 -0.867367 0.495047 -0.051022
0.197402 -0.030407 -1.339886 -0.866923 0.495187 -0.056870
0.197692 -0.031217 -1.340467 -0.866681 0.496234 -0.051144
0.198348 -0.031101 -1.340273 -0.867367 0.495047 -0.051022
0.198980 -0.029909 -1.339521 -0.867973 0.493008 -0.059717
0.197821 -0.029885 -1.339546 -0.867973 0.493008 -0.059717
0.198886 -0.030393 -1.339806 -0.867610 0.493998 -0.056734
0.197232 -0.029946 -1.339506 -0.867973 0.493008 -0.059717
0.200928 -0.027394 -1.338529 -0.864589 0.495059 -0.086036
0.199612 -0.027177 -1.338236 -0.865796 0.492925 -0.086156
0.197228 -0.028876 -1.339002 -0.867323 0.493019 -0.068436
0.197251 -0.028616 -1.338892 -0.866458 0.494119 -0.071388
0.196940 -0.027592 -1.337797 -0.871225 0.485257 -0.074117
0.201253 -0.029369 -1.339255 -0.866983 0.494027 -0.065406
0.201345 -0.031656 -1.338961 -0.878039 0.477577 -0.031117
0.201534 -0.031508 -1.338594 -0.879856 0.474392 -0.028382
0.201123 -0.031797 -1.339785 -0.873052 0.486239 -0.036774
0.201302 -0.031846 -1.338716 -0.879403 0.475390 -0.025588
0.200865 -0.032398 -1.339102 -0.880120 0.474324 -0.020155
0.201104 -0.032220 -1.338761 -0.880723 0.473204 -0.020108
0.200459 -0.032970 -1.339199 -0.880290 0.474208 -0.014694
0.200573 -0.032992 -1.338836 -0.883232 0.468844 -0.009297
0.199661 -0.034197 -1.339309 -0.884423 0.466669 0.003966
0.200504 -0.033542 -1.337767 -0.890920 0.454065 0.009267
0.199791 -0.034246 -1.338699 -0.887656 0.460413 0.009288
0.198957 -0.035039 -1.340025 -0.881559 0.472026 0.006648
0.202018 -0.031068 -1.337794 -0.882845 0.468970 -0.025531
0.201325 -0.032099 -1.338039 -0.885371 0.464654 -0.014645
0.201054 -0.032881 -1.337046 -0.893066 0.449831 0.009234
0.201824 -0.031831 -1.336733 -0.892036 0.451947 -0.003953
0.200265 -0.034376 -1.336945 -0.897454 0.440033 0.030762
0.200568 -0.033816 -1.336836 -0.897572 0.440143 0.025265
0.200489 -0.034352 -1.335989 -0.902847 0.427947 0.041587
0.200127 -0.034908 -1.336334 -0.902134 0.428883 0.047056
0.200637 -0.034118 -1.335990 -0.902404 0.429143 0.038770
0.204699 -0.027084 -1.337335 -0.871041 0.485154 -0.076898
0.204169 -0.026698 -1.337503 -0.868395 0.488384 -0.085854
0.204680 -0.026889 -1.337203 -0.871357 0.484087 -0.079980
0.204723 -0.027558 -1.336540 -0.878142 0.474335 -0.062231
0.203561 -0.028887 -1.337449 -0.877526 0.476528 -0.053558
0.202835 -0.029869 -1.337744 -0.879859 0.473350 -0.042288
0.203992 -0.028823 -1.336283 -0.885044 0.463595 -0.042145
0.203500 -0.030025 -1.335619 -0.892963 0.449799 -0.017249
0.203174 -0.030419 -1.335820 -0.893001 0.449818 -0.014596
0.203864 -0.029346 -1.335688 -0.890008 0.455072 -0.028190
0.204931 -0.026530 -1.336324 -0.876535 0.475196 -0.076645
0.204243 -0.027821 -1.334994 -0.889983 0.453797 -0.044702
0.202945 -0.025968 -1.335811 -0.877504 0.472931 -0.079519
0.202526 -0.026843 -1.335209 -0.884174 0.463401 -0.059128
0.202094 -0.026831 -1.334983 -0.886482 0.458998 -0.058916
0.203002 -0.027258 -1.335218 -0.885638 0.461298 -0.053385
0.203256 -0.027856 -1.334949 -0.890088 0.453850 -0.041998
0.203912 -0.028952 -1.334630 -0.896054 0.443367 -0.022634
0.199035 -0.026149 -1.335760 -0.878334 0.471878 -0.076558
0.199821 -0.025944 -1.335559 -0.878334 0.471878 -0.076558
0.200181 -0.025817 -1.335482 -0.878334 0.471878 -0.076558
0.200408 -0.026128 -1.334958 -0.883633 0.463251 -0.067759
0.199976 -0.026529 -1.334732 -0.886482 0.458998 -0.058916
0.201574 -0.026792 -1.334625 -0.887918 0.456916 -0.053193
0.201221 -0.027238 -1.334225 -0.891633 0.450552 -0.044649
0.199637 -0.026793 -1.334563 -0.889023 0.454754 -0.053259
0.199268 -0.026663 -1.334954 -0.885893 0.460115 -0.059060
0.199842 -0.026863 -1.334321 -0.890285 0.452618 -0.050291
0.197895 -0.026350 -1.335232 -0.882500 0.465419 -0.067672
0.197502 -0.026602 -1.333890 -0.891936 0.449362 -0.050231
0.199489 -0.027039 -1.334028 -0.892719 0.448391 -0.044704
0.199663 -0.027333 -1.333505 -0.896771 0.441013 -0.036193
0.199074 -0.027439 -1.333181 -0.899534 0.435774 -0.030651
0.198579 -0.026979 -1.333924 -0.893267 0.447309 -0.044596
0.197734 -0.026997 -1.333138 -0.898348 0.437794 -0.036148
0.198764 -0.027738 -1.332619 -0.903292 0.428569 -0.019780
0.198127 -0.027321 -1.332797 -0.901649 0.431570 -0.027886
0.201616 -0.029507 -1.333809 -0.902381 0.430890 -0.006548
0.201318 -0.027541 -1.334219 -0.894013 0.446332 -0.039105
0.201281 -0.028048 -1.334056 -0.896397 0.442187 -0.030726
0.200486 -0.027829 -1.333279 -0.900174 0.434796 -0.025263
0.200723 -0.028614 -1.333009 -0.904845 0.425578 -0.011785
0.202815 -0.030993 -1.335750 -0.895195 0.445626 -0.006573
0.202827 -0.030718 -1.336185 -0.891934 0.451931 -0.014578
0.202088 -0.031831 -1.336090 -0.895728 0.444585 0.003934
0.202193 -0.031574 -1.336283 -0.894164 0.447738 -0.001313
0.202224 -0.032213 -1.335186 -0.901778 0.431745 0.019805
0.203052 -0.030318 -1.334165 -0.902354 0.430994 0.001302
0.203180 -0.030905 -1.334195 -0.903860 0.427731 0.009156
0.200893 -0.033742 -1.335849 -0.903072 0.428192 0.033348
0.201167 -0.033490 -1.335562 -0.903072 0.428192 0.033348
0.200756 -0.034351 -1.335140 -0.906987 0.417886 0.052404
0.201169 -0.034019 -1.334631 -0.909484 0.412425 0.052393
0.201740 -0.033595 -1.333884 -0.912266 0.405898 0.054924
0.201847 -0.030899 -1.333628 -0.906787 0.421243 0.017060
0.201966 -0.031877 -1.333190 -0.911858 0.408947 0.035733
0.202401 -0.032530 -1.333431 -0.912653 0.406364 0.043967
0.202300 -0.032677 -1.333315 -0.913529 0.404087 0.046677
0.202093 -0.033230 -1.332879 -0.916783 0.394819 0.060227
0.201859 -0.033931 -1.332958 -0.917391 0.392013 0.068703
0.202056 -0.033603 -1.332699 -0.917816 0.391046 0.068534
0.201970 -0.033912 -1.332476 -0.920339 0.384036 0.074112
0.201034 -0.032029 -1.332081 -0.918458 0.392106 0.051838
0.201409 -0.033146 -1.332057 -0.920562 0.384572 0.068339
0.201223 -0.033143 -1.331866 -0.921336 0.382214 0.071078
0.196282 -0.031261 -1.339988 -0.870127 0.490735 -0.045362
0.196011 -0.031656 -1.339949 -0.871655 0.488510 -0.039683
0.194100 -0.032039 -1.338600 -0.881839 0.471120 -0.020133
0.196622 -0.030543 -1.339758 -0.868424 0.492889 -0.053845
0.195663 -0.030809 -1.339036 -0.874530 0.483113 -0.042426
0.195438 -0.030617 -1.338489 -0.877052 0.478764 -0.039556
0.194295 -0.031599 -1.338536 -0.880528 0.473301 -0.025620
0.193523 -0.032132 -1.338415 -0.883069 0.468922 -0.017367
0.196408 -0.028739 -1.338184 -0.872713 0.484224 -0.062436
0.196393 -0.029360 -1.338728 -0.870511 0.488538 -0.059510
0.195785 -0.029536 -1.338004 -0.876502 0.478715 -0.050752
0.195595 -0.029619 -1.337894 -0.877254 0.477631 -0.047900
0.196475 -0.028270 -1.337825 -0.872559 0.484138 -0.065199
0.196417 -0.028066 -1.337537 -0.873730 0.482010 -0.065287
0.196384 -0.027797 -1.337250 -0.875387 0.478619 -0.067978
0.194775 -0.028703 -1.336365 -0.884348 0.464657 -0.044967
0.194904 -0.030266 -1.337902 -0.879437 0.474380 -0.039418
0.195310 -0.029802 -1.337830 -0.877993 0.476547 -0.045060
0.194064 -0.030532 -1.337565 -0.882636 0.469027 -0.031088
0.194807 -0.029701 -1.337561 -0.879859 0.473350 -0.042288
0.194189 -0.029699 -1.336681 -0.885379 0.463641 -0.033793
0.193767 -0.032512 -1.338629 -0.883107 0.468942 -0.014696
0.192918 -0.032407 -1.338401 -0.883724 0.467854 -0.011996
0.192483 -0.032343 -1.338287 -0.883724 0.467854 -0.011996
0.192187 -0.035739 -1.333629 -0.917215 0.388419 0.088587
0.196655 -0.026839 -1.336736 -0.874720 0.478515 -0.076730
0.196489 -0.027514 -1.337083 -0.874736 0.479784 -0.068143
0.196114 -0.026978 -1.336284 -0.878344 0.473168 -0.067992
0.195927 -0.027765 -1.336801 -0.878142 0.474335 -0.062231
0.195741 -0.027287 -1.335833 -0.882439 0.466688 -0.059196
0.196387 -0.026824 -1.334572 -0.889023 0.454754 -0.053259
0.195270 -0.028668 -1.334775 -0.893268 0.448643 -0.028124
0.194513 -0.029208 -1.336276 -0.886403 0.461471 -0.036539
0.194976 -0.028930 -1.335211 -0.891576 0.451821 -0.030836
0.195020 -0.029434 -1.334221 -0.899829 0.436081 -0.011857
0.194401 -0.030106 -1.334765 -0.897799 0.440356 -0.006572
0.194074 -0.030669 -1.334431 -0.901862 0.432006 0.003915
0.197349 -0.026181 -1.334785 -0.884399 0.462205 -0.064847
0.196858 -0.026738 -1.333652 -0.894346 0.445143 -0.044650
0.196076 -0.027538 -1.334212 -0.894013 0.446332 -0.039105
0.196236 -0.027652 -1.333411 -0.897973 0.438979 -0.030689
0.195757 -0.028007 -1.334301 -0.894193 0.446426 -0.033515
0.197240 -0.026936 -1.333238 -0.897739 0.438805 -0.038915
0.196848 -0.027452 -1.332702 -0.902207 0.430569 -0.025172
0.195541 -0.028932 -1.333424 -0.903354 0.428733 -0.011800
0.196354 -0.028031 -1.332517 -0.905349 0.424423 -0.014454
0.194767 -0.030548 -1.333061 -0.909243 0.415916 0.017057
0.195278 -0.030221 -1.332261 -0.912990 0.407374 0.022268
0.195620 -0.029252 -1.332625 -0.907762 0.419467 0.003896
0.195557 -0.029930 -1.331917 -0.914443 0.404239 0.019623
0.193736 -0.032350 -1.333139 -0.913096 0.405378 0.043861
0.193998 -0.031985 -1.333034 -0.913736 0.404484 0.038459
0.194754 -0.031045 -1.332517 -0.913880 0.404850 0.030331
0.194985 -0.031037 -1.332031 -0.916090 0.399389 0.035589
0.194470 -0.032295 -1.331560 -0.920902 0.385153 0.059972
0.195196 -0.030427 -1.332217 -0.913472 0.406134 0.024973
0.194656 -0.032289 -1.331128 -0.923412 0.378184 0.065481
0.194304 -0.033002 -1.331219 -0.924178 0.374232 0.076456
0.193326 -0.032862 -1.333177 -0.914271 0.401745 0.052053
0.192365 -0.034825 -1.333360 -0.916766 0.391352 0.079895
0.193542 -0.033431 -1.332582 -0.917982 0.391117 0.065858
0.193825 -0.033832 -1.331511 -0.923718 0.373533 0.084955
0.193940 -0.034062 -1.330959 -0.926499 0.363837 0.096031
0.193823 -0.034281 -1.331011 -0.926783 0.362300 0.099056
0.198848 -0.028038 -1.332274 -0.906321 0.422427 -0.011770
0.198872 -0.028495 -1.331846 -0.911072 0.412244 0.001292
0.198531 -0.028767 -1.331426 -0.913934 0.405761 0.009075
0.198845 -0.028969 -1.331389 -0.914445 0.404541 0.011707
0.200279 -0.030665 -1.331816 -0.916173 0.399425 0.032956
0.199676 -0.030092 -1.331620 -0.916201 0.399773 0.027525
0.199520 -0.029532 -1.331588 -0.914870 0.403274 0.019576
0.199331 -0.030554 -1.331325 -0.918338 0.393950 0.038209
0.198911 -0.030489 -1.330807 -0.921485 0.386259 0.040867
0.200349 -0.030860 -1.331762 -0.917053 0.397170 0.035627
0.199752 -0.030909 -1.331492 -0.918783 0.392631 0.040982
0.199980 -0.031689 -1.331285 -0.921586 0.384327 0.054524
0.200516 -0.031117 -1.331772 -0.917827 0.394864 0.040939
0.199079 -0.030918 -1.330864 -0.921697 0.384812 0.048928
0.199254 -0.031314 -1.330938 -0.922115 0.383441 0.051745
0.199159 -0.031486 -1.330673 -0.923573 0.378731 0.059800
0.198976 -0.031488 -1.330417 -0.924350 0.376390 0.062510
0.200516 -0.032090 -1.331564 -0.921046 0.385213 0.057315
0.197186 -0.028487 -1.331108 -0.914894 0.403592 0.009084
0.196512 -0.028585 -1.331614 -0.912036 0.410093 0.003881
0.196100 -0.029143 -1.331667 -0.913481 0.406713 0.011695
0.196368 -0.029097 -1.331268 -0.915375 0.402348 0.014323
0.196532 -0.029040 -1.331028 -0.916295 0.400146 0.016944
0.197146 -0.029318 -1.329851 -0.922848 0.383538 0.035343
0.197747 -0.031081 -1.329181 -0.930058 0.360581 0.070519
0.195661 -0.030534 -1.331049 -0.920141 0.389443 0.040924
0.195793 -0.030188 -1.331156 -0.918920 0.393072 0.032866
0.195479 -0.031294 -1.330593 -0.924105 0.377862 0.057011
0.196361 -0.030280 -1.329929 -0.925260 0.376176 0.048837
0.195740 -0.031161 -1.330162 -0.925806 0.373244 0.059772
0.196360 -0.030371 -1.329800 -0.926054 0.373857 0.051521
0.197596 -0.031537 -1.328971 -0.931279 0.355725 0.078606
0.197465 -0.031890 -1.328881 -0.932069 0.351699 0.086922
0.197099 -0.031792 -1.328811 -0.932282 0.351779 0.084267
0.197748 -0.032311 -1.329076 -0.932374 0.350143 0.089884
0.198067 -0.033191 -1.329388 -0.931586 0.349176 0.101113
0.198325 -0.033347 -1.329485 -0.931586 0.349176 0.101113
0.197436 -0.033014 -1.328637 -0.934874 0.338605 0.106573
0.195557 -0.031666 -1.329958 -0.927525 0.367006 0.070732
0.194987 -0.032795 -1.329920 -0.929218 0.359046 0.087408
0.195203 -0.032730 -1.329545 -0.931140 0.353376 0.090024
0.194547 -0.032649 -1.330965 -0.924753 0.373381 0.073606
0.194701 -0.033460 -1.329824 -0.930596 0.352519 0.098597
0.194321 -0.033376 -1.330780 -0.925742 0.367871 0.087588
0.194811 -0.034086 -1.328780 -0.935303 0.332582 0.120816
0.196178 -0.032381 -1.328690 -0.933652 0.345250 0.095380
0.195768 -0.033499 -1.327989 -0.937642 0.326078 0.120419
0.195037 -0.033727 -1.328651 -0.935100 0.334254 0.117733
0.197022 -0.030740 -1.328986 -0.929696 0.362064 0.067638
0.185671 -0.053687 -1.340768 -0.895860 0.349133 0.274849
0.184837 -0.054314 -1.340737 -0.894881 0.343956 0.284397
0.184748 -0.054084 -1.340783 -0.895306 0.345948 0.280618
0.188876 -0.055782 -1.340599 -0.892662 0.330449 0.306525
0.188220 -0.056466 -1.340511 -0.891307 0.325065 0.316077
0.184595 -0.055372 -1.340525 -0.893196 0.332525 0.302702
0.186991 -0.055647 -1.340252 -0.893323 0.326607 0.308711
0.185734 -0.056055 -1.340275 -0.891920 0.324199 0.315235
0.184335 -0.054749 -1.340636 -0.895167 0.338108 0.290445
0.184181 -0.054153 -1.340627 -0.895472 0.343042 0.283640
0.183933 -0.053825 -1.340375 -0.896224 0.343329 0.280906
0.184079 -0.055453 -1.340425 -0.894079 0.329869 0.303002
0.184016 -0.054870 -1.340469 -0.894501 0.334880 0.296182
0.183319 -0.055635 -1.340058 -0.893362 0.323639 0.311707
0.183035 -0.055657 -1.339979 -0.893362 0.323639 0.311707
0.182681 -0.056873 -1.339783 -0.891227 0.310057 0.331027
0.188761 -0.057419 -1.340559 -0.889814 0.316612 0.328616
0.189052 -0.057041 -1.340501 -0.890460 0.318770 0.324756
0.188398 -0.058608 -1.340257 -0.886973 0.301661 0.349686
0.187383 -0.058872 -1.340155 -0.886193 0.299410 0.353575
0.187286 -0.057239 -1.340188 -0.890396 0.312761 0.330719
0.185699 -0.057229 -1.340215 -0.890396 0.312761 0.330719
0.184794 -0.058224 -1.340039 -0.887901 0.301976 0.347048
0.186175 -0.058308 -1.339980 -0.886973 0.301661 0.349686
0.185977 -0.059019 -1.339573 -0.886334 0.289446 0.361432
0.188077 -0.058831 -1.340196 -0.886193 0.299410 0.353575
0.187918 -0.058891 -1.340189 -0.886193 0.299410 0.353575
0.188085 -0.059610 -1.339883 -0.885488 0.287145 0.365320
0.188391 -0.060481 -1.338964 -0.881247 0.268728 0.388830
0.187189 -0.060930 -1.339222 -0.879538 0.269124 0.392409
0.185441 -0.060020 -1.338710 -0.882937 0.268329 0.385255
0.186285 -0.060370 -1.338758 -0.881955 0.265939 0.389142
0.183763 -0.058384 -1.340056 -0.886973 0.301661 0.349686
0.184741 -0.056934 -1.340295 -0.891307 0.316077 0.325065
0.184220 -0.056697 -1.340250 -0.891323 0.319079 0.322075
0.184666 -0.057803 -1.340156 -0.888742 0.307238 0.340210
0.183897 -0.058221 -1.340082 -0.887901 0.301976 0.347048
0.183565 -0.057548 -1.340021 -0.889646 0.307550 0.337555
0.184349 -0.058547 -1.339926 -0.886837 0.298613 0.352634
0.184185 -0.059075 -1.339518 -0.886135 0.286382 0.364350
0.183074 -0.058366 -1.339362 -0.888104 0.292041 0.354942
0.183580 -0.058958 -1.339271 -0.886135 0.286382 0.364350
0.182728 -0.057638 -1.339346 -0.889958 0.297650 0.345513
0.184537 -0.059443 -1.338993 -0.884792 0.277906 0.374046
0.186919 -0.061286 -1.338613 -0.879173 0.256989 0.401263
0.196868 -0.037551 -1.341267 -0.881516 0.471132 0.031049
0.197187 -0.038371 -1.340299 -0.889023 0.454754 0.053259
0.193924 -0.044184 -1.340616 -0.897784 0.418398 0.137575
0.193329 -0.044286 -1.340819 -0.896507 0.421969 0.134973
0.193382 -0.044458 -1.340873 -0.896159 0.421806 0.137761
0.190884 -0.047521 -1.341546 -0.895990 0.408318 0.174581
0.188889 -0.046872 -1.341282 -0.897442 0.407666 0.168540
0.190557 -0.043908 -1.340734 -0.896328 0.423384 0.131688
0.191764 -0.044050 -1.340836 -0.896328 0.423384 0.131688
0.192322 -0.044238 -1.340917 -0.896507 0.421969 0.134973
0.192605 -0.043275 -1.340577 -0.896775 0.425086 0.122865
0.191781 -0.044458 -1.340936 -0.896159 0.421806 0.137761
0.190309 -0.044762 -1.340921 -0.896876 0.419300 0.140714
0.189860 -0.044793 -1.340865 -0.897580 0.416784 0.143670
0.189828 -0.044246 -1.340741 -0.896507 0.421969 0.134973
0.189912 -0.043289 -1.340456 -0.897535 0.422619 0.125796
0.188772 -0.042900 -1.340086 -0.898397 0.421696 0.122701
0.189937 -0.045502 -1.341030 -0.896781 0.416209 0.150179
0.189569 -0.045763 -1.341034 -0.897060 0.413477 0.155948
0.190487 -0.045447 -1.341009 -0.896781 0.416209 0.150179
0.188778 -0.046163 -1.341103 -0.897156 0.411974 0.159335
0.189304 -0.045280 -1.340855 -0.897339 0.415144 0.149794
0.189014 -0.045370 -1.340907 -0.897339 0.415144 0.149794
0.190360 -0.046680 -1.341191 -0.896386 0.410064 0.168342
0.190052 -0.046368 -1.341131 -0.897800 0.409397 0.162322
0.188908 -0.046685 -1.341236 -0.896817 0.410261 0.165544
0.196115 -0.038149 -1.341285 -0.882906 0.467900 0.039331
0.196429 -0.038939 -1.341042 -0.887339 0.458025 0.053322
0.196772 -0.039035 -1.340186 -0.891185 0.449025 0.064539
0.195104 -0.038890 -1.341011 -0.886226 0.460182 0.053255
0.195155 -0.039803 -1.340785 -0.890287 0.449960 0.070177
0.194859 -0.038142 -1.340915 -0.884940 0.463540 0.044859
0.192713 -0.038398 -1.340525 -0.888043 0.456981 0.050473
0.192633 -0.038793 -1.340543 -0.888891 0.454686 0.055982
0.193610 -0.038385 -1.340585 -0.888043 0.456981 0.050473
0.192726 -0.037866 -1.340318 -0.887744 0.458147 0.044863
0.194045 -0.038592 -1.340677 -0.887918 0.456916 0.053193
0.193904 -0.038440 -1.340640 -0.888043 0.456981 0.050473
0.194188 -0.039344 -1.340712 -0.889513 0.452318 0.064617
0.193055 -0.039183 -1.340519 -0.890085 0.451214 0.064459
0.196307 -0.040885 -1.339684 -0.897439 0.429936 0.098788
0.196197 -0.041099 -1.340017 -0.896059 0.433397 0.096156
0.196037 -0.041395 -1.340246 -0.895263 0.434363 0.099163
0.195374 -0.041313 -1.340348 -0.894975 0.435656 0.096039
0.193470 -0.040513 -1.340384 -0.893161 0.441734 0.084469
0.194107 -0.039565 -1.340667 -0.890456 0.450045 0.067438
0.193461 -0.039936 -1.340452 -0.892127 0.445374 0.075838
0.194871 -0.041292 -1.340400 -0.894975 0.435656 0.096039
0.196836 -0.038944 -1.339729 -0.893770 0.443453 0.067273
0.196627 -0.039942 -1.339577 -0.895889 0.436175 0.084466
0.196634 -0.039644 -1.339271 -0.897510 0.432851 0.084358
0.196749 -0.039493 -1.339016 -0.898045 0.431779 0.084149
0.196655 -0.040385 -1.338205 -0.904062 0.413723 0.107262
0.196860 -0.040091 -1.337698 -0.905331 0.410250 0.109864
0.192434 -0.039598 -1.340569 -0.890287 0.449960 0.070177
0.192362 -0.038154 -1.340436 -0.888736 0.455937 0.047635
0.192030 -0.038476 -1.340455 -0.889023 0.454754 0.053259
0.192387 -0.037854 -1.340212 -0.888736 0.455937 0.047635
0.190801 -0.039058 -1.339730 -0.893601 0.443369 0.070006
0.189966 -0.039670 -1.339524 -0.896639 0.435195 0.081513
0.189988 -0.040012 -1.339565 -0.896756 0.433825 0.087319
0.189160 -0.039797 -1.339248 -0.897297 0.432749 0.087103
0.189104 -0.039279 -1.338834 -0.899114 0.429531 0.084249
0.188751 -0.039889 -1.339014 -0.899217 0.428133 0.090060
0.192199 -0.040015 -1.340547 -0.891562 0.446472 0.076025
0.191557 -0.042326 -1.340514 -0.895824 0.430388 0.110751
0.191156 -0.042353 -1.340434 -0.895824 0.430388 0.110751
0.189746 -0.040624 -1.339626 -0.896606 0.432317 0.095916
0.188655 -0.040836 -1.339415 -0.898260 0.427544 0.101664
0.190319 -0.041692 -1.339879 -0.897725 0.427155 0.107839
0.190090 -0.038361 -1.339140 -0.895944 0.439081 0.067025
0.189508 -0.037960 -1.338254 -0.899515 0.431274 0.069825
0.189737 -0.038582 -1.337309 -0.905475 0.414837 0.089583
0.189633 -0.038903 -1.337235 -0.905551 0.413374 0.095394
0.188828 -0.039882 -1.337519 -0.905605 0.410374 0.107115
0.189095 -0.039737 -1.337410 -0.906103 0.409342 0.106845
0.189088 -0.040097 -1.336775 -0.910058 0.397192 0.118461
0.194965 -0.042481 -1.340243 -0.897406 0.425530 0.116564
0.196021 -0.041936 -1.339698 -0.899307 0.422295 0.113641
0.194326 -0.041965 -1.340330 -0.896099 0.430520 0.107981
0.192627 -0.042275 -1.340386 -0.895824 0.430388 0.110751
0.196076 -0.041269 -1.339280 -0.899867 0.422728 0.107426
0.195968 -0.041815 -1.339210 -0.901665 0.416477 0.116389
0.196595 -0.040719 -1.338052 -0.904547 0.411158 0.112894
0.195576 -0.044197 -1.336580 -0.911917 0.366765 0.184096
0.196123 -0.042615 -1.336291 -0.913613 0.372528 0.162892
0.195527 -0.044226 -1.337614 -0.908426 0.380769 0.172558
0.195420 -0.045460 -1.337848 -0.908027 0.374400 0.187917
0.195454 -0.044429 -1.337397 -0.909478 0.375499 0.178469
0.195954 -0.043349 -1.335906 -0.914753 0.362772 0.177829
0.195404 -0.044816 -1.336480 -0.912803 0.359676 0.193451
0.195665 -0.044248 -1.335949 -0.914682 0.355313 0.192640
0.189182 -0.041252 -1.335931 -0.914107 0.377718 0.147437
0.191845 -0.047899 -1.341866 -0.894962 0.409167 0.177836
0.191479 -0.048336 -1.341841 -0.895559 0.404961 0.184337
0.191706 -0.047735 -1.341823 -0.895419 0.409376 0.175033
0.190255 -0.049067 -1.341787 -0.895096 0.400246 0.196484
0.190913 -0.049506 -1.341829 -0.895553 0.395913 0.203070
0.189110 -0.049087 -1.341872 -0.895605 0.400474 0.193684
0.189543 -0.049745 -1.341859 -0.895018 0.395677 0.205869
0.189647 -0.048443 -1.341803 -0.895077 0.404743 0.187139
0.190019 -0.047642 -1.341486 -0.896588 0.405702 0.177585
0.191559 -0.050250 -1.341807 -0.895403 0.391281 0.212493
0.190553 -0.050494 -1.341820 -0.895865 0.388550 0.215535
0.188831 -0.049741 -1.341746 -0.896050 0.393210 0.206106
0.189089 -0.050505 -1.341624 -0.896312 0.385810 0.218577
0.190168 -0.051379 -1.341719 -0.895384 0.380795 0.230830
0.191806 -0.051616 -1.340460 -0.898442 0.361442 0.249321
0.189927 -0.051913 -1.341625 -0.894931 0.375959 0.240319
0.190406 -0.053307 -1.341291 -0.894943 0.360649 0.262695
0.190034 -0.053418 -1.341281 -0.895196 0.357781 0.265738
0.190423 -0.053976 -1.340994 -0.895860 0.349133 0.274849
0.190756 -0.053816 -1.340716 -0.895125 0.348846 0.277593
0.190590 -0.054402 -1.340600 -0.895032 0.341036 0.287423
0.189709 -0.053803 -1.341100 -0.895654 0.352023 0.271815
0.189185 -0.053601 -1.340846 -0.895654 0.352023 0.271815
0.190918 -0.053701 -1.340337 -0.896806 0.342417 0.280159
0.190923 -0.053838 -1.340122 -0.896382 0.340417 0.283929
0.189971 -0.055174 -1.340819 -0.893005 0.338418 0.296674
0.189658 -0.055379 -1.340817 -0.893903 0.335773 0.296973
0.190416 -0.055378 -1.339628 -0.894818 0.320110 0.311176
0.190061 -0.055848 -1.340097 -0.893362 0.323639 0.311707
0.190645 -0.054688 -1.339927 -0.895477 0.329285 0.299486
0.190965 -0.054693 -1.338902 -0.897096 0.313909 0.310934
0.191530 -0.052513 -1.340073 -0.898241 0.350713 0.264885
0.191250 -0.052835 -1.340473 -0.897306 0.353305 0.264609
0.191719 -0.052834 -1.339060 -0.899893 0.332473 0.282232
0.191508 -0.053132 -1.339253 -0.899328 0.333359 0.282985
0.191614 -0.053222 -1.338815 -0.898792 0.327237 0.291700
0.192371 -0.051757 -1.338580 -0.902327 0.334141 0.272317
0.192571 -0.051990 -1.337894 -0.902859 0.322555 0.284261
0.191158 -0.053862 -1.339335 -0.898220 0.328110 0.292478
0.190526 -0.055426 -1.339207 -0.894834 0.314160 0.317137
0.191717 -0.054114 -1.337489 -0.899005 0.300656 0.318428
0.194286 -0.047763 -1.337360 -0.908926 0.349364 0.227594
0.194799 -0.046728 -1.336611 -0.912014 0.345438 0.221138
0.194933 -0.046890 -1.335685 -0.913943 0.330637 0.235344
0.194180 -0.048508 -1.336216 -0.911011 0.326918 0.251363
0.194103 -0.048668 -1.336582 -0.910306 0.330623 0.249060
0.194583 -0.047878 -1.335568 -0.912362 0.323461 0.250936
0.193745 -0.049334 -1.337834 -0.906374 0.342992 0.246662
0.193660 -0.049741 -1.337033 -0.907457 0.328789 0.261570
0.193774 -0.049620 -1.336275 -0.909146 0.319587 0.267053
0.194110 -0.049009 -1.335692 -0.910492 0.316123 0.266592
0.193854 -0.049626 -1.335831 -0.910225 0.311200 0.273213
0.193004 -0.051111 -1.337959 -0.904471 0.330904 0.269135
0.193267 -0.050666 -1.337739 -0.905714 0.330285 0.265696
0.193215 -0.050842 -1.337686 -0.905004 0.330026 0.268421
0.193327 -0.050658 -1.336593 -0.906901 0.314998 0.279835
0.192921 -0.051994 -1.336204 -0.905333 0.298834 0.301778
0.193050 -0.052117 -1.335264 -0.905628 0.283284 0.315575
0.192971 -0.051745 -1.336385 -0.905847 0.303906 0.295098
0.192347 -0.054009 -1.336609 -0.900129 0.288218 0.326648
0.192418 -0.053850 -1.336421 -0.900893 0.285505 0.326925
0.192286 -0.054011 -1.336032 -0.900640 0.279509 0.332749
0.192452 -0.053632 -1.335604 -0.901935 0.276042 0.332136
0.192336 -0.054169 -1.335096 -0.900296 0.263753 0.346268
0.192421 -0.054098 -1.334793 -0.900993 0.261008 0.346536
0.192220 -0.054748 -1.336032 -0.898855 0.273951 0.342068
0.193380 -0.050751 -1.335988 -0.907875 0.306536 0.286003
0.193715 -0.050248 -1.335452 -0.909704 0.302261 0.284739
0.193187 -0.051589 -1.335476 -0.907150 0.291636 0.303360
0.194198 -0.049796 -1.333835 -0.912244 0.280803 0.298262
0.193820 -0.050753 -1.333787 -0.910225 0.273213 0.311200
0.192893 -0.052680 -1.334949 -0.904769 0.275109 0.325128
0.193658 -0.050791 -1.334705 -0.909199 0.285497 0.303066
0.193164 -0.052348 -1.334164 -0.905714 0.265696 0.330285
0.193046 -0.052476 -1.334609 -0.905160 0.271401 0.327149
0.193065 -0.052778 -1.333902 -0.905129 0.256722 0.338873
0.193167 -0.052882 -1.333120 -0.904133 0.244717 0.350223
0.198295 -0.036763 -1.338827 -0.894234 0.445088 0.047350
0.197485 -0.038466 -1.338158 -0.900566 0.427597 0.078370
0.198064 -0.037356 -1.338231 -0.898395 0.434883 0.061347
0.197845 -0.038126 -1.337415 -0.902783 0.421849 0.083820
0.198449 -0.037395 -1.336629 -0.906065 0.415337 0.080874
0.198205 -0.037674 -1.336940 -0.905032 0.417602 0.080782
0.197764 -0.038611 -1.336565 -0.907608 0.407526 0.100845
0.199398 -0.035856 -1.336489 -0.903742 0.424095 0.058262
0.199316 -0.036333 -1.335856 -0.908087 0.412519 0.072157
0.199627 -0.035879 -1.335848 -0.906865 0.416155 0.066422
0.199421 -0.036515 -1.335199 -0.911363 0.403077 0.083348
0.199267 -0.037034 -1.334661 -0.914214 0.393373 0.097315
0.198609 -0.037673 -1.335776 -0.910547 0.402398 0.094763
0.198529 -0.038051 -1.335407 -0.912341 0.396130 0.103518
0.199002 -0.037679 -1.334599 -0.915673 0.386924 0.108779
0.198871 -0.038142 -1.334100 -0.918380 0.377019 0.120149
0.198592 -0.038626 -1.333827 -0.919519 0.370304 0.131756
0.200362 -0.035129 -1.334724 -0.910682 0.407303 0.069012
0.200470 -0.035625 -1.333541 -0.917646 0.387450 0.088366
0.200024 -0.035639 -1.334801 -0.911871 0.403615 0.074744
0.199932 -0.035631 -1.335259 -0.909208 0.410566 0.069105
0.199742 -0.036364 -1.334194 -0.915578 0.391611 0.091421
0.199187 -0.037421 -1.334337 -0.916386 0.386064 0.105790
0.199359 -0.037670 -1.333224 -0.921338 0.368812 0.122937
0.198894 -0.038254 -1.333607 -0.920277 0.369495 0.128700
0.199111 -0.038793 -1.332011 -0.926156 0.344001 0.154591
0.198847 -0.038790 -1.332687 -0.924629 0.351776 0.145994
0.199594 -0.037721 -1.332420 -0.924143 0.357777 0.133994
0.199097 -0.038558 -1.332382 -0.924251 0.351632 0.148714
0.201270 -0.034750 -1.332829 -0.919879 0.383396 0.082640
0.201091 -0.035300 -1.332452 -0.922139 0.374576 0.096709
0.201495 -0.035040 -1.331986 -0.923234 0.371197 0.099258
0.200648 -0.036478 -1.331827 -0.925729 0.357949 0.122059
0.200425 -0.036871 -1.331790 -0.926513 0.353810 0.128032
0.200067 -0.037626 -1.331508 -0.927969 0.344358 0.142445
0.199144 -0.039221 -1.331339 -0.928428 0.330883 0.168932
0.200202 -0.038377 -1.330106 -0.932474 0.318236 0.170930
0.199489 -0.039836 -1.329572 -0.932559 0.300600 0.199934
0.197503 -0.038651 -1.337793 -0.902061 0.422798 0.086763
0.197341 -0.039304 -1.336771 -0.908641 0.403686 0.106817
0.197468 -0.039276 -1.336196 -0.911590 0.395439 0.112388
0.197365 -0.039655 -1.335946 -0.912229 0.391353 0.121166
0.197620 -0.039172 -1.335842 -0.912300 0.392970 0.115253
0.197925 -0.039233 -1.334637 -0.916740 0.376990 0.132155
0.197498 -0.039822 -1.334839 -0.916566 0.375276 0.138113
0.198335 -0.038840 -1.334320 -0.918471 0.373780 0.129225
0.190210 -0.036952 -1.336753 -0.905060 0.419085 0.072350
0.190398 -0.037414 -1.336443 -0.907376 0.411946 0.083484
0.189725 -0.038658 -1.336813 -0.906833 0.409938 0.097999
0.189938 -0.038443 -1.336229 -0.910121 0.401890 0.100818
0.190297 -0.038571 -1.335611 -0.912337 0.394562 0.109370
0.189916 -0.039288 -1.335805 -0.912998 0.390491 0.118120
0.189842 -0.040254 -1.335275 -0.916118 0.376238 0.138467
0.189831 -0.039900 -1.335645 -0.914231 0.383838 0.129807
0.191571 -0.036417 -1.334611 -0.914376 0.394999 0.088841
0.191459 -0.037069 -1.334442 -0.915930 0.388618 0.100244
0.192270 -0.035848 -1.333410 -0.918690 0.383584 0.094190
0.191536 -0.037544 -1.333737 -0.919110 0.376188 0.117128
0.191044 -0.037016 -1.335348 -0.911473 0.401596 0.089091
0.191365 -0.037453 -1.334342 -0.917086 0.383609 0.108620
0.190894 -0.038505 -1.334376 -0.917636 0.377850 0.123182
0.191004 -0.038314 -1.334315 -0.917945 0.377978 0.120454
0.190758 -0.039538 -1.333730 -0.920633 0.361827 0.146687
0.190512 -0.039747 -1.334117 -0.920073 0.364399 0.143805
0.191493 -0.038789 -1.332693 -0.924629 0.351776 0.145994
0.196661 -0.040833 -1.337168 -0.908152 0.398803 0.127337
0.196739 -0.041067 -1.335991 -0.913509 0.380278 0.144534
0.196230 -0.042399 -1.336019 -0.914080 0.371566 0.162472
0.196943 -0.040837 -1.335449 -0.915530 0.374344 0.147214
0.196911 -0.041554 -1.334666 -0.918346 0.359721 0.165048
0.196791 -0.041754 -1.334843 -0.917915 0.359552 0.167791
0.196871 -0.041999 -1.334307 -0.919342 0.351638 0.176525
0.196549 -0.042746 -1.334403 -0.918868 0.347949 0.186046
0.195970 -0.043444 -1.335728 -0.914753 0.359926 0.183520
0.195632 -0.044864 -1.335197 -0.915617 0.342461 0.210635
0.196051 -0.043431 -1.335448 -0.915205 0.357257 0.186457
0.196132 -0.044458 -1.333704 -0.920358 0.322054 0.221859
0.197439 -0.040200 -1.334465 -0.918326 0.367610 0.146764
0.197022 -0.041192 -1.334733 -0.918692 0.361568 0.158977
0.197316 -0.040859 -1.334075 -0.920566 0.355577 0.161626
0.197485 -0.040514 -1.333854 -0.921406 0.354818 0.158476
0.198004 -0.040124 -1.332950 -0.923710 0.346216 0.163997
0.197217 -0.041516 -1.333657 -0.921586 0.345771 0.176414
0.197010 -0.042345 -1.333360 -0.921816 0.335592 0.193992
0.196821 -0.043177 -1.332895 -0.922513 0.322666 0.211794
0.197325 -0.041565 -1.333076 -0.923262 0.336885 0.184652
0.197207 -0.042137 -1.332631 -0.923804 0.326797 0.199474
0.196388 -0.043836 -1.333528 -0.920802 0.326920 0.212712
0.197124 -0.042537 -1.332429 -0.924737 0.318631 0.208172
0.189207 -0.041381 -1.335786 -0.914231 0.376116 0.150728
0.189336 -0.042241 -1.334860 -0.917514 0.357675 0.173889
0.189850 -0.040742 -1.334857 -0.916669 0.369195 0.153012
0.190227 -0.040554 -1.334102 -0.920057 0.358190 0.158727
0.190238 -0.041207 -1.333491 -0.922463 0.345043 0.173226
0.190131 -0.042231 -1.332690 -0.923804 0.326797 0.199474
0.190095 -0.041941 -1.333129 -0.922741 0.334900 0.190766
0.190943 -0.040211 -1.332701 -0.923739 0.343423 0.169609
0.190523 -0.041431 -1.332443 -0.924888 0.329006 0.190626
0.191142 -0.041147 -1.331091 -0.928656 0.311431 0.201514
0.190477 -0.042060 -1.331856 -0.925974 0.315255 0.207814
0.190608 -0.042491 -1.330913 -0.927398 0.298750 0.225124
0.192239 -0.036135 -1.333258 -0.919163 0.381050 0.099701
0.192787 -0.035462 -1.332501 -0.921893 0.374476 0.099406
0.192648 -0.035849 -1.332510 -0.921908 0.372861 0.105166
0.192182 -0.036717 -1.332793 -0.922132 0.369677 0.114064
0.193095 -0.035212 -1.332039 -0.923234 0.371197 0.099258
0.192637 -0.036132 -1.332211 -0.924159 0.365556 0.110899
0.192457 -0.036640 -1.332105 -0.924420 0.361252 0.122249
0.192850 -0.036104 -1.331612 -0.926425 0.357159 0.119053
0.192760 -0.036325 -1.331630 -0.926636 0.355554 0.122179
0.192976 -0.036067 -1.331309 -0.927022 0.354651 0.121869
0.192085 -0.037797 -1.332004 -0.926160 0.350252 0.139824
0.192418 -0.037702 -1.331267 -0.928104 0.341642 0.147999
0.191568 -0.039192 -1.332070 -0.926228 0.341242 0.160175
0.191958 -0.039046 -1.331077 -0.929223 0.327387 0.171356
0.193333 -0.035347 -1.331056 -0.927399 0.356482 0.113364
0.193758 -0.034614 -1.330816 -0.928082 0.357373 0.104630
0.193324 -0.036354 -1.330056 -0.932064 0.333566 0.141388
0.193768 -0.035492 -1.329773 -0.932094 0.338072 0.130028
0.192966 -0.037385 -1.330086 -0.931976 0.327227 0.156020
0.193296 -0.037025 -1.329436 -0.933600 0.321313 0.158588
0.192876 -0.038026 -1.329551 -0.933209 0.314767 0.173330
0.193140 -0.038203 -1.328550 -0.935989 0.298130 0.187198
0.192160 -0.039540 -1.330025 -0.932202 0.308870 0.188677
0.198067 -0.040462 -1.332438 -0.925486 0.335647 0.175547
0.198135 -0.040309 -1.332465 -0.925063 0.338301 0.172660
0.197979 -0.040678 -1.332375 -0.925895 0.332985 0.178435
0.197905 -0.040993 -1.332132 -0.925787 0.328323 0.187412
0.198093 -0.041176 -1.331353 -0.928362 0.314150 0.198633
0.198621 -0.040478 -1.331001 -0.928947 0.316207 0.192535
0.197553 -0.041898 -1.331763 -0.926515 0.315439 0.205106
0.197463 -0.042568 -1.331207 -0.927198 0.301516 0.222244
0.197530 -0.043047 -1.330434 -0.927659 0.288384 0.237242
0.199126 -0.040220 -1.330031 -0.931403 0.303931 0.200287
0.198664 -0.040738 -1.330607 -0.929851 0.308075 0.201163
0.199188 -0.040166 -1.329953 -0.931403 0.303931 0.200287
0.198118 -0.041986 -1.330266 -0.929344 0.292807 0.224910
0.198018 -0.041574 -1.331068 -0.928008 0.309336 0.207636
0.198112 -0.042316 -1.329854 -0.929813 0.284463 0.233515
0.198574 -0.042039 -1.329189 -0.931160 0.275533 0.238795
0.198785 -0.042152 -1.328463 -0.932453 0.263795 0.246867
0.198655 -0.042731 -1.327998 -0.931457 0.253006 0.261487
0.191552 -0.040172 -1.331007 -0.929002 0.318075 0.189163
0.191340 -0.040488 -1.331251 -0.928617 0.318905 0.189657
0.190883 -0.041818 -1.330978 -0.928512 0.303851 0.213402
0.191939 -0.040053 -1.330048 -0.931922 0.304101 0.197596
0.191515 -0.041325 -1.329612 -0.931453 0.288877 0.221238
0.190750 -0.042762 -1.330163 -0.928807 0.285023 0.236810
0.190932 -0.042650 -1.329757 -0.930051 0.278874 0.239237
0.191274 -0.042129 -1.329325 -0.930432 0.278141 0.238608
0.192564 -0.038882 -1.329458 -0.934208 0.304905 0.185171
0.192211 -0.039938 -1.329233 -0.933055 0.295164 0.205636
0.192229 -0.040051 -1.329029 -0.934043 0.289875 0.208654
0.192935 -0.039104 -1.327975 -0.936586 0.282507 0.207357
0.192688 -0.039885 -1.327786 -0.935992 0.272823 0.222456
0.191192 -0.042640 -1.328805 -0.930729 0.266931 0.249983
0.192030 -0.041354 -1.327884 -0.933824 0.262594 0.242935
0.191833 -0.041935 -1.327661 -0.932886 0.254679 0.254679
0.191653 -0.042527 -1.327475 -0.932453 0.246867 0.263795
0.192117 -0.042080 -1.326654 -0.933691 0.237284 0.268173
0.195419 -0.045953 -1.334526 -0.916606 0.323762 0.234547
0.195174 -0.046652 -1.334705 -0.916587 0.319001 0.241055
0.194958 -0.046934 -1.335494 -0.914187 0.327837 0.238295
0.195909 -0.045074 -1.333701 -0.919813 0.317127 0.231029
0.195075 -0.047254 -1.334203 -0.916154 0.308279 0.256176
0.194640 -0.047999 -1.334903 -0.914179 0.311487 0.259331
0.194564 -0.048879 -1.333701 -0.914326 0.286363 0.286363
0.194561 -0.049308 -1.333096 -0.914203 0.274697 0.297952
0.194759 -0.048808 -1.333045 -0.915510 0.277119 0.291628
0.195317 -0.047499 -1.332589 -0.917980 0.281899 0.279008
0.196265 -0.044535 -1.333191 -0.921290 0.315667 0.227109
0.195760 -0.046153 -1.332685 -0.920032 0.295159 0.257724
0.196657 -0.044086 -1.332121 -0.923153 0.303913 0.235425
0.196532 -0.044606 -1.331809 -0.923627 0.295504 0.244112
0.195179 -0.047207 -1.333683 -0.916862 0.301770 0.261342
0.195303 -0.048014 -1.331841 -0.917045 0.267171 0.296054
0.195874 -0.046270 -1.332006 -0.920746 0.282975 0.268611
0.195784 -0.046649 -1.331728 -0.919621 0.277757 0.277757
0.195867 -0.046614 -1.331387 -0.920777 0.271493 0.280111
0.195479 -0.048481 -1.330470 -0.917244 0.243350 0.315348
0.194247 -0.049973 -1.333337 -0.912036 0.272011 0.306921
0.194364 -0.050197 -1.332499 -0.912229 0.257519 0.318625
0.193569 -0.051607 -1.333450 -0.907457 0.261570 0.328789
0.193729 -0.051437 -1.333120 -0.908659 0.258158 0.328167
0.193267 -0.052942 -1.332540 -0.904705 0.235311 0.355159
0.194227 -0.050482 -1.332610 -0.911381 0.257280 0.321236
0.193585 -0.052094 -1.332687 -0.906374 0.246662 0.342992
0.194105 -0.051198 -1.331967 -0.908950 0.242871 0.338857
0.193117 -0.053612 -1.332109 -0.901805 0.223624 0.369784
0.193812 -0.052155 -1.331584 -0.906041 0.228328 0.356308
0.194677 -0.049588 -1.332170 -0.912869 0.259783 0.314933
0.195432 -0.048830 -1.330244 -0.916144 0.235168 0.324618
0.195223 -0.049316 -1.330439 -0.914813 0.235568 0.328061
0.193995 -0.051702 -1.331580 -0.907814 0.230948 0.350053
0.194127 -0.051767 -1.330818 -0.907385 0.219224 0.358599
0.194804 -0.050647 -1.330045 -0.910265 0.218522 0.351661
0.194754 -0.050985 -1.329779 -0.908593 0.212342 0.359681
0.194452 -0.051565 -1.330114 -0.907690 0.209912 0.363366
0.194214 -0.052665 -1.329316 -0.902980 0.189265 0.385753
0.197087 -0.043527 -1.331188 -0.925722 0.294354 0.237474
0.197092 -0.043924 -1.330657 -0.926202 0.283125 0.248979
0.196945 -0.044675 -1.330069 -0.926067 0.266833 0.266833
0.197026 -0.044558 -1.329968 -0.926067 0.266833 0.266833
0.196632 -0.045706 -1.329726 -0.924721 0.252976 0.284420
0.196298 -0.046034 -1.330189 -0.922949 0.258998 0.284755
0.196179 -0.046413 -1.330162 -0.922356 0.253899 0.291195
0.195848 -0.047816 -1.329936 -0.918336 0.240003 0.314735
0.195967 -0.047516 -1.329865 -0.919790 0.242503 0.308510
0.196109 -0.047638 -1.329314 -0.919813 0.231029 0.317127
0.196068 -0.047310 -1.329755 -0.919790 0.242503 0.308510
0.196618 -0.046945 -1.328362 -0.921050 0.224194 0.318441
0.198355 -0.042582 -1.329099 -0.930677 0.269741 0.247145
0.198010 -0.043409 -1.328917 -0.928658 0.262293 0.262293
0.198126 -0.043458 -1.328515 -0.929686 0.253293 0.267444
0.199037 -0.042161 -1.327681 -0.932879 0.251863 0.257491
0.197535 -0.043780 -1.329587 -0.927554 0.268465 0.259942
0.197350 -0.044429 -1.329206 -0.927126 0.257772 0.272014
0.197233 -0.045217 -1.328603 -0.925457 0.240990 0.292325
0.197148 -0.045512 -1.328483 -0.924532 0.237900 0.297731
0.196687 -0.047245 -1.327749 -0.919940 0.212513 0.329467
0.197856 -0.044598 -1.327741 -0.927517 0.234365 0.291181
0.191350 -0.043134 -1.327627 -0.930610 0.244303 0.272546
0.191066 -0.044152 -1.327279 -0.928523 0.231068 0.290607
0.191474 -0.043967 -1.326232 -0.929129 0.215716 0.300310
0.195674 -0.049004 -1.329095 -0.914925 0.216882 0.340404
0.196257 -0.047519 -1.328924 -0.919578 0.228101 0.319916
0.196189 -0.047878 -1.328776 -0.918203 0.222030 0.328032
0.196165 -0.048322 -1.328238 -0.916970 0.210288 0.339036
0.195882 -0.048754 -1.328763 -0.915955 0.213580 0.339720
0.196109 -0.048593 -1.328019 -0.915805 0.204945 0.345397
0.196738 -0.047181 -1.327653 -0.920494 0.209787 0.329665
0.195956 -0.049225 -1.327703 -0.914214 0.193144 0.356243
0.196111 -0.049466 -1.326818 -0.911902 0.178385 0.369613
0.196564 -0.048595 -1.326406 -0.914287 0.180582 0.362587
0.197088 -0.046566 -1.327235 -0.921788 0.209433 0.326259
0.195238 -0.049807 -1.329524 -0.913076 0.217811 0.344747
0.195204 -0.050431 -1.328766 -0.909856 0.199795 0.363655
0.195036 -0.050997 -1.328577 -0.908002 0.191386 0.372698
0.194909 -0.051575 -1.328072 -0.904994 0.179278 0.385806
0.194700 -0.051869 -1.328535 -0.904525 0.185507 0.383956
0.194530 -0.052693 -1.327908 -0.900636 0.168061 0.400762
0.195727 -0.049395 -1.328256 -0.913118 0.202119 0.354066
0.195363 -0.050813 -1.327605 -0.907496 0.179205 0.379916
0.195763 -0.050399 -1.326673 -0.907880 0.169604 0.383390
0.195925 -0.050190 -1.326405 -0.908316 0.166833 0.383574
0.196219 -0.050135 -1.325449 -0.906863 0.151853 0.393116
0.195824 -0.050718 -1.325946 -0.904944 0.154849 0.396357
0.192100 -0.050920 -1.324926 -0.902028 0.137358 0.409240
0.187700 -0.046477 -1.341003 -0.898431 0.406810 0.165311
0.187950 -0.043314 -1.339832 -0.900614 0.414254 0.131487
0.187934 -0.043653 -1.340016 -0.899738 0.415155 0.134606
0.187773 -0.045472 -1.340819 -0.897457 0.413660 0.153155
0.187055 -0.045807 -1.340203 -0.900027 0.403362 0.165077
0.186651 -0.046066 -1.339824 -0.901813 0.395532 0.174034
0.186731 -0.046845 -1.340166 -0.901379 0.393722 0.180276
0.186626 -0.045419 -1.339225 -0.904339 0.391259 0.170549
0.186743 -0.045202 -1.339189 -0.903760 0.393873 0.167575
0.185909 -0.047457 -1.339737 -0.902445 0.383865 0.195554
0.187572 -0.042045 -1.338789 -0.902845 0.411405 0.124966
0.187680 -0.040825 -1.338839 -0.901451 0.419377 0.107282
0.188345 -0.040165 -1.338992 -0.899819 0.425646 0.095666
0.187563 -0.042104 -1.338603 -0.903565 0.408923 0.127876
0.188078 -0.041019 -1.337871 -0.905219 0.407139 0.121722
0.187890 -0.043049 -1.339626 -0.900614 0.414254 0.131487
0.187573 -0.042746 -1.339081 -0.901856 0.410704 0.134079
0.187301 -0.043706 -1.339224 -0.903021 0.404020 0.146014
0.187434 -0.042791 -1.338337 -0.905451 0.399755 0.142669
0.187592 -0.042935 -1.337918 -0.907751 0.392273 0.148696
0.187434 -0.043786 -1.337809 -0.908247 0.385188 0.163456
0.187660 -0.043810 -1.337255 -0.910346 0.377530 0.169532
0.186915 -0.044957 -1.338125 -0.907474 0.381568 0.175778
0.186286 -0.046776 -1.338051 -0.908327 0.365353 0.203615
0.186671 -0.046173 -1.337551 -0.908830 0.364396 0.203083
0.186853 -0.045981 -1.337301 -0.910277 0.360947 0.202763
0.187114 -0.046337 -1.336389 -0.912165 0.347286 0.217594
0.188435 -0.043266 -1.335949 -0.913807 0.365239 0.177645
0.188651 -0.042288 -1.336434 -0.912501 0.377733 0.157035
0.188569 -0.042852 -1.336052 -0.914671 0.367286 0.168753
0.187419 -0.044090 -1.337516 -0.908426 0.380769 0.172558
0.187401 -0.044662 -1.337194 -0.910473 0.370192 0.184381
0.187880 -0.044941 -1.335841 -0.915429 0.348121 0.201996
0.187832 -0.045024 -1.335848 -0.914427 0.348832 0.205280
0.187957 -0.044022 -1.336497 -0.912393 0.366956 0.181336
0.187355 -0.046023 -1.336050 -0.913554 0.343841 0.217239
0.187572 -0.046218 -1.335403 -0.915367 0.332992 0.226319
0.188286 -0.044149 -1.335539 -0.915099 0.352620 0.195583
0.187963 -0.045314 -1.335269 -0.915817 0.337860 0.217093
0.188450 -0.044767 -1.334445 -0.918490 0.331000 0.216368
0.187837 -0.048354 -1.341462 -0.897246 0.398615 0.189886
0.187399 -0.048913 -1.341288 -0.897224 0.394081 0.199222
0.187396 -0.049535 -1.341272 -0.897105 0.389475 0.208595
0.187384 -0.049625 -1.341259 -0.898122 0.386996 0.208832
0.186826 -0.048465 -1.340790 -0.898811 0.390598 0.198929
0.186617 -0.048460 -1.340656 -0.899828 0.388133 0.199154
0.186799 -0.049369 -1.340953 -0.898122 0.386996 0.208832
0.186145 -0.049910 -1.340864 -0.898460 0.381297 0.217676
0.185982 -0.050008 -1.340832 -0.898882 0.378553 0.220701
0.185159 -0.048930 -1.340326 -0.900696 0.379777 0.210987
0.184776 -0.049172 -1.340094 -0.901005 0.375297 0.217585
0.188582 -0.050248 -1.341556 -0.896441 0.387532 0.214970
0.188778 -0.051094 -1.341384 -0.896961 0.377281 0.230479
0.187780 -0.050826 -1.341092 -0.896961 0.377281 0.230479
0.186657 -0.050121 -1.340942 -0.898318 0.379550 0.221282
0.188453 -0.051281 -1.341197 -0.896765 0.375493 0.234131
0.188970 -0.051436 -1.341353 -0.896765 0.375493 0.234131
0.187770 -0.051464 -1.341047 -0.897482 0.369898 0.240213
0.187619 -0.051053 -1.341059 -0.897340 0.374503 0.233514
0.187291 -0.052222 -1.341037 -0.896906 0.364968 0.249715
0.187212 -0.052694 -1.340965 -0.896224 0.359971 0.259238
0.185936 -0.050663 -1.340809 -0.898519 0.373772 0.230126
0.185773 -0.050741 -1.340775 -0.899501 0.371246 0.230378
0.184715 -0.050385 -1.340395 -0.899501 0.371246 0.230378
0.184813 -0.050628 -1.340422 -0.899866 0.368460 0.233407
0.185597 -0.051126 -1.340773 -0.898682 0.369180 0.236805
0.184512 -0.050780 -1.340169 -0.899586 0.365411 0.239205
0.186656 -0.051324 -1.340983 -0.897131 0.372700 0.237173
0.186192 -0.051549 -1.340936 -0.896843 0.369635 0.242987
0.185619 -0.052201 -1.340882 -0.897204 0.362133 0.252754
0.184853 -0.049381 -1.339268 -0.903086 0.363277 0.229054
0.185108 -0.049391 -1.338789 -0.904705 0.355159 0.235311
0.185837 -0.047523 -1.338645 -0.905251 0.369342 0.210018
0.185578 -0.048530 -1.338476 -0.905696 0.359080 0.225334
0.185100 -0.049665 -1.338400 -0.904666 0.349298 0.244070
0.185417 -0.051098 -1.336352 -0.907111 0.306278 0.288693
0.184525 -0.051211 -1.339309 -0.901991 0.348730 0.254559
0.184367 -0.051959 -1.339102 -0.900703 0.340528 0.269769
0.184578 -0.051395 -1.338913 -0.901764 0.342759 0.263321
0.184878 -0.051133 -1.338119 -0.903588 0.333520 0.268873
0.184852 -0.051429 -1.337959 -0.903901 0.327756 0.274845
0.188176 -0.052767 -1.340871 -0.896224 0.359971 0.259238
0.187628 -0.052884 -1.340903 -0.896483 0.357112 0.262277
0.188232 -0.051611 -1.341049 -0.897482 0.369898 0.240213
0.186483 -0.052969 -1.340866 -0.896483 0.357112 0.262277
0.188586 -0.053662 -1.340746 -0.895860 0.349133 0.274849
0.188015 -0.053387 -1.340788 -0.896239 0.351089 0.271094
0.184991 -0.052561 -1.340761 -0.896804 0.359017 0.258551
0.184581 -0.052594 -1.340615 -0.897063 0.356165 0.261582
0.186386 -0.053490 -1.340760 -0.895654 0.352023 0.271815
0.186938 -0.054197 -1.340600 -0.895472 0.343042 0.283640
0.188653 -0.054073 -1.340664 -0.895306 0.345948 0.280618
0.188573 -0.054986 -1.340558 -0.894501 0.334880 0.296182
0.188226 -0.054917 -1.340487 -0.894501 0.334880 0.296182
0.187663 -0.055247 -1.340356 -0.893196 0.332525 0.302702
0.186508 -0.055856 -1.340133 -0.893362 0.323639 0.311707
0.184049 -0.053035 -1.340303 -0.897745 0.347562 0.270655
0.183953 -0.052516 -1.340021 -0.898461 0.347839 0.267910
0.183420 -0.053062 -1.339806 -0.898123 0.341790 0.276687
0.183292 -0.053948 -1.339880 -0.897232 0.333681 0.289191
0.183222 -0.054533 -1.339857 -0.896858 0.328699 0.295978
0.183030 -0.053592 -1.339245 -0.898792 0.327237 0.291700
0.183492 -0.052822 -1.339101 -0.899893 0.332473 0.282232
0.183616 -0.053882 -1.338309 -0.899068 0.312526 0.306601
0.184035 -0.054332 -1.337830 -0.899044 0.303631 0.315480
0.183724 -0.054760 -1.338025 -0.897580 0.301171 0.321942
0.182734 -0.054820 -1.338715 -0.897096 0.310934 0.313909
0.182248 -0.055753 -1.338735 -0.895549 0.302490 0.326331
0.182292 -0.056513 -1.337974 -0.892600 0.287599 0.347205
0.183037 -0.055649 -1.337437 -0.895622 0.286659 0.340129
0.184097 -0.052062 -1.338257 -0.903494 0.325730 0.278565
0.184699 -0.051853 -1.337861 -0.903612 0.322824 0.281550
0.183864 -0.052765 -1.338114 -0.901636 0.320221 0.290708
0.184170 -0.053925 -1.337666 -0.899882 0.303914 0.312809
0.183778 -0.053690 -1.338135 -0.899882 0.312809 0.303914
0.184917 -0.051659 -1.337373 -0.904252 0.319061 0.283774
0.184671 -0.052405 -1.337210 -0.903966 0.308204 0.296406
0.185010 -0.052725 -1.335978 -0.903031 0.290207 0.316724
0.184003 -0.054516 -1.337405 -0.898879 0.294690 0.324307
0.183440 -0.055539 -1.337004 -0.896224 0.280906 0.343329
0.183486 -0.055796 -1.336085 -0.895783 0.265033 0.356833
0.184703 -0.053448 -1.335901 -0.902202 0.282030 0.326328
0.183003 -0.056018 -1.336908 -0.894928 0.274563 0.351738
0.186077 -0.047462 -1.338014 -0.907523 0.360404 0.215663
0.186298 -0.047438 -1.337464 -0.909186 0.352364 0.221859
0.186435 -0.048009 -1.336764 -0.910089 0.338199 0.239497
0.186577 -0.048001 -1.336442 -0.910343 0.335389 0.242468
0.186482 -0.048325 -1.336441 -0.911458 0.329985 0.245672
0.185633 -0.049127 -1.337512 -0.907794 0.339512 0.246255
0.185663 -0.049498 -1.337180 -0.907954 0.331893 0.255865
0.185934 -0.050524 -1.335722 -0.909199 0.303066 0.285497
0.186411 -0.048478 -1.336453 -0.910306 0.330623 0.249060
0.186120 -0.049812 -1.335818 -0.909495 0.310951 0.275914
0.186246 -0.050213 -1.335257 -0.909743 0.299354 0.287672
0.188275 -0.045393 -1.334334 -0.917427 0.325909 0.228280
0.187533 -0.047609 -1.334354 -0.915471 0.308050 0.258877
0.188023 -0.046558 -1.334008 -0.917594 0.309706 0.249205
0.187272 -0.046683 -1.335683 -0.913684 0.333430 0.232391
0.187528 -0.046535 -1.335239 -0.915283 0.327196 0.234947
0.186834 -0.048916 -1.335008 -0.912036 0.306921 0.272011
0.187072 -0.048847 -1.334409 -0.913470 0.297713 0.277381
0.187752 -0.048512 -1.333048 -0.915540 0.280031 0.288736
0.187393 -0.049503 -1.333125 -0.913408 0.274458 0.300597
0.185102 -0.052287 -1.336167 -0.904503 0.295618 0.307384
0.185518 -0.051518 -1.335835 -0.905862 0.298039 0.300975
0.185705 -0.051409 -1.335507 -0.907954 0.291895 0.300695
0.185834 -0.051182 -1.335385 -0.907954 0.291895 0.300695
0.186320 -0.050931 -1.334329 -0.909074 0.279602 0.308880
0.186730 -0.051317 -1.333122 -0.908659 0.258158 0.328167
0.186574 -0.051646 -1.333203 -0.907954 0.255865 0.331893
0.186135 -0.052049 -1.333937 -0.906239 0.264991 0.329408
0.186687 -0.050318 -1.334016 -0.911700 0.278615 0.301955
0.186764 -0.050455 -1.333735 -0.910816 0.275431 0.307492
0.186760 -0.052034 -1.332458 -0.906112 0.243673 0.345811
0.186831 -0.051987 -1.332312 -0.906753 0.240925 0.346055
0.187134 -0.052019 -1.331254 -0.906640 0.225568 0.356544
0.186386 -0.053126 -1.332374 -0.903432 0.232061 0.360497
0.185002 -0.053552 -1.335285 -0.902327 0.272317 0.334141
0.184493 -0.054675 -1.335331 -0.898810 0.264182 0.349783
0.184325 -0.055717 -1.334733 -0.895616 0.246405 0.370345
0.185370 -0.053195 -1.334825 -0.903588 0.268873 0.333520
0.185982 -0.053311 -1.333346 -0.903203 0.244465 0.352791
0.185013 -0.054463 -1.334372 -0.899297 0.251685 0.357658
0.186014 -0.053800 -1.332745 -0.901388 0.233042 0.364952
0.186299 -0.053052 -1.332710 -0.904079 0.238069 0.354913
0.189011 -0.042621 -1.335325 -0.916130 0.361071 0.174164
0.189083 -0.042866 -1.334863 -0.917522 0.353111 0.182937
0.189099 -0.043064 -1.334619 -0.918379 0.347763 0.188786
0.189292 -0.043039 -1.334126 -0.920071 0.339872 0.194822
0.188505 -0.045250 -1.333889 -0.918973 0.319705 0.230818
0.189773 -0.043068 -1.332765 -0.923356 0.320116 0.211988
0.189322 -0.043633 -1.333435 -0.921235 0.326063 0.212155
0.189765 -0.044148 -1.331669 -0.924682 0.294930 0.240788
0.189821 -0.044298 -1.331323 -0.924938 0.289310 0.246555
0.189865 -0.044288 -1.331032 -0.925043 0.286493 0.249434
0.190131 -0.043755 -1.330846 -0.926750 0.286139 0.243432
0.190275 -0.043595 -1.330479 -0.927255 0.282578 0.245659
0.190492 -0.043757 -1.329507 -0.927554 0.268465 0.259942
0.187758 -0.047815 -1.333595 -0.916653 0.293966 0.270796
0.188219 -0.047346 -1.332740 -0.917965 0.284786 0.276112
0.189325 -0.044609 -1.332536 -0.922730 0.304715 0.236047
0.188571 -0.045776 -1.333218 -0.919514 0.306505 0.246067
0.189011 -0.045537 -1.332254 -0.921583 0.293817 0.253686
0.187913 -0.048400 -1.332582 -0.916707 0.273709 0.291087
0.188131 -0.048390 -1.332000 -0.916500 0.264960 0.299708
0.187961 -0.049542 -1.331289 -0.914156 0.244837 0.323069
0.189448 -0.045392 -1.331073 -0.923789 0.276421 0.264963
0.188911 -0.046384 -1.331678 -0.921515 0.277461 0.271710
0.189684 -0.045519 -1.330069 -0.924170 0.261396 0.278536
0.189350 -0.045801 -1.330929 -0.922675 0.271206 0.274076
0.189246 -0.047529 -1.329620 -0.920237 0.236879 0.311531
0.189191 -0.046692 -1.330501 -0.921248 0.257260 0.291753
0.188402 -0.047865 -1.331747 -0.917827 0.267398 0.293415
0.188844 -0.047311 -1.331001 -0.919346 0.260410 0.294939
0.188629 -0.048412 -1.330528 -0.917244 0.243350 0.315348
0.189370 -0.047078 -1.329620 -0.921038 0.242077 0.305103
0.188425 -0.048580 -1.330973 -0.916312 0.249641 0.313133
0.187582 -0.049763 -1.332361 -0.912869 0.259783 0.314933
0.187206 -0.051415 -1.331839 -0.909319 0.237150 0.341904
0.187769 -0.050226 -1.331178 -0.911473 0.239099 0.334738
0.187704 -0.051171 -1.330318 -0.908834 0.218874 0.355127
0.187445 -0.051226 -1.331133 -0.909239 0.230573 0.346584
0.186718 -0.052602 -1.331872 -0.904572 0.228692 0.359790
0.187241 -0.052115 -1.330850 -0.905536 0.216573 0.364831
0.187765 -0.053266 -1.329528 -0.900414 0.189333 0.391673
0.189003 -0.048523 -1.329350 -0.916704 0.225938 0.329553
0.188488 -0.049261 -1.330088 -0.914766 0.229052 0.332773
0.188270 -0.049824 -1.330009 -0.912818 0.223518 0.341766
0.188148 -0.050670 -1.329613 -0.910032 0.212004 0.356225
0.188746 -0.049110 -1.329474 -0.915078 0.223365 0.335769
0.188969 -0.049080 -1.328813 -0.915151 0.211189 0.343361
0.188570 -0.050548 -1.328673 -0.910375 0.197032 0.363862
0.188010 -0.052089 -1.329070 -0.904015 0.191761 0.382080
0.188535 -0.051820 -1.328555 -0.904525 0.185507 0.383956
0.188830 -0.052497 -1.328509 -0.901917 0.179808 0.392701
0.189877 -0.044567 -1.330401 -0.925314 0.275170 0.260913
0.190172 -0.044879 -1.329196 -0.926284 0.251847 0.280304
0.189758 -0.045443 -1.329891 -0.924857 0.258731 0.278744
0.190220 -0.044535 -1.329380 -0.927126 0.257772 0.272014
0.190308 -0.044829 -1.328887 -0.926202 0.248979 0.283125
0.190268 -0.045502 -1.328385 -0.925156 0.235209 0.297932
0.189492 -0.047250 -1.329108 -0.920472 0.233339 0.313504
0.189765 -0.047600 -1.328194 -0.918936 0.215800 0.330131
0.190358 -0.046788 -1.326904 -0.921145 0.203592 0.331726
0.190107 -0.047107 -1.327536 -0.920494 0.209787 0.329665
0.190858 -0.043903 -1.328451 -0.928538 0.250918 0.273600
0.190598 -0.045115 -1.327851 -0.926179 0.231901 0.297345
0.190956 -0.044566 -1.327180 -0.927398 0.225124 0.298750
0.190983 -0.044933 -1.326700 -0.927317 0.213778 0.307218
0.190459 -0.046663 -1.326695 -0.921233 0.200145 0.333574
0.190042 -0.047847 -1.327026 -0.917836 0.194951 0.345790
0.191068 -0.045588 -1.325841 -0.924322 0.196755 0.326981
0.190745 -0.046640 -1.325745 -0.920643 0.185260 0.343650
0.189709 -0.048409 -1.327611 -0.916415 0.198723 0.347408
0.189573 -0.049277 -1.327192 -0.912385 0.187046 0.364097
0.189564 -0.049806 -1.326830 -0.910427 0.175247 0.374714
0.189182 -0.050111 -1.327564 -0.909982 0.184863 0.371158
0.189493 -0.051033 -1.327253 -0.905422 0.173074 0.387629
0.190409 -0.051936 -1.326876 -0.901941 0.158662 0.401657
0.190136 -0.052594 -1.327549 -0.900571 0.164651 0.402322
0.190259 -0.050918 -1.326403 -0.904633 0.160982 0.394619
0.189093 -0.051253 -1.327745 -0.904994 0.179278 0.385806
0.189149 -0.050454 -1.327519 -0.908513 0.181703 0.376282
0.190226 -0.048253 -1.325787 -0.914730 0.174437 0.364474
0.190655 -0.048867 -1.325128 -0.911524 0.156867 0.380155
0.190850 -0.050488 -1.325667 -0.905338 0.152074 0.396530
0.190422 -0.050114 -1.325842 -0.908078 0.157741 0.387958
0.190723 -0.050995 -1.325987 -0.903797 0.152293 0.399948
0.190986 -0.049247 -1.324983 -0.909861 0.151408 0.386302
0.191921 -0.049853 -1.324605 -0.906472 0.142829 0.397377
0.191602 -0.050333 -1.325048 -0.904570 0.145807 0.400616
0.189569 -0.057192 -1.339874 -0.890341 0.309749 0.333691
0.189732 -0.057660 -1.338848 -0.890444 0.288833 0.351688
0.190013 -0.056972 -1.338787 -0.892279 0.294437 0.342264
0.190638 -0.055733 -1.338484 -0.895477 0.299486 0.329285
0.190258 -0.056323 -1.338960 -0.893196 0.302702 0.332525
0.190384 -0.057610 -1.336971 -0.890830 0.263233 0.370311
0.190502 -0.056831 -1.337471 -0.892791 0.275737 0.356222
0.190808 -0.056010 -1.337453 -0.894881 0.284397 0.343956
0.191188 -0.055267 -1.337357 -0.897999 0.286469 0.333966
0.191116 -0.056514 -1.336351 -0.893983 0.262413 0.363227
0.191199 -0.057761 -1.335830 -0.889870 0.245123 0.384768
0.190966 -0.058162 -1.335683 -0.888068 0.238696 0.392885
0.192125 -0.054632 -1.335611 -0.899029 0.267199 0.346916
0.191920 -0.055494 -1.335631 -0.897063 0.261582 0.356165
0.191884 -0.055688 -1.335520 -0.895265 0.258961 0.362545
0.191884 -0.056122 -1.334176 -0.894185 0.234226 0.381538
0.191193 -0.057431 -1.335359 -0.890111 0.241411 0.386554
0.191326 -0.057353 -1.334078 -0.889219 0.222673 0.399632
0.191346 -0.057499 -1.333755 -0.888261 0.216541 0.405094
0.192349 -0.054651 -1.334113 -0.898705 0.245636 0.363306
0.192014 -0.056123 -1.333046 -0.894256 0.215855 0.392063
0.191984 -0.056284 -1.332797 -0.892748 0.212559 0.397265
0.192906 -0.053399 -1.333583 -0.902942 0.248125 0.350899
0.192756 -0.053690 -1.333896 -0.902281 0.250878 0.350642
0.192601 -0.054606 -1.332644 -0.898727 0.224315 0.376791
0.192488 -0.054727 -1.333112 -0.898519 0.230126 0.373772
0.192271 -0.055429 -1.333129 -0.896158 0.224406 0.382810
0.192313 -0.056231 -1.331925 -0.891760 0.200609 0.405611
0.191545 -0.057241 -1.333323 -0.889996 0.210363 0.404543
0.191694 -0.056960 -1.332748 -0.890092 0.206759 0.406187
0.191172 -0.058155 -1.333068 -0.885613 0.201209 0.418574
0.191232 -0.058503 -1.332223 -0.882610 0.185890 0.431791
0.191743 -0.057135 -1.332083 -0.887895 0.194547 0.416886
0.191324 -0.058450 -1.331724 -0.881772 0.176939 0.437230
0.191866 -0.057150 -1.331455 -0.887197 0.185624 0.422405
0.191992 -0.056903 -1.331466 -0.888421 0.188188 0.418681
0.191597 -0.057585 -1.331805 -0.886099 0.185395 0.424802
0.193299 -0.053802 -1.331022 -0.900788 0.205188 0.382726
0.193047 -0.053991 -1.331760 -0.900582 0.214563 0.378040
0.192507 -0.055889 -1.331417 -0.892327 0.194238 0.407462
0.192703 -0.055173 -1.331419 -0.895041 0.200034 0.398607
0.192898 -0.055206 -1.330567 -0.894497 0.187626 0.405796
0.191563 -0.057769 -1.330859 -0.883954 0.170383 0.435424
0.192478 -0.056100 -1.330578 -0.890594 0.181606 0.416967
0.192770 -0.055619 -1.330283 -0.892731 0.178546 0.413705
0.193520 -0.053900 -1.329983 -0.898280 0.190105 0.396172
0.193893 -0.052875 -1.330166 -0.902407 0.201340 0.380952
0.194008 -0.053648 -1.328551 -0.897003 0.171338 0.407467
0.193283 -0.054603 -1.329822 -0.895554 0.180847 0.406544
0.192934 -0.055474 -1.329805 -0.891036 0.175309 0.418714
0.192308 -0.055945 -1.329155 -0.888829 0.160423 0.429240
0.191653 -0.055748 -1.328821 -0.888740 0.157006 0.430686
0.193438 -0.054887 -1.328848 -0.892881 0.162998 0.419755
0.193144 -0.055710 -1.328436 -0.888423 0.151190 0.433412
0.193790 -0.054752 -1.327710 -0.891106 0.147800 0.429051
0.191970 -0.055733 -1.328481 -0.888423 0.151190 0.433412
0.194289 -0.053272 -1.327970 -0.897378 0.165118 0.409205
0.193985 -0.054466 -1.327160 -0.891337 0.141641 0.430646
0.194550 -0.052949 -1.327427 -0.898769 0.159112 0.408531
0.194570 -0.053235 -1.326876 -0.896092 0.147205 0.418748
0.194490 -0.053598 -1.326590 -0.893591 0.141093 0.426130
0.194489 -0.053846 -1.326220 -0.892454 0.132374 0.431281
0.193692 -0.055219 -1.327240 -0.887778 0.138671 0.438885
0.191877 -0.054181 -1.326369 -0.890770 0.132547 0.434696
0.192930 -0.055053 -1.326638 -0.886561 0.129915 0.443995
0.193265 -0.055224 -1.326784 -0.886561 0.129915 0.443995
0.193340 -0.054965 -1.326217 -0.886688 0.123823 0.445479
0.192530 -0.054303 -1.325939 -0.888097 0.126465 0.441917
0.195440 -0.051843 -1.325862 -0.900243 0.143641 0.411011
0.194481 -0.053629 -1.325639 -0.890910 0.126461 0.436219
0.195711 -0.051952 -1.324984 -0.897951 0.131511 0.419987
0.195438 -0.052221 -1.324589 -0.895697 0.122718 0.427396
0.194222 -0.053695 -1.325448 -0.890707 0.123198 0.437565
0.192300 -0.053606 -1.325616 -0.891494 0.126141 0.435117
0.193148 -0.053825 -1.325219 -0.889097 0.117321 0.442428
0.194294 -0.052080 -1.324379 -0.896004 0.119938 0.427542
0.194065 -0.054107 -1.325505 -0.888203 0.120410 0.443393
0.189204 -0.058771 -1.339004 -0.886893 0.283626 0.364661
0.189147 -0.059413 -1.338219 -0.885315 0.265145 0.381989
0.188866 -0.060327 -1.337901 -0.882248 0.253141 0.396937
0.189719 -0.057960 -1.338458 -0.889123 0.282427 0.360132
0.189988 -0.058466 -1.336911 -0.887649 0.255106 0.383405
0.185775 -0.060332 -1.338466 -0.882287 0.262140 0.390963
0.189384 -0.059532 -1.337389 -0.884603 0.252104 0.392328
0.189903 -0.059127 -1.336429 -0.885124 0.242479 0.397190
0.190373 -0.058673 -1.335801 -0.887024 0.236243 0.396709
0.182303 -0.057360 -1.338280 -0.890887 0.285024 0.353669
0.182311 -0.057376 -1.338046 -0.891443 0.279229 0.356876
0.182643 -0.057936 -1.338320 -0.889870 0.279674 0.360435
0.182471 -0.057678 -1.337549 -0.890752 0.270061 0.365552
0.182973 -0.058331 -1.337952 -0.888171 0.270183 0.371689
0.183102 -0.057985 -1.336553 -0.888280 0.254432 0.382392
0.183155 -0.058093 -1.336725 -0.889288 0.254721 0.379847
0.184978 -0.059547 -1.338037 -0.884997 0.262055 0.384847
0.184345 -0.059147 -1.337630 -0.886332 0.258576 0.384127
0.184849 -0.059321 -1.337522 -0.885992 0.255488 0.386968
0.183708 -0.058843 -1.337637 -0.886657 0.261661 0.381278
0.185848 -0.060400 -1.337750 -0.881860 0.250035 0.399757
0.184837 -0.059209 -1.336818 -0.884879 0.246214 0.395435
0.184726 -0.059105 -1.336310 -0.885759 0.239676 0.397475
0.185268 -0.059440 -1.336501 -0.884060 0.240023 0.401032
0.185807 -0.060049 -1.336699 -0.881902 0.237263 0.407376
0.185535 -0.059693 -1.336457 -0.883628 0.236926 0.403817
0.183513 -0.055853 -1.335806 -0.896224 0.259238 0.359971
0.184074 -0.056321 -1.334816 -0.894341 0.240955 0.376954
0.184049 -0.057493 -1.334312 -0.889676 0.225739 0.396887
0.184184 -0.058732 -1.335658 -0.886593 0.233158 0.399487
0.185450 -0.059476 -1.335669 -0.883974 0.227308 0.408560
0.185262 -0.059164 -1.334659 -0.883698 0.214634 0.415945
0.185456 -0.059408 -1.335082 -0.882993 0.221119 0.414042
0.185727 -0.059412 -1.334361 -0.882616 0.208457 0.421349
0.184946 -0.059014 -1.334655 -0.884217 0.217722 0.413227
0.188336 -0.061135 -1.338490 -0.879852 0.256311 0.400205
0.188224 -0.061482 -1.338110 -0.877960 0.247630 0.409715
0.188528 -0.060741 -1.338398 -0.880906 0.256618 0.397683
0.188992 -0.060405 -1.337448 -0.881457 0.246928 0.402567
0.187526 -0.061586 -1.338240 -0.877960 0.247630 0.409715
0.187845 -0.061622 -1.338062 -0.877525 0.244507 0.412512
0.186284 -0.060817 -1.337279 -0.879529 0.240415 0.410646
0.186015 -0.060303 -1.336549 -0.881447 0.234158 0.410149
0.187138 -0.061426 -1.337029 -0.877435 0.231691 0.420033
0.187770 -0.061678 -1.336153 -0.874781 0.216087 0.433665
0.189336 -0.060379 -1.336518 -0.880366 0.233871 0.412625
0.189905 -0.059590 -1.336087 -0.883181 0.233827 0.406591
0.189765 -0.060267 -1.335907 -0.880661 0.224249 0.417311
0.189489 -0.060882 -1.336007 -0.878373 0.221451 0.423581
0.189119 -0.061123 -1.336383 -0.877107 0.224861 0.424407
0.190050 -0.060026 -1.335499 -0.881244 0.221426 0.417588
0.189785 -0.060513 -1.335716 -0.878373 0.221451 0.423581
0.186182 -0.060416 -1.335625 -0.879622 0.218051 0.422752
0.186470 -0.060798 -1.335695 -0.877838 0.218345 0.426293
0.187769 -0.061679 -1.335142 -0.873104 0.203082 0.443223
0.186859 -0.061218 -1.335458 -0.876146 0.209030 0.434367
0.186780 -0.060970 -1.333921 -0.874237 0.190180 0.446701
0.188036 -0.061776 -1.334567 -0.873043 0.193517 0.447601
0.186083 -0.060222 -1.335118 -0.879080 0.214952 0.425457
0.186401 -0.060923 -1.334907 -0.876686 0.206192 0.434634
0.186125 -0.060282 -1.334952 -0.878524 0.211853 0.428151
0.186328 -0.057574 -1.332170 -0.886686 0.191993 0.420626
0.186717 -0.056761 -1.331719 -0.889011 0.191232 0.416040
0.188003 -0.058530 -1.331846 -0.881312 0.179770 0.437002
0.187114 -0.057915 -1.332043 -0.885470 0.185875 0.425904
0.188121 -0.057323 -1.331195 -0.885941 0.179523 0.427645
0.188118 -0.057085 -1.331112 -0.887666 0.179282 0.424155
0.187505 -0.056824 -1.331481 -0.888421 0.188188 0.418681
0.188158 -0.057776 -1.331409 -0.884833 0.179299 0.430026
0.188860 -0.057357 -1.330750 -0.885261 0.172982 0.431728
0.184057 -0.057267 -1.334405 -0.890118 0.228803 0.394132
0.184386 -0.056841 -1.333941 -0.891324 0.225409 0.393361
0.185404 -0.055210 -1.332841 -0.896744 0.221618 0.383061
0.185319 -0.054544 -1.333650 -0.899586 0.239205 0.365411
0.185254 -0.055485 -1.332934 -0.895734 0.221368 0.385561
0.184727 -0.056216 -1.333505 -0.893541 0.222281 0.390096
0.184096 -0.057876 -1.334223 -0.888126 0.220184 0.403425
0.185690 -0.059190 -1.334177 -0.882616 0.208457 0.421349
0.185996 -0.058512 -1.332980 -0.883813 0.195586 0.424995
0.184834 -0.057414 -1.333232 -0.888934 0.210112 0.407000
0.185425 -0.055646 -1.332527 -0.895403 0.212493 0.391281
0.185912 -0.056805 -1.332166 -0.889541 0.197839 0.411797
0.185952 -0.054698 -1.331944 -0.897571 0.211622 0.386758
0.185757 -0.057110 -1.332340 -0.888465 0.197599 0.414227
0.186214 -0.057432 -1.332165 -0.886686 0.191993 0.420626
0.190532 -0.059589 -1.333797 -0.880885 0.199195 0.429376
0.190780 -0.059365 -1.333048 -0.880819 0.189692 0.433792
0.190326 -0.060582 -1.332938 -0.874513 0.177842 0.451219
0.188931 -0.061272 -1.333091 -0.871935 0.174975 0.457288
0.188596 -0.061144 -1.333115 -0.871483 0.177824 0.457051
0.187799 -0.059674 -1.332333 -0.878179 0.177395 0.444221
0.188579 -0.060445 -1.332602 -0.874496 0.174313 0.452628
0.187313 -0.060372 -1.333000 -0.875895 0.180461 0.447484
0.190070 -0.061216 -1.333498 -0.873356 0.181151 0.452142
0.189003 -0.061638 -1.333498 -0.870774 0.178280 0.458224
0.190951 -0.059363 -1.332015 -0.879299 0.174104 0.443307
0.190226 -0.059649 -1.331901 -0.876778 0.171257 0.449367
0.189979 -0.059675 -1.331815 -0.876735 0.167761 0.450767
0.189806 -0.059810 -1.331803 -0.876058 0.168191 0.451923
0.189384 -0.060282 -1.331986 -0.874898 0.167969 0.454246
0.191203 -0.058600 -1.331402 -0.880403 0.170824 0.442391
0.189329 -0.058567 -1.331281 -0.881057 0.170386 0.441257
0.190209 -0.058932 -1.331301 -0.878554 0.167552 0.447290
0.188363 -0.059198 -1.331861 -0.879299 0.174104 0.443307
0.189056 -0.059743 -1.331848 -0.876058 0.168191 0.451923
0.189255 -0.055048 -1.329353 -0.892078 0.172054 0.417845
0.186773 -0.054587 -1.330706 -0.897217 0.193403 0.396986
0.187150 -0.055291 -1.330753 -0.894006 0.190431 0.405573
0.187766 -0.054019 -1.329902 -0.897736 0.187089 0.398833
0.188512 -0.054384 -1.329569 -0.896019 0.178046 0.406755
0.187041 -0.053723 -1.330450 -0.899828 0.199154 0.388133
0.188801 -0.054630 -1.329480 -0.895419 0.175033 0.409376
0.190353 -0.057607 -1.330425 -0.884328 0.164087 0.437081
0.189133 -0.057770 -1.330908 -0.883954 0.170383 0.435424
0.189856 -0.057470 -1.330526 -0.885022 0.167122 0.434518
0.189989 -0.057237 -1.330343 -0.885022 0.167122 0.434518
0.189444 -0.055601 -1.329512 -0.890841 0.169477 0.421520
0.189826 -0.055929 -1.329551 -0.889090 0.166253 0.426474
0.189853 -0.055466 -1.329225 -0.890783 0.166029 0.423014
0.190890 -0.056730 -1.329656 -0.885374 0.160845 0.436166
0.189049 -0.056782 -1.330401 -0.886992 0.172753 0.428253
0.189118 -0.056244 -1.330078 -0.888705 0.172522 0.424781
0.189540 -0.053969 -1.328447 -0.895756 0.165348 0.412652
0.189662 -0.053607 -1.328187 -0.896817 0.165544 0.410261
0.190066 -0.052840 -1.327707 -0.898983 0.164885 0.405761
0.190921 -0.054672 -1.327731 -0.890725 0.150606 0.428867
0.188832 -0.053447 -1.328843 -0.898195 0.177332 0.402242
0.190159 -0.055120 -1.328685 -0.891125 0.159798 0.424688
0.191457 -0.054653 -1.327248 -0.890237 0.141466 0.432972
0.190729 -0.058847 -1.331276 -0.879698 0.167770 0.444955
0.190640 -0.052874 -1.326657 -0.897719 0.147003 0.415320
0.190441 -0.053873 -1.327307 -0.894067 0.150203 0.422000
0.190916 -0.054288 -1.327049 -0.891337 0.141641 0.430646
0.190723 -0.053448 -1.326616 -0.894675 0.141264 0.423793
0.190852 -0.052619 -1.326316 -0.897580 0.143670 0.416784
0.192109 -0.053359 -1.325600 -0.892269 0.129088 0.432658
0.191326 -0.053240 -1.325889 -0.894120 0.132199 0.427870
0.191352 -0.053372 -1.325951 -0.893031 0.132038 0.430188
0.191698 -0.052331 -1.325377 -0.897401 0.131846 0.421056
0.200163 -0.034085 -1.330357 -0.928717 0.356573 0.101684
0.200338 -0.034666 -1.330174 -0.930306 0.349034 0.112723
0.199231 -0.033861 -1.329820 -0.930608 0.350841 0.104304
0.199379 -0.034553 -1.329611 -0.932344 0.341633 0.118414
0.199176 -0.034692 -1.329432 -0.932593 0.339001 0.123892
0.200186 -0.034731 -1.330060 -0.930896 0.346538 0.115513
0.199654 -0.035514 -1.329438 -0.933483 0.332118 0.135307
0.199593 -0.036467 -1.329515 -0.933479 0.325824 0.149852
0.199378 -0.036748 -1.329367 -0.934355 0.320626 0.155497
0.199803 -0.036042 -1.329625 -0.933270 0.330276 0.141155
0.200183 -0.037787 -1.329480 -0.934009 0.314104 0.170197
0.199443 -0.037912 -1.329175 -0.934725 0.308805 0.175867
0.199781 -0.038367 -1.329194 -0.934244 0.306787 0.181851
0.200471 -0.041236 -1.324905 -0.936199 0.219051 0.274860
0.199018 -0.035030 -1.329268 -0.933659 0.333937 0.129486
0.197580 -0.033802 -1.328728 -0.935100 0.334254 0.117733
0.198400 -0.035468 -1.328959 -0.934461 0.326993 0.140922
0.197115 -0.034183 -1.328212 -0.936858 0.324977 0.129175
0.194826 -0.034450 -1.328332 -0.936526 0.324862 0.131848
0.195479 -0.033773 -1.327940 -0.937514 0.324263 0.126178
0.197007 -0.035747 -1.328097 -0.937808 0.310777 0.154704
0.198461 -0.036453 -1.328952 -0.935177 0.318153 0.155633
0.197812 -0.036341 -1.328638 -0.935932 0.314726 0.158050
0.198325 -0.036847 -1.328841 -0.935568 0.312775 0.163966
0.199158 -0.036989 -1.329229 -0.934012 0.318695 0.161417
0.198312 -0.037747 -1.328799 -0.935521 0.306297 0.176017
0.197631 -0.037629 -1.328369 -0.936511 0.300181 0.181215
0.197339 -0.037863 -1.328175 -0.937099 0.294833 0.186866
0.196384 -0.035798 -1.327313 -0.939302 0.300302 0.165921
0.195978 -0.036859 -1.327026 -0.940815 0.285137 0.183204
0.197223 -0.036807 -1.328121 -0.938217 0.301717 0.169458
0.197067 -0.037516 -1.328029 -0.936812 0.297510 0.184041
0.196246 -0.037382 -1.327386 -0.938459 0.288863 0.189350
0.195685 -0.034245 -1.327396 -0.939870 0.311476 0.140096
0.195701 -0.034460 -1.327258 -0.939932 0.308777 0.145547
0.196119 -0.034676 -1.327261 -0.940027 0.306975 0.148713
0.195660 -0.034979 -1.326962 -0.940412 0.301642 0.156963
0.195651 -0.036548 -1.326674 -0.941130 0.284400 0.182730
0.194285 -0.034711 -1.329366 -0.933451 0.336588 0.124006
0.194399 -0.035735 -1.327912 -0.938202 0.308169 0.157508
0.194514 -0.035700 -1.327681 -0.938992 0.305686 0.157641
0.193454 -0.037142 -1.328894 -0.935602 0.310946 0.167220
0.193880 -0.036589 -1.328406 -0.936710 0.309486 0.163684
0.193584 -0.037867 -1.327693 -0.937631 0.289461 0.192512
0.194148 -0.036811 -1.327513 -0.939180 0.293752 0.177906
0.194093 -0.038149 -1.326333 -0.940762 0.264633 0.211983
0.197289 -0.038744 -1.327793 -0.937123 0.282669 0.204691
0.197575 -0.039180 -1.327394 -0.937109 0.274310 0.215827
0.196605 -0.038632 -1.327299 -0.938381 0.276649 0.207139
0.196233 -0.037772 -1.327355 -0.938947 0.283482 0.194980
0.197185 -0.039122 -1.327126 -0.937960 0.268984 0.218811
0.196841 -0.038878 -1.327242 -0.938004 0.273758 0.212614
0.196372 -0.038680 -1.326696 -0.939189 0.267745 0.215028
0.197301 -0.039592 -1.326498 -0.938434 0.255176 0.232866
0.199496 -0.041762 -1.327297 -0.933912 0.251384 0.254193
0.199025 -0.040571 -1.326686 -0.936579 0.250594 0.244994
0.198621 -0.040125 -1.327571 -0.936227 0.267293 0.228109
0.198837 -0.040385 -1.327252 -0.935787 0.261573 0.236395
0.198251 -0.040188 -1.326794 -0.936863 0.255508 0.238753
0.198497 -0.040463 -1.326446 -0.937573 0.247318 0.244523
0.199598 -0.040977 -1.327352 -0.935541 0.256678 0.242652
0.199312 -0.040658 -1.326319 -0.936579 0.244994 0.250594
0.196700 -0.039260 -1.325936 -0.938817 0.251742 0.235052
0.196564 -0.039272 -1.325751 -0.939471 0.249134 0.235216
0.196001 -0.039301 -1.325054 -0.939826 0.237386 0.245715
0.199704 -0.040971 -1.326136 -0.936520 0.239380 0.256178
0.199679 -0.041132 -1.325351 -0.936462 0.224695 0.269355
0.198935 -0.041039 -1.324632 -0.936768 0.216392 0.275027
0.198451 -0.040608 -1.325814 -0.936863 0.238753 0.255508
0.198937 -0.041115 -1.324425 -0.936607 0.213563 0.277772
0.196672 -0.039439 -1.325570 -0.939515 0.243578 0.240794
0.197743 -0.040332 -1.325470 -0.937822 0.235501 0.255009
0.197826 -0.040458 -1.324868 -0.938193 0.224442 0.263475
0.197238 -0.040152 -1.324556 -0.939107 0.221212 0.262950
0.196380 -0.039738 -1.324189 -0.939435 0.220635 0.262265
0.198027 -0.040774 -1.324422 -0.937109 0.215827 0.274310
0.193881 -0.038535 -1.326318 -0.940007 0.262424 0.217993
0.193410 -0.039489 -1.326434 -0.937763 0.257780 0.232699
0.193587 -0.039357 -1.326115 -0.939427 0.251906 0.232421
0.192496 -0.040551 -1.327581 -0.935364 0.265043 0.234192
0.193126 -0.039631 -1.326916 -0.937603 0.263309 0.227087
0.192684 -0.040612 -1.326980 -0.935890 0.256006 0.242016
0.192161 -0.042268 -1.326252 -0.933500 0.231620 0.273733
0.192746 -0.040986 -1.326262 -0.935890 0.242016 0.256006
0.193359 -0.040041 -1.325990 -0.938551 0.244051 0.244051
0.192868 -0.041158 -1.325661 -0.936322 0.230931 0.264521
0.194219 -0.038667 -1.325579 -0.940675 0.250754 0.228588
0.194405 -0.038535 -1.325596 -0.941268 0.250912 0.225960
0.194196 -0.038772 -1.325466 -0.940726 0.247997 0.231371
0.194157 -0.039269 -1.324855 -0.940442 0.234763 0.245876
0.195598 -0.039157 -1.325051 -0.940464 0.237547 0.243104
0.194370 -0.039246 -1.324404 -0.940675 0.228588 0.250754
0.195011 -0.039397 -1.323303 -0.940935 0.208636 0.266667
0.193794 -0.040057 -1.324759 -0.938621 0.226659 0.260033
0.194410 -0.039421 -1.323958 -0.940437 0.220220 0.259001
0.193175 -0.040806 -1.325314 -0.937265 0.227681 0.263999
0.192763 -0.042096 -1.324866 -0.934248 0.211501 0.287138
0.193757 -0.040944 -1.323595 -0.937251 0.201336 0.284647
0.193471 -0.041618 -1.323605 -0.934570 0.196385 0.296667
0.197561 -0.041093 -1.323524 -0.936687 0.199029 0.288104
0.196549 -0.040606 -1.322411 -0.937580 0.184192 0.294985
0.195521 -0.039520 -1.323463 -0.940069 0.211827 0.267207
0.196165 -0.040201 -1.322635 -0.938710 0.192166 0.286175
0.195069 -0.039817 -1.322429 -0.939773 0.191819 0.282898
0.196045 -0.040636 -1.321599 -0.937442 0.172578 0.302356
0.195353 -0.040150 -1.321945 -0.938716 0.180575 0.293607
0.195549 -0.040381 -1.321577 -0.938103 0.174947 0.298926
0.194672 -0.040377 -1.322035 -0.938387 0.181044 0.294369
0.198494 -0.043543 -1.327302 -0.930321 0.235757 0.280931
0.198279 -0.044430 -1.326675 -0.928171 0.218975 0.300914
0.198976 -0.042669 -1.327173 -0.932334 0.241194 0.269404
0.199123 -0.042784 -1.326685 -0.932045 0.232659 0.277780
0.198050 -0.045676 -1.325699 -0.923974 0.193851 0.329688
0.198564 -0.044788 -1.325512 -0.926309 0.198797 0.320049
0.198291 -0.045126 -1.325803 -0.925907 0.199317 0.320887
0.198886 -0.044692 -1.324782 -0.927038 0.187096 0.324956
0.197968 -0.045040 -1.326927 -0.926351 0.217047 0.307838
0.198088 -0.044889 -1.326720 -0.926752 0.216478 0.307031
0.197741 -0.045981 -1.326288 -0.923388 0.199996 0.327654
0.197393 -0.046713 -1.326437 -0.920877 0.197229 0.336283
0.197931 -0.045981 -1.325685 -0.922741 0.190766 0.334900
0.198126 -0.045798 -1.325362 -0.923235 0.188040 0.335079
0.200111 -0.041710 -1.325909 -0.935173 0.228536 0.270597
0.199819 -0.042108 -1.325860 -0.933979 0.226121 0.276682
0.200118 -0.041808 -1.325500 -0.934923 0.222868 0.276132
0.200032 -0.041878 -1.325676 -0.934336 0.225529 0.275958
0.199399 -0.042990 -1.325718 -0.932207 0.215125 0.291051
0.199851 -0.042851 -1.324648 -0.932193 0.200457 0.301386
0.200142 -0.041579 -1.324378 -0.935500 0.207734 0.285808
0.199926 -0.043187 -1.323993 -0.930206 0.188839 0.314732
0.199181 -0.044315 -1.324447 -0.927432 0.186609 0.324110
0.198965 -0.045062 -1.324047 -0.925063 0.172660 0.338301
0.199937 -0.043329 -1.323740 -0.930352 0.183272 0.317579
0.199641 -0.043905 -1.323762 -0.928398 0.177838 0.326269
0.199325 -0.044648 -1.323606 -0.925909 0.169493 0.337586
0.198951 -0.045338 -1.323723 -0.923282 0.166723 0.346055
0.198509 -0.045946 -1.324190 -0.921542 0.167425 0.350327
0.192122 -0.042849 -1.325582 -0.932207 0.215125 0.291051
0.191668 -0.044076 -1.325578 -0.928937 0.204394 0.308706
0.191492 -0.044636 -1.325541 -0.927142 0.198976 0.317515
0.191829 -0.044964 -1.324249 -0.925026 0.178268 0.335480
0.192648 -0.042795 -1.324353 -0.932289 0.197081 0.303308
0.192548 -0.043155 -1.324252 -0.931337 0.191869 0.309512
0.192455 -0.044228 -1.323316 -0.926307 0.169055 0.336712
0.193465 -0.042086 -1.323009 -0.933889 0.182324 0.307585
0.192824 -0.043824 -1.322618 -0.927106 0.160327 0.338777
0.192082 -0.044391 -1.324196 -0.926688 0.180851 0.329458
0.192416 -0.044591 -1.323044 -0.924944 0.160435 0.344587
0.193015 -0.043998 -1.321959 -0.926443 0.148620 0.345854
0.192256 -0.045573 -1.322576 -0.920633 0.146687 0.361827
0.192357 -0.045198 -1.322570 -0.922520 0.149334 0.355889
0.193007 -0.045210 -1.321241 -0.919852 0.129029 0.370438
0.196885 -0.048410 -1.325574 -0.913716 0.168577 0.369736
0.197654 -0.046955 -1.325144 -0.918880 0.173613 0.354284
0.197199 -0.047932 -1.325269 -0.915133 0.168316 0.366336
0.196963 -0.048542 -1.325169 -0.913064 0.159963 0.375135
0.196678 -0.049351 -1.325062 -0.909468 0.154171 0.386135
0.197557 -0.048073 -1.323965 -0.912667 0.147658 0.381098
0.197335 -0.048756 -1.323709 -0.909682 0.136382 0.392274
0.197862 -0.047631 -1.323679 -0.914482 0.144688 0.377873
0.197968 -0.047761 -1.323200 -0.912274 0.138733 0.385369
0.198646 -0.047094 -1.322269 -0.913250 0.129668 0.386214
0.197493 -0.049242 -1.322733 -0.904490 0.118828 0.409607
0.198355 -0.048138 -1.321772 -0.907600 0.112581 0.404459
0.198274 -0.048347 -1.321547 -0.906103 0.106845 0.409342
0.197880 -0.048339 -1.321219 -0.905594 0.101238 0.411886
0.196559 -0.049907 -1.324710 -0.906472 0.142829 0.397377
0.196331 -0.050360 -1.324766 -0.904273 0.140099 0.403314
0.196817 -0.050280 -1.322971 -0.900900 0.113488 0.418926
0.194116 -0.049652 -1.323459 -0.905432 0.124936 0.405690
0.195194 -0.048280 -1.322260 -0.908563 0.118630 0.400549
0.195233 -0.046457 -1.321518 -0.914809 0.123548 0.384525
0.192281 -0.047161 -1.322468 -0.913897 0.132550 0.383697
0.192779 -0.047223 -1.322033 -0.912909 0.124044 0.388857
0.194151 -0.047899 -1.321914 -0.909345 0.115583 0.399666
0.194294 -0.046360 -1.321260 -0.914140 0.120683 0.387018
0.194138 -0.046775 -1.321351 -0.912998 0.118120 0.390491
0.192866 -0.046037 -1.321509 -0.916879 0.126227 0.378681
0.192786 -0.046268 -1.321711 -0.916436 0.126549 0.379646
0.194737 -0.047047 -1.321688 -0.912695 0.120859 0.390361
0.194477 -0.046797 -1.321442 -0.912998 0.118120 0.390491
0.193792 -0.047762 -1.321843 -0.909345 0.115583 0.399666
0.196289 -0.049296 -1.322048 -0.903018 0.107138 0.416028
0.195664 -0.049431 -1.322491 -0.902995 0.113049 0.414512
0.196607 -0.048108 -1.321658 -0.907881 0.109836 0.404584
0.193739 -0.048816 -1.322829 -0.907456 0.124443 0.401294
0.194580 -0.048285 -1.322197 -0.907546 0.118497 0.402889
0.193736 -0.048223 -1.322186 -0.908563 0.118630 0.400549
0.199409 -0.041820 -1.322964 -0.934561 0.184690 0.304114
0.200529 -0.042246 -1.323419 -0.933365 0.188347 0.305541
0.199213 -0.042191 -1.322174 -0.932449 0.167647 0.320053
0.199903 -0.043699 -1.323360 -0.928392 0.174510 0.328078
0.199460 -0.045028 -1.322728 -0.923045 0.152212 0.353299
0.199448 -0.045434 -1.322191 -0.920864 0.140707 0.363609
0.199819 -0.044683 -1.322171 -0.923313 0.146226 0.355120
0.200102 -0.043779 -1.321516 -0.926324 0.145387 0.347544
0.199843 -0.043130 -1.321503 -0.928595 0.150845 0.339055
0.200050 -0.044533 -1.321392 -0.922982 0.137406 0.359477
0.198877 -0.042784 -1.321330 -0.929464 0.150986 0.336602
0.197900 -0.043041 -1.321002 -0.927969 0.142445 0.344358
0.197387 -0.043395 -1.320748 -0.926009 0.136624 0.351911
0.198933 -0.044701 -1.320371 -0.919760 0.119969 0.373696
0.195778 -0.040552 -1.321320 -0.937434 0.169316 0.304219
0.196386 -0.041381 -1.320879 -0.934005 0.155897 0.321452
0.195059 -0.041052 -1.320793 -0.935177 0.155633 0.318153
0.196822 -0.042921 -1.320637 -0.927829 0.139243 0.346040
0.194644 -0.042095 -1.320826 -0.931451 0.147652 0.332563
0.194754 -0.042416 -1.320697 -0.930106 0.144683 0.337594
0.195062 -0.042242 -1.320502 -0.930473 0.141983 0.337727
0.195206 -0.042717 -1.320575 -0.928712 0.139376 0.343610
0.193919 -0.041726 -1.322208 -0.934373 0.173032 0.311458
0.193919 -0.041594 -1.322345 -0.934725 0.175867 0.308805
0.194373 -0.040988 -1.322031 -0.936654 0.175709 0.302994
0.193994 -0.041527 -1.322250 -0.934725 0.175867 0.308805
0.193864 -0.042706 -1.321398 -0.929839 0.150598 0.335737
0.194098 -0.042387 -1.321280 -0.930308 0.153439 0.333142
0.195988 -0.044758 -1.320731 -0.921022 0.125657 0.368685
0.195316 -0.044951 -1.320975 -0.920601 0.125977 0.369625
0.196738 -0.043447 -1.320518 -0.925790 0.131073 0.354587
0.196379 -0.043034 -1.320517 -0.927294 0.136407 0.348596
0.195832 -0.043768 -1.320629 -0.924482 0.131279 0.357909
0.195059 -0.042986 -1.320681 -0.927829 0.139243 0.346040
0.196458 -0.044577 -1.320602 -0.921338 0.122937 0.368812
0.193278 -0.043512 -1.321690 -0.927719 0.148380 0.342521
0.193336 -0.043900 -1.321359 -0.924860 0.140046 0.353582
0.193866 -0.044716 -1.320777 -0.921022 0.125657 0.368685
0.193256 -0.045309 -1.321009 -0.918594 0.123310 0.375473
0.194096 -0.043870 -1.320786 -0.924143 0.133994 0.357777
0.195555 -0.041812 -1.320206 -0.931702 0.141751 0.334422
0.200001 -0.045077 -1.321539 -0.921058 0.134755 0.365367
0.199900 -0.045475 -1.321130 -0.918276 0.126038 0.375344
0.198920 -0.046718 -1.322016 -0.915014 0.126737 0.382997
0.197080 -0.045513 -1.320454 -0.916611 0.114749 0.382958
0.199515 -0.046277 -1.320469 -0.912800 0.109094 0.393567
0.198724 -0.045927 -1.320243 -0.914516 0.106211 0.390359
0.198183 -0.046787 -1.320598 -0.910608 0.106399 0.399341
0.196394 -0.045017 -1.320687 -0.919025 0.122997 0.374520
0.196909 -0.047218 -1.321241 -0.910588 0.112264 0.397776
0.196655 -0.045227 -1.320602 -0.918681 0.117425 0.377143
0.196959 -0.045613 -1.320532 -0.916611 0.114749 0.382958
0.191472 -0.044998 -1.325223 -0.925647 0.193019 0.325456
0.191558 -0.045333 -1.324608 -0.924620 0.178732 0.336353
0.191230 -0.045931 -1.324980 -0.922441 0.178855 0.342219
0.191129 -0.046438 -1.324760 -0.920231 0.173336 0.350900
0.191475 -0.046654 -1.323715 -0.918601 0.155671 0.363233
0.191893 -0.046553 -1.322891 -0.917310 0.144249 0.371126
0.191049 -0.047226 -1.324422 -0.916895 0.161971 0.364786
0.191354 -0.047875 -1.323913 -0.913643 0.147816 0.378690
0.191858 -0.048621 -1.323795 -0.910330 0.139293 0.389739
0.191423 -0.046970 -1.323702 -0.916669 0.153012 0.369195
0.192462 -0.048875 -1.323443 -0.908011 0.133325 0.397167
0.192135 -0.048266 -1.323233 -0.910509 0.133279 0.391421
0.192000 -0.047592 -1.322928 -0.913092 0.135635 0.384533
0.191852 -0.049336 -1.324385 -0.907987 0.142623 0.393979
0.196080 -0.051210 -1.324445 -0.899887 0.128555 0.416745
0.195576 -0.051379 -1.323939 -0.898178 0.119476 0.423086
0.195439 -0.050915 -1.323673 -0.899245 0.119618 0.420773
0.195155 -0.051195 -1.323817 -0.898178 0.119476 0.423086
0.194655 -0.051369 -1.323915 -0.898178 0.119476 0.423086
0.194420 -0.051045 -1.323890 -0.898939 0.122391 0.420630
0.193689 -0.051143 -1.323925 -0.899245 0.119618 0.420773
0.194083 -0.051556 -1.324062 -0.897633 0.119778 0.424156
0.202016 -0.033700 -1.332449 -0.919564 0.386406 0.071357
0.203282 -0.031257 -1.334272 -0.904337 0.426574 0.014438
0.203171 -0.031605 -1.334062 -0.906763 0.421044 0.022438
0.202078 -0.033514 -1.333317 -0.915379 0.398049 0.060311
0.199843 -0.041038 -1.327067 -0.934923 0.253705 0.248098
0.197257 -0.038327 -1.340838 -0.885942 0.461343 0.047631
0.200210 -0.032737 -1.340535 -0.870896 0.490473 -0.031249
0.200839 -0.031950 -1.339959 -0.873052 0.486239 -0.036774
0.196545 -0.040545 -1.340205 -0.894039 0.439396 0.087325
0.201799 -0.030532 -1.339620 -0.870277 0.489617 -0.053789
0.201617 -0.030769 -1.339872 -0.868550 0.492961 -0.051091
0.201966 -0.030378 -1.339434 -0.870277 0.489617 -0.053789
0.199811 -0.040719 -1.327722 -0.935364 0.265043 0.234192
0.200464 -0.043170 -1.321826 -0.928691 0.154088 0.337327
0.200555 -0.043721 -1.321956 -0.926944 0.151480 0.343261
0.200597 -0.043540 -1.322096 -0.927030 0.157053 0.340513
0.200656 -0.042855 -1.322736 -0.931279 0.171222 0.321563
0.200723 -0.042746 -1.322739 -0.931279 0.171222 0.321563
0.183088 -0.056396 -1.335720 -0.894093 0.253549 0.369203
0.182693 -0.056486 -1.336403 -0.893983 0.262413 0.363227
0.182689 -0.057083 -1.336356 -0.892817 0.257001 0.369903
0.182872 -0.056187 -1.336541 -0.894486 0.268494 0.357498
0.183369 -0.056789 -1.335215 -0.892103 0.244108 0.380216
0.190021 -0.061376 -1.334924 -0.875469 0.199980 0.439957
0.190658 -0.060101 -1.334732 -0.879744 0.208477 0.427304
0.189798 -0.061054 -1.335735 -0.877288 0.215240 0.428995
0.204977 -0.027786 -1.336099 -0.882055 0.467777 -0.056243
0.204908 -0.027526 -1.335252 -0.886935 0.459135 -0.050410
0.203991 -0.029168 -1.334587 -0.896628 0.442336 -0.019925
0.204748 -0.027907 -1.335644 -0.885236 0.462396 -0.050468
0.204646 -0.028464 -1.335342 -0.889655 0.454952 -0.039150
0.203622 -0.030762 -1.334570 -0.901373 0.433025 0.003925
0.204281 -0.028970 -1.335104 -0.893268 0.448643 -0.028124
0.203906 -0.029532 -1.334568 -0.898255 0.439235 -0.014509
0.204986 -0.027145 -1.336953 -0.873735 0.480763 -0.073856
0.201232 -0.035761 -1.330799 -0.929190 0.348959 0.121794
0.200463 -0.037412 -1.330014 -0.932816 0.324758 0.156160
0.200397 -0.038090 -1.330017 -0.932449 0.320053 0.167647
0.190966 -0.036356 -1.335103 -0.911824 0.402075 0.083141
0.193208 -0.032816 -1.333206 -0.914395 0.401800 0.049391
0.194099 -0.030293 -1.335135 -0.897269 0.441388 -0.009223
0.190510 -0.036311 -1.335895 -0.908087 0.412519 0.072157
0.192490 -0.034001 -1.333367 -0.915611 0.396630 0.065881
0.192706 -0.032412 -1.336169 -0.897244 0.441376 0.011858
0.192008 -0.034970 -1.333908 -0.914756 0.397072 0.074536
0.190780 -0.035710 -1.335994 -0.906152 0.418537 0.060952
0.192986 -0.031493 -1.337319 -0.887035 0.461471 -0.014629
0.192518 -0.032184 -1.337647 -0.888217 0.459331 -0.009266
0.191737 -0.035052 -1.334417 -0.913134 0.401779 0.068992
0.192184 -0.033260 -1.336238 -0.899189 0.436977 0.022579
0.190731 -0.035402 -1.337066 -0.899646 0.434358 0.044377
0.192006 -0.033341 -1.336789 -0.895617 0.444491 0.017249
0.190794 -0.035414 -1.336729 -0.901513 0.429870 0.049859
0.192260 -0.033175 -1.336127 -0.899189 0.436977 0.022579
0.191031 -0.035617 -1.335424 -0.909375 0.410642 0.066407
0.193766 -0.030470 -1.336471 -0.889126 0.457226 -0.019995
0.192516 -0.033337 -1.334624 -0.907846 0.417262 0.041326
0.192982 -0.032153 -1.335649 -0.899829 0.436081 0.011857
0.191933 -0.034109 -1.335144 -0.906687 0.419192 0.046875
0.193023 -0.031706 -1.336610 -0.892572 0.450887 -0.003944
0.191415 -0.035228 -1.334963 -0.909842 0.409632 0.066244
0.191306 -0.034602 -1.336574 -0.900358 0.433406 0.038913
0.190883 -0.035299 -1.336631 -0.901513 0.429870 0.049859
0.190541 -0.035653 -1.337267 -0.899021 0.435358 0.047175
0.192169 -0.033955 -1.334581 -0.909947 0.411419 0.052265
0.191993 -0.033579 -1.336238 -0.900111 0.434765 0.027921
0.193800 -0.031453 -1.333985 -0.907281 0.420062 0.019752
0.193825 -0.030834 -1.335186 -0.897798 0.440405 -0.001307
0.191548 -0.033967 -1.337213 -0.894995 0.445503 0.022608
0.194285 -0.048223 -1.337851 -0.907492 0.352833 0.227962
0.193755 -0.048374 -1.338885 -0.904962 0.364600 0.219341
0.194137 -0.044814 -1.341040 -0.896318 0.420372 0.141074
0.193049 -0.049627 -1.339499 -0.902546 0.364236 0.229659
0.193018 -0.050721 -1.338974 -0.903206 0.348065 0.251135
0.193143 -0.047970 -1.340768 -0.899865 0.392695 0.189827
0.195396 -0.043348 -1.339833 -0.900275 0.414098 0.134264
0.192043 -0.050212 -1.341319 -0.896886 0.384798 0.218003
0.192475 -0.051299 -1.339499 -0.901062 0.351311 0.254297
0.193132 -0.046885 -1.341503 -0.896817 0.410261 0.165544
0.193519 -0.048192 -1.339502 -0.902781 0.376522 0.207887
0.193898 -0.048972 -1.338100 -0.906467 0.348866 0.237929
0.192652 -0.048359 -1.341402 -0.897246 0.398615 0.189886
0.194704 -0.045426 -1.339690 -0.902140 0.398886 0.164415
0.194203 -0.045066 -1.340803 -0.897719 0.415320 0.147003
0.193671 -0.046650 -1.340711 -0.899651 0.401604 0.171294
0.193004 -0.050767 -1.338961 -0.902537 0.347807 0.253884
0.192570 -0.049992 -1.340359 -0.899682 0.373039 0.226749
0.192659 -0.050191 -1.340046 -0.900422 0.367489 0.232792
0.194977 -0.045283 -1.339307 -0.903760 0.393873 0.167575
0.194354 -0.045566 -1.340295 -0.899951 0.404906 0.161676
0.192966 -0.046921 -1.341714 -0.895185 0.413717 0.165775
0.192256 -0.051148 -1.340083 -0.899664 0.360749 0.245898
0.194638 -0.046106 -1.339314 -0.903464 0.389251 0.179544
0.195512 -0.044990 -1.338490 -0.906424 0.385194 0.173266
0.192245 -0.049186 -1.341521 -0.896655 0.395111 0.199743
0.193363 -0.050352 -1.338488 -0.903994 0.344309 0.253470
0.194986 -0.045201 -1.339344 -0.902739 0.396289 0.167386
0.193753 -0.046112 -1.340922 -0.897800 0.409397 0.162322
0.193839 -0.048271 -1.338787 -0.904962 0.364600 0.219341
0.193748 -0.049195 -1.338241 -0.906467 0.348866 0.237929
0.193566 -0.048359 -1.339310 -0.903637 0.371059 0.213904
0.195424 -0.043900 -1.339492 -0.901455 0.407429 0.146220
0.195963 -0.042393 -1.339657 -0.899245 0.420773 0.119618
