# .PCD v0.7 - Point Cloud Data file format
VERSION 0.7
FIELDS x y z normal_x normal_y normal_z
SIZE 4 4 4 4 4 4
TYPE F F F F F F
COUNT 1 1 1 1 1 1
WIDTH 1453
HEIGHT 1
VIEWPOINT 0 0 0 1 0 0 0
POINTS 1453
DATA ascii
0.194983 -0.077876 -1.356838 -0.939503 -0.339875 0.042646
0.195087 -0.076610 -1.356430 -0.942123 -0.332892 0.039844
0.192935 -0.079984 -1.364456 -0.935716 -0.347777 0.059056
0.192604 -0.080437 -1.363608 -0.934140 -0.352432 0.056337
0.192354 -0.080598 -1.363611 -0.933805 -0.353296 0.056475
0.193695 -0.080020 -1.362603 -0.935464 -0.349327 0.053642
0.192465 -0.080735 -1.362875 -0.932937 -0.355592 0.056422
0.190331 -0.080540 -1.365617 -0.934379 -0.350885 0.061766
0.190631 -0.080454 -1.365691 -0.934379 -0.350885 0.061766
0.192049 -0.079996 -1.366217 -0.935567 -0.347721 0.061671
0.191898 -0.080146 -1.365857 -0.935567 -0.347721 0.061671
0.190934 -0.081271 -1.363383 -0.932595 -0.356465 0.056561
0.190565 -0.081094 -1.363889 -0.932595 -0.356465 0.056561
0.188697 -0.080092 -1.365232 -0.935716 -0.347777 0.059056
0.188917 -0.080377 -1.364916 -0.934528 -0.350941 0.059147
0.188828 -0.080281 -1.364999 -0.934860 -0.350081 0.059002
0.190778 -0.078639 -1.368865 -0.939252 -0.336664 0.066809
0.190811 -0.078059 -1.369277 -0.940382 -0.333515 0.066703
0.190953 -0.077261 -1.369610 -0.942308 -0.328043 0.066654
0.189413 -0.078807 -1.369044 -0.938942 -0.337494 0.066973
0.189615 -0.078018 -1.369805 -0.940382 -0.333515 0.066703
0.190253 -0.077318 -1.369910 -0.942308 -0.328043 0.066654
0.190547 -0.076721 -1.370099 -0.943402 -0.324906 0.066547
0.189546 -0.077391 -1.370114 -0.942308 -0.328043 0.066654
0.192392 -0.079492 -1.366444 -0.936741 -0.344564 0.061576
0.192897 -0.078224 -1.367098 -0.939874 -0.335949 0.061438
0.193783 -0.079964 -1.362542 -0.935464 -0.349327 0.053642
0.193704 -0.079844 -1.363014 -0.935330 -0.349277 0.056251
0.193109 -0.079723 -1.364843 -0.936041 -0.346924 0.058912
0.193511 -0.077909 -1.365988 -0.940178 -0.335126 0.061288
0.192693 -0.079774 -1.365638 -0.935567 -0.347721 0.061671
0.192396 -0.079654 -1.366246 -0.936419 -0.345411 0.061727
0.192788 -0.079297 -1.366016 -0.936741 -0.344564 0.061576
0.194115 -0.078968 -1.363569 -0.937666 -0.342985 0.056077
0.193308 -0.078956 -1.365272 -0.938049 -0.341465 0.058873
0.193766 -0.078529 -1.364676 -0.938362 -0.340629 0.058729
0.193122 -0.077152 -1.367722 -0.941953 -0.329619 0.063839
0.194344 -0.076722 -1.364630 -0.942974 -0.328160 0.055774
0.194071 -0.077585 -1.364685 -0.940626 -0.334358 0.058545
0.194055 -0.077289 -1.364903 -0.941737 -0.331232 0.058453
0.193755 -0.077441 -1.365608 -0.941442 -0.332044 0.058596
0.193877 -0.076965 -1.365621 -0.942545 -0.328916 0.058503
0.190595 -0.079109 -1.368488 -0.938108 -0.339818 0.066914
0.190271 -0.080051 -1.366828 -0.935239 -0.348577 0.061823
0.191603 -0.079888 -1.366588 -0.936419 -0.345411 0.061727
0.191306 -0.079611 -1.367189 -0.936264 -0.345354 0.064344
0.191300 -0.079903 -1.366679 -0.936419 -0.345411 0.061727
0.191973 -0.078959 -1.367655 -0.938269 -0.339877 0.064301
0.192342 -0.079220 -1.366916 -0.937585 -0.342251 0.061631
0.188585 -0.079789 -1.367034 -0.936264 -0.345354 0.064344
0.189743 -0.079512 -1.367770 -0.937111 -0.343038 0.064402
0.188848 -0.079795 -1.367086 -0.936264 -0.345354 0.064344
0.189376 -0.078932 -1.368843 -0.938108 -0.339818 0.066914
0.188289 -0.079109 -1.368381 -0.938269 -0.339877 0.064301
0.189008 -0.079206 -1.368238 -0.937430 -0.342195 0.064243
0.189282 -0.080250 -1.365899 -0.935239 -0.348577 0.061823
0.187937 -0.079828 -1.365477 -0.935716 -0.347777 0.059056
0.188796 -0.080118 -1.366002 -0.935567 -0.347721 0.061671
0.191847 -0.078351 -1.368391 -0.939413 -0.336721 0.064200
0.190903 -0.078778 -1.368688 -0.938108 -0.339818 0.066914
0.191730 -0.077952 -1.368787 -0.940382 -0.333515 0.066703
0.188088 -0.078413 -1.369478 -0.939252 -0.336664 0.066809
0.188378 -0.078161 -1.369723 -0.940078 -0.334337 0.066867
0.187891 -0.077225 -1.370457 -0.942141 -0.327985 0.069256
0.186476 -0.077199 -1.370005 -0.942308 -0.328043 0.066654
0.186850 -0.078561 -1.367279 -0.938582 -0.339042 0.064143
0.186974 -0.078527 -1.367832 -0.939413 -0.336721 0.064200
0.188281 -0.078798 -1.368962 -0.938942 -0.337494 0.066973
0.187790 -0.079193 -1.367866 -0.937430 -0.342195 0.064243
0.186369 -0.078003 -1.366860 -0.940178 -0.335126 0.061288
0.186902 -0.078651 -1.367047 -0.938737 -0.339097 0.061535
0.187591 -0.079593 -1.365705 -0.936741 -0.344564 0.061576
0.186977 -0.078899 -1.364939 -0.938049 -0.341465 0.058873
0.186466 -0.078166 -1.366155 -0.939874 -0.335949 0.061438
0.186719 -0.078530 -1.365537 -0.939194 -0.338319 0.058781
0.187148 -0.079067 -1.365484 -0.938049 -0.341465 0.058873
0.186991 -0.077799 -1.369576 -0.941200 -0.331187 0.066761
0.187368 -0.078400 -1.369132 -0.939252 -0.336664 0.066809
0.186708 -0.078132 -1.368615 -0.940543 -0.333572 0.064098
0.186071 -0.077522 -1.368345 -0.941659 -0.330429 0.063996
0.185896 -0.076878 -1.368836 -0.942760 -0.327293 0.063894
0.185686 -0.076479 -1.368558 -0.943848 -0.324163 0.063791
0.185521 -0.076656 -1.367032 -0.943202 -0.326543 0.061146
0.185763 -0.077006 -1.365621 -0.942545 -0.328916 0.058503
0.185491 -0.076520 -1.367513 -0.943202 -0.326543 0.061146
0.185328 -0.075467 -1.366613 -0.945627 -0.319521 0.060800
0.191622 -0.081322 -1.359885 -0.931450 -0.360265 0.051092
0.192278 -0.081091 -1.358957 -0.931916 -0.359435 0.048360
0.192135 -0.081143 -1.359084 -0.931916 -0.359435 0.048360
0.192507 -0.080986 -1.359844 -0.932790 -0.357155 0.048406
0.192202 -0.081069 -1.361457 -0.932199 -0.357933 0.053755
0.193363 -0.080658 -1.359943 -0.933129 -0.356285 0.048288
0.192350 -0.081016 -1.361305 -0.932199 -0.357933 0.053755
0.191706 -0.081259 -1.361430 -0.932199 -0.357933 0.053755
0.194070 -0.079901 -1.361200 -0.935064 -0.350812 0.050861
0.193734 -0.080142 -1.361913 -0.934607 -0.351621 0.053593
0.193523 -0.080151 -1.362534 -0.934607 -0.351621 0.053593
0.193294 -0.080657 -1.361376 -0.933410 -0.354774 0.053674
0.194387 -0.079985 -1.359071 -0.934327 -0.353142 0.048215
0.194788 -0.079349 -1.359107 -0.936361 -0.347717 0.048185
0.193790 -0.080296 -1.360790 -0.933873 -0.353958 0.050939
0.193867 -0.080401 -1.360026 -0.933994 -0.354003 0.048333
0.193690 -0.080549 -1.360044 -0.933873 -0.353958 0.050939
0.193443 -0.080633 -1.360315 -0.933538 -0.354823 0.051063
0.189898 -0.081209 -1.360855 -0.932327 -0.357982 0.051140
0.189765 -0.081356 -1.359361 -0.931571 -0.360312 0.048478
0.191140 -0.081367 -1.362195 -0.931854 -0.358810 0.053887
0.190923 -0.081494 -1.360682 -0.931450 -0.360265 0.051092
0.189871 -0.081181 -1.361742 -0.932199 -0.357933 0.053755
0.190498 -0.081238 -1.362012 -0.932199 -0.357933 0.053755
0.189482 -0.081195 -1.362749 -0.932595 -0.356465 0.056561
0.189346 -0.081199 -1.363031 -0.932595 -0.356465 0.056561
0.190052 -0.081218 -1.362484 -0.932199 -0.357933 0.053755
0.188713 -0.080641 -1.363008 -0.934140 -0.352432 0.056337
0.188039 -0.080136 -1.362000 -0.934607 -0.351621 0.053593
0.188838 -0.080859 -1.361842 -0.933072 -0.355643 0.053806
0.187965 -0.079985 -1.363631 -0.935330 -0.349277 0.056251
0.187717 -0.079767 -1.364403 -0.936041 -0.346924 0.058912
0.187647 -0.079713 -1.364065 -0.936182 -0.346977 0.056302
0.187793 -0.079747 -1.360256 -0.935064 -0.350812 0.050861
0.187830 -0.079820 -1.360368 -0.935064 -0.350812 0.050861
0.188471 -0.080670 -1.360164 -0.933538 -0.354823 0.051063
0.187312 -0.079462 -1.362215 -0.936639 -0.346178 0.053560
0.188107 -0.080278 -1.361205 -0.934735 -0.351669 0.050986
0.187556 -0.079721 -1.361890 -0.935790 -0.348474 0.053511
0.191302 -0.081354 -1.358609 -0.931916 -0.359435 0.048360
0.192347 -0.080884 -1.358310 -0.932373 -0.358605 0.045641
0.191234 -0.081425 -1.358763 -0.931571 -0.360312 0.048478
0.193581 -0.080400 -1.358196 -0.933579 -0.355463 0.045572
0.190859 -0.081470 -1.358455 -0.930804 -0.362634 0.045820
0.192453 -0.080490 -1.357124 -0.933686 -0.355504 0.042973
0.191588 -0.080990 -1.357738 -0.932373 -0.358605 0.045641
0.190355 -0.080228 -1.355710 -0.934120 -0.354680 0.040275
0.191292 -0.080841 -1.356902 -0.932481 -0.358646 0.043038
0.192051 -0.080554 -1.356869 -0.932820 -0.357776 0.042933
0.191189 -0.080160 -1.355855 -0.934120 -0.354680 0.040275
0.194225 -0.080140 -1.358348 -0.934441 -0.353185 0.045614
0.193556 -0.080131 -1.357280 -0.934019 -0.354641 0.042869
0.193378 -0.080322 -1.357688 -0.933579 -0.355463 0.045572
0.194349 -0.079943 -1.358255 -0.934770 -0.352327 0.045503
0.192568 -0.079551 -1.355485 -0.935305 -0.351550 0.040214
0.192828 -0.080143 -1.356616 -0.934019 -0.354641 0.042869
0.193290 -0.078975 -1.355298 -0.936793 -0.347583 0.040056
0.194905 -0.078511 -1.357322 -0.938368 -0.342990 0.042712
0.194668 -0.078517 -1.356586 -0.937532 -0.345271 0.042674
0.194079 -0.079331 -1.356266 -0.936375 -0.348389 0.042739
0.193938 -0.079208 -1.355970 -0.936476 -0.348426 0.040153
0.192110 -0.079970 -1.356039 -0.934120 -0.354680 0.040275
0.189990 -0.081102 -1.357582 -0.932031 -0.359479 0.045752
0.189931 -0.081105 -1.357715 -0.932031 -0.359479 0.045752
0.189795 -0.081155 -1.358250 -0.932031 -0.359479 0.045752
0.190401 -0.081485 -1.358807 -0.931571 -0.360312 0.048478
0.188636 -0.080622 -1.357710 -0.933243 -0.356329 0.045683
0.188335 -0.080308 -1.357945 -0.933579 -0.355463 0.045572
0.189077 -0.079415 -1.355383 -0.935629 -0.350699 0.040117
0.188417 -0.079719 -1.356442 -0.935204 -0.351512 0.042804
0.188578 -0.080365 -1.357191 -0.933686 -0.355504 0.042973
0.188949 -0.080452 -1.357057 -0.933686 -0.355504 0.042973
0.190341 -0.080665 -1.356329 -0.932820 -0.357776 0.042933
0.188238 -0.079811 -1.356881 -0.934878 -0.352367 0.042908
0.187978 -0.079959 -1.358460 -0.934441 -0.353185 0.045614
0.187701 -0.079474 -1.358442 -0.935625 -0.350046 0.045545
0.188161 -0.080147 -1.359551 -0.934327 -0.353142 0.048215
0.187568 -0.079350 -1.359731 -0.936361 -0.347717 0.048185
0.187180 -0.078750 -1.358950 -0.937950 -0.343785 0.045406
0.186925 -0.078171 -1.358882 -0.939092 -0.340664 0.045335
0.187631 -0.079171 -1.357168 -0.936375 -0.348389 0.042739
0.188104 -0.079289 -1.356295 -0.936375 -0.348389 0.042739
0.187630 -0.078977 -1.356780 -0.936375 -0.348389 0.042739
0.187219 -0.078345 -1.357230 -0.938368 -0.342990 0.042712
0.186907 -0.077977 -1.358368 -0.939396 -0.339837 0.045225
0.187308 -0.078437 -1.356911 -0.938368 -0.342990 0.042712
0.186977 -0.077575 -1.357163 -0.939805 -0.339052 0.042543
0.194518 -0.079133 -1.362024 -0.936958 -0.345332 0.053429
0.194287 -0.079580 -1.361588 -0.935790 -0.348474 0.053511
0.194629 -0.077749 -1.363146 -0.940079 -0.336764 0.053310
0.194931 -0.078758 -1.361053 -0.938240 -0.342243 0.050751
0.195129 -0.078776 -1.359174 -0.937836 -0.343744 0.047994
0.194920 -0.078387 -1.361780 -0.939380 -0.339112 0.050672
0.195157 -0.077882 -1.361353 -0.939685 -0.338286 0.050549
0.195380 -0.077478 -1.359759 -0.940106 -0.337507 0.047846
0.194506 -0.076385 -1.364528 -0.943260 -0.327359 0.055638
0.194549 -0.076547 -1.364242 -0.943260 -0.327359 0.055638
0.194637 -0.076221 -1.363731 -0.943260 -0.327359 0.055638
0.194877 -0.076600 -1.362630 -0.942592 -0.329713 0.053013
0.195357 -0.077085 -1.360723 -0.942031 -0.332101 0.047812
0.195332 -0.076647 -1.360235 -0.942321 -0.331295 0.047696
0.195266 -0.076949 -1.361072 -0.941912 -0.332059 0.050390
0.195115 -0.076106 -1.361320 -0.943803 -0.326651 0.050353
0.195148 -0.075864 -1.360745 -0.944203 -0.325898 0.047661
0.194906 -0.075098 -1.361337 -0.946202 -0.319680 0.050070
0.195203 -0.077122 -1.357681 -0.940921 -0.335951 0.042477
0.195283 -0.076206 -1.359167 -0.943520 -0.328237 0.045052
0.195144 -0.076083 -1.358583 -0.943802 -0.327441 0.044943
0.195089 -0.076189 -1.357555 -0.943112 -0.329768 0.042344
0.194924 -0.075077 -1.360247 -0.945541 -0.322023 0.047470
0.194889 -0.074969 -1.360190 -0.946320 -0.319720 0.047509
0.194879 -0.075182 -1.359270 -0.945653 -0.322061 0.044909
0.195032 -0.076105 -1.357405 -0.943112 -0.329768 0.042344
0.194720 -0.075276 -1.356637 -0.945348 -0.323644 0.039656
0.194346 -0.074502 -1.357364 -0.946297 -0.320541 0.042143
0.194288 -0.074496 -1.356120 -0.946661 -0.319801 0.039497
0.194164 -0.074118 -1.357876 -0.947332 -0.317477 0.042075
0.186647 -0.077002 -1.357762 -0.941733 -0.333665 0.042513
0.186819 -0.078528 -1.362722 -0.938946 -0.339896 0.053394
0.186776 -0.078449 -1.362705 -0.938946 -0.339896 0.053394
0.186778 -0.078638 -1.364030 -0.938502 -0.340680 0.056127
0.186326 -0.077898 -1.364660 -0.940626 -0.334358 0.058545
0.186250 -0.077854 -1.365442 -0.940325 -0.335178 0.058689
0.186044 -0.077247 -1.364458 -0.941877 -0.331281 0.055863
0.186443 -0.077979 -1.363936 -0.939945 -0.336716 0.055903
0.186645 -0.078119 -1.362620 -0.939253 -0.339067 0.053263
0.186406 -0.077666 -1.362863 -0.940380 -0.335943 0.053180
0.186291 -0.077040 -1.362254 -0.941493 -0.332825 0.053097
0.185956 -0.076868 -1.364100 -0.942169 -0.330472 0.055727
0.185983 -0.076600 -1.363525 -0.943260 -0.327359 0.055638
0.185782 -0.075948 -1.363566 -0.944470 -0.324298 0.052973
0.185737 -0.076435 -1.364730 -0.943260 -0.327359 0.055638
0.185617 -0.075839 -1.364409 -0.945127 -0.321938 0.055596
0.185568 -0.075607 -1.364255 -0.945127 -0.321938 0.055596
0.185119 -0.074344 -1.364172 -0.947489 -0.314973 0.055281
0.185818 -0.075853 -1.363167 -0.944470 -0.324298 0.052973
0.186078 -0.076316 -1.362498 -0.943677 -0.326608 0.052929
0.185492 -0.074883 -1.362156 -0.946976 -0.317372 0.050111
0.185411 -0.074657 -1.361524 -0.947241 -0.316601 0.049990
0.185172 -0.074456 -1.364076 -0.947489 -0.314973 0.055281
0.185092 -0.074182 -1.363841 -0.948644 -0.311936 0.052631
0.187048 -0.078776 -1.360960 -0.937402 -0.344538 0.050706
0.187076 -0.078856 -1.361637 -0.938240 -0.342243 0.050751
0.186801 -0.078048 -1.361080 -0.939380 -0.339112 0.050672
0.186701 -0.077672 -1.359295 -0.940106 -0.337507 0.047846
0.186486 -0.077016 -1.359392 -0.941333 -0.334438 0.045194
0.186356 -0.076746 -1.360170 -0.942321 -0.331295 0.047696
0.186530 -0.076439 -1.358096 -0.942827 -0.330568 0.042447
0.186249 -0.075942 -1.359413 -0.943802 -0.327441 0.044943
0.186196 -0.075380 -1.358816 -0.944869 -0.324358 0.044872
0.186525 -0.075771 -1.357320 -0.944187 -0.326686 0.042277
0.186044 -0.075910 -1.360912 -0.944203 -0.325898 0.047661
0.186059 -0.075645 -1.360161 -0.944481 -0.325107 0.047545
0.185340 -0.074081 -1.360198 -0.947621 -0.315874 0.047317
0.185320 -0.074247 -1.360800 -0.947621 -0.315874 0.047317
0.185634 -0.074421 -1.359418 -0.946964 -0.318211 0.044728
0.185418 -0.073803 -1.358824 -0.947992 -0.315147 0.044656
0.185409 -0.074153 -1.359889 -0.947732 -0.315911 0.044765
0.185460 -0.073658 -1.358317 -0.948354 -0.314421 0.042008
0.191545 -0.076273 -1.369676 -0.944482 -0.321775 0.066439
0.191073 -0.075771 -1.370348 -0.945548 -0.318651 0.066331
0.191666 -0.075451 -1.369942 -0.945823 -0.317869 0.066169
0.190514 -0.075975 -1.370539 -0.945105 -0.319380 0.069090
0.190898 -0.075467 -1.370691 -0.946163 -0.316255 0.068978
0.190581 -0.075251 -1.371002 -0.946435 -0.315478 0.068808
0.189066 -0.075317 -1.370744 -0.946435 -0.315478 0.068808
0.189484 -0.075090 -1.370970 -0.947208 -0.313137 0.068864
0.191790 -0.075047 -1.370105 -0.946870 -0.314760 0.066061
0.191727 -0.074130 -1.370814 -0.948500 -0.309265 0.068582
0.191175 -0.074443 -1.371178 -0.948239 -0.310026 0.068751
0.190205 -0.073814 -1.371360 -0.949512 -0.306169 0.068468
0.189700 -0.073708 -1.371406 -0.949512 -0.306169 0.068468
0.193579 -0.076667 -1.367298 -0.943202 -0.326543 0.061146
0.193370 -0.075371 -1.367795 -0.946254 -0.317144 0.063429
0.192933 -0.075303 -1.368360 -0.946254 -0.317144 0.063429
0.194096 -0.075927 -1.366628 -0.944564 -0.322629 0.060898
0.193959 -0.076371 -1.366263 -0.943489 -0.325744 0.060996
0.194164 -0.075866 -1.366262 -0.944710 -0.322679 0.058315
0.194400 -0.075420 -1.366014 -0.945772 -0.319570 0.058221
0.194396 -0.075405 -1.366322 -0.945772 -0.319570 0.058221
0.194186 -0.074680 -1.365833 -0.947087 -0.315696 0.057985
0.193412 -0.074265 -1.367652 -0.948474 -0.310996 0.060651
0.193782 -0.074397 -1.366792 -0.947710 -0.313325 0.060602
0.193731 -0.073932 -1.367105 -0.948732 -0.310237 0.060503
0.193694 -0.073430 -1.367256 -0.949740 -0.307156 0.060403
0.193467 -0.072684 -1.366924 -0.951717 -0.301014 0.060203
0.193400 -0.073058 -1.367740 -0.950736 -0.304081 0.060303
0.193476 -0.072933 -1.367326 -0.950736 -0.304081 0.060303
0.193581 -0.072912 -1.366574 -0.950880 -0.304127 0.057746
0.193599 -0.073008 -1.366132 -0.950880 -0.304127 0.057746
0.193353 -0.072160 -1.366538 -0.952830 -0.297999 0.057553
0.192665 -0.076218 -1.368622 -0.944131 -0.323368 0.063635
0.192552 -0.074229 -1.369045 -0.949081 -0.308613 0.063272
0.192830 -0.074771 -1.368553 -0.947295 -0.314042 0.063325
0.192296 -0.073970 -1.369698 -0.948923 -0.308561 0.065844
0.192544 -0.073666 -1.369633 -0.949929 -0.305472 0.065735
0.192368 -0.073625 -1.369914 -0.949929 -0.305472 0.065735
0.192662 -0.073199 -1.369359 -0.951080 -0.302441 0.063062
0.192853 -0.072737 -1.369065 -0.952059 -0.299365 0.062957
0.191875 -0.071956 -1.371078 -0.953427 -0.293856 0.068010
0.191749 -0.071467 -1.371065 -0.954373 -0.290796 0.067895
0.190857 -0.072878 -1.371437 -0.951496 -0.299998 0.068240
0.190130 -0.072743 -1.371458 -0.951496 -0.299998 0.068240
0.190190 -0.072102 -1.371389 -0.953193 -0.294576 0.068177
0.191280 -0.071913 -1.371374 -0.953427 -0.293856 0.068010
0.190911 -0.071734 -1.371381 -0.954144 -0.291508 0.068061
0.193261 -0.072231 -1.367521 -0.952686 -0.297954 0.060102
0.193157 -0.071834 -1.367177 -0.953642 -0.294901 0.060002
0.192516 -0.072522 -1.369962 -0.951902 -0.299316 0.065516
0.192635 -0.072464 -1.369652 -0.951902 -0.299316 0.065516
0.192357 -0.072351 -1.370450 -0.952632 -0.296974 0.065566
0.192942 -0.072224 -1.368800 -0.953026 -0.296297 0.062851
0.192685 -0.071315 -1.368827 -0.954208 -0.292522 0.062592
0.192605 -0.071247 -1.369026 -0.954919 -0.290183 0.062639
0.193048 -0.071935 -1.367941 -0.953410 -0.295621 0.060148
0.192699 -0.070942 -1.367962 -0.955293 -0.289521 0.059945
0.192679 -0.070802 -1.367459 -0.955515 -0.288817 0.059799
0.192186 -0.070833 -1.370221 -0.955691 -0.287090 0.065074
0.191627 -0.070129 -1.370590 -0.957295 -0.281707 0.065009
0.191685 -0.070045 -1.370483 -0.957295 -0.281707 0.065009
0.191915 -0.069884 -1.369824 -0.957663 -0.281067 0.062318
0.191492 -0.069203 -1.370046 -0.958552 -0.278044 0.062211
0.190608 -0.070666 -1.371077 -0.956389 -0.284746 0.065121
0.189572 -0.070324 -1.371320 -0.956226 -0.284698 0.067664
0.190792 -0.069616 -1.370738 -0.958190 -0.278677 0.064897
0.189871 -0.070167 -1.371179 -0.957295 -0.281707 0.065009
0.191463 -0.069061 -1.369965 -0.959428 -0.275028 0.062103
0.191280 -0.068747 -1.369935 -0.959629 -0.274360 0.061952
0.192186 -0.069682 -1.367767 -0.957337 -0.282763 0.059596
0.191931 -0.069061 -1.367636 -0.959108 -0.276739 0.059391
0.191699 -0.068661 -1.368371 -0.959777 -0.274402 0.059433
0.191238 -0.067650 -1.368363 -0.961672 -0.267760 0.059083
0.187800 -0.076332 -1.371026 -0.944315 -0.321719 0.069033
0.188063 -0.076533 -1.370857 -0.944032 -0.322512 0.069203
0.187195 -0.076485 -1.370963 -0.944032 -0.322512 0.069203
0.187143 -0.076864 -1.370686 -0.943235 -0.324849 0.069144
0.188251 -0.075975 -1.370952 -0.945105 -0.319380 0.069090
0.186782 -0.076201 -1.371037 -0.944315 -0.321719 0.069033
0.186511 -0.075701 -1.371319 -0.945382 -0.318595 0.068921
0.188239 -0.074151 -1.371525 -0.949256 -0.306922 0.068637
0.187710 -0.074291 -1.371588 -0.948500 -0.309265 0.068582
0.187163 -0.074031 -1.371759 -0.949256 -0.306922 0.068637
0.188837 -0.072922 -1.371595 -0.951496 -0.299998 0.068240
0.188697 -0.073005 -1.371616 -0.951251 -0.300735 0.068407
0.186926 -0.072918 -1.371983 -0.951251 -0.300735 0.068407
0.185252 -0.073919 -1.372314 -0.949085 -0.306866 0.071214
0.186003 -0.074753 -1.371632 -0.947474 -0.312368 0.068695
0.185362 -0.074716 -1.371455 -0.947474 -0.312368 0.068695
0.186830 -0.073903 -1.371819 -0.949256 -0.306922 0.068637
0.186427 -0.073284 -1.371932 -0.951251 -0.300735 0.068407
0.185512 -0.073742 -1.371851 -0.950261 -0.303825 0.068522
0.185684 -0.075807 -1.368894 -0.944922 -0.321039 0.063688
0.185995 -0.076348 -1.369677 -0.944482 -0.321775 0.066439
0.185376 -0.074251 -1.369564 -0.948665 -0.309319 0.066005
0.185103 -0.075196 -1.367970 -0.946254 -0.317144 0.063429
0.185136 -0.074520 -1.368041 -0.948062 -0.311709 0.063377
0.184974 -0.074307 -1.367615 -0.948474 -0.310996 0.060651
0.185087 -0.074126 -1.367959 -0.948474 -0.310996 0.060651
0.185204 -0.073842 -1.370974 -0.949512 -0.306169 0.068468
0.184970 -0.073276 -1.371261 -0.950511 -0.303080 0.068354
0.184868 -0.073054 -1.370183 -0.950922 -0.302391 0.065625
0.184943 -0.073461 -1.368060 -0.950488 -0.304825 0.060451
0.184763 -0.073127 -1.367740 -0.950736 -0.304081 0.060303
0.184675 -0.073136 -1.367384 -0.950736 -0.304081 0.060303
0.184715 -0.072734 -1.370417 -0.951660 -0.300050 0.065676
0.184322 -0.071839 -1.369153 -0.953260 -0.295575 0.062698
0.184394 -0.071612 -1.367871 -0.953642 -0.294901 0.060002
0.188422 -0.072535 -1.371728 -0.952229 -0.297652 0.068292
0.189066 -0.070965 -1.371558 -0.955306 -0.287743 0.067779
0.187595 -0.071101 -1.371962 -0.955082 -0.288448 0.067945
0.186556 -0.071415 -1.372066 -0.954373 -0.290796 0.067895
0.185187 -0.072516 -1.372038 -0.952229 -0.297652 0.068292
0.187044 -0.071556 -1.372043 -0.954144 -0.291508 0.068061
0.186181 -0.071000 -1.372035 -0.955306 -0.287743 0.067779
0.189363 -0.070293 -1.371365 -0.956919 -0.282349 0.067713
0.189108 -0.070054 -1.371388 -0.957134 -0.281660 0.067547
0.187471 -0.069991 -1.371682 -0.957134 -0.281660 0.067547
0.188318 -0.069562 -1.371413 -0.958028 -0.278630 0.067431
0.188073 -0.069414 -1.371399 -0.958028 -0.278630 0.067431
0.189623 -0.069091 -1.370978 -0.959071 -0.275654 0.064785
0.188456 -0.068504 -1.371015 -0.960139 -0.271976 0.064515
0.186777 -0.070064 -1.371852 -0.957134 -0.281660 0.067547
0.185688 -0.070619 -1.371951 -0.956226 -0.284698 0.067664
0.186379 -0.069359 -1.371583 -0.958705 -0.276280 0.067479
0.186102 -0.068972 -1.371280 -0.959071 -0.275654 0.064785
0.184776 -0.072420 -1.371726 -0.952468 -0.296923 0.068125
0.184396 -0.071679 -1.371635 -0.954144 -0.291508 0.068061
0.184318 -0.071681 -1.371372 -0.954144 -0.291508 0.068061
0.184177 -0.071471 -1.370934 -0.954536 -0.290845 0.065344
0.184286 -0.071796 -1.369731 -0.953822 -0.293188 0.065295
0.183999 -0.070963 -1.371412 -0.955306 -0.287743 0.067779
0.183622 -0.070726 -1.370653 -0.955691 -0.287090 0.065074
0.183979 -0.071165 -1.369180 -0.954919 -0.290183 0.062639
0.183793 -0.070763 -1.369775 -0.955846 -0.287137 0.062532
0.183733 -0.070546 -1.369654 -0.956066 -0.286438 0.062380
0.184727 -0.069359 -1.371378 -0.959071 -0.275654 0.064785
0.184522 -0.069019 -1.371174 -0.959071 -0.275654 0.064785
0.185189 -0.069233 -1.371312 -0.959071 -0.275654 0.064785
0.184041 -0.068822 -1.370979 -0.959941 -0.272638 0.064672
0.183421 -0.069191 -1.369698 -0.958757 -0.277368 0.062060
0.183343 -0.069029 -1.369712 -0.959428 -0.275028 0.062103
0.183363 -0.069133 -1.369178 -0.958757 -0.277368 0.062060
0.183410 -0.068181 -1.370206 -0.961144 -0.269019 0.061887
0.183996 -0.067895 -1.370432 -0.960991 -0.268977 0.064403
0.183092 -0.068242 -1.369778 -0.960489 -0.271360 0.061845
0.182680 -0.067154 -1.369136 -0.962317 -0.265424 0.059123
0.194638 -0.075676 -1.364125 -0.945127 -0.321938 0.055596
0.194541 -0.075230 -1.364092 -0.946183 -0.318837 0.055506
0.194617 -0.075589 -1.363198 -0.945534 -0.321198 0.052888
0.194572 -0.075454 -1.363346 -0.945534 -0.321198 0.052888
0.194534 -0.075117 -1.363127 -0.945807 -0.320416 0.052759
0.194422 -0.075029 -1.363847 -0.946452 -0.318060 0.055371
0.194265 -0.074824 -1.364728 -0.947226 -0.315742 0.055416
0.194584 -0.074661 -1.362008 -0.946976 -0.317372 0.050111
0.194915 -0.075151 -1.361099 -0.946320 -0.319720 0.047509
0.194460 -0.074034 -1.360996 -0.948384 -0.313568 0.047355
0.194088 -0.073474 -1.361678 -0.949278 -0.310464 0.049828
0.194103 -0.073830 -1.362844 -0.948900 -0.311178 0.052503
0.194066 -0.073316 -1.364727 -0.950273 -0.306498 0.055144
0.193949 -0.072967 -1.364129 -0.950651 -0.305795 0.052459
0.193436 -0.072238 -1.365816 -0.952101 -0.300327 0.057509
0.193591 -0.072016 -1.365013 -0.952475 -0.299641 0.054828
0.193563 -0.071522 -1.364030 -0.953563 -0.296636 0.052198
0.193892 -0.073065 -1.362426 -0.950278 -0.307405 0.049746
0.193725 -0.072615 -1.363538 -0.951635 -0.302735 0.052372
0.193692 -0.072724 -1.362292 -0.951020 -0.305092 0.049785
0.193605 -0.072432 -1.362252 -0.951999 -0.302040 0.049703
0.193596 -0.072614 -1.361636 -0.951381 -0.304391 0.047123
0.193614 -0.072081 -1.362461 -0.952237 -0.301309 0.049582
0.193402 -0.072069 -1.361695 -0.952354 -0.301346 0.047046
0.194410 -0.074090 -1.360175 -0.947621 -0.315874 0.047317
0.194261 -0.073869 -1.360219 -0.948641 -0.312809 0.047241
0.194249 -0.073974 -1.359787 -0.947992 -0.315147 0.044656
0.194181 -0.073860 -1.359391 -0.947992 -0.315147 0.044656
0.193825 -0.073415 -1.358084 -0.949363 -0.311371 0.041940
0.193235 -0.072060 -1.358820 -0.952075 -0.302991 0.041836
0.193121 -0.071895 -1.358621 -0.952311 -0.302261 0.041735
0.193548 -0.072566 -1.360975 -0.951381 -0.304391 0.047123
0.193462 -0.072345 -1.361081 -0.951622 -0.303655 0.047009
0.193163 -0.071652 -1.360727 -0.953314 -0.298307 0.046968
0.192683 -0.070493 -1.360078 -0.955526 -0.291580 0.044179
0.192890 -0.071211 -1.359124 -0.953986 -0.296936 0.041697
0.192675 -0.070906 -1.358049 -0.954310 -0.296252 0.039080
0.192762 -0.070795 -1.359441 -0.954923 -0.293920 0.041628
0.192231 -0.069744 -1.358438 -0.957067 -0.287246 0.038885
0.192417 -0.070322 -1.357777 -0.955461 -0.292539 0.038922
0.192456 -0.070338 -1.358327 -0.955145 -0.293213 0.041528
0.193499 -0.071903 -1.365388 -0.953201 -0.297317 0.054870
0.193272 -0.070464 -1.364779 -0.956230 -0.287502 0.054461
0.192922 -0.070165 -1.365417 -0.956924 -0.285176 0.054500
0.193201 -0.070228 -1.364505 -0.956359 -0.287541 0.051935
0.193097 -0.070439 -1.363032 -0.955783 -0.289900 0.049372
0.193214 -0.070191 -1.363277 -0.956697 -0.286883 0.049288
0.192958 -0.070097 -1.362774 -0.956697 -0.286883 0.049288
0.192743 -0.069459 -1.364766 -0.958160 -0.281515 0.051758
0.193016 -0.069457 -1.363236 -0.957599 -0.283873 0.049205
0.192719 -0.068707 -1.363517 -0.959364 -0.277876 0.049037
0.192834 -0.068907 -1.363039 -0.958692 -0.280194 0.049003
0.192345 -0.069927 -1.366351 -0.956789 -0.285136 0.057027
0.192507 -0.069490 -1.365583 -0.957824 -0.282159 0.054407
0.192379 -0.068930 -1.365124 -0.958914 -0.278476 0.054183
0.191578 -0.067635 -1.365638 -0.961486 -0.269517 0.053903
0.192555 -0.069099 -1.364812 -0.959042 -0.278513 0.051670
0.192476 -0.068819 -1.364576 -0.959042 -0.278513 0.051670
0.192305 -0.068493 -1.364793 -0.959911 -0.275518 0.051581
0.192375 -0.067907 -1.364087 -0.960961 -0.271875 0.051368
0.191373 -0.067149 -1.365331 -0.962445 -0.266581 0.051314
0.191848 -0.067010 -1.364406 -0.962629 -0.265940 0.051190
0.192566 -0.070127 -1.361327 -0.956333 -0.288538 0.046620
0.192535 -0.070077 -1.361250 -0.956333 -0.288538 0.046620
0.192661 -0.068882 -1.362474 -0.958692 -0.280194 0.049003
0.192113 -0.069333 -1.358931 -0.957658 -0.284913 0.041419
0.192603 -0.068203 -1.362730 -0.960424 -0.274228 0.048835
0.191807 -0.068290 -1.360451 -0.959985 -0.276606 0.043806
0.191594 -0.068029 -1.358516 -0.959910 -0.277639 0.038596
0.191600 -0.068032 -1.358960 -0.960282 -0.275972 0.041208
0.192453 -0.067866 -1.362328 -0.960732 -0.273602 0.046225
0.192027 -0.068175 -1.361633 -0.959876 -0.276575 0.046304
0.191843 -0.068191 -1.361263 -0.959985 -0.276606 0.043806
0.192018 -0.066596 -1.362600 -0.963045 -0.265367 0.046097
0.192434 -0.067318 -1.362880 -0.962108 -0.268292 0.048667
0.192008 -0.066940 -1.361881 -0.962406 -0.267681 0.046066
0.191144 -0.066510 -1.360605 -0.963332 -0.264761 0.043505
0.191260 -0.067147 -1.359274 -0.961971 -0.270049 0.041067
0.191167 -0.065765 -1.361162 -0.964314 -0.261194 0.043326
0.185333 -0.075159 -1.365838 -0.946044 -0.318790 0.058079
0.184793 -0.074009 -1.366048 -0.948877 -0.310284 0.057937
0.184833 -0.073867 -1.365129 -0.949270 -0.309573 0.055235
0.184478 -0.073236 -1.365689 -0.950135 -0.306454 0.057701
0.184425 -0.073050 -1.364943 -0.950520 -0.305753 0.055010
0.184314 -0.072835 -1.365534 -0.951262 -0.303431 0.055053
0.184786 -0.073425 -1.363288 -0.949905 -0.308112 0.052417
0.184824 -0.073354 -1.362444 -0.950029 -0.308152 0.049867
0.184640 -0.073041 -1.363000 -0.950897 -0.305053 0.052331
0.184610 -0.072764 -1.362500 -0.951020 -0.305092 0.049785
0.184561 -0.073025 -1.366934 -0.950736 -0.304081 0.060303
0.184273 -0.072709 -1.365913 -0.951125 -0.303387 0.057605
0.183904 -0.071872 -1.364136 -0.952841 -0.298955 0.052158
0.183727 -0.071366 -1.363661 -0.953793 -0.295917 0.052071
0.183790 -0.070997 -1.365557 -0.955088 -0.291232 0.054685
0.183625 -0.070950 -1.365129 -0.955088 -0.291232 0.054685
0.183596 -0.070035 -1.365946 -0.956924 -0.285176 0.054500
0.183510 -0.070847 -1.363597 -0.954733 -0.292886 0.051984
0.185133 -0.073995 -1.361682 -0.948266 -0.313529 0.049909
0.184937 -0.073439 -1.361200 -0.949396 -0.310502 0.047278
0.184421 -0.072562 -1.363079 -0.951875 -0.302001 0.052245
0.184806 -0.072774 -1.359244 -0.950996 -0.305995 0.044439
0.184693 -0.072671 -1.360383 -0.950641 -0.306699 0.047087
0.184783 -0.072908 -1.360599 -0.950641 -0.306699 0.047087
0.184657 -0.072578 -1.359749 -0.950996 -0.305995 0.044439
0.184753 -0.072384 -1.358557 -0.951341 -0.305291 0.041803
0.184185 -0.071551 -1.359673 -0.952933 -0.299927 0.044293
0.183974 -0.071618 -1.362975 -0.953916 -0.295955 0.049538
0.183640 -0.070639 -1.361631 -0.955195 -0.292252 0.046811
0.183699 -0.070897 -1.362236 -0.955079 -0.292216 0.049335
0.184028 -0.071293 -1.360526 -0.953654 -0.297621 0.044327
0.183839 -0.070871 -1.360174 -0.954596 -0.294597 0.044253
0.183428 -0.070121 -1.359570 -0.955847 -0.290910 0.041559
0.183260 -0.069798 -1.359895 -0.956656 -0.287877 0.043999
0.183353 -0.070162 -1.362449 -0.956001 -0.289200 0.049252
0.183197 -0.069788 -1.362561 -0.956910 -0.286191 0.049169
0.183073 -0.069111 -1.361570 -0.958129 -0.282541 0.046462
0.183100 -0.069188 -1.361210 -0.958129 -0.282541 0.046462
0.184004 -0.070604 -1.367480 -0.955515 -0.288817 0.059799
0.183843 -0.070092 -1.366913 -0.956789 -0.285136 0.057027
0.183931 -0.070455 -1.366516 -0.955877 -0.288159 0.057124
0.183442 -0.069639 -1.368150 -0.958021 -0.280427 0.059638
0.183351 -0.069385 -1.367453 -0.958370 -0.279788 0.056970
0.183090 -0.068998 -1.366284 -0.958576 -0.279111 0.056833
0.183292 -0.070142 -1.364391 -0.956359 -0.287541 0.051935
0.183184 -0.069529 -1.364095 -0.957477 -0.283837 0.051721
0.183173 -0.069287 -1.366081 -0.958710 -0.279150 0.054314
0.183096 -0.068621 -1.365219 -0.959783 -0.275482 0.054090
0.182974 -0.068101 -1.364939 -0.960768 -0.272532 0.051492
0.182920 -0.068383 -1.366600 -0.960312 -0.273116 0.056637
0.182722 -0.067891 -1.367163 -0.961162 -0.270131 0.056539
0.182752 -0.067418 -1.368931 -0.962317 -0.265424 0.059123
0.182533 -0.067448 -1.368176 -0.961672 -0.267760 0.059083
0.182401 -0.067198 -1.367538 -0.962642 -0.264821 0.056478
0.182378 -0.066828 -1.367774 -0.963460 -0.261851 0.056379
0.182243 -0.066554 -1.367495 -0.963639 -0.261220 0.056244
0.182737 -0.067531 -1.365535 -0.961486 -0.269517 0.053903
0.182565 -0.067051 -1.365462 -0.962319 -0.266546 0.053810
0.182400 -0.066759 -1.366337 -0.963140 -0.263583 0.053716
0.182130 -0.066631 -1.366799 -0.963639 -0.261220 0.056244
0.182384 -0.066528 -1.365549 -0.963140 -0.263583 0.053716
0.183133 -0.068907 -1.364141 -0.959042 -0.278513 0.051670
0.182821 -0.067357 -1.363859 -0.961921 -0.268938 0.048784
0.182982 -0.068311 -1.362990 -0.960229 -0.274889 0.048953
0.182957 -0.068876 -1.360649 -0.958443 -0.281895 0.043850
0.182973 -0.068669 -1.361363 -0.959009 -0.279554 0.046383
0.182837 -0.067360 -1.363201 -0.961921 -0.268938 0.048784
0.182234 -0.065895 -1.364782 -0.964872 -0.257714 0.051045
0.182762 -0.066573 -1.363288 -0.962931 -0.265336 0.048583
0.182432 -0.065586 -1.363172 -0.965332 -0.256513 0.048329
0.182364 -0.065893 -1.364118 -0.964370 -0.260069 0.048530
0.182778 -0.067301 -1.362154 -0.961575 -0.270638 0.046146
0.182647 -0.066319 -1.361489 -0.963511 -0.264128 0.043401
0.182611 -0.065891 -1.361288 -0.964314 -0.261194 0.043326
0.182334 -0.065244 -1.362909 -0.965612 -0.255930 0.045746
0.182458 -0.065297 -1.362198 -0.965612 -0.255930 0.045746
0.182545 -0.065507 -1.361917 -0.964935 -0.258885 0.043354
0.182469 -0.064745 -1.361609 -0.966491 -0.253040 0.043202
0.192622 -0.079070 -1.354919 -0.936887 -0.347617 0.037475
0.193811 -0.077505 -1.354341 -0.939478 -0.340577 0.037271
0.193813 -0.078288 -1.355056 -0.938038 -0.344506 0.037418
0.193477 -0.078518 -1.354977 -0.938038 -0.344506 0.037418
0.192745 -0.077337 -1.353744 -0.939865 -0.339787 0.034620
0.191797 -0.079127 -1.354657 -0.935723 -0.350734 0.037532
0.192160 -0.078876 -1.354522 -0.936887 -0.347617 0.037475
0.190737 -0.078937 -1.354354 -0.936887 -0.347617 0.037475
0.191555 -0.078511 -1.354091 -0.937202 -0.346778 0.037385
0.192271 -0.077328 -1.353584 -0.939865 -0.339787 0.034620
0.191487 -0.077359 -1.353437 -0.939865 -0.339787 0.034620
0.190231 -0.078969 -1.354439 -0.936887 -0.347617 0.037475
0.188472 -0.078667 -1.355113 -0.936793 -0.347583 0.040056
0.189822 -0.078311 -1.354109 -0.938038 -0.344506 0.037418
0.189237 -0.078159 -1.354196 -0.938347 -0.343674 0.037328
0.188705 -0.077646 -1.354093 -0.939478 -0.340577 0.037271
0.188235 -0.078874 -1.355510 -0.936793 -0.347583 0.040056
0.187992 -0.077954 -1.355006 -0.939175 -0.341401 0.037361
0.187043 -0.077260 -1.356220 -0.940205 -0.338268 0.039872
0.187592 -0.076814 -1.354503 -0.941408 -0.335208 0.037245
0.189363 -0.076846 -1.353451 -0.940976 -0.336703 0.034566
0.188819 -0.076906 -1.353564 -0.940976 -0.336703 0.034566
0.194160 -0.077556 -1.354740 -0.939478 -0.340577 0.037271
0.193762 -0.076493 -1.353708 -0.941785 -0.334430 0.034596
0.193102 -0.077125 -1.353760 -0.940682 -0.337516 0.034650
0.193000 -0.076813 -1.353610 -0.940976 -0.336703 0.034566
0.194795 -0.076934 -1.355337 -0.941408 -0.335208 0.037245
0.194909 -0.076142 -1.355716 -0.942411 -0.332088 0.039748
0.194602 -0.076203 -1.354414 -0.942789 -0.331319 0.037098
0.194422 -0.076294 -1.354159 -0.942876 -0.331350 0.034542
0.193328 -0.076112 -1.353459 -0.942876 -0.331350 0.034542
0.193005 -0.075491 -1.353465 -0.944229 -0.327486 0.034405
0.191687 -0.076657 -1.353333 -0.941785 -0.334430 0.034596
0.191234 -0.076344 -1.353235 -0.942074 -0.333625 0.034513
0.190232 -0.076471 -1.353226 -0.942074 -0.333625 0.034513
0.191724 -0.074855 -1.353179 -0.945367 -0.324453 0.031809
0.190336 -0.075426 -1.352986 -0.944309 -0.327513 0.031859
0.190319 -0.074681 -1.352807 -0.945636 -0.323674 0.031733
0.194637 -0.075180 -1.355808 -0.944655 -0.325964 0.037070
0.194547 -0.074871 -1.354442 -0.946065 -0.322146 0.034379
0.194571 -0.074819 -1.354209 -0.946065 -0.322146 0.034379
0.194498 -0.074973 -1.354735 -0.944929 -0.325178 0.036981
0.194303 -0.074563 -1.354753 -0.945980 -0.322117 0.036922
0.194200 -0.074406 -1.354972 -0.946753 -0.319832 0.036953
0.194140 -0.074305 -1.354585 -0.947102 -0.319091 0.034325
0.194027 -0.074041 -1.355655 -0.947783 -0.316776 0.036894
0.193897 -0.073820 -1.355231 -0.948041 -0.316014 0.036805
0.193658 -0.073288 -1.355539 -0.949051 -0.312972 0.036746
0.194526 -0.074840 -1.353556 -0.945287 -0.324426 0.034351
0.194147 -0.074434 -1.353616 -0.946332 -0.321372 0.034297
0.193188 -0.074889 -1.353422 -0.945287 -0.324426 0.034351
0.192878 -0.074616 -1.353411 -0.946411 -0.321399 0.031759
0.193574 -0.074151 -1.353516 -0.947442 -0.318351 0.031708
0.193347 -0.073878 -1.353510 -0.947442 -0.318351 0.031708
0.193413 -0.073621 -1.353506 -0.948461 -0.315309 0.031658
0.193452 -0.073411 -1.353551 -0.948461 -0.315309 0.031658
0.192283 -0.074078 -1.352946 -0.946675 -0.320628 0.031683
0.191219 -0.073713 -1.352513 -0.947701 -0.317587 0.031632
0.192589 -0.073263 -1.352760 -0.948714 -0.314554 0.031582
0.186940 -0.076343 -1.355976 -0.942411 -0.332088 0.039748
0.187385 -0.076652 -1.354691 -0.941699 -0.334399 0.037155
0.187055 -0.075858 -1.354906 -0.943586 -0.329039 0.037129
0.186833 -0.075619 -1.355839 -0.944563 -0.325932 0.039623
0.186622 -0.075165 -1.356199 -0.945348 -0.323644 0.039656
0.188862 -0.075974 -1.353127 -0.943158 -0.330552 0.034459
0.189459 -0.074293 -1.352501 -0.946675 -0.320628 0.031683
0.188577 -0.075149 -1.352662 -0.944584 -0.326727 0.031783
0.187839 -0.076330 -1.353515 -0.942074 -0.333625 0.034513
0.187565 -0.076236 -1.353652 -0.942074 -0.333625 0.034513
0.187258 -0.075959 -1.353931 -0.942876 -0.331350 0.034542
0.186970 -0.075524 -1.354736 -0.943866 -0.328246 0.037039
0.187074 -0.075700 -1.354015 -0.943952 -0.328276 0.034488
0.187615 -0.075874 -1.353166 -0.943158 -0.330552 0.034459
0.187391 -0.075631 -1.352986 -0.943519 -0.329786 0.031833
0.187352 -0.075225 -1.352659 -0.944584 -0.326727 0.031783
0.186929 -0.075370 -1.353981 -0.944229 -0.327486 0.034405
0.186590 -0.074548 -1.354290 -0.946065 -0.322146 0.034379
0.186311 -0.073936 -1.354138 -0.947363 -0.318324 0.034242
0.186289 -0.073923 -1.352936 -0.947442 -0.318351 0.031708
0.191656 -0.072831 -1.351986 -0.949787 -0.311550 0.029011
0.191680 -0.072574 -1.351886 -0.950033 -0.310805 0.028941
0.191899 -0.072424 -1.351933 -0.950033 -0.310805 0.028941
0.192123 -0.072074 -1.351862 -0.951015 -0.307792 0.028895
0.190636 -0.072702 -1.351677 -0.950033 -0.310805 0.028941
0.190229 -0.071723 -1.351237 -0.952050 -0.304807 0.026341
0.188882 -0.074120 -1.352390 -0.946675 -0.320628 0.031683
0.187204 -0.074294 -1.352327 -0.946675 -0.320628 0.031683
0.187317 -0.074950 -1.352533 -0.945367 -0.324453 0.031809
0.186865 -0.074090 -1.352293 -0.946675 -0.320628 0.031683
0.190003 -0.074113 -1.352441 -0.946675 -0.320628 0.031683
0.189868 -0.073870 -1.352290 -0.947774 -0.317612 0.029104
0.189177 -0.073589 -1.352255 -0.947774 -0.317612 0.029104
0.188967 -0.073309 -1.352234 -0.948787 -0.314578 0.029057
0.189652 -0.072936 -1.352105 -0.949038 -0.313825 0.028988
0.189120 -0.072588 -1.351985 -0.950033 -0.310805 0.028941
0.189336 -0.072406 -1.351866 -0.950033 -0.310805 0.028941
0.188130 -0.072736 -1.351922 -0.949787 -0.311550 0.029011
0.187245 -0.073411 -1.352056 -0.948031 -0.316852 0.029034
0.186606 -0.072519 -1.351775 -0.950033 -0.310805 0.028941
0.186312 -0.072411 -1.351750 -0.950033 -0.310805 0.028941
0.186478 -0.071435 -1.351421 -0.952284 -0.304080 0.026279
0.186193 -0.074633 -1.356924 -0.946396 -0.320574 0.039593
0.186263 -0.075209 -1.357770 -0.945248 -0.323610 0.042210
0.186469 -0.075022 -1.356563 -0.945619 -0.322863 0.039560
0.186040 -0.074579 -1.357572 -0.946297 -0.320541 0.042143
0.186490 -0.074482 -1.355248 -0.946753 -0.319832 0.036953
0.185613 -0.073509 -1.357202 -0.948707 -0.313696 0.039371
0.185189 -0.072789 -1.357189 -0.950456 -0.308359 0.039338
0.185991 -0.073676 -1.356111 -0.948799 -0.313726 0.036834
0.185978 -0.073619 -1.356033 -0.948799 -0.313726 0.036834
0.185208 -0.072484 -1.356238 -0.950792 -0.307646 0.036715
0.185927 -0.073324 -1.355061 -0.949051 -0.312972 0.036746
0.185581 -0.072850 -1.355279 -0.950049 -0.309936 0.036686
0.185220 -0.072299 -1.355643 -0.951034 -0.306908 0.036627
0.185764 -0.072884 -1.354026 -0.949387 -0.312248 0.034132
0.185539 -0.072424 -1.353129 -0.950701 -0.308506 0.031480
0.185383 -0.072281 -1.354657 -0.951119 -0.306935 0.034104
0.185642 -0.072146 -1.352043 -0.951015 -0.307792 0.028895
0.185466 -0.072186 -1.352629 -0.950774 -0.308529 0.028964
0.185736 -0.071780 -1.351697 -0.951984 -0.304785 0.028848
0.193766 -0.073438 -1.356173 -0.948799 -0.313726 0.036834
0.193521 -0.072969 -1.356328 -0.949802 -0.310683 0.036775
0.193410 -0.072732 -1.356668 -0.950701 -0.307617 0.039243
0.193036 -0.071862 -1.356889 -0.952409 -0.302292 0.039209
0.192685 -0.071571 -1.355082 -0.952326 -0.303184 0.033967
0.192634 -0.071770 -1.353927 -0.952405 -0.303209 0.031453
0.192521 -0.071477 -1.354229 -0.952326 -0.303184 0.033967
0.192808 -0.071296 -1.357222 -0.953595 -0.298550 0.039051
0.192673 -0.070978 -1.357336 -0.954310 -0.296252 0.039080
0.192315 -0.070270 -1.356614 -0.955552 -0.292567 0.036414
0.192245 -0.070297 -1.356155 -0.955552 -0.292567 0.036414
0.192189 -0.069797 -1.357672 -0.956375 -0.289545 0.038857
0.191979 -0.069479 -1.356433 -0.956678 -0.288879 0.036266
0.192229 -0.070505 -1.355724 -0.954931 -0.294887 0.033881
0.192079 -0.070129 -1.355756 -0.955853 -0.291892 0.033824
0.191958 -0.070501 -1.354191 -0.954524 -0.296490 0.031275
0.191740 -0.069743 -1.355202 -0.956069 -0.291195 0.033744
0.191330 -0.068625 -1.355006 -0.958745 -0.282277 0.033575
0.192531 -0.072164 -1.352227 -0.951015 -0.307792 0.028895
0.191892 -0.071550 -1.351319 -0.952050 -0.304807 0.026341
0.192275 -0.071288 -1.351678 -0.953007 -0.301806 0.026298
0.191996 -0.070942 -1.351923 -0.953659 -0.299507 0.028823
0.191968 -0.070791 -1.352669 -0.953885 -0.298792 0.028754
0.191756 -0.070427 -1.352254 -0.954817 -0.295806 0.028707
0.191854 -0.070722 -1.351625 -0.953951 -0.298813 0.026256
0.191466 -0.069877 -1.352161 -0.955736 -0.292827 0.028660
0.191756 -0.070180 -1.353256 -0.955519 -0.293526 0.028728
0.191272 -0.069474 -1.351984 -0.956708 -0.289874 0.026126
0.191135 -0.069143 -1.351429 -0.956918 -0.289185 0.026064
0.190991 -0.068369 -1.352578 -0.958421 -0.283931 0.028517
0.191023 -0.068375 -1.352873 -0.958421 -0.283931 0.028517
0.190807 -0.069202 -1.350672 -0.956977 -0.289203 0.023583
0.190667 -0.067837 -1.351436 -0.959553 -0.280333 0.025934
0.190669 -0.068218 -1.351141 -0.958745 -0.283294 0.023505
0.189822 -0.071099 -1.350995 -0.953007 -0.301806 0.026298
0.190177 -0.071103 -1.350943 -0.953007 -0.301806 0.026298
0.188959 -0.070997 -1.351178 -0.953236 -0.301087 0.026236
0.189686 -0.070379 -1.350877 -0.954175 -0.298102 0.026193
0.188394 -0.070044 -1.351123 -0.955101 -0.295123 0.026150
0.188105 -0.069972 -1.351202 -0.955101 -0.295123 0.026150
0.186334 -0.071362 -1.351419 -0.952284 -0.304080 0.026279
0.187136 -0.069097 -1.350585 -0.956977 -0.289203 0.023583
0.186881 -0.069472 -1.350924 -0.956075 -0.292169 0.023622
0.185876 -0.069402 -1.350820 -0.956075 -0.292169 0.023622
0.187030 -0.069099 -1.350573 -0.956977 -0.289203 0.023583
0.186156 -0.069118 -1.350639 -0.956977 -0.289203 0.023583
0.189691 -0.069023 -1.350748 -0.956977 -0.289203 0.023583
0.188212 -0.068768 -1.350605 -0.957867 -0.286245 0.023544
0.189337 -0.067119 -1.350605 -0.960656 -0.276757 0.023371
0.186723 -0.068161 -1.350491 -0.958944 -0.282623 0.023449
0.186151 -0.067700 -1.350486 -0.959806 -0.279687 0.023410
0.187638 -0.067150 -1.350661 -0.960656 -0.276757 0.023371
0.191981 -0.069161 -1.358002 -0.957962 -0.284258 0.038819
0.191544 -0.068327 -1.356831 -0.959333 -0.279961 0.036084
0.191549 -0.068202 -1.357429 -0.959999 -0.277665 0.036109
0.191127 -0.067209 -1.357160 -0.961693 -0.271756 0.035986
0.191276 -0.067897 -1.355838 -0.960277 -0.277027 0.033541
0.191240 -0.068464 -1.354762 -0.958822 -0.282299 0.031090
0.190951 -0.067948 -1.353863 -0.959956 -0.278697 0.028489
0.191388 -0.068034 -1.356363 -0.959999 -0.277665 0.036109
0.190620 -0.066361 -1.355102 -0.963042 -0.267580 0.030827
0.190695 -0.066855 -1.354500 -0.961577 -0.272796 0.030859
0.190802 -0.066199 -1.357841 -0.963340 -0.265877 0.035862
0.190810 -0.066158 -1.358365 -0.963251 -0.265852 0.038332
0.190809 -0.065983 -1.359089 -0.963882 -0.263552 0.038357
0.190928 -0.066682 -1.356829 -0.962704 -0.268173 0.035839
0.190696 -0.066079 -1.356890 -0.963517 -0.265245 0.035777
0.190219 -0.064855 -1.356775 -0.965969 -0.256528 0.033140
0.189947 -0.064303 -1.355741 -0.966970 -0.253050 0.030562
0.190339 -0.065442 -1.355309 -0.964648 -0.261745 0.030721
0.190474 -0.065529 -1.356295 -0.964572 -0.261725 0.033176
0.189969 -0.064299 -1.356074 -0.966895 -0.253031 0.033004
0.190765 -0.067744 -1.352370 -0.960215 -0.278054 0.025952
0.190530 -0.066955 -1.352216 -0.961249 -0.274467 0.025847
0.190446 -0.066667 -1.352251 -0.961896 -0.272188 0.025864
0.190412 -0.066116 -1.354176 -0.963291 -0.266966 0.028296
0.190492 -0.066331 -1.354281 -0.962475 -0.269887 0.028344
0.190327 -0.066074 -1.353369 -0.963291 -0.266966 0.028296
0.190552 -0.067087 -1.351914 -0.961249 -0.274467 0.025847
0.190345 -0.066350 -1.352354 -0.962720 -0.269266 0.025820
0.189903 -0.066488 -1.350723 -0.962138 -0.271561 0.023347
0.190236 -0.066549 -1.351204 -0.962138 -0.271561 0.023347
0.190102 -0.066154 -1.351418 -0.962957 -0.268647 0.023307
0.189149 -0.065995 -1.350686 -0.963187 -0.268028 0.020806
0.190109 -0.065732 -1.352397 -0.963706 -0.265723 0.025715
0.189844 -0.064371 -1.354296 -0.966439 -0.255355 0.028101
0.190206 -0.065601 -1.353584 -0.964095 -0.264051 0.028247
0.190195 -0.065796 -1.352795 -0.963531 -0.266352 0.025776
0.189725 -0.064151 -1.353588 -0.966663 -0.254770 0.025599
0.189841 -0.064201 -1.355147 -0.966970 -0.253050 0.030562
0.189605 -0.063901 -1.353416 -0.967417 -0.251894 0.025554
0.189702 -0.064358 -1.352476 -0.966060 -0.257048 0.025583
0.189480 -0.063984 -1.351860 -0.966879 -0.254186 0.023108
0.189473 -0.063587 -1.353163 -0.967573 -0.251302 0.025494
0.189615 -0.064011 -1.352690 -0.966822 -0.254171 0.025539
0.189252 -0.063073 -1.352323 -0.968370 -0.248455 0.023028
0.184852 -0.072273 -1.357103 -0.951439 -0.305322 0.039274
0.184814 -0.071613 -1.355777 -0.952734 -0.301594 0.036595
0.184608 -0.071759 -1.357084 -0.952643 -0.301565 0.039115
0.184346 -0.071054 -1.356701 -0.953686 -0.298578 0.036535
0.184241 -0.071288 -1.357644 -0.953366 -0.299268 0.039145
0.183682 -0.070364 -1.357873 -0.955242 -0.293243 0.039015
0.185105 -0.071632 -1.353731 -0.952405 -0.303209 0.031453
0.184668 -0.071192 -1.355130 -0.953281 -0.300177 0.033911
0.184310 -0.070497 -1.354884 -0.954931 -0.294887 0.033881
0.183303 -0.069667 -1.358794 -0.956971 -0.287217 0.041389
0.183607 -0.069923 -1.357015 -0.956466 -0.289572 0.036353
0.183599 -0.069133 -1.355940 -0.957659 -0.285924 0.033712
0.182949 -0.068017 -1.357144 -0.959999 -0.277665 0.036109
0.183238 -0.068111 -1.355422 -0.959613 -0.279318 0.033518
0.183082 -0.069245 -1.359308 -0.957658 -0.284913 0.041419
0.183136 -0.069402 -1.359225 -0.957658 -0.284913 0.041419
0.183028 -0.068610 -1.358329 -0.958844 -0.281277 0.038754
0.184411 -0.070623 -1.354046 -0.954300 -0.297200 0.031350
0.184744 -0.071100 -1.353474 -0.953359 -0.300201 0.031402
0.184644 -0.070862 -1.353002 -0.953659 -0.299507 0.028823
0.184194 -0.070183 -1.353808 -0.955230 -0.294206 0.031298
0.184134 -0.070062 -1.353812 -0.955448 -0.293504 0.031224
0.183875 -0.069410 -1.353855 -0.957051 -0.288238 0.031195
0.185914 -0.070874 -1.351395 -0.953236 -0.301087 0.026236
0.185418 -0.070341 -1.351345 -0.954882 -0.295826 0.026212
0.184906 -0.070545 -1.351737 -0.953951 -0.298813 0.026256
0.184730 -0.070193 -1.351593 -0.954882 -0.295826 0.026212
0.184836 -0.069212 -1.350864 -0.956977 -0.289203 0.023583
0.186019 -0.068825 -1.350525 -0.957185 -0.288518 0.023527
0.183719 -0.069149 -1.354832 -0.956973 -0.288215 0.033687
0.183702 -0.068999 -1.354071 -0.957943 -0.285265 0.031142
0.183240 -0.067894 -1.354856 -0.959690 -0.279341 0.031038
0.183136 -0.067491 -1.354660 -0.960546 -0.276389 0.030985
0.183707 -0.068634 -1.352712 -0.958421 -0.283931 0.028517
0.183598 -0.068065 -1.352617 -0.959291 -0.280980 0.028469
0.183883 -0.068298 -1.351557 -0.958686 -0.283276 0.025977
0.183529 -0.068071 -1.352959 -0.959291 -0.280980 0.028469
0.183198 -0.067509 -1.353277 -0.960150 -0.278036 0.028421
0.183187 -0.067098 -1.352324 -0.961061 -0.275118 0.025908
0.182981 -0.066559 -1.352261 -0.962080 -0.271545 0.025803
0.182774 -0.067319 -1.356556 -0.961042 -0.274052 0.035962
0.182677 -0.067503 -1.358422 -0.960763 -0.274681 0.038530
0.182732 -0.067521 -1.359884 -0.961132 -0.273006 0.041138
0.182556 -0.066056 -1.359737 -0.963788 -0.263526 0.040828
0.182552 -0.067000 -1.358233 -0.962250 -0.269430 0.038490
0.182538 -0.066446 -1.355861 -0.962786 -0.268196 0.033370
0.182368 -0.066445 -1.358118 -0.963251 -0.265852 0.038332
0.182096 -0.065653 -1.358100 -0.964145 -0.262949 0.035801
0.182269 -0.066189 -1.357941 -0.963340 -0.265877 0.035862
0.182363 -0.066360 -1.356727 -0.962786 -0.268196 0.033370
0.182154 -0.065822 -1.357097 -0.964145 -0.262949 0.035801
0.182185 -0.065758 -1.356596 -0.964401 -0.262347 0.033255
0.182570 -0.066055 -1.360083 -0.963788 -0.263526 0.040828
0.182493 -0.066317 -1.359121 -0.963072 -0.266487 0.038424
0.182282 -0.065463 -1.359284 -0.964681 -0.260624 0.038291
0.182021 -0.064969 -1.358502 -0.965634 -0.257092 0.038133
0.181975 -0.065052 -1.356596 -0.965358 -0.258819 0.033119
0.181775 -0.064402 -1.356733 -0.966735 -0.253630 0.033082
0.181925 -0.064276 -1.358699 -0.967165 -0.251291 0.038000
0.181780 -0.063883 -1.358217 -0.967410 -0.250719 0.035468
0.182839 -0.067237 -1.355989 -0.961313 -0.273424 0.033405
0.182910 -0.067219 -1.355418 -0.961313 -0.273424 0.033405
0.182994 -0.066941 -1.353723 -0.961647 -0.272816 0.028393
0.182724 -0.066087 -1.353690 -0.963291 -0.266966 0.028296
0.182351 -0.064458 -1.352781 -0.966060 -0.257048 0.025583
0.182506 -0.066165 -1.355426 -0.963042 -0.267580 0.030827
0.182572 -0.065706 -1.353832 -0.964095 -0.264051 0.028247
0.182507 -0.065260 -1.353308 -0.964331 -0.263445 0.025732
0.182125 -0.065477 -1.356498 -0.964572 -0.261725 0.033176
0.182092 -0.065154 -1.356190 -0.965358 -0.258819 0.033119
0.182032 -0.065061 -1.356327 -0.965358 -0.258819 0.033119
0.182178 -0.064962 -1.355326 -0.965433 -0.258839 0.030668
0.181960 -0.064231 -1.355354 -0.966970 -0.253050 0.030562
0.181798 -0.063658 -1.355003 -0.967876 -0.249578 0.030436
0.181939 -0.064394 -1.355842 -0.966370 -0.255337 0.030543
0.181783 -0.063705 -1.355472 -0.967722 -0.250168 0.030508
0.182062 -0.064084 -1.353402 -0.966663 -0.254770 0.025599
0.181607 -0.062957 -1.354858 -0.968831 -0.246149 0.027889
0.181726 -0.063318 -1.354443 -0.968098 -0.249009 0.027938
0.181801 -0.063163 -1.353865 -0.968161 -0.249025 0.025510
0.181731 -0.062668 -1.353743 -0.969042 -0.245587 0.025406
0.188076 -0.066935 -1.350494 -0.961494 -0.273835 0.023331
0.188953 -0.065634 -1.350674 -0.963990 -0.265128 0.020770
0.188355 -0.064837 -1.350633 -0.964949 -0.261619 0.020686
0.187741 -0.065685 -1.350478 -0.963363 -0.267397 0.020757
0.186847 -0.066305 -1.350750 -0.962320 -0.270921 0.023292
0.187129 -0.065899 -1.350595 -0.963187 -0.268028 0.020806
0.187013 -0.065344 -1.350632 -0.963990 -0.265128 0.020770
0.188535 -0.064726 -1.350672 -0.965562 -0.259350 0.020699
0.186464 -0.065369 -1.350867 -0.963990 -0.265128 0.020770
0.187354 -0.065181 -1.350591 -0.964162 -0.264505 0.020722
0.186412 -0.064356 -1.350994 -0.966331 -0.256473 0.020664
0.188223 -0.063496 -1.350968 -0.967245 -0.253009 0.020580
0.188229 -0.063404 -1.351002 -0.967835 -0.250741 0.020592
0.186963 -0.063329 -1.351159 -0.967835 -0.250741 0.020592
0.186660 -0.063547 -1.351087 -0.967245 -0.253009 0.020580
0.185292 -0.068185 -1.350518 -0.958745 -0.283294 0.023505
0.185139 -0.066754 -1.350441 -0.961546 -0.273850 0.020876
0.184597 -0.066883 -1.350565 -0.961494 -0.273835 0.023331
0.184503 -0.066458 -1.350563 -0.962372 -0.270935 0.020841
0.185529 -0.066372 -1.350597 -0.962372 -0.270935 0.020841
0.184866 -0.066091 -1.350526 -0.962552 -0.270297 0.020792
0.184835 -0.065650 -1.350712 -0.963363 -0.267397 0.020757
0.185831 -0.065931 -1.350812 -0.963135 -0.268013 0.023252
0.185488 -0.064875 -1.351040 -0.964730 -0.262221 0.023173
0.184885 -0.065066 -1.350988 -0.964730 -0.262221 0.023173
0.184420 -0.064371 -1.351411 -0.966118 -0.257063 0.023148
0.184095 -0.066356 -1.350730 -0.962320 -0.270921 0.023292
0.184039 -0.065770 -1.350833 -0.963135 -0.268013 0.023252
0.183856 -0.065044 -1.351277 -0.964730 -0.262221 0.023173
0.185107 -0.063964 -1.351210 -0.966491 -0.255872 0.020615
0.185117 -0.063651 -1.351224 -0.967088 -0.253603 0.020628
0.185701 -0.062720 -1.351364 -0.968720 -0.247307 0.020508
0.183601 -0.063888 -1.351956 -0.966879 -0.254186 0.023108
0.183509 -0.063790 -1.352033 -0.967037 -0.253589 0.023054
0.182962 -0.062320 -1.352474 -0.969816 -0.242756 0.022947
0.182156 -0.062457 -1.352673 -0.969816 -0.242756 0.022947
0.190616 -0.068298 -1.370449 -0.960139 -0.271976 0.064515
0.190049 -0.068058 -1.370577 -0.960991 -0.268977 0.064403
0.190900 -0.068009 -1.369990 -0.961144 -0.269019 0.061887
0.190908 -0.067279 -1.369314 -0.962171 -0.265383 0.061629
0.190896 -0.067094 -1.368730 -0.962503 -0.264782 0.058980
0.190612 -0.066707 -1.369256 -0.963140 -0.262446 0.059019
0.190507 -0.066162 -1.368206 -0.964127 -0.258851 0.058773
0.189829 -0.066013 -1.370090 -0.964604 -0.256477 0.061304
0.189984 -0.065677 -1.369484 -0.965391 -0.253525 0.061196
0.188416 -0.067842 -1.370757 -0.961642 -0.266631 0.064446
0.188557 -0.066922 -1.370236 -0.962994 -0.262407 0.061521
0.188128 -0.067013 -1.370290 -0.962811 -0.263043 0.061670
0.189099 -0.067237 -1.370471 -0.962659 -0.263001 0.064177
0.189204 -0.066384 -1.370234 -0.964430 -0.257098 0.061453
0.188542 -0.066076 -1.370033 -0.964604 -0.256477 0.061304
0.188280 -0.066734 -1.370145 -0.963626 -0.260066 0.061562
0.187540 -0.065645 -1.369862 -0.965391 -0.253525 0.061196
0.187482 -0.065703 -1.369877 -0.965391 -0.253525 0.061196
0.186711 -0.067419 -1.370436 -0.961831 -0.265985 0.064290
0.186787 -0.067098 -1.370288 -0.962811 -0.263043 0.061670
0.185639 -0.067122 -1.370163 -0.962811 -0.263043 0.061670
0.186925 -0.066334 -1.369985 -0.964430 -0.257098 0.061453
0.186115 -0.066908 -1.370076 -0.962994 -0.262407 0.061521
0.186843 -0.065980 -1.369858 -0.964604 -0.256477 0.061304
0.186798 -0.065148 -1.369642 -0.966167 -0.250580 0.061087
0.185884 -0.066646 -1.369937 -0.963626 -0.260066 0.061562
0.184928 -0.065793 -1.369728 -0.965221 -0.254137 0.061343
0.189199 -0.065387 -1.369986 -0.966000 -0.251185 0.061234
0.189071 -0.064421 -1.369741 -0.967682 -0.244716 0.060868
0.188378 -0.064955 -1.369815 -0.966768 -0.248241 0.061125
0.188431 -0.063514 -1.369583 -0.969295 -0.238919 0.058182
0.186862 -0.064329 -1.369434 -0.967826 -0.244752 0.058393
0.186102 -0.065859 -1.369670 -0.965221 -0.254137 0.061343
0.187103 -0.063992 -1.369402 -0.968566 -0.241831 0.058288
0.184070 -0.067224 -1.370228 -0.962811 -0.263043 0.061670
0.183077 -0.066838 -1.369808 -0.962994 -0.262407 0.061521
0.184116 -0.066519 -1.370073 -0.963805 -0.259438 0.061413
0.184748 -0.066667 -1.370144 -0.963626 -0.260066 0.061562
0.184838 -0.065702 -1.369712 -0.965391 -0.253525 0.061196
0.184813 -0.064898 -1.369410 -0.967074 -0.247681 0.058497
0.191193 -0.067393 -1.367214 -0.962000 -0.267153 0.056441
0.191239 -0.066961 -1.365897 -0.962959 -0.264219 0.053846
0.190804 -0.066561 -1.367494 -0.963639 -0.261220 0.056244
0.190611 -0.066107 -1.367641 -0.964441 -0.258266 0.056145
0.190620 -0.065716 -1.366791 -0.965363 -0.255354 0.053562
0.191934 -0.066416 -1.363713 -0.963566 -0.263017 0.048615
0.191415 -0.066576 -1.364474 -0.963446 -0.262985 0.051101
0.191656 -0.066597 -1.364355 -0.963446 -0.262985 0.051101
0.190966 -0.065133 -1.364544 -0.965824 -0.254164 0.050833
0.190530 -0.065171 -1.365499 -0.965824 -0.254164 0.050833
0.190854 -0.065000 -1.364533 -0.965824 -0.254164 0.050833
0.189821 -0.064850 -1.368251 -0.966613 -0.250050 0.055981
0.189688 -0.064613 -1.368405 -0.967235 -0.247086 0.058357
0.189959 -0.065016 -1.367850 -0.966613 -0.250050 0.055981
0.189422 -0.063601 -1.366704 -0.968558 -0.243065 0.053055
0.189467 -0.063446 -1.365687 -0.968834 -0.242516 0.050473
0.190074 -0.064659 -1.365434 -0.967192 -0.248919 0.050775
0.189644 -0.064128 -1.367102 -0.967819 -0.245972 0.053150
0.189102 -0.062683 -1.365833 -0.970270 -0.236741 0.050292
0.189304 -0.063004 -1.364984 -0.969557 -0.239624 0.050383
0.191389 -0.065485 -1.363448 -0.965332 -0.256513 0.048329
0.191224 -0.065455 -1.362431 -0.965444 -0.256543 0.045856
0.190931 -0.065029 -1.363190 -0.966221 -0.253618 0.045775
0.190121 -0.064199 -1.362163 -0.967251 -0.250130 0.043126
0.190736 -0.065385 -1.360578 -0.965205 -0.258294 0.040783
0.190659 -0.065488 -1.359863 -0.965205 -0.258294 0.040783
0.190230 -0.064273 -1.361455 -0.967251 -0.250130 0.043126
0.190078 -0.064098 -1.360787 -0.967509 -0.249561 0.040569
0.189669 -0.063709 -1.364687 -0.968370 -0.244861 0.047988
0.190096 -0.064417 -1.364421 -0.967470 -0.248354 0.048188
0.189411 -0.063051 -1.364229 -0.969675 -0.239653 0.047931
0.190019 -0.064073 -1.362620 -0.967739 -0.247791 0.045613
0.189701 -0.063395 -1.362693 -0.968634 -0.244307 0.045424
0.189630 -0.063309 -1.363073 -0.969212 -0.241996 0.045451
0.189442 -0.062885 -1.363195 -0.969932 -0.239111 0.045370
0.189166 -0.062622 -1.364664 -0.970387 -0.236770 0.047845
0.189161 -0.062260 -1.363055 -0.970781 -0.235674 0.045181
0.189471 -0.062839 -1.362068 -0.969612 -0.240875 0.042795
0.189653 -0.063142 -1.360991 -0.968988 -0.243778 0.040426
0.189272 -0.062304 -1.361242 -0.970423 -0.238028 0.040282
0.188981 -0.061523 -1.361176 -0.971813 -0.232311 0.040137
0.188536 -0.060412 -1.361591 -0.973818 -0.223797 0.039920
0.189458 -0.064246 -1.368625 -0.967983 -0.244165 0.058252
0.189262 -0.063985 -1.369000 -0.968566 -0.241831 0.058288
0.188877 -0.063448 -1.369359 -0.969295 -0.238919 0.058182
0.189022 -0.063181 -1.368495 -0.969580 -0.238381 0.055581
0.189419 -0.063896 -1.367936 -0.968274 -0.243614 0.055648
0.188780 -0.062589 -1.368226 -0.970437 -0.234922 0.055348
0.186186 -0.064261 -1.369190 -0.967826 -0.244752 0.058393
0.185629 -0.064453 -1.369200 -0.967826 -0.244752 0.058393
0.185847 -0.062997 -1.368822 -0.970158 -0.235451 0.057938
0.189046 -0.062775 -1.366717 -0.970003 -0.237276 0.052865
0.182558 -0.066894 -1.368768 -0.963140 -0.262446 0.059019
0.182377 -0.066528 -1.368235 -0.963321 -0.261813 0.058877
0.182036 -0.065948 -1.367501 -0.964441 -0.258266 0.056145
0.182055 -0.065949 -1.368031 -0.965060 -0.255934 0.056181
0.182881 -0.064838 -1.369229 -0.967074 -0.247681 0.058497
0.182005 -0.065119 -1.368991 -0.966311 -0.250617 0.058602
0.181772 -0.065006 -1.365374 -0.966431 -0.251843 0.050865
0.181278 -0.064586 -1.367691 -0.967372 -0.247121 0.055882
0.181257 -0.064362 -1.367844 -0.967531 -0.246528 0.055748
0.181168 -0.064422 -1.367230 -0.967531 -0.246528 0.055748
0.181516 -0.064682 -1.365889 -0.967068 -0.248887 0.053244
0.184429 -0.064077 -1.369085 -0.967983 -0.244165 0.058252
0.183943 -0.064332 -1.369160 -0.967826 -0.244752 0.058393
0.184556 -0.063384 -1.368799 -0.969444 -0.238347 0.058043
0.185225 -0.062899 -1.368630 -0.970293 -0.235484 0.055481
0.183787 -0.062817 -1.368673 -0.970293 -0.235484 0.055481
0.182192 -0.064430 -1.368983 -0.967235 -0.247086 0.058357
0.182750 -0.063914 -1.369104 -0.968566 -0.241831 0.058288
0.182155 -0.064302 -1.368982 -0.967826 -0.244752 0.058393
0.182831 -0.062760 -1.369064 -0.970158 -0.235451 0.057938
0.181501 -0.062080 -1.369099 -0.971552 -0.229684 0.057728
0.180781 -0.063330 -1.366736 -0.969286 -0.240166 0.052960
0.180646 -0.062894 -1.366473 -0.970003 -0.237276 0.052865
0.181084 -0.063077 -1.368308 -0.969727 -0.237811 0.055448
0.182107 -0.065596 -1.364680 -0.965043 -0.257096 0.050922
0.181779 -0.064983 -1.365184 -0.966431 -0.251843 0.050865
0.181354 -0.063680 -1.364351 -0.968370 -0.244861 0.047988
0.181210 -0.063421 -1.364595 -0.968951 -0.242546 0.048017
0.182157 -0.064840 -1.363221 -0.966221 -0.253618 0.045775
0.182189 -0.064318 -1.362519 -0.967146 -0.250103 0.045585
0.182399 -0.064306 -1.361318 -0.967251 -0.250130 0.043126
0.181484 -0.063516 -1.363819 -0.968951 -0.242546 0.048017
0.181844 -0.062915 -1.361812 -0.969612 -0.240875 0.042795
0.180937 -0.063521 -1.366107 -0.968558 -0.243065 0.053055
0.181085 -0.062768 -1.364409 -0.970387 -0.236770 0.047845
0.180803 -0.062164 -1.365027 -0.971088 -0.233894 0.047758
0.181069 -0.062043 -1.363192 -0.971338 -0.233365 0.045207
0.181349 -0.062342 -1.362719 -0.970781 -0.235674 0.045181
0.181002 -0.061692 -1.362916 -0.971475 -0.232813 0.045100
0.181029 -0.061502 -1.362728 -0.972262 -0.229984 0.042590
0.180698 -0.061601 -1.364147 -0.971914 -0.230479 0.047559
0.180618 -0.061211 -1.363292 -0.972700 -0.227653 0.045044
0.180460 -0.060724 -1.363111 -0.973492 -0.224279 0.044856
0.188592 -0.061961 -1.367609 -0.971823 -0.229169 0.055148
0.188338 -0.061689 -1.368425 -0.972367 -0.226845 0.055178
0.187028 -0.062774 -1.369217 -0.970158 -0.235451 0.057938
0.185775 -0.062654 -1.368708 -0.970293 -0.235484 0.055481
0.185460 -0.061600 -1.368556 -0.972367 -0.226845 0.055178
0.186103 -0.062110 -1.368752 -0.971687 -0.229716 0.055279
0.187229 -0.061267 -1.369084 -0.972902 -0.223951 0.057517
0.188787 -0.061953 -1.365527 -0.971663 -0.230999 0.050111
0.188319 -0.060977 -1.365926 -0.973011 -0.225291 0.049929
0.188446 -0.061137 -1.365482 -0.973011 -0.225291 0.049929
0.188278 -0.060923 -1.366111 -0.973543 -0.222977 0.049957
0.187595 -0.060129 -1.368432 -0.974465 -0.217764 0.054745
0.187754 -0.059975 -1.367312 -0.974713 -0.217277 0.052195
0.187858 -0.060154 -1.367097 -0.974592 -0.217793 0.052319
0.187840 -0.059831 -1.366090 -0.974954 -0.216791 0.049656
0.187586 -0.059507 -1.367027 -0.975344 -0.214454 0.052099
0.187317 -0.059321 -1.368107 -0.975722 -0.212113 0.054543
0.185935 -0.059449 -1.368645 -0.975722 -0.212113 0.054543
0.187258 -0.058776 -1.367138 -0.976572 -0.208834 0.051907
0.185109 -0.062691 -1.368565 -0.970293 -0.235484 0.055481
0.182361 -0.062583 -1.369114 -0.970718 -0.233120 0.057972
0.182653 -0.061581 -1.368806 -0.972367 -0.226845 0.055178
0.181149 -0.061940 -1.368916 -0.971552 -0.229684 0.057728
0.181843 -0.061920 -1.369120 -0.971552 -0.229684 0.057728
0.184922 -0.061753 -1.368405 -0.971823 -0.229169 0.055148
0.184214 -0.061218 -1.368208 -0.973036 -0.223982 0.055077
0.181655 -0.061051 -1.368636 -0.973036 -0.223982 0.055077
0.181482 -0.060576 -1.368094 -0.973821 -0.220603 0.054846
0.184669 -0.060347 -1.368088 -0.974342 -0.218282 0.054875
0.185271 -0.060376 -1.368338 -0.974342 -0.218282 0.054875
0.185450 -0.059858 -1.368426 -0.975099 -0.214935 0.054644
0.183638 -0.059824 -1.367872 -0.975225 -0.214962 0.052223
0.184565 -0.058607 -1.368029 -0.977062 -0.206524 0.051933
0.182453 -0.059710 -1.367590 -0.975225 -0.214962 0.052223
0.182100 -0.059812 -1.367468 -0.975225 -0.214962 0.052223
0.183903 -0.058836 -1.367785 -0.976572 -0.208834 0.051907
0.182989 -0.059134 -1.367604 -0.975963 -0.211640 0.052003
0.188770 -0.061808 -1.364940 -0.971779 -0.231027 0.047672
0.188269 -0.060716 -1.365371 -0.973785 -0.222475 0.047413
0.187974 -0.060108 -1.365831 -0.974317 -0.219616 0.049747
0.188700 -0.061371 -1.363676 -0.972158 -0.229960 0.045019
0.188666 -0.061177 -1.363328 -0.972700 -0.227653 0.045044
0.188315 -0.060061 -1.362279 -0.974368 -0.220953 0.042259
0.188286 -0.059883 -1.362007 -0.974368 -0.220953 0.042259
0.187603 -0.059296 -1.366204 -0.975581 -0.213975 0.049565
0.187819 -0.059766 -1.365668 -0.974954 -0.216791 0.049656
0.187676 -0.059295 -1.365065 -0.975811 -0.213496 0.047042
0.187709 -0.059399 -1.365178 -0.975695 -0.214000 0.047153
0.186938 -0.057702 -1.365785 -0.978097 -0.202820 0.046805
0.186849 -0.057653 -1.366417 -0.978458 -0.200494 0.049223
0.187683 -0.058968 -1.364157 -0.976033 -0.213018 0.044529
0.187892 -0.059111 -1.362448 -0.975632 -0.215337 0.042105
0.187339 -0.058033 -1.362909 -0.977450 -0.206975 0.041874
0.187309 -0.058068 -1.363518 -0.977343 -0.207460 0.041972
0.187155 -0.057609 -1.362722 -0.978035 -0.204205 0.041796
0.187008 -0.057413 -1.363395 -0.978510 -0.201915 0.041817
0.181194 -0.059564 -1.367023 -0.975344 -0.214454 0.052099
0.180340 -0.059701 -1.363194 -0.974783 -0.218632 0.044693
0.180875 -0.059518 -1.363139 -0.975515 -0.215843 0.042204
0.181388 -0.058726 -1.363671 -0.976642 -0.210224 0.044447
0.181389 -0.059052 -1.362979 -0.976135 -0.213041 0.042127
0.182002 -0.058934 -1.367057 -0.976572 -0.208834 0.051907
0.180870 -0.059274 -1.366290 -0.976083 -0.211666 0.049590
0.181557 -0.058482 -1.365791 -0.976916 -0.208393 0.046979
0.182154 -0.058616 -1.367090 -0.976572 -0.208834 0.051907
0.182282 -0.058008 -1.366956 -0.977879 -0.203274 0.049315
0.183354 -0.057727 -1.367539 -0.978339 -0.200469 0.051618
0.183062 -0.057702 -1.367358 -0.978339 -0.200469 0.051618
0.182106 -0.058055 -1.366569 -0.977879 -0.203274 0.049315
0.182133 -0.057678 -1.365932 -0.978097 -0.202820 0.046805
0.181748 -0.058412 -1.366140 -0.977291 -0.206063 0.049407
0.181939 -0.057791 -1.364833 -0.978200 -0.202345 0.046695
0.181614 -0.058426 -1.363265 -0.976854 -0.209754 0.041951
0.181812 -0.058079 -1.364205 -0.977725 -0.205142 0.044388
0.182109 -0.057305 -1.364603 -0.978879 -0.199600 0.044223
0.186550 -0.058591 -1.368710 -0.976937 -0.206497 0.054341
0.186778 -0.057728 -1.367668 -0.978236 -0.200941 0.051739
0.186248 -0.056359 -1.367323 -0.980133 -0.192206 0.048947
0.186162 -0.056439 -1.367788 -0.980016 -0.192183 0.051328
0.185963 -0.056138 -1.367970 -0.980555 -0.189439 0.051232
0.185294 -0.058220 -1.368376 -0.977529 -0.203702 0.054240
0.184504 -0.057447 -1.368138 -0.978808 -0.198163 0.051643
0.185121 -0.056797 -1.368378 -0.979467 -0.194937 0.051425
0.184737 -0.056849 -1.368253 -0.979467 -0.194937 0.051425
0.184438 -0.056575 -1.368107 -0.979921 -0.192634 0.051449
0.185684 -0.055881 -1.368196 -0.980995 -0.187140 0.051255
0.186544 -0.056874 -1.366294 -0.979125 -0.197260 0.049016
0.186768 -0.057224 -1.365425 -0.978773 -0.199579 0.046608
0.186088 -0.055756 -1.366289 -0.980874 -0.189041 0.046369
0.186345 -0.056253 -1.365625 -0.980338 -0.191779 0.046456
0.186704 -0.056881 -1.364681 -0.979441 -0.196843 0.044140
0.186562 -0.056257 -1.363439 -0.980187 -0.193661 0.041584
0.186527 -0.056154 -1.363360 -0.980280 -0.193211 0.041487
0.186252 -0.055790 -1.364710 -0.981068 -0.188621 0.043893
0.186299 -0.055685 -1.363835 -0.980816 -0.190484 0.041410
0.186097 -0.055157 -1.363793 -0.981777 -0.185486 0.041350
0.186013 -0.055923 -1.367508 -0.980672 -0.189462 0.048855
0.185928 -0.055503 -1.366813 -0.981289 -0.186291 0.048649
0.185911 -0.055380 -1.366539 -0.981289 -0.186291 0.048649
0.185665 -0.054742 -1.366212 -0.982424 -0.180880 0.046107
0.186028 -0.055398 -1.365580 -0.981487 -0.185879 0.046174
0.185768 -0.054804 -1.365530 -0.982001 -0.183165 0.046087
0.185823 -0.054739 -1.364817 -0.982189 -0.182760 0.043627
0.185836 -0.054593 -1.364021 -0.982370 -0.182356 0.041177
0.185686 -0.054357 -1.364523 -0.982691 -0.180062 0.043544
0.185103 -0.053020 -1.364624 -0.984704 -0.169374 0.040883
0.183314 -0.057402 -1.367470 -0.978808 -0.198163 0.051643
0.183200 -0.055644 -1.367387 -0.981201 -0.186726 0.048763
0.182295 -0.056920 -1.365772 -0.979237 -0.197282 0.046630
0.182410 -0.056335 -1.365615 -0.980338 -0.191779 0.046456
0.182541 -0.055956 -1.366336 -0.980874 -0.189041 0.046369
0.182648 -0.055439 -1.365237 -0.981592 -0.185899 0.043810
0.182989 -0.054821 -1.364215 -0.982287 -0.182779 0.041273
0.183925 -0.054628 -1.367879 -0.982616 -0.178550 0.050845
0.184850 -0.054255 -1.367991 -0.983108 -0.175850 0.050749
0.184457 -0.054380 -1.368032 -0.982616 -0.178550 0.050845
0.185415 -0.054116 -1.366074 -0.983001 -0.177764 0.045913
0.183553 -0.054756 -1.367713 -0.982231 -0.181280 0.048578
0.182775 -0.055003 -1.366838 -0.981807 -0.183571 0.048557
0.183588 -0.054397 -1.367773 -0.982732 -0.178571 0.048486
0.183574 -0.053816 -1.367774 -0.983705 -0.173179 0.048302
0.183325 -0.054174 -1.367615 -0.983223 -0.175871 0.048394
0.183558 -0.052915 -1.367438 -0.984713 -0.167436 0.048006
0.183282 -0.053742 -1.365093 -0.983591 -0.175096 0.043480
0.183104 -0.054099 -1.365664 -0.983001 -0.177764 0.045913
0.184933 -0.053054 -1.366239 -0.984433 -0.169730 0.045651
0.182839 -0.054646 -1.366350 -0.982424 -0.180880 0.046107
0.183041 -0.054476 -1.364966 -0.982610 -0.180479 0.043645
0.183565 -0.053016 -1.364678 -0.984607 -0.169357 0.043215
0.184655 -0.053433 -1.367867 -0.984178 -0.170497 0.048209
0.184471 -0.052955 -1.367762 -0.984642 -0.167823 0.048117
0.183639 -0.053027 -1.367644 -0.984642 -0.167823 0.048117
0.183552 -0.052893 -1.367299 -0.984713 -0.167436 0.048006
0.184768 -0.052645 -1.365918 -0.984892 -0.167069 0.045564
0.183594 -0.052675 -1.365876 -0.984892 -0.167069 0.045564
0.183488 -0.052999 -1.365627 -0.984535 -0.169747 0.043315
0.183834 -0.052443 -1.365142 -0.985063 -0.166703 0.043133
0.184338 -0.052197 -1.365319 -0.985511 -0.164058 0.043051
0.184317 -0.052158 -1.365032 -0.985511 -0.164058 0.043051
0.183577 -0.052758 -1.366838 -0.984821 -0.167455 0.045669
0.180737 -0.062811 -1.367832 -0.970293 -0.235484 0.055481
0.180230 -0.061903 -1.366550 -0.971403 -0.231520 0.052674
0.180202 -0.061698 -1.365693 -0.972209 -0.228683 0.050139
0.180137 -0.061418 -1.365913 -0.972342 -0.228141 0.050020
0.180634 -0.061451 -1.368078 -0.972500 -0.226305 0.055047
0.180401 -0.061143 -1.367088 -0.972760 -0.225797 0.052483
0.180900 -0.060408 -1.367816 -0.973948 -0.220631 0.052415
0.180467 -0.060381 -1.367163 -0.974073 -0.220109 0.052291
0.180375 -0.060338 -1.367098 -0.974073 -0.220109 0.052291
0.180445 -0.059648 -1.366486 -0.975464 -0.214481 0.049682
0.179883 -0.059527 -1.365574 -0.975695 -0.214000 0.047153
0.180712 -0.059046 -1.365284 -0.976311 -0.211192 0.047066
0.180045 -0.059322 -1.365594 -0.975695 -0.214000 0.047153
0.180156 -0.059210 -1.365608 -0.975695 -0.214000 0.047153
0.180102 -0.060050 -1.363901 -0.974663 -0.219148 0.044798
0.179917 -0.059717 -1.364922 -0.975069 -0.216817 0.047239
0.180462 -0.059358 -1.364485 -0.975811 -0.213496 0.047042
0.180315 -0.059277 -1.364937 -0.975811 -0.213496 0.047042
0.190525 -0.065221 -1.359684 -0.965373 -0.257679 0.040686
0.190165 -0.064517 -1.358336 -0.966493 -0.254211 0.035614
0.190042 -0.064106 -1.359827 -0.967666 -0.248968 0.040473
0.189831 -0.063622 -1.359671 -0.968500 -0.246104 0.037956
0.189886 -0.063779 -1.359376 -0.967914 -0.248403 0.037933
0.189635 -0.063189 -1.359558 -0.969230 -0.243224 0.037889
0.189856 -0.063788 -1.358985 -0.967914 -0.248403 0.037933
0.189789 -0.063582 -1.358474 -0.968001 -0.248425 0.035489
0.189564 -0.063069 -1.357487 -0.968968 -0.244984 0.032908
0.189424 -0.062655 -1.360389 -0.969856 -0.240329 0.040258
0.189565 -0.063034 -1.360076 -0.969137 -0.243201 0.040330
0.189221 -0.062134 -1.360232 -0.970564 -0.237466 0.040186
0.189353 -0.062525 -1.359911 -0.969949 -0.240352 0.037822
0.189409 -0.062650 -1.359204 -0.969949 -0.240352 0.037822
0.189025 -0.061615 -1.360429 -0.971948 -0.231763 0.040043
0.188836 -0.061126 -1.360734 -0.972623 -0.228924 0.039971
0.188888 -0.061293 -1.359428 -0.972173 -0.231239 0.037531
0.188768 -0.061017 -1.359347 -0.972845 -0.228407 0.037464
0.188563 -0.060505 -1.359615 -0.973506 -0.225583 0.037396
0.188994 -0.061491 -1.358398 -0.971711 -0.233550 0.035093
0.189281 -0.062350 -1.356973 -0.970402 -0.239260 0.032792
0.189044 -0.061672 -1.357743 -0.971239 -0.235855 0.032657
0.188513 -0.060352 -1.358322 -0.973716 -0.225074 0.034905
0.188717 -0.060837 -1.357609 -0.972600 -0.230194 0.032541
0.188606 -0.060578 -1.358049 -0.973138 -0.227910 0.032559
0.188885 -0.061369 -1.357046 -0.971925 -0.233021 0.032599
0.189575 -0.063298 -1.356065 -0.968462 -0.247293 0.030455
0.189305 -0.062744 -1.354860 -0.969407 -0.243868 0.027905
0.189472 -0.063375 -1.354229 -0.968098 -0.249009 0.027938
0.189139 -0.062176 -1.356006 -0.970617 -0.238716 0.030294
0.188786 -0.061444 -1.354570 -0.971653 -0.234786 0.027693
0.189418 -0.063417 -1.353535 -0.968161 -0.249025 0.025510
0.188971 -0.062221 -1.352321 -0.969959 -0.242189 0.022893
0.188484 -0.060816 -1.353053 -0.972579 -0.231452 0.022785
0.188733 -0.061440 -1.354114 -0.971714 -0.234801 0.025286
0.188742 -0.061575 -1.352611 -0.971219 -0.237088 0.022866
0.188997 -0.061836 -1.355788 -0.970757 -0.238156 0.030223
0.188635 -0.061004 -1.354942 -0.972331 -0.231965 0.027644
0.188465 -0.060433 -1.355672 -0.973532 -0.226877 0.027609
0.188671 -0.060799 -1.356915 -0.972674 -0.230212 0.030132
0.188565 -0.060528 -1.356738 -0.973338 -0.227393 0.030078
0.188216 -0.059850 -1.355693 -0.974182 -0.224074 0.027560
0.188224 -0.059958 -1.354721 -0.973718 -0.226363 0.025151
0.188472 -0.060650 -1.354422 -0.973061 -0.229167 0.025196
0.188179 -0.059967 -1.352873 -0.973898 -0.225849 0.022704
0.188419 -0.060095 -1.359822 -0.974157 -0.222768 0.037329
0.188395 -0.060025 -1.358414 -0.974364 -0.222265 0.034842
0.187578 -0.058196 -1.354111 -0.976356 -0.214727 0.024913
0.187543 -0.058078 -1.353497 -0.976521 -0.214243 0.022490
0.182377 -0.064416 -1.360707 -0.966752 -0.252464 0.040641
0.181976 -0.064311 -1.358990 -0.967006 -0.251889 0.038090
0.181974 -0.063052 -1.360671 -0.969137 -0.243201 0.040330
0.181689 -0.062701 -1.359871 -0.969949 -0.240352 0.037822
0.181765 -0.062615 -1.361547 -0.970324 -0.238004 0.042719
0.181606 -0.062321 -1.360119 -0.970656 -0.237488 0.037755
0.181665 -0.063851 -1.357337 -0.967491 -0.250740 0.033024
0.181461 -0.063095 -1.356966 -0.968968 -0.244984 0.032908
0.181449 -0.062415 -1.357900 -0.970321 -0.239241 0.035218
0.181583 -0.062783 -1.358414 -0.969464 -0.242671 0.035364
0.181454 -0.062127 -1.358812 -0.970883 -0.236949 0.035239
0.181345 -0.061699 -1.358554 -0.971576 -0.234100 0.035176
0.181299 -0.061585 -1.358246 -0.971711 -0.233550 0.035093
0.181479 -0.061895 -1.360442 -0.971262 -0.234610 0.040115
0.180794 -0.060711 -1.361992 -0.973063 -0.226604 0.042412
0.180822 -0.060651 -1.361807 -0.973063 -0.226604 0.042412
0.180816 -0.060546 -1.361856 -0.973721 -0.223774 0.042336
0.180900 -0.060484 -1.359623 -0.973506 -0.225583 0.037396
0.181058 -0.060530 -1.359173 -0.973591 -0.225603 0.034987
0.181198 -0.060597 -1.358419 -0.973059 -0.227891 0.034967
0.180798 -0.060262 -1.359697 -0.974033 -0.223291 0.037416
0.180864 -0.059994 -1.359416 -0.974241 -0.222787 0.034923
0.181234 -0.059726 -1.358462 -0.974364 -0.222265 0.034842
0.181534 -0.063354 -1.356320 -0.968387 -0.247274 0.032889
0.181371 -0.062616 -1.357208 -0.969690 -0.242118 0.032850
0.181338 -0.062712 -1.356334 -0.969338 -0.243851 0.030330
0.181348 -0.060727 -1.356687 -0.972674 -0.230212 0.030132
0.181212 -0.061995 -1.357030 -0.970543 -0.238698 0.032715
0.181246 -0.061660 -1.357700 -0.971239 -0.235855 0.032657
0.181248 -0.061069 -1.356857 -0.972132 -0.232492 0.030116
0.181496 -0.062115 -1.354339 -0.970263 -0.240451 0.027791
0.181587 -0.061522 -1.353735 -0.971163 -0.237074 0.025272
0.181406 -0.061398 -1.354920 -0.971517 -0.235337 0.027758
0.181711 -0.062174 -1.353439 -0.970326 -0.240467 0.025376
0.181529 -0.061193 -1.354326 -0.971714 -0.234801 0.025286
0.181618 -0.061044 -1.353904 -0.971848 -0.234253 0.025227
0.182146 -0.059482 -1.355527 -0.974823 -0.221279 0.027510
0.182142 -0.059539 -1.355252 -0.974823 -0.221279 0.027510
0.181514 -0.060376 -1.356517 -0.973338 -0.227393 0.030078
0.181526 -0.060261 -1.356883 -0.973465 -0.226862 0.030008
0.181450 -0.059998 -1.357750 -0.973919 -0.224566 0.032424
0.181243 -0.060838 -1.357485 -0.972600 -0.230194 0.032541
0.182098 -0.059652 -1.354194 -0.974365 -0.223566 0.025106
0.188516 -0.060362 -1.361144 -0.973818 -0.223797 0.039920
0.188162 -0.059511 -1.360803 -0.975310 -0.217671 0.037281
0.188038 -0.059240 -1.361830 -0.975728 -0.215358 0.039703
0.187808 -0.058669 -1.360784 -0.976545 -0.212084 0.037145
0.187869 -0.058666 -1.359590 -0.976243 -0.213889 0.034652
0.187492 -0.057798 -1.358926 -0.977445 -0.208347 0.034526
0.187793 -0.058474 -1.358506 -0.976433 -0.213408 0.032190
0.188062 -0.059184 -1.357527 -0.975196 -0.218971 0.032307
0.187558 -0.057932 -1.358446 -0.977523 -0.208364 0.032148
0.187816 -0.058717 -1.361614 -0.976456 -0.212065 0.039537
0.187158 -0.057402 -1.361820 -0.978233 -0.203749 0.039320
0.187089 -0.057134 -1.361151 -0.978895 -0.201012 0.036872
0.187075 -0.057103 -1.360941 -0.978895 -0.201012 0.036872
0.186894 -0.056796 -1.361707 -0.979369 -0.198248 0.039175
0.187090 -0.057065 -1.360683 -0.978895 -0.201012 0.036872
0.187597 -0.057998 -1.359271 -0.977339 -0.208833 0.034607
0.186991 -0.056674 -1.359941 -0.979174 -0.200097 0.034336
0.186871 -0.056344 -1.359810 -0.979731 -0.197364 0.034273
0.186971 -0.056526 -1.359077 -0.979348 -0.199650 0.031897
0.186838 -0.056228 -1.359486 -0.979731 -0.197364 0.034273
0.187043 -0.056662 -1.358275 -0.979348 -0.199650 0.031897
0.180637 -0.060040 -1.361598 -0.974465 -0.220975 0.039848
0.180556 -0.060017 -1.361871 -0.974465 -0.220975 0.039848
0.180499 -0.059972 -1.362075 -0.974368 -0.220953 0.042259
0.181103 -0.059349 -1.362352 -0.975632 -0.215337 0.042105
0.181163 -0.059319 -1.361748 -0.975728 -0.215358 0.039703
0.180571 -0.059793 -1.361271 -0.974586 -0.220456 0.039754
0.181269 -0.059233 -1.358638 -0.975627 -0.216673 0.034716
0.181527 -0.058585 -1.359989 -0.976656 -0.211589 0.037058
0.181807 -0.057848 -1.360764 -0.977740 -0.206531 0.037008
0.181507 -0.058316 -1.359323 -0.976849 -0.211114 0.034589
0.181309 -0.058000 -1.358905 -0.977445 -0.208347 0.034526
0.181709 -0.057648 -1.358943 -0.978031 -0.205589 0.034463
0.181829 -0.057874 -1.362535 -0.977450 -0.206975 0.041874
0.182088 -0.057388 -1.363135 -0.978510 -0.201915 0.041817
0.182169 -0.057200 -1.363213 -0.978611 -0.201444 0.041719
0.182323 -0.056847 -1.362614 -0.979271 -0.198710 0.039266
0.182447 -0.056629 -1.361858 -0.979369 -0.198248 0.039175
0.182268 -0.057094 -1.359157 -0.978608 -0.202839 0.034400
0.182356 -0.056768 -1.359628 -0.979174 -0.200097 0.034336
0.182380 -0.056910 -1.358858 -0.978785 -0.202385 0.031955
0.182623 -0.056185 -1.361108 -0.980103 -0.195075 0.036650
0.182551 -0.056437 -1.360256 -0.979636 -0.197822 0.034352
0.183038 -0.055398 -1.359829 -0.981256 -0.189655 0.034161
0.182904 -0.055716 -1.359323 -0.980892 -0.191939 0.031794
0.187619 -0.058107 -1.357566 -0.977107 -0.210655 0.029754
0.187430 -0.057846 -1.355452 -0.977387 -0.209694 0.027248
0.187285 -0.057346 -1.356359 -0.977974 -0.206947 0.027199
0.187232 -0.057319 -1.353983 -0.977712 -0.208752 0.022408
0.183352 -0.056690 -1.355026 -0.978710 -0.203751 0.024733
0.187360 -0.057393 -1.357704 -0.978283 -0.205143 0.029645
0.187212 -0.057095 -1.356907 -0.978384 -0.204668 0.029576
0.186886 -0.056263 -1.357002 -0.979515 -0.199203 0.029468
0.186930 -0.056314 -1.357896 -0.979973 -0.196938 0.029482
0.186612 -0.055554 -1.358412 -0.980981 -0.191497 0.031720
0.186624 -0.055577 -1.358171 -0.980607 -0.193773 0.029359
0.186569 -0.055413 -1.357801 -0.981051 -0.191511 0.029373
0.186656 -0.055752 -1.356588 -0.980223 -0.196045 0.027000
0.187032 -0.056782 -1.355556 -0.978611 -0.204222 0.024790
0.186746 -0.056104 -1.355679 -0.979735 -0.198770 0.024699
0.186825 -0.056407 -1.354247 -0.979329 -0.201039 0.022338
0.182187 -0.057952 -1.357808 -0.977036 -0.210640 0.032131
0.182385 -0.058310 -1.356810 -0.976615 -0.212928 0.029739
0.181975 -0.058098 -1.358178 -0.977036 -0.210640 0.032131
0.182398 -0.057008 -1.358283 -0.978785 -0.202385 0.031955
0.182373 -0.057522 -1.357393 -0.977805 -0.207413 0.029630
0.182683 -0.058422 -1.355187 -0.976245 -0.215226 0.024971
0.182698 -0.058273 -1.355407 -0.976791 -0.212449 0.027298
0.182821 -0.058223 -1.354081 -0.976356 -0.214727 0.024913
0.183147 -0.057382 -1.354883 -0.978034 -0.206960 0.024835
0.182454 -0.057145 -1.357751 -0.978283 -0.205143 0.029645
0.182890 -0.056041 -1.357567 -0.980066 -0.196484 0.029414
0.182955 -0.055948 -1.357092 -0.980066 -0.196484 0.029414
0.183261 -0.055103 -1.358767 -0.981506 -0.188796 0.031661
0.182995 -0.055575 -1.358507 -0.980892 -0.191939 0.031794
0.183348 -0.055785 -1.355603 -0.980283 -0.196057 0.024654
0.183442 -0.055074 -1.356235 -0.981291 -0.190644 0.026901
0.188371 -0.061648 -1.351411 -0.970713 -0.239370 0.020449
0.187695 -0.062340 -1.351402 -0.969441 -0.244468 0.020473
0.187242 -0.062376 -1.351450 -0.969296 -0.245040 0.020521
0.186942 -0.061658 -1.351665 -0.970713 -0.239370 0.020449
0.188711 -0.061295 -1.351769 -0.971406 -0.236547 0.020413
0.188761 -0.061230 -1.352008 -0.971406 -0.236547 0.020413
0.188662 -0.060869 -1.352088 -0.972087 -0.233732 0.020377
0.188181 -0.060902 -1.351409 -0.972087 -0.233732 0.020377
0.187662 -0.061513 -1.351448 -0.970851 -0.238813 0.020401
0.187620 -0.060982 -1.351482 -0.972087 -0.233732 0.020377
0.187413 -0.060222 -1.351690 -0.972887 -0.230389 0.020293
0.187482 -0.058916 -1.352270 -0.975341 -0.219778 0.020196
0.186908 -0.061302 -1.351744 -0.971406 -0.236547 0.020413
0.186172 -0.061575 -1.351728 -0.970713 -0.239370 0.020449
0.185758 -0.061904 -1.351661 -0.970152 -0.241636 0.020437
0.185362 -0.062152 -1.351604 -0.970010 -0.242201 0.020485
0.185527 -0.061709 -1.351697 -0.970713 -0.239370 0.020449
0.186173 -0.061243 -1.351799 -0.971406 -0.236547 0.020413
0.186841 -0.059917 -1.352045 -0.973545 -0.227597 0.020257
0.185178 -0.060525 -1.352006 -0.972759 -0.230926 0.020341
0.185025 -0.060462 -1.352052 -0.972759 -0.230926 0.020341
0.183556 -0.060998 -1.352234 -0.972037 -0.233720 0.022773
0.183318 -0.060591 -1.352527 -0.972709 -0.230914 0.022732
0.185780 -0.059776 -1.352365 -0.974070 -0.225336 0.020268
0.186872 -0.058672 -1.352450 -0.975456 -0.219270 0.020149
0.184996 -0.058411 -1.352803 -0.975961 -0.217012 0.020160
0.185196 -0.059115 -1.352604 -0.974829 -0.222038 0.020185
0.184076 -0.060229 -1.352240 -0.973420 -0.228127 0.020304
0.183728 -0.059814 -1.352535 -0.974020 -0.225324 0.022652
0.183337 -0.059689 -1.352648 -0.974020 -0.225324 0.022652
0.184691 -0.057963 -1.352895 -0.976571 -0.214254 0.020123
0.184351 -0.058797 -1.352699 -0.975341 -0.219778 0.020196
0.182058 -0.060919 -1.353079 -0.972037 -0.233720 0.022773
0.182516 -0.059940 -1.352981 -0.973898 -0.225849 0.022704
0.183276 -0.059763 -1.352640 -0.974020 -0.225324 0.022652
0.182576 -0.059487 -1.353057 -0.974541 -0.223059 0.022664
0.182262 -0.059993 -1.353263 -0.973898 -0.225849 0.022704
0.187198 -0.057870 -1.352944 -0.977171 -0.211504 0.020087
0.187067 -0.057299 -1.353468 -0.977712 -0.208752 0.022408
0.186946 -0.057423 -1.353240 -0.977712 -0.208752 0.022408
0.186170 -0.057335 -1.353249 -0.977712 -0.208752 0.022408
0.186608 -0.057750 -1.353030 -0.977171 -0.211504 0.020087
0.186307 -0.056289 -1.353651 -0.979424 -0.200577 0.022286
0.183094 -0.057884 -1.353525 -0.977014 -0.211983 0.022501
0.183087 -0.057776 -1.353950 -0.977122 -0.211493 0.022449
0.183305 -0.057616 -1.353426 -0.977122 -0.211493 0.022449
0.185233 -0.057031 -1.353354 -0.978292 -0.206018 0.022368
0.184000 -0.056078 -1.354104 -0.979883 -0.198324 0.022297
0.186542 -0.055998 -1.353956 -0.979883 -0.198324 0.022297
0.185652 -0.055954 -1.353817 -0.979976 -0.197869 0.022246
0.186293 -0.055514 -1.354101 -0.980518 -0.195169 0.022205
0.186356 -0.055670 -1.354003 -0.980428 -0.195617 0.022256
0.185229 -0.054974 -1.354226 -0.981051 -0.192477 0.022164
0.184560 -0.055580 -1.354077 -0.980428 -0.195617 0.022256
0.185479 -0.054490 -1.354505 -0.982006 -0.187548 0.022133
0.184132 -0.054903 -1.354668 -0.981489 -0.190229 0.022174
0.186759 -0.056468 -1.361705 -0.979922 -0.195510 0.039102
0.186102 -0.055082 -1.363148 -0.981862 -0.185057 0.041255
0.186602 -0.056006 -1.361268 -0.980553 -0.192799 0.036667
0.186443 -0.055483 -1.360478 -0.981256 -0.189655 0.034161
0.186031 -0.054533 -1.360583 -0.982289 -0.184253 0.034034
0.186193 -0.054695 -1.359738 -0.981862 -0.186519 0.034019
0.185674 -0.053895 -1.362788 -0.983451 -0.176998 0.038682
0.185835 -0.054237 -1.361453 -0.982711 -0.181550 0.036310
0.185555 -0.053685 -1.363034 -0.983527 -0.176591 0.038593
0.185158 -0.052740 -1.362464 -0.984935 -0.168613 0.038374
0.185235 -0.052929 -1.363262 -0.984475 -0.171264 0.038447
0.185643 -0.053722 -1.361957 -0.983614 -0.176606 0.036257
0.185689 -0.053447 -1.359691 -0.983919 -0.175825 0.031439
0.185562 -0.053151 -1.360007 -0.983993 -0.175423 0.031367
0.185181 -0.052590 -1.360283 -0.984782 -0.170510 0.033638
0.184956 -0.052614 -1.361280 -0.984711 -0.170900 0.033715
0.184800 -0.052611 -1.360677 -0.984782 -0.170510 0.033638
0.185026 -0.052573 -1.360522 -0.984782 -0.170510 0.033638
0.182872 -0.055410 -1.362005 -0.980999 -0.190061 0.038957
0.182696 -0.055958 -1.362186 -0.980465 -0.192781 0.039029
0.183015 -0.054875 -1.363675 -0.981862 -0.185057 0.041255
0.183471 -0.053994 -1.361930 -0.983127 -0.179283 0.036325
0.183110 -0.054743 -1.362848 -0.982038 -0.184647 0.038811
0.183374 -0.054095 -1.363133 -0.982961 -0.179681 0.038755
0.182519 -0.056295 -1.363289 -0.980187 -0.193661 0.041584
0.182835 -0.055581 -1.361542 -0.981087 -0.190078 0.036599
0.182972 -0.055226 -1.361702 -0.981611 -0.187366 0.036531
0.183612 -0.054382 -1.359713 -0.982447 -0.183843 0.031616
0.183530 -0.054392 -1.360045 -0.982372 -0.183829 0.033956
0.183232 -0.054938 -1.360247 -0.981778 -0.186949 0.034098
0.183561 -0.053981 -1.360855 -0.983285 -0.178885 0.033906
0.183763 -0.053658 -1.360509 -0.983363 -0.178475 0.033829
0.183823 -0.053676 -1.360250 -0.983363 -0.178475 0.033829
0.183749 -0.053234 -1.363037 -0.984006 -0.173923 0.038520
0.184816 -0.052428 -1.363641 -0.985228 -0.166337 0.040712
0.184169 -0.053155 -1.359871 -0.983993 -0.175423 0.031367
0.184194 -0.053072 -1.360502 -0.984318 -0.173156 0.033702
0.184561 -0.052732 -1.360831 -0.984711 -0.170900 0.033715
0.186539 -0.055404 -1.358958 -0.980981 -0.191497 0.031720
0.184442 -0.053916 -1.357694 -0.983095 -0.180759 0.029155
0.185962 -0.054061 -1.359266 -0.982947 -0.181161 0.031557
0.184625 -0.053793 -1.357471 -0.983237 -0.180357 0.026763
0.186245 -0.054828 -1.356434 -0.981726 -0.188388 0.026913
0.186099 -0.054617 -1.355402 -0.981953 -0.187538 0.024461
0.186107 -0.054312 -1.357351 -0.982239 -0.185703 0.026863
0.184600 -0.053908 -1.356913 -0.982822 -0.182607 0.026751
0.185812 -0.054358 -1.355008 -0.982006 -0.187548 0.022133
0.185651 -0.054061 -1.355339 -0.982460 -0.184865 0.024416
0.184668 -0.054361 -1.354892 -0.982089 -0.187120 0.022082
0.185177 -0.053640 -1.356636 -0.983314 -0.179945 0.026702
0.185517 -0.052985 -1.359366 -0.984392 -0.173169 0.031380
0.183544 -0.054754 -1.358667 -0.982022 -0.186104 0.031603
0.184213 -0.053504 -1.359291 -0.983514 -0.178080 0.031426
