# .PCD v0.7 - Point Cloud Data file format
# 5 208 0
# 1 38 0
# 39 119 0
# 120 139 0
# 140 169 0
# 170 208 0
VERSION 0.7
FIELDS x y z normal_x normal_y normal_z curvature
SIZE 4 4 4 4 4 4 4
TYPE F F F F F F F
COUNT 1 1 1 1 1 1 1
WIDTH 208
HEIGHT 1
VIEWPOINT 0 0 0 1 0 0 0
POINTS 208
DATA ascii
64.9561 -52.052101 401.59698 -0.29597199 -0.2366 -0.92543 1.9057659e-42
63.498001 -52.658001 402.461 -0.29768601 -0.23109999 -0.92627001 1.9057659e-42
61.817101 -52.777599 403.09399 -0.29819599 -0.22671901 -0.92718798 1.9057659e-42
60.063999 -52.752701 403.50201 -0.29872599 -0.222866 -0.92795098 1.9057659e-42
58.361599 -52.659401 404.07901 -0.29921299 -0.219989 -0.92848098 1.9057659e-42
56.697899 -52.8647 404.73401 -0.299366 -0.21903899 -0.92865598 1.9057659e-42
54.9697 -52.978802 405.22501 -0.29983601 -0.21815901 -0.928711 1.9057659e-42
53.3885 -53.549999 405.86801 -0.30014399 -0.218613 -0.928505 1.9057659e-42
51.682301 -53.334999 406.39899 -0.301056 -0.217595 -0.92844898 1.9057659e-42
50.012001 -53.539799 407.03799 -0.29462099 -0.218468 -0.93030697 1.9057659e-42
48.299301 -53.5811 407.59 -0.28702 -0.218861 -0.93258798 1.9057659e-42
46.540501 -53.584801 407.97299 -0.279439 -0.21885499 -0.93488801 1.9057659e-42
44.802101 -53.566502 408.44 -0.271862 -0.218556 -0.93719 1.9057659e-42
43.069801 -53.539398 408.92801 -0.26432401 -0.21801899 -0.93946803 1.9057659e-42
41.3703 -53.625999 409.51501 -0.25680399 -0.217205 -0.94173998 1.9057659e-42
39.8922 -54.275299 410.311 -0.24970201 -0.215868 -0.943955 1.9057659e-42
38.129398 -53.935101 410.44101 -0.24399 -0.21505199 -0.94563299 1.9057659e-42
36.461399 -54.372002 410.957 -0.23936 -0.213468 -0.94717401 1.9057659e-42
34.7113 -54.377701 411.37799 -0.23506001 -0.212338 -0.94850397 1.9057659e-42
32.232101 -54.403301 411.91299 -0.229261 -0.210931 -0.95023501 1.9057659e-42
30.5184 -54.5779 412.435 -0.22526599 -0.20975 -0.95145202 1.9057659e-42
28.910999 -55.152 413.00699 -0.221407 -0.207901 -0.95276201 1.9057659e-42
27.141899 -55.191002 413.336 -0.21770801 -0.20680501 -0.953852 1.9057659e-42
25.410999 -55.3419 413.80701 -0.21406899 -0.20534299 -0.95499098 1.9057659e-42
23.7715 -55.974899 414.19601 -0.21067099 -0.202573 -0.95633799 1.9057659e-42
22.018299 -55.963299 414.604 -0.207348 -0.200693 -0.95745999 1.9057659e-42
20.3001 -56.205002 415.082 -0.20357101 -0.19775701 -0.95888001 1.9057659e-42
18.6891 -56.7729 415.64999 -0.199145 -0.19342101 -0.96069199 1.9057659e-42
16.912001 -56.7654 415.936 -0.19512101 -0.19016901 -0.96216601 1.9057659e-42
15.1418 -56.796001 416.26099 -0.190764 -0.186261 -0.96380299 1.9057659e-42
13.4232 -57.142399 416.66901 -0.18539201 -0.180529 -0.96594 1.9057659e-42
11.771 -57.722401 417.086 -0.178886 -0.173106 -0.96852201 1.9057659e-42
10.1455 -58.389702 417.47601 -0.16929799 -0.165158 -0.97162801 1.9057659e-42
8.3739996 -58.325199 417.789 -0.16156299 -0.16048899 -0.97372502 1.9057659e-42
6.6114702 -58.554798 418.073 -0.153771 -0.155076 -0.97586203 1.9057659e-42
4.9601302 -59.169601 418.44 -0.14678 -0.148389 -0.97797602 1.9057659e-42
3.17957 -59.211601 418.70099 -0.141689 -0.146385 -0.97902799 1.9057659e-42
1.52888 -59.813801 419.09201 -0.138721 -0.142818 -0.97997898 1.9057659e-42
-0.11565 -59.0867 419.17401 -0.135603 -0.149958 -0.97934902 1.9057659e-42
-0.62522399 -57.376999 418.935 -0.13052601 -0.161599 -0.97818601 1.9057659e-42
-1.29536 -55.7183 418.73599 -0.126222 -0.172616 -0.97686797 1.9057659e-42
-1.94591 -54.052799 418.52899 -0.122851 -0.182667 -0.97546899 1.9057659e-42
-2.93785 -52.559601 418.367 -0.119686 -0.191066 -0.974253 1.9057659e-42
-3.8717699 -51.0228 418.289 -0.117052 -0.198377 -0.97311097 1.9057659e-42
-4.0729899 -49.280201 417.88501 -0.117236 -0.20608 -0.97148699 1.9057659e-42
-4.8748102 -47.693401 417.604 -0.116558 -0.21193901 -0.97030699 1.9057659e-42
-5.6539502 -46.0937 417.332 -0.116637 -0.216874 -0.96920699 1.9057659e-42
-6.4983101 -44.519001 417.11499 -0.116997 -0.22053 -0.96833801 1.9057659e-42
-7.4893699 -43.058102 416.763 -0.117048 -0.222498 -0.96788102 1.9057659e-42
-8.5254602 -41.599201 416.56799 -0.11698 -0.22297101 -0.96778101 1.9057659e-42
-9.0532398 -39.9132 416.22299 -0.121673 -0.23043901 -0.96544999 1.9057659e-42
-9.9153605 -38.356602 415.952 -0.123387 -0.236733 -0.96370798 1.9057659e-42
-11.1927 -37.092899 415.84399 -0.121711 -0.24012101 -0.96308303 1.9057659e-42
-11.5899 -35.375999 415.478 -0.12462 -0.24996801 -0.96020103 1.9057659e-42
-12.8119 -34.054501 415.491 -0.118597 -0.25529501 -0.959562 1.9057659e-42
-13.4296 -32.4757 414.88599 -0.117443 -0.26495299 -0.95708299 1.9057659e-42
-14.4609 -31.026199 414.61099 -0.112256 -0.272926 -0.95546299 1.9057659e-42
-15.1393 -29.4011 414.23901 -0.109193 -0.28239599 -0.95306301 1.9057659e-42
-15.9578 -27.836599 413.88901 -0.104842 -0.291188 -0.95090401 1.9057659e-42
-16.7479 -26.2526 413.56201 -0.10053 -0.29971099 -0.94871902 1.9057659e-42
-17.5226 -24.6728 413.18301 -0.096081197 -0.30599099 -0.947173 1.9057659e-42
-17.7871 -22.9855 412.61401 -0.094565198 -0.311389 -0.94556499 1.9057659e-42
-18.103201 -21.326599 411.991 -0.092799902 -0.316576 -0.94401699 1.9057659e-42
-19.3048 -20.0392 411.61899 -0.086113296 -0.320342 -0.94338 1.9057659e-42
-19.721901 -18.3589 411.12601 -0.084334701 -0.32481799 -0.94200897 1.9057659e-42
-19.98 -16.6562 410.60199 -0.083922997 -0.328998 -0.94059402 1.9057659e-42
-20.0877 -14.9501 410.039 -0.084860198 -0.33290201 -0.93913502 1.9057659e-42
-20.8918 -13.4298 409.508 -0.083185598 -0.335253 -0.93844801 1.9057659e-42
-21.792801 -11.932 409.078 -0.082202502 -0.33638099 -0.93813097 1.9057659e-42
-22.387899 -10.3084 408.578 -0.083976403 -0.33701 -0.93774903 1.9057659e-42
-22.2467 -8.6159296 407.98199 -0.088346399 -0.33851799 -0.93680298 1.9057659e-42
-22.184999 -6.9261799 407.36499 -0.091606602 -0.34009501 -0.93591797 1.9057659e-42
-22.3323 -5.2438898 406.741 -0.093494996 -0.34170201 -0.93514597 1.9057659e-42
-22.1577 -3.55812 406.13501 -0.095081598 -0.34379801 -0.93421799 1.9057659e-42
-21.513901 -1.99787 405.51001 -0.096592396 -0.34569499 -0.93336201 1.9057659e-42
-21.4897 -0.327732 404.83899 -0.096002199 -0.347637 -0.93270099 1.9057659e-42
-21.305099 1.3405 404.18799 -0.094878197 -0.34946999 -0.93213099 1.9057659e-42
-20.539499 2.8357601 403.54199 -0.094887502 -0.35018301 -0.93186301 1.9057659e-42
-19.8169 4.3519902 402.89499 -0.094791502 -0.350683 -0.93168402 1.9057659e-42
-19.072201 5.8726001 402.284 -0.095792398 -0.35246 -0.930911 1.9057659e-42
-18.006001 7.1830301 401.66199 -0.099668302 -0.35434499 -0.92978799 1.9057659e-42
-17.2302 8.6643801 400.996 -0.10329 -0.357274 -0.928271 1.9057659e-42
-16.556299 10.1957 400.332 -0.107167 -0.36066601 -0.92651802 1.9057659e-42
-15.7312 11.6372 399.638 -0.112364 -0.364214 -0.92451203 1.9057659e-42
-14.9563 13.1429 399.02802 -0.11751 -0.36801901 -0.92236298 1.9057659e-42
-14.0711 14.569 398.37799 -0.123256 -0.37184799 -0.92007399 1.9057659e-42
-12.9212 15.8387 397.82501 -0.13003001 -0.37527099 -0.91775 1.9057659e-42
-12.1357 17.41 397.43301 -0.134167 -0.37909701 -0.91557902 1.9057659e-42
-11.1675 18.597601 396.48801 -0.138824 -0.38293099 -0.91328597 1.9057659e-42
-9.9267397 19.483 395.53101 -0.14418501 -0.38707301 -0.91070598 1.9057659e-42
-8.9712 20.8536 394.86099 -0.147012 -0.39304599 -0.907691 1.9057659e-42
-7.73734 21.9405 394.129 -0.15065201 -0.39760399 -0.90510499 1.9057659e-42
-6.6421499 23.209999 393.474 -0.15231299 -0.40319201 -0.90235102 1.9057659e-42
-5.0269599 23.8479 393.00101 -0.154681 -0.40558401 -0.90087497 1.9057659e-42
-3.9584799 25.215099 392.522 -0.15628999 -0.412321 -0.897533 1.9057659e-42
-2.4461501 25.7472 391.70401 -0.160217 -0.41592601 -0.89517403 1.9057659e-42
-1.32368 26.929701 390.94101 -0.163477 -0.42266899 -0.89141798 1.9057659e-42
-0.156844 28.0133 390.10199 -0.167271 -0.42904499 -0.88766003 1.9057659e-42
1.03949 29.102501 389.31299 -0.171276 -0.435123 -0.88393003 1.9057659e-42
2.0913501 30.3013 388.478 -0.174685 -0.44147301 -0.88010597 1.9057659e-42
3.3420501 31.298901 387.65302 -0.178562 -0.451608 -0.87416601 1.9057659e-42
4.4762201 32.443699 386.85101 -0.18178301 -0.466297 -0.86575001 1.9057659e-42
5.4040298 33.747601 386.02701 -0.183911 -0.48287699 -0.85615802 1.9057659e-42
6.6104298 34.8134 385.22198 -0.18686301 -0.496528 -0.84766901 1.9057659e-42
7.2965698 36.248699 384.38 -0.185487 -0.51475298 -0.83703297 1.9057659e-42
8.2555199 37.3736 383.353 -0.18281101 -0.53066403 -0.82763302 1.9057659e-42
9.3229198 38.423302 382.353 -0.179832 -0.54523301 -0.81876898 1.9057659e-42
10.4169 39.462299 381.37201 -0.176596 -0.55917102 -0.81002599 1.9057659e-42
10.3489 41.0383 380.505 -0.17239401 -0.57922399 -0.79672998 1.9057659e-42
11.0258 42.130299 379.24399 -0.167824 -0.59559202 -0.78556103 1.9057659e-42
11.3348 43.493801 378.10999 -0.16151699 -0.61852098 -0.76898903 1.9057659e-42
11.6501 44.824501 376.94 -0.154191 -0.65061498 -0.74358898 1.9057659e-42
11.9362 46.141701 375.74701 -0.14849301 -0.67953002 -0.718463 1.9057659e-42
12.1276 47.446899 374.522 -0.14452299 -0.705755 -0.69355798 1.9057659e-42
11.6408 48.799801 373.439 -0.142571 -0.72846401 -0.67008501 1.9057659e-42
12.098 49.817902 372.02701 -0.142671 -0.74845099 -0.64766198 1.9057659e-42
12.2942 50.962101 370.651 -0.144692 -0.767147 -0.62493998 1.9057659e-42
12.4792 52.069801 369.245 -0.14851999 -0.78397602 -0.602763 1.9057659e-42
13.5122 52.6105 367.87299 -0.14855599 -0.798536 -0.58332801 1.9057659e-42
13.8155 53.616501 366.41199 -0.152651 -0.81345803 -0.561234 1.9057659e-42
15.5206 53.633301 365.83499 -0.14477301 -0.82095498 -0.55233401 1.9057659e-42
16.9135 54.0811 364.78699 -0.139164 -0.83162302 -0.53762102 1.9057659e-42
18.679501 54.036301 364.44199 -0.130898 -0.83443099 -0.53534198 1.9057659e-42
20.2234 54.346001 363.569 -0.12701701 -0.84029299 -0.52704298 1.9057659e-42
21.7651 53.624298 364.15399 -0.130979 -0.830302 -0.541704 1.9057659e-42
23.214899 52.902901 364.94 -0.138964 -0.81711298 -0.55947697 1.9057659e-42
24.736 52.2183 365.617 -0.14929099 -0.80302203 -0.57694697 1.9057659e-42
26.4484 51.7299 365.88 -0.159615 -0.791008 -0.590617 1.9057659e-42
28.0291 51.041698 366.397 -0.172709 -0.77544898 -0.60733002 1.9057659e-42
29.7237 50.496799 366.66501 -0.185265 -0.76133001 -0.62133199 1.9057659e-42
31.1068 49.522202 367.27899 -0.20043699 -0.742989 -0.63858598 1.9057659e-42
32.586498 48.644199 367.80701 -0.214774 -0.72531199 -0.65406102 1.9057659e-42
34.269299 48.021198 367.95001 -0.22542199 -0.71172202 -0.66530901 1.9057659e-42
35.967201 47.4254 367.995 -0.235368 -0.69938397 -0.67488098 1.9057659e-42
37.6759 46.8615 367.944 -0.244762 -0.68817902 -0.68300903 1.9057659e-42
39.385101 46.304001 367.85699 -0.253957 -0.67751002 -0.69028002 1.9057659e-42
41.112499 46.02 367.43799 -0.26118201 -0.67019099 -0.69471401 1.9057659e-42
42.835499 45.562698 367.189 -0.26962599 -0.66087401 -0.70039099 1.9057659e-42
44.455601 44.778198 367.186 -0.279719 -0.64933598 -0.707192 1.9057659e-42
46.078602 44 367.16699 -0.28420401 -0.63918698 -0.71461099 1.9057659e-42
45.781101 42.868801 368.53601 -0.29155201 -0.62909901 -0.720577 1.9057659e-42
46.195999 41.486698 369.612 -0.29639301 -0.615439 -0.73033297 1.9057659e-42
47.027699 40.1353 370.461 -0.298843 -0.601623 -0.74077201 1.9057659e-42
47.592899 38.738098 371.44501 -0.299759 -0.58611703 -0.75273597 1.9057659e-42
48.434101 37.3671 372.25299 -0.29925701 -0.57024002 -0.76503098 1.9057659e-42
49.551498 36.150902 372.96899 -0.29923299 -0.55557799 -0.77575302 1.9057659e-42
49.754299 34.476299 373.59698 -0.29872701 -0.53686601 -0.78900999 1.9057659e-42
51.223701 33.4384 373.659 -0.30030301 -0.52723002 -0.79488802 1.9057659e-42
52.170898 32.089699 374.383 -0.30132401 -0.51044798 -0.80538601 1.9057659e-42
53.510601 30.8911 374.47501 -0.30355 -0.49849099 -0.81201202 1.9057659e-42
54.6119 29.528999 374.89001 -0.30564901 -0.483051 -0.820512 1.9057659e-42
55.999199 28.395399 375.064 -0.30858299 -0.47088 -0.82646698 1.9057659e-42
57.496498 27.3985 375.12799 -0.31218699 -0.46036899 -0.83102298 1.9057659e-42
59.213902 26.881201 374.97699 -0.318753 -0.45509699 -0.83143401 1.9057659e-42
60.058498 25.304399 375.177 -0.322272 -0.43946001 -0.83846003 1.9057659e-42
61.505299 24.233801 375.20099 -0.32756901 -0.42968199 -0.84147 1.9057659e-42
62.713699 22.9216 375.44199 -0.33129299 -0.41771001 -0.84602797 1.9057659e-42
63.538601 21.3631 375.80301 -0.33264899 -0.40396899 -0.85214698 1.9057659e-42
64.831902 20.113199 375.87601 -0.33630401 -0.40024099 -0.85247099 1.9057659e-42
66.247498 19.004 375.95001 -0.340339 -0.39957801 -0.85118002 1.9057659e-42
67.893997 18.2768 375.96899 -0.34533101 -0.40009701 -0.84892201 1.9057659e-42
68.420097 16.581301 376.26599 -0.344796 -0.39858401 -0.84985101 1.9057659e-42
68.854698 14.9103 376.77499 -0.343337 -0.39698499 -0.85118902 1.9057659e-42
70.181999 13.6946 376.789 -0.347359 -0.39716399 -0.84947199 1.9057659e-42
71.697197 12.7349 376.63599 -0.35254499 -0.39758 -0.84713799 1.9057659e-42
73.407997 12.4227 376.172 -0.35863501 -0.398653 -0.84407198 1.9057659e-42
75.107002 11.9062 375.87701 -0.363534 -0.39900899 -0.84180498 1.9057659e-42
75.722099 10.2186 375.995 -0.364557 -0.397452 -0.842098 1.9057659e-42
77.079597 9.0366402 375.99399 -0.36790499 -0.39655301 -0.84106499 1.9057659e-42
78.350197 7.7620602 376.026 -0.371034 -0.39540699 -0.84022999 1.9057659e-42
78.327003 6.1676402 376.86099 -0.37010199 -0.393749 -0.84141898 1.9057659e-42
78.343803 4.5492702 377.64899 -0.36918801 -0.39221701 -0.84253597 1.9057659e-42
78.074097 2.96875 378.46701 -0.366963 -0.38652399 -0.84613103 1.9057659e-42
77.329697 1.59627 379.36301 -0.362766 -0.380137 -0.85082102 1.9057659e-42
78.1371 0.10518 379.96701 -0.36442199 -0.37425601 -0.85271901 1.9057659e-42
78.351799 -1.5422699 380.66 -0.36386299 -0.36777201 -0.85577297 1.9057659e-42
78.351501 -3.23209 381.28 -0.36262101 -0.36142099 -0.85900003 1.9057659e-42
78.354797 -4.9782 381.71701 -0.361619 -0.35534 -0.86195397 1.9057659e-42
78.611298 -6.6535301 382.323 -0.36116299 -0.349509 -0.86452597 1.9057659e-42
79.436302 -8.2182102 382.65601 -0.36289701 -0.34481999 -0.86568201 1.9057659e-42
79.767303 -9.8954802 383.22 -0.36226001 -0.339647 -0.86799002 1.9057659e-42
79.407501 -11.5308 383.88 -0.359182 -0.334764 -0.87116098 1.9057659e-42
79.954697 -13.1775 384.35901 -0.35894901 -0.33129901 -0.87258101 1.9057659e-42
79.783501 -14.8387 385.03 -0.356298 -0.32704201 -0.875269 1.9057659e-42
79.523903 -16.479601 385.72299 -0.35345 -0.32262799 -0.878057 1.9057659e-42
79.889603 -18.191099 386.14401 -0.352213 -0.318829 -0.87993997 1.9057659e-42
79.793999 -19.8671 386.793 -0.34966901 -0.31434399 -0.88256401 1.9057659e-42
79.642197 -21.538601 387.444 -0.347054 -0.30970299 -0.88523299 1.9057659e-42
79.097397 -23.0819 388.19299 -0.34400699 -0.30473 -0.888143 1.9057659e-42
78.917503 -24.754801 388.83301 -0.34159401 -0.29984599 -0.890733 1.9057659e-42
78.184998 -26.202101 389.61301 -0.33891901 -0.29504099 -0.89335603 1.9057659e-42
77.411301 -27.6322 390.38501 -0.336514 -0.292216 -0.89519203 1.9057659e-42
76.9916 -29.2292 391.10199 -0.334052 -0.28935599 -0.89704102 1.9057659e-42
77.390701 -30.940201 391.49301 -0.331669 -0.28770199 -0.89845598 1.9057659e-42
76.926201 -32.515999 392.229 -0.328511 -0.28463599 -0.90059 1.9057659e-42
76.419701 -34.081501 392.95801 -0.325151 -0.28132001 -0.90284902 1.9057659e-42
75.671097 -35.5994 393.57101 -0.32181999 -0.277477 -0.90522897 1.9057659e-42
75.109398 -37.177299 394.23099 -0.31819201 -0.273671 -0.90766603 1.9057659e-42
74.273102 -38.589298 394.97 -0.31497899 -0.26909801 -0.910151 1.9057659e-42
73.250702 -39.916401 395.62799 -0.31229699 -0.26429501 -0.91247898 1.9057659e-42
72.5149 -41.397202 396.34 -0.30937701 -0.26181 -0.91418898 1.9057659e-42
71.770401 -42.872601 397.05301 -0.30671999 -0.25933 -0.91579002 1.9057659e-42
70.8256 -44.201302 397.81601 -0.30491701 -0.256336 -0.917234 1.9057659e-42
69.4673 -45.2197 398.414 -0.304892 -0.25243199 -0.91832399 1.9057659e-42
68.434502 -46.477699 399.18301 -0.30387199 -0.24904799 -0.91958499 1.9057659e-42
67.762604 -47.991798 399.88699 -0.30138201 -0.246544 -0.92107803 1.9057659e-42
66.414497 -49.039299 400.457 -0.301718 -0.242166 -0.92212898 1.9057659e-42
65.992599 -50.682301 401.05899 -0.29782501 -0.240347 -0.92386901 1.9057659e-42
