# .PCD v0.7 - Point Cloud Data file format
# 4 152 0
# 1 38 0
# 39 76 0
# 77 114 0
# 115 152 0
# 3 152 0
# 1 50 0
# 51 100 0
# 101 152 0
VERSION 0.7
FIELDS x y z normal_x normal_y normal_z curvature
SIZE 4 4 4 4 4 4 4
TYPE F F F F F F F
COUNT 1 1 1 1 1 1 1
WIDTH 152
HEIGHT 1
VIEWPOINT 0 0 0 1 0 0 0
POINTS 152
DATA ascii
-12.0328 36.383301 370.078 -0.53083199 -0.195135 -0.82470602 1.9057659e-42
-11.1258 37.713402 369.27301 -0.54361802 -0.192974 -0.81684798 1.9057659e-42
-9.7066898 38.202 368.27899 -0.54946601 -0.194289 -0.812612 1.9057659e-42
-8.5600405 38.8927 367.07599 -0.55196798 -0.188574 -0.81226301 1.9057659e-42
-6.6157699 41.007401 365.68301 -0.54709703 -0.16446701 -0.82075298 1.9057659e-42
-5.5779901 42.1063 364.70599 -0.54033601 -0.147879 -0.82835299 1.9057659e-42
-4.4943099 43.019798 363.59601 -0.53214502 -0.130595 -0.83652103 1.9057659e-42
-3.3396101 44.171902 362.83499 -0.496968 -0.117903 -0.85972202 1.9057659e-42
-2.16992 45.3452 362.13199 -0.45810199 -0.10393 -0.88280302 1.9057659e-42
-1.07521 46.616199 361.479 -0.41941199 -0.089391999 -0.90338397 1.9057659e-42
0.152133 47.7356 360.78601 -0.37549201 -0.075608604 -0.92373699 1.9057659e-42
1.60597 48.573299 360.134 -0.326592 -0.063029997 -0.94306201 1.9057659e-42
2.5007901 50.105801 359.83301 -0.2951 -0.0459009 -0.95436299 1.9057659e-42
3.85146 51.231701 359.448 -0.26088601 -0.0301752 -0.96489799 1.9057659e-42
4.8596001 52.717201 359.31799 -0.240623 -0.0128762 -0.97053301 1.9057659e-42
6.2306199 53.789902 358.85999 -0.21912199 0.00057126902 -0.97569698 1.9057659e-42
7.6801 54.732899 358.35999 -0.2008 0.010344 -0.97957802 1.9057659e-42
9.0109501 55.930901 358.177 -0.18864501 0.0197352 -0.98184699 1.9057659e-42
10.4907 56.934502 357.97 -0.17918099 0.024266001 -0.98351699 1.9057659e-42
12.0453 57.7943 357.67899 -0.180463 0.024697701 -0.98327202 1.9057659e-42
13.2702 59.099701 357.491 -0.183318 0.022545701 -0.982795 1.9057659e-42
14.7642 60.050098 357.16699 -0.182559 0.024929799 -0.98287898 1.9057659e-42
16.254299 61.0345 356.94299 -0.178496 0.032068498 -0.98341799 1.9057659e-42
17.789801 61.940201 356.69299 -0.17090701 0.043873601 -0.98430997 1.9057659e-42
19.153 63.1115 356.595 -0.151319 0.0596659 -0.98668301 1.9057659e-42
20.7115 64.001198 356.45599 -0.101177 0.076594397 -0.991916 1.9057659e-42
22.1859 65.0326 356.50601 -0.0495946 0.096509002 -0.99409598 1.9057659e-42
23.716 65.9804 356.526 0.0041465801 0.117903 -0.993016 1.9057659e-42
25.338499 66.755096 356.61099 0.057900801 0.13909701 -0.988585 1.9057659e-42
26.840599 67.707298 356.88901 0.107532 0.15966301 -0.98129702 1.9057659e-42
28.207399 68.796898 357.319 0.13767999 0.180246 -0.97393799 1.9057659e-42
29.7038 69.727699 357.685 0.158555 0.197745 -0.967345 1.9057659e-42
31.3736 70.310204 358.01999 0.169028 0.208171 -0.963377 1.9057659e-42
32.175301 68.702599 357.90799 0.173761 0.19348 -0.96559399 1.9057659e-42
33.003101 67.106796 357.99799 0.186397 0.17611299 -0.96656102 1.9057659e-42
33.3923 65.4104 357.539 0.19871999 0.158483 -0.96715701 1.9057659e-42
33.982498 63.714199 357.41901 0.21009301 0.14138301 -0.96740502 1.9057659e-42
34.326801 61.9739 357.11499 0.212611 0.126728 -0.96888399 1.9057659e-42
35.057598 60.329498 357.07101 0.213828 0.114251 -0.97016698 1.9057659e-42
35.6642 58.635799 357.01401 0.214618 0.102724 -0.97128099 1.9057659e-42
36.590599 57.115101 357.27802 0.21803901 0.093516603 -0.97144902 1.9057659e-42
37.1991 55.422001 357.332 0.221588 0.082927004 -0.97160798 1.9057659e-42
37.768501 53.715302 357.388 0.225651 0.064437501 -0.97207499 1.9057659e-42
38.009201 51.951698 357.12 0.227467 0.044551801 -0.97276598 1.9057659e-42
38.5396 50.2355 357.23499 0.235296 0.0259236 -0.971578 1.9057659e-42
38.916199 48.4753 357.22699 0.24181201 0.0076107401 -0.97029299 1.9057659e-42
39.541199 46.807598 357.48801 0.24744 -0.0085855201 -0.96886498 1.9057659e-42
39.963001 45.059898 357.57401 0.234258 -0.0235238 -0.97188997 1.9057659e-42
40.296001 43.292301 357.64301 0.224804 -0.037762001 -0.97367197 1.9057659e-42
40.784 41.5779 357.89401 0.213937 -0.0522159 -0.97545099 1.9057659e-42
41.310001 39.889301 358.228 0.205709 -0.068667501 -0.976201 1.9057659e-42
41.249599 38.0914 358.164 0.20658 -0.086038001 -0.974639 1.9057659e-42
41.631699 36.353199 358.43301 0.20366301 -0.102989 -0.97360897 1.9057659e-42
42.188599 34.687698 358.828 0.201276 -0.119471 -0.97222102 1.9057659e-42
42.595501 32.972301 359.19199 0.201419 -0.135985 -0.97002 1.9057659e-42
42.724098 31.1898 359.40601 0.203345 -0.15196501 -0.967242 1.9057659e-42
43.137402 29.493401 359.84299 0.205055 -0.16846301 -0.96414399 1.9057659e-42
43.159801 27.7076 360.06799 0.207836 -0.186378 -0.960244 1.9057659e-42
43.5564 26.0236 360.565 0.211539 -0.20409299 -0.955823 1.9057659e-42
43.856098 24.320801 361.06601 0.21607 -0.22142901 -0.95093799 1.9057659e-42
44.2328 22.6689 361.67401 0.22169399 -0.238279 -0.94555497 1.9057659e-42
44.133301 20.8906 361.93399 0.225347 -0.253701 -0.94066697 1.9057659e-42
44.323002 19.1919 362.49799 0.230799 -0.269243 -0.93500799 1.9057659e-42
44.478802 17.478399 363.02701 0.236183 -0.28426901 -0.92919803 1.9057659e-42
44.733601 15.8247 363.69 0.24275599 -0.30041099 -0.92240101 1.9057659e-42
44.657299 14.1006 364.202 0.246161 -0.315947 -0.916287 1.9057659e-42
44.482601 12.3647 364.64499 0.24764401 -0.331164 -0.910496 1.9057659e-42
44.7934 10.7703 365.42001 0.254471 -0.346486 -0.90288001 1.9057659e-42
44.747101 9.0799704 366.03699 0.256262 -0.36162099 -0.896415 1.9057659e-42
44.733398 7.4188499 366.73001 0.257588 -0.37664199 -0.889826 1.9057659e-42
44.874901 5.8578901 367.61499 0.26032799 -0.39114001 -0.88274503 1.9057659e-42
44.7155 4.2150998 368.33401 0.25745699 -0.40529999 -0.87718201 1.9057659e-42
44.215698 2.51439 368.646 0.247711 -0.420037 -0.87304503 1.9057659e-42
44.357899 0.947837 369.521 0.246328 -0.434237 -0.86646402 1.9057659e-42
44.223099 -0.65957999 370.32001 0.240136 -0.44995999 -0.86015701 1.9057659e-42
44.150398 -2.23861 371.181 0.234042 -0.466012 -0.85326302 1.9057659e-42
43.945202 -3.83673 371.98401 0.226114 -0.48305601 -0.84588999 1.9057659e-42
44.037498 -5.2765098 373.06 0.221495 -0.49913001 -0.83774102 1.9057659e-42
43.706799 -6.84937 373.87 0.21337201 -0.51324302 -0.83129698 1.9057659e-42
43.114601 -8.4401102 374.46899 0.20416 -0.52630597 -0.82542199 1.9057659e-42
42.6003 -9.9175997 375.35999 0.196375 -0.54019302 -0.81830901 1.9057659e-42
41.558102 -11.1939 376.08401 0.188676 -0.55415702 -0.81074703 1.9057659e-42
39.9524 -12.0003 376.19 0.182354 -0.56257802 -0.806382 1.9057659e-42
38.898499 -13.2766 376.89801 0.178974 -0.57488 -0.79842401 1.9057659e-42
38.259399 -14.7106 377.77802 0.178757 -0.58851802 -0.78847402 1.9057659e-42
38.233501 -16.1464 378.86401 0.18068799 -0.60364598 -0.77650702 1.9057659e-42
37.679501 -17.558201 379.83301 0.183937 -0.61709899 -0.765086 1.9057659e-42
37.795601 -18.8936 381.034 0.185772 -0.63065499 -0.753501 1.9057659e-42
37.557701 -20.287001 382.14899 0.187842 -0.64235699 -0.743029 1.9057659e-42
37.1563 -21.6458 383.259 0.18994001 -0.65279597 -0.73333502 1.9057659e-42
36.951 -22.873899 384.55899 0.189757 -0.66281199 -0.724343 1.9057659e-42
36.2416 -24.306601 385.38599 0.190804 -0.67191499 -0.71562803 1.9057659e-42
35.997398 -25.5397 386.67401 0.181685 -0.68215603 -0.70827502 1.9057659e-42
35.061298 -26.811701 387.53799 0.148408 -0.695014 -0.70351303 1.9057659e-42
33.339199 -27.3342 387.50101 0.104069 -0.70214099 -0.70439202 1.9057659e-42
31.556999 -27.101601 387.40302 0.067451902 -0.70103598 -0.70992798 1.9057659e-42
29.8706 -26.7764 386.86401 0.035364501 -0.69386703 -0.719235 1.9057659e-42
28.2374 -26.2833 386.29001 -0.00234448 -0.68436998 -0.729132 1.9057659e-42
26.4527 -26.104601 386.13901 -0.040888999 -0.67661202 -0.73520303 1.9057659e-42
24.8347 -25.493799 385.64001 -0.077433698 -0.66612703 -0.741808 1.9057659e-42
23.1115 -25.019501 385.42599 -0.114099 -0.65619802 -0.74591303 1.9057659e-42
21.4254 -24.4086 385.272 -0.140506 -0.64623201 -0.75009501 1.9057659e-42
19.693199 -23.929899 385.16901 -0.147393 -0.63933301 -0.75467098 1.9057659e-42
17.9998 -23.321899 385.11801 -0.153124 -0.63401699 -0.75800699 1.9057659e-42
16.282499 -23.276899 385.65601 -0.157276 -0.63350201 -0.75758803 1.9057659e-42
14.549 -22.798901 385.57501 -0.161283 -0.63143802 -0.75846797 1.9057659e-42
12.9179 -22.178499 385.134 -0.18004499 -0.62652701 -0.75831902 1.9057659e-42
11.1826 -21.703899 385.19299 -0.2041 -0.62128597 -0.75653601 1.9057659e-42
9.46702 -21.160101 385.22299 -0.22915 -0.61409998 -0.75523001 1.9057659e-42
7.7880502 -20.52 385.32901 -0.25520501 -0.60522002 -0.75404102 1.9057659e-42
6.08145 -20.4867 385.901 -0.282579 -0.59794998 -0.75006998 1.9057659e-42
4.3875599 -20.129299 386.39401 -0.31408101 -0.58708 -0.746117 1.9057659e-42
2.70208 -19.736 386.888 -0.34577101 -0.57468897 -0.74173802 1.9057659e-42
1.01797 -19.127701 387.07199 -0.377951 -0.559668 -0.73751199 1.9057659e-42
-0.56567502 -19.0711 387.92599 -0.40522701 -0.54834503 -0.731511 1.9057659e-42
-2.2044301 -18.558599 388.466 -0.43421 -0.53334701 -0.72594899 1.9057659e-42
-3.7581999 -18.382999 389.358 -0.462033 -0.51991898 -0.71847802 1.9057659e-42
-5.1845198 -18.5504 390.44299 -0.48750001 -0.50812101 -0.71003997 1.9057659e-42
-6.6196599 -18.6113 391.52802 -0.51421797 -0.494111 -0.701024 1.9057659e-42
-7.9987001 -17.458099 391.61899 -0.53459698 -0.479166 -0.69613701 1.9057659e-42
-8.5413599 -15.8397 391.048 -0.54479998 -0.469354 -0.69490999 1.9057659e-42
-9.1184597 -14.2583 390.41101 -0.552867 -0.45966199 -0.69501698 1.9057659e-42
-9.4720402 -12.6698 389.64099 -0.55834502 -0.449956 -0.69698697 1.9057659e-42
-9.6360397 -11.1113 388.75601 -0.56174999 -0.43908399 -0.70117199 1.9057659e-42
-9.7957296 -9.5131998 387.94299 -0.56454498 -0.42899999 -0.705158 1.9057659e-42
-10.2066 -7.85184 387.38501 -0.56828898 -0.420432 -0.70730799 1.9057659e-42
-10.1873 -6.37643 386.354 -0.56918597 -0.41361701 -0.71059698 1.9057659e-42
-10.3672 -4.79704 385.51001 -0.57073098 -0.406854 -0.71325701 1.9057659e-42
-10.1115 -3.3545799 384.46399 -0.56976998 -0.40152201 -0.71703702 1.9057659e-42
-10.3434 -1.70547 383.78101 -0.57099301 -0.39572299 -0.71928501 1.9057659e-42
-10.5145 -0.052650899 383.08899 -0.57156199 -0.39041099 -0.72173101 1.9057659e-42
-10.4659 1.53152 382.23599 -0.57089603 -0.38004601 -0.72776502 1.9057659e-42
-10.1848 3.0046301 381.23999 -0.56855297 -0.370269 -0.73460799 1.9057659e-42
-9.9908895 4.5700402 380.37299 -0.56666499 -0.36020699 -0.741041 1.9057659e-42
-9.9203196 6.1842399 379.57999 -0.56516498 -0.35001299 -0.74704701 1.9057659e-42
-10.2487 7.88098 379.077 -0.56494701 -0.34033501 -0.75167 1.9057659e-42
-10.2256 9.4672499 378.22601 -0.56206697 -0.330717 -0.75809401 1.9057659e-42
-10.337 11.1642 377.63599 -0.55870903 -0.32193699 -0.76433098 1.9057659e-42
-10.0627 12.6771 376.70001 -0.55458802 -0.31384501 -0.77067101 1.9057659e-42
-10.2065 14.382 376.14099 -0.55019999 -0.307399 -0.776393 1.9057659e-42
-10.2944 16.0839 375.56201 -0.54548699 -0.30083099 -0.78226799 1.9057659e-42
-10.5044 17.818701 375.13 -0.53975499 -0.295064 -0.78841698 1.9057659e-42
-10.5085 19.448601 374.366 -0.53548402 -0.28777 -0.79400599 1.9057659e-42
-10.5646 21.1481 373.776 -0.53059697 -0.28092399 -0.79971802 1.9057659e-42
-10.8353 22.9247 373.673 -0.522892 -0.27612299 -0.806436 1.9057659e-42
-10.3041 24.256701 372.58499 -0.525114 -0.26740101 -0.80793101 1.9057659e-42
-10.7224 25.9911 372.34799 -0.51779503 -0.26410601 -0.81371802 1.9057659e-42
-10.7407 27.719 371.84299 -0.515553 -0.25774601 -0.817173 1.9057659e-42
-11.2145 29.444201 371.646 -0.51038897 -0.25114101 -0.82245499 1.9057659e-42
-11.596 31.176001 371.336 -0.50879902 -0.24131601 -0.82637101 1.9057659e-42
-11.9212 32.924999 371.06201 -0.51069701 -0.228055 -0.82896298 1.9057659e-42
-12.0461 34.6544 370.57901 -0.51849103 -0.212037 -0.828376 1.9057659e-42
