# .PCD v0.7 - Point Cloud Data file format
VERSION 0.7
FIELDS x y z
SIZE 4 4 4
TYPE F F F
COUNT 1 1 1
WIDTH 313
HEIGHT 1
VIEWPOINT 0 0 0 1 0 0 0
POINTS 313
DATA ascii
-34.080299 -2.4740601 310.36401
-4.8340201 -2.8736999 302.20099
-5.4781399 -2.97243 302.63901
-5.7765198 -2.8930399 302.69101
-7.7852998 6.7641501 297.32401
-31.986099 10.593 302.147
-31.895901 10.1908 302.168
-32.0345 9.51332 302.642
-32.441101 9.50772 303.12299
-32.370098 9.18892 303.142
-18.330999 -2.4475801 307.47501
-18.8398 -2.41713 307.68701
-35.8223 -2.42048 311.319
-26.582199 21.3487 291.81201
-12.5587 -2.8966401 305.59698
-26.096701 21.767599 291.04199
-21.7244 -2.4007599 308.353
-15.2802 -2.9321899 306.51099
-30.4655 13.5366 299.25101
-23.1325 22.842699 288.13699
-21.741199 22.058701 288.621
-22.572599 22.207199 288.612
-22.226601 22.1099 288.617
-6.7241402 5.3144002 297.80899
-29.150999 16.849701 296.35199
-22.6469 22.242901 288.599
-3.8180399 0.39773399 299.737
-32.330898 -2.9033 310.37799
-36.0126 -1.49345 310.862
-25.1341 23.23 289.14801
-36.245602 -1.8430099 311.112
-6.6912098 4.44768 298.29001
-6.7581801 4.87288 298.05499
-30.181 13.9601 298.771
-11.9303 -3.0165401 305.54401
-17.3848 17.795601 291.496
-29.6112 15.9055 297.31201
-26.305201 21.2248 291.51401
-35.895199 -1.06058 310.379
-16.894699 -2.8573 307.11899
-35.288601 1.0646 308.95001
-16.517599 -2.93045 306.99301
-33.278801 6.5872998 305.05701
-33.3508 6.3976998 305.19299
-32.871601 7.7934499 304.17099
-32.386902 9.3419905 303.11301
-31.894199 9.6913204 302.41501
-17.7936 18.3536 291.03
-26.572701 -2.4073901 309.05099
-23.6565 23.116501 288.138
-24.5959 -2.3650401 308.922
-14.4934 14.5042 294.08899
-12.5023 12.7898 294.90399
-15.943 -2.86904 306.74799
-15.4247 -2.88065 306.54599
-12.3693 12.0465 295.38901
-12.0173 11.6332 295.60699
-12.0437 11.9231 295.383
-26.0879 -2.4000001 309.009
-16.395599 -2.88659 306.91299
-24.893999 -2.3459001 308.92599
-25.5208 -2.33936 308.927
-8.6435299 -2.8922801 303.866
-24.65 23.764 288.25601
-24.8778 23.592699 288.61899
-15.9517 16.4482 292.71301
-15.9156 16.697399 292.48599
-3.97509 0.47310501 299.741
-35.7607 -2.40503 311.267
-27.674101 19.1143 293.935
-23.6584 23.240499 288.03
-24.1441 23.7181 287.85999
-28.513201 17.894501 295.38501
-27.542999 19.3859 293.68399
-28.507601 17.472601 295.50699
-24.628901 23.935699 288.12399
-29.9709 15.0265 298.11499
-33.820599 5.3696499 306.03699
-31.496 11.472 301.19199
-9.4489603 -3.07774 304.57101
-13.3843 13.8162 294.422
-13.8261 13.8779 294.42401
-34.984798 -2.42606 310.85001
-30.091 14.9819 298.276
-17.879101 -2.63678 307.461
-7.2473102 -2.8940101 303.297
-5.2537198 -2.8906801 302.44901
-6.2775202 -2.8589699 302.892
-8.2058401 -2.8917601 303.689
-7.8868899 -2.94892 303.60699
-6.7420402 -2.87414 303.11301
-29.7833 15.2777 297.80301
-13.9736 14.0293 294.33701
-33.157902 7.6831598 304.57599
-19.2817 19.781 290.065
-4.33634 0.69435698 299.73999
-28.523199 -2.4256899 309.40799
-25.1343 23.320801 289.103
-25.3894 23.072399 289.58401
-20.5319 20.7076 289.59
-30.3067 14.4484 298.771
-2.8487401 -2.7304001 301.19199
-19.746401 19.8878 290.07199
-19.775101 -2.52492 307.952
-31.2882 12.0782 300.69101
-31.3906 11.6217 300.99899
-8.5583601 7.9868398 296.84201
-16.468399 17.4111 291.86801
-9.1219797 8.22328 296.80701
-8.1942196 7.0304899 297.31601
-8.6858196 7.7400599 297.01001
-8.21099 7.2699699 297.164
-21.005899 20.893801 289.58899
-3.3034501 -2.89168 301.40399
-19.310801 19.824699 290.03299
-31.9042 11.2123 301.79999
-7.5818501 6.6511402 297.32501
-7.6753998 6.3034801 297.573
-7.1215501 5.8068399 297.646
-6.6181002 -2.9186699 303.11801
-20.286699 20.329901 289.827
-20.304701 20.6099 289.577
-20.245899 -2.4565599 307.95499
-4.8418798 1.79722 299.255
-15.7973 16.1598 292.97
-15.4503 15.9618 293.09601
-27.065201 -2.41587 309.091
-14.9801 15.4308 293.45599
-11.561 11.1293 295.802
-28.9876 -2.40662 309.48199
-12.1018 -2.9344599 305.53699
-29.4575 -2.8255701 309.88599
-9.7983999 9.1287003 296.358
-11.4771 10.9635 295.875
-11.0362 10.6356 295.875
-11.0643 10.67 295.866
-10.6255 10.168 296.005
-17.8451 18.382601 291.013
-28.260099 18.300501 294.90601
-32.599201 8.6529198 303.59799
-10.0282 -2.9319301 304.56699
-28.8039 17.230301 295.87201
-16.434799 17.240601 292.00601
-3.8557999 0.0151268 299.94299
-34.294998 -2.4011199 310.43701
-14.8692 15.0056 293.78799
-17.122299 -2.92348 307.47601
-17.2619 -2.88676 307.45999
-10.5608 9.6212301 296.35599
-29.594101 -2.8741701 309.89001
-16.4303 16.9244 292.315
-28.0329 18.3834 294.59799
-10.5835 9.68783 296.319
-33.378799 7.2416801 305.03201
-33.334 6.8477101 305.05399
-10.8813 -3.0162201 305.06
-30.450701 -2.86606 309.80899
-33.867599 5.7135701 306.01001
-35.323101 1.32844 308.927
-27.547501 -2.4152601 309.207
-27.066601 20.339899 292.72299
-32.892101 8.12323 304.09399
-10.133 -2.88399 304.57999
-10.5405 -3.1707201 305.05899
-34.801998 -2.5376401 310.858
-20.764299 -2.4038401 308.07599
-21.2721 -2.39587 308.22101
-23.1884 -2.09817 308.44101
-33.8242 -2.6633899 310.367
-12.9767 -3.27143 306.02301
-13.536 -3.0802701 306.01999
-7.59093 -3.0253601 303.60599
-27.0492 19.832399 292.923
-13.91 -2.9481101 306.02399
-32.387699 8.7135096 303.32501
-27.9247 -2.51355 309.40201
-4.4257498 1.6465501 299.25601
-31.671101 -2.5004399 309.88501
-31.387199 -2.6440799 309.89301
-30.8463 -2.84062 309.89301
-32.239799 -2.87218 310.362
-32.670101 -2.9212999 310.37299
-33.327301 -2.8599801 310.36301
-33.1665 -2.9026401 310.37701
-29.481001 16.467199 296.93301
-32.799702 -2.8961899 310.35001
-35.284302 -2.39097 310.965
-30.456301 13.5441 299.23901
-26.948299 20.7584 292.47501
-26.687799 21.144199 292.00601
-30.940399 13.0971 299.923
-31.887199 10.2316 302.14001
-11.5324 -3.21175 305.54401
-35.772499 -0.315135 310.15601
-22.1756 -2.4065599 308.439
-23.8867 -2.3851299 308.92801
-35.645699 -0.034276102 309.888
-9.6002197 8.7105904 296.60101
-9.6589403 9.0889597 296.35501
-5.1750102 2.7859299 298.771
-3.3074 -1.44902 300.63901
-9.0296803 -2.9353499 304.08899
-5.69768 3.0545499 298.767
-21.2672 21.2724 289.29501
-18.8248 19.341 290.36099
-32.871799 8.24683 304.04501
-32.862099 8.0001602 304.086
-13.0238 13.0615 294.82401
-5.3059502 2.4261899 299.02701
-29.002501 16.958799 296.16199
-35.025299 2.1717899 308.444
-34.5574 3.5545399 307.47299
-27.466299 19.762899 293.45499
-10.0347 9.2638702 296.34601
-29.479601 16.0114 297.09799
-28.4788 17.7584 295.38901
-22.7071 -2.4058299 308.58899
-34.806801 3.0034299 307.91599
-34.867802 3.13221 307.96201
-26.0931 21.834999 291.013
-35.764198 -0.95260203 310.18201
-34.788799 2.4944601 308.04901
-25.839001 22.045401 290.556
-30.9737 12.494 300.21799
-34.363499 4.7270699 306.983
-3.0653901 -0.67436999 300.22198
-18.369499 18.862301 290.69101
-18.7892 19.1199 290.55701
-34.113602 5.02355 306.509
-31.8957 10.6496 301.99399
-20.7771 20.8109 289.57901
-5.7645602 3.3984001 298.58701
-34.2952 4.2023401 306.99399
-34.3242 3.8989999 307.11499
-6.4945698 4.3484702 298.28299
-6.2680898 4.2310801 298.289
-2.8838699 -2.4119999 301.02301
-3.3831601 -1.91752 300.87799
-6.2659602 3.8782599 298.48099
-3.21596 -1.60724 300.70901
-27.9697 18.7481 294.423
-33.8381 5.8789101 305.92801
-33.834499 5.4686499 306.02701
-35.3022 1.61555 308.927
-33.587002 6.15839 305.53601
-19.325701 -2.4063599 307.76501
-25.621901 22.742599 290.052
-25.614 22.396799 290.12701
-25.616301 22.6301 290.07101
-15.3623 15.5519 293.45401
-14.9706 -3.0573699 306.50299
-3.6721399 -2.9925699 301.673
-35.444302 0.34241799 309.41199
-35.482201 0.534998 309.409
-34.32 4.3551302 306.98099
-14.4731 -3.1902001 306.51099
-4.2382302 -3.0625701 302.15701
-4.70612 -2.9114699 302.159
-4.72647 -2.89697 302.15701
-14.4856 14.6817 293.92899
-21.261299 21.5368 289.104
-30.917801 12.5833 300.12799
-20.6215 -2.3069999 307.95801
-4.3277502 0.99832499 299.54599
-12.5587 -2.8966401 305.59698
-22.572599 22.207199 288.612
-22.6469 22.242901 288.599
-6.6912098 4.44768 298.29001
-23.6565 23.116501 288.138
-14.4934 14.5042 294.08899
-15.943 -2.86904 306.74799
-12.3693 12.0465 295.38901
-12.0173 11.6332 295.60699
-8.6435299 -2.8922801 303.866
-23.6584 23.240499 288.03
-7.2473102 -2.8940101 303.297
-6.2775202 -2.8589699 302.892
-8.2058401 -2.8917601 303.689
-7.8868899 -2.94892 303.60699
-6.7420402 -2.87414 303.11301
-4.33634 0.69435698 299.73999
-19.746401 19.8878 290.07199
-8.6858196 7.7400599 297.01001
-21.005899 20.893801 289.58899
-7.6753998 6.3034801 297.573
-6.6181002 -2.9186699 303.11801
-11.561 11.1293 295.802
-12.1018 -2.9344599 305.53699
-11.4771 10.9635 295.875
-3.8557999 0.0151268 299.94299
-14.8692 15.0056 293.78799
-10.5608 9.6212301 296.35599
-10.5835 9.68783 296.319
-10.8813 -3.0162201 305.06
-10.133 -2.88399 304.57999
-23.1884 -2.09817 308.44101
-13.536 -3.0802701 306.01999
-27.0492 19.832399 292.923
-13.91 -2.9481101 306.02399
-32.387699 8.7135096 303.32501
-31.671101 -2.5004399 309.88501
-31.387199 -2.6440799 309.89301
-35.284302 -2.39097 310.965
-9.6002197 8.7105904 296.60101
-9.0296803 -2.9353499 304.08899
-5.69768 3.0545499 298.767
-5.3059502 2.4261899 299.02701
-18.7892 19.1199 290.55701
-6.4945698 4.3484702 298.28299
-3.3831601 -1.91752 300.87799
-6.2659602 3.8782599 298.48099
-15.3623 15.5519 293.45401
-4.3277502 0.99832499 299.54599
