# .PCD v0.7 - Point Cloud Data file format
VERSION 0.7
FIELDS x y z
SIZE 4 4 4
TYPE F F F
COUNT 1 1 1
WIDTH 525
HEIGHT 1
VIEWPOINT 0 0 0 1 0 0 0
POINTS 525
DATA ascii
0.175083 0.13000301 -1.71505
0.180014 0.130004 -1.7056299
0.17997999 0.12999 -1.68672
0.169697 0.124718 -1.69998
0.150353 0.150014 -1.69045
0.16483399 0.139871 -1.69497
0.159633 0.129853 -1.69499
0.155614 0.119999 -1.70999
0.16500901 0.13005801 -1.6907001
0.18003801 0.13033 -1.68993
0.175234 0.120069 -1.6799999
0.175129 0.120039 -1.70575
0.16999 0.124978 -1.6761
0.185022 0.125442 -1.68999
0.149536 0.15003499 -1.69049
0.164937 0.119996 -1.71529
0.14025199 0.155196 -1.6549799
0.12994 0.15994 -1.67118
0.180326 0.115002 -1.68498
0.15013 0.145143 -1.64496
0.145371 0.140001 -1.68098
0.16497201 0.129988 -1.67599
0.185109 0.120686 -1.67993
0.19491 0.10433 -1.71497
0.18007401 0.125003 -1.72092
0.150001 0.140026 -1.67668
0.175091 0.130064 -1.7149301
0.14469799 0.13000999 -1.6958801
0.165382 0.13001899 -1.68996
0.180113 0.130045 -1.70497
0.190091 0.120518 -1.6950001
0.15996601 0.143924 -1.6799999
0.17497 0.129995 -1.67212
0.180078 0.115056 -1.71147
0.16486201 0.129876 -1.67498
0.175914 0.130336 -1.67497
0.189937 0.119928 -1.69238
0.150059 0.150372 -1.66496
0.150622 0.14043801 -1.65999
0.17065001 0.12516201 -1.6799901
0.185004 0.125002 -1.7130899
0.134884 0.149912 -1.6599801
0.159298 0.134976 -1.67997
0.19535901 0.1111 -1.68999
0.149174 0.139486 -1.67998
0.185239 0.12585001 -1.6950001
0.154892 0.13495199 -1.65256
0.18421 0.119946 -1.67497
0.179987 0.114927 -1.68308
0.190414 0.115925 -1.68498
0.174808 0.134462 -1.69498
0.18541101 0.111648 -1.6950001
0.164937 0.119547 -1.70996
0.155469 0.13000201 -1.69554
0.177733 0.130455 -1.6799999
0.17190599 0.12518001 -1.69498
0.19101401 0.120296 -1.7
0.18045101 0.13020501 -1.69997
0.167961 0.129987 -1.65997
0.15924101 0.13440999 -1.66997
0.181872 0.12583999 -1.6799901
0.17195401 0.12502301 -1.68499
0.149924 0.14995299 -1.68293
0.165135 0.14002299 -1.6943901
0.190109 0.120014 -1.72149
0.169765 0.119028 -1.70997
0.169348 0.133691 -1.70499
0.149892 0.130014 -1.69601
0.159881 0.14434101 -1.6749901
0.174933 0.11867 -1.67497
0.169999 0.137982 -1.6900001
0.18951499 0.119769 -1.68999
0.16041701 0.125011 -1.70269
0.17049 0.135012 -1.70129
0.149755 0.149997 -1.67498
0.134542 0.124758 -1.69999
0.184857 0.113788 -1.70498
0.175097 0.120436 -1.705
0.196292 0.115067 -1.71498
0.14427599 0.14396299 -1.6499799
0.18282101 0.115271 -1.69497
0.176185 0.120348 -1.68499
0.149932 0.14998101 -1.65994
0.141463 0.14514001 -1.66998
0.17755 0.120064 -1.68998
0.151352 0.14384399 -1.64499
0.174941 0.13442799 -1.68998
0.165644 0.13014901 -1.67995
0.17154001 0.130445 -1.665
0.197267 0.110596 -1.69499
0.194912 0.116736 -1.70999
0.16409101 0.137233 -1.65999
0.16984899 0.13574301 -1.69999
0.192036 0.120068 -1.70999
0.144921 0.153355 -1.6649801
0.166086 0.14044601 -1.67998
0.14423101 0.134021 -1.68998
0.164263 0.14000601 -1.70336
0.150636 0.15005501 -1.67
0.18494099 0.113346 -1.7
0.169782 0.12477 -1.67498
0.14001501 0.14502899 -1.67195
0.129962 0.124995 -1.6997499
0.199967 0.104283 -1.71497
0.16651 0.136669 -1.665
0.18499801 0.124997 -1.68817
0.17998099 0.12967101 -1.68496
0.195913 0.115362 -1.70999
0.13998801 0.154984 -1.66987
0.124783 0.126624 -1.69498
0.154309 0.12501299 -1.70332
0.149846 0.13731401 -1.68499
0.18068101 0.13014799 -1.69499
0.17999201 0.11767 -1.70498
0.14984301 0.14050201 -1.67498
0.181188 0.1155 -1.6900001
0.173659 0.13043 -1.67
0.15487 0.119823 -1.70995
0.166557 0.14016999 -1.68496
0.179776 0.113323 -1.71498
0.14461499 0.142625 -1.6749901
0.18954 0.108681 -1.6950001
0.154792 0.123835 -1.70498
0.150225 0.150106 -1.68993
0.180354 0.12511601 -1.67498
0.15411399 0.13846999 -1.6749901
0.171556 0.13526601 -1.67495
0.19166701 0.120015 -1.71499
0.169754 0.122146 -1.70495
0.144371 0.14501201 -1.6649801
0.13523699 0.124981 -1.69998
0.15477 0.147204 -1.675
0.15719201 0.135267 -1.66497
0.15993001 0.123558 -1.705
0.184948 0.12661099 -1.69998
0.154065 0.119968 -1.71137
0.16685399 0.140011 -1.68999
0.200441 0.11023 -1.71496
0.13961001 0.15555 -1.6599801
0.174986 0.115214 -1.71498
0.14174899 0.144834 -1.64498
0.16917901 0.123707 -1.67
0.174612 0.122476 -1.7
0.19008701 0.120757 -1.71997
0.184728 0.125772 -1.68998
0.159964 0.13391601 -1.68499
0.173951 0.13509201 -1.68498
0.174978 0.133716 -1.69997
0.169347 0.133551 -1.6649801
0.174955 0.11781 -1.71
0.189669 0.121647 -1.71499
0.144765 0.152621 -1.66997
0.16525 0.125016 -1.7016799
0.16497301 0.122962 -1.70498
0.13946 0.148293 -1.65499
0.172233 0.129456 -1.665
0.15393101 0.14503001 -1.69677
0.189916 0.10795 -1.71499
0.17994399 0.118427 -1.69497
0.163919 0.141854 -1.67497
0.157499 0.145391 -1.665
0.149884 0.130596 -1.69499
0.17820901 0.120099 -1.7
0.149386 0.12734599 -1.69997
0.139984 0.15491199 -1.6763
0.187886 0.110325 -1.68999
0.174578 0.13364001 -1.6799901
0.184453 0.126974 -1.70498
0.19952001 0.110162 -1.70496
0.15994 0.14403 -1.68496
0.15968999 0.14369901 -1.68999
0.164002 0.120146 -1.71499
0.169544 0.137215 -1.67498
0.152128 0.140054 -1.67
0.174954 0.13421801 -1.68499
0.14476401 0.14060999 -1.67997
0.18913899 0.120239 -1.68999
0.154618 0.137821 -1.665
0.149345 0.14078601 -1.65499
0.134868 0.157708 -1.6549799
0.149868 0.150033 -1.65999
0.14966699 0.119579 -1.70997
0.16404399 0.141692 -1.6849999
0.139502 0.121688 -1.70495
0.154838 0.146816 -1.6799999
0.194903 0.104895 -1.71868
0.140753 0.155048 -1.6599801
0.15431599 0.146341 -1.6950001
0.13611799 0.150056 -1.65495
0.170122 0.120002 -1.70834
0.189781 0.122177 -1.70998
0.179566 0.115068 -1.67998
0.150855 0.14005999 -1.67498
0.13459501 0.157401 -1.65997
0.166162 0.135087 -1.66
0.13388 0.14500199 -1.6747299
0.184591 0.12607899 -1.70998
0.15861399 0.145318 -1.66996
0.149793 0.13396201 -1.6900001
0.14960299 0.14907099 -1.6549799
0.149569 0.145779 -1.64499
0.150001 0.150021 -1.6736701
0.19164599 0.12024 -1.70495
0.184268 0.120035 -1.675
0.14070299 0.155003 -1.6649899
0.159848 0.144407 -1.66997
0.159867 0.132623 -1.68998
0.162292 0.142285 -1.7
0.184505 0.111352 -1.68998
0.139998 0.15499499 -1.64999
0.179961 0.126194 -1.71496
0.159205 0.140204 -1.655
0.189465 0.121218 -1.6950001
0.174312 0.121169 -1.6799901
0.17896999 0.118333 -1.68999
0.14947399 0.15013599 -1.67497
0.14514799 0.15242399 -1.6799999
0.155013 0.135058 -1.68722
0.146982 0.151067 -1.65499
0.17247801 0.12505899 -1.68996
0.15847699 0.130024 -1.69497
0.19410799 0.115236 -1.69499
0.189401 0.122568 -1.705
0.13716701 0.159703 -1.67496
0.173041 0.135729 -1.68999
0.157049 0.13518 -1.68499
0.17480201 0.120601 -1.70494
0.136096 0.16242699 -1.6749901
0.174997 0.119999 -1.67892
0.16431201 0.134682 -1.65499
0.20057 0.108718 -1.705
0.174215 0.130836 -1.70998
0.17966799 0.118863 -1.7
0.159475 0.139909 -1.6549799
0.16457701 0.128453 -1.6699899
0.168623 0.133269 -1.70999
0.16419201 0.119989 -1.71499
0.19447801 0.114732 -1.6950001
0.174228 0.129714 -1.6699899
0.17388999 0.13503601 -1.69499
0.13982201 0.14771301 -1.65999
0.16468 0.13962699 -1.7
0.163546 0.14018101 -1.69499
0.135151 0.150003 -1.6592
0.17939401 0.12640899 -1.675
0.14992499 0.119983 -1.7105401
0.164617 0.14130799 -1.6900001
0.195981 0.115098 -1.70498
0.18494301 0.112336 -1.69499
0.178764 0.116999 -1.68499
0.160603 0.120002 -1.70999
0.149611 0.14159399 -1.66998
0.164546 0.130151 -1.6749901
0.159462 0.14233001 -1.6950001
0.181136 0.115171 -1.71
0.16714901 0.12579501 -1.66998
0.16474 0.141357 -1.67998
0.189877 0.108179 -1.70497
0.178683 0.124412 -1.6699899
0.14332999 0.154928 -1.67994
0.174944 0.13209599 -1.70499
0.15974399 0.14268699 -1.69997
0.15581501 0.125011 -1.7033401
0.180591 0.125008 -1.71997
0.18227001 0.12518699 -1.71498
0.15255401 0.14490101 -1.65
0.17502899 0.13005701 -1.70989
0.14471599 0.145123 -1.6599801
0.159573 0.120223 -1.70999
0.18601499 0.12567399 -1.69998
0.144591 0.144899 -1.665
0.0999806 0.138951 -1.675
0.134995 0.158999 -1.67424
0.164876 0.130895 -1.6799901
0.15463901 0.12714 -1.69999
0.15498599 0.145759 -1.68999
0.134841 0.157058 -1.66998
0.16876499 0.125065 -1.69994
0.184554 0.111317 -1.71498
0.15431599 0.147782 -1.665
0.194693 0.111858 -1.6900001
0.16457 0.12612399 -1.7
0.17991699 0.130441 -1.6900001
0.179961 0.128463 -1.70998
0.17937601 0.13106801 -1.69996
0.184981 0.124256 -1.715
0.149407 0.14939199 -1.6799999
0.153951 0.130025 -1.69577
0.16992199 0.13761599 -1.69498
0.194484 0.116901 -1.70499
0.194484 0.106161 -1.71
0.173345 0.120773 -1.6749901
0.17181399 0.135014 -1.69995
0.144849 0.151528 -1.65
0.16023199 0.130009 -1.69467
0.186874 0.110102 -1.71498
0.195179 0.115136 -1.69996
0.18237799 0.116245 -1.7
0.16966 0.12731899 -1.6900001
0.149049 0.142106 -1.6649801
0.163196 0.130345 -1.66998
0.13939101 0.15559401 -1.6549799
0.144831 0.143837 -1.66998
0.144554 0.152712 -1.655
0.16301 0.136612 -1.65499
0.17516799 0.115145 -1.715
0.194978 0.114927 -1.69797
0.184669 0.124344 -1.68499
0.178247 0.120191 -1.69497
0.179144 0.12904599 -1.6799901
0.14916299 0.150941 -1.66497
0.172711 0.13526499 -1.6799901
0.18484899 0.112161 -1.68498
0.14734 0.140057 -1.67998
0.179763 0.130253 -1.705
0.144116 0.137463 -1.68496
0.13995799 0.14563701 -1.66995
0.18830299 0.110149 -1.70498
0.192532 0.115438 -1.68999
0.143233 0.14500301 -1.64999
0.15868799 0.145089 -1.6749901
0.183162 0.115262 -1.70495
0.174208 0.123599 -1.69499
0.12995499 0.159374 -1.65996
0.167097 0.135069 -1.7090501
0.127716 0.16066401 -1.67
0.169982 0.127004 -1.68499
0.12938599 0.125311 -1.69997
0.14472 0.15171 -1.675
0.13519301 0.145 -1.67448
0.154818 0.13362201 -1.6900001
0.15578701 0.141536 -1.64999
0.154935 0.14759 -1.66998
0.139524 0.14399 -1.6749901
0.188408 0.110223 -1.70999
0.149322 0.13500001 -1.6885099
0.13398001 0.150232 -1.65999
0.17931101 0.13035101 -1.68499
0.18797 0.116629 -1.6799901
0.169883 0.116206 -1.71499
0.156652 0.145018 -1.68988
0.169475 0.125021 -1.67498
0.13479 0.150609 -1.6549799
0.17494 0.122688 -1.68998
0.154875 0.14671899 -1.6849999
0.169901 0.1376 -1.6799901
0.15024801 0.13502599 -1.6884201
0.194235 0.116365 -1.69999
0.18600699 0.125109 -1.71
0.15496799 0.13588101 -1.6849999
0.15561099 0.14554401 -1.69498
0.164976 0.130248 -1.6900001
0.164551 0.12875199 -1.6950001
0.189955 0.108498 -1.69997
0.196686 0.105036 -1.71486
0.19983999 0.110879 -1.71499
0.13986599 0.155074 -1.64999
0.149827 0.150554 -1.6699899
0.17477 0.131532 -1.67498
0.157832 0.145356 -1.68499
0.18980099 0.12164 -1.69998
0.200183 0.104955 -1.71807
0.179814 0.13080201 -1.69499
0.14958499 0.152246 -1.68499
0.139902 0.146881 -1.6649801
0.15837499 0.135537 -1.6799901
0.129783 0.158957 -1.6699899
0.14496499 0.130596 -1.6950001
0.144612 0.153116 -1.65999
0.15482201 0.120024 -1.70953
0.154825 0.137307 -1.6799901
0.17998201 0.124996 -1.6738501
0.169644 0.126341 -1.67998
0.153447 0.130541 -1.69499
0.14485499 0.135011 -1.68859
0.184246 0.122829 -1.67998
0.13928799 0.154779 -1.67497
0.169992 0.12638 -1.69498
0.186819 0.121339 -1.68499
0.186362 0.12535501 -1.70496
0.193267 0.105443 -1.71499
0.140027 0.15500499 -1.6692899
0.187352 0.110569 -1.7
0.164947 0.131017 -1.68499
0.18292201 0.126452 -1.68499
0.124766 0.153116 -1.65996
0.197926 0.111263 -1.69997
0.189676 0.121151 -1.71997
0.139826 0.155058 -1.66997
0.158067 0.145142 -1.6799901
0.159703 0.126725 -1.69999
0.13489699 0.157397 -1.665
0.170055 0.125045 -1.69899
0.184854 0.113065 -1.70996
0.184966 0.12614 -1.69499
0.174528 0.122259 -1.68499
0.166063 0.13017599 -1.68498
0.199876 0.109694 -1.70497
0.167827 0.13344499 -1.66
0.19459701 0.116999 -1.715
0.18017501 0.115029 -1.67986
0.13967299 0.155395 -1.66494
0.169937 0.13802999 -1.68496
0.189835 0.108995 -1.70999
0.18968201 0.117013 -1.68499
0.17987899 0.115838 -1.70999
0.17997999 0.12999 -1.68672
0.16996799 0.13496301 -1.6702501
0.16483399 0.139871 -1.69497
0.18003801 0.13033 -1.68993
0.15013 0.145143 -1.64496
0.15996601 0.143924 -1.6799999
0.17497 0.129995 -1.67212
0.175914 0.130336 -1.67497
0.150622 0.14043801 -1.65999
0.185239 0.12585001 -1.6950001
0.174808 0.134462 -1.69498
0.177733 0.130455 -1.6799999
0.15106501 0.14635 -1.65
0.18045101 0.13020501 -1.69997
0.15924101 0.13440999 -1.66997
0.181872 0.12583999 -1.6799901
0.156011 0.14531 -1.65999
0.165135 0.14002299 -1.6943901
0.159486 0.133064 -1.665
0.149993 0.139936 -1.65409
0.159881 0.14434101 -1.6749901
0.169999 0.137982 -1.6900001
0.149755 0.149997 -1.67498
0.157021 0.136494 -1.67
0.14427599 0.14396299 -1.6499799
0.149932 0.14998101 -1.65994
0.174941 0.13442799 -1.68998
0.16409101 0.137233 -1.65999
0.192036 0.120068 -1.70999
0.166086 0.14044601 -1.67998
0.150636 0.15005501 -1.67
0.16651 0.136669 -1.665
0.17998099 0.12967101 -1.68496
0.18068101 0.13014799 -1.69499
0.16113 0.131355 -1.665
0.173659 0.13043 -1.67
0.166557 0.14016999 -1.68496
0.14664701 0.14164799 -1.6499799
0.146616 0.15004399 -1.64999
0.180354 0.12511601 -1.67498
0.153842 0.13890401 -1.66997
0.171556 0.13526601 -1.67495
0.19166701 0.120015 -1.71499
0.15477 0.147204 -1.675
0.15719201 0.135267 -1.66497
0.184948 0.12661099 -1.69998
0.148807 0.14831001 -1.65
0.159733 0.143464 -1.66497
0.144457 0.144803 -1.65499
0.173951 0.13509201 -1.68498
0.169884 0.134956 -1.67
0.15977199 0.14174999 -1.66
0.15498 0.144601 -1.655
0.163919 0.141854 -1.67497
0.157499 0.145391 -1.665
0.174578 0.13364001 -1.6799901
0.184453 0.126974 -1.70498
0.15994 0.14403 -1.68496
0.15968999 0.14369901 -1.68999
0.169544 0.137215 -1.67498
0.174954 0.13421801 -1.68499
0.154618 0.137821 -1.665
0.149345 0.14078601 -1.65499
0.149868 0.150033 -1.65999
0.16404399 0.141692 -1.6849999
0.154838 0.146816 -1.6799999
0.164221 0.13905001 -1.6649899
0.189781 0.122177 -1.70998
0.15861399 0.145318 -1.66996
0.14960299 0.14907099 -1.6549799
0.149569 0.145779 -1.64499
0.150001 0.150021 -1.6736701
0.159848 0.144407 -1.66997
0.159205 0.140204 -1.655
0.163101 0.140196 -1.665
0.161024 0.14055 -1.65999
0.146982 0.151067 -1.65499
0.14383399 0.14528 -1.655
0.173041 0.135729 -1.68999
0.154714 0.13583399 -1.65499
0.159475 0.139909 -1.6549799
0.166253 0.14009 -1.67498
0.16457701 0.128453 -1.6699899
0.17388999 0.13503601 -1.69499
0.15438899 0.137327 -1.66
0.163546 0.14018101 -1.69499
0.17939401 0.12640899 -1.675
0.164617 0.14130799 -1.6900001
0.149702 0.141233 -1.65999
0.154302 0.145171 -1.65499
0.16474 0.141357 -1.67998
0.15255401 0.14490101 -1.65
0.18601499 0.12567399 -1.69998
0.15498599 0.145759 -1.68999
0.15431599 0.147782 -1.665
0.17991699 0.130441 -1.6900001
0.144849 0.151528 -1.65
0.149049 0.142106 -1.6649801
0.179144 0.12904599 -1.6799901
0.172711 0.13526499 -1.6799901
0.143233 0.14500301 -1.64999
0.15868799 0.145089 -1.6749901
0.156278 0.13551299 -1.66
0.154935 0.14759 -1.66998
0.17931101 0.13035101 -1.68499
0.156652 0.145018 -1.68988
0.154875 0.14671899 -1.6849999
0.169901 0.1376 -1.6799901
0.17477 0.131532 -1.67498
0.157832 0.145356 -1.68499
0.179814 0.13080201 -1.69499
0.151942 0.140092 -1.6649899
0.186362 0.12535501 -1.70496
0.18292201 0.126452 -1.68499
0.169828 0.13501 -1.66998
0.158067 0.145142 -1.6799901
0.154111 0.146879 -1.65999
0.184966 0.12614 -1.69499
0.169937 0.13802999 -1.68496
