# .PCD v0.7 - Point Cloud Data file format
VERSION 0.7
FIELDS x y z normal_x normal_y normal_z curvature
SIZE 4 4 4 4 4 4 4
TYPE F F F F F F F
COUNT 1 1 1 1 1 1 1
WIDTH 525
HEIGHT 1
VIEWPOINT 0 0 0 1 0 0 0
POINTS 525
DATA ascii
0.175083 0.13000301 -1.71505 -0.72604018 -0.11463077 -0.67803055 0
0.180014 0.130004 -1.7056299 0.38634729 0.91096699 0.14448164 0
0.17997999 0.12999 -1.68672 0.7725535 0.43715113 0.4604997 0
0.169697 0.124718 -1.69998 0.18295979 0.97696126 0.10987479 0
0.150353 0.150014 -1.69045 -0.69185442 0.26625711 -0.67115176 0
0.16483399 0.139871 -1.69497 0.7965588 0.35435948 0.48981985 0
0.159633 0.129853 -1.69499 0.79878098 0.50382811 0.32879505 0
0.155614 0.119999 -1.70999 0.025018552 0.91756052 -0.39680824 0
0.16500901 0.13005801 -1.6907001 0.52971953 0.83624405 -0.1417502 0
0.18003801 0.13033 -1.68993 0.74351758 0.59157413 0.31180382 0
0.175234 0.120069 -1.6799999 0.66909868 0.69286489 -0.26878479 0
0.175129 0.120039 -1.70575 0.32175621 0.92852622 0.18523495 0
0.16999 0.124978 -1.6761 0.60787255 0.46938673 0.64044285 0
0.185022 0.125442 -1.68999 0.86989605 0.094998896 0.48400009 0
0.149536 0.15003499 -1.69049 -0.70715958 0.23487774 -0.66690159 0
0.164937 0.119996 -1.71529 0.13299252 0.93102092 -0.33987203 0
0.14025199 0.155196 -1.6549799 -0.002309846 0.90853792 -0.41779602 0
0.12994 0.15994 -1.67118 -0.26511961 0.89501154 -0.35870028 0
0.180326 0.115002 -1.68498 0.75227863 0.65787846 0.03567579 0
0.15013 0.145143 -1.64496 0.46744838 0.87335718 0.13689147 0
0.145371 0.140001 -1.68098 0.72691023 0.4964723 0.47446474 0
0.16497201 0.129988 -1.67599 -0.018208321 0.81314272 -0.58177948 0
0.185109 0.120686 -1.67993 0.83042502 -0.066843107 0.55310601 0
0.19491 0.10433 -1.71497 0.82932091 0.30071822 0.47095156 0
0.18007401 0.125003 -1.72092 -0.089248702 0.44491965 -0.89111233 0
0.150001 0.140026 -1.67668 0.58026797 0.78450519 0.21872512 0
0.175091 0.130064 -1.7149301 -0.72237194 -0.10102591 -0.68408519 0
0.14469799 0.13000999 -1.6958801 -0.17253381 0.8253355 -0.53763682 0
0.165382 0.13001899 -1.68996 0.4088881 0.86906916 -0.27844077 0
0.180113 0.130045 -1.70497 0.361687 0.9221217 0.13738304 0
0.190091 0.120518 -1.6950001 0.88929701 -0.2562654 0.37878606 0
0.15996601 0.143924 -1.6799999 0.73864275 0.59154367 0.32323822 0
0.17497 0.129995 -1.67212 0.60015821 0.45244551 0.6596235 0
0.180078 0.115056 -1.71147 -0.22357726 0.41750649 -0.88073921 0
0.16486201 0.129876 -1.67498 0.67694038 0.38442096 0.62767208 0
0.175914 0.130336 -1.67497 0.54591829 0.41990113 0.72502154 0
0.189937 0.119928 -1.69238 0.88260216 -0.258001 0.39299989 0
0.150059 0.150372 -1.66496 -0.057816848 0.89943272 -0.43321824 0
0.150622 0.14043801 -1.65999 -0.33779344 0.68329686 -0.64730287 0
0.17065001 0.12516201 -1.6799901 -0.3305814 0.6069898 -0.72268891 0
0.185004 0.125002 -1.7130899 0.53162104 0.82667577 -0.18435363 0
0.134884 0.149912 -1.6599801 0.67878282 0.73326236 -0.039751362 0
0.159298 0.134976 -1.67997 -0.19706945 0.72214299 -0.66307855 0
0.19535901 0.1111 -1.68999 -0.23698516 0.93885398 -0.24978231 0
0.149174 0.139486 -1.67998 0.69852048 0.60914314 0.37551805 0
0.185239 0.12585001 -1.6950001 0.90434903 0.22903755 0.36013144 0
0.154892 0.13495199 -1.65256 0.48070055 0.87517709 -0.054700088 0
0.18421 0.119946 -1.67497 0.7718761 -0.042262297 0.63436675 0
0.179987 0.114927 -1.68308 0.40065712 0.8218661 -0.40498146 0
0.190414 0.115925 -1.68498 0.92666852 -0.082637019 0.36668316 0
0.174808 0.134462 -1.69498 -0.16884468 0.72961193 -0.66268992 0
0.18541101 0.111648 -1.6950001 0.22661704 0.97374851 -0.021413762 0
0.164937 0.119547 -1.70996 0.14592952 0.91386867 -0.37887809 0
0.155469 0.13000201 -1.69554 0.81738025 0.39875463 0.41579351 0
0.177733 0.130455 -1.6799999 0.65208548 0.43288285 0.62241226 0
0.17190599 0.12518001 -1.69498 -0.14877835 0.87625396 -0.45830557 0
0.19101401 0.120296 -1.7 0.92651254 -0.23624253 0.29285482 0
0.18045101 0.13020501 -1.69997 0.087935798 0.97460127 -0.2059602 0
0.167961 0.129987 -1.65997 0.58643979 0.7840898 0.2032032 0
0.15924101 0.13440999 -1.66997 -0.32113034 0.64960611 -0.68912059 0
0.181872 0.12583999 -1.6799901 0.78944737 0.21451925 0.57511246 0
0.17195401 0.12502301 -1.68499 -0.32469594 0.60998768 -0.72283304 0
0.149924 0.14995299 -1.68293 0.80347532 0.40189698 0.43921089 0
0.165135 0.14002299 -1.6943901 0.79735518 0.34837851 0.49280533 0
0.190109 0.120014 -1.72149 0.36305889 0.40157327 -0.84078962 0
0.169765 0.119028 -1.70997 0.5384745 0.78992021 0.2933791 0
0.169348 0.133691 -1.70499 -0.83371919 0.061805289 -0.54871893 0
0.149892 0.130014 -1.69601 -0.11188129 0.76514506 -0.63406277 0
0.159881 0.14434101 -1.6749901 0.043598998 0.87866551 -0.47544304 0
0.174933 0.11867 -1.67497 0.35144404 0.70090282 -0.62066281 0
0.169999 0.137982 -1.6900001 0.81781024 0.39184693 0.42147642 0
0.18951499 0.119769 -1.68999 0.91570842 -0.1775631 0.36048502 0
0.16041701 0.125011 -1.70269 0.0060652108 0.80629212 -0.59148645 0
0.17049 0.135012 -1.70129 0.79356104 0.42697567 0.4335351 0
0.149755 0.149997 -1.67498 0.79030764 0.22377028 0.57038641 0
0.134542 0.124758 -1.69999 -0.068357214 0.90039873 -0.42966199 0
0.184857 0.113788 -1.70498 0.74341232 -0.29783437 0.59885961 0
0.175097 0.120436 -1.705 0.29085392 0.93686891 0.19411492 0
0.196292 0.115067 -1.71498 0.94484407 0.30546802 0.1181479 0
0.14427599 0.14396299 -1.6499799 0.67494625 0.73755836 -0.021335887 0
0.18282101 0.115271 -1.69497 0.98800606 -0.10745877 0.11089031 0
0.176185 0.120348 -1.68499 0.73952496 -0.19318469 0.64481199 0
0.149932 0.14998101 -1.65994 0.75804287 0.53585309 0.37179637 0
0.141463 0.14514001 -1.66998 0.73261255 0.54128748 0.41265813 0
0.17755 0.120064 -1.68998 -0.21300332 0.80823874 -0.54898059 0
0.151352 0.14384399 -1.64499 0.50137269 0.84626502 0.18016936 0
0.174941 0.13442799 -1.68998 0.11710843 0.85898125 -0.49843433 0
0.165644 0.13014901 -1.67995 -0.29189664 0.64361727 -0.70749784 0
0.17154001 0.130445 -1.665 0.44030535 0.88862783 -0.12834238 0
0.197267 0.110596 -1.69499 -0.23884898 0.95265031 -0.18817158 0
0.194912 0.116736 -1.70999 0.82780671 0.044548318 0.55924189 0
0.16409101 0.137233 -1.65999 0.48133293 0.87043828 -0.1032271 0
0.16984899 0.13574301 -1.69999 0.80043817 0.3880491 0.45685512 0
0.192036 0.120068 -1.70999 0.88353294 0.28530774 0.37144184 0
0.144921 0.153355 -1.6649801 -0.26862547 0.77366877 -0.57382661 0
0.166086 0.14044601 -1.67998 0.43354386 0.88803464 -0.15308234 0
0.14423101 0.134021 -1.68998 -0.35966325 0.75402075 -0.54963171 0
0.164263 0.14000601 -1.70336 0.39359045 0.81512934 -0.42503026 0
0.150636 0.15005501 -1.67 -0.28532964 0.74563313 -0.60217792 0
0.18494099 0.113346 -1.7 0.8764534 0.46730241 0.1160083 0
0.169782 0.12477 -1.67498 -0.16626938 0.60409307 -0.77937543 0
0.14001501 0.14502899 -1.67195 0.7517159 0.42264384 0.50625622 0
0.129962 0.124995 -1.6997499 -0.081054054 0.90883094 -0.40921453 0
0.199967 0.104283 -1.71497 -0.37626073 0.57505244 -0.72645891 0
0.16651 0.136669 -1.665 0.33775699 0.87825561 -0.33850744 0
0.18499801 0.124997 -1.68817 0.88104671 0.10353953 0.46155852 0
0.17998099 0.12967101 -1.68496 0.76597124 0.41009447 0.4950864 0
0.195913 0.115362 -1.70999 0.79943067 -0.0008623717 0.60075772 0
0.13998801 0.154984 -1.66987 0.6761595 0.41020644 0.61199594 0
0.124783 0.126624 -1.69498 -0.078489572 0.90026879 -0.4282003 0
0.154309 0.12501299 -1.70332 0.01989132 0.84871012 -0.52848417 0
0.149846 0.13731401 -1.68499 0.76119506 0.52469325 0.38115489 0
0.18068101 0.13014799 -1.69499 0.23103034 0.90859383 -0.34796876 0
0.17999201 0.11767 -1.70498 0.50440192 0.86314327 -0.023714395 0
0.14984301 0.14050201 -1.67498 0.53277016 0.82758588 0.17679816 0
0.181188 0.1155 -1.6900001 0.95200908 -0.0047358777 0.30603319 0
0.173659 0.13043 -1.67 0.36391389 0.82415414 -0.43397772 0
0.15487 0.119823 -1.70995 0.016590696 0.918208 -0.39575088 0
0.166557 0.14016999 -1.68496 -0.16975357 0.73570693 -0.65568215 0
0.179776 0.113323 -1.71498 0.28174579 0.72850263 -0.62442231 0
0.14461499 0.142625 -1.6749901 0.69058663 0.54435438 0.47620204 0
0.18954 0.108681 -1.6950001 -0.090979598 0.9878974 -0.12562445 0
0.154792 0.123835 -1.70498 0.022172144 0.87087429 -0.49100542 0
0.150225 0.150106 -1.68993 -0.69363242 0.26275656 -0.67069596 0
0.180354 0.12511601 -1.67498 0.69389284 0.14047174 0.70624387 0
0.15411399 0.13846999 -1.6749901 0.33044204 0.93177927 -0.15031776 0
0.171556 0.13526601 -1.67495 0.66587555 0.27218595 0.69463986 0
0.19166701 0.120015 -1.71499 0.74769557 0.61603051 -0.24790667 0
0.169754 0.122146 -1.70495 0.19157425 0.96230042 0.19307315 0
0.144371 0.14501201 -1.6649801 -0.023837233 0.85806489 -0.51298773 0
0.13523699 0.124981 -1.69998 -0.067530259 0.89899474 -0.43272173 0
0.15477 0.147204 -1.675 0.75664365 0.38218781 0.53049302 0
0.15719201 0.135267 -1.66497 -0.25040376 0.74386734 -0.61964452 0
0.15993001 0.123558 -1.705 0.072272763 0.87714338 -0.47475901 0
0.184948 0.12661099 -1.69998 0.56598818 0.81056207 -0.1504875 0
0.154065 0.119968 -1.71137 0.009283185 0.92327064 -0.38403791 0
0.16685399 0.140011 -1.68999 0.80748224 0.33383879 0.48633745 0
0.200441 0.11023 -1.71496 0.72343427 -0.032853361 0.68961108 0
0.13961001 0.15555 -1.6599801 -0.03866427 0.84577274 -0.53214055 0
0.174986 0.115214 -1.71498 0.36293972 0.82022703 -0.44215652 0
0.14174899 0.144834 -1.64498 0.032655802 0.88451242 -0.46537223 0
0.16917901 0.123707 -1.67 0.13662712 0.73488861 -0.66428292 0
0.174612 0.122476 -1.7 -0.058070656 0.99210775 -0.11113072 0
0.19008701 0.120757 -1.71997 0.48064581 0.51239693 -0.71163827 0
0.184728 0.125772 -1.68998 0.86550969 0.12504265 0.48503333 0
0.159964 0.13391601 -1.68499 0.51989877 0.84167773 -0.14588992 0
0.173951 0.13509201 -1.68498 0.66087627 0.68424201 0.30831051 0
0.174978 0.133716 -1.69997 0.563299 0.6793654 0.47027317 0
0.169347 0.133551 -1.6649801 0.47317478 0.86139894 -0.18465506 0
0.174955 0.11781 -1.71 0.47607142 0.87816554 0.046704575 0
0.189669 0.121647 -1.71499 0.64983296 0.69497949 -0.30776709 0
0.144765 0.152621 -1.66997 0.74474132 0.2275964 0.62734383 0
0.16525 0.125016 -1.7016799 0.7673654 0.37943068 0.51689714 0
0.16497301 0.122962 -1.70498 -0.00096666795 0.79205269 -0.610452 0
0.13946 0.148293 -1.65499 -0.0097746048 0.85316497 -0.52154958 0
0.172233 0.129456 -1.665 0.42052236 0.89786053 -0.13041265 0
0.15393101 0.14503001 -1.69677 -0.67743772 0.090645798 -0.72997361 0
0.189916 0.10795 -1.71499 -0.44790965 0.05301882 -0.89250541 0
0.17994399 0.118427 -1.69497 0.94191498 -0.25214827 0.22184989 0
0.163919 0.141854 -1.67497 0.74587792 0.44364712 0.49683329 0
0.157499 0.145391 -1.665 0.78603476 0.22186238 0.57699782 0
0.149884 0.130596 -1.69499 0.80877143 0.34354097 0.4773556 0
0.17820901 0.120099 -1.7 0.084360763 0.98473215 -0.1522691 0
0.149386 0.12734599 -1.69997 -0.037153505 0.80915004 -0.58642632 0
0.139984 0.15491199 -1.6763 -0.27977684 0.30873159 -0.90907079 0
0.187886 0.110325 -1.68999 -0.13215142 0.97603589 -0.17288722 0
0.174578 0.13364001 -1.6799901 0.63212055 0.40953815 0.65780097 0
0.184453 0.126974 -1.70498 0.46000272 0.88765651 -0.021527421 0
0.19952001 0.110162 -1.70496 -0.27014673 0.92087829 -0.28107637 0
0.15994 0.14403 -1.68496 0.80908138 0.34185532 0.47804001 0
0.15968999 0.14369901 -1.68999 0.80771023 0.35654184 0.46955526 0
0.164002 0.120146 -1.71499 0.1073605 0.93965024 -0.3248556 0
0.169544 0.137215 -1.67498 0.69710678 0.271642 0.66351551 0
0.152128 0.140054 -1.67 -0.17363594 0.81296253 -0.55582595 0
0.174954 0.13421801 -1.68499 0.68181461 0.61909395 0.38968131 0
0.14476401 0.14060999 -1.67997 0.72094184 0.49017677 0.48986688 0
0.18913899 0.120239 -1.68999 0.91367322 -0.16482382 0.37152973 0
0.154618 0.137821 -1.665 -0.24362455 0.7620129 -0.5999862 0
0.149345 0.14078601 -1.65499 0.53891379 0.83187872 -0.13247557 0
0.134868 0.157708 -1.6549799 0.55800855 0.79903597 -0.22398214 0
0.149868 0.150033 -1.65999 0.74981833 0.55640799 0.35802597 0
0.14966699 0.119579 -1.70997 -0.026979659 0.91863233 -0.39419121 0
0.16404399 0.141692 -1.6849999 0.80115336 0.45485923 0.38891691 0
0.139502 0.121688 -1.70495 -0.024605056 0.88254267 -0.46958816 0
0.154838 0.146816 -1.6799999 0.79143727 0.30540842 0.52948344 0
0.194903 0.104895 -1.71868 0.42441225 0.14591308 -0.89363503 0
0.140753 0.155048 -1.6599801 -0.18027794 0.81279063 -0.55395961 0
0.15431599 0.146341 -1.6950001 -0.67091203 0.1601004 -0.7240476 0
0.13611799 0.150056 -1.65495 0.28181645 0.86870521 -0.40734595 0
0.170122 0.120002 -1.70834 0.60660815 0.70545614 0.36654904 0
0.189781 0.122177 -1.70998 0.80140209 0.58024549 0.14515458 0
0.179566 0.115068 -1.67998 0.22957864 0.76534003 -0.60128886 0
0.150855 0.14005999 -1.67498 0.52532166 0.83776563 0.14894943 0
0.13459501 0.157401 -1.65997 0.66305256 0.66554606 0.34265101 0
0.166162 0.135087 -1.66 0.59283549 0.80430824 0.04042656 0
0.13388 0.14500199 -1.6747299 -0.24195626 0.29812056 -0.92335331 0
0.184591 0.12607899 -1.70998 0.51207316 0.85845739 -0.028843345 0
0.15861399 0.145318 -1.66996 0.75756264 0.47010586 0.45287898 0
0.149793 0.13396201 -1.6900001 0.79171389 0.4868778 0.36897036 0
0.14960299 0.14907099 -1.6549799 0.82849413 0.15864266 0.53705674 0
0.149569 0.145779 -1.64499 0.4479855 0.88771176 0.10619227 0
0.150001 0.150021 -1.6736701 0.78366029 0.21028891 0.58451271 0
0.19164599 0.12024 -1.70495 0.91271812 0.0038391817 0.40857172 0
0.184268 0.120035 -1.675 0.78755802 0.0030620242 0.61623287 0
0.14070299 0.155003 -1.6649899 0.71491754 0.33878493 0.6116516 0
0.159848 0.144407 -1.66997 0.76839477 0.3525576 0.53410918 0
0.159867 0.132623 -1.68998 0.76913577 0.60705721 0.19977914 0
0.162292 0.142285 -1.7 -0.44074342 0.15109703 -0.88482481 0
0.184505 0.111352 -1.68998 0.14120793 0.98276371 -0.11931392 0
0.139998 0.15499499 -1.64999 0.39421526 0.91900718 -0.00448348 0
0.179961 0.126194 -1.71496 -0.5835346 0.01192079 -0.81200081 0
0.159205 0.140204 -1.655 0.41402999 0.90150487 -0.12596872 0
0.189465 0.121218 -1.6950001 0.89642602 -0.22065008 0.38436174 0
0.174312 0.121169 -1.6799901 0.57159823 -0.25737312 0.7791242 0
0.17896999 0.118333 -1.68999 0.92832166 -0.1163489 0.3531031 0
0.14947399 0.15013599 -1.67497 0.7905488 0.22279873 0.5704326 0
0.14514799 0.15242399 -1.6799999 -0.51233482 0.30113581 -0.80425757 0
0.155013 0.135058 -1.68722 0.76812285 0.5745191 0.28269264 0
0.146982 0.151067 -1.65499 0.79953438 0.40198797 0.44626272 0
0.17247801 0.12505899 -1.68996 -0.31308317 0.64497274 -0.69712919 0
0.15847699 0.130024 -1.69497 0.80992311 0.48452267 0.33054855 0
0.19410799 0.115236 -1.69499 0.83472598 -0.43409646 0.33881092 0
0.189401 0.122568 -1.705 0.93780375 0.24653018 0.24443194 0
0.13716701 0.159703 -1.67496 0.015930122 0.69630665 -0.71756762 0
0.173041 0.135729 -1.68999 -0.058950406 0.78869361 -0.61195362 0
0.157049 0.13518 -1.68499 0.6914373 0.71125734 0.1265997 0
0.17480201 0.120601 -1.70494 0.28736877 0.93455511 0.20982359 0
0.136096 0.16242699 -1.6749901 0.23373042 0.97186166 0.02924059 0
0.174997 0.119999 -1.67892 0.44102755 0.72181344 -0.53336674 0
0.16431201 0.134682 -1.65499 0.68955034 0.68637979 0.23109099 0
0.20057 0.108718 -1.705 -0.28087941 0.9165554 -0.28466287 0
0.174215 0.130836 -1.70998 -0.74199963 0.011502633 -0.67030156 0
0.17966799 0.118863 -1.7 0.23144712 0.96341205 -0.13516475 0
0.159475 0.139909 -1.6549799 0.43992892 0.89280075 -0.096795596 0
0.16457701 0.128453 -1.6699899 0.60995615 0.7893585 0.069761582 0
0.168623 0.133269 -1.70999 -0.81117457 0.0075621805 -0.58475524 0
0.16419201 0.119989 -1.71499 0.11279375 0.93798774 -0.3278057 0
0.19447801 0.114732 -1.6950001 0.83015084 -0.44546941 0.33527088 0
0.174228 0.129714 -1.6699899 0.3578597 0.82176048 -0.44344804 0
0.17388999 0.13503601 -1.69499 0.73265243 0.47535962 0.48708692 0
0.13982201 0.14771301 -1.65999 0.15736882 0.86789095 -0.47116908 0
0.16468 0.13962699 -1.7 -0.47916266 0.23179714 -0.84656554 0
0.163546 0.14018101 -1.69499 0.79836726 0.36146381 0.48161566 0
0.135151 0.150003 -1.6592 0.62202853 0.77334732 -0.12253311 0
0.17939401 0.12640899 -1.675 0.66594303 0.24276908 0.7053957 0
0.14992499 0.119983 -1.7105401 -0.027746167 0.92165709 -0.38701212 0
0.164617 0.14130799 -1.6900001 0.80500704 0.32278863 0.49776614 0
0.195981 0.115098 -1.70498 0.79692894 -0.1229195 0.59143472 0
0.18494301 0.112336 -1.69499 0.38054666 0.92468089 0.012226135 0
0.178764 0.116999 -1.68499 0.81207848 -0.098052412 0.57525146 0
0.160603 0.120002 -1.70999 0.086493984 0.91491914 -0.394261 0
0.149611 0.14159399 -1.66998 -0.073036432 0.88454169 -0.46070781 0
0.164546 0.130151 -1.6749901 0.67944497 0.37072048 0.63318312 0
0.159462 0.14233001 -1.6950001 0.79935235 0.44819048 0.40020132 0
0.181136 0.115171 -1.71 0.72348535 -0.23348528 0.64965653 0
0.16714901 0.12579501 -1.66998 0.28000423 0.81557405 -0.5063957 0
0.16474 0.141357 -1.67998 0.083860844 0.86588705 -0.49316016 0
0.189877 0.108179 -1.70497 0.066630386 0.95703298 -0.28222033 0
0.178683 0.124412 -1.6699899 0.23700003 0.76794547 -0.59505522 0
0.14332999 0.154928 -1.67994 -0.374966 0.40741366 -0.83271521 0
0.174944 0.13209599 -1.70499 0.57996821 0.72088009 0.37943217 0
0.15974399 0.14268699 -1.69997 -0.51917654 0.11878489 -0.84637219 0
0.15581501 0.125011 -1.7033401 0.034443952 0.84908646 -0.52712977 0
0.180591 0.125008 -1.71997 -0.10920513 0.43271747 -0.89489096 0
0.18227001 0.12518699 -1.71498 0.35521629 0.77490449 -0.52282351 0
0.15255401 0.14490101 -1.65 0.32339609 0.91797251 -0.22965509 0
0.17502899 0.13005701 -1.70989 0.47787955 0.87336498 -0.094152912 0
0.14471599 0.145123 -1.6599801 -0.21875632 0.76273113 -0.60859418 0
0.159573 0.120223 -1.70999 0.073123626 0.91491371 -0.39697075 0
0.18601499 0.12567399 -1.69998 0.80387104 0.59464854 0.013581062 0
0.144591 0.144899 -1.665 -0.04456725 0.85088456 -0.5234589 0
0.0999806 0.138951 -1.675 -0.43299243 0.61723602 -0.65691495 0
0.134995 0.158999 -1.67424 -0.081899747 0.53188556 -0.84284645 0
0.164876 0.130895 -1.6799901 -0.30092022 0.63618588 -0.71043265 0
0.15463901 0.12714 -1.69999 0.019545605 0.79797828 -0.60236919 0
0.15498599 0.145759 -1.68999 0.80565184 0.42599976 0.41164222 0
0.134841 0.157058 -1.66998 0.32873043 0.87814224 0.34756652 0
0.16876499 0.125065 -1.69994 0.25813863 0.95338941 0.15624705 0
0.184554 0.111317 -1.71498 -0.22685187 0.3152853 -0.92148435 0
0.15431599 0.147782 -1.665 0.76378 0.48605371 0.42472568 0
0.194693 0.111858 -1.6900001 -0.23484822 0.93879366 -0.25201747 0
0.16457 0.12612399 -1.7 0.75255215 0.42993256 0.49882185 0
0.17991699 0.130441 -1.6900001 0.73632371 0.60893053 0.29501021 0
0.179961 0.128463 -1.70998 0.49301264 0.86902052 0.041735649 0
0.17937601 0.13106801 -1.69996 0.063767821 0.98830432 -0.13852161 0
0.184981 0.124256 -1.715 0.52291143 0.78425413 -0.33392978 0
0.149407 0.14939199 -1.6799999 0.80233014 0.29477918 0.51901019 0
0.153951 0.130025 -1.69577 0.8142578 0.37152404 0.44604272 0
0.16992199 0.13761599 -1.69498 0.79325634 0.31953555 0.51830631 0
0.194484 0.116901 -1.70499 0.83398026 -0.10628336 0.54146165 0
0.194484 0.106161 -1.71 -0.12916446 0.88132435 -0.4545151 0
0.173345 0.120773 -1.6749901 0.45249513 0.68694365 -0.56864446 0
0.17181399 0.135014 -1.69995 0.7830106 0.40411595 0.47284749 0
0.144849 0.151528 -1.65 0.8107661 0.25228855 0.52821285 0
0.16023199 0.130009 -1.69467 0.79568356 0.5149048 0.31899953 0
0.186874 0.110102 -1.71498 -0.37907314 0.14546223 -0.91386229 0
0.195179 0.115136 -1.69996 0.81091839 -0.28528047 0.51090747 0
0.18237799 0.116245 -1.7 0.89530432 -0.35807046 0.26498246 0
0.16966 0.12731899 -1.6900001 -0.17822668 0.77375722 -0.60789394 0
0.149049 0.142106 -1.6649801 -0.26196897 0.74053466 -0.61885434 0
0.163196 0.130345 -1.66998 0.55254453 0.83093005 -0.065190405 0
0.13939101 0.15559401 -1.6549799 -0.017205702 0.89260006 -0.45052096 0
0.144831 0.143837 -1.66998 0.54634225 0.82663715 0.13483736 0
0.144554 0.152712 -1.655 0.44989645 0.89237309 0.035545025 0
0.16301 0.136612 -1.65499 0.64974976 0.74310386 0.16006842 0
0.17516799 0.115145 -1.715 0.36581025 0.81802195 -0.44387266 0
0.194978 0.114927 -1.69797 0.82162946 -0.37075871 0.43296999 0
0.184669 0.124344 -1.68499 0.88423747 0.1076294 0.45446673 0
0.178247 0.120191 -1.69497 -0.021535587 0.85842824 -0.51248139 0
0.179144 0.12904599 -1.6799901 0.69378656 0.39252412 0.60380876 0
0.14916299 0.150941 -1.66497 -0.13332322 0.86526668 -0.48325819 0
0.172711 0.13526499 -1.6799901 0.67541283 0.40892601 0.613675 0
0.18484899 0.112161 -1.68498 -0.026078599 0.90009594 -0.4349106 0
0.14734 0.140057 -1.67998 0.71264625 0.55052811 0.43480358 0
0.179763 0.130253 -1.705 0.36679122 0.91732073 0.1548769 0
0.144116 0.137463 -1.68496 0.72005165 0.57429469 0.38950124 0
0.13995799 0.14563701 -1.66995 0.75366622 0.47493106 0.4543432 0
0.18830299 0.110149 -1.70498 0.20277511 0.95969242 -0.19460912 0
0.192532 0.115438 -1.68999 0.95581853 -0.17160904 0.23866563 0
0.143233 0.14500301 -1.64999 0.80871248 0.55055541 0.20705776 0
0.15868799 0.145089 -1.6749901 -0.13061811 0.80211157 -0.58271432 0
0.183162 0.115262 -1.70495 0.75422239 -0.36119565 0.54834867 0
0.174208 0.123599 -1.69499 -0.23321503 0.77161896 -0.5917896 0
0.12995499 0.159374 -1.65996 0.10602868 0.97472924 0.19662352 0
0.167097 0.135069 -1.7090501 -0.70879769 0.37170756 -0.59953254 0
0.127716 0.16066401 -1.67 -0.29614198 0.93664885 -0.1870532 0
0.169982 0.127004 -1.68499 -0.3655934 0.57546902 -0.73155785 0
0.12938599 0.125311 -1.69997 -0.082184494 0.90953404 -0.40742308 0
0.14472 0.15171 -1.675 0.77601266 0.24150853 0.58264738 0
0.13519301 0.145 -1.67448 -0.28558218 0.27642381 -0.9176234 0
0.154818 0.13362201 -1.6900001 0.79163027 0.52142417 0.31849387 0
0.15578701 0.141536 -1.64999 0.5332706 0.84583718 0.013487716 0
0.154935 0.14759 -1.66998 -0.010129216 0.89835811 -0.43914703 0
0.139524 0.14399 -1.6749901 0.71046543 0.58886486 0.38532722 0
0.188408 0.110223 -1.70999 0.72105908 0.039699968 0.69173527 0
0.149322 0.13500001 -1.6885099 0.78517121 0.49443305 0.3728835 0
0.13398001 0.150232 -1.65999 0.71675462 0.6970408 0.019924056 0
0.17931101 0.13035101 -1.68499 0.74987489 0.43398893 0.49934086 0
0.18797 0.116629 -1.6799901 0.83195144 -0.14825775 0.53467411 0
0.169883 0.116206 -1.71499 0.27006948 0.87060791 -0.41122305 0
0.156652 0.145018 -1.68988 0.8086704 0.38616064 0.44377038 0
0.169475 0.125021 -1.67498 0.60759437 0.378337 0.69834822 0
0.13479 0.150609 -1.6549799 0.40713215 0.84827232 -0.33864069 0
0.17494 0.122688 -1.68998 -0.21487765 0.70116961 -0.67984468 0
0.154875 0.14671899 -1.6849999 0.80701888 0.34482464 0.47939178 0
0.169901 0.1376 -1.6799901 0.71570283 0.47372112 0.51318389 0
0.15024801 0.13502599 -1.6884201 0.78490764 0.50092584 0.36468244 0
0.194235 0.116365 -1.69999 0.83896554 -0.28939557 0.46085462 0
0.18600699 0.125109 -1.71 0.55898952 0.82870531 -0.027896101 0
0.15496799 0.13588101 -1.6849999 0.73403943 0.63770777 0.23348427 0
0.15561099 0.14554401 -1.69498 -0.66056138 0.13832967 -0.73791838 0
0.164976 0.130248 -1.6900001 0.47685739 0.84967244 -0.22508615 0
0.164551 0.12875199 -1.6950001 0.69478858 0.66992503 0.26166648 0
0.189955 0.108498 -1.69997 -0.033279452 0.98623049 -0.1619935 0
0.196686 0.105036 -1.71486 -0.16944228 0.72034055 -0.67260599 0
0.19983999 0.110879 -1.71499 0.69438338 -0.078222379 0.71534115 0
0.13986599 0.155074 -1.64999 0.37877125 0.92521876 -0.022418974 0
0.149827 0.150554 -1.6699899 0.76663023 0.18106294 0.61603105 0
0.17477 0.131532 -1.67498 0.57969522 0.39316249 0.71370631 0
0.157832 0.145356 -1.68499 0.81117105 0.32588848 0.48559058 0
0.18980099 0.12164 -1.69998 0.94869125 -0.14158389 0.28273475 0
0.200183 0.104955 -1.71807 0.76747423 0.0087333722 0.6410203 0
0.179814 0.13080201 -1.69499 0.12565039 0.88875312 -0.44082865 0
0.14958499 0.152246 -1.68499 -0.45063728 0.60720992 -0.65438682 0
0.139902 0.146881 -1.6649801 0.6382094 0.76847184 0.046258006 0
0.15837499 0.135537 -1.6799901 -0.10882574 0.78181291 -0.61394262 0
0.129783 0.158957 -1.6699899 -0.23139118 0.95961887 -0.15996808 0
0.14496499 0.130596 -1.6950001 -0.19452181 0.81514633 -0.54561681 0
0.144612 0.153116 -1.65999 -0.11498982 0.88189107 -0.45721492 0
0.15482201 0.120024 -1.70953 0.015321244 0.91636753 -0.40004471 0
0.154825 0.137307 -1.6799901 0.62741536 0.76631284 0.13825577 0
0.17998201 0.124996 -1.6738501 0.18017411 0.72982484 -0.65946418 0
0.169644 0.126341 -1.67998 -0.065656483 0.7700516 -0.63459414 0
0.153447 0.130541 -1.69499 0.81462872 0.3926729 0.42683494 0
0.14485499 0.135011 -1.68859 -0.42244339 0.70439529 -0.57041115 0
0.184246 0.122829 -1.67998 0.83217454 0.033219133 0.55351782 0
0.13928799 0.154779 -1.67497 -0.27462783 0.27923399 -0.92011303 0
0.169992 0.12638 -1.69498 0.03223417 0.95527887 -0.29394418 0
0.186819 0.121339 -1.68499 0.9050979 -0.033251993 0.42390099 0
0.186362 0.12535501 -1.70496 0.61733484 0.78620142 -0.028017702 0
0.193267 0.105443 -1.71499 0.80932271 0.46624002 0.35723519 0
0.140027 0.15500499 -1.6692899 0.67788219 0.40025046 0.61666465 0
0.187352 0.110569 -1.7 0.10802589 0.98704505 -0.1186277 0
0.164947 0.131017 -1.68499 -0.19854136 0.70183158 -0.68411535 0
0.18292201 0.126452 -1.68499 0.84935385 0.23556599 0.47234172 0
0.124766 0.153116 -1.65996 -0.27525604 0.94700444 0.16557994 0
0.197926 0.111263 -1.69997 -0.23939669 0.9456805 -0.21994902 0
0.189676 0.121151 -1.71997 0.45944321 0.52094543 -0.71939403 0
0.139826 0.155058 -1.66997 0.67175931 0.42187142 0.60890388 0
0.158067 0.145142 -1.6799901 0.78217858 0.40765128 0.47118694 0
0.159703 0.126725 -1.69999 0.78518766 0.33657545 0.51980507 0
0.13489699 0.157397 -1.665 0.53651744 0.70422351 0.46499276 0
0.170055 0.125045 -1.69899 0.16229367 0.98583084 0.042406887 0
0.184854 0.113065 -1.70996 0.64692873 -0.23495531 0.72545105 0
0.184966 0.12614 -1.69499 0.89583385 0.27870688 0.34612736 0
0.174528 0.122259 -1.68499 -0.31740567 0.61985725 -0.71765631 0
0.166063 0.13017599 -1.68498 -0.26788929 0.65374482 -0.70770967 0
0.199876 0.109694 -1.70497 -0.27392477 0.91944563 -0.28210801 0
0.167827 0.13344499 -1.66 0.60812563 0.78490651 0.1187646 0
0.19459701 0.116999 -1.715 0.90640539 0.4212642 -0.031075882 0
0.18017501 0.115029 -1.67986 0.1820924 0.75842059 -0.62581193 0
0.13967299 0.155395 -1.66494 0.71606117 0.37315658 0.58992422 0
0.169937 0.13802999 -1.68496 0.13276516 0.87946457 -0.45707276 0
0.189835 0.108995 -1.70999 0.75346297 0.34800309 0.55784178 0
0.18968201 0.117013 -1.68499 0.92011726 -0.11165741 0.37538889 0
0.17987899 0.115838 -1.70999 0.56033558 0.82701933 -0.045420565 0
0.17997999 0.12999 -1.68672 0.7725535 0.43715113 0.4604997 0
0.16996799 0.13496301 -1.6702501 0.27885196 0.83582026 -0.47291234 0
0.16483399 0.139871 -1.69497 0.7965588 0.35435948 0.48981985 0
0.18003801 0.13033 -1.68993 0.74351758 0.59157413 0.31180382 0
0.15013 0.145143 -1.64496 0.46744838 0.87335718 0.13689147 0
0.15996601 0.143924 -1.6799999 0.73864275 0.59154367 0.32323822 0
0.17497 0.129995 -1.67212 0.60015821 0.45244551 0.6596235 0
0.175914 0.130336 -1.67497 0.54591829 0.41990113 0.72502154 0
0.150622 0.14043801 -1.65999 -0.33779344 0.68329686 -0.64730287 0
0.185239 0.12585001 -1.6950001 0.90434903 0.22903755 0.36013144 0
0.174808 0.134462 -1.69498 -0.16884468 0.72961193 -0.66268992 0
0.177733 0.130455 -1.6799999 0.65208548 0.43288285 0.62241226 0
0.15106501 0.14635 -1.65 0.22093879 0.92151546 -0.31936699 0
0.18045101 0.13020501 -1.69997 0.087935798 0.97460127 -0.2059602 0
0.15924101 0.13440999 -1.66997 -0.32113034 0.64960611 -0.68912059 0
0.181872 0.12583999 -1.6799901 0.78944737 0.21451925 0.57511246 0
0.156011 0.14531 -1.65999 0.79184788 0.11175843 0.60040563 0
0.165135 0.14002299 -1.6943901 0.79735518 0.34837851 0.49280533 0
0.159486 0.133064 -1.665 0.18049088 0.88592148 -0.42727759 0
0.149993 0.139936 -1.65409 0.18297417 0.86889929 -0.45992878 0
0.159881 0.14434101 -1.6749901 0.043598998 0.87866551 -0.47544304 0
0.169999 0.137982 -1.6900001 0.81781024 0.39184693 0.42147642 0
0.149755 0.149997 -1.67498 0.79030764 0.22377028 0.57038641 0
0.157021 0.136494 -1.67 -0.08099623 0.84799415 -0.52378005 0
0.14427599 0.14396299 -1.6499799 0.67494625 0.73755836 -0.021335887 0
0.149932 0.14998101 -1.65994 0.75804287 0.53585309 0.37179637 0
0.174941 0.13442799 -1.68998 0.11710843 0.85898125 -0.49843433 0
0.16409101 0.137233 -1.65999 0.48133293 0.87043828 -0.1032271 0
0.192036 0.120068 -1.70999 0.88353294 0.28530774 0.37144184 0
0.166086 0.14044601 -1.67998 0.43354386 0.88803464 -0.15308234 0
0.150636 0.15005501 -1.67 -0.28532964 0.74563313 -0.60217792 0
0.16651 0.136669 -1.665 0.33775699 0.87825561 -0.33850744 0
0.17998099 0.12967101 -1.68496 0.76597124 0.41009447 0.4950864 0
0.18068101 0.13014799 -1.69499 0.23103034 0.90859383 -0.34796876 0
0.16113 0.131355 -1.665 -0.14537619 0.73610663 -0.66106945 0
0.173659 0.13043 -1.67 0.36391389 0.82415414 -0.43397772 0
0.166557 0.14016999 -1.68496 -0.16975357 0.73570693 -0.65568215 0
0.14664701 0.14164799 -1.6499799 -0.029646421 0.79504138 -0.60583025 0
0.146616 0.15004399 -1.64999 0.816468 0.11914764 0.56496364 0
0.180354 0.12511601 -1.67498 0.69389284 0.14047174 0.70624387 0
0.153842 0.13890401 -1.66997 -0.10453157 0.85100996 -0.51464087 0
0.171556 0.13526601 -1.67495 0.66587555 0.27218595 0.69463986 0
0.19166701 0.120015 -1.71499 0.74769557 0.61603051 -0.24790667 0
0.15477 0.147204 -1.675 0.75664365 0.38218781 0.53049302 0
0.15719201 0.135267 -1.66497 -0.25040376 0.74386734 -0.61964452 0
0.184948 0.12661099 -1.69998 0.56598818 0.81056207 -0.1504875 0
0.148807 0.14831001 -1.65 0.82831275 0.11787923 0.54772478 0
0.159733 0.143464 -1.66497 0.76879179 0.1518178 0.62121695 0
0.144457 0.144803 -1.65499 -0.24274969 0.77113271 -0.58858043 0
0.173951 0.13509201 -1.68498 0.66087627 0.68424201 0.30831051 0
0.169884 0.134956 -1.67 0.28426263 0.83855867 -0.46477318 0
0.15977199 0.14174999 -1.66 0.08403448 0.91463464 -0.39545122 0
0.15498 0.144601 -1.655 0.8129555 0.14583045 0.56377023 0
0.163919 0.141854 -1.67497 0.74587792 0.44364712 0.49683329 0
0.157499 0.145391 -1.665 0.78603476 0.22186238 0.57699782 0
0.174578 0.13364001 -1.6799901 0.63212055 0.40953815 0.65780097 0
0.184453 0.126974 -1.70498 0.46000272 0.88765651 -0.021527421 0
0.15994 0.14403 -1.68496 0.80908138 0.34185532 0.47804001 0
0.15968999 0.14369901 -1.68999 0.80771023 0.35654184 0.46955526 0
0.169544 0.137215 -1.67498 0.69710678 0.271642 0.66351551 0
0.174954 0.13421801 -1.68499 0.68181461 0.61909395 0.38968131 0
0.154618 0.137821 -1.665 -0.24362455 0.7620129 -0.5999862 0
0.149345 0.14078601 -1.65499 0.53891379 0.83187872 -0.13247557 0
0.149868 0.150033 -1.65999 0.74981833 0.55640799 0.35802597 0
0.16404399 0.141692 -1.6849999 0.80115336 0.45485923 0.38891691 0
0.154838 0.146816 -1.6799999 0.79143727 0.30540842 0.52948344 0
0.164221 0.13905001 -1.6649899 0.15978114 0.87917477 -0.44891167 0
0.189781 0.122177 -1.70998 0.80140209 0.58024549 0.14515458 0
0.15861399 0.145318 -1.66996 0.75756264 0.47010586 0.45287898 0
0.14960299 0.14907099 -1.6549799 0.82849413 0.15864266 0.53705674 0
0.149569 0.145779 -1.64499 0.4479855 0.88771176 0.10619227 0
0.150001 0.150021 -1.6736701 0.78366029 0.21028891 0.58451271 0
0.159848 0.144407 -1.66997 0.76839477 0.3525576 0.53410918 0
0.159205 0.140204 -1.655 0.41402999 0.90150487 -0.12596872 0
0.163101 0.140196 -1.665 0.083697513 0.87069494 -0.48464945 0
0.161024 0.14055 -1.65999 0.17844582 0.92657787 -0.33107483 0
0.146982 0.151067 -1.65499 0.79953438 0.40198797 0.44626272 0
0.14383399 0.14528 -1.655 -0.224463 0.78030574 -0.58372885 0
0.173041 0.135729 -1.68999 -0.058950406 0.78869361 -0.61195362 0
0.154714 0.13583399 -1.65499 -0.14715001 0.7820037 -0.6056543 0
0.159475 0.139909 -1.6549799 0.43992892 0.89280075 -0.096795596 0
0.166253 0.14009 -1.67498 0.73378575 0.33299199 0.59217799 0
0.16457701 0.128453 -1.6699899 0.60995615 0.7893585 0.069761582 0
0.17388999 0.13503601 -1.69499 0.73265243 0.47535962 0.48708692 0
0.15438899 0.137327 -1.66 0.2694996 0.91602284 -0.29710621 0
0.163546 0.14018101 -1.69499 0.79836726 0.36146381 0.48161566 0
0.17939401 0.12640899 -1.675 0.66594303 0.24276908 0.7053957 0
0.164617 0.14130799 -1.6900001 0.80500704 0.32278863 0.49776614 0
0.149702 0.141233 -1.65999 -0.32881242 0.69163579 -0.64305705 0
0.154302 0.145171 -1.65499 0.81067848 0.11313906 0.57445621 0
0.16474 0.141357 -1.67998 0.083860844 0.86588705 -0.49316016 0
0.15255401 0.14490101 -1.65 0.32339609 0.91797251 -0.22965509 0
0.18601499 0.12567399 -1.69998 0.80387104 0.59464854 0.013581062 0
0.15498599 0.145759 -1.68999 0.80565184 0.42599976 0.41164222 0
0.15431599 0.147782 -1.665 0.76378 0.48605371 0.42472568 0
0.17991699 0.130441 -1.6900001 0.73632371 0.60893053 0.29501021 0
0.144849 0.151528 -1.65 0.8107661 0.25228855 0.52821285 0
0.149049 0.142106 -1.6649801 -0.26196897 0.74053466 -0.61885434 0
0.179144 0.12904599 -1.6799901 0.69378656 0.39252412 0.60380876 0
0.172711 0.13526499 -1.6799901 0.67541283 0.40892601 0.613675 0
0.143233 0.14500301 -1.64999 0.80871248 0.55055541 0.20705776 0
0.15868799 0.145089 -1.6749901 -0.13061811 0.80211157 -0.58271432 0
0.156278 0.13551299 -1.66 -0.044606868 0.8596856 -0.50887221 0
0.154935 0.14759 -1.66998 -0.010129216 0.89835811 -0.43914703 0
0.17931101 0.13035101 -1.68499 0.74987489 0.43398893 0.49934086 0
0.156652 0.145018 -1.68988 0.8086704 0.38616064 0.44377038 0
0.154875 0.14671899 -1.6849999 0.80701888 0.34482464 0.47939178 0
0.169901 0.1376 -1.6799901 0.71570283 0.47372112 0.51318389 0
0.17477 0.131532 -1.67498 0.57969522 0.39316249 0.71370631 0
0.157832 0.145356 -1.68499 0.81117105 0.32588848 0.48559058 0
0.179814 0.13080201 -1.69499 0.12565039 0.88875312 -0.44082865 0
0.151942 0.140092 -1.6649899 -0.30970675 0.70443428 -0.63863456 0
0.186362 0.12535501 -1.70496 0.61733484 0.78620142 -0.028017702 0
0.18292201 0.126452 -1.68499 0.84935385 0.23556599 0.47234172 0
0.169828 0.13501 -1.66998 0.28236756 0.83885098 -0.46540046 0
0.158067 0.145142 -1.6799901 0.78217858 0.40765128 0.47118694 0
0.154111 0.146879 -1.65999 0.80373675 0.16752341 0.57091433 0
0.184966 0.12614 -1.69499 0.89583385 0.27870688 0.34612736 0
0.169937 0.13802999 -1.68496 0.13276516 0.87946457 -0.45707276 0
