# .PCD v0.7 - Point Cloud Data file format
VERSION 0.7
FIELDS x y z normal_x normal_y normal_z curvature
SIZE 4 4 4 4 4 4 4
TYPE F F F F F F F
COUNT 1 1 1 1 1 1 1
WIDTH 263
HEIGHT 1
VIEWPOINT 0 0 0 1 0 0 0
POINTS 263
DATA ascii
-34.080299 -2.4740601 310.36401 -0.30680966 -0.52913642 -0.79112738 1.7309758e+13
-34.084805 -2.4725292 310.36554 -0.30714294 -0.52908713 -0.791031 1.7309758e+13
-34.080772 -2.4754834 310.36557 -0.30685294 -0.52910322 -0.79113281 1.7309758e+13
-34.076317 -2.477756 310.36554 -0.30654207 -0.52913022 -0.79123521 1.7309758e+13
-34.071789 -2.4798715 310.3656 -0.30623007 -0.52915829 -0.79133725 1.7309758e+13
-34.067036 -2.4814267 310.36554 -0.30590752 -0.52919465 -0.79143769 1.7309758e+13
-34.062267 -2.4829283 310.36557 -0.30558637 -0.52923054 -0.79153776 1.7309758e+13
-34.057407 -2.484108 310.3656 -0.30526283 -0.52926993 -0.79163623 1.7309758e+13
-34.052521 -2.485152 310.3656 -0.30493858 -0.52931088 -0.7917338 1.7309758e+13
-34.047619 -2.4851835 310.36462 -0.30460635 -0.52937013 -0.79182208 1.7309758e+13
-34.042702 -2.485477 310.36374 -0.30427215 -0.52942598 -0.79191327 1.7309758e+13
-34.037785 -2.4860234 310.36301 -0.30393815 -0.52947778 -0.79200685 1.7309758e+13
-34.032871 -2.4865441 310.36227 -0.30360472 -0.52952939 -0.79210025 1.7309758e+13
-34.02792 -2.4869766 310.36172 -0.30327311 -0.52958006 -0.79219341 1.7309758e+13
-34.022957 -2.487344 310.36121 -0.30294198 -0.52963078 -0.79228616 1.7309758e+13
-34.018032 -2.4872651 310.36035 -0.30261171 -0.52968788 -0.79237425 1.7309758e+13
-34.013107 -2.4872098 310.3595 -0.30228117 -0.52974433 -0.79246265 1.7309758e+13
-34.008167 -2.4872313 310.35873 -0.30195057 -0.52979904 -0.79255205 1.7309758e+13
-34.003246 -2.4871764 310.35785 -0.30161974 -0.52985501 -0.79264063 1.7309758e+13
-33.998329 -2.4871259 310.35696 -0.30128908 -0.5299105 -0.79272926 1.7309758e+13
-33.993404 -2.4870729 310.35608 -0.30095798 -0.52996576 -0.79281813 1.7309758e+13
-33.988476 -2.4870186 310.35526 -0.30062771 -0.53002006 -0.79290712 1.7309758e+13
-33.983547 -2.4869328 310.3544 -0.30029717 -0.53007454 -0.79299599 1.7309758e+13
-33.978607 -2.486856 310.35364 -0.29996747 -0.53012782 -0.79308516 1.7309758e+13
-33.973663 -2.4867918 310.35287 -0.29963738 -0.53018063 -0.79317462 1.7309758e+13
-33.968712 -2.486742 310.35217 -0.29930779 -0.53023249 -0.79326439 1.7309758e+13
-33.963795 -2.4865646 310.35132 -0.29897878 -0.53028607 -0.7933526 1.7309758e+13
-33.958855 -2.4865294 310.35052 -0.29864809 -0.53033775 -0.79344261 1.7309758e+13
-33.953918 -2.4864957 310.34973 -0.29831764 -0.53038901 -0.79353267 1.7309758e+13
-33.948982 -2.4864612 310.34894 -0.29798719 -0.53043991 -0.79362279 1.7309758e+13
-33.944054 -2.4864259 310.34811 -0.29765669 -0.53049058 -0.79371291 1.7309758e+13
-33.939125 -2.4863951 310.34726 -0.29732558 -0.53054118 -0.79380322 1.7309758e+13
-33.934204 -2.4863288 310.34637 -0.29699472 -0.53059185 -0.79389322 1.7309758e+13
-33.929279 -2.4863181 310.34552 -0.29666364 -0.53064138 -0.79398388 1.7309758e+13
-33.924351 -2.4863315 310.34467 -0.29633215 -0.53069043 -0.79407489 1.7309758e+13
-33.919426 -2.4863045 310.34381 -0.29600123 -0.53073937 -0.79416561 1.7309758e+13
-33.914501 -2.4862819 310.34293 -0.2956697 -0.53078818 -0.79425645 1.7309758e+13
-33.909584 -2.4862697 310.34204 -0.29533857 -0.53083646 -0.79434741 1.7309758e+13
-33.904663 -2.486316 310.34116 -0.29500672 -0.53088385 -0.79443902 1.7309758e+13
-33.899738 -2.4864345 310.3403 -0.29467461 -0.5309301 -0.7945314 1.7309758e+13
-33.89481 -2.4865627 310.33945 -0.29434219 -0.53097588 -0.79462397 1.7309758e+13
-33.8899 -2.4866698 310.33853 -0.29401004 -0.53102183 -0.79471624 1.7309758e+13
-33.884991 -2.4867952 310.33759 -0.29367721 -0.53106749 -0.79480875 1.7309758e+13
-33.880085 -2.4869075 310.33661 -0.29334417 -0.53111315 -0.79490125 1.7309758e+13
-33.875183 -2.4870119 310.33563 -0.29301146 -0.53115839 -0.79499376 1.7309758e+13
-33.870289 -2.4871163 310.33463 -0.29267865 -0.53120345 -0.79508621 1.7309758e+13
-33.865391 -2.4872336 310.33362 -0.29234552 -0.53124803 -0.79517895 1.7309758e+13
-33.860493 -2.4873812 310.33264 -0.29201275 -0.53129178 -0.79527205 1.7309758e+13
-33.855591 -2.4875591 310.33167 -0.29167953 -0.53133488 -0.79536551 1.7309758e+13
-33.850704 -2.4876719 310.3306 -0.29134607 -0.53137875 -0.79545844 1.7309758e+13
-33.845814 -2.4878144 310.32956 -0.2910127 -0.53142178 -0.79555172 1.7309758e+13
-33.840923 -2.4879982 310.32855 -0.29067963 -0.53146386 -0.79564536 1.7309758e+13
-33.83604 -2.4880919 310.32748 -0.29034659 -0.53150666 -0.79573834 1.7309758e+13
-33.831161 -2.4881921 310.32642 -0.29001376 -0.53154898 -0.79583144 1.7309758e+13
-33.826275 -2.4883101 310.32535 -0.2896803 -0.53159082 -0.79592496 1.7309758e+13
-33.821388 -2.4884686 310.32428 -0.28934655 -0.53163201 -0.79601884 1.7309758e+13
-33.816517 -2.4885807 310.32318 -0.28901356 -0.53167325 -0.7961123 1.7309758e+13
-33.811642 -2.4887235 310.32208 -0.28868011 -0.53171384 -0.79620612 1.7309758e+13
-33.806786 -2.4888046 310.32089 -0.28834662 -0.53175515 -0.7962994 1.7309758e+13
-33.801926 -2.4888952 310.3197 -0.2880128 -0.53179592 -0.79639292 1.7309758e+13
-33.797062 -2.4890127 310.31857 -0.28767967 -0.53183573 -0.79648679 1.7309758e+13
-33.792213 -2.4891002 310.31735 -0.28734604 -0.53187591 -0.79658037 1.7309758e+13
-33.787369 -2.4891777 310.3161 -0.28701213 -0.53191596 -0.79667401 1.7309758e+13
-33.782532 -2.489254 310.31485 -0.28667873 -0.53195554 -0.79676759 1.7309758e+13
-33.777691 -2.4893398 310.3136 -0.28634498 -0.5319947 -0.79686147 1.7309758e+13
-33.772846 -2.489439 310.31235 -0.28601092 -0.53203338 -0.79695559 1.7309758e+13
-33.768013 -2.4895127 310.31107 -0.28567716 -0.53207195 -0.79704952 1.7309758e+13
-33.763184 -2.4895816 310.30978 -0.28534368 -0.53211015 -0.79714352 1.7309758e+13
-33.75835 -2.4896579 310.3085 -0.28500989 -0.53214788 -0.79723769 1.7309758e+13
-33.753525 -2.4897227 310.30722 -0.28467664 -0.53218526 -0.79733181 1.7309758e+13
-33.748699 -2.4897923 310.30591 -0.2843428 -0.53222239 -0.79742616 1.7309758e+13
-33.743874 -2.4898746 310.3046 -0.28400886 -0.53225905 -0.7975207 1.7309758e+13
-33.739056 -2.4899426 310.30325 -0.2836749 -0.53229553 -0.79761517 1.7309758e+13
-33.734241 -2.4900064 310.30191 -0.2833412 -0.53233165 -0.7977097 1.7309758e+13
-33.729427 -2.4900739 310.30057 -0.28300747 -0.53236729 -0.79780442 1.7309758e+13
-33.724613 -2.4901438 310.29919 -0.28267312 -0.53240269 -0.79789931 1.7309758e+13
-33.719795 -2.4902372 310.29788 -0.28233954 -0.53243715 -0.79799438 1.7309758e+13
-33.714989 -2.4903176 310.29651 -0.28200561 -0.5324716 -0.79808944 1.7309758e+13
-33.71019 -2.490381 310.2951 -0.28167167 -0.53250593 -0.79818451 1.7309758e+13
-33.705395 -2.4904182 310.29367 -0.2813375 -0.53254026 -0.79827946 1.7309758e+13
-33.700607 -2.490406 310.29224 -0.28100404 -0.53257442 -0.79837412 1.7309758e+13
-33.695835 -2.4903159 310.29077 -0.28067136 -0.53260881 -0.79846817 1.7309758e+13
-33.691067 -2.4901779 310.28925 -0.28033793 -0.5326435 -0.79856217 1.7309758e+13
-33.686302 -2.4900146 310.28775 -0.2800054 -0.53267771 -0.79865605 1.7309758e+13
-33.681561 -2.4897335 310.28619 -0.2796737 -0.53271258 -0.79874897 1.7309758e+13
-33.676849 -2.4893379 310.28455 -0.27934262 -0.53274822 -0.79884106 1.7309758e+13
-33.672157 -2.488884 310.2829 -0.27901298 -0.53278369 -0.79893261 1.7309758e+13
-33.667465 -2.488416 310.28122 -0.27868268 -0.53281897 -0.79902434 1.7309758e+13
-33.662785 -2.4879081 310.27954 -0.27835321 -0.53285408 -0.79911578 1.7309758e+13
-33.658115 -2.4873536 310.27783 -0.27802396 -0.53288913 -0.79920703 1.7309758e+13
-33.653481 -2.4866977 310.27609 -0.27769661 -0.53292447 -0.79929727 1.7309758e+13
-33.648853 -2.4860098 310.27432 -0.2773692 -0.53295964 -0.79938745 1.7309758e+13
-33.644264 -2.4852145 310.27249 -0.27704331 -0.53299528 -0.79947668 1.7309758e+13
-33.639694 -2.4843686 310.27066 -0.27671871 -0.53303075 -0.79956549 1.7309758e+13
-33.635147 -2.4834671 310.26877 -0.27639443 -0.53306627 -0.79965395 1.7309758e+13
-33.630623 -2.4825118 310.26688 -0.27607161 -0.53310168 -0.79974186 1.7309758e+13
-33.626129 -2.481468 310.26495 -0.27575034 -0.53313714 -0.79982907 1.7309758e+13
-33.621662 -2.4803715 310.263 -0.27543014 -0.53317255 -0.79991579 1.7309758e+13
-33.617207 -2.4792495 310.26102 -0.27510998 -0.53320777 -0.80000246 1.7309758e+13
-33.612759 -2.4781053 310.25906 -0.27479073 -0.53324246 -0.80008906 1.7309758e+13
-33.608341 -2.4768963 310.25705 -0.27447227 -0.53327727 -0.80017519 1.7309758e+13
-33.603951 -2.4756246 310.255 -0.27415487 -0.53331202 -0.80026078 1.7309758e+13
-33.599609 -2.4742658 310.25293 -0.27384013 -0.53334689 -0.80034536 1.7309758e+13
-33.59531 -2.4728107 310.25082 -0.2735275 -0.53338182 -0.80042899 1.7309758e+13
-33.591038 -2.4713125 310.24872 -0.27321646 -0.53341645 -0.80051214 1.7309758e+13
-33.586781 -2.4697886 310.24658 -0.27290556 -0.53345084 -0.80059522 1.7309758e+13
-33.582554 -2.4682071 310.24445 -0.27259654 -0.533485 -0.80067778 1.7309758e+13
-33.578346 -2.4665928 310.24225 -0.27228728 -0.53351915 -0.80076027 1.7309758e+13
-33.574196 -2.4648907 310.24005 -0.27198169 -0.53355306 -0.80084145 1.7309758e+13
-33.570061 -2.4631627 310.23785 -0.27167678 -0.53358668 -0.80092257 1.7309758e+13
-33.565968 -2.4613738 310.2356 -0.27137321 -0.5336203 -0.8010031 1.7309758e+13
-33.561939 -2.4594963 310.23331 -0.27107313 -0.53365386 -0.80108231 1.7309758e+13
-33.557949 -2.4575686 310.23099 -0.27077463 -0.53368735 -0.80116099 1.7309758e+13
-33.55397 -2.4556282 310.22867 -0.27047655 -0.53372031 -0.80123973 1.7309758e+13
-33.550014 -2.4536564 310.22632 -0.27017906 -0.53375304 -0.80131829 1.7309758e+13
-33.546108 -2.4516056 310.22397 -0.26988456 -0.53378564 -0.80139577 1.7309758e+13
-33.542213 -2.4495454 310.22162 -0.26959044 -0.53381771 -0.80147344 1.7309758e+13
-33.538364 -2.4474266 310.21921 -0.26929778 -0.53384984 -0.80155039 1.7309758e+13
-33.53458 -2.4452255 310.2168 -0.26900908 -0.53388178 -0.80162609 1.7309758e+13
-33.530796 -2.4430184 310.21439 -0.26872003 -0.5339132 -0.80170208 1.7309758e+13
-33.527061 -2.440748 310.21198 -0.26843387 -0.53394443 -0.80177718 1.7309758e+13
-33.52335 -2.4384534 310.20953 -0.26814821 -0.53397536 -0.80185217 1.7309758e+13
-33.519711 -2.4360731 310.20706 -0.26786634 -0.53400624 -0.80192578 1.7309758e+13
-33.516106 -2.4336627 310.20456 -0.26758569 -0.53403687 -0.80199903 1.7309758e+13
-33.512535 -2.431217 310.20206 -0.26730692 -0.53406715 -0.80207187 1.7309758e+13
-33.509045 -2.4286902 310.19952 -0.26703238 -0.53409737 -0.80214316 1.7309758e+13
-33.505623 -2.4261026 310.19696 -0.2667613 -0.53412747 -0.80221331 1.7309758e+13
-33.502304 -2.4234216 310.19437 -0.26649597 -0.53415757 -0.8022815 1.7309758e+13
-33.499027 -2.4207072 310.19174 -0.26623231 -0.53418744 -0.80234915 1.7309758e+13
-33.495777 -2.4179704 310.18909 -0.26596931 -0.534217 -0.80241668 1.7309758e+13
-33.492622 -2.4151604 310.18643 -0.26571214 -0.53424633 -0.80248237 1.7309758e+13
-33.489487 -2.4123387 310.18375 -0.2654551 -0.53427535 -0.80254811 1.7309758e+13
-33.486416 -2.4094658 310.18103 -0.26520121 -0.53430426 -0.80261278 1.7309758e+13
-33.483398 -2.4065571 310.17831 -0.26495036 -0.53433281 -0.80267662 1.7309758e+13
-33.480427 -2.4036138 310.17557 -0.2647014 -0.53436112 -0.80273992 1.7309758e+13
-33.477509 -2.4006407 310.17279 -0.26445481 -0.5343892 -0.8028025 1.7309758e+13
-33.474644 -2.3976347 310.17001 -0.26421124 -0.53441697 -0.80286419 1.7309758e+13
-33.471828 -2.3946044 310.16721 -0.26396981 -0.53444445 -0.80292535 1.7309758e+13
-33.469032 -2.3915634 310.1644 -0.26372913 -0.53447151 -0.80298638 1.7309758e+13
-33.466312 -2.3884814 310.16153 -0.26349166 -0.53449851 -0.80304635 1.7309758e+13
-33.463627 -2.3853855 310.15869 -0.26325661 -0.53452504 -0.80310583 1.7309758e+13
-33.46096 -2.3822792 310.15582 -0.26302165 -0.5345512 -0.80316538 1.7309758e+13
-33.458435 -2.3791103 310.15289 -0.2627942 -0.53457743 -0.80322236 1.7309758e+13
-33.456005 -2.3758974 310.1499 -0.26257119 -0.53460366 -0.80327785 1.7309758e+13
-33.453587 -2.3726802 310.14694 -0.2623491 -0.53462934 -0.80333328 1.7309758e+13
-33.451267 -2.3694143 310.14395 -0.26213238 -0.53465497 -0.80338705 1.7309758e+13
-33.449017 -2.3661149 310.14096 -0.26191968 -0.53468031 -0.8034395 1.7309758e+13
-33.446789 -2.3628066 310.13794 -0.26170731 -0.53470534 -0.80349201 1.7309758e+13
-33.444645 -2.3594589 310.13489 -0.26149935 -0.53473032 -0.80354315 1.7309758e+13
-33.442513 -2.3561084 310.13187 -0.26129228 -0.53475481 -0.80359423 1.7309758e+13
-33.440434 -2.3527317 310.12881 -0.26108757 -0.53477913 -0.80364454 1.7309758e+13
-33.43845 -2.3493116 310.12576 -0.26088867 -0.53480327 -0.80369312 1.7309758e+13
-33.436489 -2.3458843 310.12268 -0.26069012 -0.53482717 -0.80374163 1.7309758e+13
-33.434559 -2.3424394 310.11963 -0.26049373 -0.53485066 -0.80378962 1.7309758e+13
-33.432667 -2.3389773 310.11655 -0.26029873 -0.53487402 -0.8038373 1.7309758e+13
-33.430805 -2.3354995 310.11346 -0.26010525 -0.53489703 -0.80388457 1.7309758e+13
-33.429005 -2.3320014 310.11038 -0.25991532 -0.53491986 -0.80393082 1.7309758e+13
-33.427219 -2.328496 310.1073 -0.2597259 -0.53494233 -0.80397713 1.7309758e+13
-33.425526 -2.3249655 310.10419 -0.25954139 -0.53496468 -0.80402178 1.7309758e+13
-33.423901 -2.3214152 310.10107 -0.25936097 -0.53498685 -0.80406529 1.7309758e+13
-33.422321 -2.3178468 310.09796 -0.25918308 -0.53500879 -0.80410802 1.7309758e+13
-33.420753 -2.3142741 310.09482 -0.25900483 -0.53503048 -0.804151 1.7309758e+13
-33.419281 -2.3106742 310.09167 -0.25883242 -0.53505206 -0.80419219 1.7309758e+13
-33.417885 -2.30704 310.08853 -0.25866461 -0.53507358 -0.80423188 1.7309758e+13
-33.416496 -2.3034043 310.08539 -0.25849685 -0.53509474 -0.80427176 1.7309758e+13
-33.415188 -2.2997348 310.08228 -0.25833461 -0.53511572 -0.80430984 1.7309758e+13
-33.413944 -2.296021 310.07916 -0.25817621 -0.5351367 -0.8043468 1.7309758e+13
-33.412697 -2.292309 310.07605 -0.25801709 -0.53515738 -0.80438411 1.7309758e+13
-33.411465 -2.288578 310.07297 -0.25785923 -0.53517777 -0.80442119 1.7309758e+13
-33.410252 -2.2848251 310.06989 -0.25770214 -0.53519791 -0.80445808 1.7309758e+13
-33.409039 -2.2810748 310.0668 -0.25754461 -0.53521776 -0.80449533 1.7309758e+13
-33.407841 -2.2772982 310.06375 -0.25738832 -0.53523737 -0.80453229 1.7309758e+13
-33.406662 -2.2735038 310.06073 -0.2572335 -0.53525674 -0.80456889 1.7309758e+13
-33.405476 -2.2697158 310.05768 -0.25707707 -0.53527582 -0.80460626 1.7309758e+13
-33.404285 -2.265939 310.05463 -0.25691992 -0.53529453 -0.80464399 1.7309758e+13
-33.403103 -2.2621486 310.05161 -0.25676355 -0.53531295 -0.80468166 1.7309758e+13
-33.401947 -2.258332 310.04858 -0.25660846 -0.53533119 -0.80471897 1.7309758e+13
-33.400787 -2.2545176 310.04556 -0.25645265 -0.53534913 -0.8047567 1.7309758e+13
-33.399632 -2.2506988 310.04254 -0.25629666 -0.53536683 -0.80479461 1.7309758e+13
-33.398518 -2.2468414 310.03955 -0.25614369 -0.53538442 -0.80483162 1.7309758e+13
-33.397411 -2.24298 310.03659 -0.25599149 -0.53540164 -0.80486858 1.7309758e+13
-33.396324 -2.2391012 310.03363 -0.25584012 -0.53541869 -0.80490535 1.7309758e+13
-33.395237 -2.2352278 310.03067 -0.25568831 -0.53543544 -0.80494249 1.7309758e+13
-33.394131 -2.2313743 310.02768 -0.25553408 -0.53545183 -0.80498058 1.7309758e+13
-33.393078 -2.2274704 310.02472 -0.25538367 -0.53546816 -0.80501741 1.7309758e+13
-33.392021 -2.223572 310.02179 -0.25523326 -0.53548414 -0.80505449 1.7309758e+13
-33.390976 -2.2196679 310.01883 -0.25508249 -0.53549999 -0.80509174 1.7309758e+13
-33.389961 -2.2157395 310.01593 -0.2549347 -0.53551555 -0.80512816 1.7309758e+13
-33.388939 -2.2118206 310.01297 -0.25478455 -0.53553092 -0.80516547 1.7309758e+13
-33.387955 -2.2078738 310.01007 -0.25463796 -0.53554606 -0.80520177 1.7309758e+13
-33.38699 -2.2039063 310.0072 -0.25449291 -0.53556108 -0.80523765 1.7309758e+13
-33.386017 -2.1999493 310.0043 -0.25434619 -0.53557575 -0.80527425 1.7309758e+13
-33.38504 -2.196002 310.00137 -0.2541981 -0.53559017 -0.80531144 1.7309758e+13
-33.384102 -2.1920302 309.9985 -0.25405356 -0.53560442 -0.80534756 1.7309758e+13
-33.38319 -2.1880453 309.99561 -0.25390968 -0.53561854 -0.8053835 1.7309758e+13
-33.382301 -2.1840458 309.99274 -0.25376764 -0.53563255 -0.80541903 1.7309758e+13
-33.381458 -2.1800089 309.98993 -0.25362965 -0.53564644 -0.80545324 1.7309758e+13
-33.380596 -2.1759906 309.98706 -0.25348854 -0.53565997 -0.80548865 1.7309758e+13
-33.379753 -2.1719546 309.98425 -0.25334972 -0.53567338 -0.8055234 1.7309758e+13
-33.378922 -2.1679122 309.98141 -0.25321051 -0.53568655 -0.80555838 1.7309758e+13
-33.378117 -2.1638508 309.97861 -0.25307342 -0.53569961 -0.80559278 1.7309758e+13
-33.377335 -2.1597717 309.97583 -0.25293818 -0.53571254 -0.80562669 1.7309758e+13
-33.376575 -2.1556747 309.97308 -0.25280479 -0.5357253 -0.80566007 1.7309758e+13
-33.375774 -2.1516225 309.97025 -0.25266603 -0.53573763 -0.80569541 1.7309758e+13
-33.375015 -2.1475427 309.96747 -0.25253114 -0.53574985 -0.80572957 1.7309758e+13
-33.374256 -2.1434619 309.96469 -0.25239584 -0.53576183 -0.80576396 1.7309758e+13
-33.373596 -2.1393235 309.96194 -0.25226754 -0.53577411 -0.80579597 1.7309758e+13
-33.37291 -2.135205 309.9592 -0.25213709 -0.53578597 -0.80582893 1.7309758e+13
-33.372234 -2.1310816 309.95645 -0.25200701 -0.53579766 -0.80586183 1.7309758e+13
-33.371624 -2.1269245 309.95374 -0.2518715 -0.53580993 -0.80589604 1.7309758e+13
-33.371025 -2.1227651 309.95105 -0.25174737 -0.5358215 -0.80592716 1.7309758e+13
-33.370449 -2.1185899 309.94833 -0.25162363 -0.535833 -0.80595815 1.7309758e+13
-33.36998 -2.1143425 309.94574 -0.2515097 -0.5358448 -0.80598587 1.7309758e+13
-33.369495 -2.1101189 309.94312 -0.25139368 -0.53585631 -0.80601442 1.7309758e+13
-33.36903 -2.1058757 309.94052 -0.25127929 -0.53586769 -0.80604249 1.7309758e+13
-33.368526 -2.1016712 309.93787 -0.25116053 -0.5358786 -0.80607224 1.7309758e+13
-33.368023 -2.0974662 309.93521 -0.25104138 -0.53588933 -0.80610222 1.7309758e+13
-33.3675 -2.0932741 309.93253 -0.25091982 -0.53589976 -0.80613315 1.7309758e+13
-33.367016 -2.0890598 309.92987 -0.25080121 -0.53591013 -0.80616319 1.7309758e+13
-33.366646 -2.0847771 309.92731 -0.25069228 -0.53592098 -0.80618984 1.7309758e+13
-33.366268 -2.0805054 309.92474 -0.25058252 -0.53593159 -0.80621696 1.7309758e+13
-33.365925 -2.0762036 309.92221 -0.25047544 -0.53594214 -0.80624318 1.7309758e+13
-33.36554 -2.0719504 309.91962 -0.25036374 -0.53595227 -0.80627114 1.7309758e+13
-33.365234 -2.0676513 309.91708 -0.25025868 -0.53596264 -0.80629689 1.7309758e+13
-33.365025 -2.0633097 309.91461 -0.25016135 -0.53597331 -0.80631995 1.7309758e+13
-33.364826 -2.0589719 309.91214 -0.25006452 -0.53598392 -0.80634296 1.7309758e+13
-33.364609 -2.0546494 309.90964 -0.24996532 -0.53599417 -0.80636686 1.7309758e+13
-33.364391 -2.0503333 309.90714 -0.24986582 -0.53600425 -0.80639106 1.7309758e+13
-33.3643 -2.0459487 309.90472 -0.24977693 -0.53601491 -0.8064115 1.7309758e+13
-33.364307 -2.0415211 309.9024 -0.2496969 -0.536026 -0.80642891 1.7309758e+13
-33.364292 -2.0371315 309.89999 -0.24961279 -0.53603673 -0.8064478 1.7309758e+13
-33.364246 -2.0327721 309.89755 -0.24952559 -0.53604704 -0.80646795 1.7309758e+13
-33.364243 -2.0284059 309.89511 -0.24944106 -0.53605747 -0.80648714 1.7309758e+13
-33.364361 -2.023994 309.89276 -0.24936704 -0.53606844 -0.80650276 1.7309758e+13
-33.364628 -2.0195312 309.89053 -0.24930626 -0.53608018 -0.80651379 1.7309758e+13
-33.364918 -2.0150697 309.88831 -0.24924688 -0.53609186 -0.80652434 1.7309758e+13
-33.365196 -2.0106332 309.88602 -0.249185 -0.53610331 -0.80653584 1.7309758e+13
-33.365471 -2.0062065 309.8837 -0.24912184 -0.53611457 -0.80654788 1.7309758e+13
-33.365948 -2.0017197 309.88153 -0.24907659 -0.53612691 -0.80655366 1.7309758e+13
-33.366623 -1.9971696 309.87958 -0.24905057 -0.53614044 -0.80655271 1.7309758e+13
-33.367298 -1.9926625 309.87753 -0.24902225 -0.53615373 -0.80655259 1.7309758e+13
-33.367973 -1.9881707 309.87543 -0.24899223 -0.53616685 -0.80655313 1.7309758e+13
-33.368698 -1.9836919 309.87332 -0.24896568 -0.53618014 -0.80655247 1.7309758e+13
-33.369667 -1.9791907 309.87137 -0.24896045 -0.5361948 -0.80654436 1.7309758e+13
-33.370991 -1.974674 309.86969 -0.24898781 -0.53621143 -0.80652487 1.7309758e+13
-33.372284 -1.9701788 309.86792 -0.24901062 -0.5362277 -0.80650699 1.7309758e+13
-33.373695 -1.9657362 309.86612 -0.24904144 -0.53624451 -0.80648631 1.7309758e+13
-33.375462 -1.9613124 309.86459 -0.24910523 -0.53626335 -0.80645412 1.7309758e+13
-33.377773 -1.9570231 309.86346 -0.24921976 -0.53628492 -0.80640435 1.7309758e+13
-33.380245 -1.9528446 309.86227 -0.24934508 -0.53630722 -0.80635083 1.7309758e+13
-33.382835 -1.9487504 309.86105 -0.24947879 -0.53632987 -0.80629438 1.7309758e+13
-33.386032 -1.9449681 309.86035 -0.24967214 -0.53635544 -0.80621749 1.7309758e+13
-33.389343 -1.9412901 309.85965 -0.24987465 -0.5363813 -0.80613756 1.7309758e+13
-33.393162 -1.9380628 309.85968 -0.25013611 -0.53640914 -0.8060379 1.7309758e+13
-33.39727 -1.9352601 309.8602 -0.25043416 -0.53643769 -0.80592638 1.7309758e+13
-33.401852 -1.9333578 309.86081 -0.25077417 -0.53646666 -0.80580139 1.7309758e+13
-33.406483 -1.9317368 309.86179 -0.25112918 -0.53649503 -0.80567187 1.7309758e+13
-33.411095 -1.9309613 309.86356 -0.25150821 -0.53652126 -0.80553621 1.7309758e+13
-33.415668 -1.9308194 309.86557 -0.25189412 -0.5365454 -0.80539954 1.7309758e+13
-33.419884 -1.9316773 309.8681 -0.25227243 -0.53656501 -0.80526805 1.7309758e+13
-33.424114 -1.9325324 309.87064 -0.2526516 -0.5365842 -0.80513638 1.7309758e+13
-33.428329 -1.9335713 309.87311 -0.25302869 -0.53660232 -0.80500585 1.7309758e+13
-33.432419 -1.9348656 309.8757 -0.25340074 -0.53661865 -0.80487794 1.7309758e+13
