# .PCD v0.7 - Point Cloud Data file format
VERSION 0.7
FIELDS x y z
SIZE 4 4 4
TYPE F F F
COUNT 1 1 1
WIDTH 313
HEIGHT 1
VIEWPOINT 0 0 0 1 0 0 0
POINTS 313
DATA ascii
-34.080299 -2.4740601 310.36401
-4.8340201 -2.8736999 302.20099
-5.4781399 -2.97243 302.63901
-5.7765198 -2.8930399 302.69101
-7.7852998 6.7641501 297.32401
-31.986099 10.593 302.147
-31.895901 10.1908 302.168
-32.0345 9.51332 302.642
-32.0345 9.51332 302.642
-31.905899 9.2580996 302.64999
-18.330999 -2.4475801 307.47501
-18.8398 -2.41713 307.68701
-35.8223 -2.42048 311.319
-26.7174 22.219101 291.992
-12.0179 -2.88556 305.47299
-26.192101 22.7038 291.03101
-21.7244 -2.4007599 308.353
-15.2802 -2.9321899 306.51099
-30.4655 13.5366 299.25101
-23.1325 22.842699 288.13699
-21.741199 22.058701 288.621
-22.226601 22.1099 288.617
-22.226601 22.1099 288.617
-6.7241402 5.3144002 297.80899
-29.150999 16.849701 296.35199
-22.226601 22.1099 288.617
-3.8180399 0.39773399 299.737
-32.330898 -2.9033 310.37799
-36.0126 -1.49345 310.862
-25.1341 23.23 289.14801
-36.245602 -1.8430099 311.112
-6.2680898 4.2310801 298.289
-6.7581801 4.87288 298.05499
-30.181 13.9601 298.771
-11.9303 -3.0165401 305.54401
-17.3848 17.795601 291.496
-29.6112 15.9055 297.31201
-26.7174 22.219101 291.992
-35.895199 -1.06058 310.379
-16.894699 -2.8573 307.11899
-35.288601 1.0646 308.95001
-16.517599 -2.93045 306.99301
-33.278801 6.5872998 305.05701
-33.3508 6.3976998 305.19299
-32.871601 7.7934499 304.17099
-32.0345 9.51332 302.642
-31.894199 9.6913204 302.41501
-17.7936 18.3536 291.03
-26.572701 -2.4073901 309.05099
-23.195 22.7736 288.23099
-24.5959 -2.3650401 308.922
-14.4856 14.6817 293.92899
-12.5023 12.7898 294.90399
-15.9438 -3.0314901 306.98801
-15.4247 -2.88065 306.54599
-12.0437 11.9231 295.383
-12.0437 11.9231 295.383
-12.0437 11.9231 295.383
-26.0879 -2.4000001 309.009
-16.395599 -2.88659 306.91299
-24.893999 -2.3459001 308.92599
-25.5208 -2.33936 308.927
-8.68647 -3.0258801 304.09
-24.65 23.764 288.25601
-24.65 23.764 288.25601
-15.9517 16.4482 292.71301
-15.9156 16.697399 292.48599
-3.97509 0.47310501 299.741
-35.7607 -2.40503 311.267
-27.674101 19.1143 293.935
-23.1325 22.842699 288.13699
-24.1441 23.7181 287.85999
-28.513201 17.894501 295.38501
-27.542999 19.3859 293.68399
-28.507601 17.472601 295.50699
-24.628901 23.935699 288.12399
-29.9709 15.0265 298.11499
-34.1418 5.5716801 306.51099
-31.496 11.472 301.19199
-9.4489603 -3.07774 304.57101
-13.3843 13.8162 294.422
-13.8261 13.8779 294.42401
-34.984798 -2.42606 310.85001
-29.9709 15.0265 298.11499
-17.879101 -2.63678 307.461
-7.1522198 -3.10672 303.60901
-5.2537198 -2.8906801 302.44901
-6.2477498 -2.9955599 303.12601
-8.2034798 -3.0824599 304.09299
-7.59093 -3.0253601 303.60599
-6.2477498 -2.9955599 303.12601
-29.7833 15.2777 297.80301
-13.9736 14.0293 294.33701
-32.871601 7.7934499 304.17099
-19.2817 19.781 290.065
-3.97509 0.47310501 299.741
-28.523199 -2.4256899 309.40799
-25.1341 23.23 289.14801
-25.2936 22.7176 289.58499
-20.5319 20.7076 289.59
-30.181 13.9601 298.771
-2.8487401 -2.7304001 301.19199
-19.364901 19.799601 290.05899
-19.775101 -2.52492 307.952
-31.2882 12.0782 300.69101
-31.3906 11.6217 300.99899
-8.5583601 7.9868398 296.84201
-16.468399 17.4111 291.86801
-9.1219797 8.22328 296.80701
-8.1942196 7.0304899 297.31601
-8.5583601 7.9868398 296.84201
-8.21099 7.2699699 297.164
-20.7771 20.8109 289.57901
-3.3034501 -2.89168 301.40399
-19.310801 19.824699 290.03299
-31.9042 11.2123 301.79999
-7.5818501 6.6511402 297.32501
-7.5818501 6.6511402 297.32501
-7.1215501 5.8068399 297.646
-6.2477498 -2.9955599 303.12601
-20.286699 20.329901 289.827
-20.304701 20.6099 289.577
-20.245899 -2.4565599 307.95499
-4.8418798 1.79722 299.255
-15.7973 16.1598 292.97
-15.4503 15.9618 293.09601
-27.065201 -2.41587 309.091
-14.9801 15.4308 293.45599
-11.0643 10.67 295.866
-28.9876 -2.40662 309.48199
-12.0179 -2.88556 305.47299
-29.4575 -2.8255701 309.88599
-9.7983999 9.1287003 296.358
-11.0643 10.67 295.866
-11.0362 10.6356 295.875
-11.0643 10.67 295.866
-10.6255 10.168 296.005
-17.8451 18.382601 291.013
-28.260099 18.300501 294.90601
-31.899 8.7370195 302.94101
-10.0282 -2.9319301 304.56699
-28.8039 17.230301 295.87201
-16.434799 17.240601 292.00601
-3.8180399 0.39773399 299.737
-34.294998 -2.4011199 310.43701
-14.4856 14.6817 293.92899
-17.122299 -2.92348 307.47601
-17.2619 -2.88676 307.45999
-10.0347 9.2638702 296.34601
-29.594101 -2.8741701 309.89001
-16.4303 16.9244 292.315
-28.0329 18.3834 294.59799
-10.6255 10.168 296.005
-33.646099 7.3692999 305.539
-33.278801 6.5872998 305.05701
-10.5405 -3.1707201 305.05899
-30.450701 -2.86606 309.80899
-33.9244 6.0390401 306.02802
-35.323101 1.32844 308.927
-27.547501 -2.4152601 309.207
-27.066601 20.339899 292.72299
-32.871601 7.7934499 304.17099
-10.0282 -2.9319301 304.56699
-10.5405 -3.1707201 305.05899
-34.801998 -2.5376401 310.858
-20.764299 -2.4038401 308.07599
-21.2721 -2.39587 308.22101
-23.195299 -2.4054599 308.776
-33.8242 -2.6633899 310.367
-12.9767 -3.27143 306.02301
-13.48 -3.3092699 306.508
-7.59093 -3.0253601 303.60599
-27.066601 20.339899 292.72299
-13.9929 -3.2758601 306.50699
-31.899 8.7370195 302.94101
-27.9247 -2.51355 309.40201
-4.4257498 1.6465501 299.25601
-31.4111 -2.4131701 309.74301
-31.4111 -2.4131701 309.74301
-30.8463 -2.84062 309.89301
-32.239799 -2.87218 310.362
-32.670101 -2.9212999 310.37299
-33.327301 -2.8599801 310.36301
-33.1665 -2.9026401 310.37701
-29.481001 16.467199 296.93301
-32.799702 -2.8961899 310.35001
-34.984798 -2.42606 310.85001
-30.456301 13.5441 299.23901
-27.066601 20.339899 292.72299
-27.0686 21.6432 292.72
-30.940399 13.0971 299.923
-31.887199 10.2316 302.14001
-11.5324 -3.21175 305.54401
-35.772499 -0.315135 310.15601
-22.1756 -2.4065599 308.439
-23.8867 -2.3851299 308.92801
-35.645699 -0.034276102 309.888
-9.6589403 9.0889597 296.35501
-9.6589403 9.0889597 296.35501
-5.1750102 2.7859299 298.771
-3.3074 -1.44902 300.63901
-8.68647 -3.0258801 304.09
-5.7645602 3.3984001 298.58701
-21.2672 21.2724 289.29501
-18.8248 19.341 290.36099
-32.871601 7.7934499 304.17099
-32.871601 7.7934499 304.17099
-13.0238 13.0615 294.82401
-5.1750102 2.7859299 298.771
-29.002501 16.958799 296.16199
-35.025299 2.1717899 308.444
-34.470299 3.1512301 307.47
-27.542999 19.3859 293.68399
-10.0347 9.2638702 296.34601
-29.479601 16.0114 297.09799
-28.4788 17.7584 295.38901
-22.7071 -2.4058299 308.58899
-34.867802 3.13221 307.96201
-34.867802 3.13221 307.96201
-26.192101 22.7038 291.03101
-35.764198 -0.95260203 310.18201
-34.788799 2.4944601 308.04901
-25.466 22.105101 290.07101
-30.9737 12.494 300.21799
-34.368301 5.0500302 306.99399
-3.0653901 -0.67436999 300.22198
-18.369499 18.862301 290.69101
-18.8248 19.341 290.36099
-34.318298 5.2986698 306.91599
-31.8957 10.6496 301.99399
-20.7771 20.8109 289.57901
-5.7645602 3.3984001 298.58701
-34.3242 3.8989999 307.11499
-34.3242 3.8989999 307.11499
-6.2680898 4.2310801 298.289
-6.2680898 4.2310801 298.289
-2.8838699 -2.4119999 301.02301
-3.21596 -1.60724 300.70901
-6.2680898 4.2310801 298.289
-3.21596 -1.60724 300.70901
-27.9697 18.7481 294.423
-33.9244 6.0390401 306.02802
-33.9244 6.0390401 306.02802
-35.3022 1.61555 308.927
-33.661598 6.5591798 305.54001
-19.325701 -2.4063599 307.76501
-25.2936 22.7176 289.58499
-25.466 22.105101 290.07101
-25.466 22.105101 290.07101
-14.9801 15.4308 293.45599
-14.9706 -3.0573699 306.50299
-3.6721399 -2.9925699 301.673
-35.444302 0.34241799 309.41199
-35.482201 0.534998 309.409
-34.3242 3.8989999 307.11499
-14.4731 -3.1902001 306.51099
-4.2382302 -3.0625701 302.15701
-4.70612 -2.9114699 302.159
-4.72647 -2.89697 302.15701
-14.4856 14.6817 293.92899
-21.261299 21.5368 289.104
-30.917801 12.5833 300.12799
-20.6215 -2.3069999 307.95801
-3.97509 0.47310501 299.741
-12.0179 -2.88556 305.47299
-22.226601 22.1099 288.617
-22.226601 22.1099 288.617
-6.2680898 4.2310801 298.289
-23.195 22.7736 288.23099
-14.4856 14.6817 293.92899
-15.9438 -3.0314901 306.98801
-12.0437 11.9231 295.383
-12.0437 11.9231 295.383
-8.68647 -3.0258801 304.09
-23.1325 22.842699 288.13699
-7.1522198 -3.10672 303.60901
-6.2477498 -2.9955599 303.12601
-8.2034798 -3.0824599 304.09299
-7.59093 -3.0253601 303.60599
-6.2477498 -2.9955599 303.12601
-3.97509 0.47310501 299.741
-19.364901 19.799601 290.05899
-8.5583601 7.9868398 296.84201
-20.7771 20.8109 289.57901
-7.5818501 6.6511402 297.32501
-6.2477498 -2.9955599 303.12601
-11.0643 10.67 295.866
-12.0179 -2.88556 305.47299
-11.0643 10.67 295.866
-3.8180399 0.39773399 299.737
-14.4856 14.6817 293.92899
-10.0347 9.2638702 296.34601
-10.6255 10.168 296.005
-10.5405 -3.1707201 305.05899
-10.0282 -2.9319301 304.56699
-23.195299 -2.4054599 308.776
-13.48 -3.3092699 306.508
-27.066601 20.339899 292.72299
-13.9929 -3.2758601 306.50699
-31.899 8.7370195 302.94101
-31.4111 -2.4131701 309.74301
-31.4111 -2.4131701 309.74301
-34.984798 -2.42606 310.85001
-9.6589403 9.0889597 296.35501
-8.68647 -3.0258801 304.09
-5.7645602 3.3984001 298.58701
-5.1750102 2.7859299 298.771
-18.8248 19.341 290.36099
-6.2680898 4.2310801 298.289
-3.21596 -1.60724 300.70901
-6.2680898 4.2310801 298.289
-14.9801 15.4308 293.45599
-3.97509 0.47310501 299.741
