# .PCD v0.7 - Point Cloud Data file format
VERSION 0.7
FIELDS x y z normal_x normal_y normal_z curvature
SIZE 4 4 4 4 4 4 4
TYPE F F F F F F F
COUNT 1 1 1 1 1 1 1
WIDTH 525
HEIGHT 1
VIEWPOINT 0 0 0 1 0 0 0
POINTS 525
DATA ascii
0.175083 0.13000301 -1.71505 -0.092050999 0.995754 0.000187741 0
0.180014 0.130004 -1.7056299 0.461779 0.85543102 -0.23451599 0
0.17997999 0.12999 -1.68672 0.73317897 0.67287898 0.098401502 0
0.169697 0.124718 -1.69998 0.224564 0.91681802 -0.330176 0
0.150353 0.150014 -1.69045 -0.062363401 0.83319199 -0.549456 0
0.16483399 0.139871 -1.69497 0.340648 0.92884898 -0.145596 0
0.159633 0.129853 -1.69499 0.149019 0.85236102 -0.50127202 0
0.155614 0.119999 -1.70999 -0.0289857 0.99860799 -0.044056799 0
0.16500901 0.13005801 -1.6907001 0.488888 0.84681797 -0.209493 0
0.18003801 0.13033 -1.68993 0.64530897 0.76029599 0.074331298 0
0.175234 0.120069 -1.6799999 0.77824599 0.59605497 0.197613 0
0.175129 0.120039 -1.70575 0.35435101 0.81152701 -0.464607 0
0.16999 0.124978 -1.6761 0.73398501 0.65390599 0.183502 0
0.185022 0.125442 -1.68999 0.91917002 0.38249201 0.0939501 0
0.149536 0.15003499 -1.69049 -0.062363401 0.83319199 -0.549456 0
0.164937 0.119996 -1.71529 0.27207401 0.84542102 0.45960799 0
0.14025199 0.155196 -1.6549799 0.488078 0.87174702 0.042854998 0
0.12994 0.15994 -1.67118 0.39235601 0.78806001 0.474361 0
0.180326 0.115002 -1.68498 0.72312301 0.67988199 0.121879 0
0.15013 0.145143 -1.64496 0.673756 0.66995698 0.31178701 0
0.145371 0.140001 -1.68098 0.137363 0.83838701 -0.52748299 0
0.16497201 0.129988 -1.67599 0.775527 0.60668898 0.174602 0
0.185109 0.120686 -1.67993 0.82032597 0.50086403 0.27604499 0
0.19491 0.10433 -1.71497 0.100846 0.99357301 0.051401399 0
0.18007401 0.125003 -1.72092 0.25630301 0.79740697 -0.54630703 0
0.150001 0.140026 -1.67668 0.40375099 0.87861598 -0.254989 0
0.175091 0.130064 -1.7149301 -0.092050999 0.995754 0.000187741 0
0.14469799 0.13000999 -1.6958801 -0.046464302 0.80713201 -0.58854002 0
0.165382 0.13001899 -1.68996 0.52684999 0.84183502 -0.117231 0
0.180113 0.130045 -1.70497 0.78322297 0.61122102 -0.113887 0
0.190091 0.120518 -1.6950001 0.80816001 0.56835902 0.154415 0
0.15996601 0.143924 -1.6799999 0.49834001 0.86641902 -0.031223301 0
0.17497 0.129995 -1.67212 0.73516399 0.601147 0.31330001 0
0.180078 0.115056 -1.71147 0.39767101 0.83052599 -0.389979 0
0.16486201 0.129876 -1.67498 0.775527 0.60668898 0.174602 0
0.175914 0.130336 -1.67497 0.709207 0.64043301 0.29473999 0
0.189937 0.119928 -1.69238 0.80497402 0.5679 0.171773 0
0.150059 0.150372 -1.66496 0.50751197 0.86024302 0.049128801 0
0.150622 0.14043801 -1.65999 0.61914903 0.77952999 0.094802298 0
0.17065001 0.12516201 -1.6799901 0.74515897 0.64249301 0.178718 0
0.185004 0.125002 -1.7130899 0.348263 0.89731002 -0.271198 0
0.134884 0.149912 -1.6599801 0.43269899 0.88486201 -0.172602 0
0.159298 0.134976 -1.67997 0.50282001 0.86253798 -0.0565712 0
0.19535901 0.1111 -1.68999 0.83539802 0.37823701 0.39880601 0
0.149174 0.139486 -1.67998 0.226841 0.947716 -0.22445101 0
0.185239 0.12585001 -1.6950001 0.67423499 0.73414397 0.080251098 0
0.154892 0.13495199 -1.65256 0.089743398 0.57486302 -0.81331301 0
0.18421 0.119946 -1.67497 0.709418 0.33143899 0.62199301 0
0.179987 0.114927 -1.68308 0.369174 0.92259198 0.111959 0
0.190414 0.115925 -1.68498 0.89833599 0.19982401 0.391233 0
0.174808 0.134462 -1.69498 0.564004 0.824211 -0.050751999 0
0.18541101 0.111648 -1.6950001 0.674977 0.71698201 0.174191 0
0.164937 0.119547 -1.70996 0.089154497 0.99522102 0.0398398 0
0.155469 0.13000201 -1.69554 0.0928519 0.85408801 -0.511774 0
0.177733 0.130455 -1.6799999 0.697097 0.678096 0.232898 0
0.17190599 0.12518001 -1.69498 0.505925 0.844697 -0.174721 0
0.19101401 0.120296 -1.7 0.76169503 0.63962901 0.10342 0
0.18045101 0.13020501 -1.69997 0.64069301 0.76648301 -0.044899601 0
0.167961 0.129987 -1.65997 0.73978603 -0.00096679502 0.67284203 0
0.15924101 0.13440999 -1.66997 0.69248003 0.70997697 0.128079 0
0.181872 0.12583999 -1.6799901 0.74277699 0.611054 0.27366999 0
0.17195401 0.12502301 -1.68499 0.71233302 0.69079202 0.12405 0
0.149924 0.14995299 -1.68293 0.61815 0.65072203 0.44096601 0
0.165135 0.14002299 -1.6943901 0.391826 0.892874 -0.221919 0
0.190109 0.120014 -1.72149 0.30563599 0.68496001 -0.66137499 0
0.169765 0.119028 -1.70997 0.145044 0.865578 -0.47930899 0
0.169348 0.133691 -1.70499 0.42918199 0.86682397 -0.25380799 0
0.149892 0.130014 -1.69601 0.0073740599 0.83837301 -0.54504699 0
0.159881 0.14434101 -1.6749901 0.52125603 0.85255599 -0.037952699 0
0.174933 0.11867 -1.67497 0.30743501 0.93726301 0.164381 0
0.169999 0.137982 -1.6900001 0.568335 0.82206303 -0.034763701 0
0.18951499 0.119769 -1.68999 0.80497402 0.5679 0.171773 0
0.16041701 0.125011 -1.70269 0.094776303 0.84507501 -0.52618003 0
0.17049 0.135012 -1.70129 0.30438101 0.88675302 -0.34788099 0
0.149755 0.149997 -1.67498 0.53966898 0.83345699 -0.118771 0
0.134542 0.124758 -1.69999 0.043574698 0.99318099 -0.108137 0
0.184857 0.113788 -1.70498 0.70784098 0.705746 -0.029715501 0
0.175097 0.120436 -1.705 0.37396601 0.85555899 -0.35800499 0
0.196292 0.115067 -1.71498 0.77843499 0.627698 -0.0058283601 0
0.14427599 0.14396299 -1.6499799 0.66057098 0.73168403 0.16818 0
0.18282101 0.115271 -1.69497 0.76364398 0.63071603 0.13800301 0
0.176185 0.120348 -1.68499 0.76801699 0.61516398 0.17811 0
0.149932 0.14998101 -1.65994 0.56455499 0.81628698 0.122286 0
0.141463 0.14514001 -1.66998 0.30396801 0.91320699 -0.27139699 0
0.17755 0.120064 -1.68998 0.72314698 0.67631203 0.14021701 0
0.151352 0.14384399 -1.64499 0.82844102 0.224411 0.513152 0
0.174941 0.13442799 -1.68998 0.58963299 0.80767 0.00147657 0
0.165644 0.13014901 -1.67995 0.76594299 0.63182199 0.118875 0
0.17154001 0.130445 -1.665 0.803469 0.023182301 0.59489399 0
0.197267 0.110596 -1.69499 0.89661998 0.34963799 0.271709 0
0.194912 0.116736 -1.70999 0.77228802 0.63503999 0.017192099 0
0.16409101 0.137233 -1.65999 0.70141602 0.66825598 0.24789099 0
0.16984899 0.13574301 -1.69999 0.327061 0.87409198 -0.35915801 0
0.192036 0.120068 -1.70999 0.71259201 0.70076197 -0.033832502 0
0.144921 0.153355 -1.6649801 0.42754301 0.90318102 -0.038350001 0
0.166086 0.14044601 -1.67998 0.57494003 0.818115 0.0114956 0
0.14423101 0.134021 -1.68998 -0.0074583301 0.81398398 -0.58083999 0
0.164263 0.14000601 -1.70336 0.172316 0.91937703 -0.35362801 0
0.150636 0.15005501 -1.67 0.47582099 0.87813002 -0.04981 0
0.18494099 0.113346 -1.7 0.75246102 0.650828 0.101124 0
0.169782 0.12477 -1.67498 0.73471099 0.64771003 0.201675 0
0.14001501 0.14502899 -1.67195 0.266601 0.90410501 -0.333942 0
0.129962 0.124995 -1.6997499 0.0320132 0.86269301 -0.504713 0
0.199967 0.104283 -1.71497 -0.106882 0.994102 0.0183508 0
0.16651 0.136669 -1.665 0.703789 0.66333598 0.25429499 0
0.18499801 0.124997 -1.68817 0.77983701 0.593274 0.199699 0
0.17998099 0.12967101 -1.68496 0.71227002 0.68456101 0.155074 0
0.195913 0.115362 -1.70999 0.76910901 0.63885099 0.0184347 0
0.13998801 0.154984 -1.66987 0.327952 0.94234002 -0.0666527 0
0.124783 0.126624 -1.69498 0.16824099 0.95416498 -0.24751601 0
0.154309 0.12501299 -1.70332 -0.051008899 0.82257801 -0.56636 0
0.149846 0.13731401 -1.68499 0.124026 0.880068 -0.45836499 0
0.18068101 0.13014799 -1.69499 0.59035099 0.80697697 0.0165346 0
0.17999201 0.11767 -1.70498 0.515715 0.82244599 -0.240043 0
0.14984301 0.14050201 -1.67498 0.400626 0.89320701 -0.204155 0
0.181188 0.1155 -1.6900001 0.76774502 0.607005 0.205212 0
0.173659 0.13043 -1.67 0.73299003 0.603163 0.31451699 0
0.15487 0.119823 -1.70995 -0.025531201 0.999542 0.016243899 0
0.166557 0.14016999 -1.68496 0.53145999 0.84708399 -0.00020698 0
0.179776 0.113323 -1.71498 0.351899 0.93428397 -0.057277501 0
0.14461499 0.142625 -1.6749901 0.31216699 0.90208101 -0.29799601 0
0.18954 0.108681 -1.6950001 0.28399599 0.955019 -0.085353903 0
0.154792 0.123835 -1.70498 -0.022036901 0.75972402 -0.649872 0
0.150225 0.150106 -1.68993 -0.0317492 0.96619499 -0.25584999 0
0.180354 0.12511601 -1.67498 0.75032598 0.577793 0.32119399 0
0.15411399 0.13846999 -1.6749901 0.44716001 0.88856798 -0.102446 0
0.171556 0.13526601 -1.67495 0.71473598 0.660945 0.22870301 0
0.19166701 0.120015 -1.71499 0.68619698 0.72251099 -0.084330201 0
0.169754 0.122146 -1.70495 0.21697199 0.85378802 -0.47325301 0
0.144371 0.14501201 -1.6649801 0.42810899 0.898332 -0.098602697 0
0.13523699 0.124981 -1.69998 -0.124653 0.98639101 -0.107209 0
0.15477 0.147204 -1.675 0.482196 0.87303698 -0.072750002 0
0.15719201 0.135267 -1.66497 0.690615 0.71163797 0.128925 0
0.15993001 0.123558 -1.705 0.075682603 0.833067 -0.54797 0
0.184948 0.12661099 -1.69998 0.64485198 0.76360703 0.0327015 0
0.154065 0.119968 -1.71137 -0.037664399 0.99661303 0.073099799 0
0.16685399 0.140011 -1.68999 0.48654899 0.86611801 -0.114494 0
0.200441 0.11023 -1.71496 0.81783903 0.57531703 -0.012232 0
0.13961001 0.15555 -1.6599801 0.38358799 0.92349499 -0.0040330701 0
0.174986 0.115214 -1.71498 0.15030999 0.93122202 -0.33201101 0
0.14174899 0.144834 -1.64498 0.70982701 0.47415099 -0.52089 0
0.16917901 0.123707 -1.67 0.45442301 0.89077401 -0.0045869998 0
0.174612 0.122476 -1.7 0.47067299 0.85159999 -0.230748 0
0.19008701 0.120757 -1.71997 0.85704303 0.47631499 -0.196473 0
0.184728 0.125772 -1.68998 0.91917002 0.38249201 0.0939501 0
0.159964 0.13391601 -1.68499 0.39626199 0.89811701 -0.19069 0
0.173951 0.13509201 -1.68498 0.60411602 0.79506099 0.0540592 0
0.174978 0.133716 -1.69997 0.42990601 0.88098103 -0.19761901 0
0.169347 0.133551 -1.6649801 0.76644897 0.59289402 0.24704801 0
0.174955 0.11781 -1.71 0.26550201 0.85353202 -0.44832 0
0.189669 0.121647 -1.71499 0.51859897 0.85005599 -0.091977902 0
0.144765 0.152621 -1.66997 0.407626 0.89956701 -0.15690701 0
0.16525 0.125016 -1.7016799 0.17842001 0.84493101 -0.50423902 0
0.16497301 0.122962 -1.70498 0.120231 0.831034 -0.54307097 0
0.13946 0.148293 -1.65499 0.51234698 0.858778 0.0011597699 0
0.172233 0.129456 -1.665 0.803469 0.023182301 0.59489399 0
0.15393101 0.14503001 -1.69677 -0.121276 0.88096303 -0.45738 0
0.189916 0.10795 -1.71499 0.65501499 0.754731 0.036542598 0
0.17994399 0.118427 -1.69497 0.70525903 0.70570302 0.067770898 0
0.163919 0.141854 -1.67497 0.57213801 0.815943 0.083036996 0
0.157499 0.145391 -1.665 0.614568 0.772286 0.16087399 0
0.149884 0.130596 -1.69499 0.0048592002 0.85004997 -0.52667999 0
0.17820901 0.120099 -1.7 0.630247 0.77579999 -0.0303887 0
0.149386 0.12734599 -1.69997 -0.0451084 0.80464703 -0.59203702 0
0.139984 0.15491199 -1.6763 0.65937001 0.59468597 0.459977 0
0.187886 0.110325 -1.68999 0.41479 0.89955002 -0.136961 0
0.174578 0.13364001 -1.6799901 0.67703903 0.71080202 0.190733 0
0.184453 0.126974 -1.70498 0.611835 0.78926301 -0.052172799 0
0.19952001 0.110162 -1.70496 0.79031402 0.60013998 0.123437 0
0.15994 0.14403 -1.68496 0.49533701 0.86817503 -0.0302395 0
0.15968999 0.14369901 -1.68999 0.41919801 0.89151597 -0.171674 0
0.164002 0.120146 -1.71499 0.296886 0.83955199 0.45498499 0
0.169544 0.137215 -1.67498 0.677481 0.707748 0.20028 0
0.152128 0.140054 -1.67 0.50810403 0.85777801 -0.077764399 0
0.174954 0.13421801 -1.68499 0.592439 0.80249101 0.070878901 0
0.14476401 0.14060999 -1.67997 0.13011301 0.83411598 -0.53602397 0
0.18913899 0.120239 -1.68999 0.72742802 0.661394 0.18277299 0
0.154618 0.137821 -1.665 0.65618801 0.748142 0.098490603 0
0.149345 0.14078601 -1.65499 0.63104898 0.75783402 0.165727 0
0.134868 0.157708 -1.6549799 0.370906 0.928666 -0.0027395501 0
0.149868 0.150033 -1.65999 0.56455499 0.81628698 0.122286 0
0.14966699 0.119579 -1.70997 0.017799901 0.99972498 0.0152899 0
0.16404399 0.141692 -1.6849999 0.50445199 0.86342198 -0.0055708098 0
0.139502 0.121688 -1.70495 0.19543301 0.98045599 0.0226076 0
0.154838 0.146816 -1.6799999 0.491249 0.87081599 -0.018821299 0
0.194903 0.104895 -1.71868 0.55966002 0.65004402 0.51402599 0
0.140753 0.155048 -1.6599801 0.43108901 0.90229899 -0.0044022901 0
0.15431599 0.146341 -1.6950001 -0.121276 0.88096303 -0.45738 0
0.13611799 0.150056 -1.65495 0.43969399 0.88948798 -0.124423 0
0.170122 0.120002 -1.70834 0.138411 0.82346499 -0.55022502 0
0.189781 0.122177 -1.70998 0.65651 0.75363398 -0.032104701 0
0.179566 0.115068 -1.67998 0.369174 0.92259198 0.111959 0
0.150855 0.14005999 -1.67498 0.405022 0.89846897 -0.16944499 0
0.13459501 0.157401 -1.65997 0.37159199 0.927984 -0.0276675 0
0.166162 0.135087 -1.66 0.83257902 0.474482 0.28579399 0
0.13388 0.14500199 -1.6747299 0.0099909296 0.89294302 -0.45005801 0
0.184591 0.12607899 -1.70998 0.47943601 0.85413897 -0.201462 0
0.15861399 0.145318 -1.66996 0.55359697 0.83213198 0.0329693 0
0.149793 0.13396201 -1.6900001 0.0255046 0.802688 -0.59585398 0
0.14960299 0.14907099 -1.6549799 0.62470502 0.75468099 0.2005 0
0.149569 0.145779 -1.64499 0.63651502 0.70887899 0.303875 0
0.150001 0.150021 -1.6736701 0.48371801 0.86940801 -0.100726 0
0.19164599 0.12024 -1.70495 0.74240601 0.66701299 0.062661096 0
0.184268 0.120035 -1.675 0.709418 0.33143899 0.62199301 0
0.14070299 0.155003 -1.6649899 0.35291001 0.934982 -0.0355331 0
0.159848 0.144407 -1.66997 0.62096399 0.78122199 0.0639906 0
0.159867 0.132623 -1.68998 0.29426801 0.88198 -0.36812699 0
0.162292 0.142285 -1.7 0.421269 0.902583 -0.088748597 0
0.184505 0.111352 -1.68998 0.62961102 0.77684599 0.0099528702 0
0.139998 0.15499499 -1.64999 0.49481201 0.861835 0.111364 0
0.179961 0.126194 -1.71496 0.43416399 0.86158901 -0.262995 0
0.159205 0.140204 -1.655 0.64114302 0.70175397 0.310608 0
0.189465 0.121218 -1.6950001 0.72975999 0.667144 0.149562 0
0.174312 0.121169 -1.6799901 0.742769 0.64414901 0.18266401 0
0.17896999 0.118333 -1.68999 0.76160198 0.62632799 0.16635799 0
0.14947399 0.15013599 -1.67497 0.32622799 0.937401 -0.121881 0
0.14514799 0.15242399 -1.6799999 0.63709497 0.72724497 0.25539199 0
0.155013 0.135058 -1.68722 0.24306899 0.88488299 -0.39736599 0
0.146982 0.151067 -1.65499 0.58163601 0.79304802 0.181034 0
0.17247801 0.12505899 -1.68996 0.64856702 0.76094002 0.0181935 0
0.15847699 0.130024 -1.69497 0.0928519 0.85408801 -0.511774 0
0.19410799 0.115236 -1.69499 0.737243 0.65171897 0.17814 0
0.189401 0.122568 -1.705 0.703982 0.70868802 0.046589401 0
0.13716701 0.159703 -1.67496 0.724379 0.62199098 0.297324 0
0.173041 0.135729 -1.68999 0.58734602 0.80931598 -0.0056636999 0
0.157049 0.13518 -1.68499 0.3466 0.91965503 -0.184668 0
0.17480201 0.120601 -1.70494 0.299005 0.868689 -0.394936 0
0.136096 0.16242699 -1.6749901 0.724379 0.62199098 0.297324 0
0.174997 0.119999 -1.67892 0.77824599 0.59605497 0.197613 0
0.16431201 0.134682 -1.65499 0.69073403 0.107018 0.71514601 0
0.20057 0.108718 -1.705 0.79074401 0.598827 0.127004 0
0.174215 0.130836 -1.70998 0.054109499 0.98200703 -0.18092801 0
0.17966799 0.118863 -1.7 0.67916602 0.73239398 -0.048287701 0
0.159475 0.139909 -1.6549799 0.64114302 0.70175397 0.310608 0
0.16457701 0.128453 -1.6699899 0.725214 0.65379602 0.21590699 0
0.168623 0.133269 -1.70999 0.37706399 0.85495502 -0.356195 0
0.16419201 0.119989 -1.71499 0.296886 0.83955199 0.45498499 0
0.19447801 0.114732 -1.6950001 0.815265 0.55742598 0.156903 0
0.174228 0.129714 -1.6699899 0.88072699 0.29352599 0.371703 0
0.17388999 0.13503601 -1.69499 0.564004 0.824211 -0.050751999 0
0.13982201 0.14771301 -1.65999 0.438759 0.89216202 -0.107417 0
0.16468 0.13962699 -1.7 0.72843701 0.68383902 -0.0417572 0
0.163546 0.14018101 -1.69499 0.374376 0.91474903 -0.151913 0
0.135151 0.150003 -1.6592 0.39989299 0.90815902 -0.123825 0
0.17939401 0.12640899 -1.675 0.72486103 0.611076 0.31806099 0
0.14992499 0.119983 -1.7105401 0.017799901 0.99972498 0.0152899 0
0.164617 0.14130799 -1.6900001 0.30734301 0.93841702 -0.157841 0
0.195981 0.115098 -1.70498 0.78207099 0.61883003 0.0735844 0
0.18494301 0.112336 -1.69499 0.790497 0.59078199 0.16152801 0
0.178764 0.116999 -1.68499 0.77828598 0.60834599 0.155517 0
0.160603 0.120002 -1.70999 0.0385218 0.99321699 -0.109707 0
0.149611 0.14159399 -1.66998 0.47291899 0.87506998 -0.102955 0
0.164546 0.130151 -1.6749901 0.66659403 0.73008901 0.150408 0
0.159462 0.14233001 -1.6950001 0.52686101 0.84446901 -0.0963834 0
0.181136 0.115171 -1.71 0.46555001 0.82662201 -0.31616399 0
0.16714901 0.12579501 -1.66998 0.61942399 0.78464901 -0.0253007 0
0.16474 0.141357 -1.67998 0.50527 0.86290699 0.0097318897 0
0.189877 0.108179 -1.70497 0.38546601 0.920183 0.068403699 0
0.178683 0.124412 -1.6699899 0.56533998 0.68842298 0.454384 0
0.14332999 0.154928 -1.67994 0.777215 0.56202698 0.28295499 0
0.174944 0.13209599 -1.70499 0.33070001 0.89259797 -0.30644101 0
0.15974399 0.14268699 -1.69997 -0.190275 0.94543302 -0.26448199 0
0.15581501 0.125011 -1.7033401 0.0534271 0.83595997 -0.546184 0
0.180591 0.125008 -1.71997 0.25630301 0.79740697 -0.54630703 0
0.18227001 0.12518699 -1.71498 0.329041 0.92624301 -0.183863 0
0.15255401 0.14490101 -1.65 0.66870201 0.68533403 0.28836399 0
0.17502899 0.13005701 -1.70989 0.357593 0.932827 -0.044275898 0
0.14471599 0.145123 -1.6599801 0.29667899 0.95497602 0.00170154 0
0.159573 0.120223 -1.70999 -0.036003701 0.98898101 -0.14359599 0
0.18601499 0.12567399 -1.69998 0.64485198 0.76360703 0.0327015 0
0.144591 0.144899 -1.665 0.42810899 0.898332 -0.098602697 0
0.0999806 0.138951 -1.675 0.51028699 0.66002601 -0.551337 0
0.134995 0.158999 -1.67424 0.995049 0.078333899 0.061173402 0
0.164876 0.130895 -1.6799901 0.56905699 0.81563997 0.104431 0
0.15463901 0.12714 -1.69999 0.048083901 0.83742398 -0.54443502 0
0.15498599 0.145759 -1.68999 0.474962 0.87835699 -0.0538521 0
0.134841 0.157058 -1.66998 0.387824 0.90843397 0.15601499 0
0.16876499 0.125065 -1.69994 0.224564 0.91681802 -0.330176 0
0.184554 0.111317 -1.71498 0.54588598 0.81848401 0.17914601 0
0.15431599 0.147782 -1.665 0.56574702 0.81528801 0.12343 0
0.194693 0.111858 -1.6900001 0.88710499 0.40527201 0.22090399 0
0.16457 0.12612399 -1.7 0.16500799 0.85326701 -0.49467999 0
0.17991699 0.130441 -1.6900001 0.60120201 0.79641002 0.065475598 0
0.179961 0.128463 -1.70998 0.35667199 0.86490899 -0.35315499 0
0.17937601 0.13106801 -1.69996 0.54444098 0.837174 -0.052193299 0
0.184981 0.124256 -1.715 0.427789 0.85414702 -0.29568401 0
0.149407 0.14939199 -1.6799999 0.436885 0.89357102 0.103256 0
0.153951 0.130025 -1.69577 0.055111401 0.86653399 -0.496066 0
0.16992199 0.13761599 -1.69498 0.47167501 0.85836297 -0.201832 0
0.194484 0.116901 -1.70499 0.77063298 0.63183898 0.083092898 0
0.194484 0.106161 -1.71 0.29991701 0.91177601 -0.28055999 0
0.173345 0.120773 -1.6749901 0.74450302 0.633515 0.21065301 0
0.17181399 0.135014 -1.69995 0.35023901 0.89431 -0.27846301 0
0.144849 0.151528 -1.65 0.59649199 0.779751 0.190227 0
0.16023199 0.130009 -1.69467 0.149019 0.85236102 -0.50127202 0
0.186874 0.110102 -1.71498 0.415887 0.90902799 0.026591601 0
0.195179 0.115136 -1.69996 0.80226201 0.580244 0.140332 0
0.18237799 0.116245 -1.7 0.713319 0.700432 0.0238788 0
0.16966 0.12731899 -1.6900001 0.56442899 0.82383001 -0.0521864 0
0.149049 0.142106 -1.6649801 0.557872 0.829005 0.039126199 0
0.163196 0.130345 -1.66998 0.79847097 0.56265002 0.214169 0
0.13939101 0.15559401 -1.6549799 0.43342 0.90048099 0.035787702 0
0.144831 0.143837 -1.66998 0.36239299 0.90940303 -0.20410299 0
0.144554 0.152712 -1.655 0.51426101 0.84878999 0.122844 0
0.16301 0.136612 -1.65499 0.61934799 0.233464 0.74960101 0
0.17516799 0.115145 -1.715 0.15030999 0.93122202 -0.33201101 0
0.194978 0.114927 -1.69797 0.80200702 0.57684702 0.15502299 0
0.184669 0.124344 -1.68499 0.77983701 0.593274 0.199699 0
0.178247 0.120191 -1.69497 0.68319201 0.72674203 0.071372204 0
0.179144 0.12904599 -1.6799901 0.724549 0.64447898 0.244284 0
0.14916299 0.150941 -1.66497 0.518794 0.853553 0.047963999 0
0.172711 0.13526499 -1.6799901 0.64069998 0.75521702 0.138384 0
0.18484899 0.112161 -1.68498 0.38481101 0.90092897 -0.200618 0
0.14734 0.140057 -1.67998 0.226841 0.947716 -0.22445101 0
0.179763 0.130253 -1.705 0.37612399 0.92173702 -0.094509497 0
0.144116 0.137463 -1.68496 0.0273619 0.82884598 -0.55880803 0
0.13995799 0.14563701 -1.66995 0.30396801 0.91320699 -0.27139699 0
0.18830299 0.110149 -1.70498 0.73622102 0.67356098 0.065522097 0
0.192532 0.115438 -1.68999 0.80631298 0.53516901 0.251901 0
0.143233 0.14500301 -1.64999 0.64587897 0.74700898 0.157538 0
0.15868799 0.145089 -1.6749901 0.49446499 0.86861801 -0.031739902 0
0.183162 0.115262 -1.70495 0.65897101 0.74280697 -0.118299 0
0.174208 0.123599 -1.69499 0.61047798 0.79117501 -0.036872 0
0.12995499 0.159374 -1.65996 0.398334 0.91689003 0.025345501 0
0.167097 0.135069 -1.7090501 0.515423 0.66979998 -0.53451598 0
0.127716 0.16066401 -1.67 0.35664001 0.92654997 0.119638 0
0.169982 0.127004 -1.68499 0.66477698 0.74121499 0.0931236 0
0.12938599 0.125311 -1.69997 0.0320132 0.86269301 -0.504713 0
0.14472 0.15171 -1.675 0.413142 0.91065598 -0.00432692 0
0.13519301 0.145 -1.67448 0.17777801 0.88663602 -0.42693299 0
0.154818 0.13362201 -1.6900001 0.125975 0.87979102 -0.45836499 0
0.15578701 0.141536 -1.64999 0.82666701 0.38623899 0.40919501 0
0.154935 0.14759 -1.66998 0.51502198 0.85677302 -0.0262936 0
0.139524 0.14399 -1.6749901 0.196485 0.912444 -0.35894299 0
0.188408 0.110223 -1.70999 0.67687398 0.73371899 -0.059138201 0
0.149322 0.13500001 -1.6885099 0.0101946 0.83044899 -0.55700201 0
0.13398001 0.150232 -1.65999 0.33283299 0.92553502 -0.180573 0
0.17931101 0.13035101 -1.68499 0.73547697 0.66201401 0.14425801 0
0.18797 0.116629 -1.6799901 0.73947299 0.15357 0.65543503 0
0.169883 0.116206 -1.71499 0.47699001 0.87233901 -0.107262 0
0.156652 0.145018 -1.68988 0.44008401 0.89344198 -0.089931101 0
0.169475 0.125021 -1.67498 0.73471099 0.64771003 0.201675 0
0.13479 0.150609 -1.6549799 0.43969399 0.88948798 -0.124423 0
0.17494 0.122688 -1.68998 0.70494401 0.70358098 0.089599997 0
0.154875 0.14671899 -1.6849999 0.416924 0.90363097 -0.0981078 0
0.169901 0.1376 -1.6799901 0.62184298 0.77627701 0.103468 0
0.15024801 0.13502599 -1.6884201 0.0956278 0.83896399 -0.53571802 0
0.194235 0.116365 -1.69999 0.77380198 0.61961502 0.13156299 0
0.18600699 0.125109 -1.71 0.579992 0.79781598 -0.16461501 0
0.15496799 0.13588101 -1.6849999 0.301624 0.91222697 -0.27724499 0
0.15561099 0.14554401 -1.69498 0.54955697 0.827003 -0.118544 0
0.164976 0.130248 -1.6900001 0.681813 0.709014 -0.180084 0
0.164551 0.12875199 -1.6950001 0.225486 0.93016499 -0.28973901 0
0.189955 0.108498 -1.69997 0.232711 0.97243899 0.0144216 0
0.196686 0.105036 -1.71486 0.100846 0.99357301 0.051401399 0
0.19983999 0.110879 -1.71499 0.81783903 0.57531703 -0.012232 0
0.13986599 0.155074 -1.64999 0.49481201 0.861835 0.111364 0
0.149827 0.150554 -1.6699899 0.36788699 0.92841601 -0.051978599 0
0.17477 0.131532 -1.67498 0.71466899 0.62706703 0.30989501 0
0.157832 0.145356 -1.68499 0.46115801 0.88415998 -0.074793197 0
0.18980099 0.12164 -1.69998 0.720366 0.687626 0.090786599 0
0.200183 0.104955 -1.71807 -0.106882 0.994102 0.0183508 0
0.179814 0.13080201 -1.69499 0.59035099 0.80697697 0.0165346 0
0.14958499 0.152246 -1.68499 0.67302102 0.72976601 -0.120347 0
0.139902 0.146881 -1.6649801 0.35686401 0.91570199 -0.184765 0
0.15837499 0.135537 -1.6799901 0.49335399 0.86564302 -0.0852305 0
0.129783 0.158957 -1.6699899 0.442783 0.89662302 0.0031983401 0
0.14496499 0.130596 -1.6950001 -0.0523283 0.865242 -0.49861699 0
0.144612 0.153116 -1.65999 0.46448901 0.88097298 0.090206802 0
0.15482201 0.120024 -1.70953 -0.025531201 0.999542 0.016243899 0
0.154825 0.137307 -1.6799901 0.41665101 0.88999599 -0.185229 0
0.17998201 0.124996 -1.6738501 0.56533998 0.68842298 0.454384 0
0.169644 0.126341 -1.67998 0.71077597 0.68275797 0.169231 0
0.153447 0.130541 -1.69499 0.055111401 0.86653399 -0.496066 0
0.14485499 0.135011 -1.68859 -0.0024381501 0.82242602 -0.56886601 0
0.184246 0.122829 -1.67998 0.80632102 0.52960002 0.26338199 0
0.13928799 0.154779 -1.67497 0.88254601 0.46775901 -0.048105799 0
0.169992 0.12638 -1.69498 0.46073699 0.85763001 -0.22845601 0
0.186819 0.121339 -1.68499 0.783279 0.55444402 0.281187 0
0.186362 0.12535501 -1.70496 0.656892 0.75303501 -0.037813298 0
0.193267 0.105443 -1.71499 0.44286099 0.88858902 -0.119518 0
0.140027 0.15500499 -1.6692899 0.439459 0.89640403 -0.057748701 0
0.187352 0.110569 -1.7 0.661327 0.74769503 0.0599952 0
0.164947 0.131017 -1.68499 0.61456901 0.78806001 -0.0355727 0
0.18292201 0.126452 -1.68499 0.726291 0.65545702 0.20707101 0
0.124766 0.153116 -1.65996 0.42802799 0.81535798 -0.38984901 0
0.197926 0.111263 -1.69997 0.89776999 0.42900601 -0.099812202 0
0.189676 0.121151 -1.71997 0.33952799 0.87409699 -0.34738201 0
0.139826 0.155058 -1.66997 0.327952 0.94234002 -0.0666527 0
0.158067 0.145142 -1.6799901 0.47687399 0.87872702 -0.020712201 0
0.159703 0.126725 -1.69999 0.085462898 0.84596097 -0.52635199 0
0.13489699 0.157397 -1.665 0.38680401 0.92189598 -0.022155199 0
0.170055 0.125045 -1.69899 0.40623 0.86833 -0.28457099 0
0.184854 0.113065 -1.70996 0.52808601 0.81885803 -0.22493599 0
0.184966 0.12614 -1.69499 0.67423499 0.73414397 0.080251098 0
0.174528 0.122259 -1.68499 0.73887098 0.656367 0.152486 0
0.166063 0.13017599 -1.68498 0.59470201 0.80289698 -0.0410528 0
0.199876 0.109694 -1.70497 0.79031402 0.60013998 0.123437 0
0.167827 0.13344499 -1.66 0.70510602 0.140706 0.69500202 0
0.19459701 0.116999 -1.715 0.72684598 0.68645 -0.0219428 0
0.18017501 0.115029 -1.67986 0.369174 0.92259198 0.111959 0
0.13967299 0.155395 -1.66494 0.31536299 0.94798398 -0.043269102 0
0.169937 0.13802999 -1.68496 0.56026101 0.82780701 0.029033501 0
0.189835 0.108995 -1.70999 0.54097903 0.84036499 -0.033587798 0
0.18968201 0.117013 -1.68499 0.80145597 0.51388699 0.30592301 0
0.17987899 0.115838 -1.70999 0.36845401 0.85061002 -0.37510601 0
0.17997999 0.12999 -1.68672 -0.73317897 -0.67287898 -0.098401502 0
0.16996799 0.13496301 -1.6702501 -0.66827899 -0.69406199 -0.267735 0
0.16483399 0.139871 -1.69497 -0.340648 -0.92884898 0.145596 0
0.18003801 0.13033 -1.68993 -0.64530897 -0.76029599 -0.074331298 0
0.15013 0.145143 -1.64496 -0.673756 -0.66995698 -0.31178701 0
0.15996601 0.143924 -1.6799999 -0.49834001 -0.86641902 0.031223301 0
0.17497 0.129995 -1.67212 -0.73516399 -0.601147 -0.31330001 0
0.175914 0.130336 -1.67497 -0.709207 -0.64043301 -0.29473999 0
0.150622 0.14043801 -1.65999 -0.61914903 -0.77952999 -0.094802298 0
0.185239 0.12585001 -1.6950001 -0.67423499 -0.73414397 -0.080251098 0
0.174808 0.134462 -1.69498 -0.564004 -0.824211 0.050751999 0
0.177733 0.130455 -1.6799999 -0.697097 -0.678096 -0.232898 0
0.15106501 0.14635 -1.65 -0.65793598 -0.69808 -0.282498 0
0.18045101 0.13020501 -1.69997 -0.64069301 -0.76648301 0.044899601 0
0.15924101 0.13440999 -1.66997 -0.69248003 -0.70997697 -0.128079 0
0.181872 0.12583999 -1.6799901 -0.74277699 -0.611054 -0.27366999 0
0.156011 0.14531 -1.65999 -0.65625298 -0.72040898 -0.224371 0
0.165135 0.14002299 -1.6943901 -0.391826 -0.892874 0.221919 0
0.159486 0.133064 -1.665 -0.71788502 -0.67990398 -0.149569 0
0.149993 0.139936 -1.65409 -0.63104898 -0.75783402 -0.165727 0
0.159881 0.14434101 -1.6749901 -0.52125603 -0.85255599 0.037952699 0
0.169999 0.137982 -1.6900001 -0.568335 -0.82206303 0.034763701 0
0.149755 0.149997 -1.67498 -0.53966898 -0.83345699 0.118771 0
0.157021 0.136494 -1.67 -0.650231 -0.75244898 -0.104975 0
0.14427599 0.14396299 -1.6499799 -0.66057098 -0.73168403 -0.16818 0
0.149932 0.14998101 -1.65994 -0.56455499 -0.81628698 -0.122286 0
0.174941 0.13442799 -1.68998 -0.58963299 -0.80767 -0.00147657 0
0.16409101 0.137233 -1.65999 -0.70141602 -0.66825598 -0.24789099 0
0.192036 0.120068 -1.70999 -0.71259201 -0.70076197 0.033832502 0
0.166086 0.14044601 -1.67998 -0.57494003 -0.818115 -0.0114956 0
0.150636 0.15005501 -1.67 -0.47582099 -0.87813002 0.04981 0
0.16651 0.136669 -1.665 -0.703789 -0.66333598 -0.25429499 0
0.17998099 0.12967101 -1.68496 -0.71227002 -0.68456101 -0.155074 0
0.18068101 0.13014799 -1.69499 -0.59035099 -0.80697697 -0.0165346 0
0.16113 0.131355 -1.665 -0.73418802 -0.65519798 -0.17799599 0
0.173659 0.13043 -1.67 -0.73299003 -0.603163 -0.31451699 0
0.166557 0.14016999 -1.68496 -0.53145999 -0.84708399 0.00020698 0
0.14664701 0.14164799 -1.6499799 -0.667404 -0.71268398 -0.215992 0
0.146616 0.15004399 -1.64999 -0.62197399 -0.75570202 -0.20509 0
0.180354 0.12511601 -1.67498 -0.75032598 -0.577793 -0.32119399 0
0.153842 0.13890401 -1.66997 -0.576823 -0.81651801 -0.023937 0
0.171556 0.13526601 -1.67495 -0.71473598 -0.660945 -0.22870301 0
0.19166701 0.120015 -1.71499 -0.68619698 -0.72251099 0.084330201 0
0.15477 0.147204 -1.675 -0.482196 -0.87303698 0.072750002 0
0.15719201 0.135267 -1.66497 -0.690615 -0.71163797 -0.128925 0
0.184948 0.12661099 -1.69998 -0.64485198 -0.76360703 -0.0327015 0
0.148807 0.14831001 -1.65 -0.63143098 -0.74046302 -0.23023701 0
0.159733 0.143464 -1.66497 -0.66255599 -0.72601402 -0.184183 0
0.144457 0.144803 -1.65499 -0.69752902 -0.707367 -0.114392 0
0.173951 0.13509201 -1.68498 -0.60411602 -0.79506099 -0.0540592 0
0.169884 0.134956 -1.67 -0.66827899 -0.69406199 -0.267735 0
0.15977199 0.14174999 -1.66 -0.66835499 -0.69385201 -0.26808801 0
0.15498 0.144601 -1.655 -0.67942601 -0.68676001 -0.25834399 0
0.163919 0.141854 -1.67497 -0.57213801 -0.815943 -0.083036996 0
0.157499 0.145391 -1.665 -0.614568 -0.772286 -0.16087399 0
0.174578 0.13364001 -1.6799901 -0.67703903 -0.71080202 -0.190733 0
0.184453 0.126974 -1.70498 -0.611835 -0.78926301 0.052172799 0
0.15994 0.14403 -1.68496 -0.49533701 -0.86817503 0.0302395 0
0.15968999 0.14369901 -1.68999 -0.41919801 -0.89151597 0.171674 0
0.169544 0.137215 -1.67498 -0.677481 -0.707748 -0.20028 0
0.174954 0.13421801 -1.68499 -0.592439 -0.80249101 -0.070878901 0
0.154618 0.137821 -1.665 -0.65618801 -0.748142 -0.098490603 0
0.149345 0.14078601 -1.65499 -0.63104898 -0.75783402 -0.165727 0
0.149868 0.150033 -1.65999 -0.56455499 -0.81628698 -0.122286 0
0.16404399 0.141692 -1.6849999 -0.50445199 -0.86342198 0.0055708098 0
0.154838 0.146816 -1.6799999 -0.491249 -0.87081599 0.018821299 0
0.164221 0.13905001 -1.6649899 -0.69613498 -0.67386001 -0.24760699 0
0.189781 0.122177 -1.70998 -0.65651 -0.75363398 0.032104701 0
0.15861399 0.145318 -1.66996 -0.55359697 -0.83213198 -0.0329693 0
0.14960299 0.14907099 -1.6549799 -0.62470502 -0.75468099 -0.2005 0
0.149569 0.145779 -1.64499 -0.63651502 -0.70887899 -0.303875 0
0.150001 0.150021 -1.6736701 -0.48371801 -0.86940801 0.100726 0
0.159848 0.144407 -1.66997 -0.62096399 -0.78122199 -0.0639906 0
0.159205 0.140204 -1.655 -0.64114302 -0.70175397 -0.310608 0
0.163101 0.140196 -1.665 -0.68687397 -0.68514198 -0.242457 0
0.161024 0.14055 -1.65999 -0.69498497 -0.66482598 -0.27386501 0
0.146982 0.151067 -1.65499 -0.58163601 -0.79304802 -0.181034 0
0.14383399 0.14528 -1.655 -0.69752902 -0.707367 -0.114392 0
0.173041 0.135729 -1.68999 -0.58734602 -0.80931598 0.0056636999 0
0.154714 0.13583399 -1.65499 -0.615484 -0.77968502 -0.115197 0
0.159475 0.139909 -1.6549799 -0.64114302 -0.70175397 -0.310608 0
0.166253 0.14009 -1.67498 -0.61562699 -0.78355598 -0.083919197 0
0.16457701 0.128453 -1.6699899 -0.725214 -0.65379602 -0.21590699 0
0.17388999 0.13503601 -1.69499 -0.564004 -0.824211 0.050751999 0
0.15438899 0.137327 -1.66 -0.66834003 -0.73078299 -0.138846 0
0.163546 0.14018101 -1.69499 -0.374376 -0.91474903 0.151913 0
0.17939401 0.12640899 -1.675 -0.72486103 -0.611076 -0.31806099 0
0.164617 0.14130799 -1.6900001 -0.30734301 -0.93841702 0.157841 0
0.149702 0.141233 -1.65999 -0.61362702 -0.78413999 -0.092660002 0
0.154302 0.145171 -1.65499 -0.63051498 -0.73817199 -0.23989999 0
0.16474 0.141357 -1.67998 -0.50527 -0.86290699 -0.0097318897 0
0.15255401 0.14490101 -1.65 -0.66870201 -0.68533403 -0.28836399 0
0.18601499 0.12567399 -1.69998 -0.64485198 -0.76360703 -0.0327015 0
0.15498599 0.145759 -1.68999 -0.474962 -0.87835699 0.0538521 0
0.15431599 0.147782 -1.665 -0.56574702 -0.81528801 -0.12343 0
0.17991699 0.130441 -1.6900001 -0.60120201 -0.79641002 -0.065475598 0
0.144849 0.151528 -1.65 -0.59649199 -0.779751 -0.190227 0
0.149049 0.142106 -1.6649801 -0.557872 -0.829005 -0.039126199 0
0.179144 0.12904599 -1.6799901 -0.724549 -0.64447898 -0.244284 0
0.172711 0.13526499 -1.6799901 -0.64069998 -0.75521702 -0.138384 0
0.143233 0.14500301 -1.64999 -0.64587897 -0.74700898 -0.157538 0
0.15868799 0.145089 -1.6749901 -0.49446499 -0.86861801 0.031739902 0
0.156278 0.13551299 -1.66 -0.69318998 -0.70932698 -0.12784301 0
0.154935 0.14759 -1.66998 -0.51502198 -0.85677302 0.0262936 0
0.17931101 0.13035101 -1.68499 -0.73547697 -0.66201401 -0.14425801 0
0.156652 0.145018 -1.68988 -0.44008401 -0.89344198 0.089931101 0
0.154875 0.14671899 -1.6849999 -0.416924 -0.90363097 0.0981078 0
0.169901 0.1376 -1.6799901 -0.62184298 -0.77627701 -0.103468 0
0.17477 0.131532 -1.67498 -0.71466899 -0.62706703 -0.30989501 0
0.157832 0.145356 -1.68499 -0.46115801 -0.88415998 0.074793197 0
0.179814 0.13080201 -1.69499 -0.59035099 -0.80697697 -0.0165346 0
0.151942 0.140092 -1.6649899 -0.60446203 -0.79406101 -0.063973904 0
0.186362 0.12535501 -1.70496 -0.656892 -0.75303501 0.037813298 0
0.18292201 0.126452 -1.68499 -0.726291 -0.65545702 -0.20707101 0
0.169828 0.13501 -1.66998 -0.66827899 -0.69406199 -0.267735 0
0.158067 0.145142 -1.6799901 -0.47687399 -0.87872702 0.020712201 0
0.154111 0.146879 -1.65999 -0.60119998 -0.773 -0.202557 0
0.184966 0.12614 -1.69499 -0.67423499 -0.73414397 -0.080251098 0
0.169937 0.13802999 -1.68496 -0.56026101 -0.82780701 -0.029033501 0
