# .PCD v0.7 - Point Cloud Data file format
VERSION 0.7
FIELDS x y z
SIZE 4 4 4
TYPE F F F
COUNT 1 1 1
WIDTH 263
HEIGHT 1
VIEWPOINT 0 0 0 1 0 0 0
POINTS 263
DATA ascii
-34.080299 -2.4740601 310.36401
-34.084805 -2.4725292 310.36554
-34.080772 -2.4754834 310.36557
-34.076317 -2.477756 310.36554
-34.071789 -2.4798715 310.3656
-34.067036 -2.4814267 310.36554
-34.062267 -2.4829283 310.36557
-34.057407 -2.484108 310.3656
-34.052521 -2.485152 310.3656
-34.047619 -2.4851835 310.36462
-34.042702 -2.485477 310.36374
-34.037785 -2.4860234 310.36301
-34.032871 -2.4865441 310.36227
-34.02792 -2.4869766 310.36172
-34.022957 -2.487344 310.36121
-34.018032 -2.4872651 310.36035
-34.013107 -2.4872098 310.3595
-34.008167 -2.4872313 310.35873
-34.003246 -2.4871764 310.35785
-33.998329 -2.4871259 310.35696
-33.993404 -2.4870729 310.35608
-33.988476 -2.4870186 310.35526
-33.983547 -2.4869328 310.3544
-33.978607 -2.486856 310.35364
-33.973663 -2.4867918 310.35287
-33.968712 -2.486742 310.35217
-33.963795 -2.4865646 310.35132
-33.958855 -2.4865294 310.35052
-33.953918 -2.4864957 310.34973
-33.948982 -2.4864612 310.34894
-33.944054 -2.4864259 310.34811
-33.939125 -2.4863951 310.34726
-33.934204 -2.4863288 310.34637
-33.929279 -2.4863181 310.34552
-33.924351 -2.4863315 310.34467
-33.919426 -2.4863045 310.34381
-33.914501 -2.4862819 310.34293
-33.909584 -2.4862697 310.34204
-33.904663 -2.486316 310.34116
-33.899738 -2.4864345 310.3403
-33.89481 -2.4865627 310.33945
-33.8899 -2.4866698 310.33853
-33.884991 -2.4867952 310.33759
-33.880085 -2.4869075 310.33661
-33.875183 -2.4870119 310.33563
-33.870289 -2.4871163 310.33463
-33.865391 -2.4872336 310.33362
-33.860493 -2.4873812 310.33264
-33.855591 -2.4875591 310.33167
-33.850704 -2.4876719 310.3306
-33.845814 -2.4878144 310.32956
-33.840923 -2.4879982 310.32855
-33.83604 -2.4880919 310.32748
-33.831161 -2.4881921 310.32642
-33.826275 -2.4883101 310.32535
-33.821388 -2.4884686 310.32428
-33.816517 -2.4885807 310.32318
-33.811642 -2.4887235 310.32208
-33.806786 -2.4888046 310.32089
-33.801926 -2.4888952 310.3197
-33.797062 -2.4890127 310.31857
-33.792213 -2.4891002 310.31735
-33.787369 -2.4891777 310.3161
-33.782532 -2.489254 310.31485
-33.777691 -2.4893398 310.3136
-33.772846 -2.489439 310.31235
-33.768013 -2.4895127 310.31107
-33.763184 -2.4895816 310.30978
-33.75835 -2.4896579 310.3085
-33.753525 -2.4897227 310.30722
-33.748699 -2.4897923 310.30591
-33.743874 -2.4898746 310.3046
-33.739056 -2.4899426 310.30325
-33.734241 -2.4900064 310.30191
-33.729427 -2.4900739 310.30057
-33.724613 -2.4901438 310.29919
-33.719795 -2.4902372 310.29788
-33.714989 -2.4903176 310.29651
-33.71019 -2.490381 310.2951
-33.705395 -2.4904182 310.29367
-33.700607 -2.490406 310.29224
-33.695835 -2.4903159 310.29077
-33.691067 -2.4901779 310.28925
-33.686302 -2.4900146 310.28775
-33.681561 -2.4897335 310.28619
-33.676849 -2.4893379 310.28455
-33.672157 -2.488884 310.2829
-33.667465 -2.488416 310.28122
-33.662785 -2.4879081 310.27954
-33.658115 -2.4873536 310.27783
-33.653481 -2.4866977 310.27609
-33.648853 -2.4860098 310.27432
-33.644264 -2.4852145 310.27249
-33.639694 -2.4843686 310.27066
-33.635147 -2.4834671 310.26877
-33.630623 -2.4825118 310.26688
-33.626129 -2.481468 310.26495
-33.621662 -2.4803715 310.263
-33.617207 -2.4792495 310.26102
-33.612759 -2.4781053 310.25906
-33.608341 -2.4768963 310.25705
-33.603951 -2.4756246 310.255
-33.599609 -2.4742658 310.25293
-33.59531 -2.4728107 310.25082
-33.591038 -2.4713125 310.24872
-33.586781 -2.4697886 310.24658
-33.582554 -2.4682071 310.24445
-33.578346 -2.4665928 310.24225
-33.574196 -2.4648907 310.24005
-33.570061 -2.4631627 310.23785
-33.565968 -2.4613738 310.2356
-33.561939 -2.4594963 310.23331
-33.557949 -2.4575686 310.23099
-33.55397 -2.4556282 310.22867
-33.550014 -2.4536564 310.22632
-33.546108 -2.4516056 310.22397
-33.542213 -2.4495454 310.22162
-33.538364 -2.4474266 310.21921
-33.53458 -2.4452255 310.2168
-33.530796 -2.4430184 310.21439
-33.527061 -2.440748 310.21198
-33.52335 -2.4384534 310.20953
-33.519711 -2.4360731 310.20706
-33.516106 -2.4336627 310.20456
-33.512535 -2.431217 310.20206
-33.509045 -2.4286902 310.19952
-33.505623 -2.4261026 310.19696
-33.502304 -2.4234216 310.19437
-33.499027 -2.4207072 310.19174
-33.495777 -2.4179704 310.18909
-33.492622 -2.4151604 310.18643
-33.489487 -2.4123387 310.18375
-33.486416 -2.4094658 310.18103
-33.483398 -2.4065571 310.17831
-33.480427 -2.4036138 310.17557
-33.477509 -2.4006407 310.17279
-33.474644 -2.3976347 310.17001
-33.471828 -2.3946044 310.16721
-33.469032 -2.3915634 310.1644
-33.466312 -2.3884814 310.16153
-33.463627 -2.3853855 310.15869
-33.46096 -2.3822792 310.15582
-33.458435 -2.3791103 310.15289
-33.456005 -2.3758974 310.1499
-33.453587 -2.3726802 310.14694
-33.451267 -2.3694143 310.14395
-33.449017 -2.3661149 310.14096
-33.446789 -2.3628066 310.13794
-33.444645 -2.3594589 310.13489
-33.442513 -2.3561084 310.13187
-33.440434 -2.3527317 310.12881
-33.43845 -2.3493116 310.12576
-33.436489 -2.3458843 310.12268
-33.434559 -2.3424394 310.11963
-33.432667 -2.3389773 310.11655
-33.430805 -2.3354995 310.11346
-33.429005 -2.3320014 310.11038
-33.427219 -2.328496 310.1073
-33.425526 -2.3249655 310.10419
-33.423901 -2.3214152 310.10107
-33.422321 -2.3178468 310.09796
-33.420753 -2.3142741 310.09482
-33.419281 -2.3106742 310.09167
-33.417885 -2.30704 310.08853
-33.416496 -2.3034043 310.08539
-33.415188 -2.2997348 310.08228
-33.413944 -2.296021 310.07916
-33.412697 -2.292309 310.07605
-33.411465 -2.288578 310.07297
-33.410252 -2.2848251 310.06989
-33.409039 -2.2810748 310.0668
-33.407841 -2.2772982 310.06375
-33.406662 -2.2735038 310.06073
-33.405476 -2.2697158 310.05768
-33.404285 -2.265939 310.05463
-33.403103 -2.2621486 310.05161
-33.401947 -2.258332 310.04858
-33.400787 -2.2545176 310.04556
-33.399632 -2.2506988 310.04254
-33.398518 -2.2468414 310.03955
-33.397411 -2.24298 310.03659
-33.396324 -2.2391012 310.03363
-33.395237 -2.2352278 310.03067
-33.394131 -2.2313743 310.02768
-33.393078 -2.2274704 310.02472
-33.392021 -2.223572 310.02179
-33.390976 -2.2196679 310.01883
-33.389961 -2.2157395 310.01593
-33.388939 -2.2118206 310.01297
-33.387955 -2.2078738 310.01007
-33.38699 -2.2039063 310.0072
-33.386017 -2.1999493 310.0043
-33.38504 -2.196002 310.00137
-33.384102 -2.1920302 309.9985
-33.38319 -2.1880453 309.99561
-33.382301 -2.1840458 309.99274
-33.381458 -2.1800089 309.98993
-33.380596 -2.1759906 309.98706
-33.379753 -2.1719546 309.98425
-33.378922 -2.1679122 309.98141
-33.378117 -2.1638508 309.97861
-33.377335 -2.1597717 309.97583
-33.376575 -2.1556747 309.97308
-33.375774 -2.1516225 309.97025
-33.375015 -2.1475427 309.96747
-33.374256 -2.1434619 309.96469
-33.373596 -2.1393235 309.96194
-33.37291 -2.135205 309.9592
-33.372234 -2.1310816 309.95645
-33.371624 -2.1269245 309.95374
-33.371025 -2.1227651 309.95105
-33.370449 -2.1185899 309.94833
-33.36998 -2.1143425 309.94574
-33.369495 -2.1101189 309.94312
-33.36903 -2.1058757 309.94052
-33.368526 -2.1016712 309.93787
-33.368023 -2.0974662 309.93521
-33.3675 -2.0932741 309.93253
-33.367016 -2.0890598 309.92987
-33.366646 -2.0847771 309.92731
-33.366268 -2.0805054 309.92474
-33.365925 -2.0762036 309.92221
-33.36554 -2.0719504 309.91962
-33.365234 -2.0676513 309.91708
-33.365025 -2.0633097 309.91461
-33.364826 -2.0589719 309.91214
-33.364609 -2.0546494 309.90964
-33.364391 -2.0503333 309.90714
-33.3643 -2.0459487 309.90472
-33.364307 -2.0415211 309.9024
-33.364292 -2.0371315 309.89999
-33.364246 -2.0327721 309.89755
-33.364243 -2.0284059 309.89511
-33.364361 -2.023994 309.89276
-33.364628 -2.0195312 309.89053
-33.364918 -2.0150697 309.88831
-33.365196 -2.0106332 309.88602
-33.365471 -2.0062065 309.8837
-33.365948 -2.0017197 309.88153
-33.366623 -1.9971696 309.87958
-33.367298 -1.9926625 309.87753
-33.367973 -1.9881707 309.87543
-33.368698 -1.9836919 309.87332
-33.369667 -1.9791907 309.87137
-33.370991 -1.974674 309.86969
-33.372284 -1.9701788 309.86792
-33.373695 -1.9657362 309.86612
-33.375462 -1.9613124 309.86459
-33.377773 -1.9570231 309.86346
-33.380245 -1.9528446 309.86227
-33.382835 -1.9487504 309.86105
-33.386032 -1.9449681 309.86035
-33.389343 -1.9412901 309.85965
-33.393162 -1.9380628 309.85968
-33.39727 -1.9352601 309.8602
-33.401852 -1.9333578 309.86081
-33.406483 -1.9317368 309.86179
-33.411095 -1.9309613 309.86356
-33.415668 -1.9308194 309.86557
-33.419884 -1.9316773 309.8681
-33.424114 -1.9325324 309.87064
-33.428329 -1.9335713 309.87311
-33.432419 -1.9348656 309.8757
