# .PCD v0.7 - Point Cloud Data file format
# 6 93 0
# 1 4 0
# 5 15 0
# 16 38 0
# 39 58 0
# 59 73 0
# 74 93 0
VERSION 0.7
FIELDS x y z normal_x normal_y normal_z curvature
SIZE 4 4 4 4 4 4 4
TYPE F F F F F F F
COUNT 1 1 1 1 1 1 1
WIDTH 93
HEIGHT 1
VIEWPOINT 0 0 0 1 0 0 0
POINTS 93
DATA ascii
55.8845 -13.4979 406.838 0.5674 0.225834 0.791869 1.83335e+24
56.0163 -11.8024 406.249 0.573575 0.254664 0.778561 1.83335e+24
56.1987 -10.2671 405.327 0.576828 0.283426 0.766119 1.83335e+24
56.0933 -8.55657 404.776 0.575766 0.313401 0.755164 1.83335e+24
55.9936 -6.87848 404.133 0.57157 0.344625 0.744676 1.83335e+24
55.7866 -5.18628 403.555 0.564172 0.377281 0.734418 1.83335e+24
55.3817 -3.49763 403.082 0.554184 0.411429 0.723606 1.83335e+24
54.9974 -1.86283 402.434 0.542023 0.446376 0.712011 1.83335e+24
54.4613 -0.252079 401.835 0.529309 0.468262 0.707505 1.83335e+24
53.758 1.28916 401.227 0.518708 0.475931 0.710233 1.83335e+24
53.0152 2.81828 400.635 0.509671 0.48269 0.712212 1.83335e+24
52.2101 4.34807 400.134 0.502171 0.48909 0.713173 1.83335e+24
51.1378 5.79377 400.129 0.49848 0.496638 0.710541 1.83335e+24
50.0884 7.21908 399.801 0.493805 0.503554 0.708935 1.83335e+24
48.8813 8.54999 399.908 0.491868 0.511834 0.704338 1.83335e+24
47.6558 9.81486 399.536 0.487587 0.520538 0.700927 1.83335e+24
46.3302 11.0325 399.537 0.479606 0.533058 0.697013 1.83335e+24
44.9075 12.1352 399.547 0.4494 0.55343 0.701253 1.83335e+24
43.4498 13.191 399.568 0.419595 0.573085 0.703927 1.83335e+24
41.9524 14.1887 399.521 0.390523 0.591686 0.705265 1.83335e+24
40.3788 15.0472 399.685 0.362393 0.608939 0.705595 1.83335e+24
40.0995 15.1089 400.127 0.358095 0.611166 0.705864 1.83335e+24
38.4454 15.8157 400.194 0.33112 0.626248 0.705814 1.83335e+24
36.7756 16.406 400.516 0.305495 0.638926 0.706008 1.83335e+24
35.0705 16.9307 400.755 0.280612 0.649887 0.706331 1.83335e+24
33.3825 17.2604 401.286 0.257178 0.657632 0.708082 1.83335e+24
31.617 17.5316 401.508 0.23259 0.664183 0.710467 1.83335e+24
29.9149 17.6396 402.084 0.207892 0.666788 0.715664 1.83335e+24
28.1568 17.7112 402.463 0.181775 0.667628 0.721963 1.83335e+24
26.3588 17.6885 402.545 0.154996 0.666644 0.729083 1.83335e+24
24.7729 17.3867 403.341 0.126369 0.661135 0.739548 1.83335e+24
23.2412 16.9802 404.195 0.0957265 0.65386 0.750536 1.83335e+24
21.5087 16.6114 404.515 0.0622699 0.645631 0.761106 1.83335e+24
19.8481 16.148 405.032 0.0266088 0.635408 0.771718 1.83335e+24
18.3183 15.4601 405.685 0.0144673 0.624195 0.781134 1.83335e+24
16.7023 14.7983 406.122 0.00319886 0.613336 0.789815 1.83335e+24
15.2542 13.9313 406.747 -0.00991784 0.603403 0.797375 1.83335e+24
13.9297 12.9667 407.493 -0.0242344 0.594185 0.803963 1.83335e+24
12.7665 11.9257 408.389 -0.03983 0.585764 0.809503 1.83335e+24
11.3693 10.8257 408.668 -0.055513 0.575495 0.815919 1.83335e+24
10.3355 9.55237 409.409 -0.0742057 0.566757 0.820536 1.83335e+24
9.31047 8.23972 410.092 -0.0948521 0.557225 0.824927 1.83335e+24
8.6059 6.88087 411.039 -0.116708 0.549478 0.827317 1.83335e+24
7.76143 5.4889 411.807 -0.142313 0.526887 0.837936 1.83335e+24
7.03392 4.01371 412.538 -0.167587 0.495143 0.852495 1.83335e+24
6.45229 2.49296 413.306 -0.189535 0.46449 0.865058 1.83335e+24
5.81715 0.8941 413.835 -0.209375 0.4345 0.875998 1.83335e+24
5.47249 -0.66861 414.659 -0.222317 0.406158 0.886347 1.83335e+24
5.43262 -2.12633 415.714 -0.22728 0.3794 0.896883 1.83335e+24
4.76662 -3.79583 415.618 -0.237791 0.354405 0.904352 1.83335e+24
4.83342 -5.45243 416.319 -0.235187 0.326216 0.915571 1.83335e+24
5.17563 -7.03478 417.106 -0.226396 0.296316 0.927869 1.83335e+24
5.28703 -8.74901 417.644 -0.216902 0.264279 0.93974 1.83335e+24
5.63476 -10.4143 418.232 -0.203091 0.244285 0.948198 1.83335e+24
5.97618 -12.1302 418.655 -0.189403 0.226211 0.955487 1.83335e+24
6.5871 -13.7362 419.191 -0.174818 0.2064 0.962724 1.83335e+24
7.09102 -15.4386 419.487 -0.160745 0.186422 0.96923 1.83335e+24
7.80736 -17.0549 419.826 -0.14632 0.164779 0.975417 1.83335e+24
8.69605 -18.5872 420.146 -0.132029 0.141707 0.981064 1.83335e+24
9.83609 -19.9227 420.542 -0.118598 0.117405 0.985977 1.83335e+24
10.9632 -21.2969 420.826 -0.105054 0.0915924 0.99024 1.83335e+24
12.277 -22.4943 421.11 -0.0925901 0.0647163 0.993599 1.83335e+24
13.4813 -23.8306 421.17 -0.0789169 0.0353587 0.996254 1.83335e+24
14.9154 -24.9072 421.327 -0.0670677 0.00520008 0.997735 1.83335e+24
16.2991 -26.0578 421.365 -0.0542272 -0.0278228 0.998141 1.83335e+24
17.8926 -26.8509 421.633 -0.0224939 -0.0559929 0.998178 1.83335e+24
19.3873 -27.8522 421.577 0.0116261 -0.0687775 0.997564 1.83335e+24
21.0286 -28.5912 421.569 0.0421643 -0.0810845 0.995815 1.83335e+24
22.5478 -29.4751 421.18 0.0708893 -0.0874625 0.993642 1.83335e+24
24.3042 -29.8683 421.164 0.0966951 -0.0967959 0.990596 1.83335e+24
25.8709 -30.6484 420.743 0.122142 -0.0982584 0.987637 1.83335e+24
27.6669 -30.7353 420.659 0.145733 -0.105006 0.983736 1.83335e+24
29.4519 -30.8831 420.481 0.169951 -0.108359 0.979477 1.83335e+24
31.1578 -31.211 420.009 0.196094 -0.107296 0.974697 1.83335e+24
32.9398 -31.0212 419.84 0.223293 -0.10999 0.968526 1.83335e+24
34.6482 -31.1634 419.292 0.252097 -0.106761 0.961795 1.83335e+24
36.3579 -31.1516 418.729 0.282534 -0.102866 0.953726 1.83335e+24
38.0574 -30.6455 418.419 0.314772 -0.102165 0.943653 1.83335e+24
39.6239 -30.6879 417.534 0.347799 -0.0928082 0.932965 1.83335e+24
41.2177 -30.0567 416.985 0.385955 -0.0822942 0.91884 1.83335e+24
42.7741 -29.5344 416.247 0.427951 -0.0583831 0.901914 1.83335e+24
44.2376 -28.5893 415.794 0.454209 -0.0311929 0.890349 1.83335e+24
45.6964 -27.9577 414.95 0.462833 -0.0048221 0.886433 1.83335e+24
46.9432 -26.782 414.399 0.474972 0.0191795 0.879792 1.83335e+24
48.2338 -25.7644 413.665 0.483502 0.04154 0.874357 1.83335e+24
49.4156 -24.5932 412.978 0.491971 0.0620753 0.868396 1.83335e+24
50.5055 -23.4021 412.182 0.499664 0.0813117 0.862394 1.83335e+24
51.5745 -22.2014 411.373 0.506957 0.0995957 0.856198 1.83335e+24
52.4422 -20.7345 410.794 0.516093 0.116209 0.848612 1.83335e+24
53.267 -19.2561 410.182 0.52537 0.132242 0.840535 1.83335e+24
54.0989 -17.8675 409.395 0.534711 0.14824 0.831931 1.83335e+24
54.8666 -16.5119 408.493 0.545156 0.165314 0.821874 1.83335e+24
55.486 -15.0863 407.585 0.557489 0.196291 0.806645 1.83335e+24
