# .PCD v0.7 - Point Cloud Data file format
# 5 151 0
# 1 22 0
# 23 40 0
# 41 87 0
# 88 118 0
# 119 151 0
VERSION 0.7
FIELDS x y z normal_x normal_y normal_z curvature
SIZE 4 4 4 4 4 4 4
TYPE F F F F F F F
COUNT 1 1 1 1 1 1 1
WIDTH 151
HEIGHT 1
VIEWPOINT 0 0 0 1 0 0 0
POINTS 151
DATA ascii
-41.5272 12.1694 387.064 0.416149 -0.257976 -0.871934 1.83335e+24
-40.9687 13.8757 386.934 0.445664 -0.234827 -0.863852 1.83335e+24
-40.4604 15.5887 386.717 0.450087 -0.238599 -0.860518 1.83335e+24
-39.8405 17.2667 386.517 0.451476 -0.246451 -0.857573 1.83335e+24
-39.3387 18.9851 386.329 0.453801 -0.257566 -0.853068 1.83335e+24
-38.5203 20.584 386.211 0.451913 -0.26839 -0.85073 1.83335e+24
-37.9503 22.2791 386.008 0.453493 -0.283323 -0.845028 1.83335e+24
-37.1995 23.9069 385.844 0.450671 -0.284452 -0.846158 1.83335e+24
-36.308 25.4687 385.767 0.446529 -0.283022 -0.848829 1.83335e+24
-35.9103 27.1955 385.451 0.449173 -0.283509 -0.84727 1.83335e+24
-35.5497 28.9258 385.11 0.452117 -0.284582 -0.845342 1.83335e+24
-34.8237 30.5627 384.927 0.452102 -0.285078 -0.845183 1.83335e+24
-34.7514 32.2856 384.411 0.456391 -0.287967 -0.841892 1.83335e+24
-34.5961 34.0193 383.953 0.458605 -0.290856 -0.839693 1.83335e+24
-33.7405 35.5922 383.769 0.45773 -0.292389 -0.839638 1.83335e+24
-33.8904 37.2712 383.138 0.459471 -0.294731 -0.837866 1.83335e+24
-34.398 38.9004 382.565 0.460322 -0.296844 -0.836652 1.83335e+24
-33.9857 40.5738 382.045 0.459822 -0.299068 -0.836135 1.83335e+24
-33.7272 42.2974 381.595 0.458908 -0.301503 -0.835763 1.83335e+24
-33.1022 43.9218 381.136 0.45745 -0.304392 -0.835515 1.83335e+24
-33.2 45.6055 380.507 0.455195 -0.306897 -0.83583 1.83335e+24
-33.1253 47.3128 379.942 0.452024 -0.312283 -0.835556 1.83335e+24
-33.4526 48.955 379.282 0.448015 -0.317011 -0.835934 1.83335e+24
-33.1807 50.6062 378.619 0.441965 -0.323383 -0.836714 1.83335e+24
-33.6733 52.2017 377.947 0.436947 -0.326574 -0.838109 1.83335e+24
-33.7364 53.8269 377.176 0.430085 -0.331142 -0.839864 1.83335e+24
-33.9822 55.3949 376.327 0.42409 -0.334213 -0.841694 1.83335e+24
-34.4944 56.9093 375.499 0.4206 -0.335727 -0.842842 1.83335e+24
-34.9567 58.4313 374.657 0.417952 -0.34277 -0.841323 1.83335e+24
-35.3346 59.987 373.834 0.4148 -0.350188 -0.839827 1.83335e+24
-35.5767 61.5731 373.018 0.409966 -0.358321 -0.838769 1.83335e+24
-36.4416 62.8798 372.133 0.413298 -0.36054 -0.836179 1.83335e+24
-36.154 64.4934 371.388 0.401117 -0.371818 -0.837172 1.83335e+24
-36.3166 66.1024 370.598 0.392588 -0.380217 -0.837442 1.83335e+24
-36.8655 66.8999 370.013 0.394526 -0.38016 -0.836557 1.83335e+24
-37.0032 68.4892 369.18 0.383665 -0.392478 -0.83592 1.83335e+24
-36.8931 70.131 368.45 0.366038 -0.410833 -0.835004 1.83335e+24
-36.6275 71.7701 367.755 0.343255 -0.432027 -0.833984 1.83335e+24
-36.6835 73.3463 366.887 0.324123 -0.449637 -0.832329 1.83335e+24
-37.0493 74.9093 366.073 0.307838 -0.463427 -0.830946 1.83335e+24
-36.4161 76.3784 365.248 0.27603 -0.490426 -0.826614 1.83335e+24
-35.8311 77.9132 364.512 0.245066 -0.517198 -0.82003 1.83335e+24
-36.1414 79.4024 363.549 0.225432 -0.528477 -0.81847 1.83335e+24
-35.7556 80.8715 362.584 0.197528 -0.549047 -0.812114 1.83335e+24
-35.2052 82.3266 361.678 0.169841 -0.571743 -0.802661 1.83335e+24
-34.5749 83.7528 360.779 0.143685 -0.595234 -0.790602 1.83335e+24
-34.1505 85.1854 359.775 0.119094 -0.617208 -0.777735 1.83335e+24
-33.5565 86.5207 358.724 0.0959552 -0.640594 -0.761861 1.83335e+24
-32.9869 87.8626 357.668 0.0754384 -0.666502 -0.741677 1.83335e+24
-32.0834 89.0522 356.664 0.0567591 -0.689387 -0.722166 1.83335e+24
-31.2417 90.2022 355.565 0.0368712 -0.708754 -0.704492 1.83335e+24
-30.6118 91.3665 354.345 0.0154201 -0.725011 -0.688564 1.83335e+24
-29.909 92.5002 353.136 -0.00838433 -0.739771 -0.672806 1.83335e+24
-29.205 93.5846 351.884 -0.0268922 -0.753084 -0.657374 1.83335e+24
-28.3938 94.6323 350.666 -0.0393931 -0.765308 -0.642458 1.83335e+24
-27.4172 95.543 349.459 -0.0433715 -0.776087 -0.629132 1.83335e+24
-25.622 95.4436 349.544 -0.0361608 -0.776479 -0.629105 1.83335e+24
-23.8705 95.6628 349.192 -0.0298883 -0.773447 -0.633156 1.83335e+24
-22.233 95.076 349.655 -0.0470212 -0.764983 -0.642332 1.83335e+24
-20.4701 94.757 349.83 -0.0592045 -0.76201 -0.644853 1.83335e+24
-18.8345 94.318 350.44 -0.0660955 -0.760636 -0.645805 1.83335e+24
-17.0378 94.2382 350.367 -0.0730656 -0.764984 -0.639892 1.83335e+24
-15.2827 93.8403 350.405 -0.10806 -0.76673 -0.63281 1.83335e+24
-13.5238 93.4694 350.497 -0.143557 -0.766874 -0.625536 1.83335e+24
-11.7966 92.9861 350.65 -0.176409 -0.765577 -0.618685 1.83335e+24
-10.1152 92.3904 350.891 -0.2057 -0.763549 -0.612112 1.83335e+24
-8.37613 91.9266 350.913 -0.215939 -0.764765 -0.607046 1.83335e+24
-6.65556 91.3979 350.904 -0.227965 -0.760257 -0.60831 1.83335e+24
-4.90882 91.1753 350.53 -0.241875 -0.752083 -0.613081 1.83335e+24
-3.31598 90.3897 350.823 -0.265415 -0.734745 -0.624263 1.83335e+24
-1.57159 90.4417 350.382 -0.234629 -0.726986 -0.645322 1.83335e+24
0.117577 89.8216 350.335 -0.195445 -0.717607 -0.668462 1.83335e+24
1.85776 89.3615 350.327 -0.148858 -0.70589 -0.692504 1.83335e+24
3.5836 89.1057 350.77 -0.101204 -0.690323 -0.716388 1.83335e+24
4.16455 87.7334 351.779 -0.116161 -0.682543 -0.721555 1.83335e+24
5.18534 86.6538 352.795 -0.111344 -0.670456 -0.733547 1.83335e+24
5.94102 85.3705 353.806 -0.112621 -0.660414 -0.742408 1.83335e+24
6.48493 83.9595 354.783 -0.120926 -0.651091 -0.749305 1.83335e+24
7.15128 82.6268 355.793 -0.122771 -0.639326 -0.759072 1.83335e+24
8.08428 81.4495 356.784 -0.107133 -0.625845 -0.772554 1.83335e+24
8.87909 80.1737 357.775 -0.0974977 -0.613114 -0.783955 1.83335e+24
9.02819 78.5983 358.633 -0.122105 -0.605999 -0.786038 1.83335e+24
9.63894 77.2016 359.59 -0.127891 -0.592357 -0.79546 1.83335e+24
10.3775 75.8679 360.547 -0.12346 -0.575138 -0.808687 1.83335e+24
11.3146 74.6728 361.513 -0.0953286 -0.555914 -0.825755 1.83335e+24
11.6928 73.1441 362.385 -0.104851 -0.545181 -0.831736 1.83335e+24
11.7422 71.5248 363.169 -0.130924 -0.540921 -0.830821 1.83335e+24
12.6831 70.2906 364.081 -0.0984068 -0.529637 -0.842497 1.83335e+24
13.1589 68.8001 364.971 -0.0963825 -0.522471 -0.847192 1.83335e+24
13.135 67.1728 365.74 -0.121894 -0.519132 -0.845957 1.83335e+24
13.9603 65.8857 366.69 -0.103418 -0.50779 -0.855251 1.83335e+24
14.2761 64.3335 367.545 -0.116408 -0.499077 -0.858703 1.83335e+24
14.4393 62.7293 368.345 -0.138096 -0.485748 -0.863121 1.83335e+24
14.4655 61.1336 369.177 -0.163587 -0.473464 -0.865489 1.83335e+24
13.8413 59.5801 369.838 -0.20889 -0.466814 -0.859331 1.83335e+24
14.6027 58.0864 370.493 -0.197666 -0.451701 -0.869997 1.83335e+24
15.1449 56.5998 371.351 -0.196886 -0.439661 -0.876318 1.83335e+24
15.0235 54.961 372.086 -0.215426 -0.432026 -0.875754 1.83335e+24
15.5888 53.4651 372.912 -0.209444 -0.424109 -0.881059 1.83335e+24
15.895 51.8823 373.713 -0.210116 -0.408769 -0.888121 1.83335e+24
15.5297 50.2119 374.275 -0.228199 -0.39473 -0.890007 1.83335e+24
15.9344 48.6343 375.041 -0.224903 -0.379823 -0.897303 1.83335e+24
15.6288 46.9491 375.596 -0.23885 -0.365874 -0.899493 1.83335e+24
15.8565 45.3227 376.332 -0.238614 -0.351811 -0.905148 1.83335e+24
15.7051 43.6392 376.951 -0.245986 -0.338098 -0.908394 1.83335e+24
15.1536 42.0201 377.512 -0.260834 -0.324663 -0.909153 1.83335e+24
15.3084 40.3254 378.098 -0.257128 -0.313437 -0.914135 1.83335e+24
15.5442 38.6516 378.717 -0.250364 -0.303005 -0.919514 1.83335e+24
15.4024 36.9502 379.287 -0.250029 -0.291624 -0.923277 1.83335e+24
15.213 35.2463 379.836 -0.248814 -0.279988 -0.927199 1.83335e+24
15.0221 33.5438 380.388 -0.245962 -0.268155 -0.931448 1.83335e+24
14.6144 31.876 380.929 -0.246445 -0.254886 -0.935039 1.83335e+24
14.8087 30.1653 381.454 -0.232249 -0.246097 -0.941009 1.83335e+24
14.4226 28.4638 381.896 -0.229106 -0.233957 -0.944867 1.83335e+24
14.0277 26.7704 382.362 -0.225085 -0.220685 -0.949018 1.83335e+24
13.651 25.0647 382.796 -0.219475 -0.206602 -0.953492 1.83335e+24
13.6475 23.3302 383.277 -0.203873 -0.194989 -0.959383 1.83335e+24
13.627 21.6169 383.828 -0.188129 -0.182334 -0.965071 1.83335e+24
12.9394 19.968 384.048 -0.188974 -0.167053 -0.967668 1.83335e+24
12.242 18.3416 384.378 -0.192225 -0.161131 -0.968032 1.83335e+24
11.268 16.8526 384.65 -0.206348 -0.153602 -0.966347 1.83335e+24
9.53936 17.0268 385.121 -0.263068 -0.135178 -0.95526 1.83335e+24
7.8701 17.4626 385.634 -0.325958 -0.115691 -0.938279 1.83335e+24
6.1602 17.3473 386.184 -0.344639 -0.103497 -0.933012 1.83335e+24
4.58424 16.7928 386.854 -0.332265 -0.0988715 -0.937989 1.83335e+24
2.96315 16.5016 387.58 -0.322192 -0.0954368 -0.941851 1.83335e+24
1.28439 17.0507 387.927 -0.314483 -0.0952155 -0.944476 1.83335e+24
-0.386577 16.7184 388.508 -0.284559 -0.0955725 -0.953883 1.83335e+24
-2.11092 16.782 389.021 -0.241276 -0.0978447 -0.965511 1.83335e+24
-3.85101 16.6058 389.446 -0.198326 -0.099023 -0.975121 1.83335e+24
-5.60538 16.8814 389.74 -0.155469 -0.103523 -0.982401 1.83335e+24
-7.38873 16.8322 389.979 -0.141487 -0.105564 -0.984296 1.83335e+24
-9.17385 16.8482 390.209 -0.138309 -0.105888 -0.984712 1.83335e+24
-10.9222 16.6768 390.602 -0.134054 -0.103364 -0.985569 1.83335e+24
-12.7146 16.5548 390.713 -0.128614 -0.0991685 -0.986724 1.83335e+24
-14.2856 15.8033 391.168 -0.101528 -0.091979 -0.990572 1.83335e+24
-16.0776 15.6335 391.164 -0.0640667 -0.0907496 -0.993811 1.83335e+24
-17.8762 15.5965 391.223 -0.027448 -0.0941269 -0.995182 1.83335e+24
-19.6717 15.6991 391.298 0.00894345 -0.102991 -0.994642 1.83335e+24
-21.3689 15.1013 391.252 0.0324928 -0.110543 -0.99334 1.83335e+24
-23.1607 14.9409 391.19 0.0571576 -0.119506 -0.991187 1.83335e+24
-24.8394 14.2916 391.171 0.0798208 -0.122367 -0.98927 1.83335e+24
-26.4132 13.4181 391.165 0.103405 -0.120478 -0.987316 1.83335e+24
-28.1959 13.2851 390.955 0.133094 -0.118984 -0.983935 1.83335e+24
-29.9748 13.1756 390.703 0.163723 -0.120734 -0.97909 1.83335e+24
-31.6794 12.6658 390.43 0.192789 -0.125292 -0.973208 1.83335e+24
-33.4375 12.466 390.1 0.226511 -0.139302 -0.963996 1.83335e+24
-35.1396 12.0575 389.68 0.272836 -0.158127 -0.948976 1.83335e+24
-36.7208 11.3364 389.211 0.323239 -0.175454 -0.92991 1.83335e+24
-38.4376 11.2907 388.672 0.369128 -0.199046 -0.907813 1.83335e+24
-40.0282 11.6251 387.899 0.403465 -0.226943 -0.886404 1.83335e+24
