# .PCD v0.7 - Point Cloud Data file format
# 5 161 0
# 1 4 0
# 5 36 0
# 37 89 0
# 90 106 0
# 107 161 0
VERSION 0.7
FIELDS x y z normal_x normal_y normal_z curvature
SIZE 4 4 4 4 4 4 4
TYPE F F F F F F F
COUNT 1 1 1 1 1 1 1
WIDTH 161
HEIGHT 1
VIEWPOINT 0 0 0 1 0 0 0
POINTS 161
DATA ascii
43.9109 16.7346 446.027 -0.248083 0.186053 0.950705 1.83335e+24
44.0206 18.4975 445.68 -0.243121 0.207105 0.947628 1.83335e+24
44.0996 20.2353 445.218 -0.235442 0.229682 0.944359 1.83335e+24
43.9758 21.9715 444.759 -0.227149 0.251433 0.940843 1.83335e+24
43.7199 23.7076 444.359 -0.228315 0.264896 0.936858 1.83335e+24
43.4512 25.4069 443.829 -0.230977 0.275952 0.933006 1.83335e+24
43.3832 27.1074 443.243 -0.233305 0.285841 0.929443 1.83335e+24
43.358 28.8138 442.671 -0.234838 0.295418 0.926056 1.83335e+24
43.2184 30.5034 442.066 -0.235992 0.305382 0.922524 1.83335e+24
43.1125 32.1764 441.41 -0.237428 0.318211 0.917807 1.83335e+24
42.6591 33.803 440.787 -0.243592 0.335993 0.90982 1.83335e+24
42.568 35.4597 440.089 -0.244661 0.354935 0.902309 1.83335e+24
42.3709 37.0985 439.371 -0.245051 0.373914 0.894505 1.83335e+24
41.9933 38.7136 438.672 -0.246199 0.391706 0.886539 1.83335e+24
42.04 40.3077 437.837 -0.253476 0.40375 0.879054 1.83335e+24
41.8036 41.913 437.058 -0.262695 0.414332 0.87139 1.83335e+24
41.483 43.4907 436.253 -0.269895 0.42508 0.863981 1.83335e+24
41.4281 45.0443 435.346 -0.27695 0.437381 0.855568 1.83335e+24
41.0893 46.5923 434.492 -0.281472 0.451762 0.846572 1.83335e+24
40.8218 48.1218 433.581 -0.284714 0.466772 0.837295 1.83335e+24
40.803 49.6147 432.576 -0.287009 0.482038 0.827807 1.83335e+24
40.5699 51.1034 431.591 -0.288263 0.497486 0.818176 1.83335e+24
40.2647 52.5663 430.588 -0.28899 0.512494 0.8086 1.83335e+24
39.8638 54.0094 429.59 -0.289574 0.526761 0.799168 1.83335e+24
39.3923 55.4156 428.57 -0.290697 0.541399 0.788912 1.83335e+24
39.1885 56.8279 427.472 -0.291434 0.555798 0.778559 1.83335e+24
38.9506 58.207 426.34 -0.291768 0.569717 0.768306 1.83335e+24
38.4005 59.5335 425.255 -0.292232 0.582512 0.758472 1.83335e+24
38.1707 60.8772 424.08 -0.29152 0.595716 0.748424 1.83335e+24
37.7925 62.1832 422.9 -0.290621 0.608266 0.738615 1.83335e+24
37.5335 63.4678 421.666 -0.288544 0.621029 0.728742 1.83335e+24
37.4422 64.6834 420.342 -0.285111 0.635766 0.717296 1.83335e+24
36.7093 65.8647 419.198 -0.285443 0.647181 0.70688 1.83335e+24
36.4374 67.0406 417.863 -0.282136 0.660957 0.695367 1.83335e+24
36.1403 68.2643 416.577 -0.278463 0.674459 0.683786 1.83335e+24
35.574 69.4573 415.354 -0.277919 0.685625 0.672814 1.83335e+24
35.3351 70.6262 414.006 -0.274086 0.698296 0.661256 1.83335e+24
34.798 71.7269 412.687 -0.274956 0.708194 0.650278 1.83335e+24
34.6281 72.7973 411.25 -0.272579 0.721187 0.636859 1.83335e+24
34.3581 73.8443 409.811 -0.272918 0.733 0.623079 1.83335e+24
34.0307 74.8918 408.384 -0.275261 0.743762 0.609138 1.83335e+24
33.7083 75.88 406.914 -0.27896 0.75379 0.594964 1.83335e+24
33.3296 76.8562 405.45 -0.28448 0.762991 0.580445 1.83335e+24
32.7633 77.8278 404.045 -0.293174 0.770898 0.565478 1.83335e+24
32.2562 78.7652 402.594 -0.301303 0.778796 0.550176 1.83335e+24
31.9964 79.6465 401.046 -0.305779 0.784874 0.538954 1.83335e+24
31.5299 80.5266 399.547 -0.313281 0.789485 0.527797 1.83335e+24
31.0637 81.3656 398.024 -0.321621 0.794407 0.515245 1.83335e+24
30.6186 82.1872 396.486 -0.330166 0.799802 0.501305 1.83335e+24
30.1888 82.9541 394.915 -0.338661 0.805722 0.485922 1.83335e+24
29.787 83.6784 393.317 -0.346486 0.812312 0.469145 1.83335e+24
29.4557 84.3598 391.684 -0.353035 0.819914 0.450675 1.83335e+24
28.7549 85.0879 390.195 -0.358288 0.828196 0.430955 1.83335e+24
28.402 85.7387 388.554 -0.36164 0.83603 0.412638 1.83335e+24
28.1108 86.3091 386.872 -0.36357 0.843285 0.395838 1.83335e+24
27.7531 86.6783 385.147 -0.363274 0.850335 0.38074 1.83335e+24
27.6056 86.8848 385.192 -0.363005 0.850604 0.380395 1.83335e+24
26.9685 87.4224 383.597 -0.359607 0.857713 0.367438 1.83335e+24
26.2799 87.9332 382.014 -0.354064 0.864626 0.356455 1.83335e+24
25.8807 88.4663 380.342 -0.348391 0.871282 0.345676 1.83335e+24
24.6404 88.1207 379.084 -0.340186 0.875522 0.343125 1.83335e+24
22.9254 87.5758 379.125 -0.343901 0.873013 0.345804 1.83335e+24
21.2387 86.9488 379.169 -0.402782 0.850166 0.339094 1.83335e+24
19.6115 86.1849 379.076 -0.452787 0.826773 0.333812 1.83335e+24
18.0231 85.339 379.118 -0.495165 0.802307 0.33334 1.83335e+24
16.5466 84.3117 379.05 -0.531987 0.77682 0.336959 1.83335e+24
15.0417 83.3679 378.76 -0.565339 0.751611 0.339812 1.83335e+24
13.6093 82.2875 378.616 -0.598778 0.725099 0.340142 1.83335e+24
12.1739 81.2107 378.473 -0.631064 0.698791 0.336822 1.83335e+24
10.8607 80.052 378.057 -0.662315 0.673462 0.32831 1.83335e+24
9.60505 78.7797 377.846 -0.675924 0.661507 0.324862 1.83335e+24
8.34696 77.5638 377.423 -0.674082 0.663186 0.325265 1.83335e+24
7.0168 76.3514 377.398 -0.671904 0.66411 0.327878 1.83335e+24
5.68629 75.1414 377.323 -0.669529 0.665518 0.329874 1.83335e+24
4.32024 74.0517 376.891 -0.667496 0.668167 0.328637 1.83335e+24
3.0002 72.8599 376.614 -0.68181 0.655897 0.323936 1.83335e+24
1.72761 71.6621 376.183 -0.696404 0.641916 0.320882 1.83335e+24
0.50616 70.4737 375.603 -0.710774 0.626631 0.319584 1.83335e+24
-0.761767 69.3461 375.003 -0.724843 0.609741 0.320654 1.83335e+24
-1.93909 68.1829 374.295 -0.747307 0.582547 0.319641 1.83335e+24
-3.0451 66.9758 373.547 -0.775142 0.547244 0.315721 1.83335e+24
-4.25031 65.6804 373.216 -0.803138 0.507328 0.31239 1.83335e+24
-5.31585 64.3763 372.58 -0.828777 0.468128 0.306571 1.83335e+24
-6.24084 62.9573 371.971 -0.851391 0.429982 0.300415 1.83335e+24
-7.21838 61.5603 371.395 -0.867913 0.398098 0.29706 1.83335e+24
-8.04074 60.0483 370.868 -0.88503 0.362169 0.292499 1.83335e+24
-8.74509 58.5683 370.124 -0.90203 0.324183 0.285037 1.83335e+24
-9.29584 56.9431 369.58 -0.917842 0.285022 0.276277 1.83335e+24
-10.138 55.3878 369.246 -0.915659 0.283945 0.284507 1.83335e+24
-10.8227 54.0095 368.312 -0.91391 0.287072 0.286983 1.83335e+24
-11.22 52.2557 368.391 -0.912756 0.291076 0.286621 1.83335e+24
-11.8973 50.5892 368.326 -0.912369 0.298065 0.280608 1.83335e+24
-11.7725 49.7274 369.902 -0.906367 0.306684 0.290593 1.83335e+24
-11.4731 49.0761 371.553 -0.901499 0.312644 0.299254 1.83335e+24
-11.0231 48.5131 373.202 -0.897133 0.316904 0.307773 1.83335e+24
-10.5405 48.5301 374.936 -0.89536 0.312588 0.317207 1.83335e+24
-10.0877 47.9197 376.568 -0.89163 0.312311 0.327807 1.83335e+24
-9.61491 47.0923 378.095 -0.88788 0.313734 0.336512 1.83335e+24
-9.21657 46.8488 379.833 -0.888179 0.30694 0.341944 1.83335e+24
-8.9245 45.8365 381.293 -0.883887 0.310995 0.349321 1.83335e+24
-8.62859 44.851 382.77 -0.879871 0.314515 0.35624 1.83335e+24
-8.30408 43.5651 383.987 -0.873966 0.32241 0.36364 1.83335e+24
-7.94563 43.3495 385.737 -0.874829 0.315626 0.367497 1.83335e+24
-7.80417 42.2672 387.169 -0.869351 0.315574 0.380317 1.83335e+24
-7.53611 41.3202 388.676 -0.865314 0.312287 0.392057 1.83335e+24
-7.18944 40.4195 390.195 -0.861906 0.307628 0.403092 1.83335e+24
-6.92588 39.2674 391.553 -0.857251 0.305284 0.414636 1.83335e+24
-6.67594 38.1247 392.921 -0.852929 0.302022 0.425787 1.83335e+24
-6.2933 37.1617 394.393 -0.849878 0.296178 0.435874 1.83335e+24
-6.08495 35.9521 395.709 -0.84558 0.292439 0.446625 1.83335e+24
-6.01479 34.526 396.805 -0.839962 0.289208 0.459154 1.83335e+24
-5.64405 33.3768 398.14 -0.836033 0.282013 0.470656 1.83335e+24
-5.42884 32.0296 399.314 -0.830891 0.276696 0.482762 1.83335e+24
-4.92136 30.9026 400.623 -0.827157 0.26857 0.493641 1.83335e+24
-4.72692 29.4172 401.621 -0.820681 0.265058 0.506189 1.83335e+24
-4.51729 27.9079 402.579 -0.813433 0.262622 0.518995 1.83335e+24
-4.23412 26.5667 403.746 -0.806668 0.25864 0.531406 1.83335e+24
-3.90191 25.2549 404.933 -0.800058 0.255234 0.54292 1.83335e+24
-3.61052 23.8548 406.026 -0.792983 0.251834 0.55476 1.83335e+24
-3.24515 22.5414 407.201 -0.78759 0.244112 0.565784 1.83335e+24
-2.72421 21.2847 408.38 -0.784472 0.231772 0.575226 1.83335e+24
-2.22856 20.0207 409.562 -0.78272 0.21589 0.583731 1.83335e+24
-1.90415 18.5125 410.489 -0.7787 0.198285 0.595239 1.83335e+24
-1.53617 17.0112 411.411 -0.776595 0.17352 0.605633 1.83335e+24
-0.809778 15.9717 412.689 -0.785806 0.146167 0.600952 1.83335e+24
-0.314673 14.3806 413.369 -0.790087 0.123018 0.600523 1.83335e+24
0.252505 13.183 414.587 -0.799936 0.101226 0.591486 1.83335e+24
0.877222 11.9582 415.749 -0.8086 0.0806431 0.582806 1.83335e+24
1.61662 10.7981 416.91 -0.816403 0.0626836 0.574071 1.83335e+24
2.52357 9.98771 418.237 -0.822612 0.0523275 0.56619 1.83335e+24
3.34463 9.14092 419.597 -0.825603 0.0445261 0.562491 1.83335e+24
4.32851 7.98019 420.558 -0.825005 0.0312662 0.56426 1.83335e+24
5.1166 7.62236 422.137 -0.815165 0.030866 0.578406 1.83335e+24
6.06519 7.15532 423.593 -0.800027 0.0297374 0.599227 1.83335e+24
7.11564 6.79653 425.01 -0.779658 0.0304202 0.625466 1.83335e+24
8.23759 6.20441 426.287 -0.757036 0.0274049 0.652798 1.83335e+24
9.39779 5.80996 427.606 -0.73071 0.0266795 0.682167 1.83335e+24
10.6971 5.49825 428.812 -0.702894 0.0271111 0.710778 1.83335e+24
11.8821 5.24618 430.143 -0.675518 0.0292703 0.736763 1.83335e+24
13.1884 4.46149 431.101 -0.657762 0.0286444 0.752681 1.83335e+24
14.453 4.12729 432.338 -0.632266 0.0393969 0.773749 1.83335e+24
15.7891 3.61463 433.429 -0.606887 0.0476537 0.793358 1.83335e+24
17.1558 3.0758 434.469 -0.581048 0.0557255 0.81196 1.83335e+24
18.6616 2.86214 435.432 -0.552231 0.0667507 0.831014 1.83335e+24
20.1022 2.55181 436.466 -0.525954 0.0753143 0.847172 1.83335e+24
21.5443 2.90689 437.483 -0.499473 0.0873355 0.861916 1.83335e+24
23.112 3.05083 438.356 -0.498557 0.0752743 0.863582 1.83335e+24
24.6942 3.35139 439.159 -0.498728 0.0632988 0.864444 1.83335e+24
26.143 4.29755 439.655 -0.502158 0.0518799 0.863218 1.83335e+24
27.3151 5.53053 440.243 -0.506715 0.0415572 0.861112 1.83335e+24
28.004 6.99314 441.035 -0.502007 0.0443362 0.863727 1.83335e+24
29.4657 7.93237 441.505 -0.481209 0.0558953 0.874822 1.83335e+24
30.8862 8.91996 442.002 -0.461179 0.0677789 0.884715 1.83335e+24
32.3849 9.797 442.476 -0.441374 0.0787162 0.893864 1.83335e+24
33.3449 11.1551 443.164 -0.426366 0.0941435 0.899638 1.83335e+24
34.7002 12.0412 443.951 -0.399294 0.11165 0.909999 1.83335e+24
36.2064 12.9232 444.39 -0.369448 0.129603 0.920169 1.83335e+24
37.7177 13.7803 444.861 -0.336786 0.147164 0.93001 1.83335e+24
39.3681 14.4232 445.182 -0.300904 0.162951 0.93963 1.83335e+24
40.8977 15.1824 445.751 -0.273156 0.172238 0.946425 1.83335e+24
42.6575 15.4427 446.025 -0.257036 0.172821 0.950823 1.83335e+24
