# .PCD v0.7 - Point Cloud Data file format
# 3 154 0
# 1 72 0
# 73 146 0
# 147 154 0
VERSION 0.7
FIELDS x y z normal_x normal_y normal_z curvature
SIZE 4 4 4 4 4 4 4
TYPE F F F F F F F
COUNT 1 1 1 1 1 1 1
WIDTH 154
HEIGHT 1
VIEWPOINT 0 0 0 1 0 0 0
POINTS 154
DATA ascii
-3.81936 -67.4041 439.158 0.0121442 -0.284545 0.958586 1.83335e+24
-2.10738 -66.854 439.239 0.0159335 -0.27092 0.96247 1.83335e+24
-1.07628 -65.5004 439.826 0.0422723 -0.26132 0.964326 1.83335e+24
0.602668 -64.8527 439.867 0.0705995 -0.257934 0.96358 1.83335e+24
2.17359 -63.9854 440.008 0.0886357 -0.255858 0.962642 1.83335e+24
3.30826 -62.6067 440.236 0.0964282 -0.247807 0.963999 1.83335e+24
4.48803 -61.262 440.435 0.116136 -0.234852 0.965068 1.83335e+24
5.94812 -60.2108 440.38 0.155718 -0.217506 0.963557 1.83335e+24
7.33395 -59.0625 440.411 0.206507 -0.194914 0.958834 1.83335e+24
7.21443 -58.8335 440.653 0.203719 -0.194078 0.9596 1.83335e+24
8.53078 -57.6247 440.439 0.260117 -0.170408 0.950421 1.83335e+24
9.41727 -56.0606 440.527 0.288118 -0.149871 0.945794 1.83335e+24
10.6042 -54.7543 440.173 0.311222 -0.134712 0.940741 1.83335e+24
11.5149 -53.226 439.9 0.322022 -0.124623 0.938494 1.83335e+24
12.1884 -51.56 440.004 0.318896 -0.11634 0.940622 1.83335e+24
12.7734 -49.8601 440.094 0.304953 -0.109171 0.94609 1.83335e+24
13.5342 -48.2293 440.135 0.290311 -0.103842 0.951281 1.83335e+24
14.5686 -46.7606 440.022 0.275104 -0.100328 0.956165 1.83335e+24
15.3602 -45.144 440.022 0.265965 -0.0894023 0.959828 1.83335e+24
16.4351 -43.7132 439.829 0.265702 -0.0786486 0.960842 1.83335e+24
17.2055 -42.0898 439.723 0.269976 -0.0633732 0.960779 1.83335e+24
18.1877 -40.6057 439.454 0.280445 -0.0483751 0.95865 1.83335e+24
19.1592 -39.1199 439.156 0.293097 -0.0330783 0.95551 1.83335e+24
20.0459 -37.5697 438.931 0.303678 -0.0168476 0.952626 1.83335e+24
20.5969 -35.8595 438.823 0.318468 -0.001684 0.947932 1.83335e+24
21.4243 -34.2882 438.529 0.341712 0.0157631 0.939673 1.83335e+24
22.2997 -32.7789 438.087 0.372189 0.0352544 0.927487 1.83335e+24
22.8815 -31.0952 437.829 0.400452 0.0515751 0.914865 1.83335e+24
23.465 -29.443 437.417 0.430178 0.0663703 0.900301 1.83335e+24
23.6334 -27.6608 437.228 0.44639 0.0767434 0.891542 1.83335e+24
24.182 -26.0137 436.753 0.471412 0.0872819 0.877583 1.83335e+24
24.1904 -24.2229 436.571 0.475627 0.0957163 0.874424 1.83335e+24
24.7821 -22.6152 436.019 0.494277 0.101885 0.863313 1.83335e+24
24.761 -20.8214 435.871 0.488214 0.110032 0.86576 1.83335e+24
24.8405 -19.0503 435.56 0.48445 0.12563 0.865751 1.83335e+24
24.7298 -17.2614 435.394 0.475232 0.142494 0.868245 1.83335e+24
24.6284 -15.4799 435.157 0.467512 0.158756 0.869615 1.83335e+24
24.6713 -13.7163 434.8 0.464238 0.173791 0.868493 1.83335e+24
24.7515 -11.9697 434.372 0.4625 0.18822 0.86641 1.83335e+24
24.7796 -10.2078 434.004 0.459482 0.202694 0.864749 1.83335e+24
24.7516 -8.45095 433.614 0.456077 0.216958 0.863089 1.83335e+24
24.6688 -6.70532 433.183 0.452545 0.230922 0.861324 1.83335e+24
24.7216 -4.99313 432.63 0.452372 0.243393 0.857974 1.83335e+24
24.6973 -3.25383 432.167 0.449743 0.255029 0.855974 1.83335e+24
24.4182 -1.52312 431.759 0.442425 0.267978 0.855832 1.83335e+24
24.2727 0.212146 431.303 0.436707 0.281092 0.854561 1.83335e+24
24.1371 1.91106 430.724 0.431322 0.294513 0.852774 1.83335e+24
24.0796 3.60822 430.127 0.426362 0.30814 0.85045 1.83335e+24
23.8476 5.30998 429.588 0.418012 0.323118 0.849035 1.83335e+24
23.5447 7.01767 429.106 0.407842 0.339041 0.847771 1.83335e+24
23.3119 8.58063 428.245 0.400334 0.354369 0.845077 1.83335e+24
22.8218 10.3055 428.087 0.385194 0.370536 0.84518 1.83335e+24
22.3027 11.9615 427.61 0.370126 0.386506 0.84476 1.83335e+24
21.7155 13.5853 427.101 0.353871 0.403474 0.843791 1.83335e+24
21.1705 15.2008 426.524 0.338661 0.42061 0.841663 1.83335e+24
20.7356 16.8051 425.833 0.326091 0.437344 0.83809 1.83335e+24
19.8413 18.3211 425.456 0.309442 0.454324 0.835365 1.83335e+24
19.3485 19.8781 424.699 0.298592 0.470595 0.830291 1.83335e+24
18.6686 21.4136 424.051 0.28623 0.48676 0.82531 1.83335e+24
18.1088 22.9459 423.291 0.277112 0.502408 0.819021 1.83335e+24
17.3272 24.4341 422.647 0.266333 0.512017 0.816642 1.83335e+24
16.6 25.9356 421.971 0.257572 0.519915 0.81446 1.83335e+24
16.0905 27.4503 421.143 0.252067 0.527551 0.811266 1.83335e+24
15.0829 28.816 420.543 0.244899 0.534691 0.808783 1.83335e+24
14.394 30.2635 419.725 0.248933 0.541214 0.803194 1.83335e+24
14.0057 31.6951 418.705 0.251272 0.548347 0.797608 1.83335e+24
13.206 33.1648 418.041 0.258723 0.554802 0.790732 1.83335e+24
12.0893 34.5011 417.586 0.268538 0.561182 0.782918 1.83335e+24
11.5909 35.9748 416.68 0.268262 0.570501 0.77625 1.83335e+24
10.8923 37.4229 415.871 0.267025 0.581155 0.768737 1.83335e+24
10.1666 38.8618 415.069 0.262765 0.598636 0.756696 1.83335e+24
9.53722 40.1892 414.029 0.249685 0.61722 0.746121 1.83335e+24
8.79796 41.5693 413.141 0.215294 0.637799 0.7395 1.83335e+24
7.78357 42.8635 412.409 0.174917 0.658033 0.732391 1.83335e+24
6.96128 44.0715 411.358 0.143824 0.675152 0.723522 1.83335e+24
6.53023 45.3454 410.161 0.124671 0.688924 0.714031 1.83335e+24
5.45465 46.4915 409.284 0.0999851 0.702113 0.705011 1.83335e+24
4.77395 47.722 408.161 0.0894836 0.712748 0.695689 1.83335e+24
3.74401 48.8386 407.195 0.0890662 0.719897 0.688343 1.83335e+24
2.89051 49.9895 406.105 0.101913 0.725426 0.680713 1.83335e+24
1.11854 50.2073 405.876 0.123038 0.719802 0.683189 1.83335e+24
0.814817 49.1215 407.279 0.117211 0.711126 0.693226 1.83335e+24
-0.16852 48.033 408.322 0.117911 0.70069 0.703655 1.83335e+24
-0.82442 46.9076 409.564 0.113116 0.69097 0.713979 1.83335e+24
-1.44948 45.7361 410.78 0.100617 0.681355 0.725005 1.83335e+24
-2.09467 44.5264 411.946 0.0884449 0.671619 0.735599 1.83335e+24
-2.63851 43.3165 413.163 0.0772778 0.662234 0.745301 1.83335e+24
-2.85921 42.0756 414.448 0.0681033 0.653773 0.75362 1.83335e+24
-3.79924 40.8972 415.432 0.0598335 0.644518 0.762244 1.83335e+24
-4.46351 39.609 416.499 0.0539082 0.636202 0.769637 1.83335e+24
-4.92252 38.2972 417.643 0.049937 0.628477 0.776224 1.83335e+24
-5.42056 36.9578 418.737 0.044879 0.617988 0.784906 1.83335e+24
-6.11012 35.6134 419.716 0.0363665 0.60631 0.794396 1.83335e+24
-6.44617 34.2735 420.87 0.0296462 0.593782 0.80408 1.83335e+24
-6.93784 32.8655 421.878 0.0207803 0.581086 0.813577 1.83335e+24
-7.40998 31.4539 422.89 0.0120372 0.568432 0.822642 1.83335e+24
-7.88629 30.0192 423.867 0.00388105 0.556106 0.831102 1.83335e+24
-8.41425 28.5579 424.776 -0.00344588 0.544441 0.838792 1.83335e+24
-9.03215 27.0746 425.587 -0.00643532 0.533961 0.845484 1.83335e+24
-8.89955 25.6812 426.719 -0.00693939 0.52341 0.852052 1.83335e+24
-9.47697 24.191 427.547 -0.00294229 0.513169 0.858283 1.83335e+24
-9.71832 22.6849 428.503 -0.00509307 0.500844 0.865523 1.83335e+24
-9.9486 21.1371 429.392 -0.0100073 0.488301 0.872618 1.83335e+24
-10.4847 19.5984 430.157 -0.020067 0.475201 0.879649 1.83335e+24
-10.8356 18.0326 430.973 -0.031074 0.462149 0.886258 1.83335e+24
-11.0301 16.4456 431.799 -0.0411107 0.449667 0.89225 1.83335e+24
-11.5212 14.8748 432.528 -0.0564641 0.436658 0.897854 1.83335e+24
-11.736 13.2531 433.279 -0.0674107 0.42482 0.902765 1.83335e+24
-11.8967 11.6152 434.008 -0.0766065 0.413646 0.907209 1.83335e+24
-12.1568 9.97133 434.694 -0.0874816 0.396681 0.913779 1.83335e+24
-12.1533 8.35453 435.485 -0.0912552 0.380674 0.920196 1.83335e+24
-12.6562 6.7144 436.03 -0.105792 0.364633 0.925122 1.83335e+24
-12.7717 5.0841 436.784 -0.109339 0.349652 0.930477 1.83335e+24
-13.2404 3.38807 437.163 -0.119669 0.335799 0.934301 1.83335e+24
-13.2133 1.7007 437.79 -0.116164 0.322171 0.939527 1.83335e+24
-13.2233 0.0126119 438.414 -0.11126 0.308878 0.944572 1.83335e+24
-13.3622 -1.70716 438.927 -0.106787 0.296426 0.949067 1.83335e+24
-13.3972 -3.43846 439.419 -0.0980029 0.283402 0.953981 1.83335e+24
-13.4356 -5.16472 439.927 -0.0893061 0.267812 0.959323 1.83335e+24
-13.4762 -6.89859 440.409 -0.0820084 0.251726 0.964318 1.83335e+24
-13.7956 -8.65048 440.671 -0.0794498 0.236351 0.968414 1.83335e+24
-13.3293 -10.2679 441.309 -0.0700853 0.218879 0.973232 1.83335e+24
-13.6427 -12.0224 441.56 -0.0701491 0.202368 0.976794 1.83335e+24
-13.0683 -13.6544 442.057 -0.0644359 0.185721 0.980488 1.83335e+24
-13.4868 -15.399 442.203 -0.0682897 0.168626 0.983312 1.83335e+24
-13.2358 -17.1466 442.554 -0.0687206 0.151491 0.986067 1.83335e+24
-13.3232 -18.9365 442.722 -0.0732435 0.135011 0.988133 1.83335e+24
-13.2153 -20.7184 442.953 -0.0756364 0.123754 0.989426 1.83335e+24
-13.2412 -22.5138 443.079 -0.0770779 0.111661 0.990753 1.83335e+24
-12.7507 -24.1901 443.514 -0.0729048 0.0993517 0.992378 1.83335e+24
-12.712 -25.9841 443.655 -0.070913 0.0857612 0.993789 1.83335e+24
-12.5935 -27.7741 443.803 -0.0673179 0.0715109 0.995166 1.83335e+24
-12.5169 -29.5713 443.868 -0.0633306 0.0567793 0.996376 1.83335e+24
-12.2821 -31.3527 443.976 -0.0581445 0.0413412 0.997452 1.83335e+24
-12.0536 -33.1373 444.031 -0.0532024 0.0255616 0.998257 1.83335e+24
-11.8403 -34.924 444.076 -0.0484483 0.00960119 0.99878 1.83335e+24
-11.3703 -36.6582 444.184 -0.0429934 -0.00740642 0.999048 1.83335e+24
-11.2431 -38.4523 444.113 -0.038683 -0.0249684 0.99894 1.83335e+24
-10.8275 -40.2036 444.114 -0.0355807 -0.0432858 0.998429 1.83335e+24
-10.6802 -41.9929 443.984 -0.0337914 -0.061927 0.997508 1.83335e+24
-10.1643 -43.717 443.948 -0.036808 -0.0799573 0.996118 1.83335e+24
-10.0736 -45.5011 443.727 -0.0382745 -0.0987953 0.994371 1.83335e+24
-9.56601 -47.224 443.609 -0.0337347 -0.116542 0.992613 1.83335e+24
-9.069 -48.9448 443.43 -0.0297132 -0.133988 0.990537 1.83335e+24
-8.94953 -50.7097 443.098 -0.0298025 -0.15058 0.988149 1.83335e+24
-8.40293 -52.413 442.897 -0.0223943 -0.165474 0.98596 1.83335e+24
-8.19878 -54.1509 442.475 -0.0178089 -0.180446 0.983424 1.83335e+24
-7.65576 -55.8445 442.198 -0.00825703 -0.19529 0.980711 1.83335e+24
-7.12251 -57.5251 441.836 0.0017376 -0.210299 0.977636 1.83335e+24
-6.5391 -59.1962 441.509 0.0124302 -0.225483 0.974168 1.83335e+24
-5.95888 -60.8575 441.13 0.0211696 -0.240456 0.970429 1.83335e+24
-5.58401 -62.5378 440.605 0.0265338 -0.254586 0.966686 1.83335e+24
-4.87567 -64.1505 440.234 0.0279913 -0.266936 0.963308 1.83335e+24
-4.49537 -65.8095 439.648 0.0242242 -0.277839 0.960322 1.83335e+24
