# .PCD v0.7 - Point Cloud Data file format
# 4 173 0
# 1 38 0
# 39 61 0
# 62 137 0
# 138 173 0
VERSION 0.7
FIELDS x y z normal_x normal_y normal_z curvature
SIZE 4 4 4 4 4 4 4
TYPE F F F F F F F
COUNT 1 1 1 1 1 1 1
WIDTH 173
HEIGHT 1
VIEWPOINT 0 0 0 1 0 0 0
POINTS 173
DATA ascii
-30.4259 91.8885 361.227 -0.359466 0.796311 0.48649 1.83335e+24
-31.7704 90.7722 361.658 -0.360825 0.794638 0.488217 1.83335e+24
-33.0459 89.7335 362.389 -0.368411 0.788205 0.492957 1.83335e+24
-34.6522 88.9303 362.268 -0.38826 0.780536 0.489916 1.83335e+24
-36.1269 88.0366 362.785 -0.398767 0.771326 0.496025 1.83335e+24
-37.7643 87.3779 362.431 -0.403502 0.765705 0.500881 1.83335e+24
-39.1398 86.222 362.54 -0.412046 0.75659 0.50773 1.83335e+24
-40.3068 85.0238 363.205 -0.423416 0.746042 0.513945 1.83335e+24
-41.3669 83.7785 363.957 -0.436247 0.735075 0.518992 1.83335e+24
-42.0143 82.919 365.4 -0.446301 0.726226 0.522888 1.83335e+24
-42.991 81.7363 366.342 -0.459709 0.7151 0.526592 1.83335e+24
-43.8694 80.4919 367.301 -0.464367 0.706577 0.533959 1.83335e+24
-44.9786 79.0918 367.079 -0.463062 0.700964 0.542424 1.83335e+24
-45.5564 78.2614 368.568 -0.468552 0.693109 0.547776 1.83335e+24
-46.4817 76.9308 369.351 -0.471213 0.682449 0.558768 1.83335e+24
-47.3194 75.6013 370.229 -0.474818 0.670319 0.570281 1.83335e+24
-48.3048 74.1844 370.741 -0.478272 0.658725 0.580807 1.83335e+24
-49.0658 72.9408 371.796 -0.484206 0.645743 0.59039 1.83335e+24
-49.8175 71.5725 372.692 -0.491248 0.632346 0.599011 1.83335e+24
-50.6037 70.1822 373.522 -0.499984 0.618291 0.60641 1.83335e+24
-51.336 68.7868 374.392 -0.510586 0.603517 0.612429 1.83335e+24
-52.1576 67.3025 374.993 -0.510189 0.591183 0.624668 1.83335e+24
-52.778 65.905 375.943 -0.51185 0.57897 0.634667 1.83335e+24
-53.5252 64.4261 376.646 -0.509522 0.566906 0.647305 1.83335e+24
-54.1939 62.8497 377.201 -0.507887 0.554507 0.659222 1.83335e+24
-54.8867 61.3184 377.846 -0.507938 0.541753 0.669703 1.83335e+24
-55.3779 59.8785 378.808 -0.513285 0.528523 0.676167 1.83335e+24
-55.8633 58.3432 379.612 -0.517703 0.515384 0.682908 1.83335e+24
-56.5909 56.8291 380.259 -0.519815 0.502386 0.690942 1.83335e+24
-57.0554 55.2621 381.013 -0.525417 0.489146 0.696185 1.83335e+24
-57.375 53.717 381.879 -0.532685 0.476173 0.699647 1.83335e+24
-58.0878 52.0904 382.173 -0.537234 0.461206 0.706165 1.83335e+24
-58.4228 50.5606 383.06 -0.546336 0.443463 0.710533 1.83335e+24
-58.7834 48.9562 383.792 -0.555145 0.425611 0.714611 1.83335e+24
-59.0882 47.3485 384.542 -0.563928 0.408272 0.717843 1.83335e+24
-59.3829 45.6897 385.176 -0.572519 0.391119 0.720589 1.83335e+24
-59.6342 44.0214 385.803 -0.580798 0.374542 0.722767 1.83335e+24
-60.0043 43.0002 385.752 -0.586349 0.364028 0.723656 1.83335e+24
-60.0941 41.4871 386.723 -0.592869 0.350098 0.725216 1.83335e+24
-60.3363 39.8244 387.368 -0.599934 0.335075 0.726501 1.83335e+24
-60.6433 38.0774 387.674 -0.607695 0.319617 0.727016 1.83335e+24
-60.5755 36.5852 388.679 -0.610562 0.307383 0.729884 1.83335e+24
-60.7159 34.8785 389.233 -0.615344 0.293102 0.731739 1.83335e+24
-60.8218 33.19 389.848 -0.618697 0.279417 0.734262 1.83335e+24
-61.0626 31.408 389.929 -0.624036 0.265578 0.734879 1.83335e+24
-61.1671 29.6869 390.445 -0.62556 0.252784 0.738089 1.83335e+24
-61.2025 28.013 391.106 -0.62462 0.240568 0.742952 1.83335e+24
-61.0801 26.3344 391.744 -0.621525 0.228467 0.74934 1.83335e+24
-61.0642 24.625 392.308 -0.61802 0.216247 0.755836 1.83335e+24
-61.0398 22.8944 392.802 -0.61349 0.205173 0.762584 1.83335e+24
-60.9166 21.1972 393.389 -0.606926 0.193961 0.770727 1.83335e+24
-60.6502 19.5393 394.037 -0.598729 0.181675 0.780076 1.83335e+24
-60.4977 17.8171 394.538 -0.590692 0.169165 0.788965 1.83335e+24
-60.1567 16.1761 395.195 -0.581601 0.155103 0.798551 1.83335e+24
-60.0519 14.4172 395.562 -0.573167 0.141796 0.807077 1.83335e+24
-59.875 12.6493 395.851 -0.564392 0.127907 0.815538 1.83335e+24
-59.4833 10.9999 396.456 -0.556335 0.111892 0.823391 1.83335e+24
-59.1057 9.3138 396.96 -0.549384 0.0973696 0.829877 1.83335e+24
-58.9273 7.53533 397.173 -0.54163 0.0865472 0.83615 1.83335e+24
-58.5197 5.86494 397.706 -0.535906 0.073081 0.841109 1.83335e+24
-58.2731 4.08518 397.814 -0.527826 0.0605733 0.84719 1.83335e+24
-57.7999 2.406 398.257 -0.52296 0.0451498 0.851161 1.83335e+24
-57.1158 0.869631 398.899 -0.522413 0.0278944 0.852236 1.83335e+24
-56.9247 -0.920094 398.879 -0.51361 0.0132166 0.857922 1.83335e+24
-56.2756 -2.52116 399.385 -0.51362 -0.00542753 0.858001 1.83335e+24
-55.8042 -4.25567 399.481 -0.509342 -0.022414 0.860272 1.83335e+24
-55.2834 -5.95635 399.757 -0.507551 -0.0367323 0.860838 1.83335e+24
-54.4613 -7.44734 400.341 -0.513613 -0.0515715 0.856471 1.83335e+24
-53.8478 -9.11698 400.617 -0.51363 -0.064636 0.855574 1.83335e+24
-53.3433 -10.8439 400.672 -0.509049 -0.0760346 0.857373 1.83335e+24
-52.7409 -12.5391 400.732 -0.504012 -0.0876396 0.859239 1.83335e+24
-51.8537 -14.0066 401.279 -0.496994 -0.102543 0.861674 1.83335e+24
-51.2494 -15.7021 401.279 -0.483508 -0.113979 0.867888 1.83335e+24
-50.5108 -17.3376 401.419 -0.471701 -0.126971 0.872569 1.83335e+24
-49.4867 -18.7365 401.903 -0.465718 -0.142175 0.873437 1.83335e+24
-47.9132 -18.6628 402.774 -0.471857 -0.150497 0.868736 1.83335e+24
-46.3386 -18.5574 403.64 -0.476285 -0.152627 0.865943 1.83335e+24
-44.8819 -18.4382 404.691 -0.457597 -0.149747 0.876459 1.83335e+24
-43.2507 -18.65 405.422 -0.425347 -0.147709 0.892895 1.83335e+24
-41.5882 -18.4314 406.076 -0.393027 -0.139983 0.908809 1.83335e+24
-40.1001 -18.4193 407.089 -0.362383 -0.131146 0.922756 1.83335e+24
-38.3482 -18.1774 407.424 -0.333125 -0.118786 0.93537 1.83335e+24
-36.6813 -17.8936 408.041 -0.304998 -0.107688 0.946245 1.83335e+24
-34.9619 -17.8734 408.573 -0.276326 -0.102228 0.955611 1.83335e+24
-33.2148 -18.0894 408.949 -0.246428 -0.102191 0.963758 1.83335e+24
-31.5443 -17.5833 409.388 -0.217079 -0.100802 0.970935 1.83335e+24
-29.7843 -17.6539 409.759 -0.206101 -0.10656 0.972711 1.83335e+24
-28.108 -17.1325 410.157 -0.198329 -0.107665 0.974204 1.83335e+24
-26.368 -16.9721 410.589 -0.189242 -0.110761 0.975664 1.83335e+24
-24.5973 -16.8564 410.891 -0.18009 -0.113667 0.977061 1.83335e+24
-22.8597 -16.6984 411.333 -0.168275 -0.114672 0.979047 1.83335e+24
-21.101 -16.6257 411.71 -0.154335 -0.112934 0.981543 1.83335e+24
-19.416 -16.0479 411.968 -0.139338 -0.103422 0.984829 1.83335e+24
-17.667 -16.4267 412.162 -0.126825 -0.0993077 0.986941 1.83335e+24
-15.8904 -16.7153 412.145 -0.115719 -0.0912445 0.989082 1.83335e+24
-14.1104 -16.897 412.341 -0.105916 -0.0772935 0.991366 1.83335e+24
-12.3215 -16.7893 412.509 -0.0952973 -0.0544957 0.993956 1.83335e+24
-10.8329 -15.7967 412.707 -0.0734167 -0.0226511 0.997044 1.83335e+24
-10.3108 -14.084 412.891 -0.0410318 -0.00119347 0.999157 1.83335e+24
-9.68919 -12.3971 412.802 -0.00539316 0.0200739 0.999784 1.83335e+24
-9.41837 -10.6189 412.872 0.0238237 0.0353322 0.999092 1.83335e+24
-8.35613 -9.16845 412.959 0.0551404 0.0557148 0.996923 1.83335e+24
-8.19074 -7.40661 412.63 0.0729712 0.068676 0.994967 1.83335e+24
-7.53508 -5.73199 412.554 0.0921157 0.0850374 0.992111 1.83335e+24
-6.88488 -4.06282 412.378 0.108976 0.101563 0.988842 1.83335e+24
-6.53 -2.32591 412.066 0.123248 0.117705 0.985371 1.83335e+24
-5.90796 -0.690155 411.645 0.139113 0.136315 0.98085 1.83335e+24
-5.45826 1.0305 411.367 0.15467 0.148934 0.976676 1.83335e+24
-5.08447 2.76686 411.075 0.167135 0.158399 0.973127 1.83335e+24
-4.67753 4.47383 410.674 0.176498 0.165942 0.970212 1.83335e+24
-4.22726 6.09664 410.039 0.182459 0.171104 0.968211 1.83335e+24
-4.17647 7.86443 409.703 0.179788 0.175301 0.96796 1.83335e+24
-4.12772 9.65706 409.548 0.172491 0.179175 0.968578 1.83335e+24
-3.66777 11.3059 408.992 0.163155 0.178731 0.970276 1.83335e+24
-3.45391 13.0457 408.582 0.146354 0.179083 0.972887 1.83335e+24
-3.51857 14.8361 408.408 0.128594 0.191724 0.972988 1.83335e+24
-3.28432 16.603 408.158 0.111834 0.201499 0.973083 1.83335e+24
-2.97672 18.3371 407.786 0.0955265 0.210892 0.972831 1.83335e+24
-2.93373 20.095 407.401 0.0820841 0.222626 0.971442 1.83335e+24
-2.92784 21.8488 406.996 0.0707646 0.234448 0.96955 1.83335e+24
-2.63793 23.5314 406.426 0.0582002 0.244517 0.967897 1.83335e+24
-2.84664 25.2784 406.046 0.0525821 0.256888 0.96501 1.83335e+24
-2.77818 26.9962 405.513 0.0452884 0.26787 0.96239 1.83335e+24
-2.77425 28.7103 404.963 0.0403689 0.279996 0.959152 1.83335e+24
-2.30384 30.3493 404.387 0.0315326 0.291671 0.955999 1.83335e+24
-2.50532 32.0685 403.893 0.0330717 0.3045 0.951938 1.83335e+24
-2.33566 33.7407 403.248 0.0318743 0.317174 0.947831 1.83335e+24
-2.32522 35.4677 402.741 0.0348028 0.3297 0.943444 1.83335e+24
-2.25776 37.1601 402.132 0.0390731 0.342197 0.938815 1.83335e+24
-2.04118 38.7966 401.414 0.0437073 0.35513 0.933795 1.83335e+24
-2.34569 40.5095 400.953 0.0559012 0.36517 0.929261 1.83335e+24
-2.38758 42.2051 400.35 0.0671297 0.376142 0.924127 1.83335e+24
-2.00725 43.8124 399.634 0.0755699 0.386749 0.919083 1.83335e+24
-2.22103 45.4708 398.968 0.0890464 0.393594 0.914962 1.83335e+24
-2.4595 47.1304 398.313 0.102029 0.40028 0.910695 1.83335e+24
-2.59102 48.7765 397.597 0.113884 0.407733 0.905972 1.83335e+24
-2.98893 50.382 396.887 0.125609 0.413578 0.901762 1.83335e+24
-2.9518 51.9777 396.055 0.135805 0.422133 0.896304 1.83335e+24
-2.90118 53.6112 395.3 0.14594 0.430672 0.890631 1.83335e+24
-2.88066 55.2261 394.506 0.155927 0.43906 0.884824 1.83335e+24
-2.99066 56.7457 393.547 0.165055 0.444111 0.880637 1.83335e+24
-3.52613 58.366 392.975 0.168455 0.445634 0.879223 1.83335e+24
-3.53445 59.9429 392.107 0.171907 0.450027 0.876313 1.83335e+24
-3.83509 61.6153 391.513 0.169958 0.455244 0.873995 1.83335e+24
-4.06415 63.2399 390.772 0.165853 0.461811 0.871335 1.83335e+24
-4.10079 64.7491 389.792 0.161406 0.468767 0.86845 1.83335e+24
-4.13704 66.3259 388.925 0.154491 0.47644 0.865528 1.83335e+24
-4.61828 67.8912 388.177 0.141261 0.486861 0.861981 1.83335e+24
-4.99734 69.4855 387.433 0.127491 0.501096 0.855949 1.83335e+24
-5.28097 70.9692 386.454 0.11405 0.520514 0.846202 1.83335e+24
-5.81588 72.4359 385.558 0.0976799 0.54169 0.834884 1.83335e+24
-6.40442 73.9064 384.703 0.0806537 0.563518 0.822157 1.83335e+24
-6.96784 75.3162 383.736 0.0640329 0.585491 0.808146 1.83335e+24
-7.68289 76.6805 382.805 0.0468162 0.607555 0.792896 1.83335e+24
-8.48573 77.9797 381.852 0.0292236 0.629048 0.776817 1.83335e+24
-9.61016 79.083 380.981 -0.00225877 0.649173 0.760637 1.83335e+24
-10.3756 80.2753 379.871 -0.026465 0.6692 0.74261 1.83335e+24
-11.2199 81.2616 378.624 -0.0524303 0.68337 0.728187 1.83335e+24
-12.693 82.072 377.981 -0.0871447 0.689785 0.718751 1.83335e+24
-13.5833 83.1539 376.851 -0.113187 0.693084 0.711915 1.83335e+24
-14.7665 83.9672 375.766 -0.141225 0.696833 0.703192 1.83335e+24
-15.9874 84.7777 374.721 -0.146462 0.700937 0.698023 1.83335e+24
-17.2555 85.5289 373.687 -0.149558 0.705098 0.693159 1.83335e+24
-18.1977 86.502 372.502 -0.153588 0.709099 0.688178 1.83335e+24
-19.7166 87.0192 371.686 -0.154683 0.714822 0.681985 1.83335e+24
-21.1068 87.5827 370.691 -0.157097 0.721667 0.674179 1.83335e+24
-22.1233 88.79 369.826 -0.178898 0.728893 0.66084 1.83335e+24
-23.2015 89.1771 368.437 -0.208326 0.737525 0.642383 1.83335e+24
-24.3824 89.7843 367.222 -0.23955 0.747342 0.619755 1.83335e+24
-25.9078 90.0064 366.293 -0.27035 0.757608 0.594089 1.83335e+24
-26.6825 90.5639 364.766 -0.29976 0.767273 0.566954 1.83335e+24
-28.1514 90.9472 363.799 -0.327148 0.777815 0.536636 1.83335e+24
-29.4914 91.3302 362.66 -0.345625 0.787899 0.509665 1.83335e+24
