# .PCD v0.7 - Point Cloud Data file format
# 4 167 0
# 1 15 0
# 16 89 0
# 90 109 0
# 110 167 0
VERSION 0.7
FIELDS x y z normal_x normal_y normal_z curvature
SIZE 4 4 4 4 4 4 4
TYPE F F F F F F F
COUNT 1 1 1 1 1 1 1
WIDTH 167
HEIGHT 1
VIEWPOINT 0 0 0 1 0 0 0
POINTS 167
DATA ascii
-47.001 -18.3837 399.733 0.368024 0.0890767 -0.92554 1.83335e+24
-48.2925 -17.2442 399.21 0.365391 0.0652721 -0.928563 1.83335e+24
-49.667 -16.095 399.036 0.356938 0.043891 -0.933096 1.83335e+24
-50.1449 -14.3775 398.788 0.369638 0.035596 -0.928494 1.83335e+24
-51.2026 -12.9343 398.592 0.366105 0.0198908 -0.930361 1.83335e+24
-51.7229 -11.2357 398.302 0.376697 0.011282 -0.926268 1.83335e+24
-52.4624 -9.61479 398.045 0.370699 -0.00117748 -0.928752 1.83335e+24
-52.9336 -7.90187 397.756 0.373397 -0.0100442 -0.927617 1.83335e+24
-53.7917 -6.3424 397.488 0.359613 -0.0245678 -0.932778 1.83335e+24
-54.2952 -4.63807 397.202 0.360698 -0.035584 -0.932004 1.83335e+24
-54.1188 -2.85795 397.002 0.387789 -0.0420982 -0.920786 1.83335e+24
-55.2558 -1.51503 396.623 0.360179 -0.0649955 -0.930616 1.83335e+24
-55.6909 0.204071 396.314 0.36274 -0.0796733 -0.928478 1.83335e+24
-56.1822 1.90152 395.972 0.362809 -0.0944025 -0.927069 1.83335e+24
-56.6151 3.60313 395.575 0.364379 -0.108091 -0.924956 1.83335e+24
-56.5893 5.36717 395.218 0.380498 -0.116312 -0.917438 1.83335e+24
-57.3773 6.93389 394.813 0.371028 -0.13223 -0.919159 1.83335e+24
-57.7914 8.64304 394.429 0.37464 -0.144072 -0.915908 1.83335e+24
-57.9032 10.3879 394.001 0.386326 -0.156344 -0.909015 1.83335e+24
-57.758 12.1535 393.682 0.404592 -0.166512 -0.89921 1.83335e+24
-58.387 13.7592 393.166 0.402052 -0.183847 -0.89697 1.83335e+24
-58.6838 15.4709 392.695 0.408169 -0.197591 -0.891266 1.83335e+24
-58.9098 17.1951 392.23 0.415259 -0.210036 -0.885124 1.83335e+24
-59.1599 18.9194 391.778 0.421111 -0.221923 -0.879441 1.83335e+24
-59.3183 20.6448 391.291 0.427256 -0.232656 -0.873684 1.83335e+24
-59.1528 22.3546 390.753 0.437044 -0.241099 -0.866524 1.83335e+24
-58.8563 24.0795 390.332 0.448282 -0.250126 -0.858184 1.83335e+24
-59.3614 25.7067 389.752 0.443202 -0.263835 -0.856716 1.83335e+24
-59.2992 27.4258 389.222 0.4464 -0.27516 -0.851478 1.83335e+24
-59.7121 29.0979 388.699 0.440197 -0.287365 -0.850675 1.83335e+24
-59.288 30.751 388.127 0.445096 -0.298026 -0.844435 1.83335e+24
-59.2522 32.4545 387.546 0.442105 -0.310034 -0.841678 1.83335e+24
-58.9589 34.1285 386.953 0.441511 -0.322302 -0.837371 1.83335e+24
-59.0844 35.8326 386.387 0.432664 -0.334842 -0.837068 1.83335e+24
-59.2353 37.5406 385.84 0.421853 -0.346685 -0.837765 1.83335e+24
-58.8191 39.1695 385.197 0.418064 -0.356195 -0.835672 1.83335e+24
-58.2266 40.7516 384.575 0.41589 -0.367893 -0.831679 1.83335e+24
-58.0496 42.43 383.95 0.403263 -0.379771 -0.832558 1.83335e+24
-57.9899 44.112 383.311 0.385409 -0.391793 -0.835439 1.83335e+24
-57.528 45.6967 382.594 0.373895 -0.406933 -0.833432 1.83335e+24
-57.3636 47.3577 381.92 0.353556 -0.421193 -0.835221 1.83335e+24
-57.0917 48.9991 381.233 0.333914 -0.436899 -0.835237 1.83335e+24
-56.4007 50.4969 380.512 0.326668 -0.456493 -0.827588 1.83335e+24
-55.9839 52.1074 379.825 0.312529 -0.468758 -0.826191 1.83335e+24
-55.6826 53.7618 379.183 0.297065 -0.478362 -0.826391 1.83335e+24
-55.2937 55.3739 378.483 0.285837 -0.487904 -0.824771 1.83335e+24
-54.605 56.8512 377.719 0.289197 -0.498829 -0.817028 1.83335e+24
-54.0994 58.4137 376.982 0.285827 -0.508462 -0.812262 1.83335e+24
-53.3942 59.8786 376.21 0.293307 -0.519273 -0.802699 1.83335e+24
-52.475 61.2619 375.516 0.316985 -0.531649 -0.78541 1.83335e+24
-51.923 62.7865 374.734 0.316653 -0.543025 -0.777724 1.83335e+24
-51.1602 64.2228 373.963 0.33065 -0.557195 -0.761712 1.83335e+24
-50.8293 65.8218 373.205 0.315616 -0.569081 -0.759298 1.83335e+24
-49.8486 67.1213 372.438 0.317372 -0.586085 -0.745506 1.83335e+24
-49.4242 68.6955 371.675 0.301127 -0.597652 -0.743057 1.83335e+24
-48.5583 70.0353 370.841 0.302688 -0.610996 -0.731481 1.83335e+24
-47.6805 71.37 370.012 0.306146 -0.623661 -0.719251 1.83335e+24
-46.8258 72.7327 369.204 0.308905 -0.636192 -0.706992 1.83335e+24
-46.3838 74.3145 368.467 0.296721 -0.647125 -0.702272 1.83335e+24
-46.0482 73.9761 368.427 0.309167 -0.648131 -0.695947 1.83335e+24
-45.0017 75.2157 367.647 0.314685 -0.663147 -0.679124 1.83335e+24
-44.0348 76.5111 366.855 0.313219 -0.671288 -0.671764 1.83335e+24
-43.0698 77.7983 366.048 0.309368 -0.677541 -0.667255 1.83335e+24
-42.2175 79.1527 365.224 0.298845 -0.683401 -0.666074 1.83335e+24
-41.1486 80.3395 364.394 0.295574 -0.690141 -0.660561 1.83335e+24
-40.1055 81.561 363.581 0.293835 -0.696223 -0.654931 1.83335e+24
-38.9831 82.6903 362.742 0.293811 -0.703045 -0.647613 1.83335e+24
-37.9423 83.8925 361.898 0.289906 -0.710571 -0.641127 1.83335e+24
-36.8226 85.0048 361.033 0.283705 -0.720512 -0.632751 1.83335e+24
-35.2017 85.7152 360.704 0.288506 -0.737667 -0.610419 1.83335e+24
-33.5583 86.4444 360.616 0.279718 -0.758082 -0.589127 1.83335e+24
-31.9747 87.2998 360.6 0.276863 -0.774925 -0.568189 1.83335e+24
-30.3969 88.1596 360.494 0.280156 -0.788161 -0.548009 1.83335e+24
-28.7452 88.6526 359.976 0.288668 -0.797809 -0.529313 1.83335e+24
-27.4235 88.1933 361.108 0.306185 -0.795031 -0.523619 1.83335e+24
-26.4955 87.6248 362.542 0.303083 -0.789477 -0.53373 1.83335e+24
-25.321 87.1558 363.823 0.290424 -0.782617 -0.550603 1.83335e+24
-24.2268 86.64 365.155 0.269822 -0.773101 -0.57403 1.83335e+24
-22.7152 86.5385 366.128 0.242312 -0.762051 -0.600469 1.83335e+24
-21.554 85.7969 367.286 0.208256 -0.748196 -0.629946 1.83335e+24
-20.1278 85.4074 368.312 0.198817 -0.732327 -0.651282 1.83335e+24
-19.1037 84.4635 369.453 0.185847 -0.719927 -0.668705 1.83335e+24
-18.1995 83.4825 370.661 0.173666 -0.70939 -0.683085 1.83335e+24
-16.8064 82.8817 371.63 0.16634 -0.698027 -0.696483 1.83335e+24
-15.9524 81.866 372.846 0.15416 -0.689461 -0.707727 1.83335e+24
-14.5027 81.2332 373.705 0.131162 -0.678913 -0.722409 1.83335e+24
-13.2494 80.466 374.745 0.101934 -0.668586 -0.736616 1.83335e+24
-12.3483 79.3547 375.837 0.0731152 -0.659434 -0.748198 1.83335e+24
-10.894 78.7117 376.68 0.0402027 -0.64549 -0.76271 1.83335e+24
-9.7826 77.6609 377.629 0.00694592 -0.627589 -0.778514 1.83335e+24
-9.04744 76.3158 378.573 -0.0215215 -0.602925 -0.797508 1.83335e+24
-7.99333 75.156 379.458 -0.0487069 -0.576585 -0.815584 1.83335e+24
-7.4704 73.6602 380.312 -0.0730983 -0.552059 -0.830595 1.83335e+24
-6.83213 72.2137 381.172 -0.0975207 -0.526936 -0.844291 1.83335e+24
-6.17524 70.7494 381.987 -0.12127 -0.502142 -0.85624 1.83335e+24
-5.74713 69.2137 382.823 -0.143273 -0.479644 -0.865687 1.83335e+24
-5.34248 67.6534 383.624 -0.163901 -0.458235 -0.873589 1.83335e+24
-5.117 66.0346 384.378 -0.182138 -0.439154 -0.879756 1.83335e+24
-4.77437 64.3946 385.036 -0.199278 -0.423464 -0.883723 1.83335e+24
-5.04453 62.8201 385.866 -0.210456 -0.413144 -0.886014 1.83335e+24
-4.68166 61.1746 386.499 -0.223151 -0.399175 -0.889305 1.83335e+24
-4.30702 59.5611 387.203 -0.232942 -0.386799 -0.892258 1.83335e+24
-4.47458 57.8695 387.795 -0.238134 -0.377251 -0.894972 1.83335e+24
-4.31752 56.2563 388.578 -0.24163 -0.367703 -0.898003 1.83335e+24
-4.31187 54.5884 389.255 -0.242097 -0.359193 -0.901315 1.83335e+24
-3.939 52.9215 389.823 -0.239548 -0.353369 -0.904294 1.83335e+24
-3.70658 51.2519 390.454 -0.235889 -0.351989 -0.905793 1.83335e+24
-3.60207 49.5961 391.152 -0.233431 -0.349948 -0.907219 1.83335e+24
-3.24908 47.9341 391.746 -0.231363 -0.347699 -0.908613 1.83335e+24
-3.88566 46.3604 392.345 -0.233985 -0.345151 -0.908912 1.83335e+24
-3.65473 44.6485 392.851 -0.235048 -0.342221 -0.909746 1.83335e+24
-3.27245 42.9866 393.427 -0.237503 -0.338378 -0.910545 1.83335e+24
-3.11868 41.3079 394.058 -0.242758 -0.334232 -0.910691 1.83335e+24
-3.69538 39.7454 394.741 -0.25003 -0.332872 -0.90922 1.83335e+24
-3.37646 38.085 395.358 -0.257519 -0.326015 -0.909614 1.83335e+24
-3.11865 36.3729 395.851 -0.264079 -0.319236 -0.910138 1.83335e+24
-3.19422 34.652 396.373 -0.268226 -0.313931 -0.91077 1.83335e+24
-3.86514 33.1198 397.038 -0.267929 -0.309776 -0.912279 1.83335e+24
-3.56796 31.4731 397.701 -0.268936 -0.304224 -0.91385 1.83335e+24
-3.53284 29.7556 398.239 -0.267118 -0.299098 -0.916072 1.83335e+24
-3.64861 28.0381 398.765 -0.262778 -0.293883 -0.919011 1.83335e+24
-3.55935 26.3355 399.342 -0.25682 -0.289223 -0.922168 1.83335e+24
-3.76319 24.6167 399.836 -0.248716 -0.283527 -0.92615 1.83335e+24
-4.43655 23.0388 400.381 -0.243068 -0.276437 -0.929785 1.83335e+24
-4.51445 21.3139 400.89 -0.238621 -0.271291 -0.932449 1.83335e+24
-4.31706 19.6198 401.465 -0.234943 -0.266401 -0.93479 1.83335e+24
-4.29392 17.8993 401.994 -0.233452 -0.2608 -0.936741 1.83335e+24
-4.38223 16.1493 402.405 -0.234173 -0.254947 -0.938171 1.83335e+24
-4.85359 14.5008 402.953 -0.238412 -0.24978 -0.938493 1.83335e+24
-5.29146 12.8359 403.479 -0.243605 -0.24517 -0.938375 1.83335e+24
-4.98324 11.102 403.851 -0.24785 -0.238892 -0.938883 1.83335e+24
-5.32594 9.4502 404.479 -0.252992 -0.235976 -0.938249 1.83335e+24
-5.86123 7.79405 404.938 -0.254534 -0.232171 -0.938781 1.83335e+24
-5.62265 6.07487 405.415 -0.254935 -0.227196 -0.939889 1.83335e+24
-5.62413 4.31143 405.776 -0.252968 -0.222107 -0.941635 1.83335e+24
-5.87224 2.56199 406.119 -0.247059 -0.216252 -0.944562 1.83335e+24
-6.05961 0.868721 406.701 -0.237844 -0.209551 -0.94843 1.83335e+24
-6.49835 -0.776005 407.286 -0.222186 -0.200592 -0.954147 1.83335e+24
-7.49172 -2.2161 407.709 -0.196979 -0.175629 -0.964548 1.83335e+24
-8.42944 -3.71982 408.025 -0.166881 -0.142248 -0.975662 1.83335e+24
-9.18448 -5.31441 408.381 -0.133894 -0.111435 -0.98471 1.83335e+24
-9.74176 -7.01245 408.596 -0.103143 -0.0841693 -0.991099 1.83335e+24
-10.0636 -8.77851 408.728 -0.0804004 -0.0605993 -0.994919 1.83335e+24
-10.5777 -10.5002 408.835 -0.0495945 -0.0394992 -0.997988 1.83335e+24
-11.0161 -12.246 408.843 -0.0227259 -0.0212127 -0.999517 1.83335e+24
-11.737 -13.8943 408.902 -0.00381564 -0.00529511 -0.999979 1.83335e+24
-12.3449 -15.5882 408.87 0.01228 0.00925899 -0.999882 1.83335e+24
-13.3147 -17.1019 408.961 0.0382285 0.0235662 -0.998991 1.83335e+24
-14.9906 -16.4542 408.851 0.0638777 0.0307387 -0.997484 1.83335e+24
-16.7522 -16.741 408.618 0.0930805 0.0499855 -0.994403 1.83335e+24
-18.5403 -16.7201 408.412 0.116457 0.068933 -0.990801 1.83335e+24
-20.3136 -16.4758 408.223 0.136624 0.0803268 -0.987361 1.83335e+24
-22.0873 -16.4048 407.925 0.158357 0.0877813 -0.983472 1.83335e+24
-23.8675 -16.2841 407.688 0.180178 0.0893058 -0.979572 1.83335e+24
-25.5747 -16.7014 407.299 0.195086 0.0904957 -0.976602 1.83335e+24
-27.3214 -16.4129 406.974 0.207467 0.0876533 -0.974307 1.83335e+24
-28.8546 -17.303 406.662 0.218139 0.093444 -0.971434 1.83335e+24
-30.6063 -17.4199 406.264 0.230294 0.096074 -0.968367 1.83335e+24
-32.3101 -17.5076 405.69 0.257749 0.101172 -0.9609 1.83335e+24
-34.0132 -17.067 405.309 0.301546 0.105481 -0.947599 1.83335e+24
-35.6763 -17.3447 404.679 0.347464 0.118078 -0.930229 1.83335e+24
-37.2836 -17.3642 403.869 0.390525 0.131055 -0.911216 1.83335e+24
-38.9011 -17.2254 403.092 0.416768 0.143704 -0.897582 1.83335e+24
-40.5542 -16.8314 402.498 0.408406 0.146567 -0.900956 1.83335e+24
-42.1695 -17.185 401.787 0.40371 0.14659 -0.903067 1.83335e+24
-43.8428 -17.4906 401.199 0.398969 0.135804 -0.906852 1.83335e+24
-45.4294 -17.8443 400.425 0.391025 0.114346 -0.913249 1.83335e+24
