# .PCD v0.7 - Point Cloud Data file format
# 6 209 0
# 1 20 0
# 21 104 0
# 105 122 0
# 123 151 0
# 152 191 0
# 192 209 0
VERSION 0.7
FIELDS x y z normal_x normal_y normal_z curvature
SIZE 4 4 4 4 4 4 4
TYPE F F F F F F F
COUNT 1 1 1 1 1 1 1
WIDTH 209
HEIGHT 1
VIEWPOINT 0 0 0 1 0 0 0
POINTS 209
DATA ascii
65.0397 -52.5628 401.704 -0.291548 -0.241009 -0.925697 1.83335e+24
63.3904 -52.4839 402.421 -0.294877 -0.236672 -0.925761 1.83335e+24
61.8209 -53.03 403.113 -0.297184 -0.232795 -0.926006 1.83335e+24
60.11 -52.5883 403.456 -0.302984 -0.228062 -0.925304 1.83335e+24
58.4184 -52.6319 404.069 -0.305625 -0.224442 -0.925321 1.83335e+24
56.8491 -53.0559 404.842 -0.301665 -0.223295 -0.926897 1.83335e+24
55.1754 -53.4731 405.357 -0.297796 -0.222135 -0.928425 1.83335e+24
53.4579 -53.5033 405.895 -0.294138 -0.221234 -0.929805 1.83335e+24
51.7341 -53.3973 406.402 -0.290696 -0.220526 -0.931055 1.83335e+24
50.0225 -53.1447 406.899 -0.287479 -0.220044 -0.932168 1.83335e+24
48.3093 -53.2255 407.445 -0.284313 -0.219494 -0.933268 1.83335e+24
46.7678 -53.9133 408.07 -0.281562 -0.218815 -0.93426 1.83335e+24
45.0601 -53.4233 408.359 -0.275874 -0.220033 -0.93567 1.83335e+24
43.3188 -53.21 408.762 -0.268724 -0.221495 -0.937405 1.83335e+24
41.6937 -53.6752 409.38 -0.262397 -0.222708 -0.938908 1.83335e+24
39.993 -53.8516 409.943 -0.255719 -0.22429 -0.940373 1.83335e+24
38.2647 -53.9951 410.425 -0.249117 -0.226102 -0.94171 1.83335e+24
36.5875 -54.389 410.947 -0.242177 -0.224073 -0.944003 1.83335e+24
34.8957 -54.6531 411.502 -0.235054 -0.222342 -0.94621 1.83335e+24
34.0083 -54.3192 411.472 -0.231696 -0.223641 -0.946732 1.83335e+24
32.2692 -54.4597 411.914 -0.226533 -0.221738 -0.948428 1.83335e+24
30.5413 -54.5605 412.409 -0.223236 -0.219389 -0.949755 1.83335e+24
29.0569 -55.3664 413.031 -0.219706 -0.214277 -0.951743 1.83335e+24
27.3028 -55.0899 413.325 -0.216925 -0.213369 -0.952584 1.83335e+24
25.7354 -55.7373 413.928 -0.213349 -0.208564 -0.954454 1.83335e+24
23.9549 -55.5667 414.13 -0.210515 -0.206969 -0.95543 1.83335e+24
22.221 -55.8538 414.519 -0.207049 -0.20316 -0.957004 1.83335e+24
20.5804 -56.3351 415.081 -0.20317 -0.198177 -0.958879 1.83335e+24
18.8766 -56.7121 415.523 -0.198826 -0.193376 -0.960767 1.83335e+24
17.1229 -56.8356 415.91 -0.193276 -0.189579 -0.962655 1.83335e+24
15.3584 -56.911 416.257 -0.187616 -0.18567 -0.964535 1.83335e+24
13.7143 -57.4055 416.798 -0.181096 -0.179506 -0.966945 1.83335e+24
12.0429 -57.9813 417.137 -0.174187 -0.172765 -0.969439 1.83335e+24
10.2644 -57.9178 417.407 -0.168299 -0.168401 -0.971245 1.83335e+24
8.60598 -58.5328 417.741 -0.160845 -0.160639 -0.973819 1.83335e+24
6.98328 -59.2145 418.117 -0.15297 -0.152148 -0.976448 1.83335e+24
5.21245 -59.2904 418.431 -0.146329 -0.145834 -0.978427 1.83335e+24
3.58453 -59.9015 418.896 -0.136747 -0.137303 -0.981044 1.83335e+24
1.84373 -60.2337 419.211 -0.12866 -0.130667 -0.983043 1.83335e+24
0.162361 -59.5952 419.284 -0.124479 -0.131829 -0.983426 1.83335e+24
-0.813867 -58.1034 419.036 -0.122801 -0.142042 -0.982214 1.83335e+24
-1.64744 -56.5114 418.932 -0.119854 -0.154202 -0.980743 1.83335e+24
-2.22424 -54.8321 418.637 -0.116624 -0.167637 -0.978926 1.83335e+24
-2.32849 -53.0527 418.387 -0.11518 -0.181318 -0.976656 1.83335e+24
-3.32097 -51.5585 418.237 -0.108979 -0.19262 -0.975203 1.83335e+24
-3.94318 -49.8851 418.008 -0.104902 -0.203952 -0.973344 1.83335e+24
-4.54703 -48.2189 417.693 -0.101714 -0.213715 -0.971586 1.83335e+24
-4.92222 -46.4904 417.359 -0.102224 -0.222055 -0.969661 1.83335e+24
-5.82693 -44.9565 417.097 -0.106317 -0.225005 -0.96854 1.83335e+24
-7.19928 -43.7976 416.98 -0.107593 -0.223542 -0.968738 1.83335e+24
-7.96205 -42.2033 416.639 -0.111634 -0.224468 -0.968066 1.83335e+24
-9.08663 -40.818 416.402 -0.113149 -0.222635 -0.968314 1.83335e+24
-9.79587 -39.1853 416.135 -0.117355 -0.225353 -0.967184 1.83335e+24
-10.6504 -37.6222 415.877 -0.120161 -0.231048 -0.965494 1.83335e+24
-11.7468 -36.2045 415.71 -0.120442 -0.236588 -0.964116 1.83335e+24
-12.2432 -34.5001 415.412 -0.123286 -0.247018 -0.961136 1.83335e+24
-13.4368 -33.1804 415.141 -0.122049 -0.253833 -0.959517 1.83335e+24
-13.9474 -31.5092 414.709 -0.123998 -0.265019 -0.956237 1.83335e+24
-14.6576 -29.899 414.331 -0.120492 -0.275843 -0.953621 1.83335e+24
-15.6746 -28.4445 414.031 -0.111621 -0.285511 -0.951853 1.83335e+24
-16.68 -26.9655 413.827 -0.103717 -0.294754 -0.949928 1.83335e+24
-16.9568 -25.2607 413.32 -0.103068 -0.305815 -0.946496 1.83335e+24
-17.258 -23.5603 412.812 -0.102479 -0.315993 -0.943211 1.83335e+24
-18.2844 -22.1688 412.311 -0.0961106 -0.321778 -0.941924 1.83335e+24
-19.0263 -20.6094 411.804 -0.0914847 -0.324136 -0.941577 1.83335e+24
-19.5966 -18.9738 411.314 -0.088301 -0.326699 -0.940995 1.83335e+24
-20.1433 -17.2907 410.985 -0.0853626 -0.329304 -0.940357 1.83335e+24
-20.2615 -15.6218 410.321 -0.0852216 -0.332128 -0.939376 1.83335e+24
-20.9044 -14.0361 409.762 -0.0821214 -0.3347 -0.93874 1.83335e+24
-22.0342 -12.6928 409.364 -0.0766767 -0.336649 -0.938503 1.83335e+24
-22.0284 -10.9797 408.811 -0.0774148 -0.339351 -0.937469 1.83335e+24
-22.5855 -9.32437 408.376 -0.0754907 -0.341612 -0.936804 1.83335e+24
-22.6778 -7.64241 407.741 -0.0760206 -0.343977 -0.935896 1.83335e+24
-22.6321 -5.97204 407.072 -0.0771263 -0.345284 -0.935324 1.83335e+24
-22.3443 -4.31633 406.427 -0.0793378 -0.345523 -0.935051 1.83335e+24
-21.5373 -2.82346 405.827 -0.0836775 -0.346067 -0.934471 1.83335e+24
-21.7795 -1.14877 405.214 -0.0844344 -0.345868 -0.934477 1.83335e+24
-21.5356 0.497322 404.527 -0.0873083 -0.345974 -0.934173 1.83335e+24
-21.0261 2.09761 403.88 -0.0912066 -0.346372 -0.933653 1.83335e+24
-20.3793 3.6448 403.225 -0.0956021 -0.346996 -0.932981 1.83335e+24
-19.6363 5.16075 402.601 -0.100298 -0.347806 -0.932186 1.83335e+24
-18.6971 6.58055 402.016 -0.105504 -0.348932 -0.93119 1.83335e+24
-17.816 8.01675 401.383 -0.110719 -0.350437 -0.930019 1.83335e+24
-17.4041 9.70189 400.903 -0.114935 -0.354396 -0.928005 1.83335e+24
-16.6092 11.1168 400.124 -0.119678 -0.358643 -0.925771 1.83335e+24
-15.474 12.3307 399.433 -0.124681 -0.362579 -0.923575 1.83335e+24
-14.8547 13.8833 398.765 -0.127929 -0.366598 -0.921542 1.83335e+24
-14.2938 15.5376 398.331 -0.130398 -0.370636 -0.919579 1.83335e+24
-13.0172 16.6823 397.783 -0.134448 -0.373718 -0.917747 1.83335e+24
-11.7746 17.668 396.932 -0.138315 -0.376376 -0.916084 1.83335e+24
-10.4837 18.4756 395.972 -0.142304 -0.378374 -0.914649 1.83335e+24
-9.72047 19.9802 395.345 -0.143951 -0.381621 -0.913041 1.83335e+24
-8.82799 21.3892 394.668 -0.145998 -0.385826 -0.910946 1.83335e+24
-7.37183 22.194 393.981 -0.151479 -0.391304 -0.907709 1.83335e+24
-5.92335 23.1095 393.43 -0.157493 -0.397106 -0.904159 1.83335e+24
-4.65338 24.2296 392.82 -0.163239 -0.404186 -0.899993 1.83335e+24
-3.26401 25.1448 392.132 -0.170295 -0.410062 -0.896018 1.83335e+24
-2.15438 26.3408 391.372 -0.175183 -0.417926 -0.891431 1.83335e+24
-0.976394 27.4519 390.586 -0.176062 -0.42643 -0.88722 1.83335e+24
0.0495452 28.6774 389.758 -0.176963 -0.435383 -0.882681 1.83335e+24
1.03512 29.9325 388.925 -0.177606 -0.444299 -0.878097 1.83335e+24
2.20806 31.0004 388.074 -0.177898 -0.452042 -0.874077 1.83335e+24
3.2015 32.3012 387.326 -0.177585 -0.460429 -0.869752 1.83335e+24
4.49446 33.2759 386.539 -0.177639 -0.472057 -0.863485 1.83335e+24
5.89378 34.0796 385.742 -0.177811 -0.484294 -0.856646 1.83335e+24
7.02106 35.1603 384.847 -0.177576 -0.499825 -0.847727 1.83335e+24
7.56772 36.6588 384.013 -0.176699 -0.519367 -0.836083 1.83335e+24
8.81874 37.5116 383.039 -0.1754 -0.532924 -0.827784 1.83335e+24
9.4628 38.8836 382.068 -0.173101 -0.551958 -0.815707 1.83335e+24
10.1772 40.1374 380.992 -0.169865 -0.570391 -0.803617 1.83335e+24
10.8285 41.3788 379.863 -0.165559 -0.589052 -0.790954 1.83335e+24
11.2881 42.6844 378.712 -0.160146 -0.608774 -0.777012 1.83335e+24
11.4868 44.1253 377.652 -0.153817 -0.629739 -0.761425 1.83335e+24
11.5911 45.4932 376.487 -0.147478 -0.664613 -0.732488 1.83335e+24
11.9949 46.7173 375.23 -0.141548 -0.694165 -0.705761 1.83335e+24
11.7024 48.0923 374.106 -0.138254 -0.721097 -0.6789 1.83335e+24
11.7395 49.3046 372.776 -0.135807 -0.744192 -0.654014 1.83335e+24
12.0066 50.4918 371.45 -0.134591 -0.763877 -0.631172 1.83335e+24
12.6972 51.1514 369.924 -0.133484 -0.780001 -0.611375 1.83335e+24
12.7024 52.3776 368.606 -0.136464 -0.79524 -0.590737 1.83335e+24
13.1999 53.3245 367.158 -0.139371 -0.808906 -0.57118 1.83335e+24
14.6305 53.6499 366.116 -0.137646 -0.819429 -0.556408 1.83335e+24
15.8112 54.2706 364.907 -0.138847 -0.831281 -0.538232 1.83335e+24
17.4705 54.4172 364.225 -0.141375 -0.838459 -0.526308 1.83335e+24
19.1344 54.6821 363.592 -0.142268 -0.844256 -0.516712 1.83335e+24
20.8767 54.2308 363.564 -0.141849 -0.842702 -0.519358 1.83335e+24
22.5548 53.7485 364.002 -0.143635 -0.835357 -0.53061 1.83335e+24
24.032 52.9672 364.67 -0.148844 -0.823082 -0.54807 1.83335e+24
25.5767 52.3155 365.326 -0.155757 -0.809567 -0.565987 1.83335e+24
26.9665 51.4814 366.108 -0.164978 -0.792936 -0.586545 1.83335e+24
28.6116 50.8383 366.455 -0.175528 -0.778525 -0.602568 1.83335e+24
30.1719 50.0836 366.941 -0.190711 -0.761684 -0.619247 1.83335e+24
31.7511 49.3104 367.326 -0.205187 -0.7455 -0.634135 1.83335e+24
33.3377 48.5394 367.684 -0.219087 -0.729714 -0.647702 1.83335e+24
35.0666 48.0511 367.571 -0.23085 -0.719218 -0.655312 1.83335e+24
36.7683 47.4669 367.625 -0.243067 -0.707107 -0.664017 1.83335e+24
38.4228 46.7732 367.772 -0.255345 -0.694041 -0.673132 1.83335e+24
40.1406 46.2624 367.605 -0.26629 -0.684426 -0.678712 1.83335e+24
41.8768 45.9738 367.227 -0.268432 -0.679573 -0.682733 1.83335e+24
43.5345 45.2831 367.104 -0.269379 -0.671231 -0.690568 1.83335e+24
45.2401 44.9482 366.637 -0.268225 -0.666873 -0.695223 1.83335e+24
46.0308 43.6874 367.649 -0.273869 -0.651059 -0.707897 1.83335e+24
45.8343 42.4425 368.935 -0.279325 -0.635365 -0.719923 1.83335e+24
46.379 41.0553 369.944 -0.283123 -0.617498 -0.733851 1.83335e+24
47.2311 39.7029 370.772 -0.285721 -0.599678 -0.747495 1.83335e+24
47.6793 38.2512 371.737 -0.287291 -0.579175 -0.762903 1.83335e+24
48.8791 37.0573 372.349 -0.288243 -0.562246 -0.77511 1.83335e+24
49.5479 35.5211 373.007 -0.287864 -0.539876 -0.790992 1.83335e+24
50.3689 34.0521 373.646 -0.287444 -0.520156 -0.804247 1.83335e+24
51.4519 32.7368 374.226 -0.288677 -0.507785 -0.811678 1.83335e+24
52.7324 31.4899 374.44 -0.29479 -0.496029 -0.816734 1.83335e+24
54.2938 30.5966 374.377 -0.303019 -0.487489 -0.818861 1.83335e+24
55.8753 29.737 374.39 -0.31129 -0.478996 -0.820769 1.83335e+24
56.9769 28.3511 374.715 -0.317533 -0.466201 -0.82573 1.83335e+24
58.1658 27.0281 374.991 -0.3239 -0.454617 -0.829706 1.83335e+24
59.6214 25.9691 374.991 -0.331502 -0.446436 -0.831145 1.83335e+24
61.2033 25.1103 374.983 -0.33957 -0.440323 -0.831148 1.83335e+24
62.0628 23.566 375.324 -0.343278 -0.430286 -0.834874 1.83335e+24
63.2952 22.2636 375.482 -0.346605 -0.424149 -0.836638 1.83335e+24
64.6793 21.1129 375.475 -0.349598 -0.420537 -0.837216 1.83335e+24
65.6113 19.6124 375.821 -0.350204 -0.414962 -0.839741 1.83335e+24
66.8676 18.3291 375.944 -0.352601 -0.411988 -0.840201 1.83335e+24
67.9816 16.9319 376.16 -0.354256 -0.409087 -0.840922 1.83335e+24
68.8629 15.4127 376.554 -0.354465 -0.406103 -0.84228 1.83335e+24
70.4801 14.659 376.316 -0.360335 -0.407397 -0.839158 1.83335e+24
71.8464 13.4942 376.188 -0.364614 -0.407657 -0.837181 1.83335e+24
73.2427 12.3599 376.125 -0.36723 -0.408758 -0.835499 1.83335e+24
74.601 11.1818 376.041 -0.363708 -0.409494 -0.836679 1.83335e+24
75.9613 10.0032 376.024 -0.361255 -0.40837 -0.838289 1.83335e+24
77.5372 9.21003 375.667 -0.359946 -0.408102 -0.838983 1.83335e+24
78.2904 7.63549 376.107 -0.358881 -0.402518 -0.84213 1.83335e+24
78.1107 6.05845 376.956 -0.358191 -0.395919 -0.845546 1.83335e+24
77.9013 4.46071 377.758 -0.35735 -0.389581 -0.848839 1.83335e+24
77.8161 2.82102 378.495 -0.356555 -0.383483 -0.851945 1.83335e+24
77.6933 1.23471 379.337 -0.355596 -0.377646 -0.854947 1.83335e+24
77.7987 -0.359724 380.166 -0.354985 -0.372084 -0.857636 1.83335e+24
77.8691 -2.04301 380.799 -0.354473 -0.366775 -0.860131 1.83335e+24
78.2965 -3.72412 381.28 -0.354889 -0.361749 -0.862086 1.83335e+24
78.3794 -5.41002 381.906 -0.354354 -0.355673 -0.864829 1.83335e+24
78.9689 -7.0576 382.327 -0.355426 -0.349984 -0.866708 1.83335e+24
79.5022 -8.7229 382.754 -0.356468 -0.344264 -0.868569 1.83335e+24
79.672 -10.4232 383.32 -0.356538 -0.338444 -0.870825 1.83335e+24
80.083 -12.0699 383.92 -0.35711 -0.332925 -0.872716 1.83335e+24
80.2059 -13.7513 384.551 -0.35685 -0.327548 -0.874854 1.83335e+24
80.1369 -15.4465 385.152 -0.355994 -0.322432 -0.877101 1.83335e+24
80.067 -17.1628 385.69 -0.354983 -0.317604 -0.87927 1.83335e+24
80.1224 -18.8569 386.296 -0.353921 -0.313119 -0.881304 1.83335e+24
79.7725 -20.476 387 -0.351784 -0.309362 -0.883484 1.83335e+24
79.7058 -22.1544 387.647 -0.350117 -0.306171 -0.885256 1.83335e+24
79.6243 -23.829 388.302 -0.348148 -0.30303 -0.887111 1.83335e+24
78.5633 -25.0404 389.106 -0.344694 -0.299612 -0.889617 1.83335e+24
78.3358 -26.7255 389.696 -0.342284 -0.296256 -0.891669 1.83335e+24
77.9642 -28.3448 390.389 -0.339484 -0.292726 -0.893902 1.83335e+24
77.7588 -30.0034 391.058 -0.336706 -0.289295 -0.896068 1.83335e+24
77.3309 -31.5922 391.788 -0.333603 -0.285558 -0.898424 1.83335e+24
76.3533 -32.9143 392.52 -0.330405 -0.281339 -0.900933 1.83335e+24
76.1072 -34.5936 393.119 -0.327405 -0.277958 -0.903076 1.83335e+24
75.5986 -36.205 393.74 -0.32444 -0.275589 -0.90487 1.83335e+24
74.9231 -37.6723 394.534 -0.32129 -0.272823 -0.90683 1.83335e+24
73.6324 -38.7455 395.184 -0.318642 -0.269213 -0.908841 1.83335e+24
73.1065 -40.3478 395.813 -0.315175 -0.266392 -0.910879 1.83335e+24
72.235 -41.7612 396.508 -0.31187 -0.262843 -0.913045 1.83335e+24
71.435 -43.1972 397.241 -0.308442 -0.259203 -0.915247 1.83335e+24
70.0473 -44.1165 397.926 -0.306443 -0.254538 -0.917226 1.83335e+24
69.5914 -45.6735 398.706 -0.302603 -0.251157 -0.91943 1.83335e+24
68.4762 -46.9461 399.32 -0.299978 -0.246652 -0.921508 1.83335e+24
67.5531 -48.3483 399.969 -0.297654 -0.245047 -0.922688 1.83335e+24
66.3483 -49.5317 400.592 -0.296473 -0.242711 -0.923685 1.83335e+24
66.1105 -51.2268 401.149 -0.292927 -0.242908 -0.924765 1.83335e+24
