# .PCD v0.7 - Point Cloud Data file format
# 4 60 0
# 1 13 0
# 14 33 0
# 34 52 0
# 53 60 0
VERSION 0.7
FIELDS x y z normal_x normal_y normal_z curvature
SIZE 4 4 4 4 4 4 4
TYPE F F F F F F F
COUNT 1 1 1 1 1 1 1
WIDTH 60
HEIGHT 1
VIEWPOINT 0 0 0 1 0 0 0
POINTS 60
DATA ascii
-34.9908 -2.39141 310.798 -0.341565 -0.527052 -0.778171 1.83335e+24
-35.7915 -0.888243 310.215 -0.376537 -0.49263 -0.784561 1.83335e+24
-35.3903 0.586448 309.264 -0.368285 -0.458384 -0.808857 1.83335e+24
-34.7192 1.88274 308.211 -0.347119 -0.443566 -0.826292 1.83335e+24
-34.373 3.40733 307.319 -0.35212 -0.444891 -0.823458 1.83335e+24
-33.862 4.7854 306.28 -0.352838 -0.456016 -0.81704 1.83335e+24
-33.3969 6.22082 305.299 -0.362529 -0.467483 -0.806246 1.83335e+24
-32.7292 7.45378 304.17 -0.341338 -0.489558 -0.802385 1.83335e+24
-32.3854 8.95689 303.241 -0.346179 -0.495145 -0.796864 1.83335e+24
-31.8772 10.1745 302.15 -0.340569 -0.508674 -0.790736 1.83335e+24
-31.3015 11.4337 301 -0.345074 -0.526576 -0.776944 1.83335e+24
-30.6326 12.647 299.851 -0.344011 -0.545964 -0.763924 1.83335e+24
-30.0357 13.892 298.696 -0.340901 -0.553856 -0.759625 1.83335e+24
-29.6993 15.3244 297.659 -0.364493 -0.537389 -0.760498 1.83335e+24
-29.0754 16.4884 296.436 -0.373728 -0.537749 -0.755747 1.83335e+24
-28.1338 17.3924 295.196 -0.367794 -0.570876 -0.734049 1.83335e+24
-27.7446 18.8125 294.161 -0.397733 -0.559157 -0.727429 1.83335e+24
-27.0994 19.9281 292.904 -0.388825 -0.557533 -0.733465 1.83335e+24
-26.4743 21.1476 291.738 -0.399855 -0.558054 -0.727112 1.83335e+24
-25.689 22.0231 290.375 -0.402077 -0.583333 -0.705732 1.83335e+24
-25.1178 23.2015 289.14 -0.422845 -0.594565 -0.683882 1.83335e+24
-23.7399 23.3598 287.992 -0.357962 -0.663132 -0.657358 1.83335e+24
-22.3606 22.3133 288.485 -0.247069 -0.708062 -0.661518 1.83335e+24
-21.1141 21.26 289.244 -0.228923 -0.715264 -0.660297 1.83335e+24
-19.7886 20.1672 289.782 -0.250508 -0.706958 -0.661405 1.83335e+24
-18.589 19.0605 290.541 -0.253212 -0.722065 -0.643822 1.83335e+24
-17.3018 18.0639 291.309 -0.242872 -0.741941 -0.624929 1.83335e+24
-16.7296 16.8424 292.501 -0.217768 -0.72406 -0.654457 1.83335e+24
-15.507 15.7737 293.277 -0.224447 -0.695066 -0.683013 1.83335e+24
-14.3389 14.5878 293.962 -0.254911 -0.656646 -0.709814 1.83335e+24
-13.2852 13.3242 294.692 -0.286195 -0.628037 -0.723645 1.83335e+24
-12.2611 12.0134 295.38 -0.318286 -0.596282 -0.736982 1.83335e+24
-11.0303 10.7615 295.777 -0.34736 -0.571916 -0.743137 1.83335e+24
-10.0059 9.37 296.282 -0.356827 -0.560837 -0.747086 1.83335e+24
-8.91934 8.05788 296.863 -0.350799 -0.555447 -0.753936 1.83335e+24
-7.72563 6.7792 297.287 -0.346909 -0.545533 -0.762921 1.83335e+24
-7.00662 5.25071 297.909 -0.34907 -0.525016 -0.776214 1.83335e+24
-5.99667 3.8445 298.402 -0.348672 -0.507304 -0.78808 1.83335e+24
-5.2112 2.35588 299.04 -0.341864 -0.506404 -0.791634 1.83335e+24
-4.29285 0.907932 299.587 -0.338083 -0.501215 -0.796544 1.83335e+24
-3.49002 -0.571533 300.225 -0.350164 -0.488398 -0.799283 1.83335e+24
-2.94652 -2.14869 300.901 -0.454934 -0.400795 -0.795235 1.83335e+24
-4.29539 -2.78584 301.909 -0.385163 -0.479619 -0.788425 1.83335e+24
-5.93306 -2.78575 302.656 -0.35512 -0.504016 -0.78731 1.83335e+24
-7.49797 -3.00778 303.517 -0.346562 -0.513884 -0.784741 1.83335e+24
-9.16542 -2.95901 304.193 -0.340037 -0.522722 -0.781752 1.83335e+24
-10.7416 -3.10302 305.05 -0.332028 -0.534837 -0.776986 1.83335e+24
-12.4001 -3.20587 305.742 -0.313869 -0.537992 -0.782337 1.83335e+24
-14.1287 -3.0793 306.228 -0.301331 -0.529994 -0.792658 1.83335e+24
-15.8478 -2.94496 306.744 -0.290574 -0.518646 -0.804097 1.83335e+24
-17.4503 -2.81909 307.554 -0.277117 -0.51127 -0.813517 1.83335e+24
-19.2012 -2.41896 307.674 -0.258368 -0.506966 -0.822333 1.83335e+24
-20.9529 -2.37703 308.086 -0.206695 -0.5079 -0.83625 1.83335e+24
-22.7131 -2.26737 308.446 -0.149858 -0.51068 -0.84661 1.83335e+24
-24.4943 -2.3091 308.702 -0.126025 -0.513944 -0.848516 1.83335e+24
-26.2829 -2.28294 308.903 -0.116342 -0.513883 -0.849935 1.83335e+24
-28.0436 -2.36088 309.269 -0.110672 -0.510885 -0.852495 1.83335e+24
-29.8131 -2.55793 309.533 -0.10913 -0.507828 -0.854518 1.83335e+24
-31.5275 -2.71392 310.059 -0.142219 -0.514171 -0.845814 1.83335e+24
-33.3228 -2.65781 310.176 -0.265254 -0.531236 -0.80463 1.83335e+24
