# .PCD v0.7 - Point Cloud Data file format
# 5 152 0
# 1 29 0
# 30 91 0
# 92 116 0
# 117 149 0
# 150 152 0
VERSION 0.7
FIELDS x y z normal_x normal_y normal_z curvature
SIZE 4 4 4 4 4 4 4
TYPE F F F F F F F
COUNT 1 1 1 1 1 1 1
WIDTH 152
HEIGHT 1
VIEWPOINT 0 0 0 1 0 0 0
POINTS 152
DATA ascii
-12.0328 36.3833 370.078 -0.535661 -0.190652 -0.822629 1.83335e+24
-11.1258 37.7134 369.273 -0.549454 -0.189989 -0.813637 1.83335e+24
-9.70669 38.202 368.279 -0.554269 -0.193179 -0.80961 1.83335e+24
-8.56004 38.8927 367.076 -0.555524 -0.188711 -0.809803 1.83335e+24
-6.94895 40.2691 366 -0.551198 -0.173837 -0.816065 1.83335e+24
-6.10238 41.6496 365.214 -0.544167 -0.157446 -0.824071 1.83335e+24
-5.03647 42.5092 364.046 -0.534156 -0.14218 -0.833344 1.83335e+24
-3.70028 43.2782 363.116 -0.50565 -0.130873 -0.852754 1.83335e+24
-2.52107 44.3986 362.346 -0.467471 -0.117937 -0.876106 1.83335e+24
-1.46497 45.6882 361.666 -0.430729 -0.102533 -0.896638 1.83335e+24
-0.565718 47.1342 361.083 -0.397017 -0.0862418 -0.91375 1.83335e+24
0.616108 48.3724 360.526 -0.355171 -0.0704487 -0.932143 1.83335e+24
2.06355 49.2817 359.962 -0.30702 -0.0563874 -0.950031 1.83335e+24
3.3272 50.4815 359.511 -0.269673 -0.0398155 -0.962129 1.83335e+24
4.26881 52.0079 359.358 -0.248952 -0.0216211 -0.968274 1.83335e+24
5.59484 53.1847 359.046 -0.226929 -0.00632836 -0.973891 1.83335e+24
7.03934 54.1191 358.517 -0.207222 0.00469146 -0.978283 1.83335e+24
8.32525 55.3541 358.269 -0.193698 0.0156328 -0.980937 1.83335e+24
9.82785 56.3234 358.063 -0.182134 0.0212928 -0.983043 1.83335e+24
11.3546 57.2412 357.805 -0.179248 0.024101 -0.983509 1.83335e+24
12.6076 58.5176 357.603 -0.183186 0.022695 -0.982816 1.83335e+24
14.0979 59.4873 357.323 -0.18398 0.0227356 -0.982667 1.83335e+24
15.4738 60.6225 357.081 -0.181539 0.0276055 -0.982996 1.83335e+24
16.8909 61.7196 356.913 -0.175294 0.037006 -0.98382 1.83335e+24
18.5006 62.46 356.596 -0.166615 0.0511277 -0.984696 1.83335e+24
20.0509 63.3641 356.457 -0.12118 0.0666953 -0.990387 1.83335e+24
21.5792 64.3136 356.406 -0.0711041 0.08566 -0.993784 1.83335e+24
23.1178 65.2457 356.468 -0.0188873 0.106752 -0.994106 1.83335e+24
24.6841 66.1301 356.537 0.0337993 0.12853 -0.99113 1.83335e+24
25.7327 67.5411 356.923 0.0766836 0.149342 -0.985808 1.83335e+24
27.4108 68.1763 357.067 0.118196 0.169393 -0.978435 1.83335e+24
28.9666 68.9984 357.446 0.145369 0.187853 -0.97138 1.83335e+24
30.4394 69.9774 357.781 0.163945 0.202852 -0.965388 1.83335e+24
32.0118 69.1252 357.985 0.174369 0.19704 -0.964765 1.83335e+24
32.5056 67.4235 357.668 0.183184 0.18018 -0.966426 1.83335e+24
33.2436 65.7845 357.575 0.19973 0.162312 -0.966314 1.83335e+24
33.927 64.1208 357.502 0.209135 0.145798 -0.966957 1.83335e+24
34.3497 62.3916 357.235 0.211932 0.13136 -0.968416 1.83335e+24
34.9022 60.6867 357.067 0.21344 0.118308 -0.969766 1.83335e+24
35.4029 58.962 356.946 0.214157 0.106145 -0.971015 1.83335e+24
36.2102 57.3563 357.046 0.217169 0.0959304 -0.971409 1.83335e+24
36.7403 55.6368 356.999 0.219584 0.0847256 -0.971908 1.83335e+24
37.286 53.9215 357.007 0.222869 0.0665317 -0.972575 1.83335e+24
37.9352 52.246 357.113 0.230277 0.0480954 -0.971936 1.83335e+24
38.5232 50.5528 357.279 0.239506 0.0295892 -0.970444 1.83335e+24
39.1369 48.8727 357.48 0.251115 0.0118021 -0.967885 1.83335e+24
39.4701 47.1038 357.473 0.244866 -0.00504977 -0.969544 1.83335e+24
39.9062 45.3598 357.562 0.23322 -0.0202568 -0.972213 1.83335e+24
40.2167 43.5873 357.606 0.225521 -0.0348808 -0.973614 1.83335e+24
40.7698 41.9061 357.934 0.215234 -0.0488105 -0.975342 1.83335e+24
40.9198 40.1123 357.94 0.212523 -0.0663835 -0.974898 1.83335e+24
41.3275 38.3784 358.199 0.2086 -0.0834569 -0.974434 1.83335e+24
41.5558 36.6018 358.377 0.207557 -0.100758 -0.97302 1.83335e+24
42.1342 34.945 358.777 0.205719 -0.117116 -0.971578 1.83335e+24
42.571 33.2402 359.155 0.205753 -0.133421 -0.969466 1.83335e+24
42.6638 31.4524 359.343 0.206955 -0.149252 -0.966899 1.83335e+24
43.1019 29.7704 359.811 0.207672 -0.164901 -0.964199 1.83335e+24
43.0979 27.9793 359.99 0.209017 -0.182676 -0.960698 1.83335e+24
43.6422 26.3697 360.584 0.211684 -0.199769 -0.956704 1.83335e+24
43.7827 24.6135 360.953 0.214594 -0.217031 -0.952285 1.83335e+24
43.8015 22.844 361.282 0.217494 -0.233666 -0.94768 1.83335e+24
44.1036 21.1611 361.844 0.222112 -0.250074 -0.942406 1.83335e+24
44.2979 19.4643 362.413 0.226936 -0.266007 -0.936878 1.83335e+24
44.4473 17.7451 362.925 0.231923 -0.28138 -0.931148 1.83335e+24
44.7463 16.1064 363.607 0.238623 -0.297687 -0.92436 1.83335e+24
44.6775 14.3833 364.123 0.242243 -0.313409 -0.918201 1.83335e+24
44.4464 12.6427 364.519 0.243357 -0.328623 -0.91257 1.83335e+24
44.8012 11.0659 365.312 0.250669 -0.344186 -0.904821 1.83335e+24
44.7481 9.37014 365.913 0.25274 -0.359549 -0.898247 1.83335e+24
44.7267 7.70329 366.592 0.254417 -0.374836 -0.891499 1.83335e+24
44.6916 6.04584 367.293 0.254916 -0.390045 -0.884807 1.83335e+24
44.7939 4.53156 368.261 0.256844 -0.40361 -0.87814 1.83335e+24
44.2327 2.83929 368.508 0.246959 -0.417658 -0.874399 1.83335e+24
44.5998 1.40471 369.532 0.249297 -0.430242 -0.867608 1.83335e+24
44.3 -0.251508 370.17 0.240942 -0.446031 -0.861976 1.83335e+24
44.1524 -1.86056 370.963 0.233854 -0.462099 -0.855439 1.83335e+24
43.7599 -3.47346 371.659 0.2239 -0.479403 -0.848553 1.83335e+24
43.921 -4.94834 372.678 0.219583 -0.495028 -0.840672 1.83335e+24
43.8703 -6.42513 373.706 0.213204 -0.509361 -0.833724 1.83335e+24
43.3036 -8.03241 374.285 0.203739 -0.522515 -0.82793 1.83335e+24
42.9201 -9.55185 375.171 0.196042 -0.53626 -0.820971 1.83335e+24
42.2355 -10.8394 376.226 0.188878 -0.550875 -0.812934 1.83335e+24
40.7381 -11.8342 376.317 0.183727 -0.561172 -0.80705 1.83335e+24
39.3092 -12.873 376.662 0.180305 -0.570977 -0.800922 1.83335e+24
38.2942 -14.1772 377.375 0.17975 -0.582865 -0.792438 1.83335e+24
38.379 -15.6108 378.461 0.181396 -0.597924 -0.780758 1.83335e+24
38.1048 -17.0115 379.557 0.184231 -0.612552 -0.768661 1.83335e+24
37.7596 -18.4543 380.577 0.187589 -0.625468 -0.757364 1.83335e+24
37.4413 -19.8533 381.664 0.190653 -0.637183 -0.746759 1.83335e+24
37.0661 -21.2282 382.763 0.193394 -0.647826 -0.736831 1.83335e+24
36.844 -22.549 383.966 0.193922 -0.658095 -0.727534 1.83335e+24
36.4032 -23.9026 385.067 0.192269 -0.668023 -0.718873 1.83335e+24
36.283 -25.1243 386.384 0.186082 -0.677777 -0.711331 1.83335e+24
35.0382 -26.2723 386.994 0.145063 -0.690759 -0.708385 1.83335e+24
33.6128 -27.2281 387.537 0.108973 -0.700539 -0.705245 1.83335e+24
31.8236 -27.2186 387.339 0.0733938 -0.700197 -0.710167 1.83335e+24
30.1157 -26.8311 386.924 0.0425274 -0.693534 -0.719167 1.83335e+24
28.5019 -26.3146 386.316 0.0034189 -0.68457 -0.728939 1.83335e+24
26.7087 -26.1989 386.212 -0.0366317 -0.677756 -0.734374 1.83335e+24
25.1086 -25.5767 385.671 -0.0741339 -0.667565 -0.740851 1.83335e+24
23.3825 -25.1161 385.451 -0.112138 -0.657929 -0.744684 1.83335e+24
21.7042 -24.4852 385.292 -0.138378 -0.648072 -0.748902 1.83335e+24
19.9714 -24.0011 385.236 -0.145841 -0.641366 -0.753246 1.83335e+24
18.2007 -23.7987 385.489 -0.151638 -0.638256 -0.754742 1.83335e+24
16.4721 -23.3295 385.667 -0.157017 -0.635777 -0.755734 1.83335e+24
14.7374 -22.8531 385.607 -0.161339 -0.634129 -0.756208 1.83335e+24
13.1998 -22.1195 385.026 -0.179212 -0.628658 -0.756751 1.83335e+24
11.4386 -21.7851 385.188 -0.201983 -0.624564 -0.754402 1.83335e+24
9.7225 -21.242 385.195 -0.225513 -0.617681 -0.753401 1.83335e+24
8.0696 -20.5305 385.236 -0.250031 -0.608748 -0.752935 1.83335e+24
6.36639 -20.5471 385.819 -0.276889 -0.602065 -0.748899 1.83335e+24
4.67364 -20.1936 386.318 -0.308411 -0.591336 -0.745121 1.83335e+24
3.03036 -19.7735 386.921 -0.33989 -0.579184 -0.740959 1.83335e+24
1.34039 -19.154 386.909 -0.371968 -0.563635 -0.737533 1.83335e+24
-0.26313 -19.0119 387.714 -0.39987 -0.551534 -0.732062 1.83335e+24
-1.90884 -18.6119 388.324 -0.42857 -0.536865 -0.726707 1.83335e+24
-3.4865 -18.3505 389.15 -0.457465 -0.522367 -0.719624 1.83335e+24
-4.94108 -18.4834 390.202 -0.483761 -0.509784 -0.711404 1.83335e+24
-6.46378 -18.3484 391.152 -0.510967 -0.494395 -0.703197 1.83335e+24
-7.98105 -17.5105 391.638 -0.528151 -0.480876 -0.699868 1.83335e+24
-8.52282 -15.891 391.069 -0.537662 -0.471501 -0.699004 1.83335e+24
-9.10723 -14.3104 390.436 -0.545302 -0.462032 -0.699409 1.83335e+24
-9.46638 -12.7217 389.67 -0.550724 -0.452332 -0.701498 1.83335e+24
-9.62933 -11.1647 388.782 -0.554274 -0.441254 -0.705744 1.83335e+24
-9.78582 -9.56756 387.966 -0.557239 -0.431318 -0.709541 1.83335e+24
-10.2072 -7.90442 387.422 -0.560977 -0.422384 -0.711967 1.83335e+24
-10.1858 -6.43191 386.387 -0.56252 -0.415154 -0.714996 1.83335e+24
-10.3732 -4.85149 385.546 -0.564597 -0.40793 -0.717512 1.83335e+24
-10.1028 -3.41852 384.491 -0.564533 -0.402254 -0.720759 1.83335e+24
-10.3378 -1.7694 383.809 -0.566291 -0.395948 -0.722869 1.83335e+24
-10.5211 -0.113756 383.127 -0.567656 -0.389353 -0.725377 1.83335e+24
-10.4983 1.48153 382.293 -0.567997 -0.379225 -0.730457 1.83335e+24
-10.2674 2.98722 381.334 -0.566814 -0.369705 -0.736234 1.83335e+24
-10.3084 4.65909 380.669 -0.566888 -0.359745 -0.741095 1.83335e+24
-10.3133 6.31296 379.958 -0.566081 -0.350109 -0.746308 1.83335e+24
-10.2487 7.88098 379.077 -0.564026 -0.340777 -0.75216 1.83335e+24
-10.2256 9.46725 378.226 -0.561467 -0.331638 -0.758136 1.83335e+24
-10.337 11.1642 377.636 -0.558338 -0.323338 -0.76401 1.83335e+24
-10.0627 12.6771 376.7 -0.554552 -0.315061 -0.7702 1.83335e+24
-10.2065 14.382 376.141 -0.550408 -0.308087 -0.775972 1.83335e+24
-10.2944 16.0839 375.562 -0.545807 -0.301076 -0.781952 1.83335e+24
-10.5044 17.8187 375.13 -0.540052 -0.294974 -0.788247 1.83335e+24
-10.5085 19.4486 374.366 -0.535464 -0.287428 -0.794143 1.83335e+24
-10.5646 21.1481 373.776 -0.53003 -0.280455 -0.800258 1.83335e+24
-10.8353 22.9247 373.673 -0.52143 -0.275952 -0.807441 1.83335e+24
-10.3041 24.2567 372.585 -0.523013 -0.267318 -0.809319 1.83335e+24
-10.7224 25.9911 372.348 -0.514821 -0.264439 -0.815495 1.83335e+24
-10.7407 27.719 371.843 -0.512327 -0.258057 -0.819101 1.83335e+24
-11.2145 29.4442 371.646 -0.507036 -0.251115 -0.824534 1.83335e+24
-11.596 31.176 371.336 -0.506104 -0.240358 -0.828304 1.83335e+24
-11.9212 32.925 371.062 -0.509561 -0.22549 -0.830362 1.83335e+24
-12.0461 34.6544 370.579 -0.51999 -0.207615 -0.828557 1.83335e+24
