# .PCD v0.7 - Point Cloud Data file format
# 4 65 0
# 1 14 0
# 15 36 0
# 37 58 0
# 59 65 0
VERSION 0.7
FIELDS x y z normal_x normal_y normal_z curvature
SIZE 4 4 4 4 4 4 4
TYPE F F F F F F F
COUNT 1 1 1 1 1 1 1
WIDTH 65
HEIGHT 1
VIEWPOINT 0 0 0 1 0 0 0
POINTS 65
DATA ascii
-34.4855 -1.60064 313.598 0.0499142 0.479969 0.875864 1.83335e+24
-32.7827 -1.14336 313.236 0.0487404 0.476952 0.877577 1.83335e+24
-30.9902 -1.11163 313.075 0.0595393 0.484528 0.872747 1.83335e+24
-29.2137 -0.99882 312.808 0.0756569 0.496363 0.864812 1.83335e+24
-27.424 -0.852466 312.684 0.0878502 0.495961 0.863889 1.83335e+24
-25.6446 -0.848741 312.412 0.11977 0.485087 0.866225 1.83335e+24
-23.8673 -0.849108 312.127 0.169369 0.474961 0.863554 1.83335e+24
-22.1528 -0.554392 311.665 0.216212 0.472439 0.854432 1.83335e+24
-21.9248 -0.444869 311.582 0.222238 0.472795 0.852687 1.83335e+24
-20.188 -0.587814 311.132 0.248337 0.471813 0.846003 1.83335e+24
-18.5064 -1.14705 310.816 0.272437 0.470601 0.839233 1.83335e+24
-16.8417 -0.941916 310.163 0.291092 0.471888 0.832218 1.83335e+24
-15.1084 -1.24363 309.783 0.300159 0.46137 0.83489 1.83335e+24
-13.4194 -1.57882 309.258 0.311935 0.437292 0.843488 1.83335e+24
-11.7219 -1.80823 308.705 0.326089 0.408675 0.852438 1.83335e+24
-10.0143 -1.76817 308.138 0.340293 0.401663 0.850216 1.83335e+24
-8.39003 -1.94322 307.382 0.355566 0.409749 0.840047 1.83335e+24
-6.74848 -1.79816 306.658 0.358853 0.425113 0.830965 1.83335e+24
-5.09961 -1.58913 305.967 0.359538 0.431077 0.82759 1.83335e+24
-3.46216 -1.81359 305.254 0.401695 0.420619 0.813462 1.83335e+24
-1.89557 -1.58985 304.396 0.430619 0.424846 0.796287 1.83335e+24
-0.515985 -1.13741 303.332 0.446042 0.436154 0.781547 1.83335e+24
-1.17993 0.445598 302.79 0.434358 0.475286 0.765138 1.83335e+24
-1.80293 2.00969 302.154 0.420011 0.494986 0.760644 1.83335e+24
-2.67622 3.50616 301.666 0.401472 0.510844 0.76017 1.83335e+24
-3.47655 4.98606 301.026 0.388397 0.532467 0.752081 1.83335e+24
-4.61932 6.32191 300.639 0.371638 0.549937 0.747967 1.83335e+24
-5.52376 7.71606 299.948 0.378896 0.564212 0.733555 1.83335e+24
-6.55457 9.05547 299.328 0.382413 0.566918 0.729633 1.83335e+24
-7.85336 10.3017 299.34 0.368248 0.569397 0.73497 1.83335e+24
-8.82594 11.6756 298.702 0.364486 0.57707 0.730849 1.83335e+24
-9.88295 12.9874 298.068 0.366461 0.58362 0.724634 1.83335e+24
-11.0111 14.3007 297.576 0.359918 0.596106 0.717716 1.83335e+24
-12.058 15.6184 296.937 0.343322 0.617937 0.707308 1.83335e+24
-13.1374 16.8767 296.236 0.321029 0.644758 0.693706 1.83335e+24
-14.3877 18.0842 295.768 0.293393 0.669042 0.682864 1.83335e+24
-15.5301 19.3057 295.103 0.273403 0.690929 0.669229 1.83335e+24
-16.7007 20.4474 294.351 0.245638 0.708584 0.661492 1.83335e+24
-17.5827 21.5932 293.279 0.226685 0.729186 0.64568 1.83335e+24
-18.896 22.6448 292.639 0.190548 0.744599 0.639738 1.83335e+24
-20.0644 23.688 291.752 0.17379 0.757235 0.629597 1.83335e+24
-21.2312 24.6977 290.825 0.161527 0.766779 0.621256 1.83335e+24
-22.6606 25.5346 290.12 0.143676 0.776421 0.613618 1.83335e+24
-23.9737 26.3409 289.19 0.128845 0.786768 0.603651 1.83335e+24
-24.5054 25.4083 290.635 0.118269 0.772395 0.624034 1.83335e+24
-25.0503 24.3258 291.966 0.105474 0.751036 0.651782 1.83335e+24
-25.5716 23.2416 293.305 0.0949343 0.717586 0.689969 1.83335e+24
-26.4597 22.1644 294.441 0.0691735 0.716108 0.694554 1.83335e+24
-27.2582 21.0374 295.595 0.0485155 0.717151 0.695227 1.83335e+24
-27.7904 19.9172 296.9 0.0399991 0.718504 0.694371 1.83335e+24
-28.554 18.7451 298.032 0.035952 0.70434 0.708952 1.83335e+24
-29.1839 17.5428 299.215 0.039734 0.688713 0.723944 1.83335e+24
-29.5329 16.3333 300.501 0.0444543 0.671597 0.739582 1.83335e+24
-30.3583 15.0626 301.473 0.0320033 0.65941 0.751102 1.83335e+24
-30.8597 13.8 302.654 0.0257863 0.644859 0.763867 1.83335e+24
-31.3562 12.5151 303.812 0.0224478 0.631631 0.774944 1.83335e+24
-31.8366 11.173 304.911 0.0244141 0.619187 0.784864 1.83335e+24
-32.541 9.82551 305.875 0.0239101 0.611077 0.79121 1.83335e+24
-33.0396 8.43855 306.908 0.0188709 0.596591 0.802324 1.83335e+24
-33.2698 7.08521 308.072 0.0173083 0.57762 0.816122 1.83335e+24
-33.8515 5.66914 309.019 0.00672892 0.560574 0.828077 1.83335e+24
-34.4469 4.22583 309.915 -0.000655469 0.552657 0.833409 1.83335e+24
-34.7924 2.7706 310.916 0.00235776 0.546101 0.837716 1.83335e+24
-35.0798 1.26543 311.861 0.0164705 0.524535 0.85123 1.83335e+24
-35.3592 -0.264361 312.767 0.0329393 0.499884 0.865466 1.83335e+24
