# .PCD v0.7 - Point Cloud Data file format
# 5 156 0
# 1 12 0
# 13 60 0
# 61 78 0
# 79 134 0
# 135 156 0
VERSION 0.7
FIELDS x y z normal_x normal_y normal_z curvature
SIZE 4 4 4 4 4 4 4
TYPE F F F F F F F
COUNT 1 1 1 1 1 1 1
WIDTH 156
HEIGHT 1
VIEWPOINT 0 0 0 1 0 0 0
POINTS 156
DATA ascii
-43.1872 12.7425 391.554 -0.302475 0.21674 0.928188 1.83335e+24
-41.6921 11.8988 392.095 -0.290578 0.185026 0.938792 1.83335e+24
-39.9332 11.9544 392.474 -0.268638 0.160079 0.949846 1.83335e+24
-38.3085 12.5133 393.01 -0.246793 0.143801 0.958339 1.83335e+24
-36.6604 13.0792 393.461 -0.221178 0.128456 0.966736 1.83335e+24
-34.8824 13.1703 393.727 -0.19497 0.110749 0.974537 1.83335e+24
-33.1853 13.6822 394.04 -0.175806 0.101698 0.979158 1.83335e+24
-31.4032 13.8102 394.258 -0.154331 0.0927746 0.983654 1.83335e+24
-29.7068 14.3578 394.508 -0.135764 0.092523 0.986411 1.83335e+24
-27.9086 14.3967 394.579 -0.102289 0.0877549 0.990876 1.83335e+24
-26.18 14.8817 394.708 -0.0699279 0.0871478 0.993738 1.83335e+24
-24.3818 14.8859 394.788 -0.0346496 0.0822232 0.996011 1.83335e+24
-22.5965 15.0693 394.65 1.53251e-05 0.0791797 0.99686 1.83335e+24
-20.8479 15.4818 394.761 0.0249452 0.0788487 0.996574 1.83335e+24
-19.0949 15.8899 394.737 0.0447693 0.0798331 0.995802 1.83335e+24
-17.3083 16.0879 394.642 0.0658734 0.0802758 0.994594 1.83335e+24
-15.5299 16.2103 394.393 0.0875889 0.0812319 0.992839 1.83335e+24
-13.747 16.3445 394.185 0.107205 0.0832563 0.990745 1.83335e+24
-11.9953 16.7355 394.048 0.120714 0.087042 0.988864 1.83335e+24
-10.2363 17.0499 393.831 0.134046 0.0901982 0.986862 1.83335e+24
-8.49146 16.7301 393.526 0.146936 0.0892085 0.985115 1.83335e+24
-6.74405 16.7544 393.094 0.160232 0.0903484 0.982936 1.83335e+24
-4.94893 16.8303 392.986 0.175154 0.0911599 0.980312 1.83335e+24
-5.25009 17.172 393.074 0.172581 0.093663 0.980532 1.83335e+24
-3.48069 17.2766 392.761 0.187082 0.0943818 0.9778 1.83335e+24
-1.80205 16.7349 392.402 0.201099 0.0888992 0.975529 1.83335e+24
-0.045746 17.0082 392.118 0.214299 0.0885151 0.972749 1.83335e+24
1.66611 16.796 391.603 0.249246 0.0809881 0.965048 1.83335e+24
3.38444 16.9858 391.102 0.294951 0.0758942 0.952493 1.83335e+24
5.1035 17.0189 390.569 0.344265 0.0689826 0.936335 1.83335e+24
6.76394 16.9785 389.876 0.39575 0.060207 0.916383 1.83335e+24
8.3867 16.8948 389.101 0.396985 0.0612244 0.915781 1.83335e+24
10.0791 17.1738 388.555 0.384202 0.0678713 0.920751 1.83335e+24
11.7364 17.223 387.855 0.372012 0.0762457 0.925091 1.83335e+24
13.3415 17.338 387.048 0.361165 0.0879296 0.928347 1.83335e+24
13.8625 19.0159 386.657 0.370401 0.0927944 0.924225 1.83335e+24
14.2868 20.7116 386.227 0.38198 0.110453 0.917546 1.83335e+24
14.7094 22.3995 385.766 0.393127 0.127161 0.910649 1.83335e+24
14.7066 24.1994 385.789 0.402139 0.139786 0.904845 1.83335e+24
15.2947 25.7363 385.059 0.410334 0.154531 0.898747 1.83335e+24
15.6 27.4305 384.534 0.41625 0.167484 0.893692 1.83335e+24
15.7249 29.2194 384.378 0.418825 0.179439 0.890161 1.83335e+24
15.8083 30.9839 384.032 0.420179 0.194331 0.886389 1.83335e+24
16.2696 32.5813 383.343 0.422492 0.2097 0.881774 1.83335e+24
16.3022 34.3399 382.961 0.423175 0.225534 0.877529 1.83335e+24
16.7316 35.8822 382.138 0.424461 0.240349 0.872964 1.83335e+24
16.8339 37.6022 381.617 0.42434 0.255912 0.868588 1.83335e+24
16.8595 39.3616 381.238 0.423566 0.271448 0.864238 1.83335e+24
17.0625 40.9021 380.329 0.422555 0.286199 0.859964 1.83335e+24
16.8724 42.6808 380.129 0.420434 0.299758 0.856376 1.83335e+24
16.8365 44.3855 379.552 0.417398 0.313509 0.852931 1.83335e+24
16.7236 46.0944 378.998 0.413869 0.327862 0.849246 1.83335e+24
16.9818 47.6486 378.128 0.408598 0.341361 0.846475 1.83335e+24
16.8947 49.3278 377.485 0.403979 0.356279 0.842536 1.83335e+24
16.9069 50.9465 376.698 0.398569 0.371039 0.838733 1.83335e+24
16.8127 52.5924 375.976 0.393864 0.386083 0.834153 1.83335e+24
16.5616 54.2913 375.436 0.391302 0.40063 0.82848 1.83335e+24
16.4102 55.9225 374.69 0.388156 0.415033 0.82285 1.83335e+24
16.2321 57.5469 373.936 0.385621 0.429575 0.816555 1.83335e+24
16.1096 59.1338 373.095 0.382461 0.44439 0.810087 1.83335e+24
15.8462 60.7655 372.382 0.3811 0.459419 0.802307 1.83335e+24
15.8261 62.1999 371.295 0.37568 0.474845 0.795856 1.83335e+24
15.4629 63.8031 370.562 0.374588 0.49071 0.786694 1.83335e+24
14.9689 65.4159 369.933 0.374681 0.503821 0.778318 1.83335e+24
14.4403 66.9935 369.246 0.374658 0.517276 0.769452 1.83335e+24
14.2034 68.4881 368.272 0.36996 0.531231 0.762183 1.83335e+24
13.8483 69.9977 367.358 0.366757 0.545262 0.753776 1.83335e+24
13.5379 71.4326 366.316 0.362434 0.559302 0.745535 1.83335e+24
13.0716 72.8941 365.375 0.360893 0.573075 0.735759 1.83335e+24
12.4033 74.4118 364.675 0.364037 0.585764 0.724125 1.83335e+24
12.0698 75.7861 363.561 0.356632 0.599442 0.716577 1.83335e+24
11.3311 77.275 362.87 0.353208 0.612606 0.707077 1.83335e+24
10.9014 78.5852 361.713 0.348612 0.625465 0.698042 1.83335e+24
10.244 79.9999 360.815 0.346465 0.637967 0.68772 1.83335e+24
9.40361 81.4081 360.073 0.346072 0.649806 0.676746 1.83335e+24
8.95618 82.7131 358.917 0.342629 0.662644 0.665964 1.83335e+24
8.41203 83.9891 357.77 0.339259 0.67572 0.65445 1.83335e+24
7.62764 85.3551 356.899 0.336126 0.685173 0.646187 1.83335e+24
6.83473 86.6667 355.955 0.331454 0.694588 0.638502 1.83335e+24
6.09726 87.9322 354.909 0.324554 0.704294 0.631375 1.83335e+24
5.39925 89.1173 353.747 0.315186 0.714151 0.625017 1.83335e+24
4.30036 90.4065 353.139 0.309972 0.723695 0.61659 1.83335e+24
3.39162 91.5693 352.108 0.304116 0.73292 0.608557 1.83335e+24
1.71452 92.2152 352.209 0.306888 0.738954 0.599805 1.83335e+24
0.0182066 92.5666 352.698 0.310913 0.741634 0.5944 1.83335e+24
-1.67354 93.1778 352.764 0.290018 0.751496 0.592573 1.83335e+24
-3.39252 93.7118 352.765 0.265627 0.759026 0.594409 1.83335e+24
-5.07723 94.3456 352.761 0.24479 0.762551 0.598827 1.83335e+24
-6.80722 94.8426 352.749 0.226811 0.761038 0.607764 1.83335e+24
-8.50655 95.4038 352.556 0.200159 0.759489 0.618962 1.83335e+24
-10.2445 95.8251 352.761 0.159414 0.757771 0.632749 1.83335e+24
-12.0249 96.0898 352.754 0.117416 0.756886 0.642913 1.83335e+24
-13.8007 96.3827 352.723 0.0743228 0.756403 0.64987 1.83335e+24
-15.5728 96.6638 352.579 0.0506108 0.755196 0.653542 1.83335e+24
-17.2683 97.1038 352.165 0.0519544 0.755402 0.653199 1.83335e+24
-19.0579 97.2969 352.157 0.0517808 0.757307 0.651003 1.83335e+24
-20.8426 97.3859 351.94 0.0510018 0.762927 0.644469 1.83335e+24
-22.6357 97.4844 352.063 0.0500013 0.771171 0.634661 1.83335e+24
-24.3508 97.9453 351.769 0.0392464 0.780459 0.623974 1.83335e+24
-26.0017 98.2834 351.137 0.0286155 0.787745 0.615337 1.83335e+24
-27.5871 97.9128 351.904 0.0198189 0.784985 0.619198 1.83335e+24
-28.5661 96.9392 353.059 0.00864982 0.777269 0.629109 1.83335e+24
-29.4702 95.9743 354.28 -0.014078 0.768954 0.639149 1.83335e+24
-30.0833 94.9642 355.638 -0.0307946 0.759297 0.650015 1.83335e+24
-31.0498 93.8859 356.707 -0.0544826 0.748968 0.660363 1.83335e+24
-31.9592 92.7248 357.739 -0.0753948 0.737091 0.671575 1.83335e+24
-32.9494 91.6788 358.819 -0.0964077 0.72364 0.683411 1.83335e+24
-33.5437 90.4718 360.015 -0.11069 0.707675 0.697814 1.83335e+24
-34.1249 89.2224 361.173 -0.125319 0.687668 0.715128 1.83335e+24
-34.6702 87.8904 362.254 -0.14181 0.662225 0.735763 1.83335e+24
-35.2723 86.5415 363.282 -0.162067 0.636531 0.754031 1.83335e+24
-36.0786 85.1939 364.162 -0.187369 0.610361 0.769644 1.83335e+24
-36.3412 83.8403 365.319 -0.20475 0.587096 0.783196 1.83335e+24
-36.9956 82.3868 366.155 -0.229291 0.5625 0.794367 1.83335e+24
-37.3052 80.8901 367.106 -0.247765 0.54099 0.803705 1.83335e+24
-37.4823 79.3741 368.06 -0.261854 0.527282 0.808335 1.83335e+24
-37.932 77.7922 368.792 -0.278457 0.513787 0.81147 1.83335e+24
-38.1887 76.2859 369.743 -0.28808 0.502796 0.814988 1.83335e+24
-38.435 74.6767 370.511 -0.295057 0.492693 0.818654 1.83335e+24
-38.4062 73.1018 371.382 -0.29494 0.483838 0.823961 1.83335e+24
-38.5346 71.511 372.215 -0.293861 0.474936 0.829507 1.83335e+24
-38.4042 70.0353 373.237 -0.287271 0.465527 0.837114 1.83335e+24
-38.1825 68.5465 374.224 -0.28104 0.454036 0.845499 1.83335e+24
-38.2533 66.9263 375.005 -0.279434 0.443112 0.851803 1.83335e+24
-37.8798 65.4638 375.986 -0.276794 0.433198 0.857744 1.83335e+24
-37.6625 63.8856 376.824 -0.277016 0.423722 0.862393 1.83335e+24
-37.2553 62.3542 377.677 -0.277508 0.415481 0.866236 1.83335e+24
-37.0633 60.7462 378.463 -0.279934 0.407125 0.869417 1.83335e+24
-36.6164 59.2234 379.313 -0.281133 0.400111 0.872282 1.83335e+24
-36.2331 57.6526 380.104 -0.282589 0.391469 0.875726 1.83335e+24
-35.9641 56.0219 380.817 -0.284865 0.382396 0.878991 1.83335e+24
-35.4453 54.549 381.712 -0.284294 0.374842 0.882423 1.83335e+24
-34.8878 52.9979 382.435 -0.282517 0.367352 0.886136 1.83335e+24
-34.3322 51.5526 383.353 -0.277983 0.360143 0.890518 1.83335e+24
-34.966 49.9364 383.828 -0.288864 0.349415 0.891329 1.83335e+24
-35.4383 48.2476 384.234 -0.298815 0.338557 0.892238 1.83335e+24
-35.5042 46.567 384.876 -0.303038 0.329331 0.894265 1.83335e+24
-35.595 44.8826 385.504 -0.306657 0.320148 0.896363 1.83335e+24
-35.6849 43.1723 386.058 -0.309786 0.31086 0.898554 1.83335e+24
-36.1004 41.4609 386.43 -0.318208 0.301045 0.898953 1.83335e+24
-36.1633 39.7475 386.978 -0.319876 0.29184 0.901393 1.83335e+24
-36.1715 38.0505 387.578 -0.319727 0.282712 0.90435 1.83335e+24
-36.7736 36.3671 387.787 -0.330658 0.273178 0.903349 1.83335e+24
-37.1284 34.6446 388.171 -0.336619 0.267514 0.902842 1.83335e+24
-37.3072 32.9045 388.595 -0.338899 0.263107 0.903284 1.83335e+24
-37.4397 31.1924 389.135 -0.338674 0.258579 0.904675 1.83335e+24
-37.8305 29.4674 389.468 -0.342304 0.254087 0.904581 1.83335e+24
-38.572 27.8297 389.559 -0.350945 0.250578 0.902246 1.83335e+24
-38.9185 26.1181 389.995 -0.350951 0.246549 0.903353 1.83335e+24
-39.6606 24.4788 390.04 -0.356944 0.244257 0.901626 1.83335e+24
-40.2388 22.7793 390.172 -0.356988 0.234245 0.904262 1.83335e+24
-40.6806 21.0848 390.589 -0.351942 0.221207 0.909508 1.83335e+24
-41.1215 19.3658 390.89 -0.346679 0.210547 0.914048 1.83335e+24
-42.1443 17.8994 390.681 -0.351144 0.208156 0.91289 1.83335e+24
-42.4563 16.1803 391.114 -0.342303 0.200648 0.917916 1.83335e+24
-43.1137 14.5073 391.207 -0.337216 0.200916 0.919738 1.83335e+24
