# .PCD v0.7 - Point Cloud Data file format
# 5 157 0
# 1 46 0
# 47 62 0
# 63 114 0
# 115 145 0
# 146 157 0
VERSION 0.7
FIELDS x y z normal_x normal_y normal_z curvature
SIZE 4 4 4 4 4 4 4
TYPE F F F F F F F
COUNT 1 1 1 1 1 1 1
WIDTH 157
HEIGHT 1
VIEWPOINT 0 0 0 1 0 0 0
POINTS 157
DATA ascii
26.9734 85.7392 379.832 0.521134 -0.768611 -0.371021 1.83335e+24
27.6602 85.5038 381.479 0.539065 -0.75157 -0.380198 1.83335e+24
28.2784 85.2173 383.146 0.558218 -0.733564 -0.387655 1.83335e+24
28.6777 84.5191 384.756 0.561658 -0.725116 -0.398431 1.83335e+24
29.145 83.9458 386.397 0.56872 -0.713158 -0.409833 1.83335e+24
29.3379 82.9886 387.909 0.558245 -0.712471 -0.425144 1.83335e+24
29.9522 82.5944 389.554 0.568161 -0.695612 -0.439679 1.83335e+24
30.4097 81.9349 391.165 0.564879 -0.685532 -0.459301 1.83335e+24
30.9107 81.4377 392.821 0.560988 -0.675994 -0.477833 1.83335e+24
31.394 80.7746 394.423 0.551548 -0.671601 -0.494719 1.83335e+24
31.8391 79.9255 395.947 0.537811 -0.670993 -0.51042 1.83335e+24
31.9128 78.6099 397.173 0.515759 -0.679532 -0.521756 1.83335e+24
32.2046 77.649 398.667 0.500357 -0.681145 -0.534494 1.83335e+24
32.4298 77.8396 398.808 0.503459 -0.677356 -0.536394 1.83335e+24
33.0108 77.2732 400.415 0.4924 -0.674266 -0.550371 1.83335e+24
33.1573 76.0378 401.716 0.474349 -0.678615 -0.560781 1.83335e+24
33.5454 75.0447 403.166 0.459135 -0.676585 -0.575697 1.83335e+24
34.1081 74.2279 404.668 0.446557 -0.672471 -0.590228 1.83335e+24
34.6505 73.5062 406.225 0.435909 -0.668163 -0.602944 1.83335e+24
34.7345 72.1545 407.411 0.426759 -0.665869 -0.61196 1.83335e+24
35.1483 71.0976 408.808 0.421378 -0.660255 -0.621694 1.83335e+24
35.7828 70.4113 410.346 0.420489 -0.653438 -0.62945 1.83335e+24
36.1456 69.2551 411.677 0.421836 -0.644361 -0.637851 1.83335e+24
36.5121 68.1279 413.032 0.424344 -0.632214 -0.648257 1.83335e+24
36.916 66.989 414.366 0.42827 -0.619026 -0.658324 1.83335e+24
37.2291 65.7477 415.631 0.432432 -0.604706 -0.66883 1.83335e+24
37.5404 64.484 416.875 0.436989 -0.589437 -0.679415 1.83335e+24
37.798 63.1514 418.057 0.440811 -0.573506 -0.69049 1.83335e+24
38.353 62.1563 419.451 0.449327 -0.556754 -0.698663 1.83335e+24
38.713 60.8748 420.662 0.455078 -0.54125 -0.707073 1.83335e+24
38.922 59.4375 421.725 0.459296 -0.529218 -0.713425 1.83335e+24
39.2658 58.1034 422.884 0.466828 -0.51515 -0.718813 1.83335e+24
39.7989 57.0332 424.229 0.481272 -0.498629 -0.720934 1.83335e+24
40.1033 55.6279 425.312 0.488728 -0.481801 -0.727333 1.83335e+24
40.3712 54.183 426.352 0.494661 -0.464065 -0.734816 1.83335e+24
40.6802 52.7726 427.427 0.501726 -0.444794 -0.741909 1.83335e+24
40.7137 51.1499 428.205 0.496407 -0.430013 -0.754101 1.83335e+24
41.2313 49.911 429.404 0.510442 -0.410837 -0.755421 1.83335e+24
41.2847 48.2653 430.131 0.500586 -0.401281 -0.767064 1.83335e+24
41.8148 47.0807 431.378 0.514796 -0.382314 -0.767347 1.83335e+24
41.9116 45.4146 432.052 0.501739 -0.375209 -0.779407 1.83335e+24
42.0362 43.8204 432.879 0.490227 -0.3675 -0.790329 1.83335e+24
42.4826 42.4665 433.978 0.496701 -0.351238 -0.793675 1.83335e+24
42.7244 40.9085 434.846 0.489501 -0.342264 -0.802025 1.83335e+24
42.8781 39.2713 435.578 0.474306 -0.337599 -0.813056 1.83335e+24
43.0781 37.6557 436.346 0.460219 -0.331717 -0.823506 1.83335e+24
43.1072 35.9572 436.942 0.429403 -0.332658 -0.839614 1.83335e+24
43.4936 34.4821 437.898 0.437133 -0.313002 -0.843175 1.83335e+24
43.4861 32.7504 438.389 0.431055 -0.29444 -0.852934 1.83335e+24
43.5757 31.0452 438.959 0.424862 -0.277218 -0.861767 1.83335e+24
43.859 29.4298 439.7 0.427763 -0.264559 -0.864308 1.83335e+24
43.6678 27.6627 439.985 0.413211 -0.264681 -0.871321 1.83335e+24
44.1504 26.1437 440.821 0.424315 -0.258419 -0.867858 1.83335e+24
44.2775 24.428 441.35 0.420925 -0.254455 -0.870675 1.83335e+24
44.3769 22.7132 441.888 0.418665 -0.246926 -0.873927 1.83335e+24
44.7503 21.1075 442.611 0.429332 -0.232477 -0.872713 1.83335e+24
44.5872 19.3214 442.763 0.423399 -0.212005 -0.880788 1.83335e+24
44.9428 17.7164 443.496 0.439606 -0.185051 -0.878921 1.83335e+24
44.8683 15.928 443.687 0.433055 -0.160836 -0.886902 1.83335e+24
43.5487 14.8168 443.173 0.39098 -0.16063 -0.906274 1.83335e+24
41.9448 14.5768 442.392 0.359705 -0.173507 -0.916792 1.83335e+24
40.4926 13.5699 442.05 0.337272 -0.183381 -0.923374 1.83335e+24
38.9345 12.7208 441.747 0.356523 -0.169604 -0.918763 1.83335e+24
37.4736 11.8509 441.156 0.380142 -0.155144 -0.911824 1.83335e+24
35.8694 11.221 440.637 0.404972 -0.144102 -0.902902 1.83335e+24
34.7289 9.85647 440.359 0.42469 -0.129833 -0.895981 1.83335e+24
33.4523 8.70121 439.834 0.44488 -0.119918 -0.887526 1.83335e+24
32.162 7.58931 439.252 0.464096 -0.10984 -0.878948 1.83335e+24
30.6369 6.91801 438.571 0.484717 -0.100794 -0.868844 1.83335e+24
29.4236 5.70609 438.024 0.502369 -0.086487 -0.860317 1.83335e+24
28.5384 4.25957 437.421 0.513995 -0.0728817 -0.854691 1.83335e+24
27.0686 3.41072 436.821 0.518726 -0.0730914 -0.851811 1.83335e+24
25.8859 2.47635 435.837 0.52471 -0.0739592 -0.848062 1.83335e+24
24.3737 2.17751 434.908 0.53496 -0.0771213 -0.84135 1.83335e+24
22.826 1.83163 434.056 0.547367 -0.0795039 -0.833108 1.83335e+24
21.2697 2.12946 433.203 0.567783 -0.0772521 -0.819545 1.83335e+24
19.8369 2.30775 432.128 0.591847 -0.0731043 -0.802728 1.83335e+24
18.6086 3.03187 431.029 0.614693 -0.0696725 -0.785683 1.83335e+24
17.2596 3.69856 430.041 0.639801 -0.0650096 -0.765786 1.83335e+24
15.9749 4.47187 429.046 0.665108 -0.0605432 -0.744289 1.83335e+24
14.7677 5.12702 427.882 0.693315 -0.0551266 -0.718523 1.83335e+24
13.7684 5.61754 426.468 0.725296 -0.0499682 -0.686622 1.83335e+24
12.5485 6.09033 425.231 0.75389 -0.0539291 -0.654783 1.83335e+24
11.3258 6.36033 423.938 0.77493 -0.0650216 -0.628693 1.83335e+24
10.1556 6.66951 422.606 0.793485 -0.0756276 -0.603872 1.83335e+24
9.27594 7.15836 421.114 0.810069 -0.0846095 -0.580198 1.83335e+24
8.43799 7.76571 419.641 0.824459 -0.0923984 -0.558328 1.83335e+24
7.66694 8.47953 418.179 0.836547 -0.0993351 -0.538816 1.83335e+24
6.70035 9.01519 416.759 0.846108 -0.106648 -0.522233 1.83335e+24
6.01339 10.0396 415.448 0.853311 -0.108176 -0.510056 1.83335e+24
5.23142 11.0743 414.199 0.860952 -0.10832 -0.497019 1.83335e+24
4.81015 12.3224 412.973 0.868403 -0.105599 -0.484484 1.83335e+24
4.27198 13.3843 411.623 0.876468 -0.10278 -0.470361 1.83335e+24
3.97642 14.8943 410.688 0.882395 -0.0966464 -0.460477 1.83335e+24
3.6375 16.3582 409.697 0.888087 -0.0908619 -0.450605 1.83335e+24
3.13298 17.5259 408.424 0.895455 -0.0869258 -0.436583 1.83335e+24
2.76074 18.8893 407.309 0.901424 -0.0856003 -0.42439 1.83335e+24
2.29838 20.2302 406.201 0.906649 -0.0861417 -0.412998 1.83335e+24
1.88772 21.4891 404.982 0.911508 -0.0879261 -0.401773 1.83335e+24
1.36996 22.6104 403.672 0.916329 -0.090065 -0.390166 1.83335e+24
1.02635 24.0567 402.657 0.918758 -0.0956803 -0.383052 1.83335e+24
0.789428 25.5511 401.682 0.920369 -0.103215 -0.377184 1.83335e+24
0.588002 27.012 400.65 0.921413 -0.11011 -0.372657 1.83335e+24
0.439254 28.5702 399.762 0.921064 -0.116371 -0.371618 1.83335e+24
0.160067 29.8821 398.561 0.922181 -0.120248 -0.367591 1.83335e+24
-0.207805 31.059 397.25 0.923864 -0.12312 -0.362377 1.83335e+24
-0.560355 32.2051 395.907 0.925501 -0.126111 -0.357133 1.83335e+24
-0.822165 33.6382 394.85 0.925585 -0.132419 -0.354623 1.83335e+24
-1.2134 34.8432 393.571 0.926662 -0.136789 -0.350122 1.83335e+24
-1.48921 36.1136 392.326 0.927027 -0.141745 -0.347173 1.83335e+24
-2.01218 36.9698 390.832 0.928935 -0.141461 -0.342154 1.83335e+24
-2.30871 38.0575 389.429 0.929773 -0.143761 -0.338904 1.83335e+24
-2.36227 39.4263 388.261 0.929143 -0.149462 -0.338164 1.83335e+24
-2.74129 40.3382 386.756 0.930651 -0.150078 -0.333715 1.83335e+24
-3.30269 40.9037 385.142 0.933113 -0.148016 -0.327707 1.83335e+24
-3.71255 41.3074 383.437 0.935511 -0.145719 -0.321846 1.83335e+24
-3.92689 42.5888 382.191 0.935563 -0.15137 -0.319076 1.83335e+24
-4.30906 43.5236 380.701 0.936798 -0.158473 -0.311922 1.83335e+24
-4.72041 44.3295 379.145 0.937807 -0.165595 -0.305117 1.83335e+24
-4.95168 45.2377 377.608 0.938079 -0.174912 -0.29902 1.83335e+24
-5.31534 46.0143 376.025 0.938138 -0.184006 -0.293323 1.83335e+24
-6.03378 45.8773 374.381 0.939023 -0.184901 -0.289909 1.83335e+24
-6.24744 46.6891 372.788 0.938034 -0.196362 -0.285541 1.83335e+24
-6.63666 46.9763 371.055 0.937157 -0.202355 -0.284235 1.83335e+24
-7.17993 47.1775 369.35 0.935299 -0.192484 -0.296926 1.83335e+24
-7.58278 47.6727 367.667 0.934413 -0.183871 -0.305063 1.83335e+24
-7.78982 48.683 366.192 0.936197 -0.174437 -0.305133 1.83335e+24
-7.51372 50.4326 366.513 0.932522 -0.171685 -0.317691 1.83335e+24
-6.85398 51.9926 367.122 0.926716 -0.175859 -0.332071 1.83335e+24
-6.51964 53.671 367.68 0.921215 -0.182212 -0.343747 1.83335e+24
-5.93857 55.2683 368.272 0.915214 -0.192991 -0.353747 1.83335e+24
-5.30214 56.6599 369.22 0.907641 -0.212402 -0.362041 1.83335e+24
-4.59735 58.1439 369.956 0.892685 -0.250477 -0.374667 1.83335e+24
-4.14091 59.8761 370.132 0.874206 -0.295772 -0.385075 1.83335e+24
-3.13543 61.1808 370.858 0.857989 -0.348105 -0.377727 1.83335e+24
-2.20862 62.4871 371.679 0.840584 -0.404212 -0.360598 1.83335e+24
-1.19609 63.5738 372.696 0.820241 -0.456958 -0.344084 1.83335e+24
-0.273967 65.082 373.035 0.789166 -0.514827 -0.334918 1.83335e+24
0.874377 66.2514 373.779 0.762552 -0.556416 -0.330025 1.83335e+24
2.08388 67.4657 374.33 0.7346 -0.591885 -0.331715 1.83335e+24
3.34243 68.5792 374.975 0.721661 -0.606463 -0.333779 1.83335e+24
4.61076 69.8563 374.993 0.713019 -0.61713 -0.332797 1.83335e+24
5.83921 70.9565 375.715 0.70431 -0.62313 -0.340083 1.83335e+24
7.15352 72.1232 376.104 0.696125 -0.627653 -0.348515 1.83335e+24
8.43782 73.2858 376.593 0.682944 -0.634319 -0.362253 1.83335e+24
9.66372 74.6019 376.664 0.665244 -0.647968 -0.370929 1.83335e+24
10.8303 75.9676 376.783 0.644451 -0.666363 -0.375024 1.83335e+24
12.27 76.9219 377.29 0.622541 -0.686722 -0.375307 1.83335e+24
13.6347 78.0954 377.269 0.596858 -0.713215 -0.367539 1.83335e+24
15.0331 79.2257 377.354 0.565839 -0.741901 -0.359735 1.83335e+24
16.5713 80.0418 377.809 0.537281 -0.764774 -0.355597 1.83335e+24
18.0728 81.0188 377.986 0.506926 -0.787069 -0.351495 1.83335e+24
19.5844 81.9953 377.949 0.476823 -0.807348 -0.347604 1.83335e+24
21.1612 82.792 378.295 0.472286 -0.812224 -0.342399 1.83335e+24
22.7913 83.5197 378.525 0.476137 -0.810766 -0.340519 1.83335e+24
24.2852 84.519 378.623 0.483014 -0.805326 -0.343726 1.83335e+24
25.8514 85.3925 378.468 0.497251 -0.791796 -0.354684 1.83335e+24
