# .PCD v0.7 - Point Cloud Data file format
# 3 151 0
# 1 58 0
# 59 131 0
# 132 151 0
VERSION 0.7
FIELDS x y z normal_x normal_y normal_z curvature
SIZE 4 4 4 4 4 4 4
TYPE F F F F F F F
COUNT 1 1 1 1 1 1 1
WIDTH 151
HEIGHT 1
VIEWPOINT 0 0 0 1 0 0 0
POINTS 151
DATA ascii
1.08401 48.6104 403.896 -0.384608 -0.613131 -0.690035 1.83335e+24
2.51325 47.5179 403.956 -0.266203 -0.666983 -0.695895 1.83335e+24
3.4409 46.2826 404.88 -0.193891 -0.684989 -0.70228 1.83335e+24
4.14121 44.9501 405.867 -0.161296 -0.688757 -0.706822 1.83335e+24
4.89834 43.7528 406.977 -0.144757 -0.687653 -0.711463 1.83335e+24
5.90657 42.5446 407.851 -0.144734 -0.6837 -0.715266 1.83335e+24
6.99115 41.4775 408.813 -0.158629 -0.67525 -0.72033 1.83335e+24
7.53386 40.1342 409.881 -0.172454 -0.663849 -0.727711 1.83335e+24
8.28986 38.8279 410.862 -0.195275 -0.650082 -0.734344 1.83335e+24
8.63743 37.4267 411.937 -0.209074 -0.63608 -0.742759 1.83335e+24
9.6897 36.2839 412.846 -0.222775 -0.620814 -0.751639 1.83335e+24
10.0904 34.7754 413.743 -0.232522 -0.605635 -0.761013 1.83335e+24
10.939 33.3884 414.515 -0.24574 -0.590061 -0.769051 1.83335e+24
11.5006 31.9159 415.385 -0.256299 -0.574902 -0.777045 1.83335e+24
12.275 30.4804 416.146 -0.267886 -0.560214 -0.783835 1.83335e+24
13.0752 29.0503 416.891 -0.278428 -0.54658 -0.789765 1.83335e+24
14.2749 27.8247 417.437 -0.2727 -0.537191 -0.798161 1.83335e+24
14.4362 26.2953 418.373 -0.274124 -0.526096 -0.805034 1.83335e+24
15.1802 24.7879 419.016 -0.266698 -0.516714 -0.813559 1.83335e+24
15.9185 23.3017 419.714 -0.262894 -0.506965 -0.820898 1.83335e+24
16.6976 21.8724 420.482 -0.263341 -0.495552 -0.827695 1.83335e+24
17.163 20.3636 421.112 -0.269515 -0.480853 -0.834351 1.83335e+24
17.8035 18.8087 421.754 -0.280258 -0.463913 -0.840381 1.83335e+24
18.0948 17.2313 422.57 -0.293532 -0.447871 -0.844541 1.83335e+24
19.0625 15.7555 422.925 -0.294852 -0.429515 -0.853568 1.83335e+24
19.8454 14.2381 423.495 -0.289197 -0.412143 -0.864004 1.83335e+24
20.2992 12.6098 424.113 -0.296086 -0.395826 -0.869284 1.83335e+24
20.93 10.9931 424.591 -0.299789 -0.378874 -0.875546 1.83335e+24
20.6258 9.37649 425.322 -0.321079 -0.368068 -0.872602 1.83335e+24
21.2103 7.72417 425.732 -0.325795 -0.351206 -0.877788 1.83335e+24
21.3225 6.03539 426.345 -0.338796 -0.336418 -0.878658 1.83335e+24
21.8495 4.37758 426.807 -0.346372 -0.3199 -0.881867 1.83335e+24
22.1579 2.67271 427.296 -0.357264 -0.304652 -0.882921 1.83335e+24
22.4147 0.95988 427.786 -0.369059 -0.289991 -0.883007 1.83335e+24
22.4657 -0.760676 428.312 -0.382096 -0.276957 -0.881645 1.83335e+24
22.5355 -2.48682 428.818 -0.394749 -0.264096 -0.880015 1.83335e+24
22.9639 -4.19592 429.186 -0.407727 -0.248981 -0.878503 1.83335e+24
22.9419 -5.95252 429.578 -0.42102 -0.236851 -0.875582 1.83335e+24
22.5934 -7.60163 430.21 -0.429228 -0.226327 -0.87438 1.83335e+24
22.5034 -9.33505 430.686 -0.436488 -0.212965 -0.874142 1.83335e+24
22.3959 -11.0744 431.137 -0.440783 -0.199513 -0.87516 1.83335e+24
22.7277 -12.8303 431.353 -0.449116 -0.184784 -0.874156 1.83335e+24
22.9028 -14.5999 431.632 -0.452704 -0.171422 -0.875028 1.83335e+24
22.9989 -16.3721 431.933 -0.451831 -0.158979 -0.877823 1.83335e+24
23.0112 -18.147 432.231 -0.446113 -0.147034 -0.882816 1.83335e+24
23.0742 -19.9275 432.488 -0.436951 -0.135909 -0.889158 1.83335e+24
22.8634 -21.6812 432.835 -0.420908 -0.126828 -0.898193 1.83335e+24
22.6531 -23.4371 433.171 -0.402185 -0.12044 -0.907602 1.83335e+24
22.4643 -25.2021 433.469 -0.380858 -0.113838 -0.917599 1.83335e+24
22.2027 -26.9574 433.77 -0.357391 -0.105658 -0.927959 1.83335e+24
21.7861 -28.6751 434.11 -0.334881 -0.0940134 -0.937559 1.83335e+24
21.7427 -30.466 434.285 -0.30499 -0.0887708 -0.948209 1.83335e+24
20.8499 -31.9764 434.688 -0.299347 -0.066644 -0.951814 1.83335e+24
20.5491 -33.7289 434.967 -0.279063 -0.054373 -0.958732 1.83335e+24
19.3061 -34.9738 435.348 -0.312807 -0.0299196 -0.949345 1.83335e+24
18.7624 -36.6808 435.523 -0.319827 -0.0357447 -0.946801 1.83335e+24
17.891 -38.2277 435.819 -0.350066 -0.036582 -0.93601 1.83335e+24
17.2435 -39.8905 436.055 -0.313735 -0.0444922 -0.948467 1.83335e+24
16.9734 -41.0787 437.38 -0.275726 -0.0476351 -0.960055 1.83335e+24
16.7222 -42.5239 438.423 -0.237151 -0.0521785 -0.97007 1.83335e+24
15.9515 -44.1477 438.521 -0.178005 -0.0519127 -0.982659 1.83335e+24
14.444 -44.8151 437.798 -0.100915 -0.0277034 -0.994509 1.83335e+24
12.9897 -45.7712 437.339 -0.0628182 0.0072478 -0.997999 1.83335e+24
12.6204 -47.532 437.281 -0.0335483 0.0161276 -0.999307 1.83335e+24
11.1331 -48.5458 437.289 -0.110127 0.0586577 -0.992185 1.83335e+24
10.6093 -50.2599 437.124 -0.103335 0.0754917 -0.991778 1.83335e+24
10.7846 -52.0463 436.99 -0.0416824 0.0627 -0.997162 1.83335e+24
9.81091 -53.5602 437.007 -0.0859904 0.0803188 -0.993053 1.83335e+24
8.85599 -55.0736 437.201 -0.130651 0.0970845 -0.986664 1.83335e+24
7.2868 -55.9548 437.169 -0.154588 0.125316 -0.979999 1.83335e+24
6.29076 -57.4541 437.172 -0.136513 0.14132 -0.980506 1.83335e+24
5.03276 -58.7397 437.103 -0.1258 0.162872 -0.978594 1.83335e+24
3.36933 -59.4273 437.118 -0.128092 0.191025 -0.973192 1.83335e+24
2.70548 -61.0814 436.866 -0.0922257 0.207641 -0.973848 1.83335e+24
1.88375 -62.6828 436.858 -0.0626809 0.226637 -0.97196 1.83335e+24
0.115031 -62.9619 436.674 -0.0661274 0.244532 -0.967384 1.83335e+24
-1.18932 -64.1829 436.456 -0.0895656 0.252317 -0.963491 1.83335e+24
-2.73703 -65.1007 436.409 -0.190802 0.239698 -0.951914 1.83335e+24
-3.95179 -66.3799 436.767 -0.343601 0.210793 -0.915153 1.83335e+24
-4.72545 -64.8385 437.282 -0.381628 0.177651 -0.907083 1.83335e+24
-5.36774 -63.2459 437.822 -0.397537 0.148272 -0.905527 1.83335e+24
-6.04364 -61.6982 438.444 -0.409082 0.116228 -0.905065 1.83335e+24
-6.46396 -59.9718 438.732 -0.371527 0.102082 -0.922793 1.83335e+24
-6.98252 -58.2884 439.103 -0.355739 0.0859458 -0.930625 1.83335e+24
-7.52955 -56.6361 439.562 -0.358611 0.0707196 -0.930804 1.83335e+24
-7.81883 -54.8648 439.699 -0.338009 0.0678328 -0.938695 1.83335e+24
-8.47042 -53.239 440.114 -0.365934 0.0528222 -0.92914 1.83335e+24
-8.84189 -51.4852 440.276 -0.359677 0.0480213 -0.93184 1.83335e+24
-9.46527 -49.8506 440.7 -0.390863 0.0309979 -0.919927 1.83335e+24
-9.84213 -48.0985 440.867 -0.388138 0.0203788 -0.921376 1.83335e+24
-10.1225 -46.3214 440.926 -0.380008 0.00864873 -0.924943 1.83335e+24
-10.6391 -44.6268 441.244 -0.423291 -0.00958982 -0.905943 1.83335e+24
-10.6052 -42.8392 441.036 -0.37177 -0.0105183 -0.928265 1.83335e+24
-10.6313 -41.0417 440.944 -0.336999 -0.0146819 -0.94139 1.83335e+24
-11.366 -39.4494 441.35 -0.420886 -0.0328391 -0.906519 1.83335e+24
-11.7393 -37.6922 441.463 -0.441028 -0.0424199 -0.89649 1.83335e+24
-11.8655 -35.8983 441.385 -0.427453 -0.0477047 -0.902778 1.83335e+24
-12.2263 -34.1409 441.531 -0.447948 -0.05718 -0.892229 1.83335e+24
-12.4477 -32.355 441.493 -0.446672 -0.0690408 -0.89203 1.83335e+24
-12.4559 -30.5702 441.259 -0.419687 -0.0800804 -0.90413 1.83335e+24
-12.3902 -28.7904 440.998 -0.386783 -0.0904932 -0.91772 1.83335e+24
-12.7385 -27.0245 440.981 -0.403776 -0.104666 -0.908851 1.83335e+24
-13.1139 -25.2655 441.051 -0.426174 -0.118152 -0.896892 1.83335e+24
-12.9994 -23.5104 440.668 -0.391715 -0.12703 -0.911275 1.83335e+24
-13.4579 -21.7763 440.819 -0.425588 -0.139107 -0.894161 1.83335e+24
-12.9661 -20.1686 440.176 -0.356449 -0.14504 -0.922989 1.83335e+24
-13.4943 -18.4494 440.25 -0.396019 -0.15639 -0.904827 1.83335e+24
-13.7332 -16.6696 440.127 -0.406311 -0.168828 -0.898003 1.83335e+24
-13.7751 -14.9017 439.791 -0.398392 -0.179915 -0.899397 1.83335e+24
-13.7183 -13.1739 439.29 -0.382098 -0.190703 -0.904231 1.83335e+24
-13.7954 -11.4117 438.931 -0.384053 -0.200417 -0.901297 1.83335e+24
-13.6936 -9.68192 438.444 -0.373164 -0.210826 -0.903494 1.83335e+24
-13.7048 -7.91886 438.081 -0.378416 -0.219677 -0.89919 1.83335e+24
-13.7549 -6.14768 437.764 -0.392037 -0.227003 -0.891502 1.83335e+24
-13.1819 -4.64413 436.957 -0.344306 -0.244212 -0.90654 1.83335e+24
-13.1381 -2.89739 436.525 -0.353791 -0.25112 -0.900983 1.83335e+24
-13.1357 -1.14742 436.103 -0.371396 -0.253403 -0.893225 1.83335e+24
-13.1357 0.584008 435.611 -0.391292 -0.255416 -0.884112 1.83335e+24
-13.0536 2.27069 434.988 -0.403526 -0.260026 -0.877242 1.83335e+24
-12.786 3.90714 434.288 -0.40004 -0.270379 -0.875707 1.83335e+24
-12.5987 5.60128 433.709 -0.411586 -0.277679 -0.868039 1.83335e+24
-12.3981 7.27778 433.085 -0.423237 -0.286036 -0.859682 1.83335e+24
-12.4913 9.02649 432.669 -0.473282 -0.280715 -0.834987 1.83335e+24
-12.084 10.5676 431.833 -0.460971 -0.299721 -0.835268 1.83335e+24
-12.0096 12.2757 431.27 -0.49456 -0.297404 -0.816677 1.83335e+24
-11.3851 13.6314 430.264 -0.443533 -0.325442 -0.835084 1.83335e+24
-11.572 15.3797 429.879 -0.511278 -0.307828 -0.802394 1.83335e+24
-10.7167 16.4725 428.732 -0.412588 -0.350803 -0.840659 1.83335e+24
-10.7806 18.193 428.207 -0.468104 -0.33926 -0.815954 1.83335e+24
-10.4925 19.7711 427.391 -0.465456 -0.348342 -0.813639 1.83335e+24
-10.1703 21.3186 426.53 -0.457424 -0.360046 -0.813099 1.83335e+24
-9.42317 22.467 425.362 -0.351671 -0.40621 -0.843398 1.83335e+24
-9.1172 24.0456 424.553 -0.354102 -0.417752 -0.836717 1.83335e+24
-8.95577 25.6758 423.808 -0.396479 -0.413925 -0.819433 1.83335e+24
-8.42611 27.0583 422.784 -0.385458 -0.431451 -0.815642 1.83335e+24
-7.96871 28.4917 421.796 -0.379531 -0.443615 -0.811888 1.83335e+24
-7.71875 30.0592 420.947 -0.398603 -0.443814 -0.802587 1.83335e+24
-7.21936 31.4334 419.897 -0.383856 -0.457637 -0.802012 1.83335e+24
-6.69156 32.7918 418.841 -0.369345 -0.471854 -0.800586 1.83335e+24
-6.07435 34.0626 417.725 -0.349608 -0.49025 -0.798392 1.83335e+24
-5.41571 35.278 416.572 -0.333543 -0.510861 -0.792319 1.83335e+24
-5.2782 36.875 415.754 -0.378504 -0.503699 -0.776545 1.83335e+24
-4.68443 38.1433 414.623 -0.381106 -0.511752 -0.769979 1.83335e+24
-4.13657 39.4654 413.531 -0.382875 -0.516306 -0.766051 1.83335e+24
-3.60767 40.7924 412.436 -0.383835 -0.519828 -0.763184 1.83335e+24
-2.95892 41.9884 411.257 -0.373036 -0.529713 -0.761741 1.83335e+24
-2.21434 43.0668 410.023 -0.358384 -0.544142 -0.758598 1.83335e+24
-1.64964 44.3393 408.882 -0.368356 -0.549643 -0.749804 1.83335e+24
-0.974383 45.4538 407.641 -0.377843 -0.561715 -0.736011 1.83335e+24
-0.128585 46.3537 406.331 -0.369781 -0.585162 -0.721698 1.83335e+24
0.284087 47.7294 405.246 -0.39715 -0.587125 -0.705377 1.83335e+24
