# .PCD v0.7 - Point Cloud Data file format
# 4 67 0
# 1 19 0
# 20 34 0
# 35 62 0
# 63 67 0
VERSION 0.7
FIELDS x y z normal_x normal_y normal_z curvature
SIZE 4 4 4 4 4 4 4
TYPE F F F F F F F
COUNT 1 1 1 1 1 1 1
WIDTH 67
HEIGHT 1
VIEWPOINT 0 0 0 1 0 0 0
POINTS 67
DATA ascii
9.35528 20.0391 354.246 0.35818 0.64202 0.677877 1.83335e+24
10.5898 20.475 353.011 0.377021 0.636005 0.673315 1.83335e+24
10.7971 21.7282 351.736 0.370761 0.636909 0.675932 1.83335e+24
10.6155 23.103 350.588 0.356735 0.643593 0.677147 1.83335e+24
10.3908 24.4654 349.433 0.34547 0.650099 0.676773 1.83335e+24
10.2313 25.6944 348.128 0.34505 0.643141 0.683601 1.83335e+24
10.4182 25.8082 348.077 0.346369 0.642456 0.683578 1.83335e+24
10.5232 27.1014 346.829 0.347131 0.636343 0.688889 1.83335e+24
10.6492 28.3717 345.56 0.345076 0.630688 0.695094 1.83335e+24
10.8125 29.633 344.287 0.341474 0.616394 0.709545 1.83335e+24
11.0007 31.0169 343.151 0.33193 0.598883 0.728808 1.83335e+24
11.2951 32.315 341.939 0.316344 0.578516 0.751829 1.83335e+24
11.5202 33.7198 340.837 0.302483 0.563845 0.768494 1.83335e+24
11.8368 35.0889 339.712 0.288975 0.562397 0.774728 1.83335e+24
12.0053 36.52 338.633 0.274153 0.561166 0.780982 1.83335e+24
12.4968 37.8076 337.475 0.255562 0.552084 0.793657 1.83335e+24
13.0983 39.0642 336.336 0.228402 0.53231 0.815156 1.83335e+24
13.1132 40.6582 335.499 0.206492 0.522487 0.827266 1.83335e+24
13.7853 42.0213 334.535 0.191529 0.511889 0.837429 1.83335e+24
14.4556 43.3619 333.538 0.178866 0.505353 0.844171 1.83335e+24
15.3875 44.5299 332.535 0.17072 0.49153 0.853963 1.83335e+24
15.7756 46.1051 331.755 0.164953 0.475255 0.864247 1.83335e+24
16.6828 47.1907 330.642 0.163364 0.461611 0.87191 1.83335e+24
16.5705 48.889 330.056 0.16338 0.454923 0.875415 1.83335e+24
16.5087 50.4891 329.234 0.16949 0.470056 0.86621 1.83335e+24
14.958 51.3799 329.029 0.166595 0.468621 0.867548 1.83335e+24
13.2859 51.998 328.78 0.151938 0.457356 0.876208 1.83335e+24
11.5616 52.0549 329.294 0.181609 0.452344 0.873157 1.83335e+24
9.8083 52.3465 329.578 0.213988 0.453028 0.865433 1.83335e+24
8.05922 52.3582 330.003 0.246675 0.45642 0.854887 1.83335e+24
6.34909 52.8426 330.288 0.280961 0.458043 0.843361 1.83335e+24
4.69089 53.5207 330.462 0.322856 0.45907 0.827658 1.83335e+24
3.01901 53.8979 331.013 0.363586 0.465698 0.806803 1.83335e+24
1.4343 54.7409 331.147 0.393408 0.473828 0.787856 1.83335e+24
-0.176267 55.371 331.646 0.427233 0.477826 0.767564 1.83335e+24
-1.73712 56.0473 332.234 0.452053 0.479276 0.752292 1.83335e+24
-3.31009 56.9123 332.367 0.477677 0.47713 0.73768 1.83335e+24
-4.70027 57.8985 332.946 0.499717 0.475878 0.723756 1.83335e+24
-6.22051 58.6822 333.507 0.507499 0.489184 0.709326 1.83335e+24
-7.79439 59.4171 333.979 0.484916 0.526157 0.698581 1.83335e+24
-8.15774 58.1757 335.23 0.500395 0.538552 0.677914 1.83335e+24
-7.93491 56.6976 336.233 0.554992 0.509484 0.657579 1.83335e+24
-7.90379 55.2633 337.32 0.568626 0.507791 0.647157 1.83335e+24
-7.59899 53.7738 338.284 0.573973 0.498653 0.649538 1.83335e+24
-7.26821 52.2336 339.155 0.566358 0.48865 0.663672 1.83335e+24
-7.21664 50.7068 340.107 0.545492 0.481658 0.68589 1.83335e+24
-6.50664 49.1578 340.687 0.529321 0.490358 0.692364 1.83335e+24
-6.18387 47.5098 341.335 0.513141 0.497248 0.699593 1.83335e+24
-5.43088 46.0484 342.068 0.508957 0.502632 0.698802 1.83335e+24
-4.49576 44.5881 342.55 0.51831 0.505092 0.690099 1.83335e+24
-4.33988 43.0638 343.495 0.504875 0.513539 0.693815 1.83335e+24
-4.00427 41.4875 344.297 0.498436 0.521895 0.692233 1.83335e+24
-3.05595 40.0713 344.876 0.50936 0.529116 0.678667 1.83335e+24
-2.49182 38.5651 345.684 0.505862 0.541244 0.671684 1.83335e+24
-2.63377 37.1007 346.721 0.483009 0.556392 0.676114 1.83335e+24
-1.75584 35.7041 347.441 0.487543 0.571128 0.66039 1.83335e+24
-1.53434 34.2206 348.436 0.475571 0.584342 0.657553 1.83335e+24
-1.11288 32.8099 349.472 0.472002 0.583522 0.660845 1.83335e+24
-0.359705 31.3854 350.274 0.484402 0.581088 0.653981 1.83335e+24
0.261256 29.9184 351.112 0.494334 0.578683 0.64866 1.83335e+24
0.738739 28.4178 351.984 0.494583 0.582636 0.644921 1.83335e+24
1.86241 27.0863 352.436 0.498195 0.589317 0.636009 1.83335e+24
2.60848 25.6509 353.225 0.487074 0.59857 0.635982 1.83335e+24
3.94772 24.4529 353.331 0.477091 0.609764 0.632907 1.83335e+24
5.16111 23.1689 353.676 0.462411 0.61813 0.635682 1.83335e+24
6.23763 21.8026 354.139 0.421339 0.628503 0.653802 1.83335e+24
7.71176 20.7709 354.188 0.372837 0.640001 0.671857 1.83335e+24
