# .PCD v0.7 - Point Cloud Data file format
# 5 148 0
# 1 58 0
# 59 89 0
# 90 121 0
# 122 146 0
# 147 148 0
VERSION 0.7
FIELDS x y z normal_x normal_y normal_z curvature
SIZE 4 4 4 4 4 4 4
TYPE F F F F F F F
COUNT 1 1 1 1 1 1 1
WIDTH 148
HEIGHT 1
VIEWPOINT 0 0 0 1 0 0 0
POINTS 148
DATA ascii
35.6181 -23.9869 389.41 0.00234522 0.67052 0.741888 1.83335e+24
36.0616 -22.6095 388.339 -0.0131572 0.658052 0.752858 1.83335e+24
35.4661 -23.9126 389.429 -0.00247203 0.672046 0.740505 1.83335e+24
36.5087 -21.0535 386.874 -0.0356046 0.643799 0.764366 1.83335e+24
36.6576 -19.6178 385.799 -0.0566008 0.633571 0.771611 1.83335e+24
37.0852 -18.2749 384.679 -0.065444 0.621087 0.781005 1.83335e+24
37.1766 -16.7572 383.715 -0.0784313 0.610093 0.788439 1.83335e+24
37.3838 -15.2903 382.693 -0.0859157 0.597566 0.797203 1.83335e+24
37.7433 -13.8574 381.665 -0.08775 0.58386 0.807098 1.83335e+24
38.3741 -12.552 380.598 -0.0822386 0.570228 0.817359 1.83335e+24
38.4469 -10.9969 379.694 -0.0900698 0.558267 0.824758 1.83335e+24
39.3728 -9.85548 378.655 -0.0777197 0.545841 0.834277 1.83335e+24
40.8927 -8.90798 378.476 -0.0511307 0.534654 0.843523 1.83335e+24
42.1184 -7.80382 377.756 -0.0364447 0.521964 0.852189 1.83335e+24
42.5737 -6.28848 376.898 -0.0395657 0.511242 0.858526 1.83335e+24
43.1699 -4.89763 375.923 -0.0410044 0.500681 0.86466 1.83335e+24
43.2379 -3.29678 375.103 -0.0511331 0.486232 0.872332 1.83335e+24
43.3874 -1.70782 374.271 -0.0597934 0.470492 0.880376 1.83335e+24
43.4076 -0.0931981 373.475 -0.0691006 0.455784 0.887404 1.83335e+24
43.7302 1.44624 372.6 -0.0739589 0.44077 0.894568 1.83335e+24
43.9725 3.01964 371.76 -0.078334 0.426782 0.900956 1.83335e+24
44.0047 4.65721 371.013 -0.0828427 0.413856 0.906565 1.83335e+24
43.9476 6.33044 370.352 -0.0859862 0.401417 0.91185 1.83335e+24
44.0518 7.98155 369.643 -0.085562 0.388518 0.91746 1.83335e+24
44.0172 9.66041 368.995 -0.0843554 0.375499 0.922976 1.83335e+24
43.9758 11.3413 368.352 -0.0813104 0.362248 0.928528 1.83335e+24
44.2353 12.9371 367.561 -0.0732003 0.349959 0.933901 1.83335e+24
44.0101 14.6447 367.038 -0.0688633 0.335738 0.939435 1.83335e+24
44.0104 16.3333 366.415 -0.0603679 0.321903 0.944846 1.83335e+24
43.9443 18.0371 365.838 -0.0515658 0.307422 0.950175 1.83335e+24
43.8659 19.747 365.281 -0.0416503 0.296409 0.954153 1.83335e+24
43.7486 21.4724 364.782 -0.0307033 0.285411 0.957913 1.83335e+24
43.7853 23.1716 364.189 -0.014949 0.274691 0.961416 1.83335e+24
43.3703 24.8973 363.889 -0.00882761 0.259421 0.965724 1.83335e+24
43.288 26.624 363.388 0.00622693 0.245638 0.969342 1.83335e+24
43.0619 28.3702 363.014 0.0176507 0.229593 0.973127 1.83335e+24
42.8855 30.092 362.52 0.0306281 0.2131 0.97655 1.83335e+24
42.2687 31.7716 362.324 0.0251917 0.196405 0.980199 1.83335e+24
42.1495 33.5007 361.838 0.0373547 0.185982 0.981843 1.83335e+24
42.0065 35.2338 361.374 0.0481699 0.175248 0.983345 1.83335e+24
40.9932 36.714 361.523 0.0124781 0.15844 0.98729 1.83335e+24
40.9423 38.4714 361.137 0.0262675 0.147498 0.988714 1.83335e+24
40.8259 40.2203 360.727 0.0381043 0.135567 0.990035 1.83335e+24
40.3606 41.9535 360.587 0.0304506 0.119419 0.992377 1.83335e+24
39.628 43.5976 360.573 0.00375716 0.101177 0.994861 1.83335e+24
39.3226 45.3561 360.34 0.00460652 0.0886243 0.996054 1.83335e+24
38.7775 47.0681 360.23 -0.014521 0.0731284 0.997217 1.83335e+24
38.629 48.8365 359.929 0.00841622 0.0619328 0.998045 1.83335e+24
37.9438 50.5003 359.975 0.0105614 0.0444634 0.998955 1.83335e+24
37.3956 52.2145 359.945 0.0138682 0.0293072 0.999474 1.83335e+24
36.8268 53.9223 359.942 0.0144755 0.0139378 0.999798 1.83335e+24
36.1136 55.5745 359.982 0.00948973 -0.00286809 0.999951 1.83335e+24
35.556 57.286 359.982 0.012312 -0.0132316 0.999837 1.83335e+24
35.1449 59.0384 359.979 0.0221028 -0.0228205 0.999495 1.83335e+24
34.8532 60.8104 359.858 0.039 -0.0319852 0.998727 1.83335e+24
33.8722 62.2786 360.208 0.0368593 -0.0539362 0.997864 1.83335e+24
33.7127 64.069 360.113 0.0674931 -0.0654206 0.995573 1.83335e+24
32.5768 65.3842 360.582 0.0657604 -0.0972342 0.993087 1.83335e+24
32.3677 67.1719 360.557 0.0944028 -0.11325 0.989072 1.83335e+24
31.4328 68.6505 360.98 0.0899404 -0.142941 0.985636 1.83335e+24
30.0282 69.6869 361.42 0.0566348 -0.174446 0.983037 1.83335e+24
28.4146 68.9254 361.182 -0.00125248 -0.183408 0.983036 1.83335e+24
26.8824 67.9927 361.034 -0.0404595 -0.182341 0.982403 1.83335e+24
25.4552 66.9381 360.732 -0.0349425 -0.175346 0.983887 1.83335e+24
24.1616 65.6865 360.728 -0.0174767 -0.160922 0.986812 1.83335e+24
22.5811 64.8842 360.415 0.0132473 -0.145154 0.98932 1.83335e+24
21.1049 63.8698 360.237 0.0502038 -0.124519 0.990946 1.83335e+24
19.7389 62.699 360.296 0.0904415 -0.101995 0.990665 1.83335e+24
18.1523 61.8547 360.394 0.123114 -0.0803173 0.989137 1.83335e+24
16.5981 60.9539 360.51 0.145646 -0.0611342 0.987446 1.83335e+24
15.0052 60.1201 360.595 0.165299 -0.0463628 0.985153 1.83335e+24
13.6293 59.0293 360.991 0.181372 -0.0350105 0.982791 1.83335e+24
12.2372 57.9124 361.225 0.193344 -0.0287811 0.980709 1.83335e+24
10.9444 56.6722 361.4 0.197622 -0.0237158 0.979991 1.83335e+24
9.45923 55.7183 361.753 0.20428 -0.0161612 0.978779 1.83335e+24
8.10511 54.551 361.961 0.215498 -0.00277097 0.9765 1.83335e+24
6.87276 53.2816 362.293 0.231835 0.0145023 0.972647 1.83335e+24
5.45899 52.2475 362.708 0.254333 0.0337325 0.966528 1.83335e+24
4.04881 51.1746 363.024 0.28447 0.0558601 0.957056 1.83335e+24
2.94659 49.818 363.454 0.328027 0.0778906 0.941452 1.83335e+24
1.98236 48.4289 364.071 0.371175 0.100115 0.92315 1.83335e+24
0.712062 47.3032 364.671 0.42111 0.121592 0.898822 1.83335e+24
-0.0603635 45.8226 365.342 0.460108 0.142697 0.876321 1.83335e+24
-1.30722 44.8069 366.151 0.508955 0.157924 0.846183 1.83335e+24
-2.45918 43.7506 367.044 0.553898 0.170031 0.815037 1.83335e+24
-3.55005 42.7483 368.066 0.576026 0.185526 0.7961 1.83335e+24
-4.71096 41.8496 369.107 0.586278 0.201909 0.784545 1.83335e+24
-5.3946 40.5719 370.175 0.596766 0.214445 0.773229 1.83335e+24
-6.74141 39.9292 371.182 0.602363 0.227279 0.765182 1.83335e+24
-7.57192 38.7505 372.259 0.609053 0.236977 0.756899 1.83335e+24
-8.67005 37.9456 373.437 0.612835 0.245597 0.751076 1.83335e+24
-9.60701 36.8889 374.553 0.615851 0.251842 0.746527 1.83335e+24
-9.61056 35.118 374.875 0.619289 0.25299 0.743288 1.83335e+24
-9.61206 33.4958 375.655 0.622205 0.25436 0.74038 1.83335e+24
-9.49248 31.7944 376.23 0.625105 0.255218 0.737637 1.83335e+24
-9.0265 30.0685 376.441 0.628194 0.255169 0.735025 1.83335e+24
-8.48845 28.36 376.618 0.630991 0.255369 0.732555 1.83335e+24
-8.26636 26.6062 376.957 0.632974 0.256635 0.730399 1.83335e+24
-8.163 24.8821 377.464 0.634188 0.258509 0.728683 1.83335e+24
-8.11904 23.1577 377.978 0.634776 0.26362 0.726336 1.83335e+24
-8.04831 21.4371 378.502 0.634698 0.270616 0.723827 1.83335e+24
-7.7285 19.7283 378.969 0.63421 0.278011 0.721448 1.83335e+24
-7.81165 18.0539 379.624 0.632882 0.285733 0.719595 1.83335e+24
-7.81179 16.3763 380.277 0.631118 0.293764 0.717909 1.83335e+24
-7.81159 14.7087 380.954 0.628872 0.302033 0.716447 1.83335e+24
-7.36192 13.0407 381.46 0.627315 0.310715 0.714096 1.83335e+24
-7.79492 11.5771 382.414 0.623205 0.316696 0.715066 1.83335e+24
-7.81146 9.92738 383.134 0.62017 0.321576 0.715527 1.83335e+24
-7.81079 8.26149 383.815 0.617313 0.326504 0.715765 1.83335e+24
-7.75549 6.58615 384.471 0.614798 0.331458 0.715653 1.83335e+24
-7.52133 4.9731 385.235 0.612756 0.336378 0.715108 1.83335e+24
-7.5134 3.31623 385.938 0.610144 0.341296 0.715011 1.83335e+24
-7.77641 1.79831 386.869 0.605502 0.346168 0.716614 1.83335e+24
-7.67681 0.216378 387.722 0.602568 0.351386 0.716547 1.83335e+24
-7.91229 -1.34382 388.589 0.596909 0.356976 0.718518 1.83335e+24
-7.60139 -3.01618 389.177 0.593643 0.363898 0.717751 1.83335e+24
-7.2047 -4.68933 389.709 0.590122 0.372095 0.716451 1.83335e+24
-7.35681 -6.25959 390.576 0.580248 0.379846 0.720437 1.83335e+24
-7.11805 -7.8582 391.368 0.571295 0.389497 0.722436 1.83335e+24
-6.49292 -9.47753 391.845 0.566324 0.401823 0.719594 1.83335e+24
-6.59712 -11.0538 392.708 0.550407 0.39545 0.735303 1.83335e+24
-6.35312 -12.6754 393.45 0.538072 0.392421 0.745979 1.83335e+24
-5.95572 -14.2894 394.14 0.526841 0.391657 0.75435 1.83335e+24
-5.72858 -15.9656 394.756 0.512482 0.391562 0.764226 1.83335e+24
-4.34602 -16.1989 393.627 0.537379 0.406365 0.73898 1.83335e+24
-2.81795 -16.0109 392.694 0.530559 0.430144 0.730399 1.83335e+24
-1.3198 -16.3286 391.749 0.502048 0.4566 0.734483 1.83335e+24
0.269856 -16.6344 390.962 0.472203 0.480264 0.739169 1.83335e+24
1.79068 -16.6126 389.999 0.446389 0.499173 0.742673 1.83335e+24
3.32202 -17.3753 389.439 0.406401 0.521496 0.750253 1.83335e+24
5.02543 -17.7313 388.979 0.365435 0.542206 0.756618 1.83335e+24
6.7132 -17.884 388.372 0.325443 0.559904 0.761967 1.83335e+24
8.3787 -18.5441 388.198 0.28208 0.578036 0.765706 1.83335e+24
10.1063 -18.9414 387.886 0.25133 0.590953 0.766556 1.83335e+24
11.8136 -19.4968 387.757 0.223491 0.602135 0.766476 1.83335e+24
13.4299 -20.2582 387.976 0.197763 0.612163 0.765602 1.83335e+24
15.1661 -20.7312 387.93 0.173172 0.619612 0.765567 1.83335e+24
16.8892 -21.2476 387.993 0.153555 0.625999 0.764556 1.83335e+24
18.6391 -21.6685 388.021 0.134713 0.633496 0.761929 1.83335e+24
20.3186 -22.3161 388.012 0.113941 0.643376 0.757024 1.83335e+24
22.0883 -22.6381 388.077 0.0919204 0.654943 0.750066 1.83335e+24
23.8351 -22.9566 388.373 0.0611276 0.668956 0.740785 1.83335e+24
25.5886 -23.348 388.482 0.0222288 0.680312 0.732585 1.83335e+24
27.2686 -23.8147 388.929 -0.0142102 0.689471 0.724174 1.83335e+24
29.0104 -24.0498 389.317 -0.0487136 0.693807 0.718512 1.83335e+24
30.708 -24.4117 389.794 -0.0715341 0.69585 0.714616 1.83335e+24
32.4832 -24.4678 390.086 -0.0507086 0.69517 0.717055 1.83335e+24
34.2494 -24.5887 390.412 -0.0175821 0.688667 0.724865 1.83335e+24
