# .PCD v0.7 - Point Cloud Data file format
# 4 67 0
# 1 4 0
# 5 32 0
# 33 47 0
# 48 67 0
VERSION 0.7
FIELDS x y z normal_x normal_y normal_z curvature
SIZE 4 4 4 4 4 4 4
TYPE F F F F F F F
COUNT 1 1 1 1 1 1 1
WIDTH 67
HEIGHT 1
VIEWPOINT 0 0 0 1 0 0 0
POINTS 67
DATA ascii
14.9004 49.8647 326.187 -0.0828549 -0.487104 -0.869405 1.83335e+24
14.9032 48.2575 326.998 -0.00247562 -0.474909 -0.880031 1.83335e+24
14.7796 46.7171 327.921 0.0404068 -0.48088 -0.875855 1.83335e+24
14.7423 45.227 328.93 0.0686788 -0.497128 -0.864955 1.83335e+24
14.4516 43.6565 329.76 0.0612838 -0.501724 -0.862854 1.83335e+24
14.0335 42.057 330.472 0.0251927 -0.51485 -0.85691 1.83335e+24
13.3084 40.6723 331.364 -0.064665 -0.5332 -0.843514 1.83335e+24
12.3931 39.4421 332.307 -0.136927 -0.546199 -0.826388 1.83335e+24
11.7868 38.0824 333.319 -0.157708 -0.561179 -0.812531 1.83335e+24
11.3933 36.6695 334.362 -0.165718 -0.576211 -0.800324 1.83335e+24
11.2461 35.2457 335.454 -0.158779 -0.591801 -0.790292 1.83335e+24
10.8602 33.8888 336.572 -0.157955 -0.597553 -0.786117 1.83335e+24
10.7355 32.569 337.789 -0.144825 -0.606298 -0.781939 1.83335e+24
10.0475 31.2395 338.789 -0.160059 -0.608817 -0.776996 1.83335e+24
10.0926 29.8613 339.946 -0.147633 -0.621414 -0.769448 1.83335e+24
9.47937 28.5835 341.055 -0.178856 -0.629032 -0.756525 1.83335e+24
9.4987 27.2219 342.232 -0.17475 -0.643035 -0.745633 1.83335e+24
9.43498 25.9333 343.488 -0.176321 -0.65409 -0.735579 1.83335e+24
9.65883 24.6806 344.761 -0.16616 -0.658674 -0.733852 1.83335e+24
9.01919 23.3566 345.799 -0.197526 -0.659406 -0.725374 1.83335e+24
8.97032 22.0085 346.991 -0.200004 -0.665539 -0.719066 1.83335e+24
9.05439 20.9572 347.983 -0.18853 -0.686745 -0.702024 1.83335e+24
8.99605 19.7064 349.276 -0.185034 -0.704543 -0.685114 1.83335e+24
8.8754 18.5193 350.624 -0.191417 -0.714957 -0.672455 1.83335e+24
7.96537 17.532 351.823 -0.239786 -0.710455 -0.661632 1.83335e+24
6.42976 18.4621 351.693 -0.331077 -0.682889 -0.651191 1.83335e+24
5.24444 19.6383 351.021 -0.37774 -0.664478 -0.644811 1.83335e+24
3.74166 20.6281 350.975 -0.429446 -0.644877 -0.632226 1.83335e+24
2.36162 21.7792 350.873 -0.458795 -0.630066 -0.626517 1.83335e+24
1.14295 23.0363 350.455 -0.465269 -0.624238 -0.627576 1.83335e+24
-0.0756759 24.3419 350.232 -0.464855 -0.621424 -0.630668 1.83335e+24
-0.686339 25.6995 349.22 -0.458849 -0.623289 -0.633221 1.83335e+24
-1.77264 26.9756 348.563 -0.444583 -0.630352 -0.636398 1.83335e+24
-2.57413 28.3548 347.729 -0.43949 -0.628605 -0.641642 1.83335e+24
-3.2557 29.7566 346.829 -0.444029 -0.610606 -0.655742 1.83335e+24
-4.13585 31.2148 346.246 -0.458808 -0.590754 -0.663706 1.83335e+24
-4.78772 32.6853 345.438 -0.471998 -0.5704 -0.672207 1.83335e+24
-5.17493 34.1275 344.433 -0.478218 -0.557745 -0.678401 1.83335e+24
-5.68615 35.635 343.593 -0.485415 -0.545468 -0.683255 1.83335e+24
-5.98166 37.125 342.627 -0.487015 -0.534839 -0.69048 1.83335e+24
-6.7875 38.6323 342.063 -0.494592 -0.527985 -0.69037 1.83335e+24
-7.29573 40.1813 341.3 -0.50062 -0.521728 -0.690782 1.83335e+24
-7.59734 41.6772 340.345 -0.505486 -0.51563 -0.691817 1.83335e+24
-7.66399 43.1438 339.304 -0.508028 -0.508715 -0.695066 1.83335e+24
-8.05752 44.6898 338.47 -0.515216 -0.498224 -0.69737 1.83335e+24
-8.92143 46.2033 338.019 -0.526633 -0.488053 -0.696033 1.83335e+24
-9.55785 47.8495 337.666 -0.531644 -0.481896 -0.696514 1.83335e+24
-9.89463 49.3648 336.755 -0.529124 -0.480073 -0.699684 1.83335e+24
-10.0763 50.8779 335.797 -0.525716 -0.477705 -0.703862 1.83335e+24
-10.1033 52.3598 334.775 -0.522439 -0.47408 -0.708735 1.83335e+24
-9.78499 53.7109 333.629 -0.518305 -0.463937 -0.718416 1.83335e+24
-10.0412 55.2817 332.789 -0.516203 -0.457381 -0.724112 1.83335e+24
-10.0319 56.8037 331.828 -0.515929 -0.45138 -0.728061 1.83335e+24
-8.48763 56.165 331.159 -0.503303 -0.452259 -0.736307 1.83335e+24
-6.92441 55.8183 330.337 -0.475514 -0.449579 -0.756152 1.83335e+24
-5.482 54.7898 330.018 -0.454379 -0.447038 -0.770518 1.83335e+24
-3.8664 54.2046 329.482 -0.429497 -0.439858 -0.788706 1.83335e+24
-2.29858 53.3851 329.15 -0.401092 -0.437017 -0.805072 1.83335e+24
-0.713486 52.6217 328.769 -0.363519 -0.438575 -0.821892 1.83335e+24
0.979803 52.2849 328.26 -0.315535 -0.439736 -0.840875 1.83335e+24
2.68089 51.7816 327.955 -0.282992 -0.439082 -0.852715 1.83335e+24
4.41838 51.496 327.581 -0.263908 -0.43988 -0.858405 1.83335e+24
6.11508 50.9736 327.284 -0.243948 -0.445283 -0.861517 1.83335e+24
7.85791 50.6594 326.962 -0.227771 -0.444231 -0.866475 1.83335e+24
9.58187 50.1756 326.778 -0.201228 -0.433691 -0.878305 1.83335e+24
11.3428 50.3 326.426 -0.150248 -0.428763 -0.890835 1.83335e+24
13.1334 50.1965 326.275 -0.0996294 -0.438915 -0.892988 1.83335e+24
