# .PCD v0.7 - Point Cloud Data file format
# 4 30 0
# 1 5 0
# 6 13 0
# 14 28 0
# 29 30 0
VERSION 0.7
FIELDS x y z normal_x normal_y normal_z curvature
SIZE 4 4 4 4 4 4 4
TYPE F F F F F F F
COUNT 1 1 1 1 1 1 1
WIDTH 30
HEIGHT 1
VIEWPOINT 0 0 0 1 0 0 0
POINTS 30
DATA ascii
30.346800 -145.577000 -1480.930000 0.657720 0.012874 0.753152 0.010000
30.014900 -145.451000 -1480.820000 0.665725 -0.007327 0.746161 1.000000
29.683000 -145.325000 -1480.710000 0.672713 -0.022414 0.739564 1.000000
35.279900 -151.187000 -1479.140000 0.506745 0.562916 0.652944 1.000000
35.388500 -150.998000 -1479.440000 0.555209 0.511904 0.655512 1.000000
35.497100 -150.810000 -1479.740000 0.558787 0.545647 0.624521 1.000000
35.523100 -150.576000 -1480.020000 0.551014 0.586964 0.593176 1.000000
35.490000 -150.309000 -1480.270000 0.527509 0.628766 0.571303 0.010000
35.452800 -150.041000 -1480.530000 0.490490 0.662040 0.566677 1.000000
35.395000 -149.767000 -1480.770000 0.451631 0.683242 0.573768 1.000000
35.337200 -149.493000 -1481.020000 0.416722 0.691877 0.589617 1.000000
35.310800 -149.229000 -1481.270000 0.390359 0.688577 0.611132 1.000000
35.295000 -148.969000 -1481.540000 0.372530 0.677163 0.634565 1.000000
35.244600 -148.694000 -1481.770000 0.396208 0.629827 0.668085 1.000000
35.125300 -148.391000 -1481.950000 0.421026 0.582485 0.695304 1.000000
35.005900 -148.088000 -1482.130000 0.442996 0.537797 0.717307 0.010000
34.742400 -147.836000 -1482.170000 0.462566 0.500929 0.731507 1.000000
34.465800 -147.589000 -1482.200000 0.477071 0.468424 0.743628 1.000000
34.173500 -147.364000 -1482.190000 0.485580 0.443015 0.753624 1.000000
33.865400 -147.159000 -1482.160000 0.488401 0.424765 0.762259 1.000000
33.556900 -146.956000 -1482.120000 0.486363 0.411256 0.770922 1.000000
33.243500 -146.769000 -1482.050000 0.486652 0.394973 0.779208 1.000000
32.930000 -146.583000 -1481.980000 0.514823 0.339280 0.787303 1.000000
32.617700 -146.439000 -1481.840000 0.540149 0.289042 0.790376 1.000000
32.306000 -146.315000 -1481.680000 0.563549 0.241494 0.789996 1.000000
31.991300 -146.187000 -1481.540000 0.585955 0.192681 0.787102 1.000000
31.667800 -146.047000 -1481.420000 0.606507 0.143341 0.782051 1.000000
31.344300 -145.908000 -1481.300000 0.623748 0.098732 0.775365 1.000000
31.012700 -145.797000 -1481.170000 0.637160 0.064587 0.768021 1.000000
30.679500 -145.691000 -1481.050000 0.648279 0.036694 0.760518 1.000000
