# .PCD v0.7 - Point Cloud Data file format
# 4 64 0
# 1 5 0
# 6 31 0
# 32 60 0
# 61 64 0
VERSION 0.7
FIELDS x y z normal_x normal_y normal_z curvature
SIZE 4 4 4 4 4 4 4
TYPE F F F F F F F
COUNT 1 1 1 1 1 1 1
WIDTH 64
HEIGHT 1
VIEWPOINT 0 0 0 1 0 0 0
POINTS 64
DATA ascii
-77.075900 -129.441000 -1341.360000 0.631800 -0.105823 -0.767874 0.010000
-78.558000 -128.353000 -1341.000000 0.618778 -0.154569 -0.770209 1.000000
-79.411600 -126.533000 -1341.420000 0.528206 -0.311023 -0.790103 1.000000
-80.265300 -124.713000 -1341.850000 0.488230 -0.344286 -0.801935 1.000000
-81.118900 -122.892000 -1342.270000 0.440524 -0.370439 -0.817749 1.000000
0.215000 -110.557000 -1313.960000 -0.762936 0.639325 0.095879 1.000000
0.905659 -108.856000 -1313.040000 -0.764251 0.636975 0.100916 1.000000
1.596320 -107.154000 -1312.120000 -0.764699 0.635544 0.106391 1.000000
2.286980 -105.453000 -1311.200000 -0.764197 0.635097 0.112493 1.000000
2.164820 -106.103000 -1311.580000 -0.764740 0.634711 0.110977 0.010000
1.667510 -107.838000 -1312.560000 -0.765259 0.634926 0.106053 1.000000
1.170200 -109.573000 -1313.540000 -0.764974 0.635944 0.101931 1.000000
0.594766 -111.283000 -1314.510000 -0.761567 0.643378 0.077980 1.000000
-0.114613 -112.950000 -1315.480000 -0.752641 0.657225 0.039842 1.000000
-0.823991 -114.616000 -1316.450000 0.942875 -0.325509 -0.070934 1.000000
-1.547800 -116.276000 -1317.420000 0.893124 -0.446924 -0.050887 1.000000
-2.531280 -117.812000 -1318.370000 0.830458 -0.556402 -0.027512 1.000000
-3.514770 -119.348000 -1319.310000 0.765860 -0.642983 -0.005595 1.000000
-4.498260 -120.884000 -1320.260000 0.709159 -0.704983 0.009610 1.000000
-6.038660 -121.942000 -1320.980000 -0.738066 0.666447 0.105396 1.000000
-7.777960 -122.828000 -1321.620000 -0.737798 0.663593 0.123688 1.000000
-9.517250 -123.714000 -1322.260000 -0.736135 0.662226 0.139866 1.000000
-11.019700 -124.799000 -1323.050000 -0.728938 0.667076 0.153816 1.000000
-12.196600 -126.158000 -1324.040000 -0.730292 0.681842 0.042011 1.000000
-13.373500 -127.518000 -1325.040000 -0.706557 0.686155 0.173112 1.000000
-14.503800 -128.891000 -1326.050000 0.641001 -0.759626 -0.109936 1.000000
-15.238900 -130.387000 -1327.260000 0.704008 -0.700536 -0.116712 1.000000
-15.974000 -131.883000 -1328.460000 -0.812104 0.565688 0.143125 1.000000
-16.709000 -133.379000 -1329.660000 0.842746 -0.535162 -0.058151 1.000000
-17.433500 -134.888000 -1330.850000 0.903279 -0.429053 -0.001158 1.000000
-18.155300 -136.400000 -1332.040000 0.948494 -0.310866 0.060996 1.000000
-18.877000 -137.912000 -1333.230000 0.957102 -0.284836 0.053150 1.000000
-19.898600 -139.300000 -1334.280000 0.952685 -0.303789 0.010181 1.000000
-21.253400 -140.549000 -1335.190000 0.944449 -0.326270 -0.039538 1.000000
-22.608100 -141.798000 -1336.100000 0.928336 -0.357018 -0.103585 1.000000
-24.024900 -142.825000 -1337.030000 0.899576 -0.397110 -0.181845 0.010000
-25.771700 -142.664000 -1338.100000 0.858100 -0.438506 -0.267164 1.000000
-27.518600 -142.503000 -1339.170000 0.786384 -0.490606 -0.375374 1.000000
-29.265500 -142.342000 -1340.240000 0.667033 -0.549390 -0.503227 1.000000
-31.027900 -142.213000 -1341.290000 -0.546236 0.835788 -0.055539 1.000000
-32.793200 -142.091000 -1342.330000 0.398956 -0.593619 -0.698892 1.000000
-34.558600 -141.969000 -1343.380000 0.816205 -0.434166 -0.381195 1.000000
-36.350600 -141.757000 -1344.350000 0.733344 -0.519436 -0.438626 1.000000
-38.166800 -141.464000 -1345.270000 -0.315805 0.946845 0.061258 1.000000
-39.983000 -141.170000 -1346.180000 0.597310 -0.593712 -0.539191 1.000000
-41.805200 -140.751000 -1346.940000 0.533686 -0.612563 -0.583049 1.000000
-43.649800 -139.861000 -1347.100000 0.487601 -0.613293 -0.621384 1.000000
-45.494400 -138.971000 -1347.260000 0.443549 -0.599462 -0.666266 1.000000
-47.339000 -138.081000 -1347.420000 0.403593 -0.554166 -0.728020 1.000000
-49.271300 -137.411000 -1347.590000 0.360812 -0.445922 -0.819126 1.000000
-51.213800 -136.767000 -1347.780000 0.587050 -0.639419 -0.496503 1.000000
-53.156300 -136.123000 -1347.960000 0.537919 -0.652562 -0.533672 1.000000
-55.069500 -135.423000 -1348.210000 0.486255 -0.659689 -0.573033 1.000000
-56.961500 -134.683000 -1348.510000 0.434855 -0.659771 -0.612865 1.000000
-58.853400 -133.942000 -1348.820000 0.387027 -0.653492 -0.650506 1.000000
-60.736000 -133.334000 -1348.820000 0.347965 -0.651170 -0.674461 1.000000
-62.592400 -133.096000 -1347.970000 0.326009 -0.669295 -0.667655 1.000000
-64.448800 -132.859000 -1347.130000 0.366801 -0.614537 -0.698428 1.000000
-66.305200 -132.622000 -1346.280000 0.436749 -0.521092 -0.733289 1.000000
-68.119900 -132.268000 -1345.380000 0.494809 -0.430531 -0.754856 1.000000
-69.932200 -131.907000 -1344.490000 0.534774 -0.357008 -0.765873 1.000000
-71.744600 -131.546000 -1343.590000 0.560466 -0.302991 -0.770762 1.000000
-73.531500 -130.940000 -1342.800000 0.626148 -0.135578 -0.767827 1.000000
-75.303700 -130.191000 -1342.080000 0.632391 -0.108847 -0.766964 1.000000
