# .PCD v0.7 - Point Cloud Data file format
# 5 140 0
# 1 18 0
# 19 48 0
# 49 94 0
# 95 126 0
# 127 140 0
VERSION 0.7
FIELDS x y z normal_x normal_y normal_z curvature
SIZE 4 4 4 4 4 4 4
TYPE F F F F F F F
COUNT 1 1 1 1 1 1 1
WIDTH 140
HEIGHT 1
VIEWPOINT 0 0 0 1 0 0 0
POINTS 140
DATA ascii
8.505770 -136.293000 -1466.900000 0.976512 0.170254 -0.132052 0.010000
8.902630 -135.185000 -1465.710000 0.983637 0.138805 -0.114856 1.000000
9.232100 -133.791000 -1464.830000 0.989771 0.090105 -0.110605 1.000000
8.896260 -132.689000 -1463.610000 0.992859 0.058235 -0.104113 1.000000
9.051340 -132.153000 -1462.030000 0.992971 0.053434 -0.105607 1.000000
9.163660 -131.371000 -1460.550000 0.992318 0.049204 -0.113509 1.000000
9.395850 -131.148000 -1458.900000 0.988808 0.060643 -0.136316 1.000000
9.565140 -130.492000 -1457.370000 0.984848 0.067253 -0.159845 1.000000
9.794620 -129.537000 -1456.010000 0.982181 0.078984 -0.170535 1.000000
9.925310 -129.193000 -1454.370000 0.977944 0.096823 -0.185072 1.000000
10.336300 -128.780000 -1452.800000 0.974399 0.111430 -0.195270 1.000000
10.503600 -127.776000 -1451.460000 0.973075 0.120596 -0.196420 1.000000
10.581700 -127.130000 -1449.920000 0.971132 0.130048 -0.199976 1.000000
10.722100 -126.145000 -1448.570000 0.970051 0.137692 -0.200104 1.000000
11.008100 -125.876000 -1446.930000 0.969009 0.143663 -0.200953 1.000000
12.010000 -124.870000 -1441.980000 0.972412 0.150826 -0.177952 1.000000
12.137300 -123.974000 -1440.570000 0.973587 0.153382 -0.169119 1.000000
12.231900 -123.091000 -1439.140000 0.974751 0.155798 -0.159964 1.000000
12.360600 -122.393000 -1437.620000 0.974568 0.145837 -0.170144 1.000000
12.583900 -122.184000 -1435.970000 0.970313 0.123736 -0.207805 1.000000
12.744200 -121.622000 -1434.400000 0.961830 0.101698 -0.254047 1.000000
13.160900 -121.266000 -1432.810000 0.948908 0.081835 -0.304757 1.000000
13.933600 -120.764000 -1431.410000 0.931344 0.062501 -0.358737 1.000000
14.543700 -119.824000 -1430.160000 0.910059 0.041735 -0.412373 1.000000
15.027600 -119.083000 -1428.740000 0.907579 0.072487 -0.413577 1.000000
15.321300 -118.475000 -1427.200000 0.912667 0.120129 -0.390651 1.000000
15.772000 -117.278000 -1426.120000 0.918956 0.161986 -0.359557 1.000000
16.400100 -116.865000 -1424.610000 0.920566 0.193294 -0.339404 1.000000
16.963900 -117.159000 -1423.060000 0.925054 0.204347 -0.320185 1.000000
17.483200 -118.093000 -1421.770000 0.935379 0.182705 -0.302795 1.000000
17.995100 -119.216000 -1420.630000 0.942514 0.155209 -0.295936 1.000000
18.587800 -119.122000 -1419.060000 0.942919 0.170846 -0.285858 1.000000
19.199200 -119.569000 -1417.570000 0.938844 0.171293 -0.298715 0.010000
19.576800 -120.856000 -1416.560000 0.933709 0.135942 -0.331222 1.000000
19.793500 -122.518000 -1416.470000 0.933078 0.092621 -0.347543 1.000000
20.228000 -123.957000 -1415.730000 0.928223 0.075290 -0.364327 1.000000
20.672100 -125.492000 -1415.220000 0.925809 0.067864 -0.371850 1.000000
20.556400 -127.157000 -1415.390000 0.926660 0.072321 -0.368878 1.000000
20.479900 -128.780000 -1415.810000 0.927515 0.086029 -0.363750 1.000000
20.827200 -130.374000 -1415.420000 0.927653 0.097441 -0.360507 1.000000
21.545200 -131.609000 -1414.540000 0.928155 0.099438 -0.358666 1.000000
21.522500 -133.284000 -1414.630000 0.930437 0.109610 -0.349676 1.000000
21.655400 -134.951000 -1414.780000 0.932799 0.119324 -0.340071 1.000000
22.222900 -136.075000 -1413.670000 0.932535 0.118394 -0.341119 1.000000
22.549600 -137.698000 -1413.390000 0.934003 0.123896 -0.335095 1.000000
22.830200 -139.332000 -1413.130000 0.936521 0.126253 -0.327091 1.000000
23.277400 -140.574000 -1412.100000 0.937751 0.122989 -0.324803 1.000000
23.597500 -142.214000 -1411.950000 0.940608 0.128588 -0.314201 1.000000
24.513300 -143.478000 -1411.330000 0.942714 0.129469 -0.307453 1.000000
24.766900 -145.084000 -1410.920000 0.945873 0.138148 -0.293666 1.000000
25.007100 -146.639000 -1410.330000 0.945382 0.157974 -0.285128 1.000000
25.444600 -148.078000 -1409.590000 0.942043 0.177699 -0.284565 1.000000
25.964000 -149.492000 -1408.850000 0.937707 0.194820 -0.287664 1.000000
26.165100 -151.150000 -1408.690000 0.935867 0.217756 -0.277013 1.000000
26.804500 -152.476000 -1407.880000 0.929599 0.227153 -0.290255 1.000000
27.005200 -154.123000 -1407.630000 0.929745 0.234908 -0.283534 1.000000
27.719000 -155.535000 -1407.070000 0.927171 0.231689 -0.294403 1.000000
28.968400 -156.181000 -1406.160000 0.916987 0.225360 -0.329162 1.000000
29.475200 -157.577000 -1405.370000 0.908325 0.221381 -0.354874 1.000000
29.722400 -159.179000 -1404.940000 0.901682 0.212785 -0.376421 1.000000
30.199800 -160.783000 -1404.820000 0.903881 0.183777 -0.386296 1.000000
30.265500 -162.450000 -1404.640000 0.904480 0.161225 -0.394870 1.000000
30.127100 -164.109000 -1404.860000 0.908740 0.150060 -0.389454 0.010000
30.278900 -165.452000 -1405.850000 0.915522 0.146997 -0.374448 1.000000
30.824200 -166.957000 -1406.360000 0.917192 0.148008 -0.369937 1.000000
30.607600 -168.463000 -1407.060000 0.920651 0.152153 -0.359516 1.000000
30.054000 -169.587000 -1408.180000 0.925810 0.155691 -0.344437 1.000000
29.745100 -170.868000 -1409.220000 0.929436 0.159529 -0.332714 1.000000
29.385000 -171.840000 -1410.540000 0.934722 0.164583 -0.314972 1.000000
29.205900 -172.940000 -1411.790000 0.938128 0.175532 -0.298505 1.000000
29.107100 -173.788000 -1413.240000 0.940193 0.188489 -0.283740 1.000000
28.798300 -174.357000 -1414.790000 0.941104 0.200515 -0.272244 1.000000
28.584600 -175.167000 -1416.240000 0.939887 0.217320 -0.263410 1.000000
28.522800 -176.286000 -1417.490000 0.935989 0.241702 -0.255940 1.000000
28.427400 -177.350000 -1418.780000 0.930120 0.259340 -0.260037 1.000000
28.641300 -178.537000 -1419.950000 0.923624 0.276381 -0.265580 1.000000
28.504900 -179.444000 -1421.350000 0.919747 0.284307 -0.270619 1.000000
28.328100 -180.289000 -1422.790000 0.917505 0.288464 -0.273813 1.000000
28.201800 -181.126000 -1424.240000 0.916476 0.290321 -0.275291 1.000000
27.658400 -181.537000 -1425.780000 0.919055 0.285161 -0.272068 1.000000
27.213800 -181.991000 -1427.330000 0.921717 0.279780 -0.268627 1.000000
26.834500 -182.190000 -1428.950000 0.925189 0.272685 -0.263946 1.000000
26.468900 -182.380000 -1430.580000 0.928658 0.265929 -0.258603 1.000000
25.783100 -181.761000 -1431.980000 0.934342 0.254521 -0.249449 1.000000
25.371400 -182.049000 -1433.580000 0.937579 0.249036 -0.242748 1.000000
25.170800 -182.428000 -1435.200000 0.940660 0.244326 -0.235505 1.000000
24.740000 -182.038000 -1436.780000 0.946259 0.234136 -0.223100 1.000000
24.286200 -181.771000 -1438.370000 0.952072 0.222253 -0.210148 1.000000
23.832800 -181.267000 -1439.900000 0.953396 0.220640 -0.205802 1.000000
23.611800 -181.416000 -1441.560000 0.953646 0.220293 -0.205012 0.238215
23.408300 -181.403000 -1443.230000 0.953464 0.221005 -0.205093 0.989513
22.850000 -180.962000 -1444.750000 0.952837 0.223449 -0.205357 1.000000
22.334500 -180.630000 -1446.310000 0.952589 0.225243 -0.204549 1.000000
21.941900 -180.593000 -1447.940000 0.953202 0.225197 -0.201724 1.000000
21.480400 -180.799000 -1449.540000 0.954824 0.222946 -0.196484 1.000000
21.190500 -181.089000 -1451.170000 0.956826 0.221058 -0.188724 1.000000
20.962900 -181.226000 -1452.820000 0.957933 0.220059 -0.184225 1.000000
20.825800 -181.314000 -1454.490000 0.957626 0.220996 -0.184696 1.000000
20.572300 -181.641000 -1456.120000 0.956657 0.222300 -0.188123 1.000000
20.847600 -182.633000 -1457.440000 0.954074 0.229935 -0.192023 1.000000
20.573800 -183.130000 -1459.020000 0.951302 0.235305 -0.199139 1.000000
20.250300 -183.258000 -1460.670000 0.950370 0.256197 -0.176523 1.000000
19.936300 -183.006000 -1462.290000 0.953009 0.274868 -0.127366 1.000000
19.493700 -182.641000 -1463.870000 0.956282 0.285006 -0.065555 1.000000
19.568400 -183.301000 -1465.410000 0.951778 0.306458 0.014185 1.000000
19.789000 -184.033000 -1466.910000 0.945222 0.313140 0.092190 1.000000
20.138800 -183.723000 -1468.520000 0.934975 0.303488 0.183619 1.000000
20.585900 -183.728000 -1470.130000 0.916882 0.288669 0.275678 1.000000
21.300800 -184.332000 -1471.530000 0.899712 0.265932 0.346119 0.010000
20.922900 -182.772000 -1472.020000 0.883579 0.273556 0.380072 1.000000
20.779400 -181.198000 -1472.580000 0.856124 0.375827 0.354692 1.000000
20.365300 -179.574000 -1472.500000 0.847532 0.441879 0.293994 1.000000
19.626700 -178.307000 -1471.690000 0.865986 0.448713 0.220735 1.000000
18.757200 -177.038000 -1471.020000 0.885789 0.440967 0.144660 1.000000
18.011200 -175.559000 -1470.750000 0.899561 0.430860 0.071756 1.000000
17.248900 -174.097000 -1470.440000 0.914687 0.404153 -0.002768 1.000000
16.583400 -172.557000 -1470.390000 0.932506 0.356393 -0.058459 1.000000
15.479400 -171.551000 -1471.150000 0.943559 0.325250 -0.062517 1.000000
14.560500 -170.528000 -1472.110000 0.952178 0.299897 -0.058472 1.000000
13.567300 -169.254000 -1472.570000 0.963529 0.258394 -0.069597 1.000000
13.767200 -167.897000 -1473.530000 0.970888 0.230349 -0.065696 1.000000
13.717200 -166.223000 -1473.430000 0.978872 0.186578 -0.083653 1.000000
13.607500 -164.573000 -1473.710000 0.979483 0.174450 -0.100892 1.000000
13.424400 -162.908000 -1473.810000 0.979521 0.165761 -0.114291 1.000000
13.227300 -161.242000 -1473.780000 0.979283 0.160692 -0.123216 1.000000
13.110800 -159.570000 -1473.700000 0.979193 0.158769 -0.126389 1.000000
12.987700 -157.942000 -1473.320000 0.979693 0.155293 -0.126827 1.000000
12.520100 -156.536000 -1472.530000 0.980186 0.150235 -0.129090 1.000000
12.182800 -154.923000 -1472.210000 0.977329 0.157364 -0.141646 1.000000
11.912900 -153.445000 -1471.470000 0.975211 0.161291 -0.151490 1.000000
11.659800 -151.788000 -1471.540000 0.969899 0.176596 -0.167660 1.000000
11.418500 -150.198000 -1471.060000 0.965009 0.189960 -0.180754 1.000000
11.323600 -148.561000 -1470.710000 0.958394 0.209017 -0.194403 1.000000
11.215900 -146.962000 -1470.210000 0.950486 0.231721 -0.207080 1.000000
10.995300 -145.544000 -1469.340000 0.943274 0.259055 -0.207666 1.000000
10.650600 -143.930000 -1469.030000 0.945799 0.263642 -0.189624 1.000000
10.336800 -142.284000 -1469.110000 0.950207 0.257713 -0.175187 1.000000
9.874370 -140.823000 -1468.430000 0.954567 0.251012 -0.160608 1.000000
9.501300 -139.198000 -1468.240000 0.961014 0.231522 -0.151160 1.000000
9.046320 -137.776000 -1467.470000 0.968321 0.207047 -0.139595 1.000000
