# .PCD v0.7 - Point Cloud Data file format
# 5 78 0
# 1 5 0
# 6 31 0
# 32 52 0
# 53 69 0
# 70 78 0
VERSION 0.7
FIELDS x y z normal_x normal_y normal_z curvature
SIZE 4 4 4 4 4 4 4
TYPE F F F F F F F
COUNT 1 1 1 1 1 1 1
WIDTH 78
HEIGHT 1
VIEWPOINT 0 0 0 1 0 0 0
POINTS 78
DATA ascii
250.571000 -31.445100 -1641.000000 0.929223 -0.301671 0.213397 0.010000
249.648000 -32.891500 -1640.150000 0.937020 -0.289690 0.195124 1.000000
249.055000 -34.634600 -1639.610000 0.941410 -0.275317 0.194801 1.000000
248.770000 -35.611800 -1637.990000 0.945530 -0.277739 0.169807 1.000000
247.902000 -37.129400 -1637.200000 0.949205 -0.264826 0.169935 1.000000
247.282000 -38.395100 -1635.900000 0.953082 -0.258785 0.157052 1.000000
246.676000 -39.607500 -1634.550000 0.957568 -0.252039 0.139786 1.000000
246.169000 -41.069400 -1633.420000 0.962472 -0.239790 0.127072 1.000000
245.643000 -42.564300 -1632.340000 0.961507 -0.244014 0.126338 1.000000
245.247000 -44.274800 -1631.570000 0.957704 -0.254175 0.134900 1.000000
243.642000 -48.987000 -1630.620000 0.956436 -0.245228 0.158408 1.000000
243.179000 -50.846700 -1630.660000 0.960261 -0.222280 0.168789 1.000000
242.842000 -52.733800 -1630.680000 0.961490 -0.201852 0.186529 1.000000
242.399000 -54.542000 -1630.220000 0.950349 -0.217312 0.222738 1.000000
241.692000 -56.308400 -1630.460000 0.942816 -0.219518 0.250819 0.010000
241.875000 -58.034800 -1631.270000 0.938548 -0.216060 0.269158 1.000000
241.806000 -59.252000 -1632.750000 0.940126 -0.214663 0.264731 1.000000
242.050000 -60.509800 -1634.170000 0.941921 -0.211823 0.260606 1.000000
242.242000 -61.782800 -1635.600000 0.945050 -0.216784 0.244715 1.000000
242.576000 -62.453800 -1637.360000 0.949459 -0.225502 0.218350 1.000000
242.252000 -64.064700 -1638.350000 0.948106 -0.244180 0.203642 1.000000
242.100000 -65.505500 -1639.600000 0.946005 -0.258834 0.195140 1.000000
242.382000 -65.673200 -1641.490000 0.948710 -0.239611 0.206243 1.000000
242.699000 -65.941900 -1643.360000 0.953366 -0.217570 0.209182 1.000000
243.107000 -66.545100 -1645.140000 0.958410 -0.194049 0.209274 1.000000
243.288000 -67.286400 -1646.900000 0.963525 -0.172159 0.204893 1.000000
243.606000 -68.417000 -1648.410000 0.965978 -0.156282 0.206064 1.000000
243.807000 -68.850500 -1650.270000 0.969728 -0.137849 0.201556 1.000000
244.307000 -68.779700 -1652.120000 0.972802 -0.119478 0.198448 1.000000
244.585000 -69.204400 -1653.960000 0.971375 -0.107360 0.211905 1.000000
244.930000 -69.167700 -1655.850000 0.967106 -0.098367 0.234584 1.000000
245.346000 -69.330300 -1657.710000 0.956884 -0.102358 0.271839 1.000000
245.685000 -69.758900 -1659.550000 0.950434 -0.120688 0.286549 1.000000
246.249000 -70.240800 -1661.320000 0.952770 -0.139455 0.269779 1.000000
246.813000 -70.772400 -1663.070000 0.958589 -0.152675 0.240411 1.000000
247.216000 -71.556400 -1664.780000 0.963214 -0.162773 0.213833 1.000000
247.485000 -71.674500 -1666.670000 0.965808 -0.158840 0.204903 1.000000
247.845000 -71.912100 -1668.540000 0.964844 -0.162093 0.206886 1.000000
248.288000 -71.504000 -1670.360000 0.961651 -0.161819 0.221455 1.000000
248.803000 -70.368200 -1671.810000 0.953426 -0.163966 0.253168 1.000000
249.749000 -69.328900 -1673.120000 0.941868 -0.179446 0.284050 0.010000
249.986000 -67.442700 -1673.360000 0.933737 -0.197385 0.298621 1.000000
250.123000 -65.568300 -1672.990000 0.927818 -0.219277 0.301780 1.000000
250.361000 -63.698700 -1672.640000 0.925323 -0.233590 0.298686 1.000000
250.945000 -62.072900 -1673.470000 0.919933 -0.239620 0.310331 1.000000
251.525000 -60.253300 -1673.300000 0.919688 -0.238458 0.311949 1.000000
252.131000 -58.435600 -1673.240000 0.918371 -0.232720 0.320058 1.000000
252.354000 -56.556800 -1672.930000 0.920227 -0.222608 0.321914 1.000000
252.687000 -54.669100 -1672.910000 0.919097 -0.214203 0.330723 1.000000
253.104000 -52.799100 -1672.850000 0.918634 -0.206467 0.336873 1.000000
253.558000 -50.936700 -1672.820000 0.888546 -0.252468 0.383075 1.000000
254.657000 -49.507500 -1673.480000 0.813973 -0.321855 0.483588 1.000000
255.448000 -47.789500 -1673.170000 0.752173 -0.368689 0.546173 1.000000
256.081000 -46.027300 -1672.760000 0.702937 -0.385026 0.598026 1.000000
256.382000 -44.241800 -1672.130000 0.670106 -0.386207 0.633878 1.000000
257.305000 -42.654400 -1671.570000 0.595214 -0.420429 0.684806 1.000000
258.335000 -41.127100 -1671.050000 0.490067 -0.457199 0.742162 1.000000
258.403000 -39.238800 -1671.370000 0.627721 -0.326898 0.706473 1.000000
258.250000 -37.353200 -1671.060000 0.698921 -0.188601 0.689883 1.000000
258.191000 -35.453400 -1670.810000 0.724380 -0.076508 0.685143 1.000000
258.376000 -33.554200 -1670.630000 0.778540 -0.095283 0.620320 1.000000
258.927000 -31.718300 -1670.610000 0.827091 -0.169778 0.535813 0.010000
258.433000 -31.379900 -1668.780000 0.864273 -0.281121 0.417137 1.000000
258.093000 -31.029100 -1666.930000 0.890903 -0.371039 0.261957 1.000000
257.352000 -31.135200 -1665.170000 0.902870 -0.348376 0.251913 1.000000
256.856000 -30.898200 -1663.330000 0.911528 -0.314289 0.265216 1.000000
256.184000 -30.670800 -1661.550000 0.918625 -0.277787 0.281001 1.000000
255.762000 -30.257300 -1659.720000 0.926851 -0.246358 0.283292 1.000000
255.135000 -30.436000 -1657.920000 0.939226 -0.237216 0.248158 1.000000
254.445000 -30.598400 -1656.140000 0.940492 -0.247604 0.232738 1.000000
254.313000 -30.883100 -1654.250000 0.937925 -0.258622 0.231109 1.000000
253.880000 -31.015200 -1652.390000 0.930227 -0.272524 0.245783 1.000000
253.277000 -30.999900 -1650.570000 0.919090 -0.290557 0.266176 1.000000
253.066000 -30.671000 -1648.690000 0.908223 -0.311477 0.279488 1.000000
253.322000 -29.654100 -1647.090000 0.904716 -0.323260 0.277474 1.000000
252.484000 -29.345900 -1645.390000 0.897159 -0.335260 0.287587 1.000000
251.554000 -29.185800 -1643.720000 0.906318 -0.324519 0.270693 1.000000
251.492000 -30.134300 -1642.060000 0.918889 -0.312635 0.240631 1.000000
