# .PCD v0.7 - Point Cloud Data file format
# 3 34 0
# 1 14 0
# 15 33 0
# 34 34 0
VERSION 0.7
FIELDS x y z normal_x normal_y normal_z curvature
SIZE 4 4 4 4 4 4 4
TYPE F F F F F F F
COUNT 1 1 1 1 1 1 1
WIDTH 34
HEIGHT 1
VIEWPOINT 0 0 0 1 0 0 0
POINTS 34
DATA ascii
186.099000 -54.616400 -1355.400000 -0.927931 -0.371244 -0.033503 0.010000
186.107000 -54.312000 -1357.350000 -0.924322 -0.381371 -0.013573 1.000000
185.729000 -54.918600 -1366.330000 -0.917469 -0.383528 0.105628 1.000000
186.301000 -56.497300 -1367.350000 -0.918231 -0.379712 0.112568 1.000000
186.983000 -58.289200 -1367.800000 -0.914448 -0.385546 0.123039 1.000000
187.644000 -60.094000 -1368.240000 -0.910441 -0.391622 0.133150 1.000000
188.403000 -61.888100 -1368.530000 -0.905738 -0.401442 0.135951 1.000000
188.955000 -63.591900 -1369.340000 -0.895832 -0.419109 0.147761 1.000000
189.894000 -65.313900 -1369.160000 -0.882472 -0.443576 0.156470 1.000000
190.735000 -67.081700 -1369.380000 -0.887505 -0.422961 0.182864 1.000000
191.319000 -68.869900 -1369.960000 -0.893617 -0.374983 0.246652 1.000000
191.907000 -70.712200 -1370.340000 -0.906727 -0.242553 0.344984 1.000000
192.516000 -72.544800 -1369.950000 -0.894607 -0.050424 0.444001 1.000000
192.475000 -74.399700 -1369.290000 -0.852474 0.151322 0.500390 1.000000
193.046000 -75.765100 -1367.990000 -0.867425 0.151158 0.474051 1.000000
193.415000 -77.277000 -1366.780000 -0.897562 0.194150 0.395839 0.010000
193.999000 -77.525800 -1364.920000 -0.927241 0.161555 0.337824 1.000000
194.650000 -77.752500 -1363.070000 -0.947370 0.053152 0.315696 1.000000
195.172000 -77.839600 -1361.180000 -0.969479 -0.063061 0.236925 1.000000
195.333000 -77.372300 -1359.270000 -0.980991 -0.193682 0.012031 1.000000
195.150000 -76.958300 -1357.350000 -0.955953 -0.290738 -0.040316 1.000000
194.866000 -76.083900 -1355.610000 -0.939825 -0.339320 -0.039897 1.000000
194.220000 -75.202900 -1353.970000 -0.918540 -0.374214 -0.127470 1.000000
193.568000 -73.499400 -1353.230000 -0.867094 -0.475680 -0.147910 1.000000
192.591000 -71.921400 -1352.570000 -0.868246 -0.473197 -0.149111 1.000000
191.733000 -70.439200 -1351.600000 -0.907104 -0.400600 -0.129159 1.000000
190.963000 -68.631900 -1351.460000 -0.940681 -0.319175 -0.115092 1.000000
190.335000 -66.768000 -1351.570000 -0.948403 -0.298834 -0.105971 1.000000
189.756000 -64.898700 -1351.790000 -0.952546 -0.293842 -0.079452 1.000000
189.251000 -63.071000 -1352.320000 -0.950805 -0.306485 -0.045134 1.000000
188.743000 -61.189600 -1352.030000 -0.948194 -0.317683 -0.002409 1.000000
188.056000 -59.612500 -1352.990000 -0.937914 -0.346697 0.010855 1.000000
187.444000 -57.845000 -1353.610000 -0.931054 -0.364791 0.008163 1.000000
186.734000 -56.183300 -1354.390000 -0.927588 -0.373385 -0.012794 1.000000
