# .PCD v0.7 - Point Cloud Data file format
# 6 165 0
# 1 21 0
# 22 32 0
# 33 57 0
# 58 116 0
# 117 149 0
# 150 165 0
VERSION 0.7
FIELDS x y z normal_x normal_y normal_z curvature
SIZE 4 4 4 4 4 4 4
TYPE F F F F F F F
COUNT 1 1 1 1 1 1 1
WIDTH 165
HEIGHT 1
VIEWPOINT 0 0 0 1 0 0 0
POINTS 165
DATA ascii
-29.796000 18.148700 -1329.040000 -0.950889 0.303839 0.059088 0.010000
-29.855500 17.672900 -1330.760000 -0.943871 0.318232 0.088517 1.000000
-30.011500 17.709900 -1332.540000 -0.935526 0.332830 0.118384 1.000000
-30.505700 17.087100 -1334.140000 -0.925873 0.346178 0.151393 1.000000
-30.791300 15.370300 -1334.540000 -0.922605 0.346885 0.168731 1.000000
-31.436600 14.280100 -1335.800000 -0.918068 0.353381 0.179645 1.000000
-32.052300 12.779800 -1336.550000 -0.916256 0.354663 0.186252 1.000000
-32.836500 11.493300 -1337.500000 -0.915681 0.355288 0.187880 0.195944
-33.605100 10.650000 -1338.880000 -0.916531 0.354091 0.185983 1.000000
-34.149700 9.130720 -1339.640000 -0.918498 0.350783 0.182519 1.000000
-34.777400 7.733810 -1340.560000 -0.921399 0.345843 0.177248 1.000000
-35.443200 6.571620 -1341.750000 -0.925110 0.338265 0.172478 1.000000
-36.214200 5.284140 -1342.710000 -0.924643 0.342317 0.166895 1.000000
-37.045200 4.037010 -1343.690000 -0.921277 0.352433 0.164437 1.000000
-37.605300 2.349020 -1343.850000 -0.915976 0.367048 0.162060 1.000000
-38.415900 1.127790 -1344.870000 -0.909608 0.374154 0.180617 1.000000
-39.127100 -0.262775 -1345.740000 -0.899908 0.378606 0.216386 1.000000
-40.332000 -2.518000 -1346.530000 -0.887133 0.393052 0.241879 1.000000
-40.966700 -4.182650 -1346.660000 -0.881839 0.405996 0.239850 1.000000
-41.718700 -5.722220 -1347.160000 -0.875572 0.409188 0.256788 1.000000
-42.568800 -7.124460 -1347.870000 -0.874962 0.396898 0.277334 1.000000
-43.317900 -8.678260 -1348.340000 -0.877774 0.386783 0.282686 1.000000
-44.149800 -10.085200 -1349.060000 -0.879707 0.374359 0.293207 1.000000
-45.050700 -11.456400 -1349.760000 -0.882656 0.361468 0.300433 1.000000
-45.864100 -13.020800 -1350.050000 -0.888615 0.353377 0.292385 1.000000
-46.913400 -14.205300 -1350.880000 -0.891449 0.337709 0.302111 1.000000
-47.716000 -15.616100 -1351.620000 -0.895418 0.323472 0.305928 1.000000
-48.414000 -17.073400 -1352.380000 -0.897187 0.313823 0.310757 1.000000
-48.956700 -18.670000 -1352.970000 -0.893305 0.323411 0.312109 1.000000
-49.931300 -19.754400 -1354.000000 -0.885755 0.322395 0.333916 1.000000
-51.078500 -20.804900 -1354.880000 -0.878975 0.321927 0.351803 1.000000
-51.455100 -22.464500 -1355.420000 -0.877075 0.331334 0.347790 1.000000
-51.996200 -23.968400 -1356.220000 -0.874598 0.335630 0.349902 1.000000
-52.757000 -25.564600 -1356.470000 -0.875315 0.347851 0.335893 1.000000
-54.098200 -26.419000 -1357.290000 -0.875178 0.342765 0.341432 1.000000
-54.999800 -27.958500 -1357.370000 -0.878359 0.357787 0.316976 1.000000
-55.101800 -29.740400 -1357.300000 -0.880220 0.379294 0.285217 1.000000
-55.646900 -31.406300 -1356.960000 -0.880241 0.401799 0.252455 0.010000
-56.028900 -32.856700 -1355.990000 -0.876961 0.428489 0.217568 1.000000
-56.384300 -33.937000 -1354.610000 -0.872784 0.452232 0.183667 1.000000
-56.730500 -35.047800 -1353.260000 -0.869663 0.469969 0.151045 1.000000
-57.429400 -36.360100 -1352.270000 -0.867156 0.481654 0.126689 1.000000
-57.686300 -37.292200 -1350.760000 -0.867772 0.487012 0.098949 1.000000
-57.981800 -38.198700 -1349.250000 -0.868016 0.485672 0.103296 1.000000
-58.426100 -39.230200 -1347.860000 -0.867137 0.486419 0.107095 1.000000
-58.757200 -40.215500 -1346.410000 -0.866016 0.487807 0.109822 1.000000
-59.099500 -41.239600 -1344.990000 -0.864319 0.490380 0.111717 1.000000
-59.452400 -42.247900 -1343.560000 -0.862222 0.493820 0.112760 1.000000
-59.759000 -43.229800 -1342.100000 -0.860469 0.498024 0.107540 0.010000
-60.633800 -44.758700 -1341.800000 -0.860018 0.499019 0.106533 1.000000
-61.463700 -46.277900 -1342.240000 -0.866482 0.487885 0.105724 1.000000
-62.275100 -47.841300 -1342.540000 -0.872859 0.476717 0.104198 1.000000
-63.116500 -49.374600 -1342.900000 -0.879067 0.465510 0.102676 1.000000
-63.942100 -50.923300 -1343.230000 -0.885116 0.454280 0.100994 1.000000
-64.755400 -52.485700 -1343.530000 -0.890999 0.443047 0.099143 1.000000
-65.569400 -54.067500 -1343.690000 -0.896711 0.432031 0.096222 1.000000
-66.373800 -55.642900 -1343.940000 -0.902256 0.420918 0.093607 1.000000
-67.193600 -57.201000 -1344.240000 -0.904311 0.416504 0.093525 1.000000
-68.007300 -58.753200 -1344.580000 -0.901928 0.420648 0.097881 1.000000
-68.797000 -60.340900 -1344.800000 -0.899484 0.425042 0.101335 1.000000
-69.593600 -61.918900 -1345.060000 -0.896760 0.429394 0.106974 1.000000
-70.396100 -63.496100 -1345.300000 -0.893797 0.433799 0.113782 1.000000
-71.212400 -65.071100 -1345.510000 -0.890632 0.438278 0.121187 1.000000
-72.054700 -66.632300 -1345.710000 -0.887123 0.442782 0.130216 1.000000
-72.871400 -68.220600 -1345.750000 -0.884149 0.447388 0.134631 1.000000
-73.716800 -69.774800 -1345.500000 -0.879610 0.457321 0.130933 1.000000
-74.517600 -71.314400 -1345.080000 -0.875125 0.469345 0.117776 1.000000
-75.523400 -72.748400 -1345.430000 -0.868376 0.479596 0.126140 1.000000
-76.287000 -74.363000 -1345.410000 -0.862914 0.491500 0.117503 1.000000
-76.985100 -75.934200 -1344.930000 -0.857082 0.506555 0.093880 1.000000
-77.864700 -77.484500 -1344.810000 -0.850488 0.520142 0.078249 1.000000
-78.686700 -79.032600 -1344.470000 -0.842629 0.535558 0.056163 1.000000
-79.617000 -80.450400 -1343.910000 -0.833044 0.552356 0.030686 1.000000
-80.813100 -81.774400 -1343.820000 -0.824373 0.565886 0.013536 0.010000
-80.640100 -81.577200 -1342.060000 -0.818041 0.575018 -0.012764 1.000000
-80.125100 -80.855800 -1340.510000 -0.818572 0.573740 -0.027606 1.000000
-79.619700 -80.126200 -1338.960000 -0.820348 0.570544 -0.038838 1.000000
-78.904500 -79.237900 -1337.580000 -0.824095 0.564479 -0.047242 1.000000
-78.984900 -78.897600 -1335.830000 -0.821015 0.567657 -0.060828 1.000000
-78.856100 -78.240100 -1334.170000 -0.819409 0.568867 -0.070426 1.000000
-78.018300 -76.912600 -1333.320000 -0.826122 0.559598 -0.066129 1.000000
-77.058400 -75.971800 -1332.140000 -0.829417 0.554931 -0.064180 1.000000
-76.550400 -75.117800 -1330.660000 -0.827595 0.556659 -0.072228 1.000000
-75.979800 -73.942700 -1329.440000 -0.828730 0.554359 -0.076762 1.000000
-75.674900 -72.935300 -1328.000000 -0.825638 0.556879 -0.090596 1.000000
-75.554900 -72.001300 -1326.480000 -0.819952 0.561458 -0.111553 1.000000
-74.732800 -70.993900 -1325.260000 -0.819554 0.559408 -0.124070 1.000000
-73.858600 -69.690000 -1324.400000 -0.827150 0.547073 -0.128588 1.000000
-73.104900 -68.438300 -1323.380000 -0.832167 0.536123 -0.141668 1.000000
-72.907200 -67.639600 -1321.790000 -0.833565 0.532430 -0.147265 1.000000
-72.505500 -66.573400 -1320.420000 -0.839555 0.523993 -0.143454 1.000000
-72.101500 -65.382800 -1319.150000 -0.846216 0.514612 -0.138176 1.000000
-71.069400 -63.947000 -1319.400000 -0.859679 0.493700 -0.131197 1.000000
-70.263000 -62.749700 -1320.450000 -0.870131 0.475148 -0.130793 1.000000
-69.535600 -61.774600 -1321.760000 -0.876181 0.461943 -0.137534 1.000000
-68.704700 -60.672600 -1322.890000 -0.887276 0.448046 -0.109524 1.000000
-68.823900 -58.969900 -1323.420000 -0.894333 0.436037 -0.100204 0.442694
-67.884600 -57.550700 -1322.880000 -0.886621 0.449309 -0.109657 1.000000
-66.908600 -56.143300 -1322.370000 -0.878189 0.464625 -0.113614 1.000000
-66.018700 -54.690300 -1321.830000 -0.869465 0.480851 -0.113195 1.000000
-65.172800 -53.243100 -1321.220000 -0.860134 0.498358 -0.108668 1.000000
-64.306600 -51.823800 -1320.560000 -0.850044 0.517382 -0.098697 1.000000
-63.398300 -50.350700 -1320.120000 -0.840486 0.535901 -0.079955 1.000000
-62.465100 -48.840900 -1319.920000 -0.832318 0.551681 -0.053811 1.000000
-61.759300 -47.285100 -1319.400000 -0.820657 0.570884 -0.024749 1.000000
-60.769000 -45.798700 -1319.390000 -0.825568 0.564254 0.007386 1.000000
-59.607800 -44.472500 -1319.100000 -0.830292 0.556326 0.033422 1.000000
-58.731900 -43.395700 -1317.980000 -0.828315 0.558740 0.041279 1.000000
-57.825200 -41.899600 -1317.620000 -0.833627 0.549763 0.053165 1.000000
-56.702300 -40.573200 -1317.200000 -0.838748 0.541365 0.058532 1.000000
-55.944200 -39.418600 -1316.070000 -0.842241 0.536959 0.048012 1.000000
-54.935400 -37.960200 -1316.280000 -0.848992 0.525594 0.054433 1.000000
-54.242200 -36.619900 -1315.330000 -0.854906 0.517024 0.042675 1.000000
-53.480700 -35.169600 -1314.620000 -0.860075 0.509041 0.033882 1.000000
-52.608000 -33.626300 -1314.400000 -0.859653 0.509935 0.031028 1.000000
-51.786900 -32.087400 -1314.010000 -0.859321 0.510591 0.029399 0.516222
-51.095700 -30.560800 -1313.400000 -0.858811 0.511396 0.030295 1.000000
-50.322700 -30.156100 -1311.840000 -0.856690 0.514688 0.034331 1.000000
-49.877600 -29.775900 -1310.150000 -0.852398 0.521283 0.041021 1.000000
-49.116600 -28.746600 -1308.910000 -0.847713 0.527735 0.053645 1.000000
-48.168000 -27.547600 -1307.980000 -0.843363 0.532810 0.069657 1.000000
-47.856600 -27.098400 -1306.280000 -0.835254 0.547544 0.050472 1.000000
-47.239200 -25.840200 -1305.170000 -0.829811 0.556180 0.045570 1.000000
-46.495400 -24.798100 -1303.930000 -0.823652 0.566003 0.035180 1.000000
-45.911600 -24.115900 -1302.380000 -0.822473 0.568661 0.012763 1.000000
-45.246800 -23.223900 -1300.990000 -0.828507 0.559924 -0.007837 1.000000
-45.042800 -22.857300 -1299.250000 -0.825132 0.563359 -0.042245 1.000000
-44.883700 -22.356500 -1297.540000 -0.826420 0.562067 -0.033322 1.000000
-44.483600 -21.791500 -1295.900000 -0.830065 0.557311 -0.019928 1.000000
-43.687600 -20.897300 -1294.570000 -0.837023 0.547080 -0.009767 1.000000
-43.415900 -20.373300 -1292.890000 -0.837808 0.545963 -0.001589 1.000000
-43.142700 -19.754900 -1291.230000 -0.838123 0.545453 0.005557 1.000000
-42.313400 -18.475300 -1290.300000 -0.842686 0.538178 0.015657 0.010000
-41.820700 -17.682500 -1291.820000 -0.852952 0.521656 0.018651 1.000000
-41.533100 -17.155900 -1293.510000 -0.863595 0.503813 0.019369 1.000000
-41.135600 -16.400800 -1295.080000 -0.876669 0.480525 0.023413 1.000000
-40.559600 -15.170600 -1296.240000 -0.892471 0.449660 0.036069 1.000000
-39.988400 -14.017700 -1297.470000 -0.906071 0.419786 0.053049 1.000000
-39.718600 -13.381200 -1299.120000 -0.917236 0.393337 0.062963 1.000000
-39.212700 -12.159300 -1300.320000 -0.921754 0.380318 0.075682 1.000000
-38.975300 -10.862100 -1301.530000 -0.923867 0.374122 0.080637 1.000000
-38.700900 -9.323040 -1302.390000 -0.923733 0.374216 0.081732 1.000000
-38.376400 -8.069740 -1303.620000 -0.923245 0.376578 0.076201 1.000000
-37.927800 -8.185440 -1305.350000 -0.922084 0.380656 0.069731 1.000000
-37.523000 -7.081450 -1306.690000 -0.920058 0.387758 0.056014 1.000000
-37.660900 -6.294890 -1308.290000 -0.918051 0.394195 0.042334 1.000000
-37.819200 -5.437520 -1309.850000 -0.916126 0.399866 0.028633 1.000000
-37.288900 -4.245820 -1311.070000 -0.914781 0.403656 0.015380 1.000000
-36.428600 -2.692880 -1310.870000 -0.915404 0.402390 0.010873 1.000000
-35.789800 -1.038170 -1310.660000 -0.916065 0.400972 0.006803 1.000000
-34.816100 0.291096 -1311.350000 -0.915589 0.402099 -0.003600 1.000000
-34.075000 1.832050 -1311.870000 -0.916164 0.400557 -0.014072 1.000000
-33.368300 3.267100 -1312.660000 -0.922692 0.385509 -0.004677 1.000000
-32.862500 4.563270 -1313.780000 -0.928296 0.371659 0.011681 1.000000
-32.499600 5.906230 -1314.900000 -0.933637 0.357138 0.027824 1.000000
-32.261600 6.584870 -1316.540000 -0.935603 0.349498 0.049982 1.000000
-32.036300 7.556030 -1318.020000 -0.938014 0.339771 0.068451 1.000000
-31.626600 9.198590 -1318.590000 -0.943318 0.323707 0.073248 1.000000
-31.468100 10.746500 -1319.470000 -0.947159 0.312715 0.071416 1.000000
-31.109500 11.805400 -1320.860000 -0.948996 0.308472 0.065209 1.000000
-30.980700 13.206700 -1321.960000 -0.951503 0.302208 0.057546 1.000000
-30.590500 13.942900 -1323.540000 -0.951651 0.303030 0.050328 1.000000
-30.182700 14.982300 -1324.930000 -0.952401 0.302078 0.041004 1.000000
-29.860000 15.948400 -1326.400000 -0.952360 0.303171 0.033125 1.000000
-29.885200 17.424500 -1327.410000 -0.953596 0.298291 0.040951 1.000000
