# .PCD v0.7 - Point Cloud Data file format
# 3 25 0
# 1 4 0
# 5 23 0
# 24 25 0
VERSION 0.7
FIELDS x y z normal_x normal_y normal_z curvature
SIZE 4 4 4 4 4 4 4
TYPE F F F F F F F
COUNT 1 1 1 1 1 1 1
WIDTH 25
HEIGHT 1
VIEWPOINT 0 0 0 1 0 0 0
POINTS 25
DATA ascii
-210.691000 160.640000 -1394.860000 0.842709 0.505630 -0.184878 0.010000
-211.132000 162.239000 -1395.250000 0.728388 0.602369 -0.326501 1.000000
-211.530000 163.892000 -1395.340000 0.639014 0.614792 -0.462268 1.000000
-194.158000 150.027000 -1381.880000 -0.017269 -0.853722 -0.520443 1.000000
-193.490000 149.806000 -1380.330000 0.036076 -0.849648 -0.526115 1.000000
-193.436000 149.685000 -1378.630000 0.056257 -0.852364 -0.519914 1.000000
-193.744000 149.178000 -1377.030000 0.055026 -0.852450 -0.519905 0.010000
-195.165000 149.153000 -1377.970000 -0.071606 -0.838613 -0.540000 1.000000
-196.737000 149.193000 -1378.620000 0.875812 0.265483 -0.403078 1.000000
-198.380000 148.949000 -1379.000000 -0.081630 -0.759199 -0.645720 1.000000
-200.063000 148.716000 -1379.120000 0.525321 0.827771 0.197060 1.000000
-201.732000 148.385000 -1379.180000 0.497466 0.839584 0.218237 1.000000
-202.529000 148.536000 -1380.680000 0.496598 0.845168 0.197691 1.000000
-203.274000 148.346000 -1382.200000 0.874379 0.450800 -0.179558 1.000000
-203.962000 148.091000 -1383.730000 0.866018 0.475155 -0.155691 1.000000
-204.856000 148.545000 -1385.110000 0.865755 0.477196 -0.150840 1.000000
-205.643000 149.323000 -1386.400000 0.868153 0.472288 -0.152497 1.000000
-206.220000 150.602000 -1387.370000 0.874062 0.456537 -0.166101 1.000000
-206.727000 151.638000 -1388.620000 0.881885 0.443663 -0.159504 1.000000
-207.139000 152.422000 -1390.080000 0.889153 0.437325 -0.134737 1.000000
-207.588000 153.947000 -1390.690000 0.902970 0.407947 -0.134996 1.000000
-208.156000 155.244000 -1391.630000 0.912778 0.389922 -0.121640 1.000000
-208.929000 156.503000 -1392.480000 0.919761 0.377261 -0.108229 1.000000
-209.518000 157.814000 -1393.390000 0.922087 0.377280 -0.086109 1.000000
-210.153000 159.279000 -1393.990000 0.918946 0.386772 -0.077109 1.000000
