# .PCD v0.7 - Point Cloud Data file format
# 3 115 0
# 1 37 0
# 38 94 0
# 95 115 0
VERSION 0.7
FIELDS x y z normal_x normal_y normal_z curvature
SIZE 4 4 4 4 4 4 4
TYPE F F F F F F F
COUNT 1 1 1 1 1 1 1
WIDTH 115
HEIGHT 1
VIEWPOINT 0 0 0 1 0 0 0
POINTS 115
DATA ascii
177.295000 -83.126500 -1647.110000 -0.918589 -0.393551 -0.036219 0.010000
176.826000 -81.964300 -1646.390000 -0.922924 -0.384527 -0.018729 1.000000
176.274000 -80.634400 -1646.470000 -0.925571 -0.378331 -0.013599 1.000000
175.893000 -79.673100 -1647.470000 -0.926000 -0.377032 -0.019268 1.000000
175.485000 -78.731500 -1648.490000 -0.925985 -0.376543 -0.027697 1.000000
174.904000 -77.439000 -1648.220000 -0.931589 -0.363354 -0.010744 1.000000
174.482000 -76.217400 -1648.860000 -0.933198 -0.359215 -0.010313 1.000000
173.998000 -75.004000 -1649.470000 -0.933894 -0.357389 -0.010764 1.000000
173.474000 -73.675200 -1649.670000 -0.931770 -0.362871 -0.011414 1.000000
172.810000 -72.425700 -1649.390000 -0.929250 -0.369214 -0.013208 1.000000
172.661000 -71.230100 -1650.180000 -0.931333 -0.362903 -0.030346 1.000000
172.119000 -70.002300 -1650.710000 -0.934953 -0.351309 -0.049450 1.000000
171.888000 -68.883600 -1651.590000 -0.938536 -0.337829 -0.070859 1.000000
171.333000 -67.750900 -1652.290000 -0.941643 -0.324949 -0.087847 1.000000
171.119000 -66.700700 -1653.250000 -0.944437 -0.311551 -0.104755 1.000000
170.837000 -65.597400 -1654.140000 -0.946873 -0.298654 -0.119316 1.000000
170.537000 -64.444200 -1654.950000 -0.946735 -0.299975 -0.117080 1.000000
170.078000 -63.329400 -1655.740000 -0.943668 -0.312615 -0.108459 1.000000
169.954000 -62.164900 -1656.580000 -0.940226 -0.325649 -0.099638 1.000000
169.872000 -60.988300 -1657.410000 -0.935618 -0.340398 -0.093528 1.000000
169.501000 -59.701700 -1657.940000 -0.920169 -0.374879 -0.112932 1.000000
169.031000 -58.436000 -1658.450000 -0.898223 -0.416016 -0.141868 1.000000
168.344000 -56.954600 -1659.140000 -0.876802 -0.451711 -0.164852 1.000000
167.492000 -55.858400 -1659.530000 -0.859760 -0.474139 -0.189749 1.000000
167.454000 -54.741600 -1660.440000 -0.861441 -0.473847 -0.182726 1.000000
166.860000 -53.516800 -1660.910000 -0.851455 -0.485891 -0.197319 1.000000
166.256000 -52.416200 -1661.620000 -0.847755 -0.490532 -0.201716 1.000000
165.962000 -51.476700 -1662.680000 -0.853762 -0.485402 -0.188350 1.000000
165.440000 -50.400100 -1663.480000 -0.854208 -0.485351 -0.186449 1.000000
165.161000 -49.436500 -1664.520000 -0.862445 -0.475939 -0.172251 1.000000
164.725000 -48.378100 -1665.390000 -0.866150 -0.470397 -0.168854 1.000000
164.138000 -47.189500 -1665.960000 -0.862618 -0.472439 -0.180809 1.000000
164.041000 -46.289900 -1667.080000 -0.873442 -0.459325 -0.161615 1.000000
163.894000 -45.355600 -1668.170000 -0.882503 -0.447207 -0.145584 1.000000
163.547000 -44.439400 -1669.230000 -0.889061 -0.437490 -0.134805 1.000000
163.366000 -43.812200 -1670.510000 -0.899905 -0.421884 -0.110385 1.000000
163.322000 -43.529700 -1671.930000 -0.916191 -0.394360 -0.071236 1.000000
162.931000 -42.491800 -1672.850000 -0.911535 -0.404214 -0.075599 1.000000
162.659000 -41.767600 -1674.060000 -0.915029 -0.398193 -0.064536 1.000000
162.318000 -40.882500 -1675.150000 -0.912460 -0.403806 -0.066007 1.000000
161.985000 -40.025500 -1676.260000 -0.907157 -0.414238 -0.073978 1.000000
161.653000 -39.178200 -1677.380000 -0.901381 -0.425123 -0.082361 1.000000
161.576000 -38.411800 -1678.600000 -0.899212 -0.427798 -0.091688 1.000000
161.368000 -37.674700 -1679.820000 -0.897431 -0.429663 -0.100031 1.000000
161.212000 -37.069000 -1681.120000 -0.896564 -0.429925 -0.106478 1.000000
161.196000 -36.596400 -1682.480000 -0.896380 -0.429017 -0.111563 1.000000
161.070000 -36.044500 -1683.810000 -0.894398 -0.431377 -0.118177 1.000000
161.328000 -36.166700 -1685.220000 -0.893794 -0.429860 -0.127878 1.000000
161.186000 -35.577600 -1686.530000 -0.889586 -0.435204 -0.138686 1.000000
160.925000 -34.821200 -1687.730000 -0.883818 -0.443102 -0.150087 1.000000
161.203000 -34.586500 -1689.120000 -0.890836 -0.431168 -0.143197 1.000000
161.070000 -33.953000 -1690.410000 -0.893443 -0.428589 -0.134432 1.000000
160.870000 -33.192700 -1691.620000 -0.894947 -0.427714 -0.127004 1.000000
160.749000 -32.609400 -1692.930000 -0.899286 -0.421692 -0.116025 1.000000
160.580000 -31.966200 -1694.210000 -0.900848 -0.419449 -0.111963 1.000000
159.922000 -30.732100 -1694.560000 -0.891692 -0.435552 -0.123209 1.000000
160.092000 -30.282800 -1695.920000 -0.893989 -0.431091 -0.122248 1.000000
160.499000 -30.943500 -1697.140000 -0.893731 -0.427302 -0.136593 1.000000
160.766000 -30.966400 -1698.550000 -0.890674 -0.426625 -0.157137 0.010000
161.432000 -32.193900 -1698.190000 -0.899312 -0.412081 -0.146378 1.000000
161.933000 -33.493200 -1697.820000 -0.905830 -0.400941 -0.136813 1.000000
162.066000 -34.749400 -1697.130000 -0.909739 -0.395168 -0.127348 1.000000
162.580000 -35.789600 -1696.270000 -0.912639 -0.391283 -0.118272 1.000000
163.061000 -36.939000 -1695.550000 -0.915315 -0.387483 -0.109799 1.000000
163.375000 -38.163200 -1694.850000 -0.917525 -0.384597 -0.101159 1.000000
163.750000 -39.216000 -1693.940000 -0.918493 -0.384523 -0.092266 1.000000
164.104000 -40.331800 -1693.100000 -0.919544 -0.382496 -0.090199 1.000000
164.477000 -41.634400 -1692.610000 -0.921917 -0.377682 -0.086170 1.000000
164.973000 -42.666400 -1691.730000 -0.921715 -0.377661 -0.088397 1.000000
165.678000 -43.540800 -1690.830000 -0.920596 -0.379313 -0.092866 1.000000
165.842000 -44.918700 -1690.440000 -0.918820 -0.382952 -0.095485 1.000000
166.167000 -46.206500 -1689.870000 -0.916307 -0.387938 -0.099428 1.000000
166.629000 -47.571600 -1689.830000 -0.913952 -0.393746 -0.098260 1.000000
167.020000 -48.806600 -1689.200000 -0.911300 -0.398379 -0.104045 1.000000
167.670000 -49.878800 -1688.490000 -0.909040 -0.401508 -0.111524 1.000000
167.932000 -51.041300 -1687.680000 -0.906851 -0.403991 -0.120056 1.000000
168.102000 -51.531500 -1686.330000 -0.905706 -0.403473 -0.130024 1.000000
168.551000 -52.710000 -1685.630000 -0.904081 -0.405261 -0.135654 1.000000
168.910000 -53.787900 -1684.750000 -0.902933 -0.405909 -0.141242 1.000000
169.180000 -54.643600 -1683.620000 -0.903467 -0.404080 -0.143062 1.000000
169.676000 -55.864500 -1683.030000 -0.901260 -0.407136 -0.148229 1.000000
170.224000 -57.128200 -1682.610000 -0.897912 -0.411550 -0.156142 1.000000
170.811000 -58.412200 -1682.310000 -0.896889 -0.412212 -0.160223 1.000000
171.123000 -59.508500 -1681.430000 -0.897941 -0.409433 -0.161449 1.000000
171.135000 -60.436300 -1680.330000 -0.899379 -0.406701 -0.160345 1.000000
171.704000 -61.754600 -1680.200000 -0.902260 -0.400492 -0.159789 1.000000
172.141000 -62.844400 -1679.360000 -0.903472 -0.397667 -0.159999 1.000000
172.284000 -63.812200 -1678.300000 -0.905033 -0.396276 -0.154533 1.000000
172.554000 -64.752900 -1677.240000 -0.907475 -0.393474 -0.147195 1.000000
173.008000 -65.971800 -1676.620000 -0.905080 -0.397403 -0.151332 1.000000
173.297000 -67.011800 -1675.670000 -0.905702 -0.397180 -0.148161 1.000000
173.743000 -68.239500 -1675.060000 -0.901376 -0.404271 -0.155198 1.000000
174.221000 -69.515300 -1674.580000 -0.895336 -0.413819 -0.164702 1.000000
174.710000 -70.603700 -1673.770000 -0.892076 -0.420465 -0.165560 1.000000
175.248000 -71.890000 -1673.410000 -0.885641 -0.431157 -0.172463 1.000000
175.665000 -73.115900 -1672.770000 -0.883258 -0.435826 -0.172949 1.000000
176.143000 -74.143000 -1671.880000 -0.884543 -0.435401 -0.167362 1.000000
176.024000 -74.993200 -1670.720000 -0.888443 -0.432547 -0.153534 1.000000
176.073000 -75.253500 -1669.310000 -0.892004 -0.430912 -0.136541 1.000000
176.155000 -75.692300 -1667.940000 -0.894629 -0.428801 -0.125572 1.000000
176.207000 -76.280800 -1666.620000 -0.895580 -0.427638 -0.122726 1.000000
176.234000 -76.658200 -1665.230000 -0.897267 -0.424487 -0.121340 1.000000
176.378000 -77.287600 -1663.940000 -0.897958 -0.423655 -0.119115 1.000000
176.196000 -77.609200 -1662.550000 -0.900746 -0.419056 -0.114232 1.000000
176.413000 -78.311300 -1661.310000 -0.899582 -0.421757 -0.113461 1.000000
176.663000 -78.975900 -1660.050000 -0.898652 -0.424107 -0.112066 1.000000
176.435000 -78.928900 -1658.630000 -0.906232 -0.411062 -0.098850 1.000000
176.242000 -78.987700 -1657.200000 -0.912080 -0.400307 -0.088674 1.000000
176.491000 -79.885200 -1656.100000 -0.910119 -0.404573 -0.089469 1.000000
176.861000 -81.008100 -1655.280000 -0.906667 -0.411567 -0.092556 1.000000
177.132000 -81.278100 -1653.890000 -0.908422 -0.408690 -0.087987 1.000000
177.047000 -81.915000 -1652.590000 -0.909074 -0.408115 -0.083821 1.000000
177.098000 -81.992500 -1651.160000 -0.911115 -0.405116 -0.075828 1.000000
176.915000 -82.041900 -1649.730000 -0.913887 -0.400925 -0.063797 1.000000
176.942000 -82.530000 -1648.370000 -0.916501 -0.396948 -0.049584 1.000000
