# .PCD v0.7 - Point Cloud Data file format
# 3 30 0
# 1 8 0
# 9 28 0
# 29 30 0
VERSION 0.7
FIELDS x y z normal_x normal_y normal_z curvature
SIZE 4 4 4 4 4 4 4
TYPE F F F F F F F
COUNT 1 1 1 1 1 1 1
WIDTH 30
HEIGHT 1
VIEWPOINT 0 0 0 1 0 0 0
POINTS 30
DATA ascii
46.861800 -98.680000 -1633.110000 0.972668 -0.217776 0.080562 0.010000
46.798100 -98.902300 -1632.950000 0.975406 -0.208900 0.070320 1.000000
46.734400 -99.124700 -1632.800000 0.978064 -0.199634 0.059468 1.000000
46.699000 -96.415000 -1635.540000 -0.851003 -0.491713 -0.184424 1.000000
46.780300 -96.246000 -1635.750000 -0.016107 0.999840 0.007780 1.000000
46.861500 -96.077000 -1635.950000 -0.665454 -0.670907 -0.327193 1.000000
46.942800 -95.908000 -1636.160000 -0.670102 -0.667399 -0.324872 1.000000
47.024100 -95.739000 -1636.360000 0.035318 0.995984 0.082276 1.000000
47.105400 -95.570000 -1636.570000 -0.679198 -0.660229 -0.320606 1.000000
47.186700 -95.401000 -1636.770000 0.059306 0.984390 0.165707 1.000000
47.267900 -95.232000 -1636.980000 0.060167 0.983563 0.170249 0.010000
47.282400 -95.354900 -1636.900000 0.060428 0.983319 0.171559 1.000000
47.274700 -95.575200 -1636.730000 -0.672800 -0.665313 -0.323572 1.000000
47.267000 -95.795400 -1636.560000 -0.663058 -0.672671 -0.328432 1.000000
47.259200 -96.015700 -1636.390000 -0.652929 -0.679768 -0.334065 1.000000
47.251500 -96.235900 -1636.220000 -0.873417 -0.442382 -0.203570 1.000000
47.243700 -96.456200 -1636.050000 -0.868192 -0.454266 -0.199714 1.000000
47.236000 -96.676400 -1635.880000 -0.871235 -0.447950 -0.200725 1.000000
47.229600 -96.836600 -1635.670000 -0.780302 -0.606424 -0.152901 1.000000
47.224700 -96.936800 -1635.410000 -0.701996 -0.351940 -0.619144 1.000000
47.219700 -97.036900 -1635.150000 -0.605193 -0.691910 -0.393702 1.000000
47.214700 -97.137100 -1634.890000 -0.869057 -0.453363 -0.197997 1.000000
47.209800 -97.237200 -1634.630000 0.955287 -0.251809 0.154980 1.000000
47.204800 -97.337400 -1634.370000 0.957449 -0.248869 0.146135 1.000000
47.199800 -97.437500 -1634.110000 0.959645 -0.245711 0.136777 1.000000
47.180200 -97.568200 -1633.880000 0.961761 -0.242520 0.127281 1.000000
47.116500 -97.790600 -1633.720000 0.963561 -0.239796 0.118527 1.000000
47.052800 -98.012900 -1633.570000 0.965355 -0.236956 0.109278 1.000000
46.989200 -98.235300 -1633.410000 0.967106 -0.234038 0.099658 1.000000
46.925500 -98.457600 -1633.260000 0.969838 -0.226421 0.090267 1.000000
