# .PCD v0.7 - Point Cloud Data file format
# 4 81 0
# 1 24 0
# 25 47 0
# 48 77 0
# 78 81 0
VERSION 0.7
FIELDS x y z normal_x normal_y normal_z curvature
SIZE 4 4 4 4 4 4 4
TYPE F F F F F F F
COUNT 1 1 1 1 1 1 1
WIDTH 81
HEIGHT 1
VIEWPOINT 0 0 0 1 0 0 0
POINTS 81
DATA ascii
250.882000 103.316000 -1408.040000 0.529104 0.581480 -0.618005 0.010000
249.645000 103.653000 -1409.030000 0.610982 0.490250 -0.621575 1.000000
248.364000 104.119000 -1409.910000 0.725497 0.349838 -0.592678 1.000000
247.408000 103.516000 -1411.070000 0.771729 0.321351 -0.548787 1.000000
246.461000 104.099000 -1412.250000 0.917399 0.093751 -0.386767 1.000000
245.796000 105.123000 -1416.900000 0.959357 -0.051568 -0.277443 1.000000
245.411000 105.343000 -1418.460000 0.958405 -0.024585 -0.284352 1.000000
244.841000 105.850000 -1419.890000 0.961435 -0.016282 -0.274551 1.000000
244.344000 106.222000 -1421.390000 0.964487 -0.012044 -0.263855 1.000000
243.870000 106.848000 -1422.800000 0.966531 -0.013925 -0.256173 0.609858
243.512000 107.311000 -1424.310000 0.964890 -0.013209 -0.262322 1.000000
242.953000 108.305000 -1425.470000 0.953847 0.012411 -0.300036 1.000000
242.601000 108.796000 -1426.970000 0.940825 0.038462 -0.336704 1.000000
242.305000 109.427000 -1428.430000 0.926634 0.071232 -0.369155 1.000000
242.091000 109.246000 -1430.030000 0.927306 0.073397 -0.367038 1.000000
241.080000 110.214000 -1430.840000 0.941754 0.073286 -0.328220 1.000000
240.245000 110.537000 -1432.200000 0.955076 0.046483 -0.292693 1.000000
239.875000 110.896000 -1433.730000 0.964140 0.008269 -0.265265 1.000000
239.516000 111.156000 -1435.290000 0.962734 -0.027336 -0.269066 1.000000
239.197000 111.501000 -1436.840000 0.954100 -0.042120 -0.296510 1.000000
238.623000 111.831000 -1438.320000 0.947304 -0.048810 -0.316595 1.000000
238.166000 111.737000 -1439.870000 0.943191 -0.048508 -0.328691 1.000000
237.894000 112.133000 -1441.420000 0.942313 -0.044671 -0.331738 1.000000
237.330000 112.909000 -1442.720000 0.942527 -0.038478 -0.331906 1.000000
236.821000 113.056000 -1444.260000 0.944912 -0.029278 -0.326013 1.000000
236.293000 113.140000 -1445.790000 0.950270 -0.014688 -0.311080 1.000000
235.934000 113.576000 -1447.300000 0.960536 -0.003484 -0.278133 1.000000
235.488000 114.372000 -1448.640000 0.969001 0.010282 -0.246842 1.000000
235.250000 115.052000 -1450.090000 0.988583 0.082394 -0.126151 0.010000
235.313000 116.639000 -1449.770000 0.966482 -0.001066 -0.256733 1.000000
235.387000 118.216000 -1449.410000 0.956496 -0.046525 -0.288013 1.000000
235.557000 119.816000 -1449.220000 0.948274 -0.075837 -0.308263 1.000000
235.842000 121.391000 -1448.970000 0.946285 -0.071566 -0.315315 1.000000
236.250000 122.783000 -1448.250000 0.944924 -0.069209 -0.319887 1.000000
236.503000 123.782000 -1447.000000 0.943441 -0.073788 -0.323225 1.000000
236.920000 124.817000 -1445.820000 0.943424 -0.075537 -0.322870 1.000000
237.357000 126.156000 -1445.020000 0.944492 -0.077457 -0.319272 1.000000
237.751000 127.636000 -1444.490000 0.945261 -0.082118 -0.315815 1.000000
238.175000 128.785000 -1443.430000 0.944721 -0.084198 -0.316881 1.000000
238.600000 129.680000 -1442.150000 0.942374 -0.085753 -0.323384 1.000000
239.035000 131.030000 -1441.370000 0.940505 -0.092620 -0.326914 1.000000
239.779000 132.213000 -1440.550000 0.939071 -0.098865 -0.329199 1.000000
240.141000 132.690000 -1439.040000 0.938067 -0.091493 -0.334154 1.000000
240.548000 133.194000 -1437.550000 0.940332 -0.085453 -0.329353 1.000000
241.095000 133.962000 -1436.240000 0.941871 -0.084611 -0.325148 1.000000
241.582000 135.022000 -1435.110000 0.942806 -0.086765 -0.321852 1.000000
242.115000 135.641000 -1433.710000 0.945324 -0.078798 -0.316469 1.000000
242.607000 136.778000 -1432.670000 0.947791 -0.070012 -0.311112 1.000000
242.959000 138.288000 -1432.200000 0.948706 -0.059519 -0.310507 1.000000
243.259000 139.395000 -1431.060000 0.946145 -0.068291 -0.316457 1.000000
243.396000 141.002000 -1430.900000 0.944686 -0.070947 -0.320211 1.000000
244.011000 141.537000 -1429.500000 0.942011 -0.073739 -0.327380 0.010000
244.302000 140.407000 -1428.370000 0.939215 -0.073918 -0.335278 1.000000
244.680000 139.310000 -1427.240000 0.935780 -0.073097 -0.344924 1.000000
244.808000 137.837000 -1426.580000 0.933968 -0.072368 -0.349952 1.000000
244.991000 136.352000 -1425.960000 0.932640 -0.073508 -0.353242 1.000000
244.887000 134.807000 -1425.480000 0.934146 -0.075890 -0.348730 1.000000
245.040000 133.326000 -1424.840000 0.934828 -0.079987 -0.345976 1.000000
245.276000 131.936000 -1424.040000 0.934795 -0.086290 -0.344546 1.000000
245.622000 130.829000 -1422.910000 0.933295 -0.095404 -0.346205 1.000000
246.005000 129.998000 -1421.570000 0.931602 -0.106607 -0.347495 1.000000
246.305000 129.061000 -1420.290000 0.931968 -0.115775 -0.343558 1.000000
246.266000 127.521000 -1419.780000 0.938387 -0.101383 -0.330379 1.000000
246.573000 126.520000 -1418.550000 0.940616 -0.099497 -0.324564 1.000000
246.961000 125.841000 -1417.130000 0.939946 -0.102996 -0.325413 1.000000
247.048000 124.365000 -1416.470000 0.942909 -0.086662 -0.321579 1.000000
247.507000 123.558000 -1415.140000 0.938737 -0.091263 -0.332330 1.000000
247.888000 122.516000 -1413.960000 0.935623 -0.097485 -0.339273 1.000000
248.292000 121.247000 -1413.030000 0.934492 -0.108489 -0.339049 1.000000
248.046000 119.861000 -1412.230000 0.931904 -0.107750 -0.346330 1.000000
248.388000 118.729000 -1411.120000 0.921198 -0.101933 -0.375505 1.000000
248.780000 117.499000 -1410.140000 0.911047 -0.090964 -0.402144 1.000000
248.896000 116.081000 -1409.370000 0.904246 -0.082530 -0.418961 1.000000
249.362000 115.061000 -1408.200000 0.898589 -0.099449 -0.427374 1.000000
249.690000 113.614000 -1407.550000 0.906499 -0.116810 -0.405729 1.000000
250.002000 112.212000 -1406.800000 0.910013 -0.114303 -0.398510 1.000000
249.403000 110.706000 -1406.780000 0.907554 -0.091924 -0.409750 1.000000
249.541000 109.272000 -1406.040000 0.900918 -0.020238 -0.433517 1.000000
249.599000 107.714000 -1406.490000 0.871763 0.102048 -0.479183 1.000000
250.119000 106.222000 -1406.840000 0.783682 0.325862 -0.528826 1.000000
250.559000 104.757000 -1407.380000 0.639281 0.501339 -0.583077 1.000000
