# .PCD v0.7 - Point Cloud Data file format
# 3 71 0
# 1 7 0
# 8 69 0
# 70 71 0
VERSION 0.7
FIELDS x y z normal_x normal_y normal_z curvature
SIZE 4 4 4 4 4 4 4
TYPE F F F F F F F
COUNT 1 1 1 1 1 1 1
WIDTH 71
HEIGHT 1
VIEWPOINT 0 0 0 1 0 0 0
POINTS 71
DATA ascii
-38.600200 173.103000 -1426.050000 -0.104083 -0.984145 0.143617 0.010000
-39.217400 174.071000 -1424.900000 -0.142721 -0.972691 0.183037 1.000000
-39.838200 175.968000 -1424.490000 -0.233543 -0.952689 0.194527 1.000000
-19.703000 184.226000 -1550.420000 -0.967270 0.236638 0.091598 1.000000
-19.596200 186.031000 -1549.480000 -0.973867 0.098043 -0.204866 1.000000
-19.534200 186.013000 -1549.160000 -0.976003 0.035795 -0.214796 1.000000
-19.521200 184.007000 -1549.520000 -0.961766 0.245463 0.121466 1.000000
-19.568900 183.030000 -1547.800000 -0.961570 0.153298 0.227778 1.000000
-19.481200 182.586000 -1545.900000 -0.970003 -0.002963 0.243073 1.000000
-19.213900 182.774000 -1543.890000 -0.946539 -0.287653 0.146015 0.010000
-18.982000 182.522000 -1541.890000 -0.873702 -0.479320 0.083043 1.000000
-18.802500 182.083000 -1539.910000 -0.793917 -0.607240 0.030907 1.000000
-18.699000 181.422000 -1537.990000 -0.718550 -0.695334 -0.014046 1.000000
-18.700000 180.741000 -1536.070000 -0.631088 -0.772563 -0.069811 1.000000
-18.642200 180.192000 -1534.120000 -0.538612 -0.833270 -0.124731 1.000000
-18.445000 179.896000 -1532.110000 -0.446344 -0.879077 -0.167334 1.000000
-18.314400 179.740000 -1530.090000 -0.374669 -0.916280 -0.141612 1.000000
-18.156900 179.598000 -1528.060000 -0.312744 -0.944692 -0.098733 1.000000
-17.905900 179.417000 -1526.050000 -0.256479 -0.964368 -0.064901 1.000000
-17.929900 179.385000 -1524.020000 -0.236990 -0.970140 -0.051614 1.000000
-17.889800 179.306000 -1522.000000 -0.228626 -0.972595 -0.042303 1.000000
-17.451500 178.977000 -1520.040000 -0.830608 0.556524 -0.019301 1.000000
-17.319400 178.585000 -1518.050000 -0.286277 -0.957703 -0.029149 1.000000
-17.299600 178.187000 -1516.060000 -0.295537 -0.954946 -0.027125 1.000000
-17.295600 177.845000 -1514.050000 -0.305923 -0.951210 -0.040129 1.000000
-17.292500 177.502000 -1512.040000 -0.335881 -0.940273 -0.055414 1.000000
-17.293100 177.142000 -1510.030000 -0.644124 0.763885 -0.039795 1.000000
-17.310500 176.696000 -1508.050000 -0.635208 0.771390 -0.038310 1.000000
-17.354200 176.226000 -1506.060000 -0.630282 0.775637 -0.033644 1.000000
-17.413100 175.754000 -1504.080000 -0.630275 0.775963 -0.025182 1.000000
-17.481000 175.356000 -1502.090000 -0.638002 0.769939 -0.012174 1.000000
-18.074400 175.117000 -1500.210000 -0.635118 0.772298 0.013477 1.000000
-19.003300 174.974000 -1498.400000 -0.630228 0.774580 0.053276 1.000000
-19.909100 174.765000 -1496.580000 -0.403002 0.910818 0.089436 1.000000
-20.803000 174.520000 -1494.770000 -0.656052 0.735085 0.171012 1.000000
-21.680900 174.258000 -1492.950000 -0.220234 -0.956474 -0.191454 1.000000
-22.409800 174.246000 -1491.050000 -0.267133 -0.930314 -0.251309 1.000000
-23.098400 174.204000 -1489.130000 -0.361818 -0.856402 -0.368325 1.000000
-23.750100 174.133000 -1487.200000 -0.391077 -0.787785 -0.475871 1.000000
-24.329000 173.949000 -1485.260000 -0.346229 -0.764814 -0.543309 1.000000
-24.878300 173.740000 -1483.310000 -0.289060 -0.801267 -0.523848 1.000000
-25.395500 173.504000 -1481.350000 -0.243862 -0.871406 -0.425657 1.000000
-25.878900 173.141000 -1479.410000 -0.186888 -0.926144 -0.327614 1.000000
-26.317500 172.630000 -1477.490000 -0.140277 -0.958648 -0.247620 1.000000
-26.700000 171.935000 -1475.610000 -0.110440 -0.976020 -0.187586 1.000000
-27.024800 171.184000 -1473.750000 -0.095507 -0.985231 -0.142118 1.000000
-27.322400 170.662000 -1471.830000 -0.092854 -0.990123 -0.105049 1.000000
-27.586000 170.504000 -1469.810000 -0.098864 -0.992504 -0.071845 1.000000
-27.855100 170.560000 -1467.790000 -0.114620 -0.986730 -0.115008 1.000000
-28.135200 170.849000 -1465.820000 -0.135224 -0.990752 -0.011214 1.000000
-28.434100 171.516000 -1463.910000 -0.166934 -0.985690 0.023407 1.000000
-27.169200 171.805000 -1462.550000 -0.109178 -0.993131 0.042090 1.000000
-25.986600 172.042000 -1461.070000 -0.080831 -0.994792 0.062088 1.000000
-25.744700 172.340000 -1459.070000 -0.090970 -0.990695 0.101236 1.000000
-25.570900 172.658000 -1457.070000 -0.104306 -0.984017 0.144329 1.000000
-25.439800 172.967000 -1455.060000 -0.119596 -0.974279 0.190989 1.000000
-25.376600 173.234000 -1453.040000 -0.136313 -0.961020 0.240538 1.000000
-26.302800 173.378000 -1451.340000 -0.175940 -0.941066 0.288858 1.000000
-27.569500 173.479000 -1449.750000 -0.233766 -0.915174 0.328344 1.000000
-28.804300 173.583000 -1448.130000 -0.299384 -0.890406 0.342852 1.000000
-29.980000 173.772000 -1446.480000 -0.285305 -0.949782 0.128511 1.000000
-31.115600 173.994000 -1444.800000 -0.129851 -0.990440 -0.046550 1.000000
-32.184300 174.193000 -1443.080000 -0.062869 -0.993746 -0.092289 1.000000
-33.197900 174.288000 -1441.320000 -0.030543 -0.992775 -0.116034 1.000000
-34.137400 174.280000 -1439.520000 -0.015410 -0.991132 -0.131983 1.000000
-34.779100 173.956000 -1437.610000 -0.004296 -0.990043 -0.140696 1.000000
-35.436200 173.768000 -1435.690000 -0.005352 -0.988926 -0.148314 1.000000
-36.097500 173.652000 -1433.770000 -0.021216 -0.994175 -0.105672 1.000000
-36.697500 173.374000 -1431.840000 -0.038419 -0.998217 -0.045692 1.000000
-37.330400 173.215000 -1429.920000 -0.058826 -0.998134 0.016381 1.000000
-37.986700 173.148000 -1427.990000 -0.082256 -0.993424 0.079644 1.000000
