# .PCD v0.7 - Point Cloud Data file format
# 4 30 0
# 1 5 0
# 6 17 0
# 18 26 0
# 27 30 0
VERSION 0.7
FIELDS x y z normal_x normal_y normal_z curvature
SIZE 4 4 4 4 4 4 4
TYPE F F F F F F F
COUNT 1 1 1 1 1 1 1
WIDTH 30
HEIGHT 1
VIEWPOINT 0 0 0 1 0 0 0
POINTS 30
DATA ascii
249.536000 110.893000 -1407.100000 -0.169180 -0.097595 -0.980741 0.010000
249.624000 108.809000 -1406.880000 -0.695357 0.198307 -0.690763 1.000000
249.918000 106.711000 -1406.950000 0.033888 0.635521 0.771340 1.000000
249.743000 104.967000 -1407.920000 0.064423 -0.495262 -0.866352 1.000000
249.372000 103.369000 -1409.260000 0.555211 -0.147829 -0.818467 1.000000
247.857000 133.307000 -1440.560000 0.907884 0.109812 -0.404583 1.000000
248.253000 134.706000 -1439.020000 0.605653 0.685361 -0.404308 1.000000
248.611000 136.145000 -1437.510000 0.471885 0.820161 -0.323513 1.000000
248.877000 137.682000 -1436.080000 0.380215 0.915720 -0.129976 1.000000
249.348000 137.555000 -1434.570000 0.333771 0.942089 0.032639 0.010000
249.960000 136.262000 -1433.000000 0.300466 0.922337 0.242929 1.000000
250.597000 135.250000 -1431.260000 0.303925 0.838954 0.451427 1.000000
251.237000 134.308000 -1429.470000 0.243964 0.484295 -0.840202 1.000000
251.878000 133.522000 -1427.610000 0.231550 0.688931 -0.686847 1.000000
252.225000 132.213000 -1426.180000 0.241745 0.798704 -0.551027 1.000000
252.239000 130.315000 -1425.240000 -0.420645 -0.248572 -0.872508 1.000000
252.398000 128.609000 -1424.010000 -0.747163 -0.247935 -0.616665 1.000000
252.479000 127.053000 -1422.710000 -0.905042 -0.256093 -0.339581 1.000000
250.604000 126.940000 -1421.730000 -0.604763 -0.559868 -0.566401 1.000000
248.771000 126.790000 -1420.690000 -0.083743 0.735804 0.671997 1.000000
247.016000 126.568000 -1419.520000 0.270350 0.942212 0.197857 1.000000
246.655000 125.641000 -1418.060000 0.196611 0.926190 0.321738 0.010000
247.055000 124.327000 -1416.450000 -0.116209 0.501663 0.857222 1.000000
247.548000 123.021000 -1414.860000 0.456676 -0.587026 -0.668467 1.000000
247.971000 121.606000 -1413.370000 0.504657 -0.635853 -0.583963 1.000000
248.147000 119.838000 -1412.210000 0.564139 -0.624972 -0.539590 1.000000
248.441000 118.125000 -1411.010000 0.559792 -0.557560 -0.612993 1.000000
248.842000 116.464000 -1409.750000 0.385908 -0.448272 -0.806305 1.000000
249.244000 114.742000 -1408.590000 0.439428 -0.220925 -0.870687 1.000000
249.592000 112.968000 -1407.520000 0.214807 -0.229508 -0.949307 1.000000
