# .PCD v0.7 - Point Cloud Data file format
# 3 30 0
# 1 4 0
# 5 26 0
# 27 30 0
VERSION 0.7
FIELDS x y z normal_x normal_y normal_z curvature
SIZE 4 4 4 4 4 4 4
TYPE F F F F F F F
COUNT 1 1 1 1 1 1 1
WIDTH 30
HEIGHT 1
VIEWPOINT 0 0 0 1 0 0 0
POINTS 30
DATA ascii
-161.162000 24.561400 -1572.430000 0.573404 0.710526 -0.407874 0.010000
-161.933000 25.259700 -1572.250000 0.581865 0.708705 -0.398961 1.000000
-162.642000 25.940800 -1571.840000 0.584978 0.707396 -0.396727 1.000000
-163.386000 26.626500 -1571.520000 0.590483 0.706864 -0.389453 1.000000
-164.153000 27.315000 -1571.260000 0.597369 0.706940 -0.378663 1.000000
-141.102000 8.470080 -1576.890000 0.312313 0.138963 0.939760 1.000000
-142.126000 8.416860 -1576.610000 0.386103 0.210040 0.898225 1.000000
-143.068000 8.642470 -1576.370000 0.482137 0.297950 0.823875 1.000000
-143.880000 9.306240 -1576.190000 0.561406 0.386268 0.731861 0.010000
-144.662000 9.994650 -1575.980000 0.159148 0.346718 -0.924369 1.000000
-145.447000 10.675000 -1575.760000 0.153495 0.367836 -0.917134 1.000000
-146.296000 11.279700 -1575.550000 0.811025 0.582499 -0.054159 1.000000
-147.105000 11.932800 -1575.330000 0.790864 0.586952 -0.173263 1.000000
-147.881000 12.624800 -1575.100000 0.775232 0.575358 -0.260728 1.000000
-148.678000 13.318500 -1574.990000 0.170635 0.428801 -0.887138 1.000000
-149.470000 14.011600 -1574.840000 0.183221 0.439843 -0.879186 1.000000
-150.247000 14.703200 -1574.620000 0.715312 0.584080 -0.383641 1.000000
-151.039000 15.394200 -1574.460000 0.694749 0.593139 -0.406830 1.000000
-151.837000 16.085600 -1574.330000 0.220942 0.473382 -0.852698 1.000000
-152.626000 16.782000 -1574.180000 0.233589 0.484423 -0.843072 1.000000
-153.403000 17.482100 -1573.990000 0.633517 0.630990 -0.447781 1.000000
-154.168000 18.186000 -1573.770000 0.612042 0.645265 -0.457206 1.000000
-154.935000 18.895400 -1573.570000 0.590803 0.661766 -0.461538 1.000000
-155.703000 19.605900 -1573.370000 0.569435 0.679964 -0.461945 1.000000
-156.470000 20.317600 -1573.180000 0.547783 0.699753 -0.458562 1.000000
-157.240000 21.027300 -1573.000000 0.526824 0.720188 -0.451427 1.000000
-158.012000 21.736900 -1572.820000 0.533945 0.717770 -0.446888 1.000000
-158.776000 22.462500 -1572.680000 0.541981 0.715647 -0.440575 1.000000
-159.561000 23.171800 -1572.580000 0.551654 0.713884 -0.431331 1.000000
-160.370000 23.860600 -1572.540000 0.563188 0.712348 -0.418783 1.000000
