# .PCD v0.7 - Point Cloud Data file format
# 3 30 0
# 1 5 0
# 6 26 0
# 27 30 0
VERSION 0.7
FIELDS x y z normal_x normal_y normal_z curvature
SIZE 4 4 4 4 4 4 4
TYPE F F F F F F F
COUNT 1 1 1 1 1 1 1
WIDTH 30
HEIGHT 1
VIEWPOINT 0 0 0 1 0 0 0
POINTS 30
DATA ascii
95.919400 145.510000 -1537.560000 -0.637486 0.715536 -0.285691 0.010000
96.048300 145.470000 -1537.880000 -0.638042 0.714383 -0.287333 1.000000
96.177200 145.430000 -1538.210000 -0.633725 0.715161 -0.294852 1.000000
96.343700 145.467000 -1538.460000 -0.629004 0.710893 -0.314619 1.000000
96.377000 145.336000 -1538.770000 -0.605401 0.726785 -0.324458 1.000000
92.849000 145.914000 -1530.050000 -0.852541 0.294762 -0.431612 1.000000
92.983300 146.173000 -1530.240000 -0.081743 0.992257 -0.093505 1.000000
93.141300 146.216000 -1530.500000 -0.098064 0.991084 -0.090194 1.000000
93.312400 146.140000 -1530.790000 -0.865999 0.407992 -0.289118 1.000000
93.483400 146.064000 -1531.090000 -0.859048 0.450583 -0.242922 0.010000
93.642700 146.083000 -1531.380000 -0.850614 0.475382 -0.224650 1.000000
93.783400 146.252000 -1531.650000 -0.844627 0.483611 -0.229622 1.000000
93.931500 146.353000 -1531.940000 -0.083136 0.985639 -0.146981 1.000000
94.089400 146.364000 -1532.250000 -0.823357 0.515577 -0.237199 1.000000
94.247300 146.375000 -1532.560000 -0.810153 0.531645 -0.246994 1.000000
94.405200 146.386000 -1532.870000 -0.796702 0.544780 -0.261688 1.000000
94.561300 146.429000 -1533.180000 -0.785037 0.551844 -0.281398 1.000000
94.714700 146.515000 -1533.480000 -0.776824 0.551283 -0.304353 1.000000
94.868200 146.601000 -1533.780000 -0.770861 0.546599 -0.327113 1.000000
95.021600 146.688000 -1534.080000 -0.768150 0.537880 -0.347319 1.000000
95.155600 146.722000 -1534.390000 -0.514121 0.682594 -0.519370 1.000000
95.228300 146.595000 -1534.700000 -0.753371 0.559591 -0.345385 1.000000
95.301000 146.468000 -1535.020000 -0.739574 0.581622 -0.338742 1.000000
95.373700 146.341000 -1535.340000 -0.725689 0.603048 -0.331223 1.000000
95.446400 146.215000 -1535.660000 -0.711804 0.623623 -0.323154 1.000000
95.519100 146.088000 -1535.970000 -0.697935 0.643232 -0.314864 1.000000
95.591800 145.961000 -1536.290000 -0.684105 0.661761 -0.306713 1.000000
95.664500 145.834000 -1536.610000 -0.670288 0.679171 -0.299066 1.000000
95.737200 145.707000 -1536.920000 -0.656431 0.695454 -0.292304 1.000000
95.809900 145.580000 -1537.240000 -0.642728 0.710338 -0.286914 1.000000
