# .PCD v0.7 - Point Cloud Data file format
# 4 161 0
# 1 28 0
# 29 59 0
# 60 112 0
# 113 161 0
VERSION 0.7
FIELDS x y z normal_x normal_y normal_z curvature
SIZE 4 4 4 4 4 4 4
TYPE F F F F F F F
COUNT 1 1 1 1 1 1 1
WIDTH 161
HEIGHT 1
VIEWPOINT 0 0 0 1 0 0 0
POINTS 161
DATA ascii
-187.983000 63.706200 -1608.740000 0.822196 0.510549 0.251660 0.010000
-188.712000 63.974700 -1607.300000 0.836160 0.492825 0.240748 1.000000
-188.702000 63.289600 -1605.820000 0.838434 0.489228 0.240174 1.000000
-188.485000 62.170000 -1604.650000 0.836083 0.497825 0.230511 1.000000
-188.424000 61.462500 -1603.180000 0.834940 0.508003 0.211679 1.000000
-188.406000 60.949600 -1601.630000 0.830812 0.517526 0.204741 1.000000
-188.412000 60.597400 -1600.040000 0.824507 0.528139 0.203118 1.000000
-188.382000 59.496200 -1598.830000 0.817977 0.541582 0.193915 1.000000
-188.124000 58.754400 -1597.400000 0.810554 0.556293 0.183140 1.000000
-187.998000 58.085500 -1595.920000 0.802099 0.572326 0.170528 1.000000
-187.920000 57.495100 -1594.400000 0.793955 0.587205 0.157561 1.000000
-187.666000 56.686900 -1593.000000 0.787567 0.599277 0.143542 1.000000
-187.053000 55.791300 -1591.780000 0.783324 0.608193 0.128467 1.000000
-186.442000 54.790400 -1590.650000 0.779921 0.615559 0.113183 1.000000
-185.940000 53.887200 -1589.380000 0.775029 0.622917 0.106320 1.000000
-185.104000 52.857800 -1588.430000 0.773301 0.625843 0.101620 1.000000
-184.335000 51.437200 -1588.190000 0.777147 0.622707 0.090984 1.000000
-183.264000 50.270600 -1587.790000 0.778587 0.622061 0.082717 1.000000
-182.382000 49.252300 -1586.870000 0.772237 0.629859 0.083237 1.000000
-181.621000 48.341600 -1585.750000 0.764555 0.638659 0.087014 1.000000
-180.741000 47.106000 -1585.150000 0.757661 0.647515 0.081690 1.000000
-179.846000 45.934300 -1584.450000 0.748796 0.658615 0.074371 1.000000
-178.980000 44.836500 -1583.600000 0.736981 0.672727 0.065562 1.000000
-178.067000 43.561000 -1583.150000 0.726755 0.684807 0.053540 1.000000
-177.290000 42.548500 -1582.130000 0.713392 0.697989 0.062317 1.000000
-176.341000 41.591700 -1581.210000 0.702638 0.706735 0.082616 1.000000
-175.144000 40.529600 -1580.890000 0.693808 0.713722 0.096079 1.000000
-173.975000 39.759600 -1580.050000 0.702871 0.697115 0.141432 1.000000
-172.878000 39.409800 -1578.890000 0.705842 0.676063 0.211487 1.000000
-172.886000 38.090000 -1577.930000 0.700753 0.647609 0.299247 1.000000
-172.854000 36.903000 -1576.810000 0.699733 0.635248 0.326855 1.000000
-172.220000 35.532100 -1576.190000 0.693730 0.640812 0.328784 1.000000
-172.333000 35.217700 -1574.590000 0.681389 0.650559 0.335384 1.000000
-171.721000 34.405300 -1573.310000 0.664728 0.671932 0.326564 1.000000
-170.669000 33.169100 -1573.140000 0.655445 0.692644 0.301059 1.000000
-169.636000 31.955700 -1573.490000 0.653676 0.706157 0.272122 1.000000
-168.529000 30.959700 -1572.830000 0.637944 0.731471 0.240786 1.000000
-167.403000 29.790600 -1573.000000 0.638077 0.742542 0.203691 1.000000
-166.213000 28.699400 -1572.750000 0.637099 0.753082 0.164233 1.000000
-165.098000 27.688600 -1572.120000 0.626656 0.769107 0.125606 1.000000
-163.964000 26.661300 -1571.550000 0.615260 0.783978 0.082663 1.000000
-162.757000 25.889900 -1572.330000 0.633837 0.772304 0.042385 1.000000
-161.503000 24.853000 -1572.460000 0.636553 0.771217 -0.004830 1.000000
-160.262000 23.796700 -1572.560000 0.637258 0.768896 -0.051960 1.000000
-158.880000 22.932400 -1572.650000 0.636169 0.765320 -0.097847 1.000000
-157.771000 21.801700 -1573.050000 0.641568 0.755335 -0.133640 1.000000
-156.488000 20.798900 -1573.170000 0.638553 0.750598 -0.169859 1.000000
-155.198000 19.802800 -1573.070000 0.630870 0.748108 -0.205760 1.000000
-154.011000 18.801100 -1572.570000 0.617181 0.747009 -0.247114 1.000000
-155.101000 19.500000 -1573.560000 0.639061 0.744081 -0.194791 1.000000
-150.744000 15.868100 -1573.480000 0.617426 0.741158 -0.263572 1.000000
-149.757000 14.715700 -1574.090000 0.619343 0.745362 -0.246677 1.000000
-148.726000 13.473100 -1574.330000 0.616339 0.750312 -0.239077 1.000000
-147.392000 12.566700 -1574.070000 0.607718 0.752860 -0.252746 1.000000
-146.301000 11.483500 -1574.620000 0.605477 0.761020 -0.232906 1.000000
-145.293000 10.424000 -1575.350000 0.604916 0.769386 -0.205236 1.000000
-144.119000 9.414670 -1574.830000 0.593699 0.771267 -0.229496 1.000000
-143.183000 8.594930 -1575.890000 0.596304 0.779180 -0.193133 1.000000
-142.015000 7.904340 -1576.800000 0.598371 0.784266 -0.163949 1.000000
-141.108000 6.671110 -1577.360000 0.598564 0.787107 -0.148941 1.000000
-139.803000 5.693950 -1577.450000 0.590505 0.789821 -0.165790 1.000000
-138.496000 4.717830 -1577.520000 0.582723 0.791257 -0.185329 1.000000
-137.188000 3.757210 -1577.690000 0.577017 0.791659 -0.200820 1.000000
-135.947000 2.821230 -1578.190000 0.575382 0.790864 -0.208493 1.000000
-134.751000 1.818970 -1578.670000 0.573335 0.790018 -0.217158 1.000000
-133.541000 0.765792 -1578.980000 0.568739 0.790918 -0.225799 1.000000
-132.326000 0.060340 -1579.810000 0.572099 0.792319 -0.211975 1.000000
-130.882000 -0.698007 -1579.740000 0.559519 0.794308 -0.236673 1.000000
-129.568000 -1.644520 -1579.950000 0.551599 0.796353 -0.248114 1.000000
-128.442000 -2.771530 -1580.310000 0.566701 0.787119 -0.243504 1.000000
-127.262000 -3.862420 -1580.600000 0.578644 0.779622 -0.239501 1.000000
-126.248000 -5.024770 -1581.130000 0.589000 0.775716 -0.226591 1.000000
-125.323000 -6.190050 -1581.800000 0.596460 0.774633 -0.210187 1.000000
-124.107000 -7.166230 -1582.280000 0.601307 0.774350 -0.197009 1.000000
-122.802000 -8.042410 -1582.730000 0.604355 0.775853 -0.181130 1.000000
-121.555000 -8.961900 -1583.240000 0.604910 0.780189 -0.159337 1.000000
-120.194000 -9.794390 -1583.590000 0.604826 0.785027 -0.133860 1.000000
-119.587000 -10.548400 -1584.900000 0.588219 0.803039 -0.095533 0.010000
-119.257000 -11.137700 -1586.390000 0.565301 0.823887 -0.040561 1.000000
-119.123000 -11.256100 -1588.010000 0.542913 0.839766 0.006223 1.000000
-119.226000 -11.108500 -1589.640000 0.527416 0.848368 0.045875 1.000000
-119.316000 -10.926100 -1591.260000 0.517129 0.852125 0.080377 1.000000
-119.230000 -10.950800 -1592.890000 0.510422 0.854126 0.099687 1.000000
-119.035000 -10.905600 -1594.510000 0.508971 0.852553 0.118757 1.000000
-118.785000 -10.812400 -1596.120000 0.512686 0.847437 0.137857 1.000000
-118.563000 -10.583700 -1597.720000 0.521616 0.838063 0.159897 1.000000
-119.244000 -9.927700 -1599.050000 0.534695 0.821511 0.198041 1.000000
-119.551000 -9.334380 -1600.540000 0.542018 0.806083 0.237587 1.000000
-120.261000 -8.493100 -1601.740000 0.548458 0.790588 0.272332 1.000000
-120.791000 -7.678040 -1603.060000 0.550677 0.775599 0.308546 1.000000
-121.551000 -6.593200 -1604.010000 0.552733 0.761804 0.337848 1.000000
-122.913000 -5.738000 -1604.290000 0.558410 0.751072 0.352233 1.000000
-123.896000 -4.618530 -1604.960000 0.551937 0.728849 0.405148 1.000000
-124.267000 -3.657140 -1606.220000 0.515889 0.689037 0.509005 1.000000
-124.761000 -2.626320 -1607.390000 0.469316 0.652075 0.595432 1.000000
-124.777000 -1.429610 -1608.500000 0.393666 0.608426 0.689089 1.000000
-125.260000 -0.151808 -1609.390000 0.316884 0.594951 0.738659 1.000000
-125.685000 1.131940 -1610.310000 0.301121 0.707423 0.639436 1.000000
-126.198000 2.398540 -1611.200000 0.262947 0.811849 0.521306 1.000000
-126.682000 3.623310 -1612.170000 0.296827 0.857620 0.419978 1.000000
-127.591000 4.685420 -1613.010000 0.344934 0.866767 0.360190 1.000000
-128.259000 5.460750 -1614.280000 0.388432 0.869014 0.306488 1.000000
-128.803000 5.605640 -1615.820000 0.418737 0.857947 0.297635 1.000000
-128.777000 6.122760 -1617.360000 0.429491 0.834589 0.344962 1.000000
-129.799000 6.988340 -1618.300000 0.456882 0.802193 0.384376 1.000000
-130.805000 7.985080 -1619.110000 0.480537 0.768039 0.423320 1.000000
-131.102000 9.033890 -1620.320000 0.498485 0.729907 0.467706 1.000000
-131.593000 10.184800 -1621.370000 0.515141 0.687833 0.511385 1.000000
-132.540000 11.336200 -1622.040000 0.525205 0.648578 0.550914 0.010000
-133.535000 12.568500 -1622.430000 0.533029 0.610906 0.585383 1.000000
-134.982000 12.744000 -1621.700000 0.539787 0.615602 0.574164 1.000000
-136.259000 13.750000 -1621.550000 0.550055 0.591406 0.589642 1.000000
-137.440000 14.855400 -1621.330000 0.559537 0.566402 0.605068 1.000000
-138.774000 15.721900 -1620.960000 0.570024 0.551116 0.609380 1.000000
-140.227000 16.369300 -1620.590000 0.581546 0.542477 0.606237 1.000000
-141.482000 16.727200 -1619.610000 0.597196 0.559033 0.575186 1.000000
-142.517000 17.989900 -1619.600000 0.602808 0.525183 0.600671 1.000000
-143.501000 19.237200 -1619.220000 0.603551 0.508728 0.613939 1.000000
-144.395000 20.556600 -1618.870000 0.595462 0.501236 0.627843 1.000000
-144.824000 22.126400 -1618.730000 0.581651 0.480700 0.656209 1.000000
-146.213000 22.271000 -1617.890000 0.596227 0.512909 0.617607 1.000000
-147.521000 22.074000 -1616.930000 0.620920 0.560004 0.548502 1.000000
-148.821000 21.785300 -1615.990000 0.640338 0.601620 0.477515 1.000000
-149.911000 21.771200 -1614.770000 0.644845 0.620543 0.446208 1.000000
-150.679000 21.807600 -1613.330000 0.651177 0.637221 0.412212 1.000000
-151.476000 22.130200 -1611.940000 0.658653 0.648003 0.382450 1.000000
-152.482000 23.226800 -1611.270000 0.664952 0.647527 0.372219 1.000000
-153.523000 24.274200 -1610.580000 0.672055 0.647496 0.359292 1.000000
-154.621000 25.280300 -1609.910000 0.679138 0.646863 0.346900 1.000000
-156.225000 25.407000 -1610.180000 0.681276 0.644509 0.347090 1.000000
-157.382000 26.554400 -1610.080000 0.683098 0.642115 0.347944 1.000000
-158.574000 27.663900 -1609.960000 0.684875 0.639750 0.348807 1.000000
-159.916000 28.454900 -1609.470000 0.686955 0.638982 0.346115 1.000000
-161.190000 29.417500 -1609.820000 0.688157 0.635473 0.350163 1.000000
-160.869000 30.995200 -1609.550000 0.688784 0.633069 0.353270 1.000000
-162.146000 31.760200 -1608.870000 0.690977 0.633032 0.349028 1.000000
-163.185000 33.017800 -1608.940000 0.692333 0.629756 0.352253 1.000000
-164.181000 34.299900 -1609.110000 0.693415 0.625906 0.356955 1.000000
-165.528000 35.202700 -1608.920000 0.696437 0.623177 0.355845 1.000000
-166.445000 36.553600 -1608.940000 0.698939 0.619006 0.358213 1.000000
-167.522000 37.758600 -1608.710000 0.702616 0.616158 0.355922 1.000000
-168.473000 39.062700 -1608.960000 0.704688 0.612265 0.358535 1.000000
-169.848000 39.941200 -1608.900000 0.708841 0.609993 0.354192 1.000000
-171.116000 40.924500 -1608.600000 0.714036 0.607897 0.347295 1.000000
-172.104000 42.201300 -1608.840000 0.716742 0.605331 0.346201 1.000000
-173.141000 43.451100 -1608.680000 0.721471 0.603200 0.340044 1.000000
-174.314000 44.512700 -1608.270000 0.725056 0.603429 0.331914 1.000000
-175.304000 45.534700 -1607.470000 0.728980 0.603280 0.323483 1.000000
-176.242000 46.848700 -1607.710000 0.729555 0.604275 0.320315 1.000000
-177.083000 48.183100 -1608.130000 0.729495 0.605724 0.317704 1.000000
-178.100000 49.447500 -1607.950000 0.731476 0.606258 0.312079 1.000000
-179.026000 50.753300 -1608.270000 0.731708 0.607271 0.309558 0.455220
-179.853000 52.032600 -1608.850000 0.730842 0.607389 0.311366 1.000000
-180.790000 53.345400 -1609.110000 0.731856 0.604748 0.314113 1.000000
-181.806000 54.457500 -1608.480000 0.747622 0.588200 0.308352 1.000000
-182.564000 55.807000 -1609.000000 0.758235 0.568410 0.319358 1.000000
-183.510000 57.107900 -1609.280000 0.767948 0.552328 0.324329 1.000000
-184.418000 58.421100 -1609.620000 0.775575 0.540370 0.326319 1.000000
-185.398000 59.717100 -1609.780000 0.784277 0.532055 0.319102 1.000000
-186.388000 60.917600 -1609.290000 0.798740 0.523820 0.296019 1.000000
-187.223000 62.309000 -1609.110000 0.809779 0.517438 0.276617 1.000000
