# .PCD v0.7 - Point Cloud Data file format
# 4 97 0
# 1 17 0
# 18 34 0
# 35 74 0
# 75 97 0
VERSION 0.7
FIELDS x y z normal_x normal_y normal_z curvature
SIZE 4 4 4 4 4 4 4
TYPE F F F F F F F
COUNT 1 1 1 1 1 1 1
WIDTH 97
HEIGHT 1
VIEWPOINT 0 0 0 1 0 0 0
POINTS 97
DATA ascii
-27.314000 91.242000 -1585.260000 0.991904 -0.104873 0.071615 0.010000
-27.591700 88.221300 -1585.480000 0.991138 -0.099929 0.087520 1.000000
-27.659700 86.680900 -1586.680000 0.990511 -0.094714 0.099582 1.000000
-27.808000 85.149500 -1587.880000 0.990157 -0.089211 0.107840 1.000000
-27.928800 83.292500 -1588.470000 0.989631 -0.085753 0.115228 1.000000
-27.911200 81.717800 -1589.620000 0.989939 -0.080698 0.116223 1.000000
-28.007900 80.722700 -1591.300000 0.991670 -0.076700 0.103477 1.000000
-27.997900 78.934400 -1592.080000 0.992708 -0.073206 0.095767 1.000000
-27.784300 77.118100 -1592.760000 0.994116 -0.067137 0.085005 1.000000
-27.716100 75.510100 -1593.870000 0.995776 -0.062019 0.067703 1.000000
-27.822900 74.520500 -1595.550000 0.996655 -0.058539 0.057032 1.000000
-27.905000 72.623600 -1596.000000 0.998192 -0.037455 0.047015 1.000000
-27.865400 70.901900 -1596.920000 0.999162 -0.018243 0.036631 1.000000
-27.938300 69.148600 -1597.780000 0.999682 0.005055 0.024717 1.000000
-27.935000 68.528700 -1599.630000 0.999478 0.008690 0.031121 1.000000
-27.669700 67.392400 -1601.190000 0.997904 0.046460 0.045055 1.000000
-27.336900 66.304700 -1602.780000 0.994339 0.086155 0.062182 1.000000
-26.869000 64.866200 -1604.010000 0.986676 0.145718 0.072370 0.010000
-26.572600 64.088600 -1605.780000 0.980858 0.177999 0.078961 1.000000
-26.966100 64.774800 -1607.560000 0.987395 0.128195 0.092828 1.000000
-26.773500 65.416900 -1609.400000 0.991472 0.084075 0.099568 1.000000
-26.841100 66.484100 -1611.030000 0.994632 0.032108 0.098370 1.000000
-26.698800 65.973300 -1612.910000 0.997246 0.035638 0.065037 1.000000
-26.630100 66.122300 -1614.860000 0.998739 0.026447 0.042681 1.000000
-26.488800 65.637800 -1616.740000 0.998830 0.034697 0.033690 1.000000
-26.317400 65.706700 -1618.680000 0.998541 0.030066 0.044844 1.000000
-26.242800 66.411200 -1620.500000 0.997545 0.013371 0.068743 1.000000
-26.058700 66.756600 -1622.420000 0.995906 0.000125 0.090393 1.000000
-25.860800 67.088500 -1624.330000 0.994191 -0.013578 0.106772 1.000000
-25.619100 67.095800 -1626.270000 0.993588 -0.023897 0.110504 1.000000
-25.614400 67.343400 -1628.200000 0.992636 -0.036772 0.115422 1.000000
-25.147700 66.624100 -1629.960000 0.992197 -0.046796 0.115564 1.000000
-25.105200 67.188300 -1631.830000 0.991137 -0.056136 0.120403 1.000000
-24.857500 67.964600 -1633.600000 0.991317 -0.056039 0.118954 1.000000
-24.568200 68.410000 -1635.480000 0.990887 -0.053035 0.123814 0.010000
-24.579000 70.333100 -1635.810000 0.991877 -0.040553 0.120559 1.000000
-24.258400 71.853700 -1637.000000 0.992934 -0.022448 0.116523 1.000000
-24.121900 73.465800 -1638.090000 0.993837 -0.001684 0.110836 1.000000
-24.120900 75.412900 -1638.230000 0.995427 0.013947 0.094503 1.000000
-23.942000 77.256300 -1638.850000 0.996164 0.030967 0.081838 1.000000
-23.708900 78.899200 -1639.870000 0.961277 -0.028358 0.274122 1.000000
-23.974500 80.823600 -1639.680000 0.951642 -0.056398 0.301987 1.000000
-23.773800 82.719400 -1640.100000 0.915332 -0.110182 0.387334 1.000000
-23.493500 84.641900 -1640.290000 0.884402 -0.147643 0.442758 1.000000
-23.190400 86.542600 -1639.970000 0.876049 -0.161118 0.454509 1.000000
-22.604600 88.391600 -1639.750000 0.869380 -0.156212 0.468803 1.000000
-21.685200 90.100700 -1639.530000 0.869132 -0.140552 0.474189 1.000000
-22.176200 91.745900 -1638.600000 0.907037 -0.141214 0.396664 1.000000
-23.022200 93.233100 -1637.660000 0.933853 -0.142935 0.327854 1.000000
-23.134500 94.924600 -1636.700000 0.950082 -0.141137 0.278251 1.000000
-22.752900 96.601500 -1635.770000 0.960988 -0.134576 0.241642 1.000000
-22.759900 98.261000 -1634.740000 0.969642 -0.123542 0.211027 1.000000
-23.073100 99.556400 -1633.320000 0.975980 -0.117874 0.183216 1.000000
-23.194200 100.943000 -1631.950000 0.980027 -0.110645 0.165242 1.000000
-23.109000 102.683000 -1631.070000 0.982198 -0.102277 0.157567 1.000000
-22.851800 104.618000 -1631.020000 0.982048 -0.106130 0.155943 1.000000
-22.928000 106.088000 -1629.740000 0.983117 -0.116839 0.140815 1.000000
-22.948600 107.411000 -1628.300000 0.983974 -0.126079 0.126091 1.000000
-22.960100 109.026000 -1627.210000 0.983411 -0.137903 0.117837 1.000000
-22.665300 110.736000 -1626.310000 0.981508 -0.152894 0.115177 1.000000
-22.586700 112.223000 -1625.050000 0.979951 -0.166675 0.109159 1.000000
-22.643100 113.429000 -1623.520000 0.979083 -0.177450 0.099536 1.000000
-22.465600 114.938000 -1622.290000 0.976582 -0.193847 0.093335 1.000000
-22.252100 116.394000 -1621.010000 0.973571 -0.210762 0.087966 1.000000
-21.804800 118.163000 -1620.310000 0.969769 -0.227169 0.089119 1.000000
-21.797200 119.564000 -1618.950000 0.966823 -0.236154 0.097388 1.000000
-21.357700 121.314000 -1618.210000 0.961365 -0.253840 0.106498 1.000000
-21.002300 122.733000 -1616.920000 0.953008 -0.273466 0.130351 1.000000
-21.054100 123.958000 -1615.400000 0.934657 -0.306378 0.180414 1.000000
-20.780700 125.142000 -1613.870000 0.930860 -0.330929 0.154874 1.000000
-20.194800 126.752000 -1612.930000 0.926766 -0.353150 0.128024 1.000000
-20.343200 127.311000 -1611.070000 0.940692 -0.338340 -0.024975 1.000000
-19.732900 128.227000 -1609.460000 0.927856 -0.324273 -0.184203 1.000000
-19.438100 128.101000 -1607.530000 0.871119 -0.318092 -0.374124 1.000000
-18.827100 127.981000 -1605.680000 0.800019 -0.340398 -0.494064 0.010000
-18.246800 127.041000 -1604.070000 0.762668 -0.472321 -0.441872 1.000000
-18.102200 125.487000 -1602.900000 0.744709 -0.561581 -0.360604 1.000000
-18.947700 123.975000 -1602.000000 0.752349 -0.596253 -0.280097 1.000000
-19.562500 122.580000 -1600.780000 0.758362 -0.619806 -0.201809 1.000000
-20.566600 121.391000 -1599.600000 0.778797 -0.612943 -0.133327 1.000000
-21.466300 120.269000 -1598.280000 0.802082 -0.592927 -0.071430 1.000000
-22.023800 118.940000 -1596.960000 0.835847 -0.547272 -0.043051 1.000000
-22.683400 117.304000 -1596.130000 0.891362 -0.451551 -0.039689 1.000000
-23.204200 115.658000 -1595.220000 0.938600 -0.343760 -0.029313 1.000000
-24.005700 113.948000 -1594.720000 0.979363 -0.201532 0.015247 1.000000
-24.510000 112.257000 -1593.880000 0.984417 -0.175848 0.000073 1.000000
-24.820300 110.600000 -1592.900000 0.986522 -0.163430 0.008042 1.000000
-25.044300 109.097000 -1591.680000 0.987617 -0.156106 0.015633 1.000000
-25.326500 107.694000 -1590.350000 0.988036 -0.152521 0.022860 1.000000
-25.561700 105.861000 -1589.720000 0.990731 -0.134449 0.019391 1.000000
-25.734600 104.116000 -1588.860000 0.992814 -0.119510 0.006193 1.000000
-25.819800 102.286000 -1588.190000 0.993659 -0.112431 -0.001401 1.000000
-25.950100 100.453000 -1587.530000 0.992815 -0.119564 -0.004739 1.000000
-26.247700 98.546900 -1587.230000 0.990958 -0.132384 0.021820 1.000000
-26.354300 96.641000 -1586.820000 0.989951 -0.133827 0.045686 1.000000
-26.800800 94.741700 -1586.880000 0.990670 -0.121172 0.062372 1.000000
-27.166500 92.960300 -1586.170000 0.991384 -0.111596 0.068582 1.000000
