# .PCD v0.7 - Point Cloud Data file format
# 2 30 0
# 1 5 0
# 6 30 0
VERSION 0.7
FIELDS x y z normal_x normal_y normal_z curvature
SIZE 4 4 4 4 4 4 4
TYPE F F F F F F F
COUNT 1 1 1 1 1 1 1
WIDTH 30
HEIGHT 1
VIEWPOINT 0 0 0 1 0 0 0
POINTS 30
DATA ascii
-24.751000 57.792700 -1371.260000 -0.226900 -0.741408 -0.631530 0.010000
-24.609700 56.803700 -1370.140000 -0.232869 -0.720049 -0.653683 1.000000
-24.580500 55.653500 -1369.200000 -0.245490 -0.702039 -0.668487 1.000000
-24.638400 54.377800 -1368.400000 -0.262550 -0.685410 -0.679176 1.000000
-24.533700 53.375700 -1367.320000 -0.283596 -0.668041 -0.687964 1.000000
-24.374900 52.464800 -1366.130000 -0.307125 -0.650109 -0.695006 1.000000
-24.188100 51.524700 -1364.970000 -0.332387 -0.633555 -0.698661 1.000000
-24.009200 50.563500 -1363.830000 -0.355302 -0.633021 -0.687782 1.000000
-23.899300 49.468400 -1362.800000 -0.373278 -0.636053 -0.675351 1.000000
-23.799500 48.360800 -1361.790000 0.827080 -0.180702 0.532246 1.000000
-23.722100 47.225700 -1360.810000 0.834442 -0.187133 0.518352 1.000000
-23.587000 46.199000 -1359.730000 -0.335245 -0.748655 -0.571950 1.000000
-23.394400 45.280700 -1358.550000 -0.270992 -0.826175 -0.493961 1.000000
-23.373300 44.126900 -1357.620000 0.214415 0.773419 -0.596531 1.000000
-23.430100 42.866100 -1356.800000 -0.210275 -0.850780 -0.481619 1.000000
-23.430100 41.642600 -1355.930000 0.663590 0.646705 -0.376059 1.000000
-23.419900 40.432200 -1355.040000 0.571650 0.233162 0.786671 1.000000
-23.378500 39.335900 -1354.010000 0.606750 0.211573 0.766219 1.000000
-23.518500 38.268700 -1353.010000 -0.146868 -0.856203 -0.495324 1.000000
-24.203100 37.288900 -1352.090000 -0.132349 -0.849130 -0.511333 1.000000
-24.991500 36.548100 -1351.100000 -0.115534 -0.834455 -0.538829 1.000000
-25.913400 36.114500 -1349.990000 0.564154 0.322426 0.760113 1.000000
-26.876800 35.722800 -1348.900000 0.539260 0.400447 0.740837 1.000000
-27.865000 35.356300 -1347.830000 0.526931 0.470585 0.707738 1.000000
-29.022500 35.379200 -1346.890000 -0.052950 -0.731774 -0.679488 1.000000
-30.219000 35.492000 -1345.990000 -0.027143 -0.719089 -0.694387 1.000000
-26.129200 59.501800 -1376.770000 0.649514 0.666727 0.365521 1.000000
-25.827800 58.989900 -1375.390000 0.658997 0.672639 0.336569 1.000000
-25.502300 58.531600 -1374.000000 -0.247281 -0.913834 -0.322117 1.000000
-25.072600 58.305100 -1372.580000 -0.235439 -0.809887 -0.537262 1.000000
