# .PCD v0.7 - Point Cloud Data file format
# 4 189 0
# 1 13 0
# 14 52 0
# 53 121 0
# 122 189 0
VERSION 0.7
FIELDS x y z normal_x normal_y normal_z curvature
SIZE 4 4 4 4 4 4 4
TYPE F F F F F F F
COUNT 1 1 1 1 1 1 1
WIDTH 189
HEIGHT 1
VIEWPOINT 0 0 0 1 0 0 0
POINTS 189
DATA ascii
-165.317000 126.757000 -1336.380000 0.735643 0.322370 -0.595740 0.010000
-166.100000 126.183000 -1337.320000 0.742663 0.316272 -0.590275 1.000000
-166.869000 125.926000 -1338.390000 0.748706 0.316666 -0.582377 1.000000
-167.749000 126.331000 -1339.330000 0.748526 0.331438 -0.574332 1.000000
-168.561000 126.438000 -1340.390000 0.752634 0.337743 -0.565218 1.000000
-169.292000 126.375000 -1341.520000 0.758192 0.342916 -0.554574 1.000000
-170.138000 126.518000 -1342.560000 0.763295 0.349643 -0.543260 1.000000
-170.978000 126.694000 -1343.600000 0.769005 0.356456 -0.530633 1.000000
-171.905000 126.964000 -1344.530000 0.774877 0.363111 -0.517413 1.000000
-172.712000 127.816000 -1345.200000 0.778566 0.365975 -0.509802 1.000000
-173.482000 128.139000 -1346.250000 0.781496 0.372626 -0.500413 1.000000
-174.215000 128.510000 -1347.320000 0.783114 0.377932 -0.493862 1.000000
-175.077000 129.212000 -1348.080000 0.784511 0.377369 -0.492073 1.000000
-175.947000 129.873000 -1348.860000 0.786547 0.375494 -0.490253 1.000000
-176.719000 130.183000 -1349.920000 0.788546 0.376778 -0.486039 1.000000
-177.466000 130.482000 -1351.000000 0.790398 0.377050 -0.482809 1.000000
-178.190000 130.949000 -1352.030000 0.792525 0.374633 -0.481201 1.000000
-179.061000 131.831000 -1352.560000 0.795846 0.366593 -0.481911 1.000000
-179.871000 132.767000 -1353.090000 0.798926 0.358568 -0.482853 1.000000
-180.643000 133.751000 -1353.590000 0.800343 0.351570 -0.485644 1.000000
-181.389000 134.592000 -1354.330000 0.801014 0.347433 -0.487511 1.000000
-182.107000 135.689000 -1354.630000 0.801587 0.341781 -0.490554 1.000000
-182.803000 136.821000 -1354.850000 0.801401 0.337114 -0.494076 1.000000
-183.549000 137.714000 -1355.530000 0.800753 0.336842 -0.495310 1.000000
-184.306000 138.570000 -1356.240000 0.799786 0.338388 -0.495819 1.000000
-185.080000 139.231000 -1357.120000 0.798938 0.342072 -0.494656 1.000000
-185.848000 139.749000 -1358.100000 0.798322 0.346561 -0.492522 1.000000
-186.677000 140.591000 -1358.740000 0.796442 0.352389 -0.491429 1.000000
-187.438000 141.326000 -1359.570000 0.794656 0.359725 -0.488998 1.000000
-188.199000 142.071000 -1360.400000 0.794254 0.366693 -0.484455 1.000000
-189.057000 142.817000 -1361.120000 0.794421 0.372743 -0.479538 1.000000
-189.880000 143.514000 -1361.920000 0.796290 0.372346 -0.476739 1.000000
-190.716000 144.088000 -1362.810000 0.799497 0.366149 -0.476171 1.000000
-191.573000 144.663000 -1363.680000 0.803434 0.356712 -0.476708 1.000000
-192.217000 144.998000 -1364.810000 0.805668 0.353290 -0.475483 1.000000
-193.007000 145.364000 -1365.840000 0.808418 0.344848 -0.477012 1.000000
-193.849000 145.747000 -1366.810000 0.811466 0.332592 -0.480527 1.000000
-194.608000 145.998000 -1367.900000 0.812883 0.320296 -0.486447 1.000000
-195.390000 146.267000 -1368.960000 0.818151 0.304586 -0.487704 1.000000
-196.076000 146.424000 -1370.110000 0.822290 0.294053 -0.487208 1.000000
-196.736000 146.555000 -1371.270000 0.826465 0.286634 -0.484558 1.000000
-197.477000 146.886000 -1372.350000 0.832314 0.275936 -0.480741 1.000000
-198.243000 147.186000 -1373.410000 0.838047 0.266800 -0.475915 1.000000
-198.981000 147.621000 -1374.450000 0.844439 0.255216 -0.470944 1.000000
-199.502000 147.738000 -1375.690000 0.848907 0.254241 -0.463377 1.000000
-200.300000 147.782000 -1376.770000 0.853623 0.253306 -0.455153 1.000000
-200.792000 147.521000 -1378.000000 0.856498 0.261013 -0.445290 1.000000
-201.455000 148.442000 -1378.720000 0.865103 0.239006 -0.440991 1.000000
-202.144000 148.725000 -1379.840000 0.872036 0.232850 -0.430504 1.000000
-202.679000 148.413000 -1381.040000 0.876182 0.240537 -0.417668 1.000000
-203.233000 148.169000 -1382.240000 0.880897 0.244778 -0.405099 1.000000
-203.633000 147.635000 -1383.410000 0.883818 0.252829 -0.393628 1.000000
-204.342000 148.324000 -1384.320000 0.892345 0.238322 -0.383306 1.000000
-205.037000 148.733000 -1385.400000 0.900038 0.228559 -0.371069 1.000000
-205.659000 149.358000 -1386.420000 0.908036 0.216042 -0.358882 1.000000
-206.125000 150.401000 -1387.130000 0.915547 0.199291 -0.349367 1.000000
-206.528000 151.214000 -1388.130000 0.920585 0.189649 -0.341404 1.000000
-206.902000 152.038000 -1389.120000 0.921005 0.185935 -0.342313 1.000000
-207.243000 152.749000 -1390.210000 0.921310 0.184733 -0.342143 1.000000
-207.605000 153.950000 -1390.700000 0.921127 0.178942 -0.345694 1.000000
-208.125000 154.922000 -1391.480000 0.920824 0.177655 -0.347163 1.000000
-208.702000 155.946000 -1392.130000 0.920158 0.177098 -0.349207 1.000000
-209.185000 156.950000 -1392.890000 0.919379 0.178577 -0.350502 1.000000
-209.721000 158.052000 -1393.440000 0.917980 0.180106 -0.353377 1.000000
-210.143000 159.202000 -1394.000000 0.916342 0.185867 -0.354642 1.000000
-210.585000 160.193000 -1394.800000 0.915606 0.191822 -0.353368 1.000000
-211.000000 161.339000 -1395.370000 0.919768 0.191769 -0.342421 1.000000
-211.406000 162.590000 -1395.660000 0.922765 0.189230 -0.335704 1.000000
-211.530000 163.892000 -1395.340000 0.923115 0.186211 -0.336430 1.000000
-212.779000 167.268000 -1397.440000 0.937974 0.164060 -0.305432 1.000000
-213.109000 168.509000 -1397.840000 0.941513 0.154599 -0.299420 1.000000
-213.366000 169.726000 -1398.360000 0.944865 0.143940 -0.294130 1.000000
-213.678000 171.033000 -1398.450000 0.946926 0.133953 -0.292213 1.000000
-213.821000 172.363000 -1398.290000 0.947842 0.125439 -0.293018 1.000000
-213.985000 173.694000 -1398.180000 0.948393 0.118485 -0.294129 1.000000
-214.249000 174.980000 -1398.480000 0.949386 0.114159 -0.292633 1.000000
-214.450000 176.286000 -1398.740000 0.949629 0.112412 -0.292521 1.000000
-214.529000 177.576000 -1398.360000 0.947715 0.118311 -0.296375 1.000000
-214.723000 178.644000 -1397.560000 0.944227 0.124121 -0.305008 1.000000
-214.791000 179.969000 -1397.790000 0.941450 0.136522 -0.308276 1.000000
-214.932000 181.126000 -1397.120000 0.935982 0.144497 -0.321026 1.000000
-215.019000 182.448000 -1397.360000 0.930816 0.160778 -0.328226 0.010000
-214.987000 182.985000 -1396.120000 0.925371 0.155647 -0.345634 1.000000
-214.472000 183.215000 -1394.900000 0.921393 0.142529 -0.361553 1.000000
-213.964000 183.520000 -1393.690000 0.916997 0.125434 -0.378658 1.000000
-213.401000 184.089000 -1392.610000 0.911720 0.110623 -0.395639 1.000000
-213.298000 185.015000 -1391.640000 0.905434 0.099846 -0.412577 1.000000
-212.802000 185.393000 -1390.440000 0.901796 0.085442 -0.423632 1.000000
-212.273000 185.641000 -1389.230000 0.899356 0.071724 -0.431293 1.000000
-211.681000 186.154000 -1388.140000 0.896709 0.059420 -0.438614 1.000000
-211.050000 186.486000 -1387.000000 0.895783 0.047497 -0.441946 1.000000
-210.568000 186.863000 -1385.800000 0.895911 0.036328 -0.442746 1.000000
-210.302000 187.756000 -1384.820000 0.895516 0.030556 -0.443979 1.000000
-209.673000 188.439000 -1383.850000 0.897034 0.024073 -0.441306 1.000000
-209.080000 188.958000 -1382.760000 0.899362 0.016176 -0.436905 1.000000
-208.688000 189.748000 -1381.740000 0.895469 0.014470 -0.444889 1.000000
-208.127000 190.259000 -1380.630000 0.890439 0.012917 -0.454920 1.000000
-207.436000 190.626000 -1379.530000 0.884835 0.010811 -0.465779 1.000000
-206.771000 190.977000 -1378.420000 0.878790 0.007696 -0.477147 1.000000
-206.216000 191.572000 -1377.340000 0.872062 0.000593 -0.489395 1.000000
-205.689000 192.267000 -1376.320000 0.864268 -0.012516 -0.502876 1.000000
-205.085000 192.855000 -1375.270000 0.856262 -0.025296 -0.515923 1.000000
-204.460000 192.616000 -1374.100000 0.850125 -0.028961 -0.525785 1.000000
-204.024000 193.551000 -1373.240000 0.842670 -0.044927 -0.536553 1.000000
-203.257000 193.288000 -1372.160000 0.837267 -0.047317 -0.544743 1.000000
-202.460000 193.126000 -1371.090000 0.831907 -0.050195 -0.552640 1.000000
-201.807000 193.792000 -1370.120000 0.826139 -0.062794 -0.559957 1.000000
-200.889000 193.526000 -1369.170000 0.824132 -0.064487 -0.562714 1.000000
-200.049000 193.479000 -1368.120000 0.821682 -0.068431 -0.565823 1.000000
-199.412000 194.363000 -1367.330000 0.817903 -0.082330 -0.569435 1.000000
-198.846000 195.181000 -1366.420000 0.822483 -0.060018 -0.565615 1.000000
-198.134000 195.687000 -1365.400000 0.824919 -0.041000 -0.563762 1.000000
-197.451000 196.164000 -1364.340000 0.825554 -0.026499 -0.563701 1.000000
-196.775000 196.351000 -1363.190000 0.824297 -0.020265 -0.565795 1.000000
-196.039000 196.094000 -1362.090000 0.821946 -0.023352 -0.569087 1.000000
-195.315000 196.529000 -1361.040000 0.819075 -0.017613 -0.573416 1.000000
-194.600000 197.024000 -1360.020000 0.814548 -0.013817 -0.579932 1.000000
-193.807000 197.280000 -1358.960000 0.808551 -0.016059 -0.588207 1.000000
-193.014000 197.254000 -1357.870000 0.802151 -0.024045 -0.596637 1.000000
-192.128000 197.145000 -1356.860000 0.795397 -0.034431 -0.605110 1.000000
-191.263000 197.069000 -1355.840000 0.787871 -0.045899 -0.614128 0.010000
-190.375000 196.979000 -1354.830000 0.779843 -0.058679 -0.623219 1.000000
-189.766000 196.204000 -1353.910000 0.777075 -0.074105 -0.625031 1.000000
-189.401000 195.209000 -1353.080000 0.777154 -0.086972 -0.623272 1.000000
-188.774000 194.385000 -1352.220000 0.775140 -0.099155 -0.623960 1.000000
-188.147000 193.594000 -1351.330000 0.772946 -0.110207 -0.624827 1.000000
-187.349000 193.032000 -1350.400000 0.769826 -0.122432 -0.626402 1.000000
-186.614000 192.371000 -1349.490000 0.769252 -0.134663 -0.624594 1.000000
-186.060000 191.540000 -1348.590000 0.770690 -0.144432 -0.620626 1.000000
-185.658000 190.617000 -1347.690000 0.773692 -0.151270 -0.615238 1.000000
-185.258000 189.666000 -1346.830000 0.777390 -0.155788 -0.609421 1.000000
-184.562000 189.072000 -1345.840000 0.776986 -0.165148 -0.607469 1.000000
-183.848000 188.498000 -1344.850000 0.776425 -0.174391 -0.605600 1.000000
-183.126000 187.917000 -1343.880000 0.775988 -0.183156 -0.603570 1.000000
-182.442000 187.199000 -1342.970000 0.777577 -0.188264 -0.599942 1.000000
-182.101000 186.262000 -1342.060000 0.778339 -0.180263 -0.601410 1.000000
-181.605000 185.405000 -1341.150000 0.768374 -0.165942 -0.618113 1.000000
-180.744000 184.967000 -1340.210000 0.749645 -0.163961 -0.641210 1.000000
-180.074000 184.299000 -1339.250000 0.734411 -0.152462 -0.661359 1.000000
-179.522000 183.480000 -1338.340000 0.722008 -0.134048 -0.678775 1.000000
-178.676000 182.977000 -1337.420000 0.701829 -0.127941 -0.700762 1.000000
-177.880000 182.300000 -1336.570000 0.683684 -0.116166 -0.720473 1.000000
-177.180000 181.493000 -1335.750000 0.667216 -0.101650 -0.737895 1.000000
-176.386000 180.785000 -1334.930000 0.647048 -0.093448 -0.756701 1.000000
-175.714000 179.946000 -1334.120000 0.656101 -0.095470 -0.748610 1.000000
-175.053000 179.095000 -1333.310000 0.667297 -0.102277 -0.737736 1.000000
-174.552000 178.046000 -1332.630000 0.685616 -0.091890 -0.722141 1.000000
-173.615000 177.463000 -1331.860000 0.693558 -0.102850 -0.713021 1.000000
-172.794000 176.709000 -1331.110000 0.706353 -0.102266 -0.700434 1.000000
-172.095000 175.816000 -1330.380000 0.723102 -0.089581 -0.684908 1.000000
-171.658000 174.740000 -1329.700000 0.743849 -0.058674 -0.665767 1.000000
-171.099000 173.722000 -1329.020000 0.761887 -0.029259 -0.647049 1.000000
-170.623000 172.623000 -1328.400000 0.779241 0.010331 -0.626640 1.000000
-170.200000 171.488000 -1327.820000 0.785944 0.058170 -0.615556 1.000000
-169.595000 170.388000 -1327.330000 0.781293 0.107739 -0.614796 1.000000
-169.424000 169.078000 -1327.070000 0.782143 0.170539 -0.599307 1.000000
-169.946000 168.099000 -1327.830000 0.788042 0.217497 -0.575921 1.000000
-169.664000 166.787000 -1327.720000 0.778620 0.181684 -0.600618 1.000000
-169.691000 165.499000 -1328.110000 0.768402 0.135602 -0.625436 1.000000
-169.251000 164.265000 -1327.800000 0.759435 0.107660 -0.641613 1.000000
-168.753000 163.030000 -1327.610000 0.750793 0.079552 -0.655730 1.000000
-168.332000 161.754000 -1327.530000 0.741292 0.050665 -0.669267 1.000000
-168.155000 160.420000 -1327.590000 0.729120 0.020077 -0.684091 1.000000
-168.263000 159.094000 -1327.790000 0.724640 0.030711 -0.688443 1.000000
-168.126000 157.755000 -1327.750000 0.725750 0.046365 -0.686394 1.000000
-167.748000 156.489000 -1327.490000 0.729264 0.056250 -0.681916 1.000000
-167.763000 155.148000 -1327.610000 0.731996 0.064718 -0.678228 1.000000
-168.219000 153.884000 -1327.690000 0.735187 0.071476 -0.674085 1.000000
-168.734000 152.773000 -1328.250000 0.739193 0.078827 -0.668864 1.000000
-168.774000 151.456000 -1328.520000 0.747102 0.095131 -0.657867 1.000000
-168.544000 150.132000 -1328.600000 0.753411 0.112897 -0.647785 1.000000
-168.346000 148.812000 -1328.780000 0.757930 0.134038 -0.638416 1.000000
-168.210000 147.500000 -1329.050000 0.760586 0.157997 -0.629719 1.000000
-168.271000 146.221000 -1329.470000 0.761625 0.183858 -0.621388 1.000000
-168.126000 144.925000 -1329.800000 0.760208 0.210950 -0.614479 1.000000
-168.043000 143.653000 -1330.230000 0.757209 0.238613 -0.608028 1.000000
-168.125000 142.423000 -1330.770000 0.753876 0.265592 -0.600942 1.000000
-168.243000 141.207000 -1331.340000 0.749952 0.292185 -0.593464 1.000000
-168.164000 139.958000 -1331.840000 0.743999 0.320136 -0.586497 1.000000
-167.999000 138.711000 -1332.320000 0.736670 0.348387 -0.579607 1.000000
-167.695000 137.450000 -1332.670000 0.727496 0.375640 -0.574147 1.000000
-167.226000 136.196000 -1332.820000 0.718323 0.377053 -0.584673 1.000000
-166.605000 135.002000 -1332.790000 0.709795 0.377088 -0.594975 1.000000
-166.287000 133.811000 -1333.330000 0.706628 0.368202 -0.604239 1.000000
-166.016000 132.651000 -1333.960000 0.706891 0.355358 -0.611577 1.000000
-166.437000 131.538000 -1334.590000 0.712705 0.340849 -0.613086 1.000000
-166.148000 130.285000 -1334.990000 0.718222 0.327688 -0.613822 1.000000
-165.546000 129.084000 -1335.060000 0.721847 0.326368 -0.610263 1.000000
-165.346000 127.902000 -1335.680000 0.728101 0.326340 -0.602803 1.000000
