# .PCD v0.7 - Point Cloud Data file format
# 3 30 0
# 1 4 0
# 5 22 0
# 23 30 0
VERSION 0.7
FIELDS x y z normal_x normal_y normal_z curvature
SIZE 4 4 4 4 4 4 4
TYPE F F F F F F F
COUNT 1 1 1 1 1 1 1
WIDTH 30
HEIGHT 1
VIEWPOINT 0 0 0 1 0 0 0
POINTS 30
DATA ascii
73.912600 -104.781000 -1579.290000 0.958594 -0.018108 -0.284199 0.010000
74.688000 -104.596000 -1579.130000 0.927915 -0.114437 -0.354793 1.000000
75.655500 -104.425000 -1578.780000 0.782899 -0.392591 -0.482640 1.000000
76.623100 -104.253000 -1578.430000 0.440258 -0.772908 -0.456932 1.000000
77.590700 -104.082000 -1578.080000 -0.090568 -0.953678 -0.286873 1.000000
78.558300 -103.911000 -1577.720000 -0.292381 -0.935046 -0.200505 1.000000
79.525800 -103.740000 -1577.370000 -0.397122 -0.903426 -0.161601 1.000000
80.493400 -103.568000 -1577.020000 -0.465037 -0.873669 -0.142976 1.000000
81.461000 -103.397000 -1576.670000 -0.514994 -0.846682 -0.133834 1.000000
80.584000 -114.447000 -1562.580000 0.117793 -0.791545 -0.599652 1.000000
80.627400 -114.389000 -1562.470000 0.117032 -0.793717 -0.596923 1.000000
80.255000 -113.830000 -1563.270000 0.121408 -0.750351 -0.649795 1.000000
79.882600 -113.270000 -1564.060000 0.123951 -0.695849 -0.707411 0.010000
79.510200 -112.711000 -1564.860000 0.121567 -0.635877 -0.762156 1.000000
79.136000 -112.116000 -1565.630000 0.112056 -0.577871 -0.808399 1.000000
78.761600 -111.520000 -1566.410000 0.095296 -0.528160 -0.843781 1.000000
78.387300 -110.924000 -1567.180000 0.075644 -0.491777 -0.867429 1.000000
78.012900 -110.328000 -1567.950000 0.118692 -0.503173 -0.855996 1.000000
77.638600 -109.731000 -1568.720000 0.188949 -0.515616 -0.835726 1.000000
77.381500 -109.216000 -1569.590000 0.281786 -0.522157 -0.804953 1.000000
77.134800 -108.647000 -1570.420000 0.406279 -0.512777 -0.756305 1.000000
76.883600 -108.084000 -1571.260000 0.553373 -0.473444 -0.685295 1.000000
76.629000 -107.544000 -1572.120000 0.692283 -0.400954 -0.599983 1.000000
76.374400 -107.004000 -1572.970000 0.782280 -0.325026 -0.531410 1.000000
76.119800 -106.463000 -1573.830000 0.824065 -0.275365 -0.495066 1.000000
75.822800 -105.974000 -1574.670000 0.844291 -0.244800 -0.476702 1.000000
75.296600 -105.858000 -1575.500000 0.883492 -0.152750 -0.442843 1.000000
74.950600 -105.589000 -1576.450000 0.884298 -0.133443 -0.447449 1.000000
74.604600 -105.320000 -1577.400000 0.886741 -0.121618 -0.445981 1.000000
74.258600 -105.051000 -1578.340000 0.927953 -0.057369 -0.368255 1.000000
