# .PCD v0.7 - Point Cloud Data file format
# 3 30 0
# 1 5 0
# 6 10 0
# 11 30 0
VERSION 0.7
FIELDS x y z normal_x normal_y normal_z curvature
SIZE 4 4 4 4 4 4 4
TYPE F F F F F F F
COUNT 1 1 1 1 1 1 1
WIDTH 30
HEIGHT 1
VIEWPOINT 0 0 0 1 0 0 0
POINTS 30
DATA ascii
-215.728000 -62.525800 -1675.680000 0.384552 0.074095 -0.920125 0.010000
-215.876000 -62.021500 -1675.580000 0.334009 0.442771 -0.832101 1.000000
-215.614000 -61.663000 -1675.870000 0.316971 0.493698 -0.809810 1.000000
-215.394000 -61.316500 -1675.860000 0.292072 0.556266 -0.777986 1.000000
-215.236000 -60.980500 -1675.470000 0.254621 0.630843 -0.732943 1.000000
-215.046000 -60.581700 -1675.210000 0.224831 0.673697 -0.703977 1.000000
-214.818000 -60.108400 -1675.110000 0.202249 0.697214 -0.687741 1.000000
-214.591000 -59.635100 -1675.000000 0.182335 0.712350 -0.677725 1.000000
-214.363000 -59.161800 -1674.900000 0.164194 0.721938 -0.672194 1.000000
-214.135000 -58.688500 -1674.800000 0.145990 0.721273 -0.677091 1.000000
-213.908000 -58.215200 -1674.690000 0.126311 0.709763 -0.693023 1.000000
-213.682000 -57.744200 -1674.580000 0.106890 0.698022 -0.708053 1.000000
-213.606000 -57.446200 -1674.150000 0.081732 0.689428 -0.719728 1.000000
-213.530000 -57.148200 -1673.710000 0.057880 0.681349 -0.729667 1.000000
-213.455000 -56.850200 -1673.270000 0.035300 0.673815 -0.738056 1.000000
-213.374000 -56.545300 -1672.840000 0.014044 0.666708 -0.745186 1.000000
-213.189000 -56.085600 -1672.640000 -0.003679 0.657211 -0.753698 1.000000
-213.004000 -55.625800 -1672.440000 -0.020579 0.648153 -0.761232 1.000000
-212.815000 -55.147200 -1672.330000 -0.034931 0.639687 -0.767841 1.000000
-212.622000 -54.648100 -1672.320000 -0.046899 0.631649 -0.773834 1.000000
-212.428000 -54.149000 -1672.320000 -0.058500 0.623915 -0.779300 1.000000
-215.768000 -63.722000 -1674.870000 0.113182 -0.923485 -0.366559 1.000000
-215.485000 -64.082500 -1674.590000 0.062891 -0.949503 -0.307392 1.000000
-215.344000 -64.358900 -1674.230000 0.016840 -0.968791 -0.247308 1.000000
-215.440000 -64.494800 -1673.720000 -0.031225 -0.983571 -0.177802 1.000000
-215.500000 -64.317100 -1673.800000 -0.023000 -0.982804 -0.183213 0.010000
-215.540000 -63.966800 -1674.200000 0.020838 -0.970848 -0.238789 1.000000
-215.580000 -63.616600 -1674.610000 0.084605 -0.937326 -0.338028 1.000000
-215.620000 -63.266400 -1675.010000 0.194228 -0.819670 -0.538903 1.000000
-215.659000 -62.916100 -1675.410000 0.348292 -0.402624 -0.846514 1.000000
