# .PCD v0.7 - Point Cloud Data file format
# 4 111 0
# 1 3 0
# 4 56 0
# 57 102 0
# 103 111 0
VERSION 0.7
FIELDS x y z normal_x normal_y normal_z curvature
SIZE 4 4 4 4 4 4 4
TYPE F F F F F F F
COUNT 1 1 1 1 1 1 1
WIDTH 111
HEIGHT 1
VIEWPOINT 0 0 0 1 0 0 0
POINTS 111
DATA ascii
174.988000 95.875000 -1360.830000 -0.496254 0.666436 0.556413 0.010000
175.947000 96.748300 -1362.570000 -0.471183 0.691209 0.547920 1.000000
176.846000 98.035800 -1364.060000 -0.420528 0.707076 0.568506 1.000000
177.425000 100.002000 -1364.770000 -0.338828 0.721278 0.604114 1.000000
177.733000 101.688000 -1366.100000 -0.271768 0.728229 0.629145 1.000000
177.393000 102.552000 -1368.060000 -0.310582 0.727985 0.611208 1.000000
176.202000 103.181000 -1369.760000 -0.418462 0.708334 0.568465 1.000000
174.886000 103.779000 -1371.380000 -0.497263 0.683321 0.534605 1.000000
173.616000 104.444000 -1373.010000 -0.549875 0.661095 0.510482 1.000000
172.587000 104.853000 -1374.870000 -0.590143 0.638641 0.493831 1.000000
159.669000 111.214000 -1395.220000 -0.665720 0.163358 0.728101 1.000000
161.079000 111.626000 -1393.620000 -0.007461 -0.185262 -0.982661 1.000000
162.544000 112.667000 -1392.410000 -0.077767 0.112097 -0.990650 0.010000
162.029000 113.402000 -1390.430000 -0.168740 0.259556 -0.950872 1.000000
161.557000 113.966000 -1388.390000 -0.777201 0.185748 0.601213 1.000000
161.328000 114.683000 -1386.360000 0.834795 -0.063325 0.546907 1.000000
161.199000 115.339000 -1384.300000 0.883794 -0.116351 0.453177 1.000000
161.256000 116.076000 -1382.260000 0.911729 -0.141932 0.385494 1.000000
161.250000 115.996000 -1380.090000 0.896062 -0.055140 0.440490 1.000000
161.296000 115.648000 -1377.950000 -0.697857 0.708659 0.103915 1.000000
161.297000 115.227000 -1375.820000 -0.643832 0.728172 0.235043 1.000000
161.786000 115.363000 -1373.710000 -0.335793 0.762953 0.552400 1.000000
161.695000 114.568000 -1371.690000 -0.463250 0.747325 0.476345 1.000000
160.936000 113.079000 -1370.310000 -0.456503 0.722193 0.519657 1.000000
160.200000 111.551000 -1368.960000 -0.447191 0.687223 0.572489 1.000000
159.162000 109.706000 -1368.490000 0.506078 0.078335 0.858923 1.000000
158.349000 108.052000 -1367.340000 0.600217 -0.130695 0.789087 1.000000
157.509000 106.341000 -1366.310000 -0.270189 0.412575 0.869931 1.000000
156.782000 104.606000 -1365.230000 -0.387042 0.411278 0.825257 1.000000
155.931000 102.767000 -1364.450000 0.118145 0.042042 0.992106 1.000000
155.316000 101.044000 -1363.290000 -0.607460 0.369228 0.703323 1.000000
154.322000 99.186400 -1362.770000 -0.548041 0.254250 0.796874 1.000000
153.809000 97.880400 -1361.120000 0.202963 0.955758 0.212917 1.000000
152.899000 96.057800 -1360.370000 0.254573 0.767114 0.588836 1.000000
151.903000 94.133500 -1360.270000 0.496169 0.254236 0.830169 1.000000
151.077000 92.390200 -1359.280000 0.508694 0.089896 0.856241 1.000000
150.283000 90.499600 -1358.570000 0.511509 0.011947 0.859195 1.000000
149.468000 88.609000 -1357.890000 0.492208 -0.006625 0.870452 1.000000
148.901000 86.837800 -1356.770000 0.462334 0.014662 0.886585 1.000000
148.417000 85.106100 -1355.560000 0.423168 0.058293 0.904174 1.000000
148.034000 83.542600 -1354.100000 0.368557 0.133840 0.919920 1.000000
147.775000 82.110500 -1352.500000 0.285330 0.352705 0.891171 1.000000
147.582000 80.605600 -1350.950000 0.326871 0.940615 0.091642 1.000000
147.622000 79.497800 -1349.080000 -0.388923 0.863573 0.320906 1.000000
147.061000 77.850600 -1347.790000 -0.182731 0.914934 0.359868 1.000000
147.271000 76.479000 -1346.120000 -0.183134 0.849139 0.495404 1.000000
146.361000 74.603500 -1345.520000 -0.397870 0.738009 0.545016 1.000000
145.247000 72.753700 -1345.310000 -0.633738 0.593975 0.495550 1.000000
144.120000 70.900700 -1345.350000 -0.752824 0.488279 0.441407 1.000000
143.188000 68.958500 -1345.090000 -0.797758 0.425448 0.427290 1.000000
142.606000 67.078500 -1344.180000 -0.802207 0.384331 0.456896 1.000000
142.114000 65.099900 -1343.440000 -0.792873 0.372096 0.482594 1.000000
141.187000 63.192000 -1342.990000 -0.794838 0.366966 0.483289 1.000000
140.862000 61.341900 -1341.900000 -0.761303 0.356716 0.541453 1.000000
140.753000 59.488000 -1340.780000 -0.688939 0.335456 0.642520 1.000000
139.736000 57.745100 -1341.580000 -0.762685 0.344265 0.547534 1.000000
138.953000 55.753700 -1341.220000 -0.756337 0.334987 0.561906 1.000000
138.225000 53.809200 -1340.590000 -0.732957 0.319005 0.600841 1.000000
137.499000 51.771200 -1340.750000 -0.740510 0.313517 0.594435 1.000000
136.889000 49.799800 -1340.080000 -0.699577 0.286594 0.654565 1.000000
136.218000 47.790800 -1340.540000 -0.714872 0.284886 0.638591 1.000000
135.593000 45.717400 -1340.420000 -0.701284 0.226639 0.675896 1.000000
134.991000 43.646100 -1340.190000 -0.675586 0.122630 0.727011 1.000000
134.380000 41.576900 -1339.970000 -0.638870 -0.024566 0.768923 1.000000
133.810000 39.588800 -1339.310000 -0.566526 -0.203952 0.798406 1.000000
133.199000 37.809100 -1340.390000 -0.606104 -0.370664 0.703737 0.010000
134.681000 36.404400 -1341.120000 -0.390502 -0.617390 0.682889 1.000000
136.215000 34.962300 -1341.650000 0.150993 -0.714981 0.682645 1.000000
137.927000 33.676700 -1341.990000 -0.605756 0.394023 0.691235 1.000000
139.798000 32.606900 -1342.240000 0.856988 -0.416264 -0.303802 1.000000
141.722000 31.640600 -1341.980000 -0.743799 0.197061 0.638695 1.000000
143.828000 31.181100 -1341.740000 0.850093 -0.421518 -0.315697 1.000000
145.784000 30.581000 -1341.020000 -0.760018 0.218274 0.612152 1.000000
147.726000 30.148700 -1340.160000 -0.762735 0.218200 0.608789 1.000000
149.459000 30.722800 -1338.980000 -0.751145 0.238020 0.615733 1.000000
150.723000 31.789700 -1337.580000 -0.733092 0.259093 0.628846 1.000000
151.936000 32.951800 -1336.210000 -0.692409 0.276009 0.666624 1.000000
152.976000 34.689400 -1335.430000 -0.550252 0.302153 0.778412 1.000000
154.278000 36.242500 -1336.210000 0.862295 -0.090015 0.498342 1.000000
154.676000 38.365300 -1336.410000 0.922491 -0.207061 0.325785 1.000000
155.600000 40.070100 -1337.380000 0.946859 -0.283481 0.151979 1.000000
156.325000 41.982600 -1338.100000 0.945771 -0.295679 0.134504 1.000000
156.661000 44.050300 -1338.660000 0.943402 -0.296365 0.148861 1.000000
157.083000 45.872600 -1339.760000 0.932192 -0.293967 0.211192 1.000000
157.547000 47.797200 -1340.650000 0.918571 -0.395023 -0.013541 1.000000
157.907000 49.923800 -1340.420000 -0.374385 0.401662 0.835765 1.000000
159.543000 51.141800 -1341.160000 0.870960 -0.465923 0.156028 1.000000
160.932000 52.630500 -1341.910000 0.837181 -0.541539 0.076572 1.000000
161.268000 54.597500 -1342.760000 0.801574 -0.597603 0.018701 1.000000
161.581000 56.743300 -1342.810000 -0.547589 0.481640 0.684229 1.000000
162.210000 58.731800 -1343.410000 -0.591189 0.479686 0.648381 1.000000
162.758000 60.201300 -1344.910000 0.945830 -0.294833 0.135934 1.000000
163.102000 61.941400 -1346.160000 -0.661476 0.475114 0.580272 1.000000
164.275000 63.628200 -1346.850000 0.811226 -0.497935 0.306551 1.000000
164.362000 65.625900 -1347.690000 -0.687999 0.461083 0.560411 1.000000
164.230000 67.493400 -1348.790000 -0.698698 0.479792 0.530679 1.000000
163.949000 69.557600 -1349.390000 -0.691936 0.519383 0.501464 1.000000
164.472000 71.260300 -1350.630000 -0.670308 0.536595 0.512594 1.000000
165.463000 73.137100 -1351.080000 -0.651058 0.551779 0.521214 1.000000
166.393000 75.050200 -1351.500000 -0.631396 0.557992 0.538502 1.000000
167.519000 76.670100 -1352.410000 -0.611428 0.551349 0.567600 1.000000
168.697000 78.417700 -1352.920000 -0.588329 0.539599 0.602247 1.000000
169.969000 79.960900 -1353.760000 -0.571701 0.509487 0.643102 1.000000
171.223000 81.560500 -1354.520000 -0.555302 0.489501 0.672330 1.000000
171.663000 83.602800 -1355.100000 -0.549982 0.475517 0.686588 1.000000
172.306000 85.608500 -1355.620000 -0.545323 0.472312 0.692491 1.000000
172.605000 87.440200 -1356.740000 -0.559389 0.476705 0.678112 1.000000
172.348000 89.356400 -1357.720000 -0.585913 0.484901 0.649290 1.000000
172.476000 91.521500 -1357.760000 -0.571977 0.527252 0.628370 1.000000
173.414000 93.351400 -1358.450000 -0.540329 0.585525 0.604322 1.000000
174.183000 95.332100 -1358.890000 -0.500632 0.636087 0.587163 1.000000
