# .PCD v0.7 - Point Cloud Data file format
# 3 30 0
# 1 5 0
# 6 29 0
# 30 30 0
VERSION 0.7
FIELDS x y z normal_x normal_y normal_z curvature
SIZE 4 4 4 4 4 4 4
TYPE F F F F F F F
COUNT 1 1 1 1 1 1 1
WIDTH 30
HEIGHT 1
VIEWPOINT 0 0 0 1 0 0 0
POINTS 30
DATA ascii
-203.930000 -95.022100 -1630.710000 0.305338 -0.322408 0.896003 0.010000
-204.433000 -96.050000 -1630.190000 0.298730 -0.329687 0.895582 1.000000
-203.500000 -73.051000 -1638.110000 0.706545 -0.621522 -0.338384 1.000000
-203.587000 -73.513000 -1637.010000 0.677002 -0.639023 -0.365127 1.000000
-203.593000 -73.500300 -1637.300000 0.686985 -0.633840 -0.355385 1.000000
-203.395000 -72.830400 -1638.380000 0.709395 -0.619071 -0.336912 1.000000
-203.197000 -72.160500 -1639.460000 0.731623 -0.603369 -0.317290 0.010000
-202.959000 -71.685700 -1640.340000 0.749021 -0.590395 -0.300667 1.000000
-202.428000 -72.662200 -1639.690000 0.724470 -0.607571 -0.325578 1.000000
-201.898000 -73.638700 -1639.030000 0.697890 -0.624305 -0.350988 1.000000
-201.367000 -74.615200 -1638.380000 0.669127 -0.640061 -0.377611 1.000000
-200.836000 -75.591800 -1637.720000 0.638016 -0.654043 -0.406402 1.000000
-200.305000 -76.568300 -1637.070000 0.604773 -0.664954 -0.438276 1.000000
-199.775000 -77.544800 -1636.420000 0.569471 -0.670986 -0.474849 1.000000
-199.244000 -78.521300 -1635.760000 0.531868 -0.669148 -0.518997 1.000000
-198.713000 -79.497800 -1635.110000 0.428637 0.792982 0.432955 1.000000
-198.182000 -80.474300 -1634.450000 0.437732 0.763268 0.475198 1.000000
-197.672000 -81.429500 -1633.780000 0.454506 0.720742 0.523407 1.000000
-197.780000 -81.869600 -1632.630000 0.434294 0.675152 0.596286 1.000000
-198.285000 -82.976400 -1632.200000 0.414712 0.620962 0.665146 1.000000
-198.791000 -84.083200 -1631.770000 0.390006 0.547498 0.740366 1.000000
-199.055000 -84.821100 -1630.810000 0.359513 0.456652 0.813769 1.000000
-199.481000 -85.791200 -1630.320000 0.330207 0.356906 0.873832 1.000000
-200.035000 -86.947900 -1630.180000 0.300241 0.237327 0.923867 1.000000
-200.589000 -88.104600 -1630.050000 0.270361 0.105912 0.956916 1.000000
-201.145000 -89.258100 -1630.000000 0.244013 -0.021598 0.969532 1.000000
-201.708000 -90.404400 -1630.190000 0.223485 -0.134493 0.965384 1.000000
-202.271000 -91.550800 -1630.370000 0.245999 -0.190674 0.950330 1.000000
-202.834000 -92.697100 -1630.550000 0.272123 -0.243134 0.931040 1.000000
-203.397000 -93.848800 -1630.670000 0.291364 -0.288264 0.912146 1.000000
