# .PCD v0.7 - Point Cloud Data file format
# 4 106 0
# 1 14 0
# 15 58 0
# 59 83 0
# 84 106 0
VERSION 0.7
FIELDS x y z normal_x normal_y normal_z curvature
SIZE 4 4 4 4 4 4 4
TYPE F F F F F F F
COUNT 1 1 1 1 1 1 1
WIDTH 106
HEIGHT 1
VIEWPOINT 0 0 0 1 0 0 0
POINTS 106
DATA ascii
228.538000 149.749000 -1538.240000 0.830453 -0.293812 -0.473310 0.010000
227.107000 149.697000 -1539.930000 0.850252 -0.320255 -0.417741 1.000000
225.926000 148.290000 -1541.160000 0.858241 -0.335409 -0.388489 1.000000
225.121000 146.773000 -1542.560000 0.864743 -0.343024 -0.366816 1.000000
224.025000 146.300000 -1544.420000 0.872126 -0.341103 -0.350777 1.000000
222.971000 145.138000 -1545.980000 0.876510 -0.339843 -0.340936 1.000000
221.917000 144.750000 -1547.890000 0.876275 -0.340718 -0.340666 1.000000
220.860000 143.696000 -1549.530000 0.874487 -0.343484 -0.342478 1.000000
219.878000 142.972000 -1551.370000 0.872598 -0.345970 -0.344786 1.000000
218.853000 142.371000 -1553.240000 0.870478 -0.350203 -0.345870 1.000000
218.023000 142.368000 -1555.290000 0.868789 -0.360427 -0.339557 1.000000
217.134000 141.716000 -1557.210000 0.872831 -0.366884 -0.321811 1.000000
216.225000 140.693000 -1558.950000 0.881792 -0.363306 -0.300753 1.000000
215.344000 139.957000 -1560.850000 0.888892 -0.364173 -0.277936 1.000000
214.429000 139.394000 -1562.780000 0.893516 -0.367216 -0.258421 1.000000
213.603000 139.104000 -1564.820000 0.896443 -0.360108 -0.258287 1.000000
212.817000 138.679000 -1566.840000 0.898660 -0.344557 -0.271462 1.000000
212.036000 137.740000 -1568.690000 0.899712 -0.335271 -0.279484 1.000000
211.195000 137.191000 -1570.660000 0.899259 -0.335391 -0.280795 1.000000
210.130000 136.118000 -1572.280000 0.900713 -0.329248 -0.283392 1.000000
209.329000 135.751000 -1574.310000 0.899251 -0.338761 -0.276744 1.000000
208.422000 134.813000 -1576.100000 0.903294 -0.332330 -0.271324 1.000000
207.915000 134.627000 -1578.240000 0.910687 -0.332378 -0.245304 1.000000
207.296000 133.794000 -1580.200000 0.922049 -0.316078 -0.223428 1.000000
207.029000 133.935000 -1581.200000 0.923747 -0.319041 -0.211907 1.000000
206.397000 133.555000 -1583.280000 0.931633 -0.308325 -0.192344 1.000000
205.606000 131.935000 -1584.570000 0.946439 -0.267745 -0.180461 1.000000
205.182000 131.451000 -1586.690000 0.948672 -0.260801 -0.178898 1.000000
204.331000 130.814000 -1588.630000 0.945769 -0.265723 -0.186846 1.000000
203.809000 130.433000 -1590.750000 0.941811 -0.278755 -0.187852 1.000000
203.138000 129.980000 -1592.810000 0.938301 -0.290588 -0.187485 1.000000
202.501000 129.465000 -1594.860000 0.934992 -0.301661 -0.186524 1.000000
201.956000 128.212000 -1596.600000 0.937155 -0.295350 -0.185768 1.000000
201.368000 127.222000 -1598.500000 0.945149 -0.279598 -0.168873 1.000000
200.682000 125.986000 -1600.200000 0.951499 -0.265419 -0.155570 1.000000
200.433000 125.098000 -1602.210000 0.955293 -0.260227 -0.140345 1.000000
199.895000 124.366000 -1604.230000 0.958302 -0.256604 -0.125747 1.000000
199.520000 124.570000 -1606.400000 0.959928 -0.256551 -0.112785 0.010000
199.846000 126.171000 -1607.900000 0.956412 -0.273889 -0.101297 1.000000
200.426000 128.282000 -1608.230000 0.950091 -0.296631 -0.096627 1.000000
201.062000 130.402000 -1608.250000 0.943343 -0.318012 -0.094724 1.000000
201.722000 132.513000 -1608.350000 0.932715 -0.351662 -0.079854 1.000000
202.703000 134.478000 -1608.080000 0.921534 -0.382818 -0.065013 1.000000
203.301000 136.297000 -1606.970000 0.916379 -0.394457 -0.068211 1.000000
204.396000 138.188000 -1606.610000 0.914720 -0.400297 -0.055226 1.000000
205.493000 140.047000 -1606.120000 0.923602 -0.380720 -0.044846 1.000000
206.300000 142.005000 -1605.470000 0.939055 -0.336742 -0.069145 1.000000
206.750000 143.976000 -1604.570000 0.945415 -0.311329 -0.096256 1.000000
207.457000 146.027000 -1604.130000 0.947738 -0.297444 -0.115408 1.000000
208.133000 148.059000 -1603.570000 0.945362 -0.296928 -0.134624 1.000000
208.775000 150.160000 -1603.300000 0.940953 -0.303183 -0.150621 1.000000
209.582000 152.200000 -1603.000000 0.930707 -0.335380 -0.145961 1.000000
210.420000 154.249000 -1602.980000 0.922700 -0.365267 -0.123308 1.000000
211.243000 156.287000 -1602.720000 0.916386 -0.387155 -0.101727 1.000000
212.106000 158.326000 -1602.730000 0.910510 -0.406628 -0.074999 1.000000
212.988000 160.101000 -1601.750000 0.913992 -0.398457 -0.076483 1.000000
213.869000 161.817000 -1600.660000 0.918364 -0.387589 -0.079885 1.000000
214.665000 163.256000 -1599.180000 0.921879 -0.378233 -0.084136 1.000000
215.464000 164.602000 -1597.620000 0.917292 -0.382975 -0.109110 1.000000
216.152000 165.755000 -1595.850000 0.912649 -0.384778 -0.137901 1.000000
216.821000 167.153000 -1594.270000 0.907511 -0.387783 -0.161395 1.000000
217.668000 168.969000 -1593.330000 0.902267 -0.396429 -0.169580 1.000000
218.557000 170.478000 -1591.980000 0.898550 -0.396940 -0.187207 1.000000
219.573000 171.959000 -1590.680000 0.906803 -0.381037 -0.180331 1.000000
220.581000 173.161000 -1589.120000 0.913327 -0.367294 -0.175868 1.000000
221.303000 174.470000 -1587.490000 0.918220 -0.358682 -0.167986 1.000000
222.039000 175.907000 -1585.980000 0.920698 -0.358102 -0.155171 1.000000
222.808000 177.271000 -1584.410000 0.920998 -0.363960 -0.138910 1.000000
223.555000 178.697000 -1582.890000 0.906892 -0.393773 -0.149965 1.000000
224.589000 180.326000 -1581.800000 0.889796 -0.428491 -0.157026 1.000000
225.509000 181.553000 -1580.210000 0.875651 -0.452231 -0.169478 1.000000
226.555000 183.103000 -1579.020000 0.858414 -0.481529 -0.176791 1.000000
227.414000 184.288000 -1577.360000 0.845000 -0.499375 -0.191309 1.000000
228.443000 185.194000 -1575.620000 0.844909 -0.500336 -0.189190 1.000000
229.697000 186.466000 -1574.320000 0.844290 -0.506249 -0.175744 1.000000
230.870000 187.576000 -1572.800000 0.848005 -0.502818 -0.167514 1.000000
231.863000 188.821000 -1571.270000 0.854796 -0.493322 -0.161111 1.000000
232.686000 189.876000 -1569.500000 0.861461 -0.477250 -0.173542 1.000000
233.515000 190.925000 -1567.740000 0.854845 -0.474871 -0.209136 1.000000
234.692000 192.459000 -1566.660000 0.858144 -0.461127 -0.225720 1.000000
235.172000 192.784000 -1564.520000 0.858851 -0.436586 -0.267894 1.000000
236.402000 193.123000 -1562.710000 0.882176 -0.346772 -0.318612 0.010000
235.772000 191.455000 -1561.400000 0.841818 -0.432719 -0.322641 1.000000
235.393000 189.517000 -1560.400000 0.850987 -0.384828 -0.357392 1.000000
235.447000 188.067000 -1558.730000 0.853570 -0.386475 -0.349365 1.000000
234.949000 186.281000 -1557.520000 0.856830 -0.393373 -0.333317 1.000000
235.230000 185.072000 -1555.690000 0.858292 -0.402215 -0.318681 1.000000
235.235000 183.612000 -1554.020000 0.865561 -0.374312 -0.332708 1.000000
235.018000 181.910000 -1552.620000 0.872627 -0.344417 -0.346265 1.000000
235.254000 180.533000 -1550.910000 0.880648 -0.316454 -0.352586 1.000000
235.244000 178.886000 -1549.430000 0.883437 -0.318588 -0.343571 1.000000
235.108000 177.025000 -1548.240000 0.875200 -0.332205 -0.351659 1.000000
234.753000 175.259000 -1546.950000 0.856162 -0.357799 -0.372781 1.000000
234.353000 173.530000 -1545.630000 0.832668 -0.391042 -0.392110 1.000000
234.760000 172.029000 -1544.050000 0.816236 -0.411247 -0.405752 1.000000
233.895000 170.057000 -1543.540000 0.814482 -0.425609 -0.394306 1.000000
233.910000 168.683000 -1541.800000 0.814669 -0.421577 -0.398230 1.000000
234.279000 167.565000 -1539.930000 0.814629 -0.414618 -0.405551 1.000000
233.778000 165.622000 -1538.990000 0.828910 -0.388111 -0.402837 1.000000
233.968000 163.969000 -1537.530000 0.839187 -0.367132 -0.401223 1.000000
233.255000 161.921000 -1537.090000 0.847554 -0.341832 -0.405959 1.000000
232.131000 160.030000 -1537.330000 0.850807 -0.330186 -0.408783 1.000000
231.563000 157.896000 -1537.180000 0.849155 -0.316589 -0.422738 1.000000
230.488000 156.056000 -1537.770000 0.850896 -0.305293 -0.427519 1.000000
229.801000 153.967000 -1538.030000 0.849184 -0.292171 -0.439912 1.000000
228.976000 151.914000 -1538.090000 0.843450 -0.286591 -0.454377 1.000000
