# .PCD v0.7 - Point Cloud Data file format
# 4 64 0
# 1 8 0
# 9 36 0
# 37 58 0
# 59 64 0
VERSION 0.7
FIELDS x y z normal_x normal_y normal_z curvature
SIZE 4 4 4 4 4 4 4
TYPE F F F F F F F
COUNT 1 1 1 1 1 1 1
WIDTH 64
HEIGHT 1
VIEWPOINT 0 0 0 1 0 0 0
POINTS 64
DATA ascii
298.211000 177.894000 -1516.480000 -0.570124 0.600743 0.560417 0.010000
298.820000 176.366000 -1515.290000 -0.571919 0.580873 0.579220 1.000000
299.346000 175.172000 -1513.760000 -0.582841 0.549201 0.598894 1.000000
299.830000 174.146000 -1512.070000 -0.602583 0.507436 0.615956 1.000000
300.311000 173.089000 -1510.400000 -0.633661 0.452191 0.627692 1.000000
300.787000 171.970000 -1508.770000 -0.670364 0.418332 0.612871 1.000000
301.263000 170.851000 -1507.140000 -0.702885 0.418323 0.575290 1.000000
289.337000 219.548000 -1491.600000 -0.618983 -0.297318 -0.726954 1.000000
287.624000 218.570000 -1491.100000 -0.580631 0.336850 0.741215 1.000000
285.912000 217.592000 -1490.600000 -0.529367 0.250319 0.810624 1.000000
284.758000 217.957000 -1491.440000 0.070496 -0.739285 -0.669692 1.000000
283.885000 218.994000 -1492.960000 0.068037 -0.752758 -0.654772 1.000000
283.024000 220.030000 -1494.490000 -0.037496 -0.783457 -0.620314 1.000000
282.188000 221.064000 -1496.030000 -0.477414 0.673610 0.564204 1.000000
281.353000 222.098000 -1497.570000 -0.451610 0.745132 0.490741 0.010000
282.046000 223.013000 -1499.250000 -0.387750 0.822089 0.416918 1.000000
282.739000 223.929000 -1500.930000 -0.316778 0.870579 0.376489 1.000000
283.429000 224.838000 -1502.610000 -0.248643 0.896889 0.365741 1.000000
284.118000 225.744000 -1504.300000 -0.206728 0.919362 0.334719 1.000000
284.525000 226.389000 -1506.100000 -0.271934 -0.958197 0.088947 1.000000
284.371000 226.512000 -1508.120000 -0.233194 -0.877464 0.419140 1.000000
284.218000 226.634000 -1510.150000 -0.267937 0.955372 0.124392 1.000000
283.559000 226.720000 -1512.070000 -0.324404 -0.799887 -0.504918 1.000000
282.899000 226.806000 -1513.990000 -0.333070 0.941531 0.050839 1.000000
282.489000 226.812000 -1515.980000 -0.319047 0.944908 0.073193 1.000000
282.202000 226.778000 -1517.990000 -0.302062 0.950260 0.075920 1.000000
282.045000 226.483000 -1519.950000 -0.309907 0.949995 0.038305 1.000000
282.146000 225.665000 -1521.810000 -0.374923 0.922546 -0.091334 1.000000
282.246000 224.848000 -1523.670000 -0.550644 -0.416999 -0.723121 1.000000
282.217000 223.876000 -1525.460000 -0.656406 0.645452 -0.390542 1.000000
282.188000 222.903000 -1527.250000 -0.518854 0.694943 -0.497841 1.000000
281.600000 221.619000 -1528.610000 -0.242670 -0.921408 -0.303511 1.000000
280.732000 220.179000 -1529.750000 -0.398563 0.669287 -0.627059 1.000000
279.880000 218.736000 -1530.910000 -0.349966 0.679620 -0.644701 1.000000
279.060000 217.286000 -1532.070000 -0.284027 0.745813 -0.602571 1.000000
278.240000 215.836000 -1533.240000 -0.151459 0.485966 -0.860754 1.000000
277.497000 214.392000 -1534.470000 -0.931351 -0.040542 0.361858 1.000000
276.754000 212.948000 -1535.690000 -0.361624 0.652728 -0.665713 1.000000
276.413000 211.308000 -1536.800000 -0.707182 0.658905 -0.256393 1.000000
276.273000 209.570000 -1537.850000 -0.686813 0.695356 -0.211584 1.000000
276.288000 207.743000 -1538.520000 -0.836581 0.154753 -0.525532 1.000000
276.610000 205.736000 -1538.420000 -0.323384 -0.569640 -0.755601 1.000000
276.931000 203.730000 -1538.320000 -0.188724 -0.678856 -0.709604 0.010000
278.935000 203.850000 -1538.650000 -0.046358 -0.693164 -0.719288 1.000000
280.939000 203.971000 -1538.980000 0.000361 -0.691011 -0.722844 1.000000
282.872000 203.556000 -1538.910000 -0.073897 -0.704999 -0.705348 1.000000
284.770000 202.873000 -1538.640000 -0.172648 -0.724100 -0.667737 1.000000
286.280000 201.949000 -1538.040000 -0.276406 -0.741755 -0.611064 1.000000
287.017000 200.542000 -1536.770000 -0.320495 -0.768653 -0.553584 1.000000
287.754000 199.135000 -1535.490000 -0.383287 -0.781972 -0.491540 1.000000
288.612000 197.916000 -1534.110000 -0.479287 -0.747266 -0.460301 1.000000
289.470000 196.696000 -1532.730000 -0.565145 -0.681477 -0.464973 1.000000
290.119000 195.459000 -1531.260000 -0.571716 -0.661106 -0.485880 1.000000
290.665000 194.212000 -1529.740000 -0.506220 -0.689790 -0.517621 1.000000
291.289000 192.889000 -1528.350000 -0.378111 -0.758293 -0.531058 1.000000
292.068000 191.413000 -1527.180000 -0.584817 -0.712018 -0.388612 1.000000
292.847000 189.938000 -1526.020000 -0.865420 -0.483445 -0.131638 1.000000
293.537000 188.479000 -1524.780000 -0.930918 -0.364802 -0.017665 1.000000
294.226000 187.020000 -1523.540000 -0.958253 -0.281211 0.051689 1.000000
294.914000 185.513000 -1522.360000 -0.589512 0.483330 0.647200 1.000000
295.600000 183.982000 -1521.210000 -0.584305 0.534770 0.610417 1.000000
296.278000 182.456000 -1520.050000 -0.580829 0.573074 0.578120 1.000000
296.940000 180.938000 -1518.860000 -0.579300 0.601172 0.550458 1.000000
297.602000 179.421000 -1517.680000 -0.574535 0.609898 0.545833 1.000000
