# .PCD v0.7 - Point Cloud Data file format
# 6 162 0
# 1 15 0
# 16 63 0
# 64 89 0
# 90 117 0
# 118 157 0
# 158 162 0
VERSION 0.7
FIELDS x y z normal_x normal_y normal_z curvature
SIZE 4 4 4 4 4 4 4
TYPE F F F F F F F
COUNT 1 1 1 1 1 1 1
WIDTH 162
HEIGHT 1
VIEWPOINT 0 0 0 1 0 0 0
POINTS 162
DATA ascii
-175.724000 118.950000 -1405.640000 -0.971074 0.126183 0.202715 0.010000
-175.589000 117.878000 -1404.490000 -0.969732 0.121837 0.211604 1.000000
-175.480000 116.748000 -1403.390000 -0.967610 0.120548 0.221810 1.000000
-175.402000 115.720000 -1402.200000 -0.965975 0.121101 0.228532 1.000000
-175.612000 114.390000 -1401.380000 -0.962836 0.136408 0.233109 1.000000
-175.321000 113.822000 -1399.930000 -0.963815 0.136553 0.228942 1.000000
-174.384000 112.091000 -1396.170000 -0.964038 0.146135 0.221982 1.000000
-174.415000 110.755000 -1395.330000 -0.958883 0.172152 0.225626 1.000000
-174.755000 109.452000 -1394.510000 -0.953025 0.196584 0.230432 1.000000
-174.929000 108.330000 -1393.410000 -0.948575 0.212242 0.234859 1.000000
-174.528000 108.192000 -1391.890000 -0.950801 0.204252 0.232936 0.837500
-174.599000 107.163000 -1390.700000 -0.948064 0.211852 0.237261 1.000000
-174.287000 106.395000 -1389.360000 -0.948247 0.209048 0.239011 1.000000
-174.186000 105.371000 -1388.160000 -0.947679 0.205515 0.244270 1.000000
-174.376000 103.978000 -1387.450000 -0.945051 0.202731 0.256472 1.000000
-174.209000 102.773000 -1386.440000 -0.945556 0.193512 0.261682 1.000000
-173.937000 101.564000 -1385.460000 -0.946508 0.185066 0.264335 1.000000
-173.803000 100.486000 -1384.320000 -0.948275 0.179045 0.262140 1.000000
-173.669000 99.701500 -1382.960000 -0.950607 0.178529 0.253917 1.000000
-173.214000 99.767000 -1381.450000 -0.952383 0.181287 0.245155 1.000000
-172.854000 99.435500 -1379.950000 -0.951915 0.189659 0.240596 0.010000
-172.453000 99.587200 -1378.430000 -0.952029 0.192496 0.237877 1.000000
-172.140000 101.116000 -1378.200000 -0.953794 0.179195 0.241178 1.000000
-171.840000 102.645000 -1377.950000 -0.955592 0.165783 0.243640 1.000000
-171.371000 103.446000 -1376.670000 -0.957529 0.160080 0.239819 1.000000
-170.984000 103.996000 -1375.240000 -0.959558 0.156009 0.234328 1.000000
-170.577000 105.070000 -1374.160000 -0.962234 0.144948 0.230424 1.000000
-170.177000 106.541000 -1373.750000 -0.965161 0.127642 0.228410 1.000000
-169.722000 107.628000 -1372.700000 -0.967774 0.115276 0.223885 1.000000
-169.495000 109.156000 -1372.380000 -0.968434 0.109285 0.224039 1.000000
-169.131000 109.723000 -1370.950000 -0.968737 0.108149 0.223274 0.599078
-168.752000 110.391000 -1369.580000 -0.968492 0.107500 0.224647 1.000000
-168.464000 111.779000 -1368.880000 -0.968089 0.102112 0.228861 1.000000
-168.130000 112.952000 -1367.880000 -0.967083 0.098505 0.234622 1.000000
-167.822000 114.450000 -1367.500000 -0.966307 0.091130 0.240721 1.000000
-167.630000 115.996000 -1367.250000 -0.964710 0.087881 0.248218 1.000000
-167.440000 117.405000 -1366.560000 -0.959590 0.101882 0.262309 1.000000
-167.378000 118.672000 -1365.620000 -0.953856 0.115972 0.276965 1.000000
-166.837000 120.153000 -1365.570000 -0.949181 0.127019 0.287962 1.000000
-166.354000 121.540000 -1364.990000 -0.942966 0.140377 0.301844 1.000000
-165.822000 122.687000 -1364.040000 -0.935620 0.154159 0.317568 1.000000
-165.310000 123.993000 -1363.320000 -0.928178 0.167358 0.332382 1.000000
-164.791000 125.181000 -1362.420000 -0.918570 0.184825 0.349383 1.000000
-164.363000 126.665000 -1362.100000 -0.909204 0.205191 0.362276 1.000000
-163.938000 128.165000 -1361.860000 -0.899895 0.226106 0.372913 1.000000
-163.525000 129.687000 -1361.870000 -0.891322 0.247075 0.380130 1.000000
-162.836000 131.001000 -1361.330000 -0.880406 0.269008 0.390538 1.000000
-162.202000 132.362000 -1360.850000 -0.869603 0.291079 0.398828 1.000000
-161.558000 133.661000 -1360.230000 -0.858742 0.312428 0.406142 1.000000
-160.866000 135.001000 -1359.760000 -0.859900 0.310640 0.405062 1.000000
-160.143000 136.307000 -1359.250000 -0.863497 0.302730 0.403394 1.000000
-159.415000 137.517000 -1358.550000 -0.866367 0.294313 0.403471 1.000000
-158.678000 138.619000 -1357.690000 -0.868367 0.285879 0.405231 1.000000
-157.903000 139.668000 -1356.800000 -0.869631 0.277610 0.408258 1.000000
-157.128000 140.641000 -1355.830000 -0.869877 0.269784 0.412953 1.000000
-156.334000 141.622000 -1354.890000 -0.868097 0.260578 0.422501 1.000000
-155.527000 142.634000 -1353.980000 -0.850188 0.275415 0.448695 1.000000
-154.747000 143.753000 -1353.190000 -0.833261 0.298492 0.465381 1.000000
-153.952000 144.927000 -1352.500000 -0.819989 0.322771 0.472691 1.000000
-153.190000 144.954000 -1351.120000 -0.813060 0.315112 0.489529 1.000000
-152.216000 145.823000 -1350.230000 -0.809317 0.327386 0.487672 1.000000
-151.336000 146.351000 -1349.030000 -0.812600 0.324880 0.483874 1.000000
-150.456000 147.237000 -1348.070000 -0.821644 0.328771 0.465629 1.000000
-149.656000 147.680000 -1346.780000 -0.840025 0.309403 0.445676 1.000000
-148.890000 147.960000 -1345.430000 -0.867173 0.271052 0.417783 1.000000
-148.112000 149.219000 -1344.890000 -0.922571 0.189275 0.336210 1.000000
-147.630000 150.283000 -1343.820000 -0.967098 0.076391 0.242664 1.000000
-147.368000 151.732000 -1343.260000 -0.990357 -0.037274 0.133428 1.000000
-147.681000 153.135000 -1342.610000 -0.986723 -0.160834 0.022593 0.010000
-148.142000 154.569000 -1342.140000 -0.956605 -0.280335 -0.079491 1.000000
-148.538000 156.023000 -1342.610000 -0.931259 -0.336198 -0.140453 1.000000
-148.782000 157.286000 -1343.520000 -0.919653 -0.351122 -0.175928 1.000000
-149.008000 158.525000 -1344.470000 -0.906649 -0.364187 -0.212967 1.000000
-149.402000 159.822000 -1345.280000 -0.887549 -0.383711 -0.254994 1.000000
-149.740000 161.064000 -1346.190000 -0.869799 -0.394705 -0.296070 1.000000
-149.460000 161.731000 -1347.590000 -0.871702 -0.366878 -0.324863 1.000000
-149.597000 162.934000 -1348.610000 -0.851837 -0.368646 -0.372121 1.000000
-149.416000 163.853000 -1349.870000 -0.850386 -0.365986 -0.378020 1.000000
-149.778000 165.126000 -1350.730000 -0.835594 -0.398246 -0.378394 1.000000
-150.222000 166.351000 -1351.620000 -0.821020 -0.425956 -0.380116 1.000000
-150.033000 167.319000 -1352.860000 -0.824525 -0.430257 -0.367474 1.000000
-150.013000 168.360000 -1354.040000 -0.823969 -0.435840 -0.362102 1.000000
-149.912000 169.286000 -1355.320000 -0.828332 -0.432656 -0.355914 1.000000
-149.685000 170.100000 -1356.650000 -0.838990 -0.422401 -0.343036 1.000000
-149.593000 171.038000 -1357.910000 -0.844637 -0.415723 -0.337288 1.000000
-149.747000 172.193000 -1358.980000 -0.838888 -0.419002 -0.347425 1.000000
-149.585000 173.159000 -1360.210000 -0.845329 -0.404273 -0.349261 1.000000
-149.192000 173.734000 -1361.630000 -0.867112 -0.366759 -0.337053 1.000000
-149.641000 174.959000 -1362.520000 -0.851554 -0.368375 -0.373036 1.000000
-149.671000 176.019000 -1363.690000 -0.853492 -0.347832 -0.388027 1.000000
-149.423000 176.895000 -1364.970000 -0.869007 -0.308791 -0.386619 1.000000
-149.150000 177.719000 -1366.290000 -0.888331 -0.256490 -0.380895 1.000000
-148.750000 178.412000 -1367.650000 -0.914825 -0.184967 -0.359001 1.000000
-148.328000 178.877000 -1369.100000 -0.948053 -0.089917 -0.305141 1.000000
-147.894000 178.575000 -1370.590000 -0.985822 0.036059 -0.163874 0.010000
-147.641000 177.137000 -1371.180000 -0.992856 0.119164 0.005991 1.000000
-148.089000 176.378000 -1372.490000 -0.954461 0.239060 0.178480 1.000000
-148.811000 175.937000 -1373.820000 -0.891652 0.335690 0.303759 1.000000
-149.469000 175.444000 -1375.170000 -0.826294 0.404816 0.391615 1.000000
-150.242000 175.025000 -1376.480000 -0.770204 0.452632 0.449344 1.000000
-151.247000 174.559000 -1377.600000 -0.722737 0.489193 0.488203 1.000000
-152.264000 173.881000 -1378.600000 -0.682755 0.521812 0.511427 1.000000
-152.993000 174.057000 -1379.990000 -0.666378 0.529275 0.525175 1.000000
-153.787000 174.782000 -1381.140000 -0.662734 0.522623 0.536330 1.000000
-154.735000 173.632000 -1381.670000 -0.651535 0.543789 0.528957 1.000000
-155.884000 173.009000 -1382.550000 -0.686315 0.521444 0.507019 1.000000
-157.098000 173.054000 -1383.560000 -0.715104 0.503694 0.484683 1.000000
-158.059000 172.910000 -1384.800000 -0.742779 0.485285 0.461279 1.000000
-158.704000 173.039000 -1386.230000 -0.763202 0.472740 0.440499 1.000000
-159.255000 173.538000 -1387.620000 -0.776695 0.466463 0.423269 1.000000
-159.765000 174.061000 -1389.020000 -0.788284 0.461621 0.406835 1.000000
-160.201000 174.346000 -1390.510000 -0.800222 0.455687 0.389865 1.000000
-160.584000 174.809000 -1391.970000 -0.808935 0.453232 0.374438 1.000000
-160.947000 175.323000 -1393.420000 -0.816348 0.452523 0.358885 1.000000
-161.267000 175.910000 -1394.850000 -0.822508 0.453577 0.343146 1.000000
-161.637000 176.498000 -1396.260000 -0.828197 0.455567 0.326417 1.000000
-161.977000 176.863000 -1397.760000 -0.833457 0.456907 0.310781 1.000000
-162.385000 177.028000 -1399.280000 -0.835166 0.440058 0.329920 1.000000
-162.714000 177.411000 -1400.770000 -0.836016 0.424594 0.347559 1.000000
-163.006000 177.817000 -1402.270000 -0.836899 0.410036 0.362587 1.000000
-163.590000 177.176000 -1403.590000 -0.839204 0.402222 0.365998 1.000000
-164.421000 177.223000 -1404.930000 -0.841502 0.390982 0.372838 1.000000
-165.216000 177.400000 -1406.280000 -0.844564 0.378663 0.378583 0.010000
-166.093000 176.409000 -1407.140000 -0.848756 0.376794 0.370998 1.000000
-166.899000 175.137000 -1407.610000 -0.857502 0.370284 0.357185 1.000000
-167.549000 173.704000 -1407.720000 -0.871658 0.351365 0.341694 1.000000
-167.849000 172.185000 -1407.420000 -0.883628 0.333363 0.328740 1.000000
-168.062000 170.684000 -1406.980000 -0.895068 0.313590 0.317041 1.000000
-168.746000 169.313000 -1407.350000 -0.907858 0.284700 0.307799 1.000000
-169.051000 167.765000 -1407.300000 -0.919245 0.257316 0.297955 1.000000
-169.549000 166.270000 -1407.380000 -0.929762 0.227921 0.289128 1.000000
-169.584000 164.752000 -1406.950000 -0.933772 0.218387 0.283509 1.000000
-170.266000 163.373000 -1407.300000 -0.935396 0.211701 0.283225 1.000000
-170.395000 161.827000 -1407.020000 -0.937905 0.209062 0.276816 1.000000
-170.792000 160.300000 -1407.050000 -0.939966 0.207001 0.271320 1.000000
-171.595000 159.001000 -1407.450000 -0.941540 0.204041 0.268084 1.000000
-171.449000 157.529000 -1406.900000 -0.943722 0.208352 0.256864 1.000000
-171.813000 155.994000 -1406.880000 -0.945678 0.210691 0.247592 1.000000
-171.839000 154.547000 -1406.250000 -0.947792 0.216475 0.234158 1.000000
-172.092000 152.989000 -1406.230000 -0.954174 0.198185 0.224221 1.000000
-172.455000 151.550000 -1406.760000 -0.961552 0.176278 0.210578 1.000000
-172.734000 150.047000 -1407.160000 -0.968085 0.153652 0.197996 1.000000
-173.085000 148.583000 -1407.630000 -0.974108 0.129789 0.185117 1.000000
-173.367000 147.086000 -1408.040000 -0.979337 0.105132 0.172759 1.000000
-173.639000 145.629000 -1408.580000 -0.983878 0.079456 0.160220 1.000000
-173.664000 144.093000 -1408.220000 -0.985907 0.064304 0.154440 1.000000
-173.811000 142.529000 -1408.080000 -0.985411 0.067265 0.156335 1.000000
-173.950000 140.959000 -1408.160000 -0.984971 0.070904 0.157498 1.000000
-174.115000 139.405000 -1408.380000 -0.984538 0.074756 0.158419 1.000000
-174.117000 137.827000 -1408.380000 -0.984253 0.078744 0.158260 1.000000
-174.242000 136.270000 -1408.160000 -0.984156 0.082963 0.156697 1.000000
-174.251000 134.876000 -1407.420000 -0.984465 0.087536 0.152206 1.000000
-174.345000 133.438000 -1406.780000 -0.984779 0.092532 0.147132 1.000000
-174.392000 132.043000 -1406.040000 -0.985031 0.098782 0.141268 1.000000
-174.510000 130.601000 -1405.410000 -0.984415 0.106082 0.140266 1.000000
-174.528000 129.180000 -1404.730000 -0.983486 0.110170 0.143589 1.000000
-174.656000 127.699000 -1404.200000 -0.982706 0.113017 0.146683 1.000000
-174.749000 126.146000 -1403.930000 -0.982042 0.114167 0.150197 1.000000
-175.163000 124.810000 -1404.670000 -0.980977 0.116493 0.155284 1.000000
-175.396000 123.371000 -1405.270000 -0.979591 0.117675 0.162955 1.000000
-175.662000 122.006000 -1406.010000 -0.977671 0.119288 0.173002 1.000000
-175.724000 120.437000 -1406.170000 -0.974397 0.122785 0.188346 1.000000
