# .PCD v0.7 - Point Cloud Data file format
# 5 152 0
# 1 23 0
# 24 47 0
# 48 80 0
# 81 122 0
# 123 152 0
VERSION 0.7
FIELDS x y z normal_x normal_y normal_z curvature
SIZE 4 4 4 4 4 4 4
TYPE F F F F F F F
COUNT 1 1 1 1 1 1 1
WIDTH 152
HEIGHT 1
VIEWPOINT 0 0 0 1 0 0 0
POINTS 152
DATA ascii
202.674000 107.657000 -1717.280000 -0.757672 -0.652613 -0.005480 0.010000
202.841000 107.244000 -1715.390000 -0.762594 -0.646182 -0.030000 1.000000
203.148000 106.797000 -1713.540000 -0.767569 -0.638453 -0.056710 1.000000
202.410000 107.592000 -1711.940000 -0.773290 -0.630065 -0.071004 1.000000
202.052000 107.858000 -1710.060000 -0.779620 -0.619570 -0.091248 1.000000
201.585000 107.881000 -1708.190000 -0.785387 -0.609388 -0.108687 1.000000
200.980000 108.730000 -1706.560000 -0.791064 -0.600404 -0.117188 1.000000
200.198000 109.236000 -1704.860000 -0.797341 -0.590005 -0.127052 1.000000
199.543000 109.537000 -1703.070000 -0.804352 -0.577460 -0.139846 1.000000
198.931000 109.998000 -1701.300000 -0.811949 -0.563505 -0.152322 1.000000
198.477000 110.219000 -1699.430000 -0.817603 -0.549375 -0.172372 1.000000
198.570000 109.505000 -1697.640000 -0.821713 -0.530754 -0.207574 1.000000
197.644000 110.474000 -1696.250000 -0.820059 -0.527061 -0.222956 1.000000
196.981000 110.687000 -1694.440000 -0.820875 -0.512024 -0.252974 1.000000
196.157000 111.094000 -1692.740000 -0.819865 -0.502015 -0.275323 1.000000
195.531000 111.066000 -1690.910000 -0.819311 -0.489307 -0.298843 1.000000
194.924000 111.084000 -1689.080000 -0.818615 -0.478890 -0.317070 1.000000
193.907000 111.820000 -1687.610000 -0.816702 -0.477401 -0.324170 1.000000
192.904000 112.401000 -1686.060000 -0.815517 -0.475945 -0.329253 1.000000
191.846000 112.812000 -1684.500000 -0.816629 -0.473640 -0.329821 1.000000
190.973000 113.145000 -1682.810000 -0.818431 -0.471755 -0.328052 1.000000
190.178000 113.324000 -1681.050000 -0.821025 -0.470164 -0.323826 1.000000
189.113000 114.686000 -1680.190000 -0.818773 -0.478693 -0.316961 1.000000
188.057000 115.356000 -1678.720000 -0.819313 -0.482737 -0.309341 1.000000
186.978000 116.739000 -1677.910000 -0.816278 -0.492235 -0.302317 1.000000
186.040000 118.286000 -1677.230000 -0.812170 -0.502856 -0.295830 1.000000
185.158000 119.678000 -1676.220000 -0.802287 -0.517954 -0.296750 1.000000
183.835000 120.413000 -1675.020000 -0.792166 -0.532072 -0.298952 1.000000
182.619000 121.391000 -1673.870000 -0.781071 -0.547117 -0.300984 1.000000
181.584000 122.878000 -1673.200000 -0.768376 -0.563238 -0.303910 1.000000
180.274000 123.798000 -1672.120000 -0.757120 -0.577329 -0.305715 1.000000
176.122000 126.680000 -1668.900000 -0.726110 -0.615325 -0.306823 1.000000
175.230000 127.003000 -1667.210000 -0.728774 -0.619112 -0.292555 1.000000
174.523000 127.417000 -1665.460000 -0.730572 -0.622957 -0.279622 1.000000
172.995000 128.283000 -1664.650000 -0.731172 -0.624311 -0.274999 1.000000
171.790000 129.236000 -1663.480000 -0.732881 -0.624384 -0.270240 1.000000
170.875000 129.969000 -1661.950000 -0.734720 -0.623895 -0.266348 1.000000
169.718000 131.437000 -1661.450000 -0.738575 -0.619308 -0.266392 1.000000
168.608000 132.091000 -1660.010000 -0.741857 -0.615255 -0.266663 1.000000
167.539000 132.620000 -1658.490000 -0.739886 -0.613509 -0.275999 1.000000
166.483000 133.568000 -1657.180000 -0.732944 -0.615270 -0.290234 1.000000
165.026000 134.671000 -1656.550000 -0.726226 -0.619084 -0.298881 1.000000
164.094000 135.031000 -1654.900000 -0.718858 -0.618780 -0.316787 1.000000
162.859000 136.253000 -1654.050000 -0.710863 -0.623384 -0.325677 1.000000
161.568000 136.734000 -1652.700000 -0.702564 -0.623936 -0.342211 1.000000
160.191000 137.435000 -1651.540000 -0.693610 -0.625971 -0.356463 1.000000
158.786000 138.269000 -1650.500000 -0.685095 -0.628476 -0.368324 1.000000
157.484000 138.884000 -1649.210000 -0.691956 -0.618918 -0.371668 1.000000
156.193000 139.979000 -1648.280000 -0.698021 -0.615094 -0.366641 1.000000
155.136000 140.103000 -1646.670000 -0.705748 -0.602541 -0.372645 1.000000
153.876000 140.545000 -1645.270000 -0.714336 -0.593590 -0.370641 1.000000
152.686000 141.227000 -1643.910000 -0.723808 -0.587320 -0.362157 1.000000
151.461000 142.499000 -1643.130000 -0.728752 -0.593149 -0.342191 1.000000
150.207000 143.118000 -1641.790000 -0.732093 -0.595707 -0.330413 0.010000
149.013000 144.519000 -1641.200000 -0.722597 -0.613141 -0.319236 1.000000
147.769000 145.970000 -1641.490000 -0.710188 -0.636557 -0.300712 1.000000
146.831000 147.346000 -1642.470000 -0.693374 -0.666757 -0.273254 1.000000
145.810000 148.710000 -1643.380000 -0.671887 -0.702122 -0.235779 1.000000
145.088000 149.873000 -1644.740000 -0.643267 -0.740824 -0.193358 1.000000
143.798000 151.074000 -1645.540000 -0.629891 -0.755657 -0.179502 1.000000
142.880000 152.213000 -1646.800000 -0.615376 -0.769695 -0.169945 1.000000
141.587000 153.375000 -1647.650000 -0.602623 -0.782218 -0.158055 1.000000
140.494000 154.438000 -1648.830000 -0.574034 -0.809063 -0.126107 1.000000
138.878000 155.391000 -1648.370000 -0.551237 -0.829494 -0.089882 1.000000
137.095000 156.136000 -1648.340000 -0.513505 -0.857023 -0.042706 1.000000
136.066000 157.071000 -1649.680000 -0.451506 -0.892124 0.016057 1.000000
134.557000 157.770000 -1650.670000 -0.387139 -0.918941 0.075308 1.000000
133.778000 158.242000 -1652.370000 -0.377996 -0.924156 0.055263 1.000000
131.986000 158.840000 -1652.780000 -0.366691 -0.929136 0.047379 1.000000
130.183000 159.361000 -1653.240000 -0.348075 -0.936673 0.038567 1.000000
128.657000 159.696000 -1654.380000 -0.324115 -0.945924 0.013294 1.000000
127.445000 160.017000 -1655.850000 -0.290198 -0.956967 -0.000080 1.000000
126.078000 160.551000 -1657.110000 -0.266977 -0.963699 0.002817 1.000000
125.058000 161.027000 -1658.680000 -0.267880 -0.963289 0.017722 1.000000
125.239000 161.541000 -1660.540000 -0.272165 -0.960706 0.054494 1.000000
125.249000 161.121000 -1662.420000 -0.284727 -0.955202 0.080746 1.000000
124.197000 160.731000 -1664.000000 -0.326943 -0.944770 0.022774 1.000000
123.825000 161.102000 -1665.860000 -0.347884 -0.931346 -0.107575 0.010000
123.780000 161.449000 -1667.760000 -0.326291 -0.882983 -0.337455 1.000000
124.177000 161.700000 -1669.630000 -0.026276 -0.987983 -0.152313 1.000000
125.446000 161.893000 -1671.070000 0.091117 -0.995632 0.020385 1.000000
127.183000 161.883000 -1671.920000 0.041537 -0.998206 -0.043126 1.000000
128.932000 161.963000 -1672.740000 -0.063691 -0.979389 -0.191676 1.000000
130.570000 162.001000 -1673.770000 -0.052129 -0.989093 -0.137758 1.000000
132.144000 162.117000 -1674.880000 0.049316 -0.994426 0.093192 1.000000
133.828000 162.148000 -1675.830000 -0.014484 -0.993898 0.109346 1.000000
135.510000 161.600000 -1676.610000 -0.577323 -0.507560 -0.639594 1.000000
136.873000 160.833000 -1677.740000 -0.661796 -0.213341 -0.718688 1.000000
138.079000 159.975000 -1678.990000 -0.689812 -0.100641 -0.716960 1.000000
139.072000 159.034000 -1680.350000 0.035614 -0.772530 0.633979 1.000000
140.047000 157.911000 -1681.590000 0.053412 -0.731360 0.679897 1.000000
140.796000 156.698000 -1682.890000 0.083839 -0.693392 0.715667 1.000000
141.624000 155.464000 -1684.130000 0.093371 -0.673779 0.733010 1.000000
142.313000 154.156000 -1685.370000 0.104313 -0.653956 0.749306 1.000000
142.808000 152.778000 -1686.630000 0.116868 -0.634513 0.764025 1.000000
142.989000 151.373000 -1687.950000 0.131687 -0.616453 0.776302 1.000000
143.211000 149.935000 -1689.220000 0.134899 -0.604328 0.785232 1.000000
143.047000 148.479000 -1690.480000 0.141368 -0.594749 0.791384 1.000000
142.684000 147.018000 -1691.690000 0.145743 -0.589578 0.794454 1.000000
142.101000 145.603000 -1692.870000 0.150352 -0.588829 0.794150 1.000000
141.497000 144.187000 -1694.040000 0.146086 -0.592887 0.791924 1.000000
140.778000 142.790000 -1695.170000 0.133285 -0.601010 0.788050 1.000000
140.045000 141.379000 -1696.260000 0.130290 -0.614658 0.777959 1.000000
139.209000 139.988000 -1697.310000 0.129320 -0.627734 0.767611 1.000000
138.333000 138.606000 -1698.340000 0.129373 -0.640100 0.757321 1.000000
137.293000 137.281000 -1699.290000 0.130536 -0.651390 0.747430 1.000000
136.676000 135.941000 -1700.540000 0.131355 -0.663816 0.736270 1.000000
136.178000 134.510000 -1701.740000 0.132564 -0.676497 0.724416 1.000000
135.878000 133.111000 -1703.040000 0.134006 -0.689661 0.711625 1.000000
136.610000 131.911000 -1704.360000 0.135917 -0.702958 0.698124 1.000000
137.450000 130.751000 -1705.660000 0.140361 -0.716320 0.683509 0.010000
139.218000 130.469000 -1706.390000 0.148850 -0.723505 0.674080 1.000000
141.076000 130.390000 -1706.910000 0.161371 -0.728637 0.665618 1.000000
142.952000 130.390000 -1707.380000 0.178094 -0.733178 0.656302 1.000000
144.811000 130.303000 -1707.900000 0.196906 -0.737873 0.645579 1.000000
146.706000 130.381000 -1708.270000 0.216148 -0.739816 0.637144 1.000000
148.611000 130.544000 -1708.550000 0.235601 -0.739525 0.630551 1.000000
150.507000 130.902000 -1708.660000 0.255068 -0.735256 0.627964 1.000000
152.394000 131.311000 -1708.740000 0.275139 -0.728116 0.627810 1.000000
154.254000 131.838000 -1708.730000 0.279546 -0.731096 0.622377 1.000000
156.013000 132.591000 -1708.460000 0.269093 -0.737590 0.619314 1.000000
157.914000 132.899000 -1708.630000 0.250173 -0.750139 0.612132 1.000000
159.814000 133.068000 -1708.930000 0.213954 -0.769154 0.602184 1.000000
161.705000 133.190000 -1709.310000 0.147970 -0.796408 0.586378 1.000000
163.583000 133.238000 -1709.770000 0.032227 -0.832386 0.553258 1.000000
165.460000 133.283000 -1710.220000 -0.146652 -0.866815 0.476577 1.000000
167.345000 133.370000 -1710.640000 -0.290785 -0.868630 0.401156 1.000000
168.674000 132.244000 -1711.480000 -0.342662 -0.877893 0.334494 1.000000
169.674000 131.052000 -1712.630000 -0.374417 -0.888162 0.266422 1.000000
170.854000 130.227000 -1713.920000 -0.403055 -0.892370 0.203035 1.000000
172.345000 129.753000 -1715.050000 -0.424019 -0.891407 0.160005 1.000000
174.168000 129.629000 -1715.680000 -0.428088 -0.890508 0.154066 1.000000
175.293000 128.704000 -1716.950000 -0.449369 -0.884652 0.124332 1.000000
176.448000 127.699000 -1718.130000 -0.475323 -0.871864 0.117988 1.000000
176.932000 126.474000 -1719.540000 -0.507693 -0.856303 0.094831 1.000000
178.290000 125.530000 -1720.540000 -0.521562 -0.846201 0.109171 1.000000
179.989000 124.874000 -1721.190000 -0.519519 -0.842626 0.141708 1.000000
181.523000 123.990000 -1721.970000 -0.516913 -0.838683 0.171497 1.000000
183.171000 122.982000 -1721.910000 -0.486278 -0.844344 0.224982 1.000000
184.693000 121.848000 -1721.540000 -0.446306 -0.849947 0.280002 1.000000
186.295000 120.768000 -1721.560000 -0.411814 -0.852721 0.321365 1.000000
188.074000 120.167000 -1721.100000 -0.367251 -0.851724 0.373754 1.000000
189.763000 119.516000 -1721.780000 -0.409404 -0.843672 0.347285 1.000000
191.063000 118.348000 -1722.610000 -0.451946 -0.832988 0.319179 1.000000
192.757000 117.471000 -1722.300000 -0.546406 -0.799980 0.247935 1.000000
194.226000 116.591000 -1721.400000 -0.639868 -0.751051 0.162764 1.000000
195.513000 115.690000 -1720.280000 -0.714234 -0.695919 0.074609 1.000000
196.520000 114.476000 -1719.160000 -0.746052 -0.665138 0.031578 1.000000
197.632000 112.900000 -1719.290000 -0.753036 -0.657462 0.026089 1.000000
198.962000 111.952000 -1718.260000 -0.757982 -0.652078 0.016054 1.000000
200.240000 110.503000 -1718.220000 -0.758815 -0.651208 0.011350 1.000000
201.414000 109.062000 -1717.690000 -0.758114 -0.652108 0.004401 1.000000
