# .PCD v0.7 - Point Cloud Data file format
# 3 30 0
# 1 2 0
# 3 26 0
# 27 30 0
VERSION 0.7
FIELDS x y z normal_x normal_y normal_z curvature
SIZE 4 4 4 4 4 4 4
TYPE F F F F F F F
COUNT 1 1 1 1 1 1 1
WIDTH 30
HEIGHT 1
VIEWPOINT 0 0 0 1 0 0 0
POINTS 30
DATA ascii
186.129000 -54.660900 -1355.610000 -0.799650 -0.469139 -0.374791 0.010000
186.195000 -54.755500 -1356.080000 -0.898644 -0.419193 -0.129293 1.000000
186.231000 -54.773900 -1356.530000 -0.917796 -0.391479 -0.066299 1.000000
186.169000 -54.543000 -1356.940000 -0.924903 -0.376539 -0.052651 1.000000
186.107000 -54.312000 -1357.350000 -0.930417 -0.364899 -0.034242 1.000000
189.480000 -63.984000 -1351.860000 -0.668953 -0.159726 -0.725941 1.000000
189.376000 -63.569200 -1352.070000 -0.712701 -0.204128 -0.671110 0.010000
189.272000 -63.154400 -1352.280000 -0.760060 -0.230779 -0.607495 1.000000
189.145000 -62.721900 -1352.210000 -0.741228 -0.240842 -0.626559 1.000000
189.012000 -62.285100 -1352.080000 -0.699369 -0.253588 -0.668263 1.000000
188.879000 -61.848300 -1351.940000 -0.650507 -0.273340 -0.708608 1.000000
188.746000 -61.411500 -1351.810000 -0.596188 -0.298916 -0.745123 1.000000
188.736000 -61.139900 -1352.030000 -0.640378 -0.327490 -0.694742 1.000000
188.598000 -60.710200 -1352.170000 -0.633436 -0.366750 -0.681361 1.000000
188.438000 -60.310100 -1352.370000 -0.629585 -0.408184 -0.661066 1.000000
188.277000 -59.910000 -1352.570000 -0.619838 -0.451589 -0.641770 1.000000
188.117000 -59.509800 -1352.780000 -0.603642 -0.496459 -0.623814 1.000000
187.957000 -59.109700 -1352.980000 -0.599263 -0.512616 -0.614906 1.000000
187.796000 -58.709600 -1353.180000 -0.600132 -0.519275 -0.608436 1.000000
187.636000 -58.309400 -1353.380000 -0.600647 -0.526384 -0.601783 1.000000
187.477000 -57.917700 -1353.600000 -0.606516 -0.533616 -0.589399 1.000000
187.321000 -57.537400 -1353.840000 -0.620220 -0.540599 -0.568401 1.000000
187.186000 -57.204200 -1354.140000 -0.661522 -0.543830 -0.516369 1.000000
187.078000 -56.934600 -1354.520000 -0.739820 -0.534450 -0.408692 1.000000
186.970000 -56.664900 -1354.900000 -0.808095 -0.513772 -0.288133 1.000000
186.862000 -56.395200 -1355.270000 -0.857498 -0.485112 -0.171359 1.000000
186.755000 -56.125600 -1355.650000 -0.891808 -0.446998 -0.069793 1.000000
186.574000 -55.708200 -1355.610000 -0.872404 -0.459280 -0.167250 1.000000
186.387000 -55.278000 -1355.520000 -0.829278 -0.474537 -0.295150 1.000000
186.199000 -54.847700 -1355.440000 -0.765558 -0.482098 -0.426032 1.000000
