# .PCD v0.7 - Point Cloud Data file format
# 3 30 0
# 1 5 0
# 6 27 0
# 28 30 0
VERSION 0.7
FIELDS x y z normal_x normal_y normal_z curvature
SIZE 4 4 4 4 4 4 4
TYPE F F F F F F F
COUNT 1 1 1 1 1 1 1
WIDTH 30
HEIGHT 1
VIEWPOINT 0 0 0 1 0 0 0
POINTS 30
DATA ascii
193.624000 -46.064500 -1341.180000 -0.848491 0.363552 0.384568 0.010000
193.215000 -46.795300 -1341.420000 -0.836280 0.366554 0.407767 1.000000
193.785000 -46.180600 -1340.850000 0.456407 -0.167981 -0.873771 1.000000
194.354000 -45.566000 -1340.290000 -0.877549 0.335987 0.342082 1.000000
204.003000 -29.321000 -1334.670000 -0.906301 0.292947 -0.304632 1.000000
204.391000 -28.478100 -1335.070000 -0.922736 0.340349 -0.180889 1.000000
204.780000 -27.635100 -1335.470000 -0.924437 0.368245 -0.099056 1.000000
204.457000 -27.745500 -1336.350000 -0.884174 0.455752 0.102598 1.000000
204.080000 -27.929100 -1337.270000 -0.843691 0.508182 0.173021 0.010000
203.579000 -28.684300 -1337.530000 -0.820852 0.524878 0.225177 1.000000
203.057000 -29.534700 -1337.690000 -0.805735 0.529904 0.264562 1.000000
202.489000 -30.333000 -1337.930000 -0.794648 0.530830 0.294540 1.000000
201.908000 -31.117100 -1338.190000 -0.789294 0.525960 0.316829 1.000000
201.415000 -31.663900 -1338.820000 -0.796555 0.521935 0.305098 1.000000
200.958000 -32.115700 -1339.600000 -0.805486 0.523704 0.277357 1.000000
200.432000 -32.805700 -1339.980000 -0.811505 0.520256 0.266069 1.000000
199.869000 -33.628200 -1340.140000 -0.816897 0.514629 0.260454 1.000000
199.330000 -34.475100 -1340.200000 -0.821717 0.508888 0.256543 1.000000
198.810000 -35.340300 -1340.170000 0.314455 -0.174838 -0.933033 1.000000
198.307000 -36.208500 -1340.240000 -0.850976 0.463745 0.246538 1.000000
197.824000 -37.079600 -1340.410000 -0.869470 0.433206 0.237393 1.000000
197.361000 -37.962200 -1340.430000 -0.884861 0.404172 0.231657 1.000000
196.926000 -38.860300 -1340.280000 -0.897189 0.377167 0.229776 1.000000
196.540000 -39.781900 -1340.160000 -0.907688 0.351837 0.228722 1.000000
196.241000 -40.745800 -1340.130000 -0.916497 0.327317 0.229992 1.000000
195.900000 -41.686000 -1340.160000 0.596681 0.085031 -0.797961 1.000000
195.455000 -42.566700 -1340.380000 -0.922300 0.293296 0.251674 1.000000
195.009000 -43.450300 -1340.580000 -0.914577 0.292424 0.279352 1.000000
194.561000 -44.344600 -1340.720000 -0.891272 0.323711 0.317560 1.000000
194.109000 -45.230300 -1340.880000 -0.868433 0.348608 0.352558 1.000000
