# .PCD v0.7 - Point Cloud Data file format
# 5 116 0
# 1 15 0
# 16 53 0
# 54 76 0
# 77 100 0
# 101 116 0
VERSION 0.7
FIELDS x y z normal_x normal_y normal_z curvature
SIZE 4 4 4 4 4 4 4
TYPE F F F F F F F
COUNT 1 1 1 1 1 1 1
WIDTH 116
HEIGHT 1
VIEWPOINT 0 0 0 1 0 0 0
POINTS 116
DATA ascii
266.874000 -31.980300 -1671.800000 -0.913365 0.204138 -0.352267 0.010000
266.519000 -33.294700 -1671.930000 -0.913281 0.211851 -0.347903 1.000000
266.435000 -34.556400 -1672.450000 -0.911258 0.228708 -0.342492 1.000000
265.804000 -35.326200 -1671.510000 -0.912605 0.233148 -0.335848 1.000000
265.324000 -36.425200 -1670.850000 -0.913844 0.240562 -0.327137 1.000000
264.747000 -37.587900 -1670.420000 -0.915907 0.246956 -0.316428 1.000000
264.203000 -38.833200 -1670.260000 -0.919570 0.246740 -0.305795 1.000000
264.020000 -40.186600 -1670.190000 -0.924989 0.233814 -0.299544 1.000000
263.735000 -41.522900 -1670.120000 -0.930476 0.222224 -0.291257 1.000000
263.490000 -42.855700 -1670.310000 -0.933552 0.214513 -0.287168 1.000000
263.264000 -44.183900 -1670.540000 -0.934779 0.210056 -0.286470 0.897953
262.896000 -45.499800 -1670.600000 -0.934393 0.212661 -0.285807 1.000000
262.721000 -46.856500 -1670.590000 -0.933009 0.217478 -0.286702 1.000000
262.421000 -48.016700 -1671.250000 -0.929722 0.220988 -0.294587 1.000000
262.290000 -49.358000 -1671.490000 -0.927311 0.225432 -0.298788 1.000000
261.975000 -50.678400 -1671.660000 -0.925288 0.229466 -0.301971 1.000000
261.624000 -51.962000 -1671.340000 -0.925931 0.231244 -0.298626 1.000000
261.510000 -52.204900 -1670.980000 -0.927308 0.231796 -0.293888 0.470624
261.229000 -53.507000 -1671.290000 -0.926201 0.230656 -0.298245 1.000000
260.872000 -54.810400 -1671.080000 -0.927468 0.229015 -0.295561 1.000000
260.542000 -56.137800 -1671.110000 -0.928005 0.226400 -0.295888 1.000000
260.181000 -57.449000 -1670.960000 -0.928908 0.226374 -0.293062 1.000000
259.857000 -58.719600 -1671.350000 -0.928924 0.226988 -0.292534 1.000000
259.467000 -59.754400 -1670.540000 -0.932103 0.223009 -0.285395 1.000000
259.160000 -61.025400 -1670.140000 -0.935221 0.216204 -0.280387 1.000000
258.804000 -62.296200 -1670.500000 -0.938500 0.207989 -0.275607 1.000000
258.475000 -63.579700 -1670.840000 -0.935203 0.273950 -0.224382 1.000000
257.946000 -64.838000 -1670.930000 -0.922419 0.344805 -0.173935 1.000000
257.576000 -66.137300 -1671.140000 -0.903974 0.405841 -0.134626 1.000000
257.002000 -67.378700 -1671.140000 -0.885453 0.452131 -0.107477 1.000000
256.349000 -68.280100 -1670.340000 -0.877841 0.469264 -0.095846 1.000000
255.582000 -69.198500 -1669.680000 -0.872015 0.482854 -0.080262 0.010000
255.535000 -69.319200 -1668.320000 -0.884163 0.455502 -0.103792 1.000000
255.528000 -69.154700 -1666.960000 -0.895904 0.422556 -0.137120 1.000000
255.079000 -69.535900 -1665.730000 -0.902436 0.404815 -0.147426 1.000000
254.625000 -69.993900 -1664.520000 -0.907614 0.391269 -0.152135 1.000000
254.135000 -70.477000 -1663.340000 -0.911795 0.380544 -0.154325 1.000000
254.107000 -70.763200 -1662.000000 -0.916482 0.366477 -0.160483 1.000000
253.504000 -71.431700 -1660.970000 -0.918399 0.363069 -0.157241 1.000000
253.323000 -71.773200 -1659.660000 -0.916338 0.359880 -0.175532 1.000000
253.179000 -71.401100 -1658.350000 -0.916210 0.349567 -0.195861 1.000000
253.188000 -70.727400 -1657.160000 -0.918029 0.334843 -0.212372 1.000000
253.210000 -69.994900 -1656.000000 -0.921655 0.317143 -0.223544 1.000000
252.815000 -70.063100 -1654.690000 -0.918118 0.323057 -0.229549 1.000000
252.370000 -70.105300 -1653.400000 -0.913412 0.335726 -0.230147 1.000000
251.888000 -70.017000 -1652.120000 -0.910833 0.348437 -0.221304 1.000000
251.962000 -69.530000 -1650.850000 -0.912931 0.349091 -0.211408 1.000000
252.221000 -68.777100 -1649.740000 -0.919591 0.332140 -0.209845 1.000000
251.940000 -68.742600 -1648.400000 -0.915932 0.337037 -0.217887 1.000000
251.745000 -68.266300 -1647.130000 -0.916012 0.330163 -0.227848 1.000000
251.354000 -68.434400 -1645.830000 -0.909951 0.338042 -0.240244 1.000000
250.867000 -68.399700 -1644.550000 -0.908303 0.339806 -0.243961 1.000000
250.575000 -67.989400 -1643.280000 -0.908709 0.337349 -0.245852 0.706788
250.203000 -67.619000 -1642.020000 -0.908108 0.339054 -0.245727 1.000000
250.032000 -67.361800 -1640.680000 -0.906619 0.344449 -0.243714 1.000000
249.661000 -67.267000 -1639.370000 -0.904356 0.350219 -0.243900 1.000000
249.603000 -67.221200 -1638.010000 -0.908406 0.346559 -0.233868 1.000000
249.641000 -66.592700 -1636.790000 -0.916120 0.329552 -0.228297 1.000000
249.599000 -65.860600 -1635.640000 -0.921798 0.313407 -0.228176 1.000000
249.555000 -65.078500 -1634.510000 -0.925980 0.298149 -0.231663 1.000000
249.558000 -64.131800 -1633.530000 -0.929217 0.282615 -0.238085 1.000000
249.831000 -62.900200 -1633.000000 -0.930498 0.273558 -0.243595 1.000000
250.032000 -61.655100 -1632.470000 -0.930544 0.266294 -0.251347 1.000000
250.159000 -60.535100 -1631.690000 -0.928568 0.259536 -0.265336 1.000000
250.129000 -59.597500 -1630.700000 -0.923471 0.251195 -0.290003 1.000000
250.262000 -58.387100 -1630.070000 -0.916851 0.243957 -0.316021 1.000000
250.309000 -57.289100 -1629.260000 -0.905728 0.233265 -0.353898 1.000000
250.259000 -56.221400 -1628.410000 -0.888882 0.218836 -0.402491 1.000000
249.487000 -55.465800 -1627.570000 -0.863013 0.194144 -0.466387 1.000000
248.666000 -54.654900 -1626.830000 -0.827090 0.163249 -0.537839 0.010000
249.706000 -53.766400 -1626.850000 -0.829352 0.188608 -0.525929 1.000000
250.102000 -52.476000 -1627.070000 -0.829445 0.203383 -0.520247 1.000000
250.479000 -51.196700 -1627.380000 -0.837818 0.208267 -0.504664 1.000000
251.338000 -50.873000 -1628.390000 -0.876756 0.210631 -0.432358 1.000000
252.070000 -50.051200 -1629.210000 -0.910372 0.202828 -0.360670 1.000000
252.410000 -48.784500 -1629.590000 -0.929752 0.188065 -0.316532 1.000000
252.776000 -47.614300 -1630.200000 -0.954866 0.172551 -0.241780 1.000000
253.097000 -46.333200 -1630.560000 -0.962099 0.167450 -0.215233 1.000000
253.453000 -45.099900 -1631.030000 -0.957571 0.170727 -0.232184 1.000000
253.752000 -43.901200 -1631.620000 -0.953452 0.172500 -0.247332 1.000000
254.226000 -42.894100 -1632.410000 -0.949846 0.173840 -0.259946 1.000000
254.670000 -41.824000 -1633.140000 -0.947469 0.169339 -0.271341 1.000000
255.010000 -40.674400 -1633.800000 -0.946664 0.157602 -0.281051 1.000000
255.444000 -39.460900 -1634.260000 -0.947288 0.164020 -0.275214 1.000000
255.701000 -38.442100 -1635.130000 -0.949926 0.177461 -0.257192 1.000000
256.361000 -37.564900 -1635.950000 -0.952054 0.189262 -0.240360 1.000000
256.680000 -36.673000 -1636.940000 -0.953528 0.200989 -0.224472 1.000000
257.019000 -35.771000 -1637.910000 -0.953569 0.217939 -0.207868 1.000000
257.156000 -34.410600 -1637.860000 -0.944293 0.269609 -0.188739 1.000000
257.660000 -33.470700 -1638.720000 -0.936775 0.302036 -0.176713 1.000000
258.443000 -32.714900 -1639.550000 -0.924810 0.338363 -0.173888 1.000000
258.899000 -31.841000 -1640.500000 -0.911111 0.375264 -0.170449 1.000000
259.352000 -30.959500 -1641.440000 -0.896859 0.409734 -0.166618 0.010000
259.463000 -30.756900 -1642.790000 -0.895615 0.412480 -0.166537 1.000000
259.787000 -31.202200 -1644.040000 -0.902462 0.395997 -0.169556 1.000000
259.899000 -31.546400 -1645.360000 -0.908739 0.378456 -0.175967 1.000000
260.060000 -31.709000 -1646.710000 -0.911226 0.367662 -0.185720 1.000000
260.477000 -31.555700 -1648.000000 -0.906580 0.373396 -0.196691 1.000000
260.892000 -31.302800 -1649.280000 -0.900272 0.381391 -0.209883 1.000000
261.458000 -30.909800 -1650.460000 -0.891763 0.393239 -0.223877 1.000000
261.654000 -31.322900 -1651.750000 -0.902270 0.369375 -0.222420 1.000000
261.891000 -30.873000 -1653.020000 -0.906585 0.367161 -0.208077 1.000000
261.994000 -31.094200 -1654.370000 -0.915344 0.348517 -0.201699 1.000000
262.392000 -31.426100 -1655.630000 -0.923676 0.328389 -0.197441 1.000000
262.696000 -31.386000 -1656.970000 -0.930130 0.312582 -0.192746 1.000000
262.938000 -31.325200 -1658.310000 -0.933110 0.298465 -0.200561 1.000000
263.110000 -31.563600 -1659.650000 -0.934417 0.281427 -0.218323 1.000000
263.397000 -31.698800 -1660.980000 -0.933874 0.269336 -0.235240 1.000000
263.465000 -32.317500 -1662.200000 -0.935081 0.246988 -0.254207 1.000000
263.792000 -32.910500 -1663.390000 -0.934432 0.228312 -0.273333 1.000000
264.053000 -32.398500 -1664.630000 -0.928496 0.233724 -0.288564 1.000000
264.199000 -31.621500 -1665.740000 -0.922770 0.243120 -0.298979 1.000000
264.975000 -31.424100 -1666.850000 -0.919517 0.240339 -0.311008 1.000000
265.500000 -31.229300 -1668.100000 -0.917240 0.234470 -0.322016 1.000000
265.918000 -31.086700 -1669.400000 -0.915517 0.226938 -0.332157 1.000000
266.381000 -31.489600 -1670.620000 -0.914261 0.214541 -0.343655 1.000000
