# .PCD v0.7 - Point Cloud Data file format
# 4 92 0
# 1 3 0
# 4 18 0
# 19 59 0
# 60 92 0
VERSION 0.7
FIELDS x y z normal_x normal_y normal_z curvature
SIZE 4 4 4 4 4 4 4
TYPE F F F F F F F
COUNT 1 1 1 1 1 1 1
WIDTH 92
HEIGHT 1
VIEWPOINT 0 0 0 1 0 0 0
POINTS 92
DATA ascii
-24.211300 68.081100 -1635.140000 0.122995 -0.945824 0.300481 0.010000
-24.130200 67.199700 -1633.690000 -0.024943 -0.998870 -0.040458 1.000000
-24.013500 67.279700 -1631.660000 -0.103204 -0.977468 -0.184134 1.000000
-23.667000 67.225600 -1629.690000 -0.139512 -0.966011 -0.217622 1.000000
-22.860700 66.903100 -1627.850000 -0.135401 -0.966538 -0.217877 1.000000
-22.005800 66.627200 -1626.030000 -0.110225 -0.983586 -0.142862 1.000000
-20.908000 66.584800 -1624.320000 -0.036783 -0.998101 0.049401 1.000000
-19.810200 66.542400 -1622.600000 0.166536 -0.981151 0.098020 1.000000
-21.149900 66.375400 -1621.080000 -0.006251 -0.996601 0.082149 1.000000
-22.489600 66.208400 -1619.560000 -0.043730 -0.998838 -0.020234 1.000000
-23.879200 65.962700 -1618.090000 -0.097762 -0.984163 -0.147871 1.000000
-25.278600 65.701200 -1616.630000 -0.199836 -0.961013 -0.191101 1.000000
-25.351400 65.699900 -1614.850000 -0.265896 -0.946944 -0.180543 1.000000
-24.760900 65.828800 -1612.910000 -0.284649 -0.953175 -0.102142 1.000000
-24.008500 65.954600 -1611.030000 -0.260952 -0.964470 -0.041259 1.000000
-23.094300 66.077200 -1609.210000 -0.119332 -0.991010 -0.060498 1.000000
-22.882700 66.256800 -1607.460000 0.001141 -0.992292 0.123918 1.000000
-24.076300 66.550300 -1605.840000 -0.040551 -0.820913 0.569612 1.000000
-25.286700 66.846800 -1604.230000 0.640565 0.532431 -0.553348 1.000000
-26.581800 67.157600 -1602.690000 0.685921 0.487784 -0.539980 1.000000
-27.876900 67.468400 -1601.150000 0.538018 0.436128 -0.721339 1.000000
-27.905300 68.436100 -1599.360000 0.470320 0.486693 -0.736158 1.000000
-27.933700 69.403900 -1597.570000 0.414551 0.618995 -0.667078 1.000000
-27.935400 71.117200 -1596.590000 0.759209 0.546054 -0.354157 1.000000
-27.931800 72.979700 -1595.760000 0.830358 0.523325 -0.191407 1.000000
-27.913700 74.827800 -1594.910000 0.065664 -0.427761 0.901504 1.000000
-27.888300 76.668700 -1594.040000 -0.149327 -0.527632 0.836245 1.000000
-27.902300 78.410100 -1593.010000 -0.263313 -0.602208 0.753666 1.000000
-27.955800 80.052200 -1591.810000 -0.338350 -0.640409 0.689489 1.000000
-27.952000 81.642800 -1590.540000 0.723819 0.097961 -0.683001 1.000000
-27.833800 83.130700 -1589.160000 0.715474 -0.231838 -0.659051 1.000000
-27.716100 84.664400 -1587.840000 -0.429143 -0.533124 0.729119 1.000000
-27.601100 86.426700 -1586.820000 -0.353018 -0.409814 0.841089 1.000000
-27.486000 88.189000 -1585.810000 0.230256 0.199239 0.952516 1.000000
-18.304100 103.604000 -1587.750000 -0.392514 0.647611 -0.653095 1.000000
-18.014800 105.543000 -1588.300000 -0.134045 -0.742771 -0.655991 1.000000
-17.725400 107.482000 -1588.850000 -0.239106 -0.828687 -0.506069 0.010000
-17.411000 109.128000 -1589.970000 -0.253833 -0.711392 -0.655356 1.000000
-17.091600 110.715000 -1591.210000 -0.213720 -0.616871 -0.757492 1.000000
-16.764900 112.367000 -1592.350000 -0.200645 -0.540198 -0.817268 1.000000
-16.434500 114.050000 -1593.440000 -0.223897 -0.449826 -0.864596 1.000000
-16.094100 115.600000 -1594.700000 -0.306538 -0.383094 -0.871363 1.000000
-15.743800 117.015000 -1596.120000 -0.460653 -0.404153 -0.790227 1.000000
-15.391900 118.481000 -1597.490000 0.188905 -0.740105 0.645414 1.000000
-15.037100 120.047000 -1598.740000 -0.489806 -0.628590 -0.604123 1.000000
-14.756800 121.582000 -1600.030000 -0.440612 -0.620688 -0.648542 1.000000
-14.849500 122.965000 -1601.520000 -0.366887 -0.581783 -0.725894 1.000000
-14.942200 124.347000 -1603.010000 -0.297757 -0.446967 -0.843541 1.000000
-15.075100 125.841000 -1604.390000 -0.306882 -0.265454 -0.913979 1.000000
-15.208000 127.335000 -1605.770000 -0.377829 -0.459924 -0.803564 1.000000
-16.622300 128.419000 -1606.490000 -0.332313 -0.574803 -0.747776 1.000000
-18.293000 129.422000 -1607.080000 -0.169469 -0.533339 -0.828752 0.010000
-19.148500 129.069000 -1608.410000 0.821323 0.014495 -0.570280 1.000000
-19.596500 128.038000 -1610.100000 0.986800 -0.157806 0.036360 1.000000
-20.003800 126.932000 -1611.760000 0.955363 -0.230983 0.184194 1.000000
-20.370400 125.751000 -1613.380000 0.925945 -0.293502 0.237659 1.000000
-20.665200 124.510000 -1614.960000 0.895294 -0.372530 0.244272 1.000000
-20.816500 123.151000 -1616.470000 0.842345 -0.504770 0.188842 1.000000
-21.009100 121.730000 -1617.890000 0.880955 -0.414031 0.229120 1.000000
-21.408900 120.003000 -1618.890000 0.909454 -0.336092 0.244819 1.000000
-21.808600 118.276000 -1619.890000 0.898956 -0.297965 0.321085 1.000000
-22.167000 116.549000 -1620.910000 0.866204 -0.310684 0.391364 1.000000
-22.525300 114.821000 -1621.920000 0.306366 -0.432337 0.848071 1.000000
-22.646100 113.289000 -1623.240000 0.815740 -0.370202 0.444430 1.000000
-22.719400 111.795000 -1624.630000 0.311758 -0.496557 0.810085 1.000000
-22.751000 110.182000 -1625.860000 0.779121 -0.398201 0.484157 1.000000
-22.761900 108.509000 -1627.020000 0.769462 -0.381854 0.511972 1.000000
-22.774900 106.819000 -1628.150000 0.223047 -0.699841 0.678581 1.000000
-22.790000 105.110000 -1629.260000 0.741144 -0.357512 0.568235 1.000000
-22.767800 103.396000 -1630.360000 0.718940 -0.348967 0.601122 1.000000
-22.671200 101.671000 -1631.430000 0.085110 -0.412553 0.906949 1.000000
-22.358300 100.017000 -1632.450000 0.070062 -0.413302 0.907895 1.000000
-20.964600 98.715000 -1633.160000 0.245922 -0.474416 0.845252 1.000000
-19.570800 97.413100 -1633.870000 0.278739 -0.309138 0.909252 1.000000
-17.763300 96.482600 -1633.980000 0.240228 0.712350 -0.659430 1.000000
-15.955700 95.552100 -1634.090000 0.376961 0.581598 -0.720863 1.000000
-15.692500 94.157200 -1635.260000 0.642427 0.027457 -0.765855 1.000000
-15.738200 92.669500 -1636.650000 -0.442039 -0.064520 0.894672 1.000000
-15.740500 91.277700 -1638.130000 -0.543100 -0.131246 0.829347 1.000000
-15.721000 89.933700 -1639.660000 -0.621226 -0.215816 0.753327 1.000000
-15.814500 88.250600 -1640.480000 -0.657028 -0.218927 0.721377 1.000000
-16.021000 86.228300 -1640.590000 -0.670939 -0.143658 0.727464 1.000000
-16.182000 84.202000 -1640.680000 -0.667725 -0.074946 0.740626 1.000000
-16.252200 82.167700 -1640.710000 -0.665679 -0.031769 0.745562 1.000000
-16.477000 80.209500 -1640.610000 0.040944 0.410531 -0.910927 1.000000
-17.474300 78.631700 -1639.790000 -0.656443 0.138878 0.741482 1.000000
-18.471700 77.053900 -1638.980000 -0.644105 0.248691 0.723382 1.000000
-19.527800 75.517200 -1638.160000 -0.628396 0.358999 0.690100 1.000000
-20.583900 73.980500 -1637.350000 -0.628876 0.468246 0.620694 1.000000
-22.116500 72.735000 -1636.970000 0.017980 0.357929 -0.933576 1.000000
-23.744400 71.547900 -1636.680000 0.705957 -0.063550 0.705398 1.000000
-24.256800 69.923700 -1636.000000 0.181238 -0.932361 0.312819 1.000000
