# .PCD v0.7 - Point Cloud Data file format
# 2 30 0
# 1 26 0
# 27 30 0
VERSION 0.7
FIELDS x y z normal_x normal_y normal_z curvature
SIZE 4 4 4 4 4 4 4
TYPE F F F F F F F
COUNT 1 1 1 1 1 1 1
WIDTH 30
HEIGHT 1
VIEWPOINT 0 0 0 1 0 0 0
POINTS 30
DATA ascii
169.694000 61.171500 -1381.890000 -0.431357 0.564544 0.703719 0.010000
169.643000 60.784300 -1381.430000 -0.430174 0.559289 0.708623 1.000000
169.979000 61.356200 -1380.940000 -0.577595 0.467535 0.669175 1.000000
170.315000 61.928100 -1380.460000 0.200095 -0.248830 -0.947653 1.000000
170.651000 62.500000 -1379.980000 0.198171 -0.267234 -0.943035 1.000000
176.449000 77.964600 -1391.090000 -0.322402 0.459195 0.827766 1.000000
176.058000 77.306200 -1390.800000 -0.339289 0.478009 0.810179 1.000000
175.667000 76.647700 -1390.500000 -0.360326 0.500815 0.786987 1.000000
175.276000 75.989300 -1390.210000 -0.904301 0.402037 -0.143550 1.000000
174.889000 75.341000 -1389.890000 -0.745960 0.562664 -0.356303 1.000000
174.504000 74.695700 -1389.560000 -0.809531 0.566509 -0.154037 1.000000
174.119000 74.050400 -1389.240000 -0.301508 0.430097 0.850946 1.000000
173.823000 73.351000 -1388.940000 -0.790205 0.476760 0.385066 1.000000
173.598000 72.608300 -1388.680000 -0.781408 0.527592 0.333240 1.000000
173.373000 71.865600 -1388.420000 -0.745858 0.517009 0.419996 1.000000
173.128000 71.138500 -1388.130000 -0.712803 0.511127 0.480272 1.000000
172.845000 70.442700 -1387.800000 -0.684487 0.509213 0.521708 1.000000
172.563000 69.746800 -1387.470000 -0.663357 0.510383 0.547235 1.000000
172.280000 69.056300 -1387.140000 -0.646871 0.513367 0.563926 1.000000
172.002000 68.408300 -1386.720000 -0.627707 0.517368 0.581648 1.000000
171.724000 67.760300 -1386.300000 -0.589894 0.461158 0.662841 1.000000
171.447000 67.112300 -1385.880000 -0.587572 0.470601 0.658250 1.000000
171.204000 66.455100 -1385.460000 -0.613607 0.496257 0.614179 1.000000
170.967000 65.796700 -1385.030000 -0.584889 0.482557 0.651954 1.000000
170.729000 65.138300 -1384.600000 -0.609155 0.482738 0.629202 1.000000
170.534000 64.477900 -1384.160000 -0.436967 0.591338 0.677775 1.000000
170.360000 63.816600 -1383.710000 -0.604163 0.471772 0.642198 1.000000
170.187000 63.155200 -1383.250000 -0.587452 0.488335 0.645313 1.000000
170.018000 62.493900 -1382.800000 -0.602707 0.463737 0.649379 1.000000
169.856000 61.832700 -1382.340000 -0.432115 0.571249 0.697819 1.000000
