# .PCD v0.7 - Point Cloud Data file format
# 5 129 0
# 1 10 0
# 11 43 0
# 44 77 0
# 78 125 0
# 126 129 0
VERSION 0.7
FIELDS x y z normal_x normal_y normal_z curvature
SIZE 4 4 4 4 4 4 4
TYPE F F F F F F F
COUNT 1 1 1 1 1 1 1
WIDTH 129
HEIGHT 1
VIEWPOINT 0 0 0 1 0 0 0
POINTS 129
DATA ascii
-212.783000 -137.854000 -1421.230000 0.957385 0.270283 -0.101789 0.010000
-212.402000 -138.359000 -1419.920000 0.959826 0.260119 -0.105225 1.000000
-212.061000 -139.564000 -1419.180000 0.965707 0.232759 -0.115035 1.000000
-211.819000 -140.997000 -1419.080000 0.973953 0.186169 -0.129446 1.000000
-211.477000 -142.384000 -1418.800000 0.974655 0.172753 -0.142137 1.000000
-210.398000 -144.540000 -1416.160000 0.970357 0.189138 -0.150445 1.000000
-210.182000 -145.893000 -1415.670000 0.970087 0.191281 -0.149475 1.000000
-209.845000 -147.279000 -1415.370000 0.969940 0.194484 -0.146260 1.000000
-209.453000 -148.616000 -1414.950000 0.968738 0.200157 -0.146576 1.000000
-209.167000 -150.033000 -1414.780000 0.967226 0.207116 -0.146888 1.000000
-208.877000 -151.456000 -1414.670000 0.965536 0.214197 -0.147848 1.000000
-208.566000 -152.526000 -1413.730000 0.964118 0.216394 -0.153786 1.000000
-208.205000 -153.916000 -1413.490000 0.963153 0.218816 -0.156384 1.000000
-207.863000 -155.252000 -1413.020000 0.961191 0.223520 -0.161711 1.000000
-207.168000 -156.401000 -1412.460000 0.958010 0.231286 -0.169480 0.010000
-206.722000 -157.770000 -1412.240000 0.953783 0.240654 -0.179953 1.000000
-206.608000 -159.171000 -1412.620000 0.950576 0.246487 -0.188812 1.000000
-206.535000 -160.270000 -1413.570000 0.949753 0.246858 -0.192435 1.000000
-206.538000 -160.814000 -1414.920000 0.951883 0.241643 -0.188485 1.000000
-206.661000 -161.581000 -1416.150000 0.953334 0.239276 -0.184122 1.000000
-206.592000 -162.667000 -1417.120000 0.951333 0.249386 -0.181032 1.000000
-206.449000 -163.690000 -1418.150000 0.946513 0.272497 -0.172798 1.000000
-206.473000 -164.583000 -1419.300000 0.942465 0.293865 -0.159385 1.000000
-206.769000 -164.552000 -1420.720000 0.947150 0.289644 -0.137889 1.000000
-206.882000 -164.637000 -1422.170000 0.949981 0.290058 -0.115769 1.000000
-206.860000 -165.463000 -1423.370000 0.942401 0.313241 -0.117307 1.000000
-206.908000 -165.825000 -1424.780000 0.938834 0.321129 -0.124368 1.000000
-207.273000 -165.768000 -1426.190000 0.941554 0.310021 -0.131768 1.000000
-207.227000 -166.212000 -1427.570000 0.939743 0.309700 -0.144808 1.000000
-207.324000 -166.834000 -1428.890000 0.937536 0.306707 -0.164183 1.000000
-207.394000 -167.400000 -1430.230000 0.937963 0.291003 -0.188528 1.000000
-207.367000 -168.109000 -1431.500000 0.934865 0.281069 -0.216860 1.000000
-207.212000 -169.038000 -1432.610000 0.932769 0.282669 -0.223699 1.000000
-206.994000 -170.027000 -1433.660000 0.929186 0.294788 -0.222965 1.000000
-207.035000 -170.732000 -1434.930000 0.930791 0.300141 -0.208672 1.000000
-206.847000 -171.820000 -1435.880000 0.924228 0.323172 -0.203380 1.000000
-207.210000 -172.546000 -1437.090000 0.930713 0.313723 -0.188019 1.000000
-207.261000 -173.200000 -1438.390000 0.935610 0.307418 -0.173574 1.000000
-207.270000 -173.667000 -1439.770000 0.940305 0.301125 -0.158585 1.000000
-207.288000 -174.079000 -1441.160000 0.944624 0.294394 -0.144977 1.000000
-207.342000 -174.412000 -1442.580000 0.948503 0.287099 -0.133852 1.000000
-207.338000 -175.021000 -1443.900000 0.949964 0.285858 -0.125913 1.000000
-207.251000 -175.755000 -1445.150000 0.950308 0.287671 -0.118994 1.000000
-207.621000 -175.726000 -1446.560000 0.954602 0.278527 -0.105626 1.000000
-207.571000 -176.334000 -1447.880000 0.955378 0.278724 -0.097802 1.000000
-207.732000 -176.696000 -1449.290000 0.957601 0.274268 -0.088195 1.000000
-207.696000 -176.227000 -1450.660000 0.961738 0.261991 -0.080134 1.000000
-207.715000 -176.123000 -1452.120000 0.963453 0.254216 -0.084457 0.010000
-208.187000 -175.183000 -1453.120000 0.966882 0.240775 -0.084655 1.000000
-208.653000 -173.987000 -1453.810000 0.970529 0.225234 -0.085697 1.000000
-208.825000 -173.296000 -1455.080000 0.971935 0.216437 -0.092180 1.000000
-209.296000 -172.106000 -1455.770000 0.974893 0.199190 -0.099531 1.000000
-209.661000 -170.907000 -1456.520000 0.977690 0.177871 -0.111734 1.000000
-209.799000 -170.413000 -1457.880000 0.974172 0.188700 -0.124019 1.000000
-210.046000 -169.539000 -1459.020000 0.969869 0.202729 -0.135114 1.000000
-210.277000 -168.958000 -1460.330000 0.968946 0.212172 -0.126989 1.000000
-210.581000 -167.804000 -1461.170000 0.968092 0.218894 -0.121997 1.000000
-211.057000 -166.503000 -1461.610000 0.967834 0.222955 -0.116570 1.000000
-211.566000 -165.337000 -1462.320000 0.968947 0.223066 -0.106690 1.000000
-211.814000 -164.567000 -1463.530000 0.973064 0.209814 -0.095519 1.000000
-212.005000 -164.049000 -1464.880000 0.975902 0.201452 -0.083857 1.000000
-212.203000 -163.461000 -1466.200000 0.978237 0.194370 -0.072617 1.000000
-212.401000 -162.596000 -1467.350000 0.980196 0.187468 -0.063815 1.000000
-212.688000 -161.604000 -1468.380000 0.981061 0.182640 -0.064520 1.000000
-212.887000 -160.729000 -1469.530000 0.980481 0.182199 -0.073901 1.000000
-213.232000 -159.664000 -1470.460000 0.979552 0.182885 -0.083850 1.000000
-213.769000 -158.721000 -1471.430000 0.981090 0.168584 -0.095086 1.000000
-214.352000 -157.598000 -1472.150000 0.984371 0.141631 -0.104667 1.000000
-214.669000 -157.073000 -1473.470000 0.984810 0.131709 -0.113148 1.000000
-214.632000 -156.163000 -1474.600000 0.986428 0.110152 -0.121764 1.000000
-214.648000 -155.037000 -1475.530000 0.988280 0.080438 -0.129736 1.000000
-214.742000 -154.199000 -1476.710000 0.988526 0.058753 -0.139155 1.000000
-214.765000 -153.443000 -1477.960000 0.992808 0.053953 -0.106873 1.000000
-214.928000 -152.091000 -1478.470000 0.991533 0.099086 -0.083932 1.000000
-214.866000 -151.326000 -1479.710000 0.991685 0.119520 -0.047700 1.000000
-214.884000 -150.877000 -1481.100000 0.991455 0.129316 -0.017139 1.000000
-215.379000 -149.858000 -1482.010000 0.986949 0.161021 0.001785 1.000000
-215.572000 -148.946000 -1483.130000 0.982077 0.187390 0.020235 1.000000
-215.953000 -147.846000 -1484.000000 0.975598 0.217117 0.032686 1.000000
-216.231000 -146.644000 -1484.780000 0.973380 0.226226 0.036774 1.000000
-216.624000 -145.326000 -1485.260000 0.968743 0.246341 0.029205 1.000000
-216.978000 -143.927000 -1485.070000 0.962652 0.270714 0.003883 0.010000
-217.530000 -142.687000 -1484.540000 0.960179 0.277515 -0.032276 1.000000
-217.592000 -141.466000 -1483.750000 0.963328 0.261234 -0.061292 1.000000
-217.601000 -140.757000 -1482.480000 0.967806 0.241123 -0.072187 1.000000
-217.825000 -139.472000 -1481.830000 0.968328 0.234865 -0.084729 1.000000
-217.671000 -139.293000 -1480.390000 0.971223 0.225584 -0.076403 1.000000
-217.578000 -139.387000 -1478.940000 0.973043 0.221183 -0.065302 1.000000
-217.531000 -139.506000 -1477.490000 0.973582 0.222146 -0.052809 1.000000
-217.292000 -139.010000 -1476.140000 0.971983 0.232544 -0.034225 1.000000
-217.038000 -138.925000 -1474.710000 0.967371 0.252186 -0.024403 1.000000
-217.317000 -139.272000 -1473.330000 0.957915 0.281894 -0.054166 1.000000
-217.235000 -138.936000 -1471.910000 0.946600 0.314848 -0.069427 1.000000
-216.978000 -139.227000 -1470.510000 0.936417 0.337330 -0.096600 1.000000
-217.039000 -139.661000 -1469.120000 0.927960 0.352614 -0.120637 1.000000
-217.010000 -139.410000 -1467.690000 0.913758 0.384275 -0.131832 1.000000
-216.905000 -139.790000 -1466.290000 0.907706 0.393378 -0.146029 1.000000
-216.851000 -139.360000 -1464.900000 0.897596 0.425612 -0.114790 1.000000
-216.690000 -139.348000 -1463.450000 0.896523 0.433861 -0.089507 1.000000
-216.604000 -138.572000 -1462.220000 0.903228 0.423077 -0.072004 1.000000
-216.620000 -138.695000 -1460.770000 0.907809 0.416058 -0.052711 1.000000
-216.310000 -138.500000 -1459.360000 0.920933 0.387931 -0.037315 1.000000
-215.943000 -138.394000 -1457.950000 0.932865 0.359558 -0.021925 1.000000
-216.312000 -137.887000 -1456.640000 0.956474 0.289932 -0.033116 1.000000
-216.313000 -138.124000 -1455.200000 0.960542 0.275337 -0.039363 1.000000
-215.920000 -137.858000 -1453.830000 0.967077 0.249398 -0.050616 1.000000
-215.861000 -138.324000 -1452.450000 0.963592 0.261682 -0.054880 1.000000
-215.787000 -138.616000 -1451.030000 0.959457 0.274873 -0.062340 1.000000
-215.604000 -138.427000 -1449.590000 0.960784 0.268659 -0.068674 1.000000
-215.491000 -137.913000 -1448.240000 0.966891 0.245542 -0.069502 1.000000
-215.416000 -138.645000 -1446.980000 0.948780 0.305541 -0.080383 1.000000
-215.495000 -138.006000 -1445.670000 0.960168 0.265036 -0.088501 1.000000
-215.652000 -137.127000 -1444.520000 0.971791 0.214969 -0.097010 1.000000
-215.573000 -136.882000 -1443.090000 0.971560 0.209235 -0.110868 1.000000
-215.323000 -137.119000 -1441.680000 0.964385 0.232016 -0.127003 1.000000
-215.045000 -137.413000 -1440.280000 0.954832 0.259894 -0.144053 1.000000
-214.841000 -137.527000 -1438.840000 0.946610 0.279685 -0.160331 1.000000
-214.868000 -137.697000 -1437.390000 0.939869 0.298765 -0.165486 1.000000
-214.768000 -137.307000 -1436.000000 0.941380 0.302360 -0.149607 1.000000
-214.581000 -136.939000 -1434.600000 0.940577 0.311424 -0.135391 1.000000
-214.415000 -136.612000 -1433.190000 0.938409 0.322600 -0.123766 1.000000
-214.576000 -136.360000 -1431.770000 0.935691 0.333403 -0.115430 1.000000
-214.277000 -136.222000 -1430.350000 0.933576 0.340138 -0.112881 1.000000
-214.006000 -136.147000 -1428.920000 0.933736 0.339061 -0.114782 1.000000
-213.762000 -136.008000 -1427.490000 0.935948 0.332590 -0.115696 1.000000
-213.400000 -136.190000 -1426.090000 0.940466 0.320536 -0.113051 1.000000
-212.600000 -137.077000 -1425.260000 0.950336 0.291906 -0.107949 1.000000
-213.242000 -137.477000 -1424.010000 0.953042 0.283430 -0.106666 1.000000
-212.951000 -137.965000 -1422.670000 0.957960 0.267118 -0.104699 1.000000
