# .PCD v0.7 - Point Cloud Data file format
# 3 134 0
# 1 96 0
# 97 132 0
# 133 134 0
VERSION 0.7
FIELDS x y z normal_x normal_y normal_z curvature
SIZE 4 4 4 4 4 4 4
TYPE F F F F F F F
COUNT 1 1 1 1 1 1 1
WIDTH 134
HEIGHT 1
VIEWPOINT 0 0 0 1 0 0 0
POINTS 134
DATA ascii
36.183300 149.578000 -1716.670000 0.003841 0.294097 0.955768 0.010000
35.705700 151.171000 -1717.820000 -0.049921 0.339410 0.939313 1.000000
35.219000 152.751000 -1718.990000 -0.132000 0.426060 0.895013 1.000000
15.207200 95.132800 -1737.580000 -0.643982 0.450208 -0.618547 1.000000
14.574100 93.260500 -1738.020000 -0.617562 0.520794 -0.589399 1.000000
13.909300 91.410300 -1738.500000 -0.576425 0.595645 -0.559412 1.000000
13.149200 89.625900 -1739.080000 -0.524300 0.657152 -0.541535 1.000000
12.421000 87.804600 -1739.570000 -0.486617 0.680823 -0.547434 1.000000
11.724700 85.946400 -1739.970000 -0.495686 0.651315 -0.574530 1.000000
10.971500 84.120700 -1740.410000 -0.503792 0.613327 -0.608296 1.000000
10.199500 82.305900 -1740.870000 -0.506524 0.577158 -0.640563 1.000000
9.453850 80.468000 -1741.280000 -0.501377 0.553944 -0.664656 1.000000
8.744910 78.608400 -1741.630000 -0.498611 0.583982 -0.640587 1.000000
8.145970 76.683400 -1741.810000 -0.499609 0.631641 -0.592807 1.000000
7.531390 74.762100 -1741.980000 -0.498298 0.665849 -0.555287 1.000000
6.901160 72.844400 -1742.140000 -0.580416 -0.332867 0.743180 1.000000
6.343680 70.903200 -1742.080000 -0.544170 -0.276296 0.792174 1.000000
5.810440 68.954100 -1741.960000 -0.510169 -0.209110 0.834267 1.000000
5.306350 67.002300 -1741.770000 -0.477316 -0.133608 0.868515 1.000000
4.816170 65.051900 -1741.550000 -0.445796 -0.051756 0.893637 1.000000
4.367750 63.106000 -1741.210000 -0.419212 0.032532 0.907305 1.000000
3.928420 61.164300 -1740.850000 -0.398161 0.116616 0.909873 1.000000
3.498170 59.226600 -1740.450000 -0.385222 0.196946 0.901563 1.000000
3.068060 57.299400 -1740.000000 -0.383474 0.270507 0.883048 1.000000
2.637990 55.375700 -1739.540000 -0.397068 0.334734 0.854570 1.000000
2.574070 53.669900 -1738.450000 -0.453786 0.357652 0.816188 1.000000
2.619440 52.099700 -1737.230000 -0.539531 0.306154 0.784331 1.000000
2.992690 50.936700 -1735.620000 -0.594938 0.280138 0.753374 1.000000
3.664770 49.786700 -1734.130000 -0.627405 0.252280 0.736693 1.000000
4.635690 48.649700 -1732.760000 -0.639922 0.215715 0.737541 1.000000
5.613210 47.535200 -1731.390000 -0.638440 0.162110 0.752406 1.000000
6.592940 46.428300 -1730.000000 -0.623336 0.097652 0.775833 1.000000
7.684170 45.571700 -1728.530000 -0.699752 0.046445 0.712874 1.000000
8.778150 44.720600 -1727.050000 -0.775866 0.009810 0.630822 1.000000
9.880380 43.885900 -1725.570000 -0.837982 -0.016651 0.545444 1.000000
10.986100 43.068000 -1724.090000 -0.884016 -0.039190 0.465811 1.000000
12.095300 42.266800 -1722.600000 -0.915185 -0.062782 0.398114 1.000000
13.215600 41.489300 -1721.100000 -0.916159 -0.091515 0.390228 1.000000
14.339600 40.719800 -1719.600000 -0.884078 -0.108332 0.454611 1.000000
15.485000 40.004000 -1718.090000 -0.854325 -0.096910 0.510625 1.000000
16.635700 39.306600 -1716.580000 -0.826632 -0.054965 0.560053 1.000000
17.801900 38.664100 -1715.060000 -0.794717 0.017378 0.606731 1.000000
18.976300 38.052500 -1713.520000 -0.751360 0.113292 0.650095 1.000000
20.158900 37.471600 -1711.990000 -0.691262 0.221075 0.687956 1.000000
21.344100 36.892700 -1710.450000 -0.707346 0.340424 0.619494 1.000000
22.530300 36.314400 -1708.920000 -0.737369 0.423243 0.526452 1.000000
23.742300 35.811000 -1707.370000 -0.765719 0.468039 0.441151 1.000000
24.953100 35.304000 -1705.830000 -0.794448 0.485073 0.365455 1.000000
26.159800 34.786500 -1704.290000 -0.822730 0.482348 0.300759 1.000000
27.377700 34.301700 -1702.750000 -0.850300 0.464778 0.246922 1.000000
28.606800 33.849600 -1701.210000 -0.870004 0.439724 0.223016 1.000000
29.629800 33.960600 -1699.500000 -0.853811 0.422955 0.303506 1.000000
30.584100 34.259300 -1697.740000 -0.815706 0.416231 0.401717 1.000000
31.524400 34.878300 -1696.060000 -0.752770 0.414443 0.511443 1.000000
32.464500 35.509400 -1694.380000 -0.664305 0.417991 0.619663 1.000000
33.404100 36.177100 -1692.710000 -0.567377 0.419207 0.708766 1.000000
34.343000 36.859600 -1691.060000 -0.559715 0.430831 0.707887 1.000000
35.281200 37.556800 -1689.400000 -0.696053 0.453574 0.556580 1.000000
36.223400 38.314000 -1687.780000 -0.837433 0.436687 0.328649 1.000000
37.166900 39.091200 -1686.170000 -0.925697 0.368785 0.084162 1.000000
38.330200 40.240000 -1684.970000 -0.953490 0.290343 -0.080978 1.000000
39.489600 41.403200 -1683.790000 -0.954670 0.223322 -0.196808 1.000000
40.637300 42.609400 -1682.640000 -0.945611 0.168943 -0.277990 1.000000
41.562500 43.936100 -1681.450000 -0.931519 0.120605 -0.343113 1.000000
42.265100 45.383400 -1680.220000 -0.914397 0.076361 -0.397552 1.000000
42.876200 46.918800 -1679.050000 -0.897018 0.037820 -0.440373 1.000000
43.456800 48.483600 -1677.900000 -0.880268 0.004391 -0.474456 1.000000
44.027100 50.044000 -1676.750000 0.413284 0.159127 0.896591 1.000000
44.701600 51.624500 -1675.720000 0.410548 0.140411 0.900964 1.000000
45.688800 53.265700 -1675.060000 0.413766 0.117473 0.902772 1.000000
45.559700 54.816400 -1674.410000 0.405478 0.097579 0.908882 1.000000
44.314400 56.276600 -1673.760000 0.381776 0.079756 0.920807 1.000000
42.880300 57.557700 -1673.150000 0.347145 0.063703 0.935645 1.000000
41.383300 58.779200 -1672.540000 0.294283 0.048279 0.954498 1.000000
41.873800 60.728400 -1672.790000 0.308853 0.013095 0.951020 1.000000
42.364300 62.668200 -1673.080000 0.324174 -0.020836 0.945768 1.000000
42.854600 64.579700 -1673.530000 0.341671 -0.052426 0.938356 1.000000
43.457800 66.480400 -1673.820000 0.361279 -0.081349 0.928902 1.000000
44.173800 68.370400 -1673.940000 0.383050 -0.106791 0.917534 1.000000
44.944500 70.238000 -1674.060000 0.407752 -0.109606 0.906490 1.000000
45.733400 72.098100 -1674.190000 0.426466 -0.115383 0.897114 1.000000
47.286200 73.343600 -1674.560000 0.451407 -0.121735 0.883976 1.000000
48.297000 74.739700 -1674.700000 0.463709 -0.134043 0.875789 1.000000
47.681800 76.587400 -1674.140000 0.447550 -0.149961 0.881596 1.000000
46.814100 78.268300 -1673.500000 0.413905 -0.152657 0.897429 1.000000
45.693900 79.782300 -1672.750000 0.345434 -0.118705 0.930905 1.000000
44.476000 81.174800 -1671.940000 0.213601 -0.010180 0.976868 1.000000
43.225700 82.526700 -1671.100000 0.317350 -0.100855 0.942930 1.000000
43.427100 84.530600 -1670.890000 0.376998 -0.165470 0.911313 1.000000
43.592500 86.536600 -1670.790000 0.294480 -0.108705 0.949455 1.000000
43.649700 88.549200 -1671.000000 -0.299192 0.593039 0.747522 1.000000
43.714200 90.566000 -1671.150000 -0.429633 0.223796 -0.874832 1.000000
43.786100 92.587000 -1671.250000 -0.470539 0.117965 -0.874458 1.000000
44.069500 94.522400 -1670.830000 -0.492756 0.016305 -0.870015 1.000000
44.423500 96.429200 -1670.250000 -0.512082 -0.080817 -0.855126 1.000000
44.658300 98.425100 -1670.010000 -0.517095 -0.164381 -0.839995 1.000000
44.898900 100.414000 -1669.720000 -0.013562 0.284935 0.958451 1.000000
45.157000 102.381000 -1669.320000 -0.007576 0.308880 0.951071 1.000000
45.059000 103.852000 -1669.970000 -0.012374 0.335504 0.941957 0.010000
44.604800 104.827000 -1671.690000 -0.485203 -0.311111 -0.817183 1.000000
44.284500 105.924000 -1673.360000 -0.479345 -0.312867 -0.819965 1.000000
44.008800 107.061000 -1675.010000 -0.473474 -0.318237 -0.821308 0.499646
44.569300 107.283000 -1676.940000 -0.479961 -0.314414 -0.819012 1.000000
45.340500 107.501000 -1678.750000 -0.070951 0.495861 0.865499 1.000000
46.743700 107.703000 -1680.200000 -0.070206 0.506276 0.859509 1.000000
48.292300 107.816000 -1681.470000 -0.071253 0.511559 0.856289 1.000000
49.986200 107.840000 -1682.580000 -0.074788 0.510039 0.856894 1.000000
49.955600 108.564000 -1684.120000 -0.095867 0.558857 0.823704 1.000000
49.350200 109.522000 -1685.800000 -0.116413 0.621651 0.774596 1.000000
49.037200 111.245000 -1686.810000 -0.127970 0.675424 0.726241 1.000000
48.715400 112.925000 -1687.890000 -0.124924 0.712602 0.690356 1.000000
48.367200 114.478000 -1689.140000 -0.104774 0.730338 0.675003 1.000000
48.009700 116.065000 -1690.340000 -0.065365 0.723714 0.686997 1.000000
47.642900 117.687000 -1691.500000 -0.004696 0.687769 0.725914 1.000000
47.321300 119.324000 -1692.640000 0.071079 0.628112 0.774870 1.000000
47.014800 120.967000 -1693.790000 0.140429 0.552362 0.821690 1.000000
46.620800 122.650000 -1694.840000 0.163963 0.465248 0.869862 1.000000
46.222900 124.282000 -1695.960000 0.140838 0.438038 0.887856 1.000000
45.813600 125.760000 -1697.280000 0.116456 0.421441 0.899347 1.000000
45.408000 127.346000 -1698.460000 0.087451 0.417126 0.904631 1.000000
45.006200 129.039000 -1699.490000 0.051606 0.427886 0.902358 1.000000
44.410500 130.536000 -1700.710000 0.004247 0.458198 0.888840 1.000000
43.750100 131.967000 -1701.980000 -0.058618 0.509190 0.858655 1.000000
42.889900 133.078000 -1703.430000 -0.147054 0.580779 0.800669 1.000000
42.086400 134.290000 -1704.820000 -0.264536 0.663055 0.700270 1.000000
41.452800 135.807000 -1706.010000 -0.381897 0.726679 0.571046 1.000000
40.817100 137.296000 -1707.220000 -0.369588 0.735021 0.568462 1.000000
40.179300 138.758000 -1708.470000 -0.277128 0.725919 0.629477 1.000000
39.579500 140.275000 -1709.660000 -0.200301 0.711508 0.673525 1.000000
38.992400 141.811000 -1710.840000 -0.156920 0.622829 0.766459 1.000000
38.369400 143.278000 -1712.090000 -0.107434 0.525102 0.844231 1.000000
37.753100 144.771000 -1713.310000 -0.060488 0.434742 0.898521 1.000000
37.156500 146.343000 -1714.440000 -0.019757 0.359529 0.932925 1.000000
36.633200 147.945000 -1715.560000 0.013270 0.302681 0.953000 1.000000
