# .PCD v0.7 - Point Cloud Data file format
# 5 154 0
# 1 20 0
# 21 47 0
# 48 101 0
# 102 136 0
# 137 154 0
VERSION 0.7
FIELDS x y z normal_x normal_y normal_z curvature
SIZE 4 4 4 4 4 4 4
TYPE F F F F F F F
COUNT 1 1 1 1 1 1 1
WIDTH 154
HEIGHT 1
VIEWPOINT 0 0 0 1 0 0 0
POINTS 154
DATA ascii
279.614000 -159.146000 -1652.300000 -0.978116 0.018591 -0.207227 0.010000
279.058000 -159.266000 -1650.560000 -0.985564 0.026404 -0.167232 1.000000
278.792000 -160.252000 -1649.030000 -0.989168 0.039460 -0.141384 1.000000
278.648000 -160.390000 -1647.200000 -0.992288 0.039381 -0.117535 1.000000
278.338000 -160.750000 -1645.420000 -0.994106 0.038401 -0.101385 1.000000
278.276000 -160.226000 -1643.660000 -0.993265 0.035253 -0.110369 1.000000
278.025000 -159.942000 -1641.870000 -0.990900 0.036047 -0.129682 1.000000
277.782000 -159.672000 -1640.060000 -0.987904 0.035372 -0.150981 1.000000
277.370000 -160.066000 -1638.320000 -0.984008 0.046117 -0.172049 1.000000
277.008000 -160.417000 -1636.550000 -0.980030 0.058574 -0.190025 1.000000
276.473000 -161.241000 -1635.000000 -0.975161 0.083362 -0.205209 1.000000
276.674000 -161.040000 -1633.180000 -0.973795 0.093135 -0.207484 1.000000
276.464000 -160.941000 -1631.360000 -0.974232 0.112753 -0.195345 1.000000
275.528000 -161.306000 -1629.820000 -0.977480 0.134120 -0.162923 1.000000
275.370000 -161.897000 -1628.090000 -0.978613 0.154588 -0.135718 1.000000
275.627000 -162.901000 -1626.570000 -0.977727 0.172660 -0.119329 1.000000
275.135000 -162.241000 -1624.920000 -0.981263 0.156830 -0.111921 1.000000
275.186000 -162.533000 -1623.110000 -0.981900 0.154473 -0.109592 1.000000
274.692000 -162.513000 -1621.340000 -0.982522 0.146562 -0.114764 1.000000
274.146000 -164.144000 -1620.060000 -0.981071 0.157371 -0.112843 1.000000
273.909000 -164.478000 -1618.270000 -0.979724 0.153833 -0.128357 1.000000
273.840000 -163.939000 -1616.520000 -0.979013 0.143282 -0.144930 1.000000
273.412000 -163.702000 -1614.740000 -0.977632 0.137485 -0.159165 1.000000
272.975000 -163.770000 -1612.960000 -0.975689 0.136345 -0.171583 1.000000
272.659000 -163.840000 -1611.150000 -0.973593 0.136601 -0.182912 1.000000
272.038000 -164.814000 -1609.720000 -0.970264 0.147340 -0.192039 1.000000
272.061000 -164.717000 -1607.890000 -0.968197 0.148233 -0.201549 1.000000
271.687000 -164.095000 -1606.200000 -0.967693 0.144204 -0.206821 1.000000
271.630000 -163.124000 -1604.640000 -0.967988 0.134526 -0.211901 1.000000
271.272000 -162.747000 -1602.880000 -0.967016 0.129601 -0.219279 1.000000
271.023000 -161.857000 -1601.290000 -0.966675 0.120127 -0.226071 1.000000
270.823000 -160.865000 -1599.750000 -0.966479 0.110502 -0.231750 1.000000
270.340000 -160.601000 -1598.000000 -0.965004 0.110067 -0.238020 1.000000
269.798000 -160.577000 -1596.240000 -0.963247 0.113027 -0.243681 1.000000
269.412000 -160.184000 -1594.490000 -0.962277 0.113605 -0.247219 1.000000
268.999000 -159.798000 -1592.740000 -0.961540 0.114683 -0.249576 1.000000
268.800000 -158.707000 -1591.280000 -0.962550 0.106095 -0.249480 1.000000
268.370000 -158.011000 -1589.630000 -0.963159 0.103232 -0.248330 1.000000
268.277000 -156.479000 -1588.620000 -0.966021 0.087965 -0.243033 0.010000
268.094000 -154.951000 -1587.610000 -0.968948 0.071817 -0.236607 1.000000
268.097000 -153.127000 -1587.390000 -0.971719 0.048593 -0.231087 1.000000
268.187000 -151.293000 -1587.470000 -0.973301 0.022815 -0.228396 1.000000
268.349000 -149.520000 -1587.920000 -0.973149 -0.005037 -0.230122 1.000000
268.294000 -147.709000 -1587.610000 -0.972064 -0.032121 -0.232508 1.000000
268.281000 -145.903000 -1587.270000 -0.969891 -0.057123 -0.236745 1.000000
267.987000 -144.222000 -1586.590000 -0.966923 -0.080353 -0.242083 1.000000
267.526000 -142.582000 -1585.900000 -0.963074 -0.102467 -0.248975 1.000000
267.402000 -140.761000 -1586.120000 -0.959119 -0.112591 -0.259643 1.000000
267.162000 -138.953000 -1586.350000 -0.962930 -0.084019 -0.256333 1.000000
266.822000 -137.148000 -1586.400000 -0.965992 -0.050255 -0.253641 1.000000
266.590000 -135.329000 -1586.280000 -0.968000 -0.014522 -0.250528 1.000000
266.942000 -133.588000 -1585.810000 -0.969473 0.019386 -0.244430 1.000000
266.706000 -132.069000 -1584.800000 -0.972627 0.048976 -0.227152 1.000000
266.601000 -130.353000 -1584.150000 -0.973231 0.067645 -0.219650 1.000000
266.683000 -128.590000 -1583.640000 -0.971421 0.056695 -0.230492 1.000000
266.894000 -126.765000 -1583.690000 -0.968845 0.047800 -0.243010 1.000000
266.440000 -125.087000 -1583.100000 -0.967256 0.033849 -0.251534 1.000000
266.799000 -123.338000 -1583.530000 -0.965898 0.024507 -0.257760 1.000000
267.142000 -121.597000 -1584.010000 -0.966820 0.012595 -0.255148 1.000000
267.434000 -119.838000 -1584.460000 -0.967680 0.001449 -0.252179 1.000000
267.094000 -118.145000 -1583.830000 -0.965626 -0.009532 -0.259760 1.000000
266.964000 -116.348000 -1583.470000 -0.964321 -0.019162 -0.264042 1.000000
266.741000 -114.584000 -1583.010000 -0.962555 -0.026682 -0.269771 1.000000
266.336000 -113.083000 -1582.020000 -0.959015 -0.032063 -0.281534 1.000000
266.401000 -111.264000 -1582.280000 -0.958855 -0.034282 -0.281819 1.000000
266.647000 -109.680000 -1583.180000 -0.960599 -0.029393 -0.276380 0.010000
266.895000 -108.168000 -1584.190000 -0.962769 -0.017665 -0.269746 1.000000
267.250000 -107.335000 -1585.790000 -0.967709 -0.003499 -0.252047 1.000000
267.572000 -106.488000 -1587.390000 -0.974127 0.003381 -0.225977 1.000000
268.062000 -105.964000 -1589.080000 -0.977796 -0.005084 -0.209496 1.000000
268.447000 -105.187000 -1590.700000 -0.978170 -0.021469 -0.206692 1.000000
268.888000 -104.172000 -1592.170000 -0.976424 -0.048272 -0.210396 1.000000
269.190000 -103.377000 -1593.800000 -0.971315 -0.080173 -0.223874 1.000000
269.654000 -102.613000 -1595.410000 -0.963079 -0.115575 -0.243147 1.000000
270.029000 -101.800000 -1597.010000 -0.951347 -0.154528 -0.266569 1.000000
270.286000 -100.987000 -1598.640000 -0.935781 -0.186647 -0.299127 1.000000
270.698000 -100.446000 -1600.350000 -0.921057 -0.205180 -0.330991 1.000000
271.246000 -100.336000 -1602.100000 -0.911305 -0.202490 -0.358498 1.000000
271.356000 -99.542000 -1603.750000 -0.896972 -0.225429 -0.380295 1.000000
271.850000 -99.262400 -1605.500000 -0.890301 -0.220239 -0.398572 1.000000
271.919000 -98.358300 -1607.100000 -0.875341 -0.245136 -0.416758 1.000000
272.372000 -98.564500 -1608.870000 -0.882613 -0.207625 -0.421765 1.000000
272.569000 -98.258700 -1610.670000 -0.888969 -0.195083 -0.414339 1.000000
273.087000 -96.856300 -1611.740000 -0.871537 -0.246343 -0.423956 1.000000
273.802000 -95.407800 -1612.620000 -0.854779 -0.287593 -0.432023 1.000000
274.179000 -93.779900 -1613.380000 -0.832070 -0.332518 -0.443950 1.000000
275.427000 -93.709100 -1614.730000 -0.859205 -0.290978 -0.420831 1.000000
275.958000 -92.714300 -1616.180000 -0.862901 -0.292276 -0.412282 1.000000
276.458000 -91.858600 -1617.730000 -0.873436 -0.282657 -0.396504 1.000000
276.735000 -90.786000 -1619.190000 -0.882709 -0.295567 -0.365329 1.000000
276.932000 -90.516300 -1621.000000 -0.913239 -0.274389 -0.301174 1.000000
276.873000 -89.774800 -1622.680000 -0.928383 -0.276239 -0.248590 1.000000
276.718000 -89.009700 -1624.350000 -0.940313 -0.278864 -0.195054 1.000000
276.662000 -88.533300 -1626.120000 -0.956167 -0.263899 -0.126891 1.000000
277.065000 -88.076800 -1627.850000 -0.968149 -0.243751 -0.057210 1.000000
277.176000 -87.837500 -1629.670000 -0.979933 -0.197605 -0.026147 1.000000
277.846000 -88.195100 -1631.350000 -0.994309 -0.104877 -0.018711 1.000000
278.178000 -88.480200 -1633.130000 -0.999509 -0.006320 -0.030681 1.000000
277.873000 -88.395400 -1634.940000 -0.994880 0.074667 -0.068109 1.000000
277.621000 -88.851300 -1636.710000 -0.982863 0.155255 -0.099384 1.000000
278.737000 -88.413300 -1638.100000 -0.969863 0.181502 -0.162551 1.000000
277.460000 -88.454800 -1639.420000 -0.963074 0.187743 -0.192979 1.000000
277.921000 -88.750300 -1641.170000 -0.949590 0.210890 -0.231955 1.000000
279.605000 -89.201100 -1641.750000 -0.941587 0.229274 -0.246672 1.000000
279.470000 -88.957300 -1643.570000 -0.924079 0.275221 -0.265202 1.000000
279.958000 -89.515100 -1645.250000 -0.917029 0.300633 -0.262063 1.000000
280.431000 -90.141100 -1646.920000 -0.910464 0.327271 -0.252880 1.000000
279.908000 -90.748000 -1648.570000 -0.910588 0.341633 -0.232628 1.000000
280.210000 -91.561200 -1650.190000 -0.905891 0.366506 -0.212216 1.000000
280.387000 -92.323000 -1651.850000 -0.912162 0.344504 -0.221988 1.000000
281.018000 -92.175100 -1653.570000 -0.891932 0.378786 -0.246937 1.000000
281.085000 -93.218300 -1655.080000 -0.906430 0.336433 -0.255339 1.000000
280.155000 -93.334900 -1656.670000 -0.908961 0.325895 -0.259966 1.000000
281.273000 -94.158800 -1657.870000 -0.910637 0.323438 -0.257155 1.000000
281.352000 -95.075400 -1659.460000 -0.924469 0.303631 -0.230575 1.000000
281.425000 -96.453000 -1660.680000 -0.951491 0.252288 -0.176111 1.000000
281.468000 -97.800500 -1661.920000 -0.974688 0.184693 -0.125981 1.000000
281.376000 -99.076200 -1663.240000 -0.987886 0.118458 -0.100242 1.000000
281.270000 -100.627000 -1664.230000 -0.993171 0.048874 -0.105938 1.000000
280.611000 -101.982000 -1665.280000 -0.990836 0.003074 -0.135035 0.010000
280.912000 -103.786000 -1665.460000 -0.985204 -0.014704 -0.170753 1.000000
281.428000 -105.549000 -1665.530000 -0.978679 -0.012020 -0.205046 1.000000
281.635000 -107.359000 -1665.770000 -0.970113 -0.021461 -0.241701 1.000000
281.834000 -109.054000 -1665.080000 -0.969173 -0.027376 -0.244855 1.000000
281.308000 -110.792000 -1664.800000 -0.966029 -0.042847 -0.254856 1.000000
281.248000 -112.542000 -1664.240000 -0.963853 -0.058892 -0.259843 1.000000
281.298000 -114.372000 -1664.080000 -0.955806 -0.081154 -0.282576 1.000000
281.316000 -116.207000 -1663.970000 -0.945132 -0.099451 -0.311184 1.000000
280.912000 -117.985000 -1663.740000 -0.936071 -0.107598 -0.334952 1.000000
281.525000 -119.626000 -1663.190000 -0.921839 -0.123909 -0.367233 1.000000
281.533000 -121.206000 -1662.250000 -0.916347 -0.125991 -0.380046 1.000000
282.144000 -122.881000 -1661.800000 -0.891421 -0.168963 -0.420500 1.000000
281.404000 -124.327000 -1660.940000 -0.898607 -0.181351 -0.399520 1.000000
280.416000 -125.563000 -1660.010000 -0.912439 -0.180412 -0.367296 1.000000
279.313000 -126.828000 -1659.260000 -0.920866 -0.182069 -0.344756 1.000000
279.295000 -128.400000 -1658.310000 -0.916766 -0.198265 -0.346744 1.000000
279.779000 -129.937000 -1657.420000 -0.906874 -0.209917 -0.365397 1.000000
281.098000 -131.216000 -1657.460000 -0.858528 -0.249428 -0.448013 1.000000
281.214000 -132.849000 -1656.620000 -0.853348 -0.211054 -0.476711 1.000000
280.999000 -134.650000 -1656.330000 -0.865948 -0.087274 -0.492460 1.000000
281.082000 -136.038000 -1655.130000 -0.898097 -0.013873 -0.439578 1.000000
280.604000 -137.811000 -1655.040000 -0.907646 0.046697 -0.417132 1.000000
279.729000 -139.392000 -1655.380000 -0.913162 0.082287 -0.399205 1.000000
281.238000 -140.419000 -1655.160000 -0.908715 0.100518 -0.405134 1.000000
280.466000 -142.031000 -1654.730000 -0.931193 0.099637 -0.350646 1.000000
280.253000 -143.852000 -1654.600000 -0.945671 0.091326 -0.312035 1.000000
279.586000 -145.564000 -1654.630000 -0.958451 0.070585 -0.276385 1.000000
279.631000 -147.377000 -1654.340000 -0.967405 0.026144 -0.251881 1.000000
280.089000 -149.070000 -1653.790000 -0.974967 -0.008708 -0.222179 1.000000
279.774000 -150.660000 -1652.920000 -0.983958 -0.034655 -0.175001 1.000000
279.595000 -152.384000 -1652.310000 -0.985515 -0.034986 -0.165938 1.000000
279.856000 -154.097000 -1652.920000 -0.981050 -0.032712 -0.190974 1.000000
279.992000 -155.819000 -1653.550000 -0.975368 -0.025190 -0.219140 1.000000
279.844000 -157.638000 -1653.330000 -0.974116 -0.005203 -0.225987 1.000000
