# .PCD v0.7 - Point Cloud Data file format
# 6 195 0
# 1 8 0
# 9 53 0
# 54 99 0
# 100 137 0
# 138 160 0
# 161 195 0
VERSION 0.7
FIELDS x y z normal_x normal_y normal_z curvature
SIZE 4 4 4 4 4 4 4
TYPE F F F F F F F
COUNT 1 1 1 1 1 1 1
WIDTH 195
HEIGHT 1
VIEWPOINT 0 0 0 1 0 0 0
POINTS 195
DATA ascii
80.995100 146.161000 -1410.260000 0.700900 -0.146574 -0.698036 0.010000
80.054000 145.585000 -1411.100000 0.701634 -0.136475 -0.699346 1.000000
79.149200 145.620000 -1412.150000 0.697920 -0.126210 -0.704967 1.000000
78.309900 146.240000 -1413.060000 0.690317 -0.118351 -0.713762 1.000000
77.435400 146.854000 -1413.940000 0.681509 -0.110745 -0.723381 1.000000
76.488200 147.334000 -1414.820000 0.671783 -0.102320 -0.733647 1.000000
75.579800 148.006000 -1415.620000 0.659494 -0.096133 -0.745537 1.000000
74.575700 147.721000 -1416.530000 0.651288 -0.081144 -0.754480 1.000000
73.581200 147.244000 -1417.370000 0.644092 -0.062824 -0.762364 1.000000
72.580000 147.412000 -1418.310000 0.636235 -0.053704 -0.769624 1.000000
71.581700 147.427000 -1419.270000 0.645026 -0.054308 -0.762228 1.000000
70.583100 147.468000 -1420.230000 0.654469 -0.054132 -0.754149 1.000000
69.570700 147.625000 -1421.160000 0.663864 -0.055177 -0.745815 1.000000
68.562600 147.725000 -1422.100000 0.673169 -0.054978 -0.737442 1.000000
67.555000 148.022000 -1423.000000 0.681519 -0.057983 -0.729499 1.000000
66.543700 148.272000 -1423.910000 0.689389 -0.060537 -0.721857 1.000000
65.514200 148.666000 -1424.750000 0.696274 -0.065360 -0.714794 1.000000
64.499300 148.546000 -1425.690000 0.702434 -0.065543 -0.708724 1.000000
63.489700 148.341000 -1426.610000 0.700848 -0.062799 -0.710541 1.000000
62.477000 148.213000 -1427.550000 0.687708 -0.055490 -0.723863 1.000000
61.562300 148.448000 -1428.560000 0.672648 -0.051249 -0.738185 1.000000
60.565000 148.144000 -1429.470000 0.658637 -0.046058 -0.751050 1.000000
59.598200 147.769000 -1430.380000 0.647059 -0.035867 -0.761596 1.000000
58.675200 147.993000 -1431.390000 0.633481 -0.029479 -0.773196 1.000000
57.566400 148.568000 -1431.990000 0.619684 -0.025288 -0.784444 1.000000
56.477300 148.905000 -1432.770000 0.606835 -0.017503 -0.794635 1.000000
55.393100 148.844000 -1433.630000 0.597430 -0.005302 -0.801904 1.000000
54.190800 148.403000 -1434.160000 0.593089 0.008936 -0.805088 1.000000
53.112200 148.464000 -1435.020000 0.596780 0.015509 -0.802255 1.000000
52.079200 148.539000 -1435.940000 0.605862 0.018686 -0.795350 1.000000
51.139000 149.253000 -1436.660000 0.611917 0.015383 -0.790772 1.000000
50.145500 149.737000 -1437.500000 0.618691 0.013783 -0.785514 1.000000
49.065100 149.741000 -1438.360000 0.625976 0.016406 -0.779670 1.000000
47.985700 149.569000 -1439.210000 0.632078 0.019691 -0.774655 1.000000
47.098500 150.131000 -1440.110000 0.636284 0.014901 -0.771311 1.000000
46.229000 151.124000 -1440.530000 0.639341 0.005138 -0.768906 1.000000
43.041400 150.959000 -1443.360000 0.631841 0.002282 -0.775095 1.000000
41.932900 150.976000 -1444.190000 0.622876 0.001599 -0.782319 1.000000
40.941100 151.556000 -1444.960000 0.615257 -0.001246 -0.788326 1.000000
39.896900 151.234000 -1445.810000 0.607313 -0.001084 -0.794462 1.000000
38.833400 150.990000 -1446.660000 0.600346 -0.001478 -0.799739 1.000000
37.762500 151.524000 -1447.360000 0.595349 -0.002118 -0.803464 1.000000
36.666700 151.705000 -1448.190000 0.591560 -0.001103 -0.806260 1.000000
35.638900 152.258000 -1448.930000 0.589276 0.002079 -0.807929 0.010000
35.236700 153.550000 -1449.220000 0.585747 0.006907 -0.810465 1.000000
34.881900 154.849000 -1449.540000 0.583448 0.011153 -0.812074 1.000000
34.195300 155.905000 -1450.120000 0.586035 0.012838 -0.810184 1.000000
33.706500 157.185000 -1450.310000 0.587207 0.012416 -0.809342 1.000000
33.323400 158.482000 -1450.610000 0.588644 0.010334 -0.808326 1.000000
32.909600 159.754000 -1450.970000 0.590572 0.006898 -0.806955 1.000000
32.845300 161.135000 -1450.900000 0.590741 0.001893 -0.806859 1.000000
32.269100 162.314000 -1451.340000 0.593385 -0.003366 -0.804912 1.000000
31.866000 163.606000 -1451.630000 0.595034 -0.009848 -0.803640 1.000000
31.603400 164.945000 -1451.870000 0.596049 -0.016650 -0.802775 1.000000
31.236400 166.243000 -1452.180000 0.598517 -0.020543 -0.800846 1.000000
30.629200 167.390000 -1452.660000 0.601431 -0.024400 -0.798552 1.000000
29.949200 168.464000 -1453.210000 0.604395 -0.028107 -0.796189 1.000000
29.566800 169.746000 -1453.560000 0.603790 -0.031183 -0.796533 1.000000
28.772100 170.643000 -1454.260000 0.602308 -0.032559 -0.797599 1.000000
28.607900 172.008000 -1454.410000 0.600854 -0.036196 -0.798539 1.000000
28.301700 173.351000 -1454.560000 0.599262 -0.039686 -0.799569 1.000000
28.255100 174.722000 -1454.740000 0.597727 -0.043442 -0.800522 1.000000
27.759300 175.956000 -1455.120000 0.595545 -0.046050 -0.802001 1.000000
27.527700 177.315000 -1455.250000 0.593505 -0.049173 -0.803327 1.000000
27.112200 178.606000 -1455.520000 0.592730 -0.047130 -0.804021 1.000000
27.567300 179.913000 -1455.550000 0.593431 -0.044243 -0.803668 1.000000
27.735400 181.287000 -1455.550000 0.593130 -0.040718 -0.804076 1.000000
27.810800 182.669000 -1455.600000 0.592169 -0.036526 -0.804985 1.000000
27.925100 184.048000 -1455.590000 0.590903 -0.031869 -0.806113 1.000000
27.530400 185.326000 -1455.940000 0.588502 -0.026008 -0.808077 1.000000
27.364400 186.695000 -1456.060000 0.586249 -0.019714 -0.809891 1.000000
27.110300 188.042000 -1456.250000 0.583722 -0.012690 -0.811855 1.000000
26.533600 189.217000 -1456.710000 0.580899 -0.005735 -0.813955 1.000000
26.095000 190.498000 -1456.990000 0.581826 -0.001110 -0.813313 1.000000
26.310600 191.854000 -1456.810000 0.581827 0.002870 -0.813308 1.000000
26.205500 193.231000 -1456.900000 0.583389 0.005881 -0.812172 1.000000
25.523300 194.190000 -1457.630000 0.586618 0.006409 -0.809838 1.000000
25.509900 195.574000 -1457.590000 0.588062 0.008289 -0.808773 1.000000
25.537700 196.932000 -1457.320000 0.589391 0.009883 -0.807788 1.000000
25.602000 198.312000 -1457.230000 0.591105 0.010908 -0.806521 1.000000
25.253500 199.624000 -1457.500000 0.593173 0.009046 -0.805024 1.000000
24.967200 200.967000 -1457.670000 0.594571 0.005468 -0.804024 1.000000
24.392400 202.172000 -1458.040000 0.596398 0.001515 -0.802687 1.000000
23.290100 202.760000 -1458.640000 0.598509 -0.001215 -0.801115 1.000000
23.724500 204.074000 -1458.600000 0.598771 -0.005519 -0.800901 1.000000
23.432300 205.404000 -1458.850000 0.600058 -0.010956 -0.799881 1.000000
22.931600 206.627000 -1459.260000 0.601505 -0.016699 -0.798694 1.000000
22.765200 207.994000 -1459.410000 0.602570 -0.023216 -0.797729 1.000000
23.239300 209.257000 -1459.100000 0.602955 -0.028934 -0.797250 0.010000
24.188500 210.034000 -1458.450000 0.602618 -0.031869 -0.797393 1.000000
25.260800 210.318000 -1457.630000 0.601502 -0.032416 -0.798213 1.000000
26.383800 210.514000 -1456.840000 0.600137 -0.032733 -0.799227 1.000000
27.510100 210.792000 -1456.090000 0.598734 -0.033768 -0.800236 1.000000
28.638600 210.908000 -1455.290000 0.597294 -0.033857 -0.801307 1.000000
29.657100 210.829000 -1454.360000 0.595925 -0.032476 -0.802383 1.000000
30.673300 210.527000 -1453.470000 0.594622 -0.029181 -0.803476 1.000000
31.772300 210.790000 -1452.670000 0.593933 -0.029711 -0.803966 1.000000
32.840800 211.330000 -1451.970000 0.594036 -0.032478 -0.803783 0.153509
33.966800 211.228000 -1451.180000 0.594091 -0.029344 -0.803862 1.000000
35.130500 211.317000 -1450.430000 0.594622 -0.026846 -0.803557 1.000000
36.237800 211.310000 -1449.600000 0.593781 -0.022344 -0.804316 1.000000
37.377400 211.609000 -1448.870000 0.593370 -0.020538 -0.804668 1.000000
38.432600 211.545000 -1447.980000 0.591661 -0.015521 -0.806037 1.000000
39.554900 211.603000 -1447.170000 0.589414 -0.013027 -0.807726 1.000000
40.695700 211.652000 -1446.390000 0.586034 -0.012508 -0.810190 1.000000
41.787000 211.862000 -1445.560000 0.582096 -0.014406 -0.812993 1.000000
42.854000 211.618000 -1444.720000 0.577761 -0.011908 -0.816119 1.000000
43.958100 211.864000 -1443.920000 0.572984 -0.014982 -0.819430 1.000000
45.030100 212.312000 -1443.170000 0.568031 -0.020255 -0.822758 1.000000
46.058900 212.944000 -1442.490000 0.563553 -0.027649 -0.825617 1.000000
47.150300 213.436000 -1441.790000 0.562484 -0.035881 -0.826029 1.000000
48.234600 213.982000 -1441.130000 0.561497 -0.044393 -0.826287 1.000000
49.377300 214.185000 -1440.370000 0.561693 -0.049542 -0.825861 1.000000
50.496700 214.678000 -1439.730000 0.561747 -0.056874 -0.825352 1.000000
51.646300 215.079000 -1439.070000 0.562720 -0.062831 -0.824256 1.000000
52.786600 215.663000 -1438.540000 0.565024 -0.066664 -0.822377 1.000000
53.936900 215.874000 -1437.800000 0.567857 -0.067704 -0.820338 1.000000
54.878000 215.748000 -1436.800000 0.570737 -0.066742 -0.818416 1.000000
55.892900 215.541000 -1435.880000 0.573678 -0.065431 -0.816463 1.000000
57.027600 215.397000 -1435.100000 0.576622 -0.064745 -0.814442 1.000000
58.182800 215.705000 -1434.400000 0.578560 -0.067001 -0.812883 1.000000
59.364900 215.768000 -1433.680000 0.579194 -0.067653 -0.812378 0.624218
60.329800 215.381000 -1432.770000 0.579627 -0.065865 -0.812216 0.350776
61.449200 215.330000 -1431.950000 0.579442 -0.066729 -0.812277 0.130971
62.499100 214.924000 -1431.150000 0.579343 -0.065792 -0.812424 0.361245
63.588300 214.671000 -1430.330000 0.578831 -0.066107 -0.812763 1.000000
64.723200 214.779000 -1429.550000 0.577644 -0.068473 -0.813412 1.000000
65.801900 214.519000 -1428.720000 0.576818 -0.068931 -0.813959 1.000000
66.922100 214.894000 -1428.000000 0.575279 -0.072123 -0.814771 1.000000
68.050900 215.281000 -1427.300000 0.573994 -0.074888 -0.815428 1.000000
69.135700 214.985000 -1426.490000 0.574822 -0.075271 -0.814809 1.000000
70.318900 215.095000 -1425.780000 0.576203 -0.077158 -0.813656 1.000000
71.390000 214.843000 -1424.940000 0.578165 -0.077482 -0.812233 1.000000
72.600100 214.739000 -1424.280000 0.580126 -0.078173 -0.810767 1.000000
73.426700 214.015000 -1423.430000 0.582260 -0.076655 -0.809380 0.010000
73.920600 212.938000 -1422.720000 0.584157 -0.073729 -0.808285 1.000000
74.685300 211.954000 -1422.110000 0.586211 -0.071037 -0.807038 1.000000
75.767400 211.413000 -1421.440000 0.588409 -0.069937 -0.805533 1.000000
76.547700 210.406000 -1420.900000 0.590542 -0.066462 -0.804266 1.000000
77.063400 209.354000 -1420.160000 0.592883 -0.062026 -0.802897 1.000000
77.930500 208.517000 -1419.480000 0.596562 -0.059538 -0.800355 1.000000
77.936800 207.136000 -1419.380000 0.599232 -0.052382 -0.798860 1.000000
78.756700 206.245000 -1418.710000 0.603886 -0.050225 -0.795487 1.000000
79.681600 205.493000 -1418.000000 0.608581 -0.050047 -0.791912 1.000000
80.360700 204.449000 -1417.400000 0.613898 -0.048244 -0.787910 1.000000
81.241900 203.683000 -1416.660000 0.618872 -0.049919 -0.783904 1.000000
81.827800 202.574000 -1416.070000 0.625039 -0.049193 -0.779042 1.000000
82.663300 201.697000 -1415.400000 0.630673 -0.052078 -0.774300 1.000000
83.585200 200.981000 -1414.660000 0.635433 -0.057602 -0.770004 1.000000
84.526700 200.221000 -1413.980000 0.636987 -0.061997 -0.768377 1.000000
85.080700 199.145000 -1413.310000 0.640710 -0.063179 -0.765179 1.000000
84.990000 197.784000 -1413.080000 0.648040 -0.057517 -0.759432 1.000000
85.080400 196.413000 -1412.910000 0.655686 -0.051542 -0.753272 1.000000
85.377700 195.104000 -1412.570000 0.657525 -0.058592 -0.751151 1.000000
85.816500 193.874000 -1412.110000 0.659309 -0.065117 -0.749047 1.000000
86.080300 192.568000 -1411.740000 0.661213 -0.071129 -0.746818 1.000000
86.429400 191.290000 -1411.340000 0.663183 -0.076807 -0.744506 1.000000
86.784300 190.020000 -1410.920000 0.665262 -0.082214 -0.742069 1.000000
87.232700 188.804000 -1410.430000 0.667494 -0.087501 -0.739456 1.000000
87.649100 187.606000 -1409.880000 0.669890 -0.092733 -0.736647 1.000000
87.892700 186.308000 -1409.460000 0.672378 -0.097750 -0.733725 1.000000
88.366900 185.089000 -1409.010000 0.667126 -0.099544 -0.738264 1.000000
88.646100 183.786000 -1408.630000 0.662675 -0.099259 -0.742300 1.000000
89.084600 182.533000 -1408.240000 0.659134 -0.093682 -0.746168 1.000000
88.809300 181.198000 -1408.000000 0.660259 -0.086454 -0.746045 1.000000
89.369200 180.088000 -1407.390000 0.655096 -0.080341 -0.751262 1.000000
90.186000 179.243000 -1406.660000 0.648471 -0.075726 -0.757464 1.000000
90.808300 178.202000 -1405.990000 0.643522 -0.070051 -0.762216 1.000000
91.378700 177.119000 -1405.350000 0.639182 -0.064563 -0.766341 1.000000
91.906700 175.955000 -1404.810000 0.635711 -0.059442 -0.769635 1.000000
92.580700 174.935000 -1404.160000 0.631259 -0.056212 -0.773532 1.000000
93.016500 173.727000 -1403.650000 0.628685 -0.053573 -0.775813 1.000000
93.386700 172.466000 -1403.210000 0.627081 -0.052692 -0.777170 0.010000
92.702900 171.381000 -1403.730000 0.633629 -0.051691 -0.771909 1.000000
91.939700 170.376000 -1404.300000 0.636849 -0.059821 -0.768665 1.000000
91.069900 169.560000 -1405.010000 0.640089 -0.066707 -0.765400 1.000000
90.652700 168.290000 -1405.370000 0.640274 -0.075758 -0.764402 1.000000
90.095200 167.141000 -1405.900000 0.640945 -0.083976 -0.762979 1.000000
89.265800 166.167000 -1406.430000 0.642071 -0.091345 -0.761184 1.000000
88.559400 165.074000 -1406.900000 0.642465 -0.099085 -0.759882 1.000000
87.538300 164.262000 -1407.360000 0.643851 -0.105677 -0.757818 1.000000
86.989300 163.074000 -1407.820000 0.645899 -0.108542 -0.755667 1.000000
86.074200 162.323000 -1408.530000 0.651034 -0.108494 -0.751255 1.000000
85.534400 161.118000 -1408.950000 0.654776 -0.109266 -0.747883 1.000000
84.643200 160.132000 -1409.340000 0.659605 -0.109521 -0.743590 1.000000
84.170100 158.855000 -1409.590000 0.663119 -0.110860 -0.740259 1.000000
83.780700 157.536000 -1409.740000 0.666536 -0.112974 -0.736862 1.000000
83.276500 156.289000 -1410.070000 0.670863 -0.114866 -0.732632 1.000000
83.152300 154.910000 -1410.040000 0.674350 -0.119978 -0.728599 1.000000
82.675000 153.612000 -1410.100000 0.678440 -0.124307 -0.724063 1.000000
82.207700 152.322000 -1410.280000 0.682250 -0.128166 -0.719798 1.000000
81.908100 150.970000 -1410.300000 0.686016 -0.133166 -0.715297 1.000000
81.839400 149.593000 -1410.190000 0.690161 -0.139274 -0.710127 1.000000
82.003300 148.250000 -1409.890000 0.694817 -0.146414 -0.704125 1.000000
82.074500 146.873000 -1409.770000 0.699630 -0.152124 -0.698123 1.000000
