# .PCD v0.7 - Point Cloud Data file format
# 2 36 0
# 1 34 0
# 35 36 0
VERSION 0.7
FIELDS x y z normal_x normal_y normal_z curvature
SIZE 4 4 4 4 4 4 4
TYPE F F F F F F F
COUNT 1 1 1 1 1 1 1
WIDTH 36
HEIGHT 1
VIEWPOINT 0 0 0 1 0 0 0
POINTS 36
DATA ascii
23.266300 205.534000 -1459.000000 -0.770438 -0.330956 -0.544879 0.010000
24.073700 206.743000 -1458.390000 -0.771369 -0.362471 -0.523073 1.000000
25.588500 207.591000 -1457.260000 -0.772562 -0.364533 -0.519869 1.000000
46.229000 151.124000 -1440.530000 0.644079 0.627972 -0.436822 1.000000
44.692100 151.031000 -1441.920000 0.521180 0.641138 -0.563305 1.000000
43.118900 151.017000 -1443.270000 0.457462 0.646196 -0.610868 1.000000
41.473200 151.159000 -1444.530000 0.504851 0.644976 -0.573700 1.000000
39.844200 151.511000 -1445.760000 0.572359 0.631243 -0.523391 1.000000
38.223500 151.967000 -1446.970000 0.661077 0.598732 -0.452215 1.000000
37.227500 153.641000 -1447.690000 0.766735 0.473453 -0.433543 1.000000
36.254100 155.334000 -1448.390000 0.850119 0.321098 -0.417365 1.000000
35.325600 157.068000 -1449.060000 0.860450 0.238276 -0.450388 1.000000
34.345200 158.751000 -1449.770000 0.752400 0.362123 -0.550237 1.000000
33.338800 160.410000 -1450.510000 0.680255 0.439736 -0.586418 1.000000
32.724100 162.334000 -1450.990000 0.815901 0.510219 -0.271995 1.000000
32.052400 164.223000 -1451.520000 -0.630014 -0.774279 -0.059790 1.000000
31.266600 166.045000 -1452.130000 -0.603449 -0.789469 -0.112195 1.000000
30.464000 167.835000 -1452.810000 -0.603998 -0.767411 -0.215095 1.000000
29.652900 169.610000 -1453.520000 0.509685 0.612985 -0.603714 1.000000
29.141300 171.570000 -1453.970000 -0.648812 -0.482908 -0.588084 1.000000
28.597400 173.523000 -1454.420000 -0.620133 -0.206976 -0.756701 1.000000
27.988500 175.460000 -1454.850000 -0.563970 0.004581 -0.825783 1.000000
27.743600 177.477000 -1455.180000 -0.511056 0.135145 -0.848857 1.000000
27.680700 179.535000 -1455.450000 -0.501656 0.091754 -0.860187 1.000000
27.905600 181.599000 -1455.430000 -0.500801 -0.028899 -0.865080 1.000000
27.931100 183.645000 -1455.540000 -0.496040 -0.124483 -0.859330 1.000000
27.557800 185.658000 -1455.890000 -0.492973 -0.189711 -0.849110 1.000000
27.150200 187.668000 -1456.210000 -0.491225 -0.233749 -0.839082 1.000000
26.725600 189.678000 -1456.510000 -0.489925 -0.263027 -0.831138 1.000000
26.342500 191.700000 -1456.780000 -0.496751 -0.273078 -0.823812 1.000000
26.062100 193.741000 -1456.960000 -0.537177 -0.246728 -0.806577 1.000000
25.986900 195.815000 -1456.970000 -0.580172 -0.245137 -0.776730 1.000000
25.711100 197.855000 -1457.160000 -0.636946 -0.266053 -0.723544 1.000000
25.335100 199.877000 -1457.440000 -0.704973 -0.291777 -0.646435 1.000000
24.579600 201.726000 -1458.010000 -0.748234 -0.277465 -0.602627 1.000000
23.873600 203.603000 -1458.540000 -0.762852 -0.273744 -0.585765 1.000000
