# .PCD v0.7 - Point Cloud Data file format
# 5 189 0
# 1 2 0
# 3 73 0
# 74 98 0
# 99 164 0
# 165 189 0
VERSION 0.7
FIELDS x y z normal_x normal_y normal_z curvature
SIZE 4 4 4 4 4 4 4
TYPE F F F F F F F
COUNT 1 1 1 1 1 1 1
WIDTH 189
HEIGHT 1
VIEWPOINT 0 0 0 1 0 0 0
POINTS 189
DATA ascii
-25.612700 229.939000 -1535.130000 -0.997244 -0.068342 0.028874 0.010000
-25.145500 228.890000 -1536.670000 -0.995122 -0.095153 0.026023 1.000000
-24.923900 227.242000 -1537.630000 -0.989453 -0.143006 0.023068 1.000000
-24.669000 225.882000 -1538.950000 -0.981257 -0.191676 0.019894 1.000000
-24.319700 224.220000 -1539.840000 -0.964008 -0.265201 0.018905 1.000000
-23.994700 222.498000 -1540.620000 -0.932818 -0.359741 0.020910 1.000000
-22.933600 220.960000 -1541.050000 -0.952372 -0.304109 0.022488 1.000000
-22.701600 219.350000 -1542.070000 -0.972095 -0.232964 0.027551 1.000000
-22.519100 217.626000 -1542.890000 -0.985913 -0.163634 0.034625 1.000000
-22.214700 215.821000 -1543.460000 -0.993891 -0.102262 0.041514 1.000000
-21.987200 213.984000 -1543.960000 -0.993629 -0.103334 0.044974 1.000000
-21.830200 212.173000 -1544.570000 -0.993357 -0.106295 0.044091 1.000000
-21.638400 210.372000 -1545.200000 -0.993004 -0.111422 0.039080 1.000000
-21.504700 208.604000 -1545.930000 -0.992437 -0.119022 0.030041 1.000000
-21.256000 206.708000 -1546.080000 -0.990938 -0.132774 0.020301 1.000000
-21.142800 204.944000 -1546.820000 -0.988973 -0.147792 0.009458 1.000000
-20.819400 203.091000 -1547.190000 -0.986956 -0.160989 0.000131 1.000000
-20.493300 201.233000 -1547.530000 -0.984844 -0.173253 -0.008146 1.000000
-20.203200 199.338000 -1547.480000 -0.988098 -0.153348 -0.012115 1.000000
-19.902600 197.452000 -1547.300000 -0.992228 -0.124158 -0.008272 1.000000
-19.577300 195.571000 -1547.120000 -0.995382 -0.095937 0.003254 1.000000
-19.425300 193.716000 -1547.580000 -0.997908 -0.061667 0.019398 1.000000
-19.356600 192.033000 -1548.500000 -0.998881 -0.028493 0.037749 1.000000
-19.340500 190.255000 -1547.780000 -0.998481 -0.013084 0.053528 1.000000
-19.441400 188.450000 -1548.420000 -0.998200 0.012000 0.058756 1.000000
-19.553900 186.616000 -1548.970000 -0.998069 0.030445 0.054147 1.000000
-19.674000 184.678000 -1549.770000 -0.999002 0.020861 0.039496 1.000000
-19.349100 183.121000 -1548.700000 -0.999429 0.009914 0.032317 0.010000
-19.573800 182.525000 -1546.890000 -0.999360 0.009192 0.034569 1.000000
-19.313500 182.457000 -1544.990000 -0.999095 0.014300 0.040066 1.000000
-19.096500 182.781000 -1543.110000 -0.998609 0.024280 0.046805 1.000000
-18.901300 182.447000 -1541.240000 -0.998373 0.021982 0.052611 1.000000
-18.871900 182.156000 -1539.340000 -0.998053 0.018839 0.059458 1.000000
-18.844700 181.407000 -1537.580000 -0.997752 0.007009 0.066649 1.000000
-18.658300 180.726000 -1535.790000 -0.997164 -0.003895 0.075165 1.000000
-18.706900 180.027000 -1534.010000 -0.996299 -0.014631 0.084699 1.000000
-18.517800 180.107000 -1532.100000 -0.995252 -0.013647 0.096365 1.000000
-18.462600 179.937000 -1530.190000 -0.994585 -0.019001 0.102177 1.000000
-18.158500 179.472000 -1528.360000 -0.995197 -0.027950 0.093820 1.000000
-18.010600 179.065000 -1526.490000 -0.996084 -0.028695 0.083627 1.000000
-17.930100 178.727000 -1524.600000 -0.997206 -0.018637 0.072334 1.000000
-17.881900 179.181000 -1522.740000 -0.997790 -0.014190 0.064907 1.000000
-18.076100 179.380000 -1520.840000 -0.998339 -0.000834 0.057601 1.000000
-17.418200 178.925000 -1519.100000 -0.998826 0.017264 0.045265 1.000000
-17.072700 178.654000 -1517.240000 -0.998745 0.037266 0.033448 1.000000
-17.026800 178.393000 -1515.340000 -0.998131 0.057318 0.021203 1.000000
-17.072600 177.887000 -1513.490000 -0.997448 0.070629 0.010415 1.000000
-17.082600 177.724000 -1511.580000 -0.996632 0.081778 0.006149 1.000000
-17.678500 176.656000 -1510.100000 -0.997727 0.067387 0.000246 1.000000
-18.132100 175.726000 -1508.490000 -0.998579 0.053272 -0.001217 1.000000
-17.894900 174.752000 -1506.850000 -0.999290 0.037688 -0.000394 1.000000
-17.590200 175.100000 -1504.990000 -0.999140 0.041456 0.000098 0.346866
-17.491000 175.045000 -1503.080000 -0.999298 0.037456 0.000904 1.000000
-17.468700 175.155000 -1501.160000 -0.999409 0.034343 0.001278 1.000000
-17.758600 174.186000 -1499.530000 -0.999806 0.019194 0.004458 1.000000
-17.646900 174.458000 -1497.640000 -0.999852 0.017020 0.002306 1.000000
-17.395600 174.516000 -1495.740000 -0.999902 0.013046 -0.005117 1.000000
-17.421300 173.856000 -1493.940000 -0.999887 0.010107 -0.011104 1.000000
-17.644300 173.059000 -1492.210000 -0.999768 0.012055 -0.017848 1.000000
-17.758500 172.496000 -1490.380000 -0.999531 0.016839 -0.025577 1.000000
-17.876300 172.346000 -1488.470000 -0.999230 0.021058 -0.033120 1.000000
-17.885200 172.800000 -1486.610000 -0.999026 0.019886 -0.039381 1.000000
-18.190200 173.373000 -1484.800000 -0.998848 0.015631 -0.045364 1.000000
-18.214100 173.977000 -1482.980000 -0.998642 0.008948 -0.051328 1.000000
-18.126900 174.337000 -1481.100000 -0.998336 0.004589 -0.057485 1.000000
-18.291800 174.514000 -1479.200000 -0.997564 0.002222 -0.069728 1.000000
-18.594200 174.604000 -1477.310000 -0.996496 -0.001539 -0.083630 1.000000
-19.050900 174.231000 -1475.480000 -0.995341 0.000752 -0.096412 1.000000
-18.797800 174.012000 -1473.600000 -0.994005 -0.002481 -0.109303 1.000000
-18.963600 172.650000 -1472.260000 -0.993638 0.014155 -0.111730 1.000000
-19.022000 171.935000 -1470.480000 -0.992878 0.013648 -0.118354 1.000000
-19.219700 170.515000 -1469.200000 -0.993205 0.023053 -0.114073 1.000000
-19.558400 170.628000 -1467.320000 -0.992094 0.002626 -0.125467 1.000000
-19.775100 171.178000 -1465.500000 -0.989337 -0.026073 -0.143291 1.000000
-20.120100 171.251000 -1463.610000 -0.986065 -0.052862 -0.157736 1.000000
-20.429000 171.617000 -1461.750000 -0.980708 -0.083830 -0.176591 1.000000
-20.752900 172.272000 -1459.980000 -0.973241 -0.115363 -0.198731 1.000000
-21.100400 172.555000 -1458.120000 -0.965920 -0.142132 -0.216328 1.000000
-21.501700 172.581000 -1456.240000 -0.958819 -0.165341 -0.230928 1.000000
-22.028300 172.987000 -1454.440000 -0.950262 -0.186815 -0.249203 1.000000
-22.677100 173.517000 -1452.720000 -0.942044 -0.202780 -0.267269 1.000000
-23.294400 173.297000 -1450.920000 -0.935290 -0.217236 -0.279359 1.000000
-23.899200 173.011000 -1449.120000 -0.928252 -0.231364 -0.291239 1.000000
-24.575800 173.956000 -1447.600000 -0.925784 -0.225085 -0.303744 1.000000
-25.185500 174.422000 -1445.840000 -0.928004 -0.220466 -0.300338 1.000000
-25.709500 174.217000 -1444.010000 -0.928052 -0.228547 -0.294085 1.000000
-26.431500 174.939000 -1442.380000 -0.933978 -0.207634 -0.290814 1.000000
-26.992600 176.026000 -1440.910000 -0.943499 -0.164438 -0.287697 1.000000
-27.551500 177.102000 -1439.420000 -0.941573 -0.178387 -0.285688 1.000000
-27.905700 176.523000 -1437.630000 -0.943689 -0.174018 -0.281370 1.000000
-28.337700 176.328000 -1435.770000 -0.943850 -0.180174 -0.276921 1.000000
-28.805200 176.300000 -1433.910000 -0.942465 -0.193139 -0.272868 1.000000
-29.382700 175.775000 -1432.160000 -0.941236 -0.200338 -0.271917 1.000000
-30.035000 175.690000 -1430.360000 -0.933438 -0.207323 -0.292765 1.000000
-30.722100 175.970000 -1428.590000 -0.924112 -0.220979 -0.311745 1.000000
-31.429400 176.279000 -1426.830000 -0.914498 -0.235795 -0.328777 1.000000
-32.240300 175.966000 -1425.120000 -0.907857 -0.243239 -0.341513 1.000000
-32.901000 176.248000 -1423.350000 -0.898111 -0.259009 -0.355402 1.000000
-33.796600 176.546000 -1421.680000 -0.887728 -0.275738 -0.368656 0.010000
-34.868100 177.567000 -1420.460000 -0.874339 -0.297651 -0.383321 1.000000
-35.320500 179.291000 -1419.750000 -0.861289 -0.319649 -0.394975 1.000000
-36.277000 180.486000 -1418.600000 -0.848159 -0.338938 -0.407121 1.000000
-37.057800 182.230000 -1418.430000 -0.826456 -0.382266 -0.413332 1.000000
-38.046800 183.698000 -1417.690000 -0.802548 -0.423613 -0.420081 1.000000
-38.992700 185.353000 -1417.490000 -0.778946 -0.464053 -0.421778 1.000000
-39.977300 186.959000 -1417.840000 -0.757252 -0.501382 -0.418551 1.000000
-41.108000 188.508000 -1417.820000 -0.760212 -0.496145 -0.419426 1.000000
-42.229900 190.063000 -1417.820000 -0.764399 -0.488751 -0.420495 1.000000
-43.201700 191.712000 -1417.710000 -0.768217 -0.481678 -0.421698 1.000000
-44.195300 193.352000 -1417.680000 -0.771674 -0.474826 -0.423156 1.000000
-45.115000 195.035000 -1417.680000 -0.775542 -0.466117 -0.425757 1.000000
-46.153000 196.643000 -1417.570000 -0.778390 -0.457268 -0.430133 1.000000
-47.267100 198.134000 -1417.110000 -0.779413 -0.450092 -0.435812 1.000000
-48.491800 199.437000 -1416.410000 -0.778363 -0.445423 -0.442435 1.000000
-49.587300 201.010000 -1416.350000 -0.770995 -0.450765 -0.449864 1.000000
-50.427100 202.720000 -1416.570000 -0.754779 -0.476534 -0.450804 1.000000
-51.317900 204.417000 -1416.630000 -0.738799 -0.504794 -0.446497 1.000000
-52.223100 206.101000 -1416.770000 -0.722904 -0.535161 -0.437050 1.000000
-53.176000 207.716000 -1417.170000 -0.713358 -0.556444 -0.426017 1.000000
-54.144400 209.278000 -1417.720000 -0.718173 -0.551177 -0.424772 1.000000
-55.198400 210.693000 -1418.470000 -0.721888 -0.542179 -0.430023 1.000000
-55.856800 212.218000 -1419.420000 -0.724604 -0.529052 -0.441648 1.000000
-56.888000 213.741000 -1418.880000 -0.747916 -0.477292 -0.461318 1.000000
-57.128200 215.453000 -1419.710000 -0.774299 -0.411431 -0.480817 0.010000
-56.737900 216.161000 -1421.450000 -0.786220 -0.383899 -0.484230 1.000000
-55.899400 216.507000 -1423.140000 -0.791931 -0.373377 -0.483151 1.000000
-54.895600 216.652000 -1424.770000 -0.793460 -0.372010 -0.481694 1.000000
-54.185600 217.050000 -1426.510000 -0.796861 -0.364157 -0.482081 0.731262
-53.145700 217.057000 -1428.120000 -0.794702 -0.369527 -0.481558 0.960329
-52.621800 217.574000 -1429.890000 -0.798115 -0.360800 -0.482531 1.000000
-51.597800 217.710000 -1431.500000 -0.795607 -0.365780 -0.482923 1.000000
-50.381300 217.523000 -1432.970000 -0.787997 -0.381019 -0.483616 1.000000
-49.451200 217.770000 -1434.630000 -0.784441 -0.385192 -0.486086 1.000000
-48.457600 217.900000 -1436.270000 -0.779187 -0.392336 -0.488815 1.000000
-47.473400 218.082000 -1437.900000 -0.774780 -0.397819 -0.491381 1.000000
-46.497800 218.163000 -1439.550000 -0.769666 -0.404822 -0.493693 1.000000
-45.354300 218.001000 -1441.080000 -0.761362 -0.418528 -0.495139 1.000000
-44.376300 218.063000 -1442.730000 -0.757306 -0.423798 -0.496873 1.000000
-43.806700 218.697000 -1444.450000 -0.761281 -0.412561 -0.500244 1.000000
-43.050500 219.180000 -1446.140000 -0.761930 -0.408155 -0.502863 1.000000
-42.089800 219.457000 -1447.780000 -0.760371 -0.408362 -0.505050 1.000000
-41.068500 219.646000 -1449.390000 -0.765149 -0.413538 -0.493491 1.000000
-40.181600 219.995000 -1451.050000 -0.771781 -0.417323 -0.479788 1.000000
-39.480900 220.430000 -1452.790000 -0.778190 -0.421256 -0.465794 1.000000
-38.772200 220.805000 -1454.530000 -0.784040 -0.425892 -0.451550 1.000000
-37.582700 220.566000 -1456.010000 -0.791438 -0.425639 -0.438700 1.000000
-36.825400 220.995000 -1457.720000 -0.797496 -0.428950 -0.424266 1.000000
-36.226700 221.489000 -1459.470000 -0.802498 -0.433733 -0.409723 1.000000
-35.573900 221.816000 -1461.250000 -0.808253 -0.436594 -0.395111 1.000000
-34.930100 222.173000 -1463.020000 -0.813875 -0.439092 -0.380534 1.000000
-34.281000 222.509000 -1464.790000 -0.819398 -0.440143 -0.367235 1.000000
-33.737800 222.909000 -1466.590000 -0.824143 -0.441577 -0.354681 1.000000
-33.043200 223.070000 -1468.370000 -0.831093 -0.438614 -0.341910 1.000000
-32.324300 223.198000 -1470.140000 -0.838643 -0.434034 -0.329078 1.000000
-32.304500 223.796000 -1471.960000 -0.840267 -0.438582 -0.318743 1.000000
-31.144800 223.235000 -1473.380000 -0.854074 -0.420949 -0.305546 1.000000
-30.585100 223.408000 -1475.210000 -0.861474 -0.414861 -0.292836 1.000000
-30.242200 223.896000 -1477.030000 -0.865473 -0.414100 -0.281917 1.000000
-29.927100 224.388000 -1478.860000 -0.869628 -0.412324 -0.271545 1.000000
-29.589600 224.879000 -1480.680000 -0.874652 -0.409297 -0.259730 1.000000
-29.460500 225.430000 -1482.510000 -0.879601 -0.407546 -0.245375 1.000000
-28.739300 225.392000 -1484.290000 -0.890571 -0.394644 -0.226141 1.000000
-28.395600 225.692000 -1486.150000 -0.898298 -0.386483 -0.209028 1.000000
-27.963100 225.851000 -1488.010000 -0.907159 -0.375165 -0.190561 1.000000
-27.277600 225.471000 -1489.760000 -0.918073 -0.358834 -0.168466 1.000000
-27.015200 225.574000 -1491.660000 -0.925902 -0.347048 -0.149208 1.000000
-27.269700 226.249000 -1493.430000 -0.931720 -0.336149 -0.137486 1.000000
-27.006800 226.104000 -1495.330000 -0.940354 -0.319824 -0.115965 1.000000
-26.513600 225.500000 -1497.080000 -0.946377 -0.309981 -0.091008 1.000000
-26.510800 225.670000 -1498.990000 -0.950835 -0.295573 -0.092466 1.000000
-26.557100 225.897000 -1500.890000 -0.955544 -0.278822 -0.095884 1.000000
-26.520200 225.957000 -1502.810000 -0.959296 -0.264888 -0.097908 1.000000
-26.043600 225.423000 -1504.590000 -0.957973 -0.270467 -0.095575 1.000000
-25.610700 225.109000 -1506.430000 -0.957001 -0.274057 -0.095085 1.000000
-25.908900 226.427000 -1507.790000 -0.968609 -0.225890 -0.103784 1.000000
-25.611500 226.433000 -1509.680000 -0.970490 -0.217183 -0.104789 1.000000
-25.267100 226.352000 -1511.570000 -0.971505 -0.212291 -0.105403 1.000000
-25.254700 226.937000 -1513.390000 -0.975779 -0.189730 -0.108892 1.000000
-24.829800 226.696000 -1515.250000 -0.976578 -0.189901 -0.101156 1.000000
-24.872400 227.514000 -1516.980000 -0.982220 -0.164570 -0.090338 1.000000
-25.085700 228.034000 -1518.820000 -0.986116 -0.147372 -0.076532 1.000000
-24.802000 227.861000 -1520.700000 -0.987845 -0.144161 -0.058136 1.000000
-24.527700 227.407000 -1522.550000 -0.988370 -0.147089 -0.038590 1.000000
-24.702000 227.976000 -1524.370000 -0.991201 -0.130556 -0.021794 1.000000
-24.574500 227.966000 -1526.280000 -0.991979 -0.126400 -0.000800 1.000000
-24.383100 227.404000 -1528.110000 -0.990355 -0.136949 0.021003 1.000000
-24.582200 228.157000 -1529.860000 -0.992137 -0.117650 0.042703 1.000000
-24.684200 228.472000 -1531.750000 -0.993206 -0.108891 0.041041 1.000000
-25.130800 229.421000 -1533.350000 -0.995971 -0.082946 0.034078 1.000000
