# .PCD v0.7 - Point Cloud Data file format
# 4 78 0
# 1 17 0
# 18 53 0
# 54 69 0
# 70 78 0
VERSION 0.7
FIELDS x y z normal_x normal_y normal_z curvature
SIZE 4 4 4 4 4 4 4
TYPE F F F F F F F
COUNT 1 1 1 1 1 1 1
WIDTH 78
HEIGHT 1
VIEWPOINT 0 0 0 1 0 0 0
POINTS 78
DATA ascii
-203.319000 -81.760200 -1633.970000 0.343369 0.671470 0.656678 0.010000
-203.436000 -83.503800 -1632.960000 0.193473 -0.757547 -0.623451 1.000000
-203.166000 -85.380000 -1632.230000 0.293064 -0.715957 -0.633655 1.000000
-202.896000 -87.256200 -1631.510000 0.159614 0.235492 0.958680 1.000000
-202.626000 -89.132400 -1630.790000 0.161218 0.053609 0.985462 1.000000
-202.462000 -90.856600 -1630.100000 0.227205 -0.059758 0.972012 1.000000
-204.221000 -89.846200 -1630.060000 0.100529 0.051047 0.993624 1.000000
-205.980000 -88.835800 -1630.020000 0.040451 0.120613 0.991875 1.000000
-207.739000 -87.825400 -1629.980000 0.002015 0.169815 0.985474 1.000000
-209.498000 -86.815000 -1629.940000 -0.028618 0.203307 0.978697 1.000000
-207.786000 -89.572800 -1682.560000 0.453160 0.611708 0.648428 1.000000
-206.274000 -90.681800 -1681.780000 -0.115729 -0.826903 -0.550307 1.000000
-204.762000 -91.790800 -1681.010000 -0.057148 -0.813268 -0.579076 1.000000
-203.250000 -92.899800 -1680.230000 0.534812 0.501213 0.680266 1.000000
-201.738000 -94.008800 -1679.460000 0.022984 -0.747823 -0.663501 1.000000
-201.104000 -93.126800 -1681.000000 0.058194 -0.774452 -0.629950 1.000000
-200.517000 -92.134300 -1682.670000 0.103039 -0.858583 -0.502214 1.000000
-199.931000 -91.141700 -1684.340000 0.108278 -0.943667 -0.312678 1.000000
-199.345000 -90.149200 -1686.010000 0.067435 -0.963913 -0.257536 1.000000
-198.698000 -88.943000 -1687.500000 0.025099 -0.967405 -0.251989 1.000000
-198.043000 -87.711600 -1688.980000 -0.027883 -0.960748 -0.276017 1.000000
-197.388000 -86.480300 -1690.450000 -0.090509 -0.944271 -0.316481 1.000000
-196.733000 -85.248900 -1691.920000 -0.117547 -0.911213 -0.394808 1.000000
-196.130000 -84.149500 -1693.520000 -0.075603 -0.876381 -0.475648 1.000000
-195.538000 -83.074900 -1695.130000 0.213044 -0.782017 -0.585715 1.000000
-194.945000 -82.000200 -1696.750000 0.536534 -0.519583 -0.664954 1.000000
-194.353000 -80.925600 -1698.360000 0.335177 -0.592451 -0.732570 0.010000
-195.828000 -80.632000 -1698.680000 0.327379 -0.587821 -0.739791 1.000000
-197.855000 -80.546900 -1698.660000 0.035782 -0.757165 -0.652242 1.000000
-199.882000 -80.461700 -1698.630000 -0.170554 -0.861047 -0.479072 1.000000
-201.909000 -80.376500 -1698.600000 -0.227990 -0.916705 -0.328135 1.000000
-202.898000 -80.916100 -1697.280000 -0.319816 -0.870672 -0.373696 1.000000
-203.517000 -81.678900 -1695.510000 -0.364540 -0.828886 -0.424333 1.000000
-204.136000 -82.441600 -1693.730000 -0.377665 -0.801126 -0.464290 1.000000
-204.754000 -83.204400 -1691.960000 -0.361888 -0.777913 -0.513700 1.000000
-204.274000 -82.420500 -1690.750000 -0.352325 -0.776799 -0.521967 1.000000
-203.287000 -80.922900 -1689.800000 0.617296 0.781823 -0.087748 1.000000
-202.300000 -79.425200 -1688.850000 0.634087 0.745146 -0.206616 1.000000
-201.313000 -77.927500 -1687.910000 0.636556 0.613377 -0.467509 1.000000
-200.359000 -76.471000 -1686.870000 0.475661 0.281893 -0.833236 1.000000
-199.425000 -75.038600 -1685.770000 0.536159 0.478974 -0.695067 1.000000
-198.491000 -73.606200 -1684.680000 -0.321320 -0.806734 -0.495918 1.000000
-197.557000 -72.173800 -1683.590000 -0.306203 -0.818004 -0.486939 1.000000
-196.475000 -71.313400 -1682.220000 0.594705 0.592677 -0.543193 1.000000
-195.284000 -70.869200 -1680.630000 0.617053 0.584245 -0.527166 1.000000
-194.093000 -70.424900 -1679.050000 0.649040 0.568489 -0.505537 1.000000
-192.903000 -69.980600 -1677.470000 0.702759 0.536206 -0.467560 1.000000
-192.447000 -69.265600 -1675.790000 0.749453 0.495230 -0.439395 1.000000
-192.654000 -68.306900 -1674.010000 0.704634 0.656030 -0.270398 1.000000
-192.861000 -67.348300 -1672.240000 0.609213 0.773834 -0.173324 1.000000
-193.068000 -66.389600 -1670.460000 0.542409 0.784421 -0.300792 1.000000
-193.588000 -65.359300 -1668.830000 0.462646 0.719090 -0.518525 1.000000
-194.457000 -64.249300 -1667.370000 0.357309 0.793674 -0.492353 1.000000
-195.326000 -63.139300 -1665.910000 0.263538 0.897339 -0.354021 1.000000
-196.195000 -62.029300 -1664.460000 0.198621 0.960728 -0.193782 1.000000
-196.572000 -61.118600 -1662.810000 0.214385 -0.889154 -0.404283 1.000000
-196.272000 -60.482100 -1660.910000 0.188836 -0.912855 -0.361991 1.000000
-195.973000 -59.845500 -1659.000000 0.152656 -0.886766 -0.436283 1.000000
-195.674000 -59.208900 -1657.100000 0.151565 -0.893350 -0.423030 1.000000
-195.368000 -58.924200 -1655.170000 0.157141 -0.915305 -0.370842 1.000000
-195.053000 -59.242700 -1653.190000 0.151966 -0.889893 -0.430112 1.000000
-194.737000 -59.561200 -1651.210000 0.423385 -0.001459 0.905949 1.000000
-194.422000 -59.879700 -1649.230000 0.157020 0.982320 -0.101946 0.010000
-194.001000 -60.657600 -1647.650000 -0.072940 -0.573219 -0.816150 1.000000
-193.353000 -62.430900 -1646.900000 0.177038 0.329615 0.927368 1.000000
-192.704000 -64.204100 -1646.160000 0.140317 0.984984 -0.100586 1.000000
-192.056000 -65.977400 -1645.420000 0.140317 0.984984 -0.100586 0.000000
-191.922000 -67.637800 -1644.670000 0.140317 0.984984 -0.100586 1.000000
-193.227000 -68.982200 -1643.890000 0.366962 -0.704568 -0.607390 1.000000
-194.533000 -70.326600 -1643.110000 0.416930 -0.677271 -0.606196 1.000000
-195.838000 -71.671000 -1642.330000 0.438229 -0.676137 -0.592278 1.000000
-197.177000 -72.917800 -1641.490000 0.451497 -0.682225 -0.575082 1.000000
-198.643000 -73.799000 -1640.400000 0.336636 0.502336 0.796451 1.000000
-200.108000 -74.680200 -1639.300000 0.473011 -0.699541 -0.535633 1.000000
-201.573000 -75.561300 -1638.210000 0.508108 0.709760 0.487921 1.000000
-202.833000 -76.576200 -1637.130000 0.511295 -0.714178 -0.478045 1.000000
-202.995000 -78.304200 -1636.080000 0.503634 -0.727304 -0.466241 1.000000
-203.157000 -80.032200 -1635.020000 0.428953 0.714178 0.553126 1.000000
