# .PCD v0.7 - Point Cloud Data file format
# 4 210 0
# 1 13 0
# 14 89 0
# 90 169 0
# 170 210 0
VERSION 0.7
FIELDS x y z normal_x normal_y normal_z curvature
SIZE 4 4 4 4 4 4 4
TYPE F F F F F F F
COUNT 1 1 1 1 1 1 1
WIDTH 210
HEIGHT 1
VIEWPOINT 0 0 0 1 0 0 0
POINTS 210
DATA ascii
-193.417000 -82.076100 -1599.980000 0.952311 -0.253200 -0.170276 0.010000
-193.976000 -81.413000 -1601.300000 0.953036 -0.230489 -0.196463 1.000000
-194.368000 -81.080600 -1602.800000 0.950456 -0.222298 -0.217293 1.000000
-194.261000 -80.381300 -1604.210000 0.947765 -0.221587 -0.229437 1.000000
-194.698000 -80.881500 -1605.650000 0.945638 -0.219512 -0.239963 1.000000
-194.934000 -80.112000 -1607.010000 0.942603 -0.221698 -0.249699 1.000000
-195.574000 -79.886200 -1608.440000 0.938766 -0.224013 -0.261795 1.000000
-195.649000 -79.227200 -1609.870000 0.935665 -0.228402 -0.269006 1.000000
-195.757000 -78.502100 -1611.270000 0.933264 -0.233490 -0.272949 1.000000
-196.290000 -78.715500 -1612.750000 0.929641 -0.238741 -0.280660 1.000000
-196.617000 -78.619000 -1614.290000 0.925943 -0.245382 -0.287083 1.000000
-197.379000 -78.885000 -1615.650000 0.921315 -0.252704 -0.295498 1.000000
-198.024000 -79.357900 -1617.010000 0.915771 -0.261200 -0.305185 1.000000
-198.443000 -79.019200 -1618.500000 0.911393 -0.270529 -0.310125 1.000000
-198.773000 -78.868900 -1620.040000 0.908234 -0.279579 -0.311364 1.000000
-199.552000 -79.147100 -1621.390000 0.904818 -0.287529 -0.314057 1.000000
-200.045000 -78.938700 -1622.870000 0.903563 -0.292149 -0.313405 1.000000
-200.471000 -78.651700 -1624.370000 0.903428 -0.293685 -0.312357 0.591959
-200.746000 -78.220200 -1625.870000 0.904281 -0.291722 -0.311729 1.000000
-200.775000 -77.551400 -1627.300000 0.905596 -0.286276 -0.312957 1.000000
-201.066000 -77.192000 -1628.810000 0.906676 -0.279243 -0.316167 1.000000
-201.625000 -77.104100 -1630.290000 0.905247 -0.272525 -0.325973 1.000000
-202.325000 -76.897900 -1631.690000 0.903129 -0.267216 -0.336086 1.000000
-202.782000 -76.922000 -1633.200000 0.900357 -0.263736 -0.346123 1.000000
-203.006000 -76.120900 -1634.550000 0.897444 -0.261033 -0.355606 1.000000
-203.849000 -75.811000 -1635.850000 0.893737 -0.260650 -0.365098 1.000000
-204.042000 -75.165000 -1637.280000 0.890151 -0.261590 -0.373097 1.000000
-204.770000 -74.980900 -1638.670000 0.886746 -0.265001 -0.378757 1.000000
-205.299000 -74.633200 -1640.120000 0.885446 -0.269712 -0.378473 1.000000
-205.780000 -74.420500 -1641.610000 0.883883 -0.274732 -0.378515 1.000000
-206.215000 -73.902100 -1643.040000 0.882755 -0.279668 -0.377530 1.000000
-206.834000 -73.542500 -1644.450000 0.881212 -0.284963 -0.377175 1.000000
-207.050000 -73.235100 -1645.980000 0.879787 -0.290174 -0.376528 1.000000
-207.158000 -72.521500 -1647.390000 0.879372 -0.294233 -0.374341 1.000000
-207.468000 -72.408900 -1648.940000 0.877640 -0.299497 -0.374231 1.000000
-208.491000 -73.222900 -1649.830000 0.874283 -0.305726 -0.377042 1.000000
-209.425000 -73.607100 -1651.040000 0.871963 -0.311659 -0.377557 1.000000
-210.049000 -74.227800 -1652.360000 0.869906 -0.317498 -0.377437 1.000000
-210.551000 -73.894500 -1653.820000 0.870307 -0.319469 -0.374840 1.000000
-211.133000 -73.727300 -1655.280000 0.870860 -0.320729 -0.372474 1.000000
-211.046000 -73.461900 -1656.840000 0.872277 -0.319141 -0.370515 1.000000
-211.413000 -72.199800 -1657.710000 0.874750 -0.312996 -0.369927 1.000000
-212.116000 -71.205000 -1659.640000 0.878483 -0.307206 -0.365912 1.000000
-211.963000 -69.977900 -1660.630000 0.881399 -0.299659 -0.365157 1.000000
-212.446000 -69.307200 -1661.970000 0.884261 -0.295133 -0.361910 1.000000
-212.873000 -68.740400 -1663.390000 0.887289 -0.290706 -0.358063 1.000000
-213.281000 -68.184600 -1664.810000 0.890576 -0.285909 -0.353738 1.000000
-213.323000 -68.345200 -1666.380000 0.892364 -0.283636 -0.351052 1.000000
-213.719000 -67.287500 -1667.490000 0.892238 -0.276203 -0.357243 1.000000
-214.228000 -66.819300 -1668.910000 0.891728 -0.271440 -0.362135 1.000000
-214.506000 -66.342600 -1670.390000 0.891731 -0.266247 -0.365963 1.000000
-214.917000 -65.491000 -1671.660000 0.892356 -0.259339 -0.369383 1.000000
-215.321000 -64.803000 -1673.020000 0.893371 -0.252302 -0.371796 1.000000
-215.644000 -64.020900 -1674.360000 0.894757 -0.243981 -0.374010 1.000000
-215.681000 -62.897600 -1675.470000 0.895081 -0.235779 -0.378469 0.010000
-215.295000 -61.372000 -1675.320000 0.894988 -0.229232 -0.382688 1.000000
-214.982000 -59.834300 -1675.120000 0.896771 -0.219179 -0.384398 1.000000
-214.612000 -58.364000 -1674.680000 0.899399 -0.207837 -0.384558 1.000000
-213.928000 -57.363600 -1673.660000 0.899656 -0.209284 -0.383169 1.000000
-213.306000 -56.157500 -1672.850000 0.899551 -0.210962 -0.382495 1.000000
-212.690000 -54.749200 -1672.480000 0.899092 -0.212593 -0.382671 1.000000
-212.011000 -53.504300 -1671.780000 0.898656 -0.214254 -0.382771 1.000000
-211.428000 -52.267400 -1670.990000 0.898080 -0.215953 -0.383166 1.000000
-210.807000 -50.937100 -1670.400000 0.897298 -0.217585 -0.384075 1.000000
-210.180000 -49.757500 -1669.550000 0.896383 -0.219377 -0.385189 1.000000
-209.589000 -48.436400 -1668.920000 0.895246 -0.221051 -0.386875 1.000000
-208.977000 -47.265900 -1668.050000 0.893845 -0.222962 -0.389010 1.000000
-208.349000 -45.927100 -1667.490000 0.892095 -0.225282 -0.391682 1.000000
-207.698000 -44.660500 -1666.800000 0.889321 -0.230704 -0.394821 1.000000
-207.073000 -43.358800 -1666.160000 0.886240 -0.236043 -0.398575 1.000000
-206.427000 -42.104700 -1665.440000 0.883191 -0.241268 -0.402197 1.000000
-205.913000 -40.688200 -1664.960000 0.880670 -0.246374 -0.404623 1.000000
-205.151000 -40.244600 -1663.650000 0.878802 -0.249411 -0.406818 1.000000
-204.406000 -39.148100 -1662.790000 0.876918 -0.253380 -0.408429 1.000000
-203.531000 -37.927400 -1662.290000 0.875453 -0.257335 -0.409098 1.000000
-202.654000 -36.730700 -1661.750000 0.874435 -0.260911 -0.409010 1.000000
-202.152000 -35.624100 -1660.740000 0.874084 -0.263316 -0.408217 1.000000
-201.838000 -34.193700 -1660.140000 0.874031 -0.266486 -0.406269 1.000000
-201.149000 -32.922500 -1659.500000 0.875387 -0.266383 -0.403408 1.000000
-200.396000 -31.713100 -1658.810000 0.878513 -0.261226 -0.399968 1.000000
-200.108000 -30.160300 -1658.890000 0.880832 -0.257065 -0.397558 1.000000
-199.236000 -29.376700 -1657.830000 0.884196 -0.252519 -0.392977 1.000000
-198.831000 -27.895600 -1657.460000 0.887086 -0.247995 -0.389328 1.000000
-198.197000 -26.531100 -1656.970000 0.890153 -0.243451 -0.385174 1.000000
-197.492000 -25.124700 -1656.810000 0.892661 -0.239229 -0.382002 1.000000
-197.017000 -24.139700 -1655.670000 0.896091 -0.235505 -0.376243 1.000000
-196.257000 -23.228600 -1654.620000 0.898679 -0.231818 -0.372339 1.000000
-195.625000 -21.982000 -1653.890000 0.900798 -0.228216 -0.369433 1.000000
-195.135000 -20.479300 -1653.860000 0.902204 -0.224941 -0.368007 1.000000
-194.395000 -19.189500 -1653.320000 0.903302 -0.224025 -0.365867 1.000000
-193.693000 -17.797500 -1653.050000 0.904074 -0.223370 -0.364358 0.828757
-193.413000 -16.241400 -1653.040000 0.904408 -0.222788 -0.363884 0.510894
-193.151000 -14.684700 -1652.960000 0.904710 -0.222136 -0.363533 0.702226
-192.752000 -13.240200 -1652.450000 0.905340 -0.221598 -0.362289 0.529293
-192.644000 -11.743600 -1652.950000 0.904872 -0.220647 -0.364035 1.000000
-192.542000 -10.189200 -1653.220000 0.904479 -0.219456 -0.365727 1.000000
-192.321000 -8.638700 -1653.440000 0.904035 -0.218042 -0.367665 1.000000
-191.995000 -7.095360 -1653.550000 0.903589 -0.216532 -0.369650 1.000000
-191.362000 -5.694680 -1653.180000 0.901969 -0.223761 -0.369300 1.000000
-191.009000 -4.158290 -1653.050000 0.899495 -0.232110 -0.370180 1.000000
-190.629000 -2.684330 -1652.630000 0.897479 -0.240630 -0.369632 1.000000
-189.860000 -1.374600 -1653.070000 0.894522 -0.248171 -0.371808 1.000000
-189.310000 -0.096380 -1652.320000 0.893254 -0.256516 -0.369184 1.000000
-188.692000 1.077720 -1651.460000 0.892324 -0.264541 -0.365754 1.000000
-188.059000 2.411360 -1650.890000 0.890607 -0.273155 -0.363600 1.000000
-187.355000 3.358890 -1649.840000 0.890262 -0.280315 -0.358968 1.000000
-186.863000 4.855940 -1649.710000 0.887441 -0.289193 -0.358911 1.000000
-186.102000 5.867140 -1648.760000 0.886605 -0.296708 -0.354818 1.000000
-185.422000 6.883220 -1647.760000 0.887119 -0.299329 -0.351315 1.000000
-184.725000 7.427100 -1646.450000 0.888207 -0.302075 -0.346178 1.000000
-183.975000 8.573510 -1645.660000 0.888095 -0.304832 -0.344041 1.000000
-183.192000 9.931790 -1645.450000 0.887113 -0.307057 -0.344596 1.000000
-182.551000 10.935700 -1644.410000 0.887005 -0.310244 -0.342009 1.000000
-181.853000 12.027600 -1643.510000 0.885166 -0.312808 -0.344431 1.000000
-181.139000 13.438400 -1643.530000 0.883683 -0.314897 -0.346329 1.000000
-180.689000 14.933500 -1643.280000 0.881972 -0.317125 -0.348652 1.000000
-180.405000 16.453600 -1642.950000 0.880219 -0.319347 -0.351044 1.000000
-179.544000 17.448100 -1642.070000 0.878000 -0.322114 -0.354059 1.000000
-178.914000 18.867900 -1641.780000 0.876202 -0.324415 -0.356406 1.000000
-178.233000 20.210100 -1641.290000 0.874858 -0.325918 -0.358331 1.000000
-177.418000 21.052900 -1640.230000 0.873930 -0.326857 -0.359737 0.813252
-176.505000 22.340000 -1640.130000 0.873684 -0.327446 -0.359798 0.152052
-175.935000 22.709100 -1638.700000 0.873821 -0.326734 -0.360113 0.785871
-175.242000 23.113100 -1637.340000 0.874526 -0.325112 -0.359870 1.000000
-174.086000 24.011900 -1636.740000 0.875988 -0.323468 -0.357791 1.000000
-173.587000 24.808700 -1635.470000 0.878256 -0.320273 -0.355094 1.000000
-172.992000 26.079400 -1634.740000 0.881281 -0.317499 -0.350053 1.000000
-172.376000 27.382300 -1634.090000 0.884594 -0.314297 -0.344544 1.000000
-171.709000 28.541800 -1633.250000 0.887775 -0.309384 -0.340790 1.000000
-171.036000 29.707500 -1632.420000 0.891271 -0.303905 -0.336569 1.000000
-170.288000 30.265700 -1631.140000 0.894097 -0.295353 -0.336687 0.010000
-170.003000 29.706700 -1629.690000 0.893891 -0.287793 -0.343707 1.000000
-170.088000 28.410000 -1628.790000 0.891186 -0.286059 -0.352077 1.000000
-169.697000 27.809900 -1627.380000 0.890335 -0.281172 -0.358114 1.000000
-169.556000 26.613000 -1626.360000 0.887729 -0.281065 -0.364609 1.000000
-169.624000 25.361700 -1625.390000 0.885630 -0.283338 -0.367938 1.000000
-169.682000 24.091600 -1624.450000 0.886456 -0.287729 -0.362502 1.000000
-169.759000 22.738400 -1623.640000 0.886590 -0.293454 -0.357552 1.000000
-170.138000 21.246100 -1623.280000 0.884070 -0.301482 -0.357111 1.000000
-170.514000 19.759000 -1622.900000 0.881293 -0.310234 -0.356478 1.000000
-170.742000 18.288500 -1622.360000 0.878881 -0.319214 -0.354502 1.000000
-171.381000 16.850000 -1622.510000 0.873031 -0.330606 -0.358494 1.000000
-171.993000 15.393100 -1622.570000 0.868522 -0.340056 -0.360598 1.000000
-172.310000 13.971700 -1621.960000 0.871809 -0.334746 -0.357623 1.000000
-172.525000 12.520700 -1621.370000 0.874784 -0.328572 -0.356081 1.000000
-172.623000 11.078800 -1620.730000 0.877559 -0.321629 -0.355590 1.000000
-172.975000 9.583930 -1620.350000 0.879507 -0.313845 -0.357727 1.000000
-173.591000 8.131140 -1620.250000 0.880431 -0.306389 -0.361894 1.000000
-173.683000 6.711770 -1619.560000 0.882239 -0.297457 -0.364929 1.000000
-173.536000 5.559530 -1618.490000 0.884597 -0.287648 -0.367078 1.000000
-174.161000 4.115080 -1618.340000 0.884427 -0.279147 -0.373987 1.000000
-174.615000 2.618410 -1618.110000 0.884162 -0.269910 -0.381322 1.000000
-174.974000 1.112320 -1617.790000 0.882404 -0.263997 -0.389447 1.000000
-175.244000 -0.358024 -1617.270000 0.878591 -0.266395 -0.396373 1.000000
-175.162000 -1.746800 -1616.520000 0.875515 -0.269805 -0.400848 1.000000
-175.544000 -3.233850 -1616.140000 0.875221 -0.279304 -0.394939 1.000000
-175.704000 -4.748100 -1615.720000 0.878829 -0.292036 -0.377326 1.000000
-176.286000 -6.213300 -1615.600000 0.878105 -0.304124 -0.369379 1.000000
-176.599000 -7.682100 -1615.100000 0.881884 -0.320746 -0.345548 1.000000
-176.621000 -9.126530 -1614.460000 0.886241 -0.340229 -0.314359 1.000000
-177.290000 -10.558500 -1614.420000 0.885009 -0.354463 -0.301853 1.000000
-177.888000 -11.998900 -1614.680000 0.883685 -0.365172 -0.292831 1.000000
-178.334000 -13.464200 -1614.290000 0.895299 -0.356658 -0.266897 1.000000
-178.684000 -14.955200 -1613.900000 0.907252 -0.341950 -0.244877 1.000000
-179.428000 -16.340500 -1614.060000 0.916942 -0.320152 -0.238158 1.000000
-179.810000 -17.714000 -1613.380000 0.926573 -0.305498 -0.219394 1.000000
-180.126000 -19.099400 -1612.680000 0.935612 -0.288272 -0.203788 1.000000
-180.456000 -20.607600 -1612.340000 0.943686 -0.266325 -0.196284 1.000000
-180.597000 -21.947800 -1611.520000 0.951630 -0.246477 -0.183437 1.000000
-180.526000 -23.524300 -1611.610000 0.957118 -0.222599 -0.185407 1.000000
-180.869000 -24.758000 -1610.690000 0.963998 -0.200859 -0.174252 1.000000
-181.242000 -26.021700 -1609.810000 0.970280 -0.177830 -0.164112 1.000000
-181.525000 -27.257300 -1608.870000 0.971491 -0.180126 -0.154143 1.000000
-181.794000 -28.668900 -1608.210000 0.970935 -0.186696 -0.149768 1.000000
-182.138000 -30.035400 -1607.490000 0.970604 -0.191985 -0.145156 1.000000
-182.060000 -31.147400 -1606.370000 0.971454 -0.191517 -0.139993 1.000000
-181.649000 -32.457200 -1605.580000 0.970928 -0.192989 -0.141612 1.000000
-182.296000 -33.802800 -1605.060000 0.969421 -0.197058 -0.146257 1.000000
-182.929000 -35.243600 -1605.210000 0.966125 -0.204643 -0.157236 1.000000
-182.986000 -36.667000 -1604.530000 0.965472 -0.205353 -0.160294 1.000000
-182.844000 -38.084800 -1603.840000 0.965223 -0.204437 -0.162939 1.000000
-182.709000 -39.549000 -1603.260000 0.964792 -0.202871 -0.167392 1.000000
-183.073000 -41.018300 -1602.800000 0.963286 -0.203022 -0.175674 1.000000
-183.670000 -42.392800 -1602.300000 0.960939 -0.207475 -0.183165 1.000000
-183.899000 -43.796600 -1601.610000 0.959600 -0.210470 -0.186737 1.000000
-183.888000 -45.112300 -1600.730000 0.959370 -0.211604 -0.186635 1.000000
-184.145000 -46.601100 -1600.270000 0.956868 -0.217249 -0.192891 1.000000
-184.251000 -48.164600 -1600.060000 0.953334 -0.224519 -0.201853 1.000000
-184.427000 -49.727400 -1599.890000 0.949335 -0.232112 -0.211865 1.000000
-184.732000 -51.253400 -1599.610000 0.945413 -0.238826 -0.221713 1.000000
-185.160000 -52.753900 -1599.360000 0.940955 -0.245700 -0.232885 1.000000
-185.717000 -54.223200 -1599.530000 0.934402 -0.256126 -0.247573 1.000000
-185.844000 -55.789100 -1599.360000 0.930316 -0.259268 -0.259408 1.000000
-185.787000 -57.353700 -1599.130000 0.927785 -0.258179 -0.269367 1.000000
-186.575000 -58.717900 -1599.270000 0.923943 -0.261680 -0.279021 1.000000
-187.282000 -60.059800 -1599.720000 0.920741 -0.266032 -0.285418 1.000000
-187.793000 -61.555500 -1599.670000 0.918763 -0.268538 -0.289415 1.000000
-188.372000 -63.026800 -1599.690000 0.917443 -0.271759 -0.290595 1.000000
-188.735000 -64.482200 -1599.190000 0.916130 -0.275985 -0.290756 1.000000
-189.358000 -65.820900 -1599.760000 0.917017 -0.278880 -0.285141 1.000000
-189.725000 -67.354500 -1599.870000 0.917947 -0.282985 -0.278016 1.000000
-190.005000 -68.908200 -1599.780000 0.920398 -0.284275 -0.268431 1.000000
-190.634000 -70.307800 -1600.170000 0.926964 -0.273379 -0.256908 1.000000
-191.245000 -71.750000 -1600.380000 0.932146 -0.264668 -0.247091 1.000000
-191.784000 -73.229000 -1600.230000 0.936069 -0.258874 -0.238239 1.000000
-191.729000 -74.645700 -1599.530000 0.938359 -0.258431 -0.229557 1.000000
-192.180000 -76.126200 -1599.850000 0.942322 -0.251478 -0.220879 1.000000
-192.576000 -77.593200 -1599.420000 0.945319 -0.251100 -0.208136 1.000000
-193.023000 -79.076900 -1599.100000 0.948690 -0.253569 -0.188919 1.000000
-193.360000 -80.555900 -1599.550000 0.952311 -0.253200 -0.170276 1.000000
