# .PCD v0.7 - Point Cloud Data file format
# 4 171 0
# 1 37 0
# 38 96 0
# 97 126 0
# 127 171 0
VERSION 0.7
FIELDS x y z normal_x normal_y normal_z curvature
SIZE 4 4 4 4 4 4 4
TYPE F F F F F F F
COUNT 1 1 1 1 1 1 1
WIDTH 171
HEIGHT 1
VIEWPOINT 0 0 0 1 0 0 0
POINTS 171
DATA ascii
300.673000 179.886000 -1438.020000 -0.987451 -0.157089 0.016235 0.010000
300.093000 180.653000 -1439.300000 -0.986118 -0.166028 0.002355 1.000000
300.124000 181.206000 -1440.800000 -0.983815 -0.178351 -0.017314 1.000000
300.084000 182.185000 -1442.060000 -0.981546 -0.189285 -0.027197 1.000000
299.780000 183.290000 -1443.180000 -0.980148 -0.195857 -0.030829 1.000000
299.387000 184.456000 -1444.200000 -0.979661 -0.198266 -0.030918 1.000000
299.675000 185.052000 -1445.660000 -0.977538 -0.207085 -0.039180 1.000000
299.560000 186.299000 -1446.650000 -0.978212 -0.204557 -0.035474 1.000000
299.376000 186.846000 -1448.150000 -0.977066 -0.209645 -0.037299 1.000000
299.371000 187.611000 -1449.550000 -0.977018 -0.210826 -0.031425 1.000000
299.033000 188.811000 -1450.550000 -0.977203 -0.212052 -0.010445 1.000000
298.993000 189.496000 -1452.000000 -0.975232 -0.221062 0.007400 1.000000
299.031000 190.143000 -1453.460000 -0.972863 -0.230219 0.023153 1.000000
298.833000 191.537000 -1454.220000 -0.972328 -0.230228 0.039677 1.000000
298.388000 192.108000 -1455.650000 -0.969565 -0.238954 0.053325 1.000000
297.856000 192.929000 -1456.910000 -0.967155 -0.245119 0.067293 1.000000
297.362000 193.828000 -1458.140000 -0.964849 -0.249948 0.081197 1.000000
297.004000 195.124000 -1459.010000 -0.965057 -0.243550 0.096684 1.000000
296.862000 195.646000 -1460.520000 -0.967090 -0.239613 0.085569 1.000000
296.722000 196.438000 -1461.900000 -0.969880 -0.231795 0.074858 1.000000
296.436000 197.688000 -1462.850000 -0.975014 -0.209664 0.073410 1.000000
296.067000 198.579000 -1464.130000 -0.977860 -0.199046 0.064577 1.000000
295.742000 199.285000 -1465.530000 -0.979383 -0.195423 0.051168 1.000000
295.495000 200.010000 -1466.930000 -0.980505 -0.193077 0.036494 1.000000
295.215000 200.745000 -1468.330000 -0.981312 -0.191254 0.021203 1.000000
294.884000 201.747000 -1469.530000 -0.983143 -0.182464 0.011662 1.000000
294.726000 202.698000 -1470.810000 -0.981899 -0.188986 0.012604 1.000000
294.529000 204.027000 -1471.670000 -0.980525 -0.193849 0.031527 1.000000
294.358000 205.120000 -1472.830000 -0.977803 -0.204768 0.044391 1.000000
294.145000 206.239000 -1473.950000 -0.975171 -0.213813 0.057665 1.000000
293.965000 207.293000 -1475.140000 -0.972466 -0.222218 0.070209 1.000000
293.864000 208.014000 -1476.570000 -0.969176 -0.232921 0.080286 1.000000
293.478000 208.844000 -1477.880000 -0.966347 -0.239669 0.093448 1.000000
292.858000 209.950000 -1478.860000 -0.964976 -0.238484 0.109301 1.000000
292.319000 210.948000 -1479.990000 -0.963468 -0.236741 0.125235 1.000000
292.001000 211.454000 -1481.470000 -0.963932 -0.234036 0.126735 1.000000
291.606000 212.201000 -1482.830000 -0.965693 -0.227433 0.125347 1.000000
291.331000 212.623000 -1484.350000 -0.966175 -0.228780 0.119014 1.000000
290.528000 213.576000 -1485.350000 -0.968383 -0.219819 0.117960 1.000000
290.149000 213.981000 -1486.850000 -0.968561 -0.224586 0.107010 1.000000
289.345000 214.788000 -1487.970000 -0.969715 -0.222218 0.101352 1.000000
289.018000 216.019000 -1488.940000 -0.970950 -0.217356 0.100060 1.000000
288.977000 217.142000 -1490.080000 -0.971157 -0.218802 0.094766 1.000000
288.998000 218.552000 -1490.840000 -0.970862 -0.219001 0.097287 1.000000
289.211000 219.904000 -1491.670000 -0.969045 -0.225548 0.100403 1.000000
288.683000 221.389000 -1491.940000 -0.966438 -0.230129 0.114184 1.000000
287.614000 223.717000 -1495.560000 -0.953907 -0.288293 0.083355 1.000000
287.152000 224.614000 -1496.800000 -0.946516 -0.314835 0.070611 1.000000
286.569000 225.297000 -1498.130000 -0.938450 -0.341258 0.053436 1.000000
286.241000 225.921000 -1499.560000 -0.930776 -0.364021 0.033829 1.000000
285.867000 226.650000 -1500.940000 -0.920859 -0.389557 0.016239 1.000000
285.815000 227.164000 -1502.450000 -0.916651 -0.399403 0.015082 1.000000
285.911000 227.473000 -1504.020000 -0.919495 -0.391568 0.034689 1.000000
285.782000 227.739000 -1505.590000 -0.922784 -0.378771 0.070722 1.000000
285.630000 227.893000 -1507.170000 -0.925789 -0.357581 0.122681 1.000000
285.452000 227.568000 -1508.730000 -0.928000 -0.318623 0.193122 1.000000
284.797000 228.023000 -1510.120000 -0.918848 -0.307548 0.247250 1.000000
284.489000 227.343000 -1511.530000 -0.910507 -0.252832 0.327190 1.000000
283.799000 227.109000 -1512.960000 -0.893041 -0.218522 0.393353 1.000000
283.119000 227.019000 -1514.400000 -0.875437 -0.251237 0.412905 1.000000
282.446000 227.199000 -1515.840000 -0.903065 -0.234492 0.359844 1.000000
281.998000 226.951000 -1517.360000 -0.924665 -0.248074 0.288883 1.000000
281.755000 226.858000 -1518.940000 -0.939412 -0.267407 0.214472 1.000000
282.033000 226.680000 -1520.500000 -0.943113 -0.300121 0.143057 1.000000
282.713000 226.393000 -1521.920000 -0.937202 -0.339761 0.078829 1.000000
282.656000 225.557000 -1523.290000 -0.941218 -0.332049 0.062067 1.000000
282.295000 224.850000 -1524.670000 -0.948119 -0.309946 0.070735 1.000000
282.135000 223.990000 -1526.010000 -0.952877 -0.288581 0.093523 1.000000
282.290000 223.099000 -1527.330000 -0.954931 -0.268153 0.127285 1.000000
282.237000 222.293000 -1528.710000 -0.953838 -0.247986 0.169399 1.000000
282.106000 221.451000 -1530.070000 -0.948065 -0.249449 0.197353 1.000000
282.015000 220.511000 -1531.360000 -0.942271 -0.253419 0.218871 1.000000
282.026000 219.472000 -1532.580000 -0.937539 -0.259026 0.232220 1.000000
281.879000 218.409000 -1533.760000 -0.934571 -0.264987 0.237399 1.000000
281.736000 217.467000 -1535.050000 -0.933568 -0.270276 0.235377 1.000000
281.896000 216.468000 -1536.290000 -0.933734 -0.272997 0.231546 1.000000
282.196000 215.203000 -1537.220000 -0.934548 -0.274225 0.226763 1.000000
282.254000 214.011000 -1538.290000 -0.935010 -0.276161 0.222465 1.000000
282.485000 212.666000 -1539.120000 -0.935212 -0.279444 0.217460 1.000000
282.551000 211.311000 -1539.970000 -0.932190 -0.297149 0.206697 1.000000
282.317000 210.939000 -1541.510000 -0.928529 -0.307787 0.207609 1.000000
281.960000 210.529000 -1543.010000 -0.924142 -0.313870 0.217826 1.000000
282.477000 209.046000 -1543.310000 -0.915887 -0.335634 0.220228 0.010000
283.229000 208.086000 -1542.280000 -0.913450 -0.353198 0.202138 1.000000
283.851000 206.741000 -1541.680000 -0.908082 -0.374175 0.188097 1.000000
284.428000 205.409000 -1541.000000 -0.905205 -0.388216 0.172891 1.000000
285.090000 204.187000 -1540.210000 -0.904629 -0.397137 0.154689 1.000000
285.947000 203.269000 -1539.220000 -0.906706 -0.400024 0.133661 1.000000
286.499000 202.140000 -1538.230000 -0.909227 -0.401171 0.111212 1.000000
287.143000 201.210000 -1537.100000 -0.913689 -0.396937 0.087253 1.000000
287.767000 200.159000 -1536.070000 -0.917930 -0.392078 0.060654 1.000000
287.935000 198.845000 -1535.170000 -0.920900 -0.388639 0.030041 1.000000
288.589000 198.087000 -1533.920000 -0.921582 -0.386182 0.039372 1.000000
289.691000 197.082000 -1533.340000 -0.913627 -0.404974 0.035803 1.000000
290.217000 196.467000 -1531.960000 -0.912989 -0.404122 0.056009 1.000000
290.562000 195.182000 -1531.070000 -0.904249 -0.423287 0.056227 1.000000
291.126000 193.865000 -1530.360000 -0.892216 -0.448746 0.050764 1.000000
291.518000 192.865000 -1529.170000 -0.886087 -0.459771 0.058828 1.000000
292.060000 191.961000 -1527.970000 -0.880123 -0.470023 0.066806 1.000000
292.497000 190.979000 -1526.790000 -0.873767 -0.480763 0.073476 1.000000
292.812000 189.866000 -1525.680000 -0.870730 -0.487296 0.066121 1.000000
293.440000 188.686000 -1524.800000 -0.876395 -0.478957 0.050314 1.000000
293.875000 187.416000 -1523.930000 -0.896133 -0.439912 0.058513 1.000000
294.611000 186.326000 -1523.020000 -0.912909 -0.403433 0.061963 1.000000
295.071000 185.195000 -1521.990000 -0.925613 -0.373888 0.058715 1.000000
295.599000 184.197000 -1520.850000 -0.934612 -0.352260 0.049126 1.000000
296.116000 182.845000 -1520.170000 -0.947338 -0.315224 0.056442 1.000000
296.652000 181.529000 -1519.440000 -0.955166 -0.290305 0.058140 1.000000
297.216000 180.409000 -1518.440000 -0.958024 -0.282745 0.047387 1.000000
297.717000 179.488000 -1517.230000 -0.954242 -0.296068 0.042022 1.000000
298.172000 178.090000 -1516.600000 -0.951428 -0.303216 0.053336 1.000000
298.635000 176.946000 -1515.580000 -0.946262 -0.319158 0.052221 1.000000
299.091000 175.703000 -1514.690000 -0.940424 -0.335996 0.052050 1.000000
299.507000 174.774000 -1513.450000 -0.934363 -0.353664 0.043453 1.000000
299.899000 173.603000 -1512.430000 -0.927735 -0.371235 0.038622 1.000000
300.237000 173.184000 -1510.930000 -0.923759 -0.382066 0.026344 1.000000
300.538000 172.774000 -1509.410000 -0.920640 -0.390008 0.017776 1.000000
300.972000 171.768000 -1508.250000 -0.915811 -0.401411 0.012639 1.000000
301.450000 170.837000 -1507.030000 -0.912763 -0.408477 0.003159 1.000000
301.767000 170.002000 -1505.710000 -0.910920 -0.412542 -0.005774 1.000000
302.212000 168.840000 -1504.700000 -0.907200 -0.420433 -0.014996 1.000000
302.622000 167.809000 -1503.550000 -0.904814 -0.425138 -0.023885 1.000000
303.071000 166.575000 -1502.640000 -0.901408 -0.431664 -0.033617 1.000000
303.392000 165.830000 -1501.260000 -0.902197 -0.429488 -0.039763 1.000000
303.630000 165.288000 -1499.770000 -0.904890 -0.423526 -0.042428 1.000000
303.468000 165.318000 -1498.180000 -0.911179 -0.410377 -0.036657 1.000000
303.347000 164.724000 -1496.700000 -0.915044 -0.401897 -0.034243 1.000000
303.813000 164.431000 -1495.200000 -0.918909 -0.393198 -0.031654 1.000000
304.473000 163.984000 -1493.810000 -0.921174 -0.387777 -0.032670 1.000000
304.814000 163.104000 -1492.520000 -0.921418 -0.386749 -0.037597 1.000000
304.999000 161.894000 -1491.490000 -0.918756 -0.392095 -0.046353 1.000000
305.115000 161.638000 -1489.910000 -0.923374 -0.381205 -0.045425 1.000000
305.160000 161.223000 -1488.370000 -0.927663 -0.370645 -0.045419 1.000000
305.583000 160.228000 -1487.190000 -0.925015 -0.375865 -0.055435 1.000000
305.985000 159.356000 -1485.910000 -0.923189 -0.378921 -0.064355 1.000000
306.069000 158.300000 -1484.710000 -0.919028 -0.388082 -0.069129 1.000000
306.147000 157.638000 -1483.260000 -0.920155 -0.385794 -0.066907 1.000000
306.216000 157.066000 -1481.760000 -0.922998 -0.379815 -0.061766 1.000000
306.232000 156.178000 -1480.430000 -0.922171 -0.381905 -0.061231 1.000000
306.311000 155.994000 -1478.850000 -0.930514 -0.363194 -0.047265 1.000000
306.566000 154.942000 -1477.670000 -0.925846 -0.374278 -0.052197 1.000000
306.596000 154.770000 -1476.080000 -0.934900 -0.353036 -0.036451 0.010000
306.734000 155.157000 -1474.530000 -0.951065 -0.308887 -0.007956 1.000000
306.694000 155.315000 -1472.940000 -0.962518 -0.270876 0.013589 1.000000
306.710000 155.357000 -1471.340000 -0.965232 -0.260892 0.016216 1.000000
306.645000 155.543000 -1469.750000 -0.968102 -0.249816 0.019271 1.000000
306.463000 156.069000 -1468.250000 -0.971522 -0.235823 0.023091 1.000000
306.126000 157.207000 -1467.180000 -0.975715 -0.217281 0.027727 1.000000
305.865000 158.433000 -1466.180000 -0.975139 -0.221018 0.015964 1.000000
305.699000 159.240000 -1464.810000 -0.968901 -0.247306 -0.008438 1.000000
305.544000 160.130000 -1463.490000 -0.961533 -0.273022 -0.030225 1.000000
305.405000 161.025000 -1462.170000 -0.953447 -0.297660 -0.048347 1.000000
305.283000 161.430000 -1460.630000 -0.947506 -0.314680 -0.056642 1.000000
305.026000 162.338000 -1459.340000 -0.958787 -0.282654 -0.028897 1.000000
304.714000 163.158000 -1458.000000 -0.967763 -0.251762 -0.007087 1.000000
304.563000 163.563000 -1456.460000 -0.973343 -0.229330 0.003426 1.000000
304.315000 164.653000 -1455.320000 -0.980289 -0.197348 0.009344 1.000000
303.999000 165.878000 -1454.340000 -0.983405 -0.181349 -0.005193 1.000000
303.742000 167.076000 -1453.310000 -0.982425 -0.183156 -0.035982 1.000000
303.500000 167.980000 -1452.010000 -0.979709 -0.186837 -0.072540 1.000000
303.184000 168.731000 -1450.630000 -0.975367 -0.190308 -0.111544 1.000000
302.731000 169.544000 -1449.330000 -0.970108 -0.191633 -0.148884 1.000000
302.349000 170.322000 -1447.990000 -0.972447 -0.166250 -0.163424 1.000000
301.885000 171.073000 -1446.650000 -0.976477 -0.137006 -0.166502 1.000000
302.245000 172.107000 -1445.490000 -0.982446 -0.106438 -0.153202 1.000000
302.212000 173.072000 -1444.210000 -0.989533 -0.071314 -0.125458 1.000000
301.870000 174.000000 -1442.950000 -0.993638 -0.056695 -0.097311 1.000000
301.487000 174.973000 -1441.740000 -0.994504 -0.068638 -0.079066 1.000000
301.063000 175.957000 -1440.550000 -0.995179 -0.082115 -0.053631 1.000000
301.403000 177.291000 -1439.740000 -0.993890 -0.107293 -0.025900 1.000000
301.018000 178.618000 -1438.930000 -0.990044 -0.140718 -0.003367 1.000000
