# .PCD v0.7 - Point Cloud Data file format
# 4 42 0
# 1 5 0
# 6 31 0
# 32 38 0
# 39 42 0
VERSION 0.7
FIELDS x y z normal_x normal_y normal_z curvature
SIZE 4 4 4 4 4 4 4
TYPE F F F F F F F
COUNT 1 1 1 1 1 1 1
WIDTH 42
HEIGHT 1
VIEWPOINT 0 0 0 1 0 0 0
POINTS 42
DATA ascii
160.571000 -30.956100 -1696.760000 -0.207670 -0.839375 -0.502317 0.010000
161.311000 -32.030500 -1698.050000 -0.876108 -0.453695 -0.163080 1.000000
161.867000 -33.862800 -1697.300000 -0.954512 -0.294814 -0.044640 1.000000
162.471000 -35.652500 -1696.500000 -0.974897 -0.222641 0.002528 1.000000
163.110000 -37.410900 -1695.650000 -0.983284 -0.180356 0.025002 1.000000
169.031000 -58.436000 -1658.450000 0.731795 0.508021 0.454303 1.000000
169.393000 -60.195700 -1657.450000 0.479219 0.395694 0.783438 1.000000
169.813000 -61.946500 -1656.460000 0.191686 0.285921 0.938885 1.000000
170.315000 -63.685000 -1655.490000 -0.021676 -0.423874 -0.905462 1.000000
168.806000 -63.590200 -1655.950000 0.074651 -0.387421 -0.918876 0.010000
166.968000 -63.079900 -1656.700000 0.156715 -0.318732 -0.934800 1.000000
165.228000 -62.346800 -1657.520000 0.205299 -0.245456 -0.947419 1.000000
163.858000 -61.073500 -1658.250000 -0.586426 -0.178007 0.790201 1.000000
162.657000 -59.561400 -1658.950000 -0.663019 -0.120766 0.738797 1.000000
161.488000 -58.059300 -1659.720000 0.328749 -0.365415 -0.870859 1.000000
160.651000 -56.469600 -1660.660000 -0.839048 0.281681 0.465461 1.000000
160.096000 -54.804900 -1661.730000 0.967480 0.190829 -0.166032 1.000000
161.551000 -53.545500 -1662.310000 0.327994 -0.626099 -0.707404 1.000000
162.744000 -52.119800 -1663.020000 0.400235 -0.608404 -0.685315 1.000000
163.390000 -50.402100 -1663.940000 -0.643656 0.754633 -0.127417 1.000000
163.721000 -48.760000 -1665.120000 0.029038 0.626823 0.778620 1.000000
163.884000 -47.156000 -1666.380000 -0.101356 0.623825 0.774964 1.000000
163.736000 -45.618900 -1667.730000 -0.343674 -0.613353 -0.711116 1.000000
163.611000 -44.662300 -1669.480000 -0.491382 -0.622117 -0.609520 1.000000
163.470000 -43.963900 -1671.390000 -0.042757 -0.535478 -0.843466 1.000000
163.008000 -42.675400 -1672.920000 -0.197430 0.465940 0.862509 1.000000
162.604000 -41.499300 -1674.550000 -0.087703 0.606563 0.790183 1.000000
162.256000 -40.435600 -1676.270000 0.014521 -0.682074 -0.731139 1.000000
160.564000 -41.235100 -1676.190000 0.092840 -0.660629 -0.744949 1.000000
159.495000 -41.401600 -1676.570000 0.097725 -0.679295 -0.727330 1.000000
159.817000 -40.079300 -1678.110000 0.130080 -0.714819 -0.687104 1.000000
159.021000 -39.507400 -1679.760000 -0.731328 -0.611343 -0.302357 1.000000
157.910000 -39.111900 -1681.440000 0.195233 -0.770854 -0.606357 1.000000
156.887000 -38.511400 -1683.120000 -0.434499 0.752980 0.494198 1.000000
155.923000 -37.743000 -1684.750000 -0.425521 0.716217 0.553141 1.000000
155.080000 -36.878100 -1686.360000 -0.454072 0.672389 0.584561 0.010000
156.373000 -36.226300 -1687.820000 -0.016769 -0.897816 -0.440051 1.000000
157.588000 -35.487500 -1689.300000 -0.303682 0.729204 0.613220 1.000000
158.711000 -34.647300 -1690.800000 -0.288708 0.739907 0.607606 1.000000
159.471000 -33.470100 -1692.290000 -0.897664 -0.426507 -0.110867 1.000000
159.973000 -32.165500 -1693.760000 0.315775 -0.751055 -0.579829 1.000000
159.999000 -30.673400 -1695.170000 -0.473649 0.628092 0.617380 1.000000
