# .PCD v0.7 - Point Cloud Data file format
# 3 30 0
# 1 5 0
# 6 26 0
# 27 30 0
VERSION 0.7
FIELDS x y z normal_x normal_y normal_z curvature
SIZE 4 4 4 4 4 4 4
TYPE F F F F F F F
COUNT 1 1 1 1 1 1 1
WIDTH 30
HEIGHT 1
VIEWPOINT 0 0 0 1 0 0 0
POINTS 30
DATA ascii
-43.680300 -7.889800 -1347.920000 -0.246288 -0.053424 0.967723 0.010000
-42.919600 -7.241160 -1347.640000 -0.261433 -0.050818 0.963883 1.000000
-42.179000 -6.577060 -1347.350000 -0.099676 0.279218 -0.955040 1.000000
-41.699500 -5.712030 -1347.030000 -0.292481 -0.048272 0.955052 1.000000
-41.220000 -4.847000 -1346.710000 -0.310130 -0.054419 0.949135 1.000000
-60.653800 -26.093600 -1355.030000 -0.304116 0.576716 -0.758230 1.000000
-60.025400 -25.274400 -1354.910000 -0.184404 0.617018 -0.765038 1.000000
-59.397000 -24.455200 -1354.790000 -0.116258 0.624258 -0.772519 1.000000
-58.763600 -23.647400 -1354.620000 -0.072981 0.625195 -0.777049 1.000000
-58.129800 -22.840500 -1354.460000 -0.043982 0.623762 -0.780376 0.010000
-57.482200 -22.079100 -1354.180000 -0.023947 0.621391 -0.783134 1.000000
-56.832300 -21.325200 -1353.880000 -0.010086 0.618717 -0.785549 1.000000
-56.191600 -20.560300 -1353.580000 -0.001250 0.616259 -0.787543 1.000000
-55.553300 -19.792500 -1353.300000 0.003902 0.614233 -0.789115 1.000000
-54.907900 -19.031100 -1353.000000 0.006383 0.612641 -0.790336 1.000000
-54.259700 -18.272300 -1352.710000 0.006384 0.611690 -0.791072 1.000000
-53.605500 -17.519100 -1352.420000 0.004367 0.611265 -0.791414 1.000000
-52.948000 -16.769000 -1352.130000 0.000364 0.611314 -0.791388 1.000000
-52.277800 -16.036700 -1351.820000 -0.005215 0.611143 -0.791503 1.000000
-51.597900 -15.317700 -1351.500000 -0.012427 0.609968 -0.792328 1.000000
-50.906600 -14.613500 -1351.180000 -0.029268 0.597480 -0.801350 1.000000
-50.203800 -13.923900 -1350.840000 -0.057743 0.563365 -0.824188 1.000000
-49.497200 -13.237200 -1350.510000 -0.081044 0.522417 -0.848830 1.000000
-48.785700 -12.554300 -1350.180000 -0.097140 0.479987 -0.871881 1.000000
-48.069200 -11.877800 -1349.850000 -0.106456 0.440894 -0.891224 1.000000
-47.344000 -11.212500 -1349.520000 -0.110601 0.407249 -0.906596 1.000000
-46.618400 -10.545200 -1349.190000 -0.111806 0.378952 -0.918638 1.000000
-45.891600 -9.872670 -1348.870000 -0.111258 0.355205 -0.928144 1.000000
-45.162100 -9.203400 -1348.560000 -0.109705 0.335205 -0.935736 1.000000
-44.422700 -8.545980 -1348.240000 -0.107487 0.318196 -0.941912 1.000000
