# .PCD v0.7 - Point Cloud Data file format
# 4 59 0
# 1 13 0
# 14 22 0
# 23 55 0
# 56 59 0
VERSION 0.7
FIELDS x y z normal_x normal_y normal_z curvature
SIZE 4 4 4 4 4 4 4
TYPE F F F F F F F
COUNT 1 1 1 1 1 1 1
WIDTH 59
HEIGHT 1
VIEWPOINT 0 0 0 1 0 0 0
POINTS 59
DATA ascii
-195.096000 -68.481300 -1643.900000 0.585567 -0.658460 -0.472802 0.010000
-196.869000 -68.921500 -1642.970000 0.601677 -0.649263 -0.465234 1.000000
-198.642000 -69.361700 -1642.040000 0.621859 -0.642931 -0.447136 1.000000
-200.416000 -69.801800 -1641.120000 0.643231 -0.644578 -0.413246 1.000000
-202.189000 -70.242000 -1640.190000 0.668938 -0.642739 -0.373375 1.000000
-194.567000 -83.283000 -1700.920000 0.166764 0.867589 0.468486 1.000000
-195.118000 -84.023300 -1699.090000 0.853318 0.477664 -0.209012 1.000000
-195.670000 -84.763700 -1697.260000 0.440325 -0.785709 -0.434483 1.000000
-196.221000 -85.504100 -1695.430000 0.042827 -0.940024 -0.338410 1.000000
-196.773000 -86.244500 -1693.600000 -0.041279 -0.945150 -0.324017 1.000000
-197.378000 -87.012800 -1691.800000 -0.073630 -0.939275 -0.335173 1.000000
-197.992000 -87.785800 -1690.010000 -0.070362 -0.919557 -0.386605 1.000000
-198.605000 -88.558800 -1688.210000 -0.069473 -0.889793 -0.451045 1.000000
-199.219000 -89.331800 -1686.420000 -0.082555 -0.855885 -0.510535 1.000000
-200.754000 -89.031500 -1686.050000 -0.128724 -0.847787 -0.514478 1.000000
-202.657000 -88.301900 -1686.260000 -0.167909 -0.846535 -0.505159 1.000000
-204.560000 -87.572300 -1686.470000 -0.194824 -0.843708 -0.500200 1.000000
-206.464000 -86.842700 -1686.680000 -0.214145 -0.840266 -0.498092 0.010000
-206.884000 -86.051000 -1687.760000 -0.224648 -0.848407 -0.479311 1.000000
-206.192000 -85.212800 -1689.500000 -0.233600 -0.866109 -0.441912 1.000000
-205.500000 -84.374600 -1691.240000 -0.244845 -0.885137 -0.395706 1.000000
-204.807000 -83.536400 -1692.970000 -0.257111 -0.907469 -0.332257 1.000000
-204.075000 -82.574200 -1694.620000 -0.254944 -0.921195 -0.293945 1.000000
-203.290000 -81.446700 -1696.140000 -0.246632 -0.928626 -0.277177 1.000000
-202.505000 -80.319200 -1697.660000 -0.140344 -0.943404 -0.300487 1.000000
-201.719000 -79.191700 -1699.180000 0.108518 -0.928142 -0.356057 1.000000
-201.009000 -78.185400 -1699.730000 0.458153 0.888486 0.026235 0.010000
-200.487000 -77.482300 -1697.880000 0.027685 -0.946299 -0.322106 1.000000
-199.965000 -76.779200 -1696.030000 -0.214172 -0.933268 -0.288343 1.000000
-199.443000 -76.076100 -1694.170000 -0.207701 -0.935824 -0.284770 1.000000
-198.893000 -75.373300 -1692.330000 -0.202997 -0.932989 -0.297193 1.000000
-198.172000 -74.672200 -1690.550000 -0.188853 -0.930913 -0.312627 1.000000
-197.452000 -73.971100 -1688.760000 -0.166055 -0.929978 -0.327972 1.000000
-196.731000 -73.270000 -1686.980000 -0.124712 -0.932045 -0.340206 1.000000
-196.011000 -72.568900 -1685.190000 0.431423 0.561016 -0.706495 1.000000
-195.096000 -71.955900 -1683.460000 0.434520 0.576810 -0.691725 1.000000
-194.182000 -71.343000 -1681.730000 0.447078 0.608055 -0.656041 1.000000
-193.268000 -70.730000 -1680.010000 0.466467 0.638135 -0.612529 1.000000
-192.354000 -70.117000 -1678.280000 0.499433 0.667818 -0.551893 1.000000
-192.355000 -69.209500 -1676.480000 0.531839 0.711170 -0.459765 1.000000
-192.509000 -68.252900 -1674.680000 0.609056 0.754529 -0.244412 1.000000
-192.663000 -67.296300 -1672.870000 0.595793 0.766972 -0.238296 1.000000
-192.817000 -66.339700 -1671.070000 0.711303 0.692449 0.120677 1.000000
-193.491000 -65.170400 -1669.580000 0.641877 0.647231 -0.411201 1.000000
-194.373000 -63.915900 -1668.220000 0.504454 0.788967 -0.350796 1.000000
-195.256000 -62.661500 -1666.860000 0.433969 0.821738 -0.369348 1.000000
-196.138000 -61.407100 -1665.500000 0.393756 0.831392 -0.392101 1.000000
-196.417000 -60.562800 -1663.800000 0.367156 0.828575 -0.422683 1.000000
-196.245000 -60.026100 -1661.830000 0.345805 0.816345 -0.462602 1.000000
-196.072000 -59.489400 -1659.860000 0.356316 0.795014 -0.490909 1.000000
-195.900000 -58.952700 -1657.890000 0.406395 0.794602 -0.451055 1.000000
-195.730000 -58.927600 -1655.930000 0.136890 0.857672 0.495640 1.000000
-195.563000 -59.584700 -1654.000000 0.954498 -0.157398 -0.253295 1.000000
-195.396000 -60.241800 -1652.070000 0.830866 -0.498249 -0.247811 1.000000
-195.229000 -60.898800 -1650.130000 0.712294 -0.655325 -0.251368 1.000000
-195.092000 -61.854400 -1648.430000 0.651651 -0.693758 -0.306677 1.000000
-195.027000 -63.556200 -1647.290000 0.632709 -0.686516 -0.358295 1.000000
-194.963000 -65.258000 -1646.150000 0.614920 -0.677614 -0.403377 1.000000
-194.898000 -66.959800 -1645.010000 0.597939 -0.667985 -0.443017 1.000000
