# .PCD v0.7 - Point Cloud Data file format
# 4 43 0
# 1 3 0
# 4 12 0
# 13 39 0
# 40 43 0
VERSION 0.7
FIELDS x y z normal_x normal_y normal_z curvature
SIZE 4 4 4 4 4 4 4
TYPE F F F F F F F
COUNT 1 1 1 1 1 1 1
WIDTH 43
HEIGHT 1
VIEWPOINT 0 0 0 1 0 0 0
POINTS 43
DATA ascii
35.525600 -164.646000 -1407.270000 0.588232 -0.373430 0.717310 0.010000
34.440100 -165.420000 -1406.650000 0.431247 -0.443468 0.785724 1.000000
32.647100 -165.508000 -1405.580000 0.341248 -0.399743 0.850738 1.000000
31.329200 -164.176000 -1405.010000 0.312993 -0.259883 0.913508 1.000000
30.111400 -162.544000 -1404.550000 0.316828 -0.144185 0.937460 1.000000
12.010000 -124.870000 -1441.980000 0.988646 -0.149307 -0.016942 1.000000
12.219000 -124.159000 -1440.030000 0.983177 -0.177572 -0.042801 1.000000
12.482700 -123.443000 -1438.090000 0.978476 -0.190815 -0.078571 0.010000
13.005900 -122.703000 -1436.200000 0.973930 -0.195545 -0.114993 1.000000
13.525600 -121.885000 -1434.360000 0.654745 -0.718399 0.234972 1.000000
14.039100 -120.923000 -1432.580000 0.960752 -0.213911 -0.176630 1.000000
14.534600 -119.916000 -1430.810000 0.952369 -0.229640 -0.200647 1.000000
15.013500 -118.865000 -1429.070000 0.945444 -0.244566 -0.215230 1.000000
15.578300 -118.015000 -1427.260000 0.940648 -0.243551 -0.236358 1.000000
16.180800 -117.251000 -1425.410000 0.934517 -0.232433 -0.269541 1.000000
16.889500 -117.667000 -1423.540000 0.919766 -0.125681 -0.371800 1.000000
17.612100 -118.272000 -1421.680000 0.764356 0.203531 -0.611829 0.010000
18.288800 -119.179000 -1419.930000 0.315148 0.560385 -0.765931 1.000000
18.939700 -120.251000 -1418.300000 0.201314 0.171314 0.964430 1.000000
19.498200 -121.913000 -1417.170000 0.151653 0.055253 0.986888 1.000000
19.949300 -123.726000 -1416.360000 0.086834 0.181678 0.979517 1.000000
20.233300 -125.772000 -1416.050000 0.086556 0.204955 0.974937 1.000000
20.544100 -127.810000 -1415.720000 0.122074 0.152162 0.980788 1.000000
20.875700 -129.841000 -1415.360000 0.170862 0.064486 0.983182 1.000000
21.157600 -131.901000 -1415.200000 0.207066 0.129337 0.969740 1.000000
21.422000 -133.971000 -1415.110000 0.214123 0.236177 0.947825 1.000000
21.894900 -135.896000 -1414.480000 0.202575 0.350792 0.914280 1.000000
22.510600 -137.715000 -1413.860000 0.181338 0.459358 0.869544 1.000000
24.417100 -138.557000 -1414.000000 0.198122 0.518414 0.831862 1.000000
26.301400 -139.444000 -1414.070000 0.264650 0.514694 0.815506 1.000000
28.123300 -140.458000 -1413.940000 0.414211 0.448316 0.792113 1.000000
29.450100 -141.834000 -1413.570000 0.599023 -0.589991 -0.541371 1.000000
30.133400 -143.683000 -1412.870000 0.151331 0.380562 0.912289 1.000000
30.792500 -145.532000 -1412.160000 0.367397 0.751591 -0.547842 1.000000
31.436100 -147.383000 -1411.440000 0.446159 0.518922 0.729152 1.000000
32.063000 -149.240000 -1410.720000 0.375377 0.549557 0.746378 1.000000
32.685400 -151.100000 -1410.000000 0.411320 0.593784 0.691546 1.000000
33.259800 -152.830000 -1408.980000 0.712442 0.490382 0.501949 1.000000
33.819800 -154.580000 -1407.990000 0.654107 0.517046 0.552094 1.000000
34.297400 -156.493000 -1407.300000 0.880724 0.422668 0.213721 1.000000
34.719600 -158.453000 -1406.840000 0.714375 0.464922 0.522986 1.000000
35.015100 -160.520000 -1406.890000 0.518019 0.123059 0.846471 1.000000
35.284500 -162.585000 -1407.030000 0.589366 -0.180582 0.787424 1.000000
