# .PCD v0.7 - Point Cloud Data file format
# 2 41 0
# 1 2 0
# 3 41 0
VERSION 0.7
FIELDS x y z normal_x normal_y normal_z curvature
SIZE 4 4 4 4 4 4 4
TYPE F F F F F F F
COUNT 1 1 1 1 1 1 1
WIDTH 41
HEIGHT 1
VIEWPOINT 0 0 0 1 0 0 0
POINTS 41
DATA ascii
-210.930000 -143.614000 -1417.200000 0.498104 0.240347 -0.833142 0.010000
-210.398000 -145.293000 -1416.200000 0.444492 0.186232 -0.876210 1.000000
-209.881000 -147.172000 -1415.450000 0.471600 -0.602443 -0.643938 1.000000
-209.378000 -149.004000 -1414.570000 0.445494 -0.867135 -0.222738 1.000000
-208.921000 -150.988000 -1414.100000 -0.035421 0.710087 0.703223 1.000000
-208.355000 -152.886000 -1413.440000 -0.088839 0.553473 0.828116 1.000000
-207.817000 -154.770000 -1413.170000 -0.095626 0.473190 0.875755 1.000000
-207.447000 -156.713000 -1413.850000 -0.077899 0.437921 0.895632 1.000000
-207.170000 -158.632000 -1414.640000 0.222156 0.714407 -0.663529 1.000000
-206.916000 -160.422000 -1415.670000 0.189956 0.823671 -0.534306 1.000000
-206.684000 -162.121000 -1416.870000 0.107329 0.899588 -0.423345 1.000000
-206.472000 -163.767000 -1418.140000 0.036713 0.931822 -0.361053 1.000000
-206.778000 -164.019000 -1420.190000 0.839963 0.542643 0.000987 1.000000
-206.771000 -164.847000 -1422.050000 0.775103 0.629474 -0.054574 1.000000
-206.794000 -165.675000 -1423.910000 0.770376 0.594392 -0.230691 1.000000
-207.190000 -165.932000 -1425.950000 0.808249 0.550018 -0.210270 1.000000
-207.137000 -166.911000 -1427.790000 0.845024 0.479595 -0.236480 1.000000
-207.065000 -167.960000 -1429.600000 0.860418 0.430317 -0.272960 1.000000
-207.036000 -169.029000 -1431.400000 0.863119 0.415986 -0.286324 1.000000
-207.108000 -170.067000 -1433.210000 0.860292 0.433353 -0.268521 1.000000
-207.164000 -171.186000 -1434.980000 0.872470 0.425587 -0.240151 1.000000
-207.212000 -172.282000 -1436.760000 0.895279 0.376938 -0.237472 1.000000
-207.268000 -173.162000 -1438.630000 0.913411 0.333079 -0.233961 1.000000
-207.350000 -173.636000 -1440.660000 0.928582 0.295030 -0.225152 1.000000
-207.445000 -174.406000 -1442.610000 0.938989 0.262197 -0.222602 1.000000
-207.521000 -175.034000 -1444.600000 0.948119 0.237932 -0.210853 1.000000
-206.965000 -175.262000 -1446.260000 0.962672 0.220862 -0.156468 1.000000
-205.160000 -174.836000 -1447.230000 0.099291 0.991551 0.083479 1.000000
-203.387000 -174.559000 -1448.310000 0.976283 0.208691 0.057607 1.000000
-202.127000 -174.008000 -1449.800000 -0.368753 0.385433 0.845850 1.000000
-201.158000 -173.319000 -1451.520000 0.390669 -0.917610 -0.073275 1.000000
-200.256000 -172.624000 -1453.280000 -0.408471 0.575906 0.708155 1.000000
-199.634000 -171.369000 -1454.830000 0.275013 -0.781690 -0.559758 1.000000
-199.646000 -169.995000 -1456.340000 -0.392197 0.604954 0.692973 1.000000
-200.072000 -168.714000 -1457.910000 -0.334278 0.608885 0.719387 1.000000
-200.692000 -167.740000 -1459.650000 0.147906 -0.528506 0.835946 1.000000
-201.365000 -166.340000 -1461.060000 0.175344 -0.573429 -0.800271 1.000000
-202.027000 -164.940000 -1462.460000 0.187963 -0.632669 -0.751266 1.000000
-202.634000 -163.666000 -1463.980000 0.105760 -0.634290 -0.765827 1.000000
-203.142000 -162.641000 -1465.740000 0.222316 -0.698110 -0.680601 1.000000
-211.477000 -142.384000 -1418.800000 -0.763845 -0.560208 0.320481 1.000000
