# .PCD v0.7 - Point Cloud Data file format
# 5 71 0
# 1 4 0
# 5 20 0
# 21 37 0
# 38 60 0
# 61 71 0
VERSION 0.7
FIELDS x y z normal_x normal_y normal_z curvature
SIZE 4 4 4 4 4 4 4
TYPE F F F F F F F
COUNT 1 1 1 1 1 1 1
WIDTH 71
HEIGHT 1
VIEWPOINT 0 0 0 1 0 0 0
POINTS 71
DATA ascii
-71.600300 7.546780 -1681.520000 -0.818206 -0.479778 -0.316783 0.010000
-71.383500 8.361380 -1683.380000 -0.814637 -0.481783 -0.322880 1.000000
-70.415900 7.880250 -1685.110000 -0.815673 -0.473391 -0.332533 1.000000
-69.513600 7.591010 -1686.910000 -0.804238 -0.474412 -0.357958 1.000000
-69.121700 8.311970 -1688.780000 -0.794643 -0.477950 -0.374307 1.000000
-67.884700 7.186570 -1689.950000 -0.789847 -0.477175 -0.385287 1.000000
-67.094800 7.436500 -1691.810000 -0.783539 -0.479309 -0.395385 1.000000
-66.286400 7.605580 -1693.670000 -0.774247 -0.481316 -0.410945 1.000000
-65.234600 7.529340 -1695.420000 -0.764017 -0.481470 -0.429494 1.000000
-64.889200 8.506650 -1697.180000 -0.754572 -0.486903 -0.439940 1.000000
-64.113300 9.097600 -1698.970000 -0.746947 -0.487948 -0.451639 1.000000
-63.500000 9.750000 -1700.800000 -0.736992 -0.484599 -0.471175 1.000000
-61.655600 8.810120 -1702.700000 -0.760940 -0.466907 -0.450520 1.000000
-60.804900 9.146110 -1704.520000 -0.773119 -0.470152 -0.425727 1.000000
-59.535500 8.250390 -1705.850000 -0.788314 -0.470542 -0.396422 1.000000
-58.334400 6.757220 -1706.540000 -0.799141 -0.467046 -0.378473 0.010000
-57.565800 4.977170 -1705.910000 -0.799095 -0.451473 -0.397014 1.000000
-56.592500 3.200360 -1706.140000 -0.808257 -0.437052 -0.394596 1.000000
-55.767200 1.370040 -1705.790000 -0.807323 -0.437517 -0.395991 0.700208
-54.891800 -0.465586 -1705.940000 -0.807210 -0.439595 -0.393915 1.000000
-54.204400 -2.353020 -1705.590000 -0.802408 -0.442847 -0.400036 1.000000
-53.373700 -3.895320 -1704.540000 -0.792893 -0.447417 -0.413689 1.000000
-52.615800 -5.750080 -1704.160000 -0.785055 -0.454459 -0.420900 1.000000
-51.564800 -7.453210 -1704.560000 -0.785576 -0.462409 -0.411154 1.000000
-50.653000 -9.226650 -1704.130000 -0.783910 -0.461503 -0.415331 1.000000
-49.780800 -11.028200 -1703.740000 -0.783854 -0.460371 -0.416691 0.461112
-48.854200 -12.814900 -1703.410000 -0.784977 -0.459992 -0.414993 1.000000
-47.895400 -14.611100 -1703.290000 -0.784801 -0.464646 -0.410111 1.000000
-46.723700 -16.130400 -1703.980000 -0.786276 -0.470245 -0.400799 1.000000
-45.549000 -17.782400 -1704.210000 -0.783020 -0.477252 -0.398887 1.000000
-44.620000 -19.575600 -1703.920000 -0.778736 -0.482439 -0.401027 1.000000
-44.032300 -21.263600 -1702.940000 -0.776412 -0.485550 -0.401778 0.010000
-43.948100 -22.646600 -1701.450000 -0.773800 -0.491811 -0.399193 1.000000
-44.057200 -23.869900 -1699.820000 -0.771897 -0.496719 -0.396795 1.000000
-44.327600 -24.824500 -1698.040000 -0.767911 -0.500745 -0.399457 1.000000
-44.509800 -25.903600 -1696.310000 -0.768337 -0.501381 -0.397837 0.949686
-44.753500 -26.940600 -1694.580000 -0.768582 -0.502432 -0.396036 1.000000
-45.175600 -27.793900 -1692.770000 -0.767822 -0.506532 -0.392269 1.000000
-45.876200 -28.114800 -1690.880000 -0.765351 -0.512029 -0.389955 1.000000
-46.447100 -28.608500 -1688.990000 -0.766178 -0.512995 -0.387049 1.000000
-46.871600 -29.394300 -1687.160000 -0.771245 -0.506521 -0.385510 1.000000
-47.258400 -30.217800 -1685.330000 -0.774602 -0.501585 -0.385232 1.000000
-47.218800 -31.550000 -1683.790000 -0.781130 -0.497418 -0.377374 1.000000
-47.866700 -31.828400 -1681.870000 -0.786990 -0.497239 -0.365241 1.000000
-47.954000 -32.939600 -1680.170000 -0.791621 -0.496523 -0.356093 1.000000
-48.856900 -32.722400 -1678.350000 -0.798727 -0.495490 -0.341358 1.000000
-49.766200 -32.512000 -1676.540000 -0.805349 -0.493620 -0.328255 1.000000
-50.748700 -32.059500 -1674.810000 -0.806860 -0.493842 -0.324185 1.000000
-51.718500 -31.615600 -1673.070000 -0.801371 -0.496695 -0.333313 0.010000
-52.630500 -29.840300 -1673.490000 -0.798321 -0.500564 -0.334842 1.000000
-53.385100 -28.120400 -1674.280000 -0.797419 -0.504751 -0.330681 1.000000
-54.103100 -26.407100 -1675.130000 -0.790458 -0.508008 -0.342205 1.000000
-54.825600 -24.717500 -1676.010000 -0.785551 -0.507863 -0.353532 1.000000
-55.569000 -23.011500 -1676.840000 -0.781519 -0.508216 -0.361862 1.000000
-56.049800 -21.440000 -1678.050000 -0.780591 -0.511586 -0.359107 1.000000
-56.686900 -19.749500 -1679.000000 -0.772578 -0.521245 -0.362527 1.000000
-57.391600 -18.023300 -1679.820000 -0.758121 -0.529361 -0.380827 1.000000
-58.493500 -16.322700 -1680.050000 -0.739404 -0.529640 -0.415648 1.000000
-59.677300 -14.748700 -1680.580000 -0.741003 -0.487743 -0.461541 1.000000
-60.733000 -13.023500 -1680.840000 -0.741991 -0.449268 -0.497602 1.000000
-61.673900 -11.221900 -1681.010000 -0.739147 -0.426130 -0.521608 1.000000
-62.586200 -9.423780 -1681.320000 -0.730166 -0.452723 -0.511760 1.000000
-62.600700 -7.633090 -1682.290000 -0.711129 -0.492450 -0.501785 1.000000
-63.560600 -5.835360 -1682.220000 -0.750494 -0.506324 -0.424730 1.000000
-64.860300 -4.312960 -1681.830000 -0.797646 -0.468876 -0.379363 1.000000
-66.073400 -2.807640 -1681.180000 -0.812707 -0.454454 -0.364663 1.000000
-67.380300 -1.423530 -1680.450000 -0.814223 -0.454008 -0.361825 1.000000
-68.257500 0.417548 -1680.460000 -0.816529 -0.458354 -0.350989 1.000000
-69.135600 2.249630 -1680.630000 -0.825009 -0.450234 -0.341540 1.000000
-70.174300 4.002960 -1680.710000 -0.834386 -0.440464 -0.331348 1.000000
-71.346800 5.670840 -1680.760000 -0.833952 -0.450075 -0.319306 1.000000
