# .PCD v0.7 - Point Cloud Data file format
# 5 139 0
# 1 21 0
# 22 45 0
# 46 97 0
# 98 113 0
# 114 139 0
VERSION 0.7
FIELDS x y z normal_x normal_y normal_z curvature
SIZE 4 4 4 4 4 4 4
TYPE F F F F F F F
COUNT 1 1 1 1 1 1 1
WIDTH 139
HEIGHT 1
VIEWPOINT 0 0 0 1 0 0 0
POINTS 139
DATA ascii
31.570500 -63.913400 -1297.950000 -0.284061 0.263025 -0.922024 0.010000
31.366700 -66.267000 -1298.770000 -0.279766 0.275180 -0.919786 1.000000
29.967300 -68.328100 -1298.550000 -0.261477 0.288299 -0.921148 1.000000
29.246400 -70.609600 -1299.280000 -0.260323 0.310322 -0.914293 1.000000
29.376600 -72.868900 -1300.350000 -0.280980 0.340096 -0.897433 1.000000
28.689800 -75.168000 -1301.050000 -0.283626 0.366025 -0.886331 1.000000
27.016300 -77.026000 -1301.010000 -0.247473 0.378278 -0.891999 1.000000
25.230500 -78.761200 -1301.240000 -0.198782 0.392939 -0.897822 1.000000
22.882300 -79.619000 -1301.170000 -0.148996 0.383469 -0.911456 1.000000
20.783400 -80.948400 -1301.460000 -0.115197 0.380733 -0.917481 1.000000
18.599600 -82.108700 -1301.830000 -0.081922 0.376414 -0.922822 1.000000
16.454300 -83.347800 -1302.180000 -0.051933 0.372668 -0.926511 1.000000
14.934400 -85.099800 -1303.110000 -0.039853 0.378613 -0.924697 1.000000
12.822600 -86.413500 -1303.370000 -0.025116 0.384019 -0.922984 1.000000
10.572300 -87.439000 -1303.750000 -0.022759 0.391014 -0.920103 1.000000
8.257670 -87.931400 -1304.560000 -0.030880 0.395268 -0.918046 1.000000
6.430470 -89.620900 -1304.310000 -0.035534 0.395636 -0.917720 1.000000
5.880100 -91.877000 -1305.240000 -0.029045 0.387106 -0.921578 1.000000
5.656980 -94.153600 -1306.250000 -0.021985 0.379889 -0.924771 1.000000
4.867290 -96.332800 -1307.190000 -0.021930 0.380072 -0.924697 1.000000
4.545840 -98.495300 -1308.400000 -0.044822 0.401707 -0.914671 1.000000
4.162600 -100.707000 -1309.500000 -0.065318 0.422750 -0.903889 1.000000
3.000980 -102.876000 -1309.950000 -0.066547 0.443154 -0.893972 1.000000
2.723670 -105.105000 -1311.050000 -0.071997 0.470059 -0.879694 1.000000
3.458360 -107.098000 -1312.370000 -0.086849 0.492214 -0.866131 1.000000
1.811790 -108.834000 -1313.100000 -0.072178 0.502783 -0.861394 1.000000
0.215000 -110.557000 -1313.960000 -0.056969 0.512515 -0.856786 1.000000
-0.064886 -116.171000 -1317.350000 -0.046322 0.536310 -0.842749 1.000000
-1.033390 -118.148000 -1318.540000 -0.040569 0.547061 -0.836109 1.000000
-2.786510 -119.689000 -1319.440000 -0.033527 0.554210 -0.831701 1.000000
-4.409280 -121.288000 -1320.470000 -0.027358 0.562104 -0.826614 1.000000
-6.315550 -122.585000 -1321.440000 -0.018338 0.567591 -0.823106 1.000000
-8.367500 -123.723000 -1322.300000 -0.005962 0.570348 -0.821382 1.000000
-10.377200 -124.900000 -1323.210000 0.007511 0.572315 -0.820000 1.000000
-12.687600 -125.678000 -1323.770000 0.032439 0.564667 -0.824681 1.000000
-13.959400 -127.447000 -1325.000000 0.029238 0.576794 -0.816366 1.000000
-16.190600 -128.284000 -1325.760000 0.051311 0.564299 -0.823974 1.000000
-17.237900 -130.171000 -1327.020000 0.039816 0.576180 -0.816353 1.000000
-18.403100 -132.011000 -1328.250000 0.031818 0.585001 -0.810408 1.000000
-19.699700 -133.665000 -1329.610000 0.027928 0.590707 -0.806403 1.000000
-20.241600 -135.558000 -1331.150000 0.007043 0.606196 -0.795284 1.000000
-21.505400 -137.309000 -1332.410000 0.001890 0.611725 -0.791068 1.000000
-22.729200 -139.118000 -1333.630000 -0.001028 0.620990 -0.783818 1.000000
-22.002800 -140.873000 -1335.260000 -0.035464 0.652241 -0.757182 1.000000
-21.996000 -142.645000 -1337.020000 -0.054841 0.673110 -0.737506 1.000000
-23.847300 -143.915000 -1338.120000 -0.030106 0.672346 -0.739625 1.000000
-25.936600 -145.194000 -1338.630000 0.012389 0.666728 -0.745199 1.000000
-27.824300 -146.164000 -1339.950000 0.056618 0.659797 -0.749308 0.010000
-30.189600 -146.561000 -1340.660000 0.111057 0.658204 -0.744603 1.000000
-32.467600 -146.921000 -1341.630000 0.152505 0.658371 -0.737082 1.000000
-34.900100 -146.960000 -1342.210000 0.168621 0.650060 -0.740938 1.000000
-37.337300 -146.407000 -1342.300000 0.175985 0.640613 -0.747425 1.000000
-39.647400 -145.494000 -1342.010000 0.186606 0.627557 -0.755877 1.000000
-41.653300 -144.161000 -1341.340000 0.196413 0.615046 -0.763636 1.000000
-44.015400 -144.029000 -1342.150000 0.218498 0.595213 -0.773292 1.000000
-46.315500 -143.059000 -1341.990000 0.260832 0.558349 -0.787536 1.000000
-48.474100 -141.821000 -1341.750000 0.300529 0.520456 -0.799255 1.000000
-50.787100 -141.123000 -1342.390000 0.280647 0.532076 -0.798832 1.000000
-53.070400 -140.116000 -1342.560000 0.243704 0.559293 -0.792338 1.000000
-55.506200 -139.601000 -1342.320000 0.215859 0.583138 -0.783170 1.000000
-57.853900 -138.785000 -1342.600000 0.221129 0.587809 -0.778192 1.000000
-60.156600 -137.809000 -1342.610000 0.246661 0.580957 -0.775659 1.000000
-62.516900 -136.983000 -1342.570000 0.276832 0.574534 -0.770243 1.000000
-64.899300 -136.404000 -1343.060000 0.304846 0.575438 -0.758907 1.000000
-67.255500 -135.678000 -1343.480000 0.315528 0.590442 -0.742846 1.000000
-69.579900 -134.789000 -1343.730000 0.310346 0.611501 -0.727841 1.000000
-71.835800 -133.709000 -1343.720000 0.281948 0.637079 -0.717381 1.000000
-74.109900 -132.677000 -1343.590000 0.232026 0.669464 -0.705678 1.000000
-76.229200 -131.483000 -1343.010000 0.163974 0.702729 -0.692304 1.000000
-78.153400 -130.173000 -1342.090000 0.097944 0.727385 -0.679204 1.000000
-80.126000 -129.005000 -1341.090000 0.061077 0.748904 -0.659858 1.000000
-81.248500 -127.491000 -1339.450000 0.087862 0.760090 -0.643851 0.010000
-80.094900 -126.108000 -1337.710000 0.012934 0.768095 -0.640206 1.000000
-78.726200 -124.797000 -1336.080000 -0.014909 0.754888 -0.655684 1.000000
-77.019800 -123.683000 -1334.630000 0.001463 0.735693 -0.677313 1.000000
-76.301400 -121.846000 -1333.090000 0.003337 0.711804 -0.702371 1.000000
-74.299700 -121.035000 -1331.830000 0.035180 0.690702 -0.722283 1.000000
-72.627600 -119.653000 -1330.590000 0.061581 0.661641 -0.747288 1.000000
-71.447300 -117.934000 -1329.210000 0.094911 0.629055 -0.771545 1.000000
-69.502400 -116.897000 -1328.020000 0.121991 0.622915 -0.772719 1.000000
-67.584700 -115.789000 -1326.860000 0.137755 0.618907 -0.773290 1.000000
-65.637300 -114.646000 -1325.790000 0.142642 0.619135 -0.772221 1.000000
-64.094000 -113.243000 -1324.410000 0.151370 0.611486 -0.776641 1.000000
-62.423300 -111.933000 -1323.090000 0.151706 0.609960 -0.777775 1.000000
-61.795900 -110.113000 -1321.490000 0.183944 0.582223 -0.791948 1.000000
-60.032400 -109.368000 -1319.880000 0.164592 0.582608 -0.795913 1.000000
-58.027700 -108.351000 -1318.780000 0.131788 0.589065 -0.797267 1.000000
-56.704300 -106.857000 -1317.280000 0.130205 0.570582 -0.810853 1.000000
-55.054200 -105.284000 -1316.250000 0.113486 0.562954 -0.818659 1.000000
-53.775100 -103.293000 -1315.440000 0.114774 0.543203 -0.831719 1.000000
-52.448800 -101.483000 -1314.330000 0.110705 0.527225 -0.842483 1.000000
-50.842300 -100.247000 -1312.870000 0.086996 0.524513 -0.846946 1.000000
-49.169400 -99.046200 -1311.450000 0.067415 0.531632 -0.844288 1.000000
-47.590300 -97.417600 -1310.400000 0.060768 0.535873 -0.842109 1.000000
-45.945500 -95.797300 -1309.430000 0.054165 0.540089 -0.839863 1.000000
-44.402200 -94.178700 -1308.320000 0.053838 0.540170 -0.839832 0.980299
-42.919400 -92.590500 -1307.080000 0.057711 0.537142 -0.841515 1.000000
-40.860200 -91.292900 -1306.500000 0.038325 0.552021 -0.832949 1.000000
-39.862400 -89.207900 -1305.550000 0.064995 0.531508 -0.844556 1.000000
-38.262300 -87.788600 -1304.250000 0.065083 0.523461 -0.849560 1.000000
-36.467200 -86.558400 -1303.020000 0.050145 0.521437 -0.851815 1.000000
-34.878900 -85.045300 -1301.820000 0.046036 0.509957 -0.858967 1.000000
-33.216200 -83.477400 -1300.800000 0.038177 0.501090 -0.864553 1.000000
-31.817500 -81.661900 -1299.800000 0.044666 0.480396 -0.875914 1.000000
-31.447700 -79.407700 -1298.780000 0.089942 0.429132 -0.898752 1.000000
-29.900900 -77.704500 -1297.800000 0.085711 0.416721 -0.904984 1.000000
-28.244200 -76.059700 -1296.900000 0.076066 0.409691 -0.909047 1.000000
-26.494400 -74.464200 -1296.100000 0.060731 0.408083 -0.910923 1.000000
-24.712000 -72.861100 -1295.390000 0.040918 0.408821 -0.911697 1.000000
-22.875600 -71.276400 -1294.780000 0.015409 0.412383 -0.910880 1.000000
-21.402200 -69.422900 -1293.970000 0.002872 0.407727 -0.913099 1.000000
-19.854200 -68.134200 -1292.490000 -0.017957 0.408834 -0.912432 1.000000
-18.405000 -66.272700 -1291.660000 -0.035146 0.408468 -0.912096 1.000000
-16.847700 -64.403200 -1291.080000 -0.060430 0.410442 -0.909882 1.000000
-15.332900 -62.495000 -1290.520000 -0.085054 0.410023 -0.908101 1.000000
-14.143600 -60.328400 -1290.130000 -0.101838 0.406014 -0.908175 1.000000
-12.681000 -58.463400 -1289.330000 -0.126106 0.402379 -0.906746 1.000000
-10.807600 -56.860300 -1288.920000 -0.158708 0.397559 -0.903747 1.000000
-8.894830 -55.289300 -1288.560000 -0.187109 0.388178 -0.902390 1.000000
-6.493660 -54.596600 -1288.660000 -0.209833 0.383059 -0.899575 1.000000
-5.879380 -52.289200 -1287.910000 -0.213461 0.378487 -0.900657 1.000000
-4.399410 -50.307600 -1287.540000 -0.223024 0.377507 -0.898749 1.000000
-2.116040 -49.298900 -1287.390000 -0.225118 0.370415 -0.901174 1.000000
0.051213 -48.083700 -1287.670000 -0.221822 0.362454 -0.905219 0.010000
2.483070 -48.233000 -1288.240000 -0.204451 0.352692 -0.913131 1.000000
4.769000 -48.900900 -1289.000000 -0.178521 0.345690 -0.921210 1.000000
7.034460 -49.625600 -1289.770000 -0.154893 0.340199 -0.927509 1.000000
9.467650 -49.809400 -1290.320000 -0.132890 0.333221 -0.933437 1.000000
11.382200 -51.190200 -1291.150000 -0.084550 0.312242 -0.946232 1.000000
13.241600 -52.830100 -1291.480000 -0.037591 0.290884 -0.956020 1.000000
15.439100 -53.912800 -1291.980000 0.001927 0.272990 -0.962015 1.000000
17.711600 -54.939200 -1292.170000 -0.004653 0.278004 -0.960569 1.000000
20.210900 -54.846400 -1292.180000 -0.033250 0.282572 -0.958669 1.000000
22.663100 -55.327200 -1292.280000 -0.093213 0.284043 -0.954270 1.000000
24.629100 -56.607700 -1293.150000 -0.190601 0.295695 -0.936075 1.000000
26.914800 -56.560900 -1294.160000 -0.287083 0.310578 -0.906159 1.000000
28.822800 -57.866400 -1295.120000 -0.359172 0.328110 -0.873693 1.000000
30.497300 -59.388500 -1296.180000 -0.347678 0.302086 -0.887617 1.000000
31.269900 -61.571200 -1297.130000 -0.317069 0.279044 -0.906422 1.000000
