# .PCD v0.7 - Point Cloud Data file format
# 2 30 0
# 1 28 0
# 29 30 0
VERSION 0.7
FIELDS x y z normal_x normal_y normal_z curvature
SIZE 4 4 4 4 4 4 4
TYPE F F F F F F F
COUNT 1 1 1 1 1 1 1
WIDTH 30
HEIGHT 1
VIEWPOINT 0 0 0 1 0 0 0
POINTS 30
DATA ascii
-2.333420 -140.329000 -1593.810000 -0.275329 -0.815240 -0.509488 0.010000
-0.757655 -140.235000 -1594.930000 -0.288177 -0.827506 -0.481858 1.000000
0.991000 -140.292000 -1595.920000 -0.341583 0.895706 0.284663 1.000000
-18.823800 -138.781000 -1545.600000 -0.696889 -0.693476 0.182857 1.000000
-18.565900 -139.551000 -1547.440000 -0.706952 -0.655428 0.265771 1.000000
-18.327300 -140.335000 -1549.280000 -0.698579 -0.632664 0.334251 1.000000
-18.172700 -141.179000 -1551.100000 -0.680559 -0.621880 0.387433 1.000000
-17.977100 -141.974000 -1552.930000 -0.660544 -0.616800 0.428065 1.000000
-17.713300 -142.687000 -1554.800000 -0.641146 -0.614911 0.459147 1.000000
-17.465200 -143.413000 -1556.650000 -0.623391 -0.614433 0.483586 1.000000
-17.229400 -144.149000 -1558.510000 -0.607974 -0.614329 0.502959 1.000000
-16.861400 -144.590000 -1560.430000 -0.599157 -0.611778 0.516468 1.000000
-16.449200 -144.931000 -1562.370000 -0.580667 -0.642528 0.499983 1.000000
-16.018700 -145.137000 -1564.320000 -0.568263 0.766242 -0.299916 1.000000
-15.587600 -145.327000 -1566.280000 -0.577431 0.784171 -0.227266 1.000000
-15.160100 -145.481000 -1568.240000 -0.575900 0.804442 -0.145648 1.000000
-14.709600 -145.574000 -1570.200000 -0.562910 0.824228 -0.061492 1.000000
-14.208200 -145.535000 -1572.140000 -0.539889 0.841540 0.018193 1.000000
-13.701800 -145.484000 -1574.090000 -0.227610 -0.819192 -0.526421 1.000000
-13.190200 -145.419000 -1576.040000 -0.231415 -0.816247 -0.529328 1.000000
-12.688700 -145.355000 -1577.980000 -0.236599 -0.813006 -0.532017 1.000000
-12.191800 -145.289000 -1579.930000 -0.242970 -0.809510 -0.534471 1.000000
-10.879500 -145.042000 -1581.390000 -0.230273 -0.817155 -0.528423 1.000000
-9.447710 -144.767000 -1582.780000 -0.219958 -0.824569 -0.521253 1.000000
-7.972380 -144.478000 -1584.110000 -0.213116 -0.831112 -0.513649 1.000000
-6.649680 -144.083000 -1585.530000 -0.210124 -0.832025 -0.513403 1.000000
-5.784870 -143.369000 -1587.200000 -0.217666 -0.827203 -0.518032 1.000000
-4.906940 -142.623000 -1588.850000 -0.226870 -0.822913 -0.520907 1.000000
-4.012130 -141.836000 -1590.470000 -0.238458 -0.819430 -0.521221 1.000000
-3.159980 -141.075000 -1592.130000 -0.254111 -0.816659 -0.518166 1.000000
