# .PCD v0.7 - Point Cloud Data file format
# 4 99 0
# 1 16 0
# 17 50 0
# 51 82 0
# 83 99 0
VERSION 0.7
FIELDS x y z normal_x normal_y normal_z curvature
SIZE 4 4 4 4 4 4 4
TYPE F F F F F F F
COUNT 1 1 1 1 1 1 1
WIDTH 99
HEIGHT 1
VIEWPOINT 0 0 0 1 0 0 0
POINTS 99
DATA ascii
-176.255000 179.392000 -1399.250000 -0.220720 0.547411 -0.807232 0.010000
-176.932000 177.673000 -1400.120000 -0.169615 0.622321 -0.764165 1.000000
-177.610000 175.954000 -1400.980000 -0.673898 0.199042 -0.711508 1.000000
-178.104000 174.042000 -1401.330000 -0.504489 0.142900 -0.851511 1.000000
-178.518000 172.047000 -1401.450000 -0.356315 0.313336 -0.880261 1.000000
-178.923000 170.050000 -1401.530000 -0.350751 0.271716 -0.896183 1.000000
-179.301000 168.045000 -1401.490000 -0.326817 0.193909 -0.924981 1.000000
-179.679000 166.040000 -1401.440000 -0.304514 0.154638 -0.939871 1.000000
-180.129000 164.055000 -1401.550000 -0.288043 0.139707 -0.947372 1.000000
-180.598000 162.073000 -1401.690000 -0.274114 0.162030 -0.947949 1.000000
-181.039000 160.099000 -1401.920000 -0.265549 0.182582 -0.946651 1.000000
-181.429000 158.136000 -1402.320000 -0.262057 0.197395 -0.944649 1.000000
-181.819000 156.173000 -1402.720000 -0.265358 0.209324 -0.941153 1.000000
-180.907000 154.533000 -1403.380000 -0.245506 0.224403 -0.943064 1.000000
-179.850000 152.930000 -1404.070000 -0.230801 0.254067 -0.939245 1.000000
-178.873000 151.260000 -1404.710000 -0.269748 -0.150817 0.951047 1.000000
-177.995000 149.511000 -1405.290000 -0.243270 0.319771 -0.915733 1.000000
-177.117000 147.761000 -1405.870000 -0.314550 0.331067 -0.889636 1.000000
-175.724000 117.969000 -1405.290000 0.202187 0.795930 0.570628 1.000000
-175.521000 116.791000 -1403.640000 0.090837 0.924428 0.370380 1.000000
-175.317000 115.613000 -1401.980000 -0.183476 0.885956 -0.425932 1.000000
-175.135000 114.382000 -1400.370000 -0.195520 0.373703 0.906707 1.000000
-174.969000 113.108000 -1398.780000 -0.149096 0.405991 0.901633 1.000000
-174.802000 111.838000 -1397.190000 -0.105488 0.451313 0.886109 1.000000
-174.625000 110.605000 -1395.570000 -0.059872 0.497001 0.865682 1.000000
-174.448000 109.372000 -1393.960000 -0.014159 0.540871 0.840987 1.000000
-174.268000 108.156000 -1392.330000 0.021646 0.579997 0.814331 1.000000
-174.088000 106.948000 -1390.690000 0.028930 0.617947 0.785687 1.000000
-173.902000 105.756000 -1389.050000 -0.064444 0.680895 0.729540 1.000000
-173.696000 104.627000 -1387.360000 -0.105243 0.176590 0.978642 1.000000
-173.490000 103.499000 -1385.670000 0.148210 0.019187 0.988770 1.000000
-173.260000 102.450000 -1383.940000 -0.230530 0.374915 0.897939 1.000000
-173.021000 101.427000 -1382.190000 -0.421836 0.524917 0.739267 1.000000
-172.689000 100.996000 -1380.450000 -0.715015 0.495923 0.492761 0.010000
-172.137000 101.947000 -1378.730000 -0.916770 0.368612 0.153810 1.000000
-171.586000 102.898000 -1377.010000 -0.946400 0.322681 0.014284 1.000000
-171.024000 104.344000 -1375.710000 -0.948102 0.316867 -0.026434 1.000000
-170.459000 105.878000 -1374.490000 -0.944979 0.327114 0.003260 1.000000
-169.936000 107.415000 -1373.250000 -0.934842 0.342785 0.092572 1.000000
-169.474000 108.957000 -1372.000000 -0.905881 0.358483 0.225543 1.000000
-169.012000 110.499000 -1370.750000 -0.843261 0.352577 0.405708 1.000000
-169.941000 112.111000 -1369.980000 -0.843085 0.199840 0.499272 1.000000
-170.945000 113.727000 -1369.240000 -0.288349 -0.752901 0.591604 1.000000
-171.780000 115.372000 -1368.390000 -0.170909 -0.782816 0.598322 1.000000
-172.448000 117.045000 -1367.430000 -0.064472 -0.724800 0.685937 1.000000
-173.108000 118.720000 -1366.470000 0.051221 -0.419238 0.906430 1.000000
-173.637000 120.447000 -1365.520000 0.102132 -0.330748 0.938176 1.000000
-174.165000 122.174000 -1364.570000 0.113505 -0.309385 0.944138 1.000000
-174.590000 123.888000 -1363.550000 0.110175 -0.304520 0.946113 1.000000
-174.945000 125.593000 -1362.490000 0.098200 -0.307162 0.946577 1.000000
-175.187000 127.300000 -1361.430000 -0.003650 -0.270319 0.962764 1.000000
-174.788000 129.012000 -1360.400000 0.015153 -0.320231 0.947218 1.000000
-174.388000 130.725000 -1359.360000 -0.018217 -0.382074 0.923952 1.000000
-173.909000 132.572000 -1358.680000 -0.106565 -0.414067 0.903987 1.000000
-173.396000 134.477000 -1358.160000 -0.179434 -0.407182 0.895548 1.000000
-172.854000 136.215000 -1357.390000 -0.217815 -0.372736 0.902011 1.000000
-172.222000 137.457000 -1355.900000 -0.268391 -0.336598 0.902590 1.000000
-171.591000 138.698000 -1354.410000 -0.569359 -0.515373 0.640485 1.000000
-171.043000 140.431000 -1353.580000 -0.635446 -0.463093 0.617862 1.000000
-170.516000 142.287000 -1352.910000 -0.704782 -0.396548 0.588246 1.000000
-170.069000 144.024000 -1352.010000 -0.739473 -0.350003 0.575046 1.000000
-169.774000 145.543000 -1350.680000 -0.707670 -0.349384 0.614113 1.000000
-169.478000 147.062000 -1349.350000 -0.667859 -0.349765 0.656984 1.000000
-169.294000 148.620000 -1348.050000 -0.648963 -0.336242 0.682487 1.000000
-169.121000 150.183000 -1346.750000 -0.630196 -0.310225 0.711768 1.000000
-168.916000 151.934000 -1345.840000 -0.635209 -0.213681 0.742192 1.000000
-168.671000 153.914000 -1345.410000 -0.637922 -0.018092 0.769889 1.000000
-168.425000 155.895000 -1344.990000 -0.525824 0.301188 0.795484 0.010000
-168.457000 157.339000 -1346.430000 -0.433908 0.580522 0.688998 1.000000
-168.488000 158.782000 -1347.870000 -0.412017 0.696131 0.587914 1.000000
-168.613000 160.270000 -1349.260000 0.349741 0.893549 0.281518 1.000000
-168.817000 161.795000 -1350.600000 -0.426333 0.773989 0.468167 1.000000
-168.985000 163.265000 -1351.990000 0.600077 0.797284 0.065158 1.000000
-168.840000 164.243000 -1353.770000 0.433083 0.893915 0.115562 1.000000
-168.695000 165.220000 -1355.560000 0.618209 0.785903 -0.013197 1.000000
-168.734000 166.514000 -1357.100000 -0.096002 0.979885 0.174952 1.000000
-168.871000 167.978000 -1358.520000 -0.280560 -0.100024 0.954611 1.000000
-169.038000 169.424000 -1359.950000 0.124836 0.654411 0.745763 1.000000
-169.324000 170.798000 -1361.430000 0.188376 0.771092 0.608220 1.000000
-169.610000 172.173000 -1362.910000 0.163840 0.808529 0.565188 1.000000
-169.886000 173.607000 -1364.330000 0.136890 0.830031 0.540657 1.000000
-170.157000 175.062000 -1365.740000 0.213204 0.855047 0.472693 1.000000
-170.442000 176.544000 -1367.110000 0.273501 0.816563 0.508352 1.000000
-170.761000 178.089000 -1368.410000 0.189205 0.497281 0.846707 1.000000
-171.079000 179.635000 -1369.700000 0.167689 0.446436 0.878963 1.000000
-171.510000 180.025000 -1371.580000 -0.110855 0.874268 0.472617 1.000000
-171.960000 180.210000 -1373.560000 0.130098 0.756734 0.640647 1.000000
-172.305000 180.406000 -1375.560000 -0.453866 0.814683 0.360966 1.000000
-172.493000 180.618000 -1377.580000 -0.000015 0.983504 0.180888 1.000000
-172.680000 180.830000 -1379.600000 0.132618 0.984384 0.115759 1.000000
-172.940000 180.872000 -1381.620000 0.199709 0.974492 0.102376 1.000000
-173.204000 180.905000 -1383.650000 -0.458761 -0.882113 0.106840 1.000000
-173.454000 180.846000 -1385.670000 -0.371214 -0.926009 0.068615 1.000000
-173.691000 180.697000 -1387.690000 -0.315999 -0.947305 0.052515 1.000000
-173.926000 180.559000 -1389.710000 -0.279316 -0.959035 0.047263 1.000000
-174.118000 180.655000 -1391.740000 0.391537 0.865927 0.311237 1.000000
-174.310000 180.752000 -1393.770000 0.401631 0.833864 0.378634 1.000000
-174.820000 180.511000 -1395.690000 0.371490 0.820472 0.434535 1.000000
-175.540000 180.045000 -1397.550000 -0.079985 0.648851 -0.756700 1.000000
