# .PCD v0.7 - Point Cloud Data file format
# 4 130 0
# 1 10 0
# 11 21 0
# 22 121 0
# 122 130 0
VERSION 0.7
FIELDS x y z normal_x normal_y normal_z curvature
SIZE 4 4 4 4 4 4 4
TYPE F F F F F F F
COUNT 1 1 1 1 1 1 1
WIDTH 130
HEIGHT 1
VIEWPOINT 0 0 0 1 0 0 0
POINTS 130
DATA ascii
-85.304300 -144.872000 -1328.060000 0.104128 0.905413 -0.411564 0.010000
-83.357700 -144.544000 -1327.610000 0.137495 0.865088 -0.482408 1.000000
-81.392000 -144.285000 -1327.190000 0.183396 0.813727 -0.551556 1.000000
-79.426300 -144.025000 -1326.770000 0.238560 0.741051 -0.627640 1.000000
-78.169900 -143.000000 -1327.260000 0.277323 0.692973 -0.665493 1.000000
-77.369400 -141.483000 -1328.340000 0.762368 -0.247590 -0.597908 1.000000
-76.568800 -139.965000 -1329.420000 0.650182 -0.411025 -0.639001 1.000000
-75.846500 -138.488000 -1330.600000 0.663917 -0.422123 -0.617274 1.000000
-75.143200 -137.021000 -1331.810000 0.741699 -0.360014 -0.565927 1.000000
-74.439900 -135.554000 -1333.020000 0.773931 -0.354502 -0.524746 1.000000
-111.455000 -80.274000 -1399.180000 0.816764 -0.389473 -0.425685 1.000000
-110.097000 -79.063500 -1398.290000 0.809140 -0.417790 -0.413211 1.000000
-108.738000 -77.853000 -1397.400000 0.807572 -0.437619 -0.395370 1.000000
-107.439000 -76.590200 -1396.500000 0.811895 -0.451246 -0.370409 1.000000
-106.383000 -75.112900 -1395.600000 0.803598 -0.482306 -0.348728 1.000000
-105.327000 -73.635500 -1394.700000 0.753587 -0.555657 -0.351215 1.000000
-104.215000 -72.156400 -1394.420000 0.686345 -0.633771 -0.356743 1.000000
-103.014000 -70.674400 -1395.110000 0.609060 -0.704367 -0.364573 1.000000
-101.814000 -69.192400 -1395.790000 0.527996 -0.761676 -0.375592 1.000000
-100.288000 -68.220600 -1395.600000 0.438454 -0.809717 -0.390020 0.010000
-98.532400 -67.608000 -1394.800000 0.341724 -0.848041 -0.405033 1.000000
-96.776800 -66.995400 -1393.990000 0.250468 -0.873592 -0.417256 1.000000
-94.870300 -66.661600 -1394.200000 0.168336 -0.889479 -0.424841 1.000000
-92.921900 -66.405400 -1394.700000 0.092876 -0.898644 -0.428733 1.000000
-90.973500 -66.149100 -1395.200000 0.034899 -0.901215 -0.431964 1.000000
-88.950700 -66.165200 -1395.290000 -0.041064 -0.899333 -0.435333 1.000000
-86.926200 -66.187400 -1395.380000 -0.141856 -0.888392 -0.436620 1.000000
-84.909300 -66.280200 -1395.460000 -0.271715 -0.857775 -0.436341 1.000000
-82.928700 -66.709000 -1395.480000 -0.432861 -0.787562 -0.438609 1.000000
-80.948100 -67.137700 -1395.510000 -0.590612 -0.648400 -0.480369 1.000000
-79.975800 -68.066800 -1395.750000 -0.606961 -0.439412 -0.662204 0.010000
-80.723500 -69.849500 -1396.360000 -0.802560 -0.454261 -0.386710 1.000000
-81.471200 -71.632100 -1396.970000 -0.820739 -0.292826 -0.490552 1.000000
-82.362900 -73.365900 -1397.500000 -0.911290 -0.098831 -0.399728 1.000000
-83.365400 -75.062200 -1397.970000 -0.886805 0.143588 -0.439271 1.000000
-84.367900 -76.758500 -1398.450000 -0.827195 0.237822 -0.509106 1.000000
-85.588200 -78.281700 -1398.150000 -0.830429 0.373514 -0.413370 1.000000
-86.876800 -79.750500 -1397.610000 -0.695617 0.055597 -0.716258 1.000000
-88.165400 -81.219300 -1397.080000 -0.764457 0.531572 -0.364741 1.000000
-89.584600 -82.616600 -1396.700000 -0.106150 -0.879561 -0.463793 1.000000
-91.009700 -84.010600 -1396.340000 0.046601 -0.886934 -0.459539 1.000000
-92.451600 -85.280100 -1396.210000 0.127385 0.714990 -0.687431 1.000000
-93.987300 -85.855800 -1397.400000 0.781019 0.575649 -0.242154 1.000000
-95.523000 -86.431600 -1398.590000 0.408628 0.656134 -0.634438 1.000000
-97.041700 -87.042000 -1399.790000 0.285136 0.687841 -0.667512 1.000000
-98.528700 -87.717400 -1400.990000 0.220005 0.725145 -0.652505 1.000000
-100.016000 -88.392800 -1402.190000 0.067758 0.831838 -0.550866 1.000000
-101.504000 -89.094700 -1403.370000 0.305716 0.639715 -0.705196 1.000000
-102.995000 -89.818700 -1404.540000 0.247342 0.734901 -0.631460 1.000000
-104.485000 -90.542700 -1405.700000 0.436427 0.027324 -0.899325 1.000000
-105.907000 -91.268000 -1406.950000 0.309885 -0.790413 -0.528412 1.000000
-107.306000 -91.993700 -1408.220000 -0.217841 0.963306 -0.156800 1.000000
-108.704000 -92.719500 -1409.500000 -0.062737 0.974926 -0.213503 1.000000
-110.037000 -93.872400 -1410.490000 0.057605 0.899519 -0.433068 1.000000
-111.365000 -95.055200 -1411.460000 0.421263 -0.871568 -0.250813 1.000000
-112.780000 -96.047200 -1412.280000 0.506381 -0.845193 -0.170957 1.000000
-114.779000 -95.767700 -1412.100000 0.935490 0.311671 0.166490 1.000000
-116.778000 -95.488200 -1411.920000 0.171527 0.369369 -0.913315 1.000000
-118.747000 -95.096200 -1411.700000 -0.223141 0.194613 -0.955162 1.000000
-120.654000 -94.471900 -1411.420000 -0.351822 0.132011 -0.926712 1.000000
-122.561000 -93.847600 -1411.140000 -0.414831 0.096704 -0.904745 1.000000
-123.991000 -94.408900 -1411.330000 -0.458006 0.055458 -0.887218 1.000000
-124.985000 -96.057100 -1411.970000 -0.491135 0.028749 -0.870609 1.000000
-125.979000 -97.705300 -1412.600000 -0.512019 0.037635 -0.858150 1.000000
-126.540000 -99.593900 -1412.680000 -0.512678 0.091412 -0.853701 1.000000
-126.932000 -101.577000 -1412.540000 -0.492234 0.176615 -0.852357 1.000000
-127.324000 -103.561000 -1412.400000 -0.465035 0.268004 -0.843752 1.000000
-127.841000 -105.505000 -1412.160000 -0.431183 0.358262 -0.828088 1.000000
-128.370000 -107.447000 -1411.920000 -0.389910 0.426037 -0.816372 1.000000
-128.899000 -109.381000 -1411.650000 -0.354723 0.388523 -0.850424 1.000000
-129.431000 -111.266000 -1411.120000 -0.336035 0.303768 -0.891519 1.000000
-129.963000 -113.150000 -1410.600000 -0.342436 0.085470 -0.935646 1.000000
-130.406000 -114.955000 -1409.870000 -0.347494 -0.408253 -0.844143 1.000000
-130.646000 -116.582000 -1408.690000 -0.257647 -0.830735 -0.493454 1.000000
-130.886000 -118.208000 -1407.500000 -0.184895 -0.944415 -0.271836 1.000000
-131.107000 -119.747000 -1406.210000 -0.144655 -0.967939 -0.205351 1.000000
-131.308000 -121.199000 -1404.810000 -0.113557 -0.911974 -0.394219 1.000000
-131.510000 -122.650000 -1403.410000 -0.073987 -0.735095 -0.673915 1.000000
-131.413000 -124.129000 -1402.040000 -0.071808 -0.538908 -0.839298 1.000000
-131.187000 -125.620000 -1400.690000 -0.102366 -0.429703 -0.897149 1.000000
-130.960000 -127.111000 -1399.340000 -0.139357 -0.429083 -0.892450 1.000000
-130.980000 -128.759000 -1398.160000 -0.174930 -0.477218 -0.861198 1.000000
-131.030000 -130.426000 -1397.010000 -0.206832 -0.520085 -0.828693 1.000000
-131.090000 -132.090000 -1395.860000 -0.234598 -0.557758 -0.796159 1.000000
-131.251000 -133.729000 -1394.670000 -0.259498 -0.591714 -0.763241 1.000000
-131.412000 -135.367000 -1393.490000 0.865771 0.254554 0.430863 1.000000
-131.388000 -136.848000 -1392.180000 -0.298092 -0.647695 -0.701165 1.000000
-130.895000 -137.930000 -1390.540000 -0.310823 -0.669753 -0.674403 1.000000
-130.402000 -139.012000 -1388.900000 0.856737 0.345111 0.383275 1.000000
-129.919000 -140.164000 -1387.300000 0.201082 -0.250364 0.947040 1.000000
-129.447000 -141.392000 -1385.760000 -0.311757 -0.761388 -0.568415 1.000000
-128.976000 -142.620000 -1384.220000 -0.292550 -0.801519 -0.521519 1.000000
-128.512000 -143.687000 -1382.570000 -0.261721 -0.848287 -0.460338 1.000000
-128.053000 -144.674000 -1380.860000 -0.217925 -0.898890 -0.380138 1.000000
-127.594000 -145.662000 -1379.150000 -0.163479 -0.945296 -0.282293 1.000000
-127.176000 -146.774000 -1377.510000 -0.126763 -0.946931 -0.295385 1.000000
-126.765000 -147.904000 -1375.880000 -0.105846 -0.930428 -0.350855 1.000000
-126.328000 -149.006000 -1374.240000 -0.097678 -0.899911 -0.424993 1.000000
-125.532000 -149.695000 -1372.510000 -0.092801 -0.861133 -0.499838 1.000000
-124.735000 -150.384000 -1370.780000 -0.090460 -0.821496 -0.562993 1.000000
-124.056000 -151.255000 -1369.120000 -0.087752 -0.787069 -0.610591 1.000000
-123.710000 -152.640000 -1367.680000 -0.085020 -0.762125 -0.641823 1.000000
-123.363000 -154.026000 -1366.250000 -0.078240 -0.805102 -0.587953 1.000000
-122.408000 -154.910000 -1364.960000 -0.064413 -0.849173 -0.524172 1.000000
-120.728000 -155.194000 -1363.870000 -0.041221 -0.886875 -0.460167 1.000000
-119.048000 -155.479000 -1362.770000 -0.024185 -0.926923 -0.374472 1.000000
-117.451000 -155.484000 -1361.540000 -0.012521 -0.966881 -0.254920 1.000000
-115.899000 -155.340000 -1360.250000 -0.008540 -0.996475 -0.083450 1.000000
-114.346000 -155.195000 -1358.960000 -0.019576 -0.992790 0.118254 1.000000
-112.980000 -154.752000 -1357.530000 0.150972 0.987663 -0.041583 1.000000
-111.648000 -154.256000 -1356.090000 0.101902 0.937126 -0.333783 1.000000
-110.326000 -153.756000 -1354.640000 0.113733 0.919977 -0.375109 1.000000
-109.235000 -153.178000 -1353.030000 0.134198 0.986373 -0.095184 1.000000
-108.143000 -152.601000 -1351.430000 0.223059 0.961165 0.162502 1.000000
-107.051000 -152.024000 -1349.820000 0.220147 0.963104 0.154811 1.000000
-105.954000 -151.445000 -1348.220000 0.216630 0.965355 0.145471 1.000000
-104.856000 -150.866000 -1346.610000 0.212739 0.967727 0.135079 1.000000
-103.763000 -150.317000 -1345.000000 0.208436 0.970206 0.123507 1.000000
-102.674000 -149.805000 -1343.370000 0.203664 0.972777 0.110571 1.000000
-101.585000 -149.293000 -1341.740000 0.198346 0.975417 0.096019 1.000000
-100.349000 -148.873000 -1340.190000 0.190789 0.978755 0.075084 1.000000
-99.026600 -148.508000 -1338.700000 0.181439 0.982195 0.048721 1.000000
-97.704200 -148.143000 -1337.210000 0.171184 0.985053 0.019151 1.000000
-96.340900 -147.709000 -1335.780000 0.159691 0.987054 -0.014942 1.000000
-94.969000 -147.261000 -1334.350000 0.147331 0.987670 -0.052936 1.000000
-93.595700 -146.813000 -1332.930000 0.134354 0.986401 -0.094667 1.000000
-92.156600 -146.415000 -1331.560000 0.120329 0.982450 -0.142524 1.000000
-90.717500 -146.016000 -1330.190000 0.102096 0.975493 -0.194907 1.000000
-89.171000 -145.622000 -1329.020000 0.063506 0.962873 -0.262379 1.000000
-87.237600 -145.247000 -1328.540000 0.075853 0.938157 -0.337800 1.000000
