# .PCD v0.7 - Point Cloud Data file format
# 4 114 0
# 1 39 0
# 40 76 0
# 77 110 0
# 111 114 0
VERSION 0.7
FIELDS x y z normal_x normal_y normal_z curvature
SIZE 4 4 4 4 4 4 4
TYPE F F F F F F F
COUNT 1 1 1 1 1 1 1
WIDTH 114
HEIGHT 1
VIEWPOINT 0 0 0 1 0 0 0
POINTS 114
DATA ascii
-175.414000 71.996700 -1429.520000 0.742562 -0.521698 0.420039 0.010000
-174.244000 72.423900 -1430.890000 0.723295 -0.521368 0.452791 1.000000
-172.919000 73.012200 -1432.040000 0.714805 -0.499336 0.489609 1.000000
-171.598000 73.288300 -1433.300000 0.698535 -0.470074 0.539517 1.000000
-170.461000 74.178700 -1434.460000 0.703636 -0.427816 0.567335 1.000000
-169.312000 74.295000 -1435.980000 0.693970 -0.387781 0.606656 1.000000
-167.950000 74.507800 -1437.210000 0.688915 -0.352435 0.633393 1.000000
-166.689000 75.331400 -1438.280000 0.689780 -0.333514 0.642629 1.000000
-165.389000 76.229300 -1439.250000 0.672515 -0.329214 0.662829 1.000000
-163.949000 76.795800 -1440.260000 0.645617 -0.324723 0.691183 1.000000
-162.527000 77.455500 -1441.240000 0.617186 -0.327424 0.715454 1.000000
-161.030000 78.274200 -1441.950000 0.588236 -0.341400 0.733092 1.000000
-159.658000 79.289500 -1442.660000 0.558263 -0.364083 0.745511 1.000000
-158.151000 80.102400 -1443.360000 0.541698 -0.379975 0.749789 1.000000
-156.591000 80.994200 -1443.800000 0.530516 -0.397869 0.748500 1.000000
-155.381000 82.188400 -1444.520000 0.525873 -0.414053 0.742978 1.000000
-153.945000 83.221600 -1445.060000 0.528562 -0.417600 0.739075 1.000000
-152.467000 84.296000 -1445.350000 0.545480 -0.412060 0.729834 1.000000
-150.942000 85.182200 -1445.900000 0.558800 -0.383025 0.735551 1.000000
-149.347000 85.980200 -1446.390000 0.555764 -0.370802 0.744065 1.000000
-147.813000 86.144500 -1447.410000 0.531815 -0.330074 0.779887 1.000000
-146.487000 87.251100 -1448.070000 0.517414 -0.358648 0.776953 1.000000
-145.062000 88.179800 -1448.800000 0.490909 -0.386830 0.780622 1.000000
-143.325000 88.440100 -1449.370000 0.465714 -0.388428 0.795132 1.000000
-141.576000 88.773900 -1449.870000 0.448429 -0.392933 0.802817 1.000000
-139.990000 89.703400 -1450.070000 0.437674 -0.430289 0.789489 1.000000
-138.947000 91.228200 -1450.000000 0.444368 -0.494208 0.747192 1.000000
-137.890000 92.743500 -1449.910000 0.465631 -0.541075 0.700304 1.000000
-137.114000 94.302700 -1449.290000 0.508575 -0.547138 0.664824 1.000000
-135.712000 95.474600 -1449.570000 0.541215 -0.520630 0.660326 1.000000
-134.297000 96.616500 -1449.910000 0.553981 -0.504515 0.662246 1.000000
-132.738000 97.355300 -1450.570000 0.545918 -0.490236 0.679442 1.000000
-131.292000 98.439900 -1450.960000 0.538354 -0.494300 0.682526 1.000000
-129.851000 99.559800 -1451.260000 0.528348 -0.505249 0.682328 1.000000
-128.859000 101.072000 -1450.870000 0.529702 -0.527240 0.664405 1.000000
-127.801000 102.555000 -1450.560000 0.538037 -0.513088 0.668772 1.000000
-126.697000 104.028000 -1450.380000 0.548748 -0.494742 0.673874 1.000000
-125.465000 105.407000 -1450.360000 0.557914 -0.471501 0.682948 1.000000
-123.917000 106.357000 -1450.700000 0.560711 -0.442546 0.699826 1.000000
-122.633000 107.657000 -1450.990000 0.573007 -0.408721 0.710359 1.000000
-121.449000 109.045000 -1451.290000 0.589385 -0.370937 0.717657 1.000000
-119.867000 109.790000 -1451.890000 0.593491 -0.332650 0.732880 1.000000
-118.913000 111.298000 -1452.380000 0.612357 -0.293608 0.734039 1.000000
-118.852000 113.107000 -1452.000000 0.642083 -0.270751 0.717233 0.010000
-119.746000 113.856000 -1450.560000 0.660030 -0.281335 0.696570 1.000000
-121.143000 114.080000 -1449.370000 0.668614 -0.298626 0.681013 1.000000
-122.350000 114.261000 -1447.980000 0.677138 -0.310165 0.667295 1.000000
-123.398000 114.551000 -1446.490000 0.686143 -0.319790 0.653409 1.000000
-124.714000 114.539000 -1445.190000 0.692523 -0.333388 0.639738 1.000000
-125.704000 114.913000 -1443.670000 0.699184 -0.344239 0.626611 1.000000
-127.022000 114.940000 -1442.380000 0.700681 -0.355822 0.618415 1.000000
-128.453000 114.239000 -1441.440000 0.698238 -0.367463 0.614357 1.000000
-129.382000 114.599000 -1439.880000 0.701905 -0.374382 0.605943 1.000000
-130.497000 114.787000 -1438.420000 0.704271 -0.380606 0.599284 1.000000
-131.528000 115.106000 -1436.920000 0.708874 -0.383688 0.591846 1.000000
-132.920000 115.031000 -1435.700000 0.713147 -0.389183 0.583060 1.000000
-134.102000 114.849000 -1434.290000 0.717815 -0.395010 0.573331 1.000000
-134.498000 115.532000 -1432.620000 0.726981 -0.386906 0.567276 1.000000
-135.677000 115.746000 -1431.210000 0.734176 -0.383465 0.560303 1.000000
-136.852000 115.798000 -1429.780000 0.738977 -0.380188 0.556211 1.000000
-137.758000 116.010000 -1428.190000 0.744720 -0.373377 0.553156 1.000000
-139.081000 115.781000 -1426.910000 0.748222 -0.382223 0.542282 1.000000
-140.079000 115.965000 -1425.370000 0.755140 -0.405183 0.515355 1.000000
-140.867000 116.189000 -1423.710000 0.764538 -0.429130 0.480966 1.000000
-141.661000 116.426000 -1422.060000 0.769400 -0.451643 0.451710 1.000000
-142.662000 116.454000 -1420.500000 0.763533 -0.473262 0.439364 1.000000
-143.382000 116.729000 -1418.820000 0.759885 -0.486774 0.430842 1.000000
-144.227000 116.886000 -1417.180000 0.754231 -0.496340 0.429862 1.000000
-145.139000 116.992000 -1415.580000 0.747674 -0.502095 0.434607 1.000000
-145.973000 117.148000 -1413.940000 0.743122 -0.502179 0.442251 1.000000
-147.087000 116.951000 -1412.470000 0.747876 -0.498092 0.438845 1.000000
-147.972000 117.119000 -1410.860000 0.754631 -0.489053 0.437446 1.000000
-148.313000 117.535000 -1409.090000 0.757280 -0.501019 0.418935 1.000000
-149.181000 117.737000 -1407.470000 0.761912 -0.510451 0.398660 1.000000
-149.770000 117.955000 -1405.730000 0.767267 -0.518395 0.377582 1.000000
-150.483000 118.030000 -1404.030000 0.774876 -0.522197 0.356198 1.000000
-151.111000 118.145000 -1402.290000 0.784134 -0.522583 0.334725 1.000000
-151.983000 118.096000 -1400.660000 0.794566 -0.518611 0.315765 1.000000
-152.726000 118.123000 -1398.970000 0.804781 -0.509726 0.304151 1.000000
-153.668000 117.829000 -1397.400000 0.813573 -0.493592 0.307355 1.000000
-154.760000 116.921000 -1396.220000 0.812255 -0.482631 0.327580 0.010000
-155.593000 115.293000 -1396.490000 0.812380 -0.498128 0.303162 1.000000
-156.283000 113.813000 -1397.360000 0.804111 -0.529763 0.269735 1.000000
-157.050000 112.378000 -1398.240000 0.785518 -0.572675 0.234530 1.000000
-158.126000 110.876000 -1398.170000 0.764835 -0.614562 0.193235 1.000000
-159.022000 109.262000 -1398.050000 0.746592 -0.647702 0.151930 1.000000
-159.926000 108.098000 -1399.170000 0.756856 -0.626625 0.185770 1.000000
-160.924000 106.807000 -1400.040000 0.771650 -0.603569 0.200650 1.000000
-162.196000 105.523000 -1400.430000 0.795232 -0.572645 0.199209 1.000000
-162.972000 104.135000 -1401.370000 0.811160 -0.552695 0.191175 1.000000
-163.657000 102.425000 -1401.530000 0.823223 -0.545099 0.158654 1.000000
-164.332000 100.930000 -1402.390000 0.818263 -0.558370 0.136636 1.000000
-164.794000 99.803300 -1403.780000 0.799036 -0.584333 0.141763 1.000000
-165.539000 98.741700 -1405.100000 0.777802 -0.607962 0.159389 1.000000
-166.388000 97.491000 -1406.160000 0.781707 -0.592220 0.195475 1.000000
-167.398000 96.472000 -1407.330000 0.792086 -0.568713 0.221732 1.000000
-167.950000 94.815600 -1407.940000 0.815658 -0.531219 0.229147 1.000000
-168.321000 93.308200 -1408.940000 0.838537 -0.491795 0.234507 1.000000
-168.676000 91.983200 -1410.180000 0.850542 -0.478486 0.218239 1.000000
-169.191000 91.007400 -1411.660000 0.853532 -0.479118 0.204767 1.000000
-169.557000 90.261000 -1413.320000 0.850890 -0.485556 0.200554 1.000000
-169.961000 88.957900 -1414.560000 0.855656 -0.480559 0.192136 1.000000
-169.902000 87.963400 -1416.120000 0.850731 -0.488207 0.194705 1.000000
-170.080000 86.654100 -1417.420000 0.846138 -0.499079 0.187005 1.000000
-170.554000 85.377800 -1418.670000 0.840681 -0.509605 0.183189 1.000000
-171.432000 83.869500 -1419.280000 0.839691 -0.516167 0.168792 1.000000
-171.802000 82.663900 -1420.630000 0.826885 -0.533026 0.179288 1.000000
-172.065000 81.860900 -1422.280000 0.817270 -0.530030 0.226136 1.000000
-172.906000 80.281300 -1422.740000 0.818383 -0.522398 0.239477 1.000000
-173.444000 79.154300 -1424.100000 0.809427 -0.513992 0.283971 1.000000
-173.698000 77.815600 -1425.350000 0.797207 -0.504868 0.331013 1.000000
-174.213000 76.328900 -1426.330000 0.782701 -0.503273 0.366191 1.000000
-174.859000 74.921400 -1427.340000 0.767370 -0.509208 0.389679 1.000000
-175.178000 73.509600 -1428.490000 0.751197 -0.517515 0.409733 1.000000
