# .PCD v0.7 - Point Cloud Data file format
# 5 91 0
# 1 10 0
# 11 15 0
# 16 50 0
# 51 81 0
# 82 91 0
VERSION 0.7
FIELDS x y z normal_x normal_y normal_z curvature
SIZE 4 4 4 4 4 4 4
TYPE F F F F F F F
COUNT 1 1 1 1 1 1 1
WIDTH 91
HEIGHT 1
VIEWPOINT 0 0 0 1 0 0 0
POINTS 91
DATA ascii
-212.764000 130.257000 -1663.800000 0.741000 -0.062587 0.668582 0.010000
-212.524000 128.505000 -1663.270000 0.845362 0.010525 0.534091 1.000000
-213.153000 127.935000 -1661.440000 0.944040 0.064688 0.323427 1.000000
-213.506000 127.622000 -1659.490000 0.982785 0.062880 0.173723 1.000000
-213.712000 127.470000 -1657.480000 0.999183 0.028262 0.028897 1.000000
-214.070000 127.384000 -1655.490000 0.999296 0.033816 -0.016274 1.000000
-214.421000 127.399000 -1653.500000 0.998490 0.038199 -0.039484 1.000000
-214.764000 127.530000 -1651.510000 0.997852 0.039892 -0.051968 1.000000
-215.063000 128.395000 -1649.700000 0.997730 0.035415 -0.057281 1.000000
-215.235000 129.165000 -1647.850000 0.997928 0.031758 -0.055955 1.000000
-215.293000 129.849000 -1645.940000 0.998301 0.031648 -0.048917 1.000000
-210.990000 129.416000 -1666.460000 0.492606 -0.143047 0.858415 1.000000
-209.464000 130.748000 -1666.480000 0.367107 -0.198525 0.908747 1.000000
-207.899000 132.010000 -1666.660000 0.384687 -0.202118 0.900647 1.000000
-206.289000 133.192000 -1667.000000 0.459823 -0.195870 0.866140 1.000000
-204.647000 134.328000 -1667.340000 0.489873 -0.245250 0.836586 1.000000
-203.045000 135.524000 -1667.650000 0.320530 -0.431373 0.843314 1.000000
-201.499000 136.806000 -1667.910000 0.154509 -0.583624 0.797188 1.000000
-199.604000 137.469000 -1667.840000 0.250473 -0.609131 0.752478 1.000000
-197.772000 138.271000 -1667.730000 0.354834 -0.597640 0.718971 1.000000
-196.112000 139.427000 -1667.620000 0.309096 -0.622032 0.719399 0.010000
-194.194000 140.025000 -1667.600000 0.260579 -0.632439 0.729465 1.000000
-192.271000 140.636000 -1667.600000 0.245711 -0.632230 0.734787 1.000000
-190.434000 141.488000 -1667.600000 0.231697 -0.633190 0.738503 1.000000
-188.772000 142.567000 -1667.240000 0.136395 -0.646672 0.750474 1.000000
-187.614000 143.797000 -1666.540000 0.085907 -0.671088 0.736383 0.010000
-187.688000 145.273000 -1665.160000 0.056857 -0.693609 0.718104 1.000000
-188.052000 146.666000 -1663.750000 0.032592 -0.708884 0.704572 1.000000
-188.494000 148.030000 -1662.320000 0.014716 -0.723717 0.689940 1.000000
-188.860000 149.395000 -1660.860000 -0.014923 -0.766959 0.641522 1.000000
-189.522000 150.622000 -1659.410000 -0.018643 -0.794897 0.606458 1.000000
-190.361000 151.749000 -1657.960000 0.001638 -0.806226 0.591605 1.000000
-191.436000 152.684000 -1656.520000 0.037405 -0.788551 0.613831 1.000000
-192.187000 153.772000 -1655.010000 -0.005525 -0.809796 0.586685 1.000000
-192.785000 154.907000 -1653.450000 -0.068529 -0.839713 0.538689 1.000000
-193.573000 155.764000 -1651.790000 -0.090465 -0.857167 0.507032 1.000000
-193.513000 156.427000 -1650.020000 -0.315908 -0.876345 0.363623 1.000000
-192.875000 156.947000 -1648.170000 -0.552867 -0.789849 0.265475 1.000000
-192.311000 157.319000 -1646.260000 -0.653846 -0.705018 0.274653 1.000000
-192.385000 158.154000 -1644.570000 -0.694204 -0.637719 0.333761 1.000000
-193.000000 159.383000 -1643.090000 -0.699140 -0.581734 0.415679 1.000000
-193.676000 160.813000 -1641.820000 -0.647792 -0.592112 0.479342 1.000000
-193.891000 162.162000 -1640.410000 -0.627855 -0.625769 0.462830 1.000000
-193.629000 163.428000 -1638.850000 -0.650126 -0.635071 0.417159 1.000000
-193.032000 164.420000 -1637.190000 -0.711947 -0.611165 0.345844 1.000000
-192.919000 165.397000 -1635.510000 -0.734508 -0.618024 0.280258 1.000000
-193.434000 166.367000 -1633.810000 -0.708280 -0.675770 0.204141 1.000000
-194.023000 166.855000 -1631.940000 -0.699257 -0.706745 0.107478 1.000000
-194.423000 167.201000 -1630.000000 -0.703102 -0.711089 0.000101 1.000000
-194.517000 167.396000 -1627.990000 -0.722155 -0.689561 -0.054753 1.000000
-195.400000 168.444000 -1626.590000 -0.648571 -0.760997 -0.015499 1.000000
-196.270000 169.372000 -1625.090000 -0.593513 -0.804724 0.012732 1.000000
-196.874000 169.807000 -1623.210000 -0.595886 -0.802824 0.019856 1.000000
-198.417000 170.515000 -1622.340000 -0.588206 -0.808054 0.032593 1.000000
-200.215000 171.240000 -1621.990000 -0.588903 -0.806702 0.049252 1.000000
-202.108000 171.851000 -1622.370000 -0.565868 -0.820033 0.085669 1.000000
-203.970000 172.464000 -1622.870000 -0.509496 -0.844697 0.164013 1.000000
-205.814000 173.046000 -1623.470000 -0.420554 -0.857275 0.297009 1.000000
-207.630000 173.530000 -1624.230000 -0.178122 -0.872388 0.455204 1.000000
-209.420000 173.993000 -1625.050000 0.136327 -0.860274 0.491268 1.000000
-210.936000 174.137000 -1626.040000 0.513377 -0.754815 0.408287 0.010000
-211.292000 172.919000 -1627.620000 0.588293 -0.699007 0.406572 1.000000
-211.605000 171.669000 -1629.180000 0.656734 -0.629071 0.415897 1.000000
-211.837000 170.434000 -1630.760000 0.704130 -0.551712 0.447006 1.000000
-211.694000 169.383000 -1632.480000 0.665171 -0.573884 0.477707 1.000000
-211.247000 168.240000 -1634.070000 0.602510 -0.610834 0.513676 1.000000
-210.625000 167.054000 -1635.590000 0.507473 -0.662222 0.551301 1.000000
-210.223000 166.034000 -1637.290000 0.429714 -0.697406 0.573560 1.000000
-209.780000 165.038000 -1639.000000 0.325580 -0.731718 0.598821 1.000000
-209.299000 164.049000 -1640.700000 0.191242 -0.756601 0.625285 1.000000
-208.665000 162.780000 -1642.140000 0.050234 -0.762077 0.645535 1.000000
-208.269000 161.434000 -1643.580000 0.018240 -0.749810 0.661402 1.000000
-208.103000 160.015000 -1645.020000 -0.004887 -0.745728 0.666232 1.000000
-208.187000 158.762000 -1646.610000 -0.023595 -0.743526 0.668291 1.000000
-208.203000 157.454000 -1648.150000 -0.061035 -0.741135 0.668575 1.000000
-208.134000 156.077000 -1649.630000 -0.114990 -0.734365 0.668944 1.000000
-209.306000 155.042000 -1650.870000 0.114544 -0.742490 0.659991 1.000000
-210.068000 153.873000 -1652.190000 0.300883 -0.710604 0.636012 1.000000
-210.099000 152.475000 -1653.660000 0.267925 -0.702210 0.659634 1.000000
-209.861000 151.075000 -1655.100000 0.160376 -0.698985 0.696922 1.000000
-209.663000 149.650000 -1656.520000 0.079762 -0.692975 0.716536 1.000000
-209.606000 148.179000 -1657.910000 0.058755 -0.686188 0.725047 1.000000
-209.771000 146.737000 -1659.320000 0.100578 -0.675036 0.730897 1.000000
-210.115000 145.247000 -1660.620000 0.188464 -0.653640 0.732964 1.000000
-210.766000 143.635000 -1661.660000 0.337227 -0.579546 0.741893 1.000000
-211.416000 141.907000 -1662.480000 0.457279 -0.456981 0.762931 1.000000
-212.037000 140.098000 -1663.050000 0.536669 -0.342748 0.771045 1.000000
-212.575000 138.145000 -1663.060000 0.648283 -0.229759 0.725906 1.000000
-212.939000 136.210000 -1663.460000 0.670232 -0.146050 0.727639 1.000000
-213.159000 134.263000 -1663.910000 0.675940 -0.109507 0.728775 1.000000
-213.064000 132.241000 -1663.980000 0.704360 -0.084814 0.704758 1.000000
