# .PCD v0.7 - Point Cloud Data file format
# 2 30 0
# 1 29 0
# 30 30 0
VERSION 0.7
FIELDS x y z normal_x normal_y normal_z curvature
SIZE 4 4 4 4 4 4 4
TYPE F F F F F F F
COUNT 1 1 1 1 1 1 1
WIDTH 30
HEIGHT 1
VIEWPOINT 0 0 0 1 0 0 0
POINTS 30
DATA ascii
169.039000 168.554000 -1615.320000 -0.120740 0.618927 -0.776113 0.010000
169.230000 167.615000 -1616.220000 -0.810205 -0.550327 0.201762 1.000000
184.483000 188.044000 -1605.420000 -0.573479 -0.086534 0.814637 1.000000
183.285000 187.943000 -1604.890000 -0.358306 0.047126 0.932414 1.000000
182.092000 187.840000 -1604.340000 -0.441144 0.111212 0.890519 1.000000
180.912000 187.729000 -1603.770000 -0.441144 0.111212 0.890519 0.000000
179.727000 187.788000 -1603.220000 -0.441144 0.111212 0.890519 0.000000
178.538000 187.964000 -1602.690000 -0.441144 0.111212 0.890519 0.000000
177.258000 187.833000 -1602.470000 -0.441144 0.111212 0.890519 1.000000
175.983000 187.592000 -1602.340000 0.546776 -0.264847 0.794287 1.000000
174.797000 187.027000 -1602.410000 0.503195 -0.510497 0.697272 1.000000
173.624000 186.436000 -1602.420000 0.486444 -0.611302 0.624245 1.000000
172.463000 185.818000 -1602.370000 0.491981 -0.646501 0.583088 1.000000
171.490000 184.970000 -1602.520000 0.499251 -0.664938 0.555523 1.000000
170.589000 184.042000 -1602.750000 0.511111 -0.669275 0.539292 1.000000
169.944000 182.988000 -1603.200000 0.523190 -0.666579 0.530984 1.000000
169.347000 181.955000 -1603.740000 0.537221 -0.657414 0.528395 1.000000
168.838000 180.962000 -1604.430000 0.551728 -0.643544 0.530516 1.000000
168.315000 179.935000 -1605.070000 0.568360 -0.623857 0.536442 1.000000
167.784000 178.889000 -1605.660000 0.586335 -0.598209 0.546221 1.000000
167.517000 177.894000 -1606.470000 0.602158 -0.568031 0.561022 1.000000
167.300000 176.898000 -1607.300000 0.615220 -0.533634 0.580292 1.000000
167.191000 175.890000 -1608.140000 0.625325 -0.491939 0.605775 1.000000
167.208000 174.869000 -1608.960000 0.629463 -0.438067 0.641774 1.000000
167.338000 173.836000 -1609.770000 0.634611 -0.444947 0.631895 1.000000
167.504000 172.897000 -1610.670000 0.639416 -0.454823 0.619906 1.000000
167.700000 171.998000 -1611.610000 0.643249 -0.461039 0.611288 1.000000
168.077000 171.241000 -1612.610000 0.643378 -0.468017 0.605826 1.000000
168.445000 170.415000 -1613.560000 0.643714 -0.473360 0.601301 1.000000
168.800000 169.490000 -1614.430000 0.644919 -0.477010 0.597111 1.000000
