# .PCD v0.7 - Point Cloud Data file format
# 3 52 0
# 1 4 0
# 5 34 0
# 35 52 0
VERSION 0.7
FIELDS x y z normal_x normal_y normal_z curvature
SIZE 4 4 4 4 4 4 4
TYPE F F F F F F F
COUNT 1 1 1 1 1 1 1
WIDTH 52
HEIGHT 1
VIEWPOINT 0 0 0 1 0 0 0
POINTS 52
DATA ascii
201.319000 130.831000 -1608.300000 -0.161147 0.050567 -0.985634 0.010000
201.868000 132.557000 -1608.080000 -0.174062 0.149804 -0.973273 1.000000
202.532000 134.416000 -1607.500000 -0.220250 0.287597 -0.932082 1.000000
203.253000 136.247000 -1606.910000 -0.294599 0.438021 -0.849323 1.000000
204.109000 138.013000 -1606.300000 -0.376541 0.560131 -0.737882 1.000000
204.965000 139.780000 -1605.680000 -0.460593 0.637836 -0.617268 1.000000
206.392000 141.159000 -1605.350000 -0.489218 0.649623 -0.581941 1.000000
208.009000 142.408000 -1605.120000 -0.490299 0.645060 -0.586092 1.000000
209.601000 143.690000 -1604.920000 -0.416623 0.470184 -0.778044 1.000000
211.093000 145.104000 -1604.870000 -0.220470 0.354138 -0.908834 1.000000
212.586000 146.518000 -1604.820000 0.080633 0.222909 -0.971499 1.000000
213.889000 148.079000 -1604.600000 0.066746 -0.145457 -0.987110 1.000000
215.088000 149.720000 -1604.280000 -0.022478 -0.085181 -0.996112 1.000000
216.283000 151.360000 -1603.950000 -0.026484 0.036233 -0.998992 1.000000
217.437000 152.999000 -1603.490000 0.018735 0.179823 -0.983521 1.000000
218.591000 154.638000 -1603.030000 0.098613 0.345413 -0.933255 1.000000
219.593000 156.300000 -1602.380000 0.183641 0.504934 -0.843396 1.000000
220.470000 157.981000 -1601.580000 0.259034 0.629579 -0.732483 1.000000
221.346000 159.662000 -1600.790000 0.243379 -0.605597 0.757641 1.000000
220.627000 143.363000 -1550.050000 0.824000 0.389895 -0.411104 1.000000
221.685000 142.381000 -1551.520000 0.853733 0.421917 -0.305164 1.000000
222.742000 141.399000 -1552.980000 -0.162534 -0.898972 0.406733 1.000000
223.251000 140.570000 -1554.660000 0.887863 0.459981 -0.010822 0.010000
223.089000 139.927000 -1556.610000 0.874644 0.477156 0.085561 1.000000
222.927000 139.285000 -1558.560000 0.862348 0.503570 0.052658 1.000000
222.478000 138.531000 -1560.410000 -0.061959 -0.285548 -0.956359 1.000000
221.997000 137.765000 -1562.260000 0.741180 0.644151 -0.189003 1.000000
221.467000 137.149000 -1564.140000 0.528242 -0.841970 0.109762 1.000000
220.845000 136.809000 -1566.070000 0.425792 0.815304 -0.392403 1.000000
220.223000 136.470000 -1568.000000 0.393903 0.843504 -0.365159 1.000000
219.469000 135.771000 -1569.770000 0.380159 0.815911 -0.435624 1.000000
218.683000 134.982000 -1571.500000 0.125270 -0.881687 0.454902 1.000000
217.795000 134.310000 -1573.210000 0.074619 -0.892108 0.445618 1.000000
216.598000 133.986000 -1574.850000 0.053094 -0.905685 0.420614 1.000000
215.401000 133.663000 -1576.490000 0.035369 -0.917174 0.396914 1.000000
214.215000 133.334000 -1578.140000 0.021846 -0.927064 0.374266 1.000000
213.033000 133.003000 -1579.790000 0.016198 -0.936460 0.350399 1.000000
211.855000 132.667000 -1581.440000 -0.094555 -0.907384 0.409529 1.000000
210.698000 132.305000 -1583.100000 0.457633 0.845964 -0.273710 1.000000
209.542000 131.943000 -1584.760000 -0.208946 -0.968422 0.136014 1.000000
208.381000 131.565000 -1586.420000 -0.980708 0.148176 0.127501 1.000000
207.216000 131.175000 -1588.070000 -0.308369 -0.944020 -0.117197 1.000000
206.073000 130.767000 -1589.720000 -0.298745 -0.938098 -0.175280 1.000000
205.344000 130.034000 -1591.500000 0.575070 0.689025 -0.441065 1.000000
204.614000 129.300000 -1593.280000 -0.280829 -0.616492 0.735576 1.000000
203.920000 128.647000 -1595.100000 -0.187723 -0.631091 0.752652 1.000000
203.261000 128.076000 -1596.960000 0.595616 0.683792 -0.421509 1.000000
202.601000 127.504000 -1598.820000 -0.106119 0.052295 -0.992977 1.000000
202.195000 127.851000 -1600.800000 -0.139653 0.047691 -0.989051 1.000000
201.803000 128.246000 -1602.780000 -0.156594 0.035971 -0.987008 1.000000
201.526000 128.875000 -1604.690000 -0.160757 0.008672 -0.986956 1.000000
201.422000 129.853000 -1606.490000 -0.156742 0.003653 -0.987633 1.000000
