# .PCD v0.7 - Point Cloud Data file format
# 4 51 0
# 1 20 0
# 21 31 0
# 32 49 0
# 50 51 0
VERSION 0.7
FIELDS x y z normal_x normal_y normal_z curvature
SIZE 4 4 4 4 4 4 4
TYPE F F F F F F F
COUNT 1 1 1 1 1 1 1
WIDTH 51
HEIGHT 1
VIEWPOINT 0 0 0 1 0 0 0
POINTS 51
DATA ascii
-232.760000 -138.670000 -1510.460000 -0.837581 -0.034304 -0.545235 0.010000
-231.654000 -138.416000 -1511.890000 -0.878753 -0.026872 -0.476520 1.000000
-230.888000 -138.057000 -1513.500000 -0.899853 -0.022523 -0.435611 1.000000
-229.893000 -138.553000 -1515.890000 -0.936431 -0.051079 -0.347114 1.000000
-229.294000 -139.626000 -1517.230000 -0.938081 -0.066387 -0.339996 1.000000
-228.739000 -139.134000 -1518.900000 -0.938307 -0.095007 -0.332497 1.000000
-228.076000 -139.901000 -1520.410000 -0.935615 -0.126942 -0.329410 1.000000
-227.518000 -139.835000 -1522.150000 -0.940304 -0.141820 -0.309380 1.000000
-227.017000 -139.736000 -1523.900000 -0.948660 -0.134770 -0.286149 1.000000
-226.500000 -140.738000 -1525.330000 -0.952082 -0.128925 -0.277340 1.000000
-225.964000 -142.073000 -1526.450000 -0.953591 -0.121183 -0.275641 1.000000
-225.419000 -142.931000 -1527.960000 -0.957210 -0.111497 -0.267054 1.000000
-224.915000 -144.161000 -1529.210000 -0.960783 -0.100656 -0.258389 1.000000
-224.383000 -145.076000 -1530.690000 -0.964568 -0.097147 -0.245297 1.000000
-223.987000 -146.388000 -1531.890000 -0.967519 -0.088044 -0.236973 1.000000
-223.710000 -148.099000 -1532.450000 -0.967914 -0.078196 -0.238804 1.000000
-223.333000 -149.483000 -1533.580000 -0.966053 -0.088851 -0.242583 1.000000
-223.172000 -151.290000 -1533.750000 -0.962926 -0.095795 -0.252183 1.000000
-222.748000 -152.626000 -1534.920000 -0.968317 -0.077209 -0.237490 1.000000
-222.392000 -154.166000 -1535.820000 -0.972378 -0.039893 -0.229977 1.000000
-222.105000 -155.717000 -1536.740000 -0.967958 -0.020592 -0.250267 1.000000
-222.010000 -157.504000 -1537.080000 -0.961347 0.001092 -0.275336 1.000000
-222.137000 -159.277000 -1536.680000 -0.948148 0.040059 -0.315294 0.010000
-222.731000 -160.156000 -1535.200000 -0.946000 0.056752 -0.319161 1.000000
-223.333000 -161.142000 -1533.790000 -0.947390 0.059378 -0.314525 1.000000
-223.826000 -161.633000 -1532.100000 -0.950482 0.062164 -0.304500 1.000000
-224.406000 -162.393000 -1530.550000 -0.943211 0.084396 -0.321294 1.000000
-225.019000 -163.167000 -1529.020000 -0.938357 0.098499 -0.331337 1.000000
-225.652000 -163.701000 -1527.400000 -0.938689 0.104826 -0.328443 1.000000
-226.262000 -164.584000 -1525.920000 -0.941413 0.112087 -0.318085 1.000000
-226.818000 -165.758000 -1524.640000 -0.942727 0.127681 -0.308163 1.000000
-227.433000 -167.004000 -1523.460000 -0.930822 0.174699 -0.321016 1.000000
-228.117000 -167.631000 -1521.900000 -0.905863 0.233046 -0.353698 1.000000
-228.929000 -168.785000 -1520.740000 -0.884803 0.277779 -0.374115 0.010000
-229.124000 -167.461000 -1519.510000 -0.891487 0.254068 -0.375100 1.000000
-228.754000 -165.691000 -1519.280000 -0.906577 0.184301 -0.379674 1.000000
-228.540000 -163.938000 -1518.830000 -0.919049 0.122020 -0.374779 1.000000
-228.617000 -162.192000 -1518.310000 -0.926339 0.064858 -0.371065 1.000000
-228.838000 -160.555000 -1517.540000 -0.917131 0.032582 -0.397253 1.000000
-228.947000 -158.779000 -1517.140000 -0.909122 0.020278 -0.416035 1.000000
-229.318000 -157.063000 -1516.660000 -0.906013 0.015342 -0.422972 1.000000
-229.715000 -155.361000 -1516.140000 -0.903311 0.006901 -0.428931 1.000000
-229.449000 -153.573000 -1515.900000 -0.907499 -0.002991 -0.420044 1.000000
-229.798000 -151.889000 -1515.300000 -0.905861 -0.009036 -0.423478 1.000000
-229.864000 -150.068000 -1515.260000 -0.911263 -0.020080 -0.411334 1.000000
-230.148000 -148.368000 -1514.670000 -0.915311 -0.017038 -0.402387 1.000000
-230.589000 -146.854000 -1513.750000 -0.916704 -0.010264 -0.399434 1.000000
-231.006000 -145.287000 -1512.920000 -0.911402 -0.017256 -0.411155 1.000000
-231.338000 -143.637000 -1512.220000 -0.903548 -0.024951 -0.427760 1.000000
-231.747000 -141.994000 -1511.550000 -0.878949 -0.040592 -0.475184 1.000000
-232.201000 -140.301000 -1511.050000 -0.859406 -0.044451 -0.509359 1.000000
