# .PCD v0.7 - Point Cloud Data file format
# 5 132 0
# 1 18 0
# 19 45 0
# 46 98 0
# 99 123 0
# 124 132 0
VERSION 0.7
FIELDS x y z normal_x normal_y normal_z curvature
SIZE 4 4 4 4 4 4 4
TYPE F F F F F F F
COUNT 1 1 1 1 1 1 1
WIDTH 132
HEIGHT 1
VIEWPOINT 0 0 0 1 0 0 0
POINTS 132
DATA ascii
123.918000 22.984600 -1376.260000 -0.139150 0.111221 -0.984006 0.010000
122.599000 24.404100 -1376.820000 0.571803 -0.226786 0.788422 1.000000
121.305000 25.843800 -1377.390000 -0.176091 -0.002588 -0.984371 1.000000
120.076000 27.336600 -1377.960000 -0.169162 -0.035282 -0.984957 1.000000
118.846000 28.829400 -1378.540000 0.304833 0.946641 0.104637 1.000000
118.862000 30.727700 -1378.940000 0.288753 0.951109 0.109603 1.000000
119.096000 32.696500 -1379.320000 0.286109 0.951806 0.110483 1.000000
119.458000 34.653700 -1379.580000 -0.169047 -0.135900 -0.976194 1.000000
119.996000 36.595300 -1379.690000 -0.182940 -0.130375 -0.974441 1.000000
120.533000 38.536900 -1379.810000 -0.197841 -0.124347 -0.972315 1.000000
123.118000 45.945000 -1381.200000 0.665965 -0.027002 0.745494 1.000000
124.009000 47.749600 -1381.340000 0.683665 -0.025989 0.729333 1.000000
124.901000 49.554200 -1381.490000 0.696693 -0.030198 0.716734 1.000000
125.734000 51.371800 -1381.740000 0.706682 -0.035375 0.706647 1.000000
126.525000 53.199200 -1382.060000 -0.328345 -0.053329 -0.943051 1.000000
127.286000 55.040800 -1382.370000 0.720739 -0.044709 0.691763 1.000000
127.876000 56.963900 -1382.520000 -0.359562 -0.017681 -0.932954 1.000000
128.466000 58.887000 -1382.680000 0.736642 -0.049589 0.674463 1.000000
129.956000 59.819500 -1383.180000 -0.380830 0.000024 -0.924645 1.000000
131.793000 60.371000 -1383.810000 -0.378892 -0.007380 -0.925412 1.000000
133.572000 60.982200 -1384.520000 -0.367479 -0.011195 -0.929964 1.000000
135.214000 61.735400 -1385.420000 -0.340058 -0.009116 -0.940360 1.000000
136.856000 62.488500 -1386.310000 -0.278426 -0.004114 -0.960449 1.000000
138.409000 63.541200 -1387.040000 -0.157076 0.002995 -0.987582 1.000000
139.949000 64.638700 -1387.750000 0.052928 -0.014261 -0.998496 1.000000
141.238000 66.031200 -1388.080000 -0.065933 0.080477 -0.994573 1.000000
142.213000 67.792500 -1387.940000 0.098878 0.061420 -0.993202 1.000000
143.145000 69.548800 -1387.800000 0.205487 0.006132 -0.978641 0.010000
141.856000 71.035900 -1387.350000 0.033723 0.079661 -0.996251 1.000000
140.567000 72.523000 -1386.910000 -0.066861 0.093195 -0.993400 1.000000
140.111000 74.310100 -1386.900000 -0.093481 0.085935 -0.991905 1.000000
140.227000 76.303600 -1387.190000 -0.085991 0.077609 -0.993269 1.000000
140.375000 78.296500 -1387.450000 -0.075011 0.071553 -0.994612 1.000000
140.678000 80.287200 -1387.580000 -0.057502 0.068048 -0.996024 1.000000
140.981000 82.277900 -1387.710000 -0.039890 0.066308 -0.997002 1.000000
141.987000 83.915300 -1387.410000 -0.023143 0.031838 -0.999225 1.000000
143.239000 85.429200 -1386.950000 -0.048121 -0.029581 -0.998403 1.000000
144.319000 87.040700 -1386.790000 0.469494 -0.004537 0.882924 1.000000
145.025000 88.864900 -1387.280000 -0.136554 -0.144427 -0.980048 1.000000
145.730000 90.689000 -1387.780000 -0.181819 -0.191319 -0.964541 1.000000
146.542000 92.454300 -1388.320000 -0.225681 -0.230299 -0.946589 1.000000
147.367000 94.212200 -1388.870000 -0.245561 -0.210448 -0.946262 1.000000
148.197000 95.970800 -1389.410000 -0.249293 -0.171689 -0.953088 1.000000
149.032000 97.730100 -1389.940000 -0.248788 -0.141427 -0.958177 1.000000
149.868000 99.490600 -1390.460000 0.526154 -0.120831 0.841761 1.000000
150.714000 101.282000 -1390.840000 0.521758 -0.148742 0.840027 1.000000
151.561000 103.073000 -1391.230000 -0.223801 -0.091326 -0.970347 1.000000
152.444000 104.859000 -1391.540000 -0.212463 -0.102783 -0.971748 1.000000
153.349000 106.640000 -1391.820000 -0.229133 -0.216373 -0.949042 1.000000
154.258000 108.421000 -1392.090000 -0.235923 -0.324668 -0.915932 1.000000
155.187000 110.196000 -1392.330000 -0.222338 -0.411889 -0.883693 1.000000
156.115000 111.972000 -1392.570000 -0.156215 -0.447034 -0.880771 1.000000
157.380000 113.182000 -1391.820000 0.065393 -0.304920 -0.950130 1.000000
158.752000 114.213000 -1390.760000 0.851161 0.305072 -0.427148 1.000000
159.824000 115.171000 -1389.460000 0.991561 0.124151 -0.037321 0.010000
160.299000 115.982000 -1387.670000 0.950861 -0.308717 0.023590 1.000000
160.774000 116.793000 -1385.890000 0.904402 -0.424395 0.044124 1.000000
161.179000 116.957000 -1383.930000 0.926603 -0.374911 0.029135 1.000000
161.577000 117.055000 -1381.950000 0.970696 -0.226834 -0.079340 1.000000
162.376000 116.396000 -1380.630000 0.873736 0.053277 -0.483475 1.000000
163.606000 114.922000 -1380.010000 0.591473 0.356120 -0.723421 1.000000
164.833000 113.449000 -1379.380000 0.539287 0.478477 -0.692986 1.000000
165.983000 111.992000 -1378.590000 0.612193 0.572167 -0.545751 1.000000
167.134000 110.534000 -1377.800000 0.819438 0.565264 -0.094853 1.000000
167.915000 109.815000 -1376.300000 0.860389 0.440669 0.256011 1.000000
168.477000 109.530000 -1374.390000 0.830718 0.329477 0.448724 1.000000
168.941000 109.058000 -1372.530000 0.441289 0.847193 -0.295850 1.000000
169.022000 107.858000 -1370.910000 0.423748 0.842859 -0.331703 1.000000
169.103000 106.658000 -1369.290000 0.422043 0.834139 -0.355094 1.000000
169.296000 105.018000 -1368.190000 0.449227 0.816568 -0.362508 1.000000
169.519000 103.251000 -1367.240000 -0.562068 -0.490230 -0.666148 1.000000
169.710000 101.477000 -1366.300000 -0.537348 -0.469162 -0.700817 1.000000
169.840000 99.688900 -1365.370000 0.822298 -0.246904 0.512703 1.000000
169.969000 97.900800 -1364.450000 -0.519811 -0.474487 -0.710393 1.000000
170.062000 96.109800 -1363.520000 -0.534672 -0.480246 -0.695334 1.000000
170.153000 94.318700 -1362.600000 -0.577258 -0.439617 -0.688121 1.000000
170.165000 92.533900 -1361.660000 0.886564 -0.331094 0.323080 1.000000
170.098000 90.755500 -1360.710000 -0.635414 -0.399134 -0.661015 1.000000
170.038000 88.979200 -1359.750000 -0.715174 -0.049254 -0.697208 1.000000
170.066000 87.229600 -1358.750000 -0.743526 0.327104 -0.583243 1.000000
170.093000 85.480000 -1357.740000 -0.798001 0.322370 -0.509188 1.000000
169.709000 83.738000 -1356.860000 -0.851914 0.266140 -0.451012 1.000000
169.102000 82.000000 -1356.030000 0.945767 -0.297428 0.130619 1.000000
168.478000 80.263200 -1355.210000 0.935256 -0.317283 0.156931 1.000000
167.794000 78.530400 -1354.440000 -0.901319 0.237036 -0.362543 1.000000
167.110000 76.797500 -1353.660000 -0.901275 0.226965 -0.369040 1.000000
166.432000 75.061400 -1352.890000 -0.904242 0.211869 -0.370754 1.000000
165.756000 73.324400 -1352.120000 -0.847570 0.179964 -0.499238 1.000000
165.109000 71.583900 -1351.330000 -0.917802 0.167662 -0.359900 1.000000
164.512000 69.837600 -1350.510000 -0.799797 0.224294 -0.556792 1.000000
163.915000 68.091200 -1349.700000 -0.773844 0.253047 -0.580631 1.000000
163.414000 66.327100 -1348.860000 -0.747197 0.284522 -0.600619 1.000000
162.920000 64.561900 -1348.010000 0.927731 -0.297776 0.225045 1.000000
162.322000 62.800800 -1347.240000 0.929735 -0.301941 0.210769 1.000000
161.629000 61.043600 -1346.530000 -0.696871 0.250143 -0.672161 1.000000
160.958000 59.281500 -1345.820000 0.927482 -0.310968 0.207549 1.000000
160.509000 57.472500 -1345.040000 0.926319 -0.308306 0.216520 1.000000
160.059000 55.663500 -1344.270000 0.933461 -0.277934 0.226723 1.000000
159.425000 53.854600 -1343.660000 -0.871903 0.018037 -0.489347 1.000000
158.698000 52.045700 -1343.140000 0.951953 -0.181267 0.246835 1.000000
158.004000 50.230100 -1342.610000 0.951390 -0.152245 0.267730 1.000000
157.410000 48.393300 -1342.020000 0.946227 -0.130730 0.295914 1.000000
156.817000 46.556500 -1341.430000 0.608230 -0.148226 0.779798 1.000000
155.918000 44.775100 -1341.270000 0.571534 -0.141038 0.808367 1.000000
154.949000 43.006200 -1341.200000 0.574866 -0.142709 0.805707 1.000000
153.997000 41.229200 -1341.120000 -0.773797 -0.107650 -0.624219 1.000000
153.071000 39.439600 -1341.010000 -0.761743 -0.166106 -0.626224 1.000000
152.145000 37.650000 -1340.910000 0.849890 -0.204399 0.485704 0.010000
150.742000 36.326800 -1341.470000 0.842535 -0.221069 0.491186 1.000000
149.320000 35.021600 -1342.060000 0.840891 -0.242927 0.483620 1.000000
147.892000 33.771900 -1342.740000 -0.714419 -0.376508 -0.589786 1.000000
146.457000 32.569900 -1343.490000 0.687686 -0.353587 0.634085 1.000000
145.030000 31.420100 -1344.310000 -0.184346 -0.438822 -0.879461 1.000000
143.656000 30.688000 -1345.590000 0.220292 0.969927 0.103499 1.000000
142.282000 29.955900 -1346.880000 -0.716207 0.060265 -0.695281 1.000000
141.021000 29.500900 -1348.360000 -0.689870 0.051041 -0.722132 1.000000
139.813000 29.173300 -1349.950000 -0.353398 -0.325422 -0.877046 1.000000
138.646000 28.780800 -1351.540000 0.003294 0.938528 -0.345186 1.000000
137.597000 28.203200 -1353.160000 -0.042070 0.925878 -0.375473 1.000000
136.549000 27.625600 -1354.790000 -0.040476 0.941610 -0.334265 1.000000
135.543000 27.238200 -1356.490000 -0.031497 0.962684 -0.268790 1.000000
134.545000 26.888900 -1358.210000 0.000374 0.985456 -0.169933 1.000000
133.546000 26.470200 -1359.910000 0.067480 0.996355 -0.052180 1.000000
132.545000 25.950600 -1361.580000 0.148980 0.987849 0.044261 1.000000
131.543000 25.431100 -1363.260000 0.217629 0.970342 0.105230 1.000000
130.570000 24.948300 -1364.960000 0.266303 0.953617 0.140345 1.000000
129.598000 24.466300 -1366.660000 0.307550 0.939535 0.150620 1.000000
128.656000 23.902400 -1368.350000 0.341726 0.927725 0.150168 1.000000
127.739000 23.273100 -1370.030000 0.368005 0.918052 0.147490 1.000000
126.829000 22.685800 -1371.730000 0.389930 0.909553 0.143763 1.000000
125.965000 22.381000 -1373.530000 0.566070 -0.263883 0.780981 1.000000
125.102000 22.076100 -1375.330000 0.019651 0.155907 -0.987576 1.000000
