# .PCD v0.7 - Point Cloud Data file format
# 4 111 0
# 1 21 0
# 22 64 0
# 65 91 0
# 92 111 0
VERSION 0.7
FIELDS x y z normal_x normal_y normal_z curvature
SIZE 4 4 4 4 4 4 4
TYPE F F F F F F F
COUNT 1 1 1 1 1 1 1
WIDTH 111
HEIGHT 1
VIEWPOINT 0 0 0 1 0 0 0
POINTS 111
DATA ascii
-194.557000 -56.505300 -1650.850000 0.887055 -0.457761 -0.059894 0.010000
-195.128000 -57.238000 -1648.950000 0.870732 -0.484103 -0.086424 1.000000
-196.054000 -58.902600 -1648.010000 0.846531 -0.524675 -0.090005 1.000000
-197.147000 -60.665100 -1647.570000 0.831811 -0.549110 -0.081049 1.000000
-197.918000 -62.338200 -1646.520000 0.824983 -0.557688 -0.091580 0.418479
-198.991000 -64.030800 -1645.830000 0.830946 -0.550268 -0.082059 1.000000
-200.069000 -65.439600 -1644.660000 0.836529 -0.541459 -0.083913 1.000000
-200.672000 -67.171600 -1643.600000 0.847787 -0.524589 -0.077867 1.000000
-201.707000 -68.784600 -1642.690000 0.870367 -0.489549 -0.052943 1.000000
-202.125000 -69.956100 -1640.970000 0.862609 -0.498304 -0.087170 1.000000
-202.734000 -71.419500 -1639.570000 0.867239 -0.488191 -0.097808 1.000000
-203.245000 -72.798900 -1638.040000 0.865268 -0.486716 -0.120077 1.000000
-203.612000 -74.113100 -1636.410000 0.857625 -0.491431 -0.151579 1.000000
-204.060000 -75.550900 -1634.920000 0.855112 -0.489291 -0.171402 1.000000
-205.322000 -76.949500 -1633.950000 0.866946 -0.475333 -0.149876 1.000000
-205.678000 -78.454500 -1632.500000 0.861387 -0.481887 -0.160614 0.228202
-206.455000 -80.118100 -1631.430000 0.867413 -0.474621 -0.149434 1.000000
-206.996000 -81.589200 -1630.010000 0.863501 -0.479024 -0.157805 1.000000
-207.899000 -83.317900 -1629.170000 0.871418 -0.469505 -0.142112 1.000000
-208.805000 -85.150100 -1629.740000 0.896260 -0.438216 -0.068446 1.000000
-209.674000 -87.040000 -1630.150000 0.895381 -0.443621 -0.038640 1.000000
-212.607000 -93.145400 -1628.780000 0.904026 -0.426743 0.025031 1.000000
-213.545000 -94.984700 -1628.290000 0.912005 -0.407150 0.049756 1.000000
-214.530000 -96.859700 -1628.190000 0.915583 -0.398605 0.053127 1.000000
-215.447000 -98.762200 -1628.000000 0.916026 -0.397463 0.054035 0.403828
-216.359000 -100.676000 -1628.050000 0.915055 -0.399647 0.054376 1.000000
-217.156000 -102.546000 -1627.440000 0.912402 -0.404515 0.062369 1.000000
-217.930000 -104.507000 -1627.220000 0.908958 -0.411276 0.068173 1.000000
-218.442000 -106.565000 -1627.180000 0.904876 -0.419486 0.072322 1.000000
-219.503000 -108.279000 -1627.840000 0.903971 -0.421775 0.070302 1.000000
-220.475000 -110.079000 -1628.400000 0.907647 -0.413859 0.069979 1.000000
-221.214000 -112.067000 -1628.410000 0.916929 -0.391127 0.079125 1.000000
-222.180000 -113.954000 -1628.460000 0.930798 -0.355421 0.085391 1.000000
-222.762000 -115.897000 -1627.840000 0.935651 -0.339032 0.098050 1.000000
-223.131000 -117.565000 -1626.590000 0.935327 -0.336930 0.107897 1.000000
-224.088000 -119.291000 -1625.810000 0.933089 -0.342179 0.110715 1.000000
-224.956000 -121.224000 -1625.880000 0.927276 -0.357929 0.109752 1.000000
-225.531000 -122.876000 -1627.080000 0.918508 -0.379832 0.109867 1.000000
-225.908000 -124.261000 -1628.640000 0.903215 -0.419944 0.088594 1.000000
-226.560000 -126.245000 -1629.010000 0.883888 -0.463309 0.063937 1.000000
-226.869000 -127.290000 -1630.830000 0.870868 -0.490947 0.023648 1.000000
-227.473000 -128.441000 -1632.500000 0.859990 -0.509764 -0.023612 0.010000
-227.281000 -127.390000 -1634.330000 0.851709 -0.521431 -0.051973 1.000000
-227.036000 -126.260000 -1636.110000 0.844179 -0.531037 -0.073228 1.000000
-227.090000 -125.895000 -1638.200000 0.826534 -0.552428 -0.108009 1.000000
-226.851000 -125.150000 -1640.170000 0.810831 -0.570253 -0.131776 1.000000
-226.018000 -123.796000 -1641.570000 0.813002 -0.568480 -0.125933 1.000000
-225.169000 -122.148000 -1642.600000 0.833393 -0.542611 -0.105022 1.000000
-224.345000 -120.892000 -1644.100000 0.847013 -0.520925 -0.105859 1.000000
-223.537000 -119.313000 -1645.260000 0.866835 -0.489507 -0.094758 1.000000
-222.790000 -117.350000 -1645.550000 0.898105 -0.436402 -0.054406 1.000000
-222.122000 -115.677000 -1646.670000 0.909802 -0.412832 -0.042787 1.000000
-221.625000 -114.254000 -1648.160000 0.909806 -0.412155 -0.048790 1.000000
-221.137000 -113.014000 -1649.810000 0.900646 -0.431287 -0.053192 1.000000
-220.647000 -112.054000 -1651.640000 0.886609 -0.457537 -0.067713 1.000000
-219.954000 -110.791000 -1653.190000 0.879301 -0.471689 -0.065869 1.000000
-219.623000 -110.017000 -1655.140000 0.860548 -0.501762 -0.087708 1.000000
-218.985000 -108.445000 -1656.410000 0.858637 -0.507149 -0.074444 1.000000
-218.431000 -107.210000 -1658.050000 0.851233 -0.518498 -0.081003 1.000000
-217.871000 -105.938000 -1659.650000 0.846757 -0.525380 -0.083530 1.000000
-217.140000 -104.343000 -1660.840000 0.853552 -0.516608 -0.067572 1.000000
-216.608000 -103.255000 -1662.580000 0.848554 -0.524652 -0.068531 1.000000
-215.943000 -102.156000 -1664.270000 0.846819 -0.528258 -0.061974 1.000000
-215.497000 -101.335000 -1666.170000 0.839580 -0.539887 -0.060226 1.000000
-215.030000 -100.336000 -1667.980000 0.837106 -0.544237 -0.055311 1.000000
-214.387000 -99.217500 -1669.670000 0.838576 -0.542740 -0.047157 1.000000
-213.632000 -98.032900 -1671.250000 0.841792 -0.538453 -0.038147 1.000000
-212.920000 -96.707700 -1672.750000 0.845968 -0.532450 -0.028887 1.000000
-212.371000 -96.027400 -1674.680000 0.838960 -0.542976 -0.036381 1.000000
-211.660000 -94.988000 -1676.390000 0.840296 -0.540763 -0.038437 1.000000
-210.987000 -93.656600 -1677.890000 0.845824 -0.532300 -0.035190 1.000000
-210.131000 -92.114000 -1679.070000 0.856414 -0.515681 -0.025071 1.000000
-209.469000 -90.777200 -1680.580000 0.862560 -0.505588 -0.019265 1.000000
-208.820000 -89.467900 -1682.120000 0.868631 -0.495311 -0.012130 1.000000
-208.441000 -88.500300 -1683.960000 0.867243 -0.497868 -0.004117 1.000000
-207.830000 -87.536100 -1685.750000 0.863960 -0.503381 0.013433 1.000000
-206.859000 -86.598600 -1687.390000 0.861980 -0.505726 0.035094 1.000000
-206.196000 -85.527000 -1689.090000 0.858250 -0.509870 0.058642 1.000000
-205.501000 -84.644800 -1690.890000 0.851271 -0.518209 0.082441 1.000000
-204.752000 -83.249200 -1692.300000 0.854109 -0.508970 0.106990 1.000000
-204.333000 -82.953400 -1694.360000 0.858690 -0.502838 0.099021 1.000000
-203.355000 -81.895000 -1695.910000 0.874000 -0.475829 0.098545 1.000000
-203.071000 -81.914900 -1698.020000 0.871673 -0.480740 0.095259 1.000000
-202.314000 -80.759900 -1699.630000 0.881413 -0.459205 0.110642 1.000000
-201.699000 -79.225600 -1700.950000 0.891551 -0.411229 0.189810 0.010000
-200.573000 -77.707600 -1699.990000 0.909345 -0.397013 0.124387 1.000000
-200.665000 -76.971700 -1698.010000 0.918426 -0.374600 0.127156 1.000000
-200.705000 -76.137900 -1696.060000 0.930201 -0.330721 0.159217 1.000000
-201.190000 -75.801900 -1694.020000 0.934077 -0.313306 0.171285 1.000000
-200.904000 -74.779900 -1692.180000 0.932416 -0.331704 0.143434 1.000000
-200.694000 -73.874400 -1690.280000 0.929992 -0.346244 0.123408 1.000000
-200.564000 -72.788600 -1688.460000 0.926841 -0.359252 0.109106 1.000000
-200.357000 -71.776300 -1686.610000 0.922511 -0.374174 0.094691 1.000000
-200.287000 -70.812100 -1684.720000 0.917676 -0.389065 0.080611 1.000000
-199.648000 -69.463300 -1683.210000 0.912830 -0.403262 0.064200 1.000000
-199.368000 -68.371800 -1681.420000 0.910325 -0.409911 0.057286 1.000000
-199.239000 -67.483100 -1679.500000 0.907772 -0.416142 0.052689 1.000000
-198.667000 -66.189000 -1677.920000 0.906399 -0.419964 0.045498 1.000000
-197.852000 -64.959300 -1676.390000 0.907252 -0.418424 0.042614 0.669657
-198.069000 -64.562500 -1674.320000 0.905998 -0.420542 0.048080 1.000000
-197.954000 -63.949000 -1672.290000 0.905371 -0.421344 0.052663 1.000000
-197.542000 -62.951300 -1670.470000 0.906974 -0.417697 0.054113 1.000000
-197.226000 -62.208800 -1668.510000 0.907933 -0.415713 0.053297 1.000000
-196.749000 -61.226300 -1666.690000 0.912361 -0.406807 0.045878 1.000000
-196.767000 -60.698400 -1664.640000 0.915027 -0.402152 0.031617 1.000000
-196.500000 -59.909300 -1662.690000 0.918019 -0.396214 0.015983 1.000000
-196.413000 -59.365000 -1660.640000 0.917032 -0.398722 0.008611 1.000000
-195.855000 -58.338100 -1658.870000 0.918443 -0.395527 0.004483 1.000000
-195.805000 -57.979000 -1656.780000 0.909755 -0.415135 0.002990 1.000000
-195.716000 -57.845000 -1654.660000 0.896378 -0.443216 -0.008091 1.000000
-195.086000 -56.919500 -1652.860000 0.891412 -0.451979 -0.033168 1.000000
