# .PCD v0.7 - Point Cloud Data file format
# 3 33 0
# 1 23 0
# 24 29 0
# 30 33 0
VERSION 0.7
FIELDS x y z normal_x normal_y normal_z curvature
SIZE 4 4 4 4 4 4 4
TYPE F F F F F F F
COUNT 1 1 1 1 1 1 1
WIDTH 33
HEIGHT 1
VIEWPOINT 0 0 0 1 0 0 0
POINTS 33
DATA ascii
193.340000 117.214000 -1722.180000 -0.223943 -0.691396 0.686892 0.010000
190.999000 118.330000 -1722.110000 -0.241773 -0.605805 0.757989 1.000000
188.754000 119.618000 -1721.930000 -0.286623 -0.526183 0.800611 1.000000
186.557000 120.979000 -1721.690000 -0.331809 -0.455204 0.826252 1.000000
184.344000 122.320000 -1721.870000 0.148995 -0.333397 0.930939 1.000000
180.274000 123.798000 -1672.120000 0.066032 0.510022 0.857623 1.000000
181.825000 122.422000 -1673.680000 0.446335 0.628896 0.636612 1.000000
183.357000 121.092000 -1675.300000 0.551788 0.503886 0.664551 1.000000
185.242000 119.696000 -1676.410000 -0.021469 0.468176 0.883375 1.000000
186.629000 117.873000 -1677.620000 0.717398 0.632800 0.291383 1.000000
188.045000 116.422000 -1679.240000 -0.013096 0.473444 0.880726 1.000000
189.367000 114.662000 -1680.620000 -0.002731 0.478456 0.878107 1.000000
190.733000 112.657000 -1681.540000 0.185538 0.491531 0.850866 1.000000
191.687000 112.699000 -1683.950000 0.102784 0.483212 0.869449 1.000000
192.989000 112.355000 -1686.170000 -0.011511 0.469454 0.882882 1.000000
194.324000 111.578000 -1688.250000 0.796197 0.601278 0.067339 1.000000
195.691000 110.539000 -1690.200000 -0.761063 -0.523942 -0.382449 1.000000
196.229000 110.981000 -1692.690000 -0.808656 -0.564481 -0.165640 1.000000
197.280000 110.525000 -1695.020000 -0.712435 -0.616262 0.335645 1.000000
198.187000 110.063000 -1697.410000 -0.633601 -0.758514 -0.152334 1.000000
198.599000 110.077000 -1699.970000 -0.679914 -0.695075 -0.233639 1.000000
199.217000 109.843000 -1702.480000 -0.779782 -0.588340 -0.214001 1.000000
200.163000 109.286000 -1704.830000 -0.852780 -0.494877 -0.166922 1.000000
201.096000 108.333000 -1707.060000 -0.889453 -0.443562 -0.110121 1.000000
201.873000 107.948000 -1709.500000 -0.888823 -0.453759 -0.063998 1.000000
202.422000 107.583000 -1712.010000 -0.847138 -0.525225 -0.080589 1.000000
203.448000 106.331000 -1714.040000 -0.750925 -0.571219 -0.331392 1.000000
203.175000 106.950000 -1716.540000 -0.491945 -0.657772 -0.570373 0.010000
201.612000 108.801000 -1717.470000 0.040730 -0.870860 -0.489841 1.000000
199.942000 110.756000 -1717.810000 -0.374486 -0.614838 -0.694071 1.000000
198.259000 112.649000 -1718.380000 -0.759871 -0.187540 -0.622435 1.000000
196.696000 114.390000 -1719.500000 0.325242 -0.544344 0.773245 1.000000
195.136000 116.096000 -1720.680000 0.319981 -0.487802 0.812196 1.000000
