# .PCD v0.7 - Point Cloud Data file format
# 4 66 0
# 1 14 0
# 15 32 0
# 33 52 0
# 53 66 0
VERSION 0.7
FIELDS x y z normal_x normal_y normal_z curvature
SIZE 4 4 4 4 4 4 4
TYPE F F F F F F F
COUNT 1 1 1 1 1 1 1
WIDTH 66
HEIGHT 1
VIEWPOINT 0 0 0 1 0 0 0
POINTS 66
DATA ascii
204.638000 -26.967700 -1337.220000 -0.840333 0.489893 0.232043 0.010000
204.004000 -28.147800 -1337.450000 -0.828359 0.501924 0.248785 1.000000
203.264000 -29.281400 -1337.580000 -0.820192 0.512241 0.254745 1.000000
202.475000 -30.330600 -1337.940000 -0.816476 0.522872 0.244890 1.000000
201.682000 -31.346100 -1338.370000 -0.819220 0.527460 0.225086 1.000000
201.055000 -31.864900 -1339.460000 -0.825691 0.521031 0.216246 1.000000
200.312000 -32.832100 -1340.070000 -0.831642 0.515530 0.206398 1.000000
199.619000 -33.993700 -1340.210000 -0.837648 0.512200 0.189728 1.000000
198.902000 -35.136800 -1340.030000 -0.842089 0.511671 0.170525 1.000000
198.243000 -36.317900 -1340.180000 -0.866276 0.474836 0.155228 1.000000
197.652000 -37.430400 -1340.690000 -0.884619 0.433475 0.171896 1.000000
197.094000 -38.670500 -1340.670000 -0.900361 0.392971 0.186880 1.000000
196.560000 -39.796000 -1340.130000 -0.923301 0.357672 0.139950 1.000000
196.196000 -41.102100 -1340.020000 -0.928057 0.339573 0.152973 1.000000
195.963000 -42.393000 -1339.660000 -0.932101 0.316638 0.175863 1.000000
194.311000 -45.151300 -1340.560000 -0.854246 0.346633 0.387439 1.000000
193.648000 -46.252300 -1341.010000 -0.834366 0.349077 0.426589 1.000000
192.915000 -47.230400 -1341.600000 -0.823520 0.341806 0.452751 1.000000
192.706000 -48.499700 -1341.160000 -0.832952 0.337727 0.438328 1.000000
192.367000 -49.788500 -1340.890000 -0.836954 0.354801 0.416683 1.000000
191.833000 -51.037100 -1340.970000 -0.841285 0.363455 0.400174 1.000000
191.524000 -52.256900 -1340.460000 -0.850589 0.383717 0.359526 1.000000
190.976000 -53.501600 -1340.450000 -0.866702 0.378356 0.325077 1.000000
190.458000 -54.758700 -1340.400000 -0.882603 0.371333 0.288312 1.000000
190.068000 -55.993700 -1339.990000 -0.890058 0.374260 0.260244 1.000000
189.670000 -57.207600 -1339.520000 -0.895749 0.368323 0.248941 1.000000
189.322000 -58.417300 -1339.010000 -0.896559 0.363263 0.253421 1.000000
189.100000 -59.514100 -1338.230000 -0.884872 0.364156 0.290503 1.000000
188.531000 -60.739400 -1338.390000 -0.843016 0.420407 0.335531 0.010000
189.065000 -60.501200 -1337.160000 -0.846518 0.363515 0.388928 1.000000
189.387000 -60.922600 -1335.910000 -0.857429 0.354151 0.373353 1.000000
190.019000 -60.449200 -1334.800000 -0.906815 0.336843 0.253425 1.000000
190.539000 -60.024600 -1333.620000 -0.933207 0.326231 0.150659 1.000000
190.948000 -59.455700 -1332.460000 -0.938375 0.332315 0.094974 1.000000
191.335000 -58.654300 -1331.430000 -0.926852 0.349780 0.136381 1.000000
191.853000 -57.664900 -1330.650000 -0.911276 0.372121 0.176361 1.000000
192.373000 -56.686600 -1329.860000 -0.896206 0.397997 0.195995 1.000000
192.889000 -55.820200 -1328.950000 -0.896271 0.401915 0.187520 1.000000
193.483000 -54.946800 -1328.090000 -0.898725 0.400377 0.178863 1.000000
193.951000 -54.409700 -1326.930000 -0.893656 0.405950 0.191269 1.000000
194.462000 -53.586200 -1325.980000 -0.890168 0.403232 0.212144 1.000000
195.209000 -52.564900 -1325.480000 -0.890755 0.391805 0.230314 1.000000
195.804000 -51.505800 -1324.870000 -0.889941 0.381761 0.249528 1.000000
196.491000 -50.402700 -1324.470000 -0.884947 0.382596 0.265497 1.000000
197.077000 -49.237600 -1324.080000 -0.877240 0.388125 0.282505 1.000000
197.747000 -48.229000 -1323.460000 -0.866287 0.396683 0.303628 1.000000
198.419000 -47.280100 -1322.760000 -0.857523 0.405174 0.317001 0.010000
199.000000 -46.050300 -1322.770000 -0.853679 0.410562 0.320423 1.000000
199.365000 -44.869400 -1323.340000 -0.851590 0.416561 0.318232 1.000000
199.745000 -43.692900 -1323.910000 -0.849625 0.424739 0.312626 1.000000
200.052000 -42.568700 -1324.610000 -0.849392 0.429829 0.306235 1.000000
200.098000 -41.697200 -1325.650000 -0.847422 0.435366 0.303863 1.000000
200.122000 -40.833800 -1326.700000 -0.844753 0.440844 0.303394 1.000000
200.138000 -40.056700 -1327.820000 -0.836611 0.448182 0.314983 1.000000
200.193000 -39.197000 -1328.870000 -0.825421 0.458924 0.328739 1.000000
200.120000 -38.534000 -1330.060000 -0.812255 0.471813 0.342979 1.000000
200.216000 -37.662500 -1331.100000 -0.813287 0.483829 0.323224 1.000000
200.575000 -36.589000 -1331.850000 -0.813228 0.494342 0.307061 1.000000
201.205000 -35.410100 -1332.100000 -0.814181 0.501504 0.292580 1.000000
201.818000 -34.234100 -1332.410000 -0.822163 0.498832 0.274253 1.000000
202.273000 -33.095500 -1332.990000 -0.830482 0.496864 0.251843 1.000000
202.745000 -31.992100 -1333.630000 -0.838594 0.497126 0.222767 1.000000
203.304000 -30.933000 -1334.280000 -0.844960 0.499390 0.191448 1.000000
203.911000 -29.858600 -1334.850000 -0.855060 0.485738 0.181467 1.000000
204.432000 -28.698600 -1335.330000 -0.860808 0.476223 0.179504 1.000000
204.962000 -27.748900 -1336.150000 -0.856589 0.475704 0.199902 1.000000
