# .PCD v0.7 - Point Cloud Data file format
# 2 45 0
# 1 10 0
# 11 45 0
VERSION 0.7
FIELDS x y z normal_x normal_y normal_z curvature
SIZE 4 4 4 4 4 4 4
TYPE F F F F F F F
COUNT 1 1 1 1 1 1 1
WIDTH 45
HEIGHT 1
VIEWPOINT 0 0 0 1 0 0 0
POINTS 45
DATA ascii
-184.720000 141.653000 -1661.610000 -0.942707 -0.236621 0.235189 0.010000
-210.936000 175.378000 -1624.030000 -0.004116 0.106838 0.994268 1.000000
-211.037000 173.815000 -1622.710000 -0.137416 0.119861 0.983235 1.000000
-211.195000 172.250000 -1621.410000 -0.099572 0.034181 0.994443 1.000000
-211.480000 170.678000 -1620.130000 -0.031664 -0.012435 0.999421 1.000000
-211.817000 169.070000 -1618.910000 0.115020 0.003770 0.993356 1.000000
-212.184000 167.440000 -1617.730000 0.124017 0.021533 0.992046 1.000000
-212.572000 165.784000 -1616.600000 0.131067 0.049037 0.990160 1.000000
-212.961000 164.101000 -1615.500000 0.131313 0.098454 0.986440 1.000000
-213.348000 162.334000 -1614.550000 0.179527 0.198210 0.963578 1.000000
-212.431000 161.493000 -1613.990000 0.628502 0.066383 0.774970 0.010000
-210.397000 161.446000 -1613.780000 -0.247773 -0.067293 0.966478 1.000000
-208.384000 161.728000 -1613.600000 -0.277852 0.038327 0.959859 1.000000
-206.405000 162.147000 -1613.510000 -0.101620 0.059617 0.993035 1.000000
-204.592000 162.995000 -1613.930000 0.098939 0.040910 0.994252 1.000000
-203.071000 164.092000 -1614.590000 0.268937 -0.018305 0.962984 1.000000
-201.893000 165.480000 -1615.520000 0.360418 -0.093936 0.928049 1.000000
-200.593000 166.734000 -1616.470000 -0.176819 -0.978689 0.104421 1.000000
-199.313000 167.817000 -1617.510000 0.283841 0.719730 0.633579 1.000000
-198.732000 167.324000 -1619.400000 0.283841 0.719730 0.633579 1.000000
-198.070000 166.839000 -1621.280000 0.156622 0.796872 -0.583494 1.000000
-197.279000 166.369000 -1623.100000 -0.166424 0.973296 -0.158108 1.000000
-196.206000 166.305000 -1624.810000 0.831819 -0.542548 0.117127 1.000000
-195.006000 166.422000 -1626.460000 0.429328 -0.562752 0.706391 1.000000
-194.460000 165.582000 -1628.250000 -0.017197 -0.979217 0.202085 1.000000
-193.969000 164.679000 -1630.010000 0.363253 -0.891642 0.270226 1.000000
-193.602000 163.634000 -1631.730000 0.635953 -0.692205 0.341198 1.000000
-193.056000 162.708000 -1633.460000 0.748783 -0.553506 0.364631 1.000000
-192.397000 161.856000 -1635.200000 0.786370 -0.485681 0.381754 1.000000
-192.697000 160.539000 -1636.710000 -0.984521 -0.061756 -0.164029 1.000000
-192.933000 159.222000 -1638.230000 0.774817 -0.481827 0.409270 1.000000
-192.692000 158.036000 -1639.880000 0.745793 -0.509317 0.429406 1.000000
-192.540000 156.785000 -1641.480000 -0.983905 -0.114950 -0.136810 1.000000
-192.465000 155.478000 -1643.060000 -0.963181 -0.100465 0.249378 1.000000
-192.191000 154.204000 -1644.630000 0.134884 -0.732575 0.667189 1.000000
-191.828000 152.959000 -1646.210000 -0.372412 -0.733484 0.568604 1.000000
-191.177000 151.837000 -1647.790000 0.944573 0.282670 0.166973 1.000000
-190.512000 150.721000 -1649.370000 -0.823586 -0.565412 0.044897 1.000000
-189.830000 149.612000 -1650.950000 -0.807279 -0.585313 -0.075561 1.000000
-188.938000 148.650000 -1652.510000 0.940113 0.317342 0.124420 1.000000
-188.008000 147.711000 -1654.070000 0.944597 0.318575 0.079038 1.000000
-187.372000 146.531000 -1655.610000 0.950464 0.310182 0.020156 1.000000
-186.682000 145.356000 -1657.140000 0.955152 0.291587 -0.051595 1.000000
-185.903000 144.188000 -1658.630000 -0.760424 -0.531617 0.373012 1.000000
-185.278000 142.939000 -1660.120000 0.901089 0.378708 0.211233 1.000000
