# .PCD v0.7 - Point Cloud Data file format
# 4 149 0
# 1 33 0
# 34 91 0
# 92 128 0
# 129 149 0
VERSION 0.7
FIELDS x y z normal_x normal_y normal_z curvature
SIZE 4 4 4 4 4 4 4
TYPE F F F F F F F
COUNT 1 1 1 1 1 1 1
WIDTH 149
HEIGHT 1
VIEWPOINT 0 0 0 1 0 0 0
POINTS 149
DATA ascii
-194.809000 -56.650400 -1650.040000 0.891386 -0.450355 -0.051111 0.010000
-195.172000 -57.364300 -1648.640000 0.878693 -0.472152 -0.070509 1.000000
-196.060000 -58.657000 -1648.270000 0.860549 -0.505079 -0.065958 1.000000
-196.754000 -59.944900 -1647.600000 0.841851 -0.535647 -0.066100 1.000000
-197.597000 -61.317300 -1647.580000 0.837032 -0.544482 -0.054002 1.000000
-198.075000 -62.594900 -1646.730000 0.833724 -0.547951 -0.068227 1.000000
-198.987000 -63.878800 -1646.390000 0.840617 -0.538531 -0.057855 1.000000
-199.774000 -64.719600 -1645.260000 0.839388 -0.538154 -0.076277 1.000000
-200.474000 -66.113100 -1644.860000 0.853869 -0.517117 -0.059139 1.000000
-201.077000 -67.449300 -1644.190000 0.867770 -0.494727 -0.047129 1.000000
-201.379000 -68.194900 -1642.800000 0.858564 -0.506080 -0.082167 1.000000
-201.906000 -69.113700 -1641.590000 0.856078 -0.506960 -0.100609 1.000000
-202.492000 -70.517100 -1641.060000 0.875389 -0.477775 -0.073652 1.000000
-203.073000 -71.727400 -1640.170000 0.884545 -0.461777 -0.065894 1.000000
-203.346000 -72.563300 -1638.820000 0.872165 -0.478268 -0.102896 1.000000
-203.479000 -73.173100 -1637.330000 0.851457 -0.501861 -0.152174 1.000000
-203.882000 -74.319300 -1636.270000 0.851872 -0.498078 -0.161962 1.000000
-204.347000 -75.463100 -1635.240000 0.853190 -0.493177 -0.169832 1.000000
-205.069000 -76.578600 -1634.330000 0.857926 -0.486456 -0.165298 1.000000
-205.481000 -77.783400 -1633.340000 0.857232 -0.487863 -0.164750 1.000000
-205.836000 -78.776700 -1632.130000 0.849582 -0.496957 -0.176762 1.000000
-206.354000 -80.017000 -1631.240000 0.852065 -0.494810 -0.170727 1.000000
-208.548000 -84.839200 -1629.720000 0.889540 -0.449833 -0.079809 1.000000
-209.242000 -86.279800 -1629.530000 0.898969 -0.436393 -0.037635 1.000000
-209.879000 -87.759200 -1629.550000 0.895051 -0.445242 -0.025348 1.000000
-210.649000 -89.081500 -1630.050000 0.896271 -0.443475 -0.005343 1.000000
-211.424000 -90.475500 -1630.270000 0.899328 -0.437137 0.010944 1.000000
-212.158000 -91.887300 -1630.020000 0.903066 -0.428849 0.023655 1.000000
-212.922000 -93.248300 -1629.620000 0.907841 -0.417684 0.036950 1.000000
-213.313000 -94.420700 -1628.590000 0.909017 -0.414593 0.042435 1.000000
-213.777000 -95.653000 -1627.660000 0.911449 -0.408198 0.051326 1.000000
-214.510000 -97.074000 -1627.470000 0.919945 -0.385087 0.073550 1.000000
-215.265000 -98.483200 -1627.670000 0.921228 -0.382316 0.071929 0.778856
-215.869000 -99.942400 -1627.350000 0.919244 -0.387017 0.072171 1.000000
-216.621000 -101.238000 -1627.940000 0.916083 -0.396576 0.059328 1.000000
-217.320000 -102.683000 -1627.800000 0.911801 -0.406534 0.057874 1.000000
-217.904000 -104.183000 -1627.760000 0.906823 -0.417831 0.055580 1.000000
-218.577000 -105.646000 -1627.730000 0.901515 -0.429378 0.053892 1.000000
-219.148000 -107.152000 -1627.730000 0.898761 -0.434331 0.059881 1.000000
-219.826000 -108.534000 -1628.200000 0.900776 -0.429037 0.067299 1.000000
-220.311000 -110.069000 -1628.240000 0.904099 -0.419831 0.079668 1.000000
-220.953000 -111.449000 -1628.770000 0.912652 -0.399423 0.086768 1.000000
-221.661000 -112.895000 -1628.710000 0.923207 -0.370607 0.101682 1.000000
-222.375000 -114.325000 -1628.910000 0.936217 -0.333000 0.112291 1.000000
-222.767000 -115.569000 -1627.960000 0.939047 -0.319079 0.127982 1.000000
-223.259000 -116.966000 -1627.330000 0.940098 -0.314108 0.132480 1.000000
-223.802000 -118.389000 -1626.810000 0.938774 -0.318145 0.132237 1.000000
-224.405000 -119.643000 -1625.990000 0.936099 -0.325997 0.132082 1.000000
-224.903000 -120.914000 -1625.140000 0.932464 -0.337564 0.128689 1.000000
-225.167000 -122.216000 -1626.050000 0.925598 -0.358916 0.120199 1.000000
-225.606000 -123.519000 -1626.890000 0.918056 -0.380242 0.112203 1.000000
-226.097000 -124.813000 -1627.710000 0.910760 -0.399467 0.104606 1.000000
-226.410000 -126.085000 -1628.650000 0.900574 -0.427557 0.078496 1.000000
-226.805000 -127.248000 -1629.690000 0.891265 -0.451223 0.045220 1.000000
-227.112000 -128.486000 -1630.680000 0.884874 -0.465737 0.009299 0.010000
-227.181000 -127.864000 -1632.160000 0.877422 -0.479016 -0.025960 1.000000
-227.211000 -127.589000 -1633.750000 0.866292 -0.495170 -0.065913 1.000000
-227.041000 -126.788000 -1635.130000 0.860283 -0.503293 -0.081301 1.000000
-226.925000 -126.184000 -1636.620000 0.854944 -0.510514 -0.091902 1.000000
-226.823000 -125.647000 -1638.140000 0.849180 -0.518943 -0.097937 1.000000
-226.778000 -125.288000 -1639.710000 0.841848 -0.529892 -0.102503 1.000000
-226.363000 -124.302000 -1640.910000 0.836963 -0.538824 -0.095713 1.000000
-225.772000 -123.236000 -1641.960000 0.835565 -0.543340 -0.081322 1.000000
-225.205000 -122.019000 -1642.850000 0.848273 -0.525012 -0.069248 1.000000
-224.514000 -120.854000 -1643.720000 0.865639 -0.496811 -0.062030 1.000000
-223.837000 -119.744000 -1644.670000 0.879093 -0.473292 -0.056490 1.000000
-223.235000 -118.350000 -1645.210000 0.895765 -0.442424 -0.043205 1.000000
-222.647000 -117.035000 -1645.930000 0.907520 -0.418665 -0.033571 1.000000
-222.193000 -115.914000 -1646.990000 0.912711 -0.407209 -0.033744 1.000000
-221.692000 -114.514000 -1647.610000 0.921141 -0.388472 -0.024276 1.000000
-221.330000 -113.677000 -1648.940000 0.915458 -0.401627 -0.025167 1.000000
-221.005000 -112.943000 -1650.340000 0.908511 -0.416832 -0.029299 1.000000
-220.843000 -112.664000 -1651.910000 0.897553 -0.438655 -0.044498 1.000000
-220.360000 -112.044000 -1653.320000 0.890074 -0.453102 -0.049673 1.000000
-219.858000 -111.120000 -1654.540000 0.885214 -0.462660 -0.048395 1.000000
-219.478000 -109.984000 -1655.620000 0.881623 -0.469896 -0.044036 1.000000
-218.996000 -108.878000 -1656.680000 0.877721 -0.477496 -0.040043 1.000000
-218.565000 -107.716000 -1657.710000 0.875488 -0.481712 -0.038385 1.000000
-218.102000 -106.576000 -1658.750000 0.874571 -0.483486 -0.036980 1.000000
-217.619000 -105.503000 -1659.850000 0.873656 -0.485236 -0.035658 1.000000
-217.141000 -104.450000 -1660.970000 0.873089 -0.486414 -0.033427 1.000000
-216.678000 -103.511000 -1662.200000 0.871607 -0.489139 -0.032319 1.000000
-216.274000 -102.733000 -1663.550000 0.868296 -0.494925 -0.033329 1.000000
-215.858000 -102.064000 -1664.950000 0.863972 -0.502345 -0.034673 1.000000
-215.596000 -101.741000 -1666.510000 0.855579 -0.515921 -0.042545 1.000000
-215.265000 -100.901000 -1667.840000 0.853143 -0.519904 -0.042978 1.000000
-214.716000 -99.848900 -1668.930000 0.854947 -0.517365 -0.037417 1.000000
-214.105000 -99.026900 -1670.170000 0.853864 -0.519213 -0.036526 1.000000
-213.615000 -97.918500 -1671.230000 0.855441 -0.516937 -0.031561 1.000000
-213.052000 -96.987500 -1672.420000 0.854734 -0.518165 -0.030560 1.000000
-212.613000 -96.268000 -1673.790000 0.849926 -0.525582 -0.037281 1.000000
-212.106000 -95.779000 -1675.240000 0.842776 -0.535974 -0.049598 1.000000
-211.614000 -94.832900 -1676.450000 0.841849 -0.537066 -0.053385 1.000000
-211.055000 -93.660100 -1677.400000 0.846162 -0.530768 -0.047899 1.000000
-210.453000 -92.569500 -1678.420000 0.850121 -0.524846 -0.042792 1.000000
-209.874000 -91.504100 -1679.480000 0.853952 -0.519005 -0.037425 1.000000
-209.377000 -90.437300 -1680.580000 0.857483 -0.513529 -0.031804 1.000000
-208.804000 -89.354200 -1681.630000 0.862822 -0.504996 -0.022745 1.000000
-208.512000 -88.652600 -1683.050000 0.862931 -0.505096 -0.015125 1.000000
-208.181000 -87.900800 -1684.430000 0.864622 -0.502395 0.005327 1.000000
-207.535000 -87.331400 -1685.790000 0.865078 -0.500997 0.025332 1.000000
-206.872000 -86.302600 -1686.840000 0.867324 -0.495774 0.044236 1.000000
-206.361000 -85.780000 -1688.270000 0.864675 -0.498188 0.064379 1.000000
-206.001000 -85.332000 -1689.780000 0.859466 -0.504572 0.082009 1.000000
-205.549000 -84.556300 -1691.120000 0.855257 -0.508441 0.100113 1.000000
-204.995000 -83.933500 -1692.490000 0.848858 -0.515666 0.116314 1.000000
-204.564000 -83.358100 -1693.940000 0.858592 -0.500373 0.111563 1.000000
-204.062000 -82.768500 -1695.350000 0.868267 -0.484661 0.105908 1.000000
-203.553000 -82.681900 -1696.870000 0.870589 -0.481718 0.100109 1.000000
-203.007000 -81.849900 -1698.140000 0.879125 -0.465951 0.100140 1.000000
-202.358000 -80.893400 -1699.260000 0.887312 -0.448649 0.106729 1.000000
-201.876000 -79.579100 -1700.060000 0.896631 -0.424955 0.124363 1.000000
-201.452000 -79.423200 -1701.600000 0.884496 -0.402701 0.235583 0.010000
-200.420000 -78.230700 -1701.280000 0.884496 -0.402701 0.235583 1.000000
-200.709000 -77.615800 -1699.810000 0.915749 -0.380356 0.129356 1.000000
-200.569000 -76.927000 -1698.370000 0.923754 -0.359459 0.132167 1.000000
-200.644000 -76.315700 -1696.880000 0.931068 -0.332323 0.150579 1.000000
-200.764000 -75.669700 -1695.410000 0.936894 -0.305366 0.170240 1.000000
-200.612000 -75.088200 -1693.910000 0.935556 -0.320012 0.149420 1.000000
-200.609000 -74.550900 -1692.390000 0.933935 -0.331484 0.133734 1.000000
-200.627000 -74.018100 -1690.870000 0.932233 -0.340518 0.122428 1.000000
-200.625000 -73.228000 -1689.470000 0.930375 -0.348232 0.114617 1.000000
-200.724000 -72.702900 -1687.950000 0.927037 -0.359834 0.105458 1.000000
-200.626000 -72.001900 -1686.510000 0.923024 -0.373092 0.093968 1.000000
-200.385000 -71.078600 -1685.210000 0.918696 -0.386565 0.081021 1.000000
-200.043000 -70.276000 -1683.850000 0.914064 -0.399833 0.067975 1.000000
-199.455000 -69.122600 -1682.900000 0.911113 -0.408219 0.056831 1.000000
-199.213000 -68.300500 -1681.530000 0.910178 -0.410564 0.054889 1.000000
-199.487000 -67.930800 -1679.990000 0.908186 -0.414906 0.055229 1.000000
-199.130000 -67.049500 -1678.690000 0.907312 -0.417136 0.052747 1.000000
-198.689000 -66.066000 -1677.490000 0.906934 -0.418377 0.049307 1.000000
-198.126000 -65.093100 -1676.340000 0.907533 -0.417306 0.047325 0.859763
-197.565000 -64.440900 -1674.980000 0.907644 -0.417103 0.046980 0.851748
-197.624000 -64.014800 -1673.430000 0.906427 -0.419613 0.048116 1.000000
-197.638000 -63.571900 -1671.880000 0.905097 -0.422354 0.049164 1.000000
-198.014000 -63.688800 -1670.320000 0.901181 -0.430138 0.053419 1.000000
-197.745000 -63.003900 -1668.880000 0.902013 -0.428104 0.055672 1.000000
-197.171000 -61.974000 -1667.790000 0.907095 -0.417414 0.054269 1.000000
-197.051000 -61.478200 -1666.260000 0.909221 -0.413153 0.051205 1.000000
-196.823000 -60.865000 -1664.790000 0.913966 -0.403541 0.042674 1.000000
-196.867000 -60.561900 -1663.200000 0.915350 -0.401549 0.029891 1.000000
-196.739000 -60.064500 -1661.680000 0.915655 -0.401598 0.017167 1.000000
-196.141000 -58.998800 -1660.630000 0.919485 -0.393081 0.005955 1.000000
-196.240000 -58.917300 -1659.020000 0.915242 -0.402888 0.003559 1.000000
-195.788000 -58.005500 -1657.770000 0.915476 -0.402363 -0.002736 1.000000
-195.602000 -57.655200 -1656.210000 0.908751 -0.417262 -0.007950 1.000000
-195.274000 -57.209700 -1654.700000 0.903826 -0.427634 -0.015057 1.000000
-195.363000 -57.200100 -1653.090000 0.896634 -0.442359 -0.019116 1.000000
-194.878000 -56.690800 -1651.640000 0.895715 -0.443374 -0.033384 1.000000
