# .PCD v0.7 - Point Cloud Data file format
# 4 126 0
# 1 16 0
# 17 62 0
# 63 117 0
# 118 126 0
VERSION 0.7
FIELDS x y z normal_x normal_y normal_z curvature
SIZE 4 4 4 4 4 4 4
TYPE F F F F F F F
COUNT 1 1 1 1 1 1 1
WIDTH 126
HEIGHT 1
VIEWPOINT 0 0 0 1 0 0 0
POINTS 126
DATA ascii
140.424000 38.793600 -1372.360000 0.089777 0.140487 0.986004 0.010000
139.315000 37.839500 -1372.300000 -0.054382 0.198545 0.978582 1.000000
138.053000 37.243500 -1372.740000 -0.431193 0.542190 0.721182 1.000000
136.710000 36.701500 -1372.960000 -0.530879 0.598753 0.599718 1.000000
135.678000 35.692800 -1373.210000 -0.519449 0.462500 0.718517 1.000000
134.534000 34.801600 -1373.420000 -0.462023 0.356571 0.812029 1.000000
133.682000 33.681800 -1373.010000 0.195244 -0.499247 0.844175 1.000000
132.915000 32.525900 -1372.540000 0.675780 -0.449803 0.583950 1.000000
132.094000 31.319500 -1372.410000 -0.471839 0.166337 0.865852 1.000000
131.577000 30.191000 -1373.190000 -0.516288 0.272910 0.811768 1.000000
189.343000 52.900200 -1395.280000 0.863063 -0.286380 0.416063 1.000000
188.771000 51.679100 -1394.710000 0.859044 -0.282168 0.427111 1.000000
188.150000 50.457200 -1394.190000 0.854594 -0.277675 0.438823 1.000000
187.494000 49.190500 -1393.860000 0.855896 -0.280963 0.434168 1.000000
186.863000 47.911400 -1393.530000 0.857128 -0.283390 0.430141 1.000000
186.246000 46.621800 -1393.210000 0.858756 -0.285570 0.425427 1.000000
185.659000 45.349000 -1392.780000 0.855185 -0.280836 0.435648 1.000000
185.062000 44.039900 -1392.510000 0.855067 -0.290088 0.429778 1.000000
184.476000 42.745600 -1392.150000 0.849058 -0.296545 0.437220 1.000000
183.890000 41.446900 -1391.810000 0.842160 -0.303852 0.445468 1.000000
183.305000 40.148800 -1391.470000 0.833448 -0.310807 0.456905 1.000000
183.570000 40.914900 -1392.690000 0.878334 -0.351873 0.323597 1.000000
182.945000 39.599300 -1392.530000 0.877301 -0.366414 0.309974 1.000000
182.287000 38.337600 -1392.880000 0.884125 -0.394033 0.251120 1.000000
181.358000 37.212600 -1393.000000 0.883445 -0.410960 0.225025 1.000000
180.270000 36.375600 -1393.520000 0.884367 -0.431239 0.178683 0.010000
179.334000 36.140400 -1394.620000 -0.696498 0.400302 0.595523 1.000000
178.643000 36.471300 -1395.870000 -0.749971 0.415421 0.514751 1.000000
178.078000 36.927500 -1397.140000 -0.772362 0.422916 0.473920 1.000000
177.610000 37.487300 -1398.410000 -0.784791 0.429307 0.446988 1.000000
177.301000 38.115900 -1399.690000 -0.791084 0.436082 0.428974 1.000000
177.081000 38.811500 -1400.960000 -0.783687 0.443386 0.435020 1.000000
176.912000 39.592400 -1402.190000 -0.774786 0.452903 0.441119 1.000000
176.816000 40.457200 -1403.370000 -0.764308 0.464832 0.446951 1.000000
176.788000 41.379400 -1404.510000 -0.752124 0.479096 0.452522 1.000000
176.791000 42.351500 -1405.600000 -0.737901 0.495558 0.458175 1.000000
177.120000 43.496900 -1406.450000 -0.727344 0.513640 0.455130 1.000000
177.507000 44.659400 -1407.260000 -0.718115 0.531986 0.448667 1.000000
177.915000 45.841400 -1408.020000 -0.721527 0.528371 0.447463 1.000000
178.332000 47.017000 -1408.790000 -0.727812 0.514654 0.453234 1.000000
178.758000 48.200200 -1409.540000 -0.731612 0.500185 0.463205 1.000000
179.204000 49.382700 -1410.280000 -0.732396 0.484438 0.478452 1.000000
179.971000 50.620700 -1410.440000 -0.748697 0.466972 0.470521 1.000000
180.737000 51.858000 -1410.600000 -0.761307 0.450595 0.466235 1.000000
181.500000 53.098000 -1410.760000 -0.771301 0.434972 0.464644 1.000000
182.268000 54.329400 -1410.960000 -0.778304 0.419484 0.467200 1.000000
183.046000 55.557800 -1411.140000 -0.783674 0.404073 0.471784 1.000000
183.827000 56.784300 -1411.320000 -0.787175 0.388267 0.479171 1.000000
184.668000 57.973600 -1411.470000 -0.788866 0.375252 0.486699 1.000000
185.541000 59.132900 -1411.670000 -0.787620 0.363891 0.497230 1.000000
186.431000 60.265200 -1411.930000 -0.784163 0.350267 0.512251 1.000000
187.373000 61.369400 -1412.130000 -0.781168 0.337066 0.525512 1.000000
187.381000 62.811300 -1411.870000 -0.773794 0.318812 0.547358 1.000000
187.293000 64.205600 -1411.430000 -0.766685 0.301065 0.567057 1.000000
187.167000 65.570400 -1410.920000 -0.758055 0.281411 0.588353 1.000000
186.991000 66.923700 -1410.390000 -0.745120 0.255920 0.615874 1.000000
186.750000 68.242800 -1409.800000 -0.727233 0.223961 0.648825 1.000000
186.486000 69.591300 -1409.290000 -0.693101 0.171084 0.700243 1.000000
185.718000 70.811700 -1409.030000 -0.576737 0.039194 0.815989 1.000000
184.813000 71.933700 -1408.770000 -0.179004 -0.244000 0.953111 1.000000
185.228000 73.320500 -1408.550000 -0.073868 -0.314511 0.946375 1.000000
185.553000 74.645600 -1408.020000 0.063017 -0.340868 0.937997 1.000000
185.942000 75.939000 -1407.450000 0.170503 -0.351990 0.920343 1.000000
186.176000 77.269000 -1406.880000 0.336964 -0.382937 0.860125 1.000000
186.457000 78.653800 -1406.500000 0.445858 -0.395594 0.802942 1.000000
186.580000 79.805400 -1405.600000 0.624361 -0.433403 0.649873 1.000000
186.803000 81.204000 -1405.230000 0.686658 -0.446985 0.573329 1.000000
187.114000 82.449300 -1404.520000 0.753844 -0.475352 0.453606 1.000000
187.858000 83.355500 -1403.650000 0.793281 -0.513553 0.327061 1.000000
188.180000 83.593500 -1402.240000 0.784200 -0.582778 0.213073 1.000000
188.677000 84.378200 -1401.100000 0.714093 -0.697674 0.057632 1.000000
189.309000 84.971800 -1399.920000 0.572419 -0.809718 -0.129202 0.010000
189.394000 84.896700 -1398.460000 0.442699 -0.875775 -0.192448 1.000000
188.756000 84.415200 -1397.240000 0.387896 -0.908048 -0.158065 1.000000
187.955000 84.000400 -1396.080000 0.347387 -0.931394 -0.108756 1.000000
187.209000 83.625300 -1394.880000 0.307617 -0.948155 -0.079842 1.000000
186.327000 83.275600 -1393.760000 0.286098 -0.955399 -0.073222 1.000000
185.821000 83.284800 -1392.390000 0.259848 -0.958561 -0.116792 1.000000
184.818000 82.715300 -1391.490000 0.271711 -0.950354 -0.151659 1.000000
183.817000 82.197000 -1390.550000 0.291873 -0.931483 -0.217139 1.000000
182.616000 81.440100 -1390.190000 0.322665 -0.909516 -0.262045 1.000000
181.436000 80.842900 -1389.560000 0.352803 -0.876912 -0.326430 1.000000
180.276000 80.145300 -1389.000000 0.382821 -0.838424 -0.387935 1.000000
179.079000 79.300800 -1389.010000 0.425892 -0.812204 -0.398674 1.000000
177.911000 78.423500 -1388.900000 0.480304 -0.776376 -0.408104 1.000000
176.700000 77.606200 -1388.800000 0.560365 -0.729820 -0.391605 1.000000
175.507000 76.788100 -1388.570000 0.605017 -0.697022 -0.384856 1.000000
174.358000 75.951200 -1388.220000 0.636829 -0.665803 -0.388787 1.000000
173.540000 74.904800 -1387.600000 0.648687 -0.630970 -0.425537 1.000000
173.003000 73.700700 -1386.960000 0.651107 -0.599788 -0.465096 1.000000
172.538000 72.462400 -1386.330000 0.652284 -0.574933 -0.493941 1.000000
172.061000 71.223100 -1385.720000 0.657340 -0.556681 -0.507947 1.000000
171.600000 69.960500 -1385.130000 0.669029 -0.544231 -0.506175 1.000000
171.024000 68.728600 -1384.590000 0.699776 -0.532395 -0.476308 1.000000
170.688000 67.488900 -1383.890000 0.704946 -0.537350 -0.462932 1.000000
169.797000 66.341700 -1383.700000 0.809464 -0.485413 -0.330365 1.000000
168.997000 65.192800 -1383.260000 0.849289 -0.468359 -0.243614 1.000000
168.462000 63.980000 -1382.640000 0.872704 -0.471982 -0.124981 1.000000
168.675000 62.961600 -1381.610000 -0.710102 0.422041 -0.563593 1.000000
167.821000 61.772400 -1381.640000 0.871175 -0.483063 0.087773 1.000000
166.923000 60.638400 -1381.870000 0.883832 -0.418294 0.209453 1.000000
166.266000 59.332200 -1381.780000 0.869424 -0.395290 0.296390 1.000000
165.564000 58.047200 -1381.810000 0.850949 -0.376343 0.366405 1.000000
164.825000 56.783100 -1381.840000 0.820635 -0.362148 0.442050 1.000000
164.011000 55.566200 -1381.800000 0.768490 -0.355142 0.532256 1.000000
163.066000 54.460500 -1381.620000 0.699361 -0.369636 0.611771 1.000000
162.105000 53.389200 -1381.350000 0.646041 -0.381417 0.661175 1.000000
161.116000 52.337700 -1381.100000 0.611013 -0.394171 0.686507 1.000000
160.066000 51.345700 -1380.860000 0.587174 -0.409814 0.698054 1.000000
159.019000 50.417100 -1380.430000 0.569164 -0.425393 0.703628 1.000000
157.848000 49.700400 -1379.920000 0.553963 -0.434824 0.709967 1.000000
156.608000 49.329800 -1379.230000 0.536454 -0.421559 0.731098 1.000000
155.943000 48.898300 -1378.000000 0.500785 -0.359525 0.787373 1.000000
155.230000 48.190100 -1376.940000 0.454514 -0.282539 0.844742 1.000000
154.405000 47.373100 -1376.040000 0.488771 -0.360527 0.794433 1.000000
153.298000 46.474300 -1375.710000 0.490153 -0.370720 0.788871 1.000000
152.042000 45.729000 -1375.590000 0.455663 -0.281478 0.844477 1.000000
150.796000 45.151300 -1375.080000 0.520358 -0.383928 0.762776 1.000000
149.575000 44.552900 -1374.540000 0.561633 -0.415722 0.715363 1.000000
148.347000 43.770200 -1374.380000 0.150491 0.229017 0.961719 1.000000
147.128000 42.967000 -1374.260000 0.448699 -0.201105 0.870762 1.000000
145.995000 42.221300 -1374.810000 0.359991 -0.053119 0.931442 1.000000
144.680000 41.584700 -1374.910000 -0.553460 0.832391 -0.028410 1.000000
143.498000 40.997300 -1374.280000 -0.529531 0.842900 0.095482 1.000000
142.280000 40.303900 -1373.850000 -0.499719 0.847866 0.177214 1.000000
141.466000 39.735100 -1372.780000 -0.323066 0.730846 0.601243 1.000000
