# .PCD v0.7 - Point Cloud Data file format
# 4 106 0
# 1 10 0
# 11 50 0
# 51 86 0
# 87 106 0
VERSION 0.7
FIELDS x y z normal_x normal_y normal_z curvature
SIZE 4 4 4 4 4 4 4
TYPE F F F F F F F
COUNT 1 1 1 1 1 1 1
WIDTH 106
HEIGHT 1
VIEWPOINT 0 0 0 1 0 0 0
POINTS 106
DATA ascii
-47.414500 -8.717040 -1391.200000 0.985612 0.148194 -0.081284 0.010000
-47.629900 -6.464530 -1390.820000 0.998349 0.029249 -0.049444 1.000000
-47.549300 -4.170850 -1390.780000 0.998376 -0.051646 -0.024040 1.000000
-47.188300 -1.907470 -1390.910000 0.994870 -0.101156 -0.000960 1.000000
-47.312800 0.356316 -1390.550000 0.992641 -0.120435 0.012626 1.000000
-47.234200 2.624530 -1390.200000 0.993614 -0.111820 0.015114 1.000000
-46.702100 4.793790 -1390.730000 0.994576 -0.100665 0.026187 1.000000
-46.340100 7.036070 -1391.060000 0.994810 -0.099623 0.020697 1.000000
-46.161700 9.311500 -1390.820000 0.994762 -0.102172 -0.003136 1.000000
-45.788300 11.565300 -1391.040000 0.995049 -0.098469 -0.013454 1.000000
-45.273100 13.739000 -1390.520000 0.994189 -0.096116 -0.048485 1.000000
-45.521500 15.972500 -1390.050000 0.992393 -0.109506 -0.056246 1.000000
-45.668700 18.207100 -1389.550000 0.990277 -0.133557 -0.038923 1.000000
-44.955800 20.242800 -1390.330000 0.980347 -0.187606 0.061015 1.000000
-44.828600 22.474000 -1389.810000 0.975510 -0.202280 0.086384 1.000000
-44.357300 24.718700 -1389.720000 0.966262 -0.207299 0.152859 1.000000
-43.175100 26.438700 -1390.670000 0.910680 -0.230839 0.342601 1.000000
-42.235300 28.365400 -1391.490000 0.874846 -0.167227 0.454621 1.000000
-41.382800 30.336300 -1392.310000 0.858783 -0.082117 0.505716 1.000000
-40.978600 32.587200 -1392.110000 0.829880 0.027654 0.557256 1.000000
-41.847700 34.480000 -1391.140000 0.893112 0.026613 0.449046 1.000000
-43.123000 38.689000 -1390.170000 0.982135 -0.139391 0.126418 1.000000
-42.641000 40.919300 -1390.420000 0.979615 -0.174083 0.100249 1.000000
-41.476500 42.539700 -1391.550000 0.965991 -0.150172 0.210500 1.000000
-40.843800 44.746200 -1391.560000 0.972598 -0.155063 0.173228 1.000000
-40.945400 47.009800 -1391.190000 0.976858 -0.176662 0.120575 1.000000
-40.757700 49.204400 -1390.550000 0.973449 -0.219563 0.064719 1.000000
-40.259200 51.442500 -1390.650000 0.959980 -0.274012 0.057928 1.000000
-39.547000 53.621400 -1390.530000 0.940289 -0.338263 0.037879 1.000000
-38.489300 55.657600 -1390.590000 0.916959 -0.397596 0.033213 1.000000
-37.163400 57.134400 -1389.440000 0.893184 -0.449654 -0.005765 0.010000
-37.303200 57.900200 -1387.280000 0.881050 -0.468262 -0.066946 1.000000
-37.126000 58.445400 -1385.060000 0.868348 -0.481547 -0.118673 1.000000
-36.159900 59.205600 -1383.120000 0.849738 -0.506168 -0.147439 1.000000
-35.026600 60.421800 -1381.540000 0.819613 -0.548616 -0.165088 1.000000
-34.470000 60.608100 -1379.320000 0.807200 -0.556739 -0.196137 1.000000
-33.462200 61.435100 -1377.430000 0.770335 -0.597759 -0.221963 1.000000
-32.176100 61.871700 -1375.580000 0.662817 -0.686844 -0.298194 1.000000
-32.685300 60.463400 -1373.840000 0.704344 -0.627630 -0.331633 1.000000
-33.185700 59.152000 -1372.020000 0.741180 -0.555957 -0.376249 1.000000
-33.155700 58.035900 -1370.020000 0.728320 -0.538054 -0.424319 1.000000
-32.175100 57.222400 -1368.110000 0.665590 -0.558659 -0.494864 1.000000
-32.097400 55.823400 -1366.290000 0.656208 -0.534750 -0.532385 1.000000
-30.751400 55.012200 -1364.620000 0.590143 -0.551536 -0.589524 1.000000
-30.154100 53.796600 -1362.760000 0.563820 -0.556536 -0.610225 1.000000
-29.783300 52.553600 -1360.870000 0.552472 -0.570539 -0.607668 1.000000
-29.995000 50.780400 -1359.430000 0.576919 -0.563605 -0.591197 1.000000
-30.269400 48.896000 -1358.150000 0.612690 -0.546752 -0.570678 1.000000
-30.157300 46.939400 -1356.950000 0.645716 -0.528579 -0.551049 1.000000
-30.704100 45.155300 -1355.620000 0.696917 -0.479714 -0.533087 1.000000
-30.762200 43.660000 -1353.870000 0.715947 -0.457652 -0.527233 1.000000
-30.709300 42.182800 -1352.120000 0.729577 -0.440183 -0.523409 1.000000
-30.524000 40.637700 -1350.430000 0.742311 -0.423361 -0.519365 1.000000
-30.751200 38.602600 -1349.390000 0.780862 -0.376714 -0.498338 1.000000
-30.916800 36.709600 -1348.110000 0.804760 -0.344454 -0.483438 1.000000
-29.808400 36.163700 -1346.170000 0.778107 -0.373397 -0.505098 1.000000
-29.408900 34.605200 -1344.540000 0.783829 -0.361625 -0.504816 1.000000
-29.098600 32.889600 -1343.040000 0.791543 -0.345768 -0.503889 1.000000
-29.070300 31.265700 -1341.420000 0.797896 -0.337214 -0.499648 1.000000
-28.469300 29.686200 -1339.870000 0.799075 -0.338653 -0.496782 1.000000
-27.970700 28.255300 -1338.140000 0.798795 -0.341720 -0.495130 1.000000
-27.049400 27.397600 -1336.220000 0.789678 -0.355208 -0.500236 1.000000
-26.414900 26.106100 -1334.430000 0.787904 -0.359525 -0.499950 0.696170
-26.000400 24.725900 -1332.650000 0.789570 -0.352687 -0.502186 1.000000
-25.584700 23.348300 -1330.860000 0.796689 -0.341116 -0.498926 1.000000
-25.349900 21.737000 -1329.240000 0.814403 -0.317996 -0.485414 1.000000
-25.800800 19.600500 -1328.530000 0.837565 -0.266566 -0.476894 1.000000
-25.644700 17.549300 -1327.520000 0.857091 -0.224221 -0.463810 1.000000
-25.947000 15.332000 -1327.010000 0.863243 -0.201220 -0.462950 1.000000
-26.265600 13.110700 -1326.520000 0.863109 -0.194574 -0.466030 1.000000
-26.020100 10.874300 -1326.070000 0.860757 -0.196093 -0.469729 0.010000
-27.012100 8.813760 -1325.870000 0.849941 -0.208383 -0.483918 1.000000
-27.805400 6.942380 -1326.940000 0.833084 -0.227919 -0.504008 1.000000
-28.290500 4.768850 -1327.490000 0.838565 -0.220321 -0.498264 1.000000
-29.836300 4.045970 -1329.030000 0.844949 -0.212075 -0.491005 1.000000
-31.074500 2.569240 -1330.280000 0.850085 -0.201693 -0.486493 1.000000
-32.153200 1.847340 -1332.170000 0.855425 -0.197142 -0.478939 1.000000
-33.456800 1.302710 -1333.980000 0.868042 -0.186370 -0.460184 1.000000
-34.493900 -0.234010 -1335.330000 0.880453 -0.166759 -0.443841 1.000000
-35.514100 -1.495580 -1336.950000 0.893026 -0.151059 -0.423894 1.000000
-36.322500 -3.186530 -1338.280000 0.903574 -0.133216 -0.407195 1.000000
-37.087600 -4.532350 -1339.970000 0.910804 -0.126167 -0.393089 1.000000
-38.110500 -5.034710 -1341.970000 0.918846 -0.125214 -0.374225 1.000000
-39.087200 -5.799180 -1343.900000 0.926338 -0.122089 -0.356359 1.000000
-39.722400 -7.587570 -1345.190000 0.931900 -0.109092 -0.345921 1.000000
-40.657300 -8.314110 -1347.160000 0.944303 -0.093830 -0.315417 1.000000
-41.073400 -8.077800 -1349.400000 0.954270 -0.090238 -0.285001 1.000000
-41.723700 -7.333850 -1351.470000 0.961448 -0.096631 -0.257451 1.000000
-42.257000 -7.751260 -1353.670000 0.969628 -0.083927 -0.229734 1.000000
-42.573500 -7.910800 -1355.930000 0.975119 -0.075260 -0.208516 1.000000
-43.173700 -7.489270 -1358.110000 0.976985 -0.063581 -0.203610 1.000000
-43.773400 -6.602700 -1360.140000 0.977679 -0.060139 -0.201315 1.000000
-44.106400 -6.223830 -1362.380000 0.979961 -0.046269 -0.193741 1.000000
-44.582200 -5.941390 -1364.610000 0.981894 -0.030310 -0.186988 1.000000
-44.856900 -6.662610 -1366.770000 0.984534 0.005001 -0.175124 1.000000
-45.322400 -5.710600 -1368.800000 0.983053 0.002791 -0.183302 1.000000
-45.563800 -6.856880 -1370.780000 0.983726 0.041703 -0.174766 1.000000
-45.871600 -7.660780 -1372.910000 0.983950 0.071456 -0.163512 1.000000
-46.619300 -7.529160 -1375.070000 0.986615 0.064908 -0.149592 1.000000
-46.505900 -8.458130 -1377.170000 0.985445 0.102222 -0.135826 1.000000
-46.703800 -8.956360 -1379.400000 0.983734 0.148820 -0.100599 1.000000
-45.499100 -10.224600 -1380.890000 0.963589 0.259280 -0.065347 1.000000
-45.714200 -11.259500 -1382.920000 0.942594 0.331410 -0.041032 1.000000
-46.187600 -11.232200 -1385.170000 0.940850 0.336727 -0.037636 1.000000
-47.122700 -9.936720 -1386.820000 0.963720 0.260638 -0.057540 1.000000
-47.294100 -9.583440 -1389.080000 0.968051 0.237174 -0.081393 1.000000
