# .PCD v0.7 - Point Cloud Data file format
# 4 45 0
# 1 11 0
# 12 24 0
# 25 42 0
# 43 45 0
VERSION 0.7
FIELDS x y z normal_x normal_y normal_z curvature
SIZE 4 4 4 4 4 4 4
TYPE F F F F F F F
COUNT 1 1 1 1 1 1 1
WIDTH 45
HEIGHT 1
VIEWPOINT 0 0 0 1 0 0 0
POINTS 45
DATA ascii
36.044700 -149.986000 -1481.020000 0.365566 0.697833 0.615947 0.010000
35.197000 -148.515000 -1481.900000 0.424706 0.620253 0.659478 1.000000
33.779400 -147.264000 -1482.100000 0.489370 0.541042 0.683952 1.000000
31.975800 -146.432000 -1481.540000 0.555333 0.458138 0.694056 1.000000
29.683000 -145.325000 -1480.710000 0.620877 0.372077 0.689979 1.000000
28.407400 -144.094000 -1479.660000 0.647145 0.190696 0.738132 1.000000
27.059000 -143.150000 -1478.440000 0.648092 0.009242 0.761506 1.000000
25.653300 -142.490000 -1477.100000 0.667319 -0.106024 0.737186 1.000000
24.222900 -142.227000 -1475.640000 0.707254 -0.085730 0.701743 1.000000
23.872500 -141.238000 -1474.040000 0.579944 -0.462600 0.670572 1.000000
23.908900 -139.909000 -1472.470000 0.343799 -0.749395 0.565870 1.000000
23.969200 -138.398000 -1471.060000 0.266570 -0.776598 0.570821 1.000000
23.948700 -136.914000 -1469.630000 0.201721 -0.773367 0.601009 1.000000
23.805600 -135.427000 -1468.210000 0.133270 -0.755918 0.640958 1.000000
23.430200 -134.048000 -1466.880000 0.099283 -0.740868 0.664272 0.010000
21.450600 -134.361000 -1466.390000 0.076857 -0.720094 0.689607 1.000000
19.521200 -134.685000 -1465.740000 0.233429 -0.728129 0.644468 1.000000
17.782700 -135.322000 -1465.170000 0.491475 -0.631801 0.599399 1.000000
16.604000 -137.014000 -1465.110000 0.705755 -0.467598 0.532223 1.000000
15.385000 -138.596000 -1464.640000 0.813980 -0.197974 0.546116 1.000000
14.455600 -140.323000 -1464.200000 0.809584 -0.056232 0.584304 1.000000
14.000200 -142.322000 -1463.970000 0.755849 0.153612 0.636471 1.000000
13.714800 -144.090000 -1462.950000 0.698008 0.354616 0.622119 1.000000
13.307000 -145.826000 -1461.920000 0.712208 0.225496 0.664764 1.000000
12.802000 -147.525000 -1460.870000 0.724473 0.137077 0.675536 1.000000
12.352700 -149.110000 -1459.630000 0.720787 0.174487 0.670836 1.000000
12.316600 -150.997000 -1458.960000 0.689756 0.295170 0.661144 1.000000
12.832900 -152.843000 -1458.710000 0.612639 0.470195 0.635288 0.010000
14.286300 -154.287000 -1458.950000 0.622174 0.467327 0.628097 1.000000
15.620700 -155.854000 -1459.070000 0.669961 0.478350 0.567744 1.000000
16.993600 -157.132000 -1459.660000 0.674544 0.473067 0.566744 1.000000
18.436300 -157.997000 -1460.830000 0.625841 0.428878 0.651450 1.000000
19.932800 -157.609000 -1462.190000 0.554516 0.415071 0.721268 1.000000
21.413000 -157.259000 -1463.590000 0.544535 0.445666 0.710538 1.000000
22.912600 -157.027000 -1464.970000 0.541397 0.481997 0.688890 1.000000
24.535300 -157.183000 -1466.230000 0.505386 0.523100 0.686259 1.000000
26.191900 -157.052000 -1467.440000 0.464961 0.560042 0.685685 1.000000
27.644400 -156.566000 -1468.740000 0.436770 0.585673 0.682802 1.000000
28.708100 -155.587000 -1470.210000 0.426959 0.593153 0.682551 1.000000
29.974800 -154.912000 -1471.690000 0.416061 0.617520 0.667504 1.000000
31.105000 -154.144000 -1473.220000 0.414511 0.646924 0.640055 1.000000
32.140100 -153.286000 -1474.780000 0.398372 0.680057 0.615485 1.000000
33.603900 -152.561000 -1476.040000 0.324401 0.723675 0.609146 1.000000
34.615500 -151.838000 -1477.640000 0.286936 0.763057 0.579147 1.000000
35.378300 -151.031000 -1479.370000 0.320211 0.756356 0.570430 1.000000
