# .PCD v0.7 - Point Cloud Data file format
# 4 95 0
# 1 21 0
# 22 58 0
# 59 89 0
# 90 95 0
VERSION 0.7
FIELDS x y z normal_x normal_y normal_z curvature
SIZE 4 4 4 4 4 4 4
TYPE F F F F F F F
COUNT 1 1 1 1 1 1 1
WIDTH 95
HEIGHT 1
VIEWPOINT 0 0 0 1 0 0 0
POINTS 95
DATA ascii
52.097900 -88.919100 -1641.430000 0.776956 -0.598158 0.196334 0.010000
51.458900 -90.533800 -1640.730000 0.801909 -0.551124 0.230658 1.000000
50.259200 -91.759400 -1639.980000 0.833641 -0.482061 0.269556 1.000000
49.067300 -92.943000 -1639.160000 0.873723 -0.377466 0.306802 1.000000
48.318200 -94.066600 -1637.860000 0.915499 -0.234909 0.326618 1.000000
47.245700 -95.278200 -1636.920000 0.943026 -0.126090 0.307901 1.000000
46.699000 -96.415000 -1635.540000 0.956064 -0.088993 0.279323 1.000000
47.006600 -98.699400 -1631.810000 0.967988 -0.006406 0.250913 1.000000
46.318000 -100.439000 -1631.780000 0.969591 0.025105 0.243439 1.000000
45.771500 -101.622000 -1630.440000 0.959806 0.036733 0.278249 1.000000
45.041200 -102.819000 -1629.200000 0.942062 0.038251 0.333251 1.000000
45.106600 -104.465000 -1628.310000 0.923612 0.042975 0.380911 1.000000
44.725800 -106.087000 -1627.460000 0.908986 0.031631 0.415625 1.000000
44.345700 -107.341000 -1626.120000 0.909593 0.013210 0.415291 1.000000
43.971700 -108.959000 -1625.260000 0.912934 0.010835 0.407964 1.000000
43.581900 -110.607000 -1624.460000 0.920191 0.015410 0.391167 1.000000
43.333600 -112.299000 -1623.700000 0.928560 0.024400 0.370379 1.000000
43.034600 -114.067000 -1623.170000 0.933666 0.031583 0.356750 1.000000
42.732200 -115.855000 -1622.700000 0.935973 0.037903 0.350026 1.000000
42.477600 -117.540000 -1621.930000 0.934980 0.044056 0.351954 1.000000
42.449700 -119.329000 -1621.380000 0.934549 0.034558 0.354152 1.000000
41.956800 -120.512000 -1620.020000 0.931403 0.029517 0.362791 1.000000
41.852500 -122.047000 -1618.950000 0.929846 0.021086 0.367344 1.000000
41.369600 -123.708000 -1618.240000 0.927886 0.010202 0.372723 1.000000
40.488500 -125.097000 -1617.340000 0.925679 0.042323 0.375935 1.000000
40.196400 -126.886000 -1617.810000 0.932730 0.085321 0.350336 1.000000
41.130900 -128.503000 -1617.690000 0.943251 0.138818 0.301673 1.000000
42.024300 -130.148000 -1617.700000 0.956637 0.180398 0.228698 0.010000
42.665800 -131.346000 -1618.980000 0.964559 0.160479 0.209455 1.000000
43.104900 -132.206000 -1620.590000 0.968805 0.139483 0.204845 1.000000
43.367200 -133.280000 -1622.100000 0.972016 0.135087 0.192187 1.000000
43.951600 -134.453000 -1623.430000 0.974555 0.138784 0.176017 1.000000
44.096900 -134.731000 -1625.280000 0.974419 0.120150 0.189927 1.000000
44.520000 -135.420000 -1626.960000 0.973672 0.117204 0.195515 1.000000
44.888500 -135.623000 -1628.790000 0.973219 0.104816 0.204591 1.000000
45.420700 -136.352000 -1630.430000 0.970834 0.115144 0.210295 1.000000
46.030700 -137.473000 -1631.800000 0.962158 0.153855 0.224901 1.000000
46.514500 -137.592000 -1633.600000 0.956513 0.151848 0.249050 1.000000
47.002800 -138.043000 -1635.350000 0.949014 0.163364 0.269602 1.000000
47.508000 -138.493000 -1637.090000 0.941835 0.173052 0.288095 1.000000
48.422600 -139.865000 -1637.980000 0.936183 0.223670 0.271171 1.000000
49.174600 -140.819000 -1639.400000 0.936220 0.238717 0.257888 1.000000
48.975200 -139.755000 -1640.930000 0.943151 0.180025 0.279387 1.000000
49.528700 -139.837000 -1642.720000 0.945788 0.156803 0.284426 1.000000
50.045000 -140.041000 -1644.500000 0.947784 0.135957 0.288480 1.000000
50.565300 -140.243000 -1646.290000 0.951174 0.119076 0.284761 1.000000
51.176400 -140.866000 -1647.950000 0.953747 0.120594 0.275362 1.000000
51.721300 -141.443000 -1649.640000 0.955238 0.128762 0.266346 1.000000
52.201500 -141.397000 -1651.450000 0.958084 0.132544 0.253983 1.000000
52.435200 -141.159000 -1653.290000 0.950524 0.140393 0.277116 1.000000
52.974100 -141.251000 -1655.080000 0.935192 0.160912 0.315473 1.000000
53.644700 -140.483000 -1656.650000 0.926121 0.156822 0.343083 1.000000
54.654600 -141.406000 -1657.930000 0.897157 0.212243 0.387378 1.000000
55.611600 -141.774000 -1659.490000 0.871317 0.252108 0.421009 1.000000
55.967500 -141.082000 -1661.190000 0.861071 0.259853 0.437074 1.000000
56.616800 -140.760000 -1662.920000 0.839129 0.279530 0.466612 1.000000
57.232300 -139.951000 -1664.490000 0.818452 0.295012 0.493056 1.000000
57.738700 -138.477000 -1665.530000 0.812480 0.305828 0.496332 1.000000
58.228300 -137.262000 -1666.860000 0.839250 0.260053 0.477527 1.000000
58.557000 -136.613000 -1668.590000 0.858001 0.239933 0.454165 1.000000
58.559600 -135.155000 -1669.760000 0.883999 0.183593 0.429930 1.000000
59.176900 -134.237000 -1671.270000 0.897163 0.178703 0.403934 1.000000
59.364600 -132.467000 -1671.850000 0.921624 0.144579 0.360146 1.000000
59.445300 -131.408000 -1673.390000 0.932120 0.163720 0.323030 1.000000
60.129400 -130.752000 -1675.000000 0.935040 0.198794 0.293565 0.010000
59.833100 -128.952000 -1675.420000 0.953715 0.175379 0.244273 1.000000
59.567900 -127.102000 -1675.340000 0.967617 0.151425 0.201960 1.000000
59.082600 -125.375000 -1674.800000 0.973167 0.143880 0.179567 1.000000
58.509100 -123.869000 -1673.850000 0.973386 0.149678 0.173541 1.000000
58.513300 -121.998000 -1673.850000 0.969984 0.180154 0.163327 1.000000
57.990400 -120.554000 -1672.780000 0.965673 0.192842 0.174032 1.000000
57.405300 -119.197000 -1671.630000 0.963526 0.183969 0.194354 1.000000
57.081900 -117.530000 -1670.840000 0.963432 0.164566 0.211464 1.000000
56.682700 -115.944000 -1669.930000 0.970317 0.139965 0.197220 1.000000
56.294600 -114.331000 -1669.070000 0.975794 0.116414 0.185131 1.000000
55.825000 -112.890000 -1667.970000 0.979797 0.097769 0.174468 1.000000
55.490300 -111.338000 -1666.980000 0.981953 0.071086 0.175259 1.000000
55.513300 -109.591000 -1666.300000 0.980900 0.035165 0.191305 1.000000
55.264200 -108.227000 -1665.050000 0.980100 0.022254 0.197251 1.000000
55.022500 -106.816000 -1663.840000 0.978924 0.006579 0.204121 1.000000
54.504000 -105.587000 -1662.530000 0.980989 -0.013171 0.193615 1.000000
53.908400 -104.483000 -1661.140000 0.985164 -0.030462 0.168888 1.000000
54.063300 -102.823000 -1660.290000 0.988024 -0.050487 0.145807 1.000000
53.816400 -101.855000 -1658.710000 0.992358 -0.060310 0.107648 1.000000
54.178100 -100.518000 -1657.450000 0.990106 -0.046074 0.132543 1.000000
53.750100 -99.875400 -1655.740000 0.980758 -0.020990 0.194095 1.000000
53.450400 -98.863600 -1654.200000 0.968289 0.020460 0.248994 1.000000
52.860100 -97.896500 -1652.710000 0.951822 0.064918 0.299699 1.000000
52.479200 -96.672300 -1651.350000 0.936923 0.111220 0.331370 1.000000
51.925200 -95.660400 -1649.870000 0.946812 0.017678 0.321302 1.000000
51.378800 -94.938500 -1648.230000 0.953116 -0.079216 0.292052 1.000000
51.354800 -93.688600 -1646.840000 0.932930 -0.261834 0.247152 1.000000
51.133000 -92.815300 -1645.200000 0.908437 -0.373670 0.187384 1.000000
51.157300 -91.670500 -1643.720000 0.863254 -0.467110 0.191312 1.000000
51.389000 -90.333400 -1642.430000 0.817984 -0.540200 0.197703 1.000000
