# .PCD v0.7 - Point Cloud Data file format
# 4 150 0
# 1 30 0
# 31 89 0
# 90 126 0
# 127 150 0
VERSION 0.7
FIELDS x y z normal_x normal_y normal_z curvature
SIZE 4 4 4 4 4 4 4
TYPE F F F F F F F
COUNT 1 1 1 1 1 1 1
WIDTH 150
HEIGHT 1
VIEWPOINT 0 0 0 1 0 0 0
POINTS 150
DATA ascii
-195.665000 -57.922000 -1649.150000 0.887071 -0.458193 -0.056261 0.010000
-196.178000 -58.988400 -1648.080000 0.868168 -0.490608 -0.074752 1.000000
-196.798000 -60.223900 -1647.290000 0.846334 -0.525768 -0.085361 1.000000
-197.630000 -61.528600 -1646.920000 0.831132 -0.549730 -0.083769 1.000000
-198.309000 -62.796800 -1646.240000 0.824565 -0.557370 -0.097111 1.000000
-198.935000 -64.017100 -1645.430000 0.821733 -0.558813 -0.111726 1.000000
-199.561000 -65.251600 -1644.640000 0.823174 -0.554662 -0.121388 1.000000
-200.319000 -66.430400 -1643.890000 0.829446 -0.544534 -0.124508 1.000000
-200.967000 -67.562600 -1642.980000 0.834655 -0.534525 -0.132795 1.000000
-201.436000 -68.697100 -1641.960000 0.837665 -0.526351 -0.145848 1.000000
-202.045000 -69.779300 -1640.970000 0.840920 -0.520031 -0.149738 1.000000
-202.426000 -70.744400 -1639.760000 0.832793 -0.527383 -0.168293 1.000000
-202.965000 -71.884000 -1638.790000 0.834384 -0.524362 -0.169846 1.000000
-203.569000 -73.168800 -1638.070000 0.845364 -0.511475 -0.154118 1.000000
-203.827000 -73.904700 -1636.680000 0.824961 -0.530974 -0.193665 1.000000
-204.038000 -75.017000 -1635.560000 0.815965 -0.537654 -0.212439 1.000000
-204.693000 -76.048500 -1634.540000 0.814458 -0.537544 -0.218412 1.000000
-205.166000 -77.188200 -1633.540000 0.812340 -0.536492 -0.228647 1.000000
-205.596000 -78.232000 -1632.420000 0.807417 -0.536145 -0.246226 1.000000
-205.927000 -79.329300 -1631.310000 0.803603 -0.534375 -0.262040 1.000000
-206.399000 -80.562200 -1630.420000 0.808490 -0.525252 -0.265431 1.000000
-207.052000 -81.835500 -1629.720000 0.819935 -0.510167 -0.259686 1.000000
-207.420000 -83.194800 -1628.980000 0.828038 -0.496979 -0.259550 1.000000
-208.264000 -84.524900 -1628.750000 0.848842 -0.472571 -0.236948 1.000000
-208.929000 -85.923000 -1629.120000 0.879288 -0.439924 -0.182534 1.000000
-210.275000 -88.732600 -1629.790000 0.894794 -0.439171 -0.080455 1.000000
-211.083000 -90.020700 -1630.260000 0.896238 -0.440866 -0.048931 1.000000
-211.644000 -91.285000 -1629.470000 0.891313 -0.451122 -0.045276 1.000000
-212.284000 -92.449500 -1628.590000 0.887412 -0.459168 -0.040797 1.000000
-212.837000 -93.788100 -1627.930000 0.887784 -0.459494 -0.026544 1.000000
-213.624000 -95.145300 -1628.200000 0.899946 -0.435901 0.009348 1.000000
-214.302000 -96.528500 -1627.800000 0.908077 -0.417296 0.035492 1.000000
-215.065000 -97.843900 -1628.270000 0.919104 -0.390322 0.053819 1.000000
-215.508000 -99.133000 -1627.450000 0.920457 -0.385399 0.065010 1.000000
-216.222000 -100.309000 -1628.250000 0.919119 -0.391334 0.045588 1.000000
-216.849000 -101.769000 -1628.350000 0.915886 -0.399561 0.038794 1.000000
-217.429000 -103.176000 -1627.880000 0.911836 -0.408532 0.040712 1.000000
-218.028000 -104.646000 -1627.770000 0.906417 -0.420771 0.036872 1.000000
-218.644000 -106.112000 -1627.840000 0.900508 -0.433747 0.030806 1.000000
-219.181000 -107.611000 -1627.810000 0.897937 -0.438722 0.035112 1.000000
-219.805000 -109.074000 -1627.770000 0.900219 -0.432501 0.050491 1.000000
-220.391000 -110.551000 -1627.860000 0.905456 -0.419122 0.066970 1.000000
-221.104000 -111.835000 -1628.480000 0.915285 -0.394898 0.079435 1.000000
-221.858000 -113.225000 -1628.660000 0.926804 -0.363729 0.093459 1.000000
-222.358000 -114.620000 -1628.080000 0.933339 -0.341749 0.109939 1.000000
-222.793000 -116.058000 -1627.560000 0.937171 -0.325322 0.126000 1.000000
-223.317000 -117.483000 -1627.080000 0.937723 -0.319557 0.136232 1.000000
-223.824000 -118.669000 -1626.150000 0.935399 -0.325605 0.137880 1.000000
-224.473000 -120.079000 -1626.500000 0.929756 -0.344682 0.129418 1.000000
-224.954000 -121.492000 -1627.050000 0.922579 -0.366116 0.121683 1.000000
-225.519000 -122.952000 -1627.340000 0.914477 -0.387432 0.116742 1.000000
-225.836000 -124.052000 -1628.450000 0.909367 -0.401677 0.108199 1.000000
-226.338000 -125.559000 -1628.550000 0.902736 -0.417589 0.103380 1.000000
-226.761000 -126.768000 -1629.500000 0.894933 -0.440475 0.071248 1.000000
-227.028000 -127.778000 -1630.700000 0.888910 -0.457008 0.031351 0.010000
-227.381000 -128.267000 -1632.170000 0.882094 -0.470765 -0.017047 1.000000
-227.682000 -128.495000 -1633.720000 0.872782 -0.483523 -0.066759 1.000000
-227.845000 -128.177000 -1635.270000 0.868482 -0.487618 -0.089257 1.000000
-227.629000 -127.296000 -1636.570000 0.860417 -0.499757 -0.099629 1.000000
-227.789000 -126.985000 -1638.130000 0.855936 -0.505691 -0.107933 1.000000
-227.671000 -126.232000 -1639.520000 0.848773 -0.517350 -0.109237 1.000000
-226.855000 -125.028000 -1640.170000 0.842590 -0.529038 -0.100807 1.000000
-226.337000 -123.994000 -1641.270000 0.837894 -0.538366 -0.089977 1.000000
-225.473000 -122.767000 -1641.800000 0.842447 -0.534303 -0.069300 1.000000
-225.074000 -122.027000 -1643.150000 0.849525 -0.523500 -0.065229 1.000000
-224.308000 -120.983000 -1644.070000 0.865969 -0.496361 -0.061017 1.000000
-223.718000 -120.065000 -1645.230000 0.875844 -0.478624 -0.061785 1.000000
-223.258000 -118.654000 -1645.810000 0.891256 -0.450262 -0.054095 1.000000
-222.712000 -117.483000 -1646.740000 0.900438 -0.431755 -0.052900 1.000000
-222.239000 -116.274000 -1647.660000 0.907660 -0.416311 -0.053282 1.000000
-221.774000 -115.188000 -1648.720000 0.910485 -0.409719 -0.056098 1.000000
-221.388000 -114.000000 -1649.710000 0.907970 -0.416416 -0.046767 1.000000
-221.052000 -113.003000 -1650.910000 0.903257 -0.427004 -0.042362 1.000000
-220.686000 -112.255000 -1652.260000 0.896800 -0.440413 -0.042270 1.000000
-220.222000 -111.392000 -1653.520000 0.891286 -0.451740 -0.039241 1.000000
-219.781000 -110.256000 -1654.540000 0.887524 -0.459683 -0.031506 1.000000
-219.324000 -109.235000 -1655.670000 0.882532 -0.469512 -0.026391 1.000000
-218.954000 -108.535000 -1657.050000 0.875665 -0.482019 -0.029483 1.000000
-218.525000 -107.522000 -1658.200000 0.874540 -0.483870 -0.032390 1.000000
-218.078000 -106.501000 -1659.340000 0.873888 -0.484936 -0.034019 1.000000
-217.638000 -105.495000 -1660.490000 0.873381 -0.485774 -0.035070 1.000000
-217.046000 -104.678000 -1661.720000 0.872281 -0.487615 -0.036839 1.000000
-216.342000 -104.207000 -1663.070000 0.869385 -0.492411 -0.041239 1.000000
-216.198000 -103.193000 -1664.290000 0.868182 -0.494464 -0.042007 1.000000
-215.835000 -101.955000 -1665.220000 0.870599 -0.490658 -0.036230 1.000000
-215.489000 -101.281000 -1666.620000 0.865711 -0.499173 -0.037033 1.000000
-215.114000 -100.397000 -1667.890000 0.862583 -0.504744 -0.034409 1.000000
-214.438000 -99.304500 -1668.830000 0.863750 -0.503326 -0.024476 1.000000
-213.727000 -98.244200 -1669.780000 0.864928 -0.501694 -0.014234 1.000000
-213.380000 -97.381000 -1671.070000 0.861134 -0.508235 -0.012061 1.000000
-213.040000 -97.053400 -1672.590000 0.851931 -0.523275 -0.019939 1.000000
-212.625000 -96.430200 -1674.000000 0.845069 -0.534148 -0.023315 1.000000
-212.116000 -95.942700 -1675.430000 0.840064 -0.541481 -0.033039 1.000000
-211.618000 -94.980300 -1676.590000 0.842494 -0.537447 -0.036801 1.000000
-210.974000 -94.100100 -1677.750000 0.845159 -0.533037 -0.039723 1.000000
-210.424000 -93.033800 -1678.800000 0.849973 -0.525392 -0.038854 1.000000
-209.831000 -91.995500 -1679.850000 0.854983 -0.517319 -0.037225 1.000000
-209.310000 -90.921800 -1680.900000 0.860104 -0.508923 -0.034900 1.000000
-208.917000 -89.747500 -1681.900000 0.866099 -0.498932 -0.030654 1.000000
-208.520000 -88.912200 -1683.200000 0.869208 -0.494155 -0.016958 1.000000
-208.146000 -87.750100 -1684.220000 0.870425 -0.492299 -0.001044 1.000000
-207.620000 -87.007700 -1685.520000 0.871606 -0.489668 0.022980 1.000000
-207.118000 -86.570000 -1686.970000 0.870400 -0.489947 0.048538 1.000000
-206.492000 -86.045900 -1688.340000 0.867496 -0.492288 0.071441 1.000000
-206.026000 -85.264800 -1689.640000 0.863491 -0.495722 0.092968 1.000000
-205.505000 -84.944100 -1691.110000 0.856151 -0.504722 0.110729 1.000000
-205.030000 -84.252800 -1692.460000 0.855704 -0.503223 0.120572 1.000000
-204.632000 -83.523100 -1693.820000 0.867250 -0.484209 0.115839 1.000000
-204.146000 -83.097100 -1695.280000 0.873943 -0.473185 0.110995 1.000000
-203.554000 -82.735100 -1696.710000 0.879195 -0.464394 0.106562 1.000000
-202.975000 -82.095400 -1698.050000 0.885178 -0.453514 0.103854 1.000000
-202.448000 -81.102200 -1699.170000 0.891828 -0.439994 0.105111 1.000000
-201.797000 -80.432400 -1700.460000 0.891320 -0.434585 0.129172 1.000000
-201.567000 -78.915000 -1700.880000 0.890540 -0.426856 0.157267 0.010000
-201.106000 -78.063200 -1699.620000 0.911223 -0.393791 0.120834 1.000000
-200.969000 -77.358300 -1698.200000 0.918333 -0.375234 0.125955 1.000000
-201.167000 -76.855900 -1696.700000 0.924331 -0.354872 0.140276 1.000000
-201.198000 -76.048800 -1695.330000 0.933219 -0.317655 0.167922 1.000000
-201.334000 -76.067700 -1693.750000 0.931977 -0.329535 0.151079 1.000000
-200.919000 -74.974400 -1692.670000 0.933020 -0.333195 0.135851 1.000000
-200.719000 -74.366000 -1691.210000 0.932308 -0.339311 0.125176 1.000000
-200.640000 -73.588700 -1689.820000 0.931249 -0.344548 0.118584 1.000000
-200.628000 -72.864500 -1688.400000 0.928674 -0.353923 0.110922 1.000000
-200.434000 -71.986000 -1687.090000 0.925053 -0.366797 0.098672 1.000000
-200.252000 -71.204300 -1685.720000 0.921294 -0.379194 0.086198 1.000000
-199.996000 -70.310700 -1684.430000 0.917416 -0.391215 0.072786 1.000000
-199.643000 -69.475600 -1683.120000 0.913680 -0.402001 0.059867 1.000000
-199.642000 -68.943300 -1681.620000 0.912154 -0.405888 0.056833 1.000000
-199.832000 -68.811800 -1680.040000 0.909864 -0.411142 0.055765 1.000000
-199.407000 -67.650500 -1679.040000 0.909479 -0.412684 0.050399 1.000000
-198.924000 -66.537900 -1678.010000 0.909226 -0.413883 0.044825 1.000000
-198.420000 -65.530900 -1676.880000 0.909285 -0.414186 0.040627 1.000000
-198.127000 -64.855100 -1675.470000 0.909253 -0.414251 0.040673 0.413141
-197.902000 -64.288300 -1674.000000 0.908822 -0.415121 0.041425 0.959755
-197.718000 -63.744300 -1672.520000 0.908195 -0.416375 0.042590 0.812082
-197.423000 -63.066500 -1671.110000 0.907997 -0.416739 0.043254 1.000000
-197.494000 -62.747200 -1669.550000 0.907206 -0.417908 0.048271 1.000000
-197.246000 -62.138100 -1668.100000 0.908451 -0.414899 0.050754 1.000000
-196.833000 -61.346700 -1666.780000 0.911652 -0.407883 0.050229 1.000000
-196.717000 -60.812400 -1665.290000 0.914084 -0.402795 0.046976 1.000000
-196.756000 -60.469700 -1663.730000 0.915762 -0.400004 0.037113 1.000000
-196.640000 -59.968200 -1662.230000 0.917330 -0.397541 0.021591 1.000000
-196.436000 -59.364100 -1660.770000 0.918408 -0.395500 0.010356 1.000000
-195.808000 -58.295600 -1659.770000 0.922928 -0.384972 -0.000394 1.000000
-195.765000 -58.060300 -1658.200000 0.919541 -0.392979 -0.003341 1.000000
-195.798000 -58.029400 -1656.610000 0.913453 -0.406938 -0.002370 1.000000
-195.675000 -57.798100 -1655.040000 0.908588 -0.417674 -0.004090 1.000000
-195.119000 -56.986600 -1653.780000 0.910270 -0.413793 -0.013517 1.000000
-195.315000 -57.212700 -1652.220000 0.903695 -0.427790 -0.018173 1.000000
-195.414000 -57.476200 -1650.650000 0.897039 -0.440757 -0.032460 1.000000
