# .PCD v0.7 - Point Cloud Data file format
# 4 107 0
# 1 35 0
# 36 71 0
# 72 105 0
# 106 107 0
VERSION 0.7
FIELDS x y z normal_x normal_y normal_z curvature
SIZE 4 4 4 4 4 4 4
TYPE F F F F F F F
COUNT 1 1 1 1 1 1 1
WIDTH 107
HEIGHT 1
VIEWPOINT 0 0 0 1 0 0 0
POINTS 107
DATA ascii
-166.736000 71.572300 -1427.530000 -0.192871 -0.692509 0.695149 0.010000
-167.030000 71.244600 -1428.690000 0.243022 -0.747818 -0.617826 1.000000
-169.017000 71.232100 -1429.060000 0.175805 -0.774592 -0.607536 1.000000
-164.047000 77.157000 -1440.240000 0.658677 0.517424 0.546276 1.000000
-162.379000 77.833000 -1441.160000 0.674931 0.513457 0.529935 1.000000
-160.823000 78.823200 -1441.920000 0.738959 0.360173 0.569399 1.000000
-159.287000 79.891500 -1442.600000 -0.040701 -0.628989 -0.776348 1.000000
-157.476000 80.277200 -1443.410000 0.094649 -0.511341 -0.854150 1.000000
-156.041000 81.510800 -1443.840000 0.149871 -0.527100 -0.836483 1.000000
-154.703000 82.963200 -1444.240000 0.163976 -0.554875 -0.815614 1.000000
-153.321000 84.323000 -1444.810000 0.102731 -0.572452 -0.813477 1.000000
-151.589000 85.092200 -1445.480000 0.019649 -0.657301 -0.753372 1.000000
-149.844000 85.650400 -1446.310000 -0.176100 -0.462602 -0.868901 1.000000
-148.112000 86.092600 -1447.240000 -0.362386 -0.322656 -0.874397 1.000000
-146.392000 86.868100 -1447.960000 -0.179421 -0.369275 -0.911836 1.000000
-144.691000 87.778800 -1448.550000 0.162345 -0.340574 -0.926096 1.000000
-143.030000 88.820200 -1449.010000 0.402570 -0.286946 -0.869252 1.000000
-141.448000 90.043700 -1449.300000 0.502932 -0.264925 -0.822723 1.000000
-139.755000 91.068800 -1449.690000 0.514547 -0.324489 -0.793693 1.000000
-138.357000 92.375900 -1449.710000 0.095539 0.553992 0.827022 1.000000
-137.316000 94.044800 -1449.290000 0.104266 0.520561 0.847434 1.000000
-135.802000 95.353600 -1449.570000 0.138228 0.482254 0.865057 1.000000
-134.250000 96.594600 -1449.930000 0.238180 -0.654306 -0.717743 1.000000
-132.663000 97.761500 -1450.360000 0.197956 -0.695679 -0.690539 1.000000
-131.032000 98.804900 -1450.940000 0.287988 -0.575291 -0.765573 1.000000
-129.673000 100.246000 -1450.900000 0.326351 -0.489840 -0.808426 1.000000
-128.416000 101.808000 -1450.660000 0.322493 -0.436202 -0.840075 1.000000
-127.211000 103.403000 -1450.360000 0.290842 -0.404618 -0.867004 1.000000
-125.967000 102.593000 -1449.060000 0.272086 -0.465733 -0.842058 1.000000
-124.443000 101.960000 -1447.960000 0.285600 -0.543811 -0.789115 1.000000
-122.683000 101.698000 -1447.160000 0.342125 -0.641799 -0.686326 1.000000
-120.827000 102.490000 -1447.060000 0.402816 -0.691071 -0.600134 1.000000
-119.331000 103.792000 -1446.990000 0.530405 -0.719880 -0.447710 1.000000
-117.870000 105.064000 -1447.220000 0.810733 -0.585321 -0.010529 1.000000
-116.209000 105.879000 -1448.030000 -0.370464 -0.927809 -0.043886 1.000000
-114.978000 107.436000 -1448.030000 -0.334657 -0.936885 -0.101249 1.000000
-113.874000 109.094000 -1448.210000 -0.105003 -0.944153 -0.312330 1.000000
-113.019000 110.691000 -1448.760000 0.716719 -0.162173 -0.678243 0.010000
-114.062000 111.298000 -1450.380000 0.557868 -0.172154 -0.811878 1.000000
-115.641000 111.957000 -1451.220000 0.273704 -0.268668 -0.923528 1.000000
-117.423000 112.596000 -1451.260000 0.580411 0.770763 -0.262770 1.000000
-119.010000 113.098000 -1450.110000 -0.282210 -0.812447 0.510184 1.000000
-120.508000 113.315000 -1448.780000 -0.242164 -0.847304 0.472687 1.000000
-121.929000 113.513000 -1447.370000 -0.155657 -0.724670 0.671285 1.000000
-123.270000 113.760000 -1445.880000 -0.012692 -0.770362 0.637481 1.000000
-124.638000 113.960000 -1444.400000 0.043702 0.997511 0.055334 1.000000
-125.930000 114.160000 -1442.860000 0.018477 0.997158 0.073041 1.000000
-127.174000 114.358000 -1441.280000 0.017594 0.996173 0.085613 1.000000
-128.428000 114.546000 -1439.710000 0.072674 0.995235 0.065000 1.000000
-129.713000 114.696000 -1438.160000 0.231418 0.969901 0.075742 1.000000
-130.996000 114.842000 -1436.610000 0.181797 -0.904886 0.384878 1.000000
-132.261000 114.999000 -1435.040000 0.249153 -0.886003 0.391051 1.000000
-133.492000 115.168000 -1433.450000 0.382436 -0.814690 0.435917 1.000000
-134.701000 115.340000 -1431.840000 0.407481 -0.753477 0.515976 1.000000
-135.884000 115.519000 -1430.210000 0.342504 -0.733621 0.586933 1.000000
-137.011000 115.738000 -1428.550000 0.523871 -0.668696 0.527641 1.000000
-138.133000 115.935000 -1426.880000 0.745180 -0.461226 0.481640 1.000000
-139.210000 116.135000 -1425.180000 0.850412 -0.212028 0.481502 1.000000
-140.183000 116.367000 -1423.430000 0.848754 -0.042646 0.527066 1.000000
-141.139000 116.590000 -1421.660000 0.806526 0.056544 0.588488 1.000000
-142.174000 116.757000 -1419.940000 0.757525 0.091462 0.646367 1.000000
-143.299000 116.861000 -1418.260000 0.770152 0.110580 0.628202 1.000000
-144.390000 116.954000 -1416.570000 0.862196 0.141733 0.486343 1.000000
-145.376000 117.089000 -1414.810000 0.941145 0.286392 0.179517 1.000000
-146.284000 117.253000 -1413.010000 0.889029 0.368754 0.271381 1.000000
-147.125000 117.436000 -1411.190000 0.765503 0.438837 0.470560 1.000000
-148.023000 117.588000 -1409.380000 0.789654 0.308625 0.530280 1.000000
-148.899000 117.709000 -1407.570000 0.916528 -0.097648 0.387868 1.000000
-149.719000 117.793000 -1405.720000 0.910383 -0.344474 0.229218 1.000000
-150.562000 117.844000 -1403.890000 0.867367 -0.472283 0.156920 1.000000
-151.392000 117.887000 -1402.050000 0.809122 -0.575088 0.120811 1.000000
-152.146000 117.958000 -1400.180000 0.758733 -0.648317 0.063316 1.000000
-152.553000 118.204000 -1398.220000 0.716382 -0.696984 -0.031794 1.000000
-153.671000 117.602000 -1396.820000 0.681539 -0.724778 -0.101006 0.010000
-154.342000 116.377000 -1396.010000 0.720330 -0.329207 -0.610530 1.000000
-153.635000 114.485000 -1395.970000 0.526364 0.086425 -0.845856 1.000000
-153.166000 112.522000 -1396.010000 0.435799 0.763740 0.476215 1.000000
-153.005000 110.540000 -1395.890000 0.506272 0.288363 0.812733 1.000000
-153.219000 108.577000 -1395.600000 0.377519 -0.541984 0.750822 1.000000
-154.367000 106.919000 -1395.490000 -0.703882 -0.495963 -0.508499 1.000000
-155.120000 105.391000 -1396.310000 0.074688 0.414515 -0.906973 1.000000
-155.842000 103.891000 -1397.370000 0.204087 0.473653 -0.856739 1.000000
-156.989000 102.298000 -1397.850000 0.255886 0.449898 -0.855637 1.000000
-158.034000 100.740000 -1398.590000 0.269970 0.389524 -0.880561 1.000000
-159.229000 99.234600 -1399.060000 0.283672 0.313724 -0.906150 1.000000
-160.607000 97.794600 -1399.150000 0.322243 0.261394 -0.909853 1.000000
-160.914000 96.633100 -1400.770000 0.357582 0.231558 -0.904719 1.000000
-161.676000 95.253600 -1401.910000 0.466099 0.180978 -0.866025 1.000000
-162.795000 94.037700 -1402.860000 -0.337358 -0.716114 0.611040 1.000000
-164.200000 94.026500 -1404.310000 -0.511166 -0.622360 0.592770 1.000000
-165.452000 93.571500 -1405.810000 -0.531963 -0.681840 0.502105 1.000000
-166.579000 93.012200 -1407.380000 -0.535242 -0.734718 0.416781 1.000000
-167.563000 92.479600 -1409.070000 -0.525569 -0.785464 0.326839 1.000000
-168.522000 91.607000 -1410.610000 -0.486498 -0.802369 0.345723 1.000000
-169.164000 90.755400 -1412.300000 -0.440444 -0.757982 0.481116 1.000000
-169.576000 89.847900 -1414.030000 -0.412894 -0.595617 0.689028 1.000000
-170.211000 88.388500 -1415.280000 -0.423056 -0.516383 0.744562 1.000000
-169.901000 86.709500 -1416.140000 -0.437931 -0.524439 0.730192 1.000000
-169.252000 84.946300 -1416.880000 -0.449367 -0.518552 0.727443 1.000000
-168.671000 83.185700 -1417.680000 -0.462265 -0.496426 0.734760 1.000000
-168.588000 81.416000 -1418.630000 -0.481458 -0.448880 0.752798 1.000000
-168.585000 79.634800 -1419.590000 -0.491156 -0.374688 0.786368 1.000000
-168.611000 77.841700 -1420.520000 -0.487536 -0.347750 0.800861 1.000000
-168.707000 76.042900 -1421.430000 -0.473777 -0.357421 0.804851 1.000000
-168.554000 74.515900 -1422.690000 -0.454688 -0.370781 0.809803 1.000000
-168.190000 73.220700 -1424.180000 -0.430113 -0.360391 0.827720 1.000000
-167.585000 72.203300 -1425.820000 -0.378525 -0.372843 0.847176 1.000000
