# .PCD v0.7 - Point Cloud Data file format
# 4 30 0
# 1 5 0
# 6 17 0
# 18 26 0
# 27 30 0
VERSION 0.7
FIELDS x y z normal_x normal_y normal_z curvature
SIZE 4 4 4 4 4 4 4
TYPE F F F F F F F
COUNT 1 1 1 1 1 1 1
WIDTH 30
HEIGHT 1
VIEWPOINT 0 0 0 1 0 0 0
POINTS 30
DATA ascii
-63.012700 8.663310 -1700.510000 0.188824 0.839735 0.509107 0.010000
-62.496400 8.910870 -1701.490000 -0.918640 0.315185 -0.238240 1.000000
-62.066600 9.142650 -1702.570000 -0.860381 0.483570 -0.160949 1.000000
-61.603500 9.245430 -1703.650000 -0.797874 0.588776 -0.129386 1.000000
-61.138000 9.339000 -1704.730000 -0.751358 0.641675 -0.153995 1.000000
-69.985400 4.345810 -1681.360000 -0.776650 -0.483247 -0.404088 1.000000
-70.605200 5.326190 -1681.130000 -0.765043 -0.460811 -0.449847 1.000000
-71.210000 6.309640 -1680.950000 -0.741983 -0.455454 -0.491958 1.000000
-71.605100 7.336200 -1681.380000 -0.703886 -0.469221 -0.533269 1.000000
-71.931200 8.258760 -1681.910000 -0.534304 -0.574361 -0.620184 0.010000
-71.808100 8.505350 -1683.060000 -0.648613 -0.434568 -0.624861 1.000000
-71.633200 8.652790 -1684.200000 -0.778926 -0.213182 -0.589769 1.000000
-71.250900 8.403660 -1685.290000 -0.910441 -0.048386 -0.410799 1.000000
-70.883500 8.166780 -1686.380000 -0.894095 0.446868 0.030045 1.000000
-70.557000 7.963590 -1687.500000 -0.554845 0.818202 -0.150642 1.000000
-70.255500 7.785360 -1688.630000 -0.286403 0.859797 -0.422756 1.000000
-70.004000 7.657040 -1689.780000 -0.181991 0.864412 -0.468691 1.000000
-70.041400 7.403830 -1690.860000 -0.124032 0.869301 -0.478468 1.000000
-70.512300 6.963300 -1691.850000 -0.104184 0.882564 -0.458505 1.000000
-70.950000 6.511140 -1692.850000 -0.090136 0.912085 -0.399970 1.000000
-71.349600 6.045670 -1693.860000 -0.119418 0.963812 -0.238342 1.000000
-71.147900 5.899420 -1694.820000 0.018291 -0.777168 -0.629027 0.010000
-70.419900 6.032490 -1695.750000 0.446752 -0.893419 -0.047062 1.000000
-69.685400 6.193310 -1696.660000 0.573421 -0.810350 0.120505 1.000000
-68.946400 6.372650 -1697.560000 0.490415 -0.840711 0.229560 1.000000
-68.083800 6.744010 -1698.240000 -0.292650 0.942423 -0.161851 1.000000
-67.159300 7.211390 -1698.810000 -0.293822 0.922853 -0.249018 1.000000
-66.169700 7.600400 -1699.320000 -0.269498 0.905728 -0.327149 1.000000
-65.156600 7.960930 -1699.810000 0.214494 -0.918563 0.332016 1.000000
-64.091200 8.313150 -1700.180000 0.003395 -0.902421 0.430843 1.000000
