# .PCD v0.7 - Point Cloud Data file format
# 4 101 0
# 1 18 0
# 19 43 0
# 44 70 0
# 71 101 0
VERSION 0.7
FIELDS x y z normal_x normal_y normal_z curvature
SIZE 4 4 4 4 4 4 4
TYPE F F F F F F F
COUNT 1 1 1 1 1 1 1
WIDTH 101
HEIGHT 1
VIEWPOINT 0 0 0 1 0 0 0
POINTS 101
DATA ascii
-211.987000 204.677000 -1528.890000 -0.452751 0.876535 0.163414 0.010000
-213.927000 204.828000 -1529.490000 -0.406545 0.902957 0.139248 1.000000
-215.298000 204.615000 -1530.830000 -0.390617 0.920548 -0.003103 1.000000
-216.400000 204.234000 -1532.500000 -0.397423 0.899779 -0.180147 1.000000
-217.436000 203.833000 -1534.210000 -0.398355 0.877886 -0.265761 1.000000
-218.381000 203.336000 -1535.940000 -0.349218 0.920328 -0.176193 1.000000
-219.255000 202.767000 -1537.690000 -0.324038 0.933604 -0.152913 1.000000
-220.222000 202.308000 -1539.430000 -0.299353 0.941026 -0.157663 1.000000
-221.134000 201.584000 -1541.070000 -0.261887 0.949722 -0.171591 1.000000
-221.976000 200.518000 -1542.590000 -0.253227 0.933818 -0.252707 1.000000
-222.680000 199.540000 -1544.230000 -0.249739 0.902852 -0.349985 1.000000
-223.495000 198.527000 -1545.780000 -0.263984 0.857313 -0.441957 1.000000
-224.601000 197.408000 -1547.070000 -0.283449 0.808718 -0.515394 1.000000
-225.444000 196.331000 -1548.570000 -0.292698 0.756952 -0.584252 1.000000
-226.220000 195.291000 -1550.140000 -0.285826 0.732291 -0.618105 1.000000
-227.078000 194.353000 -1551.740000 -0.161910 0.907467 -0.387670 1.000000
-227.932000 193.410000 -1553.330000 -0.008977 0.999454 -0.031796 1.000000
-228.783000 192.455000 -1554.920000 0.007174 0.989761 0.142557 1.000000
-229.648000 191.383000 -1556.420000 -0.081657 0.972912 0.216273 1.000000
-230.382000 190.016000 -1557.680000 -0.418933 0.888172 0.188803 1.000000
-230.986000 188.355000 -1558.690000 -0.970720 0.239935 -0.011595 1.000000
-231.429000 186.593000 -1559.610000 0.782010 -0.589738 0.201667 1.000000
-231.888000 184.837000 -1560.540000 -0.659445 -0.208903 -0.722144 1.000000
-232.389000 183.102000 -1561.490000 -0.654254 -0.161066 -0.738924 1.000000
-232.883000 181.365000 -1562.430000 -0.656934 -0.079095 -0.749788 1.000000
-233.342000 179.613000 -1563.360000 -0.658732 0.060038 -0.749978 1.000000
-233.697000 177.814000 -1564.260000 0.725434 -0.422638 0.543252 1.000000
-233.865000 175.906000 -1564.920000 -0.622451 0.494522 -0.606632 1.000000
-234.011000 173.970000 -1565.510000 -0.736393 0.421053 -0.529565 1.000000
-234.596000 172.197000 -1566.320000 -0.845481 0.272849 -0.459037 1.000000
-234.872000 170.289000 -1566.860000 -0.912306 0.137377 -0.385779 1.000000
-234.905000 168.276000 -1567.180000 -0.944942 0.117844 -0.305283 1.000000
-235.147000 165.121000 -1567.640000 -0.919160 0.354174 -0.172355 1.000000
-235.037000 163.096000 -1567.850000 -0.941500 0.331473 -0.060858 1.000000
-235.035000 161.074000 -1568.080000 -0.980811 0.194853 -0.006467 1.000000
-235.170000 159.054000 -1568.320000 -0.999373 0.014553 0.032271 1.000000
-235.052000 157.024000 -1568.410000 -0.988162 -0.150911 0.027616 1.000000
-234.904000 154.995000 -1568.410000 -0.946098 -0.313262 -0.082256 1.000000
-234.765000 152.970000 -1568.220000 -0.845006 -0.486926 -0.221062 1.000000
-234.314000 151.210000 -1567.400000 -0.780949 -0.496462 -0.379004 1.000000
-233.730000 149.574000 -1566.340000 -0.633399 -0.496509 -0.593536 1.000000
-233.027000 148.098000 -1565.120000 -0.438718 -0.622797 -0.647804 1.000000
-232.318000 146.586000 -1563.960000 -0.260359 -0.731564 -0.630101 1.000000
-231.605000 145.054000 -1562.820000 -0.156437 -0.653650 -0.740452 1.000000
-230.871000 143.529000 -1561.680000 -0.087587 -0.579981 -0.809908 1.000000
-230.105000 142.109000 -1560.440000 -0.043904 -0.522082 -0.851765 1.000000
-229.307000 140.794000 -1559.110000 -0.012197 -0.495937 -0.868273 1.000000
-228.639000 139.180000 -1558.060000 0.075795 -0.610008 -0.788762 1.000000
-227.832000 137.968000 -1556.800000 0.214761 0.395940 0.892810 1.000000
-226.781000 137.459000 -1555.120000 0.387993 -0.921652 -0.004294 0.010000
-225.780000 138.036000 -1553.530000 0.387060 -0.838147 0.384310 1.000000
-224.778000 138.762000 -1551.920000 0.360444 -0.778662 0.513581 1.000000
-223.737000 139.185000 -1550.220000 0.444103 -0.024441 -0.895643 1.000000
-222.697000 140.070000 -1548.750000 0.469796 -0.050806 -0.881312 1.000000
-221.658000 141.128000 -1547.350000 0.563972 -0.055551 -0.823923 1.000000
-220.621000 141.925000 -1545.790000 0.621120 0.037264 -0.782829 1.000000
-219.559000 142.740000 -1544.250000 0.661105 0.140037 -0.737109 1.000000
-218.479000 143.568000 -1542.730000 0.684108 0.239797 -0.688835 1.000000
-217.381000 144.465000 -1541.270000 0.668888 0.278497 -0.689222 1.000000
-216.487000 145.636000 -1539.920000 0.659123 0.254658 -0.707606 1.000000
-215.857000 147.161000 -1538.730000 0.642712 0.236086 -0.728824 1.000000
-214.959000 148.310000 -1537.310000 0.635607 0.205970 -0.744030 1.000000
-213.996000 149.444000 -1535.930000 0.654020 0.172779 -0.736482 1.000000
-212.978000 150.664000 -1534.650000 0.708904 0.148566 -0.689480 1.000000
-211.899000 151.775000 -1533.330000 0.748653 0.123317 -0.651392 1.000000
-210.799000 152.849000 -1531.990000 0.776454 0.101012 -0.622026 1.000000
-209.694000 153.919000 -1530.650000 0.796182 0.081885 -0.599491 1.000000
-208.594000 154.883000 -1529.230000 0.809211 0.071389 -0.583165 1.000000
-207.494000 155.690000 -1527.760000 0.794753 0.071719 -0.602680 1.000000
-206.327000 155.113000 -1526.190000 0.783372 0.107941 -0.612108 1.000000
-205.093000 154.897000 -1524.630000 0.777407 0.131231 -0.615156 1.000000
-203.791000 155.041000 -1523.070000 0.768619 0.148503 -0.622232 1.000000
-202.809000 155.697000 -1521.410000 0.759488 0.158612 -0.630889 1.000000
-201.830000 156.520000 -1519.840000 0.747749 0.167309 -0.642557 1.000000
-200.820000 157.566000 -1518.410000 0.733935 0.169930 -0.657619 0.010000
-200.506000 159.391000 -1517.870000 0.731572 0.137777 -0.667697 1.000000
-200.338000 161.385000 -1517.490000 0.735978 0.095329 -0.670260 1.000000
-200.126000 163.352000 -1517.000000 0.739346 0.058690 -0.670763 1.000000
-199.762000 165.253000 -1516.370000 0.733912 0.055115 -0.677004 1.000000
-199.342000 167.134000 -1515.720000 0.712732 0.091303 -0.695469 1.000000
-199.017000 169.089000 -1515.240000 0.681656 0.081052 -0.727170 1.000000
-198.830000 171.087000 -1515.110000 0.650707 0.048181 -0.757799 1.000000
-198.752000 173.119000 -1515.250000 0.612830 -0.005310 -0.790197 1.000000
-199.227000 174.985000 -1515.910000 0.574480 -0.044972 -0.817283 1.000000
-199.714000 176.836000 -1516.610000 0.588562 0.014925 -0.808314 1.000000
-200.217000 178.665000 -1517.360000 0.674984 0.344621 -0.652405 1.000000
-200.655000 180.512000 -1518.100000 0.439981 -0.037971 0.897204 1.000000
-201.075000 182.362000 -1518.850000 -0.913383 0.327399 0.241953 1.000000
-201.473000 184.213000 -1519.600000 -0.436408 0.120382 0.891659 1.000000
-201.867000 186.060000 -1520.370000 -0.457353 0.124455 0.880534 1.000000
-202.247000 187.908000 -1521.140000 -0.498619 0.132843 0.856581 1.000000
-202.572000 189.763000 -1521.920000 -0.583056 0.151516 0.798178 1.000000
-202.842000 191.625000 -1522.700000 -0.858380 0.248285 0.448931 1.000000
-203.080000 193.486000 -1523.500000 -0.867951 0.257924 0.424424 1.000000
-203.323000 195.278000 -1524.440000 -0.874232 0.264704 0.407002 1.000000
-204.103000 196.934000 -1525.070000 -0.877618 0.268543 0.397077 1.000000
-205.421000 198.455000 -1525.400000 -0.837542 0.386877 0.385809 1.000000
-206.829000 199.879000 -1525.770000 -0.757286 0.534877 0.374733 1.000000
-208.278000 201.266000 -1526.130000 -0.674977 0.637016 0.372312 1.000000
-209.784000 202.598000 -1526.460000 -0.603133 0.704572 0.373910 1.000000
-210.813000 203.779000 -1527.670000 -0.510607 0.811218 0.284967 1.000000
