# .PCD v0.7 - Point Cloud Data file format
# 4 116 0
# 1 36 0
# 37 67 0
# 68 103 0
# 104 116 0
VERSION 0.7
FIELDS x y z normal_x normal_y normal_z curvature
SIZE 4 4 4 4 4 4 4
TYPE F F F F F F F
COUNT 1 1 1 1 1 1 1
WIDTH 116
HEIGHT 1
VIEWPOINT 0 0 0 1 0 0 0
POINTS 116
DATA ascii
-30.417600 145.023000 -1586.990000 -0.877951 0.077612 -0.472418 0.010000
-31.316800 144.507000 -1585.020000 -0.877611 0.081227 -0.472442 1.000000
-32.581000 143.340000 -1583.590000 -0.882122 0.073063 -0.465319 1.000000
-33.485200 143.644000 -1581.570000 -0.892493 0.080735 -0.443777 1.000000
-34.186100 144.467000 -1579.620000 -0.904848 0.091593 -0.415765 1.000000
-34.654900 145.878000 -1577.960000 -0.916343 0.106410 -0.385996 1.000000
-35.391800 146.080000 -1575.860000 -0.932845 0.112640 -0.342217 1.000000
-36.360900 145.797000 -1573.870000 -0.948791 0.118867 -0.292686 1.000000
-37.297600 145.629000 -1571.850000 -0.957151 0.096766 -0.272944 1.000000
-38.445100 145.367000 -1569.950000 -0.959594 0.075200 -0.271153 1.000000
-38.482800 146.607000 -1568.100000 -0.957243 0.031999 -0.287511 1.000000
-38.723800 147.330000 -1566.000000 -0.949629 0.021555 -0.312633 1.000000
-39.219500 147.954000 -1563.910000 -0.937407 0.028050 -0.347105 1.000000
-39.930100 149.160000 -1562.170000 -0.929947 0.012188 -0.367492 1.000000
-41.395000 149.265000 -1558.590000 -0.902683 0.064837 -0.425394 1.000000
-42.646500 149.818000 -1556.830000 -0.892745 0.071851 -0.444797 1.000000
-43.352200 150.749000 -1554.920000 -0.887201 0.064944 -0.456789 1.000000
-44.214900 151.830000 -1553.170000 -0.883726 0.052440 -0.465058 1.000000
-45.094400 152.918000 -1551.430000 -0.888587 0.047957 -0.456194 1.000000
-45.826100 153.951000 -1549.590000 -0.900927 0.056770 -0.430241 1.000000
-46.774100 154.541000 -1547.660000 -0.911485 0.066406 -0.405938 1.000000
-47.365100 155.157000 -1545.600000 -0.920345 0.074593 -0.383928 1.000000
-48.183400 154.866000 -1543.540000 -0.926779 0.077878 -0.367445 1.000000
-48.928700 154.990000 -1541.440000 -0.930415 0.082359 -0.357133 1.000000
-49.904400 155.141000 -1539.440000 -0.931111 0.089151 -0.353673 1.000000
-50.277200 156.475000 -1537.690000 -0.931633 0.108632 -0.346785 1.000000
-50.650600 158.019000 -1536.120000 -0.931697 0.131458 -0.338615 1.000000
-51.040500 159.939000 -1535.050000 -0.931528 0.157409 -0.327839 1.000000
-50.948400 161.948000 -1534.080000 -0.930988 0.184815 -0.314810 1.000000
-51.095200 163.411000 -1532.400000 -0.929197 0.211786 -0.302887 1.000000
-51.282700 164.882000 -1530.730000 -0.926570 0.238098 -0.291166 1.000000
-51.784500 166.023000 -1528.880000 -0.923935 0.259273 -0.281284 1.000000
-51.540700 167.529000 -1527.250000 -0.922136 0.279034 -0.267963 1.000000
-51.506500 169.098000 -1525.660000 -0.921030 0.295088 -0.254216 1.000000
-51.732100 169.864000 -1523.580000 -0.920449 0.307563 -0.241204 1.000000
-51.665200 171.092000 -1521.710000 -0.920953 0.318116 -0.225049 1.000000
-51.687000 172.717000 -1520.180000 -0.921250 0.328806 -0.207811 1.000000
-51.378000 174.337000 -1518.680000 -0.920578 0.341456 -0.189589 1.000000
-50.861200 176.107000 -1517.420000 -0.918377 0.356801 -0.171106 1.000000
-50.477600 177.859000 -1516.090000 -0.913428 0.377569 -0.151958 1.000000
-50.328200 179.139000 -1514.270000 -0.906089 0.401470 -0.133504 1.000000
-49.538000 180.930000 -1513.190000 -0.893699 0.436023 -0.105761 1.000000
-48.903900 182.626000 -1511.890000 -0.889524 0.449192 -0.083508 1.000000
-47.885900 184.563000 -1511.440000 -0.891432 0.445152 -0.084793 1.000000
-47.119700 186.251000 -1510.200000 -0.905019 0.417697 -0.080431 1.000000
-46.420200 188.212000 -1509.400000 -0.927364 0.361971 -0.094728 1.000000
-45.791900 190.323000 -1509.760000 -0.945255 0.286103 -0.156964 1.000000
-45.588600 192.546000 -1509.770000 -0.974310 0.087092 -0.207690 1.000000
-46.100900 194.697000 -1509.460000 -0.942583 -0.241579 -0.230602 1.000000
-46.422300 196.904000 -1509.560000 -0.828784 -0.501984 -0.247241 0.010000
-46.712300 198.257000 -1511.310000 -0.750459 -0.601043 -0.274879 1.000000
-46.539700 199.037000 -1513.400000 -0.715963 -0.632221 -0.296131 1.000000
-46.413100 199.826000 -1515.480000 -0.692598 -0.640390 -0.331978 1.000000
-46.341500 200.778000 -1517.500000 -0.661751 -0.660048 -0.355559 1.000000
-46.240100 201.528000 -1519.600000 -0.636142 -0.677135 -0.369880 1.000000
-45.061500 201.870000 -1521.470000 -0.653138 -0.651732 -0.385558 1.000000
-44.600200 202.658000 -1523.500000 -0.626686 -0.666961 -0.403024 1.000000
-44.348300 203.556000 -1525.530000 -0.583021 -0.687645 -0.432701 1.000000
-43.249300 204.069000 -1527.410000 -0.566297 -0.666426 -0.484958 1.000000
-42.516500 204.822000 -1529.380000 -0.537866 -0.671287 -0.509974 1.000000
-42.494400 205.753000 -1531.410000 -0.506913 -0.706426 -0.493965 1.000000
-41.335400 206.322000 -1533.230000 -0.543768 -0.697698 -0.466406 1.000000
-40.269400 206.840000 -1535.120000 -0.578578 -0.691288 -0.432861 1.000000
-39.879900 207.519000 -1537.210000 -0.578560 -0.697528 -0.422756 1.000000
-39.058900 208.104000 -1539.200000 -0.590804 -0.686174 -0.424401 1.000000
-38.234200 208.668000 -1541.200000 -0.590260 -0.681695 -0.432301 1.000000
-37.307100 209.224000 -1543.150000 -0.578919 -0.682313 -0.446432 1.000000
-36.416600 209.843000 -1545.100000 -0.548153 -0.697044 -0.462232 1.000000
-35.428700 210.546000 -1546.980000 -0.532030 -0.699519 -0.477093 1.000000
-34.682000 211.186000 -1548.980000 -0.535147 -0.679519 -0.501868 1.000000
-33.601600 211.760000 -1550.850000 -0.558824 -0.652619 -0.511669 1.000000
-32.207100 212.079000 -1552.560000 -0.604618 -0.609933 -0.512267 1.000000
-31.767900 213.100000 -1554.500000 -0.581285 -0.637566 -0.505586 1.000000
-30.603200 213.661000 -1556.320000 -0.596680 -0.626567 -0.501385 1.000000
-30.299400 214.644000 -1558.300000 -0.565208 -0.654881 -0.501669 1.000000
-29.167300 215.303000 -1560.110000 -0.561170 -0.651543 -0.510471 1.000000
-27.950400 215.784000 -1561.920000 -0.562604 -0.645698 -0.516286 1.000000
-26.946600 216.405000 -1563.810000 -0.582936 -0.639731 -0.500928 1.000000
-26.197800 217.157000 -1565.780000 -0.581508 -0.646461 -0.493899 1.000000
-25.667900 217.904000 -1567.810000 -0.558504 -0.659573 -0.503028 1.000000
-23.779600 217.651000 -1568.970000 -0.595578 -0.587016 -0.548361 0.010000
-22.432700 215.871000 -1568.970000 -0.712641 -0.413796 -0.566494 1.000000
-21.334700 213.957000 -1569.310000 -0.820615 -0.158246 -0.549136 1.000000
-20.905100 211.851000 -1569.910000 -0.863655 0.103646 -0.493314 1.000000
-21.128700 209.653000 -1570.230000 -0.855643 0.271032 -0.440927 1.000000
-21.554400 207.635000 -1571.090000 -0.824632 0.382176 -0.417041 1.000000
-21.440000 205.988000 -1572.590000 -0.787382 0.445196 -0.426415 1.000000
-21.852500 204.304000 -1574.000000 -0.763401 0.483929 -0.427822 1.000000
-22.426000 202.484000 -1575.160000 -0.753283 0.497328 -0.430383 1.000000
-22.682100 200.941000 -1576.750000 -0.758537 0.480081 -0.440617 1.000000
-23.289800 198.979000 -1577.620000 -0.780836 0.447596 -0.435836 1.000000
-23.620600 197.107000 -1578.790000 -0.795045 0.424118 -0.433622 1.000000
-23.537100 195.185000 -1579.930000 -0.804364 0.406378 -0.433423 1.000000
-24.026400 193.346000 -1581.090000 -0.816834 0.385724 -0.428952 1.000000
-24.982400 191.538000 -1581.990000 -0.834364 0.359663 -0.417708 1.000000
-25.807400 189.465000 -1582.070000 -0.858251 0.324803 -0.397377 1.000000
-26.629700 187.390000 -1582.090000 -0.868923 0.305876 -0.389118 1.000000
-27.140400 185.241000 -1581.760000 -0.875586 0.287718 -0.388029 1.000000
-27.823400 183.116000 -1581.700000 -0.881679 0.261014 -0.393081 1.000000
-28.488600 181.021000 -1581.310000 -0.887341 0.228861 -0.400310 1.000000
-28.877600 178.824000 -1581.230000 -0.892006 0.191068 -0.409656 1.000000
-29.038100 176.661000 -1581.760000 -0.894192 0.159671 -0.418242 1.000000
-29.715700 174.569000 -1581.380000 -0.896321 0.137354 -0.421594 1.000000
-29.770500 172.423000 -1581.990000 -0.896809 0.117248 -0.426600 1.000000
-30.277300 170.259000 -1581.790000 -0.898178 0.100665 -0.427952 1.000000
-30.376300 168.028000 -1581.770000 -0.897964 0.085946 -0.431594 1.000000
-30.364300 165.834000 -1582.180000 -0.894339 0.077186 -0.440682 1.000000
-30.683800 163.627000 -1582.290000 -0.890737 0.074499 -0.448372 1.000000
-30.883500 161.452000 -1581.830000 -0.888547 0.079685 -0.451812 1.000000
-30.268100 159.967000 -1583.380000 -0.884701 0.087611 -0.457851 1.000000
-30.380700 157.860000 -1584.110000 -0.883777 0.107404 -0.455415 1.000000
-30.219000 155.734000 -1584.770000 -0.880740 0.124519 -0.456937 1.000000
-30.306200 153.504000 -1584.790000 -0.881294 0.126494 -0.455324 0.610105
-30.091300 151.540000 -1585.830000 -0.881301 0.121969 -0.456544 1.000000
-30.291700 149.317000 -1585.870000 -0.881120 0.112480 -0.459320 1.000000
-30.328900 147.110000 -1586.200000 -0.879876 0.098073 -0.464973 1.000000
