# .PCD v0.7 - Point Cloud Data file format
# 5 171 0
# 1 41 0
# 42 82 0
# 83 134 0
# 135 150 0
# 151 171 0
VERSION 0.7
FIELDS x y z normal_x normal_y normal_z curvature
SIZE 4 4 4 4 4 4 4
TYPE F F F F F F F
COUNT 1 1 1 1 1 1 1
WIDTH 171
HEIGHT 1
VIEWPOINT 0 0 0 1 0 0 0
POINTS 171
DATA ascii
-18.699200 -132.749000 -1537.840000 -0.782871 0.479105 -0.396953 0.010000
-17.414600 -131.023000 -1538.540000 -0.773352 0.507951 -0.379358 1.000000
-16.077300 -130.537000 -1540.300000 -0.779514 0.518172 -0.351931 1.000000
-14.670300 -129.007000 -1541.190000 -0.775828 0.536501 -0.332051 1.000000
-13.286900 -127.946000 -1542.630000 -0.779504 0.543845 -0.310816 1.000000
-11.967700 -126.244000 -1543.320000 -0.780100 0.553639 -0.291425 1.000000
-10.565500 -125.011000 -1544.590000 -0.788477 0.551576 -0.272154 1.000000
-9.096000 -123.857000 -1545.870000 -0.800549 0.542324 -0.254962 1.000000
-7.880510 -122.258000 -1546.910000 -0.816209 0.527595 -0.235470 1.000000
-6.636450 -120.713000 -1547.990000 -0.824686 0.512770 -0.238663 1.000000
-5.369230 -119.442000 -1549.370000 -0.828513 0.496402 -0.259134 1.000000
-4.122440 -117.903000 -1550.460000 -0.833057 0.477126 -0.279941 1.000000
-2.885670 -116.310000 -1551.480000 -0.835596 0.460272 -0.299881 1.000000
-1.638450 -114.810000 -1552.630000 -0.835242 0.449238 -0.317105 1.000000
-0.368449 -113.477000 -1553.940000 -0.832521 0.444785 -0.330265 1.000000
0.523789 -111.481000 -1554.520000 -0.832696 0.426305 -0.353385 1.000000
1.811890 -110.612000 -1556.160000 -0.826793 0.434798 -0.356881 1.000000
2.598080 -108.685000 -1557.050000 -0.831117 0.416728 -0.368216 1.000000
3.473420 -106.742000 -1557.800000 -0.836945 0.393433 -0.380439 1.000000
4.868700 -105.761000 -1559.290000 -0.841007 0.388569 -0.376459 1.000000
5.946270 -104.199000 -1560.520000 -0.846737 0.371659 -0.380666 1.000000
7.599290 -103.847000 -1562.020000 -0.849344 0.372963 -0.373515 1.000000
10.633000 -101.451000 -1564.140000 -0.860259 0.341213 -0.378850 1.000000
11.162800 -99.509400 -1565.170000 -0.866460 0.319233 -0.383847 1.000000
12.262400 -98.380700 -1566.790000 -0.864883 0.315944 -0.390072 1.000000
13.442000 -97.295300 -1568.390000 -0.861635 0.316307 -0.396907 1.000000
14.111000 -95.301900 -1569.220000 -0.859025 0.309601 -0.407704 1.000000
15.546000 -94.044700 -1570.430000 -0.854994 0.312260 -0.414100 1.000000
16.711700 -92.752800 -1571.880000 -0.850669 0.317223 -0.419204 1.000000
17.942800 -91.222000 -1573.000000 -0.845949 0.320600 -0.426128 1.000000
19.199800 -90.219500 -1574.590000 -0.841559 0.329039 -0.428383 1.000000
20.341000 -88.735000 -1575.860000 -0.836611 0.333499 -0.434581 1.000000
21.211100 -86.761200 -1576.540000 -0.837246 0.332133 -0.434404 1.000000
22.386100 -85.664700 -1578.130000 -0.840299 0.333505 -0.427401 1.000000
23.555000 -84.212000 -1579.410000 -0.842608 0.334170 -0.422305 1.000000
24.810200 -83.113400 -1580.930000 -0.845348 0.336194 -0.415163 1.000000
25.902600 -81.692100 -1582.310000 -0.847432 0.337609 -0.409730 1.000000
26.974600 -80.162100 -1583.590000 -0.849042 0.338917 -0.405294 1.000000
28.352600 -78.770000 -1584.720000 -0.850368 0.340834 -0.400881 1.000000
29.649500 -77.760100 -1586.270000 -0.852349 0.345630 -0.392480 1.000000
30.877500 -76.620100 -1587.790000 -0.849380 0.353729 -0.391701 1.000000
32.179500 -75.420100 -1589.200000 -0.845944 0.360368 -0.393082 1.000000
33.338800 -73.775600 -1590.230000 -0.842599 0.362780 -0.398017 1.000000
34.309200 -72.359200 -1591.700000 -0.839799 0.366566 -0.400459 1.000000
35.400100 -70.717400 -1592.810000 -0.837227 0.367721 -0.404761 1.000000
36.638100 -70.019100 -1594.570000 -0.835040 0.373032 -0.404420 1.000000
37.918200 -68.945500 -1596.090000 -0.832822 0.375833 -0.406396 1.000000
39.198200 -67.755000 -1597.530000 -0.830766 0.377489 -0.409059 0.598285
40.458600 -66.323700 -1598.740000 -0.831378 0.376776 -0.408472 0.725395
41.859600 -65.136500 -1600.060000 -0.832363 0.377011 -0.406244 0.981503
42.722000 -63.519500 -1601.390000 -0.833169 0.377128 -0.404479 1.000000
43.880200 -62.470500 -1603.020000 -0.834385 0.378005 -0.401141 1.000000
45.166200 -61.135400 -1604.320000 -0.835527 0.378181 -0.398591 1.000000
46.631000 -59.974900 -1605.590000 -0.836954 0.377904 -0.395849 1.000000
47.447100 -57.918700 -1606.060000 -0.838304 0.375628 -0.395157 1.000000
48.820800 -57.012200 -1607.610000 -0.840771 0.373322 -0.392090 1.000000
50.151500 -55.906300 -1609.060000 -0.856340 0.360826 -0.369441 1.000000
51.413100 -54.497600 -1610.300000 -0.871061 0.346936 -0.347690 1.000000
52.313400 -52.814400 -1611.520000 -0.884992 0.331495 -0.326957 1.000000
53.177400 -51.664500 -1613.260000 -0.899800 0.312559 -0.304413 1.000000
53.968400 -50.121000 -1614.710000 -0.918302 0.279556 -0.280304 1.000000
54.936900 -49.621300 -1616.690000 -0.940325 0.216505 -0.262517 1.000000
55.839200 -49.528500 -1618.770000 -0.948900 0.179309 -0.259688 0.010000
56.111200 -50.818900 -1620.600000 -0.934610 0.230495 -0.270880 1.000000
55.795600 -52.635900 -1621.910000 -0.923206 0.262242 -0.280926 1.000000
55.879000 -54.133500 -1623.600000 -0.917409 0.271025 -0.291386 1.000000
55.830400 -55.852500 -1625.070000 -0.910241 0.277703 -0.307151 1.000000
55.698500 -57.471000 -1626.650000 -0.901512 0.291731 -0.319639 1.000000
55.559900 -59.411200 -1627.800000 -0.890696 0.315155 -0.327625 1.000000
55.145200 -61.392400 -1628.810000 -0.879251 0.339167 -0.334489 1.000000
54.676500 -63.431000 -1629.670000 -0.867641 0.362657 -0.340115 1.000000
54.328600 -65.271900 -1630.930000 -0.856199 0.381935 -0.347920 1.000000
54.020900 -66.875100 -1632.500000 -0.844997 0.407800 -0.345947 1.000000
53.476000 -68.823000 -1633.510000 -0.837463 0.433127 -0.333252 1.000000
53.012800 -70.598200 -1634.830000 -0.834604 0.451876 -0.315032 1.000000
52.387200 -72.736200 -1635.220000 -0.836458 0.459192 -0.299133 1.000000
51.730300 -74.229400 -1636.790000 -0.841893 0.465918 -0.272281 1.000000
50.979200 -76.266100 -1637.420000 -0.854104 0.446707 -0.266382 1.000000
50.322400 -77.961100 -1638.770000 -0.867347 0.418030 -0.270111 1.000000
49.765700 -80.113600 -1639.180000 -0.873765 0.396025 -0.282310 1.000000
49.344000 -82.151300 -1640.070000 -0.877448 0.379183 -0.293778 1.000000
48.893600 -84.103600 -1641.110000 -0.878040 0.367142 -0.307007 1.000000
48.328100 -86.113400 -1641.980000 -0.874575 0.362892 -0.321601 1.000000
47.335200 -87.964700 -1642.820000 -0.868655 0.369406 -0.330117 1.000000
47.619600 -89.854300 -1644.030000 -0.866500 0.369778 -0.335324 1.000000
47.375700 -91.626500 -1645.410000 -0.864710 0.369749 -0.339944 1.000000
47.174800 -93.249200 -1646.980000 -0.864304 0.368112 -0.342744 1.000000
47.019400 -94.881600 -1648.530000 -0.864444 0.366030 -0.344613 1.000000
46.434400 -96.696100 -1649.750000 -0.860223 0.383925 -0.335586 1.000000
46.018400 -98.731800 -1650.640000 -0.853837 0.405360 -0.326566 1.000000
46.052900 -100.160000 -1652.390000 -0.848555 0.423394 -0.317320 1.000000
45.702400 -101.759000 -1653.950000 -0.840550 0.444596 -0.309531 1.000000
44.772300 -103.802000 -1654.230000 -0.830262 0.469021 -0.301139 1.000000
44.148900 -105.753000 -1655.190000 -0.822481 0.482838 -0.300652 1.000000
43.860500 -107.366000 -1656.750000 -0.816512 0.490580 -0.304369 1.000000
43.117900 -109.030000 -1658.090000 -0.810242 0.499340 -0.306866 1.000000
41.909700 -110.349000 -1659.470000 -0.804406 0.507537 -0.308767 1.000000
41.034800 -112.426000 -1659.280000 -0.801297 0.515410 -0.303769 1.000000
40.235900 -114.517000 -1659.610000 -0.799859 0.516375 -0.305912 1.000000
39.891300 -116.300000 -1660.950000 -0.796421 0.513343 -0.319675 1.000000
39.656100 -118.123000 -1662.270000 -0.791397 0.509708 -0.337473 1.000000
38.258100 -119.807000 -1662.840000 -0.787891 0.509641 -0.345679 1.000000
36.846300 -121.193000 -1661.750000 -0.789696 0.517316 -0.329796 1.000000
35.737000 -123.091000 -1662.280000 -0.781362 0.523857 -0.339186 0.010000
34.419900 -124.617000 -1661.250000 -0.777035 0.541229 -0.321385 1.000000
32.801300 -125.970000 -1660.440000 -0.768015 0.564588 -0.302314 1.000000
31.847900 -126.069000 -1658.390000 -0.774386 0.571291 -0.271943 1.000000
30.540700 -127.255000 -1656.980000 -0.769362 0.586704 -0.252705 1.000000
29.492500 -128.533000 -1655.430000 -0.765009 0.599312 -0.235768 1.000000
28.452600 -129.453000 -1653.650000 -0.763638 0.606353 -0.221794 1.000000
27.468200 -130.299000 -1651.800000 -0.763085 0.610797 -0.211254 1.000000
26.778700 -130.150000 -1649.650000 -0.769817 0.602858 -0.209628 1.000000
26.053000 -130.172000 -1647.500000 -0.775704 0.594865 -0.210760 1.000000
24.940900 -130.865000 -1645.660000 -0.777491 0.593930 -0.206771 1.000000
23.518100 -131.832000 -1644.190000 -0.775719 0.598836 -0.199135 1.000000
22.295400 -131.993000 -1642.300000 -0.780597 0.591757 -0.201228 1.000000
21.361600 -132.098000 -1640.240000 -0.787794 0.579585 -0.208476 1.000000
20.598300 -132.830000 -1638.240000 -0.792340 0.571884 -0.212476 1.000000
19.732200 -134.080000 -1636.570000 -0.792308 0.573323 -0.208685 1.000000
18.562400 -134.932000 -1634.830000 -0.794153 0.570902 -0.208307 1.000000
17.598200 -135.774000 -1632.970000 -0.796497 0.566193 -0.212174 1.000000
16.674400 -136.393000 -1631.000000 -0.793675 0.562966 -0.230542 1.000000
15.691900 -137.231000 -1629.140000 -0.788496 0.563739 -0.245910 1.000000
14.478800 -138.136000 -1627.460000 -0.780963 0.569146 -0.257235 1.000000
13.465900 -138.660000 -1625.510000 -0.778377 0.562917 -0.277947 1.000000
12.690200 -138.587000 -1623.390000 -0.783259 0.538609 -0.310492 1.000000
11.078000 -138.643000 -1621.800000 -0.781131 0.530806 -0.328753 1.000000
10.737400 -138.588000 -1619.570000 -0.784622 0.515025 -0.345135 1.000000
9.950980 -138.868000 -1617.460000 -0.780713 0.521162 -0.344786 1.000000
9.154910 -138.851000 -1615.350000 -0.784374 0.521313 -0.336139 1.000000
8.161740 -139.111000 -1613.330000 -0.788565 0.522755 -0.323871 1.000000
7.213290 -139.218000 -1611.280000 -0.792884 0.522938 -0.312843 1.000000
6.835860 -138.512000 -1609.170000 -0.800220 0.516083 -0.305462 1.000000
5.962190 -138.707000 -1607.090000 -0.802779 0.517134 -0.296847 1.000000
5.173770 -138.788000 -1604.970000 -0.805198 0.517043 -0.290383 1.000000
4.598450 -138.678000 -1602.790000 -0.807670 0.515248 -0.286685 1.000000
3.324120 -139.548000 -1601.140000 -0.805902 0.519649 -0.283701 0.377336
2.801410 -138.999000 -1599.000000 -0.808220 0.513964 -0.287439 1.000000
1.738130 -139.654000 -1597.120000 -0.807479 0.512801 -0.291569 1.000000
0.708102 -140.333000 -1595.220000 -0.806926 0.511305 -0.295698 1.000000
-0.514802 -141.461000 -1593.690000 -0.804534 0.515041 -0.295733 1.000000
-1.777370 -142.286000 -1592.010000 -0.802906 0.516690 -0.297276 1.000000
-2.728750 -142.503000 -1589.970000 -0.803899 0.511958 -0.302730 1.000000
-4.069940 -143.372000 -1588.370000 -0.801747 0.515513 -0.302405 0.693472
-4.965600 -143.702000 -1586.320000 -0.802544 0.512467 -0.305452 0.474175
-6.013080 -144.539000 -1584.500000 -0.801014 0.515477 -0.304401 1.000000
-7.301410 -145.343000 -1582.820000 -0.797999 0.520753 -0.303339 1.000000
-8.568780 -146.142000 -1581.130000 -0.794967 0.525386 -0.303311 1.000000
-9.524000 -146.881000 -1579.210000 -0.792851 0.527563 -0.305065 1.000000
-10.807100 -147.915000 -1577.670000 -0.789236 0.532562 -0.305753 1.000000
-11.940300 -148.746000 -1575.890000 -0.786682 0.534713 -0.308568 1.000000
-13.155900 -149.379000 -1574.100000 -0.784468 0.535470 -0.312860 1.000000
-14.506100 -149.959000 -1572.380000 -0.782188 0.535770 -0.318013 1.000000
-15.555300 -150.372000 -1570.420000 -0.782213 0.532476 -0.323439 1.000000
-16.680700 -150.917000 -1568.530000 -0.786580 0.526512 -0.322609 1.000000
-18.092700 -151.761000 -1566.980000 -0.789549 0.524164 -0.319163 0.010000
-18.323500 -150.845000 -1564.930000 -0.793662 0.516622 -0.321251 1.000000
-18.359600 -149.678000 -1562.990000 -0.798404 0.508772 -0.322028 1.000000
-18.774400 -148.920000 -1560.900000 -0.804526 0.500240 -0.320153 1.000000
-18.263400 -147.284000 -1559.420000 -0.810438 0.488013 -0.324088 1.000000
-17.984100 -145.910000 -1557.650000 -0.816704 0.476770 -0.325093 1.000000
-17.912000 -144.605000 -1555.800000 -0.823089 0.466263 -0.324227 1.000000
-18.382100 -144.161000 -1553.640000 -0.829707 0.458864 -0.317853 1.000000
-18.462800 -143.141000 -1551.620000 -0.835575 0.451134 -0.313515 1.000000
-18.553500 -141.779000 -1549.820000 -0.838388 0.449902 -0.307723 1.000000
-18.634300 -140.374000 -1548.050000 -0.839525 0.448112 -0.307235 1.000000
-18.949700 -139.356000 -1546.050000 -0.840008 0.443569 -0.312464 1.000000
-19.062600 -138.215000 -1544.100000 -0.837701 0.437391 -0.327026 1.000000
-19.055200 -137.208000 -1542.080000 -0.832373 0.427950 -0.352157 1.000000
-19.749600 -136.353000 -1540.100000 -0.822529 0.427998 -0.374517 1.000000
-18.783400 -134.469000 -1539.310000 -0.803870 0.457833 -0.379713 1.000000
