# .PCD v0.7 - Point Cloud Data file format
# 4 94 0
# 1 12 0
# 13 22 0
# 23 69 0
# 70 94 0
VERSION 0.7
FIELDS x y z normal_x normal_y normal_z curvature
SIZE 4 4 4 4 4 4 4
TYPE F F F F F F F
COUNT 1 1 1 1 1 1 1
WIDTH 94
HEIGHT 1
VIEWPOINT 0 0 0 1 0 0 0
POINTS 94
DATA ascii
172.822000 186.305000 -1602.210000 0.392032 -0.661319 0.639507 0.010000
171.147000 184.624000 -1602.600000 0.395838 -0.647572 0.651124 1.000000
170.691000 182.938000 -1604.250000 0.397534 -0.642656 0.654950 1.000000
170.082000 181.201000 -1605.800000 0.333634 -0.664213 0.668962 1.000000
169.287000 179.471000 -1607.270000 0.222512 -0.699101 0.679519 1.000000
168.076000 177.840000 -1608.560000 0.123869 -0.727535 0.674796 1.000000
168.411000 176.173000 -1610.260000 0.098314 -0.732053 0.674116 1.000000
168.978000 174.699000 -1612.070000 0.078362 -0.732098 0.676677 1.000000
169.171000 172.995000 -1613.760000 0.030505 -0.739646 0.672304 1.000000
169.917000 171.526000 -1615.510000 0.014405 -0.735480 0.677393 1.000000
170.804000 170.208000 -1617.310000 0.018677 -0.726032 0.687408 1.000000
171.403000 168.492000 -1618.890000 -0.003102 -0.724624 0.689138 1.000000
172.284000 166.943000 -1620.500000 0.012600 -0.715384 0.698617 1.000000
172.568000 165.036000 -1621.940000 -0.069774 -0.729337 0.680587 1.000000
173.652000 163.494000 -1623.430000 -0.038123 -0.716457 0.696589 1.000000
174.621000 161.679000 -1624.680000 -0.028095 -0.706851 0.706805 1.000000
175.149000 159.668000 -1625.890000 -0.095419 -0.719877 0.687511 1.000000
174.614000 159.579000 -1628.230000 -0.288305 -0.742826 0.604227 1.000000
173.701000 158.258000 -1630.020000 -0.409828 -0.734832 0.540428 1.000000
173.728000 156.709000 -1631.860000 -0.452342 -0.719741 0.526649 1.000000
174.662000 155.482000 -1633.700000 -0.460719 -0.707751 0.535561 1.000000
175.198000 153.702000 -1635.230000 -0.469361 -0.692899 0.547349 1.000000
175.685000 151.839000 -1636.670000 -0.482103 -0.670588 0.563816 1.000000
176.825000 150.123000 -1637.910000 -0.472351 -0.650412 0.594851 1.000000
177.291000 148.262000 -1639.360000 -0.495944 -0.625340 0.602485 1.000000
177.951000 146.406000 -1640.740000 -0.514237 -0.600957 0.611891 1.000000
178.095000 144.550000 -1642.750000 -0.555078 -0.578418 0.597763 1.000000
178.882000 142.586000 -1643.890000 -0.555186 -0.563854 0.611422 1.000000
179.596000 140.612000 -1645.070000 -0.549872 -0.548278 0.630104 1.000000
180.828000 138.697000 -1645.840000 -0.521328 -0.539258 0.661376 1.000000
181.410000 136.502000 -1646.630000 -0.495244 -0.522634 0.693965 1.000000
181.988000 134.462000 -1647.770000 -0.462715 -0.492452 0.737147 1.000000
182.239000 132.327000 -1648.840000 -0.426816 -0.444332 0.787653 1.000000
182.476000 130.232000 -1650.000000 -0.378688 -0.377466 0.845053 1.000000
183.665000 128.186000 -1650.430000 -0.323108 -0.332413 0.886060 1.000000
184.101000 125.895000 -1651.010000 -0.247999 -0.254926 0.934617 1.000000
184.089000 123.573000 -1651.640000 -0.161517 -0.195012 0.967410 1.000000
185.701000 121.845000 -1651.190000 -0.137887 -0.210705 0.967776 0.010000
187.993000 122.474000 -1650.830000 -0.199730 -0.299182 0.933058 1.000000
190.332000 122.952000 -1650.550000 -0.197282 -0.364276 0.910155 1.000000
192.698000 122.664000 -1650.220000 0.151879 -0.298722 0.942177 1.000000
194.915000 123.324000 -1650.880000 0.415337 -0.220388 0.882567 1.000000
197.083000 123.708000 -1651.850000 0.417614 -0.243363 0.875428 1.000000
198.996000 123.021000 -1653.140000 0.428140 -0.251045 0.868143 1.000000
201.163000 123.668000 -1653.950000 0.437766 -0.270619 0.857395 1.000000
203.318000 123.289000 -1654.950000 0.448998 -0.281252 0.848114 1.000000
205.496000 123.355000 -1655.970000 0.437071 -0.293666 0.850135 1.000000
207.588000 123.663000 -1657.110000 0.393404 -0.307664 0.866358 0.010000
208.881000 125.688000 -1657.010000 0.355658 -0.307970 0.882418 1.000000
208.745000 127.937000 -1656.180000 0.361797 -0.301594 0.882125 1.000000
209.099000 130.047000 -1655.080000 0.360124 -0.302021 0.882663 1.000000
208.141000 132.168000 -1654.470000 0.371187 -0.307802 0.876058 1.000000
208.025000 134.433000 -1653.670000 0.361307 -0.327512 0.873037 1.000000
208.394000 136.704000 -1652.970000 0.342384 -0.358325 0.868548 1.000000
208.276000 138.806000 -1651.810000 0.334107 -0.378871 0.863035 1.000000
207.516000 140.808000 -1650.710000 0.339539 -0.390768 0.855578 1.000000
207.315000 142.949000 -1649.640000 0.341792 -0.401206 0.849831 1.000000
207.671000 145.139000 -1648.710000 0.341732 -0.405970 0.847590 1.000000
208.550000 147.210000 -1647.860000 0.319048 -0.414639 0.852222 1.000000
208.301000 149.327000 -1646.750000 0.320578 -0.430174 0.843907 1.000000
208.433000 151.440000 -1645.610000 0.304745 -0.454372 0.837064 1.000000
208.638000 153.554000 -1644.480000 0.282639 -0.482736 0.828904 1.000000
209.366000 155.628000 -1643.500000 0.244517 -0.514844 0.821673 1.000000
210.255000 157.667000 -1642.590000 0.169080 -0.554407 0.814890 1.000000
210.541000 159.700000 -1641.340000 0.133739 -0.569975 0.810705 1.000000
211.404000 161.469000 -1639.960000 0.089025 -0.584456 0.806527 1.000000
211.650000 163.403000 -1638.550000 0.065830 -0.591013 0.803972 1.000000
211.750000 165.347000 -1637.140000 0.049477 -0.594430 0.802624 1.000000
210.141000 166.913000 -1636.280000 0.081496 -0.588005 0.804741 1.000000
209.033000 168.515000 -1634.870000 0.109337 -0.598935 0.793298 1.000000
207.616000 169.628000 -1633.270000 0.153729 -0.604919 0.781307 1.000000
206.156000 170.947000 -1631.890000 0.200842 -0.607688 0.768361 1.000000
205.309000 172.467000 -1630.230000 0.216911 -0.619795 0.754191 1.000000
204.352000 174.013000 -1628.660000 0.229238 -0.631269 0.740911 1.000000
203.096000 175.584000 -1627.340000 0.246783 -0.637190 0.730128 1.000000
202.248000 177.126000 -1625.700000 0.250638 -0.651277 0.716253 1.000000
200.774000 178.360000 -1624.250000 0.288373 -0.650054 0.703044 1.000000
200.503000 180.015000 -1622.530000 0.274221 -0.674000 0.685949 1.000000
199.364000 181.144000 -1620.740000 0.294821 -0.679569 0.671763 1.000000
198.478000 182.429000 -1618.910000 0.296757 -0.692181 0.657891 1.000000
198.275000 184.135000 -1617.230000 0.276006 -0.718167 0.638793 1.000000
197.998000 185.544000 -1615.300000 0.259904 -0.742046 0.617914 1.000000
197.003000 186.528000 -1613.340000 0.250654 -0.758446 0.601608 1.000000
194.927000 186.936000 -1612.200000 0.247963 -0.761126 0.599335 1.000000
193.122000 187.295000 -1610.650000 0.261224 -0.766520 0.586694 1.000000
191.480000 187.739000 -1608.950000 0.285255 -0.772709 0.567054 1.000000
189.425000 188.147000 -1607.770000 0.314566 -0.767783 0.558174 1.000000
188.365000 188.872000 -1605.740000 0.315152 -0.781971 0.537774 1.000000
186.320000 189.217000 -1604.520000 0.339241 -0.767901 0.543363 1.000000
183.987000 189.126000 -1603.940000 0.352571 -0.736239 0.577621 1.000000
181.901000 188.868000 -1602.780000 0.242293 -0.741443 0.625745 1.000000
179.586000 188.605000 -1602.180000 0.157980 -0.746769 0.646048 1.000000
177.223000 188.159000 -1602.120000 0.191749 -0.748552 0.634746 1.000000
175.025000 187.240000 -1602.440000 0.314374 -0.709724 0.630445 1.000000
