# .PCD v0.7 - Point Cloud Data file format
# 3 34 0
# 1 5 0
# 6 24 0
# 25 34 0
VERSION 0.7
FIELDS x y z normal_x normal_y normal_z curvature
SIZE 4 4 4 4 4 4 4
TYPE F F F F F F F
COUNT 1 1 1 1 1 1 1
WIDTH 34
HEIGHT 1
VIEWPOINT 0 0 0 1 0 0 0
POINTS 34
DATA ascii
-228.340000 -167.659000 -1521.010000 -0.849291 0.285923 -0.443794 0.010000
-232.445000 -137.711000 -1510.820000 -0.443767 0.149058 -0.883658 1.000000
-231.993000 -139.661000 -1511.380000 -0.421317 0.174784 -0.889912 1.000000
-232.522000 -140.966000 -1512.060000 -0.000993 0.316258 -0.948673 1.000000
-234.357000 -141.411000 -1512.930000 0.490727 0.504629 -0.710307 1.000000
-235.624000 -140.445000 -1514.100000 0.405436 0.608809 -0.681890 0.010000
-235.892000 -139.421000 -1514.970000 0.980430 0.155808 0.120339 1.000000
-233.898000 -138.838000 -1514.960000 -0.911584 -0.053463 -0.407624 1.000000
-231.893000 -138.648000 -1515.330000 -0.924205 -0.048400 -0.378817 1.000000
-230.058000 -138.674000 -1516.060000 -0.931309 -0.057857 -0.359606 1.000000
-229.263000 -139.053000 -1517.940000 -0.921434 -0.107490 -0.373371 1.000000
-228.475000 -139.444000 -1519.820000 -0.932347 -0.076091 -0.353468 1.000000
-227.695000 -139.846000 -1521.700000 -0.941687 -0.153138 -0.299623 1.000000
-227.206000 -139.919000 -1523.720000 -0.959164 -0.232246 -0.161453 1.000000
-226.635000 -140.576000 -1525.450000 -0.938227 -0.269384 -0.217169 1.000000
-225.955000 -142.010000 -1526.790000 -0.945358 -0.226254 -0.234751 1.000000
-225.334000 -143.120000 -1528.420000 -0.968689 -0.161821 -0.188297 1.000000
-224.756000 -144.369000 -1529.920000 -0.968608 -0.110594 -0.222636 1.000000
-224.263000 -146.098000 -1530.960000 -0.967999 -0.093040 -0.233069 1.000000
-223.792000 -147.621000 -1532.270000 -0.970853 -0.075733 -0.227395 1.000000
-223.350000 -149.133000 -1533.590000 -0.965529 -0.092897 -0.243156 1.000000
-223.033000 -151.071000 -1534.270000 -0.962083 -0.100094 -0.253725 1.000000
-222.686000 -152.915000 -1535.140000 -0.960778 -0.068754 -0.268659 1.000000
-222.315000 -154.686000 -1536.160000 -0.961162 -0.039226 -0.273184 1.000000
-222.241000 -156.754000 -1536.350000 -0.966852 0.025301 -0.254080 0.010000
-222.425000 -158.527000 -1535.830000 -0.949198 0.018497 -0.314135 1.000000
-222.953000 -159.910000 -1534.370000 -0.917821 -0.041283 -0.394843 1.000000
-223.595000 -160.592000 -1532.550000 -0.966607 -0.129070 -0.221386 1.000000
-224.245000 -161.349000 -1530.760000 -0.957693 -0.222664 -0.182335 1.000000
-224.866000 -162.587000 -1529.210000 -0.900238 -0.334309 -0.278943 1.000000
-225.538000 -163.761000 -1527.630000 -0.001081 0.122521 -0.992465 1.000000
-226.232000 -164.927000 -1526.060000 -0.811539 -0.573660 -0.110989 1.000000
-226.924000 -166.205000 -1524.580000 -0.951244 0.017399 -0.307947 1.000000
-227.628000 -167.083000 -1522.880000 -0.891852 0.259526 -0.370468 1.000000
