# .PCD v0.7 - Point Cloud Data file format
# 7 194 0
# 1 9 0
# 10 40 0
# 41 79 0
# 80 139 0
# 140 173 0
# 174 189 0
# 190 194 0
VERSION 0.7
FIELDS x y z normal_x normal_y normal_z curvature
SIZE 4 4 4 4 4 4 4
TYPE F F F F F F F
COUNT 1 1 1 1 1 1 1
WIDTH 194
HEIGHT 1
VIEWPOINT 0 0 0 1 0 0 0
POINTS 194
DATA ascii
-25.641900 189.114000 -1581.580000 0.128817 -0.492273 -0.860856 0.010000
-26.376200 187.254000 -1581.470000 0.172945 -0.499196 -0.849054 1.000000
-27.086700 185.377000 -1581.310000 0.225362 -0.455609 -0.861181 1.000000
-27.689400 183.452000 -1581.320000 -0.513343 0.462531 0.722872 1.000000
-28.336300 181.563000 -1581.100000 -0.742446 -0.583143 0.329724 1.000000
-29.010000 179.695000 -1580.750000 0.432002 0.259712 -0.863669 1.000000
-64.006700 180.521000 -1523.270000 -0.749115 -0.429293 0.504514 1.000000
-64.286200 182.442000 -1522.730000 -0.771852 -0.367469 0.518855 1.000000
-64.625900 184.337000 -1522.130000 -0.778412 -0.249297 0.576131 1.000000
-65.064300 186.188000 -1521.460000 -0.738565 -0.014686 0.674023 1.000000
-65.238700 188.162000 -1521.330000 -0.637824 0.303291 0.707952 1.000000
-65.253000 190.084000 -1521.560000 -0.462430 0.565764 0.682693 1.000000
-64.785200 191.409000 -1523.010000 -0.636645 0.682397 0.359190 1.000000
-64.312300 192.465000 -1524.630000 -0.286983 0.839335 0.461690 1.000000
-63.834400 193.265000 -1526.420000 -0.731536 0.648296 -0.211109 0.010000
-62.998600 194.063000 -1528.060000 -0.470372 0.881072 -0.049628 1.000000
-62.053400 194.980000 -1529.560000 -0.483258 0.858504 -0.171560 1.000000
-60.930200 196.224000 -1530.680000 -0.372447 0.910838 -0.177927 1.000000
-59.986000 197.086000 -1532.180000 -0.950086 0.006038 -0.311930 1.000000
-59.137400 197.729000 -1533.890000 -0.953228 0.011079 -0.302048 1.000000
-58.211500 197.912000 -1535.680000 -0.958240 0.039754 -0.283190 1.000000
-57.351900 198.380000 -1537.400000 -0.963283 0.071822 -0.258704 1.000000
-56.590300 199.271000 -1539.040000 -0.503190 0.583534 0.637408 1.000000
-55.824400 199.814000 -1540.820000 -0.432525 0.748617 0.502489 1.000000
-55.106900 200.355000 -1542.600000 -0.962248 0.073579 -0.262039 1.000000
-54.650000 201.395000 -1544.270000 -0.309942 0.528501 0.790331 1.000000
-54.153800 202.098000 -1546.060000 -0.161268 0.618016 0.769447 1.000000
-53.624000 202.513000 -1547.970000 -0.035174 0.645895 0.762616 1.000000
-52.927000 203.222000 -1549.720000 -0.023037 0.675289 0.737193 1.000000
-52.132200 203.959000 -1551.410000 -0.023640 0.708322 0.705494 1.000000
-51.139100 204.701000 -1553.000000 -0.025612 0.739923 0.672204 1.000000
-50.057200 205.374000 -1554.560000 -0.033256 0.771685 0.635134 1.000000
-48.931900 206.023000 -1556.110000 -0.042724 0.811608 0.582638 1.000000
-47.805200 206.830000 -1557.570000 -0.053696 0.865255 0.498447 1.000000
-46.737600 207.553000 -1559.120000 -0.062729 0.927957 0.367371 1.000000
-45.749000 208.165000 -1560.760000 -0.061632 0.981526 0.181128 1.000000
-44.906700 208.855000 -1562.460000 -0.142596 0.972718 -0.182989 1.000000
-44.078600 209.538000 -1564.170000 -0.181038 0.897888 -0.401275 1.000000
-43.158600 210.101000 -1565.870000 -0.216865 0.844635 -0.489451 1.000000
-42.511000 210.071000 -1567.690000 -0.294055 0.776717 -0.556994 1.000000
-42.075100 209.579000 -1569.590000 -0.560250 0.573315 0.597855 1.000000
-41.608800 210.056000 -1571.480000 -0.643913 0.657268 0.391632 1.000000
-41.134700 210.644000 -1573.350000 -0.661868 0.749372 0.019308 1.000000
-40.647800 211.336000 -1575.180000 -0.532711 0.771767 -0.347268 1.000000
-40.096600 212.312000 -1576.840000 -0.490239 0.767011 -0.413956 1.000000
-39.550900 213.177000 -1578.340000 -0.566048 0.639904 -0.519723 0.010000
-39.413900 211.187000 -1578.630000 -0.267072 0.652270 -0.709377 1.000000
-39.224900 209.224000 -1579.040000 -0.288715 0.552070 -0.782216 1.000000
-38.973300 207.295000 -1579.570000 -0.316094 0.464665 -0.827146 1.000000
-38.857800 205.320000 -1579.950000 -0.377555 0.382445 -0.843320 1.000000
-38.771300 203.337000 -1580.300000 -0.445919 0.307225 -0.840696 1.000000
-38.691000 201.362000 -1580.710000 -0.035319 0.645020 -0.763349 1.000000
-38.616200 199.390000 -1581.120000 -0.093360 0.443136 -0.891580 1.000000
-38.545100 197.421000 -1581.550000 -0.428696 0.078680 -0.900016 1.000000
-38.508100 195.462000 -1582.030000 -0.368971 0.012943 -0.929351 1.000000
-38.482700 193.503000 -1582.510000 -0.298830 -0.057162 -0.952593 1.000000
-38.477000 191.547000 -1583.000000 -0.223488 -0.122728 -0.966949 1.000000
-38.501900 189.586000 -1583.470000 -0.147068 -0.171522 -0.974141 1.000000
-38.542400 187.621000 -1583.930000 -0.067678 -0.185606 -0.980291 1.000000
-38.616400 185.640000 -1584.290000 0.027148 -0.109177 -0.993652 1.000000
-38.720400 183.659000 -1584.660000 0.134666 0.290319 -0.947407 1.000000
-38.857200 181.680000 -1585.020000 0.115035 0.485995 -0.866358 1.000000
-39.014700 179.700000 -1585.370000 0.118870 0.497347 -0.859370 1.000000
-39.137600 177.712000 -1585.630000 0.116011 0.477275 -0.871063 1.000000
-39.136300 175.696000 -1585.570000 0.107163 0.430407 -0.896251 1.000000
-39.059300 173.716000 -1585.840000 0.172890 0.368000 -0.913611 1.000000
-38.934800 171.758000 -1586.310000 0.540970 0.232786 -0.808184 1.000000
-39.001300 169.748000 -1586.170000 -0.924776 0.293473 -0.242206 1.000000
-38.938500 167.788000 -1586.340000 0.019440 -0.066442 -0.997601 1.000000
-38.652500 165.916000 -1587.030000 -0.001799 -0.119909 -0.992783 1.000000
-38.451600 163.945000 -1587.330000 0.094829 -0.176744 -0.979678 1.000000
-38.192100 161.967000 -1587.430000 0.143181 -0.114334 -0.983070 1.000000
-37.327800 160.164000 -1587.170000 0.210005 0.042914 -0.976758 1.000000
-36.347500 158.420000 -1586.950000 0.274969 0.186107 -0.943269 1.000000
-35.253100 156.735000 -1586.770000 0.335664 0.276322 -0.900542 1.000000
-34.094000 155.161000 -1586.290000 0.389913 0.326028 -0.861205 1.000000
-32.776300 153.797000 -1585.750000 0.439798 0.355067 -0.824928 1.000000
-31.032900 152.987000 -1585.140000 0.489715 0.367235 -0.790770 1.000000
-30.669100 151.497000 -1585.310000 0.493172 0.381633 -0.781753 1.000000
-31.089600 149.623000 -1585.920000 0.471410 0.366235 -0.802275 1.000000
-31.731500 147.746000 -1586.290000 0.420549 0.273588 -0.865036 1.000000
-32.717700 146.130000 -1586.730000 0.034139 -0.146881 -0.988565 1.000000
-34.231100 144.915000 -1587.270000 -0.040188 0.934870 -0.352707 1.000000
-35.807300 143.786000 -1587.830000 -0.412680 0.149413 0.898538 1.000000
-37.272200 142.805000 -1588.020000 -0.056577 0.978260 0.199515 0.010000
-38.008000 142.510000 -1586.160000 0.101271 0.981809 -0.160610 1.000000
-38.774100 142.710000 -1584.370000 -0.705612 -0.708595 0.002165 1.000000
-39.566900 143.350000 -1582.630000 -0.644864 -0.726761 0.236575 1.000000
-40.378000 143.795000 -1580.840000 -0.610153 -0.734306 0.297502 1.000000
-41.192700 144.271000 -1579.050000 -0.585259 -0.741436 0.328244 1.000000
-42.011500 144.872000 -1577.310000 0.130426 0.969447 -0.207751 1.000000
-42.823100 145.424000 -1575.550000 0.087859 0.979139 -0.183212 1.000000
-43.630600 145.965000 -1573.780000 0.041785 0.969560 -0.241261 1.000000
-44.428500 146.818000 -1572.140000 0.001319 0.947809 -0.318835 1.000000
-45.222200 147.610000 -1570.470000 -0.034129 0.911680 -0.409481 1.000000
-46.010200 148.319000 -1568.750000 -0.062698 0.863471 -0.500486 1.000000
-46.786900 149.017000 -1567.020000 -0.083055 0.808867 -0.582096 1.000000
-47.521000 149.676000 -1565.270000 -0.092725 0.755145 -0.648966 1.000000
-48.070100 150.164000 -1563.390000 -0.427606 -0.773908 0.467139 1.000000
-48.604000 150.653000 -1561.510000 -0.409775 -0.814063 0.411565 1.000000
-49.125800 151.143000 -1559.620000 -0.391951 -0.843783 0.366613 1.000000
-49.628200 151.673000 -1557.740000 -0.372911 -0.867784 0.328464 1.000000
-50.103600 152.276000 -1555.880000 -0.082694 0.894853 -0.438633 1.000000
-50.522500 153.038000 -1554.060000 -0.019531 0.858126 -0.513068 1.000000
-50.973500 153.670000 -1552.200000 0.005959 0.835306 -0.549752 1.000000
-51.435400 154.248000 -1550.330000 0.016465 0.821537 -0.569917 1.000000
-51.847600 154.889000 -1548.460000 0.026532 0.813705 -0.580672 1.000000
-52.258400 155.531000 -1546.590000 0.037029 0.808983 -0.586665 1.000000
-52.667500 156.174000 -1544.730000 -0.346516 -0.929349 0.127426 1.000000
-53.811200 156.804000 -1543.240000 -0.398513 -0.904568 0.151474 1.000000
-55.170500 157.359000 -1542.360000 -0.456004 -0.864068 0.213184 1.000000
-56.760900 157.626000 -1543.570000 -0.477859 -0.854931 0.201851 1.000000
-57.775000 158.293000 -1543.110000 -0.516462 -0.822583 0.237958 1.000000
-58.371400 159.250000 -1541.440000 -0.553458 -0.766317 0.326256 1.000000
-58.912900 160.325000 -1539.820000 -0.571555 -0.704965 0.419939 1.000000
-59.333600 161.564000 -1538.320000 -0.563883 -0.656942 0.500463 1.000000
-59.520600 163.116000 -1537.040000 -0.520548 -0.655924 0.546620 1.000000
-59.955500 164.429000 -1535.600000 -0.430131 -0.734100 0.525437 1.000000
-60.462400 165.691000 -1534.120000 -0.358011 -0.789851 0.497960 1.000000
-60.702400 167.394000 -1533.070000 -0.331472 -0.805525 0.491179 1.000000
-61.170200 168.749000 -1531.750000 -0.346788 -0.794915 0.497843 1.000000
-61.894200 169.713000 -1530.130000 -0.403794 -0.761350 0.507244 1.000000
-62.507700 171.119000 -1528.840000 -0.589087 -0.665845 0.457851 1.000000
-63.019000 172.618000 -1527.610000 -0.672224 -0.603876 0.428309 1.000000
-63.249200 174.166000 -1526.330000 -0.456743 -0.672537 0.582306 1.000000
-62.747400 175.343000 -1524.930000 -0.501687 -0.631163 0.591560 1.000000
-61.767800 176.277000 -1523.430000 -0.421031 -0.638365 0.644378 1.000000
-60.240800 176.702000 -1522.190000 -0.355540 -0.658909 0.662895 1.000000
-58.675200 176.997000 -1520.960000 -0.316331 -0.676239 0.665309 1.000000
-57.057900 177.077000 -1519.760000 -0.286496 -0.698819 0.655418 1.000000
-55.348200 177.113000 -1518.690000 -0.263126 -0.728555 0.632434 1.000000
-53.609200 177.120000 -1517.670000 -0.250389 -0.764890 0.593505 1.000000
-51.895000 177.015000 -1516.620000 -0.256566 -0.804227 0.536090 1.000000
-50.872000 177.684000 -1515.410000 -0.307506 -0.740714 0.597313 1.000000
-50.552000 179.141000 -1514.050000 -0.377990 -0.710360 0.593727 1.000000
-49.711800 180.767000 -1513.260000 -0.525403 -0.505265 0.684587 1.000000
-48.821000 182.430000 -1512.550000 -0.798263 -0.324598 0.507358 1.000000
-48.003000 184.130000 -1511.830000 -0.891907 0.354707 0.280508 1.000000
-47.352200 185.871000 -1511.060000 -0.910950 0.411451 0.029651 1.000000
-46.800200 187.636000 -1510.260000 -0.273883 -0.495314 -0.824410 1.000000
-46.309000 189.522000 -1509.740000 -0.990067 0.109561 -0.088117 1.000000
-45.923800 191.450000 -1509.490000 -0.994595 0.003196 -0.103780 1.000000
-45.706800 193.447000 -1509.680000 -0.989375 -0.044012 -0.138567 1.000000
-46.111500 195.382000 -1509.570000 -0.984006 -0.072716 -0.162621 1.000000
-46.625500 197.174000 -1509.650000 -0.978631 -0.087154 -0.186238 0.010000
-46.647900 198.218000 -1511.380000 -0.972350 -0.075095 -0.221125 1.000000
-46.308000 198.897000 -1513.180000 -0.968401 -0.064918 -0.240800 1.000000
-45.635100 199.239000 -1515.050000 -0.966742 -0.055975 -0.249555 1.000000
-45.278200 199.849000 -1516.930000 -0.964407 -0.053029 -0.259050 1.000000
-44.952700 200.495000 -1518.810000 -0.961325 -0.055815 -0.269703 1.000000
-44.616400 201.159000 -1520.690000 -0.956454 -0.060134 -0.285622 1.000000
-44.088600 201.766000 -1522.530000 -0.949210 -0.062577 -0.308358 1.000000
-43.455800 202.344000 -1524.360000 -0.940034 -0.063248 -0.335164 1.000000
-42.697300 202.912000 -1526.140000 -0.939037 -0.059960 -0.338548 1.000000
-42.026300 203.583000 -1527.910000 -0.939480 -0.058225 -0.337620 1.000000
-41.480400 204.398000 -1529.670000 -0.942311 -0.062472 -0.328857 1.000000
-40.752900 205.030000 -1531.440000 -0.948043 -0.070661 -0.310198 1.000000
-39.975500 205.605000 -1533.210000 -0.955875 -0.086920 -0.280622 1.000000
-39.189300 206.140000 -1534.990000 -0.963853 -0.115227 -0.240227 1.000000
-38.318400 206.503000 -1536.760000 -0.966750 -0.151768 -0.205816 1.000000
-37.377200 206.723000 -1538.530000 -0.957051 -0.180929 -0.226537 1.000000
-36.661300 207.219000 -1540.350000 -0.878704 -0.092593 -0.468302 1.000000
-36.058200 207.848000 -1542.150000 -0.802528 -0.038591 -0.595365 1.000000
-35.673000 208.730000 -1543.930000 -0.791638 -0.011784 -0.610877 1.000000
-34.925900 209.299000 -1545.680000 -0.800316 0.009059 -0.599510 1.000000
-34.025800 209.743000 -1547.430000 -0.831350 0.021248 -0.555343 1.000000
-33.396700 210.530000 -1549.170000 -0.902985 -0.036906 -0.428085 1.000000
-32.735900 211.297000 -1550.920000 -0.919949 -0.056772 -0.387906 1.000000
-32.034400 212.039000 -1552.660000 -0.917898 -0.065488 -0.391375 1.000000
-31.165700 212.652000 -1554.370000 -0.909255 -0.070841 -0.410167 1.000000
-30.245900 213.222000 -1556.070000 -0.896377 -0.075095 -0.436886 1.000000
-29.271600 213.732000 -1557.760000 -0.879580 -0.077623 -0.469376 1.000000
-28.457400 214.415000 -1559.460000 -0.873615 -0.090296 -0.478167 1.000000
-27.763300 215.228000 -1561.170000 -0.875359 -0.112693 -0.470156 1.000000
-26.834600 215.686000 -1562.900000 -0.878201 -0.132865 -0.459466 1.000000
-25.905500 216.142000 -1564.630000 -0.880488 -0.158992 -0.446612 1.000000
-25.001200 216.634000 -1566.370000 -0.880071 -0.197781 -0.431691 1.000000
-24.074900 216.969000 -1568.120000 -0.875982 -0.258259 -0.407379 1.000000
-23.130200 217.071000 -1569.730000 -0.882085 -0.359113 -0.304899 0.010000
-22.084900 215.349000 -1569.640000 -0.849917 -0.301800 -0.431924 1.000000
-21.333300 213.520000 -1569.730000 -0.793061 -0.230925 -0.563674 1.000000
-20.923500 211.567000 -1570.020000 -0.690502 -0.122482 -0.712885 1.000000
-21.071900 209.619000 -1570.460000 -0.516693 0.100080 -0.850301 1.000000
-21.289600 207.790000 -1571.130000 -0.110113 0.324306 -0.939522 1.000000
-21.375900 206.386000 -1572.580000 0.061228 0.228636 -0.971585 1.000000
-21.628200 204.826000 -1573.800000 0.135165 0.151180 -0.979222 1.000000
-21.992700 203.160000 -1574.880000 0.211867 0.113545 -0.970680 1.000000
-22.452400 201.561000 -1576.020000 0.401622 0.164934 -0.900831 1.000000
-22.887900 199.932000 -1577.120000 0.808721 0.462841 -0.362973 1.000000
-23.274500 198.245000 -1578.160000 0.790946 0.547588 -0.273043 1.000000
-23.687000 196.466000 -1579.000000 0.753534 0.588367 -0.293275 1.000000
-24.102600 194.650000 -1579.780000 0.690738 0.537888 -0.483278 1.000000
-24.466700 192.802000 -1580.500000 0.435276 0.073005 -0.897332 1.000000
-24.977300 190.956000 -1581.100000 0.189177 -0.353648 -0.916049 1.000000
