# .PCD v0.7 - Point Cloud Data file format
# 4 123 0
# 1 39 0
# 40 76 0
# 77 108 0
# 109 123 0
VERSION 0.7
FIELDS x y z normal_x normal_y normal_z curvature
SIZE 4 4 4 4 4 4 4
TYPE F F F F F F F
COUNT 1 1 1 1 1 1 1
WIDTH 123
HEIGHT 1
VIEWPOINT 0 0 0 1 0 0 0
POINTS 123
DATA ascii
72.109600 -107.166000 -1596.370000 0.928580 0.356488 -0.103229 0.010000
71.880700 -106.827000 -1594.440000 0.925380 0.354685 -0.133680 1.000000
72.115800 -106.787000 -1592.490000 0.922588 0.348619 -0.165216 1.000000
72.340700 -105.878000 -1590.760000 0.919248 0.344514 -0.190506 1.000000
72.051800 -105.408000 -1588.870000 0.917595 0.340779 -0.204670 1.000000
72.655000 -105.423000 -1587.000000 0.918335 0.335449 -0.210081 1.000000
73.204400 -105.014000 -1585.150000 0.920188 0.329757 -0.210986 1.000000
73.611800 -104.715000 -1583.250000 0.922968 0.323900 -0.207890 1.000000
73.592400 -104.736000 -1581.280000 0.925326 0.320880 -0.202011 1.000000
73.914400 -104.658000 -1579.340000 0.927781 0.316658 -0.197356 1.000000
74.192200 -104.075000 -1577.480000 0.929748 0.312244 -0.195121 1.000000
74.937900 -105.180000 -1576.030000 0.932945 0.306411 -0.189011 1.000000
75.869300 -106.177000 -1574.620000 0.935906 0.301175 -0.182685 1.000000
76.653200 -106.895000 -1572.960000 0.938660 0.295569 -0.177639 1.000000
76.952600 -107.661000 -1571.170000 0.941241 0.289468 -0.173995 1.000000
77.316400 -108.578000 -1569.470000 0.943575 0.283579 -0.171023 1.000000
78.765000 -111.907000 -1567.020000 0.936261 0.301785 -0.179837 1.000000
79.368800 -112.552000 -1565.260000 0.928763 0.309815 -0.203502 1.000000
79.983700 -113.165000 -1563.500000 0.920873 0.316233 -0.228013 1.000000
80.715500 -114.495000 -1562.240000 0.911835 0.329829 -0.244477 1.000000
81.503600 -115.201000 -1560.580000 0.903419 0.337208 -0.264811 1.000000
82.466300 -116.808000 -1559.980000 0.894472 0.354667 -0.272270 1.000000
83.269000 -117.730000 -1558.440000 0.889485 0.358836 -0.282938 1.000000
83.809800 -118.568000 -1556.740000 0.884616 0.360138 -0.296234 1.000000
84.703300 -119.827000 -1555.520000 0.880072 0.361423 -0.307972 1.000000
85.769400 -121.090000 -1554.450000 0.876459 0.359572 -0.320199 1.000000
86.828200 -122.626000 -1553.820000 0.875433 0.355771 -0.327176 1.000000
87.512800 -124.414000 -1553.370000 0.876493 0.351612 -0.328831 1.000000
88.277500 -125.946000 -1552.400000 0.875540 0.345865 -0.337354 1.000000
89.317900 -126.800000 -1550.960000 0.871023 0.338361 -0.356134 1.000000
90.453200 -127.798000 -1549.700000 0.866907 0.332544 -0.371332 1.000000
91.548800 -128.879000 -1548.480000 0.862741 0.328167 -0.384686 1.000000
92.519700 -130.247000 -1547.450000 0.859361 0.326965 -0.393183 1.000000
93.340200 -131.660000 -1546.350000 0.855678 0.326429 -0.401570 1.000000
94.381800 -132.758000 -1545.090000 0.851054 0.323743 -0.413398 1.000000
95.353400 -134.293000 -1544.340000 0.849892 0.323551 -0.415930 1.000000
96.451600 -135.032000 -1542.880000 0.845770 0.319402 -0.427382 1.000000
97.453200 -136.410000 -1541.900000 0.843087 0.320584 -0.431776 1.000000
98.428400 -137.892000 -1541.040000 0.840235 0.324095 -0.434704 1.000000
99.554600 -138.355000 -1539.500000 0.836158 0.322831 -0.443419 1.000000
100.453000 -139.905000 -1538.680000 0.833294 0.328893 -0.444354 1.000000
101.649000 -141.087000 -1537.660000 0.835623 0.327510 -0.440989 1.000000
102.871000 -142.358000 -1536.780000 0.838192 0.326358 -0.436949 1.000000
103.431000 -144.141000 -1536.170000 0.841089 0.328699 -0.429566 1.000000
104.334000 -145.308000 -1534.870000 0.843927 0.324442 -0.427230 1.000000
105.580000 -146.380000 -1533.780000 0.846945 0.320048 -0.424563 1.000000
106.498000 -147.903000 -1532.940000 0.846674 0.322127 -0.423529 1.000000
107.556000 -148.974000 -1531.670000 0.837746 0.325997 -0.438072 1.000000
108.708000 -150.059000 -1530.500000 0.829916 0.329742 -0.450009 1.000000
109.427000 -151.890000 -1530.450000 0.827130 0.343561 -0.444771 1.000000
110.039000 -153.761000 -1530.420000 0.824116 0.347784 -0.447079 1.000000
110.976000 -155.480000 -1530.220000 0.820765 0.344251 -0.455890 1.000000
111.680000 -157.263000 -1530.660000 0.822105 0.333779 -0.461232 1.000000
112.857000 -158.816000 -1530.390000 0.819543 0.321832 -0.474104 1.000000
113.082000 -160.648000 -1531.070000 0.826275 0.302400 -0.475210 0.010000
112.830000 -162.022000 -1532.460000 0.839204 0.299838 -0.453690 1.000000
112.449000 -162.987000 -1534.130000 0.851470 0.300109 -0.430039 1.000000
111.375000 -163.208000 -1535.760000 0.862225 0.302298 -0.406427 1.000000
110.425000 -163.398000 -1537.470000 0.871972 0.302357 -0.385026 1.000000
109.961000 -163.971000 -1539.300000 0.880433 0.310427 -0.358431 1.000000
109.009000 -164.152000 -1541.010000 0.887536 0.327524 -0.324049 1.000000
108.398000 -164.311000 -1542.880000 0.892454 0.343796 -0.292114 1.000000
108.246000 -165.050000 -1544.690000 0.892320 0.366821 -0.263073 1.000000
107.871000 -164.958000 -1546.620000 0.891914 0.378103 -0.248047 1.000000
107.193000 -164.767000 -1548.460000 0.888365 0.384972 -0.250209 1.000000
107.261000 -166.193000 -1549.820000 0.881165 0.385906 -0.273175 1.000000
107.435000 -167.361000 -1551.390000 0.875072 0.381907 -0.297316 1.000000
106.910000 -167.680000 -1553.260000 0.872060 0.372445 -0.317485 1.000000
106.253000 -167.761000 -1555.110000 0.871195 0.362495 -0.331085 1.000000
105.806000 -168.409000 -1556.920000 0.869720 0.367820 -0.329084 1.000000
105.586000 -169.284000 -1558.670000 0.867536 0.390317 -0.308274 1.000000
104.896000 -169.354000 -1560.510000 0.868370 0.403371 -0.288488 1.000000
104.436000 -169.776000 -1562.370000 0.867713 0.421786 -0.263003 1.000000
104.218000 -170.320000 -1564.250000 0.865654 0.441319 -0.236391 1.000000
103.538000 -169.912000 -1566.050000 0.867992 0.442133 -0.226072 1.000000
103.190000 -170.232000 -1567.970000 0.868384 0.447709 -0.213229 1.000000
102.306000 -168.763000 -1568.930000 0.872207 0.441362 -0.210842 1.000000
101.442000 -167.017000 -1569.210000 0.878615 0.426830 -0.214129 1.000000
100.636000 -165.906000 -1570.620000 0.883572 0.418568 -0.210005 1.000000
99.919200 -164.933000 -1572.180000 0.887675 0.412014 -0.205616 1.000000
99.199500 -163.966000 -1573.730000 0.891495 0.405525 -0.201953 1.000000
98.480700 -163.235000 -1575.410000 0.893699 0.403474 -0.196241 1.000000
97.835600 -162.672000 -1577.180000 0.894743 0.405839 -0.186361 1.000000
97.270800 -162.233000 -1579.020000 0.895092 0.412332 -0.169681 1.000000
96.791400 -161.999000 -1580.910000 0.893655 0.423994 -0.147003 1.000000
96.283400 -161.679000 -1582.790000 0.891927 0.434629 -0.124755 1.000000
95.805000 -161.504000 -1584.690000 0.888245 0.447717 -0.102811 1.000000
95.679900 -161.901000 -1586.610000 0.895484 0.427931 -0.122406 1.000000
95.546900 -162.185000 -1588.550000 0.900893 0.412041 -0.136436 1.000000
95.850400 -163.455000 -1590.030000 0.904276 0.399919 -0.149496 1.000000
95.594800 -163.685000 -1591.960000 0.907586 0.390879 -0.153300 1.000000
95.711500 -163.227000 -1593.870000 0.909682 0.386118 -0.152941 0.010000
94.675700 -161.564000 -1593.690000 0.907497 0.393208 -0.147772 1.000000
93.573200 -159.944000 -1593.880000 0.905633 0.399086 -0.143383 1.000000
93.022600 -158.272000 -1594.760000 0.904334 0.403079 -0.140385 1.000000
92.140900 -156.612000 -1595.340000 0.902610 0.407798 -0.137829 1.000000
91.272900 -154.906000 -1595.800000 0.900760 0.412379 -0.136293 1.000000
90.428600 -153.190000 -1596.260000 0.899100 0.416180 -0.135698 1.000000
89.561100 -151.522000 -1596.850000 0.903615 0.409736 -0.124889 1.000000
88.657300 -149.826000 -1597.270000 0.908818 0.400709 -0.116117 1.000000
87.808000 -148.079000 -1597.590000 0.914088 0.390482 -0.109394 1.000000
87.107900 -146.361000 -1598.240000 0.918694 0.382578 -0.098158 1.000000
86.414700 -144.544000 -1597.940000 0.919508 0.381529 -0.094551 1.000000
85.919100 -142.664000 -1598.240000 0.919058 0.385221 -0.083290 1.000000
84.931200 -141.136000 -1597.490000 0.912759 0.399306 -0.086169 1.000000
84.073200 -139.365000 -1597.470000 0.906452 0.413118 -0.087631 1.000000
83.251700 -137.582000 -1597.320000 0.906465 0.408243 -0.107977 1.000000
82.573500 -135.799000 -1596.840000 0.909148 0.393611 -0.136092 1.000000
81.914100 -134.037000 -1597.410000 0.913612 0.383422 -0.135281 1.000000
81.247400 -132.203000 -1597.160000 0.918362 0.363649 -0.156112 1.000000
80.566700 -130.379000 -1596.870000 0.921328 0.348967 -0.171396 1.000000
79.819800 -128.563000 -1596.750000 0.922315 0.347126 -0.169820 1.000000
79.106500 -126.739000 -1596.950000 0.923988 0.344813 -0.165380 1.000000
78.371100 -124.918000 -1597.070000 0.924691 0.343890 -0.163358 1.000000
77.694200 -123.097000 -1597.380000 0.925560 0.344238 -0.157605 1.000000
76.938400 -121.281000 -1597.460000 0.927594 0.341275 -0.151993 1.000000
76.193500 -119.469000 -1597.640000 0.929021 0.341937 -0.141415 1.000000
75.574700 -117.653000 -1597.200000 0.927664 0.348648 -0.133733 1.000000
74.935600 -115.881000 -1596.640000 0.926184 0.355006 -0.127096 1.000000
74.367500 -114.180000 -1597.450000 0.928825 0.353665 -0.110480 1.000000
73.570800 -112.384000 -1597.560000 0.929249 0.356033 -0.098680 1.000000
72.840300 -110.628000 -1597.060000 0.928140 0.360401 -0.093100 1.000000
72.277100 -108.787000 -1597.470000 0.930191 0.356438 -0.087731 1.000000
