# .PCD v0.7 - Point Cloud Data file format
# 2 30 0
# 1 26 0
# 27 30 0
VERSION 0.7
FIELDS x y z normal_x normal_y normal_z curvature
SIZE 4 4 4 4 4 4 4
TYPE F F F F F F F
COUNT 1 1 1 1 1 1 1
WIDTH 30
HEIGHT 1
VIEWPOINT 0 0 0 1 0 0 0
POINTS 30
DATA ascii
268.356000 -154.246000 -1588.370000 -0.305468 -0.300949 0.903393 0.010000
267.458000 -153.062000 -1588.210000 -0.293531 -0.237600 0.925951 1.000000
266.104000 -152.056000 -1588.450000 -0.298664 -0.228560 0.926585 1.000000
265.363000 -150.572000 -1588.440000 -0.277461 -0.208986 0.937732 1.000000
264.764000 -148.978000 -1588.390000 -0.246101 -0.204034 0.947525 1.000000
275.628000 -162.902000 -1626.570000 -0.217500 -0.968527 -0.121032 1.000000
275.443000 -162.704000 -1624.890000 -0.224735 -0.961699 -0.156938 1.000000
275.193000 -162.539000 -1623.220000 -0.237942 -0.955726 -0.173125 1.000000
274.661000 -162.516000 -1621.600000 -0.259497 -0.950492 -0.170954 1.000000
274.291000 -162.815000 -1620.030000 -0.282025 -0.948099 -0.146870 1.000000
274.192000 -163.652000 -1618.550000 -0.292698 -0.951226 -0.097449 1.000000
273.961000 -163.858000 -1616.980000 -0.305015 -0.950806 -0.054160 1.000000
273.627000 -163.574000 -1615.330000 -0.315556 -0.948584 -0.024770 1.000000
273.364000 -163.351000 -1613.660000 -0.310028 -0.950537 -0.019025 1.000000
273.125000 -163.150000 -1611.990000 -0.283429 -0.958322 -0.035866 1.000000
272.750000 -163.453000 -1610.360000 -0.238934 -0.968594 -0.068825 1.000000
272.365000 -163.757000 -1608.730000 -0.180801 -0.976371 -0.118363 1.000000
271.972000 -163.837000 -1607.080000 -0.137601 -0.981272 -0.134804 1.000000
271.599000 -163.742000 -1605.440000 -0.116996 -0.992302 -0.040608 1.000000
271.268000 -163.260000 -1603.840000 -0.099068 -0.993131 0.062256 1.000000
270.953000 -162.733000 -1602.250000 -0.081395 -0.982157 0.169535 1.000000
270.652000 -162.162000 -1600.670000 -0.063476 -0.961026 0.269073 1.000000
270.318000 -161.678000 -1599.070000 -0.046421 -0.936752 0.346901 1.000000
269.968000 -161.234000 -1597.470000 -0.031360 -0.918583 0.393981 1.000000
269.663000 -160.637000 -1595.900000 -0.020198 -0.913917 0.405398 1.000000
269.367000 -159.999000 -1594.350000 -0.025022 -0.926136 0.376359 1.000000
269.125000 -159.072000 -1592.940000 -0.087226 -0.920324 0.381307 1.000000
268.890000 -158.101000 -1591.570000 -0.196888 -0.838012 0.508891 1.000000
268.676000 -156.995000 -1590.290000 -0.287374 -0.674291 0.680255 1.000000
268.495000 -155.726000 -1589.200000 -0.321220 -0.472875 0.820492 1.000000
