# .PCD v0.7 - Point Cloud Data file format
# 5 123 0
# 1 14 0
# 15 42 0
# 43 73 0
# 74 103 0
# 104 123 0
VERSION 0.7
FIELDS x y z normal_x normal_y normal_z curvature
SIZE 4 4 4 4 4 4 4
TYPE F F F F F F F
COUNT 1 1 1 1 1 1 1
WIDTH 123
HEIGHT 1
VIEWPOINT 0 0 0 1 0 0 0
POINTS 123
DATA ascii
-227.585000 137.135000 -1556.540000 0.856447 0.061471 -0.512563 0.010000
-228.372000 138.163000 -1557.750000 0.852586 0.046343 -0.520529 1.000000
-229.083000 139.362000 -1558.850000 0.839627 0.013841 -0.542988 1.000000
-229.705000 140.716000 -1559.820000 0.824083 -0.032287 -0.565548 1.000000
-230.293000 142.090000 -1560.780000 0.812682 -0.064881 -0.579085 1.000000
-230.859000 143.444000 -1561.780000 0.806144 -0.082173 -0.585986 1.000000
-231.541000 144.689000 -1562.850000 0.804582 -0.087412 -0.587373 1.000000
-232.141000 146.151000 -1563.660000 0.808801 -0.077448 -0.582961 1.000000
-232.745000 147.502000 -1564.640000 0.810780 -0.063559 -0.581889 1.000000
-233.393000 148.665000 -1565.810000 0.810668 -0.053933 -0.583016 1.000000
-233.964000 150.065000 -1566.750000 0.810365 -0.042661 -0.584370 1.000000
-234.714000 151.229000 -1567.860000 0.807589 -0.035737 -0.588662 1.000000
-235.205000 152.750000 -1568.630000 0.803560 -0.021801 -0.594825 1.000000
-235.057000 154.500000 -1568.370000 0.804160 -0.005464 -0.594388 1.000000
-235.317000 156.233000 -1568.650000 0.800159 0.011182 -0.599684 1.000000
-235.609000 157.935000 -1569.070000 0.794164 0.027263 -0.607092 1.000000
-235.693000 159.699000 -1569.260000 0.788729 0.041550 -0.613335 1.000000
-235.414000 161.202000 -1568.360000 0.792736 0.047340 -0.607724 1.000000
-234.941000 162.913000 -1568.310000 0.796650 0.047613 -0.602563 1.000000
-235.082000 164.543000 -1567.620000 0.801368 0.046863 -0.596334 1.000000
-235.234000 166.312000 -1567.630000 0.800960 0.046895 -0.596879 1.000000
-234.905000 168.276000 -1567.180000 0.804374 0.050066 -0.592010 1.000000
-235.022000 170.044000 -1567.060000 0.803574 0.054667 -0.592689 1.000000
-234.865000 171.764000 -1566.650000 0.804952 0.059038 -0.590395 1.000000
-234.588000 173.373000 -1565.950000 0.808281 0.061787 -0.585546 1.000000
-233.860000 174.720000 -1565.050000 0.814785 0.062361 -0.576400 1.000000
-233.360000 176.292000 -1564.390000 0.819279 0.065089 -0.569689 1.000000
-233.620000 178.036000 -1564.180000 0.818424 0.071706 -0.570123 1.000000
-233.329000 179.599000 -1563.390000 0.821541 0.079065 -0.564641 1.000000
-233.303000 181.307000 -1562.900000 0.822563 0.087935 -0.561834 1.000000
-233.572000 183.037000 -1563.200000 0.820781 0.095672 -0.563175 1.000000
-233.558000 184.805000 -1563.370000 0.820583 0.101337 -0.562472 1.000000
-233.851000 186.508000 -1563.780000 0.819175 0.103333 -0.564158 0.292901
-233.701000 188.125000 -1563.060000 0.820336 0.100536 -0.562975 1.000000
-233.118000 189.457000 -1562.040000 0.822475 0.098759 -0.560161 0.010000
-232.471000 190.140000 -1560.530000 0.824357 0.098063 -0.557512 1.000000
-231.535000 190.651000 -1559.110000 0.825065 0.097643 -0.556537 0.293458
-230.464000 190.985000 -1557.730000 0.824740 0.097188 -0.557098 0.653739
-230.045000 192.399000 -1556.740000 0.824584 0.099717 -0.556882 1.000000
-229.551000 193.693000 -1555.630000 0.826970 0.106312 -0.552104 1.000000
-228.597000 194.342000 -1554.280000 0.829589 0.112302 -0.546965 1.000000
-227.680000 194.769000 -1552.820000 0.832083 0.118926 -0.541752 1.000000
-226.855000 195.296000 -1551.340000 0.834381 0.126812 -0.536401 1.000000
-226.036000 196.046000 -1549.950000 0.836503 0.135971 -0.530824 1.000000
-225.280000 196.597000 -1548.440000 0.835229 0.142891 -0.531013 1.000000
-224.502000 197.170000 -1546.950000 0.830877 0.145961 -0.536973 1.000000
-223.689000 198.367000 -1545.920000 0.830441 0.143421 -0.538329 1.000000
-223.100000 199.334000 -1544.560000 0.830301 0.141259 -0.539116 1.000000
-222.420000 200.163000 -1543.140000 0.831469 0.139147 -0.537863 1.000000
-221.553000 201.154000 -1541.950000 0.836331 0.131628 -0.532188 1.000000
-220.827000 202.027000 -1540.580000 0.842500 0.125880 -0.523782 1.000000
-220.153000 202.730000 -1539.100000 0.845870 0.123855 -0.518811 1.000000
-219.350000 203.309000 -1537.620000 0.846406 0.124739 -0.517722 1.000000
-218.508000 203.747000 -1536.120000 0.844313 0.127626 -0.520429 1.000000
-217.639000 204.135000 -1534.620000 0.840272 0.131118 -0.526071 1.000000
-216.902000 204.395000 -1533.030000 0.835238 0.136516 -0.532673 1.000000
-215.778000 204.404000 -1531.650000 0.829959 0.145066 -0.538632 1.000000
-215.015000 204.711000 -1530.080000 0.825623 0.152781 -0.543144 1.000000
-213.982000 205.065000 -1528.680000 0.821451 0.159755 -0.547445 1.000000
-213.368000 206.082000 -1527.360000 0.820033 0.164457 -0.548178 1.000000
-212.280000 205.628000 -1526.030000 0.816066 0.166973 -0.553314 1.000000
-211.244000 205.694000 -1524.590000 0.810956 0.170888 -0.559596 1.000000
-210.106000 205.391000 -1523.260000 0.803758 0.173441 -0.569115 0.010000
-209.234000 204.298000 -1522.160000 0.796118 0.171101 -0.580449 1.000000
-208.525000 202.808000 -1521.510000 0.788671 0.167003 -0.591700 1.000000
-207.388000 201.968000 -1520.430000 0.774441 0.168280 -0.609855 1.000000
-206.488000 200.618000 -1519.710000 0.763283 0.165145 -0.624601 1.000000
-205.360000 199.699000 -1518.690000 0.748894 0.162805 -0.642380 1.000000
-204.714000 198.090000 -1518.310000 0.742535 0.156312 -0.651312 1.000000
-204.609000 196.334000 -1518.560000 0.751505 0.141207 -0.644438 1.000000
-204.190000 194.609000 -1518.610000 0.760166 0.124908 -0.637610 1.000000
-204.050000 192.839000 -1518.610000 0.768450 0.113575 -0.629751 1.000000
-203.432000 191.174000 -1518.570000 0.775095 0.104805 -0.623092 1.000000
-203.208000 189.417000 -1518.440000 0.782265 0.102113 -0.614520 1.000000
-202.997000 187.657000 -1518.340000 0.789627 0.105887 -0.604382 1.000000
-202.889000 185.884000 -1518.360000 0.801281 0.111648 -0.587778 1.000000
-202.680000 184.123000 -1518.260000 0.813075 0.113395 -0.571009 1.000000
-202.076000 182.589000 -1517.600000 0.821974 0.099637 -0.560742 1.000000
-201.313000 181.236000 -1516.740000 0.831058 0.084087 -0.549793 1.000000
-200.692000 179.758000 -1515.980000 0.834714 0.072725 -0.545861 1.000000
-200.060000 178.107000 -1515.800000 0.824895 0.079567 -0.559659 1.000000
-200.582000 176.415000 -1515.920000 0.820649 0.080586 -0.565722 1.000000
-199.998000 174.774000 -1515.580000 0.810312 0.087400 -0.579444 1.000000
-199.167000 173.296000 -1515.050000 0.796049 0.093757 -0.597926 1.000000
-198.333000 171.805000 -1514.560000 0.784478 0.090855 -0.613465 1.000000
-198.769000 170.120000 -1514.920000 0.788874 0.078323 -0.609544 1.000000
-199.336000 168.615000 -1515.670000 0.794196 0.067293 -0.603924 1.000000
-199.294000 166.842000 -1515.750000 0.792666 0.057364 -0.606952 1.000000
-199.629000 165.158000 -1516.210000 0.794936 0.051913 -0.604469 1.000000
-199.663000 163.436000 -1516.640000 0.795744 0.049224 -0.603629 1.000000
-200.357000 162.008000 -1517.440000 0.800779 0.045802 -0.597206 1.000000
-200.164000 160.250000 -1517.590000 0.799356 0.042285 -0.599368 1.000000
-200.550000 158.602000 -1518.130000 0.802433 0.035527 -0.595684 1.000000
-200.697000 156.843000 -1518.330000 0.803555 0.024965 -0.594706 0.010000
-201.835000 156.523000 -1519.650000 0.808817 0.014258 -0.587888 1.000000
-202.645000 155.676000 -1520.990000 0.810248 -0.001527 -0.586086 1.000000
-203.601000 155.316000 -1522.440000 0.812185 -0.011548 -0.583286 1.000000
-204.593000 155.128000 -1523.900000 0.813991 -0.018923 -0.580569 1.000000
-205.664000 154.861000 -1525.290000 0.815813 -0.026434 -0.577712 1.000000
-206.685000 155.326000 -1526.670000 0.819471 -0.024422 -0.572600 1.000000
-207.659000 155.682000 -1528.110000 0.822755 -0.019275 -0.568070 1.000000
-208.629000 155.395000 -1529.570000 0.819360 -0.020204 -0.572923 1.000000
-209.203000 154.058000 -1530.590000 0.816813 -0.044061 -0.575218 1.000000
-210.259000 153.358000 -1531.840000 0.810212 -0.051543 -0.583867 1.000000
-210.806000 151.928000 -1532.730000 0.808042 -0.080006 -0.583667 1.000000
-212.035000 151.713000 -1534.000000 0.796428 -0.070774 -0.600578 1.000000
-213.177000 150.867000 -1535.060000 0.787025 -0.078484 -0.611908 1.000000
-214.049000 149.848000 -1536.230000 0.796929 -0.060791 -0.601007 1.000000
-214.998000 148.680000 -1537.170000 0.811610 -0.042339 -0.582663 1.000000
-215.754000 147.388000 -1538.130000 0.827645 -0.027788 -0.560564 1.000000
-216.163000 146.068000 -1539.240000 0.843647 -0.014796 -0.536694 1.000000
-216.760000 144.886000 -1540.430000 0.855654 0.006641 -0.517505 1.000000
-217.879000 144.251000 -1541.650000 0.847121 0.032470 -0.530406 1.000000
-218.489000 143.319000 -1543.030000 0.837305 0.032842 -0.545749 1.000000
-219.487000 142.639000 -1544.340000 0.821453 0.044560 -0.568533 1.000000
-220.371000 141.644000 -1545.510000 0.812346 0.040678 -0.581755 1.000000
-221.190000 140.803000 -1546.840000 0.801048 0.041342 -0.597171 1.000000
-222.093000 139.918000 -1548.090000 0.795059 0.042919 -0.605012 1.000000
-223.155000 139.340000 -1549.390000 0.792314 0.068814 -0.606220 1.000000
-223.882000 138.341000 -1550.670000 0.800605 0.072533 -0.594786 1.000000
-224.871000 138.270000 -1552.140000 0.811615 0.084380 -0.578067 1.000000
-225.787000 137.715000 -1553.560000 0.833901 0.070879 -0.547344 1.000000
-226.700000 137.223000 -1555.000000 0.849481 0.063510 -0.523784 1.000000
