# .PCD v0.7 - Point Cloud Data file format
# 4 175 0
# 1 2 0
# 3 118 0
# 119 166 0
# 167 175 0
VERSION 0.7
FIELDS x y z normal_x normal_y normal_z curvature
SIZE 4 4 4 4 4 4 4
TYPE F F F F F F F
COUNT 1 1 1 1 1 1 1
WIDTH 175
HEIGHT 1
VIEWPOINT 0 0 0 1 0 0 0
POINTS 175
DATA ascii
-82.017500 -80.282400 -1393.950000 -0.402170 0.747156 0.529166 0.010000
-82.720100 -79.475900 -1395.660000 -0.288778 0.770871 0.567772 1.000000
-83.701100 -78.943900 -1397.310000 -0.194277 0.833199 0.517722 1.000000
-84.848600 -78.561800 -1398.920000 -0.176935 0.945420 0.273634 1.000000
-86.142800 -78.414500 -1400.370000 -0.244913 0.952670 -0.180104 1.000000
-87.788300 -79.201800 -1401.220000 -0.410150 0.743611 -0.528034 1.000000
-89.632300 -79.935900 -1401.410000 -0.496430 0.631903 -0.595194 1.000000
-91.418800 -80.768400 -1401.740000 -0.565201 0.556993 -0.608528 1.000000
-93.082200 -81.788600 -1402.170000 -0.619941 0.498995 -0.605538 1.000000
-94.601000 -83.079000 -1402.450000 -0.662565 0.449180 -0.599370 1.000000
-101.700000 -125.237000 -1334.670000 0.248947 0.669104 0.700233 1.000000
-101.642000 -123.586000 -1335.820000 0.229051 0.727822 0.646383 0.010000
-101.653000 -122.123000 -1337.190000 0.206735 0.777254 0.594254 1.000000
-101.674000 -120.741000 -1338.650000 0.182605 0.817442 0.546300 1.000000
-101.667000 -119.359000 -1340.110000 0.177413 0.790242 0.586551 1.000000
-101.660000 -117.959000 -1341.560000 0.173864 0.760978 0.625048 1.000000
-101.683000 -116.651000 -1343.090000 0.170324 0.737575 0.653432 1.000000
-101.730000 -115.407000 -1344.670000 0.168196 0.720095 0.673182 1.000000
-101.783000 -114.181000 -1346.260000 0.169573 0.707205 0.686372 1.000000
-101.808000 -112.905000 -1347.810000 0.176399 0.696949 0.695087 1.000000
-101.774000 -111.425000 -1349.180000 0.194738 0.599845 0.776056 1.000000
-101.729000 -109.892000 -1350.480000 0.216314 0.514114 0.829997 1.000000
-101.681000 -108.366000 -1351.790000 0.243262 0.446792 0.860930 1.000000
-101.632000 -106.871000 -1353.130000 0.276665 0.397329 0.874978 1.000000
-101.566000 -105.294000 -1354.380000 0.316812 0.362475 0.876494 1.000000
-101.369000 -103.544000 -1355.340000 0.366069 0.362189 0.857212 1.000000
-100.869000 -101.713000 -1355.780000 0.416914 0.405678 0.813393 1.000000
-100.129000 -99.855100 -1355.930000 0.462737 0.444325 0.767105 1.000000
-99.399200 -98.032100 -1356.360000 0.507052 0.480726 0.715403 1.000000
-99.354400 -96.322800 -1357.410000 0.544895 0.511558 0.664377 1.000000
-99.616100 -95.113100 -1358.910000 0.579513 0.537186 0.612859 1.000000
-99.916600 -93.890500 -1360.410000 0.610163 0.558264 0.562176 1.000000
-100.065000 -92.286800 -1361.600000 0.632715 0.568791 0.525499 1.000000
-100.313000 -91.169900 -1363.250000 0.657840 0.551032 0.513430 1.000000
-100.463000 -89.877300 -1364.780000 0.675519 0.538311 0.503881 1.000000
-100.472000 -88.416900 -1366.150000 0.687616 0.529350 0.496964 1.000000
-100.376000 -86.824000 -1367.380000 0.694906 0.523743 0.492747 1.000000
-100.297000 -85.183000 -1368.540000 0.697546 0.521493 0.491401 1.000000
-99.656900 -83.381700 -1369.130000 0.698163 0.521044 0.491001 1.000000
-99.954900 -82.403400 -1370.450000 0.700872 0.519559 0.488710 1.000000
-100.656000 -81.788500 -1372.220000 0.706871 0.516033 0.483780 1.000000
-101.113000 -81.021300 -1374.020000 0.716958 0.509686 0.475596 1.000000
-101.640000 -80.588700 -1375.910000 0.730091 0.493905 0.472255 1.000000
-102.317000 -80.401900 -1377.790000 0.740713 0.477540 0.472546 1.000000
-102.989000 -80.263100 -1379.680000 0.749158 0.459955 0.476659 1.000000
-103.601000 -80.089200 -1381.590000 0.754431 0.441066 0.486101 1.000000
-104.183000 -79.868800 -1383.510000 -0.995676 -0.069299 0.061863 1.000000
-104.885000 -79.990900 -1385.380000 0.010514 0.502445 -0.864545 1.000000
-105.629000 -80.239100 -1387.230000 0.033804 0.513469 -0.857442 1.000000
-106.404000 -80.592400 -1389.060000 -0.026066 0.553714 -0.832299 1.000000
-107.206000 -81.050400 -1390.840000 -0.298008 0.587999 -0.751963 1.000000
-108.054000 -81.663200 -1392.560000 -0.448482 0.576673 -0.682871 1.000000
-108.946000 -82.519600 -1394.140000 -0.929238 0.306724 -0.206003 1.000000
-109.889000 -83.597500 -1395.540000 -0.945523 -0.134155 0.296629 1.000000
-110.873000 -84.861700 -1396.750000 -0.914387 -0.032835 0.403508 1.000000
-111.853000 -86.232200 -1397.850000 0.189113 0.428955 -0.883309 1.000000
-112.848000 -87.691800 -1398.810000 -0.700274 0.595601 0.393542 1.000000
-113.844000 -89.177500 -1399.730000 0.217680 0.725601 -0.652778 1.000000
-114.836000 -90.685300 -1400.620000 0.063219 0.986594 -0.150450 1.000000
-115.816000 -92.221000 -1401.480000 -0.054265 0.986180 -0.156537 1.000000
-116.777000 -93.821000 -1402.230000 -0.204450 0.955365 -0.213257 1.000000
-117.741000 -95.401800 -1403.020000 -0.441138 0.847056 -0.296467 1.000000
-118.705000 -96.975500 -1403.820000 -0.408214 -0.559391 0.721418 1.000000
-119.670000 -98.549600 -1404.620000 -0.340174 -0.515297 0.786607 1.000000
-120.638000 -100.127000 -1405.410000 -0.355099 -0.428339 0.830922 1.000000
-121.613000 -101.702000 -1406.190000 -0.309832 -0.341950 0.887172 1.000000
-122.511000 -103.324000 -1406.970000 -0.185973 -0.268483 0.945162 1.000000
-123.354000 -104.991000 -1407.710000 -0.095426 -0.004228 0.995427 1.000000
-124.196000 -106.684000 -1408.400000 -0.533505 0.175407 -0.827408 1.000000
-125.030000 -108.412000 -1409.010000 -0.557088 0.066790 -0.827763 1.000000
-125.639000 -110.294000 -1409.200000 -0.668285 -0.051519 -0.742119 1.000000
-126.433000 -112.055000 -1408.960000 -0.777098 -0.186130 -0.601227 1.000000
-127.599000 -113.556000 -1408.300000 -0.836665 -0.289170 -0.465158 1.000000
-128.703000 -115.003000 -1407.440000 -0.857229 -0.362376 -0.365843 1.000000
-129.196000 -116.816000 -1406.800000 -0.840054 -0.443343 -0.312661 1.000000
-129.503000 -118.633000 -1406.010000 -0.816750 -0.511238 -0.267498 1.000000
-129.658000 -120.331000 -1404.980000 -0.794742 -0.558843 -0.236810 1.000000
-129.560000 -121.844000 -1403.650000 -0.792077 -0.534702 -0.294462 1.000000
-129.202000 -123.131000 -1402.150000 -0.794822 -0.497037 -0.348157 1.000000
-128.963000 -124.550000 -1400.750000 -0.799044 -0.452046 -0.396463 1.000000
-128.623000 -125.936000 -1399.350000 -0.803311 -0.403250 -0.438271 1.000000
-128.069000 -127.208000 -1397.900000 -0.806433 -0.355262 -0.472711 1.000000
-127.706000 -128.696000 -1396.590000 -0.808530 -0.321826 -0.492654 1.000000
-127.311000 -130.198000 -1395.310000 -0.811784 -0.339655 -0.475017 1.000000
-126.908000 -131.731000 -1394.080000 -0.811939 -0.361505 -0.458333 1.000000
-126.494000 -133.290000 -1392.870000 -0.808816 -0.386998 -0.442773 1.000000
-126.050000 -134.855000 -1391.690000 -0.802346 -0.415569 -0.428419 1.000000
-125.599000 -136.448000 -1390.550000 -0.792238 -0.446848 -0.415554 1.000000
-124.976000 -137.954000 -1389.380000 -0.778479 -0.479945 -0.404505 1.000000
-124.276000 -139.450000 -1388.230000 -0.760583 -0.516316 -0.393612 1.000000
-123.580000 -140.995000 -1387.140000 -0.739479 -0.558981 -0.375115 1.000000
-122.770000 -142.453000 -1386.020000 -0.717523 -0.599520 -0.354595 1.000000
-122.417000 -143.492000 -1384.380000 -0.702515 -0.630515 -0.330035 1.000000
-122.267000 -144.439000 -1382.620000 -0.689696 -0.657796 -0.302694 1.000000
-122.186000 -145.345000 -1380.820000 -0.677907 -0.682458 -0.273300 1.000000
-122.052000 -146.070000 -1378.950000 -0.667723 -0.703996 -0.241940 1.000000
-121.932000 -146.719000 -1377.050000 0.137547 0.805755 0.576056 1.000000
-121.824000 -147.305000 -1375.130000 -0.676194 -0.699508 -0.231195 1.000000
-121.755000 -147.809000 -1373.190000 -0.691743 -0.682107 -0.237111 1.000000
-121.685000 -148.244000 -1371.240000 -0.715078 -0.656084 -0.241280 1.000000
-120.800000 -149.010000 -1369.600000 -0.714920 -0.645112 -0.269667 1.000000
-119.874000 -149.738000 -1367.970000 -0.713691 -0.630531 -0.305083 1.000000
-118.964000 -150.502000 -1366.350000 0.034254 0.729795 0.682807 1.000000
-118.063000 -151.298000 -1364.740000 -0.670917 -0.658199 -0.341532 1.000000
-117.079000 -152.020000 -1363.140000 -0.581038 -0.787499 -0.205523 1.000000
-116.060000 -152.719000 -1361.550000 -0.424060 -0.890477 0.164996 1.000000
-115.029000 -153.416000 -1359.970000 -0.278977 -0.665751 0.692061 1.000000
-113.893000 -154.011000 -1358.430000 -0.202653 -0.691423 0.693445 1.000000
-112.558000 -154.402000 -1356.980000 -0.131178 -0.695442 0.706507 1.000000
-111.240000 -154.877000 -1355.530000 -0.075639 -0.691201 0.718693 1.000000
-109.784000 -155.175000 -1354.180000 -0.030650 -0.682634 0.730117 1.000000
-108.565000 -154.975000 -1352.710000 -0.003622 -0.665363 0.746511 1.000000
-107.673000 -154.277000 -1351.040000 0.008666 -0.642832 0.765959 1.000000
-106.805000 -153.603000 -1349.360000 0.016663 -0.624776 0.780626 1.000000
-105.839000 -152.681000 -1347.860000 -0.028294 -0.748433 0.662606 1.000000
-104.868000 -152.005000 -1346.250000 -0.138710 -0.858328 0.493997 1.000000
-103.871000 -151.448000 -1344.600000 -0.278432 -0.911853 0.301663 1.000000
-102.805000 -150.743000 -1343.050000 -0.367931 -0.918813 0.142863 1.000000
-101.680000 -150.110000 -1341.500000 -0.403239 -0.914159 0.041362 1.000000
-100.471000 -149.310000 -1340.110000 -0.406380 -0.913656 0.009331 1.000000
-99.223300 -148.511000 -1338.760000 -0.393524 -0.918811 0.030434 1.000000
-97.962200 -147.841000 -1337.340000 -0.367256 -0.927243 0.073100 1.000000
-96.680500 -147.449000 -1335.840000 -0.324628 -0.934760 0.144361 1.000000
-95.384200 -147.003000 -1334.370000 -0.273763 -0.931315 0.240223 1.000000
-94.071700 -146.495000 -1332.930000 -0.229892 -0.902456 0.364311 1.000000
-92.682400 -145.954000 -1331.590000 -0.221246 -0.765284 0.604476 1.000000
-91.129500 -145.424000 -1330.430000 -0.230018 0.275458 0.933389 1.000000
-89.572200 -145.167000 -1329.180000 -0.255603 0.441787 0.859937 0.010000
-90.014900 -144.695000 -1329.860000 -0.128641 0.716248 0.685886 1.000000
-90.375200 -143.648000 -1330.970000 0.024525 0.866513 0.498553 1.000000
-89.580500 -141.940000 -1331.630000 0.101124 0.903533 0.416416 1.000000
-89.238700 -140.265000 -1332.700000 0.185316 0.887117 0.422706 1.000000
-89.364300 -138.766000 -1334.010000 0.310621 0.793768 0.522921 1.000000
-89.233000 -137.180000 -1335.190000 0.480009 0.478731 0.735125 1.000000
-89.036400 -135.585000 -1336.320000 0.532604 0.402861 0.744336 1.000000
-89.414800 -134.227000 -1337.760000 0.556828 0.432558 0.709109 1.000000
-89.702700 -132.826000 -1339.170000 0.570737 0.461234 0.679355 1.000000
-89.857000 -131.352000 -1340.530000 0.573816 0.487579 0.658029 1.000000
-89.753400 -129.788000 -1341.760000 0.566122 0.509751 0.647811 1.000000
-89.435700 -128.167000 -1342.880000 0.547891 0.526002 0.650490 1.000000
-89.788900 -126.783000 -1344.290000 -0.926004 -0.156307 -0.343633 1.000000
-89.521600 -125.177000 -1345.430000 -0.871713 -0.371039 -0.320073 1.000000
-89.044600 -123.539000 -1346.490000 -0.840146 -0.437581 -0.320434 1.000000
-88.515000 -121.921000 -1347.560000 -0.823356 -0.464296 -0.326364 1.000000
-88.026600 -120.320000 -1348.680000 -0.811453 -0.478688 -0.335264 1.000000
-88.016300 -118.826000 -1350.020000 -0.803574 -0.484428 -0.345831 1.000000
-87.861900 -117.252000 -1351.260000 -0.801928 -0.481875 -0.353140 1.000000
-87.730500 -115.703000 -1352.520000 -0.806421 -0.475326 -0.351780 1.000000
-87.707300 -114.252000 -1353.890000 -0.814185 -0.468557 -0.342866 1.000000
-87.002300 -112.661000 -1354.900000 -0.823633 -0.460587 -0.330889 1.000000
-86.601100 -111.179000 -1356.180000 -0.835332 -0.450364 -0.315267 1.000000
-86.488600 -109.807000 -1357.630000 -0.841719 -0.441928 -0.310177 1.000000
-86.441600 -108.479000 -1359.110000 -0.848465 -0.430363 -0.308051 1.000000
-85.911200 -107.031000 -1360.410000 -0.851971 -0.415961 -0.317997 1.000000
-86.053400 -105.785000 -1361.970000 -0.899497 -0.357961 -0.250537 1.000000
-85.873900 -104.466000 -1363.450000 -0.918306 -0.248520 -0.308141 1.000000
-85.325100 -103.075000 -1364.770000 -0.916075 -0.171561 -0.362455 1.000000
-84.482000 -101.646000 -1365.900000 -0.910321 -0.136449 -0.390765 1.000000
-83.714300 -100.230000 -1367.110000 -0.922212 -0.230073 -0.310792 1.000000
-83.411100 -98.836000 -1368.500000 -0.906797 -0.132810 -0.400101 1.000000
-83.449200 -97.551400 -1370.030000 -0.925845 -0.246075 -0.286806 1.000000
-83.630300 -96.350600 -1371.630000 -0.927649 -0.275748 -0.251852 1.000000
-83.511400 -95.053200 -1373.160000 -0.603190 0.510037 0.613207 1.000000
-82.669800 -93.695800 -1374.360000 -0.682920 0.469458 0.559670 1.000000
-82.127000 -92.367900 -1375.730000 -0.731465 0.461765 0.501729 1.000000
-81.858900 -91.094600 -1377.260000 -0.758721 0.476806 0.443844 1.000000
-81.719400 -89.900300 -1378.870000 -0.770887 0.504069 0.389421 1.000000
-82.162800 -88.979100 -1380.600000 -0.756485 0.551306 0.351842 1.000000
-82.101500 -87.860100 -1382.240000 -0.749361 0.574212 0.329757 1.000000
-82.063500 -86.781200 -1383.920000 -0.730824 0.602144 0.321432 1.000000
-82.135800 -85.780900 -1385.650000 -0.710737 0.628540 0.315896 1.000000
-81.733000 -84.594600 -1387.220000 -0.680224 0.664244 0.309958 1.000000
-81.525300 -83.450900 -1388.860000 -0.650371 0.694247 0.308282 1.000000
-81.630000 -82.384400 -1390.550000 -0.599134 0.726087 0.337396 1.000000
-81.874900 -81.349000 -1392.260000 -0.498340 0.741605 0.449087 1.000000
