# .PCD v0.7 - Point Cloud Data file format
# 4 84 0
# 1 11 0
# 12 32 0
# 33 65 0
# 66 84 0
VERSION 0.7
FIELDS x y z normal_x normal_y normal_z curvature
SIZE 4 4 4 4 4 4 4
TYPE F F F F F F F
COUNT 1 1 1 1 1 1 1
WIDTH 84
HEIGHT 1
VIEWPOINT 0 0 0 1 0 0 0
POINTS 84
DATA ascii
101.300000 146.999000 -1550.680000 -0.944173 0.134458 -0.300763 0.010000
100.907000 146.622000 -1549.570000 -0.934331 0.160369 -0.318287 1.000000
100.490000 146.428000 -1548.420000 -0.925783 0.186877 -0.328639 1.000000
100.007000 146.352000 -1547.290000 -0.920722 0.206474 -0.331118 1.000000
99.524500 145.923000 -1546.230000 -0.913755 0.240195 -0.327656 1.000000
99.128400 145.584000 -1545.110000 -0.910671 0.273729 -0.309436 1.000000
98.213900 145.021000 -1544.500000 -0.897716 0.309731 -0.313326 1.000000
98.159300 145.120000 -1543.270000 -0.898368 0.273661 -0.343577 1.000000
97.829000 145.413000 -1542.120000 -0.899574 0.228881 -0.371995 1.000000
97.676000 146.011000 -1541.050000 -0.899451 0.169044 -0.403003 1.000000
97.127400 145.780000 -1539.960000 -0.910637 0.159652 -0.381119 1.000000
96.609500 145.670000 -1538.850000 -0.921211 0.159944 -0.354665 1.000000
96.048300 145.546000 -1537.750000 -0.927328 0.170523 -0.333144 1.000000
95.704700 145.828000 -1536.600000 -0.934896 0.166198 -0.313603 1.000000
95.506800 146.272000 -1535.470000 -0.934289 0.138294 -0.328603 1.000000
95.033800 146.084000 -1534.340000 -0.919582 0.152355 -0.362156 1.000000
94.597900 146.489000 -1533.260000 -0.909768 0.124817 -0.395907 1.000000
94.047600 146.219000 -1532.180000 -0.891016 0.149549 -0.428633 1.000000
93.487500 146.003000 -1531.100000 -0.872840 0.169499 -0.457626 1.000000
92.849000 145.914000 -1530.050000 -0.856346 0.178487 -0.484576 1.000000
92.010900 145.429000 -1528.420000 -0.837304 0.193919 -0.511193 1.000000
91.257700 145.527000 -1527.440000 -0.831839 0.172654 -0.527479 1.000000
90.447600 145.130000 -1526.600000 -0.840504 0.184565 -0.509401 1.000000
90.040300 145.503000 -1525.490000 -0.854767 0.177381 -0.487759 1.000000
89.574200 145.840000 -1524.400000 -0.865204 0.180093 -0.467962 1.000000
89.054600 145.921000 -1523.280000 -0.867984 0.198103 -0.455367 1.000000
88.330100 145.525000 -1522.360000 -0.846759 0.216798 -0.485795 1.000000
87.593300 145.302000 -1521.400000 -0.817100 0.225344 -0.530630 1.000000
87.240000 145.965000 -1520.420000 -0.791622 0.215023 -0.571926 1.000000
86.648900 146.582000 -1519.520000 -0.764609 0.206631 -0.610472 1.000000
85.894300 146.910000 -1518.600000 -0.766982 0.213444 -0.605128 0.010000
85.899700 147.971000 -1517.970000 -0.771307 0.212409 -0.599973 1.000000
85.709600 149.019000 -1517.340000 -0.774343 0.213421 -0.595688 1.000000
85.778900 150.207000 -1517.010000 -0.778636 0.213926 -0.589882 1.000000
86.002800 151.422000 -1517.010000 -0.796926 0.192568 -0.572562 1.000000
86.145600 152.649000 -1517.020000 -0.817433 0.173317 -0.549331 1.000000
86.470300 153.838000 -1517.110000 -0.838948 0.160688 -0.519948 1.000000
86.957200 154.952000 -1517.330000 -0.856625 0.145646 -0.494955 1.000000
87.097700 156.179000 -1517.320000 -0.867198 0.137713 -0.478542 1.000000
87.369600 157.381000 -1517.410000 -0.874690 0.129618 -0.467029 1.000000
87.554400 158.602000 -1517.400000 -0.879663 0.120731 -0.460018 1.000000
87.835700 159.773000 -1517.680000 -0.882317 0.107885 -0.458125 1.000000
88.010800 160.990000 -1517.790000 -0.878476 0.116452 -0.463377 1.000000
88.374900 162.113000 -1518.160000 -0.873566 0.130022 -0.469016 1.000000
88.781100 163.202000 -1518.580000 -0.869194 0.143538 -0.473179 1.000000
89.135800 164.355000 -1518.840000 -0.866459 0.149220 -0.476427 1.000000
89.605600 165.442000 -1519.190000 -0.861758 0.154864 -0.483105 1.000000
90.045400 166.467000 -1519.730000 -0.857858 0.152573 -0.490715 1.000000
90.532300 167.386000 -1520.390000 -0.855921 0.140988 -0.497516 1.000000
91.139500 168.085000 -1521.210000 -0.853347 0.131348 -0.504526 1.000000
91.734700 168.673000 -1522.120000 -0.854186 0.109167 -0.508378 1.000000
92.277000 169.614000 -1522.710000 -0.853708 0.079243 -0.514688 0.010000
92.929200 169.730000 -1523.750000 -0.852744 0.086945 -0.515042 1.000000
93.539500 170.094000 -1524.760000 -0.851314 0.093721 -0.516217 1.000000
94.133100 169.921000 -1525.830000 -0.864393 0.121933 -0.487809 1.000000
94.829600 169.573000 -1526.790000 -0.874550 0.138638 -0.464695 1.000000
95.165100 169.018000 -1527.840000 -0.882697 0.146589 -0.446496 1.000000
95.476100 168.386000 -1528.860000 -0.887103 0.141773 -0.439259 1.000000
95.808900 167.567000 -1529.720000 -0.890136 0.128494 -0.437204 1.000000
96.221600 167.012000 -1530.740000 -0.894404 0.114199 -0.432435 1.000000
96.545200 166.356000 -1531.740000 -0.898849 0.103575 -0.425844 1.000000
96.900700 165.709000 -1532.730000 -0.911426 0.100820 -0.398921 1.000000
97.285800 165.183000 -1533.780000 -0.924388 0.093517 -0.369812 1.000000
97.709800 164.445000 -1534.680000 -0.932783 0.084618 -0.350364 1.000000
98.081500 164.013000 -1535.770000 -0.945208 0.054752 -0.321846 1.000000
98.361300 163.484000 -1536.850000 -0.951024 0.025146 -0.308094 1.000000
98.632100 162.962000 -1537.940000 -0.956440 -0.002889 -0.291913 1.000000
98.899500 162.479000 -1539.050000 -0.961930 -0.031925 -0.271426 1.000000
99.151900 161.978000 -1540.150000 -0.965604 -0.058879 -0.253263 1.000000
99.432600 161.372000 -1541.190000 -0.967101 -0.071975 -0.243997 1.000000
99.821700 160.422000 -1541.870000 -0.965873 -0.051901 -0.253764 1.000000
100.109000 159.561000 -1542.710000 -0.966586 -0.040556 -0.253114 1.000000
100.193000 158.955000 -1543.780000 -0.969448 -0.047420 -0.240669 1.000000
100.521000 157.863000 -1544.260000 -0.965648 -0.027326 -0.258415 1.000000
100.770000 156.721000 -1544.660000 -0.958030 0.026716 -0.285420 1.000000
100.852000 155.715000 -1545.370000 -0.951522 0.079673 -0.297083 1.000000
101.123000 155.019000 -1546.360000 -0.950575 0.104092 -0.292528 1.000000
101.412000 154.364000 -1547.360000 -0.950934 0.122014 -0.284318 1.000000
101.473000 153.199000 -1547.770000 -0.933622 0.191171 -0.302993 1.000000
101.285000 152.112000 -1548.330000 -0.940563 0.163681 -0.297573 1.000000
101.270000 151.021000 -1548.910000 -0.947209 0.132852 -0.291797 1.000000
101.414000 150.052000 -1549.660000 -0.952911 0.107424 -0.283586 1.000000
101.480000 149.461000 -1550.740000 -0.957133 0.094793 -0.273698 1.000000
101.435000 148.226000 -1550.710000 -0.952298 0.111913 -0.283909 1.000000
