# .PCD v0.7 - Point Cloud Data file format
# 6 160 0
# 1 16 0
# 17 52 0
# 53 98 0
# 99 129 0
# 130 148 0
# 149 160 0
VERSION 0.7
FIELDS x y z normal_x normal_y normal_z curvature
SIZE 4 4 4 4 4 4 4
TYPE F F F F F F F
COUNT 1 1 1 1 1 1 1
WIDTH 160
HEIGHT 1
VIEWPOINT 0 0 0 1 0 0 0
POINTS 160
DATA ascii
46.617000 35.463300 -1675.340000 -0.884530 0.120147 0.450745 0.010000
47.619400 37.469600 -1674.580000 -0.884082 0.112900 0.453488 1.000000
47.919500 39.796400 -1674.240000 -0.885392 0.104452 0.452957 1.000000
48.274400 42.139100 -1674.210000 -0.888154 0.097360 0.449114 1.000000
48.573100 44.489400 -1674.160000 -0.892028 0.091210 0.442682 1.000000
48.759700 46.851100 -1674.100000 -0.896768 0.085745 0.434113 1.000000
48.659700 49.036500 -1675.020000 -0.899596 0.085571 0.428258 1.000000
48.781700 51.377200 -1675.360000 -0.903485 0.083984 0.420311 1.000000
48.446000 53.722800 -1675.330000 -0.906552 0.082750 0.413904 0.739990
48.323400 55.780800 -1676.500000 -0.904927 0.083163 0.417363 0.852123
48.588600 58.081400 -1677.010000 -0.905318 0.080595 0.417017 1.000000
48.874400 60.390200 -1676.550000 -0.908291 0.077051 0.411182 1.000000
49.292900 62.643400 -1675.950000 -0.911087 0.074171 0.405487 1.000000
49.777000 65.297000 -1675.280000 -0.912760 0.072079 0.402087 1.000000
49.404100 67.401300 -1676.300000 -0.909126 0.068309 0.410881 1.000000
49.606400 69.747100 -1676.040000 -0.908337 0.069188 0.412476 0.793919
50.034700 72.077700 -1676.060000 -0.907772 0.070663 0.413468 0.578735
50.395900 74.417800 -1675.960000 -0.908088 0.071917 0.412557 0.912559
50.628000 76.776100 -1675.980000 -0.909099 0.073059 0.410124 1.000000
50.885700 79.082900 -1675.500000 -0.911539 0.072944 0.404692 1.000000
51.375100 81.373800 -1675.140000 -0.915125 0.071782 0.396730 1.000000
51.343500 83.558000 -1676.060000 -0.917053 0.075845 0.391486 1.000000
51.602700 85.805300 -1675.360000 -0.923084 0.072745 0.377657 1.000000
51.487300 88.150400 -1675.680000 -0.927140 0.070978 0.367932 1.000000
51.346700 90.428000 -1675.040000 -0.933147 0.064325 0.353693 1.000000
51.552700 92.690200 -1674.360000 -0.939272 0.057462 0.338329 1.000000
52.397300 94.852500 -1673.890000 -0.944692 0.051611 0.323873 1.000000
52.999700 97.134400 -1673.670000 -0.948182 0.047815 0.314110 1.000000
52.973100 99.454200 -1673.190000 -0.950813 0.044919 0.306492 0.010000
52.647900 101.680000 -1673.930000 -0.948706 0.042873 0.313239 1.000000
52.780700 102.919000 -1675.950000 -0.942936 0.040339 0.330520 1.000000
51.496100 104.822000 -1676.540000 -0.939545 0.045996 0.339321 1.000000
51.602300 105.155000 -1678.880000 -0.931912 0.050495 0.359153 1.000000
51.210900 106.988000 -1680.330000 -0.926600 0.066003 0.370210 1.000000
50.608900 107.772000 -1682.490000 -0.916770 0.078352 0.391656 1.000000
49.374000 108.544000 -1684.360000 -0.904637 0.091665 0.416209 1.000000
49.099700 110.086000 -1686.130000 -0.900440 0.110456 0.420722 1.000000
49.005600 112.332000 -1686.880000 -0.900258 0.132156 0.414814 1.000000
48.540800 113.938000 -1688.560000 -0.898456 0.149682 0.412761 1.000000
48.062600 115.737000 -1690.030000 -0.895253 0.166259 0.413376 1.000000
47.655500 117.608000 -1691.430000 -0.890319 0.180627 0.417979 1.000000
47.337100 119.494000 -1692.820000 -0.883347 0.191758 0.427700 1.000000
46.883000 121.268000 -1694.330000 -0.875985 0.188981 0.443776 1.000000
46.344500 122.966000 -1695.890000 -0.870547 0.162005 0.464652 1.000000
46.312000 125.305000 -1696.270000 -0.865854 0.136061 0.481439 1.000000
45.513700 127.382000 -1697.080000 -0.859717 0.109282 0.498943 1.000000
45.206300 128.471000 -1699.160000 -0.855784 0.089749 0.509488 1.000000
44.591800 130.272000 -1700.580000 -0.852526 0.069126 0.518094 1.000000
43.564400 131.660000 -1702.200000 -0.850111 0.054892 0.523735 1.000000
42.674700 133.258000 -1703.710000 -0.848996 0.042356 0.526699 1.000000
41.895600 135.010000 -1705.100000 -0.849429 0.031435 0.526766 1.000000
41.311300 136.782000 -1706.560000 -0.851261 0.022828 0.524246 1.000000
40.469900 138.346000 -1708.130000 -0.852465 0.018617 0.522452 0.665700
39.433500 139.747000 -1709.730000 -0.852908 0.022620 0.521571 1.000000
38.477700 141.619000 -1710.830000 -0.853228 0.045774 0.519526 1.000000
38.537800 143.693000 -1711.970000 -0.853707 0.066289 0.516518 1.000000
37.775900 145.646000 -1713.080000 -0.853405 0.082881 0.514617 1.000000
37.202600 147.474000 -1714.470000 -0.852589 0.096287 0.513634 1.000000
36.666800 149.327000 -1715.850000 -0.851242 0.107318 0.513682 1.000000
35.970500 151.090000 -1717.270000 -0.848922 0.115259 0.515797 1.000000
35.259800 152.661000 -1718.900000 -0.839732 0.119849 0.529609 1.000000
34.498200 154.598000 -1720.030000 -0.831088 0.123952 0.542152 1.000000
33.663900 156.032000 -1721.720000 -0.819490 0.123550 0.559618 1.000000
32.440800 157.046000 -1723.480000 -0.805924 0.119344 0.579865 1.000000
31.019400 157.305000 -1725.360000 -0.791410 0.112061 0.600926 0.010000
30.466300 155.071000 -1725.920000 -0.790633 0.108533 0.602594 1.000000
29.851900 152.793000 -1726.140000 -0.790460 0.106029 0.603267 0.941466
29.378600 150.471000 -1726.100000 -0.791224 0.104119 0.602598 0.854033
28.995800 148.153000 -1726.410000 -0.791530 0.102209 0.602523 0.719657
28.356500 145.914000 -1726.850000 -0.791129 0.100787 0.603288 1.000000
28.082600 143.562000 -1726.940000 -0.789608 0.099021 0.605569 1.000000
27.615600 141.248000 -1727.140000 -0.787347 0.097642 0.608729 1.000000
27.030800 138.988000 -1727.550000 -0.784819 0.097090 0.612072 1.000000
27.440800 136.704000 -1727.070000 -0.779277 0.090741 0.620076 1.000000
27.419900 134.348000 -1726.820000 -0.774788 0.086162 0.626323 1.000000
26.926100 132.033000 -1726.930000 -0.772679 0.083444 0.629289 1.000000
26.285800 129.792000 -1727.360000 -0.772798 0.081462 0.629403 1.000000
26.105800 127.437000 -1727.160000 -0.770433 0.077939 0.632739 1.000000
25.688700 125.105000 -1727.220000 -0.770079 0.075126 0.633509 1.000000
24.470800 123.424000 -1728.360000 -0.777357 0.074225 0.624665 1.000000
24.584000 121.066000 -1728.150000 -0.775404 0.075246 0.626967 1.000000
24.605300 118.729000 -1727.760000 -0.773090 0.079717 0.629267 1.000000
24.175300 116.400000 -1727.680000 -0.774033 0.084376 0.627498 1.000000
23.332700 114.322000 -1728.440000 -0.780840 0.088061 0.618494 1.000000
22.368600 112.394000 -1729.430000 -0.789470 0.090809 0.607034 1.000000
21.550000 110.436000 -1730.480000 -0.798066 0.093196 0.595320 1.000000
20.390000 108.871000 -1731.830000 -0.808985 0.094326 0.580212 1.000000
19.472700 107.054000 -1733.050000 -0.818177 0.096083 0.566882 1.000000
18.891300 104.873000 -1733.770000 -0.823765 0.098631 0.558287 1.000000
18.355600 102.570000 -1733.930000 -0.827109 0.095174 0.553925 1.000000
17.433600 100.664000 -1734.990000 -0.835165 0.091233 0.542380 1.000000
16.693800 98.639000 -1735.970000 -0.830631 0.085771 0.550178 1.000000
16.034000 96.519900 -1736.800000 -0.825578 0.080230 0.558555 1.000000
15.045200 94.728100 -1738.000000 -0.815427 0.074300 0.574071 1.000000
14.348300 92.545500 -1738.600000 -0.810016 0.068938 0.582341 1.000000
12.961800 91.264100 -1740.040000 -0.792458 0.063994 0.606560 1.000000
12.182900 89.223200 -1740.950000 -0.781222 0.059151 0.621445 1.000000
11.094400 87.528400 -1742.200000 -0.763124 0.055431 0.643870 1.000000
10.321000 85.438000 -1743.010000 -0.749909 0.061083 0.658715 1.000000
9.026750 83.650200 -1743.870000 -0.731459 0.064490 0.678829 1.000000
8.568810 81.361000 -1744.280000 -0.725946 0.068653 0.684317 1.000000
7.983920 79.119700 -1744.780000 -0.730947 0.072186 0.678605 1.000000
6.939850 77.235000 -1745.760000 -0.745174 0.073385 0.662820 1.000000
5.792140 75.580800 -1747.010000 -0.757177 0.073568 0.649054 1.000000
4.115940 74.781700 -1748.480000 -0.767699 0.075070 0.636399 1.000000
3.692070 72.534000 -1749.100000 -0.767894 0.076392 0.636006 1.000000
2.856170 70.502200 -1749.990000 -0.766754 0.079772 0.636965 1.000000
1.237840 69.383100 -1751.310000 -0.764150 0.094782 0.638037 1.000000
0.742156 67.118600 -1751.800000 -0.753853 0.111547 0.647505 1.000000
-0.283775 65.135500 -1752.600000 -0.741116 0.131200 0.658433 1.000000
-0.817339 62.828800 -1752.700000 -0.727358 0.147099 0.670308 0.010000
-0.727528 60.614900 -1751.860000 -0.719715 0.155954 0.676527 1.000000
0.031146 58.730300 -1750.640000 -0.719704 0.160861 0.675389 1.000000
1.107940 57.093200 -1749.310000 -0.724201 0.164871 0.669590 1.000000
0.985889 54.912400 -1748.390000 -0.720144 0.178494 0.670472 1.000000
2.426800 53.648400 -1746.990000 -0.729848 0.177989 0.660032 1.000000
3.092530 51.732600 -1745.770000 -0.733358 0.184051 0.654455 1.000000
3.723310 50.055200 -1744.220000 -0.739397 0.189049 0.646183 1.000000
5.069050 49.059100 -1742.540000 -0.753588 0.186957 0.630200 1.000000
5.438190 47.536100 -1740.760000 -0.749978 0.192325 0.632886 1.000000
5.992090 45.510000 -1739.670000 -0.743829 0.202704 0.636891 1.000000
6.993990 43.781200 -1738.390000 -0.738926 0.209101 0.640520 1.000000
8.049760 42.151100 -1737.030000 -0.733926 0.213922 0.644663 1.000000
9.283700 41.237900 -1735.230000 -0.731990 0.210369 0.648024 1.000000
10.325200 39.916300 -1733.560000 -0.727445 0.209617 0.653364 1.000000
10.932900 38.102500 -1732.160000 -0.723021 0.213798 0.656910 1.000000
11.868300 36.763100 -1730.440000 -0.732673 0.210967 0.647057 1.000000
13.038800 35.733300 -1728.660000 -0.745752 0.204186 0.634163 1.000000
13.947400 34.126900 -1727.170000 -0.752825 0.201753 0.626538 1.000000
15.073300 33.306300 -1725.260000 -0.766403 0.193977 0.612372 1.000000
16.439500 32.593600 -1723.460000 -0.780064 0.185025 0.597718 1.000000
17.600600 31.325300 -1721.830000 -0.787716 0.179842 0.589203 1.000000
17.576900 29.082100 -1721.060000 -0.782793 0.185717 0.593923 1.000000
18.241200 27.162400 -1719.840000 -0.784038 0.184504 0.592658 0.961722
18.354400 25.014000 -1718.850000 -0.780190 0.185039 0.597549 1.000000
18.967600 23.027200 -1717.710000 -0.778389 0.179740 0.601502 1.000000
19.850500 21.292700 -1716.360000 -0.777677 0.167563 0.605922 1.000000
20.483500 19.354800 -1715.150000 -0.771223 0.153207 0.617854 1.000000
20.972800 17.444200 -1713.840000 -0.760608 0.133643 0.635307 1.000000
22.412400 17.199400 -1711.970000 -0.767222 0.097744 0.633890 1.000000
23.879400 17.438500 -1710.130000 -0.780347 0.067815 0.621659 1.000000
25.255000 16.954200 -1708.260000 -0.789133 0.041714 0.612805 0.010000
26.710100 17.915000 -1706.650000 -0.803230 0.033266 0.594739 1.000000
28.068200 18.041000 -1704.720000 -0.813027 0.026311 0.581631 1.000000
29.222200 18.718000 -1702.760000 -0.820457 0.030193 0.570910 1.000000
30.352300 19.542000 -1700.850000 -0.826694 0.037260 0.561416 1.000000
31.511900 21.350000 -1699.850000 -0.829825 0.048258 0.555934 1.000000
32.743800 22.432800 -1698.140000 -0.835192 0.055507 0.547151 1.000000
33.892900 23.833700 -1696.610000 -0.839424 0.063779 0.539722 1.000000
35.148500 24.715300 -1694.800000 -0.844456 0.070036 0.531026 1.000000
36.183900 25.532400 -1692.830000 -0.849566 0.076383 0.521923 1.000000
37.457400 26.754200 -1691.250000 -0.855429 0.083180 0.511198 1.000000
38.429200 28.084300 -1689.550000 -0.861996 0.089141 0.499016 1.000000
39.341300 30.096600 -1688.690000 -0.865733 0.096569 0.491102 1.000000
40.494300 31.275000 -1686.990000 -0.873697 0.101433 0.475778 1.000000
41.537400 32.628300 -1685.350000 -0.881270 0.107117 0.460314 1.000000
42.482600 33.422200 -1683.330000 -0.888378 0.111079 0.445474 1.000000
43.245600 33.377300 -1681.080000 -0.887561 0.110465 0.447250 1.000000
44.497100 34.583200 -1679.470000 -0.886322 0.115947 0.448319 1.000000
45.676900 35.134500 -1677.490000 -0.885361 0.117666 0.449767 1.000000
