# .PCD v0.7 - Point Cloud Data file format
VERSION 0.7
FIELDS x y z normal_x normal_y normal_z curvature
SIZE 4 4 4 4 4 4 4
TYPE F F F F F F F
COUNT 1 1 1 1 1 1 1
WIDTH 403
HEIGHT 1
VIEWPOINT 0 0 0 1 0 0 0
POINTS 403
DATA ascii
0.165032 -0.062479202 -1.67997 0.28264177 0.9525336 0.11310792 7.5508723e-36
0.15750501 -0.0400027 -1.67752 0.49969515 -0.71520257 -0.48866147 7.5536073e-36
0.157489 -0.047531199 -1.67255 0.98436236 0.12372874 0.1253871 0
0.172627 -0.080007002 -1.66257 -0.068248197 0.16739872 0.9835242 7.5505739e-36
0.174979 -0.082556501 -1.64499 0.30696404 0.77067584 -0.55841905 7.5536073e-36
0.172279 -0.072527997 -1.67502 0.0095274104 0.24628484 0.96915066 7.5507116e-36
0.165984 -0.057486199 -1.6575 -0.056069668 -0.51364052 -0.85617149 7.5602195e-36
0.16500901 -0.041783102 -1.6921099 -0.97021276 -0.21794777 0.10576361 3.1529215e-43
0.162524 -0.034968998 -1.69654 -0.30663344 0.86293352 0.4016487 0
0.17750201 -0.082924202 -1.6504 -0.18283318 0.91418171 0.36172345 7.5842431e-36
0.175341 -0.082521997 -1.645 -0.53456539 0.71789479 -0.44594499 7.5687114e-36
0.165299 -0.054942898 -1.68497 0.047270373 0.9446007 0.32479993 7.5660941e-36
0.167271 -0.0722019 -1.64999 0.58604729 -0.37902114 -0.71616447 2.0739217e-43
0.167806 -0.049998201 -1.68748 -0.97892404 0.044274982 0.19936773 1.9758308e-43
0.17122 -0.072488502 -1.6749901 0.0051553459 0.1403112 0.99009401 1.9898438e-43
0.16962799 -0.077364601 -1.6475 0.47138372 -0.32303384 -0.82063788 1.835701e-43
0.160007 -0.0425165 -1.6730601 0.35531551 -0.73268187 -0.58045512 0
0.16998 -0.081034802 -1.64749 0.7776776 0.4984692 -0.38307437 6.7262326e-44
0.16473299 -0.067372903 -1.655 0.85854059 -0.20948666 -0.46799937 6.5020249e-43
0.164941 -0.054880898 -1.68499 0.047270373 0.9446007 0.32479993 3.9937006e-43
0.164938 -0.047568802 -1.69013 -0.034199905 -0.035061955 0.9987998 2.9847657e-43
0.174895 -0.082105301 -1.64499 0.30696404 0.77067584 -0.55841905 7.5522728e-36
0.169706 -0.079795703 -1.6475 0.7423901 0.13635275 -0.65594578 7.442119e-36
0.16811199 -0.055022102 -1.68505 -0.21687922 0.97090888 0.10148557 7.560825e-36
0.16502 -0.069911003 -1.65994 0.9599306 0.24580327 0.13458838 4.6663239e-43
0.16495501 -0.0700057 -1.65496 0.99945217 -0.025271691 0.02136969 4.1898824e-43
0.164654 -0.047387298 -1.6900001 -0.034199905 -0.035061955 0.9987998 0.0021628069
0.169397 -0.072515003 -1.67504 0.0026257138 0.36889622 0.9294669 0.0015442566
0.172516 -0.077509403 -1.67063 0.018379262 0.92525625 0.37889722 0.0017977395
0.167512 -0.067511298 -1.65283 0.32646033 -0.51044303 -0.79553223 3.3631163e-43
0.160034 -0.035008602 -1.69804 -0.30214289 0.36217469 0.88178182 5.1147394e-43
0.162875 -0.040052101 -1.69524 -0.36222568 0.19534212 0.91139126 7.5884108e-36
0.16732199 -0.064291 -1.65494 0.21228002 -0.33245692 -0.9189176 7.5521588e-36
0.16738901 -0.067510702 -1.6787601 0.20456894 0.59868068 0.77442431 7.5482349e-36
0.17249 -0.082405098 -1.65249 -0.055647101 0.95408893 0.29430893 7.5482349e-36
0.175008 -0.075008497 -1.67307 -0.48609686 0.39282915 0.78063762 7.4419676e-36
0.17538001 -0.082408503 -1.645 -0.53456539 0.71789479 -0.44594499 7.5472226e-36
0.164958 -0.062506303 -1.67984 0.31909746 0.90423024 0.28380361 7.5482349e-36
0.175116 -0.072376199 -1.67249 -0.79615736 -0.60091674 -0.070940703 7.5473603e-36
0.15744001 -0.044622399 -1.67249 0.99475497 0.0093429564 -0.10185923 7.5621136e-36
0.16989499 -0.066615403 -1.65247 -0.13522147 -0.68356198 -0.71725744 5.0727004e-43
0.16751599 -0.0492048 -1.689 -0.90732878 -0.049875807 0.41745284 7.5468667e-36
0.17235599 -0.083207697 -1.6475 0.4980906 0.79454052 -0.34729117 7.5675642e-36
0.15751 -0.045056898 -1.67187 0.99249154 0.0045069479 -0.12223021 3.9376487e-43
0.16747899 -0.057503998 -1.65798 -0.30805829 -0.68192679 -0.66338217 0
0.17013501 -0.077492401 -1.66998 0.14570481 0.98172581 0.12241114 2.0879347e-43
0.169981 -0.061865401 -1.66247 -0.99076647 -0.10442958 0.086465694 2.6344411e-43
0.15747701 -0.032343201 -1.69499 0.76217425 -0.58941817 -0.26772493 3.9937006e-43
0.17025501 -0.079957902 -1.66247 0.11753033 0.98249602 0.14452751 0
0.166673 -0.055034999 -1.68516 0.057452872 0.73554617 0.67503405 5.0166485e-43
0.162489 -0.0513204 -1.66245 0.1746864 -0.70353502 -0.68885636 2.1019477e-43
0.15746801 -0.047500599 -1.6725 0.98436236 0.12372874 0.1253871 2.718519e-43
0.169973 -0.062561698 -1.68058 -0.13525149 0.72799003 0.67211419 0
0.16017599 -0.045016099 -1.69309 -0.099958338 0.13017972 0.98643881 4.2459343e-43
0.162853 -0.0423343 -1.67247 -0.87017173 -0.46129227 -0.17323577 2.0178698e-43
0.162457 -0.0438798 -1.6925 -0.41168246 0.51918685 0.74897438 3.3631163e-43
0.170204 -0.056970902 -1.68363 -0.90017486 -0.38561413 0.20245236 4.0357396e-43
0.157525 -0.037542898 -1.6814899 0.53454298 -0.68580616 -0.49389642 3.3350903e-43
0.162498 -0.035989702 -1.69498 -0.97971994 -0.19723594 0.035310864 7.5631123e-36
0.164756 -0.058101799 -1.65745 0.16977972 -0.4036479 -0.89902347 7.5476359e-36
0.169994 -0.081020698 -1.65745 0.48517367 0.86852831 0.10131665 3.4471942e-43
0.165558 -0.049949199 -1.66496 -0.88471085 -0.41670483 -0.20891106 2.1159607e-43
0.16542999 -0.0475135 -1.69029 -0.034199905 -0.035061955 0.9987998 4.2599473e-43
0.15484899 -0.037396699 -1.68499 0.75794542 -0.31345746 -0.57206923 2.1439867e-43
0.16359399 -0.0550078 -1.68503 0.029622056 0.64630926 0.76250041 2.1019477e-43
0.163113 -0.057269402 -1.6825 0.76093173 0.61841887 0.19631869 3.4191683e-43
0.16744199 -0.070002399 -1.67598 0.22688071 0.89773333 0.37762421 0
0.17331199 -0.072407797 -1.6499799 -0.87909514 -0.43642175 -0.19164506 2.1860256e-43
0.162533 -0.0350351 -1.69653 -0.30663344 0.86293352 0.4016487 3.9796876e-43
0.169985 -0.075052097 -1.67399 0.24748583 0.59920466 0.7613833 6.7262326e-44
0.16487101 -0.050029401 -1.68827 -0.032454804 0.66032833 0.75027543 0.93348145
0.17503101 -0.071753003 -1.6743 -0.97742009 -0.21101831 -0.011009333 0
0.172694 -0.064951502 -1.67746 -0.98190981 -0.18408585 -0.044333886 4.0357396e-43
0.154993 -0.034740601 -1.69736 0.82249415 -0.11682012 0.55664748 1.1210388e-43
0.172501 -0.063695103 -1.6791101 -0.98050344 -0.18093379 0.076655053 3.3070644e-43
0.16397101 -0.057559401 -1.68353 0.55087101 0.48457167 0.67950821 0
0.170615 -0.062532 -1.6806999 -0.19577955 -0.030089464 0.98018622 2.2140516e-43
0.157464 -0.040080801 -1.69583 0.09487471 0.61241657 0.78482151 1.5694543e-43
0.17755499 -0.0830964 -1.64996 -0.2386791 0.94685775 -0.21562162 2.2140516e-43
0.168859 -0.0574232 -1.66496 -0.95982587 -0.27859715 0.033435855 0
0.16742501 -0.070236497 -1.67497 0.54205686 0.79990375 0.25754291 3.7134409e-43
0.16689999 -0.0748678 -1.65 0.9614529 0.080974586 -0.26277635 7.5595752e-36
0.159936 -0.038613599 -1.67748 0.060432393 -0.70166361 -0.70994091 4.6803369e-43
0.170724 -0.064793199 -1.65496 -0.90353382 -0.32205465 -0.28267902 4.0637655e-43
0.17248499 -0.066548899 -1.67748 -0.23084176 0.28044587 0.93169856 2.3541814e-43
0.15718 -0.047464199 -1.66996 0.99724787 0.036580406 -0.064486697 4.568233e-43
0.169991 -0.059826601 -1.68248 -0.20233078 0.38669699 0.8997376 2.2280646e-43
0.17122699 -0.082507402 -1.65294 0.19178747 0.93545979 0.29687133 9.8651412e-43
0.15646701 -0.035003901 -1.68749 0.65134245 -0.74196982 -0.15885143 4.3580382e-43
0.164946 -0.069983102 -1.65497 0.99945217 -0.025271691 0.02136969 7.5653049e-36
0.162662 -0.042521 -1.69359 -0.47645873 0.54450852 0.69028801 7.5857139e-36
0.159668 -0.0458421 -1.69248 -0.023883015 0.66836417 0.7434507 4.8905316e-43
0.170238 -0.062499799 -1.66247 -0.97424519 -0.22253467 0.036395468 0
0.15992901 -0.042127799 -1.69499 0.11837512 0.35366184 0.92785269 2.0178698e-43
0.16009 -0.0475013 -1.6666 0.45982137 -0.55221671 -0.69542867 4.0357396e-43
0.157434 -0.0365647 -1.68249 0.5605427 -0.66467845 -0.49395791 0.00011049562
0.171848 -0.083498597 -1.64999 0.32473859 0.94542831 0.026649229 6.7262326e-44
0.16484199 -0.0538412 -1.65996 -0.13938518 -0.58845937 -0.79642159 8.0714792e-43
0.162347 -0.041940399 -1.67249 0.12916908 -0.97154564 -0.19853057 2.2701035e-43
0.172407 -0.064343899 -1.6775 -0.98190981 -0.18408585 -0.044333886 7.4897931e-36
0.157483 -0.048276201 -1.66997 0.94185185 0.32167336 0.097166754 7.5659592e-36
0.169659 -0.068738297 -1.67746 -0.15027592 0.41694006 0.89642519 7.5434365e-36
0.170164 -0.057252198 -1.68247 -0.89435333 -0.36491516 0.25878373 3.6994279e-43
0.169903 -0.065021798 -1.67901 -0.28404161 0.434358 0.8547827 0
0.159913 -0.047777802 -1.68999 0.20767681 0.91260356 0.35217202 0.0010775309
0.167464 -0.051639002 -1.6875 -0.59610027 0.46018812 0.6579448 2.4943113e-43
0.169994 -0.077562802 -1.6689301 0.22554348 0.97121966 0.076567009 0
0.17498 -0.0725004 -1.67102 -0.78328294 -0.60174137 -0.15612535 2.0178698e-43
0.16055501 -0.032500599 -1.69902 -0.70957869 0.097422831 0.69785881 1.3592595e-43
0.164966 -0.052531201 -1.68687 0.0098094642 0.45824209 0.88877332 5.3809861e-43
0.172536 -0.065174997 -1.6780699 -0.98190981 -0.18408585 -0.044333886 2.0178698e-43
0.15727501 -0.037540101 -1.69742 0.7820816 0.26831222 0.56245613 1.3592595e-43
0.162458 -0.055865601 -1.68248 0.84038556 0.50426739 0.1986617 3.6994279e-43
0.16462199 -0.042347498 -1.6900001 -0.95732087 -0.27513608 -0.088526413 4.4281031e-43
0.162522 -0.045039799 -1.69188 -0.38140213 0.4355959 0.8153457 2.0178698e-43
0.167676 -0.067831397 -1.6525 0.32646033 -0.51044303 -0.79553223 0.00013298693
0.17004 -0.057523701 -1.68344 -0.89435333 -0.36491516 0.25878373 4.6803369e-43
0.154716 -0.034935798 -1.69248 0.95725191 0.28924483 0.0024827747 0
0.17005301 -0.082419299 -1.64975 0.78660429 0.60295397 -0.13304196 2.6904931e-43
0.171317 -0.0674925 -1.65249 -0.86148691 -0.46837789 -0.19611837 0.004428362
0.159685 -0.045004301 -1.6931601 -0.023760064 0.5966031 0.80218464 0.0055980785
0.157401 -0.045889501 -1.67496 0.9660266 0.25763708 -0.020390244 2.0178698e-43
0.169847 -0.082105003 -1.64994 0.78660429 0.60295397 -0.13304196 0.78188068
0.16180301 -0.059996601 -1.65997 0.94645447 0.274692 -0.16961209 2.2140516e-43
0.16053499 -0.049890399 -1.68749 0.65423709 0.69595605 0.29600507 5.3809861e-43
0.17336901 -0.067402698 -1.67498 -0.96275073 -0.25336945 0.094419099 7.5568094e-36
0.155432 -0.0374033 -1.69248 0.9214769 0.38791177 0.020118071 0
0.17612199 -0.075065397 -1.66996 -0.96213472 -0.26449552 0.065870762 0
0.175037 -0.077502102 -1.6657701 -0.47250393 0.81005746 0.34719875 2.3822074e-43
0.16000301 -0.030822299 -1.6995 -0.2522454 0.10142662 0.96233302 0
0.172564 -0.070028998 -1.67563 -0.33602405 0.26182273 0.9047302 0
0.163785 -0.044851001 -1.66995 -0.8339678 -0.4763951 -0.27846986 5.2128303e-43
0.16000301 -0.042757701 -1.67249 0.21470165 -0.91564709 -0.33984348 0
0.163489 -0.0388074 -1.69499 -0.64867008 0.034671802 0.7602796 1.4153114e-43
0.172003 -0.0622258 -1.6799901 -0.25598538 0.54442686 0.79879344 4.2179084e-43
0.174824 -0.082337402 -1.6525 -0.030708971 0.96905631 0.24492206 0
0.15481199 -0.0354084 -1.69499 0.94230103 0.3275001 0.069371738 2.4102334e-43
0.159472 -0.052404299 -1.66496 0.935808 0.048212837 -0.34919757 2.4102334e-43
0.161311 -0.047565602 -1.69121 0.23049352 0.80815476 0.54199499 1.4012985e-43
0.171315 -0.075001501 -1.64829 -0.31295049 -0.31793913 -0.89497304 0
0.165001 -0.067661598 -1.65451 0.39921752 -0.14654875 -0.9050684 2.4242463e-43
0.169963 -0.0600539 -1.68231 -0.15841347 0.97952992 0.1242028 3.0828566e-44
0.170882 -0.059946101 -1.6799901 -0.88909698 -0.43859676 0.13091788 3.2930514e-43
0.164167 -0.042772401 -1.69249 -0.49426425 0.44655749 0.745848 3.629363e-43
0.170592 -0.065027803 -1.67918 -0.39630014 0.50924891 0.76394486 0
0.176139 -0.074986301 -1.6699899 -0.96213472 -0.26449552 0.065870762 3.3631163e-43
0.173931 -0.074899301 -1.6499701 -0.9437753 -0.33057415 0.002986894 1.2182294e-36
0.16243801 -0.054094899 -1.65994 0.48467213 -0.43773085 -0.75728768 7.5676345e-36
0.15489 -0.035838298 -1.68999 0.5238772 -0.81627434 -0.24341103 7.539568e-36
0.167218 -0.0755658 -1.65 0.97862238 0.13502102 -0.15513742 0
0.175211 -0.075139597 -1.67247 -0.75039732 0.63594151 0.18022822 7.5853932e-36
0.16502801 -0.065133601 -1.65579 0.5318554 -0.26705912 -0.8036226 7.5546971e-36
0.157454 -0.037417401 -1.69748 -0.25436872 0.44410992 0.85910589 7.539568e-36
0.159935 -0.053012501 -1.66996 0.88214934 0.45783767 0.11044094 2.2841165e-43
0.175052 -0.072598502 -1.67399 -0.64408201 -0.51537418 0.56528562 0
0.157304 -0.033786099 -1.69914 0.40649059 -0.12343284 0.9052788 5.8013756e-43
0.172463 -0.081224702 -1.65995 0.046801884 0.95819283 0.28226957 0
0.157351 -0.033765499 -1.69248 0.37559918 -0.83041185 -0.41151115 7.5543068e-36
0.16267499 -0.0624098 -1.65748 0.82309133 -0.17135374 -0.5414412 7.5527923e-36
0.16007601 -0.050056498 -1.66471 0.57378054 -0.38454971 -0.72311646 0
0.169907 -0.077706903 -1.66748 0.83098215 0.538885 0.13809986 5.0446745e-44
0.16187599 -0.050025702 -1.68839 0.28350568 0.62906337 0.72381198 2.2000386e-43
0.159861 -0.0486646 -1.68748 0.7450332 0.60660654 0.27740586 7.4814928e-36
0.157433 -0.0350127 -1.69871 -0.17759392 0.32478255 0.92896539 7.5548579e-36
0.17258 -0.067537703 -1.67698 -0.47404754 0.75774479 0.44844368 7.5840845e-36
0.162352 -0.043056 -1.66996 -0.45863232 -0.68273354 -0.56879812 7.5853365e-36
0.162486 -0.0452113 -1.66748 -0.15813452 -0.61272871 -0.77431065 7.5410488e-36
0.169856 -0.072431304 -1.6749901 0.00081217167 0.094933219 0.99548334 7.5410488e-36
0.16988701 -0.060816001 -1.65747 -0.95230991 -0.28075412 -0.11951147 7.5619873e-36
0.167162 -0.069721401 -1.67498 0.79294592 0.53765899 0.28663495 7.5703214e-36
0.167492 -0.0495901 -1.68748 -0.90732878 -0.049875807 0.41745284 5.7172977e-43
0.157545 -0.037536401 -1.6973701 -0.25436872 0.44410992 0.85910589 7.5690701e-36
0.170192 -0.060021501 -1.68235 -0.90440387 0.23038112 0.35913536 6.7262326e-44
0.17648 -0.078104697 -1.66246 -0.87576795 0.4780511 -0.067064837 7.5860941e-36
0.15742899 -0.040150698 -1.67747 0.49969515 -0.71520257 -0.48866147 7.562458e-36
0.157392 -0.038896099 -1.6799999 0.36434811 -0.80091441 -0.47517008 3.4612072e-43
0.164977 -0.050044801 -1.66351 -0.22458594 -0.65611172 -0.72047108 7.5481201e-36
0.166484 -0.052447502 -1.66246 -0.83196628 -0.53517246 -0.14636418 7.5718941e-36
0.164759 -0.058715999 -1.68247 0.23910727 0.71559715 0.65631425 7.5718941e-36
0.161145 -0.052473899 -1.6849999 0.8475737 0.45188183 0.27824751 7.4955788e-36
0.17231201 -0.076531798 -1.6725 -0.060790695 0.77901399 0.62405264 5.7172977e-43
0.169294 -0.054462399 -1.68498 -0.87439853 0.17371076 0.45304722 2.746545e-43
0.154989 -0.035071399 -1.69695 0.82249415 -0.11682012 0.55664748 2.746545e-43
0.157543 -0.0350645 -1.69864 -0.17759392 0.32478255 0.92896539 0
0.168668 -0.057396501 -1.65995 -0.91165382 -0.30197451 -0.27874497 2.760558e-43
0.17486601 -0.075615399 -1.67248 -0.47861004 0.79868448 0.3647404 2.760558e-43
0.16381 -0.059907701 -1.6799901 0.90282214 0.34287941 0.25951087 0
0.16214401 -0.039984401 -1.67747 -0.72937715 -0.62770474 -0.2720215 7.4472388e-36
0.166592 -0.047039598 -1.68998 -0.17898087 0.39816645 0.89968288 7.5725484e-36
0.171183 -0.077502102 -1.67147 0.14863904 0.90432912 0.4001191 3.7835059e-44
0.169993 -0.0712277 -1.64994 0.084615551 -0.49832526 -0.8628512 7.5856579e-36
0.162394 -0.041117199 -1.6749901 -0.39365879 -0.86454999 -0.31238765 4.2879733e-43
0.160055 -0.042522401 -1.69469 -0.30968291 0.4368884 0.84452653 4.3159993e-43
0.176906 -0.082174703 -1.6525 -0.47875237 0.30951238 0.82158279 1.5134023e-43
0.160052 -0.040037502 -1.6955301 -0.14067852 0.29888707 0.94386232 2.7885839e-43
0.169296 -0.074908197 -1.67248 0.83984977 0.51719409 0.16481087 2.7885839e-43
0.16730601 -0.055158202 -1.68499 0.0018722697 -0.10424607 0.99454975 2.7885839e-43
0.158834 -0.040022999 -1.69583 0.15016857 0.38572195 0.910312 0
0.159848 -0.034517702 -1.6875 -0.12064239 -0.96794665 -0.22028323 2.8025969e-43
0.174933 -0.081755497 -1.655 -0.33723697 0.93258554 0.12866804 0
0.16245601 -0.040546902 -1.69499 -0.20583136 0.42575192 0.88111788 0
0.16975901 -0.081879698 -1.65248 0.61151749 0.7779991 0.14409623 0
0.169975 -0.0786357 -1.6649801 0.23482367 0.88102716 0.41066891 0
0.17 -0.059994001 -1.66246 -0.99609351 -0.084081739 -0.026980184 0
0.16240001 -0.047630899 -1.6649801 0.077055454 -0.74095708 -0.667117 0
0.15912101 -0.049995199 -1.67496 0.86299908 0.45709047 0.21517639 3.8255448e-43
0.172765 -0.075006098 -1.67398 -0.2559348 0.52014917 0.81482649 2.8166099e-43
0.177044 -0.082489602 -1.6475 -0.52418602 0.8515057 -0.012924217 3.8115318e-43
0.16475999 -0.0486353 -1.66497 -0.52543455 -0.73872405 -0.42214376 3.1529215e-43
0.169983 -0.063809201 -1.655 -0.49917057 -0.50333136 -0.70532709 2.8446359e-43
0.15981901 -0.029978501 -1.69926 -0.98494238 -0.11769433 0.12663551 3.9796876e-43
0.174721 -0.0766702 -1.66749 -0.74191463 0.6062178 0.28646588 2.8446359e-43
0.17292701 -0.077644996 -1.66997 -0.32907876 0.91401589 0.23723854 3.8956097e-43
0.176171 -0.079858303 -1.65247 -0.97931087 0.17355764 -0.10405778 2.8586489e-43
0.17460801 -0.069968604 -1.67496 -0.83422834 -0.49418184 0.24463733 1.9197789e-43
0.165024 -0.043412201 -1.69146 -0.99189651 -0.029477531 0.12358174 5.0586875e-43
0.16467699 -0.064937897 -1.67249 0.98706281 0.1454199 0.067528009 6.7262326e-44
0.166354 -0.065352298 -1.655 0.45669726 -0.39395869 -0.79763663 7.5397287e-36
0.16999 -0.056936201 -1.6825 -0.90017486 -0.38561413 0.20245236 4.55422e-43
0.157359 -0.035367299 -1.68499 0.16927461 -0.93099952 -0.32339752 0
0.172142 -0.082511596 -1.65246 0.20621479 0.91714942 0.34104609 4.9605966e-43
0.15564001 -0.037359599 -1.69499 0.90360063 0.41748628 0.095974378 0
0.164988 -0.055014301 -1.6849101 0.047270373 0.9446007 0.32479993 2.8866748e-43
0.16260999 -0.037586 -1.6957901 -0.70940715 -0.10428646 0.6970408 2.8866748e-43
0.17505901 -0.080000199 -1.66118 -0.43457624 0.78825408 0.43565926 4.9185576e-43
0.16749801 -0.058820602 -1.68248 0.093667611 0.50881952 0.8557623 0
0.166549 -0.047495998 -1.68749 -0.88188881 -0.46790168 -0.057793885 7.4210887e-36
0.159941 -0.035923399 -1.69749 -0.30004323 0.4367865 0.84805167 0
0.169992 -0.060412601 -1.65995 -0.96039802 -0.2704004 -0.067225881 0
0.172493 -0.075100198 -1.67399 -0.15148811 0.52161831 0.83962238 1.1760913e-36
0.15972801 -0.042920701 -1.67246 0.47001752 -0.84342551 -0.26022485 0
0.16656099 -0.062522203 -1.68045 0.16227467 0.21895944 0.96214539 0
0.157442 -0.0347219 -1.68999 0.35150543 -0.92328417 -0.15488784 7.4217775e-36
0.172472 -0.081574202 -1.65745 0.2749697 0.9553898 0.10780523 1.1770556e-36
0.166637 -0.052528899 -1.68698 -0.024676302 0.38228908 0.92371321 0
0.15985499 -0.043705501 -1.66996 0.38406953 -0.80789834 -0.44697973 0
0.16671599 -0.050037801 -1.68923 -0.13124003 0.98745078 0.087846227 1.1866064e-36
0.164425 -0.041928601 -1.69249 -0.61129552 0.010663698 0.79133058 1.1869465e-36
0.175237 -0.077574998 -1.6649899 -0.9353618 0.041575789 0.35124031 1.1774516e-36
0.16127101 -0.0324587 -1.69748 -0.92501044 -0.27492231 0.26224691 1.186981e-36
0.15955199 -0.0325316 -1.69901 -0.27356982 0.53196895 0.80135423 1.1828728e-36
0.169001 -0.079922304 -1.65 0.92609388 0.34975052 -0.14150883 1.1868518e-36
0.17104401 -0.059202299 -1.68247 -0.33578303 0.20295706 0.91981423 1.1855805e-36
0.174933 -0.084101297 -1.6475 -0.0057128365 0.97942567 -0.20172428 1.1850352e-36
0.16589101 -0.072287701 -1.65249 0.94372058 -0.10169088 -0.31472272 1.1865275e-36
0.160007 -0.0299732 -1.6992199 -0.98494238 -0.11769433 0.12663551 1.1784934e-36
0.176117 -0.075818896 -1.66748 -0.8831473 0.46901304 0.0088123269 7.4121233e-36
0.158866 -0.047554199 -1.66746 0.73728156 -0.43142018 -0.51989663 0
0.15972 -0.047498699 -1.6900001 0.23812616 0.97107255 0.017720399 0
0.16709401 -0.068417698 -1.6525 0.42162022 -0.53810984 -0.72984535 0
0.169448 -0.059911501 -1.6649899 -0.95864451 -0.26509884 0.10355359 0
0.16965 -0.059982501 -1.65749 -0.66982687 -0.6467635 -0.36473131 0
0.159962 -0.047506999 -1.69059 0.23049352 0.80815476 0.54199499 0
0.157536 -0.0325002 -1.69441 0.48736373 -0.70051605 -0.5213002 0
0.17294 -0.080071896 -1.66246 -0.24637854 0.77977997 0.57553518 0
0.166641 -0.065032102 -1.6797301 0.75637728 0.28590566 0.58834624 0
0.162521 -0.058277901 -1.65855 0.45840397 0.21033095 -0.86349678 0
0.157746 -0.0452222 -1.6699899 0.68785352 -0.52769113 -0.49839705 0
0.16234399 -0.037513301 -1.69583 -0.92098552 -0.10775704 0.37439826 0
0.167482 -0.068938904 -1.67748 0.52665699 0.64101958 0.55832458 0
0.15994801 -0.037529901 -1.67997 0.33841285 -0.83634752 -0.43127668 0
0.16583601 -0.044772301 -1.68998 -0.92426431 -0.37962109 -0.040290568 0
0.16746899 -0.058171201 -1.65745 -0.19637641 -0.46261713 -0.86453551 0
0.167446 -0.0632727 -1.6799901 0.04464658 0.16943221 0.98453003 0
0.16998801 -0.076322399 -1.67247 0.41167769 0.76234162 0.4993563 0
0.15989199 -0.049560402 -1.66496 0.55714124 -0.38020784 -0.73826528 0
0.164911 -0.069608003 -1.6599801 0.9599306 0.24580327 0.13458838 0
0.15969899 -0.0292801 -1.69748 0.47383523 -0.79865152 0.37099314 0
0.16387001 -0.039840199 -1.69248 -0.91007012 -0.39780465 0.1162921 0
0.167482 -0.057517301 -1.68353 -0.28337517 0.80957252 0.51409221 0
0.16472299 -0.0600002 -1.68173 0.32848859 0.51442981 0.79212195 0
0.157337 -0.040757 -1.69498 0.49418205 0.81996727 0.28885591 0
0.16775499 -0.0525214 -1.68668 -0.96062183 0.23230763 0.15244296 0
0.172291 -0.072505899 -1.64929 -0.30313954 -0.32360873 -0.89631683 0
0.167669 -0.070000701 -1.65122 0.21251094 -0.51202559 -0.83226728 0
0.16999599 -0.0795018 -1.66248 0.43516761 0.4666557 0.76997507 0
0.176907 -0.079837702 -1.65746 -0.70743591 0.69433886 0.13201484 0
0.16402701 -0.067487501 -1.65748 0.97810352 0.20741969 -0.017044954 0
0.163256 -0.040385898 -1.69498 -0.89430499 0.32323226 0.30941799 0
0.167537 -0.065194897 -1.6543601 0.28565425 -0.59112448 -0.75430334 0
0.157417 -0.042278599 -1.67497 0.60320395 -0.4769944 -0.63923496 0
0.16012 -0.0299768 -1.69749 -0.98494238 -0.11769433 0.12663551 0
0.176524 -0.077080302 -1.66496 -0.9353618 0.041575789 0.35124031 0
0.17069 -0.080008097 -1.66289 0.11753033 0.98249602 0.14452751 0
0.156434 -0.032574099 -1.69749 0.95464557 -0.27376255 0.11707198 0
0.161911 -0.0341736 -1.6975 -0.48470417 0.10735086 0.86806548 0
0.157501 -0.035023998 -1.68575 0.099972211 -0.97253895 -0.21017516 0
0.169989 -0.077259399 -1.66997 0.3974216 0.90869135 0.12781265 0
0.169802 -0.059981499 -1.65994 -0.95985949 -0.27320677 -0.063465022 0
0.15650401 -0.035091601 -1.68999 0.49280888 -0.85971111 -0.13429913 0
0.162435 -0.054787301 -1.68497 0.021715904 0.99923795 -0.03243272 0
0.16963901 -0.077276997 -1.66748 0.83098215 0.538885 0.13809986 0
0.157369 -0.0472834 -1.67247 0.98646498 -0.044119123 0.15792501 0
0.16284101 -0.052519601 -1.66159 0.39862221 -0.60852772 -0.68614459 0
0.161559 -0.037399501 -1.68249 -0.8242048 -0.5519557 -0.12661491 0
0.176836 -0.083540402 -1.64999 -0.19142175 0.92027831 0.34124121 0
0.172517 -0.082483001 -1.6465501 0.35776031 0.75111794 -0.5548237 0
0.16756 -0.067513898 -1.6787601 0.20456894 0.59868068 0.77442431 0
0.17491101 -0.071923599 -1.67249 -0.79615736 -0.60091674 -0.070940703 0
0.168121 -0.050687399 -1.68747 -0.97353524 0.057156961 0.22127408 0
0.17573 -0.080000304 -1.65995 -0.83783537 0.23222061 0.49407038 0
0.17497601 -0.081682898 -1.65748 -0.36930218 0.89595288 0.24674757 0
0.15987401 -0.033573501 -1.68997 0.077342108 -0.89665353 -0.43592498 0
0.16993 -0.063358001 -1.6799901 -0.15413158 0.51209921 0.84498394 0
0.16958299 -0.0575689 -1.6835001 -0.096251778 0.97397745 -0.20519146 0
0.164987 -0.062398601 -1.6799901 0.28264177 0.9525336 0.11310792 0
0.157772 -0.0307221 -1.69749 0.52170652 -0.68073398 0.51422131 0
0.174979 -0.077660203 -1.6649899 -0.47250393 0.81005746 0.34719875 0
0.161079 -0.037380401 -1.6799901 -0.64491636 -0.68127078 -0.34634244 0
0.17721701 -0.0839068 -1.64749 -0.52418602 0.8515057 -0.012924217 0
0.157478 -0.031297602 -1.69748 0.89346242 -0.44715825 -0.042123988 0
0.17233001 -0.078579403 -1.66497 -0.19352704 0.90097982 0.38830742 0
0.165584 -0.064973697 -1.67747 0.90330005 0.33471975 0.26834995 0
0.157033 -0.044786099 -1.6749901 0.9947924 -0.091347456 -0.04520715 0
0.164979 -0.051026002 -1.6875 0.047527932 0.47409895 0.87918788 0
0.167521 -0.050056901 -1.68865 -0.90732878 -0.049875807 0.41745284 0
0.17452 -0.070019998 -1.67497 -0.83422834 -0.49418184 0.24463733 0
0.15948801 -0.052457601 -1.66995 0.87762594 0.46941268 0.09707953 0
0.157353 -0.032496199 -1.6991301 0.35274822 -0.53769255 0.76580375 0
0.17241301 -0.078406401 -1.66746 0.014145921 0.98924232 0.14560072 0
0.167542 -0.072596803 -1.64966 0.26419014 -0.21234222 -0.94080514 0
0.17266899 -0.072537303 -1.67497 -0.27487382 0.26981995 0.92284429 0
0.15958899 -0.0425262 -1.6948 0.11837512 0.35366184 0.92785269 0
0.160917 -0.0574583 -1.65997 0.98280537 -0.0068910001 -0.18451606 4.4421161e-43
0.170647 -0.067511201 -1.67774 -0.31990695 0.42699096 0.84577674 0
0.16888499 -0.070001602 -1.67679 0.12574059 0.81411052 0.56693327 1.8917529e-43
0.172066 -0.077891998 -1.64738 0.00059070974 -0.0024311452 -0.99999684 0
0.16829699 -0.0522351 -1.68498 -0.91657716 -0.39879531 0.029130563 1.8917529e-43
0.15989099 -0.036222201 -1.68249 -0.04213598 -0.87747049 -0.47777623 0
0.174986 -0.083424501 -1.64995 -0.13487928 0.93395883 0.33095098 0
0.170331 -0.070009202 -1.67655 -0.28541183 0.46550056 0.83776444 8.4498297e-43
0.16465899 -0.067482203 -1.66 0.96662056 0.1801732 0.18216006 0
0.15691 -0.039891299 -1.6950001 0.75949502 0.56383634 0.32443169 1.9057659e-43
0.15754101 -0.040032402 -1.6774499 0.49969515 -0.71520257 -0.48866147 0
0.157088 -0.032502901 -1.6950001 0.76217425 -0.58941817 -0.26772493 7.9033233e-43
0.172334 -0.080099702 -1.66246 0.10428192 0.72013873 -0.68594861 0
0.16494399 -0.050898999 -1.6625 -0.17118205 -0.66504979 -0.726915 0
0.17339499 -0.066039398 -1.67748 0.075949445 0.19137795 0.97857356 9.7109984e-43
0.175632 -0.074961998 -1.66745 -0.98364687 -0.007081599 -0.17996857 0
0.171876 -0.0824297 -1.64749 0.56187749 0.74628603 -0.35686252 0
0.172346 -0.071388498 -1.65 -0.40782684 -0.86606282 -0.28915817 1.9337919e-43
0.16843501 -0.055005401 -1.6849999 -0.21687922 0.97090888 0.10148557 0
0.169928 -0.059834901 -1.66246 -0.96337163 -0.26006126 0.065446638 1.9337919e-43
0.157783 -0.0425267 -1.67456 0.62943041 -0.48114812 -0.61017525 0
0.17240199 -0.081724599 -1.655 0.076061346 0.97164911 0.22385858 1.9478049e-43
0.157489 -0.0347642 -1.6875 0.15402688 -0.98139513 -0.11462715 0
0.165759 -0.069757499 -1.66248 0.95263249 0.23133753 0.19741917 1.9478049e-43
0.171104 -0.067518003 -1.67746 -0.31313187 0.43427691 0.84460169 1.9478049e-43
0.176117 -0.077490002 -1.66247 -0.72731519 0.68515235 0.039734576 1.9478049e-43
0.160073 -0.045050301 -1.6684901 0.38699821 -0.58940732 -0.70910609 1.1868998e-42
0.172442 -0.077899203 -1.6699899 0.1180445 0.99110925 0.061383367 1.4223179e-42
0.16479 -0.055120301 -1.65915 -0.13938518 -0.58845937 -0.79642159 2.1439867e-43
0.172435 -0.0725457 -1.6749901 0.0095274104 0.24628484 0.96915066 1.9618179e-43
0.15998 -0.040788598 -1.67498 0.23945487 -0.83460182 -0.49608582 3.4191683e-43
0.170505 -0.0624099 -1.6599801 -0.97695696 -0.20606919 0.05559314 4.3300123e-43
0.167485 -0.0505553 -1.6849999 -0.96758252 -0.2152613 -0.13208567 1.0888089e-42
0.16998 -0.080011003 -1.66126 0.72192532 0.65930349 0.21010174 1.9758308e-43
0.154618 -0.034969501 -1.6950001 0.94230103 0.3275001 0.069371738 1.9758308e-43
0.161433 -0.034828302 -1.68998 -0.83854896 -0.53142238 -0.12010775 1.0005271e-42
0.176985 -0.080094598 -1.65745 -0.70743591 0.69433886 0.13201484 1.9758308e-43
0.17640699 -0.079914801 -1.65494 -0.75612497 0.64356643 -0.11873166 1.6535322e-43
0.17473 -0.079172499 -1.66249 -0.38791943 0.59474123 0.70413166 7.6014306e-36
0.15977401 -0.030285601 -1.69499 0.0022959318 -0.68578714 -0.72779858 1.7249984e-42
0.162306 -0.0482025 -1.68999 -0.081866875 0.67073458 0.73716545 1.1668432e-36
0.17721701 -0.082486399 -1.64999 -0.2386791 0.94685775 -0.21562162 7.7903592e-36
0.16160899 -0.045003001 -1.69248 -0.35597584 0.51120853 0.78227043 4.4841551e-43
0.16743299 -0.060041599 -1.65636 -0.39736202 -0.47596744 -0.78457534 1.0789998e-42
0.16628499 -0.047616199 -1.68998 -0.034199905 -0.035061955 0.9987998 7.465583e-36
0.175942 -0.0825001 -1.65245 -0.47875237 0.30951238 0.82158279 nan
0.160413 -0.032494299 -1.69249 -0.20923509 -0.91235268 -0.35189945 0
0.17688499 -0.079294197 -1.65995 -0.83783537 0.23222061 0.49407038 0
0.172363 -0.0764971 -1.6475 -0.0094920462 -0.28406167 -0.95875901 7.4816427e-36
0.16324601 -0.0374167 -1.69499 -0.93170094 -0.34944785 0.099093944 0
0.15481199 -0.037046999 -1.6875 0.76049787 -0.61493677 -0.20855623 0
0.162389 -0.051196001 -1.68748 0.086377025 0.45271689 0.88746065 0
0.16749901 -0.060091101 -1.6818 0.11868925 0.39881578 0.90931779 0
0.16071901 -0.0351284 -1.69748 -0.44483051 0.50779194 0.73774868 0
0.171817 -0.062823303 -1.67997 -0.25598538 0.54442686 0.79879344 0
0.17489301 -0.075684398 -1.6699899 -0.60362321 0.78153276 0.15762477 3.5873241e-43
0.169429 -0.072580799 -1.67497 0.68936306 0.28195509 0.66729295 0
0.157989 -0.047337301 -1.67498 0.93332875 0.31230316 0.17709935 0
0.163634 -0.064511798 -1.6574399 0.7775839 0.45412496 -0.43489513 1.176163e-36
0.15570401 -0.039618202 -1.68247 0.90319782 0.031296048 -0.42808205 7.7340181e-36
0.164966 -0.0477768 -1.6900001 -0.034199905 -0.035061955 0.9987998 1.1762061e-36
0.162499 -0.055006899 -1.68478 0.097720683 0.96866947 0.22832024 7.7342018e-36
0.17490099 -0.080472097 -1.65995 -0.35970697 0.83737755 0.41159418 0
0.159851 -0.032631099 -1.69249 0.18628404 -0.95364225 -0.23635727 0
0.165738 -0.045616399 -1.6909 -0.063081227 0.10024922 0.99296063 0
0.173917 -0.077584498 -1.66746 -0.55048233 0.79559302 0.25298417 0
0.15943301 -0.030818099 -1.69962 -0.2522454 0.10142662 0.96233302 0
0.174932 -0.082519703 -1.65214 -0.02882722 0.91984254 0.39122716 7.4781645e-36
0.159959 -0.035156399 -1.68499 -0.040958658 -0.95496267 -0.29388553 7.1746481e-43
0.158732 -0.044849101 -1.69248 0.78849727 0.49233687 0.36861423 7.4785088e-36
0.17698599 -0.081000797 -1.65499 -0.40255043 0.84193468 0.35930371 3.5873241e-43
0.16094001 -0.034838699 -1.68749 -0.73376864 -0.63879496 -0.2313538 0
0.16507401 -0.062698103 -1.65606 0.54165667 -0.015823105 -0.84045088 0
0.16999499 -0.062673397 -1.65617 -0.95212483 -0.2466464 -0.18062086 7.4788532e-36
0.159802 -0.046448801 -1.66745 0.38668132 -0.5969311 -0.70295864 0
0.16651 -0.0674183 -1.67749 0.84911215 0.42179209 0.31796223 0
0.169891 -0.081228301 -1.655 0.43460312 0.87053156 0.23085694 7.4791976e-36
0.176202 -0.073616698 -1.67248 -0.91367131 -0.039319072 0.40454763 0.00019895658
0.15492301 -0.0361863 -1.6925 0.95725191 0.28924483 0.0024827747 0.0085554123
0.162486 -0.052698899 -1.6867501 0.34584644 0.52337557 0.77876067 0
