# .PCD v0.7 - Point Cloud Data file format
VERSION 0.7
FIELDS x y z normal_x normal_y normal_z curvature
SIZE 4 4 4 4 4 4 4
TYPE F F F F F F F
COUNT 1 1 1 1 1 1 1
WIDTH 409
HEIGHT 1
VIEWPOINT 0 0 0 1 0 0 0
POINTS 409
DATA ascii
-0.075047001 -0.00063999998 -1.68341 0.9689368 0.22961949 0.09184996 0
-0.072714999 -1.7e-05 -1.69013 0.74248898 0.42545685 0.51739401 9.2392877e-38
-0.060228001 -0.010082 -1.68265 -0.67955929 -0.44894111 -0.58021641 9.2966131e-38
-0.060215998 0.008405 -1.70749 -0.3782618 -0.31304422 0.87116092 9.3070791e-38
-0.074858002 0.007344 -1.68655 0.43226835 -0.78465247 0.44436982 9.2963799e-38
-0.073996 0.0083860001 -1.6848 0.10169095 -0.97122961 0.2153416 8.2956869e-43
-0.070964001 0.0082430001 -1.68485 -0.21728264 -0.9667688 0.13470839 9.2393773e-38
-0.073081002 0.0078299996 -1.68742 0.15655121 -0.97897267 0.13078289 0
-0.075920001 0.0078469999 -1.68494 0.44581538 -0.85084319 0.2780548 9.2962723e-38
-0.076673999 0.0076850001 -1.68249 0.56810564 -0.80241942 -0.1826994 1.098618e-42
-0.078071997 0.005841 -1.68242 0.90132207 -0.41460311 0.12539068 9.2395119e-38
-0.074823 0.008529 -1.68248 0.35494724 -0.93220788 -0.070717283 9.2952499e-38
-0.072416998 0.0091859996 -1.68225 -0.12101571 -0.99119055 -0.053818852 9.2961647e-38
-0.077384003 0.007398 -1.68246 0.56810564 -0.80241942 -0.1826994 1.3676673e-42
-0.074969001 0.007497 -1.68095 0.21117741 -0.41108304 -0.88680035 9.2396464e-38
-0.077262998 0.0068600001 -1.68485 0.82301837 -0.52138031 0.22539593 0
-0.077542998 0.0061530001 -1.6857899 0.79420722 -0.51320976 0.32534695 9.2960571e-38
-0.077794999 0.0058920002 -1.6849101 0.96479005 0.16113514 0.20788357 1.6367166e-42
-0.076553002 0.0056409999 -1.68744 0.75320667 -0.23067974 0.61600858 9.2397809e-38
-0.076917 0.003604 -1.68497 0.85861212 0.33264393 0.39004266 9.2960212e-38
-0.075549997 0.0029130001 -1.6873699 0.84848154 0.33737314 0.40774807 9.29595e-38
-0.077881001 0.0030350001 -1.68235 0.95346767 0.16797474 0.25036746 1.9057659e-42
-0.077554002 0.0022710001 -1.68233 0.53111899 0.76542944 0.36335984 9.2399154e-38
-0.077362001 0.0027320001 -1.68161 0.52294546 0.03788076 -0.851524 0
-0.074876003 0.0041800002 -1.68058 0.55675173 -0.07389801 -0.82738543 9.2958424e-38
-0.077472001 0.0022209999 -1.68248 0.53111899 0.76542944 0.36335984 2.1748152e-42
-0.077567004 0.004958 -1.6847399 0.96479005 0.16113514 0.20788357 9.24005e-38
-0.070758 0.0080420002 -1.68721 -0.22916195 -0.97084904 0.070263445 9.2962006e-38
-0.069618002 0.0076700002 -1.6867 -0.62891394 -0.72973305 -0.2682479 9.2957348e-38
-0.070188999 0.0071760002 -1.6847 -0.74056804 -0.59831136 -0.30591264 2.4438645e-42
-0.070312999 0.004956 -1.6813 -0.24107537 -0.6583125 -0.71309698 9.2730534e-38
-0.062112998 0.00752 -1.70869 -0.022427693 -0.76818776 0.63983166 9.2964517e-38
-0.071805999 0.00019200001 -1.6809601 0.31667703 0.4050816 -0.85768557 9.2955195e-38
-0.074969001 0.0071430001 -1.68954 0.55577266 -0.4880527 0.67299426 3.2510124e-42
-0.072624996 0.0078419996 -1.68959 0.28907531 -0.95468897 0.070742279 9.2733224e-38
-0.073450997 0.0075480002 -1.69098 0.28928247 -0.93666995 0.1973957 9.2965593e-38
-0.072153002 0.0077169999 -1.6899 0.18419491 -0.98229158 0.03428502 9.2953043e-38
-0.070430003 0.0075900001 -1.69247 0.11429894 -0.9865877 -0.11653538 3.5200617e-42
-0.070041999 0.0074479999 -1.6925 0.11429894 -0.9865877 -0.11653538 9.2734569e-38
-0.071171001 0.0076310001 -1.69486 0.46537516 -0.8846848 -0.027545648 0
-0.069764003 0.007578 -1.69718 0.13599925 -0.98826784 -0.069504842 9.3507189e-38
-0.072908998 0.0062919999 -1.6950001 0.89890832 -0.011000341 0.43799871 1.4012985e-45
-0.072371997 0.0064300001 -1.6949199 0.89890832 -0.011000341 0.43799871 0
-0.070046 0.007588 -1.69827 -0.07867597 -0.98599696 0.14703766 0
-0.070073999 0.0076310001 -1.69739 0.13599925 -0.98826784 -0.069504842 1.3452465e-43
-0.069495 0.0075949999 -1.69866 -0.07867597 -0.98599696 0.14703766 7.1534304e-13
-0.067510001 0.0061400002 -1.7036901 0.89012855 -0.028581843 0.45481235 9.3568538e-38
-0.071142003 0.0072349999 -1.6973 0.13599925 -0.98826784 -0.069504842 9.3507189e-38
-0.070009999 0.007092 -1.69928 0.94790334 0.31662363 -0.035053071 9.2968373e-38
-0.070006996 0.0049089999 -1.69823 0.89521492 0.17457902 0.4100152 5.6051939e-45
-0.068162002 0.0071009998 -1.70231 0.88092792 -0.46413034 0.092460826 9.2949007e-38
-0.075053997 0.0054560001 -1.69085 0.84809762 -0.27250746 0.45438981 9.2778514e-38
-0.075346999 0.0067929998 -1.68989 0.55577266 -0.4880527 0.67299426 0
-0.073679 0.0067670001 -1.6925 0.91042459 -0.057555512 0.40965161 9.2947931e-38
-0.075085998 0.0048110001 -1.68964 0.95599979 0.23395352 -0.17700316 4.7980459e-42
-0.075041004 0.00245 -1.6878 0.84886324 0.35202363 0.39434832 9.2779859e-38
-0.072639003 0.0045369999 -1.6928 0.90430593 0.23966269 0.35325992 9.2946855e-38
-0.072954997 0.00339 -1.69207 0.76788622 0.25944379 0.58569592 5.0670952e-42
-0.072975002 0.0023950001 -1.6915801 0.76788622 0.25944379 0.58569592 9.2945779e-38
-0.075173996 0.0022 -1.6875 0.84886324 0.35202363 0.39434832 5.3361446e-42
-0.069063 0.0083680004 -1.68979 -0.037232753 -0.99480391 -0.094756909 9.294255e-38
-0.067629002 0.007803 -1.69204 -0.31187174 -0.87338865 0.37406993 6.1432925e-42
-0.067860998 0.006784 -1.68952 -0.21456246 -0.96275842 -0.16449659 9.2786585e-38
-0.069261998 0.007222 -1.6921901 0.1125443 -0.99159807 -0.063772976 0
-0.067281999 0.0077539999 -1.69245 -0.34944439 -0.93532634 -0.05525611 9.2941474e-38
-0.069982998 0.0075010001 -1.6937799 -0.19000499 -0.98176849 -0.0053591798 6.4123418e-42
-0.067936003 0.007069 -1.69491 -0.022462917 -0.99924111 -0.031822257 9.2787931e-38
-0.069286004 0.0074459999 -1.69713 0.13599925 -0.98826784 -0.069504842 9.2979314e-38
-0.067170002 0.0072829998 -1.6966799 0.14164214 -0.97555441 -0.16802107 9.2940398e-38
-0.065692 0.007797 -1.69475 0.016015373 -0.96680522 -0.25501215 6.6813911e-42
-0.064978004 0.0065350002 -1.6948299 -0.79992479 -0.6000917 -0.0032127674 9.2789276e-38
-0.065745004 0.0069070002 -1.69381 -0.34839448 -0.89792997 -0.26896659 0
-0.066016003 0.005773 -1.69186 -0.74932057 -0.54849607 -0.37104005 9.2939321e-38
-0.069553003 0.0063840002 -1.69989 0.93163234 0.11863003 0.34349397 9.2790621e-38
-0.066303 0.0079600001 -1.69743 0.40999529 -0.90644675 -0.10128246 9.2980391e-38
-0.064482003 0.0082989996 -1.69735 -0.36095405 -0.90574729 -0.22211261 9.2938245e-38
-0.064902 0.0091030002 -1.69981 -0.030091232 -0.99927193 -0.023454383 7.2194897e-42
-0.067161001 0.007427 -1.69981 0.35779667 -0.92918563 0.092712298 9.2791966e-38
-0.065485001 0.0086589996 -1.6999201 0.47957885 -0.87455809 -0.071779013 0
-0.065677002 0.0081209997 -1.70182 0.52578032 -0.83378291 0.16840768 7.488539e-42
-0.065063 0.008281 -1.70318 0.56392217 -0.73859751 0.36941236 9.2793312e-38
-0.062769003 0.0090709999 -1.7049299 0.14866309 -0.98456222 0.09239307 9.2983619e-38
-0.066829003 0.0073600002 -1.7024601 0.51115799 -0.83841085 0.18916865 9.3027934e-38
-0.066394001 0.006058 -1.70482 0.79130435 -0.20181799 0.57715416 7.7575883e-42
-0.063731 0.009292 -1.70244 0.18027605 -0.98003203 0.083891645 9.2794657e-38
-0.061721001 0.008618 -1.70243 -0.58589953 -0.77671927 -0.23114698 0
-0.061686002 0.0091869999 -1.70465 -0.55978733 -0.8278566 0.035938319 9.3026858e-38
-0.060245998 0.00697 -1.7033401 -0.76346385 -0.53042638 -0.36847097 8.0266376e-42
-0.060729001 0.0070489999 -1.70249 -0.76346385 -0.53042638 -0.36847097 9.2796002e-38
-0.062955 0.0072579999 -1.69903 -0.66134256 -0.70100641 -0.26686323 9.3025781e-38
-0.067433998 0.0045619998 -1.70245 0.93118089 0.034892846 0.36288375 9.2797347e-38
-0.066563003 0.003827 -1.70459 0.8414768 0.27623832 0.46433735 0
-0.068980001 0.0069050002 -1.68725 -0.73243201 -0.60026896 -0.32127941 9.3023629e-38
-0.075289004 -0.001042 -1.68223 0.97882783 0.012604379 0.20429692 1.2600476e-41
-0.075076997 -0.0026499999 -1.68154 0.95885164 0.27643147 0.064723611 9.2818871e-38
-0.066708997 -0.0066539999 -1.68102 -0.25581124 -0.032378335 -0.96618438 9.300641e-38
-0.066762 -0.0092409998 -1.68138 0.28605384 0.099627383 -0.95302022 1.3138574e-41
-0.064972997 -0.011674 -1.68116 0.35417423 0.1445403 -0.92394197 0
-0.071193002 -0.0062870001 -1.68493 0.83999801 0.49629867 0.2192965 9.3005339e-38
-0.062532 -0.0056449999 -1.68556 -0.60498494 -0.69171166 -0.3943707 9.3004784e-38
-0.059985001 -0.0067460001 -1.68981 -0.82426101 -0.49576962 -0.2735073 9.2826943e-38
-0.060178 -0.0074009998 -1.68749 -0.98352569 -0.17996345 -0.017039182 9.3001035e-38
-0.060036 -0.0075139999 -1.68875 -0.81204849 -0.55865812 -0.16875534 1.4483821e-41
-0.061609998 -0.006178 -1.68489 -0.59456503 -0.74184078 -0.31010425 9.2828288e-38
-0.062541999 -0.0076830001 -1.68244 -0.69330579 -0.5361256 -0.48155627 9.3011242e-38
-0.062206 -0.0083689997 -1.68246 -0.63301355 -0.47612754 -0.61040676 9.2999958e-38
-0.060189001 -0.0077479999 -1.6847399 -0.79446203 -0.58687061 -0.15624669 1.475287e-41
-0.059811998 -0.007987 -1.68749 -0.70892239 -0.70192277 -0.068800367 9.2829633e-38
-0.058823001 -0.0084380005 -1.68988 -0.77230567 -0.58921152 -0.23743166 0
-0.057509001 -0.012596 -1.6859 -0.91148335 -0.38259196 -0.15106778 9.2998882e-38
-0.058100998 -0.010898 -1.6875 -0.9102481 -0.38885024 -0.1422808 9.2830979e-38
-0.061446 -0.014339 -1.69491 0.75969136 0.34458733 0.55147856 1.7174314e-41
-0.067525998 -0.012603 -1.6834199 0.89328271 0.41483495 0.17308372 9.298812e-38
-0.067466997 -0.012488 -1.68167 0.42244565 0.36323765 -0.83042043 9.2844431e-38
-0.067233004 -0.013108 -1.68243 0.89328271 0.41483495 0.17308372 1.7981462e-41
-0.065178998 -0.015693 -1.68436 0.99427319 -0.067889296 0.082533889 0
-0.0605 -0.010079 -1.6824501 -0.67955929 -0.44894111 -0.58021641 9.2848467e-38
-0.059558 -0.012432 -1.68246 -0.75659925 -0.33750376 -0.56004357 0
-0.05875 -0.010024 -1.68495 -0.86724085 -0.37306818 -0.32971719 9.2983815e-38
-0.064998001 -0.014547 -1.68145 0.32547623 0.61165679 -0.72106951 1.878861e-41
-0.060130998 -0.012752 -1.68108 -0.7635864 -0.3701959 -0.52904701 9.2849812e-38
-0.058986001 -0.013571 -1.68239 -0.75773561 -0.37774655 -0.53211302 9.3028461e-38
-0.057652 -0.012892 -1.68443 -0.78808141 -0.38661733 -0.47901437 1.9057659e-41
-0.057232 -0.014026 -1.68496 -0.87662995 -0.33305192 -0.34726983 1.9326708e-41
-0.062228002 -0.017061001 -1.68109 0.73784947 0.3477138 -0.57850951 9.3072428e-38
-0.064753003 -0.016225001 -1.68496 0.474875 0.82732385 0.30004838 1.9595758e-41
-0.063166 -0.017449001 -1.68243 0.83249784 0.30021331 -0.46563864 9.2853848e-38
-0.062501997 -0.019058 -1.6824501 0.89973027 0.29820213 -0.31868634 0
-0.062182002 -0.019572999 -1.68247 0.87101912 0.40325096 -0.28056082 9.3071352e-38
-0.058913998 -0.016514 -1.6799901 -0.057251986 -0.61345661 -0.78765041 1.9864807e-41
-0.062941 -0.019409001 -1.68499 0.96187699 0.27273124 -0.020257769 2.0133856e-41
-0.062208001 -0.019917 -1.68282 0.87701482 0.41037497 -0.24987474 9.2856538e-38
-0.062700003 -0.020212 -1.6849 0.96187699 0.27273124 -0.020257769 0
-0.062527001 -0.018846 -1.6867501 0.83391976 0.38517305 0.39524618 9.3069199e-38
-0.062624 -0.020251 -1.68512 0.96187699 0.27273124 -0.020257769 2.0402906e-41
-0.061914999 -0.019264 -1.68736 0.83391976 0.38517305 0.39524618 9.2857884e-38
-0.060222998 -0.01815 -1.69324 0.79891962 0.36882111 0.47507733 9.3065971e-38
-0.061011001 -0.019516001 -1.6900001 0.83107257 0.45900732 0.3140552 9.2861919e-38
-0.060589001 -0.018119 -1.69244 0.83020151 0.37447801 0.41295484 0
-0.062608004 0.0083330004 -1.70661 0.13685107 -0.91968632 0.36803374 2.3093399e-41
-0.074856997 0.00039 -1.68133 0.50943726 -0.099134684 -0.85477829 9.2871336e-38
-0.062757 0.0077030002 -1.70827 -0.022427693 -0.76818776 0.63983166 9.304568e-38
-0.065217003 0.005289 -1.70638 0.75293291 0.045209777 0.65654254 9.3057361e-38
-0.064126 0.005204 -1.70749 0.72576165 -0.11247697 0.67868918 2.3362448e-41
-0.059843998 0.0084800003 -1.7074 -0.3782618 -0.31304422 0.87116092 9.2872681e-38
-0.059239998 0.0067969998 -1.70491 -0.74218631 -0.61252326 -0.271983 0
-0.059755001 0.0077399998 -1.70779 -0.3782618 -0.31304422 0.87116092 2.3631497e-41
-0.059893999 0.0072209998 -1.70795 -0.3782618 -0.31304422 0.87116092 9.3048191e-38
-0.074619003 -0.0020860001 -1.68233 0.95885164 0.27643147 0.064723611 9.3055209e-38
-0.062514 0.005781 -1.70998 0.94356942 -0.13777465 0.30115592 2.3900547e-41
-0.062089 0.0051449998 -1.71005 0.61609423 0.2604731 0.74335837 9.2875372e-38
-0.072388999 -0.00053600001 -1.68127 0.31667703 0.4050816 -0.85768557 0
-0.062105 0.0054179998 -1.71 0.61609423 0.2604731 0.74335837 9.3054133e-38
-0.061902002 0.0047530001 -1.71006 0.61609423 0.2604731 0.74335837 9.2876717e-38
-0.065008998 0.0041680001 -1.70656 0.70875627 0.2211916 0.66987973 9.3049267e-38
-0.064018004 0.003912 -1.70732 0.73528844 0.2665354 0.62314504 9.3053056e-38
-0.065291002 0.0024939999 -1.70534 0.66206497 0.45774651 0.59341228 2.4438645e-41
-0.065428004 0.001839 -1.70394 0.77815992 0.45082363 0.43729302 9.2878062e-38
-0.063179001 0.001737 -1.70724 0.69790632 0.30546319 0.64778006 9.305198e-38
-0.061413001 0.0034080001 -1.71 -0.19083141 0.19615224 0.96182519 9.2879407e-38
-0.062549002 0.0043990002 -1.70937 0.61609423 0.2604731 0.74335837 9.305091e-38
-0.062563002 0.001254 -1.70778 0.72659791 0.22346568 0.64970648 2.4976744e-41
-0.069479004 -0.0043339999 -1.68049 0.36139509 0.29771113 -0.88360721 9.2880753e-38
-0.059989002 0.0032500001 -1.70892 -0.63668317 -0.21034054 0.7418837 0
-0.062371999 0.00019000001 -1.70743 0.72194761 0.22560063 0.65413761 9.3049833e-38
-0.071624003 -0.0065139998 -1.68243 0.80184835 0.58793408 -0.10664327 2.5245793e-41
-0.060610998 0.00106 -1.70983 -0.54379439 -0.042395197 0.83814698 9.2882098e-38
-0.057464 0.005014 -1.70631 -0.92396575 -0.35020274 0.15377024 9.3048757e-38
-0.058883 0.0067929998 -1.7074701 -0.42265737 -0.12216369 0.89801824 2.5514842e-41
-0.057783 0.003852 -1.70453 -0.85883987 -0.37666202 -0.34715962 9.2883443e-38
-0.058924001 0.0046270001 -1.70746 -0.6211496 -0.1542879 0.76835436 0
-0.056878999 0.002625 -1.7049201 -0.86834776 -0.46123216 -0.18231036 2.5783892e-41
-0.057387002 0.0038089999 -1.70687 -0.89400238 -0.4142499 0.17075345 9.2884788e-38
-0.056237001 0.0013980001 -1.70479 -0.82800478 -0.53657776 -0.16276477 9.3056801e-38
-0.058139 0.001377 -1.7075 -0.71199971 0.051532988 0.70028621 9.3046605e-38
-0.069675997 -0.00709 -1.68104 0.2530846 0.25953135 -0.93198264 2.6052941e-41
-0.05982 0.000948 -1.70945 -0.66438764 -0.024137551 0.74699831 9.2886134e-38
-0.057192001 0.0023060001 -1.70706 -0.89556342 -0.011473199 0.44478595 0
-0.062835 -0.001306 -1.70649 0.75363952 0.31589609 0.5764001 9.3056442e-38
-0.062228002 -0.001293 -1.70735 0.69650865 0.30876055 0.64772111 2.659104e-41
-0.070006996 -0.0092099998 -1.68216 0.89054984 0.45056862 -0.062521286 9.2888824e-38
-0.060548 -0.00043499999 -1.70935 0.65250593 0.18238893 0.73550683 0
-0.069868997 -0.0094670001 -1.68217 0.96222943 0.25378129 0.09853711 8.7441024e-43
-0.059985001 -0.00079299998 -1.70928 -0.68014818 0.11906308 0.72334117 6.5160379e-43
-0.060129002 -0.0033470001 -1.70792 0.5454793 0.40298244 0.73488599 9.7767316e-38
-0.061186001 -0.002968 -1.7071199 0.5639568 0.35213867 0.74696124 6.2497912e-43
-0.060031999 -0.0053829998 -1.70661 0.74344236 0.43226451 0.51033401 0
-0.055080999 -0.00073999999 -1.70463 -0.81377715 -0.44516078 -0.37362897 0
-0.054182999 -0.0021599999 -1.70488 -0.62141669 -0.2623975 0.73823363 7.1326092e-43
-0.058357 -0.00063999998 -1.70743 -0.65060163 0.064387776 0.75668466 0
-0.057434998 -0.00032699999 -1.70702 -0.73444313 0.0017492422 0.67866796 0
-0.068925999 -0.010612 -1.68248 0.78287894 0.59116292 0.19397655 2.0879347e-43
-0.059463002 -0.0028949999 -1.70828 -0.385198 0.34294066 0.85674632 0
-0.057225998 -0.004677 -1.70737 -0.25813937 -0.13113537 0.95716643 2.0038568e-43
-0.059728 -0.0047129998 -1.70742 0.60383165 0.35231474 0.7150256 0
-0.054604001 -0.002195 -1.7059799 -0.62141669 -0.2623975 0.73823363 0
-0.053429998 -0.0033440001 -1.70491 -0.56155699 -0.1673958 0.81032854 6.0536094e-43
-0.0548 -0.0043830001 -1.70617 -0.56155699 -0.1673958 0.81032854 2.0178698e-43
-0.052602001 -0.0050260001 -1.705 -0.4903425 -0.18375453 0.85193807 0
-0.053238001 -0.0068279998 -1.70209 -0.76672745 -0.52037966 -0.37594414 0
-0.051734999 -0.0092110001 -1.7021 -0.83201587 -0.55441695 -0.019273298 0
-0.067507997 -0.012738 -1.68238 0.80433673 0.58014816 0.12833771 7.2447131e-43
-0.058532 -0.0060749999 -1.70786 -0.12124752 0.015717352 0.99249786 0
-0.058396999 -0.0069109998 -1.7075 0.19651605 -0.065884143 0.9782846 2.0318828e-43
-0.057353001 -0.0063479999 -1.70714 0.19651605 -0.065884143 0.9782846 0
-0.057943001 -0.0075130002 -1.7072099 -0.53214729 0.23380582 0.81372851 2.0458958e-43
-0.054430999 -0.0051790001 -1.7058001 -0.50196314 -0.10151479 0.8589108 2.0318828e-43
-0.052393001 -0.006426 -1.7051001 -0.33258343 -0.038717061 0.94227874 0
-0.05187 -0.0074700001 -1.70496 0.94401157 0.093011059 0.31652987 2.0318828e-43
-0.057372998 -0.009451 -1.70609 0.59812379 0.4549813 0.65972716 0
-0.054515 -0.0099440003 -1.7054501 -0.16847147 -0.0067643342 0.98568332 2.0318828e-43
-0.051910002 -0.008626 -1.70522 -0.1064832 -0.016136993 0.99418354 0
-0.060655002 -0.0084729996 -1.70236 0.85018533 0.41017345 0.33006456 0
-0.06019 -0.010601 -1.70072 0.84119767 0.4449397 0.30727053 0
-0.060674999 -0.010373 -1.69991 0.84900409 0.36547065 0.38160613 0
-0.059648 -0.011008 -1.7017699 0.84119767 0.4449397 0.30727053 2.0739217e-43
-0.058921002 -0.0092979996 -1.70489 0.65982956 0.17562804 0.73060232 2.0599087e-43
-0.057557002 -0.010335 -1.70595 0.063595131 0.99573553 0.066830948 5.9695315e-43
-0.056949999 -0.010072 -1.70599 0.063595131 0.99573553 0.066830948 4.0497526e-43
-0.058385 -0.010359 -1.7048 0.60398209 0.43278739 0.66925383 0
-0.057962999 -0.012646 -1.70357 0.79667723 0.4439328 0.41015738 2.0739217e-43
-0.054935999 -0.01212 -1.7056201 0.098064214 0.076585077 0.99222887 2.0739217e-43
-0.055814002 -0.013335 -1.70604 0.44190469 0.18411212 0.87796521 4.1058045e-43
-0.053109001 -0.014755 -1.70497 -0.31246829 0.26510161 0.9121868 2.0739217e-43
-0.052425999 -0.014416 -1.70499 -0.31246829 0.26510161 0.9121868 5.9695315e-43
-0.058132 -0.013474 -1.7022901 0.79786718 0.50058877 0.33588514 0
-0.057695001 -0.015354 -1.69989 0.78340173 0.52976412 0.32501024 2.0739217e-43
-0.057117999 -0.016620999 -1.69958 0.86152095 0.32989046 0.3859455 0
-0.056981999 -0.014859 -1.7025 0.77082962 0.54178196 0.33510295 2.0879347e-43
-0.056322001 -0.014427 -1.70465 0.74275762 0.48472258 0.46190384 5.3669731e-43
-0.055197001 -0.015262 -1.70533 0.46998286 0.40549266 0.78402287 0
-0.054407001 -0.014313 -1.70596 -0.10976301 0.43653238 0.89296782 7.2166871e-43
-0.051963001 -0.015308 -1.7049299 0.15059954 -0.1377206 0.97895497 0
-0.056791 -0.015248 -1.70225 0.75135452 0.57402807 0.32551223 2.0178698e-43
-0.055293001 -0.017881 -1.70263 0.74925202 0.43024313 0.50349993 0.000543795
-0.055358998 -0.015662 -1.7048301 0.46998286 0.40549266 0.78402287 0.0076472354
-0.054157998 -0.016191 -1.705 -0.16854398 0.48449323 0.85840505 1.3452465e-43
-0.054710999 -0.01546 -1.70529 -0.16854398 0.48449323 0.85840505 0.0013904424
-0.053079002 -0.019659 -1.70489 0.75456464 0.27605963 0.59533465 0.00018621706
-0.052506998 -0.018765001 -1.70561 0.4969328 0.023416931 0.86747301 0.0018155549
-0.052726999 -0.020811999 -1.70465 0.80826008 0.32812592 0.48892635 6.7262326e-44
-0.051991001 -0.021892 -1.7048301 0.65177482 0.30716971 0.69342363 0.0026446427
-0.052375 -0.0092719998 -1.70499 -0.13357046 -0.02699152 0.99067169 6.9364274e-43
-0.050622001 -0.010809 -1.70243 -0.86806464 -0.49305183 -0.057997178 0.0034238102
-0.049867 -0.012202 -1.70224 -0.81064308 -0.57497054 -0.11075509 0.0025494096
-0.060529999 -0.018937999 -1.67996 0.39430299 0.2623992 -0.88072234 7.3315936e-42
-0.052134 -0.011497 -1.70517 -0.131762 -0.010864366 0.99122185 2.4802983e-43
-0.050737999 -0.011251 -1.70495 -0.81421232 -0.48309049 0.32199675 9.2293328e-38
-0.049658999 -0.012202 -1.70479 -0.77491736 -0.56359106 0.28612608 9.6530227e-38
-0.052250002 -0.013718 -1.70506 -0.37368512 0.083237454 0.92381328 9.6530227e-38
-0.049775001 -0.01413 -1.70499 -0.046550162 -0.0064983363 0.99889481 2.3261555e-43
-0.049412001 -0.012881 -1.70235 -0.97236395 -0.21204665 -0.097696446 9.7020457e-38
-0.051215 -0.017006001 -1.70566 -0.017937826 -0.33491474 0.9420777 9.6530227e-38
-0.049222998 -0.01612 -1.70485 -0.20526524 -0.083722673 0.97511882 9.6530227e-38
-0.050776999 -0.019739 -1.7065901 0.4720926 0.055670533 0.87978941 1.4293244e-43
-0.045343999 -0.024076 -1.6971101 -0.84765214 -0.25141215 -0.4672021 9.7103302e-38
-0.059923001 -0.0073810001 -1.68716 -0.88384986 -0.46500158 -0.050823074 9.702243e-38
-0.044879001 -0.024476999 -1.69731 -0.84135914 -0.24985942 -0.47925472 0
-0.046537001 -0.027007001 -1.69993 -0.63988084 0.74425155 0.19142134 9.7023518e-38
-0.050225999 -0.021260999 -1.7067 0.68457782 0.11239059 0.72022325 5.8294016e-43
-0.050138999 -0.022679999 -1.7064 0.60094649 0.29282039 0.74372005 6.5020249e-43
-0.046884 -0.021272 -1.70516 -0.11923645 -0.067655645 0.99055809 0
-0.051311001 -0.022952 -1.70499 0.62722677 0.34761032 0.69696027 6.2077522e-43
-0.049260002 -0.025051 -1.70585 -0.014598949 0.6706292 0.74164903 1.0257607e-37
-0.050037 -0.025413999 -1.7045 0.83411694 0.32177091 0.44800937 1.0265738e-37
-0.050790999 -0.026048999 -1.7022001 0.72841722 0.56745929 0.38392487 1.0257463e-37
-0.049885999 -0.027132999 -1.7024699 0.62334347 0.65627301 0.42514548 1.0265738e-37
-0.048659001 -0.027611 -1.70319 -0.22509509 0.77276832 0.59343183 4.7083628e-43
-0.049594998 -0.025653999 -1.70494 0.016508903 0.68256104 0.73064208 0
-0.044833999 -0.020408001 -1.70497 -0.21066855 0.090781912 0.97333312 1.025793e-37
-0.044936001 -0.023902001 -1.70428 -0.63416934 0.57865518 0.51282299 1.0265738e-37
-0.059707001 -0.022407999 -1.6799001 0.87438333 0.29026863 -0.38884181 4.7363888e-43
-0.061071001 -0.021837 -1.6822 0.85987669 0.42418757 -0.28403684 0
-0.061547 -0.020138999 -1.6873699 0.82404459 0.43409106 0.36402676 9.281302e-38
-0.061955001 -0.021203 -1.68497 0.8870104 0.40936735 -0.21361385 1.0276549e-37
-0.060633998 -0.022727 -1.68733 0.82815349 0.43621382 0.35196492 1.0267208e-37
-0.061278999 -0.023150001 -1.6849101 0.89078093 0.45307758 0.035072196 5.7313107e-43
-0.060408998 -0.023466 -1.68246 0.83856606 0.43947816 -0.32197186 6.347882e-43
-0.059965 -0.024937 -1.68492 0.74235034 0.66111368 0.10883294 4.4841551e-44
-0.059576001 -0.024840999 -1.68246 0.87652594 0.46063003 -0.13972194 4.7083628e-43
-0.049467999 -0.016922001 -1.7052 -0.14525405 -0.13283262 0.98043704 0
-0.059009999 -0.024493 -1.67996 0.91394651 0.28143141 -0.29240066 4.2599473e-43
-0.048101999 -0.017501 -1.7048399 -0.34509197 -0.71496969 0.6080541 0.067053162
-0.057766002 -0.026009999 -1.67737 0.94726115 -0.11215458 -0.30019593 6.7262326e-44
-0.049856 -0.019889001 -1.7064101 0.35380235 0.017509006 0.93515635 0.456002
-0.058586001 -0.026283 -1.6799999 0.93592227 0.29912028 -0.18594766 4.596259e-43
-0.060065001 -0.025110001 -1.68435 0.81719518 0.54395634 -0.19053471 0
-0.059609 -0.025443999 -1.68488 0.74235034 0.66111368 0.10883294 2.0178698e-43
-0.058596 -0.026935 -1.68238 0.88661617 0.46237522 0.010998971 0.0053579737
-0.058327001 -0.027503001 -1.6823601 0.94891435 0.31129304 0.051557794 4.6663239e-43
-0.057681002 -0.028053001 -1.68488 0.85577148 0.47596931 0.20275213 5.6752588e-43
-0.057702001 -0.028907999 -1.67737 0.90736037 0.14020148 -0.3962836 4.7644148e-43
-0.049135 -0.023658 -1.7063299 -0.051565576 0.42731529 0.90263093 4.0357396e-43
-0.057500999 -0.030130001 -1.67792 0.95819372 0.27527651 -0.078023575 0.16008803
-0.049952 -0.021069 -1.70662 -0.15956812 0.010777749 0.98712808 4.6943499e-43
-0.058214001 -0.027589001 -1.67996 0.98454833 0.10414981 -0.14077441 0
-0.057470001 -0.029902 -1.6820101 0.87611741 0.43013796 0.21771465 2.0178698e-43
-0.047297001 -0.016384 -1.70242 -0.91532642 -0.32798958 -0.23366717 0.077911787
-0.055061001 -0.024785999 -1.675 0.59341645 -0.67589557 -0.4370608 6.7262326e-44
-0.054919001 -0.024936 -1.67496 0.59341645 -0.67589557 -0.4370608 0.116535
-0.046603002 -0.017836001 -1.70204 -0.85145557 -0.46727097 -0.2380783 0.044273399
-0.055119999 -0.025405999 -1.6749901 0.59341645 -0.67589557 -0.4370608 5.3669731e-43
-0.053211998 -0.029997 -1.67248 -0.84594935 -0.17886978 -0.5023697 2.0178698e-43
-0.043621 -0.024845 -1.69982 -0.9052366 -0.42394021 -0.028659407 2.6904931e-43
-0.052662 -0.031601001 -1.6724 -0.80271375 -0.12304794 -0.58353221 0.43331003
-0.043662 -0.025017999 -1.69968 -0.9052366 -0.42394021 -0.028659407 4.6102719e-43
-0.052731 -0.032903999 -1.6724 0.3397679 -0.45370051 -0.8238408 0
-0.055163 -0.022697 -1.67812 -0.64865494 -0.6211102 -0.43985099 4.7083628e-43
-0.046418998 -0.015966 -1.7045701 -0.61266214 -0.76974624 0.17926456 6.7262326e-44
-0.056938998 -0.023376999 -1.6774499 0.58560294 -0.56877708 -0.57754809 0.0076478557
-0.054884002 -0.023861 -1.67693 0.0058220825 -0.82005775 -0.57225114 0.0054646269
-0.045908 -0.018541999 -1.7049299 -0.069914676 -0.096119605 0.99291134 2.0178698e-43
-0.057422001 -0.025979999 -1.67697 0.82236028 -0.13332035 -0.55312681 0.0047308411
-0.043983001 -0.02217 -1.70188 -0.99730653 -0.039137315 0.062031947 6.7262326e-44
-0.044785 -0.019502999 -1.70474 -0.85896462 0.48894018 0.15204369 4.5121811e-43
-0.047734998 -0.028321 -1.6867501 -0.89328551 -0.42799649 -0.13733149 2.0178698e-43
-0.047970001 -0.029809 -1.68437 -0.95044279 -0.065179281 -0.30399033 0.9620378
-0.053157002 -0.03108 -1.68964 0.67398351 0.64884311 0.35319799 0.00077836012
-0.050801001 -0.032327998 -1.68988 0.14665449 0.85153115 0.50337571 4.9325706e-43
-0.049006 -0.031902999 -1.6894701 -0.45391849 0.85104221 0.26397952 0
-0.047134001 -0.028769 -1.68734 -0.90345216 -0.33973601 -0.26144537 2.0178698e-43
-0.045786001 -0.029541999 -1.68998 -0.61558276 -0.7681855 0.17592312 0.056607105
-0.047141001 -0.030192999 -1.68961 -0.6811527 0.73166448 0.026422033 6.7262326e-44
-0.056403 -0.028821999 -1.6749901 0.61942148 -0.28091046 -0.73308003 4.8765187e-43
-0.045469999 -0.020452 -1.7049 -0.85896462 0.48894018 0.15204369 4.9045446e-43
-0.057195 -0.029893 -1.67671 0.88674641 0.31644228 -0.33696458 2.0178698e-43
-0.043439001 -0.023358 -1.70244 -0.88216251 0.3435272 0.32214653 4.8064537e-43
-0.054958001 -0.032155 -1.6739 0.5692032 0.3494246 -0.74425143 0
-0.046659999 -0.024985 -1.70499 -0.37263852 0.12877958 0.91899747 4.0357396e-43
-0.056883 -0.031637002 -1.67747 0.89548355 0.4070285 -0.18010288 0.9370746
-0.051633999 -0.030927001 -1.6742001 -0.83342826 -0.36592358 -0.41412222 2.0178698e-43
-0.052480001 -0.030920001 -1.67247 -0.84594935 -0.17886978 -0.5023697 0.70124984
-0.047111001 -0.024584001 -1.7054501 -0.27312264 0.36594775 0.88965517 0.076111741
-0.057105999 -0.031241 -1.67937 0.88676536 0.46221837 0.0011746397 0.00061355508
-0.048567001 -0.032054 -1.67994 -0.90404838 -0.1968497 -0.37940314 0.0080529172
-0.055847 -0.032311998 -1.67479 0.81995183 0.49411798 -0.2890093 1.0257125e-37
-0.046324998 -0.026937 -1.70218 -0.64119864 0.75101471 0.15761119 5.0166485e-43
-0.055383001 -0.033165 -1.6749901 0.797795 0.56590295 -0.20803116 4.9746095e-43
-0.047215 -0.025099 -1.7052799 -0.17169797 0.75308174 0.63512814 0
-0.055734999 -0.032876 -1.67994 0.67844772 0.71761489 0.15728167 5.7172977e-43
-0.047086 -0.02531 -1.70499 -0.17169797 0.75308174 0.63512814 0
-0.055599 -0.033569999 -1.67747 0.70211571 0.71028882 0.050233096 4.9886225e-43
-0.0524 -0.033702999 -1.67249 0.5651722 0.37584388 -0.73438531 0
-0.049231 -0.034329001 -1.6749901 -0.38632694 0.91823357 -0.087169722 0
-0.050294001 -0.034366999 -1.67483 -0.38632694 0.91823357 -0.087169722 2.9006878e-43
-0.044815999 -0.025167 -1.70182 -0.7298972 0.61169821 0.30508268 5.8574276e-43
-0.054138001 -0.034637 -1.67472 0.64675957 0.67459899 -0.3558346 3.1389086e-43
-0.053536002 -0.035145 -1.67693 0.2903915 0.92077672 0.26046696 0.6079784
-0.053268 -0.035427 -1.67497 0.53045404 0.73971164 -0.41405943 2.9147008e-43
-0.052095 -0.035314001 -1.6745501 -0.068067089 0.94445539 -0.3215135 0
-0.044959001 -0.025153 -1.70253 -0.67260653 0.59714741 0.43705311 2.0178698e-43
-0.054639999 -0.034077998 -1.67749 0.69370776 0.71704262 0.06796632 2.6904931e-43
-0.054544002 -0.033445001 -1.67959 0.58960509 0.78946066 0.17063913 0.0021341213
-0.050875999 -0.035004999 -1.67725 -0.20316209 0.95811403 -0.20184802 4.9886225e-43
-0.050104 -0.034883998 -1.67691 -0.37735873 0.90987831 -0.1724001 5.2548692e-43
-0.052804999 -0.035100002 -1.67992 0.41893822 0.882366 0.2142918 2.0178698e-43
-0.050065 -0.035478 -1.67997 -0.0033255236 0.99891543 0.046441957 0.028102253
-0.049515001 -0.035229001 -1.67961 -0.32957971 0.91461712 -0.23420669 0
-0.048349999 -0.034954 -1.67998 -0.67361283 0.7386378 0.02568977 2.9147008e-43
-0.048609 -0.033999 -1.67747 -0.33948359 0.92107749 -0.19070181 5.2688822e-43
-0.054945 -0.032469001 -1.6837699 0.63778108 0.72343373 0.26434627 0.039047811
-0.055112001 -0.032795001 -1.68229 0.60934341 0.77021378 0.18833838 5.0166485e-43
-0.052891001 -0.033528998 -1.68457 0.17578289 0.95159221 0.25213611 0
-0.047738001 -0.032375 -1.6845 -0.38137776 0.89464951 0.2327086 2.0178698e-43
-0.046285 -0.030563001 -1.68748 -0.91433573 -0.33169657 -0.23230931 2.6904931e-43
-0.052836999 -0.034093 -1.68186 0.42590302 0.85587746 0.29339463 0.0012074943
-0.048751999 -0.032506 -1.68494 -0.29336661 0.93244433 0.21091145 6.7262326e-44
-0.050303001 -0.032912999 -1.68478 -0.22593974 0.96814996 0.10787468 0.014928173
-0.052533999 -0.032609001 -1.68801 0.42663381 0.81331301 0.3956078 0.07191579
-0.052939001 -0.033041 -1.68695 0.39397064 0.8601076 0.32404014 1.3452465e-43
-0.049913999 -0.032632999 -1.68717 -0.27141872 0.95470846 0.12191651 0.044057202
-0.051426999 -0.032634001 -1.68907 0.26614901 0.93322295 0.24137029 6.0956483e-43
-0.050802 -0.032926999 -1.68748 -0.13137527 0.98562044 0.10626826 1.0275029e-37
-0.049107999 -0.032302 -1.68704 -0.33950022 0.93324745 0.11742593 5.1988173e-43
-0.051403999 -0.034371 -1.68242 0.22213297 0.92321122 0.31358889 0
-0.051458001 -0.035062999 -1.6816 0.20591542 0.91630787 0.34348029 1.0274129e-37
-0.049924001 -0.035250001 -1.68104 -0.22905771 0.87206674 0.4324722 9.4496214e-38
-0.047456 -0.032416001 -1.68209 -0.88467014 0.41545662 -0.21155277 5.0867134e-43
-0.046927001 -0.031684998 -1.68498 -0.87677324 0.0063023642 -0.48086271 0
-0.047483999 -0.032593001 -1.68389 -0.38137776 0.89464951 0.2327086 5.9555185e-43
-0.047171999 -0.032873001 -1.68242 -0.69856173 0.69872051 0.15427619 1.0275029e-37
-0.048445001 -0.033762999 -1.68226 -0.59777331 0.73958081 0.30933359 5.2548692e-43
-0.059914999 -0.0079079997 -1.6849999 -0.80093598 -0.58100009 -0.14470829 1.0275298e-37
-0.050629001 -0.027767999 -1.70003 0.60016012 0.68818098 0.40769443 3.2369995e-43
-0.051128 -0.028790001 -1.69736 0.60896754 0.73743182 0.29215208 0
-0.050212 -0.02864 -1.69958 0.51084566 0.80847561 0.29223949 1.0285394e-37
-0.04507 -0.02713 -1.69739 -0.82829207 0.39116025 0.40115568 1.0275298e-37
-0.047068 -0.027509 -1.69938 -0.67495781 0.6786347 0.28963235 1.0275298e-37
-0.047153998 -0.027643001 -1.7010601 -0.66408211 0.7337296 0.14365175 5.1988173e-43
-0.048076 -0.029596001 -1.69698 -0.44354892 0.8876673 0.12373796 0
-0.048539001 -0.029363001 -1.69997 0.013248239 0.5316143 0.84688294 4.0357396e-43
-0.048512999 -0.030073 -1.69868 0.13381255 0.98256487 0.12907529 5.1007264e-43
-0.05215 -0.029305 -1.69455 0.71912533 0.60795629 0.33652323 1.0267332e-37
-0.047548998 -0.029944999 -1.69159 -0.59031636 0.79171443 0.15720958 1.0275406e-37
-0.050097 -0.031075001 -1.69496 0.37582242 0.82624155 0.41962168 1.0278704e-37
-0.047543 -0.030151 -1.6925 -0.57399952 0.80353737 0.15764599 1.0270347e-37
-0.051394001 -0.031610999 -1.69244 0.59222442 0.73714167 0.3254112 5.3949991e-43
-0.048657998 -0.030596999 -1.69463 -0.5044089 0.83551073 0.21793 0
-0.050081 -0.030343 -1.6966701 0.10575932 0.85999799 0.49921784 4.0357396e-43
-0.048496 -0.030076999 -1.6973 -0.44354892 0.8876673 0.12373796 5.1427654e-43
-0.045343999 -0.027480001 -1.69248 -0.76011842 0.63807935 0.12277924 0
-0.045201998 -0.026350999 -1.69435 -0.76011842 0.63807935 0.12277924 1.0284479e-37
-0.044665001 -0.027276 -1.69475 -0.76011842 0.63807935 0.12277924 1.0275459e-37
-0.044837002 -0.027620001 -1.6939 -0.76011842 0.63807935 0.12277924 1.0268193e-37
-0.047355998 -0.028976999 -1.69748 -0.78438026 0.58563334 0.20440456 1.0275459e-37
-0.046762001 -0.028895 -1.6948 -0.62661976 0.76036376 0.17086425 5.437038e-43
-0.045070998 -0.027752001 -1.69249 -0.76011842 0.63807935 0.12277924 0
-0.044121001 -0.026125001 -1.6975 -0.86541641 -0.091821723 -0.49256799 1.026891e-37
-0.048542 -0.028065 -1.70237 -0.24613085 0.79571378 0.55340689 1.0268516e-37
