# .PCD v0.7 - Point Cloud Data file format
VERSION 0.7
FIELDS x y z normal_x normal_y normal_z curvature
SIZE 4 4 4 4 4 4 4
TYPE F F F F F F F
COUNT 1 1 1 1 1 1 1
WIDTH 489
HEIGHT 1
VIEWPOINT 0 0 0 1 0 0 0
POINTS 489
DATA ascii
0.175083 0.13000301 -1.71505 -0.092050992 0.9957543 0.00018774111 0
0.180014 0.130004 -1.7056299 0.46177915 0.85543096 -0.23451628 7.5536073e-36
0.19530199 0.109865 -1.68999 -0.80673927 0.52006269 -0.2805469 0
0.14999101 0.145063 -1.69516 -0.19853358 0.77368933 -0.60165536 7.5613674e-36
0.15993799 0.119973 -1.71104 0.042811058 0.88459754 0.46438608 7.5505739e-36
0.169697 0.124718 -1.69998 0.2245639 0.91681796 -0.33017561 7.5536073e-36
0.150353 0.150014 -1.69045 -0.062363427 0.83319199 -0.549456 7.5536073e-36
0.174971 0.119966 -1.72035 0.22445482 0.2931242 0.92935365 7.5507116e-36
0.14481901 0.15500499 -1.68525 -0.044780191 0.95051855 -0.30742347 7.5602195e-36
0.155614 0.119999 -1.70999 -0.028985668 0.99860847 -0.04405684 7.5687114e-36
0.16500901 0.13005801 -1.6907001 0.48888829 0.84681821 -0.20949265 7.5660941e-36
0.121429 0.159895 -1.67498 -0.24866755 0.80871546 -0.53305131 0
0.175234 0.120069 -1.6799999 0.77824616 0.59605533 0.19761308 1.9758308e-43
0.115454 0.13992099 -1.6900001 -0.29879838 0.74705935 -0.59381968 3.6013371e-43
0.146025 0.149978 -1.68999 -0.072854072 0.80741662 -0.58546621 2.9567398e-43
0.175129 0.120039 -1.70575 0.35435084 0.81152689 -0.46460685 0
0.16999 0.124978 -1.6761 0.73398489 0.65390611 0.18350182 1.9898438e-43
0.14444 0.150443 -1.64498 0.27257669 0.63054609 0.72671419 0
0.185022 0.125442 -1.68999 0.91917002 0.38249159 0.093950137 6.7262326e-44
0.19619501 0.1149 -1.72019 0.19315553 -0.21726018 -0.95681185 3.9937006e-43
0.149536 0.15003499 -1.69049 -0.062363427 0.83319199 -0.549456 7.5459046e-36
0.164937 0.119996 -1.71529 0.27207434 0.84542066 0.45960796 2.9847657e-43
0.14025199 0.155196 -1.6549799 0.48807791 0.87174731 0.042855039 7.5513086e-36
0.114959 0.134138 -1.69506 -0.063917138 0.029980812 -0.99750477 7.442119e-36
0.12994 0.15994 -1.67118 0.39235628 0.78805977 0.47436103 7.5522728e-36
0.180326 0.115002 -1.68498 0.7231226 0.67988181 0.12187877 7.442119e-36
0.145371 0.140001 -1.68098 0.13736312 0.83838713 -0.52748305 2.0318828e-43
0.16497201 0.129988 -1.67599 0.77552742 0.6066888 0.17460239 2.0318828e-43
0.185109 0.120686 -1.67993 0.82032609 0.50086355 0.27604499 4.1898824e-43
0.19491 0.10433 -1.71497 0.10084647 0.99357331 0.051401444 0
0.18007401 0.125003 -1.72092 0.25630251 0.79740709 -0.54630667 0.0021628069
0.17476401 0.12506001 -1.7205499 -0.067925483 0.73615855 -0.673392 0.0015442566
0.169984 0.122917 -1.72048 -0.23677091 0.63595462 0.73450744 0.0017977395
0.150001 0.140026 -1.67668 0.4037514 0.87861562 -0.25498909 1.3452465e-43
0.124147 0.154754 -1.65499 0.31944025 0.3059321 -0.8968631 3.3631163e-43
0.175091 0.130064 -1.7149301 -0.092050992 0.9957543 0.00018774111 5.1147394e-43
0.103366 0.13492399 -1.6799901 0.25097832 0.95898414 -0.13175468 3.657389e-43
0.165382 0.13001899 -1.68996 0.52684969 0.84183508 -0.11723084 0
0.11491 0.15286601 -1.665 -0.52184266 0.52866566 0.66947204 7.5884108e-36
0.180113 0.130045 -1.70497 0.78322291 0.61122149 -0.11388655 7.5521588e-36
0.190091 0.120518 -1.6950001 0.80816048 0.56835949 0.1544154 7.5482349e-36
0.180078 0.115056 -1.71147 0.39767098 0.83052623 -0.38997948 7.5482349e-36
0.1749 0.130015 -1.7151999 -0.076300293 0.85046405 -0.5204702 7.5473603e-36
0.16486201 0.129876 -1.67498 0.77552742 0.6066888 0.17460239 7.5621136e-36
0.189937 0.119928 -1.69238 0.80497426 0.56790006 0.1717732 0
0.150059 0.150372 -1.66496 0.50751227 0.86024278 0.049128849 7.5621136e-36
0.17065001 0.12516201 -1.6799901 0.74515921 0.64249343 0.17871752 7.5468667e-36
0.185004 0.125002 -1.7130899 0.34826317 0.89730954 -0.27119806 7.5675642e-36
0.179343 0.125007 -1.72135 0.024183033 0.8153314 -0.5784893 3.9376487e-43
0.134884 0.149912 -1.6599801 0.43269855 0.88486183 -0.17260231 0
0.11044 0.154902 -1.6749901 -0.29273757 0.951069 -0.098855585 2.0879347e-43
0.159298 0.134976 -1.67997 0.5028199 0.86253804 -0.056571178 2.6344411e-43
0.16495299 0.13997599 -1.66974 0.60410488 0.77373642 0.19075958 3.9937006e-43
0.145024 0.155009 -1.68521 -0.044780191 0.95051855 -0.30742347 0
0.19535901 0.1111 -1.68999 0.83539844 0.37823665 0.39880627 2.1019477e-43
0.149174 0.139486 -1.67998 0.22684067 0.94771582 -0.22445054 2.1019477e-43
0.154892 0.13495199 -1.65256 0.089743376 0.57486337 -0.81331313 2.1019477e-43
0.18421 0.119946 -1.67497 0.7094177 0.33143866 0.62199271 0
0.197722 0.109853 -1.69497 -0.42917776 0.89686054 -0.10699337 4.2459343e-43
0.179987 0.114927 -1.68308 0.36917412 0.92259181 0.1119589 0
0.190414 0.115925 -1.68498 0.89833593 0.19982368 0.3912327 2.0178698e-43
0.16990601 0.129289 -1.715 -0.11330888 0.68215305 -0.72237688 4.0357396e-43
0.179295 0.119998 -1.72215 0.1610809 0.65237743 0.74057859 3.3350903e-43
0.18541101 0.111648 -1.6950001 0.674977 0.71698219 0.17419116 7.5476359e-36
0.164937 0.119547 -1.70996 0.089154452 0.99522072 0.039839763 7.562722e-36
0.195012 0.115933 -1.72101 0.19315553 -0.21726018 -0.95681185 7.5485657e-36
0.16896699 0.12496 -1.6649899 0.889144 -0.37840587 -0.25735575 7.5862642e-36
0.17190599 0.12518001 -1.69498 0.50592482 0.84469688 -0.17472057 0
0.099919401 0.150001 -1.6746401 -0.2327176 0.94189614 0.24222757 2.1439867e-43
0.109889 0.15628301 -1.66998 -0.82203424 0.54529297 0.16405874 2.1439867e-43
0.167961 0.129987 -1.65997 0.73978597 -0.00096679473 0.67284161 0
0.13442899 0.144785 -1.6749901 0.037213597 0.57001001 -0.82079458 2.1579996e-43
0.17195401 0.12502301 -1.68499 0.71233326 0.69079155 0.12404966 0
0.13499799 0.124929 -1.70625 -0.59447074 -0.46886081 -0.65327942 0.78395033
0.149924 0.14995299 -1.68293 0.61815047 0.65072179 0.44096616 6.7262326e-44
0.184623 0.113555 -1.67995 -0.051864542 0.82606006 -0.56119055 3.3070644e-43
0.190109 0.120014 -1.72149 0.30563554 0.68496019 -0.66137469 2.1720126e-43
0.169348 0.133691 -1.70499 0.42918217 0.86682415 -0.25380805 0
0.174933 0.11867 -1.67497 0.30743471 0.93726349 0.16438082 0
0.18951499 0.119769 -1.68999 0.80497426 0.56790006 0.1717732 3.7134409e-43
0.17049 0.135012 -1.70129 0.30438134 0.88675308 -0.34788063 2.2140516e-43
0.10991 0.145059 -1.6713099 -0.11913808 0.47411224 -0.87236673 7.5595752e-36
0.134542 0.124758 -1.69999 0.043574661 0.99318051 -0.10813732 0
0.184857 0.113788 -1.70498 0.70784134 0.70574611 -0.029715516 1.5414283e-43
0.175097 0.120436 -1.705 0.37396565 0.85555935 -0.35800546 0
0.14798801 0.144741 -1.63999 -0.05791802 0.67453718 -0.73596537 2.2140516e-43
0.145457 0.155029 -1.68499 -0.055374678 -0.13358426 -0.9894892 2.2280646e-43
0.13488901 0.130014 -1.70585 -0.22840869 0.27918869 -0.93267524 4.568233e-43
0.18282101 0.115271 -1.69497 0.76364404 0.63071632 0.13800268 2.2280646e-43
0.099832699 0.140003 -1.68385 -0.43529558 0.60825849 -0.6637314 9.1925179e-43
0.164993 0.135023 -1.70846 -0.037161667 0.67375642 -0.73801845 9.8651412e-43
0.109396 0.151334 -1.67 -0.7533294 0.65676659 0.033948354 7.5653049e-36
0.176185 0.120348 -1.68499 0.76801723 0.61516374 0.17810971 4.8204667e-43
0.141463 0.14514001 -1.66998 0.30396792 0.91320705 -0.27139711 7.580617e-36
0.17755 0.120064 -1.68998 0.72314686 0.67631185 0.14021747 7.5556263e-36
0.13451999 0.15746 -1.65 0.099946208 0.86619896 0.489602 7.5857139e-36
0.151352 0.14384399 -1.64499 0.82844114 0.22441088 0.513152 4.8905316e-43
0.165644 0.13014901 -1.67995 0.76594341 0.63182223 0.11887521 0
0.17154001 0.130445 -1.665 0.80346948 0.023182319 0.59489441 3.3771293e-43
0.103965 0.14497299 -1.6699899 -0.033505458 0.45036349 -0.89221638 2.5643762e-43
0.197267 0.110596 -1.69499 0.89662004 0.34963772 0.27170935 2.0178698e-43
0.12973399 0.152674 -1.65499 0.48855409 0.65389562 -0.57769841 4.0357396e-43
0.16984899 0.13574301 -1.69999 0.32706052 0.87409222 -0.35915759 6.7262326e-44
0.144921 0.153355 -1.6649801 0.42754331 0.90318102 -0.038349971 5.859237e-05
0.164263 0.14000601 -1.70336 0.17231648 0.91937703 -0.35362825 2.2701035e-43
0.18494099 0.113346 -1.7 0.75246102 0.65082753 0.10112365 7.5434365e-36
0.184879 0.12206 -1.71998 -0.36853257 0.51354551 0.77489018 3.6994279e-43
0.124708 0.150023 -1.66678 0.1211819 0.85503781 -0.50420755 0
0.19475099 0.114036 -1.72 0.19315553 -0.21726018 -0.95681185 0.0010775309
0.160529 0.13063 -1.65999 0.5993275 0.79921961 0.045327954 2.4943113e-43
0.169782 0.12477 -1.67498 0.73471057 0.64770955 0.20167473 0
0.132369 0.154717 -1.64999 0.73930234 0.22224459 -0.63564092 2.0178698e-43
0.14001501 0.14502899 -1.67195 0.26660094 0.90410537 -0.33394226 6.8692784e-06
0.129962 0.124995 -1.6997499 0.0320132 0.86269313 -0.50471348 1.3592595e-43
0.104999 0.134886 -1.6851799 -0.99746776 -0.017331593 -0.068975911 5.3809861e-43
0.199967 0.104283 -1.71497 -0.1068817 0.99410236 0.018350804 2.0178698e-43
0.1197 0.15788899 -1.665 -0.54731697 0.56927401 0.61349106 1.3592595e-43
0.18499801 0.124997 -1.68817 0.77983707 0.59327447 0.19969873 0.033488512
0.134334 0.148847 -1.6649899 0.2889294 0.9282099 -0.2344061 0.00091511727
0.13998801 0.154984 -1.66987 0.32795209 0.94234008 -0.066652656 6.7262326e-44
0.124783 0.126624 -1.69498 0.16824104 0.95416492 -0.24751624 0.78144652
0.149846 0.13731401 -1.68499 0.12402645 0.88006783 -0.45836455 1.3452465e-43
0.119976 0.12987199 -1.69809 -0.55372727 0.11563183 -0.82463044 0.85404783
0.17999201 0.11767 -1.70498 0.5157153 0.82244575 -0.24004306 4.6803369e-43
0.109952 0.15501399 -1.67477 -0.07109803 0.98957431 -0.12525097 0
0.14984301 0.14050201 -1.67498 0.40062621 0.89320725 -0.20415536 2.0178698e-43
0.181188 0.1155 -1.6900001 0.76774508 0.60700542 0.20521174 2.2000386e-43
0.149958 0.13865 -1.64498 -0.53799433 -0.19354658 0.82042783 0.78188068
0.15487 0.119823 -1.70995 -0.02553121 0.99954206 0.016243938 2.2140516e-43
0.179776 0.113323 -1.71498 0.35189933 0.93428379 -0.057277452 2.0178698e-43
0.14461499 0.142625 -1.6749901 0.31216729 0.90208089 -0.29799607 0.35851869
0.119985 0.160024 -1.67441 -0.24866755 0.80871546 -0.53305131 2.5559684e-42
0.18954 0.108681 -1.6950001 0.28399611 0.95501882 -0.085353918 5.3809861e-43
0.139943 0.125779 -1.71048 -0.25837901 0.49612254 -0.82891661 0
0.150225 0.150106 -1.68993 -0.031749222 0.96619487 -0.25585046 0
0.15411399 0.13846999 -1.6749901 0.44716015 0.88856775 -0.10244603 0
0.144371 0.14501201 -1.6649801 0.42810935 0.8983317 -0.09860269 2.3822074e-43
0.13523699 0.124981 -1.69998 -0.1246526 0.98639137 -0.10720917 0
0.104787 0.15002599 -1.67757 -0.34541842 0.62681919 -0.69841522 0
0.14499 0.125626 -1.71217 -0.46913698 -0.072993077 -0.88010371 2.3962204e-43
0.115099 0.154927 -1.6668 -0.52184266 0.52866566 0.66947204 1.4153114e-43
0.154065 0.119968 -1.71137 -0.037664402 0.99661314 0.07309977 2.3962204e-43
0.16685399 0.140011 -1.68999 0.48654944 0.86611819 -0.11449442 1.4573504e-43
0.13961001 0.15555 -1.6599801 0.38358819 0.92349547 -0.0040330659 1.4012985e-43
0.174986 0.115214 -1.71498 0.15031005 0.93122244 -0.33201146 0
0.11925 0.129952 -1.68999 0.011979826 -0.99886191 0.046166334 2.4242463e-43
0.130345 0.15007301 -1.66496 0.22267585 0.92705536 -0.30163521 6.5861028e-44
0.14174899 0.144834 -1.64498 0.70982677 0.47415143 -0.52089 5.8153886e-43
0.16917901 0.123707 -1.67 0.45442283 0.89077431 -0.0045870026 3.0828566e-44
0.174612 0.122476 -1.7 0.47067258 0.85160017 -0.23074766 3.629363e-43
0.19008701 0.120757 -1.71997 0.85704273 0.47631502 -0.19647321 0.00033666301
0.184728 0.125772 -1.68998 0.91917002 0.38249159 0.093950137 1.8917529e-43
0.159964 0.13391601 -1.68499 0.39626247 0.89811665 -0.19068953 0
0.155076 0.145023 -1.6966701 -0.11081031 0.71004683 -0.69538087 2.0178698e-43
0.12724499 0.160593 -1.65999 0.11495338 0.99336791 -0.0024337741 0
0.124924 0.16160101 -1.6599801 0.12951201 0.99157655 -0.0016159416 7.583522e-36
0.20222899 0.107612 -1.70999 0.9179517 0.31273606 0.24405092 7.5676345e-36
0.174978 0.133716 -1.69997 0.42990577 0.88098109 -0.19761916 2.6764801e-43
0.159944 0.12505201 -1.71602 -0.10861103 -0.052811731 -0.99268049 0
0.169347 0.133551 -1.6649801 0.76644921 0.59289366 0.24704805 7.539568e-36
0.174955 0.11781 -1.71 0.2655023 0.85353225 -0.44832048 2.2841165e-43
0.18886299 0.114715 -1.6799901 0.80023438 -0.25501895 0.54276168 0
0.189669 0.121647 -1.71499 0.51859927 0.85005581 -0.091977946 7.5541346e-36
0.144961 0.144932 -1.65995 0.29667914 0.95497572 0.0017015358 7.5527923e-36
0.129968 0.12799101 -1.69499 -0.19809741 0.80623931 -0.55743659 7.5527923e-36
0.144765 0.152621 -1.66997 0.40762618 0.89956725 -0.15690656 5.8013756e-43
0.10487 0.134803 -1.68499 -0.98479939 -0.049288388 -0.16655575 7.5527923e-36
0.15318701 0.139717 -1.64498 0.51340187 -0.053232387 0.85649568 7.5551793e-36
0.099497698 0.143378 -1.6799901 -0.46129453 0.61346728 -0.64098775 2.2000386e-43
0.13946 0.148293 -1.65499 0.51234698 0.85877776 0.0011597668 0
0.172233 0.129456 -1.665 0.80346948 0.023182319 0.59489441 7.4903671e-36
0.16490901 0.138871 -1.70499 -0.21417598 0.83349961 -0.5093202 7.4814928e-36
0.15393101 0.14503001 -1.69677 -0.12127605 0.88096309 -0.45737967 7.5548579e-36
0.189916 0.10795 -1.71499 0.65501547 0.75473136 0.036542613 7.5410488e-36
0.159658 0.134775 -1.67498 0.62255609 0.78204829 0.02871359 4.8765187e-43
0.17994399 0.118427 -1.69497 0.70525903 0.70570302 0.067770891 0
0.17820901 0.120099 -1.7 0.63024724 0.77579957 -0.03038872 7.5550767e-36
0.116924 0.154984 -1.66494 -0.63941681 0.57339889 0.51221073 7.5410488e-36
0.139984 0.15491199 -1.6763 0.65937048 0.59468609 0.45997718 7.5410488e-36
0.124976 0.129758 -1.70236 -0.54301602 0.27171895 -0.79454541 7.5854627e-36
0.187886 0.110325 -1.68999 0.41479006 0.89955044 -0.13696057 7.5410488e-36
0.134616 0.14730801 -1.67 0.19099441 0.90708911 -0.3751139 1.0789998e-43
0.164002 0.120146 -1.71499 0.29688552 0.83955193 0.45498526 7.5469378e-36
0.152128 0.140054 -1.67 0.50810426 0.85777777 -0.077764399 7.4322352e-36
0.14476401 0.14060999 -1.67997 0.1301135 0.8341158 -0.53602356 4.5121811e-43
0.14486299 0.145088 -1.69356 -0.18978122 0.56056017 -0.80607402 6.0816353e-43
0.194739 0.109559 -1.6900001 -0.22081265 0.89655954 -0.38395676 4.0777785e-43
0.134868 0.157708 -1.6549799 0.37090597 0.92866635 -0.0027395522 2.774571e-43
0.14966699 0.119579 -1.70997 0.017799897 0.99972463 0.015289934 2.4662853e-43
0.139502 0.121688 -1.70495 0.19543323 0.98045641 0.022607584 7.5467197e-36
0.182501 0.12233 -1.7235301 -0.26020762 0.51782739 0.81495202 7.562458e-36
0.185265 0.120638 -1.72254 -0.078049496 0.57019377 0.8177942 7.5718941e-36
0.149738 0.145145 -1.6950001 -0.19957209 0.79203874 -0.57692772 3.4612072e-43
0.194903 0.104895 -1.71868 0.55966026 0.65004414 0.51402628 2.9847657e-43
0.113908 0.158029 -1.66998 -0.44699475 0.87133551 0.20241071 7.5481201e-36
0.140753 0.155048 -1.6599801 0.43108898 0.90229869 -0.0044022859 7.5718941e-36
0.15431599 0.146341 -1.6950001 -0.12127605 0.88096309 -0.45737967 7.5718941e-36
0.13611799 0.150056 -1.65495 0.43969399 0.88948762 -0.12442259 7.4955788e-36
0.179566 0.115068 -1.67998 0.36917412 0.92259181 0.1119589 2.774571e-43
0.150855 0.14005999 -1.67498 0.40502155 0.89846867 -0.16944498 2.760558e-43
0.13459501 0.157401 -1.65997 0.37159175 0.92798388 -0.027667461 2.5924022e-43
0.14891499 0.139589 -1.64999 0.53019893 0.8329336 0.15846352 7.5725484e-36
0.166162 0.135087 -1.66 0.83257937 0.47448227 0.28579399 5.479077e-43
0.198018 0.109198 -1.71956 0.051712628 -0.18126085 -0.9820745 0
0.119887 0.162645 -1.66995 -0.24767211 0.96575379 0.077318415 3.7835059e-44
0.13388 0.14500199 -1.6747299 0.0099909259 0.8929432 -0.45005849 2.746545e-43
0.184591 0.12607899 -1.70998 0.47943622 0.85413933 -0.20146184 0
0.163037 0.128509 -1.665 0.67230129 0.74019521 0.011048833 7.5565231e-36
0.114929 0.12996601 -1.68996 0.011979826 -0.99886191 0.046166334 4.2879733e-43
0.12948599 0.15036 -1.665 0.20593618 0.89634752 -0.39262128 0
0.13939799 0.14795201 -1.64999 0.70171279 0.62391669 -0.34398702 0
0.114961 0.129995 -1.69007 0.011979826 -0.99886191 0.046166334 1.5134023e-43
0.126829 0.15002599 -1.66666 0.13599184 0.88264292 -0.44994181 2.7885839e-43
0.159862 0.126627 -1.71498 -0.25731155 0.52567458 -0.81083721 2.7885839e-43
0.126946 0.160017 -1.65491 0.065023236 0.93513137 0.34828332 0
0.129823 0.162369 -1.67498 -0.2175585 0.96594572 0.14006127 5.5771679e-43
0.184268 0.120035 -1.675 0.7094177 0.33143866 0.62199271 0
0.105295 0.149969 -1.66998 -0.34084931 0.62753266 0.70001751 2.8166099e-43
0.14070299 0.155003 -1.6649899 0.35290951 0.93498248 -0.035533108 0
0.159867 0.132623 -1.68998 0.29426786 0.88197994 -0.36812747 0
0.162292 0.142285 -1.7 0.42126891 0.90258306 -0.088748582 3.8255448e-43
0.184505 0.111352 -1.68998 0.62961143 0.77684647 0.0099528721 2.8306229e-43
0.15977 0.132191 -1.65496 -0.17352071 0.84690559 -0.50263458 0
0.139998 0.15499499 -1.64999 0.49481156 0.86183494 0.11136426 2.8446359e-43
0.179961 0.126194 -1.71496 0.43416357 0.86158895 -0.26299509 3.9796876e-43
0.179787 0.12531599 -1.71997 0.024183033 0.8153314 -0.5784893 2.8446359e-43
0.174312 0.121169 -1.6799901 0.74276942 0.64414859 0.18266423 0
0.17896999 0.118333 -1.68999 0.76160246 0.62632793 0.1663581 3.8956097e-43
0.134978 0.12500399 -1.69986 -0.10072692 0.69150025 -0.71531916 2.8586489e-43
0.14947399 0.15013599 -1.67497 0.3262282 0.9374007 -0.12188126 3.2229865e-43
0.119985 0.13504 -1.69664 -0.29466158 0.55779141 -0.77591449 3.9516617e-43
0.134111 0.16285101 -1.67497 0.32416427 0.81539553 -0.47963279 0
0.17632601 0.12709901 -1.67 0.32574484 0.30164504 0.89604717 5.0586875e-43
0.14514799 0.15242399 -1.6799999 0.63709468 0.72724515 0.25539151 0
0.131281 0.129857 -1.70498 -0.21344607 0.5116232 -0.83227551 6.7262326e-44
0.155013 0.135058 -1.68722 0.24306868 0.88488281 -0.39736634 3.8339526e-42
0.17247801 0.12505899 -1.68996 0.64856678 0.76094031 0.018193489 7.5397287e-36
0.099970102 0.147735 -1.67 -0.49449879 0.48154396 0.72359264 0
0.13716701 0.159703 -1.67496 0.72437942 0.62199098 0.29732427 2.8866748e-43
0.124891 0.133114 -1.69997 -0.40100148 0.51728374 -0.75605249 2.8866748e-43
0.165581 0.13871799 -1.70499 0.93796313 0.34597808 -0.022897784 2.8866748e-43
0.157049 0.13518 -1.68499 0.34660044 0.91965532 -0.1846678 0
0.17480201 0.120601 -1.70494 0.2990047 0.86868948 -0.39493644 0
0.136096 0.16242699 -1.6749901 0.72437942 0.62199098 0.29732427 1.182382e-36
0.174997 0.119999 -1.67892 0.77824616 0.59605533 0.19761308 0
0.16431201 0.134682 -1.65499 0.69073439 0.1070177 0.71514559 0
0.169783 0.12504099 -1.71895 -0.26137915 0.57116151 -0.77811021 7.4210887e-36
0.196173 0.114895 -1.71997 0.19315553 -0.21726018 -0.95681185 0
0.174215 0.130836 -1.70998 0.054109488 0.98200667 -0.18092832 7.4214331e-36
0.14816 0.120332 -1.70999 -0.27802405 -0.53534871 -0.79756153 1.1760913e-36
0.17966799 0.118863 -1.7 0.67916614 0.73239446 -0.048287734 0
0.168623 0.133269 -1.70999 0.3770639 0.85495478 -0.35619533 0
0.17969599 0.118461 -1.6749901 -0.12038573 0.76155329 -0.63682324 7.5922815e-36
0.199329 0.109268 -1.69999 -0.27800179 0.93558544 -0.21770373 0
0.16419201 0.119989 -1.71499 0.29688552 0.83955193 0.45498526 0
0.169862 0.119959 -1.71627 0.36284694 0.50167638 0.78527886 1.1869293e-36
0.174228 0.129714 -1.6699899 0.8807267 0.29352561 0.37170312 1.1857957e-36
0.124946 0.157392 -1.65499 -0.46185496 0.69307607 0.55347586 1.1869465e-36
0.10993 0.150004 -1.67969 -0.22390889 0.70282525 -0.67520475 1.1866538e-36
0.13982201 0.14771301 -1.65999 0.43875867 0.89216161 -0.1074174 1.1774516e-36
0.179931 0.11496 -1.7180001 0.37178108 0.53197068 0.76077986 1.1855346e-36
0.172149 0.12491 -1.71998 -0.24833074 0.55367345 -0.79484433 1.180617e-36
0.174886 0.130155 -1.71498 -0.076300293 0.85046405 -0.5204702 1.1828728e-36
0.16468 0.13962699 -1.7 0.72843707 0.68383902 -0.041757159 1.1850352e-36
0.135151 0.150003 -1.6592 0.39989334 0.90815902 -0.12382459 1.1865275e-36
0.184774 0.11493 -1.71991 0.33462402 0.63413674 0.69706339 1.1847597e-36
0.14992499 0.119983 -1.7105401 0.017799897 0.99972463 0.015289934 1.1854944e-36
0.18347199 0.117788 -1.72 0.18550774 0.24548413 0.9514854 0
0.193976 0.109908 -1.71938 0.0062030917 -0.14871041 -0.98886132 0
0.18494301 0.112336 -1.69499 0.79049695 0.59078187 0.16152808 0
0.189942 0.114964 -1.72212 0.77888781 0.13629796 0.61217374 0
0.178764 0.116999 -1.68499 0.77828634 0.60834593 0.1555171 0
0.160603 0.120002 -1.70999 0.0385218 0.99321717 -0.1097072 0
0.149611 0.14159399 -1.66998 0.47291937 0.87506998 -0.10295513 0
0.164546 0.130151 -1.6749901 0.66659355 0.73008937 0.15040807 0
0.179997 0.122666 -1.7236 -0.32114729 0.15461144 -0.93432313 0
0.159462 0.14233001 -1.6950001 0.52686125 0.84446877 -0.0963834 0
0.19981501 0.110694 -1.70999 0.98667526 0.1625998 -0.0057613119 0
0.104982 0.14018799 -1.68499 -0.24144828 0.70729703 -0.66440475 0
0.181136 0.115171 -1.71 0.46554965 0.82662201 -0.31616387 0
0.158446 0.133249 -1.65999 0.7349205 0.6765846 0.046099599 0
0.16714901 0.12579501 -1.66998 0.6194241 0.78464872 -0.02530068 0
0.189877 0.108179 -1.70497 0.38546562 0.92018324 0.068403669 0
0.178683 0.124412 -1.6699899 0.5653398 0.68842298 0.45438391 0
0.129967 0.1293 -1.70494 -0.21344607 0.5116232 -0.83227551 0
0.14332999 0.154928 -1.67994 0.77721453 0.56202686 0.28295466 0
0.174944 0.13209599 -1.70499 0.33070049 0.89259797 -0.30644104 0
0.164744 0.140246 -1.67 0.60410488 0.77373642 0.19075958 0
0.15974399 0.14268699 -1.69997 -0.19027528 0.9454335 -0.26448205 0
0.173439 0.129905 -1.71497 -0.076300293 0.85046405 -0.5204702 0
0.189845 0.10949 -1.68999 -0.12832464 0.96389711 -0.23331353 0
0.180591 0.125008 -1.71997 0.25630251 0.79740709 -0.54630667 0
0.1697 0.12523 -1.6649899 0.889144 -0.37840587 -0.25735575 0
0.18227001 0.12518699 -1.71498 0.32904127 0.92624313 -0.18386284 0
0.17502899 0.13005701 -1.70989 0.35759312 0.93282729 -0.044275869 0
0.158086 0.13878199 -1.64999 0.80439508 -0.37685269 0.45927182 0
0.14471599 0.145123 -1.6599801 0.29667914 0.95497572 0.0017015358 0
0.14029001 0.15932 -1.6799901 -0.073383614 0.051827401 -0.99595618 0
0.129971 0.130044 -1.70446 -0.21344607 0.5116232 -0.83227551 0
0.159573 0.120223 -1.70999 -0.03600369 0.98898125 -0.14359617 0
0.144591 0.144899 -1.665 0.42810935 0.8983317 -0.09860269 0
0.19466101 0.108744 -1.69997 -0.21961905 0.96465158 -0.14565316 0
0.0999806 0.138951 -1.675 0.51028746 0.66002584 -0.55133712 0
0.134995 0.158999 -1.67424 0.99504852 0.078333862 0.061173409 0
0.11998 0.131991 -1.69866 -0.55372727 0.11563183 -0.82463044 0
0.164876 0.130895 -1.6799901 0.56905681 0.81563991 0.10443115 0
0.14986099 0.12517001 -1.7134 -0.27218702 -0.072604313 -0.95950133 0
0.19598 0.115397 -1.71999 0.19315553 -0.21726018 -0.95681185 0
0.134841 0.157058 -1.66998 0.387824 0.90843374 0.15601492 0
0.16876499 0.125065 -1.69994 0.2245639 0.91681796 -0.33017561 0
0.184554 0.111317 -1.71498 0.5458855 0.81848377 0.17914625 0
0.194693 0.111858 -1.6900001 0.88710517 0.40527245 0.22090423 0
0.15996 0.124943 -1.71602 -0.10861103 -0.052811731 -0.99268049 0
0.124894 0.161227 -1.67498 -0.24503818 0.9444018 -0.21922931 0
0.179961 0.128463 -1.70998 0.35667154 0.86490858 -0.3531552 0
0.17937601 0.13106801 -1.69996 0.54444075 0.83717388 -0.052193332 0
0.184981 0.124256 -1.715 0.42778888 0.85414732 -0.29568398 0
0.149407 0.14939199 -1.6799999 0.43688527 0.89357114 0.10325649 0
0.13427401 0.124392 -1.70497 -0.96523982 0.25693509 0.047920801 0
0.16992199 0.13761599 -1.69498 0.47167489 0.85836267 -0.20183243 0
0.099889599 0.14507399 -1.67909 -0.42108393 0.7436164 -0.51934856 0
0.194484 0.106161 -1.71 0.29991674 0.91177636 -0.28055987 0
0.099934399 0.139002 -1.68426 -0.19908029 0.94200748 -0.27016467 0
0.173345 0.120773 -1.6749901 0.74450272 0.6335147 0.21065342 0
0.17181399 0.135014 -1.69995 0.35023928 0.89431012 -0.27846336 0
0.158921 0.135309 -1.6749901 0.62255609 0.78204829 0.02871359 0
0.186874 0.110102 -1.71498 0.41588673 0.90902758 0.026591595 0
0.174343 0.11992 -1.7199399 0.047118828 0.25052398 0.96696305 0
0.10012 0.149992 -1.67382 -0.2327176 0.94189614 0.24222757 0
0.18237799 0.116245 -1.7 0.71331912 0.70043242 0.023878787 0
0.16966 0.12731899 -1.6900001 0.5644294 0.82383013 -0.052186418 0
0.189979 0.110725 -1.71999 -0.22602451 -0.6542381 -0.72172391 0
0.163196 0.130345 -1.66998 0.79847115 0.5626502 0.2141694 0
0.13939101 0.15559401 -1.6549799 0.43342045 0.90048099 0.03578769 0
0.114817 0.14736401 -1.66998 -0.013778313 0.45518759 -0.89028895 0
0.144831 0.143837 -1.66998 0.36239314 0.90940255 -0.2041035 0
0.144554 0.152712 -1.655 0.51426131 0.84879005 0.12284445 0
0.16301 0.136612 -1.65499 0.61934847 0.2334642 0.74960119 0
0.17516799 0.115145 -1.715 0.15031005 0.93122244 -0.33201146 0
0.096493803 0.14489099 -1.67497 -0.67620552 0.50754821 -0.53398585 0
0.184669 0.124344 -1.68499 0.77983707 0.59327447 0.19969873 1.1924624e-36
0.178247 0.120191 -1.69497 0.68319225 0.72674227 0.071372174 0
0.15993901 0.122552 -1.71499 0.61917031 0.49633324 0.60850757 0
0.14916299 0.150941 -1.66497 0.51879388 0.85355282 0.047963951 0
0.18484899 0.112161 -1.68498 0.38481137 0.90092868 -0.20061837 0
0.14734 0.140057 -1.67998 0.22684067 0.94771582 -0.22445054 0
0.179763 0.130253 -1.705 0.37612379 0.92173684 -0.094509482 0
0.13995799 0.14563701 -1.66995 0.30396792 0.91320705 -0.27139711 0
0.182786 0.119972 -1.72253 -0.31170732 0.55397731 0.77197647 0
0.110047 0.15480199 -1.67 -0.99258709 0.11522327 -0.038658574 4.4421161e-43
0.18830299 0.110149 -1.70498 0.73622131 0.67356145 0.065522134 4.4421161e-43
0.192532 0.115438 -1.68999 0.80631262 0.53516906 0.25190076 1.8917529e-43
0.183162 0.115262 -1.70495 0.65897119 0.74280697 -0.11829948 0
0.174208 0.123599 -1.69499 0.61047792 0.79117459 -0.03687197 0
0.12995499 0.159374 -1.65996 0.39833426 0.91689008 0.025345506 8.4498297e-43
0.13477901 0.160024 -1.67858 -0.36157525 0.90506929 -0.22385924 1.9057659e-43
0.167097 0.135069 -1.7090501 0.51542258 0.66980034 -0.53451574 1.9057659e-43
0.127716 0.16066401 -1.67 0.35664025 0.92654985 0.11963759 0
0.169982 0.127004 -1.68499 0.6647771 0.74121481 0.093123592 7.9033233e-43
0.19817699 0.104968 -1.71865 -0.12337275 0.75755364 0.64100832 1.9197789e-43
0.117017 0.159971 -1.66998 -0.4352861 0.88717806 -0.15310489 0
0.12938599 0.125311 -1.69997 0.0320132 0.86269313 -0.50471348 0
0.14472 0.15171 -1.675 0.41314244 0.91065615 -0.004326921 1.9197789e-43
0.13519301 0.145 -1.67448 0.17777835 0.88663596 -0.42693266 0
0.17441601 0.12556501 -1.71999 -0.17379241 0.67849958 -0.71374679 0
0.14998899 0.124755 -1.71349 -0.27757266 -0.034847043 -0.96007246 0
0.12997299 0.128553 -1.70516 -0.21344607 0.5116232 -0.83227551 1.9337919e-43
0.143378 0.154908 -1.68499 -0.044780191 0.95051855 -0.30742347 0
0.15578701 0.141536 -1.64999 0.82666737 0.38623944 0.40919456 0
0.16498201 0.123933 -1.7176501 -0.98547822 0.061834496 -0.15814298 1.0369609e-42
0.096409097 0.13981099 -1.6799901 -0.98934573 0.1410284 -0.036138523 1.9337919e-43
0.19457699 0.107342 -1.70498 -0.23625833 0.93774903 -0.2545757 0
0.1048 0.14984401 -1.66998 -0.34084931 0.62753266 0.70001751 1.9478049e-43
0.150258 0.151527 -1.68496 0.99641633 -0.084401801 -0.0055505494 0
0.139081 0.16002101 -1.67944 -0.070465676 0.98944956 -0.12658641 1.9478049e-43
0.139524 0.14399 -1.6749901 0.19648531 0.91244376 -0.35894281 1.1868998e-42
0.144155 0.15514299 -1.68499 -0.044780191 0.95051855 -0.30742347 1.4223179e-42
0.129958 0.147953 -1.66998 0.089094251 0.89109266 -0.44498995 1.9618179e-43
0.188408 0.110223 -1.70999 0.67687422 0.73371929 -0.059138168 2.1439867e-43
0.13398001 0.150232 -1.65999 0.3328326 0.92553538 -0.18057342 1.9618179e-43
0.18797 0.116629 -1.6799901 0.73947328 0.15356967 0.65543544 3.4191683e-43
0.16994201 0.130072 -1.71428 -0.11030266 0.69718021 -0.70835942 1.9618179e-43
0.169883 0.116206 -1.71499 0.47699049 0.87233877 -0.10726184 1.0888089e-42
0.144851 0.12487 -1.71207 -0.32810247 -0.10588543 -0.93868899 0
0.169475 0.125021 -1.67498 0.73471057 0.64770955 0.20167473 1.9758308e-43
0.13479 0.150609 -1.6549799 0.43969399 0.88948762 -0.12442259 1.0005271e-42
0.200169 0.110202 -1.71929 0.97129947 0.082518026 -0.22308767 1.9758308e-43
0.17494 0.122688 -1.68998 0.70494407 0.70358062 0.089600027 0
0.139832 0.124962 -1.70987 -0.22363338 0.45807078 -0.8603251 7.6014306e-36
0.14236 0.14984301 -1.6449701 -0.60862458 0.77112746 0.18691859 7.7903592e-36
0.15024801 0.13502599 -1.6884201 0.09562777 0.83896446 -0.5357182 5.1567783e-43
0.099762604 0.1498 -1.6749901 -0.2327176 0.94189614 0.24222757 1.0789998e-42
0.18600699 0.125109 -1.71 0.57999241 0.79781628 -0.16461465 0
0.174952 0.122991 -1.7224 0.66754299 0.10801746 0.7366944 0
0.15496799 0.13588101 -1.6849999 0.30162358 0.91222703 -0.27724543 7.465583e-36
0.15561099 0.14554401 -1.69498 0.54955727 0.82700306 -0.1185443 nan
0.164976 0.130248 -1.6900001 0.681813 0.70901388 -0.18008435 0
0.164551 0.12875199 -1.6950001 0.2254864 0.93016505 -0.28973928 0
0.199797 0.10583 -1.7099299 -0.26134667 0.57494193 -0.77533197 0
0.102751 0.139927 -1.68499 -0.24144828 0.70729703 -0.66440475 7.4816427e-36
0.189955 0.108498 -1.69997 0.23271112 0.97243899 0.014421611 0
0.104992 0.137823 -1.68783 -0.92942834 -0.14332029 -0.3400327 0
0.196686 0.105036 -1.71486 0.10084647 0.99357331 0.051401444 0
0.10468 0.140066 -1.68527 -0.24144828 0.70729703 -0.66440475 0
0.13986599 0.155074 -1.64999 0.49481156 0.86183494 0.11136426 0
0.149827 0.150554 -1.6699899 0.3678875 0.92841637 -0.051978625 0
0.114996 0.157076 -1.67497 -0.38118759 0.85016245 -0.3632077 1.1760769e-36
0.144848 0.122281 -1.70998 -0.69801074 -0.6672281 -0.25997636 0
0.174954 0.124791 -1.67 0.32574484 0.30164504 0.89604717 0
0.109995 0.134994 -1.69195 -0.6141063 0.029161388 -0.78868437 0
0.120131 0.159998 -1.6668 -0.51360255 0.65941101 0.54898959 0
0.200183 0.104955 -1.71807 -0.1068817 0.99410236 0.018350804 0
0.179564 0.119456 -1.7199399 0.17189054 0.70461184 0.68845904 7.7340181e-36
0.14958499 0.152246 -1.68499 0.67302126 0.72976637 -0.1203469 0
0.134978 0.127196 -1.7081 -0.68967861 0.070367768 -0.7206884 1.1762061e-36
0.139902 0.146881 -1.6649801 0.35686409 0.91570193 -0.18476479 7.7342018e-36
0.15837499 0.135537 -1.6799901 0.49335358 0.86564308 -0.085230529 0
0.194857 0.108795 -1.6949 -0.38781333 0.91801417 -0.082769692 0
0.109984 0.131864 -1.68494 0.097516753 0.96995187 -0.22289868 1.1762491e-36
0.122436 0.15989301 -1.65996 -0.12842618 0.99118501 -0.032541547 1.4349296e-42
0.194987 0.116234 -1.72 0.19315553 -0.21726018 -0.95681185 0
0.14899001 0.150483 -1.68999 -0.062363427 0.83319199 -0.549456 0
0.114999 0.140036 -1.68997 -0.29879838 0.74705935 -0.59381968 7.4781645e-36
0.154816 0.135765 -1.64999 0.78843242 -0.48399782 0.37963194 7.1746481e-43
0.189996 0.109941 -1.71935 -0.42817548 -0.66795802 -0.60868531 0
0.139971 0.159493 -1.6799901 -0.073383614 0.051827401 -0.99595618 0
0.124694 0.13026699 -1.70208 -0.4914386 0.22733782 -0.84071732 7.4785088e-36
0.129783 0.158957 -1.6699899 0.44278345 0.8966229 0.0031983373 3.5873241e-43
0.114936 0.13430101 -1.69496 -0.063917138 0.029980812 -0.99750477 0
0.144612 0.153116 -1.65999 0.46448854 0.88097286 0.090206832 0
0.15482201 0.120024 -1.70953 -0.02553121 0.99954206 0.016243938 7.4788532e-36
0.154825 0.137307 -1.6799901 0.41665068 0.88999569 -0.18522923 0.012505293
0.17998201 0.124996 -1.6738501 0.5653398 0.68842298 0.45438391 0
0.20014299 0.110304 -1.70999 0.98667526 0.1625998 -0.0057613119 0
0.169644 0.126341 -1.67998 0.71077609 0.68275791 0.16923054 7.4791976e-36
0.109773 0.154921 -1.67494 -0.07109803 0.98957431 -0.12525097 0
0.184246 0.122829 -1.67998 0.80632097 0.52960026 0.26338193 0
0.12966301 0.159703 -1.66496 0.27606872 0.96105659 -0.012503126 7.479542e-36
0.114484 0.130141 -1.68999 0.011979826 -0.99886191 0.046166334 0
0.189528 0.110959 -1.68497 -0.045654837 0.78031498 -0.62371802 0
0.203299 0.104994 -1.71497 0.83061475 0.36702293 -0.41877598 0
0.120727 0.15993001 -1.665 -0.31307665 0.94743669 0.065929882 0
0.10997 0.13371301 -1.6900001 -0.72897732 -0.61006618 -0.31050169 7.4436802e-36
0.13928799 0.154779 -1.67497 0.88254619 0.46775851 -0.04810581 0
0.123664 0.128519 -1.7 -0.54442972 0.18817805 -0.81742603 0
0.12542599 0.160161 -1.6649801 0.051708601 0.99828225 0.027545657 0.062059402
0.169992 0.12638 -1.69498 0.46073654 0.85763013 -0.2284565 0
0.186819 0.121339 -1.68499 0.78327882 0.55444402 0.28118694 7.444369e-36
0.193267 0.105443 -1.71499 0.44286084 0.88858861 -0.11951808 0
0.140027 0.15500499 -1.6692899 0.43945932 0.89640427 -0.057748746 7.4447134e-36
0.14695799 0.14000601 -1.64498 -0.89671636 0.24042201 0.37161416 0
0.189989 0.117939 -1.72317 0.90991473 0.02049296 0.41428885 0
0.104709 0.152263 -1.67494 -0.14438896 0.98124772 0.12769012 7.4450578e-36
0.187352 0.110569 -1.7 0.66132677 0.74769479 0.059995178 0.039967537
0.164947 0.131017 -1.68499 0.61456931 0.78806037 -0.0355727 0
0.1918 0.114987 -1.72258 0.29729134 -0.42842647 -0.85326934 0.0083527565
0.124766 0.153116 -1.65996 0.42802802 0.81535846 -0.38984948 0
0.197926 0.111263 -1.69997 0.89777005 0.42900643 -0.099812165 0
0.189676 0.121151 -1.71997 0.33952793 0.87409741 -0.34738231 7.5655459e-36
0.124633 0.15113001 -1.6649899 0.11257011 0.91018689 -0.39860731 0
0.139826 0.155058 -1.66997 0.32795209 0.94234008 -0.066652656 7.5658903e-36
0.123897 0.16092999 -1.6649899 -0.32388797 0.94245511 -0.08291544 0.00012969226
0.109559 0.137119 -1.6900001 -0.2159079 0.58213174 -0.78390455 0
0.20379101 0.106073 -1.71497 0.83061475 0.36702293 -0.41877598 0
0.144949 0.122548 -1.705 -0.17980911 0.93471646 -0.30655158 nan
0.129584 0.15170699 -1.65999 0.29158849 0.92916071 -0.22723669 0
0.13489699 0.157397 -1.665 0.3868041 0.92189574 -0.022155212 0
0.119832 0.130224 -1.68994 0.0069595021 -0.02962001 -0.99953699 7.5665791e-36
0.170055 0.125045 -1.69899 0.40622959 0.86832982 -0.28457135 nan
0.16469701 0.128841 -1.65996 -0.028567582 -0.49691322 0.8673299 0
0.184854 0.113065 -1.70996 0.52808607 0.81885833 -0.22493602 0
0.174528 0.122259 -1.68499 0.73887134 0.65636653 0.15248632 0
0.166063 0.13017599 -1.68498 0.59470242 0.8028971 -0.041052848 0
0.104511 0.135323 -1.67998 -0.16225816 0.9756465 -0.14760149 7.5672678e-36
0.167827 0.13344499 -1.66 0.70510614 0.14070584 0.69500154 0
0.169624 0.123583 -1.71999 -0.23677091 0.63595462 0.73450744 0
0.18017501 0.115029 -1.67986 0.36917412 0.92259181 0.1119589 nan
0.13967299 0.155395 -1.66494 0.31536314 0.9479841 -0.043269098 0
0.12975401 0.15938801 -1.65499 0.07357645 0.9537518 0.29145154 5.2658875e-36
0.19305401 0.112137 -1.68495 0.73225546 -0.07390251 0.67700839 0
0.191691 0.116777 -1.7235 0.31766605 0.17893004 -0.93116719 0
0.13001201 0.150021 -1.66561 0.23602405 0.88617522 -0.3987307 5.2660597e-36
0.117167 0.129833 -1.69498 -0.67284536 -0.26421282 -0.69099259 nan
0.189835 0.108995 -1.70999 0.54097879 0.84036529 -0.033587839 0
0.18968201 0.117013 -1.68499 0.80145574 0.51388717 0.30592257 0
0.109991 0.135065 -1.6919399 -0.6141063 0.029161388 -0.78868437 0
0.124978 0.161853 -1.66998 0.26357487 0.9598909 0.095591694 5.2662319e-36
0.200041 0.109998 -1.71916 0.97129947 0.082518026 -0.22308767 nan
0.17987899 0.115838 -1.70999 0.36845389 0.85060978 -0.3751063 0
