# .PCD v0.7 - Point Cloud Data file format
VERSION 0.7
FIELDS x y z normal_x normal_y normal_z curvature
SIZE 4 4 4 4 4 4 4
TYPE F F F F F F F
COUNT 1 1 1 1 1 1 1
WIDTH 456
HEIGHT 1
VIEWPOINT 0 0 0 1 0 0 0
POINTS 456
DATA ascii
0.25252301 0.11237 -1.42502 -0.99781084 -0.06368348 0.017831843 0
0.24972001 0.12999301 -1.42256 0.036822863 0.15530376 -0.98718023 7.5536073e-36
0.25499201 0.105024 -1.4149899 -0.9293614 0.14443159 0.33974531 3.7134409e-43
0.25258499 0.102505 -1.4075201 0.27449769 0.8519454 -0.44591486 0
0.247491 0.106303 -1.40995 0.8203125 0.36641249 -0.43912327 7.5710417e-36
0.25249499 0.117604 -1.4249901 -0.93410748 0.16300286 0.3176055 7.5613674e-36
0.247492 0.102801 -1.40996 0.22237563 0.97279465 0.064958647 7.5505739e-36
0.24999601 0.13741 -1.42761 -0.61826426 -0.45520213 -0.6407342 7.5536073e-36
0.24851 0.140009 -1.43528 -0.07583455 -0.92505896 0.37217605 7.5507116e-36
0.25041601 0.130004 -1.42248 -0.11559571 -0.78710812 -0.60588646 7.5602195e-36
0.25250199 0.112677 -1.42509 -0.99781084 -0.06368348 0.017831843 3.1529215e-43
0.239968 0.11251 -1.4450001 0.13519697 0.96998119 0.20213428 0
0.237996 0.124947 -1.44749 0.27494377 -0.95060986 0.14403757 7.5842431e-36
0.25248 0.129986 -1.4229701 -0.31033054 -0.84891403 -0.42783168 7.5687114e-36
0.25291699 0.12754101 -1.41998 -0.73155749 -0.55740708 -0.39258242 2.0739217e-43
0.244996 0.135049 -1.44042 0.14586775 -0.87265068 0.46605083 1.9758308e-43
0.249945 0.104998 -1.42054 0.062647328 0.96906805 0.23871 3.6013371e-43
0.242339 0.10985 -1.42746 0.96652114 0.13572106 -0.21775372 2.9567398e-43
0.24254601 0.117571 -1.45037 -0.9196111 -0.038302358 0.39095822 0
0.24496999 0.13302501 -1.42498 0.50269228 -0.57570201 -0.64487803 1.9898438e-43
0.242525 0.119949 -1.4283201 0.91637081 -0.23002256 -0.3276495 1.835701e-43
0.249991 0.113593 -1.4074399 0.253474 -0.6144067 -0.74716485 0
0.252691 0.125128 -1.41749 -0.48423481 -0.48292392 -0.7295897 6.7262326e-44
0.237492 0.112129 -1.44249 0.77308178 0.52059311 -0.36239117 6.5020249e-43
0.239977 0.122056 -1.44998 -0.21197988 -0.52822882 0.8222158 7.5459046e-36
0.25498599 0.108146 -1.41749 -0.93272984 0.23523897 0.2732721 1.779649e-43
0.252442 0.11741 -1.42497 -0.92913353 0.16788585 0.32943174 7.5513086e-36
0.24751 0.109961 -1.43575 -0.55571717 0.73872834 -0.38139075 7.442119e-36
0.25002399 0.107437 -1.42808 -0.30020046 0.16746025 0.93906164 7.5522728e-36
0.249566 0.107065 -1.40745 0.72365856 0.22357754 -0.65294057 7.442119e-36
0.247455 0.123486 -1.41496 0.58978695 -0.56324267 -0.57871324 7.560825e-36
0.245406 0.107507 -1.42747 0.29106981 0.91038769 0.2940622 3.671402e-43
0.24243 0.12936901 -1.44498 0.2094526 -0.64935124 0.7310763 2.0318828e-43
0.25567299 0.102476 -1.4074399 -0.46645263 0.79609895 -0.38554949 4.1898824e-43
0.24248999 0.127501 -1.44662 -0.071686685 -0.64876664 0.75760335 0.0017977395
0.25501201 0.109995 -1.41811 -0.92810446 0.1481404 0.34157956 3.3631163e-43
0.244836 0.122491 -1.44498 -0.96474236 0.097561046 0.24444644 3.657389e-43
0.25581899 0.112864 -1.40997 -0.62324089 -0.50844085 -0.59418744 0
0.25245601 0.12248 -1.41527 -0.49191025 -0.59598225 -0.63468844 7.5884108e-36
0.24998701 0.120785 -1.41246 -0.056918338 -0.89647061 0.43943226 7.5482349e-36
0.240004 0.117755 -1.4527 -0.46458817 -0.18659087 0.86564523 7.5482349e-36
0.25250301 0.13248999 -1.42661 -0.85508311 0.22967072 0.46484858 7.5482349e-36
0.241355 0.120227 -1.44998 -0.61424023 -0.44810763 0.64954484 7.5482349e-36
0.246223 0.109994 -1.43856 -0.66857189 0.57739973 0.46863765 7.5621136e-36
0.242392 0.112413 -1.42748 0.90389055 0.085131913 -0.41920689 5.0727004e-43
0.25235999 0.114607 -1.42498 -0.99781084 -0.06368348 0.017831843 7.5233224e-36
0.25753999 0.11096 -1.41038 -0.25340626 -0.18687572 -0.94913787 7.5621136e-36
0.25498 0.114988 -1.41145 -0.65027589 -0.55692017 -0.51670223 7.5675642e-36
0.25243899 0.102497 -1.41363 0.1396883 0.90536171 0.40100795 2.0879347e-43
0.252911 0.119829 -1.42498 -0.90111148 0.16311508 0.40173575 3.9937006e-43
0.25490099 0.122222 -1.41749 -0.92065901 -0.3730759 0.11489698 4.9185576e-43
0.25250199 0.134818 -1.4274499 -0.35292616 -0.12115803 -0.92777359 2.1019477e-43
0.247547 0.107497 -1.42907 0.032744415 0.97063363 0.23832357 2.1019477e-43
0.252482 0.12747 -1.41924 -0.15377297 -0.67959309 -0.71729153 2.1019477e-43
0.247627 0.13500901 -1.4401 -0.31633246 -0.050744236 0.94729024 2.718519e-43
0.25500301 0.117422 -1.41913 -0.95688075 0.048075628 0.286475 2.1019477e-43
0.244884 0.110693 -1.43747 0.29747596 0.94863665 0.10768743 0
0.242458 0.118486 -1.44998 -0.55431855 -0.31688473 0.76962006 4.2459343e-43
0.253277 0.117167 -1.40994 -0.89409995 -0.15479606 -0.42026594 0
0.25249699 0.108297 -1.4225 -0.90075791 0.32402819 0.28920734 0.00068955601
0.24400701 0.12992901 -1.4450001 -0.090127565 0.40600085 0.90941757 3.3631163e-43
0.25289199 0.109956 -1.4232 -0.77478755 0.34218782 0.53161246 4.0357396e-43
0.24514 0.127914 -1.44626 -0.79076499 -0.0081963008 0.61206496 3.3350903e-43
0.252507 0.121125 -1.42624 -0.92062813 -0.042559799 0.38811409 7.562722e-36
0.24183799 0.114651 -1.42747 0.91271871 0.077651329 -0.40114191 3.4471942e-43
0.25471899 0.101756 -1.40746 0.11204975 0.962107 -0.24858597 0
0.25782299 0.104951 -1.4081 -0.95617872 0.16680342 0.24062188 4.9185576e-43
0.25248399 0.119972 -1.41327 -0.58852446 -0.5345552 -0.60653913 4.2599473e-43
0.238342 0.117579 -1.4535201 -0.1328623 -0.44895294 0.88362259 0
0.24466699 0.13000099 -1.4451801 -0.029773846 0.02128005 0.9993301 2.1439867e-43
0.25248301 0.112094 -1.42497 -0.024618158 0.018699521 0.99952203 2.1439867e-43
0.25095499 0.132217 -1.42997 -0.9354654 0.060413528 0.3482165 2.1019477e-43
0.23973601 0.112336 -1.4349999 0.99149877 -9.8644763e-05 -0.1301159 3.4191683e-43
0.25252399 0.126258 -1.42607 -0.88269734 -0.011605899 0.46979862 2.1860256e-43
0.245573 0.142582 -1.4299901 -0.26824751 -0.96061158 0.072585285 2.2280646e-43
0.24469499 0.107476 -1.41998 0.87513065 0.39271039 -0.28270993 0.93348145
0.24395999 0.11482 -1.4475 -0.86215299 0.36102384 0.35546306 0
0.24460299 0.112438 -1.44499 -0.63064075 0.37161669 0.68131733 4.0357396e-43
0.25504199 0.124537 -1.41978 -0.97255689 0.14987013 0.17796628 3.3070644e-43
0.249851 0.105566 -1.42247 0.14806896 0.96170866 0.23063394 2.1720126e-43
0.24470501 0.11018 -1.4349999 0.23075286 0.9379164 0.25897086 3.3070644e-43
0.253023 0.130661 -1.42497 -0.99369854 -0.10693555 -0.033585321 0
0.249846 0.139854 -1.43247 -0.90577292 -0.34093708 0.25166908 2.2140516e-43
0.240095 0.114962 -1.4525 -0.012767131 0.055695798 0.99836618 2.1860256e-43
0.24205101 0.117423 -1.42747 0.89238834 -0.28079915 -0.35326311 1.5694543e-43
0.250388 0.117482 -1.41019 0.057030968 -0.11762452 -0.99141914 0
0.244919 0.13707601 -1.43497 0.43007749 -0.86261654 0.26631948 2.1860256e-43
0.24745201 0.135701 -1.43998 -0.31775704 -0.28808045 0.9033494 3.7134409e-43
0.243167 0.109836 -1.425 0.92519486 0.24123961 -0.29294696 0
0.242474 0.111904 -1.4450001 0.019966353 0.97801906 0.20755734 2.2140516e-43
0.25371799 0.112637 -1.4075 -0.54176718 -0.43563214 -0.71882749 7.5595752e-36
0.25406301 0.120285 -1.4149899 -0.60493612 -0.50326264 -0.617073 4.6803369e-43
0.25467199 0.114553 -1.41 -0.60170442 -0.56362677 -0.56592989 4.0637655e-43
0.24743401 0.104881 -1.41745 0.22097786 0.937428 0.26906782 2.3541814e-43
0.24724001 0.13285799 -1.42496 0.0030526756 -0.3761023 -0.9265731 2.2140516e-43
0.25250101 0.129945 -1.42623 -0.95330584 0.0087589798 0.30187958 2.1579996e-43
0.245013 0.142563 -1.43095 -0.26824751 -0.96061158 0.072585285 0
0.239748 0.118745 -1.4525 -0.29425141 -0.26891086 0.9171167 2.2280646e-43
0.24978501 0.102071 -1.40995 0.17125174 0.98384261 0.052216481 2.2280646e-43
0.25166801 0.122589 -1.41497 -0.34592572 -0.54659331 -0.76260811 9.8651412e-43
0.25587499 0.120832 -1.41748 -0.99352026 -0.10354128 0.046868455 7.5653049e-36
0.23721901 0.124968 -1.44499 0.98604727 -0.16577806 -0.015113349 4.8204667e-43
0.24742401 0.139973 -1.43498 -0.081295788 -0.93902147 0.33411026 0
0.2538 0.117755 -1.4125 -0.7056908 -0.6392951 -0.30545411 7.580617e-36
0.23760501 0.114968 -1.45354 0.9372353 -0.061660726 0.34320244 7.5556263e-36
0.24274801 0.117878 -1.44999 -0.71024209 -0.25742641 0.6552006 4.8905316e-43
0.246916 0.109914 -1.4375 -0.62054396 0.35957348 0.69687313 0
0.25003201 0.105033 -1.40836 0.67377555 0.29188845 -0.67884284 2.5643762e-43
0.239949 0.125029 -1.44811 0.13477661 -0.44863769 0.88349277 4.0357396e-43
0.247372 0.106876 -1.42749 0.29002997 0.89525068 0.33824372 0.00011049562
0.237202 0.124709 -1.4475 0.61172885 -0.62334943 0.48705575 6.7262326e-44
0.25465801 0.122497 -1.41998 -0.99958593 0.0068587041 0.027945448 0.00024698893
0.243531 0.11481 -1.42497 0.89741045 -0.045479767 -0.43884626 5.859237e-05
0.23744801 0.117505 -1.4532599 0.47087401 -0.34450701 0.81215304 6.7262326e-44
0.24244399 0.126441 -1.44745 -0.1769588 -0.44357142 0.87859547 8.0714792e-43
0.249937 0.106017 -1.42496 -0.24136879 0.93525499 0.25891936 2.2701035e-43
0.239998 0.12751301 -1.4459701 0.32897949 -0.61437839 0.71715528 7.4897931e-36
0.24415 0.119996 -1.4475 -0.86516929 -0.062398586 0.49758264 7.5659592e-36
0.23745801 0.118644 -1.4525 0.45597932 -0.46128082 0.76111948 7.5434365e-36
0.24458601 0.142506 -1.4311399 -0.15980768 -0.68045044 0.71515644 3.6994279e-43
0.244874 0.132415 -1.4249901 0.5269419 -0.42324558 -0.73701793 2.2000386e-43
0.25500199 0.113017 -1.41917 -0.95344621 -0.12161898 0.27595136 0
0.24750599 0.13250799 -1.44116 -0.73995996 -0.51053047 0.43797022 0.0010775309
0.25523701 0.109791 -1.41745 -0.95962369 0.20201485 0.19573535 0
0.24474201 0.132489 -1.44249 0.0074013523 0.011217304 0.9999097 2.0178698e-43
0.253214 0.117508 -1.41 -0.033447139 -0.99277937 -0.11519706 6.8692784e-06
0.239967 0.11489 -1.45249 -0.012767131 0.055695798 0.99836618 1.3592595e-43
0.24244 0.122472 -1.42997 0.82580364 -0.13402292 -0.5478012 5.3809861e-43
0.24996801 0.124983 -1.41594 -0.22316462 -0.54752374 -0.80648333 3.6994279e-43
0.24490499 0.114786 -1.44499 -0.83905339 0.066569507 0.53996098 0.00091511727
0.244165 0.13484301 -1.42746 0.79334617 -0.19867481 -0.57543916 6.7262326e-44
0.254682 0.112445 -1.41998 -0.95845526 0.04952405 0.2809107 0.78144652
0.246969 0.131982 -1.4425 -0.22607625 -0.96482271 0.13418891 0.00013298693
0.240024 0.132402 -1.43875 0.97257084 -0.08852604 -0.21510257 1.3452465e-43
0.24501 0.12730899 -1.4463 -0.79076499 -0.0081963008 0.61206496 0.78450489
0.252368 0.12810101 -1.4199899 -0.39537919 -0.80325115 -0.44549176 4.6803369e-43
0.254967 0.119988 -1.41573 -0.67784697 -0.54882556 -0.48919731 0
0.247467 0.137531 -1.43923 -0.76603305 -0.3938683 0.50799716 2.0178698e-43
0.24749599 0.13079201 -1.42246 -0.019367127 -0.67747581 -0.73529005 2.6904931e-43
0.249844 0.13268401 -1.4249901 -0.14644442 -0.44232562 -0.88481754 0.94990921
0.25396401 0.122408 -1.4225 -0.93379867 -0.0028461388 0.35778758 0.0055980785
0.24995001 0.14057299 -1.42998 -0.77385962 -0.6305756 0.059293218 2.0178698e-43
0.242658 0.137385 -1.43249 0.970613 -0.1652015 -0.17498238 0.78188068
0.25249401 0.117428 -1.40966 0.057030968 -0.11762452 -0.99141914 2.2140516e-43
0.24989 0.123686 -1.4149801 -0.023478707 -0.34599221 -0.93794358 0.35851869
0.242542 0.112973 -1.4270999 0.8823809 0.10111048 -0.45954394 7.5568094e-36
0.25165999 0.127406 -1.42748 -0.88015074 0.040359084 0.47297552 0
0.25453901 0.107476 -1.41747 -0.93272984 0.23523897 0.2732721 0
0.23924699 0.122554 -1.44988 0.050349895 -0.59389883 0.80296266 0
0.247343 0.109971 -1.41248 0.85292125 -0.083196364 -0.51536751 4.7924407e-43
0.250009 0.138293 -1.43339 -0.91225863 -0.1480702 0.38191548 2.3822074e-43
0.24749599 0.103162 -1.41245 0.2665973 0.94376999 0.19550984 0
0.242506 0.117431 -1.42669 0.8440367 -0.18025459 -0.50508446 4.6382979e-43
0.25113001 0.134936 -1.4299999 -0.91788936 0.051146273 0.39352658 2.3822074e-43
0.24981201 0.128452 -1.41996 -0.072253026 -0.84704012 -0.52659523 0
0.25244701 0.124936 -1.41703 -0.4864133 -0.50078446 -0.71597278 0
0.24995901 0.134994 -1.42644 -0.38278285 -0.43367335 -0.81572342 5.2128303e-43
0.25492901 0.104844 -1.415 -0.9293614 0.14443159 0.33974531 0
0.246555 0.112479 -1.43999 -0.86563033 0.35913417 0.34886494 2.3962204e-43
0.25498599 0.117488 -1.4137599 -0.61349517 -0.51781404 -0.5962317 1.4153114e-43
0.246186 0.137436 -1.4375 0.47273263 -0.81998301 0.32272539 4.2179084e-43
0.254933 0.101621 -1.40996 -0.28843644 0.94983274 0.12092229 0
0.25752401 0.107499 -1.40877 -0.95292091 0.085486859 0.29091874 2.3962204e-43
0.256111 0.115244 -1.41248 -0.89021099 -0.44244576 -0.10847194 2.4102334e-43
0.24932501 0.13704599 -1.43498 -0.90246928 -0.096666217 0.41976768 0
0.25590301 0.110027 -1.40748 -0.5911116 -0.74965519 -0.29766452 2.4102334e-43
0.24626601 0.132503 -1.4426301 -0.10901236 -0.95288163 -0.28307754 1.4012985e-43
0.25367701 0.114751 -1.42249 -0.90204507 -0.091212764 0.42189449 3.1949605e-43
0.255456 0.117408 -1.41749 -0.94806957 0.085346214 0.3063986 0
0.247555 0.135516 -1.43998 -0.31775704 -0.28808045 0.9033494 2.4242463e-43
0.239879 0.13000099 -1.44384 0.27347648 -0.65174502 0.70741713 6.5861028e-44
0.25000501 0.14003199 -1.43169 -0.86133575 -0.47106704 0.190254 0
0.24251001 0.116335 -1.45072 -0.85173994 -0.030129991 0.52309769 3.0828566e-44
0.250844 0.104974 -1.41996 -0.16306615 0.948232 0.27251691 3.2930514e-43
0.24745999 0.12851299 -1.41997 0.12021841 -0.77598846 -0.61918455 0
0.24000099 0.12009 -1.45152 -0.57860041 -0.44712335 0.68213069 0
0.23981 0.13241901 -1.43999 0.95689422 -0.19665793 -0.2137267 1.8917529e-43
0.252855 0.12243 -1.42496 -0.93125272 0.01438697 0.36408985 2.0178698e-43
0.246782 0.124925 -1.41745 0.74973136 -0.3185145 -0.58004433 3.3631163e-43
0.25496301 0.109984 -1.4069 -0.38964975 -0.39002797 -0.83429688 3.1949605e-43
0.249984 0.129972 -1.42242 -0.11559571 -0.78710812 -0.60588646 6.1096613e-43
0.255014 0.112318 -1.41916 -0.92624044 0.12681767 0.35495898 7.5676345e-36
0.247504 0.131935 -1.44134 -0.73995996 -0.51053047 0.43797022 7.539568e-36
0.242524 0.112499 -1.44688 -0.37991825 0.71205139 0.59046161 7.539568e-36
0.25238499 0.135116 -1.42747 -0.35292616 -0.12115803 -0.92777359 2.6764801e-43
0.249879 0.117219 -1.40999 0.4418205 -0.55472559 -0.70503485 7.5853932e-36
0.242542 0.122526 -1.44858 -0.46946952 -0.19109169 0.86202222 2.2841165e-43
0.24237099 0.111516 -1.44249 0.024455618 0.98810524 0.15182213 0
0.24249201 0.135004 -1.43747 0.5299533 -0.7593655 0.37750965 7.5527923e-36
0.24907599 0.102585 -1.40994 0.17125174 0.98384261 0.052216481 5.8013756e-43
0.241657 0.134977 -1.43497 0.9711473 -0.2384342 0.0047027576 7.5543068e-36
0.25340399 0.117462 -1.42248 -0.90441954 0.020806327 0.42613661 7.5527923e-36
0.24962901 0.130009 -1.42249 0.036822863 0.15530376 -0.98718023 7.5551793e-36
0.24497201 0.107484 -1.42695 0.28874651 0.91864872 0.26964781 7.4903671e-36
0.24388801 0.117204 -1.44748 -0.91240174 0.034143671 0.40786922 2.3541814e-43
0.244968 0.14072999 -1.42749 0.12956053 0.93823987 -0.32081148 0
0.253858 0.124985 -1.42249 -0.94831431 0.073520474 0.30869836 2.2000386e-43
0.247409 0.127185 -1.41747 0.32480812 -0.66241282 -0.67506218 0
0.24638601 0.104997 -1.418 0.72299922 0.63850892 0.26377735 7.5678641e-36
0.25422099 0.127592 -1.42246 -0.93892777 -0.34352773 -0.020083766 7.4814928e-36
0.237473 0.125057 -1.44725 0.27494377 -0.95060986 0.14403757 7.5410488e-36
0.24487901 0.106906 -1.4249901 0.23341919 0.93478876 0.26774141 7.5548579e-36
0.249604 0.12749 -1.41863 -0.10896698 -0.86606878 -0.48790479 7.5410488e-36
0.25500399 0.120642 -1.41971 -0.93840635 -0.033106942 0.34394401 4.8765187e-43
0.242415 0.112697 -1.44749 -0.37991825 0.71205139 0.59046161 0
0.24903201 0.138557 -1.42749 -0.31116655 -0.2977289 -0.90251476 7.5840845e-36
0.242468 0.111186 -1.43747 0.043447509 0.97470564 0.21922877 7.5549267e-36
0.239957 0.114916 -1.43497 0.98081642 -0.086290963 -0.17479418 7.5410488e-36
0.248841 0.14004301 -1.43493 -0.076028317 -0.94054961 0.331038 0
0.240003 0.117295 -1.45276 -0.46458817 -0.18659087 0.86564523 7.5550767e-36
0.248522 0.109863 -1.4325 -0.88025045 0.32403201 0.34664452 7.5853365e-36
0.23875301 0.120019 -1.45224 -0.038794227 -0.42699051 0.90342355 7.5410488e-36
0.25037101 0.12740999 -1.4299901 -0.93481374 -0.026517611 0.35414699 7.5410488e-36
0.25799799 0.107384 -1.40746 -0.98382556 0.05881314 0.16919892 7.5854627e-36
0.240005 0.122512 -1.44968 0.018818544 -0.10819423 0.99395162 7.5410488e-36
0.247655 0.13753299 -1.43919 -0.76603305 -0.3938683 0.50799716 2.9427268e-43
0.25557101 0.119954 -1.41746 -0.99352026 -0.10354128 0.046868455 0
0.25684699 0.10745 -1.40995 -0.92445427 0.066423729 0.37546265 7.5855316e-36
0.247284 0.107494 -1.42917 0.22661312 0.92029643 0.31890586 7.5597832e-36
0.253557 0.109922 -1.42247 -0.86966574 0.29502016 0.39578348 7.5703214e-36
0.245804 0.128911 -1.44498 -0.23607463 -0.063710362 0.96964413 9.8090893e-44
0.238553 0.129988 -1.44249 0.91646188 -0.33655131 0.2164043 5.7172977e-43
0.24249899 0.111562 -1.43999 0.15405449 0.98682255 0.049481507 2.0879347e-43
0.244876 0.14009599 -1.43244 0.58973759 -0.33464885 0.73499644 0
0.236544 0.117315 -1.45249 0.47087401 -0.34450701 0.81215304 7.5469378e-36
0.24003901 0.114977 -1.45253 -0.012767131 0.055695798 0.99836618 7.5703214e-36
0.24898501 0.139651 -1.43498 -0.10590047 -0.75391561 -0.64837974 7.4322352e-36
0.253021 0.124881 -1.425 -0.93352091 0.030181399 0.3572503 4.5121811e-43
0.254374 0.122827 -1.41746 -0.78290963 -0.62144768 -0.029245015 6.0816353e-43
0.25433299 0.12722699 -1.42249 -0.93892777 -0.34352773 -0.020083766 7.5860941e-36
0.252487 0.131082 -1.42498 -0.99369854 -0.10693555 -0.033585321 4.0777785e-43
0.2475 0.122469 -1.41471 0.082232319 -0.17490336 -0.98114556 3.8675838e-43
0.237214 0.112499 -1.4449199 0.60119134 0.78944421 0.12388247 2.4662853e-43
0.254356 0.109991 -1.42 -0.93969584 0.12468003 0.3184754 7.5467197e-36
0.256529 0.11248 -1.41249 -0.98911029 -0.088067494 0.11791904 2.9847657e-43
0.248687 0.105087 -1.41997 0.11066963 0.99146736 0.068881527 7.5481201e-36
0.25631401 0.117679 -1.4149899 -0.90761536 -0.41841158 -0.034148373 7.5718941e-36
0.248282 0.138928 -1.4375 -0.66657507 -0.54057407 0.51328093 7.5718941e-36
0.239914 0.1116 -1.44248 0.12362597 0.96809119 0.21798193 7.5718941e-36
0.25341001 0.104883 -1.41749 -0.78244072 0.4379198 0.44273329 5.7172977e-43
0.247428 0.140916 -1.43249 0.020710144 -0.98582083 0.16651833 2.746545e-43
0.25246 0.102582 -1.40748 0.27449769 0.8519454 -0.44591486 2.704506e-43
0.24189299 0.119973 -1.42997 0.94359684 -0.22493429 -0.24296008 0
0.23992901 0.128713 -1.44499 0.22971795 -0.62925076 0.74247772 2.760558e-43
0.254825 0.119956 -1.41996 -0.95201331 -0.0070097265 0.30597636 2.760558e-43
0.25300899 0.12988199 -1.42497 -0.99324924 -0.10864627 -0.040644336 2.5924022e-43
0.24302299 0.11995 -1.42747 0.8879137 -0.21041103 -0.40906775 0
0.247757 0.107437 -1.40999 0.87181038 -0.14010239 -0.46938044 7.4472388e-36
0.25031599 0.140101 -1.4299999 -0.78835249 -0.60491461 0.11215478 5.479077e-43
0.24282899 0.117399 -1.45 -0.88938868 -0.11075589 0.44353229 0
0.237499 0.12251 -1.44945 0.062090516 -0.99744928 0.035209198 3.7835059e-44
0.24244399 0.13250799 -1.44072 0.21180062 -0.77527511 0.59505379 7.5565231e-36
0.24028 0.117195 -1.45248 -0.27702659 -0.010946738 0.96079987 0
0.249375 0.140744 -1.43249 -0.48575586 -0.81995881 0.30283466 4.3159993e-43
0.24497899 0.14001399 -1.4325 0.58973759 -0.33464885 0.73499644 0
0.25157401 0.120205 -1.41245 -0.47136629 -0.56207973 -0.6796177 1.5134023e-43
0.23748399 0.115999 -1.45371 0.28093401 -0.11605661 0.95268404 2.7885839e-43
0.245994 0.135001 -1.44058 0.053647574 -0.73363125 0.67742682 2.7885839e-43
0.25473499 0.117409 -1.41997 -0.95688075 0.048075628 0.286475 0
0.24247199 0.125081 -1.44806 -0.11521375 -0.246549 0.96225744 2.7885839e-43
0.249971 0.106835 -1.42749 -0.12058152 0.90670383 0.4041636 0
0.252413 0.10731 -1.42247 -0.92441976 0.22994609 0.30425799 2.8025969e-43
0.242505 0.112168 -1.4272799 0.90389055 0.085131913 -0.41920689 0
0.25596499 0.112477 -1.41497 -0.97856301 0.052518602 0.1991387 2.8025969e-43
0.252514 0.104991 -1.41898 -0.61064446 0.59716356 0.52010483 0
0.25400299 0.102497 -1.41357 -0.097429074 0.91414469 0.39350614 0
0.242613 0.125177 -1.44803 -0.11521375 -0.246549 0.96225744 2.8166099e-43
0.250615 0.107423 -1.42746 -0.85941106 0.37968701 0.34241846 0
0.24246 0.109117 -1.4299999 0.64932203 0.7602542 -0.01986202 3.8535708e-43
0.25717899 0.105064 -1.40727 -0.95617872 0.16680342 0.24062188 0
0.244535 0.13499901 -1.43998 0.48114645 -0.77935529 0.4013769 3.8115318e-43
0.25245699 0.125421 -1.41749 -0.35989395 -0.59529382 -0.71840215 2.8306229e-43
0.252388 0.103285 -1.41496 0.10985094 0.9022395 0.41700923 3.1529215e-43
0.237497 0.120056 -1.45163 0.31163746 -0.59731394 0.73898453 0
0.244902 0.110762 -1.4400001 -0.0039490052 0.98098111 0.19406305 2.8446359e-43
0.25249201 0.104404 -1.4175 -0.19127609 0.91339719 0.35933143 1.4012985e-43
0.247052 0.13495199 -1.42588 -0.13309924 -0.35130793 -0.92675096 0
0.25145701 0.112494 -1.42746 -0.88202655 0.14317386 0.44892144 3.8956097e-43
0.25753799 0.109141 -1.40952 -0.8330195 0.19765103 0.51673263 2.8586489e-43
0.24931499 0.112477 -1.40747 0.53217542 -0.34627774 -0.77258074 3.2229865e-43
0.237321 0.113328 -1.44998 0.070654951 0.94053853 0.33225769 1.9197789e-43
0.243608 0.13969401 -1.4299901 0.97695965 -0.15948877 0.14182109 3.9516617e-43
0.248537 0.114842 -1.40997 0.8487469 -0.2579366 -0.46162474 5.0586875e-43
0.244987 0.107656 -1.42749 0.28874651 0.91864872 0.26964781 0
0.256383 0.117405 -1.415 -0.98233211 -0.1778947 -0.058112748 3.5733111e-43
0.24855199 0.13747101 -1.4375 0.28196678 -0.83861136 0.46607479 7.5397287e-36
0.244985 0.132517 -1.44249 0.0074013523 0.011217304 0.9999097 4.55422e-43
0.240293 0.11749 -1.43497 0.9895038 -0.092066444 -0.11138246 0
0.247431 0.139878 -1.42749 -0.16115588 -0.31491637 -0.9353376 4.9605966e-43
0.23988 0.112646 -1.44748 0.041078608 0.98804539 0.14858967 0
0.250009 0.104985 -1.42046 0.062647328 0.96906805 0.23871 2.8866748e-43
0.25380701 0.119989 -1.42248 -0.92611212 0.10842805 0.36133054 2.8866748e-43
0.244877 0.109322 -1.43249 0.16451629 0.93441623 0.31591254 2.8866748e-43
0.25744101 0.108465 -1.40746 -0.80372679 -0.57718438 -0.14450395 2.8866748e-43
0.25500801 0.119999 -1.41953 -0.93840635 -0.033106942 0.34394401 0
0.25605699 0.107319 -1.41246 -0.95112139 0.08682327 0.29636094 0
0.25707 0.109758 -1.40996 -0.83374941 0.17789128 0.5227012 0
0.25584301 0.114658 -1.41497 -0.96962947 0.064382516 0.23595242 1.1848616e-36
0.23825 0.112499 -1.44511 -0.0082552843 0.99090374 0.13431934 0
0.247481 0.13744999 -1.42669 -0.30076808 -0.2690756 -0.91495186 0
0.24746899 0.107865 -1.4299999 0.18067467 0.91237402 0.36732867 7.4214331e-36
0.247105 0.141822 -1.42996 -0.38643748 -0.87939948 0.27806947 1.1760913e-36
0.240483 0.117303 -1.43247 0.9651472 -0.17335621 -0.19605756 0
0.24042299 0.112469 -1.4325 0.88193202 0.39526802 -0.25682506 0
0.236002 0.119953 -1.4475 0.95124507 -0.26055777 -0.16505282 0
0.244959 0.135243 -1.43999 0.14586775 -0.87265068 0.46605083 7.4217775e-36
0.24242701 0.131374 -1.44249 0.19858347 -0.78262848 0.58996379 1.1770556e-36
0.23733699 0.114979 -1.45359 0.9372353 -0.061660726 0.34320244 0
0.24498899 0.13751601 -1.43448 0.44523665 -0.66141146 0.60357201 0
0.252224 0.1194 -1.41249 -0.58023256 -0.72264338 -0.37565506 7.5922815e-36
0.25241199 0.105273 -1.41998 -0.40601599 0.41861618 0.81234938 1.1866064e-36
0.242208 0.11 -1.43295 0.58800304 0.77487576 0.23199134 1.1854614e-36
0.25246599 0.109884 -1.4058 -0.41591427 -0.36144635 -0.83448899 1.1833592e-36
0.252958 0.102511 -1.40746 0.11923803 0.88146186 -0.45695433 1.1857957e-36
0.23982 0.111496 -1.43999 0.058899917 0.98576576 0.15746944 1.1869465e-36
0.25758401 0.111162 -1.41 -0.25340626 -0.18687572 -0.94913787 1.1866538e-36
0.239922 0.13257299 -1.43998 7.9738624e-05 -0.99930936 -0.037158862 1.1774516e-36
0.25121999 0.13732199 -1.42998 -0.98424321 -0.090228193 -0.15206642 1.180617e-36
0.23986501 0.13151 -1.44249 0.25510582 -0.79477853 0.55067974 1.1868518e-36
0.249916 0.103611 -1.41497 0.11497214 0.94767159 0.29782546 1.1855805e-36
0.24155501 0.111412 -1.4299901 0.9281435 0.20319477 -0.3118678 1.1860669e-36
0.24719299 0.140056 -1.42746 0.00010365828 -0.00039280925 -0.99999994 1.1867012e-36
0.25493401 0.112499 -1.40863 -0.62599492 -0.47844687 -0.61580753 1.1865275e-36
0.237425 0.126646 -1.4450001 0.97585118 -0.19915022 -0.089742333 1.1786971e-36
0.24476101 0.106271 -1.42249 0.72353327 0.68356699 0.096102692 1.1847597e-36
0.247329 0.105304 -1.41997 0.1729974 0.96467948 0.19865902 1.1854944e-36
0.24375901 0.117391 -1.42497 0.87419087 -0.079976343 -0.47895101 7.4121233e-36
0.24452899 0.139938 -1.4275 0.46241185 -0.39631256 -0.79316556 0
0.23745801 0.112806 -1.44748 0.062863521 0.98404938 0.166418 0
0.252491 0.134813 -1.42747 -0.35292616 -0.12115803 -0.92777359 0
0.247927 0.119894 -1.41246 0.7307871 -0.33470413 -0.59491462 0
0.244895 0.136195 -1.4375 0.4895308 -0.81667149 0.30562606 0
0.241201 0.117498 -1.42997 0.94020492 -0.1540051 -0.30380452 0
0.246213 0.127424 -1.41998 0.87116784 -0.22114815 -0.43836069 0
0.25505 0.10243 -1.41239 -0.55687952 0.68663329 0.46735418 0
0.239943 0.13249999 -1.4402 0.13130383 -0.95532906 0.26477471 0
0.24491 0.142768 -1.42998 -0.26824751 -0.96061158 0.072585285 0
0.235487 0.119902 -1.44999 0.86433434 -0.40267679 0.30129305 0
0.25500301 0.107364 -1.41596 -0.95231605 0.15715687 0.26152608 0
0.251701 0.107478 -1.42497 -0.86453819 0.37262648 0.33722872 0
0.243927 0.126278 -1.4475 -0.3047252 -0.29758683 0.90475667 0
0.24999601 0.139943 -1.42932 -0.78976083 -0.45101896 -0.41576406 0
0.242406 0.114159 -1.45 -0.40962815 0.64471674 0.64540309 0
0.249989 0.104027 -1.41749 0.090258025 0.96409166 0.24976133 0
0.24529999 0.137355 -1.43499 0.43007749 -0.86261654 0.26631948 0
0.25494599 0.116196 -1.41248 -0.61378092 -0.53294468 -0.58244562 0
0.2414 0.119976 -1.43248 0.94770139 -0.21830165 -0.23282273 0
0.242434 0.110567 -1.4349999 0.16857338 0.94741696 0.27200031 0
0.240027 0.114937 -1.43499 0.98101896 -0.088380218 -0.17259996 0
0.241078 0.114824 -1.42998 0.95618594 0.047269911 -0.2889187 0
0.24384201 0.122462 -1.44748 -0.82976645 -0.1153181 0.54606724 0
0.24439999 0.13748001 -1.42746 0.60188848 -0.0041142972 -0.79856956 0
0.25794399 0.104971 -1.40745 -0.95617872 0.16680342 0.24062188 0
0.25071299 0.124594 -1.4299999 -0.93314445 -0.037256818 0.35756585 0
0.25457799 0.114734 -1.41998 -0.95203006 -0.11805718 0.28231415 0
0.24664199 0.132566 -1.44248 -0.22607625 -0.96482271 0.13418891 0
0.23937 0.129932 -1.43999 0.92634839 -0.17947645 -0.33115995 0
0.249827 0.104828 -1.41996 0.11066963 0.99146736 0.068881527 0
0.244938 0.109989 -1.4349101 0.23075286 0.9379164 0.25897086 0
0.25252801 0.12498 -1.4259501 -0.89914942 0.035196617 0.4362241 0
0.243922 0.124968 -1.44748 -0.63082349 -0.11086907 0.76796472 0
0.249843 0.12695999 -1.41747 -0.264566 -0.73530126 -0.62396872 0
0.254668 0.125127 -1.41996 -0.90194738 -0.35514489 0.24568881 0
0.245198 0.130026 -1.44498 -0.029773846 0.02128005 0.9993301 0
0.254002 0.112468 -1.42247 -0.9106223 0.072440647 0.40684071 0
0.245011 0.130055 -1.44504 -0.029773846 0.02128005 0.9993301 0
0.252552 0.1124 -1.42497 -0.99781084 -0.06368348 0.017831843 0
0.25085899 0.139258 -1.4299901 -0.91991329 -0.38941896 0.045961037 0
0.24298 0.114991 -1.44999 -0.84165204 0.055929806 0.53711617 0
0.25198701 0.129972 -1.4275 -0.89882261 0.047984667 0.43567809 0
0.24498101 0.130164 -1.44499 -0.029773846 0.02128005 0.9993301 0
0.25241199 0.114998 -1.40846 -0.60647446 -0.42594165 -0.67138845 0
0.245575 0.129894 -1.42249 0.71797931 -0.30828345 -0.62407297 0
0.244931 0.108362 -1.4299999 0.24189718 0.92077625 0.306034 0
0.237435 0.122038 -1.44999 0.050423734 -0.64343625 0.76383722 0
0.24908701 0.109798 -1.40748 0.89823246 -0.029869027 -0.43850467 0
0.25687799 0.10487 -1.40994 -0.93848717 0.13149905 0.31929585 0
0.25748399 0.111251 -1.40997 -0.25340626 -0.18687572 -0.94913787 0
0.250211 0.105525 -1.40747 0.61809057 0.33823541 -0.70962024 0
0.25499001 0.110401 -1.40747 -0.42991626 -0.42172712 -0.79832214 0
0.24243701 0.136222 -1.43497 0.62402004 -0.75460964 0.20288728 0
0.242458 0.13336299 -1.43998 0.21857692 -0.45519081 0.86314857 0
0.240438 0.114927 -1.4325 0.97828257 -0.010665608 -0.20700106 0
0.25246099 0.129575 -1.42247 -0.43517098 -0.76775664 -0.47029349 0
0.25029799 0.102504 -1.41249 0.15314418 0.96467906 0.21433902 0
0.25499299 0.107497 -1.40598 -0.40287161 -0.37264422 -0.83596098 0
0.25243601 0.122014 -1.41495 -0.46264902 -0.57719886 -0.67290223 0
0.24205101 0.112489 -1.447 0.098478749 0.97735465 0.18729599 0
0.249909 0.13725001 -1.42747 -0.61826426 -0.45520213 -0.6407342 0
0.24253599 0.114965 -1.45035 -0.84165204 0.055929806 0.53711617 0
0.25017601 0.13921 -1.43246 -0.92591888 -0.25719756 0.27662903 0
0.236166 0.12215 -1.44748 0.9515385 -0.27139062 0.14464287 0
0.250054 0.102502 -1.40895 0.46581849 0.32976416 -0.82113868 0
0.25797901 0.10811 -1.40749 -0.95292091 0.085486859 0.29091874 0
0.2474 0.13999 -1.4275399 -0.16115588 -0.31491637 -0.9353376 0
0.23975401 0.113245 -1.45 -0.15152167 0.89559996 0.41826054 0
0.25303301 0.127487 -1.42498 -0.90233618 -0.001182433 0.43103135 0
0.255869 0.104817 -1.41249 -0.94410175 0.21413827 0.25063255 0
0.242465 0.134982 -1.43749 0.5299533 -0.7593655 0.37750965 0
0.25249201 0.118061 -1.40997 0.057030968 -0.11762452 -0.99141914 0
0.237488 0.114484 -1.45249 -0.2088999 0.62543631 0.75179136 1.1924624e-36
0.244914 0.13997 -1.43249 0.58973759 -0.33464885 0.73499644 0
0.25628099 0.109945 -1.41246 -0.94107455 0.11407415 0.31837997 0
0.244324 0.12751999 -1.44675 -0.068582594 -0.59242612 0.80270028 0
0.24020401 0.117809 -1.45249 -0.46458817 -0.18659087 0.86564523 0
0.251845 0.132478 -1.42746 -0.90255696 0.10554223 0.41743481 0
0.25511399 0.114926 -1.41747 -0.96934795 -0.036341816 0.24298923 0
0.248005 0.13439199 -1.43999 -0.31633246 -0.050744236 0.94729024 0
0.25252199 0.117488 -1.42483 -0.92081302 0.17241286 0.34982446 0
0.24496301 0.110954 -1.4425 -0.14283632 0.92993611 0.338846 0
0.25240201 0.10212 -1.41245 0.12861064 0.93230414 0.338036 0
0.25250801 0.113063 -1.42496 -0.99781084 -0.06368348 0.017831843 0
0.247418 0.140019 -1.4349101 -0.081295788 -0.93902147 0.33411026 0
0.238352 0.116778 -1.45372 -0.25595674 -0.049266461 0.96543199 4.4421161e-43
0.242396 0.109748 -1.43249 0.54976541 0.83054525 0.089177556 0
0.23657399 0.114997 -1.44498 0.9622944 0.096372731 -0.25436535 4.4421161e-43
0.239768 0.110842 -1.43747 0.19307269 0.98098052 0.020002907 1.8917529e-43
0.249926 0.132487 -1.42497 -0.14644442 -0.44232562 -0.88481754 0
0.25615299 0.102478 -1.40995 -0.84584916 0.51850033 0.12528604 0
0.25243801 0.101318 -1.40996 0.088368692 0.98629713 -0.13931619 0
0.242506 0.120003 -1.44932 -0.67378926 -0.25227594 0.69452494 8.4498297e-43
0.25500801 0.104962 -1.41493 -0.9293614 0.14443159 0.33974531 0
0.25482801 0.124792 -1.41998 -0.97255689 0.14987013 0.17796628 0
0.25174099 0.122478 -1.42748 -0.90317798 -0.03623233 0.42773449 0
0.255348 0.107372 -1.41496 -0.94146842 0.134477 0.30911681 0
0.25190201 0.119962 -1.42749 -0.89936465 0.027379794 0.43634117 0
0.242448 0.118834 -1.42749 0.86941838 -0.30375361 -0.38967347 7.9033233e-43
0.239957 0.112484 -1.44486 0.13519697 0.96998119 0.20213428 0
0.25668699 0.114173 -1.41246 -0.89021099 -0.44244576 -0.10847194 0
0.242305 0.130008 -1.44425 0.16942185 -0.78846395 0.59128743 1.9197789e-43
0.237896 0.127441 -1.4450001 0.70790732 -0.66011322 0.25123259 0
0.247319 0.105867 -1.42247 0.13848779 0.96883816 0.20536265 0
0.247403 0.103857 -1.41496 0.18624698 0.94205344 0.27901146 0
0.25334299 0.107439 -1.41998 -0.87981826 0.37593952 0.29084238 0
0.254987 0.1024 -1.41248 -0.55687952 0.68663329 0.46735418 1.9337919e-43
0.252446 0.112431 -1.4069 -0.10517034 -0.43755925 -0.89301795 0
0.24733 0.109364 -1.43497 0.13515535 0.96886522 0.20744461 1.66194e-42
0.239978 0.125873 -1.4474699 0.21372657 -0.63210821 0.7448222 0
0.247402 0.106311 -1.42498 0.19198833 0.95747781 0.21535254 1.0369609e-42
0.25745001 0.104648 -1.4074399 -0.95617872 0.16680342 0.24062188 0
0.249997 0.102482 -1.4122601 0.2074419 0.96774656 0.14294915 1.9478049e-43
0.252399 0.114169 -1.40746 -0.30163351 -0.43057913 -0.85065788 1.9478049e-43
0.247987 0.13245399 -1.4400001 -0.91834569 -0.073531128 0.38888869 1.9478049e-43
0.25562999 0.112063 -1.41746 -0.96882218 0.081845067 0.23384824 1.9478049e-43
0.249951 0.10259 -1.41249 0.20396079 0.95504653 0.21514197 1.4223179e-42
0.244202 0.142499 -1.42998 0.85903871 -0.45822829 -0.22820888 1.9618179e-43
0.235139 0.11672 -1.44998 0.91251373 0.22292759 0.3429606 2.1439867e-43
0.245499 0.107437 -1.41749 0.95075309 0.1404189 -0.27631691 1.9618179e-43
0.25495499 0.119063 -1.415 -0.58640951 -0.49896684 -0.63808775 1.9618179e-43
0.24728499 0.138743 -1.43747 0.28196678 -0.83861136 0.46607479 3.4191683e-43
0.25174999 0.124978 -1.42748 -0.90838265 -0.0074843811 0.41807288 1.9618179e-43
0.255674 0.109893 -1.4149801 -0.96864319 0.13697919 0.20728515 4.3300123e-43
0.24747001 0.108856 -1.43248 -0.031008281 0.95079178 0.30827504 0
0.25251701 0.107496 -1.42231 -0.86212564 0.34727937 0.36896676 3.4191683e-43
0.245812 0.127479 -1.44499 -0.82119882 0.10569607 0.56076813 1.9758308e-43
0.247494 0.13249899 -1.42477 -0.0015662973 -0.11945406 -0.9928385 1.9758308e-43
