ply
format ascii 1.0
comment PCL generated
element vertex 1213
property float x
property float y
property float z
property float nx
property float ny
property float nz
property float curvature
element camera 1
property float view_px
property float view_py
property float view_pz
property float x_axisx
property float x_axisy
property float x_axisz
property float y_axisx
property float y_axisy
property float y_axisz
property float z_axisx
property float z_axisy
property float z_axisz
property float focal
property float scalex
property float scaley
property float centerx
property float centery
property int viewportx
property int viewporty
property float k1
property float k2
end_header
3.01107 13.3048 412.41199 -0.1887579 -0.7791155 -0.5977872 0.030660452
35.484699 69.314697 410.76901 0.66795212 -0.47143769 -0.57583541 0.11175037
38.4086 62.0662 422.638 0.59169078 0.65723735 0.46684161 0.11226393
26.99 87.198898 384.26199 0.18242279 0.96394724 0.19372043 0.096397258
-0.00295484 16.3249 413.80099 -0.84054333 -0.032917831 0.54074335 0.050297465
19.1474 84.2397 378.16199 -0.097944051 0.2858941 -0.95324266 0.051754408
17.769899 84.035301 378.33499 -0.13770619 0.25982749 -0.95578587 0.10636573
23.6231 84.557503 378.30801 -0.12737937 0.20674554 -0.97006738 0.078717709
-1.50723 30.9891 397.43301 0.11457972 -0.82517397 -0.55313599 0.061421443
38.434799 62.637699 419.45801 0.91815019 -0.10398924 -0.38234344 0.12217743
14.8435 82.719498 379.77701 -0.62101841 0.7503475 0.22652756 0.060980529
16.253401 84.2342 378.62799 -0.39805511 0.82654655 -0.39796093 0.088307172
35.409901 66.561996 418.233 -0.19588977 0.68363458 0.70304412 0.080985442
40.0835 54.960098 428.57101 0.32377589 0.62652183 0.70897079 0.14202088
-1.45058 63.431702 372.345 0.41117048 -0.063302293 -0.90935785 0.071683414
35.485401 67.938797 412.02301 0.5761829 -0.5530417 -0.60179573 0.075938232
39.8587 13.4396 441.85999 0.70655257 -0.58524913 -0.39782771 0.089200012
-1.4559799 38.376099 391.11801 0.86316681 -0.22563432 -0.45169923 0.06207988
17.693501 2.95487 431.07401 0.090669364 -0.85371387 -0.51278818 0.13339217
-1.49762 37.064201 391.621 0.59209454 -0.59575182 -0.54268205 0.093795843
36.978699 66.408699 414.84201 0.87705815 -0.19673732 -0.43825039 0.11268827
-4.4705701 39.898998 387.15799 -0.21381584 -0.87919968 -0.4257825 0.056496747
36.685299 63.545601 416.75 0.5507524 -0.56563205 -0.61378515 0.018022478
22.5233 1.45866 434.46799 0.045171838 -0.98937356 0.13820085 0.14792749
36.583099 65.197998 415.29001 0.58871871 -0.45839408 -0.66579664 0.039503224
35.0858 68.006302 416.73099 0.020243464 0.72141457 0.69220752 0.083995342
-2.9775901 36.890202 391.23001 -0.18878317 -0.8303284 -0.52432406 0.062533945
42.840698 39.841099 437.16599 0.98506856 0.12611273 0.11719874 0.17835337
-10.3696 54.816299 369.448 -0.90185058 0.41808 -0.10897056 0.077524401
-9.2618103 54.683399 367.89499 -0.16342743 0.41595221 -0.89458102 0.058091395
2.9595301 18.731199 407.828 0.69862503 -0.19663268 -0.68793797 0.090846956
2.86394 14.7566 410.798 -0.20328327 -0.97716606 -0.06182551 0.085609488
28.1756 5.90838 440.41299 -0.099796072 -0.4687131 0.87769514 0.11862812
2.64551 72.441399 376.83401 -0.55984831 0.82857776 -0.0053653428 0.104265
4.4552398 13.189 412.04001 -0.11673163 -0.02299455 -0.99289727 0.059840322
4.0891299 13.2945 411.548 -0.00011435582 -0.58127677 -0.81370592 0.052159131
-0.155682 14.8398 413.79599 -0.99916506 -0.0046319729 0.040592767 0.090669334
-6.0254102 39.895599 388.62201 -0.49531525 -0.78935641 -0.36273855 0.045833729
28.0779 82.643898 386.70401 0.6128791 -0.68328691 -0.39686039 0.012785574
-0.35675201 69.491699 374.80399 -0.56305587 0.71602166 -0.41265127 0.082624704
14.7336 82.783203 378.289 -0.37758636 0.89728475 -0.2287107 0.11214075
1.29287 11.7585 415.20901 -0.57096016 -0.79846412 -0.19094388 0.11897577
33.994701 72.3918 406.323 0.57661819 -0.59447163 -0.56045955 0.070706762
-2.9165499 23.690901 404.909 -0.64958143 -0.60516089 -0.46024376 0.069880337
14.5758 82.781502 378.345 -0.37758636 0.89728475 -0.2287107 0.11163627
-9.8297796 54.5811 367.965 -0.50099707 0.54362732 -0.67340273 0.1023488
2.4586401 14.9286 410.83401 -0.26267549 -0.59564066 -0.75908744 0.048146393
26.5958 2.9588599 438.185 0.43530247 -0.78829682 0.43485615 0.18445855
-1.61656 68.277603 375.37299 -0.80214167 0.58960307 0.094535477 0.07449118
44.3382 20.891199 444.84698 0.39055768 0.31369177 0.86548376 0.13345258
24.8843 2.92483 438.89899 -0.12719776 -0.54827958 0.82656533 0.1063484
25.1208 84.300003 379.80399 0.4639979 -0.7625832 -0.45074698 0.012849655
27.6747 5.7713699 440.37701 -0.20438732 -0.53011036 0.822927 0.13470647
39.9212 13.2147 441.91901 0.57936674 -0.72826934 -0.36600262 0.084239572
44.622898 19.653099 444.81601 0.82916176 0.1215988 0.54562306 0.19386886
-1.70693 39.029499 390.14801 0.87712276 -0.20646366 -0.43362245 0.069351286
31.0137 7.4186401 440.37201 0.43668038 -0.77959043 0.44894207 0.11969284
32.544899 78.273102 398.63501 0.84603685 -0.17934617 -0.50205243 0.10838076
-4.4325299 64.857903 374.38901 -0.78595293 0.60499465 0.12751284 0.04259745
44.355999 23.6215 441.63501 0.85080248 -0.093004704 -0.5171898 0.047745436
44.3806 22.838699 441.87299 0.87064981 -0.14717324 -0.46937084 0.061705559
28.104 84.225403 384.017 0.74159861 -0.52520847 -0.41735786 0.10381431
-4.4424901 29.693899 401.98499 -0.93299156 0.15835905 0.32318598 0.094828628
26.691099 2.50876 437.422 0.53526056 -0.84418309 -0.029172355 0.15861076
-2.9537101 61.7341 370.86099 0.71908379 -0.26378852 -0.64291066 0.091186129
44.3055 22.4659 441.884 0.74126071 -0.18048964 -0.64649522 0.083504871
25.394199 2.3424799 437.43201 0.13142562 -0.97706646 0.16753651 0.11264454
41.416801 45.776199 431.39099 0.70233858 -0.29497626 -0.64784992 0.090205945
41.441299 47.255798 430.75299 0.68643707 -0.18541892 -0.70315284 0.11612115
35.659302 69.505402 415.26199 0.25471911 0.76016116 0.59772331 0.11612084
42.876301 37.115799 439.00201 0.69057006 0.19226937 0.69724131 0.10861079
-2.9303801 62.1856 370.85999 0.20399666 0.2971642 -0.93278015 0.070864171
-3.8500199 62.1166 370.931 0.029122092 0.24466929 -0.96916914 0.081308179
-1.45271 36.8792 391.85199 0.59209454 -0.59575182 -0.54268205 0.091213718
-1.45821 35.459801 392.85699 -0.0053600636 -0.72015291 -0.69379467 0.084817082
-3.25492 60.7658 370.93701 0.66060847 -0.27046406 -0.70031828 0.094094343
-2.8752799 61.6936 370.97198 0.78406465 -0.24900812 -0.56853986 0.091162488
1.44427 11.0306 416.75601 -0.71573102 -0.6939441 0.078553915 0.10600952
1.5175 66.446899 374.745 0.74590814 -0.42350662 -0.51406533 0.074413389
8.9771004 78.012802 378.328 -0.58608681 0.80851763 -0.052928887 0.099115074
-4.9807 62.070702 371.021 -0.30627236 0.43224156 -0.84815359 0.11770574
27.194099 7.4739099 440.39401 -0.42282504 -0.11348122 0.89907783 0.10771735
29.5641 84.253601 391.82599 0.48416448 0.84043092 0.24343511 0.10565504
36.724602 62.182899 422.651 -0.13717143 0.6120401 0.77883947 0.096939586
1.33491 23.7241 403.45599 0.37106049 -0.12304646 -0.92042041 0.070888557
-5.7054 61.7785 370.92401 -0.19554724 0.53766549 -0.82016891 0.064476199
28.0928 85.645401 382.45901 0.95198959 -0.047582831 -0.30240983 0.15665738
4.8996801 70.957298 375.27499 0.4182581 -0.13290074 -0.89855301 0.083140202
35.485802 66.618301 418.211 -0.19791818 0.66483814 0.72029066 0.10250057
-11.8234 50.1539 367.772 -0.84383529 0.51615381 -0.14672174 0.11527483
38.4035 59.1259 425.60599 0.28478199 0.5014134 0.81699681 0.11446222
-8.9112902 47.280499 371.44 -0.42644358 -0.88607931 -0.18168479 0.048541978
-8.7948999 47.322201 370.92599 -0.37898439 -0.91184562 -0.1578238 0.049584843
-6.3151598 53.4174 368.01401 0.82843179 -0.097213432 -0.55158889 0.073721886
14.4147 81.2845 377.978 -0.12123428 0.27577227 -0.953547 0.10760148
-4.4865398 39.889702 387.19299 -0.21381584 -0.87919968 -0.4257825 0.054104056
-7.51965 45.694099 376.832 -0.36851153 -0.92342961 -0.10713091 0.057472914
-7.3650999 51.153801 366.37701 0.69687611 -0.33873707 -0.63215572 0.11584219
32.5583 75.325996 407.58301 -0.14683127 0.78641284 0.59999621 0.075313747
31.064899 6.9207101 438.733 0.91420156 -0.2482841 -0.3202976 0.064956553
-5.96071 35.761799 396.069 -0.98081684 -0.10716876 0.16282871 0.089981675
-7.40799 42.855202 383.978 -0.62755144 -0.72289884 -0.28913057 0.054875974
-0.191231 28.0674 399.64899 -0.097656406 -0.56807232 -0.81716406 0.12819415
-0.043926701 31.226999 397.526 0.16134003 -0.15517394 -0.9746232 0.081980407
22.033701 1.45611 434.479 -0.16163428 -0.98667043 0.018864298 0.10440297
22.125299 87.242203 379.147 -0.27911231 0.86836082 -0.40993395 0.0923969
5.9242501 8.7277699 423.362 -0.7928223 -0.060990661 0.6063934 0.059573602
16.340099 79.6185 378.30899 0.41460264 -0.65698081 -0.62966722 0.064354047
17.076099 80.126999 378.311 0.23126577 -0.39511788 -0.88904333 0.058989935
-4.42766 58.5923 370.10599 0.79650128 -0.20298676 -0.56954551 0.065243565
27.355499 84.2575 382.75101 0.72151697 -0.5498367 -0.42082402 0.030867657
-8.8583498 47.2719 380.63901 -0.98900545 0.081175588 0.12360737 0.048948113
1.47893 23.086201 403.89001 0.7679671 -0.12933525 -0.6272949 0.068103179
-6.7020898 42.968899 382.759 -0.53555906 -0.74045503 -0.40608224 0.03272697
-3.14536 62.261299 370.57401 0.20399666 0.2971642 -0.93278015 0.055469539
25.1336 84.228401 379.974 0.46434662 -0.76335979 -0.44907022 0.012337718
35.184502 69.510002 415.27701 0.17987916 0.77388895 0.60723919 0.079944529
1.50916 22.1301 404.21701 0.077222422 -0.57207447 -0.8165583 0.096245714
39.979599 56.388302 427.10901 0.92364138 0.32975048 0.19532347 0.12776466
-7.3822198 50.087399 367.10501 0.73695153 -0.33336785 -0.58802068 0.077112563
-9.0594301 47.564701 379.828 -0.93648583 0.11532567 0.33120126 0.043181252
25.3139 84.407898 379.81 0.46434662 -0.76335979 -0.44907022 0.013763192
35.625599 68.203697 416.737 0.11560649 0.64709944 0.75358969 0.090623699
2.9902201 17.6474 408.22299 0.29199901 -0.6191147 -0.72899491 0.10835589
4.47927 73.8871 377.535 -0.54417187 0.81761611 0.18809807 0.11412903
3.53512 14.708 410.534 0.33318976 -0.21934058 -0.91699201 0.075499989
7.7898202 9.8313599 418.22198 0.79427367 -0.21426362 -0.56852484 0.038836848
1.51256 13.1317 416.39099 -0.89843577 0.034010492 0.43778586 0.067628242
8.8021698 5.8971901 425.51001 -0.21231465 -0.97160071 -0.10447286 0.12244309
42.815701 26.750799 443.354 0.071744375 0.27033573 0.96008921 0.093412012
7.2915802 7.3817701 420.89099 -0.1196512 -0.95115721 -0.28457609 0.12802927
26.640301 87.280403 378.29599 0.33352974 0.46673998 -0.81909198 0.29328352
17.8675 81.331001 377.68301 0.17694691 -0.22233997 -0.95877773 0.093991682
26.554399 87.239502 378.22101 0.33352974 0.46673998 -0.81909198 0.29279855
29.571199 81.268097 390.64401 0.58062935 -0.65151608 -0.48825854 0.044247836
35.543701 11.7617 443.34299 0.1255258 -0.55694455 0.82100916 0.13235511
26.8643 84.651299 381.28201 0.71147382 -0.61071986 -0.34760073 0.034857407
-2.9651799 21.5296 407.86499 -0.83717114 -0.54601878 0.031747859 0.097906478
29.5581 82.738403 388.61499 0.77700078 -0.4650313 -0.42428255 0.069688231
37.901299 54.879902 428.55301 -0.18309021 0.57838142 0.79495466 0.054550733
-8.0309 45.940201 376.83499 -0.41734442 -0.90130007 -0.11611126 0.019366389
35.4669 72.606903 408.702 0.94738567 0.29234886 0.13035554 0.22422954
10.3668 75.492699 376.698 0.015245522 0.18059006 -0.98344028 0.12395091
26.612 86.426399 378.25201 0.40346807 -0.22974959 -0.88567978 0.1211289
35.414299 72.439499 410.82001 0.94108725 0.17759399 0.2877762 0.12267751
3.74282 14.2557 410.82501 0.43600962 -0.32211444 -0.84032011 0.079668738
-7.51296 50.361801 366.539 0.69687611 -0.33873707 -0.63215572 0.11749064
-1.02391 32.492001 394.94601 0.11130426 -0.69570267 -0.70965427 0.065384187
20.297199 1.44644 432.88101 0.39624122 -0.67284393 0.62471908 0.089979187
43.136002 34.283001 440.37601 0.48196223 0.30061707 0.82300776 0.133882
25.419001 85.757301 378.31201 0.065636188 0.11392812 -0.99131846 0.097500332
-5.9517798 42.792999 382.25 -0.38207054 -0.7770589 -0.50020158 0.033114459
-2.97858 22.1301 406.79199 -0.91772538 -0.23473786 -0.32043451 0.094358131
24.483 4.8706398 438.89999 -0.38048318 0.0078714294 0.92475432 0.12596557
19.186199 4.6124401 431.52499 0.97732407 0.045846872 0.20672634 0.059093907
-10.3293 48.794701 368.19501 -0.79136223 -0.56226289 -0.24001318 0.047759496
39.939499 54.632999 425.582 0.73469287 -0.30024621 -0.60834086 0.046827715
42.505699 31.0467 441.85699 0.15123294 0.35262069 0.92346478 0.11285415
21.451099 2.8063099 437.42499 -0.34272993 -0.57557482 0.74246198 0.092929699
8.8865204 8.7660999 420.23401 0.64115095 -0.21821383 -0.73573649 0.051104553
-3.9098101 25.263201 404.91 -0.98068357 -0.0076429131 0.19545154 0.078481071
13.2257 4.3992 431.01801 -0.5258413 -0.8324185 0.17484368 0.10661398
-4.4981699 65.044899 373.87799 -0.83773601 0.53747481 0.096535832 0.082414441
-10.469 48.749699 369.10699 -0.58671159 -0.79363954 -0.1609527 0.024187965
-7.42946 44.288898 381.302 -0.51825517 -0.77982509 -0.3511188 0.023176171
0.23016199 26.7535 400.495 0.44198585 -0.65529501 -0.61256588 0.093036614
40.247799 53.200699 430.04599 0.42614135 0.47203627 0.77174175 0.10950631
32.6693 8.2992601 440.40302 0.54911274 -0.77707356 0.30762291 0.12643665
14.7723 78.396202 378.50201 0.62616175 -0.60897386 -0.48690069 0.047932483
23.262699 3.55461 434.47198 0.33186877 0.082739793 -0.93968999 0.044073272
44.320599 24.9298 443.23901 0.98969573 0.061162192 0.12946652 0.17857666
39.966202 14.7067 441.72601 0.40400937 -0.33859226 -0.8497833 0.058286302
43.5961 32.9519 440.39999 0.71118176 0.30052102 0.63553727 0.1303044
38.983101 53.241901 430.05801 -0.012781819 0.61405957 0.78915614 0.12176448
26.639799 85.702698 378.98199 0.4929083 -0.73682529 -0.46274173 0.12026692
-5.8466601 63.493599 372.40201 -0.88372338 0.46682024 0.033343978 0.059532467
-4.7441502 40.000801 387.177 -0.21226899 -0.88045871 -0.42395085 0.048595551
29.559999 84.423698 387.686 0.91425866 -0.0014408669 -0.40512842 0.1737784
-1.49967 19.122801 409.20401 -0.87770325 -0.24020652 -0.41465381 0.093496956
10.3556 7.1686001 422.59 0.74145871 -0.30154842 -0.59942269 0.063734554
37.1591 62.393902 422.646 0.037277598 0.68460882 0.72795683 0.094019659
32.471298 79.772102 399.04401 0.9216789 0.32656702 0.2094326 0.13705945
1.52458 67.240601 373.97 0.58189327 -0.20144844 -0.78792053 0.08785072
35.562698 72.531403 409.35199 0.99878883 0.033926949 -0.035635244 0.14898574
6.0110698 70.919899 376.276 0.61390436 -0.48597702 -0.62205124 0.057724398
0.0882084 28.003401 399.673 0.71427071 -0.33242118 -0.6158843 0.087525129
34.864498 74.2733 407.86801 0.96038789 0.23024549 -0.15697826 0.12656656
-8.4532204 45.873798 382.75201 -0.97249401 -0.0055393912 0.23286191 0.041107304
13.9308 4.4068098 430.052 -0.24045573 -0.96063048 -0.13917661 0.13822627
16.2679 79.732101 377.992 0.40205377 -0.20608243 -0.89212263 0.064156704
-10.3498 48.730099 367.10999 -0.77980959 -0.5233137 -0.34356916 0.048179835
34.336399 74.1577 409.34799 0.37632975 0.54472327 0.74943477 0.13574037
32.349998 8.8789101 441.465 0.39957651 -0.81475669 0.42013115 0.13114017
11.8087 5.5559902 430.04901 -0.67777461 -0.3451325 0.64923429 0.11097389
-4.5422602 42.805 381.271 0.25945997 -0.86877954 -0.42178512 0.10512585
-4.6094899 42.823101 381.254 -0.0081891119 -0.77584857 -0.63086605 0.10514815
42.8722 26.7728 443.35501 0.23709977 0.45845893 0.85650402 0.093574598
35.502201 71.065002 409.37601 0.99167448 0.10984895 -0.06719365 0.13346978
41.373501 48.727402 432.72699 0.59089041 0.42614809 0.68501556 0.11472547
2.7834401 10.304 416.72699 -0.39630064 -0.86287522 -0.31367528 0.071607746
14.7276 79.805496 377.44299 -0.049929649 -0.24749237 -0.96760249 0.1016531
38.040298 14.8441 444.82001 -0.16352683 0.07606554 0.98360205 0.13263449
10.837 5.6280098 425.617 0.025902763 -0.96372437 -0.26563945 0.070606224
13.5332 82.258904 378.33301 -0.58066607 0.81398433 0.016012648 0.10314704
42.980999 31.121099 441.86899 0.35545057 0.30533218 0.8834179 0.11300243
10.2146 5.9088502 424.84601 -0.049772181 -0.95607471 -0.28886652 0.058826257
43.727299 30.0483 441.85901 0.60349017 0.29337645 0.74143773 0.11699083
34.021099 70.872704 407.95599 0.53938878 -0.56420541 -0.62508559 0.015737742
17.600901 82.7575 378.02499 -0.11148644 0.25403282 -0.96074873 0.067485936
-0.86872602 33.991501 394.61401 0.62329483 -0.12736902 -0.77154434 0.11432975
-2.9535501 66.464104 375.23099 -0.79099458 0.57216996 0.21667752 0.038912591
35.4678 72.196198 408.76001 0.93904245 -0.19988942 -0.27972034 0.1474072
35.986 71.022903 412.32101 0.74421567 0.5515697 0.37671465 0.12181907
-5.0367899 42.915001 381.30701 -0.0081891119 -0.77584857 -0.63086605 0.11698294
35.4818 66.482597 418.332 -0.19457671 0.70639712 0.68054616 0.10804535
36.972599 66.605698 418.22601 0.55072397 0.69734001 0.45871565 0.1143995
4.4267402 70.959396 375.27301 -0.76207107 0.070946097 -0.64359486 0.11237217
37.973 65.069702 418.24399 0.95111465 0.30384097 -0.05533151 0.10383325
-8.60287 47.43 369.448 -0.16313739 -0.98432136 -0.067064583 0.098113067
14.8566 82.6772 379.88599 -0.62101841 0.7503475 0.22652756 0.046912089
29.3636 5.9179301 439.672 0.41501936 -0.78575933 0.45862973 0.12501745
-6.1645002 42.605301 382.74301 -0.45882764 -0.77808368 -0.42902556 0.030473245
-4.5438199 41.759602 382.74399 0.056982189 -0.77338874 -0.6313659 0.10646889
-5.7830801 41.658401 384.224 -0.44493833 -0.81607866 -0.36884344 0.086450174
-4.5598202 41.364498 383.37799 -0.17280406 -0.95883191 -0.22534445 0.064661138
-4.4327598 65.127098 373.905 -0.83773601 0.53747481 0.096535832 0.087438859
16.0221 81.281303 377.72299 0.04758567 0.12287284 -0.99128091 0.092614047
39.917099 57.635399 424.63699 0.97822124 0.043624766 -0.2029289 0.14498854
-7.61308 45.4939 378.315 -0.45641938 -0.86860049 -0.19291072 0.057641014
0.0058257501 14.7976 412.367 -0.92035508 -0.26258364 -0.28982115 0.091527171
-5.92135 41.303699 385.27802 -0.44380575 -0.8535803 -0.27283165 0.035286516
36.937 67.948097 416.06799 0.77431566 0.60638851 0.18090954 0.10343272
37.540901 66.548103 416.733 0.99238223 0.11419359 -0.046231378 0.1175021
-1.5782501 30.9552 397.52499 -0.0024829924 -0.95393258 -0.30001077 0.063388221
4.4120302 73.900902 376.465 -0.60085934 0.78163755 -0.16736422 0.064141288
-3.48455 66.555496 373.905 -0.74778402 0.65337378 0.11799067 0.095369637
-3.22212 66.503197 373.21301 -0.23099744 0.52431267 -0.81959528 0.085392922
37.009899 68.155296 415.27701 0.99517846 0.096825995 -0.01563807 0.14450496
36.189899 70.136803 413.78 0.63382536 0.66895294 0.38828772 0.11489934
19.218599 3.83604 435.716 -0.60037279 -0.19447401 0.7757141 0.11487886
27.2267 86.102699 379.79401 0.94919586 -0.10598763 -0.29630032 0.055666942
42.877201 30.7038 438.453 0.50154692 -0.22245947 -0.83603978 0.058014426
42.858299 32.363201 437.897 0.53783828 -0.27936521 -0.79541498 0.16980815
-0.98995602 32.884899 394.57199 0.52794635 -0.49566093 -0.68963242 0.10440921
1.9377 66.544601 375.39499 0.75280249 -0.47403711 -0.45670256 0.027329862
-8.9071198 50.287998 366.34799 0.0047979429 0.25877297 -0.96592623 0.1198273
11.8574 5.0145302 428.578 -0.33561999 -0.89846462 0.28305572 0.085460246
-11.8729 50.2593 367.82199 -0.84383529 0.51615381 -0.14672174 0.10902782
17.761299 4.2995601 434.75299 -0.50700277 -0.02722853 0.86151427 0.12908612
15.3678 79.828499 377.32101 0.10972893 -0.10153979 -0.98876148 0.08123596
-11.9884 50.2635 367.966 -0.84383529 0.51615381 -0.14672174 0.10811671
17.126699 2.9839599 434.46899 -0.50648153 -0.38877627 0.76962948 0.10252816
40.035702 46.279202 434.46701 -0.17492181 0.47586572 0.86194789 0.10542977
4.4012399 8.83395 418.349 -0.44772756 -0.81133556 -0.37586513 0.068466119
-8.6987801 46.064201 378.36099 -0.64285511 -0.74181956 -0.19089541 0.056675296
34.021999 13.1769 443.37299 -0.12395494 0.034385387 0.99169189 0.11072706
29.591101 82.659103 388.772 0.78244144 -0.44014132 -0.44052359 0.081734039
34.067699 71.932404 412.30099 -0.10196547 0.83683598 0.53787416 0.10001135
39.879601 13.3314 443.46301 0.28481019 -0.93790704 0.19802415 0.10976688
-5.9130001 38.355598 391.375 -0.63724399 -0.64404517 -0.4232327 0.07522177
-8.8579197 57.567799 370.92801 -0.95712501 0.26131165 0.12501164 0.074450642
31.037201 81.764503 393.07501 0.96228307 0.1436588 -0.23102681 0.16234216
11.8266 5.3039799 427.08499 -0.14513624 -0.98426157 -0.10081957 0.073634811
-1.80194 31.055799 397.53101 -0.23987207 -0.80019921 -0.54967499 0.054556817
44.332802 26.5634 442.465 0.75023919 0.37972295 0.54125005 0.17119209
0.89541399 25.358101 401.97601 0.72378331 -0.2106221 -0.65709668 0.086540148
-7.7224798 60.600399 370.92401 -0.76870698 0.61481535 -0.17632835 0.084422238
-1.74559 29.6884 399.00201 -0.29206011 -0.65095961 -0.70068002 0.02815708
-7.5065398 60.593201 370.54099 -0.68676668 0.58628917 -0.4296703 0.08208897
14.8306 78.529099 378.33301 0.62752157 -0.62605828 -0.46289054 0.046908926
27.231199 6.2446198 440.375 -0.40685198 -0.53484058 0.74055183 0.12714699
5.8875599 75.376999 377.03601 -0.34428316 0.80074781 -0.49017549 0.10782531
20.7356 82.4655 378.36099 0.58192855 -0.59315842 -0.55634725 0.085756779
-7.7752199 43.778999 382.76801 -0.83374876 -0.51277006 -0.20476779 0.049199246
-5.7049899 45.874699 375.35599 0.63846403 -0.68258804 -0.35558012 0.10569151
16.1569 82.7584 378.19501 -0.087983474 0.29799619 -0.95050365 0.07067617
17.07 2.8336999 434.47 -0.50648153 -0.38877627 0.76962948 0.10554292
1.46 19.1122 407.20901 -0.076098725 -0.76130283 -0.64391536 0.065109558
28.002501 4.8050799 437.41901 0.98342502 -0.084207006 -0.16057527 0.11251996
-4.97473 59.129002 369.78299 0.77978992 -0.10877313 -0.61651933 0.075153731
14.7956 79.105103 377.354 0.29978263 -0.57344455 -0.76242489 0.077119999
1.47332 70.994003 376.883 -0.56342351 0.82418901 0.057152275 0.084043935
32.362 79.545998 400.48599 0.55748719 0.78982061 0.25571743 0.13911206
10.0233 78.326103 377.56601 -0.35235766 0.39970383 -0.84621567 0.10489666
42.897499 38.361301 435.91 0.84138501 -0.14402241 -0.52089238 0.075736463
13.5239 4.7969799 428.556 -0.015473098 -0.90696722 -0.42091697 0.078212306
14.7666 4.4330201 429.31799 -0.15424389 -0.94093829 -0.30140337 0.092986621
42.905701 35.347099 436.94699 0.57048965 -0.21157113 -0.79358631 0.11401514
15.5529 4.4228802 429 -0.019441942 -0.5812546 -0.81348944 0.099901043
0.038439799 29.0196 399.021 0.1429107 -0.63962603 -0.75528473 0.063269913
20.8605 1.59881 434.47198 -0.079146877 -0.98966557 0.1195737 0.11316813
-11.874 49.625599 369.44699 -0.84339368 -0.52662164 0.10656822 0.081982993
-11.9854 50.038502 368.01501 -0.84383529 0.51615381 -0.14672174 0.11693949
-10.4046 48.865002 367.99701 -0.94476205 -0.25020266 -0.21171504 0.048622273
39.8326 57.728901 425.642 0.90275788 0.3539432 0.24444307 0.1429206
20.694901 82.719101 377.91 0.22598046 -0.0089597544 -0.97409064 0.073227644
2.81406 12.4508 413.77499 -0.343243 -0.7587381 -0.55362505 0.067757733
3.67659 11.9979 413.77899 -0.24905023 -0.8163048 -0.52117223 0.078049719
4.2111802 74.002098 376.84201 -0.60085934 0.78163755 -0.16736422 0.1210212
-10.3652 49.053902 366.91199 -0.78095973 -0.079723224 -0.61947244 0.068399958
-9.8909702 48.827702 366.52899 -0.77443987 -0.11011433 -0.62299097 0.10572042
35.463402 72.3218 410.931 0.91288513 0.36454174 0.18371189 0.14716399
-6.3917098 45.228298 376.83401 0.038600598 -0.96791476 -0.24829628 0.082454793
16.345699 4.4207301 429.25201 0.38288903 -0.50138795 -0.77589053 0.060228057
-6.2649398 60.592999 370.39801 -0.1215204 0.3904762 -0.91255748 0.071036972
20.9863 84.243599 378.09399 0.19504601 0.22960664 -0.95353961 0.096071452
-4.5130501 28.048201 401.99701 -0.86704433 -0.4440273 -0.22599542 0.1033721
-8.9387503 45.844101 381.28 -0.9721328 -0.14133823 0.18703292 0.074166149
-7.8501801 48.879799 366.55499 0.84135944 -0.26744035 -0.46967003 0.13390134
44.4515 26.8009 441.85901 0.9820345 0.097337291 -0.16165917 0.11784268
39.896599 57.576 425.65302 0.90275788 0.3539432 0.24444307 0.16447799
-8.0301104 47.269299 367.655 0.67815977 -0.48471522 -0.55240428 0.13333657
40.1759 56.5397 425.599 0.99342048 0.0085357279 -0.11420557 0.16001016
43.083302 38.776299 437.44601 0.98101008 0.19373015 -0.0093742795 0.16617098
39.904999 56.958698 424.46701 0.88995421 -0.11099242 -0.44233721 0.17398264
38.461102 60.718899 424.13199 0.31773448 0.63972729 0.69985271 0.13834132
39.995701 54.733898 425.59799 0.73469287 -0.30024621 -0.60834086 0.062170539
39.9133 56.148499 424.75699 0.9705742 -0.043970872 -0.23675361 0.065888561
32.512901 8.8474598 439.36801 0.56158507 -0.26077962 -0.78524911 0.11598754
14.9776 4.6686401 428.565 0.30152056 -0.6065802 -0.7356261 0.095723033
14.7922 5.7109499 427.75299 0.51296115 -0.45449802 -0.72821862 0.068269901
13.6065 77.534401 378.30899 0.54481936 -0.67214119 -0.50139618 0.044854697
33.895401 75.430801 403.479 0.86540788 -0.29420394 -0.40560231 0.17791653
33.754299 76.969597 403.45001 0.95624661 0.28099018 -0.081467047 0.12522984
19.233 82.0317 377.772 0.33481792 -0.62147409 -0.7082845 0.078053907
41.800098 43.059601 432.98801 0.63894069 -0.34236526 -0.68886924 0.087152131
11.8662 76.065002 378.31699 0.5351916 -0.7006284 -0.47190019 0.023333201
-7.50108 41.457901 388.66199 -0.94717407 -0.12083553 0.29708588 0.066079803
-7.5893002 51.740299 366.561 -0.15409376 0.3508369 -0.92367125 0.081975594
-7.5450201 41.242901 388.66 -0.90846932 -0.38612086 0.15998194 0.068878792
-10.3724 47.5131 375.367 -0.90730673 -0.35184959 0.23020934 0.075446561
33.997601 75.308701 403.763 0.84645104 -0.19858319 -0.49404991 0.18775259
10.503 5.3848701 428.556 -0.57321429 -0.73023355 0.37173161 0.099893488
38.458401 15.3477 444.84698 -0.20152588 0.012945144 0.97939765 0.15759578
-8.9387999 48.792099 366.05701 -0.21197821 -0.058358863 -0.97553039 0.16244411
-1.49786 32.414501 395.414 -0.20995669 -0.69983882 -0.6827473 0.070451789
33.992699 75.665298 403.59 0.95531321 0.14706409 -0.25641531 0.18569015
-5.89961 45.743599 375.186 0.51511252 -0.83908409 -0.17492008 0.10737246
-7.5281501 42.952999 387.19 -0.94113249 0.10426954 0.32155475 0.05180677
39.931801 51.361198 431.52301 0.14896731 0.60350281 0.78332186 0.072775058
28.539101 85.892998 384.22198 0.96356297 -0.13981424 -0.22803164 0.15488002
35.4795 10.3011 440.97601 0.71556956 -0.60845232 -0.34314135 0.098866411
28.105801 4.1477399 437.30899 0.90908206 -0.21765652 -0.35524008 0.060332961
28.190901 3.9583399 437.436 0.90908206 -0.21765652 -0.35524008 0.093168788
37.216301 11.7182 441.86899 0.6587615 -0.74800259 -0.080780245 0.10541131
15.1886 4.1224699 430.05701 -0.17537867 -0.93069303 -0.32101846 0.11497343
-6.0939598 39.2915 390.14899 -0.63716561 -0.71359783 -0.2912012 0.065307438
39.980099 54.5606 425.67001 0.73469287 -0.30024621 -0.60834086 0.046889536
-9.0597496 47.633301 366.48801 -0.39074439 -0.75817907 -0.52199936 0.15308678
36.940102 68.311203 415.26999 0.85521907 0.51706225 0.035313424 0.17873731
38.205299 59.137402 421.198 0.55445224 -0.49600369 -0.66825372 0.068550222
-6.05756 39.893299 388.65701 -0.49531525 -0.78935641 -0.36273855 0.045658164
-6.6130099 40.050598 391.62 -0.95056766 -0.064781278 0.30368492 0.06057065
38.460201 13.6245 444.823 0.12468812 -0.56038737 0.81879109 0.11665174
-7.9541402 50.2743 365.97299 0.13205704 0.12937941 -0.9827624 0.093509629
19.3573 3.5152299 430.79901 0.44778681 0.13268499 -0.88424075 0.073240533
35.2229 72.473297 407.98099 0.87588274 -0.17121866 -0.45112479 0.16178852
19.213699 5.0552702 431.52399 0.63496053 0.036061235 -0.77170247 0.018331172
36.966301 62.0266 418.172 0.56043202 -0.5150764 -0.64854628 0.018936686
23.5033 1.42524 433.944 0.032212511 -0.67683321 -0.73543131 0.069640085
28.3249 4.76969 438.90601 0.60864049 -0.78051555 0.14266129 0.15581247
38.4231 62.011299 419.68399 0.94698024 -0.14001964 -0.28917632 0.16052654
-1.36131 35.2864 393.10001 0.5127331 -0.46100691 -0.72427714 0.089201406
-4.0888901 60.6189 370.146 0.54142493 -0.0075928494 -0.84071481 0.082754523
-8.9003801 48.146599 366.03 -0.35640058 -0.20093924 -0.91247028 0.14166804
42.873699 41.570202 435.056 0.98108894 0.043905821 -0.18851188 0.15393822
-8.0802202 48.7756 365.76199 -0.14092033 -0.067451127 -0.98772049 0.15448339
-8.1970196 48.6455 365.77301 -0.15530239 -0.13431506 -0.97869331 0.16272317
7.4414501 72.363197 376.27301 0.59212929 -0.35919878 -0.72135925 0.091117866
-4.4349799 39.147701 388.69 -0.34687108 -0.84066331 -0.41589135 0.052553121
0.051605899 29.539499 398.685 -0.091172725 -0.61146629 -0.78600031 0.069230832
-2.9518499 41.4067 385.70001 0.71947181 -0.51005661 -0.47138366 0.096864946
19.594299 85.883904 379.84201 -0.3149018 0.94327337 0.10522436 0.065343969
-1.51148 35.043598 393.086 -0.069626108 -0.62179899 -0.78007579 0.083139606
39.965302 47.281502 433.914 -0.0011609379 0.52081043 0.85367161 0.1145025
3.5273099 10.8498 415.26001 -0.43327007 -0.73158163 -0.52636999 0.038610406
8.9453201 5.8411598 425.617 -0.20315032 -0.97295523 -0.10994557 0.092767604
-3.3524401 41.993599 384.22101 0.8278811 -0.4399716 -0.34790492 0.10594714
20.9492 86.559998 379.789 -0.48819435 0.86951679 0.07487841 0.10908114
36.954102 68.0411 414.13501 0.97271693 -0.091244519 -0.21329851 0.14994356
-4.3864799 31.0009 401.39999 -0.94984508 0.11020539 0.29265878 0.062584214
11.6546 7.5770998 424.11899 0.75199091 -0.16172478 -0.63902646 0.032680728
8.6227798 75.370399 376.70999 0.0049160845 0.17371678 -0.98478341 0.11766213
7.3742299 75.389603 376.789 -0.074474744 0.30829138 -0.94837224 0.11243316
44.227798 14.8841 443.34 0.70646161 -0.59308386 -0.38621694 0.13207345
32.551998 73.940399 403.44 0.5629369 -0.63825494 -0.52510256 0.076691724
19.250099 81.524902 378.38699 0.50240898 -0.67227721 -0.54371738 0.085210845
18.9014 81.350502 378.32001 0.57937628 -0.57307178 -0.579579 0.081592508
10.4031 6.2319498 428.55301 -0.67679262 -0.26699674 0.68604994 0.055988424
-3.0024099 64.694 372.401 0.046224423 0.45370266 -0.88995349 0.0858225
2.1661501 69.455498 374.888 0.23650348 0.26116186 -0.93587422 0.086057037
-8.8203602 46.504601 381.27499 -0.98272473 0.070863113 0.17096935 0.058230702
32.589298 76.8041 400.082 0.70564938 -0.51894063 -0.48245162 0.07703393
-1.03562 16.9893 412.298 -0.81037825 -0.53078669 0.24809791 0.087751195
-4.4313302 45.678902 379.32101 0.83375686 -0.22687398 -0.50336635 0.09185306
22.68 87.191597 379.02499 -0.087423615 0.97832596 -0.187711 0.0865058
-9.1196699 47.714802 369.45001 -0.53660941 -0.83731955 -0.10462477 0.066765942
5.6139798 73.932404 376.37701 -0.28656518 0.40411967 -0.86865854 0.098128125
9.13099 73.861504 376.86499 0.73887259 -0.40532216 -0.53831333 0.094158597
8.8815498 73.824402 376.58301 0.040636428 -0.024039853 -0.99888474 0.091529548
-4.6026702 41.0769 384.22198 -0.017456232 -0.93187302 -0.36236441 0.088295512
2.4138801 70.594803 375.35599 -0.34166524 0.48847967 -0.80290252 0.074428715
-2.0782299 40.190498 388.66 0.89272904 -0.34996173 -0.28383383 0.053453937
25.6362 3.1958699 435.94699 0.77065259 -0.17552286 -0.61260617 0.14274229
44.3643 15.8488 446.28799 0.23807383 -0.17683063 0.95501399 0.16363177
39.952599 48.967602 432.99701 0.033020031 0.58535862 0.81010187 0.11690629
44.9795 19.275 443.34201 0.9953264 0.041429698 -0.087229356 0.14400102
-4.5067801 29.6833 400.492 -0.80692124 -0.52564776 -0.26939285 0.08191447
-8.9205103 45.3424 381.28799 -0.83782691 -0.54567099 -0.01700579 0.059633221
0.0150103 30.781601 397.87399 0.6566456 -0.34143671 -0.67248607 0.068793707
32.846401 75.376801 401.98599 0.64471102 -0.57905263 -0.49904484 0.078500219
30.414801 6.09587 438.905 0.60404313 -0.79688627 0.01020342 0.088061139
-8.5931301 44.530899 382.76599 -0.86907935 -0.47213167 0.14762385 0.077145755
-4.42204 59.1595 369.952 0.82662523 -0.11623541 -0.55061793 0.056805156
-7.7971301 44.534698 381.315 -0.57638377 -0.73520905 -0.35672039 0.059168573
32.5839 75.205902 401.922 0.61220449 -0.58384746 -0.53322399 0.072953604
-4.6516299 28.332399 401.95801 -0.86704433 -0.4440273 -0.22599542 0.1280528
-8.26087 47.341499 367.98001 -0.15925157 -0.98342282 -0.086709283 0.09316276
19.270201 85.708504 379.81799 -0.44963223 0.88817859 -0.094708398 0.071823351
-3.05814 38.408699 389.00601 -0.031409059 -0.89054632 -0.45380688 0.074748933
25.145201 85.4244 378.28299 0.030310081 0.010750562 -0.99948275 0.1021595
28.2819 81.663101 388.673 0.53915906 -0.73186505 -0.41675058 0.012030738
31.6394 9.1555204 438.89899 0.58776778 -0.35344103 -0.72774202 0.085193627
-7.3736501 47.811501 368.155 0.81068665 -0.44248012 -0.38340387 0.051375967
-2.27301 37.469299 390.14499 0.57957631 -0.56939787 -0.58298999 0.092161439
2.8452401 11.2784 415.26801 -0.32410064 -0.79260474 -0.51646537 0.03720852
-2.7517099 38.4137 388.89301 0.40019035 -0.54427832 -0.73729831 0.0785916
0.0112883 31.6252 397.52399 0.68094456 -0.35912949 -0.63823235 0.05855478
0.0197825 32.4776 397.20099 0.86990935 -0.19139373 -0.45456147 0.079556942
40.5854 54.709099 427.11499 0.95942795 0.2499906 -0.1303944 0.11411662
-0.34850901 69.6213 375.38 -0.62190157 0.77405757 0.1186308 0.084646814
-7.5083499 42.769299 384.34201 -0.66563261 -0.69472367 -0.27256605 0.072079748
23.746099 2.2030399 434.04999 0.11968113 0.10447635 -0.98729992 0.10801692
-3.0855601 35.483601 393.08801 -0.21989483 -0.84329426 -0.49040902 0.033622157
-1.2764699 68.642601 375.392 -0.80214167 0.58960307 0.094535477 0.094298489
-2.7102201 22.226 406.43701 -0.5449391 -0.69935971 -0.46253365 0.070107289
43.703499 34.5219 438.90601 0.9888621 0.020574829 -0.14740574 0.14717378
43.410599 35.775299 438.90302 0.76972288 0.43270481 0.46935403 0.17495196
-6.2158198 41.8764 384.237 -0.48609895 -0.79421949 -0.36458632 0.052515
39.932098 13.5749 441.87701 0.56405371 -0.70141518 -0.4357295 0.090314761
-2.7774 66.511597 373.255 -0.38375211 0.63721067 -0.66835386 0.089973494
40.590199 53.256302 427.09799 0.87019175 -0.20435785 -0.44833496 0.13456686
-4.37708 29.5187 402.16699 -0.93299156 0.15835905 0.32318598 0.096590057
6.73142 73.921501 376.27399 -0.0015559148 0.29927146 -0.95416677 0.077569596
-0.61988598 31.023199 397.04099 0.11457972 -0.82517397 -0.55313599 0.082010321
-0.18640301 29.546101 398.48801 -0.13868903 -0.64946449 -0.74763709 0.075357921
0.282749 65.1996 373.89801 0.76194429 -0.40270564 -0.50721693 0.043084975
44.3643 16.061399 443.21301 0.71627182 -0.13007724 -0.68559068 0.11380398
0.16533101 64.966698 373.931 0.76194429 -0.40270564 -0.50721693 0.043680757
43.642502 31.294399 438.93399 0.89027411 -0.041440152 -0.4535358 0.096814565
37.018501 11.6318 440.98999 0.46864083 -0.66970134 -0.5760867 0.079859413
-4.49716 29.504101 400.664 -0.80692124 -0.52564776 -0.26939285 0.081983134
-5.2384901 56.416801 369.48901 0.88018626 -0.021830481 -0.47412607 0.063396402
36.104599 66.520599 413.80801 0.70514655 -0.40222508 -0.58393782 0.063769221
1.61655 67.987999 374.13699 0.34327593 0.047514454 -0.93803197 0.10037575
0.044005901 64.944 373.69699 0.76194429 -0.40270564 -0.50721693 0.044295803
-2.9781599 22.5292 406.39401 -0.76486212 -0.50784957 -0.39632651 0.089995027
-3.23646 24.3297 406.39401 -0.94668043 -0.14878015 0.2857632 0.081418581
31.061001 78.283203 402.905 -0.14021131 0.80714697 0.57345837 0.076820463
32.575401 75.153801 401.978 0.61220449 -0.58384746 -0.53322399 0.076290317
1.5185601 20.677299 405.27899 0.47794619 -0.55980241 -0.67689633 0.075676583
19.4827 2.9548099 431.22699 0.019853808 0.1474752 -0.98886645 0.079158835
-1.59492 29.5317 399.064 -0.24801885 -0.59624332 -0.76353163 0.044194084
32.659801 76.495697 400.48001 0.74047428 -0.45537531 -0.49429867 0.10394329
6.53934 6.6933999 424.12201 -0.47230953 -0.84207851 0.26043707 0.096922509
42.6115 37.340801 435.94901 0.76766557 -0.17061357 -0.61772209 0.085676149
10.3838 75.281502 376.737 -0.030133512 0.11085253 -0.99337995 0.099518195
22.1758 3.8496201 437.68399 -0.35249501 -0.074849583 0.93281555 0.12320801
39.0919 60.877998 422.651 0.98873729 0.14762208 -0.024622159 0.11665956
1.26443 41.490898 407.867 -0.84494221 0.22489817 0.48527667 0.005487801
6.4077601 71.083504 376.832 0.67409486 -0.59110135 -0.4429394 0.041311279
8.9014502 7.2388401 426.936 -0.97998959 0.010624205 0.19876489 0.06356322
6.4239702 75.382103 378.31299 -0.48047662 0.8752684 0.05520381 0.054013267
11.8499 5.9027901 424.71301 0.41863477 -0.6120832 -0.67089427 0.083390243
11.2557 5.91011 424.48499 0.41863477 -0.6120832 -0.67089427 0.084525719
28.427601 82.588699 387.17899 0.66963899 -0.60808635 -0.42639726 0.038077068
33.999699 10.1936 439.905 0.60897231 -0.42759341 -0.6680693 0.092833184
34.127602 71.007202 407.89001 0.57981288 -0.57476592 -0.57746094 0.022017961
19.305401 1.87878 434.49899 -0.26665309 -0.94301248 0.19905682 0.10168348
18.4251 2.1417301 434.491 -0.25977585 -0.81783623 0.51347876 0.1116738
-2.7989299 38.558601 388.664 0.34783822 -0.78887737 -0.50663704 0.086131804
31.7251 8.8769102 441.88501 0.18843964 -0.6990751 0.68977135 0.15792868
8.9327202 6.1739302 427.08401 -0.81555092 -0.19715814 0.54406375 0.109096
39.615601 48.7771 432.99899 -0.10500972 0.51768917 0.84910005 0.073926151
-5.02422 57.654202 369.51501 0.78301847 -0.094497614 -0.61477822 0.085182406
4.3133602 10.338 415.371 -0.15298355 -0.72898495 -0.66721588 0.038350321
8.8740396 6.23984 424.12 -0.18728107 -0.95920795 -0.21176839 0.081735253
41.3521 50.232201 431.29901 0.87874341 0.4203226 0.22613926 0.14889248
18.752899 82.771599 377.85501 -0.16158241 -0.012814331 -0.98677599 0.073858291
16.312901 83.286201 378.30899 -0.23159526 0.64213234 -0.73077333 0.12615512
19.5077 3.4572401 435.94699 -0.6274541 -0.19283348 0.75439817 0.10957349
44.1231 15.7334 446.28799 0.23807383 -0.17683063 0.95501399 0.15427326
29.8948 84.238197 390.142 0.90944952 0.40649831 -0.087525323 0.13825718
28.121599 85.846001 382.526 0.95198959 -0.047582831 -0.30240983 0.1570452
35.4212 10.4625 441.93399 0.72660136 -0.68120354 0.089510515 0.13956428
38.412701 63.5214 419.73401 0.98794115 0.12586774 -0.090164222 0.12420464
1.38202 13.2663 413.33899 -0.30703312 -0.7302109 -0.61034638 0.081774965
-2.0997901 35.4496 392.52499 -0.0053600636 -0.72015291 -0.69379467 0.052699935
-1.46975 20.374701 410.43399 -0.92497128 0.013884243 0.37978333 0.08414901
-5.9022198 45.610298 375.45499 0.16527379 -0.97326481 -0.15949963 0.10447382
-3.12537 38.6241 388.67099 0.34783822 -0.78887737 -0.50663704 0.10390437
44.341202 29.563299 440.62399 0.9742049 0.10405248 -0.20024447 0.13757907
32.6143 78.0187 399.00101 0.92268759 -0.20363344 -0.32738522 0.11304341
3.0242801 72.7901 376.84601 -0.70516711 0.70884651 0.016612366 0.095038854
38.9617 61.020401 421.19501 0.99673712 0.048368067 -0.064619474 0.10294582
4.4153199 8.3655796 421.19101 -0.76496267 -0.39621675 0.50778383 0.094310962
-2.20456 65.0308 372.62 0.076514818 0.39721718 -0.91452938 0.082370721
3.4974401 8.7602797 419.68799 -0.82141751 -0.57015294 0.014101422 0.069880329
-1.93314 64.646103 372.41299 0.19783656 0.26630101 -0.94336867 0.098671436
-1.4743201 63.669102 372.15201 0.31315637 0.23224108 -0.92086762 0.068660781
-1.36158 37.775002 391.60999 0.84958148 -0.30239084 -0.43217024 0.073875315
38.675499 62.479401 421.19101 0.96705806 0.25413656 0.01460567 0.18422605
44.1054 28.597 441.85901 0.97621489 0.14465782 0.16148856 0.129103
12.6631 81.296898 378.05499 -0.47695339 0.80052495 -0.3628709 0.082061216
9.4759302 8.3122702 421.16501 0.75086534 -0.23391509 -0.61764473 0.075255163
10.4819 7.7375102 422.64401 0.73103237 -0.3297542 -0.59737247 0.039892249
39.8251 57.719002 424.13599 0.95096052 0.033709008 -0.30746999 0.1327669
41.755901 47.625999 433.00101 0.65135378 0.47991848 0.58772147 0.14808851
11.7735 78.422096 377.40201 -0.11948042 0.24729012 -0.96154666 0.13119514
11.1157 76.846703 376.96799 0.51608944 -0.15767637 -0.84189659 0.11600403
-1.38015 63.487099 372.42599 0.75114757 -0.15930441 -0.64062428 0.069380157
-5.0516 34.135799 396.047 -0.62768406 -0.58694845 -0.51137483 0.099067487
0.141911 13.311 413.79099 -0.78012997 -0.59404123 -0.19624527 0.10732853
0.67971998 13.7307 415.26001 -0.87477833 0.012500899 0.4843621 0.073868662
3.41416 9.0365496 419.69601 -0.83999586 -0.50370997 0.20170096 0.08267615
22.560101 1.92329 435.944 -0.10896678 -0.92995161 0.35116413 0.18416308
0.77230603 28.586399 400.48199 0.8651883 -0.28282043 -0.41407943 0.083012655
2.5252099 10.1346 418.20999 -0.96682537 -0.15081388 0.20616482 0.084152631
3.2167799 9.3932695 418.211 -0.63215309 -0.74345684 -0.2182989 0.086927749
19.081301 85.723198 378.74899 -0.44898331 0.71716923 -0.53299373 0.10139948
32.524101 78.803497 398.33301 0.86123937 -0.14280558 -0.48772258 0.16790269
14.9339 82.760002 379.83401 -0.62101841 0.7503475 0.22652756 0.061192393
-10.331 47.586899 373.90302 -0.79609966 -0.60434812 0.031443108 0.060453173
20.152901 84.251801 378.065 0.038392857 0.28782794 -0.95691228 0.037390832
19.24 84.703003 378.31299 -0.13793465 0.56769735 -0.81159949 0.079459243
-5.9258099 33.922798 397.16 -0.8384788 -0.42796987 -0.33733529 0.10600585
5.4273801 8.9504499 422.64499 -0.85148001 -0.020542441 0.52398455 0.063610345
4.4696698 9.0295 421.177 -0.83255363 -0.20069598 0.51630956 0.073435865
28.4631 6.0313001 440.39899 0.15115595 -0.5720104 0.80619848 0.13138488
44.924 17.7351 444.83899 0.91101313 -0.11183252 0.39692393 0.11956114
5.8768902 8.8616695 416.96701 -0.16604972 -0.87718582 -0.45052475 0.078855664
-10.9176 48.1656 372.39801 -0.70210737 -0.71159703 -0.025978889 0.066360518
6.8861599 10.6994 416.737 0.82245839 -0.21606854 -0.52619064 0.068982191
26.6908 85.704102 387.401 -0.25974852 0.86919874 0.42074251 0.12134061
-0.118052 14.9387 412.302 -0.92035508 -0.26258364 -0.28982115 0.090858303
11.0307 6.0588999 424.129 0.34868139 -0.75726241 -0.55224538 0.075358473
41.238899 51.383499 430.03299 0.91246068 0.3650631 0.18478218 0.14833675
41.4804 50.2882 430.07401 0.99560195 0.092473894 0.015012757 0.1631521
31.488701 8.7347403 441.854 0.1763386 -0.72612959 0.66456038 0.16269648
43.8769 26.868299 440.37701 0.81815255 -0.12464959 -0.56132776 0.090543278
5.9163899 10.8658 415.189 0.572092 -0.53195572 -0.62428671 0.07113529
5.9515901 10.7969 415.272 0.572092 -0.53195572 -0.62428671 0.071135342
-2.6063499 39.946098 387.246 0.50078183 -0.37983456 -0.77778095 0.056035053
29.457399 84.511299 387.194 0.96284199 0.043552235 -0.26653048 0.12573688
7.4007101 10.2741 417.54099 0.76962703 -0.1003115 -0.63056469 0.035519645
32.936699 76.997299 400.487 0.93419725 -0.1697001 -0.31381106 0.088730454
0.0045698499 65.552002 373.159 0.43635386 0.13011825 -0.89031708 0.066437505
44.118801 28.187201 440.38101 0.90060133 -0.18225023 -0.39459103 0.031189732
34.253899 70.592499 413.80899 -0.1482175 0.69361836 0.70492917 0.13332574
-5.6950202 57.658199 369.043 0.10190922 0.3211472 -0.94153011 0.04963652
31.033199 11.6086 442.30801 -0.36977801 0.05861735 0.92726922 0.024853403
6.4132299 7.4173799 424.12399 -0.72857445 -0.31302151 0.60925925 0.07973855
-5.9623899 62.071499 371.08499 -0.24849476 0.59184474 -0.76679212 0.09184362
-6.4129701 62.3871 372.40399 -0.88795453 0.44757068 -0.1059116 0.078074507
-5.9865899 57.636101 369.08801 0.15084606 0.40411329 -0.90218508 0.055942789
4.7822399 11.7857 413.50101 -0.14175136 -0.72350985 -0.67560345 0.07739266
4.0594101 14.7793 410.88501 0.64672446 -0.27106225 -0.71293247 0.087265648
3.18454 16.2465 409.608 0.55486166 -0.45680511 -0.69531119 0.082551926
3.27896 16.558201 409.37201 0.27168399 -0.67855781 -0.68245667 0.077748872
36.026798 71.044502 410.823 0.98785627 0.0092591252 -0.15509424 0.098447897
26.6231 2.6371901 436.547 0.71328902 -0.61707973 -0.3323122 0.11966065
36.457001 69.523697 412.319 0.94241846 -0.017913772 -0.33395588 0.1127372
28.1063 4.6928401 437.43799 0.98342502 -0.084207006 -0.16057527 0.10249075
-2.8851199 39.481998 387.18701 -0.093320899 -0.82500207 -0.55737132 0.086366653
-6.4075999 40.083801 388.66 -0.65082079 -0.70757866 -0.27525392 0.071863808
42.833599 41.273998 435.97198 0.9834758 0.17666325 0.039566085 0.16872229
21.014299 2.0476401 432.987 0.74318719 -0.55713362 -0.37050629 0.14459439
38.459499 62.024101 419.74799 0.94698024 -0.14001964 -0.28917632 0.16052654
0.0155427 16.228701 413.84399 -0.87901509 -0.0050661238 0.47676703 0.05039034
0.0201803 16.4695 413.80099 -0.8520745 -0.035005219 0.52224869 0.052161384
-0.43555799 32.512901 396.047 0.68934125 -0.63939238 -0.34056714 0.09952189
39.976898 45.773201 434.71399 -0.16423459 0.44523099 0.88022518 0.11531304
-4.43012 44.476299 379.79401 0.60080534 -0.49207041 -0.6299997 0.079574309
-1.7862999 17.9212 410.82001 -0.96269959 0.11468548 0.24506485 0.12824585
44.053101 31.2208 440.388 0.93037933 0.26475456 0.25357306 0.13947202
36.9478 67.473297 414.224 0.97271693 -0.091244519 -0.21329851 0.12643537
2.43959 20.7038 406.42499 0.7836287 -0.22864576 -0.57762206 0.10327746
36.971199 64.962303 415.83499 0.55655134 -0.50822181 -0.65723753 0.090065606
4.2284899 69.563904 375.35599 0.63924998 -0.40807498 -0.65179312 0.077686541
3.96175 71.028397 375.35999 -0.046355333 0.22167163 -0.97401893 0.10958186
40.806801 53.519402 428.55701 0.98196 0.10562169 -0.15683939 0.10555124
8.1951599 6.69314 422.65701 -0.13882506 -0.95260102 -0.27070078 0.074765541
26.623199 87.3871 378.323 0.33352974 0.46673998 -0.81909198 0.29335868
23.7658 1.78872 435.94299 0.025786683 -0.98511833 0.16993201 0.15637751
-0.089643598 13.6195 413.79599 -0.78012997 -0.59404123 -0.19624527 0.13784748
31.1318 7.4906998 440.37701 0.50446439 -0.7891289 0.3504158 0.11964924
0.091260903 16.354 410.83801 -0.59946841 -0.58262706 -0.54880172 0.083561137
4.0071201 11.7653 413.78601 -0.26017323 -0.74264097 -0.61708534 0.067805335
39.934799 43.2813 435.987 -0.086863391 0.4560391 0.88571048 0.1156105
39.389198 59.191399 422.71201 0.88519567 -0.098610461 -0.45464784 0.1108684
-7.9877601 43.2612 385.72101 -0.99890459 -0.011455801 0.045370094 0.049375135
23.6597 4.03126 438.51199 -0.45949143 -0.16830114 0.87209082 0.104345
-2.9469099 41.343498 385.73901 0.61542362 -0.54695207 -0.56753606 0.088933364
1.24703 11.7365 415.25299 -0.57096016 -0.79846412 -0.19094388 0.10876128
40.120701 13.3906 443.34799 0.42574424 -0.89967752 0.096551582 0.12683852
14.1644 5.9958501 427.08401 0.76595104 -0.34733737 -0.54099512 0.07305564
42.300999 42.881901 435.953 0.569893 0.34448183 0.74602562 0.1421205
28.222099 84.190903 384.31299 0.76750237 -0.49942824 -0.40188497 0.079828449
3.04774 10.2027 416.741 -0.46093571 -0.83268875 -0.30686757 0.068047948
1.88711 22.4298 404.93399 0.84293318 -0.28410006 -0.45689255 0.071430624
-0.272975 16.5569 410.82101 -0.49603885 -0.75743479 -0.42454442 0.072455883
42.867199 38.041302 435.97101 0.84117866 -0.1269321 -0.52564883 0.077574186
2.8734701 17.6947 408.061 0.29199901 -0.6191147 -0.72899491 0.1273632
-0.16832601 16.232901 411.04401 -0.51660764 -0.6176154 -0.59301579 0.074181102
23.777399 84.386703 378.29999 -0.12737937 0.20674554 -0.97006738 0.062224254
-2.8852501 39.871899 386.772 0.14579894 -0.46916443 -0.87099218 0.068162218
31.438 81.285202 394.58899 0.98524731 -0.037436876 -0.16699158 0.12164611
17.747999 81.0979 377.76599 0.31990677 -0.14208308 -0.9367348 0.097979702
-4.4772 60.6036 370.28299 0.19925649 0.25990367 -0.94485289 0.07711412
-7.6793499 46.901001 370.93701 -0.040828366 -0.98235285 -0.18252653 0.10466979
43.0751 40.127399 435.97299 0.98798424 0.096556194 0.12068144 0.16049823
-10.4397 48.201199 370.99701 -0.56599367 -0.81105816 -0.14776964 0.044888359
-8.8956003 45.8727 379.793 -0.90918654 -0.41519305 -0.031535987 0.066095717
17.925501 84.961098 379.79599 -0.6464771 0.76263082 -0.021484138 0.063739069
28.639299 85.904999 387.20599 0.48169783 0.87258935 0.080963299 0.14185065
42.858799 39.827301 435.39099 0.97338879 -0.030410793 -0.22713318 0.10308076
35.772999 11.8525 443.33499 0.17736059 -0.57386971 0.7995103 0.15217033
-0.088358201 14.7721 412.48801 -0.91414583 -0.082982667 -0.39680135 0.091447197
1.1286401 66.503304 373.95401 0.65006471 -0.27744484 -0.70741802 0.090243071
3.0193501 19.7139 407.86401 0.80321914 -0.17095545 -0.57062531 0.094108626
2.9690299 18.276501 407.89999 0.5123629 -0.57811791 -0.63503069 0.10607194
-7.8188801 47.225899 367.99399 -0.11690501 -0.98942673 -0.085837066 0.11383057
5.4948802 7.2763901 422.67899 -0.85064775 -0.4773882 0.22022462 0.1140354
17.7584 80.577103 378.31201 0.48561072 -0.69007665 -0.53663439 0.083760604
1.56115 42.336601 407.88 -0.7964257 0.29239237 0.52935129 0.0053685927
11.8329 6.2463799 424.39801 0.41863477 -0.6120832 -0.67089427 0.077140391
4.96872 9.3397102 416.73099 -0.29023626 -0.83728188 -0.46338099 0.05248652
4.5573802 13.9276 412.29901 0.71941465 -0.35474426 -0.59715921 0.066046722
5.2746701 11.9617 413.797 0.59610099 -0.059209418 -0.80072331 0.10830492
30.9501 78.573097 396.047 0.55872852 -0.64200228 -0.525029 0.1124853
-0.986269 65.0439 372.51999 0.39034462 0.20010009 -0.89866066 0.070815146
13.29 79.807701 377.68201 -0.07469029 0.28313127 -0.95616841 0.13610286
13.4957 5.9271698 431.513 -0.76484901 -0.037564937 0.64311343 0.063492306
-5.8127699 45.1726 376.841 0.42396519 -0.86218715 -0.27728474 0.10179649
4.4267001 11.8088 413.52899 -0.21891427 -0.78919071 -0.57380706 0.069582283
41.400799 50.133499 429.64999 0.97888613 0.095897369 -0.18051481 0.099437624
41.381599 50.391602 429.56601 0.97888613 0.095897369 -0.18051481 0.12789744
2.7362399 13.2676 412.66299 -0.28648883 -0.807455 -0.51569432 0.029634546
31.047701 79.750999 394.67899 0.69072163 -0.51208061 -0.51056546 0.082074039
35.772099 10.6172 441.85599 0.57654047 -0.79423535 -0.19181053 0.12114339
42.665501 43.052601 434.51001 0.94011474 0.099158794 -0.32611629 0.18735513
44.276299 29.6826 440.40201 0.9742049 0.10405248 -0.20024447 0.16324209
44.340199 15.2136 443.33701 0.70646161 -0.59308386 -0.38621694 0.13051353
31.1154 78.625099 396.133 0.55872852 -0.64200228 -0.525029 0.078522198
30.3964 82.934502 394.58401 0.42183253 0.89211559 0.16182412 0.14854047
31.858101 76.991898 399.01001 0.6403296 -0.53041857 -0.55554849 0.042694617
-7.2800798 61.3009 370.92999 -0.61016482 0.79175997 -0.028548904 0.096024148
13.7056 4.1712298 431.52499 -0.56717277 -0.8100099 0.14899354 0.11256711
13.4007 4.9379301 431.51401 -0.5901801 -0.53120255 0.60787439 0.10987844
-6.6853299 41.562901 385.71201 -0.53709924 -0.76682812 -0.35142428 0.049055126
8.2415104 7.3854098 420.39001 0.38236955 -0.47663185 -0.79159057 0.070560932
6.4360199 7.3763299 421.17401 -0.14067285 -0.96472758 -0.22251245 0.059888303
-3.2558601 39.449299 387.17999 -0.12679172 -0.82951283 -0.54390466 0.085913673
37.476101 13.421 444.83499 -0.32036236 -0.32229713 0.890782 0.075902574
4.5773702 69.8536 375.367 0.38826525 -0.19180281 -0.90136659 0.096654467
4.4489002 69.385101 375.92899 0.63932365 -0.5521037 -0.53520721 0.038734049
-5.2027798 35.514 394.58099 -0.63572198 -0.60580993 -0.47838467 0.062004797
20.699499 85.786499 378.703 -0.030099802 0.62634754 -0.77896261 0.11031834
38.433601 55.196899 428.55301 -0.12602893 0.61434513 0.77890742 0.11612746
8.2801304 73.909401 376.22 0.24661534 -0.03309162 -0.9685483 0.099549636
29.708401 6.6227999 440.38599 0.41145268 -0.73446298 0.53969508 0.12651159
40.635201 47.292999 430.07199 0.60158432 -0.3935594 -0.69513112 0.039031576
-7.3737702 42.7864 387.75201 -0.97831792 0.1347439 0.15728375 0.067778334
-7.29808 41.986801 388.65799 -0.95790178 0.15914735 0.2389483 0.039147206
1.01211 20.049299 406.40201 -0.23690657 -0.70177203 -0.67185658 0.09592808
-8.28193 47.5532 366.48999 0.53985739 -0.63091999 -0.55721986 0.14230661
4.45856 70.102402 374.909 0.38826525 -0.19180281 -0.90136659 0.076281637
-0.161667 67.296402 373.883 0.10922958 0.39024162 -0.91421026 0.12596427
35.4758 70.825798 409.48499 0.71701247 -0.37659732 -0.58657277 0.085821122
36.974899 65.419197 419.707 0.32269973 0.7135278 0.62188661 0.099019684
2.83639 14.716 410.845 -0.20328327 -0.97716606 -0.06182551 0.048481811
2.8041301 13.472 412.297 -0.20743379 -0.78720665 -0.58075547 0.026394246
0.57563299 14.551 412.302 -0.50799716 -0.66261435 -0.55034637 0.07762517
35.9277 67.994301 412.36401 0.75927949 -0.40552118 -0.50896686 0.083260991
-1.96153 21.422701 409.34399 -0.91548693 -0.055674855 0.39847702 0.09608674
42.119701 40.1432 434.48199 0.70995432 -0.28437901 -0.64427745 0.047667757
37.283798 66.884804 415.27899 0.98832333 0.11536895 -0.099534132 0.119325
8.6282902 6.9865198 421.168 0.3382284 -0.76500946 -0.54805297 0.073625728
13.3005 5.5855098 426.11801 0.60074693 -0.4549872 -0.65733534 0.079303414
2.89397 11.7647 414.63501 -0.31394666 -0.74030507 -0.59446269 0.029831793
2.3399899 17.998199 407.86801 -0.17035928 -0.6843335 -0.70898896 0.069549084
42.2733 44.513599 432.992 0.8905167 -0.15939806 -0.42611301 0.1410442
-8.7998505 57.786499 370.931 -0.93084562 0.35506642 0.086338051 0.072546184
33.4855 76.960297 404.92499 0.51115626 0.85906565 0.026935948 0.14794911
32.611301 10.4461 442.711 -0.16772041 -0.46398118 0.86982262 0.070363127
22.2703 83.696198 378.30499 0.065754585 -0.093026683 -0.99348998 0.099104255
2.9621601 68.475403 374.53601 0.53374702 -0.063591458 -0.8432498 0.079546101
30.923201 82.4319 394.57901 0.75692642 0.65350008 -0.00010969293 0.15976493
16.9709 81.322899 377.638 0.11251782 0.055720344 -0.99208617 0.096489042
-1.23759 35.4893 393.16199 0.82141894 -0.28558275 -0.49367341 0.075523064
38.903301 57.7169 422.716 0.834512 -0.23587853 -0.49794683 0.064685144
-3.5526199 39.899601 386.48999 -0.12644507 -0.8987385 -0.41985801 0.078719921
2.3057401 19.207899 406.71701 0.43546274 -0.40886816 -0.80199689 0.11185922
38.6325 57.298401 427.08499 0.0064091948 0.72979182 0.68363941 0.091809362
39.8335 56.1339 427.64999 0.54278189 0.55434364 0.63094443 0.10408801
32.698002 76.337898 406.39801 -0.028928299 0.85308522 0.52096903 0.080831237
34.3041 75.576401 406.47601 0.7690745 0.56952912 0.29010504 0.10270885
43.428699 25.321699 440.384 0.58940023 -0.25130373 -0.76775897 0.046066232
-7.2519999 40.1199 390.147 -0.86305082 -0.50324064 -0.043498695 0.07276199
7.4706502 8.1656904 418.233 0.56137294 -0.69326031 -0.45194092 0.074038431
-8.2722502 59.445801 370.94101 -0.87352896 0.43239826 -0.2235596 0.066596389
26.7866 3.7495501 438.89801 0.46819571 -0.71681911 0.51668471 0.1487622
36.9921 14.4584 444.39301 -0.39376551 -0.10802284 0.91284162 0.096219473
-11.0977 49.0611 369.44699 -0.77882552 -0.58754486 -0.21959484 0.07741949
35.4888 69.2379 410.845 0.62363255 -0.45155042 -0.63811022 0.13922048
29.558599 83.972504 387.57999 0.94506902 -0.14285158 -0.29400337 0.15833592
-4.9302602 31.1325 400.491 -0.9956702 0.010129247 0.092402674 0.074003287
33.078701 78.332298 400.50699 0.99135166 0.036613107 -0.12602137 0.14148492
41.388401 35.3302 440.026 -0.19591139 0.35470623 0.91422218 0.11066587
41.419899 36.850399 439.444 -0.12006558 0.43035609 0.89463842 0.11052524
0.23399501 67.980103 374.173 0.073757805 0.37985489 -0.9221009 0.13183597
-1.22957 68.017799 374.09299 -0.13854021 0.62845224 -0.76541126 0.11915573
1.48835 41.232498 408.35101 -0.81943434 0.24381098 0.51873267 0.007911453
25.049299 87.2127 378.668 -0.31427842 0.28494444 -0.90555823 0.13906746
0.397378 69.469101 374.86301 -0.20724405 0.42180651 -0.88268292 0.089507364
-10.4387 54.680801 368.51999 -0.69795883 0.59282708 -0.40175799 0.093988664
5.9103298 7.37012 421.26099 -0.31066346 -0.91323364 -0.26361433 0.1125835
-6.0627699 43.4314 381.27399 -0.39964679 -0.7983132 -0.45053133 0.075007275
-6.6770902 44.505501 379.79401 -0.41104522 -0.85187298 -0.32458314 0.071677573
31.1052 80.030502 400.483 0.085169151 0.95437258 0.28621522 0.10495072
20.163099 85.722198 378.65601 -0.13000667 0.65537345 -0.7440322 0.11071731
33.934601 76.453003 404.927 0.86932486 0.48657557 0.086709 0.14949775
43.4701 37.019798 437.44501 0.99375993 0.083505034 -0.073946513 0.11672337
42.826599 38.3302 438.34601 0.64124238 0.28721559 0.71155846 0.13570242
44.335701 29.184 440.513 0.9777562 0.11256985 0.17697692 0.1610171
7.6123199 72.504402 376.862 0.71282458 -0.45190492 -0.53634232 0.088872567
44.343201 20.403999 442.33801 0.6307829 -0.18835382 -0.75275213 0.14765173
-7.3647699 50.917 366.48999 0.69687611 -0.33873707 -0.63215572 0.11789036
44.319302 27.665701 441.901 0.99442255 -0.0076248045 -0.10519349 0.14615893
34.253601 72.534203 406.44501 0.58473033 -0.60720187 -0.5379557 0.10937781
-1.72119 17.422501 410.82101 -0.89330089 -0.32689059 0.3084738 0.1043346
5.96207 75.161903 376.84299 -0.34428316 0.80074781 -0.49017549 0.098475911
5.9826798 74.935699 378.315 -0.60175127 0.75614768 0.25716943 0.049489446
-3.4849999 25.671301 403.436 -0.82669961 -0.38720587 -0.40821487 0.083447993
36.918999 67.575798 416.74301 0.55030328 0.73674518 0.39290306 0.11817605
30.5884 79.815002 400.51901 -0.18132803 0.81452835 0.55105692 0.072730161
31.337299 76.851196 404.91 -0.2405538 0.78730828 0.56769675 0.13296533
16.295601 2.9638901 433.54901 -0.62782437 -0.71813995 0.30018601 0.12671083
36.9617 13.1174 440.80301 0.48406672 -0.27657762 -0.83017123 0.10044979
16.816999 3.10675 431.51501 -0.27458996 -0.89685988 -0.34676024 0.11523481
16.464001 3.78757 430.04001 0.14444596 -0.71491373 -0.68412989 0.0877534
17.5557 2.8360901 431.57101 0.24472874 -0.9072088 -0.34216961 0.1027574
11.7405 79.833801 377.78101 -0.56005716 0.65352148 -0.50916177 0.11305446
2.6386399 16.5068 409.345 -0.2448144 -0.70318252 -0.66753292 0.068783894
2.88554 16.2344 409.58899 -0.0036643811 -0.6062088 -0.79529709 0.057778601
-4.5032701 30.9636 399.18301 -0.73906559 -0.37421951 -0.5601266 0.07847219
34.0434 9.8703899 441.879 0.29060975 -0.88616902 0.36090231 0.098837569
34.0602 73.814003 404.96201 0.68179786 -0.45647398 -0.57164949 0.12867489
-5.97193 44.3293 379.32599 -0.085069865 -0.95938683 -0.26896104 0.093182296
-6.2747698 44.837299 378.30899 -0.37503108 -0.88020074 -0.29085791 0.11780491
-0.39335299 30.6026 397.522 0.10674181 -0.50199032 -0.85826099 0.095895126
0.29161701 29.5828 399.00299 0.84092802 -0.31638536 -0.43902206 0.083155967
32.055801 78.465698 397.58099 0.77219403 -0.3795729 -0.50954956 0.09707725
-9.7337799 47.419498 372.405 -0.48436296 -0.85838532 -0.16901819 0.050821543
34.046501 72.351501 406.41101 0.58550656 -0.56824672 -0.57816762 0.087102182
40.049702 49.484402 428.564 0.57956135 -0.51865107 -0.62857753 0.026030013
-7.5858002 42.2971 385.71399 -0.89846909 -0.42277703 -0.11837612 0.042603862
44.544601 16.314699 443.33301 0.71627182 -0.13007724 -0.68559068 0.11185671
44.335602 17.6868 442.927 0.72027642 -0.10234777 -0.68609536 0.10610899
5.9539299 70.566299 376.86301 0.65072995 -0.61757785 -0.44175577 0.035791013
13.4029 78.332802 377.12299 0.25981683 -0.40459248 -0.87681252 0.12960948
-0.416673 28.9702 399.01199 -0.14665358 -0.51477933 -0.84468633 0.045246311
-4.49787 65.128799 372.65399 -0.58761996 0.73796242 -0.33183461 0.095916681
27.3606 87.373299 381.27899 0.6869939 0.71734029 -0.116027 0.095773399
-4.31109 26.662901 403.46799 -0.90247887 -0.36379528 -0.23061836 0.10249072
28.8081 82.783798 387.26801 0.77329862 -0.41400787 -0.48021528 0.036945388
28.194901 83.255402 385.702 0.58181912 -0.68396318 -0.44009188 0.11766486
16.2756 83.775497 379.83099 -0.55221057 0.82700914 0.1054484 0.057910942
21.4683 2.97701 437.42599 -0.40638 -0.379935 0.83096611 0.097245343
23.711 2.3968101 437.43399 -0.31016141 -0.76162767 0.56896675 0.093530945
-9.62463 47.415501 378.33401 -0.93809199 -0.18389691 0.2935394 0.06167746
39.4571 56.257198 424.125 0.73609453 -0.37494656 -0.56354231 0.069510028
-2.03071 19.419001 409.34799 -0.97821373 -0.11289804 0.17421813 0.10592135
-2.22809 36.313702 391.63 0.37050799 -0.53775185 -0.75732869 0.083552279
-3.05426 36.617001 391.61801 -0.12347535 -0.94955218 -0.28827858 0.05428699
-2.0982499 36.9314 390.85599 0.54034132 -0.6183635 -0.57066441 0.074944757
-9.9946299 47.443802 376.83401 -0.90836614 -0.40360373 0.10943009 0.071192354
-9.0672703 46.300499 378.31299 -0.80523539 -0.58696115 -0.084098302 0.08360333
44.334202 19.019699 442.60199 0.54883003 -0.18671378 -0.81481504 0.13401921
-3.9700899 40.7258 384.22501 0.55828983 -0.78835446 -0.25847575 0.092400953
42.872299 20.455099 445.06699 -0.062502444 0.1340377 0.98900318 0.20165363
16.929501 84.288002 379.79599 -0.43170077 0.89286333 0.12817746 0.060113721
2.56282 10.5389 418.20801 -0.96682537 -0.15081388 0.20616482 0.085985936
-6.0355802 36.8564 393.59601 -0.7700538 -0.53608143 -0.34588125 0.090471394
-4.33213 30.0303 401.98099 -0.92507946 0.19473793 0.32604465 0.071657479
-8.9353399 46.374199 376.84201 -0.61099547 -0.78717965 -0.083861351 0.056039248
44.465801 24.111401 443.332 0.98853266 0.14901958 -0.024420651 0.14813679
29.739201 9.8420601 441.854 -0.2815071 -0.038612857 0.95878196 0.075271159
7.4299798 72.318398 376.86499 0.75507736 -0.35782918 -0.54937822 0.083259866
7.4901099 76.424797 378.327 -0.75818449 0.65146744 -0.027321568 0.080362931
7.98803 76.935997 378.33499 -0.83640116 0.54586601 0.049632404 0.09095671
7.87044 76.902397 377.133 -0.20446458 0.62050521 -0.75707829 0.10806803
1.60818 12.0206 416.754 -0.86282629 -0.033974431 0.50435752 0.081647694
-5.84796 37.107399 393.10101 -0.70329547 -0.55785739 -0.44064799 0.071138546
-7.3137698 47.210999 368.742 0.11125662 -0.99293417 -0.041275565 0.092139401
42.865501 41.3209 435.04099 0.94368762 -0.069830425 -0.32338428 0.1272994
13.1801 78.368202 377.147 0.28771248 -0.29496807 -0.91116154 0.13862012
22.8507 1.49414 434.48401 0.032212511 -0.67683321 -0.73543131 0.14830971
7.5985298 6.4077802 424.13599 -0.33475918 -0.93136227 -0.14318025 0.088136472
-3.8539801 65.053596 372.57999 -0.57588023 0.40566087 -0.70978957 0.13069633
41.6091 45.811199 431.54501 0.70233858 -0.29497626 -0.64784992 0.081725918
29.5266 81.555702 390.146 0.59306508 -0.64204729 -0.48584881 0.12055375
9.2117395 5.5466599 427.082 -0.68543005 -0.61156052 0.39519534 0.13933608
-2.38482 63.591499 371.69101 0.34336165 0.43539658 -0.83218545 0.10847924
-1.51202 17.678699 410.259 -0.63310623 -0.52377212 -0.56994671 0.096041083
-1.54941 18.905399 409.354 -0.95375293 -0.21999709 -0.20483327 0.11153682
25.9382 85.938499 378.06699 0.26979113 -0.28263587 -0.92050511 0.12499045
10.4245 75.2425 376.86099 0.52006668 -0.47397533 -0.71054769 0.099083476
9.2764997 74.022697 376.836 0.73785305 -0.11740927 -0.6646713 0.088370733
34.369099 75.578499 404.92999 0.98714316 0.12504768 -0.099556386 0.14375606
-9.4930696 56.345901 369.44501 -0.88960403 0.45654199 0.013193403 0.071692012
41.395599 45.3909 431.548 0.63576114 -0.34440461 -0.69079173 0.11446781
-10.2277 55.1166 369.44901 -0.81760538 0.55756962 -0.14365806 0.077200487
33.351299 11.489 443.354 -0.12397233 -0.2819981 0.95137161 0.087696135
19.226801 4.2972598 431.57999 0.67066073 0.14084654 -0.72826946 0.06961783
-4.4271302 42.8036 381.26801 0.47537962 -0.5189442 -0.71043026 0.10512585
11.8924 6.4004302 430.03601 -0.71938419 -0.10407528 0.68677121 0.060440067
13.4071 4.52349 430.05899 -0.38358527 -0.91406435 -0.13171463 0.15056194
11.8317 5.8561602 430.03101 -0.62050813 -0.42758852 0.65737182 0.089882426
34.028301 11.4571 443.35599 -0.020831605 -0.34805796 0.93724155 0.13449137
33.208401 11.8685 443.33499 -0.25092945 -0.055202477 0.96643007 0.085820869
-1.31415 63.6092 372.43301 0.75114757 -0.15930441 -0.64062428 0.070586778
30.674101 82.910797 393.09399 0.81852013 0.5543707 0.15065849 0.1395272
43.049999 39.0103 435.94501 0.99740165 -0.07084617 0.013067628 0.14149824
29.5249 84.798103 388.66199 0.85881531 0.49660829 0.12576357 0.1504398
-9.6195202 54.697201 367.966 -0.35498431 0.61601681 -0.70321369 0.07981801
41.447399 42.341999 433.04099 0.60209292 -0.39211446 -0.69550729 0.029297713
27.9585 3.7204001 437.42401 0.73830456 -0.64039588 -0.21165888 0.085120261
27.712 4.4356599 438.927 0.76276654 -0.53948194 0.356576 0.14815126
4.9629402 71.178802 375.353 0.40426806 -0.018548535 -0.91445243 0.086572617
31.2868 7.4869299 438.89999 0.97005206 -0.24274592 0.0085686436 0.10909266
25.252001 85.350098 378.32199 0.11238854 -0.63955951 -0.76048177 0.10995848
42.872398 33.891399 437.422 0.70127249 -0.23112674 -0.67438662 0.10963736
7.4081802 7.6997099 419.69501 0.18293579 -0.93164897 -0.31395021 0.069591463
25.020599 85.746002 378.35599 -0.15336972 0.19378813 -0.96898085 0.10815138
44.341801 26.3654 440.978 0.93402719 -0.037176996 -0.35526201 0.074671671
32.7318 78.442802 399.04599 0.93808603 -0.13430679 -0.31930593 0.15418059
31.865999 79.832603 396.06799 0.87966609 -0.26367581 -0.39580634 0.11177783
38.454498 60.568699 420.513 0.64066815 -0.38567904 -0.66392469 0.10907847
38.448299 59.4828 421.17401 0.62397414 -0.4607794 -0.63114071 0.063608214
-11.1911 49.035599 372.41901 -0.9824298 0.057889797 0.17742726 0.070958018
30.9946 81.337799 393.11401 0.92947471 -0.23893292 -0.28104764 0.15806668
4.5078702 11.5007 413.798 -0.31120113 -0.67891324 -0.66500431 0.074764289
38.268501 63.262501 421.194 0.86993849 0.47289836 0.13990757 0.1152892
19.4396 1.7365201 433.005 -0.30093628 -0.88943756 -0.3440032 0.088434301
20.4368 1.39196 433.01599 0.39624122 -0.67284393 0.62471908 0.11371185
41.671398 34.465 440.41199 -0.19254331 0.35863647 0.91340405 0.14025494
1.48616 42.618599 407.61499 -0.84500873 0.31828094 0.42971799 0.0060321945
44.335098 22.108299 442.00601 0.74126071 -0.18048964 -0.64649522 0.073761828
-5.89856 46.854301 373.905 0.81844127 -0.47161663 -0.32822505 0.080314629
4.5806699 74.3666 376.836 -0.64286453 0.75807554 0.10975745 0.10540754
-9.4229202 47.636002 370.92099 -0.42443159 -0.88910979 -0.17129394 0.042483579
6.53409 7.8164101 419.70001 -0.12479571 -0.94962978 -0.28745306 0.052100547
41.1143 51.8204 430.039 0.91996282 0.28666866 0.26737514 0.12479898
1.03581 22.1535 403.823 0.077222422 -0.57207447 -0.8165583 0.090984732
41.362 50.001598 431.53699 0.89789283 0.41960844 0.13310607 0.15994267
1.166 70.9403 375.45099 -0.14811498 0.8667599 -0.47622389 0.10292724
-4.0469699 41.664501 382.76001 0.77770185 -0.49132791 -0.3921437 0.088167056
38.451099 59.028999 421.47601 0.56822193 -0.45408434 -0.68624431 0.1465586
38.487099 57.591702 422.45401 0.55583084 -0.43023977 -0.7112987 0.075676225
8.9072199 7.3510399 420.526 0.50684702 -0.29315308 -0.81065863 0.070598535
-10.4434 50.277401 367.34299 -0.45426896 0.010571872 -0.89080185 0.097786658
-4.4280701 44.240898 379.927 0.60080534 -0.49207041 -0.6299997 0.10965486
38.4879 62.2682 419.69 0.98600787 -0.15840983 -0.051911172 0.13578899
31.166401 6.71696 438.901 0.7967754 -0.58776319 -0.14029768 0.084315971
29.76 84.2593 388.668 0.99071783 -0.033229545 -0.13181059 0.14798072
15.2544 4.8702202 432.98901 -0.63753527 -0.1362467 0.75827807 0.081006572
-1.77325 67.986397 374.026 -0.07297387 0.72497147 -0.68490231 0.12179821
39.555302 59.140301 424.12601 0.91128463 0.41158321 -0.012632824 0.10899246
26.6096 86.473 385.771 -0.051130027 0.90829057 0.41520357 0.093789019
-6.9347301 59.112202 369.88 -0.22716126 0.43185794 -0.87286681 0.10540174
8.14221 75.541702 376.832 -0.058604375 0.27605185 -0.9593544 0.10516641
26.2649 87.199097 378.319 -0.17143974 0.12636091 -0.97705752 0.29392061
25.735201 88.676498 379.10599 -0.0016694462 0.82403308 -0.56653923 0.14671488
-10.174 47.319302 375.495 -0.87783211 -0.40292782 0.25895935 0.065539971
44.401699 25.1099 441.353 0.71713632 -0.064038604 -0.69398457 0.081021443
-10.2627 48.8629 375.36301 -0.97736907 0.060340304 0.2027529 0.036731318
41.507599 33.952 440.56299 -0.1813584 0.31090847 0.93297642 0.14065218
26.655199 87.166801 384.23001 0.046077948 0.98725969 0.15229961 0.11679278
-10.7371 48.892502 373.88 -0.9476167 0.11750399 0.29701087 0.059677098
36.8447 68.1418 413.77899 0.91825861 -0.090781346 -0.38543463 0.13429879
32.6133 73.849403 403.59601 0.51525611 -0.61397207 -0.59795439 0.026242837
7.6537299 6.3665099 425.608 -0.69037604 -0.63911498 0.33898818 0.10292232
44.545898 23.871599 441.85699 0.99795294 -0.056215391 0.030491432 0.034313109
34.8353 73.975304 406.38599 0.96460795 -0.14174464 -0.22235096 0.11206596
-11.1236 51.7677 367.98001 -0.76332444 0.32644445 -0.55746734 0.09095569
0.80458301 11.9879 415.272 -0.94394827 -0.11886203 0.3079505 0.11411273
-7.3982601 45.783401 375.54999 -0.091864593 -0.99490851 -0.041448168 0.063128106
-5.9463902 38.210098 391.62799 -0.54294437 -0.70803291 -0.45155379 0.085555457
38.054001 63.661701 418.23199 0.84959918 -0.24568054 -0.46671441 0.15315492
-7.4416599 41.355598 387.35901 -0.9409678 -0.24126287 -0.23742741 0.089619957
-6.5088601 40.788898 387.181 -0.57279736 -0.75922519 -0.30899885 0.049493756
10.8662 79.843102 378.37701 -0.75522459 0.64024162 -0.1404513 0.11686645
-4.5413299 40.6091 385.70001 -0.37544307 -0.87065822 -0.31779993 0.10479418
-5.9344602 41.122501 385.733 -0.375245 -0.86572188 -0.33123523 0.05328387
5.3164101 10.3418 414.625 0.19369468 -0.70705932 -0.68010992 0.06030665
2.90027 10.2499 416.754 -0.46093571 -0.83268875 -0.30686757 0.070074916
25.290501 1.9006 435.95901 0.38138402 -0.92323971 0.046633448 0.12885588
-0.062862702 26.8081 400.496 -0.02951823 -0.78424352 -0.61975062 0.10313199
8.6399803 5.89533 425.599 -0.21231465 -0.97160071 -0.10447286 0.13308367
37.046101 65.827904 415.332 0.75835633 -0.37686017 -0.53185719 0.071536243
-3.19594 28.882099 400.49399 -0.5477919 -0.74217319 -0.38613853 0.055328503
-6.7200098 54.6898 367.823 0.28599364 0.3019779 -0.90940475 0.077662773
-8.9047403 46.698502 373.91501 -0.47193623 -0.8689307 -0.14911628 0.063751407
-7.2343998 45.8937 373.87701 0.10836761 -0.97968036 -0.16876858 0.076452211
-6.5459399 45.459099 375.35699 -0.098741367 -0.97415 -0.20317954 0.089479759
29.620899 82.7603 388.70401 0.78028232 -0.45334187 -0.43086037 0.069194019
-4.1259398 43.154099 381.29099 0.81277716 -0.42677927 -0.39655107 0.082370721
3.1129301 69.462502 374.897 0.083456889 -0.0013536948 -0.99651045 0.13223848
17.7687 2.7690499 431.522 0.24472874 -0.9072088 -0.34216961 0.10569962
-7.4519601 57.633801 369.25601 -0.096367054 0.37972334 -0.92006713 0.067214385
-7.5784602 45.891102 375.37201 -0.29865366 -0.94836724 -0.10679662 0.062542714
42.866798 14.7326 442.77301 0.37035966 -0.42830694 -0.82424927 0.074953027
36.967999 64.007401 421.16699 0.25746083 0.65916872 0.70654827 0.077524893
-9.31458 50.268902 366.5 -0.35800454 0.2807706 -0.89050585 0.090273663
4.6653199 8.1043301 419.69901 -0.41821358 -0.89779556 -0.13805982 0.063875057
0.21698 66.503799 373.41 0.21361458 0.0049485071 -0.97690547 0.10087987
22.7955 84.233398 378.35901 -0.038634252 0.16715001 -0.98517424 0.055798706
34.1092 73.9478 404.91199 0.68203449 -0.48356655 -0.54862773 0.096685708
31.166 78.226997 396.76599 0.65895867 -0.5958733 -0.45902994 0.040035572
17.2647 84.250298 378.45499 -0.36646533 0.7343871 -0.57129568 0.10984293
18.316299 84.250603 378.32101 -0.35137501 0.45466554 -0.8184222 0.080274768
29.930901 10.6474 441.858 -0.36273202 -0.048617296 0.93062443 0.11992994
29.134399 82.941299 394.586 -0.026193094 0.9072634 0.41974646 0.059155259
-6.6333799 51.866699 367.96899 0.89966583 -0.032319717 -0.4353812 0.043034196
18.990299 3.6716001 431.517 -0.042213332 0.13434544 -0.990035 0.073225856
-5.4411101 32.536598 399.005 -0.99241698 -0.01647293 0.12180776 0.079300083
17.972601 2.9430201 431.03299 0.090669364 -0.85371387 -0.51278818 0.10227529
17.7966 3.60306 430.341 0.0025978808 -0.63648683 -0.77128321 0.083398499
21.716499 84.285797 378.33301 0.15125348 0.23170997 -0.96095413 0.11756102
32.3013 79.857803 397.55899 0.94717902 0.23662457 -0.21647333 0.10624895
5.6160102 72.4319 375.78799 0.035077274 0.22693279 -0.97327852 0.090129361
2.89587 72.414001 375.96201 -0.40256864 0.69117272 -0.60018224 0.08742018
43.794998 20.9326 441.85599 0.62516928 -0.22639476 -0.74693292 0.078773946
44.195599 25.159201 443.34799 0.98969573 0.061162192 0.12946652 0.17849949
44.2272 25.0562 443.34 0.98969573 0.061162192 0.12946652 0.14202434
6.4099102 72.427803 375.65302 0.51171124 -0.13849564 -0.84792131 0.12317471
-3.0808401 35.401501 393.186 -0.26079705 -0.75087464 -0.60677189 0.049502693
-8.9495897 57.6982 369.45401 -0.63465703 0.60310715 -0.48318967 0.084954306
29.676701 8.8719902 441.668 -0.29172736 -0.38714024 0.8746528 0.10793911
42.496899 14.7902 445.19901 0.15531802 -0.90369958 0.39900306 0.15749143
1.1781501 22.718599 403.436 0.27028766 -0.59330046 -0.75824744 0.074004367
-0.121279 23.348 403.43301 -0.1338155 -0.66155696 -0.73785889 0.068526134
4.7590699 10.2196 415.25699 -0.03408625 -0.79844618 -0.6011005 0.061490417
7.4191699 8.8337498 417.70401 0.71107918 -0.25376979 -0.65571886 0.075818866
-11.3102 48.794102 370.953 -0.88740742 -0.45355257 -0.082450777 0.068997994
38.632099 12.8063 443.33401 0.26876742 -0.93172634 0.24423365 0.08596497
-1.4546601 19.208799 410.92099 -0.95653081 0.20058222 0.211697 0.099490434
-1.43524 19.469101 410.83801 -0.90114021 0.25989413 0.34698895 0.098239832
-7.9340301 46.228699 373.87701 -0.40709528 -0.90117097 -0.14887683 0.043663509
-10.7806 53.291 369.452 -0.97363484 0.2014126 0.1070893 0.052988537
-10.9857 52.09 369.44699 -0.96611911 0.24153472 0.090966195 0.041393097
-4.66715 31.229 399.01199 -0.78488159 -0.60737264 -0.12271628 0.081248313
0.095150501 70.092697 375.36301 -0.68100411 0.72088641 0.12867083 0.092335775
42.9897 14.6788 444.84698 0.13967644 -0.98778367 0.069093756 0.18537295
44.336601 27.863701 440.78799 0.99332333 -0.028661489 -0.11174637 0.13134691
-7.4891801 41.467098 387.20801 -0.9409678 -0.24126287 -0.23742741 0.0530697
-3.5130601 24.010201 404.922 -0.99895537 -0.045583658 -0.0032021261 0.085052632
30.316 81.385002 391.62201 0.84051234 -0.33544046 -0.42546299 0.086844862
-7.8153901 54.678799 367.905 -0.013663935 0.42006138 -0.9073928 0.077156439
-1.40544 66.564499 373.42401 0.055144902 0.45432454 -0.88912779 0.09530887
29.7241 5.5572701 438.90701 0.61752808 -0.78633767 0.018222971 0.089861505
-9.0008297 53.2229 367.315 -0.10006046 0.30131841 -0.948259 0.034192853
-7.3438301 51.8377 366.60901 0.2964187 0.33704206 -0.89360988 0.083096765
12.6819 5.6895599 425.60599 0.7306422 -0.51986474 -0.44260883 0.083326049
-7.2744999 53.202599 367.26001 0.32541853 0.30532208 -0.89491969 0.086926349
-7.4924502 53.205101 367.28799 0.32541853 0.30532208 -0.89491969 0.0896594
-8.0197296 46.6539 372.40201 -0.38152304 -0.89601034 -0.22716875 0.11314936
-9.1356497 47.1301 372.40701 -0.4663367 -0.86625755 -0.17924269 0.026947482
22.2202 83.579102 378.327 0.21490249 -0.69335526 -0.68780476 0.10686731
9.2870798 78.359398 378.384 -0.70911145 0.69438529 -0.12243374 0.13249969
10.449 79.513603 378.37701 -0.74188673 0.60633373 -0.28629267 0.11977321
-8.9421396 51.839802 367.04199 -0.23925918 0.30180892 -0.92285776 0.057747044
43.061901 14.2434 443.358 0.35779038 -0.86275566 -0.35726556 0.067014888
28.1152 84.972702 390.14801 -0.0046511702 0.96787077 0.25140518 0.082421735
9.8783302 75.371902 376.57199 0.052765198 0.079129711 -0.99546689 0.12702781
8.88309 74.110298 376.38 0.094625562 0.11197019 -0.989196 0.095752887
27.4988 87.208099 382.77499 0.85564524 0.46875545 0.21940716 0.15417317
-5.3076401 63.544498 371.789 -0.76089829 0.51891166 -0.38956964 0.078811064
29.0091 84.365898 385.724 0.90801907 -0.19949338 -0.36837995 0.12924284
-5.9152098 35.425301 395.328 -0.91795218 -0.22042887 -0.3298105 0.12336571
37.2873 62.259602 418.22601 0.68372607 -0.41978887 -0.59690535 0.020317852
41.485802 14.4168 444.814 0.0021603217 -0.69273913 0.72118503 0.11899253
24.4028 3.0931301 438.89899 -0.12719776 -0.54827958 0.82656533 0.11772402
-0.057859998 23.568199 403.09698 -0.29599911 -0.7357688 -0.60912132 0.09047509
25.339001 2.0030601 435.42599 0.79596221 -0.4074885 -0.4476575 0.14079703
-2.98423 63.5756 371.76401 0.33481872 0.44893128 -0.82846677 0.10906367
41.101601 51.9524 428.59399 0.89561969 0.0014532763 -0.44481817 0.14619516
23.6387 85.739304 378.63 -0.13484994 0.1897985 -0.97251838 0.13605453
-5.9195399 56.1931 368.565 0.27552742 0.23926044 -0.93104196 0.069046222
-5.8945699 56.300499 368.61401 0.27552742 0.23926044 -0.93104196 0.071866706
5.93647 10.1518 415.35101 0.54370517 -0.64580745 -0.53602004 0.098105036
29.578199 81.6026 390.13901 0.59306508 -0.64204729 -0.48584881 0.11333008
-7.1147799 58.071602 369.44501 -0.096367054 0.37972334 -0.92006713 0.057720583
37.000702 61.969501 418.23599 0.56043202 -0.5150764 -0.64854628 0.017393589
2.3422401 10.429 416.73599 -0.68428671 -0.67905372 -0.26577759 0.093262456
-6.6431398 47.505001 370.92801 0.85656571 -0.40366563 -0.32147986 0.11121657
10.8434 5.3295498 427.07501 -0.18849438 -0.97835475 -0.085392103 0.10138389
20.125601 82.782204 377.72299 0.13868499 -0.15371878 -0.97833377 0.080853619
4.87642 8.6957703 418.224 -0.32251737 -0.87319511 -0.36539406 0.067319855
-5.8670301 37.792702 394.58401 -0.96032077 0.066054687 0.27096266 0.07731881
23.655399 84.2295 378.35901 0.54532176 -0.49844837 -0.67392391 0.071723729
41.739601 48.855701 431.51801 0.99393171 0.10654663 0.027341392 0.13967671
-6.4464402 54.8563 367.96799 0.25917906 0.14794356 -0.95443118 0.07409095
37.1283 64.014 416.74799 0.71470231 -0.45063099 -0.53491336 0.057436235
42.907101 21.487101 444.81601 -0.018551169 0.28233337 0.95913696 0.14996471
-8.8872604 45.800499 380.00299 -0.90918654 -0.41519305 -0.031535987 0.08315111
-2.0701001 20.684401 407.86499 -0.83194929 -0.5071032 -0.22518152 0.10202076
41.668598 13.8852 443.37201 0.24524665 -0.95950121 -0.13860554 0.10517425
5.4096098 7.4312501 422.647 -0.85064775 -0.4773882 0.22022462 0.12082333
-11.8049 50.556 367.96799 -0.84383529 0.51615381 -0.14672174 0.12017039
35.483002 11.746 440.383 0.46690711 -0.33160618 -0.81977749 0.1102542
-3.85653 59.206001 370.92801 0.83031899 -0.18745317 -0.52481586 0.051103976
41.938801 47.464401 431.55099 0.97394699 0.079881929 -0.21224087 0.10440709
23.7321 84.332199 378.31601 0.54532176 -0.49844837 -0.67392391 0.073191196
41.5979 38.216202 438.897 -0.052131623 0.57336712 0.81763834 0.091751777
44.019501 14.8149 444.83801 0.35424101 -0.89636314 0.2665453 0.20908977
31.3577 81.351196 397.57901 0.44033369 0.86210579 0.25075862 0.12398136
-6.0414901 36.1152 394.57501 -0.84644955 -0.44218868 -0.29663494 0.091014408
42.862301 17.6856 445.677 0.075965218 0.4011173 0.91287142 0.077384762
3.94117 12.8408 412.32101 -0.17731574 -0.66884816 -0.72194266 0.09182293
1.50474 44.255402 406.17999 -0.83064127 0.40796825 0.37894186 0.0045787361
-3.2049899 25.121 403.78201 -0.70657319 -0.46013775 -0.53761286 0.083509535
38.453701 54.612301 428.97699 -0.15991627 0.61711115 0.77045482 0.071441934
1.50705 45.253899 404.91101 -0.82740378 0.39996946 0.39424285 0.0048135477
-6.2224998 37.129902 394.564 -0.96479082 0.15623429 0.21158817 0.079926729
9.1837597 6.5598898 422.655 0.27268398 -0.94311416 -0.1902082 0.054951135
31.373199 79.111099 401.95901 -0.023536049 0.82258612 0.56815326 0.098858386
29.5956 5.78511 438.11499 0.55860728 -0.65886563 -0.50383925 0.1000727
14.8258 82.883598 378.30801 -0.25230888 0.96751821 0.015771858 0.11165574
42.927799 33.993 437.43799 0.70127249 -0.23112674 -0.67438662 0.13551733
44.3932 14.8291 444.82501 0.67299044 -0.70355785 0.2282328 0.20909491
15.7173 6.0124302 428.55899 0.53656483 -0.31343955 -0.78348827 0.054546069
20.741501 1.36177 433.04099 0.39624122 -0.67284393 0.62471908 0.11786664
0.47633001 24.430599 401.961 0.10680798 -0.64334452 -0.75808966 0.092757329
1.46246 20.682699 405.29401 0.47794619 -0.55980241 -0.67689633 0.075676583
-6.59409 38.628899 391.64099 -0.97903818 -0.18850321 0.077141643 0.074558124
26.626699 86.073898 378.34601 0.40346807 -0.22974959 -0.88567978 0.11806108
-5.8779602 35.9226 396.07599 -0.97702223 0.038533863 0.20962502 0.089995496
1.14051 44.6073 404.92999 -0.83604431 0.4050411 0.3700968 0.0041338196
32.910801 9.4761 441.88501 0.41701207 -0.71072567 0.56654215 0.08523602
6.5283399 6.9856 422.64401 -0.29034591 -0.95077056 -0.10832644 0.087223336
-8.9194403 46.537399 375.37 -0.48983055 -0.86607051 -0.09993954 0.027735468
23.8349 1.30618 433.939 0.032212511 -0.67683321 -0.73543131 0.10229596
35.298199 10.672 440.375 0.6929245 -0.34919819 -0.63080603 0.10414272
42.245201 45.9818 432.99799 0.98671007 0.058356531 -0.15165013 0.12473056
21.411501 82.926201 378.33301 0.31715801 -0.084993988 -0.94455642 0.059123881
-6.4135499 45.703899 373.896 0.48742566 -0.7875787 -0.37700924 0.10502525
31.625 81.334999 396.043 0.88033962 0.43629298 -0.18614674 0.10388217
11.8248 80.947197 378.42499 -0.61825371 0.75881517 -0.20484594 0.11738668
28.826799 85.744698 385.724 0.73018801 0.59021485 -0.34419748 0.10731918
43.117401 29.7528 438.93201 0.61440074 -0.2869013 -0.73498255 0.1506609
44.3685 14.7368 443.48499 0.70646161 -0.59308386 -0.38621694 0.13177755
12.7472 81.680901 378.332 -0.6412667 0.7166031 -0.27433017 0.13371406
-6.73806 45.8078 373.23999 0.42120636 -0.7703318 -0.47872138 0.11153355
-9.1283398 47.797199 367.97101 -0.55618495 -0.8309499 -0.013438464 0.051868517
-0.91782498 31.8174 396.07901 0.44023857 -0.72374105 -0.53140271 0.10541543
38.398399 62.005501 422.737 0.59169078 0.65723735 0.46684161 0.10905846
42.623001 40.0467 437.44199 0.98506856 0.12611273 0.11719874 0.15804403
30.298599 8.5442801 441.853 -0.059796207 -0.64229476 0.76412165 0.11396149
-7.6466098 45.033298 379.814 -0.48559099 -0.81539887 -0.31516039 0.04833062
7.4004502 72.7323 375.901 0.45572829 -0.13694616 -0.87952119 0.089050114
42.985199 19.1768 445.39401 -0.084639058 0.22369812 0.97097653 0.13706394
42.933601 36.923599 436.40601 0.61270988 -0.2985982 -0.7317279 0.06199415
36.9883 12.3492 443.35001 0.33206674 -0.84159929 0.42596045 0.1287816
35.675098 69.486099 410.84 0.69920534 -0.44571519 -0.55897212 0.10494372
43.4296 35.582199 437.44601 0.98647976 -0.008845075 -0.16364439 0.096578687
10.38 7.0321498 422.64801 0.72458124 -0.30279368 -0.61911064 0.065014139
44.324699 22.0767 444.37399 0.83739811 0.012326723 0.54645443 0.12951386
6.4081702 8.8861103 416.742 0.55673003 -0.48653775 -0.67329985 0.07885173
-6.15869 44.207401 379.82199 -0.38407636 -0.84541106 -0.37116781 0.075623795
10.0464 76.939301 377.09799 -0.018592954 0.24451141 -0.96946812 0.13241975
17.301201 2.5996001 432.99301 -0.39576256 -0.91607285 -0.064672723 0.12814936
19.613701 2.78213 431.51599 0.39492774 -0.41906935 -0.81756526 0.10514265
40.778801 50.497002 428.58401 0.80530649 -0.22085069 -0.55018765 0.077919684
41.257801 48.5704 432.99899 0.57228673 0.40223494 0.71462923 0.11331231
-10.4633 47.688099 373.888 -0.79609966 -0.60434812 0.031443108 0.060677104
37.550701 11.8844 441.90601 0.54718459 -0.82661575 -0.13151224 0.095885284
-10.9906 53.239899 367.979 -0.91342843 0.30146039 -0.27344123 0.06723097
2.9684801 67.960999 375.384 0.73359865 -0.36060882 -0.57601589 0.079438873
42.767399 41.542599 435.948 0.98694527 0.15885778 0.026517754 0.14463304
42.579498 41.4333 434.47 0.87077403 -0.10555409 -0.48021966 0.092183128
-5.3139701 44.323898 378.875 -0.085069865 -0.95938683 -0.26896104 0.10654747
-4.8308501 43.787601 379.797 0.12051911 -0.78596056 -0.6064167 0.10861928
21.093 1.4893 432.66901 0.15524933 0.15872811 -0.97504002 0.11786838
37.674198 60.681999 419.694 0.63476366 -0.46547475 -0.61677253 0.033525065
-10.3825 53.209999 367.70401 -0.67035896 0.30586666 -0.67606539 0.080682725
21.446699 1.22225 432.60999 0.65046686 -0.067485787 -0.75653058 0.13358209
-7.09654 47.525501 369.465 0.092725277 -0.98819989 -0.1219141 0.10038625
28.221201 85.769699 382.784 0.95198959 -0.047582831 -0.30240983 0.17202201
27.6856 85.748398 381.298 0.9135977 -0.120864 -0.38824102 0.17298292
4.3425899 72.466103 375.953 -0.1839239 0.40351561 -0.89629638 0.1234084
0.76611799 23.630899 402.52701 -0.12173817 -0.77948308 -0.61448026 0.093756273
-5.8943501 55.353901 368.35501 0.53311354 0.22679944 -0.8150779 0.08377783
30.989 7.4408698 440.41901 0.43668038 -0.77959043 0.44894207 0.089289509
35.415199 72.924896 409.349 0.92836416 0.37055284 -0.028819531 0.14938384
22.202 1.82249 433.729 -0.10302782 -0.99392974 0.038586821 0.20162474
42.7547 39.680698 437.48199 0.99363917 0.082179688 0.076991886 0.16105174
31.039 81.2239 393.31 0.97157627 0.054809052 -0.23029432 0.15732145
0.47080299 25.059299 401.50201 -0.068463743 -0.56354839 -0.82324111 0.10586329
26.723801 85.817001 387.20801 -0.088594086 0.94990456 0.29972062 0.10250992
1.53111 70.939003 375.466 -0.14811498 0.8667599 -0.47622389 0.11281834
45.197399 16.4967 444.815 0.9652369 -0.26134771 0.0038831818 0.18572511
-8.3428698 58.0191 369.44601 -0.62446296 0.64008385 -0.44759202 0.12357235
10.5682 75.4282 376.866 0.51841223 -0.0087612933 -0.85508597 0.099212147
43.791199 32.674 438.91501 0.89729941 -0.064341441 -0.43670815 0.14455277
13.6503 5.2100301 427.09399 0.45878172 -0.70452678 -0.54144377 0.067862958
24.293699 1.26657 434.46701 0.14120361 -0.98212385 0.12447593 0.15432577
37.648201 65.122902 416.73199 0.88106215 -0.26274937 -0.39330932 0.12207001
-10.4468 51.8741 367.59 -0.56347638 0.23757465 -0.79123491 0.043618381
44.294498 23.632401 443.88199 0.99255985 0.096906453 0.073716536 0.15410413
-3.05637 23.6413 405.04901 -0.64958143 -0.60516089 -0.46024376 0.065316506
-2.8317201 62.153702 370.95099 0.76860392 0.15141037 -0.62154877 0.080034442
-4.0805998 41.3587 383.03699 0.13503622 -0.73664331 -0.66266268 0.086841285
-1.9254301 32.246498 396.04401 -0.28582209 -0.85923254 -0.4242937 0.07660152
28.0481 86.522797 382.76801 0.93048382 0.26171482 -0.25633031 0.16215967
3.12132 68.156799 375.362 0.57433254 -0.52296257 -0.62980342 0.077037372
4.51613 12.8766 412.31601 -0.11469845 -0.67831981 -0.72575927 0.077059269
36.756699 11.8382 442.569 0.42839545 -0.80160308 0.417025 0.16102882
31.0797 79.892601 394.58401 0.69072163 -0.51208061 -0.51056546 0.073849551
-6.0420399 34.961102 396.05301 -0.7336278 -0.49996045 -0.46024975 0.11367637
42.332802 44.470001 434.483 0.97400689 -0.016818123 -0.2258932 0.10604902
41.635101 46.075298 434.47699 0.48511532 0.35958746 0.7970947 0.12513645
1.018 43.137798 406.39499 -0.85074711 0.34281805 0.39837813 0.0041899048
38.486599 57.282299 422.65302 0.53136009 -0.47733012 -0.699866 0.029647129
13.3337 78.122101 377.142 0.28771248 -0.29496807 -0.91116154 0.12343414
38.438099 13.2072 441.45901 0.37930137 -0.64736354 -0.66109824 0.081894875
-5.7009301 63.751202 372.43701 -0.88372338 0.46682024 0.033343978 0.086774446
0.81817299 12.9738 413.79599 -0.45210546 -0.72105539 -0.52505219 0.10424703
-6.7406702 46.899399 370.94 0.35158744 -0.90821099 -0.22702208 0.097607493
34.245399 9.4117699 440.379 0.55886865 -0.82523924 0.08152318 0.10919654
33.553001 8.8682899 440.375 0.58582127 -0.8031128 -0.10873488 0.088204235
15.0924 3.70645 431.51501 -0.28249258 -0.95334643 0.10643533 0.10192491
31.0495 81.757301 393.12201 0.96228307 0.1436588 -0.23102681 0.16550206
-6.4952002 38.446602 393.12701 -0.97828054 0.032576565 0.20470929 0.087434657
-6.2084699 37.363701 393.095 -0.98025107 -0.19692589 -0.018112715 0.084737681
8.9599895 75.633301 376.832 -0.0096686454 0.27395383 -0.96169424 0.11975684
-10.417 48.622501 369.49701 -0.55632567 -0.80799925 -0.1940075 0.024712248
29.9261 81.482201 397.51999 -0.10374054 0.91154802 0.39789203 0.097805314
-4.42414 40.565899 385.698 -0.36859548 -0.87128723 -0.3240307 0.10499226
41.394501 14.2905 442.16299 0.4507221 -0.63248801 -0.6299274 0.07883279
38.3536 63.7556 419.69101 0.98995876 0.12876131 -0.058328066 0.12969579
6.6752801 8.1736898 418.23001 -0.10305511 -0.93020487 -0.35227627 0.073173679
29.633699 81.267403 397.65302 -0.27734298 0.81204319 0.5134849 0.12072677
29.6497 82.267799 396.073 -0.17377198 0.88647538 0.42891112 0.10088949
-7.51439 56.1609 368.685 -0.019453241 0.41788071 -0.9082936 0.064846814
-2.10025 20.6926 407.88101 -0.83194929 -0.5071032 -0.22518152 0.1020236
-2.8085599 22.3414 407.88599 -0.93025464 -0.09417861 0.35462192 0.087805182
-8.8832598 56.193802 368.72501 -0.30457711 0.50333148 -0.80863476 0.052660912
5.96696 71.724602 375.465 0.52610713 -0.4339042 -0.73139483 0.10143858
-8.0816898 44.9673 384.22601 -0.95030499 -0.055763099 0.30628562 0.036750905
-7.7656002 43.0233 384.24899 -0.81737393 -0.50781834 -0.27206698 0.051151469
30.2411 82.786903 390.16501 0.93800348 -0.21934682 -0.26839602 0.11552913
30.6005 82.825996 391.66299 0.92004162 0.16196634 -0.35677767 0.11677025
0.058933999 26.5763 400.604 0.17259781 -0.6243093 -0.76187134 0.10528322
40.304798 14.2448 444.81699 0.018759517 -0.59767556 0.80151856 0.13136375
-5.8250899 34.007702 397.54199 -0.93558288 -0.32346609 0.14161327 0.092506826
44.946301 20.8587 443.33099 0.99089026 0.083049797 -0.106015 0.10949384
44.806599 22.2651 443.33401 0.99611199 0.087293647 0.011861878 0.088356659
6.29667 8.8604202 416.793 0.55673003 -0.48653775 -0.67329985 0.07885173
5.1023502 7.5348201 421.18799 -0.75323236 -0.64052647 0.14955552 0.099743322
33.5327 76.936699 401.97501 0.93591285 -0.22148079 -0.2738857 0.11292275
33.0569 78.346703 401.96799 0.62132132 0.70130318 0.34947628 0.10827583
1.1744699 27.014299 401.97101 0.84648025 -0.1562492 -0.50897682 0.054208905
-7.8764601 54.800999 367.966 -0.013663935 0.42006138 -0.9073928 0.088100865
-2.7638299 67.426399 373.914 -0.59070909 0.80218595 -0.086951293 0.080810279
6.6189299 75.4076 376.84201 -0.42036945 0.76057827 -0.49478295 0.093914792
11.8266 76.731796 377.03699 0.53654784 -0.30557129 -0.78660196 0.12200275
20.705799 83.040497 377.70801 0.26190093 0.01993835 -0.96488881 0.081267528
1.78321 19.677099 406.388 0.35744238 -0.73892039 -0.57116687 0.1042252
-6.8340302 46.256302 372.42401 -0.0078563225 -0.92915654 -0.36960307 0.10231758
36.959599 63.502499 416.98199 0.54542971 -0.51690227 -0.6597867 0.046966679
40.009499 42.664001 436.311 -0.088245735 0.40051603 0.91203046 0.065379098
27.237801 87.298103 379.789 0.95008725 0.010617307 -0.31180367 0.093529113
28.285601 84.293098 384.267 0.76750237 -0.49942824 -0.40188497 0.10571294
28.0949 85.227303 382.75299 0.916556 -0.28425348 -0.28129175 0.14930974
-7.1507502 47.282902 369.46201 0.13032408 -0.96834981 -0.21287154 0.1005322
42.973801 29.529699 438.92099 0.61440074 -0.2869013 -0.73498255 0.058497697
44.6474 25.4126 441.86301 0.99281192 0.046487238 0.11028793 0.079742856
25.137199 88.496101 379.80099 -0.41902754 0.85951114 -0.29267129 0.09542691
15.1772 4.0873899 432.996 -0.55054379 -0.40426064 0.73039365 0.084721744
38.528099 12.3077 441.85501 0.54738855 -0.83620983 -0.033450358 0.10199941
39.9538 16.205 445.08401 -0.13188112 0.0091106026 0.99122369 0.080141097
-7.7523999 59.118698 369.86301 -0.24347341 0.48269495 -0.84126467 0.07966879
25.521299 2.9809201 438.90399 0.0047056195 -0.55618018 0.83104843 0.12751044
16.291 80.284798 377.436 0.33403853 -0.35104656 -0.87474829 0.1057176
11.8368 76.910896 377.01099 0.41378382 -0.31250113 -0.85505909 0.11954259
32.450001 79.809402 399.01401 0.98921859 0.10125343 -0.10580346 0.13705945
1.64833 21.0093 404.91101 0.50537515 -0.59517038 -0.62479448 0.090381078
44.850601 18.0019 443.34201 0.96911883 -0.0018914131 -0.24658686 0.096490532
24.314301 1.89478 434.47 0.12484088 -0.9869889 0.10132974 0.15397353
9.3532495 7.2304401 421.16599 0.62779808 -0.49235988 -0.60286921 0.080539763
41.409698 48.719799 430.104 0.77797782 -0.24306548 -0.57937008 0.063088819
20.159 2.1844599 435.94199 -0.60314137 -0.53291494 0.59348309 0.078539275
20.7316 2.1020899 435.961 -0.27596605 -0.84701943 0.45431358 0.10709894
-4.9055099 32.7248 397.522 -0.56228149 -0.6772455 -0.47452927 0.11181218
-4.67907 45.984699 378.327 0.90493929 -0.3071599 -0.29451263 0.075577512
-5.0732999 45.892399 376.87 0.85219282 -0.45499241 -0.25835881 0.084364012
-5.6396599 44.616699 378.31201 0.45744041 -0.84726763 -0.26997381 0.1073084
22.3922 2.52948 437.44601 -0.09151312 -0.74991512 0.65517378 0.086160555
18.007 2.32673 432.98999 -0.41477165 -0.90789795 -0.06071062 0.10523765
41.445999 49.021702 430.052 0.91922438 -0.21913578 -0.32711783 0.090822458
-7.87676 47.134701 369.452 -0.16488025 -0.98426032 -0.063609086 0.097084776
0 0 0 1 0 0 0 1 0 0 0 1 0 0 0 0 0 1213 1 0 0
