# .PCD v0.7 - Point Cloud Data file format
VERSION 0.7
FIELDS x y z normal_x normal_y normal_z curvature
SIZE 4 4 4 4 4 4 4
TYPE F F F F F F F
COUNT 1 1 1 1 1 1 1
WIDTH 16
HEIGHT 1
VIEWPOINT 0 0 0 1 0 0 0
POINTS 16
DATA ascii
42.0182 -1.98086 404.87799 0.026727129 0.16439635 0.98603219 0.0385409
43.227901 -3.8669 405.77499 -0.01337355 0.27842462 0.960365 0.019966539
44.382801 -3.8920801 405.82401 -0.38612604 0.23342684 0.89242285 0.023981472
42.439701 0.248264 404.703 -0.30879208 -0.040682856 0.95025909 0.019994613
42.441399 -2.04354 404.96201 -0.079069175 0.21753424 0.97284478 0.028946958
42.6063 -2.29807 405.10001 -0.078958683 0.29111746 0.95342338 0.036181957
44.383499 0.021051601 405.577 -0.54536295 -0.14458354 0.82563603 0.016601747
43.571701 -1.90263 405.091 -0.29165867 0.14330502 0.94572663 0.027903212
40.7994 -1.9701101 405.08301 0.20688395 0.33309793 0.91991568 0.018056987
42.463501 -0.059332401 404.69101 -0.30879208 -0.040682856 0.95025909 0.023254829
44.392899 -1.96426 405.43799 -0.28276956 0.13203901 0.95005637 0.024240572
42.560001 2.0687499 405.20599 -0.42187297 -0.25818104 0.8691178 0.013917626
41.9692 -0.000559829 404.66901 -0.25986978 0.053237833 0.96417499 0.016309777
40.362701 -1.97035 405.17099 0.23397805 0.38993001 0.89062274 0.013175228
42.544102 1.84901 405.103 -0.42187297 -0.25818104 0.8691178 0.019132946
44.376801 -1.87146 405.431 -0.28276956 0.13203901 0.95005637 0.024237864
