# .PCD v0.7 - Point Cloud Data file format
VERSION 0.7
FIELDS x y z normal_x normal_y normal_z curvature
SIZE 4 4 4 4 4 4 4
TYPE F F F F F F F
COUNT 1 1 1 1 1 1 1
WIDTH 406
HEIGHT 1
VIEWPOINT 0 0 0 1 0 0 0
POINTS 406
DATA ascii
0.0149704 -0.155058 -1.45749 0.8645196 0.47265881 0.17087866 0
0.0149674 -0.15000799 -1.46252 0.49960089 0.2693018 0.82333195 7.5508723e-36
0.035015501 -0.15250801 -1.47253 -0.52039719 0.83791918 0.16455476 0
0.0224833 -0.139973 -1.47251 0.11820028 -0.93578571 0.3321653 7.5710417e-36
0.0401434 -0.146835 -1.48009 -0.94476658 -0.10462411 0.31059605 7.5670813e-36
0.019922299 -0.12999099 -1.4627 -0.22606422 -0.50598973 -0.83238775 7.5536073e-36
0.017437801 -0.132392 -1.4625 0.74136716 -0.51578605 0.42934769 7.5613674e-36
0.0375356 -0.15004499 -1.47747 -0.77213079 0.6325385 -0.060902141 7.5505739e-36
0.0175601 -0.152435 -1.45267 0.58596569 0.47426671 -0.65705043 7.5536073e-36
0.034926899 -0.145062 -1.46776 -0.70248795 -0.48856223 -0.51751101 7.5536073e-36
0.0149163 -0.150254 -1.4525 0.59534305 0.21433721 -0.77435535 7.5602195e-36
0.030250801 -0.149845 -1.46 -0.71888369 -0.35353455 -0.5985145 3.1529215e-43
0.0249999 -0.132511 -1.46267 -0.96183932 -0.15577924 0.22494002 0
0.037280399 -0.149985 -1.47497 -0.98602319 0.1642395 0.02799309 7.5842431e-36
0.0149756 -0.139994 -1.46512 0.97759849 -0.2019998 0.059137627 7.5687114e-36
0.019979401 -0.145064 -1.47014 0.65553737 0.28156382 0.70070863 0
0.0149954 -0.155002 -1.4592201 0.8645196 0.47265881 0.17087866 1.9758308e-43
0.0124781 -0.147499 -1.46057 0.81658947 0.041918252 0.57569474 3.6013371e-43
0.0275154 -0.132466 -1.4665 -0.44117501 -0.89486915 -0.067629814 2.9567398e-43
0.026534799 -0.157502 -1.46698 0.36037755 0.86694819 0.34428024 1.9898438e-43
0.022435 -0.132421 -1.4651999 0.19765708 -0.41959134 0.88593161 1.835701e-43
0.034965899 -0.15006401 -1.48013 0.14975362 0.90311706 0.40243444 0
0.035540398 -0.139972 -1.47508 -0.68594396 -0.65674335 -0.31331939 3.9937006e-43
0.0124784 -0.151815 -1.4575 0.99704498 -0.041892901 0.064391978 7.5459046e-36
0.035418998 -0.149958 -1.46495 0.0048308386 -0.054614689 -0.99849582 1.779649e-43
0.022261299 -0.132341 -1.46 0.15936215 -0.11747331 -0.98020595 2.9847657e-43
0.0149985 -0.142536 -1.46545 0.63836163 0.15119563 0.75474119 7.5513086e-36
0.0154805 -0.154742 -1.45999 0.94608712 0.26097167 0.19186689 7.442119e-36
0.019742601 -0.129949 -1.46244 -0.22606422 -0.50598973 -0.83238775 7.5522728e-36
0.0124851 -0.15261699 -1.45884 0.93720961 0.24433401 0.24887559 4.6663239e-43
0.0174271 -0.15753999 -1.4603601 0.63254285 -0.36525184 -0.68299389 2.0318828e-43
0.0249951 -0.15748 -1.45558 -0.82775068 0.38819775 -0.40513122 4.1898824e-43
0.026379701 -0.15750299 -1.46166 -0.030232828 0.99528128 0.092201591 0
0.025235601 -0.134766 -1.4625 -0.76255435 -0.15008678 -0.6292733 0.0021628069
0.028592 -0.1525 -1.4575 -0.30196053 -0.11917724 -0.94584173 0.0015442566
0.0249811 -0.13489699 -1.46768 0.24304436 -0.35748169 0.90174067 0.0017977395
0.0349948 -0.147522 -1.48296 0.35887471 0.51597852 0.77780145 1.3452465e-43
0.0136783 -0.14249501 -1.4625 0.91607559 -0.35780415 -0.18105716 3.3631163e-43
0.037461299 -0.142538 -1.47289 -0.63755351 -0.63428998 -0.43726623 5.1147394e-43
0.0177224 -0.144734 -1.46747 0.73719615 0.20723866 0.64311272 7.5621136e-36
0.0148821 -0.147385 -1.45749 0.79381621 -0.54281873 -0.27423283 7.5482349e-36
0.035434801 -0.15007301 -1.465 -0.78517127 0.066986538 -0.61564505 3.657389e-43
0.021911301 -0.157502 -1.4631 0.23936979 0.8036164 0.5448879 0
0.0174885 -0.14271601 -1.4678299 0.7735253 0.191644 0.6040954 7.5521588e-36
0.027465099 -0.145046 -1.4778301 0.61017251 0.32252222 0.72364974 7.5482349e-36
0.0251287 -0.13786601 -1.46997 0.39896622 -0.75539613 0.5198102 7.5482349e-36
0.037479799 -0.149997 -1.4771399 -0.83402294 0.55048996 -0.036966462 7.5472226e-36
0.037620299 -0.150442 -1.47249 -0.39040223 -0.9206444 -0.00013416707 7.5482349e-36
0.027367299 -0.142492 -1.47855 0.33887327 0.14324971 0.92986256 7.5482349e-36
0.0312079 -0.15245 -1.47496 0.45189199 0.67443603 0.58389187 7.5621136e-36
0.0301007 -0.155258 -1.4625 -0.58439898 0.76214284 -0.27859661 0
0.025116 -0.15685 -1.45499 -0.82775068 0.38819775 -0.40513122 7.5635119e-36
0.0157091 -0.14462499 -1.465 0.74131984 0.30880222 0.595891 7.5621136e-36
0.032479901 -0.152476 -1.46339 -0.77122265 0.49462003 -0.40070775 7.4322352e-36
0.0249981 -0.147589 -1.4735 0.68634921 0.51245183 0.51605994 7.5675642e-36
0.0349796 -0.152481 -1.46682 -0.57710665 0.73417032 -0.35768962 3.9376487e-43
0.037480701 -0.14501099 -1.47103 -0.68672836 -0.41439375 -0.59722859 0
0.033043899 -0.14995199 -1.4624799 -0.95810717 -0.016411183 0.28593928 2.0879347e-43
0.0146315 -0.14968701 -1.45249 0.85438907 -0.46586478 -0.23019415 2.6344411e-43
0.040502001 -0.14498 -1.475 -0.96606463 -0.058652837 -0.25155318 3.9937006e-43
0.032793902 -0.15344299 -1.465 -0.67212838 0.68488795 -0.28137514 4.9185576e-43
0.018998099 -0.157482 -1.45824 0.025818041 0.94416469 -0.32846069 2.1019477e-43
0.017477199 -0.14760099 -1.46611 0.72941309 0.28330034 0.62265354 2.1019477e-43
0.029301301 -0.155045 -1.47119 0.061385255 0.85925168 0.50785667 2.1019477e-43
0.034967199 -0.142501 -1.47052 -0.5873993 -0.56647998 -0.57798141 2.0879347e-43
0.0174606 -0.13248201 -1.46445 0.5691613 -0.71083391 0.41324395 0
0.032877099 -0.137476 -1.47215 0.14204825 -0.98266619 0.11911947 4.2459343e-43
0.020254901 -0.15749601 -1.46249 0.27225 0.53529084 0.79958969 0
0.0275164 -0.155975 -1.4575 -0.75031924 0.5461691 -0.37245178 2.0178698e-43
0.016756101 -0.144787 -1.45749 0.70132345 -0.61916941 -0.35323453 4.0357396e-43
0.0245349 -0.139999 -1.47346 0.1159233 -0.95857984 0.26016632 3.3350903e-43
0.0124709 -0.147506 -1.46055 0.81658947 0.041918252 0.57569474 7.562722e-36
0.02344 -0.157491 -1.46 -0.12249198 0.96606129 0.22742325 0
0.017495601 -0.13933501 -1.46884 0.72978079 -0.025824036 0.68319333 7.5862642e-36
0.0174118 -0.157747 -1.46 0.32175934 0.93216348 -0.16595833 4.2599473e-43
0.0233484 -0.15726601 -1.465 0.53003675 0.61842901 0.58017808 2.704506e-43
0.0267177 -0.157519 -1.46 -0.16720308 0.98538089 -0.032674011 2.1439867e-43
0.0225372 -0.15752099 -1.46056 -0.17088883 0.97578126 0.13655743 2.1439867e-43
0.0144926 -0.144853 -1.46 0.75642449 -0.52932119 -0.38424096 3.4191683e-43
0.037211102 -0.14999101 -1.46999 -0.86702901 0.44681484 -0.22049296 2.1860256e-43
0.0149944 -0.137481 -1.46451 0.95797098 -0.032120198 -0.2850613 2.2280646e-43
0.030030301 -0.155017 -1.47024 -0.38246709 0.80214185 0.45857105 3.9796876e-43
0.034547701 -0.15233 -1.475 -0.40704197 0.86777008 0.28511748 0.78395033
0.012482 -0.149625 -1.46 0.88739967 -0.10198641 -0.4495782 6.7262326e-44
0.0200016 -0.157493 -1.45776 0.090881683 0.21113922 -0.97322184 2.2140516e-43
0.014974 -0.141582 -1.4659801 0.94981176 -0.058136109 0.30737239 0
0.0413226 -0.144986 -1.4774801 -0.95646083 -0.29180813 0.0055368426 7.3252813e-36
0.017472601 -0.137485 -1.46829 0.11142593 -0.39242449 0.91301 3.3070644e-43
0.0194484 -0.137445 -1.46 0.48287168 -0.22280745 -0.84687173 2.1720126e-43
0.029969299 -0.13841601 -1.47247 0.10420575 -0.70593852 0.70056546 1.1210388e-43
0.0150914 -0.145015 -1.45939 0.666399 -0.49100253 -0.56109619 3.3070644e-43
0.0199569 -0.157507 -1.4622999 0.16824521 0.96459252 0.20311284 2.2140516e-43
0.037988801 -0.14749099 -1.47 -0.9596864 0.11027414 -0.25853741 2.1860256e-43
0.022464801 -0.14508 -1.45517 -0.80660224 -0.18222861 -0.56230378 1.5694543e-43
0.032478899 -0.150012 -1.4788001 0.42541406 0.6462549 0.63354361 2.2140516e-43
0.024970399 -0.13752601 -1.4614 -0.62878633 -0.25726712 -0.73378563 0
0.030172899 -0.15413199 -1.46 -0.76210421 0.54507542 -0.34941372 2.1860256e-43
0.017477499 -0.13495199 -1.46579 0.20903428 -0.57068241 0.79411978 3.7134409e-43
0.0174908 -0.14496399 -1.4549299 0.80435902 -0.54009491 -0.24759662 0
0.0274806 -0.14758401 -1.4764301 0.55840617 0.53242689 0.63616365 2.2140516e-43
0.0203113 -0.15744001 -1.4575 0.35920411 0.68041241 -0.63875765 7.5595752e-36
0.024773899 -0.157508 -1.4661 -0.023010235 0.99971086 0.0069784676 4.6803369e-43
0.033110201 -0.14248 -1.46749 -0.76151288 -0.41455823 -0.49823654 0
0.0150545 -0.154972 -1.45722 -0.17181647 0.98456335 0.033378165 1.5414283e-43
0.034890801 -0.14500199 -1.47998 -0.12359194 -0.94120812 0.31440789 4.0637655e-43
0.0197274 -0.157122 -1.46249 0.27225 0.53529084 0.79958969 2.2140516e-43
0.027399899 -0.140248 -1.475 -0.033008046 -0.96362919 0.26519662 2.3541814e-43
0.0283974 -0.147469 -1.47747 0.62281799 0.41723019 0.66182834 2.2140516e-43
0.019140599 -0.14227299 -1.455 0.55361915 -0.70809937 -0.43829346 2.1579996e-43
0.025277499 -0.15790799 -1.4575 0.13758025 0.98123425 -0.13509616 2.3541814e-43
0.0249977 -0.135149 -1.46197 -0.73838824 -0.22848459 -0.63449001 0
0.0150353 -0.14256801 -1.46166 0.69668978 -0.40250137 -0.59381479 4.568233e-43
0.0249703 -0.14241301 -1.47648 0.66682744 0.33780792 0.66424918 2.2280646e-43
0.0394945 -0.14733399 -1.48 -0.63494104 0.69227535 0.34293538 4.3580382e-43
0.032464601 -0.142976 -1.47747 -0.11896671 -0.8284722 0.5472483 7.5653049e-36
0.0300269 -0.142489 -1.47892 0.11433753 -0.97031832 0.2130945 4.8204667e-43
0.0199738 -0.133013 -1.465 0.13128316 -0.15293643 0.97947699 0
0.0365569 -0.139952 -1.475 -0.68594396 -0.65674335 -0.31331939 7.580617e-36
0.032479599 -0.147549 -1.48095 0.61589658 0.27730027 0.73741168 7.5857139e-36
0.038850799 -0.144954 -1.47247 -0.757065 -0.3500528 -0.55164808 4.8905316e-43
0.0150062 -0.147508 -1.4570301 0.79381621 -0.54281873 -0.27423283 3.0408177e-43
0.017547701 -0.145007 -1.4545701 0.81494641 -0.51582211 -0.26417783 3.3771293e-43
0.0329055 -0.141489 -1.47499 0.22785953 -0.7056641 0.67090851 2.5643762e-43
0.0160411 -0.14733499 -1.45249 0.90483701 -0.42304584 -0.047980726 1.2331426e-43
0.040178899 -0.148054 -1.47746 0.11192951 0.99370164 -0.0053749373 5.49309e-43
0.0175175 -0.14008901 -1.46073 0.70497149 -0.24505576 -0.66555458 4.0357396e-43
0.024573199 -0.15756699 -1.46498 0.2329108 0.96902585 -0.082106665 6.7262326e-44
0.0183869 -0.158187 -1.45999 0.45367873 0.73966235 -0.49706662 0.00024698893
0.035036098 -0.15297399 -1.4674799 -0.57470948 0.81146181 -0.10601294 5.859237e-05
0.0207638 -0.133292 -1.465 0.090900756 -0.14280345 0.98556799 6.7262326e-44
0.0249725 -0.145027 -1.47528 0.73095137 0.30443749 0.61076009 8.0714792e-43
0.0223906 -0.13994201 -1.47247 0.13749652 -0.92908382 0.34336269 2.2701035e-43
0.0168633 -0.14225499 -1.46 0.63478988 -0.47027084 -0.61309636 7.4897931e-36
0.0149499 -0.139907 -1.46494 0.99996585 -0.0034960399 -0.0074875155 7.5659592e-36
0.0234269 -0.13246299 -1.46 -0.73993427 -0.27329105 -0.61466187 7.5434365e-36
0.032746401 -0.151907 -1.4625 -0.79567069 0.38467246 -0.46790513 3.6994279e-43
0.021502299 -0.158114 -1.45999 -0.33810589 0.91036588 0.23857576 0
0.028140301 -0.154953 -1.45749 -0.75908482 0.35245046 -0.54732883 0.0010775309
0.0251293 -0.139633 -1.4724801 0.1159233 -0.95857984 0.26016632 2.4943113e-43
0.0174833 -0.140021 -1.46864 0.77452016 0.067139596 0.62897599 0
0.0160529 -0.147156 -1.45499 0.78526336 -0.6002689 -0.15178509 6.8692784e-06
0.0349636 -0.13999601 -1.4748501 0.42806828 -0.90268403 0.043807734 1.3592595e-43
0.0373656 -0.14541601 -1.47996 -0.10650387 -0.23121227 0.96705627 5.3809861e-43
0.024290601 -0.13 -1.4633 0.067276478 0.14640991 0.98693365 2.0178698e-43
0.020061599 -0.13001999 -1.46189 -0.22606422 -0.50598973 -0.83238775 3.6994279e-43
0.029983601 -0.145015 -1.46297 -0.69498324 -0.44316205 -0.56622046 4.0357396e-43
0.0244787 -0.12988099 -1.4624701 0.067276478 0.14640991 0.98693365 1.2191297e-43
0.0157593 -0.139892 -1.4625 0.6849708 -0.57535833 -0.44696516 4.4281031e-43
0.0153157 -0.14794099 -1.45499 0.76318836 -0.62233162 -0.17391627 0.00091511727
0.026317099 -0.157148 -1.4675 0.36037755 0.86694819 0.34428024 6.7262326e-44
0.035073299 -0.152988 -1.46998 -0.56916898 0.81766838 0.086400755 0.78144652
0.0124913 -0.150095 -1.45982 0.96498919 0.17901333 -0.19170322 0.00013298693
0.036655899 -0.14988901 -1.4675 -0.91151655 0.24311474 -0.33171192 1.3452465e-43
0.022543199 -0.158539 -1.45749 0.12031701 0.98981541 -0.076086983 0.78450489
0.0214743 -0.14247499 -1.45499 -0.47518149 -0.42926317 -0.76807272 0.85404783
0.024602899 -0.13495301 -1.46749 0.35999548 -0.28887075 0.88710594 4.6803369e-43
0.032467399 -0.15230399 -1.4625 -0.86600965 0.36656022 -0.34008947 0
0.039127901 -0.142499 -1.47498 -0.67134017 -0.71113068 -0.20879534 2.0178698e-43
0.034551799 -0.14291599 -1.47747 -0.11927132 -0.75152344 0.648835 0.94990921
0.0341888 -0.153301 -1.4675 -0.46796861 0.86837238 -0.16411816 0.004428362
0.017487399 -0.143885 -1.46745 0.76505262 0.19256544 0.61450231 0.0055980785
0.0249989 -0.143286 -1.47666 0.66682744 0.33780792 0.66424918 4.0637655e-43
0.027556701 -0.15726 -1.46744 0.35287184 0.92915839 -0.11020967 2.0178698e-43
0.032478102 -0.137509 -1.46997 -0.90498489 -0.36693907 -0.2153092 0.78188068
0.0195504 -0.13749801 -1.46843 0.03162672 -0.52230173 0.8521741 2.2140516e-43
0.022191901 -0.15472201 -1.45249 0.79199773 -0.29499707 -0.53452438 0
0.0148428 -0.14972199 -1.4625 0.49960089 0.2693018 0.82333195 2.0178698e-43
0.0175335 -0.154993 -1.4545701 0.39867467 0.67689455 -0.61876673 0.35851869
0.0224967 -0.129997 -1.46322 0.024149856 -0.7218945 0.69158161 2.5559684e-42
0.022570999 -0.139845 -1.4575 -0.091556601 -0.40895745 -0.90794891 5.3809861e-43
0.034848802 -0.14499199 -1.47998 -0.12359194 -0.94120812 0.31440789 7.5568094e-36
0.035832699 -0.152475 -1.46999 -0.61510992 0.78603983 0.061490815 4.2599473e-43
0.0134595 -0.15242399 -1.46 0.72799367 0.44903949 0.51806253 0
0.0150627 -0.14848199 -1.45249 0.90483701 -0.42304584 -0.047980726 0
0.0351125 -0.15248901 -1.47247 -0.54698962 0.82093078 0.16393594 0
0.035244402 -0.14244001 -1.47709 -0.15501474 -0.78155535 0.60426956 5.2268433e-43
0.033829201 -0.15251 -1.47662 -0.25904822 0.93311721 0.24937184 0
0.0274517 -0.15494099 -1.45689 -0.71480715 0.33317953 -0.61485136 2.3822074e-43
0.0174178 -0.151897 -1.45249 0.51047552 0.6285243 -0.58683217 0
0.0349609 -0.147503 -1.46551 -0.6610471 -0.28434855 -0.69437933 4.6382979e-43
0.017526099 -0.137647 -1.46105 0.56563079 -0.18761957 -0.80303216 2.3822074e-43
0.018423 -0.13495401 -1.46611 0.25974792 -0.51736552 0.8153919 0
0.030833101 -0.142491 -1.4774899 -0.36102134 -0.84204936 0.40076989 0
0.037545901 -0.150001 -1.47434 -0.92137152 0.37848419 0.08845488 0
0.037501901 -0.150014 -1.48103 -0.64130497 0.66366541 0.38506648 5.2128303e-43
0.0132781 -0.149856 -1.4575 0.91810757 -0.31871718 -0.23557985 2.3962204e-43
0.027354101 -0.15729199 -1.45999 -0.36563194 0.92991918 0.039542407 1.4153114e-43
0.0214031 -0.157648 -1.46249 0.098739952 0.99445283 -0.036249228 4.2179084e-43
0.0257532 -0.142239 -1.4774899 0.65329367 0.20966478 0.72749436 0
0.0185307 -0.147291 -1.4675 0.69185752 0.29931489 0.65707213 2.3962204e-43
0.0249265 -0.148977 -1.47245 0.6874764 0.47333166 0.55075705 1.4573504e-43
0.0199902 -0.14159 -1.47149 0.7958014 0.04065413 0.60419154 2.4102334e-43
0.029946299 -0.154047 -1.47245 0.29365867 0.73427564 0.61204886 2.4102334e-43
0.020188401 -0.13502701 -1.46018 0.35882524 -0.2258161 -0.90567738 1.4012985e-43
0.039957698 -0.144251 -1.47497 -0.77693534 -0.5815441 -0.24120103 3.1949605e-43
0.027648799 -0.157057 -1.4625 -0.34339985 0.93885648 0.025000367 0
0.040008899 -0.147521 -1.47904 -0.63494104 0.69227535 0.34293538 2.4242463e-43
0.039347701 -0.147451 -1.47247 -0.89608848 0.18543532 -0.40328547 6.5861028e-44
0.0150344 -0.13968401 -1.46496 0.99716783 -0.072826587 0.018778602 3.0828566e-44
0.014983 -0.150106 -1.4625 0.49960089 0.2693018 0.82333195 3.2930514e-43
0.037511501 -0.149399 -1.46997 -0.932271 0.27472353 -0.23536716 0
0.035002101 -0.152551 -1.47242 -0.54698962 0.82093078 0.16393594 3.629363e-43
0.0311429 -0.154649 -1.4625 -0.740789 0.6031431 -0.29571965 0
0.02138 -0.129559 -1.4625 0.040897287 -0.98246676 0.18189688 0.00033666301
0.0226299 -0.13206901 -1.465 0.25649637 -0.60124606 0.75677788 1.8917529e-43
0.0247241 -0.157139 -1.4625 -0.016583655 0.99981278 0.0099684289 0
0.0299585 -0.15497699 -1.46171 -0.76210421 0.54507542 -0.34941372 2.0178698e-43
0.031766199 -0.15472101 -1.46995 -0.31877232 0.94667298 -0.04684557 3.3631163e-43
0.020174 -0.13252699 -1.46085 0.46431369 -0.28598109 -0.83822888 3.1949605e-43
0.019808 -0.136865 -1.4675 -0.03892203 -0.6843009 0.7281602 1.2182294e-36
0.037871901 -0.14999001 -1.4724801 -0.96466905 0.25988734 0.043268308 6.1096613e-43
0.038226198 -0.14247701 -1.47618 -0.49971989 -0.77138883 0.39400417 7.583522e-36
0.0277519 -0.136301 -1.46997 0.22866145 -0.70390338 0.67248344 7.5676345e-36
0.034963202 -0.142407 -1.47702 -0.15501474 -0.78155535 0.60426956 7.539568e-36
0.0149205 -0.1523 -1.455 0.68034858 0.49859208 -0.53715152 2.6764801e-43
0.0267455 -0.157363 -1.4625 -0.0029345148 0.99758172 0.069441132 0
0.034977701 -0.146817 -1.48325 0.35887471 0.51597852 0.77780145 7.539568e-36
0.0224804 -0.134884 -1.4663399 0.43057415 -0.31852701 0.84447998 2.2841165e-43
0.025752001 -0.14744499 -1.47498 0.64504999 0.47671118 0.59720761 0
0.036895499 -0.14236 -1.4724801 -0.58534294 -0.70782322 -0.3954238 7.5527923e-36
0.0324458 -0.154092 -1.4675 -0.54576004 0.83501011 -0.070029572 7.5527923e-36
0.0305476 -0.155513 -1.4675 -0.45947546 0.8790217 0.12729138 5.8013756e-43
0.0362674 -0.147498 -1.48331 -0.27790213 -0.59827244 0.75155872 7.5527923e-36
0.0279512 -0.156936 -1.46 -0.65543467 0.75496274 0.020897167 7.4903671e-36
0.030393699 -0.138468 -1.47245 0.16994895 -0.72560126 0.66679847 0
0.0175108 -0.132273 -1.4625 0.74136716 -0.51578605 0.42934769 5.0446745e-44
0.022504199 -0.139943 -1.47247 0.11820028 -0.93578571 0.3321653 2.2000386e-43
0.023599301 -0.134776 -1.45998 -0.41454282 -0.026341086 -0.90964848 0
0.029027 -0.144935 -1.47998 0.53958696 -0.16120811 0.82635212 7.4903671e-36
0.027373601 -0.154938 -1.4699399 0.14337671 0.80794638 0.57154679 7.5410488e-36
0.032464098 -0.148683 -1.47997 0.41658774 0.58966351 0.69191879 7.5410488e-36
0.013762 -0.14985999 -1.45499 0.96093303 -0.052725263 -0.27171272 7.5548579e-36
0.026531599 -0.132494 -1.46714 -0.44117501 -0.89486915 -0.067629814 7.5410488e-36
0.01518 -0.14430401 -1.45999 0.74740356 -0.5135628 -0.42147505 4.8765187e-43
0.0300289 -0.155157 -1.47 -0.12510277 0.89031219 0.43782815 0
0.037526 -0.147478 -1.4823999 -0.58398783 -0.17216103 0.79329616 7.5840845e-36
0.0151209 -0.147135 -1.45749 0.86454546 -0.38241476 -0.3260676 7.5549267e-36
0.015852701 -0.137265 -1.4625 0.82576036 0.15491301 -0.54232997 2.2420775e-43
0.0174674 -0.14504001 -1.4670399 0.73719615 0.20723866 0.64311272 7.5550767e-36
0.021184901 -0.13748699 -1.4685 -0.091646187 -0.79675883 0.59730756 7.5410488e-36
0.0149154 -0.14341301 -1.465 0.60737211 0.37892312 0.69822371 7.5853365e-36
0.0324408 -0.13746201 -1.46998 -0.38489079 -0.86810154 -0.31346267 7.5410488e-36
0.0160232 -0.134868 -1.4625 0.92433733 -0.22163449 -0.31061006 7.5854627e-36
0.0221966 -0.156277 -1.465 0.49774924 0.60965616 0.61689955 2.9427268e-43
0.024604 -0.157584 -1.46 0.01442417 0.99172515 0.12756638 7.5855316e-36
0.0336022 -0.139863 -1.46998 -0.81388289 -0.32893494 -0.47895351 7.5597832e-36
0.037627898 -0.149894 -1.4774899 -0.87798399 0.47720739 -0.037646778 7.4167265e-36
0.020007201 -0.140067 -1.4581 0.44213769 -0.51336777 -0.7355051 7.5703214e-36
0.032456201 -0.145707 -1.48185 0.75901997 0.08871264 0.64499515 9.8090893e-44
0.034485899 -0.142442 -1.46999 -0.82724941 -0.34689775 -0.44195062 5.7172977e-43
0.0222208 -0.15727501 -1.455 0.17898886 0.75845635 -0.62666333 0
0.025665799 -0.15499499 -1.45499 -0.60182023 -0.025887011 -0.79821193 7.5469378e-36
0.0199579 -0.155645 -1.455 0.34175307 0.84385532 -0.41365817 7.5690701e-36
0.0141938 -0.147484 -1.46249 0.72771215 0.21048331 0.65278769 4.5121811e-43
0.040100701 -0.14738099 -1.475 -0.94513196 0.23074673 -0.23126064 0
0.017183499 -0.14241201 -1.4675 0.79467648 0.18154414 0.5792504 0
0.027345 -0.134994 -1.46832 -0.010160374 -0.69715667 0.71684682 6.7262326e-44
0.0273817 -0.13397101 -1.465 -0.94363385 -0.28499582 -0.16832277 6.0816353e-43
0.028323799 -0.156734 -1.465 -0.37138271 0.92787975 -0.033377934 4.0777785e-43
0.0127258 -0.152485 -1.45749 0.92548257 0.34967545 -0.14563346 0
0.0376583 -0.144982 -1.4795901 -0.16112091 -0.83059204 0.53306377 2.774571e-43
0.036960401 -0.149065 -1.48248 -0.51985526 0.45571026 0.72255015 2.4662853e-43
0.0369769 -0.14749099 -1.46747 -0.77237445 -0.30830419 -0.55532533 2.746545e-43
0.036796998 -0.15004399 -1.48154 -0.64130497 0.66366541 0.38506648 7.5467197e-36
0.022112999 -0.15857001 -1.45749 0.44155923 0.89722794 0.0027270885 7.562458e-36
0.0320279 -0.14497 -1.48136 0.075604871 -0.75958538 0.64599842 7.5718941e-36
0.020031299 -0.13753299 -1.4595799 0.48023325 -0.26031294 -0.83762354 3.4612072e-43
0.017593101 -0.144807 -1.455 0.80435902 -0.54009491 -0.24759662 7.5481201e-36
0.026514299 -0.132311 -1.465 -0.44117501 -0.89486915 -0.067629814 7.5718941e-36
0.0400897 -0.146851 -1.47996 -0.94476658 -0.10462411 0.31059605 7.5718941e-36
0.022478901 -0.14246599 -1.4739799 0.84791601 -0.071272008 0.52531779 7.5718941e-36
0.037620299 -0.150034 -1.47998 -0.69249445 0.71745348 0.075577259 7.4955788e-36
0.0210061 -0.13709401 -1.4675 -0.081453294 -0.57656872 0.81297839 2.746545e-43
0.0125918 -0.1499 -1.46 0.95401824 -0.057782754 -0.29412633 2.746545e-43
0.037492499 -0.149933 -1.4706399 -0.93941587 0.27636111 -0.20278648 2.704506e-43
0.0249839 -0.146551 -1.47495 0.75622684 0.35826907 0.54750735 2.774571e-43
0.037431199 -0.14745601 -1.48246 -0.58398783 -0.17216103 0.79329616 2.5924022e-43
0.037558898 -0.148516 -1.48247 -0.60424906 0.1552009 0.78153425 7.4472388e-36
0.026871299 -0.144981 -1.4774899 0.58981133 0.31762046 0.74245524 7.5725484e-36
0.0221077 -0.144914 -1.47247 0.68408746 0.33109599 0.64992291 5.479077e-43
0.0269424 -0.133265 -1.4675 -0.034339406 -0.54800922 0.83576715 0
0.029868299 -0.135849 -1.46746 -0.22789606 0.24056949 0.94349867 3.7835059e-44
0.0166058 -0.139897 -1.46747 0.80696148 0.071761832 0.58622813 2.746545e-43
0.034827702 -0.142866 -1.46998 -0.70352441 -0.53562874 -0.46707097 0
0.0350587 -0.144978 -1.47992 -0.12359194 -0.94120812 0.31440789 7.5856579e-36
0.017516 -0.137014 -1.4611599 0.52235883 -0.13709329 -0.84163332 7.5565231e-36
0.0273964 -0.13749599 -1.47136 0.2907587 -0.61383885 0.73393542 4.2879733e-43
0.0209758 -0.134975 -1.46 0.089876682 -0.23856913 -0.96695757 0
0.0225967 -0.139018 -1.46995 -0.586496 -0.76060534 0.27839169 4.3159993e-43
0.016671 -0.15707199 -1.46 0.7855984 0.61873651 0.00051675172 0
0.0308311 -0.155587 -1.465 -0.51539141 0.85071522 -0.10322449 1.5134023e-43
0.037528701 -0.147992 -1.48285 -0.60424906 0.1552009 0.78153425 2.7885839e-43
0.0147823 -0.15487801 -1.4575 0.8645196 0.47265881 0.17087866 2.7885839e-43
0.032261401 -0.13749699 -1.47214 0.14204825 -0.98266619 0.11911947 0
0.0344599 -0.149918 -1.47997 0.38004777 0.61386609 0.69190466 2.7885839e-43
0.034967899 -0.14065 -1.47247 -0.65927535 -0.65480143 -0.36958233 2.8025969e-43
0.0260085 -0.137418 -1.47 0.43314588 -0.68723363 0.58317631 0
0.0163093 -0.147093 -1.465 0.72159135 0.23704056 0.65047497 0
0.032510899 -0.14499 -1.4812599 0.030734312 -0.22571789 0.9737078 2.8025969e-43
0.034863401 -0.145252 -1.46745 -0.53744811 -0.56483763 -0.62618524 5.5771679e-43
0.039995201 -0.147487 -1.47497 -0.94513196 0.23074673 -0.23126064 0
0.0150039 -0.15237799 -1.4549299 0.6667009 0.51550615 -0.5382967 2.8166099e-43
0.024992 -0.13242801 -1.46665 0.28056085 -0.73965639 0.61171401 0
0.0149716 -0.147563 -1.46332 0.73589635 0.19987434 0.64692098 0
0.040056001 -0.144995 -1.47831 -0.67735821 -0.41514206 0.60732442 3.8535708e-43
0.02998 -0.141978 -1.4775 -0.36566621 -0.86158282 0.35208416 0
0.017516101 -0.14250501 -1.45902 0.7238276 -0.51147145 -0.46310964 3.8255448e-43
0.035728201 -0.15227699 -1.4674799 -0.81314641 0.53565758 -0.22773649 2.8166099e-43
0.037488598 -0.14377899 -1.47746 -0.21627758 -0.77162492 0.59817976 3.8115318e-43
0.0232538 -0.142481 -1.47497 0.69492197 0.31546637 0.64619225 2.8306229e-43
0.0219041 -0.132397 -1.465 0.090900756 -0.14280345 0.98556799 1.9618179e-43
0.0173914 -0.155269 -1.45499 0.37337494 0.71312648 -0.59333104 3.1529215e-43
0.032371901 -0.154375 -1.47247 0.069920741 0.95594931 0.28508249 0
0.0231688 -0.137163 -1.46744 0.27880481 -0.61081988 0.74105799 2.8446359e-43
0.032352101 -0.148608 -1.46245 -0.54789788 -0.20568928 -0.81086361 2.8446359e-43
0.032563999 -0.15428799 -1.47247 0.069920741 0.95594931 0.28508249 1.4012985e-43
0.018196501 -0.139836 -1.45999 0.65006286 -0.25254223 -0.71668732 3.1669345e-43
0.0299298 -0.144972 -1.48097 0.32930389 -0.85716009 0.3960247 0
0.0353751 -0.15181901 -1.47497 -0.4676578 0.87662023 0.1132834 2.8586489e-43
0.033679299 -0.153887 -1.46996 -0.4743368 0.87626165 -0.084676668 3.2229865e-43
0.017709401 -0.14358 -1.4575 0.79347503 -0.53196543 -0.29565212 2.8586489e-43
0.0152405 -0.137456 -1.465 0.95797098 -0.032120198 -0.2850613 3.9516617e-43
0.037495699 -0.14635301 -1.46996 -0.94651783 -0.1888877 -0.26158267 0
0.031698 -0.154669 -1.465 -0.81027985 0.55772007 -0.17998566 5.0586875e-43
0.032411698 -0.153326 -1.47497 -0.0061823362 0.92416924 0.38193318 6.7262326e-44
0.024453999 -0.144724 -1.47497 0.69399643 0.30453882 0.65239948 3.8339526e-42
0.0224734 -0.14273299 -1.47399 0.6978783 0.32471842 0.63837588 3.5733111e-43
0.0150006 -0.14011499 -1.46311 0.96923894 -0.067935586 -0.23656002 7.5397287e-36
0.034921501 -0.14834499 -1.465 -0.619811 -0.27313909 -0.7356829 4.55422e-43
0.034975 -0.14795201 -1.48248 0.35887471 0.51597852 0.77780145 0
0.0290404 -0.15605301 -1.46999 0.14337671 0.80794638 0.57154679 4.9605966e-43
0.029938901 -0.14944001 -1.46 -0.71888369 -0.35353455 -0.5985145 3.629363e-43
0.0262434 -0.15746801 -1.45749 -0.62584072 0.73054355 -0.27318409 2.8866748e-43
0.0128207 -0.147054 -1.46 0.4530457 -0.16801067 -0.87551242 2.8866748e-43
0.037472799 -0.142996 -1.47249 -0.76505935 -0.53913623 -0.35215953 2.8866748e-43
0.0349732 -0.150227 -1.47996 0.14975362 0.90311706 0.40243444 4.9185576e-43
0.0199797 -0.146827 -1.45249 -0.427562 -0.62965775 -0.64863074 0
0.029791599 -0.14084101 -1.47497 -0.13079946 -0.82002836 0.55717587 0
0.018865099 -0.139937 -1.46998 0.7278198 0.05729115 0.68337107 7.4207443e-36
0.027488001 -0.145642 -1.47746 0.64153188 0.38239861 0.66498733 1.182382e-36
0.0298342 -0.139999 -1.47422 -0.043328241 -0.75501502 0.65427434 0
0.0276847 -0.134977 -1.4683599 -0.46683446 -0.6158058 0.6347037 0
0.019974001 -0.145493 -1.46996 0.60192418 0.32996082 0.72719538 0
0.027474901 -0.15501601 -1.4699399 0.14337671 0.80794638 0.57154679 7.4210887e-36
0.017771499 -0.15245201 -1.4525 0.56876129 0.48404318 -0.66499084 1.1848616e-36
0.0175115 -0.132543 -1.46236 0.59143603 -0.61925286 -0.51645845 0
0.0377662 -0.149762 -1.48 -0.69249445 0.71745348 0.075577259 0
0.024964901 -0.137476 -1.46948 0.4033086 -0.76589465 0.50074697 0
0.016427699 -0.137344 -1.4674799 0.84088218 -0.021664137 0.54078442 7.4214331e-36
0.036427401 -0.15112901 -1.47998 0.052411359 0.41334897 0.9090631 0
0.029935 -0.13749801 -1.47154 0.1220193 -0.68838233 0.71501124 0
0.0248101 -0.13215999 -1.4625 -0.96183932 -0.15577924 0.22494002 0
0.019747499 -0.144877 -1.46995 0.80096489 0.246949 0.54540944 7.4217775e-36
0.0203263 -0.14004099 -1.45749 0.30296645 -0.47510308 -0.82612854 0
0.0168647 -0.154732 -1.45499 0.6271894 0.51943177 -0.58036548 0
0.034812599 -0.13995001 -1.47245 -0.078966521 -0.99676764 -0.014784211 0
0.029319501 -0.1348 -1.4675 -0.53663415 -0.84379512 0.0057990099 7.5922815e-36
0.0408356 -0.147384 -1.4774899 -0.91956252 0.38837063 0.059774566 1.1866064e-36
0.017271901 -0.15731899 -1.4575 0.08705765 0.99130887 -0.098628931 0
0.0309933 -0.152483 -1.45999 -0.7086128 0.067995168 -0.70231372 0
0.0376825 -0.149524 -1.47499 -0.83402294 0.55048996 -0.036966462 1.1854614e-36
0.0197974 -0.139985 -1.47086 0.1962145 -0.29146034 0.93624288 1.1833592e-36
0.0209723 -0.14248499 -1.47245 0.73086149 0.28966337 0.61801016 1.1869293e-36
0.0143619 -0.142469 -1.465 0.63836163 0.15119563 0.75474119 1.1857957e-36
0.0199949 -0.14256699 -1.47106 0.82768261 0.10629707 0.55103761 1.1869465e-36
0.034083899 -0.15226699 -1.465 -0.69097537 0.51361787 -0.50867444 1.1869752e-36
0.032457702 -0.13999 -1.47436 0.055836067 -0.33928296 0.93902576 1.1866538e-36
0.0200173 -0.136337 -1.45999 0.45892331 -0.25787666 -0.85022879 1.1774516e-36
0.036473501 -0.147842 -1.48331 -0.58398783 -0.17216103 0.79329616 1.1855346e-36
0.032477699 -0.15253299 -1.47588 0.38110441 0.71152127 0.59033626 1.180617e-36
0.016649799 -0.134729 -1.465 0.75587392 -0.42069241 0.50166976 1.1868518e-36
0.026856299 -0.139998 -1.47464 -0.033008046 -0.96362919 0.26519662 1.1855805e-36
0.0199259 -0.15490299 -1.45249 0.43613121 0.28705132 -0.85287225 1.1850352e-36
0.013708 -0.14488199 -1.4624799 0.99978822 -0.017251603 0.011219172 1.1860669e-36
0.029960001 -0.145201 -1.48102 0.21120538 0.63802314 0.74048549 1.1867012e-36
0.0176068 -0.141418 -1.45999 0.78760237 -0.39108986 -0.47616306 1.1865275e-36
0.0183431 -0.142433 -1.45749 0.82705361 -0.4527052 -0.33322713 1.1786971e-36
0.029888 -0.14607599 -1.47997 0.63046962 0.52191901 0.57455081 1.1847597e-36
0.033001501 -0.153438 -1.47496 -0.0061823362 0.92416924 0.38193318 1.1854944e-36
0.032381099 -0.15111899 -1.47747 0.33446273 0.69285864 0.6388126 1.1784934e-36
0.0269293 -0.13501599 -1.46439 -0.66043943 -0.33941415 -0.66978937 0
0.039903201 -0.14413799 -1.4774899 -0.34392411 -0.93766475 0.050010633 0
0.022219099 -0.139024 -1.46995 -0.586496 -0.76060534 0.27839169 0
0.0238616 -0.137448 -1.46 -0.82374859 -0.19372597 -0.53283066 0
0.019434201 -0.13248999 -1.46482 0.078405336 -0.50232041 0.86111951 0
0.029419901 -0.142498 -1.47927 0.11433753 -0.97031832 0.2130945 0
0.0155441 -0.141242 -1.4625 0.7114864 -0.53474665 -0.4558872 0
0.024888501 -0.157021 -1.455 -0.36984146 0.66244811 -0.65144438 0
0.036561199 -0.14480799 -1.46999 -0.66705543 -0.53214943 -0.52139622 0
0.0295038 -0.154993 -1.45999 -0.74973363 0.58076781 -0.31718805 0
0.0196949 -0.157226 -1.45749 0.090881683 0.21113922 -0.97322184 0
0.034365699 -0.147441 -1.4824899 0.35887471 0.51597852 0.77780145 0
0.021636499 -0.15534601 -1.45249 0.79199773 -0.29499707 -0.53452438 0
0.019093901 -0.142444 -1.46995 0.7876389 0.15104464 0.59733617 0
0.026267599 -0.15722699 -1.465 -0.20061944 0.97843724 -0.049115632 0
0.0149836 -0.15412 -1.45999 0.74298829 0.55333686 0.37654579 0
0.027463101 -0.143281 -1.47892 0.45800295 0.21529329 0.862486 0
0.037131999 -0.141813 -1.47499 -0.67884749 -0.6907258 -0.24912624 0
0.024994001 -0.133195 -1.4625 -0.85703605 -0.13625957 -0.49691305 0
0.034931101 -0.15188999 -1.4774801 0.13699879 0.97980726 0.14563344 0
0.0149795 -0.145119 -1.46404 0.76359278 0.23724829 0.60053253 0
0.035123698 -0.151776 -1.4774801 0.13699879 0.97980726 0.14563344 0
0.032269299 -0.141616 -1.47497 -0.10227577 -0.74555939 0.65854454 0
0.032270301 -0.14578199 -1.46495 -0.52944052 -0.58434021 -0.61501157 0
0.020373801 -0.13998701 -1.45749 0.30296645 -0.47510308 -0.82612854 0
0.032111298 -0.144079 -1.47997 0.075604871 -0.75958538 0.64599842 0
