# .PCD v0.7 - Point Cloud Data file format
VERSION 0.7
FIELDS x y z normal_x normal_y normal_z curvature
SIZE 4 4 4 4 4 4 4
TYPE F F F F F F F
COUNT 1 1 1 1 1 1 1
WIDTH 285
HEIGHT 1
VIEWPOINT 0 0 0 1 0 0 0
POINTS 285
DATA ascii
44.380901 -27.011299 420.51801 0.53468215 -0.81773686 0.21312295 0.021167368
42.299702 -28.6416 418.61301 0.44826177 -0.84811276 0.28242904 0.019616636
44.414001 -27.401899 418.64801 0.50730753 -0.8387996 0.19762163 0.0056190956
13.4994 -19.354099 426.32999 -0.68126732 -0.53696811 0.49753398 0.062952094
52.076302 -22.9069 410.84698 0.61726469 -0.1259609 0.7766068 0.028001819
53.9464 -17.360001 412.12299 0.88648868 -0.46244049 0.016929632 0.0070342771
55.944599 -13.521 413.76001 0.94768554 -0.31824034 0.024802746 0.044853758
7.4620399 -13.5619 420.57101 -0.8185969 -0.27473703 0.50439936 0.027578073
38.686001 -28.888599 422.453 0.22314759 -0.9368096 0.26943079 0.037854463
40.665798 -29.496799 418.61801 0.41957408 -0.8175922 0.39433554 0.026152259
27.0737 -28.9205 423.746 -0.17092837 -0.89818215 0.40503371 0.006039069
42.6684 -29.1744 416.707 0.59672022 -0.66126764 0.45458782 0.018482326
49.9095 -22.914301 416.668 0.75407773 -0.65541178 0.042451739 0.0043422938
9.6663704 -17.1516 422.38901 -0.77651304 -0.45126179 0.43976167 0.0090338727
46.113499 -28.926901 414.25699 0.54645532 -0.26444098 0.79464304 0.015121069
43.070202 -28.2101 418.62 0.49661255 -0.83431 0.23938011 0.0098091913
42.405399 -26.9928 423.60199 0.39772719 -0.56534678 0.72263134 0.055854183
13.5162 -21.124201 424.17099 -0.67430907 -0.5952512 0.43701634 0.005680263
34.6777 -32.766499 418.54001 0.27945864 -0.42418307 0.86137772 0.011850214
52.310501 -19.842899 414.76099 0.83855087 -0.54398578 0.030197905 0.0065883319
11.5534 -7.7179098 424.21799 0.43767685 0.57292372 0.69296277 0.087733254
36.6539 -29.319599 422.44901 0.1816968 -0.93188721 0.31396261 0.027858345
34.828701 -29.575399 422.513 0.11421902 -0.93447047 0.3372224 0.0089614904
42.3652 -28.8936 417.651 0.55242038 -0.6725353 0.49247137 0.023514885
13.4567 -13.5152 426.064 0.30141035 0.48344871 0.82184494 0.066952825
55.015301 -15.2823 410.87201 0.90303743 -0.42885852 0.024572024 0.013260701
54.4464 -16.509501 410.88199 0.91135633 -0.39666995 0.10992064 0.022096466
53.939201 -17.3298 412.83899 0.88154912 -0.47179446 0.016766807 0.0062282216
54.164398 -16.921 412.802 0.88184518 -0.47150025 0.0060546626 0.0068044872
7.7582598 -15.2885 420.22198 -0.61369413 -0.25896886 0.74586499 0.025246112
56.037201 -12.1947 408.983 0.96990323 -0.23131348 -0.076038025 0.02346172
55.795399 -13.0678 408.95001 0.97899795 -0.20377657 0.0061771097 0.038038041
48.499599 -24.417999 416.66501 0.71611613 -0.68735236 0.12134407 0.0064151147
36.534901 -28.899401 423.88 0.16400909 -0.94519544 0.28232354 0.058651023
23.2222 -27.001101 425.82401 -0.32145044 -0.86226994 0.39135677 0.032197461
23.887699 -27.053499 426.315 -0.30211461 -0.87179214 0.38562319 0.068072714
49.934502 -23.0434 414.728 0.77458447 -0.61971021 0.12640461 0.012350993
54.744099 -16.307501 408.965 0.88129336 -0.25893119 0.39531848 0.034961347
40.656898 -27.3449 424.40799 0.31192914 -0.29756296 0.9023062 0.059380397
11.3723 -15.5527 426.32401 -0.5411526 -0.019382793 0.84070098 0.069410205
11.6171 -17.310101 425.879 -0.71040529 -0.44179904 0.5478484 0.048577353
48.5592 -23.4888 420.552 0.64136696 -0.6292603 0.43895319 0.07577166
49.067001 -22.775801 420.526 0.74972039 -0.30770937 0.58586198 0.0863958
50.423401 -22.2596 418.599 0.74516714 -0.64893091 0.1536703 0.033352979
55.792999 -13.4382 410.93201 0.93932897 -0.33729783 -0.062379781 0.010252449
50.2672 -22.4949 416.69601 0.76140332 -0.64711505 0.038821544 0.011261296
51.680901 -21.007 412.81699 0.85917205 -0.45988628 0.22433895 0.020948252
51.564301 -20.927999 414.73199 0.80411953 -0.5926612 0.046308715 0.011014581
50.4356 -22.447599 414.733 0.81170088 -0.57652909 0.093572758 0.012267578
57.010201 -8.6187096 410.87201 0.99076134 -0.074779958 -0.11313695 0.036171556
25.2239 -28.2523 424.375 -0.23794439 -0.89113736 0.38633752 0.0068264785
25.306101 -28.9303 422.88699 -0.21241862 -0.87966049 0.42552996 0.0089975037
24.948099 -29.0571 422.46399 -0.23245847 -0.80348414 0.54806596 0.021820361
52.151199 -21.982201 410.87 0.94204867 -0.16164231 0.29396603 0.032243803
40.523499 -28.3874 422.448 0.34159404 -0.88648629 0.3121787 0.037300751
42.764099 -27.472099 422.479 0.42997044 -0.84362954 0.32158148 0.046198502
36.734402 -31.139999 418.64099 0.33860099 -0.64199263 0.6878916 0.015045428
47.070099 -25.462999 418.625 0.65127575 -0.74846578 0.12505555 0.0056922124
45.646301 -26.562901 418.586 0.58568376 -0.79213387 0.17175116 0.0038759229
45.8825 -26.8353 416.664 0.60418284 -0.75002068 0.26913205 0.021077773
48.348301 -24.974701 414.75201 0.75665855 -0.57610905 0.30913782 0.03014501
28.791401 -28.943501 424.379 -0.099399753 -0.93785018 0.3325007 0.036686592
15.4413 -24.951401 421.60999 -0.38674399 -0.40388802 0.82903773 0.028152833
19.445 -25.0749 425.90701 -0.49573553 -0.76347941 0.41393903 0.02689762
9.6629601 -20.3587 420.42001 -0.48573172 -0.21464691 0.84734374 0.039728887
40.702702 -28.7946 420.526 0.36195427 -0.88660342 0.28796437 0.0055840272
46.232201 -26.985001 415.246 0.63878483 -0.57586825 0.51022512 0.028466169
27.349501 -29.518999 422.491 -0.17061609 -0.86591023 0.4702017 0.017689887
17.4499 -28.879299 420.80399 -0.12343576 -0.23023658 0.96527445 0.021788768
55.936001 -13.7705 406.76199 0.92898744 0.036775205 0.36827973 0.048177142
56.652401 -10.5837 410.87799 0.96323204 -0.2500717 -0.098225176 0.0069500571
25.1567 -29.1026 422.48001 -0.23245847 -0.80348414 0.54806596 0.023265354
8.3928699 -14.0763 422.444 -0.87650108 -0.30491841 0.37251925 0.0068378979
34.7351 -32.469601 418.621 0.27045232 -0.43854681 0.85704857 0.015830118
9.8125601 -15.5875 424.39401 -0.76790595 -0.4127799 0.48982975 0.031455006
25.0315 -33.060299 419.99799 0.062976375 -0.27608773 0.95906705 0.017640552
9.3349895 -16.4191 422.46399 -0.83738476 -0.37633476 0.39643279 0.0087940758
9.6504698 -17.058701 422.453 -0.79118496 -0.43239984 0.43250057 0.007602612
7.1975899 -8.5947304 422.44601 -0.8827427 -0.033183273 0.46868351 0.060692891
40.4748 -28.857599 420.61499 0.34987178 -0.89064336 0.29042071 0.0062753493
38.827 -30.2213 418.60101 0.29695892 -0.83223069 0.468196 0.025908632
7.7272401 -13.2633 421.44 -0.90753657 -0.24249081 0.34289292 0.0089465929
35.2458 -28.918501 424.444 0.089537777 -0.87463945 0.47643349 0.055011388
15.4098 -13.5415 425.20001 0.40864018 0.56602269 0.71598291 0.058262352
13.6855 -10.8933 424.379 0.67041737 0.52219123 0.52712131 0.04756422
9.8112001 -7.2451501 424.38199 0.052900542 0.65598285 0.75291967 0.07697726
12.8048 -9.73703 424.39801 0.66106784 0.4590722 0.59349984 0.041745264
13.4118 -9.7996902 423.452 0.66182423 0.49709091 0.56115001 0.019950638
12.9498 -8.1383305 422.465 0.70364165 0.50382382 0.50104886 0.031124867
37.7328 -30.649 418.58899 0.30983558 -0.68102384 0.66348207 0.021158479
13.5252 -6.4969301 420.54199 0.84221905 0.31733185 0.43585271 0.01097518
11.7032 -8.1762695 424.384 0.50068504 0.55960608 0.66042072 0.081355654
15.509 -23.1269 424.11899 -0.59218091 -0.67571867 0.43900579 0.0097759906
15.712 -23.1355 424.397 -0.59218091 -0.67571867 0.43900579 0.0032474166
50.1474 -23.1436 413.151 0.85439628 -0.4612194 0.23934001 0.026427865
12.151 -19.367901 424.397 -0.70039541 -0.55863273 0.44426993 0.0028323736
18.935699 -25.501101 424.37399 -0.5144487 -0.74566621 0.42346716 0.0041276477
25.1548 -27.4839 426.30899 -0.28596646 -0.87262744 0.39590979 0.060755607
25.1845 -26.901501 427.17599 -0.28596646 -0.87262744 0.39590979 0.06677749
23.413 -26.863701 426.35001 -0.32145044 -0.86226994 0.39135677 0.066920049
36.924702 -29.974501 420.52701 0.22454394 -0.88799649 0.40130073 0.017059993
52.742001 -19.190001 414.73199 0.83881348 -0.54400164 0.021311447 0.0093968073
10.1552 -21.651199 420.51401 -0.33903706 -0.10743414 0.93461853 0.026327459
9.6656199 -21.240801 420.384 -0.36616629 -0.10199534 0.92494279 0.028987478
50.012699 -22.732401 418.58499 0.70667928 -0.69044876 0.15454729 0.053390115
21.2789 -26.9454 424.04199 -0.3774659 -0.82641554 0.41780001 0.0077933925
21.489201 -26.832899 424.48401 -0.4021672 -0.82745749 0.39188728 0.0070988275
23.099899 -32.413601 420.24701 0.09216696 -0.16991699 0.98113889 0.020067226
11.383 -13.6819 426.30899 -0.40920049 0.064225525 0.91018134 0.077053547
19.312901 -25.707001 424.39999 -0.51930737 -0.74674177 0.41556779 0.0044295276
22.114901 -27.166401 424.38901 -0.36089399 -0.84910893 0.38570654 0.020967709
44.464401 -27.916901 416.69501 0.55552155 -0.74865609 0.36181465 0.033668336
19.489201 -27.0133 422.45901 -0.37461406 -0.70784062 0.59885383 0.024080947
19.3011 -28.9202 420.99701 -0.16141599 -0.40564501 0.89966494 0.025183368
23.166401 -28.902399 421.89001 -0.25306246 -0.58061689 0.77384973 0.019142926
21.679001 -27.928301 422.45001 -0.32340282 -0.81442392 0.48179278 0.02848674
17.3678 -24.464001 424.37601 -0.53104824 -0.72769582 0.43410435 0.0068815788
17.379999 -24.9466 423.556 -0.51802224 -0.71293342 0.47262979 0.015479654
15.7146 -23.149099 424.37799 -0.59218091 -0.67571867 0.43900579 0.0031942972
21.234501 -28.826099 421.422 -0.17041539 -0.46635965 0.86802495 0.024510439
21.354601 -30.6182 420.67001 -0.0014708376 -0.34555873 0.93839598 0.018908639
53.711201 -17.739201 412.79999 0.86622429 -0.49866128 0.031502303 0.0062039709
53.080002 -19.0875 410.89999 0.79886496 -0.50112367 0.33270082 0.029270964
13.5895 -14.059 426.306 0.1256647 0.31014651 0.94234681 0.068248212
38.904499 -28.301001 424.41299 0.2316044 -0.60410893 0.76250362 0.065141849
36.7374 -28.7307 424.37799 0.16400909 -0.94519544 0.28232354 0.069049314
55.4006 -14.5032 408.953 0.96557814 -0.21747102 0.14270686 0.033014178
11.6988 -13.5794 426.31 -0.27863678 0.31946126 0.90570748 0.07705193
14.6322 -23.4361 422.444 -0.57770872 -0.58642477 0.56776637 0.027229248
13.5863 -24.995199 420.94501 -0.31804404 -0.30194014 0.89871025 0.033894774
50.3153 -23.041599 412.80301 0.85439628 -0.4612194 0.23934001 0.024528304
7.7367101 -14.6293 420.51801 -0.74464619 -0.26867527 0.61099565 0.029870454
13.988 -21.4979 424.375 -0.63105494 -0.64226925 0.43504009 0.0018796077
13.5215 -18.911699 426.52499 -0.67511541 -0.5240038 0.51926792 0.069813028
14.1418 -22.969299 422.46301 -0.61794579 -0.64349502 0.45172685 0.025181141
13.5316 -23.0483 421.71899 -0.45324469 -0.3737376 0.80925238 0.030662838
52.0839 -20.3906 412.81799 0.89560694 -0.42512998 0.13096841 0.020947708
11.6736 -21.1105 421.53699 -0.60026914 -0.3676818 0.71027255 0.024502821
12.7675 -21.5471 422.453 -0.63781607 -0.53909636 0.5500598 0.017929366
7.6438799 -11.5791 422.49399 -0.90932691 -0.20405467 0.36261028 0.0080696922
56.177399 -12.3277 410.87799 0.95425791 -0.28578565 -0.087854348 0.0050924243
13.732 -21.1964 424.40799 -0.65816444 -0.61086005 0.44007906 0.003328108
13.2597 -6.12005 420.522 0.84299886 0.31074607 0.4390783 0.011164505
12.4458 -17.692499 426.319 -0.70758289 -0.43235105 0.5589267 0.043590043
19.3008 -26.918501 422.44601 -0.37461406 -0.70784062 0.59885383 0.025993939
15.6737 -24.361799 422.452 -0.56932157 -0.67738557 0.46585593 0.023007281
11.626 -16.3396 426.30301 -0.71035773 -0.19180652 0.67720175 0.075334646
40.403801 -32.576401 416.35599 0.41236079 -0.32647175 0.85051441 0.014040549
7.7528501 -16.7911 419.82199 -0.48580202 -0.10515919 0.86771995 0.030925887
16.7535 -25.2258 422.46799 -0.50902086 -0.56954813 0.64537793 0.026901565
17.8475 -25.997101 422.448 -0.45721853 -0.72093242 0.52077603 0.022270964
17.4648 -26.9137 421.435 -0.27964076 -0.38673916 0.87876838 0.028208518
43.272598 -28.775299 416.66299 0.59672022 -0.66126764 0.45458782 0.029612234
55.977501 -11.7159 407.08899 0.9827559 -0.16002563 0.092642367 0.030587526
56.0574 -10.869 407.04901 0.99517792 -0.054937679 0.081257321 0.033185419
56.298401 -10.8443 408.94699 0.98432934 -0.14462881 -0.10088722 0.01390722
25.4055 -31.201401 420.51801 0.011082669 -0.27925241 0.96015376 0.024010448
24.575199 -32.7341 420.08401 0.041794777 -0.25457135 0.9661504 0.016265808
23.4524 -31.2269 420.52899 0.0065111262 -0.22239916 0.97493398 0.025369858
46.3564 -25.693001 420.56 0.61314988 -0.72182286 0.32096562 0.05617673
52.837502 -19.053301 416.67899 0.83702445 -0.45547855 0.30319864 0.04133014
9.7339497 -15.414 424.39999 -0.76790595 -0.4127799 0.48982975 0.031422965
34.555401 -32.651501 418.61401 0.27255455 -0.43204212 0.85968226 0.0117466
44.683498 -26.1196 422.478 0.61615223 -0.68716502 0.38491648 0.07148128
55.911499 -12.3004 407.039 0.98597234 -0.11311027 0.12273792 0.039758228
26.9205 -33.586201 419.67999 0.060381897 -0.20935617 0.97597337 0.011119387
40.927299 -31.1831 416.659 0.43366718 -0.31670496 0.84358209 0.021659629
31.0534 -30.7092 420.54999 0.10587262 -0.70852882 0.69769466 0.028449191
27.129601 -31.057501 420.51401 0.03332166 -0.52603459 0.84981012 0.022825964
21.882099 -26.2202 426.30499 -0.39660138 -0.82697105 0.39853007 0.073428482
13.4167 -7.7185898 421.69901 0.76757312 0.39023602 0.50847548 0.016008839
46.287201 -29.9958 413.86899 0.46288189 -0.16742299 0.87046534 0.021619475
29.358101 -28.9977 424.39801 -0.10062512 -0.94027644 0.32519963 0.035686504
54.383999 -15.7105 416.65601 0.57397068 -0.21002932 0.79148299 0.055450547
38.7994 -29.4659 420.513 0.30813912 -0.89428306 0.32451203 0.013961727
9.1098003 -8.0412102 424.37201 -0.29526716 0.17580259 0.93910104 0.093957372
7.7901702 -17.543501 419.823 -0.37947202 -0.059707973 0.92327458 0.028080955
54.333698 -19.5212 408.95901 0.7318598 0.017427897 0.68123233 0.044319231
14.6391 -12.0287 424.414 0.63120806 0.59743017 0.4946247 0.031359915
13.8065 -9.1138897 422.448 0.82514822 0.42012045 0.37766284 0.011663892
9.7167997 -13.4839 425.51901 -0.73223549 -0.16448256 0.66089082 0.064111799
23.337601 -27.6241 424.40701 -0.33427775 -0.86629605 0.37120011 0.0053783269
50.187801 -23.2055 412.884 0.85439628 -0.4612194 0.23934001 0.021650007
23.5802 -28.654699 422.44901 -0.24084768 -0.85443842 0.46035567 0.02273046
9.2904701 -7.6198502 424.383 -0.15222439 0.19589534 0.96873772 0.084491931
13.351 -11.594 425.12601 0.47899961 0.47693714 0.73694664 0.079303622
55.937698 -12.7395 406.63599 0.93167669 0.05445341 0.35918427 0.043224666
51.936001 -23.572599 410.89401 0.65020764 -0.12586713 0.74925798 0.025558149
29.046801 -30.8293 420.55701 0.034113951 -0.68465018 0.72807306 0.028728822
32.476101 -30.8605 420.116 0.1429432 -0.7160663 0.68323952 0.033188079
9.1679201 -14.064 424.37399 -0.79778898 -0.27110758 0.53854752 0.043529239
49.659199 -24.304501 412.81799 0.80286998 -0.5050326 0.31676784 0.031950448
14.3057 -10.0838 422.47198 0.82441252 0.45450634 0.33729509 0.012105082
30.7106 -30.8598 420.405 0.17882012 -0.71581501 0.67500538 0.02694322
35.086102 -30.2987 420.54199 0.11541081 -0.90450865 0.41054171 0.025863165
54.365898 -16.575899 414.76199 0.87763739 -0.47629449 0.053815771 0.033361752
49.396 -25.105801 412.798 0.77440786 -0.19665833 0.60134679 0.023509758
36.598202 -32.719299 417.957 0.28562298 -0.40491092 0.86860043 0.017718246
28.970501 -28.3589 426.32101 -0.079087429 -0.93214178 0.35335091 0.060425114
28.2173 -28.863501 424.38 -0.12470955 -0.93277693 0.3381933 0.038646419
45.3946 -29.0415 414.742 0.48269895 -0.28650516 0.82759684 0.0215673
51.275799 -21.1339 418.59698 0.77153623 -0.43157071 0.46741688 0.052888967
31.1481 -28.921301 425.06299 0.0082260091 -0.92135417 0.38863707 0.052943904
11.4564 -7.8796501 424.375 0.2615796 0.54817241 0.79440743 0.094199464
40.487701 -32.8022 416.29001 0.38050091 -0.19130535 0.90477693 0.010297895
23.1129 -32.895599 420.272 0.09216696 -0.16991699 0.98113889 0.0077922051
29.3237 -28.9079 424.66299 -0.10062512 -0.94027644 0.32519963 0.04655727
44.354 -31.0201 414.746 0.47013089 -0.14954697 0.86983484 0.011403632
51.624802 -20.7644 416.66299 0.80467337 -0.5933848 0.019881144 0.038627941
52.550098 -19.4758 416.66599 0.79211676 -0.5249514 0.31141138 0.042549409
42.380501 -30.861401 415.98801 0.45433384 -0.40158111 0.79518133 0.019257868
44.9426 -26.657101 420.52499 0.53468215 -0.81773686 0.21312295 0.033915654
23.214899 -30.7768 420.65799 0.0054180739 -0.37306774 0.92778832 0.019233298
25.4356 -30.8423 420.651 0.011082669 -0.27925241 0.96015376 0.021545419
7.7527599 -7.89218 423.595 -0.60925734 0.12205366 0.78352308 0.088537239
43.890202 -26.786699 422.50299 0.55052441 -0.77503479 0.31023216 0.063101076
44.267399 -27.0049 420.92899 0.52638489 -0.82002908 0.22465803 0.034120403
41.6264 -30.124399 416.67499 0.51725793 -0.49523985 0.69798404 0.025536276
48.9566 -23.783501 418.586 0.69051629 -0.7045548 0.16367587 0.037872329
46.418098 -23.201799 422.444 0.46245608 0.13472514 0.87634671 0.074591666
34.6614 -28.930099 424.58499 0.076201983 -0.87269586 0.4822813 0.040866718
46.239201 -24.0769 422.444 0.455751 -0.22919838 0.86009252 0.067861542
46.254799 -25.0522 421.73001 0.60654986 -0.5886234 0.53443408 0.089184023
50.092499 -24.700199 412.26099 0.66100574 -0.22815797 0.71485335 0.022577289
20.129801 -25.307199 426.31601 -0.4735274 -0.79346329 0.38234514 0.069673643
7.7354298 -19.433399 419.82501 -0.28528985 -0.0053511001 0.95842636 0.030228056
47.606201 -25.013 418.60101 0.66315836 -0.73498392 0.14149073 0.0058083069
54.973 -15.4303 412.819 0.88719505 -0.46136877 -0.0048759393 0.0069154794
55.937801 -13.4645 413.05801 0.94768554 -0.31824034 0.024802746 0.02625123
44.305099 -28.833 415.595 0.58345485 -0.39546731 0.70935607 0.029024431
11.1713 -17.9764 424.375 -0.76334119 -0.45554584 0.45802647 0.0053185988
43.3424 -27.5716 420.57001 0.48982254 -0.84852451 0.20019992 0.0053440123
56.0308 -12.0775 414.76099 0.90126204 -0.19044957 0.38917312 0.054115377
51.986801 -21.1882 411.26401 0.9153083 -0.22847845 0.33167496 0.030917339
52.064301 -22.688601 410.87299 0.73107117 -0.20270424 0.65149516 0.025849599
48.086601 -23.0769 421.17801 0.66431183 -0.53608221 0.52087015 0.081817999
19.671 -25.028099 426.306 -0.49573553 -0.76347941 0.41393903 0.045130648
11.576 -18.580601 424.37201 -0.74629778 -0.496151 0.44370463 0.0016642476
30.8752 -29.107 424.39999 -0.039077792 -0.93295556 0.35786432 0.047514874
32.892101 -29.0776 424.44699 0.047216441 -0.92525154 0.37640429 0.045270123
38.544998 -28.9184 422.465 0.22314759 -0.9368096 0.26943079 0.037936483
11.6173 -19.165701 423.66901 -0.73086238 -0.53642052 0.42201087 0.0055655027
33.2444 -29.7589 422.45401 0.066567793 -0.93244588 0.35512456 0.0097062066
38.543201 -30.851999 418.03 0.30464935 -0.53685117 0.78675258 0.018716739
54.0107 -19.5201 409.26901 0.76114994 -0.071481273 0.64462483 0.035094224
7.7599702 -12.0732 422.457 -0.89149183 -0.23567341 0.3869113 0.0079786442
52.730999 -19.7209 410.87 0.84455991 -0.33238044 0.41981167 0.034722168
33.289398 -30.557501 420.52499 0.076485492 -0.806458 0.58632374 0.03238824
53.902802 -17.3528 414.73001 0.87964004 -0.47245148 0.054981444 0.022430381
7.7255301 -11.5437 422.74399 -0.89371622 -0.22730067 0.38678902 0.01764125
47.614799 -24.6332 420.51401 0.65826017 -0.66169339 0.35896438 0.05639584
10.1031 -17.8255 422.44299 -0.77314109 -0.44462323 0.45228648 0.01062613
47.984001 -24.9333 416.685 0.69281495 -0.71133792 0.11834644 0.011209911
46.2971 -26.491699 416.673 0.64215368 -0.72188258 0.25792283 0.018538345
48.138802 -25.0688 415.22501 0.66976625 -0.65670043 0.34663782 0.025455667
44.359699 -30.677099 414.82599 0.48877022 -0.174106 0.85486299 0.01651358
25.1362 -32.724602 420.061 0.062976375 -0.27608773 0.95906705 0.015293346
46.627602 -26.8895 414.72699 0.6937167 -0.53573114 0.48140347 0.030624807
8.0707798 -15.6572 420.52399 -0.8391934 -0.24008098 0.48797083 0.027449384
11.0941 -19.377501 422.466 -0.74256521 -0.50566512 0.43920347 0.013079447
11.5851 -20.0821 422.483 -0.70505333 -0.52820826 0.47317639 0.015179839
9.68612 -19.6833 420.51901 -0.57871753 -0.24191673 0.77882111 0.034375172
9.0072403 -13.5003 424.37601 -0.87069434 -0.2744793 0.40810847 0.044876769
36.649601 -30.8419 418.936 0.33899868 -0.65381157 0.67646903 0.022710577
34.6315 -30.8104 419.73099 0.26095942 -0.57006109 0.7790575 0.025690764
7.3996601 -10.5682 422.46399 -0.92337608 -0.13144788 0.36069113 0.0092034992
9.6676397 -19.0112 420.77701 -0.65542245 -0.32028848 0.68398589 0.033561282
8.7656202 -17.4629 420.51901 -0.76728272 -0.20728864 0.60688436 0.025510486
55.8391 -13.6878 407.01801 0.92898744 0.036775205 0.36827973 0.036558434
55.298801 -14.915 414.73599 0.90242082 -0.30126813 0.30801654 0.051451903
30.975599 -28.3016 426.34698 0.0082260091 -0.92135417 0.38863707 0.069786869
54.010601 -18.996099 409.28201 0.7598936 -0.074795417 0.64573014 0.029134177
40.444599 -30.8218 417.04001 0.46161577 -0.47456637 0.74946493 0.035879541
39.931999 -32.417198 416.66699 0.35228691 -0.19448623 0.91546112 0.014941976
13.7171 -19.6943 426.31601 -0.68126732 -0.53696811 0.49753398 0.052124728
55.885399 -12.8192 414.75101 0.89990014 -0.20129356 0.38685992 0.052528664
11.5444 -9.64886 425.02802 0.31323871 0.36183727 0.87804061 0.079261474
27.267 -28.016701 426.36499 -0.20222059 -0.90844071 0.36584473 0.063331835
53.870899 -17.250601 416.68799 0.82423913 -0.33782899 0.45442423 0.051056586
45.8494 -28.186501 414.72699 0.63682193 -0.44426185 0.63015014 0.029980853
27.3894 -30.8507 420.60699 0.03332166 -0.52603459 0.84981012 0.021579476
54.380402 -17.9016 408.961 0.79032069 -0.22511315 0.56983966 0.043943651
56.083599 -13.0934 412.80499 0.94768554 -0.31824034 0.024802746 0.025639089
42.364601 -32.081402 415.58099 0.4123975 -0.17908841 0.89322764 0.011946509
38.475101 -32.765999 417.20001 0.37670562 -0.36347276 0.85204482 0.010323617
