# .PCD v0.7 - Point Cloud Data file format
VERSION 0.7
FIELDS x y z normal_x normal_y normal_z curvature
SIZE 4 4 4 4 4 4 4
TYPE F F F F F F F
COUNT 1 1 1 1 1 1 1
WIDTH 19
HEIGHT 1
VIEWPOINT 0 0 0 1 0 0 0
POINTS 19
DATA ascii
21.146999 -19.3078 426.056 0.53378153 0.58662188 0.60905832 0.059648991
17.2663 -17.386499 426.69101 0.38380498 0.44858202 0.80713564 0.071967207
18.5172 -17.782499 426.323 0.64527583 0.52865702 0.55148965 0.09133736
18.061701 -17.019699 426.29999 0.62871838 0.59875768 0.4961879 0.081804506
15.8032 -15.7174 426.30499 0.52293885 0.58976662 0.61539441 0.064211525
17.181 -15.4419 425.84201 0.52293885 0.58976662 0.61539441 0.086276084
17.373501 -15.228 424.45901 0.73031688 0.59154379 0.3416332 0.015405321
19.225901 -17.3622 425.427 0.58595586 0.6079005 0.53582901 0.01322621
19.3703 -17.2115 424.375 0.69870156 0.64309335 0.31344402 0.0108618
21.7208 -19.090599 424.41101 0.47444156 0.83633131 0.2746909 0.013148922
19.186399 -19.336 426.80099 0.37520394 0.46960485 0.79918289 0.075077303
21.092501 -21.245399 427.03101 0.28682131 0.42063561 0.86069691 0.060600009
23.2269 -20.0049 424.37601 0.43173704 0.82681376 0.36053041 0.01910192
15.3007 -15.445 426.422 0.41778833 0.56838953 0.70879209 0.061736107
19.509899 -18.5909 426.32401 0.53712106 0.6677354 0.51539344 0.086759448
20.818501 -19.5166 426.314 0.54233962 0.57583648 0.61178434 0.101201
22.5804 -19.6404 424.38 0.54560739 0.78445017 0.29487377 0.019850271
21.463499 -20.0107 426.34299 0.49968362 0.66970009 0.54937971 0.051081419
19.6642 -17.4858 424.383 0.59287727 0.74973392 0.29393134 0.0098851258
