# .PCD v0.7 - Point Cloud Data file format
VERSION 0.7
FIELDS x y z normal_x normal_y normal_z curvature
SIZE 4 4 4 4 4 4 4
TYPE F F F F F F F
COUNT 1 1 1 1 1 1 1
WIDTH 49
HEIGHT 1
VIEWPOINT 0 0 0 1 0 0 0
POINTS 49
DATA ascii
7.7757902 -2.1063001 422.24899 -0.60460305 0.31705695 0.73070514 0.10362707
11.7224 -3.53391 422.44699 0.70716071 0.25308836 0.66020447 0.065372236
11.8308 -4.7239699 422.44501 0.79267198 0.13219035 0.59514439 0.059848655
8.0954704 -1.84161 422.45499 -0.60460305 0.31705695 0.73070514 0.098741889
5.7918 -6.2007198 418.10599 -0.88244528 0.1735744 0.43722102 0.031038573
5.7979798 -2.07108 416.496 -0.91182894 0.14878067 0.3826648 0.035550043
7.1711798 -5.9182401 422.44501 -0.89574832 0.075127184 0.43816766 0.082500383
6.1214199 -0.81049198 416.67001 -0.96369863 0.18625052 0.19130005 0.016211832
11.4903 -3.8649299 422.69601 0.67730629 0.19480556 0.7094413 0.069050983
11.5644 -6.0417299 422.53699 0.83947414 0.20854384 0.50178939 0.06233874
11.6391 -6.4610901 422.45499 0.76673502 0.35755363 0.53317237 0.077837273
5.9361901 -7.00807 418.59601 -0.88806814 0.096138246 0.44954693 0.024057457
5.6991901 -2.88328 416.694 -0.85522622 0.22507468 0.46682924 0.032528605
5.8621998 -1.99998 416.672 -0.91182894 0.14878067 0.3826648 0.025446005
3.87976 -7.81493 416.586 -0.46221182 0.31461275 0.82908326 0.011009519
3.9505501 -6.1212001 416.06699 -0.40640694 0.28927848 0.86668992 0.022208864
5.9590302 -10.5603 418.595 -0.90386033 -0.0062029436 0.42778274 0.03240205
5.79705 -10.2004 418.392 -0.77132416 -0.0046423785 0.63642555 0.039458953
5.87959 -12.0378 418.59201 -0.69280171 0.049195822 0.71944809 0.045446642
5.7952099 -11.8705 418.51599 -0.69280171 0.049195822 0.71944809 0.042433035
5.7502599 -12.5967 418.58899 -0.35384998 0.086374171 0.93130535 0.046158187
7.7189298 -0.142937 421.48801 -0.7828396 0.23112217 0.5777064 0.085401349
7.7140598 -3.0025599 422.444 -0.6179496 0.31571615 0.72004277 0.09254209
7.7210398 -3.99684 422.73599 -0.8594749 0.17475478 0.48037866 0.078472883
7.1874399 -5.4237199 422.444 -0.89574832 0.075127184 0.43816766 0.086419225
3.96698 -11.8067 417.77399 -0.36311215 0.16165367 0.91761518 0.016966347
5.8361502 -13.6886 418.74301 -0.56265968 0.15641347 0.81175667 0.039047517
5.9665999 -15.4933 418.983 -0.45304659 0.0546198 0.88981205 0.028710634
7.93153 2.2290101 420.522 -0.70137793 0.44194418 0.55924445 0.055018354
5.0815701 -5.79913 416.66101 -0.78705668 0.22748464 0.57340431 0.028031388
8.0223598 -2.16696 422.48999 -0.60460305 0.31705695 0.73070514 0.10365346
7.7719302 1.92602 420.52301 -0.83959025 0.34696957 0.41797167 0.06493257
6.6746302 0.246923 418.591 -0.94703126 0.25825927 0.19087665 0.0050059054
11.5213 -1.98713 422.07901 0.61234874 0.27095976 0.74270439 0.069178946
11.571 -0.194941 421.54999 0.63474369 0.077707388 0.76880556 0.069560088
7.12606 0.38645899 420.51401 -0.89688736 0.22660139 0.37979576 0.052303556
7.75734 -5.82339 423.254 -0.52021766 0.17104505 0.83673006 0.05994074
5.96981 -4.8928199 418.58801 -0.95004803 0.062381312 0.30580592 0.011561958
5.7971201 -3.88131 417.57401 -0.94567955 0.14076065 0.29304707 0.023763573
5.9423499 -9.1335602 418.59698 -0.81973404 0.030550998 0.57192904 0.039156351
9.7816401 -1.8477 422.52899 0.060778875 0.2379709 0.96936876 0.042150047
10.5985 -2.17606 422.45401 0.2744686 0.32589999 0.90468568 0.073348992
5.30478 -4.9467502 416.659 -0.79185367 0.19840588 0.57758361 0.027379133
12.5499 -1.14441 420.51801 0.89589286 0.070244886 0.43868172 0.027406098
5.7989402 -7.8861499 418.27499 -0.80260426 -0.056920543 0.59378994 0.038645014
6.1595702 -2.5617399 418.59399 -0.97286129 0.11037665 0.20336646 0.0069790715
6.4155102 -1.03916 418.58899 -0.96249062 0.19138129 0.19231501 0.0046449723
4.1703 -7.7782798 416.703 -0.55898982 0.24664594 0.79164141 0.023188831
12.5297 -2.49037 420.51599 0.86265594 0.10386696 0.49501151 0.012203475
