# .PCD v0.7 - Point Cloud Data file format
VERSION 0.7
FIELDS x y z normal_x normal_y normal_z curvature
SIZE 4 4 4 4 4 4 4
TYPE F F F F F F F
COUNT 1 1 1 1 1 1 1
WIDTH 1245
HEIGHT 1
VIEWPOINT 0 0 0 1 0 0 0
POINTS 1245
DATA ascii
44.306099 2.6793599 368.60999 0.60237449 -0.46659636 -0.64763629 0.068082258
-3.9083099 43.1492 367.366 -0.31800011 0.82293802 0.47079608 0.072340526
-10.1733 -7.5535102 387.672 -0.90288049 0.27563468 0.3298974 0.074860074
43.108501 -10.137 376.21799 0.59593284 -0.63951069 0.4856852 0.10086222
26.607 -25.2374 387.431 -0.27810985 -0.70425069 0.65321201 0.093171775
-7.65025 27.8428 376.129 0.33342949 0.10987496 0.93635052 0.068670906
35.476601 -24.114901 385.01199 0.38491052 -0.65684336 -0.64838314 0.055551846
34.2365 62.105598 357.10001 0.52577317 0.26353985 -0.80877024 0.066862568
8.3158197 55.7701 358.48401 -0.68430448 0.65545553 -0.31953949 0.08327464
-10.1608 7.7638302 380.08499 -0.98446178 0.13222633 0.11554742 0.066804297
24.281401 -24.6747 385.06799 -0.082005456 -0.78190088 -0.61798555 0.077294581
7.7537398 -20.187 385.07199 -0.34376568 -0.73907012 -0.57931036 0.064517416
44.331402 1.25863 372.17499 0.6638338 0.34360263 0.66427547 0.11321643
5.0792398 -17.6329 388.89001 0.023209829 -0.25128382 0.96763515 0.0619854
-10.2266 10.2927 378.73901 -0.99750131 -0.011914914 0.069635652 0.060862537
-5.0205998 -15.0978 393.95401 0.38076556 0.24080724 0.89276505 0.073482819
43.121601 -10.162 375.70001 0.60666424 -0.57775658 -0.54603648 0.10660095
44.341301 6.8850498 369.89499 0.72306585 0.31336486 0.61561209 0.11359636
38.272999 -12.5665 376.21201 0.28542671 -0.67281902 -0.68252927 0.079635151
35.5611 -26.6427 387.58301 0.67541391 -0.70059121 -0.23019132 0.11889403
43.087601 30.980499 359.71799 0.65580207 -0.037166625 -0.75401741 0.099607222
-8.8104696 30.4862 376.20499 0.3877182 0.17720622 0.90458417 0.081596084
-7.6536698 -6.0345702 390.142 -0.37488592 0.656524 0.65455085 0.066446029
18.1043 -23.313601 386.33401 -0.20802115 -0.9005574 0.38173759 0.10089766
37.9702 -11.396 380.005 0.42803881 0.54224026 0.72302026 0.053282417
-10.1066 12.2954 378.21399 -0.97753018 0.087421671 0.19181295 0.071211882
-10.0679 14.0206 376.20499 -0.81763017 -0.44350839 -0.36712557 0.047358956
42.926998 29.1721 359.73099 0.59776294 -0.12475314 -0.79190665 0.085773416
24.122 -22.233299 387.62701 -0.0096410168 0.22801924 0.97360891 0.052138351
-6.3333402 -6.3473401 390.04401 0.41125563 0.43705276 0.79990858 0.078644939
11.432 58.148602 358.47101 -0.56640148 0.78642988 -0.24640907 0.067556247
-7.30653 38.0709 372.41101 0.4170216 0.41637999 0.80791134 0.054021209
44.278999 11.4933 364.811 0.53312629 -0.33769161 -0.77571946 0.10534742
44.348499 16.4807 366.10599 0.70291615 0.33676776 0.6264953 0.10581883
10.0318 57.0686 358.23401 -0.40033898 0.47940075 -0.78096324 0.091652542
-7.5970802 -9.0699501 391.383 -0.35857314 0.14763397 0.92175353 0.084540457
26.5905 68.442497 358.69299 -0.60967648 0.78553069 -0.10600072 0.045903169
19.093901 -22.4373 387.59799 -0.10823199 -0.51499152 0.85033494 0.086494319
11.9226 58.529499 358.466 -0.68647444 0.69884831 -0.2009078 0.092829652
35.202801 -21.513599 387.60501 0.079604611 0.68507588 0.72410923 0.055348702
36.744099 -18.612101 385.08701 0.36408079 0.62418514 0.69125831 0.077514946
39.270901 35.427299 361.755 -0.029628452 0.12622175 0.99155951 0.05508684
33.746899 -26.6332 388.88 0.020705961 -0.88466728 0.46576291 0.10799111
36.891499 -15.1362 382.547 0.26349869 0.54778838 0.794038 0.062450677
43.080299 32.979198 360.116 0.98540783 0.17012943 0.0052384767 0.095559321
43.035801 32.1717 359.73401 0.99815905 0.055825181 -0.023707345 0.091554567
43.045601 30.3951 362.23499 0.85448605 0.25778952 0.45099685 0.11364044
19.153999 -22.7794 387.242 -0.10823199 -0.51499152 0.85033494 0.09333913
-11.4047 38.127399 369.59799 -0.78920287 0.38565901 -0.47793928 0.11660385
36.646099 -15.1932 382.53799 0.10344972 0.46289593 0.88035536 0.052094921
16.312401 -22.809401 385.01001 -0.055481896 -0.99792695 -0.032611534 0.071425468
41.719101 36.741798 358.46399 0.61321491 0.01575096 -0.78975904 0.078917563
-0.94653302 44.355499 366.077 0.25011301 0.26595235 0.93097413 0.064509124
40.557598 37.365601 358.047 0.30951425 0.025817962 -0.95054424 0.060287423
44.3438 6.29877 366.95499 0.41138592 -0.2805624 -0.86720604 0.089255691
44.148499 5.2123799 367.34399 0.31055206 -0.35458046 -0.88194674 0.082093574
-3.45331 -15.0881 392.66299 0.56863511 0.24437214 0.78545296 0.044126313
-9.9741096 -2.37569 383.84399 -0.70279521 -0.3531903 -0.61752367 0.060682736
44.2393 15.2283 363.54501 0.53949475 -0.32262486 -0.77772659 0.089203611
43.2411 -0.407215 373.67999 0.33257043 0.44768173 0.83004701 0.089065827
44.319901 -0.019913699 372.74301 0.91729069 0.063481979 0.39312565 0.1268169
44.308201 2.3473699 371.759 0.65784824 0.27263913 0.70207095 0.14757638
43.117699 2.2397699 372.40601 0.28887451 0.44006655 0.85023111 0.061754271
44.261101 0.89899701 372.40799 0.6638338 0.34360263 0.66427547 0.13785701
44.433399 0.471517 372.40201 0.88388556 -0.00053058384 0.46770287 0.14676109
44.824699 2.22558 371.134 0.93123978 0.1164563 0.34529763 0.14474928
36.731701 56.608501 357.228 0.4892059 0.48278731 -0.72635669 0.11000162
30.0725 68.420097 361.18301 0.039136641 -0.015484547 0.99911386 0.065057598
-10.0823 24.151501 372.45599 -0.73963737 -0.25774983 -0.62169254 0.066992916
36.763302 -21.541 382.948 0.37422904 -0.6397509 -0.67132062 0.056897286
-7.1802902 -7.5276699 391.401 -0.127739 0.50328439 0.85462713 0.079472944
7.5922198 54.555801 358.37201 -0.7084136 0.36484081 -0.60418653 0.0862578
3.6989901 50.835602 359.414 -0.50544828 0.30014539 -0.80897146 0.079540834
-6.3393602 40.4944 365.47101 -0.7148661 0.15073141 -0.68282247 0.071274437
26.4625 68.412498 359.867 -0.69738197 0.68236709 0.21916558 0.091384724
26.6248 68.438103 358.46399 -0.60967648 0.78553069 -0.10600072 0.051031522
34.955601 60.959999 359.74399 0.84371984 0.28269541 0.45631143 0.13557243
-2.76513 44.359402 366.18301 -0.33713681 0.81915689 0.46402675 0.061211828
32.614498 68.558403 358.47699 0.87304902 0.41497234 -0.25609255 0.086601362
10.1076 -21.5488 385.414 -0.29378387 -0.92638755 -0.23557836 0.067218438
34.113701 62.7342 357.20599 0.58151317 0.30395699 -0.75462079 0.079946689
36.190201 -25.058901 387.603 0.94190198 -0.33503738 -0.023887467 0.11240596
36.078602 -25.2633 386.33301 0.58218944 -0.68323594 -0.44073129 0.07955642
-10.1629 38.7052 368.58301 -0.4821465 0.84296709 -0.23862366 0.089270331
44.345699 13.2955 367.341 0.66643387 0.31165296 0.67730224 0.121648
43.026901 -5.1560402 376.14401 0.62844598 0.33162948 0.70361745 0.098271444
-10.1572 29.304399 374.93399 -0.87018603 -0.10117292 0.48222438 0.07121855
9.9635601 57.086201 358.51001 -0.54128331 0.79648578 -0.26948619 0.091735877
36.6889 -24.0016 386.38599 0.90754879 -0.39814547 -0.13354917 0.099940054
36.8703 -22.9916 386.38199 0.93765503 -0.34710881 0.017847802 0.074647449
-10.1618 -6.3692198 386.29501 -0.99216264 -0.079124637 0.096708462 0.092930518
-10.1297 18.603701 376.086 -0.94750148 -0.1274278 0.29326278 0.073976561
17.729601 62.084999 356.71301 -0.24913584 0.72950953 -0.63698292 0.068079419
8.7865 -20.303499 384.80801 -0.17441447 -0.74111295 -0.64832956 0.063797869
37.1073 -22.116501 385.07599 0.91230655 -0.39045003 -0.12347285 0.11269393
36.979 -22.3339 383.80899 0.79027879 -0.51802588 -0.32727447 0.095500968
36.993099 -22.9063 385.07501 0.85806525 -0.49713644 -0.12876101 0.083604053
36.093601 -24.030001 385.073 0.57348102 -0.60154933 -0.55610961 0.05418757
36.737202 -22.8148 384.13 0.65259588 -0.58824271 -0.47758675 0.089922488
32.9002 67.941704 358.495 0.83956039 0.40726969 -0.35954109 0.12146228
17.5354 60.888401 356.651 -0.21050353 0.20141335 -0.95661956 0.074159279
2.8813701 -18.979799 387.73901 -0.18504845 -0.93804657 0.29296017 0.12012164
25.3209 67.199203 358.54599 -0.54892111 0.83002478 0.098714203 0.037910666
-8.8182802 34.292599 374.944 0.34217024 0.3849839 0.8571505 0.068707541
-8.3242197 32.947701 374.948 0.54560143 0.33376059 0.76871514 0.056386303
-8.50389 24.144699 377.47 -0.24012034 0.38986295 0.88901579 0.11565998
37.007702 -20.296801 381.927 0.50199842 -0.5550496 -0.66326284 0.052321635
37.043201 -20.9988 382.53601 0.33118075 -0.66377473 -0.67061347 0.054394566
39.267502 49.445801 358.17001 0.89415312 0.24063064 -0.37760708 0.06042701
-8.59132 37.162102 373.681 0.23299268 0.54443198 0.80579668 0.053275838
36.7384 55.7752 357.02301 0.67003423 0.19116959 -0.71729237 0.096918002
29.232401 69.746803 361.035 -0.24021362 0.74342906 0.62418801 0.060407694
27.315399 -25.346701 387.60901 -0.20406277 -0.76205188 0.61452037 0.09266571
5.4428902 -19.3172 387.608 -0.093088239 -0.75137222 0.65327972 0.13235392
38.074501 -17.8941 381.26401 0.99488378 -0.088358797 0.048979163 0.083257429
20.454901 -23.99 385.08701 -0.20826553 -0.89127582 -0.40280628 0.08355394
43.1021 -8.8775797 374.75299 0.52590531 -0.57799488 -0.62397557 0.082953401
43.3009 -5.6586399 376.19901 0.62844598 0.33162948 0.70361745 0.10033262
36.8573 -19.587999 381.27399 0.45694751 -0.55223852 -0.69730306 0.063484818
37.9123 -17.723499 380.01801 0.59765434 -0.6217562 -0.50619018 0.066832006
36.804401 -19.003799 380.76001 0.29934141 -0.6035018 -0.73904014 0.054956935
41.791 -10.0925 377.07001 0.38215917 -0.61663193 0.68827277 0.12914373
-11.4052 37.813 369.42401 -0.64560097 0.12703027 -0.7530356 0.11880814
39.292702 49.406799 358.51099 0.96775049 0.25189546 -0.0027775806 0.062219303
31.6677 70.932999 359.664 0.56222606 0.81300408 0.15141405 0.16426094
31.2939 70.986397 359.74399 0.56222606 0.81300408 0.15141405 0.16977705
36.739399 -18.090599 380.01199 0.33189374 -0.69670051 -0.63596773 0.030843453
-5.0534601 40.646702 369.88699 0.32869938 0.53211635 0.78026205 0.096312553
-8.81106 -14.3318 390.134 -0.81775212 -0.44311389 0.36733031 0.085942112
44.320801 20.1765 364.70401 0.88940537 0.17321064 0.4230321 0.10315797
-4.9937501 42.552601 366.09601 -0.64642471 0.75427783 0.11489184 0.065672338
36.930599 54.530998 359.75 0.66841805 0.085824221 0.73881763 0.093830861
-10.1026 13.8983 377.59299 -0.96931612 0.095623538 0.22645622 0.059335448
-7.6438098 37.948502 372.67801 0.56146395 0.3459807 0.75170177 0.062817752
29.1658 69.7005 357.651 -0.12729207 0.56976324 -0.81189078 0.071684234
-1.12661 -17.7383 390.133 0.16357478 -0.81020355 0.56286192 0.11848722
28.926001 69.668198 357.67401 -0.25378978 0.56094998 -0.78798848 0.078759864
-3.64555 44.1716 363.54401 -0.71021676 0.67861521 -0.18727931 0.079155572
2.6324699 -19.1569 387.599 0.064245731 -0.99681348 0.047280293 0.091578364
-10.3487 17.790899 374.93799 -0.97321773 -0.22977047 0.0072679794 0.075541824
-10.1344 17.6369 374.85199 -0.98078597 -0.19009206 -0.04386279 0.063966922
2.42696 -19.0159 386.27399 -0.18073481 -0.98241532 -0.046851669 0.073369361
24.418301 -25.339899 386.34601 -0.13714848 -0.92616951 -0.35128379 0.05768045
-5.63381 41.837502 367.35199 -0.6582616 0.73981875 0.13913999 0.062785611
-3.8024099 43.197498 363.17599 -0.4687402 0.078023307 -0.87988353 0.083663903
28.004 68.921997 361.005 -0.33912438 0.44781089 0.82732099 0.080748364
-10.1165 2.5223601 383.20901 -0.92561942 0.27425805 0.2607896 0.05523647
27.332899 68.473801 361.039 -0.28296968 0.355854 0.89067167 0.091992795
-6.092 39.350498 371.147 0.24405187 0.61305827 0.75139749 0.082466349
34.609901 -24.3459 390.13101 0.24801505 0.40199003 0.88141507 0.1169756
16.4779 -21.805401 387.633 -0.15832837 -0.39319381 0.90572113 0.10391187
34.508499 -25.635 390.146 0.23673922 -0.40899679 0.88129234 0.11514629
18.956699 -24.105801 385.57599 -0.31898233 -0.92366242 -0.21236281 0.059874047
12.8102 59.188499 358.491 -0.57720238 0.80363256 -0.14495584 0.082022063
38.416698 -16.502899 380.01199 0.96147299 -0.13616717 -0.23880576 0.085297495
26.939501 68.693703 359.73901 -0.54163373 0.82523316 0.16007227 0.068195678
34.166901 -25.491199 390.133 -0.080362804 -0.37368688 0.92406708 0.10378475
43.060101 27.629601 363.23199 0.74050766 0.29117346 0.60569495 0.1470046
26.618601 68.374603 360.61301 -0.55688339 0.3790985 0.73902994 0.081206143
26.433901 67.764503 361.00299 -0.4119336 0.30335164 0.85923713 0.085963413
26.743 67.432098 360.99799 -0.3250263 0.070225239 0.94309402 0.08359623
39.2654 -11.6082 377.73499 0.96386606 -0.069597185 0.25713509 0.15715577
44.4254 24.158501 362.27899 0.99124855 0.12075334 -0.053338166 0.10469239
-8.7975502 23.886499 377.15302 -0.51275909 0.26059344 0.81802762 0.11262769
43.613998 25.446501 363.534 0.63754958 0.19728203 0.74472165 0.10788869
-5.0704098 42.122601 368.638 -0.28499794 0.77422071 0.56511807 0.080039211
-10.1501 6.2663398 379.784 -0.9277426 -0.033669882 -0.37169874 0.052497223
37.838001 53.004002 357.216 0.73623693 0.14566866 -0.66085988 0.092800006
12.7717 -19.6229 387.60501 0.10539557 0.21036072 0.97192597 0.072285019
-3.81252 41.7794 368.53601 0.30369866 0.57923436 0.75647515 0.072193757
35.4618 -24.1094 389.58099 0.52784652 0.23830192 0.81522405 0.091968723
-10.9301 29.177799 373.67899 -0.88878727 -0.16760597 0.42657399 0.043934699
36.1054 -24.465099 388.87601 0.84939671 -0.11876798 0.51421726 0.10235627
-10.1297 27.888399 374.73499 -0.8629759 -0.085551903 0.49794924 0.035232622
35.546101 -26.1565 388.87601 0.77584898 -0.43364492 0.45826897 0.16187233
35.4245 -26.5623 388.96201 0.41889915 -0.81816459 0.39386579 0.14272754
-10.7849 28.1957 373.67599 -0.89651382 -0.12342744 0.42547467 0.040139485
3.8517499 51.713902 361.01501 -0.69500387 0.71395808 0.085049778 0.12141675
31.9732 63.343102 360.54599 0.20401435 -0.10776508 0.97301841 0.15819317
35.723099 -23.1989 388.871 0.45342693 0.52620536 0.71938306 0.095254444
3.81634 51.8041 359.75299 -0.59178245 0.65937835 -0.4636957 0.079939954
2.8573 50.673599 359.74899 -0.76780576 0.36839902 -0.52417219 0.071559392
4.0003901 51.961201 359.77701 -0.62393355 0.56641483 -0.53840619 0.085429542
-11.4141 29.056 372.409 -0.98663485 -0.16286029 0.0053067226 0.04573749
43.073002 4.9612999 371.138 0.17330602 0.42303309 0.88938636 0.030212669
36.730801 55.499901 359.67001 0.74882579 0.27449253 0.60325271 0.10611343
-3.58566 43.9221 364.79901 -0.65057385 0.75021815 0.11800999 0.059671964
19.1105 -21.232401 387.599 0.10632126 0.35320702 0.92948407 0.06169593
-4.28479 43.1576 366.08701 -0.6193372 0.77134836 0.14643455 0.073282264
44.320702 3.6912301 371.20999 0.66420555 0.31946138 0.67585158 0.14266309
-11.1197 30.4424 371.151 -0.7517643 -0.28225392 -0.59597248 0.05069226
33.120701 67.2071 359.75299 0.94214529 0.32932177 0.062525056 0.10952242
33.1684 67.286499 358.487 0.85227573 0.37583479 -0.36383277 0.081869788
-5.0931802 40.5121 369.95901 0.37655506 0.62089735 0.68752652 0.11002497
-11.3902 31.635599 372.79099 -0.91929501 0.10007639 0.38063282 0.045010552
-8.4488096 38.519001 372.401 -0.077687271 0.87117565 0.48478618 0.054126736
44.565601 3.2116899 371.13199 0.82980472 0.083851479 0.55171829 0.13874792
33.439098 66.120903 359.746 0.88214922 0.2533358 0.39703116 0.11231988
43.070099 30.3036 359.715 0.71501762 0.0059949043 -0.69908071 0.078226551
44.303398 17.5735 365.716 0.7035169 0.29317421 0.64738923 0.14178407
-10.288 16.681 376.19901 -0.97983736 0.056786068 -0.19155717 0.070981078
45.0783 3.1839099 369.87299 0.96904421 -0.20275553 -0.14086697 0.078732625
32.900799 64.6343 360.47 0.43738043 0.062390011 0.89710975 0.13675575
32.933899 67.189697 357.92899 0.79287994 0.3812131 -0.47541347 0.053145189
-6.8723001 40.8908 366.07199 -0.78680384 0.60864443 -0.10242913 0.075518288
-7.7907901 39.594799 368.604 -0.5290435 0.84572816 0.069690995 0.056798723
10.1652 56.994099 360.05301 -0.59328294 0.7947796 0.12783112 0.13259882
-1.32609 -19.0093 388.33499 -0.40780452 -0.72796077 -0.55115205 0.094777532
32.1698 69.730103 359.763 0.90497309 0.35382053 0.23629375 0.12311511
21.166599 -24.246201 386.33099 -0.12689982 -0.99120647 -0.037498929 0.14994697
16.2211 -22.865601 386.34399 -0.070553288 -0.99335098 0.090972967 0.15552418
5.0281901 -20.2682 386.121 -0.11686277 -0.73436326 -0.66862077 0.053536717
-11.3829 29.1432 372.57901 -0.97113323 -0.23758155 -0.021336004 0.050661359
-7.3705201 39.579399 371.14099 -0.32900625 0.80727559 0.48996022 0.073838301
-7.4870501 -2.4349599 388.89099 0.14225684 0.36149684 0.92145699 0.046907026
-8.8801603 -11.7333 390.14001 -0.88367325 0.052531589 0.46514735 0.08809416
13.8863 59.574402 357.35901 -0.61124134 0.31643865 -0.72543132 0.085824288
40.574501 -10.2181 377.49899 0.45512423 -0.63266671 0.62657386 0.16544135
34.235401 63.436001 359.733 0.90609199 0.26729026 0.32795304 0.12275377
-6.36832 39.115601 371.41699 0.27532822 0.59228098 0.75723022 0.09958265
43.1077 23.9729 360.763 0.42937699 -0.22002715 -0.8759129 0.054756988
-10.1426 24.0002 372.55301 -0.73963737 -0.25774983 -0.62169254 0.075711198
31.737101 68.434601 357.629 0.41383272 0.27254426 -0.86859781 0.038836829
-5.8043799 41.981201 364.814 -0.83681989 0.42535153 -0.34468618 0.076516099
-7.2493601 23.060499 377.47501 0.35289451 0.24844415 0.90207595 0.060310658
44.3083 7.4437699 369.71201 0.65385234 0.30754197 0.6912995 0.14020802
31.914301 67.161102 357.44901 0.32147706 0.24641141 -0.91429424 0.050587978
-10.1703 25.244499 372.15701 -0.67468965 -0.26333296 -0.68952858 0.068574131
8.7815599 55.738701 358.19601 -0.45543808 0.70830774 -0.53932947 0.089014933
-6.3331099 41.169399 367.35101 -0.6863184 0.70990759 0.15810843 0.053703286
-6.8513198 40.665001 367.34201 -0.73989707 0.65694791 0.14481646 0.05720184
2.63186 -18.180099 388.86499 0.091691427 -0.65255541 0.75217289 0.094644487
34.225399 64.650902 358.43399 0.84129304 0.41800708 -0.3427771 0.067933314
33.0117 65.9011 357.466 0.3819547 0.23601115 -0.89353752 0.060273811
33.650902 66.152298 358.51801 0.89137346 0.4238992 -0.1605079 0.067238949
35.555801 53.294201 360.164 0.11370306 0.045948543 0.99245167 0.10478457
-1.34547 45.702999 364.79901 -0.40782765 0.73885256 0.53644526 0.069815472
6.9908099 -20.6511 386.33099 -0.43193349 -0.89962441 0.064104185 0.10056909
37.330601 53.244099 359.77399 0.55416459 0.32460484 0.76650721 0.11849821
-6.3192701 -11.2583 392.67899 0.13144794 0.56116098 0.81720239 0.0649461
34.337299 -26.6404 387.207 0.18846512 -0.83407885 -0.51845282 0.070248261
-10.3508 6.70015 380.026 -0.98605961 -0.0051685739 0.16631232 0.066471957
-8.7356501 39.243198 368.62799 -0.37773657 0.92446655 -0.051737107 0.077087186
-10.2042 38.016998 372.423 -0.42916736 0.79192835 0.43435568 0.044643097
-9.73736 38.128799 372.39999 -0.40349108 0.74873775 0.52591509 0.049195748
2.75984 49.4748 363.534 -0.20762686 0.47469363 0.8553111 0.079737917
-8.0580196 -18.025101 392.66699 -0.83303457 -0.47993156 0.27517092 0.15654299
27.976 69.312897 358.46701 -0.53261167 0.82730716 -0.17857106 0.088096514
39.244598 48.0826 359.56601 0.87591892 0.24444284 0.4159492 0.12299021
16.2693 -20.276199 387.245 0.053662051 0.49640155 0.86643285 0.070913136
37.639301 -17.735399 383.80701 0.90445036 0.062965922 0.4219062 0.11769593
-10.2109 3.77423 380.94199 -0.90632874 -0.041369677 -0.4205434 0.0597574
33.831501 64.861298 359.73999 0.84310019 0.28646711 0.45510295 0.1065331
22.936701 65.713997 358.52301 -0.51371652 0.85595351 0.058642313 0.059740014
-6.3095999 41.525902 366.08099 -0.79372102 0.60823911 -0.0072203996 0.070854917
27.0301 68.4086 357.164 -0.34197736 0.70917016 -0.61654615 0.072814941
44.369499 22.846901 363.565 0.98218817 0.15451458 0.10691903 0.12665546
16.538 -22.797899 386.51901 -0.165823 -0.93895596 0.30143723 0.080086663
-7.8516302 -15.4223 390.14001 -0.62894881 -0.53143793 -0.56744796 0.08461488
-2.5534201 43.158699 367.33401 0.12781559 0.5337711 0.8359136 0.073483124
-7.7098398 20.4624 378.737 0.114769 0.53670919 0.8359254 0.064076446
36.7341 57.112499 357.51001 0.76400107 0.36242202 -0.53380954 0.11728377
34.198399 63.447201 359.771 0.90609199 0.26729026 0.32795304 0.12257802
-10.1628 8.77668 378.48099 -0.7887547 -0.13141286 -0.60049707 0.031985823
35.3978 59.546501 359.73199 0.79309636 0.28756449 0.53694022 0.13523342
41.066002 42.2328 358.495 0.97928089 0.16530603 -0.11697364 0.10173395
44.340599 10.1307 365.349 0.41148388 -0.34465107 -0.84373969 0.06711217
7.7918701 55.2173 358.479 -0.6782366 0.49947995 -0.53899437 0.086564682
34.512299 62.522099 359.73099 0.8587184 0.19457868 0.47406948 0.12939769
38.100399 -17.7342 380.13599 0.59765434 -0.6217562 -0.50619018 0.080744952
-7.6487899 -17.9562 391.65399 -0.57848364 -0.78535742 -0.22038686 0.14815131
44.342098 8.8080397 365.901 0.55229056 -0.4045929 -0.72888935 0.078737885
34.1689 64.5429 359.272 0.92477012 0.25990456 0.2779386 0.11009945
43.134201 7.8493199 369.897 0.092068046 0.37699378 0.92162853 0.04988933
7.2241502 54.543701 358.466 -0.59321839 0.48671463 -0.64124942 0.084892064
38.1982 -13.5565 381.26901 0.49704453 0.52671975 0.68957454 0.061365739
34.205101 64.728798 358.57501 0.96113312 0.25771248 0.099032424 0.062340867
34.193501 64.752098 358.504 0.84129304 0.41800708 -0.3427771 0.062603131
32.972 64.628601 357.216 0.38327357 0.28632191 -0.87813503 0.037820306
39.0947 -13.8587 377.47101 0.80539924 -0.46577874 -0.3665818 0.080525503
0.087097503 48.069401 361.125 -0.66864783 0.59714818 -0.44308478 0.066141941
43.130798 32.426399 361.01199 0.98723245 -0.020221962 0.15799724 0.12690413
36.633701 -20.2728 386.276 0.65741885 0.48432067 0.57726419 0.11849228
28.1663 69.3619 359.745 -0.48532337 0.86729711 0.11071087 0.12252371
28.783899 69.713203 359.741 -0.49804661 0.85993904 0.11159944 0.097027875
-3.3182399 44.4235 363.53201 -0.75706339 0.62748861 -0.18197006 0.072453164
-7.8066201 39.2743 371.15601 -0.19329941 0.92693061 0.32161313 0.059183843
44.373299 1.15255 369.418 0.41921836 -0.40397349 -0.81305683 0.082816795
38.164799 53.216499 358.48801 0.96122271 0.2655786 0.074289627 0.094353803
37.894199 54.0826 358.46399 0.97389811 0.22295065 0.042607773 0.11065757
34.657799 63.454601 358.47501 0.95544481 0.26531956 0.12934743 0.052910749
34.312801 63.4408 357.56699 0.67537552 0.36743212 -0.63942277 0.061199561
30.461201 -26.322399 386.34399 0.024553647 -0.84485 -0.5344395 0.088373832
44.4081 8.4038696 366.09698 0.55972856 -0.39012489 -0.73109949 0.092011184
44.398399 7.4846301 366.487 0.44887891 -0.3733342 -0.81186777 0.079179987
10.135 -18.6231 387.62299 0.15081574 0.24423388 0.95791674 0.05775442
-6.3352499 40.653702 369.91699 -0.2245684 0.84074897 0.49265626 0.076643132
37.983799 51.672199 359.66 0.82136059 0.23019969 0.52189547 0.10293549
34.983601 62.6045 358.47299 0.90264463 0.39680797 -0.16666181 0.054423869
-6.5685802 40.6106 368.63101 -0.67304748 0.72583753 0.14201033 0.077949576
30.8326 70.934998 358.17499 0.4428806 0.78413117 -0.4347356 0.17970686
2.34234 49.4058 363.548 -0.11585261 0.57897121 0.80707532 0.086627759
-8.85991 -10.2833 389.88599 -0.81528407 0.070699953 0.57472897 0.095613621
34.198002 63.276199 359.827 0.90609199 0.26729026 0.32795304 0.12258089
38.083099 51.128399 359.73099 0.82899398 0.23710978 0.50650561 0.1097277
44.947201 1.03063 371.13 0.98229408 -0.13639839 0.12842847 0.071817502
43.215599 29.938 362.267 0.88073021 0.23375578 0.41191328 0.11586983
-5.2030301 -17.656401 392.11499 0.34031689 -0.76523966 0.54643631 0.10103679
-6.56002 -11.0105 392.67099 0.12340359 0.74008644 0.66109276 0.055949159
22.802401 65.7015 357.229 -0.55571783 0.78406161 -0.27645087 0.061237052
-8.8659201 -3.80883 388.48099 -0.67207527 0.25286594 0.69596958 0.039497092
-7.5966001 -12.8043 392.19699 -0.78853244 0.17763188 0.58878136 0.054831773
32.967999 -24.071301 389.73401 -0.2041038 0.47065666 0.85838449 0.060177974
-7.6203899 23.998301 377.46301 0.3436459 0.4360157 0.83174384 0.073050097
-4.9813399 42.808498 364.83099 -0.79057634 0.60785466 -0.074174061 0.077361733
-10.0239 11.5265 378.737 -0.94413263 0.14533864 0.29578757 0.067622975
-8.8997602 23.118799 377.495 -0.50330013 0.34958768 0.79023886 0.088150248
44.337299 24.092699 361.91699 0.87953764 0.0053673065 -0.47579908 0.058160271
44.346802 -5.2155199 373.90302 0.9459281 -0.25334927 -0.20256898 0.11595289
17.5916 62.133499 359.75 -0.37872258 0.65835088 0.65049464 0.11305542
37.3447 -21.2103 383.798 0.79101139 -0.47943527 -0.38005635 0.10542391
-8.8308096 -7.6537099 389.272 -0.76724482 0.1817611 0.61505961 0.042677037
35.701199 -25.340401 386.22699 0.49591976 -0.7069813 -0.50422317 0.081455082
44.238701 0.202967 369.879 0.60053283 -0.32653344 -0.72988784 0.093306661
6.13094 53.362099 362.26801 -0.10594482 0.55732638 0.82350653 0.13140935
-11.4441 29.276199 372.41199 -0.9770565 -0.18665123 -0.10257651 0.046109457
-9.2417803 -7.8617802 388.86401 -0.78671497 0.17244911 0.59274012 0.067952648
43.088699 11.0779 368.612 0.11925012 0.35852376 0.92587262 0.049343973
41.875702 -7.0228801 377.47198 0.36827862 0.20140404 0.90763831 0.042757519
43.0942 31.7717 359.79199 0.75673145 0.11369042 -0.6437639 0.089245819
-11.4385 34.492599 372.41699 -0.8637284 0.00039412716 0.50395739 0.030016489
-7.32096 39.855598 369.888 -0.62085152 0.77849007 0.09217713 0.05913597
-9.2478304 22.013 377.465 -0.85597265 0.14834119 0.49528351 0.08251106
-10.4573 21.0175 374.93399 -0.95514381 -0.2849687 0.080580264 0.062455628
40.585499 29.0026 363.10599 -0.01120254 0.25545648 0.96675563 0.0086039333
-10.616 19.0257 374.95901 -0.99119222 -0.027223375 0.12960289 0.055156853
-10.0717 0.0026763999 382.543 -0.7672103 -0.29265338 -0.57073843 0.058490038
-8.0828104 39.391899 369.87601 -0.35107833 0.92891127 0.11776176 0.072849028
-8.8441401 21.3706 378.00699 -0.78447312 0.053295329 0.61786854 0.080855109
18.984301 60.811298 360.24799 -0.053767201 0.10670451 0.99283594 0.053467799
41.859798 -9.5876703 377.46899 0.46512091 -0.44760227 0.76375043 0.13218905
44.641399 21.592699 363.534 0.99067289 0.045381099 0.12848277 0.095213592
-10.1756 1.2525001 381.952 -0.63853586 -0.30654147 -0.70590669 0.0461239
6.3677001 54.181599 359.806 -0.64278591 0.75265139 -0.14262612 0.081757776
44.3148 25.1476 362.27701 0.98727012 0.15895566 0.0055515822 0.14451611
11.4599 -21.585899 386.34 -0.14828375 -0.89782661 0.41463155 0.1367175
42.9869 -6.3614101 376.758 0.69648933 0.23307946 0.67865789 0.10938677
43.0229 -3.8545401 375.474 0.42778772 0.4908464 0.75899106 0.10227349
43.743099 24.226801 361.00699 0.78315258 -0.16213296 -0.60032064 0.05916068
16.5819 61.525902 359.79599 -0.52373564 0.84202743 0.12919261 0.1166154
43.070702 22.2237 364.81201 0.3141056 0.39886105 0.86153787 0.063234262
36.8573 -16.808201 383.81299 0.40566733 0.41811627 0.81278092 0.066341355
17.746099 -22.7672 386.853 -0.17279944 -0.73916769 0.65097731 0.078976057
5.2130198 53.162998 359.73099 -0.63384598 0.61790735 -0.46522009 0.081446275
5.4716601 53.256599 361.017 -0.65174836 0.74255216 0.15440322 0.13515
5.1168098 52.923901 361.04501 -0.64337951 0.75086027 0.14923696 0.13015245
25.2055 67.133301 356.70901 -0.20118891 0.46231148 -0.86359197 0.086596809
-6.2287598 40.7481 369.87799 -0.13073483 0.72984201 0.67099851 0.075553343
21.403 64.694801 359.759 -0.29202005 0.68047875 0.67206615 0.091287166
21.6192 64.913597 358.49899 -0.51793081 0.85391408 0.05077808 0.074643783
-10.084 34.087399 374.66501 -0.69447976 0.15923947 0.70166987 0.13093555
15.2263 60.664001 357.198 -0.35535023 0.51265508 -0.78160799 0.069136433
-7.3088999 26.7855 376.20001 0.49373946 0.17557612 0.85170084 0.07274019
-5.1637702 -16.427999 393.98801 0.3399455 -0.37731698 0.86143428 0.069492139
-6.6835699 -15.3172 393.936 -0.4869602 0.0092264414 0.87337542 0.076784305
32.104698 69.723701 358.49799 0.77562392 0.43792874 -0.45456126 0.1252816
11.239 -21.538 386.358 -0.15208945 -0.97777992 0.14427496 0.11463016
-7.3934498 40.1539 367.34 -0.75776011 0.65207291 -0.024505906 0.077905491
35.451599 60.6847 359.14899 0.79824823 0.36805743 0.47679505 0.072219506
-10.592 25.868999 373.67999 -0.93650776 -0.050678037 0.34696543 0.073178045
-5.8964 41.326 368.604 -0.60861516 0.74699861 0.26754564 0.075155333
26.8585 -23.732401 388.88 -0.41272172 0.15187977 0.89810538 0.059309583
35.446701 59.3451 359.73999 0.79309636 0.28756449 0.53694022 0.1310319
38.9505 -12.741 378.741 0.97435558 -0.052315619 0.21884775 0.12025894
-8.0056105 39.173199 371.134 -0.26888978 0.90920639 0.31787112 0.062121745
17.457899 62.2715 357.22299 -0.55614966 0.7225641 -0.41060761 0.08534918
17.375601 62.237202 358.474 -0.53135622 0.84424585 0.070068188 0.089682169
44.340599 16.3943 363.19901 0.397158 -0.19761215 -0.89622259 0.094704904
12.897 -20.804701 387.612 -0.047489583 -0.49195886 0.8693223 0.11785933
16.715099 61.797199 357.22198 -0.5455305 0.74072754 -0.39207041 0.081784442
16.6513 61.756901 358.53101 -0.52617311 0.84705812 0.075062402 0.11186957
-1.69872 45.701 363.599 -0.73455077 0.66659755 0.12681824 0.087170698
-10.1176 4.8448701 381.733 -0.9660545 0.14269373 0.21535379 0.062862985
-10.4181 3.81829 381.28101 -0.99760985 -0.0045211529 0.068950601 0.068525776
-10.0379 2.6187401 381.276 -0.76646191 -0.28315684 -0.5765053 0.072279826
33.045601 59.627499 360.276 0.13907258 -0.042049404 0.98938906 0.13114332
-3.85724 41.6166 368.61099 0.44220617 0.60698473 0.66032058 0.0782023
-6.8317099 -17.9883 392.67899 0.019618904 -0.78827065 0.61501586 0.14454322
44.7925 12.0771 367.33301 0.85804391 0.22440369 0.46195629 0.12192739
37.7243 54.631901 358.50101 0.94731569 0.31156111 0.074314803 0.075022236
11.4106 -20.3615 387.60501 -0.11575831 -0.46436155 0.87804806 0.10105257
10.4992 57.009701 361.008 -0.5745312 0.79998952 0.17300476 0.11808559
26.678499 68.297798 357.216 -0.25587881 0.74217409 -0.61943817 0.09050788
2.6500599 50.485802 361.01599 -0.75395262 0.64873481 -0.10343409 0.10104206
21.489799 -21.708401 387.41599 0.055958487 0.44936696 0.89159292 0.068350233
4.45295 -19.2341 387.603 -0.092701346 -0.78671616 0.61031479 0.11249594
-5.7223101 -12.0903 392.67499 0.23236609 0.2066866 0.95041394 0.061784923
35.453899 61.164799 358.495 0.95433396 0.29808956 -0.019731799 0.071500652
21.432199 64.610901 356.49701 -0.3316094 0.52600962 -0.78316605 0.074982278
-10.1306 17.308399 376.32999 -0.97114193 0.050275803 0.23314317 0.075323589
-10.3942 -1.14898 385.07199 -0.97551131 0.21929784 -0.016915284 0.044362418
7.22369 53.4324 358.46399 -0.48365769 0.05394242 -0.87359345 0.081616558
1.31833 49.1917 361.01901 -0.64142847 0.75567639 -0.13237332 0.096404523
-8.9308395 25.513901 376.203 -0.61125726 0.38584983 0.69100249 0.095834717
-10.0016 14.6679 377.47198 -0.95958751 0.06416367 0.27399793 0.072662771
-8.8348198 -2.6422 388.08499 -0.66729915 0.2758863 0.69180816 0.077971958
-10.2053 -3.0130999 386.34399 -0.92712027 0.044526819 0.37210932 0.038776606
22.125299 65.136597 359.75601 -0.59293294 0.71955013 0.36149436 0.10452434
37.664101 -19.0756 383.797 0.97143036 -0.16423406 0.17131917 0.079360619
0.350593 48.3442 361.01999 -0.66864783 0.59714818 -0.44308478 0.065469898
35.555302 60.9034 358.48499 0.91769248 0.39166149 -0.066647023 0.060760356
35.502998 60.886799 357.95999 0.92052841 0.31495702 -0.23114821 0.081854992
30.713499 70.939201 358.52399 -0.067744792 0.88298935 -0.4644787 0.18140906
44.336601 -1.30541 370.79001 0.42124078 -0.44835523 -0.78837419 0.094468877
45.090099 3.8421199 369.86301 0.99954796 0.0078904787 0.029010247 0.069104068
12.6553 58.319599 357.58499 -0.4323163 0.28585091 -0.85521454 0.064445235
2.5281501 -18.9568 387.76999 0.26784354 -0.92849189 0.25722089 0.12334083
21.1996 64.6623 358.49301 -0.56286842 0.82286251 0.077951662 0.055264346
44.3265 8.7286596 369.18201 0.70177424 0.25555077 0.66498625 0.10673574
-7.0571399 -18.215799 391.401 -0.34353846 -0.88893449 -0.30294681 0.1393304
-8.8324404 -12.7469 390.427 -0.95750272 0.011735552 0.28818539 0.086124167
-11.4142 30.358101 371.45901 -0.86728084 -0.25669318 -0.42653552 0.052301142
43.8811 7.59587 369.86899 0.29845148 0.38930276 0.87141842 0.12837982
38.924198 50.717499 358.50201 0.90956759 0.39485797 0.12951458 0.062917314
31.172899 69.788902 361.02701 0.25689682 0.46742016 0.84588557 0.096607253
-2.8256199 44.533298 364.80801 -0.60319024 0.78344339 0.14959267 0.078625113
44.3605 -2.59921 371.66299 0.59396785 -0.492385 -0.63620692 0.086811811
44.0144 19.1516 362.28101 0.59119582 -0.28714615 -0.75368071 0.078059234
-10.6886 29.451 371.13199 -0.70945561 -0.3060694 -0.63481826 0.054618683
44.430801 -3.3190899 372.39801 0.9251585 -0.24907795 -0.28642964 0.087762296
-10.6266 -0.71282399 383.81 -0.999951 0.0092915399 -0.0034221667 0.06652154
13.9832 -21.5165 387.117 -0.19476523 -0.60499495 0.7720412 0.091720991
30.5348 70.827499 358.509 -0.067744792 0.88298935 -0.4644787 0.19189736
-10.5558 1.8474801 382.54199 -0.99016666 0.13985485 -0.0032493116 0.078005023
-10.2758 20.8603 373.685 -0.8744114 -0.36184031 -0.32322788 0.057107225
-0.342087 46.977299 363.54401 -0.64483023 0.70865846 0.28635147 0.084200628
36.905701 56.012299 357.224 0.67003423 0.19116959 -0.71729237 0.097285792
18.7966 62.099998 356.504 -0.23057197 0.36512208 -0.90195477 0.085039563
-1.10781 45.889801 364.815 -0.46600139 0.68959898 0.55434281 0.083918653
-10.1424 20.162901 373.858 -0.77075088 -0.19761498 -0.60571563 0.04565578
-10.1113 25.1387 374.42499 -0.85654891 0.055439148 0.5130794 0.025866402
-8.7379904 39.1534 369.87299 -0.36835182 0.92067587 0.12912346 0.049831867
43.982498 -2.40259 371.134 0.59396785 -0.492385 -0.63620692 0.078763649
39.152401 45.608799 357.19699 0.50395149 -0.083263919 -0.85970926 0.057755746
-10.8205 22.956499 373.70499 -0.99240172 0.10891914 0.05723143 0.054957166
44.4226 3.76003 368.147 0.38484767 -0.38085073 -0.84074074 0.086989328
23.0695 -23.6618 387.604 -0.16691674 -0.34391484 0.92404622 0.083749115
-5.1501999 -13.9701 393.36899 0.48784259 0.45847204 0.74284118 0.066200882
-9.9821301 20.392 373.664 -0.7669664 -0.27818289 -0.57825327 0.0506442
-7.0641699 19.1555 378.74301 0.31271467 0.22362572 0.92314738 0.068355627
-10.1262 16.252399 376.61301 -0.9737491 0.2172301 0.06799861 0.070541196
-11.3981 32.250401 372.55499 -0.95517737 0.090329595 0.28191626 0.077091828
-11.4873 33.051102 372.41101 -0.89143777 0.030720377 0.45210063 0.067794502
40.672401 43.169201 359.73199 0.94260186 0.19712156 0.26952711 0.16603629
43.140099 -2.95948 371.15302 0.31671843 -0.56070149 -0.76505119 0.051404353
45.183998 5.9096198 368.604 0.98327368 -0.1810205 -0.020111445 0.086234622
16.591499 -22.960199 386.33701 -0.18763378 -0.97815365 0.089493275 0.090386979
-10.167 21.508699 373.40302 -0.78928477 -0.23143864 -0.56874043 0.054305919
20.7033 64.360001 358.483 -0.54308999 0.8361398 0.076964803 0.09202788
37.9566 53.0644 359.12 0.90573698 0.23997881 0.34935752 0.096648037
1.29565 -19.402399 387.59698 0.053918954 -0.92079586 -0.3863 0.076726764
-8.89013 37.802101 373.66299 0.11825943 0.70362473 0.70066178 0.071078151
2.90993 50.765301 361 -0.79469216 0.60241383 -0.074578382 0.10934093
-10.655 27.0191 373.681 -0.91309267 -0.059771597 0.40334743 0.052184019
-10.129 26.605101 374.53101 -0.85029048 -0.069094732 0.52175856 0.018712781
44.326199 11.1811 368.203 0.32505301 0.33945388 0.88267297 0.13585123
44.465599 5.6011801 367.33099 0.5393039 -0.42280588 -0.72827643 0.096961215
38.454201 52.196499 358.487 0.99778843 0.023169126 0.06230158 0.055021625
-2.5659599 44.518002 362.36099 -0.68322396 0.11556865 -0.72100544 0.086027436
-10.8597 36.802299 373.68201 -0.64784348 0.43661037 0.62423569 0.052305531
-0.98195601 -16.8113 391.397 0.20136994 -0.45719704 0.86626846 0.053748757
43.681 28.4963 362.267 0.90508997 0.20593217 0.37202695 0.11493427
21.455601 -24.070499 385.00101 -0.12101843 -0.97786444 -0.17069179 0.079022326
-1.0273401 -16.082899 391.39801 0.53340107 0.13074465 0.83569682 0.051190671
-10.1014 18.185699 376.202 -0.9562279 -0.078478202 0.28190312 0.072247006
35.838799 -20.0075 386.32999 0.04320189 0.5803048 0.81325269 0.065579168
33.170601 -24.3922 390.13101 -0.22509819 0.38300124 0.89590228 0.061583988
-11.5013 31.936199 372.397 -0.98702502 0.028807493 0.15796104 0.04593261
35.424301 60.029701 357.21399 0.70299339 0.30679291 -0.64162165 0.085608236
11.2759 -20.3346 387.60699 -0.11575831 -0.46436155 0.87804806 0.10254115
-10.4174 21.7523 374.935 -0.98884898 0.044650704 0.14207046 0.061864924
-10.6611 21.767799 373.66599 -0.95922428 -0.1988869 -0.20083021 0.055181168
-11.6566 30.741301 372.40701 -0.99922866 -0.038816638 0.0059440304 0.051341027
43.163601 -9.9950399 376.20499 0.71784431 -0.68878257 0.10138094 0.10030591
38.3783 -14.2823 381.28799 0.74821329 0.28384545 0.59967381 0.095736973
35.502399 51.983501 360.18301 0.05209098 0.03564759 0.99800593 0.098028824
17.685499 59.5905 360.284 0.036049653 0.073954724 0.99660981 0.066168413
36.085899 58.319099 357.21399 0.80153775 0.22907892 -0.55232245 0.069309771
41.589699 35.474899 358.46899 0.51619208 -0.10660852 -0.84981197 0.08523719
15.232 -22.5818 386.336 -0.29376397 -0.8877148 0.35449287 0.10700821
14.039 -22.1917 386.33499 -0.28598791 -0.8630923 0.41627225 0.073670708
19.376499 -23.677299 386.33099 -0.16125168 -0.86583674 0.47362924 0.10486682
15.2051 -22.6085 385.06601 -0.28402466 -0.90989059 -0.3023724 0.078276746
39.344799 -12.8344 377.47299 0.98041987 -0.11004017 0.16330355 0.091097184
15.1992 -22.885201 385.24301 -0.28402466 -0.90989059 -0.3023724 0.076184496
16.178699 -22.882299 385.09201 -0.055481896 -0.99792695 -0.032611534 0.085005224
14.1457 -22.3668 385.06799 -0.2772072 -0.90991735 -0.30855554 0.076893948
2.6020899 49.598301 359.73901 -0.69382018 0.17276147 -0.69911873 0.067511149
43.858601 27.9132 361 0.93693936 0.026178487 -0.34851015 0.062531196
-10.1827 -1.39503 383.45099 -0.82632869 -0.26082802 -0.49914894 0.061086226
-0.00323361 -17.7206 389.85999 0.16522619 -0.76641053 0.62073761 0.097387694
-1.65131 -15.3576 391.41699 0.53219175 0.27311504 0.80136144 0.048436176
-8.5555696 19.1625 378.742 -0.57501042 0.15165213 0.80396807 0.0971976
38.002102 52.044102 357.159 0.69639266 0.17148514 -0.6968717 0.10299029
39.251999 -11.1781 377.84601 0.77423763 -0.51375794 0.36960647 0.17931481
38.023201 52.179501 357.202 0.69639266 0.17148514 -0.6968717 0.10396573
38.403099 50.6922 357.21799 0.63258862 0.10484211 -0.76735896 0.081518464
26.9231 -24.084499 388.866 -0.34151471 -0.168615 0.92462784 0.081814848
42.9491 26.569599 363.58499 0.57789648 0.22929901 0.78323537 0.099740185
35.6525 -25.4732 386.34399 0.46464136 -0.63049006 -0.62176418 0.055956502
44.308899 21.4827 364.20499 0.72032309 0.26106957 0.64263308 0.11497363
31.6462 68.528999 360.89401 0.52801239 0.0093004415 0.84918576 0.091473736
20.571199 -21.628799 387.604 -0.025392186 0.24531461 0.96911091 0.058212202
44.338699 22.870001 361.854 0.73718286 0.10116119 -0.66807771 0.054369338
38.014198 50.6996 356.987 0.50300145 0.04846181 -0.86292583 0.086495683
15.3491 -21.533899 387.59698 -0.067285404 -0.47274572 0.87862629 0.11885853
-6.2385402 -13.8292 393.93799 -0.107163 0.5931282 0.79794425 0.06595467
20.4347 -22.8132 387.61099 -0.032909516 -0.48468101 0.87407166 0.10294586
-8.85534 20.1541 378.16501 -0.69226587 0.12281976 0.71111411 0.085454591
32.630901 68.543198 359.73801 0.83140022 0.37804982 0.40724939 0.12581199
-1.22119 46.522301 362.28299 -0.74428546 0.66773295 0.013111994 0.08396484
-8.8526096 25.250601 376.58899 -0.77953327 0.092571042 0.6194824 0.10573091
-8.8662205 -9.00422 389.68201 -0.78719503 0.14625563 0.59911042 0.036923323
-10.4343 33.007999 374.94601 -0.74273038 0.14986226 0.6526047 0.075107656
37.967701 -15.3423 382.397 0.46099424 0.45393464 0.76251405 0.085409336
41.349998 38.0373 361.00201 0.82687265 0.26417869 0.49647889 0.15849546
37.999298 51.3974 359.73099 0.82136059 0.23019969 0.52189547 0.14406195
0.69124198 47.000401 364.79999 -0.057389207 0.52326667 0.85023439 0.061781377
42.155102 35.6898 360.99701 0.88934129 0.19377667 0.41415292 0.14377372
41.8349 35.493198 358.569 0.53768826 -0.025588341 -0.84275532 0.086262129
41.834999 36.915199 358.54001 0.61321491 0.01575096 -0.78975904 0.079740539
25.349701 67.442902 357.203 -0.44067061 0.88969743 -0.11936475 0.091922335
37.9734 50.558998 359.94 0.82201761 0.24945432 0.51191753 0.10954472
36.826599 -20.5868 386.33701 0.894885 0.16760227 0.41363066 0.11976835
20.9967 -24.0798 385.073 -0.12689982 -0.99120647 -0.037498929 0.083998658
-8.3433599 29.24 376.21701 0.33690369 0.12679291 0.93296272 0.087924108
26.9366 -26.307501 386.33899 -0.088255778 -0.99570566 0.027948046 0.071503557
39.026199 48.337101 359.73499 0.86037481 0.25929856 0.43877044 0.11818709
43.007 -5.2725101 376.21201 0.62844598 0.33162948 0.70361745 0.12274165
20.5175 -24.053301 386.32999 -0.20307037 -0.97916067 0.0026118036 0.098755449
39.262901 49.305401 358.77802 0.87813681 0.2670767 0.39692038 0.097904131
39.613098 48.2771 358.48001 0.96765345 0.19677034 0.15788659 0.066374719
-8.9233303 30.808399 376.20801 0.3877182 0.17720622 0.90458417 0.1019026
-10.1199 30.409401 375.23099 -0.69921756 -0.042067226 0.71367019 0.085396111
13.8572 58.394402 357.35901 -0.37640792 0.11522007 -0.91926134 0.066409089
36.030399 59.540699 358.465 0.9396919 0.34116197 0.024241848 0.069556624
-11.4074 32.832802 370.58801 -0.54962838 -0.23242427 -0.8024261 0.058163155
-11.4387 33.954498 370.29901 -0.57232356 -0.23332353 -0.78613353 0.056841295
39.446602 -11.2542 377.47501 0.72432679 -0.40999624 0.55430478 0.17118068
34.254398 -26.9137 388.866 0.084100284 -0.9307465 0.3558625 0.10814022
39.284 37.598202 361.42899 0.047321297 0.12383091 0.99117434 0.012868587
44.573898 -0.053231198 372.39801 0.90144712 0.034596298 0.43150461 0.13674125
44.348202 -0.111709 370.15302 0.63797718 -0.35724092 -0.68217599 0.092873886
35.4734 50.694 360.19901 -0.010933018 0.025288345 0.99962044 0.092040859
-9.1239405 -12.727 390.15601 -0.95750272 0.011735552 0.28818539 0.10392818
-11.3927 36.372898 372.09601 -0.90632206 0.14197108 0.39802581 0.063390695
21.626101 -23.137501 387.61899 -0.22504006 -0.44358176 0.86752075 0.12210885
27.945499 -25.5734 387.62299 -0.2878297 -0.77702087 0.55981481 0.087301202
-11.3527 37.992298 371.13599 -0.58988559 0.75636286 0.28275466 0.085460387
-10.6449 38.261902 371.14801 -0.3126002 0.92684621 0.20793577 0.060607441
-11.9168 36.858501 371.14899 -0.99184358 0.091184318 0.089060552 0.081308708
-3.9364901 -17.7223 391.25 0.31109151 -0.75034976 0.58326429 0.11711361
39.4142 47.073502 359.784 0.87285155 0.21556142 0.43779379 0.13170077
-10.2064 5.18121 381.32501 -0.97058016 0.17646638 0.16381007 0.058026884
-11.4097 38.218899 369.89499 -0.76417524 0.596457 -0.24551022 0.10595232
28.7749 69.758797 358.508 -0.66734117 0.69133019 -0.2769807 0.083877131
29.2335 70.0261 358.53799 -0.38323554 0.90736419 -0.1726868 0.06826894
-8.86689 -6.2926698 388.884 -0.75996554 0.14458267 0.63367832 0.04607721
-8.8644505 -5.0717502 388.711 -0.7752775 0.1036807 0.62305307 0.042527061
-3.0461299 -15.633 392.685 0.48731369 0.0689051 0.87050414 0.055904113
41.7672 37.9669 360.52301 0.88724107 0.22313575 0.40374961 0.13532175
45.2141 11.6816 366.069 0.95730746 -0.13248955 -0.25692198 0.086159237
9.1433802 56.3209 359.74301 -0.60120428 0.79163802 0.10891575 0.079298183
20.302299 64.154503 357.25601 -0.53562212 0.77137107 -0.34365046 0.063740708
-10.7895 -2.6370599 385.064 -0.99700654 -0.055428047 -0.053904038 0.078546509
21.534901 -24.028099 386.65701 -0.13866678 -0.95605212 0.25833294 0.075811028
39.2738 41.0135 361.01999 0.096505359 0.17514773 0.979801 0.032478813
39.8876 47.1651 358.47699 0.94715059 0.31636986 -0.05306508 0.058962688
-8.8341398 22.3482 377.80899 -0.62871379 0.29125032 0.72103554 0.089466013
-10.8374 32.947498 373.677 -0.92517459 0.11327154 0.36224517 0.035133172
-10.764 35.580002 373.715 -0.83786213 -0.0010623261 0.54588085 0.055087332
44.382401 11.6964 364.798 0.53312629 -0.33769161 -0.77571946 0.10456908
-11.377 35.6959 372.42899 -0.90311784 0.039834373 0.42754111 0.036217738
40.563599 30.270399 362.793 -0.020749087 0.23420022 0.97196692 0.01290048
41.9184 -10.1425 375.29599 0.28355783 -0.6741848 -0.68196028 0.11467123
42.603401 34.222401 361.03 0.8992632 0.26708856 0.34639487 0.13341464
-9.7029896 38.5396 371.13501 -0.27503905 0.92483938 0.26272723 0.046628468
12.8964 -22.1299 385.08801 -0.18960425 -0.98164767 -0.020445932 0.059837233
-10.716 34.370899 373.67099 -0.8433252 0.035268717 0.53624499 0.067863323
-11.399 34.368 372.48499 -0.8637284 0.00039412716 0.50395739 0.030016862
43.879002 -4.1775098 374.95001 0.805188 0.1580572 0.57156819 0.10494909
-0.060935501 -19.0592 387.63101 -0.062471621 -0.95963669 0.2742165 0.084718131
10.484 -21.3046 386.35599 -0.26637313 -0.89868653 0.3484363 0.10194119
11.4627 -21.526199 386.405 -0.14828375 -0.89782661 0.41463155 0.084780671
-8.8983002 -13.9382 389.91 -0.78829211 -0.46354637 -0.40462369 0.10279163
-8.5875301 25.3592 371.13599 -0.35920057 -0.25911647 -0.8965677 0.0073278318
44.0075 -1.3913701 373.67401 0.76016414 0.21792129 0.61209542 0.10810308
44.659901 -2.3748801 372.39801 0.99870133 -0.01616836 -0.048313688 0.074863546
44.318298 -1.58722 373.371 0.9394123 0.1436972 0.31121638 0.11769592
38.739601 49.409199 357.22198 0.76767033 0.15691428 -0.62133741 0.081020713
9.3166103 -19.9258 387.60001 -0.15697615 -0.32289952 0.9333244 0.074537456
-12.1208 33.354599 371.13599 -0.98180103 -0.092503577 0.1658608 0.067230649
11.2101 -19.136101 387.60901 0.033171922 0.29029945 0.95636076 0.065595441
37.789299 -19.0499 382.54099 0.92639035 -0.37521771 0.031822078 0.11860503
41.7701 36.626701 361.08301 0.88627917 0.2171503 0.4090904 0.15035605
39.283901 36.571999 361.577 0.025610557 0.14281666 0.98941773 0.016235584
33.047298 -26.3062 388.86499 -0.2674509 -0.69553965 0.6668542 0.073144272
3.8462501 51.523102 362.30801 -0.68161738 0.7246139 0.10164879 0.1129884
-7.5924702 39.7131 368.60599 -0.57086426 0.81346798 0.11128266 0.042881232
31.4111 68.419502 361.00101 0.44685605 -0.090103753 0.89005673 0.07008338
1.27627 48.948799 362.28 -0.67578554 0.71985185 0.15851563 0.092053242
0.88240099 48.563099 362.26999 -0.6798411 0.71412164 0.16687228 0.09222772
-10.0719 38.2467 368.599 -0.61227268 0.20177813 -0.76446569 0.10160548
36.4772 -20.2782 386.354 0.65741885 0.48432067 0.57726419 0.10923567
-11.4461 31.351 371.12 -0.85977554 -0.17796035 -0.47866073 0.060794085
-11.4406 31.236401 371.16199 -0.91595012 0.081863105 -0.39285341 0.060807254
40.4855 44.316601 359.44299 0.95660537 0.21694595 0.19452667 0.12516098
25.152201 67.3032 357.20499 -0.29079229 0.87955672 -0.37658972 0.075335376
13.3547 59.553501 358.48199 -0.65199536 0.71398777 -0.25519317 0.082690448
13.4737 59.5569 359.75101 -0.49443194 0.81549603 0.30083761 0.13159576
43.269199 -3.8074601 371.65799 0.4210254 -0.44423768 -0.79081637 0.050719701
31.8349 -26.5877 388.20599 -0.23307252 -0.82506704 0.51472473 0.094031632
40.5555 44.455898 358.30499 0.89609367 0.27655655 -0.3471781 0.075015739
39.3354 44.360298 357.29001 0.50644004 -0.07524202 -0.85898608 0.06121647
-8.5351801 39.308701 367.33301 -0.77553833 0.58526659 -0.23665023 0.084047563
40.737301 43.749298 358.48499 0.98323667 0.17393535 0.054700211 0.075734578
-7.6572099 39.094799 366.48099 -0.58411074 0.21325818 -0.78315747 0.068721764
32.967201 -26.5249 388.64801 -0.27150658 -0.69942659 0.66112524 0.072353698
38.091202 -15.3522 378.18701 0.45212606 -0.52136809 -0.72371083 0.063350692
-8.6792803 38.178799 367.34399 -0.80479026 0.027022179 -0.59294391 0.077743284
-9.1037598 -13.9554 390.16599 -0.90640295 -0.41167355 -0.094649792 0.068107612
-11.651 31.815701 371.142 -0.98097813 -0.19082493 0.035604995 0.068074889
-6.81355 39.287498 366.077 -0.68936586 -0.097767346 -0.71778566 0.068275958
-7.6248102 39.672199 366.40799 -0.66385645 0.26692817 -0.69860142 0.063044317
-11.9185 36.8102 369.87299 -0.94666654 0.012711511 -0.32196409 0.1015801
-8.9405203 -6.6526299 388.86301 -0.75996554 0.14458267 0.63367832 0.048043717
44.059299 26.8034 362.29199 0.89435095 0.23943478 0.37789866 0.10601635
35.429798 57.020901 360.05301 0.39804608 0.19607358 0.89616656 0.14423217
39.266998 39.153 361.22299 0.021769753 0.1414811 0.98970157 0.022733783
44.3829 12.5878 364.517 0.39024755 -0.22529195 -0.89272076 0.082982056
14.1603 -21.1502 387.60001 -0.14044385 -0.54325014 0.82774079 0.097512908
14.0178 -19.956699 387.60999 0.1390053 0.24170038 0.96034288 0.046332665
1.6495301 49.491001 361.005 -0.6932413 0.68983263 -0.20868023 0.076844983
43.080601 -9.1399403 374.93701 0.52889156 -0.5838021 -0.61599422 0.087925196
44.3354 5.0643702 367.50299 0.39840421 -0.40743679 -0.82174772 0.085059345
30.5646 -25.379601 388.879 -0.26433659 -0.67152441 0.69222915 0.093534358
29.154301 -26.138 387.603 -0.33200967 -0.82324594 0.4604733 0.093704715
-0.208003 -17.5452 390.133 0.16522619 -0.76641053 0.62073761 0.086261109
-11.4234 29.1187 372.01801 -0.88326418 -0.20167471 -0.42328683 0.058305327
38.0005 42.0322 360.866 0.0146724 0.10641304 0.99421376 0.0072072875
-9.6112404 35.590302 374.92999 -0.047099248 0.40628567 0.91253144 0.096006893
8.9621 55.945099 361.048 -0.42903075 0.59530783 0.67936826 0.1055598
-10.1197 -3.9521599 386.70801 -0.94425464 0.09238147 0.31598869 0.056275371
-9.6849899 -4.5720701 387.61301 -0.8206501 0.12514342 0.55755943 0.027475568
16.597799 -22.9541 385.07101 -0.14416052 -0.98803788 -0.054761857 0.076603599
38.0079 -16.3433 382.53601 0.78280324 0.15917623 0.60156631 0.10008738
1.95433 -16.9617 390.13501 0.50661093 -9.9168035e-05 0.86217481 0.053739503
34.240898 60.8801 356.953 0.32961982 0.14375035 -0.93310589 0.06403885
35.9039 -22.7223 383.82001 0.26549801 -0.73393106 -0.62518477 0.044300888
44.586899 -1.14126 371.13101 0.88812536 -0.14582863 -0.4358525 0.092696533
-2.5824399 -17.7041 390.595 0.24696541 -0.7607404 0.60023504 0.085340209
-3.73469 -16.6992 392.677 0.50137782 -0.51628286 0.69431424 0.047566254
25.889 -22.8316 388.10001 -0.27819097 0.34170839 0.89768881 0.05564741
33.1991 -27.4596 387.61899 0.028110659 -0.9632054 0.2672922 0.067942128
-1.29974 -17.697701 390.22601 0.16357478 -0.81020355 0.56286192 0.10880213
44.460602 0.483659 369.90201 0.60962886 -0.39844429 -0.68526989 0.081684589
41.7981 32.803699 362.21799 0.40220678 0.23998749 0.88353592 0.058998827
-4.95439 -18.062799 391.39801 0.16382448 -0.98158908 0.098205879 0.086960673
34.187302 60.8008 360.18301 0.54901493 0.16061962 0.82023406 0.12151405
41.775398 36.8088 361.008 0.88627917 0.2171503 0.4090904 0.15058275
10.1438 -21.2882 385.09299 -0.34509298 -0.89734375 -0.27510908 0.081418298
41.861198 24.0653 364.33701 0.10938882 0.30988696 0.94445974 0.033977885
43.520599 30.721701 361.017 0.96710962 0.24988794 0.047486443 0.064630151
-5.0697598 41.340099 364.314 -0.61223805 -0.0072232038 -0.79064053 0.047848504
-5.4892402 40.570801 364.798 -0.72470647 -0.14447425 -0.67374158 0.049133088
10.3006 57.3274 358.47299 -0.60990572 0.73240918 -0.30264148 0.088199824
8.5543804 55.888599 359.76999 -0.60660112 0.79396218 0.040732384 0.07807716
17.7631 62.491501 358.48901 -0.55204886 0.83093393 0.069216095 0.063787721
32.929401 67.742996 359.76501 0.85882801 0.42776066 0.28184262 0.11402253
-3.7404201 43.620998 366.08401 -0.56282657 0.76284027 0.31827816 0.058471657
38.058701 49.502998 356.966 0.40536985 0.086314596 -0.91006869 0.068933174
35.769501 -24.1105 385.078 0.41052446 -0.58984858 -0.6953764 0.055505276
-8.8186102 -5.9872599 388.87799 -0.76125169 0.11576017 0.6380403 0.051394995
32.905499 66.836502 360.19101 0.82259184 0.30453852 0.48020718 0.12444043
43.148602 -2.8901401 374.93799 0.46195766 0.50899738 0.72630346 0.089786679
1.19226 -18.979799 388.09299 0.021826549 -0.87765461 0.47879636 0.081384592
0.76594001 -18.4146 388.866 0.091893226 -0.81693751 0.56935817 0.097379565
31.4671 67.139999 360.92899 0.25447476 -0.13226968 0.9579913 0.066204444
-9.8919201 26.9086 374.93701 -0.84268051 -0.077339053 0.53283042 0.043188524
-0.87937701 -18.4877 387.59601 -0.40957138 -0.69798464 -0.58742553 0.08468093
23.564199 -25.3729 385.59299 -0.23021804 -0.83595175 -0.49818107 0.068638206
37.648399 53.5508 357.211 0.79258478 0.30255672 -0.52940416 0.083636381
-10.1688 13.8421 377.465 -0.96886563 0.14556964 0.20027211 0.06936077
-10.0162 28.203501 374.93399 -0.87392759 -0.10041918 0.47556973 0.035380185
36.6889 -22.994101 387.60001 0.82672501 0.2549926 0.50150222 0.081392832
37.290001 -19.215799 385.07999 0.61459982 0.51229924 0.59984714 0.11174342
-10.189 13.8958 376.32401 -0.95474064 -0.24272424 -0.17191646 0.065712065
-10.2145 12.6094 376.83801 -0.98077059 -0.0026160693 -0.1951465 0.053430095
-10.2046 14.2088 376.20801 -0.83731455 -0.47468162 -0.27125946 0.063883543
-10.1964 15.1743 375.845 -0.80298311 -0.061734326 -0.59279591 0.06193126
45.228802 12.8643 366.082 0.97596443 0.19856456 0.08980865 0.082408585
44.2915 13.9175 367.147 0.66643387 0.31165296 0.67730224 0.12118692
-10.1088 7.5260501 380.31601 -0.96238697 0.066923022 0.26331088 0.068280943
-9.9186401 9.05865 380.034 -0.97798127 0.10247932 0.18179835 0.051247474
-10.1214 8.1423197 380.00101 -0.98446178 0.13222633 0.11554742 0.06522885
19.0574 63.319401 357.33301 -0.50193995 0.78459901 -0.36395144 0.068301566
19.2701 63.4487 357.21701 -0.50193995 0.78459901 -0.36395144 0.074685246
17.7766 62.478699 357.22 -0.55671531 0.69897044 -0.44889686 0.084920339
42.998901 32.832298 361.04901 0.98709172 0.15646946 0.034164559 0.10354558
2.6470201 50.3414 362.32401 -0.72342294 0.64799654 0.23824292 0.12977916
43.495701 -8.8223896 376.20001 0.9906286 -0.13651575 0.0042881947 0.13180748
-10.2868 9.9549503 378.73901 -0.99829423 0.048791219 0.032062542 0.060663864
1.80928 -18.217899 388.871 0.14136828 -0.74339324 0.65374422 0.080732398
0.96951199 48.292301 363.55499 -0.65481424 0.68098879 0.32783008 0.082944937
-4.3733001 43.270401 363.565 -0.78201604 0.31773561 -0.53618556 0.071792312
-4.4345798 43.246101 364.814 -0.62364841 0.78049541 -0.043469649 0.071492091
36.0037 -25.863501 387.60999 0.93281788 -0.35791841 -0.041776124 0.082875825
23.2335 -22.1099 387.59799 0.037202183 0.22956485 0.9725821 0.056829762
7.4438701 -20.3689 385.31699 -0.21016924 -0.93849707 -0.27395642 0.063942708
-10.0551 3.6807201 382.57199 -0.91081536 0.22346428 0.34710094 0.059288092
41.361698 40.653599 358.492 0.89900672 0.18487476 -0.39699909 0.082455091
10.1873 -20.2656 387.439 -0.07742238 -0.37246767 0.92481005 0.091243483
11.494 -19.2617 387.60901 0.033171922 0.29029945 0.95636076 0.055136036
40.546398 40.8195 357.73401 0.42245334 -0.010107147 -0.90632832 0.053940848
43.991699 -6.1681399 373.681 0.76375711 -0.36999547 -0.5289408 0.094609454
-12.1236 35.734798 371.15302 -0.98182577 0.17294858 0.078146577 0.056752391
43.016499 28.962601 362.84399 0.71071947 0.17490378 0.68138576 0.16682698
39.878899 45.776199 359.73199 0.86473644 0.27737966 0.41867813 0.14529811
-9.4778605 -11.5961 388.86801 -0.99790663 0.037410289 0.052752849 0.079286426
-9.8520298 6.6578898 381.26599 -0.93360066 0.1803073 0.30964339 0.059495836
-10.0916 5.7221999 381.26901 -0.97653836 0.13594291 0.1670102 0.069699481
-10.0259 5.5143199 380.00201 -0.85846096 -0.36950725 -0.35568133 0.053432222
37.987598 -17.695601 381.98999 0.98237699 -0.094688259 0.16115066 0.11134356
-9.7494097 25.632299 374.95099 -0.83400548 -0.00063785608 0.55175573 0.042360671
-10.1149 25.4056 374.40302 -0.86150062 0.017962217 0.50743872 0.028309876
30.5061 -26.549801 387.71399 -0.29226229 -0.90204382 0.3176471 0.073400296
-10.1513 7.3438101 379.24899 -0.96144247 -0.052603859 -0.26992816 0.03388815
-12.3361 34.2682 371.13 -0.98674482 -0.063985586 -0.14913233 0.062264454
43.115898 -7.6927299 373.96701 0.44459599 -0.49315491 -0.74775171 0.081420422
3.7084899 -16.5431 388.81201 0.41750857 0.41753921 0.80706108 0.063121274
35.5065 59.831402 357.21301 0.68946981 0.267692 -0.67303222 0.09027113
12.2299 58.3162 361.01199 -0.15256271 0.54317462 0.82564276 0.12865113
36.674 56.980598 359.10999 0.72915792 0.31054536 0.60982805 0.087422833
31.851299 -23.284599 388.86499 -0.10877169 0.49216965 0.86367691 0.046068437
41.799599 39.319698 359.32901 0.97367287 0.17769508 -0.14277825 0.13515218
42.958 33.043598 359.742 0.92272747 0.095378667 -0.3734661 0.097385362
42.7757 34.393398 359.73499 0.91456193 0.25254482 -0.31590766 0.090592854
-3.20981 -18.401699 390.13599 -0.1261902 -0.93933016 0.318959 0.09719418
-2.0861299 -17.9125 390.14499 0.25363949 -0.77409631 0.5800361 0.12019161
40.2346 44.659302 359.737 0.87475574 0.35765111 0.32693747 0.10219017
44.764198 20.5903 363.53601 0.99215591 0.067804597 0.10502003 0.10704757
6.9770699 54.658699 359.75299 -0.60597622 0.79345936 -0.056701776 0.070421614
38.615799 -14.0962 379.99899 0.88731122 0.13880259 0.43978706 0.11238578
5.2744799 -18.0884 388.866 0.0015596454 -0.38677111 0.92217445 0.071195312
30.400801 -26.622101 387.61401 -0.21930988 -0.97544402 -0.020300837 0.087237976
-5.7674999 41.949699 366.07199 -0.66643935 0.74095726 0.082710192 0.055279553
31.792 -27.118999 387.60901 -0.11941832 -0.97543901 -0.18508929 0.075909011
-2.4212401 44.692699 362.27499 -0.72871768 0.084827162 -0.67954016 0.086116545
11.3559 57.009998 357.798 -0.22911106 0.270574 -0.93503892 0.072833374
-10.1305 10.0986 379.06601 -0.97851056 0.03906326 0.20246258 0.061879341
-10.0856 11.2197 378.73801 -0.98421305 0.097745024 0.14754865 0.071017705
43.153999 22.774 361.03601 0.36163202 -0.26276669 -0.89452553 0.055239327
44.343201 22.2987 361.883 0.79607081 0.083660141 -0.59939319 0.06094851
-9.5489302 -9.2559099 388.875 -0.92896163 0.0032028891 0.3701621 0.068919018
4.35321 -18.9974 387.86099 -0.046222817 -0.73845983 0.67271131 0.11190455
-2.55145 42.795502 367.44501 0.33647025 0.62046385 0.7083872 0.060843807
-10.4254 11.5762 377.5 -0.9939521 -0.087301932 0.066615619 0.054267146
-10.1732 11.3569 377.29401 -0.9939521 -0.087301932 0.066615619 0.049852584
24.091101 -24.038601 387.61801 -0.2436652 -0.49045467 0.83670872 0.10311717
43.105 -7.2723298 373.694 0.43154579 -0.47667289 -0.76586628 0.084051177
-9.7456598 10.2228 377.47501 -0.75993729 -0.43240964 -0.4853012 0.044433855
42.980099 32.948101 361.01401 0.91436499 0.23529527 0.32950392 0.08540874
20.989401 64.605598 357.20801 -0.57060188 0.78999919 -0.22430962 0.062126752
22.1395 64.629501 356.42099 -0.19144037 0.4260323 -0.88422114 0.072192796
-10.2626 11.1275 377.48199 -0.99634093 -0.075265072 0.040496249 0.054750267
29.1812 69.922203 359.793 -0.49804661 0.85993904 0.11159944 0.12833594
30.448 -26.6234 386.61499 -0.10594372 -0.92113447 -0.37454936 0.097780034
41.551701 39.369801 358.51199 0.90588129 0.17717287 -0.38469326 0.08930891
-10.136 -3.83272 384.73499 -0.71856391 -0.36852312 -0.58979368 0.044015191
25.543301 -25.859501 386.33899 -0.27701142 -0.83347023 -0.478113 0.063517317
40.539799 39.7882 357.80499 0.50829494 -0.086730182 -0.85680461 0.08537019
13.5626 58.360699 361.00699 0.074442029 0.48521212 0.8712219 0.11509383
40.4702 41.7276 360.56699 0.74811321 0.18036187 0.63858926 0.11097755
-9.7768402 -11.0099 388.86499 -0.99363458 -0.11215405 0.010573915 0.07655824
-10.2345 5.99755 380.01999 -0.9936316 0.053353295 0.099245295 0.057505488
-6.87816 -11.4939 392.664 -0.55132014 0.22161809 0.80432051 0.07120432
44.386902 10.0418 368.60101 0.67508072 0.27455762 0.68475115 0.11843637
36.771999 -15.2145 382.58099 0.089921996 0.32887679 0.94008195 0.062386513
37.9762 -16.724501 382.55399 0.93827534 -0.036625195 0.34394467 0.13551119
30.610399 -23.2729 388.87399 -0.16419779 0.39689949 0.90305585 0.047105476
38.000198 53.246201 357.57901 0.81215715 0.33325011 -0.47889996 0.090603083
41.694401 38.032299 358.50601 0.68400705 0.13241373 -0.71735692 0.093274981
38.008801 43.332901 360.76401 0.063352227 0.10995447 0.99191558 0.12601483
40.562801 38.007198 357.98199 0.31387633 0.017520294 -0.9493022 0.042481966
16.362301 60.871101 356.87399 -0.24070925 0.24516767 -0.93912292 0.096497081
-11.3763 33.0439 372.58499 -0.91433293 0.038811628 0.40309915 0.039124023
43.264 18.0396 366.078 0.18285212 0.32433346 0.92810178 0.08047086
10.2986 57.144699 359.73401 -0.59328294 0.7947796 0.12783112 0.14065498
11.558 58.1012 359.75601 -0.59508151 0.79148066 0.13941446 0.13642874
-9.8930101 -6.5479498 387.59601 -0.99414188 0.078363761 -0.074438572 0.094140254
-10.2499 -7.6312299 387.27499 -0.79064327 -0.34105995 -0.50848925 0.10014495
40.630901 -7.0970898 377.48901 0.019098384 0.33204073 0.94307166 0.020987773
43.0723 14.441 367.345 0.10633158 0.33192676 0.93729305 0.054202531
-7.5220799 0.32030901 387.604 0.09986791 0.6412856 0.76077539 0.055358279
-10.1008 -5.2882199 387.04401 -0.92589885 -0.019290768 0.3772786 0.091524847
-9.7657099 -5.5602198 387.60101 -0.85776091 -0.06184775 0.51031476 0.083896793
-3.8215101 43.055801 363.21201 -0.4687402 0.078023307 -0.87988353 0.075274855
35.4837 59.692001 357.15399 0.68946981 0.267692 -0.67303222 0.094689451
-10.2357 1.32131 383.797 -0.95865428 0.11982042 0.25811821 0.062071323
41.766102 39.130402 359.79599 0.90874982 0.30553919 0.28428781 0.13344659
4.5873699 52.208 362.289 -0.64397544 0.74661922 0.16689934 0.13663277
-8.03232 -16.8459 392.67599 -0.76340896 -0.21788053 0.60805827 0.12919366
-2.5597401 44.207199 362.39301 -0.67573005 0.11272106 -0.72847986 0.070593044
15.5405 -20.487499 387.603 0.097445726 0.35569015 0.92951 0.072106235
5.09864 -20.258801 386.39801 -0.30139771 -0.94139057 0.15147001 0.05258951
0.26406601 -19.2253 387.60001 -0.062471621 -0.95963669 0.2742165 0.094223678
24.272699 -24.1301 387.60101 -0.26873046 -0.70048606 0.66113782 0.099818252
12.5973 57.1166 357.57999 -0.31881055 0.12188669 -0.93994868 0.046046734
8.8776598 -18.025101 387.60599 0.18061779 0.32162109 0.92948216 0.061752662
3.6512899 -16.621599 388.897 0.41750857 0.41753921 0.80706108 0.067529641
-6.40342 -14.0328 393.93799 -0.37901223 0.16229737 0.91104847 0.079087369
-5.0850301 -17.756599 389.75299 -0.39293736 -0.73162133 -0.55707312 0.074582659
7.80616 -19.563999 387.59698 -0.19080502 -0.50935572 0.8391366 0.096807539
43.095001 27.5494 360.052 0.47667068 -0.18226123 -0.85998017 0.088993505
29.534201 -26.322701 386.34 0.0073168911 -0.90869111 -0.41740498 0.10079747
41.8176 38.151001 358.72601 0.8179366 0.17716327 -0.54735076 0.082582042
38.6217 49.446301 359.73401 0.82849044 0.33699375 0.44725701 0.12930016
24.101801 66.585999 357.216 -0.60597652 0.76370203 -0.22260216 0.066512622
-9.3212605 28.0606 376.20499 -0.45228934 -0.15915379 0.87755591 0.0862749
-9.0680904 26.8396 376.20001 -0.3292596 0.19639196 0.92358989 0.10645709
45.063099 7.8815999 368.60001 0.91694731 0.054632217 0.39525044 0.11197271
38.938599 48.182899 357.20999 0.59839213 0.099475548 -0.79500407 0.08089374
35.0807 60.836102 357.21399 0.76227164 0.40254942 -0.50684899 0.096330076
34.459499 62.167 357.203 0.52577317 0.26353985 -0.80877024 0.070184007
36.9715 -13.4228 381.26501 -0.011704005 0.52711761 0.84971178 0.044868037
41.008499 -10.0211 377.48099 0.39540473 -0.62511247 0.67297065 0.15088844
-10.1584 10.0472 377.86401 -0.99513638 -0.037096296 -0.091254666 0.057811104
15.5082 60.872501 359.755 -0.54562414 0.83495665 0.071705759 0.096688494
22.8943 63.349701 360.259 -0.082300462 0.027229173 0.99623549 0.056913182
-8.86516 25.5977 376.34601 -0.61125726 0.38584983 0.69100249 0.099125206
31.7938 -25.843399 388.87701 -0.25396681 -0.67796993 0.68982434 0.096983843
44.0868 -7.1663499 374.957 0.97473145 -0.22326873 0.0070515461 0.072037898
43.7052 -6.87079 376.20001 0.80590338 0.077059411 0.58701074 0.10391788
7.6006899 55.151699 359.737 -0.70420051 0.70787948 -0.054848425 0.11725517
42.34 31.789801 362.272 0.41072235 0.37186885 0.83247864 0.096354365
42.965599 30.434401 362.28601 0.85448605 0.25778952 0.45099685 0.11134703
43.0462 31.586599 361.70599 0.81067866 0.26254848 0.52332437 0.13203688
42.101799 -0.25017101 373.68701 0.061921269 0.40763953 0.91104102 0.015012857
4.1457801 51.995399 361.034 -0.69217813 0.71660298 0.08584635 0.15739562
-10.355 -4.3853798 386.32999 -0.99249172 -0.0041058394 0.12224311 0.07104633
31.720699 69.713799 358.004 0.67088968 0.52334726 -0.52537096 0.13026078
-11.3464 38.253502 369.87601 -0.76417524 0.596457 -0.24551022 0.1059213
44.312801 -4.00422 374.27499 0.86062819 0.11559486 0.49594048 0.14629495
22.8528 64.614502 356.39301 -0.1823318 0.38542283 -0.9045465 0.064346559
40.527901 44.7131 358.48599 0.98843533 0.12182185 0.090305574 0.071824744
40.585098 44.455299 358.48499 0.98843533 0.12182185 0.090305574 0.069634862
19.224899 -23.719299 385.095 -0.31914866 -0.80926967 -0.49318025 0.076709807
44.245399 -6.0328398 374.931 0.91785473 0.096803598 0.38493079 0.093197092
44.263699 5.0418 370.67001 0.68945485 0.21638212 0.69125307 0.12505253
44.370098 11.2171 364.95499 0.54355085 -0.34573156 -0.76486742 0.10612454
-6.3418798 41.212601 365.297 -0.72404444 0.21210589 -0.65633124 0.056873832
-6.98247 -16.511499 393.93301 -0.53152066 -0.26483476 0.80457962 0.083573624
-0.39776799 -18.708401 388.86801 0.0024715851 -0.87217367 0.48919019 0.070383787
28.691601 -26.603901 386.67599 -0.080181375 -0.90652972 0.41445726 0.080649607
43.077999 29.231501 359.81699 0.64832807 -0.11258887 -0.75299037 0.086658649
44.305199 6.21171 370.16699 0.75237423 0.15374863 0.64054227 0.11662374
44.6828 5.99788 369.866 0.82869238 0.22757557 0.5113495 0.13104358
-9.4109201 38.9888 369.87799 -0.52700186 0.84917659 0.034178406 0.059737839
8.9309597 -20.942499 386.35101 -0.29720911 -0.90289962 0.31054631 0.09845385
9.0296803 -20.2281 387.14999 -0.062430624 -0.55594152 0.82887357 0.084305398
39.4053 -11.5618 377.46799 0.86538762 -0.31779844 0.38743824 0.17167336
43.007 -10.0522 376.39099 0.59593284 -0.63951069 0.4856852 0.099914394
41.8241 -10.956 376.25 0.52450889 -0.8476873 0.079477571 0.095355399
-10.4833 15.209 376.19901 -0.99584651 -0.017613243 0.089328371 0.065127648
10.1243 55.777199 357.99899 -0.15650775 0.18309839 -0.97055668 0.079126045
8.9622803 56.313999 358.51099 -0.58292586 0.76100546 -0.28472462 0.090032704
28.069 -26.3141 386.33401 -0.33440962 -0.92919463 0.15737702 0.085032895
15.1879 60.8144 357.39801 -0.57665294 0.65519148 -0.48805276 0.069128163
14.544 59.755299 357.198 -0.63203579 0.32526746 -0.70337176 0.087862626
44.508701 21.626101 362.30399 0.97115493 -0.030966984 -0.23643005 0.095887385
-2.21118 -18.9242 388.875 -0.32588404 -0.9262163 -0.18953346 0.09481743
40.533501 41.8302 357.73099 0.45287484 0.010895332 -0.89150751 0.064737566
-8.4744396 -3.68413 388.88 -0.39740783 0.18347292 0.8991133 0.056038484
43.028 -8.8354502 376.68799 0.87180799 -0.094194286 0.48070595 0.13074808
17.882099 -23.2715 385.086 -0.22001551 -0.87418169 -0.43289676 0.088013977
-10.1661 4.9603801 380.388 -0.95993447 -0.19855061 -0.19774581 0.039304025
3.98735 -19.973 386.341 -0.35006854 -0.8960976 -0.27287567 0.063369922
44.240101 25.756201 362.26901 0.98041439 0.14661849 0.13149372 0.10266533
43.913502 25.343901 361.01501 0.82708937 -0.065973639 -0.55818516 0.063595198
36.050499 57.228901 359.733 0.74742216 0.28724372 0.59904188 0.14644788
44.8871 9.32971 366.06799 0.6514594 -0.30786252 -0.69341284 0.093840033
-10.3708 2.6946101 382.56601 -0.99594426 0.087056629 0.022718946 0.06310422
-10.2556 3.14833 381.27899 -0.88879395 -0.31488195 -0.33300853 0.073351301
0.468252 -17.403999 390.13199 0.17668039 -0.73223263 0.65773815 0.079030685
-1.27679 45.571499 361.57599 -0.5937866 0.26369211 -0.76018679 0.073951274
36.695702 57.645199 358.483 0.96009487 0.27364093 0.057779804 0.087055907
36.850399 57.2486 358.47 0.94442326 0.31820071 0.082540751 0.07270842
36.543499 57.046001 357.203 0.76400107 0.36242202 -0.53380954 0.096957743
29.207701 -26.610201 386.58801 -0.07032387 -0.99743593 0.013269419 0.082761861
41.7458 39.308399 359.76501 0.94110066 0.2217336 0.25527185 0.11350334
40.520302 40.398701 360.867 0.5068298 0.13438657 0.85150677 0.095751859
13.941 59.957802 358.50601 -0.5645591 0.81771278 -0.11233351 0.10014297
15.3385 60.787701 359.539 -0.54562414 0.83495665 0.071705759 0.096985236
15.2603 60.862701 358.513 -0.55198818 0.83380324 0.0090121571 0.043274138
-10.2968 -7.7185102 387.60199 -0.98474872 -0.078940883 0.15504289 0.082560606
44.199001 13.5891 367.33301 0.66643387 0.31165296 0.67730224 0.11295027
44.294601 12.6106 367.64099 0.85804391 0.22440369 0.46195629 0.12339425
-2.9941599 -17.280399 391.40302 0.25695556 -0.78973919 0.55703306 0.073464595
-3.8311701 -18.6493 390.13199 -0.039519362 -0.99875939 0.030297708 0.083558254
-9.2851 31.7635 376.198 -0.38029522 0.36541152 0.84961754 0.084264509
6.6466999 54.2836 361.013 -0.57309073 0.76066875 0.30487719 0.12768191
-5.9579401 -9.4875202 391.397 0.46691415 0.38793749 0.79466707 0.057331886
0.063868098 47.766899 362.284 -0.78454989 0.61688209 0.06275291 0.090456881
-0.81590903 46.928398 362.29199 -0.77827513 0.6267724 -0.038002539 0.07806816
37.354599 54.664501 357.22198 0.81631446 0.19400178 -0.54405338 0.080537647
43.132099 26.4716 360.26199 0.44326535 -0.098132342 -0.89100271 0.094355337
40.5107 43.646099 359.76599 0.95660537 0.21694595 0.19452667 0.15752165
40.506302 43.006302 360.07401 0.94260186 0.19712156 0.26952711 0.12754317
44.358601 2.76333 368.599 0.60237449 -0.46659636 -0.64763629 0.088773459
44.9128 4.13727 368.60501 0.88647622 -0.2193746 -0.4074735 0.076726593
2.51441 49.680199 359.76401 -0.69382018 0.17276147 -0.69911873 0.067644425
37.675701 52.388 359.73499 0.82731038 0.23610979 0.50971532 0.11343904
-2.3304701 44.6777 366.07001 -0.37612629 0.79601157 0.47423056 0.06801258
30.4349 -25.3067 388.89801 -0.35008705 -0.50515372 0.7888338 0.073756717
41.815601 27.628099 363.53201 0.046318628 0.23803048 0.97015262 0.037478201
13.2676 -21.9911 386.332 -0.31054959 -0.88574481 0.3449856 0.12145893
12.8336 -21.5075 386.746 -0.17397612 -0.74714792 0.6414845 0.073943466
23.0856 65.886703 357.22601 -0.6071943 0.75468725 -0.24851996 0.063116752
-8.54179 -9.0837002 390.13 -0.78719503 0.14625563 0.59911042 0.044752985
21.6402 63.3423 360.311 -0.084725842 0.1354128 0.98716003 0.081516191
39.262001 49.527901 358.492 0.96775049 0.25189546 -0.0027775806 0.053299353
44.8666 12.9186 364.797 0.8459332 -0.20095083 -0.49397951 0.10235428
44.3834 13.8743 364.04501 0.44402304 -0.31001446 -0.84067506 0.070220791
-7.5687399 -11.4238 391.71301 -0.68040675 0.23276983 0.69488478 0.075760461
-7.6241999 -10.3568 391.42599 -0.5987522 0.36404109 0.71342129 0.069187045
-7.8214898 -11.5186 391.405 -0.78247404 0.17595465 0.59730589 0.06830667
-6.90837 -5.7511902 390.13 0.30126742 0.4853107 0.82079929 0.075351462
40.542599 43.204201 357.866 0.62334669 0.15585573 -0.76625574 0.062716149
44.313301 15.1863 366.61801 0.75403875 0.20339346 0.62454522 0.10920354
38.140598 -17.3512 381.26401 0.9861328 -0.14713237 0.076773599 0.10576917
38.505299 -15.5327 380.01599 0.97872633 -0.20491415 0.010243666 0.081564657
45.145901 10.6233 366.082 0.95491511 0.052854083 -0.29213622 0.088428549
-7.6069298 -16.537001 390.66101 -0.60948712 -0.45266974 -0.65085757 0.062804274
-0.0102979 45.0933 365.45801 0.19523044 0.51644677 0.83376724 0.054087698
41.821499 32.783401 358.854 0.38568544 -0.15078425 -0.91022569 0.048170853
20.425699 63.901199 359.73499 -0.35601887 0.63811982 0.6826812 0.10453783
36.687801 -21.5921 387.25299 0.64343381 0.23977195 0.72698164 0.094126984
21.953699 -22.031 387.60199 0.082088724 0.17261344 0.98156303 0.067421645
-11.1396 27.928499 372.414 -0.88148892 -0.34508458 -0.3223258 0.06142652
45.093399 10.9757 367.33401 0.90340501 0.17103182 0.39320165 0.10832047
42.5415 35.7397 359.737 0.95421195 0.26392707 -0.14079094 0.070485123
39.2719 39.643902 361.16699 0.035437442 0.095750548 0.99477434 0.025451316
43.9459 26.667601 361.022 0.88166976 -0.032879811 -0.47072008 0.069114015
43.695599 17.7159 366.077 0.29031834 0.39423242 0.87194955 0.093203031
38.022301 -14.4352 377.474 0.42439848 -0.564228 -0.70818973 0.074089192
44.401299 15.0259 363.70401 0.54824901 -0.33654702 -0.76561028 0.10221533
44.3438 15.3817 363.55899 0.53949475 -0.32262486 -0.77772659 0.091750354
-6.37568 -17.937201 390.73199 -0.28721154 -0.74500531 -0.60206038 0.086118639
44.2999 16.4655 366.15399 0.70291615 0.33676776 0.6264953 0.1044284
44.576 15.9686 366.06601 0.85161746 0.24651784 0.46257612 0.11476835
-8.0191698 -1.8596801 388.866 -0.67609298 0.25034025 0.69298488 0.062449422
1.23122 -17.7206 389.58499 0.28318316 -0.58021981 0.7636441 0.059522856
1.35298 48.694199 363.54901 -0.45091423 0.5434162 0.7080785 0.087968014
44.988602 14.2954 366.07599 0.90412742 0.16501689 0.39411047 0.11319357
27.062401 68.458 357.22299 -0.34197736 0.70917016 -0.61654615 0.073231585
8.7420902 55.782902 361.02301 -0.41558105 0.654746 0.63134784 0.10521698
-10.5117 -5.35044 386.332 -0.99863958 -0.0098156529 0.051211275 0.066815034
-10.1263 -8.2896004 387.60699 -0.94079554 -0.3329463 0.063643262 0.080347471
-6.80269 -1.07906 387.59698 0.4256787 0.37424335 0.82385653 0.059654824
-8.3377705 0.151448 387.59799 -0.71303445 0.39897105 0.57654482 0.062452082
45.115501 15.2375 364.797 0.9706561 -0.013533097 -0.24009083 0.065796398
5.1504402 -18.9956 387.922 -0.057258859 -0.71260262 0.69922739 0.12626562
7.5884399 -17.812099 387.94101 0.041579518 0.11800444 0.9921422 0.04659871
45.041801 14.1639 364.81699 0.92041475 -0.089522637 -0.38055539 0.078809619
6.3038702 -20.311199 385.625 -0.1845983 -0.80412245 -0.5650757 0.079788491
36.4576 58.330299 358.49701 0.92303652 0.32629555 0.20380083 0.061228953
35.693199 58.437099 359.741 0.79230571 0.21805862 0.56982636 0.091404833
43.935699 24.4097 363.54099 0.93118745 0.23541737 0.27833188 0.12834251
15.1996 58.344101 360.638 0.13366951 0.37991831 0.91531116 0.11075476
-8.5903797 -0.59213603 387.60101 -0.72084522 0.38090989 0.57904214 0.068904765
5.4774499 53.409698 359.733 -0.69003069 0.61292946 -0.38493517 0.082268164
15.4309 60.810001 357.20001 -0.45682657 0.42763636 -0.78002346 0.067452811
40.491299 -10.1131 377.66501 0.47144639 -0.6117475 0.63521904 0.17152333
38.956299 -12.3044 378.73001 0.96529138 -0.01962577 0.26043686 0.11895196
43.124599 22.8687 361.00699 0.36163202 -0.26276669 -0.89452553 0.054781739
-8.8645 -6.52739 388.931 -0.75996554 0.14458267 0.63367832 0.034404453
37.262402 -21.0252 385.07199 0.97687227 -0.038374249 0.21035202 0.10555431
-10.1593 16.346001 375.366 -0.98689395 0.019881824 -0.16014075 0.054739557
45.185299 7.9437099 367.353 0.90638411 -0.16185951 -0.39021698 0.082463153
-5.0770898 -17.239401 392.66599 0.32801273 -0.79038662 0.51739407 0.076608837
-9.9002895 -4.7203898 385.065 -0.67926246 -0.41913813 -0.60243315 0.058395658
-10.4494 -4.0144901 385.078 -0.98766035 -0.15273997 -0.034604702 0.050587334
-10.2337 0.25599 382.534 -0.77029264 -0.31730494 -0.55314267 0.058696341
24.324699 -25.319401 386.34601 -0.36844984 -0.87629026 0.31041914 0.057871208
25.353399 -25.296 386.80301 -0.29461652 -0.78302252 0.54779273 0.093109712
20.694901 62.067299 360.20599 -0.11496399 0.036718905 0.9926908 0.058085606
43.4645 -8.7259703 374.93201 0.61106026 -0.49756709 -0.61565602 0.10213656
30.4067 70.527702 359.75601 -0.40035927 0.85058588 0.34090486 0.16923681
1.20906 -19.047501 386.90799 -0.42423144 -0.70744103 -0.56529188 0.091865391
-9.5367699 -7.1784801 386.332 -0.73459864 -0.41293627 -0.53837574 0.10610313
-10.6321 24.694799 373.673 -0.97298867 -0.2184587 0.074625134 0.074869037
-3.83567 -17.786699 388.95999 -0.42338321 -0.67874324 -0.6000452 0.075053804
10.0823 54.4935 361.61099 0.065469973 0.1683161 0.98355651 0.029718485
44.4828 -1.48571 371.13199 0.54654014 -0.47636637 -0.68874449 0.073739357
38.127899 -16.4762 379.08301 0.6605258 -0.4310227 -0.61475617 0.065679021
35.654301 -26.646601 387.64999 0.67541391 -0.70059121 -0.23019132 0.11891041
-10.1432 -6.4660401 386.34299 -0.99216264 -0.079124637 0.096708462 0.088308588
-10.1589 -5.0863099 385.48099 -0.86366379 -0.34894812 -0.36375818 0.053659301
26.636999 67.1632 356.74301 0.0076347711 0.29168001 -0.95648551 0.073831677
44.329498 24.0217 363.01099 0.97156727 0.14639467 0.1860795 0.11813492
44.483898 23.0233 362.298 0.99914366 0.032871548 0.025127027 0.093763098
23.2453 -24.9396 386.35001 -0.30593067 -0.91041911 0.27846637 0.092979945
22.825399 -24.042801 387.065 -0.25056222 -0.69529444 0.67363513 0.098810114
-8.2583704 -13.3918 391.40399 -0.84300041 0.0020517444 0.53790897 0.099079132
-3.5928199 -17.8916 388.87701 -0.45803818 -0.66505474 -0.58983326 0.074537963
-5.9439702 -13.9386 393.94199 0.30763948 0.4025462 0.86215687 0.074623682
43.687302 29.765699 361.013 0.98589563 -0.16673705 0.014442127 0.057683244
41.8074 31.372601 359.05499 0.35257998 -0.13067558 -0.92661279 0.032190282
20.2089 63.350601 356.397 -0.31801265 0.38701001 -0.86550057 0.059571646
-10.1691 -0.0473084 382.64801 -0.7672103 -0.29265338 -0.57073843 0.049466215
39.000198 -11.36 378.73199 0.87641287 0.11205722 0.46834138 0.13210389
-4.8741598 -15.2808 393.93301 0.36629438 0.1706291 0.91472077 0.076644622
43.968601 20.889999 364.797 0.79623443 0.2884683 0.53178638 0.10932913
25.431601 67.185997 359.73199 -0.61472261 0.76434231 0.19467139 0.085021853
-11.4151 36.717602 369.61301 -0.47814476 -0.034391657 -0.87760741 0.087496355
38.296902 -15.3181 381.27899 0.93001139 -0.012727643 0.3673102 0.10931915
17.8713 62.315701 359.73499 -0.37872258 0.65835088 0.65049464 0.11797059
7.7911701 -20.742399 386.336 -0.085220791 -0.99628389 -0.012481838 0.11296479
38.141201 -11.4088 380.01099 0.56739044 0.28882709 0.7711336 0.063942812
-11.2924 36.792301 372.41599 -0.80757493 0.41554245 0.41850594 0.038705707
-10.0817 37.997398 372.70801 -0.44380486 0.80012745 0.40352613 0.052272186
39.246498 45.3955 360.383 0.86404401 0.29240727 0.40978774 0.14382555
34.394901 -27.064199 387.617 0.15256281 -0.98827916 -0.005370663 0.086642213
-10.615 25.523001 372.405 -0.93911564 -0.20141229 -0.27837905 0.061114129
-4.0195498 42.049301 368.603 0.30369866 0.57923436 0.75647515 0.081305645
-6.6844401 -3.71913 388.875 0.35132083 0.41820443 0.8376627 0.050287466
42.361198 -8.5112 377.46301 0.47131914 -0.11143325 0.8748948 0.085146807
21.7922 -24.4349 386.34201 -0.24521263 -0.96774763 0.057752054 0.08572416
38.736099 -12.9349 379.99799 0.93400079 0.1776146 0.30999291 0.11240424
44.323299 22.7096 363.715 0.79933894 0.21506141 0.56107563 0.12349072
44.296001 23.1677 363.53799 0.980914 0.16618723 0.10094333 0.13909331
17.775 -21.000601 387.60599 0.078302555 0.44508651 0.8920576 0.063746087
23.9097 65.881699 356.508 -0.29114127 0.37043461 -0.88205159 0.082729496
43.117001 30.788 359.74799 0.65580207 -0.037166625 -0.75401741 0.10002707
-8.8979301 36.633701 374.19 0.32496136 0.23291783 0.91659665 0.076808698
-1.8783 -17.0326 391.397 0.2746782 -0.55028307 0.7885052 0.078308143
-7.4968801 -15.8842 390.14499 -0.60948712 -0.45266974 -0.65085757 0.050484721
43.049999 30.2945 362.28101 0.85448605 0.25778952 0.45099685 0.11257249
37.331902 55.812099 358.52899 0.95331913 0.27140132 0.13237795 0.071466729
15.3033 60.728298 359.745 -0.54202545 0.83478862 0.09662468 0.096850261
1.25674 47.194801 360.327 -0.41184857 0.030821536 -0.9107309 0.043934036
3.3271 51.056801 362.26599 -0.72379529 0.65402228 0.21994367 0.11106028
-5.0752001 42.506302 364.04599 -0.75131661 0.2578851 -0.60746902 0.068766207
7.6360798 54.979698 361.02899 -0.59158117 0.79852313 0.11132212 0.11306883
31.684099 -26.6234 386.771 -0.03199286 -0.97008598 -0.24064434 0.072962552
42.318401 36.742001 359.745 0.98090088 0.19365342 0.018215397 0.052040204
41.964901 38.246601 359.776 0.98110688 0.15380976 0.11735379 0.10937142
-10.1722 38.474701 368.62 -0.46559647 0.83207083 -0.30145994 0.10336473
25.104601 -25.366199 385.57101 -0.083918445 -0.92515367 -0.3702004 0.076426573
10.1682 56.773201 361.05301 -0.57133186 0.80461413 0.16178988 0.11820751
29.568501 -23.508699 388.866 -0.092726216 0.45047221 0.88796204 0.055377658
41.3657 40.8358 359.73901 0.887182 0.30419245 0.34695113 0.11446104
45.305599 9.0620203 367.34601 0.9937979 0.10149335 -0.045440719 0.079636231
31.891199 -25.332701 389.43399 -0.15495458 -0.50226861 0.85071456 0.078526728
44.881901 17.750401 364.79901 0.9379704 0.11198453 0.32813254 0.058074802
44.525902 19.217501 364.797 0.8749873 0.21499375 0.43379125 0.1252249
-0.089153402 47.0215 360.827 -0.59818739 0.1731621 -0.78242362 0.070024803
44.303699 10.1134 368.63699 0.49855033 0.34181666 0.79662347 0.11966445
39.399799 -12.6873 376.67499 0.75215262 -0.44069427 -0.48995411 0.10318177
43.111198 -6.4168401 373.17401 0.26939565 -0.50281894 -0.82133985 0.068240203
39.191502 46.926201 357.23499 0.5934146 0.11272699 -0.79696405 0.077494025
-10.4683 0.641572 383.80499 -0.98627007 0.14773548 0.073794119 0.072015345
37.897701 -17.8461 382.54001 0.98237699 -0.094688259 0.16115066 0.11011654
37.940899 -18.711399 381.26599 0.84698766 -0.51782662 -0.12028103 0.081327125
45.238701 6.5757499 368.59799 0.98075414 -0.08591181 0.17532963 0.089174062
44.918598 6.56634 367.332 0.84430307 -0.26965263 -0.46307644 0.11694326
40.707298 39.459 361 0.48742822 0.28291523 0.82605851 0.10609881
5.3239598 52.796001 362.28299 -0.37758902 0.69097745 0.61642247 0.084133223
-8.1750402 -16.9046 391.39899 -0.77780807 -0.40523729 -0.48041373 0.11146764
-1.27993 46.2216 361.45999 -0.68433362 0.26758188 -0.67829746 0.074746355
-7.5993199 -10.3344 391.45099 -0.5987522 0.36404109 0.71342129 0.075762361
-5.7217798 -16.7129 393.92999 0.22297366 -0.49229506 0.84138477 0.060080312
-10.927 26.833599 372.41299 -0.97138906 -0.13784167 -0.19339855 0.064242058
21.6929 -24.2117 385.077 -0.14182489 -0.98725939 -0.072143242 0.07409443
-10.1888 17.4984 374.94199 -0.9907791 -0.10207088 -0.089096971 0.063925363
-9.6107903 16.5327 374.944 -0.74579257 -0.39673954 -0.5351553 0.039273109
12.2725 -21.9025 385.06699 -0.14019147 -0.98770201 -0.069217794 0.074245393
7.6335802 -20.2453 386.84 -0.18520315 -0.85228497 0.48919332 0.14217666
-3.85215 -15.3029 393.103 0.62635785 0.20593154 0.75184309 0.048224159
-10.3052 30.471201 374.978 -0.73987597 -0.012612391 0.67262506 0.089163445
-11.191 30.6518 373.686 -0.9176057 -0.039558087 0.39551851 0.01531048
6.9635301 53.262299 362.27802 -0.030719236 0.50353658 0.86342764 0.06542033
41.068699 41.862499 359.75299 0.92967266 0.16085869 0.33141103 0.091744319
-8.9098597 32.898998 375.54099 0.34177727 0.39436439 0.85303283 0.085325226
-11.4361 35.430698 369.918 -0.63450807 -0.23683466 -0.73573697 0.064742617
19.052999 63.314701 358.51001 -0.52456367 0.84689349 0.087202922 0.069963358
19.5557 63.6134 358.51099 -0.53776532 0.83855516 0.087371096 0.075105466
5.1852598 -20.290001 386.336 -0.21527082 -0.92945927 -0.29960626 0.052588675
-10.1871 8.31674 378.759 -0.98416972 -0.16193129 -0.072029404 0.039412878
-9.8151798 7.7254601 378.73801 -0.82348531 -0.45766985 -0.33527642 0.042657595
16.6299 -20.765699 387.60101 0.090693705 0.40127072 0.91145843 0.065834209
0.160676 47.483002 363.55099 -0.66516763 0.67334002 0.32274637 0.080958143
-1.13227 46.205898 363.55701 -0.66277599 0.72115058 0.20166774 0.085814692
-1.3218499 44.321201 366.289 0.13103767 0.53246135 0.83625001 0.06074769
41.8064 30.2519 359.229 0.29903552 -0.10049604 -0.94893533 0.046764672
8.8158197 53.258598 361.89801 0.11937163 0.21080324 0.97021258 0.046585251
-4.2950301 -16.8927 392.66901 0.53257442 -0.6148414 0.58166534 0.068101928
-4.12818 -17.681 391.40302 0.30880511 -0.76637942 0.56329566 0.11378925
-10.1412 -2.6989701 384.142 -0.70279521 -0.3531903 -0.61752367 0.049513042
-10.1619 -2.00827 383.797 -0.86829704 -0.26138982 -0.42158702 0.054419838
41.800301 34.390301 358.64999 0.42527935 -0.20154217 -0.8823368 0.071458898
38.0336 -16.112 378.76501 0.59061861 -0.52303922 -0.61449134 0.07068935
-2.16626 45.0508 364.81 -0.61383027 0.77463925 0.15213931 0.072953627
-2.4672599 45.0769 363.565 -0.76866883 0.63735688 -0.054077819 0.070350148
6.3315301 53.2393 358.73401 -0.55825722 0.14900327 -0.81617826 0.074664839
-11.044 31.8915 373.68701 -0.92875922 0.098803058 0.3572734 0.016937112
-10.597 31.871799 374.944 -0.76803833 0.12720259 0.6276437 0.054632809
23.319099 65.941399 358.50601 -0.53888202 0.83931804 0.071773246 0.040194176
39.294899 -12.2113 376.19901 0.50849575 -0.77104324 -0.38330713 0.10278147
-11.4236 35.619999 369.86801 -0.60291111 -0.17776252 -0.77775228 0.064849474
45.0728 16.6122 364.80301 0.95417869 0.15600987 0.25535065 0.07961113
-8.8926697 -12.6805 389.04001 -0.80089229 -0.43004018 -0.41669774 0.074251093
44.854698 19.615499 363.53101 0.99110007 -0.12237778 -0.052386839 0.042181261
-2.02193 45.703602 362.30701 -0.82124954 0.54528713 -0.16796173 0.091755003
19.5821 63.419201 359.73401 -0.28640527 0.70579106 0.64794368 0.097094052
21.5553 64.932098 357.22601 -0.40503582 0.88261038 -0.23863135 0.062992238
-10.7166 -2.1875601 385.09399 -0.99870962 0.050733451 0.0022910198 0.065699026
-7.6707902 27.569599 376.24301 0.33342949 0.10987496 0.93635052 0.080266207
-7.1782899 -12.7062 392.67599 -0.56885576 0.2049413 0.79649365 0.07097584
-10.1752 2.48651 381.45999 -0.92000103 -0.1809077 -0.34766433 0.058875401
-9.8233604 2.1721399 381.27701 -0.71706116 -0.33279964 -0.61242765 0.053135239
1.82845 49.482601 362.27301 -0.63968861 0.7348277 0.22544792 0.11125148
2.4876001 -19.157 386.34698 -0.18073481 -0.98241532 -0.046851669 0.076647483
40.352699 -11.3602 376.57401 0.4020347 -0.81736302 0.41265696 0.096963428
40.928501 -11.3965 376.21701 0.39617965 -0.89370209 0.21056643 0.10433216
37.015701 -21.8258 386.35501 0.97544527 0.069089845 0.20912455 0.13999277
-6.4135199 -6.4548101 390.177 0.26970381 0.51823848 0.81159639 0.081132323
41.787701 35.392601 361.48499 0.88934129 0.19377667 0.41415292 0.10242307
28 -24.448 388.86499 -0.26862079 -0.62082738 0.73648912 0.084289171
43.479698 -4.95964 372.39801 0.51046437 -0.51418668 -0.68923014 0.051510204
44.352798 -3.8592601 372.604 0.86402732 -0.38971066 -0.31871992 0.099854916
13.9853 59.8727 359.73199 -0.55014819 0.83218968 0.069262527 0.10754401
25.3675 67.109398 359.922 -0.61472261 0.76434231 0.19467139 0.090680331
-9.0672503 -10.1352 387.64999 -0.74951893 -0.27486494 -0.60222137 0.073436014
39.2966 46.8993 357.293 0.5934146 0.11272699 -0.79696405 0.078572303
17.8412 -22.115299 387.603 -0.10169851 -0.43346587 0.89541316 0.11326651
43.089199 29.010401 359.84399 0.59325385 -0.12612158 -0.79507434 0.098514937
44.864899 17.826799 363.53 0.97568977 0.018360484 -0.21838592 0.065544382
40.539902 32.931702 362.27802 -0.016390786 0.20521042 0.97858059 0.040020011
40.574402 33.016499 362.26501 -0.016390786 0.20521042 0.97858059 0.040022019
44.867901 1.85703 369.86801 0.94645125 -0.15638365 -0.28244331 0.10203051
44.4459 -4.5889401 373.67599 0.98123693 -0.18525547 -0.053427901 0.093060836
44.4631 -3.04392 373.67401 0.9889046 0.065032199 0.13356082 0.11013319
19.0163 63.0844 359.74399 -0.35171193 0.70613307 0.6145525 0.090688832
25.5063 64.601501 360.465 -0.16441935 0.034015317 0.98580384 0.04994129
-6.9689102 -7.8263302 391.40201 -0.066421315 0.45978633 0.88554204 0.077131435
44.814098 16.6136 363.55301 0.94320822 -0.13967088 -0.30141392 0.08625596
41.779701 33.954201 361.89999 0.48328432 0.14627635 0.86315668 0.11442266
26.665501 -25.0432 387.64899 -0.28650481 -0.67850173 0.67642474 0.098683417
44.345798 18.9307 362.565 0.61018598 -0.19518456 -0.76783854 0.095677547
43.155701 25.1693 360.509 0.35262117 -0.13564849 -0.92588216 0.048391379
25.378099 -24.4877 387.65601 -0.25136963 -0.51249111 0.82107621 0.091365188
40.567799 31.634399 362.51001 0.0028197176 0.19096911 0.981592 0.033109844
5.0459599 51.989201 359.09201 -0.29271197 0.25165808 -0.92249006 0.075381212
38.109699 -9.5836897 378.73599 0.30828542 0.32303265 0.89476812 0.045871757
44.338402 17.212799 362.94901 0.43454772 -0.21576121 -0.87442291 0.07195273
39.273102 48.217098 357.49301 0.75100535 0.22012107 -0.62252522 0.086469658
25.5676 65.9039 356.44901 0.0083090989 0.23690195 -0.97149801 0.061589058
44.462799 2.53264 368.797 0.59776092 -0.39484993 -0.69769293 0.077812448
-7.8801198 28.234501 376.19699 0.47114795 0.28278682 0.83549458 0.080216244
-5.6374898 -17.794201 390.14301 -0.38656116 -0.72781664 -0.56643921 0.076693334
-5.7744498 -18.477699 391.39801 0.13291706 -0.9873203 0.086785547 0.090488292
-9.7758999 34.275799 374.94299 -0.54015982 0.18638574 0.82066298 0.14522234
23.0256 -24.454599 385.06601 -0.22920473 -0.85531884 -0.46464494 0.077940188
-4.9155598 42.397499 367.367 -0.49377617 0.80110949 0.33824348 0.06341853
40.299099 45.661701 358.483 0.94515753 0.30448207 -0.11818592 0.068478346
20.573999 63.335899 356.37 -0.34780031 0.33671537 -0.87501866 0.059102915
-6.3627901 -17.716 392.745 0.13876931 -0.87150055 0.47035077 0.13835172
-9.9825497 33.876202 374.93201 -0.54015982 0.18638574 0.82066298 0.14683969
11.2727 -21.5987 385.08801 -0.14198282 -0.98929566 0.033689674 0.079831183
24.2768 66.445602 359.746 -0.53256404 0.844163 0.061354797 0.094818838
44.352699 21.100401 362.10001 0.77785611 -0.17522703 -0.60351914 0.079587348
12.9399 59.163502 359.76801 -0.50797021 0.80401915 0.30906218 0.12566444
11.8604 58.336899 359.733 -0.59618324 0.79128146 0.13579097 0.14063601
2.5376401 -19.1675 386.33099 -0.18073481 -0.98241532 -0.046851669 0.072187066
-8.6524897 -4.4127202 388.87701 -0.77748895 0.12893401 0.61553794 0.062920555
-10.1274 34.884499 374.452 -0.58209294 0.22961809 0.78002775 0.10498694
41.800999 25.2246 364.07101 0.059820961 0.26053753 0.96360868 0.036527373
-7.5855899 -14.1069 392.49301 -0.77998823 0.13960695 0.6100232 0.077252641
23.593599 66.023102 359.75101 -0.52656776 0.72314286 0.44697964 0.071018428
44.343601 20.248699 362.28601 0.77068627 -0.14174761 -0.62124896 0.078347646
44.363899 20.348 362.284 0.77068627 -0.14174761 -0.62124896 0.078368947
20.063999 -24.0716 385.21399 -0.12731907 -0.99158657 -0.023366388 0.082922034
-7.7380199 -6.3436699 390.14899 -0.45837143 0.34478027 0.81915945 0.075850882
28.000299 68.480797 357.23499 0.032319594 0.46194458 -0.88631976 0.068701632
-9.5037403 -9.3638201 387.60599 -0.76813036 -0.41551584 -0.48715734 0.084906429
39.260101 46.800301 360.01199 0.87285155 0.21556142 0.43779379 0.10586695
39.1441 47.858101 359.76801 0.87591892 0.24444284 0.4159492 0.14111644
-6.8133101 25.459101 376.21201 0.41165861 0.29300156 0.86295265 0.028464425
-8.8159103 -11.5034 390.16699 -0.88367325 0.052531589 0.46514735 0.071657129
-8.6653004 -10.3898 390.134 -0.772901 0.10232542 0.6262216 0.090587147
-6.3407302 -8.8724203 391.41901 0.52604705 0.20945345 0.82425952 0.065787144
-7.6554298 -15.3016 392.66599 -0.78186303 0.16390796 0.60151839 0.077896684
-7.5939798 -15.2756 392.73401 -0.78186303 0.16390796 0.60151839 0.081655346
-7.4172001 -14.0201 392.685 -0.77998823 0.13960695 0.6100232 0.06470897
40.7024 -7.6325002 377.83099 0.019098384 0.33204073 0.94307166 0.01780889
29.3039 -24.9119 388.866 -0.25511259 -0.44401395 0.85893488 0.078919336
29.1845 -25.319 388.39499 -0.28351325 -0.45869768 0.84215003 0.077455238
27.875799 -25.284401 387.89499 -0.2785866 -0.68912274 0.6689539 0.10371125
39.272499 45.773998 357.23999 0.50001907 0.001393848 -0.86601329 0.06139461
3.9103 -16.764799 388.867 0.41750857 0.41753921 0.80706108 0.073263377
24.105499 64.730904 360.461 -0.10884507 0.16980675 0.97944802 0.079219468
36.678902 55.361698 359.742 0.74882579 0.27449253 0.60325271 0.079856746
36.4786 55.8209 359.76801 0.72923708 0.30189687 0.61406153 0.12385644
23.3431 65.845703 359.73001 -0.36946157 0.79897344 0.47448874 0.09474235
-10.2409 24.654499 372.40302 -0.77906352 -0.11001047 -0.61721772 0.080761857
11.6797 57.875198 361.022 -0.48129997 0.83144939 0.27756479 0.095274292
30.6003 69.712799 357.73001 0.010747246 0.40183499 -0.91564906 0.06120991
-8.6708002 -15.5256 391.40302 -0.94308597 -0.30788469 0.12568143 0.074747249
38.951401 -14.3638 378.73999 0.9632228 -0.23804829 -0.124639 0.063737035
41.8125 33.871399 358.70901 0.41934443 -0.11950002 -0.89992779 0.052147925
25.5007 67.352997 358.504 -0.68101364 0.7253983 0.1000886 0.056116506
25.3361 67.129097 359.39301 -0.65694386 0.75260025 0.044917885 0.064953744
-8.9080095 38.722698 367.38901 -0.6472398 0.26432154 -0.71499282 0.084270351
6.58073 -20.2638 386.70999 -0.067833923 -0.93183154 0.35649478 0.083016269
6.9573798 -19.4949 387.60599 0.098637149 -0.54045558 0.83557075 0.096538529
-0.587538 46.994801 361.021 -0.76118201 0.37068066 -0.53216332 0.086984441
7.0558 54.595299 361.00601 -0.61694181 0.73375797 0.28457347 0.11431938
4.2866001 -18.136499 388.871 0.00080316747 -0.46017927 0.88782567 0.092413694
44.3288 -2.60342 373.763 0.9220916 0.039573055 0.38494298 0.12383387
35.527199 -21.586599 387.62 0.33166748 0.63624966 0.69655085 0.068423443
25.4568 67.1371 356.71899 -0.16839829 0.32051575 -0.9321543 0.08876241
8.9625397 -20.7325 385.082 -0.31863993 -0.8106485 -0.49124089 0.064295992
-8.2094898 -7.8660798 390.13101 -0.75481427 0.2222739 0.61713022 0.043947089
1.24796 48.159698 360.263 -0.40002018 0.27755448 -0.87346858 0.049364153
44.261799 20.0275 364.81299 0.88940537 0.17321064 0.4230321 0.12663361
44.301498 18.869699 365.23199 0.75576127 0.21513996 0.61849791 0.14263184
24.193199 65.8759 356.49899 -0.31856957 0.30396405 -0.89784145 0.099451184
24.135 66.422501 358.517 -0.52862126 0.84508795 0.079911813 0.11047167
8.3461905 -20.445801 385.07501 -0.28421786 -0.7952019 -0.53560627 0.084091783
-10.1089 29.2325 374.987 -0.87018603 -0.10117292 0.48222438 0.077631801
-9.5761204 29.3265 376.22101 -0.68279386 0.010234542 0.73053938 0.091466948
-8.4185896 -14.0749 391.401 -0.8607434 0.11515491 0.49584281 0.072199121
43.137699 21.4979 361.36099 0.37142783 -0.25056225 -0.8940134 0.047623184
43.085701 -5.22157 372.435 0.33587897 -0.49316439 -0.80248004 0.047564264
