# .PCD v0.7 - Point Cloud Data file format
VERSION 0.7
FIELDS x y z normal_x normal_y normal_z curvature
SIZE 4 4 4 4 4 4 4
TYPE F F F F F F F
COUNT 1 1 1 1 1 1 1
WIDTH 624
HEIGHT 1
VIEWPOINT 0 0 0 1 0 0 0
POINTS 624
DATA ascii
-2.7653499e-05 -0.080008902 -1.3 0.014800634 0.55288756 -0.8331244 0
-0.075046897 -0.120074 -1.35017 0.092927977 0.088901728 0.99169594 0
-0.0099499496 -0.12503099 -1.32444 -0.61210936 0.67799497 0.40699506 7.5670813e-36
0.0050286101 -0.044999201 -1.2984101 -0.54286289 -0.83931601 -0.029129099 7.5536073e-36
-0.0052848798 -0.0449287 -1.29493 0.76135308 -0.56173921 -0.32371363 7.5613674e-36
-0.040034201 -0.087145299 -1.30497 -0.74903554 -0.65052867 -0.12553166 3.1529215e-43
-0.0449435 -0.10479 -1.33015 -0.4562358 -0.16037354 0.87528807 0
-0.074984603 -0.105006 -1.34553 0.91682971 -0.33031833 -0.2243057 2.0739217e-43
-0.0299489 -0.075014502 -1.30268 0.80483419 -0.55864251 -0.20040083 0
-0.039954498 -0.085033901 -1.31161 0.75260329 -0.52119029 -0.40242881 2.9567398e-43
-0.065068901 -0.120363 -1.34496 -0.40659606 -0.1922529 0.89315087 0
-0.0157289 -0.0398762 -1.3099999 0.76114899 -0.45629898 -0.46091586 1.9898438e-43
-0.0104157 -0.076367199 -1.3099999 -0.3927041 -0.14959888 0.90741593 1.835701e-43
-0.0255768 -0.049853999 -1.31499 0.8758108 -0.46757963 0.1196858 3.9937006e-43
-0.040393401 -0.079562098 -1.32998 -0.79148543 0.25081155 0.55735487 7.5459046e-36
-0.055192001 -0.089022003 -1.32999 0.80563933 -0.32974657 -0.49215087 1.779649e-43
-0.035712499 -0.079818398 -1.3099999 0.90743953 -0.31666574 -0.27618164 2.9847657e-43
-0.00270693 -0.120519 -1.3200001 -0.26881689 0.960886 0.066600107 7.5513086e-36
-0.055116899 -0.140003 -1.34312 0.27625728 0.89561456 -0.34864947 7.442119e-36
5.1851901e-05 -0.0398601 -1.3057801 -0.99383909 -0.11047693 -0.008873417 7.560825e-36
-0.019990001 -0.084881 -1.3151799 -0.40114716 -0.12792702 0.90703672 3.671402e-43
-0.0750902 -0.13002799 -1.3457201 0.7524159 0.62436765 0.20984592 2.0318828e-43
-0.0550218 -0.121141 -1.33999 -0.37021986 -0.39050627 0.84287727 4.1898824e-43
-0.044987101 -0.075017899 -1.33657 -0.50235415 0.28737938 0.81550807 0.0015442566
-0.049689401 -0.139915 -1.34075 0.34278393 0.81712294 -0.46347523 1.3452465e-43
-0.0207981 -0.079792999 -1.31497 -0.3670449 -0.047171559 0.9290064 7.5884108e-36
-0.034773801 -0.095671803 -1.30998 -0.027493829 0.49420056 -0.86891305 7.4419676e-36
0.00979988 -0.064937502 -1.29521 0.0093781408 -0.45840174 -0.8886956 7.5472226e-36
-0.060892198 -0.126269 -1.345 -0.3976382 -0.40225649 0.82466573 7.5482349e-36
-0.020625001 -0.0748135 -1.31499 -0.35729536 0.04890928 0.93270999 7.5473603e-36
-0.0079305395 -0.0344618 -1.3049901 -0.31783825 -0.52558249 -0.78913999 7.5621136e-36
-0.0199917 -0.0450304 -1.31152 0.75503772 -0.41797867 -0.50518501 5.0727004e-43
-0.0345782 -0.104979 -1.32543 -0.27637893 -0.25283083 0.92719537 0
-0.034988001 -0.080058202 -1.30788 0.71754497 -0.63080311 -0.29532474 7.5635119e-36
-0.00602302 -0.039848201 -1.29998 0.17337827 -0.79930264 -0.57537401 7.5621136e-36
-0.0450444 -0.141357 -1.33999 0.34919685 0.80381721 -0.48160088 7.5468667e-36
-0.0201796 -0.082974501 -1.31499 -0.43445 -0.097589053 0.89539355 2.0879347e-43
-0.0250255 -0.069889501 -1.29996 0.69653982 -0.58059812 -0.42159 2.6344411e-43
-0.071648099 -0.099308401 -1.34496 0.9104135 -0.38840997 -0.14242528 3.9937006e-43
0.011735 -0.049989499 -1.29498 -0.3367641 -0.94155461 0.0080555044 2.1019477e-43
-0.059998501 -0.114971 -1.34042 -0.49793857 -0.18324153 0.84763181 5.0166485e-43
-0.0309854 -0.089993201 -1.30647 -0.13257745 0.55970913 -0.81801522 2.1019477e-43
-0.0048103901 -0.114868 -1.32533 -0.17080908 -0.08155071 0.98192352 2.718519e-43
-0.044879299 -0.090027601 -1.31524 0.5629431 -0.77242064 -0.29404321 2.0879347e-43
0.025029199 -0.054980099 -1.29365 -0.86803257 -0.49565402 -0.029095955 0
-0.049967699 -0.114933 -1.33531 -0.40202177 -0.30201495 0.86438733 4.2459343e-43
-0.029935399 -0.0613502 -1.3259701 -0.74074316 0.19584496 0.64260739 2.0178698e-43
-0.0111188 -0.074697897 -1.30999 -0.39427021 -0.095743597 0.91399354 3.3631163e-43
-0.0099603701 -0.050321899 -1.29677 0.70657641 -0.52526981 -0.47417444 4.0357396e-43
-0.070541397 -0.114955 -1.32991 0.91754913 0.054158181 -0.39391685 7.562722e-36
3.1908799e-05 -0.115232 -1.32129 -0.99038392 0.085445538 -0.10880617 3.4471942e-43
-0.019929601 -0.0500964 -1.32084 0.12860984 0.7770254 0.61619079 7.5862642e-36
-0.0591169 -0.134941 -1.34901 -0.2771613 -0.46249115 0.84218973 2.1159607e-43
-0.0607628 -0.109012 -1.31999 0.55491436 -0.41448453 -0.72129929 0
0.0047899601 -0.045088101 -1.3 -0.54286289 -0.83931601 -0.029129099 2.1439867e-43
-0.032749001 -0.079490103 -1.2999901 0.80661958 -0.15140787 -0.57134974 3.4191683e-43
-0.050003201 -0.140012 -1.3480099 0.42526257 0.79301721 0.43620577 2.1860256e-43
-0.0249888 -0.081080697 -1.3 -0.12524228 0.62386793 -0.7714293 2.2280646e-43
-0.029899299 -0.081846602 -1.2999901 -0.14667752 0.20390154 -0.96794105 2.1579996e-43
-0.0351821 -0.059997302 -1.32643 0.37690303 -0.66248357 0.64734817 0
-0.0399273 -0.10498 -1.31662 0.08679685 0.58339828 -0.80753499 0.78395033
-0.016015301 -0.0912292 -1.31499 -0.25092801 -0.38654566 0.88747823 6.7262326e-44
-0.069994599 -0.124983 -1.33541 0.12637481 0.7392363 -0.66148251 0.93348145
-0.031681899 -0.14510299 -1.34668 0.030174708 0.81064278 0.58476299 0
-0.074984901 -0.115029 -1.33916 0.7518869 -0.46764314 -0.4647322 4.6242849e-43
-0.0247878 -0.14625999 -1.33992 0.036484256 0.93645948 0.3488732 7.3252813e-36
-0.020170299 -0.064775497 -1.295 0.80228597 -0.551036 -0.22955728 3.3070644e-43
-0.0417368 -0.145119 -1.34499 -0.10075469 0.97337699 0.20587783 2.1720126e-43
-0.078919902 -0.114993 -1.34498 0.93464136 -0.14689179 0.3238337 2.2140516e-43
-0.059837598 -0.129972 -1.3463 -0.28712752 -0.40408093 0.86849087 0
-0.060005799 -0.083652601 -1.34216 0.81753737 -0.32719624 0.4738937 0
-0.019686 -0.129981 -1.33722 -0.40005913 -0.26171276 0.87832743 2.2140516e-43
-0.070071101 -0.13055401 -1.35113 0.50645524 0.35910726 0.78392929 4.6803369e-43
-0.019801401 -0.071849898 -1.2949899 -0.0055345944 0.33151829 -0.94343257 0
-0.064883597 -0.134839 -1.34179 0.19855599 0.90962678 -0.36490366 4.0637655e-43
-0.065005898 -0.089957401 -1.34532 -0.019187473 -0.99963862 -0.018827265 0
-0.047739699 -0.096485801 -1.3099999 0.77135205 -0.25525582 -0.58297551 2.2140516e-43
-0.055770401 -0.114999 -1.32502 -0.0071847793 0.99236453 -0.12313034 2.2140516e-43
-0.054917201 -0.114978 -1.32502 -0.0071847793 0.99236453 -0.12313034 2.3541814e-43
-0.054958999 -0.100066 -1.3216701 0.73786968 -0.55367184 -0.38599971 2.2280646e-43
0.019949701 -0.064953402 -1.29502 -0.23468098 0.34538358 -0.90864462 9.1925179e-43
-0.0122156 -0.060063198 -1.29 0.63803422 0.23350297 -0.73374975 9.8651412e-43
-0.069888897 -0.105182 -1.35164 -0.20568089 0.40797907 0.88952148 4.3580382e-43
-0.0323704 -0.145707 -1.33998 0.0024369871 0.99907839 -0.042853303 7.5653049e-36
0.0051703998 -0.091439798 -1.3049999 -0.59006745 0.52715641 -0.61149532 4.8204667e-43
-0.029770199 -0.052420899 -1.3200001 -0.48099282 0.71796584 -0.50316095 0
-0.0120075 -0.069781803 -1.30999 -0.54189301 -0.032660238 0.83981264 7.580617e-36
-0.079756796 -0.116609 -1.34497 0.93292481 -0.19929834 -0.29988569 7.5556263e-36
-0.0276116 -0.069610998 -1.30498 0.75921905 -0.49376488 -0.42400786 3.0408177e-43
-0.080266997 -0.119472 -1.34497 0.96159488 -0.20064333 -0.18728986 2.5643762e-43
-0.0149917 -0.124991 -1.33271 -0.50041676 -0.20068209 0.84220529 1.2331426e-43
0.0300283 -0.0652145 -1.30226 -0.57279539 0.17260392 0.80131972 6.7262326e-44
-0.039973799 -0.109936 -1.32915 -0.34744295 -0.27262294 0.8971957 8.0714792e-43
-0.0199917 -0.13588101 -1.33442 -0.97678149 0.2137948 0.013775007 2.2701035e-43
0.018571701 -0.079467699 -1.308 -0.72923768 0.064502709 0.6812135 7.4897931e-36
-0.074095704 -0.124991 -1.33601 0.061247509 0.73531479 -0.67495257 7.5659592e-36
-0.065433197 -0.13504 -1.3458101 -0.058535356 0.94448733 0.32329139 2.2000386e-43
-0.024571 -0.140811 -1.335 0.027141871 0.99531949 0.092749357 2.0178698e-43
0.029854 -0.064916603 -1.2973 -0.70545423 -0.18694828 -0.68365538 6.8692784e-06
0.0088168401 -0.049876601 -1.29 -0.65730369 -0.32031021 -0.68216807 1.3592595e-43
-0.0299596 -0.094932802 -1.32113 -0.43003204 -0.13255751 0.89302909 5.3809861e-43
-0.065749303 -0.114882 -1.34498 -0.14656606 0.01120533 0.98913741 2.0178698e-43
-0.080009401 -0.115752 -1.34662 0.93464136 -0.14689179 0.3238337 1.3592595e-43
-0.034774899 -0.104969 -1.3156199 0.18588693 0.54959184 -0.81449056 3.6994279e-43
-0.075008802 -0.104929 -1.35115 0.28504407 -0.43825072 0.85245889 0.033488512
-0.040245499 -0.143408 -1.34 0.30858511 0.74808913 -0.58748436 1.2191297e-43
-0.0020934199 -0.059875399 -1.30495 -0.51906186 -0.034639314 0.85403448 4.4281031e-43
-0.044211902 -0.096548401 -1.30999 -0.037375838 0.3366262 -0.94089633 2.0178698e-43
-0.0099411104 -0.079790898 -1.3103499 -0.22137573 -0.12300074 0.96740043 6.7262326e-44
-0.078607798 -0.119528 -1.33996 0.81294036 -0.5140568 -0.27363029 0.78144652
-0.034994401 -0.064617597 -1.3301001 -0.089786202 -0.6332708 0.76870447 0.78450489
0.000107922 -0.104987 -1.31977 -0.079586022 -0.21446764 0.97348326 0.85404783
-0.0122737 -0.034563001 -1.3099999 0.75054312 -0.55194181 -0.36338031 4.6803369e-43
-0.0299957 -0.095724598 -1.3099999 -0.023413653 0.43343329 -0.90088147 0
-0.054993801 -0.10988 -1.3362401 -0.53059894 -0.13882685 0.83617693 2.0178698e-43
-0.045669001 -0.099775203 -1.32998 0.10390759 0.0054293834 0.99457216 2.6904931e-43
-0.029902101 -0.145096 -1.34609 -0.11159769 0.93637675 0.33278301 2.2000386e-43
0.0101919 -0.0649959 -1.2951601 0.0093781408 -0.45840174 -0.8886956 4.0637655e-43
-0.059370302 -0.104723 -1.32498 0.81383359 -0.44537473 -0.37325087 2.0178698e-43
0.0249906 -0.064966999 -1.29636 -0.21169065 0.35281625 -0.91143173 2.2140516e-43
8.2678898e-06 -0.110403 -1.32173 -0.35581544 0.044097118 0.93351531 2.0178698e-43
-0.0450649 -0.0699917 -1.334 0.25696391 -0.76111305 0.5955472 2.5559684e-42
0.0101902 -0.086332403 -1.31014 -0.55065173 0.35188702 0.75694001 5.3809861e-43
-0.054965202 -0.114796 -1.33766 -0.43000904 -0.27987975 0.858347 0
-0.0498254 -0.096102402 -1.31499 0.71904165 -0.60533679 -0.34138909 0
-0.073823497 -0.109278 -1.35402 0.77852166 -0.25414976 0.57385701 5.2268433e-43
-0.0549923 -0.080058098 -1.3342299 0.76856399 -0.25032023 -0.5887692 4.7924407e-43
-0.061199501 -0.089983799 -1.34737 -0.019691572 -0.94162118 0.33609784 2.3822074e-43
-0.076428197 -0.129952 -1.34499 0.43723121 0.8496657 -0.29478315 0
-0.044922698 -0.109928 -1.3314101 -0.43176571 -0.24652801 0.86764181 0
-0.00158541 -0.064434104 -1.3049901 -0.38671899 -0.10968278 0.91565174 1.4153114e-43
0.0054633501 -0.051343601 -1.29 -0.10768466 0.16363849 -0.98062557 1.4573504e-43
-0.056369901 -0.0838551 -1.33499 0.81734043 -0.23010658 -0.52820975 2.4102334e-43
4.7923699e-05 -0.064631097 -1.30445 -0.27905506 -0.15792955 0.94719929 3.1949605e-43
-0.0249466 -0.084900796 -1.31758 -0.47569495 -0.047070835 0.87834996 0
0.0101321 -0.054996599 -1.3001 -0.18238036 -0.16178761 0.96982586 2.4242463e-43
-0.050948001 -0.14105999 -1.345 0.048620965 0.99641234 0.069270931 5.8153886e-43
-0.059916999 -0.119934 -1.34196 -0.44116148 -0.30478448 0.84408706 0
-9.9897799e-05 -0.067619003 -1.3049901 -0.29329368 -0.18622983 0.9377085 3.0828566e-44
-0.049897499 -0.119967 -1.33725 -0.32311359 -0.40221131 0.85663509 3.2930514e-43
-0.034901999 -0.059963301 -1.32636 -0.11877012 -0.92511171 0.36064112 0
0.0036484101 -0.099675603 -1.31499 -0.84039426 0.080918923 0.53590077 3.629363e-43
-0.069952197 -0.12995499 -1.35114 -0.40632793 0.42847785 0.80703431 0
0.00450574 -0.045233998 -1.295 -0.47590002 -0.86398435 -0.16446961 0
-0.00048227701 -0.109977 -1.3135999 -0.18499926 0.4921357 -0.85063374 6.1096613e-43
-0.075017802 -0.115539 -1.35278 -0.042462543 0.047880702 0.99795008 7.583522e-36
0.020020301 -0.080023304 -1.30662 -0.72923768 0.064502709 0.6812135 7.539568e-36
0.000133398 -0.117456 -1.31999 -0.89612341 0.37385324 -0.239158 0
-0.058036398 -0.13560501 -1.33999 0.2748917 0.75903517 -0.59016955 7.5853932e-36
-0.064968102 -0.110014 -1.3280801 0.88166434 -0.29081386 -0.37161171 7.539568e-36
-0.029842 -0.073330402 -1.3049901 0.83043218 -0.46387702 -0.30854583 0
-0.039513599 -0.096096501 -1.30998 -0.052683212 0.61485815 -0.78687608 7.5541346e-36
-0.0395854 -0.0852708 -1.3099999 0.7491861 -0.62176025 -0.22832957 7.5527923e-36
-0.044888001 -0.091891803 -1.30994 0.88356709 -0.38047162 -0.27303934 7.5527923e-36
-0.00499947 -0.118268 -1.3260601 -0.51937628 0.034782879 0.85383749 0
-0.024990199 -0.055782299 -1.32341 -0.2332195 0.075752974 0.96946901 7.5551793e-36
-0.074862003 -0.12996 -1.34115 0.28277269 0.90127665 -0.32823777 7.4903671e-36
-0.027180601 -0.14496499 -1.34496 -0.37138131 0.68059975 0.63155359 2.3541814e-43
-0.029686 -0.087904699 -1.30498 -0.067246012 0.60171556 -0.79587454 5.0446745e-44
-0.0213139 -0.139928 -1.33489 -0.75441009 0.6399678 -0.14596784 7.4903671e-36
-0.071623303 -0.119998 -1.34996 0.092927977 0.088901728 0.99169594 7.5410488e-36
-0.0148442 -0.054382 -1.29995 0.75178117 -0.46094218 -0.47154787 7.5548579e-36
-0.0633917 -0.120071 -1.32996 0.081110142 0.67490047 -0.73343742 7.5410488e-36
-0.0399605 -0.14491799 -1.34148 0.070466757 0.95993447 -0.27121985 2.2420775e-43
-0.016693801 -0.059749998 -1.2949899 0.75886196 -0.55804145 -0.33573538 0
-0.019818099 -0.094928898 -1.31724 -0.24214792 -0.33729813 0.90972215 7.5410488e-36
-0.034755401 -0.099967398 -1.31278 0.12015752 0.50298333 -0.85590303 7.5854627e-36
-0.0348619 -0.089269601 -1.30498 -0.054149527 0.093872078 -0.99411058 2.9427268e-43
0.0050025401 -0.059848301 -1.30211 -0.26826394 -0.15486097 0.95081675 7.5855316e-36
-0.017389899 -0.089879297 -1.31499 -0.3263886 -0.16094233 0.93143332 7.5619873e-36
-0.0350243 -0.094967201 -1.30941 -0.027493829 0.49420056 -0.86891305 7.4167265e-36
-0.040108599 -0.064934798 -1.33074 0.28203461 -0.54698294 0.78820437 7.5703214e-36
-0.0060942201 -0.104912 -1.31999 -0.03551669 -0.26876992 0.96254939 9.8090893e-44
-1.65027e-05 -0.040029202 -1.3020999 -0.48391917 -0.85374421 -0.1922057 1.0789998e-43
-0.048797201 -0.074992798 -1.33848 -0.10476228 -0.71118635 0.69515383 0
0.0129569 -0.058066901 -1.29998 -0.11703246 -0.21499665 0.96957713 7.4322352e-36
-0.056319099 -0.0995728 -1.32496 0.84775895 -0.36622846 -0.38364238 7.5690701e-36
-0.019985 -0.13428199 -1.32998 -0.63939542 0.72895986 -0.24452208 0
-0.054993499 -0.085052103 -1.3322099 0.80718493 -0.27513608 -0.52225727 6.7262326e-44
-0.024978399 -0.14 -1.34392 -0.51325625 -0.26992586 0.81468278 0
-0.024967499 -0.13490599 -1.341 -0.21524502 -0.082424276 0.97307545 2.774571e-43
-0.00492045 -0.045059402 -1.2940201 0.71944302 -0.60405034 -0.34281915 3.8675838e-43
-0.050309598 -0.074931003 -1.33792 0.2834869 -0.7791394 0.55908585 2.746545e-43
-0.070487402 -0.13003699 -1.33997 0.20881802 0.70912939 -0.67344677 7.5467197e-36
-0.076953098 -0.109585 -1.34996 0.84578139 -0.15491512 0.510544 7.562458e-36
-0.0274908 -0.094690703 -1.31995 -0.39990517 -0.15250075 0.90378058 7.5718941e-36
-0.039560199 -0.102792 -1.31499 0.013864953 0.5992974 -0.8004064 7.5718941e-36
0.025063399 -0.080061898 -1.3024 -0.62816131 0.67345732 -0.38970324 5.7172977e-43
-0.042288799 -0.145016 -1.34655 0.22746456 0.84728032 0.47997493 2.774571e-43
-0.021288199 -0.064375997 -1.29998 0.82127309 -0.50133806 -0.27234292 0
-0.055541199 -0.13892201 -1.34499 0.53186154 0.64555305 0.54807353 2.760558e-43
-0.064690404 -0.11999 -1.33016 0.081110142 0.67490047 -0.73343742 2.5924022e-43
-0.0249321 -0.089992903 -1.30638 0.052979726 0.50366467 -0.86227316 5.479077e-43
-0.072305299 -0.118793 -1.32998 0.66634649 0.11065931 -0.73738515 0
-0.0249239 -0.094764799 -1.31884 -0.33471557 -0.21310906 0.91790521 0
-0.074174397 -0.124431 -1.34999 0.025129681 0.14781779 0.98869532 0
-0.034797899 -0.114988 -1.33056 -0.16023217 -0.58441812 0.79547542 2.7885839e-43
0.0138064 -0.051446199 -1.2949899 -0.42589632 -0.7916283 0.43810609 0
-0.048673801 -0.074463397 -1.32999 0.82909924 -0.34096959 -0.44309613 0
-0.0099868402 -0.124874 -1.32495 -0.61210936 0.67799497 0.40699506 2.7885839e-43
-0.0553114 -0.079705603 -1.33499 0.80098617 -0.48465282 -0.35147232 0
0.024856299 -0.0699993 -1.29805 -0.24823183 0.30760917 -0.91856277 0
-0.049084298 -0.109999 -1.32086 0.014885359 0.68370903 -0.72960293 0
-0.054086599 -0.139405 -1.345 0.39825335 0.81538045 0.42017731 2.8025969e-43
-0.0236165 -0.069848597 -1.29498 0.77779394 -0.16921109 -0.6053133 0
0.0099774199 -0.054155 -1.29998 -0.30461699 -0.18246245 0.93483472 3.8255448e-43
0.030139601 -0.069817498 -1.2999901 -0.98479503 -0.073790386 -0.15726954 3.8115318e-43
-0.050078999 -0.113815 -1.33498 -0.39440876 -0.26037097 0.88127673 3.1529215e-43
-0.0046786 -0.056256499 -1.2899899 -0.036556456 0.17830987 -0.98329508 0
-0.0234237 -0.14491899 -1.33997 -0.86605841 0.27890962 0.41491237 2.8446359e-43
0.030257899 -0.059982799 -1.30084 -0.63750321 -0.20906226 0.74154073 3.9796876e-43
-0.039866298 -0.0998789 -1.32674 -0.45336869 -0.13151832 0.88156664 2.8446359e-43
-0.025088301 -0.098647803 -1.3200001 -0.23376013 -0.27048585 0.93391305 3.1669345e-43
-0.0380705 -0.084509701 -1.30498 0.83521855 -0.39683521 -0.38069907 2.8446359e-43
-0.069977596 -0.124873 -1.34939 0.17917481 -0.11515944 0.97705406 3.2229865e-43
-0.0299455 -0.0551279 -1.31731 0.88468087 -0.28158385 -0.37155122 3.9516617e-43
-0.00120911 -0.104995 -1.31994 -0.030130195 -0.31950647 0.94710493 0
-0.037438199 -0.064977102 -1.33112 -0.089786202 -0.6332708 0.76870447 5.0586875e-43
-0.022482701 -0.072268702 -1.29498 0.7721411 0.60389107 -0.19777188 0
-0.045524899 -0.104954 -1.3168 -0.034350999 0.58269238 -0.81196648 6.7262326e-44
0.020116299 -0.064799801 -1.2949899 -0.23468098 0.34538358 -0.90864462 3.8339526e-42
0.0050570499 -0.064896002 -1.3030601 -0.20979378 -0.22785251 0.95082587 7.5397287e-36
-0.067687601 -0.129999 -1.35 -0.43027705 -0.079834834 0.89915967 0
-0.00112545 -0.119703 -1.31998 -0.89612341 0.37385324 -0.239158 0
-0.063600004 -0.109901 -1.32497 0.88677466 -0.10070762 -0.45109713 4.9185576e-43
-0.058293 -0.104763 -1.3200001 0.8869797 -0.39917788 -0.23221552 0
-0.0095334696 -0.052990202 -1.2899899 0.37471923 -0.25790456 -0.89054519 0
-0.052506801 -0.074797302 -1.33495 0.67512208 -0.49925727 0.54309511 0
-0.064972997 -0.119689 -1.34471 -0.53071654 -0.17722665 0.82881284 0
0.0050021 -0.0899904 -1.31198 -0.40747264 -0.15131103 0.90059483 7.4214331e-36
-0.054984201 -0.119691 -1.33944 -0.40347323 -0.31765398 0.85808235 0
-0.044781901 -0.066969797 -1.32999 0.71605146 -0.69747412 0.028287578 1.1770556e-36
-0.0624617 -0.115134 -1.32499 0.011099569 0.0038141878 -0.9999311 0
-0.0143399 -0.035167798 -1.31499 0.40475869 -0.51452243 0.75593454 1.1869465e-36
-0.032236401 -0.082048401 -1.29997 0.80661958 -0.15140787 -0.57134974 1.1866538e-36
-0.059925701 -0.089980602 -1.34663 -0.019691572 -0.94162118 0.33609784 1.1855346e-36
-0.053085499 -0.103748 -1.31499 0.62688881 -0.35180658 -0.69515651 1.1868518e-36
-0.050267 -0.109968 -1.3207999 -0.013115179 0.64367777 -0.76518428 1.1850352e-36
0.0195469 -0.069960602 -1.29684 -0.19749853 0.35444734 -0.91398108 1.1860669e-36
-0.0150296 -0.054571301 -1.29998 0.75178117 -0.46094218 -0.47154787 1.1867012e-36
-0.039959598 -0.139982 -1.34642 -0.23532198 -0.21055734 0.94883567 1.1865275e-36
-0.01499 -0.12817401 -1.32999 -0.81725121 0.5362674 0.21099228 1.1786971e-36
-0.077373698 -0.114168 -1.34996 0.84315807 0.007684974 0.53761077 1.1854944e-36
0.0025138899 -0.109633 -1.3150001 -0.90342402 0.42196089 -0.075986922 1.1784934e-36
-0.034981899 -0.065116704 -1.32964 -0.08068265 0.028601333 0.99632943 7.4121233e-36
0.0050583198 -0.097915903 -1.30999 -0.99438202 0.10510559 0.012536674 0
-0.0097549101 -0.0317332 -1.30998 -0.2010185 -0.94222218 -0.26797181 0
0.0200177 -0.080940701 -1.30498 -0.074430913 0.98287195 0.16859064 0
-0.0149468 -0.042661801 -1.31881 -0.55388737 0.21405274 0.80460566 0
-8.0349098e-05 -0.039483398 -1.3049901 -0.99383909 -0.11047693 -0.008873417 0
-0.080024198 -0.12805399 -1.3436199 0.77027267 0.24736774 0.58778334 0
-0.0043691602 -0.119219 -1.32499 -0.51937628 0.034782879 0.85383749 0
0.0150347 -0.083666898 -1.30857 -0.58842361 0.6720627 0.44954354 0
-0.00486858 -0.034777001 -1.30998 -0.39450309 -0.20836554 -0.89495873 0
0.0026104299 -0.0800386 -1.29997 -0.045093741 -0.45559838 -0.88904256 0
-0.047253799 -0.094848298 -1.30998 0.77135205 -0.25525582 -0.58297551 0
-0.044783302 -0.13989399 -1.34781 -0.15311876 0.50381833 0.85013044 0
-0.0149903 -0.074750602 -1.3117501 -0.39552638 -0.096443862 0.91337693 0
-0.059980001 -0.105087 -1.32551 0.74745524 -0.54757452 -0.37612864 0
-0.0567757 -0.129621 -1.345 -0.26452622 -0.39990044 0.87755656 0
-0.0149878 -0.12665799 -1.3332601 -0.8513754 0.47301638 0.2267496 0
-0.0311337 -0.094995797 -1.30978 -0.023413653 0.43343329 -0.90088147 0
-0.0048627499 -0.079980597 -1.3092 -0.16212101 -0.25507668 0.95323277 0
-0.0747789 -0.117883 -1.33498 0.66044146 -0.60440832 -0.44554198 0
-0.065044902 -0.114023 -1.325 0.059714988 -0.32926887 -0.9423461 0
-0.074993297 -0.12409 -1.33497 0.010955744 0.10349265 -0.9945699 0
-0.0413513 -0.0647659 -1.32496 0.87474918 -0.47224393 -0.10862566 0
-0.0049462998 -0.074969798 -1.30803 -0.24793987 -0.20192772 0.94749725 0
-0.072137699 -0.114867 -1.3349 0.76855135 -0.52463311 -0.36618155 0
-0.0113914 -0.064617999 -1.30996 -0.51119542 0.055788118 0.85765201 0
-0.0602604 -0.0848701 -1.33997 0.79690897 -0.35502973 0.48876372 0
-0.049993102 -0.104934 -1.33279 -0.54010391 -0.014838886 0.8414675 0
-0.0046505602 -0.043975201 -1.29497 0.54673916 -0.72259176 -0.42300993 0
-0.0756758 -0.104812 -1.34993 0.9159416 -0.31964949 0.24264206 0
-0.00067923102 -0.114957 -1.31657 -0.23050579 0.77741683 -0.58522666 0
-0.039998699 -0.070215002 -1.3332 -0.46468174 0.2282193 0.85556227 0
-0.065697901 -0.109681 -1.32998 0.82493347 -0.39520288 -0.40410328 0
0.00174194 -0.069467597 -1.30498 -0.14703558 -0.1887352 0.97095805 0
0.0151401 -0.085107699 -1.30436 -0.79043132 0.55508554 -0.25903356 0
-0.0190528 -0.0499794 -1.3200001 -0.65615028 0.025462857 0.75420058 0
-0.057834901 -0.0897943 -1.34498 -0.69179344 0.15111834 0.70610559 0
-0.025460999 -0.1407 -1.335 0.027141871 0.99531949 0.092749357 0
-0.064963304 -0.10018 -1.34828 -0.60597229 0.23796502 0.75905877 0
-0.082093902 -0.124866 -1.33999 0.80016983 -0.25008786 0.54514611 0
-0.0149472 -0.084787302 -1.31301 -0.34617808 -0.17446458 0.92180413 0
-9.4782999e-06 -0.094961502 -1.30632 -0.12044074 0.6929667 -0.71083838 0
-0.074716903 -0.115569 -1.3528399 -0.042462543 0.047880702 0.99795008 0
-0.042774301 -0.14491799 -1.34499 0.061265018 0.98057252 0.18634406 0
-0.054314598 -0.077303797 -1.34 0.21503283 -0.7375614 0.64012814 0
-0.0144086 -0.119917 -1.31999 0.080472171 0.59754872 -0.79778427 0
-0.0148387 -0.119953 -1.32007 0.080472171 0.59754872 -0.79778427 0
-0.049807999 -0.0798923 -1.33995 -0.55830181 0.23128305 0.79674792 0
-0.06498 -0.096215203 -1.3497601 0.00087231363 0.1070753 0.99425054 0
0.00502093 -0.094890401 -1.31355 -0.69876409 0.15011805 0.69942355 0
-0.0299221 -0.089938998 -1.32057 -0.46493721 -0.061365146 0.88321441 0
0.0078642899 -0.079970099 -1.30035 -0.057644621 0.69782352 -0.7139464 0
-0.064954899 -0.11973 -1.32998 0.083664425 0.75134552 -0.65458393 0
-0.029919101 -0.144485 -1.3465199 -0.40600905 -0.24271443 0.88104844 0
-0.00244179 -0.105462 -1.31999 -0.030130195 -0.31950647 0.94710493 0
-0.039955299 -0.068957001 -1.33345 -0.43112805 -0.36256433 0.82624191 0
-0.052567299 -0.109852 -1.335 -0.40404469 -0.17174067 0.89847261 0
-0.0653909 -0.119591 -1.34496 -0.53071654 -0.17722665 0.82881284 0
-0.041978698 -0.064962797 -1.32999 0.32248211 -0.9351694 0.14650415 0
-0.039972398 -0.0802591 -1.32944 -0.79148543 0.25081155 0.55735487 0
-0.069668896 -0.129949 -1.33964 0.20881802 0.70912939 -0.67344677 0
-0.069923699 -0.13281199 -1.34999 0.50645524 0.35910726 0.78392929 1.1924624e-36
-0.049833301 -0.0929344 -1.31994 0.80333054 -0.4527624 -0.38686725 0
0.023692099 -0.0539288 -1.29497 -0.37227634 -0.92787707 0.021317745 0
-0.049991399 -0.095014103 -1.31722 0.7302447 -0.59207261 -0.34087041 0
0.024961101 -0.055142399 -1.29495 -0.86803257 -0.49565402 -0.029095955 0
-0.070294298 -0.099998899 -1.3507 0.31526801 -0.36490029 0.87604445 0
-0.064985298 -0.129899 -1.34867 -0.39331669 -0.34743169 0.85123038 0
0.0192263 -0.065214299 -1.295 -0.021757254 0.34703252 -0.93760067 0
-0.054460801 -0.109633 -1.3200001 -0.052552905 0.037189923 -0.9979254 0
-0.00451585 -0.039827701 -1.30996 -0.92878044 0.13891834 0.34361103 0
-0.049232699 -0.103277 -1.3150001 -0.067665055 0.27330667 -0.95954412 4.4421161e-43
-0.074941397 -0.106102 -1.34499 0.91873622 -0.28172088 -0.2766895 0
0.025056999 -0.069964796 -1.30391 -0.30973262 -0.23403041 0.92157227 1.8917529e-43
-0.042011298 -0.109971 -1.33 -0.41488174 -0.32401288 0.85022867 0
-0.0085535198 -0.120469 -1.3200001 0.047740884 0.9972679 0.056369305 8.4498297e-43
-0.064893097 -0.124932 -1.34655 -0.44998395 -0.32287303 0.83262682 1.9057659e-43
-0.018976999 -0.127214 -1.32499 0.14595723 0.83630204 -0.52848405 0
-0.076477103 -0.109938 -1.345 0.90003765 -0.36492619 -0.23824595 0
0.0251015 -0.074036397 -1.3050801 -0.29797277 -0.19995068 0.93339807 7.9033233e-43
-0.044990201 -0.114724 -1.33303 -0.31457952 -0.38398424 0.86809897 0
-0.041825201 -0.099987403 -1.31293 -0.027732331 0.61701334 -0.78646392 1.9197789e-43
-0.070071399 -0.094956502 -1.34847 0.31067562 -0.90989935 0.27488869 0
-0.0618787 -0.124816 -1.34498 -0.44313633 -0.35531303 0.82303274 0
-0.033884302 -0.059694901 -1.3200001 0.84480953 -0.45583382 -0.2802006 0
-0.0019748399 -0.039728198 -1.29998 -0.1084665 -0.98358411 -0.14421275 0
-0.0098359901 -0.084972098 -1.31142 -0.20268138 -0.28838021 0.93581897 1.9337919e-43
-0.079625599 -0.120906 -1.33999 0.78911811 -0.55347556 -0.26637837 0
-0.019874999 -0.089960098 -1.3159699 -0.35434175 -0.19602448 0.9143393 0
-0.057905801 -0.079342201 -1.33997 0.53186393 -0.5678997 0.62818044 0
-0.039641298 -0.080706999 -1.31499 0.72626966 -0.38779566 -0.56757987 0
-0.0376455 -0.099999502 -1.3131 -0.0074095423 0.58780646 -0.80896765 1.9478049e-43
-0.0199496 -0.042123199 -1.31499 0.92653865 -0.33459207 -0.17197157 1.9478049e-43
-0.0199818 -0.079205103 -1.31459 -0.43408757 -0.04387258 0.89980173 0
-0.048853099 -0.094724298 -1.31497 0.83474118 -0.44659016 -0.32212478 2.1439867e-43
-0.053249199 -0.104923 -1.33495 -0.6514675 0.084187217 0.75399113 3.4331812e-43
-0.00497801 -0.034879599 -1.31151 -0.85072052 0.034477171 0.52448636 1.9618179e-43
0.030102801 -0.070123099 -1.29992 -0.28751424 -0.44671738 -0.84721845 3.4191683e-43
0.00052772398 -0.044324402 -1.3049999 -0.96355611 0.01384923 0.26714766 4.3300123e-43
4.9956402e-06 -0.0404559 -1.30618 -0.99383909 -0.11047693 -0.008873417 3.4191683e-43
-0.0303328 -0.0647147 -1.32499 -0.74074316 0.19584496 0.64260739 1.9758308e-43
3.1890599e-05 -0.103654 -1.3099999 -0.42401537 0.31765297 -0.84812003 1.9758308e-43
-0.056722201 -0.118926 -1.33999 -0.43011957 -0.29827982 0.85207176 1.0005271e-42
-0.029953299 -0.075375997 -1.2999901 0.80483419 -0.55864251 -0.20040083 1.6535322e-43
6.4077503e-05 -0.059709501 -1.30379 -0.38840887 -0.02649251 0.92110622 0
0.00019277001 -0.039882801 -1.3049901 -0.99383909 -0.11047693 -0.008873417 7.6014306e-36
-0.0439713 -0.102609 -1.31499 0.030682513 0.60817152 -0.79321241 1.7249984e-42
0.0266187 -0.074911602 -1.3 -0.6568588 0.7440837 0.12196711 4.4841551e-43
-0.0076446799 -0.0333676 -1.31499 -0.69285965 0.1660371 0.70169592 5.1567783e-43
-0.075022697 -0.110033 -1.3531899 0.78705662 -0.20531438 0.58171117 0
-0.0446545 -0.090019003 -1.31471 0.73540765 -0.64056724 -0.22101845 7.465583e-36
-0.0049927598 -0.036039099 -1.31185 -0.85072052 0.034477171 0.52448636 0
-0.0570422 -0.084978104 -1.3449 0.47177014 -0.38959113 0.79098147 0
-0.0280449 -0.089986399 -1.30663 -0.00097377819 0.54322368 -0.83958745 0
0.027425401 -0.059937101 -1.295 -0.98519874 -0.052132696 0.16329609 -0.099338531
-0.0199493 -0.133893 -1.33499 -0.9979828 0.063406564 0.0031576219 0
-0.0049928902 -0.064998902 -1.30661 -0.37527823 -0.096158035 0.921911 0
-0.075327702 -0.119875 -1.34997 0.092927977 0.088901728 0.99169594 1.1760769e-36
-0.0292255 -0.145284 -1.345 -0.35475791 0.64236015 0.67935282 0
-0.034373499 -0.059895501 -1.32495 -0.11877012 -0.92511171 0.36064112 0
0.0046608299 -0.099087 -1.3099999 -0.97821313 0.19833829 0.061326761 0
-0.0149252 -0.0575388 -1.29496 0.71502739 -0.59142888 -0.37275699 0
-0.0097553497 -0.051304199 -1.295 0.73422158 -0.58281213 -0.34820777 7.7340181e-36
-0.053416099 -0.137761 -1.34902 0.51871645 0.57306808 0.63444954 0
-0.054889299 -0.096461803 -1.32499 0.84775895 -0.36622846 -0.38364238 1.1762061e-36
-0.064945199 -0.090014897 -1.3427401 0.82763654 -0.47473264 -0.29941061 0
-0.076577 -0.119675 -1.33496 0.78553289 0.029296679 -0.61812603 1.4349296e-42
-0.0090945996 -0.079535604 -1.3099999 -0.20177369 -0.15850544 0.96652126 0
-0.064927801 -0.108042 -1.33 0.82493347 -0.39520288 -0.40410328 0
-0.0594289 -0.114748 -1.33999 -0.49793857 -0.18324153 0.84763181 7.4781645e-36
-0.034858398 -0.081103101 -1.30493 0.75526679 -0.6241225 -0.20010804 7.1746481e-43
7.0186798e-05 -0.0699604 -1.30549 -0.23270375 -0.2723695 0.93362939 0
-0.044622999 -0.089877799 -1.31494 0.5629431 -0.77242064 -0.29404321 3.5873241e-43
-0.029991301 -0.104916 -1.3238 -0.2517719 -0.35111251 0.90184861 0
-0.0066384301 -0.0494514 -1.2899899 0.75254732 -0.61080945 -0.24613887 0
0.0080931904 -0.089769103 -1.3099999 -0.70925802 0.65772277 0.25368056 0
0.0049817902 -0.079991199 -1.30018 -0.039233491 0.77456397 -0.63127762 0
-0.069974601 -0.119284 -1.33 0.0061184871 0.061966397 -0.99805951 0
-0.0249773 -0.145004 -1.3430901 -0.41070512 0.80747706 0.42344075 7.4791976e-36
-0.0099993497 -0.0699469 -1.30907 -0.40408114 -0.028402261 0.91428208 0
-0.0297096 -0.059984501 -1.32532 0.061779164 0.041514445 0.99722612 7.479542e-36
0.0050001 -0.095260799 -1.31367 -0.76837856 -0.14952759 0.6222828 0
-0.074813001 -0.101868 -1.34995 0.55623388 -0.51142257 0.6550197 0
-0.0750328 -0.120794 -1.34992 0.092927977 0.088901728 0.99169594 0
-0.064904697 -0.093589999 -1.33998 0.82429892 -0.41688854 -0.38306031 0
-0.019658601 -0.084669203 -1.3150001 -0.40114716 -0.12792702 0.90703672 7.4440246e-36
-0.070349403 -0.129832 -1.35119 -0.40632793 0.42847785 0.80703431 0
-0.00997476 -0.046597201 -1.29996 0.78127658 -0.40202966 -0.47747147 0.0010591149
0.0251881 -0.0549886 -1.29899 -0.9804433 -0.19642043 0.012246071 0
-0.049231701 -0.11489 -1.33498 -0.36019203 -0.32464877 0.87456554 0
-0.0364131 -0.099849097 -1.325 -0.43834645 -0.12044423 0.89069951 0
0.0312801 -0.059958 -1.29998 -0.63750321 -0.20906226 0.74154073 0
-0.0051002302 -0.114189 -1.32499 -0.16396503 -0.39377779 0.90446365 0
-0.044959702 -0.073768802 -1.3369499 -0.39598683 -0.28969762 0.87136084 7.4450578e-36
-0.0498778 -0.109988 -1.3337801 -0.36437395 -0.23030655 0.90232503 0.039967537
-0.0316898 -0.054480299 -1.31993 0.78508854 -0.50568855 -0.35765216 0
-0.037097499 -0.059705898 -1.32498 0.33650985 -0.92822641 -0.15860923 7.4454021e-36
-0.046538401 -0.069120802 -1.32999 0.83406627 -0.51447213 -0.19912775 0
-0.059976101 -0.120341 -1.32998 0.079774924 0.66910446 -0.73887426 7.5655459e-36
0.0146726 -0.084993102 -1.30278 -0.1933699 0.57319117 -0.79627883 0
-0.0200921 -0.044982798 -1.3196 0.92315799 -0.060445052 0.37963894 0
-0.022312799 -0.13404401 -1.33 -0.79055637 -0.59871864 -0.12867254 7.5658903e-36
-0.0595221 -0.119975 -1.32967 0.079774924 0.66910446 -0.73887426 0
-0.043054398 -0.089801297 -1.30995 0.76287532 -0.60889429 -0.21741425 0
-0.064901799 -0.094954297 -1.3492301 0.00087231363 0.1070753 0.99425054 0
-0.0253866 -0.084934898 -1.30317 -0.031295083 0.58065021 -0.81355143 0
-0.054153901 -0.099649698 -1.31998 0.79706043 -0.53852016 -0.27329594 0
-0.039825 -0.063948601 -1.32999 -0.036048926 -0.93079597 0.36375725 0
-0.0299221 -0.144914 -1.33904 0.11873897 0.99168336 0.049650844 0
-0.0089737698 -0.058355398 -1.29 -0.10427816 0.12211078 -0.98702329 0
-0.069784299 -0.130953 -1.35109 0.50645524 0.35910726 0.78392929 7.5669235e-36
-0.019726001 -0.047149599 -1.30998 0.77005577 -0.34531876 -0.53644109 0
-0.00078731001 -0.040657599 -1.3 -0.1084665 -0.98358411 -0.14421275 0
-0.0099492799 -0.035028201 -1.31698 0.219202 -0.89571893 0.38683084 nan
0.0250044 -0.075555302 -1.3049999 -0.93601567 0.28798968 0.20232794 0
-0.0249859 -0.143457 -1.3446701 -0.65642726 0.33797416 0.67444551 0
-0.054951198 -0.124892 -1.3417701 -0.31799623 -0.44647184 0.83638585 5.2657153e-36
0.0100076 -0.0597349 -1.30098 -0.21852905 -0.16958581 0.96098161 nan
-0.0166931 -0.129842 -1.33498 -0.77305305 0.21585743 0.59648514 0
-0.064809904 -0.114178 -1.32499 0.059714988 -0.32926887 -0.9423461 nan
-0.0052166302 -0.082291 -1.3099999 -0.17020001 -0.30624393 0.93661445 0
-0.077486299 -0.124088 -1.33499 0.69699937 0.056320626 -0.71485656 0
0.022639601 -0.0699737 -1.30466 -0.094532512 -0.20283881 0.9746384 nan
-0.0087661203 -0.0498899 -1.29498 0.720617 -0.60903186 -0.33134776 0
-0.074941903 -0.12879001 -1.33999 0.18762031 0.95129621 -0.24461021 nan
-0.064966403 -0.132567 -1.34974 -0.36827943 0.49129876 0.7893008 0
-0.049936399 -0.077660099 -1.34085 -0.99283803 0.086485416 -0.08241953 0
-0.0149031 -0.119997 -1.32971 -0.15878987 -0.15145637 0.97562635 5.2664041e-36
-0.0249874 -0.089299403 -1.318 -0.41232556 -0.11820902 0.90333509 0
-0.037233099 -0.094884999 -1.32494 -0.47958821 -0.037179887 0.87670565 0
-0.024933901 -0.050095499 -1.31425 0.98843712 0.095682971 0.11763012 0
-0.0140416 -0.127414 -1.32499 -0.25515765 0.9166252 -0.30772188 nan
-0.049485002 -0.108842 -1.31998 0.014885359 0.68370903 -0.72960293 0
-0.065047003 -0.089938402 -1.345 -0.019187473 -0.99963862 -0.018827265 0
-0.071553104 -0.134387 -1.34499 0.42339912 0.83244646 0.35744384 7.439892e-36
-0.0183545 -0.039676201 -1.31499 0.47093862 -0.84241426 0.26183018 0
-0.035016499 -0.103301 -1.32499 -0.31809777 -0.20084502 0.9265393 0
0.0322484 -0.064675003 -1.2999901 -0.99615562 0.067305848 0.056070466 7.4402364e-36
-0.072649702 -0.099973299 -1.34999 0.31526801 -0.36490029 0.87604445 0
-0.059939601 -0.124973 -1.34398 -0.38899383 -0.36642084 0.84523344 0
-0.073529102 -0.129235 -1.35 0.29022393 -0.11207899 0.95037276 nan
0.0056655901 -0.0948724 -1.30996 -0.99438202 0.10510559 0.012536674 0
-0.025704199 -0.054997198 -1.32346 -0.2332195 0.075752974 0.96946901 0
0.0080444701 -0.049706198 -1.2999901 -0.84366268 -0.45363274 0.28714219 0
-0.050996698 -0.094715104 -1.31999 0.85423464 -0.39009336 -0.34367186 7.4409252e-36
0.018116301 -0.0522427 -1.295 -0.25519305 -0.73969126 0.62268239 nan
-0.055668399 -0.0799862 -1.34216 0.40325803 -0.41965657 0.81318593 0
-0.024839699 -0.054992098 -1.32329 -0.2332195 0.075752974 0.96946901 0
-0.074114203 -0.110008 -1.35383 0.77852166 -0.25414976 0.57385701 0
-0.0627371 -0.089559697 -1.33999 0.83283657 -0.48119429 -0.27356052 7.3972689e-36
-0.022806 -0.099982999 -1.31999 -0.16394117 -0.28981742 0.94293648 nan
-0.078079998 -0.124474 -1.34499 0.68258691 0.20199321 0.70233458 0
0.030098399 -0.064954199 -1.3022 -0.59248614 0.0086007202 0.80553472 0
-0.039987002 -0.104885 -1.32778 -0.40729892 -0.20813738 0.88926172 7.3979576e-36
-0.0199952 -0.049525298 -1.32109 0.12860984 0.7770254 0.61619079 0
-0.029958099 -0.099863604 -1.32206 -0.35210025 -0.24358198 0.90371084 0
0.0145102 -0.065201402 -1.29497 0.013346463 -0.25979814 -0.96557069 0
-0.059772398 -0.109544 -1.31997 0.55491436 -0.41448453 -0.72129929 0
-0.075017199 -0.125237 -1.34896 0.55308187 0.096400447 0.82753092 0
-0.039144602 -0.084752098 -1.30998 0.7491861 -0.62176025 -0.22832957 7.3986464e-36
-0.059675101 -0.0835732 -1.33999 0.81753737 -0.32719624 0.4738937 0
-0.0306869 -0.074778803 -1.3049901 0.74112844 -0.61899275 -0.25995493 0
-0.0250012 -0.049993102 -1.31907 0.0077134301 0.9994908 -0.030962074 0
0.0078988904 -0.089997999 -1.30498 -0.59190041 0.70195729 -0.39611858 7.3989908e-36
0.025080301 -0.075778902 -1.29998 -0.62430197 0.66435993 -0.41094154 -0.087219238
-0.034953199 -0.099741302 -1.32424 -0.32029745 -0.17002337 0.93193436 0
-0.068461902 -0.094983697 -1.3494 0.14287409 -0.88222134 0.448634 3.5873241e-43
-0.0049995598 -0.0698395 -1.30709 -0.34087256 -0.13936824 0.92972165 7.3996795e-36
-0.058068302 -0.136154 -1.3492 0.20321001 0.77709931 0.59566963 1.0761972e-42
-0.045613501 -0.14356001 -1.34499 0.43283972 0.84288049 0.31969082 0
-0.0499405 -0.114958 -1.32486 0.14093721 0.52104837 -0.8418107 0
-0.0139895 -0.034831401 -1.31497 0.051820464 -0.9962303 0.069568798 7.4012063e-36
-0.054862998 -0.078990497 -1.33495 0.9151777 -0.3949309 -0.080494143 -0.10146523
0.00029001301 -0.0949196 -1.31484 -0.018673683 -0.99859339 0.049624391 0
-0.069610097 -0.130384 -1.33999 0.20881802 0.70912939 -0.67344677 7.4015507e-36
-0.0538534 -0.114965 -1.32499 -0.0071847793 0.99236453 -0.12313034 7.8754448e-36
-0.080026798 -0.120205 -1.34487 0.97383022 0.20947285 0.088180564 0
0.00096087297 -0.109968 -1.31996 -0.9337914 -0.055431161 0.35349822 7.4018951e-36
-0.0699424 -0.114427 -1.32995 0.91754913 0.054158181 -0.39391685 7.4022395e-36
-0.0297493 -0.146052 -1.33996 0.11873897 0.99168336 0.049650844 0
-0.033830099 -0.10484 -1.325 -0.27637893 -0.25283083 0.92719537 0
0.00064900401 -0.111905 -1.31496 -0.61177808 0.74957573 -0.25271285 0
-0.053745899 -0.079990603 -1.3427 -0.32307294 -0.47667339 0.81756121 -0.12112617
-0.00530905 -0.105029 -1.31999 -0.03551669 -0.26876992 0.96254939 0
-0.0423593 -0.069984898 -1.3348401 -0.26275179 -0.28509033 0.92178363 0
-0.0149855 -0.045010801 -1.31788 -0.5880909 0.18726851 0.78681612 0
-0.034875501 -0.145826 -1.345 -0.003759111 0.99733049 0.072923265 0
0.024670299 -0.0549885 -1.29899 -0.9804433 -0.19642043 0.012246071 0
-0.029205499 -0.0744351 -1.29997 0.80483419 -0.55864251 -0.20040083 0
0.0049761101 -0.094924599 -1.30645 -0.24475352 0.61219192 -0.75187552 0
-0.0301241 -0.054960702 -1.32206 0.30826184 0.94290155 0.12613982 0
-0.070408501 -0.132385 -1.34997 0.50645524 0.35910726 0.78392929 7.4201474e-36
-0.059156399 -0.115071 -1.32498 -0.0170194 0.76804531 -0.64016932 -0.064054489
-0.00268706 -0.044784099 -1.29 0.71944302 -0.60405034 -0.34281915 0
0.000174637 -0.109994 -1.3214999 -0.35581544 0.044097118 0.93351531 0
-0.0099984696 -0.12117 -1.32908 -0.5001682 0.43419814 0.74920207 0
0.0107075 -0.087748602 -1.30498 -0.43342739 0.88728154 -0.15770911 0
-0.0241735 -0.049661402 -1.31997 0.26034483 0.73777604 0.62282193 0
0.0085062701 -0.048577901 -1.295 -0.59535772 -0.80313605 0.022840356 7.4208361e-36
-0.024546999 -0.087710902 -1.30498 -0.0098498855 0.54531044 -0.83817631 7.7795686e-36
-0.0450413 -0.10374 -1.32999 -0.44539031 -0.10381535 0.88929737 0
-0.060005099 -0.135049 -1.34876 -0.2771613 -0.46249115 0.84218973 7.4211805e-36
-0.0249869 -0.049009599 -1.31496 0.83530843 -0.53737682 0.11612925 -0.077121735
-0.0139246 -0.059704699 -1.2899801 0.68745834 -0.24797693 -0.68257493 0
-0.0343353 -0.14491101 -1.33999 0.20543842 0.9481883 -0.24235086 0
-0.069972597 -0.1032 -1.3523 -0.64004141 -0.092516467 0.76275009 0
-0.0127208 -0.054932501 -1.29497 0.74170595 -0.61934465 -0.25745776 7.8304454e-36
0.0195494 -0.064986102 -1.29497 -0.021757254 0.34703252 -0.93760067 0
-0.054521799 -0.100229 -1.31975 0.7643711 -0.58896106 -0.26241505 0
-0.059997499 -0.085165001 -1.33968 0.79690897 -0.35502973 0.48876372 7.4218693e-36
0.0200039 -0.078223601 -1.30778 -0.72923768 0.064502709 0.6812135 7.7795686e-36
-0.045191899 -0.118334 -1.335 -0.28259614 -0.45328525 0.84538269 0
0.00018210099 -0.099988997 -1.31726 -0.22278354 -0.4305059 0.87466115 0
-0.068227403 -0.135098 -1.345 0.1714187 0.77539557 0.60776424 0
-0.043549199 -0.104974 -1.3169399 0.035220031 0.57625961 -0.81650746 7.4628738e-36
0.0251876 -0.061991099 -1.2949899 -0.21689087 0.34498498 -0.91320521 7.8315474e-36
-0.0215174 -0.0499871 -1.32181 0.12860984 0.7770254 0.61619079 0
0.0100481 -0.086967498 -1.30996 -0.55065173 0.35188702 0.75694001 0
-0.075008698 -0.109483 -1.3531899 0.78705662 -0.20531438 0.58171117 0
0.00333001 -0.044906199 -1.29497 -0.47590002 -0.86398435 -0.16446961 7.1746481e-43
-0.081807002 -0.12769499 -1.33998 0.31974807 0.80384809 0.50158691 0
-0.0149581 -0.089947797 -1.3142101 -0.21561778 -0.36900395 0.90407139 0
0.030008299 -0.0700747 -1.30002 -0.28751424 -0.44671738 -0.84721845 0
-0.074321598 -0.104457 -1.345 0.86803401 -0.41819364 -0.26763976 7.74412e-36
-0.064753301 -0.13592 -1.345 0.082153529 0.98669273 -0.14031488 0
-0.0196264 -0.064136699 -1.29497 0.80877054 -0.53557277 -0.24300615 0
-0.038085699 -0.145209 -1.345 0.16206458 0.95608979 0.24418722 0
-0.034022599 -0.079937696 -1.30498 0.87862796 -0.41041568 -0.24407344 7.7395283e-36
-0.028896499 -0.089875802 -1.31999 -0.46493721 -0.061365146 0.88321441 0
-0.0199981 -0.133891 -1.33886 -0.97924483 0.14369942 0.14293385 0
0.0039464501 -0.046489201 -1.29 -0.40387157 -0.73733747 -0.54149902 7.4649401e-36
-0.069962703 -0.095778503 -1.34499 0.90269005 -0.40155512 0.15460959 7.1746481e-43
-0.019785499 -0.062199902 -1.2999901 0.82127309 -0.50133806 -0.27234292 0
-0.03523 -0.14500999 -1.34583 0.26329899 -0.076989949 0.96163726 0
-0.049897399 -0.139194 -1.34848 0.24734542 0.095013037 0.9642576 0
-0.059615798 -0.105016 -1.32499 0.74745524 -0.54757452 -0.37612864 1.0761972e-42
-0.0149401 -0.0551291 -1.29933 0.77291471 -0.53091079 -0.34747168 0
-0.034996599 -0.14362501 -1.34706 0.26329899 -0.076989949 0.96163726 0
-0.059542902 -0.114983 -1.32489 -0.0060743662 -0.046965986 -0.998878 0
-0.0529113 -0.099690303 -1.31498 0.749493 -0.15455423 -0.6437183 0
-0.020088701 -0.134409 -1.33499 -0.9979828 0.063406564 0.0031576219 0
-0.059998501 -0.0914139 -1.34667 -0.59610742 0.24082841 0.76593578 0
-0.0399464 -0.078200802 -1.32997 -0.79148543 0.25081155 0.55735487 1.1791807e-36
-0.079844601 -0.128139 -1.33998 0.38053018 0.86891681 -0.31651282 0
-0.063953102 -0.089725003 -1.34498 -0.019187473 -0.99963862 -0.018827265 1.1792237e-36
-0.0047831102 -0.120171 -1.32455 -0.90294188 0.13555716 0.40782374 0
0.0239591 -0.0721341 -1.3049999 -0.29797277 -0.19995068 0.93339807 0
-0.0109683 -0.034982901 -1.3172801 0.219202 -0.89571893 0.38683084 0
-0.043322701 -0.10971 -1.3200001 0.11740167 0.5348947 -0.83672249 1.1792668e-36
-0.029986599 -0.065133303 -1.3245 -0.91680402 0.11834823 0.38139763 7.8385269e-36
-0.0184887 -0.0599511 -1.29992 0.81914353 -0.41711265 -0.393727 0
-0.039930198 -0.143337 -1.3479199 -0.037468538 0.34514579 0.93780088 0
-0.0099541601 -0.074814498 -1.30961 -0.29014555 -0.12389752 0.9489283 0
0.0050353999 -0.0459802 -1.30177 -0.69908196 -0.57370567 0.42678598 0
-0.054973099 -0.13491701 -1.3477401 -0.53951728 -0.044079024 0.84081995 0
0.0033295201 -0.079957202 -1.29998 -0.045093741 -0.45559838 -0.88904256 1.1793529e-36
-0.049398098 -0.072049998 -1.33499 0.26743573 -0.72716343 0.63222736 0
-0.0459943 -0.141757 -1.34893 0.32605118 0.75488514 0.56906861 0
-0.037842099 -0.089665003 -1.3049901 -0.39700615 -0.7969889 -0.45518655 0
0.0151783 -0.084747396 -1.30496 -0.58070982 0.79422373 0.17884299 1.0761972e-42
-0.0191788 -0.044994101 -1.31999 -0.32269847 -0.083616406 0.94280112 0
0.0050169099 -0.054851599 -1.30142 -0.25882033 -0.1230813 0.95805168 0
-0.069312103 -0.0945457 -1.34499 0.90269005 -0.40155512 0.15460959 0
-0.0148068 -0.038665 -1.30999 0.75346428 -0.53685963 -0.37956995 0
-0.070008203 -0.135041 -1.34444 0.1714187 0.77539557 0.60776424 0
0.00431654 -0.044684101 -1.2999901 -0.54286289 -0.83931601 -0.029129099 7.8219965e-36
-0.040013202 -0.112179 -1.32999 -0.32263497 -0.42312717 0.84668177 0
-0.0099575296 -0.0348497 -1.31699 0.219202 -0.89571893 0.38683084 0
0.0250194 -0.074892499 -1.3049901 -0.99739581 -0.055625837 0.045906167 1.1824839e-36
-0.0155747 -0.120271 -1.32998 -0.11066222 -0.12910955 0.98543626 7.7555077e-36
-0.0549962 -0.0842731 -1.3443201 0.25350362 -0.39555228 0.88276517 0
0.00053139101 -0.114306 -1.31999 -0.99038714 0.06158575 -0.12385662 0
-0.069704503 -0.097391203 -1.34998 0.33482715 -0.38621774 0.85949206 -0.095968246
-0.034605902 -0.0607844 -1.31997 0.76141548 -0.50155419 -0.41071871 1.18257e-36
-0.075033702 -0.131841 -1.34499 0.7524159 0.62436765 0.20984592 0
-0.029823201 -0.094962999 -1.30961 0.024450667 0.63451481 -0.77252388 0
-0.0241933 -0.068909399 -1.29997 0.7614488 -0.54919285 -0.34435877 0
-0.0238146 -0.084996 -1.30334 -0.037324354 0.57958186 -0.81405884 1.182613e-36
-0.0443298 -0.142533 -1.3489 0.30393466 0.67656678 0.67073178 7.8041805e-36
-0.00347922 -0.114933 -1.32498 -0.63708216 -0.056912351 0.76869196 0
-0.0498055 -0.080029197 -1.33987 -0.55830181 0.23128305 0.79674792 0
-0.0101505 -0.12498 -1.32498 -0.61210936 0.67799497 0.40699506 1.1826561e-36
-0.0447644 -0.109952 -1.32043 0.10686539 0.59979427 -0.79298592 7.826772e-36
0.029920001 -0.069967702 -1.29915 -0.29492798 0.41556892 -0.8604185 0
-0.049935199 -0.080003902 -1.34006 -0.55830181 0.23128305 0.79674792 0
-0.0122797 -0.124521 -1.33 -0.51235312 -0.097935259 0.8531723 0
0.0223407 -0.079751901 -1.30498 -0.033763461 0.98410565 0.17434491 1.4349296e-42
-0.0133629 -0.039097998 -1.31858 -0.59239274 0.19511354 0.78166592 0
-0.0216564 -0.044271 -1.31499 0.93079805 -0.34603062 0.11780383 0
-0.050322 -0.138603 -1.34 0.41334364 0.67936915 -0.60630405 0
-0.0397604 -0.0621037 -1.32499 0.74122787 -0.67110777 -0.013986643 0
-0.0298869 -0.063767597 -1.325 -0.74074316 0.19584496 0.64260739 0
-0.0097152898 -0.119976 -1.3286099 -0.25276005 -0.33873975 0.90629339 0
0.000698691 -0.0749944 -1.3069 -0.16739465 -0.30078924 0.93888491 7.72961e-36
-0.069908097 -0.110888 -1.335 0.76518929 -0.476666 -0.4327527 0
-0.0112143 -0.053991601 -1.29 0.85518485 -0.30949911 -0.41577536 0
-0.0694637 -0.099967897 -1.35109 -0.054418806 -0.1269369 0.99041688 1.1828283e-36
-0.041115198 -0.0843077 -1.31499 0.87368363 -0.33842865 -0.3494896 7.7382426e-36
-0.068821102 -0.11999 -1.33069 0.012637542 0.082952417 -0.99647337 7.4040417e-36
-0.019702099 -0.0516054 -1.3200001 -0.57093459 0.26195973 0.77808148 0
-0.073428303 -0.120015 -1.35148 0.092927977 0.088901728 0.99169594 7.4043861e-36
-0.051383302 -0.083929799 -1.34 -0.5755862 0.27675542 0.76948488 0
-0.0349737 -0.0948456 -1.32366 -0.4859997 -0.040052135 0.87304074 7.784895e-36
-0.038185801 -0.143885 -1.33999 0.27784121 0.8080349 -0.51950353 0
-0.072753102 -0.10496 -1.35379 0.33299571 -0.54321051 0.77073747 0
-0.0227452 -0.139909 -1.33995 -0.93808377 0.299932 0.17331961 7.813915e-36
0.0100386 -0.049870301 -1.29913 -0.78882521 -0.44081932 0.42829096 0
-0.0149034 -0.0799326 -1.3123 -0.39349297 -0.11607093 0.91197085 0
-0.016355401 -0.129876 -1.32998 -0.84763849 0.52207857 0.09456756 7.4054193e-36
-0.044638801 -0.104886 -1.33 -0.4562358 -0.16037354 0.87528807 0
0.015194 -0.054882701 -1.29919 -0.13872841 -0.22818202 0.96368426 0
0.0199454 -0.079888798 -1.30083 -0.27041706 0.8413226 -0.46802875 7.8100579e-36
-0.015107 -0.039764401 -1.31771 0.58545315 -0.2827591 0.75979728 0
-0.0597126 -0.109932 -1.33994 -0.66794813 0.055329353 0.74214816 0
-0.0048677898 -0.046783499 -1.29 0.71944302 -0.60405034 -0.34281915 7.8179558e-36
-0.021053599 -0.13482 -1.33997 -0.83644998 0.085597828 0.54131728 0
0.0102707 -0.054602701 -1.3 -0.17337851 -0.16600245 0.97076416 0
-0.0347929 -0.063932702 -1.32997 -0.11323909 -0.61726099 0.77856648 7.7375079e-36
0.00378643 -0.104528 -1.31497 -0.99629152 -0.042975999 0.074540175 0
-0.069646701 -0.134955 -1.34497 0.1714187 0.77539557 0.60776424 0
