# .PCD v0.7 - Point Cloud Data file format
VERSION 0.7
FIELDS x y z normal_x normal_y normal_z curvature
SIZE 4 4 4 4 4 4 4
TYPE F F F F F F F
COUNT 1 1 1 1 1 1 1
WIDTH 16
HEIGHT 1
VIEWPOINT 0 0 0 1 0 0 0
POINTS 16
DATA ascii
21.2579 -17.246799 416.694 0.5446822 0.76015514 0.35423928 0.01711766
24.995701 -17.361799 414.61801 0.34857449 0.56713873 0.74622351 0.020402923
21.1383 -15.7122 414.495 0.29107305 0.38548696 0.87560052 0.024143962
22.7978 -15.4912 413.858 0.14734094 0.46900928 0.87081623 0.013620507
23.302099 -18.686701 416.67899 0.50410205 0.8062346 0.30962387 0.012782704
23.533899 -16.701 414.73599 0.21978347 0.52816629 0.82020462 0.018255489
22.9963 -17.403799 415.27301 0.36231732 0.7043997 0.61036646 0.01924208
20.8179 -15.8269 414.75201 0.49632359 0.51809627 0.69659108 0.020319674
21.8265 -17.661699 416.67599 0.52284604 0.73310548 0.43495783 0.015902676
24.6101 -19.4144 416.755 0.42691496 0.82538193 0.36944318 0.01231597
25.055 -19.3274 416.08401 0.36097056 0.70205325 0.61385787 0.012933231
24.6217 -17.487101 414.72699 0.37419194 0.5888949 0.71636808 0.027119411
25.0865 -17.8967 414.742 0.34423772 0.58583224 0.73368996 0.025234252
22.025801 -16.4807 414.729 0.25900537 0.71792716 0.64613998 0.018912578
25.118999 -19.643299 416.70901 0.36863935 0.8889631 0.27175283 0.011160682
23.355101 -15.4347 413.901 0.15330024 0.45666167 0.87633276 0.015272094
