# .PCD v0.7 - Point Cloud Data file format
VERSION 0.7
FIELDS x y z normal_x normal_y normal_z curvature
SIZE 4 4 4 4 4 4 4
TYPE F F F F F F F
COUNT 1 1 1 1 1 1 1
WIDTH 297
HEIGHT 1
VIEWPOINT 0 0 0 1 0 0 0
POINTS 297
DATA ascii
0.097449303 0.154926 -1.55 -0.072624065 -0.57939184 0.81180716 0
0.095005803 0.170058 -1.52749 0.99707067 0.049119197 -0.05862892 1.9478049e-43
0.089971803 0.14498299 -1.5350699 0.0094107967 0.99995416 0.0017792517 5.3249342e-44
0.100001 0.160033 -1.54266 -0.98665971 -0.027405379 0.16047309 4.2879733e-43
0.094961099 0.15505899 -1.55002 -0.0015025217 -0.18453363 0.98282504 1.9618179e-43
0.097537898 0.14492901 -1.54246 -0.00080611091 0.99883592 0.048230536 2.760558e-43
0.092583798 0.14499401 -1.53501 -0.14302407 0.96995932 0.19678172 1.9618179e-43
0.087545797 0.16748799 -1.5202301 0.6374138 -0.62787527 -0.44662771 2.8306229e-43
0.095054999 0.170009 -1.52817 0.99707067 0.049119197 -0.05862892 5.7873627e-43
0.094991297 0.144949 -1.54247 0.024053475 0.99176848 0.12576428 2.9707527e-43
0.092634499 0.14461 -1.53 -0.023019155 0.99971581 -0.0061985394 1.9758308e-43
0.094994202 0.15002 -1.55277 0.071054399 -0.36813319 0.92705405 7.9874012e-44
0.0949765 0.144995 -1.5426 0.024053475 0.99176848 0.12576428 0
0.0975141 0.16506401 -1.5365 -0.69954085 -0.69874614 0.14965415 5.1858889e-05
0.095055602 0.169682 -1.5275 0.99707067 0.049119197 -0.05862892 9.1862639e-06
0.096050397 0.14498299 -1.53995 -0.32987785 0.85930717 -0.39086026 1.9898438e-43
0.095005304 0.16500901 -1.54283 0.056141738 -0.92314827 0.38032278 4.2557717e-36
0.087716997 0.15978201 -1.5175 0.086471021 0.0019563867 -0.99625242 2.5373941e-35
0.085126601 0.159991 -1.51781 0.059845317 -0.050818902 -0.99691325 2.732532e-43
0.0980924 0.14499301 -1.54526 -0.76890677 0.58687067 0.25370294 0
0.099328801 0.14725301 -1.55533 -0.44059023 -0.39733401 0.80498815 2.0038568e-43
0.087521397 0.161549 -1.5175 0.32200289 -0.31539059 -0.89266062 3.5873241e-43
0.0998182 0.157391 -1.54749 -0.33978018 -0.37521857 0.86241549 2.0178698e-43
0.090063699 0.147121 -1.525 -0.84639323 0.25606912 -0.4669551 2.0178698e-43
0.0976303 0.165153 -1.53497 -0.73113614 -0.66758716 0.14059642 5.6752588e-43
0.097311497 0.16495299 -1.53749 -0.68848276 -0.71720695 0.1077296 0
0.090878703 0.167238 -1.5275 0.13202906 -0.8451615 0.51794827 6.7262326e-44
0.094872899 0.147498 -1.5530699 -0.10915105 -0.040539511 0.99319816 0.37828377
0.089997001 0.145024 -1.52579 -0.92381197 0.30024382 -0.23753968 3.7414669e-43
0.0823946 0.160353 -1.51999 0.82657772 -0.51271164 -0.23215519 2.5293608e-35
0.084905602 0.163123 -1.51999 0.68995273 -0.49640203 -0.52683043 2.5301276e-35
0.091933101 0.170571 -1.52249 0.47244954 -0.86718464 -0.15742385 5.9134795e-43
0.088178702 0.14493801 -1.52249 -0.58611959 0.64523834 -0.4900319 2.0458958e-43
0.084165499 0.15747 -1.5175 0.54183739 -0.13946146 -0.82883215 4.2038954e-43
0.090324797 0.16720299 -1.52 0.041144706 -0.0028617382 -0.99914908 5.0586875e-43
0.099635601 0.15245099 -1.54997 -0.56082857 -0.60039973 0.57008028 0
0.082486801 0.149615 -1.51749 0.42455703 0.079555586 -0.90189922 3.1949605e-43
0.092487901 0.16755299 -1.5284801 0.045072656 -0.9646197 0.25976402 2.0599087e-43
0.089995898 0.165013 -1.53609 0.72765702 -0.34639299 0.59205335 2.4382593e-43
0.097096503 0.16496 -1.53995 -0.50543308 -0.86280966 0.0098436959 2.0599087e-43
0.088184699 0.16494 -1.53245 0.66702247 -0.39116117 0.63409305 3.2089735e-43
0.0874319 0.144798 -1.52249 -0.70414037 0.68851119 0.17360479 3.7554799e-43
0.097501598 0.15755799 -1.54816 -0.220404 -0.80871266 0.5453493 0
0.084979497 0.167779 -1.52245 0.20370416 -0.97266346 -0.1114917 3.9937006e-43
0.088071696 0.14503101 -1.53 0.069871433 0.99401444 0.083984099 2.0879347e-43
0.094760202 0.170003 -1.52824 0.99707067 0.049119197 -0.05862892 0.11622161
0.100078 0.15999401 -1.54246 -0.96835476 0.006966982 -0.2494805 4.2459343e-43
0.084539302 0.168175 -1.525 0.25615019 -0.96663517 -0.0018719519 0
0.0974112 0.14511999 -1.54497 0.11934798 0.99077964 0.064122669 2.0178698e-43
0.095023401 0.161745 -1.54807 0.97842085 -0.092808805 0.18460552 0.16830231
0.092467099 0.17001601 -1.52613 0.08627779 -0.7478326 0.65825719 6.7262326e-44
0.079999201 0.14789701 -1.52324 0.95358843 -0.1320245 0.27062649 0.028557219
0.100034 0.157527 -1.5470999 -0.7847718 -0.4888255 0.38102868 0.13727513
0.097715698 0.164445 -1.53746 -0.92726457 -0.37377155 0.021800067 1.3452465e-43
0.094995096 0.14818899 -1.55334 0.80802441 -0.14906777 0.56997842 2.1019477e-43
0.091947503 0.16493601 -1.53996 0.95644629 -0.24628767 0.15669359 2.5255772e-35
0.089337699 0.147453 -1.53995 0.92568493 -0.1753117 0.33522123 0
0.089961797 0.168671 -1.51999 0.23646687 -0.84251797 -0.48399061 2.5228339e-35
0.094961599 0.15752099 -1.54921 0.86917263 -0.19861209 0.45287099 2.5210752e-35
0.090100497 0.145005 -1.5342799 -0.039281294 0.99754173 -0.058029871 4.6803369e-43
0.0946749 0.145145 -1.54248 0.13181174 0.99113166 -0.016843854 2.1299737e-43
0.095010698 0.16516399 -1.54248 0.052924655 -0.97058755 0.23485896 2.1299737e-43
0.087478302 0.16721 -1.51996 0.34844926 -0.67089748 -0.65458363 4.1338305e-43
0.092478603 0.14747401 -1.54863 0.88075894 0.47142634 0.044953819 0
0.089021698 0.167476 -1.52746 -0.21790262 -0.8512494 0.47738135 3.4471942e-43
0.087466098 0.14461499 -1.525 0.10713815 0.993002 -0.049683083 0
0.087497301 0.165077 -1.53099 0.23228735 -0.73044062 0.64226091 2.0178698e-43
0.087479301 0.167511 -1.5283 0.03192037 -0.93950027 0.34105769 2.6904931e-43
0.079126798 0.147221 -1.51999 0.97623205 -0.099086717 0.19275062 0.37059641
0.100017 0.155011 -1.5483201 -0.53425562 -0.33417937 0.77646321 0.039254602
0.084118798 0.154512 -1.51749 0.62574005 -0.12442014 -0.7700448 5.0166485e-43
0.089996397 0.147358 -1.54167 0.96178472 -0.1244939 0.24386773 0
0.087233402 0.147145 -1.51999 -0.59936041 0.44630045 -0.6645171 2.0178698e-43
0.094326504 0.15239801 -1.54996 0.89575189 -0.17593877 0.40825745 2.5274782e-35
0.090879999 0.145098 -1.5324399 0.049660321 0.99773628 0.045344826 3.1389086e-43
0.092482097 0.144972 -1.53497 -0.073668629 0.99658644 -0.037261751 0
0.096190698 0.15993799 -1.54749 -0.46351653 0.012266357 0.88600338 2.520763e-35
0.100365 0.150004 -1.55338 -0.33034134 -0.56822938 0.75365108 3.4191683e-43
0.095013201 0.16250101 -1.54711 0.68792111 -0.59362292 0.41758394 6.7262326e-44
0.097087897 0.14537901 -1.54746 0.18652351 0.97056347 0.15236637 5.3949991e-43
0.089983404 0.150024 -1.54037 0.96621573 -0.15352921 0.20701689 2.0178698e-43
0.087280102 0.161853 -1.51749 0.32200289 -0.31539059 -0.89266062 2.6904931e-43
0.097487301 0.147447 -1.55448 0.210363 0.81440353 0.54082739 0.89793038
0.090458497 0.149931 -1.54248 0.92800254 -0.24077584 0.28432077 9.3943049e-42
0.093039997 0.147441 -1.53 -0.92579126 0.12770353 -0.35581216 4.2879733e-43
0.085681297 0.15994599 -1.5175 0.060660001 -0.025763875 -0.99782592 2.4802609e-35
0.094949797 0.152556 -1.55121 0.075330399 -0.51174664 0.85582751 3.1389086e-43
0.089993499 0.165729 -1.53497 0.35124883 -0.91487068 0.19908781 2.3121425e-43
0.0799805 0.150043 -1.52214 0.84366435 -0.2601054 0.46965477 0.048071355
0.093002997 0.16482501 -1.54247 0.04259808 -0.95830029 0.28257033 0
0.084996499 0.167613 -1.5261101 0.39383486 -0.63241601 0.6670413 2.0178698e-43
0.079995804 0.147489 -1.52325 -0.36642611 -0.12487944 0.92202878 0.051443309
0.085669897 0.145054 -1.525 0.24865307 0.96829557 -0.023986606 6.7262326e-44
0.0974297 0.144906 -1.54246 0.0071440167 0.99978215 0.019611644 2.1860256e-43
0.082361601 0.146033 -1.51999 0.13898362 0.94138634 -0.30736834 0.14011586
0.094920501 0.166998 -1.5349801 0.17950517 -0.96594638 0.18634772 2.4999396e-35
0.100017 0.160115 -1.54245 -0.95400828 -0.2360844 -0.18474947 4.568233e-43
0.094256297 0.16501699 -1.54424 0.056141738 -0.92314827 0.38032278 4.3019863e-43
0.082835801 0.152493 -1.51775 0.51147699 -0.23694737 -0.82598257 1.9478049e-43
0.092693299 0.144997 -1.53497 -0.12399676 0.9875958 0.096329242 1.7712413e-42
0.091229998 0.169874 -1.52499 0.17759363 -0.25390545 0.95078522 6.7262326e-44
0.0949983 0.16001999 -1.54821 -0.20465039 -0.069874153 0.97633797 1.4293244e-43
0.087218396 0.168043 -1.5225 0.082898259 -0.9747712 -0.2072413 2.5348141e-35
0.099788196 0.146217 -1.55246 -0.21677116 0.90819532 0.35803846 2.5231739e-35
0.082553901 0.154934 -1.5186501 0.51542711 -0.21974812 -0.82827872 4.3440252e-43
0.089960501 0.14484701 -1.52997 0.05282696 0.99769884 0.04250088 2.2841165e-43
0.09527 0.16753 -1.53233 -0.50346655 -0.84803188 0.16541886 3.0492255e-42
0.088419601 0.144986 -1.53207 0.045888059 0.99705261 0.061484732 2.4662853e-43
0.0922819 0.145822 -1.5399899 0.3290056 0.93177485 0.15346326 2.5259399e-35
0.087243699 0.168354 -1.525 0.10388923 -0.99447685 0.014928821 2.4796043e-35
0.0921361 0.16946401 -1.52249 -0.4383013 -0.59054875 -0.67760175 2.2981295e-43
0.101082 0.14739899 -1.55 -0.92094511 0.38336667 -0.069929272 0
0.079324096 0.152411 -1.52 0.95282912 -0.27963275 0.11799219 2.5349932e-35
0.095338002 0.152522 -1.5513 0.075330399 -0.51174664 0.85582751 2.4796043e-35
0.098561198 0.162296 -1.5375 -0.94529152 -0.10983157 -0.30718237 5.465064e-43
0.097368799 0.14593799 -1.54998 -0.019422652 0.99096078 0.13273825 2.2841165e-43
0.094977804 0.14535201 -1.54497 0.11275484 0.98362541 0.14059655 5.3809861e-43
0.0937104 0.16992 -1.52499 0.29290137 -0.87026596 0.39603782 2.535085e-35
0.093946598 0.166013 -1.54246 0.04259808 -0.95830029 0.28257033 2.4796043e-35
0.082506999 0.15505201 -1.5186599 0.51542711 -0.21974812 -0.82827872 2.5352825e-35
0.094773799 0.168943 -1.52994 0.12493677 -0.60401797 0.78711694 5.451051e-43
0.092358701 0.16578799 -1.53995 0.2033751 -0.95784491 0.20290798 0
0.095857903 0.16741399 -1.52994 -0.83441699 -0.48921943 0.25379646 2.4773067e-35
0.086983398 0.144713 -1.5275 0.17988238 0.97801417 0.10550186 0
0.097496301 0.16249999 -1.5348901 -0.96522433 0.084523678 -0.24738185 2.5354156e-35
0.0904103 0.16849101 -1.52 -0.15103728 -0.94653946 -0.28504518 4.7784278e-43
0.096469603 0.15500499 -1.55009 -0.072624065 -0.57939184 0.81180716 0
0.090210997 0.144962 -1.52749 -0.92573553 0.35954577 -0.11721991 0.0061587086
0.097461 0.144998 -1.54449 0.15805294 0.98547369 0.062136009 0
0.085003898 0.16249301 -1.5192 0.50842971 -0.43708512 -0.74192709 2.0178698e-43
0.094493501 0.1454 -1.53747 -0.29954565 0.94580293 -0.12541623 2.0055579e-06
0.099163398 0.16244 -1.5399801 -0.93283367 -0.36029238 -0.0032710643 0.00027983784
0.094598897 0.16741499 -1.5275 -0.15143432 -0.095142797 0.98387778 0.0001470421
0.094945498 0.15052401 -1.55247 0.081018306 -0.48424873 0.87117118 4.4000772e-43
0.095673002 0.149933 -1.53499 -0.9079268 0.077138551 -0.41196916 2.0178698e-43
0.0975364 0.16255499 -1.54459 -0.69673711 -0.50823396 0.506217 1.4433374e-43
0.101099 0.147312 -1.55249 -0.90321368 0.36383915 0.22765353 2.0178698e-43
0.084219903 0.14574499 -1.5225 0.19727392 0.96825922 -0.15348333 1.110223e-16
0.100009 0.14768399 -1.55474 -0.44059023 -0.39733401 0.80498815 1.6255062e-43
0.090700999 0.16496401 -1.53748 0.72175246 -0.31989893 0.61378992 2.0178698e-43
0.089956701 0.169131 -1.5224299 -0.80763334 -0.02925187 -0.58895904 4.4351273e-05
0.091891401 0.147392 -1.5275 -0.84280443 0.2366429 -0.48340544 1.4573504e-43
0.099342898 0.157653 -1.54748 -0.33978018 -0.37521857 0.86241549 0.20837779
0.082075603 0.159964 -1.51999 0.83922702 -0.53458083 -0.099606171 0
0.089965597 0.165512 -1.52997 0.24561241 -0.94921517 0.19663432 1.5834673e-43
0.097793102 0.16392 -1.54246 -0.70259124 -0.66076893 0.26410222 2.8166099e-43
0.084387198 0.147497 -1.51749 0.0020531826 0.49827757 -0.86701512 8.2284246e-42
0.101402 0.14995199 -1.54996 -0.98439157 -0.14816161 -0.09498097 4.9605966e-43
0.0999531 0.14577401 -1.54749 -0.4767423 0.8009426 -0.3622261 2.5388597e-35
0.097965904 0.164253 -1.53997 -0.76454276 -0.64215332 0.055798315 0
0.0992634 0.159449 -1.54497 -0.66195762 -0.63005412 0.40600976 2.4802983e-43
0.092106096 0.144811 -1.52997 0.047083344 0.99851185 0.027517401 0
0.087466903 0.14499199 -1.52933 0.16208412 0.97462904 0.15435973 5.2688822e-43
0.095866904 0.166337 -1.53747 -0.59518522 -0.75289416 0.28090036 0
0.089665398 0.145145 -1.53245 -0.020607715 0.99943238 0.026650215 2.6764801e-43
0.0944089 0.14995401 -1.53247 -0.93484896 0.098071456 -0.34123221 2.4943113e-43
0.097584501 0.160042 -1.54637 -0.58696765 -0.49187806 0.64305902 0
0.087503403 0.167299 -1.51999 0.6374138 -0.62787527 -0.44662771 4.8905316e-43
0.091004103 0.144999 -1.5358599 0.0045817234 0.99994099 0.0098485705 2.5083243e-43
0.097675703 0.15504199 -1.54985 -0.072624065 -0.57939184 0.81180716 2.5223372e-43
0.097512603 0.161606 -1.54497 -0.63165617 -0.47698671 0.61114174 0
0.092401803 0.16594 -1.53749 0.33569267 -0.93259346 0.13258888 4.0777785e-43
0.0937749 0.16239899 -1.54498 0.85264868 -0.45913923 0.24936199 0
0.084498301 0.14535099 -1.52499 0.27728042 0.9598484 -0.04250478 1.1070258e-43
0.094949797 0.162522 -1.54712 0.68792111 -0.59362292 0.41758394 0
0.0924927 0.147827 -1.5485801 0.83343673 -0.23147954 0.5017972 0
0.082511298 0.15995701 -1.51926 0.56819642 -0.36551246 -0.73726082 0
0.093882598 0.149978 -1.54998 0.89851278 -0.17487651 0.4026078 2.5503632e-43
0.095385201 0.162154 -1.54747 0.97842085 -0.092808805 0.18460552 2.5503632e-43
0.093859904 0.14496601 -1.53247 -0.7308231 0.66953421 -0.13274616 0
0.092481703 0.145101 -1.52964 -0.60665506 0.65922177 -0.44429308 4.1198175e-43
0.094933301 0.168852 -1.5275 0.99707067 0.049119197 -0.05862892 0
0.094984099 0.167357 -1.5324399 -0.50346655 -0.84803188 0.16541886 2.9006878e-43
0.10082 0.157481 -1.54496 -0.9030503 -0.42592975 -0.055533312 2.5643762e-43
0.0993241 0.14729001 -1.5449899 -0.88605678 0.3403213 -0.3147774 0
0.097467199 0.145014 -1.54225 0.0071440167 0.99978215 0.019611644 4.7924407e-43
0.092384599 0.168493 -1.5275 0.077998273 -0.54204512 0.83672178 0
0.100078 0.15669499 -1.54749 -0.54955679 -0.35274878 0.75733453 2.5783892e-43
0.094985299 0.16647699 -1.53745 0.10477485 -0.97896045 0.17509624 2.5924022e-43
0.0809834 0.152494 -1.5225 0.82936072 -0.19726235 0.52273166 2.774571e-43
0.094282404 0.147449 -1.55246 0.90086442 -0.12534159 0.41561139 9.10844e-44
0.092321001 0.145456 -1.53747 -0.027881319 0.98484117 0.17120309 0
0.089931503 0.14497501 -1.53496 -0.039281294 0.99754173 -0.058029871 2.6204281e-43
0.0931523 0.167485 -1.52995 0.31288034 -0.28604332 0.90569592 6.0255834e-44
0.094387501 0.14737301 -1.53247 -0.88622355 0.079031289 -0.45646676 2.6204281e-43
0.078817002 0.149921 -1.52 0.98114538 -0.04147096 0.18876931 1.1630777e-43
0.097364902 0.150681 -1.55248 -0.009872634 -0.60689938 0.79471737 2.6344411e-43
0.099994697 0.14572901 -1.5499901 -0.40623865 0.91282737 -0.041429199 2.6484541e-43
0.092441 0.14480001 -1.53246 0.059398416 0.99634123 0.061449245 2.6764801e-43
0.094360098 0.14551 -1.54 0.22775353 0.97181803 -0.060811315 5.2688822e-43
0.097074702 0.155138 -1.54997 -0.072624065 -0.57939184 0.81180716 0
0.094975598 0.155203 -1.54998 0.011521352 -0.30776861 0.95139146 2.5313169e-35
0.097281098 0.14627001 -1.5525 0.19421269 0.91561007 0.35205057 0
0.094950698 0.145385 -1.5349801 -0.53006411 0.80165118 -0.2763828 0.00018104052
0.086432204 0.164997 -1.51999 0.48206756 -0.3028565 -0.8221246 2.718519e-43
0.084089898 0.16236299 -1.51999 0.69452953 -0.51489973 -0.50250077 2.732532e-43
0.099523798 0.147769 -1.55497 -0.44059023 -0.39733401 0.80498815 2.746545e-43
0.081557699 0.146164 -1.5225 0.45081219 0.88419145 0.12236784 2.6204281e-43
0.083372198 0.152493 -1.51749 0.51147699 -0.23694737 -0.82598257 0
0.100789 0.152528 -1.54972 -0.87601453 -0.35875767 0.32232204 9.7251766e-05
0.094507903 0.15996701 -1.5475 -0.20465039 -0.069874153 0.97633797 0
0.097845003 0.164858 -1.53499 -0.99796689 0.062442809 0.01276684 2.0178698e-43
0.085738897 0.167485 -1.52744 0.56104124 -0.29342598 0.77403742 0.00038972055
0.094990402 0.165929 -1.54 -0.13974375 -0.95696759 0.25433195 2.524971e-35
0.094773501 0.149928 -1.55248 0.80802441 -0.14906777 0.56997842 0
0.084136501 0.167478 -1.5225 0.82056552 -0.5454846 -0.17064223 4.0637655e-44
0.0852345 0.145275 -1.5275 0.51524508 0.82522941 0.23134147 2.7885839e-43
0.097440697 0.14744499 -1.5399899 -0.84752977 0.2988061 -0.43864354 3.0548307e-43
0.086140603 0.14999799 -1.5175 -0.72620946 0.31277654 -0.61220151 0
0.085155003 0.16749801 -1.52186 0.16510743 -0.94151884 -0.29373762 5.8013756e-43
0.087427802 0.157288 -1.5175 -0.72188407 -0.057164971 -0.68964887 4.0357396e-43
0.091104902 0.147425 -1.54498 0.94130969 -0.059946094 0.33217844 0.0014336836
0.092494003 0.166289 -1.53249 0.32825956 -0.93698579 0.11959621 2.0178698e-43
0.098115496 0.144969 -1.54497 0.15805294 0.98547369 0.062136009 1.8090383e-05
0.093371898 0.15219501 -1.54746 0.88232332 -0.31438491 0.35023955 6.7262326e-44
0.100893 0.15248001 -1.54748 -0.99033159 0.123666 -0.062849119 0
0.0971784 0.16227099 -1.54497 -0.70360243 -0.48038992 0.52361161 2.0178698e-43
0.089981697 0.146384 -1.525 -0.91688907 0.25237527 -0.30922666 2.220446e-16
0.089814998 0.149992 -1.5399899 0.96357715 -0.10679681 0.2451805 2.6904931e-43
0.100026 0.147477 -1.55474 -0.44059023 -0.39733401 0.80498815 0.093125895
0.099990197 0.15742201 -1.54247 -0.99465895 0.028628966 -0.099166334 6.7262326e-44
0.097489797 0.14762799 -1.55444 0.210363 0.81440353 0.54082739 0.00027033355
0.079754598 0.14698 -1.52249 0.81509447 0.44164979 0.37492201 5.1567783e-43
0.098835297 0.162414 -1.54245 -0.81709713 -0.50737047 0.27372897 0.00025638627
0.0924896 0.165631 -1.5413001 0.38735479 -0.85314488 0.34942827 6.7262326e-44
0.083068199 0.164941 -1.5225 0.90686482 -0.35204771 -0.23164327 0.00029197262
0.095639803 0.147421 -1.53494 -0.93154931 0.11969456 -0.34334981 1.9337919e-43
0.093361802 0.14747 -1.54996 0.86727476 -0.25092956 0.42996383 2.6904931e-43
0.094997302 0.149378 -1.53385 -0.89356595 0.0037077486 -0.44891661 5.7118432e-05
0.091799803 0.167427 -1.52249 -0.82355505 -0.072649032 -0.56256485 0.050726242
0.0802055 0.15472101 -1.52 0.61742824 -0.1995734 -0.76088947 0
0.082490198 0.151053 -1.5175 0.55010372 -0.1423396 -0.82287621 0
0.097633399 0.154861 -1.54998 -0.15238363 -0.35936743 0.92067057 0.00071750768
0.101396 0.14991701 -1.55246 -0.17445101 -0.98406023 0.034530003 2.9987787e-43
0.0848426 0.146101 -1.51999 -0.20021561 0.92072099 -0.33494255 0
0.087318003 0.145133 -1.53 0.069871433 0.99401444 0.083984099 0.28432631
0.099864401 0.147432 -1.55496 -0.44059023 -0.39733401 0.80498815 0.67453086
0.085008301 0.16458599 -1.52055 0.54174167 -0.47010717 -0.69678921 6.7262326e-44
0.092474602 0.16621999 -1.5349801 0.30294326 -0.94912642 0.085932858 0.28432631
0.080027103 0.14990599 -1.5192 0.98691028 -0.10848188 0.11933059 2.8025969e-45
0.099910296 0.150327 -1.55248 -0.0013871584 -0.94316733 0.33231539 0
0.089836001 0.144794 -1.52749 -0.071899988 0.99735951 0.010214516 0
0.089999698 0.14886799 -1.54246 0.97910887 -0.081549071 0.18626733 0
0.089219898 0.144631 -1.525 -0.61443549 0.59894294 -0.51355267 0
0.086348101 0.14510299 -1.5225 0.2247531 0.96712035 -0.11901359 0
0.087301902 0.16811401 -1.5275 0.03192037 -0.93950027 0.34105769 0
0.089858301 0.168467 -1.525 0.2092061 -0.8957209 0.39232245 2.8025969e-45
0.091356903 0.149946 -1.5449899 0.9029181 -0.23090789 0.36251965 0
0.096138701 0.14733601 -1.53747 -0.83531916 0.41352743 -0.36226642 0
0.099996001 0.15758801 -1.54243 -0.99994063 0.010098987 -0.0040942063 0
0.080265902 0.14982501 -1.5225 0.79320073 -0.25112194 0.55477053 0
0.099987902 0.150001 -1.55327 -0.0013871584 -0.94316733 0.33231539 2.8025969e-45
0.096846998 0.164759 -1.53247 -0.87270361 -0.21995476 -0.43589944 0
0.099165797 0.14751001 -1.55521 -0.44059023 -0.39733401 0.80498815 2.8025969e-45
0.081672803 0.14689501 -1.525 0.59375554 0.72082072 0.35759169 0
0.096121497 0.16358501 -1.54496 -0.43305954 -0.5647465 0.70251042 0
0.097454503 0.16410001 -1.5425 -0.54326981 -0.76555365 0.34465274 0
0.094377302 0.146075 -1.54748 0.35343125 0.8802799 0.31653389 2.8025969e-45
0.096552096 0.165563 -1.5399801 -0.54076296 -0.82818872 0.14723733 0
0.095246799 0.167428 -1.53245 -0.50346655 -0.84803188 0.16541886 0
0.095355697 0.168951 -1.53 -0.94481111 -0.32625994 -0.029773613 0
0.094791897 0.17030101 -1.5275 0.99707067 0.049119197 -0.05862892 2.8025969e-45
0.0882985 0.16797499 -1.5275 0.03192037 -0.93950027 0.34105769 0
0.080980599 0.15748601 -1.52 0.93113726 -0.22063681 -0.29034939 0
0.081749797 0.157461 -1.52249 0.9274469 -0.13585736 0.3484036 0
0.087990597 0.167522 -1.52842 -0.29227626 -0.6950919 0.65682709 0
0.089998201 0.164891 -1.52 -0.5823006 -0.022760205 -0.81265491 2.8025969e-45
0.0947593 0.16426399 -1.54496 0.23832048 -0.72789252 0.64294314 0
0.084989101 0.14666501 -1.53148 0.35193169 0.54469198 0.76121926 0
0.101238 0.154862 -1.54748 -0.97086811 -0.22645245 0.078322366 0
0.093206704 0.170984 -1.525 0.2322139 -0.95446616 0.18727267 0
0.090187699 0.147467 -1.54246 0.94332224 -0.039395254 0.32953173 2.8025969e-45
0.094948597 0.16754 -1.5322599 -0.91051626 -0.3042787 0.27995473 0
0.089466304 0.16496301 -1.53499 0.92927462 -0.31981322 0.18484648 2.8025969e-45
0.092427097 0.17112701 -1.525 0.2322139 -0.95446616 0.18727267 0
0.084323399 0.167391 -1.525 0.96767092 -0.24586101 0.056261618 2.8025969e-45
0.100415 0.152271 -1.54998 -0.56082857 -0.60039973 0.57008028 0
0.082512997 0.14936399 -1.51749 0.45310822 0.34228322 -0.82312524 2.8025969e-45
0.089926504 0.165723 -1.5324399 0.31808174 -0.94775027 0.024360523 2.8025969e-45
0.0820942 0.159973 -1.5225 0.98562074 -0.15231982 0.073147006 0
0.084801801 0.159119 -1.5175 0.31059414 -0.36166409 -0.87905085 2.8025969e-45
0.091840401 0.147359 -1.54748 0.9208985 -0.19345829 0.33840778 0
0.0874855 0.165791 -1.5299799 0.038230848 -0.65944189 0.75078279 0
0.094866298 0.154966 -1.5499901 -0.0015025217 -0.18453363 0.98282504 0
0.0897865 0.145024 -1.53496 -0.039281294 0.99754173 -0.058029871 0
0.079904601 0.149289 -1.52249 0.95358843 -0.1320245 0.27062649 2.8025969e-45
0.097440802 0.15001801 -1.55286 0.020446757 -0.71253365 0.70133996 0
0.094885401 0.16219801 -1.54747 0.91762233 -0.24010511 0.31673145 0
0.092453398 0.16683599 -1.52996 0.47757679 -0.82358122 0.30599728 2.8025969e-45
0.100021 0.158896 -1.54496 -0.75469339 -0.57274729 0.31999761 0
0.097571798 0.152521 -1.55089 -0.28838301 -0.44253564 0.84911567 2.8025969e-45
0.080027103 0.15248799 -1.51965 0.97763479 -0.073672451 -0.19698383 0
0.099372797 0.15999199 -1.5399899 -0.9447543 0.020341352 -0.3271476 2.8025969e-45
0.084996797 0.147539 -1.51763 0.0020531826 0.49827757 -0.86701512 0
0.10082 0.150491 -1.55246 -0.17445101 -0.98406023 0.034530003 0
0.095198803 0.157529 -1.54923 0.064892784 -0.61574095 0.78527194 0
0.096156798 0.16672499 -1.53496 -0.61971563 -0.78133392 0.073958352 0
