# .PCD v0.7 - Point Cloud Data file format
VERSION 0.7
FIELDS x y z normal_x normal_y normal_z curvature
SIZE 4 4 4 4 4 4 4
TYPE F F F F F F F
COUNT 1 1 1 1 1 1 1
WIDTH 244
HEIGHT 1
VIEWPOINT 0 0 0 1 0 0 0
POINTS 244
DATA ascii
-0.224995 -0.15250701 -1.52749 -0.99945903 0.0056291213 0.032402962 0
-0.232536 -0.170001 -1.52003 0.1064408 0.98924536 0.10031922 7.5508723e-36
-0.235034 -0.162613 -1.51749 0.91497809 0.25158772 0.31546593 7.5536073e-36
-0.229978 -0.149978 -1.51499 -0.61802799 0.16442288 -0.76876944 3.7134409e-43
-0.222498 -0.160015 -1.53825 -0.56469089 -0.79808909 -0.21018554 0
-0.224573 -0.149994 -1.53501 -0.56733632 -0.54223305 0.61976832 7.5710417e-36
-0.22249199 -0.15495101 -1.53751 -0.63906854 -0.65149498 0.40883452 7.5670813e-36
-0.23517901 -0.14501999 -1.51249 0.44878203 0.85045308 -0.27445275 7.5536073e-36
-0.229986 -0.150896 -1.51499 -0.59192544 0.36908579 -0.7165193 7.5613674e-36
-0.227494 -0.16574199 -1.52249 -0.96680033 0.23146337 -0.10826716 7.5505739e-36
-0.227507 -0.160041 -1.5380599 0.4326055 0.42503163 0.7951104 7.5536073e-36
-0.230001 -0.149424 -1.51501 -0.076928489 -0.021358682 -0.99680781 7.5536073e-36
-0.22758199 -0.142497 -1.52806 0.38230792 -0.66170108 0.64497471 3.1529215e-43
-0.23002701 -0.147498 -1.53316 0.86885571 -0.17412867 0.46343169 7.5842431e-36
-0.234891 -0.147425 -1.51749 0.97539061 0.092636831 0.20007899 7.5687114e-36
-0.229966 -0.15300401 -1.53248 0.98234427 -0.07917238 0.16950363 7.5660941e-36
-0.22759099 -0.149445 -1.53511 -0.011089333 0.075027965 0.99711978 2.0739217e-43
-0.22739799 -0.139771 -1.52249 -0.67507184 -0.67861319 -0.28941688 0
-0.222452 -0.160126 -1.53745 -0.98415911 -0.15134938 -0.092326738 1.9758308e-43
-0.23247699 -0.17002299 -1.5199701 -0.05063324 0.99636155 -0.068556391 3.6013371e-43
-0.232537 -0.137503 -1.5127 -0.48690969 -0.82936263 -0.27400112 0
-0.22751001 -0.14497299 -1.53056 0.32026142 -0.79955059 0.50808609 1.9898438e-43
-0.227603 -0.139983 -1.52563 0.072899476 0.13695973 0.98789054 1.835701e-43
-0.224969 -0.16250899 -1.5329601 -0.14378689 0.913472 0.38064978 0
-0.225171 -0.154955 -1.5378799 0.051411629 -0.24865782 0.96722597 6.7262326e-44
-0.230004 -0.14906199 -1.53354 0.92583334 0.070181035 0.37135872 3.9937006e-43
-0.23512 -0.157392 -1.51781 0.99499065 0.0086302552 -0.09959475 1.779649e-43
-0.236707 -0.137485 -1.51773 0.62571013 -0.23388574 0.74416685 2.9847657e-43
-0.23750199 -0.14012 -1.51354 0.97263128 0.032293092 0.2300991 7.442119e-36
-0.22995199 -0.170045 -1.5208499 0.0053286171 0.87253916 0.48851514 7.442119e-36
-0.22737201 -0.139989 -1.5257 -0.81837273 -0.46631971 0.33587497 4.6663239e-43
-0.23000699 -0.155009 -1.5326999 0.95000839 -0.0332173 0.31045231 2.0318828e-43
-0.23498601 -0.13769899 -1.5175 -0.090432912 -0.91329014 0.39714351 2.0318828e-43
-0.230019 -0.16500799 -1.52792 0.048438769 0.99250841 0.11216401 2.0318828e-43
-0.235 -0.145027 -1.51835 0.90884233 0.29328075 0.29663441 4.1898824e-43
-0.235029 -0.16748901 -1.52048 0.93499285 -0.055495288 0.35029802 0
-0.23295701 -0.17000499 -1.51994 0.1064408 0.98924536 0.10031922 0.0021628069
-0.232728 -0.14248499 -1.52561 0.98869652 -0.0057486435 0.14982052 0.0015442566
-0.235155 -0.139983 -1.5212801 0.49552637 -0.44992551 0.7429809 0.0017977395
-0.230002 -0.154239 -1.533 0.99738026 -0.071357407 0.011862703 3.3631163e-43
-0.23802 -0.13988601 -1.51249 0.99727654 -0.06717445 0.030448899 5.1147394e-43
-0.224969 -0.14497399 -1.5319 0.12323517 -0.92986703 0.34664163 7.5621136e-36
-0.23363601 -0.150023 -1.51499 0.55228448 0.77927685 -0.29615781 7.5521588e-36
-0.232446 -0.145713 -1.51249 -0.006558022 0.0036454813 -0.99997187 7.5482349e-36
-0.22995099 -0.145689 -1.53 0.42342827 -0.784747 0.4526374 7.5472226e-36
-0.22249199 -0.157497 -1.53868 -0.54797703 -0.1829391 0.81624413 7.5482349e-36
-0.227477 -0.16250201 -1.53353 -0.032234956 0.90213376 0.43025059 7.5482349e-36
-0.229734 -0.162458 -1.52997 0.9966442 -0.069507621 0.043232623 7.5621136e-36
-0.23005299 -0.139993 -1.52347 0.40164563 -0.76130164 0.50901926 5.0727004e-43
-0.229782 -0.159963 -1.52999 0.99411827 -0.0047471346 0.10819553 7.5233224e-36
-0.229799 -0.14112499 -1.525 0.41953975 -0.67868614 0.60280305 7.5621136e-36
-0.229855 -0.149896 -1.53249 0.98509514 0.095557056 0.14302602 7.5468667e-36
-0.22740901 -0.16078401 -1.5375 0.4326055 0.42503163 0.7951104 7.5675642e-36
-0.23462699 -0.16470701 -1.51749 0.98026508 0.14850421 -0.1304871 3.9376487e-43
-0.23547 -0.161898 -1.51749 0.99984723 0.015472163 -0.0081347572 0
-0.230001 -0.16264801 -1.53192 0.99277687 -0.020587273 0.11819579 0
-0.234909 -0.14523201 -1.5125 0.44878203 0.85045308 -0.27445275 2.1019477e-43
-0.232418 -0.162475 -1.5178601 -0.025482681 0.078269482 -0.99660653 5.0166485e-43
-0.227588 -0.15747499 -1.53826 0.60175788 -0.077957697 0.79486483 2.1019477e-43
-0.229865 -0.139348 -1.52249 -0.094809517 -0.94584376 0.31046849 2.718519e-43
-0.228781 -0.159961 -1.51749 -0.50880897 0.26706243 -0.81840765 2.1019477e-43
-0.226318 -0.142487 -1.52855 -0.59782106 -0.61025774 0.51980329 0
-0.237507 -0.136895 -1.51587 0.94223416 -0.050026406 0.33119807 0
-0.234602 -0.14199699 -1.52249 0.9058758 0.022321917 0.42295486 0.00068955601
-0.225133 -0.14499301 -1.5319 0.12323517 -0.92986703 0.34664163 3.3350903e-43
-0.22957399 -0.157381 -1.53249 0.99501848 0.099071644 0.011091202 7.562722e-36
-0.232508 -0.16546901 -1.5247101 0.91202563 0.061146606 0.40554947 3.4471942e-43
-0.22528601 -0.15965 -1.53897 -0.18444766 0.43290731 0.8823663 0
-0.23241501 -0.15746801 -1.51621 0.36528131 0.26996318 -0.89089251 7.5862642e-36
-0.23133001 -0.139807 -1.5125 -0.82652092 -0.34027258 -0.44841692 4.9185576e-43
-0.229028 -0.164978 -1.5275 -0.077854551 0.96531248 0.24921976 2.1159607e-43
-0.22633401 -0.14222699 -1.525 -0.95711184 -0.28818455 0.029776264 0
-0.229808 -0.16664401 -1.525 0.12922621 0.81540459 0.56428355 2.704506e-43
-0.227495 -0.151206 -1.53499 0.95830452 0.14981565 -0.24332637 2.1439867e-43
-0.229765 -0.165001 -1.5281301 0.048438769 0.99250841 0.11216401 2.1019477e-43
-0.223548 -0.15998399 -1.53249 -0.9245891 0.23508184 -0.29978579 3.4191683e-43
-0.2305 -0.15249 -1.52995 0.97932321 -0.045974467 0.19700849 2.1579996e-43
-0.23580299 -0.14991 -1.51499 0.71685416 0.59234494 -0.36776018 0
-0.22463299 -0.144732 -1.52995 -0.97499084 -0.21792123 -0.043625694 6.7262326e-44
-0.222449 -0.15494999 -1.53748 -0.63906854 -0.65149498 0.40883452 2.2140516e-43
-0.224971 -0.160739 -1.53748 -0.12047378 0.88283753 0.45396474 0
-0.231227 -0.14488301 -1.51249 -0.82866246 0.064054787 -0.55607152 4.0357396e-43
-0.23029301 -0.144989 -1.5290999 0.42222625 -0.63620299 0.6457327 4.6242849e-43
-0.228544 -0.157447 -1.53745 0.60175788 -0.077957697 0.79486483 3.3070644e-43
-0.224989 -0.149993 -1.53495 0.079491526 0.57740784 0.81257695 2.1720126e-43
-0.232724 -0.16753399 -1.52372 0.36554235 0.53219742 0.76363915 3.3070644e-43
-0.230031 -0.155219 -1.5325 0.99136889 0.089432105 -0.095862351 2.2140516e-43
-0.22982401 -0.13886601 -1.52 -0.22274253 -0.97448599 0.027619153 0
-0.23070399 -0.139856 -1.52249 0.23321232 -0.93145519 0.27929053 3.7134409e-43
-0.22556201 -0.16005801 -1.53879 0.19995555 0.82324874 0.53129965 0
-0.227118 -0.149323 -1.53526 -0.011089333 0.075027965 0.99711978 2.2140516e-43
-0.23421299 -0.162352 -1.51999 0.94713134 -0.18624985 0.26125327 7.5595752e-36
-0.229808 -0.152409 -1.53247 0.96811223 -0.055412669 0.2443116 4.6803369e-43
-0.23706099 -0.139781 -1.515 0.953632 0.19022436 0.23323956 0
-0.22583 -0.147495 -1.53409 -0.06600336 -0.56156218 0.82479787 1.5414283e-43
-0.232302 -0.16560701 -1.525 0.27901575 0.35830936 0.89093471 4.0637655e-43
-0.229976 -0.169824 -1.52 -0.20640786 0.50712049 -0.83679426 2.2140516e-43
-0.229644 -0.16247299 -1.53245 0.16308281 0.94658214 0.27818394 2.3541814e-43
-0.23231199 -0.14024299 -1.5225 0.27787453 -0.83280486 0.47877115 2.3541814e-43
-0.22714099 -0.139529 -1.525 -0.8567611 -0.50955361 0.079470605 2.2280646e-43
-0.23323999 -0.14249299 -1.525 0.98869652 -0.0057486435 0.14982052 4.568233e-43
-0.224905 -0.162782 -1.5324399 -0.25187057 0.96310657 0.09479969 9.8651412e-43
-0.224948 -0.15245 -1.5361201 0.065567262 -0.50946742 0.8579883 7.5653049e-36
-0.23248 -0.152495 -1.51539 0.46800029 0.24921437 -0.84786081 4.8204667e-43
-0.23657 -0.143488 -1.5125 0.4263877 0.35475892 -0.83206952 0
-0.22925 -0.154983 -1.53497 0.92071933 0.10631707 0.37546313 7.580617e-36
-0.230388 -0.147471 -1.53247 0.86885571 -0.17412867 0.46343169 7.5857139e-36
-0.228034 -0.149547 -1.53494 0.5195213 0.046986554 0.85316461 0
-0.23758601 -0.14196099 -1.51249 0.91385269 0.30756935 0.26509309 3.3771293e-43
-0.22927999 -0.152482 -1.5349801 0.77980447 -0.35300326 0.51700449 2.0178698e-43
-0.222546 -0.15499599 -1.53494 -0.98773187 -0.069890067 -0.1396465 4.0357396e-43
-0.234979 -0.14860301 -1.51499 0.73051023 0.4913474 0.47427058 6.7262326e-44
-0.229983 -0.16201 -1.51749 0.0084992768 0.19985284 -0.97978908 0.00024698893
-0.227461 -0.155295 -1.53749 0.25671643 -0.24867019 0.93394852 5.859237e-05
-0.22711 -0.164894 -1.5275 -0.21259867 0.9426316 0.25738576 8.0714792e-43
-0.228723 -0.157352 -1.53499 0.96161062 0.036801498 0.27193871 2.2701035e-43
-0.23494899 -0.169577 -1.51999 -0.070039101 0.054843966 0.99603546 7.5659592e-36
-0.227596 -0.152496 -1.53619 0.20164137 -0.55276668 0.80857265 7.5434365e-36
-0.23496801 -0.147496 -1.51451 0.73051023 0.4913474 0.47427058 3.6994279e-43
-0.224584 -0.154927 -1.5380599 -0.020421088 -0.40586829 0.91370338 2.2000386e-43
-0.22498301 -0.14573 -1.53249 0.038937069 -0.63240314 0.77366024 0
-0.227484 -0.163212 -1.53247 0.090587407 0.95240563 0.29106256 0.0010775309
-0.230837 -0.17 -1.51993 -0.045059036 0.993267 -0.10672583 2.4943113e-43
-0.22495399 -0.154137 -1.53749 0.014538898 -0.54780769 0.83647794 0
-0.23248801 -0.13747901 -1.51671 -0.05966562 -0.96385932 0.25964436 2.0178698e-43
-0.22744299 -0.149681 -1.53496 -0.011089333 0.075027965 0.99711978 6.8692784e-06
-0.230123 -0.14826301 -1.53246 0.86885571 -0.17412867 0.46343169 5.3809861e-43
-0.230002 -0.152483 -1.5321 0.96703023 -0.10283864 0.23297361 2.0178698e-43
-0.23205499 -0.137145 -1.515 -0.21478251 -0.97652429 0.01639373 3.6994279e-43
-0.235021 -0.16902 -1.5210299 0.91527569 0.03080681 0.40164834 0.033488512
-0.236552 -0.14247499 -1.51499 0.95288742 0.19331881 0.23373802 1.2191297e-43
-0.230499 -0.154873 -1.52996 0.98551279 0.10396856 0.13399662 2.0178698e-43
-0.23001 -0.156537 -1.52999 0.9562726 0.20055757 0.2128834 0.00091511727
-0.23796 -0.137224 -1.515 0.97528267 -0.13586289 -0.17425555 6.7262326e-44
-0.23388299 -0.15996601 -1.52 0.98761845 -0.024699036 0.15491839 0.78144652
-0.234984 -0.14238299 -1.51127 0.4263877 0.35475892 -0.83206952 0.78450489
-0.236812 -0.14087901 -1.5175 0.96394622 0.15309075 0.21764858 0.85404783
-0.23241501 -0.169029 -1.5225 -0.022403527 0.6392597 0.76866454 4.6803369e-43
-0.235315 -0.159817 -1.5175 0.99822134 -0.052721541 0.027832188 0
-0.224988 -0.14747401 -1.53371 -0.40374145 -0.45837519 0.79176074 2.0178698e-43
-0.229996 -0.14690299 -1.53246 0.86885571 -0.17412867 0.46343169 0.94990921
-0.23208199 -0.144758 -1.5275 0.69131935 -0.27022478 0.67011654 0.004428362
-0.22222701 -0.15995499 -1.53746 -0.98240995 0.17373262 0.068466835 0.0055980785
-0.227755 -0.167257 -1.5225 -0.70892447 0.48730132 -0.50986618 2.2000386e-43
-0.23399 -0.13749801 -1.5174299 -0.059175204 -0.9601652 0.27309543 2.0178698e-43
-0.237498 -0.13822401 -1.51248 0.97763187 -0.13483553 -0.16141666 0
-0.229617 -0.15999199 -1.53249 0.97381449 -0.057488505 0.21995556 0.35851869
-0.229996 -0.143499 -1.52749 0.36320734 -0.69188625 0.62399828 5.3809861e-43
-0.232337 -0.159971 -1.51739 0.24866603 0.31605387 -0.91557366 0
-0.229165 -0.13987499 -1.51749 -0.93101835 -0.26666844 -0.24918415 0
-0.23764101 -0.13817801 -1.51499 0.94742602 0.18704845 0.25960901 5.2268433e-43
-0.23752201 -0.137503 -1.51572 0.94223416 -0.050026406 0.33119807 0
-0.235021 -0.164993 -1.51987 0.98984349 -0.11417257 -0.0847027 2.3822074e-43
-0.224979 -0.16172799 -1.535 -0.14622772 0.92115158 0.36068994 4.6382979e-43
-0.232437 -0.138832 -1.51999 0.07087826 -0.89264899 0.44514498 2.3822074e-43
-0.227424 -0.163793 -1.52996 -0.060346451 0.96650821 0.24943979 0
-0.236782 -0.139852 -1.5175 0.96221501 0.045406107 0.26847818 0
-0.22387201 -0.162424 -1.53248 -0.90876371 0.41604826 0.032439291 0
-0.234447 -0.14322899 -1.5225 0.89585042 0.080073975 0.43708143 5.2128303e-43
-0.23481201 -0.13687301 -1.51499 -0.077636607 -0.98385203 0.16126902 0
-0.228956 -0.161888 -1.53497 0.57464486 0.50938004 0.64055854 2.3962204e-43
-0.23489299 -0.13688099 -1.5125 0.074022479 -0.95767808 -0.27816078 1.4153114e-43
-0.235061 -0.162488 -1.5188 0.93960083 -0.14158736 0.3116141 4.2179084e-43
-0.22996899 -0.16432001 -1.52995 0.99851036 -0.039909489 -0.037205461 0
-0.22747999 -0.15247101 -1.53619 0.20164137 -0.55276668 0.80857265 2.3962204e-43
-0.23249 -0.160327 -1.5175 0.10621341 0.17206264 -0.97934324 1.4573504e-43
-0.23503201 -0.159467 -1.5182199 0.90922397 0.052713905 0.41295648 2.4102334e-43
-0.224999 -0.150071 -1.53497 -0.12001847 -0.40386447 0.90691185 0
-0.227469 -0.144329 -1.52995 0.33366171 -0.66835576 0.66480863 2.4102334e-43
-0.237452 -0.14217401 -1.51243 0.91385269 0.30756935 0.26509309 1.4012985e-43
-0.22811399 -0.167523 -1.52415 -0.29978275 0.95233893 0.056398805 3.1949605e-43
-0.222752 -0.15991101 -1.535 -0.98494339 0.050337821 -0.16538635 0
-0.222486 -0.158623 -1.5391001 -0.83142918 0.11847333 0.54285318 3.2930514e-43
-0.22454 -0.16222399 -1.53 -0.97246069 0.16455394 -0.16505229 0
-0.23257001 -0.139998 -1.52203 0.2002259 -0.85532814 0.4778319 0.00033666301
-0.231288 -0.16484199 -1.5275 0.048438769 0.99250841 0.11216401 1.8917529e-43
-0.232173 -0.142019 -1.525 0.24722366 -0.69478196 0.67539507 0
-0.235009 -0.14236701 -1.52152 0.91099524 0.071957417 0.40609092 2.0178698e-43
-0.231198 -0.165051 -1.5275 0.048438769 0.99250841 0.11216401 3.3631163e-43
-0.22719701 -0.15497001 -1.53745 0.16912676 -0.33519715 0.92684358 1.2182294e-36
-0.222517 -0.159989 -1.53593 -0.99351305 0.052129854 -0.10106564 6.1096613e-43
-0.230095 -0.15497699 -1.5325 0.99136889 0.089432105 -0.095862351 0
-0.235581 -0.14305601 -1.52 0.84964514 0.43200642 0.30244598 2.6764801e-43
-0.221929 -0.15748601 -1.53745 -0.99927771 -0.032445908 0.019781193 7.5853932e-36
-0.23002601 -0.142481 -1.5263 0.26290402 -0.72680312 0.63453817 7.5541346e-36
-0.237432 -0.136686 -1.51498 0.97528267 -0.13586289 -0.17425555 7.5527923e-36
-0.229533 -0.147495 -1.53342 0.86885571 -0.17412867 0.46343169 0
-0.23247901 -0.15490501 -1.51599 0.53338844 0.14395398 -0.83353108 7.5543068e-36
-0.232485 -0.13775399 -1.5175 -0.10407811 -0.93716127 0.3330113 7.5551793e-36
-0.23386 -0.16748799 -1.5225 0.72423261 0.086367011 0.68412566 2.3541814e-43
-0.22823299 -0.14486501 -1.53 0.350409 -0.78500938 0.51085597 0
-0.23703399 -0.137444 -1.5125 0.66429329 -0.62730247 -0.40645549 2.2000386e-43
-0.230084 -0.167401 -1.5192 -0.3697072 0.27865812 -0.88637817 7.5678641e-36
-0.23481099 -0.164764 -1.51999 0.99380279 -0.11113461 -0.0022514784 7.4903671e-36
-0.227293 -0.166457 -1.525 -0.59559041 0.75567734 0.27244037 7.4814928e-36
-0.230009 -0.16249999 -1.52942 0.97938597 0.059738062 0.19296245 7.5410488e-36
-0.235 -0.144936 -1.5124201 0.19841194 0.40326208 -0.89331537 7.5548579e-36
-0.226704 -0.157483 -1.5384901 0.30267423 -0.18078189 0.93579173 4.8765187e-43
-0.23419701 -0.16922399 -1.5225 0.53347296 0.50847518 0.67591393 0
-0.2368 -0.13728601 -1.51749 0.62571013 -0.23388574 0.74416685 7.5549267e-36
-0.22881299 -0.16742501 -1.51998 -0.84959441 0.43192685 -0.3027021 7.5410488e-36
-0.226595 -0.164921 -1.525 -0.9886899 0.14796108 -0.02449079 2.2420775e-43
-0.229983 -0.16852599 -1.52249 -0.28314182 0.73188341 0.61982042 7.5550767e-36
-0.229381 -0.16322701 -1.53247 0.16308281 0.94658214 0.27818394 7.5410488e-36
-0.23195501 -0.152017 -1.515 0.0069931652 0.12960656 -0.99154085 7.5410488e-36
-0.23283 -0.13750499 -1.5125 -0.48690969 -0.82936263 -0.27400112 7.5854627e-36
-0.22482499 -0.16336 -1.53 -0.43911475 0.89357466 -0.09328761 7.5410488e-36
-0.234402 -0.144897 -1.52 0.92775935 0.32658553 0.18056701 2.9427268e-43
-0.230021 -0.164278 -1.53 0.99851036 -0.039909489 -0.037205461 7.5597832e-36
-0.22778399 -0.16058201 -1.53745 0.4326055 0.42503163 0.7951104 7.4167265e-36
-0.223564 -0.149892 -1.53249 -0.89818573 -0.4098056 0.15912817 7.5703214e-36
-0.234961 -0.162479 -1.51747 -0.053330325 -0.14320914 -0.98825455 9.8090893e-44
-0.23568 -0.139918 -1.51999 0.89538336 -0.1156501 0.43001586 1.0789998e-43
-0.22796001 -0.154992 -1.53734 0.75049233 -0.29330236 0.59222883 2.0879347e-43
-0.234984 -0.165289 -1.52 0.98984349 -0.11417257 -0.0847027 7.5469378e-36
-0.22998799 -0.16521201 -1.52745 0.048438769 0.99250841 0.11216401 7.5703214e-36
-0.230546 -0.167505 -1.52414 0.11516828 0.70716852 0.69760233 0
-0.22793201 -0.15970901 -1.53745 0.85287094 0.24963921 0.45857543 6.7262326e-44
-0.22747201 -0.16500799 -1.52746 -0.077854551 0.96531248 0.24921976 6.0816353e-43
-0.227562 -0.159499 -1.53824 0.86635625 0.11965241 0.48488161 2.774571e-43
-0.23558199 -0.16927201 -1.52 -0.070039101 0.054843966 0.99603546 2.4662853e-43
-0.230939 -0.16469499 -1.51847 -0.32779819 0.24383526 -0.9127391 2.746545e-43
-0.224823 -0.16002201 -1.5388499 -0.12097435 0.7591663 0.63955593 7.5467197e-36
-0.231024 -0.17000701 -1.52097 -0.045059036 0.993267 -0.10672583 7.562458e-36
-0.227497 -0.16206899 -1.53499 0.083765045 0.38037688 0.92103034 3.4612072e-43
-0.22871201 -0.159761 -1.53496 0.92606616 0.13500167 0.35238621 2.9847657e-43
-0.22534101 -0.144898 -1.5275 -0.92565632 -0.27927205 -0.2552793 7.5718941e-36
-0.227384 -0.141875 -1.5275 0.35256997 -0.6381644 0.6844272 7.5718941e-36
-0.228403 -0.139824 -1.525 0.45381323 -0.7062273 0.54341191 7.4955788e-36
-0.23631699 -0.14483 -1.515 0.99359798 0.098207533 0.055841979 5.7172977e-43
-0.23492 -0.159656 -1.51718 0.99822134 -0.052721541 0.027832188 2.746545e-43
-0.231104 -0.146874 -1.53 0.93456864 -0.21060562 0.28675205 2.746545e-43
-0.235025 -0.143241 -1.52153 0.91099524 0.071957417 0.40609092 2.704506e-43
-0.223643 -0.158907 -1.53942 0.076493956 -0.12629081 0.9890396 2.774571e-43
-0.224345 -0.157478 -1.53887 0.082941711 -0.23514479 0.96841502 0
-0.227504 -0.14004201 -1.52209 0.26783428 -0.14965132 -0.95177168 2.760558e-43
-0.228835 -0.162508 -1.53429 0.0645625 0.93548679 0.34741354 2.760558e-43
-0.235213 -0.157452 -1.51749 0.99936092 -0.020931423 -0.028976483 0
-0.22845601 -0.142499 -1.52744 0.39689946 -0.65760773 0.64033031 7.4472388e-36
-0.23569 -0.142416 -1.52 0.92348272 0.012709361 0.38342947 7.5725484e-36
-0.234997 -0.13926899 -1.51998 0.41783741 -0.81196117 0.40759167 5.479077e-43
-0.227422 -0.14593799 -1.53246 0.22722943 -0.80682534 0.54534364 0
-0.232484 -0.149902 -1.51481 -0.022955613 0.11520681 -0.99307626 2.746545e-43
-0.235403 -0.167446 -1.51999 0.93499285 -0.055495288 0.35029802 0
