# .PCD v0.7 - Point Cloud Data file format
VERSION 0.7
FIELDS x y z normal_x normal_y normal_z curvature
SIZE 4 4 4 4 4 4 4
TYPE F F F F F F F
COUNT 1 1 1 1 1 1 1
WIDTH 96
HEIGHT 1
VIEWPOINT 0 0 0 1 0 0 0
POINTS 96
DATA ascii
38.674599 -19.2932 413.25699 -0.21696866 0.8490963 0.48162234 0.024232687
38.2365 -21.104 418.61099 -0.20735753 0.94709599 0.24497363 0.002424875
36.776501 -21.237101 417.85199 -0.16349293 0.97023284 0.17865677 0.0022354482
37.2244 -20.896601 416.69199 -0.2192205 0.94793278 0.23101048 0.0025591792
30.710501 -19.3076 413.914 0.14231883 0.53678495 0.83162928 0.017661978
35.077999 -23.1327 424.39401 0.24311034 0.66551661 0.70568055 0.02792565
32.923801 -21.9736 420.547 0.040382154 0.98272991 0.18058583 0.0025655101
35.159801 -21.5874 418.60999 -0.082652628 0.9808026 0.17662045 0.0020624553
48.114101 -19.294399 420.35101 0.033796776 0.64474118 0.76365346 0.048463967
28.737301 -19.3356 414.54999 0.24108137 0.71208209 0.65940797 0.021986095
34.781898 -21.228201 416.345 -0.04636465 0.96977359 0.23956105 0.0074830153
36.4827 -25.091499 425.06699 0.21512412 0.47646165 0.85247046 0.046253465
40.6362 -24.980801 424.37701 0.29559746 0.2066427 0.93269551 0.068266936
38.964401 -24.6654 424.37299 0.1321128 0.45996714 0.87805265 0.07369066
41.089298 -25.156099 424.37701 0.29559746 0.2066427 0.93269551 0.074869491
41.432999 -23.168501 423.36499 0.11393941 0.4662784 0.8772698 0.045993637
38.698002 -21.0033 418.655 -0.21881919 0.94197452 0.2545628 0.0023588324
40.1567 -21.1845 420.522 -0.24274991 0.92201722 0.30159038 0.0089261038
28.802601 -23.2033 425.936 0.22379741 0.64690709 0.72898966 0.057900988
27.1033 -23.1119 426.31799 0.29548511 0.62740874 0.72044903 0.079199106
40.916698 -20.9643 420.51801 -0.23454493 0.88711977 0.39750126 0.016307531
44.642601 -19.3151 419.87701 -0.29427651 0.84527498 0.44599506 0.015225915
33.249599 -21.668301 418.62201 0.019759055 0.98744076 0.15674919 0.0021468061
38.624901 -22.136 422.491 -0.13115327 0.87670869 0.4627966 0.03079113
38.536999 -25.0959 424.66699 0.1321128 0.45996714 0.87805265 0.059142202
38.457001 -23.1602 423.711 0.11135171 0.60319442 0.78978306 0.050307464
35.330799 -23.228901 424.38699 0.27233386 0.67107308 0.68956161 0.027968954
36.579201 -23.258699 424.09399 0.18372481 0.73056585 0.65766156 0.02327729
30.844801 -17.521299 412.978 0.16416648 0.28449482 0.94451684 0.0060532913
36.783501 -23.9795 424.37399 0.2167462 0.61376679 0.75915176 0.058367845
32.157799 -17.413601 412.702 0.064359292 0.27770704 0.95850754 0.011534104
36.675301 -22.3118 422.51999 0.037984267 0.88958967 0.45517841 0.026652873
35.313 -22.3916 422.48599 0.019760137 0.94353056 0.33069563 0.020842334
31.486799 -17.420799 412.815 0.13057858 0.28297186 0.95019794 0.010174672
34.7943 -21.9856 420.58099 -0.048036266 0.97696543 0.20792095 0.0062858639
37.0368 -21.354401 418.63901 -0.17228706 0.96295416 0.20745224 0.0023546054
27.269699 -23.181299 426.31601 0.29548511 0.62740874 0.72044903 0.081843235
37.090401 -21.814699 420.556 -0.11287461 0.95982593 0.256892 0.0081228307
38.826199 -21.546801 420.57501 -0.21350209 0.93986273 0.26659885 0.014654433
38.5867 -21.2199 419.32401 -0.20781377 0.94710302 0.24455936 0.0066374904
26.976999 -23.2062 426.379 0.29548511 0.62740874 0.72044903 0.076537088
38.676102 -18.995199 412.82101 -0.17610459 0.78216481 0.59766662 0.031144168
34.585201 -17.371099 412.59799 0.20117746 0.30273166 0.93160141 0.0081351483
33.2327 -17.1681 412.802 0.060024973 0.29638833 0.95317942 0.0085498709
30.766001 -21.2353 416.853 0.15533172 0.95468342 0.25387326 0.0083837472
34.440899 -23.1495 424.68701 0.23399387 0.7086252 0.66565543 0.026988665
43.9879 -23.1574 422.909 0.1940573 0.18099302 0.964149 0.078770816
27.0744 -18.986401 414.78101 0.30849373 0.66369897 0.68142152 0.026298564
35.957802 -21.172199 416.66699 -0.15241657 0.96236223 0.22500698 0.007077768
35.1912 -21.2728 416.66101 -0.09972094 0.97234917 0.21117024 0.00708625
34.586201 -25.0893 425.672 0.28215912 0.40250647 0.87084717 0.061509177
33.054901 -25.6737 426.328 0.18338184 0.25093919 0.9504739 0.058424905
32.791698 -25.1471 426.224 0.18338184 0.25093919 0.9504739 0.060294129
30.752701 -23.1973 425.41299 0.13504089 0.61410958 0.77758175 0.042367805
29.062201 -19.7593 414.73499 0.23377994 0.79057777 0.56598032 0.01920726
30.864 -24.8974 426.34201 0.16195929 0.46404171 0.87088144 0.082541689
30.987101 -22.5434 424.37799 0.077292427 0.8573851 0.50883859 0.022947526
39.758099 -23.193399 423.526 0.050852951 0.51684886 0.85456496 0.041328035
36.879501 -19.253099 412.82101 0.073399819 0.69601882 0.71426201 0.033689365
49.6157 -19.2931 420.13599 0.35468009 0.095326401 0.93011552 0.063408948
48.3009 -19.7232 420.54199 0.19518492 0.22429349 0.95477498 0.047506072
28.699301 -25.170799 426.92401 0.21244982 0.44663155 0.86912906 0.058845263
43.090302 -20.220501 420.522 -0.23428132 0.80396426 0.54658365 0.015220822
29.320801 -22.282801 424.41599 0.22908612 0.84000349 0.49184722 0.022782838
29.173401 -24.3029 426.332 0.21244982 0.44663155 0.86912906 0.081521876
36.695801 -19.337299 412.90201 0.073399819 0.69601882 0.71426201 0.031402394
44.048 -21.2269 421.89001 0.15154086 0.59978187 0.78568256 0.056481026
32.5947 -23.175501 425.18201 0.11919912 0.58352375 0.80330044 0.041250192
26.949301 -19.367001 415.12601 0.30989382 0.72978383 0.60941064 0.019064005
44.495399 -22.532301 422.453 0.25929224 0.22617932 0.93894112 0.063965559
32.629902 -19.2936 413.69901 0.10961819 0.49073181 0.86438775 0.024617659
34.755001 -17.995199 412.81601 0.26193184 0.45621347 0.85044754 0.0091680437
44.699799 -19.704 420.53699 -0.2697809 0.743936 0.61137342 0.023983479
39.364498 -25.088699 424.508 0.12623529 0.27210775 0.95395076 0.047989514
36.237701 -19.299101 412.927 0.073399819 0.69601882 0.71426201 0.028760638
44.730301 -21.223101 421.797 0.15154086 0.59978187 0.78568256 0.067339838
32.9856 -17.4137 412.83099 0.071276121 0.32032502 0.94462246 0.01083189
29.4366 -20.9874 416.66501 0.20681863 0.93508363 0.28782752 0.0064660865
27.0553 -20.3773 416.67401 0.27190304 0.88153142 0.38596779 0.012036669
42.6371 -21.8095 422.46201 0.0089490339 0.66598988 0.74590713 0.048365906
34.7453 -20.7761 414.811 -0.060151003 0.87911284 0.47280279 0.028751926
32.8297 -21.3596 416.66501 0.012734676 0.97380334 0.22703502 0.009202064
34.368401 -19.3146 413.30301 0.20614311 0.51139265 0.8342557 0.026669409
46.531502 -19.299 420.60001 -0.044315636 0.68716294 0.72515047 0.058647621
31.374001 -21.2673 416.66901 0.11964788 0.94858259 0.29304519 0.0091689592
32.5984 -21.2222 416.06699 0.062783912 0.93291163 0.35459 0.0185128
33.174599 -21.2274 416.01801 0.03093498 0.93876201 0.34317482 0.014148487
27.9709 -19.2911 414.73199 0.27923962 0.66662121 0.69111609 0.028112879
46.408501 -19.1493 420.51801 -0.097730726 0.74738961 0.65715867 0.056048825
46.100601 -19.1791 420.51401 -0.097730726 0.74738961 0.65715867 0.060311675
40.6992 -21.228701 421.099 -0.18551429 0.90284848 0.3878777 0.017384551
40.8344 -21.7187 422.48199 -0.11947239 0.82831061 0.54738277 0.022353575
30.8134 -25.1066 426.452 0.16195929 0.46404171 0.87088144 0.058629375
32.4086 -25.2164 426.30099 0.16211355 0.28564048 0.94452566 0.055896491
32.9501 -20.702499 414.77399 0.022481732 0.83222055 0.55398875 0.020958794
31.181299 -20.410299 414.729 0.14558648 0.82143724 0.55140316 0.02232004
