# .PCD v0.7 - Point Cloud Data file format
VERSION 0.7
FIELDS x y z normal_x normal_y normal_z curvature
SIZE 4 4 4 4 4 4 4
TYPE F F F F F F F
COUNT 1 1 1 1 1 1 1
WIDTH 374
HEIGHT 1
VIEWPOINT 0 0 0 1 0 0 0
POINTS 374
DATA ascii
-0.195134 0.135011 -1.66497 0.04405348 -0.99822134 0.040167145 0
-0.194976 0.1679 -1.6249501 0.93496752 0.057928756 0.34997144 7.5508723e-36
-0.21009199 0.175014 -1.625 -0.029882442 0.99816322 0.05269913 7.5536073e-36
-0.18994901 0.139788 -1.65996 0.66757888 -0.63661057 0.38608992 3.7134409e-43
-0.20001 0.16503599 -1.62068 0.80650502 -0.44674182 0.38726136 0
-0.210034 0.15509801 -1.65105 -0.12479625 0.29310152 0.94790161 7.5710417e-36
-0.19502901 0.14009701 -1.6552401 0.64091748 -0.48510975 0.59488928 7.5670813e-36
-0.21005 0.150033 -1.6554199 0.052354824 0.57640278 -0.81548685 7.5536073e-36
-0.21001101 0.155001 -1.64537 -0.98266619 0.17147185 -0.070459366 7.5613674e-36
-0.21502499 0.117952 -1.65714 -0.95390707 -0.20427252 -0.21985005 7.5505739e-36
-0.215332 0.144959 -1.61496 -0.49302495 -0.52666414 0.69249642 7.5536073e-36
-0.189987 0.155506 -1.64498 0.63596618 -0.17130464 0.75246376 7.5536073e-36
-0.190146 0.150015 -1.66006 0.0090551507 -0.03948294 -0.99917918 7.5507116e-36
-0.21500599 0.155002 -1.61207 -0.97979969 0.19972216 -0.010179711 7.5602195e-36
-0.19465201 0.13480499 -1.6599801 0.78062606 -0.62277937 -0.052619461 3.1529215e-43
-0.20062999 0.14500999 -1.66014 -0.048044603 0.98728889 -0.15150045 0
-0.20478199 0.139933 -1.6649801 -0.070240408 0.3491706 -0.93442291 7.5842431e-36
-0.189923 0.150002 -1.66013 0.0090551507 -0.03948294 -0.99917918 7.5687114e-36
-0.205 0.15459301 -1.61999 0.90318435 -0.34199035 0.25942355 7.5660941e-36
-0.209782 0.144979 -1.61499 0.417128 -0.6498704 0.63535243 2.0739217e-43
-0.199719 0.149795 -1.63999 0.77651113 -0.43886352 0.45213851 0
-0.20494699 0.124996 -1.6609401 0.3917312 -0.50139123 -0.7714619 1.9758308e-43
-0.204964 0.175018 -1.62341 -0.036568288 0.87352967 0.48539537 3.6013371e-43
-0.184981 0.14505699 -1.66048 0.71032411 0.61439186 -0.34345639 2.9567398e-43
-0.205194 0.14498299 -1.66 0.087565228 0.68820781 -0.72020996 0
-0.21081699 0.114854 -1.6549799 -0.32912341 -0.77751338 -0.53586447 1.9898438e-43
-0.187702 0.14500199 -1.66553 0.21517517 0.71524918 -0.66491973 1.835701e-43
-0.215004 0.129162 -1.6599801 -0.90909094 -0.087544009 0.40729555 0
-0.204669 0.149983 -1.65497 0.070670217 0.62658739 -0.77614045 6.7262326e-44
-0.204616 0.139594 -1.6399699 0.89069068 -0.31475011 0.32802811 6.5020249e-43
-0.19479699 0.163976 -1.63 0.85354614 -0.25716802 0.45312646 3.9937006e-43
-0.195042 0.14507701 -1.65086 0.56931758 -0.55231494 0.60895461 7.5459046e-36
-0.19503 0.150079 -1.64623 0.65960485 -0.51393682 0.54844362 1.779649e-43
-0.200161 0.14000399 -1.66536 -0.081767328 0.6392554 -0.76463497 2.9847657e-43
-0.20919199 0.15001 -1.65605 0.052354824 0.57640278 -0.81548685 7.5513086e-36
-0.21568 0.134973 -1.6299599 -0.99527121 0.026229879 0.09352643 7.442119e-36
-0.21500801 0.122102 -1.65372 -0.97800666 -0.049303766 0.20266263 7.5522728e-36
-0.20494699 0.119968 -1.6577899 0.95466918 -0.23485909 -0.18288791 7.442119e-36
-0.20994499 0.119985 -1.66119 0.26073045 -0.47683835 -0.83943123 7.560825e-36
-0.204954 0.144949 -1.6599801 0.087565228 0.68820781 -0.72020996 4.6663239e-43
-0.212478 0.119944 -1.64999 -0.73356789 -0.50015557 0.46013317 3.671402e-43
-0.18462799 0.144951 -1.65999 0.71032411 0.61439186 -0.34345639 2.0318828e-43
-0.18998501 0.15504099 -1.64652 0.35744011 0.84958971 0.38785806 2.0318828e-43
-0.20481899 0.15499701 -1.64999 0.070153229 0.92348129 -0.37717488 2.0318828e-43
-0.20489299 0.15500601 -1.65002 0.070153229 0.92348129 -0.37717488 4.1898824e-43
-0.207837 0.160035 -1.64519 0.028274886 -0.050737489 -0.9983117 0
-0.199936 0.154202 -1.635 0.80696183 -0.45897591 0.37169036 0.0021628069
-0.20491 0.15998 -1.64498 0.0026852635 0.99998575 0.0046074777 0.0015442566
-0.20433301 0.144986 -1.635 0.88700163 -0.35812834 0.29149985 0.0017977395
-0.199817 0.139211 -1.65 0.75231022 -0.44718754 0.48378989 1.3452465e-43
-0.21501601 0.13515601 -1.6366301 -0.9944492 0.043783821 -0.09567561 3.3631163e-43
-0.209849 0.165795 -1.61499 -0.25674891 0.96537602 -0.046142764 5.1147394e-43
-0.20925 0.12964199 -1.635 0.25988987 -0.72747028 0.63501513 7.5621136e-36
-0.20505901 0.15000901 -1.6260999 0.89508164 -0.36233076 0.25989485 7.5482349e-36
-0.199977 0.15999 -1.64499 -0.0044597541 0.99966496 -0.025496235 3.657389e-43
-0.209837 0.114333 -1.65499 0.97980261 -0.19206358 -0.055663697 0
-0.204337 0.13499001 -1.6449701 0.8766911 -0.32510355 0.35457072 7.5884108e-36
-0.208519 0.175006 -1.6257401 -0.029882442 0.99816322 0.05269913 7.5521588e-36
-0.209877 0.118616 -1.64995 0.51916617 -0.6574586 0.54609036 7.5482349e-36
-0.20003401 0.130357 -1.65731 0.73083246 -0.43821481 0.5233084 7.5482349e-36
-0.21009099 0.170985 -1.61998 -0.31713948 0.94837713 -0.0018279105 7.4419676e-36
-0.214628 0.154808 -1.615 -0.97400135 0.22581528 -0.01813302 7.5472226e-36
-0.210053 0.129989 -1.66629 -0.60816759 -0.14744587 -0.77999485 7.5482349e-36
-0.215287 0.130051 -1.64589 -0.99799097 -0.049763728 0.039211564 7.5482349e-36
-0.215005 0.150215 -1.6179399 -0.90705037 0.37669402 -0.18804592 7.5473603e-36
-0.204271 0.129531 -1.64999 0.9001233 -0.28583181 0.32875246 7.5621136e-36
-0.200011 0.145006 -1.64415 0.76536185 -0.45254892 0.45762512 5.0727004e-43
-0.205015 0.14505801 -1.63301 0.89252323 -0.34936252 0.28521597 0
-0.209906 0.114974 -1.65749 -0.32912341 -0.77751338 -0.53586447 7.5233224e-36
-0.20987099 0.155039 -1.65109 -0.12479625 0.29310152 0.94790161 7.5635119e-36
-0.184889 0.139861 -1.6662101 0.36040321 -0.054312706 -0.93121409 7.5621136e-36
-0.200239 0.150015 -1.65511 -0.19916753 0.67048436 -0.7146908 7.4322352e-36
-0.210155 0.14503001 -1.6609401 0.035756573 0.6304121 -0.77543664 7.5468667e-36
-0.21031 0.175024 -1.6249599 -0.029882442 0.99816322 0.05269913 7.5675642e-36
-0.20950399 0.16473 -1.63998 0.022090215 0.66031522 -0.75066358 3.9376487e-43
-0.189982 0.15013701 -1.65999 0.041149687 0.93279672 -0.35804605 0
-0.19933499 0.15893801 -1.63 0.76490194 -0.5072251 0.39704877 2.0879347e-43
-0.19995201 0.171997 -1.61996 0.60886049 0.49479795 0.6200515 2.6344411e-43
-0.21459199 0.149822 -1.61998 -0.88663095 0.39348143 -0.24301825 3.9937006e-43
-0.19497199 0.16505501 -1.63823 0.30360472 0.79346156 -0.52748734 0
-0.21001101 0.163675 -1.64068 -0.88085467 0.22429278 -0.41687867 4.9185576e-43
-0.209345 0.12999199 -1.66654 0.17083187 -0.45552066 -0.87368035 2.1019477e-43
-0.21499 0.14492001 -1.62498 -0.87985343 0.36471397 -0.30469927 5.0166485e-43
-0.209401 0.149773 -1.61 0.45267865 -0.42041892 0.78633958 2.1019477e-43
-0.215004 0.12576599 -1.66202 -0.82695198 0.13182369 -0.54660124 2.1019477e-43
-0.21500801 0.124931 -1.66198 -0.82695198 0.13182369 -0.54660124 2.718519e-43
-0.20503899 0.13501801 -1.64323 0.88372207 -0.3273094 0.33452028 2.1019477e-43
-0.2157 0.129906 -1.63999 -0.96118069 -0.25917354 0.094661497 2.0879347e-43
-0.211046 0.14965799 -1.64499 -0.98982394 0.10014473 0.10109226 0
-0.19996201 0.17000601 -1.63175 0.22004612 0.88917112 -0.40119123 4.2459343e-43
-0.21586099 0.132331 -1.63999 -0.99278355 0.1194061 -0.011089033 0
-0.199865 0.129971 -1.66212 0.48444337 -0.77546221 -0.40493581 2.0178698e-43
-0.212001 0.164676 -1.61999 -0.98891926 0.13752481 0.055907372 0.00068955601
-0.19499899 0.14301901 -1.6649801 -0.27578089 0.65283364 -0.70551622 3.3631163e-43
-0.212245 0.114997 -1.6582 -0.32912341 -0.77751338 -0.53586447 4.0357396e-43
-0.20385499 0.124251 -1.655 0.98978937 -0.13686913 0.039798088 3.3350903e-43
-0.20500401 0.120856 -1.6549799 0.9936257 -0.058902044 -0.0961174 7.5631123e-36
-0.212079 0.165511 -1.61499 -0.90589368 0.35439947 0.23185702 7.5476359e-36
-0.18745901 0.14991 -1.6549799 0.97634071 -0.19228216 -0.098926373 7.562722e-36
-0.195227 0.150022 -1.65759 -0.33167666 0.670201 -0.66394365 3.4471942e-43
-0.21500599 0.140092 -1.62932 -0.96974361 0.18570665 -0.15846255 0
-0.214871 0.13052499 -1.63499 -0.97940975 -0.12302054 0.16007029 7.5485657e-36
-0.215059 0.12749501 -1.64801 -0.9513045 0.11377921 -0.28648573 7.5862642e-36
-0.20965099 0.154976 -1.64999 -0.99144495 0.12857004 -0.022509143 4.9185576e-43
-0.20003299 0.140026 -1.64889 0.7549457 -0.45976874 0.4676213 2.1159607e-43
-0.21101101 0.154911 -1.63995 -0.99414986 -0.039598465 -0.1004891 4.2599473e-43
-0.199855 0.164455 -1.63998 0.04180843 0.79294336 -0.60785925 0
-0.189568 0.140035 -1.65999 0.67603379 -0.62642872 0.38802755 2.704506e-43
-0.209907 0.15640301 -1.60997 -0.14623258 0.56091994 0.81485265 2.1439867e-43
-0.214127 0.134922 -1.6399699 -0.9188841 0.32102504 -0.22933589 2.1439867e-43
-0.20999201 0.175033 -1.62499 -0.029882442 0.99816322 0.05269913 2.1439867e-43
-0.215323 0.129905 -1.64499 -0.99799097 -0.049763728 0.039211564 2.1019477e-43
-0.195068 0.145017 -1.66287 -0.30511215 0.67958528 -0.66713595 3.4191683e-43
-0.21319699 0.154872 -1.62 -0.9316861 0.26439446 -0.24911164 0
-0.208288 0.13892899 -1.665 -0.10236497 0.11077325 -0.9885599 2.1860256e-43
-0.205166 0.150545 -1.62499 0.89907092 -0.35985789 0.24934676 2.2280646e-43
-0.21328899 0.124801 -1.64498 -0.77145547 -0.55928135 0.3034153 2.1579996e-43
-0.189779 0.151581 -1.65 0.67714077 0.70765382 -0.2017585 3.9796876e-43
-0.18996499 0.13996901 -1.66724 0.11319172 -0.53387421 -0.83795339 0
-0.20000599 0.160061 -1.62735 0.74818695 -0.53567004 0.39150211 0.78395033
-0.21459 0.155498 -1.60999 -0.37443793 0.92566496 0.054227494 6.7262326e-44
-0.20895401 0.139525 -1.62499 0.60002345 -0.57823992 0.5528205 0.93348145
-0.189584 0.14508399 -1.6649899 0.17483307 0.58972514 -0.78845268 2.2140516e-43
-0.200047 0.15513299 -1.63354 0.79940307 -0.46705464 0.37790838 0
-0.21374699 0.139963 -1.63498 -0.92565364 0.31046793 -0.21627542 4.0357396e-43
-0.20500299 0.15500601 -1.6195 0.90688384 -0.33909413 0.25015378 4.6242849e-43
-0.19997101 0.16000199 -1.64498 -0.0044597541 0.99966496 -0.025496235 7.3252813e-36
-0.2104 0.169833 -1.61999 -0.85468042 0.26637653 0.44560626 3.3070644e-43
-0.21209399 0.149983 -1.62997 -0.94812113 0.23990121 -0.20859948 2.1720126e-43
-0.19486 0.16704001 -1.6349699 0.52689087 0.84593374 -0.082353584 1.1210388e-43
-0.210035 0.150042 -1.65499 0.052354824 0.57640278 -0.81548685 3.3070644e-43
-0.19970199 0.12775899 -1.65999 0.75838041 -0.57536089 0.30629894 0
-0.20005 0.161706 -1.62499 0.75345469 -0.51809251 0.40482858 2.2140516e-43
-0.21002001 0.165071 -1.63907 -0.60777795 0.62703645 -0.48726922 2.1860256e-43
-0.19375101 0.13590699 -1.66 0.78196061 -0.62175345 -0.044275161 1.5694543e-43
-0.202135 0.134855 -1.64999 0.82164627 -0.39342603 0.41244796 2.2140516e-43
-0.195104 0.15503199 -1.65264 -0.022022689 0.86302829 -0.50467533 0
-0.195061 0.140352 -1.65499 0.6534813 -0.49652728 0.5713343 2.1860256e-43
-0.20984299 0.145032 -1.66097 0.035756573 0.6304121 -0.77543664 3.7134409e-43
-0.20877101 0.134369 -1.62999 0.3782374 -0.49792865 0.78038675 0
-0.21689899 0.13999499 -1.62499 -0.97923589 -0.030815845 -0.20036834 2.2140516e-43
-0.20465399 0.172059 -1.61999 -0.080899112 0.81700873 0.57092214 7.5595752e-36
-0.195096 0.14000601 -1.6676199 -0.099208176 0.53078836 -0.84167778 4.6803369e-43
-0.20038299 0.15752099 -1.62999 0.76490194 -0.5072251 0.39704877 0
-0.206736 0.14995299 -1.62 0.90915364 -0.34006241 0.24041054 1.5414283e-43
-0.200021 0.135015 -1.6534801 0.7708376 -0.41206455 0.48581085 4.0637655e-43
-0.205008 0.140017 -1.63843 0.9146356 -0.28896838 0.2827349 0
-0.21393199 0.16454799 -1.62999 -0.9873156 -0.11528719 -0.10916383 2.2140516e-43
-0.210034 0.149996 -1.65496 0.052354824 0.57640278 -0.81548685 2.3541814e-43
-0.204772 0.16422001 -1.63998 0.027476287 0.65979862 -0.75093997 2.2140516e-43
-0.184911 0.14530399 -1.65999 0.71032411 0.61439186 -0.34345639 2.1579996e-43
-0.206099 0.139799 -1.635 0.9255833 -0.27002737 0.26529372 2.3541814e-43
-0.194629 0.14091299 -1.655 0.57010019 -0.5583387 0.60269701 0
-0.194754 0.15165 -1.645 0.62598103 -0.64550459 0.43757465 2.2280646e-43
-0.19305199 0.15501501 -1.6536601 0.29866895 0.79309458 -0.5308463 4.568233e-43
-0.204785 0.123684 -1.65996 0.89256299 -0.3949455 -0.21759912 2.2280646e-43
-0.210007 0.153359 -1.64999 -0.92871022 0.2703774 0.25375846 9.1925179e-43
-0.199893 0.14532 -1.65999 -0.024564538 0.077968411 -0.99665314 9.8651412e-43
-0.216189 0.134122 -1.635 -0.98461694 -0.16020402 -0.06974344 4.3580382e-43
-0.205908 0.17499299 -1.62499 0.066290073 0.98799664 -0.13952892 7.5653049e-36
-0.210627 0.159685 -1.63999 -0.92604184 0.11512517 -0.35943383 4.8204667e-43
-0.21005499 0.15512399 -1.64485 -0.94708312 0.29474279 -0.1271228 0
-0.198351 0.13598201 -1.655 0.67952746 -0.46962419 0.56364489 7.580617e-36
-0.21524 0.132037 -1.64498 -0.99312669 0.040170439 -0.1099353 7.5556263e-36
-0.194952 0.160073 -1.64434 0.062527262 0.99671453 -0.051482685 7.5857139e-36
-0.212015 0.15452801 -1.62499 -0.96915901 0.15080079 -0.19491009 4.8905316e-43
-0.214471 0.119988 -1.65499 -0.99120408 0.060651954 0.11762585 3.0408177e-43
-0.21708301 0.144446 -1.61999 -0.94729769 -0.3176626 0.041443847 0
-0.21002901 0.130817 -1.66638 -0.60816759 -0.14744587 -0.77999485 3.3771293e-43
-0.21487901 0.139999 -1.62997 -0.9523837 0.21699248 -0.21419507 2.5643762e-43
-0.192047 0.15982801 -1.63998 0.98768157 -0.15607715 -0.01118329 2.0178698e-43
-0.188613 0.149985 -1.65999 0.038632773 0.99923205 0.0065414114 1.2331426e-43
-0.194924 0.147945 -1.65999 -0.31528795 0.68352598 -0.65832037 5.49309e-43
-0.21531101 0.13571 -1.635 -0.93626302 0.31844157 -0.14834602 4.0357396e-43
-0.21130399 0.149661 -1.65 -0.9936949 0.048568249 -0.10105247 0.00011049562
-0.195657 0.150728 -1.64498 0.69377977 -0.51710641 0.50126898 6.7262326e-44
-0.210907 0.144794 -1.645 -0.99980438 0.0099200653 -0.0171117 0.00024698893
-0.210246 0.14991499 -1.63998 -0.99992716 -0.010737985 0.0055054463 5.859237e-05
-0.20176101 0.154918 -1.62999 0.83839989 -0.44083601 0.32054523 6.7262326e-44
-0.20522 0.14261501 -1.635 0.90938944 -0.30578414 0.28196967 8.0714792e-43
-0.215885 0.14982501 -1.61498 -0.9949646 -0.011716414 -0.099539831 2.2701035e-43
-0.215639 0.138347 -1.63 -0.99681407 0.014458719 0.078438826 7.4897931e-36
-0.184983 0.142092 -1.66677 0.41660422 0.18784094 -0.88946992 7.5659592e-36
-0.212648 0.139668 -1.64 -0.92843354 0.29310149 -0.22826008 7.5434365e-36
-0.215845 0.14978699 -1.60997 -0.9900142 0.079770111 0.11622653 3.6994279e-43
-0.19662599 0.13243601 -1.65999 0.68083608 -0.72476703 0.10571179 2.2000386e-43
-0.20491 0.168146 -1.635 -0.0090437178 0.7762087 -0.63041121 0
-0.19904301 0.155435 -1.635 0.79940307 -0.46705464 0.37790838 0.0010775309
-0.21426301 0.13481399 -1.6599801 -0.94534141 0.31620649 -0.079643242 2.4943113e-43
-0.206112 0.134936 -1.6399699 0.9204545 -0.26946181 0.28311452 0
-0.204936 0.134692 -1.66745 0.14790872 -0.55694139 -0.81727552 2.0178698e-43
-0.199967 0.171839 -1.62499 0.50662708 0.84732234 -0.15929165 6.8692784e-06
-0.21433499 0.129904 -1.63498 -0.45243931 -0.74615622 0.48841533 1.3592595e-43
-0.209829 0.17132001 -1.61998 -0.20206693 0.74303544 0.63801831 5.3809861e-43
-0.20864999 0.15990999 -1.64499 0.028274886 -0.050737489 -0.9983117 2.0178698e-43
-0.206311 0.154796 -1.61498 0.9113003 -0.33140388 0.24434249 1.3592595e-43
-0.21204799 0.129867 -1.6649899 -0.60816759 -0.14744587 -0.77999485 3.6994279e-43
-0.19998901 0.13493 -1.6665601 0.22980326 -0.5090434 -0.82949698 4.0357396e-43
-0.215031 0.15356199 -1.60999 -0.97998196 0.198783 0.010984938 0.033488512
-0.213475 0.125 -1.65499 -0.9711743 0.23594214 0.033938024 1.2191297e-43
-0.194941 0.15287 -1.65499 -0.12370817 0.61824763 -0.77618694 4.4281031e-43
-0.205037 0.130013 -1.6476901 0.89995468 -0.29046431 0.32513398 2.0178698e-43
-0.204925 0.170008 -1.63271 0.066000208 0.79527164 -0.60264999 0.00091511727
-0.204835 0.17199101 -1.62999 0.11814698 0.85726082 -0.50114381 6.7262326e-44
-0.19502801 0.135076 -1.6593601 0.66936857 -0.66835117 0.32442635 0.78144652
-0.19499201 0.146061 -1.64999 0.65776563 -0.5169012 0.54786634 0.00013298693
-0.198488 0.16501901 -1.63982 0.053739924 0.77693993 -0.62727696 1.3452465e-43
-0.194947 0.15919501 -1.64498 0.088391908 0.9163571 -0.3904824 0.78450489
-0.21497101 0.145008 -1.61417 -0.40255961 -0.75383043 0.5193125 0.85404783
-0.211748 0.13415 -1.665 -0.43800113 0.19566187 -0.87742317 4.6803369e-43
-0.214757 0.15477601 -1.60999 -0.97936726 0.20166036 -0.013149196 0
-0.19187699 0.15493 -1.64999 0.65699512 0.64598244 -0.38866967 2.0178698e-43
-0.210728 0.14493801 -1.655 -0.99236935 0.11085536 0.053983413 2.6904931e-43
-0.20988999 0.16788 -1.635 -0.62949377 0.62995565 -0.45485544 0.94990921
-0.19493701 0.163606 -1.63998 0.40275967 0.71049291 -0.57704806 0.004428362
-0.20255899 0.139513 -1.64498 0.83171642 -0.38071132 0.40411222 0.0055980785
-0.204962 0.150034 -1.65497 0.070670217 0.62658739 -0.77614045 2.2000386e-43
-0.213635 0.119856 -1.66 -0.19767575 -0.95756638 -0.20974001 4.0637655e-43
-0.20413101 0.149535 -1.62999 0.89808166 -0.35587123 0.25846663 2.0178698e-43
-0.19499101 0.168257 -1.62998 0.67127359 0.7383551 -0.064988695 0.78188068
-0.200046 0.14412899 -1.64499 0.77275872 -0.45097375 0.44661686 2.2140516e-43
-0.212303 0.134821 -1.65497 -0.96692854 0.17158766 0.18869795 0
-0.211025 0.15484001 -1.635 -0.99162865 -0.10176349 -0.079478115 2.0178698e-43
-0.200096 0.15000799 -1.63915 0.78577119 -0.45027363 0.42404869 0.35851869
-0.20131899 0.15952601 -1.625 0.833767 -0.44881219 0.32155901 2.5559684e-42
-0.21166199 0.159989 -1.61999 -0.99959707 0.027944908 0.0049728802 5.3809861e-43
-0.208147 0.14968801 -1.61498 0.91549802 -0.32488114 0.23730925 7.5568094e-36
-0.20484599 0.145008 -1.65991 -0.034363866 0.97973984 0.19730419 4.2599473e-43
-0.21013901 0.17000499 -1.6327 -0.47200593 0.67863846 -0.56272572 0
-0.211941 0.134708 -1.64999 -0.93714446 0.25511807 -0.2380652 0
-0.184947 0.143324 -1.66497 0.8761977 0.37525842 -0.30242139 0
-0.19012301 0.140027 -1.65967 0.57127434 -0.62482864 0.53219813 5.2268433e-43
-0.205805 0.124859 -1.64999 0.87743074 -0.29701805 0.37669027 0
-0.200267 0.138583 -1.64999 0.78982162 -0.4131096 0.45334563 4.7924407e-43
-0.21499699 0.128631 -1.63999 -0.96118069 -0.25917354 0.094661497 2.3822074e-43
-0.19987001 0.132503 -1.665 0.25171074 -0.64142424 -0.72471833 0
-0.205018 0.132956 -1.64496 0.90458047 -0.28885585 0.31352273 4.6382979e-43
-0.211133 0.154716 -1.63 -0.99299324 -0.041969094 -0.11046711 2.3822074e-43
-0.209868 0.146084 -1.66 0.035756573 0.6304121 -0.77543664 0
-0.20235801 0.14975999 -1.635 0.84592068 -0.40219131 0.350229 0
-0.205001 0.125066 -1.6519099 0.87740576 -0.29106459 0.38136667 0
-0.216942 0.147083 -1.61999 -0.97139806 0.23574771 -0.028439239 5.2128303e-43
-0.21331599 0.164536 -1.625 -0.96947235 -0.18657996 0.15909533 0
-0.194694 0.14001299 -1.66768 -0.088504232 0.61735541 -0.78169 2.3962204e-43
-0.209978 0.169954 -1.61896 -0.9016788 0.28406462 0.32601026 1.4153114e-43
-0.21505199 0.14504901 -1.62488 -0.85452563 0.43612608 -0.28209934 4.2179084e-43
-0.211004 0.139577 -1.64999 -0.98657799 0.1632386 -0.0041240216 0
-0.21007399 0.140176 -1.66429 -0.77862483 0.23742354 -0.58083862 2.3962204e-43
-0.209622 0.155696 -1.64999 -0.99144495 0.12857004 -0.022509143 1.4573504e-43
-0.207506 0.134774 -1.635 0.92647111 -0.29174691 0.2377709 2.4102334e-43
-0.200179 0.153807 -1.635 0.80696183 -0.45897591 0.37169036 0
-0.212338 0.124985 -1.66448 -0.36025685 -0.29800755 -0.88397199 2.4102334e-43
-0.20344201 0.154782 -1.625 0.8843441 -0.37768438 0.27439034 1.4012985e-43
-0.20501301 0.12748601 -1.64999 0.9001233 -0.28583181 0.32875246 3.1949605e-43
-0.20517799 0.15780701 -1.61499 0.8977493 -0.3566753 0.25851294 0
-0.19699 0.143602 -1.6499799 0.69663769 -0.48227707 0.53113532 2.4242463e-43
-0.214965 0.124965 -1.65994 -0.9747771 -0.065510072 0.21334952 6.5861028e-44
-0.21484099 0.12614501 -1.6449701 -0.94644058 -0.28670841 0.14848727 5.8153886e-43
-0.21111099 0.13999701 -1.655 -0.98357111 0.14991996 0.10055777 0
-0.204836 0.167081 -1.61498 0.42635769 0.45024344 0.78453809 3.0828566e-44
-0.20239501 0.164692 -1.61498 0.8175959 -0.0027169832 0.57578599 3.2930514e-43
-0.20990101 0.126582 -1.63998 -0.40454525 -0.74009246 0.5372209 0
-0.21009301 0.16380399 -1.63999 -0.88085467 0.22429278 -0.41687867 3.629363e-43
-0.20882399 0.144124 -1.61999 0.7126981 -0.57486707 0.40198165 0
-0.211744 0.159658 -1.62499 -0.98605967 -0.1625569 0.035518888 0.00033666301
-0.20811801 0.16012301 -1.64498 0.028274886 -0.050737489 -0.9983117 1.8917529e-43
-0.21323401 0.169275 -1.625 -0.94251728 0.2238694 0.24808003 0
-0.212367 0.15988301 -1.63 -0.96078038 -0.27039847 0.061528485 2.0178698e-43
-0.209617 0.151218 -1.65499 0.052354824 0.57640278 -0.81548685 3.3631163e-43
-0.214994 0.147747 -1.6099499 -0.99458665 -0.064266294 0.081652857 3.1949605e-43
-0.20998199 0.122664 -1.6449701 -0.47046608 -0.68101239 0.56114507 1.2182294e-36
-0.214957 0.129747 -1.65999 -0.99590302 0.07327541 -0.052989662 6.1096613e-43
-0.21086299 0.14997 -1.63499 -0.97633755 0.14462599 -0.1607742 0
-0.209846 0.12787201 -1.665 -0.42987517 -0.41725171 -0.80069244 7.583522e-36
-0.200155 0.165277 -1.61999 0.83462894 -0.41535863 0.36176202 7.5676345e-36
-0.205072 0.154375 -1.61999 0.90318435 -0.34199035 0.25942355 7.539568e-36
-0.208647 0.170001 -1.63317 -0.019152937 0.77537674 -0.63120842 7.539568e-36
-0.20247 0.144774 -1.6399699 0.83792579 -0.38044223 0.39133626 2.6764801e-43
-0.199727 0.137271 -1.6677999 -0.29016447 0.45243591 -0.8432712 0
-0.204919 0.17451 -1.625 0.066290073 0.98799664 -0.13952892 7.5853932e-36
-0.205547 0.149615 -1.62499 0.90543908 -0.3427881 0.25035259 7.5546971e-36
-0.21008 0.154993 -1.6449701 -0.98576862 -0.10515209 -0.13116111 7.539568e-36
-0.214772 0.13390499 -1.63 -0.34375542 -0.88283908 0.32004273 2.2841165e-43
-0.209768 0.16498099 -1.61406 -0.011262251 0.00091216801 0.99993616 0
-0.195022 0.160015 -1.63489 0.80460024 -0.40775785 0.43168503 7.5541346e-36
-0.21126901 0.144564 -1.65999 -0.68962741 0.7231316 -0.03866167 7.5527923e-36
-0.199949 0.150297 -1.65496 -0.19916753 0.67048436 -0.7146908 7.5527923e-36
-0.19584499 0.155003 -1.6399699 0.68545461 -0.53665906 0.49208644 5.8013756e-43
-0.214913 0.141487 -1.6199501 -0.93768287 -0.25144911 0.23984189 0
-0.18463799 0.138832 -1.6649801 0.24483891 -0.27911517 -0.92851961 7.5543068e-36
-0.21048699 0.144997 -1.6499701 -0.99960178 -0.023611613 -0.015452843 7.5527923e-36
-0.21229 0.164957 -1.61498 -0.90589368 0.35439947 0.23185702 7.5551793e-36
-0.18999401 0.151989 -1.65496 0.50305295 0.84489352 -0.18191382 7.4903671e-36
-0.198588 0.15158699 -1.63999 0.70806742 -0.51640797 0.48162568 2.3541814e-43
-0.20513 0.13801 -1.63999 0.91422397 -0.28772616 0.28532115 0
-0.19676 0.16000199 -1.64654 0.088391908 0.9163571 -0.3904824 5.0446745e-44
-0.205891 0.12288 -1.66 0.47185504 -0.47901163 -0.74020314 2.2000386e-43
-0.211086 0.17464501 -1.62499 -0.029882442 0.99816322 0.05269913 0
-0.205406 0.146336 -1.63 0.89158785 -0.36022374 0.27442658 7.5678641e-36
-0.209966 0.171996 -1.6299599 -0.26404333 0.88504171 -0.38338271 7.4903671e-36
-0.204549 0.140001 -1.66494 -0.070240408 0.3491706 -0.93442291 7.5410488e-36
-0.212244 0.165778 -1.635 -0.80158126 0.50199908 -0.32475284 7.4814928e-36
-0.21003599 0.135002 -1.66495 -0.31259149 0.21954575 -0.92416787 7.5410488e-36
-0.212439 0.159962 -1.63499 -0.97675353 -0.13042679 -0.17012163 7.5548579e-36
-0.21239799 0.129758 -1.65499 -0.9645406 0.12581965 0.23201478 7.5410488e-36
-0.21458 0.124813 -1.65 -0.99815935 -0.059914447 0.0093912929 4.8765187e-43
-0.20738199 0.139954 -1.63 0.9323644 -0.24940838 0.26170996 0
-0.194988 0.15737 -1.64999 -0.024619903 0.78219104 -0.62255204 7.5840845e-36
-0.21269999 0.164866 -1.63498 -0.88884759 0.23753735 -0.39182386 7.5549267e-36
-0.21354599 0.169306 -1.62999 -0.84209907 0.4527874 -0.29300645 7.5410488e-36
-0.190341 0.150038 -1.6599801 0.0090551507 -0.03948294 -0.99917918 2.2420775e-43
-0.205359 0.119702 -1.65497 0.9936257 -0.058902044 -0.0961174 0
-0.212955 0.17005301 -1.62997 -0.44588748 0.88011336 -0.16304851 7.5550767e-36
-0.199883 0.170261 -1.62999 0.34367794 0.90055394 -0.26624823 7.5410488e-36
-0.211032 0.14498401 -1.64 -0.98249102 0.17370191 -0.067372195 7.5853365e-36
-0.190052 0.14503799 -1.6648999 -0.22629723 0.60577881 -0.76277232 7.5410488e-36
-0.198125 0.160377 -1.63 0.67776871 -0.59266734 0.43517241 7.5410488e-36
-0.20998199 0.124795 -1.66346 -0.30313373 -0.43876883 -0.84592664 7.5854627e-36
-0.216616 0.14375 -1.62499 -0.98602295 0.16658469 -0.0028750189 7.5410488e-36
-0.199462 0.13412701 -1.65499 0.7622509 -0.41453326 0.49712747 2.9427268e-43
-0.204928 0.129931 -1.6641099 0.34360978 -0.51312453 -0.78653383 0
-0.197377 0.14832699 -1.64499 0.70365173 -0.48682573 0.51756632 7.5855316e-36
-0.189734 0.14153001 -1.66777 -0.27998638 0.47901765 -0.83195537 7.5619873e-36
-0.199709 0.144728 -1.64498 0.75692374 -0.4547748 0.46930408 7.5597832e-36
-0.197787 0.169947 -1.61998 0.9773578 -0.058860082 0.20324181 7.4167265e-36
-0.20810799 0.140038 -1.66469 -0.10236497 0.11077325 -0.9885599 7.5703214e-36
-0.205055 0.13501 -1.6673501 0.14790872 -0.55694139 -0.81727552 9.8090893e-44
-0.207324 0.144824 -1.62499 0.91956139 -0.31077421 0.24047098 5.7172977e-43
-0.199449 0.155543 -1.64999 -0.16972438 0.7652992 -0.62089515 1.0789998e-43
-0.21146999 0.139588 -1.64498 -0.95876998 0.21373019 -0.18729533 2.0879347e-43
-0.208895 0.165022 -1.63992 0.022090215 0.66031522 -0.75066358 0
-0.212666 0.159926 -1.61498 -0.93249446 0.29916278 -0.20237531 7.5469378e-36
-0.204318 0.15998 -1.61498 0.89714235 -0.35842136 0.25820482 7.5703214e-36
-0.21484201 0.13752601 -1.62499 -0.99269187 0.0052118422 -0.12056378 7.4322352e-36
-0.18971901 0.137033 -1.665 0.19116992 -0.53680247 -0.82176471 7.5690701e-36
-0.20598 0.144851 -1.62999 0.91535366 -0.30893242 0.25824109 4.5121811e-43
-0.194997 0.139917 -1.66766 -0.20298254 -0.11468755 -0.97244275 0
-0.20493799 0.16502699 -1.6391 0.056358837 0.79616696 -0.60244656 0
-0.200233 0.13270301 -1.655 0.7622509 -0.41453326 0.49712747 6.7262326e-44
-0.199351 0.169966 -1.62997 0.36030069 0.8832708 -0.30002686 6.0816353e-43
-0.189941 0.144998 -1.6649801 0.17483307 0.58972514 -0.78845268 7.5860941e-36
-0.214895 0.14447001 -1.61499 -0.49302495 -0.52666414 0.69249642 4.0777785e-43
-0.204926 0.155064 -1.6499701 0.070153229 0.92348129 -0.37717488 0
-0.206176 0.129335 -1.64498 0.89753586 -0.29659194 0.32628599 2.774571e-43
-0.202824 0.159977 -1.61998 0.8834576 -0.37455106 0.28145012 3.8675838e-43
-0.190387 0.145035 -1.65499 0.61532551 -0.50797671 0.60277206 2.4662853e-43
-0.213241 0.149491 -1.62498 -0.92733866 0.29701191 -0.22765529 2.746545e-43
-0.20506699 0.13472299 -1.66741 0.14790872 -0.55694139 -0.81727552 7.5467197e-36
-0.210714 0.145391 -1.6599801 -0.68962741 0.7231316 -0.03866167 7.562458e-36
-0.200414 0.148706 -1.63999 0.79147136 -0.44397557 0.42006993 7.562458e-36
-0.20496701 0.131265 -1.665 0.41136166 -0.50476336 -0.75894368 7.5718941e-36
-0.197033 0.169983 -1.62497 0.53458983 0.84349835 -0.052193813 3.4612072e-43
-0.201768 0.129769 -1.65496 0.8179208 -0.38354865 0.42883092 2.9847657e-43
-0.20757499 0.15487701 -1.60998 0.49835208 0.27881917 0.82091719 7.5481201e-36
-0.21493 0.131722 -1.64498 -0.98256308 0.10193355 -0.15549691 7.5718941e-36
-0.19985101 0.16829801 -1.63494 0.10405388 0.89110255 -0.44171146 7.5718941e-36
-0.20998999 0.134921 -1.6649899 -0.31259149 0.21954575 -0.92416787 7.5718941e-36
-0.212271 0.144752 -1.6349699 -0.93412685 0.27306929 -0.22986996 7.4955788e-36
-0.19191299 0.164698 -1.63498 0.99058825 -0.12690142 -0.05129239 5.7172977e-43
-0.202604 0.125136 -1.66 0.58866912 -0.80124956 -0.10708762 2.746545e-43
-0.213541 0.14497 -1.63 -0.93181014 0.25590631 -0.25737482 2.746545e-43
-0.19567899 0.14526799 -1.64999 0.65776563 -0.5169012 0.54786634 2.704506e-43
-0.20097899 0.16405199 -1.62 0.83105087 -0.42292121 0.36123687 2.774571e-43
-0.215004 0.15364601 -1.61499 -0.97982293 0.18402076 -0.077996016 0
-0.19860899 0.16357601 -1.62499 0.76599884 -0.51126504 0.38968429 2.760558e-43
-0.213044 0.12987 -1.64999 -0.91739672 0.25603077 -0.30468264 2.760558e-43
-0.19986799 0.14049099 -1.665 -0.195898 0.60839999 -0.76907313 2.5924022e-43
-0.211988 0.139476 -1.65999 -0.945768 0.31309891 -0.086555965 0
-0.209962 0.11812 -1.65997 -0.05750965 -0.56052709 -0.82613683 7.4472388e-36
-0.194869 0.13521101 -1.6649801 0.04405348 -0.99822134 0.040167145 7.5725484e-36
-0.21287 0.12 -1.66176 -0.4045254 -0.53715652 -0.74015003 5.479077e-43
-0.19498999 0.13494 -1.66487 0.04405348 -0.99822134 0.040167145 0
-0.202316 0.136439 -1.66808 0.16242602 -0.51324433 -0.84273249 3.7835059e-44
-0.204831 0.16003799 -1.6449 0.0026852635 0.99998575 0.0046074777 2.746545e-43
