# .PCD v0.7 - Point Cloud Data file format
VERSION 0.7
FIELDS x y z normal_x normal_y normal_z curvature
SIZE 4 4 4 4 4 4 4
TYPE F F F F F F F
COUNT 1 1 1 1 1 1 1
WIDTH 68
HEIGHT 1
VIEWPOINT 0 0 0 1 0 0 0
POINTS 68
DATA ascii
-9.71766 -40.5853 416.51901 -0.68571174 -0.66505432 -0.29580763 0.084731244
-17.406601 -25.436899 416.694 -0.95704168 -0.28872338 0.026646651 0.12651005
-15.4326 -29.726999 416.66299 -0.88376009 -0.46459532 0.055851065 0.086158104
-11.421 -36.783298 420.55099 -0.80142593 -0.51897448 0.2972911 0.10492308
-11.5717 -36.537601 418.745 -0.88005239 -0.474217 0.025020462 0.086883448
-7.8021598 -42.450199 416.64401 -0.42353868 -0.69857591 -0.5767206 0.098261282
-11.566 -36.625198 417.10599 -0.91246361 -0.40636379 0.047734831 0.050297309
-11.5706 -36.5504 420.52499 -0.81402016 -0.54398721 0.20359056 0.080713376
-15.7395 -29.053699 418.60901 -0.76668209 -0.34807286 0.5394848 0.086331159
-9.8752003 -39.181499 420.534 -0.78634614 -0.49769342 0.36600679 0.086169414
-17.427 -25.3256 414.741 -0.88077658 -0.37953478 -0.28317127 0.076320499
-15.9807 -28.9865 414.75101 -0.92297119 -0.35434586 -0.15021034 0.075120322
-13.6563 -31.858999 420.517 -0.59044814 0.039876975 0.80608982 0.078731671
-16.629999 -27.363001 418.591 -0.73872155 -0.28672782 0.60998166 0.098025098
-16.318199 -28.0103 416.664 -0.90222752 -0.43035504 0.027929774 0.14308432
-17.134001 -26.0844 416.668 -0.92293501 -0.38487089 -0.0080834916 0.10547467
-12.5026 -34.904999 420.54199 -0.87701654 -0.48045844 -0.0012892676 0.098876238
-13.5859 -32.883099 418.59 -0.91156745 -0.38856184 0.13440427 0.11332415
-13.4688 -32.9828 420.55099 -0.84609437 -0.27991998 0.45361784 0.07669162
-17.462099 -25.5683 418.638 -0.82986486 0.025376696 0.55738705 0.077753305
-11.5993 -36.762001 416.67401 -0.85779762 -0.45035523 -0.24771635 0.061302323
-6.0838499 -44.415401 416.995 -0.32371697 -0.59221083 -0.73789811 0.08136221
-9.6644802 -38.655102 415.98599 -0.38030136 -0.26742265 -0.88535643 0.075341396
-9.7427101 -36.705299 415.479 -0.36471957 -0.338958 -0.86722958 0.046934217
-17.2174 -26.1322 418.59299 -0.96351069 -0.18107268 0.19712882 0.083080858
-7.7167802 -42.439201 420.65302 -0.77130121 -0.48505446 0.4120881 0.088260964
-8.0742903 -42.641701 418.63 -0.86070782 -0.50907141 0.0053256424 0.074415274
-8.7639503 -40.849499 420.547 -0.83542651 -0.52806407 0.15235129 0.098678283
-15.3423 -29.730101 418.58499 -0.82805938 -0.51630408 0.21851262 0.1026153
-7.63661 -43.402699 418.595 -0.80887043 -0.58750784 -0.023730149 0.082502849
-6.92695 -44.412899 418.595 -0.79101408 -0.56785917 -0.2276679 0.1057897
-5.5541601 -43.356602 416.66501 -0.20990591 -0.56862479 -0.79536492 0.078153543
-9.4684095 -40.136101 418.67001 -0.84990656 -0.50060391 0.16448268 0.037171792
-8.8898497 -41.183102 418.63 -0.84338194 -0.50330758 0.18811814 0.070895582
-9.6251898 -40.4016 417.52499 -0.71063381 -0.70319009 0.02287513 0.052197084
-17.8564 -23.1747 412.69199 -0.37970796 -0.493976 -0.78218257 0.066217698
-9.28862 -40.067001 420.54001 -0.83807206 -0.52769023 0.13848548 0.079056598
-13.3436 -30.8906 420.37 -0.5452264 0.26516339 0.79524624 0.081255317
-13.6565 -32.912701 416.715 -0.79770857 -0.56864727 -0.20075181 0.085179731
-7.5124602 -42.588902 416.655 -0.57195228 -0.56137949 -0.59810007 0.097203903
-13.6963 -32.889198 415.095 -0.37018219 -0.64911431 -0.66454178 0.064055599
-14.3849 -31.516701 418.595 -0.86702776 -0.44502491 0.22408849 0.11740049
-15.2736 -30.026199 416.68201 -0.88376009 -0.46459532 0.055851065 0.083767481
-14.6083 -31.2897 416.67099 -0.85253924 -0.51571161 -0.084961124 0.11815666
-15.2278 -30.5172 414.758 -0.67046154 -0.60370916 -0.43129638 0.068510242
-13.3579 -33.289101 418.60901 -0.86775941 -0.4934507 0.059160788 0.10995174
-13.2766 -33.442799 416.72 -0.76932466 -0.59527916 -0.23191015 0.080071621
-11.3673 -36.876801 418.629 -0.86662179 -0.49776107 0.034649972 0.08477138
-10.0752 -39.054699 418.604 -0.86120075 -0.48245335 0.15991266 0.043058604
-11.4006 -37.142101 416.73001 -0.83121622 -0.48828623 -0.26581237 0.07204777
-10.6715 -38.845501 416.66699 -0.89076382 -0.4531492 -0.034578305 0.05851965
-12.397 -34.808201 416.67099 -0.88170999 -0.4432123 -0.16171069 0.070622981
-11.6882 -36.6917 415.936 -0.81716692 -0.42264768 -0.39192745 0.077010252
-11.5829 -34.869099 415.341 -0.53616482 -0.30978659 -0.78521305 0.051730122
-7.4490199 -42.9062 420.582 -0.72567636 -0.54450345 0.42060646 0.08957313
-9.57551 -41.137699 416.69 -0.70443714 -0.70971465 -0.0085689193 0.081771284
-9.8009005 -40.612 416.67999 -0.68571174 -0.66505432 -0.29580763 0.083828583
-12.2535 -35.213902 418.58499 -0.88452387 -0.46649489 -0.00013834634 0.1031993
-16.9249 -26.740801 414.755 -0.90076554 -0.4101285 -0.14288472 0.065876894
-16.766899 -27.213499 414.73801 -0.884601 -0.43144381 -0.17702346 0.067429386
-17.41 -23.501801 412.798 -0.40016547 -0.47469112 -0.78392345 0.066053949
-17.371901 -25.1003 413.31799 -0.59254497 -0.42641178 -0.68342042 0.060578495
-15.6129 -25.2066 413.19299 -0.27371845 -0.31947148 -0.90720242 0.049784523
-15.4366 -29.0487 414.17899 -0.61465561 -0.44212052 -0.65324414 0.073088944
-15.5425 -27.093 413.63501 -0.28354052 -0.32052356 -0.9038083 0.052472822
-7.6978102 -42.347198 421.047 -0.72530657 -0.52553493 0.44468349 0.088342756
-8.0106001 -42.4715 416.677 -0.57917905 -0.6769256 -0.45422834 0.099757016
-14.8783 -31.0236 414.742 -0.83869451 -0.52344704 -0.15031542 0.05983068
