# .PCD v0.7 - Point Cloud Data file format
VERSION 0.7
FIELDS x y z normal_x normal_y normal_z curvature
SIZE 4 4 4 4 4 4 4
TYPE F F F F F F F
COUNT 1 1 1 1 1 1 1
WIDTH 112
HEIGHT 1
VIEWPOINT 0 0 0 1 0 0 0
POINTS 112
DATA ascii
54.0289 5.7891502 408.43201 0.86263609 0.42662558 -0.27175289 0.082027383
33.3134 15.2735 410.88501 0.18555896 -0.2326521 0.95469415 0.06356518
46.124802 13.3989 405.10101 0.52346557 0.75655645 -0.3919262 0.0087421965
36.783901 17.370399 404.306 0.21026114 0.92444438 -0.31810826 0.0038172957
34.859299 17.3911 403.25699 0.18245426 0.9489646 -0.25724828 0.013752103
50.069199 11.2652 407.056 0.69695842 0.69947881 -0.15804552 0.023576772
29.931601 19.435101 408.95099 -0.031770863 0.99949193 0.0025397295 0.088789798
27.005199 19.2929 409.55801 -0.086129293 0.99601591 -0.023110071 0.063425243
38.227402 17.274099 405.11499 0.29032284 0.88799959 -0.35660812 0.0069010635
38.693501 16.394199 403.19 0.31859112 0.8933444 -0.31691554 0.010334227
44.318901 15.4039 407.13101 0.42086795 0.90419024 -0.072870754 0.055036642
36.9403 16.9447 403.17599 0.22548553 0.92174953 -0.31549016 0.014739248
28.768 19.290701 408.254 -0.074041523 0.97415781 -0.21338783 0.080556042
46.361099 13.5871 405.69501 0.5032239 0.77788633 -0.37637559 0.013249324
35.033798 17.337799 403.18399 0.18015714 0.94604367 -0.26934129 0.013741851
44.682499 15.1954 407.047 0.47425622 0.87252867 -0.11736576 0.052606702
39.880001 17.1602 408.95401 0.462486 0.80187172 0.37829673 0.04895122
38.627102 17.7031 409.01001 0.29980505 0.91131532 0.28217256 0.087044589
42.578899 15.7898 408.995 0.35061806 0.86476755 0.35950527 0.12454852
42.460201 16.3522 407.01801 0.46943107 0.88001341 -0.072186224 0.016137846
42.5373 15.5819 405.189 0.42954066 0.82869411 -0.35883266 0.0088990964
44.411598 14.9685 408.966 0.45500141 0.84167594 0.29078397 0.088887393
43.4781 15.4202 408.953 0.35061806 0.86476755 0.35950527 0.10485668
52.113998 7.9839301 406.457 0.89263207 0.38956252 -0.22682373 0.006219313
40.652199 17.195999 407.065 0.32808942 0.93839794 -0.10847427 0.016785009
46.5923 13.0702 405.08499 0.56809729 0.7266221 -0.38637516 0.0076196194
27.0723 19.1614 408.96201 -0.2248607 0.963826 -0.14309819 0.027132342
51.924198 5.6900301 403.18201 0.85250217 0.43652344 -0.28755412 0.010350908
54.013 3.93506 406.76401 0.88118625 0.32830533 -0.34018579 0.0081634503
46.265701 13.4882 409.189 0.55736595 0.77757663 0.29106313 0.13003619
50.400902 10.6156 408.95999 0.64121443 0.57909554 0.50348026 0.10585448
27.8591 19.3008 408.96301 -0.1048742 0.99419433 -0.024064306 0.055843439
46.372898 14.2193 407.04401 0.63016844 0.77372062 -0.0651474 0.012206879
46.417999 13.7282 408.957 0.55736595 0.77757663 0.29106313 0.079131335
38.667702 17.136299 405.10901 0.29032284 0.88799959 -0.35660812 0.0069688354
33.089401 17.3459 401.246 0.15128258 0.98307163 0.10336228 0.027804036
35.200199 17.5926 399.30301 0.30967128 0.75765306 0.57451332 0.026448352
53.484798 5.44239 407.013 0.87432057 0.37431532 -0.30895233 0.019469757
54.212601 3.75457 407.034 0.86988157 0.339439 -0.35789275 0.018320374
54.095901 4.0786099 407.09299 0.86988157 0.339439 -0.35789275 0.018771397
32.697701 15.4732 411.05899 0.24420774 -0.24454705 0.9383812 0.059597962
31.164101 19.310101 407.76501 0.054213561 0.99173838 -0.11625785 0.047789093
31.070299 19.0266 407.05801 -0.011943512 0.9746778 -0.22329475 0.013014554
36.8041 18.2101 408.96799 0.18756467 0.92707527 0.32457814 0.096333459
48.491501 12.7357 407.02701 0.60063636 0.78977633 -0.12445613 0.027145198
36.736599 16.378 401.246 0.33283889 0.94026679 0.071530722 0.018754095
40.452999 17.284901 407.19699 0.34402204 0.93673223 -0.064664997 0.016814297
38.987 17.839701 407.03799 0.29510063 0.94706011 -0.12646243 0.019314105
51.6754 7.5704198 405.09 0.8174383 0.43013149 -0.38312069 0.0034575288
52.121498 5.8189301 403.89801 0.85268402 0.42598525 -0.30243433 0.0059372503
29.112301 18.283501 405.14499 -0.075962141 0.95473659 -0.28758955 0.0076721283
52.108002 5.3073602 403.18399 0.85250217 0.43652344 -0.28755412 0.010676698
52.696602 5.5910902 405.159 0.85923046 0.39297539 -0.32755661 0.0021175949
35.0513 18.0063 405.13599 0.15309261 0.92617118 -0.3446297 0.0036123923
40.4552 15.3738 409.776 0.37002498 0.77030277 0.51934105 0.12160263
47.476101 13.4652 407.06799 0.38787997 0.91989082 -0.057879146 0.026389781
52.095798 6.7570701 405.082 0.82324409 0.44004467 -0.35864997 0.0026332294
36.688599 18.4561 407.04001 0.20028381 0.96405911 -0.17457485 0.016333411
44.591801 14.3829 405.10901 0.47450304 0.8044163 -0.35743713 0.0086968364
48.830299 12.0361 408.94199 0.62231368 0.59751284 0.50567186 0.10730745
42.797001 15.4203 405.12799 0.4338704 0.82763964 -0.35604644 0.0083814478
29.3283 18.9802 410.88 0.028270865 0.98093534 0.192267 0.07396391
35.182999 16.813299 401.263 0.18696786 0.98127902 0.046200581 0.040195957
38.693298 17.371 405.63599 0.30259007 0.88042164 -0.3650986 0.0068349238
29.399599 18.918699 407.01099 -0.096067302 0.94839454 -0.30219004 0.0083464095
30.630199 19.292101 407.77701 0.01033971 0.98818821 -0.15289582 0.013535679
29.52 17.996 401.23199 0.086644866 0.91203797 0.40084833 0.033529267
29.1724 17.7136 403.16901 0.029147984 0.99773526 -0.060619459 0.037963785
32.9963 18.995199 408.94 0.15122902 0.96914631 0.19464138 0.093306206
27.3864 18.0399 405.086 -0.1432582 0.96218216 -0.23169501 0.012189654
27.912201 17.6656 403.19901 -0.13448097 0.99089587 -0.0063442774 0.035520248
31.2848 19.2784 408.94901 0.13814948 0.98708266 0.081132673 0.096407697
40.545399 16.789801 408.95099 0.42487687 0.79609418 0.4309451 0.15047958
54.3652 5.15624 408.957 0.9435066 0.32029155 -0.084903687 0.10582762
36.781399 16.9202 399.384 0.31426299 0.86509585 0.39095777 0.030738126
25.622299 18.7841 408.94901 -0.23700291 0.96078575 -0.1439459 0.025770569
27.652 19 410.88199 -0.10291748 0.9727841 0.20760329 0.075888239
38.380798 17.329201 409.564 0.39751869 0.79441267 0.45922479 0.084369108
32.947102 17.877399 410.90601 0.23741142 0.47797799 0.84567893 0.091023885
34.895901 18.622999 408.96399 0.17486092 0.92808491 0.3287583 0.079464898
42.201401 15.4036 409.45001 0.3802352 0.82332873 0.421368 0.12203133
31.0228 18.723101 410.87399 0.21233739 0.94209909 0.2595422 0.089968257
30.6782 19.269699 409.29901 0.072846875 0.99204344 0.1026796 0.10097274
52.670601 7.7137499 408.94901 0.81052178 0.58568424 0.0053271679 0.092514738
34.592201 17.334999 400.13 0.29045638 0.86918503 0.40019056 0.036050923
52.037498 7.7077398 409.94601 0.81129384 0.49052948 0.31809291 0.10290297
47.068501 13.2481 408.966 0.55580389 0.77069867 0.31161773 0.11927688
35.242599 18.745501 407.02399 0.16787817 0.97248429 -0.16152763 0.014901577
34.124298 15.4993 410.87 0.18555896 -0.2326521 0.95469415 0.086310826
34.647999 17.3438 410.70001 0.094036087 0.48139593 0.87144428 0.081869625
40.754799 16.369801 405.11099 0.36279306 0.86361617 -0.35006899 0.0090438752
52.3074 8.2893 408.944 0.83925128 0.54224086 0.04039989 0.098736465
51.524799 9.4607801 407.07401 0.80152309 0.55496335 -0.22265774 0.022748958
52.2467 8.2927198 407.01801 0.84969074 0.48702079 -0.20208022 0.02387524
33.298698 18.2712 399.30399 0.25464794 0.80441242 0.53672624 0.026209863
36.883099 17.6441 405.09799 0.2222258 0.91273159 -0.34283632 0.0063201832
53.9217 5.7856698 409.383 0.87734818 0.41796607 0.23572128 0.10207437
48.028301 11.5666 409.448 0.50573051 0.57298726 0.64492029 0.17454273
49.468399 11.5413 408.94299 0.53878146 0.67387122 0.50558102 0.072063774
36.253399 17.1707 399.345 0.2881088 0.82414758 0.48762086 0.025787108
32.867199 17.376499 401.29999 0.23742503 0.95449275 0.18047991 0.026006151
32.611698 17.359301 401.68799 0.23742503 0.95449275 0.18047991 0.026014153
51.3834 9.4727097 408.97601 0.78541529 0.60433382 0.13380387 0.10378305
52.786499 7.1554699 407.022 0.83358681 0.49222594 -0.25069234 0.018199854
36.5895 17.317101 410.315 0.10030749 0.76954252 0.63066852 0.1245911
31.3002 17.695299 401.23001 0.19095065 0.93036735 0.31297681 0.02950518
33.120399 17.59 403.159 0.13836847 0.97175944 -0.19114858 0.028650314
33.200298 18.219299 405.08801 0.086528122 0.93605161 -0.34105757 0.0029356258
50.199902 11.1393 407.07199 0.73285818 0.66374177 -0.14955169 0.023605637
30.9238 18.365 405.112 0.0059032189 0.94563383 -0.3251797 0.0039533968
31.1478 17.725401 403.17999 0.11253502 0.98486167 -0.13184591 0.032240272
33.030102 18.9918 407.03601 0.14039795 0.97889048 -0.14853227 0.037634473
