# .PCD v0.7 - Point Cloud Data file format
VERSION 0.7
FIELDS x y z normal_x normal_y normal_z curvature
SIZE 4 4 4 4 4 4 4
TYPE F F F F F F F
COUNT 1 1 1 1 1 1 1
WIDTH 44
HEIGHT 1
VIEWPOINT 0 0 0 1 0 0 0
POINTS 44
DATA ascii
50.061501 7.4971499 401.23599 0.70935583 0.68881452 -0.14949541 0.037522685
48.190399 9.47752 399.25201 0.7205534 0.65076166 0.2393994 0.035890497
48.2696 11.5943 404.84698 0.62519938 0.66753542 -0.4043788 0.0053740139
40.402401 15.4076 399.008 0.41019076 0.81572121 0.40785095 0.030146213
40.532101 15.4557 402.66299 0.40183616 0.85750896 -0.32125711 0.0076536206
41.9412 14.9667 403.164 0.41232118 0.84399134 -0.34303048 0.0061671012
44.3927 13.5649 403.035 0.50252837 0.79041141 -0.35030705 0.0042152051
43.306801 13.5026 401.259 0.53056359 0.8252005 -0.19376893 0.024193775
42.643799 13.9105 401.29001 0.44017613 0.87559301 -0.19895193 0.030657312
48.368 11.6513 405.082 0.62519938 0.66753542 -0.4043788 0.011722844
46.3125 11.6258 401.87601 0.54318678 0.80716449 -0.23115712 0.0061147353
46.051201 11.5681 401.24701 0.54318678 0.80716449 -0.23115712 0.02208537
44.939602 12.4077 401.233 0.58998382 0.76815087 -0.24872337 0.03376776
46.600399 11.1206 401.23199 0.62093073 0.75082701 -0.22517502 0.031850811
46.105701 11.3008 399.33899 0.59675407 0.79298037 0.12274637 0.042381726
48.790901 9.0171804 401.23099 0.7820546 0.58864212 -0.20467295 0.032469377
46.979301 11.7468 403.181 0.60947967 0.70251292 -0.36743718 0.005886761
40.995399 14.7634 401.23099 0.42470235 0.89626259 -0.12783314 0.034268826
39.727699 15.3468 401.245 0.39116973 0.91893458 -0.0504524 0.035159767
48.556801 11.4898 405.10699 0.6548568 0.63481003 -0.41009605 0.012374804
48.651798 10.1837 403.15601 0.62989539 0.67036289 -0.39223129 0.0057954802
48.2798 9.7147703 401.59601 0.66160452 0.71852958 -0.21446371 0.0062612579
49.222401 9.5821104 403.16299 0.70746821 0.59595472 -0.37990355 0.0073962021
47.462898 11.3772 403.23599 0.60460818 0.69732666 -0.38494742 0.0045686984
50.160198 7.8158202 402.095 0.72765964 0.65256292 -0.21136005 0.0093560908
38.9226 15.6718 401.242 0.34130716 0.93477559 -0.098509178 0.030740777
50.473099 8.0599403 403.19299 0.7521835 0.56043684 -0.34659854 0.0060662529
50.826801 7.5536299 403.15601 0.80884075 0.47998685 -0.33968997 0.011640884
38.751598 16.060699 399.30499 0.41830003 0.82139438 0.38773233 0.032402106
43.755699 13.0786 399.302 0.49805605 0.83107346 0.2475016 0.031435858
40.032398 15.3896 399.31799 0.4349407 0.81087112 0.39155418 0.032838162
42.8535 13.7102 399.319 0.58771682 0.75697333 0.28562266 0.030875942
48.214699 9.4165497 399.30899 0.7205534 0.65076166 0.2393994 0.037113182
46.3843 11.0817 399.31299 0.68876147 0.7026118 0.17872944 0.039655585
46.021 12.4834 403.16199 0.54615968 0.74892712 -0.3752569 0.0064094164
44.381401 13.6234 403.159 0.50252837 0.79041141 -0.35030705 0.0042057079
50.3004 7.1539798 401.23401 0.81918293 0.55095595 -0.15933245 0.037491597
44.519798 12.5145 399.31699 0.57997215 0.75856191 0.297012 0.02589114
42.878201 14.4611 403.181 0.46264231 0.81694591 -0.34432751 0.0040186443
40.908798 14.9308 399.297 0.4628801 0.8016699 0.37824249 0.034618419
40.556801 15.6425 403.17899 0.40183616 0.85750896 -0.32125711 0.0083647668
48.343102 9.2983704 399.32101 0.73250294 0.66079795 0.1636627 0.034288414
49.9837 7.6743202 399.30801 0.72871381 0.684807 -0.0039485348 0.034302808
50.206799 7.4145498 399.336 0.69818544 0.68908632 0.19415748 0.039849278
