# .PCD v0.7 - Point Cloud Data file format
VERSION 0.7
FIELDS x y z normal_x normal_y normal_z curvature
SIZE 4 4 4 4 4 4 4
TYPE F F F F F F F
COUNT 1 1 1 1 1 1 1
WIDTH 11
HEIGHT 1
VIEWPOINT 0 0 0 1 0 0 0
POINTS 11
DATA ascii
38.925098 -17.005899 410.871 0.071501859 0.37879959 0.9227125 0.022252662
42.555401 -15.4717 410.42099 -0.21865714 0.58061516 0.78426725 0.015861278
38.584 -17.4368 411.07199 0.056214627 0.50384694 0.86196184 0.029084051
40.367901 -15.4415 410.13901 -0.0045362497 0.5394004 0.8420372 0.029176759
40.7994 -15.4732 410.078 -0.046981048 0.57779884 0.81482595 0.029645715
40.5853 -17.3645 411.50699 -0.28301603 0.67070478 0.68560708 0.023467591
37.912399 -17.4114 411.07001 0.1063489 0.4775072 0.87216789 0.025704958
40.6684 -16.662201 410.914 -0.088441126 0.60910887 0.78813994 0.024940709
36.553699 -17.5075 411.64301 0.33916855 0.42975262 0.83682579 0.022298181
40.6754 -18.2749 412.81 -0.38580588 0.8140887 0.43406612 0.013777955
43.053799 -15.5836 410.88 -0.44612953 0.69124377 0.56846327 0.01606752
