ply
format ascii 1.0
comment PCL generated
element vertex 208
property float x
property float y
property float z
property float nx
property float ny
property float nz
property float curvature
element camera 1
property float view_px
property float view_py
property float view_pz
property float x_axisx
property float x_axisy
property float x_axisz
property float y_axisx
property float y_axisy
property float y_axisz
property float z_axisx
property float z_axisy
property float z_axisz
property float focal
property float scalex
property float scaley
property float centerx
property float centery
property int viewportx
property int viewporty
property float k1
property float k2
end_header
-4.3158698 7.3581901 408.25 -0.98919976 -0.0050197393 0.14648755 1.8044952e-35
-4.33006 6.60463 408.245 -0.97602773 -0.013018277 0.21725647 1.8044952e-35
-4.0631599 5.8060699 409.67999 -0.99883771 0.036928508 0.030976677 1.8044952e-35
-2.8758299 54.490101 392.52899 -0.98890817 -0.067605332 0.13225035 1.8044952e-35
-2.9119899 50.4049 392.431 -0.92047769 0.14997908 0.36086988 1.8044952e-35
-2.8428299 50.8568 392.452 -0.97259361 0.11876225 0.19989286 1.8044952e-35
-2.8742099 51.537201 392.04999 -0.97287911 0.11961578 0.19798559 1.8044952e-35
-2.87238 49.9986 392.85599 -0.95002306 0.1223886 0.28718856 1.8044952e-35
-4.3369799 8.6895304 406.82199 -0.95986342 0.23476841 0.15344712 1.8044952e-35
-2.5032599 49.141899 395.37 -0.98841959 -0.15158327 -0.0070162774 1.8044952e-35
-3.05146 48.8769 392.45901 -0.8709355 0.061772659 0.48749927 1.8044952e-35
-2.7164299 48.938599 393.86899 -0.98687136 -0.0032615673 0.16147549 1.8044952e-35
-2.9172599 20.1423 405.36401 -0.97626632 0.1519241 0.15434743 1.8044952e-35
-2.86079 21.511999 404.772 -0.9690423 0.14414266 0.20044924 1.8044952e-35
-3.25156 20.1336 403.92801 -0.97082633 0.13665801 0.19703016 1.8044952e-35
-2.87361 51.952599 392.035 -0.99418837 0.024244845 0.104889 1.8044952e-35
-2.4895999 47.799999 395.328 -0.98974854 -0.0059935213 0.14269497 1.8044952e-35
-3.3866899 23.0641 401.08899 -0.83451527 0.15287872 0.52935082 1.8044952e-35
-2.5778699 43.295101 395.32999 -0.9818455 0.025596753 0.18794735 1.8044952e-35
-3.94118 13.16 405.36499 -0.95836216 0.086970605 0.27198908 1.8044952e-35
-4.1019301 14.6392 403.92099 -0.85677695 0.22421239 0.46439427 1.8044952e-35
-3.9835899 11.8388 405.36401 -0.96761578 0.054244012 0.24653046 1.8044952e-35
-2.57429 37.8092 396.73999 -0.88489395 0.11108931 0.45235148 1.8044952e-35
-2.1605599 31.6903 401.07101 -0.98302722 0.092840388 0.15823452 1.8044952e-35
-2.6354899 41.723598 395.35901 -0.91354656 0.11345311 0.3905907 1.8044952e-35
-2.9087701 31.795 398.181 -0.77615041 0.32009447 0.54325873 1.8044952e-35
-3.9558201 17.34 402.49701 -0.92607445 0.11751728 0.35857466 1.8044952e-35
-2.6229501 36.1605 396.76501 -0.93059903 0.13282381 0.34109125 1.8044952e-35
-2.7846601 35.223 396.755 -0.84393746 0.089072526 0.52899498 1.8044952e-35
-2.3617301 27.316799 402.49301 -0.98776269 0.090944193 0.12670425 1.8044952e-35
-2.3733699 24.664499 405.37 -0.98469424 0.040741436 -0.16946211 1.8044952e-35
-2.85641 25.8566 400.513 -0.65547782 0.32611477 0.68117398 1.8044952e-35
-4.25775 7.7279701 408.24399 -0.98065215 0.14895812 0.12701491 1.8044952e-35
-4.2767601 5.9346399 408.24799 -0.98948061 0.028427985 0.1418449 1.8044952e-35
-3.6115799 19.076099 402.49301 -0.92398059 0.13781799 0.35674372 1.8044952e-35
-2.6724899 47.654499 393.88599 -0.9839505 -0.017868374 0.17754479 1.8044952e-35
-2.86676 46.619999 392.875 -0.90523237 0.04499099 0.42252833 1.8044952e-35
-2.85835 19.9842 405.70599 -0.98115689 0.12283345 0.14914121 1.8044952e-35
-3.72385 11.5991 406.83801 -0.98272467 0.08833202 0.16263348 1.8044952e-35
-2.84833 22.913 403.64499 -0.96213365 0.17697486 0.20731318 1.8044952e-35
-2.0838399 28.981001 403.93799 -0.97024602 0.042558372 -0.23835152 1.8044952e-35
-3.9626701 9.3501301 408.245 -0.97496867 0.18333542 -0.12579411 1.8044952e-35
-2.7042699 46.327499 393.884 -0.95433182 0.079574183 0.28795609 1.8044952e-35
-3.64289 18.009001 403.923 -0.94808352 0.21322866 0.23594739 1.8044952e-35
-2.28578 46.1017 396.75699 -0.98871577 -0.14842696 0.02026256 1.8044952e-35
-2.9591501 24.654699 401.05399 -0.83766878 0.32854414 0.43631384 1.8044952e-35
-4.09724 10.1575 405.396 -0.95205784 0.18145889 0.24628948 1.8044952e-35
-3.06353 23.298401 402.51001 -0.95426965 0.21683307 0.20579822 1.8044952e-35
-2.65012 51.778999 395.41299 -0.99536049 -0.037332255 -0.088677987 1.8044952e-35
-2.573 50.392101 395.32199 -0.9806869 -0.16805544 -0.10005262 1.8044952e-35
-2.69995 51.764999 393.90302 -0.99625087 0.018227439 0.084569126 1.8044952e-35
-2.6633799 50.539501 393.88501 -0.99545354 -0.0033036172 0.095191099 1.8044952e-35
-2.7738199 51.890999 392.42999 -0.99418837 0.024244845 0.104889 1.8044952e-35
-2.7979801 40.672901 395.30899 -0.77724719 0.3305997 0.53534162 1.8044952e-35
-2.8743899 53.641701 391.60199 -0.99311924 -0.030189417 0.11314926 1.8044952e-35
-2.8482699 53.5797 392.422 -0.99294066 -0.043846108 0.11021034 1.8044952e-35
-2.063 30.3542 402.495 -0.99788457 -0.056317821 -0.03247666 1.8044952e-35
-2.33564 41.987499 396.73401 -0.97669905 0.057640556 0.20672828 1.8044952e-35
-2.32037 33.210999 399.64099 -0.95962894 0.12480129 0.25206533 1.8044952e-35
-2.84214 20.8494 405.362 -0.98680991 0.10224267 0.1255096 1.8044952e-35
-4.27211 4.54808 409.68201 -0.95327389 0.22458266 -0.20206822 1.8044952e-35
-2.77367 44.878399 393.86301 -0.83791482 0.1877687 0.51248574 1.8044952e-35
-3.7114699 15.0985 405.36099 -0.96856451 0.11118328 0.2225334 1.8044952e-35
-1.89151 37.443501 399.61801 -0.99777293 -0.064780369 0.015894925 1.8044952e-35
-2.0797999 43.201199 398.211 -0.95324391 -0.28609607 -0.097339794 1.8044952e-35
-2.2260201 37.774399 398.17499 -0.97596174 0.035248656 0.21507263 1.8044952e-35
-2.0205801 35.944401 399.60901 -0.98078173 0.077767372 0.1789396 1.8044952e-35
-2.64733 53.648102 393.92599 -0.99923319 -0.039124668 -0.0014977797 1.8044952e-35
-2.2867999 35.983398 398.186 -0.96659184 0.10280035 0.23480268 1.8044952e-35
-2.45625 29.162399 401.06699 -0.97063273 0.11554696 0.21099994 1.8044952e-35
-2.2762001 25.999599 405.38199 -0.95773435 -0.033513103 -0.28569528 1.8044952e-35
-1.86435 34.8671 401.04999 -0.99873477 -0.046007764 -0.020300303 1.8044952e-35
-2.58008 27.7764 401.06 -0.97279376 0.077846296 0.21820223 1.8044952e-35
-2.8642099 28.7507 399.629 -0.8247419 0.20412441 0.5273841 1.8044952e-35
-2.87287 27.2642 400.17999 -0.77915287 0.17181875 0.602826 1.8044952e-35
-2.86515 28.6845 399.66101 -0.82047558 0.21183036 0.5309875 1.8044952e-35
-2.99264 27.9179 399.62 -0.73913348 0.14283678 0.6582396 1.8044952e-35
-2.86115 30.150499 399.00601 -0.85765707 0.18306822 0.48053133 1.8044952e-35
-2.83764 31.468901 398.50699 -0.78710186 0.17344449 0.59193558 1.8044952e-35
-2.2281799 28.9583 402.504 -0.99953902 0.030276187 0.0022517054 1.8044952e-35
-2.4841101 23.157801 405.388 -0.99472713 0.073238932 -0.07179106 1.8044952e-35
-2.6985099 33.2253 398.20001 -0.93728703 0.12799813 0.32420591 1.8044952e-35
-2.61287 22.4116 405.366 -0.99868214 0.047928043 0.018355627 1.8044952e-35
-2.7356801 23.111099 403.923 -0.96770275 0.16478209 0.19078316 1.8044952e-35
-3.01144 21.666599 403.95499 -0.96337956 0.16431561 0.21189657 1.8044952e-35
-2.86765 22.496901 403.92599 -0.96280807 0.16992322 0.21006367 1.8044952e-35
-2.3867199 26.062 403.923 -0.99940932 -0.0094816564 -0.033031933 1.8044952e-35
-2.5244801 24.5826 403.94199 -0.97849631 0.1336042 0.15714614 1.8044952e-35
-2.4342999 26.3911 402.48401 -0.98454589 0.12347846 0.12418721 1.8044952e-35
-2.8192401 24.247101 402.52301 -0.96045262 0.20801744 0.18509318 1.8044952e-35
-2.8508 24.322201 402.20099 -0.96122664 0.21048972 0.17814985 1.8044952e-35
-2.7398601 24.6807 402.48401 -0.97583938 0.17553237 0.13009953 1.8044952e-35
-2.71573 26.0301 401.05399 -0.97135335 0.11769793 0.20644587 1.8044952e-35
-2.77441 25.655399 401.056 -0.96711707 0.14979847 0.20553596 1.8044952e-35
-4.3010502 8.5603905 407.22 -0.95986342 0.23476841 0.15344712 1.8044952e-35
-2.1538401 34.5439 399.61801 -0.96954697 0.10395787 0.22174639 1.8044952e-35
-2.4837301 34.742699 398.19199 -0.95602524 0.12288501 0.26629871 1.8044952e-35
-3.4663899 17.440701 405.37701 -0.96664673 0.14703901 0.20969886 1.8044952e-35
-3.47699 57.617901 391.05499 -0.98811084 -0.15056682 0.031089917 1.8044952e-35
-2.85958 32.23 398.189 -0.829117 0.36633042 0.42233521 1.8044952e-35
-1.92908 38.967098 399.629 -0.98961002 -0.14173186 -0.024168735 1.8044952e-35
-3.3818901 21.7122 402.49701 -0.92822301 0.22780953 0.29411709 1.8044952e-35
-2.54634 44.565102 395.33899 -0.9840427 0.037188694 0.17400263 1.8044952e-35
-2.49176 46.019501 395.30801 -0.9891004 0.018906387 0.14602374 1.8044952e-35
-2.2588699 30.634501 401.048 -0.97590333 0.10805805 0.18956824 1.8044952e-35
-2.99981 56.1231 392.461 -0.98565197 -0.099689312 0.13620675 1.8044952e-35
-3.58149 13.0669 406.80399 -0.99881589 0.041829284 -0.024842449 1.8044952e-35
-2.9215 54.952202 392.422 -0.98882312 -0.084139816 0.12308251 1.8044952e-35
-2.0021601 30.309099 403.95401 -0.9342128 -0.078783892 -0.34790742 1.8044952e-35
-2.87114 54.632 392.77802 -0.98890817 -0.067605332 0.13225035 1.8044952e-35
-3.5302899 59.060699 391.04501 -0.97438812 -0.19501314 -0.11197168 1.8044952e-35
-2.86936 39.204498 395.64301 -0.83151859 0.19980133 0.51832062 1.8044952e-35
-3.6480899 21.581301 401.061 -0.86371458 0.2385944 0.44392556 1.8044952e-35
-3.7905099 16.7418 403.931 -0.95295191 0.19210529 0.23447426 1.8044952e-35
-4.1110601 20.065201 401.19299 -0.82532293 0.24117275 0.51056612 1.8044952e-35
-2.08726 41.938099 398.173 -0.99713528 -0.043100059 0.062157691 1.8044952e-35
-3.7125001 10.7076 408.25 -0.96603256 0.14921488 -0.21098813 1.8044952e-35
-4.2750401 8.8695097 406.81699 -0.95949084 0.24900818 0.13180399 1.8044952e-35
-3.8561699 10.1242 406.80099 -0.97067738 0.21853805 0.10013261 1.8044952e-35
-2.3237801 44.668701 396.73901 -0.99699372 -0.031591263 0.070750006 1.8044952e-35
-2.48246 40.255699 396.767 -0.96286118 0.090444252 0.25439778 1.8044952e-35
-2.8677001 47.616501 393.00101 -0.84647566 -0.014134787 0.53223974 1.8044952e-35
-3.0852301 54.7234 391.05301 -0.97529268 -0.10401976 0.19489489 1.8044952e-35
-3.39189 56.110901 391.01199 -0.97890413 -0.098030403 0.17926741 1.8044952e-35
-3.1770401 18.7698 405.367 -0.95885903 0.17993289 0.21957572 1.8044952e-35
-3.39726 19.145399 403.92401 -0.96615022 0.17165969 0.19257917 1.8044952e-35
-2.0517199 31.730801 402.57101 -0.97792774 -0.10590973 -0.18011245 1.8044952e-35
-3.46263 14.4003 406.819 -0.99845493 0.05397879 0.013193777 1.8044952e-35
-3.60183 15.9899 405.388 -0.96739668 0.12803219 0.21852098 1.8044952e-35
-3.2963099 16.0464 406.79901 -0.97120523 0.010735818 -0.23800248 1.8044952e-35
-2.1751499 39.014599 398.21201 -0.97344613 0.021722788 0.2278831 1.8044952e-35
-2.1408401 40.314098 398.17801 -0.97966194 0.039834883 0.19666143 1.8044952e-35
-1.88267 33.257 402.51001 -0.9519037 -0.0093705375 -0.30625406 1.8044952e-35
-1.97545 33.131001 401.04901 -0.98844749 0.083027303 0.12679926 1.8044952e-35
-3.62714 61.850899 389.56299 -0.98291439 -0.18324414 0.017346814 1.8044952e-35
-2.4524601 31.705799 399.612 -0.96030688 0.1081199 0.25713968 1.8044952e-35
-3.4602499 20.809999 402.51801 -0.92082715 0.16818944 0.35183752 1.8044952e-35
-4.1051998 10.0188 405.38199 -0.91348308 0.26854819 0.30566409 1.8044952e-35
-2.6099899 30.6138 399.621 -0.93857938 0.14820595 0.31161466 1.8044952e-35
-2.31305 43.654598 396.76801 -0.98243964 0.022333201 0.18523942 1.8044952e-35
-1.87014 40.2827 399.629 -0.97057956 -0.13612735 -0.19860671 1.8044952e-35
-2.8418 34.432201 397.20999 -0.77187657 0.20077522 0.60323781 1.8044952e-35
-2.2448001 27.4258 403.94501 -0.98648691 -0.024391267 -0.16201417 1.8044952e-35
-2.52037 38.890499 396.74899 -0.93883467 0.067097001 0.33776832 1.8044952e-35
-2.8758299 54.490101 392.52899 -0.98890817 -0.067605332 0.13225035 2.4559628e+31
-2.7164299 48.938599 393.86899 -0.98687136 -0.0032615673 0.16147549 2.4559628e+31
-2.9172599 20.1423 405.36401 -0.97626632 0.1519241 0.15434743 2.4559628e+31
-2.86079 21.511999 404.772 -0.9690423 0.14414266 0.20044924 2.4559628e+31
-3.25156 20.1336 403.92801 -0.97082633 0.13665801 0.19703016 2.4559628e+31
-2.87361 51.952599 392.035 -0.99418837 0.024244845 0.104889 2.4559628e+31
-2.4895999 47.799999 395.328 -0.98974854 -0.0059935213 0.14269497 2.4559628e+31
-2.5778699 43.295101 395.32999 -0.9818455 0.025596753 0.18794735 2.4559628e+31
-3.94118 13.16 405.36499 -0.95836216 0.086970605 0.27198908 2.4559628e+31
-3.9835899 11.8388 405.36401 -0.96761578 0.054244012 0.24653046 2.4559628e+31
-2.1605599 31.6903 401.07101 -0.98302722 0.092840388 0.15823452 2.4559628e+31
-2.3617301 27.316799 402.49301 -0.98776269 0.090944193 0.12670425 2.4559628e+31
-2.6724899 47.654499 393.88599 -0.9839505 -0.017868374 0.17754479 2.4559628e+31
-2.85835 19.9842 405.70599 -0.98115689 0.12283345 0.14914121 2.4559628e+31
-2.84833 22.913 403.64499 -0.96213365 0.17697486 0.20731318 2.4559628e+31
-3.64289 18.009001 403.923 -0.94808352 0.21322866 0.23594739 2.4559628e+31
-3.06353 23.298401 402.51001 -0.95426965 0.21683307 0.20579822 2.4559628e+31
-2.69995 51.764999 393.90302 -0.99625087 0.018227439 0.084569126 2.4559628e+31
-2.6633799 50.539501 393.88501 -0.99545354 -0.0033036172 0.095191099 2.4559628e+31
-2.7738199 51.890999 392.42999 -0.99418837 0.024244845 0.104889 2.4559628e+31
-2.8743899 53.641701 391.60199 -0.99311924 -0.030189417 0.11314926 2.4559628e+31
-2.8482699 53.5797 392.422 -0.99294066 -0.043846108 0.11021034 2.4559628e+31
-2.33564 41.987499 396.73401 -0.97669905 0.057640556 0.20672828 2.4559628e+31
-2.32037 33.210999 399.64099 -0.95962894 0.12480129 0.25206533 2.4559628e+31
-2.84214 20.8494 405.362 -0.98680991 0.10224267 0.1255096 2.4559628e+31
-3.7114699 15.0985 405.36099 -0.96856451 0.11118328 0.2225334 2.4559628e+31
-2.2260201 37.774399 398.17499 -0.97596174 0.035248656 0.21507263 2.4559628e+31
-2.0205801 35.944401 399.60901 -0.98078173 0.077767372 0.1789396 2.4559628e+31
-2.2867999 35.983398 398.186 -0.96659184 0.10280035 0.23480268 2.4559628e+31
-2.45625 29.162399 401.06699 -0.97063273 0.11554696 0.21099994 2.4559628e+31
-2.58008 27.7764 401.06 -0.97279376 0.077846296 0.21820223 2.4559628e+31
-2.6985099 33.2253 398.20001 -0.93728703 0.12799813 0.32420591 2.4559628e+31
-2.7356801 23.111099 403.923 -0.96770275 0.16478209 0.19078316 2.4559628e+31
-3.01144 21.666599 403.95499 -0.96337956 0.16431561 0.21189657 2.4559628e+31
-2.86765 22.496901 403.92599 -0.96280807 0.16992322 0.21006367 2.4559628e+31
-2.5244801 24.5826 403.94199 -0.97849631 0.1336042 0.15714614 2.4559628e+31
-2.4342999 26.3911 402.48401 -0.98454589 0.12347846 0.12418721 2.4559628e+31
-2.8192401 24.247101 402.52301 -0.96045262 0.20801744 0.18509318 2.4559628e+31
-2.8508 24.322201 402.20099 -0.96122664 0.21048972 0.17814985 2.4559628e+31
-2.7398601 24.6807 402.48401 -0.97583938 0.17553237 0.13009953 2.4559628e+31
-2.71573 26.0301 401.05399 -0.97135335 0.11769793 0.20644587 2.4559628e+31
-2.77441 25.655399 401.056 -0.96711707 0.14979847 0.20553596 2.4559628e+31
-2.1538401 34.5439 399.61801 -0.96954697 0.10395787 0.22174639 2.4559628e+31
-2.4837301 34.742699 398.19199 -0.95602524 0.12288501 0.26629871 2.4559628e+31
-3.4663899 17.440701 405.37701 -0.96664673 0.14703901 0.20969886 2.4559628e+31
-2.54634 44.565102 395.33899 -0.9840427 0.037188694 0.17400263 2.4559628e+31
-2.49176 46.019501 395.30801 -0.9891004 0.018906387 0.14602374 2.4559628e+31
-2.2588699 30.634501 401.048 -0.97590333 0.10805805 0.18956824 2.4559628e+31
-2.99981 56.1231 392.461 -0.98565197 -0.099689312 0.13620675 2.4559628e+31
-2.9215 54.952202 392.422 -0.98882312 -0.084139816 0.12308251 2.4559628e+31
-2.87114 54.632 392.77802 -0.98890817 -0.067605332 0.13225035 2.4559628e+31
-3.7905099 16.7418 403.931 -0.95295191 0.19210529 0.23447426 2.4559628e+31
-2.48246 40.255699 396.767 -0.96286118 0.090444252 0.25439778 2.4559628e+31
-3.0852301 54.7234 391.05301 -0.97529268 -0.10401976 0.19489489 2.4559628e+31
-3.39189 56.110901 391.01199 -0.97890413 -0.098030403 0.17926741 2.4559628e+31
-3.1770401 18.7698 405.367 -0.95885903 0.17993289 0.21957572 2.4559628e+31
-3.39726 19.145399 403.92401 -0.96615022 0.17165969 0.19257917 2.4559628e+31
-3.60183 15.9899 405.388 -0.96739668 0.12803219 0.21852098 2.4559628e+31
-2.1751499 39.014599 398.21201 -0.97344613 0.021722788 0.2278831 2.4559628e+31
-2.1408401 40.314098 398.17801 -0.97966194 0.039834883 0.19666143 2.4559628e+31
-1.97545 33.131001 401.04901 -0.98844749 0.083027303 0.12679926 2.4559628e+31
-2.4524601 31.705799 399.612 -0.96030688 0.1081199 0.25713968 2.4559628e+31
-2.6099899 30.6138 399.621 -0.93857938 0.14820595 0.31161466 2.4559628e+31
-2.31305 43.654598 396.76801 -0.98243964 0.022333201 0.18523942 2.4559628e+31
0 0 0 1 0 0 0 1 0 0 0 1 0 0 0 0 0 208 1 0 0
