# .PCD v0.7 - Point Cloud Data file format
VERSION 0.7
FIELDS x y z normal_x normal_y normal_z curvature
SIZE 4 4 4 4 4 4 4
TYPE F F F F F F F
COUNT 1 1 1 1 1 1 1
WIDTH 406
HEIGHT 1
VIEWPOINT 0 0 0 1 0 0 0
POINTS 406
DATA ascii
52.136799 36.696201 376.12299 0.84432924 0.40229443 -0.35393128 0.069014385
41.6936 48.204201 368.46701 0.18265605 0.79250056 -0.58187598 0.11218005
65.604103 23.212799 379.37201 0.7536363 0.6559276 -0.042324096 0.054267559
48.1026 42.323898 374.121 0.77281153 0.60987085 0.17555588 0.12166793
63.749401 23.2222 375.81799 -0.028515056 0.0092425272 -0.99955064 0.10091128
61.892502 21.996201 376.17899 -0.23269078 -0.28458798 -0.92998099 0.084133394
65.651497 22.822701 380.05301 0.67188609 0.66052645 0.33507299 0.048150789
17.361601 56.6021 368.45999 0.022196189 0.91306043 0.40721977 0.12896599
75.243401 13.5646 377.97198 0.51343614 0.77234566 -0.37398604 0.038188249
63.676899 25.1588 379.32901 0.58817381 0.74798632 0.30751923 0.058412801
50.166901 38.785198 376.16 0.54990882 0.80518293 0.22199269 0.10068311
13.383 55.945702 367.65201 -0.76516294 0.48450896 -0.42400086 0.16055191
9.6340799 40.539001 383.57401 -0.91646338 0.32853824 -0.22838017 0.13399719
63.596901 21.138901 375.875 -0.20037954 -0.10166421 -0.97442931 0.10849134
34.725498 50.2034 368.397 0.27698657 0.61369967 -0.7393586 0.11713027
10.1419 38.591301 381.948 -0.44912666 -0.43191007 -0.78213739 0.057844061
10.5828 42.978802 380.04401 -0.97878504 -0.044377439 -0.20002615 0.12687789
57.781799 26.9522 375.20401 -0.16300516 -0.13732724 -0.97702128 0.097501919
12.1239 43.221802 378.08099 -0.34853405 -0.62095296 -0.70209789 0.07142476
61.685101 26.845501 378.10199 0.67113143 0.74093878 -0.024338003 0.10017107
11.558 48.3531 374.23001 -0.82560331 -0.45452812 -0.33434021 0.11296485
11.5726 50.189899 372.453 -0.92591709 -0.1463352 -0.34822914 0.13274716
75.315399 11.6834 375.76099 -0.13916911 -0.17201456 -0.9752143 0.074898295
13.6452 52.1096 368.492 -0.39501402 -0.5979656 -0.69742459 0.12173174
40.5233 48.253201 368.31299 0.11024373 0.45928922 -0.88141918 0.080657616
11.5799 49.6241 374.272 -0.9942131 -0.089651234 -0.059185334 0.14014784
71.442001 17.608 380.01001 0.48372942 0.86321038 -0.1444772 0.087191261
69.3004 19.212999 380.12299 0.80390191 0.57192457 0.16322985 0.056123249
79.0513 3.8190701 383.40701 0.66195101 0.3751902 0.64888608 0.05694402
38.619598 48.3027 368.056 0.22546513 0.072854191 -0.9715234 0.088157795
11.597 50.292198 372.29199 -0.92591709 -0.1463352 -0.34822914 0.13380525
17.257799 54.650101 364.22699 -0.17900811 0.086601064 -0.98002875 0.074021943
48.3522 42.583698 372.29099 0.98872501 0.10557522 0.10619213 0.086051501
48.250702 43.966 371.879 0.83178532 0.53055227 0.16324058 0.13151363
13.6429 54.9674 366.505 -0.40776968 0.28415686 -0.86774349 0.13454656
13.4971 54.122799 366.22101 -0.35375702 -0.52410382 -0.77470714 0.12608844
36.323898 50.1227 371.15302 0.25593424 0.86781156 0.42591166 0.080599375
63.531101 25.067101 378.13699 0.72943449 0.67613906 -0.10373706 0.082544237
63.271 24.280199 376.15799 0.64990765 0.55755699 -0.51647872 0.10880885
59.949699 27.4844 380.01599 0.581577 0.69935369 0.41553891 0.042228211
60.949402 26.6506 380.035 0.52097356 0.67475635 0.52277184 0.037731051
50.201801 39.469398 374.71701 0.70465934 0.69465649 0.14459473 0.1035431
31.6591 52.156399 370.37 0.20431647 0.97284043 0.10879463 0.14771964
67.9226 20.5944 380.026 0.53400874 0.81153154 0.23717345 0.050396487
19.9459 57.882 364.34399 -0.097297855 0.76035875 -0.64217418 0.15723337
40.325199 46.266602 367.51901 -0.31460643 -0.13186474 -0.94001836 0.090755865
48.226898 40.652302 372.24701 0.82795453 0.019199824 -0.56046641 0.13710792
48.2575 40.577599 372.315 0.82795453 0.019199824 -0.56046641 0.11641449
29.0555 54.110699 368.435 0.46122569 0.8804332 -0.11003737 0.094732128
29.103201 54.0546 368.21899 0.55266601 0.78731585 -0.27330217 0.08793553
34.916599 51.1264 370.392 0.43677914 0.89884317 0.036124274 0.11624813
33.082001 51.7304 370.36801 0.36260545 0.9049387 0.22271779 0.14663546
40.193298 46.8125 367.22299 -0.283932 0.19008124 -0.93981475 0.094607718
9.6128502 40.707802 383.97501 -0.91400611 0.35435936 -0.19754057 0.14156038
13.2943 50.119202 371.17099 -0.26393789 -0.79021651 -0.55307746 0.071904875
31.055 48.5867 368.474 -0.086926199 -0.7003116 -0.70852488 0.14305601
46.845001 42.901798 374.22198 0.44131777 0.62739706 0.64156961 0.075413913
46.723099 44.960999 372.30301 0.47197938 0.70256382 0.53257823 0.14448066
65.705498 18.8792 376.14899 0.0026292768 -0.32558319 -0.94550973 0.10235578
65.539001 19.278299 376.004 -0.046186853 -0.10772185 -0.99310762 0.10393452
32.628899 48.105598 368.47699 -0.26970983 -0.61988908 -0.73688138 0.10179271
30.5154 50.0914 366.88901 0.022477927 -0.7094444 -0.70440286 0.12544534
28.979 51.097099 366.31 0.14134279 -0.19318461 -0.97092837 0.10744879
61.0704 26.624201 376.147 0.65086293 0.6267159 -0.42849115 0.11326636
50.176498 33.305401 374.26801 -0.12868094 -0.30485266 -0.94366628 0.056599416
52.009499 36.560001 377.23801 0.58474314 0.62786323 0.51367617 0.059395969
79.169296 6.5351601 381.93399 0.60779375 0.44379094 0.65851074 0.058687694
77.403099 0.062708698 380.03699 0.4563804 -0.38755485 -0.80094832 0.047826935
54.026402 32.861698 375.509 0.57985407 0.43297255 -0.69014782 0.073301561
73.3228 13.6144 376.64099 0.32574537 0.56135488 -0.76076978 0.084502466
65.346397 23.0637 380.09601 0.72358954 0.61446345 0.31440881 0.050835494
72.992798 15.2795 378.09601 0.54752499 0.73216593 -0.4051536 0.059829421
20.185101 57.932899 364.57599 0.3513734 0.79873562 -0.48842412 0.18705106
12.2997 54.367401 372.34698 -0.63314426 0.69736576 0.33587104 0.11822506
19.101101 54.002102 364.28201 -0.18512547 -0.65104312 -0.73611915 0.096373446
11.0385 44.509201 378.19901 -0.95826936 -0.13209365 -0.25351757 0.089038432
46.304001 44.182899 367.01599 -0.01235108 -0.79296696 -0.60913944 0.1496909
11.44 43.426102 378.10101 -0.67095661 -0.38221425 -0.63539708 0.081207559
11.4998 44.1581 377.54901 -0.57625967 -0.35271579 -0.73723561 0.092348553
56.113602 31.375601 376.15701 0.65801156 0.60137969 -0.45317024 0.11093976
23.188801 54.116299 364.117 0.49626833 0.15736744 -0.8537876 0.10452314
24.8529 55.928299 367.43201 0.5127635 0.85427779 -0.085340574 0.10073048
79.231102 9.6555004 375.85001 0.17330216 -0.18941714 -0.96648204 0.12041619
28.796499 50.108299 367.379 -0.18405361 -0.62585509 -0.75791138 0.096055545
25.1035 56.029301 366.65799 0.56069565 0.79710883 -0.22413813 0.091722772
11.5264 42.215801 379.008 -0.44805691 -0.53962857 -0.71277344 0.085043117
25.1455 54.039299 365.418 0.47495016 0.25180504 -0.84321797 0.10761422
26.683599 53.9515 366.51099 0.59977198 0.46165791 -0.65356374 0.12322757
46.029598 38.5037 372.12799 -0.20588228 -0.55229968 -0.8078227 0.046732627
11.2815 40.977501 380.01501 -0.42742118 -0.59447992 -0.68110555 0.069745913
15.4072 55.996601 366.10901 -0.43318838 0.6591481 -0.6147126 0.11491406
23.163401 53.9492 364.03601 0.32370988 -0.3049148 -0.89567786 0.10388995
49.881699 38.158798 374.229 0.85419661 0.3491559 -0.38527694 0.098515071
24.699301 52.0751 365.87 -0.077599935 -0.65693319 -0.74994469 0.076785438
17.626499 54.079102 364.61899 -0.057598568 0.088877559 -0.99437577 0.095184788
38.500599 49.9865 370.36301 0.32171962 0.94017053 0.11214207 0.11286616
13.8983 54.456299 372.30499 -0.31928983 0.78007108 0.53809214 0.18490241
56.685101 30.7663 376.15799 0.66149426 0.58103222 -0.47415924 0.11813013
23.231701 53.1371 364.59 0.23822391 -0.35157269 -0.90534306 0.10279624
65.260498 19.1513 376.19199 -0.26431614 -0.24205069 -0.93356758 0.088722803
21.7707 53.3936 364.58499 0.16432796 -0.76579332 -0.621737 0.095090181
9.9813499 40.729801 382.01099 -0.88291597 0.23127089 -0.40862352 0.12622268
62.1423 25.747101 380.01001 0.55338979 0.74936444 0.36361063 0.031789497
75.2351 12.1426 376.20599 -0.24274454 -0.19819497 -0.94962829 0.07123398
45.038101 43.324699 368.436 -0.15685695 -0.65816218 -0.73635483 0.067017071
29.1759 50.688801 366.51599 0.03465607 -0.14897163 -0.98823398 0.098566867
65.375198 22.9725 378.12701 0.74144381 0.64249557 -0.19354717 0.070420772
31.9991 52.064201 370.362 0.22541343 0.92365015 0.30993411 0.10755674
37.511501 50.304501 370.37601 0.074155517 0.99642348 0.040512472 0.10852502
36.898499 50.2076 368.89801 0.21529247 0.87178731 -0.44004095 0.13836132
73.290703 11.4694 376.53299 -0.37929386 -0.22323254 -0.89794397 0.096145757
61.8437 25.979099 376.202 0.67336529 0.5972417 -0.43575391 0.12271254
32.827999 52.181499 368.75101 0.44996893 0.88959414 -0.07842309 0.11462632
59.783001 24.9876 375.49799 -0.28410304 -0.26687026 -0.92090482 0.0883625
79.093201 -0.32349101 381.26599 0.63083726 -0.17879106 -0.75503516 0.11768513
19.558901 56.029999 362.98401 -0.052123178 0.48239157 -0.87440354 0.10296164
31.990499 51.894798 368.43301 0.58955264 0.77586055 -0.22465113 0.087536149
27.256599 54.798199 368.453 0.22701246 0.96538228 -0.12846187 0.11538143
48.243599 38.887798 371.96701 0.0068749506 0.034085594 -0.99939525 0.13456395
32.803001 50.171001 367.71399 0.40877602 0.19642273 -0.8912465 0.099155188
77.337402 4.2596002 378.099 0.17136939 -0.47594449 -0.86261773 0.045008276
69.097801 18.7089 378.13501 0.72704959 0.5764454 -0.37297398 0.062772602
18.6443 57.907902 364.672 -0.52757633 0.70943284 -0.4672989 0.13117346
49.678398 38.737801 374.22198 0.90889782 0.23632786 -0.34358969 0.082830675
48.258801 38.055901 371.93301 -0.048783772 -0.28757977 -0.95651346 0.096613161
27.024099 54.1479 366.901 0.5135985 0.53765762 -0.66868591 0.1524521
79.118896 5.7163601 378.23499 0.66588223 -0.37147191 -0.64700037 0.13925378
79.146797 3.7629001 379.68301 0.79991001 -0.25994578 -0.54089946 0.13474086
22.0462 53.999699 363.57001 0.32370988 -0.3049148 -0.89567786 0.090535045
78.960098 2.13608 380.005 0.69318318 -0.34678346 -0.63185304 0.13598578
30.919001 50.213501 366.90701 -0.026087828 -0.6672135 -0.74440956 0.15388723
45.991001 44.3307 366.82999 0.60556978 -0.72863173 -0.31997037 0.18818419
77.871696 3.76472 378.11801 0.53607339 -0.37937057 -0.75412422 0.041325681
50.156601 36.809799 373.72601 0.67928451 0.272266 -0.68150115 0.095896691
63.903099 20.247499 376.207 -0.24548259 -0.32716396 -0.91252506 0.093755759
11.9584 49.6511 372.289 -0.84633923 -0.3582446 -0.39417097 0.13127384
11.5393 49.9702 372.63 -0.91166329 -0.13941038 -0.38656798 0.18330191
79.100899 1.76689 380.436 0.8359111 -0.21408382 -0.50539166 0.11618867
44.2869 44.252602 367.87201 -0.3750976 -0.48228246 -0.79164726 0.15897593
13.8127 51.314602 376.16699 -0.279185 0.77844363 0.56221104 0.13872363
77.009399 3.84973 378.436 -0.077748023 -0.39505786 -0.91536033 0.049221341
30.978201 50.010502 366.92401 -0.050734214 -0.72138608 -0.69067228 0.12079805
19.299999 53.7794 364.57901 -0.18512547 -0.65104312 -0.73611915 0.07452137
46.490799 42.755901 368.45599 0.2051845 -0.7933377 -0.5731619 0.11117803
54.759602 32.7617 376.18799 0.64275879 0.64185065 -0.41819715 0.088487409
26.504999 54.1875 366.53 0.63953406 0.45067328 -0.62280798 0.10266132
65.655098 21.270201 375.75201 -0.010305401 0.054845296 -0.9984417 0.08164268
11.4933 46.580502 380.04199 -0.60761654 0.64659703 0.46120977 0.12664959
30.9091 52.223499 368.155 0.47917625 0.70565718 -0.52195597 0.15544209
49.501301 40.6665 374.22 0.84648114 0.53041148 0.046188548 0.13181868
69.5905 17.8557 378.10101 0.56362295 0.6861192 -0.45996699 0.12090473
50.907299 38.387699 376.147 0.76012748 0.63182431 -0.15167147 0.097611994
15.2631 55.914398 369.86499 -0.080291532 0.94703805 0.31092146 0.16823025
12.5152 50.8531 370.367 -0.60862172 -0.5324778 -0.58825761 0.12256726
55.947498 30.9596 375.578 0.52158755 0.48755464 -0.70016915 0.094375186
11.1858 46.3381 376.17499 -0.8973161 -0.26453751 -0.35333234 0.090514168
79.090103 -2.13519 382.02301 0.70410722 -0.24171413 -0.66768801 0.13538787
53.7948 33.808498 376.15701 0.6743837 0.63585323 -0.37536287 0.049711704
66.762199 21.1777 378.09698 0.75567138 0.60032284 -0.26186487 0.063463099
11.5651 46.2715 375.793 -0.81929249 -0.39654315 -0.41414165 0.099583387
67.415199 17.296 376.198 -0.23115724 -0.21500079 -0.94886297 0.082058258
77.281601 11.9656 380.03299 0.6512655 0.56074673 0.51128894 0.11220399
11.3657 45.9832 376.19 -0.74281979 -0.22679129 -0.62990832 0.088984638
61.9468 26.592199 378.08499 0.55965167 0.82872164 0.0032331408 0.087483205
11.5586 48.173 374.45801 -0.86772817 -0.21026832 -0.4503721 0.15844814
73.251701 15.367 380.423 0.77372217 0.52426827 0.35566393 0.069740966
69.945801 17.353201 378.078 0.57756776 0.56878704 -0.58557391 0.099234276
11.9891 47.821899 374.24301 -0.52068406 -0.51964241 -0.67739201 0.11846875
75.310402 13.9947 380.017 0.69098949 0.6694088 0.27281013 0.0652574
52.288399 35.441101 378.10501 0.54756749 0.70536631 0.45014241 0.063104726
14.5315 53.362801 366.50601 -0.35375702 -0.52410382 -0.77470714 0.12315897
77.770897 11.4315 380.04599 0.59942323 0.63304728 0.48983973 0.074959323
77.088097 11.4897 380.45099 0.62013423 0.4973475 0.60669518 0.039984509
13.3207 53.764198 366.52701 -0.45287764 -0.80964047 -0.37334186 0.16377859
15.3713 54.462799 365.216 -0.6357953 -0.029193414 -0.77130544 0.12389468
15.3928 53.938 365.479 -0.42099363 -0.11749441 -0.89942169 0.097721592
48.222401 36.584 372.685 -0.074709937 -0.451518 -0.88912874 0.08054775
73.329002 15.0289 378.09 0.49406013 0.72949302 -0.47301641 0.064961061
52.143002 36.861 376.21301 0.81525141 0.51701802 -0.26087838 0.09432248
13.3859 54.005901 366.32901 -0.35375702 -0.52410382 -0.77470714 0.16372387
79.9161 2.0852399 381.94901 0.98517418 0.16698229 -0.039353471 0.084557123
15.6671 56.5742 368.439 -0.0691531 0.99203676 0.10526593 0.15224618
75.232498 13.6782 378.091 0.47792426 0.86191511 -0.1693835 0.038994931
72.269699 13.4595 376.095 -0.0031201968 -0.048320018 -0.99882704 0.095849037
73.500702 12.0688 376.151 -0.1448741 0.016916886 -0.9893055 0.10427326
11.887 52.159901 372.31201 -0.98256189 0.1111955 -0.1490223 0.14924748
71.460403 15.4575 377.392 0.37527624 0.54061222 -0.75293171 0.077105619
11.5879 48.172298 376.508 -0.99310458 0.11315603 0.030643482 0.15305053
35.4077 47.2351 368.45401 -0.1550578 -0.6950013 -0.70208991 0.10735661
23.923599 54.040199 364.61499 0.47033858 0.33350861 -0.81703955 0.11742087
79.580299 0.48646301 381.95901 0.9608655 -0.11761342 -0.25080791 0.080999017
71.5196 17.423201 379.328 0.57087249 0.70018858 -0.42876634 0.1130733
69.459396 17.408501 377.397 0.58438969 0.4467864 -0.67739987 0.080461994
35.2556 48.349701 367.328 -0.2461358 0.19643812 -0.94912022 0.13963774
36.681801 49.6091 368.45801 0.30273128 0.66012311 -0.68745273 0.13842808
35.309399 50.010899 368.44299 0.16217254 0.42550883 -0.89030463 0.11747633
20.926399 54.0089 363.77701 -0.12782212 -0.48260766 -0.86645907 0.076318651
45.929298 44.754398 366.39999 0.17905918 -0.3192367 -0.93060505 0.19280307
77.983704 1.9191 378.88 0.53795636 -0.34794885 -0.76781154 0.042466808
76.929398 1.84383 379.35699 -0.17842178 -0.23294897 -0.95598137 0.058537461
75.879303 13.4434 380.01099 0.62793034 0.72316509 0.28763819 0.070111968
11.6089 47.0839 380.05099 -0.60761654 0.64659703 0.46120977 0.12666515
17.0641 54.200901 364.59201 -0.2432463 0.032703817 -0.96941304 0.081781186
71.7687 13.8262 376.11499 0.22373238 0.47769746 -0.84955812 0.090812251
79.979897 5.9951701 380.04199 0.99292946 0.10977443 -0.045174118 0.090719365
44.4748 48.260799 369.23599 0.30728617 0.92467779 -0.22482486 0.14979647
75.229401 11.4847 375.72601 -0.25155705 -0.2012925 -0.94667858 0.0748991
75.506798 10.0974 376.151 -0.21294925 -0.27578384 -0.93733448 0.080684938
52.086102 33.124802 373.81 -0.090327911 0.3105863 -0.94624364 0.10961614
27.3626 51.099701 366.508 -0.075543366 -0.71230674 -0.69779104 0.10894309
13.1893 56.2477 368.44601 -0.55274802 0.83163178 -0.053462554 0.12853009
67.937698 17.3538 375.99399 0.26281187 -0.050365575 -0.96353161 0.072854884
60.023102 27.0151 375.52301 0.33825341 0.34412795 -0.87587702 0.10006913
77.076103 9.5545902 375.755 -0.18323909 -0.22546129 -0.95686501 0.10022275
42.704102 48.384998 370.392 0.23836084 0.96981519 -0.051405981 0.11820251
71.732903 17.3221 380.035 0.61828393 0.78583223 0.013880289 0.088666439
64.720299 21.143801 375.46701 0.082087569 0.010268994 -0.9965722 0.072128713
28.9937 52.191799 366.953 0.50569952 0.22532015 -0.83276576 0.1288801
9.6185999 39.345402 381.789 -0.68083352 0.019628135 -0.73217517 0.07481426
23.0686 55.0947 364.62399 0.28262001 0.21606301 -0.93458158 0.13016093
47.981499 44.3237 372.315 0.80892223 0.53540128 0.24287912 0.12804821
79.132004 9.5697098 375.71301 0.17330216 -0.18941714 -0.96648204 0.11920892
47.695599 38.5686 371.453 0.0068749506 0.034085594 -0.99939525 0.092554666
58.152401 29.2318 376.15201 0.645311 0.59407759 -0.48025566 0.1820851
57.936401 28.9645 375.63501 0.51692814 0.35770005 -0.77771199 0.13834867
27.0109 52.231701 365.66901 0.43588915 0.12327664 -0.89151752 0.13797235
51.859699 32.754501 374 -0.090327911 0.3105863 -0.94624364 0.10079015
67.521103 18.0912 375.867 0.18152237 0.14926673 -0.97199231 0.075750716
50.1478 34.685001 373.29999 -0.0060688281 -0.16871344 -0.98564649 0.099412434
79.220802 8.6111298 376.14899 0.1438446 -0.21773605 -0.96534956 0.16113019
44.423801 46.369701 367.31799 0.11248156 0.32903677 -0.93759412 0.10303372
28.8654 53.9669 369.078 0.45705962 0.87493843 0.15993516 0.092728294
30.8235 52.826302 368.44299 0.53334659 0.84583616 -0.010128607 0.12678081
19.2493 55.939999 363.28 -0.52040887 0.29862764 -0.79999757 0.11127597
76.082199 9.5782099 376.17401 -0.27402449 -0.23070386 -0.93364143 0.070126779
77.210197 8.49998 376.177 -0.17698376 -0.33827913 -0.92425323 0.091927677
77.6213 9.6082001 375.535 -0.038186356 0.011489212 -0.99920458 0.09725754
46.008301 46.204201 371.34698 0.49585286 0.65206772 0.57353079 0.095039256
21.261101 56.004002 363.638 0.34941387 0.20116848 -0.91511816 0.092210427
67.927002 20.008499 378.09299 0.71018845 0.63728905 -0.2991572 0.063839123
78.496399 7.6809602 376.00201 -0.0011425801 -0.32322118 -0.94632274 0.084832318
28.4583 52.137402 366.534 0.350797 -0.22872107 -0.90809035 0.090618946
47.4496 42.689899 370.39401 0.87025928 -0.20219825 -0.44918218 0.11378698
46.751499 37.9533 372.302 -0.14042863 -0.50441986 -0.85196269 0.051349171
77.151802 -0.120099 380.21201 -0.11936069 -0.37987009 -0.91730678 0.054659247
67.539902 19.411699 376.65799 0.4589693 0.42725849 -0.77897197 0.07586547
48.709202 36.6413 372.396 0.30686888 -0.13364212 -0.94232225 0.086291917
26.3258 52.056499 365.59201 0.27482072 -0.11090371 -0.95507801 0.098269261
75.434998 11.3553 375.68799 -0.055453543 -0.10689656 -0.99272251 0.080453523
77.2211 11.6578 377.14899 0.46447849 0.63540727 -0.61686087 0.070617385
66.259201 19.239401 375.72699 0.14417079 0.027491834 -0.98917085 0.085405044
21.257601 54.7006 363.19299 0.12758359 -0.30539545 -0.94363976 0.12140347
69.4561 15.8575 376.24399 0.3555384 0.28663582 -0.88962483 0.09815447
13.5867 55.754601 370.36301 -0.54278344 0.75352442 0.37092733 0.11320044
13.1705 46.225101 381.439 -0.12422097 0.68039966 0.72223639 0.164534
11.4405 40.4422 380.39999 -0.35083583 -0.60439569 -0.71527624 0.092943788
79.219398 9.9858799 376.164 0.34046644 0.67572266 -0.65382069 0.12041526
55.921398 28.7148 374.84799 -0.20284435 -0.20260724 -0.9580211 0.10933751
66.393402 21.6681 378.082 0.73903054 0.63767815 -0.21725665 0.089549944
61.735199 25.2637 375.24799 0.3376675 0.11647324 -0.93403143 0.087075904
34.344799 48.144001 367.71799 -0.032030173 0.054592904 -0.99799484 0.099466935
33.455002 47.906399 368.43201 -0.33154446 -0.62559944 -0.70618951 0.094303943
29.3571 52.831699 370.375 0.28751573 0.81045264 0.5103932 0.16306561
30.806299 52.047501 370.82999 0.21460941 0.88098544 0.42167222 0.15504026
79.026802 5.7651501 382.423 0.6153183 0.39005354 0.68501216 0.059914496
52.727001 32.980801 374.22101 0.57669985 0.342188 -0.74183869 0.13260721
46.264999 42.241001 368.89801 0.12653445 -0.49741453 -0.8582353 0.10632172
79.231796 -1.0064 381.94199 0.6530413 -0.32800075 -0.68260717 0.11292813
17.341299 56.0756 365.02899 -0.53237766 0.31302127 -0.786506 0.1291943
18.5201 56.148499 364.59399 -0.5873419 0.398395 -0.70449334 0.10962909
56.226101 29.375999 374.42999 0.50383711 0.47340208 -0.72252238 0.10182197
36.744499 47.9132 367.47299 0.19471152 -0.35555691 -0.91414809 0.097396418
47.8214 42.391102 374.21899 0.77281153 0.60987085 0.17555588 0.099867627
79.2062 3.40906 380.01801 0.80823237 -0.23214066 -0.54117566 0.09836065
77.200699 9.9082699 375.58401 -0.11631829 -0.027713174 -0.99282527 0.080406033
38.8284 50.190399 369.12201 0.30204672 0.80926484 -0.50384349 0.12308417
19.385599 57.7836 364.612 -0.61159492 0.68672812 -0.39288181 0.15454768
65.616302 20.615999 375.56299 0.2823166 -0.024094526 -0.95901865 0.070488632
65.992302 21.2092 376.164 0.8418206 0.22219202 -0.49190325 0.082220301
71.376297 16.248899 378.078 0.50944269 0.69323009 -0.50980407 0.071715906
63.7789 24.4098 380.06 0.62547755 0.69184285 0.3607372 0.050596897
79.076698 -1.9671299 381.94101 0.70410722 -0.24171413 -0.66768801 0.13539398
69.687103 19.018 380.009 0.66905975 0.74158591 0.049085312 0.059401277
77.0131 7.6593299 376.65799 -0.2632733 -0.40936765 -0.873559 0.035213232
77.212303 10.8135 376.15601 0.22087826 0.35786915 -0.90727198 0.075134493
48.4347 37.0639 372.31 0.37158415 -0.26612905 -0.88943833 0.086575985
25.1677 52.873199 364.87299 0.083620325 -0.46104905 -0.88342595 0.11320656
13.3561 52.070999 368.62701 -0.43326637 -0.49637535 -0.75225776 0.10635382
63.7743 23.519699 376.18399 0.49283969 0.2808421 -0.8235513 0.10213891
50.4692 36.874599 374.241 0.80216622 0.27601582 -0.52947587 0.09386725
60.1577 26.149599 374.854 0.36965984 0.42495069 -0.82629806 0.092684656
63.040699 24.985399 380.06799 0.65038252 0.63265187 0.42042148 0.048208665
48.432701 38.755402 372.29999 0.15320647 -0.010666835 -0.98813665 0.13775185
61.813702 24.533701 375.064 0.043732177 -0.1034353 -0.99367434 0.093824372
52.172901 34.724899 374.992 0.64176291 0.34027085 -0.68728167 0.095969737
67.537102 17.278601 376.15799 0.10976947 -0.21453013 -0.9705295 0.077667393
42.551399 46.349602 367.10999 -0.24148716 0.39944479 -0.88437992 0.11005193
45.4384 44.959099 366.54099 -0.13066632 0.11384254 -0.98486859 0.16005591
11.8802 52.089699 370.42401 -0.8775844 -0.19916928 -0.43609318 0.14229374
46.452499 46.365799 367.54599 0.57689607 0.36503762 -0.73071092 0.14185761
58.745899 28.684601 376.16901 0.50280541 0.58297789 -0.638219 0.13669364
60.274799 27.3582 376.16699 0.55340993 0.69128436 -0.46461105 0.12175317
23.6378 56.641701 366.53799 0.26408628 0.96028602 -0.090051264 0.091136605
61.202301 25.0471 374.94101 -0.016474281 -0.051072944 -0.99855906 0.090736516
69.354698 15.3497 376.397 0.018310893 -0.048039008 -0.99867761 0.10320252
47.044201 46.7491 368.45001 0.59225637 0.66089147 -0.4609282 0.095974341
75.086403 13.4564 380.46301 0.69956726 0.48024759 0.52911997 0.055393342
35.246498 48.146801 367.422 -0.15248418 -0.15125896 -0.97666234 0.14483936
44.516499 47.7267 368.452 0.30829966 0.89406711 -0.32495436 0.10999873
46.850498 44.498798 368.479 0.86489099 -0.28712744 -0.41172972 0.1464881
71.435303 14.1213 376.17099 0.26896551 0.52228951 -0.80924112 0.077467225
77.597702 -0.055141799 380.05399 0.4563804 -0.38755485 -0.80094832 0.045966651
77.074501 5.7806902 377.51999 -0.1658491 -0.40034065 -0.90123326 0.05396986
74.0867 11.4786 376.15701 -0.24274454 -0.19819497 -0.94962829 0.099784151
67.441002 20.9825 380.086 0.66504669 0.71741527 0.20743249 0.05112496
50.206001 35.465401 372.97299 0.61445987 0.2456367 -0.7497344 0.086124919
11.7144 50.233898 374.37 -0.99332696 0.10222895 0.053392865 0.17109555
73.360603 12.7302 375.98599 0.037239894 0.011283308 -0.99924266 0.10863358
79.988098 5.5904498 381.95001 0.97588378 0.1308964 0.17469101 0.052034549
79.411903 4.0813899 380.056 0.902713 -0.19217598 -0.38493845 0.14089531
12.3794 54.024399 370.40302 -0.92528486 0.3250269 -0.19546214 0.11229482
8.8897495 38.889198 383.89999 -0.84787297 0.39842001 -0.34981847 0.13531709
72.0186 13.409 376.16101 -0.0031201968 -0.048320018 -0.99882704 0.095821805
50.096001 38.520901 376.401 0.34872034 0.87932342 0.32432148 0.073156901
54.238701 34.202202 378.108 0.58095694 0.81368411 0.020179803 0.06734582
53.277302 34.683498 378.159 0.76865208 0.60221303 0.21566993 0.11812489
69.459801 15.4073 376.34 0.018310893 -0.048039008 -0.99867761 0.10235392
33.5644 50.918098 368.436 0.31305978 0.64221722 -0.69967896 0.096739493
79.1325 5.9788599 378.09698 0.69265157 -0.46995625 -0.54715168 0.12202777
11.5835 48.234699 376.15302 -0.99161345 0.12812732 -0.01691458 0.13036014
47.605598 44.396198 370.366 0.90514946 0.39738145 -0.15097179 0.12538043
19.2682 55.265301 363.233 -0.55325282 -0.40280476 -0.72914994 0.13046573
73.460999 15.8715 380.02399 0.70085216 0.67963028 0.21658468 0.068998501
73.941002 15.3289 380.02802 0.62656295 0.74310637 0.23497194 0.096177816
22.236099 56.353901 364.60199 0.43762231 0.63677931 -0.63482189 0.066432931
27.0942 52.013699 365.70999 0.30643436 0.0052687367 -0.95187724 0.13355321
12.0259 50.642799 376.14801 -0.8304562 0.29397538 0.47320288 0.11906596
73.511497 15.4826 378.83701 0.49000019 0.81412935 -0.31159776 0.11008029
10.584 42.542599 381.97699 -0.89638197 0.43575904 -0.08132264 0.13649538
23.173 55.952499 365.26001 0.57266992 0.45630592 -0.68105364 0.1309143
43.460899 48.0681 370.40799 0.27764443 0.96067435 -0.0042846641 0.16575803
13.1302 54.014801 366.64899 -0.72936898 -0.25900841 -0.63319468 0.15902676
14.7903 55.9505 366.56601 -0.44059452 0.72016227 -0.53595036 0.0880014
56.639702 28.8964 374.54001 0.53893644 0.3968876 -0.74298573 0.11508665
11.3692 46.528099 378.08499 -0.98484266 0.16785982 0.04368034 0.099818707
75.5158 13.4877 378.077 0.40370849 0.87370491 -0.27140236 0.038622737
14.2528 56.625999 368.444 -0.042392954 0.98809242 0.14790598 0.12394306
42.281502 46.302502 367.07999 -0.11297476 0.25062355 -0.96147001 0.10896595
13.6268 52.901199 374.23001 -0.17513213 0.7708028 0.61252904 0.14471774
11.8502 52.657799 374.22299 -0.94050312 0.285568 0.18413267 0.11419126
77.6287 -1.93127 380.75 0.5791533 -0.19088146 -0.79255646 0.066696323
79.438103 10.7902 378.103 0.74945027 0.66182894 0.017512808 0.12022607
11.0629 44.904999 380.02899 -0.98551828 0.16919677 0.011232263 0.11598338
12.6338 54.114101 368.53299 -0.97520822 -0.081482738 -0.20574123 0.1334148
62.719002 23.1392 375.37 0.12197232 -0.14499764 -0.98188514 0.080961719
9.58951 38.8536 381.96399 -0.68083352 0.019628135 -0.73217517 0.086471409
11.6598 45.7145 381.96201 -0.36990616 0.66594905 0.64782816 0.14353375
9.6169395 38.475399 382.147 -0.58266079 -0.28616688 -0.76066744 0.07444144
67.571701 19.045401 376.21201 0.18152237 0.14926673 -0.97199231 0.059872545
11.7226 48.318199 378.095 -0.83688122 0.5315299 0.13078883 0.11646546
46.3764 42.432201 368.68399 0.17266873 -0.66887331 -0.72304493 0.11351426
57.881599 27.6397 374.798 0.40472242 0.42675054 -0.80875444 0.10656638
51.218201 35.2206 374.25101 0.58310366 0.13115115 -0.80174154 0.068843685
19.536501 55.5172 362.94 -0.29638386 -0.3296577 -0.89637178 0.10502641
42.624802 48.136398 368.479 0.10974062 0.98837507 -0.10522252 0.1476506
42.548302 48.2658 368.55499 0.10974062 0.98837507 -0.10522252 0.14669614
79.101997 7.7130299 376.56799 0.36599967 -0.60546845 -0.70671934 0.1475572
63.767101 22.403601 375.34799 -0.10754767 0.015547156 -0.99407834 0.090548232
35.037601 50.16 368.461 0.14014907 0.61440527 -0.77644342 0.13608314
44.873699 47.5368 370.397 0.42279798 0.77385098 0.47158942 0.12200416
47.130798 46.423 370.39801 0.79839855 0.59651923 0.082003117 0.092641257
50.240799 34.7043 373.26999 -0.0060688281 -0.16871344 -0.98564649 0.097047821
78.252403 7.54387 376.17001 -0.025332898 -0.34609178 -0.93785858 0.064053126
78.229301 5.7769098 377.05801 0.22291975 -0.55091053 -0.80424148 0.04371389
79.745102 7.8659902 378.13 0.95670778 -0.059679687 -0.2848658 0.076284602
77.247498 12.4087 378.15601 0.60563445 0.78828382 0.10869938 0.085903794
32.802399 49.144699 367.315 0.1913065 -0.23163672 -0.95380622 0.096196927
40.511299 48.441399 368.457 0.12561974 0.79287761 -0.5962925 0.12586993
9.6753998 41.659302 385.80099 -0.57810915 0.71411455 0.39475346 0.11264927
9.6779003 40.827999 383.91901 -0.91400611 0.35435936 -0.19754057 0.141772
10.3258 42.537899 383.86401 -0.7773881 0.61489034 -0.13258055 0.12124604
42.280602 48.1954 370.87799 0.3608374 0.8580507 0.36543864 0.10003091
41.2258 48.9967 370.38101 0.26412162 0.96205038 -0.068548255 0.11615992
36.684601 48.232601 367.56799 0.21293198 -0.15899833 -0.96404332 0.096805096
53.069698 34.920799 376.15302 0.8515501 0.51792425 -0.081344247 0.080306925
46.312801 44.805199 366.73901 0.098380096 0.14256649 -0.98488384 0.19259249
31.282301 52.377102 368.43201 -0.10540503 0.94962651 -0.2951259 0.14696003
58.558998 26.975599 374.90799 0.14426239 0.078905694 -0.9863885 0.097329818
11.6144 47.766899 378.08301 -0.98683864 0.15516178 0.045544755 0.12560402
54.035301 33.548 376.185 0.6743837 0.63585323 -0.37536287 0.064446539
17.3461 54.005299 364.79901 -0.21300669 -0.71284646 -0.66819018 0.090096302
19.073099 53.8106 364.58499 -0.18512547 -0.65104312 -0.73611915 0.13001582
64.523003 22.917299 376.15302 0.32296562 0.23824789 -0.91593182 0.10053144
65.611298 21.865 376.23801 0.54262477 0.54916596 -0.63559037 0.088383719
64.413696 24.0242 378.09399 0.68350577 0.69138557 -0.23410662 0.073477149
15.5193 56.538898 366.50601 -0.48537242 0.71937335 -0.49690601 0.12873219
11.1601 44.3787 382.01901 -0.72878927 0.59259051 0.34307826 0.12818471
79.865303 1.90968 383.91101 0.91418856 0.15791544 0.37325856 0.05230109
79.107498 2.7086999 383.91 0.64403069 0.41994363 0.63943088 0.063200414
78.343498 11.5727 378.082 0.48737213 0.86398125 -0.12651032 0.058520813
13.2788 52.243698 368.43201 -0.41895393 -0.71676993 -0.55742133 0.11799338
9.2882996 41.099602 385.80499 -0.57810915 0.71411455 0.39475346 0.095421813
43.870201 45.650002 366.763 -0.34139284 -0.5136407 -0.78716207 0.13197283
42.301899 46.045502 367.08099 -0.14169027 -0.58062083 -0.80175012 0.095319122
38.6301 48.889099 368.44699 0.30450782 0.78629702 -0.53759831 0.12372958
39.4543 49.635799 370.36401 0.48650244 0.86029643 0.15233344 0.13367133
