# .PCD v0.7 - Point Cloud Data file format
VERSION 0.7
FIELDS x y z normal_x normal_y normal_z curvature
SIZE 4 4 4 4 4 4 4
TYPE F F F F F F F
COUNT 1 1 1 1 1 1 1
WIDTH 135
HEIGHT 1
VIEWPOINT 0 0 0 1 0 0 0
POINTS 135
DATA ascii
0.25503001 -0.070001297 -1.66933 -0.85788399 0.51349038 -0.019045953 0
0.260019 -0.0299963 -1.65521 -0.31966183 -0.94753164 0.00033974065 7.5508723e-36
0.26527101 -0.0352 -1.67 -0.22403581 0.8531304 0.47114375 3.7134409e-43
0.244984 -0.044792701 -1.63213 0.96782708 -0.23934826 -0.077609114 0
0.25494 -0.029954599 -1.65534 0.30462134 -0.92975557 -0.20678607 7.5710417e-36
0.244954 -0.047735602 -1.63 0.95246637 -0.26720196 -0.14632463 7.5670813e-36
0.25998399 -0.029463001 -1.66998 0.079780623 -0.99677968 -0.0080806827 7.5536073e-36
0.25994101 -0.029999601 -1.67187 0.27210188 -0.40108043 0.87469715 7.5536073e-36
0.244872 -0.065616898 -1.635 -0.070344307 0.95527256 -0.2872386 3.1529215e-43
0.25497299 -0.069919102 -1.66994 -0.85788399 0.51349038 -0.019045953 7.5687114e-36
0.266498 -0.029663701 -1.66998 -0.30671448 -0.9413808 0.14045781 1.9758308e-43
0.24876501 -0.060021602 -1.62999 -0.04770074 0.88255209 -0.4677889 1.835701e-43
0.24499799 -0.069298998 -1.65636 0.98187131 -0.054485902 0.18154909 0
0.24999 -0.064994603 -1.6723599 0.85895246 -0.16690759 0.48408943 6.7262326e-44
0.249998 -0.059889201 -1.63067 -0.04770074 0.88255209 -0.4677889 6.5020249e-43
0.25591999 -0.029991999 -1.65916 0.4235549 -0.79809374 0.42854127 2.9847657e-43
0.244937 -0.066662997 -1.63994 0.38006824 0.90594262 -0.18659073 7.5513086e-36
0.25035599 -0.0580833 -1.62999 -0.050273802 0.0605588 -0.99689776 7.5522728e-36
0.252951 -0.070022002 -1.65499 -0.43463871 0.86085504 -0.26460874 4.6663239e-43
0.25159699 -0.070006803 -1.67397 -0.11141024 0.71899641 0.68602616 3.671402e-43
0.25488499 -0.029911 -1.65499 0.30462134 -0.92975557 -0.20678607 2.0318828e-43
0.250613 -0.066216201 -1.6399699 -0.82214665 0.54123574 -0.17646164 2.0318828e-43
0.260088 -0.0299831 -1.65499 -0.31966183 -0.94753164 0.00033974065 0
0.257622 -0.0300103 -1.65499 -0.0044121505 -0.99036825 0.13838789 0.0021628069
0.244839 -0.0589086 -1.62998 0.043764453 0.98524934 -0.16543403 0.0017977395
0.25435999 -0.029993599 -1.6499799 -0.0358725 -0.99859631 0.038968507 1.3452465e-43
0.25497499 -0.052989699 -1.6737601 0.83201349 -0.024417965 0.55421782 5.1147394e-43
0.25499499 -0.0294162 -1.64495 -0.0091005163 -0.99390149 -0.10989554 7.5482349e-36
0.24606401 -0.0459054 -1.63 0.73034137 -0.55586398 -0.39700973 0
0.245029 -0.069975004 -1.65494 0.77166343 0.60510677 0.19591157 7.5884108e-36
0.25504199 -0.068988897 -1.67284 -0.46698481 0.74220079 0.48069033 7.5482349e-36
0.25218299 -0.044948 -1.6299599 -0.53678477 -0.32178363 -0.77994704 7.5482349e-36
0.249853 -0.042753398 -1.63 0.4312259 -0.63529843 -0.64065599 5.0727004e-43
0.263926 -0.040474899 -1.66997 -0.78988463 0.59976727 0.12791203 0
0.259812 -0.030188501 -1.665 -0.4528788 -0.88934541 -0.06297265 7.4322352e-36
0.25565401 -0.068850599 -1.6649899 -0.65948266 0.74886167 -0.065489128 7.5468667e-36
0.25709501 -0.029968601 -1.64498 -0.28597829 -0.95534593 -0.074367732 7.5675642e-36
0.249337 -0.066170797 -1.635 -0.43250909 0.65266407 -0.62206548 3.9376487e-43
0.249954 -0.032397699 -1.63999 0.37589404 -0.83814621 -0.39523995 2.6344411e-43
0.25408599 -0.070252702 -1.6649899 -0.47613534 0.87904829 0.023858873 3.9937006e-43
0.25499001 -0.069590203 -1.6649899 -0.65948266 0.74886167 -0.065489128 0
0.25305599 -0.0698146 -1.655 -0.82642692 0.41642353 -0.37895909 2.1019477e-43
0.26160601 -0.0501162 -1.67 -0.99355221 0.070247605 -0.088990286 5.0166485e-43
0.25488999 -0.0428661 -1.67 0.48315459 -0.34527498 0.80457866 2.1019477e-43
0.253968 -0.070772 -1.66 -0.55624926 0.82486343 -0.10093086 2.1019477e-43
0.24989501 -0.067168802 -1.64 -0.026751952 0.96435076 -0.26327166 2.0879347e-43
0.252269 -0.067643501 -1.67497 0.00051594194 -0.19519202 0.98076493 0
0.24739 -0.069474801 -1.665 0.95524025 0.17473036 0.2387162 4.2459343e-43
0.26643401 -0.035004999 -1.6726 -0.22403581 0.8531304 0.47114375 0
0.25940201 -0.030004499 -1.66997 0.079780623 -0.99677968 -0.0080806827 2.0178698e-43
0.25202301 -0.061771799 -1.6744601 0.42060119 0.11052284 0.90048838 0.00068955601
0.25297299 -0.0662788 -1.65 -0.74259394 0.55512637 -0.37468511 3.3631163e-43
0.25502801 -0.0574173 -1.6737601 0.77937192 -0.3021321 0.548904 7.5631123e-36
0.252215 -0.0650011 -1.645 -0.9027676 0.36981782 -0.21964845 7.5476359e-36
0.25476301 -0.038558502 -1.635 -0.070818886 -0.4236936 -0.9030329 3.4471942e-43
0.244986 -0.069212101 -1.64999 0.57098579 0.78210378 -0.24957752 0
0.26496801 -0.037072401 -1.66998 -0.953655 0.28789854 0.087501809 2.1159607e-43
0.255981 -0.040421002 -1.66998 0.44371426 -0.4060359 0.79890704 0
0.25814 -0.029998999 -1.6495399 -0.39551172 -0.88135719 0.25841817 2.704506e-43
0.24499901 -0.069940098 -1.655 0.15164764 0.16664663 -0.9742853 2.1439867e-43
0.259325 -0.034995701 -1.6725301 0.18956625 0.18512255 0.96425843 3.4191683e-43
0.25529799 -0.049843598 -1.67378 0.82518882 -0.13145226 0.54934841 0
0.245349 -0.045688201 -1.635 0.94928747 -0.30607232 0.071924165 2.1860256e-43
0.24999 -0.068425402 -1.67349 0.78157616 -0.023310155 0.62337416 2.2280646e-43
0.24503 -0.050023999 -1.62912 0.95246637 -0.26720196 -0.14632463 3.9796876e-43
0.254971 -0.049893402 -1.67379 0.82518882 -0.13145226 0.54934841 0
0.24341901 -0.0521258 -1.62999 0.96512544 -0.26016024 -0.029145963 0.78395033
0.266761 -0.034355599 -1.6727 -0.22403581 0.8531304 0.47114375 6.7262326e-44
0.25887299 -0.062097501 -1.67 -0.89684665 0.4375113 -0.065191582 2.2140516e-43
0.25943699 -0.035248298 -1.67251 0.18956625 0.18512255 0.96425843 4.0357396e-43
0.25427401 -0.069697998 -1.65999 -0.94147599 0.31006873 -0.13221337 4.6242849e-43
0.25504899 -0.064867303 -1.67266 -0.45713824 -0.13443664 0.87917656 3.3070644e-43
0.249971 -0.072597802 -1.66997 0.75171024 0.59131217 0.29203007 0
0.243279 -0.064667203 -1.64498 0.99770546 0.029924111 0.060732272 2.2140516e-43
0.245974 -0.068860799 -1.65999 0.66626376 0.71838427 0.20004165 2.1860256e-43
0.25886101 -0.031736601 -1.64 -0.026326237 -0.84779209 -0.52967489 0
0.261834 -0.051056702 -1.67247 -0.89018452 0.097353809 0.4450773 2.1860256e-43
0.244386 -0.064713903 -1.65 0.98432875 -0.0097520882 0.17607334 3.7134409e-43
0.25138199 -0.031341899 -1.6449701 0.61755824 -0.68425035 0.38784438 2.2140516e-43
0.24372301 -0.064961098 -1.63499 0.68441224 0.62473989 -0.37587219 4.6803369e-43
0.26241699 -0.031512801 -1.655 -0.30646548 -0.92614716 0.21984158 4.0637655e-43
0.26245999 -0.0405581 -1.665 -0.99081904 0.13164477 -0.030777749 0
0.25283301 -0.0507208 -1.67 0.91120654 0.020873005 0.4114207 2.1579996e-43
0.242411 -0.059512999 -1.635 0.99393344 -0.052785993 -0.096488222 4.568233e-43
0.25935599 -0.043958198 -1.67275 0.13831082 0.35547665 0.9243952 2.2280646e-43
0.25424799 -0.045823399 -1.635 -0.91067433 0.25177115 -0.32754162 9.1925179e-43
0.244996 -0.064993002 -1.65413 0.98744887 -0.046980739 0.15078978 9.8651412e-43
0.25988999 -0.030247901 -1.65996 -0.29118013 -0.93318886 0.21064834 7.5653049e-36
0.24569 -0.044357799 -1.635 0.94928747 -0.30607232 0.071924165 4.8204667e-43
0.248331 -0.069794498 -1.6699899 0.95371228 0.043527059 0.29755381 7.5857139e-36
0.25499201 -0.039845601 -1.6683 0.5842604 -0.65441871 0.47997493 4.8905316e-43
0.264963 -0.030019 -1.66899 -0.30671448 -0.9413808 0.14045781 3.0408177e-43
0.253948 -0.032639202 -1.655 0.82606226 -0.49319687 0.27272335 0
0.259707 -0.0350223 -1.65 -0.98229343 -0.040482707 -0.18292277 2.0178698e-43
0.25114 -0.057600699 -1.67 0.87511384 -0.30437398 0.37620771 1.2331426e-43
0.25992599 -0.0382489 -1.6699899 0.068016782 0.25685641 0.96405315 5.49309e-43
0.249827 -0.072783701 -1.65997 0.052207071 0.99092227 -0.12388469 4.0357396e-43
0.253737 -0.035003301 -1.63855 -0.21151307 -0.5800451 -0.7866447 6.7262326e-44
0.242881 -0.063519001 -1.63998 0.92267579 0.37583327 -0.086132243 0.00024698893
0.25492701 -0.032553598 -1.63999 0.046029598 -0.82798678 -0.55885524 6.7262326e-44
0.24448299 -0.0485566 -1.635 0.98647219 -0.1539485 0.056324802 8.0714792e-43
0.249993 -0.064033903 -1.63498 -0.47316819 0.65854585 -0.58517456 2.2701035e-43
0.244978 -0.067993 -1.64498 0.59209996 0.80295604 -0.068404816 7.5659592e-36
0.249963 -0.0589591 -1.62999 -0.050273802 0.0605588 -0.99689776 3.6994279e-43
0.264247 -0.029981099 -1.67214 -0.30671448 -0.9413808 0.14045781 0
0.264855 -0.034518499 -1.6729 -0.22403581 0.8531304 0.47114375 0
0.260068 -0.045947202 -1.67233 -0.079286948 0.33061397 0.94042969 6.8692784e-06
0.2599 -0.0314596 -1.64499 -0.4335725 -0.89405537 -0.11260486 2.0178698e-43
0.255835 -0.051706702 -1.6737601 0.83201349 -0.024417965 0.55421782 2.0178698e-43
0.254785 -0.070010103 -1.66998 -0.85788399 0.51349038 -0.019045953 0.00091511727
0.24998701 -0.072228096 -1.6649899 -0.22799945 0.97344601 0.02047373 6.7262326e-44
0.26096201 -0.0419834 -1.6725 -0.52019906 -0.1459529 0.84148127 0.00013298693
0.25496599 -0.044946801 -1.67149 0.36721855 -0.19223069 0.91005379 1.3452465e-43
0.264231 -0.032130901 -1.665 -0.65685886 -0.60594773 -0.4487358 2.0178698e-43
0.24966501 -0.069213502 -1.64999 -0.27952555 0.90114766 -0.33135843 2.6904931e-43
0.265039 -0.0299643 -1.67187 -0.30671448 -0.9413808 0.14045781 0.004428362
0.248945 -0.0351322 -1.63999 0.67440355 0.57338917 -0.46519324 2.2000386e-43
0.25992301 -0.0340169 -1.64999 -0.9916085 -0.013224699 -0.12859917 2.0178698e-43
0.249834 -0.068243101 -1.64498 -0.32791394 0.92600155 -0.18706566 0
0.257974 -0.0650694 -1.67 -0.91183668 0.40644291 0.057948101 0.35851869
0.24996901 -0.070054904 -1.6733201 0.67280805 0.39600644 0.6249066 2.5559684e-42
0.26634401 -0.0306332 -1.67 -0.30671448 -0.9413808 0.14045781 5.3809861e-43
0.249843 -0.071209699 -1.65496 0.0049045072 0.87824613 -0.47818372 4.2599473e-43
0.26256201 -0.045993499 -1.67 -0.98151022 -0.10647839 0.15905994 0
0.26299801 -0.0324127 -1.65999 -0.97440958 -0.11481607 -0.19324398 5.2268433e-43
0.25986701 -0.0298487 -1.65499 -0.045964018 -0.051545776 0.9976123 4.7924407e-43
0.254558 -0.0300563 -1.64999 -0.0358725 -0.99859631 0.038968507 0
0.25240499 -0.049330998 -1.62999 -0.51027405 -0.15956342 -0.84507984 0
0.25389099 -0.057761401 -1.67449 0.77937192 -0.3021321 0.548904 5.2128303e-43
0.26124299 -0.0317594 -1.64999 -0.9549948 -0.040632989 -0.29382631 0
0.24529 -0.064986303 -1.65499 0.98744887 -0.046980739 0.15078978 2.3962204e-43
0.25721601 -0.039065901 -1.63999 -0.85915124 -0.48793113 -0.15421531 4.2179084e-43
0.249878 -0.0387104 -1.63499 -0.032251306 -0.79071891 -0.61132926 0
0.264936 -0.029170901 -1.66998 -0.30671448 -0.9413808 0.14045781 2.3962204e-43
0.26486799 -0.035016499 -1.67265 -0.22403581 0.8531304 0.47114375 1.4573504e-43
