# .PCD v0.7 - Point Cloud Data file format
VERSION 0.7
FIELDS x y z normal_x normal_y normal_z curvature
SIZE 4 4 4 4 4 4 4
TYPE F F F F F F F
COUNT 1 1 1 1 1 1 1
WIDTH 30
HEIGHT 1
VIEWPOINT 0 0 0 1 0 0 0
POINTS 30
DATA ascii
19.8088 -7.6615701 412.814 0.087613568 0.31498069 0.94504553 6.2543229e-05
21.4424 -8.8918695 412.814 0.27654955 0.27412021 0.92107463 0.0032449188
23.124701 -11.3464 412.57501 0.11364429 0.00024511904 0.99352145 0.0055887317
25.127199 -11.1028 412.81299 -0.024459245 0.13028388 0.991175 0.0016360283
24.177799 -10.7611 412.802 0.043521192 0.061946753 0.99713016 0.0059202858
23.434099 -11.6551 412.54501 -0.10496792 0.17562531 0.978845 0.0062154443
25.0138 -9.6744003 412.29901 0.043012191 0.28100806 0.95874107 0.0080611724
23.1737 -12.9945 412.81699 0.3203634 0.16847786 0.93219233 0.0063626324
21.940901 -10.0567 412.79901 0.20403706 0.060984515 0.97706181 0.0032734044
15.3931 -9.6723099 415.44199 0.83278811 0.38395631 0.39880008 0.019563526
15.5641 -9.5471897 414.811 0.75463957 0.46723661 0.46066156 0.029801926
15.9399 -10.0023 414.73099 0.74446249 0.48821494 0.45543581 0.028032923
22.9396 -11.7571 412.63199 0.055488314 0.11353903 0.99198282 0.010353174
15.4138 -7.8831201 414.05801 0.68449086 0.30258676 0.6632598 0.04330701
19.4084 -7.8870802 412.80499 0.083042949 0.33091462 0.9399997 0.0040833508
15.0471 -7.73314 414.73401 0.90043283 0.19646922 0.38809869 0.022795655
17.843599 -7.7422199 412.67099 -0.014583244 0.31931886 0.9475351 0.013290428
17.340099 -7.7355599 412.759 0.14988407 0.32452151 0.93392748 0.012080772
17.366899 -7.8905201 412.81201 0.037933666 0.34510374 0.93779767 0.013088826
17.1875 -7.7427001 412.81299 0.46314165 0.33066151 0.8222912 0.013064579
22.4144 -11.7311 412.80301 0.35915771 0.21074976 0.90917009 0.0094974162
18.447901 -9.6701899 413.39401 -0.0026794791 0.35288033 0.93566465 0.020137936
17.237301 -9.70366 413.56799 0.43191555 0.40817785 0.80426347 0.020473542
21.207199 -7.8180099 412.29999 0.27364796 0.33951619 0.89991421 0.0045299991
23.254101 -13.5142 413.099 0.2073328 0.30140057 0.93068296 0.0035027666
21.165899 -9.6990499 413.065 0.29396945 0.22719176 0.9284212 0.0076179178
23.093599 -13.5318 413.11801 0.37628406 0.30195394 0.87591898 0.00609477
23.340401 -7.77075 411.72501 0.16246741 0.39107597 0.90590501 0.0039574639
23.0835 -7.7505798 411.69901 0.19428295 0.38387316 0.90271562 0.0039766724
21.1117 -11.5764 413.40302 0.41869149 0.21405166 0.88254142 0.0024345948
