# .PCD v0.7 - Point Cloud Data file format
VERSION 0.7
FIELDS x y z normal_x normal_y normal_z curvature
SIZE 4 4 4 4 4 4 4
TYPE F F F F F F F
COUNT 1 1 1 1 1 1 1
WIDTH 253
HEIGHT 1
VIEWPOINT 0 0 0 1 0 0 0
POINTS 253
DATA ascii
0.192469 -0.0374864 -1.34001 0.29992613 -0.23801114 0.92379379 0
0.195112 -0.052506901 -1.32499 -0.81020492 0.57787102 0.098148182 7.5508723e-36
0.187425 -0.052482601 -1.32999 0.8669017 0.028670514 -0.4976539 7.5710417e-36
0.19248401 -0.044955801 -1.32248 0.8662836 -0.14016008 -0.47948706 7.5536073e-36
0.194902 -0.034998301 -1.32749 -0.24049744 -0.96498722 0.10469335 7.5505739e-36
0.19480599 -0.039834801 -1.32249 -0.27670223 -0.92135918 -0.27300748 7.5536073e-36
0.20022701 -0.0349808 -1.32999 -0.88616586 -0.20946237 -0.41332266 7.5602195e-36
0.192535 -0.052545901 -1.33763 -0.86769146 0.33357173 0.36856675 3.1529215e-43
0.19247299 -0.047617201 -1.32249 0.29802412 0.30637345 -0.90405583 0
0.19790199 -0.0274754 -1.33249 -0.19965018 -0.84642947 -0.49365678 7.5660941e-36
0.18749601 -0.041232999 -1.33874 0.75745356 -0.220413 0.61455852 2.0739217e-43
0.202503 -0.0325156 -1.33395 -0.91036922 0.37205982 -0.18110587 0
0.192333 -0.055449501 -1.3275 0.070635252 0.95913923 -0.27397564 2.9567398e-43
0.19000401 -0.0524952 -1.32769 0.62365007 0.31843269 -0.71390563 0
0.190027 -0.0550045 -1.34085 -0.74361414 0.27227172 0.61066043 1.9898438e-43
0.20044801 -0.042431999 -1.3225 -0.97716051 0.1605715 0.13919115 1.835701e-43
0.19497301 -0.034810401 -1.3401901 0.45589662 -0.2940183 0.84006637 0
0.189961 -0.037484702 -1.33841 0.96038407 -0.20097065 0.19306275 3.9937006e-43
0.1955 -0.039983101 -1.32248 -0.41749394 -0.79517728 -0.43976349 7.5459046e-36
0.191055 -0.0405664 -1.34 0.28821385 -0.11044951 0.95117491 1.779649e-43
0.187308 -0.0445223 -1.3375 0.94078636 -0.28767791 -0.17933887 2.9847657e-43
0.197515 -0.038256899 -1.3404599 -0.79950821 0.35395637 0.48528495 7.442119e-36
0.20252199 -0.0300149 -1.3382601 -0.98087859 0.11261068 0.15873274 7.5522728e-36
0.1875 -0.059925601 -1.3326401 0.12256011 0.34152853 -0.93184614 7.442119e-36
0.197457 -0.0274246 -1.3325 -0.19965018 -0.84642947 -0.49365678 7.560825e-36
0.18249699 -0.057583299 -1.33903 0.66870838 0.57384837 0.47278658 4.6663239e-43
0.18498801 -0.0576405 -1.34021 0.25086397 0.25484213 0.93387514 3.671402e-43
0.192416 -0.032395799 -1.3375 0.83198535 -0.53132343 -0.15967399 2.0318828e-43
0.18745799 -0.053514201 -1.32999 0.8669017 0.028670514 -0.4976539 2.0318828e-43
0.194942 -0.029118501 -1.335 0.88965654 -0.45229572 -0.062767878 0
0.19998699 -0.032508899 -1.33091 -0.69290513 -0.28668079 -0.66158646 0.0021628069
0.189974 -0.0606439 -1.3325 0.20096317 0.96651399 -0.15957592 0.0017977395
0.19251201 -0.032519601 -1.33672 0.83198535 -0.53132343 -0.15967399 1.3452465e-43
0.185001 -0.050180402 -1.33825 0.91539961 -0.31302604 -0.25309736 3.3631163e-43
0.18244199 -0.057616401 -1.3374799 0.75943828 -0.0033311902 -0.65057081 7.5621136e-36
0.18960901 -0.0569309 -1.34 -0.83400381 0.39607769 0.38413548 7.5482349e-36
0.200561 -0.0296665 -1.3325 -0.71387607 -0.28913009 -0.63779676 3.657389e-43
0.197486 -0.027407801 -1.3383 0.25966018 -0.55877537 0.7876209 0
0.192514 -0.0478434 -1.34191 -0.82663399 0.26549888 0.49617195 7.5884108e-36
0.18749499 -0.044895701 -1.3405 0.34147218 -0.23872219 0.90907013 7.5521588e-36
0.19749799 -0.035546999 -1.3286 -0.47646472 -0.10047811 -0.87343317 7.5482349e-36
0.18496799 -0.0496163 -1.34049 0.73103631 -0.27787179 0.62319595 7.4419676e-36
0.19728599 -0.029147699 -1.33 0.10773823 -0.74593031 -0.65725219 7.5472226e-36
0.194921 -0.052567098 -1.32498 -0.23191023 0.79839617 -0.55568081 7.5482349e-36
0.19499101 -0.029961601 -1.33778 0.80572587 -0.46793488 0.36310163 7.5482349e-36
0.18876 -0.057541199 -1.3405499 -0.26261824 0.29860061 0.91753435 7.5473603e-36
0.199947 -0.0275406 -1.33329 -0.40826887 -0.64603239 -0.64494854 7.5621136e-36
0.193753 -0.055006601 -1.32749 -0.56595868 0.77354991 -0.28515133 0
0.197486 -0.0400123 -1.32599 -0.63903892 -0.69277972 -0.33419377 7.5233224e-36
0.187548 -0.0549905 -1.3305 0.46624431 0.31724802 -0.82581472 7.5621136e-36
0.19734 -0.0391104 -1.3375 -0.91936737 0.3779121 0.10929785 7.5675642e-36
0.20000499 -0.037506402 -1.33183 -0.98618966 0.045403428 0.15927477 0
0.198477 -0.039969198 -1.32749 -0.55777454 -0.61310905 -0.55945045 2.0879347e-43
0.19244701 -0.032452099 -1.33833 0.53886259 -0.51161945 0.66923285 0
0.192444 -0.052303798 -1.32499 0.15343381 0.3212302 -0.93448877 2.1019477e-43
0.201399 -0.032341499 -1.33249 -0.81738448 -0.32099995 -0.47837391 5.0166485e-43
0.18997499 -0.042419001 -1.34007 0.17361467 -0.18726611 0.96684504 2.1019477e-43
0.188934 -0.0425473 -1.34 0.2938593 -0.32864785 0.89757299 2.718519e-43
0.190247 -0.060442701 -1.33249 0.12166504 0.99170399 -0.041482843 2.1019477e-43
0.199783 -0.031369999 -1.34 -0.82309449 -0.28921789 0.4887417 2.0879347e-43
0.194967 -0.044321399 -1.34 -0.78262401 0.33524814 0.5245077 0
0.204494 -0.0283815 -1.335 -0.62780517 -0.4538624 -0.63235241 2.0178698e-43
0.20247801 -0.0305124 -1.3375 -0.7818073 0.54349864 0.30559215 0.00068955601
0.199995 -0.042153999 -1.32249 -0.97716051 0.1605715 0.13919115 4.0357396e-43
0.200167 -0.0326587 -1.3408 -0.7673189 0.5575614 0.31677601 7.5631123e-36
0.190018 -0.0575138 -1.33808 -0.88017887 0.36788934 0.29990429 0
0.18493199 -0.0591393 -1.33494 0.74844784 0.57947505 -0.32254383 7.5485657e-36
0.182393 -0.057463899 -1.3375 0.75943828 -0.0033311902 -0.65057081 7.5862642e-36
0.19749901 -0.042571399 -1.32127 -0.26426002 -0.19001347 -0.94554824 2.1159607e-43
0.20202699 -0.0326082 -1.335 -0.88448507 0.44407299 0.14312689 4.2599473e-43
0.194915 -0.0486756 -1.3224699 0.10638335 0.2605108 -0.95959193 0
0.200836 -0.036228299 -1.33 -0.96672261 -0.10739634 0.23219256 2.704506e-43
0.187387 -0.0594665 -1.3325 0.23947906 0.32125232 -0.91621327 2.1439867e-43
0.18343499 -0.054635901 -1.34 0.448796 -0.040618349 0.89271063 2.1439867e-43
0.19250301 -0.050019398 -1.3404599 -0.85533851 0.27287203 0.44038266 2.1019477e-43
0.197483 -0.029960699 -1.3395801 -0.096244991 -0.45331031 0.88614142 3.4191683e-43
0.19248 -0.050753601 -1.34 -0.85403395 0.38171238 0.35344261 0
0.187498 -0.0585934 -1.3401999 -0.14822675 0.35095274 0.92458695 2.2280646e-43
0.19244 -0.033318199 -1.335 0.9253813 -0.31152728 -0.21591701 2.1579996e-43
0.194171 -0.035569198 -1.34 0.36188847 -0.26960394 0.89238471 3.9796876e-43
0.20001499 -0.042500202 -1.32471 -0.85812259 0.51095808 0.050472606 6.7262326e-44
0.205015 -0.0272574 -1.33716 -0.45531023 -0.87271231 -0.17625508 0.93348145
0.197497 -0.037753001 -1.32828 -0.65660834 -0.24919763 -0.71187502 0
0.192385 -0.047424302 -1.32249 0.29802412 0.30637345 -0.90405583 4.0357396e-43
0.18998399 -0.061407 -1.335 -0.38057193 0.92474312 0.0038986597 7.3252813e-36
0.202885 -0.029101299 -1.33952 -0.97021574 -0.12566565 0.20709808 2.1720126e-43
0.187429 -0.0551464 -1.3403701 0.068502501 0.10962486 0.99160969 1.1210388e-43
0.183375 -0.0566765 -1.34 0.39053535 0.17180061 0.90441513 0
0.200232 -0.0450087 -1.3215801 -0.70510906 0.21660021 0.67520779 2.2140516e-43
0.18984801 -0.048175201 -1.32748 0.87893677 -0.12118615 -0.4612852 2.2140516e-43
0.195594 -0.0327725 -1.34 0.4479607 -0.31308767 0.83744091 0
0.19506501 -0.043458302 -1.34049 -0.78262401 0.33524814 0.5245077 0
0.188961 -0.058459099 -1.34 -0.26261824 0.29860061 0.91753435 2.2140516e-43
0.19723 -0.026795199 -1.3375 0.34226918 -0.84419101 0.41254494 7.5595752e-36
0.19211601 -0.032906398 -1.33749 0.99972922 -0.01356056 -0.018910132 0
0.19230001 -0.037596799 -1.33998 0.34978813 -0.27805403 0.89461398 1.5414283e-43
0.185583 -0.057319999 -1.3325 0.70689476 0.24749503 -0.66260546 4.0637655e-43
0.190062 -0.0578949 -1.3375 -0.87660384 0.37659711 0.29956681 2.2140516e-43
0.184985 -0.053600401 -1.34086 0.28302112 -0.037315492 0.95838749 2.3541814e-43
0.183699 -0.055096101 -1.3375 0.8375476 -0.49158064 -0.23845862 2.2140516e-43
0.19967601 -0.033821899 -1.34 -0.7673189 0.5575614 0.31677601 2.3541814e-43
0.198075 -0.029819399 -1.32999 -0.52021849 -0.28701919 -0.8043586 0
0.186211 -0.047708899 -1.3375 0.95182729 -0.20652327 -0.22665611 2.2280646e-43
0.194719 -0.052498002 -1.3249201 -0.23191023 0.79839617 -0.55568081 9.1925179e-43
0.202783 -0.030086 -1.33749 -0.70762658 0.64515084 0.28817528 4.8204667e-43
0.19047099 -0.0550781 -1.34 -0.86617178 0.38346532 0.32046974 0
0.187456 -0.060074098 -1.3397 -0.36858904 0.65030485 0.66426331 7.5556263e-36
0.197449 -0.030512 -1.33998 -0.10097131 -0.44718477 0.88872415 7.5857139e-36
0.196908 -0.050016101 -1.32249 0.031574506 0.5809539 -0.8133238 4.8905316e-43
0.194823 -0.035154801 -1.3275 0.5460394 -0.41663045 -0.72681504 3.0408177e-43
0.19747999 -0.049396198 -1.32249 -0.34314081 -0.47483087 -0.81042582 3.3771293e-43
0.20247599 -0.027512901 -1.33495 -0.37566659 -0.42506751 -0.8235243 2.5643762e-43
0.19243699 -0.039853301 -1.3405499 0.18368222 -0.11953025 0.9756912 2.0178698e-43
0.18720999 -0.059504099 -1.34 -0.14822675 0.35095274 0.92458695 0.00011049562
0.202452 -0.032018799 -1.33496 -0.80210549 0.59046537 0.089316234 6.7262326e-44
0.18857799 -0.040354099 -1.33749 0.83365381 -0.51531786 -0.19866765 0.00024698893
0.192404 -0.052935299 -1.33749 -0.8854059 0.42265156 0.19344772 5.859237e-05
0.19290701 -0.0325353 -1.335 0.85379761 -0.48380521 -0.19225539 8.0714792e-43
0.195531 -0.0474669 -1.322 -0.010392669 0.091687366 -0.99573362 2.2701035e-43
0.197465 -0.0261668 -1.33499 0.31934276 -0.93142194 -0.17456624 7.4897931e-36
0.18587001 -0.059735801 -1.335 0.66685432 0.69970852 -0.25634593 7.5659592e-36
0.194666 -0.045190498 -1.34 -0.78262401 0.33524814 0.5245077 3.6994279e-43
0.198965 -0.032240801 -1.33 -0.6850968 -0.28247476 -0.67145389 0
0.189972 -0.0399088 -1.33956 0.70647085 -0.32589906 0.62824261 0.0010775309
0.19916999 -0.033750299 -1.34122 -0.32944304 0.31004825 0.89181691 0
0.187898 -0.059987999 -1.3325 0.12256011 0.34152853 -0.93184614 2.0178698e-43
0.199627 -0.041125599 -1.32749 -0.90017623 0.13967599 0.41252074 6.8692784e-06
0.18542799 -0.0598008 -1.3375 0.70360184 0.70928037 0.04319521 1.3592595e-43
0.20042901 -0.037911799 -1.32999 -0.97741789 0.15976383 0.13831048 1.3592595e-43
0.18965501 -0.038542099 -1.3375 0.87019783 -0.33791947 0.35856128 3.6994279e-43
0.193701 -0.037760802 -1.3275 0.84036934 -0.35175058 -0.41237232 4.0357396e-43
0.19995999 -0.0300429 -1.33184 -0.69218659 -0.24977455 -0.6771192 0.033488512
0.196733 -0.0401996 -1.34 -0.32889116 0.29883695 0.89583874 0.00091511727
0.18488801 -0.055138201 -1.3405499 0.087531731 0.12817958 0.98788065 0.78144652
0.19998699 -0.038785201 -1.33 -0.94360483 0.29172841 0.15653887 0.00013298693
0.189918 -0.044971202 -1.34092 0.15787213 -0.27845994 0.947384 1.3452465e-43
0.18997 -0.0422405 -1.33998 0.17361467 -0.18726611 0.96684504 0.78450489
0.202563 -0.0274731 -1.33848 -0.353158 -0.50568986 0.78711957 0.85404783
0.204541 -0.027109301 -1.3375 -0.45531023 -0.87271231 -0.17625508 0
0.189674 -0.047492798 -1.34146 0.14112504 -0.17574711 0.97426724 2.0178698e-43
0.18998601 -0.049867202 -1.34185 0.11827802 -0.00015466176 0.99298048 0.94990921
0.199983 -0.034546498 -1.33 -0.5613057 -0.25077385 -0.78870046 0.004428362
0.20247 -0.027399501 -1.335 -0.38390657 -0.60208321 -0.70007968 0.0055980785
0.182494 -0.055943701 -1.33957 0.93096977 -0.36390698 -0.029443573 4.0637655e-43
0.196477 -0.036632001 -1.3275 -0.36227053 -0.063348845 -0.92991775 0.78188068
0.194977 -0.039245699 -1.34094 -0.39357483 -0.0046886853 0.91928065 2.2140516e-43
0.18395001 -0.052476998 -1.34 0.98214781 -0.17948262 0.056317501 0
0.187481 -0.047457099 -1.34105 0.40103227 -0.16584077 0.90092731 2.5559684e-42
0.19599 -0.040059999 -1.34073 -0.28038222 0.47940758 0.83159739 5.3809861e-43
0.18731099 -0.052540101 -1.3409899 0.10018578 0.2145603 0.97155887 7.5568094e-36
0.19735 -0.0389846 -1.3275 -0.79339552 -0.4507865 -0.40904173 4.2599473e-43
0.19769201 -0.0350057 -1.3413399 -0.40867126 0.095641345 0.90765661 0
0.192551 -0.052716799 -1.33749 -0.86275971 0.42785403 0.26941904 0
0.192252 -0.056295399 -1.32999 -0.45760861 0.88649625 0.068693146 5.2268433e-43
0.197301 -0.034919899 -1.3414 -0.40867126 0.095641345 0.90765661 0
0.192416 -0.0477034 -1.3419 -0.82663399 0.26549888 0.49617195 4.7924407e-43
0.192367 -0.034959 -1.33902 0.57872885 -0.28087136 0.76562667 2.3822074e-43
0.194938 -0.034411602 -1.34 0.45589662 -0.2940183 0.84006637 0
0.19252799 -0.047485299 -1.3223701 0.29802412 0.30637345 -0.90405583 2.3822074e-43
0.19749901 -0.0352562 -1.3413399 -0.49120691 0.47026095 0.73319191 0
0.204429 -0.027612001 -1.3375 -0.45531023 -0.87271231 -0.17625508 5.2128303e-43
0.19498999 -0.0323673 -1.33915 0.3331455 -0.41779172 0.84525979 0
0.19998699 -0.0364535 -1.32974 -0.96672261 -0.10739634 0.23219256 2.3962204e-43
0.192706 -0.047494601 -1.34185 -0.82663399 0.26549888 0.49617195 0
0.200014 -0.0410772 -1.3269399 -0.82863414 0.14556573 0.54053313 1.4573504e-43
0.18998399 -0.0580444 -1.3375 -0.87660384 0.37659711 0.29956681 0
0.200808 -0.0322586 -1.34 -0.79454088 0.10634426 -0.59782583 2.4102334e-43
0.18914901 -0.060001299 -1.33749 -0.76321042 0.47130698 0.44201759 1.4012985e-43
0.19485199 -0.029544201 -1.3375 0.74999809 -0.65232068 0.10945608 2.4242463e-43
0.190612 -0.059896301 -1.335 -0.89865392 0.43615681 -0.046779517 6.5861028e-44
0.19489799 -0.0387129 -1.32499 -0.098063104 -0.92780679 -0.35994196 5.8153886e-43
0.19672801 -0.040559899 -1.3375 -0.92371047 0.36626372 0.11229374 0
0.190484 -0.060402799 -1.335 -0.89865392 0.43615681 -0.046779517 3.0828566e-44
0.194434 -0.040402699 -1.32248 0.77703142 -0.51668948 -0.3595193 3.2930514e-43
0.1938 -0.044980802 -1.34128 -0.53246313 0.43722737 0.72478634 0
0.20179 -0.034264602 -1.33249 -0.85876656 -0.11118975 -0.50015676 3.629363e-43
0.18478701 -0.058311801 -1.34 0.45484543 0.73425084 0.50397557 0
0.199544 -0.045034099 -1.32249 -0.87269348 0.28076279 0.39947262 0.00033666301
0.190207 -0.052541699 -1.34153 -0.6822809 0.1461969 0.71632344 0
0.199967 -0.044287201 -1.32248 -0.70510906 0.21660021 0.67520779 3.3631163e-43
0.194167 -0.0302823 -1.33499 0.82900816 -0.53505564 -0.16266823 3.1949605e-43
0.19687 -0.027595101 -1.33249 0.58908397 -0.70862621 -0.38836706 6.1096613e-43
0.192499 -0.044855502 -1.3411 -0.13898428 -0.27842423 0.95034903 0
0.187534 -0.057491198 -1.3317 0.41231552 0.35692605 -0.83821219 7.583522e-36
0.18806501 -0.060021199 -1.33969 -0.58371383 0.56773287 0.58048046 7.539568e-36
0.20024499 -0.0324964 -1.34076 -0.79454088 0.10634426 -0.59782583 2.6764801e-43
0.19011299 -0.052395601 -1.3275 0.66559058 0.3358469 -0.6664803 0
0.19047301 -0.0357644 -1.3375 0.73175275 -0.6630345 -0.15787089 7.5853932e-36
0.201664 -0.027474999 -1.33872 0.0060662846 -0.53620726 0.84406453 7.539568e-36
0.19499101 -0.037408002 -1.34082 0.28266573 -0.10974108 0.95292026 2.2841165e-43
0.196008 -0.051036701 -1.32499 -0.85839367 0.48379233 0.17060272 0
0.198865 -0.040773202 -1.32999 -0.87732065 0.47296232 0.081333503 7.5527923e-36
0.194864 -0.040033001 -1.3407 -0.073267795 0.67946243 0.73004287 0
0.184494 -0.059177 -1.3375 0.54976207 0.82645607 0.12137533 7.5543068e-36
0.196894 -0.037997 -1.34129 -0.2720983 0.14423467 0.95139837 7.5527923e-36
0.20377401 -0.030032501 -1.335 -0.9468869 0.14429265 0.28737581 7.5551793e-36
0.189904 -0.051915601 -1.32749 0.78366089 0.28996789 -0.54935801 0
0.19441199 -0.030064501 -1.3375 0.97794962 -0.13303837 0.16098234 5.0446745e-44
0.191466 -0.0577715 -1.33249 -0.92010623 0.37512389 0.11263465 2.2000386e-43
0.18696 -0.0454797 -1.3375 0.93853056 -0.34205675 -0.046449624 0
0.20009699 -0.033017199 -1.34 -0.79454088 0.10634426 -0.59782583 7.5678641e-36
0.189955 -0.052614301 -1.34147 -0.6822809 0.1461969 0.71632344 7.4903671e-36
0.18496101 -0.052497301 -1.34074 0.25851107 -0.05838849 0.9642421 7.5410488e-36
0.193598 -0.040263899 -1.325 0.81454921 -0.49286085 -0.30593759 7.4814928e-36
0.199967 -0.042396899 -1.32499 -0.91293973 0.39914551 0.084993601 7.5410488e-36
0.202492 -0.0256692 -1.33746 -0.20556907 -0.57921821 0.78882676 7.5548579e-36
0.19002999 -0.060593501 -1.33561 -0.34108371 0.85746181 0.38525471 7.5410488e-36
0.201951 -0.0299711 -1.33946 -0.25244951 0.87158495 0.42024869 4.8765187e-43
0.191589 -0.054940201 -1.3275 0.070635252 0.95913923 -0.27397564 7.5840845e-36
0.19661701 -0.027784299 -1.3375 0.57316566 -0.71515119 0.40004987 0
0.19297899 -0.055282298 -1.32999 -0.87754613 0.47835654 0.03298156 7.5550767e-36
0.189972 -0.055015702 -1.34086 -0.74361414 0.27227172 0.61066043 7.5853365e-36
0.18829399 -0.054857899 -1.33 0.56057155 0.34086999 -0.75469679 7.5410488e-36
0.201224 -0.0350601 -1.33249 -0.93064159 0.36514363 -0.024008557 2.9427268e-43
0.19993401 -0.029999999 -1.33948 -0.06535539 -0.25629857 0.96438569 0
0.193675 -0.0475486 -1.34 -0.80875659 0.33341274 0.48450872 7.5855316e-36
0.18749601 -0.061599001 -1.3374799 0.12405173 0.94097823 0.31491452 7.5597832e-36
0.192669 -0.0502294 -1.34 -0.91265577 0.2176716 0.34594586 7.4167265e-36
0.19689 -0.039648399 -1.34 -0.36010838 0.43066093 0.82755852 2.0879347e-43
0.197465 -0.040200401 -1.325 -0.61621958 -0.7116825 -0.33731502 0
0.19146299 -0.052700501 -1.34 -0.77779853 0.35324854 0.51985085 7.5469378e-36
0.187407 -0.061451498 -1.33499 0.17868629 0.92822212 -0.32630494 7.4322352e-36
0.19219001 -0.042447601 -1.34049 0.283676 -0.11394443 0.95212638 7.5690701e-36
0.197496 -0.032440901 -1.34091 0.25413156 -0.27870286 0.92614353 0
0.189944 -0.056646101 -1.33 0.26482162 0.56036371 -0.78476876 0
0.187178 -0.051829699 -1.3411 0.12589473 0.0537377 0.99058712 6.7262326e-44
0.189954 -0.050022598 -1.34184 0.12988251 0.023498822 0.99125087 6.0816353e-43
0.19996101 -0.0260281 -1.33749 0.15802979 -0.92707229 0.33994639 7.5860941e-36
0.195655 -0.0278004 -1.33499 0.75002736 -0.66127545 -0.013182746 2.774571e-43
0.19177701 -0.0500383 -1.34184 -0.062958799 0.94759035 0.31322318 2.4662853e-43
0.196484 -0.030022001 -1.33 0.66831207 -0.53526372 -0.51657701 7.5467197e-36
0.19647001 -0.0349271 -1.32749 -0.36227053 -0.063348845 -0.92991775 7.562458e-36
0.197493 -0.041512299 -1.3225 -0.38473427 -0.80624509 -0.44938669 7.5718941e-36
0.18454801 -0.049710501 -1.34 0.95428592 -0.27826568 0.10911753 3.4612072e-43
0.192495 -0.037431698 -1.34 0.29992613 -0.23801114 0.92379379 7.5481201e-36
0.185018 -0.0551139 -1.3337801 0.85275507 -0.22532679 -0.47120765 7.5718941e-36
0.191155 -0.055251502 -1.3375 -0.86341643 0.40374926 0.3024874 7.4955788e-36
0.20059 -0.042534299 -1.32249 -0.97716051 0.1605715 0.13919115 5.7172977e-43
0.197047 -0.039934698 -1.32499 -0.50836962 -0.79132289 -0.33965924 2.746545e-43
0.18627501 -0.047340799 -1.34 0.6517328 -0.63836843 0.40954867 2.704506e-43
0.185992 -0.047563899 -1.33996 0.6517328 -0.63836843 0.40954867 2.760558e-43
0.198524 -0.035806298 -1.34 -0.62825555 0.38163954 0.67797214 2.760558e-43
0.187388 -0.044456799 -1.34 0.86019921 -0.4990842 0.10474858 7.4472388e-36
0.19997101 -0.0283466 -1.33249 -0.2916075 -0.44458032 -0.84694356 7.5725484e-36
0.190035 -0.0549937 -1.32865 0.54570681 0.39887425 -0.73695546 0
0.199067 -0.0274735 -1.33857 0.18250068 -0.57385427 0.7983638 2.746545e-43
0.199751 -0.026449 -1.335 -0.24030302 -0.9151538 -0.32364795 0
0.19253901 -0.049992699 -1.3240499 0.74900132 0.3178269 -0.58136308 7.5856579e-36
0.198276 -0.0324798 -1.34086 -0.081793256 -0.44136262 0.89359325 4.2879733e-43
0.191526 -0.0499174 -1.32499 0.81025535 0.18730941 -0.55533898 0
0.18765301 -0.0435443 -1.3375 0.9945268 -0.096550032 -0.03993221 4.3159993e-43
0.1875 -0.049110901 -1.34135 0.3607198 -0.11063003 0.92608976 0
0.192496 -0.047442202 -1.34187 -0.82663399 0.26549888 0.49617195 1.5134023e-43
