# .PCD v0.7 - Point Cloud Data file format
VERSION 0.7
FIELDS x y z normal_x normal_y normal_z curvature
SIZE 4 4 4 4 4 4 4
TYPE F F F F F F F
COUNT 1 1 1 1 1 1 1
WIDTH 17
HEIGHT 1
VIEWPOINT 0 0 0 1 0 0 0
POINTS 17
DATA ascii
54.0005 -54.019901 406.15799 -0.092955984 -0.69098479 -0.71686763 0.08581055
54.042099 -54.025002 406.05899 -0.092955984 -0.69098479 -0.71686763 0.085544668
52.448799 -53.695301 407.03 -0.035161529 -0.97738045 -0.2085451 0.084967285
59.998699 -52.687801 408.97601 0.30294228 -0.59050047 0.74802083 0.085725479
55.905102 -52.1791 404.73599 -0.23041087 -0.65617293 -0.71857351 0.043273073
58.659302 -52.759701 408.948 0.44973215 -0.6356703 0.62742674 0.09000878
58.0784 -52.938499 407.01401 0.043442823 -0.99258876 0.11349142 0.095948257
52.534599 -53.499001 409.00699 0.095687583 -0.98568094 0.13884161 0.090508156
54.045502 -53.040901 410.948 0.31684858 -0.70860314 0.630467 0.059887566
54.047001 -53.291401 408.952 0.13360706 -0.97674513 0.16768442 0.06630969
56.489799 -52.952599 408.94901 0.22137325 -0.90418577 0.36529717 0.097732767
52.3092 -53.200901 410.87799 0.12461004 -0.95761383 0.25970763 0.072534643
56.090599 -53.256199 407.01801 0.25162837 -0.96581024 -0.062399529 0.12029473
54.1236 -53.603802 407.06699 0.10645431 -0.96911514 -0.22244854 0.088687636
57.905899 -53.087601 405.20001 -0.017233394 -0.96777636 -0.25122088 0.070556045
56.227699 -53.266399 405.086 -0.096805759 -0.67012906 -0.73590469 0.070345119
59.823101 -52.884201 407.095 0.15505029 -0.91102445 0.38209143 0.13158818
