# .PCD v0.7 - Point Cloud Data file format
VERSION 0.7
FIELDS x y z normal_x normal_y normal_z curvature
SIZE 4 4 4 4 4 4 4
TYPE F F F F F F F
COUNT 1 1 1 1 1 1 1
WIDTH 199
HEIGHT 1
VIEWPOINT 0 0 0 1 0 0 0
POINTS 199
DATA ascii
0.229963 0.18529999 -1.5700001 -0.62720829 0.75316983 0.19835562 0
0.21407899 0.129969 -1.57999 0.38137555 -0.90164399 0.20393835 1.9478049e-43
0.214791 0.134949 -1.56998 -0.22573954 -0.75491893 0.61574268 4.2879733e-43
0.235008 0.14993 -1.54 0.8456459 -0.46684536 -0.25872463 3.1669345e-43
0.235009 0.179997 -1.57573 0.9555738 -0.22616427 -0.18901983 1.9618179e-43
0.199947 0.12593 -1.605 -0.74319017 -0.31445664 0.59058052 2.8306229e-43
0.209925 0.134399 -1.57499 -0.77999687 -0.27282673 0.56317884 5.7873627e-43
0.204807 0.129567 -1.58999 -0.6274125 -0.28273681 0.72554356 2.9707527e-43
0.23683 0.18502501 -1.55498 0.067922577 0.90552974 0.4188107 5.1858889e-05
0.23001 0.172924 -1.5860699 0.68159252 -0.17704409 0.70999086 0
0.24023201 0.17601199 -1.54997 0.99845463 0.051204115 -0.021599356 1.9898438e-43
0.19971099 0.124166 -1.605 -0.74319017 -0.31445664 0.59058052 4.2557717e-36
0.213811 0.139798 -1.56499 -0.96409595 0.036010716 0.26310125 2.5373941e-35
0.238976 0.19008701 -1.55999 0.039729863 0.76866525 0.63841623 2.732532e-43
0.228147 0.144979 -1.54497 0.06318187 -0.99423778 -0.086598322 3.5873241e-43
0.240042 0.16499899 -1.54407 0.91811717 0.10531544 0.3820596 2.0178698e-43
0.22468001 0.14463601 -1.54497 -0.16038676 -0.6655308 0.72893405 6.7262326e-44
0.230011 0.144254 -1.54855 0.54018372 -0.84154147 -0.003088699 0.37828377
0.221792 0.17478199 -1.58498 -0.82601243 0.55623287 -0.0911505 3.7414669e-43
0.199986 0.12513 -1.60838 -0.83131796 -0.047958188 -0.55372417 2.5308164e-35
0.224962 0.180012 -1.58314 -0.91625804 0.37446734 -0.14228648 2.5378028e-35
0.21308701 0.12999199 -1.58409 0.64297563 -0.62826562 -0.43802357 5.9134795e-43
0.21985 0.137136 -1.55997 0.54742634 -0.81991231 0.16753571 3.1949605e-43
0.204871 0.124217 -1.59996 -0.48979315 -0.76944131 0.40995455 2.0599087e-43
0.22501799 0.13982999 -1.55703 -0.085046247 -0.94890267 -0.30389282 3.4752202e-43
0.240032 0.168221 -1.5449899 0.97703385 0.11754744 0.17772858 3.2089735e-43
0.229663 0.18481199 -1.56999 -0.89698803 0.39955255 0.18913014 2.0599087e-43
0.212258 0.139502 -1.56998 -0.9091863 -0.012441874 0.41620362 5.8153886e-43
0.22 0.165029 -1.59645 0.08092881 0.77091211 -0.63177931 2.1019477e-43
0.230187 0.175017 -1.58461 0.8109234 0.42919517 -0.397737 2.6344411e-43
0.23499399 0.179444 -1.575 0.9555738 -0.22616427 -0.18901983 2.0879347e-43
0.21492399 0.162727 -1.595 -0.88244784 0.46440908 0.074899681 0.11622161
0.21324299 0.155001 -1.60549 0.01796532 0.29864034 -0.95419663 4.2459343e-43
0.209985 0.149149 -1.60543 -0.37401301 0.17360678 -0.91102964 2.6904931e-43
0.215471 0.14990801 -1.6062 0.29156479 -0.097002558 -0.95161992 0.028557219
0.20997401 0.15210199 -1.5999399 -0.97312486 0.22590342 0.044672944 0.13727513
0.23501 0.189944 -1.56156 -0.44308928 0.68125057 0.58272594 0
0.234972 0.183652 -1.575 0.1228915 0.18833195 -0.97438633 2.5228339e-35
0.209951 0.15008201 -1.60496 0.10055723 -0.99484015 0.013467713 2.5210752e-35
0.23495001 0.173452 -1.54497 0.38036072 0.79677713 0.46954441 2.1299737e-43
0.23971599 0.191998 -1.5650001 0.33503962 0.89287263 -0.30087695 2.1299737e-43
0.229315 0.175051 -1.58498 0.45155191 0.50111806 -0.73822868 2.1299737e-43
0.23904 0.189987 -1.55999 0.039729863 0.76866525 0.63841623 4.1338305e-43
0.204915 0.13913099 -1.60498 -0.64521694 0.67268115 -0.36220863 0
0.214991 0.162872 -1.59997 -0.41538987 0.83060849 -0.37086493 3.4471942e-43
0.23498 0.19267 -1.56498 -0.3659018 0.92826366 -0.066651821 0
0.224981 0.18037599 -1.57997 0.065021582 0.99788374 0.00047485749 2.0178698e-43
0.21386801 0.160009 -1.60271 -0.50408739 0.55079383 -0.6652233 0.039254602
0.219715 0.17001501 -1.5929199 -0.075812921 0.81180471 -0.57898659 0
0.240008 0.169948 -1.54871 0.95785618 0.26249322 0.11665713 0.78188068
0.23001 0.18505201 -1.57701 0.0082762344 0.80222166 -0.59696895 2.4929572e-35
0.22985899 0.186286 -1.57497 -0.089225136 0.99546069 -0.033119507 2.5274782e-35
0.20710599 0.14483701 -1.605 -0.86653018 0.27069435 -0.41934472 2.53145e-35
0.212143 0.15476499 -1.605 -0.72626543 0.50414437 -0.46730822 0
0.224776 0.17998999 -1.57996 0.065021582 0.99788374 0.00047485749 3.4191683e-43
0.219841 0.14613099 -1.55495 -0.87082446 0.15089406 0.46786296 4.4841551e-44
0.20115501 0.12980901 -1.60499 -0.94738078 0.31103781 -0.075664394 6.7262326e-44
0.224915 0.17776699 -1.58499 0.015992625 0.50162482 -0.86493742 7.8091027e-05
0.20543399 0.122233 -1.60912 -0.42178699 -0.56682205 0.70767826 2.6904931e-43
0.240119 0.19002201 -1.56891 0.24668601 0.84807628 -0.46894842 2.1579996e-43
0.23054799 0.173979 -1.58497 0.68159252 -0.17704409 0.70999086 2.4802983e-43
0.234937 0.150047 -1.53985 0.8456459 -0.46684536 -0.25872463 9.3943049e-42
0.21999501 0.172372 -1.58999 -0.45529729 0.72491306 -0.51691914 3.1389086e-43
0.21729299 0.152419 -1.60579 0.61530876 -0.16345446 -0.77115351 0.051443309
0.238213 0.164836 -1.54 0.78584188 0.43995261 0.43461969 2.1860256e-43
0.22503699 0.16611899 -1.59479 0.98174208 0.037784576 -0.18642634 2.5477996e-35
0.240472 0.188346 -1.57073 -0.38084367 0.19595282 -0.90363741 5.5491419e-43
0.209736 0.13000201 -1.58999 0.072021589 -0.99659503 0.040140174 4.568233e-43
0.204496 0.121228 -1.605 0.06188494 -0.95496917 0.29017946 4.6523109e-43
0.219175 0.14491799 -1.5549901 -0.87082446 0.15089406 0.46786296 0
0.22992 0.17452499 -1.58498 0.68159252 -0.17704409 0.70999086 1.9478049e-43
0.210631 0.13965499 -1.57498 -0.82927477 0.51126939 0.22562563 1.7712413e-42
0.22937401 0.14496399 -1.55 0.54018372 -0.84154147 -0.003088699 2.5307245e-35
0.240753 0.17489 -1.55 0.99845463 0.051204115 -0.021599356 1.4293244e-43
0.20499299 0.133255 -1.58995 0.20221761 0.72010285 0.66374683 2.524602e-35
0.209728 0.14000501 -1.60697 -0.035556667 0.5218522 -0.85229456 2.5348141e-35
0.204981 0.13537 -1.6081899 -0.30332839 0.40490037 -0.86258191 3.0492255e-42
0.234973 0.190042 -1.56975 0.0076935599 0.99978971 -0.019008143 2.4662853e-43
0.224553 0.13854501 -1.5549999 -0.085046247 -0.94890267 -0.30389282 2.4796043e-35
0.240012 0.174881 -1.55392 0.88495129 0.44334561 -0.14249884 2.2981295e-43
0.242567 0.19000401 -1.5650001 0.9755376 -0.034307558 -0.21713901 0
0.20288201 0.134955 -1.60499 -0.92532712 0.3743706 -0.06013592 5.465064e-43
0.209986 0.138144 -1.57496 -0.98590147 0.10996259 0.1261211 5.3809861e-43
0.209943 0.127818 -1.59499 0.26069495 -0.95321614 0.15302666 2.535085e-35
0.22499201 0.149665 -1.545 -0.81220311 0.10123637 0.57452357 2.4796043e-35
0.208546 0.124971 -1.6 0.74579257 -0.66493291 0.040714171 1.4853764e-43
0.22490899 0.142279 -1.54998 0.38517481 -0.80686921 0.44788665 5.2828952e-43
0.235002 0.180618 -1.57743 0.7470721 -0.61280489 -0.25759152 2.5351447e-35
0.225072 0.17503799 -1.58764 0.075984813 0.87266225 -0.48237637 2.5352365e-35
0.242331 0.18718199 -1.55999 0.70157605 0.53003114 0.47629619 2.5352825e-35
0.225987 0.180011 -1.58328 -0.10394736 0.92793351 -0.35795856 2.4796043e-35
0.234621 0.18974 -1.5700001 0.0076935599 0.99978971 -0.019008143 2.522891e-35
0.22026099 0.170122 -1.59282 -0.075812921 0.81180471 -0.57898659 5.451051e-43
0.235111 0.185008 -1.5737799 0.58926815 0.36127743 -0.72266293 0
0.209719 0.131825 -1.57998 -0.25208277 -0.90022773 0.35502726 2.5321342e-35
0.227882 0.170031 -1.58999 0.66147721 0.51862353 -0.54173565 2.5321342e-35
0.20479199 0.127924 -1.59499 -0.05388872 -0.9342289 0.35257953 0
0.239987 0.18949699 -1.56996 -0.38084367 0.19595282 -0.90363741 2.5367383e-35
0.232926 0.180011 -1.57998 0.44729221 0.80863017 -0.38216081 0
0.209151 0.149754 -1.59999 -0.93245018 0.36046705 -0.024499418 0.0061587086
0.21143401 0.134821 -1.60497 0.78438264 -0.36739039 -0.49976808 0
0.20533 0.128907 -1.60897 -0.24020693 -0.90958548 -0.33905005 0.00027639404
0.219973 0.167804 -1.59499 -0.28595987 0.63813841 -0.71484703 0.00027983784
0.207894 0.124967 -1.60498 0.86807495 -0.47276801 -0.15144719 4.4000772e-43
0.220367 0.140062 -1.5549901 -0.34112841 -0.55534858 0.75843215 0
0.22833499 0.184947 -1.57498 -0.11104808 0.99318856 0.035282478 1.110223e-16
0.224049 0.139906 -1.55994 0.68398881 -0.56958783 -0.455773 3.61535e-43
0.23949701 0.15991201 -1.5399899 0.99451244 -0.074634656 0.07331232 2.0178698e-43
0.209988 0.130311 -1.58492 -0.20972633 -0.96751308 0.14118521 4.4351273e-05
0.229984 0.181794 -1.57998 0.42187864 0.64418846 -0.63799661 1.4573504e-43
0.22892 0.169981 -1.58499 0.97572953 -0.15402232 -0.15565664 0
0.22797599 0.169981 -1.59 0.66147721 0.51862353 -0.54173565 4.6943499e-43
0.23522501 0.179993 -1.57494 0.9555738 -0.22616427 -0.18901983 0
0.21996599 0.135304 -1.56497 0.87655908 -0.48089072 -0.019705655 2.8166099e-43
0.213838 0.149691 -1.60646 0.019287299 -0.9574306 -0.28801858 4.9605966e-43
0.22101299 0.13947099 -1.56999 0.89246798 -0.40196034 -0.20476528 2.4929572e-35
0.214901 0.132434 -1.575 0.0038241663 -0.896492 0.44304347 2.4793701e-35
0.215827 0.16497099 -1.59497 -0.58885229 0.79822016 -0.12687629 2.5388597e-35
0.214121 0.14468101 -1.60616 0.43225312 -0.15790676 -0.88781905 0
0.232289 0.185335 -1.57498 0.37039727 0.73954737 -0.56202805 2.9147008e-43
0.212817 0.15967 -1.6 -0.89279336 0.45006838 0.018934412 0
0.219956 0.139302 -1.57499 0.88574511 -0.39396125 -0.24545906 5.2688822e-43
0.233605 0.189904 -1.56497 -0.89121187 0.45147172 -0.043756947 0
0.21000201 0.134826 -1.60811 0.19601995 -0.85351074 -0.4827998 2.4943113e-43
0.239169 0.169723 -1.54498 0.97703385 0.11754744 0.17772858 0
0.203282 0.12151 -1.60945 -0.53665441 -0.83176166 -0.1420372 2.4943113e-43
0.21911301 0.134956 -1.56999 0.6223594 -0.77449185 -0.11327475 0
0.209922 0.129963 -1.59 0.072021589 -0.99659503 0.040140174 0
0.214965 0.131447 -1.58 0.38137555 -0.90164399 0.20393835 2.5083243e-43
0.23004501 0.180022 -1.58205 0.30737457 0.6257475 -0.71691072 0
0.21987399 0.136731 -1.56997 0.53408206 -0.77497941 -0.33788049 4.0777785e-43
0.21822 0.15515999 -1.60509 0.017527264 0.29143304 -0.95643067 2.5363502e-43
0.229966 0.14647201 -1.54998 0.94727772 -0.27911848 -0.15734622 2.5503632e-43
0.23295601 0.16498999 -1.5399899 -0.5080238 0.46457082 0.72531772 4.1198175e-43
0.239925 0.17560001 -1.5549999 0.92309463 -0.3709994 -0.10127053 0
0.220024 0.156541 -1.60444 0.054243375 0.35671553 -0.93263698 2.9006878e-43
0.22462399 0.164664 -1.59497 0.45044997 -0.11859827 -0.88488942 2.5643762e-43
0.202728 0.130427 -1.60952 -0.74226218 0.36237681 -0.56367534 4.7924407e-43
0.218696 0.16999499 -1.58996 -0.98502433 0.1685707 0.036207177 2.6764801e-43
0.218569 0.154934 -1.605 0.017527264 0.29143304 -0.95643067 2.760558e-43
0.217784 0.134822 -1.575 0.8221184 -0.52513409 -0.21989897 0
0.24078301 0.183134 -1.5549901 0.87205827 0.36608088 0.32480636 2.5924022e-43
0.23902901 0.17004199 -1.545 0.95785618 0.26249322 0.11665713 2.760558e-43
0.233098 0.16992299 -1.54498 -0.6211732 0.5799005 0.52712357 2.6204281e-43
0.20537101 0.139991 -1.60493 -0.80696261 0.45336184 -0.37851599 2.6344411e-43
0.224765 0.166033 -1.595 0.39708489 0.3545557 -0.8465305 2.6484541e-43
0.210978 0.154863 -1.59998 -0.92940533 0.36793569 -0.028792672 2.6764801e-43
0.21499699 0.155366 -1.6049401 0.012070312 0.3219986 -0.9466632 5.2688822e-43
0.21507201 0.144877 -1.60558 0.48032525 -0.14233071 -0.86546499 2.5313169e-35
0.21269201 0.150619 -1.6066099 -0.19844088 -0.49389517 -0.84657472 4.8765187e-43
0.217089 0.149894 -1.60498 0.41994971 -0.8337087 -0.35856944 3.4471942e-43
0.209408 0.13496999 -1.60826 0.19601995 -0.85351074 -0.4827998 0
0.234878 0.184348 -1.5549999 -0.31415957 0.64666462 0.69507456 2.718519e-43
0.219832 0.16001301 -1.60311 0.80304366 0.34506184 -0.48585305 7.5670117e-44
0.23846 0.190026 -1.56937 0.092560947 0.73348606 -0.67337257 2.718519e-43
0.238729 0.18488 -1.56999 0.98703176 -0.12349603 -0.10255244 2.732532e-43
0.234901 0.179223 -1.5499901 -0.19758801 0.51745087 0.83258849 2.6204281e-43
0.221301 0.16191199 -1.59999 0.73375517 0.53183359 -0.42279589 0.00016289948
0.23387501 0.179444 -1.58 0.44729221 0.80863017 -0.38216081 2.0178698e-43
0.24224 0.18498901 -1.5599999 0.90902841 -0.32922995 -0.25548965 0.00038972055
0.241823 0.179838 -1.55496 0.99078476 -0.025524734 -0.133019 1.2555634e-42
0.21848001 0.155334 -1.605 0.017527264 0.29143304 -0.95643067 2.524971e-35
0.213314 0.13966601 -1.60498 0.8696928 -0.30026102 -0.39176241 1.8917529e-43
0.2225 0.139842 -1.56499 0.87358493 -0.41505945 -0.25411621 1.8917529e-43
0.20981599 0.149864 -1.60498 0.10055723 -0.99484015 0.013467713 0.0014336836
0.23755699 0.165255 -1.53997 0.15317009 0.98707414 -0.047154315 1.8090383e-05
0.220045 0.160028 -1.60304 0.80304366 0.34506184 -0.48585305 5.7493498e-06
0.239977 0.183594 -1.55497 0.42849341 0.65709358 0.62017858 3.8255448e-43
0.23934799 0.16953599 -1.5499901 0.91312689 -0.39816362 0.087550402 2.0178698e-43
0.21111099 0.13722201 -1.60809 0.87954098 0.035927162 -0.47446486 6.7262326e-44
0.22955 0.185001 -1.57715 0.0082762344 0.80222166 -0.59696895 5.1567783e-43
0.239957 0.171069 -1.55 0.98315269 -0.12632039 0.13211353 2.0178698e-43
0.219707 0.16245399 -1.59999 0.73375517 0.53183359 -0.42279589 1.9337919e-43
0.19999 0.124661 -1.60848 -0.83131796 -0.047958188 -0.55372417 3.9656747e-43
0.209978 0.130825 -1.60498 0.93299043 -0.28937146 -0.2139931 2.0178698e-43
0.215225 0.144807 -1.60497 0.96290898 -0.1584152 -0.21842827 5.7118432e-05
0.202059 0.12971 -1.59997 -0.89742047 -0.024979876 0.44046852 3.2229865e-43
0.240935 0.189143 -1.56997 -0.38084367 0.19595282 -0.90363741 3.1809475e-43
0.230839 0.169897 -1.5499901 -0.79744297 0.49313307 0.34771326 5.437038e-43
0.22407299 0.173301 -1.58999 0.17472249 0.56643122 -0.80537426 0
0.23961601 0.174862 -1.5549901 0.92055649 -0.37346685 -0.11444755 0.67453086
0.234969 0.149893 -1.5399899 0.8456459 -0.46684536 -0.25872463 6.7262326e-44
0.21198 0.129935 -1.58997 0.76714242 -0.63019794 0.11976233 0
0.229825 0.146972 -1.5399899 0.45741418 -0.84418058 0.27951995 0
0.222672 0.175008 -1.58885 -0.37300777 0.81025177 -0.45205891 0
0.217168 0.165003 -1.59741 -0.24079095 0.89368713 -0.37860668 2.8025969e-45
0.234982 0.167593 -1.53997 0.068704225 0.73814136 0.67113864 2.8025969e-45
0.202512 0.129944 -1.60958 -0.71869725 0.45520151 -0.52560997 0
0.21124899 0.129998 -1.59499 0.9043178 -0.42522249 -0.037352424 2.8025969e-45
0.22995199 0.14513101 -1.54497 0.06318187 -0.99423778 -0.086598322 0
0.221524 0.159711 -1.59999 0.96297717 -0.072795719 -0.25956842 0
0.239384 0.17734 -1.54998 0.56435895 0.81310719 -0.14267324 0
0.23938499 0.164846 -1.54497 0.93647957 0.12988392 0.32578543 0
0.242654 0.189705 -1.5650001 0.9755376 -0.034307558 -0.21713901 2.8025969e-45
0.225749 0.139965 -1.55496 0.87540948 -0.4123027 -0.25231865 0
0.20947801 0.135152 -1.60823 0.19601995 -0.85351074 -0.4827998 0
0.234712 0.187792 -1.55999 -0.52623379 0.60799032 0.59449625 0
0.23695099 0.183634 -1.57497 0.97380239 -0.17730531 0.14237893 0
0.225034 0.170036 -1.59217 0.31273124 0.57425809 -0.75658894 0
