# .PCD v0.7 - Point Cloud Data file format
VERSION 0.7
FIELDS x y z normal_x normal_y normal_z curvature
SIZE 4 4 4 4 4 4 4
TYPE F F F F F F F
COUNT 1 1 1 1 1 1 1
WIDTH 157
HEIGHT 1
VIEWPOINT 0 0 0 1 0 0 0
POINTS 157
DATA ascii
26.9734 85.739197 379.832 0.51819998 -0.77012199 -0.371995 2.5001539e-37
27.6602 85.503799 381.479 0.53580701 -0.75348502 -0.38101399 2.5001539e-37
28.2784 85.2173 383.146 0.55472201 -0.735906 -0.38823399 2.5001539e-37
28.6777 84.519096 384.75601 0.55846798 -0.72746497 -0.398633 2.5001539e-37
29.145 83.945801 386.397 0.56587499 -0.71557802 -0.40955299 2.5001539e-37
29.3379 82.988602 387.909 0.55611902 -0.71460599 -0.424346 2.5001539e-37
29.9522 82.594398 389.55399 0.566589 -0.69788802 -0.43809801 2.5001539e-37
30.4097 81.934898 391.16501 0.56421101 -0.687765 -0.45677701 2.5001539e-37
30.9107 81.437698 392.82101 0.56165099 -0.677827 -0.47444499 2.5001539e-37
31.393999 80.774597 394.423 0.55364698 -0.67228699 -0.49143201 2.5001539e-37
31.8391 79.925499 395.94699 0.54127002 -0.67050701 -0.507393 2.5001539e-37
31.9128 78.609901 397.173 0.520046 -0.67801398 -0.51947099 2.5001539e-37
32.204601 77.649002 398.66699 0.50570601 -0.67865998 -0.53261799 2.5001539e-37
32.429798 77.8396 398.80801 0.50914299 -0.67477697 -0.534275 2.5001539e-37
33.010799 77.273201 400.41501 0.49970999 -0.67064297 -0.54820502 2.5001539e-37
33.157299 76.037804 401.716 0.482476 -0.674124 -0.55926299 2.5001539e-37
33.545399 75.044701 403.16599 0.46862599 -0.67166197 -0.57381201 2.5001539e-37
34.108101 74.227898 404.668 0.45757899 -0.66703302 -0.58795297 2.5001539e-37
34.650501 73.506203 406.22501 0.448241 -0.66219902 -0.60047603 2.5001539e-37
34.734501 72.154503 407.41101 0.43873101 -0.66007698 -0.60976499 2.5001539e-37
35.1483 71.097603 408.80801 0.433393 -0.65437597 -0.61964703 2.5001539e-37
35.782799 70.411301 410.34601 0.43270499 -0.647156 -0.62765801 2.5001539e-37
36.145599 69.255096 411.677 0.432877 -0.63813102 -0.63671499 2.5001539e-37
36.5121 68.127899 413.03201 0.433792 -0.62601101 -0.64802301 2.5001539e-37
36.916 66.988998 414.366 0.43584901 -0.61297703 -0.65900999 2.5001539e-37
37.229099 65.747704 415.63101 0.437794 -0.599163 -0.67032897 2.5001539e-37
37.540401 64.484001 416.875 0.43996501 -0.58460402 -0.68166697 2.5001539e-37
37.798 63.151402 418.05701 0.44131601 -0.56965601 -0.693349 2.5001539e-37
38.353001 62.1563 419.45099 0.447148 -0.55357498 -0.70257598 2.5001539e-37
38.713001 60.874802 420.66199 0.45027599 -0.53941798 -0.71153402 2.5001539e-37
38.922001 59.4375 421.72501 0.452728 -0.529423 -0.71745998 2.5001539e-37
39.2658 58.103401 422.884 0.45870399 -0.51701802 -0.72269201 2.5001539e-37
39.798901 57.033199 424.229 0.47147301 -0.50196499 -0.72508198 2.5001539e-37
40.103298 55.627899 425.31201 0.47819501 -0.486332 -0.73130798 2.5001539e-37
40.371201 54.182999 426.35199 0.483832 -0.46943501 -0.73860502 2.5001539e-37
40.680199 52.772598 427.427 0.490776 -0.45074701 -0.74563098 2.5001539e-37
40.713699 51.149899 428.20499 0.48625201 -0.43557501 -0.75751799 2.5001539e-37
41.2313 49.910999 429.40399 0.50006503 -0.41681001 -0.75908101 2.5001539e-37
41.284698 48.265301 430.13101 0.491294 -0.406692 -0.77021599 2.5001539e-37
41.8148 47.0807 431.37799 0.50526899 -0.38815901 -0.77073699 2.5001539e-37
41.911598 45.4146 432.052 0.49343199 -0.380339 -0.78222001 2.5001539e-37
42.036201 43.8204 432.879 0.48303601 -0.37197301 -0.79266202 2.5001539e-37
42.482601 42.466499 433.978 0.48982701 -0.35571 -0.79595202 2.5001539e-37
42.7244 40.908501 434.84601 0.48361599 -0.345947 -0.80401301 2.5001539e-37
42.878101 39.271301 435.578 0.46993399 -0.34042999 -0.81441402 2.5001539e-37
43.078098 37.655701 436.34601 0.45732799 -0.333801 -0.824274 2.5001539e-37
43.107201 35.957199 436.94199 0.42871201 -0.333547 -0.83961499 2.5001539e-37
43.493599 34.482101 437.89801 0.43886799 -0.31271899 -0.84237897 2.5001539e-37
43.486099 32.750401 438.38901 0.43256599 -0.29489699 -0.85201102 2.5001539e-37
43.575699 31.0452 438.95901 0.42619899 -0.27843899 -0.86071301 2.5001539e-37
43.859001 29.4298 439.70001 0.427073 -0.26407599 -0.86479598 2.5001539e-37
43.667801 27.662701 439.98499 0.41152 -0.26395699 -0.87234098 2.5001539e-37
44.150398 26.1437 440.82101 0.42141101 -0.25723001 -0.86962402 2.5001539e-37
44.2775 24.427999 441.35001 0.41670901 -0.25332201 -0.87303001 2.5001539e-37
44.3769 22.7132 441.888 0.413032 -0.24606 -0.87684602 2.5001539e-37
44.750301 21.1075 442.61099 0.42222601 -0.23175199 -0.87636501 2.5001539e-37
44.5872 19.3214 442.763 0.41529101 -0.211868 -0.884673 2.5001539e-37
44.942799 17.7164 443.496 0.43039501 -0.185215 -0.883434 2.5001539e-37
44.868301 15.928 443.68701 0.423951 -0.161365 -0.89119399 2.5001539e-37
43.548698 14.8168 443.173 0.38441601 -0.161103 -0.90899402 2.5001539e-37
41.944801 14.5768 442.392 0.355836 -0.17366 -0.91827202 2.5001539e-37
40.492599 13.5699 442.04999 0.33544001 -0.183446 -0.92402798 2.5001539e-37
38.934502 12.7208 441.74701 0.357099 -0.168669 -0.91871202 2.5001539e-37
37.473598 11.8509 441.15601 0.381156 -0.154229 -0.91155601 2.5001539e-37
35.8694 11.221 440.63699 0.406122 -0.143007 -0.90256 2.5001539e-37
34.728901 9.8564701 440.35901 0.42586899 -0.12815399 -0.89566302 2.5001539e-37
33.452301 8.70121 439.83401 0.44547299 -0.117735 -0.88752002 2.5001539e-37
32.161999 7.5893102 439.25201 0.46405399 -0.107312 -0.87928301 2.5001539e-37
30.6369 6.9180102 438.57101 0.48409799 -0.098276697 -0.86947697 2.5001539e-37
29.423599 5.70609 438.02399 0.50129199 -0.083968997 -0.86119401 2.5001539e-37
28.538401 4.2595701 437.42099 0.51187098 -0.071180001 -0.85610801 2.5001539e-37
27.0686 3.4107201 436.82101 0.51695597 -0.071526602 -0.85301799 2.5001539e-37
25.8859 2.4763501 435.83701 0.52335399 -0.072604999 -0.84901702 2.5001539e-37
24.373699 2.17751 434.90799 0.53418601 -0.0759129 -0.84195203 2.5001539e-37
22.826 1.83163 434.056 0.54769999 -0.077918097 -0.83303899 2.5001539e-37
21.269699 2.1294601 433.203 0.56922698 -0.0748339 -0.81876802 2.5001539e-37
19.836901 2.30775 432.12799 0.59398699 -0.069818802 -0.80143899 2.5001539e-37
18.608601 3.0318699 431.02899 0.61686802 -0.065854304 -0.78430599 2.5001539e-37
17.2596 3.69856 430.04099 0.64171898 -0.060751699 -0.76453 2.5001539e-37
15.9749 4.4718699 429.04599 0.666462 -0.056101698 -0.74342501 2.5001539e-37
14.7677 5.1270199 427.88199 0.69390398 -0.0505777 -0.71828902 2.5001539e-37
13.7684 5.6175399 426.46799 0.72547299 -0.046591599 -0.68667197 2.5001539e-37
12.5485 6.0903301 425.23099 0.753048 -0.051731899 -0.65592903 2.5001539e-37
11.3258 6.3603301 423.93799 0.77486801 -0.061758999 -0.62909901 2.5001539e-37
10.1556 6.6695099 422.60599 0.79430902 -0.071479701 -0.60329401 2.5001539e-37
9.2759399 7.15836 421.11401 0.81155097 -0.080043301 -0.57877302 2.5001539e-37
8.4379902 7.7657099 419.64099 0.82631803 -0.087721698 -0.55633003 2.5001539e-37
7.6669402 8.4795303 418.17899 0.838449 -0.094892897 -0.53665501 2.5001539e-37
6.7003498 9.0151901 416.759 0.84759301 -0.101822 -0.520787 2.5001539e-37
6.0133901 10.0396 415.448 0.85451901 -0.103957 -0.50891101 2.5001539e-37
5.23142 11.0743 414.19901 0.86188 -0.104725 -0.49618101 2.5001539e-37
4.8101501 12.3224 412.97299 0.86902601 -0.102834 -0.48396099 2.5001539e-37
4.2719798 13.3843 411.62299 0.87680697 -0.100644 -0.47019199 2.5001539e-37
3.9764199 14.8943 410.68799 0.88249201 -0.095390297 -0.46055201 2.5001539e-37
3.6375 16.3582 409.69699 0.88797802 -0.090362698 -0.450921 2.5001539e-37
3.1329801 17.5259 408.42401 0.89518899 -0.087317698 -0.43705001 2.5001539e-37
2.76074 18.889299 407.30899 0.90094799 -0.086619601 -0.425194 2.5001539e-37
2.2983799 20.2302 406.20099 0.90603101 -0.087600097 -0.41404501 2.5001539e-37
1.88772 21.4891 404.98199 0.91079402 -0.0896753 -0.40300399 2.5001539e-37
1.36996 22.610399 403.672 0.91554803 -0.092011496 -0.39154401 2.5001539e-37
1.02635 24.0567 402.65701 0.91800702 -0.097582698 -0.38437101 2.5001539e-37
0.789428 25.5511 401.68201 0.91967601 -0.104919 -0.37840301 2.5001539e-37
0.58800203 27.011999 400.64999 0.92071003 -0.111318 -0.374035 2.5001539e-37
0.43925399 28.5702 399.76199 0.920398 -0.117321 -0.37296599 2.5001539e-37
0.16006701 29.882099 398.561 0.921507 -0.121095 -0.368999 2.5001539e-37
-0.20780499 31.059 397.25 0.92316902 -0.123906 -0.36387599 2.5001539e-37
-0.56035501 32.205101 395.90701 0.92478299 -0.12684301 -0.35872999 2.5001539e-37
-0.82216501 33.638199 394.85001 0.92482102 -0.133149 -0.35633999 2.5001539e-37
-1.2134 34.843201 393.57101 0.92586303 -0.137495 -0.35195601 2.5001539e-37
-1.48921 36.113602 392.32599 0.92620701 -0.142563 -0.34902099 2.5001539e-37
-2.0121801 36.969799 390.832 0.92816502 -0.14251301 -0.34380099 2.5001539e-37
-2.3087101 38.057499 389.42899 0.92901701 -0.145144 -0.34038201 2.5001539e-37
-2.3622701 39.4263 388.26099 0.92836797 -0.151272 -0.33948499 2.5001539e-37
-2.7412901 40.3382 386.75601 0.92987698 -0.15223201 -0.33489501 2.5001539e-37
-3.30269 40.903702 385.142 0.93232 -0.150489 -0.32883501 2.5001539e-37
-3.7125499 41.3074 383.43701 0.93465501 -0.148541 -0.32304099 2.5001539e-37
-3.9268899 42.588799 382.19101 0.93460798 -0.15459999 -0.32032299 2.5001539e-37
-4.3090601 43.523602 380.70099 0.93573397 -0.162034 -0.31328401 2.5001539e-37
-4.7204099 44.329498 379.14499 0.936638 -0.169466 -0.30658001 2.5001539e-37
-4.9516802 45.237701 377.608 0.936836 -0.179029 -0.300477 2.5001539e-37
-5.31534 46.014301 376.02499 0.93683499 -0.188348 -0.294727 2.5001539e-37
-6.0337801 45.8773 374.38101 0.937608 -0.189742 -0.29135701 2.5001539e-37
-6.2474399 46.689098 372.78799 0.93666399 -0.201355 -0.28656 2.5001539e-37
-6.6366601 46.976299 371.05499 0.93599099 -0.20905501 -0.283225 2.5001539e-37
-7.1799302 47.177502 369.35001 0.93429297 -0.198744 -0.29596901 2.5001539e-37
-7.5827799 47.672699 367.66699 0.93368298 -0.189134 -0.30408099 2.5001539e-37
-7.7898202 48.682999 366.19199 0.93602997 -0.178177 -0.30348301 2.5001539e-37
-7.51372 50.432598 366.513 0.93234402 -0.17372 -0.317105 2.5001539e-37
-6.8539801 51.992599 367.12201 0.92658401 -0.176333 -0.332187 2.5001539e-37
-6.51964 53.671001 367.67999 0.92114502 -0.181027 -0.34455901 2.5001539e-37
-5.93857 55.268299 368.272 0.91526502 -0.190065 -0.355196 2.5001539e-37
-5.3021402 56.659901 369.22 0.90777701 -0.208046 -0.36422199 2.5001539e-37
-4.5973501 58.143902 369.95599 0.89264202 -0.24561299 -0.37797499 2.5001539e-37
-4.1409101 59.876099 370.13199 0.87396598 -0.29063401 -0.38950601 2.5001539e-37
-3.1354301 61.180801 370.858 0.85750002 -0.343889 -0.38266799 2.5001539e-37
-2.2086201 62.487099 371.67899 0.83975297 -0.401564 -0.36546201 2.5001539e-37
-1.19609 63.573799 372.69601 0.81955397 -0.455066 -0.348203 2.5001539e-37
-0.273967 65.082001 373.035 0.788504 -0.51324803 -0.33887899 2.5001539e-37
0.87437701 66.251404 373.77899 0.76214898 -0.55478799 -0.33367601 2.5001539e-37
2.0838799 67.465698 374.32999 0.73457098 -0.58985698 -0.33537301 2.5001539e-37
3.3424301 68.579201 374.97501 0.721762 -0.60427397 -0.33750901 2.5001539e-37
4.6107602 69.8563 374.99301 0.71270001 -0.61534601 -0.336761 2.5001539e-37
5.83921 70.956497 375.715 0.70355803 -0.62214202 -0.34343201 2.5001539e-37
7.1535201 72.123199 376.104 0.694767 -0.62778699 -0.35097301 2.5001539e-37
8.4378204 73.285797 376.59299 0.68134201 -0.635535 -0.36313701 2.5001539e-37
9.6637201 74.601898 376.664 0.66390002 -0.64969599 -0.37031299 2.5001539e-37
10.8303 75.967598 376.78299 0.64373302 -0.66807097 -0.37321401 2.5001539e-37
12.27 76.921898 377.29001 0.62286299 -0.687751 -0.372879 2.5001539e-37
13.6347 78.095398 377.26901 0.59816998 -0.713368 -0.36510101 2.5001539e-37
15.0331 79.2257 377.354 0.56701797 -0.74179202 -0.3581 2.5001539e-37
16.571301 80.041801 377.80899 0.53799403 -0.76464403 -0.354799 2.5001539e-37
18.0728 81.018799 377.98599 0.50716501 -0.78699601 -0.35131499 2.5001539e-37
19.5844 81.9953 377.94901 0.476515 -0.80741102 -0.34788001 2.5001539e-37
21.1612 82.792 378.29501 0.47194701 -0.81223899 -0.342832 2.5001539e-37
22.7913 83.519699 378.52499 0.47536999 -0.81093001 -0.341198 2.5001539e-37
24.2852 84.518997 378.62299 0.48167801 -0.805731 -0.34465101 2.5001539e-37
25.8514 85.392502 378.46799 0.496867 -0.79215997 -0.35440901 2.5001539e-37
