# .PCD v0.7 - Point Cloud Data file format
VERSION 0.7
FIELDS x y z normal_x normal_y normal_z curvature
SIZE 4 4 4 4 4 4 4
TYPE F F F F F F F
COUNT 1 1 1 1 1 1 1
WIDTH 161
HEIGHT 1
VIEWPOINT 0 0 0 1 0 0 0
POINTS 161
DATA ascii
43.9109 16.7346 446.02701 -0.247986 0.186556 0.95063102 2.5001539e-37
44.020599 18.497499 445.67999 -0.24403299 0.206393 0.94754899 2.5001539e-37
44.099602 20.2353 445.21799 -0.23745801 0.227882 0.94428998 2.5001539e-37
43.9758 21.9715 444.759 -0.230156 0.24890099 0.94078499 2.5001539e-37
43.719898 23.7076 444.35901 -0.229615 0.26370099 0.93687701 2.5001539e-37
43.451199 25.4069 443.82901 -0.232215 0.27503699 0.93296897 2.5001539e-37
43.383202 27.107401 443.24301 -0.234523 0.28524101 0.92931998 2.5001539e-37
43.358002 28.813801 442.67099 -0.236123 0.295113 0.92582601 2.5001539e-37
43.218399 30.503401 442.06601 -0.23746 0.30532399 0.92216599 2.5001539e-37
43.112499 32.176399 441.41 -0.23936699 0.31845501 0.91721898 2.5001539e-37
42.6591 33.803001 440.78699 -0.24563099 0.335989 0.90927303 2.5001539e-37
42.568001 35.459702 440.08899 -0.247054 0.354516 0.90182197 2.5001539e-37
42.370899 37.098499 439.371 -0.247867 0.37304199 0.89409298 2.5001539e-37
41.993301 38.7136 438.672 -0.24939901 0.39043999 0.88620299 2.5001539e-37
42.040001 40.307701 437.83701 -0.25466999 0.40343899 0.87885201 2.5001539e-37
41.8036 41.912998 437.05801 -0.26391599 0.413899 0.87122703 2.5001539e-37
41.483002 43.4907 436.25299 -0.27098501 0.42473999 0.86380702 2.5001539e-37
41.428101 45.0443 435.34601 -0.277702 0.437327 0.85535198 2.5001539e-37
41.089298 46.5923 434.492 -0.28185299 0.451998 0.84631902 2.5001539e-37
40.8218 48.121799 433.58099 -0.28468901 0.46732301 0.83699501 2.5001539e-37
40.803001 49.6147 432.57599 -0.28655499 0.48293501 0.82744199 2.5001539e-37
40.569901 51.103401 431.591 -0.287467 0.49861601 0.81776798 2.5001539e-37
40.264702 52.566299 430.58801 -0.28794399 0.51376402 0.80816799 2.5001539e-37
39.8638 54.009399 429.59 -0.28839499 0.52808601 0.79872 2.5001539e-37
39.3923 55.4156 428.57001 -0.289408 0.542503 0.78862798 2.5001539e-37
39.188499 56.8279 427.47198 -0.290113 0.556624 0.77846301 2.5001539e-37
38.9506 58.207001 426.34 -0.290492 0.570216 0.76841903 2.5001539e-37
38.400501 59.533501 425.255 -0.29104501 0.58269298 0.758789 2.5001539e-37
38.1707 60.877201 424.07999 -0.290452 0.59555203 0.74896902 2.5001539e-37
37.7925 62.183201 422.89999 -0.289671 0.60779297 0.73937702 2.5001539e-37
37.533501 63.4678 421.66599 -0.287714 0.62034798 0.72965002 2.5001539e-37
37.4422 64.683403 420.34201 -0.28447399 0.635194 0.71805501 2.5001539e-37
36.709301 65.8647 419.198 -0.28503501 0.64672798 0.70745897 2.5001539e-37
36.437401 67.040604 417.86301 -0.28195301 0.66057199 0.69580603 2.5001539e-37
36.140301 68.264297 416.577 -0.27855301 0.67409402 0.68410999 2.5001539e-37
35.574001 69.457298 415.354 -0.27837601 0.68524998 0.67300802 2.5001539e-37
35.335098 70.626198 414.00601 -0.27498201 0.69781703 0.66139001 2.5001539e-37
34.798 71.726898 412.68701 -0.27640101 0.70761198 0.65029901 2.5001539e-37
34.628101 72.797302 411.25 -0.27463901 0.72037601 0.63689297 2.5001539e-37
34.358101 73.844299 409.811 -0.27549899 0.731929 0.62320203 2.5001539e-37
34.030701 74.8918 408.384 -0.278274 0.74247801 0.60933602 2.5001539e-37
33.708302 75.879997 406.914 -0.28231299 0.75232702 0.59523499 2.5001539e-37
33.329601 76.856201 405.45001 -0.28805101 0.761388 0.58078802 2.5001539e-37
32.763302 77.827797 404.04501 -0.29676199 0.76921898 0.56589198 2.5001539e-37
32.256199 78.765198 402.59399 -0.304842 0.77704698 0.550699 2.5001539e-37
31.996401 79.6465 401.04599 -0.30943501 0.78293699 0.53968501 2.5001539e-37
31.5299 80.526604 399.547 -0.31732401 0.78750402 0.52833903 2.5001539e-37
31.0637 81.365601 398.02399 -0.32629099 0.79235899 0.51546198 2.5001539e-37
30.618601 82.187202 396.48599 -0.335623 0.79767001 0.50107902 2.5001539e-37
30.188801 82.954102 394.91501 -0.34494701 0.80352098 0.48514399 2.5001539e-37
29.787001 83.678398 393.31699 -0.35354 0.81007701 0.46774501 2.5001539e-37
29.4557 84.359802 391.68399 -0.360708 0.81729299 0.44935799 2.5001539e-37
28.7549 85.087898 390.19501 -0.36578301 0.82410902 0.43248799 2.5001539e-37
28.402 85.738701 388.55399 -0.36965099 0.83052301 0.416641 2.5001539e-37
28.1108 86.309097 386.87201 -0.37254301 0.83653998 0.401761 2.5001539e-37
27.753099 86.678299 385.147 -0.373335 0.842682 0.38795301 2.5001539e-37
27.6056 86.884804 385.19199 -0.373 0.84300601 0.38756999 2.5001539e-37
26.9685 87.422401 383.59698 -0.37055901 0.84968603 0.375126 2.5001539e-37
26.2799 87.933197 382.01401 -0.36603701 0.85643202 0.364061 2.5001539e-37
25.880699 88.466301 380.34201 -0.36266801 0.86241102 0.353156 2.5001539e-37
24.6404 88.120697 379.08401 -0.353306 0.86767399 0.34973699 2.5001539e-37
22.9254 87.575798 379.125 -0.35453299 0.86803299 0.34759799 2.5001539e-37
21.238701 86.948799 379.16901 -0.40851101 0.84757102 0.33873501 2.5001539e-37
19.6115 86.184898 379.07599 -0.45525399 0.825755 0.33297601 2.5001539e-37
18.0231 85.338997 379.11801 -0.49541599 0.80222601 0.333161 2.5001539e-37
16.5466 84.311699 379.04999 -0.530568 0.777224 0.33826101 2.5001539e-37
15.0417 83.367897 378.76001 -0.56368101 0.75150198 0.34279701 2.5001539e-37
13.6093 82.287498 378.616 -0.59732801 0.72449201 0.343963 2.5001539e-37
12.1739 81.210701 378.47299 -0.629978 0.69788098 0.34071901 2.5001539e-37
10.8607 80.052002 378.05701 -0.66177899 0.67239201 0.33156899 2.5001539e-37
9.6050501 78.779701 377.84601 -0.677284 0.65955198 0.32600299 2.5001539e-37
8.3469601 77.563797 377.423 -0.67531002 0.66194803 0.325241 2.5001539e-37
7.0167999 76.351402 377.39801 -0.67288399 0.66346598 0.32717001 2.5001539e-37
5.6862898 75.141403 377.323 -0.67040199 0.66513801 0.32886499 2.5001539e-37
4.32024 74.051697 376.89099 -0.66819501 0.66788 0.32779899 2.5001539e-37
3.0002 72.859901 376.61401 -0.68160599 0.65624499 0.32365999 2.5001539e-37
1.72761 71.662102 376.18301 -0.69588101 0.64243501 0.320979 2.5001539e-37
0.50616002 70.473701 375.603 -0.70990801 0.62734801 0.32010099 2.5001539e-37
-0.76176703 69.3461 375.00299 -0.72360599 0.61068797 0.32164499 2.5001539e-37
-1.93909 68.182899 374.29501 -0.745646 0.583803 0.321226 2.5001539e-37
-3.0451 66.9758 373.547 -0.774198 0.547728 0.31719401 2.5001539e-37
-4.2503099 65.680397 373.216 -0.8028 0.50721103 0.31344801 2.5001539e-37
-5.3158498 64.376297 372.57999 -0.82894802 0.46758899 0.30693099 2.5001539e-37
-6.24084 62.957298 371.97101 -0.85221303 0.428886 0.299649 2.5001539e-37
-7.21838 61.560299 371.39499 -0.86876601 0.39744499 0.29543799 2.5001539e-37
-8.04074 60.048302 370.86801 -0.88600397 0.36177099 0.290032 2.5001539e-37
-8.7450895 58.568298 370.12399 -0.90328401 0.32378399 0.28149799 2.5001539e-37
-9.2958403 56.9431 369.57999 -0.919976 0.28334799 0.27084801 2.5001539e-37
-10.138 55.387798 369.246 -0.91609299 0.28603199 0.28099599 2.5001539e-37
-10.8227 54.009499 368.31201 -0.91260302 0.29232201 0.28583699 2.5001539e-37
-11.22 52.255699 368.39099 -0.910119 0.297416 0.28849101 2.5001539e-37
-11.8973 50.589199 368.32599 -0.90825897 0.30471501 0.28673199 2.5001539e-37
-11.7725 49.727402 369.90201 -0.90386999 0.30968601 0.295149 2.5001539e-37
-11.4731 49.076099 371.55301 -0.90040201 0.312453 0.302735 2.5001539e-37
-11.0231 48.5131 373.202 -0.897277 0.31382501 0.31049499 2.5001539e-37
-10.5405 48.530102 374.936 -0.89649099 0.30816099 0.31834 2.5001539e-37
-10.0877 47.919701 376.56799 -0.89349198 0.30734801 0.32742801 2.5001539e-37
-9.6149101 47.0923 378.095 -0.89027297 0.308328 0.33518299 2.5001539e-37
-9.2165699 46.848801 379.83301 -0.89063299 0.301853 0.34008399 2.5001539e-37
-8.9245005 45.836498 381.293 -0.88664901 0.30562001 0.34705999 2.5001539e-37
-8.6285896 44.851002 382.76999 -0.88283801 0.30902001 0.353699 2.5001539e-37
-8.30408 43.565102 383.987 -0.877285 0.31658801 0.360753 2.5001539e-37
-7.9456301 43.349499 385.737 -0.87766302 0.31069499 0.364934 2.5001539e-37
-7.8041701 42.2672 387.16901 -0.87229002 0.31125101 0.377139 2.5001539e-37
-7.5361099 41.320202 388.67599 -0.86811101 0.30812699 0.38915399 2.5001539e-37
-7.1894398 40.419498 390.19501 -0.86447197 0.303729 0.400545 2.5001539e-37
-6.92588 39.267399 391.55301 -0.85981703 0.30132201 0.412213 2.5001539e-37
-6.67594 38.124699 392.92099 -0.85545599 0.29804599 0.423513 2.5001539e-37
-6.2933002 37.161701 394.39301 -0.852144 0.29246399 0.43395299 2.5001539e-37
-6.08495 35.952099 395.70901 -0.84778601 0.288753 0.44483799 2.5001539e-37
-6.0147901 34.526001 396.80499 -0.84226298 0.28583699 0.45704499 2.5001539e-37
-5.6440501 33.376801 398.14001 -0.83809501 0.27909699 0.46872401 2.5001539e-37
-5.4288402 32.029598 399.314 -0.83280402 0.274178 0.48089901 2.5001539e-37
-4.92136 30.902599 400.62299 -0.82877702 0.266498 0.49204499 2.5001539e-37
-4.7269201 29.4172 401.621 -0.82212698 0.263428 0.504691 2.5001539e-37
-4.5172901 27.9079 402.57901 -0.81465602 0.26148 0.51765299 2.5001539e-37
-4.2341199 26.5667 403.746 -0.80759698 0.257938 0.53033602 2.5001539e-37
-3.9019101 25.2549 404.93301 -0.800578 0.25501099 0.54225802 2.5001539e-37
-3.6105199 23.854799 406.026 -0.79313499 0.252381 0.55429399 2.5001539e-37
-3.2451501 22.541401 407.20099 -0.78741401 0.245197 0.56555998 2.5001539e-37
-2.72421 21.2847 408.38 -0.784082 0.23310199 0.57521999 2.5001539e-37
-2.22856 20.0207 409.56201 -0.78224599 0.21718401 0.58388501 2.5001539e-37
-1.90415 18.512501 410.48901 -0.77820402 0.199238 0.59556901 2.5001539e-37
-1.53617 17.0112 411.41101 -0.776241 0.17358799 0.606067 2.5001539e-37
-0.80977798 15.9717 412.689 -0.78557098 0.144115 0.60175598 2.5001539e-37
-0.31467301 14.3806 413.36899 -0.79087299 0.119925 0.600115 2.5001539e-37
0.252505 13.183 414.58701 -0.80163699 0.098364599 0.58966202 2.5001539e-37
0.877222 11.9582 415.74899 -0.81078702 0.078869998 0.58000302 2.5001539e-37
1.6166199 10.7981 416.91 -0.81858701 0.062896602 0.57092899 2.5001539e-37
2.5235701 9.98771 418.237 -0.82407999 0.054827001 0.56381398 2.5001539e-37
3.34463 9.1409197 419.59698 -0.82599097 0.049481399 0.561508 2.5001539e-37
4.3285098 7.9801898 420.55801 -0.82448798 0.039727099 0.56448299 2.5001539e-37
5.1166 7.6223602 422.13699 -0.81346899 0.0392843 0.58028001 2.5001539e-37
6.0651898 7.1553202 423.59299 -0.797638 0.037984699 0.60193902 2.5001539e-37
7.1156402 6.7965298 425.01001 -0.77703702 0.037854899 0.62831599 2.5001539e-37
8.2375898 6.2044101 426.28699 -0.75432098 0.034329001 0.655608 2.5001539e-37
9.39779 5.8099599 427.60599 -0.72828001 0.032227501 0.68452197 2.5001539e-37
10.6971 5.49825 428.81201 -0.70101899 0.030662401 0.71248299 2.5001539e-37
11.8821 5.2461801 430.14301 -0.67443001 0.0301494 0.73772299 2.5001539e-37
13.1884 4.4614902 431.10101 -0.657417 0.0285546 0.75298601 2.5001539e-37
14.453 4.1272898 432.33801 -0.63271302 0.039804 0.77336299 2.5001539e-37
15.7891 3.61463 433.42899 -0.60801798 0.048628401 0.79243201 2.5001539e-37
17.1558 3.0757999 434.46899 -0.58266598 0.057256501 0.81069201 2.5001539e-37
18.6616 2.8621399 435.43201 -0.55404902 0.068543598 0.82965797 2.5001539e-37
20.1022 2.55181 436.466 -0.52754402 0.077480197 0.84598702 2.5001539e-37
21.5443 2.9068899 437.483 -0.50031501 0.089252003 0.86123103 2.5001539e-37
23.112 3.0508299 438.35599 -0.49745101 0.078482397 0.86393499 2.5001539e-37
24.694201 3.3513899 439.159 -0.500247 0.064685099 0.86346298 2.5001539e-37
26.143 4.2975502 439.655 -0.50753403 0.052024901 0.86005998 2.5001539e-37
27.3151 5.53053 440.24301 -0.51626903 0.041937601 0.85539901 2.5001539e-37
28.004 6.9931402 441.035 -0.51523298 0.046100799 0.85580999 2.5001539e-37
29.4657 7.9323702 441.505 -0.49298099 0.063216701 0.86773998 2.5001539e-37
30.8862 8.91996 442.00201 -0.46987399 0.079352103 0.87915999 2.5001539e-37
32.384899 9.7969999 442.47601 -0.445465 0.093194798 0.89043599 2.5001539e-37
33.344898 11.1551 443.164 -0.42501801 0.108693 0.89863503 2.5001539e-37
34.700199 12.0412 443.95099 -0.396561 0.122405 0.90981102 2.5001539e-37
36.206402 12.9232 444.39001 -0.36592099 0.137068 0.920497 2.5001539e-37
37.717701 13.7803 444.86099 -0.33340299 0.15186501 0.93047303 2.5001539e-37
39.368099 14.4232 445.18201 -0.298691 0.165591 0.93987399 2.5001539e-37
40.897701 15.1824 445.75101 -0.271016 0.17486399 0.946558 2.5001539e-37
42.657501 15.4427 446.02499 -0.25584599 0.174658 0.950809 2.5001539e-37
