# .PCD v0.7 - Point Cloud Data file format
VERSION 0.7
FIELDS x y z normal_x normal_y normal_z curvature
SIZE 4 4 4 4 4 4 4
TYPE F F F F F F F
COUNT 1 1 1 1 1 1 1
WIDTH 154
HEIGHT 1
VIEWPOINT 0 0 0 1 0 0 0
POINTS 154
DATA ascii
-3.81936 -67.404099 439.15799 0.0117542 -0.284385 0.95863801 2.5769836e-37
-2.1073799 -66.853996 439.23901 0.0155581 -0.27068999 0.96254098 2.5769836e-37
-1.07628 -65.500397 439.82599 0.0419624 -0.26106501 0.96440899 2.5769836e-37
0.60266799 -64.852699 439.867 0.070350602 -0.25763601 0.963678 2.5769836e-37
2.1735899 -63.985401 440.008 0.088464998 -0.25552499 0.96274698 2.5769836e-37
3.30826 -62.606701 440.23599 0.096454099 -0.247462 0.96408498 2.5769836e-37
4.48803 -61.262001 440.435 0.116567 -0.234521 0.96509701 2.5769836e-37
5.9481201 -60.2108 440.38 0.15650401 -0.217252 0.96348798 2.5769836e-37
7.33395 -59.0625 440.41101 0.207443 -0.194823 0.95865101 2.5769836e-37
7.2144299 -58.8335 440.65302 0.20458201 -0.193967 0.95943898 2.5769836e-37
8.5307798 -57.624699 440.439 0.260773 -0.17053001 0.95021898 2.5769836e-37
9.4172697 -56.0606 440.52701 0.28831401 -0.150159 0.94568902 2.5769836e-37
10.6042 -54.754299 440.173 0.31114101 -0.135149 0.940705 2.5769836e-37
11.5149 -53.226002 439.89999 0.32186899 -0.12507901 0.93848598 2.5769836e-37
12.1884 -51.560001 440.004 0.318849 -0.116729 0.94059002 2.5769836e-37
12.7734 -49.8601 440.09399 0.30519199 -0.109446 0.94598103 2.5769836e-37
13.5342 -48.229301 440.13501 0.29096499 -0.103996 0.951065 2.5769836e-37
14.5686 -46.760601 440.022 0.27570301 -0.100306 0.95599502 2.5769836e-37
15.3602 -45.144001 440.022 0.266406 -0.089318298 0.95971298 2.5769836e-37
16.435101 -43.7132 439.82901 0.26564899 -0.078507699 0.960868 2.5769836e-37
17.2055 -42.089802 439.72299 0.269573 -0.063237697 0.96090102 2.5769836e-37
18.1877 -40.605701 439.45401 0.27952 -0.048205201 0.958929 2.5769836e-37
19.159201 -39.1199 439.15601 0.291722 -0.032820199 0.95594001 2.5769836e-37
20.0459 -37.569698 438.931 0.30267 -0.0165345 0.95295203 2.5769836e-37
20.596901 -35.859501 438.823 0.31762701 -0.00134305 0.94821501 2.5769836e-37
21.424299 -34.2882 438.52899 0.34079301 0.016134501 0.94 2.5769836e-37
22.2997 -32.7789 438.08701 0.37088001 0.035580602 0.92799902 2.5769836e-37
22.8815 -31.0952 437.82901 0.398743 0.051868401 0.915595 2.5769836e-37
23.465 -29.443001 437.41699 0.427984 0.066660203 0.90132499 2.5769836e-37
23.6334 -27.660801 437.228 0.44407299 0.077063203 0.89267099 2.5769836e-37
24.181999 -26.0137 436.75299 0.46871501 0.087685503 0.878986 2.5769836e-37
24.190399 -24.2229 436.57101 0.47310299 0.096148297 0.875745 2.5769836e-37
24.782101 -22.6152 436.01901 0.49156201 0.102495 0.86479002 2.5769836e-37
24.761 -20.8214 435.871 0.48591101 0.110637 0.86697799 2.5769836e-37
24.8405 -19.050301 435.56 0.48253101 0.12625299 0.866732 2.5769836e-37
24.729799 -17.2614 435.39401 0.473759 0.142996 0.868967 2.5769836e-37
24.628401 -15.4799 435.15701 0.466409 0.159161 0.87013203 2.5769836e-37
24.671301 -13.7163 434.79999 0.463411 0.174145 0.86886299 2.5769836e-37
24.751499 -11.9697 434.37201 0.46190801 0.188535 0.86665702 2.5769836e-37
24.7796 -10.2078 434.004 0.45910701 0.202958 0.864887 2.5769836e-37
24.7516 -8.4509497 433.61401 0.45588401 0.217168 0.86313802 2.5769836e-37
24.6688 -6.7053199 433.18301 0.452494 0.23108099 0.86130798 2.5769836e-37
24.7216 -4.9931302 432.63 0.452427 0.243497 0.857916 2.5769836e-37
24.6973 -3.25383 432.16699 0.44988599 0.25510401 0.85587698 2.5769836e-37
24.4182 -1.52312 431.759 0.44263101 0.26801401 0.85571402 2.5769836e-37
24.272699 0.212146 431.30301 0.436984 0.28109401 0.85441899 2.5769836e-37
24.1371 1.91106 430.724 0.43167901 0.29448399 0.85260397 2.5769836e-37
24.079599 3.6082201 430.12701 0.426815 0.308081 0.85024399 2.5769836e-37
23.847601 5.3099799 429.58801 0.41852701 0.32302299 0.84881699 2.5769836e-37
23.544701 7.0176702 429.10599 0.408393 0.338909 0.84755898 2.5769836e-37
23.311899 8.5806303 428.245 0.40098101 0.35420099 0.844841 2.5769836e-37
22.8218 10.3055 428.08701 0.385741 0.370294 0.84503597 2.5769836e-37
22.3027 11.9615 427.60999 0.37055001 0.38625699 0.844688 2.5769836e-37
21.7155 13.5853 427.10101 0.354083 0.40324199 0.843813 2.5769836e-37
21.1705 15.2008 426.52399 0.33861199 0.42040899 0.84178299 2.5769836e-37
20.7356 16.805099 425.83301 0.32579201 0.43718001 0.838292 2.5769836e-37
19.841299 18.3211 425.45599 0.30862299 0.45425299 0.83570701 2.5769836e-37
19.348499 19.878099 424.69901 0.29769301 0.47056499 0.83063102 2.5769836e-37
18.6686 21.413601 424.05099 0.28530401 0.48677999 0.82561898 2.5769836e-37
18.108801 22.9459 423.29099 0.27615899 0.50246799 0.81930602 2.5769836e-37
17.3272 24.434099 422.647 0.265425 0.51200998 0.81694299 2.5769836e-37
16.6 25.9356 421.97101 0.25675201 0.51992297 0.81471401 2.5769836e-37
16.0905 27.4503 421.14301 0.25129801 0.52756399 0.81149602 2.5769836e-37
15.0829 28.816 420.543 0.24434 0.534702 0.808945 2.5769836e-37
14.394 30.2635 419.72501 0.248896 0.54119301 0.80321902 2.5769836e-37
14.0057 31.695101 418.70499 0.25123799 0.54834199 0.79762203 2.5769836e-37
13.206 33.164799 418.04099 0.25879201 0.55482298 0.790694 2.5769836e-37
12.0893 34.501099 417.586 0.268823 0.56121701 0.78279603 2.5769836e-37
11.5909 35.9748 416.67999 0.268648 0.57056898 0.77606601 2.5769836e-37
10.8923 37.422901 415.871 0.267609 0.58124602 0.76846498 2.5769836e-37
10.1666 38.861801 415.069 0.263567 0.59862798 0.75642401 2.5769836e-37
9.53722 40.189201 414.02899 0.24917901 0.61726099 0.74625701 2.5769836e-37
8.7979603 41.569302 413.14099 0.214872 0.63772798 0.739685 2.5769836e-37
7.7835698 42.863499 412.409 0.17455 0.65787399 0.73262203 2.5769836e-37
6.9612799 44.071499 411.358 0.14341301 0.67493099 0.72381002 2.5769836e-37
6.53023 45.345402 410.16101 0.12413 0.68864202 0.71439803 2.5769836e-37
5.4546499 46.491501 409.284 0.099106804 0.701855 0.70539099 2.5769836e-37
4.7739501 47.722 408.16101 0.088123702 0.71250999 0.69610602 2.5769836e-37
3.74401 48.8386 407.19501 0.087484002 0.719832 0.68861401 2.5769836e-37
2.8905101 49.989498 406.10501 0.099573798 0.72564 0.68083102 2.5769836e-37
1.11854 50.207298 405.87601 0.120969 0.72063798 0.68267602 2.5769836e-37
0.81481701 49.121498 407.27899 0.115916 0.71196401 0.69258201 2.5769836e-37
-0.16852 48.033001 408.32199 0.117172 0.70161998 0.702851 2.5769836e-37
-0.82441998 46.9076 409.564 0.112227 0.69185799 0.71325898 2.5769836e-37
-1.4494801 45.736099 410.78 0.099926502 0.68214399 0.72435802 2.5769836e-37
-2.0946701 44.526402 411.94601 0.087813303 0.672288 0.73506302 2.5769836e-37
-2.63851 43.316502 413.16299 0.076637 0.66276097 0.74489897 2.5769836e-37
-2.85921 42.0756 414.448 0.067507103 0.65412498 0.75336802 2.5769836e-37
-3.7992401 40.897202 415.43201 0.059052601 0.64476597 0.76209497 2.5769836e-37
-4.46351 39.609001 416.49899 0.053039201 0.63632703 0.76959401 2.5769836e-37
-4.9225202 38.297199 417.64301 0.049082499 0.62846297 0.77628899 2.5769836e-37
-5.4205599 36.957802 418.737 0.044469301 0.61795902 0.78495097 2.5769836e-37
-6.1101198 35.6134 419.716 0.0365072 0.60630798 0.79439098 2.5769836e-37
-6.4461699 34.273499 420.87 0.030112499 0.59378999 0.804057 2.5769836e-37
-6.93784 32.865501 421.87799 0.021637799 0.581101 0.81354398 2.5769836e-37
-7.4099798 31.453899 422.89001 0.0132271 0.56843901 0.82261902 2.5769836e-37
-7.8862901 30.019199 423.867 0.0053398302 0.55608201 0.83111 2.5769836e-37
-8.4142504 28.557899 424.776 -0.00177031 0.54435301 0.83885503 2.5769836e-37
-9.0321503 27.0746 425.58701 -0.00421065 0.533746 0.84563398 2.5769836e-37
-8.8995504 25.6812 426.71899 -0.0051966701 0.52315497 0.85222203 2.5769836e-37
-9.4769697 24.191 427.547 -0.0015665001 0.512743 0.85854101 2.5769836e-37
-9.7183199 22.6849 428.50299 -0.0039936402 0.50041503 0.865776 2.5769836e-37
-9.9485998 21.1371 429.392 -0.0090676704 0.48788899 0.872859 2.5769836e-37
-10.4847 19.5984 430.15701 -0.0189962 0.474796 0.87989098 2.5769836e-37
-10.8356 18.0326 430.97299 -0.0298931 0.46178901 0.88648599 2.5769836e-37
-11.0301 16.445601 431.79901 -0.0398742 0.449366 0.89245802 2.5769836e-37
-11.5212 14.8748 432.52802 -0.054920901 0.43641701 0.898067 2.5769836e-37
-11.736 13.2531 433.27899 -0.065746397 0.42464399 0.90297002 2.5769836e-37
-11.8967 11.6152 434.008 -0.074864604 0.41352901 0.907408 2.5769836e-37
-12.1568 9.9713297 434.694 -0.085610799 0.396595 0.913993 2.5769836e-37
-12.1533 8.3545303 435.48499 -0.089484997 0.38062 0.92039198 2.5769836e-37
-12.6562 6.7143998 436.03 -0.10376 0.364595 0.925367 2.5769836e-37
-12.7717 5.0840998 436.784 -0.107384 0.34962499 0.93071502 2.5769836e-37
-13.2404 3.3880701 437.16299 -0.11757 0.335749 0.93458498 2.5769836e-37
-13.2133 1.7007 437.79001 -0.114297 0.32211801 0.93977499 2.5769836e-37
-13.2233 0.0126119 438.414 -0.109635 0.308815 0.94478202 2.5769836e-37
-13.3622 -1.70716 438.927 -0.105378 0.296334 0.94925302 2.5769836e-37
-13.3972 -3.4384601 439.41901 -0.096878402 0.28328899 0.95412898 2.5769836e-37
-13.4356 -5.1647201 439.927 -0.0884661 0.26769999 0.95943201 2.5769836e-37
-13.4762 -6.8985901 440.409 -0.0814161 0.25162199 0.96439499 2.5769836e-37
-13.7956 -8.6504803 440.67099 -0.079021104 0.23623 0.96847898 2.5769836e-37
-13.3293 -10.2679 441.30899 -0.069874801 0.218825 0.97325897 2.5769836e-37
-13.6427 -12.0224 441.56 -0.070035301 0.202316 0.97681302 2.5769836e-37
-13.0683 -13.6544 442.05701 -0.064406097 0.185709 0.980492 2.5769836e-37
-13.4868 -15.399 442.203 -0.068277903 0.168625 0.98331302 2.5769836e-37
-13.2358 -17.146601 442.55399 -0.068687402 0.151501 0.98606801 2.5769836e-37
-13.3232 -18.936501 442.72198 -0.073148102 0.134996 0.98814201 2.5769836e-37
-13.2153 -20.718399 442.953 -0.075506501 0.123613 0.98945397 2.5769836e-37
-13.2412 -22.5138 443.07901 -0.076980397 0.111397 0.99079001 2.5769836e-37
-12.7507 -24.1901 443.51401 -0.072894901 0.099012397 0.99241298 2.5769836e-37
-12.712 -25.9841 443.655 -0.071063504 0.085330501 0.993815 2.5769836e-37
-12.5935 -27.774099 443.80301 -0.067685001 0.071011297 0.99517602 2.5769836e-37
-12.5169 -29.571301 443.86801 -0.063974701 0.056220401 0.99636698 2.5769836e-37
-12.2821 -31.352699 443.97601 -0.059088401 0.040773001 0.99742001 2.5769836e-37
-12.0536 -33.137299 444.03101 -0.0544695 0.0250073 0.99820203 2.5769836e-37
-11.8403 -34.924 444.07599 -0.050013602 0.0092439596 0.99870598 2.5769836e-37
-11.3703 -36.658199 444.18399 -0.0446399 -0.00749123 0.99897498 2.5769836e-37
-11.2431 -38.452301 444.11301 -0.0404617 -0.0248468 0.99887198 2.5769836e-37
-10.8275 -40.203602 444.11401 -0.037181102 -0.042968001 0.998384 2.5769836e-37
-10.6802 -41.992901 443.98401 -0.0352556 -0.0614493 0.99748701 2.5769836e-37
-10.1643 -43.716999 443.948 -0.0375937 -0.0793956 0.99613398 2.5769836e-37
-10.0736 -45.501099 443.72699 -0.038558301 -0.098142996 0.994425 2.5769836e-37
-9.5660105 -47.223999 443.60901 -0.0336705 -0.115895 0.99269098 2.5769836e-37
-9.0690002 -48.944801 443.42999 -0.0293067 -0.13337401 0.990632 2.5769836e-37
-8.9495296 -50.709702 443.09799 -0.029164299 -0.15015399 0.98823202 2.5769836e-37
-8.4029303 -52.412998 442.897 -0.021608301 -0.16525801 0.98601401 2.5769836e-37
-8.1987801 -54.150902 442.47501 -0.0169413 -0.18037499 0.98345202 2.5769836e-37
-7.6557598 -55.844501 442.198 -0.0073543801 -0.195324 0.98071098 2.5769836e-37
-7.12251 -57.525101 441.836 0.00261611 -0.21039 0.97761399 2.5769836e-37
-6.5391002 -59.196201 441.509 0.0132179 -0.22558101 0.97413498 2.5769836e-37
-5.9588799 -60.857498 441.13 0.021655601 -0.240511 0.97040498 2.5769836e-37
-5.5840101 -62.5378 440.60501 0.0267627 -0.25460199 0.966676 2.5769836e-37
-4.87567 -64.150497 440.23401 0.027951499 -0.266875 0.96332598 2.5769836e-37
-4.4953699 -65.809502 439.64801 0.0239888 -0.27773401 0.96035898 2.5769836e-37
