# .PCD v0.7 - Point Cloud Data file format
VERSION 0.7
FIELDS x y z normal_x normal_y normal_z curvature
SIZE 4 4 4 4 4 4 4
TYPE F F F F F F F
COUNT 1 1 1 1 1 1 1
WIDTH 152
HEIGHT 1
VIEWPOINT 0 0 0 1 0 0 0
POINTS 152
DATA ascii
-12.0328 36.383301 370.078 -0.53422099 -0.189381 -0.82385802 6.1258881e-37
-11.1258 37.713402 369.27301 -0.54918998 -0.189152 -0.81401002 6.1258881e-37
-9.7066898 38.202 368.27899 -0.55435503 -0.193278 -0.80952698 6.1258881e-37
-8.5600405 38.8927 367.07599 -0.55565399 -0.189418 -0.80954897 6.1258881e-37
-6.9489498 40.2691 366 -0.55089098 -0.17503101 -0.81601697 6.1258881e-37
-6.1023798 41.649601 365.21399 -0.54333699 -0.15887301 -0.82434499 6.1258881e-37
-5.0364699 42.509201 364.04599 -0.53207499 -0.14382499 -0.83439201 6.1258881e-37
-3.70028 43.278198 363.116 -0.50260299 -0.13251001 -0.85430199 6.1258881e-37
-2.52107 44.398602 362.34601 -0.46498901 -0.119277 -0.87724501 6.1258881e-37
-1.46497 45.688202 361.66599 -0.42877501 -0.103562 -0.89745599 6.1258881e-37
-0.565718 47.134201 361.08301 -0.39559099 -0.087574698 -0.91424203 6.1258881e-37
0.616108 48.372398 360.526 -0.35456699 -0.071992598 -0.93225503 6.1258881e-37
2.06355 49.2817 359.96201 -0.30748501 -0.057958402 -0.94978601 6.1258881e-37
3.3271999 50.481499 359.51099 -0.27015099 -0.0415374 -0.96192098 6.1258881e-37
4.2688098 52.0079 359.358 -0.24896 -0.023525899 -0.96822798 6.1258881e-37
5.59484 53.1847 359.04599 -0.22648799 -0.0081195198 -0.97398001 6.1258881e-37
7.03934 54.119099 358.517 -0.20646299 0.0031663501 -0.97844899 6.1258881e-37
8.3252497 55.354099 358.26901 -0.19265901 0.0143224 -0.981161 6.1258881e-37
9.8278503 56.323399 358.06299 -0.181004 0.020266199 -0.98327398 6.1258881e-37
11.3546 57.241199 357.80499 -0.17747 0.023184201 -0.98385298 6.1258881e-37
12.6076 58.517601 357.603 -0.18149699 0.0219614 -0.98314601 6.1258881e-37
14.0979 59.487301 357.323 -0.182319 0.021834301 -0.982997 6.1258881e-37
15.4738 60.622501 357.08099 -0.17980701 0.0265317 -0.98334402 6.1258881e-37
16.8909 61.719601 356.91299 -0.17346101 0.035745502 -0.98419201 6.1258881e-37
18.500601 62.459999 356.59601 -0.164717 0.049724199 -0.98508698 6.1258881e-37
20.0509 63.364101 356.457 -0.122401 0.065307103 -0.99032998 6.1258881e-37
21.579201 64.313599 356.40601 -0.072091296 0.083920002 -0.99386102 6.1258881e-37
23.1178 65.245697 356.46799 -0.019437101 0.104749 -0.99430901 6.1258881e-37
24.684099 66.130096 356.53699 0.033959799 0.12643 -0.99139398 6.1258881e-37
25.7327 67.5411 356.923 0.077740699 0.147018 -0.98607397 6.1258881e-37
27.410801 68.1763 357.06699 0.122009 0.16734301 -0.97832 6.1258881e-37
28.9666 68.998398 357.44601 0.149855 0.18664201 -0.97093201 6.1258881e-37
30.4394 69.977402 357.78101 0.16962001 0.20263 -0.96445298 6.1258881e-37
32.011799 69.125198 357.98499 0.179516 0.198715 -0.963476 6.1258881e-37
32.5056 67.4235 357.668 0.18644901 0.18250801 -0.96536398 6.1258881e-37
33.243599 65.7845 357.57501 0.20132001 0.165234 -0.96548802 6.1258881e-37
33.926998 64.120796 357.50201 0.212735 0.148349 -0.965783 6.1258881e-37
34.349701 62.391602 357.23499 0.214726 0.133389 -0.96752298 6.1258881e-37
34.902199 60.686699 357.06699 0.215487 0.119714 -0.96914101 6.1258881e-37
35.402901 58.962002 356.94601 0.21546499 0.106728 -0.97066098 6.1258881e-37
36.210201 57.3563 357.04599 0.21759599 0.095744997 -0.971331 6.1258881e-37
36.740299 55.636799 356.99899 0.219063 0.0833942 -0.97214001 6.1258881e-37
37.285999 53.921501 357.00699 0.22158401 0.065594397 -0.97293299 6.1258881e-37
37.9352 52.245998 357.11301 0.22813 0.047519401 -0.97246999 6.1258881e-37
38.523201 50.552799 357.27899 0.23656499 0.029286301 -0.971174 6.1258881e-37
39.136902 48.8727 357.48001 0.24745999 0.0116608 -0.96882802 6.1258881e-37
39.4701 47.103802 357.47299 0.248046 -0.0054497798 -0.96873301 6.1258881e-37
39.9062 45.359798 357.56201 0.237113 -0.020595601 -0.971264 6.1258881e-37
40.216702 43.587299 357.60599 0.229877 -0.035165899 -0.97258401 6.1258881e-37
40.769798 41.906101 357.93399 0.22032601 -0.048901901 -0.97420001 6.1258881e-37
40.9198 40.112301 357.94 0.217586 -0.066306703 -0.973786 6.1258881e-37
41.327499 38.378399 358.19901 0.21373799 -0.083124802 -0.97334802 6.1258881e-37
41.555801 36.601799 358.37701 0.21240801 -0.100159 -0.97203499 6.1258881e-37
42.134201 34.945 358.77701 0.21035901 -0.116069 -0.97070998 6.1258881e-37
42.570999 33.2402 359.155 0.209868 -0.13189401 -0.96879297 6.1258881e-37
42.663799 31.4524 359.34299 0.210208 -0.147374 -0.96648502 6.1258881e-37
43.101898 29.770399 359.811 0.210061 -0.16244601 -0.96409798 6.1258881e-37
43.0979 27.9793 359.98999 0.210391 -0.18060499 -0.96078998 6.1258881e-37
43.6422 26.369699 360.58401 0.212293 -0.197805 -0.95697701 6.1258881e-37
43.7827 24.613501 360.953 0.21449 -0.215508 -0.952654 6.1258881e-37
43.801498 22.844 361.28201 0.216866 -0.232675 -0.94806701 6.1258881e-37
44.1036 21.1611 361.84399 0.22115301 -0.249589 -0.94275999 6.1258881e-37
44.297901 19.4643 362.41299 0.225862 -0.26613101 -0.93710202 6.1258881e-37
44.4473 17.7451 362.92499 0.23098201 -0.28217399 -0.93114197 6.1258881e-37
44.7463 16.1064 363.60699 0.237938 -0.298437 -0.92429501 6.1258881e-37
44.677502 14.3833 364.12299 0.24178 -0.31402799 -0.91811198 6.1258881e-37
44.4464 12.6427 364.51901 0.24303199 -0.32907599 -0.91249299 6.1258881e-37
44.801201 11.0659 365.31201 0.25042301 -0.344477 -0.90477902 6.1258881e-37
44.7481 9.3701401 365.91299 0.25246099 -0.359624 -0.89829499 6.1258881e-37
44.7267 7.70329 366.59201 0.253997 -0.37467101 -0.89168799 6.1258881e-37
44.691601 6.0458398 367.293 0.25422999 -0.38962501 -0.885189 6.1258881e-37
44.7939 4.5315599 368.26099 0.255797 -0.40304601 -0.87870502 6.1258881e-37
44.2327 2.8392899 368.508 0.24551301 -0.41711801 -0.875063 6.1258881e-37
44.5998 1.4047101 369.53201 0.24744999 -0.429452 -0.868527 6.1258881e-37
44.299999 -0.251508 370.17001 0.238601 -0.445135 -0.86308998 6.1258881e-37
44.152401 -1.8605601 370.96301 0.230949 -0.46103501 -0.85680199 6.1258881e-37
43.759899 -3.47346 371.659 0.220385 -0.478259 -0.85011703 6.1258881e-37
43.921001 -4.9483399 372.67801 0.215285 -0.49360701 -0.84261799 6.1258881e-37
43.8703 -6.4251299 373.70599 0.208042 -0.50815499 -0.83576101 6.1258881e-37
43.3036 -8.0324097 374.285 0.198081 -0.52164 -0.829853 6.1258881e-37
42.920101 -9.5518503 375.17099 0.189937 -0.535604 -0.82283199 6.1258881e-37
42.2355 -10.8394 376.22601 0.182623 -0.550439 -0.81465697 6.1258881e-37
40.738098 -11.8342 376.31699 0.17818999 -0.56094497 -0.80844802 6.1258881e-37
39.3092 -12.873 376.66199 0.175622 -0.570858 -0.802046 6.1258881e-37
38.294201 -14.1772 377.375 0.17569201 -0.58277702 -0.79341298 6.1258881e-37
38.379002 -15.6108 378.461 0.17704301 -0.59783 -0.78182799 6.1258881e-37
38.104801 -17.011499 379.55701 0.179998 -0.61282098 -0.769449 6.1258881e-37
37.759602 -18.4543 380.577 0.183706 -0.62636602 -0.75757301 6.1258881e-37
37.441299 -19.8533 381.664 0.187242 -0.63858402 -0.74642497 6.1258881e-37
37.066101 -21.228201 382.763 0.19069999 -0.64956802 -0.736 6.1258881e-37
36.844002 -22.549 383.966 0.19212499 -0.660092 -0.726201 6.1258881e-37
36.403198 -23.902599 385.06699 0.19357599 -0.66978502 -0.71687901 6.1258881e-37
36.283001 -25.1243 386.384 0.19036099 -0.67942101 -0.70862502 6.1258881e-37
35.0382 -26.272301 386.99399 0.15004499 -0.69199598 -0.70613599 6.1258881e-37
33.612801 -27.2281 387.53699 0.111652 -0.70175201 -0.70361799 6.1258881e-37
31.823601 -27.218599 387.33899 0.073438197 -0.70142901 -0.70894599 6.1258881e-37
30.1157 -26.8311 386.92401 0.040686 -0.69481599 -0.718036 6.1258881e-37
28.5019 -26.3146 386.31601 0.0034696399 -0.68543702 -0.72812402 6.1258881e-37
26.7087 -26.1989 386.21201 -0.035417799 -0.678352 -0.73388302 6.1258881e-37
25.108601 -25.5767 385.67099 -0.072055101 -0.66801703 -0.74065 6.1258881e-37
23.3825 -25.1161 385.45099 -0.109085 -0.65833801 -0.74477601 6.1258881e-37
21.704201 -24.485201 385.29199 -0.138621 -0.64818901 -0.74875599 6.1258881e-37
19.971399 -24.001101 385.23599 -0.146185 -0.64115399 -0.75335997 6.1258881e-37
18.200701 -23.7987 385.48901 -0.15206499 -0.63767701 -0.75514501 6.1258881e-37
16.472099 -23.3295 385.66699 -0.157663 -0.63480002 -0.75642002 6.1258881e-37
14.7374 -22.8531 385.60699 -0.16218799 -0.63278103 -0.757155 6.1258881e-37
13.1998 -22.119499 385.026 -0.17836 -0.62756503 -0.75785899 6.1258881e-37
11.4386 -21.785101 385.18799 -0.202044 -0.62351102 -0.75525701 6.1258881e-37
9.7224998 -21.242001 385.19501 -0.226335 -0.616786 -0.75388902 6.1258881e-37
8.0696001 -20.5305 385.23599 -0.25146601 -0.60808402 -0.75299299 6.1258881e-37
6.3663902 -20.5471 385.819 -0.27761599 -0.60185897 -0.74879599 6.1258881e-37
4.6736398 -20.1936 386.31799 -0.30861399 -0.591524 -0.74488801 6.1258881e-37
3.03036 -19.7735 386.92099 -0.33965999 -0.57965702 -0.740695 6.1258881e-37
1.34039 -19.153999 386.909 -0.37141499 -0.56423402 -0.73735398 6.1258881e-37
-0.26313001 -19.0119 387.71399 -0.39963299 -0.55203801 -0.73181099 6.1258881e-37
-1.9088399 -18.6119 388.32401 -0.428069 -0.53737003 -0.72662902 6.1258881e-37
-3.4865 -18.3505 389.14999 -0.45653701 -0.52299303 -0.71975797 6.1258881e-37
-4.9410801 -18.4834 390.202 -0.48227799 -0.51069599 -0.71175599 6.1258881e-37
-6.4637799 -18.3484 391.15201 -0.511751 -0.49467701 -0.70242798 6.1258881e-37
-7.98105 -17.5105 391.638 -0.53259301 -0.47967201 -0.69732302 6.1258881e-37
-8.5228205 -15.891 391.069 -0.54303998 -0.46981701 -0.69597298 6.1258881e-37
-9.1072302 -14.3104 390.436 -0.55134797 -0.46009099 -0.695939 6.1258881e-37
-9.4663801 -12.7217 389.67001 -0.557046 -0.45041701 -0.69772798 6.1258881e-37
-9.6293297 -11.1647 388.78201 -0.56062502 -0.43964699 -0.70172 6.1258881e-37
-9.78582 -9.5675602 387.966 -0.56355703 -0.429672 -0.70553899 6.1258881e-37
-10.2072 -7.9044199 387.422 -0.56743997 -0.42092901 -0.70769399 6.1258881e-37
-10.1858 -6.43191 386.38699 -0.56841499 -0.41399801 -0.71099198 6.1258881e-37
-10.3732 -4.85149 385.54599 -0.57003701 -0.40710199 -0.71367002 6.1258881e-37
-10.1028 -3.41852 384.491 -0.56906003 -0.40169701 -0.71750301 6.1258881e-37
-10.3378 -1.7694 383.80899 -0.57025403 -0.395807 -0.71982402 6.1258881e-37
-10.5211 -0.113756 383.12701 -0.57082403 -0.390273 -0.72239 6.1258881e-37
-10.4983 1.48153 382.293 -0.57025802 -0.380182 -0.72819501 6.1258881e-37
-10.2674 2.98722 381.33401 -0.56819999 -0.37055501 -0.73473603 6.1258881e-37
-10.3084 4.65909 380.66901 -0.56758797 -0.36060601 -0.74014002 6.1258881e-37
-10.3133 6.3129601 379.95801 -0.56612998 -0.350923 -0.74588901 6.1258881e-37
-10.2487 7.88098 379.077 -0.56347501 -0.341454 -0.752267 6.1258881e-37
-10.2256 9.4672499 378.22601 -0.560377 -0.332174 -0.758708 6.1258881e-37
-10.337 11.1642 377.63599 -0.55667698 -0.3238 -0.76502502 6.1258881e-37
-10.0627 12.6771 376.70001 -0.55247998 -0.31545299 -0.77152801 6.1258881e-37
-10.2065 14.382 376.14099 -0.54776901 -0.30872399 -0.77758503 6.1258881e-37
-10.2944 16.0839 375.56201 -0.54272503 -0.30186301 -0.78379101 6.1258881e-37
-10.5044 17.818701 375.13 -0.53651297 -0.295876 -0.79032397 6.1258881e-37
-10.5085 19.448601 374.366 -0.53190601 -0.288261 -0.79623002 6.1258881e-37
-10.5646 21.1481 373.776 -0.526537 -0.281156 -0.802315 6.1258881e-37
-10.8353 22.9247 373.673 -0.517901 -0.276353 -0.80957198 6.1258881e-37
-10.3041 24.256701 372.58499 -0.52041602 -0.267425 -0.81095701 6.1258881e-37
-10.7224 25.9911 372.34799 -0.51224101 -0.26455399 -0.81708002 6.1258881e-37
-10.7407 27.719 371.84299 -0.51003098 -0.25825301 -0.82047099 6.1258881e-37
-11.2145 29.444201 371.646 -0.50473303 -0.251333 -0.82587898 6.1258881e-37
-11.596 31.176001 371.336 -0.50387597 -0.24058899 -0.82959402 6.1258881e-37
-11.9212 32.924999 371.06201 -0.50744599 -0.22567201 -0.831608 6.1258881e-37
-12.0461 34.6544 370.57901 -0.51810801 -0.207673 -0.82972002 6.1258881e-37
