# .PCD v0.7 - Point Cloud Data file format
VERSION 0.7
FIELDS x y z normal_x normal_y normal_z curvature
SIZE 4 4 4 4 4 4 4
TYPE F F F F F F F
COUNT 1 1 1 1 1 1 1
WIDTH 156
HEIGHT 1
VIEWPOINT 0 0 0 1 0 0 0
POINTS 156
DATA ascii
-43.187199 12.7425 391.55399 -0.27102399 0.20628101 0.94020998 6.1276961e-37
-41.692101 11.8988 392.095 -0.27450001 0.182941 0.94402498 6.1276961e-37
-39.933201 11.9544 392.474 -0.26431099 0.156023 0.95173299 6.1276961e-37
-38.308498 12.5133 393.01001 -0.252599 0.143123 0.956927 6.1276961e-37
-36.6604 13.0792 393.461 -0.23401301 0.13170201 0.96327198 6.1276961e-37
-34.882401 13.1703 393.72699 -0.203099 0.116017 0.97226101 6.1276961e-37
-33.185299 13.6822 394.04001 -0.17666 0.106451 0.97849798 6.1276961e-37
-31.4032 13.8102 394.258 -0.14817899 0.095685698 0.984321 6.1276961e-37
-29.7068 14.3578 394.508 -0.124514 0.092388898 0.98790699 6.1276961e-37
-27.9086 14.3967 394.57901 -0.096336097 0.086158097 0.99161297 6.1276961e-37
-26.18 14.8817 394.70801 -0.067636803 0.084939703 0.99408799 6.1276961e-37
-24.3818 14.8859 394.78799 -0.035925601 0.079732597 0.99616897 6.1276961e-37
-22.5965 15.0693 394.64999 -0.00469629 0.076997399 0.99702001 6.1276961e-37
-20.8479 15.4818 394.76099 0.0244845 0.076643199 0.99675798 6.1276961e-37
-19.0949 15.8899 394.737 0.044143099 0.078012899 0.99597502 6.1276961e-37
-17.3083 16.0879 394.642 0.065212198 0.079024203 0.99473703 6.1276961e-37
-15.5299 16.2103 394.39301 0.087007202 0.080725797 0.99293202 6.1276961e-37
-13.747 16.3445 394.185 0.109474 0.083463401 0.99047899 6.1276961e-37
-11.9953 16.7355 394.048 0.122706 0.088263601 0.98851001 6.1276961e-37
-10.2363 17.0499 393.83099 0.13434801 0.091885298 0.98666501 6.1276961e-37
-8.4914598 16.730101 393.526 0.14516 0.091114298 0.98520398 6.1276961e-37
-6.74405 16.7544 393.09399 0.15600701 0.091961399 0.98346603 6.1276961e-37
-4.9489298 16.830299 392.98599 0.172197 0.092205502 0.98073798 6.1276961e-37
-5.2500901 17.172001 393.07401 0.168898 0.094675802 0.981076 6.1276961e-37
-3.48069 17.2766 392.76099 0.187015 0.094809398 0.97777098 6.1276961e-37
-1.80205 16.7349 392.40201 0.20476601 0.089163996 0.97474098 6.1276961e-37
-0.045745999 17.0082 392.11801 0.22176699 0.088343598 0.97109002 6.1276961e-37
1.66611 16.796 391.603 0.248827 0.081708796 0.96509498 6.1276961e-37
3.3844399 16.9858 391.10199 0.29094899 0.077195302 0.953619 6.1276961e-37
5.1034999 17.0189 390.569 0.33704001 0.0717315 0.93875402 6.1276961e-37
6.7639399 16.9785 389.87601 0.385728 0.065372698 0.92029399 6.1276961e-37
8.3866997 16.8948 389.10101 0.40181601 0.0646827 0.91343302 6.1276961e-37
10.0791 17.1738 388.55499 0.38766301 0.071874499 0.91899502 6.1276961e-37
11.7364 17.223 387.85501 0.37380701 0.080225602 0.92403001 6.1276961e-37
13.3415 17.337999 387.048 0.36100101 0.091364302 0.92807901 6.1276961e-37
13.8625 19.0159 386.65701 0.36839801 0.096627697 0.92463303 6.1276961e-37
14.2868 20.711599 386.22699 0.378234 0.109605 0.91919798 6.1276961e-37
14.7094 22.3995 385.76599 0.38875601 0.127478 0.91247898 6.1276961e-37
14.7066 24.1994 385.789 0.3985 0.140834 0.90629101 6.1276961e-37
15.2947 25.7363 385.05899 0.40688401 0.15652999 0.89996898 6.1276961e-37
15.6 27.4305 384.534 0.41390499 0.17013 0.89428103 6.1276961e-37
15.7249 29.2194 384.37799 0.41806301 0.182236 0.88995099 6.1276961e-37
15.8083 30.9839 384.03201 0.42023101 0.19504499 0.88620698 6.1276961e-37
16.2696 32.581299 383.34299 0.42298001 0.21015599 0.881432 6.1276961e-37
16.3022 34.339901 382.961 0.42418599 0.225545 0.877038 6.1276961e-37
16.7316 35.882198 382.138 0.42590901 0.240134 0.87231702 6.1276961e-37
16.8339 37.6022 381.617 0.42620999 0.25535101 0.86783701 6.1276961e-37
16.859501 39.361599 381.23801 0.42574701 0.27056301 0.86344397 6.1276961e-37
17.0625 40.9021 380.32901 0.42505899 0.28506801 0.85910499 6.1276961e-37
16.8724 42.680801 380.129 0.42331201 0.299665 0.85499001 6.1276961e-37
16.8365 44.385502 379.552 0.42084399 0.31347299 0.85124898 6.1276961e-37
16.7236 46.094398 378.99799 0.41785201 0.32773501 0.84734303 6.1276961e-37
16.9818 47.648602 378.12799 0.41357699 0.34115899 0.84413499 6.1276961e-37
16.894699 49.327801 377.48499 0.40955999 0.35582501 0.840029 6.1276961e-37
16.9069 50.946499 376.698 0.40489399 0.370318 0.83601803 6.1276961e-37
16.8127 52.5924 375.97601 0.400686 0.385061 0.83137202 6.1276961e-37
16.5616 54.291302 375.436 0.398027 0.39950201 0.82581598 6.1276961e-37
16.4102 55.922501 374.69 0.39470801 0.41358501 0.82045901 6.1276961e-37
16.2321 57.546902 373.936 0.391693 0.427975 0.814502 6.1276961e-37
16.1096 59.133801 373.095 0.38801801 0.44270399 0.808366 6.1276961e-37
15.8462 60.765499 372.38199 0.38570699 0.457818 0.80102003 6.1276961e-37
15.8261 62.199902 371.29501 0.37994701 0.473133 0.79484898 6.1276961e-37
15.4629 63.803101 370.56201 0.377794 0.48913699 0.78614002 6.1276961e-37
14.9689 65.415901 369.93301 0.37681299 0.503838 0.77727699 6.1276961e-37
14.4403 66.9935 369.246 0.37571999 0.51753402 0.76876098 6.1276961e-37
14.2034 68.488098 368.272 0.37057799 0.531591 0.76163203 6.1276961e-37
13.8483 69.997704 367.358 0.36677101 0.54579198 0.75338602 6.1276961e-37
13.5379 71.432602 366.31601 0.36203301 0.55998498 0.74521703 6.1276961e-37
13.0716 72.894096 365.375 0.359862 0.57397699 0.73556101 6.1276961e-37
12.4033 74.411797 364.67499 0.36279801 0.58685201 0.72386599 6.1276961e-37
12.0698 75.786102 363.561 0.359806 0.599195 0.715195 6.1276961e-37
11.3311 77.275002 362.87 0.35708901 0.611853 0.70577902 6.1276961e-37
10.9014 78.585197 361.71301 0.35158101 0.62455601 0.69736701 6.1276961e-37
10.244 79.999901 360.815 0.34816301 0.63706499 0.68769997 6.1276961e-37
9.4036102 81.408096 360.073 0.346432 0.64896899 0.67736501 6.1276961e-37
8.9561796 82.713097 358.91699 0.342435 0.66161799 0.66708302 6.1276961e-37
8.4120302 83.989098 357.76999 0.33854201 0.67452103 0.656057 6.1276961e-37
7.6276398 85.355103 356.89899 0.335109 0.685498 0.64636999 6.1276961e-37
6.8347301 86.666702 355.95499 0.330127 0.69509202 0.63864201 6.1276961e-37
6.09726 87.932198 354.909 0.323311 0.704633 0.63163501 6.1276961e-37
5.39925 89.117302 353.74701 0.31455699 0.71424901 0.62522203 6.1276961e-37
4.3003602 90.406502 353.13901 0.30820099 0.72415298 0.61694002 6.1276961e-37
3.3916199 91.569298 352.108 0.30192301 0.73313999 0.609384 6.1276961e-37
1.71452 92.215202 352.20901 0.304566 0.73887998 0.60107797 6.1276961e-37
0.0182066 92.566597 352.698 0.308429 0.741108 0.59634799 6.1276961e-37
-1.67354 93.177803 352.76401 0.298125 0.74764901 0.59341502 6.1276961e-37
-3.39252 93.7118 352.76501 0.26822001 0.75683302 0.596039 6.1276961e-37
-5.07723 94.345596 352.76099 0.24169201 0.76237702 0.60030502 6.1276961e-37
-6.80722 94.842598 352.74899 0.21807601 0.763228 0.60821497 6.1276961e-37
-8.5065498 95.403801 352.556 0.196826 0.761244 0.61787301 6.1276961e-37
-10.2445 95.825104 352.76099 0.160136 0.75845701 0.63174403 6.1276961e-37
-12.0249 96.089798 352.754 0.121864 0.75710398 0.641828 6.1276961e-37
-13.8007 96.382698 352.72299 0.082073599 0.756818 0.648453 6.1276961e-37
-15.5728 96.663803 352.57901 0.044874601 0.757263 0.65156603 6.1276961e-37
-17.268299 97.103798 352.16501 0.047869802 0.75799 0.65050697 6.1276961e-37
-19.057899 97.296898 352.15701 0.049586199 0.75947398 0.64864498 6.1276961e-37
-20.8426 97.385902 351.94 0.050544199 0.76400697 0.64322501 6.1276961e-37
-22.6357 97.484398 352.06299 0.052724902 0.77072197 0.63498598 6.1276961e-37
-24.3508 97.945297 351.76901 0.042138599 0.77993298 0.62444299 6.1276961e-37
-26.001699 98.283401 351.13699 0.0317064 0.78702599 0.61610401 6.1276961e-37
-27.587099 97.912804 351.90399 0.023066999 0.78403097 0.62029302 6.1276961e-37
-28.566099 96.939201 353.05899 0.0113913 0.776124 0.63047701 6.1276961e-37
-29.4702 95.974297 354.28 -0.0079225898 0.76726103 0.64128602 6.1276961e-37
-30.0833 94.964203 355.638 -0.027401499 0.75768 0.65205097 6.1276961e-37
-31.049801 93.885902 356.707 -0.053440899 0.74736398 0.66226202 6.1276961e-37
-31.9592 92.7248 357.73901 -0.075860098 0.735663 0.67308599 6.1276961e-37
-32.949402 91.678802 358.819 -0.0979174 0.72245902 0.68444502 6.1276961e-37
-33.543701 90.471802 360.01501 -0.112873 0.70692199 0.69822699 6.1276961e-37
-34.124901 89.222397 361.173 -0.128188 0.687765 0.714526 6.1276961e-37
-34.6702 87.890404 362.254 -0.144949 0.66255999 0.73484898 6.1276961e-37
-35.272301 86.541496 363.28201 -0.16541301 0.63704997 0.75286502 6.1276961e-37
-36.078602 85.193901 364.16199 -0.190908 0.61105198 0.76822501 6.1276961e-37
-36.341202 83.840302 365.319 -0.20806301 0.58798802 0.78165197 6.1276961e-37
-36.995602 82.386803 366.155 -0.232447 0.563658 0.79262799 6.1276961e-37
-37.305199 80.890099 367.10599 -0.25042 0.54245698 0.80189198 6.1276961e-37
-37.4823 79.3741 368.06 -0.26423001 0.52791399 0.80714899 6.1276961e-37
-37.931999 77.792198 368.79199 -0.280871 0.51407301 0.81045699 6.1276961e-37
-38.188702 76.285896 369.74301 -0.29050601 0.50274003 0.814161 6.1276961e-37
-38.435001 74.676697 370.51099 -0.29760599 0.49237701 0.817922 6.1276961e-37
-38.4062 73.101799 371.38199 -0.29732201 0.483426 0.82334602 6.1276961e-37
-38.534599 71.511002 372.215 -0.296114 0.47458899 0.82890397 6.1276961e-37
-38.404202 70.035301 373.237 -0.28896701 0.46549001 0.83655101 6.1276961e-37
-38.182499 68.546501 374.224 -0.281728 0.45475101 0.84488499 6.1276961e-37
-38.2533 66.9263 375.005 -0.27911001 0.444516 0.85117799 6.1276961e-37
-37.879799 65.463799 375.98599 -0.27522901 0.43479499 0.85743898 6.1276961e-37
-37.662498 63.885601 376.82401 -0.274243 0.42543 0.86243802 6.1276961e-37
-37.255299 62.354198 377.677 -0.27364701 0.41701099 0.86672902 6.1276961e-37
-37.063301 60.746201 378.46301 -0.27504501 0.40850699 0.87032902 6.1276961e-37
-36.616402 59.2234 379.31299 -0.275594 0.40110701 0.87359101 6.1276961e-37
-36.233101 57.652599 380.104 -0.27673599 0.392167 0.87728101 6.1276961e-37
-35.9641 56.0219 380.81699 -0.27896899 0.38294801 0.88063997 6.1276961e-37
-35.445301 54.549 381.71201 -0.27919799 0.375249 0.88387603 6.1276961e-37
-34.887798 52.997898 382.435 -0.27870801 0.36772299 0.887187 6.1276961e-37
-34.332199 51.552601 383.353 -0.276205 0.360576 0.89089602 6.1276961e-37
-34.966 49.936401 383.828 -0.286019 0.34985399 0.89207399 6.1276961e-37
-35.438301 48.247601 384.23401 -0.29546899 0.33895299 0.89320099 6.1276961e-37
-35.5042 46.567001 384.87601 -0.30037701 0.329662 0.89503998 6.1276961e-37
-35.595001 44.882599 385.504 -0.30466801 0.32041401 0.89694601 6.1276961e-37
-35.684898 43.172298 386.05801 -0.30843699 0.31110099 0.89893401 6.1276961e-37
-36.100399 41.460899 386.42999 -0.31674999 0.30120999 0.89941198 6.1276961e-37
-36.1633 39.747501 386.978 -0.319105 0.29205701 0.90159601 6.1276961e-37
-36.171501 38.050499 387.578 -0.31971899 0.283023 0.90425497 6.1276961e-37
-36.773602 36.3671 387.78699 -0.33039999 0.27342999 0.90336698 6.1276961e-37
-37.128399 34.6446 388.17099 -0.33666399 0.26748201 0.90283501 6.1276961e-37
-37.307201 32.904499 388.595 -0.33930001 0.26264301 0.90326899 6.1276961e-37
-37.439701 31.1924 389.13501 -0.33936799 0.257745 0.90465301 6.1276961e-37
-37.830502 29.4674 389.46799 -0.342904 0.252947 0.90467399 6.1276961e-37
-38.571999 27.8297 389.55899 -0.35089901 0.249383 0.90259498 6.1276961e-37
-38.918499 26.118099 389.995 -0.350142 0.245436 0.90397 6.1276961e-37
-39.660599 24.4788 390.04001 -0.354435 0.243826 0.90273201 6.1276961e-37
-40.2388 22.779301 390.172 -0.352341 0.234888 0.90591598 6.1276961e-37
-40.680599 21.084801 390.58899 -0.34512401 0.22245599 0.91181302 6.1276961e-37
-41.121498 19.365801 390.89001 -0.33735001 0.212015 0.91719401 6.1276961e-37
-42.144299 17.899401 390.681 -0.337405 0.21080001 0.917454 6.1276961e-37
-42.456299 16.1803 391.11401 -0.324462 0.203135 0.92382902 6.1276961e-37
-43.113701 14.5073 391.207 -0.30850601 0.20577601 0.928698 6.1276961e-37
