# .PCD v0.7 - Point Cloud Data file format
VERSION 0.7
FIELDS x y z normal_x normal_y normal_z curvature
SIZE 4 4 4 4 4 4 4
TYPE F F F F F F F
COUNT 1 1 1 1 1 1 1
WIDTH 67
HEIGHT 1
VIEWPOINT 0 0 0 1 0 0 0
POINTS 67
DATA ascii
14.9004 49.8647 326.18701 -0.082854897 -0.487104 -0.86940497 2.8034729e-37
14.9032 48.2575 326.99799 -0.00247562 -0.47490901 -0.88003099 2.8034729e-37
14.7796 46.717098 327.92099 0.040406801 -0.48087999 -0.87585503 2.8034729e-37
14.7423 45.227001 328.92999 0.068678796 -0.49712801 -0.86495501 2.8034729e-37
14.4516 43.656502 329.76001 0.061283801 -0.501724 -0.862854 2.8034729e-37
14.0335 42.056999 330.47198 0.0251927 -0.51485002 -0.85690999 2.8034729e-37
13.3084 40.672298 331.36401 -0.064664997 -0.53320003 -0.84351403 2.8034729e-37
12.3931 39.442101 332.30701 -0.13692699 -0.54619902 -0.826388 2.8034729e-37
11.7868 38.082401 333.319 -0.157708 -0.56117898 -0.81253099 2.8034729e-37
11.3933 36.669498 334.362 -0.165718 -0.57621098 -0.80032402 2.8034729e-37
11.2461 35.245701 335.45401 -0.158779 -0.59180099 -0.79029202 2.8034729e-37
10.8602 33.888802 336.57199 -0.15795501 -0.59755301 -0.78611702 2.8034729e-37
10.7355 32.569 337.789 -0.144825 -0.60629803 -0.78193903 2.8034729e-37
10.0475 31.2395 338.789 -0.16005901 -0.60881698 -0.77699602 2.8034729e-37
10.0926 29.8613 339.94601 -0.147633 -0.62141401 -0.76944798 2.8034729e-37
9.4793701 28.5835 341.05499 -0.178856 -0.62903202 -0.75652498 2.8034729e-37
9.4987001 27.221901 342.23199 -0.17475 -0.64303499 -0.74563301 2.8034729e-37
9.4349804 25.9333 343.48801 -0.176321 -0.65408999 -0.73557901 2.8034729e-37
9.6588297 24.680599 344.76099 -0.16616 -0.658674 -0.73385203 2.8034729e-37
9.0191898 23.3566 345.79901 -0.19752599 -0.65940601 -0.72537398 2.8034729e-37
8.9703197 22.008499 346.991 -0.200004 -0.66553903 -0.71906602 2.8034729e-37
9.05439 20.957199 347.983 -0.18853 -0.68674499 -0.70202398 2.8034729e-37
8.9960499 19.7064 349.276 -0.18503401 -0.70454299 -0.68511403 2.8034729e-37
8.8753996 18.5193 350.62399 -0.19141699 -0.714957 -0.67245501 2.8034729e-37
7.9653702 17.532 351.823 -0.239786 -0.710455 -0.661632 2.8034729e-37
6.42976 18.462099 351.69299 -0.33107701 -0.68288898 -0.651191 2.8034729e-37
5.2444401 19.6383 351.021 -0.37774 -0.664478 -0.64481097 2.8034729e-37
3.7416601 20.628099 350.97501 -0.42944601 -0.64487702 -0.63222599 2.8034729e-37
2.3616199 21.7792 350.87299 -0.45879501 -0.63006598 -0.626517 2.8034729e-37
1.1429501 23.036301 350.45499 -0.465269 -0.62423801 -0.62757599 2.8034729e-37
-0.075675897 24.3419 350.23199 -0.46485499 -0.62142402 -0.63066798 2.8034729e-37
-0.68633902 25.699499 349.22 -0.45884901 -0.62328899 -0.63322097 2.8034729e-37
-1.77264 26.975599 348.56299 -0.444583 -0.63035202 -0.63639802 2.8034729e-37
-2.5741301 28.354799 347.729 -0.43948999 -0.62860501 -0.64164197 2.8034729e-37
-3.2557001 29.756599 346.82901 -0.444029 -0.61060601 -0.65574199 2.8034729e-37
-4.13585 31.2148 346.246 -0.458808 -0.59075397 -0.663706 2.8034729e-37
-4.7877202 32.685299 345.43799 -0.47199801 -0.5704 -0.672207 2.8034729e-37
-5.1749301 34.127499 344.43301 -0.47821799 -0.55774498 -0.67840099 2.8034729e-37
-5.6861501 35.634998 343.59299 -0.48541501 -0.54546797 -0.68325502 2.8034729e-37
-5.9816599 37.125 342.62701 -0.48701501 -0.53483897 -0.69047999 2.8034729e-37
-6.7874999 38.632301 342.06299 -0.49459201 -0.52798498 -0.69037002 2.8034729e-37
-7.2957301 40.181301 341.29999 -0.50062001 -0.52172798 -0.69078201 2.8034729e-37
-7.5973401 41.6772 340.345 -0.50548601 -0.51563001 -0.69181699 2.8034729e-37
-7.66399 43.143799 339.30399 -0.50802797 -0.50871497 -0.69506598 2.8034729e-37
-8.0575199 44.6898 338.47 -0.51521599 -0.49822399 -0.69736999 2.8034729e-37
-8.9214296 46.2033 338.01901 -0.52663302 -0.48805299 -0.696033 2.8034729e-37
-9.5578499 47.849499 337.66599 -0.53164399 -0.48189601 -0.69651401 2.8034729e-37
-9.8946304 49.364799 336.755 -0.52912402 -0.480073 -0.69968402 2.8034729e-37
-10.0763 50.877899 335.797 -0.52571601 -0.477705 -0.70386201 2.8034729e-37
-10.1033 52.359798 334.77499 -0.522439 -0.47408 -0.70873499 2.8034729e-37
-9.7849903 53.710899 333.629 -0.518305 -0.46393701 -0.71841598 2.8034729e-37
-10.0412 55.2817 332.789 -0.51620299 -0.45738101 -0.72411197 2.8034729e-37
-10.0319 56.803699 331.828 -0.51592898 -0.45138001 -0.72806102 2.8034729e-37
-8.4876299 56.165001 331.159 -0.50330299 -0.452259 -0.73630702 2.8034729e-37
-6.9244099 55.818298 330.33701 -0.47551399 -0.449579 -0.75615197 2.8034729e-37
-5.4819999 54.789799 330.01801 -0.45437899 -0.44703799 -0.770518 2.8034729e-37
-3.8664 54.204601 329.48199 -0.429497 -0.43985799 -0.788706 2.8034729e-37
-2.2985799 53.385101 329.14999 -0.40109199 -0.43701699 -0.80507201 2.8034729e-37
-0.71348602 52.6217 328.76901 -0.36351901 -0.438575 -0.82189202 2.8034729e-37
0.97980303 52.284901 328.26001 -0.31553501 -0.43973601 -0.84087503 2.8034729e-37
2.6808901 51.781601 327.95499 -0.28299201 -0.439082 -0.85271502 2.8034729e-37
4.4183798 51.495998 327.58099 -0.263908 -0.43988001 -0.85840499 2.8034729e-37
6.1150799 50.973598 327.284 -0.243948 -0.445283 -0.86151701 2.8034729e-37
7.8579102 50.659401 326.96201 -0.227771 -0.444231 -0.86647499 2.8034729e-37
9.5818701 50.175598 326.77802 -0.20122799 -0.43369099 -0.87830502 2.8034729e-37
11.3428 50.299999 326.42599 -0.15024801 -0.428763 -0.89083499 2.8034729e-37
13.1334 50.196499 326.27499 -0.099629402 -0.43891501 -0.89298803 2.8034729e-37
