# .PCD v0.7 - Point Cloud Data file format
VERSION 0.7
FIELDS x y z normal_x normal_y normal_z curvature
SIZE 4 4 4 4 4 4 4
TYPE F F F F F F F
COUNT 1 1 1 1 1 1 1
WIDTH 93
HEIGHT 1
VIEWPOINT 0 0 0 1 0 0 0
POINTS 93
DATA ascii
55.884499 -13.4979 406.83801 0.57745898 0.21948899 0.78636199 1.9536825e-37
56.0163 -11.8024 406.24899 0.58402598 0.249625 0.77239901 1.9536825e-37
56.1987 -10.2671 405.327 0.587466 0.27957901 0.75942099 1.9536825e-37
56.0933 -8.5565701 404.776 0.58630401 0.310711 0.74813598 1.9536825e-37
55.993599 -6.87848 404.133 0.58175701 0.343072 0.73746902 1.9536825e-37
55.786598 -5.1862798 403.55499 0.573704 0.37689799 0.72719502 1.9536825e-37
55.381699 -3.4976299 403.082 0.56268799 0.41232899 0.716497 1.9536825e-37
54.997398 -1.86283 402.43399 0.54923898 0.448513 0.70510501 1.9536825e-37
54.4613 -0.25207901 401.83499 0.53483701 0.47430101 0.69927698 1.9536825e-37
53.757999 1.28916 401.22699 0.52266902 0.48203301 0.70318002 1.9536825e-37
53.015202 2.81828 400.63501 0.51206303 0.48879701 0.70630699 1.9536825e-37
52.210098 4.3480701 400.134 0.50299603 0.49516299 0.70838398 1.9536825e-37
51.137798 5.7937698 400.129 0.49761701 0.50297898 0.70667499 1.9536825e-37
50.088402 7.21908 399.80099 0.491386 0.50976503 0.706173 1.9536825e-37
48.881302 8.5499897 399.90799 0.48784801 0.51808 0.70256501 1.9536825e-37
47.6558 9.8148603 399.53601 0.48214999 0.52629298 0.70038998 1.9536825e-37
46.3302 11.0325 399.53699 0.47456399 0.53773499 0.696872 1.9536825e-37
44.907501 12.1352 399.547 0.44560701 0.55651402 0.70123202 1.9536825e-37
43.449799 13.191 399.56799 0.41725799 0.57457697 0.70410001 1.9536825e-37
41.9524 14.1887 399.521 0.389725 0.59167999 0.70571101 1.9536825e-37
40.378799 15.0472 399.685 0.36324099 0.607921 0.70603698 1.9536825e-37
40.099499 15.1089 400.12701 0.35936499 0.610385 0.70589501 1.9536825e-37
38.4454 15.8157 400.194 0.33404499 0.62485099 0.70567399 1.9536825e-37
36.7756 16.406 400.51599 0.310157 0.63751501 0.70525002 1.9536825e-37
35.070499 16.9307 400.755 0.286982 0.64879203 0.704777 1.9536825e-37
33.3825 17.260401 401.28601 0.26521799 0.65744901 0.70528102 1.9536825e-37
31.617001 17.531601 401.508 0.238994 0.66540301 0.707192 1.9536825e-37
29.9149 17.639601 402.08401 0.212843 0.66930801 0.71184599 1.9536825e-37
28.156799 17.711201 402.46301 0.18506999 0.67114002 0.71785802 1.9536825e-37
26.358801 17.688499 402.54501 0.156508 0.67082798 0.72491097 1.9536825e-37
24.7729 17.3867 403.341 0.126146 0.665721 0.735461 1.9536825e-37
23.241199 16.9802 404.19501 0.093471304 0.65852201 0.74673402 1.9536825e-37
21.508699 16.611401 404.51501 0.0575183 0.65000099 0.75775301 1.9536825e-37
19.848101 16.148001 405.03201 0.019069601 0.639175 0.76882499 1.9536825e-37
18.3183 15.4601 405.685 0.0063525601 0.62746799 0.77861702 1.9536825e-37
16.702299 14.7983 406.12201 -0.0041450602 0.61615098 0.78761703 1.9536825e-37
15.2542 13.9313 406.74701 -0.016635099 0.605937 0.79533899 1.9536825e-37
13.9297 12.9667 407.49301 -0.0303999 0.59656399 0.80198902 1.9536825e-37
12.7665 11.9257 408.38901 -0.04558 0.58809602 0.80750602 1.9536825e-37
11.3693 10.8257 408.668 -0.060545601 0.57764798 0.81403798 1.9536825e-37
10.3355 9.5523701 409.409 -0.078981496 0.568887 0.81861401 1.9536825e-37
9.3104696 8.2397203 410.09201 -0.099459201 0.559282 0.82298899 1.9536825e-37
8.6058998 6.8808699 411.039 -0.121591 0.55154502 0.82523602 1.9536825e-37
7.7614298 5.4889002 411.80701 -0.14738999 0.530366 0.834858 1.9536825e-37
7.0339198 4.01371 412.53799 -0.173361 0.49789399 0.84973401 1.9536825e-37
6.4522901 2.49296 413.306 -0.196156 0.46655801 0.86246502 1.9536825e-37
5.8171501 0.89410001 413.83499 -0.2168 0.435868 0.87350798 1.9536825e-37
5.4724898 -0.66860998 414.659 -0.23056 0.40705699 0.883825 1.9536825e-37
5.43262 -2.1263299 415.71399 -0.236148 0.380036 0.894319 1.9536825e-37
4.7666202 -3.79583 415.61801 -0.243992 0.35469201 0.90258598 1.9536825e-37
4.8334198 -5.4524298 416.319 -0.244757 0.32628599 0.91303402 1.9536825e-37
5.1756301 -7.03478 417.10599 -0.235801 0.29618701 0.925565 1.9536825e-37
5.2870302 -8.7490101 417.64401 -0.22583 0.263854 0.93775398 1.9536825e-37
5.6347599 -10.4143 418.23199 -0.21116 0.24208701 0.946998 1.9536825e-37
5.9761801 -12.1302 418.655 -0.196465 0.223821 0.95462298 1.9536825e-37
6.5871 -13.7362 419.19101 -0.180851 0.203655 0.96219403 1.9536825e-37
7.0910201 -15.4386 419.487 -0.165777 0.18341701 0.96895599 1.9536825e-37
7.8073602 -17.054899 419.82599 -0.15043101 0.16142599 0.97535199 1.9536825e-37
8.6960497 -18.5872 420.146 -0.135368 0.13798299 0.98114002 1.9536825e-37
9.8360901 -19.922701 420.54199 -0.121414 0.113282 0.98611701 1.9536825e-37
10.9632 -21.2969 420.82599 -0.107503 0.087225601 0.99037099 1.9536825e-37
12.277 -22.494301 421.10999 -0.094940297 0.060182899 0.993662 1.9536825e-37
13.4813 -23.830601 421.17001 -0.0812741 0.030904001 0.99621302 1.9536825e-37
14.9154 -24.9072 421.327 -0.069721401 0.00090839202 0.99756598 1.9536825e-37
16.299101 -26.0578 421.36499 -0.057301998 -0.0317178 0.99785298 1.9536825e-37
17.892599 -26.850901 421.633 -0.029872799 -0.061060201 0.99768698 1.9536825e-37
19.3873 -27.8522 421.577 0.00488724 -0.073930301 0.99725097 1.9536825e-37
21.028601 -28.5912 421.569 0.036010001 -0.086575799 0.99559402 1.9536825e-37
22.5478 -29.4751 421.17999 0.065337598 -0.093193904 0.99350202 1.9536825e-37
24.304199 -29.868299 421.164 0.091536999 -0.103087 0.99045098 1.9536825e-37
25.870899 -30.648399 420.74301 0.11747 -0.104846 0.987526 1.9536825e-37
27.666901 -30.7353 420.659 0.141225 -0.112278 0.98359001 1.9536825e-37
29.4519 -30.883101 420.48099 0.165573 -0.116293 0.97931701 1.9536825e-37
31.157801 -31.211 420.009 0.192039 -0.115671 0.97454703 1.9536825e-37
32.9398 -31.0212 419.84 0.21991 -0.119105 0.96822202 1.9536825e-37
34.648201 -31.163401 419.29199 0.24953701 -0.116275 0.96135902 1.9536825e-37
36.357899 -31.1516 418.729 0.28078601 -0.112761 0.95312297 1.9536825e-37
38.0574 -30.6455 418.41901 0.31377 -0.112681 0.94278902 1.9536825e-37
39.623901 -30.687901 417.534 0.34771901 -0.103352 0.931885 1.9536825e-37
41.217701 -30.0567 416.98499 0.38633001 -0.0955415 0.91739899 1.9536825e-37
42.774101 -29.534401 416.24701 0.42969999 -0.070965797 0.90017903 1.9536825e-37
44.237598 -28.5893 415.79401 0.46160701 -0.043644499 0.88600999 1.9536825e-37
45.6964 -27.957701 414.95001 0.47016099 -0.016134899 0.882433 1.9536825e-37
46.943199 -26.782 414.39899 0.482593 0.0087044397 0.87580198 1.9536825e-37
48.233799 -25.7644 413.66501 0.49123901 0.031861 0.87044197 1.9536825e-37
49.4156 -24.593201 412.978 0.499881 0.053012799 0.86447001 1.9536825e-37
50.505501 -23.4021 412.18201 0.50771701 0.072761297 0.858446 1.9536825e-37
51.574501 -22.201401 411.37299 0.51513201 0.091474302 0.85221601 1.9536825e-37
52.4422 -20.734501 410.79401 0.52453601 0.108287 0.84447402 1.9536825e-37
53.266998 -19.2561 410.18201 0.53406698 0.124465 0.83622998 1.9536825e-37
54.0989 -17.8675 409.39499 0.543607 0.140626 0.82747602 1.9536825e-37
54.8666 -16.5119 408.49301 0.554061 0.15642899 0.81764698 1.9536825e-37
55.486 -15.0863 407.58499 0.566962 0.188447 0.80189902 1.9536825e-37
