# .PCD v0.7 - Point Cloud Data file format
VERSION 0.7
FIELDS x y z normal_x normal_y normal_z curvature
SIZE 4 4 4 4 4 4 4
TYPE F F F F F F F
COUNT 1 1 1 1 1 1 1
WIDTH 209
HEIGHT 1
VIEWPOINT 0 0 0 1 0 0 0
POINTS 209
DATA ascii
65.039703 -52.562801 401.70401 -0.28886899 -0.246591 -0.92506599 1.9536825e-37
63.3904 -52.483898 402.42099 -0.292768 -0.241973 -0.92505997 1.9536825e-37
61.8209 -53.029999 403.11301 -0.295596 -0.23849 -0.92506498 1.9536825e-37
60.110001 -52.588299 403.45599 -0.302394 -0.23280001 -0.924317 1.9536825e-37
58.4184 -52.631901 404.069 -0.30568799 -0.22891399 -0.92420399 1.9536825e-37
56.849098 -53.055901 404.84201 -0.301754 -0.22819699 -0.92567301 1.9536825e-37
55.1754 -53.473099 405.35699 -0.29786801 -0.22732501 -0.927145 1.9536825e-37
53.457901 -53.5033 405.89499 -0.29419699 -0.22622199 -0.92858601 1.9536825e-37
51.7341 -53.397301 406.40201 -0.290719 -0.225082 -0.92995697 1.9536825e-37
50.022499 -53.144699 406.89899 -0.28745499 -0.223957 -0.931243 1.9536825e-37
48.309299 -53.225498 407.44501 -0.284067 -0.222931 -0.93252802 1.9536825e-37
46.767799 -53.9133 408.07001 -0.28071699 -0.222112 -0.93373698 1.9536825e-37
45.060101 -53.423302 408.35901 -0.27511701 -0.222149 -0.93539298 1.9536825e-37
43.318802 -53.209999 408.76199 -0.26777801 -0.22273999 -0.93738002 1.9536825e-37
41.693699 -53.675201 409.38 -0.26100501 -0.22337601 -0.939138 1.9536825e-37
39.993 -53.851601 409.94299 -0.25408101 -0.22425701 -0.94082499 1.9536825e-37
38.264702 -53.995098 410.42499 -0.247352 -0.225412 -0.94234103 1.9536825e-37
36.587502 -54.389 410.94699 -0.24120601 -0.226505 -0.94367099 1.9536825e-37
34.895699 -54.653099 411.50201 -0.234418 -0.224484 -0.945862 1.9536825e-37
34.008301 -54.319199 411.47198 -0.23128501 -0.225851 -0.94630802 1.9536825e-37
32.269199 -54.459702 411.914 -0.226152 -0.223885 -0.94801402 1.9536825e-37
30.5413 -54.560501 412.409 -0.223012 -0.221371 -0.94934797 1.9536825e-37
29.0569 -55.366402 413.03101 -0.219537 -0.21577001 -0.95144498 1.9536825e-37
27.302799 -55.089901 413.32501 -0.216888 -0.21477 -0.95227802 1.9536825e-37
25.735399 -55.737301 413.92801 -0.213312 -0.209466 -0.954265 1.9536825e-37
23.954901 -55.5667 414.13 -0.210575 -0.207684 -0.95526201 1.9536825e-37
22.221001 -55.853802 414.51901 -0.207128 -0.203477 -0.95691901 1.9536825e-37
20.5804 -56.335098 415.08099 -0.20321999 -0.198017 -0.95890099 1.9536825e-37
18.8766 -56.712101 415.52301 -0.199054 -0.19273999 -0.96084797 1.9536825e-37
17.1229 -56.835602 415.91 -0.19333 -0.188693 -0.96281803 1.9536825e-37
15.3584 -56.910999 416.25699 -0.18753999 -0.18459301 -0.96475601 1.9536825e-37
13.7143 -57.405499 416.798 -0.180939 -0.17817999 -0.967219 1.9536825e-37
12.0429 -57.9813 417.13699 -0.17407399 -0.17129 -0.96972102 1.9536825e-37
10.2644 -57.917801 417.40701 -0.168338 -0.16706599 -0.97146899 1.9536825e-37
8.6059799 -58.532799 417.741 -0.16127101 -0.15945099 -0.97394401 1.9536825e-37
6.9832802 -59.2145 418.117 -0.154062 -0.15130199 -0.976408 1.9536825e-37
5.21245 -59.290401 418.431 -0.148204 -0.145693 -0.97816598 1.9536825e-37
3.5845301 -59.901501 418.896 -0.139735 -0.13795 -0.98053199 1.9536825e-37
1.84373 -60.2337 419.211 -0.131749 -0.13239001 -0.98240298 1.9536825e-37
0.162361 -59.5952 419.284 -0.126908 -0.13428099 -0.98278302 1.9536825e-37
-0.81386697 -58.103401 419.03601 -0.124451 -0.144373 -0.98166603 1.9536825e-37
-1.64744 -56.511398 418.93201 -0.120993 -0.156175 -0.98029101 1.9536825e-37
-2.2242401 -54.8321 418.63699 -0.117501 -0.169121 -0.97856599 1.9536825e-37
-2.32849 -53.0527 418.38699 -0.115949 -0.182312 -0.97637999 1.9536825e-37
-3.3209701 -51.558498 418.237 -0.109726 -0.193307 -0.97498298 1.9536825e-37
-3.9431801 -49.885101 418.008 -0.10568 -0.204373 -0.97317201 1.9536825e-37
-4.54703 -48.218899 417.69299 -0.10254 -0.213983 -0.97144002 1.9536825e-37
-4.9222202 -46.490398 417.35901 -0.102497 -0.222403 -0.96955198 1.9536825e-37
-5.82693 -44.956501 417.09698 -0.106548 -0.225269 -0.96845299 1.9536825e-37
-7.1992798 -43.7976 416.98001 -0.10869 -0.223511 -0.96862203 1.9536825e-37
-7.96205 -42.2033 416.63901 -0.113347 -0.22425 -0.96791798 1.9536825e-37
-9.0866299 -40.818001 416.40201 -0.11559 -0.222224 -0.96811998 1.9536825e-37
-9.7958698 -39.185299 416.13501 -0.120497 -0.22636899 -0.96656001 1.9536825e-37
-10.6504 -37.6222 415.87701 -0.123537 -0.232226 -0.96478498 1.9536825e-37
-11.7468 -36.204498 415.70999 -0.124352 -0.23798101 -0.96327698 1.9536825e-37
-12.2432 -34.500099 415.41199 -0.127068 -0.24842399 -0.96028101 1.9536825e-37
-13.4368 -33.180401 415.14099 -0.12642699 -0.25555301 -0.95849299 1.9536825e-37
-13.9474 -31.509199 414.70901 -0.12809999 -0.266864 -0.95518202 1.9536825e-37
-14.6576 -29.899 414.33099 -0.125819 -0.27774999 -0.95237899 1.9536825e-37
-15.6746 -28.4445 414.03101 -0.117748 -0.287696 -0.95045602 1.9536825e-37
-16.68 -26.9655 413.827 -0.110676 -0.29712799 -0.94840199 1.9536825e-37
-16.9568 -25.2607 413.32001 -0.109976 -0.30818799 -0.944947 1.9536825e-37
-17.257999 -23.560301 412.81201 -0.109438 -0.31837499 -0.94162703 1.9536825e-37
-18.284401 -22.1688 412.311 -0.10386 -0.323369 -0.94055599 1.9536825e-37
-19.0263 -20.6094 411.80399 -0.0998073 -0.325515 -0.94025397 1.9536825e-37
-19.5966 -18.973801 411.314 -0.097019203 -0.32780001 -0.93975198 1.9536825e-37
-20.143299 -17.290701 410.98499 -0.094458699 -0.33016101 -0.93918598 1.9536825e-37
-20.261499 -15.6218 410.32101 -0.094083697 -0.33272499 -0.93831903 1.9536825e-37
-20.9044 -14.0361 409.76199 -0.091306902 -0.335271 -0.93768698 1.9536825e-37
-22.034201 -12.6928 409.36401 -0.086664401 -0.337547 -0.93731099 1.9536825e-37
-22.0284 -10.9797 408.811 -0.086591601 -0.34039301 -0.936288 1.9536825e-37
-22.585501 -9.3243704 408.37601 -0.084244199 -0.34327099 -0.93545002 1.9536825e-37
-22.677799 -7.6424098 407.741 -0.083521403 -0.346241 -0.93441999 1.9536825e-37
-22.632099 -5.9720402 407.07199 -0.082967401 -0.348151 -0.93375999 1.9536825e-37
-22.344299 -4.31633 406.427 -0.083351903 -0.34891799 -0.93343902 1.9536825e-37
-21.5373 -2.8234601 405.827 -0.085858501 -0.34942901 -0.93302101 1.9536825e-37
-21.779499 -1.14877 405.21399 -0.085100196 -0.35008201 -0.932845 1.9536825e-37
-21.535601 0.49732199 404.52701 -0.086338498 -0.350564 -0.93255001 1.9536825e-37
-21.0261 2.09761 403.88 -0.088750601 -0.35105199 -0.93214101 1.9536825e-37
-20.379299 3.6447999 403.22501 -0.091878399 -0.35161701 -0.931624 1.9536825e-37
-19.636299 5.1607499 402.60101 -0.095548697 -0.35229 -0.93100101 1.9536825e-37
-18.6971 6.5805502 402.01599 -0.100036 -0.35315099 -0.93020302 1.9536825e-37
-17.816 8.0167503 401.383 -0.104695 -0.35464299 -0.92912197 1.9536825e-37
-17.4041 9.70189 400.90302 -0.108125 -0.359231 -0.92696398 1.9536825e-37
-16.6092 11.1168 400.12399 -0.112268 -0.36381301 -0.92468101 1.9536825e-37
-15.474 12.3307 399.43301 -0.116931 -0.36774501 -0.92254603 1.9536825e-37
-14.8547 13.8833 398.76501 -0.119345 -0.37223199 -0.92043501 1.9536825e-37
-14.2938 15.5376 398.33099 -0.120876 -0.37680599 -0.91837102 1.9536825e-37
-13.0172 16.682301 397.78299 -0.124737 -0.37964001 -0.91668701 1.9536825e-37
-11.7746 17.667999 396.93201 -0.12851401 -0.38198799 -0.91518801 1.9536825e-37
-10.4837 18.475599 395.97198 -0.13267399 -0.38351899 -0.91395301 1.9536825e-37
-9.7204704 19.9802 395.345 -0.133655 -0.38699701 -0.91234303 1.9536825e-37
-8.8279896 21.3892 394.668 -0.135277 -0.39125901 -0.91028398 1.9536825e-37
-7.37183 22.194 393.98099 -0.141725 -0.395861 -0.90730798 1.9536825e-37
-5.9233499 23.109501 393.42999 -0.149076 -0.40092599 -0.90389901 1.9536825e-37
-4.6533799 24.229601 392.82001 -0.156152 -0.40753299 -0.89974099 1.9536825e-37
-3.26401 25.1448 392.13199 -0.16533799 -0.41281801 -0.89568102 1.9536825e-37
-2.1543801 26.340799 391.37201 -0.172957 -0.420118 -0.89083499 1.9536825e-37
-0.976394 27.4519 390.586 -0.175093 -0.428523 -0.88640302 1.9536825e-37
0.049545199 28.677401 389.758 -0.176177 -0.43774101 -0.88167101 1.9536825e-37
1.03512 29.932501 388.92499 -0.176981 -0.44696501 -0.87686998 1.9536825e-37
2.20806 31.000401 388.07401 -0.177414 -0.45501101 -0.87263399 1.9536825e-37
3.2014999 32.301201 387.32599 -0.17715 -0.46376601 -0.86806601 1.9536825e-37
4.4944601 33.275902 386.539 -0.17714299 -0.47527799 -0.86181903 1.9536825e-37
5.8937802 34.079601 385.742 -0.17709599 -0.48696601 -0.85527802 1.9536825e-37
7.02106 35.160301 384.84698 -0.176587 -0.50186098 -0.84672999 1.9536825e-37
7.5677199 36.658798 384.013 -0.175532 -0.52067602 -0.83551502 1.9536825e-37
8.8187399 37.5116 383.039 -0.173998 -0.53373402 -0.82755798 1.9536825e-37
9.4628 38.883598 382.06799 -0.171671 -0.55211401 -0.81590402 1.9536825e-37
10.1772 40.137402 380.992 -0.168533 -0.56994802 -0.80421197 1.9536825e-37
10.8285 41.378799 379.86301 -0.164508 -0.58802599 -0.79193598 1.9536825e-37
11.2881 42.684399 378.71201 -0.159587 -0.60713202 -0.77841002 1.9536825e-37
11.4868 44.125301 377.65201 -0.153915 -0.62741202 -0.76332402 1.9536825e-37
11.5911 45.493198 376.487 -0.148252 -0.66284698 -0.73393101 1.9536825e-37
11.9949 46.7173 375.23001 -0.142756 -0.69289398 -0.70676601 1.9536825e-37
11.7024 48.0923 374.10599 -0.139245 -0.72046798 -0.67936498 1.9536825e-37
11.7395 49.3046 372.776 -0.136462 -0.74427003 -0.65379 1.9536825e-37
12.0066 50.491798 371.45001 -0.13483299 -0.76459199 -0.63025302 1.9536825e-37
12.6972 51.151402 369.92401 -0.13347401 -0.78109002 -0.60998601 1.9536825e-37
12.7024 52.377602 368.60599 -0.13555799 -0.796969 -0.58861202 1.9536825e-37
13.1999 53.324501 367.15799 -0.137668 -0.81102198 -0.56858599 1.9536825e-37
14.6305 53.649899 366.116 -0.135499 -0.82125503 -0.55423802 1.9536825e-37
15.8112 54.270599 364.90701 -0.135528 -0.83292902 -0.53652799 1.9536825e-37
17.470501 54.417198 364.22501 -0.13677 -0.83982199 -0.52534997 1.9536825e-37
19.134399 54.682098 363.59201 -0.13996001 -0.84420902 -0.51741898 1.9536825e-37
20.876699 54.230801 363.564 -0.142243 -0.84317499 -0.51848203 1.9536825e-37
22.5548 53.748501 364.00201 -0.146071 -0.83570701 -0.52939302 1.9536825e-37
24.032 52.967201 364.67001 -0.15249801 -0.82350999 -0.54642099 1.9536825e-37
25.5767 52.315498 365.32599 -0.16033 -0.81021798 -0.56377399 1.9536825e-37
26.966499 51.4814 366.108 -0.169901 -0.79386902 -0.58387101 1.9536825e-37
28.611601 50.838299 366.45499 -0.178537 -0.78036702 -0.59929299 1.9536825e-37
30.1719 50.083599 366.94101 -0.193151 -0.76384997 -0.61581302 1.9536825e-37
31.751101 49.310398 367.32599 -0.207113 -0.74797302 -0.63058698 1.9536825e-37
33.3377 48.539398 367.68399 -0.220534 -0.732458 -0.644104 1.9536825e-37
35.066601 48.051102 367.57101 -0.232022 -0.72241902 -0.651366 1.9536825e-37
36.768299 47.4669 367.625 -0.24390399 -0.71066701 -0.65989602 1.9536825e-37
38.422798 46.773201 367.772 -0.25581399 -0.69786799 -0.668984 1.9536825e-37
40.140598 46.262402 367.60501 -0.266507 -0.68865699 -0.67433399 1.9536825e-37
41.876801 45.973801 367.22699 -0.272264 -0.68343401 -0.67734098 1.9536825e-37
43.5345 45.2831 367.104 -0.27264601 -0.67557299 -0.68502998 1.9536825e-37
45.240101 44.9482 366.63699 -0.27108899 -0.67181802 -0.689327 1.9536825e-37
46.0308 43.687401 367.64899 -0.27615699 -0.65545303 -0.70293498 1.9536825e-37
45.834301 42.442501 368.935 -0.281221 -0.63881397 -0.71612298 1.9536825e-37
46.379002 41.055302 369.944 -0.284569 -0.62016797 -0.73103499 1.9536825e-37
47.231098 39.7029 370.772 -0.28678301 -0.60165101 -0.74550098 1.9536825e-37
47.679298 38.251202 371.737 -0.28798899 -0.580235 -0.76183301 1.9536825e-37
48.879101 37.057301 372.349 -0.288674 -0.56274801 -0.77458501 1.9536825e-37
49.547901 35.521099 373.00699 -0.28797501 -0.53959501 -0.791143 1.9536825e-37
50.3689 34.052101 373.646 -0.28669 -0.51711899 -0.806472 1.9536825e-37
51.4519 32.736801 374.22601 -0.28777501 -0.50533003 -0.813528 1.9536825e-37
52.732399 31.489901 374.44 -0.29163 -0.49464601 -0.81870502 1.9536825e-37
54.2938 30.5966 374.37701 -0.30008599 -0.48620301 -0.82070398 1.9536825e-37
55.875301 29.737 374.39001 -0.308595 -0.47772101 -0.822528 1.9536825e-37
56.976898 28.351101 374.715 -0.31512901 -0.46501899 -0.82731497 1.9536825e-37
58.165798 27.028099 374.991 -0.32183799 -0.45342401 -0.83116001 1.9536825e-37
59.621399 25.969101 374.991 -0.32977399 -0.44506001 -0.83256799 1.9536825e-37
61.2033 25.1103 374.983 -0.33815899 -0.43866801 -0.83259702 1.9536825e-37
62.062801 23.566 375.32401 -0.342336 -0.42858401 -0.83613503 1.9536825e-37
63.2952 22.263599 375.48199 -0.347314 -0.42201501 -0.83742201 1.9536825e-37
64.679298 21.1129 375.47501 -0.349888 -0.41869399 -0.838018 1.9536825e-37
65.611298 19.6124 375.82101 -0.350283 -0.413573 -0.84039199 1.9536825e-37
66.867599 18.3291 375.944 -0.35238701 -0.41094801 -0.84079999 1.9536825e-37
67.981598 16.9319 376.16 -0.353863 -0.408411 -0.841416 1.9536825e-37
68.8629 15.4127 376.55399 -0.35407901 -0.40582401 -0.84257603 1.9536825e-37
70.480103 14.659 376.31601 -0.359586 -0.40699199 -0.83967602 1.9536825e-37
71.846397 13.4942 376.18799 -0.363691 -0.40715399 -0.83782703 1.9536825e-37
73.242699 12.3599 376.125 -0.36811101 -0.40752801 -0.83571303 1.9536825e-37
74.600998 11.1818 376.04099 -0.36559901 -0.40931499 -0.83594197 1.9536825e-37
75.961304 10.0032 376.02399 -0.36265901 -0.40849501 -0.83762199 1.9536825e-37
77.537201 9.2100296 375.66699 -0.360964 -0.408537 -0.83833301 1.9536825e-37
78.290398 7.6354899 376.10699 -0.35951099 -0.40300101 -0.84162998 1.9536825e-37
78.110703 6.0584502 376.95599 -0.35859501 -0.39624 -0.84522402 1.9536825e-37
77.901299 4.46071 377.758 -0.357568 -0.38973701 -0.84867603 1.9536825e-37
77.816101 2.8210199 378.495 -0.35658801 -0.38348901 -0.851928 1.9536825e-37
77.693298 1.23471 379.33701 -0.355483 -0.377491 -0.85506201 1.9536825e-37
77.798698 -0.35972399 380.16599 -0.354698 -0.37179101 -0.85788202 1.9536825e-37
77.869102 -2.04301 380.79901 -0.35401601 -0.36634001 -0.86050498 1.9536825e-37
78.296501 -3.7241199 381.28 -0.354222 -0.361397 -0.86250699 1.9536825e-37
78.379402 -5.4100199 381.90601 -0.353553 -0.35583699 -0.86509001 1.9536825e-37
78.968903 -7.0576 382.327 -0.354386 -0.350458 -0.866943 1.9536825e-37
79.502197 -8.7229004 382.754 -0.35526001 -0.34494901 -0.868792 1.9536825e-37
79.671997 -10.4232 383.32001 -0.355326 -0.33923399 -0.87101299 1.9536825e-37
80.083 -12.0699 383.92001 -0.35594001 -0.33371001 -0.87289399 1.9536825e-37
80.205902 -13.7513 384.55099 -0.35588899 -0.328235 -0.87498802 1.9536825e-37
80.136902 -15.4465 385.15201 -0.35538799 -0.32295001 -0.87715602 1.9536825e-37
80.067001 -17.1628 385.69 -0.35484499 -0.31786299 -0.87923199 1.9536825e-37
80.122398 -18.856899 386.29599 -0.35437 -0.31299299 -0.88116801 1.9536825e-37
79.772499 -20.476 387 -0.352853 -0.30849499 -0.88336003 1.9536825e-37
79.705803 -22.1544 387.647 -0.35189301 -0.30495599 -0.88497102 1.9536825e-37
79.624298 -23.829 388.302 -0.35055101 -0.301559 -0.886666 1.9536825e-37
78.563301 -25.0404 389.10599 -0.34734601 -0.29831201 -0.88902199 1.9536825e-37
78.3358 -26.7255 389.69601 -0.34528801 -0.29484099 -0.89098001 1.9536825e-37
77.964203 -28.344801 390.38901 -0.34265801 -0.29130101 -0.89315701 1.9536825e-37
77.758797 -30.003401 391.05801 -0.33995199 -0.28789699 -0.89529198 1.9536825e-37
77.330902 -31.592199 391.78799 -0.33669901 -0.28425801 -0.897681 1.9536825e-37
76.353302 -32.914299 392.51999 -0.333065 -0.28009 -0.900343 1.9536825e-37
76.107201 -34.593601 393.11899 -0.32962599 -0.27649 -0.90271801 1.9536825e-37
75.598602 -36.205002 393.73999 -0.32619399 -0.27404499 -0.90470803 1.9536825e-37
74.923103 -37.672298 394.534 -0.32270399 -0.27182001 -0.90662903 1.9536825e-37
73.632401 -38.745499 395.18399 -0.31971401 -0.26851401 -0.90867102 1.9536825e-37
73.106499 -40.347801 395.81299 -0.315911 -0.26631901 -0.91064501 1.9536825e-37
72.235001 -41.7612 396.508 -0.31224301 -0.26328599 -0.91279 1.9536825e-37
71.434998 -43.197201 397.241 -0.308415 -0.26020199 -0.91497302 1.9536825e-37
70.047302 -44.116501 397.92599 -0.30613601 -0.255669 -0.917014 1.9536825e-37
69.5914 -45.6735 398.70599 -0.301774 -0.25301 -0.91919398 1.9536825e-37
68.476196 -46.946098 399.32001 -0.29866099 -0.24866199 -0.921395 1.9536825e-37
67.553101 -48.348301 399.96899 -0.29556099 -0.246628 -0.92294002 1.9536825e-37
66.348297 -49.5317 400.59201 -0.294204 -0.245232 -0.92374498 1.9536825e-37
66.110497 -51.226799 401.14899 -0.29025501 -0.247219 -0.924465 1.9536825e-37
