# .PCD v0.7 - Point Cloud Data file format
VERSION 0.7
FIELDS x y z normal_x normal_y normal_z curvature
SIZE 4 4 4 4 4 4 4
TYPE F F F F F F F
COUNT 1 1 1 1 1 1 1
WIDTH 167
HEIGHT 1
VIEWPOINT 0 0 0 1 0 0 0
POINTS 167
DATA ascii
-47.000999 -18.383699 399.733 0.35305399 0.092559502 -0.93101299 2.7862394e-37
-48.2925 -17.2442 399.20999 0.349327 0.064747997 -0.93476099 2.7862394e-37
-49.667 -16.094999 399.03601 0.33878401 0.039393701 -0.94003898 2.7862394e-37
-50.144901 -14.3775 398.78799 0.354242 0.030176399 -0.93466699 2.7862394e-37
-51.202599 -12.9343 398.59201 0.34992501 0.012087 -0.93669999 2.7862394e-37
-51.7229 -11.2357 398.302 0.36270401 0.0031256799 -0.93189901 2.7862394e-37
-52.462399 -9.61479 398.04501 0.359768 -0.0095458804 -0.93299299 2.7862394e-37
-52.933601 -7.9018698 397.75601 0.364391 -0.017666699 -0.93107802 2.7862394e-37
-53.791698 -6.3424001 397.48801 0.35083899 -0.031691201 -0.93589997 2.7862394e-37
-54.2952 -4.6380701 397.202 0.35249299 -0.0412759 -0.93490398 2.7862394e-37
-54.118801 -2.85795 397.00201 0.38162801 -0.044188298 -0.92325902 2.7862394e-37
-55.255798 -1.51503 396.62299 0.35332999 -0.067883901 -0.93303198 2.7862394e-37
-55.690899 0.204071 396.314 0.35657299 -0.082524501 -0.93061501 2.7862394e-37
-56.182201 1.90152 395.97198 0.35704201 -0.097192101 -0.92901802 2.7862394e-37
-56.615101 3.6031301 395.57501 0.35891199 -0.110712 -0.92678201 2.7862394e-37
-56.589298 5.3671699 395.21799 0.37576899 -0.118496 -0.91910601 2.7862394e-37
-57.3773 6.9338899 394.81299 0.36570799 -0.13430201 -0.92098898 2.7862394e-37
-57.791401 8.6430397 394.42899 0.36906499 -0.145788 -0.917898 2.7862394e-37
-57.903198 10.3879 394.00101 0.38065401 -0.156029 -0.91145903 2.7862394e-37
-57.757999 12.1535 393.68201 0.399452 -0.16647799 -0.90151101 2.7862394e-37
-58.387001 13.7592 393.16599 0.39666 -0.184361 -0.89926201 2.7862394e-37
-58.6838 15.4709 392.69501 0.40328601 -0.19859201 -0.89326501 2.7862394e-37
-58.909801 17.195101 392.23001 0.41126499 -0.211483 -0.88664299 2.7862394e-37
-59.159901 18.919399 391.77802 0.41829699 -0.223805 -0.88030601 2.7862394e-37
-59.318298 20.6448 391.29099 0.42594001 -0.234869 -0.873734 2.7862394e-37
-59.152802 22.354601 390.75299 0.43737501 -0.243313 -0.86573797 2.7862394e-37
-58.8563 24.0795 390.332 0.45007199 -0.25120899 -0.85693002 2.7862394e-37
-59.361401 25.706699 389.75201 0.44717199 -0.26527399 -0.85420603 2.7862394e-37
-59.299198 27.4258 389.22198 0.45210701 -0.276364 -0.84806901 2.7862394e-37
-59.712101 29.0979 388.69901 0.44829601 -0.28864199 -0.84600103 2.7862394e-37
-59.287998 30.750999 388.12701 0.45416999 -0.29872799 -0.83933997 2.7862394e-37
-59.252201 32.454498 387.54599 0.452759 -0.31040099 -0.835859 2.7862394e-37
-58.9589 34.128502 386.953 0.45302099 -0.32219601 -0.83124101 2.7862394e-37
-59.0844 35.8326 386.38699 0.44592699 -0.334438 -0.83024102 2.7862394e-37
-59.235298 37.5406 385.84 0.43688101 -0.34665599 -0.83003902 2.7862394e-37
-58.819099 39.169498 385.19699 0.433539 -0.35619301 -0.82775003 2.7862394e-37
-58.226601 40.751598 384.57501 0.430713 -0.36722001 -0.82440001 2.7862394e-37
-58.049599 42.43 383.95001 0.418387 -0.37868401 -0.82556099 2.7862394e-37
-57.989899 44.112 383.311 0.40089899 -0.39039499 -0.82877702 2.7862394e-37
-57.528 45.696701 382.59399 0.38809401 -0.40540999 -0.827663 2.7862394e-37
-57.363602 47.3577 381.92001 0.36716399 -0.419579 -0.83014703 2.7862394e-37
-57.091702 48.9991 381.233 0.34632701 -0.435312 -0.83099997 2.7862394e-37
-56.4007 50.496899 380.51199 0.33644101 -0.45519501 -0.82438201 2.7862394e-37
-55.983898 52.107399 379.82501 0.319769 -0.469428 -0.82303399 2.7862394e-37
-55.682598 53.761799 379.18301 0.302605 -0.47883901 -0.82410198 2.7862394e-37
-55.293701 55.373901 378.483 0.28994799 -0.48807099 -0.82323599 2.7862394e-37
-54.605 56.8512 377.71899 0.29160199 -0.49865201 -0.81628102 2.7862394e-37
-54.0994 58.4137 376.98199 0.28716299 -0.50777298 -0.812222 2.7862394e-37
-53.394199 59.878601 376.20999 0.29306701 -0.51805902 -0.80357099 2.7862394e-37
-52.474998 61.261902 375.51599 0.31403899 -0.53005701 -0.78766698 2.7862394e-37
-51.923 62.786499 374.73401 0.31179699 -0.54092097 -0.78114498 2.7862394e-37
-51.160198 64.222801 373.96301 0.32141301 -0.55563802 -0.76678503 2.7862394e-37
-50.8293 65.8218 373.20499 0.303599 -0.56854498 -0.76458102 2.7862394e-37
-49.848598 67.1213 372.43799 0.31898999 -0.58599299 -0.74488699 2.7862394e-37
-49.424198 68.695503 371.67499 0.299496 -0.59884298 -0.74275798 2.7862394e-37
-48.5583 70.035301 370.841 0.29911399 -0.61331201 -0.731013 2.7862394e-37
-47.6805 71.370003 370.01199 0.302102 -0.62643898 -0.71854597 2.7862394e-37
-46.825802 72.732697 369.20401 0.30559999 -0.63883799 -0.70604098 2.7862394e-37
-46.383801 74.314499 368.46701 0.29470199 -0.64934599 -0.70107102 2.7862394e-37
-46.048199 73.976097 368.427 0.30740899 -0.65021801 -0.69477803 2.7862394e-37
-45.001701 75.215698 367.647 0.31556299 -0.66406399 -0.67782003 2.7862394e-37
-44.034801 76.511101 366.85501 0.31674501 -0.67192101 -0.66947401 2.7862394e-37
-43.069801 77.798302 366.048 0.31520501 -0.67650998 -0.66556799 2.7862394e-37
-42.217499 79.152702 365.224 0.307459 -0.68125802 -0.66434699 2.7862394e-37
-41.148602 80.3395 364.39401 0.300899 -0.68850601 -0.659863 2.7862394e-37
-40.105499 81.560997 363.58099 0.29631701 -0.69498801 -0.65512502 2.7862394e-37
-38.983101 82.6903 362.742 0.29416201 -0.70203799 -0.64854598 2.7862394e-37
-37.942299 83.892502 361.89801 0.28911799 -0.70943803 -0.642735 2.7862394e-37
-36.822601 85.004799 361.03299 0.28287101 -0.71888298 -0.63497299 2.7862394e-37
-35.201698 85.715202 360.70401 0.28893501 -0.73498601 -0.61344302 2.7862394e-37
-33.5583 86.444397 360.616 0.28305501 -0.754807 -0.59173203 2.7862394e-37
-31.974701 87.299797 360.60001 0.27808601 -0.77203 -0.571522 2.7862394e-37
-30.3969 88.159599 360.49399 0.27952999 -0.78557801 -0.55202401 2.7862394e-37
-28.745199 88.652603 359.97601 0.286544 -0.79544097 -0.53400999 2.7862394e-37
-27.4235 88.193298 361.108 0.30916899 -0.79213798 -0.52624297 2.7862394e-37
-26.495501 87.624802 362.54199 0.30531901 -0.78715903 -0.535873 2.7862394e-37
-25.320999 87.1558 363.823 0.29187399 -0.78082597 -0.55237597 2.7862394e-37
-24.226801 86.639999 365.155 0.27078199 -0.77172798 -0.57542503 2.7862394e-37
-22.7152 86.538498 366.12799 0.24261101 -0.76114899 -0.60149097 2.7862394e-37
-21.554001 85.796898 367.28601 0.20699801 -0.74766898 -0.63098598 2.7862394e-37
-20.1278 85.407402 368.31201 0.19455799 -0.73178798 -0.65317202 2.7862394e-37
-19.103701 84.463501 369.453 0.183302 -0.71928102 -0.67010099 2.7862394e-37
-18.199499 83.482498 370.66101 0.172738 -0.70885801 -0.683873 2.7862394e-37
-16.8064 82.881699 371.63 0.167676 -0.69753599 -0.69665498 2.7862394e-37
-15.9524 81.865997 372.84601 0.156684 -0.68919897 -0.70742798 2.7862394e-37
-14.5027 81.2332 373.70499 0.13748799 -0.67827201 -0.721834 2.7862394e-37
-13.2494 80.466003 374.745 0.107685 -0.66770798 -0.73659301 2.7862394e-37
-12.3483 79.354698 375.83701 0.078088202 -0.658436 -0.74857497 2.7862394e-37
-10.894 78.7117 376.67999 0.045129601 -0.64382303 -0.76384199 2.7862394e-37
-9.7826004 77.660896 377.629 0.0118971 -0.62437201 -0.78103602 2.7862394e-37
-9.0474396 76.315804 378.573 -0.017343899 -0.59988803 -0.799896 2.7862394e-37
-7.99333 75.155998 379.45801 -0.0426814 -0.573829 -0.81786197 2.7862394e-37
-7.4703999 73.660202 380.31201 -0.066122502 -0.54997599 -0.83255899 2.7862394e-37
-6.83213 72.213699 381.172 -0.089121699 -0.52555001 -0.84608197 2.7862394e-37
-6.17524 70.749397 381.987 -0.11136 -0.50144398 -0.85799301 2.7862394e-37
-5.7471299 69.213699 382.823 -0.13245299 -0.479561 -0.86745399 2.7862394e-37
-5.3424802 67.653397 383.62399 -0.152343 -0.45867899 -0.87544602 2.7862394e-37
-5.1170001 66.034599 384.37799 -0.170384 -0.44009599 -0.88163799 2.7862394e-37
-4.7743702 64.3946 385.03601 -0.187282 -0.42405999 -0.88605797 2.7862394e-37
-5.0445299 62.820099 385.866 -0.199642 -0.413416 -0.88838601 2.7862394e-37
-4.6816602 61.174599 386.49899 -0.212565 -0.39897099 -0.89198601 2.7862394e-37
-4.3070202 59.5611 387.203 -0.222931 -0.386006 -0.895154 2.7862394e-37
-4.4745798 57.869499 387.79501 -0.22960401 -0.37608999 -0.89768499 2.7862394e-37
-4.3175201 56.256302 388.578 -0.234466 -0.366009 -0.90059 2.7862394e-37
-4.3118701 54.588402 389.255 -0.236624 -0.35705599 -0.903615 2.7862394e-37
-3.9389999 52.921501 389.823 -0.23577701 -0.350952 -0.90622401 2.7862394e-37
-3.7065799 51.2519 390.45401 -0.23406599 -0.34968701 -0.90715599 2.7862394e-37
-3.6020701 49.5961 391.15201 -0.233245 -0.34802899 -0.908005 2.7862394e-37
-3.2490799 47.934101 391.746 -0.23243099 -0.34609199 -0.90895301 2.7862394e-37
-3.8856599 46.360401 392.345 -0.235787 -0.34437999 -0.90873897 2.7862394e-37
-3.6547301 44.648499 392.85101 -0.237368 -0.34195399 -0.909244 2.7862394e-37
-3.27245 42.986599 393.427 -0.24002001 -0.338741 -0.90974998 2.7862394e-37
-3.11868 41.307899 394.05801 -0.245047 -0.33536199 -0.90966201 2.7862394e-37
-3.69538 39.745399 394.741 -0.25160301 -0.33450699 -0.90818501 2.7862394e-37
-3.3764601 38.084999 395.358 -0.25804499 -0.32741401 -0.90896201 2.7862394e-37
-3.11865 36.372898 395.85101 -0.26348999 -0.32064399 -0.90981299 2.7862394e-37
-3.1942201 34.652 396.37299 -0.26655501 -0.315175 -0.91083097 2.7862394e-37
-3.86514 33.119801 397.03799 -0.26551101 -0.31055099 -0.91272199 2.7862394e-37
-3.56796 31.473101 397.70099 -0.26551601 -0.305085 -0.91456199 2.7862394e-37
-3.53284 29.7556 398.23901 -0.26275799 -0.29996601 -0.91704899 2.7862394e-37
-3.6486101 28.038099 398.76501 -0.25758299 -0.29471701 -0.920214 2.7862394e-37
-3.55935 26.335501 399.34201 -0.25066 -0.29016501 -0.92356598 2.7862394e-37
-3.76319 24.616699 399.836 -0.24198601 -0.28428999 -0.927697 2.7862394e-37
-4.4365501 23.038799 400.38101 -0.236873 -0.276768 -0.93128401 2.7862394e-37
-4.5144501 21.3139 400.89001 -0.232655 -0.27126199 -0.93396401 2.7862394e-37
-4.31706 19.619801 401.465 -0.229298 -0.265894 -0.93633503 2.7862394e-37
-4.29392 17.8993 401.99399 -0.228677 -0.25974801 -0.93821001 2.7862394e-37
-4.3822298 16.1493 402.405 -0.23073401 -0.25333601 -0.93945903 2.7862394e-37
-4.85359 14.5008 402.953 -0.23676699 -0.248007 -0.93937999 2.7862394e-37
-5.29146 12.8359 403.479 -0.24383999 -0.24332701 -0.93879402 2.7862394e-37
-4.9832401 11.102 403.85101 -0.25036001 -0.236655 -0.93878299 2.7862394e-37
-5.3259401 9.4502001 404.479 -0.25680199 -0.234677 -0.93753898 2.7862394e-37
-5.8612299 7.7940502 404.93799 -0.258751 -0.2318 -0.93771899 2.7862394e-37
-5.6226501 6.0748701 405.41501 -0.260077 -0.227403 -0.93842798 2.7862394e-37
-5.6241298 4.31143 405.776 -0.25829601 -0.223162 -0.939937 2.7862394e-37
-5.8722401 2.56199 406.11899 -0.25166199 -0.218256 -0.94288403 2.7862394e-37
-6.0596099 0.86872101 406.70099 -0.241142 -0.212513 -0.94693601 2.7862394e-37
-6.4983501 -0.77600503 407.28601 -0.223554 -0.204221 -0.95305699 2.7862394e-37
-7.4917202 -2.2161 407.70901 -0.198277 -0.172819 -0.96478999 2.7862394e-37
-8.4294395 -3.71982 408.02499 -0.168543 -0.139257 -0.97580802 2.7862394e-37
-9.1844797 -5.3144102 408.38101 -0.137394 -0.10821 -0.98458803 2.7862394e-37
-9.7417603 -7.0124502 408.59601 -0.109598 -0.0804561 -0.99071401 2.7862394e-37
-10.0636 -8.7785101 408.728 -0.090134703 -0.0559869 -0.99435502 2.7862394e-37
-10.5777 -10.5002 408.83499 -0.064320602 -0.034186199 -0.99734402 2.7862394e-37
-11.0161 -12.246 408.84299 -0.043144301 -0.015008 -0.99895602 2.7862394e-37
-11.737 -13.8943 408.90201 -0.0148137 0.00018984699 -0.99989003 2.7862394e-37
-12.3449 -15.5882 408.87 -0.00099865301 0.0139665 -0.99990201 2.7862394e-37
-13.3147 -17.1019 408.961 0.025718801 0.0232225 -0.99939901 2.7862394e-37
-14.9906 -16.454201 408.85101 0.061726902 0.030168699 -0.99763697 2.7862394e-37
-16.752199 -16.740999 408.61801 0.096381404 0.048430402 -0.99416602 2.7862394e-37
-18.5403 -16.7201 408.41199 0.121596 0.0686244 -0.99020499 2.7862394e-37
-20.313601 -16.4758 408.22299 0.138907 0.081735998 -0.98692697 2.7862394e-37
-22.087299 -16.4048 407.92499 0.15794399 0.0905274 -0.98329002 2.7862394e-37
-23.8675 -16.2841 407.68799 0.17708001 0.0930053 -0.979792 2.7862394e-37
-25.574699 -16.701401 407.29901 0.193031 0.0945611 -0.97662598 2.7862394e-37
-27.3214 -16.412901 406.974 0.206899 0.091017202 -0.97411901 2.7862394e-37
-28.854601 -17.302999 406.66199 0.218558 0.096557297 -0.971035 2.7862394e-37
-30.6063 -17.419901 406.26401 0.232272 0.098499 -0.96765101 2.7862394e-37
-32.310101 -17.507601 405.69 0.25520301 0.1025 -0.96143901 2.7862394e-37
-34.013199 -17.066999 405.30899 0.30164701 0.106329 -0.94747198 2.7862394e-37
-35.6763 -17.3447 404.67899 0.349686 0.119319 -0.92923802 2.7862394e-37
-37.2836 -17.364201 403.86899 0.39445299 0.133385 -0.90918398 2.7862394e-37
-38.9011 -17.225401 403.09201 0.427762 0.14807101 -0.89168102 2.7862394e-37
-40.554199 -16.8314 402.49799 0.41360801 0.153466 -0.89742798 2.7862394e-37
-42.169498 -17.184999 401.78699 0.403952 0.155154 -0.90152699 2.7862394e-37
-43.8428 -17.490601 401.19901 0.39375201 0.14457799 -0.907776 2.7862394e-37
-45.429401 -17.844299 400.42499 0.380629 0.121599 -0.91669798 2.7862394e-37
