# .PCD v0.7 - Point Cloud Data file format
VERSION 0.7
FIELDS x y z normal_x normal_y normal_z curvature
SIZE 4 4 4 4 4 4 4
TYPE F F F F F F F
COUNT 1 1 1 1 1 1 1
WIDTH 151
HEIGHT 1
VIEWPOINT 0 0 0 1 0 0 0
POINTS 151
DATA ascii
-41.527199 12.1694 387.064 0.41536999 -0.26022699 -0.87163597 6.1276961e-37
-40.9687 13.8757 386.93399 0.44670099 -0.235245 -0.86320198 6.1276961e-37
-40.4604 15.5887 386.71701 0.45124999 -0.238206 -0.86001801 6.1276961e-37
-39.8405 17.266701 386.517 0.452369 -0.245744 -0.85730499 6.1276961e-37
-39.338699 18.9851 386.32901 0.45426399 -0.25672001 -0.85307598 6.1276961e-37
-38.520302 20.584 386.211 0.45188001 -0.267658 -0.85097802 6.1276961e-37
-37.950298 22.2791 386.008 0.45285001 -0.28273901 -0.845568 6.1276961e-37
-37.199501 23.9069 385.84399 0.44948199 -0.28415999 -0.84688801 6.1276961e-37
-36.307999 25.4687 385.767 0.444987 -0.28295201 -0.84966099 6.1276961e-37
-35.910301 27.195499 385.45099 0.44718501 -0.28342199 -0.84834999 6.1276961e-37
-35.549702 28.9258 385.10999 0.449747 -0.28444999 -0.84665 6.1276961e-37
-34.8237 30.5627 384.927 0.44972801 -0.28497401 -0.84648401 6.1276961e-37
-34.7514 32.285599 384.41101 0.45357901 -0.28771099 -0.84349799 6.1276961e-37
-34.5961 34.019299 383.953 0.45545799 -0.29046401 -0.84153998 6.1276961e-37
-33.740501 35.592201 383.76901 0.45523599 -0.29213601 -0.84108102 6.1276961e-37
-33.8904 37.271198 383.138 0.45646101 -0.294673 -0.83952999 6.1276961e-37
-34.397999 38.900398 382.565 0.456415 -0.29700801 -0.838732 6.1276961e-37
-33.985699 40.573799 382.04501 0.45622501 -0.29940301 -0.83798403 6.1276961e-37
-33.7272 42.297401 381.595 0.45563099 -0.301981 -0.83738202 6.1276961e-37
-33.1022 43.921799 381.13599 0.45532399 -0.30485201 -0.83650798 6.1276961e-37
-33.200001 45.605499 380.50699 0.452858 -0.30756101 -0.83685499 6.1276961e-37
-33.125301 47.312801 379.94199 0.44991201 -0.31292501 -0.83645499 6.1276961e-37
-33.452599 48.955002 379.28201 0.44497299 -0.31777501 -0.83726799 6.1276961e-37
-33.180698 50.606201 378.61899 0.43936101 -0.324058 -0.83782297 6.1276961e-37
-33.673302 52.201698 377.94699 0.432803 -0.32740399 -0.83993298 6.1276961e-37
-33.736401 53.8269 377.17599 0.42533001 -0.331999 -0.84194499 6.1276961e-37
-33.982201 55.394901 376.327 0.418192 -0.33515 -0.84426898 6.1276961e-37
-34.4944 56.909302 375.49899 0.413077 -0.336781 -0.84613597 6.1276961e-37
-34.956699 58.431301 374.65701 0.40915 -0.34424299 -0.84504002 6.1276961e-37
-35.334599 59.987 373.83401 0.405184 -0.35213 -0.84369999 6.1276961e-37
-35.576698 61.573101 373.01801 0.40002799 -0.36073801 -0.84252298 6.1276961e-37
-36.441601 62.879799 372.133 0.40227699 -0.36381 -0.840128 6.1276961e-37
-36.153999 64.493401 371.388 0.39100301 -0.37534299 -0.84037697 6.1276961e-37
-36.316601 66.102402 370.59799 0.38302499 -0.38425899 -0.84002203 6.1276961e-37
-36.865501 66.899902 370.013 0.38474801 -0.384931 -0.83892602 6.1276961e-37
-37.003201 68.489197 369.17999 0.37488201 -0.39710999 -0.83771503 6.1276961e-37
-36.893101 70.130997 368.45001 0.35864201 -0.41461599 -0.83634299 6.1276961e-37
-36.627499 71.770103 367.755 0.337385 -0.43479499 -0.83494002 6.1276961e-37
-36.683498 73.346298 366.88699 0.319363 -0.45169801 -0.83305198 6.1276961e-37
-37.049301 74.909302 366.073 0.303927 -0.464975 -0.83152097 6.1276961e-37
-36.4161 76.378403 365.24799 0.273489 -0.490868 -0.827196 6.1276961e-37
-35.8311 77.9132 364.51199 0.243581 -0.51676601 -0.82074398 6.1276961e-37
-36.141399 79.402397 363.54901 0.22442199 -0.528234 -0.81890398 6.1276961e-37
-35.7556 80.871498 362.58401 0.197099 -0.54881501 -0.81237501 6.1276961e-37
-35.2052 82.326599 361.67801 0.16981199 -0.57156098 -0.80279601 6.1276961e-37
-34.574902 83.7528 360.77899 0.143869 -0.59517097 -0.79061598 6.1276961e-37
-34.150501 85.185402 359.77499 0.119381 -0.61735201 -0.77757603 6.1276961e-37
-33.556499 86.520699 358.724 0.096211404 -0.64097703 -0.76150602 6.1276961e-37
-32.9869 87.862602 357.668 0.075652897 -0.66722202 -0.74100697 6.1276961e-37
-32.083401 89.0522 356.664 0.056910198 -0.690166 -0.72140998 6.1276961e-37
-31.241699 90.202202 355.565 0.0371067 -0.70942402 -0.70380402 6.1276961e-37
-30.611799 91.366501 354.345 0.015965801 -0.72546601 -0.68807298 6.1276961e-37
-29.909 92.500198 353.13599 -0.0078084399 -0.73991102 -0.67265898 6.1276961e-37
-29.205 93.584602 351.884 -0.0261901 -0.75290197 -0.65761101 6.1276961e-37
-28.393801 94.632301 350.66599 -0.038647201 -0.76476401 -0.64314997 6.1276961e-37
-27.4172 95.542999 349.45901 -0.042801 -0.77517599 -0.63029402 6.1276961e-37
-25.622 95.443604 349.54401 -0.0360098 -0.775639 -0.63014901 6.1276961e-37
-23.870501 95.662804 349.19199 -0.0299109 -0.77272397 -0.63403702 6.1276961e-37
-22.233 95.075996 349.655 -0.046921302 -0.76437902 -0.64305699 6.1276961e-37
-20.4701 94.757004 349.82999 -0.0596909 -0.761518 -0.64538997 6.1276961e-37
-18.834499 94.318001 350.44 -0.066936098 -0.76038802 -0.64600998 6.1276961e-37
-17.0378 94.238197 350.367 -0.074359402 -0.76508701 -0.63961899 6.1276961e-37
-15.2827 93.840302 350.405 -0.10825 -0.76732898 -0.63204998 6.1276961e-37
-13.5238 93.469398 350.49701 -0.143795 -0.767681 -0.62449098 6.1276961e-37
-11.7966 92.986099 350.64999 -0.176826 -0.76636702 -0.61758697 6.1276961e-37
-10.1152 92.390404 350.89099 -0.206444 -0.76413298 -0.61113101 6.1276961e-37
-8.3761301 91.926598 350.91299 -0.216729 -0.76537901 -0.60598999 6.1276961e-37
-6.65556 91.397903 350.90399 -0.22748999 -0.761213 -0.607292 6.1276961e-37
-4.9088202 91.175301 350.53 -0.240125 -0.753474 -0.612059 6.1276961e-37
-3.31598 90.389702 350.823 -0.26235801 -0.73648399 -0.62350601 6.1276961e-37
-1.5715899 90.441704 350.38199 -0.23498701 -0.72807699 -0.64396101 6.1276961e-37
0.117577 89.821602 350.33499 -0.19772799 -0.71842098 -0.66691399 6.1276961e-37
1.85776 89.361504 350.327 -0.153129 -0.706752 -0.69068998 6.1276961e-37
3.5836 89.105698 350.76999 -0.107219 -0.69161201 -0.71426702 6.1276961e-37
4.1645498 87.733398 351.77899 -0.121041 -0.68383002 -0.719531 6.1276961e-37
5.1853399 86.653801 352.79501 -0.115768 -0.67193502 -0.73150599 6.1276961e-37
5.94102 85.370499 353.806 -0.116605 -0.66203201 -0.74034899 6.1276961e-37
6.48493 83.959503 354.78299 -0.124489 -0.65280402 -0.74722701 6.1276961e-37
7.1512799 82.626801 355.793 -0.12609699 -0.64090401 -0.75719303 6.1276961e-37
8.08428 81.449501 356.784 -0.110562 -0.62722802 -0.77094799 6.1276961e-37
8.8790903 80.173698 357.77499 -0.100933 -0.614299 -0.78259099 6.1276961e-37
9.0281897 78.598297 358.633 -0.124882 -0.60680997 -0.78497499 6.1276961e-37
9.6389399 77.201599 359.59 -0.130051 -0.59313601 -0.79452902 6.1276961e-37
10.3775 75.867897 360.547 -0.127354 -0.575876 -0.80755597 6.1276961e-37
11.3146 74.672798 361.513 -0.099827498 -0.55675602 -0.82465601 6.1276961e-37
11.6928 73.144096 362.38501 -0.109266 -0.54586798 -0.83071601 6.1276961e-37
11.7422 71.524803 363.16901 -0.134923 -0.54138398 -0.82987899 6.1276961e-37
12.6831 70.290604 364.08099 -0.10335 -0.53013498 -0.841591 6.1276961e-37
13.1589 68.800102 364.97101 -0.101577 -0.52285999 -0.84634501 6.1276961e-37
13.135 67.172798 365.73999 -0.126614 -0.519288 -0.84516799 6.1276961e-37
13.9603 65.885696 366.69 -0.108678 -0.50803298 -0.85445398 6.1276961e-37
14.2761 64.333504 367.54501 -0.121314 -0.49930701 -0.85789001 6.1276961e-37
14.4393 62.729301 368.345 -0.142396 -0.48609701 -0.86222601 6.1276961e-37
14.4655 61.133598 369.177 -0.16725101 -0.47379601 -0.86460698 6.1276961e-37
13.8413 59.580101 369.83801 -0.211697 -0.46696901 -0.85855901 6.1276961e-37
14.6027 58.086399 370.49301 -0.200556 -0.451947 -0.86920702 6.1276961e-37
15.1449 56.5998 371.35101 -0.199855 -0.43981799 -0.87556797 6.1276961e-37
15.0235 54.960999 372.086 -0.218311 -0.431945 -0.87507898 6.1276961e-37
15.5888 53.465099 372.91199 -0.21290199 -0.423637 -0.88045698 6.1276961e-37
15.895 51.882301 373.71301 -0.214048 -0.408544 -0.88728499 6.1276961e-37
15.5297 50.211899 374.27499 -0.23183399 -0.39478499 -0.88904297 6.1276961e-37
15.9344 48.6343 375.04099 -0.228453 -0.38033101 -0.89618999 6.1276961e-37
15.6288 46.9491 375.59601 -0.24148899 -0.36679101 -0.89841402 6.1276961e-37
15.8565 45.322701 376.332 -0.24024101 -0.35345501 -0.90407598 6.1276961e-37
15.7051 43.639198 376.95099 -0.246041 -0.34035 -0.907538 6.1276961e-37
15.1536 42.0201 377.51199 -0.25912699 -0.32700601 -0.90880197 6.1276961e-37
15.3084 40.325401 378.09799 -0.25355101 -0.31583899 -0.914307 6.1276961e-37
15.5442 38.6516 378.71701 -0.245125 -0.305338 -0.92015302 6.1276961e-37
15.4024 36.950199 379.28699 -0.24375799 -0.29347 -0.92436802 6.1276961e-37
15.213 35.2463 379.836 -0.242033 -0.281259 -0.928608 6.1276961e-37
15.0221 33.5438 380.388 -0.239154 -0.268805 -0.93303198 6.1276961e-37
14.6144 31.875999 380.92899 -0.240328 -0.254942 -0.93661499 6.1276961e-37
14.8087 30.1653 381.45401 -0.226605 -0.245648 -0.94250101 6.1276961e-37
14.4226 28.4638 381.896 -0.224612 -0.23357099 -0.94604099 6.1276961e-37
14.0277 26.770399 382.362 -0.22160301 -0.22036099 -0.94991201 6.1276961e-37
13.651 25.064699 382.79599 -0.216848 -0.206322 -0.954153 6.1276961e-37
13.6475 23.3302 383.27701 -0.20187201 -0.194626 -0.95987999 6.1276961e-37
13.627 21.616899 383.828 -0.186738 -0.181897 -0.96542299 6.1276961e-37
12.9394 19.968 384.048 -0.18804 -0.167564 -0.96776199 6.1276961e-37
12.242 18.3416 384.37799 -0.191571 -0.163417 -0.96777898 6.1276961e-37
11.268 16.8526 384.64999 -0.205755 -0.157254 -0.965886 6.1276961e-37
9.53936 17.0268 385.121 -0.26227301 -0.13886499 -0.95494998 6.1276961e-37
7.8701 17.462601 385.634 -0.325481 -0.118932 -0.938039 6.1276961e-37
6.1602001 17.3473 386.18399 -0.343945 -0.106787 -0.93289798 6.1276961e-37
4.58424 16.792801 386.854 -0.332032 -0.102386 -0.93769503 6.1276961e-37
2.96315 16.5016 387.57999 -0.32234401 -0.098899998 -0.94144201 6.1276961e-37
1.28439 17.050699 387.927 -0.315056 -0.098107196 -0.94398898 6.1276961e-37
-0.38657701 16.718399 388.508 -0.28442001 -0.098394297 -0.953637 6.1276961e-37
-2.11092 16.782 389.021 -0.24092799 -0.100397 -0.96533602 6.1276961e-37
-3.8510101 16.605801 389.44601 -0.19780301 -0.101412 -0.97498202 6.1276961e-37
-5.6053801 16.881399 389.73999 -0.15488499 -0.105598 -0.98227298 6.1276961e-37
-7.38873 16.832199 389.979 -0.14142799 -0.107292 -0.98411697 6.1276961e-37
-9.1738501 16.8482 390.20901 -0.138034 -0.107236 -0.98460501 6.1276961e-37
-10.9222 16.6768 390.60199 -0.13354801 -0.104353 -0.985533 6.1276961e-37
-12.7146 16.5548 390.71301 -0.12792499 -0.099799097 -0.98675001 6.1276961e-37
-14.2856 15.8033 391.168 -0.100481 -0.092440397 -0.99063498 6.1276961e-37
-16.0776 15.6335 391.164 -0.063431099 -0.091051601 -0.99382401 6.1276961e-37
-17.8762 15.5965 391.22299 -0.0272772 -0.094350502 -0.99516499 6.1276961e-37
-19.6717 15.6991 391.298 0.0086519299 -0.103224 -0.99462098 6.1276961e-37
-21.3689 15.1013 391.25201 0.032064699 -0.110862 -0.99331802 6.1276961e-37
-23.1607 14.9409 391.19 0.056932099 -0.119875 -0.99115503 6.1276961e-37
-24.839399 14.2916 391.17099 0.0797664 -0.122781 -0.989223 6.1276961e-37
-26.4132 13.4181 391.16501 0.103575 -0.120898 -0.98724699 6.1276961e-37
-28.1959 13.2851 390.95499 0.133513 -0.119243 -0.98384702 6.1276961e-37
-29.9748 13.1756 390.703 0.164124 -0.120713 -0.97902602 6.1276961e-37
-31.679399 12.6658 390.42999 0.19312 -0.124936 -0.97318798 6.1276961e-37
-33.4375 12.466 390.10001 0.226555 -0.13862801 -0.96408302 6.1276961e-37
-35.139599 12.0575 389.67999 0.27271 -0.157263 -0.94915599 6.1276961e-37
-36.720798 11.3364 389.211 0.32286599 -0.174651 -0.93019098 6.1276961e-37
-38.437599 11.2907 388.672 0.36907801 -0.199011 -0.90784198 6.1276961e-37
-40.028198 11.6251 387.89899 0.40332001 -0.228201 -0.88614702 6.1276961e-37
