# .PCD v0.7 - Point Cloud Data file format
VERSION 0.7
FIELDS x y z normal_x normal_y normal_z curvature
SIZE 4 4 4 4 4 4 4
TYPE F F F F F F F
COUNT 1 1 1 1 1 1 1
WIDTH 151
HEIGHT 1
VIEWPOINT 0 0 0 1 0 0 0
POINTS 151
DATA ascii
1.08401 48.610401 403.896 -0.38269401 -0.612369 -0.691773 2.5769836e-37
2.5132501 47.517899 403.95599 -0.26594201 -0.66571999 -0.69720298 2.5769836e-37
3.4409001 46.2826 404.88 -0.195593 -0.68371898 -0.70304501 2.5769836e-37
4.1412101 44.9501 405.867 -0.162246 -0.68774801 -0.70758599 2.5769836e-37
4.8983402 43.7528 406.97699 -0.14485601 -0.68689501 -0.712174 2.5769836e-37
5.90657 42.544601 407.85101 -0.143672 -0.68319201 -0.71596599 2.5769836e-37
6.9911499 41.477501 408.81299 -0.15642001 -0.67495501 -0.72108799 2.5769836e-37
7.5338602 40.134201 409.88101 -0.169888 -0.66371 -0.72844201 2.5769836e-37
8.2898598 38.8279 410.862 -0.192348 -0.65001202 -0.73517799 2.5769836e-37
8.6374302 37.426701 411.93701 -0.20558199 -0.63608402 -0.743729 2.5769836e-37
9.6897001 36.283901 412.84601 -0.22079299 -0.620368 -0.75259203 2.5769836e-37
10.0904 34.775398 413.74301 -0.231464 -0.60505801 -0.76179397 2.5769836e-37
10.939 33.388401 414.51501 -0.24549399 -0.58932501 -0.76969397 2.5769836e-37
11.5006 31.915899 415.38501 -0.256437 -0.57418698 -0.77752799 2.5769836e-37
12.275 30.4804 416.146 -0.26817799 -0.55958998 -0.784181 2.5769836e-37
13.0752 29.050301 416.89099 -0.27861601 -0.54614699 -0.78999698 2.5769836e-37
14.2749 27.824699 417.43701 -0.27263701 -0.53698897 -0.79831803 2.5769836e-37
14.4362 26.2953 418.37299 -0.27403399 -0.526043 -0.80509901 2.5769836e-37
15.1802 24.787901 419.01599 -0.26750201 -0.516743 -0.81327701 2.5769836e-37
15.9185 23.301701 419.71399 -0.26447001 -0.50711697 -0.820297 2.5769836e-37
16.697599 21.8724 420.48199 -0.26557201 -0.49580699 -0.82683003 2.5769836e-37
17.163 20.3636 421.112 -0.27191001 -0.48111099 -0.83342499 2.5769836e-37
17.803499 18.808701 421.754 -0.282897 -0.46420401 -0.83933502 2.5769836e-37
18.094801 17.2313 422.57001 -0.295865 -0.44814399 -0.84358197 2.5769836e-37
19.0625 15.7555 422.92499 -0.29599699 -0.430069 -0.85289299 2.5769836e-37
19.8454 14.2381 423.495 -0.290589 -0.412709 -0.86326599 2.5769836e-37
20.2992 12.6098 424.11301 -0.297571 -0.396323 -0.86855 2.5769836e-37
20.93 10.9931 424.591 -0.30160701 -0.37929201 -0.87474102 2.5769836e-37
20.625799 9.3764896 425.32199 -0.32240701 -0.368379 -0.87198102 2.5769836e-37
21.2103 7.7241702 425.73199 -0.32751 -0.35144001 -0.877056 2.5769836e-37
21.3225 6.0353899 426.345 -0.340453 -0.33659801 -0.877949 2.5769836e-37
21.849501 4.3775802 426.80701 -0.34840399 -0.320005 -0.881028 2.5769836e-37
22.1579 2.6727099 427.29599 -0.359469 -0.304683 -0.88201499 2.5769836e-37
22.4147 0.95987999 427.78601 -0.37137699 -0.28995001 -0.88204801 2.5769836e-37
22.4657 -0.76067603 428.31201 -0.38433501 -0.27685601 -0.88070297 2.5769836e-37
22.5355 -2.48682 428.81799 -0.39691001 -0.26394001 -0.879089 2.5769836e-37
22.9639 -4.19592 429.186 -0.41002399 -0.24878301 -0.87748897 2.5769836e-37
22.9419 -5.9525199 429.578 -0.42312101 -0.23660401 -0.87463498 2.5769836e-37
22.593399 -7.6016302 430.20999 -0.43093199 -0.22612301 -0.87359399 2.5769836e-37
22.503401 -9.3350496 430.686 -0.43794 -0.212817 -0.87345201 2.5769836e-37
22.395901 -11.0744 431.13699 -0.44197601 -0.199416 -0.87458003 2.5769836e-37
22.727699 -12.8303 431.353 -0.45012099 -0.18479601 -0.87363702 2.5769836e-37
22.9028 -14.5999 431.63199 -0.453455 -0.17151999 -0.87461901 2.5769836e-37
22.998899 -16.372101 431.93301 -0.452319 -0.159137 -0.87754399 2.5769836e-37
23.0112 -18.146999 432.23099 -0.446347 -0.147218 -0.88266701 2.5769836e-37
23.0742 -19.9275 432.48801 -0.43696201 -0.136105 -0.88912302 2.5769836e-37
22.8634 -21.6812 432.83499 -0.42066801 -0.12712599 -0.89826399 2.5769836e-37
22.653099 -23.437099 433.17099 -0.40156901 -0.120844 -0.907821 2.5769836e-37
22.4643 -25.202101 433.46899 -0.37975299 -0.114359 -0.917992 2.5769836e-37
22.2027 -26.957399 433.76999 -0.35572901 -0.106282 -0.92852598 2.5769836e-37
21.7861 -28.6751 434.10999 -0.33275801 -0.094681799 -0.93824703 2.5769836e-37
21.742701 -30.466 434.285 -0.30213901 -0.089688197 -0.94903499 2.5769836e-37
20.849899 -31.9764 434.68799 -0.297075 -0.0674024 -0.95247197 2.5769836e-37
20.549101 -33.728901 434.96701 -0.27682999 -0.055295501 -0.95932698 2.5769836e-37
19.306101 -34.973801 435.34799 -0.31380999 -0.031231301 -0.94897199 2.5769836e-37
18.7624 -36.680801 435.52301 -0.32292801 -0.0391348 -0.94561398 2.5769836e-37
17.891001 -38.227699 435.819 -0.356987 -0.041864499 -0.93317097 2.5769836e-37
17.2435 -39.890499 436.05499 -0.318102 -0.052077599 -0.94662499 2.5769836e-37
16.9734 -41.078701 437.38 -0.275998 -0.056718498 -0.95948303 2.5769836e-37
16.7222 -42.523899 438.423 -0.23351 -0.062868498 -0.97031999 2.5769836e-37
15.9515 -44.147701 438.521 -0.16752 -0.063728601 -0.98380703 2.5769836e-37
14.444 -44.815102 437.798 -0.079614803 -0.037142601 -0.99613398 2.5769836e-37
12.9897 -45.771198 437.33899 -0.039962199 0.00138627 -0.99919999 2.5769836e-37
12.6204 -47.532001 437.28101 -0.00927033 0.010267 -0.99990398 2.5769836e-37
11.1331 -48.545799 437.289 -0.096339703 0.0557677 -0.99378502 2.5769836e-37
10.6093 -50.259899 437.12399 -0.090706401 0.073001698 -0.99319798 2.5769836e-37
10.7846 -52.046299 436.98999 -0.024239 0.058685198 -0.99798203 2.5769836e-37
9.8109102 -53.5602 437.00699 -0.075092196 0.077071398 -0.99419397 2.5769836e-37
8.8559904 -55.073601 437.20099 -0.126399 0.094489902 -0.98746902 2.5769836e-37
7.2867999 -55.9548 437.16901 -0.152623 0.123881 -0.98048902 2.5769836e-37
6.29076 -57.454102 437.172 -0.134341 0.14020699 -0.98096597 2.5769836e-37
5.0327601 -58.7397 437.103 -0.124199 0.162205 -0.97891003 2.5769836e-37
3.3693299 -59.427299 437.11801 -0.127793 0.19074801 -0.97328502 2.5769836e-37
2.7054801 -61.081402 436.866 -0.091922604 0.207313 -0.97394598 2.5769836e-37
1.88375 -62.6828 436.858 -0.0625365 0.22624899 -0.97206002 2.5769836e-37
0.115031 -62.961899 436.67401 -0.066401601 0.24402 -0.96749401 2.5769836e-37
-1.18932 -64.182899 436.45599 -0.090401798 0.251524 -0.96362001 2.5769836e-37
-2.73703 -65.1007 436.409 -0.19169199 0.23852301 -0.95203 2.5769836e-37
-3.9517901 -66.379898 436.767 -0.34234601 0.209699 -0.915874 2.5769836e-37
-4.72545 -64.838501 437.28201 -0.379565 0.177018 -0.90807199 2.5769836e-37
-5.3677402 -63.245899 437.82199 -0.39519799 0.14805999 -0.90658498 2.5769836e-37
-6.0436401 -61.6982 438.444 -0.406142 0.116496 -0.90635401 2.5769836e-37
-6.4639602 -59.971802 438.73199 -0.36999699 0.102528 -0.92335802 2.5769836e-37
-6.9825201 -58.288399 439.103 -0.35554701 0.086571299 -0.93063998 2.5769836e-37
-7.5295501 -56.636101 439.56201 -0.359615 0.071419299 -0.93036401 2.5769836e-37
-7.81883 -54.864799 439.69901 -0.33966699 0.068401799 -0.93805498 2.5769836e-37
-8.4704199 -53.238998 440.11401 -0.36844301 0.053183999 -0.928128 2.5769836e-37
-8.8418903 -51.485199 440.276 -0.36243799 0.048004899 -0.93077099 2.5769836e-37
-9.46527 -49.850601 440.70001 -0.39403901 0.0303332 -0.91859299 2.5769836e-37
-9.8421297 -48.098499 440.867 -0.39100599 0.019163599 -0.92018902 2.5769836e-37
-10.1225 -46.3214 440.92599 -0.381724 0.0076085599 -0.924245 2.5769836e-37
-10.6391 -44.626801 441.24399 -0.42389101 -0.0105182 -0.90565199 2.5769836e-37
-10.6052 -42.839199 441.03601 -0.372217 -0.0111738 -0.92807901 2.5769836e-37
-10.6313 -41.041698 440.944 -0.337237 -0.015099 -0.94129902 2.5769836e-37
-11.366 -39.449402 441.35001 -0.42056999 -0.0331144 -0.90665501 2.5769836e-37
-11.7393 -37.6922 441.46301 -0.44046101 -0.0424974 -0.89676499 2.5769836e-37
-11.8655 -35.8983 441.38501 -0.426714 -0.0475761 -0.90313399 2.5769836e-37
-12.2263 -34.1409 441.53101 -0.44682601 -0.056919601 -0.89280802 2.5769836e-37
-12.4477 -32.355 441.49301 -0.44515899 -0.068843499 -0.89280099 2.5769836e-37
-12.4559 -30.5702 441.259 -0.417979 -0.079999499 -0.90492702 2.5769836e-37
-12.3902 -28.7904 440.99799 -0.38502401 -0.090515703 -0.91845697 2.5769836e-37
-12.7385 -27.0245 440.98099 -0.401687 -0.104808 -0.90976 2.5769836e-37
-13.1139 -25.265499 441.05099 -0.42388099 -0.118336 -0.89795399 2.5769836e-37
-12.9994 -23.510401 440.668 -0.38978001 -0.12725 -0.91207403 2.5769836e-37
-13.4579 -21.7763 440.819 -0.42389801 -0.139153 -0.89495599 2.5769836e-37
-12.9661 -20.1686 440.17599 -0.35546401 -0.145265 -0.92333299 2.5769836e-37
-13.4943 -18.4494 440.25 -0.395915 -0.156192 -0.90490597 2.5769836e-37
-13.7332 -16.6696 440.12701 -0.40746 -0.16810501 -0.89761698 2.5769836e-37
-13.7751 -14.9017 439.79099 -0.40083399 -0.17883199 -0.89852798 2.5769836e-37
-13.7183 -13.1739 439.29001 -0.385717 -0.189402 -0.90296698 2.5769836e-37
-13.7954 -11.4117 438.931 -0.389126 -0.198724 -0.89949399 2.5769836e-37
-13.6936 -9.6819201 438.444 -0.37939399 -0.208966 -0.90132898 2.5769836e-37
-13.7048 -7.91886 438.08099 -0.386114 -0.217475 -0.89644903 2.5769836e-37
-13.7549 -6.1476798 437.76401 -0.40138099 -0.224362 -0.88800597 2.5769836e-37
-13.1819 -4.6441302 436.957 -0.35312301 -0.24218 -0.90368801 2.5769836e-37
-13.1381 -2.8973899 436.52499 -0.36376399 -0.248918 -0.89761698 2.5769836e-37
-13.1357 -1.14742 436.103 -0.38245901 -0.25108999 -0.88920099 2.5769836e-37
-13.1357 0.58400798 435.61099 -0.40294001 -0.25305799 -0.87954599 2.5769836e-37
-13.0536 2.27069 434.98801 -0.41501799 -0.257783 -0.87252998 2.5769836e-37
-12.786 3.90714 434.28799 -0.410541 -0.268406 -0.87144399 2.5769836e-37
-12.5987 5.6012802 433.70901 -0.42138699 -0.275805 -0.86392403 2.5769836e-37
-12.3981 7.2777801 433.08499 -0.43208599 -0.284273 -0.855856 2.5769836e-37
-12.4913 9.0264902 432.66901 -0.48200899 -0.27884701 -0.83060902 2.5769836e-37
-12.084 10.5676 431.83301 -0.467893 -0.29811901 -0.83198601 2.5769836e-37
-12.0096 12.2757 431.26999 -0.50076199 -0.295937 -0.81342399 2.5769836e-37
-11.3851 13.6314 430.26401 -0.44773 -0.32449999 -0.83320898 2.5769836e-37
-11.572 15.3797 429.879 -0.515697 -0.30690899 -0.79991502 2.5769836e-37
-10.7167 16.4725 428.73199 -0.41473299 -0.350541 -0.83971298 2.5769836e-37
-10.7806 18.193001 428.207 -0.47040901 -0.33908701 -0.81470001 2.5769836e-37
-10.4925 19.771099 427.39099 -0.46700001 -0.34848499 -0.81269199 2.5769836e-37
-10.1703 21.3186 426.53 -0.45808801 -0.360533 -0.812509 2.5769836e-37
-9.4231701 22.466999 425.362 -0.34968999 -0.40723699 -0.84372699 2.5769836e-37
-9.1171999 24.045601 424.55301 -0.35494399 -0.41829601 -0.836088 2.5769836e-37
-8.9557695 25.6758 423.80801 -0.396301 -0.41460401 -0.81917602 2.5769836e-37
-8.4261103 27.0583 422.784 -0.38448301 -0.432046 -0.81578702 2.5769836e-37
-7.9687099 28.491699 421.79599 -0.377956 -0.44420901 -0.812298 2.5769836e-37
-7.71875 30.0592 420.94699 -0.396487 -0.44456801 -0.80321699 2.5769836e-37
-7.2193599 31.433399 419.897 -0.38148901 -0.45838201 -0.802715 2.5769836e-37
-6.6915598 32.791801 418.841 -0.36687699 -0.47260299 -0.80127901 2.5769836e-37
-6.0743499 34.062599 417.72501 -0.347211 -0.49098101 -0.79898798 2.5769836e-37
-5.41571 35.278 416.57199 -0.331321 -0.51158702 -0.79278302 2.5769836e-37
-5.2782001 36.875 415.754 -0.37608099 -0.504722 -0.77705801 2.5769836e-37
-4.6844301 38.143299 414.62299 -0.37834901 -0.51280099 -0.77064103 2.5769836e-37
-4.13657 39.465401 413.53101 -0.38031301 -0.51726502 -0.76668 2.5769836e-37
-3.6076701 40.7924 412.436 -0.38163501 -0.520697 -0.76369399 2.5769836e-37
-2.95892 41.9884 411.25699 -0.37158799 -0.53035301 -0.762003 2.5769836e-37
-2.21434 43.066799 410.02301 -0.35790899 -0.54447103 -0.75858599 2.5769836e-37
-1.64964 44.339298 408.88199 -0.368339 -0.54980201 -0.74969602 2.5769836e-37
-0.974383 45.4538 407.64099 -0.37736699 -0.56173801 -0.73623598 2.5769836e-37
-0.128585 46.353699 406.33099 -0.36842501 -0.58484 -0.72265202 2.5769836e-37
0.284087 47.729401 405.246 -0.39502999 -0.586806 -0.70683098 2.5769836e-37
