# .PCD v0.7 - Point Cloud Data file format
VERSION 0.7
FIELDS x y z normal_x normal_y normal_z curvature
SIZE 4 4 4 4 4 4 4
TYPE F F F F F F F
COUNT 1 1 1 1 1 1 1
WIDTH 148
HEIGHT 1
VIEWPOINT 0 0 0 1 0 0 0
POINTS 148
DATA ascii
35.618099 -23.9869 389.41 0.0076640099 0.671009 0.741409 6.1258881e-37
36.0616 -22.609501 388.33899 -0.00839925 0.65824199 0.75275999 6.1258881e-37
35.466099 -23.9126 389.42899 0.0025053299 0.67263198 0.73997301 6.1258881e-37
36.508701 -21.053499 386.87399 -0.031881601 0.64371401 0.76460201 6.1258881e-37
36.6576 -19.6178 385.79901 -0.0523366 0.63344997 0.77201098 6.1258881e-37
37.085201 -18.2749 384.67899 -0.060647599 0.62097698 0.781479 6.1258881e-37
37.176601 -16.7572 383.715 -0.0734777 0.60997301 0.78900802 6.1258881e-37
37.383801 -15.2903 382.69299 -0.080881201 0.59744197 0.79782301 6.1258881e-37
37.743301 -13.8574 381.66501 -0.0827595 0.58377397 0.80768698 6.1258881e-37
38.3741 -12.552 380.59799 -0.077453703 0.57013202 0.81789398 6.1258881e-37
38.446899 -10.9969 379.694 -0.085514501 0.55822498 0.82527101 6.1258881e-37
39.372799 -9.8554802 378.655 -0.073550999 0.54568398 0.83475697 6.1258881e-37
40.8927 -8.90798 378.47601 -0.047472998 0.53429002 0.84396702 6.1258881e-37
42.118401 -7.8038201 377.75601 -0.033246201 0.52151197 0.85259598 6.1258881e-37
42.5737 -6.2884798 376.89801 -0.036584899 0.51088798 0.858868 6.1258881e-37
43.169899 -4.8976302 375.923 -0.038120899 0.50046998 0.864914 6.1258881e-37
43.2379 -3.2967801 375.103 -0.048317801 0.485578 0.87285697 6.1258881e-37
43.387402 -1.7078201 374.271 -0.057286698 0.46961299 0.88101202 6.1258881e-37
43.4076 -0.093198098 373.47501 -0.067118503 0.454687 0.88811898 6.1258881e-37
43.730202 1.4462399 372.60001 -0.0728065 0.43932199 0.89537501 6.1258881e-37
43.9725 3.01964 371.76001 -0.078275204 0.42495599 0.90182298 6.1258881e-37
44.0047 4.6572099 371.013 -0.084028997 0.411744 0.907417 6.1258881e-37
43.947601 6.33044 370.35199 -0.088532798 0.399084 0.91263002 6.1258881e-37
44.0518 7.9815502 369.64301 -0.089544803 0.386383 0.91798103 6.1258881e-37
44.0172 9.6604099 368.995 -0.089402102 0.37365901 0.92324799 6.1258881e-37
43.9758 11.3413 368.35199 -0.087172002 0.36068001 0.92860699 6.1258881e-37
44.235298 12.9371 367.561 -0.080061004 0.34853601 0.93387002 6.1258881e-37
44.010101 14.6447 367.03799 -0.075840399 0.334571 0.93931401 6.1258881e-37
44.010399 16.3333 366.41501 -0.0675852 0.320885 0.944704 6.1258881e-37
43.944302 18.0371 365.83801 -0.058753099 0.306501 0.950055 6.1258881e-37
43.865898 19.747 365.28101 -0.048384499 0.296691 0.95374697 6.1258881e-37
43.7486 21.472401 364.78201 -0.036185499 0.286825 0.95729899 6.1258881e-37
43.785301 23.1716 364.189 -0.018592101 0.27719599 0.96063298 6.1258881e-37
43.3703 24.897301 363.88901 -0.0099382503 0.26221201 0.96495903 6.1258881e-37
43.287998 26.624001 363.388 0.0080573102 0.248924 0.96849 6.1258881e-37
43.061901 28.370199 363.01401 0.0226644 0.23290101 0.97223598 6.1258881e-37
42.885502 30.091999 362.51999 0.0391059 0.21631999 0.97553903 6.1258881e-37
42.2687 31.771601 362.32401 0.0354422 0.198457 0.979469 6.1258881e-37
42.149502 33.500702 361.83801 0.049905598 0.18774 0.98095 6.1258881e-37
42.0065 35.233799 361.37399 0.062254701 0.176888 0.98225999 6.1258881e-37
40.993198 36.714001 361.52301 0.0227792 0.159604 0.98691797 6.1258881e-37
40.942299 38.471401 361.13699 0.037246399 0.14899801 0.98813599 6.1258881e-37
40.825901 40.220299 360.72699 0.049291201 0.13742401 0.98928499 6.1258881e-37
40.3606 41.953499 360.58701 0.0395412 0.121514 0.99180198 6.1258881e-37
39.627998 43.597599 360.573 0.0087580103 0.102978 0.994645 6.1258881e-37
39.322601 45.356098 360.34 0.0081808101 0.089914598 0.99591601 6.1258881e-37
38.7775 47.0681 360.23001 -0.0075463802 0.073659301 0.99725503 6.1258881e-37
38.629002 48.836498 359.92899 0.0152161 0.0623012 0.99794102 6.1258881e-37
37.943802 50.500301 359.97501 0.015838001 0.044817299 0.99887002 6.1258881e-37
37.395599 52.2145 359.94501 0.017963501 0.0297546 0.99939603 6.1258881e-37
36.826801 53.922298 359.94199 0.0175412 0.0144961 0.99974102 6.1258881e-37
36.113602 55.574501 359.98199 0.0116569 -0.0023551499 0.99992901 6.1258881e-37
35.556 57.285999 359.98199 0.0136958 -0.0142123 0.99980497 6.1258881e-37
35.144901 59.038399 359.979 0.0228163 -0.0250709 0.99942499 6.1258881e-37
34.853199 60.810398 359.858 0.038879398 -0.035289802 0.99862099 6.1258881e-37
33.8722 62.278599 360.20801 0.035599802 -0.057402201 0.99771601 6.1258881e-37
33.7127 64.069 360.11301 0.064638503 -0.069374599 0.99549401 6.1258881e-37
32.576801 65.384201 360.582 0.060548302 -0.0994194 0.99320197 6.1258881e-37
32.367699 67.171898 360.55701 0.086460799 -0.114944 0.98960203 6.1258881e-37
31.4328 68.650497 360.98001 0.081590503 -0.142812 0.98638099 6.1258881e-37
30.0282 69.686897 361.42001 0.0506627 -0.17261399 0.98368597 6.1258881e-37
28.4146 68.9254 361.18201 -0.0038127899 -0.18140499 0.983401 6.1258881e-37
26.882401 67.992699 361.034 -0.037755702 -0.18129601 0.98270398 6.1258881e-37
25.4552 66.938103 360.73199 -0.032932598 -0.174518 0.98410302 6.1258881e-37
24.1616 65.686501 360.728 -0.0162818 -0.16037899 0.98692101 6.1258881e-37
22.5811 64.884201 360.41501 0.0134001 -0.14492901 0.98935097 6.1258881e-37
21.1049 63.869801 360.237 0.0493127 -0.124586 0.99098301 6.1258881e-37
19.738899 62.699001 360.29599 0.088570103 -0.10222 0.99081099 6.1258881e-37
18.1523 61.854698 360.39401 0.120286 -0.080707803 0.98945302 6.1258881e-37
16.598101 60.953899 360.51001 0.144587 -0.0617778 0.987562 6.1258881e-37
15.0052 60.120098 360.595 0.166087 -0.047203898 0.984981 6.1258881e-37
13.6293 59.029301 360.991 0.183532 -0.0358698 0.98235899 6.1258881e-37
12.2372 57.912399 361.22501 0.19648901 -0.029791299 0.98005301 6.1258881e-37
10.9444 56.672199 361.39999 0.19998901 -0.024697799 0.979487 6.1258881e-37
9.4592304 55.7183 361.75299 0.206257 -0.0175646 0.97834003 6.1258881e-37
8.1051102 54.550999 361.961 0.21705 -0.0044221701 0.97615099 6.1258881e-37
6.8727598 53.281601 362.293 0.23300099 0.0127343 0.97239298 6.1258881e-37
5.4589901 52.247501 362.70801 0.255299 0.031803299 0.96633899 6.1258881e-37
4.04881 51.174599 363.02399 0.28712001 0.053574901 0.95639497 6.1258881e-37
2.9465899 49.818001 363.45401 0.33174801 0.075457402 0.94034499 6.1258881e-37
1.98236 48.428902 364.07101 0.37579301 0.097610898 0.92154902 6.1258881e-37
0.712062 47.3032 364.67099 0.42693999 0.118547 0.89647597 6.1258881e-37
-0.060363501 45.822601 365.34201 0.46579999 0.13954499 0.87381798 6.1258881e-37
-1.30722 44.8069 366.151 0.51490098 0.15342399 0.843409 6.1258881e-37
-2.4591801 43.750599 367.04401 0.55956501 0.164654 0.81226599 6.1258881e-37
-3.55005 42.748299 368.06601 0.57830501 0.180611 0.79557699 6.1258881e-37
-4.7109599 41.849602 369.10699 0.58686799 0.197567 0.785209 6.1258881e-37
-5.3945999 40.571899 370.17499 0.59665501 0.211052 0.774248 6.1258881e-37
-6.7414098 39.929199 371.18201 0.60170197 0.22467899 0.766469 6.1258881e-37
-7.5719199 38.7505 372.259 0.60842198 0.235386 0.75790203 6.1258881e-37
-8.6700497 37.945599 373.43701 0.61232299 0.244966 0.75169998 6.1258881e-37
-9.6070099 36.888901 374.55301 0.615677 0.25214201 0.74656898 6.1258881e-37
-9.6105604 35.118 374.875 0.61961401 0.25285199 0.74306399 6.1258881e-37
-9.6120596 33.4958 375.655 0.62291503 0.25392401 0.739932 6.1258881e-37
-9.4924803 31.794399 376.23001 0.62603003 0.25452301 0.737091 6.1258881e-37
-9.0264997 30.068501 376.44101 0.62910402 0.254334 0.73453498 6.1258881e-37
-8.4884501 28.360001 376.61801 0.63175398 0.254556 0.73218 6.1258881e-37
-8.2663603 26.606199 376.957 0.633569 0.25592601 0.73013198 6.1258881e-37
-8.1630001 24.882099 377.46399 0.63458699 0.25794399 0.728535 6.1258881e-37
-8.1190395 23.1577 377.978 0.63493299 0.26344299 0.72626299 6.1258881e-37
-8.0483103 21.437099 378.50201 0.634556 0.270468 0.72400701 6.1258881e-37
-7.7284999 19.7283 378.96899 0.63372999 0.277982 0.72188097 6.1258881e-37
-7.8116498 18.0539 379.62399 0.63204801 0.28574899 0.720321 6.1258881e-37
-7.81179 16.376301 380.27701 0.62988901 0.293865 0.71894598 6.1258881e-37
-7.8115902 14.7087 380.95401 0.62721097 0.30223399 0.71781701 6.1258881e-37
-7.3619199 13.0407 381.45999 0.62532997 0.31112599 0.71565598 6.1258881e-37
-7.79492 11.5771 382.414 0.620646 0.316948 0.71717697 6.1258881e-37
-7.81146 9.9273796 383.134 0.617235 0.32224199 0.71776098 6.1258881e-37
-7.8107901 8.2614899 383.815 0.61413598 0.327537 0.71802199 6.1258881e-37
-7.7554898 6.5861502 384.47101 0.61153299 0.33279699 0.717825 6.1258881e-37
-7.5213299 4.9731002 385.23499 0.609586 0.33793899 0.71707797 6.1258881e-37
-7.5134001 3.3162301 385.93799 0.60710597 0.34304801 0.716757 6.1258881e-37
-7.7764101 1.79831 386.86899 0.60238999 0.34821799 0.71824098 6.1258881e-37
-7.6768098 0.216378 387.72198 0.599711 0.35347101 0.71791703 6.1258881e-37
-7.9122901 -1.34382 388.58899 0.59400302 0.35912099 0.71985501 6.1258881e-37
-7.6013899 -3.01618 389.177 0.59133798 0.36584699 0.71866202 6.1258881e-37
-7.2047 -4.6893301 389.70901 0.58864301 0.373779 0.71679002 6.1258881e-37
-7.3568101 -6.2595901 390.57599 0.57881898 0.38166901 0.72062302 6.1258881e-37
-7.1180501 -7.8582001 391.36801 0.57045698 0.391278 0.72213602 6.1258881e-37
-6.4929199 -9.4775295 391.845 0.56683499 0.402055 0.71906102 6.1258881e-37
-6.5971198 -11.0538 392.70801 0.550964 0.39427099 0.73551899 6.1258881e-37
-6.3531199 -12.6754 393.45001 0.53910702 0.390212 0.74638999 6.1258881e-37
-5.9557199 -14.2894 394.14001 0.52846801 0.38872901 0.75472599 6.1258881e-37
-5.72858 -15.9656 394.75601 0.51433301 0.38828301 0.76465499 6.1258881e-37
-4.3460202 -16.1989 393.62701 0.54324001 0.402666 0.73671597 6.1258881e-37
-2.81795 -16.0109 392.694 0.53048199 0.42843801 0.731457 6.1258881e-37
-1.3198 -16.3286 391.74899 0.50164998 0.45524701 0.73559302 6.1258881e-37
0.26985601 -16.634399 390.96201 0.47141799 0.47933799 0.74027002 6.1258881e-37
1.7906801 -16.6126 389.99899 0.44526201 0.49863899 0.743707 6.1258881e-37
3.3220201 -17.375299 389.439 0.40442401 0.52166897 0.75120097 6.1258881e-37
5.0254302 -17.7313 388.979 0.363747 0.54275101 0.75704002 6.1258881e-37
6.7132001 -17.884001 388.37201 0.32423699 0.56075102 0.761859 6.1258881e-37
8.3787003 -18.5441 388.198 0.28122899 0.57931298 0.76505399 6.1258881e-37
10.1063 -18.941401 387.88599 0.25173199 0.59237802 0.76532298 6.1258881e-37
11.8136 -19.496799 387.75699 0.223601 0.60378999 0.76514101 6.1258881e-37
13.4299 -20.2582 387.97601 0.197762 0.61386698 0.76423597 6.1258881e-37
15.1661 -20.731199 387.92999 0.173196 0.62102401 0.76441598 6.1258881e-37
16.8892 -21.247601 387.99301 0.15472899 0.62704903 0.76345801 6.1258881e-37
18.639099 -21.668501 388.021 0.136401 0.63431501 0.76094598 6.1258881e-37
20.3186 -22.316099 388.01199 0.11621 0.64399999 0.75614798 6.1258881e-37
22.088301 -22.6381 388.077 0.0948378 0.65534198 0.74935502 6.1258881e-37
23.8351 -22.9566 388.37299 0.062065601 0.66897601 0.74068898 6.1258881e-37
25.5886 -23.348 388.48199 0.021720599 0.67984098 0.73303801 6.1258881e-37
27.2686 -23.814699 388.92899 -0.016426999 0.68874103 0.72482097 6.1258881e-37
29.010401 -24.049801 389.31699 -0.053208999 0.69305497 0.71891803 6.1258881e-37
30.708 -24.411699 389.79401 -0.073057503 0.69596601 0.71434802 6.1258881e-37
32.4832 -24.4678 390.086 -0.050280198 0.69605702 0.71622401 6.1258881e-37
34.249401 -24.588699 390.41199 -0.0144638 0.68977898 0.723876 6.1258881e-37
