# .PCD v0.7 - Point Cloud Data file format
VERSION 0.7
FIELDS x y z normal_x normal_y normal_z curvature
SIZE 4 4 4 4 4 4 4
TYPE F F F F F F F
COUNT 1 1 1 1 1 1 1
WIDTH 67
HEIGHT 1
VIEWPOINT 0 0 0 1 0 0 0
POINTS 67
DATA ascii
9.3552799 20.039101 354.246 0.35817999 0.64201999 0.67787701 2.8034729e-37
10.5898 20.475 353.01099 0.37702101 0.63600498 0.67331499 2.8034729e-37
10.7971 21.728201 351.73599 0.37076101 0.63690901 0.67593199 2.8034729e-37
10.6155 23.103001 350.58801 0.35673499 0.64359301 0.67714697 2.8034729e-37
10.3908 24.465401 349.43301 0.34547001 0.65009898 0.67677301 2.8034729e-37
10.2313 25.694401 348.12799 0.34505001 0.64314097 0.68360102 2.8034729e-37
10.4182 25.808201 348.077 0.346369 0.642456 0.68357801 2.8034729e-37
10.5232 27.1014 346.82901 0.34713101 0.636343 0.68888903 2.8034729e-37
10.6492 28.3717 345.56 0.34507599 0.63068801 0.69509399 2.8034729e-37
10.8125 29.632999 344.28699 0.341474 0.61639398 0.70954502 2.8034729e-37
11.0007 31.016899 343.151 0.33193001 0.59888297 0.72880799 2.8034729e-37
11.2951 32.314999 341.939 0.31634399 0.57851601 0.75182903 2.8034729e-37
11.5202 33.719799 340.83701 0.30248299 0.56384498 0.76849401 2.8034729e-37
11.8368 35.088902 339.71201 0.288975 0.562397 0.774728 2.8034729e-37
12.0053 36.52 338.633 0.27415299 0.56116599 0.78098202 2.8034729e-37
12.4968 37.807598 337.47501 0.25556201 0.55208403 0.793657 2.8034729e-37
13.0983 39.064201 336.336 0.228402 0.53231001 0.81515598 2.8034729e-37
13.1132 40.658199 335.49899 0.20649201 0.52248698 0.82726598 2.8034729e-37
13.7853 42.021301 334.535 0.19152901 0.51188898 0.83742899 2.8034729e-37
14.4556 43.3619 333.53799 0.178866 0.50535297 0.84417099 2.8034729e-37
15.3875 44.5299 332.535 0.17072 0.49153 0.85396302 2.8034729e-37
15.7756 46.105099 331.755 0.16495299 0.47525501 0.86424702 2.8034729e-37
16.6828 47.190701 330.642 0.16336399 0.461611 0.87190998 2.8034729e-37
16.570499 48.889 330.056 0.16338 0.454923 0.87541503 2.8034729e-37
16.508699 50.489101 329.23401 0.16948999 0.470056 0.86620998 2.8034729e-37
14.958 51.379902 329.02899 0.166595 0.46862099 0.86754799 2.8034729e-37
13.2859 51.998001 328.78 0.15193801 0.45735601 0.87620801 2.8034729e-37
11.5616 52.054901 329.29401 0.181609 0.452344 0.87315702 2.8034729e-37
9.8083 52.3465 329.578 0.21398801 0.45302799 0.86543298 2.8034729e-37
8.0592203 52.3582 330.00299 0.246675 0.45642 0.85488701 2.8034729e-37
6.3490901 52.842602 330.28799 0.28096101 0.45804301 0.84336102 2.8034729e-37
4.6908898 53.520699 330.46201 0.32285601 0.45907 0.827658 2.8034729e-37
3.0190101 53.8979 331.013 0.36358601 0.465698 0.80680299 2.8034729e-37
1.4342999 54.740898 331.147 0.393408 0.47382799 0.78785598 2.8034729e-37
-0.176267 55.370998 331.646 0.42723301 0.477826 0.767564 2.8034729e-37
-1.73712 56.047298 332.23401 0.45205301 0.479276 0.75229198 2.8034729e-37
-3.3100901 56.9123 332.367 0.47767699 0.47713 0.73768002 2.8034729e-37
-4.7002702 57.898499 332.94601 0.499717 0.475878 0.72375602 2.8034729e-37
-6.22051 58.682201 333.50699 0.50749898 0.48918399 0.70932603 2.8034729e-37
-7.7943902 59.417099 333.979 0.484916 0.52615702 0.69858098 2.8034729e-37
-8.1577396 58.175701 335.23001 0.500395 0.53855199 0.67791402 2.8034729e-37
-7.9349098 56.697601 336.233 0.55499202 0.50948399 0.657579 2.8034729e-37
-7.90379 55.263302 337.32001 0.56862599 0.50779098 0.64715701 2.8034729e-37
-7.59899 53.7738 338.284 0.573973 0.49865299 0.64953798 2.8034729e-37
-7.2682099 52.233601 339.155 0.56635797 0.48864999 0.66367197 2.8034729e-37
-7.21664 50.706799 340.10699 0.54549199 0.48165801 0.68589002 2.8034729e-37
-6.50664 49.157799 340.68701 0.52932101 0.490358 0.69236398 2.8034729e-37
-6.1838698 47.5098 341.33499 0.51314098 0.49724799 0.69959301 2.8034729e-37
-5.4308801 46.048401 342.06799 0.50895703 0.50263202 0.69880199 2.8034729e-37
-4.49576 44.5881 342.54999 0.51831001 0.50509202 0.690099 2.8034729e-37
-4.33988 43.063801 343.495 0.504875 0.51353902 0.69381499 2.8034729e-37
-4.0042701 41.487499 344.297 0.498436 0.52189499 0.69223303 2.8034729e-37
-3.0559499 40.071301 344.87601 0.50936002 0.52911597 0.67866701 2.8034729e-37
-2.4918201 38.565102 345.68399 0.505862 0.54124397 0.67168403 2.8034729e-37
-2.63377 37.1007 346.72101 0.48300901 0.55639201 0.67611402 2.8034729e-37
-1.7558399 35.704102 347.44101 0.48754299 0.57112801 0.66039002 2.8034729e-37
-1.53434 34.2206 348.436 0.47557101 0.584342 0.65755302 2.8034729e-37
-1.11288 32.809898 349.47198 0.472002 0.58352202 0.66084498 2.8034729e-37
-0.359705 31.385401 350.27399 0.484402 0.58108801 0.65398097 2.8034729e-37
0.26125601 29.9184 351.112 0.49433401 0.57868302 0.64866 2.8034729e-37
0.73873901 28.417801 351.98401 0.49458301 0.582636 0.644921 2.8034729e-37
1.8624099 27.0863 352.436 0.49819499 0.58931702 0.63600898 2.8034729e-37
2.60848 25.6509 353.22501 0.48707399 0.59856999 0.63598198 2.8034729e-37
3.9477201 24.4529 353.33099 0.47709101 0.60976398 0.63290697 2.8034729e-37
5.1611099 23.1689 353.67599 0.46241099 0.61813003 0.63568199 2.8034729e-37
6.2376299 21.802601 354.13901 0.42133901 0.62850302 0.65380198 2.8034729e-37
7.71176 20.770901 354.18799 0.37283701 0.640001 0.671857 2.8034729e-37
