# .PCD v0.7 - Point Cloud Data file format
VERSION 0.7
FIELDS x y z normal_x normal_y normal_z curvature
SIZE 4 4 4 4 4 4 4
TYPE F F F F F F F
COUNT 1 1 1 1 1 1 1
WIDTH 173
HEIGHT 1
VIEWPOINT 0 0 0 1 0 0 0
POINTS 173
DATA ascii
-30.4259 91.888496 361.22699 -0.358639 0.79882699 0.48296401 2.7862394e-37
-31.770399 90.772202 361.65799 -0.35756001 0.79727501 0.48631701 2.7862394e-37
-33.045898 89.733498 362.38901 -0.364416 0.79034197 0.492504 2.7862394e-37
-34.652199 88.930298 362.26801 -0.383232 0.78181398 0.491833 2.7862394e-37
-36.1269 88.036598 362.785 -0.39295501 0.77181798 0.499883 2.7862394e-37
-37.764301 87.377899 362.431 -0.39766499 0.76499403 0.50660402 2.7862394e-37
-39.139801 86.222 362.54001 -0.40656501 0.75494701 0.514548 2.7862394e-37
-40.306801 85.023804 363.20499 -0.418688 0.74385703 0.52093899 2.7862394e-37
-41.366901 83.778503 363.957 -0.432293 0.73255998 0.52581298 2.7862394e-37
-42.014301 82.918999 365.39999 -0.443782 0.72390997 0.52821499 2.7862394e-37
-42.991001 81.736298 366.34201 -0.45561001 0.71353 0.53225499 2.7862394e-37
-43.8694 80.491898 367.30099 -0.46060401 0.70546001 0.538674 2.7862394e-37
-44.9786 79.091797 367.07901 -0.45827201 0.69991601 0.54781902 2.7862394e-37
-45.5564 78.261398 368.56799 -0.46471101 0.69301999 0.55115002 2.7862394e-37
-46.481701 76.930801 369.35101 -0.46728799 0.68317097 0.56117702 2.7862394e-37
-47.319401 75.601303 370.229 -0.47093001 0.67076898 0.57296902 2.7862394e-37
-48.304798 74.184402 370.741 -0.47398001 0.65892702 0.58408701 2.7862394e-37
-49.0658 72.940804 371.79599 -0.48025301 0.64571899 0.59363699 2.7862394e-37
-49.817501 71.572502 372.69199 -0.48763001 0.632074 0.60224497 2.7862394e-37
-50.603699 70.182198 373.522 -0.496804 0.61770803 0.60960901 2.7862394e-37
-51.335999 68.786797 374.392 -0.50815302 0.60255003 0.61539698 2.7862394e-37
-52.1576 67.302498 374.99301 -0.50042897 0.59184802 0.63189203 2.7862394e-37
-52.778 65.904999 375.94299 -0.50215298 0.579548 0.64184701 2.7862394e-37
-53.5252 64.426102 376.646 -0.499383 0.567505 0.65464097 2.7862394e-37
-54.193901 62.849701 377.20099 -0.49740601 0.55508202 0.66668701 2.7862394e-37
-54.8867 61.318401 377.84601 -0.49733299 0.54227197 0.67720002 2.7862394e-37
-55.377899 59.878502 378.80801 -0.50343001 0.52904999 0.68312901 2.7862394e-37
-55.8633 58.343201 379.612 -0.50863397 0.51581699 0.68936503 2.7862394e-37
-56.5909 56.829102 380.259 -0.51139897 0.50244999 0.69714701 2.7862394e-37
-57.055401 55.2621 381.013 -0.51840299 0.488848 0.70163101 2.7862394e-37
-57.375 53.716999 381.879 -0.52752799 0.47553799 0.703973 2.7862394e-37
-58.087799 52.090401 382.173 -0.533916 0.45959699 0.70972103 2.7862394e-37
-58.422798 50.5606 383.06 -0.54520702 0.44145101 0.71265 2.7862394e-37
-58.783401 48.9562 383.79199 -0.555857 0.42329299 0.71543401 2.7862394e-37
-59.0882 47.348499 384.54199 -0.56603402 0.40598601 0.71748197 2.7862394e-37
-59.3829 45.689701 385.17599 -0.57556897 0.389119 0.71924001 2.7862394e-37
-59.634201 44.0214 385.80301 -0.58423001 0.373193 0.72069597 2.7862394e-37
-60.004299 43.000198 385.75201 -0.59003401 0.363157 0.72109401 2.7862394e-37
-60.094101 41.487099 386.72299 -0.59576201 0.35046601 0.72266299 2.7862394e-37
-60.3363 39.824402 387.36801 -0.601578 0.337053 0.72422302 2.7862394e-37
-60.643299 38.0774 387.67401 -0.607544 0.32334399 0.72549301 2.7862394e-37
-60.5755 36.585201 388.67899 -0.60855597 0.31085801 0.73008698 2.7862394e-37
-60.7159 34.878502 389.233 -0.61166 0.296767 0.73334903 2.7862394e-37
-60.8218 33.189999 389.84799 -0.613563 0.28302401 0.73718202 2.7862394e-37
-61.062599 31.408001 389.92899 -0.617495 0.26938799 0.739007 2.7862394e-37
-61.167099 29.686899 390.44501 -0.61768299 0.25623199 0.743514 2.7862394e-37
-61.202499 28.013 391.10599 -0.61646497 0.243273 0.74885899 2.7862394e-37
-61.080101 26.3344 391.74399 -0.61322701 0.23035599 0.75557202 2.7862394e-37
-61.064201 24.625 392.30801 -0.609833 0.21731 0.762155 2.7862394e-37
-61.039799 22.8944 392.802 -0.60570103 0.205671 0.76865202 2.7862394e-37
-60.916599 21.197201 393.38901 -0.59982598 0.194089 0.77623302 2.7862394e-37
-60.6502 19.539301 394.03699 -0.59257698 0.18151 0.78479803 2.7862394e-37
-60.4977 17.817101 394.53799 -0.58545703 0.16867401 0.79296201 2.7862394e-37
-60.1567 16.1761 395.19501 -0.57753903 0.154469 0.80161601 2.7862394e-37
-60.051899 14.4172 395.56201 -0.57014501 0.140854 0.80937898 2.7862394e-37
-59.875 12.6493 395.85101 -0.56253099 0.126691 0.81701201 2.7862394e-37
-59.483299 10.9999 396.45599 -0.555704 0.110758 0.82396901 2.7862394e-37
-59.105701 9.3137999 396.95999 -0.54986602 0.096316896 0.82968098 2.7862394e-37
-58.927299 7.5353298 397.173 -0.54319501 0.0853706 0.83525503 2.7862394e-37
-58.519699 5.8649402 397.70599 -0.53817499 0.072055198 0.83974802 2.7862394e-37
-58.273102 4.0851798 397.814 -0.53098202 0.059401602 0.84529799 2.7862394e-37
-57.7999 2.4059999 398.25699 -0.526492 0.044104699 0.84903502 2.7862394e-37
-57.115799 0.86963099 398.89899 -0.52566999 0.0271917 0.850254 2.7862394e-37
-56.924702 -0.92009401 398.879 -0.51772398 0.0122928 0.85545897 2.7862394e-37
-56.2756 -2.5211599 399.38501 -0.51734799 -0.0060492498 0.855753 2.7862394e-37
-55.804199 -4.2556701 399.48099 -0.51336801 -0.023573801 0.85784501 2.7862394e-37
-55.283401 -5.9563498 399.75699 -0.51163501 -0.039540999 0.858293 2.7862394e-37
-54.4613 -7.44734 400.341 -0.51656401 -0.055133801 0.85447198 2.7862394e-37
-53.847801 -9.1169796 400.617 -0.51650703 -0.069276303 0.85347599 2.7862394e-37
-53.3433 -10.8439 400.672 -0.512757 -0.081894703 0.85461903 2.7862394e-37
-52.740898 -12.5391 400.73199 -0.50877303 -0.094378904 0.855712 2.7862394e-37
-51.853699 -14.0066 401.27899 -0.503142 -0.108907 0.85731399 2.7862394e-37
-51.249401 -15.7021 401.27899 -0.49133199 -0.120827 0.86255097 2.7862394e-37
-50.510799 -17.337601 401.41901 -0.480829 -0.13368601 0.86656302 2.7862394e-37
-49.486698 -18.7365 401.90302 -0.47489399 -0.14756601 0.86758298 2.7862394e-37
-47.9132 -18.6628 402.77399 -0.478113 -0.15292101 0.86488301 2.7862394e-37
-46.3386 -18.5574 403.64001 -0.48059499 -0.152687 0.86354798 2.7862394e-37
-44.881901 -18.4382 404.69101 -0.46172601 -0.14795101 0.87459701 2.7862394e-37
-43.250702 -18.65 405.422 -0.42799899 -0.144637 0.89213097 2.7862394e-37
-41.5882 -18.4314 406.07599 -0.39364001 -0.13645101 0.90908098 2.7862394e-37
-40.100101 -18.4193 407.08899 -0.36084399 -0.127817 0.92382598 2.7862394e-37
-38.348202 -18.177401 407.42401 -0.33009899 -0.116271 0.93675798 2.7862394e-37
-36.681301 -17.8936 408.04099 -0.302782 -0.105989 0.94714803 2.7862394e-37
-34.961899 -17.8734 408.573 -0.27477899 -0.101145 0.956173 2.7862394e-37
-33.214802 -18.089399 408.94901 -0.245442 -0.101584 0.96407402 2.7862394e-37
-31.5443 -17.5833 409.388 -0.21678001 -0.100619 0.971021 2.7862394e-37
-29.7843 -17.6539 409.759 -0.20657 -0.106716 0.97259498 2.7862394e-37
-28.108 -17.1325 410.15701 -0.19994 -0.10795 0.97384298 2.7862394e-37
-26.368 -16.972099 410.58899 -0.191994 -0.110984 0.97509998 2.7862394e-37
-24.5973 -16.8564 410.89099 -0.18399499 -0.113629 0.97633702 2.7862394e-37
-22.859699 -16.6984 411.33301 -0.17086001 -0.11411 0.97866499 2.7862394e-37
-21.101 -16.6257 411.70999 -0.15412 -0.112115 0.98167098 2.7862394e-37
-19.416 -16.047899 411.96799 -0.136491 -0.102755 0.98529798 2.7862394e-37
-17.667 -16.426701 412.16199 -0.12097 -0.099263199 0.98768097 2.7862394e-37
-15.8904 -16.7153 412.14499 -0.108707 -0.092432097 0.98976701 2.7862394e-37
-14.1104 -16.896999 412.341 -0.103031 -0.079902098 0.99146402 2.7862394e-37
-12.3215 -16.789301 412.509 -0.097905301 -0.057874698 0.99351102 2.7862394e-37
-10.8329 -15.7967 412.707 -0.0817357 -0.0256647 0.996324 2.7862394e-37
-10.3108 -14.084 412.89099 -0.050652299 -0.0034664599 0.99870998 2.7862394e-37
-9.6891899 -12.3971 412.802 -0.0133336 0.0186178 0.99973798 2.7862394e-37
-9.4183702 -10.6189 412.87201 0.018053399 0.034477301 0.99924201 2.7862394e-37
-8.3561296 -9.1684504 412.95901 0.054446299 0.055662699 0.99696398 2.7862394e-37
-8.1907396 -7.40661 412.63 0.073546402 0.069100201 0.99489498 2.7862394e-37
-7.53508 -5.7319899 412.55399 0.095384397 0.085992701 0.99171901 2.7862394e-37
-6.8848801 -4.06282 412.37799 0.114475 0.102942 0.988078 2.7862394e-37
-6.5300002 -2.3259101 412.06601 0.129696 0.11947 0.98433 2.7862394e-37
-5.9079599 -0.69015503 411.64499 0.146891 0.138273 0.97943997 2.7862394e-37
-5.4582601 1.0305001 411.367 0.16283201 0.150187 0.97515601 2.7862394e-37
-5.0844698 2.76686 411.07501 0.175152 0.15903001 0.97161299 2.7862394e-37
-4.6775298 4.4738302 410.67401 0.18418799 0.165942 0.96878201 2.7862394e-37
-4.2272601 6.0966401 410.039 0.189687 0.170434 0.96693897 2.7862394e-37
-4.1764698 7.86443 409.703 0.18577801 0.174326 0.967004 2.7862394e-37
-4.1277199 9.6570597 409.548 0.177232 0.17797101 0.96794403 2.7862394e-37
-3.6677699 11.3059 408.992 0.16682699 0.17698801 0.969971 2.7862394e-37
-3.4539101 13.0457 408.582 0.148771 0.177669 0.97277999 2.7862394e-37
-3.5185699 14.8361 408.40799 0.130275 0.19059899 0.97298503 2.7862394e-37
-3.2843201 16.603001 408.15799 0.112865 0.20051 0.97316903 2.7862394e-37
-2.9767201 18.337099 407.78601 0.095998697 0.21000899 0.97297502 2.7862394e-37
-2.9337299 20.094999 407.401 0.082205601 0.221894 0.97159898 2.7862394e-37
-2.92784 21.848801 406.996 0.070672601 0.233842 0.96970302 2.7862394e-37
-2.6379299 23.531401 406.42599 0.0579511 0.244 0.96804202 2.7862394e-37
-2.8466401 25.2784 406.04599 0.052382499 0.25644901 0.965137 2.7862394e-37
-2.7781799 26.996201 405.513 0.045190699 0.26749101 0.96249998 2.7862394e-37
-2.77425 28.7103 404.96301 0.0404232 0.27962601 0.95925802 2.7862394e-37
-2.3038399 30.3493 404.38699 0.031666901 0.29114801 0.95615399 2.7862394e-37
-2.5053201 32.068501 403.89301 0.032992799 0.30384001 0.95215201 2.7862394e-37
-2.33566 33.7407 403.24799 0.031475998 0.31634101 0.94812298 2.7862394e-37
-2.3252201 35.467701 402.741 0.033865701 0.328731 0.94381601 2.7862394e-37
-2.25776 37.160099 402.13199 0.0374218 0.34108201 0.93928802 2.7862394e-37
-2.0411799 38.7966 401.414 0.041142501 0.35379499 0.93441802 2.7862394e-37
-2.34569 40.509499 400.953 0.052374899 0.363929 0.92995298 2.7862394e-37
-2.3875799 42.205101 400.35001 0.062463101 0.37477499 0.92500901 2.7862394e-37
-2.0072501 43.812401 399.634 0.069387302 0.38545501 0.92011398 2.7862394e-37
-2.22103 45.470798 398.96799 0.081974298 0.392811 0.91595799 2.7862394e-37
-2.4595001 47.130402 398.31299 0.094383299 0.39996201 0.911659 2.7862394e-37
-2.5910201 48.776501 397.59698 0.105774 0.40778899 0.90692902 2.7862394e-37
-2.98893 50.382 396.88699 0.117646 0.41399199 0.90264601 2.7862394e-37
-2.9518001 51.977699 396.05499 0.12750199 0.42280701 0.897205 2.7862394e-37
-2.90118 53.611198 395.29999 0.13743401 0.43160099 0.89153397 2.7862394e-37
-2.8806601 55.226101 394.50601 0.14739101 0.44022799 0.88570601 2.7862394e-37
-2.99066 56.745701 393.547 0.15666001 0.44482699 0.881809 2.7862394e-37
-3.52613 58.366001 392.97501 0.16089199 0.44617301 0.88036501 2.7862394e-37
-3.5344501 59.942902 392.10699 0.164287 0.450416 0.87757403 2.7862394e-37
-3.8350899 61.615299 391.513 0.162865 0.45542699 0.87524903 2.7862394e-37
-4.0641499 63.239899 390.772 0.159153 0.46177599 0.87260199 2.7862394e-37
-4.10079 64.7491 389.79199 0.15473101 0.46853399 0.86979002 2.7862394e-37
-4.1370401 66.325897 388.92499 0.14790601 0.475986 0.86692703 2.7862394e-37
-4.6182799 67.891197 388.177 0.13549501 0.486105 0.86333299 2.7862394e-37
-4.9973402 69.485497 387.43301 0.122411 0.50067198 0.856938 2.7862394e-37
-5.2809701 70.9692 386.45401 0.109309 0.51965898 0.84735203 2.7862394e-37
-5.8158798 72.435898 385.55801 0.093537703 0.54045802 0.836155 2.7862394e-37
-6.4044199 73.906403 384.703 0.076994002 0.56201601 0.82353503 2.7862394e-37
-6.9678402 75.3162 383.73599 0.060531899 0.58383203 0.80961502 2.7862394e-37
-7.6828899 76.680496 382.80499 0.043354899 0.60594499 0.79432398 2.7862394e-37
-8.4857302 77.979698 381.85199 0.025554299 0.62773001 0.77801102 2.7862394e-37
-9.6101599 79.083 380.98099 -0.0062317899 0.64839798 0.76127601 2.7862394e-37
-10.3756 80.275299 379.871 -0.030804999 0.66867501 0.742917 2.7862394e-37
-11.2199 81.261597 378.62399 -0.057450999 0.68066299 0.73034 2.7862394e-37
-12.693 82.071999 377.98099 -0.090899199 0.68709499 0.72085899 2.7862394e-37
-13.5833 83.1539 376.85101 -0.116393 0.689897 0.71448898 2.7862394e-37
-14.7665 83.967201 375.76599 -0.143327 0.693385 0.70616901 2.7862394e-37
-15.9874 84.777702 374.72101 -0.148128 0.69733799 0.70126802 2.7862394e-37
-17.255501 85.5289 373.68701 -0.151603 0.70150101 0.69635701 2.7862394e-37
-18.197701 86.501999 372.50201 -0.15630899 0.70545697 0.691302 2.7862394e-37
-19.7166 87.019203 371.686 -0.157974 0.71157998 0.68461502 2.7862394e-37
-21.1068 87.582703 370.69101 -0.161212 0.71886802 0.67619503 2.7862394e-37
-22.123301 88.790001 369.82599 -0.184744 0.72626799 0.662121 2.7862394e-37
-23.2015 89.177101 368.43701 -0.21398699 0.7353 0.64307302 2.7862394e-37
-24.382401 89.784302 367.22198 -0.244994 0.74559599 0.61973 2.7862394e-37
-25.907801 90.006401 366.293 -0.27503499 0.75669199 0.59310502 2.7862394e-37
-26.682501 90.563904 364.76599 -0.30493501 0.76682401 0.56479698 2.7862394e-37
-28.1514 90.947197 363.79901 -0.33099401 0.77849698 0.533279 2.7862394e-37
-29.4914 91.3302 362.66 -0.34728801 0.78958201 0.505916 2.7862394e-37
