# .PCD v0.7 - Point Cloud Data file format
VERSION 0.7
FIELDS x y z normal_x normal_y normal_z curvature
SIZE 4 4 4 4 4 4 4
TYPE F F F F F F F
COUNT 1 1 1 1 1 1 1
WIDTH 1288
HEIGHT 1
VIEWPOINT 0 0 0 1 0 0 0
POINTS 1288
DATA ascii
-14.2159 -11.6312 440.345 -0.99359024 -0.031267855 0.1086311 0
-14.2094 -10.1686 439.67001 -0.99901032 0.011506519 -0.042964827 0
-14.2078 -10.4686 439.745 -0.99891764 0.029584469 -0.035892263 0
-14.2049 -11.2935 439.746 -0.9863767 -0.030819263 -0.16158959 0
-14.191 -11.1812 440.38199 -0.98978013 0.028798372 0.13966374 0
-14.1808 -8.0686102 439.14499 -0.98608363 0.03402267 -0.16273133 0
-14.1798 -9.1374998 439.745 -0.9981162 -0.012490806 0.060067065 0
-14.1784 -12.5679 440.345 -0.99953288 0.02525912 -0.017204272 0
-14.1714 -7.7688098 439.14499 -0.99779576 0.028917922 -0.059727855 0
-14.1694 -12.8686 440.26999 -0.99953288 0.02525912 -0.017204272 0
-14.1606 -10.5813 440.345 -0.97192711 0.06522084 0.22606176 0
-14.1581 -9.9436302 440.19501 -0.98722982 0.061428111 0.1469824 0
-14.1539 -13.3185 440.383 -0.98715812 -0.12651308 -0.097536266 0
-14.1535 -8.6312304 439.78201 -0.99034142 0.058981046 0.12547939 0
-14.1258 -14.0684 440.30899 -0.98587441 -0.05091982 -0.15955819 0
-14.1206 -13.6188 440.944 -0.98295015 -0.011698904 0.18349968 0
-14.1145 -7.8811898 439.70801 -0.96467698 0.098703153 0.24424592 0
-14.1137 -9.4563198 440.345 -0.93094957 0.072501928 0.35787755 0
-14.1016 -12.5687 440.944 -0.95563197 0.085117802 0.28199738 0
-14.1016 -14.3686 440.94501 -0.99009907 -0.0030969249 0.1403362 0
-14.1016 -12.5687 440.944 -0.95563197 0.085117802 0.28199738 0
-14.1016 -14.3686 440.94501 -0.99009907 -0.0030969249 0.1403362 0
-14.1007 -13.0374 440.94501 -0.98212683 0.046577696 0.182366 0
-14.0994 -11.5191 440.86801 -0.93055719 0.092484243 0.35427392 0
-14.0978 -14.9498 440.94501 -0.99823803 -0.017493391 0.056699459 0
-14.0952 -6.79356 439.18301 -0.99831718 0.022920208 0.053267848 0
-14.0816 -15.3434 440.92599 -0.99887544 -0.047163747 0.0048466455 0
-14.0778 -8.9310303 440.34601 -0.8709982 0.11863754 0.4767465 0
-14.06 -6.2125902 439.10699 -0.99405301 0.061052773 0.09017273 0
-14.0592 -7.3186302 439.745 -0.91209549 0.088346347 0.40034574 0
-14.0557 -15.7558 440.90799 -0.99176675 -0.11030664 -0.065047435 0
-14.0318 -11.2753 440.98099 -0.91975707 0.073842473 0.38547924 0
-14.0305 -5.7251101 439.10699 -0.98940188 0.10862245 0.096359208 0
-14.0203 -16.7684 440.94601 -0.99105865 -0.040914126 -0.12699933 0
-14.0203 -10.6197 440.86499 -0.92447639 0.062898338 0.37601489 0
-14.0203 -16.7684 440.94601 -0.99105865 -0.040914126 -0.12699933 0
-14.0203 -10.6197 440.86499 -0.92447639 0.062898338 0.37601489 0
-14.0139 -6.82236 439.68701 -0.96896219 0.097943507 0.22697864 0
-14.0138 -8.3689404 440.34399 -0.92732984 0.13829696 0.34775463 0
-14.012 -15.1189 441.46701 -0.9674328 -0.067596748 0.24393545 0
-14.0073 -15.8405 441.414 -0.96823955 0.037128258 0.24725217 0
-13.9978 -14.8195 441.466 -0.96890867 0.035240322 0.24489619 0
-13.994 -16.3186 441.39499 -0.96321398 -0.077637292 0.25727671 0
-13.9857 -17.105801 440.94601 -0.98689222 -0.097218968 -0.12881078 0
-13.9783 -4.9186602 438.54501 -0.99960065 -0.0014578901 -0.028221637 0
-13.9758 -6.4182901 439.67099 -0.97486186 0.091183804 0.20329756 0
-13.9749 -9.4186201 440.72 -0.78441417 0.074448645 0.61575305 0
-13.962 -17.068501 441.47 -0.98422009 0.02384856 0.17533411 0
-13.9598 -4.61867 438.58301 -0.99456871 0.10407698 0.0010618347 0
-13.9579 -17.555901 441.37601 -0.99855918 -0.053390969 -0.005382889 0
-13.9571 -14.2186 441.47 -0.94824535 0.073321059 0.30895752 0
-13.9534 -4.9754701 439.12601 -0.98972654 0.04090466 0.13699718 0
-13.9429 -6.5686698 439.82001 -0.9699319 0.083476134 0.22861293 0
-13.9399 -10.1691 440.922 -0.78410661 0.26798823 0.55978489 0
-13.9397 -17.518299 440.871 -0.95450658 -0.17082958 -0.24440643 0
-13.9375 -5.8210301 439.66199 -0.95154482 0.15077141 0.26801205 0
-13.9356 -3.7188399 438.47 -0.98795551 0.1139257 0.10471315 0
-13.931 -18.0247 441.508 -0.99226457 -0.034344915 0.11929589 0
-13.9303 -10.6183 441.01999 -0.92447639 0.062898338 0.37601489 0
-13.9206 -4.6189098 439.07001 -0.98494709 0.099200703 0.14155746 0
-13.9122 -3.11868 438.095 -0.99584538 0.0097766249 -0.090533756 0
-13.9088 -18.174601 440.983 -0.98039269 -0.091603279 -0.1744677 0
-13.9065 -11.969 441.32001 -0.84492302 0.060320552 0.53147578 0
-13.9025 -7.09548 440.11499 -0.86624765 0.17791566 0.46686301 0
-13.902 -12.7191 441.465 -0.89296961 0.12910458 0.43120444 0
-13.8948 -18.6527 441.526 -0.99201465 -0.064257175 0.10852644 0
-13.8941 -2.6124201 437.83301 -0.99490875 0.054262172 -0.084924564 0
-13.8845 -13.6192 441.54901 -0.7229684 0.22938427 0.65168977 0
-13.8844 -14.8941 441.76801 -0.76786512 0.066823937 0.63711667 0
-13.878 -5.9703202 439.81601 -0.86584187 0.13311616 0.48228416 0
-13.8762 -1.91883 437.94501 -0.99894816 0.01457362 0.043476809 0
-13.8761 -8.3713903 440.561 -0.63158816 0.15389045 0.75987774 0
-13.8713 -2.50038 438.35699 -0.99143249 0.02981434 0.1271719 0
-13.8663 -4.0201998 439.06601 -0.97336644 0.1075523 0.20246057 0
-13.8579 -19.393299 441.53601 -0.9883135 -0.14717214 -0.039708681 0
-13.854 -3.5688 438.92001 -0.97416812 0.10250553 0.20121914 0
-13.851 -0.71872097 437.345 -0.99862963 0.026524931 -0.045114689 0
-13.8486 -4.6936102 439.37 -0.81130874 0.21425614 0.54394156 0
-13.8456 -1.43146 437.94501 -0.99822092 0.033214655 0.049515501 0
-13.8403 -18.062401 441.95599 -0.97293335 -0.027945437 0.22939001 0
-13.8372 -0.41898501 437.345 -0.99862963 0.026524931 -0.045114689 0
-13.8356 -5.2954798 439.66599 -0.71851432 0.29313022 0.6307233 0
-13.834 -16.0938 441.91599 -0.94428831 0.0043985904 0.32909003 0
-13.8328 -16.618601 441.92001 -0.94635016 0.007320758 0.32306001 0
-13.8322 -18.6623 441.88199 -0.97799146 -0.051835041 0.20210356 0
-13.8253 -2.2191899 438.46899 -0.98012447 0.075391784 0.18349949 0
-13.8253 -4.1688199 439.22 -0.94744498 0.11647277 0.29796323 0
-13.8253 -2.2191899 438.46899 -0.98012447 0.075391784 0.18349949 0
-13.8253 -4.1688199 439.22 -0.94744498 0.11647277 0.29796323 0
-13.8253 -2.2191899 438.46899 -0.98012447 0.075391784 0.18349949 0
-13.821 -19.0938 440.94501 -0.98350608 -0.065780133 -0.16848978 0
-13.816 -1.58187 438.24399 -0.98497719 0.074197233 0.15593165 0
-13.8152 -8.8193302 440.71799 -0.70801038 0.16868417 0.68576008 0
-13.8151 -2.5190799 438.61899 -0.9313522 -0.21875614 0.29108226 0
-13.8145 -1.01867 437.94501 -0.99245685 0.052398782 0.11083222 0
-13.8137 -0.269205 437.64401 -0.99076855 0.07187207 0.1149437 0
-13.8122 -15.5687 441.93201 -0.85772532 0.10125999 0.50403744 0
-13.8121 -13.9565 441.66901 -0.69306767 0.23314483 0.68212956 0
-13.811 -19.618099 441.84399 -0.9966355 -0.07640522 0.029663498 0
-13.8087 -16.993799 441.99301 -0.9550494 0.022160182 0.29561719 0
-13.8076 -20.124599 441.58301 -0.99215078 -0.071365476 0.10268298 0
-13.806 -12.4192 441.51401 -0.68305647 0.13705392 0.71739113 0
-13.8047 -11.1436 441.26199 -0.69415087 0.056963604 0.71757209 0
-13.8046 -7.6181502 440.38901 -0.79597461 -0.0054905368 0.60530514 0
-13.8024 -17.819 442.06699 -0.97434044 0.0084737176 0.22491989 0
-13.7986 -18.4184 442.06699 -0.97692811 -0.033610981 0.21090704 0
-13.7933 -0.419321 437.86801 -0.99095833 0.078462489 0.10883598 0
-13.7902 -20.349501 441.358 -0.9956423 -0.0071479362 -0.092980176 0
-13.7873 -19.6182 441.022 -0.97758853 -0.096706703 -0.18699864 0
-13.786 0.434324 437.345 -0.99646777 0.069442734 0.047219709 0
-13.7811 -3.4939401 439.069 -0.78401792 0.33915201 0.51989597 0
-13.779 -2.7730701 438.785 -0.77614123 0.26335099 0.57293195 0
-13.7732 -20.837099 441.57401 -0.9990142 -0.019797653 -0.039732296 0
-13.772 -12.7197 441.59 -0.7082997 0.24099404 0.66350091 0
-13.7711 -19.618299 442.06799 -0.98635572 -0.027296491 0.16234939 0
-13.7677 -1.61997 438.46701 -0.88253522 0.19622867 0.42734757 0
-13.7603 0.89311802 437.34399 -0.99881279 0.048612192 0.0031327156 0
-13.7578 -7.2452898 440.323 -0.7220602 0.38781142 0.57291484 0
-13.7574 -0.41853499 436.78299 -0.93704337 0.058482327 -0.34428123 0
-13.7561 0.48134401 436.70901 -0.98859113 -0.021684956 -0.14905488 0
-13.7556 -18.756201 442.146 -0.90543151 -0.084728725 0.41595045 0
-13.754 1.08145 436.76401 -0.99496782 0.056449022 -0.082780391 0
-13.7431 -21.268499 441.54501 -0.97392219 -0.17713636 -0.14176841 0
-13.7428 1.38144 436.78299 -0.9967885 0.0074409517 -0.079733051 0
-13.7351 -19.6173 440.87399 -0.97758853 -0.096706703 -0.18699864 0
-13.7253 -20.2188 442.146 -0.95565325 -0.065664917 0.28708002 0
-13.7142 -9.4198399 440.95999 -0.73811263 0.11710202 0.66443723 0
-13.7139 -21.2311 442.07001 -0.97427374 -0.04156848 0.22150119 0
-13.7124 -20.5186 442.14499 -0.96334064 -0.0064983028 0.26820257 0
-13.7094 0.18041 437.94299 -0.83889067 0.21153256 0.50151414 0
-13.7082 1.3814 437.345 -0.92207277 0.21878751 0.31923941 0
-13.7035 -21.7178 442.03101 -0.97851652 -0.068460234 0.19447023 0
-13.6711 -22.1686 441.54501 -0.98771912 -0.045409765 -0.14949539 0
-13.6696 2.1688199 436.146 -0.98522264 0.081399977 -0.15069969 0
-13.6672 2.3938799 436.745 -0.95602512 0.1618208 0.24460162 0
-13.6569 -22.4685 441.54599 -0.97566772 -0.14467704 -0.16474544 0
-13.6537 -20.2183 440.87201 -0.97125983 -0.11416317 -0.20885657 0
-13.6509 1.68172 436.07199 -0.9400546 -0.10896973 -0.32314545 0
-13.6396 2.7033701 436.18301 -0.99542338 0.065887026 -0.069218092 0
-13.6392 -22.805799 441.54599 -0.97566772 -0.14467704 -0.16474544 0
-13.6248 2.7307999 436.745 -0.95524579 0.046516899 0.29213291 0
-13.6235 -22.693399 442.14499 -0.99418068 -0.0063460115 0.10753815 0
-13.6211 1.00684 436.147 -0.94644302 -0.04311407 -0.31997934 0
-13.5991 -23.087099 442.14499 -0.99002773 -0.058964334 0.12793849 0
-13.5966 3.2933199 436.14499 -0.9952563 0.085689507 -0.046067502 0
-13.5617 -23.930901 442.14499 -0.99834508 0.01844673 0.054468673 0
-13.5488 -24.268299 442.18201 -0.99769431 -0.063547775 -0.023826919 0
-13.5307 2.8064699 435.54599 -0.94857192 -0.033513296 -0.31478274 0
-13.5209 -22.5436 442.668 -0.89530003 -0.097520016 0.43465811 0
-13.5197 -22.0187 442.66901 -0.81398374 0.010850214 0.58078629 0
-13.5187 3.48125 436.67001 -0.9245711 0.19355258 0.32818541 0
-13.5173 3.44333 435.547 -0.95057625 0.026804551 -0.30933207 0
-13.516 -23.818501 441.47 -0.96669185 0.033995662 -0.2536754 0
-13.4995 -24.906 442.14499 -0.99706435 -0.076431908 -0.0045638876 0
-13.4981 4.0817599 436.14499 -0.96282262 0.22675399 0.14681683 0
-13.4906 -23.3687 442.67001 -0.93978482 -0.059101384 0.33661774 0
-13.4644 -24.418501 442.66901 -0.95652002 -0.047137622 0.28783244 0
-13.4625 2.2049799 437.388 -0.81083953 0.15159714 0.56529427 0
-13.4589 -24.418301 441.47101 -0.96734035 -0.1381066 -0.21255413 0
-13.4581 4.1188102 435.54599 -0.98363459 0.090225115 -0.15595636 0
-13.4559 -21.4188 442.754 -0.87306577 0.076458842 0.48157051 0
-13.4517 4.3806 436.14499 -0.93061364 0.19069661 0.31239888 0
-13.4501 -23.518499 442.78101 -0.84723502 -0.27999073 0.45143995 0
-13.4476 -25.468599 442.03299 -0.99268758 -0.10462117 -0.060213972 0
-13.44 -20.443701 442.76001 -0.75355321 0.10569451 0.64883453 0
-13.4273 -25.0184 442.66901 -0.96270883 -0.056204647 0.26463696 0
-13.4087 -25.937 442.05701 -0.98408639 -0.17190011 -0.044992566 0
-13.4034 3.7614601 436.78101 -0.90817589 0.17867658 0.37853825 0
-13.403 4.79386 435.54501 -0.99088937 0.13438644 -0.0088652326 0
-13.3973 -25.0175 441.474 -0.9367125 -0.099690408 -0.3356061 0
-13.368 -25.674801 442.707 -0.98087883 -0.083095714 0.17598824 0
-13.3482 5.1325998 435.508 -0.98574579 0.16821373 0.0030539637 0
-13.3408 -25.9937 442.746 -0.94711787 -0.013660938 0.32059494 0
-13.3231 4.3020902 436.66299 -0.78641808 0.35291076 0.50695223 0
-13.3188 -25.6178 441.47299 -0.95085794 -0.12964243 -0.28117976 0
-13.3135 -26.9685 441.92001 -0.96050555 -0.066353448 -0.27023384 0
-13.3095 4.9802699 436.18201 -0.97048151 0.21672791 0.10580451 0
-13.2996 4.82658 436.36401 -0.78715765 0.3448275 0.51134801 0
-13.2952 -26.8745 442.763 -0.92925149 -0.097809345 0.35626543 0
-13.2944 5.43152 435.58301 -0.97299486 0.15520461 0.17085835 0
-13.2922 -27.418699 442.14499 -0.99172395 -0.10802937 -0.069377586 0
-13.285 5.0562401 434.94601 -0.97076565 0.071499355 -0.22913285 0
-13.2631 -27.2689 442.746 -0.98693317 -0.092263021 0.13210014 0
-13.2483 -27.8312 442.14499 -0.97795802 -0.15820381 -0.13627058 0
-13.2433 5.4318099 435.95801 -0.97421825 0.1781926 0.13836969 0
-13.2388 -26.218 441.47299 -0.94857317 -0.10568332 -0.2983956 0
-13.2326 -25.5061 443.11899 -0.89882642 -0.053425573 0.43503657 0
-13.2323 -24.868299 443.14499 -0.87119186 -0.014433334 0.49073052 0
-13.2303 -26.218399 443.11899 -0.93826449 0.0025269852 0.34590939 0
-13.2216 -26.518299 443.11801 -0.95114088 -0.043455288 0.30568397 0
-13.2206 6.1810999 434.94501 -0.99878234 0.034507498 -0.035257995 0
-13.2175 -23.368401 443.138 -0.76821822 0.20358896 0.60695326 0
-13.2155 -23.668501 443.14001 -0.71389306 -0.078188047 0.69587594 0
-13.2152 -28.243 442.29501 -0.99439001 -0.10500087 0.012778483 0
-13.2084 -24.568199 443.168 -0.75967705 0.24674289 0.60167164 0
-13.2081 -28.0931 442.707 -0.98747259 -0.062235612 0.14499874 0
-13.2046 6.2186098 435.245 -0.99440467 0.10156321 0.0290554 0
-13.1995 6.0306201 435.582 -0.9106155 0.31050181 0.2727049 0
-13.1955 4.53053 436.70801 -0.76869923 0.2934821 0.5683043 0
-13.1847 -27.418301 441.621 -0.96528959 -0.1252685 -0.22918084 0
-13.1824 -28.496099 442.539 -0.99439001 -0.10500087 0.012778483 0
-13.1799 -28.4867 442.17401 -0.99439001 -0.10500087 0.012778483 0
-13.1753 6.4809599 434.72101 -0.99343503 0.067144006 -0.092620149 0
-13.1714 5.5810099 436.07001 -0.89583027 0.31077811 0.31765562 0
-13.1474 -27.7187 441.62 -0.96744031 -0.11094105 -0.22748922 0
-13.1419 -26.293501 443.30701 -0.67973948 0.35286179 0.64299518 0
-13.1347 -26.443501 443.31 -0.69501597 0.075501837 0.71501911 0
-13.1344 6.93084 434.98199 -0.98102194 0.1883693 0.045966603 0
-13.1252 -27.4179 441.47299 -0.96528959 -0.1252685 -0.22918084 0
-13.1111 -27.4935 443.267 -0.84586573 0.071450233 0.52858865 0
-13.0914 -28.018 441.586 -0.95953041 -0.13726014 -0.24588823 0
-13.0828 -29.2838 442.72601 -0.98952848 -0.082821377 0.11821177 0
-13.0523 -25.271799 443.358 -0.65011638 -0.04199931 0.75867301 0
-13.0485 7.6814098 434.26999 -0.99357855 0.070096947 -0.088814817 0
-13.0434 -29.7152 442.689 -0.98142457 -0.15601763 0.1116436 0
-13.0403 -28.056 443.345 -0.87337679 -0.049355451 0.48453799 0
-13.0279 7.9814701 434.383 -0.98876935 0.14751433 0.023972144 0
-13.0153 -28.9184 443.194 -0.89111215 -0.046962976 0.45134649 0
-13.0055 7.75563 434.944 -0.94087404 0.11142404 0.31990731 0
-13.0047 -28.6371 443.30701 -0.90337956 -0.15575986 0.39955503 0
-12.9718 7.0398898 435.539 -0.84686923 0.23324452 0.47792205 0
-12.9712 -30.568501 442.633 -0.99546432 -0.04708223 0.082668617 0
-12.9684 8.43046 434.38199 -0.97007865 0.24086948 0.03048381 0
-12.9382 -30.943399 442.72601 -0.9904983 -0.12448612 0.058449574 0
-12.9245 -30.8682 442.146 -0.99391997 -0.098361462 -0.049478125 0
-12.9109 8.2796698 434.86801 -0.94542879 0.23158501 0.22920026 0
-12.9004 -29.6681 443.38 -0.91327548 0.0034150297 0.40732819 0
-12.8907 -31.449499 442.51099 -0.98901218 -0.13815208 0.052620869 0
-12.8811 -30.118401 443.34399 -0.91327548 0.0034150297 0.40732819 0
-12.8743 6.1056299 436.172 -0.7156741 0.41493058 0.56182128 0
-12.8651 9.1812601 433.745 -0.98021632 0.17846495 -0.085593238 0
-12.8324 -31.0182 443.26901 -0.97100097 -0.060963862 0.23117195 0
-12.8268 8.5786304 434.866 -0.94865042 0.18284884 0.25812536 0
-12.8208 9.3301096 434.26901 -0.96303928 0.21878317 0.15712816 0
-12.7958 -32.3685 442.67001 -0.99567109 -0.080431111 0.046582788 0
-12.7709 -31.8619 443.15701 -0.97180128 -0.10875908 0.20922166 0
-12.7683 -32.780899 442.689 -0.98492044 -0.1723416 0.015167408 0
-12.7513 -31.6187 443.345 -0.95458901 -0.08504834 0.28552857 0
-12.7479 9.0321503 434.72101 -0.8317287 0.33729491 0.44097564 0
-12.7448 -29.5366 443.65201 -0.79745251 -0.046348587 0.60159898 0
-12.7277 8.43258 435.09799 -0.68359548 0.31189564 0.6598624 0
-12.725 10.1184 433.689 -0.99452949 0.10315878 0.016413316 0
-12.7216 -31.0184 443.56799 -0.79276884 -0.0063926126 0.60948884 0
-12.713 -30.061899 443.65399 -0.71933901 -0.082085155 0.68979234 0
-12.6941 9.8530903 434.26599 -0.92918587 0.27020338 0.25219783 0
-12.6819 -31.6182 443.56799 -0.8415634 -0.14141464 0.5213185 0
-12.6754 10.6052 433.146 -0.99831623 0.024401257 -0.052623916 0
-12.6732 9.7008696 434.41199 -0.7292006 0.3208794 0.60440296 0
-12.6693 -33.117599 443.11801 -0.97303289 -0.10671425 0.20449699 0
-12.6614 -33.568501 442.745 -0.98745829 -0.15203039 0.042578548 0
-12.6577 -31.918301 443.56799 -0.84229982 -0.15229763 0.51704586 0
-12.6565 10.4939 433.745 -0.97789013 0.1864215 0.094751976 0
-12.6562 -32.818401 443.26901 -0.97543383 -0.07182388 0.20825504 0
-12.6552 10.2293 434.04199 -0.94052011 0.23218213 0.24801885 0
-12.6238 -32.518799 443.45801 -0.78634447 -0.20488989 0.58282292 0
-12.6083 -33.868698 442.745 -0.9711417 -0.2337283 0.047486171 0
-12.6011 10.8299 433.66901 -0.92327905 0.29265103 0.24881962 0
-12.5988 11.0001 432.883 -0.97990263 0.047797628 -0.19366525 0
-12.5941 10.6809 432.698 -0.97604567 0.007930303 -0.21742113 0
-12.5662 -34.168301 442.70801 -0.99183345 -0.12196652 0.037290446 0
-12.5632 -33.249401 443.39899 -0.88696647 -0.2305942 0.40014598 0
-12.5544 10.0028 434.38699 -0.69143701 0.42314023 0.58554864 0
-12.5234 11.1279 433.66599 -0.77576292 0.30176756 0.55419153 0
-12.5148 11.2813 432.47101 -0.95423704 0.020971525 -0.29831508 0
-12.5048 -34.768299 442.633 -0.98627859 -0.1650866 0.0010040272 0
-12.5035 11.5808 432.54599 -0.98369956 0.14433219 -0.10725386 0
-12.5034 -34.056198 443.19501 -0.97378063 -0.13233963 0.18503372 0
-12.4626 -35.1059 442.745 -0.98395318 -0.17828886 0.0070177633 0
-12.4617 -29.8186 443.92599 -0.68143094 -0.067946412 0.72872162 0
-12.4482 -34.244099 443.34601 -0.94376278 -0.019186975 0.3300662 0
-12.417 11.8806 433.18201 -0.93666559 0.23464978 0.25999442 0
-12.396 12.3316 432.564 -0.98742443 0.14901108 0.052808043 0
-12.357 12.556 431.965 -0.98535138 0.057792518 -0.1604453 0
-12.3542 -35.1618 443.38101 -0.92847544 -0.019121131 0.3709012 0
-12.3499 -35.967899 442.745 -0.99703544 -0.073530853 0.022660857 0
-12.3493 12.1803 433.14401 -0.86856496 0.35828161 0.34238744 0
-12.3266 12.8175 432.54401 -0.96326923 0.25056711 0.096584216 0
-12.3129 -35.519199 443.34601 -0.95094407 -0.12443735 0.28323263 0
-12.3105 12.9308 431.94601 -0.98535138 0.057792518 -0.1604453 0
-12.3062 -30.568399 443.98401 -0.64150214 -0.030065613 0.76653183 0
-12.3018 -36.305199 442.745 -0.99364257 -0.11076117 0.020159015 0
-12.291 10.9228 434.108 -0.7659995 0.30530104 0.56571728 0
-12.2763 11.6541 433.70801 -0.77726507 0.38227934 0.49972141 0
-12.2536 13.3063 431.94501 -0.97769445 0.21003142 -0.00058266171 0
-12.2279 -36.062302 443.38199 -0.94390988 -0.18977204 0.27022335 0
-12.2152 -32.518101 443.97699 -0.7329827 -0.090616032 0.67418474 0
-12.2111 10.2394 434.54099 -0.64876294 0.35564503 0.67277282 0
-12.177 -37.0187 442.745 -0.98526168 -0.15148461 0.079447366 0
-12.1584 -34.318401 443.961 -0.85266805 -0.093022883 0.51410496 0
-12.1516 13.5308 432.582 -0.89349908 0.37817073 0.24216992 0
-12.1218 13.0776 433.065 -0.83669829 0.32052705 0.44407019 0
-12.1052 -36.1175 443.65601 -0.83064836 -0.11880882 0.54397404 0
-12.0895 -37.716202 442.586 -0.99095321 -0.13057604 -0.031010075 0
-12.0821 13.3814 432.92099 -0.6989001 0.44079942 0.56323576 0
-12.0787 14.1311 431.30801 -0.97371924 0.13693845 -0.18198545 0
-12.0687 -36.7178 443.56799 -0.83590645 -0.14547198 0.52924311 0
-12.0648 -37.318901 443.19501 -0.97669601 -0.11984337 0.17805181 0
-12.0606 -37.0746 443.38199 -0.92659622 -0.14567132 0.34669778 0
-12.0546 13.8318 432.58301 -0.71446472 0.38008273 0.58743274 0
-12.0474 -37.767799 442.147 -0.98623163 -0.1240802 -0.10932179 0
-12.0422 14.3179 431.94501 -0.98730469 0.11137933 0.11324351 0
-12.0341 -37.918098 442.96899 -0.98066556 -0.11109777 0.16109717 0
-12.031 -38.180901 442.72699 -0.99096161 -0.13099016 -0.028925594 0
-12.0219 14.581 431.64499 -0.98737073 0.14615449 0.061138019 0
-12.0205 14.6556 431.345 -0.98774874 0.14574586 -0.055772904 0
-12.0199 -35.8923 443.86401 -0.84984511 -0.11738022 0.51379484 0
-11.9963 -37.543999 443.34601 -0.903476 -0.14789647 0.40231541 0
-11.9933 -38.293598 442.33301 -0.98616093 -0.15010725 -0.07038781 0
-11.987 -38.143501 442.14499 -0.98623163 -0.1240802 -0.10932179 0
-11.9842 14.88 431.30801 -0.98857301 0.14350399 -0.046152312 0
-11.978 14.1317 430.819 -0.98179537 0.019744802 -0.18891278 0
-11.9749 -38.5182 442.78299 -0.98210901 -0.15646 0.10479564 0
-11.9433 14.8059 430.74701 -0.99062771 0.032144405 -0.13275366 0
-11.9415 14.7309 431.96399 -0.96369106 0.21982339 0.15158232 0
-11.9271 -38.1432 443.34399 -0.97571325 -0.12673254 0.17866857 0
-11.9238 14.2786 432.46701 -0.77623206 0.42461827 0.46600759 0
-11.9155 15.2181 431.345 -0.96290714 0.25080073 0.099543132 0
-11.9109 15.1812 430.746 -0.98794276 0.14457159 -0.055391308 0
-11.8927 -38.405399 443.34299 -0.92429787 -0.2545712 0.28437117 0
-11.862 -38.9118 442.15601 -0.97827649 -0.18524654 -0.093053102 0
-11.8198 -39.381001 442.745 -0.98485726 -0.17317979 0.0080551514 0
-11.7715 -39.268299 443.17599 -0.93837094 -0.14271171 0.31479087 0
-11.7596 16.081499 430.51999 -0.98155808 0.19055408 0.015258829 0
-11.7409 -39.877499 442.651 -0.97450441 -0.20647004 0.08781413 0
-11.7253 15.8925 431.36301 -0.91784143 0.29331213 0.26746038 0
-11.7093 16.2302 430.073 -0.95278871 0.19879639 -0.22950755 0
-11.697 -37.093102 443.98401 -0.77691692 -0.12013775 0.61803478 0
-11.695 15.5494 431.862 -0.8863259 0.20691758 0.41426018 0
-11.6601 -37.617699 443.95901 -0.79776943 -0.080202378 0.59760487 0
-11.6487 -40.468399 442.44501 -0.98456806 -0.1726093 -0.028840765 0
-11.6404 16.5305 430.745 -0.95996362 0.20616831 0.18964307 0
-11.6277 -39.9058 443.34399 -0.95687735 -0.13698272 0.25616685 0
-11.562 17.0931 430.14499 -0.99601406 0.088704325 -0.0093536489 0
-11.556 -40.318699 443.345 -0.83502603 -0.1769996 0.52096319 0
-11.5273 16.380301 431.41901 -0.7716319 0.35093465 0.53049892 0
-11.5253 -38.0686 443.992 -0.68867558 -0.15169585 0.70902348 0
-11.5087 16.605101 431.26901 -0.89157355 0.32967433 0.31050196 0
-11.5012 -41.255699 442.77301 -0.98902977 -0.10595183 0.10292868 0
-11.5005 -38.743 443.92801 -0.68689924 -0.066324987 0.72371984 0
-11.4986 17.130199 430.74399 -0.93364269 0.25610697 0.25044072 0
-11.4944 -40.3176 443.56799 -0.83502603 -0.1769996 0.52096319 0
-11.4644 16.9002 431.11301 -0.89157355 0.32967433 0.31050196 0
-11.4558 17.580099 430.14499 -0.95406389 0.27277276 0.12392385 0
-11.4378 -40.918701 443.345 -0.96310937 -0.17202042 0.2069523 0
-11.4323 -39.7174 443.866 -0.86632162 -0.11599166 0.48583204 0
-11.4322 -41.6861 442.79999 -0.98573858 -0.14527349 0.084941782 0
-11.4074 17.9186 429.54501 -0.98830253 0.15247308 0.0031786172 0
-11.4069 17.502899 430.66699 -0.95223814 0.27128261 0.14017242 0
-11.3913 -41.255402 443.306 -0.88228494 -0.24401571 0.40252897 0
-11.3834 17.9557 429.32101 -0.97241187 0.088738985 -0.21573266 0
-11.3667 17.919201 430.14499 -0.95685196 0.26161149 0.12646624 0
-11.3362 -41.518299 443.34399 -0.88228494 -0.24401571 0.40252897 0
-11.3179 -42.5676 442.67001 -0.98830932 -0.11432283 0.10087107 0
-11.302 18.443001 429.54501 -0.97944409 0.20035918 0.023356209 0
-11.2879 -42.717999 442.78201 -0.97962087 -0.15460917 0.12821424 0
-11.2635 18.331499 430.14499 -0.81895423 0.48748061 0.30278143 0
-11.2546 18.5187 428.94601 -0.97043371 0.1644599 -0.17666745 0
-11.2368 17.952299 430.66599 -0.78853905 0.44899717 0.42024726 0
-11.1901 19.0809 428.94501 -0.98337215 0.086437471 -0.15971164 0
-11.172 -42.494598 443.31 -0.90949529 -0.059615374 0.41141745 0
-11.1631 19.0825 429.54501 -0.94609433 0.25017238 0.20571665 0
-11.1401 -43.431999 442.72699 -0.94450659 -0.29519507 0.14410837 0
-11.1289 19.4186 428.94501 -0.95929015 0.28143704 0.023570195 0
-11.1018 -43.092999 443.194 -0.93490303 -0.2109604 0.28539807 0
-11.0184 19.6035 429.543 -0.94711286 0.24743885 0.20433114 0
-10.9688 20.130699 428.34601 -0.97395498 0.16905169 -0.15110664 0
-10.96 19.8319 429.47101 -0.95706654 0.24961653 0.14736083 0
-10.9582 -44.2187 442.745 -0.96933568 -0.1363316 0.20445544 0
-10.952 18.2493 430.77301 -0.68271172 0.54611856 0.48544747 0
-10.9489 20.202999 428.944 -0.96894979 0.23677984 0.071215019 0
-10.9466 -43.618099 443.26901 -0.93284732 -0.21348073 0.2902101 0
-10.9351 19.149401 430.155 -0.81244057 0.34867048 0.46729994 0
-10.9183 19.298599 430.061 -0.81690943 0.32854196 0.47404554 0
-10.8777 -43.6189 443.42099 -0.93284732 -0.21348073 0.2902101 0
-10.8753 20.4279 428.98099 -0.96672231 0.24793495 0.063057773 0
-10.8661 -45.005699 442.276 -0.97632045 -0.21539475 0.02008632 0
-10.8595 -44.819199 442.67099 -0.97759199 -0.15441209 0.14307614 0
-10.8441 -44.217701 443.19299 -0.94375163 -0.1840467 0.27469924 0
-10.8355 20.424299 429.164 -0.74523604 0.47023201 0.47276324 0
-10.8212 -42.868 443.75201 -0.69701248 -0.17026059 0.69655216 0
-10.8198 20.8071 428.345 -0.98880929 0.14844824 -0.014809481 0
-10.8165 -43.917702 443.418 -0.6920765 -0.21361031 0.68949312 0
-10.7901 20.7318 428.814 -0.89346194 0.40859446 0.18648414 0
-10.7856 20.5438 427.70901 -0.97355926 0.056273799 -0.22139472 0
-10.7846 -45.2677 442.62299 -0.97088432 -0.19807677 0.13471903 0
-10.7758 20.9932 428.10101 -0.98653644 0.15857513 -0.039996915 0
-10.7728 -44.5 443.233 -0.83279949 -0.33733505 0.43891922 0
-10.7412 21.1066 427.745 -0.98653644 0.15857513 -0.039996915 0
-10.6769 -46.018398 441.84601 -0.98138195 -0.17321078 -0.082990557 0
-10.6757 21.3311 428.345 -0.96610105 0.25330812 0.049837109 0
-10.6488 21.6115 427.77301 -0.96171373 0.2734198 -0.018662734 0
-10.6064 -46.018101 442.745 -0.94851404 -0.21781698 0.22994962 0
-10.5778 21.6308 428.38199 -0.91338074 0.32262862 0.24828692 0
-10.5742 -45.568901 443.19601 -0.90384853 -0.17132683 0.3920522 0
-10.5644 -46.6175 442.18301 -0.97374612 -0.22133686 0.053183239 0
-10.4965 22.194401 427.14499 -0.98346746 0.12686749 -0.12921454 0
-10.4593 -46.657299 442.70901 -0.93464059 -0.23914436 0.26316717 0
-10.4456 -47.1432 441.995 -0.97819757 -0.20682333 0.01880569 0
-10.4421 -46.0172 443.267 -0.8826322 -0.20178732 0.42454955 0
-10.4037 22.5303 427.78201 -0.95073617 0.28916237 0.11174026 0
-10.4014 22.661301 427.08899 -0.97447431 0.22157395 -0.036122654 0
-10.3725 -46.9174 442.78101 -0.90661883 -0.22674328 0.35585076 0
-10.3627 22.2292 428.26801 -0.74337983 0.46396473 0.48179162 0
-10.3425 21.8519 428.64001 -0.80479807 0.39491686 0.44310349 0
-10.3152 23.000401 426.87299 -0.97306412 0.20719524 -0.10107566 0
-10.3118 22.681 426.47198 -0.97526157 0.063691162 -0.21167986 0
-10.2506 -46.580101 443.32901 -0.81790572 -0.22794124 0.52827364 0
-10.2492 -46.918301 443.15701 -0.90765101 -0.22368851 0.35515216 0
-10.2479 -47.818001 442.14499 -0.96444851 -0.2578873 0.057733983 0
-10.2433 -46.317501 443.42099 -0.79051626 -0.21489803 0.57350057 0
-10.2371 23.281 426.58301 -0.97585702 0.19821206 -0.091733471 0
-10.2347 -47.5005 442.746 -0.87899333 -0.34525409 0.32889259 0
-10.2108 22.9786 427.78 -0.75316471 0.39268598 0.52776951 0
-10.1951 23.3932 426.901 -0.95640248 0.29146224 -0.018549331 0
-10.1929 23.2059 426.246 -0.94071281 0.13399401 -0.31161669 0
-10.1648 -46.766998 443.36899 -0.90615398 -0.20230319 0.37142748 0
-10.1617 -48.118599 441.58301 -0.97968513 -0.19302417 -0.054394547 0
-10.1262 23.693399 426.54501 -0.97163939 0.23591927 0.01609413 0
-10.1245 23.203199 427.74301 -0.75316471 0.39268598 0.52776951 0
-10.1229 -47.0672 443.30801 -0.68364435 -0.49027684 0.54060984 0
-10.1129 21.8549 428.86499 -0.5855124 0.55754375 0.58848977 0
-10.1013 -48.380402 442.14499 -0.95696187 -0.27112406 0.10351655 0
-10.0392 23.803801 427.14401 -0.88806337 0.39324492 0.23812157 0
-10.0349 23.9561 425.96399 -0.98689955 0.12093971 -0.10678428 0
-10.012 -48.8493 441.57401 -0.96423525 -0.2030161 -0.1703961 0
-9.9872398 24.219 426.54501 -0.96621323 0.25218782 0.053228211 0
-9.98032 -48.418301 442.745 -0.91805536 -0.10211375 0.38307595 0
-9.9647303 24.3302 425.90799 -0.96040297 0.27028924 -0.067600347 0
-9.94839 24.0284 427.181 -0.7198121 0.57280618 0.39212707 0
-9.9211502 -49.168098 442.14499 -0.96747959 -0.20610119 0.14664757 0
-9.9108496 22.757099 428.35901 -0.59932214 0.48326686 0.63817406 0
-9.8971701 24.6308 425.94501 -0.96040297 0.27028924 -0.067600347 0
-9.8882904 23.582001 427.75601 -0.71899688 0.53077698 0.44868615 0
-9.87889 -48.783798 442.72601 -0.92074555 -0.27013668 0.28152061 0
-9.8614502 24.629299 426.54401 -0.94074017 0.32063976 0.11044501 0
-9.8590403 -49.617199 441.54599 -0.969432 -0.21063279 -0.12583898 0
-9.8464499 -49.468102 442.14499 -0.94234282 -0.28387755 0.17721036 0
-9.82265 23.427099 427.94901 -0.6194731 0.46196744 0.63469613 0
-9.7837696 -49.917702 441.58301 -0.95977312 -0.27896821 0.031816315 0
-9.7663698 -48.7178 443.04401 -0.84662879 -0.21100752 0.48856476 0
-9.7497501 25.080299 425.34698 -0.96179825 0.21837011 -0.16510183 0
-9.7160597 -49.317902 442.74399 -0.92374814 -0.26295269 0.27846956 0
-9.6923904 25.3815 425.383 -0.9874841 0.14122877 -0.070211358 0
-9.6795597 24.7815 426.92001 -0.73691368 0.33433977 0.58751607 0
-9.6407003 25.2314 426.47 -0.7108804 0.5032056 0.49135852 0
-9.6401701 -50.217201 442.14401 -0.95446068 -0.24359068 0.17224517 0
-9.6206398 -49.917999 442.51901 -0.92679983 -0.25428456 0.2763719 0
-9.6174898 -49.393002 442.96899 -0.90672511 -0.25837341 0.33330575 0
-9.6009398 -50.555901 441.54501 -0.95715851 -0.28948319 -0.0068621566 0
-9.60075 25.603901 425.944 -0.9218995 0.33081242 0.20165434 0
-9.5725403 25.7554 425.79501 -0.90665722 0.29916391 0.29744515 0
-9.5545702 -49.881199 442.745 -0.71331674 -0.44198701 0.5438996 0
-9.5434599 26.0177 425.289 -0.97491515 0.22181229 0.018432004 0
-9.5183601 -50.817299 441.246 -0.9638133 -0.24197114 -0.11186562 0
-9.4392996 -50.892799 442.12601 -0.93172926 -0.28450316 0.22569562 0
-9.3934898 26.581699 424.745 -0.97035009 0.20983285 -0.11996184 0
-9.38762 26.2068 425.871 -0.87469351 0.40418401 0.26748183 0
-9.3824501 26.579599 425.34399 -0.89359432 0.4027352 0.19822599 0
-9.33566 -51.568298 441.54501 -0.96442384 -0.26435816 -0.0011806198 0
-9.32061 -51.408501 441.995 -0.92099392 -0.32219273 0.21900231 0
-9.3008404 25.678801 426.52899 -0.63539028 0.55207372 0.53990161 0
-9.2875204 -50.8162 442.66699 -0.8691538 -0.19100514 0.45616737 0
-9.2669802 -51.8116 441.405 -0.97186542 -0.23498867 -0.016062045 0
-9.1767998 27.3316 424.108 -0.98083723 0.16207939 -0.10811406 0
-9.15763 27.405399 424.745 -0.98126906 0.10930335 0.15863097 0
-9.1463404 25.9361 426.41101 -0.69484812 0.49478158 0.52189773 0
-9.0867996 -51.417301 442.668 -0.89111888 -0.28713292 0.35137129 0
-9.0791998 26.6133 425.922 -0.71243078 0.47170421 0.51955515 0
-9.07096 27.6313 424.745 -0.87110066 0.40643272 0.27567384 0
-9.0680103 -52.167801 442.14401 -0.89662927 -0.27089825 0.35024282 0
-9.0485401 -52.618198 441.44199 -0.96765757 -0.24228384 0.070266128 0
-9.0347004 27.1014 425.565 -0.54976642 0.55763584 0.62193185 0
-9.0324097 27.3976 425.263 -0.72963911 0.57060504 0.37687755 0
-9.0290804 27.631001 424.97 -0.70122337 0.61673713 0.35766065 0
-9.0262699 -51.868 442.51901 -0.90064967 -0.24529794 0.35869083 0
-9.0236797 27.930099 423.845 -0.95320386 0.30193153 0.015484926 0
-9.01443 -52.692799 440.94601 -0.97009271 -0.23673223 -0.053646557 0
-9.0136003 -52.486801 441.92899 -0.94348335 -0.28663909 0.1663647 0
-8.9525404 27.406099 425.36401 -0.54661798 0.63130033 0.55015332 0
-8.9482002 -52.992199 440.94601 -0.9244945 -0.34722954 -0.15729459 0
-8.9283104 -53.068001 441.414 -0.96911502 -0.23661517 0.069493733 0
-8.9087601 -52.787701 441.995 -0.94348335 -0.28663909 0.1663647 0
-8.8189697 28.151501 424.741 -0.70002127 0.51898211 0.49053827 0
-8.7988396 -53.4809 441.54501 -0.94449419 -0.30855668 0.11279865 0
-8.7775898 -53.109001 442.147 -0.89826584 -0.29572231 0.32506439 0
-8.7446003 28.8318 423.54501 -0.92840415 0.36654264 0.060928572 0
-8.71033 28.753401 424.14301 -0.86464059 0.36462814 0.34560525 0
-8.6722097 27.6089 425.39801 -0.46003243 0.69657797 0.55058998 0
-8.62537 -54.174198 440.927 -0.93822873 -0.3289167 -0.10742752 0
-8.5544004 28.437799 424.78799 -0.67265952 0.5422262 0.50350761 0
-8.5521803 29.507099 422.94501 -0.93888348 0.34420359 -0.0046588508 0
-8.5485601 -53.8204 442.147 -0.91689718 -0.21631858 0.33541891 0
-8.5189104 29.126301 424.104 -0.70365614 0.52578896 0.47792682 0
-8.5072498 -54.418301 441.582 -0.92807949 -0.30418116 0.2148077 0
-8.4939003 -54.604 440.927 -0.94953912 -0.30715966 0.063469931 0
-8.4754696 -54.194199 441.996 -0.92077953 -0.29391757 0.25647128 0
-8.4517698 -54.643101 441.39499 -0.94303775 -0.32322535 0.078772783 0
-8.4475203 -54.0443 442.22101 -0.62471461 -0.40910468 0.66510528 0
-8.43431 29.505199 423.76901 -0.66666704 0.56504911 0.48608086 0
-8.4291601 29.652901 423.543 -0.91344965 0.30810618 0.26585776 0
-8.4043999 28.974501 424.42599 -0.68441135 0.51097816 0.52007926 0
-8.4009705 -54.679798 441.694 -0.92807949 -0.30418116 0.2148077 0
-8.3823099 -54.793499 441.54501 -0.91923606 -0.32593024 0.22084962 0
-8.3783598 29.35 424.069 -0.64468586 0.59521937 0.47968116 0
-8.3750296 -54.418201 442.07001 -0.92077953 -0.29391757 0.25647128 0
-8.3413601 -55.0555 440.94501 -0.92611653 -0.37662429 -0.021502865 0
-8.3344498 28.7495 424.67099 -0.4876132 0.64272642 0.59087741 0
-8.309 29.952299 423.46701 -0.78669924 0.57823902 0.21620348 0
-8.2617702 30.406 422.20499 -0.95714456 0.28441373 -0.054618288 0
-8.2286901 30.480101 422.90701 -0.89929485 0.30036396 0.31788415 0
-8.1750603 -55.356998 441.54501 -0.88926357 -0.40356573 0.21527892 0
-8.1633501 29.4575 424.16 -0.52706778 0.63997972 0.55912918 0
-8.1330299 30.893499 422.345 -0.9233014 0.38391632 0.011082868 0
-8.1151505 -55.767502 440.94501 -0.95815283 -0.28551856 0.020549234 0
-8.0985003 30.703501 422.944 -0.58921683 0.68671048 0.42573738 0
-8.0143299 -55.1255 442.17599 -0.86292678 -0.20897777 0.46009305 0
-8.0134697 -56.067799 440.34601 -0.95339358 -0.26429805 -0.14555839 0
-7.9396501 -56.366402 440.944 -0.9576847 -0.27764791 0.075839981 0
-7.9173899 -56.499298 440.37399 -0.96855247 -0.24872643 -0.006427296 0
-7.88378 -55.544899 442.11899 -0.70288557 -0.33166516 0.62924564 0
-7.8828301 30.028799 423.86099 -0.54644841 0.53739238 0.64234221 0
-7.84658 31.681601 421.745 -0.96139604 0.27507123 -0.0073129204 0
-7.8432202 31.606199 421.14499 -0.97800702 0.16900465 -0.12222792 0
-7.8422298 31.599199 422.267 -0.59788299 0.70862371 0.37468436 0
-7.8358598 -56.367802 441.54401 -0.8216297 -0.3845216 0.42079422 0
-7.8287501 -56.790699 440.69199 -0.95759809 -0.28724831 0.0222334 0
-7.8133001 30.671301 423.32599 -0.61867577 0.54638058 0.56454283 0
-7.8084998 30.459801 423.526 -0.52099609 0.61663997 0.59018493 0
-7.8077898 31.4478 422.56299 -0.63919395 0.38048428 0.66832834 0
-7.7895899 -56.892899 440.121 -0.95164502 -0.21317804 -0.22119419 0
-7.7876601 31.8314 421.18301 -0.91529185 0.39627156 -0.072178379 0
-7.78408 -57.0061 440.34601 -0.91601408 -0.36023304 -0.17649464 0
-7.7565799 31.909901 421.746 -0.96139604 0.27507123 -0.0073129204 0
-7.6682401 -57.2686 440.80399 -0.95715892 -0.25237596 0.14196199 0
-7.6651201 -56.820499 441.547 -0.84295744 -0.23126654 0.48573509 0
-7.5243001 -57.680199 440.94501 -0.92549342 -0.31045935 0.21697208 0
-7.5159101 -57.905201 440.345 -0.96459603 -0.26201946 -0.030004343 0
-7.4921799 -57.2682 441.55099 -0.87476414 -0.34247887 0.34277672 0
-7.48598 32.7701 420.43201 -0.98087931 0.13993208 -0.13525808 0
-7.47647 32.879902 421.14401 -0.77336335 0.49361625 0.39780918 0
-7.4281802 32.651501 421.66599 -0.67379898 0.57092202 0.46908733 0
-7.38763 -58.316799 440.30701 -0.93923855 -0.33396289 0.079371139 0
-7.35144 -58.2061 440.88901 -0.93663532 -0.32375151 0.13378818 0
-7.3398399 33.1129 421.224 -0.72229218 0.48609522 0.49194053 0
-7.2807498 33.2556 421.14499 -0.73210168 0.55647206 0.39289436 0
-7.2795601 33.479 420.54501 -0.9636786 0.26088104 0.057136606 0
-7.2727599 -58.242199 441.16901 -0.82460028 -0.39273143 0.40718099 0
-7.2658701 -58.6562 439.746 -0.96679407 -0.14535545 -0.21019267 0
-7.2584901 33.479 419.98401 -0.97854131 0.17431347 -0.10987139 0
-7.2202802 33.629902 420.245 -0.94196522 0.33438656 -0.029784838 0
-7.2010102 -58.917999 440.04501 -0.95058596 -0.31012592 -0.014431672 0
-7.1984501 33.700298 420.54401 -0.94416529 0.32521018 0.052822672 0
-7.1979799 -58.619099 440.94501 -0.92796212 -0.29516661 0.22751485 0
-7.1911802 32.8773 421.70001 -0.67379898 0.57092202 0.46908733 0
-7.1844902 33.462399 421.06699 -0.61561745 0.6890263 0.38243675 0
-7.1381502 -59.029598 439.65302 -0.88121861 -0.43636462 -0.18176812 0
-7.1343999 33.837502 419.936 -0.94817257 0.29833359 -0.10938874 0
-7.11023 33.555801 419.34601 -0.94276369 0.20123312 -0.26589832 0
-7.0926299 -59.180801 440.36401 -0.94247264 -0.3184787 0.10157094 0
-6.9939699 -59.5373 440.19501 -0.94615918 -0.30618253 0.10504784 0
-6.99193 34.232101 419.94501 -0.90465331 0.415898 0.092904352 0
-6.9816999 33.1017 421.63901 -0.57581389 0.62537569 0.52663428 0
-6.9735899 -59.219398 440.94601 -0.8514666 -0.32456726 0.411899 0
-6.9457102 34.306301 419.345 -0.96871954 0.21473798 -0.12437886 0
-6.9193001 -59.855499 439.745 -0.95471036 -0.25878796 -0.14682291 0
-6.8372002 34.251099 420.54401 -0.73627454 0.56246042 0.37621546 0
-6.8186302 -59.631302 440.90799 -0.9033277 -0.3215394 0.2839216 0
-6.7574501 34.793598 418.78299 -0.94384491 0.25452316 -0.21065319 0
-6.7065701 34.8255 419.979 -0.73891801 0.50498748 0.44608057 0
-6.6862202 -60.567299 439.745 -0.97771323 -0.2099051 -0.0040857689 0
-6.6809201 -60.144402 440.70001 -0.76777905 -0.37126449 0.52218586 0
-6.6704402 -60.605701 439.44601 -0.9531163 -0.28506398 -0.10152734 0
-6.6472001 35.2057 419.345 -0.92576426 0.35579705 0.12794125 0
-6.6287098 -60.417 439.073 -0.93931228 -0.21134451 -0.27023309 0
-6.6137099 35.280701 418.745 -0.94393855 0.31781623 -0.089291081 0
-6.6058302 -60.569 440.345 -0.90414989 -0.35848963 0.23237513 0
-6.6040401 -60.642899 439.16501 -0.95881534 -0.2190612 -0.1807908 0
-6.5796499 35.355099 419.34399 -0.88538224 0.43636772 0.16025452 0
-6.53615 -60.9799 439.745 -0.93395323 -0.35453093 0.045157701 0
-6.5043602 35.210602 418.10001 -0.95837253 0.13134767 -0.25351509 0
-6.4944401 -61.016602 439.147 -0.95723802 -0.25652847 -0.13374816 0
-6.4685302 35.6548 418.745 -0.88288784 0.46942341 0.012276031 0
-6.45333 35.5821 418.10699 -0.96702898 0.095276825 -0.2361722 0
-6.4503899 35.157299 419.94 -0.64171237 0.6373207 0.42664692 0
-6.44312 -61.000099 440.31699 -0.86609298 -0.43205979 0.2514106 0
-6.4345498 -60.414799 440.978 -0.76214612 -0.34518537 0.54770464 0
-6.41468 -61.318802 439.745 -0.93064207 -0.3614203 0.057277545 0
-6.4100299 -61.318199 439.146 -0.89485526 -0.36691043 -0.2541866 0
-6.3295002 -60.808998 440.83899 -0.80244678 -0.36398074 0.47286069 0
-6.2916598 35.8493 419.26599 -0.7021513 0.66365945 0.25795287 0
-6.2140698 36.105202 417.547 -0.92994362 0.19670983 -0.31066084 0
-6.2058802 -61.616199 440.34299 -0.85761619 -0.33313686 0.39180905 0
-6.1791101 36.405701 418.14499 -0.9612664 0.26664838 0.069753826 0
-6.1234798 -61.230099 440.806 -0.68788981 -0.42534554 0.58812314 0
-6.1133699 -62.367401 439.14499 -0.98140967 -0.152603 -0.11639336 0
-6.1041098 -62.2188 439.745 -0.93942404 -0.31079027 0.14454022 0
-6.08882 -61.918701 440.30701 -0.73139155 -0.51053816 0.45212519 0
-6.0844798 36.631599 418.22 -0.78294396 0.57357258 0.24085945 0
-6.0532799 36.705898 417.69501 -0.94950819 0.31084412 -0.04254533 0
-6.0223799 -61.838299 440.564 -0.71185207 -0.37739584 0.59231663 0
-6.0030398 36.502499 418.745 -0.73432833 0.51743716 0.43934116 0
-6.0016098 -62.7047 439.14499 -0.95615327 -0.29069984 -0.035559654 0
-5.9812498 -62.2197 440.271 -0.82534581 -0.46346459 0.32249787 0
-5.96174 36.927399 418.10599 -0.84723216 0.50267863 0.17179029 0
-5.9187498 -62.4995 438.452 -0.9569999 -0.15467325 -0.24541275 0
-5.9145899 36.780701 416.909 -0.92868978 0.2147209 -0.30237439 0
-5.8944201 -62.968399 438.69501 -0.95534694 -0.2450259 -0.1651499 0
-5.8914099 37.155399 417.54501 -0.92736459 0.37179613 -0.04198226 0
-5.8487401 -62.931499 439.745 -0.91927993 -0.34007281 0.19817893 0
-5.8476 -63.155701 439.05099 -0.94478571 -0.32400206 0.049016781 0
-5.7102199 37.358501 418.065 -0.70683026 0.63560534 0.31047842 0
-5.7034998 37.606602 416.94501 -0.91955149 0.39150473 -0.033897642 0
-5.6983399 -63.567001 438.58401 -0.95012593 -0.31186429 0.0011758528 0
-5.6913099 37.605598 417.54501 -0.76833528 0.5743202 0.2825194 0
-5.6278501 -63.793201 438.54501 -0.90856588 -0.39655513 -0.13134708 0
-5.6117802 -63.567699 439.74399 -0.83697629 -0.35970485 0.41241136 0
-5.60462 37.681099 416.345 -0.93828303 0.34452075 -0.030501874 0
-5.5701098 -63.942501 439.05099 -0.95625031 -0.27835944 0.090007819 0
-5.5013399 -64.204803 438.54501 -0.94938266 -0.31028464 -0.048949253 0
-5.4900699 -63.7127 439.965 -0.83697629 -0.35970485 0.41241136 0
-5.4878201 38.127701 416.34601 -0.94765973 0.31928197 -0.0002135 0
-5.4820499 -63.868 439.78201 -0.82998949 -0.36805108 0.4191131 0
-5.4756498 38.052502 417.24399 -0.82043445 0.51884156 0.24018893 0
-5.4667802 -64.2061 439.14499 -0.90588778 -0.40247309 0.13184372 0
-5.4426498 38.203899 416.944 -0.89880282 0.43405128 0.061261728 0
-5.3919802 38.3554 416.19501 -0.93799871 0.32747194 -0.11366865 0
-5.3765998 38.390999 416.60699 -0.89782876 0.4363347 0.059291959 0
-5.3596601 -64.1689 439.745 -0.79777813 -0.50050259 0.33622494 0
-5.3594398 -64.655602 438.54501 -0.95305538 -0.30214649 -0.019823568 0
-5.3476 -64.017197 437.88101 -0.85244334 -0.15513334 -0.49927348 0
-5.3340502 -64.392899 437.94901 -0.85512257 -0.2215244 -0.46871346 0
-5.3094902 38.2813 415.67001 -0.93215001 0.25156638 -0.260405 0
-5.3008499 38.582401 416.383 -0.89782876 0.4363347 0.059291959 0
-5.2560301 -64.395103 439.74701 -0.79777813 -0.50050259 0.33622494 0
-5.2235599 38.566799 416.944 -0.81048828 0.56083429 0.1690374 0
-5.18295 -65.216698 438.54501 -0.9352721 -0.34901789 0.058758907 0
-5.1506 38.879799 415.746 -0.93776941 0.31417853 -0.14792028 0
-5.14217 -65.105904 439.14499 -0.92591745 -0.28679228 0.24581923 0
-5.0890498 -65.367302 437.94601 -0.94949788 -0.19213882 -0.24806535 0
-5.02319 39.183399 415.745 -0.896312 0.44210565 0.034166608 0
-5.0090098 38.880798 415.07101 -0.93904138 0.11947125 -0.32237852 0
-4.9739299 -65.780197 438.54501 -0.92328459 -0.37111977 0.09907423 0
-4.9639101 -65.7808 437.94501 -0.94326615 -0.24644765 -0.22251411 0
-4.9243202 -65.629997 439.14401 -0.89198679 -0.37248784 0.2561492 0
-4.8996301 39.396599 416.26599 -0.74537247 0.64869142 0.15368587 0
-4.8712101 39.479301 415.18399 -0.94649678 0.26930082 -0.17782262 0
-4.8533902 -66.155602 437.94501 -0.95653707 -0.27937406 -0.083587907 0
-4.8513899 -65.030899 437.38 -0.86514407 0.0022817315 -0.50151819 0
-4.83742 -65.291496 439.71701 -0.64850813 -0.55098039 0.52522165 0
-4.8358402 -64.618599 437.35599 -0.54140556 0.024710312 -0.84039837 0
-4.83494 -65.5159 439.55399 -0.68082601 -0.50152296 0.53380775 0
-4.8294902 -66.156502 438.52701 -0.93893099 -0.3310703 0.093814082 0
-4.8105502 -64.018501 437.354 -0.66264963 0.081435658 -0.74448889 0
-4.80796 39.6339 415.93399 -0.82945472 0.533288 0.16615885 0
-4.8011599 -65.462402 437.367 -0.89047927 -0.11787853 -0.43948978 0
-4.7782402 39.528198 416.26599 -0.74537247 0.64869142 0.15368587 0
-4.7604799 -66.005798 439.14499 -0.82910019 -0.48203722 0.28325421 0
-4.7525101 39.556198 414.69501 -0.93621969 0.22601447 -0.26909128 0
-4.7452302 -65.8181 437.35001 -0.94064271 -0.069720373 -0.33216017 0
-4.7135501 -66.173698 437.38599 -0.96169817 -0.17122056 -0.21405643 0
-4.7044802 -66.603798 437.94501 -0.92800838 -0.3658177 -0.070553809 0
-4.7020602 -66.566704 437.68399 -0.84281158 -0.42432997 -0.33107817 0
-4.70116 39.911701 415.117 -0.9161455 0.40083072 0.0034917432 0
-4.6525698 -65.218399 437.19299 -0.61464882 -0.042965189 -0.78762984 0
-4.6409402 -64.4123 437.21701 -0.5404548 0.022173481 -0.84108084 0
-4.5721002 40.0625 414.47 -0.9529593 0.21342584 -0.21521623 0
-4.5123501 -67.013496 438.58099 -0.84602886 -0.52388054 0.09891554 0
-4.5069098 39.772701 416.267 -0.54542106 0.76629561 0.33956867 0
-4.5065198 40.1129 415.74799 -0.74425864 0.63997406 0.19108172 0
-4.4882002 40.3806 414.54501 -0.93299878 0.35597017 -0.052901246 0
-4.4314399 -66.1194 439.578 -0.54307526 -0.33654833 0.7692883 0
-4.3646202 40.597 415.142 -0.79424137 0.55426466 0.24894036 0
-4.35569 -65.8134 439.75299 -0.36160603 -0.35431999 0.86237949 0
-4.3554301 -67.233902 437.87701 -0.605012 -0.70658129 -0.36701956 0
-4.3352499 -67.393501 438.76999 -0.70658821 -0.6335516 0.31519112 0
-4.32972 -66.935997 439.173 -0.68096685 -0.40545025 0.60983133 0
-4.2733102 40.906601 414.358 -0.91718787 0.39778805 0.023044389 0
-4.2612801 40.903801 413.94601 -0.94553024 0.2892234 -0.14940685 0
-4.2407198 40.906799 414.76999 -0.83260942 0.51937324 0.1923876 0
-4.21242 -67.449303 438.47299 -0.7477529 -0.64617109 -0.15273686 0
-4.2097402 -65.518303 439.89499 -0.077889204 -0.32200617 0.94352812 0
-4.2081499 -66.641403 439.457 -0.30241638 -0.38327268 0.87272352 0
-4.17172 -64.562698 436.94199 -0.46571222 0.16141698 -0.87009007 0
-4.1428099 41.205502 413.94501 -0.94854033 0.28535548 -0.13727166 0
-4.13515 -64.994102 440.061 -0.17045729 -0.29813057 0.9391818 0
-4.1346302 -65.817902 439.798 -0.15006116 -0.35990274 0.92084289 0
-4.13411 -65.181297 436.83701 -0.48246509 0.085135877 -0.87176794 0
-4.1315999 -65.818802 436.78601 -0.57037801 0.0071098208 -0.82135153 0
-4.1086602 41.2799 414.17001 -0.88622582 0.46187159 0.03575591 0
-4.0490999 41.2043 413.34698 -0.93143421 0.29804873 -0.20879947 0
-3.9080701 41.0784 415.14301 -0.60296738 0.67023271 0.43268746 0
-3.90608 -67.431999 439.15399 -0.36603662 -0.60744458 0.70500231 0
-3.8726201 -65.480698 439.91501 -0.041926559 -0.32645243 0.94428331 0
-3.83495 -66.117104 439.71799 -0.10098207 -0.34703389 0.93240017 0
-3.8348801 -66.717903 439.51901 -0.079100788 -0.34852165 0.93395704 0
-3.77882 41.884899 413.30701 -0.91517776 0.40232429 -0.024182552 0
-3.76281 41.8759 413.98099 -0.67246211 0.70027757 0.23959558 0
-3.7585299 -67.238602 439.30899 -0.2720148 -0.47079387 0.83926225 0
-3.6958201 42.034401 413.72101 -0.74510127 0.63741636 0.19627661 0
-3.69032 41.9547 412.746 -0.94950199 0.22954412 -0.21390539 0
-3.6743901 42.110901 413.345 -0.90689796 0.41929713 -0.041545168 0
-3.60413 41.734299 414.54001 -0.52290606 0.72180289 0.45339805 0
-3.6038499 42.177101 412.70901 -0.96370333 0.24360284 -0.10924082 0
-3.5353401 -67.237602 439.314 0.0035967878 -0.44726601 0.89439374 0
-3.53526 -65.667999 439.85199 -0.010745738 -0.29485878 0.9554804 0
-3.5351501 -66.118698 439.71701 -0.0076808385 -0.30168504 0.95337671 0
-3.5267601 42.4002 413.34399 -0.80332106 0.59539735 0.013313734 0
-3.3812699 41.928501 414.465 -0.55678922 0.71113592 0.42926857 0
-3.2382901 43.003502 412.745 -0.90218908 0.40051526 0.1601323 0
-3.23522 -66.717796 439.522 0.0037027735 -0.34359568 0.9391104 0
-3.19596 42.394299 413.98001 -0.65835464 0.63390118 0.40587986 0
-3.1637101 43.042 411.92099 -0.91687036 0.38528559 -0.104421 0
-3.14237 42.953899 413.259 -0.63903582 0.69511533 0.32931429 0
-3.07373 43.3069 412.539 -0.83064699 0.55343539 0.061113257 0
-3.07304 42.8382 413.48901 -0.61706048 0.67888409 0.39793563 0
-3.04375 43.379501 412.14499 -0.83064699 0.55343539 0.061113257 0
-2.92641 43.6021 412.14499 -0.84779024 0.52360857 0.084176794 0
-2.9070101 -65.129501 439.992 0.020891951 -0.2728762 0.96182227 0
-2.87885 -66.606598 439.54001 0.059548903 -0.50721347 0.85976064 0
-2.8579099 43.078499 413.34299 -0.46813253 0.84209824 0.26781052 0
-2.8220401 43.754501 411.54501 -0.91753489 0.38746598 -0.08944165 0
-2.7101901 -65.743202 439.80801 0.017155167 -0.28942811 0.95704603 0
-2.7097499 43.636902 412.746 -0.7544719 0.55651248 0.34794542 0
-2.6293199 44.133499 411.54501 -0.90810561 0.41214788 0.07401567 0
-2.5876601 44.204899 410.94501 -0.93995625 0.32873482 -0.091736987 0
-2.55216 43.801998 412.66 -0.51315427 0.67675376 0.52789867 0
-2.5132999 -66.401199 439.59698 0.0020236643 -0.28556883 0.95835608 0
-2.48049 44.4319 411.32101 -0.81913638 0.56174773 0.11599589 0
-2.4523499 44.5051 410.758 -0.93616289 0.33704075 -0.100013 0
-2.4454501 -64.203499 440.24301 0.035835952 -0.26360518 0.96396476 0
-2.41412 -67.1408 439.07101 -0.7148701 -0.55771887 0.4217943 0
-2.41185 44.246399 412.147 -0.62860692 0.71822441 0.29834053 0
-2.3482499 44.724701 410.944 -0.83074659 0.54011583 0.13466635 0
-2.26512 -67.061096 439.14899 0.1971238 -0.60822719 0.76889658 0
-2.2032199 44.994598 410.383 -0.85346603 0.51995313 0.035276681 0
-2.10444 44.799 411.54199 -0.58713216 0.70869642 0.39118433 0
-2.04533 45.219398 409.745 -0.90790617 0.40507308 -0.10780641 0
-2.0211301 -66.241302 439.65201 -0.068738312 -0.27955925 0.95766467 0
-1.9980201 -65.515503 439.866 0.024657786 -0.27314326 0.96165729 0
-1.95432 45.4454 410.26999 -0.90627277 0.4226298 0.0073268176 0
-1.95029 45.280701 410.94101 -0.69598663 0.65882415 0.28557542 0
-1.81104 -66.637802 439.54199 0.028154226 -0.70117205 0.71243608 0
-1.73536 -64.692703 440.08301 0.059617288 -0.25454286 0.96522212 0
-1.71589 45.907799 409.71701 -0.84814173 0.5267356 -0.05661422 0
-1.67541 -66.603699 439.55801 -0.14235629 -0.83376688 0.5334487 0
-1.54605 46.1553 408.996 -0.92259401 0.36861357 -0.1137732 0
-1.41443 46.309502 408.54401 -0.89751422 0.4122493 -0.15658453 0
-1.35254 46.259701 410.11499 -0.67515779 0.62312758 0.39480871 0
-1.34165 46.608002 409.14499 -0.86550218 0.48804912 0.11275645 0
-1.32561 46.432598 409.78101 -0.72306424 0.63295174 0.27667707 0
-1.285 -65.3992 436.896 0.48874253 -0.87041259 -0.059267994 0
-1.26665 -65.573799 439.82101 0.076828294 -0.15607971 0.984752 0
-1.22452 -64.050499 440.216 0.078608386 -0.24752986 0.96568614 0
-1.21671 46.8269 408.92001 -0.81226116 0.5690667 0.12804228 0
-1.21428 -66.4842 439.67001 0.21067168 -0.97727346 0.02353693 0
-1.21303 -66.544601 439.073 0.29807273 -0.95043749 0.088437654 0
-1.16925 46.754902 408.09601 -0.91429126 0.38470033 -0.12679553 0
-1.13557 -65.337303 437.19501 0.48874253 -0.87041259 -0.059267994 0
-1.08604 46.906502 407.94501 -0.91876084 0.37981194 -0.10780261 0
-1.0672801 -66.462196 439.07599 0.49457893 -0.8691045 -0.0070046862 0
-1.0602601 -66.4935 439.67899 0.42944151 -0.89616954 0.11162516 0
-1.0228601 46.6796 409.746 -0.52308351 0.77186006 0.36140794 0
-1.0036 47.200298 408.54501 -0.80513668 0.59106618 -0.048945542 0
-0.80707598 47.279701 407.272 -0.9574666 0.22640175 -0.17888527 0
-0.77303302 47.542099 407.83301 -0.86486477 0.50061798 0.037290096 0
-0.66675597 -65.602699 439.76999 0.086219937 -0.20461744 0.97503734 0
-0.62309998 47.651501 408.54599 -0.74451721 0.63762563 0.19780716 0
-0.591362 -64.731499 439.98401 0.089079626 -0.24803171 0.96464765 0
-0.54070997 -66.1231 439.14899 0.6285693 -0.77754408 -0.018052738 0
-0.51400799 47.994202 407.38199 -0.88417047 0.46624255 0.029334011 0
-0.469322 -66.036499 439.66 0.74690676 -0.51367354 0.42222011 0
-0.46706399 -65.886101 439.69501 0.51110369 -0.74312222 0.43190551 0
-0.39218101 47.941101 408.28 -0.73540318 0.66582978 0.12590797 0
-0.31268299 -65.9245 439.07199 0.50778717 -0.86145586 -0.0067832209 0
-0.267708 48.4506 407.26901 -0.70383137 0.66305625 0.25490749 0
-0.23065899 48.209499 407.98001 -0.65589732 0.71806109 0.23278098 0
-0.19967701 48.517799 406.689 -0.86579424 0.49989825 -0.022407604 0
-0.086135902 48.556301 405.995 -0.93447566 0.2959131 -0.19796628 0
-0.075370803 48.6749 407.23199 -0.66625482 0.69845408 0.26127854 0
-0.054000899 48.704102 406.146 -0.8902666 0.44848502 -0.079287559 0
-0.048255902 -65.216797 439.806 0.14950484 -0.33847883 0.92902118 0
-0.0186844 48.8522 406.745 -0.8518827 0.52370971 -0.0048954017 0
-0.0068054199 48.310501 408.01599 -0.24906176 0.7549116 0.60669327 0
0.060249299 -65.436302 439.72101 0.25268167 -0.80090511 0.54286557 0
0.069999702 48.996399 406.668 -0.76300067 0.63403511 0.12581548 0
0.090461701 49.0033 406.146 -0.86012614 0.50589269 -0.065234944 0
0.13820601 -65.2892 439.76801 0.25268167 -0.80090511 0.54286557 0
0.18090101 48.536098 407.79001 -0.30291265 0.82621062 0.47499469 0
0.207405 -65.584396 439.147 0.63038242 -0.70157081 0.3322897 0
0.21422599 -65.0672 439.832 0.13744293 -0.4164131 0.89872664 0
0.218117 48.700802 407.56699 -0.44853094 0.72116441 0.52796012 0
0.231178 49.153801 405.54599 -0.91219974 0.38443968 -0.14176662 0
0.25058001 49.201199 406.67001 -0.74872577 0.6406948 0.17005843 0
0.39817801 49.494499 405.582 -0.90236491 0.41710749 -0.10843828 0
0.423042 49.553398 406.14401 -0.71667331 0.66859263 0.19840184 0
0.47898901 49.2658 406.89401 -0.49085292 0.73158878 0.47311866 0
0.53729999 49.607399 404.94501 -0.91071254 0.37112227 -0.18130341 0
0.55468798 48.997398 407.341 -0.34099272 0.76914257 0.54050314 0
0.58563203 49.831001 405.62 -0.72551596 0.68706697 0.039567422 0
0.59001899 48.150299 408.41101 -0.060267974 0.76159209 0.64524823 0
0.61407501 49.680698 404.72101 -0.91047698 0.36723295 -0.19018827 0
0.65664703 -65.153 439.716 0.51490086 -0.77414083 0.36821604 0
0.72626501 48.572701 407.923 -0.11934602 0.78717196 0.6050759 0
0.741943 49.679501 404.27301 -0.89292812 0.36860183 -0.25848025 0
0.79499799 50.127701 404.94601 -0.86825275 0.49445927 -0.040585533 0
0.80667102 50.138 405.54501 -0.72840524 0.64896864 0.21969432 0
0.813896 48.097698 408.45001 0.090620503 0.72104305 0.68693876 0
0.81853497 49.589901 406.664 -0.36223647 0.80998087 0.46121117 0
0.84300202 -65.042603 439.18399 0.71989876 -0.6935125 0.028038725 0
0.96472901 49.287399 407.12 -0.13937856 0.78365707 0.60535544 0
0.99253798 50.392399 404.383 -0.9049626 0.4195694 -0.070740111 0
1.04002 49.106899 407.34299 -0.04557151 0.72852856 0.68349791 0
1.0955499 47.916302 408.578 0.12090297 0.69693387 0.70687032 0
1.11484 50.096699 406.07101 -0.32329443 0.80420607 0.4987317 0
1.11698 49.900101 406.366 -0.13799751 0.78809977 0.59987956 0
1.14038 50.6548 404.19501 -0.84533286 0.52375293 -0.10533391 0
1.18997 50.4627 405.54599 -0.36858836 0.82520264 0.42799905 0
1.19336 50.711201 404.897 -0.82222694 0.55644339 0.11963951 0
1.19951 48.629299 407.858 0.096266747 0.71675771 0.6906454 0
1.23434 50.8591 404.271 -0.71886694 0.69512415 -0.0057186186 0
1.37748 49.878601 406.444 -0.052225165 0.78858376 0.61270565 0
1.41504 49.702702 406.66 -0.060070518 0.71358693 0.69798654 0
1.45303 48.2757 408.155 0.14214256 0.69286525 0.70691812 0
1.4644001 50.930801 404.94601 -0.49074268 0.80145454 0.34182197 0
1.48966 49.222599 407.194 0.058105145 0.72983432 0.6811502 0
1.51527 51.1632 404.341 -0.35933414 0.90899855 0.21118855 0
1.52737 48.736198 407.686 0.14291064 0.7020089 0.6976819 0
1.63934 51.1059 403.73001 -0.61296314 0.57963264 -0.53693777 0
1.63982 47.6954 408.68701 0.13334228 0.690274 0.71115518 0
1.63985 50.130001 406.14499 -0.072300561 0.76259822 0.64281923 0
1.71504 50.446499 405.76901 -0.16330819 0.76631773 0.62135941 0
1.79 50.638199 405.543 -0.12390194 0.75174356 0.64771128 0
1.79197 51.095699 404.94101 -0.041729856 0.97376198 0.22371027 0
1.80795 48.995399 407.36499 0.10006459 0.70612013 0.70098603 0
1.8081599 51.173401 404.27802 -0.1530894 0.9849233 -0.080558889 0
1.81312 49.740799 406.58401 0.04598977 0.74498349 0.66549569 0
1.82652 49.3839 406.966 0.12486345 0.72679847 0.67540592 0
1.86491 50.060101 406.22101 0.052327901 0.74458975 0.66546816 0
1.93796 -64.371498 439.67001 0.003167164 -0.99971843 0.023517072 0
1.94007 51.225201 404.86899 -0.032078575 0.98058695 0.19344305 0
1.94116 51.099998 405.01401 0.084365286 0.030746985 0.99596041 0
2.01489 50.449699 405.772 0.035595596 0.74860162 0.6620639 0
2.01582 48.579102 407.73801 0.14001043 0.70131856 0.69896305 0
2.1238401 50.9603 404.31 0.29775342 0.94922727 -0.10154022 0
2.2367599 -64.197701 439.67099 0.24796242 -0.96740329 0.051434975 0
2.28583 50.624401 405.55801 0.12698343 0.70339155 0.69936794 0
2.36146 50.1036 406.11099 0.11021131 0.72256893 0.68245709 0
2.5376699 -64.006104 439.67099 0.59119743 -0.69764799 0.40468863 0
2.5398099 48.032902 408.18799 0.11714283 0.70373249 0.70074111 0
2.6111901 50.525799 405.61499 0.3198677 0.73718631 0.59518147 0
2.6338999 49.241402 406.94601 0.12882815 0.71036828 0.69193947 0
2.7743199 49.747898 406.40399 0.22784789 0.69738925 0.67950982 0
2.90136 50.407501 405.543 0.1252899 -0.11884256 0.98497659 0
2.9535401 48.749699 407.39001 0.099884234 0.71184695 0.69519573 0
2.98422 -63.591702 439.522 0.73823982 -0.66066951 0.13607979 0
2.9872501 49.9776 406.11801 0.30094296 0.90983737 0.28570843 0
3.1448901 -63.514 439.67001 0.57036066 -0.81021082 0.13508204 0
3.2128301 49.875999 406.13501 0.50525612 0.80348712 0.31484076 0
3.28034 49.230801 406.84698 0.13446607 0.72096521 0.67980003 0
3.44138 48.897499 407.16699 0.11132386 0.72964191 0.67470711 0
3.4635201 49.675999 406.164 0.67426759 0.72699088 0.12979779 0
3.5894401 49.304298 406.71201 0.029244872 0.91788822 0.39575997 0
3.6141 -63.067799 439.67001 0.86621034 -0.39811012 0.3019734 0
3.7409599 49.304699 406.67099 0.29724661 0.87284797 0.38701528 0
3.81499 49.150101 406.79599 0.61305964 0.35608244 0.70523983 0
4.1215301 -62.437698 439.745 0.57836765 -0.81468362 0.042207804 0
4.3321199 48.6334 407.26501 0.12796026 0.99043328 -0.051653653 0
4.3718901 -61.9856 440.19501 0.53402567 -0.62747401 0.56665063 0
4.3751798 -61.616299 440.37601 0.50214881 -0.53628457 0.67841393 0
4.43784 48.519299 407.26901 0.53620374 0.83083057 0.14901702 0
4.55794 -61.764801 439.74701 0.81454319 -0.57137197 0.10026668 0
4.5604 48.0606 407.866 0.77745813 0.57869941 0.24630424 0
4.7137899 47.533298 408.392 0.61128998 0.64257884 0.46197084 0
4.7923298 47.9259 407.867 0.73314077 0.64004505 0.22988462 0
4.9307899 -61.234699 440.327 0.64587271 -0.70902842 0.28306741 0
4.9321799 47.550499 408.30899 0.57923317 0.69896406 0.41944981 0
4.9516902 47.8036 407.86899 0.74297291 0.66408575 0.083554506 0
5.23243 47.350399 407.94601 0.75505918 0.60406947 0.25492299 0
5.2575202 -61.005001 439.74701 0.58325005 -0.81221503 0.011233066 0
5.3825498 47.066399 408.54099 0.74418157 0.57937896 0.33243611 0
5.5275698 46.9011 408.46899 0.83643824 0.54255319 0.077505298 0
5.5356998 -60.638599 440.33401 0.60006428 -0.68882805 0.40674165 0
5.54006 46.570702 409.07001 0.55705208 0.74945563 0.35778376 0
5.61238 -60.701099 439.70901 0.58730781 -0.77153993 0.24453163 0
5.9120898 -60.517502 439.784 0.58124363 -0.77717489 0.24115346 0
6.1205101 45.999001 409.65601 0.60261905 0.76995981 0.20979069 0
6.20784 -60.2715 439.74899 0.57859093 -0.79809147 0.16817407 0
6.5486102 -59.925201 439.67401 0.69887173 -0.69124562 0.18373296 0
6.56285 45.409 409.74399 0.72948664 0.68283951 0.039741274 0
6.60497 -60.0704 439.97101 0.69887173 -0.69124562 0.18373296 0
6.6559701 45.211399 410.26401 0.48459065 0.82777274 0.28277946 0
6.7226701 45.012901 410.55701 0.47754553 0.67910814 0.55746067 0
6.81107 44.629501 410.92001 0.54177976 0.71939689 0.43467546 0
6.8360701 -59.680801 439.74301 0.76624662 -0.60964799 0.2029666 0
7.0187302 44.5784 410.345 0.86171907 0.50433218 0.055581689 0
7.1312299 44.3554 410.87 0.76873147 0.60744596 0.20015325 0
7.16998 -59.264801 439.71301 0.76365072 -0.63556743 -0.11354134 0
7.2609601 43.906101 411.47699 0.72741693 0.62691426 0.27900371 0
7.3305802 -59.284199 440.33899 0.5107193 -0.75532401 0.41067198 0
7.4509301 43.8302 410.90799 0.82275897 0.56812531 0.017358929 0
7.6639099 43.592499 411.46799 0.74048477 0.6719678 0.011900219 0
7.7552099 -58.689499 440.36801 0.66259766 -0.65835518 0.35711735 0
7.8364501 43.309399 411.54401 0.80015641 0.49876556 0.33314064 0
7.85778 43.297001 411.767 0.80015641 0.49876556 0.33314064 0
7.86272 42.7472 412.51001 0.56388307 0.6081062 0.55878687 0
7.90276 -58.5378 440.366 0.54792506 -0.81097633 0.20517203 0
8.3215103 42.4063 412.14499 0.70848054 0.67970359 0.18989058 0
8.4269104 -58.093601 440.26999 0.22647478 -0.97099835 -0.076624952 0
8.4682302 42.142101 412.74301 0.71171546 0.64676696 0.27414164 0
8.7628899 -57.399799 439.70901 0.69421738 -0.71905422 -0.031987898 0
8.7853203 -57.405602 440.371 0.79353714 -0.48829049 0.36314073 0
8.9125404 41.354301 412.745 0.6723147 0.74011236 0.015054686 0
8.9712095 41.348202 413.26599 0.65964174 0.71397638 0.23475617 0
9.0037098 -57.174702 439.74799 0.68324858 -0.73012835 -0.0091629047 0
9.1007099 41.193699 413.26401 0.72366714 0.65163755 0.22732005 0
9.1188698 -57.0378 440.36301 0.74713606 -0.47102201 0.4689627 0
9.1356497 40.601299 413.89801 0.67849714 0.58882242 0.43923768 0
9.1551399 40.8829 413.552 0.68847901 0.55083406 0.47178227 0
9.2314901 -56.9645 439.78299 0.7141462 -0.69974977 0.018587753 0
9.2840996 -56.8633 440.36499 0.67288566 -0.58217853 0.45639133 0
9.6629896 39.1749 414.948 0.45918876 0.69943261 0.54766756 0
9.6901302 -56.4566 439.75 0.79719639 -0.59736556 -0.087363228 0
9.6999998 39.924198 413.87299 0.71085459 0.69874382 0.080266818 0
9.7112598 -56.436901 440.34 0.62565523 -0.66983622 0.39984366 0
9.7337704 -56.215 440.435 0.49672443 -0.59206903 0.63460153 0
9.7742996 39.746601 414.314 0.49191836 0.79540521 0.3540436 0
9.8145905 39.573502 414.492 0.59127814 0.67766213 0.43722332 0
9.8873501 -56.068001 440.36899 0.85764968 -0.50790846 0.080411725 0
9.9683704 -56.028 439.74799 0.81643343 -0.57340086 -0.068175368 0
10.1093 -55.690201 440.32901 0.86036408 -0.49832213 0.10699888 0
10.1266 38.9175 414.24701 0.90554661 0.36959335 -0.20829338 0
10.1812 -55.616901 439.784 0.86793655 -0.48849648 0.089762874 0
10.1828 38.827599 415.09601 0.54024053 0.74991387 0.38179749 0
10.2084 38.958401 414.46799 0.90397269 0.40313554 -0.14253107 0
10.3304 -55.238499 440.36099 0.8932153 -0.39766914 0.20982301 0
10.3306 38.6376 415.19299 0.95475394 0.27592444 0.1109534 0
10.3661 38.3563 414.54501 0.94366145 0.32961866 -0.029233474 0
10.4105 37.9473 415.72699 0.49413958 0.69895864 0.51699412 0
10.5549 -55.018501 439.745 0.81463516 -0.55911833 -0.15413053 0
10.6836 37.909 415.14401 0.69951671 0.71453732 0.010621144 0
10.7074 37.729698 415.71701 0.75238043 0.64513129 0.13315153 0
10.7872 37.153 416.19601 0.48111096 0.64874417 0.58962971 0
10.8085 -54.713402 439.746 0.75957501 -0.64334899 -0.095644593 0
10.8168 -54.7061 440.134 0.72635055 -0.56787229 0.38721567 0
10.8469 37.530399 415.14499 0.929483 0.35782599 -0.089565009 0
10.8592 36.923599 416.332 0.54035741 0.59277397 0.59718746 0
10.907 37.591499 415.66199 0.74906188 0.65982634 0.059460029 0
10.941 37.326302 415.92499 0.70233393 0.49543002 0.51115173 0
10.9996 -54.481201 439.75101 0.97997665 -0.18237501 -0.079906628 0
11.1531 37.1516 415.67099 0.91087955 0.40496665 0.079375796 0
11.3214 36.552898 416.267 0.73915285 0.65815985 0.14310369 0
11.3517 -50.368801 437.41699 0.890513 -0.094787523 -0.44497401 0
11.3523 -51.120499 437.22198 0.88727617 0.10742032 -0.44855529 0
11.3963 -50.668201 437.42001 0.84802991 0.13463399 -0.5125612 0
11.4004 -53.509201 439.88199 0.7354303 -0.35724837 0.57577413 0
11.4079 36.478901 415.784 0.96408159 0.25948051 -0.056714315 0
11.4265 36.405499 416.26999 0.8390165 0.5399124 0.06742359 0
11.441 -51.4188 437.272 0.86675185 -0.017151784 -0.49844465 0
11.4426 -51.642601 437.349 0.88251901 -0.12014425 -0.45467088 0
11.5251 -53.590599 439.66901 0.97607839 -0.21585178 0.026057234 0
11.5654 -50.293598 437.79501 0.79877239 -0.17830648 -0.57460374 0
11.6591 -51.287399 437.797 0.91479015 0.020904481 -0.4033882 0
11.6783 -53.296101 439.67099 0.97607839 -0.21585178 0.026057234 0
11.6934 -50.819801 437.94901 0.89213103 0.072598152 -0.44590548 0
11.6978 -51.6763 437.95499 0.89005595 -0.19782162 -0.4106909 0
11.7578 35.876499 416.34399 0.86967903 0.45196766 0.19845301 0
11.8814 -50.516602 438.47699 0.90448695 -0.088499576 -0.41721833 0
11.912 -51.502701 438.43201 0.93720603 -0.0056185271 -0.34873098 0
11.9401 -51.118801 438.62201 0.95360911 0.046611834 -0.29741722 0
11.9567 -50.743 438.69901 0.90352362 -0.10074583 -0.41652769 0
11.9646 -51.792999 438.548 0.93077499 0.00081604114 -0.36559162 0
11.9679 -52.606499 439.793 0.57775986 -0.24692316 0.77796048 0
11.9929 35.279301 416.272 0.88298339 0.46922478 0.012979454 0
12.0464 -52.689301 439.668 0.92774117 -0.36964011 -0.051599465 0
12.0522 -52.314602 439.828 0.54845864 -0.29791304 0.78130722 0
12.0964 -52.318199 439.14401 0.94639945 -0.28529054 -0.15145096 0
12.1089 35.018101 416.34601 0.93306756 0.35035047 -0.081483349 0
12.1163 -51.118801 439.14401 0.91234934 -0.068401299 -0.40365827 0
12.2115 -52.079201 439.78799 0.78292269 -0.23414446 0.57637531 0
12.2365 -50.481602 439.14401 0.87358928 -0.24201211 -0.42222252 0
12.2455 34.996899 416.832 0.85275739 0.48857358 0.18466379 0
12.372 -51.568199 439.67001 0.98210603 -0.14613754 -0.11879229 0
12.4101 -50.891399 439.745 0.95566678 -0.28770524 0.062663712 0
12.4868 34.352901 417.51901 0.83525372 0.42812786 0.34504747 0
12.5918 34.303699 416.94699 0.93172795 0.33143553 -0.14843699 0
12.6117 -50.432499 439.82101 0.79528517 -0.48147514 0.36837915 0
12.6175 34.291302 417.461 0.67039502 0.69842601 0.2505427 0
12.6847 34.079201 416.965 0.83653194 0.50179732 -0.22003122 0
12.7173 -49.9804 440.091 0.6710726 -0.4547092 0.58557761 0
12.7295 -49.763302 440.164 0.6187045 -0.346356 0.70515406 0
12.9836 33.3312 416.983 0.85915726 0.42247349 -0.28872991 0
12.9891 33.7089 417.54599 0.61362225 0.78043061 -0.11998264 0
13.1003 33.479099 417.54501 0.82703942 0.56044519 -0.043669567 0
13.1528 -48.268902 440.23801 0.53368723 -0.21302241 0.81841272 0
13.2313 33.182701 417.54401 0.92674828 0.32933664 -0.18076238 0
13.2439 -49.161301 440.05899 0.56791174 -0.34039846 0.74940318 0
13.2565 -49.384499 439.96301 0.73765022 -0.59953934 0.31052333 0
13.2969 -48.566299 440.16101 0.6580596 -0.2007737 0.72570485 0
13.3751 32.9491 418.06601 0.83525026 0.50144047 0.22564244 0
13.5242 32.579399 417.54599 0.88225353 0.43592432 -0.17776033 0
13.542 -49.008801 439.672 0.78272355 -0.30345994 0.54337454 0
13.7348 32.351799 418.07001 0.83808178 0.54550606 -0.0064879591 0
13.7428 -46.694801 438.24399 0.72885388 -0.4232741 -0.5381552 0
13.8195 -45.895802 437.68399 0.7431469 -0.41690692 -0.52337492 0
13.8503 -46.3922 438.134 0.70593089 -0.4474183 -0.54907054 0
13.8905 -46.8438 438.54501 0.69750625 -0.43901679 -0.5663473 0
13.9177 -48.035599 440.01501 0.7054168 -0.37726998 0.60004544 0
14.2313 -47.592701 439.67001 0.69145417 -0.35580388 0.62872469 0
14.2483 -45.4921 437.94699 0.68415695 -0.44089663 -0.58098149 0
14.2841 -44.8484 437.49301 0.66335326 -0.47965261 -0.57436562 0
14.2903 31.003799 418.74701 0.87990451 0.46921742 0.074853599 0
14.2994 -46.993198 439.14499 0.6509189 -0.57752466 -0.49271679 0
14.3548 -46.618401 438.92099 0.67254496 -0.4456856 -0.59080249 0
14.3572 -46.015701 438.474 0.67348021 -0.45950097 -0.57903647 0
14.3643 -47.364601 439.78201 0.5630874 -0.48510563 0.66903293 0
14.3928 30.483101 418.66699 0.90779448 0.36483452 -0.20689355 0
14.5048 30.6936 419.263 0.82433838 0.56425858 0.045590591 0
14.5306 -46.8382 440.022 0.43961874 -0.38425791 0.81183821 0
14.5313 -47.132801 439.74799 0.70592111 -0.50394231 0.49771231 0
14.5866 -45.718201 438.49899 0.63038367 -0.4734157 -0.6152187 0
14.6554 -46.689899 440.017 0.48705795 -0.32378888 0.81113213 0
14.6975 -44.216702 437.38699 0.72145599 -0.436459 -0.53759164 0
14.7009 -44.630299 437.79599 0.69865245 -0.43342602 -0.56923336 0
14.7046 -46.150501 438.957 0.64524829 -0.46772966 -0.60405594 0
14.7836 30.109301 419.34399 0.92991447 0.35397178 0.099814996 0
14.7968 29.880301 419.19601 0.90997303 0.41420716 -0.01953157 0
14.8077 -45.261299 438.37299 0.62171507 -0.48468637 -0.61526376 0
14.8282 -46.777901 439.672 0.73046404 -0.44981506 0.51389557 0
14.9032 -44.818802 438.12399 0.63309354 -0.40761453 -0.65806001 0
14.9068 -45.567101 438.698 0.5992021 -0.49735788 -0.62736911 0
14.9235 -46.1698 439.21799 0.70185965 -0.57441109 -0.42124212 0
14.974 -44.293598 437.87 0.90262908 -0.21107896 -0.37510851 0
14.9899 -43.993599 438.17001 0.75629342 -0.0070801382 -0.6541943 0
15.0058 -44.143398 437.87 0.9098475 -0.25384516 -0.32823804 0
15.0181 -46.227699 439.827 0.5574491 -0.40280926 0.7259444 0
15.0519 -43.695999 437.948 0.95465511 -0.17463183 0.24111687 0
15.0582 28.896999 420.51599 0.61107713 0.64907503 0.45308533 0
15.0732 -45.678501 438.952 0.61010724 -0.50356776 -0.61170965 0
15.0755 29.496201 419.86499 0.81908196 0.5735144 0.013637325 0
15.0946 -45.940498 439.98401 0.58752006 -0.34066504 0.73400784 0
15.1241 -46.313 439.67001 0.92604786 -0.35061511 -0.13965806 0
15.2021 -43.090401 437.866 0.95022911 -0.30886927 -0.040797606 0
15.2122 -45.003899 438.52399 0.54287541 -0.5075646 -0.66907734 0
15.2517 -46.097401 439.67099 0.76665914 -0.64134473 -0.030177455 0
15.2811 -43.551498 437.26999 0.67851025 -0.72751391 -0.10172174 0
15.2906 28.6821 420.54901 0.6907686 0.66786832 0.27711126 0
15.3899 28.8326 419.90701 0.88026255 0.47440317 -0.0089125354 0
15.4184 -45.505299 439.146 0.60282236 -0.59161699 -0.53534526 0
15.4293 -42.5481 438.03 0.99033213 -0.13664839 -0.023865264 0
15.4759 28.605 419.94501 0.8998099 0.41767278 -0.12606181 0
15.5129 -44.742199 438.56601 0.53220153 -0.50321668 -0.68083364 0
15.5138 -44.892799 438.66199 0.55467057 -0.53259557 -0.63928282 0
15.5766 -45.5769 439.522 0.87551504 -0.47960147 -0.058785837 0
15.646 -42.1903 437.871 0.66540587 -0.63465405 0.39300036 0
15.6618 28.302299 420.46899 0.88512415 0.45677745 0.088935897 0
15.6935 28.2082 420.617 0.7194218 0.52419752 0.45568541 0
15.7223 -43.012501 437.32401 0.86464739 -0.48885438 -0.11578564 0
15.7407 -44.594601 438.57901 0.50971395 -0.53409773 -0.67448598 0
15.7585 -45.193298 439.15201 0.71953177 -0.61401266 -0.32444182 0
15.8787 -45.0368 439.79001 0.64596742 -0.63512599 0.42348683 0
15.9592 -41.888699 437.95099 0.62655419 -0.69944817 -0.34380531 0
16.004999 27.630199 420.54501 0.87916583 0.47651392 -0.0014057701 0
16.039 -41.892601 438.02499 0.62655419 -0.69944817 -0.34380531 0
16.1749 -41.8153 437.26599 0.7122131 -0.52508026 0.46587899 0
16.192101 -44.2813 438.65799 0.51754057 -0.5593887 -0.64748436 0
16.194901 -44.670101 439.035 0.61962074 -0.72274524 -0.30611998 0
16.2526 27.248899 421.06799 0.86304104 0.49548459 0.098260514 0
16.261 26.5021 421.745 0.64464551 0.55787271 0.52269512 0
16.2677 -44.5854 439.659 0.80081493 -0.46725076 0.37466282 0
16.327801 -42.1129 437.07101 0.63234556 -0.63674808 0.44123808 0
16.359699 -44.437901 439 0.79244548 -0.54448295 -0.27489731 0
16.5172 26.3496 421.68701 0.63237387 0.71464247 0.29898065 0
16.5826 26.430599 421.108 0.79467535 0.60075057 -0.087119691 0
16.6015 -44.136902 439.147 0.78704607 -0.42584276 -0.44633669 0
16.638599 -41.433701 437.34601 0.37893221 -0.91592318 0.13226891 0
16.7411 -43.7276 438.99799 0.79443759 -0.36081383 -0.4885512 0
16.7869 -41.314301 437.87399 0.1169773 -0.99304914 -0.013025971 0
16.8388 -43.8395 439.36899 0.90569997 -0.40121269 0.13687928 0
16.861099 25.938101 421.59201 0.86556888 0.49762508 0.056212012 0
16.9184 -43.402599 439.06299 0.92035711 -0.24675503 -0.30340526 0
16.932301 -42.786098 438.52802 0.57453465 -0.5810622 -0.57643443 0
17.0716 25.2913 422.14899 0.63730675 0.66964018 0.38134256 0
17.0875 -41.380001 437.87399 0.1964995 -0.97345811 -0.1173338 0
17.0944 -41.4249 437.26999 0.47791064 -0.84587795 0.23683737 0
17.1581 25.308001 421.745 0.8114261 0.53274137 0.24036294 0
17.2379 -42.491699 438.535 0.56887889 -0.5964092 -0.56627989 0
17.301399 -42.8606 439.18301 0.79803246 -0.59555829 -0.091948435 0
17.3281 -41.215599 436.784 0.80062294 -0.59879482 -0.02115931 0
17.3566 -41.156898 437.345 0.80657852 -0.57155353 -0.15085658 0
17.4417 -42.338799 438.59601 0.71802545 -0.52889597 -0.45244727 0
17.4573 24.165501 422.76801 0.65888953 0.63743317 0.39942902 0
17.474501 -42.634602 439.21899 0.96749425 -0.19931048 -0.15566041 0
17.4888 -40.991402 437.34601 0.75583827 -0.62026709 -0.20970745 0
17.5707 -42.490101 439.14499 0.96749425 -0.19931048 -0.15566041 0
17.648899 -40.7668 437.384 0.73414052 -0.5988068 -0.3201063 0
17.7113 -40.468899 436.78299 0.88042307 -0.45838404 -0.12140554 0
17.7244 23.882 422.26801 0.90624851 0.41943267 -0.05281974 0
17.7479 -41.068699 437.94601 0.70585549 -0.57323843 -0.41613182 0
17.835899 -40.167198 436.746 0.86841905 -0.39465514 -0.30015945 0
17.846001 23.5133 423.03 0.54492986 0.58712959 0.59860694 0
17.9074 -40.1693 437.04501 0.867459 -0.44248962 -0.22741552 0
17.9168 -41.1432 438.246 0.66924477 -0.48764089 -0.56064051 0
17.917601 -41.5354 438.547 0.82547277 -0.3751688 -0.42171443 0
17.951 22.8293 423.42099 0.55239499 0.67990273 0.48227799 0
17.9571 -41.815102 438.84799 0.8568821 -0.41429511 -0.30677783 0
17.980499 -40.6945 437.944 0.79485577 -0.41258159 -0.44495031 0
18.007401 -41.893501 439.37 0.75397432 -0.49791372 0.42849115 0
18.0075 -41.883701 439.073 0.71163952 -0.69447201 -0.10619728 0
18.0242 23.423599 422.79599 0.88133389 0.46542203 -0.081442878 0
18.129999 23.2017 422.87201 0.93479782 0.33612442 -0.11477542 0
18.1334 22.899 423.311 0.77205974 0.44058231 0.45805132 0
18.140301 -41.1241 438.58301 0.8186962 -0.38549766 -0.4255915 0
18.1698 -39.8311 437.30801 0.85180175 -0.43022773 -0.29889446 0
18.281401 -41.292801 439.07001 0.94276845 -0.3151817 0.10884902 0
18.319401 -40.581501 438.47 0.82056952 -0.37854993 -0.42821211 0
18.3477 -39.568401 437.42001 0.80513829 -0.47494695 -0.35521507 0
18.465799 -39.654301 437.81299 0.80476147 -0.45700622 -0.37881956 0
18.4669 -40.761501 438.922 0.89825445 -0.4375008 -0.041617386 0
18.489799 -39.229099 437.30899 0.80513829 -0.47494695 -0.35521507 0
18.559299 -40.1689 438.54501 0.9013254 -0.32946303 -0.28118795 0
18.5777 22.0769 423.55701 0.78726286 0.406827 0.46336696 0
18.603201 21.7101 423.858 0.81555551 0.30338883 0.49277219 0
18.606501 -40.6105 439.069 0.73622745 -0.67527109 -0.04447512 0
18.7152 -39.870098 438.543 0.85959941 -0.47960714 -0.17625506 0
18.7181 21.9984 423.46799 0.78726286 0.406827 0.46336696 0
18.766701 -39.941002 439.16501 0.85413152 -0.49780458 0.15049896 0
18.832399 -39.152699 437.91 0.76854539 -0.51237571 -0.38315684 0
18.927 20.824301 423.509 0.94468379 0.29216176 -0.14904369 0
18.980101 -39.363602 438.439 0.84244561 -0.46861935 -0.26585951 0
18.996901 -38.848598 437.763 0.73614025 -0.55433774 -0.38833898 0
19.027599 -38.534401 437.38501 0.74346346 -0.55851388 -0.36786461 0
19.0809 20.7285 424.16101 0.63192183 0.34125927 0.69585699 0
19.2075 20.499399 424.069 0.73674756 0.67568952 0.025430564 0
19.2626 20.354 424.069 0.96734726 0.14426881 0.20838854 0
19.3337 -39.190399 439.08099 0.7851693 -0.55862057 0.26730534 0
19.5742 19.493299 424.146 0.75872082 0.62802011 -0.17301293 0
19.627899 19.1761 424.10501 0.85886383 0.46201774 -0.22111642 0
19.6437 19.448601 424.79099 0.75933897 0.63906425 0.12247924 0
19.657101 -38.667 438.582 0.89060777 -0.018070156 0.45441309 0
19.773001 19.0418 424.29901 0.85886383 0.46201774 -0.22111642 0
19.8011 19.307899 424.51901 0.85886383 0.46201774 -0.22111642 0
19.808201 -38.593601 438.76999 0.8226617 -0.41602173 0.38749659 0
19.934099 -37.916599 438.953 0.73607445 -0.19103929 0.64938307 0
19.951799 18.9979 424.673 0.89678872 0.42990357 0.10465626 0
20.082899 -37.9128 438.58301 0.95914108 -0.24001685 0.1498009 0
20.163099 18.123501 424.65399 0.90893584 0.40278882 -0.10768843 0
20.3235 17.693199 424.746 0.93646377 0.28312072 -0.20707062 0
20.337299 17.954901 425.26999 0.84626532 0.52232677 0.10492744 0
20.414301 -37.0891 438.763 0.66910136 -0.47711053 0.56979728 0
20.4207 -37.234299 438.47 0.91966009 -0.36339146 0.1489026 0
20.457001 17.6518 425.26901 0.98772359 0.11648667 0.10408151 0
20.4935 -37.084499 438.54401 0.91966009 -0.36339146 0.1489026 0
20.526501 17.4289 425.492 0.72838122 0.39487815 0.55993932 0
20.681801 16.8249 425.88199 0.62717295 0.54853064 0.55296308 0
20.8211 16.716999 425.19699 0.92336953 0.34779936 -0.16255568 0
20.842899 16.8279 425.383 0.94606549 0.29561576 -0.13255715 0
20.8582 -36.337502 438.57401 0.77615291 -0.32110211 0.54266024 0
21.0634 15.7055 426.31 0.63865715 0.42410955 0.64206547 0
21.0902 -36.038898 438.48901 0.81639987 -0.55276096 0.16717231 0
21.1105 16.297001 425.86401 0.88716227 0.45204654 0.092719913 0
21.120899 16.1488 425.98499 0.71010607 0.33142194 0.62121564 0
21.2799 -35.365398 438.53601 0.65094668 -0.57150453 0.49965087 0
21.333401 15.4805 425.87 0.93347561 0.30756363 -0.18446657 0
21.386801 -35.367901 437.94501 0.78661746 -0.61569571 0.046386719 0
21.483601 14.8807 425.94501 0.97165996 0.23451367 0.029670108 0
21.537901 14.5754 426.582 0.79664481 0.50185138 0.33690095 0
21.604799 -34.765099 438.341 0.88091928 -0.076314121 0.46707323 0
21.610399 14.8038 426.46701 0.59579891 0.7293154 0.33633718 0
21.633499 -35.066399 438.17001 0.88907802 -0.4323338 0.1504253 0
21.6595 13.9015 426.95099 0.77085471 0.30779237 0.55771571 0
21.8561 13.978 426.54501 0.82744586 0.33908901 0.44760692 0
21.868601 13.7175 426.397 0.62492639 0.72712106 0.28418654 0
22.021099 -34.164101 437.871 0.95582581 -0.26132318 0.13456321 0
22.139099 13.0051 427.155 0.62164468 0.72781342 0.28956082 0
22.205099 -33.8447 437.909 0.87625307 -0.40909499 0.2546013 0
22.3472 12.7059 427.07001 0.89879626 0.39424235 -0.1916724 0
22.369499 12.1736 427.435 0.66906476 0.35470474 0.65309793 0
22.380899 12.4773 427.07001 0.96548176 0.23576619 -0.1107216 0
22.4046 -33.341599 437.909 0.97885692 -0.17854688 0.099800475 0
22.4683 11.5035 427.75299 0.84216166 0.31785876 0.43557957 0
22.4825 -32.667 437.978 0.91255659 -0.020192131 0.40845162 0
22.539 11.8817 427.18201 0.8962099 0.24318761 0.37103584 0
22.6019 -32.817799 437.345 0.9593156 -0.28208223 -0.011965397 0
22.6157 11.3559 427.14401 0.93614203 0.33921579 -0.092578053 0
22.804701 10.9601 427.51901 0.92971379 0.36826828 -0.003280086 0
22.8239 10.2988 428.08899 0.71613979 0.3615368 0.59702176 0
22.8514 10.7519 427.742 0.82832372 0.37673056 0.41467318 0
22.862101 -31.6171 437.86099 0.84069943 -0.18531884 0.5088039 0
22.9203 -31.9058 437.603 0.83916336 -0.29557884 0.45655012 0
22.9212 -32.0658 437.30801 0.93581271 -0.35191891 0.020189594 0
22.9342 9.5530796 428.35001 0.88232869 0.31292024 0.35153523 0
22.9417 -31.0186 437.83899 0.73308867 -0.053808976 0.67800117 0
23.006399 9.9308996 427.67099 0.96109337 0.27092206 -0.053858776 0
23.062099 -31.6912 437.345 0.84848088 -0.27395409 0.45280167 0
23.0791 9.3308401 427.672 0.95937026 0.27022147 -0.081173122 0
23.1399 8.9561005 427.74701 0.97545701 0.21745078 -0.034623574 0
23.2647 -31.0539 437.34299 0.92551279 -0.094003655 0.36686426 0
23.2948 7.7519798 428.91299 0.80307376 0.43833765 0.40364921 0
23.3974 8.2795801 428.272 0.86902964 0.1797788 0.46094152 0
23.398001 8.8063698 428.26999 0.90317541 0.34172586 0.25980291 0
23.522499 7.3789201 428.953 0.82803535 0.41048855 0.38191178 0
23.5532 7.8287401 428.569 0.99817401 -8.336149e-05 0.060403466 0
23.557699 -30.1931 437.26901 0.97070283 -0.21017472 0.11645844 0
23.5858 -29.741699 437.35199 0.85194403 -0.18454275 0.49003607 0
23.5858 -28.694599 437.36301 0.79110235 0.10761081 0.60214365 0
23.5858 -29.741699 437.35199 0.85194403 -0.18454275 0.49003607 0
23.8307 5.8814201 428.87 0.9866792 -0.16145159 -0.019937087 0
23.8529 -29.0686 436.745 0.91555613 -0.3792347 0.13393283 0
23.8571 6.40626 428.948 0.99336058 -0.01619762 0.11389647 0
23.9247 -28.7673 436.67001 0.9529354 -0.28406528 0.10592951 0
24.017799 -28.167101 436.819 0.86586374 -0.24768576 0.43466279 0
24.0266 4.30054 429.87299 0.78958672 0.3356272 0.51371896 0
24.056 4.9782701 429.39301 0.94795847 0.31224346 0.062279783 0
24.0735 -27.8857 436.70499 0.99376029 -0.10217652 0.044725846 0
24.124001 -27.567801 436.745 0.9838801 -0.010476994 0.17852211 0
24.1313 3.70331 430.078 0.75317138 0.45130962 0.47859427 0
24.1334 3.4812801 429.47 0.99057329 0.13617077 -0.014903001 0
24.1373 1.90487 430.72601 0.80753726 0.24049154 0.53856045 0
24.1668 1.679 430.789 0.84184039 -0.076083861 0.53433692 0
24.174601 -26.6682 436.785 0.82109118 -0.019846138 0.57045197 0
24.179399 3.78111 429.58499 0.99074632 0.13454017 -0.017907398 0
24.1803 -26.368601 436.789 0.8462944 0.27139941 0.45839736 0
24.346001 1.38144 430.07101 0.95054239 -0.0076955794 0.31049952 0
24.3634 -5.3685498 431.121 0.91851336 -0.1216673 -0.37620506 0
24.371901 1.00635 430.146 0.89061558 0.43027723 0.14719157 0
24.3946 -26.3678 436.146 0.95977366 -0.27393153 0.06161179 0
24.4079 2.2816801 430.073 0.99807322 0.032477591 0.052868675 0
24.418501 -5.5181799 431.27301 0.92222726 -0.13447054 -0.36251149 0
24.431 2.5063601 430.07199 0.99291956 0.10027986 -0.063676432 0
24.4844 -4.6178899 431.27399 0.90328115 -0.059893083 -0.42484814 0
24.5217 -6.2698398 431.79001 0.91030657 -0.090597659 -0.40389851 0
24.5226 -25.692499 436.14499 0.96601266 -0.13737334 0.21897061 0
24.5364 -0.043550499 430.59698 0.99263775 -0.12090652 0.007203259 0
24.5826 -5.8967199 431.85599 0.90925789 -0.11306784 -0.40058175 0
24.583599 -22.469601 436.19299 0.83262068 -0.31456649 0.45584074 0
24.612 0.405294 430.74701 0.94771177 -0.11976064 0.29580358 0
24.627899 -9.1547203 432.99799 0.90613288 -0.053958636 -0.4195374 0
24.636299 0.25293499 430.966 0.94771177 -0.11976064 0.29580358 0
24.638201 -5.5947499 431.94101 0.91352534 -0.098501123 -0.39467573 0
24.6448 -2.2952299 431.867 0.91301745 0.17651419 0.36775246 0
24.684601 -1.69818 431.55899 0.99778873 0.021721549 -0.062815458 0
24.701099 -16.525101 435.28201 0.7039035 0.10469617 0.70253724 0
24.7167 -4.9985099 432.57501 0.8326503 0.34596795 0.43243453 0
24.719299 -4.5816598 431.79401 0.96038944 0.23316194 -0.15260305 0
24.73 -22.168699 436.077 0.92428535 -0.057355903 0.37736836 0
24.733601 -19.694201 435.785 0.70173073 0.088245519 0.70695597 0
24.735901 -17.369499 435.40799 0.84494901 0.0035838608 0.53483486 0
24.737101 -22.3939 436.09601 0.92428535 -0.057355903 0.37736836 0
24.7374 -18.4191 435.57199 0.92044622 0.13163565 0.36803642 0
24.737801 -17.6691 435.45901 0.84494901 0.0035838608 0.53483486 0
24.7414 -23.8188 436.07001 0.90957218 0.0012956875 0.41554388 0
24.7418 -20.2185 435.80701 0.68201381 0.026046749 0.73087531 0
24.7568 -4.88167 431.98099 0.99393517 -0.079240814 -0.076248057 0
24.7584 -7.6539402 432.54999 0.92664963 -0.26818657 -0.26343194 0
24.7591 -4.76966 432.50299 0.98283076 0.12607656 0.13471586 0
24.7729 -5.2942801 432.61301 0.99096125 0.050688583 -0.12420312 0
24.7854 -12.9437 433.74899 0.95603848 0.091466427 -0.27861148 0
24.7892 -23.218599 436.06799 0.82187492 0.049623258 0.5675025 0
24.790199 -14.8952 434.97501 0.79511172 0.25836018 0.54867786 0
24.792601 -7.0182099 432.47501 0.93968117 -0.073540777 -0.33405244 0
24.8263 -12.4937 434.371 0.99925023 -0.017919371 0.034320727 0
24.8353 -9.7226496 433.79999 0.98096025 -0.11696518 -0.15503585 0
24.8363 -9.4953003 433.76599 0.96932721 0.030113384 0.24392191 0
24.8377 -7.0954599 433.15799 0.96588558 0.22096424 0.13505499 0
24.8426 -12.6449 434.366 0.99925023 -0.017919371 0.034320727 0
24.8503 -6.1177802 432.47601 0.95597756 -0.21965025 -0.19457832 0
24.8536 -15.1195 434.96301 0.79511172 0.25836018 0.54867786 0
24.860399 -22.4688 435.54401 0.88495511 -0.42685562 0.18614177 0
24.868401 -15.6434 434.98801 0.86673284 -0.20885275 0.45294011 0
24.869301 -15.9427 434.198 0.97039855 -0.015561232 -0.24100718 0
24.871099 -8.9678802 433.19601 0.93308288 -0.23508887 -0.27219406 0
24.893801 -3.71591 431.87399 0.99311608 -0.037549883 0.11095275 0
24.8962 -5.89364 432.47 0.96937478 0.11948013 -0.21456234 0
24.8993 -19.844 435.54901 0.69131315 0.099389516 0.71568698 0
24.9028 -22.093201 435.54501 0.93404752 -0.02028233 0.35657236 0
24.9282 -11.2185 433.67001 0.93516064 -0.29543951 -0.19542275 0
24.942801 -19.093599 434.94501 0.98894495 0.023300121 0.14644113 0
24.9438 -21.493299 435.47 0.9848361 0.040300544 0.1687416 0
24.9438 -15.568 434.27301 0.98819911 -0.13202332 -0.077668115 0
24.9438 -21.493299 435.47 0.9848361 0.040300544 0.1687416 0
24.9571 -20.818899 435.46899 0.99018824 0.12297976 0.066356979 0
24.966 -19.6187 435.46899 0.68774682 0.04491473 0.72455984 0
24.976801 -17.5937 434.944 0.77812237 0.57961971 0.24200541 0
24.985399 -16.6187 434.87 0.89197731 0.02876031 0.45116439 0
24.9916 -14.2937 434.26999 0.99337739 0.089112699 -0.072528087 0
24.991699 -14.8184 434.272 0.99892521 0.046213441 -0.00356432 0
24.992201 -17.3687 434.87 0.77812237 0.57961971 0.24200541 0
25.0035 -13.6187 434.26999 0.96766138 0.22123413 -0.12118939 0
