# .PCD v0.7 - Point Cloud Data file format
VERSION 0.7
FIELDS x y z normal_x normal_y normal_z curvature
SIZE 4 4 4 4 4 4 4
TYPE F F F F F F F
COUNT 1 1 1 1 1 1 1
WIDTH 1163
HEIGHT 1
VIEWPOINT 0 0 0 1 0 0 0
POINTS 1163
DATA ascii
-12.3644 35.9697 370.681 -0.97805983 -0.17621398 -0.11111953 0
-12.2625 36.491199 370.67401 -0.98969221 0.13244289 0.054481562 0
-12.2581 35.144699 370.681 -0.97389477 0.11645794 -0.19485 0
-12.236 34.693401 371.276 -0.99716431 -0.022164635 0.071916781 0
-12.1531 33.456699 371.35199 -0.99805373 -0.061960083 0.0070491023 0
-12.1433 35.626701 371.16599 -0.87777978 0.046010431 0.47684976 0
-12.1372 37.241699 370.60101 -0.96893811 0.17546399 0.17427379 0
-12.1253 36.794701 370.077 -0.90210724 0.051318806 -0.42844945 0
-12.1018 36.9814 370.754 -0.96655726 0.18048289 0.18218933 0
-12.0762 36.719501 370.905 -0.84113759 0.11345383 0.52878708 0
-12.0596 36.343899 370.10199 -0.85816365 -0.15726267 -0.48869577 0
-12.0495 34.216 370.70599 -0.91384053 -0.052673493 -0.40264252 0
-12.0433 32.895901 371.28 -0.99037218 -0.13587266 -0.02648627 0
-12.0234 36.0779 371.151 -0.77378774 0.22203562 0.593256 0
-12.0061 37.749599 370.07999 -0.81367272 0.50917464 -0.28049582 0
-11.9906 37.760502 369.935 -0.81367272 0.50917464 -0.28049582 0
-11.9835 33.270199 370.98099 -0.82246435 -0.25129378 -0.51029783 0
-11.9464 32.539101 371.242 -0.98249102 -0.091165587 -0.16248146 0
-11.8968 36.942101 371.198 -0.87156016 0.068088114 0.48553771 0
-11.867 37.759899 370.672 -0.74389529 0.59011906 0.31365466 0
-11.8649 32.1451 371.28 -0.8004505 -0.46658185 -0.37627169 0
-11.8526 35.968399 371.35101 -0.78545821 0.23278621 0.57346839 0
-11.7975 36.268299 371.34201 -0.82589024 0.072791971 0.55911237 0
-11.771 37.390499 371.27301 -0.84934765 0.38802728 0.35783157 0
-11.7703 31.542801 371.87601 -0.99073952 -0.12460718 0.053927671 0
-11.7572 30.9438 371.87799 -0.99759781 -0.067619979 0.015037677 0
-11.7041 38.070499 370.151 -0.57084703 0.81383562 -0.10865197 0
-11.6721 30.3447 371.98999 -0.957524 -0.25725958 -0.13025086 0
-11.5946 31.357201 371.26001 -0.86182177 -0.13320412 -0.48940769 0
-11.5744 37.908001 369.59201 -0.5729239 0.43594515 -0.69405335 0
-11.5252 30.795401 371.396 -0.79913676 -0.24724676 -0.54795027 0
-11.5232 37.391102 371.83701 -0.86304748 0.27271128 0.42517945 0
-11.4789 36.342999 371.875 -0.90561986 0.052764263 0.42079517 0
-11.4776 36.830898 371.95099 -0.94774646 -0.033849519 0.31722367 0
-11.465 29.5553 372.552 -0.9800238 -0.12813848 0.15209816 0
-11.447 37.318001 372.10101 -0.95685875 0.23271011 0.17397515 0
-11.4427 29.4447 371.879 -0.96483588 0.14180653 -0.22132008 0
-11.411 37.167801 372.17401 -0.94269872 -0.011059726 0.33346179 0
-11.4073 37.930698 371.198 -0.71296918 0.64206111 0.28183767 0
-11.4031 38.1772 370.59799 -0.53590196 0.80228096 0.26297212 0
-11.3934 28.9928 372.47699 -0.9777236 -0.20252311 0.055145115 0
-11.3787 30.3463 371.422 -0.80330008 -0.28445381 -0.52325422 0
-11.3423 29.1443 371.87799 -0.98802423 -0.076938532 -0.13374831 0
-11.2686 37.745499 371.798 -0.68307388 0.62597275 0.37625557 0
-11.2621 37.938999 371.35101 -0.71348703 0.60302633 0.35678491 0
-11.2589 38.301201 369.853 -0.56289047 0.80551547 -0.18520027 0
-11.2245 28.169399 372.47699 -0.97321886 -0.2111086 -0.090984389 0
-11.1892 38.2752 370.64001 -0.4570156 0.86754143 0.19623603 0
-11.1754 38.256302 369.46201 -0.50452244 0.51202679 -0.69518751 0
-11.0639 27.494301 372.479 -0.95876122 -0.25795063 -0.119325 0
-11.0367 37.830101 371.98901 -0.56726158 0.82047331 0.07097815 0
-10.9716 26.8944 372.48099 -0.86307889 -0.37291679 -0.34062865 0
-10.9577 37.819698 372.36301 -0.59964401 0.77173811 0.21177211 0
-10.9518 38.438 369.483 -0.41050166 0.88350171 -0.22563925 0
-10.9499 28.243 371.85999 -0.81707889 -0.18568628 -0.54580468 0
-10.9236 38.4557 370.00201 -0.4563739 0.88978165 0.0033943281 0
-10.9154 26.293301 373.07599 -0.99045128 -0.065975145 0.12105181 0
-10.9018 25.6936 373.07401 -0.99462736 -0.052158173 0.089420184 0
-10.8872 38.4268 370.60199 -0.33764437 0.92814296 0.15667447 0
-10.8833 25.9195 372.534 -0.98274589 -0.08132486 -0.16612275 0
-10.8739 25.038099 373.11401 -0.99400342 0.091450609 0.059949487 0
-10.8616 25.770201 372.53601 -0.9693808 -0.11198108 -0.2185431 0
-10.8376 22.9188 373.67801 -0.91108692 0.0041611306 -0.4121933 0
-10.8277 21.5679 374.12601 -0.9915027 0.026262362 0.12740764 0
-10.8206 24.905899 373.29901 -0.99400342 0.091450609 0.059949487 0
-10.8162 21.717899 374.12399 -0.9915027 0.026262362 0.12740764 0
-10.814 24.4944 373.04099 -0.98860776 -0.036363423 -0.14605613 0
-10.8026 23.667601 373.526 -0.96504664 0.11365332 -0.2361522 0
-10.8 23.1441 373.67801 -0.9332034 0.070050731 -0.35245472 0
-10.7976 24.2701 373.07999 -0.83461916 -0.53864849 -0.11518965 0
-10.7944 26.894699 372.18201 -0.79981565 -0.14332627 -0.58288288 0
-10.7897 -2.65574 385.07901 -0.97084177 -0.076550908 -0.22717015 0
-10.7884 25.244301 372.60199 -0.87332237 -0.25597057 -0.41447201 0
-10.7743 26.145399 372.362 -0.88447225 0.12517089 -0.4494898 0
-10.7612 24.982401 372.70599 -0.90695757 -0.14036334 -0.39714742 0
-10.7478 27.1952 372.03299 -0.75617516 -0.23410921 -0.61105812 0
-10.7473 20.817801 374.34799 -0.99813217 -0.029047746 0.053743575 0
-10.7458 -3.25565 385.078 -0.9790507 -0.12217308 -0.16289112 0
-10.7383 -1.38363 384.54901 -0.97129571 0.032092106 0.23570055 0
-10.7201 27.6441 371.85199 -0.81762284 -0.26694855 -0.5101288 0
-10.697 -1.98088 384.40302 -0.9657672 -0.12625177 -0.22661468 0
-10.6753 -1.0058399 384.478 -0.99307102 0.054208148 -0.10426626 0
-10.6614 38.567699 369.552 -0.33654249 0.92086512 -0.19684155 0
-10.66 23.5187 373.095 -0.97882801 -0.13202597 -0.1564126 0
-10.6588 21.9447 373.61099 -0.99450397 -0.040804215 -0.096420348 0
-10.657 -0.63188201 383.953 -0.99371558 0.024908038 -0.10912795 0
-10.6551 -4.0062299 385.67801 -0.98962963 0.053572137 -0.13327894 0
-10.6365 -0.183167 383.95001 -0.97959358 0.20046838 0.014450926 0
-10.6309 19.0186 374.87799 -0.98011637 0.025283117 0.19680609 0
-10.6111 38.358101 369.10999 -0.61634588 0.45572132 -0.64221168 0
-10.6096 1.3175499 382.75201 -0.99347162 0.10528693 0.043918051 0
-10.6072 0.56777602 383.35101 -0.99671572 -0.080242217 0.010906733 0
-10.6056 19.693501 374.87601 -0.99541509 0.090670489 -0.030457448 0
-10.6005 -4.6066098 385.67599 -0.98048526 -0.18555813 -0.064937599 0
-10.5942 -3.9263201 385.19601 -0.97024709 -0.19098718 -0.14881018 0
-10.5919 0.87101698 382.68201 -0.9380002 -0.14211698 -0.31616199 0
-10.5867 25.132099 372.49399 -0.87332237 -0.25597057 -0.41447201 0
-10.5802 20.2554 374.79999 -0.97739774 0.093798429 0.18946108 0
-10.5786 -3.55669 385.754 -0.97227961 -0.0019877115 0.23381272 0
-10.57 27.212999 371.85199 -0.75617516 -0.23410921 -0.61105812 0
-10.5535 23.116301 373.12701 -0.73903108 -0.32549211 -0.58982027 0
-10.5477 19.8071 374.28101 -0.85973132 0.0071847313 -0.51069599 0
-10.5439 18.194401 374.96301 -0.78688943 -0.32004869 -0.52761149 0
-10.539 26.8561 371.94299 -0.74655229 -0.25722954 -0.61358994 0
-10.5348 1.91714 382.75101 -0.97302723 0.17599078 0.14914836 0
-10.5333 -5.2815399 386.27899 -0.9982177 0.023586607 -0.054818686 0
-10.5134 2.3677399 382.15302 -0.98903126 0.091296211 -0.11611264 0
-10.5022 16.9186 375.552 -0.92057139 -0.03119312 -0.38932678 0
-10.497 17.9699 374.98599 -0.80013269 -0.28151393 -0.52965796 0
-10.4899 -5.6549401 386.35101 -0.97526819 -0.21934272 0.02721606 0
-10.4788 2.6664901 382.077 -0.99101448 0.13144402 0.024753381 0
-10.4762 15.5697 376.07901 -0.97220862 -0.18393853 -0.14483438 0
-10.4751 38.1931 371.35199 -0.2387819 0.88902611 0.39066076 0
-10.4738 1.69326 382.15201 -0.9168852 -0.14905314 -0.37027648 0
-10.4486 9.5708199 378.48099 -0.991759 -0.013284225 -0.12742686 0
-10.4448 13.7689 376.67801 -0.80107957 -0.47598436 -0.36291933 0
-10.4373 14.1442 376.67999 -0.94965518 0.0012576464 -0.31329459 0
-10.4372 38.059101 371.80099 -0.29490167 0.92376417 0.24432114 0
-10.4336 12.5685 377.35199 -0.99582309 0.065548167 0.063559979 0
-10.4325 3.2711699 381.483 -0.97197038 -0.023412395 -0.2339346 0
-10.4204 3.9427199 381.47601 -0.98288625 0.15280469 0.10288521 0
-10.4193 11.1441 377.879 -0.99213254 0.11624712 -0.046471085 0
-10.4084 10.7703 377.88 -0.93151927 -0.19620648 -0.30622688 0
-10.3993 4.6932702 380.87701 -0.98499006 -0.11864129 -0.12537464 0
-10.3846 16.465099 375.50601 -0.83853716 -0.27076593 -0.47280151 0
-10.3838 9.9439297 378.478 -0.97778368 0.17954823 0.10817327 0
-10.3778 8.7436199 379.077 -0.99052596 0.016516687 -0.13632891 0
-10.3679 4.2420201 381.47501 -0.9806121 0.16554019 0.10486349 0
-10.3675 11.7425 377.875 -0.99428624 0.10317016 0.027399952 0
-10.3622 38.486 370.90201 -0.22480203 0.82939875 0.5114311 0
-10.3615 7.1693902 379.67801 -0.99041289 -0.1380568 0.0047608744 0
-10.3397 8.0757999 379.08899 -0.97633499 -0.2007042 -0.080547042 0
-10.3367 5.7439399 380.27802 -0.95593506 -0.19492769 -0.21952537 0
-10.3343 10.2432 378.478 -0.92780536 0.32078919 -0.1904507 0
-10.3285 9.0431099 379.077 -0.97095907 0.23724456 -0.030877991 0
-10.3273 14.7055 376.789 -0.96106589 0.0068320222 -0.27623481 0
-10.3104 -6.1807699 386.31699 -0.92069685 -0.3267242 -0.21346788 0
-10.307 4.1690402 380.879 -0.87196076 -0.30961868 -0.37923697 0
-10.2988 -7.68578 387.61801 -0.96906966 0.14155212 -0.20215586 0
-10.2975 7.2427101 379.97601 -0.99041289 -0.1380568 0.0047608744 0
-10.2969 -7.0766301 386.91199 -0.98201704 -0.16311496 -0.095057875 0
-10.2911 -6.1448398 386.94901 -0.99326998 0.017196137 0.11453822 0
-10.2871 38.722198 370.077 -0.37494025 0.91753924 0.13244461 0
-10.283 -6.4078999 387.02301 -0.96380556 0.16488387 0.20950444 0
-10.2778 15.9467 375.59601 -0.82300651 -0.18158203 -0.5382269 0
-10.2772 -6.9372101 387.20901 -0.97366303 -0.12790984 0.18873096 0
-10.2771 -7.75 387.48199 -0.86118537 -0.33107913 -0.38567656 0
-10.2564 11.5205 377.29099 -0.91245377 -0.11046001 -0.39398825 0
-10.2514 7.69733 379.17499 -0.87095243 -0.3366673 -0.35790637 0
-10.2274 -8.1269503 387.789 -0.88898468 -0.42328715 -0.17474045 0
-10.216 -7.2234201 386.91599 -0.95317882 -0.28240234 -0.10816216 0
-10.2121 38.618801 370.75101 -0.27756476 0.89660496 0.34504685 0
-10.2083 -7.9814901 387.47601 -0.86118537 -0.33107913 -0.38567656 0
-10.2082 11.2201 377.371 -0.78111684 -0.28257471 -0.55678362 0
-10.2075 12.8704 376.71201 -0.78050202 -0.024691768 -0.62466544 0
-10.1997 -6.4733801 386.39499 -0.98468179 -0.070489392 -0.15947722 0
-10.1979 9.0446796 378.37299 -0.85571331 -0.28611392 -0.43115371 0
-10.1968 -7.0715799 386.79901 -0.98201704 -0.16311496 -0.095057875 0
-10.1701 9.8516302 377.95099 -0.85664046 -0.17976165 -0.48358333 0
-10.1654 8.6333904 378.55701 -0.87973189 -0.26245922 -0.39646807 0
-10.1206 6.8311 379.48499 -0.8967492 -0.22423969 -0.38151991 0
-10.1062 7.4328699 379.155 -0.86710638 -0.22553331 -0.444141 0
-10.0989 5.5748 380.048 -0.81862342 -0.33104688 -0.46932253 0
-10.0616 10.2435 377.703 -0.80745381 -0.26609266 -0.52651024 0
-10.0243 -8.20327 387.41199 -0.86118537 -0.33107913 -0.38567656 0
-9.9842701 6.2692199 379.61401 -0.89933538 -0.18446735 -0.39644381 0
-9.8956099 -9.40804 388.07501 -0.93286192 -0.31266063 -0.17891885 0
-9.8684502 -10.3823 388.75101 -0.9947111 0.012374029 -0.10196426 0
-9.8253098 38.9044 368.30899 -0.38778591 0.66602361 -0.63720846 0
-9.7712297 -8.8795099 387.58499 -0.81560946 -0.34423378 -0.46506375 0
-9.74895 -9.7081003 388.74701 -0.96863419 0.15679955 -0.19277376 0
-9.7257795 -10.8243 388.68701 -0.79313046 -0.60312831 -0.084736757 0
-9.71661 -10.6042 389.05801 -0.90409821 -0.38660285 0.18205668 0
-9.6958103 -9.9513903 388.89999 -0.99484271 0.0060722185 -0.101248 0
-9.69102 -11.8819 389.427 -0.91053724 -0.11483319 -0.39715898 0
-9.6375399 -12.0279 389.427 -0.86079472 -0.40464088 0.30870402 0
-9.6374502 -10.1532 388.15799 -0.94759881 -0.12185606 -0.29530928 0
-9.62747 -11.2832 389.349 -0.88128114 0.16126998 -0.4442246 0
-9.6252003 -11.8785 389.27802 -0.91053724 -0.11483319 -0.39715898 0
-9.5639296 -10.9795 388.58801 -0.86906534 -0.26333132 -0.41878644 0
-9.5601501 -11.8708 389.142 -0.82066381 -0.30708817 -0.48187944 0
-9.4709501 -12.3351 389.33499 -0.83142859 -0.37524632 -0.40977645 0
-9.4504499 -11.5053 388.78101 -0.95602793 -0.19425876 -0.21971373 0
-9.4287701 -13.081 389.875 -0.91249847 -0.36933523 -0.17589207 0
-9.2983599 -12.7015 389.39001 -0.90387475 -0.37854496 -0.19928421 0
-9.1316299 39.083199 367.68301 -0.7160902 0.6647445 -0.21290734 0
-9.1192102 -14.2065 390.71301 -0.9817735 -0.014808926 0.18947676 0
-9.1113997 -13.8269 390.52701 -0.99421233 0.09802869 0.043956354 0
-9.0828896 -14.4181 390.48801 -0.90631247 -0.32910872 -0.26511341 0
-9.0615797 -13.754 389.92099 -0.97821999 -0.099752396 -0.18203062 0
-9.0094604 -14.5817 390.95999 -0.89789099 -0.24529812 0.36554152 0
-8.9864798 38.966999 367.492 -0.69922847 0.4341186 -0.56799698 0
-8.8716602 -14.3879 390.23099 -0.80138063 -0.27272105 -0.53236485 0
-8.8530903 -14.7325 391.086 -0.87613887 -0.26098198 0.40530118 0
-8.7296305 -14.9509 390.543 -0.79906088 -0.56984204 -0.19178578 0
-8.7014198 -15.4826 391.07599 -0.95362145 -0.1302159 0.27138516 0
-8.5809097 -16.0819 391.67499 -0.97056919 -0.21282434 -0.11269987 0
-8.52777 39.257198 367.091 -0.73093718 0.4544197 -0.50914985 0
-8.5183096 -16.082399 391.819 -0.96056253 -0.17118552 0.21912351 0
-8.5095196 -15.927 391.08301 -0.85917139 -0.42898616 -0.27891821 0
-8.5054398 -14.8451 391.448 -0.71551788 0.11603211 0.68889093 0
-8.4395504 -16.7549 391.67801 -0.93763524 -0.18526538 -0.29413757 0
-8.4278202 -15.1075 391.599 -0.79808068 0.032744363 0.60166025 0
-8.4165096 -16.6071 391.97198 -0.87036616 -0.0292846 0.49153352 0
-8.4153605 -17.125099 391.98001 -0.96627384 -0.25020817 -0.060915459 0
-8.3973703 -16.002399 391.008 -0.85917139 -0.42898616 -0.27891821 0
-8.3701696 -16.3769 391.233 -0.86708891 -0.33662531 -0.36720589 0
-8.3657799 -15.4036 391.76001 -0.76935983 0.18100931 0.6126346 0
-8.3374596 -17.2794 392.27301 -0.96627384 -0.25020817 -0.060915459 0
-8.2629499 -17.2026 391.69101 -0.88794214 -0.38294342 -0.25478053 0
-8.1775904 -17.726999 392.35199 -0.88670552 -0.45708781 0.069455646 0
-8.1568003 -16.306101 392.31799 -0.81206244 0.11747063 0.57162505 0
-8.0998697 39.657902 367.00299 -0.60868549 0.76443869 -0.2124511 0
-8.0696697 -15.8776 392.328 -0.76841134 0.20419098 0.60650647 0
-8.0108004 -15.4158 392.22198 -0.77851403 0.18818262 0.59875137 0
-7.95016 39.563099 366.56299 -0.71347064 0.43717128 -0.54757732 0
-7.9118099 -17.5814 392.96399 -0.029085916 0.094469234 0.99510282 0
-7.91115 -17.806101 393.022 -0.57117766 -0.20617579 0.79451096 0
-7.89182 -17.055599 392.91 -0.77303737 0.12741575 0.62143254 0
-7.8741102 -18.1987 392.20599 -0.78283316 -0.5620153 -0.26704136 0
-7.8530998 -16.757601 392.87399 -0.75282735 0.15885732 0.63876075 0
-7.8435898 39.709702 366.53601 -0.71347064 0.43717128 -0.54757732 0
-7.81248 -18.1999 393.02701 -0.57117766 -0.20617579 0.79451096 0
-7.7687201 -14.588 392.336 -0.77674419 0.12686104 0.61690742 0
-7.7316098 39.492599 366.45099 -0.71347064 0.43717128 -0.54757732 0
-7.6803098 -15.0711 392.57001 -0.77592373 0.16187415 0.60970414 0
-7.6560798 -18.027201 393.09 -0.57117766 -0.20617579 0.79451096 0
-7.6463399 39.9179 366.57101 -0.63052869 0.70343488 -0.32804418 0
-7.6054802 -15.8147 392.87299 -0.76337761 0.18096492 0.62008572 0
-7.3675699 -17.2782 393.474 -0.67863923 -0.12794675 0.72324163 0
-7.2715302 -16.756599 393.54001 -0.65345418 -0.2021807 0.72946596 0
-7.26717 -15.0311 393.06699 -0.78509623 0.13694002 0.60404581 0
-7.2469702 40.4617 366.47699 -0.9151203 0.35491198 -0.19129123 0
-7.1700001 -15.8573 393.39999 -0.7966494 0.16731533 0.58082294 0
-7.0534801 -15.492 393.45499 -0.81402802 0.14097083 0.56345862 0
-6.9289098 40.9011 366.32501 -0.71845287 0.68978703 -0.089550473 0
-6.8797698 40.727798 365.93201 -0.83944291 0.19898769 -0.50570691 0
-6.8337202 -16.604099 394.11499 -0.6328364 -0.21698296 0.74326074 0
-6.6149702 41.247501 365.87701 -0.80321407 0.59529722 -0.021641511 0
-6.6119099 -18.6178 391.52701 -0.32166305 -0.88772398 -0.3293615 0
-6.5048499 41.325001 365.655 -0.83193654 0.31396422 -0.45750201 0
-6.2351999 -18.4746 391.07901 -0.41149989 -0.84892583 -0.3316516 0
-6.1971102 41.655998 365.28101 -0.81364858 0.44479272 -0.37434667 0
-6.01057 -18.6057 391.228 -0.27640268 -0.9583149 0.072346814 0
-5.8691201 41.992001 365.202 -0.6689744 0.73615003 -0.10274434 0
-5.8611598 -18.6001 391.22699 -0.24160327 -0.90601838 0.3475033 0
-5.7324901 41.956902 364.69101 -0.8068884 0.57757431 -0.12385067 0
-5.71279 -18.6042 391.14999 -0.15914984 -0.94230962 -0.2944892 0
-5.6373701 42.199402 365.202 -0.68025559 0.72584003 -0.1020226 0
-5.3173599 42.562302 364.37799 -0.74948096 0.65107226 -0.1199298 0
-5.26649 42.6059 364.603 -0.74948096 0.65107226 -0.1199298 0
-5.2585902 -18.5193 390.418 -0.66433001 -0.74394441 -0.07219661 0
-5.1966901 42.417 364.15701 -0.73655015 0.10440444 -0.66827655 0
-4.9907298 42.873501 364.16 -0.78738493 0.54329318 -0.29130307 0
-4.67519 43.192699 363.935 -0.671498 0.72387856 -0.15839905 0
-4.6539202 43.222599 364.15399 -0.64999658 0.73260182 -0.20198782 0
-4.49825 43.0159 363.599 -0.71152341 0.062812179 -0.69984931 0
-4.21766 43.466999 363.535 -0.64432681 0.56850177 -0.51151609 0
-4.0769 43.763901 363.48099 -0.717085 0.65168595 -0.24717307 0
-4.0658798 -18.688801 390.16901 -0.39887425 -0.91305178 -0.085063271 0
-4.05583 -18.7384 389.88599 -0.018796606 -0.93920213 -0.34284982 0
-3.8754699 43.111698 363.23099 -0.65782076 0.0048344173 -0.75315899 0
-3.75302 44.085701 363.40601 -0.6980679 0.67896414 -0.22739591 0
-3.6021299 43.693298 362.99799 -0.71365768 0.14579202 -0.68515503 0
-3.5952301 43.915501 362.98901 -0.59236419 0.42669725 -0.68339896 0
-3.53143 44.291599 363.40201 -0.68821812 0.70313048 -0.17878303 0
-3.4592199 43.5438 362.92899 -0.6507358 0.17730141 -0.73831373 0
-3.3831899 -18.615801 389.30399 -0.49445131 -0.86818153 0.042174712 0
-3.3145399 44.4594 363.40201 -0.73941338 0.66467416 -0.10712674 0
-2.88942 44.875 362.952 -0.66484892 0.73372763 -0.14007035 0
-2.8560801 -18.862801 389.28 -0.13785948 -0.98965889 -0.039623305 0
-2.70802 45.046902 362.72699 -0.48590484 0.79774255 -0.35707611 0
-2.7052 -18.577499 388.79599 -0.19813682 -0.93895686 -0.28125051 0
-2.55968 44.8927 362.36401 -0.73644412 0.15343358 -0.65886885 0
-2.4833 -18.742399 388.78299 -0.19813682 -0.93895686 -0.28125051 0
-2.3457301 44.3964 362.26599 -0.60842979 0.14505182 -0.78023916 0
-2.3396299 -18.7547 389.42099 0.050751019 -0.98991621 0.1322508 0
-2.33707 44.743099 362.229 -0.60306817 0.15304701 -0.78286999 0
-2.15064 45.555199 362.28799 -0.93135792 0.097999156 -0.35066885 0
-2.10322 -18.919901 388.76901 -0.19146165 -0.98134249 -0.017588953 0
-1.9921499 45.7342 362.27802 -0.87441504 0.30870056 -0.37430242 0
-1.73908 -18.7759 389.19501 -0.1527542 -0.96318537 0.22122413 0
-1.69502 45.194199 361.84698 -0.66739315 0.17938815 -0.72277677 0
-1.5862 45.493301 361.745 -0.82692486 0.072852932 -0.55757302 0
-1.57856 46.157101 361.763 -0.81111223 0.27994159 -0.51354617 0
-1.28704 -19.0331 388.67499 -0.24954095 -0.96832764 -0.0084192939 0
-1.24778 46.6194 361.67801 -0.79092425 0.55227095 -0.26350641 0
-1.1378599 46.017799 361.43399 -0.7501958 0.24050537 -0.61592489 0
-0.97483402 46.916599 361.603 -0.7891205 0.43811104 -0.43052009 0
-0.90630299 -19.034901 388.086 -0.34435329 -0.93477422 -0.087281235 0
-0.90544897 46.6175 361.19199 -0.74151266 0.3555057 -0.56901205 0
-0.63624197 47.060299 361.116 -0.75511259 0.26246378 -0.60076433 0
-0.550583 47.3592 361.23401 -0.74028379 0.26204875 -0.6191206 0
-0.53304702 -19.081301 387.91501 -0.098019235 -0.93928349 -0.32884467 0
-0.49360701 47.363602 361.07501 -0.51918459 0.21478863 -0.8272323 0
-0.455147 -19.2034 388.08301 -0.1506315 -0.96087998 0.2324215 0
0.135708 47.292702 360.72601 -0.53610861 0.27595943 -0.79776806 0
0.138363 -19.231199 388.07101 -0.049417369 -0.99304706 0.10684339 0
0.214893 -19.128099 387.53699 -0.25972143 -0.92909664 -0.26329497 0
0.44102901 47.891998 360.56799 -0.65681326 0.11129796 -0.7457943 0
0.443874 48.264198 360.59299 -0.76409632 0.14050902 -0.62961417 0
0.593575 -19.321699 387.47699 -0.19834411 -0.97659594 -0.08318612 0
0.60405302 48.405602 360.55399 -0.98665506 0.15531182 -0.04888764 0
0.74921 48.609501 360.591 -0.80625117 0.55477679 -0.20538203 0
1.18918 -19.494801 387.478 -0.086211681 -0.97213888 -0.21797591 0
1.72141 -19.500299 386.996 -0.30461416 -0.87922895 -0.36628774 0
1.8180799 49.7603 360.32901 -0.88353646 0.41882545 -0.20963921 0
1.86467 49.092899 360.03299 -0.57739085 0.19604099 -0.79258293 0
2.0924301 49.7654 359.94901 -0.69787955 0.18707381 -0.69135195 0
2.1703899 -19.59 386.88501 -0.40991053 -0.87355733 -0.26243281 0
2.5415101 50.2155 359.77899 -0.55788839 0.4837831 -0.67432517 0
2.78722 50.658401 359.845 -0.65695196 0.52145088 -0.54452097 0
2.8417001 -19.7864 386.87299 -0.2231802 -0.92783159 -0.29886314 0
3.0306699 50.928001 359.76401 -0.57220256 0.52551544 -0.62961715 0
3.0643301 -19.785999 386.92099 -0.14519545 -0.95801246 -0.2472457 0
3.2890999 -19.8097 386.89999 -0.14519545 -0.95801246 -0.2472457 0
3.44561 -19.804701 386.396 -0.14646046 -0.94625288 -0.28836569 0
3.62693 -19.829599 386.905 0.091698304 -0.98617506 0.13802242 0
3.6428101 51.416401 359.51999 -0.64744872 0.33773246 -0.6831888 0
3.9670401 51.490501 359.36401 -0.64824945 0.45437065 -0.61099917 0
4.1176 -19.962999 386.28601 -0.36230248 -0.83744973 -0.40916365 0
4.1917901 51.939602 359.37601 -0.4591555 0.32550028 -0.82657474 0
4.2272902 52.128601 359.564 -0.8090542 0.49211097 -0.32133803 0
4.2663398 51.4925 359.26401 -0.4591555 0.32550028 -0.82657474 0
4.45644 52.167 359.33301 -0.45238623 0.32638025 -0.82995337 0
4.7856498 -20.2222 386.27701 -0.27704561 -0.91769397 -0.28475162 0
4.7992601 52.669998 359.33801 -0.37413254 0.29700705 -0.87852812 0
4.9387798 52.074001 359.11099 -0.37416568 0.29744485 -0.87836587 0
5.01753 52.915901 359.353 -0.27459678 0.79084951 -0.54694939 0
5.5416799 -20.399401 386.30099 -0.23740116 -0.95743281 -0.16420463 0
5.61589 53.389999 359.07199 -0.47498596 0.33007717 -0.81574345 0
5.6902599 -20.428699 386.42099 -0.22916865 -0.96106702 -0.15437597 0
5.9155998 -20.525999 386.276 -0.22916865 -0.96106702 -0.15437597 0
6.1601701 53.980598 359.056 -0.69994056 0.59321344 -0.39771983 0
6.3405499 53.871498 358.75699 -0.586308 0.50973243 -0.6296156 0
6.3522301 54.185799 359.203 -0.64844918 0.68819505 -0.32542476 0
6.4397898 -20.5886 386.27399 -0.049301092 -0.98154879 0.18474671 0
6.4944501 54.109901 358.75201 -0.586308 0.50973243 -0.6296156 0
6.5138102 -20.5779 385.77499 -0.23346946 -0.90136242 -0.36474353 0
6.6223698 54.2691 358.73901 -0.48822793 0.68233973 -0.54410112 0
6.7423801 -20.6586 385.79901 -0.31722939 -0.856893 -0.40632492 0
6.7582698 -20.629499 386.30801 0.10674954 -0.96777087 0.22808792 0
7.0448899 54.6903 358.75299 -0.62255764 0.67568427 -0.39480719 0
7.4127302 54.492199 358.397 -0.50607044 0.36916426 -0.77949375 0
7.4899502 55.061501 358.67401 -0.61372977 0.66993451 -0.41776016 0
7.7135401 -21.017099 385.828 -0.25724456 -0.92846543 0.2679126 0
7.7922702 -20.9076 385.68399 -0.25724456 -0.92846543 0.2679126 0
7.8621202 55.055302 358.33301 -0.40702492 0.53452206 -0.74068677 0
8.0162497 -20.968901 385.67999 -0.045557059 -0.99393398 0.10009883 0
8.3120604 55.806702 358.52701 -0.48316291 0.73326284 -0.47841328 0
8.3889799 -21.0679 386.12299 -0.31214911 -0.906048 0.28572702 0
8.5965595 -20.951599 385.39999 -0.30900839 -0.8620193 -0.40179172 0
8.8448296 -21.261 385.68301 -0.42126349 -0.90649194 -0.028451147 0
9.1764898 56.361801 358.26099 -0.55550057 0.58142543 -0.59444392 0
9.4417896 56.363899 358.14401 -0.40655112 0.61950982 -0.67150861 0
9.5375996 56.510899 358.155 -0.50348824 0.57909775 -0.6412062 0
9.6644497 -21.489599 385.78699 -0.25935531 -0.95033765 0.17202672 0
9.8889198 56.907101 358.15799 -0.46260589 0.72922051 -0.50421548 0
10.0486 57.045399 358.17099 -0.41437969 0.76133865 -0.49865112 0
10.1146 -21.634701 385.60199 -0.2711238 -0.96253484 -0.004309535 0
10.4137 56.891899 357.98401 -0.34204471 0.53465205 -0.77275652 0
10.4154 -21.5972 385.349 -0.18439026 -0.9444809 -0.2719487 0
10.6768 57.543999 358.15601 -0.66341192 0.63571411 -0.39465457 0
10.7917 -21.8241 385.67801 -0.29550359 -0.92051965 -0.25558013 0
10.9475 57.557999 357.91599 -0.65593803 0.43824053 -0.61456531 0
11.0933 -21.920601 385.74899 -0.2734215 -0.95770925 0.089630768 0
11.3889 58.073601 358.056 -0.66360354 0.71259576 -0.22767872 0
11.5445 58.160999 357.90399 -0.53763521 0.70116788 -0.46830758 0
11.6896 -22.065599 385.75 -0.30622661 -0.9382512 0.16096555 0
11.8432 58.479801 358.15302 -0.4746941 0.80724943 -0.35073328 0
12.0661 58.165298 357.70499 -0.55816734 0.41567668 -0.7180962 0
12.0746 58.659801 358.08099 -0.62086099 0.69680053 -0.35916659 0
12.1409 -22.1682 385.677 -0.21884261 -0.94201756 0.25438336 0
12.4388 -22.2449 385.82501 -0.27184764 -0.94389969 -0.1874892 0
12.5516 59.010201 358.17099 -0.51609516 0.80723697 -0.2863813 0
12.5925 -22.3237 385.67499 -0.27184764 -0.94389969 -0.1874892 0
12.6647 -22.195101 385.198 -0.30995297 -0.89026284 -0.33370838 0
12.7422 58.763802 357.60501 -0.5071761 0.49301448 -0.70690107 0
12.8152 59.198399 358.11499 -0.62449348 0.74578768 -0.23196696 0
13.0396 59.0662 357.56299 -0.68004006 0.5669536 -0.46487534 0
13.1126 -22.231701 385.12701 -0.1827248 -0.90826076 -0.37639618 0
13.1131 59.405602 358.077 -0.61279607 0.74491781 -0.26377717 0
13.1167 -22.4627 385.67499 -0.085737266 -0.98820466 0.12688838 0
13.2449 59.214401 357.543 -0.4701159 0.66787463 -0.57700473 0
13.3432 59.4198 357.59399 -0.38457701 0.75483495 -0.53134239 0
13.87 59.778801 357.46301 -0.50984871 0.69846225 -0.50219995 0
14.3163 -22.7173 385.67599 -0.54950505 -0.83341962 -0.05878669 0
14.3939 60.2033 357.452 -0.61104763 0.65140492 -0.44976929 0
14.5462 60.381401 357.54099 -0.68243873 0.67320693 -0.28472766 0
14.5769 -22.703501 385.302 -0.28925258 -0.89496988 -0.33964962 0
14.9184 -22.9394 385.67499 -0.23778635 -0.93354851 -0.2682254 0
14.9909 60.713699 357.478 -0.44146281 0.81506962 -0.3751961 0
15.1363 -22.760799 385.17401 -0.11967982 -0.89951193 -0.42018443 0
15.1415 -22.959299 385.76599 -0.040636878 -0.9768182 0.21017797 0
15.8874 61.266499 357.47699 -0.44950637 0.85043955 -0.27330685 0
16.1905 -23.2694 385.67599 -0.30252251 -0.79468709 -0.52626282 0
16.6441 61.606098 356.96201 -0.40153784 0.51812816 -0.75518906 0
16.717899 -23.396999 385.67599 -0.21349607 -0.88291216 -0.41819322 0
16.789 -23.4764 385.52701 -0.052797623 -0.89046431 -0.45197979 0
16.865 61.782299 356.98499 -0.63839108 0.4935002 -0.59068978 0
17.0151 -23.264 385.21899 -0.18685855 -0.82569146 -0.5322758 0
17.091101 -23.494499 385.75 -0.18353063 -0.96720207 -0.17560366 0
17.2395 61.954102 356.883 -0.38125786 0.6470319 -0.66029704 0
17.4627 -23.357201 385.22699 -0.18647547 -0.86248487 -0.47047499 0
17.6903 62.2985 356.88699 -0.47096807 0.78108662 -0.40999115 0
17.6908 -23.687799 385.75101 -0.061949 -0.99682426 -0.0500376 0
17.7812 -23.3195 385.14401 -0.12441062 -0.83539695 -0.53538203 0
17.998699 62.556099 356.879 -0.56010538 0.69369781 -0.45284143 0
18.441999 62.887798 356.95499 -0.5902999 0.72461611 -0.35563672 0
18.514 -24.006701 385.52899 -0.77354944 -0.50722057 -0.37993231 0
18.517 -23.9569 385.67499 -0.77354944 -0.50722057 -0.37993231 0
18.7393 62.875401 356.63199 -0.36263701 0.46547565 -0.80735791 0
19.042999 63.278599 356.95401 -0.51572424 0.75246674 -0.40966126 0
19.412701 62.967499 356.479 -0.30613831 0.4181847 -0.85521978 0
19.417801 63.5168 356.95401 -0.35915789 0.76043743 -0.54105502 0
19.714899 63.710999 356.953 -0.51454037 0.78421366 -0.34678105 0
19.7178 -24.264999 385.711 -0.48139817 -0.87646759 0.0077671916 0
19.825701 -23.977501 385.173 -0.45237738 -0.74662071 -0.48776242 0
20.089199 63.5658 356.435 -0.36859316 0.41334745 -0.83263618 0
20.1644 64.016998 356.91501 -0.57749617 0.75971335 -0.29888761 0
20.391701 -24.482401 385.67599 -0.2762728 -0.88154727 0.38281551 0
20.540701 -24.521299 385.67599 -0.25901699 -0.96177334 0.08889477 0
20.6189 64.189499 356.633 -0.38262758 0.58775502 -0.71283954 0
20.838699 63.791 356.392 -0.26351306 0.48114449 -0.83609861 0
20.987301 -24.6399 385.827 -0.14808115 -0.93479878 0.32283619 0
20.9918 -24.642 385.67499 -0.14808115 -0.93479878 0.32283619 0
21.2132 64.091904 356.39099 -0.23808247 0.44633517 -0.86261326 0
21.289801 -24.7267 385.75 -0.38238919 -0.87777144 0.28861019 0
21.5884 -24.8172 385.82599 -0.18243822 -0.9620533 0.20290333 0
21.7428 64.758102 356.5 -0.28126571 0.3438091 -0.89592683 0
22.194901 -24.945999 385.67801 -0.24986438 -0.9681682 -0.014768222 0
22.490999 65.333 356.63501 -0.47004554 0.52227491 -0.71153784 0
22.685101 -24.820299 386.26199 -0.2072327 -0.90135062 0.38029155 0
22.715401 65.628502 356.953 -0.36709386 0.72600704 -0.58151168 0
22.7164 -25.0541 385.67899 -0.43326402 -0.80610776 -0.40307891 0
23.0166 -25.1628 385.672 -0.30834797 -0.91720444 0.25230449 0
23.068701 65.218002 356.466 -0.1786827 0.52422881 -0.83262038 0
23.351601 -25.204599 386.116 -0.44499236 -0.79693282 0.40850937 0
23.3904 -25.390301 385.67599 -0.31323543 -0.94919366 -0.030247744 0
23.6887 65.9674 356.52499 -0.46942201 0.37177643 -0.80089027 0
23.8374 -25.4489 385.78201 -0.066767886 -0.98854005 -0.13539071 0
24.5163 -25.4035 386.271 -0.61910099 -0.76112407 0.1934015 0
24.517 66.8563 356.91599 -0.47818264 0.68216699 -0.55316323 0
24.6632 -25.1514 385.45801 -0.4771871 -0.83905607 -0.26129931 0
25.037701 -25.6369 385.79199 -0.70848376 -0.70569509 0.0067271753 0
25.116199 -25.8011 386.125 -0.64995408 -0.71692437 0.25214911 0
25.119801 67.246902 356.88501 -0.28899333 0.85789043 -0.42486095 0
25.120199 -25.6751 386.26999 -0.64995408 -0.71692437 0.25214911 0
25.3395 -25.7927 385.79599 -0.12634839 -0.99140972 0.033805661 0
25.6467 67.508499 356.91599 -0.32128668 0.6068579 -0.7269789 0
25.7931 -26.045401 386.27701 -0.31436387 -0.93818218 -0.14487785 0
25.936399 67.6763 356.92001 -0.35854697 0.54416358 -0.75850517 0
26.3916 67.998299 356.952 -0.3057867 0.75120252 -0.5849694 0
26.502399 68.224899 357.496 -0.43991759 0.84376568 -0.30746052 0
26.7631 68.401604 357.552 -0.44074854 0.75642538 -0.48328191 0
26.7633 68.064697 356.96899 -0.088236041 0.75126338 -0.65407777 0
26.9167 -26.2798 386.28201 -0.15901531 -0.96741265 -0.19704534 0
27.138399 -26.3207 386.28699 -0.54183209 -0.8383106 -0.060442589 0
27.293501 68.730797 357.55399 -0.37015083 0.8138963 -0.4478406 0
27.5119 68.364304 357.14801 -0.043406423 0.68801999 -0.72439247 0
27.5152 -26.412701 386.61301 -0.0062528444 -0.99998033 -0.0004639613 0
27.888599 67.469398 356.991 0.1466547 0.20913009 -0.96682835 0
28.040199 69.169098 357.57901 -0.44145358 0.68412846 -0.58059192 0
28.0742 68.132401 357.15601 0.13248165 0.21715452 -0.96710521 0
28.112801 -26.3211 386.34 0.090341456 -0.99490392 0.044773452 0
28.113701 68.963898 357.37701 -0.037138026 0.33189893 -0.94258362 0
28.5256 68.744598 357.35101 -0.037138026 0.33189893 -0.94258362 0
28.6388 69.464104 357.577 -0.25484845 0.67609769 -0.69133502 0
28.6737 69.687202 358.00201 -0.40111494 0.8358323 -0.37482148 0
28.7896 -26.5924 386.875 -0.38205832 -0.92394286 -0.019000193 0
28.862 68.928802 357.422 0.078750961 0.23113394 -0.96972954 0
28.862499 -26.3041 386.311 -0.020620372 -0.9798398 -0.19871788 0
28.8997 67.486504 357.147 0.1400198 0.18296309 -0.97309762 0
29.238001 69.565201 357.59201 -0.013636642 0.70017278 -0.71384323 0
29.3895 -26.7708 386.95099 -0.29436973 -0.9210313 -0.25504467 0
29.438499 68.589897 357.41599 0.11509065 0.18022601 -0.97686887 0
29.5844 69.267899 357.56299 0.11314537 0.18511872 -0.97618091 0
29.697201 70.161102 357.853 -0.2612451 0.49125972 -0.83091205 0
29.7418 66.826302 357.155 0.14292051 0.14360368 -0.9792608 0
29.765699 -26.8566 386.88 -0.35422522 -0.93485981 -0.023698213 0
29.9121 69.492401 357.63901 0.095667072 0.15874177 -0.98267436 0
29.9153 70.459801 358.302 -0.63959527 0.76605731 -0.063828208 0
29.992599 70.5056 358.078 -0.54110891 0.8276692 -0.14887853 0
30.038 67.898102 357.36899 0.11482407 0.16661957 -0.97931272 0
30.1577 70.599098 358.573 -0.52950096 0.84738392 0.039614461 0
30.2129 68.8937 357.57999 0.080575153 0.1416236 -0.98663592 0
30.216999 70.6464 358.15302 -0.46473595 0.88497692 -0.02892022 0
30.3633 70.0187 357.771 0.088347368 0.36567527 -0.92653996 0
30.460899 69.277397 357.655 0.06832812 0.13927956 -0.98789293 0
30.4753 70.694099 359.20099 -0.48169509 0.86220586 0.15675089 0
30.516399 70.805702 358.71301 -0.47943413 0.87667 0.039907243 0
30.587099 -26.9884 386.918 -0.22249857 -0.92799747 0.29885632 0
30.5888 -27.0709 387.02701 -0.29253793 -0.92647737 0.23677243 0
30.5903 70.803101 358.08499 -0.24014786 0.93362033 -0.26586106 0
30.708401 70.742699 359.54901 -0.41771346 0.88861251 0.18942891 0
30.7658 67.599503 357.423 0.10348191 0.12736738 -0.98644263 0
30.812599 68.649498 357.58899 0.056556378 0.13704319 -0.98894924 0
30.971201 -26.3144 386.36899 0.085420296 -0.65593898 -0.74996495 0
30.999701 68.986198 357.638 0.076823533 0.1481345 -0.98597884 0
31.018299 69.455002 357.71701 0.14839865 0.14529763 -0.97819549 0
31.0334 70.977898 358.19101 0.096605301 0.85773617 -0.50493175 0
31.042299 71.075401 358.75299 -0.35973376 0.93235517 0.036131781 0
31.112499 -26.932501 386.923 0.10762911 -0.97315204 -0.20344807 0
31.112499 68.180603 357.53699 0.065260984 0.14713913 -0.98696053 0
31.112499 -26.932501 386.923 0.10762911 -0.97315204 -0.20344807 0
31.112499 68.180603 357.53699 0.065260984 0.14713913 -0.98696053 0
31.1154 71.011803 359.27499 -0.38078168 0.90985709 0.16481926 0
31.184401 70.689697 358.047 0.27047989 0.33537129 -0.90242273 0
31.185801 69.941704 357.82101 0.37805319 0.24057543 -0.89397943 0
31.187599 -27.174101 387.327 -0.019442221 -0.968301 -0.24902841 0
31.2908 67.749702 357.487 0.076252341 0.13314046 -0.98815948 0
31.3262 71.1474 358.68701 0.35860315 0.92097443 -0.15234786 0
31.339399 70.757698 358.19601 0.66433859 0.53233582 -0.52466446 0
31.3396 71.061401 359.34799 0.17530087 0.98035705 0.090386458 0
31.3559 -25.942101 386.06799 0.12903373 -0.69782472 -0.70455021 0
31.5623 68.442802 357.59799 0.20140453 0.22909504 -0.95234013 0
31.6357 -26.913601 386.992 0.089095086 -0.85559595 -0.50991929 0
31.6385 69.493698 357.866 0.38280103 0.25194219 -0.88881296 0
31.6763 -26.3866 386.561 0.12452598 -0.656344 -0.74411416 0
31.6982 70.166 358.18301 0.63690639 0.42820245 -0.64108729 0
31.711399 68.667198 357.67099 0.26262474 0.28578806 -0.92160374 0
31.7862 68.141899 357.578 0.18230459 0.11187927 -0.97685623 0
31.789 -27.146299 387.47699 0.16936119 -0.96277285 -0.21067798 0
31.8181 69.792603 358.10901 0.60041767 0.41593698 -0.68300444 0
31.861601 -26.8009 386.95001 -0.044534355 -0.76306838 -0.64478159 0
31.8626 -25.9753 386.20099 0.12217187 -0.69873172 -0.70487446 0
31.899099 -25.504 385.73199 0.12656771 -0.7009927 -0.70184743 0
31.9762 -26.2603 386.49701 0.063241228 -0.67282104 -0.73709726 0
32.023899 69.349503 358.07999 0.74152422 0.38600588 -0.54876339 0
32.0574 69.907097 358.60001 0.83167595 0.4492701 -0.32629973 0
32.079102 68.8881 357.897 0.38302821 0.26457343 -0.88503689 0
32.185902 68.254097 357.75201 0.47124773 0.27221894 -0.83894128 0
32.237499 -26.9529 387.078 0.050482441 -0.68433124 -0.72742164 0
32.320499 69.4552 358.69501 0.86473221 0.38448873 -0.32312006 0
32.384899 67.691498 357.68301 0.58045679 0.2852954 -0.76267713 0
32.385899 67.391998 357.59201 0.59754789 0.28598851 -0.74909753 0
32.388401 -27.346701 387.47699 -0.18523465 -0.90266144 -0.38844621 0
32.399799 69.380203 358.92099 0.91052681 0.40493849 -0.083460785 0
32.4202 -25.6042 385.91501 0.065541275 -0.69079489 -0.72007412 0
32.4286 69.3414 359.202 0.91611028 0.39833456 0.045514066 0
32.462399 -26.3603 386.616 0.021742886 -0.64505589 -0.76382601 0
32.4627 -26.869499 387.022 0.033684909 -0.65847069 -0.75185215 0
32.494202 69.0037 358.64001 0.91463721 0.38544372 -0.12195043 0
32.521099 68.293503 358.06 0.80777973 0.31160662 -0.50039303 0
32.537498 67.018204 357.543 0.55287176 0.35631958 -0.75323915 0
32.583599 68.883499 359.38901 0.92050099 0.36708263 0.13389648 0
32.659401 -25.924 386.21799 0.035300124 -0.68330252 -0.72928154 0
32.6656 68.667099 358.75201 0.92324024 0.38176623 -0.043381967 0
32.724998 -25.194201 385.54001 0.0068649473 -0.6824702 -0.73088115 0
32.762901 -26.749201 386.93399 0.075630657 -0.63441676 -0.7692824 0
32.781799 68.382301 358.742 0.887299 0.36745545 -0.27870581 0
32.837299 -27.2649 387.47601 0.025333935 -0.96390021 -0.26505575 0
32.850201 68.2911 359.20099 0.91381717 0.40531221 -0.02569527 0
32.912498 -25.4746 385.79199 -0.00013883374 -0.68517578 -0.72837776 0
32.937302 67.3937 358.07599 0.65085399 0.28971234 -0.70175201 0
32.9818 66.490303 357.629 0.51506239 0.40711141 -0.75430167 0
32.991798 67.093002 357.944 0.67560518 0.3379485 -0.65524685 0
33.035099 67.842903 359.202 0.90482676 0.40918556 0.11771023 0
33.0667 67.766403 358.75201 0.92614514 0.37561783 -0.034152962 0
33.099098 66.136299 357.59 0.64165211 0.29841676 -0.7065621 0
33.146 67.542999 359.23901 0.91201776 0.37570837 0.16452001 0
33.253799 66.867798 358.19 0.8361125 0.43257388 -0.33733618 0
33.306999 67.093498 358.67599 0.94377017 0.31430337 -0.10252432 0
33.324001 -26.9809 387.21399 0.13532393 -0.67062521 -0.72934854 0
33.329201 65.591698 357.552 0.56218606 0.2616514 -0.78452879 0
33.360901 -27.337 387.50201 0.14151861 -0.95942158 -0.24389088 0
33.361198 -26.356701 386.63699 0.14188007 -0.69177234 -0.7080403 0
33.362202 -26.692101 386.965 0.157351 -0.69124466 -0.70528114 0
33.3624 -25.455 385.767 0.037553489 -0.67244375 -0.73919493 0
33.389801 66.904602 359.20099 0.91981322 0.35085255 0.17563061 0
33.3909 66.5644 358.155 0.81153858 0.27900329 -0.51338321 0
33.435902 64.692299 357.35599 0.581249 0.22060408 -0.78325182 0
33.436699 -26.059999 386.366 0.074283734 -0.69154781 -0.71850091 0
33.437 -25.754801 386.06799 0.13113177 -0.66681421 -0.73359615 0
33.4678 65.365898 357.57999 0.66381943 0.27171984 -0.69678694 0
33.544201 65.889198 357.93301 0.75957048 0.32076359 -0.56582981 0
33.549999 66.340401 358.30399 0.88470286 0.34826592 -0.30985755 0
33.587502 -25.1598 385.50699 0.069321059 -0.68984789 -0.72062784 0
33.598099 66.360199 359.05099 0.94979209 0.29339793 0.10868605 0
33.601398 66.3405 358.603 0.92530298 0.34718958 -0.15255752 0
33.621799 65.892303 358.078 0.86874622 0.29616949 -0.39694285 0
33.697899 -26.352501 386.73001 0.21686949 -0.69391125 -0.68662566 0
33.7477 65.9664 358.75201 0.93947607 0.34241658 -0.011645838 0
33.796398 64.654999 357.58401 0.67392594 0.38401338 -0.63115573 0
33.803799 65.744499 359.203 0.93429267 0.31909081 0.15899144 0
33.8339 65.368103 358.15201 0.87092578 0.35094059 -0.34398973 0
33.886101 -25.9025 386.327 0.20272858 -0.69796455 -0.68683815 0
33.887001 -27.229601 387.56699 0.25791764 -0.7159853 -0.64872456 0
33.887501 -25.305799 385.72 0.17064989 -0.70349836 -0.68990481 0
33.9641 -26.9557 387.396 0.24056852 -0.61247909 -0.7529915 0
33.9744 65.367104 358.76999 0.91591537 0.3847115 -0.11443792 0
34.0126 64.165199 357.57501 0.76503778 0.3351725 -0.54988778 0
34.050201 64.690903 357.92899 0.80900395 0.38780522 -0.44172353 0
34.130402 -25.570499 386.07001 0.19626832 -0.68645185 -0.7001875 0
34.139801 64.013298 357.63599 0.81614983 0.27992237 -0.50551254 0
34.174 64.617798 359.202 0.94212353 0.31161445 0.12369209 0
34.1852 64.768303 358.452 0.89199734 0.39633694 -0.21738864 0
34.186901 -27.4597 388.07901 0.022346387 -0.98297197 -0.18239161 0
34.187199 62.892899 357.284 0.5526855 0.24671426 -0.7960344 0
34.2075 -26.287701 386.83801 0.21003927 -0.6870774 -0.6955632 0
34.207901 64.428101 358.02301 0.83481896 0.35521147 -0.42059731 0
34.236801 64.655701 358.677 0.97755885 0.20585792 0.04473443 0
34.346199 -26.9872 387.53299 0.21255943 -0.74646002 -0.63056791 0
34.361401 64.167198 358.15201 0.89946979 0.21966353 -0.37775922 0
34.507301 63.904999 358.60199 0.92627186 0.37682337 0.0049588596 0
34.561001 -27.429701 388.082 -0.18142016 -0.96275121 -0.20049155 0
34.581902 -25.310699 385.96799 0.20785937 -0.67276227 -0.71006012 0
34.600399 -26.358601 387.004 0.17926094 -0.68754858 -0.70366359 0
34.677799 63.435398 358.60199 0.93621892 0.32457894 0.13469464 0
34.708199 62.59 357.573 0.70749342 0.48452315 -0.51448071 0
34.7136 -24.9781 385.66901 0.19675288 -0.6922071 -0.69436127 0
34.741699 63.117901 358.15201 0.94998693 0.29396132 -0.10541138 0
34.7868 62.778999 357.87201 0.90703374 0.30415416 -0.29117015 0
34.793301 62.3671 357.54599 0.87776262 0.26160321 -0.40136838 0
34.812801 63.042801 358.37701 0.94998693 0.29396132 -0.10541138 0
34.8466 62.8195 358.151 0.97963953 0.13083237 -0.15228018 0
34.858002 61.673302 357.32999 0.62298131 0.26588541 -0.73566246 0
34.8596 62.894001 358.75201 0.94082075 0.33379337 0.058636766 0
34.891102 62.142799 357.56601 0.84290254 0.20318817 -0.49822673 0
34.938099 -25.009199 385.767 0.14666279 -0.68912303 -0.70964742 0
35.046799 62.141701 358.00299 0.90903121 0.33688375 -0.24529895 0
35.077801 62.3657 358.60199 0.9591006 0.27782023 0.05424029 0
35.131001 61.129799 357.38101 0.78448623 0.33681312 -0.52070934 0
35.143398 -25.4771 386.25201 0.15163705 -0.68766814 -0.71001321 0
35.161201 -26.781401 387.54001 0.26702133 -0.72443187 -0.6355297 0
35.1619 -26.189301 386.94699 0.20684792 -0.72288638 -0.65927929 0
35.202301 61.7286 358.022 0.90892565 0.28710279 -0.3023676 0
35.321899 -25.063 385.88901 0.14261 -0.69098794 -0.70865935 0
35.3643 61.167702 357.85199 0.9082396 0.33437836 -0.2515789 0
35.3839 -27.3132 388.66299 0.8643865 -0.36219543 0.3487843 0
35.3853 -26.9851 387.79599 0.7480461 -0.46804121 -0.47049388 0
35.385399 59.292198 357.00101 0.6712541 0.17511337 -0.7202453 0
35.387001 60.190701 357.23199 0.71812212 0.32220593 -0.61683381 0
35.387501 -27.481899 388.16501 0.98024082 -0.19691747 0.01874632 0
35.467499 60.491798 357.479 0.85351878 0.2837528 -0.43702412 0
35.484798 60.979301 358.021 0.9016915 0.38176826 -0.20299128 0
35.499001 -26.057699 389.07101 0.87600446 -0.39599961 0.27531883 0
35.555302 -26.805 388.59799 0.93004018 -0.22289437 0.29213586 0
35.609001 -27.018999 388.15601 0.93525046 -0.34881726 -0.060275428 0
35.6534 -25.869699 388.75201 0.91710001 -0.30056962 0.2618883 0
35.685001 -26.0121 386.88 0.54121941 -0.72823918 -0.42041561 0
35.721401 -25.6462 388.75299 0.91057473 -0.3068997 0.27688667 0
35.7495 -26.503799 388.186 0.94807345 -0.30351827 0.095044196 0
35.7593 60.228802 358.00299 0.9312914 0.32895339 -0.15648013 0
35.759899 -26.4683 387.51599 0.64207214 -0.74389523 -0.1853732 0
35.760799 -25.008101 385.91599 0.26569858 -0.69913906 -0.66378373 0
35.761902 59.741199 357.48001 0.83383936 0.37177813 -0.40803555 0
35.798599 -25.374001 386.28299 0.27155599 -0.65730304 -0.70300072 0
35.816299 -26.3559 388.00101 0.93818265 -0.34432858 0.035371739 0
35.8396 -25.653099 386.58301 0.55793011 -0.47355691 -0.6815114 0
35.889 -26.281 387.55301 0.92284417 -0.38392588 0.030976204 0
35.945599 -25.616699 388.04001 0.94593352 -0.19767974 0.2571623 0
35.9515 59.686199 358.71799 0.91673648 0.33937198 0.21076255 0
35.957199 -25.0056 388.75101 0.88744885 -0.32294163 0.32885143 0
35.9893 59.6674 358.15201 0.92470336 0.36411983 -0.1110877 0
35.991199 59.1049 357.478 0.79686749 0.25516063 -0.54762691 0
36.016201 -25.9753 387.40201 0.96406901 -0.21982743 -0.14915392 0
36.055302 -25.269199 387.94501 0.94273144 -0.26421592 0.20358628 0
36.060799 -25.755501 387.47601 0.97766733 -0.066287369 -0.1994305 0
36.101501 -24.7054 388.67499 0.91379333 -0.27458829 0.29930428 0
36.107101 58.6922 357.40302 0.83292997 0.20987076 -0.51203704 0
36.128601 59.291199 358.60101 0.94178611 0.32321176 0.092590988 0
36.177399 -24.8559 388.06699 0.93639302 -0.30650538 0.17094608 0
36.234001 58.9921 358.04001 0.91021943 0.35045072 -0.22064638 0
36.267899 58.730801 358.75201 0.95707214 0.21972226 0.18903707 0
36.273602 -24.893101 387.401 0.95669299 -0.23789342 0.16776533 0
36.2925 -25.228201 386.95099 0.84523308 -0.51099497 0.15641348 0
36.333099 -24.517401 387.776 0.94762021 -0.27471042 0.16294208 0
36.3368 58.766899 358.15201 0.92445934 0.35925812 -0.12770471 0
36.3456 -25.066601 386.353 0.6202119 -0.65418988 -0.43286574 0
36.350201 -25.0795 386.80099 0.84523308 -0.51099497 0.15641348 0
36.4114 -23.818899 384.97699 0.5622496 -0.66724014 -0.48853454 0
36.414299 -24.501699 387.19601 0.95592541 -0.24510504 0.16164826 0
36.439098 -24.547899 385.75699 0.87649179 -0.32485738 -0.35528842 0
36.471001 -23.731899 388.151 0.950813 -0.16643149 0.26125696 0
36.542 -24.222 386.897 0.95219225 -0.25934139 0.16146812 0
36.545399 57.640598 357.48001 0.89312631 0.32358301 -0.31244099 0
36.551201 58.055 358.021 0.95908165 0.27111518 -0.08160203 0
36.571499 57.942699 358.63901 0.85722345 0.45431793 0.24241114 0
36.5863 -23.2796 384.51901 0.70529687 -0.54078317 -0.45837742 0
36.596802 -24.4774 386.20099 0.81909257 -0.57365954 0.0014344662 0
36.613701 -24.2106 386.521 0.96122974 -0.23116124 0.15033914 0
36.629398 -24.3258 385.681 0.88116652 -0.43719158 -0.18002513 0
36.6534 -23.7034 387.078 0.95876938 -0.22174038 0.17774276 0
36.688099 57.641899 358.60101 0.95225871 0.29646108 0.072898403 0
36.700001 -24.067699 386.20099 0.96976995 -0.22429095 0.096123964 0
36.701401 57.603699 357.94601 0.94276839 0.30868417 -0.12610225 0
36.721802 -23.8074 386.50201 0.96046644 -0.23783451 0.14470311 0
36.728802 -22.8503 387.513 0.94870299 0.050470181 0.31211439 0
36.739399 -23.241699 384.569 0.81330919 -0.50486356 -0.2892074 0
36.759102 57.1171 357.55301 0.88193929 0.29299507 -0.36923832 0
36.7798 -23.7316 386.108 0.95948148 -0.27471671 0.062657863 0
36.804798 -23.730499 385.75101 0.96542418 -0.26046309 0.010728293 0
36.808601 57.340698 358.077 0.93887889 0.3424671 -0.034966692 0
36.8312 -22.9818 386.82001 0.97746778 -0.14566439 0.15276988 0
36.8396 56.856499 357.55099 0.87461978 0.35337272 -0.33191565 0
36.8811 -22.9827 386.27701 0.98416579 -0.1554644 0.085138455 0
36.881199 -23.429899 385.15302 0.80814189 -0.52149874 -0.27376217 0
36.892399 -22.3067 386.95099 0.97129023 -0.052978951 0.2319234 0
36.917301 -23.2826 385.15201 0.9110446 -0.15996806 -0.38001049 0
36.935799 56.872898 358.67599 0.89268845 0.35103121 0.2826384 0
36.951401 -22.794901 385.724 0.98178029 -0.17403288 0.076288752 0
36.962299 -23.0189 385.20801 0.98012322 -0.15015773 -0.12965752 0
36.998901 -22.0352 386.35199 0.98562664 -0.0901886 0.1428501 0
37.006901 56.292099 357.479 0.79483175 0.25235277 -0.55187005 0
37.0326 -22.5977 385.16101 0.98254102 -0.17097872 0.073344313 0
37.033798 56.742298 358.17099 0.94892246 0.30618641 -0.076132096 0
37.084702 -22.604 384.40302 0.69016594 -0.52757156 -0.49531731 0
37.101799 56.291698 357.703 0.90684563 0.33153042 -0.26022795 0
37.1119 -20.9557 382.51501 0.62923604 -0.52838844 -0.56997162 0
37.137501 -21.594101 385.60101 0.98545057 -0.10690001 0.1321345 0
37.1469 -22.225 383.88199 0.96583009 -0.25132012 -0.063328117 0
37.152802 56.2924 358.60101 0.94194204 0.32829615 0.070475586 0
37.162998 -21.706699 385.077 0.98645347 -0.13742089 0.089582644 0
37.175598 -21.5306 383.13699 0.6504547 -0.6646769 -0.36757758 0
37.1814 54.191601 356.98999 0.73161882 0.14377746 -0.66637975 0
37.1814 54.491299 357.03699 0.70887828 0.17973717 -0.68204558 0
37.182098 54.791401 357.10101 0.71557558 0.21475536 -0.66470426 0
37.183899 -20.208 385.67499 0.97453302 0.027637398 0.22253448 0
37.189701 -22.1548 384.25201 0.96583009 -0.25132012 -0.063328117 0
37.189899 -22.0784 383.879 0.97445458 -0.21494572 -0.06508933 0
37.211601 -20.8067 385.67401 0.94284528 -0.051907972 0.32916301 0
37.2188 -21.089701 382.70901 0.83974057 -0.33204618 -0.42962906 0
37.223 -22.0054 384.02701 0.97445458 -0.21494572 -0.06508933 0
37.232101 -21.124599 385.32001 0.98910087 -0.091142341 0.11563955 0
37.240299 -20.2078 385.52399 0.97453302 0.027637398 0.22253448 0
37.241299 55.730202 357.59 0.89394897 0.27241004 -0.35587645 0
37.2547 56.104 358.00299 0.91853577 0.3765271 -0.12049661 0
37.255501 -21.465799 384.38501 0.99003828 -0.11051124 0.087243758 0
37.2607 -21.7803 383.87701 0.97445458 -0.21494572 -0.06508933 0
37.261002 55.992298 358.60101 0.95937049 0.24204987 0.14498326 0
37.261101 -20.490999 382.15601 0.52686745 -0.62149185 -0.57979184 0
37.2901 -21.5555 383.83899 0.98645622 -0.14657697 0.07361576 0
37.3148 -20.4692 385.11401 0.98767418 -0.032928139 0.15302122 0
37.3578 -20.0194 384.96399 0.98548883 -0.029150823 0.16721834 0
37.3633 -21.324699 383.28101 0.94490016 -0.20896894 -0.25198358 0
37.366798 -20.582701 384.47699 0.98617917 -0.12397663 0.10991123 0
37.369598 55.655201 358.62 0.95937049 0.24204987 0.14498326 0
37.400299 55.692402 358.00201 0.97307277 0.18331544 -0.13973141 0
37.4254 -20.7465 383.69 0.98165053 -0.15863326 0.10581956 0
37.428902 -20.0947 384.51401 0.98241383 -0.12577385 0.13800001 0
37.4879 -19.682501 381.52701 0.63268811 -0.56678927 -0.52768898 0
37.513302 -20.6178 383.20001 0.97163033 -0.18006225 0.15333635 0
37.5588 54.7174 357.55301 0.8161903 0.38518319 -0.43065917 0
37.559799 -20.280001 382.14301 0.61265975 -0.63550949 -0.4698678 0
37.598 -18.2519 380.32999 0.72737992 -0.46175969 -0.5076381 0
37.6422 54.456001 357.552 0.85072088 0.32150239 -0.41582468 0
37.665401 54.866299 358.15201 0.92722327 0.34776598 -0.1389814 0
37.718102 54.6418 358.526 0.95364666 0.29507697 0.059055988 0
37.759701 54.568501 358.37701 0.95364666 0.29507697 0.059055988 0
37.761299 54.567402 358.15201 0.95364666 0.29507697 0.059055988 0
37.777901 -19.089899 381.18701 0.57791197 -0.66715819 -0.47001883 0
37.7803 -18.473801 380.61301 0.72737992 -0.46175969 -0.5076381 0
37.7934 -19.678101 382.004 0.86053008 -0.48251197 -0.16331019 0
37.822701 -18.1768 380.36099 0.48463014 -0.58207023 -0.65293789 0
37.829201 -19.3241 381.55499 0.85914046 -0.47187695 -0.19801472 0
37.8344 54.230301 358.58301 0.92264915 0.26079428 0.28408602 0
37.841099 -18.626801 380.82101 0.73483288 -0.43940464 -0.51666641 0
37.857601 53.593601 357.47501 0.8099978 0.25477234 -0.52819943 0
37.8582 54.267101 358.15201 0.95364666 0.29507697 0.059055988 0
37.939602 53.2943 357.47501 0.88650566 0.04564739 -0.46046066 0
38.022301 53.480202 358.71301 0.9312619 0.22870205 0.28363115 0
38.103699 53.406101 358.05801 0.91555798 0.39545882 -0.073252097 0
38.185398 -17.728201 380.28 0.86728644 -0.48702744 -0.10304626 0
38.235001 -16.747 379.40399 0.94763595 -0.26413891 -0.17949037 0
38.2384 -16.4533 379.16299 0.75234193 -0.47053605 -0.46106127 0
38.2519 52.2435 357.47601 0.89845282 0.27463931 -0.34257224 0
38.257801 -16.0844 378.82101 0.74835312 -0.49009338 -0.44696316 0
38.264801 52.8414 358.00299 0.92371631 0.28821039 -0.25235483 0
38.301899 -16.967501 379.69199 0.97741902 -0.17814067 -0.11365731 0
38.3549 52.167 357.629 0.89845282 0.27463931 -0.34257224 0
38.3713 51.942799 357.552 0.90742439 0.18662301 -0.3765007 0
38.3731 52.542198 358.04001 0.93974775 0.27562392 -0.20225146 0
38.3834 -15.7755 378.59698 0.79293269 -0.43637457 -0.42524695 0
38.388901 -15.5602 378.42099 0.64699453 -0.47548112 -0.5960837 0
38.398399 52.241402 358.73099 0.90910459 0.32542002 0.26005903 0
38.403198 -16.2253 379.08301 0.75234193 -0.47053605 -0.46106127 0
38.41 -16.531099 380.05099 0.9799819 -0.1767462 -0.091631062 0
38.418098 -16.601999 379.60599 0.94763595 -0.26413891 -0.17949037 0
38.456799 52.240799 357.966 0.93666828 0.25133657 -0.24389021 0
38.470901 52.261299 358.32001 0.95326936 0.2952162 0.064225413 0
38.486401 51.341301 357.48099 0.77110034 0.19879292 -0.6048848 0
38.5453 51.942101 358.00299 0.94359773 0.28308794 -0.17171052 0
38.5965 51.792099 358.302 0.97061265 0.24052288 0.0077367024 0
38.597198 -15.8528 379.116 0.89245325 -0.44122329 -0.094070092 0
38.6343 51.5107 358.647 0.94151914 0.24189234 0.23458432 0
38.648899 51.530201 358.00201 0.95531309 0.24606577 -0.16379413 0
38.705799 -14.207 379.52701 0.97357714 -0.075004406 0.21568936 0
38.724701 -15.4772 379 0.93722421 -0.34178653 0.069229923 0
38.728001 50.4426 357.478 0.81129992 0.1412653 -0.5673064 0
38.7318 -13.6815 379.60101 0.97607011 -0.043312732 0.21309888 0
38.753601 50.011101 357.37799 0.74438918 0.17049161 -0.64561397 0
38.786598 -14.9568 379.07599 0.95226181 -0.15807754 0.26116851 0
38.796799 -12.4818 379.75101 0.9723354 -0.006440334 0.23350035 0
38.833199 50.967098 358.15201 0.95431352 0.29637295 0.038062345 0
38.8363 -13.9442 379.151 0.95725459 -0.016780214 0.28875965 0
38.8591 -13.2506 379.11301 0.96579915 -0.0032988808 0.2592704 0
38.863701 -12.9694 379.11401 0.97907776 -0.026399905 0.20176668 0
38.8946 -11.9286 379.198 0.98639148 -0.017451139 0.16348486 0
38.9072 -15.0294 378.552 0.95255131 -0.30357391 0.022111252 0
38.908501 -12.1819 379.00201 0.9845174 -0.038502712 0.17100596 0
38.952999 49.616501 357.48099 0.76651132 0.28981096 -0.57312304 0
38.980301 -13.9757 377.42499 0.92446029 -0.16777739 -0.34237981 0
38.9842 -13.8288 377.33499 0.92446029 -0.16777739 -0.34237981 0
38.988899 -14.8153 378.328 0.96153414 -0.26913998 -0.054916248 0
38.991501 50.3661 358.00299 0.92019874 0.2918402 -0.26089001 0
39.0005 -12.4819 378.55099 0.96129441 0.010252097 0.27533242 0
39.007401 -14.6555 378.47601 0.96153414 -0.26913998 -0.054916248 0
39.0107 50.440899 358.52499 0.9641791 0.26178649 0.042737458 0
39.015701 -11.7505 378.513 0.97068268 0.00049082405 0.24036407 0
39.0434 -14.3561 378.474 0.96978021 -0.22640921 0.090913408 0
39.0452 -14.5774 377.90399 0.93690366 -0.34945539 -0.009614422 0
39.062302 50.104301 358.00299 0.89694113 0.30556682 -0.31957078 0
39.069099 -11.1318 378.40201 0.9717021 -0.080541193 0.22205429 0
39.075901 -13.6774 377.34201 0.92446029 -0.16777739 -0.34237981 0
39.082199 -12.9506 378.32599 0.95938534 0.0097002443 0.28193209 0
39.095501 49.0924 357.48099 0.7536903 0.15479757 -0.63873988 0
39.114601 -10.5298 378.54901 0.95926642 -0.10138874 0.26368207 0
39.134201 -13.3444 378.177 0.99895746 0.025889372 -0.037599288 0
39.181198 -12.0885 377.987 0.93168056 0.014075115 0.36300579 0
39.193901 -14.1286 377.95401 0.96258175 -0.19819763 -0.18480822 0
39.194599 49.693199 358.11401 0.93658656 0.20816928 -0.2819064 0
39.205898 -11.5068 377.87601 0.93367451 0.001252127 0.3581205 0
39.212502 -12.7817 377.948 0.96257591 0.0068120244 0.27092659 0
39.218201 -13.6067 377.87701 0.97214633 0.038886908 -0.23112622 0
39.230701 -11.2063 377.875 0.86808705 -0.12191106 0.48120952 0
39.3419 -12.9285 377.35101 0.94421762 -0.32694057 -0.039533645 0
39.342201 -12.7308 376.67999 0.79777837 -0.60140127 -0.043199513 0
39.3465 -10.6774 377.94501 0.78819829 -0.38157591 0.48284915 0
39.360199 49.1287 358.15302 0.94898844 0.24667592 -0.19639729 0
39.372898 48.23 357.59 0.83033931 0.25247443 -0.4967829 0
39.409199 47.6679 357.52301 0.65470868 0.13100863 -0.74444157 0
39.468498 -12.4061 377.27399 0.92622876 -0.19642834 0.32173929 0
39.509399 -11.9566 377.27301 0.85476923 -0.17621711 0.4881773 0
39.509499 48.567001 358.15302 0.97178537 0.18707018 -0.14365897 0
39.575298 47.2925 357.629 0.88510978 0.13968146 -0.44392535 0
39.5853 -12.4764 376.67001 0.81618136 -0.46835822 0.33836156 0
39.5895 47.667099 357.77899 0.88510978 0.13968146 -0.44392535 0
39.603802 48.3428 358.564 0.96399367 0.24668586 0.099309094 0
39.665199 -12.1048 376.97198 0.90673906 -0.24044466 0.3464255 0
39.702 46.3927 357.53 0.80156881 0.16376895 -0.5750367 0
39.724098 47.6311 358.151 0.94577247 0.25041458 -0.20689858 0
39.728802 -11.6925 376.96899 0.81237054 -0.26553893 0.51917553 0
39.730999 46.092899 357.509 0.76996624 0.035370402 -0.63710356 0
39.749298 -12.176 376.74799 0.82274747 -0.33533895 0.45894924 0
39.792999 47.366402 358.15302 0.94577247 0.25041458 -0.20689858 0
39.858299 47.292599 358.63901 0.94910878 0.30843261 0.063732646 0
39.932301 -11.655 376.754 0.71446127 -0.22730178 0.66172427 0
40.024799 46.6931 358.60199 0.96497554 0.25136054 0.075100645 0
40.025299 46.465801 358.07901 0.89530557 0.2815713 -0.34517464 0
40.117401 45.342701 357.77701 0.78342557 0.19754912 -0.58925271 0
40.158001 45.942101 358.07901 0.95080572 0.19818601 -0.23809829 0
40.231602 45.641899 358.07901 0.85566252 0.29126492 -0.42779249 0
40.234699 45.942101 358.63901 0.98992878 0.13913172 0.026141176 0
40.3046 45.342098 358.07901 0.78342557 0.19754912 -0.58925271 0
40.456699 45.0411 358.677 0.9538312 0.29732221 0.042491518 0
40.473099 44.442699 358.077 0.86655366 0.30483249 -0.39517322 0
40.586201 43.842098 358.07999 0.90017951 0.12614805 -0.41684958 0
40.6119 44.443199 358.67599 0.97241068 0.23301893 0.010936736 0
40.621799 43.4669 358.00699 0.85749388 0.30013189 -0.41788173 0
40.6824 44.142101 358.63901 0.979065 0.15289362 -0.1343697 0
40.721401 43.130402 358.078 0.93605983 0.17032884 -0.30786368 0
40.768799 43.765099 358.75201 0.96710378 0.23779988 0.09034121 0
40.8018 43.393101 359.27701 0.96650153 0.24003899 0.090862967 0
40.815102 42.567799 358.07901 0.73288852 -0.061599895 -0.67755431 0
40.842201 43.392601 358.60199 0.96495044 0.20736545 -0.1608422 0
40.9249 43.167801 358.75201 0.99098325 0.10690127 -0.080773324 0
40.947701 41.5928 358.06299 0.84943384 0.092850283 -0.51946223 0
41.167999 42.043098 358.677 0.94334698 0.24877685 -0.21955988 0
41.182999 40.767799 358.18701 0.77135038 0.041031718 -0.6350866 0
41.208599 39.793098 358.13 0.6920433 0.10317921 -0.71444392 0
41.238201 38.1432 358.15601 0.69088477 -0.024503823 -0.7225495 0
41.2714 41.666801 358.75299 0.9313342 0.27207464 -0.24205789 0
41.308998 40.692699 358.37799 0.77286243 0.15284145 -0.61589217 0
41.311798 39.942799 358.23001 0.69205868 0.14995967 -0.70609266 0
41.358002 39.342899 358.23499 0.81662363 0.057305396 -0.57431871 0
41.383801 38.2929 358.23099 0.702806 -0.0070473948 -0.71134669 0
41.384998 37.693001 358.23499 0.68293047 -0.0085739968 -0.73043305 0
41.388302 40.8055 358.612 0.94859111 0.15096825 -0.27817878 0
41.439999 40.430099 358.603 0.88233697 0.12085118 -0.45483679 0
41.486198 40.843102 359.22 0.96011382 0.27899534 0.018521817 0
41.576698 39.792702 358.67801 0.90188223 0.13175653 -0.41139835 0
41.6171 39.493 358.677 0.91030139 0.046376817 -0.41133991 0
41.674999 39.9422 359.202 0.98158443 0.1863472 -0.042032629 0
41.787201 38.4613 358.754 0.84927708 0.25333145 -0.46319717 0
41.798801 38.142899 358.67801 0.86954814 0.19092825 -0.45544752 0
41.8148 39.2682 359.35101 0.98116714 0.19277781 0.012155208 0
41.8881 37.767399 358.755 0.92954934 0.12788798 -0.34580722 0
41.9286 38.592701 359.314 0.97917533 0.19652514 -0.050927013 0
41.936298 37.0928 358.67801 0.72403896 0.16856384 -0.66884512 0
41.9744 38.293499 359.276 0.96846431 0.086124964 -0.23379348 0
42.011501 36.717701 358.711 0.88712251 0.052665852 -0.45851928 0
42.029099 37.993198 359.276 0.9758662 0.1289407 -0.17623706 0
42.044998 35.293098 358.70001 0.7605837 -0.018821184 -0.64896703 0
42.062901 37.879299 359.78201 0.96442032 0.25021979 0.085343465 0
42.067799 36.5303 358.76599 0.88712251 0.052665852 -0.45851928 0
42.086601 37.5425 359.18399 0.97682577 0.085488155 -0.19622219 0
42.1479 37.5424 359.80099 0.99111539 0.090882145 0.097111836 0
42.283798 36.642601 359.35199 0.9276216 0.27691442 -0.25067225 0
42.4067 36.051998 359.39001 0.96208102 0.17851581 -0.20623349 0
42.4217 36.305199 359.802 0.96893638 0.24723312 0.0061712116 0
42.432999 -10.7729 376.14899 0.55676717 -0.82746959 -0.072831102 0
42.459499 35.592602 359.27802 0.96417505 0.16239232 -0.20975046 0
42.5023 35.292999 359.27701 0.96878904 0.13321076 -0.209052 0
42.558899 35.2925 359.42801 0.96878904 0.13321076 -0.209052 0
42.584999 35.5923 359.802 0.96417505 0.16239232 -0.20975046 0
42.588699 33.924198 359.20801 0.81498992 0.075611144 -0.57452101 0
42.607201 34.730301 359.39001 0.94126123 0.07560645 -0.32910624 0
42.635502 35.367199 359.95099 0.97414792 0.22590156 -0.0020890331 0
42.721401 33.5303 359.354 0.90925694 0.08159896 -0.4081586 0
42.723099 32.4431 359.30801 0.86075741 -0.036969297 -0.50767112 0
42.728802 32.2183 359.31699 0.78587145 -0.065368697 -0.61492515 0
42.807999 34.467201 359.952 0.94399315 0.26875329 -0.19143836 0
42.913101 33.567501 359.80301 0.95409471 0.047137167 -0.2957724 0
42.914101 33.886799 359.98901 0.97387666 0.12648043 -0.18859205 0
42.923 -10.2104 375.58099 0.74423778 -0.52493584 -0.41298002 0
43.058201 32.817902 359.952 0.97492021 0.17199315 -0.14124061 0
43.087399 33.118 360.55099 0.97815716 0.19087587 0.082310274 0
43.138199 32.892601 360.55099 0.98150307 0.18428196 -0.051883511 0
43.144699 31.6933 359.87601 0.94376236 0.070675358 -0.32298237 0
43.1464 31.955999 359.95001 0.90658444 0.17018186 -0.38619015 0
43.1581 32.368099 360.10101 0.97633827 0.10508965 -0.18899678 0
43.1828 28.2439 359.99701 0.703426 -0.099662721 -0.70374656 0
43.1842 -8.2402401 374.349 0.66894585 -0.45597953 -0.58702141 0
43.188202 -9.9319201 375.57001 0.92152631 -0.30210891 -0.24396618 0
43.194901 -10.1397 376.065 0.91695797 -0.27320805 -0.29076695 0
43.2089 -10.3633 375.931 0.74423778 -0.52493584 -0.41298002 0
43.228401 29.4433 359.89999 0.8543433 -0.039069712 -0.51823843 0
43.230801 32.367401 360.51401 0.98280346 0.18179572 0.032367345 0
43.245399 -9.7831402 375.51199 0.79222482 -0.49387345 -0.35842547 0
43.249298 31.0741 359.991 0.90818113 0.037521798 -0.41689223 0
43.2705 30.0431 359.92801 0.87522417 0.021017257 -0.48326075 0
43.3284 -9.6680002 376.14999 0.98826033 -0.15127398 -0.021392949 0
43.3465 31.767799 360.55099 0.98436743 0.1035002 -0.14250796 0
43.460098 -9.4047899 376.07401 0.93890899 -0.27806121 0.20281003 0
43.460899 30.7925 360.51501 0.94554436 0.18411154 -0.26841897 0
43.536999 30.6422 361.039 0.9812277 0.17263697 0.08595714 0
43.560299 30.0618 360.58899 0.93453085 0.19058806 -0.30054659 0
43.564499 29.7428 360.478 0.94026208 0.1400165 -0.31032655 0
43.5658 -8.5784998 374.91101 0.72900152 -0.49158686 -0.47633928 0
43.571499 -9.2531204 375.479 0.78025144 -0.48264113 -0.39782566 0
43.609901 29.143101 360.478 0.90491533 0.059130941 -0.42146382 0
43.612301 26.743401 360.505 0.72540784 -0.14274827 -0.67335457 0
43.617401 27.0432 360.48499 0.73392463 0.032740276 -0.67844135 0
43.632702 27.943001 360.47601 0.82580233 0.038637809 -0.56263453 0
43.638901 28.468399 360.479 0.85114223 -0.010615499 -0.52482784 0
43.647999 30.0051 361.05801 0.97045767 0.15054066 -0.18854541 0
43.658501 -7.1532898 373.95801 0.63883716 -0.40794933 -0.65227634 0
43.6973 29.7052 361.00201 0.98551226 0.1695815 -0.0027791874 0
43.726101 27.493099 360.629 0.90305346 0.0055246442 -0.42949265 0
43.7402 29.3293 361.04001 0.97760355 0.09396226 -0.18831447 0
43.741199 26.893499 360.63501 0.86214823 -0.010556822 -0.5065462 0
43.747002 -8.1679401 374.953 0.91951114 -0.27012056 -0.28554177 0
43.749298 -5.0188599 372.564 0.67815721 -0.39186478 -0.62172729 0
43.758099 -7.7564998 374.577 0.81202662 -0.37288597 -0.44896418 0
43.774799 -8.6558704 375.47601 0.94908565 -0.18921986 -0.25185773 0
43.7826 -5.8780699 373.15799 0.69314021 -0.47830319 -0.53924268 0
43.784801 -4.15414 372.048 0.62811881 -0.46145937 -0.62651575 0
43.790401 27.6432 360.77701 0.90781772 0.0086770644 -0.41927519 0
43.792301 28.6369 360.96399 0.96532834 0.1526541 -0.21174981 0
43.794498 25.993401 360.771 0.73343772 -0.065576382 -0.67658615 0
43.810699 -7.3042898 374.28 0.79379022 -0.34561729 -0.50044554 0
43.8172 -8.4313803 375.401 0.9648034 -0.11789124 -0.23506598 0
43.830601 23.818501 361.12601 0.77518559 -0.076128751 -0.62712979 0
43.830898 28.186399 360.966 0.93796557 0.05322561 -0.34261879 0
43.841301 28.8423 361.526 0.97708398 0.21161547 -0.022928778 0
43.858799 28.467501 361.15302 0.96532834 0.1526541 -0.21174981 0
43.8848 28.5425 361.63901 0.98124582 0.1707475 0.08945325 0
43.902599 -5.73037 373.19199 0.71018106 -0.43625546 -0.55256134 0
43.917702 24.643101 361.077 0.81934988 0.012874424 -0.5731492 0
43.920399 26.968 361.00299 0.88832867 -0.001685573 -0.45920515 0
43.927601 -4.7571502 372.54501 0.67815721 -0.39186478 -0.62172729 0
43.936798 -3.7061801 371.88599 0.66634953 -0.43348849 -0.60668445 0
43.948502 27.4179 361.15302 0.95544654 0.1326974 -0.26365376 0
43.970001 -6.14223 373.604 0.69314021 -0.47830319 -0.53924268 0
43.9716 -7.8298402 375.47601 0.961775 -0.26585928 0.06563323 0
44.001701 25.693199 361.077 0.85935521 -0.14768152 -0.48959041 0
44.023499 27.6052 361.75101 0.96985984 0.23999882 0.04210015 0
44.0238 26.255699 361.15201 0.9288581 0.024352174 -0.36963436 0
44.0275 -6.7821102 374.35101 0.87047243 -0.34912509 -0.34697178 0
44.057301 27.3053 361.60199 0.9887144 0.10503788 -0.10682167 0
44.060299 -5.1679401 373.004 0.70274329 -0.39500198 -0.59171391 0
44.069099 -7.2300501 374.953 0.93201494 -0.31965062 -0.17079692 0
44.083302 -6.55724 374.314 0.9407109 -0.25927883 -0.21871784 0
44.085098 -5.9548998 373.67899 0.86773378 -0.32364947 -0.37721232 0
44.128101 -7.0057402 374.952 0.99440801 -0.079035208 -0.070044041 0
44.166901 -2.58021 371.38599 0.66870934 -0.45638302 -0.58697736 0
44.167 26.4429 361.677 0.97681993 0.19493797 -0.088441841 0
44.1922 26.142799 361.677 0.98720884 0.048861764 -0.15176056 0
44.2094 22.0189 361.76999 0.68932408 -0.18416701 -0.70065314 0
44.220901 -5.9937401 374.258 0.96076304 -0.23617177 -0.14545561 0
44.228001 24.2682 361.603 0.86054438 -0.019069908 -0.50901836 0
44.2342 22.6931 361.67001 0.71044731 -0.10702036 -0.69556546 0
44.234798 -0.404461 370.181 0.73596817 -0.33857465 -0.58627474 0
44.244499 -4.7564998 373.077 0.86335915 -0.29714388 -0.40781918 0
44.245499 25.243 361.75299 0.97843063 0.048805241 -0.20072755 0
44.247002 -5.3931699 373.659 0.91146731 -0.27832362 -0.3029246 0
44.250099 -6.1824899 374.87701 0.95124406 -0.29997835 0.071747407 0
44.2509 22.9932 361.677 0.76652819 0.01972479 -0.64190769 0
44.255501 24.943001 361.75299 0.9830668 0.064685501 -0.171451 0
44.2766 25.5431 362.27701 0.99294806 0.080461472 0.087063618 0
44.2831 23.8932 361.75299 0.96301526 0.053656809 -0.2640503 0
44.291 19.5439 362.38901 0.69832098 -0.18479106 -0.69152009 0
44.3097 25.1674 362.35101 0.9835158 0.17513813 0.044981442 0
44.314499 -3.85537 372.479 0.81627035 -0.35391274 -0.4565616 0
44.327999 -3.10674 371.952 0.92582422 -0.2463984 -0.28659609 0
44.338699 23.6681 361.90302 0.94382626 0.00046438124 -0.3304418 0
44.341999 -4.7568598 373.414 0.91624725 -0.26858443 -0.29724306 0
44.344299 20.8195 362.134 0.80321908 -0.049247582 -0.59364444 0
44.344799 23.368299 361.90302 0.94168794 0.0027393196 -0.3364763 0
44.348301 -4.1560502 372.853 0.85466003 -0.3484472 -0.38489065 0
44.356701 -2.0552499 371.27899 0.84862322 -0.3270261 -0.41580349 0
44.364101 -5.3570299 374.20099 0.97980052 -0.17574058 -0.09542603 0
44.373001 -1.71632 371.09399 0.85480928 -0.27311346 -0.44125968 0
44.379002 21.0445 362.13501 0.80321908 -0.049247582 -0.59364444 0
44.383202 22.0928 361.97601 0.90145487 -0.015316918 -0.43260199 0
44.384602 15.6447 363.48401 0.65817946 -0.28578198 -0.69651163 0
44.386002 18.080999 362.785 0.76405293 -0.13337907 -0.63121563 0
44.3904 -3.4051399 372.32901 0.83828628 -0.28526643 -0.4646495 0
44.392399 24.493 362.27701 0.97929132 0.068592988 -0.19048242 0
44.395901 -2.2037899 371.431 0.83601558 -0.33205935 -0.43682328 0
44.397099 -2.7307401 371.80301 0.83527899 -0.29379573 -0.46475056 0
44.3997 22.3934 361.979 0.90145487 -0.015316918 -0.43260199 0
44.418098 -4.1564398 373.11499 0.96498811 -0.18781868 -0.18309043 0
44.418999 24.2661 362.35199 0.99461174 0.077358015 0.069016479 0
44.423199 4.56318 367.78 0.63217455 -0.35644683 -0.68796873 0
44.424599 -4.7562599 373.75201 0.99149466 -0.11944111 -0.051692892 0
44.438 20.3694 362.35699 0.87752438 -0.12142684 -0.46390349 0
44.4398 24.0986 362.595 0.99461174 0.077358015 0.069016479 0
44.446301 23.817801 362.80099 0.99520278 0.059838139 0.077400662 0
44.4478 23.6492 362.23999 0.98438191 0.064092867 -0.16396441 0
44.468102 20.9685 362.28 0.92622763 -0.075985409 -0.36922708 0
44.468102 -3.25686 372.47699 0.94909477 -0.2142742 -0.23088026 0
44.468102 20.9685 362.28 0.92622763 -0.075985409 -0.36922708 0
44.468102 -3.25686 372.47699 0.94909477 -0.2142742 -0.23088026 0
44.473301 21.793301 362.203 0.80771452 -0.14740932 -0.57084823 0
44.475201 -2.46754 371.80399 0.83527899 -0.29379573 -0.46475056 0
44.486198 2.4449401 368.86099 0.7682972 -0.22605529 -0.59884757 0
44.502499 22.9928 362.353 0.9783442 0.075183377 -0.19284742 0
44.5075 -4.0818501 373.75101 0.99881071 -0.005544778 0.048439883 0
44.520699 22.692801 362.353 0.9712832 0.022032268 -0.23690403 0
44.535702 13.9939 364.104 0.71114939 -0.24483131 -0.65903276 0
44.5364 -0.70597798 370.67801 0.85278744 -0.28341165 -0.43867007 0
44.536598 13.6936 364.19699 0.75280148 -0.29121602 -0.59032458 0
44.5392 21.474501 362.39099 0.95886886 -0.082015775 -0.27174231 0
44.5508 23.105101 362.83899 0.98755342 0.15241982 0.038812947 0
44.558201 -2.1310699 371.80301 0.90964526 -0.21552418 -0.35509831 0
44.560902 -1.45661 371.27701 0.9083401 -0.18518163 -0.37500134 0
44.563499 -2.8541 372.47601 0.96079111 -0.16030101 -0.22623885 0
44.603001 18.0809 362.99799 0.83451307 -0.10152334 -0.54155421 0
44.615299 19.543501 362.80399 0.87128216 -0.085105337 -0.48334715 0
44.624001 22.505501 362.802 0.99047232 0.1366556 0.017023174 0
44.625 1.54383 369.478 0.80003303 -0.27581221 -0.53279901 0
44.629799 -3.05093 373.11401 0.96383083 -0.26262054 0.045394246 0
44.648102 20.0214 362.82199 0.85532588 -0.071429946 -0.5131427 0
44.656101 0.53259301 370.155 0.86305016 -0.26310802 -0.43118283 0
44.659302 19.130899 362.95401 0.85706949 -0.16863251 -0.48682132 0
44.6791 21.868 362.952 0.99623722 -0.004450758 -0.086553693 0
44.6814 6.1961398 367.19699 0.67643386 -0.32954058 -0.65866554 0
44.683998 12.3445 364.76099 0.65705478 -0.30953318 -0.68736321 0
44.700401 21.005501 362.953 0.98044646 0.078387357 -0.18049981 0
44.7015 20.518101 362.952 0.96024996 -0.041762367 -0.27599981 0
44.7117 14.6412 364.064 0.72713763 -0.21360908 -0.65241247 0
44.713001 -1.47621 371.83801 0.97816545 -0.136297 -0.15689331 0
44.715698 -0.107021 370.75101 0.8874312 -0.23042651 -0.39921111 0
44.7187 5.21944 367.70901 0.65972757 -0.3281495 -0.67607498 0
44.7201 4.0193501 368.27802 0.72989345 -0.30398759 -0.61224759 0
44.747501 -1.98224 372.47699 0.99012357 -0.13886525 0.019280046 0
44.748798 16.1691 363.58801 0.72034293 -0.25021347 -0.6469152 0
44.7565 -0.68726701 371.315 0.93467897 -0.22257888 -0.2771892 0
44.780998 16.618099 363.49399 0.81356257 -0.07248269 -0.57694215 0
44.797798 6.64428 367.13501 0.71518326 -0.17203763 -0.67743337 0
44.799099 -1.1942 371.952 0.9805783 -0.14203289 -0.13525109 0
44.801601 1.0556999 370.189 0.95255053 -0.19870862 -0.23056969 0
44.8036 11.1436 365.284 0.74019074 -0.23615628 -0.6295616 0
44.812199 -0.36918601 371.27701 0.97612059 -0.17896605 -0.12312479 0
44.8134 19.018101 363.401 0.98126286 0.092324652 -0.1691135 0
44.821701 3.4943099 368.729 0.84260017 -0.3115125 -0.43930048 0
44.828999 0.43763399 370.715 0.94217318 -0.20852265 -0.26235092 0
44.8312 17.9494 363.44 0.94052792 0.022873616 -0.33894551 0
44.831902 2.14341 369.552 0.91706145 -0.22222219 -0.3310824 0
44.846298 1.54301 370.00101 0.9311673 -0.20298328 -0.30286181 0
44.850899 18.5681 363.55301 0.95850587 -0.045391049 -0.28143594 0
44.851299 12.9451 364.755 0.91209513 -0.20349728 -0.35590923 0
44.8559 19.243 363.51401 0.9812119 0.14769626 -0.12413325 0
44.856998 17.368601 363.48001 0.8709259 -0.11557119 -0.477631 0
44.858101 19.092699 364.151 0.99496037 0.061642095 0.079083338 0
44.883701 10.3002 365.702 0.6911484 -0.24847294 -0.67865682 0
44.889301 4.4688902 368.353 0.83222675 -0.20676041 -0.51444024 0
44.891899 0.12786099 371.319 0.99744076 -0.062941641 -0.033916313 0
44.8932 6.0461798 367.53299 0.73959607 -0.27535677 -0.61414683 0
44.894402 15.3044 364.10999 0.84914184 -0.10057677 -0.51850015 0
44.897598 14.4425 364.375 0.82518512 -0.18400754 -0.5340513 0
44.915501 3.79387 368.80301 0.94387978 -0.16057506 -0.28862888 0
44.922501 4.9194598 368.20401 0.80811143 -0.24881789 -0.53389657 0
44.922901 1.05574 370.60199 0.9868235 -0.14728957 -0.066971034 0
44.9249 2.78093 369.44 0.91437125 -0.20256124 -0.35056263 0
44.935902 2.4152501 369.72101 0.98399478 -0.098190472 -0.14870393 0
44.936298 8.5938597 366.44101 0.75735933 -0.30809307 -0.57574779 0
44.9398 5.5197902 367.905 0.89547378 -0.22484928 -0.38414776 0
44.943901 13.3372 364.78299 0.92934936 -0.11572236 -0.35059679 0
44.951401 5.9699502 367.67999 0.88209277 -0.20332061 -0.42493892 0
44.958801 18.1929 364.151 0.98607439 0.15791757 0.052147452 0
44.9599 3.15624 369.328 0.94992828 -0.15635429 -0.27053583 0
44.962799 6.8034902 367.285 0.8642112 -0.24923185 -0.43706113 0
44.965199 11.8933 365.27701 0.86154485 -0.1571248 -0.48275492 0
44.966202 16.3934 363.92801 0.91639256 -0.052725028 -0.39679313 0
44.967701 7.91682 366.77399 0.84173673 -0.14360455 -0.52043927 0
44.967899 15.7934 364.077 0.92604518 -0.1085573 -0.36146322 0
44.969501 1.95579 370.15201 0.96557194 -0.15479152 -0.20907041 0
44.978199 17.8929 364.00201 0.99323946 0.10067674 -0.057789154 0
44.982399 9.34373 366.17801 0.81769431 -0.1866606 -0.54454923 0
44.9841 17.2181 363.853 0.96563804 0.030940674 -0.25804228 0
44.9897 14.2372 364.64001 0.82518512 -0.18400754 -0.5340513 0
44.989899 12.906 365.01599 0.92758954 -0.089158401 -0.36280635 0
44.9921 10.9934 365.578 0.85833955 -0.13827367 -0.49409875 0
44.992901 7.20646 367.15302 0.89838296 -0.21551931 -0.38270032 0
44.998402 12.1177 365.27499 0.84739059 -0.18720724 -0.49687287 0
45.005199 13.9563 364.754 0.94566017 -0.093419328 -0.31144777 0
45.0065 1.69393 370.52701 0.9738391 -0.13611776 -0.1819597 0
45.0075 17.4804 364.00201 0.98640221 0.044454738 -0.15822285 0
45.020699 17.4422 364.526 0.99095124 0.12640916 0.04512639 0
45.023399 2.74283 370.45099 0.98378515 -0.1432905 0.10786377 0
45.0252 12.3435 365.27802 0.83791244 -0.12379314 -0.53158069 0
45.033798 17.143 364.077 0.99759424 0.064232208 -0.02607693 0
45.034901 7.5436401 367.078 0.84106708 -0.24652992 -0.48148644 0
45.041401 6.2491598 367.789 0.9136377 -0.15567239 -0.37554261 0
45.042801 8.8928699 366.47601 0.84800547 -0.22771768 -0.47857222 0
45.051701 16.768101 364.15201 0.99748254 0.0098160505 -0.070229843 0
45.061401 14.6494 364.71399 0.96957242 -0.090812512 -0.22733769 0
45.062099 2.81811 370.17001 0.98378515 -0.1432905 0.10786377 0
45.073898 3.5687301 369.552 0.9842304 -0.12375335 -0.12639493 0
45.076199 5.6868601 368.258 0.96403491 -0.16748932 -0.20635888 0
45.081501 13.0745 365.23901 0.95145327 -0.12708454 -0.28033233 0
45.0858 10.468 365.95099 0.90698111 -0.12975708 -0.40068486 0
45.098301 15.3244 364.63901 0.99064809 -0.014550732 -0.13566367 0
45.111 7.8905201 367.134 0.9467473 -0.1421565 -0.28889638 0
45.117401 4.1687102 369.40201 0.994012 -0.10240588 -0.038120911 0
45.119301 4.76824 368.952 0.98502684 -0.087071747 -0.14879741 0
45.1199 7.1027999 367.58301 0.95361596 -0.17470086 -0.24514519 0
45.1199 15.643 364.67599 0.99298537 0.026073772 -0.11532659 0
45.1199 7.1027999 367.58301 0.95361596 -0.17470086 -0.24514519 0
45.1199 15.643 364.67599 0.99298537 0.026073772 -0.11532659 0
45.126999 13.4119 365.314 0.97387522 -0.089922577 -0.20852096 0
45.140202 11.6683 365.802 0.97228616 -0.035188064 -0.23113064 0
45.1535 11.2934 365.953 0.94127321 -0.10870166 -0.31966966 0
45.161701 6.1559 368.314 0.98656064 -0.034726068 -0.15966269 0
45.167198 14.6679 365.35101 0.98798078 0.14952955 0.039177872 0
45.174301 9.4934797 366.55301 0.95669633 -0.11018097 -0.26942953 0
45.176498 13.9184 365.353 0.99418449 -0.0088383397 -0.10732681 0
45.184898 8.4059 367.11499 0.95273894 -0.084311113 -0.29185647 0
45.1875 5.2940502 368.98901 0.9996537 -0.025587877 0.0061433259 0
45.194801 5.8179498 368.95099 0.99947149 0.012145804 0.030154141 0
45.223099 13.1679 365.87601 0.99699169 0.076924704 0.0094931843 0
45.2346 10.0561 366.55301 0.98036999 -0.051798481 -0.19024086 0
45.237099 12.568 365.952 0.99354154 -0.036018595 -0.1076007 0
45.243801 11.9677 366.47601 0.99190235 0.11617969 -0.051303346 0
45.262798 7.73107 367.75201 0.99169523 -0.10364541 -0.076146007 0
45.2654 11.3678 366.552 0.99580228 0.041968174 0.081342079 0
45.268002 7.1681299 368.276 0.98535204 -0.10667288 0.13304974 0
45.271198 10.7681 366.552 0.99360037 0.024713941 -0.11021598 0
45.294998 8.2179003 367.67599 0.99756479 0.057483882 0.039498243 0
45.2962 8.4617596 367.71399 0.99938506 0.03374815 0.0095167812 0
