# .PCD v0.7 - Point Cloud Data file format
# 5 151 0
# 1 22 0
# 23 40 0
# 41 87 0
# 88 118 0
# 119 151 0
VERSION 0.7
FIELDS x y z normal_x normal_y normal_z curvature
SIZE 4 4 4 4 4 4 4
TYPE F F F F F F F
COUNT 1 1 1 1 1 1 1
WIDTH 151
HEIGHT 1
VIEWPOINT 0 0 0 1 0 0 0
POINTS 151
DATA ascii
-41.5272 12.1694 387.064 0.414131 -0.261824 -0.871747 0.01
-40.9687 13.8757 386.934 0.444887 -0.235907 -0.863958 0.0122047
-40.4604 15.5887 386.717 0.449786 -0.238705 -0.860647 0.0037202
-39.8405 17.2667 386.517 0.451224 -0.245985 -0.857839 0.00543996
-39.3387 18.9851 386.329 0.453367 -0.256605 -0.853588 0.00614733
-38.5203 20.584 386.211 0.451249 -0.26708 -0.851494 0.00724983
-37.9503 22.2791 386.008 0.452335 -0.281545 -0.846242 0.0046697
-37.1995 23.9069 385.844 0.449215 -0.283217 -0.847345 0.00237677
-36.308 25.4687 385.767 0.44472 -0.282121 -0.850078 0.000815669
-35.9103 27.1955 385.451 0.446756 -0.282739 -0.848804 0.00151807
-35.5497 28.9258 385.11 0.449026 -0.283895 -0.847219 0.000788778
-34.8237 30.5627 384.927 0.448284 -0.284625 -0.847366 0.00147057
-34.7514 32.2856 384.411 0.451803 -0.287373 -0.844566 0.00240766
-34.5961 34.0193 383.953 0.453235 -0.290122 -0.842857 0.00147183
-33.7405 35.5922 383.769 0.451349 -0.292319 -0.843109 0.00150632
-33.8904 37.2712 383.138 0.452718 -0.295052 -0.841422 0.00179502
-34.398 38.9004 382.565 0.453642 -0.297495 -0.840063 0.00158179
-33.9857 40.5738 382.045 0.45277 -0.300232 -0.83956 0.00166739
-33.7272 42.2974 381.595 0.451709 -0.303089 -0.839104 0.00186199
-33.1022 43.9218 381.136 0.450024 -0.306265 -0.838856 0.00194572
-33.2 45.6055 380.507 0.448366 -0.309059 -0.83872 0.00253125
-33.1253 47.3128 379.942 0.445724 -0.314258 -0.838196 0.00320398
-33.4526 48.955 379.282 0.442265 -0.318747 -0.838333 0.00395585
-33.1807 50.6062 378.619 0.43643 -0.324746 -0.839088 0.00394664
-33.6733 52.2017 377.947 0.431769 -0.327596 -0.840391 0.00381368
-33.7364 53.8269 377.176 0.425141 -0.331736 -0.842144 0.00401831
-33.9822 55.3949 376.327 0.419513 -0.334369 -0.843923 0.00267506
-34.4944 56.9093 375.499 0.41673 -0.335496 -0.844854 0.00271894
-34.9567 58.4313 374.657 0.415122 -0.343019 -0.842622 0.00455324
-35.3346 59.987 373.834 0.413065 -0.350836 -0.840411 0.00492694
-35.5767 61.5731 373.018 0.409133 -0.359252 -0.838778 0.00336352
-36.4416 62.8798 372.133 0.413987 -0.361571 -0.835393 0.00465501
-36.154 64.4934 371.388 0.401557 -0.372922 -0.83647 0.00808599
-36.3166 66.1024 370.598 0.392907 -0.381261 -0.836818 0.00346375
-36.8457 66.7914 370.075 0.395702 -0.380351 -0.835914 0.0047358
-37.0145 68.3721 369.231 0.384602 -0.391204 -0.836086 0.0115543
-36.9144 70.0136 368.499 0.365946 -0.409211 -0.835841 0.0159555
-36.673 71.6545 367.8 0.34235 -0.430039 -0.835382 0.0136489
-37.1073 73.12 366.849 0.329978 -0.441094 -0.834596 0.0136893
-37.0598 74.7818 366.159 0.305195 -0.461338 -0.83308 0.0223919
-36.147 76.1754 365.477 0.270386 -0.491032 -0.828118 0.023418
-35.7961 77.7258 364.633 0.242774 -0.515076 -0.822045 0.0162416
-36.2004 79.1991 363.681 0.225396 -0.525393 -0.820462 0.0154512
-35.8275 80.6685 362.711 0.198237 -0.545229 -0.814511 0.0197
-35.2499 82.1186 361.814 0.170761 -0.56777 -0.805281 0.0204618
-34.6229 83.5509 360.922 0.14454 -0.591091 -0.793549 0.0207086
-33.8721 84.9207 360.028 0.119864 -0.615414 -0.779037 0.020236
-33.5897 86.3048 358.912 0.0964323 -0.636634 -0.765113 0.0203913
-33.1303 87.6716 357.835 0.0750104 -0.66255 -0.745252 0.0212713
-32.2189 88.8655 356.843 0.0561672 -0.686691 -0.724776 0.0194042
-31.3452 90.0114 355.764 0.0370176 -0.70661 -0.706634 0.0174309
-30.7513 91.1863 354.537 0.0179917 -0.722748 -0.690877 0.0162711
-30.1003 92.3343 353.313 -0.00294859 -0.736709 -0.676203 0.0169376
-29.3408 93.4113 352.087 -0.028611 -0.74913 -0.661805 0.0152501
-28.5418 94.4721 350.872 -0.0427223 -0.761074 -0.647257 0.0113927
-27.4879 95.3348 349.695 -0.0474628 -0.772074 -0.633758 0.01
-25.6964 95.4395 349.554 -0.0396755 -0.775695 -0.62986 0.00428801
-23.9567 95.6933 349.168 -0.0325592 -0.774927 -0.631211 0.00454912
-22.3269 95.094 349.642 -0.0419754 -0.765925 -0.641558 0.00909074
-20.5612 94.7805 349.797 -0.0583614 -0.761447 -0.645595 0.00796273
-18.9447 94.3236 350.444 -0.0689384 -0.759211 -0.647183 0.00622873
-17.1475 94.2629 350.364 -0.0795345 -0.763523 -0.640865 0.0101833
-15.393 93.8625 350.403 -0.101378 -0.767649 -0.632802 0.0168542
-13.6355 93.4883 350.507 -0.137791 -0.768589 -0.624727 0.0199751
-11.925 92.9702 350.722 -0.171809 -0.766508 -0.618827 0.0190179
-10.2147 92.4363 350.894 -0.204926 -0.763626 -0.612275 0.0150373
-8.48091 91.9531 350.92 -0.224171 -0.763521 -0.605626 0.00708946
-6.77173 91.3895 350.951 -0.22966 -0.761191 -0.606502 0.00554863
-5.0496 90.8708 350.88 -0.240068 -0.753384 -0.612193 0.0102749
-3.31598 90.3897 350.823 -0.25468 -0.739556 -0.623054 0.0110457
-1.57159 90.4417 350.382 -0.238833 -0.728368 -0.642214 0.0207675
0.117577 89.8216 350.335 -0.199791 -0.718444 -0.666274 0.0280955
1.85776 89.3615 350.327 -0.152638 -0.707109 -0.690433 0.0309346
3.5836 89.1057 350.77 -0.103554 -0.692776 -0.713679 0.01
4.16455 87.7334 351.779 -0.113627 -0.685117 -0.719516 0.00810694
5.18534 86.6538 352.795 -0.112632 -0.672189 -0.731762 0.00893434
5.94102 85.3705 353.806 -0.116521 -0.661444 -0.740888 0.00823401
6.48493 83.9595 354.783 -0.12615 -0.651538 -0.748054 0.00854889
7.15128 82.6268 355.793 -0.129252 -0.639301 -0.758016 0.0101617
8.08428 81.4495 356.784 -0.114648 -0.625989 -0.771358 0.0120031
8.87909 80.1737 357.775 -0.104293 -0.613931 -0.782439 0.00734002
9.02819 78.5983 358.633 -0.126297 -0.607026 -0.784582 0.00934367
9.63894 77.2016 359.59 -0.12884 -0.594462 -0.793735 0.0100581
10.3775 75.8679 360.547 -0.129641 -0.577882 -0.805758 0.01504
11.3146 74.6728 361.513 -0.100807 -0.558844 -0.823123 0.0124698
11.6928 73.1441 362.385 -0.110411 -0.546517 -0.830138 0.0112952
11.7422 71.5248 363.169 -0.136811 -0.541504 -0.829491 0.00607285
12.6831 70.2906 364.081 -0.104459 -0.529909 -0.841596 0.0121092
13.1589 68.8001 364.971 -0.102051 -0.5225 -0.84651 0.0070618
13.135 67.1728 365.74 -0.126673 -0.518785 -0.845468 0.00504836
13.9603 65.8857 366.69 -0.106845 -0.507801 -0.854823 0.00703722
14.2761 64.3335 367.545 -0.117853 -0.499282 -0.858387 0.0106317
14.4393 62.7293 368.345 -0.138177 -0.487204 -0.862288 0.0144535
14.4655 61.1336 369.177 -0.163041 -0.474451 -0.865051 0.0207799
13.8413 59.5801 369.838 -0.208826 -0.467256 -0.859107 0.0124146
14.6027 58.0864 370.493 -0.197021 -0.451646 -0.870171 0.00997509
15.1449 56.5998 371.351 -0.196674 -0.438662 -0.876866 0.00845394
15.0235 54.961 372.086 -0.216817 -0.430146 -0.876336 0.00710084
15.5888 53.4651 372.912 -0.213158 -0.420467 -0.881914 0.00727278
15.895 51.8823 373.713 -0.216435 -0.406598 -0.8876 0.0103436
15.5297 50.2119 374.275 -0.235946 -0.392821 -0.888831 0.00998516
15.9344 48.6343 375.041 -0.234678 -0.377787 -0.895658 0.00919671
15.6288 46.9491 375.596 -0.248971 -0.364416 -0.897337 0.00881357
15.8565 45.3227 376.332 -0.249442 -0.351018 -0.902533 0.00790654
15.7051 43.6392 376.951 -0.256094 -0.338296 -0.905523 0.00902423
15.1536 42.0201 377.512 -0.268831 -0.325521 -0.906513 0.00737405
15.3084 40.3254 378.098 -0.263882 -0.314301 -0.911911 0.00761257
15.5442 38.6516 378.717 -0.256113 -0.303946 -0.917618 0.00720922
15.4024 36.9502 379.287 -0.254479 -0.292403 -0.921814 0.00698291
15.213 35.2463 379.836 -0.252201 -0.280608 -0.926096 0.00722783
15.0221 33.5438 380.388 -0.248544 -0.268648 -0.93062 0.00750614
14.6144 31.876 380.929 -0.248308 -0.255258 -0.934445 0.0081052
14.8087 30.1653 381.454 -0.233908 -0.245994 -0.940624 0.00831344
14.4226 28.4638 381.896 -0.230409 -0.234049 -0.944528 0.00762894
14.0277 26.7704 382.362 -0.225933 -0.220999 -0.948743 0.0083871
13.651 25.0647 382.796 -0.219797 -0.207176 -0.953293 0.00978996
13.6475 23.3302 383.277 -0.203772 -0.195944 -0.959209 0.0115571
13.627 21.6169 383.828 -0.187473 -0.18373 -0.964934 0.0102257
12.9394 19.968 384.048 -0.187522 -0.165118 -0.968283 0.00601706
12.242 18.3416 384.378 -0.1902 -0.162501 -0.968203 0.00508447
11.268 16.8526 384.65 -0.204007 -0.157608 -0.966199 0.01
9.53936 17.0268 385.121 -0.260449 -0.13906 -0.955421 0.0357127
7.8701 17.4626 385.634 -0.323209 -0.119209 -0.938789 0.0281984
6.1602 17.3473 386.184 -0.351766 -0.106247 -0.930039 0.00573138
4.58424 16.7928 386.854 -0.335866 -0.10335 -0.936223 0.00898222
2.96315 16.5016 387.58 -0.322049 -0.100871 -0.941334 0.00770656
1.28439 17.0507 387.927 -0.310767 -0.100354 -0.945173 0.0114265
-0.386577 16.7184 388.508 -0.284148 -0.100837 -0.953463 0.0201694
-2.11092 16.782 389.021 -0.241425 -0.102972 -0.964941 0.0244783
-3.85101 16.6058 389.446 -0.198858 -0.103812 -0.974515 0.0243037
-5.60538 16.8814 389.74 -0.156454 -0.107226 -0.981848 0.0170954
-7.38873 16.8322 389.979 -0.138548 -0.10833 -0.984413 0.00581416
-9.17385 16.8482 390.209 -0.135752 -0.107682 -0.984874 0.00215572
-10.9222 16.6768 390.602 -0.131922 -0.104549 -0.985731 0.00326181
-12.7146 16.5548 390.713 -0.127111 -0.100033 -0.986831 0.00905901
-14.2856 15.8033 391.168 -0.102664 -0.0927342 -0.990384 0.0180739
-16.0776 15.6335 391.164 -0.0645482 -0.091286 -0.993731 0.0209633
-17.8762 15.5965 391.223 -0.0274289 -0.0943727 -0.995159 0.0207661
-19.6717 15.6991 391.298 0.00923223 -0.102934 -0.994645 0.0178133
-21.3689 15.1013 391.252 0.0332772 -0.110508 -0.993318 0.0143146
-23.1607 14.9409 391.19 0.0574377 -0.119626 -0.991156 0.0135299
-24.8394 14.2916 391.171 0.0797633 -0.12269 -0.989235 0.0128016
-26.4132 13.4181 391.165 0.103227 -0.121034 -0.987266 0.0153272
-28.1959 13.2851 390.955 0.133205 -0.119403 -0.983869 0.0171363
-29.9748 13.1756 390.703 0.164355 -0.120408 -0.979025 0.0172562
-31.6794 12.6658 390.43 0.193799 -0.124209 -0.973146 0.0186826
-33.4375 12.466 390.1 0.227364 -0.137535 -0.964049 0.0243089
-35.1396 12.0575 389.68 0.271634 -0.156087 -0.949659 0.0297336
-36.7208 11.3364 389.211 0.321803 -0.173947 -0.930691 0.0319873
-38.4376 11.2907 388.672 0.36777 -0.198828 -0.908412 0.029799
-40.0282 11.6251 387.899 0.401961 -0.228336 -0.88673 0.0240481
