# .PCD v0.7 - Point Cloud Data file format
# 4 173 0
# 1 38 0
# 39 61 0
# 62 137 0
# 138 173 0
VERSION 0.7
FIELDS x y z normal_x normal_y normal_z curvature
SIZE 4 4 4 4 4 4 4
TYPE F F F F F F F
COUNT 1 1 1 1 1 1 1
WIDTH 173
HEIGHT 1
VIEWPOINT 0 0 0 1 0 0 0
POINTS 173
DATA ascii
-30.4258 91.8884 361.227 -0.365864 0.792096 0.488597 0.01
-31.7704 90.7723 361.658 -0.364059 0.792188 0.489794 0.00224042
-33.0459 89.7335 362.389 -0.368458 0.787246 0.494453 0.00683537
-34.6522 88.9303 362.268 -0.385088 0.781255 0.491271 0.0112653
-36.1269 88.0366 362.785 -0.404366 0.769926 0.493662 0.00812804
-37.7643 87.3779 362.431 -0.406777 0.764972 0.49935 0.00591676
-39.1398 86.222 362.54 -0.413023 0.756497 0.507074 0.00799025
-40.3068 85.0238 363.205 -0.422346 0.746478 0.514194 0.00877379
-41.3669 83.7785 363.957 -0.433175 0.73605 0.520182 0.00852503
-42.0143 82.919 365.4 -0.442495 0.727279 0.524655 0.00854849
-42.991 81.7363 366.342 -0.454494 0.716579 0.529103 0.00940479
-43.8694 80.4919 367.301 -0.467092 0.705561 0.532925 0.00700017
-44.9786 79.0918 367.079 -0.464764 0.699841 0.542417 0.00659013
-45.5564 78.2614 368.568 -0.470781 0.691903 0.54739 0.00659575
-46.4817 76.9308 369.351 -0.472847 0.683402 0.556217 0.00837918
-47.3194 75.6013 370.229 -0.47585 0.671049 0.56856 0.00955071
-48.3048 74.1844 370.741 -0.478095 0.659505 0.580067 0.00949566
-49.0658 72.9408 371.796 -0.483261 0.64647 0.590368 0.00965525
-49.8175 71.5725 372.692 -0.489209 0.633198 0.599779 0.00969908
-50.6037 70.1822 373.522 -0.49655 0.619456 0.608039 0.00997893
-51.336 68.7868 374.392 -0.505669 0.605102 0.614939 0.0107516
-52.1576 67.3025 374.993 -0.517459 0.589453 0.620307 0.0097429
-52.778 65.905 375.943 -0.519535 0.577011 0.630193 0.00924481
-53.5252 64.4261 376.646 -0.51578 0.565694 0.643398 0.00992246
-54.1939 62.8497 377.201 -0.513123 0.553367 0.656118 0.00964578
-54.8867 61.3184 377.846 -0.512342 0.540675 0.667215 0.00887599
-55.3779 59.8785 378.808 -0.51739 0.527396 0.673914 0.00865611
-55.8633 58.3432 379.612 -0.521373 0.514258 0.680962 0.00858172
-56.5909 56.8291 380.259 -0.522791 0.501358 0.689441 0.00846183
-57.0554 55.2621 381.013 -0.528011 0.488129 0.694935 0.00844814
-57.375 53.717 381.879 -0.535076 0.475115 0.698541 0.00859237
-58.0878 52.0904 382.173 -0.538777 0.461523 0.704781 0.00979098
-58.4228 50.5606 383.06 -0.547688 0.444614 0.708771 0.0111684
-58.7834 48.9562 383.792 -0.556445 0.426436 0.713107 0.0114437
-59.1575 47.2883 384.356 -0.565162 0.408257 0.716881 0.0110575
-59.3986 45.6806 385.129 -0.57377 0.391284 0.719503 0.0105242
-59.6318 44.0287 385.805 -0.581921 0.374654 0.721805 0.0108688
-60.0043 43.0002 385.752 -0.587351 0.364038 0.722838 0.0100336
-60.0941 41.4871 386.723 -0.59376 0.349976 0.724545 0.00897081
-60.3363 39.8244 387.368 -0.600549 0.334949 0.726051 0.00928026
-60.6433 38.0774 387.674 -0.607847 0.319945 0.726744 0.00835451
-60.5755 36.5852 388.679 -0.610424 0.30767 0.729878 0.00785351
-60.7159 34.8785 389.233 -0.614913 0.293411 0.731978 0.00816213
-60.8218 33.19 389.848 -0.618112 0.279719 0.73464 0.00814255
-61.0626 31.408 389.929 -0.62331 0.265905 0.735377 0.00776682
-61.1671 29.6869 390.445 -0.624885 0.253114 0.738547 0.00727657
-61.2025 28.013 391.106 -0.624094 0.240968 0.743264 0.0074196
-61.0801 26.3344 391.744 -0.621185 0.22904 0.749446 0.00768764
-61.0642 24.625 392.308 -0.61786 0.217079 0.755728 0.0077902
-61.0398 22.8944 392.802 -0.613447 0.205482 0.762535 0.00821285
-60.9166 21.1972 393.389 -0.607054 0.193967 0.770624 0.00915473
-60.6502 19.5393 394.037 -0.599041 0.18149 0.779879 0.00965638
-60.4977 17.8171 394.538 -0.591287 0.168804 0.788597 0.0101369
-60.1567 16.1761 395.195 -0.582382 0.154711 0.798058 0.0102999
-60.0519 14.4172 395.562 -0.57435 0.141282 0.806326 0.00997987
-59.875 12.6493 395.851 -0.566018 0.127301 0.814505 0.0105063
-59.4833 10.9999 396.456 -0.558068 0.111396 0.822284 0.0105647
-59.1057 9.3138 396.96 -0.551136 0.0954381 0.82894 0.00903856
-58.9273 7.53533 397.173 -0.544125 0.0849484 0.834693 0.00802151
-58.5197 5.86494 397.706 -0.538408 0.0720363 0.839599 0.00851498
-58.2731 4.08518 397.814 -0.530727 0.0598649 0.845426 0.00886198
-57.7999 2.406 398.257 -0.525438 0.0449254 0.849645 0.00920642
-57.1158 0.869631 398.899 -0.523688 0.0281803 0.851444 0.00964174
-56.9247 -0.920094 398.879 -0.515114 0.0137043 0.857012 0.00986877
-56.2756 -2.52116 399.385 -0.513881 -0.00459656 0.857849 0.0103115
-55.8042 -4.25567 399.481 -0.509177 -0.022469 0.860369 0.00979609
-55.2834 -5.95635 399.757 -0.506877 -0.038952 0.861138 0.00915914
-54.4613 -7.44734 400.341 -0.511696 -0.0549158 0.85741 0.0086725
-53.8478 -9.11698 400.617 -0.511916 -0.0691623 0.856247 0.0075081
-53.3433 -10.8439 400.672 -0.508863 -0.0817252 0.856959 0.00705839
-52.7409 -12.5391 400.732 -0.506334 -0.0939225 0.857207 0.00752559
-51.8537 -14.0066 401.279 -0.50961 -0.108202 0.853575 0.0075884
-51.2494 -15.7021 401.279 -0.498383 -0.119536 0.858677 0.00973121
-50.5108 -17.3376 401.419 -0.485857 -0.131633 0.864069 0.00976691
-49.4867 -18.7365 401.903 -0.476377 -0.145135 0.86718 0.01
-47.9132 -18.6628 402.774 -0.474864 -0.151396 0.866939 0.00220078
-46.3386 -18.5574 403.64 -0.473129 -0.152341 0.867722 0.00353077
-44.8819 -18.4382 404.691 -0.464138 -0.148756 0.873182 0.0138981
-43.2507 -18.65 405.422 -0.429925 -0.145567 0.891053 0.0219109
-41.5882 -18.4314 406.076 -0.395059 -0.137597 0.908292 0.0216138
-40.1001 -18.4193 407.089 -0.361709 -0.129217 0.923293 0.0213404
-38.3482 -18.1774 407.424 -0.328654 -0.117637 0.937095 0.0190503
-36.6813 -17.8936 408.041 -0.302128 -0.10594 0.947362 0.0164592
-34.9619 -17.8734 408.573 -0.275507 -0.100181 0.956065 0.0160635
-33.2148 -18.0894 408.949 -0.247166 -0.100193 0.963779 0.0165271
-31.5443 -17.5833 409.388 -0.219094 -0.0994842 0.970619 0.0135006
-29.7843 -17.6539 409.759 -0.200791 -0.107197 0.973751 0.00722167
-28.108 -17.1325 410.157 -0.196114 -0.110214 0.974368 0.00360012
-26.368 -16.9721 410.589 -0.189865 -0.11389 0.975182 0.00383579
-24.5973 -16.8564 410.891 -0.183713 -0.116008 0.97611 0.00405592
-22.8597 -16.6984 411.333 -0.175571 -0.11539 0.977681 0.00726094
-21.101 -16.6257 411.71 -0.158345 -0.112109 0.980999 0.0109072
-19.416 -16.0479 411.968 -0.139937 -0.101718 0.984922 0.0109295
-17.667 -16.4267 412.162 -0.124053 -0.0972888 0.987495 0.00946879
-15.8904 -16.7153 412.145 -0.108583 -0.0895581 0.990045 0.00897868
-14.1104 -16.897 412.341 -0.0989921 -0.0775092 0.992065 0.0106624
-12.3215 -16.7893 412.509 -0.0889439 -0.0570153 0.994403 0.0163622
-10.8329 -15.7967 412.707 -0.0708632 -0.0283216 0.997084 0.01
-10.3108 -14.084 412.891 -0.0424683 -0.00662907 0.999076 0.0202378
-9.68919 -12.3971 412.802 -0.0128816 0.0153095 0.9998 0.0191979
-9.41837 -10.6189 412.872 0.0141927 0.0322084 0.99938 0.0220407
-8.35613 -9.16845 412.959 0.0533415 0.0546333 0.997081 0.0200871
-8.19074 -7.40661 412.63 0.0728916 0.0686816 0.994972 0.014689
-7.53508 -5.73199 412.554 0.0949444 0.0857778 0.99178 0.0146542
-6.88488 -4.06282 412.378 0.112795 0.102509 0.988316 0.0127102
-6.53 -2.32591 412.066 0.125523 0.118855 0.984945 0.0121502
-5.90796 -0.690155 411.645 0.138742 0.13672 0.980846 0.0110802
-5.54868 1.05414 411.383 0.14941 0.149682 0.97738 0.00847633
-5.11774 2.77543 411.081 0.158571 0.159006 0.97446 0.00648557
-4.68437 4.4748 410.675 0.164781 0.166457 0.972183 0.00450379
-4.22817 6.09562 410.039 0.167846 0.171727 0.970741 0.00285582
-4.17676 7.86335 409.704 0.164254 0.176474 0.970504 0.00388951
-4.12776 9.65595 409.548 0.157142 0.180725 0.970899 0.00486294
-3.66798 11.3049 408.992 0.147687 0.18099 0.972333 0.00692856
-3.45404 13.0446 408.583 0.13255 0.181377 0.97444 0.00936441
-3.51855 14.835 408.409 0.116414 0.192938 0.974281 0.0106924
-3.28442 16.602 408.158 0.100924 0.203064 0.97395 0.0101187
-2.97688 18.3362 407.786 0.0860556 0.212993 0.973257 0.00957653
-2.93377 20.094 407.401 0.0746084 0.225054 0.971485 0.008896
-2.92786 21.8478 406.996 0.0654803 0.237202 0.969251 0.00847169
-2.63805 23.5304 406.426 0.0552101 0.248015 0.967182 0.00767809
-2.84653 25.2774 406.046 0.0521136 0.260473 0.964074 0.00720876
-2.77821 26.9953 405.513 0.0475291 0.271946 0.961138 0.00688727
-2.77426 28.7094 404.963 0.0452182 0.283475 0.957913 0.00702482
-2.30407 30.3485 404.387 0.0388929 0.294619 0.954823 0.00679086
-2.50529 32.0677 403.893 0.041711 0.306209 0.95105 0.00691621
-2.33574 33.7399 403.249 0.0416789 0.317985 0.947179 0.00693139
-2.32523 35.4669 402.742 0.0449959 0.329569 0.943059 0.00717395
-2.25779 37.1593 402.132 0.0491487 0.341195 0.938707 0.00741337
-2.04127 38.7958 401.415 0.0532631 0.353236 0.934017 0.00778078
-2.34558 40.5087 400.953 0.063832 0.362798 0.929679 0.00828753
-2.38754 42.2043 400.35 0.0732163 0.373274 0.924828 0.00792596
-2.00739 43.8117 399.635 0.0798945 0.383959 0.919887 0.00773808
-2.22096 45.4702 398.969 0.0915394 0.391538 0.915597 0.00803196
-2.45941 47.1298 398.314 0.103051 0.398923 0.911176 0.0079394
-2.59096 48.7758 397.597 0.113739 0.406951 0.906341 0.00770355
-2.98878 50.3813 396.887 0.124726 0.413418 0.901958 0.00770335
-2.95178 51.9771 396.055 0.134248 0.422378 0.896423 0.00794325
-2.90119 53.6105 395.301 0.143932 0.431315 0.890646 0.0080025
-2.88067 55.2255 394.506 0.153707 0.440089 0.884701 0.00704009
-2.99062 56.7452 393.548 0.162892 0.444782 0.880702 0.00423445
-3.52594 58.3654 392.975 0.166578 0.445854 0.879469 0.00260715
-3.53442 59.9423 392.107 0.16975 0.449695 0.876903 0.00271675
-3.835 61.6147 391.513 0.167584 0.454373 0.874906 0.00370493
-4.06407 63.2394 390.773 0.162992 0.460357 0.872643 0.00459069
-4.10077 64.7486 389.792 0.157614 0.46663 0.870296 0.00541257
-4.13702 66.3254 388.925 0.149491 0.473588 0.867967 0.00799716
-4.61814 67.8907 388.178 0.135356 0.483627 0.864745 0.0109961
-4.99722 69.4849 387.433 0.120421 0.498665 0.858389 0.0133954
-5.28088 70.9688 386.454 0.105449 0.517816 0.848968 0.0154983
-5.81572 72.4355 385.558 0.0880961 0.538964 0.83771 0.0168264
-6.40424 73.906 384.703 0.0703015 0.560873 0.824912 0.0173748
-6.96767 75.3158 383.736 0.0528419 0.582988 0.810761 0.0178134
-7.68267 76.6801 382.805 0.0353657 0.605503 0.795057 0.0181267
-8.4855 77.9793 381.852 0.0183154 0.627738 0.778209 0.019277
-9.60983 79.0827 380.981 -0.00639569 0.64865 0.76106 0.0206054
-10.3753 80.2749 379.871 -0.0308435 0.669234 0.742411 0.0183649
-11.2196 81.2613 378.625 -0.0581876 0.678017 0.73274 0.0184456
-12.6927 82.0717 377.982 -0.0902815 0.684686 0.723225 0.0169752
-13.5831 83.1537 376.852 -0.114812 0.687603 0.716952 0.0146626
-14.7662 83.9669 375.766 -0.140345 0.691162 0.708942 0.0120851
-15.9871 84.7775 374.721 -0.155159 0.694732 0.702334 0.0063367
-17.2552 85.5287 373.688 -0.158341 0.699024 0.697348 0.00426702
-18.1975 86.5018 372.502 -0.163147 0.702956 0.692269 0.0048695
-19.7163 87.0191 371.686 -0.164754 0.709332 0.68535 0.00598086
-21.1065 87.5826 370.691 -0.168224 0.716823 0.676657 0.00814628
-22.1231 88.7898 369.826 -0.17868 0.724669 0.665528 0.0156582
-23.2013 89.177 368.437 -0.210145 0.733432 0.646465 0.0220416
-24.3822 89.7842 367.222 -0.242915 0.743281 0.623318 0.023493
-25.9075 90.0063 366.293 -0.274371 0.753679 0.597234 0.0240169
-26.6824 90.5638 364.767 -0.303856 0.762942 0.570606 0.0237916
-28.1512 90.9471 363.799 -0.331896 0.772943 0.540744 0.0217092
-29.4912 91.3302 362.66 -0.351953 0.783178 0.512602 0.0182897
