# .PCD v0.7 - Point Cloud Data file format
# 3 151 0
# 1 69 0
# 70 147 0
# 148 151 0
VERSION 0.7
FIELDS x y z normal_x normal_y normal_z curvature
SIZE 4 4 4 4 4 4 4
TYPE F F F F F F F
COUNT 1 1 1 1 1 1 1
WIDTH 151
HEIGHT 1
VIEWPOINT 0 0 0 1 0 0 0
POINTS 151
DATA ascii
-4.12147 -65.8132 436.784 -0.347292 0.209616 -0.914029 0.01
-4.74001 -64.2022 437.296 -0.36739 0.180819 -0.912321 0.0232917
-5.50203 -62.7111 437.956 -0.3984 0.143883 -0.905856 0.0190348
-6.10721 -61.0904 438.453 -0.388621 0.115881 -0.914082 0.0169541
-6.72585 -59.4867 438.987 -0.372641 0.0914323 -0.92346 0.0160979
-7.05073 -58.0181 439.15 -0.350872 0.0837539 -0.93267 0.00874711
-7.61331 -56.3774 439.631 -0.357782 0.068001 -0.931326 0.00713907
-7.86553 -54.5975 439.724 -0.333763 0.0665507 -0.940305 0.0058741
-8.55633 -52.9959 440.168 -0.368259 0.050206 -0.928367 0.00923444
-8.89665 -51.2336 440.304 -0.358539 0.046367 -0.932363 0.00582136
-9.4515 -49.5572 440.653 -0.378509 0.0323268 -0.925033 0.0103681
-9.52534 -47.7611 440.561 -0.325944 0.0349587 -0.944742 0.00844242
-10.0421 -46.0583 440.833 -0.35764 0.0126338 -0.933774 0.0317331
-10.6801 -44.4315 441.264 -0.423405 -0.00971654 -0.905888 0.00703189
-10.6052 -42.6501 441.018 -0.366271 -0.009866 -0.930456 0.0271979
-10.6335 -40.8523 440.933 -0.333001 -0.0144604 -0.942816 0.0117015
-11.269 -39.1974 441.245 -0.399039 -0.0305795 -0.916424 0.0343584
-11.7894 -37.4994 441.539 -0.443434 -0.0431907 -0.895266 0.00899466
-11.8817 -35.7085 441.383 -0.423276 -0.0476932 -0.904745 0.00404177
-12.2612 -33.9563 441.544 -0.44497 -0.0574699 -0.893699 0.00817318
-12.4736 -32.1696 441.493 -0.441356 -0.0685087 -0.894713 0.0118709
-12.4568 -30.3872 441.242 -0.411673 -0.0799483 -0.907818 0.0159555
-12.5228 -28.5996 441.042 -0.393187 -0.0924523 -0.914798 0.00894682
-12.9703 -26.8667 441.233 -0.423413 -0.108323 -0.899437 0.00897764
-13.0538 -25.0903 440.954 -0.407133 -0.119566 -0.905509 0.014316
-12.9858 -23.3219 440.626 -0.379535 -0.129512 -0.916068 0.00975795
-13.1692 -21.5372 440.479 -0.380573 -0.140723 -0.913981 0.00609142
-13.2415 -19.748 440.296 -0.373834 -0.150657 -0.915178 0.00696794
-13.559 -17.9768 440.253 -0.392512 -0.161011 -0.905544 0.00731402
-13.6262 -16.2098 439.916 -0.385702 -0.172276 -0.906397 0.00645337
-13.706 -14.4394 439.601 -0.384194 -0.182696 -0.904996 0.00622361
-13.702 -12.6935 439.163 -0.376715 -0.192775 -0.906048 0.00623541
-13.7015 -10.9472 438.727 -0.373473 -0.202415 -0.905288 0.00529643
-13.7304 -9.18119 438.38 -0.379076 -0.210999 -0.900989 0.00545119
-13.6643 -7.438 437.936 -0.378567 -0.220271 -0.898981 0.00593124
-13.4967 -5.7206 437.424 -0.371761 -0.23096 -0.899139 0.01504
-12.9999 -4.14794 436.703 -0.333454 -0.247516 -0.909695 0.00937861
-12.9855 -2.39543 436.292 -0.347569 -0.253546 -0.902724 0.0148106
-13.1299 -0.629486 435.975 -0.382149 -0.252879 -0.888827 0.0150606
-13.0919 1.07737 435.405 -0.396987 -0.256755 -0.88118 0.013922
-13.1578 2.81039 434.923 -0.427055 -0.256774 -0.867001 0.00589566
-12.6196 4.29754 434.063 -0.391959 -0.276541 -0.877436 0.00748956
-12.5417 6.02326 433.557 -0.415635 -0.280672 -0.865142 0.0186576
-12.5485 7.75979 433.084 -0.451612 -0.280717 -0.846903 0.00931599
-11.8936 9.13782 432.129 -0.402461 -0.310118 -0.861309 0.00868174
-11.9204 10.8649 431.622 -0.445874 -0.30961 -0.839844 0.028379
-11.9752 12.597 431.136 -0.493546 -0.301097 -0.815937 0.00824009
-11.2759 13.88 430.085 -0.429213 -0.332594 -0.839737 0.00908131
-11.2963 15.5975 429.546 -0.473135 -0.324835 -0.818917 0.018595
-10.4888 16.7554 428.429 -0.375658 -0.36418 -0.852205 0.00963072
-10.6571 18.4938 427.994 -0.450282 -0.347277 -0.822584 0.0253315
-10.4294 20.1018 427.218 -0.457543 -0.352585 -0.816295 0.00515954
-10.1028 21.6444 426.349 -0.448741 -0.364535 -0.815932 0.0160664
-9.66242 23.0544 425.321 -0.412618 -0.387954 -0.824159 0.0258693
-9.11762 24.494 424.388 -0.37188 -0.414943 -0.830378 0.00786247
-8.91396 26.1053 423.612 -0.407821 -0.413712 -0.813956 0.0170609
-8.61163 27.6604 422.757 -0.426411 -0.417646 -0.802338 0.010521
-7.93657 28.8829 421.621 -0.386905 -0.444155 -0.808103 0.020759
-7.40507 30.2132 420.532 -0.365787 -0.4607 -0.808675 0.00744631
-7.06241 31.7239 419.615 -0.372278 -0.465843 -0.802745 0.00698645
-6.50357 33.056 418.541 -0.353922 -0.481641 -0.801724 0.00934647
-6.04304 34.4648 417.52 -0.352618 -0.492231 -0.795845 0.01231
-5.32031 35.6157 416.339 -0.32859 -0.516046 -0.791028 0.00848496
-5.06568 37.1457 415.426 -0.362098 -0.514087 -0.77756 0.0120059
-4.51446 38.455 414.321 -0.367098 -0.518559 -0.772228 0.00412268
-3.98636 39.7968 413.243 -0.371332 -0.521229 -0.768396 0.00359617
-3.48312 41.1502 412.169 -0.376681 -0.522872 -0.764668 0.00398875
-2.80957 42.3125 410.97 -0.367454 -0.533379 -0.761895 0.00955734
-2.02907 43.3392 409.715 -0.355876 -0.548921 -0.756332 0.00736282
-1.50304 44.6477 408.596 -0.374178 -0.552355 -0.744913 0.0112206
-0.813306 45.7369 407.34 -0.381715 -0.566058 -0.730666 0.0119211
-0.0832621 46.7908 406.077 -0.381346 -0.583878 -0.716702 0.0122012
0.541325 47.9359 404.836 -0.387784 -0.598134 -0.701327 0.0138762
1.31628 48.8654 403.504 -0.375686 -0.622861 -0.686224 0.01
2.54168 47.597 403.864 -0.262865 -0.668841 -0.695381 0.0537943
3.4223 46.3501 404.817 -0.196714 -0.685077 -0.701408 0.0292723
4.52228 45.1264 405.547 -0.161006 -0.693167 -0.702564 0.014757
4.94358 43.9007 406.796 -0.145983 -0.688767 -0.710133 0.00670179
5.82905 42.6624 407.757 -0.142804 -0.684249 -0.71513 0.00508581
6.89697 41.5819 408.722 -0.153992 -0.676081 -0.720556 0.00954757
7.472 40.2495 409.787 -0.167484 -0.664811 -0.727994 0.012678
8.22331 38.9444 410.773 -0.189321 -0.651151 -0.734956 0.0126977
8.41272 37.5476 411.893 -0.200045 -0.637848 -0.743729 0.0127034
9.54219 36.3856 412.676 -0.217198 -0.622065 -0.752236 0.0130569
10.0289 34.9384 413.629 -0.228783 -0.606534 -0.761429 0.0119051
10.6232 33.5135 414.555 -0.240884 -0.591019 -0.769851 0.0119723
11.4108 32.0774 415.301 -0.254237 -0.575671 -0.777153 0.0115965
12.187 30.642 416.061 -0.266393 -0.56104 -0.783753 0.0106708
12.9854 29.2114 416.807 -0.277254 -0.547513 -0.789531 0.00771724
14.1515 27.9628 417.374 -0.271735 -0.538012 -0.797937 0.00759158
14.3976 26.4345 418.292 -0.27204 -0.527089 -0.805091 0.00741877
15.1227 24.9244 418.951 -0.265503 -0.517555 -0.813415 0.00741277
15.8545 23.436 419.65 -0.262259 -0.507727 -0.82063 0.00714683
16.6287 22.0015 420.414 -0.263094 -0.496124 -0.827431 0.00873736
17.146 20.4156 421.09 -0.269894 -0.480614 -0.834366 0.0108749
17.7829 18.8596 421.733 -0.280999 -0.46377 -0.840213 0.0117625
18.083 17.2818 422.546 -0.294459 -0.447859 -0.844225 0.0111066
19.0364 15.7999 422.912 -0.294831 -0.429799 -0.853433 0.0112145
19.822 14.2825 423.479 -0.291094 -0.412504 -0.863195 0.0102554
20.2856 12.6563 424.096 -0.298452 -0.396352 -0.868235 0.0101837
20.9132 11.0393 424.577 -0.303054 -0.379672 -0.874075 0.0106321
20.6322 9.41701 425.304 -0.322947 -0.3689 -0.871561 0.0108018
21.2043 7.76181 425.72 -0.328348 -0.351927 -0.876547 0.0103908
21.3196 6.0728 426.331 -0.340952 -0.337086 -0.877568 0.0105164
21.8389 4.41344 426.797 -0.348738 -0.320622 -0.880672 0.0102498
21.7189 2.74996 427.474 -0.362746 -0.308182 -0.879454 0.0103658
22.3577 1.09245 427.765 -0.370566 -0.291693 -0.881814 0.0101797
22.4422 -0.630399 428.28 -0.383074 -0.278338 -0.880785 0.00993143
22.4159 -2.34163 428.837 -0.395415 -0.266159 -0.879094 0.01049
22.8908 -4.04477 429.175 -0.408067 -0.250774 -0.877835 0.0110806
23.0794 -5.79529 429.549 -0.421932 -0.236797 -0.875157 0.00914971
22.6655 -7.4413 430.149 -0.429625 -0.226893 -0.874038 0.00751438
22.524 -9.16795 430.637 -0.436278 -0.214007 -0.873992 0.0078782
22.4083 -10.9057 431.092 -0.440426 -0.200692 -0.87507 0.0085333
22.7063 -12.6651 431.328 -0.448343 -0.186041 -0.874287 0.00847461
22.8853 -14.4344 431.606 -0.4522 -0.172568 -0.875063 0.00737266
22.9881 -16.2064 431.905 -0.451844 -0.159953 -0.87764 0.0073212
23.0065 -17.9814 432.204 -0.44685 -0.147807 -0.882314 0.00807733
23.0686 -19.7615 432.463 -0.438607 -0.136352 -0.888275 0.00930161
22.8778 -21.5186 432.804 -0.423829 -0.128294 -0.89661 0.0110871
22.6719 -23.275 433.14 -0.405946 -0.121523 -0.905782 0.0125624
22.4819 -25.0394 433.441 -0.385259 -0.114391 -0.915691 0.014126
22.2868 -26.8072 433.718 -0.36176 -0.106727 -0.926142 0.0153664
21.9748 -28.5538 434.022 -0.337261 -0.0964529 -0.936457 0.0164103
21.7622 -30.3246 434.265 -0.309924 -0.0873569 -0.94674 0.0139194
20.9045 -31.8569 434.66 -0.302177 -0.0652775 -0.951014 0.0130056
20.574 -33.603 434.946 -0.282749 -0.0516589 -0.957802 0.00958023
19.3784 -34.8942 435.325 -0.312011 -0.0336233 -0.949483 0.0117194
18.8006 -36.5888 435.511 -0.32044 -0.0393821 -0.94645 0.0108147
17.9359 -38.14 435.804 -0.347863 -0.040864 -0.936654 0.00383526
17.2805 -39.7995 436.042 -0.310733 -0.0487482 -0.949246 0.0237066
16.9956 -41.0113 437.342 -0.272023 -0.0518346 -0.960894 0.022853
16.734 -42.46 438.378 -0.232177 -0.0562509 -0.971046 0.0297351
15.9778 -44.0879 438.512 -0.17217 -0.055549 -0.9835 0.0427618
14.4569 -44.2498 437.563 -0.108837 -0.0274647 -0.99368 0.0294394
12.8435 -44.9215 437.132 -0.0949307 0.0127099 -0.995403 0.023057
12.6801 -46.7116 437.227 -0.0543132 0.0168672 -0.998381 0.0138841
11.322 -47.8929 437.237 -0.112852 0.0553488 -0.992069 0.0254582
10.6335 -49.5558 437.21 -0.119856 0.0767725 -0.989818 0.0138564
10.7433 -51.3455 437.052 -0.0657587 0.0667215 -0.995602 0.0113349
10.0818 -53.0189 437.005 -0.0802636 0.0756863 -0.993896 0.0247818
8.87943 -54.3573 437.057 -0.147239 0.0973405 -0.984299 0.0262159
7.45892 -55.4597 437.14 -0.160963 0.121659 -0.979433 0.0111885
6.54434 -57.0098 437.164 -0.141378 0.136279 -0.980531 0.01334
5.48299 -58.4613 437.08 -0.126159 0.154632 -0.979884 0.0139301
3.84214 -59.2008 437.107 -0.128796 0.182719 -0.974692 0.0165833
2.78685 -60.6507 436.952 -0.0981551 0.20465 -0.973901 0.0206079
2.04806 -62.2906 436.882 -0.0669066 0.222819 -0.972561 0.0163135
0.385255 -62.9382 436.646 -0.0609281 0.243775 -0.967916 0.00948753
-1.11948 -63.9094 436.465 -0.0810867 0.252541 -0.964183 0.0315256
-2.57908 -64.9615 436.415 -0.173394 0.245783 -0.95369 0.0768462
