# .PCD v0.7 - Point Cloud Data file format
# 6 209 0
# 1 20 0
# 21 104 0
# 105 122 0
# 123 151 0
# 152 191 0
# 192 209 0
VERSION 0.7
FIELDS x y z normal_x normal_y normal_z curvature
SIZE 4 4 4 4 4 4 4
TYPE F F F F F F F
COUNT 1 1 1 1 1 1 1
WIDTH 209
HEIGHT 1
VIEWPOINT 0 0 0 1 0 0 0
POINTS 209
DATA ascii
65.0397 -52.5628 401.704 -0.290575 -0.243291 -0.925405 0.01
63.3904 -52.4839 402.421 -0.292816 -0.239565 -0.925671 0.00207816
61.8209 -53.03 403.113 -0.294183 -0.23689 -0.925926 0.00268361
60.11 -52.5883 403.456 -0.298576 -0.232346 -0.925671 0.00343284
58.4184 -52.6319 404.069 -0.302768 -0.228229 -0.925334 0.00267392
56.8491 -53.0559 404.842 -0.30499 -0.22527 -0.925329 0.00110533
55.1754 -53.4731 405.357 -0.300689 -0.225166 -0.926761 0.00257936
53.4579 -53.5033 405.895 -0.296257 -0.224779 -0.928281 0.00260804
51.7341 -53.3973 406.402 -0.29187 -0.224196 -0.929811 0.00257541
50.0225 -53.1447 406.899 -0.287606 -0.223452 -0.931317 0.0025964
48.3093 -53.2255 407.445 -0.283199 -0.222709 -0.932845 0.00262204
46.7678 -53.9133 408.07 -0.278883 -0.222208 -0.934263 0.00258537
45.0601 -53.4233 408.359 -0.275046 -0.221233 -0.935631 0.00293142
43.3188 -53.21 408.762 -0.26891 -0.221161 -0.93743 0.00391509
41.6937 -53.6752 409.38 -0.261746 -0.221911 -0.939279 0.00418927
39.993 -53.8516 409.943 -0.254426 -0.222828 -0.941071 0.00416162
38.2647 -53.9951 410.425 -0.247311 -0.223986 -0.942692 0.00392925
36.5875 -54.389 410.947 -0.240884 -0.225502 -0.943993 0.00368207
34.8957 -54.6532 411.502 -0.234736 -0.227393 -0.945088 0.00382879
34.0083 -54.3192 411.472 -0.231336 -0.228236 -0.945723 0.00368883
32.2692 -54.4597 411.914 -0.225465 -0.230276 -0.946646 0.00334119
30.5413 -54.5605 412.409 -0.219622 -0.228612 -0.948421 0.00346625
29.0569 -55.3664 413.031 -0.216986 -0.222397 -0.950503 0.00263314
27.3028 -55.0899 413.325 -0.215454 -0.221149 -0.951143 0.00249346
25.7354 -55.7373 413.928 -0.212707 -0.215364 -0.953087 0.00273552
23.9549 -55.5667 414.13 -0.210968 -0.213248 -0.953949 0.00236341
22.221 -55.8538 414.519 -0.208337 -0.208594 -0.955554 0.00352815
20.5804 -56.3351 415.081 -0.205049 -0.202646 -0.957543 0.00393645
18.8766 -56.7121 415.523 -0.201542 -0.196821 -0.959501 0.00377773
17.1229 -56.8356 415.91 -0.198133 -0.191588 -0.961268 0.00397722
15.3584 -56.911 416.257 -0.191934 -0.186964 -0.963434 0.00538711
13.7143 -57.4055 416.798 -0.183351 -0.180402 -0.966353 0.00638586
12.0429 -57.9813 417.137 -0.17446 -0.173294 -0.969295 0.00590201
10.2644 -57.9178 417.407 -0.166689 -0.168864 -0.971442 0.00604612
8.60598 -58.5328 417.741 -0.157731 -0.16098 -0.974272 0.006885
6.98328 -59.2145 418.117 -0.148851 -0.152595 -0.977015 0.00619534
5.21245 -59.2904 418.431 -0.141538 -0.146908 -0.978971 0.00591631
3.58453 -59.9015 418.896 -0.133771 -0.138576 -0.981276 0.00590406
1.84373 -60.2337 419.211 -0.127401 -0.131704 -0.983068 0.01
0.162361 -59.5952 419.284 -0.122485 -0.13227 -0.983617 0.0034281
-0.813867 -58.1034 419.036 -0.121012 -0.14148 -0.982517 0.00580908
-1.64744 -56.5114 418.932 -0.118987 -0.15269 -0.981085 0.0068737
-2.22424 -54.8321 418.637 -0.117282 -0.165608 -0.979193 0.00764039
-2.32849 -53.0527 418.387 -0.117497 -0.179548 -0.976707 0.00738477
-3.32097 -51.5585 418.237 -0.112991 -0.190587 -0.975146 0.00676839
-3.94318 -49.8851 418.008 -0.110617 -0.202456 -0.973024 0.00649397
-4.54703 -48.2189 417.693 -0.108941 -0.213212 -0.970913 0.00592101
-4.92222 -46.4904 417.359 -0.109917 -0.223237 -0.968547 0.00453843
-5.82693 -44.9565 417.097 -0.107716 -0.228925 -0.967466 0.00206326
-7.19928 -43.7976 416.98 -0.104444 -0.228067 -0.968027 0.000571798
-7.96205 -42.2033 416.639 -0.109713 -0.228914 -0.967244 0.00210021
-9.08663 -40.818 416.402 -0.111788 -0.226588 -0.967554 0.00190412
-9.79587 -39.1853 416.135 -0.116259 -0.227134 -0.966899 0.00244687
-10.6504 -37.6222 415.877 -0.119218 -0.2309 -0.965646 0.00251001
-11.7468 -36.2045 415.71 -0.119318 -0.235279 -0.964576 0.00426683
-12.2432 -34.5001 415.412 -0.122167 -0.245173 -0.961751 0.00492994
-13.4368 -33.1804 415.141 -0.120367 -0.251995 -0.960214 0.00541263
-13.9474 -31.5092 414.709 -0.121774 -0.263563 -0.956925 0.00645704
-14.6576 -29.899 414.331 -0.121937 -0.274266 -0.953892 0.00580241
-15.6746 -28.4445 414.031 -0.118276 -0.283374 -0.951688 0.00625902
-16.68 -26.9655 413.827 -0.110151 -0.293006 -0.949744 0.0066878
-16.9568 -25.2607 413.32 -0.10936 -0.304363 -0.946258 0.00636541
-17.258 -23.5603 412.812 -0.108592 -0.314825 -0.942917 0.00563291
-18.2844 -22.1688 412.311 -0.102408 -0.322165 -0.941128 0.00463025
-19.0263 -20.6094 411.804 -0.0984397 -0.327554 -0.93969 0.00300609
-19.5966 -18.9738 411.314 -0.0947603 -0.329592 -0.939356 0.00232415
-20.1433 -17.2907 410.985 -0.0912771 -0.331793 -0.938926 0.00179573
-20.2615 -15.6218 410.321 -0.0904364 -0.334146 -0.938172 0.00191932
-20.9044 -14.0361 409.762 -0.0866306 -0.336633 -0.937642 0.00311017
-22.0342 -12.6928 409.364 -0.0805208 -0.338967 -0.937346 0.0024237
-22.0284 -10.9797 408.811 -0.0801736 -0.341577 -0.936428 0.00183779
-22.5855 -9.32437 408.376 -0.0770528 -0.344253 -0.93571 0.00191698
-22.6778 -7.64241 407.741 -0.0761665 -0.346871 -0.934815 0.00154403
-22.6321 -5.97204 407.072 -0.0758712 -0.349372 -0.933907 0.00102305
-22.3443 -4.31633 406.427 -0.0763801 -0.350302 -0.933517 0.00107713
-21.5373 -2.82346 405.827 -0.0796179 -0.349975 -0.933369 0.00101005
-21.6147 -1.14814 405.174 -0.0797896 -0.349431 -0.933559 0.000707845
-21.5096 0.522342 404.512 -0.0815791 -0.348408 -0.933786 0.00174865
-21.0147 2.12835 403.867 -0.0857371 -0.347497 -0.933753 0.00268113
-20.3668 3.67511 403.213 -0.0910886 -0.346842 -0.93349 0.00321056
-19.6218 5.19036 402.589 -0.0972228 -0.346505 -0.932996 0.00366811
-18.6793 6.60828 402.005 -0.104197 -0.34684 -0.932119 0.00392094
-17.7989 8.04455 401.371 -0.111195 -0.347241 -0.93116 0.00379701
-17.3958 9.73271 400.894 -0.117501 -0.347968 -0.930114 0.00440651
-16.5974 11.144 400.112 -0.124847 -0.353691 -0.926993 0.00523342
-15.4562 12.3525 399.421 -0.13104 -0.359338 -0.923961 0.00453736
-14.8419 13.9073 398.754 -0.135245 -0.364561 -0.921306 0.00381736
-14.2844 15.5637 398.323 -0.138081 -0.369884 -0.91876 0.00344036
-12.9072 16.6299 397.869 -0.140961 -0.373907 -0.916692 0.00280079
-11.7395 17.6527 396.958 -0.142968 -0.377657 -0.914842 0.00227027
-10.4804 18.4772 395.97 -0.144716 -0.380376 -0.913439 0.00223432
-9.71873 19.9828 395.344 -0.144739 -0.384543 -0.911689 0.00236689
-8.82629 21.3918 394.667 -0.144509 -0.388228 -0.910163 0.00200441
-7.3695 22.1956 393.98 -0.146851 -0.390577 -0.908782 0.00330789
-5.92095 23.1111 393.429 -0.151256 -0.396771 -0.90537 0.00513507
-4.65114 24.2314 392.819 -0.156094 -0.404548 -0.901097 0.00561157
-3.26172 25.1464 392.131 -0.162627 -0.411126 -0.896955 0.00599287
-2.15234 26.3426 391.371 -0.168335 -0.419595 -0.891966 0.00628903
-0.974468 27.4537 390.585 -0.174975 -0.42728 -0.887026 0.00631239
0.0512969 28.6794 389.757 -0.180726 -0.435649 -0.881787 0.00609284
1.03675 29.9345 388.924 -0.18212 -0.445255 -0.876687 0.00575338
2.20984 31.0022 388.073 -0.182086 -0.453917 -0.872241 0.00565433
3.20314 32.3032 387.324 -0.181431 -0.463289 -0.867436 0.00555022
4.49641 33.2776 386.538 -0.180252 -0.471494 -0.863251 0.00629912
5.89592 34.0808 385.741 -0.179787 -0.483226 -0.856837 0.00854172
7.02285 35.1618 384.845 -0.179273 -0.498157 -0.848352 0.0110364
7.56855 36.6608 384.011 -0.178671 -0.516845 -0.837226 0.0107821
8.82008 37.5128 383.038 -0.177446 -0.530164 -0.82912 0.0107011
9.46374 38.8851 382.067 -0.175875 -0.548605 -0.817374 0.0121276
10.1781 40.1389 380.991 -0.173625 -0.566613 -0.805483 0.0122623
10.8293 41.3803 379.862 -0.170653 -0.58496 -0.792906 0.0129452
11.2887 42.6859 378.711 -0.166973 -0.604321 -0.779048 0.0139577
11.4871 44.1269 377.651 -0.162695 -0.624797 -0.763648 0.0190649
11.5912 45.4948 376.486 -0.158681 -0.657489 -0.736565 0.0239537
11.9952 46.7187 375.229 -0.154523 -0.689394 -0.707713 0.0238723
11.7023 48.0937 374.105 -0.151528 -0.718414 -0.678911 0.0218161
11.7395 49.3058 372.775 -0.148858 -0.743562 -0.651887 0.0194065
12.0068 50.493 371.448 -0.147054 -0.764902 -0.627137 0.0169458
12.6978 51.152 369.923 -0.145284 -0.781961 -0.60616 0.0156625
12.7025 52.3785 368.605 -0.146613 -0.798351 -0.584072 0.0147055
13.2003 53.3252 367.157 -0.147582 -0.812569 -0.563872 0.0122179
14.6313 53.6502 366.115 -0.142997 -0.822491 -0.550509 0.0104106
15.8119 54.271 364.906 -0.139499 -0.833695 -0.534314 0.01
17.4714 54.4173 364.225 -0.131952 -0.840156 -0.526049 0.0070337
19.1353 54.6822 363.591 -0.123938 -0.845989 -0.518596 0.00153658
20.8775 54.2306 363.564 -0.128366 -0.842633 -0.522965 0.007052
22.5555 53.7483 364.002 -0.139974 -0.833943 -0.533803 0.0116351
24.0326 52.9669 364.671 -0.152024 -0.821372 -0.54976 0.0132629
25.5773 52.3152 365.326 -0.164462 -0.808128 -0.56558 0.0143567
26.9671 51.481 366.109 -0.177168 -0.792186 -0.583997 0.0139564
28.6123 50.838 366.455 -0.189294 -0.779238 -0.597458 0.0131057
30.1725 50.0833 366.941 -0.201558 -0.764055 -0.612858 0.0135555
31.7517 49.3101 367.326 -0.213268 -0.749006 -0.627302 0.0129202
33.3384 48.539 367.684 -0.223655 -0.734283 -0.640943 0.0104455
35.0673 48.0509 367.571 -0.232281 -0.72504 -0.648353 0.00880563
36.769 47.4667 367.625 -0.241551 -0.713903 -0.657264 0.00984354
38.4234 46.773 367.772 -0.251144 -0.701527 -0.666923 0.00891289
40.1413 46.2622 367.605 -0.259635 -0.69272 -0.672851 0.00650908
41.8774 45.9736 367.227 -0.267021 -0.686939 -0.67588 0.0069482
43.5351 45.2829 367.104 -0.275954 -0.676764 -0.682524 0.00572682
45.2407 44.9481 366.637 -0.277914 -0.672736 -0.685704 0.01
46.0309 43.6872 367.65 -0.28175 -0.656351 -0.699871 0.0128867
45.8343 42.4424 368.935 -0.286083 -0.639246 -0.713808 0.0132986
46.379 41.0552 369.944 -0.288658 -0.620606 -0.729057 0.0132973
47.2311 39.7028 370.772 -0.29023 -0.602328 -0.743618 0.0139955
47.6793 38.251 371.737 -0.291143 -0.581271 -0.759842 0.0136578
48.8792 37.0572 372.349 -0.291514 -0.564295 -0.772393 0.0136503
49.5479 35.5209 373.007 -0.290976 -0.54215 -0.788293 0.0153304
50.369 34.052 373.646 -0.289679 -0.519203 -0.804061 0.0150491
51.452 32.7366 374.226 -0.288135 -0.497369 -0.818292 0.0104192
52.7325 31.4898 374.44 -0.289717 -0.487517 -0.823645 0.00533562
54.294 30.5965 374.377 -0.291394 -0.480798 -0.826996 0.00532977
55.8754 29.7369 374.39 -0.299179 -0.471844 -0.82937 0.00763841
56.977 28.351 374.715 -0.306336 -0.459513 -0.83367 0.00799215
58.1659 27.028 374.991 -0.313497 -0.448161 -0.837181 0.00716503
59.6215 25.969 374.991 -0.321379 -0.439472 -0.838797 0.00626923
61.2034 25.1103 374.983 -0.329542 -0.432495 -0.839256 0.00624856
62.0629 23.5659 375.324 -0.334652 -0.422881 -0.842128 0.00575995
63.2953 22.2636 375.482 -0.340975 -0.415855 -0.84309 0.0049485
64.6794 21.1128 375.475 -0.347928 -0.411087 -0.842588 0.00329262
65.6113 19.6123 375.821 -0.348599 -0.407127 -0.844231 0.00178536
66.8676 18.3291 375.944 -0.350031 -0.405373 -0.844483 0.00119716
67.9816 16.9318 376.16 -0.351148 -0.40371 -0.844815 0.00103622
68.863 15.4126 376.554 -0.351523 -0.402103 -0.845426 0.00146313
70.4802 14.6589 376.316 -0.355771 -0.402745 -0.843341 0.00234308
71.8464 13.4941 376.188 -0.359121 -0.402604 -0.841987 0.00210272
73.2427 12.3599 376.125 -0.362783 -0.402394 -0.840516 0.00226275
74.601 11.1817 376.041 -0.366676 -0.402033 -0.838998 0.000472224
75.9614 10.0031 376.024 -0.362322 -0.403938 -0.839975 0.00316419
77.5373 9.21 375.667 -0.356322 -0.405415 -0.841827 0.01
78.2904 7.63545 376.107 -0.354379 -0.405319 -0.842693 0.00182728
78.1107 6.05841 376.956 -0.354308 -0.400394 -0.845074 0.00376995
77.9013 4.46068 377.758 -0.35347 -0.393226 -0.848782 0.00443182
77.8161 2.82099 378.495 -0.35254 -0.386315 -0.852336 0.00428111
77.6933 1.23468 379.337 -0.351705 -0.379579 -0.855701 0.00411021
77.7987 -0.359759 380.166 -0.350976 -0.373142 -0.858826 0.00392349
77.8691 -2.04304 380.799 -0.350401 -0.366907 -0.861741 0.00367117
78.2965 -3.72416 381.28 -0.350349 -0.361163 -0.864186 0.00348714
78.3794 -5.41006 381.906 -0.349997 -0.355451 -0.866693 0.00324702
78.9689 -7.05763 382.327 -0.350426 -0.350465 -0.868548 0.00304006
79.5023 -8.72293 382.754 -0.350783 -0.345223 -0.870501 0.00326483
79.672 -10.4232 383.32 -0.350669 -0.339572 -0.872767 0.00330854
80.083 -12.0699 383.92 -0.350986 -0.334124 -0.87474 0.00323438
80.2059 -13.7513 384.551 -0.350884 -0.328703 -0.876832 0.00318586
80.1369 -15.4465 385.152 -0.35046 -0.323483 -0.878941 0.00306801
80.067 -17.1628 385.69 -0.349976 -0.318498 -0.880952 0.00291731
80.1224 -18.8569 386.296 -0.349507 -0.313782 -0.882828 0.00283325
79.7725 -20.476 387 -0.348155 -0.309359 -0.884921 0.0027243
79.7058 -22.1545 387.647 -0.347063 -0.30519 -0.886796 0.00252099
79.6243 -23.829 388.302 -0.345708 -0.301435 -0.888607 0.00258786
78.5633 -25.0404 389.106 -0.343037 -0.298308 -0.890695 0.0025278
78.3358 -26.7256 389.696 -0.341245 -0.294982 -0.89249 0.00241157
77.9642 -28.3448 390.389 -0.339007 -0.291612 -0.894448 0.00247586
77.7588 -30.0035 391.058 -0.336704 -0.288376 -0.896365 0.00257805
77.3309 -31.5922 391.788 -0.333972 -0.284964 -0.898475 0.00288218
76.3533 -32.9143 392.52 -0.330957 -0.281166 -0.900785 0.00292967
76.1072 -34.5936 393.119 -0.32805 -0.27783 -0.902881 0.00286339
75.5986 -36.2051 393.74 -0.324844 -0.274155 -0.90516 0.00309549
74.9231 -37.6723 394.534 -0.32153 -0.270139 -0.907548 0.00283103
73.6324 -38.7455 395.184 -0.319128 -0.267107 -0.909292 0.00233134
73.1065 -40.3478 395.813 -0.31616 -0.265086 -0.910919 0.00230579
72.235 -41.7612 396.508 -0.313221 -0.26246 -0.912693 0.00244652
71.4349 -43.1972 397.241 -0.310111 -0.259794 -0.914515 0.00254993
70.0473 -44.1165 397.926 -0.308031 -0.256089 -0.916262 0.00264098
69.5914 -45.6735 398.706 -0.304459 -0.253744 -0.918106 0.00269604
68.4762 -46.9461 399.32 -0.301648 -0.25014 -0.920021 0.00279396
67.5531 -48.3483 399.969 -0.29844 -0.246714 -0.92199 0.00285973
66.3483 -49.5317 400.592 -0.295955 -0.242555 -0.923893 0.00215752
66.1105 -51.2268 401.149 -0.292316 -0.243629 -0.924768 0.00161799
