# .PCD v0.7 - Point Cloud Data file format
# 5 161 0
# 1 4 0
# 5 36 0
# 37 89 0
# 90 106 0
# 107 161 0
VERSION 0.7
FIELDS x y z normal_x normal_y normal_z curvature
SIZE 4 4 4 4 4 4 4
TYPE F F F F F F F
COUNT 1 1 1 1 1 1 1
WIDTH 161
HEIGHT 1
VIEWPOINT 0 0 0 1 0 0 0
POINTS 161
DATA ascii
44.0899 16.9145 446.028 -0.254726 0.184892 0.949173 0.01
43.939 18.6666 445.644 -0.251906 0.20531 0.945723 0.0122866
43.955 20.4125 445.206 -0.245608 0.227568 0.942279 0.0132927
43.9552 22.1445 444.716 -0.236909 0.250211 0.938759 0.0112011
43.695 23.8807 444.318 -0.23536 0.265735 0.934875 0.00805517
43.4249 25.5767 443.779 -0.235844 0.278145 0.931135 0.00682259
43.3759 27.2752 443.185 -0.236112 0.289163 0.927705 0.00616514
43.2032 28.9737 442.615 -0.236415 0.299275 0.924414 0.00590378
43.2038 30.6525 441.966 -0.235341 0.309397 0.921351 0.00696612
43.1008 32.3354 441.335 -0.236256 0.323035 0.916423 0.00954478
42.9923 33.9873 440.629 -0.238743 0.341318 0.909122 0.0110769
42.6362 35.6348 439.997 -0.241831 0.359397 0.901305 0.0109668
42.3539 37.2684 439.296 -0.243113 0.377337 0.893596 0.0105754
41.9575 38.8802 438.599 -0.244901 0.394041 0.885864 0.0092498
42.0442 40.4669 437.754 -0.250732 0.405838 0.878879 0.0082782
41.9481 42.049 436.901 -0.25994 0.415452 0.871683 0.00829402
41.478 43.6264 436.172 -0.26639 0.426469 0.864384 0.00872007
41.4232 45.1804 435.266 -0.272684 0.439164 0.856025 0.00949029
41.0619 46.7264 434.418 -0.276785 0.453826 0.847013 0.00993373
40.741 48.2543 433.522 -0.279554 0.469106 0.837729 0.0101321
40.5916 49.7607 432.548 -0.28125 0.484711 0.828223 0.0101864
40.5196 51.2337 431.516 -0.282171 0.500268 0.818603 0.0100343
40.2358 52.6936 430.502 -0.282917 0.515195 0.809032 0.00967197
39.7948 54.1252 429.504 -0.283998 0.529282 0.799503 0.00969843
39.3455 55.5369 428.481 -0.285787 0.543724 0.789107 0.0098583
39.1691 56.9487 427.379 -0.287159 0.557758 0.778747 0.00956489
38.9304 58.3256 426.244 -0.288387 0.571176 0.768499 0.00915186
38.3605 59.6467 425.163 -0.290045 0.583463 0.758581 0.0089177
38.1481 60.9892 423.983 -0.290468 0.596039 0.748576 0.0087653
37.7625 62.2923 422.802 -0.290924 0.607951 0.738755 0.00870845
37.5118 63.5743 421.564 -0.290314 0.620252 0.728702 0.0096253
37.4338 64.7839 420.233 -0.288113 0.634718 0.717024 0.00974286
36.6581 65.956 419.109 -0.289297 0.646195 0.706215 0.00974278
36.4138 67.1283 417.765 -0.285987 0.660602 0.69413 0.0106865
36.118 68.3547 416.481 -0.28183 0.675009 0.681861 0.0100495
35.534 69.545 415.263 -0.280218 0.687094 0.670358 0.0102552
35.3573 70.6961 413.891 -0.273945 0.701553 0.657858 0.00992525
34.7718 71.7994 412.595 -0.272895 0.712379 0.646564 0.0100031
34.6141 72.8683 411.155 -0.267557 0.726428 0.633021 0.0106064
34.3377 73.921 409.722 -0.265515 0.738514 0.619757 0.00972413
34.0094 74.9628 408.291 -0.266064 0.749234 0.606513 0.00936988
33.6871 75.9453 406.817 -0.268586 0.758988 0.593126 0.00941585
33.1633 76.9428 405.414 -0.275762 0.766984 0.579388 0.00981702
32.7066 77.8969 403.957 -0.283301 0.774803 0.565173 0.00994368
32.3608 78.819 402.451 -0.290281 0.782621 0.550674 0.0087701
31.9881 79.7096 400.931 -0.297426 0.78742 0.539914 0.00813184
31.5023 80.5895 399.438 -0.306994 0.791562 0.528379 0.00910329
31.0309 81.4259 397.916 -0.317326 0.796056 0.515363 0.0100668
30.4971 82.2453 396.404 -0.32843 0.800899 0.500695 0.0106487
30.1585 83.0063 394.809 -0.338103 0.806522 0.484983 0.0111253
29.7594 83.728 393.209 -0.347593 0.812733 0.467594 0.011657
29.2815 84.4587 391.635 -0.355653 0.819597 0.44919 0.0111702
28.6924 85.1483 390.08 -0.361516 0.826073 0.43233 0.010118
28.3731 85.7893 388.428 -0.366146 0.832032 0.416726 0.00927453
28.0878 86.3536 386.743 -0.369831 0.837572 0.402116 0.00857399
27.7292 86.7194 385.018 -0.371442 0.843252 0.388531 0.00829682
27.6056 86.8848 385.192 -0.370992 0.843169 0.389141 0.00766652
26.9685 87.4224 383.597 -0.36948 0.84945 0.376721 0.00756676
26.2799 87.9332 382.014 -0.365867 0.855854 0.36559 0.00715165
25.8807 88.4663 380.342 -0.363665 0.861339 0.354744 0.01
24.6404 88.1207 379.084 -0.354262 0.867001 0.350441 0.00351143
22.9254 87.5758 379.125 -0.35749 0.867156 0.346759 0.0169551
21.2387 86.9488 379.169 -0.410465 0.847193 0.337316 0.0300593
19.6115 86.1849 379.076 -0.456153 0.82588 0.33143 0.026664
18.0231 85.339 379.118 -0.495305 0.802827 0.331877 0.0244312
16.5466 84.3117 379.05 -0.529585 0.778212 0.337528 0.023858
15.0417 83.3679 378.76 -0.56359 0.752012 0.341824 0.0242333
13.6093 82.2875 378.616 -0.597925 0.724506 0.342894 0.024136
12.1739 81.2107 378.473 -0.631112 0.697367 0.339673 0.0237252
10.8607 80.052 378.057 -0.663257 0.67136 0.330704 0.0168892
9.60505 78.7797 377.846 -0.676853 0.659781 0.326434 0.00423333
8.34696 77.5638 377.423 -0.674564 0.662166 0.326343 0.00187811
7.0168 76.3514 377.398 -0.671896 0.66372 0.328681 0.00214698
5.68629 75.1414 377.323 -0.669115 0.665546 0.330657 0.00191114
4.32024 74.0517 376.891 -0.666883 0.668271 0.329667 0.00459858
3.0002 72.8599 376.614 -0.6813 0.655831 0.325141 0.0111314
1.72761 71.6621 376.183 -0.69596 0.641858 0.32196 0.0115103
0.50616 70.4737 375.603 -0.710365 0.626761 0.320238 0.0118184
-0.761767 69.3461 375.003 -0.724414 0.61027 0.320617 0.0158422
-1.93909 68.1829 374.295 -0.747177 0.583296 0.318579 0.0223091
-3.0451 66.9758 373.547 -0.775089 0.548357 0.313914 0.0262219
-4.25031 65.6804 373.216 -0.803159 0.508626 0.310219 0.0268264
-5.31585 64.3763 372.58 -0.829 0.469337 0.30411 0.0255653
-6.24084 62.9573 371.971 -0.851494 0.431385 0.298103 0.022383
-7.21838 61.5603 371.395 -0.86798 0.399416 0.295089 0.021232
-8.04074 60.0483 370.868 -0.885096 0.363241 0.290967 0.0230193
-8.74509 58.5683 370.124 -0.902086 0.324926 0.284013 0.0231067
-9.29584 56.9431 369.58 -0.916651 0.28778 0.277369 0.0114526
-10.138 55.3878 369.246 -0.914611 0.285914 0.285901 0.00359463
-10.8843 53.8134 368.794 -0.912734 0.288096 0.289686 0.00192468
-11.2608 52.0793 368.492 -0.91195 0.291663 0.288583 0.00342943
-12.0026 50.4419 368.399 -0.91252 0.29699 0.281255 0.01
-11.7764 49.6598 370.004 -0.906308 0.304812 0.292737 0.00732196
-11.4559 49.0312 371.66 -0.901702 0.30992 0.301469 0.00588034
-10.996 48.4752 373.309 -0.897595 0.313437 0.30997 0.00546973
-10.5734 48.2095 375.038 -0.894434 0.312968 0.319435 0.0055621
-10.0473 47.8509 376.722 -0.892055 0.309963 0.328878 0.00518122
-9.57026 47.0145 378.243 -0.888299 0.312194 0.336838 0.00395885
-9.17938 46.8188 379.989 -0.888772 0.305473 0.341717 0.00365824
-8.89586 45.7717 381.425 -0.884082 0.311027 0.348801 0.0046572
-8.52942 44.9664 382.993 -0.881159 0.312487 0.354838 0.00526003
-8.34242 43.7858 384.339 -0.875175 0.320972 0.362003 0.00528365
-7.98698 43.0307 385.933 -0.872164 0.321708 0.368556 0.00605563
-7.77779 42.0637 387.437 -0.867012 0.319812 0.382113 0.00791827
-7.49149 41.1376 388.954 -0.862633 0.316174 0.39484 0.00759714
-7.12638 40.251 390.477 -0.858949 0.311081 0.406736 0.00748888
-6.86189 39.1241 391.856 -0.854051 0.308236 0.419032 0.00748913
-6.626 37.9316 393.183 -0.849099 0.305218 0.43113 0.00724368
-6.22858 36.9817 394.66 -0.846016 0.298532 0.441741 0.00722488
-6.04658 35.7366 395.947 -0.841129 0.294827 0.453408 0.00769519
-5.98157 34.3094 397.042 -0.834872 0.292526 0.466281 0.00795685
-5.71216 32.9696 398.213 -0.829473 0.287971 0.478588 0.00782268
-5.33314 31.7398 399.472 -0.824892 0.281559 0.490182 0.00786332
-5.00947 30.3739 400.598 -0.819204 0.276651 0.502363 0.00791961
-4.68723 29.1009 401.829 -0.813959 0.270556 0.514073 0.00809988
-4.45414 27.635 402.848 -0.8067 0.267504 0.52695 0.00841804
-4.21392 26.2028 403.911 -0.799208 0.264347 0.539804 0.00794441
-3.90071 24.8698 405.08 -0.792939 0.260261 0.550919 0.00733479
-3.52026 23.5992 406.296 -0.788189 0.253094 0.560983 0.00767539
-3.12986 22.2785 407.455 -0.783888 0.243693 0.57108 0.00842605
-2.49826 21.1571 408.714 -0.783975 0.228072 0.577379 0.00985504
-2.27834 19.6351 409.649 -0.778929 0.214385 0.589329 0.0115323
-1.85132 18.2092 410.662 -0.777663 0.19291 0.598352 0.0145687
-1.46421 16.7176 411.592 -0.777014 0.165214 0.607415 0.016025
-0.686263 15.6054 412.774 -0.787176 0.136913 0.601339 0.0159762
-0.23259 14.1108 413.669 -0.794278 0.112123 0.597119 0.0144648
0.370979 12.9123 414.868 -0.804692 0.090555 0.586746 0.0137137
1.03662 11.7321 416.053 -0.813757 0.0715918 0.576779 0.0114012
1.89791 10.7772 417.313 -0.821392 0.0586617 0.567339 0.0083486
2.74733 9.80084 418.564 -0.826012 0.048768 0.561538 0.00528628
3.53365 8.84918 419.874 -0.827641 0.0424196 0.559653 0.00423251
4.52612 7.87029 421.013 -0.8237 0.0344221 0.565981 0.00863808
5.34439 7.58264 422.59 -0.810949 0.03589 0.584015 0.014025
6.32171 7.03782 424 -0.794206 0.0344761 0.60667 0.0175612
7.42651 6.66015 425.37 -0.772498 0.0350231 0.634051 0.0199256
8.55194 6.08708 426.652 -0.74881 0.0323534 0.661994 0.0212823
9.75525 5.73515 427.944 -0.721905 0.0316565 0.691268 0.0220592
10.988 5.51475 429.237 -0.693917 0.032702 0.719312 0.0199724
12.265 4.84698 430.315 -0.671091 0.0266754 0.740895 0.0161072
13.5749 4.22783 431.383 -0.651186 0.0293946 0.758348 0.0176181
14.8092 4.02097 432.677 -0.624242 0.0414537 0.780131 0.0189172
16.1519 3.39625 433.7 -0.600144 0.0475481 0.798477 0.0185735
17.6144 3.09183 434.705 -0.572069 0.0576284 0.818179 0.0178393
19.0965 2.36936 435.427 -0.549142 0.0625218 0.833387 0.0179265
20.3926 2.48429 436.67 -0.521371 0.0733067 0.850175 0.01
21.8721 2.84809 437.629 -0.496686 0.083365 0.863917 0.00818519
23.461 3.04021 438.453 -0.496268 0.0708065 0.865277 0.00697492
24.9913 3.49264 439.285 -0.497702 0.0583894 0.865381 0.00689278
26.424 4.47662 439.754 -0.502094 0.0471729 0.863526 0.00659253
27.5376 5.7577 440.352 -0.507878 0.0377042 0.860604 0.00136065
28.4125 7.0996 441.173 -0.499073 0.0438621 0.865449 0.0109399
29.7401 8.22437 441.634 -0.478829 0.0583338 0.875968 0.0149663
31.2723 9.06353 442.068 -0.457349 0.0701394 0.886517 0.0146297
32.7296 9.98867 442.578 -0.436444 0.0822819 0.895961 0.014088
33.5861 11.4022 443.291 -0.420303 0.0990165 0.901965 0.0163139
34.8463 12.5464 443.876 -0.393815 0.118659 0.911499 0.0198423
36.4602 13.0901 444.459 -0.362254 0.1324 0.922628 0.0207791
37.9773 13.9311 444.94 -0.329294 0.149535 0.932311 0.0218181
39.5869 14.664 445.275 -0.293938 0.166087 0.941284 0.0182866
41.3008 15.065 445.651 -0.269332 0.170954 0.947753 0.0102539
43.002 15.481 446.067 -0.258594 0.170974 0.950735 0.00600964
