# .PCD v0.7 - Point Cloud Data file format
# 5 156 0
# 1 46 0
# 47 62 0
# 63 114 0
# 115 144 0
# 145 156 0
VERSION 0.7
FIELDS x y z normal_x normal_y normal_z curvature
SIZE 4 4 4 4 4 4 4
TYPE F F F F F F F
COUNT 1 1 1 1 1 1 1
WIDTH 156
HEIGHT 1
VIEWPOINT 0 0 0 1 0 0 0
POINTS 156
DATA ascii
26.9097 86.3032 378.595 0.53444 -0.763312 -0.362945 0.01
27.3639 85.872 380.283 0.536335 -0.755961 -0.375323 0.00775434
27.7776 85.2773 381.931 0.537428 -0.749326 -0.386887 0.0117743
28.4159 85.2185 383.613 0.56125 -0.727928 -0.393852 0.0108675
28.7608 84.3677 385.161 0.558689 -0.723676 -0.405165 0.00786899
29.2568 83.8052 386.797 0.566661 -0.711257 -0.415943 0.00799383
29.3942 82.7792 388.27 0.552981 -0.713135 -0.430872 0.00951082
30.0814 82.503 389.911 0.567544 -0.693497 -0.443797 0.0122296
30.5098 81.798 391.51 0.562821 -0.68497 -0.462654 0.0110891
30.9419 81.0947 393.11 0.555225 -0.679775 -0.479199 0.0105412
31.3662 80.2607 394.648 0.544353 -0.677326 -0.494884 0.0108619
31.7029 79.3095 396.138 0.530351 -0.67778 -0.509255 0.0113198
31.9116 78.252 397.58 0.514159 -0.680567 -0.521986 0.00988631
32.4298 77.8396 398.808 0.510092 -0.675409 -0.532569 0.00884615
33.0108 77.2732 400.415 0.501833 -0.67117 -0.545613 0.00983474
33.1573 76.0378 401.716 0.48512 -0.674747 -0.556214 0.0112368
33.5454 75.0447 403.166 0.471377 -0.671366 -0.571902 0.01141
34.1081 74.2279 404.668 0.459924 -0.665984 -0.587311 0.0106207
34.6505 73.5062 406.225 0.449442 -0.660639 -0.601297 0.00951589
34.7345 72.1545 407.411 0.43831 -0.658728 -0.611525 0.00818319
35.1483 71.0976 408.808 0.43086 -0.653277 -0.622566 0.00738726
35.7828 70.4113 410.346 0.42731 -0.646417 -0.6321 0.0068708
36.1456 69.2551 411.677 0.425005 -0.638803 -0.641328 0.00761319
36.5121 68.1279 413.032 0.423827 -0.62831 -0.652378 0.00856102
36.916 66.989 414.366 0.424067 -0.616918 -0.663007 0.00886434
37.2291 65.7477 415.631 0.424902 -0.604636 -0.673702 0.00925628
37.5404 64.484 416.875 0.426485 -0.591432 -0.684338 0.00966362
37.798 63.1514 418.057 0.427986 -0.577492 -0.69522 0.0099272
38.353 62.1563 419.451 0.433269 -0.562768 -0.703968 0.00999648
38.2141 60.561 420.272 0.429946 -0.550151 -0.715878 0.00825781
38.8022 59.4557 421.566 0.438408 -0.539111 -0.719136 0.00829276
39.2007 58.1733 422.764 0.446165 -0.526457 -0.723727 0.00955751
39.6889 56.9964 424.036 0.457694 -0.511779 -0.727048 0.0108173
40.0604 55.6846 425.211 0.468049 -0.495352 -0.731817 0.0113225
40.3493 54.2654 426.28 0.476518 -0.477451 -0.738222 0.0120558
40.6605 52.8588 427.359 0.485745 -0.457843 -0.744601 0.0125148
40.9142 51.3733 428.343 0.492299 -0.437729 -0.752353 0.0121544
41.2493 49.9579 429.404 0.500991 -0.418884 -0.757327 0.0100124
41.2859 48.3052 430.116 0.494497 -0.406007 -0.768525 0.0101284
41.8075 47.1091 431.356 0.509079 -0.386454 -0.769085 0.00931749
41.9095 45.4469 432.039 0.499747 -0.376038 -0.780288 0.00968299
42.0338 43.8515 432.863 0.491029 -0.365856 -0.790594 0.00850985
42.4755 42.493 433.958 0.497802 -0.349005 -0.79397 0.0082712
42.7195 40.937 434.83 0.492086 -0.338539 -0.802024 0.00847973
42.8744 39.3007 435.564 0.4791 -0.333138 -0.812085 0.00762143
43.196 37.7925 436.492 0.476651 -0.322419 -0.817832 0.0118282
43.1672 36.0497 436.941 0.444741 -0.324953 -0.834633 0.0124797
43.4837 34.5378 437.865 0.440418 -0.313104 -0.841426 0.0110814
43.4847 32.8098 438.369 0.418136 -0.304925 -0.855677 0.0122014
43.573 31.1046 438.939 0.416802 -0.283509 -0.863654 0.0116476
43.8496 29.4855 439.675 0.420471 -0.264958 -0.867756 0.00752222
43.6702 27.7192 439.972 0.408745 -0.260624 -0.874644 0.00367276
44.1418 26.1924 440.8 0.418875 -0.252992 -0.872089 0.00374631
44.2726 24.4781 441.333 0.414933 -0.248794 -0.875175 0.00398824
44.3735 22.7637 441.872 0.41089 -0.243052 -0.878689 0.00489165
44.7412 21.155 442.591 0.418093 -0.231839 -0.878322 0.00734263
44.5887 19.369 442.756 0.408553 -0.218475 -0.886202 0.0107308
44.9347 17.7573 443.479 0.422359 -0.194977 -0.88521 0.0154367
44.8686 15.9699 443.68 0.421531 -0.165764 -0.891535 0.01
43.5623 14.8386 443.177 0.385111 -0.158564 -0.909146 0.0197452
41.9596 14.5793 442.399 0.358535 -0.16727 -0.918408 0.0136965
40.5052 13.5768 442.053 0.341964 -0.173354 -0.923585 0.00387704
38.9474 12.7278 441.749 0.347355 -0.175096 -0.921241 0.0107072
37.4857 11.858 441.16 0.376432 -0.160603 -0.912417 0.018502
35.8821 11.2266 440.641 0.404923 -0.14798 -0.902297 0.0176578
34.7373 9.86614 440.361 0.427322 -0.130884 -0.894575 0.0162463
33.4613 8.7095 439.837 0.450316 -0.115706 -0.88534 0.0137261
32.1711 7.59723 439.256 0.466517 -0.105674 -0.878177 0.0117037
30.6472 6.92273 438.575 0.48428 -0.0974056 -0.869474 0.012042
29.4317 5.71331 438.028 0.499561 -0.0838887 -0.862207 0.0122872
28.544 4.26837 437.424 0.513176 -0.0673188 -0.85564 0.00818123
27.0764 3.41595 436.825 0.518654 -0.0648338 -0.852522 0.00309258
25.8925 2.48141 435.842 0.522612 -0.0670693 -0.849929 0.00512798
24.3809 2.18028 434.913 0.532292 -0.0725169 -0.843449 0.00801641
22.8336 1.8336 434.061 0.544768 -0.0778941 -0.834961 0.01
21.2769 2.12836 433.206 0.563905 -0.0795929 -0.821995 0.0151407
19.8435 2.3069 432.133 0.589512 -0.0758647 -0.804189 0.0172293
18.6142 3.02921 431.034 0.613273 -0.0723469 -0.786551 0.0174055
17.2654 3.69574 430.046 0.638751 -0.067644 -0.766434 0.0184127
15.9804 4.46859 429.05 0.664039 -0.0629209 -0.745046 0.0198823
14.7729 5.12417 427.887 0.691841 -0.0571333 -0.719786 0.0229559
13.7726 5.61548 426.474 0.722982 -0.0510491 -0.688979 0.0264539
12.5533 6.08834 425.237 0.757121 -0.0473283 -0.651558 0.0234771
11.3308 6.35901 423.944 0.777961 -0.0592879 -0.625509 0.0185153
10.1605 6.66823 422.611 0.794583 -0.0729616 -0.602756 0.0168761
9.27982 7.15657 421.119 0.809873 -0.0840418 -0.580554 0.0155213
8.44155 7.76353 419.647 0.82353 -0.0932776 -0.559551 0.014096
7.67015 8.47688 418.185 0.835456 -0.101017 -0.540193 0.01259
6.70411 9.01302 416.764 0.845195 -0.109154 -0.523192 0.010127
6.01625 10.0362 415.453 0.852891 -0.110673 -0.510224 0.00829232
5.23435 11.0705 414.204 0.860417 -0.110127 -0.497548 0.00819627
4.81223 12.3181 412.977 0.867808 -0.106684 -0.485312 0.00855298
4.27395 13.3804 411.628 0.875655 -0.103628 -0.471687 0.0081563
3.97766 14.8894 410.692 0.881623 -0.0970261 -0.461873 0.00724006
3.63869 16.3532 409.701 0.887313 -0.0909959 -0.452102 0.0078991
3.13454 17.5217 408.428 0.894323 -0.0864644 -0.438989 0.00832525
2.762 18.8848 407.313 0.900692 -0.0851898 -0.426025 0.00772781
2.29992 20.2257 406.205 0.906282 -0.0857016 -0.413894 0.00736213
1.88909 21.4849 404.986 0.911484 -0.087394 -0.401944 0.00742754
1.37158 22.6066 403.677 0.916652 -0.08937 -0.389566 0.0063632
1.02752 24.0522 402.661 0.919328 -0.0947094 -0.381925 0.00536052
0.790208 25.5464 401.685 0.921086 -0.102072 -0.375743 0.00545234
0.588676 27.0073 400.653 0.922489 -0.10999 -0.370021 0.00424367
0.43978 28.5653 399.764 0.921852 -0.116082 -0.369749 0.00286928
0.160878 29.8779 398.565 0.922812 -0.119521 -0.36624 0.00290305
-0.206687 31.0553 397.254 0.924427 -0.121777 -0.361394 0.00312093
-0.559267 32.2015 395.911 0.926019 -0.124099 -0.356493 0.00302418
-0.821358 33.6339 394.853 0.925851 -0.130194 -0.354752 0.00319698
-1.21229 34.8396 393.575 0.926856 -0.133951 -0.350705 0.00318836
-1.48831 36.1099 392.33 0.927234 -0.139119 -0.347682 0.00297866
-2.01078 36.9672 390.836 0.929493 -0.138877 -0.341696 0.00297839
-2.30771 38.0546 389.433 0.930469 -0.141723 -0.337848 0.00305257
-2.36195 39.4228 388.264 0.929692 -0.148712 -0.336983 0.00283662
-2.74045 40.3356 386.76 0.931349 -0.149768 -0.331901 0.00353403
-3.30132 40.9023 385.146 0.934061 -0.147631 -0.325171 0.00413301
-3.71154 41.3064 383.441 0.936634 -0.145172 -0.318812 0.00263878
-3.92638 42.5864 382.194 0.936246 -0.151282 -0.317106 0.00416394
-4.30833 43.5216 380.704 0.937249 -0.157764 -0.310925 0.0051545
-4.71959 44.3278 379.148 0.938166 -0.164727 -0.304483 0.00564538
-4.95117 45.2359 377.611 0.938308 -0.174018 -0.298825 0.00592103
-5.31466 46.0127 376.028 0.938254 -0.18301 -0.293577 0.00361683
-6.0327 45.8771 374.383 0.939065 -0.183495 -0.290664 0.00403087
-6.24703 46.6879 372.791 0.937784 -0.195252 -0.28712 0.00567815
-6.6361 46.9758 371.057 0.936564 -0.202918 -0.285784 0.00359194
-7.17917 47.1771 369.353 0.933544 -0.19758 -0.299095 0.00997927
-7.47047 48.2317 367.923 0.929912 -0.187717 -0.316267 0.0103295
-7.41207 49.8699 367.18 0.927345 -0.178599 -0.328837 0.01
-6.93259 51.6048 367.193 0.922748 -0.176002 -0.34287 0.00804368
-6.65296 53.3628 367.46 0.917331 -0.17847 -0.355882 0.00709309
-6.09734 54.8969 368.22 0.912816 -0.188959 -0.362025 0.00797097
-5.53836 56.4759 368.88 0.907634 -0.202836 -0.367504 0.0143359
-4.94528 58.0283 369.571 0.895363 -0.23464 -0.37851 0.0239989
-4.30144 59.6564 369.989 0.877305 -0.280365 -0.389526 0.0289733
-3.28802 60.9316 370.755 0.861161 -0.331277 -0.38556 0.032497
-2.43699 62.3857 371.389 0.840394 -0.390209 -0.376132 0.0349262
-1.40593 63.5323 372.317 0.820418 -0.445846 -0.35796 0.0350157
-0.414095 64.9015 372.935 0.792413 -0.502103 -0.346372 0.0321211
0.720867 66.085 373.677 0.766225 -0.545861 -0.339021 0.0270128
1.92028 67.2993 374.249 0.739069 -0.582804 -0.337811 0.0207783
3.17149 68.425 374.888 0.720062 -0.604657 -0.340443 0.0123877
4.44589 69.6929 374.979 0.710746 -0.61652 -0.338738 0.00747401
5.60805 70.5864 376.023 0.702167 -0.622449 -0.345713 0.00659328
6.82877 71.908 375.966 0.694835 -0.629575 -0.34762 0.00614938
8.13306 73.0634 376.417 0.686678 -0.633575 -0.35645 0.00999138
9.38841 74.3409 376.596 0.669355 -0.64623 -0.366539 0.0139006
10.564 75.6944 376.758 0.649477 -0.663237 -0.371881 0.0157296
11.9818 76.71 377.203 0.627604 -0.682957 -0.373742 0.0176515
13.4126 77.7907 377.361 0.60378 -0.706942 -0.368351 0.0205282
14.8549 78.8178 377.685 0.57575 -0.733818 -0.360588 0.022485
16.3182 79.8605 377.792 0.544675 -0.760181 -0.354195 0.0222293
17.7588 80.9379 377.855 0.514027 -0.783456 -0.349246 0.0208481
19.2808 81.8988 377.862 0.484088 -0.803629 -0.346177 0.0166189
20.8302 82.8135 377.915 0.464563 -0.816477 -0.342849 0.00409075
22.4259 83.3313 378.568 0.473129 -0.811962 -0.341856 0.00635092
23.9471 84.2871 378.457 0.484049 -0.806348 -0.339852 0.0101168
25.506 85.1869 378.442 0.503234 -0.791903 -0.345899 0.0195684
