# .PCD v0.7 - Point Cloud Data file format
# 4 167 0
# 1 15 0
# 16 89 0
# 90 109 0
# 110 167 0
VERSION 0.7
FIELDS x y z normal_x normal_y normal_z curvature
SIZE 4 4 4 4 4 4 4
TYPE F F F F F F F
COUNT 1 1 1 1 1 1 1
WIDTH 167
HEIGHT 1
VIEWPOINT 0 0 0 1 0 0 0
POINTS 167
DATA ascii
-47.001 -18.3837 399.733 0.365301 0.0915695 -0.926375 0.01
-48.2925 -17.2442 399.21 0.360749 0.0662027 -0.93031 0.0143318
-49.667 -16.095 399.036 0.348806 0.0439491 -0.936164 0.00909787
-50.1449 -14.3775 398.788 0.359847 0.0349941 -0.932355 0.00719914
-51.2026 -12.9343 398.592 0.351899 0.0186405 -0.935852 0.00724377
-51.7229 -11.2357 398.302 0.36005 0.00929045 -0.932887 0.00664139
-52.4624 -9.61479 398.045 0.359457 -0.00382797 -0.933154 0.00651634
-52.9336 -7.90187 397.756 0.363761 -0.0137495 -0.931391 0.00773332
-53.7917 -6.3424 397.488 0.35025 -0.0297258 -0.936184 0.00863562
-54.2952 -4.63807 397.202 0.351774 -0.0419943 -0.935143 0.0107496
-54.1188 -2.85795 397.002 0.381699 -0.046542 -0.923114 0.00854559
-55.2558 -1.51503 396.623 0.352328 -0.0702817 -0.933234 0.0133981
-55.6909 0.204071 396.314 0.355039 -0.0844672 -0.931028 0.00799447
-56.1822 1.90152 395.972 0.354638 -0.0987537 -0.929774 0.0076931
-56.6151 3.60313 395.575 0.355624 -0.111972 -0.927897 0.00811697
-56.5893 5.36717 395.218 0.372526 -0.119488 -0.920297 0.00700645
-57.3773 6.93389 394.813 0.361146 -0.135286 -0.922644 0.00799348
-57.7914 8.64304 394.429 0.364193 -0.146837 -0.919675 0.00780325
-57.9032 10.3879 394.001 0.376222 -0.156874 -0.913152 0.0114369
-57.758 12.1535 393.682 0.395749 -0.167134 -0.903022 0.00991429
-58.387 13.7592 393.166 0.392493 -0.185068 -0.900943 0.00925931
-58.6838 15.4709 392.695 0.398953 -0.199183 -0.895077 0.00909844
-58.9098 17.1951 392.23 0.40666 -0.211917 -0.888661 0.00867992
-59.1599 18.9194 391.778 0.4132 -0.22406 -0.882645 0.00816147
-59.3183 20.6448 391.291 0.420233 -0.234935 -0.876476 0.00830319
-59.1528 22.3546 390.753 0.431268 -0.24325 -0.868814 0.00910627
-58.8563 24.0795 390.332 0.443738 -0.250991 -0.860291 0.00717574
-59.3614 25.7067 389.752 0.439153 -0.26479 -0.858505 0.00726899
-59.2992 27.4258 389.222 0.443208 -0.27575 -0.852953 0.006695
-59.7121 29.0979 388.699 0.43747 -0.287705 -0.851966 0.00663239
-59.288 30.751 388.127 0.442957 -0.297787 -0.845643 0.00658476
-59.2522 32.4545 387.546 0.440201 -0.309303 -0.842944 0.00682456
-58.9589 34.1285 386.953 0.439634 -0.321089 -0.838823 0.00728321
-59.0844 35.8326 386.387 0.430533 -0.333132 -0.838847 0.00876407
-59.2353 37.5406 385.84 0.419233 -0.345136 -0.839717 0.00784082
-58.8191 39.1695 385.197 0.415342 -0.356403 -0.83694 0.007103
-58.2266 40.7516 384.575 0.413334 -0.368914 -0.832501 0.00814911
-58.0496 42.43 383.95 0.401199 -0.381523 -0.832754 0.0107469
-57.9899 44.112 383.311 0.384188 -0.394215 -0.834862 0.0110256
-57.528 45.6967 382.594 0.373655 -0.409716 -0.832174 0.0117662
-57.3636 47.3577 381.92 0.354748 -0.424394 -0.833093 0.0133209
-57.0917 48.9991 381.233 0.33679 -0.440353 -0.832263 0.0121593
-56.4007 50.4969 380.512 0.331011 -0.45965 -0.824108 0.0110479
-55.9839 52.1074 379.825 0.317996 -0.47351 -0.821381 0.00989188
-55.6826 53.7618 379.183 0.303828 -0.48247 -0.82153 0.00839209
-55.2937 55.3739 378.483 0.293704 -0.491388 -0.819924 0.0061665
-54.605 56.8512 377.719 0.297492 -0.50156 -0.812364 0.00634289
-54.0994 58.4137 376.982 0.294661 -0.51063 -0.807733 0.00671567
-53.3942 59.8786 376.21 0.301859 -0.520827 -0.798512 0.0124391
-52.475 61.2619 375.516 0.323806 -0.532607 -0.781972 0.0108329
-51.923 62.7865 374.734 0.322491 -0.543613 -0.774909 0.00944892
-51.1602 64.2228 373.963 0.333068 -0.557291 -0.760587 0.00845413
-50.8293 65.8218 373.205 0.31627 -0.568696 -0.759314 0.00951784
-49.8486 67.1213 372.438 0.327745 -0.584773 -0.74204 0.00956361
-49.4242 68.6955 371.675 0.308699 -0.596259 -0.741067 0.00959411
-48.5583 70.0353 370.841 0.307036 -0.609582 -0.730848 0.00924436
-47.6805 71.37 370.012 0.308135 -0.621931 -0.719899 0.00912061
-46.8258 72.7327 369.204 0.309243 -0.633899 -0.708901 0.00809897
-46.3838 74.3145 368.467 0.296304 -0.643941 -0.705368 0.00903588
-46.0482 73.9761 368.427 0.308426 -0.645159 -0.69903 0.0170826
-45.0017 75.2157 367.647 0.3128 -0.659495 -0.683537 0.00921662
-44.0348 76.5111 366.855 0.309958 -0.668765 -0.67578 0.00572762
-43.0698 77.7983 366.048 0.304376 -0.674684 -0.672426 0.00582601
-42.2175 79.1527 365.224 0.292903 -0.680299 -0.671864 0.00613694
-41.1486 80.3395 364.394 0.287619 -0.687726 -0.666564 0.00534657
-40.1055 81.561 363.581 0.284783 -0.694087 -0.661167 0.00513156
-38.9831 82.6903 362.742 0.284678 -0.700909 -0.653977 0.00546094
-37.9423 83.8925 361.898 0.281332 -0.708014 -0.647741 0.00646023
-36.8226 85.0048 361.033 0.276658 -0.717258 -0.639532 0.0115404
-35.2017 85.7152 360.704 0.285308 -0.733634 -0.61675 0.0164197
-33.5583 86.4444 360.616 0.280244 -0.754269 -0.593752 0.0166025
-31.9747 87.2998 360.6 0.274678 -0.772434 -0.572624 0.014699
-30.3969 88.1596 360.494 0.275795 -0.786748 -0.552236 0.0132347
-28.7452 88.6526 359.976 0.282708 -0.79721 -0.533416 0.01
-27.4235 88.1933 361.108 0.30682 -0.794056 -0.524725 0.00632834
-26.4955 87.6248 362.542 0.303757 -0.789122 -0.533871 0.00906625
-25.321 87.1558 363.823 0.2898 -0.783135 -0.550196 0.0152075
-24.2268 86.64 365.155 0.268522 -0.774303 -0.573019 0.02039
-22.7152 86.5385 366.128 0.239858 -0.764305 -0.598586 0.0248098
-21.554 85.7969 367.286 0.204594 -0.751008 -0.627796 0.0218647
-20.1278 85.4074 368.312 0.189239 -0.735505 -0.650554 0.0156862
-19.1037 84.4635 369.453 0.178448 -0.722765 -0.667658 0.0122913
-18.1995 83.4825 370.661 0.16839 -0.712013 -0.681676 0.010676
-16.8064 82.8817 371.63 0.163581 -0.700688 -0.694462 0.00986079
-15.9524 81.866 372.846 0.153124 -0.69189 -0.705578 0.0120447
-14.5027 81.2332 373.705 0.136167 -0.680746 -0.719752 0.0167386
-13.2494 80.466 374.745 0.105693 -0.669755 -0.735022 0.0195611
-12.3483 79.3547 375.837 0.0758448 -0.659666 -0.747722 0.0210114
-10.894 78.7117 376.68 0.0421474 -0.64473 -0.763247 0.0230663
-9.7826 77.6609 377.629 0.00845383 -0.625707 -0.780012 0.0239111
-9.04744 76.3158 378.573 -0.022051 -0.601197 -0.798796 0.0241515
-7.99333 75.156 379.458 -0.0513208 -0.575001 -0.816542 0.0227041
-7.4704 73.6602 380.312 -0.0759289 -0.550905 -0.831107 0.0206618
-6.83213 72.2137 381.172 -0.100047 -0.52627 -0.844411 0.0201085
-6.17524 70.7494 381.987 -0.123077 -0.501991 -0.856071 0.0187608
-5.74713 69.2137 382.823 -0.144247 -0.479919 -0.865373 0.0171932
-5.34248 67.6534 383.624 -0.164034 -0.458877 -0.873226 0.0157134
-5.117 66.0346 384.378 -0.181653 -0.439999 -0.879434 0.013838
-4.77437 64.3946 385.036 -0.198209 -0.424214 -0.883604 0.0109777
-5.04453 62.8201 385.866 -0.209613 -0.413755 -0.885929 0.00979984
-4.68166 61.1746 386.499 -0.222038 -0.399693 -0.889351 0.00979743
-4.30702 59.5611 387.203 -0.231822 -0.387143 -0.8924 0.00779448
-4.47458 57.8695 387.795 -0.237606 -0.377471 -0.895019 0.00627922
-4.31752 56.2563 388.578 -0.241725 -0.367747 -0.897959 0.00558725
-4.31187 54.5884 389.255 -0.243073 -0.359119 -0.901082 0.00444009
-3.939 52.9215 389.823 -0.24167 -0.352995 -0.903875 0.00262411
-3.70658 51.2519 390.454 -0.23927 -0.351475 -0.905105 0.00160344
-3.60207 49.5961 391.152 -0.237815 -0.34944 -0.906276 0.00154668
-3.24908 47.9341 391.746 -0.236738 -0.347124 -0.907447 0.00144361
-3.88566 46.3604 392.345 -0.239229 -0.344853 -0.907659 0.00190738
-3.65473 44.6485 392.851 -0.240787 -0.341919 -0.908357 0.0022847
-3.27245 42.9866 393.427 -0.243707 -0.338099 -0.909008 0.00317526
-3.11868 41.3079 394.058 -0.248983 -0.33402 -0.909086 0.00365287
-3.69538 39.7454 394.741 -0.2553 -0.332636 -0.907841 0.00459172
-3.37646 38.085 395.358 -0.262531 -0.325538 -0.908351 0.00536657
-3.11865 36.3729 395.851 -0.268698 -0.318783 -0.908944 0.00430062
-3.19422 34.652 396.373 -0.272073 -0.313514 -0.909772 0.00284993
-3.86514 33.1198 397.038 -0.270602 -0.30925 -0.911668 0.00294694
-3.56796 31.4731 397.701 -0.270963 -0.304004 -0.913324 0.00308868
-3.53284 29.7556 398.239 -0.268209 -0.299216 -0.915715 0.00384579
-3.64861 28.0381 398.765 -0.262757 -0.294346 -0.918868 0.00468433
-3.55935 26.3355 399.342 -0.25554 -0.290231 -0.922207 0.00574518
-3.76319 24.6167 399.836 -0.246154 -0.284779 -0.92645 0.00612014
-4.43655 23.0388 400.381 -0.239894 -0.277366 -0.930333 0.00515253
-4.51445 21.3139 400.89 -0.234727 -0.272197 -0.933173 0.00414236
-4.31706 19.6198 401.465 -0.230341 -0.267307 -0.935676 0.00366304
-4.29392 17.8993 401.994 -0.228454 -0.261564 -0.93776 0.00345315
-4.38223 16.1493 402.405 -0.229089 -0.255489 -0.939278 0.00357306
-4.85359 14.5008 402.953 -0.233792 -0.2501 -0.93957 0.00406044
-5.29146 12.8359 403.479 -0.239602 -0.245334 -0.939362 0.00433284
-4.98324 11.102 403.851 -0.244248 -0.239012 -0.939796 0.00380799
-5.32594 9.4502 404.479 -0.249833 -0.236623 -0.938932 0.00256806
-5.86123 7.79405 404.938 -0.251514 -0.233355 -0.939301 0.00226726
-5.62265 6.07487 405.415 -0.251805 -0.229021 -0.940289 0.0025813
-5.62413 4.31143 405.776 -0.249505 -0.224703 -0.941942 0.00379942
-5.87224 2.56199 406.119 -0.242988 -0.219651 -0.944834 0.00584186
-6.05961 0.868721 406.701 -0.232898 -0.213812 -0.948706 0.00882147
-6.49835 -0.776005 407.286 -0.216306 -0.205536 -0.954446 0.0164901
-7.49172 -2.2161 407.709 -0.192012 -0.175528 -0.965568 0.0240615
-8.42944 -3.71982 408.025 -0.163538 -0.140553 -0.976473 0.0253678
-9.18448 -5.31441 408.381 -0.133619 -0.10829 -0.985099 0.0235034
-9.74176 -7.01245 408.596 -0.107104 -0.0795388 -0.991061 0.0197074
-10.0636 -8.77851 408.728 -0.0889983 -0.054188 -0.994557 0.0176892
-10.5777 -10.5002 408.835 -0.0655382 -0.0318347 -0.997342 0.0164752
-11.0161 -12.246 408.843 -0.0473285 -0.0122475 -0.998804 0.01556
-11.737 -13.8943 408.902 -0.0216606 0.00258199 -0.999762 0.0130453
-12.3449 -15.5882 408.87 -0.00962907 0.0156682 -0.999831 0.0126052
-13.3147 -17.1019 408.961 0.0182274 0.0235523 -0.999556 0.01
-14.9906 -16.4542 408.851 0.0595404 0.0280646 -0.997831 0.0238802
-16.7522 -16.741 408.618 0.0980062 0.0455943 -0.994141 0.0212719
-18.5403 -16.7201 408.412 0.124972 0.0664973 -0.989929 0.0152053
-20.3136 -16.4758 408.223 0.139548 0.0803417 -0.986951 0.0108515
-22.0873 -16.4048 407.925 0.15606 0.0892128 -0.98371 0.00989588
-23.8675 -16.2841 407.688 0.17289 0.0911974 -0.98071 0.00942842
-25.5747 -16.7014 407.299 0.188954 0.0916019 -0.977704 0.00975351
-27.3214 -16.4129 406.974 0.206547 0.0874826 -0.974518 0.0098422
-28.8546 -17.303 406.662 0.221582 0.093189 -0.970679 0.00991863
-30.6063 -17.4199 406.264 0.239078 0.0966031 -0.966183 0.0112949
-32.3101 -17.5076 405.69 0.259595 0.102922 -0.960217 0.0183372
-34.0132 -17.067 405.309 0.300571 0.107841 -0.947643 0.0258587
-35.6763 -17.3447 404.679 0.344053 0.120341 -0.931207 0.026298
-37.2836 -17.3642 403.869 0.384951 0.132326 -0.913401 0.0250108
-38.9011 -17.2254 403.092 0.422862 0.143741 -0.894722 0.00989382
-40.5542 -16.8314 402.498 0.413197 0.147843 -0.89856 0.00525859
-42.1695 -17.185 401.787 0.406479 0.149176 -0.9014 0.004948
-43.8428 -17.4906 401.199 0.399408 0.139491 -0.906099 0.0100904
-45.4294 -17.8443 400.425 0.390345 0.118828 -0.912968 0.0173084
