# .PCD v0.7 - Point Cloud Data file format
# 6 93 0
# 1 4 0
# 5 15 0
# 16 38 0
# 39 58 0
# 59 73 0
# 74 93 0
VERSION 0.7
FIELDS x y z normal_x normal_y normal_z curvature
SIZE 4 4 4 4 4 4 4
TYPE F F F F F F F
COUNT 1 1 1 1 1 1 1
WIDTH 93
HEIGHT 1
VIEWPOINT 0 0 0 1 0 0 0
POINTS 93
DATA ascii
55.8845 -13.4979 406.838 0.568822 0.227219 0.790451 0.01
56.0163 -11.8024 406.249 0.574625 0.255526 0.777504 0.0173665
56.1987 -10.2671 405.327 0.577274 0.283634 0.765706 0.0171866
56.0933 -8.55657 404.776 0.576586 0.312457 0.75493 0.0173539
55.9936 -6.87848 404.133 0.572776 0.342315 0.744815 0.0180561
55.7866 -5.18628 403.555 0.565982 0.373376 0.73502 0.0190604
55.3817 -3.49763 403.082 0.556755 0.405818 0.724801 0.0200382
54.9974 -1.86283 402.434 0.545106 0.439099 0.714179 0.0198468
54.4613 -0.252079 401.835 0.532149 0.469657 0.704443 0.012687
53.758 1.28916 401.227 0.521185 0.477355 0.707459 0.00715085
53.0152 2.81828 400.635 0.511615 0.484241 0.709761 0.00627063
52.2101 4.34807 400.134 0.503459 0.490844 0.711057 0.00541484
51.1378 5.79377 400.129 0.499102 0.498817 0.708575 0.00515273
50.0884 7.21908 399.801 0.493596 0.506014 0.707328 0.00525739
48.8813 8.54999 399.908 0.490829 0.514699 0.702973 0.00575448
47.6558 9.81486 399.536 0.485605 0.523489 0.700105 0.00659524
46.3302 11.0325 399.537 0.481255 0.534616 0.694679 0.0130738
44.9075 12.1352 399.547 0.450431 0.554695 0.699589 0.0202813
43.4498 13.191 399.568 0.420224 0.57381 0.702961 0.0195203
41.9524 14.1887 399.521 0.390947 0.591659 0.705053 0.0186833
40.3788 15.0472 399.685 0.362751 0.608266 0.705992 0.0174965
40.0995 15.1089 400.127 0.358414 0.610716 0.706092 0.016571
38.4454 15.8157 400.194 0.331523 0.625124 0.70662 0.0163681
36.7756 16.406 400.516 0.306065 0.637356 0.707179 0.0152854
35.0705 16.9307 400.755 0.281452 0.647851 0.707866 0.01
33.3825 17.2604 401.286 0.258432 0.655443 0.709653 0.0139859
31.617 17.5316 401.508 0.233532 0.661962 0.712228 0.0143451
29.9149 17.6396 402.084 0.20855 0.664895 0.717232 0.0146385
28.1568 17.7112 402.463 0.182267 0.665993 0.723348 0.0152538
26.3588 17.6885 402.545 0.155433 0.665202 0.730306 0.0165565
24.7729 17.3867 403.341 0.126952 0.660226 0.74026 0.0176419
23.2412 16.9802 404.195 0.0965357 0.653416 0.750818 0.0192912
21.5087 16.6114 404.515 0.0633773 0.645378 0.761229 0.0205755
19.8481 16.148 405.032 0.0280155 0.635269 0.771783 0.0166462
18.3183 15.4601 405.685 0.0112003 0.624228 0.781162 0.0110108
16.7023 14.7983 406.122 0.00051674 0.613308 0.789844 0.01
15.2542 13.9313 406.747 -0.0121239 0.603312 0.797413 0.0099521
13.9297 12.9667 407.493 -0.0260403 0.593998 0.804045 0.0101239
12.7665 11.9257 408.389 -0.0413416 0.585443 0.809658 0.0107281
11.3693 10.8257 408.668 -0.0564843 0.574902 0.816271 0.0114208
10.3355 9.55237 409.409 -0.0749265 0.565876 0.821079 0.0122878
9.31047 8.23972 410.092 -0.0953065 0.55595 0.825734 0.0130302
8.6059 6.88087 411.039 -0.11723 0.547767 0.828377 0.0159072
7.76143 5.4889 411.807 -0.142462 0.52622 0.83833 0.0215698
7.03392 4.01371 412.538 -0.167501 0.494097 0.853119 0.0231256
6.45229 2.49296 413.306 -0.18937 0.463247 0.86576 0.0215468
5.81715 0.8941 413.835 -0.20902 0.433221 0.876716 0.0195713
5.47249 -0.66861 414.659 -0.222145 0.405126 0.886862 0.0170212
5.43262 -2.12633 415.714 -0.227629 0.378899 0.897006 0.016648
4.76662 -3.79583 415.618 -0.236958 0.354424 0.904563 0.0161203
4.83342 -5.45243 416.319 -0.235669 0.327212 0.915092 0.0169692
5.17563 -7.03478 417.106 -0.227602 0.298549 0.926858 0.018404
5.28703 -8.74901 417.644 -0.21851 0.267958 0.938324 0.0166762
5.63476 -10.4143 418.232 -0.20541 0.246718 0.947068 0.0139966
5.97618 -12.1302 418.655 -0.192278 0.228149 0.954451 0.0138169
6.5871 -13.7362 419.191 -0.178437 0.207831 0.961752 0.0142525
7.09102 -15.4386 419.487 -0.164848 0.187281 0.968375 0.0146085
7.80736 -17.0549 419.826 -0.151015 0.164988 0.974666 0.0153088
8.69605 -18.5872 420.146 -0.137368 0.141142 0.980413 0.01
9.83609 -19.9227 420.542 -0.124751 0.11588 0.985398 0.0163771
10.9632 -21.2969 420.826 -0.111795 0.0888847 0.989748 0.0170199
12.277 -22.4943 421.11 -0.0999994 0.0605411 0.993144 0.0180842
13.4813 -23.8306 421.17 -0.0865196 0.0294188 0.995816 0.0190628
14.9154 -24.9072 421.327 -0.0750659 -0.00289775 0.997174 0.0200529
16.2991 -26.0578 421.365 -0.0622181 -0.0384779 0.997321 0.0208852
17.8926 -26.8509 421.633 -0.0354501 -0.0660298 0.997188 0.0212106
19.3873 -27.8522 421.577 0.00124357 -0.080092 0.996787 0.0208108
21.0286 -28.5912 421.569 0.0338057 -0.0938073 0.995016 0.018641
22.5478 -29.4751 421.18 0.0644135 -0.10094 0.992805 0.0170978
24.3042 -29.8683 421.164 0.0913804 -0.1116 0.989543 0.0156286
25.8709 -30.6484 420.743 0.118118 -0.113439 0.986499 0.0149043
27.6669 -30.7353 420.659 0.142227 -0.121517 0.982347 0.0141942
29.4519 -30.8831 420.481 0.166875 -0.125981 0.977896 0.0144352
31.1578 -31.211 420.009 0.192983 -0.125279 0.973171 0.0154326
32.9398 -31.0212 419.84 0.220423 -0.129107 0.966822 0.0163322
34.6482 -31.1634 419.292 0.249688 -0.126081 0.960083 0.0173322
36.3579 -31.1516 418.729 0.280594 -0.122386 0.951992 0.0186671
38.0574 -30.6455 418.419 0.313391 -0.122562 0.941682 0.0200777
39.6239 -30.6879 417.534 0.347128 -0.112568 0.931038 0.01
41.2177 -30.0567 416.985 0.385055 -0.108499 0.916494 0.0253667
42.7741 -29.5344 416.247 0.428445 -0.0861604 0.89945 0.0288879
44.2376 -28.5893 415.794 0.466663 -0.0556975 0.88268 0.0224399
45.6964 -27.9577 414.95 0.475612 -0.0247712 0.879306 0.0181167
46.9432 -26.782 414.399 0.488797 0.00361174 0.87239 0.0167531
48.2338 -25.7644 413.665 0.497517 0.0298902 0.866939 0.0151428
49.4156 -24.5932 412.978 0.505969 0.0539656 0.860862 0.0140435
50.5055 -23.4021 412.182 0.513174 0.0763822 0.854879 0.0130937
51.5745 -22.2014 411.373 0.519484 0.0975057 0.848899 0.012581
52.4422 -20.7345 410.794 0.527703 0.116771 0.841365 0.0121821
53.267 -19.2561 410.182 0.535613 0.135287 0.833556 0.0119109
54.0989 -17.8675 409.395 0.542905 0.153575 0.825632 0.0118006
54.8666 -16.5119 408.493 0.55062 0.171372 0.816976 0.0144693
55.486 -15.0863 407.585 0.560166 0.197844 0.804408 0.0179727
