# .PCD v0.7 - Point Cloud Data file format
# 3 154 0
# 1 72 0
# 73 146 0
# 147 154 0
VERSION 0.7
FIELDS x y z normal_x normal_y normal_z curvature
SIZE 4 4 4 4 4 4 4
TYPE F F F F F F F
COUNT 1 1 1 1 1 1 1
WIDTH 154
HEIGHT 1
VIEWPOINT 0 0 0 1 0 0 0
POINTS 154
DATA ascii
-3.81936 -67.4041 439.158 0.0132118 -0.284614 0.958551 0.01
-2.10738 -66.854 439.239 0.0161723 -0.271279 0.962365 0.0109042
-1.07628 -65.5004 439.826 0.0418471 -0.261675 0.964248 0.0160133
0.602668 -64.8527 439.867 0.0694573 -0.258215 0.963587 0.0127148
2.17359 -63.9854 440.008 0.087111 -0.255945 0.962758 0.00784637
3.30826 -62.6067 440.236 0.0951406 -0.247742 0.964143 0.00997136
4.48803 -61.262 440.435 0.115934 -0.23469 0.965132 0.0193529
5.94812 -60.2108 440.38 0.15706 -0.217193 0.96341 0.0283598
7.33395 -59.0625 440.411 0.209437 -0.194494 0.958284 0.0290207
7.21443 -58.8335 440.653 0.20645 -0.193679 0.959097 0.0324106
8.53078 -57.6247 440.439 0.264212 -0.170061 0.949353 0.0270754
9.41727 -56.0606 440.527 0.290564 -0.149706 0.945072 0.0167497
10.6042 -54.7543 440.173 0.311294 -0.134761 0.94071 0.0110075
11.5149 -53.226 439.9 0.320606 -0.124923 0.938939 0.0052371
12.1884 -51.56 440.004 0.317082 -0.116991 0.941155 0.00669195
12.7734 -49.8601 440.094 0.303365 -0.109912 0.946514 0.00903331
13.5342 -48.2293 440.135 0.289125 -0.104198 0.951604 0.00901889
14.5686 -46.7606 440.022 0.274195 -0.100188 0.956441 0.00823302
15.3602 -45.144 440.022 0.265217 -0.0890685 0.960066 0.00687328
16.4351 -43.7132 439.829 0.264515 -0.0780844 0.961215 0.00740533
17.2055 -42.0898 439.723 0.268519 -0.0627829 0.961226 0.00932267
18.1877 -40.6057 439.454 0.278338 -0.0476919 0.959298 0.0105297
19.1592 -39.1199 439.156 0.290498 -0.032291 0.956331 0.01106
20.0459 -37.5697 438.931 0.301705 -0.0160546 0.953266 0.0116791
20.5969 -35.8595 438.823 0.316987 -0.000938918 0.94843 0.0146659
21.4243 -34.2882 438.529 0.340717 0.0165368 0.940021 0.0192162
22.2997 -32.7789 438.087 0.371567 0.0360288 0.927707 0.0205831
22.8815 -31.0952 437.829 0.400095 0.0522297 0.914984 0.0198858
23.465 -29.443 437.417 0.430003 0.0668799 0.900347 0.0161049
23.6334 -27.6608 437.228 0.4463 0.0770495 0.89156 0.0144345
24.182 -26.0137 436.753 0.471363 0.0874004 0.877598 0.0108977
24.1904 -24.2229 436.571 0.475532 0.0956409 0.874484 0.00859354
24.7821 -22.6152 436.019 0.494111 0.101594 0.863442 0.00581546
24.761 -20.8214 435.871 0.487891 0.109575 0.866 0.00720716
24.8405 -19.0503 435.56 0.483956 0.125283 0.866078 0.0098631
24.7298 -17.2614 435.394 0.474597 0.142309 0.868623 0.0105005
24.6284 -15.4799 435.157 0.466772 0.158714 0.870019 0.0093137
24.6713 -13.7163 434.8 0.463429 0.173873 0.868908 0.00842131
24.7515 -11.9697 434.372 0.461634 0.188413 0.86683 0.00826721
24.7796 -10.2078 434.004 0.458602 0.202993 0.865146 0.00828798
24.7516 -8.45095 433.614 0.455219 0.21735 0.863444 0.00817629
24.6688 -6.70532 433.183 0.451745 0.231392 0.861617 0.00759247
24.7216 -4.99313 432.63 0.451634 0.243901 0.858219 0.00689052
24.6973 -3.25383 432.167 0.449106 0.255438 0.856187 0.00732724
24.4182 -1.52312 431.759 0.441943 0.268258 0.855993 0.00801201
24.2727 0.212146 431.303 0.436372 0.281249 0.85468 0.00794994
24.1371 1.91106 430.724 0.43113 0.294551 0.852858 0.0080418
24.0796 3.60822 430.127 0.426311 0.308064 0.850503 0.00874543
23.8476 5.30998 429.588 0.418096 0.322914 0.849071 0.00994714
23.5447 7.01767 429.106 0.408011 0.338716 0.84782 0.0100232
23.3119 8.58063 428.245 0.400583 0.353939 0.845139 0.0110225
22.8218 10.3055 428.087 0.385265 0.370015 0.845376 0.0123661
22.3027 11.9615 427.61 0.369878 0.385916 0.845138 0.0127811
21.7155 13.5853 427.101 0.353081 0.402867 0.844412 0.0131465
21.1705 15.2008 426.524 0.337167 0.420008 0.842563 0.0125201
20.7356 16.8051 425.833 0.323848 0.43673 0.839279 0.0129844
19.8413 18.3211 425.456 0.3063 0.453852 0.836779 0.0124966
19.3485 19.8781 424.699 0.295411 0.470053 0.831735 0.0113939
18.6686 21.4136 424.051 0.283293 0.486175 0.826667 0.0110661
18.1088 22.9459 423.291 0.27424 0.501774 0.820375 0.00921588
17.3272 24.4341 422.647 0.263811 0.511424 0.817832 0.00730834
16.6 25.9356 421.971 0.255308 0.519381 0.815513 0.00605676
16.0905 27.4503 421.143 0.249733 0.52705 0.812313 0.00570089
15.0829 28.816 420.543 0.242996 0.534347 0.809584 0.00460551
14.394 30.2635 419.725 0.247142 0.540982 0.803902 0.0052532
14.0057 31.6951 418.705 0.249133 0.548174 0.798397 0.00589699
13.206 33.1648 418.041 0.256802 0.554774 0.791377 0.00757307
12.0893 34.5011 417.586 0.267384 0.56127 0.783251 0.00686375
11.5909 35.9748 416.68 0.267271 0.570625 0.776501 0.00687653
10.8923 37.4229 415.871 0.266565 0.581291 0.768794 0.00954171
10.1666 38.8618 415.069 0.262938 0.598427 0.756801 0.012626
9.53722 40.1892 414.029 0.249308 0.616819 0.746579 0.0178102
8.79796 41.5693 413.141 0.21482 0.637226 0.740132 0.0240813
7.78357 42.8635 412.409 0.174314 0.657402 0.733101 0.0230551
6.96128 44.0715 411.358 0.142899 0.674487 0.724325 0.0174322
6.53023 45.3454 410.161 0.123233 0.688186 0.714992 0.0157925
5.45465 46.4915 409.284 0.0978612 0.701529 0.70589 0.0133665
4.77395 47.722 408.161 0.0864053 0.712259 0.696578 0.0077975
3.74401 48.8386 407.195 0.0852261 0.719759 0.688972 0.00646345
2.89051 49.9895 406.105 0.0973072 0.725706 0.681089 0.0108553
1.11854 50.2073 405.876 0.119811 0.720903 0.682601 0.01
0.814817 49.1215 407.279 0.115198 0.712231 0.692428 0.00789217
-0.16852 48.033 408.322 0.117083 0.70187 0.702616 0.00808908
-0.82442 46.9076 409.564 0.1125 0.69206 0.71302 0.00937305
-1.44948 45.7361 410.78 0.100034 0.682311 0.724185 0.0106665
-2.09467 44.5264 411.946 0.087831 0.672427 0.734934 0.0102141
-2.63851 43.3165 413.163 0.0766257 0.662874 0.7448 0.00917828
-2.85921 42.0756 414.448 0.0674914 0.654212 0.753294 0.0086814
-3.79924 40.8972 415.432 0.0590945 0.644821 0.762046 0.00784062
-4.46351 39.609 416.499 0.0531365 0.636336 0.76958 0.00665213
-4.92252 38.2972 417.643 0.049205 0.628405 0.776329 0.00709701
-5.42056 36.9578 418.737 0.0444902 0.617898 0.784998 0.00871901
-6.11012 35.6134 419.716 0.0364209 0.606261 0.794431 0.00950562
-6.44617 34.2735 420.87 0.0299953 0.593757 0.804085 0.00973133
-6.93784 32.8655 421.878 0.0214871 0.581087 0.813558 0.00990162
-7.40998 31.4539 422.89 0.0130666 0.568447 0.822616 0.00960897
-7.88629 30.0192 423.867 0.00519114 0.556117 0.831088 0.00905986
-8.41425 28.5579 424.776 -0.00188833 0.544421 0.83881 0.00786031
-9.03215 27.0746 425.587 -0.0045321 0.533856 0.845563 0.00719816
-8.89955 25.6812 426.719 -0.00526818 0.523273 0.852149 0.00703913
-9.47697 24.191 427.547 -0.0020689 0.512883 0.858456 0.00739645
-9.71832 22.6849 428.503 -0.00459522 0.500523 0.865711 0.00827013
-9.9486 21.1371 429.392 -0.00974423 0.487964 0.87281 0.00922228
-10.4847 19.5984 430.157 -0.0199143 0.474859 0.879837 0.0100783
-10.8356 18.0326 430.973 -0.0308338 0.461839 0.886428 0.00977921
-11.0301 16.4456 431.799 -0.0406744 0.449403 0.892403 0.010388
-11.5212 14.8748 432.528 -0.0555759 0.436502 0.897985 0.010278
-11.736 13.2531 433.279 -0.0660409 0.424762 0.902893 0.00866548
-11.8967 11.6152 434.008 -0.0746805 0.413693 0.907348 0.00985989
-12.1568 9.97133 434.694 -0.0848713 0.396805 0.913971 0.0105677
-12.1533 8.35453 435.485 -0.0883215 0.380811 0.920425 0.0106965
-12.6562 6.7144 436.03 -0.102023 0.364862 0.925455 0.0103099
-12.7717 5.0841 436.784 -0.105335 0.349852 0.930864 0.00928563
-13.2404 3.38807 437.163 -0.11509 0.335954 0.93482 0.00838544
-13.2133 1.7007 437.79 -0.111809 0.322217 0.94004 0.00834747
-13.2233 0.0126119 438.414 -0.107258 0.308809 0.945057 0.00806602
-13.3622 -1.70716 438.927 -0.103176 0.296208 0.949534 0.00833621
-13.3972 -3.43846 439.419 -0.0950506 0.283043 0.954386 0.00958699
-13.4356 -5.16472 439.927 -0.0871059 0.267386 0.959644 0.0101092
-13.4762 -6.89859 440.409 -0.0805714 0.251245 0.964564 0.00948736
-13.7956 -8.65048 440.671 -0.0787145 0.235701 0.968633 0.0101833
-13.3293 -10.2679 441.309 -0.0701292 0.218419 0.973332 0.0102459
-13.6427 -12.0224 441.56 -0.0709491 0.201774 0.976859 0.00980941
-13.0683 -13.6544 442.057 -0.0657177 0.185351 0.980472 0.00996058
-13.4868 -15.399 442.203 -0.0703845 0.168108 0.983253 0.00995481
-13.2358 -17.1466 442.554 -0.0712761 0.151074 0.985949 0.00960707
-13.3232 -18.9365 442.722 -0.07644 0.134588 0.987949 0.00808105
-13.2153 -20.7184 442.953 -0.0792299 0.12333 0.989198 0.00667197
-13.2412 -22.5138 443.079 -0.0811187 0.111193 0.990483 0.0069633
-12.7507 -24.1901 443.514 -0.0766713 0.0989382 0.992135 0.00753705
-12.712 -25.9841 443.655 -0.0748841 0.0852955 0.993538 0.00794101
-12.5935 -27.7741 443.803 -0.0713404 0.0709982 0.994922 0.00837483
-12.5169 -29.5713 443.868 -0.067427 0.0562093 0.99614 0.00882675
-12.2821 -31.3527 443.976 -0.0620773 0.0407249 0.99724 0.00918526
-12.0536 -33.1373 444.031 -0.0569818 0.0248978 0.998065 0.00922012
-11.8403 -34.924 444.076 -0.0520887 0.00910119 0.998601 0.00956216
-11.3703 -36.6582 444.184 -0.0461456 -0.00766287 0.998905 0.0099565
-11.2431 -38.4523 444.113 -0.0417902 -0.0250085 0.998813 0.0101304
-10.8275 -40.2036 444.114 -0.0381898 -0.0431185 0.99834 0.0103208
-10.6802 -41.9929 443.984 -0.0362051 -0.0615838 0.997445 0.0101834
-10.1643 -43.717 443.948 -0.038324 -0.0794987 0.996098 0.0103468
-10.0736 -45.5011 443.727 -0.0396633 -0.098226 0.994373 0.0102911
-9.56601 -47.224 443.609 -0.034698 -0.115935 0.992651 0.0101741
-9.069 -48.9448 443.43 -0.0301952 -0.133401 0.990602 0.00975174
-8.94953 -50.7097 443.098 -0.0300447 -0.150212 0.988197 0.00931497
-8.40293 -52.413 442.897 -0.0221626 -0.165354 0.985985 0.00927957
-8.19878 -54.1509 442.475 -0.0173242 -0.180495 0.983423 0.00948518
-7.65576 -55.8445 442.198 -0.00736867 -0.195464 0.980683 0.0101978
-7.12251 -57.5251 441.836 0.00294052 -0.210531 0.977583 0.0104233
-6.5391 -59.1962 441.509 0.0138535 -0.225694 0.9741 0.0101141
-5.95888 -60.8575 441.13 0.0222269 -0.240558 0.97038 0.00911815
-5.58401 -62.5378 440.605 0.0273346 -0.254592 0.966662 0.00781911
-4.87567 -64.1505 440.234 0.028634 -0.266877 0.963305 0.00674991
-4.49537 -65.8095 439.648 0.0249654 -0.277778 0.960321 0.00668713
