# .PCD v0.7 - Point Cloud Data file format
# 5 152 0
# 1 29 0
# 30 91 0
# 92 116 0
# 117 149 0
# 150 152 0
VERSION 0.7
FIELDS x y z normal_x normal_y normal_z curvature
SIZE 4 4 4 4 4 4 4
TYPE F F F F F F F
COUNT 1 1 1 1 1 1 1
WIDTH 152
HEIGHT 1
VIEWPOINT 0 0 0 1 0 0 0
POINTS 152
DATA ascii
-12.0328 36.3833 370.078 -0.535537 -0.19253 -0.822273 0.01
-11.1258 37.7134 369.273 -0.548291 -0.191359 -0.8141 0.00601512
-9.70669 38.202 368.279 -0.552692 -0.193667 -0.81057 0.00189533
-8.56004 38.8927 367.076 -0.553695 -0.188587 -0.811084 0.00528145
-6.94895 40.2691 366 -0.549383 -0.173214 -0.81742 0.00887218
-6.10238 41.6496 365.214 -0.542575 -0.156625 -0.825276 0.0111446
-5.03647 42.5092 364.046 -0.533485 -0.141183 -0.833943 0.014861
-3.70028 43.2782 363.116 -0.505626 -0.130084 -0.85289 0.0227478
-2.52107 44.3986 362.346 -0.467987 -0.11739 -0.875904 0.0250533
-1.46497 45.6882 361.666 -0.431744 -0.102341 -0.896171 0.0237274
-0.565718 47.1342 361.083 -0.398346 -0.0854598 -0.913245 0.0249241
0.616108 48.3724 360.526 -0.356821 -0.0691151 -0.931612 0.0283003
2.06355 49.2817 359.962 -0.309044 -0.0546506 -0.949476 0.0265947
3.3272 50.4815 359.511 -0.272101 -0.0374874 -0.961538 0.0198119
4.26881 52.0079 359.358 -0.251337 -0.0185089 -0.967723 0.0158952
5.59484 53.1847 359.046 -0.229073 -0.00273312 -0.973405 0.0142851
7.03934 54.1191 358.517 -0.209063 0.00851467 -0.977865 0.0115009
8.32525 55.3541 358.269 -0.195483 0.0198441 -0.980506 0.00858709
9.82785 56.3234 358.063 -0.183872 0.0255347 -0.982618 0.00438549
11.3546 57.2412 357.805 -0.181359 0.0264096 -0.983062 0.00134242
12.6076 58.5176 357.603 -0.184694 0.0208119 -0.982576 0.0019732
14.0979 59.4873 357.323 -0.185007 0.0203885 -0.982526 0.00125646
15.4738 60.6225 357.081 -0.182138 0.0245143 -0.982967 0.00446941
16.8909 61.7196 356.913 -0.175479 0.0332725 -0.983921 0.00776621
18.5006 62.46 356.596 -0.166356 0.0472621 -0.984933 0.0176832
20.0509 63.3641 356.457 -0.11963 0.0627034 -0.990837 0.0287814
21.5792 64.3136 356.406 -0.0691889 0.0818901 -0.994237 0.0308426
23.1178 65.2457 356.468 -0.0165026 0.103531 -0.994489 0.0318877
24.6841 66.1301 356.537 0.0366569 0.126201 -0.991327 0.0304957
25.7327 67.5411 356.923 0.0806084 0.147629 -0.985752 0.0276765
27.4108 68.1763 357.067 0.120866 0.169238 -0.978136 0.0219159
28.9666 68.9984 357.446 0.145889 0.188843 -0.97111 0.0152897
30.4394 69.9774 357.781 0.161105 0.2045 -0.965518 0.01
32.0118 69.1252 357.985 0.167451 0.197831 -0.965828 0.00888347
32.5056 67.4235 357.668 0.176791 0.179964 -0.967656 0.012689
33.2436 65.7845 357.575 0.193916 0.160895 -0.967734 0.0126768
33.927 64.1208 357.502 0.204147 0.143452 -0.968373 0.00991133
34.3497 62.3916 357.235 0.208666 0.128619 -0.969492 0.00810675
34.9022 60.6867 357.067 0.211494 0.115323 -0.970552 0.00719544
35.4029 58.962 356.946 0.213231 0.103208 -0.971535 0.00640285
36.2102 57.3563 357.046 0.216827 0.0930752 -0.971763 0.00607514
36.7403 55.6368 356.999 0.21969 0.082419 -0.972082 0.00759219
37.286 53.9215 357.007 0.223307 0.0665357 -0.972475 0.00997937
37.9352 52.246 357.113 0.230562 0.0482101 -0.971863 0.0112038
38.5232 50.5528 357.279 0.23972 0.029764 -0.970386 0.0116593
39.1369 48.8727 357.48 0.251324 0.011959 -0.967829 0.0097431
39.4701 47.1038 357.473 0.243869 -0.00488206 -0.969796 0.0104107
39.9062 45.3598 357.562 0.23266 -0.0201907 -0.972348 0.00987792
40.2167 43.5873 357.606 0.225253 -0.0349001 -0.973675 0.00925762
40.7698 41.9061 357.934 0.215178 -0.0481765 -0.975386 0.00940629
40.9198 40.1123 357.94 0.212295 -0.0657611 -0.97499 0.00987094
41.3275 38.3784 358.199 0.208243 -0.0828309 -0.974563 0.00969536
41.5558 36.6018 358.377 0.207063 -0.100167 -0.973186 0.00950497
42.1342 34.945 358.777 0.205119 -0.116542 -0.971774 0.00916879
42.571 33.2402 359.155 0.20504 -0.132896 -0.969689 0.0091183
42.6638 31.4524 359.343 0.206133 -0.148817 -0.967142 0.008843
43.1019 29.7704 359.811 0.206704 -0.16401 -0.964559 0.00949624
43.0979 27.9793 359.99 0.207825 -0.182027 -0.96108 0.0102812
43.6422 26.3697 360.584 0.210316 -0.199333 -0.957096 0.010172
43.7827 24.6135 360.953 0.213162 -0.21691 -0.952634 0.0100651
43.8015 22.844 361.282 0.216111 -0.233885 -0.947942 0.0100771
44.1036 21.1611 361.844 0.22086 -0.250678 -0.94254 0.0100908
44.2979 19.4643 362.413 0.225939 -0.267026 -0.936829 0.00993553
44.4473 17.7451 362.925 0.231302 -0.282827 -0.930864 0.0101542
44.7463 16.1064 363.607 0.238443 -0.298814 -0.924043 0.00997181
44.6775 14.3833 364.123 0.242383 -0.314151 -0.91791 0.00911617
44.4464 12.6427 364.519 0.243657 -0.32898 -0.912362 0.00962509
44.8012 11.0659 365.312 0.251058 -0.344192 -0.904711 0.00969678
44.7481 9.37014 365.913 0.253033 -0.359193 -0.898307 0.00911573
44.7267 7.70329 366.592 0.25448 -0.374143 -0.891772 0.00905592
44.6916 6.04584 367.293 0.254614 -0.389056 -0.885329 0.00871656
44.7939 4.53156 368.261 0.256076 -0.402548 -0.878852 0.00888317
44.2327 2.83929 368.508 0.245644 -0.416665 -0.875242 0.00876109
44.5998 1.40471 369.532 0.247246 -0.428981 -0.868818 0.00897232
44.3 -0.251508 370.17 0.238036 -0.444837 -0.8634 0.010626
44.1524 -1.86056 370.963 0.229946 -0.460943 -0.857121 0.0113539
43.7599 -3.47346 371.659 0.219053 -0.478465 -0.850345 0.0112042
43.921 -4.94834 372.678 0.213379 -0.494031 -0.842854 0.0100803
43.8703 -6.42513 373.706 0.20565 -0.508871 -0.835918 0.0101345
43.3036 -8.03241 374.285 0.195787 -0.522396 -0.829922 0.00984422
42.9201 -9.55185 375.171 0.187709 -0.536285 -0.822899 0.00997868
42.2355 -10.8394 376.226 0.180809 -0.550981 -0.814695 0.00911873
40.7381 -11.8342 376.317 0.177835 -0.561318 -0.808267 0.00673688
39.3092 -12.873 376.662 0.176766 -0.57098 -0.801708 0.00739
38.2942 -14.1772 377.375 0.178078 -0.582621 -0.792995 0.00982642
38.379 -15.6108 378.461 0.179342 -0.597545 -0.781522 0.0107213
38.1048 -17.0115 379.557 0.182631 -0.612393 -0.769169 0.0105829
37.7596 -18.4543 380.577 0.18693 -0.625852 -0.757209 0.00987537
37.4413 -19.8533 381.664 0.191054 -0.637979 -0.745977 0.00909975
37.0661 -21.2282 382.763 0.195196 -0.648875 -0.735431 0.008392
36.844 -22.549 383.966 0.196886 -0.659401 -0.725552 0.00778057
36.4032 -23.9026 385.067 0.194915 -0.669601 -0.716688 0.00762959
36.283 -25.1243 386.384 0.189769 -0.679588 -0.708624 0.0157835
35.0382 -26.2723 386.994 0.14845 -0.692351 -0.706125 0.0226686
33.6128 -27.2281 387.537 0.111697 -0.70193 -0.703433 0.01
31.8236 -27.2186 387.339 0.0749931 -0.701383 -0.708828 0.019678
30.1157 -26.8311 386.924 0.0433381 -0.694584 -0.718105 0.020929
28.5019 -26.3146 386.316 0.00410673 -0.685466 -0.728093 0.0232839
26.7087 -26.1989 386.212 -0.0359188 -0.678496 -0.733726 0.0228152
25.1086 -25.5767 385.671 -0.0736158 -0.668112 -0.74041 0.022151
23.3825 -25.1161 385.451 -0.111864 -0.658324 -0.744376 0.018835
21.7042 -24.4852 385.292 -0.137861 -0.648395 -0.748718 0.0106921
19.9714 -24.0011 385.236 -0.145315 -0.641559 -0.753184 0.00498103
18.2007 -23.7987 385.489 -0.151088 -0.638197 -0.754902 0.00367226
16.4721 -23.3295 385.667 -0.156545 -0.635349 -0.756191 0.00322443
14.7374 -22.8531 385.607 -0.161351 -0.633236 -0.756953 0.00676121
13.1998 -22.1195 385.026 -0.179167 -0.627527 -0.7577 0.0118484
11.4386 -21.7851 385.188 -0.201478 -0.623207 -0.755658 0.0130497
9.7225 -21.242 385.195 -0.224561 -0.616292 -0.754822 0.0138243
8.0696 -20.5305 385.236 -0.248604 -0.607457 -0.754448 0.0154409
6.36639 -20.5471 385.819 -0.275826 -0.600596 -0.750469 0.0175225
4.67364 -20.1936 386.318 -0.308242 -0.589707 -0.74648 0.0192692
3.03036 -19.7735 386.921 -0.340608 -0.577423 -0.742004 0.0201502
1.34039 -19.154 386.909 -0.373425 -0.561902 -0.738119 0.0194874
-0.26313 -19.0119 387.714 -0.401638 -0.549839 -0.732369 0.017608
-1.90884 -18.6119 388.324 -0.429718 -0.5356 -0.726963 0.0178986
-3.4865 -18.3505 389.15 -0.457988 -0.521606 -0.719843 0.0173774
-4.94108 -18.4834 390.202 -0.483847 -0.509574 -0.711496 0.0174915
-6.46378 -18.3484 391.152 -0.511908 -0.494729 -0.702277 0.016512
-7.98105 -17.5105 391.638 -0.531917 -0.48099 -0.696931 0.01
-8.52282 -15.891 391.069 -0.54184 -0.47135 -0.695872 0.00740319
-9.10723 -14.3104 390.436 -0.549977 -0.461415 -0.696148 0.00686664
-9.46638 -12.7217 389.67 -0.555635 -0.451076 -0.698427 0.0069975
-9.62933 -11.1647 388.782 -0.559232 -0.439121 -0.703159 0.00667643
-9.78582 -9.56756 387.966 -0.562399 -0.429502 -0.706566 0.00571205
-10.2072 -7.90442 387.422 -0.566482 -0.420779 -0.70855 0.00485997
-10.1858 -6.43191 386.387 -0.567551 -0.413949 -0.71171 0.00419937
-10.3732 -4.85149 385.546 -0.569253 -0.407127 -0.714282 0.00384934
-10.1028 -3.41852 384.491 -0.568325 -0.401806 -0.718024 0.0035779
-10.3378 -1.7694 383.809 -0.569528 -0.395992 -0.720297 0.00377774
-10.5211 -0.113756 383.127 -0.570181 -0.389433 -0.723351 0.00518224
-10.4983 1.48153 382.293 -0.569677 -0.379538 -0.728985 0.00636857
-10.2674 2.98722 381.334 -0.567679 -0.370128 -0.735354 0.00630505
-10.3084 4.65909 380.669 -0.567086 -0.360416 -0.740617 0.00614221
-10.3133 6.31296 379.958 -0.565639 -0.350988 -0.74623 0.00624797
-10.2487 7.88098 379.077 -0.563011 -0.34178 -0.752466 0.00634581
-10.2256 9.46725 378.226 -0.559938 -0.332768 -0.758772 0.00617532
-10.337 11.1642 377.636 -0.556261 -0.324756 -0.764923 0.00620895
-10.0627 12.6771 376.7 -0.552322 -0.316254 -0.771313 0.00609179
-10.2065 14.382 376.141 -0.547823 -0.3092 -0.777358 0.00582571
-10.2944 16.0839 375.562 -0.542945 -0.302054 -0.783565 0.00597415
-10.5044 17.8187 375.13 -0.536884 -0.295811 -0.790096 0.00604572
-10.5085 19.4486 374.366 -0.532265 -0.288015 -0.796079 0.00606685
-10.5646 21.1481 373.776 -0.526821 -0.280769 -0.802265 0.00645522
-10.8353 22.9247 373.673 -0.518126 -0.275932 -0.809572 0.00506077
-10.3041 24.2567 372.585 -0.520358 -0.267751 -0.810886 0.00435725
-10.7224 25.9911 372.348 -0.512406 -0.264734 -0.816919 0.00465969
-10.7407 27.719 371.843 -0.510366 -0.258318 -0.820243 0.00490513
-11.2145 29.4442 371.646 -0.505462 -0.2512 -0.825474 0.00576015
-11.596 31.176 371.336 -0.505 -0.240317 -0.828989 0.00738991
-11.9212 32.925 371.062 -0.508955 -0.225367 -0.830767 0.0100284
-12.0461 34.6544 370.579 -0.519873 -0.207553 -0.828646 0.0119793
