# .PCD v0.7 - Point Cloud Data file format
# 5 148 0
# 1 58 0
# 59 89 0
# 90 121 0
# 122 146 0
# 147 148 0
VERSION 0.7
FIELDS x y z normal_x normal_y normal_z curvature
SIZE 4 4 4 4 4 4 4
TYPE F F F F F F F
COUNT 1 1 1 1 1 1 1
WIDTH 148
HEIGHT 1
VIEWPOINT 0 0 0 1 0 0 0
POINTS 148
DATA ascii
35.6181 -23.9869 389.41 -5.8298e-05 0.676656 0.736299 0.01
36.0616 -22.6095 388.339 -0.0151256 0.663328 0.748176 0.0325156
35.4661 -23.9126 389.429 -0.00520178 0.678153 0.734903 0.0137657
36.5087 -21.0535 386.874 -0.0378234 0.64807 0.760641 0.0131554
36.6576 -19.6178 385.799 -0.0590977 0.637109 0.768504 0.0124566
37.0852 -18.2749 384.679 -0.0709691 0.623856 0.77831 0.0109814
37.1766 -16.7572 383.715 -0.0839069 0.612296 0.786163 0.00997066
37.3838 -15.2903 382.693 -0.0908646 0.599336 0.795324 0.00955377
37.7433 -13.8574 381.665 -0.0918311 0.585166 0.805697 0.00975819
38.3741 -12.552 380.598 -0.0863622 0.57149 0.816052 0.00901716
38.4469 -10.9969 379.694 -0.0929945 0.558964 0.82396 0.00888655
39.3728 -9.85548 378.655 -0.0821915 0.546394 0.833485 0.0131731
40.8927 -8.90798 378.476 -0.0587387 0.535709 0.842357 0.0131571
42.1184 -7.80382 377.756 -0.0454763 0.523482 0.850822 0.00849851
42.5737 -6.28848 376.898 -0.0473608 0.512723 0.857247 0.00676463
43.1699 -4.89763 375.923 -0.0470093 0.502632 0.863222 0.00717735
43.2379 -3.29678 375.103 -0.0537824 0.491236 0.869365 0.0095912
43.3874 -1.70782 374.271 -0.0598587 0.474362 0.878292 0.0109949
43.4076 -0.0931981 373.475 -0.0675827 0.458239 0.886256 0.0106481
43.7302 1.44624 372.6 -0.0717982 0.44179 0.894241 0.0101928
43.9725 3.01964 371.76 -0.0765795 0.426083 0.901437 0.00971603
44.0047 4.65721 371.013 -0.082533 0.411428 0.907698 0.00919715
43.9476 6.33044 370.352 -0.08797 0.397416 0.913412 0.00837089
44.0518 7.98155 369.643 -0.0903132 0.384509 0.918693 0.00753842
44.0172 9.66041 368.995 -0.0911135 0.372472 0.92356 0.00729229
43.9758 11.3413 368.352 -0.08934 0.36021 0.928583 0.0075835
44.2353 12.9371 367.561 -0.0822506 0.348816 0.933575 0.0082131
44.0101 14.6447 367.038 -0.0775076 0.335558 0.938826 0.00877187
44.0104 16.3333 366.415 -0.0682884 0.322598 0.944069 0.00963626
43.9443 18.0371 365.838 -0.0580446 0.308848 0.949339 0.00969987
43.8659 19.747 365.281 -0.0463786 0.297169 0.953698 0.00934451
43.7486 21.4724 364.782 -0.0332162 0.28756 0.957186 0.0104076
43.7853 23.1716 364.189 -0.014738 0.278339 0.96037 0.0104745
43.3703 24.8973 363.889 -0.00558621 0.263649 0.964602 0.0111123
43.288 26.624 363.388 0.0130139 0.250876 0.967932 0.01238
43.0619 28.3702 363.014 0.0280896 0.235385 0.971496 0.0126184
42.8855 30.092 362.52 0.0450498 0.21941 0.974592 0.0108635
42.2687 31.7716 362.324 0.0421599 0.200121 0.978864 0.00926866
42.1495 33.5007 361.838 0.0577859 0.189554 0.980168 0.0100205
42.0065 35.2338 361.374 0.0712143 0.178882 0.98129 0.0112743
40.9932 36.714 361.523 0.0320669 0.161358 0.986375 0.0108542
40.9423 38.4714 361.137 0.0474142 0.151107 0.98738 0.00984481
40.8259 40.2203 360.727 0.0602226 0.139931 0.988328 0.00759747
40.3606 41.9535 360.587 0.0507948 0.124408 0.99093 0.0148146
39.628 43.5976 360.573 0.0201887 0.105491 0.994215 0.0123992
39.3226 45.3561 360.34 0.0205372 0.0924933 0.995502 0.0101763
38.7775 47.0681 360.23 -0.00171965 0.0764012 0.997076 0.00773796
38.629 48.8365 359.929 0.0178705 0.0650675 0.997721 0.0105977
37.9438 50.5003 359.975 0.0209631 0.0465471 0.998696 0.0097285
37.3956 52.2145 359.945 0.0248437 0.0308168 0.999216 0.00881601
36.8268 53.9223 359.942 0.0252912 0.0151194 0.999566 0.00936789
36.1136 55.5745 359.982 0.0189224 -0.0023445 0.999818 0.00803139
35.556 57.286 359.982 0.0203044 -0.0133271 0.999705 0.00639394
35.1449 59.0384 359.979 0.028691 -0.0231585 0.99932 0.00852958
34.8532 60.8104 359.858 0.0443134 -0.0323759 0.998493 0.0092838
33.8722 62.2786 360.208 0.0384021 -0.0540195 0.997801 0.0117264
33.7127 64.069 360.113 0.0678494 -0.0653205 0.995555 0.0153325
32.5768 65.3842 360.582 0.0664008 -0.09747 0.993021 0.0164989
32.3677 67.1719 360.557 0.0959798 -0.113602 0.988879 0.0152515
31.4328 68.6505 360.98 0.0917351 -0.143543 0.985383 0.0204686
30.0282 69.6869 361.42 0.0576731 -0.174856 0.982903 0.01
28.4146 68.9254 361.182 -0.000563841 -0.183468 0.983026 0.0278858
26.8824 67.9927 361.034 -0.0423135 -0.181616 0.982459 0.0103852
25.4552 66.9381 360.732 -0.0368035 -0.174625 0.983947 0.00894616
24.1616 65.6865 360.728 -0.0187279 -0.160406 0.986873 0.0162666
22.5811 64.8842 360.415 0.0123172 -0.144855 0.989376 0.0214468
21.1049 63.8698 360.237 0.0492048 -0.124425 0.991008 0.024519
19.7389 62.699 360.296 0.0891191 -0.102017 0.990783 0.0240739
18.1523 61.8547 360.394 0.123317 -0.0805641 0.989092 0.0194098
16.5981 60.9539 360.51 0.145791 -0.0612996 0.987414 0.0150844
15.0052 60.1201 360.595 0.165377 -0.0464652 0.985135 0.0124546
13.6293 59.0293 360.991 0.181358 -0.0350078 0.982794 0.00926526
12.2372 57.9124 361.225 0.193225 -0.0287078 0.980734 0.00563669
10.9444 56.6722 361.4 0.197801 -0.0234979 0.979961 0.00466335
9.45923 55.7183 361.753 0.204111 -0.0162024 0.978814 0.00753713
8.10511 54.551 361.961 0.215055 -0.0029447 0.976597 0.0114815
6.87276 53.2816 362.293 0.231236 0.0143104 0.972793 0.0150867
5.45899 52.2475 362.708 0.253684 0.0336381 0.966702 0.018932
4.04881 51.1746 363.024 0.282758 0.0561908 0.957544 0.0249401
2.94659 49.818 363.454 0.326509 0.0786483 0.941916 0.0288789
1.98236 48.4289 364.071 0.369785 0.101307 0.923578 0.0312133
0.712062 47.3032 364.671 0.419564 0.12331 0.899311 0.0308368
-0.0603635 45.8226 365.342 0.458552 0.14483 0.876786 0.0305707
-1.30722 44.8069 366.151 0.506883 0.159764 0.84708 0.0316856
-2.45918 43.7506 367.044 0.551302 0.172082 0.816366 0.0246581
-3.55005 42.7483 368.066 0.574559 0.187211 0.796765 0.0155968
-4.71096 41.8496 369.107 0.585506 0.203358 0.784747 0.0121327
-5.3946 40.5719 370.175 0.596452 0.215742 0.773111 0.0104938
-6.74141 39.9292 371.182 0.602759 0.228416 0.764531 0.00885635
-7.57192 38.7505 372.259 0.609928 0.237973 0.755881 0.00729823
-8.67005 37.9456 373.437 0.614264 0.246425 0.749636 0.00551861
-9.60701 36.8889 374.553 0.617678 0.252443 0.744813 0.01
-9.61056 35.118 374.875 0.621105 0.252699 0.741871 0.00238171
-9.61206 33.4958 375.655 0.62398 0.253437 0.739201 0.00210162
-9.49248 31.7944 376.23 0.626624 0.25379 0.73684 0.00194439
-9.0265 30.0685 376.441 0.629245 0.253526 0.734694 0.00177628
-8.48845 28.36 376.618 0.631497 0.253689 0.732703 0.00149094
-8.26636 26.6062 376.957 0.632911 0.254899 0.731061 0.00127418
-8.163 24.8821 377.464 0.633505 0.256713 0.729911 0.0025402
-8.11904 23.1577 377.978 0.633464 0.263337 0.727583 0.00414537
-8.04831 21.4371 378.502 0.632892 0.270893 0.725303 0.00449846
-7.7285 19.7283 378.969 0.632073 0.278773 0.723028 0.00464809
-7.81165 18.0539 379.624 0.630502 0.286817 0.721252 0.00474223
-7.81179 16.3763 380.277 0.628601 0.29512 0.719559 0.00488981
-7.81159 14.7087 380.954 0.626309 0.303606 0.718026 0.00507971
-7.36192 13.0407 381.46 0.624904 0.312386 0.715479 0.0043418
-7.79492 11.5771 382.414 0.620974 0.317557 0.716623 0.00340482
-7.81146 9.92738 383.134 0.618463 0.322613 0.716536 0.0030779
-7.81079 8.26149 383.815 0.616351 0.327611 0.716088 0.00295811
-7.75549 6.58615 384.471 0.614775 0.332509 0.715185 0.00284307
-7.52133 4.9731 385.235 0.613806 0.337238 0.713802 0.00279458
-7.5134 3.31623 385.938 0.612502 0.341959 0.712675 0.00292163
-7.77641 1.79831 386.869 0.609791 0.346826 0.712648 0.00298493
-7.67681 0.216378 387.722 0.608565 0.351793 0.71126 0.00316666
-7.91229 -1.34382 388.589 0.605515 0.357234 0.71115 0.00354711
-7.60139 -3.01618 389.177 0.604082 0.363372 0.709257 0.00396319
-7.2047 -4.68933 389.709 0.602207 0.370517 0.707152 0.00456949
-7.35681 -6.25959 390.576 0.596871 0.377785 0.70783 0.00529272
-7.11805 -7.8582 391.368 0.591894 0.386398 0.70736 0.00563568
-6.49292 -9.47753 391.845 0.588091 0.395693 0.70539 0.00530912
-6.59712 -11.0538 392.708 0.580332 0.400894 0.708872 0.0053735
-6.35312 -12.6754 393.45 0.57323 0.406208 0.71162 0.0052993
-5.95572 -14.2894 394.14 0.565659 0.411648 0.714546 0.00588437
-5.72858 -15.9656 394.756 0.556362 0.416679 0.718916 0.01
-4.34602 -16.1989 393.627 0.559249 0.427601 0.71021 0.00921316
-2.81795 -16.0109 392.694 0.541748 0.445472 0.712786 0.0189204
-1.3198 -16.3286 391.749 0.507193 0.468365 0.723456 0.0234624
0.269856 -16.6344 390.962 0.472721 0.489697 0.73262 0.0213949
1.79068 -16.6126 389.999 0.442872 0.506657 0.739704 0.0228187
3.32202 -17.3753 389.439 0.404133 0.527428 0.747326 0.0249132
5.02543 -17.7313 388.979 0.364607 0.546532 0.753899 0.0241169
6.7132 -17.884 388.372 0.326074 0.562939 0.759457 0.0247535
8.3787 -18.5441 388.198 0.284425 0.580558 0.762925 0.0221541
10.1063 -18.9414 387.886 0.252863 0.593503 0.764078 0.0178729
11.8136 -19.4968 387.757 0.224929 0.604639 0.764081 0.0161134
13.4299 -20.2582 387.976 0.199298 0.614724 0.763148 0.0148204
15.1661 -20.7312 387.93 0.174808 0.62188 0.763353 0.0129294
16.8892 -21.2476 387.993 0.154666 0.627841 0.76282 0.0115281
18.6391 -21.6685 388.021 0.135484 0.634817 0.760691 0.0122509
20.3186 -22.3161 388.012 0.114425 0.644345 0.756126 0.0137568
22.0883 -22.6381 388.077 0.0921066 0.655445 0.749605 0.016616
23.8351 -22.9566 388.373 0.06243 0.669155 0.740496 0.0211922
25.5886 -23.348 388.482 0.0223302 0.680625 0.732292 0.023131
27.2686 -23.8147 388.929 -0.015874 0.690224 0.723421 0.0217647
29.0104 -24.0498 389.317 -0.0528649 0.695292 0.716781 0.0191488
30.708 -24.4117 389.794 -0.0831501 0.698203 0.711055 0.00261778
32.4832 -24.4678 390.086 -0.0594596 0.699793 0.711867 0.01636
34.2494 -24.5887 390.412 -0.0250622 0.69386 0.719674 0.0210526
