# .PCD v0.7 - Point Cloud Data file format
VERSION 0.7
FIELDS x y z
SIZE 4 4 4
TYPE F F F
COUNT 1 1 1
WIDTH 166
HEIGHT 1
VIEWPOINT 0 0 0 1 0 0 0
POINTS 166
DATA ascii
-0.039613999 0.171325 -1.58482
-0.039955001 0.168595 -1.5843199
-0.040096998 0.185967 -1.58049
-0.035193 0.198543 -1.58447
-0.040323 0.17516799 -1.58258
-0.040146999 0.173567 -1.58338
-0.040052 0.18184499 -1.58156
-0.041561998 0.178767 -1.5793
-0.043653 0.175761 -1.57477
-0.036602002 0.205011 -1.58284
-0.039795998 0.208068 -1.57469
-0.040282998 0.18954299 -1.57885
-0.040429 0.199257 -1.57465
-0.040130001 0.208994 -1.57478
-0.043662999 0.19118001 -1.56946
-0.044792 0.19377799 -1.56426
-0.035310999 0.200339 -1.584
-0.040222999 0.197034 -1.5755301
-0.037948001 0.198964 -1.57985
-0.034956001 0.198327 -1.58442
-0.039506 0.19153599 -1.5797499
-0.040275 0.20372801 -1.5732501
-0.042736001 0.18466 -1.5746599
-0.045062002 0.19081999 -1.56512
-0.042056002 0.209721 -1.56995
-0.043434002 0.208802 -1.56488
-0.045371 0.195439 -1.56259
-0.044027999 0.198763 -1.56459
-0.045122001 0.21123999 -1.56229
-0.04651 0.209409 -1.55966
-0.045295998 0.21119601 -1.5597
-0.0449 0.21132 -1.55976
-0.04941 0.204706 -1.55485
-0.047603998 0.190521 -1.5599101
-0.039500002 0.15105499 -1.58429
-0.041745 0.152504 -1.57996
-0.037271999 0.15493 -1.58973
-0.037836999 0.167317 -1.58875
-0.037154999 0.16035999 -1.58947
-0.039119001 0.149691 -1.58465
-0.040031001 0.147313 -1.58297
-0.041611999 0.14786699 -1.57991
-0.040562999 0.14453501 -1.58075
-0.043855999 0.148174 -1.5748301
-0.041157998 0.14472499 -1.57982
-0.034887001 0.154595 -1.5886
-0.045060001 0.162319 -1.57297
-0.045364 0.15818299 -1.57274
-0.04513 0.166015 -1.5729899
-0.046215001 0.17186201 -1.56945
-0.046739001 0.16168 -1.56946
-0.045124002 0.154227 -1.57222
-0.045143999 0.14985099 -1.5720201
-0.046840999 0.158099 -1.56889
-0.050023001 0.183368 -1.55632
-0.050483 0.189954 -1.55475
-0.051238999 0.180968 -1.55395
-0.052795999 0.18938001 -1.5492899
-0.054958001 0.189037 -1.54494
-0.054896999 0.19024201 -1.54487
-0.050018001 0.149335 -1.55997
-0.050391 0.15391301 -1.55963
-0.050407998 0.164977 -1.56043
-0.050567001 0.16907801 -1.55925
-0.052239999 0.171775 -1.55395
-0.055172 0.154838 -1.55036
-0.052944001 0.154571 -1.55498
-0.055070002 0.163137 -1.54846
-0.055707 0.156388 -1.54983
-0.055209 0.15446 -1.5499901
-0.054122999 0.153524 -1.54978
-0.053112999 0.181357 -1.5499901
-0.055126999 0.169999 -1.54705
-0.055261999 0.18330599 -1.54506
-0.055551998 0.184223 -1.54423
-0.056529 0.162536 -1.54453
-0.058591999 0.16162699 -1.53947
-0.058256 0.16987699 -1.53892
-0.053319 0.20453601 -1.54978
-0.055048998 0.2016 -1.54284
-0.056795001 0.190587 -1.53993
-0.055482998 0.18567801 -1.54421
-0.055493001 0.190064 -1.5434999
-0.056054 0.20119099 -1.53983
-0.054653998 0.202512 -1.54
-0.060056001 0.19711401 -1.53206
-0.057585999 0.19993 -1.53485
-0.060667999 0.19751599 -1.52999
-0.057631001 0.182762 -1.5398999
-0.057275999 0.187084 -1.53984
-0.062295001 0.194775 -1.52977
-0.060004 0.17244799 -1.53382
-0.061480999 0.17732599 -1.52951
-0.062077999 0.168657 -1.52997
-0.064355001 0.17305399 -1.52493
-0.063717 0.176854 -1.52486
-0.065109998 0.193234 -1.5227
-0.065026999 0.183938 -1.51977
-0.065465003 0.18802001 -1.51974
-0.064452 0.182741 -1.51996
-0.065610997 0.191967 -1.51995
-0.064721003 0.185424 -1.5185699
-0.064879999 0.193369 -1.5199701
-0.049589001 0.175147 -1.55993
-0.050673999 0.204309 -1.55353
-0.048599001 0.168446 -1.56428
-0.048783999 0.16377901 -1.56442
-0.047956001 0.15076201 -1.56442
-0.045689002 0.14709 -1.56998
-0.052524 0.205713 -1.5499901
-0.039613999 0.171325 -1.58482
-0.039955001 0.168595 -1.5843199
-0.040096998 0.185967 -1.58049
-0.041561998 0.178767 -1.5793
-0.043653 0.175761 -1.57477
-0.040282998 0.18954299 -1.57885
-0.040429 0.199257 -1.57465
-0.043662999 0.19118001 -1.56946
-0.044792 0.19377799 -1.56426
-0.039506 0.19153599 -1.5797499
-0.040275 0.20372801 -1.5732501
-0.042736001 0.18466 -1.5746599
-0.045062002 0.19081999 -1.56512
-0.042056002 0.209721 -1.56995
-0.045371 0.195439 -1.56259
-0.044027999 0.198763 -1.56459
-0.045122001 0.21123999 -1.56229
-0.047603998 0.190521 -1.5599101
-0.039500002 0.15105499 -1.58429
-0.041745 0.152504 -1.57996
-0.039119001 0.149691 -1.58465
-0.040031001 0.147313 -1.58297
-0.041611999 0.14786699 -1.57991
-0.045060001 0.162319 -1.57297
-0.045364 0.15818299 -1.57274
-0.04513 0.166015 -1.5729899
-0.046215001 0.17186201 -1.56945
-0.046739001 0.16168 -1.56946
-0.045124002 0.154227 -1.57222
-0.046840999 0.158099 -1.56889
-0.050023001 0.183368 -1.55632
-0.050483 0.189954 -1.55475
-0.051238999 0.180968 -1.55395
-0.052795999 0.18938001 -1.5492899
-0.054958001 0.189037 -1.54494
-0.054896999 0.19024201 -1.54487
-0.050407998 0.164977 -1.56043
-0.050567001 0.16907801 -1.55925
-0.052239999 0.171775 -1.55395
-0.055070002 0.163137 -1.54846
-0.053112999 0.181357 -1.5499901
-0.055126999 0.169999 -1.54705
-0.055261999 0.18330599 -1.54506
-0.055551998 0.184223 -1.54423
-0.056529 0.162536 -1.54453
-0.058256 0.16987699 -1.53892
-0.056795001 0.190587 -1.53993
-0.055482998 0.18567801 -1.54421
-0.055493001 0.190064 -1.5434999
-0.057631001 0.182762 -1.5398999
-0.057275999 0.187084 -1.53984
-0.060004 0.17244799 -1.53382
-0.061480999 0.17732599 -1.52951
-0.049589001 0.175147 -1.55993
-0.048599001 0.168446 -1.56428
-0.048783999 0.16377901 -1.56442
