# .PCD v0.7 - Point Cloud Data file format
VERSION 0.7
FIELDS x y z
SIZE 4 4 4
TYPE F F F
COUNT 1 1 1
WIDTH 110
HEIGHT 1
VIEWPOINT 0 0 0 1 0 0 0
POINTS 110
DATA ascii
0.16854601 -0.056775998 -1.66246
0.161681 -0.034187 -1.69488
0.163831 -0.044987001 -1.66998
0.16389599 -0.044906002 -1.6724499
0.16231599 -0.035709001 -1.69472
0.162195 -0.036159001 -1.6922899
0.16388901 -0.039939001 -1.69233
0.165088 -0.041809 -1.69207
0.161513 -0.038805 -1.67708
0.162367 -0.039974 -1.6799999
0.16243701 -0.040119998 -1.67959
0.162945 -0.041834 -1.67734
0.16392501 -0.044592001 -1.6749099
0.164874 -0.043109 -1.68942
0.16583499 -0.044748001 -1.68993
0.166283 -0.046863001 -1.68741
0.167757 -0.049966 -1.68747
0.16755 -0.049146999 -1.68888
0.167665 -0.050035 -1.68853
0.16441301 -0.046797998 -1.66742
0.16490901 -0.047928002 -1.6670901
0.16432901 -0.046402 -1.66949
0.164979 -0.048974998 -1.66491
0.16472501 -0.050058 -1.66328
0.16651 -0.052494999 -1.66236
0.167289 -0.053835999 -1.66243
0.168547 -0.057119999 -1.65996
0.168911 -0.059836 -1.65737
0.16924401 -0.05906 -1.66
0.167514 -0.054807998 -1.6623
0.168117 -0.051899001 -1.68486
0.16690999 -0.050399002 -1.6889499
0.168176 -0.050898001 -1.68741
0.168695 -0.054040998 -1.6824
0.16990501 -0.058106001 -1.67865
0.170081 -0.057312001 -1.68218
0.170323 -0.056945 -1.68363
0.17227 -0.064900003 -1.67496
0.170118 -0.059202999 -1.67698
0.169883 -0.057705998 -1.6834
0.17051899 -0.057698999 -1.68327
0.17237601 -0.064360999 -1.67724
0.169651 -0.060008999 -1.65731
0.16995201 -0.062815003 -1.65602
0.171224 -0.067433998 -1.65233
0.170532 -0.062508002 -1.65748
0.171454 -0.067298003 -1.65491
0.17196301 -0.068391003 -1.65248
0.173081 -0.071874 -1.65236
0.172371 -0.070153996 -1.65244
0.17315599 -0.071874999 -1.64994
0.172371 -0.073140003 -1.64905
0.17378899 -0.074398004 -1.64994
0.174777 -0.076038003 -1.655
0.17509399 -0.076886997 -1.65448
0.175171 -0.076375999 -1.6574
0.174817 -0.075025 -1.6591901
0.175064 -0.075699002 -1.65979
0.175129 -0.075088002 -1.66228
0.170313 -0.061831001 -1.65745
0.17262401 -0.065730996 -1.67495
0.174744 -0.071691997 -1.6720901
0.174678 -0.069953002 -1.67495
0.175007 -0.070987001 -1.6746
0.16083901 -0.032207001 -1.69494
0.17621601 -0.073591001 -1.67247
0.17481899 -0.077362999 -1.64748
0.17515799 -0.077458002 -1.65227
0.16002101 -0.029802 -1.69911
0.17618001 -0.077551 -1.66399
0.161208 -0.032372002 -1.69732
0.16023999 -0.031601999 -1.6993999
0.16093101 -0.032561999 -1.6989599
0.163141 -0.037172001 -1.69497
0.162578 -0.035011001 -1.6964999
0.17482699 -0.077547997 -1.64741
0.175744 -0.079682998 -1.64746
0.175442 -0.078048997 -1.6522501
0.177031 -0.082445003 -1.64744
0.17752001 -0.082974002 -1.65036
0.17756499 -0.083132997 -1.64996
0.161245 -0.036697 -1.6824501
0.17743 -0.083288997 -1.65
0.161494 -0.034945 -1.68999
0.17715999 -0.081666999 -1.65248
0.157059 -0.043467999 -1.68205
0.156849 -0.042436998 -1.68498
0.159173 -0.047090001 -1.68716
0.158602 -0.051352002 -1.66993
0.160155 -0.054719001 -1.6667
0.160035 -0.054086 -1.6649801
0.159412 -0.052556999 -1.66948
0.161907 -0.059680998 -1.66203
0.16198 -0.058871001 -1.66484
0.1578 -0.046914 -1.67456
0.15990999 -0.049772002 -1.68492
0.16246 -0.057728998 -1.6764899
0.16243801 -0.057328001 -1.67748
0.16346499 -0.060350999 -1.67689
0.162159 -0.060502 -1.66199
0.163284 -0.063135996 -1.66213
0.16423 -0.065603003 -1.6618299
0.167153 -0.075076997 -1.65444
0.168107 -0.077359997 -1.65439
0.168364 -0.074895002 -1.66666
0.168469 -0.073875003 -1.66979
0.168648 -0.075351998 -1.6672601
0.169597 -0.076549001 -1.66994
0.169314 -0.080911003 -1.65205
0.168696 -0.079311997 -1.65211
