# .PCD v0.7 - Point Cloud Data file format
VERSION 0.7
FIELDS x y z
SIZE 4 4 4
TYPE F F F
COUNT 1 1 1
WIDTH 120
HEIGHT 1
VIEWPOINT 0 0 0 1 0 0 0
POINTS 120
DATA ascii
0.092061996 0.14843 -1.54737
0.084964998 0.168093 -1.5259
0.084907003 0.168705 -1.5246
0.087044001 0.16814101 -1.52747
0.085405998 0.166022 -1.52719
0.086492002 0.167567 -1.52816
0.093750998 0.17024399 -1.5249799
0.091582999 0.16851699 -1.52677
0.092499003 0.168247 -1.52789
0.09381 0.16993 -1.52737
0.090962 0.16588899 -1.53491
0.089433998 0.16505399 -1.53486
0.089714997 0.165142 -1.5355
0.093098998 0.16595601 -1.5399899
0.090517998 0.16495 -1.53719
0.092496999 0.16557699 -1.54136
0.092069998 0.165612 -1.53977
0.092501998 0.16479 -1.54133
0.094190001 0.164424 -1.54492
0.084036998 0.166407 -1.5247999
0.084858 0.16431899 -1.52657
0.083775997 0.163087 -1.52494
0.082301997 0.16130701 -1.52259
0.082341999 0.161705 -1.52246
0.085303001 0.16464999 -1.52737
0.089165002 0.16397101 -1.53479
0.087632 0.161604 -1.53247
0.087227002 0.160446 -1.53197
0.088621996 0.162488 -1.53416
0.084854998 0.16226999 -1.52707
0.086158 0.160565 -1.52993
0.081932001 0.15945999 -1.52226
0.082386002 0.15772299 -1.5236
0.081238002 0.15593401 -1.52183
0.079971999 0.15296599 -1.52089
0.080614001 0.15306699 -1.5218101
0.084009998 0.155744 -1.52684
0.086850002 0.155682 -1.5322599
0.084827997 0.15381899 -1.5288399
0.086281002 0.153432 -1.5316499
0.08388 0.154321 -1.5270801
0.085042998 0.15256201 -1.52966
0.084569 0.150508 -1.52933
0.083163001 0.15011699 -1.52707
0.084863 0.14890499 -1.5304101
0.087925002 0.152889 -1.5349801
0.087416001 0.14687499 -1.53592
0.091591001 0.161799 -1.53987
0.091205001 0.159918 -1.53985
0.089759 0.159477 -1.5369
0.089501999 0.157116 -1.5369999
0.091459997 0.156657 -1.54128
0.089867003 0.15644599 -1.53795
0.090435997 0.15523601 -1.53959
0.093682997 0.16216099 -1.54488
0.091989003 0.158044 -1.5420901
0.092936002 0.157674 -1.54436
0.094279997 0.159168 -1.54721
0.094907999 0.15771601 -1.5491
0.095435001 0.157943 -1.54893
0.091374002 0.152623 -1.54248
0.092231996 0.153624 -1.54416
0.088371001 0.148697 -1.53743
0.091159999 0.147778 -1.54489
0.092321001 0.15211301 -1.545
0.089502998 0.14849199 -1.53992
0.089915 0.147413 -1.5414701
0.090102002 0.14735299 -1.54228
0.091605999 0.14716101 -1.5470099
0.094871998 0.15540799 -1.54984
0.094567999 0.154333 -1.54985
0.093547001 0.150123 -1.54896
0.093382999 0.147971 -1.54969
0.092376001 0.148018 -1.54844
0.094833001 0.148417 -1.55322
0.094870999 0.14740901 -1.55304
0.094213001 0.14739101 -1.55235
0.079351999 0.15244401 -1.5199701
0.078653999 0.149508 -1.52
0.080085002 0.14954901 -1.5191
0.080216996 0.146606 -1.52
0.079993002 0.148112 -1.5232199
0.079732001 0.147176 -1.52276
0.082238004 0.14737201 -1.52668
0.082962997 0.14643601 -1.52747
0.083995998 0.146771 -1.53
0.084716 0.146763 -1.53114
0.085465997 0.14676601 -1.53225
0.086809002 0.14661001 -1.5348901
0.085405998 0.166022 -1.52719
0.084858 0.16431899 -1.52657
0.085303001 0.16464999 -1.52737
0.087632 0.161604 -1.53247
0.087227002 0.160446 -1.53197
0.088621996 0.162488 -1.53416
0.084854998 0.16226999 -1.52707
0.086158 0.160565 -1.52993
0.082386002 0.15772299 -1.5236
0.084009998 0.155744 -1.52684
0.086850002 0.155682 -1.5322599
0.084827997 0.15381899 -1.5288399
0.086281002 0.153432 -1.5316499
0.08388 0.154321 -1.5270801
0.085042998 0.15256201 -1.52966
0.084569 0.150508 -1.52933
0.083163001 0.15011699 -1.52707
0.084863 0.14890499 -1.5304101
0.087925002 0.152889 -1.5349801
0.091591001 0.161799 -1.53987
0.091205001 0.159918 -1.53985
0.089759 0.159477 -1.5369
0.089501999 0.157116 -1.5369999
0.091459997 0.156657 -1.54128
0.089867003 0.15644599 -1.53795
0.090435997 0.15523601 -1.53959
0.091989003 0.158044 -1.5420901
0.092936002 0.157674 -1.54436
0.091374002 0.152623 -1.54248
0.092231996 0.153624 -1.54416
0.092321001 0.15211301 -1.545
