# .PCD v0.7 - Point Cloud Data file format
VERSION 0.7
FIELDS x y z
SIZE 4 4 4
TYPE F F F
COUNT 1 1 1
WIDTH 129
HEIGHT 1
VIEWPOINT 0 0 0 1 0 0 0
POINTS 129
DATA ascii
0.173769 0.13263699 -1.7048399
0.17170399 0.135067 -1.69995
0.15494201 0.14500099 -1.69672
0.16416401 0.140194 -1.7030801
0.153826 0.140228 -1.70033
0.14959601 0.145192 -1.69491
0.147901 0.144642 -1.6949199
0.15375599 0.14060301 -1.6999201
0.15981001 0.14004301 -1.70226
0.16486099 0.13532101 -1.70807
0.14930201 0.135166 -1.70374
0.144628 0.15515301 -1.6851
0.144711 0.15026399 -1.68952
0.143617 0.14962 -1.68994
0.139953 0.149426 -1.68955
0.123904 0.154744 -1.67993
0.119909 0.150251 -1.68267
0.11461 0.15024 -1.68071
0.111943 0.149827 -1.6799901
0.12442 0.14520501 -1.68864
0.119855 0.147681 -1.68492
0.13424601 0.145115 -1.69172
0.144536 0.135241 -1.70265
0.14122599 0.132439 -1.70485
0.13989399 0.13510799 -1.7021199
0.133802 0.136792 -1.6991
0.114999 0.14072099 -1.68949
0.124079 0.138862 -1.69461
0.173751 0.130174 -1.71488
0.17449901 0.125671 -1.7199
0.16895001 0.125229 -1.71855
0.16464201 0.126095 -1.71645
0.162866 0.12711599 -1.71497
0.14646199 0.128603 -1.70992
0.15671501 0.123723 -1.71499
0.158876 0.125113 -1.71594
0.154966 0.12512399 -1.71488
0.154511 0.124897 -1.7149
0.149987 0.12561899 -1.7132
0.130605 0.12723701 -1.70488
0.139221 0.130356 -1.70646
0.144623 0.127956 -1.71
0.13997801 0.126086 -1.71044
0.138633 0.12638099 -1.71
0.134516 0.130326 -1.70548
0.132668 0.13075601 -1.70463
0.14289001 0.15481199 -1.68496
0.12963399 0.128693 -1.7050101
0.146723 0.154314 -1.68494
0.124393 0.129921 -1.70195
0.115564 0.132007 -1.69498
0.13617299 0.162377 -1.6749901
0.123867 0.132829 -1.69976
0.119826 0.132182 -1.69844
0.124659 0.130115 -1.70213
0.13934299 0.15980101 -1.67978
0.139902 0.155284 -1.68414
0.112329 0.138895 -1.68985
0.12558401 0.16001 -1.66436
0.114763 0.134011 -1.6949199
0.114532 0.135142 -1.6939501
0.12916499 0.160373 -1.67679
0.124778 0.16133501 -1.67486
0.114473 0.156867 -1.67484
0.129511 0.129172 -1.70489
0.143383 0.1551 -1.6849101
0.129926 0.157579 -1.67974
0.114999 0.15137801 -1.67963
0.114559 0.15589 -1.67623
0.109067 0.150086 -1.6792001
0.10486 0.15016399 -1.6775301
0.109723 0.14622 -1.68231
0.098944999 0.143069 -1.67995
0.099587999 0.14035399 -1.68332
0.099549003 0.14537001 -1.67858
0.103163 0.14550599 -1.67996
0.104691 0.140398 -1.6847301
0.104002 0.140008 -1.68528
0.10975 0.14009 -1.68695
0.101529 0.13890301 -1.6849999
0.116472 0.159568 -1.6699899
0.17938 0.12556601 -1.7199399
0.18824799 0.12178 -1.71999
0.183944 0.122792 -1.7199
0.17784201 0.125295 -1.72106
0.189943 0.117912 -1.72317
0.18249699 0.122332 -1.7235301
0.153826 0.140228 -1.70033
0.14959601 0.145192 -1.69491
0.147901 0.144642 -1.6949199
0.15375599 0.14060301 -1.6999201
0.16486099 0.13532101 -1.70807
0.14930201 0.135166 -1.70374
0.144711 0.15026399 -1.68952
0.143617 0.14962 -1.68994
0.139953 0.149426 -1.68955
0.123904 0.154744 -1.67993
0.119909 0.150251 -1.68267
0.11461 0.15024 -1.68071
0.111943 0.149827 -1.6799901
0.12442 0.14520501 -1.68864
0.119855 0.147681 -1.68492
0.13424601 0.145115 -1.69172
0.144536 0.135241 -1.70265
0.14122599 0.132439 -1.70485
0.13989399 0.13510799 -1.7021199
0.133802 0.136792 -1.6991
0.114999 0.14072099 -1.68949
0.124079 0.138862 -1.69461
0.16464201 0.126095 -1.71645
0.14646199 0.128603 -1.70992
0.149987 0.12561899 -1.7132
0.139221 0.130356 -1.70646
0.144623 0.127956 -1.71
0.123867 0.132829 -1.69976
0.139902 0.155284 -1.68414
0.112329 0.138895 -1.68985
0.12916499 0.160373 -1.67679
0.129926 0.157579 -1.67974
0.114999 0.15137801 -1.67963
0.114559 0.15589 -1.67623
0.109067 0.150086 -1.6792001
0.10486 0.15016399 -1.6775301
0.109723 0.14622 -1.68231
0.103163 0.14550599 -1.67996
0.104691 0.140398 -1.6847301
0.104002 0.140008 -1.68528
0.10975 0.14009 -1.68695
0.101529 0.13890301 -1.6849999
