# .PCD v0.7 - Point Cloud Data file format
VERSION 0.7
FIELDS x y z
SIZE 4 4 4
TYPE F F F
COUNT 1 1 1
WIDTH 98
HEIGHT 1
VIEWPOINT 0 0 0 1 0 0 0
POINTS 98
DATA ascii
0.25011101 0.138824 -1.43284
0.24926201 0.138404 -1.43485
0.24748699 0.136363 -1.4398299
0.251167 0.13535599 -1.4299001
0.25247899 0.13457599 -1.4274
0.25201201 0.132357 -1.42711
0.252938 0.130778 -1.425
0.25176501 0.128548 -1.42748
0.252985 0.129493 -1.42483
0.254372 0.126735 -1.42247
0.254749 0.124957 -1.4198999
0.247528 0.129916 -1.44142
0.245084 0.127275 -1.4462301
0.251773 0.124971 -1.42743
0.25022399 0.120486 -1.43126
0.247178 0.120427 -1.4397399
0.24848101 0.121524 -1.4371099
0.247439 0.137796 -1.43907
0.25509101 0.124555 -1.4197299
0.250195 0.116436 -1.43092
0.24982999 0.116571 -1.43208
0.25057301 0.115086 -1.42981
0.24812301 0.119787 -1.43739
0.24772599 0.113466 -1.43747
0.246197 0.109933 -1.4384
0.246407 0.111316 -1.4399199
0.248851 0.110609 -1.43246
0.24921 0.109123 -1.42997
0.25250599 0.107363 -1.42231
0.252377 0.10717 -1.4225
0.25010601 0.107239 -1.42793
0.24764 0.109842 -1.43532
0.24655201 0.109665 -1.4373699
0.25262299 0.104864 -1.4186
0.25628901 0.11747 -1.41494
0.255025 0.121842 -1.41917
0.25565001 0.121203 -1.41748
0.24771699 0.13761801 -1.4391299
0.25551599 0.119257 -1.4173501
0.247668 0.13526399 -1.43993
0.24965499 0.136134 -1.43461
0.249806 0.133735 -1.4344
0.25687599 0.112798 -1.41248
0.25741401 0.111318 -1.4098901
0.25650701 0.112379 -1.41233
0.25762701 0.111164 -1.40988
0.25763199 0.110869 -1.41034
0.25766701 0.109183 -1.4094501
0.25612801 0.11319 -1.41495
0.248024 0.134322 -1.43999
0.247593 0.131651 -1.44115
0.24756201 0.132925 -1.44086
0.247205 0.12891001 -1.44235
0.246997 0.126791 -1.44235
0.25336 0.107303 -1.41968
0.25060201 0.129678 -1.42992
0.25801599 0.107932 -1.40738
0.25749099 0.105105 -1.40715
0.25798699 0.107436 -1.4074399
0.25755399 0.104481 -1.40749
0.25759801 0.104623 -1.40799
0.25599101 0.101984 -1.40988
0.25346699 0.104569 -1.4170901
0.25496599 0.104523 -1.41475
0.25497699 0.102342 -1.41243
0.255164 0.102245 -1.41181
0.25022599 0.14028899 -1.4301701
0.25153601 0.106641 -1.42456
0.243944 0.12643 -1.44748
0.25029299 0.106849 -1.42739
0.243874 0.122247 -1.44743
0.24434599 0.11903 -1.44734
0.24984699 0.13996799 -1.43225
0.244252 0.116468 -1.4467601
0.244781 0.112968 -1.4448
0.250323 0.140038 -1.4298
0.250848 0.139247 -1.42985
0.24512599 0.112408 -1.4442199
0.245616 0.112337 -1.4425
0.251167 0.13535599 -1.4299001
0.25176501 0.128548 -1.42748
0.251773 0.124971 -1.42743
0.25022399 0.120486 -1.43126
0.247178 0.120427 -1.4397399
0.24848101 0.121524 -1.4371099
0.250195 0.116436 -1.43092
0.24982999 0.116571 -1.43208
0.25057301 0.115086 -1.42981
0.24812301 0.119787 -1.43739
0.24772599 0.113466 -1.43747
0.248851 0.110609 -1.43246
0.24764 0.109842 -1.43532
0.24965499 0.136134 -1.43461
0.249806 0.133735 -1.4344
0.246997 0.126791 -1.44235
0.25060201 0.129678 -1.42992
0.24434599 0.11903 -1.44734
0.244252 0.116468 -1.4467601
