# .PCD v0.7 - Point Cloud Data file format
VERSION 0.7
FIELDS x y z
SIZE 4 4 4
TYPE F F F
COUNT 1 1 1
WIDTH 726
HEIGHT 1
VIEWPOINT 0 0 0 1 0 0 0
POINTS 726
DATA ascii
5.5857801 29.993799 346.89301
10.4182 25.808201 348.077
7.8009901 50.677399 331.01001
9.89993 46.925098 332.48599
-1.5388499 38.468498 344.966
-3.6979101 41.254501 344.39301
4.5998101 52.3778 331.24899
5.6176801 27.5851 349.09698
11.7473 50.4888 330.091
1.78295 35.9776 344.35501
-2.4360399 44.048801 341.21899
-0.051185999 32.394699 349.14899
6.13239 47.040001 333.66501
9.0568104 50.414101 330.79999
-2.10186 45.264999 340.02399
16.260201 49.9701 329.62601
10.572 20.9659 352.76099
16.5494 49.207699 329.94601
2.5288 26.173 352.793
10.0498 39.499699 337.125
9.0938301 40.250599 336.888
3.6472399 36.820202 342.35999
-7.7083702 58.5079 334.84698
-0.57709903 33.3507 348.71701
2.45681 25.854601 353.13199
-0.54520798 55.407799 331.931
3.11868 54.106701 330.70499
2.3050301 25.9543 353.10999
1.30709 29.970501 350.297
-7.21175 50.562 340.19699
-7.7414498 59.0233 334.452
5.4509001 22.8622 353.758
-0.69299299 31.437901 350.379
8.4953899 50.603699 330.845
2.6819799 26.7304 352.078
-0.40625 32.462799 349.379
0.95576501 30.2005 350.38101
-0.53683102 42.443699 340.866
-0.69284803 42.914398 340.63101
6.5960302 31.2565 345.14301
-0.51587701 32.7659 349.186
9.1307697 49.062 331.49701
4.4231901 32.335899 345.55801
4.9651198 31.3396 346.07599
6.3734102 45.498299 334.543
5.08394 46.113701 334.733
9.6848001 40.195 336.75201
9.0175896 40.791801 336.55701
13.2173 39.312901 336.10999
12.7972 39.155701 336.56699
15.8429 51.533901 328.79501
15.9572 51.1278 329.04901
0.211098 43.518398 339.44199
6.8422499 39.236 338.647
12.1543 50.824501 329.845
13.2 39.6152 336.01599
1.14272 42.012199 339.90601
0.144577 42.415901 340.30499
0.093116999 43.0536 339.87399
12.3976 42.703899 334.42999
12.2303 37.210201 337.99899
-0.50827402 32.335602 349.58301
5.28617 47.037201 334.11301
13.1155 40.906601 335.36899
6.0188498 46.2603 334.20599
5.6795001 46.905499 333.966
11.8227 40.786598 335.74799
-1.56036 45.190102 339.586
8.0044603 21.680401 353.341
3.3286099 25.0375 353.29999
-2.3564999 56.400501 332.302
-7.07336 51.156502 339.77899
-0.54691303 31.806 350.086
2.7946401 32.761398 346.34601
13.3769 40.997002 335.254
10.2549 51.009899 330.21799
5.67981 52.960602 330.48401
-3.98613 41.402302 344.34
-4.0682602 42.006401 344.034
4.7010002 23.855801 353.34799
7.8547702 52.3596 330.05301
15.4597 48.0312 330.74301
9.95576 52.494202 329.36301
10.9832 22.209101 351.10999
5.2298999 23.4207 353.38599
11.3821 36.652699 338.79501
6.6605701 27.469601 348.535
8.9466896 22.5933 351.884
8.3067303 22.870701 351.97501
8.7576199 23.4214 351.20099
10.7088 29.940599 344.26599
10.8378 20.5625 352.763
5.1869402 28.6264 348.418
1.92786 27.008699 352.46201
13.8543 42.161201 334.436
-1.20952 34.673401 347.95901
-0.017532 33.677799 347.936
-3.47451 42.608002 343.24799
13.8376 43.3255 333.737
13.4895 44.118999 333.35101
6.76933 47.639099 333.05801
6.7403498 47.1689 333.34698
-1.59145 43.837799 340.68799
-3.3538401 51.690701 336.06699
-7.0773702 55.817501 336.293
-0.31284699 36.113499 345.97101
-2.2389801 43.552502 341.409
11.8998 36.157902 338.987
8.8261003 21.5487 353.01199
9.2912998 21.8505 352.45999
10.7773 52.223701 329.44
11.2749 32.261299 341.961
-2.54213 47.895199 338.271
11.5265 33.7589 340.806
-7.2546401 57.387199 335.21301
11.4709 33.09 341.216
0.70353699 31.5103 349.35101
9.7665501 34.508801 340.94299
-2.3601501 43.159698 341.80899
-0.99968302 33.653801 348.76999
10.8253 21.898899 351.56201
8.9737501 47.707298 332.28601
-3.0959001 39.601101 345.19901
10.1073 27.1378 347.06601
9.0852098 27.858299 346.866
-2.4103899 42.3876 342.517
9.7304802 52.359402 329.591
-2.0483999 56.186699 332.383
4.2764902 39.1278 340.14001
15.052 44.036499 333.03601
12.0163 36.612999 338.56299
12.0187 36.915401 338.35001
12.0007 36.009102 338.97198
3.37468 31.756901 346.776
3.35408 32.4296 346.198
12.1002 35.860699 338.95801
8.1723404 49.066502 331.77899
4.4078302 24.0413 353.367
-8.2189398 58.2033 335.19501
-7.8931499 58.784401 334.797
-6.9197302 58.774799 334.005
-6.46277 58.807098 333.59601
-6.0970602 58.4967 333.59399
-7.7481499 59.4487 334.00201
-6.92383 59.183102 333.56601
-7.5932598 59.470699 333.565
-7.22124 59.316399 333.57001
-3.46996 40.885399 344.526
-5.5020399 58.275299 332.978
2.75772 25.3638 353.383
-6.0915399 47.0383 341.51999
-1.44286 33.607899 348.84698
-5.82377 50.458199 339.25699
-7.2927999 51.613499 339.61801
12.6471 38.410702 337.04199
-7.2186799 51.010101 339.94
-2.9423299 39.0121 345.51599
-0.76805502 43.551701 340.207
13.2526 39.913799 335.89899
-1.2244 44.370701 339.96201
-0.69267303 32.265099 349.77802
-0.99424398 32.4128 349.763
-5.56815 46.361301 341.94199
2.7558801 25.2069 353.48001
-2.9428501 44.266499 341.508
-3.5483201 44.728401 341.741
9.8812599 28.2505 346.17099
10.7109 21.4876 352.16901
-7.03584 51.382801 339.59601
-1.07576 42.349201 341.422
-2.0128601 38.353802 345.48401
10.8693 22.815201 350.58899
5.0753798 27.3297 349.69299
4.6136398 27.0714 350.26099
-4.5539098 45.5783 341.88901
-4.7128501 49.5159 338.939
3.9200399 24.5728 353.23801
-2.39607 38.710201 345.52499
0.055877998 30.008699 351.16199
0.130501 30.386999 350.832
-2.6438401 38.861599 345.55499
10.3267 26.559799 347.496
-7.11443 52.429001 338.92999
-2.89993 41.4925 343.66299
16.479799 51.236198 328.85001
12.614 38.1147 337.19901
14.8037 48.1171 330.76401
10.0307 24.952499 349.16599
11.8399 51.442101 329.62
-1.97602 39.967201 344.047
10.367 24.6098 349.311
-4.0703201 54.1619 334.95901
0.87916601 28.885799 351.59698
0.83425099 29.488199 351.11099
6.5155101 49.203602 332.267
-3.3593299 42.2262 343.448
-4.14359 42.461201 343.79501
3.4493201 35.2999 343.66
-1.62854 48.916199 336.80801
-4.5943499 52.363201 336.66299
-2.9470699 39.908699 344.94199
-1.90205 48.783298 337.09201
7.55405 26.4785 348.94101
-7.81954 59.334499 334.16501
-7.8922501 59.462799 334.008
-7.17309 53.015999 338.599
10.183 28.891701 345.45801
-2.9026101 50.838799 336.39001
5.95889 22.275101 353.98001
-6.0929599 48.005699 341.17899
9.3556995 25.3542 349.08701
-2.8676801 40.2146 344.62799
7.2543898 21.0861 354.20001
4.2077298 28.652599 349.04001
10.8131 29.637501 344.28201
10.9558 29.9389 343.763
10.5114 21.207199 352.55499
0.56301898 36.145401 345.21799
9.9398098 26.8494 347.38501
-1.93861 52.3755 334.69
-2.2406499 52.4291 334.853
-0.98484403 51.8004 334.43399
-1.46024 52.290699 334.41
-1.3803 52.609699 334.14499
0.33926401 49.852798 334.88599
1.99036 35.1166 344.89801
1.7569 35.675201 344.612
-3.5283101 52.810799 335.44601
0.052494001 55.129601 331.82401
4.7750902 53.375801 330.57101
10.1104 25.481501 348.57001
0.99912298 54.158199 331.89801
-2.3069601 37.284698 346.57501
-2.23615 37.8825 346.04999
1.77551 54.492599 331.06299
14.9347 50.9193 329.353
14.2797 44.660599 332.83701
16.1078 49.8913 329.71201
2.3087299 54.1399 331.16901
-4.07621 57.091801 333.12299
-2.84726 52.272598 335.29901
-4.7525902 57.752102 333.26401
-4.8112502 57.470798 333.383
10.9891 22.358801 350.95999
16.031601 49.4384 329.961
14.0036 42.685902 334.073
11.1578 51.259701 329.86401
15.3565 49.812801 329.862
14.7942 50.254101 329.70001
9.2690096 24.7307 349.72299
-3.9380901 45.916901 341.05899
13.1822 52.036301 328.76501
12.0359 51.6633 329.45499
2.7978899 33.251999 345.897
2.5281999 54.008598 331.17401
-3.7692599 56.784 333.06799
-3.5620899 57.034401 332.57001
-3.62147 56.977798 332.28799
11.4542 52.058399 329.32599
11.6817 51.763599 329.47501
11.3037 52.057999 329.39899
-3.5404201 53.191502 335.20999
-3.54951 53.708199 334.91199
1.7169501 29.0446 350.76901
10.9231 30.0126 343.91199
-1.47983 53.658699 333.573
-6.3782802 57.694901 334.28601
-6.4850798 58.1595 334.065
16.2616 46.591 331.31201
11.6225 33.538399 340.76001
-2.9893999 53.626099 334.599
-1.03072 54.501499 332.78601
-6.3938298 48.911701 340.77899
-1.74704 56.051601 332.23801
-7.1492 51.679401 339.46799
16.4774 48.7225 330.24701
15.9192 48.2948 330.56601
16.478201 48.0093 330.61401
1.48058 36.8004 344.01401
10.2854 25.2773 348.57101
16.8015 47.563301 330.55801
-1.11841 52.937199 333.76999
16.714001 47.784 330.58899
16.747 47.267502 330.56299
2.984 53.867401 331.052
-4.7515702 57.934898 332.96701
6.2905002 29.994301 346.44101
6.6517601 21.6068 354.17801
4.0005102 26.7911 350.995
13.8563 49.1371 330.396
1.45377 52.3923 332.68201
2.1101401 33.028599 346.71301
1.21725 36.461899 344.44901
10.5519 19.3641 353.965
0.091086999 53.054298 333.017
0.315254 53.7845 332.457
6.6542702 21.4606 354.23901
-1.14368 34.2132 348.31
-5.5410199 51.978901 337.776
14.1523 42.3862 334.16901
-5.11446 56.679901 334.03299
13.3308 51.797199 329.14401
13.9032 51.668301 329.103
14.5321 51.624599 328.97299
6.33496 52.8466 330.29001
6.7304602 52.8111 330.146
9.0669699 22.2827 352.12601
3.46839 49.662998 333.28
8.9807501 51.611599 330.19699
-2.0423801 36.009201 347.31699
11.7414 35.415699 339.55499
13.2563 49.287498 330.41599
9.9381599 23.6394 350.47501
8.9070301 52.045799 329.98599
-5.6800599 53.033798 337.22
9.7346401 24.385799 349.87299
2.15714 52.739399 332.129
1.19065 53.4114 332.23001
3.2218299 52.487202 331.75699
6.5056801 21.4624 354.254
6.3183298 25.639 350.508
0.025673 34.298 347.319
-0.729092 34.290901 347.92899
2.79545 27.309401 351.444
10.5849 23.3344 350.39499
10.2533 23.708799 350.28299
-4.8949599 52.5126 336.82401
-7.5929399 53.744202 338.30301
0.639027 30.959999 349.91599
-5.3281498 52.889099 336.97299
-5.2597699 52.414902 337.229
-3.3207099 56.918098 332.36801
-7.7419 55.803101 336.729
0.55148298 32.299 348.76401
-7.7447801 55.3536 337.09601
16.253901 50.5042 329.33899
-7.8929501 54.763599 337.69901
6.0180202 52.2029 330.772
-5.05054 47.9137 340.543
-3.9409699 44.6166 342.16
16.402399 50.3358 329.371
13.8956 41.2621 334.758
11.4195 34.441101 340.427
13.7323 45.552399 332.41599
7.01194 50.7122 331.246
6.95684 51.651699 330.742
5.19489 51.952301 331.23001
14.6811 43.9258 333.20499
-7.59202 54.005501 338.082
8.0068903 20.564301 354.198
10.6784 19.739201 353.36401
10.4163 24.6112 349.16299
-8.1913004 58.061001 335.34601
15.8013 46.2094 331.703
-4.0683899 52.0639 336.40799
-7.9695401 57.66 335.603
-7.89536 57.306801 335.90601
16.833 51.497101 328.16599
4.2220802 29.230499 348.495
15.051 44.403099 332.87799
-1.96253 47.579399 338.02701
10.4651 27.0903 346.91299
-3.4277501 43.404099 342.539
-7.8938799 57.087299 336.02399
-5.2337599 46.135101 341.96201
-6.7838998 51.951401 338.957
3.8398499 53.619499 330.84
12.8436 45.9967 332.353
-7.8911901 56.110901 336.58701
-7.8916101 56.4104 336.42801
-8.0378599 56.930302 335.99399
11.8775 35.265099 339.56699
-6.3263102 50.2136 339.91901
0.051888 30.606899 350.71201
-6.7594199 55.890499 335.948
-6.8889298 57.682999 334.685
-3.80405 51.474899 336.59601
-4.2891998 51.804798 336.78799
-1.14952 55.803398 331.841
9.2822399 52.215 329.81201
-6.3941698 49.2127 340.67001
-6.7512898 56.440601 335.548
-6.9486899 56.868599 335.37
15.0509 44.2575 332.95999
1.25341 27.6073 352.37701
12.8823 51.615299 329.29999
12.299 51.720798 329.36499
-4.4432902 43.360001 343.37
-4.2934999 42.610298 343.776
-6.4703999 57.236801 334.67599
16.2939 51.463402 328.784
15.6575 45.616199 331.97101
-0.55160099 55.517899 331.76199
-0.123192 48.555901 336.06
10.4595 29.059099 345.14899
10.7082 28.9657 344.96701
1.24237 54.842999 331.16299
3.7283599 53.914299 330.564
12.1269 37.658798 337.78299
12.2747 37.808201 337.60999
7.1293702 29.586901 346.319
-1.59231 34.210098 348.414
7.4793301 52.508801 330.07101
9.5071297 51.089699 330.349
-0.86058003 46.984299 337.66299
10.9925 31.801701 342.53299
-0.50668299 31.433001 350.33301
-6.0925899 47.710899 341.34601
-0.54401398 47.413101 337.13901
-5.8787498 58.374298 333.54901
0.23951 39.0462 343.03
1.51688 43.736401 338.414
-3.6210799 42.986301 343.07001
-4.0689402 43.5882 342.995
8.45539 20.410101 354.211
11.0116 31.0973 343.08499
10.5284 27.1661 346.767
15.7268 46.0611 331.77399
-3.4768901 50.9585 336.73499
1.25401 27.909599 352.16299
3.6942301 43.664001 337.12701
-5.11834 58.162201 332.966
-6.39151 51.615501 338.84799
-2.7932899 56.718399 332.36499
10.5742 23.8626 349.76401
10.7316 27.4606 346.16
3.4509799 48.2771 334.15701
-4.1437302 44.0383 342.73199
-4.06991 44.224899 342.54199
0.73040402 28.810101 351.745
-7.8898001 54.535599 337.77899
11.6002 34.658401 340.19101
4.0349998 25.8979 351.84201
-1.66895 35.787701 347.34
-1.66801 35.5644 347.513
3.1280501 31.2288 347.452
1.19954 39.5755 341.828
-2.34517 37.054199 346.767
11.703 34.810299 340.026
10.8594 35.3451 339.92999
10.639 20.1847 353.35699
-2.6379099 37.057999 346.75101
11.4914 34.021702 340.64999
-1.01408 41.130699 342.39301
0.806786 28.204 352.108
10.5548 52.438301 329.36401
9.6549597 19.905701 354.25699
10.7991 32.093399 342.41299
12.2163 49.495499 330.509
9.5931702 33.851898 341.51599
10.4607 27.9067 346.16
10.4308 25.9534 347.952
10.3943 26.6999 347.341
14.4491 42.911999 333.72699
14.457 43.3647 333.53601
8.3810196 52.361099 329.914
8.6804504 52.3592 329.86499
9.5412302 24.0746 350.242
9.5826302 23.4158 350.81799
2.21173 36.631802 343.56799
15.5338 44.713299 332.37701
-4.89569 45.0098 342.58899
-0.84629798 55.683102 331.76599
-4.3495102 44.746799 342.37399
-4.7449098 45.0867 342.427
15.1486 45.085701 332.37299
16.3986 46.662899 331.14999
10.2973 19.897699 353.89999
10.2226 24.2397 349.798
10.8475 31.211901 343.10199
9.2785101 20.375601 353.983
16.261 46.9687 331.16599
-1.78354 48.105099 337.479
-2.0815899 48.144501 337.68799
0.64310098 55.018398 331.565
0.72911501 55.0495 331.168
5.5857801 29.993799 346.89301
7.8009901 50.677399 331.01001
9.89993 46.925098 332.48599
-1.5388499 38.468498 344.966
4.5998101 52.3778 331.24899
5.6176801 27.5851 349.09698
11.7473 50.4888 330.091
1.78295 35.9776 344.35501
-2.4360399 44.048801 341.21899
-0.051185999 32.394699 349.14899
6.13239 47.040001 333.66501
9.0568104 50.414101 330.79999
-2.10186 45.264999 340.02399
10.0498 39.499699 337.125
9.0938301 40.250599 336.888
3.6472399 36.820202 342.35999
-0.57709903 33.3507 348.71701
1.30709 29.970501 350.297
5.4509001 22.8622 353.758
8.4953899 50.603699 330.845
2.6819799 26.7304 352.078
-0.40625 32.462799 349.379
0.95576501 30.2005 350.38101
-0.53683102 42.443699 340.866
-0.69284803 42.914398 340.63101
6.5960302 31.2565 345.14301
-0.51587701 32.7659 349.186
9.1307697 49.062 331.49701
4.4231901 32.335899 345.55801
4.9651198 31.3396 346.07599
6.3734102 45.498299 334.543
5.08394 46.113701 334.733
9.6848001 40.195 336.75201
9.0175896 40.791801 336.55701
15.8429 51.533901 328.79501
15.9572 51.1278 329.04901
0.211098 43.518398 339.44199
6.8422499 39.236 338.647
12.1543 50.824501 329.845
1.14272 42.012199 339.90601
0.144577 42.415901 340.30499
0.093116999 43.0536 339.87399
12.3976 42.703899 334.42999
-0.50827402 32.335602 349.58301
5.28617 47.037201 334.11301
13.1155 40.906601 335.36899
6.0188498 46.2603 334.20599
5.6795001 46.905499 333.966
11.8227 40.786598 335.74799
-1.56036 45.190102 339.586
8.0044603 21.680401 353.341
3.3286099 25.0375 353.29999
2.7946401 32.761398 346.34601
10.2549 51.009899 330.21799
4.7010002 23.855801 353.34799
7.8547702 52.3596 330.05301
15.4597 48.0312 330.74301
5.2298999 23.4207 353.38599
11.3821 36.652699 338.79501
6.6605701 27.469601 348.535
8.9466896 22.5933 351.884
8.3067303 22.870701 351.97501
8.7576199 23.4214 351.20099
5.1869402 28.6264 348.418
-1.20952 34.673401 347.95901
-0.017532 33.677799 347.936
-3.47451 42.608002 343.24799
13.8376 43.3255 333.737
13.4895 44.118999 333.35101
6.76933 47.639099 333.05801
6.7403498 47.1689 333.34698
-1.59145 43.837799 340.68799
-3.3538401 51.690701 336.06699
-7.0773702 55.817501 336.293
-0.31284699 36.113499 345.97101
-2.2389801 43.552502 341.409
8.8261003 21.5487 353.01199
9.2912998 21.8505 352.45999
10.7773 52.223701 329.44
-2.54213 47.895199 338.271
-7.2546401 57.387199 335.21301
0.70353699 31.5103 349.35101
9.7665501 34.508801 340.94299
-2.3601501 43.159698 341.80899
8.9737501 47.707298 332.28601
10.1073 27.1378 347.06601
9.0852098 27.858299 346.866
-2.4103899 42.3876 342.517
4.2764902 39.1278 340.14001
3.37468 31.756901 346.776
3.35408 32.4296 346.198
8.1723404 49.066502 331.77899
4.4078302 24.0413 353.367
-6.0970602 58.4967 333.59399
-5.82377 50.458199 339.25699
-0.76805502 43.551701 340.207
-1.2244 44.370701 339.96201
-2.9428501 44.266499 341.508
-3.5483201 44.728401 341.741
9.8812599 28.2505 346.17099
-1.07576 42.349201 341.422
-2.0128601 38.353802 345.48401
5.0753798 27.3297 349.69299
4.6136398 27.0714 350.26099
-4.5539098 45.5783 341.88901
-4.7128501 49.5159 338.939
3.9200399 24.5728 353.23801
-2.89993 41.4925 343.66299
14.8037 48.1171 330.76401
11.8399 51.442101 329.62
-1.97602 39.967201 344.047
-4.0703201 54.1619 334.95901
6.5155101 49.203602 332.267
-3.3593299 42.2262 343.448
3.4493201 35.2999 343.66
-1.62854 48.916199 336.80801
-4.5943499 52.363201 336.66299
-1.90205 48.783298 337.09201
7.55405 26.4785 348.94101
-2.9026101 50.838799 336.39001
9.3556995 25.3542 349.08701
4.2077298 28.652599 349.04001
0.56301898 36.145401 345.21799
9.9398098 26.8494 347.38501
-1.93861 52.3755 334.69
-2.2406499 52.4291 334.853
-0.98484403 51.8004 334.43399
-1.46024 52.290699 334.41
-1.3803 52.609699 334.14499
0.33926401 49.852798 334.88599
1.99036 35.1166 344.89801
1.7569 35.675201 344.612
-3.5283101 52.810799 335.44601
0.052494001 55.129601 331.82401
4.7750902 53.375801 330.57101
0.99912298 54.158199 331.89801
14.9347 50.9193 329.353
14.2797 44.660599 332.83701
-2.84726 52.272598 335.29901
-4.8112502 57.470798 333.383
11.1578 51.259701 329.86401
15.3565 49.812801 329.862
14.7942 50.254101 329.70001
9.2690096 24.7307 349.72299
-3.9380901 45.916901 341.05899
12.0359 51.6633 329.45499
2.7978899 33.251999 345.897
11.6817 51.763599 329.47501
11.3037 52.057999 329.39899
-3.5404201 53.191502 335.20999
-3.54951 53.708199 334.91199
1.7169501 29.0446 350.76901
-1.47983 53.658699 333.573
-6.3782802 57.694901 334.28601
-6.4850798 58.1595 334.065
-2.9893999 53.626099 334.599
-1.03072 54.501499 332.78601
15.9192 48.2948 330.56601
1.48058 36.8004 344.01401
-1.11841 52.937199 333.76999
6.2905002 29.994301 346.44101
4.0005102 26.7911 350.995
13.8563 49.1371 330.396
1.45377 52.3923 332.68201
2.1101401 33.028599 346.71301
1.21725 36.461899 344.44901
0.091086999 53.054298 333.017
0.315254 53.7845 332.457
-1.14368 34.2132 348.31
-5.5410199 51.978901 337.776
-5.11446 56.679901 334.03299
13.9032 51.668301 329.103
14.5321 51.624599 328.97299
6.7304602 52.8111 330.146
9.0669699 22.2827 352.12601
3.46839 49.662998 333.28
8.9807501 51.611599 330.19699
13.2563 49.287498 330.41599
9.9381599 23.6394 350.47501
8.9070301 52.045799 329.98599
-5.6800599 53.033798 337.22
9.7346401 24.385799 349.87299
2.15714 52.739399 332.129
1.19065 53.4114 332.23001
3.2218299 52.487202 331.75699
6.3183298 25.639 350.508
0.025673 34.298 347.319
-0.729092 34.290901 347.92899
2.79545 27.309401 351.444
10.2533 23.708799 350.28299
-4.8949599 52.5126 336.82401
0.639027 30.959999 349.91599
-5.3281498 52.889099 336.97299
-5.2597699 52.414902 337.229
-7.7419 55.803101 336.729
0.55148298 32.299 348.76401
6.0180202 52.2029 330.772
-5.05054 47.9137 340.543
-3.9409699 44.6166 342.16
13.7323 45.552399 332.41599
7.01194 50.7122 331.246
6.95684 51.651699 330.742
5.19489 51.952301 331.23001
-4.0683899 52.0639 336.40799
4.2220802 29.230499 348.495
-1.96253 47.579399 338.02701
-3.4277501 43.404099 342.539
-6.7838998 51.951401 338.957
12.8436 45.9967 332.353
-6.3263102 50.2136 339.91901
-6.7594199 55.890499 335.948
-6.8889298 57.682999 334.685
-3.80405 51.474899 336.59601
-4.2891998 51.804798 336.78799
-6.7512898 56.440601 335.548
-6.9486899 56.868599 335.37
12.8823 51.615299 329.29999
12.299 51.720798 329.36499
-6.4703999 57.236801 334.67599
16.2939 51.463402 328.784
-0.123192 48.555901 336.06
7.1293702 29.586901 346.319
9.5071297 51.089699 330.349
-0.86058003 46.984299 337.66299
-0.54401398 47.413101 337.13901
-5.8787498 58.374298 333.54901
0.23951 39.0462 343.03
1.51688 43.736401 338.414
-3.6210799 42.986301 343.07001
-4.0689402 43.5882 342.995
-3.4768901 50.9585 336.73499
3.6942301 43.664001 337.12701
-6.39151 51.615501 338.84799
3.4509799 48.2771 334.15701
-4.1437302 44.0383 342.73199
-4.06991 44.224899 342.54199
4.0349998 25.8979 351.84201
3.1280501 31.2288 347.452
1.19954 39.5755 341.828
10.8594 35.3451 339.92999
-1.01408 41.130699 342.39301
10.7991 32.093399 342.41299
12.2163 49.495499 330.509
9.5931702 33.851898 341.51599
9.5412302 24.0746 350.242
9.5826302 23.4158 350.81799
2.21173 36.631802 343.56799
-4.3495102 44.746799 342.37399
-1.78354 48.105099 337.479
-2.0815899 48.144501 337.68799
