# .PCD v0.7 - Point Cloud Data file format
VERSION 0.7
FIELDS x y z
SIZE 4 4 4
TYPE F F F
COUNT 1 1 1
WIDTH 142
HEIGHT 1
VIEWPOINT 0 0 0 1 0 0 0
POINTS 142
DATA ascii
-0.113702 -0.083622001 -1.4
-0.105304 -0.074583001 -1.39606
-0.104878 -0.076182 -1.39015
-0.104002 -0.071893997 -1.39498
-0.100231 -0.067078002 -1.39704
-0.099707998 -0.066515997 -1.39614
-0.081909999 -0.067414999 -1.39421
-0.078768 -0.068007 -1.39486
-0.077848002 -0.070001997 -1.39124
-0.074458003 -0.068704002 -1.395
-0.120281 -0.099606998 -1.4175
-0.124647 -0.104636 -1.41487
-0.125306 -0.10423 -1.41473
-0.12515 -0.109465 -1.41406
-0.124439 -0.106851 -1.4038301
-0.129219 -0.137918 -1.39495
-0.123987 -0.136509 -1.37993
-0.12600499 -0.14890701 -1.37489
-0.125248 -0.15149599 -1.36992
-0.117932 -0.155844 -1.3548599
-0.10543 -0.139127 -1.33473
-0.104958 -0.14152899 -1.33169
-0.10515 -0.14318199 -1.3298301
-0.104764 -0.136941 -1.3347
-0.086933002 -0.070083998 -1.38793
-0.098095998 -0.077205002 -1.375
-0.076173998 -0.071223997 -1.38943
-0.093782999 -0.074716002 -1.37984
-0.093711004 -0.072062001 -1.38422
-0.074974 -0.071451001 -1.38937
-0.070720002 -0.074683003 -1.38466
-0.069536999 -0.074868999 -1.38456
-0.069565997 -0.072030999 -1.38998
-0.065389998 -0.076048002 -1.38501
-0.120712 -0.106815 -1.41645
-0.123593 -0.106732 -1.41461
-0.078350998 -0.073270001 -1.38489
-0.070871003 -0.07559 -1.38318
-0.068727002 -0.075383998 -1.38402
-0.123678 -0.098917998 -1.41488
-0.121062 -0.094775997 -1.41484
-0.13007 -0.11558 -1.41328
-0.13131601 -0.118922 -1.40997
-0.131539 -0.120321 -1.4087501
-0.13034301 -0.12537301 -1.4036
-0.13193201 -0.122621 -1.4048899
-0.127434 -0.124402 -1.40499
-0.094976999 -0.094329998 -1.3541
-0.094672002 -0.095344 -1.3530999
-0.093549997 -0.098269999 -1.3498501
-0.120038 -0.111545 -1.38889
-0.114877 -0.105608 -1.3822401
-0.130436 -0.13722301 -1.39489
-0.12587801 -0.14556199 -1.38481
-0.129998 -0.138115 -1.38989
-0.128638 -0.141388 -1.38499
-0.12514301 -0.150123 -1.37492
-0.12104 -0.120104 -1.38473
-0.085721999 -0.123256 -1.32995
-0.103225 -0.138264 -1.32991
-0.123604 -0.151446 -1.37493
-0.082833998 -0.125386 -1.3288
-0.077279001 -0.130262 -1.32657
-0.074322999 -0.134803 -1.3247499
-0.076076001 -0.133085 -1.3249201
-0.093528003 -0.123821 -1.32996
-0.067209996 -0.121951 -1.33497
-0.071023002 -0.120777 -1.33448
-0.102469 -0.069996998 -1.39491
-0.088074997 -0.137852 -1.31988
-0.093765996 -0.064824998 -1.39446
-0.080370001 -0.139098 -1.31999
-0.079292998 -0.139698 -1.31998
-0.120808 -0.157821 -1.35963
-0.119726 -0.15871499 -1.35976
-0.075260997 -0.144282 -1.32485
-0.12439 -0.105531 -1.40536
-0.124439 -0.106851 -1.4038301
-0.123987 -0.136509 -1.37993
-0.115278 -0.138895 -1.3782901
-0.114871 -0.13017701 -1.38363
-0.109415 -0.15075999 -1.35763
-0.10543 -0.139127 -1.33473
-0.104673 -0.130459 -1.3392299
-0.104958 -0.14152899 -1.33169
-0.104764 -0.136941 -1.3347
-0.115464 -0.102746 -1.40952
-0.109345 -0.095372997 -1.40724
-0.114119 -0.100088 -1.40978
-0.111929 -0.097006999 -1.40949
-0.110537 -0.099235997 -1.40426
-0.107967 -0.095360003 -1.40496
-0.090604998 -0.084642999 -1.395
-0.095522001 -0.089281 -1.39442
-0.092128001 -0.086195998 -1.39434
-0.105552 -0.081605002 -1.38485
-0.108344 -0.088941 -1.3841701
-0.113789 -0.090929002 -1.39499
-0.084045999 -0.080159999 -1.3954999
-0.088251002 -0.083417997 -1.3944499
-0.084353998 -0.081081003 -1.39438
-0.081113003 -0.082607001 -1.38984
-0.081866004 -0.086199 -1.38478
-0.082431003 -0.089616001 -1.3798701
-0.081496 -0.092960998 -1.37451
-0.103587 -0.091104001 -1.40334
-0.084004998 -0.09623 -1.37192
-0.099910997 -0.090804003 -1.39806
-0.098012 -0.091548003 -1.39454
-0.083609 -0.100867 -1.3663599
-0.082695998 -0.105231 -1.3605
-0.083943002 -0.110431 -1.35527
-0.084583998 -0.11612 -1.3500201
-0.084683999 -0.111585 -1.35444
-0.084236003 -0.098256998 -1.36968
-0.10145 -0.092433996 -1.365
-0.119824 -0.111594 -1.41137
-0.119713 -0.113699 -1.40943
-0.119126 -0.115231 -1.4068201
-0.099431001 -0.093151003 -1.35975
-0.083351001 -0.102076 -1.36466
-0.119675 -0.118675 -1.40391
-0.120038 -0.111545 -1.38889
-0.110887 -0.118787 -1.38463
-0.114877 -0.105608 -1.3822401
-0.102667 -0.14764801 -1.34478
-0.086838998 -0.118129 -1.34952
-0.083970003 -0.121444 -1.3449301
-0.097209997 -0.136281 -1.34465
-0.099797003 -0.141743 -1.34457
-0.091246001 -0.133773 -1.3397599
-0.116594 -0.14187901 -1.37957
-0.12104 -0.120104 -1.38473
-0.107538 -0.129531 -1.36882
-0.104412 -0.129265 -1.33978
-0.101963 -0.124162 -1.3381701
-0.108227 -0.14398 -1.35975
-0.114819 -0.14339399 -1.3745
-0.107152 -0.148801 -1.35335
-0.105178 -0.149314 -1.34877
-0.104904 -0.15188301 -1.34631
-0.113031 -0.152532 -1.36496
