# .PCD v0.7 - Point Cloud Data file format
VERSION 0.7
FIELDS x y z
SIZE 4 4 4
TYPE F F F
COUNT 1 1 1
WIDTH 170
HEIGHT 1
VIEWPOINT 0 0 0 1 0 0 0
POINTS 170
DATA ascii
-0.0025780001 -0.12044 -1.31994
-0.029529 -0.10987 -1.31652
-0.034552999 -0.109637 -1.3178
-0.0034340001 -0.120053 -1.32437
-0.0094699999 -0.12439 -1.32489
-0.01484 -0.128031 -1.32988
-0.043053001 -0.096289001 -1.3097
-0.0091359997 -0.111131 -1.31433
-0.044759002 -0.076255001 -1.3358099
-0.045874 -0.081 -1.335
-0.049757998 -0.085352004 -1.33755
-0.051054001 -0.083633997 -1.3397501
-0.049637999 -0.080479003 -1.33938
-0.074254997 -0.129489 -1.34051
-0.064415999 -0.134689 -1.34152
-0.056564 -0.135932 -1.33986
-0.058843002 -0.134589 -1.33952
-0.069605999 -0.134094 -1.34323
-0.073720001 -0.132974 -1.34497
-0.046994999 -0.102727 -1.31485
-0.043508999 -0.099896997 -1.31278
-0.043715999 -0.101909 -1.31446
-0.056634001 -0.10968 -1.31996
-0.049343999 -0.108781 -1.31995
-0.039576001 -0.095858999 -1.3098
-0.034922 -0.075299002 -1.32611
-0.036768999 -0.069539003 -1.32995
-0.029973 -0.072255999 -1.32271
-0.032772999 -0.074366003 -1.32454
-0.032113001 -0.069458 -1.32493
-0.040252998 -0.080027997 -1.3297
-0.039338998 -0.076318003 -1.32995
-0.043508999 -0.075886004 -1.335
-0.039728999 -0.070202 -1.33295
-0.054692 -0.091090001 -1.3408099
-0.059037998 -0.095380999 -1.34382
-0.015982 -0.129711 -1.3296601
-0.054689001 -0.086244002 -1.34289
-0.02 -0.135488 -1.33459
-0.020090001 -0.13472 -1.3347501
-0.019792 -0.13344 -1.33479
-0.017449001 -0.071367003 -1.2948999
-0.021311 -0.071958996 -1.29497
-0.016448 -0.069916002 -1.2942899
-0.014221 -0.070115998 -1.29497
-0.012362 -0.068938002 -1.29475
-0.025914 -0.079875 -1.29882
-0.034697998 -0.089048997 -1.30487
-0.030313 -0.081897996 -1.3
-0.027863 -0.081519 -1.29988
-0.016029 -0.074074998 -1.29711
-0.013178 -0.077768996 -1.29979
-0.014716 -0.079879001 -1.30073
-0.023987999 -0.074793003 -1.29616
-0.062674001 -0.114939 -1.32481
-0.056917001 -0.114672 -1.32469
-0.039140999 -0.11498 -1.32171
-0.052593999 -0.109364 -1.31995
-0.053971 -0.10999 -1.3203599
0.0034159999 -0.052243002 -1.2898999
0.0063689998 -0.050565001 -1.28983
0.0086930003 -0.054960001 -1.29177
0.0085030003 -0.049635999 -1.28984
0.01267 -0.059989002 -1.29354
0.015912 -0.059679002 -1.29342
0.001993 -0.069715001 -1.29643
0.0080169998 -0.064804003 -1.29493
-0.048183002 -0.104767 -1.31638
-0.068441004 -0.119086 -1.32981
0.0049000001 -0.079677001 -1.30005
-0.059565999 -0.124385 -1.33272
-0.069071002 -0.119998 -1.3307101
0.025183 -0.080012001 -1.30238
-0.037780002 -0.094655998 -1.30909
-0.073876999 -0.12881701 -1.33978
-0.022069 -0.140627 -1.33496
-0.034788001 -0.143962 -1.33939
-0.0089819999 -0.058058999 -1.28992
-0.025188001 -0.146302 -1.34
-0.003517 -0.055342998 -1.28994
-0.023281001 -0.14342999 -1.33996
-0.007394 -0.064848997 -1.2936
-0.012019 -0.064805001 -1.2923501
-0.0023950001 -0.054714002 -1.2899899
-0.001767 -0.054598 -1.29004
-0.00060899998 -0.059836999 -1.29255
-0.034999002 -0.070321999 -1.32757
0.0016129999 -0.110863 -1.3149101
0.00017299999 -0.117418 -1.31996
0.000111 -0.115923 -1.3207901
0.0050420002 -0.105108 -1.312
-0.062905997 -0.13337301 -1.33995
0.0056190002 -0.094984002 -1.3135
2.2e-05 -0.114946 -1.32138
0.0051130001 -0.095339 -1.31362
0.0057120002 -0.094440997 -1.30981
0.0048130001 -0.09843 -1.30981
-0.00868 -0.104833 -1.31076
0.0050599999 -0.104891 -1.3118401
-0.0097660003 -0.041689001 -1.3022799
-0.012534 -0.042585999 -1.30497
0.0081310002 -0.089556001 -1.30493
0.012926 -0.086568996 -1.30495
0.015314 -0.085055001 -1.3033299
0.016388001 -0.083446003 -1.3048199
-0.053754002 -0.129742 -1.3346
-0.045265 -0.11735 -1.3248301
-0.048039 -0.119986 -1.32699
0.007222 -0.090865999 -1.30495
-0.073807999 -0.124948 -1.33596
-0.077905998 -0.12394 -1.3349
-0.071716003 -0.12398 -1.33477
-0.029529 -0.10987 -1.31652
-0.034552999 -0.109637 -1.3178
-0.029459 -0.109969 -1.3264101
-0.034704 -0.10936 -1.32716
-0.029918 -0.107173 -1.32495
-0.023367001 -0.104892 -1.3224
-0.028259 -0.104833 -1.32333
-0.0091359997 -0.111131 -1.31433
-0.054620001 -0.12885 -1.34386
-0.039731 -0.124381 -1.3272099
-0.013186 -0.094697997 -1.31611
-0.020117 -0.118673 -1.3297499
-0.034497999 -0.129805 -1.33922
-0.033495001 -0.134472 -1.34182
-0.0067650001 -0.091610998 -1.3049001
-0.017449001 -0.071367003 -1.2948999
-0.016448 -0.069916002 -1.2942899
-0.014221 -0.070115998 -1.29497
-0.012362 -0.068938002 -1.29475
-0.025914 -0.079875 -1.29882
-0.016029 -0.074074998 -1.29711
-0.013178 -0.077768996 -1.29979
-0.014716 -0.079879001 -1.30073
-0.039140999 -0.11498 -1.32171
0.0086930003 -0.054960001 -1.29177
0.01267 -0.059989002 -1.29354
0.015912 -0.059679002 -1.29342
0.001993 -0.069715001 -1.29643
0.024421999 -0.069562003 -1.2977901
0.017519999 -0.059593 -1.30036
0.023791 -0.059689 -1.30051
0.024518 -0.064507999 -1.30232
0.025936 -0.059939001 -1.30064
0.018610001 -0.058504999 -1.2999001
0.023876 -0.057234999 -1.29976
0.0049000001 -0.079677001 -1.30005
0.011208 -0.079680003 -1.30013
0.0085629998 -0.074612997 -1.3065
0.011594 -0.074589998 -1.30635
0.00098100002 -0.084972002 -1.31048
-0.059565999 -0.124385 -1.33272
-0.069071002 -0.119998 -1.3307101
0.005165 -0.079906002 -1.30839
-0.003517 -0.055342998 -1.28994
-0.007394 -0.064848997 -1.2936
-0.012019 -0.064805001 -1.2923501
-0.0023950001 -0.054714002 -1.2899899
-0.001767 -0.054598 -1.29004
-0.00060899998 -0.059836999 -1.29255
-0.00868 -0.104833 -1.31076
-0.053754002 -0.129742 -1.3346
-0.045265 -0.11735 -1.3248301
0.021423001 -0.077312 -1.29994
0.022688 -0.074773997 -1.29918
-0.048039 -0.119986 -1.32699
-0.0093320003 -0.089569002 -1.31322
-0.000658 -0.083571002 -1.30997
-0.0098010004 -0.094200999 -1.31538
