# .PCD v0.7 - Point Cloud Data file format
VERSION 0.7
FIELDS x y z
SIZE 4 4 4
TYPE F F F
COUNT 1 1 1
WIDTH 785
HEIGHT 1
VIEWPOINT 0 0 0 1 0 0 0
POINTS 785
DATA ascii
6.3193202 30.313999 340.77499
9.05439 20.957199 347.983
-0.160484 24.4328 350.216
0.42860401 23.7236 350.367
0.154217 24.054899 350.29099
0.88493299 23.302401 350.367
-2.9407201 31.443199 345.18201
9.0186996 21.587799 347.37201
0.72938901 24.1231 349.59201
0.80112499 23.8561 349.79001
-5.0405302 38.567001 340.87701
-0.084587 24.485201 349.77301
1.10438 30.461 343.44
0.215729 35.863602 339.573
6.5064702 36.3134 336.086
7.7680998 25.004999 344.63199
8.8311195 24.003401 345.13199
7.5857 33.264198 337.94901
2.46048 21.631599 350.81699
4.3118401 50.411999 328.11099
5.0444102 39.426601 334.47299
4.0313001 45.987999 330.591
-4.4137998 36.971901 341.67099
9.5031099 24.131399 345.12
-0.57916301 25.2563 349.54199
9.3541899 24.193199 344.97101
-4.2776399 31.0776 346.54501
-4.4760799 50.155899 332.27499
5.2315602 42.613602 332.27301
2.4402699 26.341999 346.181
-4.7788 52.3097 331.048
-5.2287002 52.234699 331.409
-4.1661801 31.071899 346.75699
14.7533 47.121101 327.565
14.9441 46.840099 327.86899
-4.3384199 53.003201 330.38199
-3.50597 30.844999 346.02899
-3.7620699 30.9168 346.13599
-6.0511098 36.542 343.14999
14.9032 43.743099 329.92001
5.4576502 46.216099 330.08301
-3.58003 35.527401 342.293
-3.63484 34.338699 343.27701
6.2870202 23.609699 346.57401
14.3833 43.2873 329.95499
14.2304 42.616001 330.26501
-4.1956501 32.333698 345.22
-1.78074 43.251499 335.23999
13.6315 41.7915 330.56
14.0038 41.943501 330.522
5.2838402 47.1479 329.59799
-5.06706 40.1292 339.71799
8.7936697 19.198299 349.797
7.88556 30.9062 339.62601
6.5475302 18.456699 351.51501
7.52211 17.998501 351.49399
7.1844201 18.121201 351.53699
-10.0602 56.543999 331.992
6.3455801 22.853701 347.27899
-8.3797703 54.240101 332.241
-5.1401701 32.8787 345.582
-4.6526899 32.791199 345.20901
-8.8640404 53.868301 332.81699
14.1566 48.7631 326.76401
1.26127 23.0369 350.29501
0.68094301 27.323999 346.51099
1.63942 22.381599 350.82001
1.36959 22.833 350.44501
-8.2102499 54.634399 331.87701
-7.7060399 56.038799 330.72501
-7.0307999 40.311001 340.92001
-4.85568 33.389099 344.86099
0.96776599 24.4508 349.129
12.3573 46.590599 328.01001
-5.2560701 33.741798 344.858
1.52125 23.431801 349.70599
-5.1916499 34.1898 344.39001
-5.1512799 36.560799 342.48001
-7.3117299 53.4986 332.056
11.8975 46.758099 328.00601
15.546 49.895199 326.06699
-3.1953499 49.552502 331.79199
13.1825 42.691399 330.09698
-5.0240898 48.206699 333.94
1.0229599 28.5242 345.146
14.0829 50.1161 326.164
7.1247101 21.2959 348.37601
2.47505 23.285 349.16199
13.7061 41.4165 330.76999
-0.25107199 39.7658 336.79099
9.2817898 26.2644 343.13599
9.0946903 26.509701 342.909
-2.4196701 31.193001 345.13101
-1.88829 30.8675 345.10901
-3.34851 29.9475 346.70599
-8.8856401 45.8493 338.271
2.1012399 40.983799 334.66101
9.8821802 30.6933 339.25201
9.9565697 31.0637 338.92099
7.2347102 45.197201 330.13599
5.22504 45.394402 330.61801
-2.8613701 28.8491 347.42999
14.8214 45.751099 328.68399
-2.5594699 42.6581 336.21201
9.5043402 26.8246 342.57599
-8.6037302 45.522099 338.28299
9.3704004 45.0317 329.586
8.4102001 29.9631 340.23199
8.6363602 43.859001 330.46799
-8.8499603 56.376099 331.26901
10.1055 30.3188 339.534
9.7324495 30.0173 339.82001
0.36149201 44.7047 333.004
8.9068203 20.5455 348.414
-2.08197 30.5371 345.53601
-7.1550202 39.988998 341.26199
-2.2855301 45.1469 334.22198
-3.46332 30.1595 346.61401
9.3187504 50.337799 326.76199
13.0317 40.143902 331.70499
6.3941102 40.513599 333.23999
12.1882 39.8489 332.064
13.1476 41.700901 330.689
12.9617 42.380299 330.32001
-0.77695101 44.536701 333.70999
13.1817 43.3634 329.70599
13.0317 42.914001 329.99301
3.06567 21.069901 350.97198
12.1122 42.442902 330.474
10.5951 49.891201 326.67001
9.1322098 50.918201 326.664
3.9754901 45.501499 330.91699
3.74786 44.972099 331.32101
3.01913 45.088799 331.53
-3.3715999 32.080502 344.88699
-3.31846 31.2512 345.548
11.832 37.664799 333.582
9.5813999 29.0406 340.62399
10.1015 29.590599 340.173
7.8196802 48.614799 328.02499
9.1295996 46.0028 329.11301
8.1438303 46.586601 329.048
10.4538 46.617401 328.42899
11.3822 46.814999 328.09399
-0.50846499 39.160999 337.45599
-8.9739504 46.2953 337.992
5.8119502 31.212099 340.26801
-2.4188499 47.938301 332.37701
11.8269 45.313599 328.84299
9.37673 28.3696 341.241
13.5992 47.967999 327.215
1.41821 45.1605 332.207
4.01231 42.388 332.897
-5.8924699 36.243401 343.254
6.3473701 41.198299 332.80801
1.68718 43.315899 333.29501
3.2930501 44.313801 331.90201
2.87865 43.373402 332.71201
7.2526002 33.943199 337.52899
-1.11217 38.9692 338.03601
-4.59584 49.2397 332.97
-3.9914601 49.665699 332.25101
-10.1174 51.8465 335.112
15.7319 49.816799 326.08701
-5.3238902 35.133301 343.72299
0.54138201 31.819799 342.66699
3.74225 40.9002 333.96701
4.1167202 41.415001 333.47699
2.8782401 41.450901 334.00101
-6.1985798 41.299198 339.62299
2.4396901 45.503899 331.51501
6.5349498 22.139 347.83401
0.35570899 33.687698 341.241
8.5314302 23.638599 345.58099
8.0092497 28.594 341.47198
14.7852 48.8592 326.646
7.7357302 21.0662 348.33099
8.3794298 20.8367 348.297
6.0947499 28.463699 342.41101
7.1439099 29.056999 341.439
6.4895401 29.285601 341.51099
12.2117 39.1982 332.49399
9.1689596 22.219601 346.784
10.7059 42.4431 330.80399
-7.67384 42.056599 340.103
1.90444 34.2714 339.73401
12.4318 47.564098 327.53201
7.1641698 27.6562 342.61499
4.3118 22.9244 348.271
-7.0658398 55.6847 330.48999
-5.3302698 34.3116 344.39099
8.8325005 22.9702 346.10199
-5.5696902 55.062599 329.91199
-4.5904899 51.091801 331.742
9.0189304 27.2381 342.27899
3.24509 29.4529 342.90399
-3.36567 29.2782 347.37399
1.46939 24.555 348.69299
-3.9898701 50.7174 331.595
-1.18168 29.4317 345.923
10.4631 49.514198 326.88599
9.6272802 49.9333 326.87701
9.9299603 49.188202 327.186
14.7455 46.292702 328.17499
14.6016 46.1455 328.15302
0.70098901 51.2262 328.92001
11.4899 48.727501 327.10199
10.7585 48.159599 327.53299
5.3868899 19.0938 351.60501
8.8731003 35.552601 335.90302
3.80867 51.9147 327.58099
1.85647 50.113602 329.03699
4.6297798 51.4613 327.53601
11.2312 36.087601 334.79199
10.3696 36.5397 334.74899
-10.0467 52.2952 334.69299
-1.15548 30.885 344.595
11.0832 35.418098 335.311
14.7299 44.7318 329.26501
-0.44884899 27.827 346.92899
-5.62924 51.712399 332.047
-6.3910398 37.740799 342.49399
1.9341 51.842602 328.133
1.7353899 52.158298 328.06601
2.4637899 24.3794 348.13199
14.9845 45.461899 329.03601
0.83584601 34.894901 339.92099
7.57547 34.8326 336.755
-0.029243 31.2682 343.51099
7.1349902 34.739201 336.96201
-1.5433 40.161201 337.396
6.8829498 47.0107 329.19199
5.7614198 35.929699 336.659
-10.7496 57.163502 332.16199
-8.8676701 46.6926 337.62601
2.8310201 51.313 328.12
2.5302801 51.6492 328.05701
-1.19586 53.088402 328.78
9.9759903 41.115002 331.767
3.3940899 48.013699 329.67899
6.7315602 34.888599 337.00601
6.48915 34.403599 337.48199
1.97243 30.106199 343.10999
0.79111499 30.2714 343.819
4.1028199 23.3871 347.948
3.45349 23.5212 348.21301
1.6131901 35.189301 339.16
9.1791096 18.794001 350.383
-6.7407699 38.262199 342.414
2.4979899 25.830999 346.64099
7.2384 38.9398 334.064
10.0313 31.271 338.73401
7.38942 50.5662 327.10901
7.1350298 50.3955 327.25299
-0.212906 51.4856 329.17999
6.3565798 19.5137 350.53299
2.98211 24.805401 347.29099
-1.62788 48.5275 331.57999
-10.0863 56.095901 332.29999
6.56321 43.308102 331.44199
-9.6341496 48.165798 337.16699
5.3629298 19.6443 350.89999
5.5711298 19.261 351.19299
-6.5676699 37.8927 342.56601
6.3400302 50.904301 327.245
6.1334901 51.128201 327.21399
-5.9453402 36.687 342.95099
-5.9930902 37.182598 342.59
-9.4327898 47.270901 337.77399
4.2578502 24.430099 346.84601
0.246693 40.254501 336.13699
0.95894599 52.5896 328.15601
9.66961 24.6203 344.82199
5.3028998 36.891899 336.133
5.9070501 37.177101 335.655
3.8076 24.7092 346.82199
-1.09703 26.612499 348.539
2.06826 48.610199 329.811
-0.33060801 30.522499 344.353
4.20118 25.5714 345.815
-2.3362999 27.6378 348.22198
10.9919 40.689499 331.78601
11.4201 41.284901 331.32901
9.6578302 40.797401 332.06699
4.6110501 20.285801 350.72601
6.7317801 50.488998 327.323
-1.49726 52.966202 328.98001
-9.5811501 50.732399 335.38599
-10.1565 51.545601 335.37399
-3.8394201 54.465099 329.39001
10.7823 34.071999 336.41299
8.4169302 31.321699 339.129
8.0166702 31.684 338.96201
1.48938 27.07 346.16101
-8.1184998 44.929401 338.341
-7.5959601 56.3368 330.50299
9.4292698 25.8179 343.60001
2.7095599 46.532299 330.73999
8.9805803 19.374701 349.61899
10.4831 33.768398 336.72299
9.0388203 48.934502 327.543
8.3063898 50.0382 327.13501
-2.41766 28.139601 347.849
-0.318268 25.694599 348.82199
-0.48638499 26.3741 348.29501
-7.3074002 40.069401 341.37
3.7250199 39.619999 334.89099
2.55547 39.0238 335.853
5.2397699 43.379799 331.78101
12.8823 49.966202 326.37399
9.5066605 25.672199 343.76599
-2.34463 53.337399 329.19501
14.9812 49.849499 326.18301
15.1216 49.323502 326.396
-0.89918101 52.2519 329.056
3.62047 23.8846 347.754
3.62885 24.3458 347.298
9.5897799 24.6485 344.672
-6.2561402 39.145699 341.27301
-6.9158201 38.872299 341.97299
7.7066598 49.513699 327.565
6.8548398 49.771599 327.664
4.7056799 37.919201 335.65399
-9.5406599 57.2411 331.25299
5.4594402 44.442799 331.08701
2.3439701 46.269901 331.06201
-2.52721 52.818001 329.55701
2.5676999 47.337002 330.35599
2.8296299 47.710999 330.04001
4.4912 44.479801 331.34698
1.06845 29.562799 344.276
11.6074 37.403702 333.802
9.5472002 24.9198 344.39899
11.7103 43.627499 329.84799
10.728 44.812801 329.38501
8.5887403 50.527699 326.827
3.43276 20.831499 350.966
7.7820101 25.531099 344.18701
3.7004399 20.439699 351.41501
14.9046 47.418301 327.42099
5.20365 38.638901 334.948
10.3981 31.6812 338.36301
-8.3163099 56.094101 331.08499
3.50753 22.5902 349.03699
3.4140999 23.003 348.72198
3.7506001 23.1141 348.40201
-2.93838 53.868401 329.17401
-1.66669 28.8507 346.79599
14.6919 44.075401 329.62201
-5.67665 35.492699 343.702
3.05674 35.123299 338.48001
-1.43867 50.4795 330.315
11.1818 34.623001 335.931
14.6817 49.7383 326.259
11.495 50.078499 326.45599
-1.38625 28.215099 347.22501
7.9323802 17.496201 351.866
-5.5712199 55.743801 329.953
6.42275 37.271 335.40201
6.7980499 37.5905 335.078
-2.9737899 48.105499 332.59601
-3.26934 48.822201 332.29199
-2.5871899 48.6138 332.022
-8.9642296 48.292999 336.621
12.132 50.1147 326.37701
10.4843 33.174702 337.17999
13.2572 50.189301 326.26501
-0.50485599 52.2901 328.85001
1.33245 52.214699 328.15399
0.30066699 52.289101 328.496
0.69601798 52.291 328.33701
11.6453 50.3214 326.366
-5.2315302 54.4445 330.064
6.2525301 38.655602 334.564
14.3804 46.142399 328.09601
-7.3599 46.878601 336.45599
10.8556 33.8727 336.58499
9.8807697 39.9963 332.53601
9.5066204 27.614201 341.888
14.3985 44.379299 329.29001
12.394 45.931801 328.37399
2.3060801 36.1255 338.095
1.25784 38.003101 337.216
4.9507098 50.770599 327.73599
5.7574801 49.890301 327.94699
-10.1764 54.687698 333.414
12.9564 45.593899 328.47
0.159904 38.760899 337.302
0.58412898 38.041801 337.58401
8.7555704 17.5895 351.64499
-7.6513 41.264999 340.76599
-7.3284101 41.613201 340.16
12.5163 49.702 326.517
-8.3893404 43.893799 339.271
-8.0630503 44.262901 338.76599
-7.6672401 43.215199 339.25299
-10.05 55.335499 332.76001
-3.0241101 32.553001 344.32999
-9.6515102 48.091801 337.61401
4.3587098 26.468 344.92999
3.0239 27.599899 344.62799
2.7386401 33.071201 340.245
-9.7662497 53.790401 333.56201
13.1819 44.958199 328.784
0.95704699 38.339401 337.125
0.67766601 37.572899 337.89499
-4.0658998 54.241402 329.569
-2.4947701 31.8118 344.63699
-1.5545501 31.8906 343.979
1.0849299 32.672901 341.586
-10.1116 52.813099 334.46301
-9.3959398 52.811699 333.92001
2.4170599 30.986 342.11499
-10.1 53.4921 334.009
-9.4568396 48.822201 336.59601
-9.9628801 49.671902 336.57001
4.9356999 19.9447 350.84601
3.6554101 20.698099 350.96301
-1.36868 27.4844 347.93399
-1.66916 27.6703 347.94699
13.5571 49.168301 326.64801
14.218 49.749401 326.298
0.87354302 34.187302 340.47
-2.8257501 47.247898 333.082
-2.0046501 46.702801 332.92599
-6.18326 40.6306 340.10001
10.6928 40.167301 332.18201
10.5405 39.807701 332.47101
9.2608995 41.765999 331.59399
9.5827198 42.409801 331.10501
12.3531 49.074902 326.81799
5.4948602 51.089699 327.431
4.8957601 51.259701 327.53601
11.7555 36.770901 334.198
8.9635 21.8204 347.15701
9.3499002 17.8395 351.595
8.5317602 17.7022 351.50201
-4.44175 54.240601 329.74899
8.68188 18.2787 350.854
8.8311501 18.0839 351.11801
10.8847 49.461899 326.827
10.9315 50.0383 326.552
12.6566 40.4571 331.57599
-10.0295 57.202599 331.57599
-10.7749 57.916901 331.77399
-4.81704 54.240299 329.944
-5.3421502 54.690102 329.987
-0.60820001 52.570999 328.74399
4.23983 22.6113 348.60599
-1.87421 52.181499 329.58301
-9.5401497 57.465401 331.17801
9.2099304 20.549101 348.561
10.5182 32.644798 337.61099
12.0276 38.654999 332.88599
-3.4680099 51.4268 330.85101
-2.46012 50.114201 331.056
-3.2436099 52.194901 330.27301
11.7009 37.8899 333.46201
-8.8273897 53.136002 333.29901
-7.9420099 53.142601 332.70801
-0.34910199 24.780899 349.77899
10.7318 32.5303 337.82501
1.1081001 35.903099 338.90201
0.68740797 36.3731 338.82101
-3.3943501 53.778599 329.46301
3.0623801 21.021799 351.11801
2.62321 21.429001 350.97101
-6.4285598 55.3283 330.254
-6.2364502 55.665699 329.97501
-9.9717598 50.278999 335.94101
6.26406 37.6661 335.18201
7.8584499 50.939098 326.89099
7.5594501 50.865501 326.97101
-0.167648 52.439701 328.61899
7.8653102 17.374701 352.168
3.2448699 51.6147 327.854
15.3549 48.317699 326.97198
8.8126402 19.855101 349.142
8.7566004 20.4104 348.60599
7.5174298 22.0973 347.40302
7.33254 19.3188 350.245
-9.8541203 54.840599 332.92499
6.3193202 30.313999 340.77499
-2.9407201 31.443199 345.18201
0.72938901 24.1231 349.59201
0.80112499 23.8561 349.79001
-5.0405302 38.567001 340.87701
1.10438 30.461 343.44
0.215729 35.863602 339.573
6.5064702 36.3134 336.086
7.7680998 25.004999 344.63199
7.5857 33.264198 337.94901
4.3118401 50.411999 328.11099
5.0444102 39.426601 334.47299
4.0313001 45.987999 330.591
-4.4137998 36.971901 341.67099
-4.4760799 50.155899 332.27499
5.2315602 42.613602 332.27301
2.4402699 26.341999 346.181
-4.7788 52.3097 331.048
-5.2287002 52.234699 331.409
-4.3384199 53.003201 330.38199
-3.50597 30.844999 346.02899
5.4576502 46.216099 330.08301
-3.58003 35.527401 342.293
-3.63484 34.338699 343.27701
6.2870202 23.609699 346.57401
-4.1956501 32.333698 345.22
-1.78074 43.251499 335.23999
5.2838402 47.1479 329.59799
-5.06706 40.1292 339.71799
8.7936697 19.198299 349.797
7.88556 30.9062 339.62601
-10.0602 56.543999 331.992
6.3455801 22.853701 347.27899
-8.3797703 54.240101 332.241
-8.8640404 53.868301 332.81699
14.1566 48.7631 326.76401
0.68094301 27.323999 346.51099
-8.2102499 54.634399 331.87701
0.96776599 24.4508 349.129
12.3573 46.590599 328.01001
1.52125 23.431801 349.70599
-5.1512799 36.560799 342.48001
-7.3117299 53.4986 332.056
11.8975 46.758099 328.00601
-3.1953499 49.552502 331.79199
13.1825 42.691399 330.09698
-5.0240898 48.206699 333.94
1.0229599 28.5242 345.146
7.1247101 21.2959 348.37601
2.47505 23.285 349.16199
-0.25107199 39.7658 336.79099
-2.4196701 31.193001 345.13101
-1.88829 30.8675 345.10901
2.1012399 40.983799 334.66101
7.2347102 45.197201 330.13599
5.22504 45.394402 330.61801
-2.5594699 42.6581 336.21201
9.3704004 45.0317 329.586
8.4102001 29.9631 340.23199
8.6363602 43.859001 330.46799
-8.8499603 56.376099 331.26901
0.36149201 44.7047 333.004
-2.08197 30.5371 345.53601
-2.2855301 45.1469 334.22198
6.3941102 40.513599 333.23999
12.1882 39.8489 332.064
13.1476 41.700901 330.689
12.9617 42.380299 330.32001
-0.77695101 44.536701 333.70999
13.1817 43.3634 329.70599
13.0317 42.914001 329.99301
12.1122 42.442902 330.474
10.5951 49.891201 326.67001
3.9754901 45.501499 330.91699
3.74786 44.972099 331.32101
3.01913 45.088799 331.53
-3.3715999 32.080502 344.88699
-3.31846 31.2512 345.548
7.8196802 48.614799 328.02499
9.1295996 46.0028 329.11301
8.1438303 46.586601 329.048
10.4538 46.617401 328.42899
11.3822 46.814999 328.09399
-0.50846499 39.160999 337.45599
5.8119502 31.212099 340.26801
-2.4188499 47.938301 332.37701
11.8269 45.313599 328.84299
13.5992 47.967999 327.215
1.41821 45.1605 332.207
4.01231 42.388 332.897
-5.8924699 36.243401 343.254
6.3473701 41.198299 332.80801
1.68718 43.315899 333.29501
3.2930501 44.313801 331.90201
2.87865 43.373402 332.71201
7.2526002 33.943199 337.52899
-1.11217 38.9692 338.03601
-4.59584 49.2397 332.97
-3.9914601 49.665699 332.25101
0.54138201 31.819799 342.66699
3.74225 40.9002 333.96701
4.1167202 41.415001 333.47699
2.8782401 41.450901 334.00101
-6.1985798 41.299198 339.62299
2.4396901 45.503899 331.51501
6.5349498 22.139 347.83401
0.35570899 33.687698 341.241
8.5314302 23.638599 345.58099
8.0092497 28.594 341.47198
14.7852 48.8592 326.646
7.7357302 21.0662 348.33099
8.3794298 20.8367 348.297
6.0947499 28.463699 342.41101
7.1439099 29.056999 341.439
6.4895401 29.285601 341.51099
10.7059 42.4431 330.80399
1.90444 34.2714 339.73401
12.4318 47.564098 327.53201
7.1641698 27.6562 342.61499
4.3118 22.9244 348.271
-4.5904899 51.091801 331.742
9.0189304 27.2381 342.27899
3.24509 29.4529 342.90399
1.46939 24.555 348.69299
-3.9898701 50.7174 331.595
-1.18168 29.4317 345.923
10.4631 49.514198 326.88599
9.6272802 49.9333 326.87701
9.9299603 49.188202 327.186
0.70098901 51.2262 328.92001
11.4899 48.727501 327.10199
10.7585 48.159599 327.53299
8.8731003 35.552601 335.90302
1.85647 50.113602 329.03699
10.3696 36.5397 334.74899
-1.15548 30.885 344.595
-0.44884899 27.827 346.92899
-5.62924 51.712399 332.047
1.9341 51.842602 328.133
2.4637899 24.3794 348.13199
0.83584601 34.894901 339.92099
7.57547 34.8326 336.755
-0.029243 31.2682 343.51099
7.1349902 34.739201 336.96201
-1.5433 40.161201 337.396
6.8829498 47.0107 329.19199
5.7614198 35.929699 336.659
-8.8676701 46.6926 337.62601
2.8310201 51.313 328.12
2.5302801 51.6492 328.05701
9.9759903 41.115002 331.767
3.3940899 48.013699 329.67899
6.7315602 34.888599 337.00601
6.48915 34.403599 337.48199
1.97243 30.106199 343.10999
0.79111499 30.2714 343.819
4.1028199 23.3871 347.948
3.45349 23.5212 348.21301
1.6131901 35.189301 339.16
2.4979899 25.830999 346.64099
7.2384 38.9398 334.064
7.1350298 50.3955 327.25299
-0.212906 51.4856 329.17999
6.3565798 19.5137 350.53299
2.98211 24.805401 347.29099
-1.62788 48.5275 331.57999
-10.0863 56.095901 332.29999
6.56321 43.308102 331.44199
5.3629298 19.6443 350.89999
5.5711298 19.261 351.19299
6.3400302 50.904301 327.245
4.2578502 24.430099 346.84601
0.246693 40.254501 336.13699
5.3028998 36.891899 336.133
5.9070501 37.177101 335.655
3.8076 24.7092 346.82199
-1.09703 26.612499 348.539
2.06826 48.610199 329.811
-0.33060801 30.522499 344.353
4.20118 25.5714 345.815
10.9919 40.689499 331.78601
11.4201 41.284901 331.32901
9.6578302 40.797401 332.06699
4.6110501 20.285801 350.72601
6.7317801 50.488998 327.323
8.4169302 31.321699 339.129
8.0166702 31.684 338.96201
1.48938 27.07 346.16101
-8.1184998 44.929401 338.341
2.7095599 46.532299 330.73999
10.4831 33.768398 336.72299
9.0388203 48.934502 327.543
8.3063898 50.0382 327.13501
-0.318268 25.694599 348.82199
-0.48638499 26.3741 348.29501
3.7250199 39.619999 334.89099
2.55547 39.0238 335.853
5.2397699 43.379799 331.78101
12.8823 49.966202 326.37399
-2.34463 53.337399 329.19501
14.9812 49.849499 326.18301
15.1216 49.323502 326.396
-0.89918101 52.2519 329.056
3.62047 23.8846 347.754
3.62885 24.3458 347.298
-6.2561402 39.145699 341.27301
7.7066598 49.513699 327.565
6.8548398 49.771599 327.664
4.7056799 37.919201 335.65399
5.4594402 44.442799 331.08701
2.3439701 46.269901 331.06201
-2.52721 52.818001 329.55701
2.5676999 47.337002 330.35599
2.8296299 47.710999 330.04001
4.4912 44.479801 331.34698
1.06845 29.562799 344.276
11.7103 43.627499 329.84799
10.728 44.812801 329.38501
8.5887403 50.527699 326.827
7.7820101 25.531099 344.18701
5.20365 38.638901 334.948
3.50753 22.5902 349.03699
3.4140999 23.003 348.72198
3.7506001 23.1141 348.40201
-1.66669 28.8507 346.79599
3.05674 35.123299 338.48001
-1.43867 50.4795 330.315
14.6817 49.7383 326.259
11.495 50.078499 326.45599
-1.38625 28.215099 347.22501
6.42275 37.271 335.40201
6.7980499 37.5905 335.078
-2.9737899 48.105499 332.59601
-3.26934 48.822201 332.29199
-2.5871899 48.6138 332.022
-8.9642296 48.292999 336.621
12.132 50.1147 326.37701
-0.50485599 52.2901 328.85001
1.33245 52.214699 328.15399
0.30066699 52.289101 328.496
0.69601798 52.291 328.33701
-5.2315302 54.4445 330.064
6.2525301 38.655602 334.564
-7.3599 46.878601 336.45599
9.8807697 39.9963 332.53601
9.5066204 27.614201 341.888
12.394 45.931801 328.37399
2.3060801 36.1255 338.095
1.25784 38.003101 337.216
4.9507098 50.770599 327.73599
5.7574801 49.890301 327.94699
12.9564 45.593899 328.47
0.159904 38.760899 337.302
0.58412898 38.041801 337.58401
12.5163 49.702 326.517
-3.0241101 32.553001 344.32999
4.3587098 26.468 344.92999
3.0239 27.599899 344.62799
2.7386401 33.071201 340.245
13.1819 44.958199 328.784
0.95704699 38.339401 337.125
0.67766601 37.572899 337.89499
-2.4947701 31.8118 344.63699
-1.5545501 31.8906 343.979
1.0849299 32.672901 341.586
-9.3959398 52.811699 333.92001
2.4170599 30.986 342.11499
4.9356999 19.9447 350.84601
-1.36868 27.4844 347.93399
-1.66916 27.6703 347.94699
13.5571 49.168301 326.64801
14.218 49.749401 326.298
0.87354302 34.187302 340.47
-2.8257501 47.247898 333.082
-2.0046501 46.702801 332.92599
-6.18326 40.6306 340.10001
10.6928 40.167301 332.18201
10.5405 39.807701 332.47101
9.2608995 41.765999 331.59399
9.5827198 42.409801 331.10501
12.3531 49.074902 326.81799
-4.44175 54.240601 329.74899
10.8847 49.461899 326.827
10.9315 50.0383 326.552
12.6566 40.4571 331.57599
-10.0295 57.202599 331.57599
-4.81704 54.240299 329.944
-5.3421502 54.690102 329.987
-0.60820001 52.570999 328.74399
4.23983 22.6113 348.60599
-1.87421 52.181499 329.58301
-3.4680099 51.4268 330.85101
-2.46012 50.114201 331.056
-3.2436099 52.194901 330.27301
-8.8273897 53.136002 333.29901
-7.9420099 53.142601 332.70801
1.1081001 35.903099 338.90201
0.68740797 36.3731 338.82101
-3.3943501 53.778599 329.46301
6.26406 37.6661 335.18201
-0.167648 52.439701 328.61899
7.5174298 22.0973 347.40302
7.33254 19.3188 350.245
