# .PCD v0.7 - Point Cloud Data file format
VERSION 0.7
FIELDS x y z
SIZE 4 4 4
TYPE F F F
COUNT 1 1 1
WIDTH 83
HEIGHT 1
VIEWPOINT 0 0 0 1 0 0 0
POINTS 83
DATA ascii
0.092061996 0.14843 -1.54737
0.084964998 0.168093 -1.5259
0.084907003 0.168705 -1.5246
0.087044001 0.16814101 -1.52747
0.091582999 0.16851699 -1.52677
0.092499003 0.168247 -1.52789
0.09381 0.16993 -1.52737
0.090962 0.16588899 -1.53491
0.089433998 0.16505399 -1.53486
0.089714997 0.165142 -1.5355
0.093098998 0.16595601 -1.5399899
0.090825997 0.165343 -1.53743
0.090517998 0.16495 -1.53719
0.092496999 0.16557699 -1.54136
0.092069998 0.165612 -1.53977
0.092501998 0.16479 -1.54133
0.094190001 0.164424 -1.54492
0.083775997 0.163087 -1.52494
0.082301997 0.16130701 -1.52259
0.082341999 0.161705 -1.52246
0.085303001 0.16464999 -1.52737
0.089165002 0.16397101 -1.53479
0.087632 0.161604 -1.53247
0.087227002 0.160446 -1.53197
0.088621996 0.162488 -1.53416
0.084854998 0.16226999 -1.52707
0.086158 0.160565 -1.52993
0.081932001 0.15945999 -1.52226
0.082386002 0.15772299 -1.5236
0.081238002 0.15593401 -1.52183
0.080069996 0.154061 -1.51986
0.087416001 0.14687499 -1.53592
0.093682997 0.16216099 -1.54488
0.094279997 0.159168 -1.54721
0.094907999 0.15771601 -1.5491
0.095435001 0.157943 -1.54893
0.088371001 0.148697 -1.53743
0.091159999 0.147778 -1.54489
0.089502998 0.14849199 -1.53992
0.089915 0.147413 -1.5414701
0.090102002 0.14735299 -1.54228
0.091605999 0.14716101 -1.5470099
0.094871998 0.15540799 -1.54984
0.079867996 0.153524 -1.51996
0.094567999 0.154333 -1.54985
0.093547001 0.150123 -1.54896
0.093382999 0.147971 -1.54969
0.092376001 0.148018 -1.54844
0.094833001 0.148417 -1.55322
0.094213001 0.14739101 -1.55235
0.079351999 0.15244401 -1.5199701
0.080155998 0.151976 -1.51946
0.078653999 0.149508 -1.52
0.079124004 0.147248 -1.51993
0.080085002 0.14954901 -1.5191
0.080216996 0.146606 -1.52
0.079993002 0.148112 -1.5232199
0.079732001 0.147176 -1.52276
0.082238004 0.14737201 -1.52668
0.082962997 0.14643601 -1.52747
0.083995998 0.146771 -1.53
0.084716 0.146763 -1.53114
0.085465997 0.14676601 -1.53225
0.086809002 0.14661001 -1.5348901
0.095225997 0.164573 -1.5293601
0.090764001 0.16345701 -1.5220799
0.092299998 0.166365 -1.5238
0.092240997 0.16451 -1.52412
0.092237003 0.151513 -1.52784
0.091807999 0.151026 -1.52713
0.093038 0.151015 -1.52969
0.097372003 0.161396 -1.5352
0.097208999 0.16230699 -1.53434
0.097916998 0.159188 -1.53676
0.09905 0.15842199 -1.53945
0.099854 0.156784 -1.5423
0.098970003 0.156609 -1.53991
0.099996999 0.15015 -1.5456001
0.094632998 0.15198199 -1.53202
0.097237997 0.148123 -1.53953
0.098581001 0.149848 -1.54213
0.100276 0.147643 -1.5473
0.088563003 0.148038 -1.52189
