# .PCD v0.7 - Point Cloud Data file format
VERSION 0.7
FIELDS x y z
SIZE 4 4 4
TYPE F F F
COUNT 1 1 1
WIDTH 135
HEIGHT 1
VIEWPOINT 0 0 0 1 0 0 0
POINTS 135
DATA ascii
0.16601001 0.135124 -1.65975
0.15871701 0.14468899 -1.6792901
0.149149 0.150198 -1.6902699
0.148985 0.150492 -1.68998
0.15322299 0.14646401 -1.69497
0.16588899 0.13850001 -1.70485
0.167108 0.135089 -1.70902
0.155816 0.145018 -1.69655
0.15494201 0.14500099 -1.69672
0.16284899 0.141856 -1.69997
0.16416401 0.140194 -1.7030801
0.15965199 0.142809 -1.6998
0.16463199 0.138898 -1.70494
0.123654 0.145023 -1.67417
0.124074 0.144604 -1.67474
0.127065 0.140688 -1.67989
0.124635 0.140283 -1.67985
0.118805 0.139008 -1.67997
0.117835 0.135043 -1.684
0.144628 0.15515301 -1.6851
0.17465 0.115292 -1.71487
0.170443 0.13236099 -1.7098401
0.175198 0.13016701 -1.71417
0.150273 0.150105 -1.6896
0.14592201 0.155062 -1.6844
0.14289001 0.15481199 -1.68496
0.15267099 0.149011 -1.66958
0.150681 0.150076 -1.6684099
0.138818 0.155846 -1.6546201
0.13244601 0.15866899 -1.655
0.138092 0.15626299 -1.65976
0.119395 0.134875 -1.68476
0.11391 0.13300499 -1.68495
0.127101 0.159981 -1.6548001
0.113401 0.13516399 -1.68275
0.125109 0.161558 -1.65952
0.123607 0.148146 -1.66988
0.118797 0.151206 -1.66493
0.13617299 0.162377 -1.6749901
0.139274 0.160254 -1.67895
0.13174599 0.160027 -1.67808
0.12558401 0.16001 -1.66436
0.125634 0.161832 -1.6696
0.12813701 0.16222 -1.67487
0.143383 0.1551 -1.6849101
0.169918 0.13265599 -1.66496
0.171736 0.130108 -1.6648999
0.175157 0.128415 -1.6698999
0.17465299 0.128576 -1.66901
0.166282 0.134967 -1.65999
0.17892399 0.12417 -1.67
0.179924 0.124658 -1.67307
0.164179 0.134507 -1.65493
0.15618899 0.14061899 -1.64932
0.158425 0.138401 -1.64993
0.154396 0.135372 -1.64986
0.159483 0.139598 -1.65435
0.143939 0.150731 -1.64499
0.14362399 0.153272 -1.65493
0.163054 0.136566 -1.6549799
0.108826 0.14525799 -1.67085
0.107788 0.141082 -1.67496
0.109665 0.151256 -1.66974
0.184282 0.120014 -1.67493
0.185498 0.120192 -1.67997
0.18669701 0.118524 -1.6799901
0.19008601 0.116127 -1.68464
0.194979 0.111442 -1.6899199
0.184461 0.12432 -1.68423
0.191636 0.116665 -1.6898201
0.17886101 0.13164701 -1.69461
0.109189 0.13686199 -1.67992
0.19444799 0.114705 -1.69476
0.19606499 0.112513 -1.69482
0.103272 0.13989501 -1.67496
0.104257 0.14056399 -1.67471
0.104095 0.135682 -1.67946
0.195944 0.115326 -1.70946
0.195921 0.115475 -1.71471
0.109513 0.135148 -1.6817
0.197395 0.113843 -1.7144099
0.20064101 0.110014 -1.71461
0.192664 0.119026 -1.71487
0.190341 0.120553 -1.71972
0.18864401 0.122484 -1.7149301
0.18437199 0.124598 -1.71497
0.17906301 0.131348 -1.69936
0.175 0.130054 -1.70997
0.17510299 0.115122 -1.71426
0.177931 0.127198 -1.71456
0.16601001 0.135124 -1.65975
0.159885 0.134602 -1.67461
0.153367 0.13892999 -1.6747299
0.15871701 0.14468899 -1.6792901
0.170101 0.125714 -1.67966
0.176503 0.121022 -1.68943
0.15267099 0.149011 -1.66958
0.138818 0.155846 -1.6546201
0.13244601 0.15866899 -1.655
0.138092 0.15626299 -1.65976
0.169918 0.13265599 -1.66496
0.157199 0.13526 -1.6649801
0.172986 0.122442 -1.67935
0.176623 0.119593 -1.68436
0.154163 0.138229 -1.66459
0.16448499 0.129794 -1.67362
0.17575601 0.120709 -1.68435
0.159483 0.139598 -1.65435
0.14988001 0.13980401 -1.6532
0.153311 0.14601199 -1.65496
0.150372 0.14053699 -1.65926
0.143352 0.14479201 -1.64966
0.14362399 0.153272 -1.65493
0.139945 0.14759099 -1.64951
0.147459 0.140811 -1.64992
0.141036 0.147212 -1.65488
0.163054 0.136566 -1.6549799
0.185498 0.120192 -1.67997
0.18669701 0.118524 -1.6799901
0.184461 0.12432 -1.68423
0.191636 0.116665 -1.6898201
0.17886101 0.13164701 -1.69461
0.193491 0.117314 -1.69996
0.183924 0.113667 -1.69467
0.184 0.114303 -1.69889
0.185453 0.113275 -1.70465
0.183218 0.115202 -1.69967
0.195234 0.11595 -1.70409
0.19794101 0.112686 -1.70965
0.195944 0.115326 -1.70946
0.195921 0.115475 -1.71471
0.18458401 0.114036 -1.70416
0.197395 0.113843 -1.7144099
0.20064101 0.110014 -1.71461
0.180834 0.117497 -1.6946599
