# .PCD v0.7 - Point Cloud Data file format
VERSION 0.7
FIELDS x y z
SIZE 4 4 4
TYPE F F F
COUNT 1 1 1
WIDTH 132
HEIGHT 1
VIEWPOINT 0 0 0 1 0 0 0
POINTS 132
DATA ascii
-0.092862003 -0.070228003 -1.38673
-0.088210002 -0.066491999 -1.39421
-0.081909999 -0.067414999 -1.39421
-0.078768 -0.068007 -1.39486
-0.074458003 -0.068704002 -1.395
-0.071052 -0.070041001 -1.39308
-0.102102 -0.14554 -1.32968
-0.068896003 -0.084697001 -1.36999
-0.071438998 -0.085568003 -1.36807
-0.073009998 -0.087554 -1.36462
-0.098095998 -0.077205002 -1.375
-0.095343001 -0.084991001 -1.3641
-0.094365999 -0.080335997 -1.36896
-0.091936 -0.088292003 -1.35996
-0.100477 -0.075818002 -1.37977
-0.099448003 -0.070983998 -1.38495
-0.099573001 -0.075011 -1.38052
-0.093782999 -0.074716002 -1.37984
-0.092814997 -0.075424001 -1.37884
-0.069536999 -0.074868999 -1.38456
-0.069565997 -0.072030999 -1.38998
-0.065389998 -0.076048002 -1.38501
-0.097668998 -0.079871997 -1.36973
-0.098958999 -0.080643997 -1.3705601
-0.098118 -0.080181003 -1.3698
-0.088852003 -0.084911004 -1.36428
-0.078350998 -0.073270001 -1.38489
-0.074657001 -0.077133 -1.37954
-0.061259001 -0.078139998 -1.38492
-0.068077996 -0.078809001 -1.37954
-0.060628001 -0.081629999 -1.37971
-0.081973001 -0.082303002 -1.36945
-0.063738003 -0.082878999 -1.37471
-0.061849002 -0.085019 -1.3726799
-0.059886001 -0.089203 -1.3688101
-0.055011999 -0.091084003 -1.37014
-0.052848998 -0.093268 -1.36922
-0.065311 -0.090573996 -1.36414
-0.061393999 -0.087534003 -1.3698
-0.060366999 -0.090567999 -1.36684
-0.056699999 -0.090443 -1.36975
-0.057952002 -0.098295003 -1.35961
-0.050700001 -0.098875001 -1.36497
-0.078203 -0.099234998 -1.34993
-0.052708998 -0.10579 -1.35455
-0.054235999 -0.109217 -1.35
-0.092831001 -0.090092003 -1.35799
-0.094976999 -0.094329998 -1.3541
-0.062362 -0.095480002 -1.36016
-0.085216001 -0.093138002 -1.35493
-0.080376998 -0.090907 -1.35864
-0.094672002 -0.095344 -1.3530999
-0.086081997 -0.095003001 -1.35287
-0.093549997 -0.098269999 -1.3498501
-0.094829001 -0.105182 -1.3439699
-0.051038001 -0.105059 -1.35623
-0.089676999 -0.108793 -1.33977
-0.060405001 -0.11085 -1.3456399
-0.078841001 -0.090641998 -1.3593
-0.099124998 -0.116167 -1.3398401
-0.096047997 -0.120345 -1.33434
-0.076043002 -0.111911 -1.33972
-0.085364997 -0.120195 -1.33191
-0.085721999 -0.123256 -1.32995
-0.080577001 -0.124219 -1.32987
-0.075135 -0.118534 -1.33495
-0.094420999 -0.125764 -1.32911
-0.086952999 -0.130897 -1.32464
-0.088009998 -0.125149 -1.32841
-0.085858002 -0.13005 -1.3252701
-0.082833998 -0.125386 -1.3288
-0.078764997 -0.120595 -1.33266
-0.078208998 -0.125655 -1.32938
-0.077279001 -0.130262 -1.32657
-0.074322999 -0.134803 -1.3247499
-0.076076001 -0.133085 -1.3249201
-0.069587 -0.114132 -1.33983
-0.094578996 -0.120336 -1.33391
-0.073352002 -0.118994 -1.3349
-0.065806001 -0.115329 -1.33972
-0.087701 -0.110565 -1.3385
-0.062898003 -0.110815 -1.3446701
-0.057783999 -0.112919 -1.345
-0.093528003 -0.123821 -1.32996
-0.067209996 -0.121951 -1.33497
-0.071023002 -0.120777 -1.33448
-0.087030001 -0.135344 -1.32166
-0.088074997 -0.137852 -1.31988
-0.093765996 -0.064824998 -1.39446
-0.094012 -0.066871002 -1.38993
-0.080370001 -0.139098 -1.31999
-0.079292998 -0.139698 -1.31998
-0.068896003 -0.084697001 -1.36999
-0.071438998 -0.085568003 -1.36807
-0.073009998 -0.087554 -1.36462
-0.091936 -0.088292003 -1.35996
-0.093782999 -0.074716002 -1.37984
-0.092814997 -0.075424001 -1.37884
-0.069536999 -0.074868999 -1.38456
-0.069565997 -0.072030999 -1.38998
-0.088852003 -0.084911004 -1.36428
-0.078350998 -0.073270001 -1.38489
-0.074657001 -0.077133 -1.37954
-0.068077996 -0.078809001 -1.37954
-0.081973001 -0.082303002 -1.36945
-0.061849002 -0.085019 -1.3726799
-0.059886001 -0.089203 -1.3688101
-0.065311 -0.090573996 -1.36414
-0.061393999 -0.087534003 -1.3698
-0.060366999 -0.090567999 -1.36684
-0.056699999 -0.090443 -1.36975
-0.057952002 -0.098295003 -1.35961
-0.078203 -0.099234998 -1.34993
-0.062362 -0.095480002 -1.36016
-0.085216001 -0.093138002 -1.35493
-0.080376998 -0.090907 -1.35864
-0.086081997 -0.095003001 -1.35287
-0.078841001 -0.090641998 -1.3593
-0.076043002 -0.111911 -1.33972
-0.085364997 -0.120195 -1.33191
-0.085721999 -0.123256 -1.32995
-0.080577001 -0.124219 -1.32987
-0.075135 -0.118534 -1.33495
-0.086952999 -0.130897 -1.32464
-0.085858002 -0.13005 -1.3252701
-0.082833998 -0.125386 -1.3288
-0.078764997 -0.120595 -1.33266
-0.078208998 -0.125655 -1.32938
-0.069587 -0.114132 -1.33983
-0.073352002 -0.118994 -1.3349
-0.087030001 -0.135344 -1.32166
-0.094012 -0.066871002 -1.38993
