# .PCD v0.7 - Point Cloud Data file format
VERSION 0.7
FIELDS x y z
SIZE 4 4 4
TYPE F F F
COUNT 1 1 1
WIDTH 107
HEIGHT 1
VIEWPOINT 0 0 0 1 0 0 0
POINTS 107
DATA ascii
-0.077794999 0.0058920002 -1.6849101
-0.075549997 0.0029130001 -1.6873699
-0.077881001 0.0030350001 -1.68235
-0.077554002 0.0022710001 -1.68233
-0.077472001 0.0022209999 -1.68248
-0.077567004 0.004958 -1.6847399
-0.072908998 0.0062919999 -1.6950001
-0.072371997 0.0064300001 -1.6949199
-0.067510001 0.0061400002 -1.7036901
-0.070009999 0.007092 -1.69928
-0.070006996 0.0049089999 -1.69823
-0.073679 0.0067670001 -1.6925
-0.075085998 0.0048110001 -1.68964
-0.070398003 0.0045520002 -1.69706
-0.069553003 0.0063840002 -1.69989
-0.066394001 0.006058 -1.70482
-0.075289004 -0.001042 -1.68223
-0.075076997 -0.0026499999 -1.68154
-0.067233004 -0.013108 -1.68243
-0.065178998 -0.015693 -1.68436
-0.064753003 -0.016225001 -1.68496
-0.062501997 -0.019058 -1.6824501
-0.062208001 -0.019917 -1.68282
-0.065217003 0.005289 -1.70638
-0.064126 0.005204 -1.70749
-0.074619003 -0.0020860001 -1.68233
-0.062514 0.005781 -1.70998
-0.062089 0.0051449998 -1.71005
-0.062105 0.0054179998 -1.71
-0.061902002 0.0047530001 -1.71006
-0.072465003 -0.0049669999 -1.68216
-0.073614001 -0.0036510001 -1.68247
-0.062549002 0.0043990002 -1.70937
-0.062563002 0.001254 -1.70778
-0.071624003 -0.0065139998 -1.68243
-0.070006996 -0.0092099998 -1.68216
-0.060548 -0.00043499999 -1.70935
-0.069868997 -0.0094670001 -1.68217
-0.060129002 -0.0033470001 -1.70792
-0.060031999 -0.0053829998 -1.70661
-0.068925999 -0.010612 -1.68248
-0.059728 -0.0047129998 -1.70742
-0.067507997 -0.012738 -1.68238
-0.05187 -0.0074700001 -1.70496
-0.057372998 -0.009451 -1.70609
-0.055814002 -0.013335 -1.70604
-0.055197001 -0.015262 -1.70533
-0.055358998 -0.015662 -1.7048301
-0.053079002 -0.019659 -1.70489
-0.052726999 -0.020811999 -1.70465
-0.051991001 -0.021892 -1.7048301
-0.049885999 -0.027132999 -1.7024699
-0.061071001 -0.021837 -1.6822
-0.060408998 -0.023466 -1.68246
-0.053157002 -0.03108 -1.68964
-0.054945 -0.032469001 -1.6837699
-0.052533999 -0.032609001 -1.68801
-0.052939001 -0.033041 -1.68695
-0.050629001 -0.027767999 -1.70003
-0.051128 -0.028790001 -1.69736
-0.050212 -0.02864 -1.69958
-0.050097 -0.031075001 -1.69496
-0.051394001 -0.031610999 -1.69244
-0.070293002 0.0055300002 -1.68222
-0.069738999 0.005384 -1.68358
-0.068139002 0.0047829999 -1.68642
-0.067529 0.0014140001 -1.6834
-0.057835001 0.0019660001 -1.70261
-0.067248002 0.0039440002 -1.6872
-0.065227002 0.0026509999 -1.6899101
-0.062729001 -0.0035230001 -1.68813
-0.06171 -0.0043139998 -1.68935
-0.060520999 -0.0052439999 -1.69046
-0.058460999 0.002476 -1.70209
-0.055452999 -0.0055729998 -1.69953
-0.0669 -0.00064099999 -1.68232
-0.064526998 -0.0035079999 -1.68378
-0.062841997 -0.0065629999 -1.68248
-0.062955998 -0.003575 -1.6874599
-0.062702 -0.0057629999 -1.68476
-0.057677999 -0.010985 -1.68893
-0.059032999 -0.0060459999 -1.69239
-0.057502002 -0.0093510002 -1.69156
-0.057588998 -0.0152 -1.68339
-0.056297 -0.015094 -1.68648
-0.057921998 -0.015411 -1.68223
-0.067573003 0.00050299999 -1.68217
-0.067529 -0.000566 -1.68058
-0.056503002 -0.0010160001 -1.70218
-0.055349998 -0.0031389999 -1.70205
-0.052621 -0.008901 -1.70104
-0.050510999 -0.012538 -1.70093
-0.049674999 -0.014849 -1.6999
-0.048204001 -0.015741 -1.70148
-0.047047 -0.021496 -1.697
-0.047334 -0.018634001 -1.69989
-0.048009001 -0.022794999 -1.69362
-0.047067001 -0.023360001 -1.69468
-0.045338001 -0.022592001 -1.69879
-0.050120998 -0.025563 -1.68556
-0.048563998 -0.022883 -1.69243
-0.047467001 -0.026504001 -1.68984
-0.048252001 -0.025572 -1.68953
-0.049922001 -0.026896 -1.68426
-0.045382001 -0.020467 -1.70136
-0.052102 -0.029952999 -1.67449
-0.048893001 -0.030108999 -1.6820199
