# .PCD v0.7 - Point Cloud Data file format
VERSION 0.7
FIELDS x y z
SIZE 4 4 4
TYPE F F F
COUNT 1 1 1
WIDTH 113
HEIGHT 1
VIEWPOINT 0 0 0 1 0 0 0
POINTS 113
DATA ascii
0.25011101 0.138824 -1.43284
0.24926201 0.138404 -1.43485
0.24748699 0.136363 -1.4398299
0.251167 0.13535599 -1.4299001
0.25247899 0.13457599 -1.4274
0.25201201 0.132357 -1.42711
0.252938 0.130778 -1.425
0.252985 0.129493 -1.42483
0.254372 0.126735 -1.42247
0.254749 0.124957 -1.4198999
0.247528 0.129916 -1.44142
0.245084 0.127275 -1.4462301
0.25509101 0.124555 -1.4197299
0.246197 0.109933 -1.4384
0.246407 0.111316 -1.4399199
0.248851 0.110609 -1.43246
0.24921 0.109123 -1.42997
0.25250599 0.107363 -1.42231
0.252377 0.10717 -1.4225
0.25010601 0.107239 -1.42793
0.24764 0.109842 -1.43532
0.24655201 0.109665 -1.4373699
0.25628901 0.11747 -1.41494
0.255025 0.121842 -1.41917
0.25565001 0.121203 -1.41748
0.25551599 0.119257 -1.4173501
0.247668 0.13526399 -1.43993
0.25687599 0.112798 -1.41248
0.25741401 0.111318 -1.4098901
0.25650701 0.112379 -1.41233
0.25762701 0.111164 -1.40988
0.25763199 0.110869 -1.41034
0.25766701 0.109183 -1.4094501
0.25612801 0.11319 -1.41495
0.248024 0.134322 -1.43999
0.247593 0.131651 -1.44115
0.24756201 0.132925 -1.44086
0.247205 0.12891001 -1.44235
0.25336 0.107303 -1.41968
0.25801599 0.107932 -1.40738
0.25749099 0.105105 -1.40715
0.25798699 0.107436 -1.4074399
0.25755399 0.104481 -1.40749
0.25759801 0.104623 -1.40799
0.25599101 0.101984 -1.40988
0.25440899 0.107102 -1.4175
0.25346699 0.104569 -1.4170901
0.25496599 0.104523 -1.41475
0.25497699 0.102342 -1.41243
0.255164 0.102245 -1.41181
0.24009199 0.117876 -1.4526
0.240141 0.117034 -1.45266
0.242513 0.116466 -1.45073
0.240565 0.116562 -1.45245
0.25153601 0.106641 -1.42456
0.25029299 0.106849 -1.42739
0.24267299 0.1226 -1.4485101
0.24314 0.120606 -1.44893
0.24984699 0.13996799 -1.43225
0.24242701 0.114009 -1.4499
0.244781 0.112968 -1.4448
0.250323 0.140038 -1.4298
0.250848 0.139247 -1.42985
0.24287599 0.114469 -1.44991
0.24512599 0.112408 -1.4442199
0.245616 0.112337 -1.4425
0.240426 0.116491 -1.43248
0.240513 0.114452 -1.4323699
0.246078 0.125433 -1.41974
0.24451201 0.128176 -1.42495
0.24416099 0.131768 -1.42688
0.24377801 0.129489 -1.4275
0.245222 0.126268 -1.42257
0.240114 0.127874 -1.4378999
0.240224 0.127994 -1.43748
0.23759501 0.123647 -1.4439
0.23756801 0.121398 -1.4435
0.24674 0.124304 -1.41737
0.246731 0.120602 -1.4169
0.24717 0.118057 -1.41479
0.244993 0.12142 -1.4222701
0.244945 0.119063 -1.42186
0.247733 0.116527 -1.4125
0.242566 0.13444 -1.4321001
0.247577 0.11568 -1.4128
0.24772 0.114741 -1.4121701
0.248565 0.113553 -1.40987
0.24329001 0.133184 -1.4297
0.248409 0.111777 -1.4099
0.241409 0.130217 -1.43477
0.247935 0.108189 -1.40995
0.24124999 0.12911201 -1.43498
0.244504 0.114771 -1.4222701
0.244284 0.110964 -1.4220001
0.245193 0.110518 -1.41914
0.245051 0.108762 -1.41923
0.244883 0.107599 -1.41924
0.246601 0.109988 -1.415
0.239576 0.127977 -1.43924
0.245766 0.109105 -1.41698
0.240096 0.114955 -1.43497
0.239971 0.114934 -1.43498
0.239389 0.116141 -1.43735
0.23866101 0.117291 -1.4395
0.236689 0.116322 -1.4449199
0.237997 0.117499 -1.4414099
0.240006 0.114963 -1.4354
0.24131399 0.118798 -1.4299901
0.242024 0.117341 -1.42748
0.246664 0.107201 -1.41247
0.23931 0.12703399 -1.43967
0.23838 0.12647299 -1.4420201
0.235825 0.116911 -1.44739
