# .PCD v0.7 - Point Cloud Data file format
VERSION 0.7
FIELDS x y z
SIZE 4 4 4
TYPE F F F
COUNT 1 1 1
WIDTH 85
HEIGHT 1
VIEWPOINT 0 0 0 1 0 0 0
POINTS 85
DATA ascii
-0.039613999 0.171325 -1.58482
-0.039955001 0.168595 -1.5843199
-0.035193 0.198543 -1.58447
-0.040323 0.17516799 -1.58258
-0.040146999 0.173567 -1.58338
-0.036602002 0.205011 -1.58284
-0.040026002 0.21535499 -1.57731
-0.040015001 0.215276 -1.57432
-0.040251002 0.21467599 -1.57744
-0.039214 0.215758 -1.5748
-0.040624 0.214148 -1.56991
-0.040282998 0.18954299 -1.57885
-0.040130001 0.208994 -1.57478
-0.035310999 0.200339 -1.584
-0.034956001 0.198327 -1.58442
-0.045122001 0.21123999 -1.56229
-0.04651 0.209409 -1.55966
-0.042064998 0.21276399 -1.5649199
-0.045295998 0.21119601 -1.5597
-0.0449 0.21132 -1.55976
-0.04941 0.204706 -1.55485
-0.039500002 0.15105499 -1.58429
-0.037271999 0.15493 -1.58973
-0.037836999 0.167317 -1.58875
-0.037154999 0.16035999 -1.58947
-0.039119001 0.149691 -1.58465
-0.040031001 0.147313 -1.58297
-0.043855999 0.148174 -1.5748301
-0.034887001 0.154595 -1.5886
-0.045143999 0.14985099 -1.5720201
-0.050018001 0.149335 -1.55997
-0.050391 0.15391301 -1.55963
-0.055151999 0.157754 -1.55109
-0.052944001 0.154571 -1.55498
-0.058591999 0.16162699 -1.53947
-0.053319 0.20453601 -1.54978
-0.055048998 0.2016 -1.54284
-0.056054 0.20119099 -1.53983
-0.054653998 0.202512 -1.54
-0.060056001 0.19711401 -1.53206
-0.057585999 0.19993 -1.53485
-0.058517002 0.198365 -1.52949
-0.063179001 0.184499 -1.5244
-0.062295001 0.194775 -1.52977
-0.061480999 0.17732599 -1.52951
-0.065021001 0.183961 -1.5216399
-0.065465003 0.18802001 -1.51974
-0.065610997 0.191967 -1.51995
-0.064262003 0.194307 -1.5248801
-0.064879999 0.193369 -1.5199701
-0.060304999 0.193031 -1.5149
-0.055256002 0.19444799 -1.5098799
-0.059342999 0.193505 -1.51395
-0.055036001 0.195004 -1.50985
-0.050673999 0.204309 -1.55353
-0.047956001 0.15076201 -1.56442
-0.045689002 0.14709 -1.56998
-0.052524 0.205713 -1.5499901
-0.053459 0.20403101 -1.54497
-0.026612001 0.199481 -1.56953
-0.029231001 0.192967 -1.56907
-0.025854999 0.205901 -1.56269
-0.028781001 0.20246901 -1.5587
-0.030029001 0.20272399 -1.55568
-0.034715001 0.158308 -1.5743999
-0.035289999 0.16167399 -1.5722899
-0.035185002 0.166366 -1.5717601
-0.035078999 0.155136 -1.57429
-0.040002 0.16463301 -1.5605201
-0.031134 0.201517 -1.55399
-0.035838 0.19822399 -1.54403
-0.036626 0.198911 -1.53935
-0.040327001 0.195025 -1.53181
-0.034412 0.1978 -1.54945
-0.032853 0.201208 -1.54989
-0.041182 0.194107 -1.52926
-0.044250999 0.18956099 -1.51983
-0.042578001 0.19281401 -1.52495
-0.026303999 0.20148399 -1.56725
-0.049906999 0.17454199 -1.5245
-0.050466999 0.17143101 -1.5264699
-0.048372999 0.17894199 -1.52424
-0.045811001 0.186382 -1.5196199
-0.048521001 0.18122301 -1.51967
-0.045669001 0.18834201 -1.51425
