# .PCD v0.7 - Point Cloud Data file format
VERSION 0.7
FIELDS x y z
SIZE 4 4 4
TYPE F F F
COUNT 1 1 1
WIDTH 141
HEIGHT 1
VIEWPOINT 0 0 0 1 0 0 0
POINTS 141
DATA ascii
-0.027768999 -0.096139997 -1.3099999
-0.017171999 -0.100987 -1.3099
-0.01346 -0.102196 -1.30993
-0.0063649998 -0.103565 -1.3099999
-0.061505999 -0.094970003 -1.33473
-0.051169001 -0.079819001 -1.32985
-0.0095819999 -0.120349 -1.3199199
-0.059645001 -0.085148998 -1.33911
-0.010833 -0.120377 -1.31999
-0.014794 -0.127267 -1.32498
-0.012753 -0.124771 -1.32315
-0.064415999 -0.134689 -1.34152
-0.049217001 -0.13972799 -1.34045
-0.056564 -0.135932 -1.33986
-0.044824999 -0.13980401 -1.33895
-0.047155999 -0.140021 -1.33989
-0.058843002 -0.134589 -1.33952
-0.069605999 -0.134094 -1.34323
-0.073720001 -0.132974 -1.34497
-0.055188 -0.140064 -1.34281
-0.034171999 -0.099965997 -1.31267
-0.036346 -0.099733002 -1.31286
-0.037064001 -0.063477002 -1.31999
-0.001115 -0.109667 -1.31343
-0.001189 -0.114478 -1.31626
-0.0052709999 -0.114998 -1.31652
-0.069905996 -0.101935 -1.34114
-0.069656998 -0.103245 -1.33988
-0.064778 -0.096430004 -1.33725
-0.067904003 -0.098522 -1.33977
-0.074161999 -0.104842 -1.34468
-0.076348998 -0.109586 -1.34499
-0.074631996 -0.10621 -1.34456
-0.018643999 -0.13357601 -1.32994
-0.017895 -0.099815004 -1.30954
-0.038807001 -0.088816002 -1.30489
-0.014332 -0.056906 -1.29483
-0.029720001 -0.075144 -1.30116
-0.003029 -0.079825997 -1.30013
-0.0041410001 -0.074630998 -1.29826
-0.029547 -0.074928001 -1.2998
-0.030577 -0.074790999 -1.30466
-0.032418001 -0.073813997 -1.3099999
-0.027548 -0.063666001 -1.30979
-0.052593999 -0.109364 -1.31995
0.0063689998 -0.050565001 -1.28983
0.0086930003 -0.054960001 -1.29177
0.0085030003 -0.049635999 -1.28984
0.01267 -0.059989002 -1.29354
0.015912 -0.059679002 -1.29342
-0.061735999 -0.107606 -1.325
0.020896999 -0.063507996 -1.2946399
0.024769001 -0.063716002 -1.29564
0.024307 -0.059746999 -1.29399
0.029948 -0.069388002 -1.2988501
0.0020270001 -0.084790997 -1.30196
0.0046589999 -0.089465 -1.30416
0.025183 -0.080012001 -1.30238
-0.064452 -0.110294 -1.3269
-0.065357998 -0.109079 -1.32996
-0.038973 -0.085061997 -1.3081501
-0.037769001 -0.083057001 -1.30983
-0.029321 -0.094240002 -1.3092
-0.034467999 -0.077444002 -1.30999
-0.020780999 -0.063913003 -1.29944
-0.022069 -0.140627 -1.33496
-0.032373 -0.14573701 -1.34
-0.034788001 -0.143962 -1.33939
-0.015111 -0.057844002 -1.29467
-0.039620001 -0.14421 -1.34049
-0.037599999 -0.143793 -1.33979
-0.041278001 -0.14306501 -1.33989
-0.027369 -0.139796 -1.33464
-0.068350002 -0.12943199 -1.33887
-0.039905999 -0.062476002 -1.32488
-0.00868 -0.104833 -1.31076
-0.037767999 -0.064951003 -1.33105
-0.00997 -0.050765999 -1.29636
-0.01071 -0.039944999 -1.3045599
-0.0095499996 -0.036417998 -1.3049001
-0.0096829999 -0.035555001 -1.30592
-0.022802999 -0.054466002 -1.30984
0.0081310002 -0.089556001 -1.30493
-0.01984 -0.050347999 -1.3086801
0.013127 -0.084877998 -1.3026
0.021423001 -0.077312 -1.29994
-0.014739 -0.035562001 -1.31459
-0.015924999 -0.036979999 -1.31466
0.025403 -0.075528003 -1.29996
0.019004 -0.079864003 -1.30072
0.0044100001 -0.046950001 -1.28987
0.007222 -0.090865999 -1.30495
-0.079850003 -0.116967 -1.3448499
-0.080789 -0.118294 -1.3449399
-0.043988999 -0.093084998 -1.32998
-0.051334001 -0.099237002 -1.3346
-0.051169001 -0.079819001 -1.32985
-0.054937001 -0.080334 -1.33394
-0.056194 -0.082587004 -1.33498
-0.048703 -0.089799002 -1.33496
-0.035078999 -0.084317997 -1.32464
-0.027458999 -0.07728 -1.31978
-0.024863999 -0.076223999 -1.31801
-0.026846999 -0.074896999 -1.31973
-0.024653001 -0.071942002 -1.31868
-0.025133001 -0.068216003 -1.31969
-0.043508999 -0.075886004 -1.335
-0.059930999 -0.105715 -1.3409801
-0.062862001 -0.103632 -1.34483
-0.064912997 -0.100464 -1.34811
-0.054958999 -0.102344 -1.33709
-0.057941001 -0.102834 -1.33987
-0.059491999 -0.101595 -1.34211
-0.054692 -0.091090001 -1.3408099
-0.061762001 -0.099951997 -1.3449301
-0.054689001 -0.086244002 -1.34289
-0.068520002 -0.106055 -1.34991
-0.024228999 -0.069036998 -1.2999001
-0.024495 -0.061128002 -1.3076299
-0.027548 -0.063666001 -1.30979
-0.004766 -0.057002001 -1.30662
-0.0096260002 -0.062112 -1.30908
-0.012055 -0.068451002 -1.30998
-0.0099290004 -0.066051997 -1.3089499
-0.014199 -0.066549003 -1.31151
-0.018935001 -0.065622002 -1.31523
-0.019440001 -0.060506999 -1.31665
-0.018301001 -0.065840997 -1.31473
-0.024785999 -0.060307 -1.3215899
-0.0096620005 -0.045644 -1.30035
-0.01071 -0.039944999 -1.3045599
-0.0095499996 -0.036417998 -1.3049001
-0.0096829999 -0.035555001 -1.30592
-0.022802999 -0.054466002 -1.30984
-0.01984 -0.050347999 -1.3086801
-0.0095570004 -0.050021 -1.3111
-0.019703001 -0.055840001 -1.31826
-0.0071220002 -0.034226999 -1.31489
-0.00092000002 -0.049086999 -1.30498
2.9999999e-05 -0.046107002 -1.30496
-0.0046919999 -0.045159999 -1.3084
