# .PCD v0.7 - Point Cloud Data file format
VERSION 0.7
FIELDS x y z
SIZE 4 4 4
TYPE F F F
COUNT 1 1 1
WIDTH 149
HEIGHT 1
VIEWPOINT 0 0 0 1 0 0 0
POINTS 149
DATA ascii
-0.072506003 -0.00059700001 -1.68975
-0.071061999 -0.0028520001 -1.68999
-0.077794999 0.0058920002 -1.6849101
-0.076917 0.003604 -1.68497
-0.075549997 0.0029130001 -1.6873699
-0.077881001 0.0030350001 -1.68235
-0.077554002 0.0022710001 -1.68233
-0.077472001 0.0022209999 -1.68248
-0.077567004 0.004958 -1.6847399
-0.072908998 0.0062919999 -1.6950001
-0.072371997 0.0064300001 -1.6949199
-0.067510001 0.0061400002 -1.7036901
-0.070009999 0.007092 -1.69928
-0.070006996 0.0049089999 -1.69823
-0.073679 0.0067670001 -1.6925
-0.075041004 0.00245 -1.6878
-0.074166 0.0025780001 -1.6900001
-0.072639003 0.0045369999 -1.6928
-0.072954997 0.00339 -1.69207
-0.070398003 0.0045520002 -1.69706
-0.072975002 0.0023950001 -1.6915801
-0.069553003 0.0063840002 -1.69989
-0.066394001 0.006058 -1.70482
-0.067823999 -0.00288 -1.69609
-0.066101998 -0.00446 -1.6974601
-0.064879999 -0.0036800001 -1.6994801
-0.075289004 -0.001042 -1.68223
-0.075076997 -0.0026499999 -1.68154
-0.071193002 -0.0062870001 -1.68493
-0.069314003 -0.0058490001 -1.68985
-0.069698997 -0.008502 -1.68496
-0.067694999 -0.01032 -1.68665
-0.065379001 -0.005353 -1.69688
-0.065623 -0.009416 -1.69209
-0.065140001 -0.010494 -1.69181
-0.059935998 -0.014437 -1.69687
-0.060219999 -0.013606 -1.69723
-0.068510003 -0.010288 -1.68477
-0.067233004 -0.013108 -1.68243
-0.065178998 -0.015693 -1.68436
-0.064851001 -0.014743 -1.68679
-0.064269997 -0.014058 -1.68949
-0.064420998 -0.015164 -1.68743
-0.064753003 -0.016225001 -1.68496
-0.062501997 -0.019058 -1.6824501
-0.062182002 -0.019572999 -1.68247
-0.062208001 -0.019917 -1.68282
-0.062785 -0.015137 -1.69107
-0.062818997 -0.015616 -1.68976
-0.060132001 -0.01556 -1.6959
-0.059037 -0.020564999 -1.6922899
-0.065217003 0.005289 -1.70638
-0.064126 0.005204 -1.70749
-0.074619003 -0.0020860001 -1.68233
-0.062514 0.005781 -1.70998
-0.062089 0.0051449998 -1.71005
-0.062105 0.0054179998 -1.71
-0.061902002 0.0047530001 -1.71006
-0.072465003 -0.0049669999 -1.68216
-0.073614001 -0.0036510001 -1.68247
-0.062549002 0.0043990002 -1.70937
-0.062563002 0.001254 -1.70778
-0.071624003 -0.0065139998 -1.68243
-0.070006996 -0.0092099998 -1.68216
-0.060548 -0.00043499999 -1.70935
-0.069868997 -0.0094670001 -1.68217
-0.060129002 -0.0033470001 -1.70792
-0.060031999 -0.0053829998 -1.70661
-0.064165004 -0.002933 -1.70222
-0.062702 -0.005351 -1.70186
-0.068925999 -0.010612 -1.68248
-0.059728 -0.0047129998 -1.70742
-0.067507997 -0.012738 -1.68238
-0.05187 -0.0074700001 -1.70496
-0.057372998 -0.009451 -1.70609
-0.055814002 -0.013335 -1.70604
-0.057695001 -0.015354 -1.69989
-0.055197001 -0.015262 -1.70533
-0.055358998 -0.015662 -1.7048301
-0.057011999 -0.019531 -1.6971
-0.055828001 -0.020022999 -1.6992
-0.055282 -0.022444 -1.69718
-0.053902999 -0.024289999 -1.69719
-0.052857 -0.022527 -1.70215
-0.053079002 -0.019659 -1.70489
-0.052726999 -0.020811999 -1.70465
-0.051991001 -0.021892 -1.7048301
-0.050225999 -0.021260999 -1.7067
-0.050138999 -0.022679999 -1.7064
-0.050037 -0.025413999 -1.7045
-0.049885999 -0.027132999 -1.7024699
-0.061071001 -0.021837 -1.6822
-0.060408998 -0.023466 -1.68246
-0.059009999 -0.024493 -1.67996
-0.058586001 -0.026283 -1.6799999
-0.058596 -0.026935 -1.68238
-0.057960998 -0.022524999 -1.69183
-0.055642001 -0.025423 -1.69232
-0.057133 -0.027509 -1.68724
-0.057500999 -0.030130001 -1.67792
-0.057105999 -0.031241 -1.67937
-0.055599 -0.033569999 -1.67747
-0.054639999 -0.034077998 -1.67749
-0.052804999 -0.035100002 -1.67992
-0.054945 -0.032469001 -1.6837699
-0.052836999 -0.034093 -1.68186
-0.052533999 -0.032609001 -1.68801
-0.052939001 -0.033041 -1.68695
-0.051426999 -0.032634001 -1.68907
-0.050629001 -0.027767999 -1.70003
-0.051128 -0.028790001 -1.69736
-0.050212 -0.02864 -1.69958
-0.050097 -0.031075001 -1.69496
-0.051394001 -0.031610999 -1.69244
-0.072506003 -0.00059700001 -1.68975
-0.071061999 -0.0028520001 -1.68999
-0.074166 0.0025780001 -1.6900001
-0.070398003 0.0045520002 -1.69706
-0.067823999 -0.00288 -1.69609
-0.066101998 -0.00446 -1.6974601
-0.064879999 -0.0036800001 -1.6994801
-0.069314003 -0.0058490001 -1.68985
-0.069698997 -0.008502 -1.68496
-0.067694999 -0.01032 -1.68665
-0.065379001 -0.005353 -1.69688
-0.065623 -0.009416 -1.69209
-0.065140001 -0.010494 -1.69181
-0.059935998 -0.014437 -1.69687
-0.060219999 -0.013606 -1.69723
-0.068510003 -0.010288 -1.68477
-0.064851001 -0.014743 -1.68679
-0.064269997 -0.014058 -1.68949
-0.064420998 -0.015164 -1.68743
-0.062785 -0.015137 -1.69107
-0.062818997 -0.015616 -1.68976
-0.060132001 -0.01556 -1.6959
-0.059037 -0.020564999 -1.6922899
-0.072465003 -0.0049669999 -1.68216
-0.073614001 -0.0036510001 -1.68247
-0.064165004 -0.002933 -1.70222
-0.062702 -0.005351 -1.70186
-0.057011999 -0.019531 -1.6971
-0.055828001 -0.020022999 -1.6992
-0.055282 -0.022444 -1.69718
-0.053902999 -0.024289999 -1.69719
-0.052857 -0.022527 -1.70215
-0.057960998 -0.022524999 -1.69183
-0.055642001 -0.025423 -1.69232
-0.057133 -0.027509 -1.68724
