# .PCD v0.7 - Point Cloud Data file format
# 5 156 0
# 1 12 0
# 13 60 0
# 61 78 0
# 79 134 0
# 135 156 0
VERSION 0.7
FIELDS x y z normal_x normal_y normal_z curvature
SIZE 4 4 4 4 4 4 4
TYPE F F F F F F F
COUNT 1 1 1 1 1 1 1
WIDTH 156
HEIGHT 1
VIEWPOINT 0 0 0 1 0 0 0
POINTS 156
DATA ascii
-43.1872 12.7425 391.554 -0.285606 0.202706 0.936664 1.733e-37
-41.6921 11.8988 392.095 -0.284273 0.177639 0.942143 1.733e-37
-39.9332 11.9544 392.474 -0.271224 0.155323 0.949901 1.733e-37
-38.3085 12.5133 393.01 -0.253746 0.142113 0.956774 1.733e-37
-36.6604 13.0792 393.461 -0.230314 0.129794 0.964422 1.733e-37
-34.8824 13.1703 393.727 -0.199423 0.113685 0.973297 1.733e-37
-33.1853 13.6822 394.04 -0.175924 0.104633 0.978827 1.733e-37
-31.4032 13.8102 394.258 -0.150446 0.0947616 0.984066 1.733e-37
-29.7068 14.3578 394.508 -0.12909 0.0926307 0.987297 1.733e-37
-27.9086 14.3967 394.579 -0.0999194 0.0872532 0.991162 1.733e-37
-26.18 14.8817 394.708 -0.0694018 0.0862427 0.993854 1.733e-37
-24.3818 14.8859 394.788 -0.0359271 0.0812044 0.99605 1.733e-37
-22.5965 15.0693 394.65 -0.00299315 0.0783794 0.996919 1.733e-37
-20.8479 15.4818 394.761 0.0253345 0.077946 0.996636 1.733e-37
-19.0949 15.8899 394.737 0.045472 0.0790441 0.995833 1.733e-37
-17.3083 16.0879 394.642 0.0668866 0.079613 0.994579 1.733e-37
-15.5299 16.2103 394.393 0.0889104 0.0807002 0.992765 1.733e-37
-13.747 16.3445 394.185 0.110816 0.0827394 0.990391 1.733e-37
-11.9953 16.7355 394.048 0.122762 0.0868459 0.988629 1.733e-37
-10.2363 17.0499 393.831 0.134259 0.0900879 0.986843 1.733e-37
-8.49146 16.7301 393.526 0.145155 0.089154 0.985384 1.733e-37
-6.74405 16.7544 393.094 0.156199 0.0901503 0.983603 1.733e-37
-4.94893 16.8303 392.986 0.172262 0.0907052 0.980866 1.733e-37
-5.25009 17.172 393.074 0.169279 0.0932276 0.981149 1.733e-37
-3.48069 17.2766 392.761 0.185985 0.0938041 0.978065 1.733e-37
-1.80205 16.7349 392.402 0.202221 0.088282 0.975353 1.733e-37
-0.045746 17.0082 392.118 0.217796 0.087967 0.972022 1.733e-37
1.66611 16.796 391.603 0.248256 0.0811322 0.965291 1.733e-37
3.38444 16.9858 391.102 0.293 0.0764367 0.953052 1.733e-37
5.1035 17.0189 390.569 0.341303 0.0701442 0.937333 1.733e-37
6.76394 16.9785 389.876 0.391743 0.0622573 0.917966 1.733e-37
8.3867 16.8948 389.101 0.40104 0.0616264 0.913985 1.733e-37
10.0791 17.1738 388.555 0.385856 0.068688 0.919998 1.733e-37
11.7364 17.223 387.855 0.371382 0.077661 0.925227 1.733e-37
13.3415 17.338 387.048 0.358371 0.0902362 0.929208 1.733e-37
13.8625 19.0159 386.657 0.367919 0.0955242 0.924938 1.733e-37
14.2868 20.7116 386.227 0.38006 0.111809 0.918179 1.733e-37
14.7094 22.3995 385.766 0.391717 0.12811 0.911124 1.733e-37
14.7066 24.1994 385.789 0.401348 0.140217 0.905129 1.733e-37
15.2947 25.7363 385.059 0.409656 0.154815 0.899007 1.733e-37
15.6 27.4305 384.534 0.41566 0.167513 0.893961 1.733e-37
15.7249 29.2194 384.378 0.418215 0.179234 0.890489 1.733e-37
15.8083 30.9839 384.032 0.419182 0.193732 0.886992 1.733e-37
16.2696 32.5813 383.343 0.421102 0.209373 0.882517 1.733e-37
16.3022 34.3399 382.961 0.421788 0.225472 0.878213 1.733e-37
16.7316 35.8822 382.138 0.42304 0.240568 0.873592 1.733e-37
16.8339 37.6022 381.617 0.42322 0.256312 0.869016 1.733e-37
16.8595 39.3616 381.238 0.4229 0.271911 0.864419 1.733e-37
17.0625 40.9021 380.329 0.422411 0.286787 0.859839 1.733e-37
16.8724 42.6808 380.129 0.420932 0.30033 0.855931 1.733e-37
16.8365 44.3855 379.552 0.41835 0.313734 0.852381 1.733e-37
16.7236 46.0944 378.998 0.415051 0.327789 0.848697 1.733e-37
16.9818 47.6486 378.128 0.409972 0.341051 0.845936 1.733e-37
16.8947 49.3278 377.485 0.405234 0.355789 0.84214 1.733e-37
16.9069 50.9465 376.698 0.39959 0.370422 0.83852 1.733e-37
16.8127 52.5924 375.976 0.394464 0.385443 0.834165 1.733e-37
16.5616 54.2913 375.436 0.391381 0.400454 0.828527 1.733e-37
16.4102 55.9225 374.69 0.387959 0.415212 0.822853 1.733e-37
16.2321 57.5469 373.936 0.385354 0.429973 0.816471 1.733e-37
16.1096 59.1338 373.095 0.382343 0.444875 0.809876 1.733e-37
15.8462 60.7655 372.382 0.381252 0.459836 0.801996 1.733e-37
15.8261 62.1999 371.295 0.376415 0.475138 0.795333 1.733e-37
15.4629 63.8031 370.562 0.375843 0.490639 0.786139 1.733e-37
14.9689 65.4159 369.933 0.376316 0.504107 0.777343 1.733e-37
14.4403 66.9935 369.246 0.376343 0.517644 0.768382 1.733e-37
14.2034 68.4881 368.272 0.371928 0.531823 0.760811 1.733e-37
13.8483 69.9977 367.358 0.368798 0.546114 0.752162 1.733e-37
13.5379 71.4326 366.316 0.364684 0.560418 0.743598 1.733e-37
13.0716 72.8941 365.375 0.363214 0.574387 0.73359 1.733e-37
12.4033 74.4118 364.675 0.367067 0.586956 0.721627 1.733e-37
12.0698 75.7861 363.561 0.363178 0.599064 0.713599 1.733e-37
11.3311 77.275 362.87 0.358866 0.611796 0.704926 1.733e-37
10.9014 78.5852 361.713 0.353972 0.624266 0.696416 1.733e-37
10.244 79.9999 360.815 0.350827 0.636633 0.686745 1.733e-37
9.40361 81.4081 360.073 0.348989 0.648571 0.676434 1.733e-37
8.95618 82.7131 358.917 0.344815 0.661382 0.666091 1.733e-37
8.41203 83.9891 357.77 0.340514 0.674542 0.655014 1.733e-37
7.62764 85.3551 356.899 0.336227 0.685063 0.646251 1.733e-37
6.83473 86.6667 355.955 0.33052 0.694765 0.638794 1.733e-37
6.09726 87.9322 354.909 0.323082 0.704428 0.63198 1.733e-37
5.39925 89.1173 353.747 0.31402 0.714043 0.625727 1.733e-37
4.30036 90.4065 353.139 0.308742 0.72339 0.617564 1.733e-37
3.39162 91.5693 352.108 0.302996 0.732207 0.609973 1.733e-37
1.71452 92.2152 352.209 0.305804 0.738019 0.601508 1.733e-37
0.0182066 92.5666 352.698 0.309832 0.740623 0.596222 1.733e-37
-1.67354 93.1778 352.764 0.293251 0.749407 0.593627 1.733e-37
-3.39252 93.7118 352.765 0.26589 0.758092 0.595482 1.733e-37
-5.07723 94.3456 352.761 0.242059 0.762886 0.59951 1.733e-37
-6.80722 94.8426 352.749 0.221237 0.762743 0.607682 1.733e-37
-8.50655 95.4038 352.556 0.197952 0.760855 0.617993 1.733e-37
-10.2445 95.8251 352.761 0.159586 0.758554 0.631766 1.733e-37
-12.0249 96.0898 352.754 0.119885 0.757188 0.642102 1.733e-37
-13.8007 96.3827 352.723 0.0789674 0.756336 0.6494 1.733e-37
-15.5728 96.6638 352.579 0.0499321 0.755238 0.653546 1.733e-37
-17.2683 97.1038 352.165 0.0518577 0.755042 0.653623 1.733e-37
-19.0579 97.2969 352.157 0.0519585 0.756348 0.652102 1.733e-37
-20.8426 97.3859 351.94 0.0512497 0.761299 0.646372 1.733e-37
-22.6357 97.4844 352.063 0.0508232 0.76906 0.637152 1.733e-37
-24.3508 97.9453 351.769 0.0403055 0.778318 0.626575 1.733e-37
-26.0017 98.2834 351.137 0.0302388 0.785482 0.618146 1.733e-37
-27.5871 97.9128 351.904 0.0222648 0.782754 0.621933 1.733e-37
-28.5661 96.9392 353.059 0.0113513 0.775135 0.631693 1.733e-37
-29.4702 95.9743 354.28 -0.00997528 0.766816 0.641789 1.733e-37
-30.0833 94.9642 355.638 -0.0269131 0.757417 0.652376 1.733e-37
-31.0498 93.8859 356.707 -0.0500825 0.747282 0.662617 1.733e-37
-31.9592 92.7248 357.739 -0.070438 0.735652 0.673687 1.733e-37
-32.9494 91.6788 358.819 -0.0908125 0.722414 0.685472 1.733e-37
-33.5437 90.4718 360.015 -0.105222 0.70672 0.699625 1.733e-37
-34.1249 89.2224 361.173 -0.120215 0.687523 0.716143 1.733e-37
-34.6702 87.8904 362.254 -0.136753 0.662131 0.736805 1.733e-37
-35.2723 86.5415 363.282 -0.157059 0.636481 0.755132 1.733e-37
-36.0786 85.1939 364.162 -0.182281 0.610322 0.770896 1.733e-37
-36.3412 83.8403 365.319 -0.200185 0.587206 0.784292 1.733e-37
-36.9956 82.3868 366.155 -0.224959 0.562687 0.795473 1.733e-37
-37.3052 80.8901 367.106 -0.2439 0.541365 0.804634 1.733e-37
-37.4823 79.3741 368.06 -0.258793 0.52679 0.809641 1.733e-37
-37.932 77.7922 368.792 -0.276157 0.513026 0.812738 1.733e-37
-38.1887 76.2859 369.743 -0.286511 0.5019 0.816093 1.733e-37
-38.435 74.6767 370.511 -0.293341 0.491881 0.819759 1.733e-37
-38.4062 73.1018 371.382 -0.294363 0.483016 0.824649 1.733e-37
-38.5346 71.511 372.215 -0.293519 0.474308 0.829987 1.733e-37
-38.4042 70.0353 373.237 -0.286822 0.465298 0.837395 1.733e-37
-38.1825 68.5465 374.224 -0.280002 0.454112 0.845802 1.733e-37
-38.2533 66.9263 375.005 -0.277889 0.443382 0.852168 1.733e-37
-37.8798 65.4638 375.986 -0.274778 0.433441 0.858269 1.733e-37
-37.6625 63.8856 376.824 -0.274597 0.423911 0.863073 1.733e-37
-37.2553 62.3542 377.677 -0.274829 0.415514 0.867074 1.733e-37
-37.0633 60.7462 378.463 -0.277032 0.407009 0.8704 1.733e-37
-36.6164 59.2234 379.313 -0.278257 0.399782 0.873354 1.733e-37
-36.2331 57.6526 380.104 -0.27987 0.391278 0.876684 1.733e-37
-35.9641 56.0219 380.817 -0.282433 0.382289 0.879822 1.733e-37
-35.4453 54.549 381.712 -0.282572 0.374882 0.882959 1.733e-37
-34.8878 52.9979 382.435 -0.281712 0.367598 0.88629 1.733e-37
-34.3322 51.5526 383.353 -0.278397 0.360654 0.890182 1.733e-37
-34.966 49.9364 383.828 -0.289003 0.350005 0.891052 1.733e-37
-35.4383 48.2476 384.234 -0.299086 0.339192 0.891906 1.733e-37
-35.5042 46.567 384.876 -0.304005 0.329917 0.89372 1.733e-37
-35.595 44.8826 385.504 -0.308289 0.320701 0.895605 1.733e-37
-35.6849 43.1723 386.058 -0.312007 0.311388 0.897602 1.733e-37
-36.1004 41.4609 386.43 -0.320839 0.301458 0.897878 1.733e-37
-36.1633 39.7475 386.978 -0.323005 0.292271 0.900136 1.733e-37
-36.1715 38.0505 387.578 -0.323274 0.283182 0.902941 1.733e-37
-36.7736 36.3671 387.787 -0.334621 0.273539 0.901779 1.733e-37
-37.1284 34.6446 388.171 -0.340941 0.267128 0.901333 1.733e-37
-37.3072 32.9045 388.595 -0.343508 0.262569 0.901698 1.733e-37
-37.4397 31.1924 389.135 -0.343369 0.257939 0.903086 1.733e-37
-37.8305 29.4674 389.468 -0.346996 0.253406 0.902983 1.733e-37
-38.572 27.8297 389.559 -0.355489 0.250088 0.900602 1.733e-37
-38.9185 26.1181 389.995 -0.354823 0.246341 0.901896 1.733e-37
-39.6606 24.4788 390.04 -0.359836 0.244841 0.900317 1.733e-37
-40.2388 22.7793 390.172 -0.35868 0.236922 0.902894 1.733e-37
-40.6806 21.0848 390.589 -0.351797 0.223103 0.9091 1.733e-37
-41.1215 19.3658 390.89 -0.344721 0.211552 0.914556 1.733e-37
-42.1443 17.8994 390.681 -0.34673 0.209106 0.914359 1.733e-37
-42.4563 16.1803 391.114 -0.335693 0.200127 0.920467 1.733e-37
-43.1137 14.5073 391.207 -0.326479 0.199702 0.923867 1.733e-37
