# .PCD v0.7 - Point Cloud Data file format
# 5 151 0
# 1 22 0
# 23 40 0
# 41 87 0
# 88 118 0
# 119 151 0
VERSION 0.7
FIELDS x y z normal_x normal_y normal_z curvature
SIZE 4 4 4 4 4 4 4
TYPE F F F F F F F
COUNT 1 1 1 1 1 1 1
WIDTH 151
HEIGHT 1
VIEWPOINT 0 0 0 1 0 0 0
POINTS 151
DATA ascii
-41.5272 12.1694 387.064 0.416953 -0.259868 -0.870987 1.733e-37
-40.9687 13.8757 386.934 0.443323 -0.23719 -0.864411 1.733e-37
-40.4604 15.5887 386.717 0.448039 -0.239735 -0.861272 1.733e-37
-39.8405 17.2667 386.517 0.449332 -0.246629 -0.858647 1.733e-37
-39.3387 18.9851 386.329 0.451322 -0.256687 -0.854646 1.733e-37
-38.5203 20.584 386.211 0.449257 -0.266603 -0.852696 1.733e-37
-37.9503 22.2791 386.008 0.450288 -0.28031 -0.847743 1.733e-37
-37.1995 23.9069 385.844 0.447525 -0.282268 -0.848556 1.733e-37
-36.308 25.4687 385.767 0.443479 -0.281351 -0.85098 1.733e-37
-35.9103 27.1955 385.451 0.445696 -0.282205 -0.849538 1.733e-37
-35.5497 28.9258 385.11 0.448138 -0.283599 -0.847788 1.733e-37
-34.8237 30.5627 384.927 0.447822 -0.284521 -0.847645 1.733e-37
-34.7514 32.2856 384.411 0.451343 -0.28753 -0.844758 1.733e-37
-34.5961 34.0193 383.953 0.452853 -0.290526 -0.842923 1.733e-37
-33.7405 35.5922 383.769 0.451564 -0.292565 -0.842909 1.733e-37
-33.8904 37.2712 383.138 0.45265 -0.295046 -0.841461 1.733e-37
-34.398 38.9004 382.565 0.45305 -0.297233 -0.840475 1.733e-37
-33.9857 40.5738 382.045 0.452245 -0.299705 -0.840031 1.733e-37
-33.7272 42.2974 381.595 0.451129 -0.302306 -0.839699 1.733e-37
-33.1022 43.9218 381.136 0.449512 -0.305292 -0.839486 1.733e-37
-33.2 45.6055 380.507 0.447414 -0.307816 -0.839685 1.733e-37
-33.1253 47.3128 379.942 0.444475 -0.313302 -0.839216 1.733e-37
-33.4526 48.955 379.282 0.440805 -0.318158 -0.839325 1.733e-37
-33.1807 50.6062 378.619 0.434884 -0.324564 -0.839961 1.733e-37
-33.6733 52.2017 377.947 0.430294 -0.32779 -0.841071 1.733e-37
-33.7364 53.8269 377.176 0.423765 -0.332333 -0.842602 1.733e-37
-33.9822 55.3949 376.327 0.418298 -0.335376 -0.844127 1.733e-37
-34.4944 56.9093 375.499 0.415669 -0.336847 -0.844839 1.733e-37
-34.9567 58.4313 374.657 0.414114 -0.344135 -0.842663 1.733e-37
-35.3346 59.987 373.834 0.412095 -0.351735 -0.840512 1.733e-37
-35.5767 61.5731 373.018 0.408241 -0.359952 -0.838912 1.733e-37
-36.4416 62.8798 372.133 0.413218 -0.362204 -0.8355 1.733e-37
-36.154 64.4934 371.388 0.401038 -0.373353 -0.836526 1.733e-37
-36.3166 66.1024 370.598 0.392763 -0.381563 -0.836748 1.733e-37
-36.8677 66.915 370.005 0.395277 -0.381204 -0.835727 1.733e-37
-37.0019 68.5053 369.172 0.383964 -0.393097 -0.835492 1.733e-37
-36.891 70.147 368.443 0.36551 -0.411404 -0.834955 1.733e-37
-36.6286 71.7859 367.746 0.341908 -0.43259 -0.834245 1.733e-37
-36.6868 73.3622 366.879 0.322571 -0.450088 -0.832688 1.733e-37
-37.0419 74.927 366.063 0.306438 -0.464062 -0.831109 1.733e-37
-36.4097 76.3968 365.239 0.274567 -0.4911 -0.8267 1.733e-37
-35.8336 77.9332 364.499 0.244369 -0.517642 -0.819958 1.733e-37
-36.1348 79.4237 363.536 0.2264 -0.528861 -0.817954 1.733e-37
-35.7473 80.8927 362.57 0.199372 -0.548911 -0.811756 1.733e-37
-35.1962 82.3474 361.665 0.17187 -0.571304 -0.802541 1.733e-37
-34.5682 83.7736 360.764 0.14532 -0.594766 -0.790655 1.733e-37
-34.1417 85.2051 359.759 0.120328 -0.617037 -0.777681 1.733e-37
-33.5477 86.5404 358.709 0.0963204 -0.640925 -0.761537 1.733e-37
-32.9737 87.8803 357.653 0.0750656 -0.667882 -0.740472 1.733e-37
-32.0711 89.0696 356.647 0.055393 -0.691257 -0.720483 1.733e-37
-31.2314 90.2195 355.546 0.0354869 -0.710535 -0.702767 1.733e-37
-30.5971 91.382 354.327 0.0157396 -0.726354 -0.687141 1.733e-37
-29.8881 92.5128 353.119 -0.00656172 -0.740074 -0.672494 1.733e-37
-29.115 93.5679 351.883 -0.0302442 -0.752344 -0.658076 1.733e-37
-28.0257 94.462 350.763 -0.0399306 -0.764391 -0.643515 1.733e-37
-27.4172 95.543 349.459 -0.0463586 -0.773953 -0.631544 1.733e-37
-25.622 95.4436 349.544 -0.0373464 -0.775657 -0.630048 1.733e-37
-23.8705 95.6628 349.192 -0.0303682 -0.774175 -0.632243 1.733e-37
-22.233 95.076 349.655 -0.0413758 -0.765095 -0.642587 1.733e-37
-20.4701 94.757 349.83 -0.0584947 -0.760699 -0.646464 1.733e-37
-18.8345 94.318 350.44 -0.0697889 -0.758801 -0.647573 1.733e-37
-17.0378 94.2382 350.367 -0.0810347 -0.763236 -0.641017 1.733e-37
-15.2827 93.8403 350.405 -0.104817 -0.767338 -0.632618 1.733e-37
-13.5238 93.4694 350.497 -0.141126 -0.768405 -0.624209 1.733e-37
-11.7966 92.9861 350.65 -0.175524 -0.766907 -0.617288 1.733e-37
-10.1152 92.3904 350.891 -0.207216 -0.763661 -0.61146 1.733e-37
-8.37613 91.9266 350.913 -0.2247 -0.764039 -0.604776 1.733e-37
-6.65556 91.3979 350.904 -0.230048 -0.761809 -0.605578 1.733e-37
-4.90882 91.1753 350.53 -0.23736 -0.75586 -0.610194 1.733e-37
-3.31598 90.3897 350.823 -0.254239 -0.740155 -0.622521 1.733e-37
-1.57159 90.4417 350.382 -0.239006 -0.728656 -0.641822 1.733e-37
0.117577 89.8216 350.335 -0.19979 -0.71848 -0.666236 1.733e-37
1.85776 89.3615 350.327 -0.152335 -0.706917 -0.690697 1.733e-37
3.5836 89.1057 350.77 -0.102893 -0.692362 -0.714177 1.733e-37
4.16455 87.7334 351.779 -0.112761 -0.6848 -0.719954 1.733e-37
5.18534 86.6538 352.795 -0.111903 -0.671864 -0.732172 1.733e-37
5.94102 85.3705 353.806 -0.116025 -0.661247 -0.741141 1.733e-37
6.48493 83.9595 354.783 -0.126009 -0.651588 -0.748034 1.733e-37
7.15128 82.6268 355.793 -0.129507 -0.639439 -0.757856 1.733e-37
8.08428 81.4495 356.784 -0.115276 -0.625951 -0.771295 1.733e-37
8.87909 80.1737 357.775 -0.105369 -0.613784 -0.78241 1.733e-37
9.02819 78.5983 358.633 -0.12779 -0.606921 -0.784421 1.733e-37
9.63894 77.2016 359.59 -0.130739 -0.594386 -0.793481 1.733e-37
10.3775 75.8679 360.547 -0.132412 -0.577865 -0.805319 1.733e-37
11.3146 74.6728 361.513 -0.101419 -0.559025 -0.822925 1.733e-37
11.6928 73.1441 362.385 -0.110238 -0.546927 -0.829891 1.733e-37
11.7422 71.5248 363.169 -0.136574 -0.541885 -0.829282 1.733e-37
12.6831 70.2906 364.081 -0.102016 -0.530383 -0.841598 1.733e-37
13.1589 68.8001 364.971 -0.098536 -0.523042 -0.846592 1.733e-37
13.135 67.1728 365.74 -0.123004 -0.519379 -0.845645 1.733e-37
13.9603 65.8857 366.69 -0.101483 -0.508554 -0.855029 1.733e-37
14.2761 64.3335 367.545 -0.111602 -0.50018 -0.8587 1.733e-37
14.4393 62.7293 368.345 -0.131271 -0.48819 -0.862809 1.733e-37
14.4655 61.1336 369.177 -0.15567 -0.475443 -0.865864 1.733e-37
13.8413 59.5801 369.838 -0.202127 -0.468119 -0.860238 1.733e-37
14.6027 58.0864 370.493 -0.188616 -0.452664 -0.871504 1.733e-37
15.1449 56.5998 371.351 -0.186835 -0.439788 -0.878453 1.733e-37
15.0235 54.961 372.086 -0.206645 -0.431227 -0.878261 1.733e-37
15.5888 53.4651 372.912 -0.201216 -0.421724 -0.884116 1.733e-37
15.895 51.8823 373.713 -0.20315 -0.407858 -0.890158 1.733e-37
15.5297 50.2119 374.275 -0.223318 -0.393724 -0.89169 1.733e-37
15.9344 48.6343 375.041 -0.221398 -0.378139 -0.898885 1.733e-37
15.6288 46.9491 375.596 -0.237332 -0.36415 -0.900593 1.733e-37
15.8565 45.3227 376.332 -0.238889 -0.349675 -0.905902 1.733e-37
15.7051 43.6392 376.951 -0.248111 -0.335984 -0.908601 1.733e-37
15.1536 42.0201 377.512 -0.264396 -0.322843 -0.908773 1.733e-37
15.3084 40.3254 378.098 -0.262292 -0.311409 -0.91336 1.733e-37
15.5442 38.6516 378.717 -0.256915 -0.301233 -0.918288 1.733e-37
15.4024 36.9502 379.287 -0.257178 -0.290527 -0.921658 1.733e-37
15.213 35.2463 379.836 -0.255959 -0.279698 -0.92534 1.733e-37
15.0221 33.5438 380.388 -0.25253 -0.268764 -0.929513 1.733e-37
14.6144 31.876 380.929 -0.251588 -0.25632 -0.933276 1.733e-37
14.8087 30.1653 381.454 -0.236064 -0.248174 -0.939512 1.733e-37
14.4226 28.4638 381.896 -0.230816 -0.235875 -0.943974 1.733e-37
14.0277 26.7704 382.362 -0.224909 -0.222468 -0.948643 1.733e-37
13.651 25.0647 382.796 -0.217643 -0.208299 -0.953543 1.733e-37
13.6475 23.3302 383.277 -0.200585 -0.19688 -0.959689 1.733e-37
13.627 21.6169 383.828 -0.183425 -0.184352 -0.965593 1.733e-37
12.9394 19.968 384.048 -0.183343 -0.16578 -0.96897 1.733e-37
12.242 18.3416 384.378 -0.185909 -0.160925 -0.969299 1.733e-37
11.268 16.8526 384.65 -0.199937 -0.154169 -0.967604 1.733e-37
9.53936 17.0268 385.121 -0.258202 -0.135 -0.956612 1.733e-37
7.8701 17.4626 385.634 -0.323074 -0.114849 -0.939379 1.733e-37
6.1602 17.3473 386.184 -0.352258 -0.101448 -0.930389 1.733e-37
4.58424 16.7928 386.854 -0.336577 -0.0979374 -0.936549 1.733e-37
2.96315 16.5016 387.58 -0.323027 -0.0951924 -0.94159 1.733e-37
1.28439 17.0507 387.927 -0.311979 -0.0952211 -0.945305 1.733e-37
-0.386577 16.7184 388.508 -0.284944 -0.0956383 -0.953761 1.733e-37
-2.11092 16.782 389.021 -0.2418 -0.098112 -0.965353 1.733e-37
-3.85101 16.6058 389.446 -0.1989 -0.0992158 -0.974985 1.733e-37
-5.60538 16.8814 389.74 -0.156097 -0.103284 -0.982327 1.733e-37
-7.38873 16.8322 389.979 -0.138764 -0.104848 -0.98476 1.733e-37
-9.17385 16.8482 390.209 -0.136389 -0.104687 -0.985108 1.733e-37
-10.9222 16.6768 390.602 -0.133015 -0.101962 -0.985855 1.733e-37
-12.7146 16.5548 390.713 -0.128615 -0.0978753 -0.986853 1.733e-37
-14.2856 15.8033 391.168 -0.104065 -0.0908554 -0.990412 1.733e-37
-16.0776 15.6335 391.164 -0.0656336 -0.0899032 -0.993786 1.733e-37
-17.8762 15.5965 391.223 -0.0280487 -0.0934565 -0.995228 1.733e-37
-19.6717 15.6991 391.298 0.00920532 -0.102413 -0.994699 1.733e-37
-21.3689 15.1013 391.252 0.0332901 -0.11019 -0.993353 1.733e-37
-23.1607 14.9409 391.19 0.0572367 -0.11954 -0.991178 1.733e-37
-24.8394 14.2916 391.171 0.079304 -0.122858 -0.989251 1.733e-37
-26.4132 13.4181 391.165 0.102535 -0.121475 -0.987284 1.733e-37
-28.1959 13.2851 390.955 0.132514 -0.120136 -0.983874 1.733e-37
-29.9748 13.1756 390.703 0.163814 -0.121502 -0.97898 1.733e-37
-31.6794 12.6658 390.43 0.193259 -0.125703 -0.973062 1.733e-37
-33.4375 12.466 390.1 0.226832 -0.139434 -0.963901 1.733e-37
-35.1396 12.0575 389.68 0.271712 -0.158533 -0.949231 1.733e-37
-36.7208 11.3364 389.211 0.322502 -0.176632 -0.929943 1.733e-37
-38.4376 11.2907 388.672 0.369317 -0.20128 -0.907244 1.733e-37
-40.0282 11.6251 387.899 0.404254 -0.229529 -0.885379 1.733e-37
