# .PCD v0.7 - Point Cloud Data file format
# 4 67 0
# 1 19 0
# 20 34 0
# 35 62 0
# 63 67 0
VERSION 0.7
FIELDS x y z normal_x normal_y normal_z curvature
SIZE 4 4 4 4 4 4 4
TYPE F F F F F F F
COUNT 1 1 1 1 1 1 1
WIDTH 67
HEIGHT 1
VIEWPOINT 0 0 0 1 0 0 0
POINTS 67
DATA ascii
9.35528 20.0391 354.246 0.359006 0.642104 0.67736 3.22578e-37
10.5898 20.475 353.011 0.37685 0.636035 0.673382 3.22578e-37
10.7971 21.7282 351.736 0.369635 0.63691 0.676547 3.22578e-37
10.6155 23.103 350.588 0.355954 0.643631 0.677522 3.22578e-37
10.3908 24.4654 349.433 0.345174 0.650158 0.676867 3.22578e-37
10.2313 25.6944 348.128 0.345217 0.643204 0.683458 3.22578e-37
10.4182 25.8082 348.077 0.346667 0.642519 0.683367 3.22578e-37
10.5232 27.1014 346.829 0.3478 0.636348 0.688547 3.22578e-37
10.6492 28.3717 345.56 0.345944 0.630582 0.694758 3.22578e-37
10.8125 29.633 344.287 0.34238 0.616152 0.709318 3.22578e-37
11.0007 31.0169 343.151 0.332645 0.598569 0.72874 3.22578e-37
11.2951 32.315 341.939 0.316754 0.578147 0.751939 3.22578e-37
11.5202 33.7198 340.837 0.302753 0.563741 0.768464 3.22578e-37
11.8368 35.0889 339.712 0.289177 0.562377 0.774667 3.22578e-37
12.0053 36.52 338.633 0.274177 0.561202 0.780948 3.22578e-37
12.4968 37.8076 337.475 0.255215 0.55209 0.793764 3.22578e-37
13.0983 39.0642 336.336 0.227884 0.53233 0.815288 3.22578e-37
13.1132 40.6582 335.499 0.20626 0.522599 0.827253 3.22578e-37
13.7853 42.0213 334.535 0.191516 0.512066 0.837323 3.22578e-37
14.4556 43.3619 333.538 0.17901 0.505512 0.844046 3.22578e-37
15.3875 44.5299 332.535 0.171186 0.491377 0.853958 3.22578e-37
15.7756 46.1051 331.755 0.165368 0.475099 0.864254 3.22578e-37
16.6828 47.1907 330.642 0.16381 0.461416 0.87193 3.22578e-37
16.5705 48.889 330.056 0.163679 0.455034 0.875302 3.22578e-37
16.5087 50.4891 329.234 0.169812 0.470021 0.866167 3.22578e-37
14.958 51.3799 329.029 0.166656 0.468364 0.867675 3.22578e-37
13.2859 51.998 328.78 0.15142 0.456862 0.876555 3.22578e-37
11.5616 52.0549 329.294 0.181649 0.451994 0.87333 3.22578e-37
9.8083 52.3465 329.578 0.214055 0.45274 0.865568 3.22578e-37
8.05922 52.3582 330.003 0.24662 0.456227 0.855006 3.22578e-37
6.34909 52.8426 330.288 0.28092 0.457919 0.843442 3.22578e-37
4.69089 53.5207 330.462 0.322847 0.458989 0.827707 3.22578e-37
3.01901 53.8979 331.013 0.363558 0.465846 0.80673 3.22578e-37
1.4343 54.7409 331.147 0.393422 0.473928 0.787789 3.22578e-37
-0.176267 55.371 331.646 0.427193 0.477912 0.767533 3.22578e-37
-1.73712 56.0473 332.234 0.452051 0.479336 0.752255 3.22578e-37
-3.31009 56.9123 332.367 0.477739 0.477124 0.737643 3.22578e-37
-4.70027 57.8985 332.946 0.499655 0.475961 0.723745 3.22578e-37
-6.22051 58.6822 333.507 0.507822 0.489305 0.709012 3.22578e-37
-7.79439 59.4171 333.979 0.483528 0.527081 0.698846 3.22578e-37
-8.15774 58.1757 335.23 0.499576 0.539257 0.677957 3.22578e-37
-7.93491 56.6976 336.233 0.555153 0.50939 0.657515 3.22578e-37
-7.90379 55.2633 337.32 0.568922 0.507687 0.646979 3.22578e-37
-7.59899 53.7738 338.284 0.574256 0.498478 0.649423 3.22578e-37
-7.26821 52.2336 339.155 0.566469 0.488626 0.663594 3.22578e-37
-7.21664 50.7068 340.107 0.545367 0.481814 0.685879 3.22578e-37
-6.50664 49.1578 340.687 0.529068 0.490819 0.692231 3.22578e-37
-6.18387 47.5098 341.335 0.512946 0.497843 0.699313 3.22578e-37
-5.43088 46.0484 342.068 0.509084 0.5032 0.698301 3.22578e-37
-4.49576 44.5881 342.55 0.51906 0.505416 0.689298 3.22578e-37
-4.33988 43.0638 343.495 0.505943 0.513671 0.692938 3.22578e-37
-4.00427 41.4875 344.297 0.499777 0.521757 0.69137 3.22578e-37
-3.05595 40.0713 344.876 0.511021 0.528762 0.677693 3.22578e-37
-2.49182 38.5651 345.684 0.507349 0.540897 0.670841 3.22578e-37
-2.63377 37.1007 346.721 0.484168 0.555938 0.675659 3.22578e-37
-1.75584 35.7041 347.441 0.488431 0.570671 0.660128 3.22578e-37
-1.53434 34.2206 348.436 0.476283 0.583695 0.657613 3.22578e-37
-1.11288 32.8099 349.472 0.472487 0.583108 0.660864 3.22578e-37
-0.359705 31.3854 350.274 0.484635 0.580891 0.653984 3.22578e-37
0.261256 29.9184 351.112 0.494713 0.578604 0.648442 3.22578e-37
0.738739 28.4178 351.984 0.495322 0.58275 0.64425 3.22578e-37
1.86241 27.0863 352.436 0.49701 0.589737 0.636546 3.22578e-37
2.60848 25.6509 353.225 0.486463 0.599079 0.63597 3.22578e-37
3.94772 24.4529 353.331 0.47831 0.609805 0.631947 3.22578e-37
5.16111 23.1689 353.676 0.462995 0.618014 0.635369 3.22578e-37
6.23763 21.8026 354.139 0.421213 0.628373 0.654009 3.22578e-37
7.71176 20.7709 354.188 0.371974 0.639965 0.672369 3.22578e-37
