# .PCD v0.7 - Point Cloud Data file format
# 3 154 0
# 1 72 0
# 73 146 0
# 147 154 0
VERSION 0.7
FIELDS x y z normal_x normal_y normal_z curvature
SIZE 4 4 4 4 4 4 4
TYPE F F F F F F F
COUNT 1 1 1 1 1 1 1
WIDTH 154
HEIGHT 1
VIEWPOINT 0 0 0 1 0 0 0
POINTS 154
DATA ascii
-3.81936 -67.4041 439.158 0.0119942 -0.284435 0.95862 3.72247e-37
-2.10738 -66.854 439.239 0.0149485 -0.27071 0.962545 3.72247e-37
-1.07628 -65.5004 439.826 0.0414774 -0.261044 0.964436 3.72247e-37
0.602668 -64.8527 439.867 0.0699515 -0.257541 0.963732 3.72247e-37
2.17359 -63.9854 440.008 0.0880991 -0.255416 0.962809 3.72247e-37
3.30826 -62.6067 440.236 0.0959991 -0.247373 0.964153 3.72247e-37
4.48803 -61.262 440.435 0.116011 -0.234452 0.965181 3.72247e-37
5.94812 -60.2108 440.38 0.156064 -0.217128 0.963587 3.72247e-37
7.33395 -59.0625 440.411 0.20731 -0.194573 0.95873 3.72247e-37
7.21443 -58.8335 440.653 0.204441 -0.193731 0.959517 3.72247e-37
8.53078 -57.6247 440.439 0.261305 -0.170163 0.950139 3.72247e-37
9.41727 -56.0606 440.527 0.288906 -0.149731 0.945576 3.72247e-37
10.6042 -54.7543 440.173 0.311541 -0.134712 0.940635 3.72247e-37
11.5149 -53.226 439.9 0.322082 -0.124755 0.938456 3.72247e-37
12.1884 -51.56 440.004 0.31895 -0.11662 0.94057 3.72247e-37
12.7734 -49.8601 440.094 0.305186 -0.109519 0.945974 3.72247e-37
13.5342 -48.2293 440.135 0.290823 -0.104116 0.951095 3.72247e-37
14.5686 -46.7606 440.022 0.275698 -0.100515 0.955975 3.72247e-37
15.3602 -45.144 440.022 0.266463 -0.0895643 0.959675 3.72247e-37
16.4351 -43.7132 439.829 0.265896 -0.0787827 0.960777 3.72247e-37
17.2055 -42.0898 439.723 0.269939 -0.0635054 0.960781 3.72247e-37
18.1877 -40.6057 439.454 0.280054 -0.0484834 0.958759 3.72247e-37
19.1592 -39.1199 439.156 0.292407 -0.033143 0.95572 3.72247e-37
20.0459 -37.5697 438.931 0.303031 -0.0168788 0.952831 3.72247e-37
20.5969 -35.8595 438.823 0.317885 -0.00168478 0.948128 3.72247e-37
21.4243 -34.2882 438.529 0.341156 0.0157903 0.939874 3.72247e-37
22.2997 -32.7789 438.087 0.37162 0.0353277 0.927713 3.72247e-37
22.8815 -31.0952 437.829 0.399891 0.0516673 0.915105 3.72247e-37
23.465 -29.443 437.417 0.429603 0.0664732 0.900568 3.72247e-37
23.6334 -27.6608 437.228 0.445834 0.0768353 0.891812 3.72247e-37
24.182 -26.0137 436.753 0.470811 0.0873654 0.877897 3.72247e-37
24.1904 -24.2229 436.571 0.475019 0.0957794 0.874748 3.72247e-37
24.7821 -22.6152 436.019 0.493576 0.101918 0.86371 3.72247e-37
24.761 -20.8214 435.871 0.487457 0.110042 0.866185 3.72247e-37
24.8405 -19.0503 435.56 0.483584 0.125644 0.866234 3.72247e-37
24.7298 -17.2614 435.394 0.474314 0.142573 0.868735 3.72247e-37
24.6284 -15.4799 435.157 0.466563 0.158888 0.8701 3.72247e-37
24.6713 -13.7163 434.8 0.463254 0.173968 0.868982 3.72247e-37
24.7515 -11.9697 434.372 0.461491 0.188441 0.8669 3.72247e-37
24.7796 -10.2078 434.004 0.458481 0.202952 0.86522 3.72247e-37
24.7516 -8.45095 433.614 0.455112 0.217246 0.863526 3.72247e-37
24.6688 -6.70532 433.183 0.45164 0.23123 0.861716 3.72247e-37
24.7216 -4.99313 432.63 0.451513 0.243722 0.858333 3.72247e-37
24.6973 -3.25383 432.167 0.448982 0.255312 0.856289 3.72247e-37
24.4182 -1.52312 431.759 0.44183 0.268181 0.856076 3.72247e-37
24.2727 0.212146 431.303 0.436275 0.281218 0.85474 3.72247e-37
24.1371 1.91106 430.724 0.431062 0.294562 0.852889 3.72247e-37
24.0796 3.60822 430.127 0.426285 0.308116 0.850497 3.72247e-37
23.8476 5.30998 429.588 0.418128 0.322996 0.849024 3.72247e-37
23.5447 7.01767 429.106 0.408123 0.338814 0.847727 3.72247e-37
23.3119 8.58063 428.245 0.400793 0.354057 0.84499 3.72247e-37
22.8218 10.3055 428.087 0.385611 0.370198 0.845138 3.72247e-37
22.3027 11.9615 427.61 0.370378 0.386226 0.844778 3.72247e-37
21.7155 13.5853 427.101 0.353774 0.403302 0.843914 3.72247e-37
21.1705 15.2008 426.524 0.338106 0.420567 0.841907 3.72247e-37
20.7356 16.8051 425.833 0.325082 0.437426 0.838439 3.72247e-37
19.8413 18.3211 425.456 0.307865 0.454566 0.835816 3.72247e-37
19.3485 19.8781 424.699 0.297151 0.470876 0.830649 3.72247e-37
18.6686 21.4136 424.051 0.285148 0.487046 0.825516 3.72247e-37
18.1088 22.9459 423.291 0.276355 0.502686 0.819106 3.72247e-37
17.3272 24.4341 422.647 0.266127 0.51224 0.81657 3.72247e-37
16.6 25.9356 421.971 0.257892 0.52007 0.81426 3.72247e-37
16.0905 27.4503 421.143 0.252731 0.527669 0.810982 3.72247e-37
15.0829 28.816 420.543 0.24627 0.534749 0.808329 3.72247e-37
14.394 30.2635 419.725 0.250224 0.541296 0.802737 3.72247e-37
14.0057 31.6951 418.705 0.252444 0.548471 0.797152 3.72247e-37
13.206 33.1648 418.041 0.25962 0.554991 0.790306 3.72247e-37
12.0893 34.5011 417.586 0.269128 0.561418 0.782547 3.72247e-37
11.5909 35.9748 416.68 0.268837 0.570771 0.775852 3.72247e-37
10.8923 37.4229 415.871 0.267629 0.581425 0.768322 3.72247e-37
10.1666 38.8618 415.069 0.263463 0.598724 0.756384 3.72247e-37
9.53722 40.1892 414.029 0.250312 0.617206 0.745923 3.72247e-37
8.79796 41.5693 413.141 0.215992 0.637702 0.739381 3.72247e-37
7.78357 42.8635 412.409 0.17554 0.657905 0.732357 3.72247e-37
6.96128 44.0715 411.358 0.144305 0.675035 0.723535 3.72247e-37
6.53023 45.3454 410.161 0.124991 0.688825 0.714071 3.72247e-37
5.45465 46.4915 409.284 0.0998638 0.702102 0.705039 3.72247e-37
4.77395 47.722 408.161 0.088901 0.712818 0.695692 3.72247e-37
3.74401 48.8386 407.195 0.0879866 0.720138 0.688229 3.72247e-37
2.89051 49.9895 406.105 0.100595 0.725856 0.680451 3.72247e-37
1.11854 50.2073 405.876 0.122345 0.720451 0.682628 3.72247e-37
0.814817 49.1215 407.279 0.116788 0.711704 0.692703 3.72247e-37
-0.16852 48.033 408.322 0.117714 0.701187 0.703193 3.72247e-37
-0.82442 46.9076 409.564 0.112799 0.691359 0.713652 3.72247e-37
-1.44948 45.7361 410.78 0.100533 0.681639 0.724749 3.72247e-37
-2.09467 44.5264 411.946 0.0886639 0.671822 0.735387 3.72247e-37
-2.63851 43.3165 413.163 0.0777776 0.66237 0.745128 3.72247e-37
-2.85921 42.0756 414.448 0.0687094 0.653853 0.753496 3.72247e-37
-3.79924 40.8972 415.432 0.0608819 0.644512 0.762167 3.72247e-37
-4.46351 39.609 416.499 0.0551786 0.636078 0.76965 3.72247e-37
-4.92252 38.2972 417.643 0.0510972 0.628199 0.776373 3.72247e-37
-5.42056 36.9578 418.737 0.0458446 0.617644 0.78512 3.72247e-37
-6.11012 35.6134 419.716 0.0373194 0.605936 0.794637 3.72247e-37
-6.44617 34.2735 420.87 0.0305518 0.593442 0.804297 3.72247e-37
-6.93784 32.8655 421.878 0.0217571 0.580784 0.813767 3.72247e-37
-7.40998 31.4539 422.89 0.0131115 0.56818 0.8228 3.72247e-37
-7.88629 30.0192 423.867 0.00505843 0.555905 0.831231 3.72247e-37
-8.41425 28.5579 424.776 -0.0021688 0.544276 0.838904 3.72247e-37
-9.03215 27.0746 425.587 -0.00519089 0.533792 0.8456 3.72247e-37
-8.89955 25.6812 426.719 -0.00590802 0.523312 0.852121 3.72247e-37
-9.47697 24.191 427.547 -0.00238681 0.513006 0.858382 3.72247e-37
-9.71832 22.6849 428.503 -0.00481971 0.500665 0.865628 3.72247e-37
-9.9486 21.1371 429.392 -0.00994509 0.488119 0.87272 3.72247e-37
-10.4847 19.5984 430.157 -0.020182 0.475008 0.87975 3.72247e-37
-10.8356 18.0326 430.973 -0.0312933 0.46197 0.886343 3.72247e-37
-11.0301 16.4456 431.799 -0.041396 0.449516 0.892313 3.72247e-37
-11.5212 14.8748 432.528 -0.0567897 0.43653 0.897895 3.72247e-37
-11.736 13.2531 433.279 -0.067767 0.424727 0.902782 3.72247e-37
-11.8967 11.6152 434.008 -0.0769951 0.413589 0.907202 3.72247e-37
-12.1568 9.97133 434.694 -0.0879044 0.396603 0.913772 3.72247e-37
-12.1533 8.35453 435.485 -0.0917117 0.380627 0.92017 3.72247e-37
-12.6562 6.7144 436.03 -0.106263 0.364606 0.925079 3.72247e-37
-12.7717 5.0841 436.784 -0.109834 0.349658 0.930417 3.72247e-37
-13.2404 3.38807 437.163 -0.120187 0.335828 0.934224 3.72247e-37
-13.2133 1.7007 437.79 -0.11671 0.322238 0.939437 3.72247e-37
-13.2233 0.0126119 438.414 -0.111828 0.308982 0.944471 3.72247e-37
-13.3622 -1.70716 438.927 -0.107388 0.29657 0.948954 3.72247e-37
-13.3972 -3.43846 439.419 -0.0986094 0.283558 0.953872 3.72247e-37
-13.4356 -5.16472 439.927 -0.0899129 0.267943 0.95923 3.72247e-37
-13.4762 -6.89859 440.409 -0.0825798 0.251828 0.964242 3.72247e-37
-13.7956 -8.65048 440.671 -0.0799824 0.236438 0.968349 3.72247e-37
-13.3293 -10.2679 441.309 -0.0704597 0.218901 0.9732 3.72247e-37
-13.6427 -12.0224 441.56 -0.070401 0.202371 0.976775 3.72247e-37
-13.0683 -13.6544 442.057 -0.0645125 0.185618 0.980502 3.72247e-37
-13.4868 -15.399 442.203 -0.0681638 0.168507 0.983341 3.72247e-37
-13.2358 -17.1466 442.554 -0.0684031 0.15127 0.986123 3.72247e-37
-13.3232 -18.9365 442.722 -0.0726749 0.134787 0.988206 3.72247e-37
-13.2153 -20.7184 442.953 -0.0748761 0.123639 0.989498 3.72247e-37
-13.2412 -22.5138 443.079 -0.0760982 0.111679 0.990826 3.72247e-37
-12.7507 -24.1901 443.514 -0.0719791 0.0994451 0.992436 3.72247e-37
-12.712 -25.9841 443.655 -0.0698283 0.0859897 0.993846 3.72247e-37
-12.5935 -27.7741 443.803 -0.0661095 0.0718663 0.995221 3.72247e-37
-12.5169 -29.5713 443.868 -0.0619524 0.0572647 0.996435 3.72247e-37
-12.2821 -31.3527 443.976 -0.0566616 0.0419264 0.997513 3.72247e-37
-12.0536 -33.1373 444.031 -0.0515615 0.0262301 0.998325 3.72247e-37
-11.8403 -34.924 444.076 -0.0465974 0.0102409 0.998861 3.72247e-37
-11.3703 -36.6582 444.184 -0.0410793 -0.00687328 0.999132 3.72247e-37
-11.2431 -38.4523 444.113 -0.0364954 -0.0244695 0.999034 3.72247e-37
-10.8275 -40.2036 444.114 -0.0332832 -0.0428692 0.998526 3.72247e-37
-10.6802 -41.9929 443.984 -0.0312375 -0.0615349 0.997616 3.72247e-37
-10.1643 -43.717 443.948 -0.0342038 -0.0796499 0.996236 3.72247e-37
-10.0736 -45.5011 443.727 -0.0356608 -0.0984721 0.994501 3.72247e-37
-9.56601 -47.224 443.609 -0.0315172 -0.11622 0.992723 3.72247e-37
-9.069 -48.9448 443.43 -0.0278937 -0.133641 0.990637 3.72247e-37
-8.94953 -50.7097 443.098 -0.0280545 -0.150354 0.988234 3.72247e-37
-8.40293 -52.413 442.897 -0.0211037 -0.165375 0.986005 3.72247e-37
-8.19878 -54.1509 442.475 -0.0166613 -0.180434 0.983446 3.72247e-37
-7.65576 -55.8445 442.198 -0.00749979 -0.195327 0.980709 3.72247e-37
-7.12251 -57.5251 441.836 0.00214985 -0.210356 0.977623 3.72247e-37
-6.5391 -59.1962 441.509 0.0125033 -0.225532 0.974156 3.72247e-37
-5.95888 -60.8575 441.13 0.0212498 -0.240499 0.970417 3.72247e-37
-5.58401 -62.5378 440.605 0.0266052 -0.254589 0.966683 3.72247e-37
-4.87567 -64.1505 440.234 0.0279884 -0.266896 0.963319 3.72247e-37
-4.49537 -65.8095 439.648 0.0241819 -0.277753 0.960348 3.72247e-37
