# .PCD v0.7 - Point Cloud Data file format
# 6 209 0
# 1 20 0
# 21 104 0
# 105 122 0
# 123 151 0
# 152 191 0
# 192 209 0
VERSION 0.7
FIELDS x y z normal_x normal_y normal_z curvature
SIZE 4 4 4 4 4 4 4
TYPE F F F F F F F
COUNT 1 1 1 1 1 1 1
WIDTH 209
HEIGHT 1
VIEWPOINT 0 0 0 1 0 0 0
POINTS 209
DATA ascii
65.0397 -52.5628 401.704 -0.294767 -0.239374 -0.925101 1.66029e-37
63.3904 -52.4839 402.421 -0.296807 -0.235672 -0.925399 1.66029e-37
61.8209 -53.03 403.113 -0.297943 -0.232451 -0.925849 1.66029e-37
60.11 -52.5883 403.456 -0.30196 -0.228345 -0.925569 1.66029e-37
58.4184 -52.6319 404.069 -0.305725 -0.224198 -0.925347 1.66029e-37
56.8491 -53.0559 404.842 -0.304325 -0.222195 -0.926292 1.66029e-37
55.1754 -53.4731 405.357 -0.29975 -0.221488 -0.927951 1.66029e-37
53.4579 -53.5033 405.895 -0.295206 -0.22093 -0.929539 1.66029e-37
51.7341 -53.3973 406.402 -0.290833 -0.220445 -0.931032 1.66029e-37
50.0225 -53.1447 406.899 -0.286675 -0.220079 -0.932407 1.66029e-37
48.3093 -53.2255 407.445 -0.282568 -0.219578 -0.933778 1.66029e-37
46.7678 -53.9133 408.07 -0.278921 -0.218922 -0.935027 1.66029e-37
45.0601 -53.4233 408.359 -0.275433 -0.219078 -0.936024 1.66029e-37
43.3188 -53.21 408.762 -0.268217 -0.220508 -0.937782 1.66029e-37
41.6937 -53.6752 409.38 -0.261819 -0.221703 -0.939307 1.66029e-37
39.993 -53.8516 409.943 -0.255076 -0.223289 -0.940786 1.66029e-37
38.2647 -53.9951 410.425 -0.248417 -0.225123 -0.94213 1.66029e-37
36.5875 -54.389 410.947 -0.242413 -0.227234 -0.943187 1.66029e-37
34.8957 -54.6532 411.502 -0.235655 -0.226419 -0.945093 1.66029e-37
34.0083 -54.3192 411.472 -0.232308 -0.228066 -0.945526 1.66029e-37
32.2692 -54.4597 411.914 -0.225231 -0.226587 -0.947591 1.66029e-37
30.5413 -54.5605 412.409 -0.221398 -0.224124 -0.949079 1.66029e-37
29.0569 -55.3664 413.031 -0.218254 -0.218229 -0.951179 1.66029e-37
27.3028 -55.0899 413.325 -0.216098 -0.217104 -0.951928 1.66029e-37
25.7354 -55.7373 413.928 -0.212908 -0.211703 -0.953862 1.66029e-37
23.9549 -55.5667 414.13 -0.21062 -0.209835 -0.954782 1.66029e-37
22.221 -55.8538 414.519 -0.207578 -0.205603 -0.956368 1.66029e-37
20.5804 -56.3351 415.081 -0.204033 -0.20019 -0.958277 1.66029e-37
18.8766 -56.7121 415.523 -0.200335 -0.19494 -0.960138 1.66029e-37
17.1229 -56.8356 415.91 -0.195896 -0.190592 -0.961925 1.66029e-37
15.3584 -56.911 416.257 -0.189412 -0.186707 -0.963983 1.66029e-37
13.7143 -57.4055 416.798 -0.182073 -0.180518 -0.966573 1.66029e-37
12.0429 -57.9813 417.137 -0.174322 -0.173778 -0.969233 1.66029e-37
10.2644 -57.9178 417.407 -0.167513 -0.169441 -0.9712 1.66029e-37
8.60598 -58.5328 417.741 -0.159199 -0.161732 -0.973909 1.66029e-37
6.98328 -59.2145 418.117 -0.150505 -0.153361 -0.976642 1.66029e-37
5.21245 -59.2904 418.431 -0.142989 -0.147168 -0.978721 1.66029e-37
3.58453 -59.9015 418.896 -0.134166 -0.138218 -0.981272 1.66029e-37
1.84373 -60.2337 419.211 -0.124835 -0.130764 -0.983523 1.66029e-37
0.162361 -59.5952 419.284 -0.119197 -0.130506 -0.984256 1.66029e-37
-0.813867 -58.1034 419.036 -0.117753 -0.139511 -0.983194 1.66029e-37
-1.64744 -56.5114 418.932 -0.115417 -0.150848 -0.981796 1.66029e-37
-2.22424 -54.8321 418.637 -0.113194 -0.16404 -0.979938 1.66029e-37
-2.32849 -53.0527 418.387 -0.113025 -0.178181 -0.977485 1.66029e-37
-3.32097 -51.5585 418.237 -0.107308 -0.189515 -0.975996 1.66029e-37
-3.94318 -49.8851 418.008 -0.10395 -0.201479 -0.973961 1.66029e-37
-4.54703 -48.2189 417.693 -0.101368 -0.21211 -0.971974 1.66029e-37
-4.92222 -46.4904 417.359 -0.101861 -0.221725 -0.969774 1.66029e-37
-5.82693 -44.9565 417.097 -0.0993855 -0.226586 -0.968907 1.66029e-37
-7.19928 -43.7976 416.98 -0.101429 -0.224107 -0.969272 1.66029e-37
-7.96205 -42.2033 416.639 -0.106718 -0.224712 -0.968564 1.66029e-37
-9.08663 -40.818 416.402 -0.108976 -0.222229 -0.968885 1.66029e-37
-9.79587 -39.1853 416.135 -0.11371 -0.223288 -0.968097 1.66029e-37
-10.6504 -37.6222 415.877 -0.117025 -0.228042 -0.966593 1.66029e-37
-11.7468 -36.2045 415.71 -0.117403 -0.233093 -0.965341 1.66029e-37
-12.2432 -34.5001 415.412 -0.120463 -0.243688 -0.962343 1.66029e-37
-13.4368 -33.1804 415.141 -0.118844 -0.250827 -0.960709 1.66029e-37
-13.9474 -31.5092 414.709 -0.120481 -0.262762 -0.957309 1.66029e-37
-14.6576 -29.899 414.331 -0.120918 -0.273657 -0.954196 1.66029e-37
-15.6746 -28.4445 414.031 -0.112873 -0.28376 -0.952229 1.66029e-37
-16.68 -26.9655 413.827 -0.104553 -0.293505 -0.950223 1.66029e-37
-16.9568 -25.2607 413.32 -0.103976 -0.30506 -0.94664 1.66029e-37
-17.258 -23.5603 412.812 -0.103542 -0.315621 -0.943219 1.66029e-37
-18.2844 -22.1688 412.311 -0.0975319 -0.322654 -0.941479 1.66029e-37
-19.0263 -20.6094 411.804 -0.0933772 -0.325574 -0.940894 1.66029e-37
-19.5966 -18.9738 411.314 -0.0904142 -0.327552 -0.940497 1.66029e-37
-20.1433 -17.2907 410.985 -0.0877011 -0.329702 -0.940003 1.66029e-37
-20.2615 -15.6218 410.321 -0.0877406 -0.332258 -0.939099 1.66029e-37
-20.9044 -14.0361 409.762 -0.0847089 -0.334722 -0.938502 1.66029e-37
-22.0342 -12.6928 409.364 -0.0792541 -0.336824 -0.938226 1.66029e-37
-22.0284 -10.9797 408.811 -0.0797046 -0.339856 -0.937094 1.66029e-37
-22.5855 -9.32437 408.376 -0.0773017 -0.342791 -0.936226 1.66029e-37
-22.6778 -7.64241 407.741 -0.0770104 -0.345962 -0.935083 1.66029e-37
-22.6321 -5.97204 407.072 -0.0771154 -0.349059 -0.933922 1.66029e-37
-22.3443 -4.31633 406.427 -0.0777924 -0.349118 -0.933844 1.66029e-37
-21.5373 -2.82346 405.827 -0.0811644 -0.349029 -0.93359 1.66029e-37
-21.6147 -1.14814 405.174 -0.0815499 -0.348727 -0.93367 1.66029e-37
-21.5096 0.522342 404.512 -0.0832999 -0.348162 -0.933726 1.66029e-37
-21.0147 2.12835 403.867 -0.0870712 -0.347799 -0.933517 1.66029e-37
-20.3668 3.67511 403.213 -0.0917934 -0.347694 -0.933104 1.66029e-37
-19.6218 5.19036 402.589 -0.0971296 -0.347868 -0.932499 1.66029e-37
-18.6793 6.60828 402.005 -0.103204 -0.34855 -0.931591 1.66029e-37
-17.7989 8.04455 401.371 -0.109269 -0.349296 -0.930619 1.66029e-37
-17.3958 9.73271 400.894 -0.11454 -0.35217 -0.928901 1.66029e-37
-16.5974 11.144 400.112 -0.12025 -0.356726 -0.926437 1.66029e-37
-15.4562 12.3525 399.421 -0.125667 -0.361033 -0.924047 1.66029e-37
-14.8419 13.9073 398.754 -0.129154 -0.365202 -0.921926 1.66029e-37
-14.2844 15.5637 398.323 -0.131623 -0.369411 -0.919897 1.66029e-37
-12.9072 16.6299 397.869 -0.135361 -0.372379 -0.918156 1.66029e-37
-11.7395 17.6527 396.958 -0.138408 -0.375201 -0.916552 1.66029e-37
-10.4804 18.4772 395.97 -0.141579 -0.377214 -0.915241 1.66029e-37
-9.71873 19.9828 395.344 -0.142664 -0.380458 -0.913728 1.66029e-37
-8.82629 21.3918 394.667 -0.143839 -0.3833 -0.912355 1.66029e-37
-7.3695 22.1956 393.98 -0.148966 -0.388543 -0.909309 1.66029e-37
-5.92095 23.1111 393.429 -0.155144 -0.394823 -0.905563 1.66029e-37
-4.65114 24.2314 392.819 -0.161331 -0.402488 -0.901097 1.66029e-37
-3.26172 25.1464 392.131 -0.16904 -0.408927 -0.896774 1.66029e-37
-2.15234 26.3426 391.371 -0.175595 -0.417118 -0.891728 1.66029e-37
-0.974468 27.4537 390.585 -0.182539 -0.424633 -0.886773 1.66029e-37
0.0512969 28.6794 389.757 -0.183448 -0.434321 -0.88188 1.66029e-37
1.03675 29.9345 388.924 -0.183951 -0.443962 -0.876961 1.66029e-37
2.20984 31.0022 388.073 -0.183762 -0.452441 -0.872656 1.66029e-37
3.20314 32.3032 387.324 -0.183018 -0.461557 -0.868026 1.66029e-37
4.49641 33.2776 386.538 -0.182157 -0.472339 -0.862389 1.66029e-37
5.89592 34.0808 385.741 -0.181442 -0.484187 -0.855945 1.66029e-37
7.02285 35.1618 384.845 -0.180652 -0.499147 -0.847477 1.66029e-37
7.56855 36.6608 384.011 -0.179865 -0.517798 -0.836381 1.66029e-37
8.82008 37.5128 383.038 -0.178081 -0.531068 -0.828405 1.66029e-37
9.46374 38.8851 382.067 -0.176051 -0.549415 -0.816792 1.66029e-37
10.1781 40.1389 380.991 -0.173179 -0.567304 -0.805093 1.66029e-37
10.8293 41.3803 379.862 -0.169474 -0.585476 -0.792778 1.66029e-37
11.2887 42.6859 378.711 -0.165003 -0.604667 -0.7792 1.66029e-37
11.4871 44.1269 377.651 -0.159987 -0.625759 -0.763433 1.66029e-37
11.5912 45.4948 376.486 -0.155405 -0.662081 -0.733142 1.66029e-37
11.9952 46.7187 375.229 -0.150494 -0.692636 -0.705413 1.66029e-37
11.7023 48.0937 374.105 -0.147643 -0.720286 -0.677783 1.66029e-37
11.7395 49.3058 372.775 -0.145106 -0.74412 -0.652097 1.66029e-37
12.0068 50.493 371.448 -0.143369 -0.764359 -0.628649 1.66029e-37
12.6978 51.152 369.923 -0.141269 -0.780692 -0.608739 1.66029e-37
12.7025 52.3785 368.605 -0.143018 -0.796264 -0.587801 1.66029e-37
13.2003 53.3252 367.157 -0.144006 -0.809962 -0.568528 1.66029e-37
14.6313 53.6502 366.115 -0.139204 -0.819821 -0.555442 1.66029e-37
15.8119 54.271 364.906 -0.136238 -0.830918 -0.539458 1.66029e-37
17.4714 54.4173 364.225 -0.129438 -0.837808 -0.5304 1.66029e-37
19.1353 54.6822 363.591 -0.131598 -0.839988 -0.526406 1.66029e-37
20.8775 54.2306 363.564 -0.13862 -0.837918 -0.527899 1.66029e-37
22.5555 53.7483 364.002 -0.145642 -0.83223 -0.534959 1.66029e-37
24.0326 52.9669 364.671 -0.154308 -0.82035 -0.550649 1.66029e-37
25.5773 52.3152 365.326 -0.163863 -0.807546 -0.566585 1.66029e-37
26.9671 51.481 366.109 -0.17444 -0.791797 -0.585344 1.66029e-37
28.6123 50.838 366.455 -0.184172 -0.778855 -0.599554 1.66029e-37
30.1725 50.0833 366.941 -0.194943 -0.763439 -0.615758 1.66029e-37
31.7517 49.3101 367.326 -0.207826 -0.747856 -0.630492 1.66029e-37
33.3384 48.539 367.684 -0.22028 -0.732606 -0.644023 1.66029e-37
35.0673 48.0509 367.571 -0.230851 -0.722811 -0.651346 1.66029e-37
36.769 47.4667 367.625 -0.241931 -0.711299 -0.659941 1.66029e-37
38.4234 46.773 367.772 -0.253139 -0.698728 -0.669104 1.66029e-37
40.1413 46.2622 367.605 -0.263214 -0.689768 -0.674491 1.66029e-37
41.8774 45.9736 367.227 -0.27218 -0.683883 -0.676921 1.66029e-37
43.5351 45.2829 367.104 -0.276081 -0.675585 -0.683641 1.66029e-37
45.2407 44.9481 366.637 -0.27357 -0.67271 -0.687474 1.66029e-37
46.0309 43.6872 367.65 -0.27755 -0.656485 -0.701423 1.66029e-37
45.8343 42.4424 368.935 -0.282196 -0.639609 -0.715028 1.66029e-37
46.379 41.0552 369.944 -0.284971 -0.621032 -0.730144 1.66029e-37
47.2311 39.7028 370.772 -0.286705 -0.602669 -0.744708 1.66029e-37
47.6793 38.251 371.737 -0.287841 -0.581437 -0.760972 1.66029e-37
48.8792 37.0572 372.349 -0.288305 -0.564105 -0.773735 1.66029e-37
49.5479 35.5209 373.007 -0.287906 -0.541379 -0.789948 1.66029e-37
50.369 34.052 373.646 -0.286662 -0.517557 -0.806201 1.66029e-37
51.452 32.7366 374.226 -0.286247 -0.498914 -0.818014 1.66029e-37
52.7325 31.4898 374.44 -0.287888 -0.489093 -0.823352 1.66029e-37
54.294 30.5965 374.377 -0.294459 -0.480686 -0.825975 1.66029e-37
55.8754 29.7369 374.39 -0.302443 -0.471955 -0.828122 1.66029e-37
56.977 28.351 374.715 -0.309058 -0.459812 -0.8325 1.66029e-37
58.1659 27.028 374.991 -0.315679 -0.448734 -0.836053 1.66029e-37
59.6215 25.969 374.991 -0.323116 -0.440513 -0.837582 1.66029e-37
61.2034 25.1103 374.983 -0.330856 -0.434089 -0.837915 1.66029e-37
62.0629 23.5659 375.324 -0.335239 -0.424721 -0.840968 1.66029e-37
63.2953 22.2636 375.482 -0.340868 -0.418144 -0.842 1.66029e-37
64.6794 21.1128 375.475 -0.344697 -0.414552 -0.842218 1.66029e-37
65.6113 19.6123 375.821 -0.345598 -0.409893 -0.844127 1.66029e-37
66.8676 18.3291 375.944 -0.348027 -0.407284 -0.844391 1.66029e-37
67.9816 16.9318 376.16 -0.349969 -0.404787 -0.844789 1.66029e-37
68.863 15.4126 376.554 -0.350869 -0.40235 -0.84558 1.66029e-37
70.4802 14.6589 376.316 -0.356232 -0.402785 -0.843127 1.66029e-37
71.8464 13.4941 376.188 -0.360492 -0.402429 -0.841484 1.66029e-37
73.2427 12.3599 376.125 -0.365048 -0.402237 -0.83961 1.66029e-37
74.601 11.1817 376.041 -0.364769 -0.403459 -0.839145 1.66029e-37
75.9614 10.0031 376.024 -0.361063 -0.404947 -0.84003 1.66029e-37
77.5373 9.21 375.667 -0.358127 -0.405709 -0.840919 1.66029e-37
78.2904 7.63545 376.107 -0.356643 -0.402581 -0.843051 1.66029e-37
78.1107 6.05841 376.956 -0.355865 -0.395976 -0.846501 1.66029e-37
77.9013 4.46068 377.758 -0.355043 -0.389598 -0.849799 1.66029e-37
77.8161 2.82099 378.495 -0.354256 -0.383449 -0.852918 1.66029e-37
77.6933 1.23468 379.337 -0.353445 -0.377505 -0.855901 1.66029e-37
77.7987 -0.359759 380.166 -0.352924 -0.371807 -0.858606 1.66029e-37
77.8691 -2.04304 380.799 -0.352564 -0.366302 -0.861116 1.66029e-37
78.2965 -3.72416 381.28 -0.35302 -0.361176 -0.863093 1.66029e-37
78.3794 -5.41006 381.906 -0.352864 -0.356145 -0.865244 1.66029e-37
78.9689 -7.05763 382.327 -0.353755 -0.350676 -0.867113 1.66029e-37
79.5023 -8.72293 382.754 -0.35469 -0.34494 -0.869029 1.66029e-37
79.672 -10.4232 383.32 -0.354883 -0.339065 -0.871259 1.66029e-37
80.083 -12.0699 383.92 -0.355571 -0.333442 -0.873147 1.66029e-37
80.2059 -13.7513 384.551 -0.355573 -0.327968 -0.875217 1.66029e-37
80.1369 -15.4465 385.152 -0.355056 -0.322779 -0.877353 1.66029e-37
80.067 -17.1628 385.69 -0.354399 -0.31789 -0.879402 1.66029e-37
80.1224 -18.8569 386.296 -0.353702 -0.313347 -0.881311 1.66029e-37
79.7725 -20.476 387 -0.351797 -0.309103 -0.883569 1.66029e-37
79.7058 -22.1545 387.647 -0.350228 -0.305317 -0.885507 1.66029e-37
79.6243 -23.829 388.302 -0.348447 -0.302076 -0.887319 1.66029e-37
78.5633 -25.0404 389.106 -0.345077 -0.298712 -0.889771 1.66029e-37
78.3358 -26.7256 389.696 -0.342869 -0.295278 -0.891769 1.66029e-37
77.9642 -28.3448 390.389 -0.340268 -0.291698 -0.893941 1.66029e-37
77.7588 -30.0035 391.058 -0.337718 -0.288192 -0.896042 1.66029e-37
77.3309 -31.5922 391.788 -0.334827 -0.284421 -0.898329 1.66029e-37
76.3533 -32.9143 392.52 -0.331756 -0.280279 -0.900767 1.66029e-37
76.1072 -34.5936 393.119 -0.328928 -0.276483 -0.902975 1.66029e-37
75.5986 -36.2051 393.74 -0.32591 -0.272325 -0.90533 1.66029e-37
74.9231 -37.6723 394.534 -0.323294 -0.269655 -0.907065 1.66029e-37
73.6324 -38.7455 395.184 -0.320977 -0.266562 -0.908801 1.66029e-37
73.1065 -40.3478 395.813 -0.318091 -0.263976 -0.910569 1.66029e-37
72.235 -41.7612 396.508 -0.315218 -0.26084 -0.912469 1.66029e-37
71.4349 -43.1972 397.241 -0.312204 -0.257619 -0.914419 1.66029e-37
70.0473 -44.1165 397.926 -0.310164 -0.253626 -0.916227 1.66029e-37
69.5914 -45.6735 398.706 -0.306789 -0.250587 -0.918198 1.66029e-37
68.4762 -46.9461 399.32 -0.304155 -0.246493 -0.92018 1.66029e-37
67.5531 -48.3483 399.969 -0.301204 -0.242471 -0.922217 1.66029e-37
66.3483 -49.5317 400.592 -0.299616 -0.240366 -0.923284 1.66029e-37
66.1105 -51.2268 401.149 -0.296449 -0.240782 -0.924198 1.66029e-37
