# .PCD v0.7 - Point Cloud Data file format
# 4 173 0
# 1 38 0
# 39 61 0
# 62 137 0
# 138 173 0
VERSION 0.7
FIELDS x y z normal_x normal_y normal_z curvature
SIZE 4 4 4 4 4 4 4
TYPE F F F F F F F
COUNT 1 1 1 1 1 1 1
WIDTH 173
HEIGHT 1
VIEWPOINT 0 0 0 1 0 0 0
POINTS 173
DATA ascii
-30.4258 91.8884 361.227 -0.363103 0.792884 0.489379 7.22021e-37
-31.7704 90.7723 361.658 -0.359622 0.79285 0.491998 7.22021e-37
-33.0459 89.7335 362.389 -0.363013 0.787739 0.497683 7.22021e-37
-34.6522 88.9303 362.268 -0.377195 0.781594 0.496824 7.22021e-37
-36.1269 88.0366 362.785 -0.39659 0.769716 0.500254 7.22021e-37
-37.7643 87.3779 362.431 -0.402471 0.762736 0.506213 7.22021e-37
-39.1398 86.222 362.54 -0.41056 0.753289 0.513806 7.22021e-37
-40.3068 85.0238 363.205 -0.421137 0.742996 0.520193 7.22021e-37
-41.3669 83.7785 363.957 -0.432759 0.732667 0.525279 7.22021e-37
-42.0143 82.919 365.4 -0.442517 0.724537 0.528417 7.22021e-37
-42.991 81.7363 366.342 -0.454854 0.71443 0.531693 7.22021e-37
-43.8694 80.4919 367.301 -0.46769 0.704225 0.534166 7.22021e-37
-44.9786 79.0918 367.079 -0.466237 0.698484 0.542902 7.22021e-37
-45.5564 78.2614 368.568 -0.472509 0.691858 0.545956 7.22021e-37
-46.4817 76.9308 369.351 -0.473982 0.682578 0.556262 7.22021e-37
-47.3194 75.6013 370.229 -0.476553 0.670376 0.568765 7.22021e-37
-48.3048 74.1844 370.741 -0.477943 0.659062 0.580695 7.22021e-37
-49.0658 72.9408 371.796 -0.482863 0.646233 0.590953 7.22021e-37
-49.8175 71.5725 372.692 -0.488443 0.633204 0.600397 7.22021e-37
-50.6037 70.1822 373.522 -0.495348 0.619734 0.608736 7.22021e-37
-51.336 68.7868 374.392 -0.504111 0.605661 0.615668 7.22021e-37
-52.1576 67.3025 374.993 -0.515341 0.590338 0.621228 7.22021e-37
-52.778 65.905 375.943 -0.51942 0.577531 0.62981 7.22021e-37
-53.5252 64.4261 376.646 -0.513293 0.566807 0.644407 7.22021e-37
-54.1939 62.8497 377.201 -0.508723 0.554937 0.658214 7.22021e-37
-54.8867 61.3184 377.846 -0.506651 0.542467 0.6701 7.22021e-37
-55.3779 59.8785 378.808 -0.511527 0.529159 0.677002 7.22021e-37
-55.8633 58.3432 379.612 -0.515368 0.515918 0.684269 7.22021e-37
-56.5909 56.8291 380.259 -0.516422 0.502798 0.693183 7.22021e-37
-57.0554 55.2621 381.013 -0.521996 0.489204 0.698713 7.22021e-37
-57.375 53.717 381.879 -0.52984 0.475748 0.702093 7.22021e-37
-58.0878 52.0904 382.173 -0.533853 0.461375 0.708615 7.22021e-37
-58.4228 50.5606 383.06 -0.54383 0.443788 0.712251 7.22021e-37
-58.7834 48.9562 383.792 -0.55338 0.425443 0.716079 7.22021e-37
-59.1575 47.2883 384.356 -0.562706 0.407169 0.719427 7.22021e-37
-59.3986 45.6806 385.129 -0.571898 0.390298 0.721526 7.22021e-37
-59.6318 44.0287 385.805 -0.580442 0.373869 0.723401 7.22021e-37
-60.0043 43.0002 385.752 -0.585862 0.363359 0.724387 7.22021e-37
-60.0941 41.4871 386.723 -0.592492 0.349734 0.725699 7.22021e-37
-60.3363 39.8244 387.368 -0.599208 0.335249 0.72702 7.22021e-37
-60.6433 38.0774 387.674 -0.60616 0.320985 0.727694 7.22021e-37
-60.5755 36.5852 388.679 -0.60854 0.308657 0.731033 7.22021e-37
-60.7159 34.8785 389.233 -0.612752 0.294393 0.733395 7.22021e-37
-60.8218 33.19 389.848 -0.615762 0.280661 0.736252 7.22021e-37
-61.0626 31.408 389.929 -0.620691 0.266866 0.737242 7.22021e-37
-61.1671 29.6869 390.445 -0.622195 0.253995 0.740513 7.22021e-37
-61.2025 28.013 391.106 -0.621468 0.241746 0.745209 7.22021e-37
-61.0801 26.3344 391.744 -0.618723 0.229722 0.751272 7.22021e-37
-61.0642 24.625 392.308 -0.6156 0.217677 0.757399 7.22021e-37
-61.0398 22.8944 392.802 -0.611444 0.205922 0.764024 7.22021e-37
-60.9166 21.1972 393.389 -0.605325 0.194484 0.771853 7.22021e-37
-60.6502 19.5393 394.037 -0.59752 0.182116 0.780899 7.22021e-37
-60.4977 17.8171 394.538 -0.589855 0.169541 0.78951 7.22021e-37
-60.1567 16.1761 395.195 -0.580952 0.155559 0.798934 7.22021e-37
-60.0519 14.4172 395.562 -0.572805 0.14226 0.807252 7.22021e-37
-59.875 12.6493 395.851 -0.564258 0.128417 0.81555 7.22021e-37
-59.4833 10.9999 396.456 -0.555993 0.112562 0.82353 7.22021e-37
-59.1057 9.3138 396.96 -0.548651 0.0965604 0.830456 7.22021e-37
-58.9273 7.53533 397.173 -0.541323 0.0852932 0.836478 7.22021e-37
-58.5197 5.86494 397.706 -0.535491 0.0726157 0.841413 7.22021e-37
-58.2731 4.08518 397.814 -0.527687 0.0607646 0.847263 7.22021e-37
-57.7999 2.406 398.257 -0.522332 0.0461433 0.851493 7.22021e-37
-57.1158 0.869631 398.899 -0.520552 0.0296844 0.853314 7.22021e-37
-56.9247 -0.920094 398.879 -0.511795 0.0156673 0.858965 7.22021e-37
-56.2756 -2.52116 399.385 -0.510399 -0.00229702 0.859934 7.22021e-37
-55.8042 -4.25567 399.481 -0.505383 -0.0197746 0.862669 7.22021e-37
-55.2834 -5.95635 399.757 -0.502687 -0.0369401 0.863679 7.22021e-37
-54.4613 -7.44734 400.341 -0.507184 -0.053229 0.860193 7.22021e-37
-53.8478 -9.11698 400.617 -0.507142 -0.0676204 0.859205 7.22021e-37
-53.3433 -10.8439 400.672 -0.50398 -0.0802144 0.859982 7.22021e-37
-52.7409 -12.5391 400.732 -0.501606 -0.0923685 0.860151 7.22021e-37
-51.8537 -14.0066 401.279 -0.505709 -0.106351 0.856124 7.22021e-37
-51.2494 -15.7021 401.279 -0.498206 -0.117685 0.859035 7.22021e-37
-50.5108 -17.3376 401.419 -0.485448 -0.129284 0.864654 7.22021e-37
-49.4867 -18.7365 401.903 -0.475323 -0.142253 0.868235 7.22021e-37
-47.9132 -18.6628 402.774 -0.472678 -0.148594 0.868617 7.22021e-37
-46.3386 -18.5574 403.64 -0.469954 -0.149851 0.869878 7.22021e-37
-44.8819 -18.4382 404.691 -0.465118 -0.146826 0.872988 7.22021e-37
-43.2507 -18.65 405.422 -0.430453 -0.143781 0.891088 7.22021e-37
-41.5882 -18.4314 406.076 -0.394991 -0.136489 0.908489 7.22021e-37
-40.1001 -18.4193 407.089 -0.360881 -0.129179 0.923622 7.22021e-37
-38.3482 -18.1774 407.424 -0.327024 -0.11908 0.937483 7.22021e-37
-36.6813 -17.8936 408.041 -0.299928 -0.108331 0.947791 7.22021e-37
-34.9619 -17.8734 408.573 -0.274308 -0.103168 0.956092 7.22021e-37
-33.2148 -18.0894 408.949 -0.247135 -0.103429 0.963445 7.22021e-37
-31.5443 -17.5833 409.388 -0.220302 -0.10235 0.970047 7.22021e-37
-29.7843 -17.6539 409.759 -0.199454 -0.109557 0.973763 7.22021e-37
-28.108 -17.1325 410.157 -0.194987 -0.11257 0.974324 7.22021e-37
-26.368 -16.9721 410.589 -0.188946 -0.11621 0.975087 7.22021e-37
-24.5973 -16.8564 410.891 -0.183016 -0.118217 0.975976 7.22021e-37
-22.8597 -16.6984 411.333 -0.17682 -0.117563 0.977197 7.22021e-37
-21.101 -16.6257 411.71 -0.159837 -0.114006 0.980538 7.22021e-37
-19.416 -16.0479 411.968 -0.141494 -0.103101 0.984556 7.22021e-37
-17.667 -16.4267 412.162 -0.125998 -0.0979865 0.987179 7.22021e-37
-15.8904 -16.7153 412.145 -0.111002 -0.0893093 0.989799 7.22021e-37
-14.1104 -16.897 412.341 -0.0989653 -0.0762456 0.992166 7.22021e-37
-12.3215 -16.7893 412.509 -0.0869528 -0.0561645 0.994628 7.22021e-37
-10.8329 -15.7967 412.707 -0.0658113 -0.0278673 0.997443 7.22021e-37
-10.3108 -14.084 412.891 -0.0378853 -0.00673977 0.999259 7.22021e-37
-9.68919 -12.3971 412.802 -0.00893 0.0146419 0.999853 7.22021e-37
-9.41837 -10.6189 412.872 0.0169167 0.031366 0.999365 7.22021e-37
-8.35613 -9.16845 412.959 0.0561009 0.0537036 0.99698 7.22021e-37
-8.19074 -7.40661 412.63 0.0766474 0.0678168 0.994749 7.22021e-37
-7.53508 -5.73199 412.554 0.101689 0.0848788 0.991189 7.22021e-37
-6.88488 -4.06282 412.378 0.122119 0.101478 0.987314 7.22021e-37
-6.53 -2.32591 412.066 0.136041 0.117691 0.983688 7.22021e-37
-5.90796 -0.690155 411.645 0.151344 0.135327 0.979174 7.22021e-37
-5.54868 1.05414 411.383 0.162775 0.146965 0.975657 7.22021e-37
-5.11774 2.77543 411.081 0.17244 0.156445 0.972517 7.22021e-37
-4.68437 4.4748 410.675 0.179057 0.164015 0.970071 7.22021e-37
-4.22817 6.09562 410.039 0.18254 0.169298 0.968513 7.22021e-37
-4.17676 7.86335 409.704 0.177988 0.174349 0.968464 7.22021e-37
-4.12776 9.65595 409.548 0.16979 0.178902 0.969106 7.22021e-37
-3.66798 11.3049 408.992 0.160074 0.17903 0.970734 7.22021e-37
-3.45404 13.0446 408.583 0.143869 0.17944 0.973192 7.22021e-37
-3.51855 14.835 408.409 0.126521 0.191755 0.973254 7.22021e-37
-3.28442 16.602 408.158 0.110097 0.201563 0.973268 7.22021e-37
-2.97688 18.3362 407.786 0.09418 0.211082 0.972921 7.22021e-37
-2.93377 20.094 407.401 0.0813298 0.222921 0.971438 7.22021e-37
-2.92786 21.8478 406.996 0.0706984 0.234884 0.969449 7.22021e-37
-2.63805 23.5304 406.426 0.058892 0.245269 0.967665 7.22021e-37
-2.84653 25.2774 406.046 0.0541359 0.257764 0.96469 7.22021e-37
-2.77821 26.9953 405.513 0.047827 0.269047 0.961939 7.22021e-37
-2.77426 28.7094 404.963 0.0438301 0.280824 0.958758 7.22021e-37
-2.30407 30.3485 404.387 0.0358814 0.292138 0.955703 7.22021e-37
-2.50529 32.0677 403.893 0.0377207 0.304439 0.951785 7.22021e-37
-2.33574 33.7399 403.249 0.0368042 0.316746 0.947796 7.22021e-37
-2.32523 35.4669 402.742 0.0396864 0.328972 0.943505 7.22021e-37
-2.25779 37.1593 402.132 0.0437268 0.341259 0.938952 7.22021e-37
-2.04127 38.7958 401.415 0.0480066 0.354028 0.934002 7.22021e-37
-2.34558 40.5087 400.953 0.0593991 0.364169 0.929437 7.22021e-37
-2.38754 42.2043 400.35 0.0698069 0.375275 0.924281 7.22021e-37
-2.00739 43.8117 399.635 0.0776772 0.386144 0.919162 7.22021e-37
-2.22096 45.4702 398.969 0.0905897 0.393146 0.915003 7.22021e-37
-2.45941 47.1298 398.314 0.103176 0.399952 0.91071 7.22021e-37
-2.59096 48.7758 397.597 0.114772 0.407468 0.905979 7.22021e-37
-2.98878 50.3813 396.887 0.126398 0.413354 0.901755 7.22021e-37
-2.95178 51.9771 396.055 0.136545 0.421896 0.896303 7.22021e-37
-2.90119 53.6105 395.301 0.146723 0.430406 0.890631 7.22021e-37
-2.88067 55.2255 394.506 0.156841 0.438748 0.884817 7.22021e-37
-2.99062 56.7452 393.548 0.166365 0.444882 0.880001 7.22021e-37
-3.52594 58.3654 392.975 0.170489 0.446384 0.87845 7.22021e-37
-3.53442 59.9423 392.107 0.174572 0.450871 0.875351 7.22021e-37
-3.835 61.6147 391.513 0.173064 0.456013 0.872984 7.22021e-37
-4.06407 63.2394 390.773 0.169262 0.462484 0.870321 7.22021e-37
-4.10077 64.7486 389.792 0.165036 0.469321 0.867468 7.22021e-37
-4.13702 66.3254 388.925 0.158142 0.476822 0.864657 7.22021e-37
-4.61814 67.8907 388.178 0.144498 0.487135 0.86129 7.22021e-37
-4.99722 69.4849 387.433 0.12994 0.499687 0.856404 7.22021e-37
-5.28088 70.9688 386.454 0.11541 0.518347 0.847347 7.22021e-37
-5.81572 72.4355 385.558 0.0976229 0.539037 0.836606 7.22021e-37
-6.40424 73.906 384.703 0.0789233 0.560584 0.824328 7.22021e-37
-6.96767 75.3158 383.736 0.0603599 0.58241 0.810651 7.22021e-37
-7.68267 76.6801 382.805 0.0410226 0.604692 0.795402 7.22021e-37
-8.4855 77.9793 381.852 0.0215009 0.626719 0.778949 7.22021e-37
-9.60983 79.0827 380.981 -0.00458405 0.647355 0.762175 7.22021e-37
-10.3753 80.2749 379.871 -0.029173 0.667695 0.743863 7.22021e-37
-11.2196 81.2613 378.625 -0.0543476 0.683638 0.727795 7.22021e-37
-12.6927 82.0717 377.982 -0.0871594 0.689814 0.718721 7.22021e-37
-13.5831 83.1537 376.852 -0.111816 0.692342 0.712853 7.22021e-37
-14.7662 83.9669 375.766 -0.137629 0.695624 0.705099 7.22021e-37
-15.9871 84.7775 374.721 -0.15439 0.698978 0.698279 7.22021e-37
-17.2552 85.5287 373.688 -0.15653 0.703229 0.693518 7.22021e-37
-18.1975 86.5018 372.502 -0.160262 0.707153 0.688659 7.22021e-37
-19.7163 87.0191 371.686 -0.160375 0.713353 0.682208 7.22021e-37
-21.1065 87.5826 370.691 -0.162244 0.720642 0.674056 7.22021e-37
-22.1231 88.7898 369.826 -0.168752 0.728625 0.663798 7.22021e-37
-23.2013 89.177 368.437 -0.201219 0.73727 0.644937 7.22021e-37
-24.3822 89.7842 367.222 -0.236279 0.746885 0.621558 7.22021e-37
-25.9075 90.0063 366.293 -0.270812 0.756591 0.595173 7.22021e-37
-26.6824 90.5638 364.767 -0.301621 0.765479 0.56839 7.22021e-37
-28.1512 90.9471 363.799 -0.332123 0.774348 0.538591 7.22021e-37
-29.4912 91.3302 362.66 -0.352468 0.783823 0.51126 7.22021e-37
