# .PCD v0.7 - Point Cloud Data file format
# 4 67 0
# 1 4 0
# 5 32 0
# 33 47 0
# 48 67 0
VERSION 0.7
FIELDS x y z normal_x normal_y normal_z curvature
SIZE 4 4 4 4 4 4 4
TYPE F F F F F F F
COUNT 1 1 1 1 1 1 1
WIDTH 67
HEIGHT 1
VIEWPOINT 0 0 0 1 0 0 0
POINTS 67
DATA ascii
14.9004 49.8647 326.187 -0.0818091 -0.484821 -0.870779 3.22578e-37
14.9032 48.2575 326.998 -0.00226695 -0.47468 -0.880156 3.22578e-37
14.7796 46.7171 327.921 0.0396777 -0.48185 -0.875355 3.22578e-37
14.7423 45.227 328.93 0.0681071 -0.496945 -0.865105 3.22578e-37
14.4516 43.6565 329.76 0.0597784 -0.50072 -0.863543 3.22578e-37
14.0335 42.057 330.472 0.0230988 -0.514191 -0.857364 3.22578e-37
13.3084 40.6723 331.364 -0.0684015 -0.532965 -0.843368 3.22578e-37
12.3931 39.4421 332.307 -0.135089 -0.546778 -0.826308 3.22578e-37
11.7868 38.0824 333.319 -0.157295 -0.561705 -0.812247 3.22578e-37
11.3933 36.6695 334.362 -0.165918 -0.57647 -0.800096 3.22578e-37
11.2461 35.2457 335.454 -0.159128 -0.591087 -0.790756 3.22578e-37
10.8602 33.8888 336.572 -0.158791 -0.596516 -0.786737 3.22578e-37
10.7355 32.569 337.789 -0.145687 -0.604977 -0.782801 3.22578e-37
10.0475 31.2395 338.789 -0.164045 -0.6076 -0.777118 3.22578e-37
10.0926 29.8613 339.946 -0.152811 -0.620627 -0.769071 3.22578e-37
9.47937 28.5835 341.055 -0.183335 -0.628991 -0.755486 3.22578e-37
9.4987 27.2219 342.232 -0.178969 -0.64344 -0.744282 3.22578e-37
9.43498 25.9333 343.488 -0.179081 -0.654255 -0.734765 3.22578e-37
9.65883 24.6806 344.761 -0.168008 -0.659013 -0.733127 3.22578e-37
9.01919 23.3566 345.799 -0.193445 -0.65972 -0.726188 3.22578e-37
8.97032 22.0085 346.991 -0.192721 -0.666228 -0.720416 3.22578e-37
9.05439 20.9572 347.983 -0.181054 -0.686956 -0.703783 3.22578e-37
8.99605 19.7064 349.276 -0.184984 -0.70398 -0.685707 3.22578e-37
8.8754 18.5193 350.624 -0.193996 -0.714343 -0.672369 3.22578e-37
7.96537 17.532 351.823 -0.240652 -0.71022 -0.66157 3.22578e-37
6.42976 18.4621 351.693 -0.328052 -0.682424 -0.653207 3.22578e-37
5.24444 19.6383 351.021 -0.37627 -0.66387 -0.646295 3.22578e-37
3.74166 20.6281 350.975 -0.428414 -0.644137 -0.633679 3.22578e-37
2.36162 21.7792 350.873 -0.454928 -0.630183 -0.629214 3.22578e-37
1.14295 23.0363 350.455 -0.46613 -0.62352 -0.627651 3.22578e-37
-0.0756759 24.3419 350.232 -0.47151 -0.619726 -0.627391 3.22578e-37
-0.686339 25.6995 349.22 -0.462572 -0.622578 -0.631208 3.22578e-37
-1.77264 26.9756 348.563 -0.444225 -0.630323 -0.636677 3.22578e-37
-2.57413 28.3548 347.729 -0.437278 -0.628871 -0.642892 3.22578e-37
-3.2557 29.7566 346.829 -0.441054 -0.610878 -0.657495 3.22578e-37
-4.13585 31.2148 346.246 -0.453757 -0.591072 -0.666888 3.22578e-37
-4.78772 32.6853 345.438 -0.46696 -0.570557 -0.675583 3.22578e-37
-5.17493 34.1275 344.433 -0.474334 -0.557925 -0.680975 3.22578e-37
-5.68615 35.635 343.593 -0.481261 -0.545834 -0.685896 3.22578e-37
-5.98166 37.125 342.627 -0.484347 -0.535149 -0.692115 3.22578e-37
-6.7875 38.6323 342.063 -0.492772 -0.527792 -0.691818 3.22578e-37
-7.29573 40.1813 341.3 -0.499493 -0.521413 -0.691834 3.22578e-37
-7.59734 41.6772 340.345 -0.504954 -0.515352 -0.692412 3.22578e-37
-7.66399 43.1438 339.304 -0.508055 -0.508645 -0.695097 3.22578e-37
-8.05752 44.6898 338.47 -0.51551 -0.498134 -0.697217 3.22578e-37
-8.92143 46.2033 338.019 -0.5268 -0.488132 -0.695851 3.22578e-37
-9.55785 47.8495 337.666 -0.53143 -0.482391 -0.696334 3.22578e-37
-9.89463 49.3648 336.755 -0.528321 -0.480434 -0.700043 3.22578e-37
-10.0763 50.8779 335.797 -0.524817 -0.477739 -0.704509 3.22578e-37
-10.1033 52.3598 334.775 -0.522084 -0.47366 -0.709278 3.22578e-37
-9.78499 53.7109 333.629 -0.51898 -0.463531 -0.718191 3.22578e-37
-10.0412 55.2817 332.789 -0.517974 -0.455914 -0.723772 3.22578e-37
-10.0319 56.8037 331.828 -0.51779 -0.449906 -0.727653 3.22578e-37
-8.48763 56.165 331.159 -0.503847 -0.451076 -0.73666 3.22578e-37
-6.92441 55.8183 330.337 -0.475412 -0.448087 -0.757101 3.22578e-37
-5.482 54.7898 330.018 -0.454578 -0.446167 -0.770905 3.22578e-37
-3.8664 54.2046 329.482 -0.429626 -0.439773 -0.788683 3.22578e-37
-2.29858 53.3851 329.15 -0.40124 -0.437511 -0.80473 3.22578e-37
-0.713486 52.6217 328.769 -0.363555 -0.439306 -0.821486 3.22578e-37
0.979803 52.2849 328.26 -0.315428 -0.440345 -0.840596 3.22578e-37
2.68089 51.7816 327.955 -0.282884 -0.439024 -0.85278 3.22578e-37
4.41838 51.496 327.581 -0.263548 -0.439398 -0.858762 3.22578e-37
6.11508 50.9736 327.284 -0.243491 -0.444123 -0.862245 3.22578e-37
7.85791 50.6594 326.962 -0.227576 -0.441957 -0.867688 3.22578e-37
9.58187 50.1756 326.778 -0.201263 -0.428822 -0.880684 3.22578e-37
11.3428 50.3 326.426 -0.149696 -0.42315 -0.893608 3.22578e-37
13.1334 50.1965 326.275 -0.100031 -0.43366 -0.895507 3.22578e-37
