# .PCD v0.7 - Point Cloud Data file format
# 6 93 0
# 1 4 0
# 5 15 0
# 16 38 0
# 39 58 0
# 59 73 0
# 74 93 0
VERSION 0.7
FIELDS x y z normal_x normal_y normal_z curvature
SIZE 4 4 4 4 4 4 4
TYPE F F F F F F F
COUNT 1 1 1 1 1 1 1
WIDTH 93
HEIGHT 1
VIEWPOINT 0 0 0 1 0 0 0
POINTS 93
DATA ascii
55.8845 -13.4979 406.838 0.574628 0.224612 0.786989 1.66029e-37
56.0163 -11.8024 406.249 0.580033 0.254398 0.77385 1.66029e-37
56.1987 -10.2671 405.327 0.582514 0.283965 0.761604 1.66029e-37
56.0933 -8.55657 404.776 0.580508 0.315044 0.750838 1.66029e-37
55.9936 -6.87848 404.133 0.575382 0.347287 0.740492 1.66029e-37
55.7866 -5.18628 403.555 0.567081 0.38091 0.730292 1.66029e-37
55.3817 -3.49763 403.082 0.556266 0.415914 0.719433 1.66029e-37
54.9974 -1.86283 402.434 0.543387 0.451443 0.707764 1.66029e-37
54.4613 -0.252079 401.835 0.530638 0.466214 0.707861 1.66029e-37
53.758 1.28916 401.227 0.519849 0.474147 0.710593 1.66029e-37
53.0152 2.81828 400.635 0.510465 0.481248 0.712619 1.66029e-37
52.2101 4.34807 400.134 0.502458 0.488067 0.713671 1.66029e-37
51.1378 5.79377 400.129 0.497996 0.496148 0.711222 1.66029e-37
50.0884 7.21908 399.801 0.492506 0.503615 0.709796 1.66029e-37
48.8813 8.54999 399.908 0.489583 0.512505 0.705441 1.66029e-37
47.6558 9.81486 399.536 0.484355 0.521762 0.702257 1.66029e-37
46.3302 11.0325 399.537 0.47233 0.53579 0.699881 1.66029e-37
44.9075 12.1352 399.547 0.443197 0.555728 0.70338 1.66029e-37
43.4498 13.191 399.568 0.41468 0.574799 0.70544 1.66029e-37
41.9524 14.1887 399.521 0.387021 0.592755 0.706298 1.66029e-37
40.3788 15.0472 399.685 0.360443 0.60937 0.706222 1.66029e-37
40.0995 15.1089 400.127 0.356482 0.611512 0.706381 1.66029e-37
38.4454 15.8157 400.194 0.331057 0.626047 0.706021 1.66029e-37
36.7756 16.406 400.516 0.306985 0.638298 0.705929 1.66029e-37
35.0705 16.9307 400.755 0.283606 0.648944 0.706002 1.66029e-37
33.3825 17.2604 401.286 0.261003 0.656586 0.707653 1.66029e-37
31.617 17.5316 401.508 0.236006 0.663224 0.710236 1.66029e-37
29.9149 17.6396 402.084 0.210802 0.665946 0.715597 1.66029e-37
28.1568 17.7112 402.463 0.184087 0.666928 0.722024 1.66029e-37
26.3588 17.6885 402.545 0.156643 0.666116 0.729214 1.66029e-37
24.7729 17.3867 403.341 0.127396 0.660715 0.739747 1.66029e-37
23.2412 16.9802 404.195 0.0961704 0.653517 0.750777 1.66029e-37
21.5087 16.6114 404.515 0.0620195 0.645435 0.761293 1.66029e-37
19.8481 16.148 405.032 0.0297756 0.635167 0.771801 1.66029e-37
18.3183 15.4601 405.685 0.0172342 0.62396 0.781266 1.66029e-37
16.7023 14.7983 406.122 0.00540845 0.613008 0.790058 1.66029e-37
15.2542 13.9313 406.747 -0.00826263 0.602765 0.797876 1.66029e-37
13.9297 12.9667 407.493 -0.023139 0.593097 0.804798 1.66029e-37
12.7665 11.9257 408.389 -0.0392376 0.584127 0.810713 1.66029e-37
11.3693 10.8257 408.668 -0.0555157 0.573432 0.81737 1.66029e-37
10.3355 9.55237 409.409 -0.0745425 0.564145 0.822304 1.66029e-37
9.31047 8.23972 410.092 -0.0953712 0.554143 0.82694 1.66029e-37
8.6059 6.88087 411.039 -0.117059 0.545932 0.829612 1.66029e-37
7.76143 5.4889 411.807 -0.14236 0.523582 0.839997 1.66029e-37
7.03392 4.01371 412.538 -0.167141 0.492704 0.853994 1.66029e-37
6.45229 2.49296 413.306 -0.188509 0.462883 0.866143 1.66029e-37
5.81715 0.8941 413.835 -0.207766 0.433661 0.876796 1.66029e-37
5.47249 -0.66861 414.659 -0.220249 0.405924 0.88697 1.66029e-37
5.43262 -2.12633 415.714 -0.22501 0.379605 0.897369 1.66029e-37
4.76662 -3.79583 415.618 -0.234171 0.354989 0.905067 1.66029e-37
4.83342 -5.45243 416.319 -0.232698 0.327064 0.915904 1.66029e-37
5.17563 -7.03478 417.106 -0.224313 0.297442 0.928015 1.66029e-37
5.28703 -8.74901 417.644 -0.215312 0.265655 0.939717 1.66029e-37
5.63476 -10.4143 418.232 -0.202004 0.245773 0.948045 1.66029e-37
5.97618 -12.1302 418.655 -0.188722 0.22781 0.955242 1.66029e-37
6.5871 -13.7362 419.191 -0.174522 0.208107 0.96241 1.66029e-37
7.09102 -15.4386 419.487 -0.16075 0.188166 0.968893 1.66029e-37
7.80736 -17.0549 419.826 -0.146582 0.166529 0.97508 1.66029e-37
8.69605 -18.5872 420.146 -0.132492 0.143423 0.980753 1.66029e-37
9.83609 -19.9227 420.542 -0.119202 0.119056 0.985706 1.66029e-37
10.9632 -21.2969 420.826 -0.105748 0.0931212 0.990023 1.66029e-37
12.277 -22.4943 421.11 -0.0933235 0.0661078 0.993439 1.66029e-37
13.4813 -23.8306 421.17 -0.0796602 0.0365563 0.996152 1.66029e-37
14.9154 -24.9072 421.327 -0.0677733 0.0062241 0.997681 1.66029e-37
16.2991 -26.0578 421.365 -0.0548681 -0.0270021 0.998128 1.66029e-37
17.8926 -26.8509 421.633 -0.0214543 -0.0586731 0.998047 1.66029e-37
19.3873 -27.8522 421.577 0.0120901 -0.0715405 0.997364 1.66029e-37
21.0286 -28.5912 421.569 0.041914 -0.0839799 0.995586 1.66029e-37
22.5478 -29.4751 421.18 0.0700176 -0.0904541 0.993436 1.66029e-37
24.3042 -29.8683 421.164 0.0949809 -0.100113 0.990432 1.66029e-37
25.8709 -30.6484 420.743 0.119802 -0.101814 0.987563 1.66029e-37
27.6669 -30.7353 420.659 0.142439 -0.109193 0.983762 1.66029e-37
29.4519 -30.8831 420.481 0.165704 -0.113303 0.979645 1.66029e-37
31.1578 -31.211 420.009 0.19201 -0.113147 0.974849 1.66029e-37
32.9398 -31.0212 419.84 0.21909 -0.116912 0.968675 1.66029e-37
34.6482 -31.1634 419.292 0.248178 -0.114422 0.961933 1.66029e-37
36.3579 -31.1516 418.729 0.279082 -0.111201 0.953807 1.66029e-37
38.0574 -30.6455 418.419 0.311933 -0.111376 0.943554 1.66029e-37
39.6239 -30.6879 417.534 0.346087 -0.1022 0.932619 1.66029e-37
41.2177 -30.0567 416.985 0.387257 -0.0847362 0.918069 1.66029e-37
42.7741 -29.5344 416.247 0.430865 -0.0611518 0.900342 1.66029e-37
44.2376 -28.5893 415.794 0.454604 -0.0337588 0.890054 1.66029e-37
45.6964 -27.9577 414.95 0.464053 -0.00761521 0.885775 1.66029e-37
46.9432 -26.782 414.399 0.476874 0.0158538 0.878829 1.66029e-37
48.2338 -25.7644 413.665 0.486125 0.0377821 0.873072 1.66029e-37
49.4156 -24.5932 412.978 0.495279 0.0578124 0.866808 1.66029e-37
50.5055 -23.4021 412.182 0.503664 0.0765343 0.860503 1.66029e-37
51.5745 -22.2014 411.373 0.511674 0.0942924 0.85399 1.66029e-37
52.4422 -20.7345 410.794 0.521401 0.110254 0.846159 1.66029e-37
53.267 -19.2561 410.182 0.531255 0.125624 0.837847 1.66029e-37
54.0989 -17.8675 409.395 0.541225 0.140967 0.828978 1.66029e-37
54.8666 -16.5119 408.493 0.552947 0.162767 0.817164 1.66029e-37
55.486 -15.0863 407.585 0.565208 0.194334 0.801732 1.66029e-37
