# .PCD v0.7 - Point Cloud Data file format
# 4 167 0
# 1 15 0
# 16 89 0
# 90 109 0
# 110 167 0
VERSION 0.7
FIELDS x y z normal_x normal_y normal_z curvature
SIZE 4 4 4 4 4 4 4
TYPE F F F F F F F
COUNT 1 1 1 1 1 1 1
WIDTH 167
HEIGHT 1
VIEWPOINT 0 0 0 1 0 0 0
POINTS 167
DATA ascii
-47.001 -18.3837 399.733 0.363448 0.0884916 -0.927402 7.22021e-37
-48.2925 -17.2442 399.21 0.358564 0.0641579 -0.931298 7.22021e-37
-49.667 -16.095 399.036 0.347807 0.0418395 -0.936632 7.22021e-37
-50.1449 -14.3775 398.788 0.361168 0.0335362 -0.931898 7.22021e-37
-51.2026 -12.9343 398.592 0.356982 0.0168852 -0.933959 7.22021e-37
-51.7229 -11.2357 398.302 0.36556 0.00780462 -0.930755 7.22021e-37
-52.4624 -9.61479 398.045 0.360169 -0.00476455 -0.932875 7.22021e-37
-52.9336 -7.90187 397.756 0.363918 -0.0137251 -0.93133 7.22021e-37
-53.7917 -6.3424 397.488 0.351355 -0.0287627 -0.9358 7.22021e-37
-54.2952 -4.63807 397.202 0.354049 -0.0402501 -0.93436 7.22021e-37
-54.1188 -2.85795 397.002 0.382601 -0.0460926 -0.922763 7.22021e-37
-55.2558 -1.51503 396.623 0.356862 -0.0690985 -0.931598 7.22021e-37
-55.6909 0.204071 396.314 0.360853 -0.0830158 -0.928921 7.22021e-37
-56.1822 1.90152 395.972 0.362073 -0.0969176 -0.927097 7.22021e-37
-56.6151 3.60313 395.575 0.364392 -0.109656 -0.924767 7.22021e-37
-56.5893 5.36717 395.218 0.380445 -0.11689 -0.917387 7.22021e-37
-57.3773 6.93389 394.813 0.371216 -0.131685 -0.919161 7.22021e-37
-57.7914 8.64304 394.429 0.374258 -0.142312 -0.916339 7.22021e-37
-57.9032 10.3879 394.001 0.385059 -0.15502 -0.909779 7.22021e-37
-57.758 12.1535 393.682 0.402599 -0.165828 -0.900231 7.22021e-37
-58.387 13.7592 393.166 0.399723 -0.183527 -0.898075 7.22021e-37
-58.6838 15.4709 392.695 0.405618 -0.197874 -0.892368 7.22021e-37
-58.9098 17.1951 392.23 0.412717 -0.210994 -0.886085 7.22021e-37
-59.1599 18.9194 391.778 0.418831 -0.223598 -0.880105 7.22021e-37
-59.3183 20.6448 391.291 0.425497 -0.23506 -0.873898 7.22021e-37
-59.1528 22.3546 390.753 0.436023 -0.244104 -0.866197 7.22021e-37
-58.8563 24.0795 390.332 0.447951 -0.252529 -0.857653 7.22021e-37
-59.3614 25.7067 389.752 0.443454 -0.265289 -0.856137 7.22021e-37
-59.2992 27.4258 389.222 0.446889 -0.275514 -0.851107 7.22021e-37
-59.7121 29.0979 388.699 0.440791 -0.286689 -0.850595 7.22021e-37
-59.288 30.751 388.127 0.445387 -0.296461 -0.844832 7.22021e-37
-59.2522 32.4545 387.546 0.44195 -0.307605 -0.84265 7.22021e-37
-58.9589 34.1285 386.953 0.440671 -0.31921 -0.838996 7.22021e-37
-59.0844 35.8326 386.387 0.430981 -0.331007 -0.839458 7.22021e-37
-59.2353 37.5406 385.84 0.419094 -0.34244 -0.840889 7.22021e-37
-58.8191 39.1695 385.197 0.414387 -0.354111 -0.838385 7.22021e-37
-58.2266 40.7516 384.575 0.411851 -0.367722 -0.833762 7.22021e-37
-58.0496 42.43 383.95 0.399261 -0.381348 -0.833765 7.22021e-37
-57.9899 44.112 383.311 0.381908 -0.395079 -0.835499 7.22021e-37
-57.528 45.6967 382.594 0.371485 -0.411626 -0.832204 7.22021e-37
-57.3636 47.3577 381.92 0.352693 -0.427383 -0.832437 7.22021e-37
-57.0917 48.9991 381.233 0.335152 -0.44441 -0.830767 7.22021e-37
-56.4007 50.4969 380.512 0.330477 -0.46454 -0.821576 7.22021e-37
-55.9839 52.1074 379.825 0.319549 -0.475552 -0.819597 7.22021e-37
-55.6826 53.7618 379.183 0.307271 -0.484116 -0.819278 7.22021e-37
-55.2937 55.3739 378.483 0.299058 -0.492577 -0.817271 7.22021e-37
-54.605 56.8512 377.719 0.304846 -0.502051 -0.809329 7.22021e-37
-54.0994 58.4137 376.982 0.30375 -0.510626 -0.804361 7.22021e-37
-53.3942 59.8786 376.21 0.312553 -0.52025 -0.794765 7.22021e-37
-52.475 61.2619 375.516 0.336091 -0.531415 -0.777587 7.22021e-37
-51.923 62.7865 374.734 0.335733 -0.542386 -0.77013 7.22021e-37
-51.1602 64.2228 373.963 0.347717 -0.556645 -0.754479 7.22021e-37
-50.8293 65.8218 373.205 0.33208 -0.569126 -0.752209 7.22021e-37
-49.8486 67.1213 372.438 0.329335 -0.586606 -0.739886 7.22021e-37
-49.4242 68.6955 371.675 0.312862 -0.598554 -0.737462 7.22021e-37
-48.5583 70.0353 370.841 0.312791 -0.61203 -0.726348 7.22021e-37
-47.6805 71.37 370.012 0.314742 -0.624761 -0.714571 7.22021e-37
-46.8258 72.7327 369.204 0.316241 -0.637312 -0.702727 7.22021e-37
-46.3838 74.3145 368.467 0.304156 -0.648376 -0.697924 7.22021e-37
-46.0482 73.9761 368.427 0.31558 -0.649239 -0.692025 7.22021e-37
-45.0017 75.2157 367.647 0.319696 -0.664127 -0.675818 7.22021e-37
-44.0348 76.5111 366.855 0.317113 -0.671759 -0.669462 7.22021e-37
-43.0698 77.7983 366.048 0.312137 -0.677367 -0.666141 7.22021e-37
-42.2175 79.1527 365.224 0.301372 -0.682535 -0.665824 7.22021e-37
-41.1486 80.3395 364.394 0.298353 -0.688616 -0.660904 7.22021e-37
-40.1055 81.561 363.581 0.296362 -0.694276 -0.655859 7.22021e-37
-38.9831 82.6903 362.742 0.295645 -0.700867 -0.649137 7.22021e-37
-37.9423 83.8925 361.898 0.290869 -0.708286 -0.643215 7.22021e-37
-36.8226 85.0048 361.033 0.283606 -0.718209 -0.635409 7.22021e-37
-35.2017 85.7152 360.704 0.285526 -0.735684 -0.614202 7.22021e-37
-33.5583 86.4444 360.616 0.278934 -0.755151 -0.593248 7.22021e-37
-31.9747 87.2998 360.6 0.277706 -0.771373 -0.572593 7.22021e-37
-30.3969 88.1596 360.494 0.281396 -0.784512 -0.552591 7.22021e-37
-28.7452 88.6526 359.976 0.288966 -0.794649 -0.533884 7.22021e-37
-27.4235 88.1933 361.108 0.303278 -0.793302 -0.527915 7.22021e-37
-26.4955 87.6248 362.542 0.301099 -0.78814 -0.536819 7.22021e-37
-25.321 87.1558 363.823 0.288828 -0.781653 -0.552808 7.22021e-37
-24.2268 86.64 365.155 0.268255 -0.772434 -0.575661 7.22021e-37
-22.7152 86.5385 366.128 0.240226 -0.761601 -0.601876 7.22021e-37
-21.554 85.7969 367.286 0.20936 -0.747673 -0.630201 7.22021e-37
-20.1278 85.4074 368.312 0.199088 -0.732334 -0.651192 7.22021e-37
-19.1037 84.4635 369.453 0.185515 -0.72024 -0.66846 7.22021e-37
-18.1995 83.4825 370.661 0.17269 -0.709906 -0.682797 7.22021e-37
-16.8064 82.8817 371.63 0.164169 -0.698799 -0.696225 7.22021e-37
-15.9524 81.866 372.846 0.151344 -0.690457 -0.707364 7.22021e-37
-14.5027 81.2332 373.705 0.128145 -0.680298 -0.721646 7.22021e-37
-13.2494 80.466 374.745 0.101374 -0.670238 -0.73519 7.22021e-37
-12.3483 79.3547 375.837 0.0740798 -0.661313 -0.746443 7.22021e-37
-10.894 78.7117 376.68 0.0431911 -0.647073 -0.761203 7.22021e-37
-9.7826 77.6609 377.629 0.0111155 -0.626778 -0.779119 7.22021e-37
-9.04744 76.3158 378.573 -0.0172849 -0.601757 -0.798492 7.22021e-37
-7.99333 75.156 379.458 -0.0438142 -0.575098 -0.816911 7.22021e-37
-7.4704 73.6602 380.312 -0.0683765 -0.550706 -0.831894 7.22021e-37
-6.83213 72.2137 381.172 -0.092679 -0.525747 -0.845577 7.22021e-37
-6.17524 70.7494 381.987 -0.116266 -0.50116 -0.857508 7.22021e-37
-5.74713 69.2137 382.823 -0.138382 -0.478936 -0.866874 7.22021e-37
-5.34248 67.6534 383.624 -0.159182 -0.457787 -0.874696 7.22021e-37
-5.117 66.0346 384.378 -0.1778 -0.43923 -0.880605 7.22021e-37
-4.77437 64.3946 385.036 -0.195304 -0.423389 -0.884646 7.22021e-37
-5.04453 62.8201 385.866 -0.207048 -0.413042 -0.886864 7.22021e-37
-4.68166 61.1746 386.499 -0.220245 -0.39887 -0.890165 7.22021e-37
-4.30702 59.5611 387.203 -0.230633 -0.386258 -0.893092 7.22021e-37
-4.47458 57.8695 387.795 -0.236373 -0.376614 -0.895706 7.22021e-37
-4.31752 56.2563 388.578 -0.240469 -0.366872 -0.898654 7.22021e-37
-4.31187 54.5884 389.255 -0.241495 -0.358193 -0.901875 7.22021e-37
-3.939 52.9215 389.823 -0.239659 -0.352519 -0.904596 7.22021e-37
-3.70658 51.2519 390.454 -0.236825 -0.351024 -0.905923 7.22021e-37
-3.60207 49.5961 391.152 -0.235001 -0.348989 -0.907183 7.22021e-37
-3.24908 47.9341 391.746 -0.233524 -0.346741 -0.908426 7.22021e-37
-3.88566 46.3604 392.345 -0.236128 -0.344427 -0.908633 7.22021e-37
-3.65473 44.6485 392.851 -0.237424 -0.34162 -0.909355 7.22021e-37
-3.27245 42.9866 393.427 -0.239979 -0.337996 -0.910038 7.22021e-37
-3.11868 41.3079 394.058 -0.245023 -0.334167 -0.910108 7.22021e-37
-3.69538 39.7454 394.741 -0.251632 -0.332983 -0.908737 7.22021e-37
-3.37646 38.085 395.358 -0.258469 -0.326289 -0.909246 7.22021e-37
-3.11865 36.3729 395.851 -0.264336 -0.319802 -0.909864 7.22021e-37
-3.19422 34.652 396.373 -0.267807 -0.314608 -0.91066 7.22021e-37
-3.86514 33.1198 397.038 -0.267023 -0.310351 -0.912349 7.22021e-37
-3.56796 31.4731 397.701 -0.267641 -0.304922 -0.913997 7.22021e-37
-3.53284 29.7556 398.239 -0.265579 -0.299813 -0.916286 7.22021e-37
-3.64861 28.0381 398.765 -0.261194 -0.294558 -0.919246 7.22021e-37
-3.55935 26.3355 399.342 -0.255331 -0.28982 -0.922394 7.22021e-37
-3.76319 24.6167 399.836 -0.24763 -0.283985 -0.9263 7.22021e-37
-4.43655 23.0388 400.381 -0.242623 -0.276794 -0.929795 7.22021e-37
-4.51445 21.3139 400.89 -0.238664 -0.271375 -0.932414 7.22021e-37
-4.31706 19.6198 401.465 -0.235434 -0.266162 -0.934734 7.22021e-37
-4.29392 17.8993 401.994 -0.234395 -0.260288 -0.936648 7.22021e-37
-4.38223 16.1493 402.405 -0.235536 -0.254193 -0.938034 7.22021e-37
-4.85359 14.5008 402.953 -0.240065 -0.248891 -0.938308 7.22021e-37
-5.29146 12.8359 403.479 -0.245464 -0.244134 -0.938161 7.22021e-37
-4.98324 11.102 403.851 -0.250056 -0.237811 -0.938572 7.22021e-37
-5.32594 9.4502 404.479 -0.255061 -0.235309 -0.937856 7.22021e-37
-5.86123 7.79405 404.938 -0.256378 -0.231886 -0.938349 7.22021e-37
-5.62265 6.07487 405.415 -0.256703 -0.227338 -0.939373 7.22021e-37
-5.62413 4.31143 405.776 -0.254507 -0.222701 -0.941079 7.22021e-37
-5.87224 2.56199 406.119 -0.248198 -0.217281 -0.944027 7.22021e-37
-6.05961 0.868721 406.701 -0.238448 -0.211022 -0.947951 7.22021e-37
-6.49835 -0.776005 407.286 -0.222074 -0.202402 -0.95379 7.22021e-37
-7.49172 -2.2161 407.709 -0.196733 -0.175635 -0.964597 7.22021e-37
-8.42944 -3.71982 408.025 -0.166236 -0.142453 -0.975742 7.22021e-37
-9.18448 -5.31441 408.381 -0.132752 -0.111746 -0.98483 7.22021e-37
-9.74176 -7.01245 408.596 -0.101537 -0.0845019 -0.991236 7.22021e-37
-10.0636 -8.77851 408.728 -0.0785984 -0.0608726 -0.995046 7.22021e-37
-10.5777 -10.5002 408.835 -0.0472765 -0.0397333 -0.998091 7.22021e-37
-11.0161 -12.246 408.843 -0.0200641 -0.0214013 -0.99957 7.22021e-37
-11.737 -13.8943 408.902 -0.00359305 -0.00534805 -0.999979 7.22021e-37
-12.3449 -15.5882 408.87 0.0121155 0.00931709 -0.999883 7.22021e-37
-13.3147 -17.1019 408.961 0.0373306 0.0235789 -0.999025 7.22021e-37
-14.9906 -16.4542 408.851 0.0623744 0.0300687 -0.9976 7.22021e-37
-16.7522 -16.741 408.618 0.090539 0.048268 -0.994723 7.22021e-37
-18.5403 -16.7201 408.412 0.114823 0.0658142 -0.991203 7.22021e-37
-20.3136 -16.4758 408.223 0.136833 0.0766842 -0.987621 7.22021e-37
-22.0873 -16.4048 407.925 0.160218 0.0845366 -0.983455 7.22021e-37
-23.8675 -16.2841 407.688 0.183375 0.0873785 -0.979152 7.22021e-37
-25.5747 -16.7014 407.299 0.197919 0.0905694 -0.976025 7.22021e-37
-27.3214 -16.4129 406.974 0.209429 0.0893363 -0.973734 7.22021e-37
-28.8546 -17.303 406.662 0.220087 0.0963645 -0.970709 7.22021e-37
-30.6063 -17.4199 406.264 0.231565 0.0996407 -0.967703 7.22021e-37
-32.3101 -17.5076 405.69 0.26138 0.105081 -0.959499 7.22021e-37
-34.0132 -17.067 405.309 0.304034 0.109432 -0.946355 7.22021e-37
-35.6763 -17.3447 404.679 0.348888 0.122377 -0.92914 7.22021e-37
-37.2836 -17.3642 403.869 0.390898 0.135718 -0.910373 7.22021e-37
-38.9011 -17.2254 403.092 0.412174 0.148352 -0.898946 7.22021e-37
-40.5542 -16.8314 402.498 0.405112 0.15029 -0.90183 7.22021e-37
-42.1695 -17.185 401.787 0.401496 0.149342 -0.903603 7.22021e-37
-43.8428 -17.4906 401.199 0.397976 0.137264 -0.907069 7.22021e-37
-45.4294 -17.8443 400.425 0.389433 0.11448 -0.913913 7.22021e-37
