# .PCD v0.7 - Point Cloud Data file format
# 3 151 0
# 1 69 0
# 70 147 0
# 148 151 0
VERSION 0.7
FIELDS x y z normal_x normal_y normal_z curvature
SIZE 4 4 4 4 4 4 4
TYPE F F F F F F F
COUNT 1 1 1 1 1 1 1
WIDTH 151
HEIGHT 1
VIEWPOINT 0 0 0 1 0 0 0
POINTS 151
DATA ascii
-4.39599 -65.2023 437.088 -0.362546 0.195797 -0.911166 3.72247e-37
-5.14831 -63.67 437.659 -0.394247 0.160779 -0.904831 3.72247e-37
-5.82394 -62.1042 438.235 -0.40763 0.127829 -0.904156 3.72247e-37
-6.18735 -60.3608 438.497 -0.364054 0.114093 -0.924363 3.72247e-37
-6.99367 -58.9257 439.225 -0.37458 0.0822026 -0.923544 3.72247e-37
-7.05073 -58.0181 439.15 -0.349326 0.0841476 -0.933215 3.72247e-37
-7.61331 -56.3774 439.631 -0.356645 0.0685285 -0.931723 3.72247e-37
-7.86553 -54.5975 439.724 -0.333016 0.0670567 -0.940534 3.72247e-37
-8.55633 -52.9959 440.168 -0.367733 0.0507876 -0.928543 3.72247e-37
-8.89665 -51.2336 440.304 -0.358234 0.0468763 -0.932454 3.72247e-37
-9.4515 -49.5572 440.653 -0.378255 0.0327694 -0.925121 3.72247e-37
-9.52534 -47.7611 440.561 -0.325848 0.0352322 -0.944766 3.72247e-37
-10.0421 -46.0583 440.833 -0.355746 0.0129827 -0.934493 3.72247e-37
-10.6801 -44.4315 441.264 -0.417912 -0.00921649 -0.908441 3.72247e-37
-10.6052 -42.6501 441.018 -0.362008 -0.00952795 -0.932126 3.72247e-37
-10.6335 -40.8523 440.933 -0.329145 -0.0142174 -0.944172 3.72247e-37
-11.269 -39.1974 441.245 -0.393049 -0.0301996 -0.919021 3.72247e-37
-11.7894 -37.4994 441.539 -0.436493 -0.042597 -0.898699 3.72247e-37
-11.8817 -35.7085 441.383 -0.417205 -0.0470981 -0.907591 3.72247e-37
-12.2612 -33.9563 441.544 -0.439221 -0.0565486 -0.896598 3.72247e-37
-12.4736 -32.1696 441.493 -0.436725 -0.0674622 -0.897062 3.72247e-37
-12.4568 -30.3872 441.242 -0.408445 -0.0790629 -0.909352 3.72247e-37
-12.5228 -28.5996 441.042 -0.391121 -0.0916405 -0.915766 3.72247e-37
-12.9703 -26.8667 441.233 -0.422139 -0.107279 -0.900161 3.72247e-37
-13.0538 -25.0903 440.954 -0.406852 -0.118655 -0.905755 3.72247e-37
-12.9858 -23.3219 440.626 -0.380058 -0.128811 -0.91595 3.72247e-37
-13.1692 -21.5372 440.479 -0.381727 -0.140121 -0.913592 3.72247e-37
-13.2415 -19.748 440.296 -0.375432 -0.150232 -0.914594 3.72247e-37
-13.559 -17.9768 440.253 -0.394418 -0.160718 -0.904767 3.72247e-37
-13.6262 -16.2098 439.916 -0.387736 -0.172039 -0.905574 3.72247e-37
-13.706 -14.4394 439.601 -0.386279 -0.18253 -0.904141 3.72247e-37
-13.702 -12.6935 439.163 -0.37872 -0.192699 -0.905228 3.72247e-37
-13.7015 -10.9472 438.727 -0.375313 -0.202436 -0.904522 3.72247e-37
-13.7304 -9.18119 438.38 -0.380681 -0.211131 -0.900281 3.72247e-37
-13.6643 -7.438 437.936 -0.379825 -0.220509 -0.898393 3.72247e-37
-13.4967 -5.7206 437.424 -0.372588 -0.231277 -0.898715 3.72247e-37
-12.9999 -4.14794 436.703 -0.333832 -0.247794 -0.90948 3.72247e-37
-12.9855 -2.39543 436.292 -0.347475 -0.253896 -0.902662 3.72247e-37
-13.1299 -0.629486 435.975 -0.381542 -0.253364 -0.88895 3.72247e-37
-13.0919 1.07737 435.405 -0.395945 -0.257305 -0.881488 3.72247e-37
-13.1578 2.81039 434.923 -0.425572 -0.257447 -0.867531 3.72247e-37
-12.6196 4.29754 434.063 -0.3904 -0.277093 -0.877956 3.72247e-37
-12.5417 6.02326 433.557 -0.41377 -0.281325 -0.865824 3.72247e-37
-12.5485 7.75979 433.084 -0.449442 -0.28152 -0.84779 3.72247e-37
-11.8936 9.13782 432.129 -0.400444 -0.310788 -0.862006 3.72247e-37
-11.9204 10.8649 431.622 -0.443601 -0.310464 -0.840732 3.72247e-37
-11.9752 12.597 431.136 -0.491041 -0.302179 -0.817048 3.72247e-37
-11.2759 13.88 430.085 -0.426868 -0.333522 -0.840563 3.72247e-37
-11.2963 15.5975 429.546 -0.470518 -0.325979 -0.81997 3.72247e-37
-10.4888 16.7554 428.429 -0.373349 -0.365023 -0.852859 3.72247e-37
-10.6571 18.4938 427.994 -0.44744 -0.348465 -0.823632 3.72247e-37
-10.4294 20.1018 427.218 -0.454464 -0.353872 -0.817458 3.72247e-37
-10.1028 21.6444 426.349 -0.445458 -0.365846 -0.817144 3.72247e-37
-9.66242 23.0544 425.321 -0.409277 -0.389122 -0.825274 3.72247e-37
-9.11762 24.494 424.388 -0.369534 -0.415756 -0.831019 3.72247e-37
-8.91396 26.1053 423.612 -0.404941 -0.414794 -0.814843 3.72247e-37
-8.61163 27.6604 422.757 -0.423271 -0.418901 -0.803345 3.72247e-37
-7.93657 28.8829 421.621 -0.384268 -0.445188 -0.808793 3.72247e-37
-7.40507 30.2132 420.532 -0.363494 -0.461699 -0.809139 3.72247e-37
-7.06241 31.7239 419.615 -0.370033 -0.466998 -0.803112 3.72247e-37
-6.50357 33.056 418.541 -0.352037 -0.482809 -0.801851 3.72247e-37
-6.04304 34.4648 417.52 -0.350907 -0.493499 -0.795816 3.72247e-37
-5.32031 35.6157 416.339 -0.327284 -0.517256 -0.790779 3.72247e-37
-5.06568 37.1457 415.426 -0.360538 -0.515558 -0.777311 3.72247e-37
-4.51446 38.455 414.321 -0.365416 -0.519916 -0.772113 3.72247e-37
-3.98636 39.7968 413.243 -0.369475 -0.522471 -0.768448 3.72247e-37
-3.48312 41.1502 412.169 -0.374602 -0.523992 -0.764922 3.72247e-37
-2.80957 42.3125 410.97 -0.365213 -0.534255 -0.762359 3.72247e-37
-2.02907 43.3392 409.715 -0.353474 -0.549474 -0.757056 3.72247e-37
-1.50304 44.6477 408.596 -0.371404 -0.552737 -0.746017 3.72247e-37
-0.813306 45.7369 407.34 -0.378918 -0.566087 -0.732097 3.72247e-37
-0.0832621 46.7908 406.077 -0.37932 -0.583444 -0.718129 3.72247e-37
0.541325 47.9359 404.836 -0.386806 -0.597311 -0.702568 3.72247e-37
1.31628 48.8654 403.504 -0.376577 -0.621633 -0.68685 3.72247e-37
2.54168 47.597 403.864 -0.265077 -0.66804 -0.695311 3.72247e-37
3.4223 46.3501 404.817 -0.19862 -0.684761 -0.701179 3.72247e-37
4.52228 45.1264 405.547 -0.162682 -0.693177 -0.702168 3.72247e-37
4.94358 43.9007 406.796 -0.147368 -0.688825 -0.709791 3.72247e-37
5.82905 42.6624 407.757 -0.144415 -0.684366 -0.714694 3.72247e-37
6.89697 41.5819 408.722 -0.156145 -0.67622 -0.719962 3.72247e-37
7.472 40.2495 409.787 -0.169806 -0.664939 -0.727339 3.72247e-37
8.22331 38.9444 410.773 -0.191958 -0.651293 -0.734146 3.72247e-37
8.41272 37.5476 411.893 -0.20238 -0.638024 -0.742945 3.72247e-37
9.54219 36.3856 412.676 -0.21902 -0.622486 -0.75136 3.72247e-37
10.0289 34.9384 413.629 -0.23028 -0.606969 -0.760631 3.72247e-37
10.6232 33.5135 414.555 -0.242185 -0.591419 -0.769136 3.72247e-37
11.4108 32.0774 415.301 -0.255492 -0.576023 -0.77648 3.72247e-37
12.187 30.642 416.061 -0.267661 -0.561323 -0.783118 3.72247e-37
12.9854 29.2114 416.807 -0.278558 -0.547733 -0.788919 3.72247e-37
14.1515 27.9628 417.374 -0.272926 -0.538272 -0.797355 3.72247e-37
14.3976 26.4345 418.292 -0.273044 -0.527304 -0.80461 3.72247e-37
15.1227 24.9244 418.951 -0.266406 -0.517806 -0.81296 3.72247e-37
15.8545 23.436 419.65 -0.263057 -0.508035 -0.820183 3.72247e-37
16.6287 22.0015 420.414 -0.2638 -0.496468 -0.827 3.72247e-37
17.146 20.4156 421.09 -0.270482 -0.480941 -0.833988 3.72247e-37
17.7829 18.8596 421.733 -0.28154 -0.464071 -0.839865 3.72247e-37
18.083 17.2818 422.546 -0.294851 -0.448089 -0.843966 3.72247e-37
19.0364 15.7999 422.912 -0.294982 -0.43006 -0.853249 3.72247e-37
19.822 14.2825 423.479 -0.291283 -0.412723 -0.863026 3.72247e-37
20.2856 12.6563 424.096 -0.298623 -0.396496 -0.86811 3.72247e-37
20.9132 11.0393 424.577 -0.303287 -0.379751 -0.87396 3.72247e-37
20.6322 9.41701 425.304 -0.322956 -0.36888 -0.871566 3.72247e-37
21.2043 7.76181 425.72 -0.328434 -0.351909 -0.876522 3.72247e-37
21.3196 6.0728 426.331 -0.340982 -0.337085 -0.877556 3.72247e-37
21.8389 4.41344 426.797 -0.348882 -0.320628 -0.880613 3.72247e-37
21.7189 2.74996 427.474 -0.3628 -0.308198 -0.879426 3.72247e-37
22.3577 1.09245 427.765 -0.370809 -0.291697 -0.881711 3.72247e-37
22.4422 -0.630399 428.28 -0.383326 -0.278341 -0.880675 3.72247e-37
22.4159 -2.34163 428.837 -0.395652 -0.266163 -0.878986 3.72247e-37
22.8908 -4.04477 429.175 -0.408406 -0.250765 -0.87768 3.72247e-37
23.0794 -5.79529 429.549 -0.422287 -0.236773 -0.874993 3.72247e-37
22.6655 -7.4413 430.149 -0.4299 -0.226842 -0.873915 3.72247e-37
22.524 -9.16795 430.637 -0.436502 -0.213924 -0.873901 3.72247e-37
22.4083 -10.9057 431.092 -0.440588 -0.200571 -0.875016 3.72247e-37
22.7063 -12.6651 431.328 -0.44837 -0.185914 -0.8743 3.72247e-37
22.8853 -14.4344 431.606 -0.452043 -0.172437 -0.87517 3.72247e-37
22.9881 -16.2064 431.905 -0.451467 -0.159815 -0.877859 3.72247e-37
23.0065 -17.9814 432.204 -0.446225 -0.147649 -0.882657 3.72247e-37
23.0686 -19.7615 432.463 -0.437663 -0.136184 -0.888766 3.72247e-37
22.8778 -21.5186 432.804 -0.42259 -0.128552 -0.897158 3.72247e-37
22.6719 -23.275 433.14 -0.404233 -0.122334 -0.906438 3.72247e-37
22.4819 -25.0394 433.441 -0.382849 -0.115802 -0.916524 3.72247e-37
22.2868 -26.8072 433.718 -0.358422 -0.108784 -0.9272 3.72247e-37
21.9748 -28.5538 434.022 -0.332919 -0.0990865 -0.937735 3.72247e-37
21.7622 -30.3246 434.265 -0.304197 -0.0907113 -0.94828 3.72247e-37
20.9045 -31.8569 434.66 -0.296345 -0.0684869 -0.952622 3.72247e-37
20.574 -33.603 434.946 -0.275537 -0.055412 -0.959692 3.72247e-37
19.3784 -34.8942 435.325 -0.306296 -0.0374803 -0.951198 3.72247e-37
18.8006 -36.5888 435.511 -0.314489 -0.0453666 -0.948176 3.72247e-37
17.9359 -38.14 435.804 -0.345184 -0.048332 -0.93729 3.72247e-37
17.2805 -39.7995 436.042 -0.30608 -0.0587692 -0.95019 3.72247e-37
16.9956 -41.0113 437.342 -0.264968 -0.0638429 -0.962141 3.72247e-37
16.734 -42.46 438.378 -0.221988 -0.0708512 -0.972472 3.72247e-37
15.9778 -44.0879 438.512 -0.156378 -0.0722202 -0.985053 3.72247e-37
14.4741 -44.776 437.801 -0.0729941 -0.0430858 -0.996401 3.72247e-37
13.0244 -45.7415 437.348 -0.0377977 -0.0017688 -0.999284 3.72247e-37
12.6302 -47.4967 437.283 -0.00654645 0.00824057 -0.999945 3.72247e-37
11.1539 -48.5264 437.29 -0.0936667 0.0558155 -0.994038 3.72247e-37
10.6197 -50.2374 437.125 -0.0878849 0.0693137 -0.993716 3.72247e-37
10.7829 -52.025 436.991 -0.0230059 0.0556397 -0.998186 3.72247e-37
9.81812 -53.5445 437.007 -0.0741522 0.0736236 -0.994526 3.72247e-37
8.86497 -55.0592 437.199 -0.125135 0.0911177 -0.987947 3.72247e-37
7.29879 -55.9459 437.169 -0.147415 0.120866 -0.981662 3.72247e-37
6.29888 -57.4426 437.172 -0.130461 0.137699 -0.981845 3.72247e-37
5.04203 -58.7294 437.104 -0.122137 0.160254 -0.97949 3.72247e-37
3.38049 -59.4215 437.118 -0.125958 0.189504 -0.973767 3.72247e-37
2.71125 -61.0735 436.867 -0.0894278 0.206474 -0.974357 3.72247e-37
1.8883 -62.6744 436.858 -0.0591503 0.225887 -0.972356 3.72247e-37
0.120525 -62.9596 436.675 -0.0619672 0.244903 -0.967565 3.72247e-37
-1.18484 -64.1795 436.456 -0.0836907 0.254 -0.963577 3.72247e-37
-2.73228 -65.0978 436.409 -0.189414 0.243918 -0.951119 3.72247e-37
