# .PCD v0.7 - Point Cloud Data file format
# 5 152 0
# 1 29 0
# 30 91 0
# 92 116 0
# 117 149 0
# 150 152 0
VERSION 0.7
FIELDS x y z normal_x normal_y normal_z curvature
SIZE 4 4 4 4 4 4 4
TYPE F F F F F F F
COUNT 1 1 1 1 1 1 1
WIDTH 152
HEIGHT 1
VIEWPOINT 0 0 0 1 0 0 0
POINTS 152
DATA ascii
-12.0328 36.3833 370.078 -0.536136 -0.189193 -0.822657 4.00961e-37
-11.1258 37.7134 369.273 -0.54962 -0.187868 -0.814017 4.00961e-37
-9.70669 38.202 368.279 -0.554281 -0.190626 -0.810206 4.00961e-37
-8.56004 38.8927 367.076 -0.555578 -0.185704 -0.810461 4.00961e-37
-6.94895 40.2691 366 -0.551748 -0.170192 -0.816461 4.00961e-37
-6.10238 41.6496 365.214 -0.545513 -0.153179 -0.823985 4.00961e-37
-5.03647 42.5092 364.046 -0.536886 -0.137979 -0.832295 4.00961e-37
-3.70028 43.2782 363.116 -0.506595 -0.128112 -0.852613 4.00961e-37
-2.52107 44.3986 362.346 -0.469229 -0.11562 -0.875475 4.00961e-37
-1.46497 45.6882 361.666 -0.43319 -0.100676 -0.895662 4.00961e-37
-0.565718 47.1342 361.083 -0.399898 -0.0842459 -0.91268 4.00961e-37
0.616108 48.3724 360.526 -0.357905 -0.0684415 -0.931246 4.00961e-37
2.06355 49.2817 359.962 -0.309044 -0.0544861 -0.949486 4.00961e-37
3.3272 50.4815 359.511 -0.273216 -0.0375539 -0.961219 4.00961e-37
4.26881 52.0079 359.358 -0.252376 -0.0192017 -0.967439 4.00961e-37
5.59484 53.1847 359.046 -0.229709 -0.00411819 -0.973251 4.00961e-37
7.03934 54.1191 358.517 -0.209069 0.0065234 -0.977879 4.00961e-37
8.32525 55.3541 358.269 -0.194865 0.0172038 -0.980679 4.00961e-37
9.82785 56.3234 358.063 -0.182325 0.0224706 -0.982982 4.00961e-37
11.3546 57.2412 357.805 -0.180847 0.0253267 -0.983185 4.00961e-37
12.6076 58.5176 357.603 -0.184761 0.0231823 -0.98251 4.00961e-37
14.0979 59.4873 357.323 -0.185702 0.0231697 -0.982333 4.00961e-37
15.4738 60.6225 357.081 -0.183534 0.0278751 -0.982618 4.00961e-37
16.8909 61.7196 356.913 -0.177658 0.0370736 -0.983394 4.00961e-37
18.5006 62.46 356.596 -0.165204 0.0505194 -0.984965 4.00961e-37
20.0509 63.3641 356.457 -0.119193 0.0657541 -0.990691 4.00961e-37
21.5792 64.3136 356.406 -0.0699294 0.0845238 -0.993965 4.00961e-37
23.1178 65.2457 356.468 -0.0182929 0.105489 -0.994252 4.00961e-37
24.6841 66.1301 356.537 0.0342212 0.12733 -0.99127 4.00961e-37
25.7327 67.5411 356.923 0.0776558 0.148144 -0.985912 4.00961e-37
27.4108 68.1763 357.067 0.116887 0.169038 -0.978654 4.00961e-37
28.9666 68.9984 357.446 0.143676 0.18757 -0.971687 4.00961e-37
30.4394 69.9774 357.781 0.160633 0.202232 -0.966074 4.00961e-37
32.0118 69.1252 357.985 0.169469 0.195119 -0.966027 4.00961e-37
32.5056 67.4235 357.668 0.179827 0.177643 -0.967525 4.00961e-37
33.2436 65.7845 357.575 0.197994 0.158942 -0.967231 4.00961e-37
33.927 64.1208 357.502 0.203915 0.142854 -0.96851 4.00961e-37
34.3497 62.3916 357.235 0.207765 0.128837 -0.969657 4.00961e-37
34.9022 60.6867 357.067 0.210128 0.116268 -0.970736 4.00961e-37
35.4029 58.962 356.946 0.211653 0.104761 -0.971714 4.00961e-37
36.2102 57.3563 357.046 0.215486 0.0950614 -0.971869 4.00961e-37
36.7403 55.6368 356.999 0.218955 0.0846797 -0.972054 4.00961e-37
37.286 53.9215 357.007 0.223293 0.0662164 -0.9725 4.00961e-37
37.9352 52.246 357.113 0.231961 0.0473819 -0.97157 4.00961e-37
38.5232 50.5528 357.279 0.242502 0.0286578 -0.969728 4.00961e-37
39.1369 48.8727 357.48 0.250722 0.0110223 -0.967996 4.00961e-37
39.4701 47.1038 357.473 0.242342 -0.00551771 -0.970175 4.00961e-37
39.9062 45.3598 357.562 0.232823 -0.020564 -0.972302 4.00961e-37
40.2167 43.5873 357.606 0.226563 -0.034876 -0.973372 4.00961e-37
40.7698 41.9061 357.934 0.21822 -0.0487851 -0.97468 4.00961e-37
40.9198 40.1123 357.94 0.216237 -0.066288 -0.974088 4.00961e-37
41.3275 38.3784 358.199 0.213513 -0.0832648 -0.973385 4.00961e-37
41.5558 36.6018 358.377 0.21303 -0.100351 -0.971879 4.00961e-37
42.1342 34.945 358.777 0.212211 -0.116355 -0.970272 4.00961e-37
42.571 33.2402 359.155 0.212628 -0.132142 -0.968157 4.00961e-37
42.6638 31.4524 359.343 0.213252 -0.14746 -0.965805 4.00961e-37
43.1019 29.7704 359.811 0.213633 -0.162619 -0.963284 4.00961e-37
43.0979 27.9793 359.99 0.21393 -0.180678 -0.959994 4.00961e-37
43.6422 26.3697 360.584 0.216256 -0.197708 -0.956109 4.00961e-37
43.7827 24.6135 360.953 0.218309 -0.215252 -0.951844 4.00961e-37
43.8015 22.844 361.282 0.220294 -0.232285 -0.947372 4.00961e-37
44.1036 21.1611 361.844 0.224247 -0.248948 -0.942199 4.00961e-37
44.2979 19.4643 362.413 0.228329 -0.265238 -0.936758 4.00961e-37
44.4473 17.7451 362.925 0.23255 -0.281042 -0.931094 4.00961e-37
44.7463 16.1064 363.607 0.238486 -0.29705 -0.9246 4.00961e-37
44.6775 14.3833 364.123 0.241229 -0.312699 -0.91871 4.00961e-37
44.4464 12.6427 364.519 0.241547 -0.327966 -0.913287 4.00961e-37
44.8012 11.0659 365.312 0.24796 -0.343343 -0.905887 4.00961e-37
44.7481 9.37014 365.913 0.249278 -0.358763 -0.899527 4.00961e-37
44.7267 7.70329 366.592 0.250285 -0.374132 -0.892963 4.00961e-37
44.6916 6.04584 367.293 0.250245 -0.389461 -0.886396 4.00961e-37
44.7939 4.53156 368.261 0.251616 -0.403193 -0.879844 4.00961e-37
44.2327 2.83929 368.508 0.241961 -0.417523 -0.875859 4.00961e-37
44.5998 1.40471 369.532 0.243815 -0.430392 -0.86909 4.00961e-37
44.3 -0.251508 370.17 0.23574 -0.44641 -0.863218 4.00961e-37
44.1524 -1.86056 370.963 0.228962 -0.462683 -0.856447 4.00961e-37
43.7599 -3.47346 371.659 0.219653 -0.48005 -0.849297 4.00961e-37
43.921 -4.94834 372.678 0.215732 -0.495889 -0.841162 4.00961e-37
43.8703 -6.42513 373.706 0.210032 -0.510234 -0.833995 4.00961e-37
43.3036 -8.03241 374.285 0.201319 -0.523306 -0.828023 4.00961e-37
42.9201 -9.55185 375.171 0.194173 -0.537125 -0.820849 4.00961e-37
42.2355 -10.8394 376.226 0.187506 -0.551786 -0.812633 4.00961e-37
40.7381 -11.8342 376.317 0.182822 -0.561864 -0.806775 4.00961e-37
39.3092 -12.873 376.662 0.179919 -0.571455 -0.800667 4.00961e-37
38.2942 -14.1772 377.375 0.180008 -0.583139 -0.792178 4.00961e-37
38.379 -15.6108 378.461 0.18226 -0.598219 -0.780331 4.00961e-37
38.1048 -17.0115 379.557 0.185906 -0.612488 -0.768308 4.00961e-37
37.7596 -18.4543 380.577 0.189965 -0.624954 -0.757196 4.00961e-37
37.4413 -19.8533 381.664 0.193506 -0.636419 -0.746677 4.00961e-37
37.0661 -21.2282 382.763 0.196491 -0.646993 -0.736743 4.00961e-37
36.844 -22.549 383.966 0.196738 -0.65738 -0.727424 4.00961e-37
36.4032 -23.9026 385.067 0.188742 -0.668323 -0.719528 4.00961e-37
36.283 -25.1243 386.384 0.181533 -0.678434 -0.71188 4.00961e-37
35.0382 -26.2723 386.994 0.141947 -0.691825 -0.707976 4.00961e-37
33.6128 -27.2281 387.537 0.10782 -0.701768 -0.704199 4.00961e-37
31.8236 -27.2186 387.339 0.0744396 -0.701115 -0.709152 4.00961e-37
30.1157 -26.8311 386.924 0.0447983 -0.694006 -0.718574 4.00961e-37
28.5019 -26.3146 386.316 0.00421801 -0.685004 -0.728527 4.00961e-37
26.7087 -26.1989 386.212 -0.0364368 -0.67808 -0.734085 4.00961e-37
25.1086 -25.5767 385.671 -0.0746209 -0.667715 -0.740667 4.00961e-37
23.3825 -25.1161 385.451 -0.113389 -0.657869 -0.744548 4.00961e-37
21.7042 -24.4852 385.292 -0.137518 -0.647998 -0.749125 4.00961e-37
19.9714 -24.0011 385.236 -0.145119 -0.641247 -0.753487 4.00961e-37
18.2007 -23.7987 385.489 -0.150986 -0.638077 -0.755024 4.00961e-37
16.4721 -23.3295 385.667 -0.156389 -0.635527 -0.756074 4.00961e-37
14.7374 -22.8531 385.607 -0.162197 -0.633654 -0.756422 4.00961e-37
13.1998 -22.1195 385.026 -0.180044 -0.628065 -0.757046 4.00961e-37
11.4386 -21.7851 385.188 -0.202602 -0.623911 -0.754777 4.00961e-37
9.7225 -21.242 385.195 -0.225899 -0.617117 -0.753748 4.00961e-37
8.0696 -20.5305 385.236 -0.250132 -0.608387 -0.753193 4.00961e-37
6.36639 -20.5471 385.819 -0.277334 -0.601747 -0.74899 4.00961e-37
4.67364 -20.1936 386.318 -0.308611 -0.591191 -0.745152 4.00961e-37
3.03036 -19.7735 386.921 -0.339859 -0.57917 -0.740984 4.00961e-37
1.34039 -19.154 386.909 -0.371732 -0.563722 -0.737586 4.00961e-37
-0.26313 -19.0119 387.714 -0.39934 -0.551659 -0.732257 4.00961e-37
-1.90884 -18.6119 388.324 -0.428312 -0.53693 -0.726812 4.00961e-37
-3.4865 -18.3505 389.15 -0.457391 -0.522452 -0.719609 4.00961e-37
-4.94108 -18.4834 390.202 -0.483829 -0.509961 -0.711231 4.00961e-37
-6.46378 -18.3484 391.152 -0.510351 -0.49506 -0.703177 4.00961e-37
-7.98105 -17.5105 391.638 -0.527637 -0.481733 -0.699666 4.00961e-37
-8.52282 -15.891 391.069 -0.537222 -0.472244 -0.69884 4.00961e-37
-9.10723 -14.3104 390.436 -0.545092 -0.462462 -0.699288 4.00961e-37
-9.46638 -12.7217 389.67 -0.55081 -0.452248 -0.701484 4.00961e-37
-9.62933 -11.1647 388.782 -0.554676 -0.4404 -0.705962 4.00961e-37
-9.78582 -9.56756 387.966 -0.558134 -0.430782 -0.709164 4.00961e-37
-10.2072 -7.90442 387.422 -0.562425 -0.421641 -0.711264 4.00961e-37
-10.1858 -6.43191 386.387 -0.564101 -0.414428 -0.714171 4.00961e-37
-10.3732 -4.85149 385.546 -0.566366 -0.407138 -0.716567 4.00961e-37
-10.1028 -3.41852 384.491 -0.56613 -0.401501 -0.719926 4.00961e-37
-10.3378 -1.7694 383.809 -0.567972 -0.395133 -0.721996 4.00961e-37
-10.5211 -0.113756 383.127 -0.569343 -0.388 -0.724779 4.00961e-37
-10.4983 1.48153 382.293 -0.56947 -0.378209 -0.729837 4.00961e-37
-10.2674 2.98722 381.334 -0.567971 -0.369013 -0.735689 4.00961e-37
-10.3084 4.65909 380.669 -0.56779 -0.359418 -0.740563 4.00961e-37
-10.3133 6.31296 379.958 -0.566665 -0.350158 -0.745842 4.00961e-37
-10.2487 7.88098 379.077 -0.564257 -0.341166 -0.751811 4.00961e-37
-10.2256 9.46725 378.226 -0.561334 -0.332366 -0.757916 4.00961e-37
-10.337 11.1642 377.636 -0.557801 -0.324513 -0.763904 4.00961e-37
-10.0627 12.6771 376.7 -0.553833 -0.316118 -0.770285 4.00961e-37
-10.2065 14.382 376.141 -0.549399 -0.309141 -0.776269 4.00961e-37
-10.2944 16.0839 375.562 -0.544515 -0.30211 -0.782453 4.00961e-37
-10.5044 17.8187 375.13 -0.538426 -0.296028 -0.788965 4.00961e-37
-10.5085 19.4486 374.366 -0.533599 -0.288421 -0.795038 4.00961e-37
-10.5646 21.1481 373.776 -0.527885 -0.281418 -0.801337 4.00961e-37
-10.8353 22.9247 373.673 -0.518878 -0.27698 -0.808732 4.00961e-37
-10.3041 24.2567 372.585 -0.520592 -0.268384 -0.810527 4.00961e-37
-10.7224 25.9911 372.348 -0.512276 -0.265224 -0.816841 4.00961e-37
-10.7407 27.719 371.843 -0.509966 -0.258478 -0.820441 4.00961e-37
-11.2145 29.4442 371.646 -0.504901 -0.251026 -0.82587 4.00961e-37
-11.596 31.176 371.336 -0.504429 -0.239654 -0.829528 4.00961e-37
-11.9212 32.925 371.062 -0.50855 -0.224073 -0.831365 4.00961e-37
-12.0461 34.6544 370.579 -0.51982 -0.20555 -0.829178 4.00961e-37
