# .PCD v0.7 - Point Cloud Data file format
# 5 148 0
# 1 58 0
# 59 89 0
# 90 121 0
# 122 146 0
# 147 148 0
VERSION 0.7
FIELDS x y z normal_x normal_y normal_z curvature
SIZE 4 4 4 4 4 4 4
TYPE F F F F F F F
COUNT 1 1 1 1 1 1 1
WIDTH 148
HEIGHT 1
VIEWPOINT 0 0 0 1 0 0 0
POINTS 148
DATA ascii
35.6181 -23.9869 389.41 0.00316804 0.671729 0.74079 4.00961e-37
36.0616 -22.6095 388.339 -0.0127324 0.659158 0.751897 4.00961e-37
35.4661 -23.9126 389.429 -0.00157333 0.673269 0.739396 4.00961e-37
36.5087 -21.0535 386.874 -0.0354333 0.644743 0.763578 4.00961e-37
36.6576 -19.6178 385.799 -0.0545509 0.634362 0.771109 4.00961e-37
37.0852 -18.2749 384.679 -0.0635444 0.621786 0.780605 4.00961e-37
37.1766 -16.7572 383.715 -0.0757252 0.610359 0.788497 4.00961e-37
37.3838 -15.2903 382.693 -0.0833636 0.597289 0.797682 4.00961e-37
37.7433 -13.8574 381.665 -0.0864955 0.583407 0.807561 4.00961e-37
38.3741 -12.552 380.598 -0.08373 0.569948 0.817403 4.00961e-37
38.4469 -10.9969 379.694 -0.0916129 0.558202 0.824632 4.00961e-37
39.3728 -9.85548 378.655 -0.0831813 0.545971 0.833665 4.00961e-37
40.8927 -8.90798 378.476 -0.0629338 0.535197 0.84238 4.00961e-37
42.1184 -7.80382 377.756 -0.0525153 0.523255 0.850557 4.00961e-37
42.5737 -6.28848 376.898 -0.0562046 0.513224 0.856412 4.00961e-37
43.1699 -4.89763 375.923 -0.0582412 0.50362 0.86196 4.00961e-37
43.2379 -3.29678 375.103 -0.0668026 0.48885 0.869806 4.00961e-37
43.3874 -1.70782 374.271 -0.0739912 0.473096 0.877898 4.00961e-37
43.4076 -0.0931981 373.475 -0.0813393 0.458255 0.885091 4.00961e-37
43.7302 1.44624 372.6 -0.0847935 0.443407 0.8923 4.00961e-37
43.9725 3.01964 371.76 -0.0873379 0.429503 0.898832 4.00961e-37
44.0047 4.65721 371.013 -0.0895328 0.416401 0.904762 4.00961e-37
43.9476 6.33044 370.352 -0.0902561 0.403636 0.910457 4.00961e-37
44.0518 7.98155 369.643 -0.087673 0.39056 0.916393 4.00961e-37
44.0172 9.66041 368.995 -0.0845035 0.377171 0.922281 4.00961e-37
43.9758 11.3413 368.352 -0.0798144 0.363501 0.928168 4.00961e-37
44.2353 12.9371 367.561 -0.0702959 0.350952 0.933751 4.00961e-37
44.0101 14.6447 367.038 -0.0650029 0.336142 0.939565 4.00961e-37
44.0104 16.3333 366.415 -0.0557601 0.321834 0.945153 4.00961e-37
43.9443 18.0371 365.838 -0.0465595 0.306862 0.950614 4.00961e-37
43.8659 19.747 365.281 -0.03618 0.296838 0.954242 4.00961e-37
43.7486 21.4724 364.782 -0.0242214 0.2868 0.957684 4.00961e-37
43.7853 23.1716 364.189 -0.00666634 0.277016 0.960842 4.00961e-37
43.3703 24.8973 363.889 0.000793658 0.261978 0.965073 4.00961e-37
43.288 26.624 363.388 0.018226 0.248635 0.968426 4.00961e-37
43.0619 28.3702 363.014 0.0318452 0.232643 0.972041 4.00961e-37
42.8855 30.092 362.52 0.0473707 0.216141 0.975212 4.00961e-37
42.2687 31.7716 362.324 0.0419221 0.19865 0.979173 4.00961e-37
42.1495 33.5007 361.838 0.0557591 0.188096 0.980567 4.00961e-37
42.0065 35.2338 361.374 0.0675991 0.17738 0.981818 4.00961e-37
40.9932 36.714 361.523 0.0260668 0.160244 0.986733 4.00961e-37
40.9423 38.4714 361.137 0.0405156 0.149623 0.987913 4.00961e-37
40.8259 40.2203 360.727 0.0526097 0.137999 0.989034 4.00961e-37
40.3606 41.9535 360.587 0.0423781 0.121902 0.991637 4.00961e-37
39.628 43.5976 360.573 0.0106763 0.103272 0.994596 4.00961e-37
39.3226 45.3561 360.34 0.0103149 0.0904669 0.995846 4.00961e-37
38.7775 47.0681 360.23 -0.00331735 0.074167 0.99724 4.00961e-37
38.629 48.8365 359.929 0.0203249 0.0631365 0.997798 4.00961e-37
37.9438 50.5003 359.975 0.0207464 0.0456173 0.998744 4.00961e-37
37.3956 52.2145 359.945 0.022808 0.0306088 0.999271 4.00961e-37
36.8268 53.9223 359.942 0.0221705 0.0153632 0.999636 4.00961e-37
36.1136 55.5745 359.982 0.0157178 -0.00139312 0.999875 4.00961e-37
35.556 57.286 359.982 0.0181188 -0.0108157 0.999777 4.00961e-37
35.1449 59.0384 359.979 0.0282182 -0.019538 0.999411 4.00961e-37
34.8532 60.8104 359.858 0.0460862 -0.0279292 0.998547 4.00961e-37
33.8722 62.2786 360.208 0.0431668 -0.0503681 0.997797 4.00961e-37
33.7127 64.069 360.113 0.0759102 -0.0614698 0.995218 4.00961e-37
32.5768 65.3842 360.582 0.071212 -0.0935604 0.993064 4.00961e-37
32.3677 67.1719 360.557 0.100171 -0.109147 0.988965 4.00961e-37
31.4328 68.6505 360.98 0.0944374 -0.139001 0.985779 4.00961e-37
30.0282 69.6869 361.42 0.0592935 -0.171167 0.983456 4.00961e-37
28.4146 68.9254 361.182 -0.00129396 -0.181029 0.983477 4.00961e-37
26.8824 67.9927 361.034 -0.0373993 -0.181273 0.982721 4.00961e-37
25.4552 66.9381 360.732 -0.0328527 -0.174506 0.984108 4.00961e-37
24.1616 65.6865 360.728 -0.0160801 -0.160268 0.986943 4.00961e-37
22.5811 64.8842 360.415 0.0140178 -0.144707 0.989375 4.00961e-37
21.1049 63.8698 360.237 0.050464 -0.124248 0.990967 4.00961e-37
19.7389 62.699 360.296 0.0902715 -0.101845 0.990696 4.00961e-37
18.1523 61.8547 360.394 0.12114 -0.0802614 0.989385 4.00961e-37
16.5981 60.9539 360.51 0.144744 -0.0613554 0.987565 4.00961e-37
15.0052 60.1201 360.595 0.165601 -0.0467747 0.985083 4.00961e-37
13.6293 59.0293 360.991 0.182634 -0.0354683 0.982541 4.00961e-37
12.2372 57.9124 361.225 0.195368 -0.0293547 0.980291 4.00961e-37
10.9444 56.6722 361.4 0.198786 -0.0238455 0.979753 4.00961e-37
9.45923 55.7183 361.753 0.204926 -0.0161531 0.978644 4.00961e-37
8.10511 54.551 361.961 0.215618 -0.00270806 0.976474 4.00961e-37
6.87276 53.2816 362.293 0.231415 0.0145735 0.972746 4.00961e-37
5.45899 52.2475 362.708 0.253246 0.0338274 0.96681 4.00961e-37
4.04881 51.1746 363.024 0.284187 0.0557675 0.957146 4.00961e-37
2.94659 49.818 363.454 0.326811 0.0779091 0.941873 4.00961e-37
1.98236 48.4289 364.071 0.369442 0.10042 0.923812 4.00961e-37
0.712062 47.3032 364.671 0.419022 0.122468 0.899679 4.00961e-37
-0.0603635 45.8226 365.342 0.458342 0.144159 0.877007 4.00961e-37
-1.30722 44.8069 366.151 0.507302 0.159473 0.846885 4.00961e-37
-2.45918 43.7506 367.044 0.552483 0.171935 0.815599 4.00961e-37
-3.55005 42.7483 368.066 0.574793 0.187698 0.796481 4.00961e-37
-4.71096 41.8496 369.107 0.586663 0.203584 0.783824 4.00961e-37
-5.3946 40.5719 370.175 0.597732 0.215607 0.77216 4.00961e-37
-6.74141 39.9292 371.182 0.603991 0.227646 0.763788 4.00961e-37
-7.57192 38.7505 372.259 0.610492 0.23666 0.755838 4.00961e-37
-8.67005 37.9456 373.437 0.61397 0.244302 0.750572 4.00961e-37
-9.60701 36.8889 374.553 0.616164 0.249656 0.747003 4.00961e-37
-9.61056 35.118 374.875 0.618519 0.251022 0.744595 4.00961e-37
-9.61206 33.4958 375.655 0.62051 0.252589 0.742406 4.00961e-37
-9.49248 31.7944 376.23 0.622677 0.253713 0.740205 4.00961e-37
-9.0265 30.0685 376.441 0.625393 0.253995 0.737815 4.00961e-37
-8.48845 28.36 376.618 0.628001 0.254414 0.735451 4.00961e-37
-8.26636 26.6062 376.957 0.62972 0.255766 0.73351 4.00961e-37
-8.163 24.8821 377.464 0.630619 0.257676 0.732067 4.00961e-37
-8.11904 23.1577 377.978 0.630883 0.263548 0.729746 4.00961e-37
-8.04831 21.4371 378.502 0.630464 0.270961 0.727389 4.00961e-37
-7.7285 19.7283 378.969 0.62977 0.2788 0.725024 4.00961e-37
-7.81165 18.0539 379.624 0.628002 0.286926 0.723386 4.00961e-37
-7.81179 16.3763 380.277 0.62585 0.295368 0.721852 4.00961e-37
-7.81159 14.7087 380.954 0.623224 0.304043 0.720521 4.00961e-37
-7.36192 13.0407 381.46 0.621763 0.313067 0.717914 4.00961e-37
-7.79492 11.5771 382.414 0.616871 0.319011 0.719515 4.00961e-37
-7.81146 9.92738 383.134 0.613593 0.324196 0.720001 4.00961e-37
-7.81079 8.26149 383.815 0.610617 0.329386 0.720175 4.00961e-37
-7.75549 6.58615 384.471 0.60815 0.334543 0.719885 4.00961e-37
-7.52133 4.9731 385.235 0.606368 0.339587 0.719026 4.00961e-37
-7.5134 3.31623 385.938 0.603898 0.344653 0.718694 4.00961e-37
-7.77641 1.79831 386.869 0.598798 0.349886 0.720431 4.00961e-37
-7.67681 0.216378 387.722 0.595997 0.355163 0.720171 4.00961e-37
-7.91229 -1.34382 388.589 0.589901 0.360902 0.722334 4.00961e-37
-7.60139 -3.01618 389.177 0.58752 0.36754 0.720926 4.00961e-37
-7.2047 -4.68933 389.709 0.585333 0.375279 0.718715 4.00961e-37
-7.35681 -6.25959 390.576 0.575309 0.383161 0.722639 4.00961e-37
-7.11805 -7.8582 391.368 0.567266 0.392578 0.723941 4.00961e-37
-6.49292 -9.47753 391.845 0.564693 0.402181 0.720675 4.00961e-37
-6.59712 -11.0538 392.708 0.548746 0.393548 0.737562 4.00961e-37
-6.35312 -12.6754 393.45 0.537249 0.388742 0.748494 4.00961e-37
-5.95572 -14.2894 394.14 0.527146 0.386653 0.756714 4.00961e-37
-5.72858 -15.9656 394.756 0.513341 0.385767 0.766593 4.00961e-37
-4.34602 -16.1989 393.627 0.546034 0.399463 0.736394 4.00961e-37
-2.81795 -16.0109 392.694 0.532127 0.425872 0.731761 4.00961e-37
-1.3198 -16.3286 391.749 0.502629 0.453024 0.736297 4.00961e-37
0.269856 -16.6344 390.962 0.471666 0.477374 0.74138 4.00961e-37
1.79068 -16.6126 389.999 0.444719 0.496935 0.745172 4.00961e-37
3.32202 -17.3753 389.439 0.404029 0.519745 0.752746 4.00961e-37
5.02543 -17.7313 388.979 0.363618 0.540612 0.758631 4.00961e-37
6.7132 -17.884 388.372 0.324332 0.558485 0.763481 4.00961e-37
8.3787 -18.5441 388.198 0.281604 0.576746 0.766853 4.00961e-37
10.1063 -18.9414 387.886 0.251796 0.589772 0.767312 4.00961e-37
11.8136 -19.4968 387.757 0.222934 0.601293 0.767299 4.00961e-37
13.4299 -20.2582 387.976 0.196217 0.611543 0.766495 4.00961e-37
15.1661 -20.7312 387.93 0.170651 0.619171 0.766489 4.00961e-37
16.8892 -21.2476 387.993 0.152408 0.625752 0.764988 4.00961e-37
18.6391 -21.6685 388.021 0.134516 0.63365 0.761836 4.00961e-37
20.3186 -22.3161 388.012 0.11474 0.643982 0.756387 4.00961e-37
22.0883 -22.6381 388.077 0.0939996 0.656024 0.748863 4.00961e-37
23.8351 -22.9566 388.373 0.0612715 0.670284 0.739571 4.00961e-37
25.5886 -23.348 388.482 0.021604 0.681526 0.731475 4.00961e-37
27.2686 -23.8147 388.929 -0.0157556 0.690621 0.723045 4.00961e-37
29.0104 -24.0498 389.317 -0.0514744 0.69483 0.71733 4.00961e-37
30.708 -24.4117 389.794 -0.0692502 0.69738 0.713348 4.00961e-37
32.4832 -24.4678 390.086 -0.0487612 0.696652 0.71575 4.00961e-37
34.2494 -24.5887 390.412 -0.0160645 0.690077 0.723558 4.00961e-37
