# .PCD v0.7 - Point Cloud Data file format
# 5 156 0
# 1 46 0
# 47 62 0
# 63 114 0
# 115 144 0
# 145 156 0
VERSION 0.7
FIELDS x y z normal_x normal_y normal_z curvature
SIZE 4 4 4 4 4 4 4
TYPE F F F F F F F
COUNT 1 1 1 1 1 1 1
WIDTH 156
HEIGHT 1
VIEWPOINT 0 0 0 1 0 0 0
POINTS 156
DATA ascii
26.9097 86.3032 378.595 0.530093 -0.765896 -0.363875 1.74758e-37
27.3639 85.872 380.283 0.531026 -0.759222 -0.376288 1.74758e-37
27.7776 85.2773 381.931 0.532254 -0.752803 -0.38729 1.74758e-37
28.4159 85.2185 383.613 0.556216 -0.731897 -0.393637 1.74758e-37
28.7608 84.3677 385.161 0.554407 -0.727458 -0.404275 1.74758e-37
29.2568 83.8052 386.797 0.563175 -0.714971 -0.414307 1.74758e-37
29.3942 82.7792 388.27 0.550512 -0.716324 -0.428738 1.74758e-37
30.0814 82.503 389.911 0.566052 -0.696605 -0.440825 1.74758e-37
30.5098 81.798 391.51 0.562583 -0.687514 -0.459157 1.74758e-37
30.9419 81.0947 393.11 0.55611 -0.681082 -0.476307 1.74758e-37
31.3662 80.2607 394.648 0.54598 -0.677563 -0.492762 1.74758e-37
31.7029 79.3095 396.138 0.532341 -0.677146 -0.508022 1.74758e-37
31.9116 78.252 397.58 0.516143 -0.679302 -0.521676 1.74758e-37
32.4298 77.8396 398.808 0.511868 -0.67374 -0.532978 1.74758e-37
33.0108 77.2732 400.415 0.503029 -0.66905 -0.547115 1.74758e-37
33.1573 76.0378 401.716 0.485492 -0.672637 -0.558441 1.74758e-37
33.5454 75.0447 403.166 0.471185 -0.669959 -0.573707 1.74758e-37
34.1081 74.2279 404.668 0.459269 -0.665192 -0.58872 1.74758e-37
34.6505 73.5062 406.225 0.448407 -0.660448 -0.602279 1.74758e-37
34.7345 72.1545 407.411 0.437066 -0.659198 -0.611908 1.74758e-37
35.1483 71.0976 408.808 0.429406 -0.654356 -0.622438 1.74758e-37
35.7828 70.4113 410.346 0.425571 -0.648087 -0.631563 1.74758e-37
36.1456 69.2551 411.677 0.422838 -0.640579 -0.640989 1.74758e-37
36.5121 68.1279 413.032 0.420685 -0.629755 -0.653018 1.74758e-37
36.916 66.989 414.366 0.419667 -0.618164 -0.664645 1.74758e-37
37.2291 65.7477 415.631 0.419155 -0.605832 -0.676222 1.74758e-37
37.5404 64.484 416.875 0.419258 -0.592724 -0.687678 1.74758e-37
37.798 63.1514 418.057 0.419311 -0.579017 -0.699226 1.74758e-37
38.353 62.1563 419.451 0.422331 -0.56469 -0.709057 1.74758e-37
38.2141 60.561 420.272 0.418932 -0.553215 -0.720034 1.74758e-37
38.8022 59.4557 421.566 0.426618 -0.544201 -0.722386 1.74758e-37
39.2007 58.1733 422.764 0.435057 -0.532904 -0.725768 1.74758e-37
39.6889 56.9964 424.036 0.44797 -0.519205 -0.727838 1.74758e-37
40.0604 55.6846 425.211 0.460811 -0.502874 -0.73128 1.74758e-37
40.3493 54.2654 426.28 0.472496 -0.484133 -0.736453 1.74758e-37
40.6605 52.8588 427.359 0.485339 -0.463106 -0.741606 1.74758e-37
40.9142 51.3733 428.343 0.49557 -0.440928 -0.748327 1.74758e-37
41.2493 49.9579 429.404 0.507258 -0.419843 -0.75261 1.74758e-37
41.2859 48.3052 430.116 0.502463 -0.404935 -0.76391 1.74758e-37
41.8075 47.1091 431.356 0.519775 -0.383917 -0.763178 1.74758e-37
41.9095 45.4469 432.039 0.511353 -0.372327 -0.774526 1.74758e-37
42.0338 43.8515 432.863 0.503456 -0.361292 -0.784857 1.74758e-37
42.4755 42.493 433.958 0.512212 -0.34332 -0.787255 1.74758e-37
42.7195 40.937 434.83 0.507516 -0.332334 -0.794973 1.74758e-37
42.8744 39.3007 435.564 0.494455 -0.326633 -0.805496 1.74758e-37
43.196 37.7925 436.492 0.492649 -0.315497 -0.811023 1.74758e-37
43.1672 36.0497 436.941 0.458557 -0.319354 -0.8293 1.74758e-37
43.4837 34.5378 437.865 0.4543 -0.307758 -0.836 1.74758e-37
43.4847 32.8098 438.369 0.429119 -0.301443 -0.851463 1.74758e-37
43.573 31.1046 438.939 0.427108 -0.280489 -0.859596 1.74758e-37
43.8496 29.4855 439.675 0.431917 -0.264012 -0.862407 1.74758e-37
43.6702 27.7192 439.972 0.418327 -0.260752 -0.870064 1.74758e-37
44.1418 26.1924 440.8 0.428794 -0.252905 -0.86728 1.74758e-37
44.2726 24.4781 441.333 0.424394 -0.248668 -0.870663 1.74758e-37
44.3735 22.7637 441.872 0.42014 -0.24253 -0.874449 1.74758e-37
44.7412 21.155 442.591 0.428027 -0.230429 -0.873897 1.74758e-37
44.5887 19.369 442.756 0.418154 -0.215924 -0.88234 1.74758e-37
44.9347 17.7573 443.479 0.433146 -0.190697 -0.88092 1.74758e-37
44.8686 15.9699 443.68 0.431674 -0.160027 -0.887721 1.74758e-37
43.5623 14.8386 443.177 0.391264 -0.153912 -0.907317 1.74758e-37
41.9596 14.5793 442.399 0.36159 -0.164461 -0.917718 1.74758e-37
40.5052 13.5768 442.053 0.342421 -0.172754 -0.923528 1.74758e-37
38.9474 12.7278 441.749 0.346792 -0.176362 -0.921212 1.74758e-37
37.4857 11.858 441.16 0.376295 -0.162457 -0.912146 1.74758e-37
35.8821 11.2266 440.641 0.405035 -0.150117 -0.901893 1.74758e-37
34.7373 9.86614 440.361 0.427525 -0.133301 -0.894122 1.74758e-37
33.4613 8.7095 439.837 0.450552 -0.118055 -0.88491 1.74758e-37
32.1711 7.59723 439.256 0.466723 -0.108094 -0.877773 1.74758e-37
30.6472 6.92273 438.575 0.484685 -0.10002 -0.868951 1.74758e-37
29.4317 5.71331 438.028 0.500315 -0.0871918 -0.861442 1.74758e-37
28.544 4.26837 437.424 0.514315 -0.0719314 -0.854579 1.74758e-37
27.0764 3.41595 436.825 0.519537 -0.071196 -0.851477 1.74758e-37
25.8925 2.48141 435.842 0.522752 -0.0753945 -0.849144 1.74758e-37
24.3809 2.18028 434.913 0.531607 -0.0819568 -0.843017 1.74758e-37
22.8336 1.8336 434.061 0.543081 -0.08855 -0.834998 1.74758e-37
21.2769 2.12836 433.206 0.562079 -0.090068 -0.822165 1.74758e-37
19.8435 2.3069 432.133 0.588416 -0.0856117 -0.804013 1.74758e-37
18.6142 3.02921 431.034 0.612789 -0.080804 -0.786104 1.74758e-37
17.2654 3.69574 430.046 0.638881 -0.0747731 -0.765663 1.74758e-37
15.9804 4.46859 429.05 0.664601 -0.0685405 -0.744048 1.74758e-37
14.7729 5.12417 427.887 0.692656 -0.0612631 -0.718661 1.74758e-37
13.7726 5.61548 426.474 0.723387 -0.0528464 -0.688418 1.74758e-37
12.5533 6.08834 425.237 0.757624 -0.0483613 -0.650897 1.74758e-37
11.3308 6.35901 423.944 0.778269 -0.0601535 -0.625043 1.74758e-37
10.1605 6.66823 422.611 0.794885 -0.0730966 -0.602341 1.74758e-37
9.27982 7.15657 421.119 0.810054 -0.0834214 -0.58039 1.74758e-37
8.44155 7.76353 419.647 0.823558 -0.0918956 -0.559739 1.74758e-37
7.67015 8.47688 418.185 0.835334 -0.0988803 -0.540777 1.74758e-37
6.70411 9.01302 416.764 0.845042 -0.1062 -0.524048 1.74758e-37
6.01625 10.0362 415.453 0.853 -0.108501 -0.510508 1.74758e-37
5.23435 11.0705 414.204 0.860643 -0.108557 -0.497503 1.74758e-37
4.81223 12.3181 412.977 0.868078 -0.105853 -0.485011 1.74758e-37
4.27395 13.3804 411.628 0.875998 -0.103349 -0.471112 1.74758e-37
3.97766 14.8894 410.692 0.881941 -0.0975367 -0.461157 1.74758e-37
3.63869 16.3532 409.701 0.887646 -0.0921374 -0.451216 1.74758e-37
3.13454 17.5217 408.428 0.894543 -0.0876652 -0.4383 1.74758e-37
2.762 18.8848 407.313 0.90085 -0.0861976 -0.425486 1.74758e-37
2.29992 20.2257 406.205 0.906412 -0.0864711 -0.413448 1.74758e-37
1.88909 21.4849 404.986 0.911601 -0.0879157 -0.401564 1.74758e-37
1.37158 22.6066 403.677 0.916766 -0.0896697 -0.38923 1.74758e-37
1.02752 24.0522 402.661 0.919487 -0.0946281 -0.381562 1.74758e-37
0.790208 25.5464 401.685 0.921303 -0.101575 -0.375345 1.74758e-37
0.588676 27.0073 400.653 0.922874 -0.109488 -0.36921 1.74758e-37
0.43978 28.5653 399.764 0.922287 -0.115411 -0.368873 1.74758e-37
0.160878 29.8779 398.565 0.923258 -0.118811 -0.365347 1.74758e-37
-0.206687 31.0553 397.254 0.924865 -0.121077 -0.360507 1.74758e-37
-0.559267 32.2015 395.911 0.926443 -0.123433 -0.355622 1.74758e-37
-0.821358 33.6339 394.853 0.92627 -0.129578 -0.353885 1.74758e-37
-1.21229 34.8396 393.575 0.927256 -0.133401 -0.349857 1.74758e-37
-1.48831 36.1099 392.33 0.927629 -0.138672 -0.346806 1.74758e-37
-2.01078 36.9672 390.836 0.929817 -0.138435 -0.340993 1.74758e-37
-2.30771 38.0546 389.433 0.930749 -0.141251 -0.337276 1.74758e-37
-2.36195 39.4228 388.264 0.929976 -0.148113 -0.336462 1.74758e-37
-2.74045 40.3356 386.76 0.931589 -0.149139 -0.33151 1.74758e-37
-3.30132 40.9023 385.146 0.934232 -0.147049 -0.324941 1.74758e-37
-3.71154 41.3064 383.441 0.936748 -0.144646 -0.318718 1.74758e-37
-3.92638 42.5864 382.194 0.936387 -0.150585 -0.317024 1.74758e-37
-4.30833 43.5216 380.704 0.937392 -0.156909 -0.310927 1.74758e-37
-4.71959 44.3278 379.148 0.938304 -0.163864 -0.304523 1.74758e-37
-4.95117 45.2359 377.611 0.938428 -0.173163 -0.298943 1.74758e-37
-5.31466 46.0127 376.028 0.938314 -0.182237 -0.293864 1.74758e-37
-6.0327 45.8771 374.383 0.938967 -0.182882 -0.291369 1.74758e-37
-6.24703 46.6879 372.791 0.937507 -0.194822 -0.288315 1.74758e-37
-6.6361 46.9758 371.057 0.935932 -0.202744 -0.287971 1.74758e-37
-7.17917 47.1771 369.353 0.932142 -0.196633 -0.304051 1.74758e-37
-7.47047 48.2317 367.923 0.928008 -0.187662 -0.321844 1.74758e-37
-7.41207 49.8699 367.18 0.925341 -0.17921 -0.334109 1.74758e-37
-6.93259 51.6048 367.193 0.92079 -0.176941 -0.347616 1.74758e-37
-6.65296 53.3628 367.46 0.915564 -0.179576 -0.359854 1.74758e-37
-6.09734 54.8969 368.22 0.911528 -0.189941 -0.364747 1.74758e-37
-5.53836 56.4759 368.88 0.906815 -0.20378 -0.368999 1.74758e-37
-4.94528 58.0283 369.571 0.894877 -0.235845 -0.37891 1.74758e-37
-4.30144 59.6564 369.989 0.876959 -0.281933 -0.389175 1.74758e-37
-3.28802 60.9316 370.755 0.861155 -0.332491 -0.384528 1.74758e-37
-2.43699 62.3857 371.389 0.840845 -0.390714 -0.374597 1.74758e-37
-1.40593 63.5323 372.317 0.821013 -0.445883 -0.356546 1.74758e-37
-0.414095 64.9015 372.935 0.792859 -0.502197 -0.345214 1.74758e-37
0.720867 66.085 373.677 0.766364 -0.546203 -0.338156 1.74758e-37
1.92028 67.2993 374.249 0.738859 -0.583479 -0.337104 1.74758e-37
3.17149 68.425 374.888 0.719818 -0.605371 -0.339688 1.74758e-37
4.44589 69.6929 374.979 0.710651 -0.617103 -0.337874 1.74758e-37
5.60805 70.5864 376.023 0.702226 -0.622783 -0.344994 1.74758e-37
6.82877 71.908 375.966 0.695191 -0.62953 -0.346988 1.74758e-37
8.13306 73.0634 376.417 0.687283 -0.633081 -0.356161 1.74758e-37
9.38841 74.3409 376.596 0.669698 -0.645717 -0.366816 1.74758e-37
10.564 75.6944 376.758 0.649457 -0.662827 -0.372646 1.74758e-37
11.9818 76.71 377.203 0.627037 -0.682845 -0.374896 1.74758e-37
13.4126 77.7907 377.361 0.602588 -0.707256 -0.369698 1.74758e-37
14.8549 78.8178 377.685 0.574587 -0.73421 -0.361643 1.74758e-37
16.3182 79.8605 377.792 0.543909 -0.760481 -0.354728 1.74758e-37
17.7588 80.9379 377.855 0.513686 -0.783699 -0.349201 1.74758e-37
19.2808 81.8988 377.862 0.484194 -0.803848 -0.345521 1.74758e-37
20.8302 82.8135 377.915 0.465045 -0.816718 -0.341621 1.74758e-37
22.4259 83.3313 378.568 0.472826 -0.812607 -0.340743 1.74758e-37
23.9471 84.2871 378.457 0.482691 -0.80742 -0.339237 1.74758e-37
25.506 85.1869 378.442 0.500381 -0.793564 -0.34623 1.74758e-37
