# .PCD v0.7 - Point Cloud Data file format
# 5 161 0
# 1 4 0
# 5 36 0
# 37 89 0
# 90 106 0
# 107 161 0
VERSION 0.7
FIELDS x y z normal_x normal_y normal_z curvature
SIZE 4 4 4 4 4 4 4
TYPE F F F F F F F
COUNT 1 1 1 1 1 1 1
WIDTH 161
HEIGHT 1
VIEWPOINT 0 0 0 1 0 0 0
POINTS 161
DATA ascii
44.0899 16.9145 446.028 -0.244289 0.188645 0.951176 1.74758e-37
43.939 18.6666 445.644 -0.241257 0.207821 0.947948 1.74758e-37
43.955 20.4125 445.206 -0.234551 0.229109 0.944719 1.74758e-37
43.9552 22.1445 444.716 -0.22574 0.250976 0.941304 1.74758e-37
43.695 23.8807 444.318 -0.226983 0.264544 0.937281 1.74758e-37
43.4249 25.5767 443.779 -0.229414 0.276146 0.933334 1.74758e-37
43.3759 27.2752 443.185 -0.2314 0.286707 0.929652 1.74758e-37
43.2032 28.9737 442.615 -0.233472 0.296932 0.925917 1.74758e-37
43.2038 30.6525 441.966 -0.234121 0.307467 0.922308 1.74758e-37
43.1008 32.3354 441.335 -0.236804 0.321957 0.916661 1.74758e-37
42.9923 33.9873 440.629 -0.239785 0.339882 0.909386 1.74758e-37
42.6362 35.6348 439.997 -0.243261 0.357858 0.901533 1.74758e-37
42.3539 37.2684 439.296 -0.244844 0.375877 0.893738 1.74758e-37
41.9575 38.8802 438.599 -0.24676 0.392884 0.885862 1.74758e-37
42.0442 40.4669 437.754 -0.254655 0.404068 0.878567 1.74758e-37
41.9481 42.049 436.901 -0.264531 0.413935 0.871023 1.74758e-37
41.478 43.6264 436.172 -0.27122 0.425469 0.863374 1.74758e-37
41.4232 45.1804 435.266 -0.277903 0.437925 0.85498 1.74758e-37
41.0619 46.7264 434.418 -0.282046 0.452408 0.846036 1.74758e-37
40.741 48.2543 433.522 -0.284871 0.467513 0.836827 1.74758e-37
40.5916 49.7607 432.548 -0.286687 0.482993 0.827362 1.74758e-37
40.5196 51.2337 431.516 -0.287574 0.498624 0.817725 1.74758e-37
40.2358 52.6936 430.502 -0.287791 0.513919 0.808124 1.74758e-37
39.7948 54.1252 429.504 -0.287922 0.528644 0.798521 1.74758e-37
39.3455 55.5369 428.481 -0.288585 0.543555 0.788205 1.74758e-37
39.1691 56.9487 427.379 -0.288943 0.558042 0.777882 1.74758e-37
38.9304 58.3256 426.244 -0.289202 0.571716 0.767791 1.74758e-37
38.3605 59.6467 425.163 -0.290145 0.583917 0.758193 1.74758e-37
38.1481 60.9892 423.983 -0.29004 0.596297 0.748536 1.74758e-37
37.7625 62.2923 422.802 -0.290368 0.607695 0.739184 1.74758e-37
37.5118 63.5743 421.564 -0.290066 0.619395 0.729528 1.74758e-37
37.4338 64.7839 420.233 -0.288523 0.633893 0.717589 1.74758e-37
36.6581 65.956 419.109 -0.290409 0.645617 0.706287 1.74758e-37
36.4138 67.1283 417.765 -0.287563 0.660326 0.693742 1.74758e-37
36.118 68.3547 416.481 -0.28369 0.675183 0.680916 1.74758e-37
35.534 69.545 415.263 -0.282083 0.687843 0.668806 1.74758e-37
35.3573 70.6961 413.891 -0.2756 0.703027 0.655589 1.74758e-37
34.7718 71.7994 412.595 -0.273958 0.714609 0.643647 1.74758e-37
34.6141 72.8683 411.155 -0.26752 0.728242 0.630949 1.74758e-37
34.3377 73.921 409.722 -0.264656 0.739728 0.618676 1.74758e-37
34.0094 74.9628 408.291 -0.264741 0.749734 0.606475 1.74758e-37
33.6871 75.9453 406.817 -0.267187 0.758692 0.594136 1.74758e-37
33.1633 76.9428 405.414 -0.274706 0.765875 0.581353 1.74758e-37
32.7066 77.8969 403.957 -0.282966 0.772855 0.568001 1.74758e-37
32.3608 78.819 402.451 -0.291025 0.779779 0.554301 1.74758e-37
31.9881 79.7096 400.931 -0.299745 0.784887 0.542315 1.74758e-37
31.5023 80.5895 399.438 -0.309991 0.789781 0.529293 1.74758e-37
31.0309 81.4259 397.916 -0.320029 0.795214 0.514992 1.74758e-37
30.4971 82.2453 396.404 -0.329912 0.801141 0.499331 1.74758e-37
30.1585 83.0063 394.809 -0.337565 0.808107 0.482715 1.74758e-37
29.7594 83.728 393.209 -0.344241 0.815782 0.464756 1.74758e-37
29.2815 84.4587 391.635 -0.349002 0.824256 0.445869 1.74758e-37
28.6924 85.1483 390.08 -0.352336 0.832363 0.427821 1.74758e-37
28.3731 85.7893 388.428 -0.354332 0.840083 0.410742 1.74758e-37
28.0878 86.3536 386.743 -0.355354 0.847225 0.394883 1.74758e-37
27.7292 86.7194 385.018 -0.35474 0.854021 0.380536 1.74758e-37
27.6056 86.8848 385.192 -0.354615 0.853734 0.381296 1.74758e-37
26.9685 87.4224 383.597 -0.351777 0.860389 0.368759 1.74758e-37
26.2799 87.9332 382.014 -0.347335 0.866744 0.357929 1.74758e-37
25.8807 88.4663 380.342 -0.342788 0.872894 0.347207 1.74758e-37
24.6404 88.1207 379.084 -0.337326 0.876381 0.343756 1.74758e-37
22.9254 87.5758 379.125 -0.346707 0.872285 0.344838 1.74758e-37
21.2387 86.9488 379.169 -0.404616 0.849911 0.337545 1.74758e-37
19.6115 86.1849 379.076 -0.454052 0.826771 0.332093 1.74758e-37
18.0231 85.339 379.118 -0.496119 0.802358 0.331794 1.74758e-37
16.5466 84.3117 379.05 -0.532781 0.776763 0.335833 1.74758e-37
15.0417 83.3679 378.76 -0.565849 0.751551 0.339097 1.74758e-37
13.6093 82.2875 378.616 -0.599196 0.725023 0.339567 1.74758e-37
12.1739 81.2107 378.473 -0.631505 0.698764 0.336052 1.74758e-37
10.8607 80.052 378.057 -0.662927 0.673541 0.326911 1.74758e-37
9.60505 78.7797 377.846 -0.67631 0.662193 0.322652 1.74758e-37
8.34696 77.5638 377.423 -0.674105 0.664405 0.322721 1.74758e-37
7.0168 76.3514 377.398 -0.67166 0.665448 0.325655 1.74758e-37
5.68629 75.1414 377.323 -0.669237 0.666517 0.328445 1.74758e-37
4.32024 74.0517 376.891 -0.667116 0.668576 0.328577 1.74758e-37
3.0002 72.8599 376.614 -0.681314 0.655742 0.325291 1.74758e-37
1.72761 71.6621 376.183 -0.695699 0.641542 0.32315 1.74758e-37
0.50616 70.4737 375.603 -0.709816 0.626335 0.322282 1.74758e-37
-0.761767 69.3461 375.003 -0.723618 0.609813 0.323272 1.74758e-37
-1.93909 68.1829 374.295 -0.746237 0.58283 0.32162 1.74758e-37
-3.0451 66.9758 373.547 -0.774764 0.547162 0.316788 1.74758e-37
-4.25031 65.6804 373.216 -0.803405 0.506852 0.312477 1.74758e-37
-5.31585 64.3763 372.58 -0.829786 0.467009 0.305544 1.74758e-37
-6.24084 62.9573 371.971 -0.852856 0.428514 0.298351 1.74758e-37
-7.21838 61.5603 371.395 -0.869086 0.397319 0.294665 1.74758e-37
-8.04074 60.0483 370.868 -0.885952 0.361907 0.290021 1.74758e-37
-8.74509 58.5683 370.124 -0.902739 0.324272 0.282685 1.74758e-37
-9.29584 56.9431 369.58 -0.91771 0.286542 0.27514 1.74758e-37
-10.138 55.3878 369.246 -0.914621 0.28664 0.285141 1.74758e-37
-10.8843 53.8134 368.794 -0.911702 0.290355 0.290677 1.74758e-37
-11.2608 52.0793 368.492 -0.909794 0.295119 0.291854 1.74758e-37
-12.0026 50.4419 368.399 -0.908837 0.301594 0.288196 1.74758e-37
-11.7764 49.6598 370.004 -0.904199 0.307268 0.296666 1.74758e-37
-11.4559 49.0312 371.66 -0.900556 0.310868 0.303907 1.74758e-37
-10.996 48.4752 373.309 -0.897191 0.31314 0.311436 1.74758e-37
-10.5734 48.2095 375.038 -0.894639 0.311534 0.32026 1.74758e-37
-10.0473 47.8509 376.722 -0.892825 0.30795 0.328679 1.74758e-37
-9.57026 47.0145 378.243 -0.889478 0.309594 0.336125 1.74758e-37
-9.17938 46.8188 379.989 -0.890098 0.302839 0.340608 1.74758e-37
-8.89586 45.7717 381.425 -0.885748 0.307809 0.347425 1.74758e-37
-8.52942 44.9664 382.993 -0.883067 0.30892 0.353217 1.74758e-37
-8.34242 43.7858 384.339 -0.877525 0.31664 0.360124 1.74758e-37
-7.98698 43.0307 385.933 -0.874735 0.316707 0.366791 1.74758e-37
-7.77779 42.0637 387.437 -0.869947 0.314576 0.379782 1.74758e-37
-7.49149 41.1376 388.954 -0.865788 0.310939 0.392081 1.74758e-37
-7.12638 40.251 390.477 -0.862179 0.306057 0.403703 1.74758e-37
-6.86189 39.1241 391.856 -0.857373 0.303425 0.415745 1.74758e-37
-6.626 37.9316 393.183 -0.852447 0.300778 0.427629 1.74758e-37
-6.22858 36.9817 394.66 -0.849119 0.294784 0.43829 1.74758e-37
-6.04658 35.7366 395.947 -0.8441 0.29174 0.449871 1.74758e-37
-5.98157 34.3094 397.042 -0.837793 0.289414 0.462972 1.74758e-37
-5.71216 32.9696 398.213 -0.832295 0.284734 0.475617 1.74758e-37
-5.33314 31.7398 399.472 -0.827572 0.278145 0.487606 1.74758e-37
-5.00947 30.3739 400.598 -0.821912 0.272799 0.500041 1.74758e-37
-4.68723 29.1009 401.829 -0.816677 0.266214 0.512025 1.74758e-37
-4.45414 27.635 402.848 -0.809619 0.26237 0.525051 1.74758e-37
-4.21392 26.2028 403.911 -0.802319 0.25836 0.538084 1.74758e-37
-3.90071 24.8698 405.08 -0.796415 0.254197 0.548732 1.74758e-37
-3.52026 23.5992 406.296 -0.791971 0.247399 0.55819 1.74758e-37
-3.12986 22.2785 407.455 -0.78791 0.23855 0.567707 1.74758e-37
-2.49826 21.1571 408.714 -0.787991 0.223773 0.573582 1.74758e-37
-2.27834 19.6351 409.649 -0.783168 0.21095 0.584934 1.74758e-37
-1.85132 18.2092 410.662 -0.78195 0.190623 0.593479 1.74758e-37
-1.46421 16.7176 411.592 -0.781365 0.164207 0.602084 1.74758e-37
-0.686263 15.6054 412.774 -0.79088 0.13662 0.596526 1.74758e-37
-0.23259 14.1108 413.669 -0.797425 0.111996 0.592934 1.74758e-37
0.370979 12.9123 414.868 -0.807077 0.0904806 0.583473 1.74758e-37
1.03662 11.7321 416.053 -0.815413 0.0714665 0.574451 1.74758e-37
1.89791 10.7772 417.313 -0.822292 0.0584158 0.56606 1.74758e-37
2.74733 9.80084 418.564 -0.826254 0.0482843 0.561225 1.74758e-37
3.53365 8.84918 419.874 -0.827295 0.0415999 0.560225 1.74758e-37
4.52612 7.87029 421.013 -0.823135 0.0335691 0.566852 1.74758e-37
5.34439 7.58264 422.59 -0.810394 0.0351794 0.584828 1.74758e-37
6.32171 7.03782 424 -0.793849 0.0338735 0.607171 1.74758e-37
7.42651 6.66015 425.37 -0.772482 0.0345793 0.634095 1.74758e-37
8.55194 6.08708 426.652 -0.749243 0.0320872 0.661518 1.74758e-37
9.75525 5.73515 427.944 -0.722799 0.0316738 0.690332 1.74758e-37
10.988 5.51475 429.237 -0.695158 0.0330845 0.718095 1.74758e-37
12.265 4.84698 430.315 -0.672761 0.0279258 0.739333 1.74758e-37
13.5749 4.22783 431.383 -0.653602 0.0337363 0.756087 1.74758e-37
14.8092 4.02097 432.677 -0.626839 0.0478756 0.777676 1.74758e-37
16.1519 3.39625 433.7 -0.602834 0.0564673 0.795866 1.74758e-37
17.6144 3.09183 434.705 -0.5741 0.0685411 0.815912 1.74758e-37
19.0965 2.36936 435.427 -0.550308 0.0758902 0.831506 1.74758e-37
20.3926 2.48429 436.67 -0.520422 0.0879249 0.849371 1.74758e-37
21.8721 2.84809 437.629 -0.494526 0.096989 0.863734 1.74758e-37
23.461 3.04021 438.453 -0.494706 0.0822041 0.865164 1.74758e-37
24.9913 3.49264 439.285 -0.497681 0.0671147 0.86476 1.74758e-37
26.424 4.47662 439.754 -0.504435 0.0530942 0.861816 1.74758e-37
27.5376 5.7577 440.352 -0.512738 0.041703 0.857531 1.74758e-37
28.4125 7.0996 441.173 -0.503009 0.049905 0.862839 1.74758e-37
29.7401 8.22437 441.634 -0.482923 0.0651972 0.873232 1.74758e-37
31.2723 9.06353 442.068 -0.461545 0.077635 0.883713 1.74758e-37
32.7296 9.98867 442.578 -0.440332 0.0900292 0.89331 1.74758e-37
33.5861 11.4022 443.291 -0.423014 0.106319 0.899864 1.74758e-37
34.8463 12.5464 443.876 -0.395788 0.125056 0.909787 1.74758e-37
36.4602 13.0901 444.459 -0.36329 0.138496 0.921325 1.74758e-37
37.9773 13.9311 444.94 -0.329182 0.154707 0.931507 1.74758e-37
39.5869 14.664 445.275 -0.29245 0.170208 0.941011 1.74758e-37
41.3008 15.065 445.651 -0.266431 0.174232 0.947976 1.74758e-37
43.002 15.481 446.067 -0.251656 0.175097 0.951846 1.74758e-37
