# .PCD v0.7 - Point Cloud Data file format
# 4 150 0
# 1 30 0
# 31 89 0
# 90 126 0
# 127 150 0
VERSION 0.7
FIELDS x y z normal_x normal_y normal_z curvature
SIZE 4 4 4 4 4 4 4
TYPE F F F F F F F
COUNT 1 1 1 1 1 1 1
WIDTH 150
HEIGHT 1
VIEWPOINT 0 0 0 1 0 0 0
POINTS 150
DATA ascii
-195.665 -57.922 -1649.15 0.887071 -0.458193 -0.0562609 0.01
-196.178 -58.9884 -1648.08 0.868168 -0.490608 -0.0747523 1
-196.798 -60.2239 -1647.29 0.846334 -0.525768 -0.0853608 1
-197.63 -61.5286 -1646.92 0.831132 -0.54973 -0.0837693 1
-198.309 -62.7968 -1646.24 0.824565 -0.55737 -0.097111 1
-198.935 -64.0171 -1645.43 0.821733 -0.558813 -0.111726 1
-199.561 -65.2516 -1644.64 0.823174 -0.554662 -0.121388 1
-200.319 -66.4304 -1643.89 0.829446 -0.544534 -0.124508 1
-200.967 -67.5626 -1642.98 0.834655 -0.534525 -0.132795 1
-201.436 -68.6971 -1641.96 0.837665 -0.526351 -0.145848 1
-202.045 -69.7793 -1640.97 0.84092 -0.520031 -0.149738 1
-202.426 -70.7444 -1639.76 0.832793 -0.527383 -0.168293 1
-202.965 -71.884 -1638.79 0.834384 -0.524362 -0.169846 1
-203.569 -73.1688 -1638.07 0.845364 -0.511475 -0.154118 1
-203.827 -73.9047 -1636.68 0.824961 -0.530974 -0.193665 1
-204.038 -75.017 -1635.56 0.815965 -0.537654 -0.212439 1
-204.693 -76.0485 -1634.54 0.814458 -0.537544 -0.218412 1
-205.166 -77.1882 -1633.54 0.81234 -0.536492 -0.228647 1
-205.596 -78.232 -1632.42 0.807417 -0.536145 -0.246226 1
-205.927 -79.3293 -1631.31 0.803603 -0.534375 -0.26204 1
-206.399 -80.5622 -1630.42 0.80849 -0.525252 -0.265431 1
-207.052 -81.8355 -1629.72 0.819935 -0.510167 -0.259686 1
-207.42 -83.1948 -1628.98 0.828038 -0.496979 -0.25955 1
-208.264 -84.5249 -1628.75 0.848842 -0.472571 -0.236948 1
-208.929 -85.923 -1629.12 0.879288 -0.439924 -0.182534 1
-210.275 -88.7326 -1629.79 0.894794 -0.439171 -0.0804552 1
-211.083 -90.0207 -1630.26 0.896238 -0.440866 -0.0489305 1
-211.644 -91.285 -1629.47 0.891313 -0.451122 -0.0452759 1
-212.284 -92.4495 -1628.59 0.887412 -0.459168 -0.0407973 1
-212.837 -93.7881 -1627.93 0.887784 -0.459494 -0.0265443 1
-213.624 -95.1453 -1628.2 0.899946 -0.435901 0.00934841 1
-214.302 -96.5285 -1627.8 0.908077 -0.417296 0.0354921 1
-215.065 -97.8439 -1628.27 0.919104 -0.390322 0.0538194 1
-215.508 -99.133 -1627.45 0.920457 -0.385399 0.0650098 1
-216.222 -100.309 -1628.25 0.919119 -0.391334 0.0455885 1
-216.849 -101.769 -1628.35 0.915886 -0.399561 0.0387938 1
-217.429 -103.176 -1627.88 0.911836 -0.408532 0.0407125 1
-218.028 -104.646 -1627.77 0.906417 -0.420771 0.0368716 1
-218.644 -106.112 -1627.84 0.900508 -0.433747 0.0308056 1
-219.181 -107.611 -1627.81 0.897937 -0.438722 0.0351124 1
-219.805 -109.074 -1627.77 0.900219 -0.432501 0.0504909 1
-220.391 -110.551 -1627.86 0.905456 -0.419122 0.0669698 1
-221.104 -111.835 -1628.48 0.915285 -0.394898 0.0794354 1
-221.858 -113.225 -1628.66 0.926804 -0.363729 0.0934588 1
-222.358 -114.62 -1628.08 0.933339 -0.341749 0.109939 1
-222.793 -116.058 -1627.56 0.937171 -0.325322 0.126 1
-223.317 -117.483 -1627.08 0.937723 -0.319557 0.136232 1
-223.824 -118.669 -1626.15 0.935399 -0.325605 0.13788 1
-224.473 -120.079 -1626.5 0.929756 -0.344682 0.129418 1
-224.954 -121.492 -1627.05 0.922579 -0.366116 0.121683 1
-225.519 -122.952 -1627.34 0.914477 -0.387432 0.116742 1
-225.836 -124.052 -1628.45 0.909367 -0.401677 0.108199 1
-226.338 -125.559 -1628.55 0.902736 -0.417589 0.10338 1
-226.761 -126.768 -1629.5 0.894933 -0.440475 0.0712483 1
-227.028 -127.778 -1630.7 0.88891 -0.457008 0.031351 0.01
-227.381 -128.267 -1632.17 0.882094 -0.470765 -0.0170467 1
-227.682 -128.495 -1633.72 0.872782 -0.483523 -0.0667588 1
-227.845 -128.177 -1635.27 0.868482 -0.487618 -0.0892566 1
-227.629 -127.296 -1636.57 0.860417 -0.499757 -0.0996286 1
-227.789 -126.985 -1638.13 0.855936 -0.505691 -0.107933 1
-227.671 -126.232 -1639.52 0.848773 -0.51735 -0.109237 1
-226.855 -125.028 -1640.17 0.84259 -0.529038 -0.100807 1
-226.337 -123.994 -1641.27 0.837894 -0.538366 -0.0899766 1
-225.473 -122.767 -1641.8 0.842447 -0.534303 -0.0692997 1
-225.074 -122.027 -1643.15 0.849525 -0.5235 -0.0652291 1
-224.308 -120.983 -1644.07 0.865969 -0.496361 -0.0610166 1
-223.718 -120.065 -1645.23 0.875844 -0.478624 -0.0617848 1
-223.258 -118.654 -1645.81 0.891256 -0.450262 -0.0540952 1
-222.712 -117.483 -1646.74 0.900438 -0.431755 -0.0528996 1
-222.239 -116.274 -1647.66 0.90766 -0.416311 -0.0532825 1
-221.774 -115.188 -1648.72 0.910485 -0.409719 -0.0560978 1
-221.388 -114 -1649.71 0.90797 -0.416416 -0.0467672 1
-221.052 -113.003 -1650.91 0.903257 -0.427004 -0.0423616 1
-220.686 -112.255 -1652.26 0.8968 -0.440413 -0.0422703 1
-220.222 -111.392 -1653.52 0.891286 -0.45174 -0.0392414 1
-219.781 -110.256 -1654.54 0.887524 -0.459683 -0.0315057 1
-219.324 -109.235 -1655.67 0.882532 -0.469512 -0.0263913 1
-218.954 -108.535 -1657.05 0.875665 -0.482019 -0.0294827 1
-218.525 -107.522 -1658.2 0.87454 -0.48387 -0.0323902 1
-218.078 -106.501 -1659.34 0.873888 -0.484936 -0.0340189 1
-217.638 -105.495 -1660.49 0.873381 -0.485774 -0.0350697 1
-217.046 -104.678 -1661.72 0.872281 -0.487615 -0.0368388 1
-216.342 -104.207 -1663.07 0.869385 -0.492411 -0.0412388 1
-216.198 -103.193 -1664.29 0.868182 -0.494464 -0.0420072 1
-215.835 -101.955 -1665.22 0.870599 -0.490658 -0.03623 1
-215.489 -101.281 -1666.62 0.865711 -0.499173 -0.0370325 1
-215.114 -100.397 -1667.89 0.862583 -0.504744 -0.0344091 1
-214.438 -99.3045 -1668.83 0.86375 -0.503326 -0.024476 1
-213.727 -98.2442 -1669.78 0.864928 -0.501694 -0.0142341 1
-213.38 -97.381 -1671.07 0.861134 -0.508235 -0.0120613 1
-213.04 -97.0534 -1672.59 0.851931 -0.523275 -0.0199393 1
-212.625 -96.4302 -1674 0.845069 -0.534148 -0.0233152 1
-212.116 -95.9427 -1675.43 0.840064 -0.541481 -0.0330389 1
-211.618 -94.9803 -1676.59 0.842494 -0.537447 -0.0368008 1
-210.974 -94.1001 -1677.75 0.845159 -0.533037 -0.0397227 1
-210.424 -93.0338 -1678.8 0.849973 -0.525392 -0.0388536 1
-209.831 -91.9955 -1679.85 0.854983 -0.517319 -0.0372249 1
-209.31 -90.9218 -1680.9 0.860104 -0.508923 -0.0348996 1
-208.917 -89.7475 -1681.9 0.866099 -0.498932 -0.0306541 1
-208.52 -88.9122 -1683.2 0.869208 -0.494155 -0.0169578 1
-208.146 -87.7501 -1684.22 0.870425 -0.492299 -0.00104378 1
-207.62 -87.0077 -1685.52 0.871606 -0.489668 0.0229803 1
-207.118 -86.57 -1686.97 0.8704 -0.489947 0.0485385 1
-206.492 -86.0459 -1688.34 0.867496 -0.492288 0.0714413 1
-206.026 -85.2648 -1689.64 0.863491 -0.495722 0.0929677 1
-205.505 -84.9441 -1691.11 0.856151 -0.504722 0.110729 1
-205.03 -84.2528 -1692.46 0.855704 -0.503223 0.120572 1
-204.632 -83.5231 -1693.82 0.86725 -0.484209 0.115839 1
-204.146 -83.0971 -1695.28 0.873943 -0.473185 0.110995 1
-203.554 -82.7351 -1696.71 0.879195 -0.464394 0.106562 1
-202.975 -82.0954 -1698.05 0.885178 -0.453514 0.103854 1
-202.448 -81.1022 -1699.17 0.891828 -0.439994 0.105111 1
-201.797 -80.4324 -1700.46 0.89132 -0.434585 0.129172 1
-201.567 -78.915 -1700.88 0.89054 -0.426856 0.157267 0.01
-201.106 -78.0632 -1699.62 0.911223 -0.393791 0.120834 1
-200.969 -77.3583 -1698.2 0.918333 -0.375234 0.125955 1
-201.167 -76.8559 -1696.7 0.924331 -0.354872 0.140276 1
-201.198 -76.0488 -1695.33 0.933219 -0.317655 0.167922 1
-201.334 -76.0677 -1693.75 0.931977 -0.329535 0.151079 1
-200.919 -74.9744 -1692.67 0.93302 -0.333195 0.135851 1
-200.719 -74.366 -1691.21 0.932308 -0.339311 0.125176 1
-200.64 -73.5887 -1689.82 0.931249 -0.344548 0.118584 1
-200.628 -72.8645 -1688.4 0.928674 -0.353923 0.110922 1
-200.434 -71.986 -1687.09 0.925053 -0.366797 0.0986723 1
-200.252 -71.2043 -1685.72 0.921294 -0.379194 0.0861981 1
-199.996 -70.3107 -1684.43 0.917416 -0.391215 0.0727859 1
-199.643 -69.4756 -1683.12 0.91368 -0.402001 0.0598668 1
-199.642 -68.9433 -1681.62 0.912154 -0.405888 0.0568329 1
-199.832 -68.8118 -1680.04 0.909864 -0.411142 0.055765 1
-199.407 -67.6505 -1679.04 0.909479 -0.412684 0.0503987 1
-198.924 -66.5379 -1678.01 0.909226 -0.413883 0.0448247 1
-198.42 -65.5309 -1676.88 0.909285 -0.414186 0.0406271 1
-198.127 -64.8551 -1675.47 0.909253 -0.414251 0.0406731 0.413141
-197.902 -64.2883 -1674 0.908822 -0.415121 0.0414249 0.959755
-197.718 -63.7443 -1672.52 0.908195 -0.416375 0.0425904 0.812082
-197.423 -63.0665 -1671.11 0.907997 -0.416739 0.0432539 1
-197.494 -62.7472 -1669.55 0.907206 -0.417908 0.0482705 1
-197.246 -62.1381 -1668.1 0.908451 -0.414899 0.0507544 1
-196.833 -61.3467 -1666.78 0.911652 -0.407883 0.0502291 1
-196.717 -60.8124 -1665.29 0.914084 -0.402795 0.0469755 1
-196.756 -60.4697 -1663.73 0.915762 -0.400004 0.0371132 1
-196.64 -59.9682 -1662.23 0.91733 -0.397541 0.0215907 1
-196.436 -59.3641 -1660.77 0.918408 -0.3955 0.0103555 1
-195.808 -58.2956 -1659.77 0.922928 -0.384972 -0.000393578 1
-195.765 -58.0603 -1658.2 0.919541 -0.392979 -0.00334112 1
-195.798 -58.0294 -1656.61 0.913453 -0.406938 -0.00237005 1
-195.675 -57.7981 -1655.04 0.908588 -0.417674 -0.00409011 1
-195.119 -56.9866 -1653.78 0.91027 -0.413793 -0.0135168 1
-195.315 -57.2127 -1652.22 0.903695 -0.42779 -0.0181733 1
-195.414 -57.4762 -1650.65 0.897039 -0.440757 -0.0324604 1
