# .PCD v0.7 - Point Cloud Data file format
# 7 194 0
# 1 9 0
# 10 40 0
# 41 79 0
# 80 139 0
# 140 173 0
# 174 189 0
# 190 194 0
VERSION 0.7
FIELDS x y z normal_x normal_y normal_z curvature
SIZE 4 4 4 4 4 4 4
TYPE F F F F F F F
COUNT 1 1 1 1 1 1 1
WIDTH 194
HEIGHT 1
VIEWPOINT 0 0 0 1 0 0 0
POINTS 194
DATA ascii
-25.6419 189.114 -1581.58 0.128817 -0.492273 -0.860856 0.01
-26.3762 187.254 -1581.47 0.172945 -0.499196 -0.849054 1
-27.0867 185.377 -1581.31 0.225362 -0.455609 -0.861181 1
-27.6894 183.452 -1581.32 -0.513343 0.462531 0.722872 1
-28.3363 181.563 -1581.1 -0.742446 -0.583143 0.329724 1
-29.01 179.695 -1580.75 0.432002 0.259712 -0.863669 1
-64.0067 180.521 -1523.27 -0.749115 -0.429293 0.504514 1
-64.2862 182.442 -1522.73 -0.771852 -0.367469 0.518855 1
-64.6259 184.337 -1522.13 -0.778412 -0.249297 0.576131 1
-65.0643 186.188 -1521.46 -0.738565 -0.0146857 0.674023 1
-65.2387 188.162 -1521.33 -0.637824 0.303291 0.707952 1
-65.253 190.084 -1521.56 -0.46243 0.565764 0.682693 1
-64.7852 191.409 -1523.01 -0.636645 0.682397 0.35919 1
-64.3123 192.465 -1524.63 -0.286983 0.839335 0.46169 1
-63.8344 193.265 -1526.42 -0.731536 0.648296 -0.211109 0.01
-62.9986 194.063 -1528.06 -0.470372 0.881072 -0.0496276 1
-62.0534 194.98 -1529.56 -0.483258 0.858504 -0.17156 1
-60.9302 196.224 -1530.68 -0.372447 0.910838 -0.177927 1
-59.986 197.086 -1532.18 -0.950086 0.0060378 -0.31193 1
-59.1374 197.729 -1533.89 -0.953228 0.011079 -0.302048 1
-58.2115 197.912 -1535.68 -0.95824 0.0397538 -0.28319 1
-57.3519 198.38 -1537.4 -0.963283 0.071822 -0.258704 1
-56.5903 199.271 -1539.04 -0.50319 0.583534 0.637408 1
-55.8244 199.814 -1540.82 -0.432525 0.748617 0.502489 1
-55.1069 200.355 -1542.6 -0.962248 0.0735793 -0.262039 1
-54.65 201.395 -1544.27 -0.309942 0.528501 0.790331 1
-54.1538 202.098 -1546.06 -0.161268 0.618016 0.769447 1
-53.624 202.513 -1547.97 -0.0351745 0.645895 0.762616 1
-52.927 203.222 -1549.72 -0.0230367 0.675289 0.737193 1
-52.1322 203.959 -1551.41 -0.0236397 0.708322 0.705494 1
-51.1391 204.701 -1553 -0.0256125 0.739923 0.672204 1
-50.0572 205.374 -1554.56 -0.0332563 0.771685 0.635134 1
-48.9319 206.023 -1556.11 -0.0427238 0.811608 0.582638 1
-47.8052 206.83 -1557.57 -0.053696 0.865255 0.498447 1
-46.7376 207.553 -1559.12 -0.062729 0.927957 0.367371 1
-45.749 208.165 -1560.76 -0.0616325 0.981526 0.181128 1
-44.9067 208.855 -1562.46 -0.142596 0.972718 -0.182989 1
-44.0786 209.538 -1564.17 -0.181038 0.897888 -0.401275 1
-43.1586 210.101 -1565.87 -0.216865 0.844635 -0.489451 1
-42.511 210.071 -1567.69 -0.294055 0.776717 -0.556994 1
-42.0751 209.579 -1569.59 -0.56025 0.573315 0.597855 1
-41.6088 210.056 -1571.48 -0.643913 0.657268 0.391632 1
-41.1347 210.644 -1573.35 -0.661868 0.749372 0.0193077 1
-40.6478 211.336 -1575.18 -0.532711 0.771767 -0.347268 1
-40.0966 212.312 -1576.84 -0.490239 0.767011 -0.413956 1
-39.5509 213.177 -1578.34 -0.566048 0.639904 -0.519723 0.01
-39.4139 211.187 -1578.63 -0.267072 0.65227 -0.709377 1
-39.2249 209.224 -1579.04 -0.288715 0.55207 -0.782216 1
-38.9733 207.295 -1579.57 -0.316094 0.464665 -0.827146 1
-38.8578 205.32 -1579.95 -0.377555 0.382445 -0.84332 1
-38.7713 203.337 -1580.3 -0.445919 0.307225 -0.840696 1
-38.691 201.362 -1580.71 -0.0353185 0.64502 -0.763349 1
-38.6162 199.39 -1581.12 -0.0933597 0.443136 -0.89158 1
-38.5451 197.421 -1581.55 -0.428696 0.0786804 -0.900016 1
-38.5081 195.462 -1582.03 -0.368971 0.0129426 -0.929351 1
-38.4827 193.503 -1582.51 -0.29883 -0.0571618 -0.952593 1
-38.477 191.547 -1583 -0.223488 -0.122728 -0.966949 1
-38.5019 189.586 -1583.47 -0.147068 -0.171522 -0.974141 1
-38.5424 187.621 -1583.93 -0.067678 -0.185606 -0.980291 1
-38.6164 185.64 -1584.29 0.0271476 -0.109177 -0.993652 1
-38.7204 183.659 -1584.66 0.134666 0.290319 -0.947407 1
-38.8572 181.68 -1585.02 0.115035 0.485995 -0.866358 1
-39.0147 179.7 -1585.37 0.11887 0.497347 -0.85937 1
-39.1376 177.712 -1585.63 0.116011 0.477275 -0.871063 1
-39.1363 175.696 -1585.57 0.107163 0.430407 -0.896251 1
-39.0593 173.716 -1585.84 0.17289 0.368 -0.913611 1
-38.9348 171.758 -1586.31 0.54097 0.232786 -0.808184 1
-39.0013 169.748 -1586.17 -0.924776 0.293473 -0.242206 1
-38.9385 167.788 -1586.34 0.0194398 -0.0664415 -0.997601 1
-38.6525 165.916 -1587.03 -0.00179868 -0.119909 -0.992783 1
-38.4516 163.945 -1587.33 0.0948291 -0.176744 -0.979678 1
-38.1921 161.967 -1587.43 0.143181 -0.114334 -0.98307 1
-37.3278 160.164 -1587.17 0.210005 0.0429142 -0.976758 1
-36.3475 158.42 -1586.95 0.274969 0.186107 -0.943269 1
-35.2531 156.735 -1586.77 0.335664 0.276322 -0.900542 1
-34.094 155.161 -1586.29 0.389913 0.326028 -0.861205 1
-32.7763 153.797 -1585.75 0.439798 0.355067 -0.824928 1
-31.0329 152.987 -1585.14 0.489715 0.367235 -0.79077 1
-30.6691 151.497 -1585.31 0.493172 0.381633 -0.781753 1
-31.0896 149.623 -1585.92 0.47141 0.366235 -0.802275 1
-31.7315 147.746 -1586.29 0.420549 0.273588 -0.865036 1
-32.7177 146.13 -1586.73 0.0341393 -0.146881 -0.988565 1
-34.2311 144.915 -1587.27 -0.0401881 0.93487 -0.352707 1
-35.8073 143.786 -1587.83 -0.41268 0.149413 0.898538 1
-37.2722 142.805 -1588.02 -0.0565771 0.97826 0.199515 0.01
-38.008 142.51 -1586.16 0.101271 0.981809 -0.16061 1
-38.7741 142.71 -1584.37 -0.705612 -0.708595 0.00216484 1
-39.5669 143.35 -1582.63 -0.644864 -0.726761 0.236575 1
-40.378 143.795 -1580.84 -0.610153 -0.734306 0.297502 1
-41.1927 144.271 -1579.05 -0.585259 -0.741436 0.328244 1
-42.0115 144.872 -1577.31 0.130426 0.969447 -0.207751 1
-42.8231 145.424 -1575.55 0.0878589 0.979139 -0.183212 1
-43.6306 145.965 -1573.78 0.0417852 0.96956 -0.241261 1
-44.4285 146.818 -1572.14 0.00131917 0.947809 -0.318835 1
-45.2222 147.61 -1570.47 -0.0341293 0.91168 -0.409481 1
-46.0102 148.319 -1568.75 -0.0626978 0.863471 -0.500486 1
-46.7869 149.017 -1567.02 -0.0830552 0.808867 -0.582096 1
-47.521 149.676 -1565.27 -0.0927251 0.755145 -0.648966 1
-48.0701 150.164 -1563.39 -0.427606 -0.773908 0.467139 1
-48.604 150.653 -1561.51 -0.409775 -0.814063 0.411565 1
-49.1258 151.143 -1559.62 -0.391951 -0.843783 0.366613 1
-49.6282 151.673 -1557.74 -0.372911 -0.867784 0.328464 1
-50.1036 152.276 -1555.88 -0.0826944 0.894853 -0.438633 1
-50.5225 153.038 -1554.06 -0.0195307 0.858126 -0.513068 1
-50.9735 153.67 -1552.2 0.00595905 0.835306 -0.549752 1
-51.4354 154.248 -1550.33 0.0164652 0.821537 -0.569917 1
-51.8476 154.889 -1548.46 0.0265324 0.813705 -0.580672 1
-52.2584 155.531 -1546.59 0.0370286 0.808983 -0.586665 1
-52.6675 156.174 -1544.73 -0.346516 -0.929349 0.127426 1
-53.8112 156.804 -1543.24 -0.398513 -0.904568 0.151474 1
-55.1705 157.359 -1542.36 -0.456004 -0.864068 0.213184 1
-56.7609 157.626 -1543.57 -0.477859 -0.854931 0.201851 1
-57.775 158.293 -1543.11 -0.516462 -0.822583 0.237958 1
-58.3714 159.25 -1541.44 -0.553458 -0.766317 0.326256 1
-58.9129 160.325 -1539.82 -0.571555 -0.704965 0.419939 1
-59.3336 161.564 -1538.32 -0.563883 -0.656942 0.500463 1
-59.5206 163.116 -1537.04 -0.520548 -0.655924 0.54662 1
-59.9555 164.429 -1535.6 -0.430131 -0.7341 0.525437 1
-60.4624 165.691 -1534.12 -0.358011 -0.789851 0.49796 1
-60.7024 167.394 -1533.07 -0.331472 -0.805525 0.491179 1
-61.1702 168.749 -1531.75 -0.346788 -0.794915 0.497843 1
-61.8942 169.713 -1530.13 -0.403794 -0.76135 0.507244 1
-62.5077 171.119 -1528.84 -0.589087 -0.665845 0.457851 1
-63.019 172.618 -1527.61 -0.672224 -0.603876 0.428309 1
-63.2492 174.166 -1526.33 -0.456743 -0.672537 0.582306 1
-62.7474 175.343 -1524.93 -0.501687 -0.631163 0.59156 1
-61.7678 176.277 -1523.43 -0.421031 -0.638365 0.644378 1
-60.2408 176.702 -1522.19 -0.35554 -0.658909 0.662895 1
-58.6752 176.997 -1520.96 -0.316331 -0.676239 0.665309 1
-57.0579 177.077 -1519.76 -0.286496 -0.698819 0.655418 1
-55.3482 177.113 -1518.69 -0.263126 -0.728555 0.632434 1
-53.6092 177.12 -1517.67 -0.250389 -0.76489 0.593505 1
-51.895 177.015 -1516.62 -0.256566 -0.804227 0.53609 1
-50.872 177.684 -1515.41 -0.307506 -0.740714 0.597313 1
-50.552 179.141 -1514.05 -0.37799 -0.71036 0.593727 1
-49.7118 180.767 -1513.26 -0.525403 -0.505265 0.684587 1
-48.821 182.43 -1512.55 -0.798263 -0.324598 0.507358 1
-48.003 184.13 -1511.83 -0.891907 0.354707 0.280508 1
-47.3522 185.871 -1511.06 -0.91095 0.411451 0.0296506 1
-46.8002 187.636 -1510.26 -0.273883 -0.495314 -0.82441 1
-46.309 189.522 -1509.74 -0.990067 0.109561 -0.0881166 1
-45.9238 191.45 -1509.49 -0.994595 0.00319601 -0.10378 1
-45.7068 193.447 -1509.68 -0.989375 -0.0440117 -0.138567 1
-46.1115 195.382 -1509.57 -0.984006 -0.072716 -0.162621 1
-46.6255 197.174 -1509.65 -0.978631 -0.0871537 -0.186238 0.01
-46.6479 198.218 -1511.38 -0.97235 -0.0750955 -0.221125 1
-46.308 198.897 -1513.18 -0.968401 -0.0649181 -0.2408 1
-45.6351 199.239 -1515.05 -0.966742 -0.0559746 -0.249555 1
-45.2782 199.849 -1516.93 -0.964407 -0.0530292 -0.25905 1
-44.9527 200.495 -1518.81 -0.961325 -0.0558154 -0.269703 1
-44.6164 201.159 -1520.69 -0.956454 -0.060134 -0.285622 1
-44.0886 201.766 -1522.53 -0.94921 -0.0625768 -0.308358 1
-43.4558 202.344 -1524.36 -0.940034 -0.0632479 -0.335164 1
-42.6973 202.912 -1526.14 -0.939037 -0.0599601 -0.338548 1
-42.0263 203.583 -1527.91 -0.93948 -0.0582251 -0.33762 1
-41.4804 204.398 -1529.67 -0.942311 -0.0624721 -0.328857 1
-40.7529 205.03 -1531.44 -0.948043 -0.0706607 -0.310198 1
-39.9755 205.605 -1533.21 -0.955875 -0.08692 -0.280622 1
-39.1893 206.14 -1534.99 -0.963853 -0.115227 -0.240227 1
-38.3184 206.503 -1536.76 -0.96675 -0.151768 -0.205816 1
-37.3772 206.723 -1538.53 -0.957051 -0.180929 -0.226537 1
-36.6613 207.219 -1540.35 -0.878704 -0.0925935 -0.468302 1
-36.0582 207.848 -1542.15 -0.802528 -0.0385914 -0.595365 1
-35.673 208.73 -1543.93 -0.791638 -0.0117845 -0.610877 1
-34.9259 209.299 -1545.68 -0.800316 0.0090589 -0.59951 1
-34.0258 209.743 -1547.43 -0.83135 0.021248 -0.555343 1
-33.3967 210.53 -1549.17 -0.902985 -0.036906 -0.428085 1
-32.7359 211.297 -1550.92 -0.919949 -0.0567723 -0.387906 1
-32.0344 212.039 -1552.66 -0.917898 -0.0654876 -0.391375 1
-31.1657 212.652 -1554.37 -0.909255 -0.0708414 -0.410167 1
-30.2459 213.222 -1556.07 -0.896377 -0.0750949 -0.436886 1
-29.2716 213.732 -1557.76 -0.87958 -0.0776226 -0.469376 1
-28.4574 214.415 -1559.46 -0.873615 -0.0902956 -0.478167 1
-27.7633 215.228 -1561.17 -0.875359 -0.112693 -0.470156 1
-26.8346 215.686 -1562.9 -0.878201 -0.132865 -0.459466 1
-25.9055 216.142 -1564.63 -0.880488 -0.158992 -0.446612 1
-25.0012 216.634 -1566.37 -0.880071 -0.197781 -0.431691 1
-24.0749 216.969 -1568.12 -0.875982 -0.258259 -0.407379 1
-23.1302 217.071 -1569.73 -0.882085 -0.359113 -0.304899 0.01
-22.0849 215.349 -1569.64 -0.849917 -0.3018 -0.431924 1
-21.3333 213.52 -1569.73 -0.793061 -0.230925 -0.563674 1
-20.9235 211.567 -1570.02 -0.690502 -0.122482 -0.712885 1
-21.0719 209.619 -1570.46 -0.516693 0.10008 -0.850301 1
-21.2896 207.79 -1571.13 -0.110113 0.324306 -0.939522 1
-21.3759 206.386 -1572.58 0.061228 0.228636 -0.971585 1
-21.6282 204.826 -1573.8 0.135165 0.15118 -0.979222 1
-21.9927 203.16 -1574.88 0.211867 0.113545 -0.97068 1
-22.4524 201.561 -1576.02 0.401622 0.164934 -0.900831 1
-22.8879 199.932 -1577.12 0.808721 0.462841 -0.362973 1
-23.2745 198.245 -1578.16 0.790946 0.547588 -0.273043 1
-23.687 196.466 -1579 0.753534 0.588367 -0.293275 1
-24.1026 194.65 -1579.78 0.690738 0.537888 -0.483278 1
-24.4667 192.802 -1580.5 0.435276 0.0730046 -0.897332 1
-24.9773 190.956 -1581.1 0.189177 -0.353648 -0.916049 1
