# .PCD v0.7 - Point Cloud Data file format
# 4 99 0
# 1 16 0
# 17 50 0
# 51 82 0
# 83 99 0
VERSION 0.7
FIELDS x y z normal_x normal_y normal_z curvature
SIZE 4 4 4 4 4 4 4
TYPE F F F F F F F
COUNT 1 1 1 1 1 1 1
WIDTH 99
HEIGHT 1
VIEWPOINT 0 0 0 1 0 0 0
POINTS 99
DATA ascii
-176.255 179.392 -1399.25 -0.22072 0.547411 -0.807232 0.01
-176.932 177.673 -1400.12 -0.169615 0.622321 -0.764165 1
-177.61 175.954 -1400.98 -0.673898 0.199042 -0.711508 1
-178.104 174.042 -1401.33 -0.504489 0.1429 -0.851511 1
-178.518 172.047 -1401.45 -0.356315 0.313336 -0.880261 1
-178.923 170.05 -1401.53 -0.350751 0.271716 -0.896183 1
-179.301 168.045 -1401.49 -0.326817 0.193909 -0.924981 1
-179.679 166.04 -1401.44 -0.304514 0.154638 -0.939871 1
-180.129 164.055 -1401.55 -0.288043 0.139707 -0.947372 1
-180.598 162.073 -1401.69 -0.274114 0.16203 -0.947949 1
-181.039 160.099 -1401.92 -0.265549 0.182582 -0.946651 1
-181.429 158.136 -1402.32 -0.262057 0.197395 -0.944649 1
-181.819 156.173 -1402.72 -0.265358 0.209324 -0.941153 1
-180.907 154.533 -1403.38 -0.245506 0.224403 -0.943064 1
-179.85 152.93 -1404.07 -0.230801 0.254067 -0.939245 1
-178.873 151.26 -1404.71 -0.269748 -0.150817 0.951047 1
-177.995 149.511 -1405.29 -0.24327 0.319771 -0.915733 1
-177.117 147.761 -1405.87 -0.31455 0.331067 -0.889636 1
-175.724 117.969 -1405.29 0.202187 0.79593 0.570628 1
-175.521 116.791 -1403.64 0.0908368 0.924428 0.37038 1
-175.317 115.613 -1401.98 -0.183476 0.885956 -0.425932 1
-175.135 114.382 -1400.37 -0.19552 0.373703 0.906707 1
-174.969 113.108 -1398.78 -0.149096 0.405991 0.901633 1
-174.802 111.838 -1397.19 -0.105488 0.451313 0.886109 1
-174.625 110.605 -1395.57 -0.0598723 0.497001 0.865682 1
-174.448 109.372 -1393.96 -0.0141591 0.540871 0.840987 1
-174.268 108.156 -1392.33 0.0216456 0.579997 0.814331 1
-174.088 106.948 -1390.69 0.02893 0.617947 0.785687 1
-173.902 105.756 -1389.05 -0.0644439 0.680895 0.72954 1
-173.696 104.627 -1387.36 -0.105243 0.17659 0.978642 1
-173.49 103.499 -1385.67 0.14821 0.0191872 0.98877 1
-173.26 102.45 -1383.94 -0.23053 0.374915 0.897939 1
-173.021 101.427 -1382.19 -0.421836 0.524917 0.739267 1
-172.689 100.996 -1380.45 -0.715015 0.495923 0.492761 0.01
-172.137 101.947 -1378.73 -0.91677 0.368612 0.15381 1
-171.586 102.898 -1377.01 -0.9464 0.322681 0.0142837 1
-171.024 104.344 -1375.71 -0.948102 0.316867 -0.026434 1
-170.459 105.878 -1374.49 -0.944979 0.327114 0.00326045 1
-169.936 107.415 -1373.25 -0.934842 0.342785 0.0925721 1
-169.474 108.957 -1372 -0.905881 0.358483 0.225543 1
-169.012 110.499 -1370.75 -0.843261 0.352577 0.405708 1
-169.941 112.111 -1369.98 -0.843085 0.19984 0.499272 1
-170.945 113.727 -1369.24 -0.288349 -0.752901 0.591604 1
-171.78 115.372 -1368.39 -0.170909 -0.782816 0.598322 1
-172.448 117.045 -1367.43 -0.0644723 -0.7248 0.685937 1
-173.108 118.72 -1366.47 0.0512212 -0.419238 0.90643 1
-173.637 120.447 -1365.52 0.102132 -0.330748 0.938176 1
-174.165 122.174 -1364.57 0.113505 -0.309385 0.944138 1
-174.59 123.888 -1363.55 0.110175 -0.30452 0.946113 1
-174.945 125.593 -1362.49 0.0981997 -0.307162 0.946577 1
-175.187 127.3 -1361.43 -0.00364977 -0.270319 0.962764 1
-174.788 129.012 -1360.4 0.0151528 -0.320231 0.947218 1
-174.388 130.725 -1359.36 -0.0182172 -0.382074 0.923952 1
-173.909 132.572 -1358.68 -0.106565 -0.414067 0.903987 1
-173.396 134.477 -1358.16 -0.179434 -0.407182 0.895548 1
-172.854 136.215 -1357.39 -0.217815 -0.372736 0.902011 1
-172.222 137.457 -1355.9 -0.268391 -0.336598 0.90259 1
-171.591 138.698 -1354.41 -0.569359 -0.515373 0.640485 1
-171.043 140.431 -1353.58 -0.635446 -0.463093 0.617862 1
-170.516 142.287 -1352.91 -0.704782 -0.396548 0.588246 1
-170.069 144.024 -1352.01 -0.739473 -0.350003 0.575046 1
-169.774 145.543 -1350.68 -0.70767 -0.349384 0.614113 1
-169.478 147.062 -1349.35 -0.667859 -0.349765 0.656984 1
-169.294 148.62 -1348.05 -0.648963 -0.336242 0.682487 1
-169.121 150.183 -1346.75 -0.630196 -0.310225 0.711768 1
-168.916 151.934 -1345.84 -0.635209 -0.213681 0.742192 1
-168.671 153.914 -1345.41 -0.637922 -0.0180922 0.769889 1
-168.425 155.895 -1344.99 -0.525824 0.301188 0.795484 0.01
-168.457 157.339 -1346.43 -0.433908 0.580522 0.688998 1
-168.488 158.782 -1347.87 -0.412017 0.696131 0.587914 1
-168.613 160.27 -1349.26 0.349741 0.893549 0.281518 1
-168.817 161.795 -1350.6 -0.426333 0.773989 0.468167 1
-168.985 163.265 -1351.99 0.600077 0.797284 0.0651581 1
-168.84 164.243 -1353.77 0.433083 0.893915 0.115562 1
-168.695 165.22 -1355.56 0.618209 0.785903 -0.0131968 1
-168.734 166.514 -1357.1 -0.096002 0.979885 0.174952 1
-168.871 167.978 -1358.52 -0.28056 -0.100024 0.954611 1
-169.038 169.424 -1359.95 0.124836 0.654411 0.745763 1
-169.324 170.798 -1361.43 0.188376 0.771092 0.60822 1
-169.61 172.173 -1362.91 0.16384 0.808529 0.565188 1
-169.886 173.607 -1364.33 0.13689 0.830031 0.540657 1
-170.157 175.062 -1365.74 0.213204 0.855047 0.472693 1
-170.442 176.544 -1367.11 0.273501 0.816563 0.508352 1
-170.761 178.089 -1368.41 0.189205 0.497281 0.846707 1
-171.079 179.635 -1369.7 0.167689 0.446436 0.878963 1
-171.51 180.025 -1371.58 -0.110855 0.874268 0.472617 1
-171.96 180.21 -1373.56 0.130098 0.756734 0.640647 1
-172.305 180.406 -1375.56 -0.453866 0.814683 0.360966 1
-172.493 180.618 -1377.58 -1.51254e-05 0.983504 0.180888 1
-172.68 180.83 -1379.6 0.132618 0.984384 0.115759 1
-172.94 180.872 -1381.62 0.199709 0.974492 0.102376 1
-173.204 180.905 -1383.65 -0.458761 -0.882113 0.10684 1
-173.454 180.846 -1385.67 -0.371214 -0.926009 0.068615 1
-173.691 180.697 -1387.69 -0.315999 -0.947305 0.0525146 1
-173.926 180.559 -1389.71 -0.279316 -0.959035 0.0472629 1
-174.118 180.655 -1391.74 0.391537 0.865927 0.311237 1
-174.31 180.752 -1393.77 0.401631 0.833864 0.378634 1
-174.82 180.511 -1395.69 0.37149 0.820472 0.434535 1
-175.54 180.045 -1397.55 -0.0799851 0.648851 -0.7567 1
