# .PCD v0.7 - Point Cloud Data file format
# 4 43 0
# 1 3 0
# 4 12 0
# 13 39 0
# 40 43 0
VERSION 0.7
FIELDS x y z normal_x normal_y normal_z curvature
SIZE 4 4 4 4 4 4 4
TYPE F F F F F F F
COUNT 1 1 1 1 1 1 1
WIDTH 43
HEIGHT 1
VIEWPOINT 0 0 0 1 0 0 0
POINTS 43
DATA ascii
35.5256 -164.646 -1407.27 0.588232 -0.37343 0.71731 0.01
34.4401 -165.42 -1406.65 0.431247 -0.443468 0.785724 1
32.6471 -165.508 -1405.58 0.341248 -0.399743 0.850738 1
31.3292 -164.176 -1405.01 0.312993 -0.259883 0.913508 1
30.1114 -162.544 -1404.55 0.316828 -0.144185 0.93746 1
12.01 -124.87 -1441.98 0.988646 -0.149307 -0.0169417 1
12.219 -124.159 -1440.03 0.983177 -0.177572 -0.0428014 1
12.4827 -123.443 -1438.09 0.978476 -0.190815 -0.0785709 0.01
13.0059 -122.703 -1436.2 0.97393 -0.195545 -0.114993 1
13.5256 -121.885 -1434.36 0.654745 -0.718399 0.234972 1
14.0391 -120.923 -1432.58 0.960752 -0.213911 -0.17663 1
14.5346 -119.916 -1430.81 0.952369 -0.22964 -0.200647 1
15.0135 -118.865 -1429.07 0.945444 -0.244566 -0.21523 1
15.5783 -118.015 -1427.26 0.940648 -0.243551 -0.236358 1
16.1808 -117.251 -1425.41 0.934517 -0.232433 -0.269541 1
16.8895 -117.667 -1423.54 0.919766 -0.125681 -0.3718 1
17.6121 -118.272 -1421.68 0.764356 0.203531 -0.611829 0.01
18.2888 -119.179 -1419.93 0.315148 0.560385 -0.765931 1
18.9397 -120.251 -1418.3 0.201314 0.171314 0.96443 1
19.4982 -121.913 -1417.17 0.151653 0.0552534 0.986888 1
19.9493 -123.726 -1416.36 0.0868338 0.181678 0.979517 1
20.2333 -125.772 -1416.05 0.0865564 0.204955 0.974937 1
20.5441 -127.81 -1415.72 0.122074 0.152162 0.980788 1
20.8757 -129.841 -1415.36 0.170862 0.0644855 0.983182 1
21.1576 -131.901 -1415.2 0.207066 0.129337 0.96974 1
21.422 -133.971 -1415.11 0.214123 0.236177 0.947825 1
21.8949 -135.896 -1414.48 0.202575 0.350792 0.91428 1
22.5106 -137.715 -1413.86 0.181338 0.459358 0.869544 1
24.4171 -138.557 -1414 0.198122 0.518414 0.831862 1
26.3014 -139.444 -1414.07 0.26465 0.514694 0.815506 1
28.1233 -140.458 -1413.94 0.414211 0.448316 0.792113 1
29.4501 -141.834 -1413.57 0.599023 -0.589991 -0.541371 1
30.1334 -143.683 -1412.87 0.151331 0.380562 0.912289 1
30.7925 -145.532 -1412.16 0.367397 0.751591 -0.547842 1
31.4361 -147.383 -1411.44 0.446159 0.518922 0.729152 1
32.063 -149.24 -1410.72 0.375377 0.549557 0.746378 1
32.6854 -151.1 -1410 0.41132 0.593784 0.691546 1
33.2598 -152.83 -1408.98 0.712442 0.490382 0.501949 1
33.8198 -154.58 -1407.99 0.654107 0.517046 0.552094 1
34.2974 -156.493 -1407.3 0.880724 0.422668 0.213721 1
34.7196 -158.453 -1406.84 0.714375 0.464922 0.522986 1
35.0151 -160.52 -1406.89 0.518019 0.123059 0.846471 1
35.2845 -162.585 -1407.03 0.589366 -0.180582 0.787424 1
