# .PCD v0.7 - Point Cloud Data file format
# 4 116 0
# 1 36 0
# 37 67 0
# 68 103 0
# 104 116 0
VERSION 0.7
FIELDS x y z normal_x normal_y normal_z curvature
SIZE 4 4 4 4 4 4 4
TYPE F F F F F F F
COUNT 1 1 1 1 1 1 1
WIDTH 116
HEIGHT 1
VIEWPOINT 0 0 0 1 0 0 0
POINTS 116
DATA ascii
-30.4176 145.023 -1586.99 -0.877951 0.0776124 -0.472418 0.01
-31.3168 144.507 -1585.02 -0.877611 0.0812267 -0.472442 1
-32.581 143.34 -1583.59 -0.882122 0.0730633 -0.465319 1
-33.4852 143.644 -1581.57 -0.892493 0.0807348 -0.443777 1
-34.1861 144.467 -1579.62 -0.904848 0.0915928 -0.415765 1
-34.6549 145.878 -1577.96 -0.916343 0.10641 -0.385996 1
-35.3918 146.08 -1575.86 -0.932845 0.11264 -0.342217 1
-36.3609 145.797 -1573.87 -0.948791 0.118867 -0.292686 1
-37.2976 145.629 -1571.85 -0.957151 0.0967662 -0.272944 1
-38.4451 145.367 -1569.95 -0.959594 0.0752004 -0.271153 1
-38.4828 146.607 -1568.1 -0.957243 0.0319992 -0.287511 1
-38.7238 147.33 -1566 -0.949629 0.0215552 -0.312633 1
-39.2195 147.954 -1563.91 -0.937407 0.02805 -0.347105 1
-39.9301 149.16 -1562.17 -0.929947 0.0121884 -0.367492 1
-41.395 149.265 -1558.59 -0.902683 0.0648369 -0.425394 1
-42.6465 149.818 -1556.83 -0.892745 0.071851 -0.444797 1
-43.3522 150.749 -1554.92 -0.887201 0.0649442 -0.456789 1
-44.2149 151.83 -1553.17 -0.883726 0.0524402 -0.465058 1
-45.0944 152.918 -1551.43 -0.888587 0.0479572 -0.456194 1
-45.8261 153.951 -1549.59 -0.900927 0.0567702 -0.430241 1
-46.7741 154.541 -1547.66 -0.911485 0.0664055 -0.405938 1
-47.3651 155.157 -1545.6 -0.920345 0.0745931 -0.383928 1
-48.1834 154.866 -1543.54 -0.926779 0.077878 -0.367445 1
-48.9287 154.99 -1541.44 -0.930415 0.0823588 -0.357133 1
-49.9044 155.141 -1539.44 -0.931111 0.0891512 -0.353673 1
-50.2772 156.475 -1537.69 -0.931633 0.108632 -0.346785 1
-50.6506 158.019 -1536.12 -0.931697 0.131458 -0.338615 1
-51.0405 159.939 -1535.05 -0.931528 0.157409 -0.327839 1
-50.9484 161.948 -1534.08 -0.930988 0.184815 -0.31481 1
-51.0952 163.411 -1532.4 -0.929197 0.211786 -0.302887 1
-51.2827 164.882 -1530.73 -0.92657 0.238098 -0.291166 1
-51.7845 166.023 -1528.88 -0.923935 0.259273 -0.281284 1
-51.5407 167.529 -1527.25 -0.922136 0.279034 -0.267963 1
-51.5065 169.098 -1525.66 -0.92103 0.295088 -0.254216 1
-51.7321 169.864 -1523.58 -0.920449 0.307563 -0.241204 1
-51.6652 171.092 -1521.71 -0.920953 0.318116 -0.225049 1
-51.687 172.717 -1520.18 -0.92125 0.328806 -0.207811 1
-51.378 174.337 -1518.68 -0.920578 0.341456 -0.189589 1
-50.8612 176.107 -1517.42 -0.918377 0.356801 -0.171106 1
-50.4776 177.859 -1516.09 -0.913428 0.377569 -0.151958 1
-50.3282 179.139 -1514.27 -0.906089 0.40147 -0.133504 1
-49.538 180.93 -1513.19 -0.893699 0.436023 -0.105761 1
-48.9039 182.626 -1511.89 -0.889524 0.449192 -0.0835085 1
-47.8859 184.563 -1511.44 -0.891432 0.445152 -0.0847934 1
-47.1197 186.251 -1510.2 -0.905019 0.417697 -0.0804306 1
-46.4202 188.212 -1509.4 -0.927364 0.361971 -0.0947278 1
-45.7919 190.323 -1509.76 -0.945255 0.286103 -0.156964 1
-45.5886 192.546 -1509.77 -0.97431 0.0870919 -0.20769 1
-46.1009 194.697 -1509.46 -0.942583 -0.241579 -0.230602 1
-46.4223 196.904 -1509.56 -0.828784 -0.501984 -0.247241 0.01
-46.7123 198.257 -1511.31 -0.750459 -0.601043 -0.274879 1
-46.5397 199.037 -1513.4 -0.715963 -0.632221 -0.296131 1
-46.4131 199.826 -1515.48 -0.692598 -0.64039 -0.331978 1
-46.3415 200.778 -1517.5 -0.661751 -0.660048 -0.355559 1
-46.2401 201.528 -1519.6 -0.636142 -0.677135 -0.36988 1
-45.0615 201.87 -1521.47 -0.653138 -0.651732 -0.385558 1
-44.6002 202.658 -1523.5 -0.626686 -0.666961 -0.403024 1
-44.3483 203.556 -1525.53 -0.583021 -0.687645 -0.432701 1
-43.2493 204.069 -1527.41 -0.566297 -0.666426 -0.484958 1
-42.5165 204.822 -1529.38 -0.537866 -0.671287 -0.509974 1
-42.4944 205.753 -1531.41 -0.506913 -0.706426 -0.493965 1
-41.3354 206.322 -1533.23 -0.543768 -0.697698 -0.466406 1
-40.2694 206.84 -1535.12 -0.578578 -0.691288 -0.432861 1
-39.8799 207.519 -1537.21 -0.57856 -0.697528 -0.422756 1
-39.0589 208.104 -1539.2 -0.590804 -0.686174 -0.424401 1
-38.2342 208.668 -1541.2 -0.59026 -0.681695 -0.432301 1
-37.3071 209.224 -1543.15 -0.578919 -0.682313 -0.446432 1
-36.4166 209.843 -1545.1 -0.548153 -0.697044 -0.462232 1
-35.4287 210.546 -1546.98 -0.53203 -0.699519 -0.477093 1
-34.682 211.186 -1548.98 -0.535147 -0.679519 -0.501868 1
-33.6016 211.76 -1550.85 -0.558824 -0.652619 -0.511669 1
-32.2071 212.079 -1552.56 -0.604618 -0.609933 -0.512267 1
-31.7679 213.1 -1554.5 -0.581285 -0.637566 -0.505586 1
-30.6032 213.661 -1556.32 -0.59668 -0.626567 -0.501385 1
-30.2994 214.644 -1558.3 -0.565208 -0.654881 -0.501669 1
-29.1673 215.303 -1560.11 -0.56117 -0.651543 -0.510471 1
-27.9504 215.784 -1561.92 -0.562604 -0.645698 -0.516286 1
-26.9466 216.405 -1563.81 -0.582936 -0.639731 -0.500928 1
-26.1978 217.157 -1565.78 -0.581508 -0.646461 -0.493899 1
-25.6679 217.904 -1567.81 -0.558504 -0.659573 -0.503028 1
-23.7796 217.651 -1568.97 -0.595578 -0.587016 -0.548361 0.01
-22.4327 215.871 -1568.97 -0.712641 -0.413796 -0.566494 1
-21.3347 213.957 -1569.31 -0.820615 -0.158246 -0.549136 1
-20.9051 211.851 -1569.91 -0.863655 0.103646 -0.493314 1
-21.1287 209.653 -1570.23 -0.855643 0.271032 -0.440927 1
-21.5544 207.635 -1571.09 -0.824632 0.382176 -0.417041 1
-21.44 205.988 -1572.59 -0.787382 0.445196 -0.426415 1
-21.8525 204.304 -1574 -0.763401 0.483929 -0.427822 1
-22.426 202.484 -1575.16 -0.753283 0.497328 -0.430383 1
-22.6821 200.941 -1576.75 -0.758537 0.480081 -0.440617 1
-23.2898 198.979 -1577.62 -0.780836 0.447596 -0.435836 1
-23.6206 197.107 -1578.79 -0.795045 0.424118 -0.433622 1
-23.5371 195.185 -1579.93 -0.804364 0.406378 -0.433423 1
-24.0264 193.346 -1581.09 -0.816834 0.385724 -0.428952 1
-24.9824 191.538 -1581.99 -0.834364 0.359663 -0.417708 1
-25.8074 189.465 -1582.07 -0.858251 0.324803 -0.397377 1
-26.6297 187.39 -1582.09 -0.868923 0.305876 -0.389118 1
-27.1404 185.241 -1581.76 -0.875586 0.287718 -0.388029 1
-27.8234 183.116 -1581.7 -0.881679 0.261014 -0.393081 1
-28.4886 181.021 -1581.31 -0.887341 0.228861 -0.40031 1
-28.8776 178.824 -1581.23 -0.892006 0.191068 -0.409656 1
-29.0381 176.661 -1581.76 -0.894192 0.159671 -0.418242 1
-29.7157 174.569 -1581.38 -0.896321 0.137354 -0.421594 1
-29.7705 172.423 -1581.99 -0.896809 0.117248 -0.4266 1
-30.2773 170.259 -1581.79 -0.898178 0.100665 -0.427952 1
-30.3763 168.028 -1581.77 -0.897964 0.0859456 -0.431594 1
-30.3643 165.834 -1582.18 -0.894339 0.0771864 -0.440682 1
-30.6838 163.627 -1582.29 -0.890737 0.0744988 -0.448372 1
-30.8835 161.452 -1581.83 -0.888547 0.0796845 -0.451812 1
-30.2681 159.967 -1583.38 -0.884701 0.0876108 -0.457851 1
-30.3807 157.86 -1584.11 -0.883777 0.107404 -0.455415 1
-30.219 155.734 -1584.77 -0.88074 0.124519 -0.456937 1
-30.3062 153.504 -1584.79 -0.881294 0.126494 -0.455324 0.610105
-30.0913 151.54 -1585.83 -0.881301 0.121969 -0.456544 1
-30.2917 149.317 -1585.87 -0.88112 0.11248 -0.45932 1
-30.3289 147.11 -1586.2 -0.879876 0.0980725 -0.464973 1
