# .PCD v0.7 - Point Cloud Data file format
# 4 175 0
# 1 2 0
# 3 118 0
# 119 166 0
# 167 175 0
VERSION 0.7
FIELDS x y z normal_x normal_y normal_z curvature
SIZE 4 4 4 4 4 4 4
TYPE F F F F F F F
COUNT 1 1 1 1 1 1 1
WIDTH 175
HEIGHT 1
VIEWPOINT 0 0 0 1 0 0 0
POINTS 175
DATA ascii
-82.0175 -80.2824 -1393.95 -0.40217 0.747156 0.529166 0.01
-82.7201 -79.4759 -1395.66 -0.288778 0.770871 0.567772 1
-83.7011 -78.9439 -1397.31 -0.194277 0.833199 0.517722 1
-84.8486 -78.5618 -1398.92 -0.176935 0.94542 0.273634 1
-86.1428 -78.4145 -1400.37 -0.244913 0.95267 -0.180104 1
-87.7883 -79.2018 -1401.22 -0.41015 0.743611 -0.528034 1
-89.6323 -79.9359 -1401.41 -0.49643 0.631903 -0.595194 1
-91.4188 -80.7684 -1401.74 -0.565201 0.556993 -0.608528 1
-93.0822 -81.7886 -1402.17 -0.619941 0.498995 -0.605538 1
-94.601 -83.079 -1402.45 -0.662565 0.44918 -0.59937 1
-101.7 -125.237 -1334.67 0.248947 0.669104 0.700233 1
-101.642 -123.586 -1335.82 0.229051 0.727822 0.646383 0.01
-101.653 -122.123 -1337.19 0.206735 0.777254 0.594254 1
-101.674 -120.741 -1338.65 0.182605 0.817442 0.5463 1
-101.667 -119.359 -1340.11 0.177413 0.790242 0.586551 1
-101.66 -117.959 -1341.56 0.173864 0.760978 0.625048 1
-101.683 -116.651 -1343.09 0.170324 0.737575 0.653432 1
-101.73 -115.407 -1344.67 0.168196 0.720095 0.673182 1
-101.783 -114.181 -1346.26 0.169573 0.707205 0.686372 1
-101.808 -112.905 -1347.81 0.176399 0.696949 0.695087 1
-101.774 -111.425 -1349.18 0.194738 0.599845 0.776056 1
-101.729 -109.892 -1350.48 0.216314 0.514114 0.829997 1
-101.681 -108.366 -1351.79 0.243262 0.446792 0.86093 1
-101.632 -106.871 -1353.13 0.276665 0.397329 0.874978 1
-101.566 -105.294 -1354.38 0.316812 0.362475 0.876494 1
-101.369 -103.544 -1355.34 0.366069 0.362189 0.857212 1
-100.869 -101.713 -1355.78 0.416914 0.405678 0.813393 1
-100.129 -99.8551 -1355.93 0.462737 0.444325 0.767105 1
-99.3992 -98.0321 -1356.36 0.507052 0.480726 0.715403 1
-99.3544 -96.3228 -1357.41 0.544895 0.511558 0.664377 1
-99.6161 -95.1131 -1358.91 0.579513 0.537186 0.612859 1
-99.9166 -93.8905 -1360.41 0.610163 0.558264 0.562176 1
-100.065 -92.2868 -1361.6 0.632715 0.568791 0.525499 1
-100.313 -91.1699 -1363.25 0.65784 0.551032 0.51343 1
-100.463 -89.8773 -1364.78 0.675519 0.538311 0.503881 1
-100.472 -88.4169 -1366.15 0.687616 0.52935 0.496964 1
-100.376 -86.824 -1367.38 0.694906 0.523743 0.492747 1
-100.297 -85.183 -1368.54 0.697546 0.521493 0.491401 1
-99.6569 -83.3817 -1369.13 0.698163 0.521044 0.491001 1
-99.9549 -82.4034 -1370.45 0.700872 0.519559 0.48871 1
-100.656 -81.7885 -1372.22 0.706871 0.516033 0.48378 1
-101.113 -81.0213 -1374.02 0.716958 0.509686 0.475596 1
-101.64 -80.5887 -1375.91 0.730091 0.493905 0.472255 1
-102.317 -80.4019 -1377.79 0.740713 0.47754 0.472546 1
-102.989 -80.2631 -1379.68 0.749158 0.459955 0.476659 1
-103.601 -80.0892 -1381.59 0.754431 0.441066 0.486101 1
-104.183 -79.8688 -1383.51 -0.995676 -0.0692993 0.0618627 1
-104.885 -79.9909 -1385.38 0.0105142 0.502445 -0.864545 1
-105.629 -80.2391 -1387.23 0.0338039 0.513469 -0.857442 1
-106.404 -80.5924 -1389.06 -0.0260665 0.553714 -0.832299 1
-107.206 -81.0504 -1390.84 -0.298008 0.587999 -0.751963 1
-108.054 -81.6632 -1392.56 -0.448482 0.576673 -0.682871 1
-108.946 -82.5196 -1394.14 -0.929238 0.306724 -0.206003 1
-109.889 -83.5975 -1395.54 -0.945523 -0.134155 0.296629 1
-110.873 -84.8617 -1396.75 -0.914387 -0.032835 0.403508 1
-111.853 -86.2322 -1397.85 0.189113 0.428955 -0.883309 1
-112.848 -87.6918 -1398.81 -0.700274 0.595601 0.393542 1
-113.844 -89.1775 -1399.73 0.21768 0.725601 -0.652778 1
-114.836 -90.6853 -1400.62 0.063219 0.986594 -0.15045 1
-115.816 -92.221 -1401.48 -0.0542648 0.98618 -0.156537 1
-116.777 -93.821 -1402.23 -0.20445 0.955365 -0.213257 1
-117.741 -95.4018 -1403.02 -0.441138 0.847056 -0.296467 1
-118.705 -96.9755 -1403.82 -0.408214 -0.559391 0.721418 1
-119.67 -98.5496 -1404.62 -0.340174 -0.515297 0.786607 1
-120.638 -100.127 -1405.41 -0.355099 -0.428339 0.830922 1
-121.613 -101.702 -1406.19 -0.309832 -0.34195 0.887172 1
-122.511 -103.324 -1406.97 -0.185973 -0.268483 0.945162 1
-123.354 -104.991 -1407.71 -0.0954265 -0.00422791 0.995427 1
-124.196 -106.684 -1408.4 -0.533505 0.175407 -0.827408 1
-125.03 -108.412 -1409.01 -0.557088 0.0667903 -0.827763 1
-125.639 -110.294 -1409.2 -0.668285 -0.0515192 -0.742119 1
-126.433 -112.055 -1408.96 -0.777098 -0.18613 -0.601227 1
-127.599 -113.556 -1408.3 -0.836665 -0.28917 -0.465158 1
-128.703 -115.003 -1407.44 -0.857229 -0.362376 -0.365843 1
-129.196 -116.816 -1406.8 -0.840054 -0.443343 -0.312661 1
-129.503 -118.633 -1406.01 -0.81675 -0.511238 -0.267498 1
-129.658 -120.331 -1404.98 -0.794742 -0.558843 -0.23681 1
-129.56 -121.844 -1403.65 -0.792077 -0.534702 -0.294462 1
-129.202 -123.131 -1402.15 -0.794822 -0.497037 -0.348157 1
-128.963 -124.55 -1400.75 -0.799044 -0.452046 -0.396463 1
-128.623 -125.936 -1399.35 -0.803311 -0.40325 -0.438271 1
-128.069 -127.208 -1397.9 -0.806433 -0.355262 -0.472711 1
-127.706 -128.696 -1396.59 -0.80853 -0.321826 -0.492654 1
-127.311 -130.198 -1395.31 -0.811784 -0.339655 -0.475017 1
-126.908 -131.731 -1394.08 -0.811939 -0.361505 -0.458333 1
-126.494 -133.29 -1392.87 -0.808816 -0.386998 -0.442773 1
-126.05 -134.855 -1391.69 -0.802346 -0.415569 -0.428419 1
-125.599 -136.448 -1390.55 -0.792238 -0.446848 -0.415554 1
-124.976 -137.954 -1389.38 -0.778479 -0.479945 -0.404505 1
-124.276 -139.45 -1388.23 -0.760583 -0.516316 -0.393612 1
-123.58 -140.995 -1387.14 -0.739479 -0.558981 -0.375115 1
-122.77 -142.453 -1386.02 -0.717523 -0.59952 -0.354595 1
-122.417 -143.492 -1384.38 -0.702515 -0.630515 -0.330035 1
-122.267 -144.439 -1382.62 -0.689696 -0.657796 -0.302694 1
-122.186 -145.345 -1380.82 -0.677907 -0.682458 -0.2733 1
-122.052 -146.07 -1378.95 -0.667723 -0.703996 -0.24194 1
-121.932 -146.719 -1377.05 0.137547 0.805755 0.576056 1
-121.824 -147.305 -1375.13 -0.676194 -0.699508 -0.231195 1
-121.755 -147.809 -1373.19 -0.691743 -0.682107 -0.237111 1
-121.685 -148.244 -1371.24 -0.715078 -0.656084 -0.24128 1
-120.8 -149.01 -1369.6 -0.71492 -0.645112 -0.269667 1
-119.874 -149.738 -1367.97 -0.713691 -0.630531 -0.305083 1
-118.964 -150.502 -1366.35 0.0342536 0.729795 0.682807 1
-118.063 -151.298 -1364.74 -0.670917 -0.658199 -0.341532 1
-117.079 -152.02 -1363.14 -0.581038 -0.787499 -0.205523 1
-116.06 -152.719 -1361.55 -0.42406 -0.890477 0.164996 1
-115.029 -153.416 -1359.97 -0.278977 -0.665751 0.692061 1
-113.893 -154.011 -1358.43 -0.202653 -0.691423 0.693445 1
-112.558 -154.402 -1356.98 -0.131178 -0.695442 0.706507 1
-111.24 -154.877 -1355.53 -0.0756388 -0.691201 0.718693 1
-109.784 -155.175 -1354.18 -0.0306503 -0.682634 0.730117 1
-108.565 -154.975 -1352.71 -0.00362153 -0.665363 0.746511 1
-107.673 -154.277 -1351.04 0.00866568 -0.642832 0.765959 1
-106.805 -153.603 -1349.36 0.0166625 -0.624776 0.780626 1
-105.839 -152.681 -1347.86 -0.0282942 -0.748433 0.662606 1
-104.868 -152.005 -1346.25 -0.13871 -0.858328 0.493997 1
-103.871 -151.448 -1344.6 -0.278432 -0.911853 0.301663 1
-102.805 -150.743 -1343.05 -0.367931 -0.918813 0.142863 1
-101.68 -150.11 -1341.5 -0.403239 -0.914159 0.0413617 1
-100.471 -149.31 -1340.11 -0.40638 -0.913656 0.00933074 1
-99.2233 -148.511 -1338.76 -0.393524 -0.918811 0.0304345 1
-97.9622 -147.841 -1337.34 -0.367256 -0.927243 0.0731003 1
-96.6805 -147.449 -1335.84 -0.324628 -0.93476 0.144361 1
-95.3842 -147.003 -1334.37 -0.273763 -0.931315 0.240223 1
-94.0717 -146.495 -1332.93 -0.229892 -0.902456 0.364311 1
-92.6824 -145.954 -1331.59 -0.221246 -0.765284 0.604476 1
-91.1295 -145.424 -1330.43 -0.230018 0.275458 0.933389 1
-89.5722 -145.167 -1329.18 -0.255603 0.441787 0.859937 0.01
-90.0149 -144.695 -1329.86 -0.128641 0.716248 0.685886 1
-90.3752 -143.648 -1330.97 0.0245251 0.866513 0.498553 1
-89.5805 -141.94 -1331.63 0.101124 0.903533 0.416416 1
-89.2387 -140.265 -1332.7 0.185316 0.887117 0.422706 1
-89.3643 -138.766 -1334.01 0.310621 0.793768 0.522921 1
-89.233 -137.18 -1335.19 0.480009 0.478731 0.735125 1
-89.0364 -135.585 -1336.32 0.532604 0.402861 0.744336 1
-89.4148 -134.227 -1337.76 0.556828 0.432558 0.709109 1
-89.7027 -132.826 -1339.17 0.570737 0.461234 0.679355 1
-89.857 -131.352 -1340.53 0.573816 0.487579 0.658029 1
-89.7534 -129.788 -1341.76 0.566122 0.509751 0.647811 1
-89.4357 -128.167 -1342.88 0.547891 0.526002 0.65049 1
-89.7889 -126.783 -1344.29 -0.926004 -0.156307 -0.343633 1
-89.5216 -125.177 -1345.43 -0.871713 -0.371039 -0.320073 1
-89.0446 -123.539 -1346.49 -0.840146 -0.437581 -0.320434 1
-88.515 -121.921 -1347.56 -0.823356 -0.464296 -0.326364 1
-88.0266 -120.32 -1348.68 -0.811453 -0.478688 -0.335264 1
-88.0163 -118.826 -1350.02 -0.803574 -0.484428 -0.345831 1
-87.8619 -117.252 -1351.26 -0.801928 -0.481875 -0.35314 1
-87.7305 -115.703 -1352.52 -0.806421 -0.475326 -0.35178 1
-87.7073 -114.252 -1353.89 -0.814185 -0.468557 -0.342866 1
-87.0023 -112.661 -1354.9 -0.823633 -0.460587 -0.330889 1
-86.6011 -111.179 -1356.18 -0.835332 -0.450364 -0.315267 1
-86.4886 -109.807 -1357.63 -0.841719 -0.441928 -0.310177 1
-86.4416 -108.479 -1359.11 -0.848465 -0.430363 -0.308051 1
-85.9112 -107.031 -1360.41 -0.851971 -0.415961 -0.317997 1
-86.0534 -105.785 -1361.97 -0.899497 -0.357961 -0.250537 1
-85.8739 -104.466 -1363.45 -0.918306 -0.24852 -0.308141 1
-85.3251 -103.075 -1364.77 -0.916075 -0.171561 -0.362455 1
-84.482 -101.646 -1365.9 -0.910321 -0.136449 -0.390765 1
-83.7143 -100.23 -1367.11 -0.922212 -0.230073 -0.310792 1
-83.4111 -98.836 -1368.5 -0.906797 -0.13281 -0.400101 1
-83.4492 -97.5514 -1370.03 -0.925845 -0.246075 -0.286806 1
-83.6303 -96.3506 -1371.63 -0.927649 -0.275748 -0.251852 1
-83.5114 -95.0532 -1373.16 -0.60319 0.510037 0.613207 1
-82.6698 -93.6958 -1374.36 -0.68292 0.469458 0.55967 1
-82.127 -92.3679 -1375.73 -0.731465 0.461765 0.501729 1
-81.8589 -91.0946 -1377.26 -0.758721 0.476806 0.443844 1
-81.7194 -89.9003 -1378.87 -0.770887 0.504069 0.389421 1
-82.1628 -88.9791 -1380.6 -0.756485 0.551306 0.351842 1
-82.1015 -87.8601 -1382.24 -0.749361 0.574212 0.329757 1
-82.0635 -86.7812 -1383.92 -0.730824 0.602144 0.321432 1
-82.1358 -85.7809 -1385.65 -0.710737 0.62854 0.315896 1
-81.733 -84.5946 -1387.22 -0.680224 0.664244 0.309958 1
-81.5253 -83.4509 -1388.86 -0.650371 0.694247 0.308282 1
-81.63 -82.3844 -1390.55 -0.599134 0.726087 0.337396 1
-81.8749 -81.349 -1392.26 -0.49834 0.741605 0.449087 1
