# .PCD v0.7 - Point Cloud Data file format
# 3 30 0
# 1 8 0
# 9 28 0
# 29 30 0
VERSION 0.7
FIELDS x y z normal_x normal_y normal_z curvature
SIZE 4 4 4 4 4 4 4
TYPE F F F F F F F
COUNT 1 1 1 1 1 1 1
WIDTH 30
HEIGHT 1
VIEWPOINT 0 0 0 1 0 0 0
POINTS 30
DATA ascii
46.8618 -98.68 -1633.11 0.972668 -0.217776 0.0805621 0.01
46.7981 -98.9023 -1632.95 0.975406 -0.2089 0.0703197 1
46.7344 -99.1247 -1632.8 0.978064 -0.199634 0.0594681 1
46.699 -96.415 -1635.54 -0.851003 -0.491713 -0.184424 1
46.7803 -96.246 -1635.75 -0.0161071 0.99984 0.00778036 1
46.8615 -96.077 -1635.95 -0.665454 -0.670907 -0.327193 1
46.9428 -95.908 -1636.16 -0.670102 -0.667399 -0.324872 1
47.0241 -95.739 -1636.36 0.0353183 0.995984 0.0822761 1
47.1054 -95.57 -1636.57 -0.679198 -0.660229 -0.320606 1
47.1867 -95.401 -1636.77 0.059306 0.98439 0.165707 1
47.2679 -95.232 -1636.98 0.0601669 0.983563 0.170249 0.01
47.2824 -95.3549 -1636.9 0.0604277 0.983319 0.171559 1
47.2747 -95.5752 -1636.73 -0.6728 -0.665313 -0.323572 1
47.267 -95.7954 -1636.56 -0.663058 -0.672671 -0.328432 1
47.2592 -96.0157 -1636.39 -0.652929 -0.679768 -0.334065 1
47.2515 -96.2359 -1636.22 -0.873417 -0.442382 -0.20357 1
47.2437 -96.4562 -1636.05 -0.868192 -0.454266 -0.199714 1
47.236 -96.6764 -1635.88 -0.871235 -0.44795 -0.200725 1
47.2296 -96.8366 -1635.67 -0.780302 -0.606424 -0.152901 1
47.2247 -96.9368 -1635.41 -0.701996 -0.35194 -0.619144 1
47.2197 -97.0369 -1635.15 -0.605193 -0.69191 -0.393702 1
47.2147 -97.1371 -1634.89 -0.869057 -0.453363 -0.197997 1
47.2098 -97.2372 -1634.63 0.955287 -0.251809 0.15498 1
47.2048 -97.3374 -1634.37 0.957449 -0.248869 0.146135 1
47.1998 -97.4375 -1634.11 0.959645 -0.245711 0.136777 1
47.1802 -97.5682 -1633.88 0.961761 -0.24252 0.127281 1
47.1165 -97.7906 -1633.72 0.963561 -0.239796 0.118527 1
47.0528 -98.0129 -1633.57 0.965355 -0.236956 0.109278 1
46.9892 -98.2353 -1633.41 0.967106 -0.234038 0.0996576 1
46.9255 -98.4576 -1633.26 0.969838 -0.226421 0.0902673 1
