# .PCD v0.7 - Point Cloud Data file format
# 4 59 0
# 1 13 0
# 14 22 0
# 23 55 0
# 56 59 0
VERSION 0.7
FIELDS x y z normal_x normal_y normal_z curvature
SIZE 4 4 4 4 4 4 4
TYPE F F F F F F F
COUNT 1 1 1 1 1 1 1
WIDTH 59
HEIGHT 1
VIEWPOINT 0 0 0 1 0 0 0
POINTS 59
DATA ascii
-195.096 -68.4813 -1643.9 0.585567 -0.65846 -0.472802 0.01
-196.869 -68.9215 -1642.97 0.601677 -0.649263 -0.465234 1
-198.642 -69.3617 -1642.04 0.621859 -0.642931 -0.447136 1
-200.416 -69.8018 -1641.12 0.643231 -0.644578 -0.413246 1
-202.189 -70.242 -1640.19 0.668938 -0.642739 -0.373375 1
-194.567 -83.283 -1700.92 0.166764 0.867589 0.468486 1
-195.118 -84.0233 -1699.09 0.853318 0.477664 -0.209012 1
-195.67 -84.7637 -1697.26 0.440325 -0.785709 -0.434483 1
-196.221 -85.5041 -1695.43 0.0428271 -0.940024 -0.33841 1
-196.773 -86.2445 -1693.6 -0.0412788 -0.94515 -0.324017 1
-197.378 -87.0128 -1691.8 -0.07363 -0.939275 -0.335173 1
-197.992 -87.7858 -1690.01 -0.0703623 -0.919557 -0.386605 1
-198.605 -88.5588 -1688.21 -0.0694733 -0.889793 -0.451045 1
-199.219 -89.3318 -1686.42 -0.0825553 -0.855885 -0.510535 1
-200.754 -89.0315 -1686.05 -0.128724 -0.847787 -0.514478 1
-202.657 -88.3019 -1686.26 -0.167909 -0.846535 -0.505159 1
-204.56 -87.5723 -1686.47 -0.194824 -0.843708 -0.5002 1
-206.464 -86.8427 -1686.68 -0.214145 -0.840266 -0.498092 0.01
-206.884 -86.051 -1687.76 -0.224648 -0.848407 -0.479311 1
-206.192 -85.2128 -1689.5 -0.2336 -0.866109 -0.441912 1
-205.5 -84.3746 -1691.24 -0.244845 -0.885137 -0.395706 1
-204.807 -83.5364 -1692.97 -0.257111 -0.907469 -0.332257 1
-204.075 -82.5742 -1694.62 -0.254944 -0.921195 -0.293945 1
-203.29 -81.4467 -1696.14 -0.246632 -0.928626 -0.277177 1
-202.505 -80.3192 -1697.66 -0.140344 -0.943404 -0.300487 1
-201.719 -79.1917 -1699.18 0.108518 -0.928142 -0.356057 1
-201.009 -78.1854 -1699.73 0.458153 0.888486 0.026235 0.01
-200.487 -77.4823 -1697.88 0.027685 -0.946299 -0.322106 1
-199.965 -76.7792 -1696.03 -0.214172 -0.933268 -0.288343 1
-199.443 -76.0761 -1694.17 -0.207701 -0.935824 -0.28477 1
-198.893 -75.3733 -1692.33 -0.202997 -0.932989 -0.297193 1
-198.172 -74.6722 -1690.55 -0.188853 -0.930913 -0.312627 1
-197.452 -73.9711 -1688.76 -0.166055 -0.929978 -0.327972 1
-196.731 -73.27 -1686.98 -0.124712 -0.932045 -0.340206 1
-196.011 -72.5689 -1685.19 0.431423 0.561016 -0.706495 1
-195.096 -71.9559 -1683.46 0.43452 0.57681 -0.691725 1
-194.182 -71.343 -1681.73 0.447078 0.608055 -0.656041 1
-193.268 -70.73 -1680.01 0.466467 0.638135 -0.612529 1
-192.354 -70.117 -1678.28 0.499433 0.667818 -0.551893 1
-192.355 -69.2095 -1676.48 0.531839 0.71117 -0.459765 1
-192.509 -68.2529 -1674.68 0.609056 0.754529 -0.244412 1
-192.663 -67.2963 -1672.87 0.595793 0.766972 -0.238296 1
-192.817 -66.3397 -1671.07 0.711303 0.692449 0.120677 1
-193.491 -65.1704 -1669.58 0.641877 0.647231 -0.411201 1
-194.373 -63.9159 -1668.22 0.504454 0.788967 -0.350796 1
-195.256 -62.6615 -1666.86 0.433969 0.821738 -0.369348 1
-196.138 -61.4071 -1665.5 0.393756 0.831392 -0.392101 1
-196.417 -60.5628 -1663.8 0.367156 0.828575 -0.422683 1
-196.245 -60.0261 -1661.83 0.345805 0.816345 -0.462602 1
-196.072 -59.4894 -1659.86 0.356316 0.795014 -0.490909 1
-195.9 -58.9527 -1657.89 0.406395 0.794602 -0.451055 1
-195.73 -58.9276 -1655.93 0.13689 0.857672 0.49564 1
-195.563 -59.5847 -1654 0.954498 -0.157398 -0.253295 1
-195.396 -60.2418 -1652.07 0.830866 -0.498249 -0.247811 1
-195.229 -60.8988 -1650.13 0.712294 -0.655325 -0.251368 1
-195.092 -61.8544 -1648.43 0.651651 -0.693758 -0.306677 1
-195.027 -63.5562 -1647.29 0.632709 -0.686516 -0.358295 1
-194.963 -65.258 -1646.15 0.61492 -0.677614 -0.403377 1
-194.898 -66.9598 -1645.01 0.597939 -0.667985 -0.443017 1
