# .PCD v0.7 - Point Cloud Data file format
# 5 140 0
# 1 18 0
# 19 48 0
# 49 94 0
# 95 126 0
# 127 140 0
VERSION 0.7
FIELDS x y z normal_x normal_y normal_z curvature
SIZE 4 4 4 4 4 4 4
TYPE F F F F F F F
COUNT 1 1 1 1 1 1 1
WIDTH 140
HEIGHT 1
VIEWPOINT 0 0 0 1 0 0 0
POINTS 140
DATA ascii
8.50577 -136.293 -1466.9 0.976512 0.170254 -0.132052 0.01
8.90263 -135.185 -1465.71 0.983637 0.138805 -0.114856 1
9.2321 -133.791 -1464.83 0.989771 0.0901053 -0.110605 1
8.89626 -132.689 -1463.61 0.992859 0.0582352 -0.104113 1
9.05134 -132.153 -1462.03 0.992971 0.053434 -0.105607 1
9.16366 -131.371 -1460.55 0.992318 0.049204 -0.113509 1
9.39585 -131.148 -1458.9 0.988808 0.060643 -0.136316 1
9.56514 -130.492 -1457.37 0.984848 0.0672532 -0.159845 1
9.79462 -129.537 -1456.01 0.982181 0.0789841 -0.170535 1
9.92531 -129.193 -1454.37 0.977944 0.0968233 -0.185072 1
10.3363 -128.78 -1452.8 0.974399 0.11143 -0.19527 1
10.5036 -127.776 -1451.46 0.973075 0.120596 -0.19642 1
10.5817 -127.13 -1449.92 0.971132 0.130048 -0.199976 1
10.7221 -126.145 -1448.57 0.970051 0.137692 -0.200104 1
11.0081 -125.876 -1446.93 0.969009 0.143663 -0.200953 1
12.01 -124.87 -1441.98 0.972412 0.150826 -0.177952 1
12.1373 -123.974 -1440.57 0.973587 0.153382 -0.169119 1
12.2319 -123.091 -1439.14 0.974751 0.155798 -0.159964 1
12.3606 -122.393 -1437.62 0.974568 0.145837 -0.170144 1
12.5839 -122.184 -1435.97 0.970313 0.123736 -0.207805 1
12.7442 -121.622 -1434.4 0.96183 0.101698 -0.254047 1
13.1609 -121.266 -1432.81 0.948908 0.0818348 -0.304757 1
13.9336 -120.764 -1431.41 0.931344 0.062501 -0.358737 1
14.5437 -119.824 -1430.16 0.910059 0.0417348 -0.412373 1
15.0276 -119.083 -1428.74 0.907579 0.0724872 -0.413577 1
15.3213 -118.475 -1427.2 0.912667 0.120129 -0.390651 1
15.772 -117.278 -1426.12 0.918956 0.161986 -0.359557 1
16.4001 -116.865 -1424.61 0.920566 0.193294 -0.339404 1
16.9639 -117.159 -1423.06 0.925054 0.204347 -0.320185 1
17.4832 -118.093 -1421.77 0.935379 0.182705 -0.302795 1
17.9951 -119.216 -1420.63 0.942514 0.155209 -0.295936 1
18.5878 -119.122 -1419.06 0.942919 0.170846 -0.285858 1
19.1992 -119.569 -1417.57 0.938844 0.171293 -0.298715 0.01
19.5768 -120.856 -1416.56 0.933709 0.135942 -0.331222 1
19.7935 -122.518 -1416.47 0.933078 0.092621 -0.347543 1
20.228 -123.957 -1415.73 0.928223 0.0752897 -0.364327 1
20.6721 -125.492 -1415.22 0.925809 0.0678639 -0.37185 1
20.5564 -127.157 -1415.39 0.92666 0.0723212 -0.368878 1
20.4799 -128.78 -1415.81 0.927515 0.0860295 -0.36375 1
20.8272 -130.374 -1415.42 0.927653 0.0974413 -0.360507 1
21.5452 -131.609 -1414.54 0.928155 0.0994381 -0.358666 1
21.5225 -133.284 -1414.63 0.930437 0.10961 -0.349676 1
21.6554 -134.951 -1414.78 0.932799 0.119324 -0.340071 1
22.2229 -136.075 -1413.67 0.932535 0.118394 -0.341119 1
22.5496 -137.698 -1413.39 0.934003 0.123896 -0.335095 1
22.8302 -139.332 -1413.13 0.936521 0.126253 -0.327091 1
23.2774 -140.574 -1412.1 0.937751 0.122989 -0.324803 1
23.5975 -142.214 -1411.95 0.940608 0.128588 -0.314201 1
24.5133 -143.478 -1411.33 0.942714 0.129469 -0.307453 1
24.7669 -145.084 -1410.92 0.945873 0.138148 -0.293666 1
25.0071 -146.639 -1410.33 0.945382 0.157974 -0.285128 1
25.4446 -148.078 -1409.59 0.942043 0.177699 -0.284565 1
25.964 -149.492 -1408.85 0.937707 0.19482 -0.287664 1
26.1651 -151.15 -1408.69 0.935867 0.217756 -0.277013 1
26.8045 -152.476 -1407.88 0.929599 0.227153 -0.290255 1
27.0052 -154.123 -1407.63 0.929745 0.234908 -0.283534 1
27.719 -155.535 -1407.07 0.927171 0.231689 -0.294403 1
28.9684 -156.181 -1406.16 0.916987 0.22536 -0.329162 1
29.4752 -157.577 -1405.37 0.908325 0.221381 -0.354874 1
29.7224 -159.179 -1404.94 0.901682 0.212785 -0.376421 1
30.1998 -160.783 -1404.82 0.903881 0.183777 -0.386296 1
30.2655 -162.45 -1404.64 0.90448 0.161225 -0.39487 1
30.1271 -164.109 -1404.86 0.90874 0.15006 -0.389454 0.01
30.2789 -165.452 -1405.85 0.915522 0.146997 -0.374448 1
30.8242 -166.957 -1406.36 0.917192 0.148008 -0.369937 1
30.6076 -168.463 -1407.06 0.920651 0.152153 -0.359516 1
30.054 -169.587 -1408.18 0.92581 0.155691 -0.344437 1
29.7451 -170.868 -1409.22 0.929436 0.159529 -0.332714 1
29.385 -171.84 -1410.54 0.934722 0.164583 -0.314972 1
29.2059 -172.94 -1411.79 0.938128 0.175532 -0.298505 1
29.1071 -173.788 -1413.24 0.940193 0.188489 -0.28374 1
28.7983 -174.357 -1414.79 0.941104 0.200515 -0.272244 1
28.5846 -175.167 -1416.24 0.939887 0.21732 -0.26341 1
28.5228 -176.286 -1417.49 0.935989 0.241702 -0.25594 1
28.4274 -177.35 -1418.78 0.93012 0.25934 -0.260037 1
28.6413 -178.537 -1419.95 0.923624 0.276381 -0.26558 1
28.5049 -179.444 -1421.35 0.919747 0.284307 -0.270619 1
28.3281 -180.289 -1422.79 0.917505 0.288464 -0.273813 1
28.2018 -181.126 -1424.24 0.916476 0.290321 -0.275291 1
27.6584 -181.537 -1425.78 0.919055 0.285161 -0.272068 1
27.2138 -181.991 -1427.33 0.921717 0.27978 -0.268627 1
26.8345 -182.19 -1428.95 0.925189 0.272685 -0.263946 1
26.4689 -182.38 -1430.58 0.928658 0.265929 -0.258603 1
25.7831 -181.761 -1431.98 0.934342 0.254521 -0.249449 1
25.3714 -182.049 -1433.58 0.937579 0.249036 -0.242748 1
25.1708 -182.428 -1435.2 0.94066 0.244326 -0.235505 1
24.74 -182.038 -1436.78 0.946259 0.234136 -0.2231 1
24.2862 -181.771 -1438.37 0.952072 0.222253 -0.210148 1
23.8328 -181.267 -1439.9 0.953396 0.22064 -0.205802 1
23.6118 -181.416 -1441.56 0.953646 0.220293 -0.205012 0.238215
23.4083 -181.403 -1443.23 0.953464 0.221005 -0.205093 0.989513
22.85 -180.962 -1444.75 0.952837 0.223449 -0.205357 1
22.3345 -180.63 -1446.31 0.952589 0.225243 -0.204549 1
21.9419 -180.593 -1447.94 0.953202 0.225197 -0.201724 1
21.4804 -180.799 -1449.54 0.954824 0.222946 -0.196484 1
21.1905 -181.089 -1451.17 0.956826 0.221058 -0.188724 1
20.9629 -181.226 -1452.82 0.957933 0.220059 -0.184225 1
20.8258 -181.314 -1454.49 0.957626 0.220996 -0.184696 1
20.5723 -181.641 -1456.12 0.956657 0.2223 -0.188123 1
20.8476 -182.633 -1457.44 0.954074 0.229935 -0.192023 1
20.5738 -183.13 -1459.02 0.951302 0.235305 -0.199139 1
20.2503 -183.258 -1460.67 0.95037 0.256197 -0.176523 1
19.9363 -183.006 -1462.29 0.953009 0.274868 -0.127366 1
19.4937 -182.641 -1463.87 0.956282 0.285006 -0.0655553 1
19.5684 -183.301 -1465.41 0.951778 0.306458 0.0141849 1
19.789 -184.033 -1466.91 0.945222 0.31314 0.0921897 1
20.1388 -183.723 -1468.52 0.934975 0.303488 0.183619 1
20.5859 -183.728 -1470.13 0.916882 0.288669 0.275678 1
21.3008 -184.332 -1471.53 0.899712 0.265932 0.346119 0.01
20.9229 -182.772 -1472.02 0.883579 0.273556 0.380072 1
20.7794 -181.198 -1472.58 0.856124 0.375827 0.354692 1
20.3653 -179.574 -1472.5 0.847532 0.441879 0.293994 1
19.6267 -178.307 -1471.69 0.865986 0.448713 0.220735 1
18.7572 -177.038 -1471.02 0.885789 0.440967 0.14466 1
18.0112 -175.559 -1470.75 0.899561 0.43086 0.0717562 1
17.2489 -174.097 -1470.44 0.914687 0.404153 -0.00276778 1
16.5834 -172.557 -1470.39 0.932506 0.356393 -0.0584594 1
15.4794 -171.551 -1471.15 0.943559 0.32525 -0.0625174 1
14.5605 -170.528 -1472.11 0.952178 0.299897 -0.0584715 1
13.5673 -169.254 -1472.57 0.963529 0.258394 -0.0695972 1
13.7672 -167.897 -1473.53 0.970888 0.230349 -0.0656955 1
13.7172 -166.223 -1473.43 0.978872 0.186578 -0.0836527 1
13.6075 -164.573 -1473.71 0.979483 0.17445 -0.100892 1
13.4244 -162.908 -1473.81 0.979521 0.165761 -0.114291 1
13.2273 -161.242 -1473.78 0.979283 0.160692 -0.123216 1
13.1108 -159.57 -1473.7 0.979193 0.158769 -0.126389 1
12.9877 -157.942 -1473.32 0.979693 0.155293 -0.126827 1
12.5201 -156.536 -1472.53 0.980186 0.150235 -0.12909 1
12.1828 -154.923 -1472.21 0.977329 0.157364 -0.141646 1
11.9129 -153.445 -1471.47 0.975211 0.161291 -0.15149 1
11.6598 -151.788 -1471.54 0.969899 0.176596 -0.16766 1
11.4185 -150.198 -1471.06 0.965009 0.18996 -0.180754 1
11.3236 -148.561 -1470.71 0.958394 0.209017 -0.194403 1
11.2159 -146.962 -1470.21 0.950486 0.231721 -0.20708 1
10.9953 -145.544 -1469.34 0.943274 0.259055 -0.207666 1
10.6506 -143.93 -1469.03 0.945799 0.263642 -0.189624 1
10.3368 -142.284 -1469.11 0.950207 0.257713 -0.175187 1
9.87437 -140.823 -1468.43 0.954567 0.251012 -0.160608 1
9.5013 -139.198 -1468.24 0.961014 0.231522 -0.15116 1
9.04632 -137.776 -1467.47 0.968321 0.207047 -0.139595 1
