# .PCD v0.7 - Point Cloud Data file format
# 5 132 0
# 1 18 0
# 19 45 0
# 46 98 0
# 99 123 0
# 124 132 0
VERSION 0.7
FIELDS x y z normal_x normal_y normal_z curvature
SIZE 4 4 4 4 4 4 4
TYPE F F F F F F F
COUNT 1 1 1 1 1 1 1
WIDTH 132
HEIGHT 1
VIEWPOINT 0 0 0 1 0 0 0
POINTS 132
DATA ascii
123.918 22.9846 -1376.26 -0.13915 0.111221 -0.984006 0.01
122.599 24.4041 -1376.82 0.571803 -0.226786 0.788422 1
121.305 25.8438 -1377.39 -0.176091 -0.0025881 -0.984371 1
120.076 27.3366 -1377.96 -0.169162 -0.0352818 -0.984957 1
118.846 28.8294 -1378.54 0.304833 0.946641 0.104637 1
118.862 30.7277 -1378.94 0.288753 0.951109 0.109603 1
119.096 32.6965 -1379.32 0.286109 0.951806 0.110483 1
119.458 34.6537 -1379.58 -0.169047 -0.1359 -0.976194 1
119.996 36.5953 -1379.69 -0.18294 -0.130375 -0.974441 1
120.533 38.5369 -1379.81 -0.197841 -0.124347 -0.972315 1
123.118 45.945 -1381.2 0.665965 -0.0270025 0.745494 1
124.009 47.7496 -1381.34 0.683665 -0.0259886 0.729333 1
124.901 49.5542 -1381.49 0.696693 -0.0301976 0.716734 1
125.734 51.3718 -1381.74 0.706682 -0.0353752 0.706647 1
126.525 53.1992 -1382.06 -0.328345 -0.0533286 -0.943051 1
127.286 55.0408 -1382.37 0.720739 -0.0447086 0.691763 1
127.876 56.9639 -1382.52 -0.359562 -0.0176809 -0.932954 1
128.466 58.887 -1382.68 0.736642 -0.0495894 0.674463 1
129.956 59.8195 -1383.18 -0.38083 2.35717e-05 -0.924645 1
131.793 60.371 -1383.81 -0.378892 -0.00738011 -0.925412 1
133.572 60.9822 -1384.52 -0.367479 -0.0111946 -0.929964 1
135.214 61.7354 -1385.42 -0.340058 -0.00911641 -0.94036 1
136.856 62.4885 -1386.31 -0.278426 -0.00411385 -0.960449 1
138.409 63.5412 -1387.04 -0.157076 0.00299479 -0.987582 1
139.949 64.6387 -1387.75 0.0529282 -0.0142606 -0.998496 1
141.238 66.0312 -1388.08 -0.0659328 0.080477 -0.994573 1
142.213 67.7925 -1387.94 0.0988782 0.0614201 -0.993202 1
143.145 69.5488 -1387.8 0.205487 0.00613235 -0.978641 0.01
141.856 71.0359 -1387.35 0.0337233 0.0796612 -0.996251 1
140.567 72.523 -1386.91 -0.0668612 0.093195 -0.9934 1
140.111 74.3101 -1386.9 -0.0934811 0.0859353 -0.991905 1
140.227 76.3036 -1387.19 -0.0859909 0.0776091 -0.993269 1
140.375 78.2965 -1387.45 -0.0750114 0.071553 -0.994612 1
140.678 80.2872 -1387.58 -0.057502 0.0680479 -0.996024 1
140.981 82.2779 -1387.71 -0.0398904 0.0663077 -0.997002 1
141.987 83.9153 -1387.41 -0.0231432 0.0318378 -0.999225 1
143.239 85.4292 -1386.95 -0.0481215 -0.0295807 -0.998403 1
144.319 87.0407 -1386.79 0.469494 -0.00453748 0.882924 1
145.025 88.8649 -1387.28 -0.136554 -0.144427 -0.980048 1
145.73 90.689 -1387.78 -0.181819 -0.191319 -0.964541 1
146.542 92.4543 -1388.32 -0.225681 -0.230299 -0.946589 1
147.367 94.2122 -1388.87 -0.245561 -0.210448 -0.946262 1
148.197 95.9708 -1389.41 -0.249293 -0.171689 -0.953088 1
149.032 97.7301 -1389.94 -0.248788 -0.141427 -0.958177 1
149.868 99.4906 -1390.46 0.526154 -0.120831 0.841761 1
150.714 101.282 -1390.84 0.521758 -0.148742 0.840027 1
151.561 103.073 -1391.23 -0.223801 -0.091326 -0.970347 1
152.444 104.859 -1391.54 -0.212463 -0.102783 -0.971748 1
153.349 106.64 -1391.82 -0.229133 -0.216373 -0.949042 1
154.258 108.421 -1392.09 -0.235923 -0.324668 -0.915932 1
155.187 110.196 -1392.33 -0.222338 -0.411889 -0.883693 1
156.115 111.972 -1392.57 -0.156215 -0.447034 -0.880771 1
157.38 113.182 -1391.82 0.0653926 -0.30492 -0.95013 1
158.752 114.213 -1390.76 0.851161 0.305072 -0.427148 1
159.824 115.171 -1389.46 0.991561 0.124151 -0.0373212 0.01
160.299 115.982 -1387.67 0.950861 -0.308717 0.0235896 1
160.774 116.793 -1385.89 0.904402 -0.424395 0.0441238 1
161.179 116.957 -1383.93 0.926603 -0.374911 0.0291351 1
161.577 117.055 -1381.95 0.970696 -0.226834 -0.0793401 1
162.376 116.396 -1380.63 0.873736 0.0532775 -0.483475 1
163.606 114.922 -1380.01 0.591473 0.35612 -0.723421 1
164.833 113.449 -1379.38 0.539287 0.478477 -0.692986 1
165.983 111.992 -1378.59 0.612193 0.572167 -0.545751 1
167.134 110.534 -1377.8 0.819438 0.565264 -0.0948527 1
167.915 109.815 -1376.3 0.860389 0.440669 0.256011 1
168.477 109.53 -1374.39 0.830718 0.329477 0.448724 1
168.941 109.058 -1372.53 0.441289 0.847193 -0.29585 1
169.022 107.858 -1370.91 0.423748 0.842859 -0.331703 1
169.103 106.658 -1369.29 0.422043 0.834139 -0.355094 1
169.296 105.018 -1368.19 0.449227 0.816568 -0.362508 1
169.519 103.251 -1367.24 -0.562068 -0.49023 -0.666148 1
169.71 101.477 -1366.3 -0.537348 -0.469162 -0.700817 1
169.84 99.6889 -1365.37 0.822298 -0.246904 0.512703 1
169.969 97.9008 -1364.45 -0.519811 -0.474487 -0.710393 1
170.062 96.1098 -1363.52 -0.534672 -0.480246 -0.695334 1
170.153 94.3187 -1362.6 -0.577258 -0.439617 -0.688121 1
170.165 92.5339 -1361.66 0.886564 -0.331094 0.32308 1
170.098 90.7555 -1360.71 -0.635414 -0.399134 -0.661015 1
170.038 88.9792 -1359.75 -0.715174 -0.0492541 -0.697208 1
170.066 87.2296 -1358.75 -0.743526 0.327104 -0.583243 1
170.093 85.48 -1357.74 -0.798001 0.32237 -0.509188 1
169.709 83.738 -1356.86 -0.851914 0.26614 -0.451012 1
169.102 82 -1356.03 0.945767 -0.297428 0.130619 1
168.478 80.2632 -1355.21 0.935256 -0.317283 0.156931 1
167.794 78.5304 -1354.44 -0.901319 0.237036 -0.362543 1
167.11 76.7975 -1353.66 -0.901275 0.226965 -0.36904 1
166.432 75.0614 -1352.89 -0.904242 0.211869 -0.370754 1
165.756 73.3244 -1352.12 -0.84757 0.179964 -0.499238 1
165.109 71.5839 -1351.33 -0.917802 0.167662 -0.3599 1
164.512 69.8376 -1350.51 -0.799797 0.224294 -0.556792 1
163.915 68.0912 -1349.7 -0.773844 0.253047 -0.580631 1
163.414 66.3271 -1348.86 -0.747197 0.284522 -0.600619 1
162.92 64.5619 -1348.01 0.927731 -0.297776 0.225045 1
162.322 62.8008 -1347.24 0.929735 -0.301941 0.210769 1
161.629 61.0436 -1346.53 -0.696871 0.250143 -0.672161 1
160.958 59.2815 -1345.82 0.927482 -0.310968 0.207549 1
160.509 57.4725 -1345.04 0.926319 -0.308306 0.21652 1
160.059 55.6635 -1344.27 0.933461 -0.277934 0.226723 1
159.425 53.8546 -1343.66 -0.871903 0.0180372 -0.489347 1
158.698 52.0457 -1343.14 0.951953 -0.181267 0.246835 1
158.004 50.2301 -1342.61 0.95139 -0.152245 0.26773 1
157.41 48.3933 -1342.02 0.946227 -0.13073 0.295914 1
156.817 46.5565 -1341.43 0.60823 -0.148226 0.779798 1
155.918 44.7751 -1341.27 0.571534 -0.141038 0.808367 1
154.949 43.0062 -1341.2 0.574866 -0.142709 0.805707 1
153.997 41.2292 -1341.12 -0.773797 -0.10765 -0.624219 1
153.071 39.4396 -1341.01 -0.761743 -0.166106 -0.626224 1
152.145 37.65 -1340.91 0.84989 -0.204399 0.485704 0.01
150.742 36.3268 -1341.47 0.842535 -0.221069 0.491186 1
149.32 35.0216 -1342.06 0.840891 -0.242927 0.48362 1
147.892 33.7719 -1342.74 -0.714419 -0.376508 -0.589786 1
146.457 32.5699 -1343.49 0.687686 -0.353587 0.634085 1
145.03 31.4201 -1344.31 -0.184346 -0.438822 -0.879461 1
143.656 30.688 -1345.59 0.220292 0.969927 0.103499 1
142.282 29.9559 -1346.88 -0.716207 0.060265 -0.695281 1
141.021 29.5009 -1348.36 -0.68987 0.0510406 -0.722132 1
139.813 29.1733 -1349.95 -0.353398 -0.325422 -0.877046 1
138.646 28.7808 -1351.54 0.00329446 0.938528 -0.345186 1
137.597 28.2032 -1353.16 -0.0420695 0.925878 -0.375473 1
136.549 27.6256 -1354.79 -0.040476 0.94161 -0.334265 1
135.543 27.2382 -1356.49 -0.0314972 0.962684 -0.26879 1
134.545 26.8889 -1358.21 0.000373782 0.985456 -0.169933 1
133.546 26.4702 -1359.91 0.0674803 0.996355 -0.0521804 1
132.545 25.9506 -1361.58 0.14898 0.987849 0.0442606 1
131.543 25.4311 -1363.26 0.217629 0.970342 0.10523 1
130.57 24.9483 -1364.96 0.266303 0.953617 0.140345 1
129.598 24.4663 -1366.66 0.30755 0.939535 0.15062 1
128.656 23.9024 -1368.35 0.341726 0.927725 0.150168 1
127.739 23.2731 -1370.03 0.368005 0.918052 0.14749 1
126.829 22.6858 -1371.73 0.38993 0.909553 0.143763 1
125.965 22.381 -1373.53 0.56607 -0.263883 0.780981 1
125.102 22.0761 -1375.33 0.0196513 0.155907 -0.987576 1
