# .PCD v0.7 - Point Cloud Data file format
# 2 30 0
# 1 29 0
# 30 30 0
VERSION 0.7
FIELDS x y z normal_x normal_y normal_z curvature
SIZE 4 4 4 4 4 4 4
TYPE F F F F F F F
COUNT 1 1 1 1 1 1 1
WIDTH 30
HEIGHT 1
VIEWPOINT 0 0 0 1 0 0 0
POINTS 30
DATA ascii
169.039 168.554 -1615.32 -0.12074 0.618927 -0.776113 0.01
169.23 167.615 -1616.22 -0.810205 -0.550327 0.201762 1
184.483 188.044 -1605.42 -0.573479 -0.0865344 0.814637 1
183.285 187.943 -1604.89 -0.358306 0.0471263 0.932414 1
182.092 187.84 -1604.34 -0.441144 0.111212 0.890519 1
180.912 187.729 -1603.77 -0.441144 0.111212 0.890519 0
179.727 187.788 -1603.22 -0.441144 0.111212 0.890519 0
178.538 187.964 -1602.69 -0.441144 0.111212 0.890519 0
177.258 187.833 -1602.47 -0.441144 0.111212 0.890519 1
175.983 187.592 -1602.34 0.546776 -0.264847 0.794287 1
174.797 187.027 -1602.41 0.503195 -0.510497 0.697272 1
173.624 186.436 -1602.42 0.486444 -0.611302 0.624245 1
172.463 185.818 -1602.37 0.491981 -0.646501 0.583088 1
171.49 184.97 -1602.52 0.499251 -0.664938 0.555523 1
170.589 184.042 -1602.75 0.511111 -0.669275 0.539292 1
169.944 182.988 -1603.2 0.52319 -0.666579 0.530984 1
169.347 181.955 -1603.74 0.537221 -0.657414 0.528395 1
168.838 180.962 -1604.43 0.551728 -0.643544 0.530516 1
168.315 179.935 -1605.07 0.56836 -0.623857 0.536442 1
167.784 178.889 -1605.66 0.586335 -0.598209 0.546221 1
167.517 177.894 -1606.47 0.602158 -0.568031 0.561022 1
167.3 176.898 -1607.3 0.61522 -0.533634 0.580292 1
167.191 175.89 -1608.14 0.625325 -0.491939 0.605775 1
167.208 174.869 -1608.96 0.629463 -0.438067 0.641774 1
167.338 173.836 -1609.77 0.634611 -0.444947 0.631895 1
167.504 172.897 -1610.67 0.639416 -0.454823 0.619906 1
167.7 171.998 -1611.61 0.643249 -0.461039 0.611288 1
168.077 171.241 -1612.61 0.643378 -0.468017 0.605826 1
168.445 170.415 -1613.56 0.643714 -0.47336 0.601301 1
168.8 169.49 -1614.43 0.644919 -0.47701 0.597111 1
