# .PCD v0.7 - Point Cloud Data file format
# 4 111 0
# 1 3 0
# 4 56 0
# 57 102 0
# 103 111 0
VERSION 0.7
FIELDS x y z normal_x normal_y normal_z curvature
SIZE 4 4 4 4 4 4 4
TYPE F F F F F F F
COUNT 1 1 1 1 1 1 1
WIDTH 111
HEIGHT 1
VIEWPOINT 0 0 0 1 0 0 0
POINTS 111
DATA ascii
174.988 95.875 -1360.83 -0.496254 0.666436 0.556413 0.01
175.947 96.7483 -1362.57 -0.471183 0.691209 0.54792 1
176.846 98.0358 -1364.06 -0.420528 0.707076 0.568506 1
177.425 100.002 -1364.77 -0.338828 0.721278 0.604114 1
177.733 101.688 -1366.1 -0.271768 0.728229 0.629145 1
177.393 102.552 -1368.06 -0.310582 0.727985 0.611208 1
176.202 103.181 -1369.76 -0.418462 0.708334 0.568465 1
174.886 103.779 -1371.38 -0.497263 0.683321 0.534605 1
173.616 104.444 -1373.01 -0.549875 0.661095 0.510482 1
172.587 104.853 -1374.87 -0.590143 0.638641 0.493831 1
159.669 111.214 -1395.22 -0.66572 0.163358 0.728101 1
161.079 111.626 -1393.62 -0.00746114 -0.185262 -0.982661 1
162.544 112.667 -1392.41 -0.0777672 0.112097 -0.99065 0.01
162.029 113.402 -1390.43 -0.16874 0.259556 -0.950872 1
161.557 113.966 -1388.39 -0.777201 0.185748 0.601213 1
161.328 114.683 -1386.36 0.834795 -0.0633248 0.546907 1
161.199 115.339 -1384.3 0.883794 -0.116351 0.453177 1
161.256 116.076 -1382.26 0.911729 -0.141932 0.385494 1
161.25 115.996 -1380.09 0.896062 -0.0551403 0.44049 1
161.296 115.648 -1377.95 -0.697857 0.708659 0.103915 1
161.297 115.227 -1375.82 -0.643832 0.728172 0.235043 1
161.786 115.363 -1373.71 -0.335793 0.762953 0.5524 1
161.695 114.568 -1371.69 -0.46325 0.747325 0.476345 1
160.936 113.079 -1370.31 -0.456503 0.722193 0.519657 1
160.2 111.551 -1368.96 -0.447191 0.687223 0.572489 1
159.162 109.706 -1368.49 0.506078 0.0783354 0.858923 1
158.349 108.052 -1367.34 0.600217 -0.130695 0.789087 1
157.509 106.341 -1366.31 -0.270189 0.412575 0.869931 1
156.782 104.606 -1365.23 -0.387042 0.411278 0.825257 1
155.931 102.767 -1364.45 0.118145 0.0420422 0.992106 1
155.316 101.044 -1363.29 -0.60746 0.369228 0.703323 1
154.322 99.1864 -1362.77 -0.548041 0.25425 0.796874 1
153.809 97.8804 -1361.12 0.202963 0.955758 0.212917 1
152.899 96.0578 -1360.37 0.254573 0.767114 0.588836 1
151.903 94.1335 -1360.27 0.496169 0.254236 0.830169 1
151.077 92.3902 -1359.28 0.508694 0.0898956 0.856241 1
150.283 90.4996 -1358.57 0.511509 0.0119468 0.859195 1
149.468 88.609 -1357.89 0.492208 -0.00662529 0.870452 1
148.901 86.8378 -1356.77 0.462334 0.0146624 0.886585 1
148.417 85.1061 -1355.56 0.423168 0.0582928 0.904174 1
148.034 83.5426 -1354.1 0.368557 0.13384 0.91992 1
147.775 82.1105 -1352.5 0.28533 0.352705 0.891171 1
147.582 80.6056 -1350.95 0.326871 0.940615 0.091642 1
147.622 79.4978 -1349.08 -0.388923 0.863573 0.320906 1
147.061 77.8506 -1347.79 -0.182731 0.914934 0.359868 1
147.271 76.479 -1346.12 -0.183134 0.849139 0.495404 1
146.361 74.6035 -1345.52 -0.39787 0.738009 0.545016 1
145.247 72.7537 -1345.31 -0.633738 0.593975 0.49555 1
144.12 70.9007 -1345.35 -0.752824 0.488279 0.441407 1
143.188 68.9585 -1345.09 -0.797758 0.425448 0.42729 1
142.606 67.0785 -1344.18 -0.802207 0.384331 0.456896 1
142.114 65.0999 -1343.44 -0.792873 0.372096 0.482594 1
141.187 63.192 -1342.99 -0.794838 0.366966 0.483289 1
140.862 61.3419 -1341.9 -0.761303 0.356716 0.541453 1
140.753 59.488 -1340.78 -0.688939 0.335456 0.64252 1
139.736 57.7451 -1341.58 -0.762685 0.344265 0.547534 1
138.953 55.7537 -1341.22 -0.756337 0.334987 0.561906 1
138.225 53.8092 -1340.59 -0.732957 0.319005 0.600841 1
137.499 51.7712 -1340.75 -0.74051 0.313517 0.594435 1
136.889 49.7998 -1340.08 -0.699577 0.286594 0.654565 1
136.218 47.7908 -1340.54 -0.714872 0.284886 0.638591 1
135.593 45.7174 -1340.42 -0.701284 0.226639 0.675896 1
134.991 43.6461 -1340.19 -0.675586 0.12263 0.727011 1
134.38 41.5769 -1339.97 -0.63887 -0.0245657 0.768923 1
133.81 39.5888 -1339.31 -0.566526 -0.203952 0.798406 1
133.199 37.8091 -1340.39 -0.606104 -0.370664 0.703737 0.01
134.681 36.4044 -1341.12 -0.390502 -0.61739 0.682889 1
136.215 34.9623 -1341.65 0.150993 -0.714981 0.682645 1
137.927 33.6767 -1341.99 -0.605756 0.394023 0.691235 1
139.798 32.6069 -1342.24 0.856988 -0.416264 -0.303802 1
141.722 31.6406 -1341.98 -0.743799 0.197061 0.638695 1
143.828 31.1811 -1341.74 0.850093 -0.421518 -0.315697 1
145.784 30.581 -1341.02 -0.760018 0.218274 0.612152 1
147.726 30.1487 -1340.16 -0.762735 0.2182 0.608789 1
149.459 30.7228 -1338.98 -0.751145 0.23802 0.615733 1
150.723 31.7897 -1337.58 -0.733092 0.259093 0.628846 1
151.936 32.9518 -1336.21 -0.692409 0.276009 0.666624 1
152.976 34.6894 -1335.43 -0.550252 0.302153 0.778412 1
154.278 36.2425 -1336.21 0.862295 -0.0900147 0.498342 1
154.676 38.3653 -1336.41 0.922491 -0.207061 0.325785 1
155.6 40.0701 -1337.38 0.946859 -0.283481 0.151979 1
156.325 41.9826 -1338.1 0.945771 -0.295679 0.134504 1
156.661 44.0503 -1338.66 0.943402 -0.296365 0.148861 1
157.083 45.8726 -1339.76 0.932192 -0.293967 0.211192 1
157.547 47.7972 -1340.65 0.918571 -0.395023 -0.0135411 1
157.907 49.9238 -1340.42 -0.374385 0.401662 0.835765 1
159.543 51.1418 -1341.16 0.87096 -0.465923 0.156028 1
160.932 52.6305 -1341.91 0.837181 -0.541539 0.0765724 1
161.268 54.5975 -1342.76 0.801574 -0.597603 0.0187009 1
161.581 56.7433 -1342.81 -0.547589 0.48164 0.684229 1
162.21 58.7318 -1343.41 -0.591189 0.479686 0.648381 1
162.758 60.2013 -1344.91 0.94583 -0.294833 0.135934 1
163.102 61.9414 -1346.16 -0.661476 0.475114 0.580272 1
164.275 63.6282 -1346.85 0.811226 -0.497935 0.306551 1
164.362 65.6259 -1347.69 -0.687999 0.461083 0.560411 1
164.23 67.4934 -1348.79 -0.698698 0.479792 0.530679 1
163.949 69.5576 -1349.39 -0.691936 0.519383 0.501464 1
164.472 71.2603 -1350.63 -0.670308 0.536595 0.512594 1
165.463 73.1371 -1351.08 -0.651058 0.551779 0.521214 1
166.393 75.0502 -1351.5 -0.631396 0.557992 0.538502 1
167.519 76.6701 -1352.41 -0.611428 0.551349 0.5676 1
168.697 78.4177 -1352.92 -0.588329 0.539599 0.602247 1
169.969 79.9609 -1353.76 -0.571701 0.509487 0.643102 1
171.223 81.5605 -1354.52 -0.555302 0.489501 0.67233 1
171.663 83.6028 -1355.1 -0.549982 0.475517 0.686588 1
172.306 85.6085 -1355.62 -0.545323 0.472312 0.692491 1
172.605 87.4402 -1356.74 -0.559389 0.476705 0.678112 1
172.348 89.3564 -1357.72 -0.585913 0.484901 0.64929 1
172.476 91.5215 -1357.76 -0.571977 0.527252 0.62837 1
173.414 93.3514 -1358.45 -0.540329 0.585525 0.604322 1
174.183 95.3321 -1358.89 -0.500632 0.636087 0.587163 1
