# .PCD v0.7 - Point Cloud Data file format
# 4 130 0
# 1 10 0
# 11 21 0
# 22 121 0
# 122 130 0
VERSION 0.7
FIELDS x y z normal_x normal_y normal_z curvature
SIZE 4 4 4 4 4 4 4
TYPE F F F F F F F
COUNT 1 1 1 1 1 1 1
WIDTH 130
HEIGHT 1
VIEWPOINT 0 0 0 1 0 0 0
POINTS 130
DATA ascii
-85.3043 -144.872 -1328.06 0.104128 0.905413 -0.411564 0.01
-83.3577 -144.544 -1327.61 0.137495 0.865088 -0.482408 1
-81.392 -144.285 -1327.19 0.183396 0.813727 -0.551556 1
-79.4263 -144.025 -1326.77 0.23856 0.741051 -0.62764 1
-78.1699 -143 -1327.26 0.277323 0.692973 -0.665493 1
-77.3694 -141.483 -1328.34 0.762368 -0.24759 -0.597908 1
-76.5688 -139.965 -1329.42 0.650182 -0.411025 -0.639001 1
-75.8465 -138.488 -1330.6 0.663917 -0.422123 -0.617274 1
-75.1432 -137.021 -1331.81 0.741699 -0.360014 -0.565927 1
-74.4399 -135.554 -1333.02 0.773931 -0.354502 -0.524746 1
-111.455 -80.274 -1399.18 0.816764 -0.389473 -0.425685 1
-110.097 -79.0635 -1398.29 0.80914 -0.41779 -0.413211 1
-108.738 -77.853 -1397.4 0.807572 -0.437619 -0.39537 1
-107.439 -76.5902 -1396.5 0.811895 -0.451246 -0.370409 1
-106.383 -75.1129 -1395.6 0.803598 -0.482306 -0.348728 1
-105.327 -73.6355 -1394.7 0.753587 -0.555657 -0.351215 1
-104.215 -72.1564 -1394.42 0.686345 -0.633771 -0.356743 1
-103.014 -70.6744 -1395.11 0.60906 -0.704367 -0.364573 1
-101.814 -69.1924 -1395.79 0.527996 -0.761676 -0.375592 1
-100.288 -68.2206 -1395.6 0.438454 -0.809717 -0.39002 0.01
-98.5324 -67.608 -1394.8 0.341724 -0.848041 -0.405033 1
-96.7768 -66.9954 -1393.99 0.250468 -0.873592 -0.417256 1
-94.8703 -66.6616 -1394.2 0.168336 -0.889479 -0.424841 1
-92.9219 -66.4054 -1394.7 0.0928759 -0.898644 -0.428733 1
-90.9735 -66.1491 -1395.2 0.0348995 -0.901215 -0.431964 1
-88.9507 -66.1652 -1395.29 -0.0410642 -0.899333 -0.435333 1
-86.9262 -66.1874 -1395.38 -0.141856 -0.888392 -0.43662 1
-84.9093 -66.2802 -1395.46 -0.271715 -0.857775 -0.436341 1
-82.9287 -66.709 -1395.48 -0.432861 -0.787562 -0.438609 1
-80.9481 -67.1377 -1395.51 -0.590612 -0.6484 -0.480369 1
-79.9758 -68.0668 -1395.75 -0.606961 -0.439412 -0.662204 0.01
-80.7235 -69.8495 -1396.36 -0.80256 -0.454261 -0.38671 1
-81.4712 -71.6321 -1396.97 -0.820739 -0.292826 -0.490552 1
-82.3629 -73.3659 -1397.5 -0.91129 -0.0988305 -0.399728 1
-83.3654 -75.0622 -1397.97 -0.886805 0.143588 -0.439271 1
-84.3679 -76.7585 -1398.45 -0.827195 0.237822 -0.509106 1
-85.5882 -78.2817 -1398.15 -0.830429 0.373514 -0.41337 1
-86.8768 -79.7505 -1397.61 -0.695617 0.0555966 -0.716258 1
-88.1654 -81.2193 -1397.08 -0.764457 0.531572 -0.364741 1
-89.5846 -82.6166 -1396.7 -0.10615 -0.879561 -0.463793 1
-91.0097 -84.0106 -1396.34 0.0466012 -0.886934 -0.459539 1
-92.4516 -85.2801 -1396.21 0.127385 0.71499 -0.687431 1
-93.9873 -85.8558 -1397.4 0.781019 0.575649 -0.242154 1
-95.523 -86.4316 -1398.59 0.408628 0.656134 -0.634438 1
-97.0417 -87.042 -1399.79 0.285136 0.687841 -0.667512 1
-98.5287 -87.7174 -1400.99 0.220005 0.725145 -0.652505 1
-100.016 -88.3928 -1402.19 0.0677578 0.831838 -0.550866 1
-101.504 -89.0947 -1403.37 0.305716 0.639715 -0.705196 1
-102.995 -89.8187 -1404.54 0.247342 0.734901 -0.63146 1
-104.485 -90.5427 -1405.7 0.436427 0.0273239 -0.899325 1
-105.907 -91.268 -1406.95 0.309885 -0.790413 -0.528412 1
-107.306 -91.9937 -1408.22 -0.217841 0.963306 -0.1568 1
-108.704 -92.7195 -1409.5 -0.0627369 0.974926 -0.213503 1
-110.037 -93.8724 -1410.49 0.0576048 0.899519 -0.433068 1
-111.365 -95.0552 -1411.46 0.421263 -0.871568 -0.250813 1
-112.78 -96.0472 -1412.28 0.506381 -0.845193 -0.170957 1
-114.779 -95.7677 -1412.1 0.93549 0.311671 0.16649 1
-116.778 -95.4882 -1411.92 0.171527 0.369369 -0.913315 1
-118.747 -95.0962 -1411.7 -0.223141 0.194613 -0.955162 1
-120.654 -94.4719 -1411.42 -0.351822 0.132011 -0.926712 1
-122.561 -93.8476 -1411.14 -0.414831 0.0967043 -0.904745 1
-123.991 -94.4089 -1411.33 -0.458006 0.0554583 -0.887218 1
-124.985 -96.0571 -1411.97 -0.491135 0.0287491 -0.870609 1
-125.979 -97.7053 -1412.6 -0.512019 0.0376348 -0.85815 1
-126.54 -99.5939 -1412.68 -0.512678 0.0914115 -0.853701 1
-126.932 -101.577 -1412.54 -0.492234 0.176615 -0.852357 1
-127.324 -103.561 -1412.4 -0.465035 0.268004 -0.843752 1
-127.841 -105.505 -1412.16 -0.431183 0.358262 -0.828088 1
-128.37 -107.447 -1411.92 -0.38991 0.426037 -0.816372 1
-128.899 -109.381 -1411.65 -0.354723 0.388523 -0.850424 1
-129.431 -111.266 -1411.12 -0.336035 0.303768 -0.891519 1
-129.963 -113.15 -1410.6 -0.342436 0.08547 -0.935646 1
-130.406 -114.955 -1409.87 -0.347494 -0.408253 -0.844143 1
-130.646 -116.582 -1408.69 -0.257647 -0.830735 -0.493454 1
-130.886 -118.208 -1407.5 -0.184895 -0.944415 -0.271836 1
-131.107 -119.747 -1406.21 -0.144655 -0.967939 -0.205351 1
-131.308 -121.199 -1404.81 -0.113557 -0.911974 -0.394219 1
-131.51 -122.65 -1403.41 -0.0739871 -0.735095 -0.673915 1
-131.413 -124.129 -1402.04 -0.0718083 -0.538908 -0.839298 1
-131.187 -125.62 -1400.69 -0.102366 -0.429703 -0.897149 1
-130.96 -127.111 -1399.34 -0.139357 -0.429083 -0.89245 1
-130.98 -128.759 -1398.16 -0.17493 -0.477218 -0.861198 1
-131.03 -130.426 -1397.01 -0.206832 -0.520085 -0.828693 1
-131.09 -132.09 -1395.86 -0.234598 -0.557758 -0.796159 1
-131.251 -133.729 -1394.67 -0.259498 -0.591714 -0.763241 1
-131.412 -135.367 -1393.49 0.865771 0.254554 0.430863 1
-131.388 -136.848 -1392.18 -0.298092 -0.647695 -0.701165 1
-130.895 -137.93 -1390.54 -0.310823 -0.669753 -0.674403 1
-130.402 -139.012 -1388.9 0.856737 0.345111 0.383275 1
-129.919 -140.164 -1387.3 0.201082 -0.250364 0.94704 1
-129.447 -141.392 -1385.76 -0.311757 -0.761388 -0.568415 1
-128.976 -142.62 -1384.22 -0.29255 -0.801519 -0.521519 1
-128.512 -143.687 -1382.57 -0.261721 -0.848287 -0.460338 1
-128.053 -144.674 -1380.86 -0.217925 -0.89889 -0.380138 1
-127.594 -145.662 -1379.15 -0.163479 -0.945296 -0.282293 1
-127.176 -146.774 -1377.51 -0.126763 -0.946931 -0.295385 1
-126.765 -147.904 -1375.88 -0.105846 -0.930428 -0.350855 1
-126.328 -149.006 -1374.24 -0.0976783 -0.899911 -0.424993 1
-125.532 -149.695 -1372.51 -0.0928014 -0.861133 -0.499838 1
-124.735 -150.384 -1370.78 -0.0904602 -0.821496 -0.562993 1
-124.056 -151.255 -1369.12 -0.087752 -0.787069 -0.610591 1
-123.71 -152.64 -1367.68 -0.0850204 -0.762125 -0.641823 1
-123.363 -154.026 -1366.25 -0.0782395 -0.805102 -0.587953 1
-122.408 -154.91 -1364.96 -0.0644129 -0.849173 -0.524172 1
-120.728 -155.194 -1363.87 -0.041221 -0.886875 -0.460167 1
-119.048 -155.479 -1362.77 -0.0241848 -0.926923 -0.374472 1
-117.451 -155.484 -1361.54 -0.012521 -0.966881 -0.25492 1
-115.899 -155.34 -1360.25 -0.00854026 -0.996475 -0.0834503 1
-114.346 -155.195 -1358.96 -0.0195759 -0.99279 0.118254 1
-112.98 -154.752 -1357.53 0.150972 0.987663 -0.0415829 1
-111.648 -154.256 -1356.09 0.101902 0.937126 -0.333783 1
-110.326 -153.756 -1354.64 0.113733 0.919977 -0.375109 1
-109.235 -153.178 -1353.03 0.134198 0.986373 -0.0951835 1
-108.143 -152.601 -1351.43 0.223059 0.961165 0.162502 1
-107.051 -152.024 -1349.82 0.220147 0.963104 0.154811 1
-105.954 -151.445 -1348.22 0.21663 0.965355 0.145471 1
-104.856 -150.866 -1346.61 0.212739 0.967727 0.135079 1
-103.763 -150.317 -1345 0.208436 0.970206 0.123507 1
-102.674 -149.805 -1343.37 0.203664 0.972777 0.110571 1
-101.585 -149.293 -1341.74 0.198346 0.975417 0.0960191 1
-100.349 -148.873 -1340.19 0.190789 0.978755 0.0750842 1
-99.0266 -148.508 -1338.7 0.181439 0.982195 0.0487214 1
-97.7042 -148.143 -1337.21 0.171184 0.985053 0.0191505 1
-96.3409 -147.709 -1335.78 0.159691 0.987054 -0.0149423 1
-94.969 -147.261 -1334.35 0.147331 0.98767 -0.0529362 1
-93.5957 -146.813 -1332.93 0.134354 0.986401 -0.0946672 1
-92.1566 -146.415 -1331.56 0.120329 0.98245 -0.142524 1
-90.7175 -146.016 -1330.19 0.102096 0.975493 -0.194907 1
-89.171 -145.622 -1329.02 0.063506 0.962873 -0.262379 1
-87.2376 -145.247 -1328.54 0.0758526 0.938157 -0.3378 1
