# .PCD v0.7 - Point Cloud Data file format
# 6 162 0
# 1 15 0
# 16 63 0
# 64 89 0
# 90 117 0
# 118 157 0
# 158 162 0
VERSION 0.7
FIELDS x y z normal_x normal_y normal_z curvature
SIZE 4 4 4 4 4 4 4
TYPE F F F F F F F
COUNT 1 1 1 1 1 1 1
WIDTH 162
HEIGHT 1
VIEWPOINT 0 0 0 1 0 0 0
POINTS 162
DATA ascii
-175.724 118.95 -1405.64 -0.971074 0.126183 0.202715 0.01
-175.589 117.878 -1404.49 -0.969732 0.121837 0.211604 1
-175.48 116.748 -1403.39 -0.96761 0.120548 0.22181 1
-175.402 115.72 -1402.2 -0.965975 0.121101 0.228532 1
-175.612 114.39 -1401.38 -0.962836 0.136408 0.233109 1
-175.321 113.822 -1399.93 -0.963815 0.136553 0.228942 1
-174.384 112.091 -1396.17 -0.964038 0.146135 0.221982 1
-174.415 110.755 -1395.33 -0.958883 0.172152 0.225626 1
-174.755 109.452 -1394.51 -0.953025 0.196584 0.230432 1
-174.929 108.33 -1393.41 -0.948575 0.212242 0.234859 1
-174.528 108.192 -1391.89 -0.950801 0.204252 0.232936 0.8375
-174.599 107.163 -1390.7 -0.948064 0.211852 0.237261 1
-174.287 106.395 -1389.36 -0.948247 0.209048 0.239011 1
-174.186 105.371 -1388.16 -0.947679 0.205515 0.24427 1
-174.376 103.978 -1387.45 -0.945051 0.202731 0.256472 1
-174.209 102.773 -1386.44 -0.945556 0.193512 0.261682 1
-173.937 101.564 -1385.46 -0.946508 0.185066 0.264335 1
-173.803 100.486 -1384.32 -0.948275 0.179045 0.26214 1
-173.669 99.7015 -1382.96 -0.950607 0.178529 0.253917 1
-173.214 99.767 -1381.45 -0.952383 0.181287 0.245155 1
-172.854 99.4355 -1379.95 -0.951915 0.189659 0.240596 0.01
-172.453 99.5872 -1378.43 -0.952029 0.192496 0.237877 1
-172.14 101.116 -1378.2 -0.953794 0.179195 0.241178 1
-171.84 102.645 -1377.95 -0.955592 0.165783 0.24364 1
-171.371 103.446 -1376.67 -0.957529 0.16008 0.239819 1
-170.984 103.996 -1375.24 -0.959558 0.156009 0.234328 1
-170.577 105.07 -1374.16 -0.962234 0.144948 0.230424 1
-170.177 106.541 -1373.75 -0.965161 0.127642 0.22841 1
-169.722 107.628 -1372.7 -0.967774 0.115276 0.223885 1
-169.495 109.156 -1372.38 -0.968434 0.109285 0.224039 1
-169.131 109.723 -1370.95 -0.968737 0.108149 0.223274 0.599078
-168.752 110.391 -1369.58 -0.968492 0.1075 0.224647 1
-168.464 111.779 -1368.88 -0.968089 0.102112 0.228861 1
-168.13 112.952 -1367.88 -0.967083 0.098505 0.234622 1
-167.822 114.45 -1367.5 -0.966307 0.0911295 0.240721 1
-167.63 115.996 -1367.25 -0.96471 0.0878805 0.248218 1
-167.44 117.405 -1366.56 -0.95959 0.101882 0.262309 1
-167.378 118.672 -1365.62 -0.953856 0.115972 0.276965 1
-166.837 120.153 -1365.57 -0.949181 0.127019 0.287962 1
-166.354 121.54 -1364.99 -0.942966 0.140377 0.301844 1
-165.822 122.687 -1364.04 -0.93562 0.154159 0.317568 1
-165.31 123.993 -1363.32 -0.928178 0.167358 0.332382 1
-164.791 125.181 -1362.42 -0.91857 0.184825 0.349383 1
-164.363 126.665 -1362.1 -0.909204 0.205191 0.362276 1
-163.938 128.165 -1361.86 -0.899895 0.226106 0.372913 1
-163.525 129.687 -1361.87 -0.891322 0.247075 0.38013 1
-162.836 131.001 -1361.33 -0.880406 0.269008 0.390538 1
-162.202 132.362 -1360.85 -0.869603 0.291079 0.398828 1
-161.558 133.661 -1360.23 -0.858742 0.312428 0.406142 1
-160.866 135.001 -1359.76 -0.8599 0.31064 0.405062 1
-160.143 136.307 -1359.25 -0.863497 0.30273 0.403394 1
-159.415 137.517 -1358.55 -0.866367 0.294313 0.403471 1
-158.678 138.619 -1357.69 -0.868367 0.285879 0.405231 1
-157.903 139.668 -1356.8 -0.869631 0.27761 0.408258 1
-157.128 140.641 -1355.83 -0.869877 0.269784 0.412953 1
-156.334 141.622 -1354.89 -0.868097 0.260578 0.422501 1
-155.527 142.634 -1353.98 -0.850188 0.275415 0.448695 1
-154.747 143.753 -1353.19 -0.833261 0.298492 0.465381 1
-153.952 144.927 -1352.5 -0.819989 0.322771 0.472691 1
-153.19 144.954 -1351.12 -0.81306 0.315112 0.489529 1
-152.216 145.823 -1350.23 -0.809317 0.327386 0.487672 1
-151.336 146.351 -1349.03 -0.8126 0.32488 0.483874 1
-150.456 147.237 -1348.07 -0.821644 0.328771 0.465629 1
-149.656 147.68 -1346.78 -0.840025 0.309403 0.445676 1
-148.89 147.96 -1345.43 -0.867173 0.271052 0.417783 1
-148.112 149.219 -1344.89 -0.922571 0.189275 0.33621 1
-147.63 150.283 -1343.82 -0.967098 0.0763905 0.242664 1
-147.368 151.732 -1343.26 -0.990357 -0.0372742 0.133428 1
-147.681 153.135 -1342.61 -0.986723 -0.160834 0.0225925 0.01
-148.142 154.569 -1342.14 -0.956605 -0.280335 -0.0794913 1
-148.538 156.023 -1342.61 -0.931259 -0.336198 -0.140453 1
-148.782 157.286 -1343.52 -0.919653 -0.351122 -0.175928 1
-149.008 158.525 -1344.47 -0.906649 -0.364187 -0.212967 1
-149.402 159.822 -1345.28 -0.887549 -0.383711 -0.254994 1
-149.74 161.064 -1346.19 -0.869799 -0.394705 -0.29607 1
-149.46 161.731 -1347.59 -0.871702 -0.366878 -0.324863 1
-149.597 162.934 -1348.61 -0.851837 -0.368646 -0.372121 1
-149.416 163.853 -1349.87 -0.850386 -0.365986 -0.37802 1
-149.778 165.126 -1350.73 -0.835594 -0.398246 -0.378394 1
-150.222 166.351 -1351.62 -0.82102 -0.425956 -0.380116 1
-150.033 167.319 -1352.86 -0.824525 -0.430257 -0.367474 1
-150.013 168.36 -1354.04 -0.823969 -0.43584 -0.362102 1
-149.912 169.286 -1355.32 -0.828332 -0.432656 -0.355914 1
-149.685 170.1 -1356.65 -0.83899 -0.422401 -0.343036 1
-149.593 171.038 -1357.91 -0.844637 -0.415723 -0.337288 1
-149.747 172.193 -1358.98 -0.838888 -0.419002 -0.347425 1
-149.585 173.159 -1360.21 -0.845329 -0.404273 -0.349261 1
-149.192 173.734 -1361.63 -0.867112 -0.366759 -0.337053 1
-149.641 174.959 -1362.52 -0.851554 -0.368375 -0.373036 1
-149.671 176.019 -1363.69 -0.853492 -0.347832 -0.388027 1
-149.423 176.895 -1364.97 -0.869007 -0.308791 -0.386619 1
-149.15 177.719 -1366.29 -0.888331 -0.25649 -0.380895 1
-148.75 178.412 -1367.65 -0.914825 -0.184967 -0.359001 1
-148.328 178.877 -1369.1 -0.948053 -0.0899166 -0.305141 1
-147.894 178.575 -1370.59 -0.985822 0.0360593 -0.163874 0.01
-147.641 177.137 -1371.18 -0.992856 0.119164 0.00599057 1
-148.089 176.378 -1372.49 -0.954461 0.23906 0.17848 1
-148.811 175.937 -1373.82 -0.891652 0.33569 0.303759 1
-149.469 175.444 -1375.17 -0.826294 0.404816 0.391615 1
-150.242 175.025 -1376.48 -0.770204 0.452632 0.449344 1
-151.247 174.559 -1377.6 -0.722737 0.489193 0.488203 1
-152.264 173.881 -1378.6 -0.682755 0.521812 0.511427 1
-152.993 174.057 -1379.99 -0.666378 0.529275 0.525175 1
-153.787 174.782 -1381.14 -0.662734 0.522623 0.53633 1
-154.735 173.632 -1381.67 -0.651535 0.543789 0.528957 1
-155.884 173.009 -1382.55 -0.686315 0.521444 0.507019 1
-157.098 173.054 -1383.56 -0.715104 0.503694 0.484683 1
-158.059 172.91 -1384.8 -0.742779 0.485285 0.461279 1
-158.704 173.039 -1386.23 -0.763202 0.47274 0.440499 1
-159.255 173.538 -1387.62 -0.776695 0.466463 0.423269 1
-159.765 174.061 -1389.02 -0.788284 0.461621 0.406835 1
-160.201 174.346 -1390.51 -0.800222 0.455687 0.389865 1
-160.584 174.809 -1391.97 -0.808935 0.453232 0.374438 1
-160.947 175.323 -1393.42 -0.816348 0.452523 0.358885 1
-161.267 175.91 -1394.85 -0.822508 0.453577 0.343146 1
-161.637 176.498 -1396.26 -0.828197 0.455567 0.326417 1
-161.977 176.863 -1397.76 -0.833457 0.456907 0.310781 1
-162.385 177.028 -1399.28 -0.835166 0.440058 0.32992 1
-162.714 177.411 -1400.77 -0.836016 0.424594 0.347559 1
-163.006 177.817 -1402.27 -0.836899 0.410036 0.362587 1
-163.59 177.176 -1403.59 -0.839204 0.402222 0.365998 1
-164.421 177.223 -1404.93 -0.841502 0.390982 0.372838 1
-165.216 177.4 -1406.28 -0.844564 0.378663 0.378583 0.01
-166.093 176.409 -1407.14 -0.848756 0.376794 0.370998 1
-166.899 175.137 -1407.61 -0.857502 0.370284 0.357185 1
-167.549 173.704 -1407.72 -0.871658 0.351365 0.341694 1
-167.849 172.185 -1407.42 -0.883628 0.333363 0.32874 1
-168.062 170.684 -1406.98 -0.895068 0.31359 0.317041 1
-168.746 169.313 -1407.35 -0.907858 0.2847 0.307799 1
-169.051 167.765 -1407.3 -0.919245 0.257316 0.297955 1
-169.549 166.27 -1407.38 -0.929762 0.227921 0.289128 1
-169.584 164.752 -1406.95 -0.933772 0.218387 0.283509 1
-170.266 163.373 -1407.3 -0.935396 0.211701 0.283225 1
-170.395 161.827 -1407.02 -0.937905 0.209062 0.276816 1
-170.792 160.3 -1407.05 -0.939966 0.207001 0.27132 1
-171.595 159.001 -1407.45 -0.94154 0.204041 0.268084 1
-171.449 157.529 -1406.9 -0.943722 0.208352 0.256864 1
-171.813 155.994 -1406.88 -0.945678 0.210691 0.247592 1
-171.839 154.547 -1406.25 -0.947792 0.216475 0.234158 1
-172.092 152.989 -1406.23 -0.954174 0.198185 0.224221 1
-172.455 151.55 -1406.76 -0.961552 0.176278 0.210578 1
-172.734 150.047 -1407.16 -0.968085 0.153652 0.197996 1
-173.085 148.583 -1407.63 -0.974108 0.129789 0.185117 1
-173.367 147.086 -1408.04 -0.979337 0.105132 0.172759 1
-173.639 145.629 -1408.58 -0.983878 0.0794563 0.16022 1
-173.664 144.093 -1408.22 -0.985907 0.0643041 0.15444 1
-173.811 142.529 -1408.08 -0.985411 0.0672653 0.156335 1
-173.95 140.959 -1408.16 -0.984971 0.0709041 0.157498 1
-174.115 139.405 -1408.38 -0.984538 0.0747559 0.158419 1
-174.117 137.827 -1408.38 -0.984253 0.0787444 0.15826 1
-174.242 136.27 -1408.16 -0.984156 0.0829635 0.156697 1
-174.251 134.876 -1407.42 -0.984465 0.087536 0.152206 1
-174.345 133.438 -1406.78 -0.984779 0.0925321 0.147132 1
-174.392 132.043 -1406.04 -0.985031 0.0987823 0.141268 1
-174.51 130.601 -1405.41 -0.984415 0.106082 0.140266 1
-174.528 129.18 -1404.73 -0.983486 0.11017 0.143589 1
-174.656 127.699 -1404.2 -0.982706 0.113017 0.146683 1
-174.749 126.146 -1403.93 -0.982042 0.114167 0.150197 1
-175.163 124.81 -1404.67 -0.980977 0.116493 0.155284 1
-175.396 123.371 -1405.27 -0.979591 0.117675 0.162955 1
-175.662 122.006 -1406.01 -0.977671 0.119288 0.173002 1
-175.724 120.437 -1406.17 -0.974397 0.122785 0.188346 1
