# .PCD v0.7 - Point Cloud Data file format
# 4 95 0
# 1 21 0
# 22 58 0
# 59 89 0
# 90 95 0
VERSION 0.7
FIELDS x y z normal_x normal_y normal_z curvature
SIZE 4 4 4 4 4 4 4
TYPE F F F F F F F
COUNT 1 1 1 1 1 1 1
WIDTH 95
HEIGHT 1
VIEWPOINT 0 0 0 1 0 0 0
POINTS 95
DATA ascii
52.0979 -88.9191 -1641.43 0.776956 -0.598158 0.196334 0.01
51.4589 -90.5338 -1640.73 0.801909 -0.551124 0.230658 1
50.2592 -91.7594 -1639.98 0.833641 -0.482061 0.269556 1
49.0673 -92.943 -1639.16 0.873723 -0.377466 0.306802 1
48.3182 -94.0666 -1637.86 0.915499 -0.234909 0.326618 1
47.2457 -95.2782 -1636.92 0.943026 -0.12609 0.307901 1
46.699 -96.415 -1635.54 0.956064 -0.0889933 0.279323 1
47.0066 -98.6994 -1631.81 0.967988 -0.00640587 0.250913 1
46.318 -100.439 -1631.78 0.969591 0.025105 0.243439 1
45.7715 -101.622 -1630.44 0.959806 0.0367331 0.278249 1
45.0412 -102.819 -1629.2 0.942062 0.0382508 0.333251 1
45.1066 -104.465 -1628.31 0.923612 0.0429753 0.380911 1
44.7258 -106.087 -1627.46 0.908986 0.0316315 0.415625 1
44.3457 -107.341 -1626.12 0.909593 0.0132104 0.415291 1
43.9717 -108.959 -1625.26 0.912934 0.0108352 0.407964 1
43.5819 -110.607 -1624.46 0.920191 0.0154104 0.391167 1
43.3336 -112.299 -1623.7 0.92856 0.0244001 0.370379 1
43.0346 -114.067 -1623.17 0.933666 0.0315832 0.35675 1
42.7322 -115.855 -1622.7 0.935973 0.0379032 0.350026 1
42.4776 -117.54 -1621.93 0.93498 0.0440559 0.351954 1
42.4497 -119.329 -1621.38 0.934549 0.0345576 0.354152 1
41.9568 -120.512 -1620.02 0.931403 0.029517 0.362791 1
41.8525 -122.047 -1618.95 0.929846 0.0210862 0.367344 1
41.3696 -123.708 -1618.24 0.927886 0.0102018 0.372723 1
40.4885 -125.097 -1617.34 0.925679 0.0423234 0.375935 1
40.1964 -126.886 -1617.81 0.93273 0.085321 0.350336 1
41.1309 -128.503 -1617.69 0.943251 0.138818 0.301673 1
42.0243 -130.148 -1617.7 0.956637 0.180398 0.228698 0.01
42.6658 -131.346 -1618.98 0.964559 0.160479 0.209455 1
43.1049 -132.206 -1620.59 0.968805 0.139483 0.204845 1
43.3672 -133.28 -1622.1 0.972016 0.135087 0.192187 1
43.9516 -134.453 -1623.43 0.974555 0.138784 0.176017 1
44.0969 -134.731 -1625.28 0.974419 0.12015 0.189927 1
44.52 -135.42 -1626.96 0.973672 0.117204 0.195515 1
44.8885 -135.623 -1628.79 0.973219 0.104816 0.204591 1
45.4207 -136.352 -1630.43 0.970834 0.115144 0.210295 1
46.0307 -137.473 -1631.8 0.962158 0.153855 0.224901 1
46.5145 -137.592 -1633.6 0.956513 0.151848 0.24905 1
47.0028 -138.043 -1635.35 0.949014 0.163364 0.269602 1
47.508 -138.493 -1637.09 0.941835 0.173052 0.288095 1
48.4226 -139.865 -1637.98 0.936183 0.22367 0.271171 1
49.1746 -140.819 -1639.4 0.93622 0.238717 0.257888 1
48.9752 -139.755 -1640.93 0.943151 0.180025 0.279387 1
49.5287 -139.837 -1642.72 0.945788 0.156803 0.284426 1
50.045 -140.041 -1644.5 0.947784 0.135957 0.28848 1
50.5653 -140.243 -1646.29 0.951174 0.119076 0.284761 1
51.1764 -140.866 -1647.95 0.953747 0.120594 0.275362 1
51.7213 -141.443 -1649.64 0.955238 0.128762 0.266346 1
52.2015 -141.397 -1651.45 0.958084 0.132544 0.253983 1
52.4352 -141.159 -1653.29 0.950524 0.140393 0.277116 1
52.9741 -141.251 -1655.08 0.935192 0.160912 0.315473 1
53.6447 -140.483 -1656.65 0.926121 0.156822 0.343083 1
54.6546 -141.406 -1657.93 0.897157 0.212243 0.387378 1
55.6116 -141.774 -1659.49 0.871317 0.252108 0.421009 1
55.9675 -141.082 -1661.19 0.861071 0.259853 0.437074 1
56.6168 -140.76 -1662.92 0.839129 0.27953 0.466612 1
57.2323 -139.951 -1664.49 0.818452 0.295012 0.493056 1
57.7387 -138.477 -1665.53 0.81248 0.305828 0.496332 1
58.2283 -137.262 -1666.86 0.83925 0.260053 0.477527 1
58.557 -136.613 -1668.59 0.858001 0.239933 0.454165 1
58.5596 -135.155 -1669.76 0.883999 0.183593 0.42993 1
59.1769 -134.237 -1671.27 0.897163 0.178703 0.403934 1
59.3646 -132.467 -1671.85 0.921624 0.144579 0.360146 1
59.4453 -131.408 -1673.39 0.93212 0.16372 0.32303 1
60.1294 -130.752 -1675 0.93504 0.198794 0.293565 0.01
59.8331 -128.952 -1675.42 0.953715 0.175379 0.244273 1
59.5679 -127.102 -1675.34 0.967617 0.151425 0.20196 1
59.0826 -125.375 -1674.8 0.973167 0.14388 0.179567 1
58.5091 -123.869 -1673.85 0.973386 0.149678 0.173541 1
58.5133 -121.998 -1673.85 0.969984 0.180154 0.163327 1
57.9904 -120.554 -1672.78 0.965673 0.192842 0.174032 1
57.4053 -119.197 -1671.63 0.963526 0.183969 0.194354 1
57.0819 -117.53 -1670.84 0.963432 0.164566 0.211464 1
56.6827 -115.944 -1669.93 0.970317 0.139965 0.19722 1
56.2946 -114.331 -1669.07 0.975794 0.116414 0.185131 1
55.825 -112.89 -1667.97 0.979797 0.0977695 0.174468 1
55.4903 -111.338 -1666.98 0.981953 0.0710865 0.175259 1
55.5133 -109.591 -1666.3 0.9809 0.0351647 0.191305 1
55.2642 -108.227 -1665.05 0.9801 0.0222544 0.197251 1
55.0225 -106.816 -1663.84 0.978924 0.0065786 0.204121 1
54.504 -105.587 -1662.53 0.980989 -0.0131712 0.193615 1
53.9084 -104.483 -1661.14 0.985164 -0.0304625 0.168888 1
54.0633 -102.823 -1660.29 0.988024 -0.0504874 0.145807 1
53.8164 -101.855 -1658.71 0.992358 -0.0603102 0.107648 1
54.1781 -100.518 -1657.45 0.990106 -0.0460742 0.132543 1
53.7501 -99.8754 -1655.74 0.980758 -0.0209901 0.194095 1
53.4504 -98.8636 -1654.2 0.968289 0.0204602 0.248994 1
52.8601 -97.8965 -1652.71 0.951822 0.0649183 0.299699 1
52.4792 -96.6723 -1651.35 0.936923 0.11122 0.33137 1
51.9252 -95.6604 -1649.87 0.946812 0.0176778 0.321302 1
51.3788 -94.9385 -1648.23 0.953116 -0.0792165 0.292052 1
51.3548 -93.6886 -1646.84 0.93293 -0.261834 0.247152 1
51.133 -92.8153 -1645.2 0.908437 -0.37367 0.187384 1
51.1573 -91.6705 -1643.72 0.863254 -0.46711 0.191312 1
51.389 -90.3334 -1642.43 0.817984 -0.5402 0.197703 1
