# .PCD v0.7 - Point Cloud Data file format
# 4 94 0
# 1 12 0
# 13 22 0
# 23 69 0
# 70 94 0
VERSION 0.7
FIELDS x y z normal_x normal_y normal_z curvature
SIZE 4 4 4 4 4 4 4
TYPE F F F F F F F
COUNT 1 1 1 1 1 1 1
WIDTH 94
HEIGHT 1
VIEWPOINT 0 0 0 1 0 0 0
POINTS 94
DATA ascii
172.822 186.305 -1602.21 0.392032 -0.661319 0.639507 0.01
171.147 184.624 -1602.6 0.395838 -0.647572 0.651124 1
170.691 182.938 -1604.25 0.397534 -0.642656 0.65495 1
170.082 181.201 -1605.8 0.333634 -0.664213 0.668962 1
169.287 179.471 -1607.27 0.222512 -0.699101 0.679519 1
168.076 177.84 -1608.56 0.123869 -0.727535 0.674796 1
168.411 176.173 -1610.26 0.0983142 -0.732053 0.674116 1
168.978 174.699 -1612.07 0.0783624 -0.732098 0.676677 1
169.171 172.995 -1613.76 0.0305052 -0.739646 0.672304 1
169.917 171.526 -1615.51 0.014405 -0.73548 0.677393 1
170.804 170.208 -1617.31 0.0186768 -0.726032 0.687408 1
171.403 168.492 -1618.89 -0.00310159 -0.724624 0.689138 1
172.284 166.943 -1620.5 0.0126001 -0.715384 0.698617 1
172.568 165.036 -1621.94 -0.0697738 -0.729337 0.680587 1
173.652 163.494 -1623.43 -0.0381227 -0.716457 0.696589 1
174.621 161.679 -1624.68 -0.0280947 -0.706851 0.706805 1
175.149 159.668 -1625.89 -0.0954187 -0.719877 0.687511 1
174.614 159.579 -1628.23 -0.288305 -0.742826 0.604227 1
173.701 158.258 -1630.02 -0.409828 -0.734832 0.540428 1
173.728 156.709 -1631.86 -0.452342 -0.719741 0.526649 1
174.662 155.482 -1633.7 -0.460719 -0.707751 0.535561 1
175.198 153.702 -1635.23 -0.469361 -0.692899 0.547349 1
175.685 151.839 -1636.67 -0.482103 -0.670588 0.563816 1
176.825 150.123 -1637.91 -0.472351 -0.650412 0.594851 1
177.291 148.262 -1639.36 -0.495944 -0.62534 0.602485 1
177.951 146.406 -1640.74 -0.514237 -0.600957 0.611891 1
178.095 144.55 -1642.75 -0.555078 -0.578418 0.597763 1
178.882 142.586 -1643.89 -0.555186 -0.563854 0.611422 1
179.596 140.612 -1645.07 -0.549872 -0.548278 0.630104 1
180.828 138.697 -1645.84 -0.521328 -0.539258 0.661376 1
181.41 136.502 -1646.63 -0.495244 -0.522634 0.693965 1
181.988 134.462 -1647.77 -0.462715 -0.492452 0.737147 1
182.239 132.327 -1648.84 -0.426816 -0.444332 0.787653 1
182.476 130.232 -1650 -0.378688 -0.377466 0.845053 1
183.665 128.186 -1650.43 -0.323108 -0.332413 0.88606 1
184.101 125.895 -1651.01 -0.247999 -0.254926 0.934617 1
184.089 123.573 -1651.64 -0.161517 -0.195012 0.96741 1
185.701 121.845 -1651.19 -0.137887 -0.210705 0.967776 0.01
187.993 122.474 -1650.83 -0.19973 -0.299182 0.933058 1
190.332 122.952 -1650.55 -0.197282 -0.364276 0.910155 1
192.698 122.664 -1650.22 0.151879 -0.298722 0.942177 1
194.915 123.324 -1650.88 0.415337 -0.220388 0.882567 1
197.083 123.708 -1651.85 0.417614 -0.243363 0.875428 1
198.996 123.021 -1653.14 0.42814 -0.251045 0.868143 1
201.163 123.668 -1653.95 0.437766 -0.270619 0.857395 1
203.318 123.289 -1654.95 0.448998 -0.281252 0.848114 1
205.496 123.355 -1655.97 0.437071 -0.293666 0.850135 1
207.588 123.663 -1657.11 0.393404 -0.307664 0.866358 0.01
208.881 125.688 -1657.01 0.355658 -0.30797 0.882418 1
208.745 127.937 -1656.18 0.361797 -0.301594 0.882125 1
209.099 130.047 -1655.08 0.360124 -0.302021 0.882663 1
208.141 132.168 -1654.47 0.371187 -0.307802 0.876058 1
208.025 134.433 -1653.67 0.361307 -0.327512 0.873037 1
208.394 136.704 -1652.97 0.342384 -0.358325 0.868548 1
208.276 138.806 -1651.81 0.334107 -0.378871 0.863035 1
207.516 140.808 -1650.71 0.339539 -0.390768 0.855578 1
207.315 142.949 -1649.64 0.341792 -0.401206 0.849831 1
207.671 145.139 -1648.71 0.341732 -0.40597 0.84759 1
208.55 147.21 -1647.86 0.319048 -0.414639 0.852222 1
208.301 149.327 -1646.75 0.320578 -0.430174 0.843907 1
208.433 151.44 -1645.61 0.304745 -0.454372 0.837064 1
208.638 153.554 -1644.48 0.282639 -0.482736 0.828904 1
209.366 155.628 -1643.5 0.244517 -0.514844 0.821673 1
210.255 157.667 -1642.59 0.16908 -0.554407 0.81489 1
210.541 159.7 -1641.34 0.133739 -0.569975 0.810705 1
211.404 161.469 -1639.96 0.0890249 -0.584456 0.806527 1
211.65 163.403 -1638.55 0.0658303 -0.591013 0.803972 1
211.75 165.347 -1637.14 0.049477 -0.59443 0.802624 1
210.141 166.913 -1636.28 0.0814964 -0.588005 0.804741 1
209.033 168.515 -1634.87 0.109337 -0.598935 0.793298 1
207.616 169.628 -1633.27 0.153729 -0.604919 0.781307 1
206.156 170.947 -1631.89 0.200842 -0.607688 0.768361 1
205.309 172.467 -1630.23 0.216911 -0.619795 0.754191 1
204.352 174.013 -1628.66 0.229238 -0.631269 0.740911 1
203.096 175.584 -1627.34 0.246783 -0.63719 0.730128 1
202.248 177.126 -1625.7 0.250638 -0.651277 0.716253 1
200.774 178.36 -1624.25 0.288373 -0.650054 0.703044 1
200.503 180.015 -1622.53 0.274221 -0.674 0.685949 1
199.364 181.144 -1620.74 0.294821 -0.679569 0.671763 1
198.478 182.429 -1618.91 0.296757 -0.692181 0.657891 1
198.275 184.135 -1617.23 0.276006 -0.718167 0.638793 1
197.998 185.544 -1615.3 0.259904 -0.742046 0.617914 1
197.003 186.528 -1613.34 0.250654 -0.758446 0.601608 1
194.927 186.936 -1612.2 0.247963 -0.761126 0.599335 1
193.122 187.295 -1610.65 0.261224 -0.76652 0.586694 1
191.48 187.739 -1608.95 0.285255 -0.772709 0.567054 1
189.425 188.147 -1607.77 0.314566 -0.767783 0.558174 1
188.365 188.872 -1605.74 0.315152 -0.781971 0.537774 1
186.32 189.217 -1604.52 0.339241 -0.767901 0.543363 1
183.987 189.126 -1603.94 0.352571 -0.736239 0.577621 1
181.901 188.868 -1602.78 0.242293 -0.741443 0.625745 1
179.586 188.605 -1602.18 0.15798 -0.746769 0.646048 1
177.223 188.159 -1602.12 0.191749 -0.748552 0.634746 1
175.025 187.24 -1602.44 0.314374 -0.709724 0.630445 1
