ply
format ascii 1.0
element vertex 1120
property float x
property float y
property float z
property uchar red
property uchar green
property uchar blue
end_header
-55.7223 -8.30612 -15.9042 229 45 45
-54.4506 -9.54286 -16.2105 229 45 45
-53.6427 -11.1489 -16.302 229 45 45
-52.0714 -12.0239 -16.3744 229 45 45
-50.8417 -13.3283 -16.5348 229 45 45
-49.9589 -14.8833 -16.7414 229 45 45
-48.9798 -16.393 -16.6908 229 45 45
-47.7181 -17.6737 -16.7813 229 45 45
-46.3621 -18.8525 -16.8878 229 45 45
-44.92 -19.9194 -17.0372 229 45 45
-43.6947 -21.2354 -17.119 229 45 45
-42.9965 -22.8944 -17.108 229 45 45
-41.3938 -23.7126 -17.148 229 45 45
-39.95 -24.7867 -17.1916 229 45 45
-39.0439 -26.3413 -17.23 229 45 45
-37.8908 -27.7219 -17.298 229 45 45
-36.6914 -29.0641 -17.2968 229 45 45
-35.6949 -30.5629 -17.2595 229 45 45
-34.605 -31.995 -17.2928 229 45 45
-33.7121 -32.2932 -17.1756 229 45 45
-32.5007 -33.6238 -17.1364 229 45 45
-31.2747 -34.9418 -17.1614 229 45 45
-30.6962 -36.6458 -17.121 229 45 45
-29.1965 -37.6404 -17.0833 229 45 45
-28.4514 -39.2786 -17.0599 229 45 45
-26.9957 -40.3247 -16.8964 229 45 45
-25.8805 -41.7311 -16.7607 229 45 45
-24.9703 -43.2836 -16.739 229 45 45
-23.9387 -44.7546 -16.6283 229 45 45
-22.7026 -46.0603 -16.5411 229 45 45
-21.4251 -47.3235 -16.4312 229 45 45
-20.5198 -48.8786 -16.385 229 45 45
-19.6365 -50.4246 -16.1208 229 45 45
-18.2548 -51.5701 -15.9839 229 45 45
-17.4065 -53.133 -15.7049 229 45 45
-16.6306 -54.7368 -15.4499 229 45 45
-15.347 -55.9909 -15.3081 229 45 45
-14.5258 -57.5854 -15.157 229 45 45
-13.4309 -58.9971 -14.9369 229 45 45
-11.7417 -59.6106 -14.8355 229 45 45
-10.0218 -59.0823 -14.8881 229 45 45
-8.35261 -58.4569 -15.1384 229 45 45
-6.81314 -57.5387 -15.302 229 45 45
-5.57076 -56.2831 -15.648 229 45 45
-3.84164 -55.8026 -15.7873 229 45 45
-2.27462 -54.9426 -15.9989 229 45 45
-0.722066 -54.0418 -16.1337 229 45 45
0.697664 -52.9518 -16.3241 229 45 45
2.39107 -52.3456 -16.3943 229 45 45
4.19083 -52.3386 -16.3645 229 45 45
5.81909 -51.573 -16.4152 229 45 45
7.58251 -51.2122 -16.4083 229 45 45
9.19128 -50.4177 -16.5516 229 45 45
10.8652 -49.7626 -16.6468 229 45 45
12.6247 -49.3907 -16.7211 229 45 45
14.1194 -48.4053 -16.9087 229 45 45
15.8946 -48.1176 -16.833 229 45 45
17.385 -47.1096 -16.8837 229 45 45
18.9853 -46.2863 -16.9179 229 45 45
20.7147 -45.7873 -16.9011 229 45 45
22.4464 -45.3033 -16.983 229 45 45
23.7843 -44.1 -17.0298 229 45 45
25.1379 -42.9141 -17.0686 229 45 45
26.8434 -42.383 -16.8448 229 45 45
28.4412 -41.5617 -16.7368 229 45 45
29.9569 -40.5909 -16.709 229 45 45
31.4776 -39.6381 -16.8496 229 45 45
32.6791 -38.2998 -16.777 229 45 45
34.2211 -37.3794 -16.6528 229 45 45
35.9691 -36.9856 -16.4834 229 45 45
37.0995 -35.5864 -16.5553 229 45 45
38.6152 -34.6163 -16.5874 229 45 45
39.8041 -33.265 -16.5515 229 45 45
40.882 -31.8241 -16.512 229 45 45
41.7651 -30.2558 -16.5447 229 45 45
42.1455 -28.5019 -16.6819 229 45 45
43.3196 -27.1388 -16.6307 229 45 45
44.3521 -25.6646 -16.6113 229 45 45
45.0454 -24.0046 -16.6744 229 45 45
45.5843 -22.2886 -16.7442 229 45 45
46.0276 -20.5473 -16.8529 229 45 45
46.2556 -18.7688 -17.0104 229 45 45
46.5451 -16.9953 -17.1143 229 45 45
47.3533 -15.4025 -17.3377 229 45 45
47.6963 -13.6363 -17.2792 229 45 45
47.6428 -11.8373 -17.3138 229 45 45
48.2132 -10.131 -17.3668 229 45 45
48.8811 -8.48476 -17.6567 229 45 45
48.5444 -6.73542 -17.9137 229 45 45
48.3613 -4.95881 -17.6909 229 45 45
47.984 -3.23139 -17.3518 229 45 45
48.4084 -1.48577 -17.4593 229 45 45
48.6732 0.293707 -17.5174 229 45 45
48.1176 2.00568 -17.4915 229 45 45
47.6339 3.7343 -17.6255 229 45 45
47.4215 5.51833 -17.7337 229 45 45
46.9891 7.26591 -17.7289 229 45 45
46.9552 9.06494 -17.689 229 45 45
46.8154 10.8578 -17.6124 229 45 45
46.8675 12.6536 -17.5013 229 45 45
46.9695 14.4471 -17.3863 229 45 45
46.8084 16.2336 -17.2346 229 45 45
46.9301 18.0294 -17.2136 229 45 45
46.614 19.7987 -17.1173 229 45 45
46.1069 21.5199 -16.9776 229 45 45
45.9916 23.3055 -16.7787 229 45 45
46.5862 24.9993 -16.6447 229 45 45
46.2317 26.7349 -16.3269 229 45 45
46.6764 28.4567 -16.0474 229 45 45
46.9957 30.1826 -15.6482 229 45 45
47.3576 31.883 -15.182 229 45 45
47.908 33.5198 -14.6736 229 45 45
48.7403 35.054 -14.2345 229 45 45
49.6021 36.5233 -13.6534 229 45 45
50.147 38.1132 -13.0081 229 45 45
51.3137 39.3297 -12.3764 229 45 45
52.1336 40.7182 -11.5769 229 45 45
52.7622 42.2282 -10.8241 229 45 45
52.7362 43.7137 -9.80934 229 45 45
53.5897 45.0875 -9.01824 229 45 45
53.8931 46.6216 -8.12654 229 45 45
53.0645 48.1333 -7.60933 229 45 45
52.6259 49.7627 -6.98194 229 45 45
51.4904 51.1453 -6.78659 229 45 45
50.426 52.5928 -6.67507 229 45 45
48.8092 53.3526 -6.89523 229 45 45
47.1989 53.865 -7.5154 229 45 45
45.5369 53.9576 -8.20038 229 45 45
43.908 54.1856 -8.93157 229 45 45
42.2728 54.143 -9.68311 229 45 45
40.588 54.5626 -10.1577 229 45 45
38.8889 54.7976 -10.7034 229 45 45
37.1682 55.0722 -11.1548 229 45 45
35.4445 55.3638 -11.584 229 45 45
33.8184 56.1252 -11.7103 229 45 45
32.1427 56.7371 -11.9507 229 45 45
30.4277 57.2078 -12.2285 229 45 45
28.7979 57.9688 -12.2952 229 45 45
27.3081 58.978 -12.248 229 45 45
25.6056 59.5616 -12.2808 229 45 45
24.1135 60.5566 -12.1298 229 45 45
22.6475 59.765 -12.8116 229 45 45
21.9299 58.2754 -13.5227 229 45 45
20.5693 57.2499 -14.1025 229 45 45
19.006 56.5079 -14.5985 229 45 45
17.6792 55.3972 -15.0944 229 45 45
15.9642 55.0621 -15.5256 229 45 45
14.4297 54.1513 -15.7627 229 45 45
12.8238 53.3868 -16.0398 229 45 45
11.1207 52.9103 -16.3742 229 45 45
9.32926 52.7483 -16.4422 229 45 45
7.56602 53.1105 -16.4398 229 45 45
5.80577 53.4773 -16.5228 229 45 45
4.0552 53.0666 -16.6047 229 45 45
2.28123 52.7718 -16.6828 229 45 45
0.48838 52.9309 -16.6582 229 45 45
-1.27066 53.3071 -16.7224 229 45 45
-2.94026 52.6344 -16.7105 229 45 45
-4.72824 52.4277 -16.6977 229 45 45
-6.52572 52.4834 -16.6196 229 45 45
-8.22227 51.8828 -16.6435 229 45 45
-10.0144 51.7178 -16.6106 229 45 45
-11.7765 51.3508 -16.5919 229 45 45
-13.449 50.6873 -16.6419 229 45 45
-15.1559 51.2495 -16.5392 229 45 45
-16.943 51.3335 -16.3417 229 45 45
-18.7363 51.4305 -16.2207 229 45 45
-20.5281 51.4828 -16.0572 229 45 45
-22.3251 51.5091 -15.9551 229 45 45
-24.0202 52.0672 -15.721 229 45 45
-25.6331 51.2694 -15.7653 229 45 45
-26.5575 49.7384 -15.9701 229 45 45
-27.4703 48.1942 -16.1183 229 45 45
-28.5016 46.7229 -16.2212 229 45 45
-29.4749 45.223 -16.4294 229 45 45
-30.6265 43.8613 -16.675 229 45 45
-31.7995 42.4966 -16.7037 229 45 45
-33.2354 41.4115 -16.6754 229 45 45
-34.4192 40.0554 -16.6996 229 45 45
-35.9539 39.1159 -16.6647 229 45 45
-37.4577 38.1277 -16.6166 229 45 45
-38.714 36.8387 -16.6009 229 45 45
-40.1209 35.7192 -16.6892 229 45 45
-41.3325 34.3884 -16.7286 229 45 45
-42.4055 32.9438 -16.6923 229 45 45
-43.4884 31.5096 -16.5911 229 45 45
-44.6557 30.1392 -16.588 229 45 45
-45.4706 28.5345 -16.6074 229 45 45
-46.5368 27.0842 -16.6192 229 45 45
-47.5895 25.6244 -16.6363 229 45 45
-47.6044 23.8266 -16.7223 229 45 45
-48.5498 22.297 -16.6432 229 45 45
-49.3478 20.6835 -16.6476 229 45 45
-50.2967 19.1536 -16.6546 229 45 45
-51.0339 17.5118 -16.6902 229 45 45
-51.1803 15.718 -16.6922 229 45 45
-52.1082 14.1775 -16.619 229 45 45
-52.7934 12.5151 -16.529 229 45 45
-53.2667 10.7803 -16.6076 229 45 45
-53.0099 8.99973 -16.547 229 45 45
-53.6764 7.3299 -16.4635 229 45 45
-53.9609 5.55287 -16.425 229 45 45
-54.3162 3.78842 -16.43 229 45 45
-53.8878 2.04021 -16.4311 229 45 45
-54.5856 0.383029 -16.5167 229 45 45
-54.5897 -1.41297 -16.3961 229 45 45
-54.8254 -3.19513 -16.3077 229 45 45
-54.704 -4.98811 -16.2049 229 45 45
-55.6463 -6.51747 -16.0899 229 45 45
3.71906 97.7116 -8.81712 229 183 45
2.00054 97.8049 -9.34377 229 183 45
0.218629 97.9375 -9.5619 229 183 45
-1.19081 98.3868 -10.5874 229 183 45
-2.89849 98.7397 -11.0347 229 183 45
-4.12125 99.2962 -12.2327 229 183 45
-5.7191 99.3509 -13.0597 229 183 45
-7.49721 99.287 -13.3318 229 183 45
-9.28241 99.1254 -13.4962 229 183 45
-10.9325 99.0421 -12.7818 229 183 45
-12.7253 98.8893 -12.7298 229 183 45
-14.5037 98.6273 -12.6378 229 183 45
-15.9174 98.2942 -13.7009 229 183 45
-17.5306 98.1908 -12.9088 229 183 45
-19.3004 97.8794 -13.012 229 183 45
-21.0641 97.5197 -12.9955 229 183 45
-22.7851 97.1589 -13.3809 229 183 45
-24.5398 96.8288 -13.1555 229 183 45
-26.2833 96.385 -13.0971 229 183 45
-28.0277 95.9415 -13.1164 229 183 45
-29.7624 95.4624 -13.0794 229 183 45
-31.469 94.9514 -13.3364 229 183 45
-33.177 94.4041 -13.183 229 183 45
-34.8864 93.8573 -13.3188 229 183 45
-36.5314 93.1726 -13.5746 229 183 45
-38.2097 92.5456 -13.7512 229 183 45
-39.8701 91.8825 -13.5432 229 183 45
-41.5044 91.1302 -13.4947 229 183 45
-43.1946 90.5391 -13.6799 229 183 45
-44.8098 89.7448 -13.674 229 183 45
-46.3797 88.8813 -13.5032 229 183 45
-47.9494 88.1646 -14.0157 229 183 45
-49.5302 87.3246 -13.8293 229 183 45
-51.0931 86.4318 -13.8076 229 183 45
-52.6171 85.4853 -13.9534 229 183 45
-54.1295 84.5149 -13.8456 229 183 45
-55.6143 83.4976 -13.8299 229 183 45
-56.4374 82.9711 -14.3245 229 183 45
-57.9004 81.9895 -13.9551 229 183 45
-59.3816 80.9672 -13.9728 229 183 45
-60.7812 79.894 -14.3326 229 183 45
-62.1521 78.8271 -13.8598 229 183 45
-63.5511 77.6966 -13.9235 229 183 45
-64.949 76.5625 -13.915 229 183 45
-66.2147 75.3991 -14.4485 229 183 45
-67.5811 74.2307 -14.5332 229 183 45
-68.9503 73.0651 -14.4506 229 183 45
-70.2138 71.7898 -14.3205 229 183 45
-71.5237 70.5551 -14.3086 229 183 45
-72.8056 69.2926 -14.359 229 183 45
-74.0539 67.9983 -14.2774 229 183 45
-75.2216 66.6444 -14.0704 229 183 45
-76.4234 65.3043 -14.0568 229 183 45
-77.5397 63.9146 -13.805 229 183 45
-78.7248 62.5664 -13.9371 229 183 45
-79.8314 61.1569 -14.1072 229 183 45
-80.8953 59.7228 -13.8803 229 183 45
-81.9386 58.2614 -13.7563 229 183 45
-83.0121 56.8362 -13.9938 229 183 45
-84.0423 55.3694 -13.8275 229 183 45
-85.0213 53.8886 -14.1257 229 183 45
-85.9708 52.3638 -14.0105 229 183 45
-86.8057 50.8245 -13.5934 229 183 45
-87.7598 49.3613 -14.028 229 183 45
-88.5862 47.7845 -13.7607 229 183 45
-89.3938 46.1881 -13.9589 229 183 45
-90.2422 44.6008 -13.972 229 183 45
-90.9356 42.999 -13.532 229 183 45
-91.7083 41.3737 -13.4962 229 183 45
-92.4703 39.7574 -13.7131 229 183 45
-93.1555 38.1007 -13.8743 229 183 45
-93.7759 36.4702 -13.4311 229 183 45
-94.4296 34.8066 -13.6429 229 183 45
-95.0359 33.1118 -13.6598 229 183 45
-95.4988 31.4365 -13.1919 229 183 45
-94.9316 30.5325 -11.7424 229 183 45
-94.3419 29.6511 -10.2878 229 183 45
-93.9103 28.8745 -8.72215 229 183 45
-93.409 27.7068 -7.44732 229 183 45
-92.5893 26.8326 -6.10448 229 183 45
-92.1838 25.9519 -4.58765 229 183 45
-91.133 25.0072 -3.47268 229 183 45
-90.2523 24.1754 -2.14138 229 183 45
-89.4556 23.1045 -0.933807 229 183 45
-88.7052 21.8251 0.0861457 229 183 45
-87.5976 21.1406 1.32873 229 183 45
-86.7489 19.9606 2.39066 229 183 45
-85.6076 19.28 3.60493 229 183 45
-84.6626 18.2911 4.77501 229 183 45
-83.6598 17.2369 5.8346 229 183 45
-82.7228 16.2487 7.01153 229 183 45
-81.7914 15.177 8.11811 229 183 45
-80.5395 14.5201 9.23203 229 183 45
-79.7939 13.1014 10.0514 229 183 45
-78.8695 11.7126 10.7273 229 183 45
-77.9868 10.4207 11.617 229 183 45
-76.9094 9.33629 12.5675 229 183 45
-75.4969 9.11292 13.6608 229 183 45
-74.2352 10.0631 14.5239 229 183 45
-72.7892 10.9036 15.1892 229 183 45
-71.5841 12.058 15.864 229 183 45
-70.1001 12.4474 16.8052 229 183 45
-68.7668 13.623 17.0879 229 183 45
-67.3139 14.433 17.7757 229 183 45
-65.8169 15.2336 18.374 229 183 45
-64.391 16.2671 18.7466 229 183 45
-62.8069 17.039 19.1135 229 183 45
-61.3993 18.0797 19.5328 229 183 45
-59.9413 19.0523 19.9426 229 183 45
-58.4421 19.9975 20.2582 229 183 45
-56.8595 20.8482 20.3648 229 183 45
-55.5895 22.1029 20.5946 229 183 45
-54.397 23.3938 20.9835 229 183 45
-52.8358 24.2704 21.1681 229 183 45
-51.4454 25.3902 21.3972 229 183 45
-50.3147 26.7528 21.7208 229 183 45
-48.9757 27.894 22.1016 229 183 45
-47.55 28.9512 22.4015 229 183 45
-46.2657 30.1994 22.5821 229 183 45
-44.9965 31.4673 22.7282 229 183 45
-43.5122 32.4798 22.8364 229 183 45
-42.3913 33.8863 22.909 229 183 45
-41.0404 35.0746 22.9626 229 183 45
-39.7226 36.301 22.9727 229 183 45
-38.1509 37.1616 23.1419 229 183 45
-36.9844 38.5322 23.1122 229 183 45
-35.5426 39.6096 23.1019 229 183 45
-34.2348 40.8452 23.1552 229 183 45
-32.8607 42.0081 23.1354 229 183 45
-31.3746 43.0212 23.073 229 183 45
-30.2914 44.458 23.0242 229 183 45
-28.986 45.6961 22.9638 229 183 45
-27.4181 46.5798 22.966 229 183 45
-26.2084 47.8977 22.7667 229 183 45
-25.0189 49.2338 22.5664 229 183 45
-23.7406 50.4836 22.3555 229 183 45
-22.6536 51.8795 22.0238 229 183 45
-21.2437 52.9702 21.7736 229 183 45
-19.8424 54.0872 21.6066 229 183 45
-18.4498 55.2065 21.3863 229 183 45
-17.112 56.326 20.9431 229 183 45
-16.1702 57.8359 20.6731 229 183 45
-14.7813 58.9393 20.3671 229 183 45
-13.6533 60.3315 20.1956 229 183 45
-12.4359 61.6277 19.9168 229 183 45
-11.0478 62.6889 19.4828 229 183 45
-9.67658 63.8106 19.1655 229 183 45
-8.64623 65.2281 18.7547 229 183 45
-7.53682 66.6 18.3979 229 183 45
-6.31657 67.8055 17.8514 229 183 45
-5.30302 69.1713 17.262 229 183 45
-4.34095 70.5791 16.6856 229 183 45
-3.34324 71.9149 16.0071 229 183 45
-2.48431 73.32 15.281 229 183 45
-1.70744 74.7325 14.4797 229 183 45
-1.28783 76.2183 13.5543 229 183 45
-0.472878 77.5121 12.6049 229 183 45
0.238476 78.6919 11.4472 229 183 45
0.151144 80.2099 10.4837 229 183 45
0.833015 81.5021 9.43209 229 183 45
1.1505 82.7907 8.21592 229 183 45
1.42238 84.106 7.01773 229 183 45
1.6233 85.4093 5.79271 229 183 45
2.23599 86.6493 4.64014 229 183 45
2.03145 87.9631 3.42674 229 183 45
2.02472 89.2103 2.12878 229 183 45
2.5701 90.7031 1.28432 229 183 45
2.84855 91.5772 -0.264925 229 183 45
3.10848 92.6989 -1.64822 229 183 45
2.77901 93.7865 -3.04377 229 183 45
3.41611 94.5752 -4.53106 229 183 45
3.23854 95.7422 -5.89041 229 183 45
3.2268 96.8086 -7.34034 229 183 45
89.5777 47.9799 -16.3815 137 229 45
88.7623 49.5839 -16.4317 137 229 45
87.9331 51.1659 -16.6555 137 229 45
87.0546 52.7217 -16.8736 137 229 45
86.2063 54.3085 -16.8188 137 229 45
85.232 55.8215 -16.7805 137 229 45
84.2525 57.3198 -16.9694 137 229 45
83.2692 58.826 -17.0327 137 229 45
82.2529 60.2909 -17.28 137 229 45
81.2305 61.7657 -17.4227 137 229 45
80.1433 63.192 -17.5732 137 229 45
79.0741 64.6363 -17.4666 137 229 45
77.9587 66.0488 -17.4451 137 229 45
76.8278 67.443 -17.3099 137 229 45
75.6665 68.7686 -17.6751 137 229 45
74.4595 70.0906 -17.863 137 229 45
73.2908 71.4446 -17.66 137 229 45
72.0491 72.7256 -17.8972 137 229 45
70.7986 74.018 -17.8226 137 229 45
69.5156 75.2803 -17.7961 137 229 45
68.2006 76.4997 -17.9515 137 229 45
66.8554 77.6712 -18.1921 137 229 45
65.4849 78.8378 -18.2213 137 229 45
64.1026 79.9834 -18.0918 137 229 45
62.6995 81.1036 -17.9579 137 229 45
61.2803 82.2001 -18.1066 137 229 45
59.8247 83.2555 -18.1989 137 229 45
58.3626 84.2755 -17.9529 137 229 45
56.8783 85.286 -18.0777 137 229 45
55.3653 86.2608 -18.0309 137 229 45
53.8324 87.1989 -18.1261 137 229 45
52.2658 88.0411 -18.4039 137 229 45
50.7544 88.9093 -17.9556 137 229 45
49.1488 89.7147 -18.0712 137 229 45
47.5759 90.5883 -18.1279 137 229 45
46.0123 91.4477 -17.8872 137 229 45
44.3997 92.2247 -18.073 137 229 45
42.7828 92.9805 -17.8409 137 229 45
41.1295 93.6606 -18.0536 137 229 45
39.4613 94.3286 -18.1479 137 229 45
37.7864 94.9874 -18.1903 137 229 45
36.0864 95.5779 -18.2433 137 229 45
34.4067 96.2038 -18.0861 137 229 45
32.7006 96.7731 -18.0024 137 229 45
30.9796 97.2976 -18.0349 137 229 45
29.2472 97.7885 -18.0419 137 229 45
27.5186 98.2775 -17.9321 137 229 45
25.776 98.7169 -17.8394 137 229 45
24.0336 99.1433 -17.6826 137 229 45
22.2684 99.4896 -17.7293 137 229 45
20.4949 99.7974 -17.7153 137 229 45
18.727 100.122 -17.6197 137 229 45
16.9631 100.413 -17.4088 137 229 45
15.1768 100.628 -17.4778 137 229 45
13.385 100.761 -17.5816 137 229 45
11.587 100.692 -17.6085 137 229 45
11.6857 100.897 -17.4635 137 229 45
9.90994 101.032 -17.2036 137 229 45
8.14092 101.144 -16.889 137 229 45
6.3444 101.252 -16.8768 137 229 45
4.96969 100.624 -15.8989 137 229 45
4.77083 100.133 -14.1787 137 229 45
4.60054 99.5626 -12.4799 137 229 45
4.34606 98.8249 -10.8578 137 229 45
4.24736 98.0407 -9.24051 137 229 45
4.11195 97.0518 -7.74261 137 229 45
3.74023 96.089 -6.26798 137 229 45
3.55503 95.0291 -4.82506 137 229 45
3.36926 93.973 -3.37924 137 229 45
2.97082 92.7678 -2.10293 137 229 45
2.80604 91.5026 -0.833238 137 229 45
2.42649 90.2395 0.391716 137 229 45
2.40751 89.0797 1.76807 137 229 45
2.34052 87.9098 3.1344 137 229 45
1.89907 86.7683 4.45436 137 229 45
1.63871 85.5657 5.76798 137 229 45
1.24414 84.3183 7.00423 137 229 45
0.717207 83.0423 8.15948 137 229 45
0.146808 81.8208 9.3519 137 229 45
-0.497889 80.5367 10.4362 137 229 45
-1.15465 79.199 11.4457 137 229 45
-1.4167 77.8808 12.6432 137 229 45
-1.93551 76.4764 13.6426 137 229 45
-2.37107 74.9651 14.5181 137 229 45
-2.79194 73.4842 15.4502 137 229 45
-3.10557 71.9017 16.2485 137 229 45
-3.60701 70.2944 16.8851 137 229 45
-3.85134 68.5938 17.4225 137 229 45
-3.97611 67.0175 18.2825 137 229 45
-4.18746 65.392 19.0261 137 229 45
-4.13918 63.6433 19.4501 137 229 45
-3.99454 62.0458 20.2669 137 229 45
-2.239 61.6834 20.4269 137 229 45
-0.45167 61.4808 20.4947 137 229 45
1.34158 61.3447 20.4201 137 229 45
3.13309 61.5102 20.3785 137 229 45
4.92644 61.5729 20.2329 137 229 45
6.66928 61.1331 20.1345 137 229 45
8.45332 61.3711 20.1226 137 229 45
10.1246 60.7092 20.2101 137 229 45
11.8807 60.3129 20.2271 137 229 45
13.478 59.5008 20.3996 137 229 45
15.2444 59.1598 20.4293 137 229 45
16.9449 58.5935 20.5979 137 229 45
18.6645 58.0688 20.691 137 229 45
20.3972 57.5826 20.7057 137 229 45
22.0295 56.8295 20.8056 137 229 45
23.6221 56.0004 20.9273 137 229 45
25.3333 55.441 20.9053 137 229 45
26.8891 54.5519 21.0751 137 229 45
28.2815 53.4405 21.3322 137 229 45
29.7689 52.4294 21.3993 137 229 45
31.3367 51.5451 21.3699 137 229 45
32.7994 50.4968 21.3766 137 229 45
34.3389 49.5645 21.3998 137 229 45
35.7047 48.3941 21.48 137 229 45
37.1056 47.2673 21.5598 137 229 45
38.5988 46.2616 21.5833 137 229 45
40.136 45.3271 21.5464 137 229 45
41.6334 44.3297 21.4917 137 229 45
43.2296 43.5464 21.2082 137 229 45
44.5264 42.301 21.2878 137 229 45
45.9186 41.1649 21.1746 137 229 45
47.2393 39.9452 21.0879 137 229 45
48.7918 39.1494 20.6452 137 229 45
50.0944 37.917 20.4865 137 229 45
51.6461 37.0446 20.2234 137 229 45
53.1936 36.1855 19.8956 137 229 45
54.8001 35.5602 19.3767 137 229 45
56.4007 34.912 18.869 137 229 45
58.0377 34.3034 18.4333 137 229 45
59.5635 33.6227 17.7632 137 229 45
61.3013 33.723 17.3056 137 229 45
62.9766 33.5303 16.6761 137 229 45
64.6014 33.4876 15.9026 137 229 45
66.1941 33.2334 15.1043 137 229 45
67.76 33.1947 14.2169 137 229 45
69.3017 33.2832 13.292 137 229 45
70.7564 32.8843 12.3104 137 229 45
72.1971 32.5295 11.2914 137 229 45
73.7368 32.6313 10.3643 137 229 45
75.1432 32.2595 9.3044 137 229 45
76.4816 32.1915 8.10206 137 229 45
77.6563 31.648 6.85124 137 229 45
79.084 32.0479 5.83147 137 229 45
80.2226 32.6154 4.55769 137 229 45
81.2979 32.9814 3.16118 137 229 45
82.3059 33.6025 1.80583 137 229 45
82.822 34.6497 0.435522 137 229 45
83.3207 36.0217 -0.617031 137 229 45
83.9647 37.5117 -1.39509 137 229 45
84.4169 38.6949 -2.67396 137 229 45
84.9559 39.5917 -4.13873 137 229 45
85.5302 40.5917 -5.52069 137 229 45
86.0509 42.1245 -6.3077 137 229 45
86.6014 43.3584 -7.49676 137 229 45
87.3697 44.0047 -8.9908 137 229 45
87.9495 44.9152 -10.4314 137 229 45
88.4368 45.6832 -11.9847 137 229 45
89.0647 46.1383 -13.6089 137 229 45
89.7242 46.6181 -15.2136 137 229 45
48.9777 -19.5178 -16.3531 45 229 91
47.8951 -20.9514 -16.4676 45 229 91
46.7396 -22.3296 -16.5402 45 229 91
45.6655 -23.7738 -16.5583 45 229 91
44.519 -25.1578 -16.6592 45 229 91
43.63 -26.7224 -16.6169 45 229 91
42.5209 -28.1392 -16.6635 45 229 91
41.5576 -29.6595 -16.6279 45 229 91
40.7484 -31.2662 -16.5695 45 229 91
39.483 -32.5452 -16.6241 45 229 91
38.1861 -33.7923 -16.6789 45 229 91
37.1956 -35.2948 -16.6435 45 229 91
35.689 -36.2778 -16.7048 45 229 91
34.2405 -37.3441 -16.773 45 229 91
33.3503 -38.9037 -16.6507 45 229 91
31.7207 -39.6646 -16.7217 45 229 91
30.0093 -40.1426 -17.0095 45 229 91
28.6788 -41.3479 -16.877 45 229 91
27.2852 -42.4871 -16.8951 45 229 91
26.1123 -43.8365 -16.6869 45 229 91
24.5022 -44.6397 -16.7339 45 229 91
22.9815 -45.6025 -16.7501 45 229 91
21.2889 -46.201 -16.8786 45 229 91
19.8386 -47.2516 -16.6974 45 229 91
18.1045 -47.6949 -16.888 45 229 91
16.4748 -48.4521 -16.7858 45 229 91
14.7683 -49.0179 -16.6985 45 229 91
13.001 -49.3571 -16.7499 45 229 91
11.2413 -49.7347 -16.7666 45 229 91
9.50265 -50.2009 -16.7649 45 229 91
7.80233 -50.789 -16.7075 45 229 91
6.00835 -50.7227 -16.8339 45 229 91
4.54778 -51.7412 -16.5676 45 229 91
2.87803 -52.4092 -16.4968 45 229 91
1.73382 -52.3473 -16.5481 45 229 91
0.0663523 -53.0142 -16.4225 45 229 91
-1.47996 -53.9221 -16.2688 45 229 91
-2.9436 -54.9494 -16.0616 45 229 91
-4.58745 -55.6559 -15.8652 45 229 91
-6.31946 -56.1464 -15.86 45 229 91
-7.57368 -57.3137 -15.3092 45 229 91
-8.85458 -58.5013 -14.8746 45 229 91
-10.5893 -58.9492 -14.7015 45 229 91
-12.0219 -59.8973 -14.1631 45 229 91
-13.3428 -60.9742 -13.5848 45 229 91
-14.6086 -62.092 -12.9614 45 229 91
-16.0187 -63.0362 -12.3604 45 229 91
-17.3128 -64.035 -11.608 45 229 91
-18.6219 -65.0201 -10.8625 45 229 91
-19.6566 -66.1706 -9.94231 45 229 91
-20.7403 -67.2258 -8.96668 45 229 91
-21.9827 -68.1055 -8.00642 45 229 91
-23.1649 -69.0243 -7.00691 45 229 91
-24.2801 -69.9372 -5.92922 45 229 91
-25.0829 -71.0167 -4.73306 45 229 91
-26.3226 -71.8054 -3.69371 45 229 91
-25.4535 -73.1062 -2.80334 45 229 91
-25.0716 -74.4595 -1.6798 45 229 91
-23.7083 -75.4385 -1.02924 45 229 91
-22.6439 -76.6028 -0.16243 45 229 91
-21.3098 -77.7086 0.325225 45 229 91
-20.5399 -78.9824 1.3373 45 229 91
-19.4951 -80.0577 2.33347 45 229 91
-18.4393 -81.1661 3.28024 45 229 91
-17.2816 -82.1971 4.19512 45 229 91
-16.0135 -83.1472 5.04915 45 229 91
-14.9359 -84.1659 6.06947 45 229 91
-13.8355 -85.123 7.12439 45 229 91
-13.1449 -86.1955 8.3946 45 229 91
-11.747 -86.9757 9.2176 45 229 91
-11.2941 -88.1984 10.4586 45 229 91
-10.1606 -89.0662 11.555 45 229 91
-9.10146 -90.0804 12.5988 45 229 91
-7.95375 -91.3239 13.2127 45 229 91
-6.16356 -91.1692 13.1122 45 229 91
-4.39941 -91.5248 13.1466 45 229 91
-2.60008 -91.5558 13.1085 45 229 91
-0.814412 -91.3416 13.026 45 229 91
0.983108 -91.2753 12.9572 45 229 91
2.76837 -91.4989 12.9953 45 229 91
4.56778 -91.5587 12.9912 45 229 91
6.24411 -90.9185 12.8488 45 229 91
8.03647 -90.7579 12.8128 45 229 91
9.83626 -90.7315 12.8241 45 229 91
11.6227 -90.9408 12.8897 45 229 91
13.3683 -90.5039 12.8408 45 229 91
14.995 -89.7434 12.7192 45 229 91
16.7824 -89.9179 12.8418 45 229 91
18.5506 -89.5819 12.8175 45 229 91
20.1444 -88.758 12.6725 45 229 91
21.9427 -88.8232 12.7205 45 229 91
23.6701 -88.3209 12.6599 45 229 91
25.342 -87.6588 12.5799 45 229 91
26.9677 -86.9077 12.4009 45 229 91
28.1983 -85.6536 12.0099 45 229 91
29.9612 -85.4693 12.3229 45 229 91
31.7371 -85.1771 12.3575 45 229 91
33.2801 -84.2647 12.1927 45 229 91
35.0551 -83.976 12.2678 45 229 91
36.7717 -83.434 12.2547 45 229 91
38.1424 -82.2763 12.1118 45 229 91
39.8774 -81.8022 12.1762 45 229 91
41.2801 -80.6781 12.0743 45 229 91
42.9605 -80.0342 12.0857 45 229 91
44.461 -79.0425 12.0118 45 229 91
45.7158 -77.777 11.7581 45 229 91
47.3346 -76.9987 11.8724 45 229 91
48.9898 -76.3021 11.996 45 229 91
50.4809 -75.2942 11.9716 45 229 91
51.9425 -74.2438 11.9403 45 229 91
53.4041 -73.194 11.9053 45 229 91
54.7438 -72.0008 11.7566 45 229 91
56.3578 -71.2267 11.9451 45 229 91
57.6776 -70.0038 11.897 45 229 91
59.0008 -68.7855 11.8228 45 229 91
60.3233 -67.5651 11.7872 45 229 91
61.8482 -66.6175 11.9157 45 229 91
63.3884 -65.688 11.9729 45 229 91
64.4238 -64.2161 11.9313 45 229 91
65.4981 -62.7786 11.7897 45 229 91
66.3251 -61.2045 11.5106 45 229 91
65.7298 -60.1404 10.1863 45 229 91
64.991 -59.2921 8.78124 45 229 91
64.6576 -58.084 7.48945 45 229 91
64.7658 -56.736 6.30141 45 229 91
64.6931 -55.5306 4.96674 45 229 91
63.7779 -54.7029 3.6562 45 229 91
63.636 -53.3981 2.42427 45 229 91
63.1459 -52.2798 1.10146 45 229 91
62.7768 -50.98 -0.087538 45 229 91
62.0011 -49.9141 -1.31328 45 229 91
61.4207 -48.613 -2.41324 45 229 91
60.787 -47.3483 -3.5263 45 229 91
60.3936 -46.0371 -4.69532 45 229 91
59.7934 -44.652 -5.67561 45 229 91
59.9312 -43.1321 -6.62997 45 229 91
59.3039 -41.6887 -7.50356 45 229 91
58.6109 -40.338 -8.47063 45 229 91
57.8259 -39.0796 -9.49047 45 229 91
57.528 -37.4331 -10.1539 45 229 91
56.8625 -35.9809 -10.9837 45 229 91
56.6245 -34.3234 -11.6439 45 229 91
56.6011 -32.6095 -12.1936 45 229 91
55.8394 -31.1435 -12.908 45 229 91
55.0395 -29.6841 -13.5938 45 229 91
54.5515 -28.0287 -14.1052 45 229 91
53.7841 -26.5095 -14.6908 45 229 91
53.1437 -24.881 -15.113 45 229 91
52.7557 -23.1381 -15.3404 45 229 91
51.78 -21.6916 -15.7828 45 229 91
50.4531 -20.5138 -16.0853 45 229 91
83.1511 -32.1535 9.52969 45 229 229
83.7108 -30.445 9.62303 45 229 229
83.0139 -32.0955 9.44723 45 229 229
84.4808 -28.4037 9.53702 45 229 229
84.8308 -26.642 9.42208 45 229 229
85.4247 -24.9432 9.46467 45 229 229
85.6345 -23.1565 9.39517 45 229 229
85.9763 -21.3898 9.36444 45 229 229
86.4334 -19.6505 9.43551 45 229 229
87.1371 -18.0078 9.6522 45 229 229
87.2815 -16.2138 9.61474 45 229 229
88.2141 -14.7298 10.0242 45 229 229
89.0172 -13.7939 11.3354 45 229 229
89.9424 -12.4817 12.1492 45 229 229
90.3195 -10.7422 12.4164 45 229 229
90.9098 -9.06297 12.6856 45 229 229
90.9789 -7.26449 12.7071 45 229 229
91.1135 -5.47118 12.7798 45 229 229
91.1304 -3.67098 12.7833 45 229 229
91.4242 -1.9028 12.9471 45 229 229
91.6302 -0.119659 13.0807 45 229 229
91.6142 1.67982 13.1287 45 229 229
91.4694 3.47347 13.1703 45 229 229
91.4703 5.26878 13.299 45 229 229
91.3296 7.0619 13.3669 45 229 229
91.1804 8.85463 13.4331 45 229 229
91.357 10.6366 13.6149 45 229 229
90.9971 12.4002 13.6208 45 229 229
90.859 14.1913 13.7326 45 229 229
90.6413 15.9757 13.8256 45 229 229
90.3998 17.7569 13.923 45 229 229
90.0884 19.5264 14.0296 45 229 229
89.9504 21.3141 14.1895 45 229 229
89.3087 22.9959 14.189 45 229 229
89.0212 24.7677 14.3213 45 229 229
88.5467 26.5009 14.4255 45 229 229
88.1944 28.2649 14.4894 45 229 229
87.3652 29.8591 14.3849 45 229 229
87.0425 31.6263 14.4988 45 229 229
86.6879 33.3874 14.6089 45 229 229
85.4311 34.6501 14.3521 45 229 229
85.0759 36.3993 14.5847 45 229 229
84.6969 38.1512 14.7513 45 229 229
83.9113 39.7696 14.8094 45 229 229
82.8946 41.252 14.7149 45 229 229
82.2684 42.9344 14.846 45 229 229
81.4172 44.5205 14.8556 45 229 229
80.9368 46.2421 15.0679 45 229 229
79.9039 47.7161 15.0502 45 229 229
78.9956 49.2691 15.1053 45 229 229
78.0577 50.8045 15.159 45 229 229
77.0143 52.2706 15.1133 45 229 229
76.0805 53.8081 15.1783 45 229 229
75.2311 55.3842 15.3638 45 229 229
74.5335 57.0299 15.5753 45 229 229
73.1655 58.1941 15.4583 45 229 229
72.5308 59.8454 15.7902 45 229 229
71.0313 60.8194 15.583 45 229 229
70.3175 62.4376 15.9181 45 229 229
68.9268 63.5794 15.8819 45 229 229
67.3634 64.3143 15.3755 45 229 229
66.72 63.7276 13.8001 45 229 229
66.1257 62.9479 12.2907 45 229 229
65.7451 62.1261 10.735 45 229 229
65.3155 60.9975 9.40029 45 229 229
64.7581 60.4069 7.79397 45 229 229
64.248 59.567 6.28594 45 229 229
63.7014 58.4832 4.95673 45 229 229
62.8752 57.6753 3.5767 45 229 229
62.0768 56.8088 2.21573 45 229 229
61.2519 56.016 0.826251 45 229 229
60.4436 54.8569 -0.288606 45 229 229
59.7432 53.745 -1.51882 45 229 229
59.1889 52.5484 -2.74393 45 229 229
58.2927 51.5308 -3.92783 45 229 229
57.6516 50.3851 -5.15904 45 229 229
57.0401 49.0939 -6.25403 45 229 229
56.1753 47.9773 -7.37015 45 229 229
55.3928 46.8692 -8.55308 45 229 229
54.8291 45.4571 -9.51666 45 229 229
54.2399 43.9346 -10.2748 45 229 229
53.374 42.6553 -11.1993 45 229 229
52.9043 41.0276 -11.8067 45 229 229
51.8755 39.7561 -12.5587 45 229 229
50.8655 38.4116 -13.201 45 229 229
49.7901 37.0596 -13.7057 45 229 229
48.6215 35.7922 -14.2225 45 229 229
47.8733 34.1739 -14.4707 45 229 229
46.5208 33.151 -15.0753 45 229 229
45.6374 31.6172 -15.4009 45 229 229
44.3858 30.3745 -15.7628 45 229 229
43.3656 28.9331 -16.1111 45 229 229
43.733 27.1995 -16.4265 45 229 229
43.7417 25.3995 -16.4275 45 229 229
43.9951 23.6183 -16.4807 45 229 229
44.7306 21.9754 -16.4943 45 229 229
45.5306 20.3632 -16.4686 45 229 229
46.0287 18.6384 -16.5987 45 229 229
46.3251 16.8664 -16.7108 45 229 229
46.5779 15.0909 -16.8637 45 229 229
46.8403 13.3146 -16.9893 45 229 229
47.3007 11.5746 -16.9572 45 229 229
47.3579 9.78203 -17.1086 45 229 229
47.4721 7.98774 -17.1993 45 229 229
47.5668 6.19195 -17.2728 45 229 229
48.0723 4.47213 -17.108 45 229 229
47.6274 2.73726 -17.287 45 229 229
47.6761 0.938708 -17.3426 45 229 229
47.7679 -0.857285 -17.4129 45 229 229
47.9155 -2.65066 -17.4594 45 229 229
48.0865 -4.43456 -17.2893 45 229 229
48.1651 -6.23202 -17.3385 45 229 229
47.8654 -8.0051 -17.4182 45 229 229
47.8775 -9.80038 -17.2883 45 229 229
47.6532 -11.5834 -17.397 45 229 229
48.0135 -13.3435 -17.2897 45 229 229
48.4684 -15.0795 -17.1511 45 229 229
48.3021 -16.8713 -17.1996 45 229 229
48.4523 -18.6544 -17.0054 45 229 229
49.0763 -20.3172 -16.7114 45 229 229
48.9461 -22.1124 -16.7279 45 229 229
49.1413 -23.8944 -16.5658 45 229 229
49.4698 -25.6462 -16.3164 45 229 229
49.7576 -27.4223 -16.257 45 229 229
51.5071 -27.1339 -15.9463 45 229 229
53.0791 -26.5516 -15.2902 45 229 229
54.8077 -26.4191 -14.8074 45 229 229
56.4851 -26.3446 -14.1588 45 229 229
58.1279 -25.8988 -13.5731 45 229 229
59.7648 -26.3346 -12.9641 45 229 229
61.3117 -26.4478 -12.0507 45 229 229
62.8805 -26.3139 -11.1781 45 229 229
64.3095 -26.8256 -10.2107 45 229 229
65.7855 -27.0405 -9.20326 45 229 229
67.1766 -27.4776 -8.14793 45 229 229
68.3405 -28.2524 -7.01422 45 229 229
69.6669 -28.6515 -5.86462 45 229 229
70.9252 -29.1374 -4.67285 45 229 229
72.1931 -29.5219 -3.45439 45 229 229
73.5152 -30.0945 -2.37534 45 229 229
74.7381 -30.4062 -1.09198 45 229 229
75.7882 -30.8158 0.311565 45 229 229
76.9937 -31.2092 1.58898 45 229 229
77.9468 -31.8183 2.9892 45 229 229
78.9035 -32.1931 4.46701 45 229 229
79.813 -32.7209 5.92801 45 229 229
80.7973 -32.8926 7.42515 45 229 229
81.7742 -33.1375 8.91719 45 229 229
4.87279 -110.716 39.6875 45 91 229
6.63824 -110.93 39.9657 45 91 229
8.41769 -111.11 40.1685 45 91 229
10.1982 -110.847 40.1952 45 91 229
11.9306 -111.25 40.4698 45 91 229
12.7661 -110.883 40.4494 45 91 229
14.561 -110.915 40.5797 45 91 229
16.3009 -110.454 40.5697 45 91 229
18.08 -110.512 40.8358 45 91 229
19.8369 -110.124 40.8904 45 91 229
21.6259 -110.026 41.063 45 91 229
23.2856 -109.336 40.9644 45 91 229
25.0683 -109.149 41.1307 45 91 229
26.8544 -109.168 41.3512 45 91 229
28.4211 -108.299 41.1816 45 91 229
30.0734 -107.599 41.0386 45 91 229
31.8515 -107.504 41.3019 45 91 229
33.6367 -107.338 41.4631 45 91 229
35.278 -106.601 41.4077 45 91 229
37.0421 -106.253 41.4889 45 91 229
38.7381 -105.65 41.5004 45 91 229
40.3183 -104.795 41.3854 45 91 229
41.9378 -104.012 41.3244 45 91 229
43.7088 -103.72 41.4572 45 91 229
45.2999 -102.878 41.4453 45 91 229
46.8331 -101.944 41.3167 45 91 229
48.4931 -101.248 41.341 45 91 229
50.1204 -100.481 41.2785 45 91 229
51.8296 -99.9271 41.3839 45 91 229
53.3917 -99.0324 41.3817 45 91 229
54.9661 -98.16 41.3817 45 91 229
56.4628 -97.1604 41.3582 45 91 229
57.9614 -96.1636 41.337 45 91 229
59.5104 -95.2474 41.3042 45 91 229
60.988 -94.2222 41.2271 45 91 229
62.3979 -93.112 41.0884 45 91 229
63.5351 -91.7579 40.752 45 91 229
65.0431 -90.7759 40.7074 45 91 229
66.6284 -89.9255 40.7672 45 91 229
68.0435 -88.8132 40.7708 45 91 229
69.5328 -87.804 40.83 45 91 229
70.5413 -86.345 40.5219 45 91 229
71.9824 -85.2679 40.4612 45 91 229
73.4632 -84.2449 40.4627 45 91 229
74.3154 -82.7017 40.0996 45 91 229
75.7827 -81.6593 40.1341 45 91 229
77.2673 -80.6431 40.185 45 91 229
77.9936 -79.0347 39.8312 45 91 229
79.4414 -77.9657 39.874 45 91 229
80.0068 -76.3068 39.4629 45 91 229
81.539 -75.3718 39.5953 45 91 229
82.7585 -74.05 39.5214 45 91 229
83.8671 -72.6364 39.4027 45 91 229
84.7803 -71.0921 39.2601 45 91 229
85.7225 -69.5842 38.9811 45 91 229
86.9508 -68.2694 38.9285 45 91 229
88.0808 -66.8719 38.8248 45 91 229
88.7328 -65.2193 38.5342 45 91 229
89.5328 -63.6188 38.3427 45 91 229
90.5944 -62.1692 38.2325 45 91 229
91.3936 -60.5717 38.0099 45 91 229
92.3028 -59.0271 37.8464 45 91 229
92.8641 -57.3442 37.539 45 91 229
93.966 -55.9216 37.5048 45 91 229
94.7372 -54.3078 37.3043 45 91 229
95.5518 -52.714 37.1101 45 91 229
96.3843 -51.1282 36.9356 45 91 229
96.963 -49.4425 36.6787 45 91 229
97.3741 -47.7193 36.3628 45 91 229
98.1467 -46.1024 36.1909 45 91 229
98.6376 -44.3874 35.9507 45 91 229
99.0839 -42.665 35.6808 45 91 229
99.6466 -40.9658 35.4873 45 91 229
99.9471 -39.2118 35.2186 45 91 229
98.5749 -39.5516 34.1043 45 91 229
97.4731 -40.5182 33.0602 45 91 229
96.277 -41.2071 31.9048 45 91 229
95.3892 -42.5818 31.1552 45 91 229
94.2964 -43.5507 30.1025 45 91 229
93.3073 -44.4044 28.8648 45 91 229
92.2314 -45.6038 28.0623 45 91 229
91.1161 -46.6642 27.1288 45 91 229
90.089 -48.067 26.6611 45 91 229
88.958 -48.7701 25.4505 45 91 229
87.7653 -49.9431 24.7865 45 91 229
86.5597 -51.0477 24.0332 45 91 229
85.2463 -51.9332 23.1787 45 91 229
83.9402 -52.8345 22.3289 45 91 229
82.6293 -53.7143 21.464 45 91 229
81.3482 -54.2475 20.3174 45 91 229
80.1284 -55.5016 19.895 45 91 229
78.7368 -56.359 19.1408 45 91 229
77.3751 -57.2413 18.3619 45 91 229
76.0715 -58.1465 17.5121 45 91 229
74.6645 -59.1171 16.9482 45 91 229
73.2471 -60.0072 16.2857 45 91 229
71.9387 -61.1689 15.8624 45 91 229
70.4357 -61.6829 15.0166 45 91 229
68.9968 -62.4421 14.2456 45 91 229
67.5487 -63.3941 13.7588 45 91 229
66.0313 -64.1681 13.1772 45 91 229
64.7976 -65.4707 13.3211 45 91 229
63.2398 -66.2208 12.8205 45 91 229
61.8158 -67.3097 12.6593 45 91 229
60.2809 -68.1229 12.1868 45 91 229
58.9561 -69.3411 12.2095 45 91 229
57.3448 -69.9604 11.6993 45 91 229
55.8697 -70.9883 11.6087 45 91 229
54.4441 -72.0868 11.6003 45 91 229
52.8432 -72.8194 11.225 45 91 229
51.2776 -73.6987 11.1002 45 91 229
50.0182 -74.945 11.4187 45 91 229
48.5866 -76.0286 11.5445 45 91 229
47.1292 -77.0785 11.6615 45 91 229
45.49 -77.8032 11.4943 45 91 229
43.8823 -78.6089 11.4192 45 91 229
42.2963 -79.46 11.4051 45 91 229
40.7279 -80.3413 11.4678 45 91 229
39.133 -81.1745 11.5077 45 91 229
37.6436 -82.158 11.7412 45 91 229
36.157 -83.1421 11.9904 45 91 229
34.6494 -84.0931 12.2402 45 91 229
33.133 -85.0261 12.5048 45 91 229
31.6722 -86.0154 12.8621 45 91 229
30.1477 -86.926 13.1566 45 91 229
29.0433 -88.1065 13.948 45 91 229
27.5823 -89.0864 14.3293 45 91 229
26.7789 -90.2841 15.4065 45 91 229
25.3972 -91.2438 16.0468 45 91 229
24.2482 -92.3447 16.888 45 91 229
22.9326 -93.364 17.5737 45 91 229
22.2426 -95.0212 17.4426 45 91 229
21.2525 -96.5245 17.4241 45 91 229
19.9613 -97.4769 18.2399 45 91 229
19.485 -97.6194 19.9699 45 91 229
18.8108 -98.0657 21.5778 45 91 229
17.2578 -98.7654 22.16 45 91 229
16.66 -99.6437 23.613 45 91 229
15.1537 -100.289 24.3578 45 91 229
13.4166 -100.748 24.466 45 91 229
12.2431 -101.631 25.5065 45 91 229
11.1209 -102.662 26.4647 45 91 229
10.6672 -103.488 27.9981 45 91 229
9.51967 -104.364 29.0732 45 91 229
8.60908 -105.193 30.3864 45 91 229
8.37154 -106.022 31.9665 45 91 229
6.92837 -106.618 32.862 45 91 229
5.63798 -107.459 33.7932 45 91 229
5.74839 -108.009 35.5035 45 91 229
4.86907 -108.699 36.9143 45 91 229
4.37673 -109.516 38.4411 45 91 229
54.3973 46.8929 -8.86654 137 45 229
55.9587 46.919 -7.97183 137 45 229
56.7642 47.9686 -6.75163 137 45 229
57.2187 49.2564 -5.5787 137 45 229
57.6574 50.5754 -4.43475 137 45 229
58.2839 51.8975 -3.38683 137 45 229
58.4018 51.8326 -3.20687 137 45 229
59.1179 52.9514 -1.99184 137 45 229
59.8682 54.0608 -0.789245 137 45 229
60.6451 55.1431 0.420362 137 45 229
61.2981 56.1624 1.75291 137 45 229
62.0924 57.1252 3.0501 137 45 229
62.7346 58.1039 4.41702 137 45 229
63.4556 59.0199 5.78864 137 45 229
64.041 60.0332 7.15657 137 45 229
64.9076 60.8184 8.52513 137 45 229
65.8295 61.5031 9.9105 137 45 229
66.0973 62.5288 11.3658 137 45 229
66.8956 63.0891 12.8784 137 45 229
67.7243 63.6639 14.3694 137 45 229
68.7494 63.9996 15.81 137 45 229
69.1892 64.7174 17.4011 137 45 229
70.3071 65.1123 18.7556 137 45 229
70.2797 66.1069 20.2557 137 45 229
70.4905 67.18 21.6853 137 45 229
69.5482 68.7033 21.8627 137 45 229
68.6392 70.2522 21.7414 137 45 229
67.2421 71.183 21.0915 137 45 229
65.9504 72.3533 20.6424 137 45 229
64.6203 73.3423 19.9405 137 45 229
63.3043 74.5437 19.685 137 45 229
62.0566 75.8397 19.6268 137 45 229
60.5805 76.8139 19.2909 137 45 229
59.3648 78.1358 19.4129 137 45 229
57.9013 79.1805 19.3325 137 45 229
56.3847 80.1496 19.3151 137 45 229
55.171 81.4707 19.462 137 45 229
53.6812 82.424 19.7972 137 45 229
52.1821 83.4156 19.8943 137 45 229
50.7345 84.4849 19.9243 137 45 229
49.8563 83.5656 18.6509 137 45 229
49.5646 82.3047 17.3996 137 45 229
49.0872 81.1429 16.1104 137 45 229
48.8755 79.844 14.882 137 45 229
48.7642 78.5679 13.6174 137 45 229
48.4273 77.4452 12.2513 137 45 229
48.7619 76.076 11.1319 137 45 229
48.8477 74.9089 9.76416 137 45 229
49.0649 73.4425 8.7432 137 45 229
49.5821 72.0021 7.79612 137 45 229
49.3094 70.8101 6.47494 137 45 229
49.2639 69.5616 5.17889 137 45 229
49.7016 68.0658 4.27808 137 45 229
49.7638 66.6732 3.13949 137 45 229
49.2347 65.6562 1.75176 137 45 229
49.5169 64.1296 0.840948 137 45 229
49.2321 62.8729 -0.415845 137 45 229
49.0106 61.4717 -1.52417 137 45 229
49.1646 59.9743 -2.51094 137 45 229
49.2258 58.5351 -3.59032 137 45 229
49.1872 57.1664 -4.75883 137 45 229
49.803 55.6518 -5.51146 137 45 229
49.9658 54.164 -6.51116 137 45 229
50.9422 52.7534 -7.05603 137 45 229
51.6811 51.2565 -7.72931 137 45 229
52.2702 49.7574 -8.53291 137 45 229
53.3265 48.3398 -8.87122 137 45 229
58.4154 -56.9512 1.7478 229 45 183
59.8924 -57.1576 2.75593 229 45 183
61.3737 -56.2384 3.20395 229 45 183
62.9062 -55.3766 3.58818 229 45 183
64.2718 -54.2762 3.99463 229 45 183
65.6204 -53.1622 4.41979 229 45 183
67.054 -52.1596 4.84223 229 45 183
68.2985 -50.9182 5.22998 229 45 183
69.8078 -50.0583 5.7027 229 45 183
71.0269 -48.9652 6.17027 229 45 183
72.2969 -47.7786 6.63775 229 45 183
73.5238 -46.5243 7.03937 229 45 183
74.7802 -45.3187 7.49559 229 45 183
76.2171 -44.3866 8.0496 229 45 183
77.393 -43.1132 8.53474 229 45 183
78.3181 -41.5929 8.80778 229 45 183
79.7442 -40.6237 9.32375 229 45 183
80.8722 -39.3105 9.8178 229 45 183
82.104 -38.0764 10.262 229 45 183
82.9955 -36.5844 10.7311 229 45 183
84.1843 -35.3412 11.2616 229 45 183
84.3769 -33.5546 11.1507 229 45 183
83.3726 -32.8746 9.82047 229 45 183
82.3588 -32.4738 8.38837 229 45 183
81.3068 -31.863 7.06141 229 45 183
80.2383 -31.4953 5.66034 229 45 183
79.2824 -31.0723 4.19502 229 45 183
78.0831 -31.4556 2.90854 229 45 183
77.0533 -31.0836 1.48019 229 45 183
75.9044 -30.6865 0.152661 229 45 183
74.6747 -30.4019 -1.13063 229 45 183
73.3968 -30.1091 -2.36418 229 45 183
72.1825 -29.4671 -3.52734 229 45 183
70.8231 -29.0468 -4.63015 229 45 183
69.5453 -28.635 -5.82903 229 45 183
68.3032 -28.038 -6.98689 229 45 183
66.7987 -27.9173 -7.96773 229 45 183
65.4242 -27.4988 -9.05223 229 45 183
63.9615 -27.3416 -10.0895 229 45 183
62.5429 -27.026 -11.1511 229 45 183
61.0899 -26.8563 -12.2001 229 45 183
59.532 -26.8992 -13.1005 229 45 183
58.8609 -28.56 -12.919 229 45 183
58.8174 -30.262 -12.3349 229 45 183
58.5545 -31.9857 -11.8887 229 45 183
58.5585 -33.6614 -11.2315 229 45 183
58.3732 -35.3919 -10.7728 229 45 183
58.2259 -37.0694 -10.1368 229 45 183
58.3051 -38.6601 -9.29786 229 45 183
58.3924 -40.2646 -8.48706 229 45 183
58.4759 -41.9867 -7.96998 229 45 183
58.8263 -43.3466 -6.84385 229 45 183
58.8198 -44.9016 -5.93727 229 45 183
58.8806 -46.4282 -4.98557 229 45 183
58.789 -47.8958 -3.94742 229 45 183
58.7648 -49.3321 -2.86272 229 45 183
58.6381 -50.8598 -1.91932 229 45 183
58.3916 -52.3217 -0.898589 229 45 183
58.1889 -53.9246 -0.104928 229 45 183
58.1941 -55.3085 1.04602 229 45 183
